<?xml version="1.0" encoding="UTF-8" standalone="no"?>
<!-- Created with Inkscape (http://www.inkscape.org/) -->
<svg id="svg2" xmlns:rdf="http://www.w3.org/1999/02/22-rdf-syntax-ns#" xmlns="http://www.w3.org/2000/svg" viewBox="0 0 315.55 360.86" height="100%" width="100%" version="1.1" xmlns:cc="http://creativecommons.org/ns#" xmlns:dc="http://purl.org/dc/elements/1.1/">
 <metadata id="metadata7">
  <rdf:RDF>
   <cc:Work rdf:about="">
    <dc:format>image/svg+xml</dc:format>
    <dc:type rdf:resource="http://purl.org/dc/dcmitype/StillImage"/>
    <dc:title/>
   </cc:Work>
  </rdf:RDF>
 </metadata>
 <g id="template1">
  <rect id="background1" height="179.29" width="314.55" stroke="#000" y=".5" x=".5" fill="#fff"/>
  <text id="line1" y="88.665962" x="158.28638" font-size="12.5px" style="text-anchor:middle">John Smith</text>
  <text id="line2" y="99.665962" x="158.28638" font-size="9.375px" style="text-anchor:middle">Owner</text>
  <text id="line3" y="122.66596" x="75.286377" font-size="11px" font-weight="bold" style="text-anchor:middle">Company Name</text>
  <text id="line4" y="133.66595" x="75.286377" font-size="9.375px" style="text-anchor:middle">123 Main Street</text>
  <text id="line5" y="144.66595" x="75.286377" font-size="9.375px" style="text-anchor:middle">Anywhere, USA 65421</text>
  <text id="line6" y="155.66595" x="75.286377" font-size="9.375px" style="text-anchor:middle">www.yourwebsite.com</text>
  <text id="line7" y="111.66596" x="293.28638" font-size="9.375px" style="text-anchor:end">Phone: (800) 123-4567</text>
  <text id="line8" y="122.66596" x="293.28638" font-size="9.375px" style="text-anchor:end">FAX: (123) 456-7890</text>
  <text id="line9" y="133.66595" x="293.28638" font-size="9.375px" style="text-anchor:end">Toll Free: (123) 345-7893</text>
  <text id="line10" y="144.66595" x="293.28638" font-size="9.375px" style="text-anchor:end">Cell: (123) 345-7893</text>
  <text id="line11" y="155.66595" x="293.28638" font-size="9.375px" style="text-anchor:end">email@yourdomain.com</text>
  <rect id="rect2990" opacity="0" height="45" width="67.5" y="22.674" x="124.04"/>
  <path id="path12335" d="m154.49 67.448c-3.842-0.59-7.046-1.92-10.145-4.21-4.431-3.275-7.474-8.03-8.658-13.528-0.42-1.948-0.532-5.562-0.236-7.601 0.555-3.821 2.008-7.378 4.244-10.385 1.071-1.4415 3.184-3.5513 4.59-4.5825 3.425-2.5128 6.895-3.88 11.104-4.375 1.634-0.19216 4.79-0.07289 6.517 0.24634 8.068 1.4912 14.792 7.4392 17.312 15.314 1.4725 4.6006 1.431 9.3897-0.12159 14.034-2.3949 7.1645-8.3547 12.716-15.678 14.605-2.8146 0.72571-6.1666 0.90677-8.9287 0.48228zm7.5818-1.0088c7.774-1.676 13.895-7.135 16.304-14.538 2.934-9.02-0.3-18.881-8.001-24.395-2.564-1.836-5.62-3.1295-8.77-3.7125-1.61-0.29809-5.072-0.36267-6.755-0.12602-3.287 0.46242-6.193 1.537-8.884 3.2848-5.733 3.7235-9.401 9.9527-9.831 16.697-0.416 6.5234 1.8636 12.509 6.4857 17.03 1.8588 1.8183 3.3716 2.8829 5.6859 4.0015 1.5496 0.74898 2.6528 1.1535 4.2548 1.56 1.9082 0.48422 3.037 0.59312 5.6503 0.54514 2.0617-0.03785 2.6883-0.09417 3.8599-0.34686zm-7.3417-0.6265c-7.4968-1.1877-13.647-6.1092-16.43-13.148-0.9174-2.32-1.3376-4.674-1.3376-7.494 0-2.9619 0.43197-5.2565 1.4691-7.804 1.0576-2.5977 2.339-4.5534 4.3518-6.6418 3.4337-3.5626 7.6667-5.6718 12.59-6.2732 1.6576-0.20249 4.7038-0.08466 6.3769 0.24666 13.358 2.6453 20.69 17.201 14.818 29.417-2.8715 5.9735-8.0984 10.076-14.634 11.486-1.7947 0.38721-5.4228 0.49381-7.2037 0.21166zm6.2636-7.7745c2.4153-0.62962 4.4731-1.8009 6.1628-3.5077 3.3546-3.3886 4.6314-8.1809 3.4215-12.842-0.37349-1.4388-1.5075-3.6549-2.4883-4.8625-1.4735-1.8143-3.454-3.2517-5.5811-4.0507-1.8151-0.68179-2.5519-0.80332-4.837-0.79792-1.8145 0.0043-2.1713 0.03976-3.2149 0.31957-1.3464 0.361-3.0741 1.1442-4.1791 1.8947-1.7478 1.1869-3.6008 3.3427-4.4914 5.2254-1.7465 3.6918-1.6981 8.1461 0.12748 11.728 1.2742 2.5002 3.2781 4.533 5.6949 5.7772 1.4273 0.73473 2.4579 1.0691 4.4423 1.4411 0.16508 0.03095 1.0836 0.03848 2.041 0.01671 1.3813-0.03139 1.9807-0.10208 2.9018-0.3422zm-3.262-6.6246v-6.1832h-6.1761c-3.6906 0-6.204-0.04506-6.2453-0.11198-0.11173-0.18079 0.16009-2.2724 0.42234-3.2498 0.37129-1.3837 1.4097-3.3902 2.3586-4.5575 2.1892-2.6929 5.8588-4.5672 8.9421-4.5672h0.69832v6.1832 6.1832h6.2432 6.2432v0.58458c0 0.32152-0.0793 1.0374-0.17622 1.5908-0.8807 5.0288-4.7276 9.0235-9.7005 10.073-0.60991 0.12875-1.4466 0.23493-1.8593 0.23596l-0.75039 0.0019v-6.1832zm15.055-14.577c1.2949-0.62212 2.3521-1.1624 2.3493-1.2006-0.002-0.03822-0.18408-0.2721-0.40294-0.51974l-0.39795-0.45025-1.5277 0.73077c-0.84022 0.40192-1.5447 0.71259-1.5655 0.69038-0.0208-0.02222 0.41299-0.67341 0.964-1.4471l1.0018-1.4067-0.42711-0.51429c-0.234-0.2838-0.44-0.5304-0.457-0.5491-0.017-0.01864-0.72294 0.26456-1.5688 0.62934-0.84584 0.36478-1.5617 0.63942-1.5908 0.61032s0.38556-0.6209 0.92146-1.3151c0.53591-0.6942 0.97279-1.3318 0.97085-1.4169-0.006-0.23457-0.72433-0.97704-0.83145-0.8586-0.30643 0.33878-3.1509 4.0482-3.1976 4.1699-0.0492 0.12831 0.73715 1.2765 0.87427 1.2765 0.0282 0 0.65576-0.24862 1.3947-0.55248 1.9698-0.81002 1.9112-0.78999 1.8064-0.61777-0.0501 0.08234-0.48542 0.7249-0.96736 1.4279-0.48193 0.703-0.87625 1.3188-0.87625 1.3683 0 0.19263 0.87523 1.146 1.0206 1.1117 0.0846-0.01995 1.2133-0.54529 2.5081-1.1674zm-26.23-0.591c1.6165-1.9227 1.809-2.223 1.8096-2.8224 0.00036-0.36907-0.0848-0.54748-0.42241-0.8851-0.401-0.4011-0.457-0.4202-1.08-0.3685l-0.6577 0.05454v-0.4142c0-0.32106-0.10482-0.51902-0.46612-0.88033-0.543-0.5431-0.88-0.587-1.467-0.1915-0.359 0.2417-2.497 2.6175-3.111 3.4575l-0.22651 0.30984 2.0047 1.6953c1.1026 0.93244 2.0644 1.6845 2.1372 1.6712 0.0729-0.01329 0.73854-0.745 1.4792-1.626zm-1.7917-0.35239-0.53427-0.47413 0.89139-1.05c0.49027-0.57748 0.96796-1.0793 1.0615-1.1152 0.29856-0.11456 0.79409 0.14416 0.91059 0.47542 0.10057 0.28596 0.0371 0.41118-0.59817 1.1814-0.39086 0.47386-0.82004 0.99545-0.95372 1.1591l-0.24306 0.29752-0.53428-0.47413zm-1.8204-1.5042-0.43953-0.39045 0.89347-1.0471c0.49141-0.57589 0.98783-1.0471 1.1032-1.0471 0.33638 0 0.74337 0.35106 0.74337 0.64121 0 0.27425-1.4709 2.1578-1.7236 2.207-0.0756 0.01474-0.33516-0.1489-0.57689-0.36365zm12.893-5.3175 0.0331-1.8724 0.7068 1.8724 0.70681 1.8724h0.57336 0.57336l0.3297-0.87045c0.18133-0.47875 0.50822-1.3297 0.72642-1.891l0.39673-1.0205 0.005 1.891 0.005 1.891h0.54028 0.54028v-2.7014-2.7014h-0.81335-0.81334l-0.70873 1.861c-0.3898 1.0235-0.74145 1.861-0.78143 1.861-0.0399 0-0.38897-0.83743-0.77554-1.861l-0.703-1.8617h-0.82399-0.82398v2.7014 2.7014h0.53723 0.53723l0.0331-1.8724z"/>
 </g>
 <g id="template2">
  <rect id="background2" height="179.29" width="314.55" stroke="#000" y="181.07" x=".5" fill="#fff"/>
  <text id="line1-0" font-size="12.5px" style="text-anchor:end" y="212.85275" x="148.66701" font-weight="bold">Company Name</text>
  <text id="line2-3" font-size="12.5px" y="228.85275" x="166.66701" font-weight="bold">John Smith</text>
  <text id="line3-2" y="239.85275" x="166.66701" font-size="9.375px">Owner</text>
  <text id="line4-6" y="251.85275" x="148.66701" font-size="9.375px" style="text-anchor:end">123 Main Street</text>
  <text id="line5-3" y="262.85275" x="148.66701" font-size="9.375px" style="text-anchor:end">Anywhere, USA 65421</text>
  <text id="line6-4" y="283.85275" x="148.66701" font-size="9.375px" style="text-anchor:end">(800) 123-4567</text>
  <text id="line7-0" y="294.85275" x="148.66701" font-size="9.375px" style="text-anchor:end">FAX: (123) 456-7890</text>
  <text id="line8-5" y="305.85275" x="148.66701" font-size="9.375px" style="text-anchor:end">Cell: (123) 345-7893</text>
  <text id="line9-6" y="324.85275" x="148.66701" font-size="9.375px" style="text-anchor:end">email@yourdomain.com</text>
  <text id="line10-7" y="335.85275" x="148.66701" font-size="9.375px" style="text-anchor:end">www.yourwebsite.com</text>
  <path id="path12335-8" d="m258.73 337.66c-3.2658-0.50152-5.9893-1.6321-8.6236-3.5786-3.7665-2.7839-6.3532-6.8258-7.3596-11.499-0.35701-1.6559-0.45221-4.7279-0.2006-6.4611 0.47177-3.248 1.7069-6.2715 3.6075-8.8276 0.91038-1.2253 2.7065-3.0187 3.9016-3.8953 2.9114-2.136 5.861-3.2981 9.4388-3.7189 1.389-0.16334 4.0716-0.062 5.5397 0.20941 6.8581 1.2676 12.574 6.3236 14.716 13.017 1.2517 3.9107 1.2164 7.9816-0.10336 11.929-2.0357 6.0901-7.1018 10.809-13.327 12.415-2.3925 0.61687-5.2418 0.77077-7.5897 0.40995zm6.4448-0.85752c6.6082-1.4247 11.811-6.065 13.859-12.358 2.494-7.6673-0.255-16.049-6.8011-20.737-2.1795-1.5607-4.7772-2.6602-7.4548-3.1558-1.3686-0.25339-4.3114-0.30829-5.742-0.10712-2.7941 0.39307-5.2643 1.3065-7.5517 2.7922-4.8732 3.1651-7.9912 8.4601-8.3567 14.193-0.35361 5.5451 1.5841 10.633 5.5131 14.476 1.58 1.5456 2.866 2.4506 4.8332 3.4014 1.3172 0.63665 2.255 0.98051 3.6167 1.326 1.622 0.41161 2.5816 0.50417 4.803 0.46339 1.7525-0.0321 2.2851-0.0801 3.281-0.29485zm-6.2407-0.53254c-6.3725-1.0096-11.6-5.193-13.966-11.176-0.77981-1.9721-1.137-3.9731-1.137-6.3702 0-2.5177 0.36718-4.4682 1.2488-6.6337 0.899-2.2081 1.9882-3.8705 3.6992-5.6458 2.9188-3.0283 6.517-4.8212 10.702-5.3324 1.409-0.17212 3.9984-0.072 5.4206 0.20967 11.355 2.2486 17.587 14.621 12.596 25.005-2.4409 5.0777-6.8839 8.5649-12.439 9.7635-1.5256 0.32914-4.6096 0.41976-6.1234 0.17992zm5.3243-6.6086c2.0531-0.5352 3.8023-1.5308 5.2386-2.9816 2.8515-2.8804 3.9368-6.954 2.9084-10.916-0.31748-1.223-1.2814-3.1068-2.1151-4.1333-1.2525-1.5422-2.936-2.7641-4.7441-3.4432-1.5429-0.57955-2.1692-0.68286-4.1116-0.67827-1.5424 0.003-1.8457 0.0339-2.7328 0.27165-1.1445 0.30686-2.6131 0.97261-3.5524 1.6106-1.4857 1.0089-3.0608 2.8414-3.8178 4.4418-1.4846 3.1382-1.4434 6.9245 0.10837 9.9692 1.0831 2.1252 2.7865 3.8532 4.8408 4.9108 1.2133 0.62454 2.0893 0.90877 3.7761 1.225 0.14033 0.0263 0.9211 0.0327 1.7349 0.0142 1.1742-0.0267 1.6837-0.0868 2.4666-0.29088zm-2.7728-5.6311v-5.2559h-5.2499c-3.1371 0-5.2736-0.0384-5.3087-0.0952-0.095-0.15367 0.13609-1.9316 0.35901-2.7624 0.31561-1.1762 1.1983-2.8818 2.0049-3.874 1.8609-2.289 4.9802-3.8823 7.6011-3.8823h0.59359v5.2559 5.2559h5.3069 5.3069v0.49691c0 0.27331-0.0674 0.88182-0.14978 1.3522-0.74863 4.2746-4.0186 7.6703-8.2458 8.5624-0.51845 0.10944-1.2297 0.1997-1.5805 0.20057l-0.63787 0.002v-5.2559zm12.797-12.391c1.1007-0.52881 1.9994-0.98808 1.997-1.0205-0.002-0.0324-0.15648-0.2313-0.34251-0.4418l-0.33828-0.38273-1.2986 0.62118c-0.71421 0.34165-1.313 0.60572-1.3307 0.58684-0.0176-0.0189 0.35105-0.57242 0.81944-1.2301l0.85156-1.1957-0.36306-0.43716c-0.19891-0.24124-0.37402-0.45086-0.38846-0.46676-0.0145-0.0158-0.61453 0.22489-1.3335 0.53497-0.719 0.31007-1.3275 0.54352-1.3522 0.51879-0.0247-0.0247 0.32774-0.52779 0.78327-1.1179 0.45554-0.59008 0.8269-1.1321 0.82526-1.2044-0.005-0.19938-0.61571-0.83051-0.70676-0.72983-0.26048 0.28797-2.6784 3.4411-2.7181 3.5446-0.0418 0.10907 0.6266 1.0851 0.74316 1.0851 0.024 0 0.55742-0.21134 1.1855-0.46962 1.6744-0.68855 1.6246-0.67153 1.5355-0.52513-0.0426 0.07-0.41263 0.61619-0.82229 1.2138-0.40966 0.59758-0.74484 1.121-0.74484 1.1631 0 0.16375 0.74398 0.97415 0.86755 0.94499 0.0719-0.0169 1.0313-0.46352 2.132-0.99232zm-22.296-0.50237c1.3741-1.6344 1.5377-1.8896 1.5382-2.3991 0.0003-0.31372-0.0721-0.46538-0.35906-0.75236-0.34086-0.34095-0.38847-0.35719-0.91804-0.31324l-0.55907 0.0463v-0.35208c0-0.27291-0.0891-0.44118-0.39621-0.74831-0.46157-0.46165-0.74804-0.49897-1.247-0.16278-0.30516 0.20546-2.1225 2.225-2.6445 2.939l-0.19254 0.26338 1.7041 1.4411c0.93726 0.7926 1.7548 1.4319 1.8167 1.4206s0.62779-0.63327 1.2574-1.3822zm-1.523-0.29954-0.45415-0.40303 0.75771-0.89252c0.41674-0.49089 0.8228-0.91745 0.90231-0.94797 0.25378-0.0974 0.675 0.12254 0.77403 0.40412 0.0855 0.24308 0.0315 0.34953-0.50847 1.0042-0.33224 0.4028-0.69705 0.84616-0.81069 0.98526l-0.20661 0.25291-0.45415-0.40303zm-1.5474-1.2786-0.37361-0.33189 0.75948-0.89008c0.41771-0.48952 0.83969-0.89006 0.93775-0.89006 0.28594 0 0.63189 0.29841 0.63189 0.54505 0 0.23312-1.2503 1.8342-1.4651 1.876-0.0643 0.0124-0.2849-0.12657-0.49038-0.30911zm10.959-4.52 0.0282-1.5916 0.60081 1.5916 0.60081 1.5916h0.48737 0.48739l0.28025-0.73991c0.15413-0.40695 0.432-1.1303 0.61747-1.6074l0.33724-0.86746 0.004 1.6074 0.004 1.6074h0.45926 0.45926v-2.2963-2.2963h-0.69137-0.69138l-0.60244 1.5819c-0.33134 0.87001-0.63025 1.5819-0.66424 1.5819-0.034 0-0.33064-0.71184-0.65923-1.5819l-0.59757-1.5825h-0.70042-0.70041v2.2963 2.2963h0.45666 0.45666l0.0281-1.5916z"/>
 </g>
</svg>
