<?xml version="1.0" encoding="UTF-8" standalone="no"?>
<!-- Created with Inkscape (http://www.inkscape.org/) -->
<svg id="svg2" xmlns:rdf="http://www.w3.org/1999/02/22-rdf-syntax-ns#" xmlns="http://www.w3.org/2000/svg" viewBox="0 0 315 180" height="100%" width="100%" version="1.1" xmlns:cc="http://creativecommons.org/ns#" xmlns:dc="http://purl.org/dc/elements/1.1/">
 <metadata id="metadata8">
  <rdf:RDF>
   <cc:Work rdf:about="">
    <dc:format>image/svg+xml</dc:format>
    <dc:type rdf:resource="http://purl.org/dc/dcmitype/StillImage"/>
    <dc:title/>
   </cc:Work>
  </rdf:RDF>
 </metadata>
 <text id="line1" y="32" x="160" font-size="12.5px" style="text-anchor:end" font-weight="bold">Company Name</text>
 <text id="line2" y="48" x="178" font-size="12.5px" font-weight="bold">John Smith</text>
 <text id="line3" y="59" x="178" font-size="9.375px">Owner</text>
 <text id="line4" y="71" x="160" font-size="9.375px" style="text-anchor:end">123 Main Street</text>
 <text id="line5" y="82" x="160" font-size="9.375px" style="text-anchor:end">Anywhere, USA 65421</text>
 <text id="line6" y="103" x="160" font-size="9.375px" style="text-anchor:end">(800) 123-4567</text>
 <text id="line7" y="114" x="160" font-size="9.375px" style="text-anchor:end">FAX: (123) 456-7890</text>
 <text id="line8" y="125" x="160" font-size="9.375px" style="text-anchor:end">Cell: (123) 345-7893</text>
 <text id="line9" y="144" x="160" font-size="9.375px" style="text-anchor:end">email@yourdomain.com</text>
 <text id="line10" y="155" x="160" font-size="9.375px" style="text-anchor:end">www.yourwebsite.com</text>
 <g id="g12337" transform="translate(-213.47 -76.14)">
  <path id="path12335" d="m483.53 232.95c-3.2658-0.50152-5.9893-1.6321-8.6236-3.5786-3.7665-2.7839-6.3532-6.8258-7.3596-11.499-0.35701-1.6559-0.45221-4.7279-0.2006-6.4611 0.47177-3.248 1.7069-6.2715 3.6075-8.8276 0.91038-1.2253 2.7065-3.0187 3.9016-3.8953 2.9114-2.136 5.861-3.2981 9.4388-3.7189 1.389-0.16334 4.0716-0.062 5.5397 0.20941 6.8581 1.2676 12.574 6.3236 14.716 13.017 1.2517 3.9107 1.2164 7.9816-0.10336 11.929-2.0357 6.0901-7.1018 10.809-13.327 12.415-2.3925 0.61687-5.2418 0.77077-7.5897 0.40995zm6.4448-0.85752c6.6082-1.4247 11.811-6.065 13.859-12.358 2.494-7.6673-0.255-16.049-6.8011-20.737-2.1795-1.5607-4.7772-2.6602-7.4548-3.1558-1.3686-0.25339-4.3114-0.30829-5.742-0.10712-2.7941 0.39307-5.2643 1.3065-7.5517 2.7922-4.8732 3.1651-7.9912 8.4601-8.3567 14.193-0.35361 5.5451 1.5841 10.633 5.5131 14.476 1.58 1.5456 2.866 2.4506 4.8332 3.4014 1.3172 0.63665 2.255 0.98051 3.6167 1.326 1.622 0.41161 2.5816 0.50417 4.803 0.46339 1.7525-0.0321 2.2851-0.0801 3.281-0.29485zm-6.2407-0.53254c-6.3725-1.0096-11.6-5.193-13.966-11.176-0.77981-1.9721-1.137-3.9731-1.137-6.3702 0-2.5177 0.36718-4.4682 1.2488-6.6337 0.899-2.2081 1.9882-3.8705 3.6992-5.6458 2.9188-3.0283 6.517-4.8212 10.702-5.3324 1.409-0.17212 3.9984-0.072 5.4206 0.20967 11.355 2.2486 17.587 14.621 12.596 25.005-2.4409 5.0777-6.8839 8.5649-12.439 9.7635-1.5256 0.32914-4.6096 0.41976-6.1234 0.17992zm5.3243-6.6086c2.0531-0.5352 3.8023-1.5308 5.2386-2.9816 2.8515-2.8804 3.9368-6.954 2.9084-10.916-0.31748-1.223-1.2814-3.1068-2.1151-4.1333-1.2525-1.5422-2.936-2.7641-4.7441-3.4432-1.5429-0.57955-2.1692-0.68286-4.1116-0.67827-1.5424 0.003-1.8457 0.0339-2.7328 0.27165-1.1445 0.30686-2.6131 0.97261-3.5524 1.6106-1.4857 1.0089-3.0608 2.8414-3.8178 4.4418-1.4846 3.1382-1.4434 6.9245 0.10837 9.9692 1.0831 2.1252 2.7865 3.8532 4.8408 4.9108 1.2133 0.62454 2.0893 0.90877 3.7761 1.225 0.14033 0.0263 0.9211 0.0327 1.7349 0.0142 1.1742-0.0267 1.6837-0.0868 2.4666-0.29088zm-2.7728-5.6311v-5.2559h-5.2499c-3.1371 0-5.2736-0.0384-5.3087-0.0952-0.095-0.15367 0.13609-1.9316 0.35901-2.7624 0.31561-1.1762 1.1983-2.8818 2.0049-3.874 1.8609-2.289 4.9802-3.8823 7.6011-3.8823h0.59359v5.2559 5.2559h5.3069 5.3069v0.49691c0 0.27331-0.0674 0.88182-0.14978 1.3522-0.74863 4.2746-4.0186 7.6703-8.2458 8.5624-0.51845 0.10944-1.2297 0.1997-1.5805 0.20057l-0.63787 0.002v-5.2559zm12.797-12.391c1.1007-0.52881 1.9994-0.98808 1.997-1.0205-0.002-0.0324-0.15648-0.2313-0.34251-0.4418l-0.33828-0.38273-1.2986 0.62118c-0.71421 0.34165-1.313 0.60572-1.3307 0.58684-0.0176-0.0189 0.35105-0.57242 0.81944-1.2301l0.85156-1.1957-0.36306-0.43716c-0.19891-0.24124-0.37402-0.45086-0.38846-0.46676-0.0145-0.0158-0.61453 0.22489-1.3335 0.53497-0.719 0.31007-1.3275 0.54352-1.3522 0.51879-0.0247-0.0247 0.32774-0.52779 0.78327-1.1179 0.45554-0.59008 0.8269-1.1321 0.82526-1.2044-0.005-0.19938-0.61571-0.83051-0.70676-0.72983-0.26048 0.28797-2.6784 3.4411-2.7181 3.5446-0.0418 0.10907 0.6266 1.0851 0.74316 1.0851 0.024 0 0.55742-0.21134 1.1855-0.46962 1.6744-0.68855 1.6246-0.67153 1.5355-0.52513-0.0426 0.07-0.41263 0.61619-0.82229 1.2138-0.40966 0.59758-0.74484 1.121-0.74484 1.1631 0 0.16375 0.74398 0.97415 0.86755 0.94499 0.0719-0.0169 1.0313-0.46352 2.132-0.99232zm-22.296-0.50237c1.3741-1.6344 1.5377-1.8896 1.5382-2.3991 0.0003-0.31372-0.0721-0.46538-0.35906-0.75236-0.34086-0.34095-0.38847-0.35719-0.91804-0.31324l-0.55907 0.0463v-0.35208c0-0.27291-0.0891-0.44118-0.39621-0.74831-0.46157-0.46165-0.74804-0.49897-1.247-0.16278-0.30516 0.20546-2.1225 2.225-2.6445 2.939l-0.19254 0.26338 1.7041 1.4411c0.93726 0.7926 1.7548 1.4319 1.8167 1.4206s0.62779-0.63327 1.2574-1.3822zm-1.523-0.29954-0.45415-0.40303 0.75771-0.89252c0.41674-0.49089 0.8228-0.91745 0.90231-0.94797 0.25378-0.0974 0.675 0.12254 0.77403 0.40412 0.0855 0.24308 0.0315 0.34953-0.50847 1.0042-0.33224 0.4028-0.69705 0.84616-0.81069 0.98526l-0.20661 0.25291-0.45415-0.40303zm-1.5474-1.2786-0.37361-0.33189 0.75948-0.89008c0.41771-0.48952 0.83969-0.89006 0.93775-0.89006 0.28594 0 0.63189 0.29841 0.63189 0.54505 0 0.23312-1.2503 1.8342-1.4651 1.876-0.0643 0.0124-0.2849-0.12657-0.49038-0.30911zm10.959-4.52 0.0282-1.5916 0.60081 1.5916 0.60081 1.5916h0.48737 0.48739l0.28025-0.73991c0.15413-0.40695 0.432-1.1303 0.61747-1.6074l0.33724-0.86746 0.004 1.6074 0.004 1.6074h0.45926 0.45926v-2.2963-2.2963h-0.69137-0.69138l-0.60244 1.5819c-0.33134 0.87001-0.63025 1.5819-0.66424 1.5819-0.034 0-0.33064-0.71184-0.65923-1.5819l-0.59757-1.5825h-0.70042-0.70041v2.2963 2.2963h0.45666 0.45666l0.0281-1.5916z"/>
 </g>
</svg>
