<?xml version="1.0" encoding="UTF-8" standalone="no"?>
<!-- Created with Inkscape (http://www.inkscape.org/) -->
<svg id="svg2" xmlns:rdf="http://www.w3.org/1999/02/22-rdf-syntax-ns#" xmlns="http://www.w3.org/2000/svg" viewBox="0 0 315 180" height="100%" width="100%" version="1.1" xmlns:cc="http://creativecommons.org/ns#" xmlns:dc="http://purl.org/dc/elements/1.1/">
 <metadata id="metadata8">
  <rdf:RDF>
   <cc:Work rdf:about="">
    <dc:format>image/svg+xml</dc:format>
    <dc:type rdf:resource="http://purl.org/dc/dcmitype/StillImage"/>
    <dc:title/>
   </cc:Work>
  </rdf:RDF>
 </metadata>
 <text id="line1" y="87.377121" x="158.3606" font-size="12.5px" style="text-anchor:middle">John Smith</text>
 <text id="line2" y="98.002136" x="157.24136" font-size="9.375px" style="text-anchor:middle">Owner</text>
 <text id="line3" y="123.37083" x="74.980042" font-size="10px" style="text-anchor:middle">Company Name</text>
 <text id="line4" y="134.24576" x="74.594147" font-size="9.375px" style="text-anchor:middle">123 Main Street</text>
 <text id="line5" y="145.12067" x="75.392944" font-size="9.375px" style="text-anchor:middle">Anywhere, USA 65421</text>
 <text id="line6" y="155.9521" x="75.198395" font-size="9.375px" style="text-anchor:middle">www.yourwebsite.com</text>
 <text id="line7" y="114.24759" x="292.09003" font-size="9.375px" style="text-anchor:end">Phone: (800) 123-4567</text>
 <text id="line8" y="124.37253" x="292.77444" font-size="9.375px" style="text-anchor:end">FAX: (123) 456-7890</text>
 <text id="line9" y="134.57028" x="292.91745" font-size="9.375px" style="text-anchor:end">Toll Free: (123) 345-7893</text>
 <text id="line10" y="145.00107" x="294.0119" font-size="9.375px" style="text-anchor:end">Cell: (123) 345-7893</text>
 <text id="line11" y="155.5692" x="292.91745" font-size="9.375px" style="text-anchor:end">email@yourdomain.com</text>
 <g id="g12337" transform="translate(123.75 22.008)">
  <rect id="rect2990" opacity="0" height="45" width="67.5" y="0" x="3.5527e-15"/>
  <path id="path12335" d="m30.451 44.774c-3.842-0.59-7.046-1.92-10.145-4.21-4.431-3.275-7.474-8.03-8.658-13.528-0.42-1.948-0.532-5.562-0.236-7.601 0.555-3.821 2.008-7.378 4.244-10.385 1.071-1.4415 3.184-3.5513 4.59-4.5825 3.425-2.5128 6.895-3.88 11.104-4.375 1.634-0.19216 4.79-0.072886 6.517 0.24634 8.068 1.4912 14.792 7.4392 17.312 15.314 1.4725 4.6006 1.431 9.3897-0.12159 14.034-2.3949 7.1645-8.3547 12.716-15.678 14.605-2.8146 0.72571-6.1666 0.90677-8.9287 0.48228zm7.5818-1.0088c7.774-1.676 13.895-7.135 16.304-14.538 2.934-9.02-0.3-18.881-8.001-24.395-2.564-1.836-5.62-3.1295-8.77-3.7125-1.61-0.29809-5.072-0.36267-6.755-0.12602-3.287 0.46242-6.193 1.537-8.884 3.2848-5.733 3.7235-9.401 9.9527-9.831 16.697-0.416 6.5234 1.8636 12.509 6.4857 17.03 1.8588 1.8183 3.3716 2.8829 5.6859 4.0015 1.5496 0.74898 2.6528 1.1535 4.2548 1.56 1.9082 0.48422 3.037 0.59312 5.6503 0.54514 2.0617-0.03785 2.6883-0.09417 3.8599-0.34686zm-7.3417-0.6265c-7.4968-1.1877-13.647-6.1092-16.43-13.148-0.9174-2.32-1.3376-4.674-1.3376-7.494 0-2.9619 0.43197-5.2565 1.4691-7.804 1.0576-2.5977 2.339-4.5534 4.3518-6.6418 3.4337-3.5626 7.6667-5.6718 12.59-6.2732 1.6576-0.20249 4.7038-0.084664 6.3769 0.24666 13.358 2.6453 20.69 17.201 14.818 29.417-2.8715 5.9735-8.0984 10.076-14.634 11.486-1.7947 0.38721-5.4228 0.49381-7.2037 0.21166zm6.2636-7.7745c2.4153-0.62962 4.4731-1.8009 6.1628-3.5077 3.3546-3.3886 4.6314-8.1809 3.4215-12.842-0.37349-1.4388-1.5075-3.6549-2.4883-4.8625-1.4735-1.8143-3.454-3.2517-5.5811-4.0507-1.8151-0.68179-2.5519-0.80332-4.837-0.79792-1.8145 0.0043-2.1713 0.039764-3.2149 0.31957-1.3464 0.361-3.0741 1.1442-4.1791 1.8947-1.7478 1.1869-3.6008 3.3427-4.4914 5.2254-1.7465 3.6918-1.6981 8.1461 0.12748 11.728 1.2742 2.5002 3.2781 4.533 5.6949 5.7772 1.4273 0.73473 2.4579 1.0691 4.4423 1.4411 0.16508 0.03095 1.0836 0.03848 2.041 0.01671 1.3813-0.03139 1.9807-0.10208 2.9018-0.3422zm-3.262-6.6246v-6.1832h-6.1761c-3.6906 0-6.204-0.04506-6.2453-0.11198-0.11173-0.18079 0.16009-2.2724 0.42234-3.2498 0.37129-1.3837 1.4097-3.3902 2.3586-4.5575 2.1892-2.6929 5.8588-4.5672 8.9421-4.5672h0.69832v6.1832 6.1832h6.2432 6.2432v0.58458c0 0.32152-0.0793 1.0374-0.17622 1.5908-0.8807 5.0288-4.7276 9.0235-9.7005 10.073-0.60991 0.12875-1.4466 0.23493-1.8593 0.23596l-0.75039 0.0019v-6.1832zm15.055-14.577c1.2949-0.62212 2.3521-1.1624 2.3493-1.2006-0.002-0.03822-0.18408-0.2721-0.40294-0.51974l-0.39795-0.45025-1.5277 0.73077c-0.84022 0.40192-1.5447 0.71259-1.5655 0.69038-0.0208-0.02222 0.41299-0.67341 0.964-1.4471l1.0018-1.4067-0.42711-0.51429c-0.234-0.2838-0.44-0.5304-0.457-0.5491-0.017-0.018643-0.72294 0.26456-1.5688 0.62934-0.84584 0.36478-1.5617 0.63942-1.5908 0.61032s0.38556-0.6209 0.92146-1.3151c0.53591-0.6942 0.97279-1.3318 0.97085-1.4169-0.006-0.23457-0.72433-0.97704-0.83145-0.8586-0.30643 0.33878-3.1509 4.0482-3.1976 4.1699-0.0492 0.12831 0.73715 1.2765 0.87427 1.2765 0.0282 0 0.65576-0.24862 1.3947-0.55248 1.9698-0.81002 1.9112-0.78999 1.8064-0.61777-0.0501 0.08234-0.48542 0.7249-0.96736 1.4279-0.48193 0.703-0.87625 1.3188-0.87625 1.3683 0 0.19263 0.87523 1.146 1.0206 1.1117 0.0846-0.01995 1.2133-0.54529 2.5081-1.1674zm-26.23-0.591c1.6165-1.9227 1.809-2.223 1.8096-2.8224 0.00036-0.36907-0.0848-0.54748-0.42241-0.8851-0.401-0.4011-0.457-0.4202-1.08-0.3685l-0.6577 0.054541v-0.4142c0-0.32106-0.10482-0.51902-0.46612-0.88033-0.543-0.5431-0.88-0.587-1.467-0.1915-0.359 0.2417-2.497 2.6175-3.111 3.4575l-0.22651 0.30984 2.0047 1.6953c1.1026 0.93244 2.0644 1.6845 2.1372 1.6712 0.0729-0.01329 0.73854-0.745 1.4792-1.626zm-1.7917-0.35239-0.53427-0.47413 0.89139-1.05c0.49027-0.57748 0.96796-1.0793 1.0615-1.1152 0.29856-0.11456 0.79409 0.14416 0.91059 0.47542 0.10057 0.28596 0.0371 0.41118-0.59817 1.1814-0.39086 0.47386-0.82004 0.99545-0.95372 1.1591l-0.24306 0.29752-0.53428-0.47413zm-1.8204-1.5042-0.43953-0.39045 0.89347-1.0471c0.49141-0.57589 0.98783-1.0471 1.1032-1.0471 0.33638 0 0.74337 0.35106 0.74337 0.64121 0 0.27425-1.4709 2.1578-1.7236 2.207-0.0756 0.01474-0.33516-0.1489-0.57689-0.36365zm12.893-5.3175 0.0331-1.8724 0.7068 1.8724 0.70681 1.8724h0.57336 0.57336l0.3297-0.87045c0.18133-0.47875 0.50822-1.3297 0.72642-1.891l0.39673-1.0205 0.005 1.891 0.005 1.891h0.54028 0.54028v-2.7014-2.7014h-0.81335-0.81334l-0.70873 1.861c-0.3898 1.0235-0.74145 1.861-0.78143 1.861-0.0399 0-0.38897-0.83743-0.77554-1.861l-0.703-1.8617h-0.82399-0.82398v2.7014 2.7014h0.53723 0.53723l0.0331-1.8724z"/>
 </g>
</svg>
