<?xml version="1.0" encoding="UTF-8" standalone="no"?>
<!-- Created with Inkscape (http://www.inkscape.org/) -->
<svg id="svg2" xmlns:rdf="http://www.w3.org/1999/02/22-rdf-syntax-ns#" xmlns="http://www.w3.org/2000/svg" height="45" width="67.5" version="1.1" xmlns:cc="http://creativecommons.org/ns#" xmlns:dc="http://purl.org/dc/elements/1.1/">
 <metadata id="metadata7">
  <rdf:RDF>
   <cc:Work rdf:about="">
    <dc:format>image/svg+xml</dc:format>
    <dc:type rdf:resource="http://purl.org/dc/dcmitype/StillImage"/>
    <dc:title/>
   </cc:Work>
  </rdf:RDF>
 </metadata>
 <g id="g3620">
  <rect id="rect2990" opacity="0" height="45" width="67.5" y="0" x="3.5527e-15"/>
  <g id="g3601" fill-rule="evenodd">
   <path id="path9" d="m27.184 1.59c1.5372 0.58237 1.7909 2.4482 2.4456 3.913 0.56097 0.1126 0.59052-0.30622 1.1005-0.24456-0.61854 3.7969 4.9794 4.0837 4.0353 7.8261-0.43156 1.712-3.0932 2.572-5.1359 2.5679-0.0214-1.5703 2.3402-0.75764 3.3016-1.3451-1.819-1.9056-3.3648 1.2035-4.5244 1.2228-0.64249 0.0107-1.0175-0.40404-1.1005-0.73369-0.53091-2.1048 3.1411-1.9341 2.8125-3.5462-0.70414-0.17425-0.51664 0.54314-1.1005 0.48913-0.61345-0.7016 0.54568-2.2678-0.48913-2.8125-1.9 0.17935-2.1073 2.0503-3.4239 2.8125 0.38519-2.5878 3.3801-3.0825 3.0571-5.9918-0.143-1.2903-1.199-2.2741-0.978-4.1568zm3.7908 7.9484c0.11515 0.61905 0.88349 0.5839 0.97826 1.2228-0.41882 0.15132-1.0363 0.10496-0.85598 0.85598 2.2474 0.90234 1.5224-2.8752-0.12228-2.0788z" fill="#fff"/>
   <path id="path11" d="m34.032 3.0574h0.24456c2.033 1.6758 2.915 4.5024 3.301 7.8264-0.568-1.796-1.389-3.34-1.711-5.381-0.721-0.6529-2.353-0.951-1.835-2.4454z" fill="#fff"/>
   <path id="path13" d="m33.054 4.8917c-0.025 0.4642-0.555 0.4234-0.856 0.6111-0.18-0.6519 0.437-0.9408 0.856-0.6111z" fill="#fff"/>
   <path id="path15" d="m21.314 5.0139c0.1503 0.0535 0.25119 0.15642 0.24456 0.36685-1.4093 2.3427-0.38111 6.2364-1.4674 9.1712-0.85343-0.36532-0.21196-1.2835-0.12228-1.9565 0.11005-0.82694 0.03821-1.8246 0.12228-2.8125 0.05044-0.59358 0.33169-1.1968 0.36685-1.712 0.08814-1.3013-0.35717-2.626 0.85598-3.0571z" fill="#fff"/>
   <path id="path17" d="m24.861 6.3589c-0.615 0.3607-0.962 1.0842-0.734 1.9565-1.092-0.3821-0.476-2.1399 0.734-1.9565z" fill="#fff"/>
   <path id="path19" d="m25.35 6.8479c0.524-0.0347 0.541 0.4377 0.611 0.856-0.294-0.0499-0.265 0.2231-0.611 0.1223v-0.97826z" fill="#fff"/>
   <path id="path21" d="m31.097 11.617c-0.18037-0.75102 0.43665-0.70465 0.85598-0.85598-0.09477-0.63893-0.86311-0.60377-0.97826-1.2228 1.6447-0.79636 2.3697 2.9811 0.12228 2.0788z"/>
   <path id="path23" d="m25.105 23.357c-0.47843 0.07133-0.71026-0.10496-0.97826-0.24406-0.37958-1.9361-0.002-4.154 1.4674-4.6467 0.28685 0.03872 0.27412 0.37857 0.48913 0.48913-0.07439 1.7186-0.61855 2.9679-0.97826 4.4017z" fill="#fff"/>
   <path id="path25" d="m44.67 23.234c0.75204 0.06369 0.81573 0.81522 1.1005 1.3456-0.83254 0.46671-1.2692-0.41474-1.1005-1.3456z" fill="#fff"/>
   <path id="path27" d="m46.871 27.759c-0.93699 0.24151 0.45346 0.84069-0.24456 1.2223 0.11209 0.2145 0.22724 0.42493 0.61141 0.36685-0.13757 0.22928-0.47384 0.26036-0.61141 0.48964 0.26342 0.39946 0.4606 0.49422 0 0.85598 0.13808 0.22877 0.1447 0.58899 0.61141 0.48913 0.01019 0.45805-0.86566 0.03108-0.85598 0.48913 0.01885 0.87789 1.5581 0.23539 1.9565 0.73318-0.482 0.74694-1.717-0.54976-2.0788 0.36736 0.14827 0.54416 1.0684 0.31742 1.4674 0.61141-0.2038 0.32558-1.1275-0.06827-1.3451 0.24406-0.01936 0.46773 0.49881 0.39742 0.73318 0.61141-0.17018 0.19667-0.60326 0.13043-0.73318 0.36685-0.00051 0.3266 0.38672 0.26546 0.36685 0.61141-1.636 0.84375-4.823 4.1922-1.4674 5.1359-1.0338 0.67816-1.9473 1.476-3.0571 2.0788 0.09783 0.42391-0.1819 0.46977-0.12228 0.85598-0.14164-0.01987-0.21756 0.027-0.24406 0.12228-0.37194 0.0056-0.47588-0.25832-0.7337-0.36685-0.03974-0.69192 0.3592-0.94514 0.36685-1.5897-0.68274-0.28074-1.1219 0.64504-0.97826 1.5897-0.2894 0.22316-0.7072 0.31895-1.1 0.12177-0.07388-0.7663 0.50136-0.88349 0.48913-1.5897-0.02344-0.09884-0.12279-0.12126-0.12228-0.24406-1.4582-0.07235-0.61141 2.1598-2.0788 2.0788-0.6002-3.2991 3.5635-2.8706 5.2581-4.2799 0.94463-2.2159-1.4338-5.4548-1.8347-8.5598-0.26494-2.0518 0.25577-4.3008 1.4674-5.0136 1.7848-1.0491 3.4774 0.88247 4.2794 2.2016z" fill="#fff"/>
   <path id="path29" d="m26.328 28.982c-0.36175 2.6749 1.1281 4.7879-0.61141 5.9918 0.44684 0.7072-0.26138 1.2677 0 2.0788-0.96603 0.25679-1.6773 0.76885-1.712 1.957-1.2819 0.30774-1.606 1.5729-2.2011 2.5674-0.58543-0.02548-1.3446 0.12177-1.5897-0.24406 0.07031-0.82694 0.48862-1.3054 1.1005-1.5897 0.09069-0.41627-0.45041-0.20177-0.48913-0.48913-1.0007 0.14062-1.0537 1.2284-1.5897 1.8342-0.30112 0.0163-0.58899 0.01885-0.73369-0.12177 0.10547-1.4032 1.4322-1.5841 2.0788-2.4462 0.95635 0.41321 1.8898 0.32609 2.8125 0-0.49881-2.5185 1.4857-3.7561 1.8342-6.2359 0.17884-1.2712 0.09528-2.195 0.73369-3.3016 0.12228-0.001 0.24456-0.001 0.36685-0.001z" fill="#fff"/>
   <path id="path31" d="m30.975 36.196c-0.72605 0.03312-1.2524-0.13349-1.8342-0.24406-0.20992-1.1377-1.096-2.6189-0.61141-3.6685 1.3079 0.76834 2.9929 2.0554 2.4456 3.9125z" fill="#fff"/>
   <path id="path33" d="m27.795 41.943c-0.87228 0.0163-1.1112-0.60122-1.8342-0.7337 0.05656-0.67714 0.50645-0.96094 0.7337-1.4674-0.02038-0.50951-0.63332-0.42646-0.85598-0.73318 0.12891-0.6053 1.2804-0.1875 1.712-0.48964 0.10292-0.55129-0.28634-0.61039-0.36685-0.97826 0.02853-0.19769 0.55588-1.0379 1.1005-0.97826 1.5352 0.16865 4.9168 0.75764 5.3804 1.3456 0.14317 1.4883-0.69905 1.9912-1.3451 2.6897-1.0486 0.01987-1.8184 0.01834-2.4456 0.7337-0.76376-0.56301-1.527 0.23285-2.0788 0.61141zm0-2.5679c0.46111 0.34137 1.0002-0.08458 1.3451-0.24456-0.0036-0.73013 0.02446-1.4918-0.7337-1.4674 0.05554 0.82999-0.69854 0.85037-0.61141 1.712z" fill="#fff"/>
   <path id="path35" d="m49.439 38.642c-0.89725 0.11056-1.929-0.69701-2.2011 0.36736-1.1474-0.13349-1.5341-0.39232-2.8125-0.12228 0.26953-2.0121 4.6523-2.4207 5.0136-0.24507z" fill="#fff"/>
   <path id="path37" d="m28.407 37.664c0.75815-0.02446 0.73013 0.73726 0.7337 1.4674-0.34494 0.15999-0.884 0.58594-1.3451 0.24456-0.08713-0.86158 0.66695-0.88196 0.61141-1.712z"/>
   <path id="path39" d="m35.132 17.12c0.04891 0.62109-1.0063 1.1933-1.2228 1.9565 0.86005 0.0031 1.446-1.3242 2.3234-1.712-0.38264 0.96246-1.2835 1.4073-1.8342 2.2011 1.312 0.33271 1.6085-1.4073 2.5679-1.8342-0.04789 1.0521-0.98132 1.2198-1.4674 1.8342 0.57371 0.44582 0.94005-0.36073 1.4674-0.36685-0.13706 0.17629-0.13196 0.29806 0.12228 0.36685 0.42289-0.107 0.80248-0.25679 0.97826-0.61141 0.07846 0.49219 0.50492 0.63638 0.73369 0.97826-0.84732 2.5002 0.83509 3.8978 1.8342 5.3804 0.67459 1.0007-1.0124 3.2879-0.85598 5.0141 0.08305 0.91304-0.04229 1.874 0.36685 2.9348-0.0377 0.16559-0.30622 0.10139-0.48913 0.12228-0.11107 0.6002 0.51257 0.46569 0.48913 0.97826-0.27921 0.85496-0.28278 1.6243 0 2.2006-0.81318 0.29246 0.06012 0.91151-0.61141 1.3456 0.33933 0.38213 0.11056 0.60632 0.12228 1.2223-1.2891 1.1556-2.8772 2.3896-2.9348 4.4027-0.63944-0.3536-1.793-0.51766-2.6902-0.24456-0.04127-0.89725 0.39691-1.315 0.24456-2.3234 1.4496-2.0559 2.5185-4.4924 3.0571-7.4597 0.02904-0.37857 0.33984-0.47486 0.48913-0.73318-0.36685-2.9057-0.82235-6.3363-3.6685-6.3587-0.08509 1.42 1.0679 2.1109 0.48913 3.1793 0.08458 0.24151 0.32609 0.32609 0.61141 0.36685-0.08305 0.28431-0.40659 0.32762-0.48913 0.61141 0.02955 0.21501 0.21043 0.2787 0.48913 0.24456-0.35105 0.72605-0.22011 1.3966-0.24456 2.4456-0.75713-0.02344-1.127 0.33984-1.712 0.48913-0.03669-1.4307-0.37296-2.5618-1.8342-2.5679-0.73522-3.0678-3.4856-4.4939-3.7908-7.5815-0.18088-1.8337 0.7607-3.7744 0-5.8696 1.5408-0.40557 2.6917 0.29552 3.6685-0.61141-0.32558 0.61192-1.0939 0.78108-1.4674 1.3451 1.1551 0.19565 2.516-1.4623 3.6685-2.0788-0.26393 0.91814-1.1953 1.1688-1.712 1.8342 1.4185 0.15387 1.8424-1.7441 3.1793-2.0788-0.59766 0.99151-1.5306 1.6483-2.3234 2.4456 1.0537 0.23641 1.5973-1.0929 2.4456-1.4679z" fill="#fff"/>
   <path id="path41" d="m37.945 12.351c-1.3125-0.7663-1.4083-2.7493-2.4456-3.7908-0.43512 6.349 2.8685 10.201 7.7038 11.984 0.51206 1.0863 1.6411 1.5178 2.4456 2.4456 0.51562 0.59409 0.67561 1.447 1.1005 2.2011 1.3349 2.3697 3.6063 3.6343 3.913 7.2142 0.10343 1.2055-0.25577 2.3417-0.36685 3.5467-0.12381 1.3461 0.2517 2.4757 0.12228 3.7902-3.4285 1.7074-6.535 3.7367-10.149 5.2581-1.957-0.57676-5.3993-0.37958-7.0924-1.5897-0.2573-0.31335-0.32914-0.81216-0.48913-1.2228-2.0396 0.16967-3.7123 0.51104-6.2364 0.61141-1.1189-2.2026-4.1765 0.09273-6.6032-0.12228-0.50849-0.51053-1.3905-0.64759-2.3234-0.73318 0.34188-2.145 1.2763-3.6965 3.4239-4.0353 0.48556-1.2901 1.5861-1.8918 2.0788-2.9353 0.60173-1.2738 0.55384-2.9526 0.85598-4.4022 0.29348-1.4073 1.2167-2.0997 0.97826-4.0353-0.24151-1.9606-1.9096-3.2522-1.712-5.5027 0.09375-1.0659 0.54976-1.9295 0.61141-2.9348 0.04738-0.77547-0.15795-1.4154 0.24456-2.0788-1.0353-1.3288-0.85496-3.8738-2.2011-4.8913-0.74032 1.3792-0.73573 3.5034-1.8342 4.5244-0.95533-0.09018-1.3263-1.418-1.8342-2.3234-1.1219-2.0003-2.1134-4.2371-0.36685-6.3587 0.39232-0.4769 1.391-0.9324 2.0788-1.4674 2.0345-1.5825 4.1703-4.2432 6.3587-5.0136 0.62211-0.21909 1.311-0.034137 1.712-0.48913 1.9876 0.051461 3.9446 0.19973 5.3804 1.2228 0.22826 0.16253 0.31742 0.60224 0.61141 0.85598 1.5571 1.3436 4.2615 2.7086 4.8913 3.7908 1.0639 1.8281-0.55638 4.3833-0.85598 6.4815zm-9.783-6.6032c0.32303 2.9093-2.6719 3.404-3.0571 5.9918 1.3166-0.76223 1.5245-2.6331 3.4239-2.8125 1.0348 0.54467-0.12432 2.1109 0.48913 2.8125 0.5839 0.05401 0.3964-0.66338 1.1005-0.48913 0.32863 1.6121-3.3439 1.4414-2.8125 3.5462 0.08305 0.32914 0.45754 0.74439 1.1005 0.73369 1.1602-0.01936 2.706-3.1284 4.5244-1.2228-0.96144 0.58746-3.3225-0.22469-3.3016 1.3451 2.0426 0.0041 4.7038-0.85598 5.1359-2.5679 0.945-3.743-4.653-4.029-4.035-7.8263-0.509-0.0616-0.539 0.3573-1.1 0.2443-0.655-1.4645-0.909-3.3304-2.446-3.9127-0.221 1.8826 0.835 2.8665 0.978 4.1577zm7.7043-0.24456c0.32303 2.0406 1.1433 3.5844 1.7114 5.3804-0.3857-3.323-1.2677-6.1503-3.3016-7.8261h-0.24456c-0.51766 1.4944 1.1143 1.7925 1.8347 2.4456zm-3.669 0c0.302-0.1883 0.832-0.147 0.857-0.6112-0.42-0.3296-1.036-0.0407-0.856 0.6112zm-11.739 2.568c-0.03516 0.51562-0.31641 1.1189-0.36685 1.712-0.08458 0.98794-0.01223 1.9856-0.12228 2.8125-0.08967 0.67306-0.73115 1.5912 0.12228 1.9565 1.0863-2.9348 0.05808-6.8285 1.4674-9.1712 0.007-0.2102-0.094-0.3131-0.245-0.3666-1.213 0.431-0.767 1.7558-0.856 3.0568zm3.669 0.2446c-0.229-0.8723 0.118-1.5958 0.734-1.9565-1.21-0.1834-1.826 1.5744-0.734 1.9565zm1.224-0.489c0.34596 0.10139 0.31692-0.17221 0.61141-0.12228-0.07-0.419-0.087-0.891-0.611-0.857v0.97826zm7.3369 10.761c0.79229-0.79687 1.7252-1.4541 2.3234-2.4456-1.337 0.33475-1.7609 2.2327-3.1793 2.0788 0.51664-0.66542 1.448-0.9161 1.712-1.8342-1.152 0.61651-2.5134 2.2745-3.6685 2.0788 0.37296-0.56403 1.1418-0.73318 1.4674-1.3451-0.97673 0.90693-2.1277 0.20584-3.6685 0.61141 0.7607 2.0951-0.18088 4.0358 0 5.8696 0.3052 3.0876 3.0555 4.5132 3.7908 7.5815 1.4613 0.0061 1.7976 1.1372 1.8342 2.5679 0.58492-0.14929 0.95482-0.51257 1.712-0.48913 0.02497-1.0491-0.10598-1.7196 0.24456-2.4456-0.2787 0.03363-0.45958-0.03006-0.48913-0.24456 0.08305-0.28431 0.40608-0.32762 0.48913-0.61141-0.28533-0.04076-0.52683-0.12534-0.61141-0.36685 0.5788-1.069-0.57422-1.7593-0.48913-3.1793 2.8461 0.02293 3.3016 3.4529 3.6685 6.3587-0.14929 0.25883-0.46009 0.35462-0.48913 0.73318-0.53906 2.9669-1.6075 5.4034-3.0571 7.4597 0.15234 1.0083-0.28584 1.4261-0.24456 2.3234 0.89776-0.27259 2.0508-0.10904 2.6902 0.24456 0.05706-2.0126 1.6452-3.2471 2.9348-4.4027-0.01172-0.616 0.21705-0.84018-0.12228-1.2223 0.67153-0.4341-0.20177-1.0526 0.61141-1.3456-0.28278-0.57626-0.27921-1.3461 0-2.2006 0.02344-0.51257-0.6002-0.37806-0.48913-0.97826 0.18291-0.02089 0.45143 0.04331 0.48913-0.12228-0.40914-1.0608-0.2838-2.0217-0.36685-2.9348-0.15693-1.7262 1.5306-4.0134 0.85598-5.0141-0.99915-1.4822-2.6816-2.8798-1.8342-5.3804-0.22877-0.34188-0.65523-0.48607-0.73369-0.97826-0.17578 0.35411-0.55537 0.5039-0.97826 0.61141-0.25425-0.06827-0.25934-0.19056-0.12228-0.36685-0.52734 0.0061-0.89368 0.81267-1.4674 0.36685 0.48607-0.61447 1.4195-0.78159 1.4674-1.8342-0.95941 0.42697-1.2559 2.1664-2.5679 1.8342 0.55129-0.79382 1.4516-1.2386 1.8342-2.2011-0.87738 0.38774-1.4633 1.715-2.3234 1.712 0.21654-0.76325 1.2717-1.3354 1.2228-1.9565-0.84833 0.37551-1.392 1.7048-2.4456 1.4679zm-6.6032 0.36685c-0.21501-0.11056-0.20177-0.45041-0.48913-0.48913-1.4694 0.4927-1.847 2.7106-1.4674 4.6467 0.268 0.1391 0.49983 0.31539 0.97826 0.24406 0.35971-1.4333 0.90387-2.6826 0.97826-4.4017zm19.687 5.625c-0.28533-0.5304-0.34901-1.2819-1.1005-1.3456-0.16865 0.93138 0.268 1.8128 1.1005 1.3456zm-3.1793 0.97826c-1.2116 0.7123-1.7318 2.9618-1.4674 5.0136 0.40048 3.105 2.7794 6.3439 1.8347 8.5598-1.6946 1.4098-5.8583 0.98132-5.2581 4.2799 1.4674 0.08101 0.62058-2.1512 2.0788-2.0788-0.00051 0.12279 0.09884 0.14521 0.12228 0.24406 0.01223 0.70618-0.5625 0.82337-0.48913 1.5897 0.39283 0.19718 0.81063 0.10139 1.1-0.12177-0.14368-0.94463 0.29552-1.8704 0.97826-1.5897-0.0076 0.64453-0.40659 0.89776-0.36685 1.5897 0.25832 0.10853 0.36175 0.37194 0.73369 0.36685 0.027-0.09579 0.10241-0.14215 0.24406-0.12228-0.05961-0.38621 0.22062-0.43206 0.12228-0.85598 1.1097-0.60275 2.0233-1.4006 3.0571-2.0788-3.3556-0.94412-0.16865-4.2921 1.4674-5.1359 0.01987-0.34596-0.36736-0.28533-0.36685-0.61141 0.13044-0.23641 0.56301-0.17018 0.73318-0.36685-0.23437-0.21399-0.75306-0.14368-0.73318-0.61141 0.21756-0.31233 1.1408 0.08101 1.3451-0.24406-0.39895-0.29399-1.3191-0.06725-1.4674-0.61141 0.36175-0.91712 1.5968 0.37958 2.0788-0.36736-0.39844-0.4983-1.9377 0.14419-1.9565-0.73318-0.01019-0.45805 0.86566-0.03108 0.85598-0.48913-0.46671 0.09986-0.47334-0.26036-0.61141-0.48913 0.4606-0.36175 0.26342-0.45652 0-0.85598 0.13808-0.22928 0.47435-0.26036 0.61141-0.48964-0.38417 0.05808-0.49932-0.15234-0.61141-0.36685 0.69803-0.38162-0.69191-0.98132 0.24456-1.2223-0.80146-1.3196-2.4941-3.2512-4.2794-2.2016zm-16.63 3.424c-0.63842 1.1072-0.55486 2.0304-0.73369 3.3016-0.34902 2.4798-2.333 3.7174-1.8342 6.2359-0.92272 0.32609-1.8561 0.41321-2.8125 0-0.64657 0.86158-1.9733 1.043-2.0788 2.4462 0.1447 0.14062 0.43257 0.13808 0.73369 0.12177 0.536-0.6053 0.58899-1.6931 1.5897-1.8342 0.03872 0.28736 0.57982 0.07286 0.48913 0.48913-0.61192 0.28482-1.0302 0.76274-1.1005 1.5897 0.24508 0.36634 1.0042 0.21909 1.5897 0.24406 0.59511-0.99456 0.91916-2.2602 2.2011-2.5674 0.03465-1.1882 0.74541-1.7002 1.712-1.957-0.26138-0.81114 0.44684-1.3716 0-2.0788 1.7395-1.2035 0.24966-3.3169 0.61141-5.9918-0.12228 0.001-0.24456 0.001-0.36685 0.001zm2.5679 3.3016c-0.48454 1.0501 0.40149 2.5307 0.61141 3.6685 0.58186 0.11107 1.1082 0.27768 1.8342 0.24406 0.54721-1.8567-1.1377-3.1437-2.4456-3.9125zm1.3451 9.0489c0.62721-0.71535 1.3971-0.71382 2.4456-0.7337 0.64657-0.69854 1.4883-1.2014 1.3451-2.6897-0.46365-0.58746-3.8453-1.177-5.3804-1.3456-0.54467-0.05961-1.072 0.78057-1.1005 0.97826 0.0805 0.36787 0.46977 0.42697 0.36685 0.97826-0.43206 0.30214-1.583-0.11566-1.712 0.48964 0.22316 0.30724 0.83611 0.22368 0.85598 0.73318-0.22724 0.50645-0.67714 0.79025-0.7337 1.4674 0.723 0.13298 0.96196 0.75051 1.8342 0.7337 0.5518-0.37857 1.315-1.1744 2.0788-0.61141zm14.552-2.4456c1.2784-0.26953 1.6651-0.0107 2.8125 0.12228 0.27208-1.0644 1.3043-0.25679 2.2011-0.36736-0.36175-2.1751-4.7446-1.7665-5.0136 0.24508z"/>
  </g>
 </g>
</svg>
