<?xml version="1.0" encoding="UTF-8" standalone="no"?>
<!-- Created with Inkscape (http://www.inkscape.org/) -->
<svg id="svg2" xmlns:rdf="http://www.w3.org/1999/02/22-rdf-syntax-ns#" xmlns="http://www.w3.org/2000/svg" height="45" width="67.5" version="1.1" xmlns:cc="http://creativecommons.org/ns#" xmlns:dc="http://purl.org/dc/elements/1.1/">
 <metadata id="metadata7">
  <rdf:RDF>
   <cc:Work rdf:about="">
    <dc:format>image/svg+xml</dc:format>
    <dc:type rdf:resource="http://purl.org/dc/dcmitype/StillImage"/>
    <dc:title/>
   </cc:Work>
  </rdf:RDF>
 </metadata>
 <g id="g3474">
  <rect id="rect2990" opacity="0" height="45" width="67.5" y="0" x="3.5527e-15"/>
  <path id="path4153" d="m24.923 44.721c-0.19498-0.23493-0.19741-0.5206-0.01107-1.2975l0.23899-0.99621 1.0556-0.12498c1.3959-0.16526 1.7072-0.56698 1.1447-1.4771-0.40216-0.6507-0.40393-0.70768-0.07261-2.3428 0.2111-1.0418 0.30044-2.1632 0.23616-2.9641-0.05691-0.70852-0.02771-1.2414 0.06485-1.1842 0.33336 0.20603 0.43621 1.9417 0.18946 3.1971-0.41485 2.1105-0.46022 2.7472-0.20692 2.9038 0.34645 0.21412 0.50919-0.04265 0.23581-0.37205-0.17989-0.21675-0.17032-0.33738 0.04061-0.51246 0.15175-0.12594 0.33186-0.17303 0.40026-0.10464 0.12704 0.12704 0.75492-0.40146 0.75492-0.63544 0-0.07107-0.20401-0.10054-0.45336-0.06548-0.63166 0.0888-0.69211-0.46232-0.1692-1.5425 0.24337-0.50274 0.36914-1.0365 0.29176-1.2381-0.07822-0.20383-0.02424-0.42355 0.12708-0.51705 0.35562-0.21978 0.09692-0.82769-0.40848-0.95985-0.43551-0.11392-0.56302-0.4662-0.16864-0.4662 0.44643 0-0.01929-0.25814-0.57592-0.31925-1.9538-0.21447-6.3359 0.92656-8.358 2.1762-0.89652 0.55408-1.225 0.41635-0.67487-0.28301 0.37799-0.48053 0.39097-0.55536 0.09635-0.55536-0.18728 0-0.61604 0.29496-0.9528 0.65548-0.58849 0.62999-0.62336 0.64036-0.89662 0.26665-0.38834-0.53108-0.3569-0.97863 0.11049-1.5728 0.21715-0.27606 0.45872-0.75651 0.53681-1.0677 0.22808-0.90876 2.8618-2.8046 6.4533-4.6454 0.86837-0.44507 1.5789-0.82625 1.5789-0.84706 0-0.20874-1.2925-3.9147-1.6241-4.6566-0.43459-0.97246-2.0115-3.1878-3.0817-4.3293-0.81567-0.87003-1.123-1.9268-1.2884-4.4302-0.12648-1.914-0.10448-2.19 0.17449-2.19 0.42813 0 0.40402-0.32295-0.04855-0.65055-0.20227-0.14641-0.53921-0.90793-0.74875-1.6923-0.617-2.3095-2.0813-5.6129-3.3133-7.4745-0.49691-0.75089-0.52768-1.172-0.06471-0.88591 0.35272 0.218 1.7363 2.345 2.4565 3.7766 0.7815 1.5533 1.348 2.3294 1.5096 2.068 0.17855-0.2889-0.56782-2.2688-1.5961-4.2339-0.9101-1.7393-1.1487-2.4743-0.71659-2.2072 0.37635 0.2326 2.3513 3.4091 2.9388 4.7267 0.62115 1.3931 1.1276 2.0044 1.1203 1.3521-0.0061-0.5344-0.91425-3.5765-1.5589-5.2211-0.29671-0.75702-0.48113-1.4347-0.40984-1.506 0.26118-0.26118 0.71391 0.37946 1.3555 1.918 1.1977 2.8723 1.5056 3.5218 1.7758 3.746 0.38484 0.31939 0.34959-0.25734-0.13044-2.1342-0.47753-1.8671-0.59189-2.9584-0.31486-3.0044 0.28284-0.047 1.097 2.0347 1.5593 3.9868 0.99089 4.1845 1.5223 4.725 1.3019 1.3242-0.08683-1.3397-0.06956-2.2409 0.04299-2.2409 0.29902 0 0.66039 0.9692 0.6682 1.7922 0.0041 0.41491 0.13823 1.3503 0.29843 2.0786 0.1602 0.72831 0.29449 1.668 0.29843 2.0882 0.0075 0.79491 0.1626 0.93447 0.57758 0.51949 0.19014-0.19014 0.24447-0.002 0.24447 0.84646 0 1.044 0.01603 1.0764 0.37256 0.75377 0.2049-0.18544 0.43409-0.33716 0.50931-0.33716 0.07521 0 0.13675 0.55999 0.13675 1.2444 0 1.2432 0.00053 1.2443 0.53775 1.1095 0.51963-0.13042 0.53379-0.11057 0.42025 0.58908-0.08158 0.50272-0.04047 0.72405 0.13453 0.72405 0.48436 0 0.73784 0.44008 0.50455 0.87597-0.17044 0.31846-0.1464 0.44581 0.1114 0.59008 0.1808 0.10118 0.33143 0.38569 0.33471 0.63222 0.0054 0.41902 0.0421 0.40728 0.56024-0.17986 0.30485-0.34546 0.69178-0.83429 0.85985-1.0863 0.16807-0.25199 0.85564-0.9074 1.5279-1.4565 0.67228-0.54906 1.7724-1.463 2.4447-2.031 0.67228-0.56799 1.4865-1.2343 1.8095-1.4806 0.32292-0.24632 0.92991-0.74581 1.3489-1.11 0.41898-0.36415 0.86526-0.6621 0.99174-0.6621s0.23298-0.11459 0.23668-0.25465c0.0034-0.14006 0.93076-1.2172 2.0601-2.3937 3.2465-3.3819 4.6838-5.0131 5.1505-5.8451 0.45574-0.81247 1.1353-1.1572 1.1353-0.57593 0 0.64616-1.1981 3.1346-2.1176 4.3983-0.51285 0.70481-0.87907 1.3337-0.81382 1.3974 0.283 0.27664 3.9351-4.3152 3.9569-4.9749 0.01005-0.305 0.7365-1.1226 0.99744-1.1226 0.28196 0 0.12209 0.71406-0.51947 2.3202-0.67838 1.6983-1.3095 2.711-2.4908 3.9964-1.1631 1.2656-1.5995 1.9644-1.3667 2.1885 0.1973 0.19002 2.8805-2.6626 4.1196-4.3797 1.3377-1.8538 1.6649-1.6143 0.62607 0.45838-0.49518 0.98801-1.2758 2.0154-2.8633 3.7689-1.2306 1.3592-1.9327 2.4447-1.5811 2.4447 0.35017 0 2.575-1.9664 3.9031-3.4498 0.77265-0.86298 1.3622-1.3646 1.4733-1.2535 0.3158 0.31579-0.83997 2.1358-2.4272 3.8221-0.82529 0.87684-1.5021 1.6654-1.5039 1.7523-0.0041 0.19594 1.1459-0.38426 1.3199-0.66588 0.15729-0.2545 0.91765-0.27263 0.91765-0.02189 0 0.1008-0.50571 0.64547-1.1238 1.2104-0.98985 0.90467-1.0809 1.0514-0.76396 1.231 0.32035 0.18157 0.25131 0.31455-0.62933 1.2122-0.90275 0.92017-0.95613 1.0268-0.61117 1.2209 0.3522 0.19819 0.33281 0.25944-0.28436 0.8979-0.49372 0.51077-0.60353 0.74401-0.43132 0.91622 0.34374 0.34374 0.07182 0.82511-0.73498 1.3011-0.47025 0.27745-0.71788 0.57587-0.71788 0.86508 0 0.30509-0.31474 0.64756-1.0186 1.1084-0.56024 0.36676-1.0186 0.79451-1.0186 0.95055s-0.27641 0.48052-0.61424 0.72108-0.76446 0.7281-0.94806 1.0834c-0.1836 0.35532-0.47113 0.74664-0.63896 0.86959-0.1939 0.14206-0.22804 0.27121-0.09364 0.35427 0.11633 0.07189 0.32479-0.0058 0.46325-0.17263 0.13846-0.16684 0.37904-0.30334 0.53462-0.30334s1.0025-0.68756 1.8821-1.5279c0.87959-0.84036 1.6566-1.5279 1.7267-1.5279 0.07011 0-0.32969 0.43149-0.88846 0.95887s-1.0159 1.0774-1.0159 1.2223c0 0.4226 0.5454 0.30496 1.1397-0.24584 0.30225-0.28012 0.65076-0.50639 0.77445-0.50283 0.1237 0.0035 0.06451 0.12826-0.1316 0.27711-0.47245 0.35864-0.45146 0.51798 0.05093 0.3866 0.2848-0.07448 0.40745-0.0062 0.40745 0.22668 0 0.25371 0.12153 0.30272 0.50931 0.2054 0.68334-0.17151 0.64895 0.07252-0.05093 0.36137l-0.56024 0.23122 0.61117 0.14708 0.61117 0.14708-0.68117 0.02411c-0.48651 0.01722-0.71021 0.13516-0.78279 0.41271-0.05589 0.21374-0.2765 0.43434-0.49024 0.49023-0.21373 0.05589-0.38861 0.20448-0.38861 0.33019 0 0.29802 7.0341 0.078 7.6905-0.24055 0.51325-0.24908 0.60654-0.72069 0.1753-0.88618-0.15606-0.05989-0.2395-0.27521-0.18597-0.47992 0.05337-0.20421 0.02037-0.41621-0.07345-0.47111-0.09379-0.0549-0.99561 0.07065-2.004 0.27899s-1.9252 0.34778-2.0372 0.30988c-0.11205-0.0379 0.34633-0.1808 1.0186-0.31755 2.2471-0.45708 2.7503-0.63097 2.7503-0.9504 0-0.46768 0.36726-0.14529 0.79266 0.6958 0.48929 0.96741 0.36248 2.0412-0.25584 2.1665-0.23923 0.04848-1.934 0.14102-3.7662 0.20565-3.1153 0.10989-4.1047 0.28056-4.1047 0.70807 0 0.09714-0.28425 0.27572-0.63166 0.39682-0.727 0.25343-2.2832 1.7706-2.1686 2.1143 0.04237 0.12706-0.45497 0.58627-1.1052 1.0204-1.3495 0.90113-1.5279 1.1118-1.2106 1.429 0.4219 0.4219 0.24597 0.7564-0.39784 0.7564-0.77449 0-1.4127 0.32535-1.4127 0.7202 0 0.16413 0.18335 0.29842 0.40745 0.29842 0.60303 0 0.49429 0.47202-0.20372 0.88435-0.33614 0.19856-0.61117 0.52086-0.61117 0.71621s-0.10017 0.45535-0.22259 0.57778c-0.16098 0.16098-0.16098 0.33773 0 0.63852 0.32124 0.60023 0.27788 0.78818-0.21132 0.9161-0.30147 0.07884-0.39454 0.21606-0.30492 0.44959 0.07094 0.18487 0.06485 0.43989-0.01351 0.56671-0.07839 0.12683-0.11698 0.5843-0.08576 1.0166 0.06821 0.94475-0.40484 1.5682-1.1899 1.5682-1.007 0-1.4105 0.87839-0.50758 1.105 0.47789 0.11994 0.51517 0.20858 0.45838 1.0898-0.04652 0.72158-0.15016 0.97601-0.41834 1.0269-0.20378 0.03869-0.35652-0.05609-0.35652-0.22125 0-0.40936-0.6685-0.96326-1.1626-0.96326-0.76686 0-1.9027 0.60937-2.0992 1.1262-0.25285 0.66506-0.46261 0.63551-1.1255-0.15855-0.304-0.36415-0.67093-0.73098-0.81543-0.81518-0.37249-0.21704-2.1033 0.57179-2.5776 1.1748-0.46047 0.58539-0.63083 0.62117-0.97623 0.20499zm1.1873-0.8928c0.73001-0.51187 1.9306-0.88337 2.3432-0.72505 0.37347 0.14331 0.46645-0.21759 0.11244-0.43639-0.12752-0.07881-0.17365-0.39158-0.10696-0.72505 0.15471-0.77358-0.07189-0.7397-0.6407 0.09579-0.46055 0.67646-0.77275 0.88518-2.033 1.3591-0.36415 0.13695-0.6621 0.37539-0.6621 0.52987 0 0.38614 0.34531 0.35176 0.98717-0.0983zm4.6615-0.43572c0.4832-0.38008 0.48975-0.40744 0.09762-0.40744-0.36567 0-1.0606 0.47674-1.0606 0.72758 0 0.21507 0.48948 0.05236 0.96302-0.32014zm2.0399-0.81489c0.02886-0.16807-0.0328-0.4382-0.1369-0.60029-0.15653-0.24366-0.26116-0.20838-0.60414 0.20372-0.22815 0.27413-0.41787 0.57327-0.4216 0.66475-0.01229 0.30241 1.1091 0.04373 1.1626-0.26818zm-1.1729-0.52073c0.82255-0.82166-1.5771-1.5855-2.4628-0.78394-0.39587 0.35826-0.50438 0.9119-0.23307 1.1892 0.2418 0.24714 2.3618-0.07156 2.6959-0.40527zm0.55124-2.3314c0.25444 0 0.26841-0.05854 0.07079-0.29666-0.28322-0.34126-0.11964-0.72195 0.3102-0.72195 0.39318 0 0.37122-0.39141-0.04794-0.85459-0.25666-0.28361-0.28351-0.43537-0.10808-0.61081 0.17545-0.17544 0.28239-0.11098 0.43047 0.25947 0.19144 0.47895 0.19738 0.47504 0.20993-0.13802 0.0072-0.35227-0.16523-0.83633-0.39043-1.096-0.38194-0.44038-0.38543-0.49538-0.0658-1.0364 0.28372-0.48031 0.29419-0.62357 0.06567-0.89894-0.18861-0.22726-0.33689-0.26255-0.48422-0.11522-0.1168 0.1168-0.29298 0.21236-0.39152 0.21236-0.21722 0 0.02214-1.2226 0.30912-1.5789 0.15138-0.18791 0.09369-0.25465-0.22008-0.25465-0.45478 0-0.847 0.54356-0.847 1.1738 0 0.21214 0.23101 0.95423 0.51335 1.6491 0.49972 1.2298 0.50513 1.2951 0.20372 2.4583-0.3432 1.3244-0.3862 2.0362-0.15684 2.5964 0.1272 0.31069 0.16358 0.27937 0.21725-0.18706 0.03952-0.34352 0.18709-0.56024 0.38146-0.56024zm-14.122-4.699c0.66934-0.5265 0.68371-0.8001 0.04203-0.8001-0.54829 0-1.135 0.48143-1.135 0.9313 0 0.41575 0.46928 0.35942 1.093-0.1312zm2.8547-0.29353c0.40585-0.16957 0.73791-0.40417 0.73791-0.52133s0.08772-0.1588 0.19492-0.09254c0.10721 0.06626 0.90936-0.05947 1.7826-0.27941 0.87321-0.21993 2.0002-0.43215 2.5044-0.47159l0.91675-0.07172 0.01745-0.98028c0.01148-0.64311-0.07613-1.0162-0.25465-1.0847-0.14966-0.05743-0.27211-0.23212-0.27211-0.38821 0-0.18168-0.22775-0.28379-0.63297-0.28379-0.47894 0-0.60442-0.07436-0.5157-0.30558 0.17784-0.46343-0.07085-0.91675-0.50292-0.91675-0.21628 0-0.38565-0.1419-0.38565-0.32312 0-0.41602-2.1601 0.75312-4.9403 2.6739-0.83644 0.57788-1.0192 1.0173-0.33242 0.79931 0.5175-0.16425 0.45148 0.26491-0.09296 0.60426-0.26218 0.16342-0.3942 0.14772-0.52533-0.06247-0.24722-0.39628-0.62814-0.09518-0.62814 0.4965 0 0.43188 0.09316 0.49728 0.70833 0.49728 0.53075 0 0.792 0.12768 1.042 0.50931 0.3946 0.60224 0.26947 0.5809 1.1787 0.20099zm9.1924-0.30285c-0.06925-0.11205-0.30926-0.20372-0.53335-0.20372-0.2241 0-0.35079 0.09168-0.28154 0.20372 0.06925 0.11205 0.30926 0.20372 0.53335 0.20372 0.2241 0 0.35078-0.09168 0.28154-0.20372zm-3.3614-5.256c0-0.46935-0.38628-0.85564-0.85564-0.85564-0.45025 0-0.45464 0.08385-0.03769 0.7202 0.38428 0.58648 0.89332 0.66366 0.89332 0.13544zm1.4261 0.06751c0-0.18225-0.11944-0.25336-0.30558-0.18193-0.16807 0.0645-0.30558 0.19913-0.30558 0.29919s0.13751 0.18193 0.30558 0.18193 0.30558-0.13464 0.30558-0.29919zm-0.46335-1.0566c-0.06322-0.33058 0.04611-0.78607 0.28107-1.1714 0.47619-0.7809 0.5299-1.4359 0.06309-0.76946-0.21072 0.30084-0.45006 0.42065-0.68891 0.34484-0.48523-0.15401-0.71078 0.43496-0.26262 0.68576 0.28499 0.15949 0.2958 0.24076 0.06845 0.51469-0.21613 0.26043-0.2194 0.38624-0.01637 0.63088 0.39526 0.47626 0.66911 0.36021 0.55527-0.23532zm12.076-1.4834c0-0.20376 0.13751-0.4846 0.30558-0.62409 0.33744-0.28005 0.41385-0.81489 0.11641-0.81489-0.41322 0-0.82944 0.67783-0.82944 1.3508 0 0.42179 0.08278 0.65934 0.20372 0.58459 0.11205-0.06925 0.20372-0.29262 0.20372-0.49638zm-2.4447-0.12681c0-0.16146-0.09168-0.29356-0.20372-0.29356-0.11205 0-0.20372 0.18876-0.20372 0.41947s0.09168 0.36281 0.20372 0.29356c0.11205-0.06925 0.20372-0.25801 0.20372-0.41947zm-3.2502-0.51473c0.29501-0.55123 0.1713-0.65232-0.49039-0.40074-0.57432 0.21836-0.69902 0.5228-0.28291 0.69071 0.44584 0.1799 0.5409 0.14425 0.7733-0.28997zm3.1951-0.7168c-0.0677-0.0677-0.24341-0.07493-0.39047-0.01607-0.16252 0.06504-0.11425 0.11331 0.12308 0.12308 0.21476 0.0088 0.33508-0.03931 0.26739-0.107zm-2.8878-0.50584c0.07529-0.12181 0.0438-0.31453-0.0699-0.42825-0.13989-0.13989-0.07354-0.52738 0.2051-1.1979 0.49499-1.1911 0.37882-1.6687-0.38396-1.5784-0.58509 0.06924-0.92836 0.57388-0.39036 0.57388 0.39303 0 0.42696 0.32379 0.0491 0.46878-0.35503 0.13624-0.3151 1.5343 0.05025 1.7601 0.21457 0.13261 0.19155 0.21492-0.1089 0.38947-0.35811 0.20806-0.35419 0.2217 0.0654 0.22752 0.24549 0.0034 0.50795-0.09347 0.58323-0.21528zm9.8696-0.18597c0-0.22636-0.13582-0.40744-0.30558-0.40744-0.31015 0-0.41789 0.43096-0.16977 0.67908 0.25828 0.25828 0.47535 0.13424 0.47535-0.27163zm-14.988-0.92c0.13485-0.71881 0.03395-1.117-0.28302-1.117-0.28018 0-0.41401 0.57631-0.28435 1.2246 0.16296 0.81482 0.40286 0.76934 0.56737-0.10756zm13.764 0.53184c0-0.10156-0.18335-0.1367-0.40744-0.0781-0.2241 0.0586-0.40745 0.1417-0.40745 0.18465s0.18335 0.0781 0.40745 0.0781 0.40744-0.08309 0.40744-0.18465zm-4.787-0.834c-0.06925-0.11205-0.21758-0.20372-0.32963-0.20372s-0.14707 0.09167-0.07781 0.20372c0.06924 0.11205 0.21758 0.20372 0.32963 0.20372s0.14706-0.09168 0.07782-0.20372zm0.40745-1.5466c0-0.34127 0.1636-0.78434 0.36354-0.98459 0.26034-0.26074 0.30351-0.43646 0.15206-0.61895-0.23531-0.28352-0.05568-1.5355 0.22034-1.5355 0.09663 0 0.39617-0.34378 0.66564-0.76396 0.56909-0.88736 1.2229-1.6048 1.5668-1.7195 0.24242-0.08081 0.3781-0.65231 0.90745-3.8222 0.28534-1.7087 0.22839-2.7636-0.13702-2.5377-0.10465 0.06468-0.13563 0.28978-0.06884 0.50022 0.07786 0.24532-0.02879 0.51128-0.29729 0.74116-0.23191 0.19856-0.41874 0.60566-0.41874 0.9124 0 0.30463-0.09168 0.61053-0.20372 0.67978-0.31475 0.19453-0.24068 0.71303 0.10186 0.71303 0.44976 0 0.37182 0.67551-0.11286 0.9782-0.2793 0.17443-0.37804 0.38863-0.29693 0.64418 0.0789 0.24858-0.0402 0.5335-0.33957 0.81242-0.25359 0.23626-0.46376 0.62856-0.46703 0.87177-0.0041 0.2993-0.16814 0.48078-0.50782 0.56155-0.31359 0.07456-0.54601 0.30762-0.61952 0.62121-0.07377 0.31472-0.28546 0.52615-0.56767 0.56698-0.42523 0.06151-0.5347 0.24239-0.47056 0.77754 0.01528 0.12731-0.11139 0.28486-0.28144 0.35012-0.43391 0.1665-0.38469 0.48746 0.09826 0.64074 0.53588 0.17008 0.51794 0.43289-0.03952 0.57866-0.4313 0.11278-0.43422 0.13093-0.0835 0.51847 0.24142 0.26677 0.31647 0.54957 0.22354 0.84236-0.11284 0.35553-0.06716 0.4264 0.23629 0.36644 0.26716-0.05279 0.37619-0.25416 0.37619-0.69481zm-9.4114-0.10513c-0.02207-0.15601-0.12837-0.6335-0.23624-1.0611-0.15502-0.61455-0.13594-0.80051 0.09106-0.88762 0.41587-0.15958 0.35248-0.47405-0.09557-0.47405-0.23391 0-0.48201-0.2397-0.63807-0.61646-0.14043-0.33905-0.51826-0.80367-0.8396-1.0325-0.4193-0.29857-0.58426-0.58735-0.58426-1.0228 0-0.46081-0.14672-0.69025-0.60988-0.95381-0.33544-0.19087-0.61046-0.50974-0.61117-0.7086-0.0014-0.33543-0.95744-0.88929-1.1694-0.67732-0.05113 0.05115-0.03117 0.37458 0.04441 0.71873 0.09597 0.43696 0.257 0.62574 0.53373 0.62574 0.231 0 0.47393 0.20419 0.58242 0.48952 0.10236 0.26924 0.28345 0.54967 0.4024 0.62319 0.11896 0.07352 0.21629 0.3202 0.21629 0.54817 0 0.24144 0.16802 0.45843 0.40243 0.51973 0.2625 0.06865 0.4477 0.3466 0.53265 0.79939 0.07162 0.38179 0.34861 0.86594 0.61552 1.0759 0.39252 0.30875 0.46109 0.50281 0.35864 1.015-0.07473 0.37363-0.04244 0.6333 0.07877 0.6333 0.11298 0 0.2559 0.19301 0.31759 0.42891 0.12166 0.46524 0.67463 0.42579 0.60826-0.04339zm5.8462-1.0087c0-0.2556-0.13982-0.39542-0.39543-0.39542-0.56831 0-0.72696 0.38851-0.28932 0.70852 0.45015 0.32916 0.68475 0.22189 0.68475-0.3131zm0.20372-0.80287c0-0.11205-0.09709-0.20372-0.21575-0.20372s-0.15909 0.09168-0.08984 0.20372c0.06925 0.11205 0.16633 0.20372 0.21574 0.20372 0.04944 0 0.08984-0.09168 0.08984-0.20372zm0.18573-1.1714c0.04726-0.02801 0.04271-0.09413-0.01012-0.14693-0.13429-0.13429-1.8054 0.71284-1.8054 0.9152 0 0.40018 0.55859 0.3091 1.1195-0.18252 0.33559-0.29415 0.64881-0.55774 0.69605-0.58575zm0.92071-1.4261c0.25047-1.4451 0.31282-3.3105 0.11065-3.3105-0.10916 0-0.19847-0.18335-0.19847-0.40744 0-0.55805-0.54-0.51657-0.66308 0.05093-0.05467 0.25211-0.16725 0.61985-0.25015 0.8172-0.11595 0.27601-0.07498 0.32975 0.17752 0.23286 0.46114-0.17696 0.41165 0.24693-0.11522 0.98685l-0.44348 0.62282 0.54534-0.13687c0.66109-0.16592 0.67314-0.08174 0.09937 0.69433-0.43929 0.59417-0.44006 0.6077-0.05093 0.90202 0.57279 0.43326 0.64186 0.39364 0.78845-0.45219zm-12.196-2.925c0.07699-0.12458 0.05025-0.28501-0.05935-0.35652-0.10962-0.07151-0.30795-0.33628-0.44071-0.58839-0.14186-0.26937-0.43164-0.45838-0.70279-0.45838-0.25376 0-0.57205-0.11066-0.70731-0.24592-0.19208-0.19208-0.31779-0.17406-0.57416 0.08231-0.36586 0.36586-0.21725 0.81608 0.21467 0.65034 0.15286-0.05866 0.42753 0.10578 0.61039 0.36541 0.26401 0.37486 0.36854 0.41425 0.50767 0.19131 0.20535-0.32908 0.6282-0.13201 0.6282 0.29278 0 0.34757 0.32433 0.38913 0.52338 0.06706zm17.2-2.9561c0-0.2707-0.05528-0.28463-0.30558-0.07692-0.16807 0.13949-0.30558 0.28822-0.30558 0.33053s0.13751 0.07692 0.30558 0.07692 0.30558-0.14874 0.30558-0.33053zm4.7366 13.84c0.19608-0.05124 0.51695-0.05124 0.71303 0s0.03565 0.09317-0.35652 0.09317-0.5526-0.04193-0.35652-0.09317zm2.3937-0.27741c0.50421-0.08972 1.1918-0.15907 1.5279-0.15412l0.61117 0.009-0.61117 0.15552c-0.33614 0.08553-1.0237 0.15489-1.5279 0.15412l-0.91675-0.0014 0.91675-0.16312zm-2.1391-0.39705c0.06924-0.11205 0.21758-0.20372 0.32963-0.20372s0.14706 0.09168 0.07781 0.20372c-0.06925 0.11205-0.21758 0.20372-0.32963 0.20372s-0.14707-0.09168-0.07782-0.20372zm-0.50931-1.5344c0-0.04623 0.45838-0.28125 1.0186-0.52226 0.56024-0.24101 1.0186-0.50789 1.0186-0.59307 0-0.29928-0.76363-0.35013-1.3781-0.09177-0.56057 0.2357-0.63088 0.2232-0.72285-0.12849-0.08673-0.33167 0.0088-0.38895 0.64301-0.38534 1.1692 0.0067 3.1846 0.48947 3.827 0.9168 0.46204 0.30735 0.51266 0.40391 0.24094 0.45958-0.18919 0.03876-0.54006-0.12559-0.77971-0.36524-0.27718-0.27718-0.55972-0.38513-0.77649-0.29669-0.90246 0.3682-3.091 1.0808-3.091 1.0065z"/>
 </g>
</svg>
