<?xml version="1.0" encoding="UTF-8" standalone="no"?>
<!-- Created with Inkscape (http://www.inkscape.org/) -->
<svg id="svg2" xmlns:rdf="http://www.w3.org/1999/02/22-rdf-syntax-ns#" xmlns="http://www.w3.org/2000/svg" height="45" width="67.5" version="1.1" xmlns:cc="http://creativecommons.org/ns#" xmlns:dc="http://purl.org/dc/elements/1.1/">
 <metadata id="metadata7">
  <rdf:RDF>
   <cc:Work rdf:about="">
    <dc:format>image/svg+xml</dc:format>
    <dc:type rdf:resource="http://purl.org/dc/dcmitype/StillImage"/>
    <dc:title/>
   </cc:Work>
  </rdf:RDF>
 </metadata>
 <g id="g3586">
  <rect id="rect2990" opacity="0" height="45" width="67.5" y="0" x="3.5527e-15"/>
  <path id="path4227" d="m48.427 44.911c-0.59602-0.09003-1.165-0.11682-1.2643-0.05955s-0.18061-0.05323-0.18061-0.24554c0-0.53495-0.52805-0.6227-1.5767-0.262-1.2789 0.43989-1.9053 0.48571-3.5407 0.25895-2.1328-0.29572-1.7487-0.73274 0.50802-0.57806 1.9771 0.13551 2.8833-0.08784 2.2012-0.54254-0.71773-0.47848 0.25609-0.75277 2.1674-0.61046 2.0642 0.1537 2.8468-0.11917 2.0611-0.71862-0.2571-0.19616-0.59691-0.35665-0.75513-0.35665s-0.59807-0.16188-0.97746-0.35974c-0.37938-0.19786-0.90651-0.36189-1.1714-0.36451-0.73581-0.0073-1.5653-0.27133-1.5653-0.49825 0-0.39981 1.819-0.77853 2.3568-0.4907 0.27572 0.14756 0.98724 0.2683 1.5811 0.2683 1.3053 0 1.8417 0.18185 1.8417 0.62439 0 0.69786 1.8262 1.5772 3.7768 1.8186 2.9209 0.36149 2.9744 0.97258 0.0927 1.0579-1.8593 0.05506-2.8834 0.2644-3.3857 0.69204-0.55413 0.47183-0.98732 0.545-2.1695 0.36644zm-11.198-0.709c-0.2649-0.11526-1.0777-0.15132-1.8061-0.08014-1.0786 0.10539-1.4362 0.042-1.9265-0.34151-1.1014-0.86155-2.1948-1.296-3.0715-1.2205-0.53071 0.04572-0.90186-0.04065-0.96301-0.22412-0.0584-0.17523 0.11249-0.29851 0.41383-0.29851 0.28234 0 0.96193-0.21674 1.5102-0.48164 0.54828-0.2649 1.2463-0.48164 1.5511-0.48164 0.30483 0 1.1243-0.21668 1.8211-0.48152 1.5024-0.57103 2.5659-0.61354 3.2076-0.12819 0.42873 0.32427 0.35273 0.3542-0.91724 0.36123-1.0669 0.0059-1.3847 0.09056-1.3847 0.36889 0 0.22243 0.22586 0.36123 0.58784 0.36123 0.32331 0 0.65493 0.10857 0.73694 0.24127 0.21093 0.3413-1.0024 0.75166-1.7027 0.57588-0.3562-0.0894-0.58533-0.04242-0.58533 0.12001 0 0.14681 0.33596 0.26692 0.74658 0.26692 0.7852 0 3.5882 1.1679 3.5882 1.495 0 0.24965-1.1911 0.2149-1.8061-0.05271zm-3.4919-2.1648c0-0.13245-0.10837-0.24082-0.24082-0.24082s-0.24082 0.10837-0.24082 0.24082 0.10837 0.24082 0.24082 0.24082 0.24082-0.10837 0.24082-0.24082zm6.9837-0.59072c0-0.63368 0.52828-1.4439 1.4817-2.2726 1.0278-0.8933 1.3924-0.87518 0.88814 0.04413-0.1776 0.32381-0.56894 1.0364-0.86964 1.5836-0.54382 0.9895-1.5002 1.4006-1.5002 0.64492zm-2.3619-2.5447c-0.77427-0.93246-0.8364-1.4401-0.17624-1.4401 0.35637 0 1.3341 1.5102 1.3341 2.0607 0 0.56504-0.31237 0.39762-1.1578-0.62057zm2.52-1.5573c-0.81094-0.81094-1.611-4.4622-1.5341-7.0008 0.0473-1.5599-0.006-1.7675-0.64431-2.5268-0.99909-1.1878-1.6498-2.8014-1.3532-3.3556 0.35558-0.66441 1.6061-1.3441 3.5554-1.9324 2.5748-0.7771 3.351-1.9816 1.7138-2.6598-0.82763-0.34282-5.8872-0.34661-6.7855-0.0051-0.86475 0.32878-1.8531 1.6366-1.8531 2.4521 0 0.81889-0.55904 1.1551-1.227 0.73801-0.2424-0.15138-1.2846-0.73067-2.3161-1.2873l-1.8753-1.0121-3.4919 0.02628c-1.9205 0.01446-3.7969 0.14317-4.1698 0.28604-0.86163 0.33014-6.3066 0.3407-6.9182 0.01341-1.2937-0.69237-1.0169-1.9746 0.59107-2.7376 1.3344-0.63321 1.4342-1.0681 0.53046-2.3119-0.51215-0.70491-1.2617-1.3175-2.2076-1.8041-2.4843-1.2781-2.1285-1.9838 2.8403-5.6334 6.4741-4.7553 7.2606-5.2057 9.5392-5.4635 0.82004-0.09278 1.5491-0.26278 1.6202-0.37779 0.071-0.11501 0.33679-0.2091 0.59047-0.2091 0.26466 0 0.61411-0.29561 0.81991-0.69358 0.59647-1.1535 2.0069-1.7109 4.597-1.8168 1.9593-0.08012 2.3313-0.031298 2.7895 0.3661 0.29079 0.2522 0.61446 0.45854 0.71928 0.45854 0.29866 0 1.8218 1.5195 1.978 1.9733 0.13099 0.38056 0.22562 0.37796 1.4084-0.03856 1.5777-0.5556 2.934-0.48164 3.659 0.19952 0.30136 0.28311 0.62661 0.51475 0.72277 0.51475 0.24078 0 1.5013 0.92502 2.5416 1.8652 0.47562 0.42983 0.9233 0.78203 0.99483 0.78266 0.48702 0.0043 2.6394 2.459 2.6394 3.0101 0 0.08295-0.75668 0.07626-1.6815-0.01487-2.0856-0.20551-2.2542 0.04144-1.3739 2.0114 0.33824 0.75688 0.90428 2.2412 1.2579 3.2984 1.1693 3.4965 0.77647 8.3123-0.99072 12.144-0.34145 0.74035-0.89426 2.213-1.2285 3.2726-0.75657 2.3987-1.9163 4.6415-3.3309 6.4419-1.1315 1.44-1.5242 1.6296-2.1271 1.0267zm3.0066-4.1287c0.82087-1.6336 0.81555-2.457-0.006-0.89481-0.26788 0.50952-0.97489 1.5679-1.5711 2.3519-0.59624 0.78402-1.0162 1.5353-0.9332 1.6696 0.22674 0.36686 1.6379-1.3909 2.5101-3.1267zm-1.9312 0.44789c0.83162-1.1827 2.1489-4.149 1.8425-4.149-0.0479 0-0.5158 0.56319-1.0397 1.2515-0.52391 0.68835-1.1964 1.4962-1.4944 1.7952-0.58784 0.5898-0.75889 2.0142-0.24082 2.0053 0.16556-0.0028 0.58514-0.40921 0.93239-0.90307zm-0.33035-3.0216c0.29801-0.43775 0.54184-0.88938 0.54184-1.0036 0-0.27062-1.181 0.83502-1.4755 1.3814-0.41971 0.7786 0.36166 0.46244 0.93365-0.37777zm-0.77275-3.3107c0.25918-0.41937-0.036-0.50818-0.3663-0.11021-0.18995 0.22887-0.20822 0.36705-0.0486 0.36705 0.14086 0 0.32753-0.11558 0.41483-0.25684zm-0.85277-2.438c0-0.31653-0.54732-0.11832-0.66732 0.24166-0.0587 0.17598 0.0514 0.2298 0.28597 0.1398 0.20974-0.08049 0.38135-0.25214 0.38135-0.38146zm5.7796-1.1725c0-0.27272-0.10837-0.42887-0.24082-0.34701s-0.24082 0.30499-0.24082 0.49585 0.10837 0.34702 0.24082 0.34702 0.24082-0.22313 0.24082-0.49585zm0.85346-4.4056c-0.33695-0.44177-0.61264-0.92306-0.61264-1.0695 0-0.14648-0.18964-0.37407-0.42143-0.50575-0.35562-0.20204-0.37442-0.31621-0.12041-0.73115 0.40994-0.66965 0.37865-1.0575-0.13292-1.6474-0.23867-0.27519-0.6426-0.8878-0.89763-1.3613-0.25503-0.47355-0.5325-0.861-0.61662-0.861-0.0841 0-0.54268-0.29801-1.019-0.66225-0.47634-0.36424-1.2468-0.93317-1.7122-1.2643-0.46537-0.33112-0.84912-0.73751-0.85277-0.90307-0.004-0.16556-0.20266-0.30102-0.44224-0.30102s-0.64596-0.1591-0.90307-0.35357c-0.25711-0.19446-0.70489-0.35702-0.99508-0.36123-0.29019-0.0042-0.5946-0.11603-0.67647-0.24848-0.28791-0.46584-0.83856-0.25383-0.77982 0.30024 0.0427 0.40251-0.0845 0.56137-0.49646 0.62037-0.47904 0.06859-0.54408-0.0126-0.48164-0.60127 0.0571-0.53822-0.0346-0.69581-0.43826-0.75341-0.34861-0.04974-0.55151 0.08419-0.63997 0.42242-0.16173 0.61845-0.89654 0.4095-0.89654-0.25494 0-0.29533-0.16962-0.45587-0.48164-0.45587-0.3532 0-0.48164 0.16055-0.48164 0.60205 0 0.73272-0.55766 0.79832-1.0318 0.12138-0.33075-0.47221-0.34146-0.47016-0.60886 0.11674-0.24861 0.54564-0.36668 0.58445-1.3627 0.44793-0.99976-0.13703-1.0905-0.10666-1.0905 0.3649 0 0.35382 0.15033 0.51437 0.48164 0.51437 0.6252 0 0.6252 0.64443 0 0.84286-0.32341 0.10265-0.48208 0.3651-0.48298 0.79889-0.00075 0.35531-0.11701 1.0626-0.25837 1.5717-0.14137 0.50911-0.20291 0.97977-0.13677 1.0459 0.0661 0.06615 0.85971-0.26324 1.7635-0.73197 1.9309-1.0014 3.2413-1.3047 3.6144-0.83657 0.36639 0.45976 0.89797 2.7224 0.73772 3.14-0.12219 0.31843-2.4436 0.3893-6.5319 0.19941-0.11589-0.0054-0.1457-0.33489-0.0662-0.73224 0.10524-0.52616 0.0533-0.72245-0.19102-0.72245-0.18453 0-0.49365-0.06068-0.68693-0.13485-0.26264-0.10078-0.39116 0.13018-0.50874 0.91425-0.0923 0.61537-0.50272 1.5349-0.99278 2.2242-0.9423 1.3254-1.0257 1.7199-0.40537 1.9168 0.58789 0.18659 5.4948-0.4961 7.3965-1.0291 0.41759-0.11703 1.0068-0.10538 1.3962 0.02761 0.4416 0.15081 1.2955 0.13761 2.4782-0.03831 2.2753-0.3384 3.9577-0.34005 5.7666-0.0056 2.5656 0.47427 3.8326 1.4214 4.808 3.5941l0.48164 1.0728 0.0708-1.7446c0.0632-1.5573 0.005-1.8308-0.54184-2.5478zm-2.479-3.4403c-0.6057-0.68128-0.69177-1.0539-0.24082-1.0426 0.4283 0.01076 1.2407 1.1963 0.99039 1.4453-0.11592 0.11536-0.4472-0.06264-0.74957-0.40273zm-7.0078-0.5565c0.10348-0.31045 0.43379-0.36621 0.46358-0.07827 0.01 0.09603-0.11198 0.21794-0.27092 0.27092s-0.24563-0.03371-0.19265-0.19265zm-1.481-0.49368c0-0.13245 0.10837-0.24082 0.24082-0.24082s0.24082 0.10837 0.24082 0.24082-0.10837 0.24082-0.24082 0.24082-0.24082-0.10837-0.24082-0.24082zm6.7429-0.96327c0-0.13245 0.16255-0.24082 0.36123-0.24082s0.36123 0.10837 0.36123 0.24082-0.16255 0.24082-0.36123 0.24082-0.36123-0.10837-0.36123-0.24082zm-3.5661-1.2222c0.0474-0.14238 0.18924-0.25888 0.31507-0.25888s0.26761 0.1165 0.31507 0.25888c0.0474 0.14238-0.0943 0.25888-0.31507 0.25888-0.22075 0-0.36253-0.1165-0.31507-0.25888zm-1.5988-0.44301c-0.0775-0.12546-0.0383-0.29155 0.0871-0.36908 0.12546-0.07754 0.29154-0.03833 0.36908 0.08713 0.0775 0.12546 0.0384 0.29155-0.0871 0.36908-0.12546 0.07753-0.29154 0.03833-0.36908-0.08713zm2.7928-0.24935c0.053-0.15894 0.1749-0.28085 0.27092-0.27092 0.28795 0.02979 0.23218 0.36009-0.0783 0.46358-0.15894 0.05298-0.24563-0.03372-0.19265-0.19266zm-9.9019-0.71988c-0.1662-0.31057-0.16905-0.51702-0.008-0.61626 0.36035-0.22271 0.7231 0.08624 0.7231 0.61586 0 0.60118-0.39299 0.6014-0.71464 0.000409zm5.7718-0.01462c0-0.31039 0.12195-0.48112 0.30102-0.42143 0.16556 0.05519 0.30102 0.24483 0.30102 0.42143s-0.13546 0.36624-0.30102 0.42143c-0.17907 0.05969-0.30102-0.11104-0.30102-0.42143zm-4.0939-0.24082c0-0.2649 0.10837-0.48164 0.24082-0.48164s0.24082 0.21674 0.24082 0.48164-0.10837 0.48164-0.24082 0.48164-0.24082-0.21674-0.24082-0.48164zm1.3495 0.09868c-0.0808-0.21063-0.0828-0.48681-0.004-0.61374 0.18431-0.29821 0.82222 0.2177 0.82222 0.66496 0 0.45826-0.6377 0.41832-0.81788-0.05122zm1.4302 0.15878c-0.1645-0.26616 0.21539-0.55356 0.43777-0.33118 0.22896 0.22897 0.18629 0.55536-0.0727 0.55536-0.12463 0-0.28896-0.10088-0.36516-0.22418zm3.9632-0.25746c0-0.13245 0.10197-0.24082 0.22661-0.24082 0.12463 0 0.29358 0.10837 0.37544 0.24082 0.0819 0.13245-0.0201 0.24082-0.2266 0.24082-0.20649 0-0.37544-0.10837-0.37544-0.24082zm-1.5202-0.39635c-0.33084-0.33085-0.15924-0.84184 0.25587-0.7619 0.23179 0.04464 0.42143 0.2332 0.42143 0.41902 0 0.38022-0.42488 0.5953-0.6773 0.34288zm7.7814 11.308c0-0.17336-0.0968-0.3152-0.21505-0.3152-0.25416 0-0.51054 0.59697-0.49975 1.1636 0.006 0.34655 0.0563 0.33752 0.36123-0.06573 0.19446-0.2571 0.35357-0.6093 0.35357-0.78266zm-11.705-0.216c0.33436-0.87131 0.17201-1.0952-0.73828-1.0183-1.1032 0.09322-1.2395 0.43668-0.37938 0.95579 0.85282 0.51471 0.94222 0.51971 1.1177 0.06252zm-18.156-1.305c-0.19868-0.12839-0.4696-0.23344-0.60205-0.23344s-0.0783 0.10505 0.12041 0.23344c0.19868 0.12839 0.4696 0.23344 0.60205 0.23344s0.0783-0.10505-0.12041-0.23344zm6.0205-0.45496c0-0.11778-0.19579-0.45593-0.43509-0.75146-0.38826-0.47949-0.56966-0.51881-1.6855-0.36534-0.6877 0.09458-1.3115 0.27095-1.3863 0.39193-0.21802 0.35277 0.55247 0.52593 1.2763 0.28683 0.83651-0.27633 1.5081-0.1389 1.5081 0.30861 0 0.18896 0.16255 0.34357 0.36123 0.34357s0.36123-0.09636 0.36123-0.21414zm-2.8918-1.9469c0.28608-0.18087 0.29834-0.28798 0.0602-0.52611-0.458-0.459-0.358-0.685 0.304-0.685 0.74182 0 0.75077-0.18972 0.0575-1.2185-0.84668-1.2564-2.4848-2.3937-3.4476-2.3937-0.45328 0-0.82414 0.06379-0.82414 0.14176s0.48356 0.69454 1.0746 1.3702c0.59102 0.67562 1.1449 1.5601 1.2309 1.9654 0.14835 0.69943 0.73385 1.5841 1.0431 1.5762 0.0788-0.002 0.30493-0.10588 0.5025-0.23079zm5.5408-0.93571c0-0.3787 0.3251-1.2978 0.72246-2.0424 1.0363-1.942 0.98454-4.523-0.0825-4.1136-0.62772 0.24088-1.179-0.3573-0.9996-1.0846 0.12325-0.4996 0.0935-0.56149-0.15309-0.31889-0.16832 0.16556-0.72164 0.30102-1.2296 0.30102-0.50797 0-1.1899 0.1745-1.5154 0.38778-1.0186 0.6674-2.2699 0.0092-1.8857-0.9919 0.18895-0.4924 1.1357-0.6997 1.7338-0.37963 1.091 0.58386 2.2389 0.03772 1.3393-0.6372-0.31149-0.23371-0.86956-0.31152-1.7428-0.24299-1.0619 0.08333-1.3839 0.2223-1.8577 0.80176-0.86543 1.0585-0.75216 1.6287 0.53149 2.6757 2.7753 2.2636 4.1761 4.0839 4.1761 5.4267 0 0.66095 0.17411 0.90681 0.64218 0.90681 0.19271 0 0.32109-0.2753 0.32109-0.68856zm0.0602-4.7824c-0.41051-0.14725-0.38248-0.7903 0.0344-0.7903 0.36332 0 0.71491 0.64624 0.43668 0.80266-0.0936 0.05259-0.30556 0.04703-0.47112-0.01235zm-1.9868-0.44914c0-0.42527 0.51843-0.35121 0.66727 0.09532 0.0524 0.15728-0.0763 0.28597-0.28597 0.28597-0.20971 0-0.3813-0.17158-0.3813-0.3813zm10.038 2.2627c-0.0769-0.19211-0.13394-0.13504-0.1455 0.14549-0.0104 0.25386 0.0465 0.3961 0.12648 0.31607 0.08-0.08002 0.0886-0.28773 0.019-0.46157zm-4.7513-1.0691c0.68234-1.5426 0.67844-3.5858-0.007-3.953-0.7237-0.38731-1.1853-0.11151-1.1853 0.70822 0 0.54789 0.12126 0.73111 0.52298 0.79022 0.7037 0.10354 0.85687 0.67813 0.22485 0.84341-0.27886 0.07292-0.51949 0.25541-0.53474 0.40552-0.0715 0.70382 0.19479 2.3199 0.38228 2.3199 0.0575 0 0.32636-0.50143 0.59745-1.1143zm17.513-2.7691c-0.31884-0.71183-0.83818-1.525-1.1541-1.807-0.944-0.84268-3.8445-2.2567-4.629-2.2567-0.40205 0-1.5281-0.22368-2.5024-0.49706-0.97428-0.27338-2.0107-0.455-2.3031-0.4036-0.60676 0.10665-0.55172 0.13371 1.6356 0.80403 2.4221 0.74226 6.3785 2.8757 7.947 4.2853 0.7947 0.7142 1.4766 1.2695 1.5153 1.2339 0.0387-0.03557-0.19047-0.64707-0.50932-1.3589zm4.1716-2.1371c0-0.13245-0.26452-0.24082-0.58783-0.24082s-0.65481 0.10837-0.73667 0.24082c-0.0868 0.1405 0.15805 0.24082 0.58784 0.24082 0.40516 0 0.73666-0.10837 0.73666-0.24082zm-2.204-0.506c0.77132-0.26888 1.0321-0.6989 0.42384-0.6989-0.32067 0-1.6247 0.93877-1.3269 0.95526 0.0795 0.0044 0.48595-0.11096 0.90307-0.25636zm-1.0478-0.79892c0.39735-0.3186 0.64361-0.65879 0.54724-0.75599-0.28266-0.2851-1.9818 0.47526-2.0685 0.92566-0.1164 0.60436 0.66455 0.51726 1.5213-0.16967zm-1.657-0.908c0.0774-0.12527 0.085-0.28353 0.0169-0.35167-0.16864-0.16863-1.1284 0.3617-1.1284 0.62351 0 0.26226 0.92061 0.03712 1.1116-0.27184zm-1.413-0.8289c0.58214-0.156 0.74682-0.57067 0.22664-0.57067-0.36753 0-1.3676 0.705-1.0093 0.71151 0.13245 0.0024 0.48465-0.06098 0.78266-0.14084zm-1.264-1.2931c0.0819-0.13245-0.0679-0.24082-0.3328-0.24082s-0.54861 0.10837-0.63047 0.24082c-0.0819 0.13245 0.0679 0.24082 0.3328 0.24082s0.54862-0.10837 0.63047-0.24082zm-4.178-0.8442c0-0.12583-0.11649-0.26761-0.25888-0.31507-0.14238-0.04746-0.25888 0.09432-0.25888 0.31507s0.1165 0.36253 0.25888 0.31507c0.14239-0.04746 0.25888-0.18924 0.25888-0.31507zm-6.418-0.8462c0-0.5162-0.69974-0.44164-0.80123 0.085372-0.062 0.32183 0.0361 0.41991 0.35793 0.35793 0.24381-0.04695 0.4433-0.24644 0.4433-0.4433zm1.7663-0.51077c-0.044-0.3133-0.189-0.5482-0.321-0.5221-0.30883 0.060895-0.44493 0.71154-0.25329 1.2109 0.21762 0.56709 0.67486 0.019057 0.5747-0.68881zm1.7656 0.17782c0.0996-0.566-0.46716-0.80858-0.66776-0.28583-0.19368 0.50474 0.0968 1.2517 0.37463 0.96336 0.11704-0.12149 0.24895-0.42638 0.29313-0.67754zm1.4048 0.21583c0-0.19868-0.0426-0.36123-0.0946-0.36123-0.0521 0-0.15702 0.16255-0.23326 0.36123-0.0763 0.19868-0.0336 0.36123 0.0947 0.36123 0.12829 0 0.23326-0.16255 0.23326-0.36123zm13.023 31.035c0.0332-0.80139 0.84447-2.8209 1.2006-2.9887 0.1903-0.08968 0.68783-0.341 1.1056-0.55849 1.2614-0.65668 2.2506-0.39477 2.2506 0.59593 0 0.51525-0.46609 0.69926-1.0326 0.40766-0.69708-0.35883-1.2262-0.02896-1.862 1.1608-0.3285 0.61472-0.8411 1.2788-1.1391 1.4756-0.4969 0.32829-0.54029 0.32059-0.52318-0.09283zm-13.407-0.356c-0.71315-0.78802-1.6608-1.1794-2.8556-1.1794-0.91249 0-1.0956-0.07582-1.0956-0.45356 0-0.72757 1.0816-0.7775 2.3407-0.10806 1.1067 0.58845 2.4757 1.7308 2.4757 2.066 0 0.3364-0.40401 0.18468-0.86517-0.3249zm12.088-0.89874c-0.17131-0.27719 1.0046-3.6952 1.4127-4.1065 0.18228-0.18368 0.50236-0.26835 0.71131-0.18817 0.48945 0.18782 0.4946 1.3361 0.007 1.5233-0.20518 0.07874-0.6944 0.77973-1.0872 1.5578-0.73146 1.449-0.82853 1.5619-1.0437 1.2137zm3.4672-4.3275c0-0.28414 1.4592-2.5457 1.7761-2.7527 0.46894-0.30626 1.3638-0.19955 1.5095 0.17999 0.19448 0.5068-0.3445 1.0806-1.015 1.0806-0.35735 0-0.79318 0.30531-1.2032 0.84286-0.60852 0.79782-1.0674 1.0769-1.0674 0.64919z"/>
 </g>
</svg>
