<?xml version="1.0" encoding="UTF-8" standalone="no"?>
<!-- Created with Inkscape (http://www.inkscape.org/) -->
<svg id="svg2" xmlns:rdf="http://www.w3.org/1999/02/22-rdf-syntax-ns#" xmlns="http://www.w3.org/2000/svg" height="45" width="67.5" version="1.1" xmlns:cc="http://creativecommons.org/ns#" xmlns:dc="http://purl.org/dc/elements/1.1/">
 <metadata id="metadata7">
  <rdf:RDF>
   <cc:Work rdf:about="">
    <dc:format>image/svg+xml</dc:format>
    <dc:type rdf:resource="http://purl.org/dc/dcmitype/StillImage"/>
    <dc:title/>
   </cc:Work>
  </rdf:RDF>
 </metadata>
 <g id="g3711">
  <rect id="rect2990" opacity="0" height="45" width="67.5" y="0" x="3.5527e-15"/>
  <path id="path4301" d="m47.346 44.113c-0.74537-0.5101-1.0647-1.6989-0.80679-3.0034 0.23367-1.1818 0.34592-1.3314 1.3734-1.8307 1.3799-0.67038 1.7732-0.68052 2.1083-0.05437 0.65417 1.2223 0.23188 3.3338-0.89875 4.494-0.39473 0.40502-1.4261 0.63405-1.7762 0.39443zm-29.451-1.847c-0.75206-0.75206-0.94505-1.4747-0.7741-2.8988 0.13392-1.1155 0.22644-1.2724 0.7842-1.3299 0.3478-0.03581 1.0877 0.19468 1.6441 0.5122 0.87724 0.50054 1.023 0.71101 1.096 1.5828 0.12013 1.4343-0.57488 2.6496-1.5152 2.6496-0.39545 0-0.95121-0.2322-1.235-0.51599zm29.157-3.4677c-0.44182-0.14963-1.0698-1.4238-1.0698-2.1707 0-0.40861 0.30513-0.84765 0.90951-1.3087l0.90953-0.69372 0.66932 0.49973c0.98967 0.73887 1.2633 1.943 0.63327 2.7867-0.50414 0.67525-1.4584 1.0875-2.0519 0.88649zm10.804-2.0235c-0.19231-1.2173-0.35291-2.3255-0.35692-2.4627-0.01148-0.39514 0.92103-0.46877 1.1601-0.09159 0.42251 0.66671 0.18776 4.7676-0.2729 4.7676-0.09932 0-0.33794-0.99594-0.53024-2.2133zm-39.532 0.48598c-0.61322-0.6776-0.51248-1.5961 0.27698-2.5254 0.54334-0.63955 0.9171-0.83126 1.7074-0.87577l1.0118-0.057-0.02451 1.0118c-0.03512 1.4492-0.96767 2.9089-1.8583 2.9089-0.38206 0-0.88304-0.20816-1.1133-0.46258zm-9.8635-0.914c-0.34986-0.91174 0.6029-4.1882 1.2179-4.1882 0.52229 0 0.48537 0.61212-0.15337 2.5436-0.6132 1.855-0.8461 2.214-1.0646 1.645zm37.522-3.05c0-1.0903-0.03126-1.1383-0.74179-1.1383-0.51488 0-0.78999-0.15183-0.89934-0.49634-0.18034-0.56821 0.24512-1.5127 0.70148-1.5572 1.2055-0.11758 1.8144 0.45105 1.4655 1.3687-0.24774 0.65162-0.23143 0.6662 0.68521 0.61294 0.85895-0.04991 0.946 0.0067 1.0212 0.66341 0.1057 0.92325-0.57813 1.6851-1.5126 1.6851-0.68428 0-0.71964-0.05593-0.71964-1.1383zm-26.712-0.736c-0.20734-0.54031 0.60595-1.9199 1.1318-1.9199 0.54835 0 1.2975 0.76394 1.2975 1.3231 0 0.21899-0.35828 0.52289-0.79659 0.67569-1.0606 0.36973-1.4681 0.35004-1.6327-0.0789zm35.692-1.5284c-1.6962-1.5504-1.7519-1.6375-1.3253-2.0737 0.40933-0.41848 0.49787-0.4235 1.0937-0.06198 0.9695 0.58827 3.3935 3.036 3.3935 3.4267 0 0.20492-0.27749 0.3382-0.69562 0.33412-0.49655-0.0049-1.2023-0.46991-2.4662-1.6251zm-12.915 0.49353c-0.48142-0.37218-0.4791-0.38966 0.11927-0.89594 0.33565-0.28399 0.78965-0.48181 1.0089-0.43958 0.57848 0.1114 0.66188 0.99372 0.13063 1.3822-0.57405 0.41977-0.65954 0.41659-1.2588-0.04668zm-32.117-0.139c-0.26237-0.42452 0.51545-1.3831 2.086-2.5709 2.4156-1.8268 2.8361-2.0474 3.2498-1.7041 0.47727 0.3961 0.45732 0.6724-0.08018 1.1108-4.3274 3.5294-4.8393 3.8376-5.2556 3.1642zm12.284-0.225c-0.44371-0.82906-0.30559-1.5253 0.36302-1.8299 0.88156-0.40167 1.3987 0.09317 1.3987 1.3383 0 0.91859-0.04757 0.98079-0.74994 0.98079-0.48258 0-0.84331-0.17444-1.0118-0.48927zm2.7619-0.15708c-0.44184-0.53238-0.0468-1.3773 0.64396-1.3773 0.59365 0 1.0726 0.7572 0.77912 1.2319-0.24966 0.40396-1.1335 0.49421-1.4231 0.1453zm7.6-0.46139c-2.1399-0.25244-2.403-0.33887-2.403-0.78938 0-0.48689 0.13777-0.50242 3.6678-0.41332 3.6838 0.09298 4.553 0.265 4.553 0.90106 0 0.72323-1.5589 0.80406-5.8178 0.30165zm6.9819-0.05438c-0.20757-0.54091 1.2323-1.8733 2.0245-1.8733 0.96392 0 0.82496 1.1385-0.21646 1.7734-0.99498 0.60665-1.6007 0.64011-1.808 0.09984zm-12.685-1.2294c-0.58397-0.58397-0.80494-1.3873-0.47292-1.7193 0.08134-0.08138 0.56514-0.005 1.0751 0.16984 0.92784 0.31805 1.745 1.4125 1.4324 1.9185-0.2858 0.46244-1.4063 0.25924-2.0344-0.36896zm21.889-0.773c-0.27939-0.33664-0.26982-0.46722 0.05837-0.79534 0.32209-0.32209 0.68154-0.35388 2.0018-0.17702 1.3688 0.18334 1.6093 0.29116 1.6093 0.72146 0 0.44727-0.19325 0.51446-1.6676 0.57978-1.2822 0.05681-1.7449-0.0192-2.0018-0.32888zm-3.7919-0.04052c-1.4044-0.2212-1.7706-0.36208-1.7706-0.68104 0-0.57632 1.2211-0.94431 2.5491-0.76815 1.4256 0.18912 1.985 0.65153 1.4981 1.2382-0.30296 0.36504-0.92951 0.4231-2.2765 0.21092zm-11.762-0.32781c-2.2372-0.18652-4.9368-0.97471-6.2214-1.8165-0.33869-0.22192-1.4586-0.82791-2.4887-1.3467-2.3782-1.1977-3.8109-2.1442-3.8109-2.518 0-0.49416 0.98909-2.2636 1.391-2.4885 0.2088-0.11686 0.37963-0.33192 0.37963-0.47792s0.55478-0.80869 1.2328-1.4726c0.67806-0.66394 1.2757-1.3071 1.328-1.4294 0.12412-0.28985 1.653-1.3605 1.9429-1.3605 0.1232 0 0.43-0.22765 0.68182-0.5059 0.2518-0.27824 0.57499-0.5059 0.71818-0.5059 0.52485 0 2.4436-1.0659 2.4436-1.3575 0-0.16532-0.15329-0.5251-0.34063-0.79952-0.18736-0.27442-0.54027-0.84042-0.78427-1.2578-0.35275-0.60341-0.2427-0.53864 0.53725 0.31619 0.9944 1.0899 1.5995 1.3633 1.5995 0.72267 0-0.54879 0.56547-0.63589 1.6561-0.25508 0.72297 0.25243 1.203 0.2798 1.7332 0.09885 1.1991-0.40921 1.9226-0.31863 1.9226 0.24072 0 0.72083 0.37548 0.83124 0.89071 0.26191 0.63528-0.70197 0.9137-0.62167 0.61039 0.17606-0.34841 0.91639-0.17545 1.2421 0.95263 1.7936 1.2896 0.63055 2.1347 1.1324 2.5503 1.5144 0.18921 0.1739 0.46924 0.31619 0.62227 0.31619 0.59019 0 4.4776 4.6391 5.4975 6.5605 0.29748 0.56043 0.26291 0.66753-0.38129 1.1812-0.38964 0.31069-1.0026 0.69838-1.3621 0.86154-0.87145 0.39548-1.7165 0.83116-4.5668 2.3545-2.2549 1.2051-2.5146 1.2833-4.4266 1.3316-1.1171 0.02829-3.0556-0.03398-4.3077-0.13837zm-16.17-0.93793c-0.2106-0.54883 0.14449-0.74842 1.6982-0.95453 0.96738-0.12833 1.3638-0.0775 1.6533 0.21196 0.31304 0.31304 0.32288 0.45051 0.05529 0.77288-0.4769 0.57463-3.184 0.55054-3.4069-0.03032zm5.5464 0.2004c-0.53143-0.1125-0.78307-0.33072-0.83967-0.72815-0.08221-0.5773 0.24015-0.69519 1.5985-0.58457 1.513 0.12322 2.6749 1.2818 1.2854 1.2818-0.33643 0-0.76328 0.0431-0.94856 0.09578s-0.67836 0.02349-1.0957-0.06487zm24.666-1.7156c0.0019-0.11683 0.67137-0.53312 1.4878-0.92509 1.1696-0.5615 1.6793-0.67614 2.4025-0.54046 1.0699 0.20072 1.3654 0.53615 0.87906 0.99806-0.38953 0.36995-4.7746 0.7998-4.7694 0.46752zm6.1513-0.73793c-0.2458-0.64058 0.54493-1.1973 1.7361-1.2223 0.92517-0.01942 1.1003 0.05769 1.1653 0.51293 0.06349 0.44483-0.11653 0.58437-1.0606 0.82208-1.4833 0.3735-1.6584 0.36278-1.8409-0.11273zm-36.57-0.4c-0.71966-0.26284-0.95703-1.0699-0.37943-1.29 0.9592-0.36559 4.7428 0.70151 4.7428 1.3376 0 0.32147-3.4562 0.28381-4.3633-0.04755zm41.104-0.13705c-0.1739-0.06436-0.31619-0.32028-0.31619-0.56873 0-0.52322 1.0492-0.76368 3.3516-0.76808 1.0681-0.002 1.4544 0.08977 1.4544 0.34566 0 0.19164-0.14229 0.46076-0.31619 0.59804-0.3435 0.27115-3.6593 0.58346-4.1736 0.39311zm-45.594-0.554c-0.39889-0.11096-0.63237-0.35847-0.63237-0.67039 0-0.42777 0.17545-0.49323 1.3004-0.48519 1.3808 0.0099 2.1741 0.42614 1.946 1.021-0.14699 0.38307-1.4748 0.45144-2.6138 0.1346zm51.138-0.55934c0.06552-0.45273 0.49933-0.75919 1.9777-1.3971 1.0416-0.44944 1.9432-0.76778 2.0035-0.70741 0.36523 0.36523-1.9448 2.0283-3.4753 2.5019-0.51147 0.15829-0.57868 0.10549-0.5059-0.39739zm-56.64-0.503c-0.4522-0.134-0.8221-0.397-0.8221-0.585 0-0.66011 0.60063-0.85104 2.0236-0.64325 0.76517 0.11173 1.5983 0.21146 1.8515 0.22162 0.32877 0.01319 0.43715 0.18106 0.37943 0.5876-0.07053 0.49604-0.24325 0.57505-1.3456 0.61523-0.6956 0.02536-1.6347-0.06327-2.0868-0.19694zm42.807-0.994c-0.61916-0.68415-0.21499-1.0639 1.0215-0.95984 1.1008 0.09267 1.7717 0.81559 1.134 1.2221-0.63432 0.40438-1.6658 0.27889-2.1554-0.26225zm-47.042-1.044c-0.9738-0.7-1.9914-1.431-2.2612-1.624-0.26989-0.192-0.40961-0.431-0.31052-0.53 0.22595-0.22595 4.0994 1.6441 4.6378 2.2391 0.38128 0.42131 0.31519 1.2338-0.097838 1.203-0.10871-0.0081-0.9944-0.58783-1.9683-1.2883zm50.69 0.63946c-0.45275-0.54553-0.08877-1.0293 0.9164-1.2179 0.70726-0.13268 1.0478-0.06886 1.4174 0.26562 0.61259 0.55438 0.33201 0.85841-1.0204 1.1057-0.7446 0.13616-1.1083 0.09366-1.3134-0.15349zm-36.223-0.141c-0.88594-0.32301-0.8732-1.3003 0.01862-1.4269 0.78036-0.11076 2.3354 0.4281 2.3354 0.80928 0 0.84598-1.0046 1.1095-2.354 0.61756zm-4.0453-1.3848c-0.63309-0.26619-0.93415-0.54316-0.88241-0.81179 0.10745-0.55793 0.80756-0.64792 2.1394-0.27502 0.91866 0.25721 1.1071 0.40985 1.0448 0.84646-0.09786 0.68539-1.0154 0.7812-2.3017 0.24035zm44.004 0.25016c-0.32422-0.32422-0.16235-0.53118 0.65345-0.83551 0.45215-0.16867 1.5405-0.59665 2.4185-0.95107 1.6184-0.65324 2.3153-0.56315 2 0.25851-0.30333 0.79042-4.5348 2.0653-5.0719 1.5281zm-9.6398-1.1523c-0.21656-0.3092-0.39376-0.64562-0.39376-0.74761s-0.28456-0.60476-0.63237-1.1173c-0.34781-0.51252-0.63238-1.0185-0.63238-1.1246 0-0.10596 0.41092-0.43511 0.91314-0.73143 0.70514-0.41604 0.99295-0.47254 1.2635-0.24801 0.26898 0.22323 0.50448 0.18975 1.0141-0.14418 0.43273-0.28354 0.91979-0.38373 1.3993-0.28785 0.54422 0.10885 0.84694 0.01685 1.1643-0.35384 0.82688-0.96574 2.5363-0.32891 3.3386 1.2437 0.27369 0.53646 0.67319 1.0427 0.8878 1.1251 0.5924 0.22732 0.47516 1.1544-0.17894 1.415-1.0435 0.41566-6.1226 1.5398-6.9418 1.5365-0.54539-0.0023-0.93562-0.18593-1.2015-0.56553zm-29.357-0.54c-0.97384-0.29774-2.2829-0.82513-2.9089-1.1719-0.62605-0.34685-1.3653-0.69332-1.6428-0.76994-0.68203-0.1883-0.75198-0.78009-0.16651-1.4085 0.26548-0.28497 0.55796-0.7552 0.64993-1.045 0.24636-0.77624 0.66273-1.0312 1.9748-1.2091 0.97578-0.13232 1.3078-0.06383 1.9337 0.39896 0.41563 0.30729 0.92395 0.49414 1.1296 0.41522 0.20566-0.07892 0.57299 0.07649 0.81631 0.34536 0.28885 0.31917 0.77477 0.48884 1.4 0.48884 0.52671 0 1.0323 0.12085 1.1236 0.26855 0.09128 0.1477 0.43948 0.37254 0.77377 0.49964 0.33429 0.12709 0.6078 0.39238 0.6078 0.58953 0 0.50439-2.9734 3.2012-3.4924 3.1676-0.23552-0.01528-1.225-0.2714-2.1988-0.56914zm-9.5483-0.937c-1.1788-0.60845-1.4544-0.86981-1.4544-1.3791 0-0.34558 0.063778-0.62832 0.14155-0.62832 0.37348 0 4.4115 2.0656 4.4115 2.2566 0 0.26244-0.63775 0.53045-1.2222 0.5136-0.23208-0.0067-1.0765-0.35-1.8764-0.7629zm54.873 0.07946c-0.31395-0.54269 1.2341-1.9565 3.4278-3.1305 0.92481-0.49494 0.43555 0.50394-0.93383 1.9066-1.2451 1.2754-2.1946 1.7413-2.4939 1.2239zm-7.095-1.8523c-0.3889-0.30591-0.66648-0.77683-0.66648-1.1307 0-0.38052-0.28271-0.81545-0.75884-1.1675-0.41736-0.30858-0.75884-0.68804-0.75884-0.84327 0-0.45104 1.5843-1.8503 2.2765-2.0107 0.81118-0.18791 1.0332-0.01841 1.8753 1.4318 0.49113 0.84576 0.64014 1.361 0.51118 1.7674-0.23009 0.72494-1.381 2.4773-1.6272 2.4773-0.10187 0-0.48514-0.23591-0.8517-0.52425zm-52.445-2.701c-0.7121-1.217-1.2356-2.27-1.1634-2.34 0.072172-0.06956 0.85859 0.66504 1.7476 1.6325 1.646 1.7912 2.0959 2.9207 1.1634 2.9207-0.30197 0-0.88412-0.73731-1.7476-2.2133zm7.7965 0.75419c-0.78672-1.47-0.53154-3.1683 0.66443-4.4219 0.84457-0.8853 1.1913-0.87685 1.5704 0.03826 0.16718 0.40362 0.57939 0.99256 0.91601 1.3088s0.61203 0.64787 0.61203 0.73698-0.39553 0.35062-0.87894 0.58114c-0.56704 0.2704-1.0113 0.73585-1.2518 1.3116-0.41324 0.98899-1.2229 1.2099-1.6321 0.44513zm39.429-2.8677c-1.9762-1.6117-2.6374-2.258-3.5951-3.5146-0.58319-0.76517-1.208-1.5417-1.3885-1.7255-0.18053-0.18384-0.32823-0.43011-0.32823-0.54728 0-0.48722-2.8946-3.0353-3.9333-3.4623-0.61805-0.25416-1.1242-0.54747-1.1247-0.65181-0.0019-0.32263 1.214-0.20869 1.3492 0.12648 0.09079 0.22508 0.13334 0.22986 0.14755 0.01659 0.02393-0.35864 2.5629 0.43784 3.5835 1.1242 0.36006 0.24212 1.3737 0.92398 2.2525 1.5152 0.87883 0.59126 1.7269 1.0751 1.8846 1.0751 0.70119 0 2.4103 1.1438 3.8681 2.5886 0.87154 0.86379 1.5846 1.6461 1.5846 1.7384 0 0.09235-0.48259 0.63631-1.0725 1.2088-1.2294 1.1933-2.2003 1.3462-3.2277 0.50835zm-35.161-0.654c-0.59258-0.21179-1.0118-0.87087-1.0118-1.5908 0-1.3908 3.2263-3.5456 5.3087-3.5456 0.29378 0 0.89844-0.18952 1.3437-0.42116 1.8886-0.98262 4.8764-1.8554 6.3513-1.8554 0.82428 0 1.4228 0.07591 1.33 0.16868-0.09282 0.09277-0.92465 0.43303-1.8486 0.75613-1.9463 0.68064-2.7743 1.2689-5.3914 3.8308-2.4633 2.4114-4.401 3.258-6.0819 2.6573zm7.5884-2.8125c0-0.35227 1.3535-1.4695 2.1681-1.7895 0.42728-0.16789 1.7932-0.57138 3.0354-0.89665s2.5146-0.67464 2.8277-0.77638c0.42483-0.13808 0.56913-0.08567 0.56913 0.20671 0 0.587-1.3194 1.4119-2.6987 1.6872-1.702 0.33975-3.581 0.88751-4.6919 1.3677-1.073 0.46392-1.2097 0.4866-1.2097 0.20095zm20.862-1.136c-0.274-0.182-1.01-0.547-1.636-0.8129-1.703-0.7226-2.973-1.5632-3.443-2.2809-0.603-0.9198-0.323-0.9946 1.076-0.288 0.67574 0.3412 1.6809 0.83174 2.2337 1.0901 1.2379 0.57858 2.6627 1.7914 2.6627 2.2666 0 0.44038-0.25084 0.44719-0.89227 0.02421z"/>
 </g>
</svg>
