<?xml version="1.0" encoding="UTF-8" standalone="no"?>
<!-- Created with Inkscape (http://www.inkscape.org/) -->
<svg id="svg2" xmlns:rdf="http://www.w3.org/1999/02/22-rdf-syntax-ns#" xmlns="http://www.w3.org/2000/svg" height="54" width="99" version="1.1" xmlns:cc="http://creativecommons.org/ns#" xmlns:dc="http://purl.org/dc/elements/1.1/">
 <metadata id="metadata7">
  <rdf:RDF>
   <cc:Work rdf:about="">
    <dc:format>image/svg+xml</dc:format>
    <dc:type rdf:resource="http://purl.org/dc/dcmitype/StillImage"/>
    <dc:title/>
   </cc:Work>
  </rdf:RDF>
 </metadata>
 <g id="g7598">
  <rect id="rect2990" opacity="0" height="54" width="99" y="0" x="0"/>
  <path id="path4338" d="m60.221 48.401c-0.70594-0.62198-1.3638-1.0812-1.462-1.0206-0.0982 0.06066-0.50762-0.16375-0.90995-0.49868-0.40232-0.33493-1.3339-0.80713-2.0702-1.0493-1.3682-0.45008-2.9768-1.5568-3.6409-2.505-0.48325-0.68992-0.99934-2.766-1.2112-4.8721-0.19897-1.9781-0.3477-2.5806-0.6371-2.5806-0.11699 0-0.28977 0.30711-0.38399 0.68246-0.12861 0.51247-0.24486 0.60889-0.46667 0.38708-0.60995-0.60996-0.89284-0.24404-1.218 1.5755-0.40312 2.2558-0.70519 2.9735-1.3358 3.1736-0.26232 0.08326-0.47695 0.23698-0.47695 0.34162 0 0.33346-1.6378 1.9808-2.8072 2.8235-0.62142 0.44782-1.8322 1.0113-2.6907 1.2522-1.0194 0.28605-2.1236 0.86928-3.1832 1.6814-2.2759 1.7444-3.3117 1.586-3.1415-0.4804 0.0757-0.91972 0.13287-0.98189 0.85341-0.92857 0.42474 0.03144 0.92285 0.26312 1.1069 0.51486 0.29132 0.3984 0.36776 0.40771 0.58995 0.07188 0.1404-0.2122 0.19398-0.7342 0.11908-1.16-0.0749-0.42579-0.21006-2.0068-0.30034-3.5134-0.15305-2.5539-0.121-2.8335 0.47385-4.1328 0.3509-0.76648 1.0634-1.7948 1.5832-2.2851 0.51987-0.49036 0.94522-1.016 0.94522-1.1681s-0.60966-0.57772-1.3548-0.94583c-3.3813-1.6704-6.6147-4.557-7.8487-7.0067-1.5461-3.0694-1.9134-4.5873-2.073-8.5675-0.11393-2.8403-0.0538-4.0223 0.27916-5.4862 0.59118-2.5992 2.6806-7.8279 3.2749-8.1951 0.12791-0.07906 0.78559 0.36203 1.4615 0.9802 0.6759 0.61817 1.7515 1.5179 2.3902 1.9993 2.3182 1.7475 4.9013 4.1847 6.0381 5.6969 2.3889 3.178 6.4684 11.834 5.8626 12.44-0.15362 0.15361-0.38999-0.03008-0.63702-0.49507-0.51659-0.97232-2.0234-2.3483-4.0342-3.6839-2.9813-1.9803-3.4244-2.0938-4.0789-1.0458-0.2843 0.45525-0.24392 0.54531 0.34492 0.76918 0.36681 0.13946 0.86259 0.25809 1.1017 0.26363 0.66654 0.01542 4.7952 2.1383 4.9067 2.5229 0.0575 0.19834-0.65653-0.04069-1.7174-0.57494-2.3852-1.2011-4.2515-1.8994-5.6295-2.106-0.61576-0.09234-1.0513-0.27833-0.96789-0.4133 0.0834-0.13498-0.0249-0.44131-0.24059-0.68075-0.21574-0.23944-0.47408-0.76315-0.57409-1.1638-0.24843-0.99528-1.1071-1.2664-3.6855-1.1636-1.7917 0.07142-2.2126 0.17161-2.527 0.60157-0.58546 0.80068-0.33487 1.717 0.65053 2.3789 0.48227 0.32393 0.74653 0.58896 0.58726 0.58896-0.15928 0-0.4608 0.33106-0.67004 0.73569-0.54917 1.062 0.0258 1.8464 1.3495 1.8409 1.159-0.0048 1.4142-0.16162 1.8834-1.1573 0.43987-0.93343 1.2926-1.123 1.949-0.43324 0.35662 0.37473 0.99145 0.54337 2.5399 0.67471 1.1354 0.09631 2.6971 0.35258 3.4703 0.56948 2.3271 0.65282 5.9488 2.6241 5.9488 3.238 0 0.14958-0.26128 0.08241-0.58063-0.14926-1.3997-1.0154-4.9795-2.5322-6.7972-2.88-2.6432-0.50573-3.5244-0.47246-4.333 0.16356-0.54648 0.42986-0.88898 0.50348-1.7028 0.36598-0.87357-0.14759-1.112-0.07886-1.6732 0.4824-0.76458 0.76459-0.80753 1.1188-0.23477 1.9366 0.32985 0.47092 0.57854 0.5675 1.1612 0.45095 0.53736-0.10747 0.74152-0.0477 0.74152 0.2171 0 0.20097-0.11613 0.43717-0.25806 0.52489-0.41142 0.25427-0.29947 1.0438 0.21386 1.5083 0.68258 0.61772 1.972 0.5248 3.103-0.22362 1.2376-0.81899 2.1222-1.0722 4.4813-1.2827 1.8863-0.1683 2.8808-0.65173 2.377-1.1555-0.13968-0.13968-1.296-0.33648-2.5695-0.43731-1.9412-0.1537-2.1695-0.2153-1.4123-0.38099 1.5878-0.34746 5.3945 0.43993 6.5603 1.3569 0.89229 0.70187 0.68888 0.9028-0.36319 0.35875-0.80457-0.41606-0.81691-0.4135-0.73363 0.15293 0.0783 0.5326 1.7304 1.7408 2.4194 1.7693 0.16075 0.0066 0.40535-1.4439 0.6035-3.5789 0.29077-3.1329 0.28367-3.6998-0.0556-4.4515-0.21388-0.47375-0.78563-1.8554-1.2706-3.0703-1.0033-2.5137-1.9579-4.0425-2.7891-4.4668-0.73897-0.37723-0.77645-0.7868-0.081-0.88601 0.93296-0.13311 2.993 3.1673 4.2079 6.7416 0.24983 0.73499 0.61152 1.3364 0.80373 1.3364 0.19394 0 0.59881-0.69647 0.90966-1.5648 0.69935-1.9536 1.9896-4.3595 2.9454-5.4924 0.56512-0.66978 0.85361-0.82432 1.2839-0.68776 0.71908 0.22823 0.5417 0.74143-0.31333 0.90652-0.65492 0.12644-1.7407 1.2334-1.7407 1.7746 0 0.15066-0.22835 0.71297-0.50744 1.2496-0.47472 0.91276-1.5991 3.7769-2.0545 5.2336-0.11094 0.35483-0.11061 0.87739 0.00072 1.1613 0.11134 0.28386 0.21059 0.94473 0.22057 1.4686 0.01 0.52386 0.13032 1.0218 0.26745 1.1066 0.28093 0.17362 1.8151-1.8176 1.8151-2.3558 0-0.51599-0.46552-0.42236-0.83405 0.16775-0.33134 0.53056-0.71428 0.68807-0.71428 0.2938 0-0.48826 2.6139-4.0352 4.5033-6.1108 1.5619-1.7158 6.106-5.8479 8.0124-7.2859 1.7138-1.2928 2.8205-2.3792 3.496-3.4318 0.44866-0.69916 0.91754-1.2712 1.042-1.2712 0.12442 0 0.29454 0.31934 0.37804 0.70965s0.26312 0.98349 0.39918 1.3182c0.13606 0.33469 0.47996 1.7863 0.76422 3.2257 1.1987 6.07 0.93857 9.6307-0.98905 13.537-1.007 2.0408-1.5129 2.7134-3.3467 4.4493-2.5166 2.3822-3.8525 3.3402-5.55 3.98-0.67417 0.2541-1.2258 0.60017-1.2258 0.76904 0 0.16888 0.29799 0.58699 0.6622 0.92915s0.95133 1.1978 1.3047 1.9013c0.55854 1.112 0.63585 1.5815 0.59166 3.5924-0.0296 1.3442-0.19708 2.5935-0.39993 2.9822-0.35844 0.68689-0.47471 2.7592-0.19562 3.4865 0.22266 0.58025 0.70945 0.50503 1.0079-0.15574 0.33358-0.73848 0.7427-0.84665 1.257-0.33235 0.52707 0.52708 0.53329 1.3896 0.0153 2.1291-0.57619 0.82262-1.1061 0.70312-2.5592-0.57716zm-1.4835-3.1219c0.66242-0.46397 0.74487-1.1993 0.18645-1.6627-0.57044-0.47342-0.4721-0.77417 0.25314-0.77417 0.77015 0 1.1116-0.94389 0.65215-1.8025-0.23846-0.44555-0.21405-0.74109 0.11917-1.4433 0.39276-0.82766 0.3885-0.9518-0.0679-1.9798-0.26778-0.60322-0.94964-1.5136-1.5153-2.023-0.87556-0.78858-1.2727-0.95176-2.6722-1.098-0.9041-0.0945-1.7375-0.0781-1.8521 0.03644-0.11455 0.11454 0.19841 0.6024 0.69544 1.0841 0.94533 0.91624 1.1758 1.4504 0.51662 1.1974-0.45474-0.1745-0.49797 0.17812-0.11058 0.90197 0.18337 0.34262 0.50935 0.50155 0.96771 0.4718 1.1155-0.07239 1.2391-0.02173 1.5356 0.629 0.35433 0.77767 0.12605 1.6909-0.5677 2.2711-0.67322 0.56303-0.89509 0.56862-1.4822 0.03733-0.30675-0.2776-0.47192-0.7869-0.47192-1.4551 0-0.86708-0.22828-1.307-1.4582-2.8103-2.1974-2.6859-2.8098-2.8187-2.1601-0.4686 0.13734 0.49676 0.36145 1.696 0.49803 2.665 0.29545 2.0961 0.80583 2.9752 1.8484 3.1837 0.56974 0.11395 0.7336 0.26592 0.63197 0.58613-0.19715 0.62117 0.83189 1.6424 1.4833 1.4721 0.36099-0.0944 0.7451 0.09951 1.2342 0.62305 0.81792 0.87559 0.95657 0.90421 1.7358 0.35839zm-18.22-0.79953c0.25955-0.23489 0.47191-0.58327 0.47191-0.77417 0-0.46906 0.42479-0.44119 0.60943 0.04 0.40202 1.0476 2.4872-0.18504 2.4872-1.4703 0-0.3193 0.16178-0.48108 0.4516-0.45159 1.0524 0.10705 1.367-0.07139 1.9851-1.1261 0.35861-0.61193 0.87338-1.9764 1.1439-3.0322 0.27055-1.0558 0.6636-2.3134 0.87346-2.7948 0.41383-0.9493 0.32214-1.8343-0.19002-1.8343-0.34432 0-4.264 3.8465-4.264 4.1844 0 0.11143-0.11612 0.20259-0.25805 0.20259-0.58429 0-0.17584-0.71326 1.211-2.1147 0.80799-0.81651 1.3897-1.5639 1.2928-1.6608-0.097-0.09695-1.0383 0.0742-2.0919 0.38034s-2.1527 0.55662-2.4425 0.55662c-0.66922 0-3.3885 2.6328-3.3885 3.2808 0 0.26777 0.13107 0.61792 0.29126 0.77812 0.21632 0.21631 0.14992 0.47096-0.25805 0.98961-0.64151 0.81555-0.70989 1.7226-0.16401 2.1756 0.27915 0.23167 0.34123 0.59552 0.2253 1.3205-0.25618 1.602 0.88829 2.3695 2.0142 1.3506zm0.52352-3.2373c-0.47777-0.47777-0.36688-1.6976 0.20645-2.2709 0.62127-0.62127 0.75283-0.63137 1.4909-0.1144 0.76414 0.53522 0.72415 1.2897-0.10929 2.0621-0.76112 0.70538-1.1306 0.78057-1.5881 0.32315zm0.20645-3.756c0-0.14193 0.17418-0.40262 0.38708-0.57931 0.21592-0.1792 0.38708-0.20715 0.38708-0.0632 0 0.14193-0.17418 0.40262-0.38708 0.57931-0.21592 0.1792-0.38708 0.20715-0.38708 0.0632zm4.0436 0.0076c-0.19321-0.31262 0.83397-1.9156 1.3325-2.0795 0.26986-0.08869 0.26019 0.04609-0.0448 0.62525-0.63763 1.2107-1.1091 1.7431-1.2876 1.4542zm-0.54055-4.3031c4.3176-1.4969 4.811-2.3101 2.2035-3.632-0.73255-0.37138-0.97259-0.39014-1.4848-0.11604-0.53538 0.28652-0.68833 0.25424-1.2368-0.26102-0.60455-0.56796-0.69839-0.57822-2.755-0.30144-2.3561 0.31709-3.216 0.74061-3.6189 1.7824-0.41699 1.0783 0.0151 1.9067 1.3305 2.5512 1.546 0.75749 3.3314 0.75008 5.5615-0.0231zm-4.4214-3.1304c0.2755-0.20838 0.74-0.37518 1.0322-0.37067 0.52264 0.0081 0.52313 0.01437 0.0304 0.38708-0.27551 0.20838-0.74001 0.37518-1.0322 0.37067-0.52264-0.0081-0.52314-0.01437-0.0304-0.38708zm18.461 3.3349c0.86387-0.34565 1.0374-0.53547 1.0374-1.1345 0-1.138-2.1739-2.8373-3.6296-2.8373-0.83687 0-0.56069 0.44036 0.64106 1.0221 1.2395 0.60002 2.0108 1.3004 1.4322 1.3004-0.18109 0-0.93488-0.2865-1.6751-0.63667-0.7402-0.35017-1.8168-0.71198-2.3924-0.80402-0.80609-0.1289-1.0111-0.25972-0.89227-0.56938 0.11564-0.30137 0.0409-0.35851-0.29872-0.2282-0.24915 0.09561-0.50155 0.17383-0.56091 0.17383-0.0594 0-0.10792 0.15739-0.10792 0.34975s-0.37741 0.45731-0.83868 0.58876c-0.68986 0.1966-0.85283 0.38358-0.91836 1.0537-0.0633 0.64732 0.0628 0.90803 0.6141 1.2692 1.3525 0.88619 5.8368 1.1535 7.5891 0.45236zm3.8761-3.3315c0.0788-0.44032 0.31258-0.7476 0.60078-0.78972 1.0446-0.15268 1.2394-0.35516 1.1576-1.2037-0.0861-0.89291-0.0963-0.89585-1.9169-0.54992-0.71739 0.13632-0.83243 0.07015-1.0718-0.6165-0.22709-0.65143-0.43989-0.79364-1.3898-0.9288-1.3241-0.18839-4.9299 0.16658-6.0052 0.59116-1.463 0.57765-3.2452 1.8997-3.2452 2.4074 0 0.4572 0.0583 0.44649 0.75315-0.13814 0.41423-0.34855 1.5246-0.84254 2.4674-1.0978 1.4585-0.3948 1.9495-0.42028 3.2909-0.17082 1.5398 0.28635 2.2631 0.65158 1.9367 0.97796-0.0893 0.08929-0.7119-0.0249-1.3836-0.25375-1.5148-0.51614-2.1615-0.52781-2.1615-0.03902 0 0.2281 0.49717 0.52473 1.2584 0.75078 0.6921 0.20553 1.746 0.68151 2.3419 1.0577 2.0926 1.321 3.1311 1.3219 3.3672 0.0031zm-9.419-1.4145c0.0877-0.14193-0.0215-0.25806-0.24283-0.25806-0.22126 0-0.40231 0.11613-0.40231 0.25806s0.10927 0.25806 0.24282 0.25806c0.13356 0 0.3146-0.11612 0.40232-0.25806zm-2.0755-1.0144c0.0816-0.13212 0.0305-0.31316-0.11381-0.40231-0.14424-0.08915-0.26226 0.01895-0.26226 0.24022 0 0.45328 0.15485 0.52002 0.37607 0.16209zm2.7639-1.5017c1.2649-0.65238 1.6468-0.71507 4.7307-0.77675 1.8451-0.0369 3.7759-0.13503 4.2906-0.21806 0.8482-0.13682 1.0022-0.06404 1.6435 0.77675 0.81537 1.069 0.90204 1.0923 1.6901 0.45415 0.56208-0.45515 0.56872-0.50584 0.17082-1.3034-0.38412-0.76999-0.38236-0.83959 0.0243-0.96436 0.92437-0.28355 1.2153-0.55961 1.2951-1.2287 0.12876-1.0807-1.1383-2.1095-2.845-2.3101-1.9041-0.22379-2.8819 0.07796-3.0438 0.93932-0.30991 1.6491-2.1008 2.2994-3.3496 1.2164l-0.58996-0.51168-1.2526 0.70414c-1.8542 1.0423-1.8646 1.43-0.0324 1.2114 1.9527-0.23293 1.5546 0.22505-0.69687 0.80186-1.463 0.37479-3.6266 1.4444-3.6266 1.7929 0 0.21208 0.16744 0.15065 1.5916-0.58386zm8.537-2.0576c-0.46128-0.05725-0.83868-0.22723-0.83868-0.37774 0-0.36577 2.7582-0.13529 3.1574 0.26383 0.31196 0.31196-0.42932 0.34838-2.3187 0.11391zm-6.8138-1.1036c0.692-0.42579 1.3703-0.77417 1.5072-0.77417 0.41919 0 1.3228-1.1202 1.5091-1.8709 0.27367-1.1026-0.0828-0.97993-2.0613 0.70965-1.1466 0.97916-2.6484 2.7096-2.3515 2.7096 0.076 0 0.70446-0.34838 1.3965-0.77417zm-9.8233-1.7463c-0.7366-1.6652-2.5281-3.6751-4.841-5.4313-3.1867-2.4196-3.2706-2.4596-3.8782-1.852-0.9725 0.9725-2.0621 0.34454-2.0621-1.1884 0-0.73362-0.12544-0.93964-0.70966-1.1655-2.6374-1.0195-3.9544-0.09762-2.8777 2.0143 0.26989 0.52938 0.49071 0.99601 0.49071 1.037 0 0.04095-0.34617 0.07447-0.76925 0.07447-0.60857 0-0.80362 0.13693-0.93378 0.65554-0.26898 1.0717 0.48714 1.667 2.1174 1.667 0.75163 0 1.945 0.12404 2.6518 0.27563 1.0902 0.2338 1.3876 0.20855 1.9598-0.16639 0.91535-0.59976 0.73011-1.1601-0.51009-1.5429-0.8067-0.24901-0.89127-0.323-0.38708-0.33869 0.8443-0.02628 3.7061 1.2039 5.3108 2.2828 1.4188 0.95397 3.2051 2.5751 3.2051 2.9088 0 0.2051-1.8836-1.1535-2.4489-1.7664-0.33867-0.36714-1.8434-1.3948-2.0424-1.3948-0.21723 0-0.18391 1.1032 0.0438 1.45 0.10428 0.1588 0.77615 0.58452 1.4931 0.94605 0.71691 0.36153 1.9935 1.179 2.8369 1.8166 0.8434 0.63762 1.6138 1.1097 1.712 1.049s-0.0643-0.6595-0.36126-1.3307zm14.86-3.3928c0.44542-0.24911 1.1292-0.53236 1.5195-0.62946 0.77905-0.1938 0.89153-0.5935 0.36838-1.3089-0.316-0.43215-0.3988-0.43697-1.118-0.06506-0.42719 0.22091-1.2897 0.81741-1.9167 1.3256-0.62699 0.50814-1.5618 1.2652-2.0774 1.6823-0.51559 0.4171-1.3266 1.2498-1.8023 1.8504l-0.86489 1.092 2.5408-1.7469c1.3974-0.96079 2.9052-1.9507 3.3507-2.1998zm-4.9539 2.0303c1.0562-1.2296 4.7421-4.1545 6.1509-4.881 0.35483-0.18298 0.96932-0.67896 1.3655-1.1022 0.6579-0.70275 0.82038-0.75451 1.8729-0.59667 1.4668 0.21996 2.6968-0.52426 2.6968-1.6318 0-1.5702-1.6472-1.8139-3.2823-0.48564-4.322 3.511-10.395 9.1798-10.395 9.7033 0 0.58506 0.49051 0.27486 1.5908-1.006zm12.619 0.26115c0.75806-0.4057 0.66952-1.9085-0.16141-2.7394-0.60392-0.60392-0.62605-0.6987-0.25806-1.1053 0.87785-0.97001 0.28803-2.3395-1.0076-2.3395-0.83706 0-0.89364 0.06135-1.279 1.3871-0.40401 1.3898-1.0785 1.9665-2.2258 1.9035-0.56537-0.03106-3.3428 1.2756-3.3428 1.5727 0 0.57303 1.7353 1.2746 2.8704 1.1605 0.6212-0.06247 1.8262-0.0059 2.6778 0.12557 2.1576 0.33324 2.1689 0.33338 2.7266 0.03494zm-25.815-5.0682c-0.88407-1.6201-2.1439-3.0346-4.5601-5.1201-3.2873-2.8373-4.5742-3.4248-5.5559-2.5363-1.0844 0.98136-0.43674 2.2355 1.7825 3.4518 0.96182 0.52713 1.1697 0.55815 1.7302 0.2582 0.54499-0.29167 0.7319-0.27874 1.2938 0.08946 0.39898 0.26142 0.65684 0.67131 0.65684 1.0441 0 0.41576 0.27051 0.77816 0.83868 1.1236 0.46128 0.28043 1.5935 1.1024 2.516 1.8267 0.92255 0.72426 1.7132 1.2117 1.757 1.0832 0.0438-0.12849-0.16276-0.67775-0.45898-1.2206zm22.232-1.1719c-0.18518-0.18517-0.30537-0.20041-0.30537-0.03871 0 0.34445 0.30518 0.64963 0.4774 0.4774 0.0734-0.07333-0.004-0.27074-0.17203-0.4387zm-26.159 12.524c0.18629-0.07454 0.40886-0.06537 0.49461 0.02038 0.0858 0.08575-0.0667 0.14674-0.3387 0.13554-0.30062-0.01238-0.36177-0.07353-0.15591-0.15591z"/>
 </g>
</svg>
