<?xml version="1.0" encoding="UTF-8" standalone="no"?>
<!-- Created with Inkscape (http://www.inkscape.org/) -->
<svg id="svg2" xmlns:rdf="http://www.w3.org/1999/02/22-rdf-syntax-ns#" xmlns="http://www.w3.org/2000/svg" height="54" width="99" version="1.1" xmlns:cc="http://creativecommons.org/ns#" xmlns:dc="http://purl.org/dc/elements/1.1/">
 <metadata id="metadata7">
  <rdf:RDF>
   <cc:Work rdf:about="">
    <dc:format>image/svg+xml</dc:format>
    <dc:type rdf:resource="http://purl.org/dc/dcmitype/StillImage"/>
    <dc:title/>
   </cc:Work>
  </rdf:RDF>
 </metadata>
 <g id="g3659">
  <g id="g3675">
   <g id="g3764">
    <g id="g3849">
     <g id="g3916">
      <g id="g3970">
       <g id="g4007">
        <g id="g4044">
         <g id="g4081">
          <g id="g4118">
           <g id="g4155">
            <g id="g4192">
             <g id="g4229">
              <g id="g4266">
               <g id="g4303">
                <g id="g4340">
                 <g id="g4377">
                  <g id="g3542">
                   <rect id="rect2990" opacity="0" height="54" width="99" y="0" x="0"/>
                  </g>
                  <path id="path4375" d="m46.854 49.343c-0.95969-0.49583-1.6562-1.7462-1.4783-2.6541 0.21248-1.0849 0.63066-0.79915 1.262 0.86242 0.37424 0.98493 0.61763 1.3249 0.77305 1.0799 0.31006-0.48888 0.29541-2.1361-0.019-2.1361-0.13981 0-0.39323-0.66969-0.56316-1.4882-0.16992-0.81851-0.54234-1.7849-0.82759-2.1475-0.64324-0.81775-0.38509-2.2467 0.40588-2.2467 0.65457 0 1.2561 1.6681 1.3813 3.8305 0.0523 0.90289 0.10322 1.6915 0.11321 1.7524 0.01 0.06094 0.23361-0.07425 0.49696-0.30042 0.26334-0.22617 0.68517-0.48414 0.93739-0.57327 0.49332-0.17432 2.3286-3.8023 2.5936-5.1269 0.11854-0.59267 0.0442-0.84998-0.28173-0.97504-0.36452-0.13988-0.41184-0.43304-0.26775-1.659 0.11952-1.017 0.0579-1.7234-0.19443-2.2283-0.61462-1.2299-2.738-3.0485-4.8799-4.1796-1.1135-0.58799-2.1918-1.3079-2.3963-1.5999-0.20449-0.29195-0.74071-0.71486-1.1916-0.93979-0.76317-0.38072-0.83988-0.37145-1.1105 0.13423-0.56246 1.051-0.68959 3.8397-0.25539 5.6026 0.2265 0.9196 0.56614 1.8561 0.75475 2.0812 0.18862 0.22505 0.44934 0.95011 0.57939 1.6112 0.13004 0.66114 0.49899 1.853 0.81988 2.6486 0.375 0.92977 0.58343 2.0464 0.58343 3.1257v1.6792l-0.65364-0.61407c-0.35951-0.33774-0.72579-0.9748-0.81397-1.4157-0.29724-1.4862-1.2777-3.2812-1.9271-3.5281-0.34908-0.13272-0.71626-0.45387-0.81594-0.71366-0.16583-0.43211-0.2346-0.42224-0.80737 0.11584-0.73768 0.69301-1.0012 0.73981-1.0012 0.17779 0-0.54313-0.268-0.50963-1.0944 0.1368-0.42638 0.33352-1.1159 0.53733-1.8307 0.54112-0.63067 0.0034-1.2228 0.12921-1.3158 0.27969-0.26646 0.43112-0.68423 0.31892-0.50935-0.1368 0.18298-0.47685-0.25695-0.53205-1.0135-0.12718-0.62529 0.33464-0.66958 0.06215-0.11012-0.67753 0.22094-0.2921 0.40171-0.75686 0.40171-1.0328 0-0.29338 0.30694-0.61839 0.73925-0.78275 0.40658-0.15458 1.3086-0.81362 2.0044-1.4645 0.69587-0.6509 1.5021-1.2654 1.7916-1.3656 0.66725-0.23084 2.5784-2.6077 2.5784-3.2067 0-0.24811 0.2538-1.2728 0.564-2.2772 0.31022-1.0043 0.61711-2.5871 0.68199-3.5173 0.0648-0.93017 0.19148-2.1542 0.28134-2.7201l0.16337-1.0289-1.8714-0.83174c-1.0292-0.45746-2.2208-1.0107-2.648-1.2295-0.42715-0.21877-0.87396-0.33762-0.99289-0.26411-0.31795 0.1965 0.003 2.6736 0.40851 3.1519 0.19131 0.22572 0.73755 1.1356 1.2139 2.022 1.4227 2.6476 1.4608 5.3958 0.0973 7.0163-0.64884 0.77109-0.81204 0.83019-1.836 0.66485-3.1259-0.50477-5.276-2.3836-7.4153-6.4798-2.0771-3.9771-2.4154-5.3632-2.0453-8.3825 0.39307-3.2073 0.63774-4.021 1.7823-5.9273 1.3753-2.2905 2.0991-2.9675 4.3308-4.0505 4.1548-2.0162 9.0292-2.1608 11.507-0.34157 0.4618 0.33901 1.242 0.77504 1.7338 0.96894 0.49177 0.19391 1.2889 0.85998 1.7714 1.4802 1.7203 2.2112 2.2797 2.1566 4.5672-0.44563 0.95902-1.091 2.2129-2.3296 2.7863-2.7526 2.7251-2.0098 7.7865-2.9084 9.4388-1.6758 1.4478 1.08 2.263 2.39 2.7133 4.36 0.86687 3.7926 1.0579 5.2452 1.0704 8.1397 0.0169 3.9231 0.21517 3.8893 2.0041-0.342 0.60441-1.4296 1.3162-3.3688 1.5818-4.3093 0.74255-2.6295 1.2171-2.1787 1.2171 1.1562 0 5.8993-1.0262 10.861-2.7816 13.45-1.2368 1.8238-1.9931 2.2892-3.7204 2.2892-1.5926 0-3.2751-2.1752-4.2326-5.4721-0.24039-0.82765-0.83703-2.7976-1.3259-4.3777-1.3571-4.3866-2.4198-5.0539-2.5556-1.6047-0.0771 1.9614-0.64002 4.2837-1.3827 5.705-0.38767 0.74194-0.50464 1.6236-0.52635 3.9673-0.0245 2.6466-0.10167 3.1167-0.63399 3.863-0.64375 0.90248-0.89785 1.8134-1.5798 5.6633-0.40855 2.3064-2.1742 7.304-2.5805 7.304-0.10698 0-0.47263 0.49485-0.81255 1.0997-0.33992 0.60481-1.1937 1.6911-1.8972 2.414-1.1808 1.2133-1.3295 1.2883-1.9343 0.97584zm6.264-16.363c0-0.2463-0.39321-0.41917-1.1086-0.48739-1.2642-0.12056-1.4763-0.01863-1.0443 0.50188 0.41418 0.49905 2.153 0.48735 2.153-0.01447zm-0.57124-1.2265c1.4822 0.20673 1.8324 0.17409 2.2572-0.21037 0.68176-0.617 0.65609-1.4647-0.0444-1.4647-0.74418 0-0.6875-0.27799 0.20112-0.98655 0.72946-0.58165 0.73923-0.62674 0.38768-1.7887-0.55561-1.8364-0.67163-2.887-0.34136-3.0911 0.16487-0.1019 0.29977-0.69157 0.29977-1.3104 0-1.1409 0.58376-2.1258 1.26-2.1258 0.48225 0 0.88676-0.78568 0.72431-1.4069-0.17013-0.65056-0.41106-0.64144-1.0267 0.03886-0.5566 0.61503-0.95761 0.70835-0.95761 0.22284 0-0.45115 1.1122-1.5909 1.5525-1.5909 0.62728 0 0.40423-1.2956-0.32129-1.8663-0.37621-0.29592-0.68401-0.73883-0.68401-0.98424s-0.30781-0.56323-0.68401-0.70626c-0.37621-0.14303-0.68401-0.40344-0.68401-0.57868s-0.2035-0.46741-0.45222-0.64928c-0.2487-0.18186-0.36456-0.47246-0.25745-0.64577 0.29675-0.48015 1.5598-0.37568 1.9793 0.1637 0.35132 0.45175 0.3994 0.44626 0.85098-0.09716 0.26324-0.31678 0.86955-1.1384 1.3474-1.8258 1.5222-2.1899 4.1802-3.6148 5.6738-3.0417 0.76109 0.29206 0.16547 0.65534-1.0745 0.65534-1.0949 0-1.3478 0.14126-2.8167 1.5732-1.8627 1.8158-2.6317 3.1212-2.3948 4.0651 0.20599 0.82074 0.62146 0.82498 1.6316 0.01667 0.55766-0.44622 0.82455-0.93509 0.89722-1.6435 0.0569-0.55458 0.21955-1.3137 0.36147-1.687l0.25804-0.67868 0.63797 0.6135c0.35088 0.33743 0.58652 0.79819 0.52362 1.0239-0.0629 0.22572 0.18792 0.05094 0.55735-0.3884l0.67168-0.79881 0.17344 0.86721c0.21112 1.0556 0.53805 1.1052 0.97427 0.14784 0.18027-0.39565 0.4009-0.64623 0.49029-0.55684 0.36032 0.36032 1.1721-0.42861 1.3351-1.2976 0.21144-1.1271-0.12834-1.8411-1.607-3.3771-0.94142-0.97791-1.2891-1.1628-2.1865-1.1628-1.0147 0-1.0583 0.0352-0.88715 0.71699 0.17434 0.69463 0.14966 0.71131-0.79116 0.53481-1.2877-0.24158-2.8863 0.07171-2.8863 0.56566 0 0.2137 0.18468 0.45941 0.41041 0.54603 0.79804 0.30624 0.40382 0.66971-0.53528 0.49353-1.008-0.18911-2.6112 0.33627-2.6112 0.85572 0 0.16276-0.30944 0.58662-0.68763 0.94192-0.46442 0.4363-0.59764 0.73599-0.41041 0.92323 0.50816 0.50816 0.28689 0.715-0.76489 0.715-0.57318 0-1.2795 0.17356-1.5696 0.38569-0.50196 0.36704-0.50449 0.41108-0.0523 0.91076 0.26135 0.28878 0.47518 0.66927 0.47518 0.84552s0.24625 0.56671 0.54721 0.86767c0.39829 0.39829 0.55477 0.93811 0.57501 1.9836 0.0153 0.79003 0.0596 2.76 0.0986 4.3777 0.0523 2.1748-0.0164 2.9412-0.26386 2.9412-0.32659 0-0.70468-1.9229-1.1028-5.6089-0.11144-1.0317-0.48938-2.2302-1.0172-3.2257-0.63736-1.202-0.76336-1.6606-0.52243-1.9015 0.4954-0.49539 0.37696-0.75526-0.34419-0.75526-0.45956 0-0.84032 0.28902-1.2464 0.94606-0.72361 1.1708-2.1481 2.3991-2.5175 2.1707-0.15365-0.09497 0.17293-0.62906 0.73934-1.2091l1.0146-1.039-0.71617-0.93896c-0.3939-0.51643-0.71618-1.0812-0.71618-1.2551s-0.18468-0.31618-0.41041-0.31618c-0.22572 0-0.4104-0.12312-0.4104-0.2736 0-0.52855-1.2793-0.26649-1.8942 0.38802-0.48839 0.51987-0.58188 0.84226-0.43636 1.5048 0.23312 1.0614-0.18554 1.0998-0.90931 0.08332-0.29759-0.41793-1.4821-1.2312-2.6322-1.8073-1.8543-0.92884-2.2367-1.0266-3.3764-0.8632-2.1379 0.3065-3.371 0.76499-3.7941 1.4107-0.3574 0.54546-0.35088 0.69104 0.0589 1.3165 0.57618 0.87936 0.81562 0.88147 1.3852 0.0122 0.32295-0.49287 0.60496-0.6427 0.98354-0.52255 0.30053 0.09539 0.72994-0.0062 0.98996-0.23425 0.68055-0.59683 1.7244-0.85522 1.954-0.48371 0.1694 0.27408 0.6695 0.39903 2.1305 0.5323 0.18811 0.01716 0.34201 0.2918 0.34201 0.61032 0 0.44752 0.12638 0.54607 0.55615 0.43368 0.3982-0.10413 0.68627 0.06165 1.0143 0.5837 0.25198 0.40102 0.74045 1.0772 1.0855 1.5025 0.64302 0.79273 0.84245 2.2078 0.35373 2.5098-0.15048 0.093-0.2736 0.46237-0.2736 0.82081 0 0.98769-0.43022 1.0681-2.1913 0.4095-1.2578-0.4704-1.7769-0.54299-2.3767-0.33233-0.84341 0.29625-0.78433 0.33195 1.4215 0.85907 1.4485 0.34614 2.3103 1.1272 2.8913 2.6206 0.17563 0.45145 0.49639 1.2231 0.71279 1.7149 0.2164 0.49173 0.50344 1.5698 0.63785 2.3957 0.25641 1.5754 1.6367 3.6518 2.4614 3.7026 0.22573 0.01391 1.1491 0.55058 2.052 1.1926 0.9029 0.64203 1.7648 1.0778 1.9152 0.96843 0.15049-0.1094 1.0631-0.08879 2.028 0.04579zm-0.59158-1.697c-0.56398-0.32849-0.64085-1.0725-0.11081-1.0725 0.36949 0 1.2736 0.84078 1.2736 1.1844 0 0.26826-0.61112 0.20947-1.1628-0.11186zm-2.4137-2.9039c-0.1626-0.42231-0.5514-1.2603-0.86401-1.8623-0.31262-0.60193-0.80785-1.5546-1.1005-2.1171-0.40825-0.78462-0.78003-1.0895-1.5968-1.3094-0.83379-0.22452-1.0985-0.44775-1.2207-1.0293-0.38009-1.8089-0.44089-1.7002 0.95087-1.7002 1.2541 0 1.3251 0.04434 2.1782 1.3609 0.86167 1.3298 2.4936 5.6549 2.4936 6.6088 0 0.8227-0.53066 0.85341-0.8405 0.04865zm-4.3076-2.1126c-0.54911-0.80645-0.58596-1.0069-0.27619-1.503 0.1966-0.3148 0.4368-0.57237 0.53377-0.57237 0.38195 0 1.0601 1.394 1.0601 2.1792 0 1.0992-0.52677 1.0576-1.3176-0.10389zm1.8523-6.4764c-0.16798-0.31385-0.22796-0.64808-0.13331-0.74274 0.25652-0.25652 1.0904 0.34785 1.1919 0.86389 0.12842 0.65255-0.69498 0.55831-1.0586-0.12116zm-9.8813 11.241c0.64758 0 0.6628-0.04648 0.51525-1.5732-0.15905-1.6458-1.3373-4.1807-2.3833-5.1273-0.86877-0.78622-0.97332-0.27698-0.32319 1.5741 0.38523 1.0969 0.59828 2.3496 0.5965 3.5076-0.003 1.8649 0.17163 2.3747 0.64932 1.897 0.15299-0.15299 0.57844-0.27816 0.94545-0.27816zm-3.4326-3.6253c0.40503-0.1881 0.737-0.52669 0.73771-0.75241s-0.43243-1.2715-0.96255-2.324c-0.6861-1.3622-0.91758-2.1243-0.80327-2.6447 0.11735-0.53432 0.0272-0.80592-0.33493-1.0091-0.43575-0.24445-0.48895-0.63048-0.44112-3.2004 0.042-2.2553-0.0429-3.0709-0.37194-3.5731-0.49723-0.75888-0.91367-0.62414-0.91367 0.29561 0 0.35478-0.15169 0.69562-0.33707 0.75742-0.23853 0.07951-0.31146 0.72612-0.24946 2.2116l0.0876 2.0993h-0.71673c-0.96197 0-1.1519 0.64414-0.45215 1.5337 0.67266 0.85516 0.74122 1.476 0.16298 1.476-0.78196 0-0.46101 1.1052 0.40902 1.4085 0.67126 0.234 0.79098 0.39901 0.6621 0.91252-0.1149 0.45778 0.0146 0.74731 0.48019 1.0734 0.35064 0.2456 0.64192 0.53651 0.6473 0.64647 0.0234 0.47962 0.84305 1.4312 1.2327 1.4312 0.23477 0 0.75824-0.1539 1.1633-0.342zm34.818-1.2013c0.76063-1.1459 1.0669-1.9385 1.1894-3.078 0.19444-1.8083 0.67615-2.0333 0.79636-0.3719 0.0462 0.63955 0.18276 1.1628 0.3033 1.1628 0.32426 0 0.90402-3.775 0.79837-5.1985l-0.0914-1.2312-0.48632 0.71586c-0.26749 0.39372-0.71113 1.3542-0.98589 2.1344-0.27475 0.7802-0.8722 1.8124-1.3277 2.2938-1.063 1.1235-1.3997 1.797-1.6988 3.3977-0.42082 2.2525 0.0845 2.3114 1.5026 0.17506zm-2.1526-0.58888c-0.0857-0.83059-0.30384-1.6016-0.48469-1.7134-0.20394-0.12604-0.24684-0.39556-0.11294-0.70965 0.31233-0.73264 0.35854-4.3059 0.0583-4.5083-0.1515-0.10214-0.10777-0.57665 0.10817-1.1738 0.27224-0.75284 0.28614-1.1246 0.0559-1.4933-0.2223-0.35595-0.22604-0.79284-0.0136-1.5887 0.16115-0.60378 0.21732-1.295 0.12482-1.5361-0.34833-0.90773-2.3318 0.6527-2.0666 1.6258 0.11403 0.41838-0.36941 1.5886-0.8934 2.1625-0.50091 0.54868-0.49969 0.59368 0.056 2.052 0.31249 0.82008 0.6207 1.922 0.68493 2.4487 0.37101 3.0428 0.89489 4.8266 1.7057 5.8076 0.6453 0.78082 0.94509 0.25122 0.77742-1.3734zm-28.738-6.7834c1.1729-0.34097 1.429-0.51043 1.196-0.79125-0.47483-0.57214-1.2532-0.65406-2.1388-0.22512-0.78821 0.38175-1.3953 1.4503-0.82395 1.4503 0.15086 0 0.94592-0.19525 1.7668-0.43389zm-7.0676-6.3692c0.48332-0.30648 1.178-1.6771 0.99784-1.9687-0.24477-0.39605-0.9477 0.04429-1.3679 0.85691-0.62914 1.2166-0.48379 1.6533 0.37009 1.1118zm12.723-1.7182c0.47592-1.1623 0.16778-1.7575-0.67602-1.3059-0.42956 0.22989-0.50529 0.16646-0.50529-0.42321 0-0.80079-0.26325-0.85453-1.3735-0.2804-0.77148 0.39895-1.3625 1.159-1.3625 1.7521 0 0.15733 0.64531 0.6546 1.434 1.105 1.6067 0.91761 1.7855 0.85656 2.4834-0.84758zm-6.849-0.41056c1.5399-0.14259 1.9481-0.28842 2.394-0.85535 0.89295-1.1352 0.70933-1.4305-0.88967-1.4305-1.3062 0-2.9454 0.42382-4.5236 1.1696-0.39119 0.18485-0.61561 0.53472-0.61561 0.95973 0 0.60709 0.0821 0.65312 0.88922 0.49862 0.48906-0.09362 1.7246-0.24757 2.7456-0.34211zm11.836 31.132c-0.0888-0.27994-0.58964-0.89854-1.1129-1.3747-0.52321-0.47612-0.9513-1.1017-0.9513-1.3901 0-2.0208 2.9525 0.59828 2.9965 2.6581 0.016 0.74822-0.70262 0.8304-0.93234 0.10663zm-3.5528-4.4843c-0.46846-1.5495-0.64242-2.8349-0.41451-3.0628 0.43485-0.43484 0.72696 0.15122 0.91294 1.8316 0.11274 1.0185 0.0738 1.5732-0.11045 1.5732-0.15652 0-0.33111-0.1539-0.38798-0.342z"/>
                 </g>
                </g>
               </g>
              </g>
             </g>
            </g>
           </g>
          </g>
         </g>
        </g>
       </g>
      </g>
     </g>
    </g>
   </g>
  </g>
 </g>
</svg>
