<?xml version="1.0" encoding="UTF-8" standalone="no"?>
<!-- Created with Inkscape (http://www.inkscape.org/) -->
<svg id="svg2" xmlns:rdf="http://www.w3.org/1999/02/22-rdf-syntax-ns#" xmlns="http://www.w3.org/2000/svg" height="45" width="67.5" version="1.1" xmlns:cc="http://creativecommons.org/ns#" xmlns:dc="http://purl.org/dc/elements/1.1/">
 <metadata id="metadata7">
  <rdf:RDF>
   <cc:Work rdf:about="">
    <dc:format>image/svg+xml</dc:format>
    <dc:type rdf:resource="http://purl.org/dc/dcmitype/StillImage"/>
    <dc:title/>
   </cc:Work>
  </rdf:RDF>
 </metadata>
 <g id="g3995">
  <rect id="rect2990" opacity="0" height="45" width="67.5" y="0" x="3.5527e-15"/>
  <path id="path4449" d="m40.521 44.743c-0.47988-0.36292-0.45717-0.386 0.40524-0.41185 1.9306-0.05786 3.5155-1.8404 1.9792-2.2259-0.36577-0.0918-0.89078-0.53644-1.1667-0.9881-0.57672-0.94405-1.4029-3.5807-1.189-3.7946 0.22169-0.22169 0.59002 0.48939 1.0314 1.9912 0.43578 1.4827 0.70191 1.6453 2.5419 1.5533 0.80963-0.0405 0.97824-0.14507 0.97887-0.60707 0.00079-0.56387-1.916-2.716-2.8772-3.2303-0.28352-0.15174-0.5155-0.44382-0.5155-0.64907s-0.23493-0.49891-0.52207-0.65258c-0.30528-0.16338-0.52206-0.54655-0.52206-0.9228 0-0.35387-0.22742-0.87082-0.50538-1.1488-0.43007-0.43006-0.60482-0.45924-1.1726-0.19577-0.87539 0.4062-0.86241 1.21 0.0373 2.3126 0.67813 0.83098 0.68094 0.84616 0.0653 0.35252-0.35387-0.28372-0.79022-0.68794-0.96968-0.89825-0.38827-0.45502-0.43872-2.7926-0.0653-3.0234 0.14357-0.08873 0.26103 0.0218 0.26103 0.24563 0 0.65902 0.50953 0.46612 0.8212-0.31088 0.15836-0.39481 0.38798-0.95277 0.51026-1.2399 0.12227-0.28714 0.26991-1.0507 0.32809-1.6967 0.0581-0.64606 0.0903-0.16408 0.0714 1.071-0.0342 2.2376-0.0311 2.2483 0.82876 2.9722 0.82449 0.69404 1.1842 1.2597 2.3517 3.6986 0.30193 0.63066 1.0498 1.4813 1.7848 2.0301 1.2308 0.91895 1.2652 0.98164 1.2652 2.308 0 1.4372-0.46362 2.1323-0.60466 0.90654-0.0454-0.39481-0.20596-0.71784-0.35673-0.71784-0.15518 0-0.20798 0.25299-0.12169 0.58297 0.24155 0.9237-1.3845 2.228-3.6292 2.9109-0.30584 0.09306-0.75391-0.0021-1.0441-0.22146zm4.0597-2.8809c0-0.21535-0.17619-0.39155-0.39154-0.39155-0.40762 0-0.51788 0.30872-0.21753 0.60907s0.60907 0.19009 0.60907-0.21753zm-8.6141 1.6632c-0.64606-0.13126-2.1102-0.41694-3.2536-0.63484s-2.2836-0.58133-2.5336-0.80762c-0.41416-0.37481-0.49236-0.37369-0.87866 0.01261-0.47072 0.47073-1.079 0.30248-0.69164-0.19132 0.13074-0.16668 0.3118-0.61383 0.40236-0.99367 0.17782-0.74584-0.14724-1.0061-1.2567-1.0061-0.73601 0-1.1312-0.44774-1.3468-1.5258-0.15486-0.77425-0.11892-0.82348 0.60114-0.82348 1.5361 0 2.1096-1.196 1.4164-2.9536-0.39094-0.99132-0.37792-1.3574 0.0365-1.0255 0.17946 0.14371 1.1192 0.34364 2.0883 0.44429l1.762 0.183v-0.87086c0-0.47897-0.10927-1.2518-0.24281-1.7175-0.14973-0.52206-0.14973-0.84663 0-0.84663 0.13354 0 0.24281 0.16036 0.24281 0.35635s0.23493 0.65501 0.52206 1.02c0.28714 0.36503 0.52207 0.92751 0.52207 1.2499 0 0.33195 0.4246 1.0046 0.97887 1.5508 1.714 1.6889 2.3347 2.567 2.6758 3.7853 0.29734 1.062 1.4782 2.4789 2.066 2.4789 0.16869 0 0.1833 0.67787 0.0493 2.284-0.0315 0.37789-1.3888 0.39152-3.1596 0.03173zm-4.699-3.099c0-0.14357-0.20556-0.25923-0.4568-0.25704-0.39038 0.0034-0.39988 0.04079-0.0653 0.25704 0.49262 0.31836 0.52206 0.31836 0.52206 0zm0.11627-1.3369c0.26225-0.24108-1.3584-3.8837-1.7279-3.8837-0.20961 0-0.40299 0.6602-0.53404 1.8231-0.0449 0.39863-0.39606 0.85119-0.91138 1.1746-0.46107 0.2894-0.84283 0.58998-0.84835 0.66797-0.0404 0.56936 3.4346 0.7577 4.0217 0.21798zm3.5518-1.1786c0.21795-0.57324 0.17324-0.75023-0.2675-1.0589-0.29104-0.20386-0.52917-0.54712-0.52917-0.7628 0-0.59633-0.44169-0.19503-0.63557 0.57744-0.17664 0.70379 0.40138 1.9326 0.90908 1.9326 0.14381 0 0.37924-0.30972 0.52316-0.68828zm12.516 3.9791c0-0.23071 0.15375-0.41948 0.34166-0.41948s0.56524-0.16348 0.8385-0.3633c0.43067-0.31491 0.44859-0.42145 0.13452-0.79988-0.23618-0.28458-0.57356-0.38356-0.96902-0.28431-0.60364 0.1515-0.8435-0.20258-0.34566-0.51026 0.44406-0.27444 0.29048-1.0584-0.40939-2.0897-0.36872-0.54335-0.90186-1.6066-1.1848-2.3627-0.37498-1.0022-0.88295-1.6903-1.8746-2.5393-1.1207-0.95944-1.4398-1.4311-1.8116-2.6785-0.32836-1.1014-0.3744-1.6067-0.16895-1.8542 0.31013-0.37367-0.51302-1.563-2.2087-3.1912-0.98578-0.94656-1.0104-0.94836-3.6379-0.26572-1.1304 0.29369-1.3793 0.26859-2.6793-0.27021-0.78821-0.32669-1.5991-0.53029-1.802-0.45244-0.30303 0.11628-0.3198 0.000835-0.094-0.64685 0.325-0.93226 0.96084-1.2604 1.2928-0.66716 0.27238 0.48673 1.3205 0.72461 3.4782 0.78944 1.2569 0.03776 1.5456-0.03453 1.6443-0.41166 0.0658-0.25161 0.31149-0.45927 0.546-0.46147 0.2345-0.0022 0.595-0.11071 0.80112-0.24114 0.31059-0.19653 0.31629-0.3076 0.0333-0.64858-0.44932-0.54138 0.0762-0.54245 0.61742-0.0012 0.55062 0.55062 0.51653 0.96401-0.11187 1.3565-0.76353 0.47683-0.66065 0.76716 0.74819 2.1114 1.7879 1.7059 2.0855 2.2815 2.284 4.4175 0.17013 1.8305 0.2071 1.9094 1.3234 2.8241 0.87142 0.71406 1.4938 1.6297 2.5803 3.7962l1.4319 2.8552 0.97146-0.15599c0.5343-0.0858 1.2273-0.20806 1.5399-0.2717 0.31455-0.06403 0.75805 0.0739 0.99296 0.30881 0.49945 0.49945 0.43922 1.9586-0.088 2.1318-0.26895 0.0884-0.31225-0.07302-0.18049-0.67289 0.10881-0.49544 0.0596-0.85945-0.13217-0.97799-0.38317-0.23681-0.75538 0.32787-0.77993 1.1832-0.0163 0.56546-0.0603 0.53062-0.33029-0.26103-0.17136-0.50249-0.42902-0.85488-0.57259-0.7831-0.285 0.1425-0.28728 0.8597-0.005 1.7291 0.14997 0.46271 0.0573 0.57542-0.55998 0.68092-0.40683 0.06954-0.94525 0.21435-1.1965 0.3218-0.32659 0.13967-0.4568 0.07579-0.4568-0.22412zm-20.099-0.28896c0-0.21535 0.11746-0.39155 0.26103-0.39155s0.26103 0.1762 0.26103 0.39155-0.11746 0.39155-0.26103 0.39155-0.26103-0.1762-0.26103-0.39155zm-5.7427-0.05765c-0.92326-0.16563-1.1368-0.45615-0.79904-1.0872 0.18997-0.35497 0.65699-0.60645 1.3244-0.71318 1.3214-0.2113 1.6569-0.60152 1.3075-1.5206-0.47688-1.2543-0.3342-2.119 0.40524-2.4559l0.6719-0.30614-0.59681-0.96564c-0.78377-1.2682-0.76535-4.1235 0.0354-5.4806 0.7299-1.2371 0.66475-1.5432-0.48264-2.2675-1.4449-0.91214-2.6844-2.594-2.9468-3.9985-0.12273-0.65692-0.12604-1.3236-0.007-1.4815 0.11867-0.15791 0.22938-0.7796 0.24604-1.3816 0.0311-1.1256 0.66894-2.6905 1.0965-2.6905 0.13248 0 0.54024-0.27744 0.90613-0.61653 0.45749-0.424 0.87049-0.5773 1.3225-0.4909 0.98299 0.18791 1.0001 0.44298 0.11426 1.6998-0.98861 1.4026-1.2068 2.8164-0.76504 4.9583 0.65064 3.1551 1.6756 4.3685 3.69 4.3685 0.99947 0 1.2269-0.13319 2.4237-1.4197l1.3208-1.4197 0.48775 1.0479c0.63986 1.3747 0.43843 2.5431-0.66672 3.8673-0.80863 0.96891-0.93339 1.0264-1.9093 0.8803-1.4024-0.21-1.9361-0.51595-2.2248-1.2753-0.29447-0.7745-0.75313-0.80549-1.6366-0.11056-1.5038 1.1829-1.609 4.0011-0.22537 6.0375 0.45312 0.66688 0.82385 1.4628 0.82385 1.7687 0 0.53155-0.034 0.53858-0.76828 0.15888-0.82323-0.4257-1.3071-0.14702-0.66705 0.38418 0.23484 0.1949 0.32801 0.55212 0.23778 0.91164-0.0913 0.3639 0.1047 1.0906 0.50994 1.8903 0.4941 0.97506 0.58384 1.3736 0.35973 1.5977-0.2891 0.2891-2.2545 0.3496-3.5876 0.11043zm0-5.0325c-0.23527-0.15204-0.26746-0.25464-0.0807-0.25704 0.17099-0.0021 0.38348 0.11347 0.47222 0.25704 0.20029 0.32408 0.10992 0.32408-0.39155 0zm-5.3042-1.426c-0.49388-0.49388-1.0589-2.8509-0.8639-3.6035 0.32621-1.2588 3.5839-2.5795 4.2407-1.7192 0.51729 0.6776 0.94399 2.6158 0.6423 2.9175-0.20082 0.20082-0.28114 0.12505-0.28114-0.26521 0-0.30049-0.17886-0.61498-0.39745-0.69886-0.32077-0.12309-0.338-0.24773-0.0893-0.64593 0.16948-0.27138 0.23097-0.69452 0.13664-0.94032-0.20311-0.52931-1.3109-0.38292-2.7822 0.36766-0.86337 0.44043-0.91114 0.53426-0.86861 1.7058 0.0656 1.8063 0.27243 2.4005 0.89201 2.5625 0.30381 0.07944 0.47391 0.26918 0.379 0.42274-0.23607 0.38197-0.5555 0.34925-1.008-0.10322zm0.66979-2.0327c-0.14853-0.18587-0.17018-0.55096-0.0503-0.84836 0.19971-0.49549 0.21135-0.49217 0.22877 0.06526 0.014 0.44756 0.17363 0.58732 0.67093 0.58732 0.35892 0 0.65258 0.11746 0.65258 0.26103 0 0.37444-1.192 0.32265-1.502-0.06526zm17.164-10.898c-0.28714-0.28714-0.52206-0.64501-0.52206-0.79528 0-0.38782 1.287 0.59564 1.297 0.99106 0.0114 0.45484-0.17015 0.40896-0.77489-0.19577zm1.5172 0.34375c0.18843-0.0754 0.41357-0.06613 0.50031 0.02061 0.0867 0.08674-0.0674 0.14843-0.3426 0.1371-0.30409-0.01252-0.36594-0.07438-0.15771-0.15771zm-4.2766-1.8846c-0.0103-0.70975-0.20667-1.5666-0.44106-1.9243-0.40541-0.61874-0.35658-1.7554 0.0754-1.7554 0.37589 0 1.2031 3.0453 1.0901 4.0131-0.16577 1.42-0.70268 1.173-0.72449-0.33332zm3.7316 0.56152c-0.52211-0.57692-0.84936-1.4567-1.068-2.8709-0.22759-1.4724 0.39856-1.5183 1.1308-0.08297 0.6011 1.1783 0.7772 1.3231 1.6172 1.3297 3.7084 0.02922 4.1176-0.02482 4.5182-0.59668 0.53442-0.763 0.50457-1.2809-0.16634-2.8857-0.7218-1.7266-1.1892-2.2672-1.96-2.2672-0.40058 0-0.71916-0.22262-0.90629-0.63333-0.44786-0.98295-0.0721-1.9326 0.9592-2.4244 0.49871-0.23782 0.90675-0.51444 0.90675-0.61472 0-0.39063-2.1184-2.0703-2.6111-2.0703-0.61512 0-0.6541 0.39927-0.15615 1.5996 0.59735 1.4399 0.1428 3.4883-1.008 4.5424-0.50785 0.46518-0.92337 0.97928-0.92337 1.1425 0 0.16318-0.2865 0.42722-0.63666 0.58677-0.52199 0.23783-0.8356 0.1864-1.741-0.2855-0.60735-0.31657-1.3354-0.51514-1.618-0.44126-0.48877 0.12782-0.50695 0.0268-0.37528-2.0838l0.13838-2.2181-1.0361-0.65405c-1.2905-0.81465-1.8289-1.9858-1.5275-3.3224 0.23423-1.0385 0.43403-1.3608 1.7244-2.7816 0.45634-0.50249 0.90739-1.2445 1.0023-1.649 0.0994-0.4235 0.49469-0.9202 0.93206-1.1712 0.4177-0.23973 0.82535-0.67234 0.9059-0.96135 0.14038-0.50373 0.16776-0.49846 0.66118 0.12709 1.019 1.292 0.93336 3.2642-0.26767 6.161-0.18467 0.44542-0.26015 1.0069-0.16771 1.2478 0.15393 0.40113 0.25752 0.39234 1.2314-0.1045 0.92785-0.47335 1.3377-0.52021 3.2163-0.36778 1.8914 0.15346 2.2853 0.10721 3.2416-0.38068 1.4796-0.75481 2.799-1.954 3.1909-2.9002 0.30905-0.74612 0.78359-1.0692 0.78359-0.53343 0 0.13797 0.25086 0.48457 0.55746 0.77022 0.46108 0.42956 0.53427 0.72515 0.42331 1.7096-0.20887 1.8531-1.0964 2.9389-2.808 3.4351-2.2143 0.64208-2.1972 0.62356-2.4347 2.631-0.19525 1.6502-0.15143 1.9786 0.4568 3.4237 0.82071 1.9499 0.86733 3.2468 0.14276 3.9714-0.44493 0.44492-0.73347 0.50301-1.7975 0.36186-1.0709-0.14206-1.3516-0.08413-1.8092 0.37354-0.46485 0.46486-0.65608 0.50181-1.3482 0.26054-0.93741-0.32678-1.3788-0.0693-0.71418 0.41666 0.25102 0.18355 0.4564 0.40887 0.4564 0.50072 0 0.33888-0.71493 0.15292-1.116-0.29029zm4.3877-8.9266c0.0657-0.88102-0.00087-1.0574-0.40101-1.0574-0.71577 0-1.0049 1.541-0.37551 2.0012 0.59966 0.43848 0.68077 0.3399 0.77652-0.94378zm-4.2675 0.07386c-0.0453-0.45018 0.0486-0.89934 0.20845-0.99814 0.21174-0.13086 0.20767-0.27965-0.0151-0.54795-0.40445-0.48733-0.55971-0.46675-1.2366 0.16392-0.67734 0.63103-0.7327 1.3573-0.14806 1.942 0.68115 0.68115 1.2873 0.3963 1.1913-0.5598zm-2.9197-3.3501c0-0.21535-0.17619-0.39155-0.39154-0.39155-0.21536 0-0.39155 0.1762-0.39155 0.39155s0.17619 0.39155 0.39155 0.39155c0.21535 0 0.39154-0.1762 0.39154-0.39155zm13.574 11.224c-0.4165-0.50185 0.009-0.50713 0.66794-0.0083 0.42569 0.32197 0.43877 0.38457 0.0819 0.39155-0.23366 0.0045-0.57107-0.1679-0.7498-0.38325zm-12.863-1.8554c-0.41824-1.1284-0.37758-1.9831 0.0711-1.4955 0.20397 0.22167 0.63067 2.6983 0.46489 2.6983-0.0496 0-0.29082-0.54129-0.53602-1.2029zm13.907-0.10229c-0.30625-0.19792-0.23852-0.25391 0.31089-0.25704 0.38634-0.0022 0.77503 0.11347 0.86376 0.25704 0.206 0.33331-0.65888 0.33331-1.1746 0zm-8.5197-0.88528c-0.61611-0.53555-0.69632-0.73206-0.45794-1.1219 0.34641-0.56648 1.1922-0.79756 1.0882-0.2973-0.0435 0.2092 0.21881 0.3801 0.66127 0.43084 0.86377 0.09905 0.8702 0.69988 0.0136 1.2677-0.50335 0.33362-0.63165 0.30617-1.3052-0.27929zm8.5912-1.8776c0.39822-0.21597 0.84063-0.32062 0.98313-0.23254 0.4673 0.28881-0.0244 0.64634-0.87421 0.63567l-0.83295-0.01045 0.72403-0.39268zm-21.381-4.4137c-1.0199-0.80401-1.6673-2.3751-1.6434-3.9879 0.0333-2.2441 0.40707-2.4444 0.61544-0.3298 0.20406 2.0709 0.50595 2.8554 1.5987 4.154 0.82155 0.97636 0.55651 1.0523-0.5708 0.16366zm0.70271-2.594c-0.17041-0.20533-0.27289-0.82202-0.22774-1.3704l0.0821-0.99709 0.28107 1.3704c0.15458 0.75373 0.25706 1.3704 0.22773 1.3704-0.0293 0-0.19275-0.168-0.36316-0.37333z"/>
 </g>
</svg>
