<?xml version="1.0" encoding="UTF-8" standalone="no"?>
<!-- Created with Inkscape (http://www.inkscape.org/) -->
<svg id="svg2" xmlns:rdf="http://www.w3.org/1999/02/22-rdf-syntax-ns#" xmlns="http://www.w3.org/2000/svg" height="45" width="67.5" version="1.1" xmlns:cc="http://creativecommons.org/ns#" xmlns:dc="http://purl.org/dc/elements/1.1/">
 <metadata id="metadata7">
  <rdf:RDF>
   <cc:Work rdf:about="">
    <dc:format>image/svg+xml</dc:format>
    <dc:type rdf:resource="http://purl.org/dc/dcmitype/StillImage"/>
    <dc:title/>
   </cc:Work>
  </rdf:RDF>
 </metadata>
 <g id="g3398">
  <rect id="rect2990" opacity="0" height="45" width="67.5" y="0" x="3.5527e-15"/>
  <path id="path3387" d="m43.888 44.901c-0.0828-0.05352-0.28288-0.098-0.44459-0.09884-0.16171-0.000669-0.43275-0.04455-0.6023-0.09713-0.16956-0.05257-0.63774-0.16897-1.0404-0.25866-0.95152-0.21193-2.3795-0.88053-2.8752-1.3462-0.41901-0.39364-0.50979-1.4076-0.20724-2.3149 0.25105-0.75284 0.23167-1.602-0.0515-2.2586-0.0476-0.11042-0.11319-0.38146-0.14569-0.6023-0.15359-1.0434-0.41796-2.3178-0.51262-2.471-0.0388-0.06268-0.10332-0.06374-0.17745-0.003-0.0641 0.0526-0.22485 0.11126-0.35724 0.13035-0.27207 0.03923-0.34233 0.14726-0.51225 0.78759-0.0659 0.24845-0.16064 0.53016-0.21047 0.62603-0.0498 0.09587-0.0906 0.34658-0.0906 0.55713s-0.0393 0.42573-0.0874 0.47818c-0.048 0.05245-0.11389 0.30223-0.14631 0.55506-0.0574 0.44762-0.0458 0.47268 0.44321 0.95364 0.4878 0.47984 0.91498 1.2112 1.036 1.7738 0.0327 0.15183 0.088 0.39276 0.1229 0.53539 0.11284 0.4609-0.29526 1.5522-0.73411 1.9631-0.54586 0.51111-1.0808 0.69941-2.1507 0.75702-0.69148 0.03724-0.99322 0.01974-0.99322-0.05764 0-0.06112-0.11026-0.11113-0.24503-0.11113s-0.27295-0.04517-0.30708-0.10038c-0.0341-0.05521-0.25245-0.10038-0.48517-0.10038-0.31714 0-0.6217-0.11316-1.2158-0.45172-0.43596-0.24845-0.82904-0.45172-0.87348-0.45172-0.10911 0-0.67727-0.62883-1.0013-1.1082-0.14474-0.21412-0.33727-0.62832-0.42786-0.92042-0.41322-1.3324-0.40576-1.2929-0.28148-1.4918 0.0656-0.10502 0.11924-0.35398 0.11924-0.55324 0-0.19927 0.0886-0.48668 0.19682-0.6387 0.3333-0.46808 0.51762-1.1665 0.4855-1.8398-0.0286-0.60001-0.04-0.62414-0.28078-0.5994-0.86803 0.08919-2.4361-0.06727-2.8345-0.28281-0.0959-0.05187-0.2626-0.09432-0.37051-0.09432s-0.22412-0.04517-0.25824-0.10038c-0.0341-0.05521-0.17648-0.10038-0.31634-0.10038s-0.36594-0.08782-0.5024-0.19516c-0.13914-0.10945-0.32243-0.16888-0.41736-0.13532-0.24374 0.08617-0.5206 0.34192-0.5206 0.48089 0 0.14558-0.83674 0.8626-1.2645 1.0836-0.17097 0.08833-0.40286 0.13654-0.51531 0.10714-0.38133-0.09972-0.91348 0.83769-0.63765 1.1233 0.22474 0.23266 0.71095 1.2552 0.71095 1.4952 0 0.33775-0.30824 0.94055-0.63861 1.2489-0.5402 0.50416-2.5104 0.78169-3.3926 0.47789-0.75778-0.26096-1.1502-0.44963-1.293-0.62167-0.0762-0.09176-0.23536-0.20367-0.35381-0.2487-0.21672-0.0824-1.1481-1.1019-1.1481-1.2567 0-0.0457-0.0849-0.17635-0.18865-0.29033-0.18518-0.20342-0.65022-1.5132-0.76148-2.1448-0.11924-0.67684 0.42251-1.4514 1.3235-1.8922 0.51401-0.25148 0.53007-0.27206 0.53007-0.67921 0-0.23093-0.0406-0.46278-0.0901-0.51523-0.0919-0.09722-0.17583-0.5674-0.27626-1.5468-0.0424-0.41396-0.15182-0.68882-0.44722-1.1238-0.21506-0.3167-0.39102-0.64338-0.39102-0.72597s-0.042-0.17612-0.0934-0.20786c-0.21198-0.13101-0.30128-2.1091-0.14973-3.3168 0.0415-0.33115 0.15825-0.7377 0.25933-0.90345 0.10107-0.16574 0.18394-0.37297 0.18415-0.46049 0.00034-0.17466 1.1313-2.4675 1.3005-2.6367 0.15127-0.15128 0.12958-0.36623-0.037-0.36623-0.0782 0-0.15727-0.03798-0.17567-0.08441-0.0424-0.10695-0.94986-0.74272-1.3709-0.96042-0.17541-0.09071-0.31892-0.23152-0.31892-0.31292s-0.058-0.148-0.12891-0.148c-0.14556 0-1.1761-1.0101-1.1761-1.1528 0-0.05084-0.14432-0.24136-0.32073-0.42336l-0.32074-0.33092 0.0218-1.5299c0.0226-1.584 0.11622-2.034 0.44073-2.1189 0.0984-0.02573 0.17892-0.10943 0.17892-0.186s0.1468-0.18244 0.32624-0.23526c0.29805-0.08775 0.32896-0.13509 0.35768-0.54777 0.0173-0.24845 0.0738-0.49464 0.12548-0.54709 0.0517-0.05245 0.0941-0.16822 0.0941-0.25727 0-0.18026 0.4188-1.056 0.63547-1.3288 0.0973-0.12248 0.28201-0.17567 0.61008-0.17567 0.37989 0 0.51796 0.05117 0.71671 0.26562 0.21002 0.22662 0.24616 0.36369 0.24616 0.93356 0 0.36737 0.0373 0.71086 0.0829 0.76331s0.13835 0.29864 0.20608 0.54709c0.47536 1.7436 1.1845 3.44 1.7084 4.0869 0.14368 0.1774 0.3672 0.46081 0.49671 0.62979 0.30706 0.40062 0.75871 0.63599 0.9927 0.51733 0.0975-0.04942 0.35788-0.14356 0.57872-0.2092 0.3781-0.11238 0.52938-0.16888 1.0791-0.40304 0.21749-0.09264 1.1514-0.20064 1.8822-0.21766 0.56921-0.01326 1.2236 0.1002 1.3958 0.24198 0.0881 0.07255 0.40859 0.23889 0.71225 0.36966 1.023 0.44054 2.4104 1.1286 2.47 1.2251 0.0325 0.05263 0.15639 0.13919 0.27525 0.19236 0.11885 0.05317 0.44197 0.22793 0.71802 0.38835 0.27606 0.16042 0.59226 0.3352 0.70268 0.3884 0.11043 0.0532 0.31028 0.21445 0.44413 0.35833 0.17378 0.18681 0.34599 0.26205 0.6023 0.26315 0.19741 0.00083 0.41971 0.04005 0.49398 0.08712 0.19917 0.12622 1.0609-0.20842 1.1032-0.42845 0.0372-0.19295-0.34357-0.66404-0.53667-0.66404-0.14121 0-2.3579-2.145-2.3579-2.2816 0-0.05305-0.0904-0.17821-0.20077-0.27814-0.13204-0.1195-0.20076-0.30918-0.20076-0.55413 0-0.20516-0.0819-0.47996-0.18239-0.61184-0.10031-0.13167-0.28355-0.45889-0.40719-0.72716-0.20721-0.44958-0.21219-0.5017-0.0637-0.66578 0.18851-0.2083 0.12426-0.60691-0.16443-1.0202-0.10237-0.14655-0.18613-0.38104-0.18613-0.52109s-0.0452-0.28255-0.10038-0.31667c-0.0552-0.03412-0.10039-0.19489-0.10039-0.35727 0-0.25256 0.0385-0.29522 0.26643-0.29522 0.18662 0 0.36937 0.12027 0.61012 0.40153 0.18903 0.22084 0.38449 0.40153 0.43436 0.40153 0.0518 0 0.0656-0.41988 0.0321-0.97874-0.0655-1.0943-0.10943-1.1675-0.92974-1.5485-0.43519-0.20213-1.4167-1.1603-1.8505-1.8066-0.12334-0.18372-0.28768-0.53732-0.36521-0.78577-0.0775-0.24845-0.18193-0.50627-0.23201-0.57293-0.13057-0.17382-0.0226-2.2999 0.14547-2.8652 0.14277-0.48011 0.73877-1.2093 1.1362-1.3901 0.11042-0.05023 0.40404-0.24626 0.65249-0.43561s0.50442-0.34728 0.56883-0.35094c0.0644-0.0037 0.13218-0.04339 0.15058-0.08828 0.0514-0.12552 1.3886-1.0341 1.5751-1.0702 0.0907-0.01758 0.40661-0.19475 0.70202-0.3937 0.2954-0.19895 0.58902-0.36201 0.65248-0.36235 0.0635-0.000335 0.23801-0.06459 0.38788-0.14277 0.92335-0.4817 2.2022-0.74781 3.5817-0.74534 0.69771 0.0012 0.89134-0.03444 1.1252-0.20737 0.15539-0.11488 0.41721-0.20888 0.58182-0.20888s0.32387-0.03978 0.35392-0.0884c0.14199-0.22975 2.8145-0.58184 2.9351-0.38668 0.0278 0.04506 0.23878 0.07991 0.46874 0.07744 0.72795-0.0078 1.5013 0.14787 2.1748 0.43775 0.35887 0.15446 0.87835 0.37792 1.1544 0.49658s0.65503 0.31749 0.84217 0.44183 0.39325 0.22607 0.45804 0.22607c0.0648 0 0.24762 0.13552 0.4063 0.30115 0.33485 0.34951 0.66931 0.38472 0.95364 0.10038 0.11042-0.11042 0.24655-0.20077 0.30251-0.20077 0.0559 0 0.18767-0.05366 0.29269-0.11924 0.14931-0.09325 0.28579-0.08906 0.62603 0.01924 0.48629 0.15478 1.2884 0.65904 1.2884 0.81 0 0.05392 0.11293 0.14098 0.25096 0.19346 0.13802 0.05248 0.25106 0.13041 0.25119 0.17319 0.0001 0.04278 0.139 0.23588 0.30859 0.42911 0.1696 0.19324 0.38327 0.46427 0.47484 0.6023 0.0916 0.13803 0.2482 0.3113 0.34808 0.38506 0.0999 0.07376 0.29328 0.29962 0.42977 0.50192 0.13648 0.2023 0.42968 0.61626 0.65153 0.91992 0.86695 1.1867 1.3863 2.5626 1.2054 3.1935-0.0481 0.16766-0.0617 0.33056-0.0303 0.36201 0.1023 0.1023-0.20344 1.207-0.39299 1.42-0.10145 0.11398-0.18446 0.25193-0.18446 0.30655 0 0.15653-0.6129 0.69224-1.054 0.92127-0.22084 0.11466-0.6613 0.23719-0.97879 0.27229-0.89515 0.09895-1.0122 0.31062-0.72266 1.3067 0.23448 0.80658 0.44186 1.0158 1.0662 1.0758 0.2888 0.02775 0.64695 0.0155 0.7959-0.02721 0.1662-0.04766 0.31351-0.03497 0.38135 0.03287 0.13828 0.13829 0.14499 0.63954 0.01 0.72318-0.0555 0.03428-0.0894 0.32192-0.0753 0.63918 0.022 0.49689-0.0109 0.62022-0.2377 0.88974-0.17725 0.21066-0.30467 0.53673-0.38997 0.99796-0.15091 0.81595-0.29635 1.126-0.75755 1.615-0.19025 0.2017-0.3459 0.40571-0.3459 0.45336s-0.0565 0.14335-0.12548 0.21267c-0.069 0.06932-0.26192 0.28066-0.42869 0.46965-0.35519 0.40253-1.3906 1.2973-1.5013 1.2973-0.0419 0-0.24038 0.13709-0.4409 0.30464-0.20053 0.16755-0.41443 0.34383-0.47533 0.39172s-0.3997 0.23065-0.75287 0.40613c-0.35319 0.17548-0.7099 0.35369-0.79272 0.39602-0.0828 0.04233-0.39902 0.13693-0.70268 0.21022-0.82994 0.20031-0.88164 0.28048-1.0356 1.6058-0.077 0.66305-0.20928 1.2967-0.31145 1.492-0.17952 0.34319-0.17545 0.45947 0.046 1.3168 0.12653 0.48983 0.25763 1.6343 0.35072 3.0617 0.0324 0.4969 0.10011 0.99379 0.15045 1.1042 0.11561 0.2536 0.18232 1.4519 0.25547 4.589l0.0579 2.481 0.30888 0.15409c0.16988 0.08475 0.44875 0.15553 0.6197 0.15728 0.17096 0.0017 0.39852 0.06951 0.50569 0.15058 0.10717 0.08106 0.27307 0.14738 0.36867 0.14738s0.38059 0.24203 0.6333 0.53784l0.4595 0.53783v0.87252c0 0.56012-0.0511 0.96957-0.1427 1.1436-0.20055 0.38095-1.0261 1.1443-1.5738 1.4552-0.67811 0.38499-2.3283 0.61218-2.7004 0.37176zm1.7704-0.8721c0.18425-0.1202 0.1984-0.17438 0.10038-0.38442-0.0628-0.13448-0.23386-0.29437-0.38024-0.35532-0.34729-0.14461-0.72676-0.55224-0.6419-0.68954 0.0366-0.0593 0.1933-0.10782 0.34812-0.10782 0.20666 0 0.40118 0.12796 0.73172 0.48134 0.24764 0.26474 0.46839 0.53462 0.49056 0.59974 0.0236 0.06941 0.13377 0.09385 0.26618 0.05906 0.34574-0.09083 0.28887-0.48153-0.13126-0.90166-0.35383-0.35383-0.43496-0.72892-0.17608-0.81412 0.0656-0.02158 0.35653 0.18944 0.64653 0.46896s0.53537 0.50821 0.54527 0.50821c0.0891 0 0.25072-0.94936 0.20055-1.1778-0.0798-0.36318-0.81137-1.0848-1.1854-1.1691-0.15183-0.03426-0.40028-0.08903-0.55211-0.12174-0.42949-0.0925-1.1333-0.43396-1.1757-0.57037-0.021-0.06767-0.0613-1.1988-0.0894-2.5136-0.0336-1.568-0.0905-2.438-0.16543-2.5283-0.0855-0.10302-0.085-0.19239 0.002-0.35507 0.0719-0.13437 0.0925-0.41478 0.0538-0.73419-0.0344-0.28424-0.0873-0.81042-0.11751-1.1693-0.0302-0.35887-0.0965-0.6954-0.14722-0.74785-0.0507-0.05245-0.0926-0.48159-0.093-0.95364-0.00069-0.99125-0.13523-1.9487-0.37401-2.6652-0.16377-0.49143-0.17719-0.85352-0.0354-0.95364 0.0391-0.02761 0.0759-0.14054 0.0818-0.25096 0.006-0.11042 0.0622-0.4718 0.12518-0.80306 0.14428-0.75889 0.28142-1.8936 0.2357-1.9502-0.019-0.02359-0.34315-0.0346-0.72017-0.02447-0.57644 0.01548-0.71495-0.01412-0.87058-0.1861-0.16945-0.18724-0.17156-0.21804-0.0249-0.36469 0.0995-0.09952 0.40086-0.17799 0.79576-0.20722 0.34957-0.02587 0.71583-0.08999 0.81392-0.14249 0.0981-0.0525 0.22316-0.06775 0.27793-0.0339 0.0548 0.03385 0.24147-0.0092 0.41488-0.09574 0.17342-0.08651 0.46379-0.15729 0.64529-0.15729 0.18149 0 0.35792-0.04517 0.39203-0.10038 0.0341-0.05521 0.14863-0.10038 0.25446-0.10038s0.34032-0.09018 0.52109-0.20039c0.18076-0.11022 0.40072-0.20056 0.48878-0.20077 0.0881-0.000201 0.24188-0.09072 0.34181-0.20114 0.0999-0.11042 0.24206-0.20077 0.31585-0.20077 0.0738 0 0.19059-0.09034 0.25955-0.20077 0.0689-0.11042 0.17776-0.20077 0.24177-0.20077 0.064 0 0.27449-0.1581 0.46773-0.35134 0.19323-0.19324 0.38831-0.35134 0.43351-0.35134 0.13118 0 1.1425-1.0346 1.1425-1.1688 0-0.0669 0.13289-0.22654 0.29532-0.35477s0.36463-0.36781 0.44934-0.53241c0.14783-0.28723 0.14357-0.30762-0.10586-0.5065-0.34619-0.27604-0.27995-0.52978 0.20985-0.80388 0.54702-0.30613 0.65608-0.58043 0.35724-0.89853-0.20331-0.21641-0.21444-0.26823-0.0913-0.42507 0.0771-0.09824 0.21927-0.23764 0.31589-0.30978 0.34764-0.25958 0.16007-0.51069-0.42663-0.57113-0.40344-0.04156-1.0846-0.55374-1.309-0.98427-0.14195-0.27233-0.20827-0.59122-0.21028-1.0111-0.001-0.33732-0.0516-0.64338-0.11111-0.68015-0.0767-0.04741-0.0743-0.14984 0.008-0.35218 0.10932-0.26779 0.10657-0.47824-0.0305-2.3432-0.0698-0.94905-0.1558-1.4847-0.30747-1.9147-0.0806-0.22838-0.12067-0.5182-0.0891-0.64404 0.034-0.13546-0.0278-0.39571-0.15131-0.63795-0.1148-0.22503-0.20874-0.52122-0.20874-0.65818 0-0.13697-0.0451-0.27695-0.10038-0.31107-0.0552-0.03412-0.10138-0.13843-0.10261-0.23179-0.001-0.09336-0.0906-0.28268-0.19854-0.4207-0.10796-0.13803-0.1973-0.3158-0.19853-0.39506-0.001-0.07926-0.0989-0.24696-0.21696-0.37267-0.1181-0.12571-0.26491-0.32896-0.32625-0.45167-0.0976-0.19524-0.8015-0.65915-1.2788-0.84278-0.0899-0.03458-0.21539-0.17691-0.27889-0.31629-0.0813-0.1785-0.17206-0.23862-0.30691-0.20335-0.10945 0.02862-0.21436-0.0097-0.24496-0.08942-0.0294-0.07672-0.13684-0.13948-0.23867-0.13948-0.10182 0-0.31496-0.13552-0.47365-0.30115-0.20516-0.21414-0.38316-0.30115-0.61609-0.30115-0.18702 0-0.36378-0.0647-0.41197-0.15081-0.10733-0.19179-1.5538-0.62075-2.4352-0.72219-0.24844-0.0286-0.50818-0.09784-0.5772-0.15389-0.0863-0.07012-0.17244-0.06293-0.27605 0.02306-0.12009 0.09966-0.18105 0.09968-0.30106 0.000075-0.11595-0.09623-0.2144-0.09842-0.42898-0.0095-0.15317 0.06345-0.43554 0.13148-0.62749 0.15118-0.19194 0.0197-0.41675 0.06054-0.49956 0.09075-0.0828 0.03021-0.42025 0.12993-0.74985 0.2216s-0.78133 0.26061-1.0038 0.37542c-0.32677 0.16861-0.5596 0.20426-1.2109 0.18538-0.95076-0.02755-2.1164 0.20649-2.7448 0.55113-0.24161 0.13249-0.49997 0.2409-0.57416 0.2409-0.15187 0-0.72196 0.30579-1.127 0.6045-0.14783 0.10903-0.49465 0.28117-0.7707 0.38254-0.48417 0.17778-1.6171 0.941-2.1794 1.4682-0.14965 0.14031-0.31437 0.2551-0.36604 0.2551-0.16053 0-0.71705 0.69931-0.71705 0.90102 0 0.10524-0.0451 0.21927-0.10039 0.25339-0.13226 0.08174-0.13226 2.2271 0 2.3088 0.0553 0.03412 0.10039 0.14123 0.10039 0.23803 0 0.52298 0.85845 1.7194 1.2337 1.7194 0.10605 0 0.21375 0.08899 0.24298 0.20076 0.0289 0.11042 0.0897 0.20077 0.13506 0.20077 0.0454 0 0.29135 0.18069 0.54651 0.40153l0.46394 0.40153h0.89141c0.49029 0 0.91934-0.04517 0.95346-0.10038 0.0341-0.05521 0.16965-0.10038 0.30115-0.10038 0.13151 0 0.26703-0.04517 0.30115-0.10038 0.0341-0.05521 0.16443-0.10038 0.28958-0.10038 0.57759 0 0.94898-0.90988 1.016-2.489 0.0541-1.2744 0.14823-1.7419 0.50118-2.4879 0.35588-0.75221 0.94716-1.382 1.2047-1.2831 0.0829 0.0318 0.15064 0.11379 0.15064 0.18222 0 0.1639-0.28819 0.7377-0.40757 0.81148-0.1161 0.07176-0.59626 1.1085-0.59626 1.2875 0 0.07198-0.0334 0.1643-0.0743 0.20515-0.0408 0.04085-0.0822 0.3533-0.0919 0.69432-0.0225 0.79157-0.17597 1.9262-0.32074 2.371-0.22337 0.68636-1.2578 1.5392-2.0006 1.6494-0.23296 0.03456-0.61555 0.0905-0.85019 0.12432-0.23464 0.03381-0.48309 0.1071-0.55211 0.16287-0.16349 0.1321-0.16797 1.6013-0.006 2.0486 0.1029 0.28458 0.0939 0.35773-0.0658 0.53414-0.10174 0.11242-0.29091 0.2044-0.42038 0.2044-0.31204 0-0.29686 0.10433 0.0658 0.45172 0.36725 0.35185 0.37619 0.51298 0.0475 0.85605l-0.25363 0.26474 0.46264 0.49363c0.42651 0.45508 0.45846 0.52498 0.40916 0.89516-0.053 0.39839-0.0455 0.40919 0.959 1.3803 0.55685 0.5383 1.0656 0.97874 1.1307 0.97874 0.065 0 0.25087 0.14064 0.41303 0.31253 0.61504 0.65196 2.3978 1.6951 2.897 1.6951 0.28272 0 0.45954 0.18154 0.45954 0.4718 0 0.227-0.0519 0.25115-0.5542 0.25784-0.18856 0.0025-1.2043-0.46386-2.0807-0.95535l-0.37633-0.21104-0.22598 0.20213c-0.40891 0.36575-0.82291 0.4626-1.7816 0.41676-0.70664-0.03379-0.96315-0.08788-1.1812-0.24911-0.15322-0.11328-0.37933-0.23794-0.50249-0.27702-0.12316-0.03909-0.22392-0.11207-0.22392-0.16218s-0.19589-0.18035-0.43531-0.28942-0.4934-0.2683-0.5644-0.35385-0.18579-0.15554-0.25508-0.15554c-0.0693 0-0.18223-0.06776-0.25096-0.15058-0.0687-0.08282-0.21039-0.15057-0.3148-0.15057-0.20292 0-0.51401-0.15198-0.8396-0.41016-0.29504-0.23396-1.333-0.79444-1.4712-0.79444-0.0655 0-0.19944-0.07271-0.29763-0.16157-0.23158-0.20958-1.9881-0.21445-2.5225-0.007-0.44639 0.17327-0.55829 0.20366-1.0289 0.27946-0.95053 0.15309-1.1428 0.21183-1.3145 0.40153-0.0947 0.10464-0.22207 0.19026-0.28305 0.19026-0.061 0-0.16729 0.09034-0.23625 0.20077-0.069 0.11042-0.18576 0.20077-0.25955 0.20077-0.0738 0-0.21592 0.09034-0.31585 0.20077-0.0999 0.11042-0.23631 0.20077-0.30306 0.20077-0.0667 0-0.24658 0.18069-0.39963 0.40153-0.15304 0.22084-0.31729 0.40153-0.36499 0.40153-0.0477-0.000002-0.0867 0.06222-0.0867 0.13828 0 0.07605-0.0725 0.19842-0.16103 0.27193-0.0886 0.0735-0.20311 0.22585-0.25455 0.33854-0.0514 0.11269-0.24657 0.45334-0.43365 0.757-0.51631 0.83805-1.058 1.914-1.058 2.1015 0 0.09196-0.0516 0.21887-0.11481 0.28201-0.16183 0.16183-0.25287 2.9843-0.0993 3.0792 0.0626 0.03867 0.11374 0.18056 0.11374 0.31533 0 0.41338 0.15705 0.2713 0.17416-0.15755 0.009-0.22142 0.0437-0.44728 0.0774-0.50192 0.0753-0.12184 0.51954-0.13182 0.59278-0.01331 0.0292 0.04731 0.0783 0.90722 0.10907 1.9109 0.047 1.5352 0.0903 1.9159 0.27253 2.3985 0.25346 0.67107 0.2447 1.1688-0.0272 1.5483-0.10721 0.14959-0.19492 0.31786-0.19492 0.37393s-0.19865 0.19243-0.44143 0.30303c-0.98553 0.44896-1.1979 0.80537-0.95548 1.6037 0.0599 0.19716 0.14841 0.48833 0.19678 0.64705 0.2224 0.72992 1.7443 2.472 2.1596 2.472 0.19231 0 0.11703-0.31117-0.1759-0.72709-0.2151-0.3054-0.16981-0.4775 0.12564-0.4775 0.21391 0 0.74928 0.76837 0.84998 1.2199 0.10506 0.47108 1.125 0.69289 1.0835 0.23562-0.0533-0.58751-0.12972-0.81016-0.32172-0.93764-0.22351-0.1484-0.28732-0.56-0.10435-0.67308 0.0593-0.03664 0.22032 0.03906 0.35783 0.16824 0.23131 0.21731 0.32686 0.38845 0.61835 1.1075 0.0596 0.14704 0.19643 0.2953 0.30407 0.32946 0.30731 0.09754 0.85903-0.2867 1.0096-0.70312 0.11763-0.32535 0.1112-0.3845-0.0631-0.57972-0.41152-0.46097-0.66156-0.99944-0.66156-1.4247 0-0.82788 0.58518-1.6004 1.1385-1.5029 0.17828 0.03142 0.32368-0.0077 0.4084-0.10974 0.0724-0.08718 0.30351-0.22732 0.51368-0.31141 0.21016-0.08409 0.38212-0.21022 0.38212-0.28028s0.0668-0.18284 0.14849-0.25062c0.30539-0.25345 0.45381-0.73315 0.45381-1.4668 0-0.40234-0.0452-0.75944-0.10039-0.79357-0.0552-0.03412-0.10038-0.21196-0.10038-0.3952s-0.0681-0.49597-0.15117-0.69496c-0.0832-0.19899-0.14361-0.39649-0.13437-0.43889 0.009-0.0424-0.0357-0.20425-0.0998-0.35967s-0.11659-0.35076-0.11659-0.43408c0-0.18716-1.0865-1.3412-1.2627-1.3412-0.1464 0-0.4438-0.54451-0.4438-0.81256 0-0.27777 0.16539-0.31659 0.51161-0.12008 0.1742 0.09888 0.43197 0.24253 0.57281 0.31924 0.2712 0.1477 0.72248 0.59389 0.72248 0.71432 0 0.03938 0.15766 0.26994 0.35037 0.51235 0.23384 0.29418 0.35069 0.54728 0.35134 0.76108 0.00033 0.17618 0.0462 0.34824 0.10135 0.38236 0.0552 0.03412 0.10038 0.2374 0.10038 0.45172 0 0.21433 0.0451 0.4176 0.10039 0.45172 0.0553 0.03412 0.10038 0.32774 0.10038 0.65249s0.0451 0.61837 0.10038 0.65249c0.0552 0.03412 0.10039 0.24222 0.10039 0.46244 0 0.30404 0.0639 0.45964 0.26561 0.64657 0.14609 0.13539 0.3183 0.24616 0.38268 0.24616 0.0644 0 0.3077 0.09211 0.5407 0.20468 0.23301 0.11258 0.46423 0.1796 0.51383 0.14894s0.11858-0.0098 0.15325 0.04628c0.0347 0.05611 0.19888 0.10202 0.36488 0.10202 0.16601 0 0.38282 0.04335 0.48181 0.09633 0.22194 0.11878 1.9816 0.16945 2.2913 0.06598 0.17681-0.05907 0.22587-0.15173 0.22587-0.42663 0-0.19315 0.0429-0.43133 0.0953-0.5293s0.12691-0.70631 0.1655-1.3519c0.0386-0.64556 0.10863-1.1975 0.15563-1.2266 0.047-0.02905 0.0855-0.3411 0.0855-0.69345s0.0451-0.66856 0.10038-0.70268c0.0552-0.03412 0.10038-0.29879 0.10038-0.58815 0-0.7472 0.33318-1.0175 0.65284-0.52962 0.11786 0.17988 0.13134 0.30112 0.0556 0.50031-0.055 0.1446-0.10723 0.54595-0.11614 0.8919-0.009 0.34595-0.0514 0.67417-0.0945 0.72938-0.074 0.09488-0.12964 0.61453-0.25242 2.359-0.0291 0.41408-0.0838 0.82063-0.12139 0.90345-0.0377 0.08282-0.0813 0.39902-0.0971 0.70268-0.0588 1.1312-0.14688 1.8599-0.2361 1.9525-0.0505 0.05245-0.0919 0.3061-0.0919 0.56367 0 0.29742-0.0665 0.55566-0.18211 0.7077-0.51892 0.68216-0.63442 1.3628-0.37582 2.2149 0.17962 0.59189 0.39971 0.93529 0.90838 1.4173 0.66272 0.62799 1.2591 0.90266 3.2482 1.496 0.42456 0.12665 0.62696-0.02198 0.43923-0.32259-0.0676-0.1083-0.12324-0.25398-0.1236-0.32374-0.0003-0.06976-0.13586-0.2038-0.30115-0.29784-0.1756-0.09992-0.30051-0.25393-0.30051-0.37052 0-0.55972 0.763-0.23813 1.0974 0.46255 0.12614 0.26427 0.26327 0.54825 0.30473 0.63107 0.0803 0.16034 0.67803 0.1585 0.84557-0.0027 0.11306-0.10871-0.20262-0.79239-0.40102-0.86852-0.20214-0.07757-0.3524-0.38765-0.27968-0.57716 0.11995-0.31259 0.42179-0.15936 0.81228 0.41236 0.21421 0.31362 0.4407 0.58729 0.50332 0.60817 0.16352 0.05451 0.42474-0.57228 0.38652-0.92742-0.0179-0.16563-0.0831-0.42831-0.14504-0.58374-0.062-0.15542-0.11263-0.36369-0.11263-0.46281 0-0.26538-0.45201-0.88557-1.0131-1.39-0.371-0.33356-0.49268-0.51359-0.49268-0.72889 0-0.15726 0.0452-0.31384 0.10037-0.34796 0.0552-0.03412 0.10039-0.20844 0.10039-0.38738s0.049-0.37432 0.10885-0.43419c0.0599-0.05986 0.13402-0.38639 0.16478-0.72561 0.0307-0.33922 0.0947-0.64073 0.14211-0.67002 0.0474-0.02931 0.0862-0.16086 0.0862-0.29238 0-0.13151 0.0451-0.26702 0.10038-0.30115 0.0552-0.03412 0.10038-0.20995 0.10038-0.39072 0-0.18078 0.0309-0.35964 0.0688-0.39748 0.11015-0.11015 0.32957-0.7977 0.33122-1.0379 0.00067-0.12096 0.0407-0.24418 0.0887-0.27381 0.048-0.02962 0.11731-0.32038 0.15417-0.64611 0.0718-0.63461 0.30255-0.9642 0.62955-0.89919 0.13424 0.02669 0.17759 0.11613 0.16235 0.33504-0.0372 0.53397-0.14994 1.0521-0.24126 1.1086-0.0491 0.03035-0.0893 0.27997-0.0893 0.55471 0 0.44485 0.0192 0.48917 0.17567 0.40493 0.42013-0.22622 1.1051-1.0426 1.4164-1.6881 0.37055-0.76838 0.63984-1.0231 0.87517-0.82778 0.0785 0.06514 0.1434 0.2823 0.14425 0.48258 0.00066 0.20028 0.0463 0.4319 0.10112 0.51472 0.16198 0.24491 0.49468-0.26204 0.49741-0.75789 0.001-0.2236 0.0458-0.45011 0.099-0.50335s0.10806-0.38178 0.12181-0.73008c0.0138-0.3483 0.0605-0.65524 0.10397-0.68207 0.0434-0.02684 0.0789-0.17898 0.0789-0.3381 0-0.47606 0.20419-0.47501 0.61602 0.0032 0.41271 0.47919 0.43925 0.46394 0.52927-0.30432 0.0291-0.24845 0.0812-0.63842 0.11573-0.8666 0.0391-0.25794 0.0213-0.44055-0.047-0.48274-0.14792-0.09142-0.14001-0.78872 0.0107-0.93939 0.38082-0.38081 0.68261 0.17692 0.68261 1.2615 0 1.0766-0.27435 2.5976-0.51937 2.8793-0.0456 0.05245-0.0829 0.21838-0.0829 0.36874s-0.11887 0.41464-0.26415 0.5873c-0.21971 0.2611-0.31262 0.30329-0.55211 0.25068-0.20425-0.04486-0.28808-0.02445-0.28838 0.07021-0.00066 0.26712-0.5002 1.1092-0.87259 1.4714-0.5332 0.51866-0.88206 0.68711-1.081 0.52198-0.20422-0.16949-0.19423-0.2715 0.0467-0.47786 0.26839-0.22981 0.27447-0.62968 0.009-0.56012-0.10575 0.02765-0.21923 0.15769-0.25218 0.28897-0.0329 0.13128-0.15546 0.32772-0.27225 0.43653-0.16376 0.15256-0.19607 0.2623-0.14121 0.4796 0.0794 0.31465 0.23346 1.3245 0.31858 2.0887 0.0307 0.27605 0.0969 0.54483 0.14704 0.59728 0.0501 0.05245 0.0911 0.26436 0.0911 0.4709s0.0451 0.40345 0.10038 0.43757c0.0553 0.03412 0.10039 0.21481 0.10039 0.40153s0.0451 0.36741 0.10038 0.40153c0.16893 0.1044 0.11167 0.9422-0.0913 1.3353-0.45308 0.87767-0.45575 0.89095-0.26418 1.3158 0.0982 0.21776 0.3059 0.51794 0.46155 0.66707 0.28688 0.27484 1.3087 0.74607 1.6196 0.74692 0.0934 0.000301 0.19472 0.04087 0.22524 0.09024 0.0305 0.04938 0.22517 0.11461 0.43255 0.14497 1.3276 0.1943 1.815 0.29037 2.0628 0.40656 0.33642 0.15772 1.2288 0.09512 1.5402-0.10804zm-4.029-23.521c-0.0341-0.05521-0.34546-0.10038-0.69187-0.10038-0.34642 0-0.65981-0.02998-0.69645-0.06661-0.0366-0.03664-0.29705-0.14776-0.57871-0.24695-0.61141-0.21532-1.3958-0.82932-1.3958-1.0926 0-0.27981 0.15072-0.32127 0.35348-0.09722 0.0987 0.10912 0.23708 0.1984 0.3074 0.1984 0.0703 0 0.19685 0.06901 0.28119 0.15335 0.20964 0.20963 1.3075 0.54934 1.7754 0.54934 0.21039 0 0.41045 0.04517 0.44457 0.10038 0.11172 0.18078 1.1876 0.11463 1.6326-0.10038 0.22855-0.11042 0.47662-0.20077 0.55127-0.20077 0.25757 0 0.77742-0.64424 0.77742-0.96344 0-0.16576 0.0428-0.3443 0.0953-0.39675 0.0524-0.05245 0.10886-0.41157 0.12548-0.79804 0.0166-0.38648 0.0754-0.70268 0.13059-0.70268 0.14454 0 0.18482 1.7561 0.0462 2.0151-0.0621 0.116-0.0979 0.34247-0.0795 0.50326 0.0318 0.27838 0.0633 0.29605 0.66162 0.36976 0.4945 0.06092 0.69468 0.04307 0.94008-0.08383 0.60337-0.31202 0.66342 0.19348 0.0662 0.55758-0.43384 0.26451-1.1356 0.26494-1.5342 0.0009-0.37966-0.25144-0.73257-0.25144-1.054 0-0.13802 0.10797-0.36654 0.19731-0.50782 0.19853-0.14127 0.0012-0.34455 0.06855-0.45172 0.14962-0.22071 0.16693-1.1042 0.20628-1.1987 0.05338zm2.4934-4.286c-0.42465-0.41931-0.60595-0.74377-0.66951-1.1982-0.0652-0.46581 0.12837-0.83998 0.43445-0.83998 0.10404 0 0.21707-0.04517 0.25119-0.10038 0.0829-0.13416 0.85756-0.12747 1.4123 0.0122 0.64688 0.16289 0.68616 0.43045 0.19862 1.3529-0.32064 0.60666-0.4362 0.73669-0.74427 0.83745-0.20058 0.0656-0.41713 0.14135-0.48121 0.16832-0.0641 0.02697-0.24478-0.0776-0.40153-0.23238zm1.4604-3.2929c-0.3346-0.18185-0.4616-0.52478-0.52605-1.4204-0.0379-0.52585-0.0141-0.76738 0.0891-0.90345 0.0774-0.10214 0.14214-0.282 0.14389-0.39967 0.001-0.11767 0.14872-0.35622 0.32657-0.53011 0.26801-0.26203 0.37456-0.30491 0.62241-0.25047 0.43391 0.0953 0.86111 0.56064 0.86111 0.93798 0 0.17063 0.0544 0.39732 0.12087 0.50377 0.0946 0.1515 0.0931 0.30928-0.007 0.72642-0.32116 1.3385-0.84165 1.7649-1.6309 1.336zm-6.9498-0.13285c-0.83352-0.49128-0.71357-2.9794 0.15954-3.3089 0.22101-0.08343 0.36121-0.08476 0.51592-0.0049 0.37438 0.1932 0.56378 0.41008 0.56378 0.64557 0 0.12621 0.0452 0.25739 0.10038 0.29152 0.13723 0.08481 0.11863 0.9011-0.0337 1.4784-0.13279 0.50326-0.60149 1.0863-0.86344 1.074-0.0863-0.004-0.28541-0.08309-0.44249-0.17567zm-2.1378-4.4856c-0.0987-0.25729 0.22211-0.60619 0.68129-0.74085 1.1788-0.3457 1.1853-0.34674 1.4457-0.2281 0.14059 0.06406 0.36704 0.11647 0.50322 0.11647s0.34862 0.05219 0.4721 0.11598c0.12347 0.06379 0.29225 0.14777 0.37507 0.18661 0.0828 0.03885 0.15057 0.13346 0.15057 0.21026 0 0.16708-0.48228 0.16467-1.1544-0.0057-0.83796-0.21248-1.669-0.05586-2.1532 0.4058-0.13956 0.13305-0.25443 0.11138-0.32036-0.06042zm12.012-0.19754c-0.29805-0.35913-1.0983-0.58799-1.2697-0.36313-0.0992 0.13006-0.13423 0.12756-0.28194-0.02015-0.15801-0.15801-0.19987-0.1529-0.66074 0.08064-0.41957 0.21261-0.53027 0.23192-0.75159 0.13108-0.34022-0.15502-0.30761-0.51918 0.0508-0.56716 0.13803-0.01848 0.29387-0.07494 0.34632-0.12548 0.0525-0.05053 0.26702-0.09188 0.47682-0.09188s0.38145-0.04517 0.38145-0.10038c0-0.13671 0.43479-0.12666 0.75087 0.01736 0.19242 0.08767 0.28744 0.08871 0.37209 0.0041 0.1711-0.1711 1.1062 0.63611 1.0656 0.91979-0.0374 0.26122-0.30542 0.32558-0.47997 0.11527zm-30.208 13.206c0.16139-0.16138 0.29343-0.34208 0.29343-0.40153s0.0565-0.10994 0.12547-0.11218c0.069-0.0022 0.27671-0.13344 0.46154-0.29155 0.39559-0.3384 0.37049-0.58456-0.0933-0.91481-0.16362-0.11651-0.39289-0.40001-0.50949-0.63-0.1166-0.23-0.34143-0.56656-0.49963-0.74791-0.15821-0.18136-0.28765-0.39772-0.28765-0.48082s-0.0891-0.32583-0.1981-0.5394c-0.10896-0.21358-0.22783-0.57416-0.26415-0.80129-0.0363-0.22713-0.10527-0.43722-0.15323-0.46686-0.048-0.02964-0.0872-0.12117-0.0872-0.20339 0-0.08223-0.0892-0.33415-0.19826-0.55984-0.10903-0.22568-0.18086-0.43846-0.15961-0.47284 0.0213-0.03438-0.006-0.26539-0.0608-0.51336-0.0547-0.24797-0.12967-0.67672-0.16662-0.95277-0.16782-1.2535-1.0208-0.17968-1.0208 1.2851 0 0.71897-0.003 0.72894-0.32624 0.89474-0.17943 0.09222-0.41222 0.18154-0.51729 0.1985-0.10508 0.01696-0.26996 0.18894-0.36642 0.38218-0.14403 0.28852-0.16067 0.46791-0.0931 1.0032 0.0503 0.39884 0.0448 0.69712-0.0143 0.76837-0.0532 0.06405-0.0649 0.245-0.026 0.40212 0.0855 0.34554 1.0179 1.7412 1.1632 1.7412 0.0569 0 0.24966 0.12422 0.42842 0.27605 0.17875 0.15183 0.45322 0.3664 0.60993 0.47682s0.35396 0.27982 0.43833 0.37644c0.0844 0.09662 0.22871 0.17567 0.32075 0.17567 0.092 0 0.27397 0.08884 0.40431 0.19743 0.3221 0.26833 0.45393 0.25356 0.79681-0.08932zm32.913-9.8398c0.0885-0.05598 0.21493-0.0545 0.32382 0.0038 0.13153 0.07039 0.31245 0.02565 0.68591-0.16962 0.55612-0.29078 0.73994-0.5215 0.59634-0.74847-0.13099-0.20705-0.11612-0.39613 0.0312-0.39613 0.18911 0 0.39318-0.54493 0.42463-1.1339 0.0154-0.28733 0.0607-0.60147 0.10067-0.69809 0.0514-0.12411 0.026-0.17567-0.0866-0.17567-0.0911 0-0.18735-0.11821-0.22468-0.27605-0.0359-0.15183-0.14411-0.3664-0.24046-0.47682-0.0964-0.11042-0.20589-0.37272-0.2434-0.58288-0.0501-0.2807-0.21861-0.53381-0.63487-0.95364-0.31166-0.31434-0.55717-0.60666-0.54556-0.6496 0.0116-0.04294-0.0471-0.10424-0.13041-0.13622-0.0833-0.03198-0.15151-0.10656-0.15151-0.16575 0-0.12458-0.63441-0.72668-0.85479-0.81125-0.082-0.03146-0.14904-0.17154-0.14904-0.3113s-0.0565-0.25439-0.12547-0.25474c-0.069-0.000334-0.19638-0.12457-0.28302-0.27605-0.22685-0.39661-0.99745-0.76012-1.3374-0.63088-0.34789 0.13227-0.33075 0.24857 0.10147 0.68844 0.67946 0.69151 0.74095 0.77822 0.74095 1.0449 0 0.14663 0.0452 0.29452 0.10039 0.32864 0.0552 0.03412 0.10083 0.16101 0.10137 0.28198 0.00033 0.12097 0.11498 0.46485 0.25431 0.76418 0.25923 0.55688 0.38622 0.98071 0.55875 1.8649 0.0539 0.27605 0.1241 0.56968 0.15608 0.65249 0.032 0.08282 0.0775 0.51195 0.10111 0.95364 0.0236 0.44168 0.0851 0.93175 0.13658 1.089 0.0587 0.17927 0.0577 0.35312-0.003 0.46596-0.0672 0.12565-0.0494 0.27422 0.0593 0.49201 0.16112 0.32296 0.28841 0.37441 0.53708 0.21709z"/>
 </g>
</svg>
