<?xml version="1.0" encoding="UTF-8" standalone="no"?>
<!-- Created with Inkscape (http://www.inkscape.org/) -->
<svg id="svg2" xmlns:rdf="http://www.w3.org/1999/02/22-rdf-syntax-ns#" xmlns="http://www.w3.org/2000/svg" height="54" width="99" version="1.1" xmlns:cc="http://creativecommons.org/ns#" xmlns:dc="http://purl.org/dc/elements/1.1/">
 <metadata id="metadata7">
  <rdf:RDF>
   <cc:Work rdf:about="">
    <dc:format>image/svg+xml</dc:format>
    <dc:type rdf:resource="http://purl.org/dc/dcmitype/StillImage"/>
    <dc:title/>
   </cc:Work>
  </rdf:RDF>
 </metadata>
 <g id="g3659">
  <g id="g3675">
   <g id="g3764">
    <g id="g3849">
     <g id="g3916">
      <g id="g3970">
       <g id="g4007">
        <g id="g4044">
         <g id="g4081">
          <g id="g4118">
           <g id="g4155">
            <g id="g4192">
             <g id="g4578">
              <g id="g4266">
               <g id="g4303">
                <g id="g4340">
                 <g id="g4377">
                  <g id="g4414">
                   <g id="g3542">
                    <rect id="rect2990" opacity="0" height="54" width="99" y="0" x="0"/>
                   </g>
                  </g>
                 </g>
                </g>
               </g>
              </g>
              <path id="path4576" d="m52.952 49.205c-0.33886-0.4083-1.7862-1.0658-2.0235-0.91916-0.10707 0.06618-0.19468-0.01677-0.19468-0.18435 0-0.23956-0.11543-0.27932-0.54009-0.18605-0.46619 0.10239-0.61005 0.02691-1.0513-0.55158-0.44248-0.58013-0.58429-0.65415-1.0551-0.55074-0.47308 0.10391-0.64904 0.0098-1.3508-0.72263-0.44378-0.46315-1.0857-0.98478-1.4265-1.1592-0.93473-0.47833-1.9996-1.3221-3.0675-2.4305-0.80763-0.83826-1.0737-1.0018-1.6736-1.0286-0.39228-0.01749-0.83875-0.05044-0.99215-0.07321-0.15341-0.02277-0.38061-0.0503-0.5049-0.06116-0.12428-0.01088-0.50836-0.26771-0.85351-0.57076-0.52994-0.46529-0.73308-0.53386-1.3062-0.44086-0.58551 0.09502-0.78859 0.02001-1.4802-0.54667-0.44084-0.36124-1.1147-0.78766-1.4975-0.9476-0.69177-0.28904-0.69432-0.29407-0.41782-0.82876 0.19178-0.37085 0.27837-1.1092 0.2788-2.377 0.00034-1.0115 0.0879-2.1314 0.19465-2.4887 0.10673-0.35728 0.19404-1.378 0.19404-2.2683 0-1.1798 0.12075-2.0121 0.44528-3.0694 0.2449-0.79789 0.49251-1.8349 0.55025-2.3045 0.0577-0.46957 0.49445-1.6829 0.97048-2.6963s0.93184-2.0935 1.0129-2.4004c0.0811-0.30682 0.48852-1.5201 0.90543-2.6963 0.41691-1.1761 0.71392-2.2787 0.66004-2.4502-0.0539-0.17147 0.0181-0.58986 0.15996-0.92975 0.35705-0.85545 0.6501-2.6479 0.84808-5.1874 0.25581-3.2812 0.76333-3.6867 2.4849-1.9854 1.1449 1.1314 2.0019 2.6798 2.474 4.4701 0.1831 0.69436 0.39689 1.302 0.47508 1.3503 0.30786 0.19027 2.0422-2.986 2.3912-4.3793 0.19888-0.79391 0.9305-2.7668 1.3619-3.6725 0.10961-0.23011 0.36215-0.41839 0.56119-0.41839 0.33527 0 0.35007 0.0787 0.20102 1.0692-0.20255 1.346-0.13955 3.9246 0.11937 4.8861 0.10848 0.4029 0.36177 0.82058 0.56284 0.92819 0.2729 0.14606 0.36708 0.39434 0.37149 0.9794 0.003 0.43106 0.12877 0.94618 0.27893 1.1447 0.15015 0.19852 0.27301 0.57624 0.27301 0.83936 0 0.37089 0.41127 0.84535 1.83 2.1112 1.0065 0.89803 2.0094 1.7584 2.2287 1.912 0.24356 0.1706 0.55119 0.7813 0.79059 1.5695 0.382 1.2577 0.42312 1.3103 1.6298 2.0869 0.68085 0.43816 1.5308 0.95341 1.8887 1.145 0.35795 0.19161 1.5713 0.95329 2.6963 1.6926 1.125 0.73934 2.3068 1.4772 2.6262 1.6396 0.88251 0.44884 0.89198 0.90705 0.0532 2.5753-1.0564 2.101-1.9644 2.9357-3.2028 2.9444-0.22346 0.0015-0.5318 0.08269-0.68521 0.18028-0.237 0.15076-0.24153 0.23773-0.0302 0.57863 0.23407 0.37749 0.77396 2.195 0.77396 2.6054 0 0.10332-0.0907 0.13182-0.20147 0.06333-0.24284-0.15008-1.2861-2.3614-1.2861-2.7261 0-0.36085-0.38277-0.70443-0.78477-0.70443-0.31919 0-0.31633 0.04344 0.0501 0.76183 0.40194 0.78787 0.3667 1.548-0.0524 1.1289-0.1193-0.1193-0.30482-0.48892-0.41229-0.82138-0.15461-0.47834-0.31179-0.6176-0.75324-0.66737-0.30682-0.03459-0.90664-0.34838-1.333-0.69731-0.90735-0.74268-0.99143-0.7634-0.99143-0.24444 0 0.22718 0.49935 0.90722 1.1962 1.629 0.65791 0.68148 1.3599 1.6147 1.56 2.0739 0.20007 0.45915 0.66591 1.1232 1.0352 1.4756 0.3693 0.35245 0.67145 0.77879 0.67145 0.94742 0 0.37859 0.52493 0.86711 1.0227 0.9518 0.34461 0.05862 0.36891-0.02885 0.33117-1.1919-0.0309-0.95093 0.0202-1.2552 0.21075-1.2552 0.29662 0 0.47474 0.56806 0.47827 1.5253 0.004 0.92539-0.34213 1.6358-0.79565 1.6358-0.61867 0-1.6116-0.74371-1.9942-1.4937-0.4344-0.85149-0.50089-0.89761-1.732-1.2012-0.52866-0.13039-1.5469-0.46209-2.2628-0.73713-1.3964-0.53645-2.3291-0.84478-2.5556-0.84478-0.21358 0-0.16972 0.59827 0.13182 1.798 0.43149 1.7168 0.82164 6.8268 0.63598 8.33-0.0986 0.7987-0.09 1.5473 0.0226 1.9525 0.2413 0.86859 0.23409 0.93604-0.10013 0.93604-0.15662 0-0.34045-0.14644-0.4085-0.32541-0.0681-0.17898-0.31647-0.47792-0.55202-0.66432s-0.42828-0.50282-0.42828-0.70315-0.12551-0.41241-0.27892-0.47128c-0.53085-0.20371-0.30944-1.3982 0.43146-2.3277 0.13504-0.16941 0.21872-0.5878 0.18595-0.92975-0.0527-0.55073-0.12857-0.62839-0.6639-0.68-0.56659-0.05463-0.88413-0.40661-0.36682-0.40661 0.36478 0 1.2501-1.1036 1.2501-1.5583 0-0.22241-0.11503-0.56944-0.25562-0.77117-0.14058-0.20173-0.31366-0.71278-0.38462-1.1356-0.0709-0.42287-0.43707-1.3753-0.8136-2.1165-0.62245-1.2254-0.75823-1.372-1.4959-1.6161-1.0219-0.33808-1.5462-0.94182-2.1508-2.4762-0.57677-1.464-0.57792-1.483-0.0899-1.483 0.26042 0 0.45732-0.18349 0.59862-0.55785 0.11581-0.30682 0.29682-0.55713 0.40224-0.55626 0.48885 0.0041 1.9582-0.85784 1.9582-1.1487 0-0.17351 0.15388-0.36431 0.34195-0.424 0.33004-0.10475 1.4501 0.26121 1.7631 0.57606 0.0839 0.08442 0.29311 0.15456 0.46487 0.15586 0.17683 0.0013 0.33698 0.17563 0.36923 0.4018 0.10275 0.72088 1.6991 0.87162 2.17 0.20491 0.28-0.39642 0.26835-0.44031-0.22189-0.83585-0.28457-0.22961-0.6255-0.41788-0.75762-0.41839-0.13212-0.000558-0.42096-0.16932-0.64188-0.37513-0.36915-0.34391-0.37744-0.39843-0.10243-0.67344 0.275-0.275 0.35328-0.258 0.96688 0.21001 0.51693 0.39429 0.78318 0.48035 1.1794 0.38126 0.81328-0.20337 1.4338-0.24341 1.5345-0.09901 0.0511 0.07334 0.30152 0.19854 0.5564 0.27821 0.40503 0.12661 0.43318 0.10843 0.22341-0.14433-0.16142-0.1945-0.17617-0.32865-0.0451-0.4097 0.28858-0.17835 0.23646-0.47046-0.0839-0.47046-0.15341 0-0.27893-0.08368-0.27893-0.18595s0.0837-0.18595 0.18595-0.18595c0.10228 0 0.18595-0.08965 0.18595-0.19923 0-0.20846-0.47204-0.74864-0.64418-0.73716-0.4918 0.03278-0.7485-0.1201-1.6592-0.98821-0.9622-0.91716-1.2772-1.4225-0.88656-1.4225 0.0864 0 0.3068 0.16538 0.48973 0.36752 0.18292 0.20213 0.4087 0.32048 0.50173 0.26298 0.093-0.05749 0.44695 0.10737 0.78651 0.36636 0.33955 0.25899 0.85893 0.53043 1.1542 0.60321 0.29523 0.07277 0.70968 0.24414 0.921 0.38082 0.32453 0.2099 0.44008 0.20533 0.7438-0.02942 0.35489-0.27429 0.35473-0.28185-0.0123-0.5786-0.20454-0.16537-1.1694-0.68836-2.1442-1.1622-0.97479-0.47383-2.0162-1.0538-2.3142-1.2887-0.32199-0.25387-0.73464-0.40478-1.0169-0.3719-0.42625 0.04965-0.47504 0.13653-0.47504 0.84586 0 0.6443-0.0634 0.79049-0.34282 0.79029-0.18855-0.000132-0.38386 0.15671-0.43402 0.34853-0.15448 0.59072-2.4907 0.79473-3.0724 0.2683-0.30566-0.27662-0.45266-0.28522-1.2745-0.07458-1.049 0.26886-3.5249 0.11092-3.7522-0.23936-0.40277-0.62061 0.5606-2.5797 1.5597-3.1718 0.55669-0.32991 1.9321-0.39391 2.1148-0.0984 0.22404 0.3625-0.31062 0.7163-1.1675 0.77256-0.90458 0.0594-1.2547 0.40742-0.61429 0.61067 0.26471 0.08402 0.38213 0.27999 0.38213 0.63779 0 0.28408 0.16399 0.66491 0.36442 0.8463 0.35067 0.31735 0.39453 0.31117 1.1622-0.16364 0.82076-0.50766 2.2448-1.5691 2.7658-2.0615 0.16198-0.15311 0.4172-0.27838 0.56714-0.27838 0.34155 0 0.71891-0.36612 0.71891-0.6975 0-0.13817-0.27861-0.36764-0.61914-0.50992-1.1249-0.47002-1.3513-1.269-0.23982-0.84647 0.64296 0.24446 0.86116-0.1333 0.32689-0.56593-0.22292-0.1805-0.53174-0.63082-0.68629-1.0007s-0.41028-0.72213-0.56829-0.78276c-0.15802-0.06063-0.36083-0.30365-0.4507-0.54004-0.30809-0.81034-1.0044-1.0757-2.9453-1.1226l-1.7905-0.0432-0.51137 1.106c-0.42304 0.91494-0.51136 1.3628-0.51136 2.5932v1.4873l-0.51136-0.12161c-0.28125-0.06689-0.6343-0.18666-0.78455-0.26617-0.39439-0.2087-1.3074 0.31756-1.3074 0.7536 0 0.23477 0.2551 0.49349 0.72087 0.7311 0.39648 0.20227 0.77268 0.50277 0.836 0.66778 0.12992 0.33858-0.74196 2.3191-1.0209 2.3191-0.21995 0-0.013-1.2898 0.26264-1.6364 0.13725-0.17264 0.10786-0.32613-0.10281-0.53679-0.37808-0.37809-0.83549-0.20348-0.91377 0.3488-0.0335 0.23637-0.18643 0.42976-0.33984 0.42976-0.20269 0-0.26297-0.16517-0.22054-0.60434 0.0434-0.4491-0.0163-0.60434-0.23244-0.60434-0.16835 0-0.29082 0.15907-0.29082 0.37774 0 0.20776-0.1302 0.4277-0.28933 0.48876-0.48161 0.18481-1.0172-0.603-1.2296-1.8084-0.21571-1.2246-0.37779-1.3348-0.37779-0.25688 0 0.51708-0.0868 0.70819-0.35331 0.77789-0.19432 0.05082-0.3533 0.11198-0.3533 0.13593 0 0.2292 0.50486 1.4065 0.76015 1.7726 0.17829 0.25568 0.38232 0.66454 0.4534 0.90858 0.11902 0.40863 0.0891 0.43363-0.37867 0.31623-0.549-0.13779-0.53928-0.20942-0.15828 1.1672 0.10403 0.37592 0.0684 0.42265-0.24641 0.32274-0.44412-0.14096-0.85471 0.55826-0.91729 1.5621-0.0223 0.35796-0.0987 0.92278-0.16975 1.2552-0.14723 0.68887 0.12546 0.80631 0.68869 0.29659 0.42386-0.38359 0.4339-0.12026 0.0335 0.8803-0.18929 0.47308-0.23744 0.8123-0.1259 0.88703 0.0993 0.06655 0.24086 0.28365 0.3145 0.48245 0.12164 0.32835 0.16593 0.30879 0.48364-0.21364 0.19235-0.3163 0.37703-0.81296 0.41039-1.1037 0.073-0.6359 0.71148-0.87796 0.71148-0.26972 0 0.21025 0.38304 0.78121 0.8512 1.2688 0.69494 0.72379 0.81497 0.94492 0.65384 1.2046-0.10855 0.17493-0.14793 0.44689-0.0875 0.60434 0.0663 0.17268 0.008 0.28628-0.14729 0.28628-0.14142 0-0.42233-0.34999-0.62423-0.77776-0.20189-0.42777-0.54923-0.84119-0.77186-0.91872-0.5506-0.19175-0.81671 0.16437-0.57294 0.76673 0.10349 0.25568 0.17092 0.82512 0.14987 1.2654-0.0228 0.47556 0.0809 0.98243 0.25532 1.2486 0.42428 0.64754 0.36543 0.83308-0.26425 0.83308-0.87059 0-1.6898 1.0398-1.1042 1.4017 0.10857 0.06711 0.27386 0.32308 0.36729 0.56883 0.0997 0.26217 0.3206 0.44681 0.5346 0.44681 0.27556 0 0.37897 0.14774 0.42299 0.60434 0.0488 0.50571 0.19367 0.67262 0.88796 1.0227 0.45633 0.23011 1.063 0.41839 1.3481 0.41839 0.28515 0 0.51845 0.08208 0.51845 0.18241 0 0.10032 0.23012 0.23886 0.51137 0.30785s0.69564 0.32162 0.92087 0.56139c0.22523 0.23978 0.59519 0.43596 0.82213 0.43596 0.22695 0 0.54474 0.11065 0.7062 0.24588 0.4146 0.34726 1.7944 0.75514 2.0403 0.60314 0.11317-0.06995 0.20576-0.32649 0.20576-0.5701 0-1.0191 0.80508-0.68871 1.1136 0.45701 0.24415 0.90672 0.81784 1.4497 1.1982 1.134 0.22208-0.18431 0.43256-0.11724 1.123 0.3578 0.46734 0.32154 0.80122 0.6631 0.74194 0.75901-0.18512 0.29952-0.56186 0.19247-1.0131-0.2879-0.37355-0.39762-0.54063-0.44569-1.1946-0.34367-0.89189 0.13914-1.0326 0.30028-1.0364 1.1871-0.002 0.36307-0.10326 0.76054-0.22598 0.88326-0.33544 0.33544 0.55657 0.2894 1.2336-0.06368 0.76785-0.40041 1.035-0.23073 1.035 0.65749 0 0.63342 0.0745 0.78255 0.46488 0.93098 0.25568 0.09721 0.46487 0.31031 0.46487 0.47356 0 0.16324 0.1046 0.4061 0.23244 0.53967s0.35796 0.43072 0.51136 0.66033c0.15341 0.22961 0.38353 0.52676 0.51137 0.66033 0.26858 0.28063 0.30754 0.64132 0.0693 0.64132-0.0897 0-0.27331-0.13271-0.40793-0.29491zm-5.0074-5.8187c0-0.26876-0.52694-0.62167-0.73565-0.49268-0.37608 0.23243-0.20126 0.65586 0.27078 0.65586 0.25568 0 0.46487-0.07343 0.46487-0.16318zm-9.3789-5.0622c0.0696-0.11259-0.0501-0.38129-0.26589-0.59711-0.3029-0.3029-0.44276-0.34204-0.61321-0.17159s-0.14314 0.30664 0.11973 0.59711c0.38482 0.42522 0.57593 0.4684 0.75937 0.17159zm0.26733-3.7003c0-0.20455-0.0837-0.3719-0.18595-0.3719-0.10227 0-0.18595 0.16736-0.18595 0.3719s0.0837 0.3719 0.18595 0.3719c0.10228 0 0.18595-0.16736 0.18595-0.3719zm16.791-1.605c0.26898-0.26898-0.27308-0.81233-0.81039-0.81233-0.42739 0-0.59835-0.11163-0.7395-0.48287-0.10097-0.26558-0.34993-0.52637-0.55324-0.57954s-0.36966-0.20347-0.36966-0.33401c0-0.247-0.39757-0.46308-0.85199-0.46308-0.14504 0-0.26372 0.15762-0.26372 0.35026 0 0.84579 3.075 2.8351 3.5885 2.3216zm-5.3353-1.2929c-0.13583-0.35396-0.41805-0.33291-0.56188 0.04191-0.0644 0.16782 0.0312 0.52345 0.21254 0.79029l0.32963 0.48516 0.0604-0.52707c0.0332-0.28989 0.0149-0.64552-0.0407-0.79029zm0.91005-1.7508c0.0632-0.10227 0.0263-0.18595-0.082-0.18595-0.10831 0-0.19693 0.08368-0.19693 0.18595s0.0369 0.18595 0.082 0.18595 0.13372-0.08368 0.19693-0.18595zm10.506-1.6858c0-0.109-0.0821-0.35166-0.18254-0.53926-0.1352-0.25261-0.11189-0.3682 0.0898-0.44561 0.16198-0.06216 0.22532-0.22716 0.15628-0.40709-0.0968-0.25232-0.18784-0.21488-0.54803 0.2254-0.6697 0.81862-0.57137 1.2014 0.34499 1.3432 0.0767 0.01186 0.13946-0.06761 0.13946-0.1766zm-24.545-0.35968c0.15886-0.29683 0.14142-0.3719-0.0864-0.3719-0.1615 0-0.28547 0.1615-0.28547 0.3719 0 0.20454 0.0389 0.3719 0.0864 0.3719s0.17599-0.16736 0.28546-0.3719zm27.521-0.63747c0-0.37387-0.47354-0.4879-0.85817-0.20666-0.28324 0.20711-0.29772 0.29272-0.0915 0.54117 0.28098 0.33856 0.94969 0.10302 0.94969-0.33452zm-4.2166 0.19092c0.0594-0.15495-0.0456-0.29867-0.25903-0.35449-0.39915-0.10438-0.40596-0.09549-0.24616 0.32096 0.13969 0.36402 0.37245 0.37946 0.50519 0.03353zm1.0555-2.0528c0-0.29615-0.33738-0.57235-0.50022-0.40952-0.15296 0.15297 0.0858 0.67747 0.30844 0.67747 0.10548 0 0.19178-0.12058 0.19178-0.26795zm-9.1686-3.401c-0.0472-0.18092-0.0888-0.07792-0.0926 0.2289-0.004 0.30682 0.0348 0.45485 0.0857 0.32895 0.051-0.1259 0.054-0.37693 0.007-0.55785zm-10.418-2.5738c0.0617-0.16079-0.0664-0.53395-0.28476-0.82925-0.21833-0.29529-0.39695-0.76305-0.39695-1.0394 0-0.2764-0.14243-0.95437-0.3165-1.5066-0.25139-0.7975-0.27098-1.0769-0.0952-1.3583 0.15546-0.24892 0.16663-0.49797 0.0376-0.83742-0.10102-0.26572-0.18368-0.78729-0.18368-1.159 0-0.41511-0.0659-0.60775-0.17091-0.49926-0.14802 0.153-0.35682 1.0112-0.70387 2.893-0.0525 0.28457 0.0714 0.8002 0.29969 1.2478 0.21403 0.41952 0.38913 0.89162 0.38913 1.0491s0.0837 0.28633 0.18596 0.28633c0.10227 0 0.18595 0.40444 0.18595 0.89876s0.0558 0.95455 0.12396 1.0227c0.2314 0.2314 0.81693 0.12534 0.92964-0.16838zm-3.484-0.77687c-0.0114-0.44642-0.032-0.46413-0.16268-0.13946-0.0823 0.20454-0.11331 0.43466-0.0689 0.51136 0.15751 0.27227 0.24451 0.13258 0.23161-0.3719zm4.9601-2.7854c-0.18902-0.18902-0.34498 0.09556-0.18989 0.3465 0.11715 0.18956 0.16095 0.18971 0.22394 0.000744 0.0431-0.1292 0.0278-0.28546-0.034-0.34725zm1.8377-0.78326c0.12627-0.5749-0.0618-1.0888-0.54531-1.4901-0.25425-0.21101-0.28907-0.13819-0.28907 0.60442 0 0.46439-0.0508 0.9767-0.11288 1.1385-0.0846 0.2204 0.005 0.29413 0.35713 0.29413 0.36894 0 0.49583-0.1176 0.59013-0.54694zm-2.136-1.7665c0-0.14737-0.0779-0.31609-0.1731-0.37493-0.22107-0.13663-0.44342 0.21157-0.29177 0.45693 0.17099 0.27667 0.46487 0.22483 0.46487-0.082zm5.618-1.6763c-0.0532-0.64127-0.002-1.1305 0.13457-1.2955 0.23983-0.28897 0.0857-1.595-0.18817-1.595-0.34695 0-0.5437 0.78956-0.5437 2.182 0 0.86171 0.0886 1.5513 0.21573 1.6784 0.36643 0.36644 0.47046 0.102 0.38157-0.96994zm0.81723 0.34851c-0.0621-0.16177-0.11287-0.33407-0.11287-0.38288s-0.08-0.03928-0.17783 0.02116c-0.21589 0.13342-0.0425 0.65584 0.21761 0.65584 0.10228 0 0.13517-0.13236 0.0731-0.29413zm-6.8987-1.7498c-0.16927-0.18704-0.276-0.56322-0.24406-0.86028 0.0343-0.31894-0.0353-0.53867-0.1757-0.55512-0.12784-0.014975-0.31405-0.037686-0.41378-0.050467-0.11625-0.014901-0.11351-0.20169 0.008-0.52032 0.14553-0.38278 0.12558-0.56048-0.0867-0.77282-0.24369-0.24369-0.29072-0.21292-0.40452 0.26464-0.0708 0.29721-0.24441 0.67399-0.38575 0.83729-0.40544 0.46845-0.0791 1.6894 0.52992 1.9829 0.26745 0.12887 0.68225 0.54726 0.92177 0.92975l0.4355 0.69544 0.0583-0.8093c0.0397-0.55063-0.0379-0.91553-0.24253-1.1417zm0.83256-0.51287c-0.007-0.33754-0.34429-0.64159-0.56239-0.5068-0.17821 0.11014-0.15221 0.20565 0.10773 0.39572 0.39403 0.28813 0.45859 0.3039 0.45466 0.11108zm6.0274 30.412c-0.29646-0.33764-0.70636-0.61389-0.91091-0.61389-0.25944 0-0.43414-0.19258-0.57775-0.63689-0.11322-0.35029-0.37353-0.69892-0.57848-0.77473-0.20494-0.07581-0.42347-0.27036-0.48562-0.43233-0.15243-0.39723-0.46165-0.37496-0.42943 0.03093 0.0142 0.17898-0.0997 0.32541-0.2531 0.32541-0.17694 0-0.35619-0.31301-0.49025-0.85604-0.11623-0.47082-0.32196-1.0566-0.45717-1.3017l-0.24583-0.44561-0.11525 0.55785c-0.0634 0.30682-0.0768 0.8298-0.0299 1.1622 0.0669 0.47368 0.0185 0.60434-0.22371 0.60434-0.41751 0-0.59273-0.52598-0.32047-0.96195 0.12188-0.19516 0.15836-0.45603 0.0811-0.57971-0.0773-0.12368-0.15888-0.34631-0.18129-0.49473-0.0224-0.14842-0.20371-0.39946-0.40288-0.55785-0.19917-0.1584-0.54404-0.70638-0.76637-1.2177-0.32984-0.75866-0.38163-1.1265-0.2814-1.999 0.13676-1.1904 0.35862-1.3488 0.71203-0.50827 0.12972 0.30852 0.28626 0.51055 0.34786 0.44895 0.17332-0.17332 0.56685 0.67977 0.62801 1.3614 0.0688 0.76675 0.19636 0.97581 0.5954 0.97581 0.19817 0 0.47559 0.34893 0.7459 0.93813 0.35062 0.76428 0.49688 0.91703 0.7892 0.82425 0.19735-0.06264 0.35883-0.03053 0.35883 0.07135s0.28399 0.48636 0.63108 0.85439c0.3471 0.36803 0.68505 0.9568 0.751 1.3084 0.12209 0.6508 0.45639 1.0837 0.40994 0.53082-0.0481-0.57212 0.40497-0.45854 0.53515 0.13417 0.0763 0.34747 0.27197 0.62749 0.47566 0.68075 0.40283 0.10534 0.6618 0.75099 0.40444 1.0083-0.11174 0.11174-0.37509-0.04908-0.71579-0.43711zm-3.5619-0.27255c-0.12848-0.0518-0.18857-0.16702-0.13355-0.25606 0.055-0.08904-0.021-0.45161-0.16896-0.80573-0.30875-0.73895-0.18113-1.0377 0.20674-0.48393 0.14401 0.20561 0.34506 0.32239 0.44678 0.25953 0.25966-0.16048 0.90531 0.46763 0.90531 0.8807 0 0.49319-0.34371 0.42244-0.59169-0.1218-0.27908-0.61252-0.56696-0.60207-0.33345 0.01211 0.26255 0.69058 0.2299 0.74139-0.33118 0.51518zm-3.5563-2.934c-0.11442-0.45438-0.20803-1.0053-0.20803-1.2242 0-0.49076 0.39635-0.40151 0.64351 0.14491 0.0982 0.2172 0.33677 0.43627 0.53007 0.48682 0.19329 0.05055 0.2954 0.18258 0.22691 0.2934-0.0685 0.11082-0.20243 0.15336-0.29764 0.09452-0.0952-0.05884-0.1731 0.14899-0.1731 0.46184 0 0.87758-0.47895 0.70681-0.72172-0.25732zm-1.2352 0.06833c-0.17019-0.53623 0.0463-0.68234 0.37235-0.25134 0.34619 0.45758 0.35084 0.63725 0.0165 0.63725-0.14651 0-0.32151-0.17366-0.38888-0.38591zm-0.042-1.2316c-0.28128-0.10538-0.29925-0.51354-0.0436-0.99114 0.22187-0.41458 0.74096-0.29156 0.74096 0.1756 0 0.43563-0.4152 0.92123-0.69731 0.81554zm4.5474-4.9373c-1.1104-1.5058-1.2488-1.813-0.81674-1.813 0.25672 0 1.2435 0.94086 1.2435 1.1856 0 0.07841 0.12551 0.26809 0.27892 0.4215s0.27893 0.39846 0.27893 0.54457c0 0.46606-0.52408 0.28578-0.98458-0.3387zm-3.2923-1.0268c0-0.19619 0.16561-0.50659 0.36803-0.68977 0.35163-0.31822 0.37365-0.31838 0.49446-0.0035 0.15207 0.39628-0.13526 0.90691-0.557 0.98991-0.19808 0.03899-0.30549-0.06529-0.30549-0.29659zm-2.8617-1.9814c0.13191-0.34376 0.69771-0.4019 0.58387-0.06-0.0426 0.12784-0.2166 0.25944-0.38674 0.29244-0.21573 0.04184-0.27539-0.02851-0.19713-0.23244zm9.4017-0.22692c0.036-0.18709 0.21858-0.36964 0.40568-0.40568 0.24565-0.04731 0.32196 0.029 0.27465 0.27466-0.036 0.18709-0.21858 0.36964-0.40568 0.40568-0.24565 0.04731-0.32196-0.029-0.27465-0.27466zm-8.9574-2.0254c0-0.36203 0.16736-0.98628 0.37191-1.3872 0.20454-0.40094 0.3719-0.88943 0.3719-1.0855 0-0.1961 0.12207-0.45785 0.27126-0.58167 0.41058-0.34075 0.55575 0.49684 0.2232 1.2877-0.20537 0.48842-0.21994 0.7423-0.0624 1.088 0.17909 0.39306 0.13939 0.50769-0.30961 0.89391-0.69822 0.60058-0.86622 0.55884-0.86622-0.21521zm14.424-0.4364c-0.056-0.09068 0.0152-0.2621 0.15843-0.38093 0.28984-0.24055 0.58665 0.03586 0.3864 0.35986-0.14229 0.23023-0.40918 0.24055-0.54483 0.02107zm-6.4842-6.9646c-0.0526-0.13712-0.0232-0.36653 0.0653-0.50981 0.21699-0.3511 0.64286 0.05877 0.48595 0.46768-0.13703 0.35709-0.42206 0.37887-0.55129 0.04212zm0.80793-2.2585c-0.77985-0.28155-0.91488-0.56649-0.34126-0.72015 1.1176-0.29937 2.2165 0.0279 2.0631 0.6144-0.11513 0.44026-0.69642 0.47596-1.7219 0.10574z"/>
             </g>
            </g>
           </g>
          </g>
         </g>
        </g>
       </g>
      </g>
     </g>
    </g>
   </g>
  </g>
 </g>
</svg>
