<?xml version="1.0" encoding="UTF-8" standalone="no"?>
<!-- Created with Inkscape (http://www.inkscape.org/) -->
<svg id="svg2" xmlns:rdf="http://www.w3.org/1999/02/22-rdf-syntax-ns#" xmlns="http://www.w3.org/2000/svg" height="45" width="67.5" version="1.1" xmlns:cc="http://creativecommons.org/ns#" xmlns:dc="http://purl.org/dc/elements/1.1/">
 <metadata id="metadata7">
  <rdf:RDF>
   <cc:Work rdf:about="">
    <dc:format>image/svg+xml</dc:format>
    <dc:type rdf:resource="http://purl.org/dc/dcmitype/StillImage"/>
    <dc:title/>
   </cc:Work>
  </rdf:RDF>
 </metadata>
 <g id="g4245">
  <g id="g4186">
   <rect id="rect2990" opacity="0" height="45" width="67.5" y="0" x="3.5527e-15"/>
  </g>
  <g id="g6020" transform="translate(-16.705 -73.364)">
   <path id="path4660" d="m80.325 117.85c-0.60071-0.3744-1.2573-0.93274-1.4592-1.2408-0.20182-0.30802-0.56977-0.61307-0.81766-0.6779-0.24789-0.0648-0.63409-0.44934-0.85822-0.85448-0.81622-1.4754-3.0264-4.3176-4.2156-5.421l-1.2188-1.1309-1.3102 0.14768c-5.2572 0.59258-5.457 0.53445-8.4402-2.4544-1.2451-1.2475-2.2102-2.0341-2.4411-1.9896-1.0094 0.19439-1.3069 3.0187-0.50433 4.7874 0.52509 1.1572 0.58774 1.8708 0.16872 1.9217-0.15932 0.0193-1.1761 0.0523-2.2594 0.0733-1.7616 0.0341-2.2108 0.14236-4.2499 1.0245-1.2541 0.5425-2.4272 0.92992-2.607 0.86092-0.55987-0.21484-1.024 0.11383-1.5123 1.0711l-0.47044 0.92215-1.0839-0.16253c-0.59614-0.0894-1.2859-0.27062-1.5328-0.40272-0.41506-0.22211-0.37144-0.3071 0.57934-1.1289 0.5655-0.48879 1.2567-0.89181 1.5359-0.89562 0.27926-0.004 0.57142-0.10996 0.64926-0.2359 0.36257-0.58666 2.3096-1.4337 3.9719-1.728 3.2964-0.58362 3.6277-0.89002 2.8375-2.6246-0.30971-0.67984-0.5139-1.663-0.556-2.677-0.084-2.0244-0.48176-2.5628-1.4492-1.962-1.9181 1.1912-2.4273 1.3589-4.8158 1.5852-3.6093 0.34199-5.2513 0.18628-8.8211-0.83647-0.3708-0.10623-0.61264 0.0287-0.9824 0.54795-0.40079 0.56286-0.76804 0.74403-2.0076 0.99041-0.83438 0.16585-1.6058 0.41202-1.7142 0.54705-0.10845 0.13503-0.53493 1.0617-0.94773 2.0593-0.87402 2.1122-0.78375 2.6207 0.58016 3.2679 1.029 0.48828 3.848 1.2882 4.5758 1.2984 0.28839 0.004 0.71969 0.1553 0.95844 0.3361 0.26263 0.19888 0.69406 0.27674 1.0922 0.1971 1.4455-0.28909 2.2543 0.36761 2.6166 2.1244 0.28167 1.3659-0.10792 1.4626-2.0243 0.5027-1.1589-0.58049-1.9129-0.82446-2.2738-0.7357-0.32514 0.0799-0.90888-0.0594-1.467-0.35022-0.88-0.45854-3.0918-1.348-5.5005-2.212-0.6036-0.21652-1.2146-0.53475-1.3577-0.70718-0.15045-0.18127-0.24875-1.0971-0.23306-2.1713 0.0266-1.8169 0.0148-1.8578-0.53225-1.8578-0.30766 0-1.0034 0.37101-1.5462 0.82446-0.54274 0.45345-1.2846 0.88402-1.6486 0.95682s-0.93071 0.45192-1.2594 0.8425c-0.81753 0.97159-1.7108 3.0623-1.7108 4.0042 0 0.56424-0.15216 0.8766-0.5559 1.1411-0.30576 0.20034-0.67571 0.64594-0.82213 0.99022-0.37574 0.8835-1.2901 1.4813-2.469 1.6142-0.7856 0.0885-1.043 0.0311-1.1537-0.25742-0.18471-0.48135 0.67347-1.8627 1.541-2.4804 0.37338-0.26587 0.67887-0.61804 0.67887-0.7826s0.42321-0.77998 0.94045-1.3676c1.0118-1.1494 2.5356-3.8731 2.5356-4.532 0-0.49531 1.0609-1.5385 1.8786-1.8473 0.69296-0.26169 2.7958-1.6032 3.7523-2.3937 0.86542-0.71527 1.1248-2.7074 0.50795-3.9004-0.47151-0.91181-1.0419-3.4566-1.038-4.6306 0.005-1.3538 0.56007-2.9748 2.1763-6.3509 1.5553-3.249 1.9762-4.4932 1.9866-5.8733 0.007-0.96077-0.48713-0.99309-1.1411-0.07462-0.26573 0.37319-0.84719 0.79867-1.2921 0.94551-0.91461 0.30185-1.2246 0.75614-1.461 2.1409l-0.16431 0.96251-1.2122-0.02317c-0.6667-0.01275-1.3094-0.0336-1.4283-0.04635-0.43858-0.04703-0.49162-0.94847-0.0995-1.6917 0.28946-0.54869 0.41534-1.3866 0.44558-2.9662 0.0232-1.2108 0.15903-2.4929 0.30188-2.849 0.14285-0.35612 0.32707-0.92967 0.40939-1.2746 0.0823-0.34488 0.24871-0.75303 0.36975-0.90699 0.14475-0.18412 0.0545-0.72249-0.26369-1.5729-0.26607-0.71114-0.48377-1.3934-0.48377-1.516 0-0.38744 0.60082-0.24321 1.4842 0.3563 0.46953 0.31864 0.90121 0.57934 0.95928 0.57934 0.27314 0 0.0577-0.79881-0.3579-1.3272-0.25491-0.32407-0.46347-0.67943-0.46347-0.7897 0-0.34785 0.78217-0.21638 1.5698 0.26385 0.90402 0.55118 1.4169 0.57089 2.9279 0.11249 2.343-0.71079 4.3461-0.3315 6.6256 1.2546 0.70101 0.48776 1.6197 1.0632 2.0416 1.2788 1.0969 0.5606 2.5872 1.9658 2.4537 2.3136-0.0623 0.16243 0.0478 0.42909 0.24482 0.59257 0.49273 0.40893 0.44858 0.70396-0.10533 0.70396-0.62576 0-0.58332 0.37454 0.11587 1.0225 0.70026 0.64898 0.73133 0.82773 0.11587 0.66678-0.59228-0.15488-0.60099 0.28385-0.0244 1.2294 0.26728 0.43832 0.39161 0.95645 0.31972 1.3325-0.11708 0.61248-0.60181 0.82503-0.87467 0.38355-0.22993-0.37203-0.57936-0.26715-0.57905 0.1738 0.00015 0.22305 0.26085 0.70853 0.57934 1.0789 0.68155 0.7925 0.71378 1.031 0.191 1.4132-0.35656 0.26072-0.33775 0.36962 0.23173 1.3414 0.80656 1.3763 0.79656 1.6477-0.0545 1.4775-0.67878-0.13576-1.198 0.35846-0.70001 0.66625 0.1252 0.07738 0.19886 0.41315 0.16367 0.74614-0.0553 0.52308 0.0463 0.62896 0.74711 0.77841 0.44609 0.09514 1.6877 0.13208 2.7591 0.08209 1.6808-0.07842 2.189-0.20996 3.7049-0.95897 1.504-0.74314 1.9741-0.86615 3.2661-0.85457 1.551 0.01389 4.7867 0.68679 5.0056 1.041 0.23658 0.3828 0.75836 0.19146 1.8706-0.68595 3.3888-2.6732 5.9775-3.1308 9.0868-1.6062 1.2305 0.60338 3.1103 2.4544 3.7547 3.6974 0.24491 0.47238 0.6111 1.9845 0.81374 3.3602 0.20266 1.3757 0.52894 2.8431 0.72508 3.2608 0.42036 0.89522 1.3359 1.6738 1.9682 1.6738 0.30263 0 0.42412 0.13233 0.3723 0.40554-0.0993 0.52362-1.1634 0.64999-2.3861 0.28336-0.51212-0.15356-1.2157-0.299-1.5635-0.32319-0.34781-0.0242-0.87594-0.2728-1.1736-0.55246-0.29768-0.27966-0.66487-0.50847-0.81597-0.50847-0.15851 0-0.27474-0.33677-0.27474-0.79599 0-0.87837-0.13115-1.2226-1.2418-3.2591-0.42968-0.78789-1.1689-1.7034-1.7062-2.1133-1.2251-0.93442-3.8068-1.5954-5.34-1.3672-1.8118 0.26971-1.8448 0.47228-0.31741 1.9439 0.74578 0.71851 1.6266 1.8404 1.9573 2.4931 0.90036 1.7768 1.5499 4.5448 1.5499 6.6051 0 1.5944 0.0581 1.8378 0.51503 2.1579 0.69406 0.48614 2.0084 0.45462 3.2509-0.078 1.2878-0.55201 2.2141-0.40559 2.5197 0.39829 0.64757 1.7033 1.7243 3.7476 2.462 4.6745 1.3972 1.7556 3.2375 3.4767 3.7176 3.4767 0.5892 0 0.82994 0.30854 1.4314 1.8346 0.40548 1.0287 0.44017 1.308 0.19303 1.554-0.24669 0.24561-0.49921 0.17661-1.3935-0.38075z"/>
  </g>
 </g>
</svg>
