<?xml version="1.0" encoding="UTF-8" standalone="no"?>
<!-- Created with Inkscape (http://www.inkscape.org/) -->
<svg id="svg2" xmlns:rdf="http://www.w3.org/1999/02/22-rdf-syntax-ns#" xmlns="http://www.w3.org/2000/svg" height="54" width="99" version="1.1" xmlns:cc="http://creativecommons.org/ns#" xmlns:dc="http://purl.org/dc/elements/1.1/">
 <metadata id="metadata7">
  <rdf:RDF>
   <cc:Work rdf:about="">
    <dc:format>image/svg+xml</dc:format>
    <dc:type rdf:resource="http://purl.org/dc/dcmitype/StillImage"/>
    <dc:title/>
   </cc:Work>
  </rdf:RDF>
 </metadata>
 <g id="g5238">
  <g id="g4340">
   <g id="g4377">
    <g id="g4414">
     <g id="g3542">
      <rect id="rect2990" opacity="0" height="54" width="99" y="0" x="0"/>
     </g>
    </g>
   </g>
  </g>
  <path id="path4744" d="m41.627 49.257c-0.72213-0.28921-0.63734-0.81001 0.5238-3.2176 0.73065-1.5149 0.75975-1.6864 0.49528-2.9182-0.15454-0.71979-0.34667-1.7363-0.42695-2.2588-0.12087-0.7867-0.29722-1.0133-1.0253-1.3175-0.49154-0.20538-1.072-0.71888-1.3163-1.1644-0.24033-0.43832-0.92492-1.4359-1.5213-2.2169-0.5964-0.78095-1.1449-1.7077-1.2188-2.0594-0.0739-0.35172-0.32589-1.2656-0.55989-2.0308l-0.42547-1.3913-5.1785-0.06865c-2.9402-0.03898-5.2855-0.17566-5.426-0.3162-0.16142-0.16142 1.2882-0.24875 4.1666-0.251 4.878-0.0038 5.7299-0.11041 5.2739-0.65985-0.1591-0.1917-0.58838-0.34978-0.95394-0.35128-0.36558-0.0015-1.1769-0.15756-1.803-0.34678-0.66892-0.20217-1.3589-0.26178-1.6732-0.14456-0.2942 0.10971-1.0659 0.25481-1.7149 0.32244-1.1278 0.11753-1.2076 0.0823-1.805-0.79679-1.0846-1.5961-0.93157-1.9167 1.8854-3.9496 0.56713-0.4093 1.0311-0.82804 1.0311-0.93054s0.1423-0.34026 0.31621-0.52834 0.50642-0.67701 0.7389-1.0865c0.48077-0.8468 0.9686-1.1162 0.9686-0.53487 0 0.21539-0.22767 0.51347-0.50593 0.66239s-0.50592 0.46016-0.50592 0.69166c0 0.23149-0.54807 0.93894-1.2179 1.5721-1.3844 1.3085-1.708 1.9386-1.268 2.4686 0.23912 0.28812 0.23556 0.47967-0.0164 0.88313-0.52224 0.83625-0.0278 1.0368 1.7118 0.69456 1.6174-0.31821 1.8006-0.47447 1.17-0.99789-0.2087-0.1732-0.37945-0.45954-0.37945-0.63632 0-0.17677 0.17075-0.38693 0.37945-0.46701 0.69616-0.26714 0.39058-0.66741-0.50952-0.66741h-0.88895l0.58029-0.94861c0.31917-0.52174 0.70273-1.1763 0.85238-1.4545 0.20536-0.38187 0.6377-0.54636 1.7632-0.67085 0.86982-0.09621 1.6182-0.06078 1.7962 0.08502 0.30265 0.24792 0.84003 0.08444 0.82579-0.25123-0.004-0.09614-0.35998-0.56266-0.79089-1.0367-0.66655-0.7333-0.93913-0.8566-1.8266-0.82621-0.57371 0.01965-1.2138-0.07453-1.4225-0.20928-0.26793-0.17301 0.071-0.24615 1.1532-0.24888 1.3238-0.0034 1.7374 0.12187 3.0356 0.91891 2.5156 1.5446 3.3273 1.865 5.3639 2.1173 1.9924 0.24686 8.9671 0.14858 9.4223-0.13277 0.13759-0.08504 0.25017-0.32768 0.25017-0.53922 0-0.28319-0.18345-0.34953-0.69565-0.25157-2.4295 0.46463-2.8071 0.4513-4.0489-0.14302-1.2196-0.58368-2.4667-1.7758-3.0817-2.9457-0.43036-0.81873-0.15483-1.6768 0.74392-2.3168 0.54323-0.38682 0.75828-0.74749 0.75828-1.2718 0-0.9237 0.77738-1.6637 1.9824-1.887 0.50969-0.09447 1.2816-0.38988 1.7155-0.65645 0.58562-0.35987 1.2696-0.48676 2.6561-0.49273 2.153-0.0093 2.6097-0.25534 3.091-1.6651 0.25446-0.7454 0.61043-1.1358 1.4728-1.6154 0.62549-0.34782 1.5946-1.1162 2.1536-1.7075 1.0376-1.0976 1.7102-1.305 2.6323-0.81151 0.32682 0.17491 0.47586 0.49404 0.44304 0.94861-0.0621 0.85902 0.27066 1.4691 1.386 2.542 0.5865 0.56411 1.1495 0.85847 1.6934 0.88537 0.81633 0.04036 0.8894-0.02534 1.5022-1.351 0.69-1.4926 1.0813-2.0061 1.8942-2.4856 0.51197-0.30207 0.89649-0.74857 0.94606-1.0986 0.0547-0.38611 0.27999-0.61757 0.65269-0.6705 0.31304-0.04445 0.56916-0.18675 0.56916-0.3162s0.34554-0.23537 0.76788-0.23537c0.66629 0 0.83085 0.14691 1.2439 1.1105 0.2618 0.61076 0.60867 1.1925 0.77083 1.2927 0.46573 0.28784 1.2648 2.3616 1.2648 3.2824 0 1.0943-0.25982 1.1754-3.6582 1.1426-6.9461-0.06704-7.8083-0.02386-7.4777 0.37453 0.39028 0.47025 1.379 0.65586 4.0708 0.76418 2.7345 0.11004 2.628 0.09599 2.4061 0.31761-0.10452 0.10435-0.72112 0.19946-1.3702 0.21136-3.0099 0.05519-3.3304 0.10172-3.3304 0.48358 0 0.39588 2.1137 3.4054 2.6184 3.728 0.15989 0.10222 1.5372 0.18759 3.0606 0.18972 3.5777 0.005 3.2767 0.46352-0.36993 0.56353l-2.653 0.07275-0.0746 1.4141c-0.10301 1.951 0.0502 2.037 3.5988 2.0202 1.7708-0.0084 2.9264 0.08493 2.9264 0.23638 0 0.13766-0.19921 0.26009-0.44269 0.27208-0.24347 0.01198-0.78418 0.04583-1.2016 0.07521-0.41739 0.02938-1.4704 0.07649-2.3399 0.10469-0.86955 0.0282-1.581 0.1504-1.581 0.27156s0.6687 0.29594 1.486 0.38841c1.1841 0.13397 1.6852 0.3403 2.4664 1.0156l0.98039 0.84748v3.0012c0 2.3118-0.099 3.2046-0.43087 3.8866-1.622 3.3331-1.8183 5.6824-0.62096 7.4345 0.75755 1.1085 0.83177 1.6898 0.3196 2.5032-0.19403 0.30815-0.48442 1.3571-0.6453 2.331-0.42508 2.5731-1.0396 4.4899-1.6018 4.996-0.66015 0.59429-2.9653 0.63052-2.9653 0.04661 0-0.51545 0.41886-1.2886 1.2929-2.3865 0.73177-0.91921 1.4733-3.1363 1.1553-3.4543-0.10014-0.10014-0.68132 0.3079-1.2915 0.90675-1.4233 1.3968-1.781 1.2203-1.5723-0.77588l0.15499-1.4828h-0.74919c-0.97807 0-1.5578 0.87863-1.7202 2.6072-0.0824 0.87643-0.32212 1.5517-0.72037 2.0287-0.77491 0.92822-0.75422 1.3879 0.0766 1.7038 0.9785 0.37203 0.42213 0.80452-0.64225 0.49925-0.4585-0.13149-1.8091-0.31823-3.0013-0.41496-1.9042-0.15451-2.1109-0.21738-1.7007-0.51736 0.25685-0.18781 0.64444-0.34225 0.86133-0.3432 0.83943-0.0037 3.4829-3.9195 3.5422-5.2473 0.009-0.19543-0.32404-0.3162-0.87124-0.3162-0.76828 0-0.88537-0.08107-0.88537-0.613 0-0.33715-0.26047-0.93478-0.57883-1.3281-0.31836-0.39328-0.75951-0.99964-0.98033-1.3475-0.37155-0.58524-0.55004-0.63321-2.3935-0.64315-1.0956-0.0059-3.2895-0.1563-4.8754-0.3342s-3.1603-0.25395-3.4988-0.169c-0.56614 0.14209-0.60134 0.23756-0.43993 1.193 0.18409 1.0896 1.2823 4.4358 2.0148 6.1389 0.26018 0.60492 0.37674 1.3281 0.29512 1.8311-0.10301 0.63477-0.0196 0.91208 0.35304 1.1731 0.52537 0.36798 0.40726 0.67584-0.25928 0.67584-0.22725 0-0.55572 0.14229-0.72994 0.3162-0.33612 0.33553-3.8287 0.45896-3.8307 0.13538-0.00063-0.09945 0.23263-0.30592 0.51833-0.45883 0.76981-0.41198 1.5022-1.7675 1.5033-2.7822 0.00068-0.64871-0.27518-1.2597-1.0109-2.2388-0.5678-0.75567-1.0119-1.6315-1.0119-1.9958 0-0.35704-0.0705-0.57868-0.15663-0.49254-0.0861 0.08615-0.20685 1.3789-0.26822 2.8727-0.0924 2.2495-0.22486 2.9577-0.77093 4.1227-0.36263 0.77363-0.78264 1.4902-0.93334 1.5925-0.36547 0.24787-1.1508 0.21564-1.882-0.07723zm1.7345-0.73956c0-0.10586-0.17558-0.3382-0.39017-0.51629-0.47313-0.39266-1.0206 0.02257-0.79723 0.60466 0.14546 0.37907 1.1874 0.30152 1.1874-0.08837zm25.043-0.25443c0-0.13913-0.17075-0.25296-0.37944-0.25296s-0.37944 0.11383-0.37944 0.25296 0.17075 0.25296 0.37944 0.25296 0.37944-0.11383 0.37944-0.25296zm-19.478-1.1383c0-0.2108-0.22486-0.37944-0.50593-0.37944s-0.50592 0.16864-0.50592 0.37944 0.22485 0.37944 0.50592 0.37944 0.50593-0.16864 0.50593-0.37944zm12.838-0.06324c0.0611-0.1835-0.10962-0.3162-0.4068-0.3162-0.5532 0-0.88615 0.33035-0.61063 0.60587 0.25453 0.25452 0.89716 0.07156 1.0174-0.28966zm8.4953-1.0961c0.21277-0.63764 0.45984-1.8898 0.54904-2.7826 0.0892-0.89278 0.28382-1.8734 0.43247-2.1792 0.22087-0.45432 0.096-0.9617-0.68296-2.7749-0.91457-2.1289-0.947-2.3014-0.79949-4.2503 0.0846-1.1173 0.22612-2.3442 0.31456-2.7266 0.15319-0.6623 0.12449-0.68794-0.60631-0.54178-0.66689 0.13338-0.77814 0.07549-0.85153-0.44313-0.0618-0.43642-0.27115-0.61803-0.78007-0.67659-0.89455-0.10293-0.87581-0.32484 0.12605-1.4922 1.4132-1.6467 1.9418-1.7592 2.4166-0.51473 0.25261 0.66215 0.36109 0.74829 0.55751 0.44268 0.13413-0.20869 0.24562-0.79683 0.24775-1.307 0.002-0.51014 0.13403-0.97091 0.29311-1.0239 0.51576-0.17192-0.20398-1.112-1.2291-1.6054-1.0222-0.49196-3.2036-0.58032-10.069-0.40781-1.8113 0.04552-3.614 0.0023-4.0061-0.09616-0.64529-0.16196-0.70478-0.12185-0.6277 0.42317 0.062 0.43848 0.27014 0.62345 0.76591 0.6807 0.55831 0.06446 0.69482 0.22231 0.75889 0.87748 0.0546 0.5585 0.28402 0.91389 0.76243 1.1812 0.64811 0.36206 0.72245 0.34575 1.4051-0.30831 0.83911-0.80392 2.0867-0.95258 2.0806-0.24791-0.006 0.67446-0.62651 2.6072-0.89946 2.8009-0.13288 0.09429-0.3566 0.51268-0.49716 0.92974-0.28404 0.84279-1.2733 1.4326-2.49 1.4846-0.66873 0.02858-0.80086-0.06493-0.86459-0.61187-0.0469-0.40217 0.12007-0.82233 0.44269-1.1143 0.44446-0.40224 0.73534-1.4021 0.40788-1.4021-0.6668 0-1.387 0.59446-1.5347 1.2667-0.22374 1.0186-0.76235 1.2133-1.4833 0.536-0.31493-0.29586-0.64527-0.53793-0.7341-0.53793-0.0888 0-0.0962 0.5517-0.0163 1.226 0.11597 0.97926 0.064 1.2571-0.25819 1.3808-0.2414 0.09263-0.50083-0.01877-0.64604-0.27738-0.2284-0.40682-0.28674-0.4062-0.99432 0.0105-0.41344 0.24348-1.0621 0.44268-1.4414 0.44268-0.64398 0-0.6804-0.0574-0.54924-0.86564 0.0998-0.61502 0.0362-0.90567-0.21987-1.0039-0.5938-0.22786-0.40872-0.9088 0.36821-1.3547 0.69732-0.40021 0.72545-0.48719 0.65657-2.0299-0.0395-0.88649-0.1113-1.6408-0.15938-1.6763-2.32-1.7128-2.4501-1.7534-6.1585-1.92-1.9478-0.08749-3.7691-0.28352-4.0474-0.43562-0.27826-0.1521-1.0466-0.35762-1.7075-0.45671-1.1161-0.16735-1.2016-0.14156-1.2016 0.3626 0 0.29852-0.17189 0.95415-0.38197 1.4569-0.36038 0.86253-0.40795 0.89065-0.84204 0.4978-0.463-0.41901-1.1745-0.57988-1.0024-0.22665 0.0508 0.10435 0.24604 0.4955 0.43377 0.86924 0.46445 0.92459 0.23375 1.3633-0.90903 1.7287-1.238 0.39585-1.58 0.70563-1.104 0.99983 0.22839 0.14115 0.68679 0.0901 1.2304-0.13702 1.0365-0.43307 1.0575-0.43494 1.0575-0.09418 0 0.31965 1.5265 2.2618 1.7777 2.2618 0.38803 0 0.47244-2.859 0.10538-3.5689-0.20092-0.38852-0.36529-0.76896-0.36529-0.84543 0-0.31562 1.7331-0.10974 2.0237 0.2404 0.35829 0.43171 1.1577 0.50438 1.3913 0.12648 0.16346-0.26449 1.1383-0.35857 1.1383-0.10985 0 0.07871-0.1355 0.39175-0.3011 0.69565-0.16561 0.30389-0.3079 1.1217-0.31621 1.8174-0.0129 1.0821-0.0911 1.2757-0.54082 1.34-0.42944 0.06138-0.60678 0.41899-0.96834 1.9527-0.24346 1.0326-0.37823 1.9817-0.29952 2.1091 0.0787 0.12736 0.25252 1.0041 0.38623 1.9483 0.16138 1.1396 0.41424 1.8878 0.75214 2.2257 0.47306 0.47306 0.52101 0.4778 0.67861 0.06709 0.0933-0.24307 0.0408-0.72462-0.11662-1.0701-0.32812-0.72014-0.37417-1.3669-0.0965-1.3554 0.10435 0.0043 0.5608 0.50069 1.0143 1.1031 0.77391 1.0279 0.8215 1.2102 0.77399 2.9645-0.0374 1.3812 0.0718 2.1236 0.41807 2.8437 0.46199 0.96058 0.4608 0.9965-0.0841 2.5111-0.59153 1.644-0.48519 2.0519 0.49832 1.9112 0.54347-0.07773 0.61652-0.2707 0.8921-2.3566 0.30985-2.3453 0.16738-3.1667-0.54924-3.1667-0.63608 0-0.55279-1.5985 0.13334-2.5588 0.25997-0.36384 0.6348-1.0468 0.83295-1.5178 0.38118-0.90594 2.4085-3.0178 3.154-3.2855 0.2431-0.0873 0.72539-0.05268 1.0718 0.07695 0.34637 0.12963 1.0095 0.16444 1.4737 0.07737 0.51543-0.09669 0.98823-0.03857 1.2146 0.14933 0.2972 0.24665 0.60214 0.19207 1.5379-0.27528 1.1206-0.55968 1.1806-0.56454 1.5044-0.12179 0.29396 0.40201 0.41648 0.41871 0.95548 0.13024 0.34006-0.18199 0.80163-0.26054 1.0257-0.17456 0.74405 0.28552-0.007 1.0475-1.4943 1.5164-1.6922 0.53342-2.5971 0.56663-5.5505 0.20371-2.1806-0.26797-3.194-0.1234-3.194 0.45563 0 0.12285 1.4514 0.23358 3.2253 0.24606 1.7739 0.01247 3.7619 0.03547 4.4177 0.0511 0.88095 0.021 1.5885-0.17776 2.709-0.76089 0.83412-0.43411 1.6351-0.7893 1.7799-0.7893 0.14483 0 0.26333 0.39101 0.26333 0.8689 0 1.127 0.39099 2.1367 1.1329 2.9255 0.32714 0.34782 0.63293 0.90807 0.67955 1.245 0.10478 0.75744 0.71715 1.0228 0.71715 0.31078 0-0.69387 1.4362-0.69356 1.6564 0.000253 0.19697 0.62063 0.78034 0.59698 0.94648-0.03836 0.16618-0.63548 1.1383-0.67419 1.5882-0.06324 0.30954 0.4203 0.33499 0.41954 0.50343-0.0151 0.12046-0.31082-0.0262-0.67626-0.45695-1.1383-0.78828-0.84557-1.2021-1.6335-1.2021-2.2887 0-1.1859-2.1691-2.8132-3.7621-2.8225-0.36561-0.002-0.81919-0.10173-1.008-0.22134-0.60843-0.38552 0.13076-0.5704 2.054-0.51376 1.0069 0.02965 1.9445 0.02383 2.0836-0.01295 0.62247-0.16454 0.91283 0.01394 0.76751 0.47179-0.19695 0.62052 0.74303 4.0135 1.2746 4.6009 0.22535 0.24901 0.90778 0.68685 1.5165 0.97299 1.9812 0.93129 2.4478 2.3734 1.7633 5.4502-0.34345 1.5438-0.36677 2.0058-0.11645 2.3074 0.39656 0.47783 0.5951 0.25963 1.0765-1.1831zm-27.729-12.098c-0.51427-0.87059-0.56177-1.542-0.10908-1.542 0.43856 0 1.2721 1.4524 1.0964 1.9103-0.21261 0.55407-0.50736 0.44411-0.98728-0.36833zm22.586-3.1592c0-0.35542 0.72746-0.77522 0.95283-0.54986 0.0669 0.06684 0.0541 0.29719-0.0283 0.51188-0.18663 0.48636-0.92456 0.51667-0.92456 0.03798zm-2.3116 15.051c0.18949-0.12006 0.43392-0.65902 0.54317-1.1977 0.10926-0.53868 0.28148-1.3494 0.38274-1.8015 0.15924-0.71117 0.11697-0.82213-0.31325-0.82213-0.70182 0-2.1305 3.4573-1.5742 3.8094 0.44914 0.28418 0.53031 0.2852 0.96149 0.01201zm-13.372-0.41449c0-0.21316-0.17884-0.81079-0.39742-1.3281-0.68182-1.6135-1.33-3.6788-1.5014-4.7836-0.20311-1.3097-0.64288-1.7423-1.3736-1.3513-0.61016 0.32655-0.60119 0.2468-0.24475 2.175 0.18549 1.0034 0.56303 1.8895 1.1398 2.6753 0.47437 0.64621 1.0341 1.5856 1.2438 2.0876 0.38053 0.91074 1.1334 1.2596 1.1334 0.52511zm22.364-16.326c0.12201-1.4361 0.10845-1.5078-0.11606-0.61422-0.13981 0.55652-0.36479 1.3614-0.49994 1.7887-0.13515 0.42727-0.23645 1.0534-0.2251 1.3913 0.0397 1.1818 0.69167-0.80711 0.8411-2.5658zm-43.865-2.918c0-0.40446-0.65162-0.47763-0.88537-0.09942-0.086 0.13913-0.0891 0.36183-0.007 0.49488 0.20808 0.33668 0.8922 0.03345 0.8922-0.39546zm8.7286-2.1254c0.0868-0.14037 0.0826-0.49177-0.009-0.78087l-0.16684-0.52565-0.37007 0.52835c-0.36193 0.51674-0.27936 1.0334 0.16516 1.0334 0.12271 0 0.29409-0.11485 0.38085-0.25523zm27.319-1.2045 1.7707-0.18452 0.0764-1.3262c0.1361-2.3627-0.33756-4.0295-1.7614-6.1982-1.3754-2.0949-1.5435-2.2361-3.7537-3.153-1.4599-0.60557-2.4052-0.73257-2.6388-0.35453-0.0765 0.12372-0.45314 0.29983-0.83706 0.39137-0.88106 0.21006-4.2614 3.7345-4.4629 4.6531-0.0815 0.37136-0.22376 1.7814-0.31626 3.1335l-0.16818 2.4583 0.63691 0.24216c1.705 0.64824 6.9825 0.80396 11.454 0.33797zm-7.963-3.3366c-0.36205-0.67652-0.33091-3.7296 0.0404-3.9591 0.51572-0.31873 5.0226-0.2656 5.2949 0.06242 0.13571 0.16353 0.21331 1.1903 0.17244 2.2818l-0.0743 1.9844-2.5876 0.05655c-2.32 0.0507-2.6143 0.0067-2.8458-0.42605zm4.857-0.58292c0.19411-0.29202 0.0435-1.8439-0.2204-2.2709-0.17262-0.2793-1.5597-0.23442-2.1263 0.06881-0.59858 0.32035-1.3344 1.6865-1.1571 2.1484 0.24681 0.64319 3.0831 0.68667 3.5038 0.05371z"/>
 </g>
</svg>
