<?xml version="1.0" encoding="UTF-8" standalone="no"?>
<!-- Created with Inkscape (http://www.inkscape.org/) -->
<svg id="svg2" xmlns:rdf="http://www.w3.org/1999/02/22-rdf-syntax-ns#" xmlns="http://www.w3.org/2000/svg" height="45" width="67.5" version="1.1" xmlns:cc="http://creativecommons.org/ns#" xmlns:dc="http://purl.org/dc/elements/1.1/">
 <metadata id="metadata7">
  <rdf:RDF>
   <cc:Work rdf:about="">
    <dc:format>image/svg+xml</dc:format>
    <dc:type rdf:resource="http://purl.org/dc/dcmitype/StillImage"/>
    <dc:title/>
   </cc:Work>
  </rdf:RDF>
 </metadata>
 <g id="g3358">
  <rect id="rect2990" opacity="0" height="45" width="67.5" y="0" x="3.5527e-15"/>
  <path id="path3352" d="m34.787 44.67c-0.27721-0.72698 0.15948-1.7917 0.69311-1.6899 0.3096 0.05906 0.38684 1.535 0.0956 1.8262-0.29947 0.29947-0.6453 0.2397-0.78867-0.13631zm1.3838 0.03899c-0.0475-0.18897 0.0441-0.55225 0.26084-1.0352 0.32352-0.7209 0.32687-0.74918 0.10787-0.90933-0.12433-0.09091-0.35433-0.16529-0.51112-0.16529-0.50799 0-0.7259-0.21751-0.93166-0.92997-0.41794-1.4471-1.1116-2.4926-3.267-4.9239-1.0916-1.2314-1.6736-2.1332-2.7984-4.336-0.66831-1.3088-1.0512-1.9043-1.5824-2.461-0.38541-0.40389-0.8304-1.0164-0.98888-1.361-0.33998-0.73942-1.1589-1.5758-1.8466-1.8859-0.59719-0.26929-0.87733-0.17992-1.9845 0.63311-1.083 0.79525-2.0925 1.7959-3.7127 3.6802-0.79484 0.92436-1.9492 2.1998-2.5652 2.8343s-1.12 1.2326-1.12 1.3291c0 0.09649-0.3215 0.67683-0.71443 1.2896-0.47415 0.73947-0.76481 1.3422-0.86421 1.7921-0.13211 0.59797-0.24451 0.76999-0.95286 1.4582-0.79307 0.77057-0.80704 0.79528-1.1192 1.9808-0.42215 1.6032-0.55056 1.7618-1.5841 1.9569-0.82704 0.15607-2.5959 0.15637-2.7518 0.00048-0.11809-0.11808 0.69274-1.41 1.3292-2.118 0.2973-0.33067 0.77848-0.75175 1.0693-0.93573 0.41471-0.26236 0.54534-0.42619 0.60566-0.75954 0.15005-0.82924 0.64185-1.6784 1.4447-2.4944 0.67223-0.68326 0.84286-0.94477 1.0779-1.6521 0.43497-1.3087 0.91765-2.3039 2.2003-4.5366 0.6528-1.1363 1.3061-2.3009 1.4519-2.588 0.22123-0.43581 0.30817-0.50966 0.52662-0.44729 0.65708 0.1876 0.87596 0.19346 1.0974 0.02935 0.20038-0.14847 0.21164-0.20336 0.0753-0.3676-0.0881-0.10618-0.27515-0.19389-0.41563-0.1949-0.55488-0.004-0.55006-0.13587 0.0582-1.5912 0.56329-1.3478 0.58224-1.4289 0.41128-1.7595-0.0986-0.19062-0.29504-0.77028-0.43659-1.2881-0.14155-0.51785-0.36596-1.1736-0.49867-1.4572-0.22994-0.49135-0.23187-0.53659-0.0409-0.96038 0.19238-0.42698 0.18852-0.49036-0.0968-1.588-0.78568-3.0224-2.343-5.4224-4.7881-7.3786-0.53738-0.42995-1.0391-0.78173-1.1149-0.78173-0.0759 0-0.313 0.32852-0.52702 0.73006-0.60791 1.1406-1.0212 1.5508-1.5624 1.5508-1.07 0-2.254 0.73094-3.3188 2.0489-0.63312 0.7836-0.68598 0.82006-1.3002 0.8968-1.1867 0.14826-2.2312-0.33869-2.7134-1.265-0.23486-0.4511-0.19616-1.6562 0.0712-2.216 0.12485-0.26141 0.63023-0.9907 1.1231-1.6206 1.3441-1.7179 1.7829-2.4511 1.9296-3.2242 0.24054-1.2669 0.35527-1.5203 1.0972-2.4229 0.40704-0.49519 0.84029-1.123 0.9628-1.3952 0.21831-0.48498 0.21797-0.50871-0.017-1.1915-0.13183-0.38316-0.25284-0.99781-0.26893-1.3659l-0.0292-0.66925 0.40252-0.03854c0.35424-0.033917 0.39583-0.073512 0.34677-0.33013-0.0672-0.3516-0.0188-0.35765 0.47116-0.058913 0.21648 0.132 0.59759 0.59784 0.8853 1.0821 0.27786 0.4677 0.56598 0.88795 0.64028 0.93389 0.0743 0.045941 1.4827 0.4229 3.1298 0.83768 4.9761 1.2531 8.033 2.4184 10.235 3.9012 0.83858 0.56477 1.1592 0.70325 2.1608 0.93326 1.7934 0.41183 3.5309 1.0151 5.0672 1.7593 1.7167 0.83162 2.1359 0.8968 5.8328 0.90691 4.0944 0.0112 6.8436-0.37361 8.9864-1.2579l1.2176-0.50246 1.7407 0.0023c1.6516 0.0022 1.7991 0.02248 2.8811 0.39566 1.2306 0.42441 2.8153 1.2474 2.5194 1.3085-0.17938 0.03703-1.6094-0.31317-3.3598-0.82279-0.62199-0.18109-1.2529-0.26578-2.0408-0.27393-1.1071-0.01145-1.1773 0.0045-2.4009 0.5454-2.2388 0.98965-4.7536 1.4165-8.3671 1.4202-2.4992 0.0025-4.208-0.16963-6.6559-0.67065l-1.5177-0.31063-1.1233 0.55752c-1.7229 0.8551-2.7626 0.86514-3.4236 0.03306-0.14743-0.18559-0.45977-0.32986-0.94096-0.43463-1.5652-0.34079-3.1505-1.2623-5.4271-3.1546-2.7333-2.2719-4.2834-3.0833-6.2818-3.288-0.76903-0.078788-0.78782-0.073584-1.4976 0.41474-0.39537 0.27199-1.151 0.68151-1.6792 0.91005-0.52821 0.22854-0.97718 0.49492-0.99773 0.59197-0.0511 0.24122 0.39833 0.51184 1.1158 0.67194 0.84213 0.18791 1.0223 0.38773 1.0223 1.1337 0 0.96562-0.31608 1.9643-0.95197 3.0078-0.32188 0.52821-0.56894 0.97743-0.54903 0.99828 0.13725 0.14369 1.0552-0.28552 1.3648-0.63812 0.5791-0.65957 0.75382-1.43 0.82493-3.6375l0.0631-1.9568 0.3744 0.07329c0.99101 0.194 2.0526 0.88501 3.7357 2.4316 2.9279 2.6905 3.7643 3.7343 4.3053 5.3728 0.18781 0.56883 0.56661 1.3298 0.92555 1.8593 0.33419 0.493 0.6692 1.1266 0.74446 1.408 0.0752 0.2814 0.16616 0.51152 0.20198 0.5114 0.10422-0.00036 0.79607-1.0812 1.1525-1.8005 0.46223-0.93272 0.8634-1.4204 1.389-1.6886 0.25032-0.1277 0.5078-0.23219 0.57217-0.23219 0.0643 0-0.0919 0.44597-0.34738 0.99105-1.2703 2.7108-1.6737 6.064-0.95631 7.9487 0.47421 1.2458 1.8522 2.3446 2.9402 2.3446 0.35581 0 2.1592-1.362 2.589-1.9553 0.52195-0.72053 0.48952-1.3692-0.10125-2.0255l-0.45018-0.50012 0.58298 0.07906c0.75019 0.10174 1.4742 0.50116 2.663 1.4692 1.1256 0.91656 1.8036 1.2707 2.5742 1.3448 0.70519 0.06776 1.1246-0.13544 2.1629-1.048 1.1146-0.97958 1.6958-1.3306 2.3594-1.4249 0.57625-0.08189 0.58655-0.09123 1.0823-0.98209 0.27525-0.49468 0.64191-1.1055 0.81477-1.3575 0.32453-0.47294 1.0981-0.91511 1.6092-0.91986 0.2623-0.0024 0.27738 0.03097 0.20191 0.44754-0.0448 0.2476-0.2923 0.8018-0.54986 1.2316-0.25757 0.42976-0.48347 0.91595-0.50202 1.0804-0.0294 0.26034 0.019 0.30407 0.37304 0.3379 0.94377 0.09016 1.394-0.26084 2.488-1.9397 1.046-1.6052 1.5408-2.1207 2.0353-2.1207 0.82215 0 1.3221 0.80985 1.4526 2.3529 0.0417 0.49304 0.12162 0.92477 0.17765 0.9594 0.056 0.03463 0.22204-0.02119 0.3689-0.12406 0.4599-0.32212 0.65233-0.24496 0.59585 0.2389-0.0336 0.2877 0.0534 0.65576 0.26808 1.1341 0.21347 0.47568 0.29255 0.80878 0.24089 1.0146-0.0893 0.35576 0.0187 0.38091 0.59753 0.13908 0.58568-0.24471 0.79935-0.59858 0.6309-1.0449-0.11336-0.30032-0.0848-0.49496 0.18105-1.2342l0.31565-0.87762-0.2347-0.69518c-0.17552-0.51994-0.26073-1.2433-0.33799-2.8698-0.14186-2.9859-0.4527-3.8287-1.6206-4.394-0.68859-0.33334-0.58968-0.53477 0.21574-0.43938 0.86604 0.10257 1.8103 0.62005 2.7589 1.512 1.051 0.98818 1.343 1.5332 1.2211 2.2787-0.14814 0.90562-0.0865 1.2059 0.41965 2.0436 0.26603 0.44029 0.48368 0.91883 0.48368 1.0634 0 0.21935 0.0681 0.26289 0.41145 0.26289 0.30198 0 0.47796 0.08454 0.66137 0.31772 0.24666 0.31357 0.2532 0.31475 0.5012 0.09032 0.6429-0.58182 0.7481-1.3412 0.54451-3.9306-0.0968-1.2314-0.0904-1.2995 0.12004-1.2605 0.1337 0.02476 0.35472 0.31889 0.55418 0.73751 0.38093 0.79945 0.64 0.819 0.51527 0.03889-0.10126-0.63338-0.47187-1.2473-1.3807-2.2872-0.39978-0.45743-0.72688-0.87712-0.72688-0.93265 0-0.13703 0.31017-0.05361 2.866 0.77084 2.5887 0.83504 4.0368 1.4419 5.2603 2.2045 1.0664 0.66463 2.3741 1.9359 2.4791 2.41 0.0414 0.1873 0.18438 0.74264 0.31755 1.2341 0.25458 0.93953 0.79289 4.5373 0.69372 4.6365-0.16099 0.161-0.46417-0.14927-0.57697-0.59045-0.18595-0.7274-0.21621-0.79797-0.34212-0.79797-0.13746 0-0.45934 1.3642-0.61899 2.6233-0.12651 0.99786-0.0697 1.7723 0.20267 2.7617 0.0974 0.35373 0.14707 0.67313 0.11042 0.70977-0.16622 0.16623-0.69295-0.25768-0.93228-0.75029-0.14499-0.29843-0.30497-0.5426-0.35552-0.5426-0.40232 0-0.48793 1.589-0.16697 3.0991 0.26293 1.237 0.26297 1.2367-0.20027 1.0753-0.61376-0.21396-1.462-1.1506-1.7754-1.9605-0.2258-0.58348-0.27644-0.94789-0.27838-2.0037-0.002-1.1524-0.025-1.2905-0.2143-1.2905-0.31077 0-0.36351-0.16702-0.17548-0.55564 0.26794-0.55378 0.33906-1.3049 0.19106-2.0179-0.16076-0.77438-0.29034-0.9-0.57514-0.55757-0.14037 0.16878-0.25977 0.21459-0.372 0.14273-0.13697-0.08771-0.14008-0.21087-0.0182-0.71918 0.14511-0.60486 0.13774-0.63867-0.53249-2.4445-0.88615-2.3876-2.0748-4.8507-2.2542-4.6712-0.18408 0.18408 0.0715 0.98876 0.46098 1.4517 0.18773 0.22311 0.26909 0.42189 0.21105 0.51561-0.0519 0.08388-0.1018 1.0439-0.11075 2.1333-0.0179 2.1835-0.005 2.1244-0.96072 4.2016-0.43858 0.95267-0.59217 1.4391-0.62892 1.992-0.0557 0.83756 0.0609 1.13 0.81094 2.0346 0.27143 0.32735 0.84547 1.3006 1.2756 2.1628 0.49834 0.99878 1.0133 1.8327 1.4192 2.298 0.59548 0.68278 0.64241 0.78298 0.71956 1.5361 0.16804 1.6401 0.73048 3.5104 1.4484 4.8165 0.41524 0.75542 0.40067 1.0097-0.0442 0.7716-0.33281-0.17812-0.57336-0.15572-0.65658 0.06114-0.11769 0.30672 0.43287 0.74494 1.0527 0.83789 0.75372 0.11303 1.1541 0.44266 1.1541 0.95016 0 0.56904-0.23815 0.72509-0.70106 0.45941-0.35836-0.20567-0.37549-0.20482-0.55271 0.02731-0.31778 0.41621-0.45766 1.1554-0.37397 1.9762 0.0435 0.42697 0.10558 0.80275 0.1379 0.83506 0.0323 0.03232 0.24274-0.04033 0.4676-0.16143 0.42247-0.22751 0.78273-0.19206 0.78135 0.07689-0.002 0.25177-0.42859 0.8239-0.79647 1.0664-0.44494 0.29334-1.5432 0.31859-1.6509 0.03795-0.12177-0.31735-0.0739-1.1506 0.10961-1.9109 0.26011-1.0772 0.22467-1.3774-0.25592-2.1679-0.49887-0.82061-0.70974-1.387-1.3829-3.7144-0.54702-1.8913-1.0859-3.1455-1.7447-4.0605-0.24608-0.34176-1.5008-1.6883-2.7882-2.9923l-2.3408-2.3709-0.34788 0.33012c-0.80178 0.76085-1.2463 2.1865-1.3248 4.2486l-0.0487 1.2775-1.4079 1.5436c-1.7516 1.9204-3.3236 3.9893-4.2905 5.6468-0.63399 1.0868-0.81178 1.3027-1.229 1.4922-0.85212 0.38704-1.7404 0.23187-2.329-0.40681l-0.28057-0.30446 1.7835-2.142c1.649-1.9804 2.8026-3.4472 3.523-4.4795 0.26605-0.38122 0.28794-0.51456 0.25618-1.5606-0.0223-0.73595 0.0793-2.0213 0.2851-3.6047 0.43716-3.3639 0.33787-4.3734-0.49457-5.0282-0.61134-0.48088-1.077-0.46337-2.0844 0.07838-1.7764 0.95532-5.9604 1.8159-10.631 2.1866-0.92436 0.07336-1.9102 0.1612-2.1908 0.19518l-0.5102 0.06178v0.63718c0 0.98318 0.32686 2.6327 0.81017 4.0887 0.49592 1.4939 2.0806 4.7614 3.0684 6.327 0.61179 0.96961 0.64023 1.0463 0.40077 1.0804-0.20754 0.02959-0.25775 0.11859-0.25775 0.45691 0 0.36018 0.06 0.45013 0.42016 0.63006 0.2311 0.11544 0.64645 0.20998 0.92301 0.21008l0.50285 0.00024 0.0815 0.57022c0.28591 1.9993 1.5254 2.8706 2.7852 1.958 0.26791-0.19407 0.58478-0.5182 0.70415-0.72028 0.21763-0.36841 0.44895-0.46822 0.58289-0.25149 0.0394 0.06376-0.0395 0.33387-0.17542 0.60024-0.27552 0.54007-0.0999 0.68395 0.29801 0.24421 0.25987-0.28715 0.72572-0.31542 0.82749-0.0502 0.1792 0.46697 0.0676 0.91982-0.32292 1.3103-0.45794 0.45794-1.0704 0.65901-2.0102 0.65996-0.63192 0.0006-0.6921 0.02824-1.2005 0.55051-0.63278 0.65009-1.0508 0.89072-1.5473 0.89072-0.28496 0-0.37965-0.06311-0.43689-0.29114zm-26.786-1.949c0.44278-0.09662 0.38161-0.39577-0.12305-0.60167-0.37345-0.15238-0.39406-0.14532-0.57022 0.19533-0.25782 0.49858-0.23435 0.64814 0.0874 0.55653 0.14856-0.0423 0.42122-0.10989 0.60592-0.15019zm36.221-7.327c0.19663-0.31004 0.3575-0.64585 0.3575-0.74624s-0.18907 0.11094-0.42016 0.46963-0.42017 0.6945-0.42017 0.74625c0 0.2061 0.14171 0.06827 0.48283-0.46963zm-15.365-2.6059c-0.0745-0.22583-0.21046-0.43936-0.30207-0.47451-0.14131-0.05422-0.14088 0.0089 0.003 0.41618 0.0932 0.26406 0.20763 0.54198 0.25437 0.61761 0.15726 0.25445 0.18781-0.12621 0.0449-0.55928zm-15.019-0.18719c0.83561-0.4263 1.7447-1.8888 1.6655-2.6794l-0.0387-0.38631-0.47884 0.48946c-0.40491 0.4139-1.8231 2.8118-1.663 2.8118 0.0293 0 0.26103-0.106 0.51498-0.23555zm43.466-2.3356c0-0.45427-0.12756-0.67887-0.45659-0.80397-0.2212-0.0841-0.33048-0.07344-0.40196 0.03921-0.27143 0.42783 0.0716 1.0551 0.57704 1.0551 0.21771 0 0.28151-0.06579 0.28151-0.2903zm-10.417-1.8338c0.26977-0.29809 0.52681-0.93695 0.6306-1.5673 0.0703-0.42673 0.0519-0.5102-0.11257-0.5102-0.837 0-1.4715 1.1985-1.1902 2.248 0.0794 0.29621 0.30056 0.24012 0.67214-0.17048zm15.211-8.432c0.48452-0.96859 0.39501-2.0474-0.28454-3.4294-0.38308-0.77904-1.5845-2.3042-1.7135-2.1752-0.0311 0.03116 0.23197 0.63876 0.58472 1.3502l0.64138 1.2936 0.0124 1.6994c0.007 0.9347 0.0522 1.7638 0.10072 1.8423 0.1225 0.1982 0.38471-0.03304 0.65884-0.58102zm-3.473-5.3922c0-0.22725-0.29137-0.93915-0.51668-1.2624-0.25563-0.36673-1.0495-0.78933-1.491-0.79369-0.2629-0.0026-0.26135 0.007 0.1012 0.62761 0.427 0.73092 0.90435 1.2731 1.2462 1.4154 0.31963 0.13308 0.66025 0.13981 0.66025 0.01305zm-55.51-0.426c0.4709-0.4709 0.50787-0.78271 0.15963-1.3462-0.3156-0.51065-0.2083-0.69119 0.36508-0.61428 0.41718 0.05596 0.45486 0.03406 0.59149-0.34379 0.0803-0.22195 0.3773-0.68835 0.6601-1.0364 0.73157-0.90048 0.97523-1.4132 0.67162-1.4132-0.0666 0-0.34481-0.16206-0.61824-0.36014-0.65947-0.47772-1.0082-0.47603-1.1045 0.0053-0.10702 0.53512-0.57365 1.2741-1.4019 2.2202-0.40239 0.45963-0.88783 1.1038-1.0788 1.4315l-0.34713 0.59583 0.38502 0.12445c0.30697 0.09923 0.41774 0.22787 0.54646 0.63465 0.13338 0.42149 0.21374 0.5102 0.46218 0.5102 0.18195 0 0.46196-0.16122 0.70889-0.40816zm12.156-1.099c-0.46059-1.6711-1.7675-3.3304-3.8846-4.9318-0.83751-0.63353-0.85182-0.59246-0.11255 0.32283 0.39727 0.49186 1.0941 1.3805 1.5485 1.9747 1.2839 1.679 2.5016 3.1852 2.5422 3.1446 0.0202-0.02028-0.0218-0.24992-0.0936-0.51031z" fill-rule="evenodd"/>
 </g>
</svg>
