<?xml version="1.0" encoding="UTF-8" standalone="no"?>
<!-- Created with Inkscape (http://www.inkscape.org/) -->
<svg id="svg2" xmlns:rdf="http://www.w3.org/1999/02/22-rdf-syntax-ns#" xmlns="http://www.w3.org/2000/svg" height="54" width="99" version="1.1" xmlns:cc="http://creativecommons.org/ns#" xmlns:dc="http://purl.org/dc/elements/1.1/">
 <metadata id="metadata7">
  <rdf:RDF>
   <cc:Work rdf:about="">
    <dc:format>image/svg+xml</dc:format>
    <dc:type rdf:resource="http://purl.org/dc/dcmitype/StillImage"/>
    <dc:title/>
   </cc:Work>
  </rdf:RDF>
 </metadata>
 <g id="g3659">
  <g id="g3675">
   <g id="g3764">
    <g id="g3542">
     <rect id="rect2990" opacity="0" height="54" width="99" y="0" x="0"/>
    </g>
    <g id="g3" transform="matrix(.71378 0 0 .71378 14.967 -1.9213)">
     <g id="g5">
      <g id="g3065" transform="matrix(.97602 0 0 .97602 -118.49 -14.131)" fill-rule="evenodd">
       <g id="g12" fill="#fff">
        <path id="path9" d="m139.32 34.255c3.215 2.385 6.498 4.702 7.44 9.36-2.604-2.996-4.863-6.337-7.44-9.36z"/>
        <path id="path11" d="m130.2 36.175c1.314-0.034 1.503 1.057 2.64 1.2-0.535 1.625-2.061 2.26-2.4 4.08-0.561-0.074-0.991-0.47-1.44 0-0.011 0.73 0.507 0.933 0.72 1.44-0.249 1.111-0.868 1.853-2.16 1.92-0.379-0.74-0.131-2.109-1.68-1.68 0.985-2.775 3.707-3.814 4.32-6.96z"/>
        <path id="path13" d="m205.32 41.695c2.079 0.081 3.095 1.225 3.36 3.12-1.752 0.432-2.546-1.848-3.36-3.12z"/>
        <path id="path15" d="m192.84 61.615c-0.149 1.69-0.564 3.116-1.92 3.6-0.66-2.007 0.375-3.933 1.92-3.6z"/>
        <path id="path17" d="m205.56 65.935c1.065-0.105 1.307 0.614 1.2 1.681-1.32 0.226-1.678-0.775-1.2-1.681z"/>
        <path id="path19" d="m143.4 70.975c1.26-1.46 1.584-3.855 3.36-4.8 0.514 1.343-1.244 4.495-3.36 4.8z"/>
        <path id="path21" d="m165.24 70.015c0.846 0.114 0.789 1.132 0.96 1.92-0.627-0.332-0.68-1.24-0.96-1.92z"/>
        <path id="path23" d="m135.24 83.935c0.463 0.338 1.469 0.132 1.2 1.2-0.833-0.192-0.922 0.357-1.68 0.24-0.115-0.755 0.342-0.939 0.48-1.44z"/>
       </g>
       <path id="path25" d="m173.88 85.615c-0.014 1.266 0.299 2.858-1.2 2.64-0.646-1.063-0.206-3.586 1.2-2.64z"/>
       <path id="path27" fill="#fff" d="m210.6 44.095c2.394 2.089 5.309 6.693 2.16 9.6-0.584-1.679-0.04-3.246-0.24-4.8-0.263-2.041-1.591-3.097-1.92-4.8z"/>
       <path id="path29" fill="#fff" d="m188.52 73.135c0.174 0.504-0.67 2.043-1.439 2.4 0.341-0.938 1.009-1.551 1.439-2.4z"/>
       <path id="path31" d="m133.08 23.695c1.658 0.422 1.991 2.169 2.88 3.36 7.658 1.782 15.347 3.533 20.64 7.68 4.128 0.752 7.734 2.026 10.8 3.84 5.614 0.771 12.652 0.476 17.521-0.72 1.367-0.336 2.732-1.229 4.08-1.44 3.865-0.607 7.426 0.633 10.08 2.4-3.024-0.194-5.601-1.955-8.881-1.68-1.55 0.13-2.851 1.22-4.56 1.68-7.209 1.938-14.261 1.605-21.84-0.24-1.702 1.122-5.3 3.157-6.72 0.48-8.271-1.249-9.971-9.069-18.96-9.6-1.418 1.142-3.053 2.066-5.04 2.64 0.034 1.646 2.474 0.886 3.12 1.92 0.344 3.51-0.909 4.503-2.16 6.72 3.804 0.019 3.307-5.397 3.36-8.88 3.044 0.359 4.383 2.326 6.48 4.08 1.597 1.335 3.649 3.497 4.8 5.28 0.642 0.994 0.765 2.466 1.44 3.6 0.615 1.034 1.73 2.032 1.92 3.84 1.862-1.579 1.867-5.013 4.8-5.52-2.841 4.601-5.116 15.418 2.4 16.32 2.13-1.653 6.242-3.761 2.64-6.48 4.238-0.03 5.466 4.838 9.36 4.08 1.751-0.341 3.295-3.665 6.24-3.6 1.461-1.579 1.51-4.571 4.561-4.56 0.057 2.057-1.435 2.566-1.681 4.32 3.64 1.602 4.836-5.747 7.2-5.76 1.897-0.01 2.082 2.718 2.16 4.56 0.549 0.838 0.851-0.567 1.68-0.24-0.831 1.896 1.179 2.257 0.48 4.08 1.274 0.154 1.637-0.603 2.16-1.2-0.931-1.324 0.289-2.104 0.479-3.6-1.941-3.62 1.012-10.374-4.08-11.76 2.091-1.169 6.415 2.432 6.96 4.32 0.201 0.697-0.308 1.504-0.24 2.16 0.152 1.474 1.76 2.177 1.44 3.6 1.269-0.309 1.526 0.394 1.92 0.96 2.491-1.764 0.873-4.86 1.2-7.92 1.077 0.203 0.737 1.823 1.68 2.16 0.537-2.539-2.131-3.948-3.12-5.76 5.731 1.789 11.854 3.186 15.12 7.44 1.114 3.308 1.276 5.576 1.681 8.88-1.347 0.146-0.501-1.899-1.44-2.16-0.86 2.877-1.451 6.051-0.24 8.88-1.366 0.086-1.356-1.204-1.92-1.921-1.459 1.039-0.021 5.236 0 6.24-2.789-0.664-4.032-4.109-3.36-7.439-0.035-0.444-0.813-0.147-0.96-0.48 0.843-1.164 0.893-3.122 0.24-4.56-0.739-0.179-0.292 0.828-1.2 0.48-0.128-0.928 0.429-1.171 0.24-2.16-1.226-3.254-2.298-6.663-4.08-9.36-0.622 0.952 0.431 2.282 0.96 2.88-0.614 2.15 0.019 3.542-0.239 5.52-0.363 2.782-2.536 4.997-2.4 7.2 0.097 1.563 1.464 2.314 2.16 3.601 1.117 2.063 1.925 4.625 3.84 6 0.31 3.771 1.231 6.928 2.88 9.359-0.454 0.64-1.381-0.928-1.68 0.24 0.13 1.949 3.952 0.207 3.12 3.12-0.624 0.646-0.725-0.294-1.44-0.24-1.125 1.007-0.82 2.487-0.72 4.32 0.706 0.578 0.908-1.028 1.92-0.24-0.282 1.532-1.825 2.349-3.36 1.92-0.716-1.761 0.562-3.252 0.24-5.04-0.136-0.754-0.875-1.339-1.2-2.16-1.188-3.002-1.735-6.92-3.359-9.359-2.206-3.313-5.645-5.883-7.921-8.4-1.991 1.608-2.546 4.654-2.399 8.4-3.375 3.664-6.814 7.266-9.12 12-1.49 1.247-3.461 0.959-4.56-0.48 2.777-3.382 5.708-6.611 8.159-10.32-1.198-4.467 3.15-13.705-1.68-14.399-1.024-0.147-1.604 0.737-2.88 1.2-4.553 1.651-11.588 2.488-18 2.88-0.677 5.167 3.585 13.237 6.48 17.52-0.38 0.021-0.916-0.115-0.96 0.24-0.127 1.751 1.943 1.674 2.88 1.68 0.096 4.36 3.344 5.736 5.52 1.92 0.926 0.226-0.073 1.346-0.24 1.92 0.899 0.02 0.726-1.034 1.92-0.72 0.793 2.186-1.326 3.232-3.84 2.88-1.519 0.481-1.537 2.463-3.84 2.16-0.487-1.036 0.412-1.932 0.72-2.88-0.242-0.797-1.747-0.333-2.16-0.96-0.795-4.65-4.724-7.126-6.96-10.56-1.783-2.738-2.518-6.114-5.28-8.16-0.572-2.067-1.938-3.342-3.84-4.08-5.389 2.771-8.078 8.242-12.48 12-0.598 2.281-2.576 3.184-2.64 6-0.944 0.576-1.456 1.584-2.4 2.16-0.403 1.517-0.579 3.261-1.44 4.319-1.864 0.345-3.387 0.711-5.28 0.24 1.05-1.989 2.276-3.804 4.32-4.8 0.345-2.535 1.713-4.047 3.36-5.28 1.237-4.843 4.013-8.147 6-12.24 1.139 0.232 1.174 0.621 2.16 0 0.206-1.005-1.074-0.525-1.44-0.96 0.567-1.353 1.109-2.73 1.68-4.08-0.934-1.385-0.951-3.688-1.92-5.04-0.063-0.703 0.542-0.737 0.48-1.44-1.109-6.331-4.465-10.415-8.88-13.44-0.961 0.958-1.174 2.666-2.4 3.36-2.945-0.239-4.743 2.137-6.24 4.08-2.995 0.766-5.487-0.543-5.04-3.84 0.278-2.048 3.259-4.208 4.56-7.2 0.359-0.827 0.166-1.701 0.48-2.4 0.813-1.804 2.757-2.931 2.88-4.56-0.471-1.579-0.807-1.93-0.72-3.84 0.657-0.411 1.557 0.377 0.959-0.961zm13.68 19.92c-0.942-4.659-4.225-6.976-7.44-9.36 2.577 3.023 4.836 6.364 7.44 9.36zm-20.88-0.48c1.549-0.429 1.301 0.939 1.68 1.68 1.292-0.067 1.911-0.809 2.16-1.92-0.213-0.507-0.731-0.709-0.72-1.44 0.449-0.47 0.879-0.074 1.44 0 0.34-1.82 1.865-2.455 2.4-4.08-1.137-0.143-1.326-1.234-2.64-1.2-0.613 3.146-3.335 4.185-4.32 6.96zm82.8 1.68c-0.266-1.895-1.281-3.039-3.36-3.12 0.814 1.272 1.608 3.552 3.36 3.12zm3.84 4.08c0.2 1.554-0.344 3.121 0.24 4.8 3.148-2.906 0.233-7.51-2.16-9.6 0.329 1.703 1.657 2.759 1.92 4.8zm-21.599 16.32c1.355-0.483 1.771-1.909 1.92-3.6-1.546-0.333-2.581 1.593-1.92 3.6zm15.839 2.4c0.106-1.066-0.135-1.786-1.2-1.681-0.478 0.907-0.12 1.908 1.2 1.681zm-60-1.44c-1.776 0.944-2.1 3.34-3.36 4.8 2.116-0.305 3.874-3.457 3.36-4.8zm19.44 5.76c-0.171-0.788-0.114-1.806-0.96-1.92 0.28 0.68 0.333 1.588 0.96 1.92zm20.881 3.6c0.77-0.357 1.613-1.896 1.439-2.4-0.43 0.849-1.098 1.462-1.439 2.4zm-52.321 9.84c0.757 0.117 0.847-0.433 1.68-0.24 0.269-1.068-0.737-0.862-1.2-1.2-0.138 0.501-0.595 0.685-0.48 1.44z"/>
      </g>
     </g>
    </g>
   </g>
  </g>
 </g>
</svg>
