<?xml version="1.0" encoding="UTF-8" standalone="no"?>
<!-- Created with Inkscape (http://www.inkscape.org/) -->
<svg id="svg2" xmlns:rdf="http://www.w3.org/1999/02/22-rdf-syntax-ns#" xmlns="http://www.w3.org/2000/svg" height="54" width="99" version="1.1" xmlns:cc="http://creativecommons.org/ns#" xmlns:dc="http://purl.org/dc/elements/1.1/">
 <metadata id="metadata7">
  <rdf:RDF>
   <cc:Work rdf:about="">
    <dc:format>image/svg+xml</dc:format>
    <dc:type rdf:resource="http://purl.org/dc/dcmitype/StillImage"/>
    <dc:title/>
   </cc:Work>
  </rdf:RDF>
 </metadata>
 <g id="g3463">
  <rect id="rect2990" opacity="0" height="54" width="99" y="0" x="0"/>
  <g fill-rule="evenodd" fill="#fff">
   <path id="path9" d="m27.45 11.856c2.2398 1.6615 4.5269 3.2757 5.1832 6.5208-1.8141-2.0872-3.3879-4.4148-5.1832-6.5208z"/>
   <path id="path11" d="m21.097 13.194c0.91542-0.02369 1.0471 0.73637 1.8392 0.836-0.37272 1.1321-1.4358 1.5745-1.672 2.8424-0.39083-0.05155-0.69039-0.32743-1.0032 0-0.0077 0.50856 0.35321 0.64999 0.5016 1.0032-0.17347 0.77399-0.6047 1.2909-1.5048 1.3376-0.26404-0.51553-0.09126-1.4693-1.1704-1.1704 0.68621-1.9332 2.5825-2.6571 3.0096-4.8488z"/>
   <path id="path13" d="m73.43 17.04c1.4484 0.05643 2.1562 0.85341 2.3408 2.1736-1.2206 0.30096-1.7737-1.2874-2.3408-2.1736z"/>
   <path id="path15" d="m64.736 30.917c-0.1038 1.1774-0.39292 2.1708-1.3376 2.508-0.4598-1.3982 0.26125-2.74 1.3376-2.508z"/>
   <path id="path17" d="m73.597 33.927c0.74195-0.07315 0.91054 0.42775 0.836 1.1711-0.9196 0.15745-1.169-0.53991-0.836-1.1711z"/>
   <path id="path19" d="m30.293 37.438c0.8778-1.0171 1.1035-2.6856 2.3408-3.344 0.35808 0.93562-0.86665 3.1315-2.3408 3.344z"/>
   <path id="path21" d="m45.508 36.769c0.58938 0.07942 0.54967 0.78862 0.6688 1.3376-0.43681-0.23129-0.47373-0.86386-0.6688-1.3376z"/>
   <path id="path23" d="m24.608 46.467c0.32256 0.23547 1.0234 0.09196 0.836 0.836-0.58032-0.13376-0.64232 0.24871-1.1704 0.1672-0.08012-0.52598 0.23826-0.65417 0.3344-1.0032z"/>
  </g>
  <g fill-rule="evenodd">
   <path id="path25" d="m51.527 47.637c-0.0098 0.88198 0.2083 1.9911-0.836 1.8392-0.45004-0.74055-0.14351-2.4982 0.836-1.8392z"/>
   <path id="path27" d="m77.109 18.712c1.6678 1.4553 3.6986 4.6628 1.5048 6.688-0.40685-1.1697-0.02787-2.2614-0.1672-3.344-0.18322-1.4219-1.1084-2.1576-1.3376-3.344z" fill="#fff"/>
   <path id="path29" d="m61.726 38.943c0.12122 0.35112-0.46676 1.4233-1.0025 1.672 0.23756-0.65347 0.70293-1.0805 1.0025-1.672z" fill="#fff"/>
   <path id="path31" d="m23.103 4.4997c1.1551 0.29399 1.3871 1.5111 2.0064 2.3408 5.335 1.2415 10.692 2.4613 14.379 5.3504 2.8758 0.52389 5.388 1.4114 7.524 2.6752 3.9111 0.53713 8.8142 0.33161 12.206-0.5016 0.95234-0.23408 1.9033-0.8562 2.8424-1.0032 2.6926-0.42288 5.1734 0.44099 7.0224 1.672-2.1067-0.13515-3.902-1.362-6.1871-1.1704-1.0798 0.09057-1.9862 0.84993-3.1768 1.1704-5.0222 1.3501-9.9351 1.1181-15.215-0.1672-1.1857 0.78166-3.6923 2.1994-4.6816 0.3344-5.7621-0.87013-6.9464-6.318-13.209-6.688-0.98787 0.79559-2.1269 1.4393-3.5112 1.8392 0.02369 1.1467 1.7235 0.61724 2.1736 1.3376 0.23965 2.4453-0.63327 3.1371-1.5048 4.6816 2.6501 0.01324 2.3039-3.7599 2.3408-6.1864 2.1206 0.2501 3.0535 1.6204 4.5144 2.8424 1.1126 0.93005 2.5421 2.4362 3.344 3.6784 0.44726 0.69248 0.53295 1.718 1.0032 2.508 0.42845 0.72035 1.2052 1.4156 1.3376 2.6752 1.2972-1.1 1.3007-3.4924 3.344-3.8456-1.9792 3.2053-3.5641 10.741 1.672 11.37 1.4839-1.1516 4.3486-2.6202 1.8392-4.5144 2.9525-0.0209 3.808 3.3705 6.5208 2.8424 1.2199-0.23756 2.2955-2.5533 4.3472-2.508 1.0178-1.1 1.052-3.1844 3.1775-3.1768 0.03971 1.433-0.99971 1.7876-1.1711 3.0096 2.5359 1.1161 3.3691-4.0037 5.016-4.0128 1.3216-0.007 1.4505 1.8935 1.5048 3.1768 0.38247 0.5838 0.59286-0.39501 1.1704-0.1672-0.57893 1.3209 0.82137 1.5724 0.3344 2.8424 0.88755 0.10729 1.1404-0.42009 1.5048-0.836-0.64859-0.92238 0.20134-1.4658 0.3337-2.508-1.3522-2.5219 0.70502-7.2272-2.8424-8.1928 1.4567-0.8144 4.4691 1.6943 4.8488 3.0096 0.14003 0.48558-0.21457 1.0478-0.1672 1.5048 0.10589 1.0269 1.2261 1.5166 1.0032 2.508 0.88407-0.21527 1.0631 0.27449 1.3376 0.6688 1.7354-1.2289 0.60819-3.3858 0.836-5.5176 0.75031 0.14142 0.51344 1.27 1.1704 1.5048 0.37411-1.7688-1.4846-2.7504-2.1736-4.0128 3.9926 1.2463 8.2582 2.2196 10.534 5.1832 0.77608 2.3046 0.88894 3.8846 1.1711 6.1864-0.93841 0.10171-0.34903-1.323-1.0032-1.5048-0.59913 2.0043-1.0109 4.2155-0.1672 6.1864-0.95164 0.05991-0.94468-0.83878-1.3376-1.3383-1.0164 0.72383-0.01463 3.6477 0 4.3472-1.943-0.46258-2.8089-2.8626-2.3408-5.1825-0.02438-0.30932-0.56639-0.10241-0.6688-0.3344 0.58729-0.81092 0.62212-2.175 0.1672-3.1768-0.51483-0.1247-0.20342 0.57684-0.836 0.3344-0.08917-0.6465 0.29887-0.81579 0.1672-1.5048-0.85411-2.2669-1.6009-4.6419-2.8424-6.5208-0.43332 0.66322 0.30026 1.5898 0.6688 2.0064-0.42775 1.4978 0.01324 2.4676-0.1665 3.8456-0.25289 1.9381-1.7667 3.4812-1.672 5.016 0.06758 1.0889 1.0199 1.6121 1.5048 2.5087 0.77817 1.4372 1.3411 3.2221 2.6752 4.18 0.21597 2.6271 0.85759 4.8265 2.0064 6.5201-0.31628 0.44586-0.96209-0.6465-1.1704 0.1672 0.09057 1.3578 2.7532 0.14421 2.1736 2.1736-0.43472 0.45004-0.50508-0.20482-1.0032-0.1672-0.78375 0.70154-0.57126 1.7326-0.5016 3.0096 0.49184 0.40267 0.63257-0.71617 1.3376-0.1672-0.19646 1.0673-1.2714 1.6365-2.3408 1.3376-0.49881-1.2268 0.39152-2.2655 0.1672-3.5112-0.09475-0.52528-0.60958-0.93283-0.836-1.5048-0.82764-2.0914-1.2087-4.8209-2.3401-6.5201-1.5368-2.308-3.9327-4.0985-5.5183-5.852-1.3871 1.1202-1.7737 3.2423-1.6713 5.852-2.3512 2.5526-4.7471 5.062-6.3536 8.36-1.038 0.86874-2.4112 0.6681-3.1768-0.3344 1.9346-2.3561 3.9766-4.6056 5.6841-7.1896-0.8346-3.112 2.1945-9.5478-1.1704-10.031-0.71338-0.10241-1.1174 0.51344-2.0064 0.836-3.1719 1.1502-8.0729 1.7333-12.54 2.0064-0.47164 3.5997 2.4975 9.2217 4.5144 12.206-0.26473 0.01463-0.63814-0.08012-0.6688 0.1672-0.08848 1.2199 1.3536 1.1662 2.0064 1.1704 0.06688 3.0375 2.3296 3.9961 3.8456 1.3376 0.64511 0.15745-0.05086 0.93771-0.1672 1.3376 0.6263 0.01393 0.50578-0.72035 1.3376-0.5016 0.55246 1.5229-0.92378 2.2516-2.6752 2.0064-1.0582 0.3351-1.0708 1.7159-2.6752 1.5048-0.33928-0.72174 0.28703-1.346 0.5016-2.0064-0.16859-0.55524-1.2171-0.23199-1.5048-0.6688-0.55385-3.2395-3.291-4.9644-4.8488-7.3568-1.2422-1.9075-1.7542-4.2594-3.6784-5.6848-0.39849-1.44-1.3501-2.3282-2.6752-2.8424-3.7543 1.9305-5.6276 5.7419-8.6944 8.36-0.4166 1.5891-1.7946 2.2182-1.8392 4.18-0.65765 0.40128-1.0143 1.1035-1.672 1.5048-0.28076 1.0568-0.40337 2.2718-1.0032 3.0089-1.2986 0.24035-2.3596 0.49533-3.6784 0.1672 0.7315-1.3857 1.5856-2.6501 3.0096-3.344 0.24035-1.766 1.1934-2.8194 2.3408-3.6784 0.86177-3.3739 2.7957-5.6757 4.18-8.5272 0.7935 0.16163 0.81788 0.43263 1.5048 0 0.14351-0.70015-0.74822-0.36575-1.0032-0.6688 0.39501-0.94258 0.7726-1.9019 1.1704-2.8424-0.65068-0.96488-0.66253-2.5693-1.3376-3.5112-0.04389-0.48976 0.37759-0.51344 0.3344-1.0032-0.7726-4.4106-3.1106-7.2558-6.1864-9.3632-0.66949 0.6674-0.81788 1.8573-1.672 2.3408-2.0517-0.1665-3.3043 1.4888-4.3472 2.8424-2.0865 0.53364-3.8226-0.37829-3.5112-2.6752 0.19367-1.4268 2.2704-2.9316 3.1768-5.016 0.2501-0.57614 0.11565-1.185 0.3344-1.672 0.566-1.2566 1.92-2.0417 2.006-3.1766-0.328-1.1-0.563-1.3446-0.502-2.6752 0.458-0.2863 1.085 0.2627 0.668-0.6695zm9.5304 13.878c-0.65626-3.2458-2.9434-4.8599-5.1832-6.5208 1.7953 2.106 3.3691 4.4336 5.1832 6.5208zm-14.546-0.335c1.0791-0.29887 0.90636 0.65417 1.1704 1.1704 0.90009-0.04668 1.3313-0.5636 1.5048-1.3376-0.14839-0.35321-0.50926-0.49393-0.5016-1.0032 0.3128-0.32743 0.61237-0.05155 1.0032 0 0.23686-1.2679 1.2993-1.7103 1.672-2.8424-0.79211-0.09962-0.92378-0.85968-1.8392-0.836-0.42706 2.1917-2.3234 2.9155-3.0096 4.8488zm57.684 1.1704c-0.18531-1.3202-0.89243-2.1172-2.3408-2.1736 0.56708 0.88616 1.1202 2.4745 2.3408 2.1736zm2.6752 2.8424c0.13933 1.0826-0.23965 2.1743 0.1672 3.344 2.1931-2.0245 0.16232-5.2319-1.5048-6.688 0.2292 1.1864 1.1544 1.9221 1.3376 3.344zm-15.047 11.37c0.94398-0.33649 1.2338-1.3299 1.3376-2.508-1.077-0.23199-1.7981 1.1098-1.3376 2.508zm11.034 1.672c0.07385-0.74264-0.09405-1.2442-0.836-1.1711-0.333 0.63187-0.0836 1.3292 0.836 1.1711zm-41.799-1.003c-1.2373 0.65765-1.463 2.3269-2.3408 3.344 1.4741-0.21248 2.6989-2.4084 2.3408-3.344zm13.543 4.0128c-0.11913-0.54897-0.07942-1.2582-0.6688-1.3376 0.19506 0.47373 0.23199 1.1063 0.6688 1.3376zm14.547 2.508c0.53643-0.24871 1.1237-1.3209 1.0025-1.672-0.29956 0.59147-0.76494 1.0185-1.0025 1.672zm-36.45 6.8552c0.52738 0.08151 0.59007-0.30166 1.1704-0.1672 0.1874-0.74404-0.51344-0.60052-0.836-0.836-0.09614 0.34903-0.41452 0.47721-0.3344 1.0032z"/>
  </g>
 </g>
</svg>
