<?xml version="1.0" encoding="UTF-8" standalone="no"?>
<!-- Created with Inkscape (http://www.inkscape.org/) -->
<svg id="svg2" xmlns:rdf="http://www.w3.org/1999/02/22-rdf-syntax-ns#" xmlns="http://www.w3.org/2000/svg" height="45" width="67.5" version="1.1" xmlns:cc="http://creativecommons.org/ns#" xmlns:dc="http://purl.org/dc/elements/1.1/">
 <metadata id="metadata7">
  <rdf:RDF>
   <cc:Work rdf:about="">
    <dc:format>image/svg+xml</dc:format>
    <dc:type rdf:resource="http://purl.org/dc/dcmitype/StillImage"/>
    <dc:title/>
   </cc:Work>
  </rdf:RDF>
 </metadata>
 <g id="g3479">
  <rect id="rect2990" opacity="0" height="45" width="67.5" y="0" x="3.5527e-15"/>
  <path id="path3450" d="m37.259 44.625c-1.0728-0.54671-2.2306-1.7422-2.4709-2.5514-0.0997-0.33573-0.18128-0.73945-0.18128-0.89716 0-0.85788-1.2181-1.6665-3.1577-2.0962-0.62741-0.13899-1.2497-0.29878-1.3829-0.35507-0.13319-0.05629-0.54074-0.19417-0.90566-0.30638-0.36491-0.11221-0.80082-0.30065-0.96866-0.41875-0.16785-0.1181-0.41415-0.25065-0.54734-0.29455-0.1332-0.0439-0.35115-0.17365-0.48434-0.28832-0.46177-0.39756-1.475-1.6645-1.8129-2.2669-0.18678-0.33298-0.41014-0.68741-0.49634-0.78763-0.22954-0.26686-0.99131-2.4858-1.143-3.3292-0.45063-2.5065-0.51054-2.7377-0.74803-2.8875-0.15275-0.09636-0.30777-0.05113-0.66336 0.19352-0.60185 0.41408-1.6141 0.84323-1.8108 0.76772-0.0847-0.03252-0.24533-0.23565-0.35691-0.45142-0.26463-0.51173-0.1619-2.0691 0.2638-3.9994 0.16645-0.75472 0.33288-1.5203 0.36986-1.7013 0.0369-0.181 0.15208-0.39894 0.25579-0.48433 0.2046-0.16844 0.19322-0.02192-0.096 1.2372-0.14226 0.61922-0.33951 1.7931-0.40692 2.4217-0.025 0.23308-0.085 0.67852-0.13325 0.98986-0.11513 0.74224 0.0978 1.4068 0.48147 1.5031 0.2132 0.0535 0.39859-0.03321 0.74736-0.34959 0.25511-0.23141 0.6773-0.60934 0.93822-0.83982 0.39221-0.34649 0.47059-0.49042 0.45256-0.83102-0.0347-0.65438-0.23503-3.0775-0.37296-4.51-0.0833-0.86524-0.0858-1.3891-0.007-1.5358 0.14842-0.27734 0.15644-1.0489 0.0118-1.1383-0.0591-0.03649-0.17469 0.01478-0.25699 0.11394-0.1824 0.21978-0.36229 0.23417-0.36173 0.02894 0.00024-0.08325 0.16847-0.56001 0.37387-1.0595 0.46718-1.136 0.95844-2.8307 1.1934-4.1168 0.21018-1.1503 0.40918-2.0026 0.49475-2.119 0.049-0.0666 0.12644-0.29592 0.17212-0.50961 0.0457-0.21369 0.21543-0.66295 0.37723-0.99834 0.1618-0.3354 0.29418-0.66531 0.29418-0.73313s0.0531-0.21793 0.11804-0.33357c0.0649-0.11564 0.26104-0.56442 0.43583-0.99729 0.58025-1.4371 1.2599-2.5942 1.9914-3.3903 0.39772-0.43287 0.72332-0.84853 0.72355-0.92368s0.31372-0.40086 0.69664-0.7238c0.38293-0.32293 0.72347-0.61824 0.75677-0.65623 0.0739-0.08432 0.82618-0.61711 1.1068-0.78391 0.11207-0.0666 0.45646-0.29817 0.76536-0.5146 0.30888-0.21644 0.61445-0.39352 0.67902-0.39352 0.0646 0 0.45689-0.14209 0.87179-0.31576 1.0181-0.42617 2.4279-0.76367 4.0726-0.97499 1.1342-0.14573 3.5245 0.70915 4.318 1.5444 0.79471 0.83647 0.93894 0.88776 2.7151 0.96546 0.89977 0.03937 1.754 0.13484 1.8983 0.21218 0.24219 0.12979 1.2698 1.5514 1.4377 1.9889 0.0402 0.1045-0.0628 0.48662-0.22859 0.84915-0.28838 0.63046-0.69561 1.0395-1.5926 1.5996-0.99212 0.61953-2.419 1.9708-2.9447 2.7886-0.17123 0.26638-0.40412 0.59331-0.51755 0.7265-0.25207 0.296-1.0413 2.1894-1.0858 2.605-0.0306 0.28569 0.26283 1.4753 0.4924 1.9962 0.0587 0.13319 0.13675 0.46012 0.17345 0.7265 0.21459 1.5579 0.2463 1.8842 0.24792 2.5517 0.002 0.58203-0.0746 0.88516-0.36455 1.453-0.31773 0.62233-0.41701 0.72249-0.74823 0.75484-0.37092 0.03623-1.6098-0.40612-1.6098-0.57479 0-0.04613-0.2255-0.21062-0.50111-0.36552l-0.50113-0.28165-0.22177 0.28962c-0.48224 0.62977-1.6687 3.1341-1.9729 4.1643-0.17698 0.59936-0.37407 1.2555-0.43795 1.4581-0.1822 0.57776-0.36827 2.6907-0.41372 4.6983-0.0382 1.6857-0.27846 3.7562-0.55721 4.8017-0.13504 0.50646-0.14949 0.64496-0.13077 1.2531 0.0208 0.67578 0.57094 1.1686 1.3045 1.1686 0.29595 0 0.70417-0.08588 0.90717-0.19086 0.20298-0.10497 0.45909-0.21177 0.56913-0.23733 0.11003-0.02556 0.44524-0.1372 0.74493-0.24809 1.3308-0.49245 2.673-0.50038 3.9352-0.02324 0.47434 0.17931 1.2714 0.79979 1.2714 0.98974 0 0.19727-0.60048 0.75262-0.91659 0.8477-0.35938 0.1081-1.9938 1.72-2.4672 2.4331-0.54615 0.82282-0.73502 1.3974-0.84679 2.5761-0.14949 1.5766-0.4852 1.7755-1.8353 1.0875zm0.74942-0.90812c0.006-0.11654 0.002-0.43434-0.008-0.70623-0.0199-0.51501 0.7562-2.5248 1.1379-2.9465 0.10487-0.11588 0.19135-0.26088 0.19219-0.32224 0.002-0.18905 1.3542-1.3103 1.845-1.5306 0.50582-0.22698 0.8173-0.4895 0.8173-0.68882 0-0.06999-0.22832-0.24375-0.50738-0.38612-0.71381-0.36415-2.079-0.28511-2.9435 0.17042-1.4383 0.75792-2.9033 1.4265-3.3998 1.5515-0.60273 0.15177-0.67616 0.3492-0.23691 0.637 0.39521 0.25896 0.57286 0.61355 0.61534 1.2283 0.10016 1.4497 0.79756 2.7055 1.6877 3.0394 0.54896 0.20588 0.78744 0.19214 0.80008-0.04609zm-3.5226-5.4533c0-0.03694-0.0954-0.17268-0.21191-0.30166-0.18448-0.20417-0.2104-0.48732-0.20034-2.189 0.006-1.0978 0.082-2.2995 0.17214-2.7416 0.0883-0.43287 0.17717-1.3864 0.19742-2.119 0.0638-2.3068 0.2734-4.849 0.45553-5.5244 0.32251-1.1961 0.5693-1.9793 0.74495-2.3643 0.0958-0.20985 0.17412-0.41382 0.17412-0.45325 0-0.17783 1.6118-3.4083 1.8704-3.7488 0.3815-0.5023 1.4442-2.5523 1.6411-3.1657 0.0855-0.26638 0.22945-0.59181 0.31986-0.72317 0.0904-0.13136 0.1644-0.33127 0.1644-0.44425 0-0.19378 0.0761-0.37205 0.62259-1.4599 0.12374-0.24628 0.22499-0.54693 0.22499-0.66812s0.13622-0.4208 0.3027-0.66582c0.1665-0.24501 0.30271-0.50466 0.30271-0.57701 0-0.24354 0.62818-1.3896 1.1296-2.0608 0.79981-1.0707 1.7911-1.973 2.8487-2.593 0.54238-0.31798 0.98615-0.6547 0.98615-0.74826 0-0.19858-0.6837-0.23318-0.96865-0.04903-0.15352 0.09921-0.14728 0.11766 0.0404 0.11923 0.32407 0.0027 0.17483 0.29844-0.17093 0.33871-0.16126 0.01878-0.70187 0.13841-1.2014 0.26583-0.49946 0.12743-1.2623 0.29228-1.6952 0.36634-1.1558 0.19774-1.1814 0.2032-2.3006 0.49041-0.56606 0.14527-1.2438 0.3667-1.506 0.49208-0.26224 0.12538-0.57629 0.22797-0.69788 0.22797-0.2203 0-0.59932 0.17742-0.94427 0.44203-0.0999 0.07663-0.38009 0.19321-0.62267 0.25908-0.49443 0.13426-1.7079 0.92163-2.2392 1.4528-0.19196 0.19196-0.46858 0.413-0.61474 0.49122-0.14614 0.07821-0.46817 0.45495-0.71563 0.8372-0.24745 0.38225-0.52065 0.75418-0.60712 0.82653-0.20948 0.1753-0.91356 1.5215-0.83621 1.5988 0.0334 0.03345 0.36644-0.05614 0.73999-0.19909 0.79072-0.30259 1.0209-0.3236 1.0209-0.09319 0 0.14793-1.0217 0.68087-1.3053 0.68087-0.0606 0-0.2138 0.11455-0.3405 0.25456-0.12672 0.14001-0.39315 0.33873-0.59208 0.4416s-0.52598 0.34054-0.72678 0.52816-0.50218 0.46566-0.66975 0.61788c-0.16756 0.15222-0.46451 0.52195-0.65988 0.82163s-0.45914 0.66358-0.58617 0.80866c-0.12702 0.14508-0.2093 0.32873-0.18284 0.40811 0.0265 0.07939 0.39784-0.25014 0.82527-0.73227 0.7261-0.81899 1.0746-1.1053 2.1692-1.7822 1.0332-0.63897 2.1417-1.0398 2.0411-0.73808-0.0503 0.15116-1.097 0.78306-1.883 1.1369-0.39929 0.17973-1.7376 1.4601-2.6192 2.5059-0.76376 0.90597-1.6782 2.7464-1.8187 3.6602-0.0409 0.26638-0.10409 0.57968-0.14031 0.69623-0.17147 0.55174 0.98665-0.01855 2.0483-1.0086 0.28812-0.26869 1.3089-1.0615 1.7768-1.38 1.4953-1.0178 1.7169-1.2053 1.9386-1.6398 0.1325-0.2597 0.24211-0.54247 0.24359-0.62837 0.002-0.08589 0.10708-0.29204 0.23465-0.4581 0.36103-0.4699 0.42993-0.05893 0.15545 0.92707-0.20173 0.7246-0.29722 0.87759-0.76569 1.2268-0.29438 0.21942-0.64884 0.50256-0.78771 0.62919-0.13886 0.12663-0.4113 0.30004-0.60541 0.38534-0.19412 0.0853-0.46191 0.27284-0.5951 0.41675s-0.35393 0.29522-0.49054 0.33625c-0.1366 0.04103-0.45675 0.28799-0.71142 0.5488-0.43369 0.44414-0.45455 0.49859-0.32896 0.85883 0.15984 0.45855 0.43049 3.0154 0.32983 3.1161-0.13917 0.13916-0.22887-0.09879-0.27189-0.72122-0.0241-0.34854-0.0972-0.82612-0.16258-1.0613-0.0654-0.23518-0.1191-0.62871-0.11947-0.87451s-0.0602-0.48372-0.13301-0.52871c-0.0728-0.04498-0.41334 0.05946-0.75677 0.23211-0.34344 0.17264-0.81513 0.32883-1.0482 0.34708l-0.4238 0.03318 0.0177-1.0897c0.014-0.8706 0.0971-1.3332 0.4133-2.3006 0.64945-1.9873 1.974-4.1162 3.1837-5.1171 0.27622-0.22853 0.55039-0.53287 0.60928-0.67631 0.52523-1.2794 1.6838-3.2177 2.1461-3.5906 0.0413-0.03329 0.51727-0.46363 1.0577-0.95629 0.54048-0.49266 1.1064-0.96395 1.2575-1.0473 0.73856-0.40725 2.1183-1.0597 2.7058-1.2795 0.36117-0.13513 0.65666-0.28886 0.65666-0.34162 0-0.05277-0.25562-0.19356-0.56804-0.31287-0.67687-0.2585-1.6265-1.0888-1.5308-1.3383 0.096-0.25009 0.37487-0.21211 0.46217 0.06294 0.11419 0.35977 1.3196 0.77265 1.9999 0.68501 1.0393-0.13388 3.2819-0.62102 4.2379-0.92055 0.5642-0.17677 2.1933-0.49369 3.0511-0.59357 0.3795-0.04418 0.72659-0.11692 0.77131-0.16164 0.17014-0.17014-0.074-0.90192-0.34312-1.0284-0.56826-0.26709-1.7675-0.51098-2.8739-0.58444-1.0576-0.07022-1.8162-0.30203-1.8162-0.55496 0-0.14493-1.6387-1.1841-2.1972-1.3934-0.46799-0.17535-0.98616-0.28016-2.2224-0.4495-0.19978-0.02737-0.60845 0.0027-0.90812 0.06684-0.29969 0.06413-0.65385 0.13207-0.78704 0.15097-1.104 0.15671-2.8825 0.91464-4.2984 1.8319-0.70046 0.45376-2.0471 1.6793-2.5428 2.314-0.74321 0.95178-1.9273 3.0052-2.2916 3.974-0.15026 0.39957-0.34885 0.9172-0.4413 1.1503-0.0925 0.23308-0.28134 0.8052-0.41974 1.2714-0.1384 0.46617-0.30797 1.0287-0.37681 1.2501-0.0688 0.22139-0.19964 0.848-0.29063 1.3925-0.091 0.54446-0.24768 1.3472-0.34819 1.7839-0.6144 2.6693-0.71764 9.1768-0.1987 12.525 0.34103 2.2005 0.75757 3.79 1.3295 5.0733 0.1217 0.27307 0.24195 0.55098 0.26721 0.61758 0.11973 0.31556 1.1098 1.7557 1.2071 1.7557 0.0606 0 0.11022 0.07919 0.11022 0.17597 0 0.34105 1.5964 1.3088 2.8037 1.6996 1.4997 0.48546 1.6476 0.38009 0.7951-0.56613-0.56197-0.62371-1.2006-1.4772-1.3875-1.8543-0.10627-0.21446-0.30518-4.6386-0.32662-7.265-0.0104-1.2599 0.20916-1.3245 0.31518-0.09269 0.0445 0.51715 0.11684 1.3489 0.16072 1.8484 0.0439 0.49947 0.14777 1.7829 0.23084 2.852 0.19027 2.4488 0.39327 2.9285 1.8347 4.3362 0.85125 0.83134 1.0815 0.9869 1.8109 1.2232 0.74687 0.242 1.2701 0.27908 1.2701 0.09001zm-0.2309-33.37c-0.21937-0.26432 0.0433-0.70604 0.39044-0.65662 0.3741 0.05325 0.38405 0.747 0.0114 0.80023-0.13901 0.01987-0.31988-0.04476-0.40191-0.14361zm6.164 13.83c0-0.97607-0.0416-1.2775-0.20039-1.453-0.28287-0.31256-0.35445-0.28212-0.56315 0.23949-0.1014 0.2535-0.27379 0.53508-0.38301 0.62573-0.39673 0.32925-0.44416 0.57532-0.19111 0.99141 0.22716 0.37354 0.85913 0.81189 1.1863 0.82286 0.11149 0.0037 0.15135-0.31925 0.15135-1.2265zm0.96577-0.73603c-0.002-0.7492-0.0595-1.5801-0.12872-1.8465-0.0692-0.26638-0.18129-0.7159-0.24908-0.99894-0.14325-0.59812-0.26258-0.64597-0.45292-0.18162-0.14601 0.35619-0.10923 1.1204 0.0918 1.9071 0.0681 0.26638 0.2178 0.93385 0.33276 1.4833 0.11496 0.54941 0.25402 0.99894 0.30904 0.99894 0.055 0 0.0987-0.61298 0.0971-1.3622zm2.0939-12.036c-0.082-0.03317-0.24544-0.03518-0.36325-0.0045-0.11781 0.0307-0.0507 0.05784 0.14905 0.0603 0.19979 0.0025 0.29618-0.02265 0.2142-0.05582zm-22.19 15.475c0-0.25554 0.15381-0.50432 0.31177-0.50432 0.11887 0 0.13733 0.07416 0.0663 0.2662-0.10233 0.27662-0.37806 0.45029-0.37806 0.23812zm0.36326-0.86043c0-0.06267 0.0545-0.14761 0.12108-0.18877 0.0666-0.04116 0.12109 0.01007 0.12109 0.11394 0 0.10382-0.0545 0.18877-0.12109 0.18877-0.0666 0-0.12108-0.05127-0.12108-0.11394z"/>
 </g>
</svg>
