<?xml version="1.0" encoding="UTF-8" standalone="no"?>
<!-- Created with Inkscape (http://www.inkscape.org/) -->
<svg id="svg2" xmlns:rdf="http://www.w3.org/1999/02/22-rdf-syntax-ns#" xmlns="http://www.w3.org/2000/svg" height="45" width="67.5" version="1.1" xmlns:cc="http://creativecommons.org/ns#" xmlns:dc="http://purl.org/dc/elements/1.1/">
 <metadata id="metadata7">
  <rdf:RDF>
   <cc:Work rdf:about="">
    <dc:format>image/svg+xml</dc:format>
    <dc:type rdf:resource="http://purl.org/dc/dcmitype/StillImage"/>
    <dc:title/>
   </cc:Work>
  </rdf:RDF>
 </metadata>
 <g id="g3423">
  <rect id="rect2990" opacity="0" height="45" width="67.5" y="0" x="3.5527e-15"/>
  <g id="g4366" fill-rule="evenodd" transform="translate(-.001 -4.5)">
   <path id="path11" fill="#fff" d="m16.65 16.894c-0.09075 0.92926-1.0418 0.99827-1.44 1.6201-0.49051-0.72226 0.66751-2.1458 1.44-1.6201z"/>
   <path id="path13" fill="#fff" d="m54.631 24.094c-0.084 2.9161-1.7941 4.2068-2.8808 6.1201-0.54526 0.19875-1.8225 0.34051-2.3393 0 0.09075-1.3088 1.056-0.94052 1.7993-1.6201 1.4408-1.317 1.053-4.1649 3.4208-4.5001z"/>
   <path id="path9" d="m53.467 5.1506c0.69428 0.017024 0.70316 0.71797 1.0659 1.0659 3.6668 0.076981 6.2455 2.145 8.8817 2.6645 0.89192 0.11399 0.88374 1.1288 1.7764 1.2436 0.52182-0.75422 1.1065-2.2834 2.1317-1.954 0.13101 1.9074-1.316 2.236-1.7764 3.5528 1.9008 2.7097-0.41302 7.3299 1.954 10.125-0.58104 0.89859-0.88082 2.0799-1.7756 2.6645-0.92964 0.04145-1.1562-0.62026-2.1317-0.53292-0.63507-3.7778-5.0361-4.6327-4.7963-8.7047-3.9976-1.5721-4.8821 3.7815-3.1976 5.8621 2.0429-0.03849 4.5454-0.19319 4.7963 1.5987 0.15396 1.0976-1.1147 2.1013-1.7764 3.5528-1.0191 2.236-1.484 4.7823-3.9073 5.3292-0.09474 0.61582-0.47593 0.94517-0.53367 1.5987-0.94449 0.3575-1.5884 1.017-2.6645 1.2435-0.75279-0.37304-0.92596-1.3242-1.0659-2.3093-0.82531 0.1843-1.7697 1.1858-2.4863 0.88817-1.3035-0.74684-0.16283-2.7356-0.35528-3.9081 4.1701 1.0548 3.9326-3.1235 5.1516-4.4409-4.0983 0.77049-7.5706 3.1702-11.902 2.8423-2.8119-0.21242-7.1152-1.5595-9.2364-0.35454-2.0096 1.1406-1.9444 3.8133-4.0857 4.7956-0.68836 0.31606-1.9874 0.68466-2.6645 0.88817-4.5653 1.3716-10.294 2.7119-12.258 7.1056-0.64543 1.4455-0.3168 2.8704-1.0659 4.4409-0.97186 2.0392-2.8622 3.35-5.8621 4.4409-0.6578-0.882-0.2374-2.842-0.3551-4.264 0.9608-1.35 2.2546-0.512 3.3752-1.243 1.0444-0.68095 1.0096-2.2264 1.4211-3.5528 0.60694-1.9585 1.5462-3.9236 1.954-5.5068-2.3782 0.88966-2.5417 5.4033-3.7304 7.6389-2.0167 0.64652-3.3548 1.9733-5.8606 2.1323-0.34126-2.2965 0.45976-3.4486 1.2436-4.6186 1.0607-0.01259 1.3575-0.21465 2.3093 0 2.0051-1.9614 1.9489-5.9857 2.8423-9.0594 1.8556-1.5026 5.5557-0.85786 6.928-2.6645 1.0007-1.316 0.6358-3.3619 0.53292-5.6845-3.944 4.594-8.3114 10.75-16.343 9.591 3.4159-1.321 5.572-3.698 7.8159-6.395 1.7735-2.1309 3.1331-5.048 4.974-6.928 1.4803-1.5122 4.2324-3.4426 6.395-3.7304 0.96077-0.12805 1.8556 0.31235 2.8423 0.17764 1.3812-0.18874 2.8541-1.3938 4.4409-1.5987 4.518-0.58326 9.5784 1.3745 14.033-0.35528-0.12657-0.85786-0.82307-0.04219-0.88817-0.88817 1.8475-1.1732 4.0887-1.7342 6.2174-1.954 0.14877-0.86304 0.6358-0.9837 1.4211-0.53292 0.48851-1.1006 1.2546-2.8312 2.6645-1.954 0.23389-0.55068-0.52627-0.98594 0-1.2435 0.84894-0.079201 0.77942 0.76014 1.4211 0.88817 0.75646-0.6025 2.0214-0.7002 2.1295-1.954zm-35.35 13.5c0.39302-0.6136 1.3315-0.6817 1.4211-1.5987-0.76238-0.51886-1.9052 0.88599-1.4211 1.5987zm35.528 9.9477c-0.7335 0.6706-1.6861 0.30717-1.7756 1.5987 0.50998 0.33603 1.7712 0.19614 2.3086 0 1.0726-1.8882 2.7601-3.162 2.843-6.0398-2.3367 0.33086-1.954 3.1412-3.3759 4.4409z"/>
  </g>
 </g>
</svg>
