<?xml version="1.0" encoding="UTF-8" standalone="no"?>
<!-- Created with Inkscape (http://www.inkscape.org/) -->
<svg id="svg2" xmlns:rdf="http://www.w3.org/1999/02/22-rdf-syntax-ns#" xmlns="http://www.w3.org/2000/svg" height="54" width="99" version="1.1" xmlns:cc="http://creativecommons.org/ns#" xmlns:dc="http://purl.org/dc/elements/1.1/">
 <metadata id="metadata7">
  <rdf:RDF>
   <cc:Work rdf:about="">
    <dc:format>image/svg+xml</dc:format>
    <dc:type rdf:resource="http://purl.org/dc/dcmitype/StillImage"/>
    <dc:title/>
   </cc:Work>
  </rdf:RDF>
 </metadata>
 <g id="g3519">
  <rect id="rect2990" opacity="0" height="54" width="99" y="0" x="0"/>
  <g fill-rule="evenodd">
   <path id="path11" d="m31.891 16.593c-0.09345 0.95694-1.0728 1.028-1.4829 1.6683-0.50512-0.74377 0.68739-2.2097 1.4829-1.6683z" fill="#fff"/>
   <path id="path13" d="m71.003 24.008c-0.0865 3.0029-1.8475 4.3321-2.9666 6.3024-0.5615 0.20467-1.8768 0.35065-2.409 0 0.09345-1.3478 1.0875-0.96853 1.8529-1.6683 1.4837-1.3562 1.0844-4.2889 3.5227-4.6341z" fill="#fff"/>
   <path id="path9" d="m69.804 4.5c0.71496 0.017531 0.7241 0.73935 1.0976 1.0976 3.776 0.079274 6.4315 2.2089 9.1462 2.7439 0.91848 0.11738 0.91006 1.1624 1.8293 1.2806 0.53736-0.77668 1.1395-2.3514 2.1952-2.0122 0.13491 1.9642-1.3552 2.3026-1.8293 3.6586 1.9574 2.7904-0.42532 7.5482 2.0122 10.427-0.59834 0.92535-0.90705 2.1418-1.8285 2.7439-0.95733 0.04268-1.1906-0.63873-2.1952-0.54879-0.65398-3.8903-5.1861-4.7707-4.9391-8.9639-4.1167-1.6189-5.0275 3.8941-3.2928 6.0367 2.1037-0.03964 4.6808-0.19894 4.9391 1.6463 0.15854 1.1303-1.1479 2.1639-1.8293 3.6586-1.0495 2.3026-1.5282 4.9247-4.0237 5.4879-0.09756 0.63416-0.4901 0.97332-0.54956 1.6463-0.97262 0.36815-1.6357 1.0473-2.7439 1.2805-0.77521-0.38415-0.95354-1.3636-1.0976-2.3781-0.84989 0.18979-1.8224 1.2211-2.5603 0.91462-1.3423-0.76908-0.16768-2.8171-0.36586-4.0245 4.2943 1.0862 4.0497-3.2165 5.305-4.5732-4.2204 0.79344-7.7961 3.2646-12.256 2.9269-2.8956-0.21875-7.3271-1.6059-9.5115-0.3651-2.0694 1.1746-2.0023 3.9269-4.2074 4.9384-0.70886 0.32547-2.0466 0.70505-2.7439 0.91462-4.7013 1.4124-10.601 2.7927-12.623 7.3172-0.66465 1.4886-0.32623 2.9559-1.0976 4.5732-1.0008 2.0999-2.9474 3.4498-6.0367 4.5732-0.6776-0.90782-0.24467-2.9261-0.36586-4.3903 0.98938-1.3903 2.3217-0.52745 3.4757-1.2806 1.0755-0.70123 1.0397-2.2927 1.4634-3.6586 0.62502-2.0168 1.5923-4.0405 2.0122-5.6708-2.449 0.91616-2.6174 5.5642-3.8415 7.8664-2.0768 0.66577-3.4547 2.0321-6.0351 2.1958-0.35142-2.3649 0.47345-3.5513 1.2806-4.7561 1.0923-0.01296 1.3979-0.22104 2.3781 0 2.0648-2.0198 2.0069-6.164 2.9269-9.3292 1.9109-1.5473 5.7212-0.88341 7.1343-2.7439 1.0305-1.3552 0.65474-3.462 0.54879-5.8538-4.0619 4.7326-8.5592 11.072-16.83 9.8784 3.5176-1.3606 5.7379-3.808 8.0487-6.5855 1.8263-2.1944 3.2264-5.1983 5.1221-7.1343 1.5244-1.5572 4.3584-3.5451 6.5855-3.8415 0.98938-0.13186 1.9109 0.32165 2.9269 0.18293 1.4223-0.19436 2.9391-1.4353 4.5732-1.6463 4.6526-0.60063 9.8637 1.4154 14.451-0.36586-0.13034-0.88341-0.84758-0.04345-0.91462-0.91462 1.9025-1.2081 4.2105-1.7858 6.4026-2.0122 0.1532-0.88874 0.65474-1.013 1.4634-0.54879 0.50306-1.1334 1.292-2.9155 2.7439-2.0122 0.24086-0.56708-0.54194-1.0153 0-1.2805 0.87422-0.08156 0.80263 0.78278 1.4634 0.91462 0.77899-0.62044 2.0816-0.72105 2.1929-2.0122zm-36.403 13.902c0.40473-0.63188 1.3712-0.702 1.4634-1.6463-0.78509-0.53431-1.9619 0.91238-1.4634 1.6463zm36.586 10.244c-0.75535 0.69057-1.7363 0.31632-1.8285 1.6463 0.52517 0.34604 1.824 0.20198 2.3774 0 1.1045-1.9444 2.8423-3.2562 2.9277-6.2197-2.4063 0.34071-2.0122 3.2348-3.4764 4.5732z"/>
  </g>
 </g>
</svg>
