<?xml version="1.0" encoding="UTF-8" standalone="no"?>
<!-- Created with Inkscape (http://www.inkscape.org/) -->
<svg id="svg2" xmlns:rdf="http://www.w3.org/1999/02/22-rdf-syntax-ns#" xmlns="http://www.w3.org/2000/svg" height="54" width="99" version="1.1" xmlns:cc="http://creativecommons.org/ns#" xmlns:dc="http://purl.org/dc/elements/1.1/">
 <metadata id="metadata7">
  <rdf:RDF>
   <cc:Work rdf:about="">
    <dc:format>image/svg+xml</dc:format>
    <dc:type rdf:resource="http://purl.org/dc/dcmitype/StillImage"/>
    <dc:title/>
   </cc:Work>
  </rdf:RDF>
 </metadata>
 <g id="g4101">
  <rect id="rect2990" opacity="0" height="54" width="99" y="0" x="0"/>
  <path id="path4005" d="m21.481 49.216c-1.4392-0.20157-4.2194-0.37774-6.1783-0.39149-2.8385-0.01993-3.5616-0.10722-3.5616-0.43 0-0.4632 0.61727-0.75796 1.5873-0.75796 0.36711 0 0.83035-0.19625 1.0294-0.43611 0.21995-0.26501 0.85678-0.43611 1.6232-0.43611 0.6937 0 1.3973-0.16354 1.5636-0.36343 0.16626-0.19988 0.53459-0.66855 0.81848-1.0415 0.50956-0.66936 0.52915-0.67151 1.5263-0.16756 0.55556 0.28078 1.376 0.69501 1.8231 0.92052 1.1096 0.55961 1.7539 0.06924 1.3399-1.0198-0.31314-0.8236-0.16744-1.5264 0.31643-1.5264 0.16888 0 0.43142 0.32708 0.58341 0.72685 0.19146 0.50359 0.49616 0.72685 0.99198 0.72685 0.59366 0 0.73116-0.15988 0.80673-0.93813 0.0878-0.90384 0.13646-0.93661 1.3319-0.89664 1.4765 0.04936 1.7791-0.37539 2.5537-3.5846l0.49216-2.039-0.73851-1.5431c-0.51033-1.0663-0.66818-1.7332-0.51092-2.1583 0.4006-1.0829 1.0209-0.72044 1.1861 0.69314 0.27761 2.3753 0.90741 2.5885 1.4667 0.49652 0.44634-1.6695 0.59742-1.8057 2.9808-2.6883 1.2711-0.47072 2.382-1.1061 2.8425-1.6258 0.65612-0.74048 0.85614-0.81496 1.5155-0.56426 0.82996 0.31555 2.4446-0.06724 2.9644-0.7028 0.16126-0.19715 1.0117-0.72091 1.8898-1.1639 2.4317-1.2268 2.6382-1.8622 0.89426-2.7519-0.62616-0.31944-1.4134-0.96685-1.7493-1.4387-0.78004-1.0955-2.3371-1.6424-3.5108-1.2333-1.0484 0.36548-1.2275 0.1265-0.86154-1.1496 0.39584-1.3802 0.39736-1.3761-0.74591-2.0506-1.8476-1.0901-2.3936-3.2925-1.3704-5.5284 0.41212-0.9006 0.72977-1.1685 1.6718-1.41 1.5037-0.38547 2.0149-0.68084 2.1224-1.2262 0.107-0.543-0.54-0.715-3.576-0.953-3.212-0.252-5.257-0.6758-6.972-1.4462-4.235-1.902-5.075-2.229-5.326-2.0739-0.305 0.1883-0.701 2.6383-0.699 4.3251 0.000804 0.86545-0.10937 1.0903-0.53427 1.0903-0.2944 0-0.62277-0.14156-0.72969-0.31458-0.25166-0.40718-1.8751 1.1217-1.8751 1.7659 0 0.25865 0.4533 0.96516 1.0073 1.57 0.87993 0.96066 1.1206 1.0749 1.9027 0.90312 1.0202-0.22407 3.7771 0.34763 3.7771 0.78325 0 0.15871 0.26167 0.62122 0.58148 1.0278 0.31982 0.40658 0.58148 0.9932 0.58148 1.3036s0.58875 1.3295 1.3083 2.2646c1.0698 1.3903 1.3083 1.9214 1.3083 2.9131 0 0.74 0.22294 1.5259 0.57184 2.0159 0.48355 0.67909 0.5211 0.93749 0.24318 1.6738-0.38337 1.0157-0.09439 2.2469 0.35913 1.5298 0.14886-0.23538 0.27266-0.92829 0.27511-1.5398l0.0048-1.1118 1.381 0.04739c2.1488 0.07373 2.3986 0.02691 2.3986-0.44952 0-0.69932 0.70444-0.79775 2.1637-0.30234 0.74005 0.25126 1.7912 0.45683 2.3358 0.45683 2.0966 0 1.3702 0.92095-1.0106 1.2812-0.71958 0.1089-2.7828 0.92189-4.5848 1.8067-1.8021 0.88476-3.4314 1.557-3.6208 1.4939-0.18936-0.06312-0.5096-1.0104-0.71164-2.1051-0.248-1.344-0.69-2.478-1.36-3.485-0.545-0.822-1.256-2.011-1.578-2.642-1.692-3.309-7.004-7.499-11.292-8.906-1.656-0.544-2.069-0.579-3.349-0.284-2.288 0.528-3.5067 0.427-4.6055-0.384-1.9502-1.439-2.6482-3.584-1.5034-4.6199 0.5617-0.5083 3.4849-1.6368 4.2399-1.6368 0.23829 0 0.86302-0.36851 1.3883-0.8189 2.2255-1.9083 3.0888-2.2372 5.7523-2.1915 2.6208 0.044968 6.1126 0.9637 8.7222 2.2949 3.129 1.5962 5.3762 2.2579 10.321 3.0393 0.79954 0.12633 2.212 0.4293 3.1388 0.67326 1.1622 0.30594 1.9644 0.36346 2.5854 0.18537 0.49515-0.14201 1.0142-0.1878 1.1534-0.10177 0.13921 0.08604 0.96383-0.10948 1.8325-0.43448 2.6805-1.0029 5.3898-1.5062 9.0252-1.6767 2.9449-0.1381 3.9876-0.059689 6.6871 0.50285 5.6384 1.175 13.446 0.55871 21.224-1.6754 3.7093-1.0653 4.588-1.0404 4.4531 0.12655-0.10569 0.9142-1.8462 2.0302-3.8457 2.4659-2.6217 0.57125-3.6231 0.77447-6.1315 1.2443-1.4392 0.26958-3.2532 0.67435-4.0311 0.8995-0.77792 0.22515-1.9631 0.40936-2.6338 0.40936-1.7089 0-2.3469 0.54466-2.3094 1.9718 0.01663 0.63393 0.23492 1.529 0.48512 1.989 0.25019 0.46004 0.99436 2.0794 1.6537 3.5985 2.0967 4.8308 2.3626 5.3381 3.524 6.7254 0.62602 0.7477 1.8234 1.7888 2.6609 2.3136 4.6309 2.9016 6.3637 4.1967 6.7435 5.0401 0.22144 0.49175 0.47184 1.8803 0.55643 3.0856 0.0846 1.2053 0.23978 2.4155 0.34486 2.6894 0.30747 0.80126 1.1482 0.57437 1.6566-0.44703 0.4102-0.82422 0.47264-0.86099 0.48886-0.2879 0.01023 0.36136 0.28026 0.88106 0.60008 1.1549s0.58148 0.65106 0.58148 0.83827c0 0.18722 0.19625 0.4157 0.43611 0.50774s0.43611 0.4254 0.43611 0.7408c0 0.76066 0.44271 1.0036 2.1575 1.1841 0.78688 0.0828 1.4847 0.31409 1.5506 0.51398 0.09022 0.2734-0.55426 0.36343-2.6017 0.36343-1.952 0-2.8981 0.12366-3.346 0.43734-0.48495 0.33967-1.4737 0.4303-4.4274 0.4058-2.0916-0.01736-3.8754-0.14874-3.9639-0.29197-0.08852-0.14324-0.39888-0.26044-0.68968-0.26044s-0.68912-0.19326-0.88516-0.42947c-0.36151-0.43559-0.40055-0.43557-4.9884 0.0034-1.2078 0.11557-1.9157 0.02506-2.6894-0.34387-1.1799-0.56263-1.3322-1.2105-0.46855-1.9921 0.31982-0.28943 0.58148-0.69448 0.58148-0.90013 0-0.71315 0.487-0.66768 1.4766 0.1379 0.92811 0.7555 1.9061 0.92123 3.8098 0.6456 0.10916-0.01579 0.28562-0.30332 0.39213-0.63892 0.17261-0.54384 0.33746-0.58863 1.516-0.41189 0.7273 0.10907 1.5653 0.34999 1.8621 0.53539 0.63506 0.3966 1.2378 0.10111 2.0715-1.0155 0.90954-1.2182 0.4316-2.6847-1.5062-4.6216-0.89461-0.89418-1.9837-1.8119-2.4202-2.0394-0.43652-0.2275-2.0065-1.0385-3.4889-1.8022-1.4824-0.76369-3.4802-1.9758-4.4397-2.6935-0.95945-0.71776-2.3103-1.6484-3.002-2.0681-1.1384-0.69082-1.3004-0.72022-1.7103-0.31033-0.98294 0.98294-0.28968 5.7681 1.2182 8.4086 1.8022 3.156 1.8941 3.4543 1.4094 4.5792-0.40205 0.93324-1.8404 4.7333-1.8404 4.8622 0 0.02925 0.1744 0.22758 0.38756 0.44073 0.28086 0.28086 1.2381 0.37453 3.4772 0.34025 2.2682-0.03472 3.1752 0.05583 3.4115 0.34062 0.88192 1.0627-3.0883 2.0118-11.347 2.7125-1.5191 0.1289-3.922 0.1856-5.3398 0.12601-2.031-0.08537-2.7317-0.0075-3.3035 0.36717-0.86224 0.56496-3.0744 0.35438-3.6465-0.34711-1.158-1.4198-1.3905-1.5667-2.1711-1.3708-0.43295 0.10866-0.98862 0.44633-1.2348 0.75036-0.37505 0.46316-0.57967 0.50258-1.2621 0.24312-0.62653-0.2382-1.1478-0.20063-2.2591 0.16284-1.306 0.42717-1.4925 0.42924-1.944 0.02152-0.52327-0.47256-1.5684-0.45522-3.6786 0.06103-0.75063 0.18364-1.3318 0.17933-1.6903-0.01253-0.37978-0.20325-0.67005-0.18976-0.95199 0.04422-0.23666 0.19641-0.76236 0.25828-1.2621 0.14853-0.47105-0.10346-0.9357-0.05988-1.0326 0.09684-0.15673 0.2536-1.2027 0.39848-5.258 0.72824-0.63963 0.05201-2.3405-0.07035-3.7796-0.27192zm6.7989-2.1438c0.60842-0.31039 1.5201-1.0357 2.0259-1.6118 0.92011-1.0479 0.9445-1.216 0.44735-3.0825-0.06755-0.25378 0.20623-0.81657 0.60851-1.2506 0.81401-0.87833 0.9154-1.4076 0.35823-1.87-0.64711-0.53706-0.99442 0.01084-1.9421 3.0637l-0.92214 2.9706-1.0706 0.17752c-1.662 0.27556-1.7975 0.3579-1.7975 1.0922 0 1.2483 0.58942 1.3796 2.2924 0.51082zm31.969-0.8111c0.72171-0.12108 1.2684-0.53846 2.1253-1.6225 1.8941-2.3962 2.0084-2.7462 1.6928-5.1812-0.50449-3.8918-1.2603-6.7416-2.0357-7.6759-0.16003-0.19282-0.40263-1.447-0.53911-2.7871-0.21784-2.1389-0.18182-2.5473 0.29485-3.3431 0.29865-0.4986 0.543-1.0943 0.543-1.3237 0-0.22946 0.4015-0.96315 0.89221-1.6304 0.58451-0.7948 0.86025-1.4764 0.79954-1.9764l-0.09268-0.76315-0.79673 0.62966c-0.4382 0.34631-0.921 0.55286-1.0729 0.45899-0.15188-0.09387-0.72646 0.22472-1.2768 0.70796-0.55038 0.48324-1.0816 0.87863-1.1804 0.87863-0.46106 0-0.10352-1.1331 0.5518-1.7488 1.116-1.0484 2.1759-3.0431 2.1759-4.0949 0-0.51861 0.21477-1.1802 0.47727-1.4703 0.44266-0.48913 0.44172-0.63838-0.01302-2.0581-0.36242-1.1315-0.83126-1.8231-1.7976-2.6517-1.1437-0.98075-1.515-1.1306-2.9671-1.1974-1.6501-0.075951-7.4454 0.50831-9.3367 0.9413-0.54441 0.12464-1.0819 0.42006-1.1943 0.65648-0.11248 0.23643-0.41934 0.84256-0.68192 1.347-0.68817 1.3219-0.60035 1.7718 0.38828 1.9889 1.3627 0.29929 2.0928-0.0567 1.9865-0.96863-0.0849-0.7288-0.0048-0.78447 1.3635-0.94564 0.79954-0.09419 1.6726-0.26788 1.9402-0.38598 0.33512-0.14791 0.58392-0.03272 0.79954 0.37019 0.48105 0.89885 0.38031 1.6799-0.44044 3.4149-0.81454 1.7218-0.76652 2.4416 0.16288 2.4416 0.32483 0 0.5906 0.18695 0.5906 0.41544 0 0.27996-0.30815 0.40736-0.94491 0.39065-0.5197-0.01364-1.907 0.38817-3.0829 0.89289-2.3712 1.0178-3.6162 1.133-5.1803 0.47952-0.80809-0.33764-1.1427-0.36016-1.4584-0.09813-0.67198 0.55769-0.33453 1.5131 0.63593 1.8005 1.4967 0.44319 2.3224 0.99702 2.4188 1.6225 0.12165 0.7886 0.85768 0.77836 0.97714-0.01361 0.06513-0.43165 0.74516-0.95849 2.2735-1.7613 1.766-0.92764 2.3821-1.1149 3.2403-0.98466 1.1093 0.16828 1.4116-0.1109 1.4116-1.3036 0-0.6899 1.031-1.3075 1.3422-0.80397 0.32802 0.53074 0.13033 2.8265-0.3404 3.9531-0.48983 1.1723-0.54715 3.8098-0.11648 5.3605 0.25777 0.92817 0.4662 1.1268 1.4648 1.3957 0.82335 0.2217 1.2467 0.53032 1.4458 1.0539 0.15482 0.40719 0.54823 0.8101 0.87426 0.89536 0.47539 0.12432 0.55812 0.31289 0.41771 0.95218-0.13662 0.62198 0.0039 0.98106 0.6414 1.634 0.91395 0.9367 3.0668 3.5421 3.4047 4.1204 0.12089 0.20689 0.06055 0.56804-0.13407 0.80255-0.19463 0.23452-0.4675 1.0346-0.60637 1.778-0.13888 0.74336-0.57241 2.0503-0.96341 2.9044-0.70851 1.5476-0.71542 1.5528-2.0445 1.5528-0.95453 0-1.3843 0.13229-1.5122 0.46545-0.21118 0.55034 0.44807 1.053 1.0691 0.81509 0.23986-0.09188 0.87336-0.24041 1.4078-0.33007zm0.04595-12.871c0-0.15991 0.13083-0.29074 0.29074-0.29074s0.29074 0.13083 0.29074 0.29074-0.13083 0.29074-0.29074 0.29074-0.29074-0.13083-0.29074-0.29074zm-2.617-12.09c0-0.51343 0.6259-0.42402 0.8056 0.11508 0.06329 0.18989-0.09207 0.34526-0.34526 0.34526s-0.46034-0.20715-0.46034-0.46034zm-3.4889-6.3934c0-0.27075 0.19781-0.41907 0.4847-0.36343 0.7294 0.14146 0.82955 0.82086 0.12101 0.82086-0.35713 0-0.60571-0.18773-0.60571-0.45743zm-0.87555 30.844c0.31798-0.38315 0.30547-1.82-0.02287-2.6207-0.28287-0.6899 0.49896-0.44261 0.85051 0.269 0.21352 0.43223 0.57331 0.8569 0.79954 0.94371 0.22622 0.08681 0.41131 0.34009 0.41131 0.56284 0 0.65057 0.55392 0.4659 0.74737-0.24916 0.09734-0.35979 0.54063-0.94432 0.9851-1.2989 0.68411-0.54584 0.95794-0.60182 1.7844-0.36479 1.3188 0.37823 1.8989 0.13957 2.2736-0.93551 0.73391-2.1053 0.15632-4.4911-1.5704-6.4864-0.41512-0.47972-1.3055-1.5163-1.9787-2.3036-0.67314-0.78725-1.7277-1.8993-2.3436-2.4713-1.6352-1.5188-1.9331-2.2817-1.9331-4.9505 0-2.5629-0.12115-2.7037-1.6482-1.9156-0.4527 0.23365-1.5754 0.74974-2.4949 1.1469-1.3939 0.60203-1.6718 0.84233-1.6718 1.4455 0 1.3875-4.0407 4.0236-7.85 5.1211-1.1993 0.34555-2.8034 0.90391-3.5647 1.2408-1.5812 0.69972-1.7593 1.1065-2.2706 5.1838-0.16511 1.3168-0.44132 2.6579-0.61378 2.9801-0.17247 0.32226-0.49839 1.3781-0.72427 2.3464-0.37728 1.6172-0.36968 1.7904 0.09342 2.129 0.72389 0.52932 1.4643 0.45727 2.7549-0.2681 0.86276-0.4849 1.2136-0.55586 1.4718-0.29766s0.43748 0.2573 0.75203-0.0038c0.3255-0.27013 0.47174-0.23786 0.69008 0.15229 0.32108 0.57375 1.5759 0.66683 1.7746 0.13164 0.07424-0.19988-0.0019-1.1822-0.17001-2.183-0.21976-1.3112-0.21524-1.9093 0.01619-2.1407 0.56397-0.56397 0.9533 0.0284 0.9533 1.4505 0 0.76415 0.19066 1.6331 0.42687 1.9453 0.40377 0.53384 0.42736 0.51326 0.43611-0.38054 0.01047-1.0692 0.17288-1.1501 0.93126-0.46374 0.49902 0.45161 0.53169 0.44374 0.53169-0.12821 0-0.95678 0.51529-1.0328 0.97926-0.14441 0.59703 1.1431 2.1082 2.5109 2.504 2.2663 0.18276-0.11296 0.45182-0.51975 0.59791-0.90398 0.34952-0.91931 0.8031-0.88712 1.0444 0.07413 0.17257 0.68757 0.23279 0.71962 0.54639 0.29074 0.19384-0.2651 0.61821-0.482 0.94304-0.482 0.3875 0 0.65334-0.24996 0.77302-0.72685 0.30523-1.2161 0.75284-0.81279 0.75284 0.6784 0 0.77289 0.08722 1.4925 0.19383 1.5991 0.34886 0.34887 1.4715 0.20332 1.838-0.23828zm-25.747-1.28c0.08761-0.14179-0.02016-0.4068-0.23963-0.5889-0.30449-0.2527-0.43667-0.23281-0.55824 0.084-0.24854 0.64766 0.44026 1.0835 0.79787 0.5049zm54.273-1.2371c0.54356-0.18255 1.2173-0.52991 1.4971-0.77192 0.7554-0.65326 0.65251-2.3829-0.21806-3.6657-0.39977-0.5891-0.73149-1.4905-0.73716-2.0031-0.0056-0.5126-0.19728-1.2591-0.42581-1.6589-0.22853-0.39977-0.42014-1.0778-0.42581-1.5068-0.01035-0.7844-0.84701-1.3458-1.4501-0.9731-0.15512 0.09587-0.64692-0.23592-1.0929-0.73732-0.44597-0.50139-1.1435-1.084-1.55-1.2947-0.40653-0.21071-1.6088-1.2442-2.6716-2.2967-1.0629-1.0525-2.0746-1.9136-2.2482-1.9136-0.40796 0-0.97543 1.4816-0.67548 1.7636 0.12587 0.11835 0.48953 0.26218 0.80813 0.31964 0.3186 0.05745 0.74598 0.45229 0.94973 0.87741 0.41492 0.86569 2.6474 2.8211 4.0268 3.5271 0.49718 0.25445 1.0637 0.84839 1.259 1.3199 0.19529 0.47147 0.68407 1.1645 1.0862 1.5401 1.0094 0.94286 1.4362 1.8797 1.662 3.6483 0.18355 1.4379 0.15069 1.543-0.67318 2.1521-0.92178 0.6815-1.2907 1.309-1.0236 1.7411 0.2169 0.35096 0.7091 0.33352 1.9029-0.0674zm-12.531-18.13c0-0.23986-0.19625-0.43611-0.43611-0.43611s-0.43611 0.19625-0.43611 0.43611 0.19625 0.43611 0.43611 0.43611 0.43611-0.19625 0.43611-0.43611zm1.7444-1.6994c0-0.21508-0.26167-0.62786-0.58148-0.91728-0.31982-0.28943-0.58148-0.83304-0.58148-1.208 0-1.0288-1.3716-0.96477-1.6329 0.07627-0.10464 0.41693-0.05935 0.84214 0.10065 0.94491s0.38277 0.48122 0.49506 0.84102c0.15969 0.5117 0.4215 0.65417 1.2022 0.65417 0.64217 0 0.998-0.13943 0.998-0.39105zm-59.62-10.058c0.35872-0.22699 0.3469-0.42091-0.08383-1.3766-0.27576-0.6118-0.46366-1.5703-0.41754-2.13 0.07705-0.93506 0.02491-1.0098-0.64301-0.92118-1.3027 0.17279-2.0352 0.84971-2.0352 1.8808 0 1.8474 1.8911 3.3622 3.1796 2.5469zm7.2831-1.2704c-0.0068-1.0895-0.33729-1.9453-0.75125-1.9453-0.6455 0-0.82132 1.3683-0.28165 2.1919 0.54222 0.82754 1.0389 0.70897 1.0329-0.2466zm59.315-1.785c4.1451-0.85859 6.3963-1.5384 6.3963-1.9316 0-0.31345-1.8004-0.076232-3.925 0.51715-0.79954 0.22331-2.6966 0.54087-4.2158 0.7057-2.7189 0.29501-3.7647 0.73915-3.3438 1.4201 0.11762 0.19031 0.4929 0.27749 0.83394 0.19374 0.34105-0.08375 2.2555-0.49104 4.2544-0.90507zm-61.781-2.7789c-0.141-0.2276-0.308-0.2445-0.502-0.0507-0.16 0.16-0.196 0.4444-0.08 0.6322 0.14067 0.22761 0.30792 0.24449 0.50174 0.050667 0.15991-0.15991 0.1958-0.44438 0.07976-0.63215zm59.936 39.343c-0.11592-0.11592-0.56566-0.21676-0.99942-0.22411-0.88759-0.01503-1.1169-0.8144-0.27987-0.9756 0.27984-0.05389 0.5088 0.04355 0.5088 0.21654 0 0.20867 0.19868 0.19138 0.59035-0.05136 0.48814-0.30254 0.63834-0.29038 0.8675 0.07022 0.4452 0.70056-0.13589 1.5158-0.68736 0.96432zm5.205-0.067c-0.09361-0.15147-0.04628-0.35199 0.10519-0.4456s0.35199-0.04628 0.4456 0.10519 0.04628 0.35199-0.10519 0.4456-0.35199 0.04628-0.4456-0.10519zm-8.592-0.607c0-0.15991 0.12311-0.29074 0.27358-0.29074s0.35444 0.13083 0.45327 0.29074-0.02428 0.29074-0.27358 0.29074-0.45327-0.13083-0.45327-0.29074zm-6.9475-2.0164c-0.49504-0.30606-0.21381-1.1818 0.37951-1.1818 0.63835 0 0.87696 0.58228 0.42411 1.035-0.24985 0.24976-0.54877 0.30437-0.80362 0.14681zm-32.739-18.045c-0.09883-0.15991-0.04109-0.29074 0.12821-0.29074 0.16935 0 0.3079 0.13083 0.3079 0.29074s-0.05766 0.29074-0.12821 0.29074-0.20907-0.13083-0.3079-0.29074zm-0.09401-3.9736c0.14146-0.7294 0.82086-0.82956 0.82086-0.12101 0 0.35713-0.18773 0.60571-0.45743 0.60571-0.27075 0-0.41906-0.19781-0.36343-0.4847zm2.6207-0.31483c0.05388-0.27984 0.29066-0.5088 0.52614-0.5088s0.47224 0.22896 0.52614 0.5088c0.06871 0.35699-0.08819 0.5088-0.52614 0.5088-0.4379 0-0.59489-0.15181-0.52614-0.5088zm-4.5618-5.0153c0.09883-0.15991 0.3028-0.29074 0.45328-0.29074 0.15047 0 0.27358 0.13083 0.27358 0.29074s-0.20398 0.29074-0.45328 0.29074c-0.24929 0-0.37241-0.13083-0.27358-0.29074zm1.8898-1.7444c0-0.15991 0.13083-0.29074 0.29074-0.29074s0.29074 0.13083 0.29074 0.29074-0.13083 0.29074-0.29074 0.29074-0.29074-0.13083-0.29074-0.29074zm-2.6167-0.72685c0-0.26651 0.14065-0.43769 0.31255-0.38039 0.1719 0.05729 0.31255 0.22847 0.31255 0.38039 0 0.15191-0.14064 0.32309-0.31255 0.38039-0.1719 0.0573-0.31255-0.11387-0.31255-0.38039zm-4.744-0.66801c-0.26915-0.29741-0.48937-0.69398-0.48937-0.88128 0-0.49469 1.0279-0.41743 1.4658 0.11017 0.30726 0.37024 0.29718 0.52757-0.0565 0.88127-0.38027 0.38027-0.48775 0.3674-0.91994-0.11017z"/>
 </g>
</svg>
