<?xml version="1.0" encoding="UTF-8" standalone="no"?>
<!-- Created with Inkscape (http://www.inkscape.org/) -->
<svg id="svg2" xmlns:rdf="http://www.w3.org/1999/02/22-rdf-syntax-ns#" xmlns="http://www.w3.org/2000/svg" height="45" width="67.5" version="1.1" xmlns:cc="http://creativecommons.org/ns#" xmlns:dc="http://purl.org/dc/elements/1.1/">
 <metadata id="metadata7">
  <rdf:RDF>
   <cc:Work rdf:about="">
    <dc:format>image/svg+xml</dc:format>
    <dc:type rdf:resource="http://purl.org/dc/dcmitype/StillImage"/>
    <dc:title/>
   </cc:Work>
  </rdf:RDF>
 </metadata>
 <g id="g3394">
  <rect id="rect2990" opacity="0" height="45" width="67.5" y="0" x="3.5527e-15"/>
  <path id="path4005" d="m11.762 39.938c-1.1295-0.15819-3.3115-0.29646-4.8488-0.30724-2.2276-0.01564-2.7952-0.08414-2.7952-0.33747 0-0.36353 0.48445-0.59486 1.2457-0.59486 0.28811 0 0.65167-0.15402 0.80788-0.34227 0.17262-0.20798 0.67241-0.34227 1.2739-0.34227 0.54443 0 1.0966-0.12834 1.2271-0.28522 0.13048-0.15687 0.41955-0.52469 0.64236-0.81738 0.39991-0.52532 0.41528-0.52701 1.1979-0.13151 0.43601 0.22036 1.0799 0.54545 1.4308 0.72244 0.87082 0.43919 1.3764 0.05434 1.0516-0.80035-0.24575-0.64636-0.1314-1.1979 0.24834-1.1979 0.13253 0 0.33858 0.2567 0.45787 0.57044 0.15026 0.39523 0.38939 0.57044 0.77852 0.57044 0.46591 0 0.57382-0.12548 0.63313-0.73625 0.0689-0.70935 0.1071-0.73507 1.0453-0.70369 1.1588 0.03873 1.3962-0.29461 2.0042-2.8132l0.38625-1.6002-0.57959-1.211c-0.40051-0.83684-0.5244-1.3602-0.40097-1.6939 0.3144-0.84987 0.80122-0.56541 0.93086 0.54399 0.21787 1.8641 0.71215 2.0315 1.1511 0.38968 0.35029-1.3102 0.46886-1.4172 2.3394-2.1098 0.99758-0.36942 1.8694-0.86808 2.2309-1.2759 0.51493-0.58113 0.67191-0.63958 1.1894-0.44284 0.65136 0.24765 1.9186-0.05276 2.3265-0.55156 0.12656-0.15472 0.794-0.56578 1.4831-0.91344 1.9085-0.9628 2.0705-1.4615 0.70182-2.1597-0.49142-0.2507-1.1093-0.7588-1.3729-1.1291-0.61218-0.85976-1.8342-1.289-2.7553-0.96791-0.8228 0.28683-0.96336 0.09928-0.67614-0.90222 0.31066-1.0832 0.31186-1.08-0.5854-1.6093-1.45-0.85552-1.8785-2.584-1.0755-4.3388 0.32344-0.70681 0.57273-0.91705 1.3121-1.1066 1.1801-0.30252 1.5813-0.53433 1.6657-0.96234 0.08397-0.42616-0.4238-0.56114-2.8065-0.74792-2.5208-0.19777-4.1257-0.53037-5.4717-1.135-3.3237-1.4927-3.9829-1.7494-4.18-1.6276-0.23936 0.14778-0.55015 2.0705-0.54858 3.3944 0.000632 0.67922-0.08583 0.85568-0.41931 0.85568-0.23105 0-0.48876-0.1111-0.57267-0.24689-0.19751-0.31956-1.4716 0.88033-1.4716 1.3859 0 0.20299 0.35576 0.75747 0.79055 1.2322 0.69058 0.75394 0.87945 0.8436 1.4933 0.70878 0.80066-0.17586 2.9643 0.27282 2.9643 0.6147 0 0.12456 0.20536 0.48754 0.45635 0.80663 0.251 0.31908 0.45635 0.77947 0.45635 1.0231 0 0.24361 0.46206 1.0434 1.0268 1.7772 0.83959 1.0911 1.0268 1.5079 1.0268 2.2862 0 0.58077 0.17496 1.1976 0.44879 1.5821 0.37949 0.53296 0.40897 0.73576 0.19084 1.3136-0.30088 0.79713-0.07408 1.7634 0.28185 1.2006 0.11683-0.18473 0.21398-0.72853 0.21592-1.2085l0.0038-0.87256 1.0838 0.03719c1.6864 0.05786 1.8824 0.02112 1.8824-0.35279 0-0.54884 0.55285-0.62608 1.698-0.23728 0.5808 0.19719 1.4058 0.35853 1.8332 0.35853 1.6454 0 1.0754 0.72277-0.79314 1.0055-0.56473 0.08547-2.184 0.72351-3.5982 1.4179-1.4143 0.69436-2.693 1.222-2.8416 1.1725-0.14964-0.0518-0.40057-0.79538-0.55941-1.6552-0.195-1.056-0.542-1.945-1.068-2.736-0.428-0.645-0.986-1.578-1.238-2.073-1.329-2.597-5.498-5.886-8.8624-6.99-1.2995-0.427-1.624-0.454-2.6286-0.223-1.7957 0.415-2.7521 0.335-3.6145-0.301-1.5305-1.13-2.0783-2.8129-1.1798-3.6259 0.44083-0.3989 2.735-1.2846 3.3275-1.2846 0.18701 0 0.67731-0.28921 1.0896-0.64268 1.7466-1.4976 2.4241-1.7558 4.5144-1.7199 2.0568 0.035291 4.7973 0.75633 6.8453 1.8011 2.4557 1.2527 4.2193 1.7721 8.1 2.3852 0.62749 0.099141 1.736 0.33691 2.4634 0.52838 0.91211 0.24011 1.5417 0.28524 2.0291 0.14548 0.3886-0.11146 0.79596-0.14738 0.9052-0.079872 0.10926 0.067521 0.75643-0.085926 1.4381-0.34099 2.1037-0.78709 4.23-1.1821 7.083-1.3159 2.3112-0.10838 3.1295-0.046848 5.2481 0.39464 4.4251 0.92216 10.553 0.43848 16.657-1.3149 2.9111-0.83606 3.6007-0.81651 3.4948 0.099313-0.08295 0.71748-1.449 1.5933-3.0182 1.9353-2.0575 0.44833-2.8435 0.60782-4.8121 0.97655-1.1295 0.21156-2.5532 0.52923-3.1637 0.70594-0.61052 0.1767-1.5407 0.32127-2.0671 0.32127-1.3412 0-1.8419 0.42746-1.8125 1.5475 0.01305 0.49751 0.18436 1.2 0.38072 1.561 0.19635 0.36104 0.78038 1.632 1.2978 2.8241 1.6456 3.7912 1.8542 4.1894 2.7656 5.2782 0.49131 0.58681 1.431 1.4038 2.0882 1.8158 3.6344 2.2773 4.9943 3.2936 5.2923 3.9555 0.17379 0.38593 0.37031 1.4757 0.43669 2.4216 0.06639 0.94594 0.18819 1.8957 0.27065 2.1107 0.24131 0.62884 0.90112 0.45078 1.3001-0.35083 0.32193-0.64686 0.37093-0.67572 0.38366-0.22595 0.0081 0.2836 0.21996 0.69146 0.47094 0.90638 0.251 0.21491 0.45635 0.51096 0.45635 0.65789s0.15402 0.32624 0.34227 0.39848c0.18824 0.07224 0.34227 0.33386 0.34227 0.58139 0 0.59697 0.34745 0.78763 1.6932 0.9293 0.61756 0.06498 1.1652 0.2465 1.2169 0.40338 0.0708 0.21457-0.43498 0.28522-2.0419 0.28522-1.5319 0-2.2745 0.09705-2.626 0.34323-0.3806 0.26657-1.1566 0.33771-3.4747 0.31848-1.6415-0.01363-3.0414-0.11673-3.111-0.22914-0.06947-0.11241-0.31304-0.20439-0.54127-0.20439-0.22822 0-0.54084-0.15168-0.69469-0.33705-0.28371-0.34185-0.31435-0.34184-3.915 0.0026-0.9479 0.0907-1.5035 0.01967-2.1107-0.26988-0.926-0.44156-1.0455-0.95001-0.36773-1.5634 0.251-0.22715 0.45635-0.54504 0.45635-0.70643 0-0.55969 0.3822-0.52401 1.1589 0.10822 0.72839 0.59292 1.4959 0.72299 2.99 0.50667 0.08567-0.01238 0.22416-0.23805 0.30775-0.50144 0.13547-0.42681 0.26485-0.46197 1.1897-0.32325 0.5708 0.08561 1.2284 0.27468 1.4614 0.42018 0.49841 0.31126 0.97144 0.07935 1.6258-0.79698 0.71382-0.95606 0.33872-2.107-1.1821-3.6271-0.7021-0.70176-1.5568-1.422-1.8994-1.6005-0.34259-0.17854-1.5748-0.81503-2.7381-1.4144-1.1634-0.59936-2.7313-1.5506-3.4844-2.1139-0.75299-0.5633-1.8131-1.2937-2.356-1.6231-0.89343-0.54216-1.0206-0.56524-1.3422-0.24355-0.77143 0.77143-0.22735 4.5269 0.95606 6.5991 1.4144 2.4768 1.4865 2.711 1.1061 3.5938-0.31553 0.73242-1.4443 3.7147-1.4443 3.8159 0 0.02295 0.13687 0.17861 0.30417 0.34589 0.22043 0.22043 0.97168 0.29393 2.7289 0.26703 1.7801-0.02725 2.4919 0.04382 2.6774 0.26732 0.69214 0.83402-2.4238 1.5789-8.9053 2.1288-1.1923 0.10117-3.078 0.14567-4.1908 0.0989-1.594-0.067-2.1438-0.0059-2.5926 0.28816-0.6767 0.44339-2.4128 0.27812-2.8618-0.27242-0.90881-1.1143-1.0913-1.2296-1.7039-1.0758-0.33978 0.08528-0.77588 0.35029-0.96909 0.58889-0.29435 0.36349-0.45493 0.39443-0.99051 0.1908-0.49171-0.18694-0.90081-0.15745-1.773 0.1278-1.025 0.33525-1.1713 0.33687-1.5257 0.01689-0.41067-0.37087-1.2309-0.35726-2.887 0.0479-0.5891 0.14412-1.0452 0.14074-1.3266-0.0098-0.29806-0.15951-0.52586-0.14892-0.74713 0.0347-0.18574 0.15415-0.59831 0.2027-0.99051 0.11657-0.36968-0.0812-0.73435-0.047-0.8104 0.076-0.123 0.19903-0.94389 0.31273-4.1265 0.57154-0.50199 0.04082-1.8369-0.05522-2.9663-0.21341zm5.3358-1.6825c0.47749-0.2436 1.193-0.81283 1.59-1.265 0.72212-0.82241 0.74126-0.95433 0.35108-2.4192-0.05302-0.19917 0.16185-0.64085 0.47756-0.98148 0.63885-0.68932 0.71842-1.1047 0.28115-1.4676-0.50786-0.4215-0.78043 0.0085-1.5242 2.4044l-0.7237 2.3314-0.84023 0.13932c-1.3044 0.21626-1.4107 0.28088-1.4107 0.85717 0 0.97968 0.46259 1.0827 1.7991 0.4009zm25.09-0.63656c0.56641-0.09502 0.99546-0.42259 1.668-1.2733 1.4865-1.8806 1.5763-2.1552 1.3286-4.0662-0.39593-3.0543-0.9891-5.2908-1.5977-6.0242-0.12559-0.15133-0.31599-1.1356-0.42311-2.1874-0.17097-1.6786-0.1427-1.9992 0.2314-2.6237 0.23438-0.39131 0.42616-0.85882 0.42616-1.0389s0.3151-0.75589 0.70021-1.2795c0.45873-0.62377 0.67513-1.1587 0.62749-1.551l-0.07274-0.59893-0.62528 0.49416c-0.3439 0.27179-0.72282 0.43389-0.84202 0.36022s-0.57013 0.17636-1.0021 0.55562c-0.43195 0.37925-0.84885 0.68956-0.92639 0.68956-0.36185 0-0.08124-0.88927 0.43306-1.3725 0.87585-0.8228 1.7077-2.3882 1.7077-3.2138 0-0.40701 0.16855-0.92623 0.37457-1.1539 0.3474-0.38388 0.34666-0.50101-0.01024-1.6152-0.285-0.887-0.653-1.43-1.412-2.08-0.897-0.7697-1.189-0.8873-2.328-0.9397-1.2951-0.059602-5.8432 0.39893-7.3275 0.73875-0.42726 0.097817-0.84909 0.32966-0.93731 0.51521-0.08828 0.18555-0.3291 0.66125-0.53517 1.0571-0.54009 1.0374-0.47116 1.3905 0.30473 1.561 1.0695 0.23488 1.6424-0.0445 1.559-0.76019-0.06663-0.57197-0.0038-0.61567 1.0701-0.74216 0.62749-0.07392 1.3127-0.21023 1.5227-0.30292 0.263-0.11608 0.45827-0.02568 0.62749 0.29053 0.37754 0.70542 0.29847 1.3184-0.34566 2.68-0.63926 1.3513-0.60158 1.9162 0.12782 1.9162 0.25494 0 0.46351 0.14672 0.46351 0.32605 0 0.21971-0.24184 0.31969-0.74158 0.30658-0.40787-0.0107-1.4966 0.30464-2.4195 0.70075-1.8609 0.79878-2.838 0.88919-4.0655 0.37633-0.6342-0.26498-0.8968-0.28265-1.1446-0.07702-0.52738 0.43768-0.26254 1.1875 0.49909 1.413 1.1747 0.34783 1.8227 0.78248 1.8983 1.2733 0.09547 0.6189 0.67312 0.61087 0.76687-0.01071 0.05112-0.33877 0.58481-0.75224 1.7843-1.3823 1.386-0.72802 1.8695-0.87499 2.543-0.77278 0.87059 0.13207 1.1078-0.08703 1.1078-1.0231 0-0.54145 0.80914-1.0261 1.0534-0.63096 0.25744 0.41653 0.10228 2.2183-0.26715 3.1024-0.38443 0.92004-0.42941 2.99-0.09142 4.207 0.2023 0.72844 0.36588 0.88432 1.1496 1.0954 0.64618 0.17399 0.97842 0.4162 1.1347 0.82712 0.12151 0.31957 0.43025 0.63578 0.68613 0.70269 0.37309 0.09756 0.43802 0.24556 0.32782 0.74728-0.10722 0.48814 0.0031 0.76994 0.50338 1.2824 0.71728 0.73514 2.4069 2.7799 2.6721 3.2338 0.09488 0.16237 0.04751 0.4458-0.10522 0.62985-0.15274 0.18405-0.3669 0.81197-0.47588 1.3954-0.10899 0.5834-0.44924 1.6091-0.7561 2.2794-0.55605 1.2146-0.56147 1.2186-1.6046 1.2186-0.74913 0-1.0864 0.10383-1.1867 0.36529-0.16574 0.43191 0.35165 0.82641 0.83904 0.63969 0.18824-0.0721 0.68542-0.18868 1.1049-0.25904zm0.03606-10.101c0-0.1255 0.10267-0.22817 0.22817-0.22817s0.22817 0.10267 0.22817 0.22817-0.10267 0.22817-0.22817 0.22817-0.22817-0.10267-0.22817-0.22817zm-2.0538-9.4884c0-0.40295 0.49121-0.33277 0.63224 0.09031 0.04967 0.14903-0.07225 0.27096-0.27096 0.27096s-0.36128-0.16258-0.36128-0.36128zm-2.7381-5.0176c0-0.21249 0.15524-0.32889 0.3804-0.28522 0.57244 0.11102 0.65104 0.64422 0.09497 0.64422-0.28028 0-0.47536-0.14734-0.47536-0.35899zm-0.68715 24.207c0.24955-0.3007 0.23974-1.4283-0.01794-2.0567-0.222-0.54145 0.39159-0.34737 0.66749 0.21112 0.16757 0.33922 0.44994 0.6725 0.62749 0.74064 0.17754 0.06813 0.3228 0.26691 0.3228 0.44172 0 0.51058 0.43472 0.36564 0.58654-0.19554 0.0764-0.28237 0.42429-0.74112 0.77312-1.0194 0.5369-0.42838 0.7518-0.47231 1.4004-0.28629 1.035 0.29683 1.4903 0.10953 1.7844-0.7342 0.57598-1.6522 0.12268-3.5247-1.2324-5.0906-0.3258-0.37649-1.0246-1.19-1.5529-1.8079-0.52829-0.61784-1.3559-1.4906-1.8393-1.9395-1.2833-1.1919-1.5171-1.7907-1.5171-3.8852 0-2.0114-0.09508-2.1219-1.2936-1.5034-0.35529 0.18338-1.2364 0.58841-1.9581 0.9001-1.094 0.47249-1.3121 0.66108-1.3121 1.1344 0 1.0889-3.1712 3.1578-6.1608 4.0191-0.94122 0.27119-2.2001 0.7094-2.7976 0.9738-1.241 0.54915-1.3807 0.86839-1.782 4.0683-0.12959 1.0334-0.34635 2.0859-0.48171 2.3388-0.13535 0.25291-0.39114 1.0815-0.56842 1.8415-0.2961 1.2692-0.29012 1.4051 0.07332 1.6709 0.56812 0.41542 1.1492 0.35888 2.162-0.21041 0.6771-0.38055 0.95244-0.43625 1.1551-0.23361 0.20263 0.20263 0.34334 0.20193 0.5902-0.003 0.25546-0.212 0.37023-0.18668 0.54158 0.11951 0.25199 0.45028 1.2368 0.52334 1.3928 0.10331 0.05827-0.15687-0.0015-0.9278-0.13343-1.7132-0.17247-1.029-0.16892-1.4984 0.01271-1.6801 0.4426-0.4426 0.74816 0.02228 0.74816 1.1384 0 0.59971 0.14964 1.2817 0.33502 1.5266 0.31689 0.41896 0.3354 0.40281 0.34227-0.29865 0.0082-0.83912 0.13568-0.90261 0.73086-0.36395 0.39164 0.35443 0.41728 0.34825 0.41728-0.10063 0-0.75089 0.4044-0.81055 0.76854-0.11333 0.46856 0.89712 1.6545 1.9706 1.9652 1.7786 0.14343-0.08865 0.3546-0.40791 0.46925-0.70946 0.27431-0.72148 0.63028-0.69623 0.81966 0.05817 0.13543 0.53962 0.1827 0.56477 0.42882 0.22817 0.15212-0.20805 0.48518-0.37828 0.74011-0.37828 0.30411 0 0.51275-0.19618 0.60668-0.57044 0.23955-0.95441 0.59084-0.63789 0.59084 0.53242 0 0.60657 0.06845 1.1713 0.15212 1.255 0.27379 0.2738 1.1549 0.15957 1.4425-0.187zm-20.207-1.004c0.06875-0.11128-0.01583-0.31926-0.18806-0.46217-0.23897-0.19833-0.3427-0.18271-0.43812 0.06592-0.19506 0.5083 0.34552 0.85034 0.62618 0.39625zm42.594-0.97089c0.42659-0.14327 0.95536-0.41588 1.175-0.60581 0.59284-0.51268 0.51209-1.8701-0.17114-2.8768-0.31374-0.46233-0.57408-1.1697-0.57853-1.5721-0.0044-0.40229-0.15483-0.98816-0.33418-1.302-0.17936-0.31374-0.32973-0.84587-0.33418-1.1826-0.0082-0.61561-0.66475-1.0562-1.1381-0.7637-0.12174 0.07524-0.50771-0.18515-0.85772-0.57866-0.35-0.3935-0.89743-0.85074-1.2164-1.0161-0.31905-0.16537-1.2626-0.97647-2.0967-1.8024-0.83417-0.82601-1.6282-1.5018-1.7645-1.5018-0.32018 0-0.76553 1.1628-0.53013 1.3841 0.09878 0.09288 0.38419 0.20576 0.63423 0.25086 0.25004 0.04509 0.58545 0.35496 0.74536 0.6886 0.32563 0.6794 2.0777 2.2141 3.1602 2.7681 0.3902 0.1997 0.8348 0.66583 0.98808 1.0359 0.15326 0.37002 0.53686 0.91392 0.85246 1.2087 0.79219 0.73997 1.1272 1.4752 1.3044 2.8633 0.14406 1.1285 0.11826 1.2109-0.52832 1.6889-0.72343 0.53485-1.013 1.0273-0.80334 1.3664 0.17023 0.27544 0.55651 0.26175 1.4934-0.05289zm-9.834-14.23c0-0.18824-0.15402-0.34227-0.34227-0.34227-0.18824 0-0.34227 0.15402-0.34227 0.34227 0 0.18824 0.15402 0.34227 0.34227 0.34227 0.18824 0 0.34227-0.15402 0.34227-0.34227zm1.3691-1.3337c0-0.16879-0.20536-0.49276-0.45635-0.7199-0.251-0.22715-0.45635-0.65378-0.45635-0.94806 0-0.80742-1.0764-0.75717-1.2815 0.05986-0.08213 0.32721-0.04658 0.66093 0.07899 0.74158s0.3004 0.37766 0.38853 0.66004c0.12533 0.40159 0.3308 0.5134 0.9435 0.5134 0.50398 0 0.78325-0.10942 0.78325-0.3069zm-46.79-7.893c0.2816-0.177 0.2723-0.329-0.0658-1.08-0.2164-0.48-0.3638-1.2323-0.3277-1.6709 0.0605-0.7338 0.0196-0.7925-0.5046-0.7229-1.0224 0.1356-1.5972 0.6668-1.5972 1.4761 0 1.4499 1.4842 2.6387 2.4954 1.9988zm5.7159-0.997c-0.0053-0.85505-0.26471-1.5266-0.5896-1.5266-0.50659 0-0.64458 1.0739-0.22104 1.7203 0.42555 0.64946 0.81534 0.55641 0.81063-0.19354zm46.551-1.4007c3.2531-0.67383 5.0199-1.2073 5.0199-1.5159 0-0.246-1.4129-0.059832-3.0803 0.40586-0.62749 0.17526-2.1163 0.42449-3.3086 0.55384-2.1338 0.23152-2.9545 0.5801-2.6243 1.1145 0.09231 0.14936 0.38684 0.21778 0.65449 0.15206 0.26766-0.06573 1.7701-0.38537 3.3389-0.71031zm-48.487-2.1801c-0.11066-0.17862-0.24172-0.19188-0.39397-0.039792-0.12557 0.12557-0.15383 0.34877-0.06279 0.49615 0.1104 0.17863 0.24166 0.19188 0.39378 0.039769 0.1255-0.1255 0.15367-0.34876 0.06259-0.49612zm47.038 30.877c-0.09098-0.09098-0.44394-0.17012-0.78435-0.17588-0.6966-0.0118-0.87655-0.63915-0.21964-0.76566 0.21962-0.04229 0.39931 0.03417 0.39931 0.16994 0 0.16377 0.15592 0.1502 0.46331-0.04031 0.3831-0.23744 0.50098-0.2279 0.68083 0.05511 0.3494 0.5498-0.10665 1.1896-0.53944 0.75681zm4.085-0.05258c-0.07347-0.11888-0.03632-0.27624 0.08255-0.34972 0.11888-0.07347 0.27624-0.03633 0.34972 0.08255 0.07347 0.11888 0.03631 0.27624-0.08255 0.34972-0.11888 0.07346-0.27624 0.03632-0.34972-0.08255zm-6.743-0.476c0-0.1255 0.09662-0.22817 0.21471-0.22817s0.27816 0.10267 0.35573 0.22817c0.07756 0.1255-0.01905 0.22817-0.21471 0.22817s-0.35573-0.10267-0.35573-0.22817zm-5.4524-1.5825c-0.38852-0.2402-0.1678-0.92749 0.29785-0.92749 0.50099 0 0.68825 0.45698 0.33285 0.81228-0.19608 0.19601-0.43068 0.23887-0.63069 0.11522zm-25.693-14.161c-0.07756-0.1255-0.03225-0.22817 0.10063-0.22817 0.13291 0 0.24164 0.10267 0.24164 0.22817s-0.04525 0.22817-0.10062 0.22817-0.16408-0.10267-0.24164-0.22817zm-0.07378-3.1186c0.11102-0.57244 0.64422-0.65105 0.64422-0.09497 0 0.28028-0.14734 0.47536-0.35899 0.47536-0.21249 0-0.32888-0.15524-0.28522-0.3804zm2.0558-0.24748c0.04229-0.21962 0.22812-0.39931 0.41292-0.39931 0.18481 0 0.37062 0.17969 0.41292 0.39931 0.05393 0.28017-0.06921 0.39931-0.41292 0.39931-0.34367 0-0.46688-0.11915-0.41292-0.39931zm-3.5801-3.936c0.07756-0.1255 0.23765-0.22817 0.35575-0.22817 0.11809 0 0.21471 0.10267 0.21471 0.22817s-0.16009 0.22817-0.35575 0.22817c-0.19564 0-0.29228-0.10267-0.21471-0.22817zm1.4831-1.3691c0-0.1255 0.10267-0.22818 0.22817-0.22818s0.22817 0.10268 0.22817 0.22818-0.10267 0.22817-0.22817 0.22817-0.22817-0.10268-0.22817-0.22817zm-2.0536-0.57044c0-0.20916 0.11039-0.3435 0.24529-0.29854s0.24529 0.17931 0.24529 0.29854-0.11038 0.25357-0.24529 0.29854c-0.1349 0.04497-0.24529-0.08937-0.24529-0.29854zm-3.7231-0.52426c-0.21123-0.23341-0.38406-0.54465-0.38406-0.69164 0-0.38824 0.80671-0.3276 1.1504 0.08647 0.24115 0.29057 0.23323 0.41405-0.04434 0.69164-0.29845 0.29845-0.3828 0.28834-0.72198-0.08647z"/>
 </g>
</svg>
