<?xml version="1.0" encoding="UTF-8" standalone="no"?>
<!-- Created with Inkscape (http://www.inkscape.org/) -->
<svg id="svg2" xmlns:rdf="http://www.w3.org/1999/02/22-rdf-syntax-ns#" xmlns="http://www.w3.org/2000/svg" height="45" width="67.5" version="1.1" xmlns:cc="http://creativecommons.org/ns#" xmlns:dc="http://purl.org/dc/elements/1.1/">
 <metadata id="metadata7">
  <rdf:RDF>
   <cc:Work rdf:about="">
    <dc:format>image/svg+xml</dc:format>
    <dc:type rdf:resource="http://purl.org/dc/dcmitype/StillImage"/>
    <dc:title/>
   </cc:Work>
  </rdf:RDF>
 </metadata>
 <g id="g3367">
  <rect id="rect2990" opacity="0" height="45" width="67.5" y="0" x="3.5527e-15"/>
  <path id="path4079" d="m28.229 44.851c-0.0851-0.0851-1.0105-0.12799-2.0564-0.0952-1.5141 0.0474-1.9841-0.0151-2.3061-0.30652-0.35906-0.32494-0.47297-0.33017-1.0143-0.0465-0.55971 0.29326-0.67269 0.27683-1.3754-0.20007-0.57785-0.39214-0.86519-0.46631-1.1715-0.3024-0.6926 0.37067-1.7293 0.25957-1.9819-0.2124-0.12645-0.23627-0.22991-1.0542-0.22991-1.8177 0-0.97715-0.14496-1.6875-0.48968-2.3996-0.43366-0.89582-0.50021-1.4577-0.58172-4.9112-0.10155-4.3024 0.23958-6.8749 1.1917-8.9867 0.27537-0.61076 0.70343-1.7601 0.95126-2.5541 0.60579-1.9408 2.2601-5.8481 3.0571-7.2205 0.35548-0.6121 0.84621-1.4616 1.0905-1.8878 0.2443-0.42618 1.2937-1.6061 2.332-2.6221 2.4747-2.4215 4.2236-3.2983 6.6973-3.3578 0.33471-0.008 0.9981-0.35535 1.534-0.8031 1.1467-0.95804 2.2145-1.4268 3.3517-1.4713 0.70691-0.0277 0.85436-0.11337 0.85505-0.49677 0.001-0.57725 0.77693-1.8784 1.222-2.0492 0.18253-0.07 0.33187-0.26904 0.33187-0.44222s0.25742-0.41274 0.57204-0.53236 1.0034-0.51428 1.5306-0.87702c0.63384-0.43609 1.2113-0.65123 1.7044-0.63504 0.4102 0.0135 1.136-0.1404 1.6128-0.34192 0.47682-0.20152 0.9107-0.32265 0.96418-0.26918 0.2303 0.2303-0.22923 1.009-0.6765 1.1463-0.94991 0.2917-1.932 1.6778-1.932 2.7268 0 0.97632 1.1663 3.0205 2.2997 4.0308 3.2929 2.9352 4.4628 4.6105 4.4702 6.4011 0.003 0.82847-0.10243 1.048-0.77337 1.604-0.42753 0.35431-1.1271 0.81145-1.5547 1.0159-0.42753 0.20442-1.327 0.83619-1.9988 1.4039-1.6813 1.4208-2.3186 1.7902-3.0884 1.7902-0.86729 0-1.0968-0.41186-0.48622-0.87245 0.80302-0.60572 0.40236-1.136-0.8233-1.0896-0.61118 0.0231-1.0529-0.0653-1.1049-0.22121-0.14766-0.443-0.71584-0.28521-0.71584 0.1988 0 0.25219-0.29037 0.70286-0.64528 1.0015-0.44591 0.37521-0.78823 1.0136-1.108 2.0663-0.25448 0.83782-0.61373 1.6487-0.79833 1.8019s-0.33564 0.41623-0.33564 0.5845c0 0.51376 0.73497 0.32531 1.5547-0.39864 0.42753-0.37759 0.6524-0.61749 0.49971-0.5331-0.15269 0.0844-0.27762 0.0476-0.27762-0.0818 0-0.37192 0.95241-0.25971 1.4705 0.17325 0.25908 0.21652 0.53343 0.5902 0.60967 0.83041 0.10699 0.33711 0.35418 0.44341 1.0836 0.46601 0.80565 0.025 3.815-0.33508 6.0215-0.72041 0.34905-0.061 0.76551-0.002 0.92548 0.13055 0.15996 0.13276 0.62394 0.21103 1.0311 0.17395 1.0681-0.0973 1.1098 0.25449 0.0739 0.62338-1.4834 0.52827-3.6893 0.76398-7.2134 0.77081-2.2253 0.004-2.8491 0.0755-3.1648 0.36124-0.6403 0.57946-0.44933 1.8417 0.27864 1.8417 0.67603 0 1.0831-0.2426 0.95722-0.57053-0.075-0.19532 0.1015-0.39573 0.47267-0.53685 0.76009-0.28899 1.8959-0.29084 1.8959-0.003 0 0.12215-0.075 0.20098-0.16657 0.17517-0.38757-0.10917-1.6102 0.27865-1.6102 0.51076 0 0.40351 2.8351-0.24226 3.1253-0.71188 0.193-0.31228 2.0636-0.59483 4.0927-0.61819 0.93694-0.0108 1.2337 0.0486 0.99942 0.19995-0.18323 0.11841-0.78288 0.22678-1.3326 0.24083-0.54968 0.014-1.2493 0.0992-1.5547 0.18913-0.54747 0.16131-0.54397 0.16844 0.2505 0.51043 0.44316 0.19076 0.87381 0.45698 0.957 0.59159 0.0832 0.13461 0.4393 0.24475 0.79133 0.24475 0.67754 0 1.118 0.38199 0.62483 0.54193-0.16043 0.052-1.0292 0.14424-1.9307 0.20491-0.90144 0.0607-1.7361 0.2074-1.8547 0.32606-0.23839 0.23839-1.4356-0.028-1.8104-0.40275-0.38904-0.38904-2.1984-0.25795-3.0278 0.21938-2.2054 1.2692-2.1742 1.2625-2.7895 0.59892-0.30604-0.33002-0.58776-0.60006-0.62606-0.60006s-0.33955 0.25016-0.66946 0.55591c-0.5056 0.46857-0.7375 0.5339-1.476 0.4158-0.71874-0.11493-0.8762-0.0751-0.8762 0.22142 0 0.19884-0.15017 0.36152-0.33372 0.36152-0.18354 0-0.69488 0.39977-1.1363 0.88837s-0.99084 0.88837-1.2209 0.88837c-0.23009 0-0.41834 0.14991-0.41834 0.33314s-0.0979 0.33314-0.2176 0.33314c-0.11968 0-0.52648 0.5247-0.904 1.166l-0.6864 1.166 0.12704 2.5541c0.0699 1.4047 0.19158 3.5293 0.27047 4.7213 0.12585 1.9017 0.0944 2.2215-0.25688 2.6096-0.41142 0.45462-0.80617 0.55986-1.0785 0.28754zm-0.82909-1.0408c0.27077-0.32626 0.50661-5.6892 0.30634-6.9663-0.12356-0.78794-0.40769-0.9465-0.59696-0.33314-0.12468 0.40406-0.55474 4.1105-0.73442 6.3296-0.0937 1.1568-0.0623 1.277 0.33331 1.277 0.2402 0 0.55147-0.13827 0.69172-0.30726zm-2.0651-1.2474c0.15341-0.67183 0.35006-1.8702 0.43701-2.663 0.14488-1.3211 0.12763-1.4162-0.20665-1.1388-0.2006 0.16648-0.36473 0.39445-0.36473 0.50659s-0.19771 0.47468-0.43936 0.80565c-0.45735 0.62641-0.83383 2.8556-0.58971 3.4918 0.28894 0.75296 0.87865 0.24496 1.1634-1.0022zm-2.3631 0.68088c0.12645-0.23627 0.22991-0.65063 0.22991-0.9208 0-0.47812-0.0148-0.47525-0.55523 0.10789-0.30538 0.32951-0.55523 0.74387-0.55523 0.9208 0 0.46869 0.61212 0.39369 0.88056-0.10789zm5.8031-0.74889c-0.17583-0.17583-0.24292-0.1182-0.24292 0.20867 0 0.58716 0.31059 0.89882 0.40949 0.41091 0.042-0.20716-0.033-0.48597-0.16657-0.61958zm-8.1209-0.158c0.39877-0.24646 0.90196-0.72118 1.1182-1.0549 0.21624-0.33376 1.1071-1.4564 1.9798-2.4946 0.87264-1.0383 2.1188-2.6374 2.7693-3.5535 0.6505-0.91613 1.37-1.9156 1.599-2.2209 1.4807-1.9749 2.0271-3.118 1.4816-3.0993-0.16092 0.006-0.66882 0.58019-1.1287 1.277-2.1723 3.292-4.6523 6.3976-6.1105 7.6522-0.75829 0.65238-1.1544 0.83285-1.8281 0.83285-1.0003 0-1.0662 0.0746-1.2497 1.4128-0.23684 1.728 0.0984 2.0337 1.3691 1.2484zm8.1001-1.7597c0-0.23709-0.0999-0.49285-0.22209-0.56834-0.12596-0.0779-0.22209 0.10874-0.22209 0.43108 0 0.31259 0.0999 0.56834 0.22209 0.56834 0.12215 0 0.22209-0.19398 0.22209-0.43108zm-6.1684-2.5414c1.1922-1.1922 5.0796-6.3037 5.2349-6.8834 0.0999-0.37287 0.0203-0.40088-0.75442-0.26549-1.0561 0.18455-1.5238 0.18445-3.5892-0.00067-1.8149-0.16276-2.0632-0.0505-2.7065 1.2235-0.51914 1.0282-0.8227 4.1258-0.44851 4.5767 0.45594 0.54939 1.0615 0.36389 1.9332-0.59218 2.664-2.9218 3.3688-3.6203 3.5104-3.4787 0.1964 0.19641-3.8098 4.5665-4.3089 4.7003-0.2006 0.0538-0.64931 0.16138-0.99714 0.23913-0.55572 0.12422-0.61484 0.21425-0.48755 0.74245 0.19248 0.79873 0.73091 1.2019 1.2408 0.929 0.21593-0.11556 0.83376-0.65128 1.373-1.1905zm-3.2662-2.2477c0.19676-1.221 0.45117-2.5269 0.56536-2.902 0.11418-0.37513 0.20761-1.0547 0.20761-1.5102 0-0.45546 0.15324-1.1244 0.34054-1.4866 0.1873-0.36219 0.38609-1.1086 0.44175-1.6588 0.0557-0.55013 0.24614-1.2233 0.42327-1.4958 0.17713-0.27258 0.56797-1.4451 0.86852-2.6055 0.30056-1.1604 0.61432-2.3202 0.69726-2.5773 0.12122-0.37577-0.005-0.55911-0.6411-0.9347l-0.7919-0.46724-0.24001 0.44846c-1.6314 3.0483-3.0231 10.067-2.9563 14.908 0.0508 3.6833 0.51732 3.8044 1.085 0.28168zm6.7034-6.1501c0.6429-0.62312 0.73238-0.65568 0.73238-0.26651 0 0.24383-0.11993 0.56326-0.26651 0.70985-0.14658 0.14658-0.17801 0.26651-0.0698 0.26651 0.30034 0 1.2247-0.93065 1.2247-1.233 0-0.14698 0.16291-0.40244 0.36202-0.56769 0.32641-0.2709 0.34595-0.22729 0.19867 0.44331-0.24234 1.1034 0.28364 0.80709 1.1657-0.6566 0.84854-1.4081 1.2782-1.6912 1.0602-0.69856-0.18924 0.8616 0.16751 1.0839 0.74493 0.46407 0.40862-0.4386 0.58062-1.1232 0.74205-2.9535 0.0708-0.8027 0.50507-0.9909 0.70106-0.30383 0.14492 0.50804 0.14563 0.50789 0.48279-0.10814 0.25309-0.46242 0.30007-0.94914 0.1876-1.9433-0.0825-0.72951-0.25421-1.3264-0.3815-1.3264-0.33728 0-1.0437 0.68833-1.0437 1.0169 0 0.155-0.3051 0.5143-0.67801 0.79843-0.3729 0.28413-1.0617 0.84329-1.5307 1.2426-0.84336 0.71806-3.3653 1.7193-3.8633 1.5337-0.14172-0.0528-0.63047 0.26004-1.0861 0.6952-0.65361 0.62421-1.028 0.80087-1.7741 0.83705-1.0102 0.049-1.2118 0.32133-1.262 1.7048-0.0289 0.79832 0.2438 0.77083 1.1017-0.11105 0.70189-0.72148 0.78652-0.57516 0.32116 0.55523-0.34366 0.83478 1.1183 0.33508 2.0226-0.69132 0.63112-0.71636 0.70434-0.31194 0.0859 0.47431-0.85313 1.0846-0.26246 1.1693 0.82228 0.11792zm5.8551 0.25785c0.29783-0.15939 0.42959-0.46593 0.42959-0.99942 0-0.42323-0.0974-0.76951-0.21639-0.76951-0.26074 0-0.89408 1.1721-0.89408 1.6547 0 0.40528 0.10438 0.42279 0.68088 0.11426zm4.5888-1.7689c0.31058-0.2443 0.74436-0.44419 0.96396-0.44419s0.46271 0.19988 0.54025 0.44419c0.1687 0.53154 1.0391 0.59849 1.4436 0.11105 0.23072-0.278 0.19988-0.33314-0.18634-0.33314-0.78802 0-1.1069-1.7958-0.56817-3.1997 0.30545-0.79599-0.5791-0.2943-1.3342 0.75669-1.0495 1.4608-1.6353 1.4445-1.9936-0.0555-0.18881-0.79039-0.59908-0.77456-1.2061 0.0465-0.65387 0.8844-0.61094 1.368 0.16773 1.8897 0.35882 0.2404 0.69897 0.61518 0.7559 0.83285 0.13641 0.52164 0.71755 0.50178 1.417-0.0484zm-12.573-1.308c0.29131-0.23107 0.82949-0.92761 1.1959-1.5479 0.84491-1.4301 1.2215-1.6086 1.2215-0.57911 0 1.0084 0.30343 0.97352 1.0258-0.11802 0.64644-0.97684 0.97306-1.1259 0.97306-0.44419 0 0.72299 0.5642 0.50763 1.0182-0.38866 0.69396-1.37 0.77714-1.4443 1.1209-1.0019 0.28837 0.37114 0.3212 0.36873 0.64237-0.0473 0.18616-0.24112 0.39917-0.818 0.47336-1.282 0.15718-0.98296 0.49749-1.3037 0.67263-0.63397 0.17488 0.66876 0.47507 0.57618 0.82766-0.25527 0.16835-0.39699 0.43356-1.0216 0.58936-1.3881 0.2228-0.52404 0.30281-0.58116 0.37481-0.26756 0.0503 0.2193-0.0174 0.71118-0.15051 1.0931-0.18166 0.52111-0.17268 0.85108 0.036 1.3225 0.15293 0.34548 0.34972 0.62815 0.43732 0.62815 0.33856 0 0.86927-2.4327 0.99481-4.56 0.10607-1.7974 0.0627-2.361-0.22413-2.9158-0.33128-0.64062-0.32838-0.71235 0.0423-1.0478 0.22679-0.20524 0.77845-0.3601 1.2828-0.3601 1.0452 0 1.9415 0.79358 2.181 1.9312 0.12325 0.58531 0.39797 0.84626 1.5678 1.4893 1.2384 0.68073 1.5372 0.75935 2.3551 0.61974 0.76265-0.1302 0.97519-0.27541 1.1439-0.78157 0.16759-0.50277 0.12845-0.67982-0.20464-0.92578-0.31117-0.22976-0.34942-0.3675-0.15646-0.56337 0.19419-0.19712 0.36719-0.14747 0.7218 0.20714 0.25652 0.25652 0.71035 0.4664 1.0085 0.4664 0.29817 0 0.60389 0.0999 0.67939 0.22209 0.22972 0.3717 1.6315 0.24858 2.5594-0.22479 1.8122-0.92452 1.4169-2.3711-1.4241-5.212-2.8586-2.8584-3.8478-4.1036-4.0295-5.0721-0.13263-0.707-0.2234-0.80997-0.60669-0.68832-0.36574 0.11608-0.42639 0.065-0.32168-0.2709 0.42439-1.3614 0.44446-1.528 0.15101-1.2539-0.40584 0.37906-0.87398 1.8109-0.87796 2.6854-0.002 0.48346-0.0881 0.68253-0.25106 0.58181-0.152-0.093-0.203-0.542-0.132-1.1728 0.103-0.9166 0.083-0.9774-0.196-0.5949-0.172 0.2343-0.322 0.5319-0.334 0.6612-0.012 0.1294-0.097-0.0147-0.188-0.32l-0.166-0.5553-0.286 0.5966c-0.37186 0.77801-0.18931 1.1972 0.76704 1.7615 0.74541 0.4398 0.9103 0.98241 0.21778 0.71667-0.18087-0.0694-0.47659-0.004-0.65715 0.14627-0.31211 0.25903-1.4197 0.20029-2.9974-0.15898l-0.55523-0.12643 0.49971 0.54534c0.27484 0.29994 0.49971 0.7113 0.49971 0.91414 0 0.29697-0.14058 0.34131-0.7218 0.22764-0.39699-0.0776-0.94717-0.28684-1.2226-0.4649-0.59211-0.38276-1.1824-0.0528-1.0194 0.56981 0.0888 0.33914-0.12496 0.3805-1.9662 0.3805-2.3481 0-3.7886 0.38138-4.2814 1.1335-0.43333 0.66135-0.20343 0.77663 1.006 0.50444 1.0316-0.23216 2.4311-0.0924 2.4311 0.2427 0 0.3839-1.5339 0.72412-2.207 0.4895-0.81924-0.28559-1.8794-0.0431-3.2029 0.73249-1.0605 0.6215-1.9944 1.9064-1.5044 2.0698 0.37229 0.1241 0.30893 0.43122-0.24293 1.1777-0.37671 0.50953-0.42754 0.70999-0.21353 0.84225 0.36323 0.22449 0.10299 2.0246-0.2927 2.0246-0.41231 0-0.7273-0.47152-0.81201-1.2155l-0.0752-0.6603-0.35353 0.54926c-0.53608 0.83287-0.72028 1.7708-0.34778 1.7708 0.20235 0 0.27253 0.17808 0.20644 0.52384-0.11151 0.58334 0.51261 0.99086 0.90957 0.59391 0.69325-0.69324 0.78053 0.12807 0.1049 0.987-0.43027 0.547-0.45131 0.68888-0.20366 1.3737 0.24588 0.67997 0.21007 0.94498-0.32647 2.4161-0.49181 1.3485-0.55147 1.714-0.32438 1.9876 0.35941 0.43306 0.49789 0.42273 1.1378-0.0849zm0.20056-4.7168c0.002-0.16742 0.27706-0.71808 0.61076-1.2237 1.7702-2.6822 2.8966-4.4563 3.4939-5.5026 0.89162-1.5619 2.9892-3.344 3.4059-2.8936 0.0812 0.0877-0.002 0.21029-0.18559 0.27243-0.492 0.16685-2.0073 1.8349-2.3642 2.6024-0.17038 0.36645-0.85781 1.3654-1.5276 2.2199-0.66982 0.85449-1.3291 1.8908-1.4652 2.303-0.26432 0.80091-1.9748 2.7323-1.9681 2.2222zm18.528-8.5037c-0.23692-0.17324-0.35491-0.39084-0.2622-0.48355 0.0927-0.0927 0.37129 0.049 0.61906 0.31498 0.5082 0.54549 0.29581 0.64581-0.35686 0.16856zm2.0578-0.0781c-0.2839-0.3137-0.31433-0.57151-0.15077-1.277 0.30453-1.3136 0.31338-1.2891-1.0371-2.871-1.2993-1.522-1.4477-2.0406-0.37038-1.2937 0.34295 0.23775 0.79262 0.49314 0.99926 0.56752 0.20665 0.0744 0.5474 0.41546 0.75722 0.75794s0.6404 0.85108 0.95683 1.1302c0.56299 0.49665 0.56605 0.51455 0.14251 0.8341-0.39057 0.29468-0.40505 0.40338-0.1483 1.1134 0.43879 1.2135-0.34781 1.9242-1.1493 1.0385zm-3.2666-1.1407-0.55523-0.47726 0.49971-0.35416c0.27484-0.19478 0.49971-0.49188 0.49971-0.66021 0-0.31345 0.69462-0.42578 0.96443-0.15596 0.0826 0.0825-0.0419 0.35739-0.27665 0.61076-0.23471 0.25336-0.46049 0.69768-0.50174 0.98738l-0.075 0.52671-0.55523-0.47726zm-6.6635-1.2433c-0.15247-0.18371-0.58946-0.42456-0.97109-0.5352-0.45396-0.13162-0.54029-0.20767-0.24969-0.21997 0.81409-0.0344 2.1099 0.4363 2.1099 0.7665 0 0.42121-0.5358 0.41438-0.88911-0.0113zm1.0002 12.438c0-0.34609-0.1122-0.66666-0.24934-0.71238-0.29318-0.0977-0.55224 0.7239-0.37439 1.1874 0.20151 0.52513 0.62372 0.2036 0.62372-0.475zm1.3564-2.6472c0.0665-0.17336-0.0499-0.57597-0.25875-0.8947-0.37631-0.57432-0.37199-0.58631 0.48283-1.3413 0.4744-0.41896 0.98156-0.76592 1.127-0.771 0.47687-0.0167 0.58911-0.51465 0.18293-0.81166-0.48589-0.35529-1.0542-0.10891-1.9466 0.84396-0.59708 0.63754-0.77486 1.275-0.44702 1.6028 0.16408 0.16408 0.18377 0.25886 0.24662 1.1873 0.0377 0.55633 0.42543 0.67307 0.61291 0.18451z"/>
 </g>
</svg>
