<?xml version="1.0" encoding="UTF-8" standalone="no"?>
<!-- Created with Inkscape (http://www.inkscape.org/) -->
<svg id="svg2" xmlns:rdf="http://www.w3.org/1999/02/22-rdf-syntax-ns#" xmlns="http://www.w3.org/2000/svg" viewBox="0 0 315 180" height="100%" width="100%" version="1.1" xmlns:cc="http://creativecommons.org/ns#" xmlns:xlink="http://www.w3.org/1999/xlink" xmlns:dc="http://purl.org/dc/elements/1.1/">
 <defs id="defs16">
  <clipPath id="clipPath16">
   <path id="path18" d="m0 841.89h595.28v-841.89h-595.28v841.89z"/>
  </clipPath>
  <clipPath id="clipPath50">
   <path id="path52" d="m0 841.89h595.28v-841.89h-595.28v841.89z"/>
  </clipPath>
  <linearGradient id="linearGradient4254" gradientUnits="userSpaceOnUse" gradientTransform="matrix(-22.697 -45.159 -48.59 .13126 179.46 465.48)">
   <stop id="stop38" stop-color="#c7d6ee" offset="0"/>
   <stop id="stop40" stop-color="#91afc8" offset=".18539"/>
   <stop id="stop42" stop-color="#002334" offset="1"/>
  </linearGradient>
  <linearGradient id="linearGradient4256" gradientUnits="userSpaceOnUse" gradientTransform="matrix(27.784 -27.784 -27.784 -27.784 310.42 510.89)">
   <stop id="stop96" stop-color="#e1e8f5" offset="0"/>
   <stop id="stop98" stop-color="#92a5c1" offset=".89888"/>
   <stop id="stop100" stop-color="#476886" offset=".95506"/>
   <stop id="stop102" stop-color="#e1e8f5" offset="1"/>
  </linearGradient>
  <linearGradient id="linearGradient4258" gradientUnits="userSpaceOnUse" gradientTransform="matrix(28.423 28.423 28.423 -28.423 257.55 482.77)">
   <stop id="stop120" stop-color="#e1e8f5" offset="0"/>
   <stop id="stop122" stop-color="#476886" offset=".039322"/>
   <stop id="stop124" stop-color="#92a5c1" offset=".089890"/>
   <stop id="stop126" stop-color="#e1e8f5" offset="1"/>
  </linearGradient>
  <linearGradient id="linearGradient4260" gradientUnits="userSpaceOnUse" gradientTransform="matrix(9.2544 8.6299 8.6299 -9.2544 239.34 481.45)">
   <stop id="stop144" stop-color="#e1e8f5" offset="0"/>
   <stop id="stop146" stop-color="#c7d6ee" offset=".15730"/>
   <stop id="stop148" stop-color="#e1e8f5" offset="1"/>
  </linearGradient>
  <linearGradient id="linearGradient4262" gradientUnits="userSpaceOnUse" gradientTransform="matrix(-9.7988 9.1375 -9.1375 -9.7988 357.11 481.1)">
   <stop id="stop166" stop-color="#e1e8f5" offset="0"/>
   <stop id="stop168" stop-color="#c7d6ee" offset=".15730"/>
   <stop id="stop170" stop-color="#e1e8f5" offset="1"/>
  </linearGradient>
  <linearGradient id="linearGradient4264" gradientUnits="userSpaceOnUse" gradientTransform="matrix(31.878 31.878 31.878 -31.878 195.57 457.7)">
   <stop id="stop188" stop-color="#476886" offset="0"/>
   <stop id="stop190" stop-color="#92a5c1" offset=".12921"/>
   <stop id="stop194" stop-color="#e1e8f5" offset="1"/>
  </linearGradient>
  <linearGradient id="linearGradient4266" gradientUnits="userSpaceOnUse" gradientTransform="matrix(-3.7357 5.3351 5.3351 3.7357 155.63 412.67)">
   <stop id="stop212" stop-color="#002334" offset="0"/>
   <stop id="stop214" stop-color="#fff" offset=".10674"/>
   <stop id="stop218" stop-color="#91afc8" offset=".18539"/>
   <stop id="stop220" stop-color="#002334" offset=".24158"/>
   <stop id="stop222" stop-color="#5e738f" offset=".53371"/>
   <stop id="stop224" stop-color="#002334" offset=".75842"/>
   <stop id="stop226" stop-color="#002334" offset="1"/>
  </linearGradient>
  <linearGradient id="linearGradient4268" gradientUnits="userSpaceOnUse" gradientTransform="matrix(-28.768 -14.64 -14.64 28.768 182.3 450.31)">
   <stop id="stop244" stop-color="#91afc8" offset="0"/>
   <stop id="stop246" stop-color="#002334" offset="1"/>
  </linearGradient>
  <linearGradient id="linearGradient4270" gradientUnits="userSpaceOnUse" gradientTransform="matrix(-2.2055 12.508 12.508 2.2055 197.96 404.96)">
   <stop id="stop264" stop-color="#a5b9cc" offset="0"/>
   <stop id="stop266" stop-color="#002334" offset="1"/>
  </linearGradient>
  <linearGradient id="linearGradient4272" gradientUnits="userSpaceOnUse" gradientTransform="matrix(3.6648 0 0 -3.6648 242.03 399.78)">
   <stop id="stop284" stop-color="#5e738f" offset="0"/>
   <stop id="stop286" stop-color="#91afc8" offset=".48877"/>
   <stop id="stop290" stop-color="#91afc8" offset="1"/>
  </linearGradient>
  <linearGradient id="linearGradient4274" gradientUnits="userSpaceOnUse" gradientTransform="matrix(-4.5374 0 0 -4.5374 352.43 400.22)">
   <stop id="stop308" stop-color="#5e738f" offset="0"/>
   <stop id="stop310" stop-color="#91afc8" offset=".32022"/>
   <stop id="stop314" stop-color="#91afc8" offset="1"/>
  </linearGradient>
  <linearGradient id="linearGradient4276" gradientUnits="userSpaceOnUse" gradientTransform="matrix(12.412 21.498 21.498 -12.412 318.34 378.63)">
   <stop id="stop332" stop-color="#a5b9cc" offset="0"/>
   <stop id="stop334" stop-color="#002334" offset="1"/>
  </linearGradient>
  <linearGradient id="linearGradient4278" gradientUnits="userSpaceOnUse" gradientTransform="matrix(12.508 -21.665 -21.665 -12.508 266.03 398.94)">
   <stop id="stop352" stop-color="#002334" offset="0"/>
   <stop id="stop354" stop-color="#a5b9cc" offset=".77528"/>
   <stop id="stop356" stop-color="#a5b9cc" offset="1"/>
  </linearGradient>
  <linearGradient id="linearGradient4280" gradientUnits="userSpaceOnUse" gradientTransform="matrix(55.858 -96.749 -96.749 -55.858 216.34 481.21)">
   <stop id="stop374" stop-color="#ffefcf" offset="0"/>
   <stop id="stop376" stop-color="#ffe4a6" offset=".46068"/>
   <stop id="stop378" stop-color="#bc956e" offset="1"/>
  </linearGradient>
  <linearGradient id="linearGradient4282" gradientUnits="userSpaceOnUse" gradientTransform="matrix(15.668 17.465 17.465 -15.668 371.92 399.02)">
   <stop id="stop396" stop-color="#5e738f" offset="0"/>
   <stop id="stop398" stop-color="#91afc8" offset=".60673"/>
   <stop id="stop402" stop-color="#c7dff4" offset="1"/>
  </linearGradient>
  <linearGradient id="linearGradient4284" gradientUnits="userSpaceOnUse" gradientTransform="matrix(20.801 -36.029 -36.029 -20.801 387.57 494.19)">
   <stop id="stop420" stop-color="#e1e8f5" offset="0"/>
   <stop id="stop422" stop-color="#7f97b4" offset=".81461"/>
   <stop id="stop426" stop-color="#476886" offset=".90450"/>
   <stop id="stop428" stop-color="#002334" offset="1"/>
  </linearGradient>
  <linearGradient id="linearGradient4286" gradientUnits="userSpaceOnUse" gradientTransform="matrix(33.899 58.715 58.715 -33.899 411.69 411.95)">
   <stop id="stop446" stop-color="#8ca0b5" offset="0"/>
   <stop id="stop448" stop-color="#e1e8f5" offset=".14044"/>
   <stop id="stop452" stop-color="#7f97b4" offset=".81461"/>
   <stop id="stop454" stop-color="#476886" offset=".90450"/>
   <stop id="stop456" stop-color="#002334" offset="1"/>
  </linearGradient>
  <linearGradient id="linearGradient4288" gradientUnits="userSpaceOnUse" gradientTransform="matrix(12.007 6.9321 6.9321 -12.007 399.97 410.96)">
   <stop id="stop474" stop-color="#002334" offset="0"/>
   <stop id="stop476" stop-color="#a5b9cc" offset=".81461"/>
   <stop id="stop480" stop-color="#002334" offset=".88763"/>
   <stop id="stop482" stop-color="#002334" offset="1"/>
  </linearGradient>
  <linearGradient id="linearGradient4290" gradientUnits="userSpaceOnUse" gradientTransform="matrix(39.271 -39.271 -39.271 -39.271 183.56 437.27)">
   <stop id="stop500" stop-color="#d4bc7b" offset="0"/>
   <stop id="stop502" stop-color="#7f5f39" offset=".33147"/>
   <stop id="stop504" stop-color="#d4bc7b" offset="1"/>
  </linearGradient>
  <linearGradient id="linearGradient4292" gradientUnits="userSpaceOnUse" gradientTransform="matrix(-28.051 -28.051 28.051 -28.051 391.94 431.68)">
   <stop id="stop522" stop-color="#d4bc7b" offset="0"/>
   <stop id="stop524" stop-color="#7f5f39" offset=".33147"/>
   <stop id="stop526" stop-color="#d4bc7b" offset="1"/>
  </linearGradient>
  <linearGradient id="linearGradient4294" gradientUnits="userSpaceOnUse" gradientTransform="matrix(-45.339 -45.339 45.339 -45.339 415.43 492.78)">
   <stop id="stop544" stop-color="#d4bc7b" offset="0"/>
   <stop id="stop546" stop-color="#7f5f39" offset=".33147"/>
   <stop id="stop548" stop-color="#d4bc7b" offset="1"/>
  </linearGradient>
  <linearGradient id="linearGradient4296" gradientUnits="userSpaceOnUse" gradientTransform="matrix(5.9222 0 0 -5.9222 246.83 405.88)">
   <stop id="stop566" stop-color="#d3bd8b" offset="0"/>
   <stop id="stop568" stop-color="#7f5f39" offset="1"/>
  </linearGradient>
  <linearGradient id="linearGradient4298" gradientUnits="userSpaceOnUse" gradientTransform="matrix(-5.9233 0 0 -5.9233 347.55 405.97)">
   <stop id="stop586" stop-color="#d3bd8b" offset="0"/>
   <stop id="stop588" stop-color="#7f5f39" offset="1"/>
  </linearGradient>
  <linearGradient id="linearGradient4300" gradientUnits="userSpaceOnUse" gradientTransform="matrix(11.008 -19.066 -19.066 -11.008 268.66 403.42)">
   <stop id="stop606" stop-color="#7f5f39" offset="0"/>
   <stop id="stop608" stop-color="#d3bd8b" offset=".64607"/>
   <stop id="stop610" stop-color="#ffe4a6" offset=".88763"/>
   <stop id="stop612" stop-color="#ffe4a6" offset="1"/>
  </linearGradient>
  <linearGradient id="linearGradient4302" gradientUnits="userSpaceOnUse" gradientTransform="matrix(-12.025 -20.828 -20.828 12.025 325.8 403.32)">
   <stop id="stop630" stop-color="#7f5f39" offset="0"/>
   <stop id="stop632" stop-color="#d3bd8b" offset=".45506"/>
   <stop id="stop634" stop-color="#ffe4a6" offset=".88763"/>
   <stop id="stop636" stop-color="#ffe4a6" offset="1"/>
  </linearGradient>
  <linearGradient id="linearGradient4304" gradientUnits="userSpaceOnUse" gradientTransform="matrix(25.419 25.419 25.419 -25.419 260.82 480.05)">
   <stop id="stop654" stop-color="#d4bc7b" offset="0"/>
   <stop id="stop656" stop-color="#7f5f39" offset=".039322"/>
   <stop id="stop658" stop-color="#d1ac75" offset=".10674"/>
   <stop id="stop660" stop-color="#d4bc7b" offset="1"/>
  </linearGradient>
  <linearGradient id="linearGradient4306" gradientUnits="userSpaceOnUse" gradientTransform="matrix(-25.863 25.863 -25.863 -25.863 333.92 479.53)">
   <stop id="stop678" stop-color="#d4bc7b" offset="0"/>
   <stop id="stop680" stop-color="#7f5f39" offset=".039322"/>
   <stop id="stop682" stop-color="#d1ac75" offset=".10674"/>
   <stop id="stop684" stop-color="#d4bc7b" offset="1"/>
  </linearGradient>
  <linearGradient id="linearGradient4308" gradientUnits="userSpaceOnUse" gradientTransform="matrix(9.4521 8.8142 8.8142 -9.4521 243.99 475.83)">
   <stop id="stop702" stop-color="#ffe292" offset="0"/>
   <stop id="stop704" stop-color="#d1ac75" offset=".15730"/>
   <stop id="stop706" stop-color="#ffe292" offset="1"/>
  </linearGradient>
  <linearGradient id="linearGradient4310" gradientUnits="userSpaceOnUse" gradientTransform="matrix(-9.8535 9.1885 -9.1885 -9.8535 350.96 475.95)">
   <stop id="stop724" stop-color="#ffe292" offset="0"/>
   <stop id="stop726" stop-color="#d1ac75" offset=".15730"/>
   <stop id="stop728" stop-color="#ffe292" offset="1"/>
  </linearGradient>
  <linearGradient id="linearGradient4312" gradientUnits="userSpaceOnUse" gradientTransform="matrix(29.528 29.528 29.528 -29.528 201.2 453.31)">
   <stop id="stop746" stop-color="#7f5f39" offset="0"/>
   <stop id="stop748" stop-color="#bd9b6a" offset="1"/>
  </linearGradient>
  <linearGradient id="linearGradient4314" gradientUnits="userSpaceOnUse" gradientTransform="matrix(12.563 -12.563 -12.563 -12.563 414.19 447.85)">
   <stop id="stop766" stop-color="#7f5f39" offset="0"/>
   <stop id="stop768" stop-color="#d4bc7b" offset="1"/>
  </linearGradient>
  <linearGradient id="linearGradient4316" gradientUnits="userSpaceOnUse" gradientTransform="matrix(27.721 53.395 53.395 -27.721 410.02 416.12)">
   <stop id="stop786" stop-color="#a78a5e" offset="0"/>
   <stop id="stop788" stop-color="#7f5f39" offset=".76404"/>
   <stop id="stop790" stop-color="#674c2b" offset=".91573"/>
   <stop id="stop792" stop-color="#674c2b" offset="1"/>
  </linearGradient>
  <linearGradient id="linearGradient4318" gradientUnits="userSpaceOnUse" gradientTransform="matrix(-78.793 93.902 93.902 78.793 386.7 403.96)">
   <stop id="stop810" stop-color="#ffefcf" offset="0"/>
   <stop id="stop812" stop-color="#ffe4a6" offset=".46068"/>
   <stop id="stop814" stop-color="#bc956e" offset="1"/>
  </linearGradient>
  <linearGradient id="linearGradient4320" gradientUnits="userSpaceOnUse" gradientTransform="matrix(27.237 27.237 27.237 -27.237 154.74 421.02)">
   <stop id="stop832" stop-color="#7f5f39" offset="0"/>
   <stop id="stop834" stop-color="#e9cf98" offset="1"/>
  </linearGradient>
  <linearGradient id="linearGradient4322" gradientUnits="userSpaceOnUse" gradientTransform="matrix(36.679 36.679 36.679 -36.679 149.93 422.67)">
   <stop id="stop852" stop-color="#7f5f39" offset="0"/>
   <stop id="stop854" stop-color="#e4cb90" offset="1"/>
  </linearGradient>
 </defs>
 <metadata id="metadata8">
  <rdf:RDF>
   <cc:Work rdf:about="">
    <dc:format>image/svg+xml</dc:format>
    <dc:type rdf:resource="http://purl.org/dc/dcmitype/StillImage"/>
    <dc:title/>
   </cc:Work>
  </rdf:RDF>
 </metadata>
 <text id="line1" y="90" x="158" font-size="12.5px" style="text-anchor:middle" font-family="Helvetica" fill="#000000">John Smith</text>
 <text id="line2" y="101" x="158" font-size="9.375px" style="text-anchor:middle" font-family="Helvetica" fill="#000000">Owner</text>
 <text id="line3" font-size="11px" style="text-anchor:middle" y="136" x="75" font-weight="bold" font-family="Helvetica" fill="#000000">Company Name</text>
 <text id="line4" y="147" x="75" font-size="9.375px" style="text-anchor:middle" font-family="Helvetica" fill="#000000">123 Main Street</text>
 <text id="line5" y="158" x="75" font-size="9.375px" style="text-anchor:middle" font-family="Helvetica" fill="#000000">Anywhere, USA 65421</text>
 <text id="line6" y="125" x="294" font-size="9.375px" style="text-anchor:end" font-family="Helvetica" fill="#000000">Phone: (800) 123-4567</text>
 <text id="line7" y="136" x="294" font-size="9.375px" style="text-anchor:end" font-family="Helvetica" fill="#000000">FAX: (123) 456-7890</text>
 <text id="line8" y="147" x="294" font-size="9.375px" style="text-anchor:end" font-family="Helvetica" fill="#000000">Cell: (123) 345-7893</text>
 <text id="line9" y="158" x="294" font-size="9.375px" style="text-anchor:end" font-family="Helvetica" fill="#000000">www.yourwebsite.com</text>
 <g id="g4338" transform="matrix(.92932 0 0 .92932 11.965 12.736)">
  <g id="g10" transform="matrix(.26012 0 0 -.26012 114.89 52.244)">
   <g id="g4662" transform="matrix(1 0 0 .98934 0 -5.9174)">
    <g id="g12" transform="matrix(1.0607 0 0 1.053 -155.33 -359.46)">
     <g id="g14" clip-path="url(#clipPath16)">
      <g id="g20" transform="translate(176.76 470.69)">
       <path id="path22" d="m0 0c1.347 3.083 2.504 5.587 10.98 5.587h48.93c2.698 0 5.393 1.349 5.393 5.199v13.671c0 1.55 1.543 3.671 5.587 3.671h101.33c2.888 0 5.203-1.543 5.203-5.203v-10.79c0-2.888 1.347-5.97 5.585-5.97h81.293c2.888 0 6.741-0.768 5.009-4.432-1.736-3.656-28.125-57.194-29.915-60.771-0.687-1.371-1.222-3.199-6.565-3.199h-49.972c-2.369 0-6.261 0-6.261-4.581v-12.742c0-1.832-1.371-4.581-5.722-4.581h-100.26c-3.13 0-5.418 1.608-5.418 4.734v11.218c0 2.442-1.299 6.025-4.96 6.025h-84.158c-2.673 0-5.19 2.062-3.587 6.026 1.61 3.971 27.513 56.138 27.513 56.138" fill="#c7d6ee"/>
      </g>
     </g>
    </g>
    <g id="g24" transform="matrix(1.0607 0 0 1.053 -155.33 -359.46)">
     <g id="g26">
      <g id="g32">
       <g id="g34">
        <path id="path44" fill="url(#linearGradient4254)" d="m155.69 420.51 2.339-0.007 22.994 45.75-2.34 0.007-22.993-45.75z"/>
       </g>
      </g>
     </g>
    </g>
    <g id="g46" transform="matrix(1.0607 0 0 1.053 -155.33 -359.46)">
     <g id="g48" clip-path="url(#clipPath50)">
      <g id="g54" transform="translate(237.2 414.05)">
       <path id="path56" d="m0 0h-78.71c-2.746 0-3.709 1.254-2.64 3.389 5.96 11.854 25.559 50.837 26.067 51.872 0.596 1.217 2.039 2.705 4.704 2.705h52.818c5.479 0 6.413 2.395 6.413 6.721v12.884c0 1.733 1.149 2.885 3.171 2.885h96.739c2.598 0 3.749-0.859 3.749-2.592v-9.518c0-3.751-0.709-9.805 7.651-9.805h79.937c3.59 0 4.522-2.421 2.622-6.253-7.07-14.27-24.48-48.105-25.02-49.253-0.69-1.459-2.82-2.743-6.22-2.743h-52.471c-4.329 0-8.652-2.884-8.652-7.213v-10.995c0-2.003-1.203-3.422-3.342-3.422h-93.867c-2.904 0-4.012 1.645-4.012 3.839v10.003c-0.002 3.459-2.309 7.496-8.941 7.496" fill="#e9cf98"/>
      </g>
      <g id="g58" transform="translate(342.16 416.63)">
       <path id="path60" d="m0 0 11.025-11.491s0.787 2.519 3.776 3.144l-12.346 11.517s-1.983-1.122-2.455-3.17" fill="#fff"/>
      </g>
      <g id="g62" transform="translate(237.45 408.44)">
       <path id="path64" d="m0 0s4.41-0.161 4.41-5.985l10.234 15.118-2.834 2.048-11.81-11.181z" fill="#fff"/>
      </g>
      <g id="g66" transform="translate(346.23 465.69)">
       <path id="path68" d="m0 0 11.625 11.331s-1.576 0.193-3.155 2.756l-11.527-11.725 3.057-2.362z" fill="#fff"/>
      </g>
      <g id="g70" transform="translate(341.21 488.84)">
       <path id="path72" d="m0 0 10.74 9.159s1.183-0.687 1.675-1.773l-11.232-10.344-1.183 2.958z" fill="#fff"/>
      </g>
      <g id="g74" transform="translate(242.14 494.68)">
       <path id="path76" d="m0 0c0 1.897 1.762 4.135 4.647 4.135l8.148-10.073s-2.439 0-2.822-0.899c-0.388-0.9-0.772-2.827-0.772-2.827l-9.201 9.664z" fill="#fff"/>
      </g>
      <g id="g78" transform="translate(238.62 476.54)">
       <path id="path80" d="m0 0s3.482 0.552 3.482 4.274l8.077-9.503-5.148-3.721-6.411 8.95z" fill="#fff"/>
      </g>
     </g>
    </g>
    <g id="g82" transform="matrix(1.0607 0 0 1.053 -155.33 -359.46)">
     <g id="g84">
      <g id="g90">
       <g id="g92">
        <path id="path104" fill="url(#linearGradient4256)" d="m298.34 498.82-0.371-4.333h46.543c1.527 0 2.386-0.384 2.962-1.529l5.154 4.582s-1.295 1.28-3.654 1.28h-50.634z"/>
       </g>
      </g>
     </g>
    </g>
    <g id="g106" transform="matrix(1.0607 0 0 1.053 -155.33 -359.46)">
     <g id="g108">
      <g id="g114">
       <g id="g116">
        <path id="path128" fill="url(#linearGradient4258)" d="m246.78 498.82c-1.241 0-2.674-0.614-3.434-1.565l3.34-3.627s0.667 0.859 3.34 0.859h47.943l0.371 4.333h-51.56z"/>
       </g>
      </g>
     </g>
    </g>
    <g id="g130" transform="matrix(1.0607 0 0 1.053 -155.33 -359.46)">
     <g id="g132">
      <g id="g138">
       <g id="g140">
        <path id="path150" fill="url(#linearGradient4260)" d="m242.14 494.68v-13.206c0-2.073-0.415-2.581-0.415-2.581l3.685-3.916s0.527 1.352 0.527 2.183v13.085c0 0.826 0.074 2.03 0.074 2.03l-3.46 4.285s-0.411-0.749-0.411-1.88"/>
       </g>
      </g>
     </g>
    </g>
    <g id="g152" transform="matrix(1.0607 0 0 1.053 -155.33 -359.46)">
     <g id="g154">
      <g id="g160">
       <g id="g162">
        <path id="path172" fill="url(#linearGradient4262)" d="m349.58 492.68s-0.1-1.536-0.1-2.362 0.1-11.981 0.1-12.809c0-0.826 1.203-2.358 1.203-2.358l4.41 3.902s-1.046 0.351-1.046 2.424v13.206c0 1.131-0.925 1.88-0.925 1.88l-3.642-3.883z"/>
       </g>
      </g>
     </g>
    </g>
    <g id="g174" transform="matrix(1.0607 0 0 1.053 -155.33 -359.46)">
     <g id="g176">
      <g id="g182">
       <g id="g184">
        <path id="path196" fill="url(#linearGradient4264)" d="m236.95 476.26c-1.382 0-48.863-0.055-51.393-0.055-3.671 0-5.83-1.619-5.83-1.619l3.02-4.063s1.208 1.489 3.874 1.489h53.577c1.866 0 3.268 0.844 3.268 0.844l-3.501 4.205s-1.719-0.801-3.015-0.801"/>
       </g>
      </g>
     </g>
    </g>
    <g id="g198" transform="matrix(1.0607 0 0 1.053 -155.33 -359.46)">
     <g id="g200">
      <g id="g206">
       <g id="g208">
        <path id="path228" fill="url(#linearGradient4266)" d="m154.27 417.08-5.475-3.839s-0.434-1.587 0.384-2.841c0.82-1.25 2.072-1.444 2.072-1.444l7.126 5.09s-4.033 0.19-2.355 3.177 1.587 4.113 1.587 4.113-1.958-0.322-3.339-4.256"/>
       </g>
      </g>
     </g>
    </g>
    <g id="g230" transform="matrix(1.0607 0 0 1.053 -155.33 -359.46)">
     <g id="g232">
      <g id="g238">
       <g id="g240">
        <path id="path248" fill="url(#linearGradient4268)" d="m169.3 454.68c-4.366-8.986-19.03-37.853-19.543-38.884-0.514-1.027-1.029-2.823-1.029-2.823l5.651 4.11 26.479 52.752s-7.191-6.164-11.558-15.155"/>
       </g>
      </g>
     </g>
    </g>
    <g id="g250" transform="matrix(1.0607 0 0 1.053 -155.33 -359.46)">
     <g id="g252">
      <g id="g258">
       <g id="g260">
        <path id="path268" fill="url(#linearGradient4270)" d="m158.49 413.92-7.263-5.225s82.73-0.204 84.82-0.204c2.087 0 2.964-0.399 2.964-0.399l3.726 4.234s-3.559 1.594-5.536 1.594h-78.711z"/>
       </g>
      </g>
     </g>
    </g>
    <g id="g270" transform="matrix(1.0607 0 0 1.053 -155.33 -359.46)">
     <g id="g272">
      <g id="g278">
       <g id="g280">
        <path id="path292" fill="url(#linearGradient4272)" d="m241.13 405.78s0.762-1.531 0.762-2.753v-10.939c0-1.565 0.61-2.922 0.61-2.922l3.635 4.282v13.104c0 2.091-1.153 3.85-1.153 3.85l-3.854-4.622z"/>
       </g>
      </g>
     </g>
    </g>
    <g id="g294" transform="matrix(1.0607 0 0 1.053 -155.33 -359.46)">
     <g id="g296">
      <g id="g302">
       <g id="g304">
        <path id="path316" fill="url(#linearGradient4274)" d="m347.35 407.9v-13.104l5.704-4.991s0.142 1.331 0.142 2.892v10.944c0 1.22 0.353 1.988 0.353 1.988l-4.987 4.987s-1.212-0.621-1.212-2.716"/>
       </g>
      </g>
     </g>
    </g>
    <g id="g318" transform="matrix(1.0607 0 0 1.053 -155.33 -359.46)">
     <g id="g320">
      <g id="g326">
       <g id="g328">
        <path id="path336" fill="url(#linearGradient4276)" d="m343.08 392.61h-44.848v-6.087h49.627c1.687 0 3.654 1.122 4.028 1.407l-5.624 5.334s-0.371-0.654-3.183-0.654"/>
       </g>
      </g>
     </g>
    </g>
    <g id="g338" transform="matrix(1.0607 0 0 1.053 -155.33 -359.46)">
     <g id="g340">
      <g id="g346">
       <g id="g348">
        <path id="path358" fill="url(#linearGradient4278)" d="m244.21 387.29s1.155-0.819 4.383-0.819c3.225 0 49.636 0.059 49.636 0.059v6.087h-47.902c-0.867 0-1.447 0.161-1.447 0.161l-4.67-5.488z"/>
       </g>
      </g>
     </g>
    </g>
    <g id="g360" transform="matrix(1.0607 0 0 1.053 -155.33 -359.46)">
     <g id="g362">
      <g id="g368">
       <g id="g370">
        <path id="path380" fill="url(#linearGradient4280)" d="m257.1 488.87c-2.598 0-5.192-1.444-5.192-4.329v-14.132c0-2.881-1.732-4.036-3.75-4.036h-57.43c-2.333 0-4.138-0.973-5.175-2.936-0.849-1.613-15.191-30.358-19.826-39.648-1.005-2.015-0.127-3.24 2.452-3.24h80.27c3.459 0 4.037-3.174 4.037-6.344v-10.982c0-2.023 2.017-4.33 4.325-4.33h40.381v89.977h-40.092z"/>
       </g>
      </g>
     </g>
    </g>
    <g id="g382" transform="matrix(1.0607 0 0 1.053 -155.33 -359.46)">
     <g id="g384">
      <g id="g390">
       <g id="g392">
        <path id="path404" fill="url(#linearGradient4282)" d="m351.13 412.72 4.624-4.753s1.154 0.639 6.55 0.639h49.315c1.025 0 2.438 0.515 2.438 0.515l-26.068 5.265s-30.181-0.021-31.593 0c-0.053 0.001-0.106 0.002-0.159 0.002-3.06 0-5.107-1.668-5.107-1.668"/>
       </g>
      </g>
     </g>
    </g>
    <g id="g406" transform="matrix(1.0607 0 0 1.053 -155.33 -359.46)">
     <g id="g408">
      <g id="g414">
       <g id="g416">
        <path id="path430" fill="url(#linearGradient4284)" d="m352.86 473.43s2.254-0.753 4.095-0.753h77.647c2.363 0 3.742-0.176 3.742-0.176l6.275 3.74s-2.014 0.575-4.027 0.575h-80.64c-2.015 0-2.855 0.471-2.855 0.471l-4.237-3.857z"/>
       </g>
      </g>
     </g>
    </g>
    <g id="g432" transform="matrix(1.0607 0 0 1.053 -155.33 -359.46)">
     <g id="g434">
      <g id="g440">
       <g id="g442">
        <path id="path458" fill="url(#linearGradient4286)" d="m440.64 470.48s0.355-1.97-0.316-3.309c-0.669-1.338-24.138-47.495-25.197-49.615-1.063-2.118-3.457-2.9-3.457-2.9l2.674-5.348s0.948 0.72 1.507 1.447c0.557 0.724 29.434 59.484 30.327 61.545 0.89 2.063 0.108 2.809 0.108 2.809l-5.646-4.629z"/>
       </g>
      </g>
     </g>
    </g>
    <g id="g460" transform="matrix(1.0607 0 0 1.053 -155.33 -359.46)">
     <g id="g462">
      <g id="g468">
       <g id="g470">
        <path id="path484" fill="url(#linearGradient4288)" d="m409.18 414.26c-3.082 0-20.42-0.132-20.42-0.132l24.657-5.006s1.542 0.637 2.313 1.927c0.772 1.284-0.002 1.668-0.9 0.899-0.897-0.775-2.438 0.509-1.67 1.409 0.773 0.903 1.541 3.729 1.541 3.729s-2.437-2.826-5.521-2.826"/>
       </g>
      </g>
     </g>
    </g>
    <g id="g486" transform="matrix(1.0607 0 0 1.053 -155.33 -359.46)">
     <g id="g488">
      <g id="g494">
       <g id="g496">
        <path id="path506" fill="url(#linearGradient4290)" d="m179.79 418.23c-16.148-1.078-21.305-4.131-21.305-4.131h77.112c8.769 0 7.768-1.199 7.719-1.253l6.278 6.639s-15.252 0-24.942 0.178c-1.232 0.023-2.614 0.034-4.123 0.034-10.357 0-26.643-0.528-40.739-1.467m63.524-5.386l0.002 0.002-0.002-0.002z"/>
       </g>
      </g>
     </g>
    </g>
    <g id="g508" transform="matrix(1.0607 0 0 1.053 -155.33 -359.46)">
     <g id="g510">
      <g id="g516">
       <g id="g518">
        <path id="path528" fill="url(#linearGradient4292)" d="m361.67 419.66c-6.861-0.178-17.663-0.178-17.663-0.178l7.199-6.779s0.741 1.586 7.093 1.586c6.356 0 52.158 0.158 52.158 0.158s0.772 2.504-12.714 3.466c-10.624 0.759-26.656 1.766-34.406 1.766-0.609 0-1.166-0.006-1.667-0.019"/>
       </g>
      </g>
     </g>
    </g>
    <g id="g530" transform="matrix(1.0607 0 0 1.053 -155.33 -359.46)">
     <g id="g532">
      <g id="g538">
       <g id="g540">
        <path id="path550" fill="url(#linearGradient4294)" d="m345.36 465.66s10.804 0 17.667-0.179c6.861-0.179 48.454 1.707 59.895 2.785 11.438 1.076 15.088 4.128 15.088 4.128s-72.724-0.388-79.078-0.388c-6.35 0-5.464 1.259-5.464 1.259l-8.108-7.605z"/>
       </g>
      </g>
     </g>
    </g>
    <g id="g552" transform="matrix(1.0607 0 0 1.053 -155.33 -359.46)">
     <g id="g554">
      <g id="g560">
       <g id="g562">
        <path id="path570" fill="url(#linearGradient4296)" d="m245.37 410.21s0.771-2.501 0.771-4.428v-8.669c0-2.31 0.772-3.469 0.772-3.469l6.549 6.552s-0.978 2.31-0.978 4.044v9.773c0 2.26-0.564 4.098-0.564 4.098l-6.55-7.901z"/>
       </g>
      </g>
     </g>
    </g>
    <g id="g572" transform="matrix(1.0607 0 0 1.053 -155.33 -359.46)">
     <g id="g574">
      <g id="g580">
       <g id="g582">
        <path id="path590" fill="url(#linearGradient4298)" d="m341.47 414.07c0-2.26-0.153-8.307-0.153-10.044 0-1.729-0.399-3.828-0.399-3.828l6.549-6.552s0.773 1.159 0.773 3.469v8.669c0 1.927 0.771 4.428 0.771 4.428l-7.014 8.084s-0.527-1.971-0.527-4.226"/>
       </g>
      </g>
     </g>
    </g>
    <g id="g592" transform="matrix(1.0607 0 0 1.053 -155.33 -359.46)">
     <g id="g594">
      <g id="g600">
       <g id="g602">
        <path id="path614" fill="url(#linearGradient4300)" d="m249.03 392.87 47.773-0.384 0.193 0.004v6.398l-41.61 0.15-6.356-6.168z"/>
       </g>
      </g>
     </g>
    </g>
    <g id="g616" transform="matrix(1.0607 0 0 1.053 -155.33 -359.46)">
     <g id="g618">
      <g id="g624">
       <g id="g626">
        <path id="path638" fill="url(#linearGradient4302)" d="m297.19 398.89h-0.192v-6.398l49.122 0.57-7.897 5.978-41.033-0.15z"/>
       </g>
      </g>
     </g>
    </g>
    <g id="g640" transform="matrix(1.0607 0 0 1.053 -155.33 -359.46)">
     <g id="g642">
      <g id="g648">
       <g id="g650">
        <path id="path662" fill="url(#linearGradient4304)" d="m249.67 494.52c-1.349 0-2.597-0.727-2.597-0.727l6.332-6.23s0.624 1.353 5.086 1.353h38.692v5.604h-47.513z"/>
       </g>
      </g>
     </g>
    </g>
    <g id="g664" transform="matrix(1.0607 0 0 1.053 -155.33 -359.46)">
     <g id="g666">
      <g id="g672">
       <g id="g674">
        <path id="path686" fill="url(#linearGradient4306)" d="m297.19 494.52v-5.604h38.691c4.462 0 5.386-1.942 5.386-1.942l6.33 6.227s-1.544 1.319-2.893 1.319h-47.514z"/>
       </g>
      </g>
     </g>
    </g>
    <g id="g688" transform="matrix(1.0607 0 0 1.053 -155.33 -359.46)">
     <g id="g690">
      <g id="g696">
       <g id="g698">
        <path id="path708" fill="url(#linearGradient4308)" d="m245.87 489.08v-11.313c0-1.342-0.589-2.932-0.589-2.932l6.201-7.038s0.419 0.585 0.419 3.516c0 2.933 0.25 14.41 0.25 14.41l-6.199 6.954s-0.082-1.839-0.082-3.597"/>
       </g>
      </g>
     </g>
    </g>
    <g id="g710" transform="matrix(1.0607 0 0 1.053 -155.33 -359.46)">
     <g id="g712">
      <g id="g718">
       <g id="g720">
        <path id="path730" fill="url(#linearGradient4310)" d="m341.52 485.59v-14.066c0-2.932 1.372-3.725 1.372-3.725l7.578 7.634s-0.988 1.597-0.988 2.935c0 1.342-0.064 9.521-0.064 11.28s0.077 3.386 0.077 3.386l-7.975-7.444z"/>
       </g>
      </g>
     </g>
    </g>
    <g id="g732" transform="matrix(1.0607 0 0 1.053 -155.33 -359.46)">
     <g id="g734">
      <g id="g740">
       <g id="g742">
        <path id="path750" fill="url(#linearGradient4312)" d="m240.74 471.86h-53.166c-1.541 0-4.047-0.578-4.817-1.35l4.817-5.009s1.347 0.962 4.623 0.962h55.285c1.543 0 3.082 0.581 3.082 0.581l-6.162 6.355s-1.543-1.539-3.662-1.539"/>
       </g>
      </g>
     </g>
    </g>
    <g id="g752" transform="matrix(1.0607 0 0 1.053 -155.33 -359.46)">
     <g id="g754">
      <g id="g760">
       <g id="g762">
        <path id="path770" fill="url(#linearGradient4314)" d="m406.34 420.34s2.977 1.119 3.908-2.417c0 0 0.743-1.119 2.79 1.862 2.046 2.975 21.399 42.785 21.208 43.348-0.187 0.556-4.094 1.302-4.094 1.302l-23.812-44.095z"/>
       </g>
      </g>
     </g>
    </g>
    <g id="g772" transform="matrix(1.0607 0 0 1.053 -155.33 -359.46)">
     <g id="g774">
      <g id="g780">
       <g id="g782">
        <path id="path794" fill="url(#linearGradient4316)" d="m430.71 464.05c0.933-0.556 1.862-1.302 0.56-4.091-1.301-2.786-16.186-31.813-19.347-37.392-3.163-5.58-0.376-7.814-0.376-7.814s2.422 1.119 3.149 2.325c0.733 1.21 23.459 46.23 25.023 49.253 1.565 3.024 0.479 4.234 0.479 4.234l-9.488-6.515z"/>
       </g>
      </g>
     </g>
    </g>
    <g id="g796" transform="matrix(1.0607 0 0 1.053 -155.33 -359.46)">
     <g id="g798">
      <g id="g804">
       <g id="g806">
        <path id="path816" fill="url(#linearGradient4318)" d="m297.19 488.87v-89.977h39.786c2.305 0 4.325 0.866 4.325 3.466v13.419c0 2.595 1.728 4.61 3.749 4.61h60.019c2.107 0 3.998 1.232 5.096 3.261 4.904 9.068 18.411 35.365 19.433 37.485 1.247 2.588 0.475 4.087-2.416 4.087h-79.537c-3.459 0-6.059 2.593-6.059 5.766v14.709c0 2.019-1.152 3.174-3.747 3.174h-40.649z"/>
       </g>
      </g>
     </g>
    </g>
    <g id="g818" transform="matrix(1.0607 0 0 1.053 -155.33 -359.46)">
     <g id="g820">
      <g id="g826">
       <g id="g828">
        <path id="path836" fill="url(#linearGradient4320)" d="m157.84 416.6 7.7 4.669s-0.882 0.384 0.504 3.159c1.388 2.775 14.389 29.283 14.389 29.283l-2.901 0.628-19.692-37.739z"/>
       </g>
      </g>
     </g>
    </g>
    <g id="g838" transform="matrix(1.0607 0 0 1.053 -155.33 -359.46)">
     <g id="g840">
      <g id="g846">
       <g id="g848">
        <path id="path856" fill="url(#linearGradient4322)" d="m157.14 420.04c-1.927-3.469-1.539-4.815-1.539-4.815l4.622 3.082s20.611 39.875 22.73 44.5c2.12 4.622-1.039 6.505-1.039 6.505s-22.847-45.806-24.774-49.272"/>
       </g>
      </g>
     </g>
    </g>
    <g id="g866" transform="matrix(1.0607 0 0 1.053 14.653 76.408)">
     <path id="path868" d="m0 0c-0.306-0.205-3.123-0.552-3.673 0-0.552 0.548-1.473 0.976-0.737 1.59 0.737 0.615 9.797 6 9.797 6s-1.1-0.611 8.209-0.611h74.468c1.96 0 3.796-1.345 4.042-2.204s-0.245-1.225-0.857-1.104c-0.61 0.124-2.205 0.614-2.572 1.228-0.367 0.611 0.49 1.101-4.9 1.101-5.389 0-46.542-0.614-55.849-1.47-9.309-0.859-21.561-0.245-27.928-4.53" fill="#fff"/>
    </g>
    <g id="g870" transform="matrix(1.0607 0 0 1.053 306.4 137.8)">
     <path id="path872" d="m0 0c0.305 0.201 3.125 0.548 3.675 0 0.55-0.552 1.471-0.98 0.735-1.594-0.735-0.611-9.798-6-9.798-6s1.099 0.611-8.208 0.611h-74.47c-1.96 0-3.796 1.345-4.04 2.204-0.246 0.86 0.243 1.229 0.853 1.104 0.616-0.124 2.207-0.614 2.576-1.224 0.367-0.615-0.492-1.101 4.899-1.101s46.539 0.61 55.852 1.466c9.306 0.859 21.559 0.245 27.926 4.534" fill="#fff"/>
    </g>
    <g id="g874" transform="matrix(1.0607 0 0 1.053 40.156 130.34)">
     <path id="path876" d="m0 0c0 0.867 0.481 2.504 0.097 2.983-0.386 0.483 0.77 1.061 1.541 0.582 0.77-0.483 2.407-0.867 2.599-1.254 0.193-0.384-0.096-1.346-1.155-1.733-1.06-0.384-2.023-1.251-3.66-4.812-1.638-3.568-10.982-21.674-10.982-21.674s1.35 2.888 0.772 2.987c-0.578 0.095-1.925-2.314-1.925-2.314l12.713 25.235z" fill="#fff"/>
    </g>
    <g id="g878" transform="matrix(1.0607 0 0 1.053 108.46 132.13)">
     <path id="path880" d="m0 0c-0.797-0.08-1.02 0.793-0.34 0.907 0.684 0.114 1.589 0.168 2.382 3.291 0.797 3.122 0.23 12.595 0.115 14.296-0.115 1.703-0.907 3.744 0.229 4.651 1.133 0.91 1.928-1.021 4.879-1.021 2.949 0 9.645 0.227 9.645 0.227s-9.418-0.677-11.009-0.907c-1.588-0.227-2.95-1.473-2.724-3.744 0.229-2.27-0.338-13.959-0.791-15.206-0.455-1.247-1.251-2.38-2.386-2.494" fill="#fff"/>
    </g>
    <g id="g882" transform="matrix(1.0607 0 0 1.053 175.86 155.59)">
     <path id="path884" d="m0 0c-1.249-0.058 23.926-0.296 25.513-0.296 1.589 0 3.404-0.482 3.746-2.069 0.34-1.591 0.099-6.798 0.099-6.798s0.782 6.684 1.917 7.931c1.134 1.251 0.794 3.064-0.681 2.728-1.476-0.344-13.159-0.71-30.594-1.496" fill="#fff"/>
    </g>
    <g id="g886" transform="matrix(1.0607 0 0 1.053 211.52 82.345)">
     <path id="path888" d="m0 0c-0.792 0.117-1.698 0.227-1.927-0.453-0.227-0.676 1.018-1.13-0.227-1.806-1.242-0.68-2.168-1.097-2.168-0.531 0 0.567 0.642 3.474 3.02 3.474 2.377 0 61.058 0.113 61.969 0.113 0.902 0 2.036-0.113 2.487-1.02 0.452-0.906 1.017-3.17 1.359-3.85 0.338-0.68-0.227-0.68-1.247 0.68-1.018 1.36-3.62 1.923-5.656 1.81-2.039-0.113-57.61 1.583-57.61 1.583" fill="#fff"/>
    </g>
    <g id="g890" transform="matrix(1.0607 0 0 1.053 280.19 80.32)">
     <path id="path892" d="m0 0s-0.565 1.243-0.905 2.04c-0.34 0.79-1.357 1.126-1.357 1.126s1.13 1.364 2.714 4.304c1.586 2.939 9.056 16.979 9.848 18.903 0 0-1.699-5.211 1.585-0.907 0 0-10.64-20.143-11.32-21.503-0.677-1.36-0.565-3.963-0.565-3.963" fill="#fff"/>
    </g>
    <g id="g894" transform="matrix(1.0607 0 0 1.053 113.22 63.638)">
     <path id="path896" d="m0 0s0.135-1.627-0.81-2.303c-0.947-0.677-1.353-1.894-0.541-2.436 0.812-0.541 1.353-0.27 1.894 0.542 0.541 0.811 2.437 1.488 3.654 1.217 0 0-4.197-0.537-4.197 2.98" fill="#fff"/>
    </g>
    <g id="g898" transform="matrix(1.0607 0 0 1.053 175.09 60.584)">
     <path id="path900" d="m0 0s22.84-1.203 24.193-1.265c1.349-0.062 2.3-0.106 2.3-0.106s-2.424 0.384-1.707 1.163l-24.786 0.208z" fill="#fff"/>
    </g>
    <g id="g902" transform="matrix(1.0607 0 0 1.053 203.8 60.784)">
     <path id="path904" d="m0 0s-0.676-1.082 0.406-1.62c1.084-0.541 2.168-1.082 2.844-0.27 0.675 0.811-0.541 2.976-0.407 4.464 0 0 0.541-2.303-2.843-2.574" fill="#fff"/>
    </g>
    <g id="g906" transform="matrix(1.0607 0 0 1.053 233.35 58.721)">
     <path id="path908" d="m0 0h-1.265v-2.143h1.265c0.644 0 0.835 0.256 0.835 0.677v0.793c0 0.541-0.252 0.673-0.835 0.673m0-2.837h-1.265v-1.763h-0.77v5.306h2.035c1.152 0 1.605-0.512 1.605-1.379v-0.793c0-0.575-0.199-0.962-0.77-1.218l1.428-1.916h-0.912l-1.351 1.763zm-0.237-3.379c2.716 0 4.142 1.862 4.142 4.147s-1.426 4.175-4.142 4.175c-2.719 0-4.178-1.89-4.178-4.175s1.459-4.147 4.178-4.147m0 9.024c3.01 0 4.848-2.176 4.848-4.867 0-2.654-1.838-4.862-4.848-4.862-3.028 0-4.882 2.208-4.882 4.862 0 2.691 1.854 4.867 4.882 4.867"/>
    </g>
   </g>
  </g>
 </g>
</svg>
