<?xml version="1.0" encoding="UTF-8" standalone="no"?>
<!-- Created with Inkscape (http://www.inkscape.org/) -->
<svg id="svg2" xmlns:rdf="http://www.w3.org/1999/02/22-rdf-syntax-ns#" xmlns="http://www.w3.org/2000/svg" height="45" width="67.5" version="1.1" xmlns:cc="http://creativecommons.org/ns#" xmlns:dc="http://purl.org/dc/elements/1.1/">
 <metadata id="metadata7">
  <rdf:RDF>
   <cc:Work rdf:about="">
    <dc:format>image/svg+xml</dc:format>
    <dc:type rdf:resource="http://purl.org/dc/dcmitype/StillImage"/>
    <dc:title/>
   </cc:Work>
  </rdf:RDF>
 </metadata>
 <g id="g3455">
  <rect id="rect2990" opacity="0" height="45" width="67.5" y="0" x="3.5527e-15"/>
  <path id="path3883" d="m11.13 22.5v-22.5h22.62 22.62v22.5 22.5h-22.62-22.62v-22.5zm29.514 19.412c0.88803-0.40238 4.0836-1.6335 5.268-2.0295 0.23873-0.07982 0.36701-0.2536 0.28508-0.38618-0.08194-0.13258 0.0045-0.24105 0.19227-0.24105 0.39647 0 2.8473-0.98864 2.7333-1.1026-0.10334-0.10334-2.0084 0.48194-3.0463 0.9359-0.46077 0.20153-1.1865 0.49556-1.6126 0.65339-0.43698 0.16183-0.7069 0.39697-0.61898 0.53922 0.09693 0.15683 0.0052 0.19444-0.2424 0.09941-0.21907-0.08406-0.39831-0.06646-0.39831 0.03911 0 0.10558-0.1496 0.19196-0.33245 0.19196s-0.72876 0.18806-1.2131 0.41792c-0.48438 0.22985-1.4566 0.47735-2.1604 0.54999-1.2267 0.12661-1.3175 0.09538-2.1922-0.75411-1.8057-1.7537-2.1739-2.8332-1.2735-3.7336 0.37683-0.37683 0.66925-0.45382 1.2849-0.33833 0.66072 0.12395 0.9087 0.03787 1.4499-0.50335l0.65288-0.65288 2.7364 0.16359c1.505 0.08998 2.9639 0.24776 3.242 0.35062 0.27806 0.10286 0.90061 0.08158 1.3834-0.04729 0.76832-0.20508 1.0255-0.1497 2.061 0.44382 0.65071 0.37298 1.2291 0.71394 1.2853 0.75769 0.05622 0.04375-0.10536 0.24735-0.35904 0.45243-0.43735 0.35355-0.42447 0.36492 0.24853 0.21939 0.39038-0.08442 1.1654-0.36104 1.7222-0.61471 0.55685-0.25368 1.1799-0.46123 1.3846-0.46123 0.64395 0 0.40486-0.59256-0.40575-1.0056-0.42786-0.21803-1.9089-0.79105-3.2912-1.2734-1.3823-0.48233-3.1057-1.1293-3.8298-1.4377-0.72407-0.3084-1.8551-0.73655-2.5133-0.95145-0.65824-0.21489-1.5242-0.53932-1.9244-0.72094-0.96393-0.43752-2.4928-0.50996-3.1621-0.14982-0.29621 0.1594-0.5395 0.36681-0.54064 0.46091-0.0012 0.09411-0.37144 0.56074-0.82289 1.037-2.579 2.7206-2.7086 2.937-2.5848 4.3168 0.11111 1.238 0.18089 1.345 2.1226 3.2548 2.238 2.2012 2.6551 2.3429 4.4718 1.5197zm-11.326-2.956c0.44685-0.56848 0.68842-0.65824 1.7714-0.65824 1.2274 0 2.3017-0.56646 2.3017-1.2136 0-0.52256-0.80686-0.54019-1.1489-0.02509-0.4817 0.72548-2.6358 0.75302-3.2793 0.04193-0.40967-0.45268-0.73723-0.47872-6.0212-0.47872-3.5657 0-5.5879 0.08662-5.5879 0.23936 0 0.15232 1.9149 0.23936 5.266 0.23936 5.1064 0 5.266 0.01451 5.266 0.47872 0 0.46422-0.15958 0.47872-5.266 0.47872h-5.266v0.84986 0.84986l5.7234-0.07193 5.7234-0.07194 0.51741-0.65824zm-12.864-4.835c0.29742-0.45439 0.78818-0.9391 1.0906-1.0771 0.33214-0.1516 2.7084-0.25096 6.0022-0.25096 5.351 0 5.4613 0.01001 5.9371 0.53856 0.26663 0.29621 0.5513 0.72706 0.63261 0.95745 0.15748 0.44621 1.6708 0.59392 2.259 0.22049 0.23771-0.15092 0.28801-3.4821 0.23936-15.854l-0.062-15.663-0.889-0.0738c-0.78542-0.06517-0.90781-0.001-1.0456 0.54798-0.0858 0.34198-0.50355 0.88683-0.92826 1.2108-0.76571 0.58403-0.81604 0.58899-5.9794 0.58899-5.755 0-6.3778-0.12565-7.1235-1.4371-0.36845-0.64805-0.52418-0.71717-1.6157-0.71717h-1.2079v15.758c0 8.6669 0.0718 15.83 0.15957 15.918 0.0878 0.08777 0.57149 0.15958 1.0749 0.15958 0.77965 0 0.99553-0.12248 1.4561-0.82617zm0.63434-4.7071c-0.38329-0.41031-0.76372-1.0123-0.84541-1.3378-0.22648-0.90239 0.39014-2.4377 1.2391-3.0853 0.74229-0.56616 0.83829-0.57563 5.837-0.57563h5.0822l0.69968 0.69967c0.60887 0.60887 0.69967 0.87589 0.69967 2.0575 0 1.5175-0.50986 2.6358-1.2982 2.8475-0.27337 0.0734-2.7966 0.13494-5.6071 0.13674l-5.1101 0.0033-0.6969-0.74602zm0.20231-7.9308c-0.90615-0.6881-1.2115-3.3027-0.51064-4.3723 0.589-0.89893 1.7199-1.0704 7.0699-1.0718 4.3911-0.0012 4.999 0.04628 5.4692 0.42699 0.96005 0.77741 0.95328 3.8871-0.0105 4.851-0.4343 0.4343-0.83787 0.46537-6.0446 0.46537-4.0937 0-5.6842-0.07967-5.9733-0.2992zm-0.17839-8.7626c-0.64487-0.61628-0.7159-0.83185-0.7159-2.1727 0-1.326 0.0764-1.5649 0.69967-2.1882l0.69968-0.69967h5.7569 5.7569l0.3652 0.7062c0.54361 1.0512 0.47451 3.2492-0.13306 4.2323l-0.49825 0.80618h-5.6076-5.6077l-0.71591-0.68416zm36.882 15.373c0.39262-0.72684 0.72238-1.8326 0.85035-2.8515 0.33316-2.6526 0.19746-8.8099-0.25033-11.358-0.45799-2.6065-0.46252-6.2083-0.0095-7.5262 0.1702-0.49508 0.37756-1.1715 0.4608-1.5031 0.142-0.5658 0.126-0.5782-0.252-0.2-0.531 0.5309-0.964 0.1371-0.599-0.5446 0.357-0.6673-0.001-0.8236-0.97-0.4233-0.973 0.4018-2.25 0.3468-5.169-0.2229-1.94-0.3788-2.599-0.3997-5.385-0.1711-3.2472 0.26638-6.1047 0.24012-7.0642-0.06492-0.50165-0.15949-0.52829-0.11645-0.39287 0.63464 0.0799 0.44315 0.40285 1.0252 0.71766 1.2934 0.58404 0.49764 0.76435 1.4 0.33303 1.6665-0.13165 0.08136-0.23936 0.38932-0.23936 0.68434s-0.09307 0.63873-0.20682 0.7638c-0.57774 0.63522-0.79052 2.8696-0.7625 8.0066 0.01616 2.9621 0.09783 5.7626 0.18149 6.2234 0.08366 0.46077 0.16111 1.8202 0.17212 3.0209 0.01963 2.1414 0.03478 2.1969 0.79415 2.9063l0.77414 0.72316 7.1234 0.10652c4.2693 0.06384 7.3632 0.20896 7.7218 0.36219 0.81612 0.34869 1.3692-0.03992 2.172-1.5261z"/>
 </g>
</svg>
