<?xml version="1.0" encoding="UTF-8" standalone="no"?>
<!-- Created with Inkscape (http://www.inkscape.org/) -->

<svg
   xmlns:dc="http://purl.org/dc/elements/1.1/"
   xmlns:cc="http://creativecommons.org/ns#"
   xmlns:rdf="http://www.w3.org/1999/02/22-rdf-syntax-ns#"
   xmlns:svg="http://www.w3.org/2000/svg"
   xmlns="http://www.w3.org/2000/svg"
   xmlns:sodipodi="http://sodipodi.sourceforge.net/DTD/sodipodi-0.dtd"
   xmlns:inkscape="http://www.inkscape.org/namespaces/inkscape"
   id="svg2"
   height="45"
   width="67.5"
   version="1.1"
   inkscape:version="0.91 r"
   sodipodi:docname="10.svg">
  <defs
     id="defs26" />
  <sodipodi:namedview
     pagecolor="#ffffff"
     bordercolor="#666666"
     borderopacity="1"
     objecttolerance="10"
     gridtolerance="10"
     guidetolerance="10"
     inkscape:pageopacity="0"
     inkscape:pageshadow="2"
     inkscape:window-width="1871"
     inkscape:window-height="1056"
     id="namedview24"
     showgrid="false"
     inkscape:zoom="5.12"
     inkscape:cx="56.026105"
     inkscape:cy="37.516659"
     inkscape:window-x="1649"
     inkscape:window-y="24"
     inkscape:window-maximized="1"
     inkscape:current-layer="svg2" />
  <metadata
     id="metadata7">
    <rdf:RDF>
      <cc:Work
         rdf:about="">
        <dc:format>image/svg+xml</dc:format>
        <dc:type
           rdf:resource="http://purl.org/dc/dcmitype/StillImage" />
        <dc:title></dc:title>
      </cc:Work>
    </rdf:RDF>
  </metadata>
  <g
     id="g4087">
    <rect
       id="rect2990"
       height="45"
       width="67.5"
       y="0"
       x="3.5526999e-15"
       style="opacity:0" />
    <path
       inkscape:connector-curvature="0"
       id="path4220"
       d="m 17.562944,44.49747 c 0.0713,-0.28649 0.29396,-1.0833 0.49487,-1.7706 0.53655,-1.8357 1.4755,-5.4204 1.7151,-6.5478 0.11465,-0.53948 0.27926,-1.0954 0.36582,-1.2355 0.0866,-0.14004 0.28395,-0.77226 0.43866,-1.4049 0.69406,-2.8382 2.2034,-8.5836 2.6898,-10.239 0.29377,-0.99977 0.69718,-2.4313 0.89646,-3.1811 0.19928,-0.74982 0.56907,-2.0917 0.82175,-2.9819 0.25268,-0.89023 0.75574,-2.7818 1.1179,-4.2036 0.36219,-1.4217 1.0402,-3.8630999 1.506699,-5.4251998 1.237,-4.1424 1.4221,-5.2202 0.94249,-5.4886 -0.259,-0.1442 -0.383,-0.5058 -0.383,-1.11650005 l 0,-0.90283 4.0332,0.06205 4.0332,0.06205 0.0738,0.77319 c 0.0591,0.61919995 -0.0498,0.87169995 -0.54657,1.26779995 l -0.62037,0.4946601 0.51896,1.9132 c 0.28543,1.0523 0.64988,2.5333 0.80989,3.2911 0.16,0.75782 0.44839,1.7547 0.64087,2.2153998 l 0.34994,0.83754 5.2059,0 c 5.2995,0 7.3143,0.13369 7.3143,0.48532 0,0.10798 -2.6585,0.19634 -5.9077,0.19634 l -5.9077,0 0,1.1313 c 0,0.62223 0.19861,1.7725 0.44134,2.5562 0.24274,0.78369 0.8011,2.8564 1.2408,4.606 0.43971,1.7496 1.2667,4.9193 1.8378,7.0438 1.9136,7.119 4.4327,17.117 4.4327,17.593 0,0.42341 -0.13563,0.47117 -1.3381,0.47117 l -1.3381,0 -0.3888,-1.5337 c -0.21384,-0.84355 -0.57672,-2.1472 -0.80638,-2.8971 -0.22968,-0.74982 -0.99588,-3.715 -1.7027,-6.5894 -0.7068,-2.8743 -1.4229,-5.7373 -1.5914,-6.3622 -0.37316,-1.3841 -1.3873,-5.6311 -1.5864,-6.6436 -0.0796,-0.40472 -0.24339,-0.79684 -0.36399,-0.87138 -0.1206,-0.07454 -1.1163,0.74228 -2.2127,1.8152 -1.2542,1.2273 -2.1747,1.9507 -2.4823,1.9507 -0.45157,0 -1.6674,-0.93748 -3.7116,-2.8619 -0.45196,-0.42548 -0.88367,-0.7736 -0.95934,-0.7736 -0.189989,0 -0.705809,1.8352 -1.840599,6.5483 -0.532,2.2096 -1.602,6.4714 -2.3779,9.4707 -0.77584,2.9993 -1.5927,6.169 -1.8152,7.0438 l -0.40464,1.5905 -1.8831,0.06646 c -1.863,0.06574 -1.8817,0.06089 -1.7535,-0.45444 z m 17.047999,-24.407 c 1.081,-0.95279 1.9655,-1.8311 1.9655,-1.9519 0,-0.18768 -1.1567,-4.7374 -1.504,-5.9158 -0.10311,-0.34984 -0.44201,-0.39764 -2.8198,-0.39764 l -2.7026,0 -0.24323,0.96568 c -0.13377,0.53113 -0.44446,1.7395 -0.69041,2.6853 -0.66816,2.5693 -0.64482,2.6703 0.97293,4.2106 1.5001,1.4282 2.3935,2.1045 2.8061,2.1242 0.13743,0.0065 1.1344,-0.76763 2.2154,-1.7204 z m -0.3849,-9.6413 c 0.16837,-0.16837 0.0779,-0.8288499 -0.30348,-2.2153999 -0.29885,-1.0865 -0.60071,-2.3334 -0.6708,-2.7708 -0.16727,-1.0439 -0.78163,-2.7266 -0.99551,-2.7266 -0.49024,0 -1.0789,1.7151 -1.8256,5.3192 -0.37699,1.8196 -0.40981,2.2876999 -0.17102,2.4390999 0.43123,0.27353 3.6847,0.23622 3.9664,-0.04549 z m 6.8795,-4.3612999 c -0.008,-1.6559 -0.0582,-3.3378 -0.11044,-3.7377 -0.0523,-0.39986 0.0151,-0.79514 0.14987,-0.87842 0.28726,-0.17754 5.3028,-0.13295 5.7833,0.05141 0.42559,0.16332 0.47353,4.1574 0.0549,4.576 -0.45709,0.45709 -1.6454,0.32348 -2.1795,-0.24505 -0.56909,-0.60577 -1.1834,-2.2246 -1.1834,-3.1185 0,-0.3438999 -0.15529,-0.75415 -0.34509,-0.91167 -0.2824,-0.23438 -0.42686,-0.2124 -0.79527,0.1210001 -0.52981,0.47947 -0.57137,0.8624 -0.13311,1.2261 0.17438,0.14472 0.38696,0.64293 0.4724,1.1071 0.44549,2.4205 1.6994,3.7554 3.4141,3.6346 0.84112,-0.05923 0.91424,-0.01741 0.98078,0.56086 l 0.0719,0.62485 -3.0826,0 -3.0826,0 -0.0153,-3.0107 z" />
  </g>
</svg>
