<?xml version="1.0" encoding="UTF-8" standalone="no"?>
<!-- Created with Inkscape (http://www.inkscape.org/) -->

<svg
   xmlns:dc="http://purl.org/dc/elements/1.1/"
   xmlns:cc="http://creativecommons.org/ns#"
   xmlns:rdf="http://www.w3.org/1999/02/22-rdf-syntax-ns#"
   xmlns:svg="http://www.w3.org/2000/svg"
   xmlns="http://www.w3.org/2000/svg"
   xmlns:sodipodi="http://sodipodi.sourceforge.net/DTD/sodipodi-0.dtd"
   xmlns:inkscape="http://www.inkscape.org/namespaces/inkscape"
   id="svg2"
   height="45"
   width="67.5"
   version="1.1"
   inkscape:version="0.91 r"
   sodipodi:docname="13.svg">
  <defs
     id="defs26" />
  <sodipodi:namedview
     pagecolor="#ffffff"
     bordercolor="#666666"
     borderopacity="1"
     objecttolerance="10"
     gridtolerance="10"
     guidetolerance="10"
     inkscape:pageopacity="0"
     inkscape:pageshadow="2"
     inkscape:window-width="1871"
     inkscape:window-height="1056"
     id="namedview24"
     showgrid="false"
     inkscape:zoom="5.12"
     inkscape:cx="56.026105"
     inkscape:cy="37.516659"
     inkscape:window-x="1649"
     inkscape:window-y="24"
     inkscape:window-maximized="1"
     inkscape:current-layer="svg2" />
  <metadata
     id="metadata7">
    <rdf:RDF>
      <cc:Work
         rdf:about="">
        <dc:format>image/svg+xml</dc:format>
        <dc:type
           rdf:resource="http://purl.org/dc/dcmitype/StillImage" />
        <dc:title></dc:title>
      </cc:Work>
    </rdf:RDF>
  </metadata>
  <g
     id="g4274">
    <rect
       id="rect2990"
       height="45"
       width="67.5"
       y="0"
       x="3.5526999e-15"
       style="opacity:0" />
    <path
       inkscape:connector-curvature="0"
       id="path4328"
       d="m 35.801733,41.887538 c -0.67046,-1.7635 -1.9635,-5.3489 -2.8734,-7.9674 -0.90987,-2.6185 -2.0662,-5.6653 -2.5697,-6.7707 -1.5074,-3.3098 -3.5666,-9.8857 -3.1971,-10.21 0.18547,-0.16276 1.8204,-0.82987 3.6332,-1.4825 1.8128,-0.65259 3.7456,-1.3571 4.2951,-1.5656 l 0.99903,-0.37905 0.0996,-6.6425997 0.0996,-6.64259998 1.5777,-0.11365 1.5777,-0.11365000073 -0.0668,6.57549998073 c -0.0367,3.6164997 0.0345,6.7393997 0.15844,6.9397997 0.12385,0.2004 0.6677,0.47542 1.2086,0.61117 0.54086,0.13575 2.52,0.83499 4.3982,1.5539 2.7321,1.0458 3.4148,1.4532 3.4148,2.0382 0,0.40212 -0.63222,2.2344 -1.4049,4.0717 -1.6415,3.903 -2.7402,6.6872 -6.3748,16.155 -1.6579,4.3184 -2.8758,6.9914 -3.2131,7.0518 -0.37706,0.06758 -0.91612,-0.88347 -1.7622,-3.1091 z m 3.0447,-4.2136 c 0.34289,-0.85606 1.5871,-4.1109 2.7648,-7.233 1.1778,-3.1221 2.6346,-6.9689 3.2373,-8.5485 0.60275,-1.5796 1.0142,-3.0848 0.91443,-3.3448 -0.16801,-0.43785 -5.4926,-2.7558 -6.3303,-2.7558 -0.20454,0 -0.54828,0.3296 -0.76388,0.73245 -0.21559,0.40285 -0.64883,0.73245 -0.96273,0.73245 -0.31391,0 -0.65694,-0.3296 -0.76228,-0.73245 -0.2609,-0.99765 -1.4106,-0.94022 -4.2951,0.21455 -3.695,1.4792 -3.6551,0.86496 -0.5804,8.9411 0.42178,1.1078 1.6915,4.6099 2.8217,7.7823 2.2929,6.4364 2.8345,7.0129 3.9565,4.2116 z m -37.0080004,2.5388 c -0.102,-0.265 -0.138,-2.202 -0.08,-4.303 l 0.1051,-3.8206 12.3600004,-0.09643 12.36,-0.09643 0,4.3996 0,4.3996 -12.28,0 c -9.8223004,0 -12.3170004,-0.09657 -12.4650004,-0.48254 z m 26.4540004,0.23839 c -0.30353,-0.30353 -0.31439,-6.5978 -0.0133,-7.7213 0.17064,-0.63673 0.48702,-0.82401 1.3921,-0.82401 0.98013,0 1.272,0.21118 1.7884,1.2942 0.33944,0.71182 0.62178,1.4946 0.62742,1.7396 0.006,0.24495 0.48758,1.5113 1.071,2.8141 0.58339,1.3028 0.98105,2.4976 0.88369,2.6551 -0.21501,0.34789 -5.4055,0.38604 -5.7493,0.04226 z m 13.1,-0.232 c -0.10059,-0.26206 0.56382,-2.1966 1.4764,-4.299 0.91259,-2.1024 1.6592,-3.8656 1.6592,-3.9183 0,-0.05266 1.8952,-0.09574 4.2116,-0.09574 l 4.2116,0 0,4.3947 0,4.3947 -5.688,0 c -4.3315,0 -5.7316,-0.11363 -5.8708,-0.47646 z m 4.4489,-10.826 c -0.21826,-0.35316 0.74278,-3.2316 2.0957,-6.2767 l 0.89486,-2.0142 8.4687,0.10469 8.4687,0.10469 0,4.1985 0,4.1985 -9.8665,0 c -5.4266,0 -9.9542,-0.1419 -10.061,-0.31534 z m -30.978,-4.2625 0,-4.2116 6.001,0 6.001,0 0.55241,1.1902 c 0.70396,1.5167 2.4608,6.4347 2.4608,6.8886 0,0.20385 -3.0639,0.3444 -7.5076,0.3444 l -7.5076,0 0,-4.2116 z m 35.158,-7.1153 c 0,-1.1463 -0.81351,-2.2235 -1.6791,-2.2235 -0.29048,0 -0.81432,-0.15456 -1.1641,-0.34347 -0.34976,-0.18891 -1.8187,-0.77552 -3.2643,-1.3036 -2.9995,-1.0957 -3.5147,-1.5572 -3.3493,-3.0002 l 0.11805,-1.0293 6.409,0 6.409,0 0.05457,3.6623 c 0.07715,5.1782 0.0293,5.3103 -1.9254,5.3103 -1.5342,0 -1.6083,-0.04945 -1.6083,-1.0725 z m 0.73245,-4.1861 c 0,-0.91288 -0.62725,-1.6997 -1.355,-1.6997 -0.6511,0 -0.59892,1.1266 0.09827,2.122 0.66758,0.95312 1.2567,0.75513 1.2567,-0.42235 z m -48.4860004,4.3131 c -0.42299,-1.1023 -0.23928,-7.3145 0.23548,-7.9626 0.41787,-0.5704397 1.4956,-0.6164497 12.3600004,-0.5277797 l 11.902,0.09715 0.10938,2.5209997 c 0.0939,2.1635 -0.002,2.6396 -0.67658,3.3576 -0.60905,0.64831 -0.73018,1.0907 -0.53808,1.9653 l 0.24789,1.1287 -11.709,0 c -10.3390004,0 -11.7350004,-0.06776 -11.9310004,-0.57929 z m 26.2200004,-6.1043 0.10902,-2.2888997 3.1129,0 3.1129,0 0,1.2774997 c 0,1.2273 -0.0935,1.3162 -2.3805,2.261 -1.3093,0.5409 -2.7591,0.99603 -3.222,1.0114 -0.80218,0.02662 -0.8364,-0.07901 -0.73245,-2.261 z" />
  </g>
</svg>
