<?xml version="1.0" encoding="UTF-8" standalone="no"?>
<!-- Created with Inkscape (http://www.inkscape.org/) -->

<svg
   xmlns:dc="http://purl.org/dc/elements/1.1/"
   xmlns:cc="http://creativecommons.org/ns#"
   xmlns:rdf="http://www.w3.org/1999/02/22-rdf-syntax-ns#"
   xmlns:svg="http://www.w3.org/2000/svg"
   xmlns="http://www.w3.org/2000/svg"
   xmlns:sodipodi="http://sodipodi.sourceforge.net/DTD/sodipodi-0.dtd"
   xmlns:inkscape="http://www.inkscape.org/namespaces/inkscape"
   id="svg2"
   height="45"
   width="67.5"
   version="1.1"
   inkscape:version="0.91 r"
   sodipodi:docname="14.svg">
  <defs
     id="defs26" />
  <sodipodi:namedview
     pagecolor="#ffffff"
     bordercolor="#666666"
     borderopacity="1"
     objecttolerance="10"
     gridtolerance="10"
     guidetolerance="10"
     inkscape:pageopacity="0"
     inkscape:pageshadow="2"
     inkscape:window-width="1871"
     inkscape:window-height="1056"
     id="namedview24"
     showgrid="false"
     inkscape:zoom="5.12"
     inkscape:cx="56.026105"
     inkscape:cy="37.516659"
     inkscape:window-x="1649"
     inkscape:window-y="24"
     inkscape:window-maximized="1"
     inkscape:current-layer="svg2" />
  <metadata
     id="metadata7">
    <rdf:RDF>
      <cc:Work
         rdf:about="">
        <dc:format>image/svg+xml</dc:format>
        <dc:type
           rdf:resource="http://purl.org/dc/dcmitype/StillImage" />
        <dc:title></dc:title>
      </cc:Work>
    </rdf:RDF>
  </metadata>
  <g
     id="g4334">
    <rect
       id="rect2990"
       height="45"
       width="67.5"
       y="0"
       x="3.5526999e-15"
       style="opacity:0" />
    <path
       inkscape:connector-curvature="0"
       id="path4364"
       d="m 26.471095,44.428034 c -1.1302,-0.71675 -1.2176,-0.85885 -1.341,-2.1806 -0.0927,-0.99314 -0.1623,-1.1188 -0.8889,-1.6055 -0.43355,-0.2904 -1.1874,-0.74113 -1.6751,-1.0016 -0.48775,-0.26048 -1.1343,-0.63695 -1.4368,-0.83659 -0.65451,-0.43198 -2.0708,-0.72784 -2.2324,-0.46635 -0.30597,0.49506 -1.095,0.54947 -2.0446,0.14099 -1.7141,-0.73739 -1.6264,-0.34486 -1.633,-7.3042 -0.005,-5.8282 0.014,-6.1673 0.36952,-6.4228 0.38159,-0.27426 5.2731,-2.9988 7.9626,-4.4352 0.81292,-0.43414 2.0101,-1.1104 2.6605,-1.5029 l 1.1824,-0.71352 -6.5034,-0.09854 -6.5033,-0.09853 0,-4.7063 0,-4.7063007 0.59137,-0.319 c 0.32525,-0.17545 1.0347,-0.58191 1.5766,-0.90324 0.54186,-0.32133 1.5173,-0.83781 2.1676,-1.1477 0.65034,-0.30992 1.3154,-0.68023 1.478,-0.82289 0.2587,-0.22702 2.6774,-1.6183 4.7297,-2.7206 0.37936,-0.20376 1.1332,-0.6344 1.6751,-0.95697 1.8214,-1.08409997 2.6543,-1.40819997 2.9623,-1.15259997 0.217,0.18 0.348,0.1614 0.594,-0.0841 0.354,-0.3539 0.878,-0.4214 0.878,-0.113 0,0.11511 0.25454,0.07051 0.59122,-0.1036 0.32516,-0.16815 0.59121,-0.21705 0.59121,-0.10866 0,0.10839 -0.26605,0.33465 -0.59121,0.5028 -0.525,0.2719 -0.591,0.4053 -0.591,1.20359997 l 0,0.89783 0.68616,-0.42407 c 0.37738,-0.23324 0.77645,-0.36826 0.88682,-0.30005 0.11036,0.06821 0.20066,0.57594 0.20066,1.1283 0,0.93524 0.0237,0.98439 0.34488,0.71507 0.18968,-0.15906 0.57157,-0.42964 0.84864,-0.60129 l 0.50378,-0.31209 -0.0853,1.1787 -0.0853,1.1787 0.83457,-0.42577 c 1.3814,-0.70472 0.80537,-0.07255 -0.98215,1.0779 l -1.6748,1.0779 3.0546,0.01779 c 1.68,0.0098 5.8702,0.01 9.3116,4.54e-4 5.3708,-0.01489 6.257,0.02354 6.257,0.27126 0,0.15873 -0.0887,0.34341 -0.19707,0.4104 -0.37195,0.22988 -0.19675,0.49268 0.32845,0.49268 1.127,0 0.14956,0.30094 -1.2802,0.39414 l -1.5116,0.09854 0,1.1824 0,1.1824007 1.0839,0.03563 c 0.59614,0.0196 1.3943,0.04172 1.7736,0.04916 l 0.68975,0.01354 0,1.4289 c 0,1.4123 0.006,1.4296 0.54194,1.4912 0.31019,0.03569 0.54195,0.18317 0.54195,0.34488 0,0.22961 -0.44284,0.28252 -2.3649,0.28252 -2.3461,0 -2.3648,0.0037 -2.3648,0.45983 0,0.66319 0.11425,0.70353 1.0447,0.36893 0.80743,-0.29035 0.8762,-0.28199 2.063,0.25063 l 1.2278,0.551 0,5.4811 0,5.4811 -1.3302,0.9279 c -0.73163,0.51034 -2.5274,1.8156 -3.9907,2.9006 -4.2114,3.1227 -4.769,3.5171 -10.303,7.2862 -4.0192,2.7374 -4.7848,3.2827 -6.6451,4.7327 -1.4867,1.1588 -2.6123,1.9088 -2.8647,1.9088 -0.1162,0 -0.61711,-0.25738 -1.1131,-0.57194 z m 0.82469,-6.3112 0,-6.0949 -0.51925,-0.40845 c -0.28559,-0.22464 -0.68466,-0.40844 -0.88682,-0.40844 -0.35067,0 -0.36743,0.27398 -0.36455,5.9614 0.002,3.2788 0.0682,6.0594 0.1478,6.1791 0.14968,0.22505 1.214,0.84437 1.475,0.85831 0.0813,0.0043 0.1478,-2.7348 0.1478,-6.087 z m 1.761,5.3485 c 0.49472,-0.41054 1.5203,-1.182 2.279,-1.7143 0.75872,-0.53232 1.4091,-1.0389 1.4452,-1.1257 0.0361,-0.08683 0.14138,-0.15787 0.23388,-0.15787 0.0925,0 0.72806,-0.38391 1.4123,-0.85314 3.8338,-2.6289 4.7631,-3.2804 6.4665,-4.5333 1.0297,-0.75738 2.4448,-1.7841 3.1447,-2.2816 1.4797,-1.0518 3.0056,-2.5507 2.8511,-2.8007 -0.0588,-0.09521 -0.0131,-0.17312 0.10171,-0.17312 0.11479,0 0.38607,-0.17736 0.60285,-0.39414 0.21678,-0.21678 0.53105,-0.39414 0.69839,-0.39414 0.16733,0 0.28985,-0.11085 0.27225,-0.24634 -0.0697,-0.53716 0.0269,-0.77649 0.2752,-0.68123 0.14326,0.05498 0.37093,-0.07691 0.50593,-0.29307 0.22587,-0.36168 0.27314,-0.36796 0.59258,-0.07887 0.47042,0.42572 0.66639,0.39636 0.38303,-0.05737 -0.17962,-0.28763 -0.17483,-0.50957 0.0212,-0.98285 0.23792,-0.57439 0.70133,-0.71133 0.48316,-0.14278 -0.11786,0.30713 0.44354,0.5859 0.61646,0.30612 0.0641,-0.10366 0.0507,-0.29484 -0.0296,-0.42485 -0.0803,-0.13001 -0.15525,-0.44559 -0.16645,-0.70127 -0.0112,-0.25568 -0.10587,-0.52621 -0.21041,-0.60116 -0.40919,-0.29342 -0.18701,-1.0264 0.42411,-1.399 l 0.61417,-0.37454 0.0374,-3.172 c 0.0206,-1.7446 -0.0155,-3.172 -0.0801,-3.172 -0.36888,0 -3.4891,1.8525 -7.689,4.5651 -1.0839,0.70005 -2.4362,1.5334 -3.0051,1.8519 -0.56893,0.31847 -1.0345,0.64555 -1.0346,0.72684 -10e-5,0.08129 -0.083,0.1478 -0.18417,0.1478 -0.16974,0 -1.2682,0.62194 -2.9692,1.6811 -0.88859,0.5533 -4.2153,2.6524 -4.8958,3.0891 -0.28801,0.18485 -0.81187,0.48317 -1.1641,0.66294 -0.35227,0.17976 -0.64048,0.40542 -0.64048,0.50146 0,0.09604 -0.17104,0.17462 -0.38007,0.17462 -0.20904,0 -0.50159,0.12152 -0.65012,0.27005 -0.14852,0.14853 -0.54318,0.41129 -0.87702,0.58392 -0.33382,0.17263 -0.6487,0.428 -0.69972,0.5675 -0.1467,0.40113 -0.18625,11.661 -0.0423,12.036 0.17657,0.46013 0.2308,0.44248 1.257,-0.40912 z m 18.636,-15.217 c -0.067,-0.10839 -0.0279,-0.19707 0.0869,-0.19707 0.11478,0 0.2087,0.08868 0.2087,0.19707 0,0.10839 -0.0391,0.19707 -0.0869,0.19707 -0.0478,0 -0.14171,-0.08868 -0.2087,-0.19707 z m -1.478,-0.59121 c 0,-0.10839 0.0887,-0.19707 0.19707,-0.19707 0.10839,0 0.19707,0.08868 0.19707,0.19707 0,0.10839 -0.0887,0.19707 -0.19707,0.19707 -0.10839,0 -0.19707,-0.08868 -0.19707,-0.19707 z m 0.78829,0 c 0,-0.10839 0.13825,-0.19707 0.30723,-0.19707 0.16898,0 0.25243,0.08868 0.18544,0.19707 -0.067,0.10839 -0.20525,0.19707 -0.30724,0.19707 -0.10199,0 -0.18543,-0.08868 -0.18543,-0.19707 z m 0.88682,-0.19707 c -0.067,-0.10839 0.0608,-0.19707 0.28397,-0.19707 0.2293,0 0.40577,-0.12856 0.40577,-0.29561 0,-0.39838 0.32118,-0.37587 0.47827,0.03351 0.20139,0.5248 -0.8677,0.94508 -1.168,0.45916 z m 1.5766,-2.9561 c -0.067,-0.10839 -0.0279,-0.19707 0.0869,-0.19707 0.11478,0 0.2087,0.08868 0.2087,0.19707 0,0.10839 -0.0391,0.19707 -0.0869,0.19707 -0.0478,0 -0.14171,-0.08868 -0.2087,-0.19707 z m -24.536,14.977 c 0,-0.10839 -0.13826,-0.19707 -0.30724,-0.19707 -0.16898,0 -0.25243,0.08868 -0.18544,0.19707 0.067,0.10839 0.20525,0.19707 0.30724,0.19707 0.10199,0 0.18544,-0.08868 0.18544,-0.19707 z m -0.3632,-0.65508 c 0.28475,-0.2166 0.32966,-0.78973 0.35081,-4.4768 l 0.0242,-4.2284 0.82618,-0.71155 0.82617,-0.71156 -0.58577,-0.31222 c -0.32218,-0.17172 -0.89616,-0.49369 -1.2755,-0.71548 -1.0588,-0.61903 -3.2165,-1.6538 -3.5473,-1.7013 -0.16258,-0.02331 -0.4508,-0.1059 -0.64048,-0.18355 -0.26877,-0.11002 -0.34885,-0.03868 -0.36288,0.32332 -0.01,0.25547 -0.0561,1.0784 -0.10259,1.8288 -0.0465,0.75034 0.0139,1.6628 0.13436,2.0276 0.12041,0.36487 0.21314,1.2829 0.20605,2.0401 -0.0105,1.1192 0.0599,1.4496 0.37633,1.766 0.50814,0.50814 0.52073,1.0487 0.0207,0.89004 -0.53688,-0.1704 -0.78017,1.0602 -0.28167,1.4247 0.28748,0.21021 0.30435,0.3167 0.10162,0.64132 -0.21046,0.33701 -0.19217,0.38925 0.1363,0.38925 0.20867,0 0.41419,-0.10438 0.45671,-0.23196 0.12567,-0.37699 0.54674,0.01888 0.54674,0.51401 0,0.3773 0.13212,0.47698 0.76663,0.57845 0.60449,0.09666 0.79286,0.22704 0.89058,0.6164 0.13548,0.5398 0.60291,0.6359 1.1327,0.23288 z m -2.5929,-1.8952 c 0,-0.10199 0.0887,-0.24025 0.19708,-0.30724 0.10838,-0.06699 0.19707,0.01646 0.19707,0.18544 0,0.16898 -0.0887,0.30724 -0.19707,0.30724 -0.10839,0 -0.19708,-0.08345 -0.19708,-0.18544 z m -0.96067,-1.1617 c -0.28696,-0.52065 -0.23419,-0.67781 0.14822,-0.44147 0.14301,0.08839 0.22525,0.32744 0.18274,0.53123 -0.0701,0.33596 -0.10094,0.32759 -0.33096,-0.08976 z m 1.5519,0.16468 c 0,-0.10839 0.0939,-0.19707 0.2087,-0.19707 0.11478,0 0.1539,0.08868 0.0869,0.19707 -0.067,0.10839 -0.1609,0.19707 -0.2087,0.19707 -0.0478,0 -0.0869,-0.08868 -0.0869,-0.19707 z m -1.571,-2.752 c -0.15945,-0.10084 -0.22385,-0.24939 -0.14311,-0.33013 0.0807,-0.08073 0.2967,0.0032 0.47993,0.18635 0.35618,0.35618 0.14296,0.4472 -0.33682,0.14377 z m -0.18723,-1.3051 c 0.009,-0.22958 0.0562,-0.27627 0.11907,-0.11906 0.057,0.14226 0.0499,0.31223 -0.0156,0.37772 -0.0655,0.06549 -0.11206,-0.05091 -0.10351,-0.25866 z m 0.57566,-0.38935 c 0,-0.16898 0.0887,-0.25243 0.19707,-0.18544 0.10839,0.06699 0.19707,0.20525 0.19707,0.30724 0,0.10199 -0.0887,0.18544 -0.19707,0.18544 -0.10839,0 -0.19707,-0.13826 -0.19707,-0.30724 z m -3.9414,0.93561 c 0,-5.3729 -0.0208,-5.7002 -0.38747,-6.0938 -0.5207,-0.55891 -1.1929,-0.75928 -1.404,-0.41852 -0.0911,0.14708 -0.16869,2.7129 -0.17237,5.7019 -0.007,5.3885 -0.003,5.4379 0.43663,5.8378 0.45428,0.4133 0.84608,0.60754 1.2809,0.635 0.19173,0.0121 0.24634,-1.2431 0.24634,-5.6623 z m 3.9414,5.2838 c 0,-0.10839 -0.0391,-0.19707 -0.0869,-0.19707 -0.0478,0 -0.1417,0.08868 -0.20869,0.19707 -0.067,0.10839 -0.0279,0.19707 0.0869,0.19707 0.11478,0 0.2087,-0.08868 0.2087,-0.19707 z m -2.3648,-2.0058 c 0.24574,0.08242 0.25302,0.04753 0.0432,-0.20683 -0.1899,-0.23014 -0.20781,-0.59081 -0.0722,-1.4553 0.0991,-0.63213 0.13674,-1.2627 0.0836,-1.4012 -0.0531,-0.13852 0.0118,-0.25186 0.14422,-0.25186 0.17647,0 0.20529,-0.28471 0.1078,-1.065 -0.0848,-0.67849 -0.0573,-1.1118 0.0758,-1.1941 0.12555,-0.07759 0.20889,-0.94996 0.20889,-2.1867 0,-2.0186 -0.009,-2.0576 -0.45552,-2.0576 -0.25053,0 -0.65515,0.18599 -0.89915,0.41331 -0.44042,0.41031 -0.4432,0.44862 -0.38204,5.2716 0.0617,4.8661 0.23792,6.1594 0.64612,4.742 0.14239,-0.49444 0.29281,-0.67771 0.49938,-0.60843 z m -0.68975,-2.1327 c 0.067,-0.10839 0.1609,-0.19707 0.2087,-0.19707 0.0478,0 0.0869,0.08868 0.0869,0.19707 0,0.10839 -0.0939,0.19707 -0.20871,0.19707 -0.11478,0 -0.15389,-0.08868 -0.0869,-0.19707 z m 10.025,-2.8083 c 1.7836,-1.1598 3.856,-2.4512 5.8829,-3.6658 3.1999,-1.9174 3.5749,-2.1501 3.8399,-2.3825 0.1309,-0.11482 0.30209,-0.20876 0.3804,-0.20876 0.0783,0 0.72499,-0.37026 1.4371,-0.8228 0.71209,-0.45254 1.7381,-1.105 2.2801,-1.4498 0.54194,-0.34487 1.083,-0.6619 1.2023,-0.70451 0.42113,-0.15034 8.1518,-5.0059 8.1552,-5.1221 0.002,-0.06483 -0.33554,-0.2707 -0.74977,-0.4575 -0.73232,-0.33023 -0.77342,-0.32766 -1.4862,0.09289 -0.56461,0.33312 -0.94629,0.41181 -1.661,0.3424 -0.85403,-0.08294 -5.0628,-1.7654 -6.101,-2.4389 -0.5494,-0.35639 -0.57383,-0.98316 -0.0493,-1.2639 0.6698,-0.35847 0.45862,-0.60408 -0.76868,-0.89399 -0.23284,-0.055 -7.5866,3.7365 -11.548,5.9541 -0.65034,0.36404 -1.4485,0.79618 -1.7736,0.9603 -0.32517,0.16413 -0.85726,0.46813 -1.1824,0.67555 -0.32517,0.20742 -0.99028,0.57778 -1.478,0.82302 -0.48775,0.24524 -1.0198,0.54967 -1.1824,0.67651 -0.16258,0.12684 -1.7942,0.99527 -3.6258,1.9298 -4.3093,2.1988 -4.3366,2.2221 -3.2414,2.7684 0.79406,0.39612 0.9317,0.39055 1.9682,-0.07977 0.93377,-0.42371 1.9472,-0.50858 2.4876,-0.20831 0.18821,0.10459 0.74127,0.37356 1.229,0.59772 0.48775,0.22416 1.2415,0.61555 1.6751,0.86975 0.43356,0.2542 1.276,0.71855 1.8722,1.0319 1.3193,0.69346 1.4872,1.2051 0.60214,1.8353 -0.33118,0.23582 -0.60214,0.5027 -0.60214,0.59306 0,0.205 1.1965,0.98347 1.5186,0.98797 0.13067,0.0018 0.54442,-0.19621 0.91945,-0.44009 z m 0.60674,-3.4752 c -0.23365,-0.2175 -2.4566,-1.4276 -4.4735,-2.4352 -2.4816,-1.2398 -2.2721,-1.5356 3.1296,-4.4183 0.88127,-0.4703 1.8558,-0.8551 2.1655,-0.8551 0.81257,0 6.5214,2.8599 6.675,3.3439 0.20349,0.64116 -0.2354,1.1455 -1.7283,1.9862 -0.78255,0.44066 -1.7775,1.0211 -2.2111,1.2899 -1.8503,1.1471 -3.0875,1.5257 -3.5571,1.0885 z m -1.8623,-2.1645 c 0,-0.09403 0.35473,-0.15095 0.78829,-0.12649 0.51853,0.02926 0.78828,-0.03889 0.78828,-0.19914 0,-0.13399 0.19832,-0.37529 0.4407,-0.53623 0.3696,-0.24541 0.39985,-0.34184 0.1875,-0.59771 -0.17041,-0.20534 -0.18564,-0.34684 -0.0466,-0.4328 0.11365,-0.07024 0.20664,-0.71369 0.20664,-1.4299 0,-1.6825 0.19194,-1.473 0.40695,0.44419 0.21181,1.8888 0.34532,2.3167 0.6824,2.1874 0.146,-0.05603 0.30139,0.04841 0.34532,0.23209 0.0618,0.25852 0.12864,0.21587 0.2958,-0.18885 0.22563,-0.54629 0.58602,-0.87221 0.76574,-0.6925 0.0578,0.05782 0.10513,0.42751 0.10513,0.82154 0,0.55193 0.067,0.69068 0.29202,0.60435 0.1606,-0.06163 0.37344,-0.11206 0.47297,-0.11206 0.0995,0 0.18095,-0.17736 0.18095,-0.39414 0,-0.43687 0.20331,-0.50614 0.52916,-0.1803 0.15374,0.15374 0.39333,0.1122 0.8525,-0.1478 0.35126,-0.19891 0.8492,-0.47734 1.1065,-0.61874 0.25733,-0.1414 0.46788,-0.38468 0.46788,-0.54063 0,-0.41727 -5.3407,-3.0452 -6.1888,-3.0452 -0.40412,0 -1.2176,0.29214 -2.0226,0.72635 -0.74063,0.39949 -1.9674,1.0475 -2.7261,1.44 -1.8175,0.94032 -1.9143,1.3666 -0.46863,2.064 0.56929,0.27463 1.2402,0.49933 1.4909,0.49933 0.25069,0 0.4558,0.08868 0.4558,0.19707 0,0.10839 0.13302,0.19707 0.2956,0.19707 0.16259,0 0.29561,-0.07694 0.29561,-0.17097 z m 11.604,-3.5072 c -0.17546,-0.04683 -1.5944,-0.73729 -3.1531,-1.5344 -2.3689,-1.2113 -2.8438,-1.5279 -2.8933,-1.9288 -0.0754,-0.61053 -0.004,-0.66486 2.7654,-2.1029 2.9482,-1.5309 3.1378,-1.5343 6.4577,-0.11666 1.396,0.59614 2.6185,1.0839 2.7166,1.0839 0.3022,0 0.8307,0.69988 0.8302,1.0994 -3.9e-4,0.25804 -0.3408,0.55645 -1.0691,0.93699 -0.58775,0.3071 -1.1168,0.684 -1.1758,0.83755 -0.0589,0.15355 -0.25813,0.27919 -0.44267,0.27919 -0.18456,0 -0.47556,0.12496 -0.64667,0.27769 -0.98849,0.88226 -2.5035,1.4044 -3.3892,1.168 z m -0.37071,-4.2639 c 0,-1.517 -0.11902,-1.9115 -0.57665,-1.9115 -0.56134,0 -4.4415,2.2571 -4.5123,2.6248 -0.0454,0.23554 0.16441,0.43324 0.68896,0.64932 0.4148,0.17087 1.0586,0.45305 1.4307,0.62707 0.50093,0.23427 0.69704,0.25497 0.75544,0.07976 0.12283,-0.36849 0.60095,-0.27857 0.83398,0.15685 0.20101,0.3756 0.23717,0.36322 0.79522,-0.27236 0.52057,-0.5929 0.58462,-0.80697 0.58462,-1.9539 z m 1.7944,1.2416 c 0.10605,0 0.38715,0.18104 0.62466,0.40232 0.38396,0.35772 0.45666,0.36836 0.6558,0.09602 0.19749,-0.27008 0.25706,-0.25645 0.50394,0.11537 l 0.27998,0.42167 1.1092,-0.626 c 1.8348,-1.0355 1.8318,-1.0862 -0.1182,-1.9871 -0.93707,-0.43293 -1.7687,-0.79015 -1.848,-0.79383 -0.0793,-0.0037 -0.49896,-0.17803 -0.93251,-0.38746 -0.43356,-0.20942 -0.99928,-0.38378 -1.2572,-0.38746 -0.46367,-0.0066 -0.46733,0.0091 -0.32919,1.4109 0.0917,0.93098 0.26961,1.5828 0.51814,1.8988 0.20816,0.26462 0.39265,0.62436 0.41,0.79942 0.0173,0.17506 0.0673,0.03008 0.11102,-0.32218 0.0437,-0.35226 0.16625,-0.64048 0.27231,-0.64048 z m 12.001,7.0829 c 0,-0.10199 -0.0887,-0.18544 -0.19707,-0.18544 -0.10839,0 -0.19707,0.13826 -0.19707,0.30724 0,0.16898 0.0887,0.25243 0.19707,0.18544 0.10839,-0.06699 0.19707,-0.20525 0.19707,-0.30724 z m 0,-1.1753 c 0,-0.59533 -3.9e-4,-0.59552 -0.5092,-0.26212 l -0.5092,0.33364 0.45993,0.25513 c 0.25297,0.14032 0.48211,0.25828 0.5092,0.26211 0.0271,0.0038 0.0493,-0.2611 0.0493,-0.58877 z m -21.797,-7.959 c 1.0953,-0.58598 2.7452,-1.4573 3.6665,-1.9362 0.9213,-0.47894 2.6601,-1.4211 3.8639,-2.0936 1.2038,-0.67253 2.3567,-1.2537 2.5619,-1.2914 0.20522,-0.03775 0.86088,0.16586 1.457,0.45248 1.0676,0.5133 1.0848,0.53512 1.144,1.454 l 0.06,0.93289 0.77749,0 0.77748,0 0,-1.1708 c 0,-0.64394 -0.0887,-1.2256 -0.19707,-1.2926 -0.52372,-0.32368 -0.0398,-0.48278 1.6258,-0.53455 l 1.8229,-0.05667 0,-1.1824007 0,-1.1824 -2.0692,-0.05509 c -1.1381,-0.0303 -2.557,0.01482 -3.1531,0.10027 l -1.0839,0.15536 -0.0606,0.83582 c -0.0784,1.0817007 -0.39172,1.0806007 -0.47002,-0.0017 l -0.0606,-0.83755 -3.1039,-0.05427 -3.1039,-0.05427 0,1.1874 0,1.1874007 1.3795,0 c 1.0948,0 1.3795,0.061 1.3795,0.29561 0,0.24962 -0.45983,0.29561 -2.9561,0.29561 l -2.9561,0 0,1.2685 0,1.2685 0.64048,0.06175 c 0.35227,0.03396 0.61862,0.15044 0.59191,0.25882 -0.0281,0.1138 -1.0481,0.22045 -2.4141,0.2524 l -2.3655,0.05533 0,1.3734 c 0,0.75539 0.0572,1.3734 0.12709,1.3734 0.0699,0 1.0232,-0.47944 2.1185,-1.0654 z m -9.5372,-0.41775 0,-1.2861 -3.0053,0.0544 -3.0053,0.0544 -0.0587,1.2317 -0.0587,1.2317 3.064,0 3.064,0 0,-1.2861 z m 6.8975,0.0051 0,-1.281 -3.2517,0 -3.2517,0 0,1.281 0,1.281 3.2517,0 3.2517,0 0,-1.281 z m 20.262,-0.83917 0.0618,-0.63887 -1.7204,0 c -0.94624,0 -1.6579,0.06258 -1.5814,0.13905 0.26755,0.26755 2.5898,1.2163 2.8827,1.1776 0.17851,-0.02353 0.32007,-0.29203 0.35736,-0.67783 z m -30.115,-2.3223 0,-1.2893 -1.5273,0.05756 -1.5273,0.05756 -0.0587,1.2317 -0.0587,1.2317 1.586,0 1.586,0 0,-1.2893 z m 6.1092,0.0083 0,-1.281 -2.8575,0 -2.8575,0 0,1.281 0,1.281 2.8575,0 2.8575,0 0,-1.281 z m 7.2916,0 0,-1.281 -3.4487,0 -3.4487,0 0,1.281 0,1.281 3.4487,0 3.4487,0 0,-1.281 z m 20.259,-0.1478 0.0591,-1.1332 -3.2615,0 -3.2615,0 0,1.1873 0,1.1873 3.2024,-0.05415 3.2024,-0.05415 0.0591,-1.1332 z m -9.0633,0.49268 c -0.0365,-0.18968 -0.19702,-0.34487 -0.35663,-0.34487 -0.15961,0 -0.3201,0.15519 -0.35663,0.34487 -0.0466,0.24197 0.0598,0.34487 0.35663,0.34487 0.29682,0 0.40323,-0.1029 0.35663,-0.34487 z m -8.0424,-3.4107007 0,-1.1712 -3.1531,0 -3.1531,0 0,1.1705 0,1.1705007 0.73901,0.06116 c 0.40646,0.03364 1.8254,0.03392 3.1531,6.31e-4 l 2.4141,-0.06053 0,-1.1712007 z m -13.795,0.006 0,-1.1877 -2.9068,0.05454 -2.9068,0.05454 -0.0591,1.1332 -0.0591,1.1332007 2.9659,0 2.9659,0 0,-1.1877007 z m 7.0946,0.0053 0,-1.1824 -3.3502,0 -3.3502,0 0,1.1824 0,1.1824007 3.3502,0 3.3502,0 0,-1.1824007 z m -11.235,-1.773 c 0,-0.10839 -0.0887,-0.19707 -0.19708,-0.19707 -0.10838,0 -0.19707,0.08868 -0.19707,0.19707 0,0.10839 0.0887,0.19707 0.19707,0.19707 0.10839,0 0.19708,-0.08868 0.19708,-0.19707 z m 2.5619,-0.30724 c 0,-0.16898 -0.0887,-0.25243 -0.19707,-0.18544 -0.10839,0.06699 -0.19707,0.20524 -0.19707,0.30724 0,0.10199 0.0887,0.18544 0.19707,0.18544 0.10839,0 0.19707,-0.13826 0.19707,-0.30724 z m 2.9561,-0.10799 c 0,-0.09679 -0.17736,-0.17599 -0.39414,-0.17599 -0.38413,0 -0.51356,0.20903 -0.27634,0.44625 0.15788,0.15788 0.67048,-0.04875 0.67048,-0.27027 z m 3.6992,0.05804 c 0.0429,-0.12871 -0.0624,-0.23402 -0.23402,-0.23402 -0.17162,0 -0.31203,0.14041 -0.31203,0.31203 0,0.34801 0.42425,0.28741 0.54605,-0.07801 z m 6.7456,-0.15875 c 0,-0.16258 -0.0887,-0.2408 -0.19707,-0.17381 -0.10839,0.06699 -0.19707,0.25482 -0.19707,0.4174 0,0.16258 0.0887,0.2408 0.19707,0.17381 0.10839,-0.06699 0.19707,-0.25482 0.19707,-0.4174 z m 4.1385,0.20391 c 0,-0.17162 -0.10531,-0.27693 -0.23402,-0.23402 -0.36542,0.1218 -0.42602,0.54605 -0.078,0.54605 0.17162,0 0.31203,-0.14041 0.31203,-0.31203 z m 2.7286,-0.17041 c 0.0435,-0.22466 -0.0275,-0.31942 -0.19707,-0.26295 -0.14584,0.04856 -0.29581,0.24635 -0.33325,0.43954 -0.0435,0.22466 0.0275,0.31942 0.19707,0.26294 0.14583,-0.04856 0.2958,-0.24635 0.33325,-0.43953 z m 3.8649,0.29898 c 0.14574,-0.23582 -0.22499,-0.46947 -0.48748,-0.30724 -0.2204,0.13621 -0.0757,0.49069 0.20028,0.49069 0.0956,0 0.22484,-0.08255 0.2872,-0.18345 z m 6.7696,-0.0284 c -0.0388,-0.11652 -0.15487,-0.21185 -0.25784,-0.21185 -0.10297,0 -0.21899,0.09533 -0.25783,0.21185 -0.0388,0.11652 0.0772,0.21185 0.25783,0.21185 0.18065,0 0.29668,-0.09533 0.25784,-0.21185 z m -21.444,-0.276 c 0,-0.1763 -0.11554,-0.24508 -0.29561,-0.17599 -0.16258,0.06239 -0.2956,0.19263 -0.2956,0.28942 0,0.09679 0.13302,0.17599 0.2956,0.17599 0.16259,0 0.29561,-0.13024 0.29561,-0.28942 z m 17.539,-0.02063 c 0,-0.18352 -0.13408,-0.28405 -0.32854,-0.24634 -0.49441,0.09588 -0.5623,0.5564 -0.082,0.5564 0.24207,0 0.41056,-0.12725 0.41056,-0.31006 z m 2.8303,0.01445 c 0.0624,-0.16258 0.0384,-0.29561 -0.0533,-0.29561 -0.0917,0 -0.27715,0.13302 -0.41209,0.29561 -0.19971,0.24064 -0.1898,0.29561 0.0533,0.29561 0.16426,0 0.3497,-0.13302 0.41209,-0.29561 z m -26.084,-0.664 c 0.30432,-0.01902 0.39414,-0.16423 0.39414,-0.63721 0,-0.56649 -0.0399,-0.60257 -0.52992,-0.47958 -0.62861,0.15777 -1.6774,0.8688 -1.5605,1.058 0.0737,0.11926 0.49544,0.13388 1.6962,0.05883 z m 3.8754,-1.8253 c 0.30803,-0.25563 0.35296,-1.2736 0.0641,-1.4521 -0.10941,-0.06762 -0.86321,0.24375 -1.6751,0.69192 l -1.4762,0.81487 0,0.85801 0,0.85801 1.4121,-0.77618 c 0.77664,-0.4269 1.5304,-0.87442 1.6751,-0.99448 z m -1.1165,1.4981 c 0,-0.25072 -0.076,-0.26302 -0.44341,-0.07184 -0.65216,0.33931 -0.65985,0.37438 -0.0821,0.37438 0.3411,0 0.52552,-0.10617 0.52552,-0.30254 z m 2.7668,-0.09561 c 0.70879,-0.3616 0.78043,-0.46907 0.78043,-1.1708 0,-0.42496 -0.0745,-0.81867 -0.16547,-0.87492 -0.31245,-0.1931 -2.8854,1.5647 -2.9521,2.0168 -0.0559,0.37896 0.0283,0.42705 0.74688,0.42705 0.4454,0 1.161,-0.17917 1.5903,-0.39815 z m 2.357,-0.28978 0,-0.68793 -1.0346,0.62404 c -0.56905,0.34322 -1.0716,0.65279 -1.1167,0.68793 -0.0452,0.03514 0.42042,0.06388 1.0346,0.06388 l 1.1167,0 0,-0.68793 z m 2.2232,-0.01701 c 1.0951,-0.68502 1.127,-0.72957 1.127,-1.5766 0,-0.4794 -0.0309,-0.87163 -0.0686,-0.87163 -0.0378,0 -0.6807,0.33399 -1.4288,0.7422 -1.3221,0.72143 -1.3618,0.76555 -1.4207,1.5766 -0.0778,1.0715 0.24739,1.095 1.7911,0.12943 z m -0.794,-1.94 c 0.36389,-0.21994 0.49747,-1.5726 0.17497,-1.7719 -0.0934,-0.05775 -0.73638,0.23696 -1.4288,0.65492 -1.2362,0.74624 -1.26,0.77668 -1.3198,1.6911 l -0.0609,0.93116 1.1448,-0.64838 c 0.62964,-0.35661 1.3,-0.74218 1.4897,-0.85682 z m -2.6605,-0.75331 c 1.1186,-0.70397 1.2317,-0.83688 1.2317,-1.4472 0,-0.36964 -0.0999,-0.67208 -0.22208,-0.67208 -0.12214,0 -0.87594,0.36094 -1.6751,0.80209 l -1.453,0.80209 0,0.87995 c 0,1.0138 -0.0991,1.0309 2.1185,-0.3648 z m -3.3009,-0.34568 c 0,-0.10839 -0.0887,-0.19707 -0.19707,-0.19707 -0.10839,0 -0.19708,0.08868 -0.19708,0.19707 0,0.10839 0.0887,0.19707 0.19708,0.19707 0.10838,0 0.19707,-0.08868 0.19707,-0.19707 z m 2.1678,-1.3795 c 0,-0.10839 -0.0887,-0.19707 -0.19707,-0.19707 -0.10839,0 -0.19707,0.08868 -0.19707,0.19707 0,0.10839 0.0887,0.19707 0.19707,0.19707 0.10839,0 0.19707,-0.08868 0.19707,-0.19707 z" />
  </g>
</svg>
