<?xml version="1.0" encoding="UTF-8" standalone="no"?>
<!-- Created with Inkscape (http://www.inkscape.org/) -->

<svg
   xmlns:dc="http://purl.org/dc/elements/1.1/"
   xmlns:cc="http://creativecommons.org/ns#"
   xmlns:rdf="http://www.w3.org/1999/02/22-rdf-syntax-ns#"
   xmlns:svg="http://www.w3.org/2000/svg"
   xmlns="http://www.w3.org/2000/svg"
   xmlns:sodipodi="http://sodipodi.sourceforge.net/DTD/sodipodi-0.dtd"
   xmlns:inkscape="http://www.inkscape.org/namespaces/inkscape"
   id="svg2"
   height="45"
   width="67.5"
   version="1.1"
   inkscape:version="0.91 r"
   sodipodi:docname="18.svg">
  <defs
     id="defs26" />
  <sodipodi:namedview
     pagecolor="#ffffff"
     bordercolor="#666666"
     borderopacity="1"
     objecttolerance="10"
     gridtolerance="10"
     guidetolerance="10"
     inkscape:pageopacity="0"
     inkscape:pageshadow="2"
     inkscape:window-width="1871"
     inkscape:window-height="1056"
     id="namedview24"
     showgrid="false"
     inkscape:zoom="5.12"
     inkscape:cx="56.026105"
     inkscape:cy="37.516659"
     inkscape:window-x="1649"
     inkscape:window-y="24"
     inkscape:window-maximized="1"
     inkscape:current-layer="g4512" />
  <metadata
     id="metadata7">
    <rdf:RDF>
      <cc:Work
         rdf:about="">
        <dc:format>image/svg+xml</dc:format>
        <dc:type
           rdf:resource="http://purl.org/dc/dcmitype/StillImage" />
        <dc:title></dc:title>
      </cc:Work>
    </rdf:RDF>
  </metadata>
  <g
     id="g4334">
    <g
       id="g4393">
      <g
         id="g4512">
        <g
           id="g4571">
          <rect
             style="opacity:0"
             x="3.5526999e-15"
             y="0"
             width="67.5"
             height="45"
             id="rect2990" />
          <path
             inkscape:connector-curvature="0"
             id="path4508"
             d="m 17.12246,37.320403 c -1.371301,-0.558218 -4.036802,-0.990001 -5.859828,-0.949276 -1.5531002,0.0347 -1.7888252,-0.05888 -2.4702752,-0.98055 -0.436178,-0.589965 -1.283101,-1.17765 -2.011651,-1.3959 -0.69207,-0.207346 -1.258276,-0.498698 -1.258276,-0.647453 0,-0.148755 -0.441945,-0.498998 -0.982125,-0.77835 -0.681503,-0.352426 -1.08645,-0.895351 -1.322925,-1.773676 -0.22584,-0.838725 -0.789826,-1.626601 -1.671301,-2.335051 -1.03949996,-0.83535 -1.28984996,-1.2309 -1.14487496,-1.80855 0.102082,-0.406651 0.0207,-1.771951 -0.181005,-3.034052 -0.3376955,-2.11395 -0.316388,-2.334975 0.270615,-2.806276 0.350452,-0.281385 1.15882496,-1.30065 1.79632496,-2.265 0.637523,-0.964351 1.814551,-2.169001 2.615551,-2.676976 0.801001,-0.508005 2.125801,-1.732351 2.943826,-2.720851 3.0759762,-3.7166255 4.2779272,-4.3924515 8.2815032,-4.6566765 1.731751,-0.114277 4.192577,-0.36051 5.468627,-0.54717 3.791776,-0.554693 13.747505,-0.8151 15.567755,-0.407228 0.916276,0.205343 2.091901,0.783601 2.727301,1.341526 0.614288,0.539355 1.469551,0.980625 1.900651,0.980625 0.43107,0 1.577701,0.5965725 2.548126,1.3257005 1.525275,1.146075 1.995376,1.3257 3.468601,1.3257 1.140151,0 1.965826,0.20022 2.494651,0.60492 1.504576,1.151476 4.519877,2.709376 5.244002,2.709376 0.399937,0 1.045875,0.170565 1.43535,0.379028 0.38952,0.208462 1.547926,0.353828 2.574301,0.323032 1.462126,-0.04387 2.061451,0.09772 2.768776,0.654076 1.366351,1.07475 2.965801,4.730626 3.030076,6.925952 0.04872,1.663576 0.133305,1.854901 0.948226,2.144476 1.340626,0.476393 1.076925,1.79745 -0.457606,2.292226 -1.502475,0.48444 -1.878825,1.700175 -0.450787,1.456275 0.519142,-0.08866 1.204875,-0.272842 1.523925,-0.409275 C 67.329824,29.41573 67.5,29.493915 67.5,29.85748 c 0,0.483285 -1.068826,1.254301 -2.419726,1.745551 -0.462188,0.168052 -0.549436,0.433035 -0.38664,1.174275 0.199117,0.9066 0.109837,1.001625 -1.687651,1.796551 -1.04385,0.461632 -2.659576,0.99225 -3.590551,1.17915 -0.930976,0.186885 -2.662051,0.58407 -3.846902,0.882675 -1.18485,0.298576 -2.303475,0.495158 -2.485726,0.436846 -0.430455,-0.137685 -6.738002,-0.387526 -9.202503,-0.364508 -1.05105,0.0098 -2.318776,0.173333 -2.817151,0.363368 -1.28715,0.4908 -3.641176,0.07531 -4.065526,-0.717563 -0.21921,-0.409598 -0.69324,-0.642683 -1.307026,-0.642683 -1.379025,0 -1.56855,0.61545 -0.32316,1.049626 1.532326,0.534172 0.473303,1.021125 -1.20735,0.555187 -0.785025,-0.21765 -2.425801,-0.27405 -4.168802,-0.143302 -1.58085,0.118582 -2.946526,0.09874 -3.034801,-0.04409 -0.18591,-0.300825 -3.346651,-0.25887 -4.816351,0.06394 -0.552998,0.121463 -1.309201,0.05526 -1.688701,-0.147832 -0.548138,-0.293363 -0.726923,-0.264293 -0.8835,0.143655 -0.22185,0.578122 -1.217551,0.631927 -2.445376,0.132142 z m 14.214754,-1.400251 c 0.285053,-0.343477 0.261676,-0.54813 -0.09655,-0.845475 -0.641182,-0.53214 -2.648251,-2.57e-4 -2.790751,0.73956 -0.08628,0.448298 0.15177,0.559065 1.201801,0.559065 0.720188,0 1.4787,-0.203925 1.68555,-0.453172 z m -15.871505,-0.3345 c 0,-0.547403 -1.689526,-1.306425 -2.542351,-1.142175 -0.887325,0.17088 -0.739815,1.034925 0.222353,1.302525 1.397025,0.388598 2.32005,0.324788 2.32005,-0.160387 z m 4.778627,0.255765 c 0.6552,-0.251422 0.688275,-1.413825 0.04733,-1.659825 -0.566543,-0.217403 -2.237476,0.535755 -2.417626,1.08975 -0.06945,0.213803 0.21774,0.454493 0.638392,0.53487 0.420653,0.08037 0.864451,0.166448 0.986251,0.191273 0.121815,0.02482 0.457387,-0.0454 0.745725,-0.156038 z M 43.457594,35.73407 c 0.10488,-0.169688 0.03195,-0.40662 -0.16203,-0.526516 -0.490501,-0.30315 -1.402651,0.0941 -1.151026,0.501271 0.25905,0.419145 1.060051,0.434542 1.313026,0.02524 z m 5.482727,0.01574 c 0,-0.357525 -1.614376,-0.697118 -2.216176,-0.466186 -0.886201,0.340058 -0.394695,0.759001 0.8904,0.759001 0.72915,0 1.325701,-0.13176 1.325701,-0.292793 z m -23.234259,-0.342 c 0.719506,-0.455581 0.203033,-1.237576 -0.972675,-1.472701 -2.320801,-0.46416 -3.469951,-0.05467 -2.642926,0.941775 0.594323,0.716123 2.809426,1.041376 3.615601,0.530903 z m 25.805259,-0.111233 c -0.07504,-0.227858 -0.490485,-0.4659 -0.923175,-0.528975 -0.686903,-0.10014 -0.73104,-0.04755 -0.347745,0.414285 0.519053,0.625418 1.467301,0.710993 1.27095,0.11469 z m -40.685264,-0.42525 c 0,-0.534293 -0.8821502,-1.040851 -1.2215252,-0.701415 -0.236055,0.236055 0.5129102,1.208925 0.9306752,1.208925 0.159968,0 0.29085,-0.228398 0.29085,-0.507548 z m 23.365508,0.01039 c 0,-0.182287 -0.335572,-0.379087 -0.745717,-0.43734 -0.513106,-0.07287 -0.745718,0.06355 -0.745718,0.43734 0,0.373793 0.232605,0.510211 0.745718,0.437341 0.410145,-0.05825 0.745717,-0.255053 0.745717,-0.437341 z m 3.214727,-0.56355 c -0.357646,-0.357645 -1.060426,-0.09712 -1.060426,0.393098 0,0.390472 1.129651,0.598905 1.280176,0.236212 0.06607,-0.15921 -0.03278,-0.442395 -0.219698,-0.62931 z M 28.391288,34.1993 c 0,-0.262673 -0.223717,-0.477586 -0.497145,-0.477586 -0.499215,0 -0.681307,0.699646 -0.28521,1.095751 0.309315,0.309307 0.782325,-0.06448 0.782325,-0.618173 z m 27.77776,0.271935 c -0.127485,-0.661973 -0.8871,-0.884176 -1.554375,-0.454733 -0.648751,0.417533 -0.153691,1.03095 0.83205,1.03095 0.61314,0 0.804,-0.152242 0.722355,-0.576195 z m 3.774376,-0.152948 c -0.309337,-0.309337 -0.486097,-0.309337 -0.79545,0 -0.30933,0.309338 -0.220957,0.397718 0.397718,0.397718 0.618675,0 0.707047,-0.08838 0.397717,-0.397718 z m -14.548505,-0.1455 c 0.31263,-0.31263 -1.062675,-2.108851 -1.614675,-2.108851 -0.62049,0 -0.603165,0.663211 0.04136,1.583401 0.50724,0.724178 1.157476,0.941325 1.573351,0.525443 z m 2.670601,-0.285982 c 0.138,-0.360751 -0.036,-0.498751 -0.627,-0.498751 -0.858375,0 -1.113075,0.488633 -0.40389,0.774826 0.6903,0.278542 0.832575,0.24024 1.031325,-0.27765 z m 10.320004,-0.170258 c 0,-0.710423 -0.963001,-0.607815 -1.102726,0.117495 -0.0853,0.44292 0.04968,0.577905 0.492608,0.492608 0.33555,-0.06461 0.610103,-0.339165 0.610103,-0.610103 z m -43.152765,0.126667 c 0.271582,-0.271575 -0.3567,-1.447876 -0.773325,-1.447876 -0.175868,0 -0.319763,0.273428 -0.319763,0.607621 0,0.89505 0.587055,1.34625 1.093125,0.840225 z m 3.558601,-0.301898 c 0.32025,-0.385882 0.33063,-0.604822 0.0423,-0.893175 -0.519375,-0.519375 -2.166076,0.07259 -2.312176,0.831225 -0.144457,0.750076 1.657951,0.799276 2.269876,0.06197 z m 12.118504,-0.757575 c -0.421515,-0.421515 -0.579862,-0.428498 -1.04085,-0.0459 -0.50238,0.41694 -0.499418,0.48363 0.039,0.87735 0.441233,0.322636 0.693983,0.333788 1.04085,0.0459 0.38826,-0.322222 0.382305,-0.456015 -0.03899,-0.87735 z m 10.545754,1.067626 c 0.53826,-0.206551 0.71958,-0.982501 0.275685,-1.179751 -0.136718,-0.06076 -0.7575,-0.707055 -1.37955,-1.436175 -3.279002,-3.843602 -6.841203,-7.457178 -7.351053,-7.457178 -0.8514,0 -1.626526,0.354195 -1.626526,0.743183 0,0.187462 1.107001,1.551075 2.460001,3.030301 6.231827,6.813077 6.248327,6.826652 7.621503,6.299702 z m 10.500004,-0.483608 c -0.821176,-0.683775 -1.391551,-0.707153 -1.605376,-0.06578 -0.06747,0.20241 0.221498,0.433778 0.64215,0.514155 1.599526,0.305626 1.772176,0.225241 0.963226,-0.44838 z m -39.033764,0.135277 c 0.335783,-0.335782 -0.446723,-1.107675 -1.1229,-1.107675 -0.693203,0 -1.107076,0.50961 -0.807526,0.994275 0.229133,0.37074 1.593001,0.450825 1.930501,0.113355 z m 22.926758,-0.6105 c 0,-0.555653 -0.254625,-0.6792 -1.574326,-0.763875 -1.68195,-0.107925 -2.054325,0.319035 -0.994275,1.14 0.8871,0.687023 2.568601,0.44079 2.568601,-0.376125 z M 9.3008568,32.780786 c 0.272505,-0.440903 -0.7746,-1.7112 -1.410526,-1.7112 -0.746617,0 -1.37325,0.635182 -1.37325,1.392 0,0.473565 0.269332,0.596573 1.306125,0.596573 0.718403,0 1.383301,-0.124838 1.477651,-0.277418 z M 21.408111,32.438921 c 0.417405,-0.779925 0.162368,-1.03785 -1.026225,-1.03785 -0.989026,0 -1.233076,0.567697 -0.541336,1.2594 0.575446,0.575438 1.187251,0.488955 1.567576,-0.221565 z m 3.669076,0.354143 c 0,-0.513271 -0.80385,-1.060576 -1.55775,-1.060576 -0.720136,0 -1.024651,0.621465 -0.541335,1.104751 0.31296,0.31296 2.099025,0.275355 2.099025,-0.04419 z m 30.822761,-0.06629 c 0,-0.182288 -0.289485,-0.331433 -0.643298,-0.331433 -0.35382,0 -0.73548,0.149145 -0.8481,0.331433 -0.116175,0.187972 0.162277,0.331432 0.643298,0.331432 0.466477,0 0.8481,-0.149145 0.8481,-0.331432 z m -27.66076,-0.354001 c 0.120158,-0.194415 0.144285,-0.427672 0.05359,-0.518347 -0.23664,-0.23664 -2.194126,-0.260348 -2.425126,-0.02937 -0.396908,0.396915 0.273375,0.9012 1.1979,0.9012 0.525338,0 1.053451,-0.159067 1.173601,-0.353483 z m 19.854007,-0.279472 c 0.102488,-0.16584 0.09108,-0.549788 -0.02536,-0.8532 -0.1557,-0.405751 -0.440955,-0.495143 -1.078201,-0.337883 -1.078725,0.26619 -1.505475,0.66363 -1.215825,1.13235 0.269498,0.436058 2.058226,0.481396 2.319376,0.05879 z M 62.1857,31.753753 c 0.516578,-0.96525 0.46047,-1.0161 -1.12125,-1.0161 -1.891051,0 -2.512801,0.25479 -2.512801,1.02975 0,0.932401 3.134026,0.920626 3.634051,-0.01367 z m -44.904765,-0.7125 c -1.052026,-0.411023 -1.815451,-0.339465 -1.815451,0.170168 0,0.608715 0.973875,0.829425 1.815451,0.41145 0.65301,-0.324308 0.65301,-0.32649 0,-0.581618 z m 32.653511,0.50634 c 0,-0.28419 -0.149145,-0.42453 -0.331433,-0.311872 -0.182287,0.112657 -0.331432,0.34518 -0.331432,0.516705 0,0.171525 0.149145,0.311872 0.331432,0.311872 0.182288,0 0.331433,-0.232515 0.331433,-0.516705 z m -38.777264,-0.2925 c 0,-0.577613 -0.543435,-0.96105 -0.9798,-0.691365 -0.4411132,0.272625 -0.04387,1.16895 0.518138,1.16895 0.25392,0 0.461677,-0.214912 0.461677,-0.477585 z m 44.244016,0.146775 c 1.802325,-0.685238 -0.517973,-1.54125 -2.611126,-0.9633 -1.163701,0.321322 -1.433476,0.617423 -0.977775,1.073175 0.334125,0.334125 2.60385,0.264645 3.588826,-0.10986 z M 5.6716808,31.096618 c 0.206085,-0.33345 -0.673306,-1.352475 -1.167151,-1.352475 -0.16926,0 -0.307755,0.372862 -0.307755,0.8286 0,0.59922 0.178065,0.8286 0.643298,0.8286 0.353827,0 0.728055,-0.137122 0.8316,-0.30471 z M 13.416933,30.65561 c -0.06802,-0.479235 -0.372382,-0.7836 -0.851625,-0.851625 -0.8196,-0.1164 -1.009425,0.538185 -0.348008,1.199626 0.661456,0.661447 1.316026,0.471555 1.199626,-0.348001 z m 15.935256,-0.49714 c -0.245003,-0.319005 -1.008976,-1.2105 -1.697701,-1.9812 -1.84155,-2.060551 -1.6995,-2.488501 0.66588,-2.006101 1.281526,0.26133 1.874251,0.654045 3.301877,2.187601 0.957,1.02795 1.74,1.983975 1.74,2.124375 0,0.14043 0.298283,0.25533 0.662858,0.25533 1.11855,0 0.735803,-0.722332 -1.836226,-3.465601 -1.359825,-1.45035 -2.472376,-2.824726 -2.472376,-3.054076 0,-0.22938 0.28848,-0.57144 0.641078,-0.760125 0.73368,-0.392655 3.337651,-0.453405 3.833701,-0.08944 0.182528,0.13392 1.669351,1.713225 3.304052,3.509551 l 2.972176,3.266026 1.9989,-0.220935 c 5.903252,-0.6525 13.365005,-3.001501 14.544755,-4.578751 0.877501,-1.174501 0.327,-1.974751 -2.18925,-3.182252 -2.186251,-1.05 -3.755252,-1.41225 -8.859753,-2.0475 -6.737253,-0.837751 -8.622753,-1.875751 -8.622753,-4.749002 0,-3.060901 -1.899151,-3.851251 -9.252754,-3.850501 -5.327027,5.79e-4 -9.916503,0.764625 -13.368004,2.225551 -1.487776,0.629775 -1.589926,1.340325 -0.414293,2.881726 1.006425,1.31955 1.059675,2.534775 0.147113,3.360601 -0.374821,0.339195 -1.828951,1.223925 -3.231452,1.966125 -2.0311502,1.074826 -2.6762252,1.606051 -3.1705512,2.610976 -1.16055,2.359426 -0.316507,3.068026 5.5614022,4.669352 3.532727,0.9624 7.272903,1.3974 12.582755,1.4634 3.384151,0.04207 3.576376,0.0095 3.157951,-0.535207 z M 17.454185,27.206469 c -0.820276,-0.266497 -1.750426,-0.62481 -2.066926,-0.796275 -0.316523,-0.171443 -1.0995,-0.311715 -1.740001,-0.311715 -0.792375,0 -1.164525,-0.152445 -1.164525,-0.477083 0,-0.382245 0.77415,-0.497543 3.894301,-0.580005 2.141851,-0.05661 4.416302,-0.01537 5.054327,0.09165 l 1.160025,0.194573 -1.2429,0.256597 c -2.153251,0.444555 -1.306725,1.492201 1.215225,1.504051 1.723726,0.0081 0.695596,0.331425 -1.491075,0.468952 -1.319626,0.083 -2.693176,-0.05015 -3.618526,-0.350752 z m 26.329509,-3.579751 c 0.61752,-0.490515 0.604215,-0.511238 -0.331433,-0.516105 -0.53613,-0.0028 -1.181325,-0.1359 -1.43385,-0.295808 -0.806476,-0.510735 0.72522,-1.024875 3.053251,-1.024875 1.554825,0 2.1906,0.130267 2.323276,0.476032 0.10164,0.264871 0.742207,0.527701 1.44405,0.592501 l 1.26135,0.11646 -0.994275,0.45564 c -0.546863,0.250597 -2.112901,0.512228 -3.480001,0.581393 -2.285626,0.115635 -2.433901,0.08461 -1.842376,-0.385276 z M 18.448685,21.819967 c 0,-0.150285 0.745718,-0.583162 1.657126,-0.96195 0.9114,-0.378773 1.657125,-0.835275 1.657125,-1.01445 0,-0.17916 -0.395633,-0.636946 -0.87915,-1.017301 -0.48354,-0.380355 -0.8124,-0.758325 -0.730748,-0.84 0.08164,-0.08163 1.0905,-0.04226 2.241826,0.08749 l 2.093401,0.23592 0.06452,1.344976 0.06452,1.344975 -2.007151,0.422288 c -2.793376,0.587692 -4.161452,0.718537 -4.161452,0.39801 z M 30.380439,16.51379 c -0.273427,-0.156397 -1.31745,-0.386332 -2.320051,-0.510975 -1.0026,-0.124642 -2.344876,-0.47316 -2.982901,-0.774525 -1.057125,-0.49929 -1.09215,-0.558218 -0.394755,-0.664568 0.420893,-0.06418 1.226176,0.04398 1.789501,0.240353 1.2489,0.43536 4.460851,0.472058 4.719226,0.05392 0.103073,-0.166718 -10e-6,-0.370013 -0.229005,-0.45177 -0.953175,-0.340306 0.04949,-0.490831 1.903651,-0.285781 l 1.988551,0.219915 -1.077151,0.647559 c -1.21935,0.733058 -1.380825,1.167525 -0.433852,1.167525 0.35382,0 0.73548,0.149145 0.848175,0.331433 0.253883,0.41079 -3.098926,0.434468 -3.811426,0.02692 z M 9.1014318,30.193795 c 1.0599752,-0.28392 0.823875,-1.309725 -0.272798,-1.185225 -2.002201,0.227302 -2.390101,0.407505 -1.969051,0.914775 0.431776,0.52026 1.036651,0.59322 2.241901,0.270398 z M 52.955447,29.500517 c 0.890325,-0.316215 1.6188,-0.76365 1.6188,-0.994275 0,-0.498968 -0.363757,-0.527918 -1.392975,-0.110857 -0.418725,0.169672 -1.171425,0.396225 -1.672726,0.50346 -0.501292,0.107227 -0.9114,0.415845 -0.9114,0.6858 0,0.63168 0.381338,0.618075 2.358376,-0.08411 z m 8.247753,-0.02163 c 0,-0.608617 -0.875701,-1.060575 -2.054851,-1.060575 -1.341375,0 -1.63155,0.413205 -0.679433,0.967725 0.690233,0.402023 2.734276,0.471421 2.734276,0.09284 z m -54.8640192,-0.93 c 0.41094,-0.410947 0.444855,-0.63756 0.1488,-0.994275 -0.210908,-0.254115 -0.570653,-0.46203 -0.799425,-0.46203 -0.620611,0 -1.261426,0.914775 -1.041751,1.48725 0.250643,0.653145 1.022476,0.63906 1.692451,-0.03089 z m 57.5317702,-0.30483 c 1.725075,-0.89205 1.1133,-1.814326 -1.203601,-1.814326 -1.296825,0 -1.30845,0.02485 -0.62724,1.342201 0.588495,1.13805 0.558285,1.13025 1.830826,0.472178 z m -60.0052712,-0.6825 c 0,-1.038301 -0.77835,-0.924601 -0.9345,0.13644 -0.07035,0.47799 0.06885,0.71976 0.414292,0.71976 0.3384,0 0.520193,-0.299227 0.520193,-0.8562 z m 56.3430192,-0.63525 c 0,-0.375623 -0.405082,-0.497146 -1.657125,-0.497146 -1.252043,0 -1.657126,0.121523 -1.657126,0.497146 0,0.375622 0.405083,0.497145 1.657126,0.497145 1.252043,0 1.657125,-0.121523 1.657125,-0.497145 z M 5.8539308,25.959556 c 0,-0.07623 0.09049,-0.37452 0.201187,-0.662857 0.127763,-0.332963 0.0216,-0.524251 -0.29085,-0.524251 -0.589665,0 -1.3203,0.799576 -1.0122,1.107676 0.23922,0.239227 1.1019,0.30144 1.1019,0.07947 z M 61.81595,25.250469 c 0.06382,-0.05637 0.01773,-0.261556 -0.10242,-0.455971 -0.269528,-0.436102 -2.057551,-0.46878 -2.321026,-0.04243 -0.43194,0.698895 1.700026,1.1373 2.423476,0.49839 z M 2.8711798,25.103468 c 0,-0.182287 -0.140333,-0.331432 -0.311881,-0.331432 -0.171517,0 -0.404032,0.149145 -0.51669,0.331432 -0.112665,0.182288 0.02775,0.331433 0.311865,0.331433 0.28419,0 0.516706,-0.149145 0.516706,-0.331433 z m 1.62255,-0.634485 c 0.270765,-0.171442 0.372218,-0.528412 0.24465,-0.86085 -0.177172,-0.461715 -0.310162,-0.49137 -0.71115,-0.15858 -0.5121,0.42501 -0.679478,1.3263 -0.24465,1.317375 0.136717,-0.0028 0.456735,-0.136882 0.71115,-0.297982 z M 61.802,23.197733 c -0.07579,-0.393533 -0.42102,-0.580005 -1.07385,-0.580005 -1.081576,0 -1.543051,0.689115 -0.621428,0.927975 1.3104,0.339675 1.808026,0.237518 1.695226,-0.348008 z M 6.3889808,21.935482 c -0.10086,-0.262785 -0.33717,-0.477787 -0.525165,-0.477787 -0.477451,0 -0.427651,1.106775 0.07245,1.610325 0.332662,0.33495 0.43614,0.31155 0.525165,-0.118785 0.06097,-0.294765 0.02835,-0.7509 -0.07245,-1.0137 z M 58.550749,21.753667 c 0,-0.473362 -0.239318,-0.627405 -0.9747,-0.627405 -1.259926,0 -1.543951,0.48612 -0.649921,1.112325 0.855751,0.599371 1.624651,0.369856 1.624651,-0.484927 z m 4.343026,-0.06271 c -0.425385,-0.425385 -0.8568,-0.09661 -0.541837,0.412957 0.121995,0.197385 0.373635,0.265051 0.559215,0.15036 0.226365,-0.139905 0.22065,-0.32529 -0.01736,-0.56331 z M 4.6930048,21.126267 c 0,-1.251376 -1.2885,-1.153276 -1.4331,0.109125 -0.09336,0.8154 -0.0068,0.923475 0.662865,0.8286 0.571553,-0.08098 0.77025,-0.322868 0.77025,-0.937725 z m 3.749101,-0.576196 c -0.123555,-0.641617 -1.0062,-0.920325 -1.8627,-0.588165 -0.511103,0.198203 -0.503798,0.25926 0.08274,0.690893 0.913425,0.672255 1.918126,0.61428 1.78005,-0.10272 z m 46.7332672,-0.8598 c 0.116235,-0.982275 -0.718028,-1.5636 -1.344601,-0.936975 -0.267645,0.267645 -0.260355,0.599295 0.02705,1.230075 0.482775,1.059601 1.175776,0.905401 1.317601,-0.293062 z m 5.694977,0.607448 c 0,-0.273428 -0.214913,-0.497145 -0.477585,-0.497145 -0.553703,0 -0.927451,0.47304 -0.618173,0.782325 0.396112,0.396113 1.09575,0.214005 1.09575,-0.285203 z m -2.724751,-0.531023 c 0.05084,-0.261847 -0.119445,-0.7659 -0.37842,-1.12005 -0.400418,-0.547605 -0.550606,-0.577763 -1.003876,-0.201578 -0.706185,0.586088 -0.679522,1.600576 0.047,1.787851 0.834526,0.215115 1.229851,0.0771 1.335301,-0.466215 z m -53.1210192,-1.32 c 0,-0.578161 -0.183112,-0.800926 -0.65832,-0.800926 -0.777675,0 -1.1067,1.114426 -0.45144,1.529176 0.68565,0.434033 1.109775,0.15573 1.109775,-0.728235 z m 7.1257532,0.505207 c 0,-0.28419 -0.149145,-0.42453 -0.331425,-0.311872 -0.182288,0.112657 -0.331433,0.34518 -0.331433,0.516705 0,0.171525 0.149145,0.311873 0.331433,0.311873 0.18228,0 0.331425,-0.232516 0.331425,-0.516706 z m 37.693513,0.31647 c -0.110138,-0.110137 -0.395993,-0.121905 -0.635243,-0.02618 -0.26439,0.105803 -0.185857,0.184335 0.200243,0.200236 0.34938,0.01439 0.54513,-0.06395 0.435,-0.174076 z m -1.809751,-0.34875 c -0.224385,-0.09079 -0.67182,-0.09632 -0.994275,-0.01227 -0.32247,0.08403 -0.138878,0.15831 0.407978,0.165068 0.546862,0.0068 0.810675,-0.062 0.586312,-0.152783 z m 3.888002,-0.5706 c 0,-0.825825 -1.130851,-1.371225 -2.568601,-1.238775 -0.613006,0.05647 -0.502515,0.94815 0.165712,1.337325 0.864151,0.50334 2.402851,0.440205 2.402851,-0.09859 z m 8.171252,-0.05487 c 0.107948,-0.281295 0.124605,-0.583088 0.03704,-0.670665 -0.295275,-0.295268 -1.248376,0.254752 -1.248376,0.72042 0,0.62718 0.966826,0.587468 1.211326,-0.04975 z m -51.9195182,-0.1515 c 0,-0.182288 -0.149145,-0.331433 -0.331425,-0.331433 -0.182295,0 -0.331432,0.149145 -0.331432,0.331433 0,0.182288 0.149137,0.331433 0.331432,0.331433 0.18228,0 0.331425,-0.149145 0.331425,-0.331433 z m 3.9771772,-0.9747 c 0,-0.171525 -0.149145,-0.404048 -0.331425,-0.516705 -0.182288,-0.112658 -0.331433,0.02769 -0.331433,0.311872 0,0.28419 0.149145,0.516705 0.331433,0.516705 0.18228,0 0.331425,-0.14034 0.331425,-0.311872 z m 29.93401,-0.35775 c -0.148965,-0.137595 -0.606428,-0.351556 -1.01655,-0.475471 -0.87645,-0.26481 -1.013851,0.299243 -0.18573,0.762676 0.621877,0.348022 1.62945,0.10734 1.202325,-0.287205 z m 4.534877,0.17247 c 0,-0.273428 -0.149145,-0.497146 -0.331433,-0.497146 -0.182287,0 -0.331432,0.223718 -0.331432,0.497146 0,0.273427 0.149145,0.497145 0.331432,0.497145 0.182288,0 0.331433,-0.223718 0.331433,-0.497145 z m -36.457513,-0.16575 c 0,-0.182288 -0.149145,-0.331433 -0.3314252,-0.331433 -0.182288,0 -0.331433,0.149145 -0.331433,0.331433 0,0.182287 0.149145,0.331432 0.331433,0.331432 0.1822802,0 0.3314252,-0.149145 0.3314252,-0.331432 z M 44.962394,16.48549 c 0,-0.182288 -0.149145,-0.331433 -0.331432,-0.331433 -0.182288,0 -0.331433,0.149145 -0.331433,0.331433 0,0.182288 0.149145,0.331433 0.331433,0.331433 0.182287,0 0.331432,-0.149145 0.331432,-0.331433 z m 3.314251,-0.1875 c 0,-0.28419 -0.151575,-0.42303 -0.33684,-0.308528 -0.185257,0.114495 -0.251032,0.347018 -0.146152,0.516705 0.284115,0.459713 0.482992,0.373988 0.482992,-0.208177 z M 7.1796308,16.33711 c 0,-0.08038 -0.149145,-0.238328 -0.331433,-0.350993 -0.182287,-0.112657 -0.331432,-0.04689 -0.331432,0.146153 0,0.193042 0.149145,0.350992 0.331432,0.350992 0.182288,0 0.331433,-0.06577 0.331433,-0.146152 z M 51.548146,16.038482 c 0.437858,-0.527587 0.167251,-0.88095 -0.67464,-0.88095 -0.593782,0 -0.8265,0.664928 -0.38667,1.10475 0.334785,0.334786 0.653483,0.26757 1.061325,-0.22383 z m -42.5460142,-0.549 c -0.112673,-0.182287 -0.419753,-0.331432 -0.682426,-0.331432 -0.262672,0 -0.477577,0.149145 -0.477577,0.331432 0,0.182288 0.30708,0.331433 0.68241,0.331433 0.375338,0 0.59025,-0.149145 0.477593,-0.331433 z m 32.9775112,-0.9747 c 0,-0.870826 -0.442193,-1.082551 -1.161825,-0.556365 -0.700066,0.511897 -0.402803,1.1997 0.518512,1.1997 0.415831,0 0.643298,-0.227475 0.643298,-0.643305 z m 4.971452,-0.185273 c 0,-0.273427 -0.214913,-0.497145 -0.477585,-0.497145 -0.553703,0 -0.927451,0.47304 -0.618173,0.782325 0.396113,0.396113 1.09575,0.214005 1.09575,-0.285202 z m 2.503576,-0.46827 c -0.25692,-0.41571 -1.177876,-0.490118 -1.177876,-0.09517 0,0.14583 0.178973,0.44412 0.397718,0.662865 0.463335,0.463335 1.1214,-0.01552 0.78015,-0.567698 z m -37.847263,-0.195 c -0.104948,-0.273428 -0.323963,-0.497145 -0.486751,-0.497145 -0.16278,0 -0.295965,0.223717 -0.295965,0.497145 0,0.273428 0.21903,0.497145 0.486735,0.497145 0.296498,0 0.412178,-0.194317 0.295981,-0.497145 z m 28.167759,-0.57429 c 0.216728,-0.82875 -0.200257,-1.440601 -0.750225,-1.100701 -0.39786,0.245888 -0.486218,1.272901 -0.13935,1.619776 0.401325,0.401325 0.693428,0.230888 0.889575,-0.519045 z m 3.898952,-0.09685 c -0.01546,-0.426068 -1.363726,-0.631808 -1.363726,-0.208103 0,0.34908 0.649845,0.699818 1.101976,0.594765 0.15039,-0.03493 0.268147,-0.208935 0.261697,-0.38667 z m -33.295512,-0.669 c 0.30861,-0.804226 -0.05288,-0.882076 -0.7123802,-0.153451 -0.549098,0.606751 -0.552833,0.664891 -0.04275,0.664891 0.307395,0 0.6472282,-0.230145 0.7551752,-0.51144 z m 31.488761,-0.339413 c 0.276233,-0.719858 -0.42504,-1.396801 -0.927,-0.894825 -0.424245,0.424245 -0.161423,1.414275 0.375435,1.414275 0.193725,0 0.44193,-0.233745 0.551558,-0.51942 z m -28.22551,-0.474 c 0,-0.243045 -0.186435,-0.504053 -0.414285,-0.580005 -0.246457,-0.08215 -0.414292,0.152827 -0.414292,0.580005 0,0.427177 0.167835,0.662152 0.414292,0.580005 0.22785,-0.07595 0.414285,-0.336953 0.414285,-0.580005 z m 7.035978,-0.531668 c -0.110145,-0.110137 -0.395993,-0.121905 -0.635243,-0.02618 -0.26439,0.105803 -0.18585,0.184335 0.200243,0.200243 0.34938,0.01439 0.545137,-0.06394 0.435,-0.174075 z m -4.053152,-0.462623 c 0.25923,-0.41946 -0.179512,-0.41946 -0.8286,0 -0.428445,0.276878 -0.419693,0.321983 0.0633,0.326356 0.30825,0.0028 0.652628,-0.144068 0.7653,-0.326356 z m 5.882852,0.11193 c -0.227857,-0.09193 -0.60072,-0.09193 -0.8286,0 -0.227857,0.09193 -0.0414,0.167168 0.414285,0.167168 0.455723,0 0.64215,-0.07523 0.414293,-0.167168 z m 10.523254,-0.11175 c -0.27375,-0.177 -1.31775,-0.3 -2.320501,-0.2745 l -1.822875,0.04699 1.657125,0.227295 c 2.714101,0.372263 3.061726,0.372263 2.485726,0 z m 6.297152,-0.165712 c 0,-0.273428 -0.223717,-0.4971445 -0.497145,-0.4971445 -0.273428,0 -0.497145,0.2237165 -0.497145,0.4971445 0,0.273427 0.223717,0.497145 0.497145,0.497145 0.273428,0 0.497145,-0.223718 0.497145,-0.497145 z m -12.263254,0.01957 c 0,-0.349815 -0.63606,-0.4967845 -0.825225,-0.19068 -0.114495,0.185258 0.02431,0.33684 0.308527,0.33684 0.28419,0 0.516713,-0.06577 0.516713,-0.146152 z M 14.761684,9.8879335 c 0.527422,-0.334057 0.219345,-1.0263 -0.456743,-1.0263 -0.568778,0 -0.93645,0.551558 -0.662858,0.994275 0.24939,0.4035295 0.520763,0.4112845 1.119601,0.03198 z m 4.597501,-0.279525 c 0.08625,-0.2601 -0.18075,-0.4143 -0.7185,-0.4143 -0.836475,0 -1.089825,0.31875 -0.62379,0.7848 0.340965,0.3409645 1.182525,0.1086295 1.34205,-0.370507 z m 2.969251,-0.290595 c 0.163763,-0.49191 -0.919725,-0.897375 -1.32225,-0.494865 -0.172373,0.17238 -0.208103,0.48381 -0.07943,0.692078 0.28245,0.457005 1.228126,0.323947 1.401601,-0.197213 z m 13.161005,0.337995 c 0.288345,-0.110647 0.52425,-0.494445 0.52425,-0.8529 0,-0.919726 -1.12995,-0.641528 -1.265925,0.311722 -0.114428,0.802051 -0.05367,0.846376 0.74166,0.541156 z m 2.844301,-1.10085 c 0,-0.505575 -0.511988,-0.439103 -0.982275,0.127522 -0.563461,0.678931 -0.105548,1.315351 0.506227,0.703598 0.26181,-0.26181 0.47601,-0.635813 0.47601,-0.83115 z m -12.087004,-0.007 c -0.12225,-0.1974 -0.3765,-0.26325 -0.565501,-0.146325 -0.222675,0.137625 -0.188782,0.30843 0.09611,0.48453 0.53187,0.32871 0.774,0.154342 0.46956,-0.33819 z m 2.144025,-0.01665 c 0,-0.182288 -0.15795,-0.331433 -0.351,-0.331433 -0.193035,0 -0.25881,0.149145 -0.146152,0.331433 0.11265,0.182287 0.2706,0.331432 0.350985,0.331432 0.08043,0 0.14616,-0.149145 0.14616,-0.331432 z m 3.250502,-0.0249 c -0.06525,-0.1959 -0.226501,-0.345075 -0.359251,-0.331425 -0.132,0.01372 -0.4635,0.0249 -0.73725,0.0249 -0.273427,0 -0.497145,0.149145 -0.497145,0.331432 0,0.182288 0.38529,0.331433 0.8562,0.331433 0.47091,0 0.802726,-0.160328 0.737431,-0.356288 z m 2.052075,0.02486 c 0,-0.182288 -0.149145,-0.331433 -0.331425,-0.331433 -0.182287,0 -0.331432,0.149145 -0.331432,0.331433 0,0.182287 0.149145,0.331432 0.331432,0.331432 0.182288,0 0.331425,-0.149145 0.331425,-0.331432 z" />
        </g>
      </g>
    </g>
  </g>
</svg>
