<?xml version="1.0" encoding="UTF-8" standalone="no"?>
<!-- Created with Inkscape (http://www.inkscape.org/) -->

<svg
   xmlns:dc="http://purl.org/dc/elements/1.1/"
   xmlns:cc="http://creativecommons.org/ns#"
   xmlns:rdf="http://www.w3.org/1999/02/22-rdf-syntax-ns#"
   xmlns:svg="http://www.w3.org/2000/svg"
   xmlns="http://www.w3.org/2000/svg"
   xmlns:sodipodi="http://sodipodi.sourceforge.net/DTD/sodipodi-0.dtd"
   xmlns:inkscape="http://www.inkscape.org/namespaces/inkscape"
   id="svg2"
   height="45"
   width="67.5"
   version="1.1"
   inkscape:version="0.91 r"
   sodipodi:docname="22.svg">
  <defs
     id="defs26" />
  <sodipodi:namedview
     pagecolor="#ffffff"
     bordercolor="#666666"
     borderopacity="1"
     objecttolerance="10"
     gridtolerance="10"
     guidetolerance="10"
     inkscape:pageopacity="0"
     inkscape:pageshadow="2"
     inkscape:window-width="1871"
     inkscape:window-height="1056"
     id="namedview24"
     showgrid="false"
     inkscape:zoom="1.8101934"
     inkscape:cx="17.896954"
     inkscape:cy="6.4600765"
     inkscape:window-x="1649"
     inkscape:window-y="24"
     inkscape:window-maximized="1"
     inkscape:current-layer="svg2" />
  <metadata
     id="metadata7">
    <rdf:RDF>
      <cc:Work
         rdf:about="">
        <dc:format>image/svg+xml</dc:format>
        <dc:type
           rdf:resource="http://purl.org/dc/dcmitype/StillImage" />
        <dc:title></dc:title>
      </cc:Work>
    </rdf:RDF>
  </metadata>
  <g
     id="g4830">
    <rect
       id="rect2990"
       height="45"
       width="67.5"
       y="0"
       x="3.5526999e-15"
       style="opacity:0" />
    <path
       d="m 21.403124,44.842308 c -0.37132,-0.12855 -0.908,-0.18716 -1.1926,-0.13023 -0.38869,0.07774 -0.6146,-7.35e-4 -0.90746,-0.31504 l -0.38993,-0.41854 -0.42621,0.4004 c -0.23442,0.22022 -0.58114,0.4004 -0.7705,0.4004 -0.52757,0 -2.4784,-0.42746 -2.4718,-0.5416 0.0168,-0.29048 0.57328,-0.78408 1.0323,-0.9157 0.45927,-0.13168 0.48061,-0.16707 0.17673,-0.29315 -0.19672,-0.08162 -0.48651,-0.0554 -0.67269,0.06088 -0.21666,0.13531 -0.52191,0.1484 -0.90415,0.03877 -0.31738,-0.09102 -0.69625,-0.11976 -0.84192,-0.06386 -0.29754,0.11418 -0.36613,-0.22057 -0.08128,-0.39662 0.32356,-0.19997 0.1966,-0.59608 -0.22949,-0.71596 -0.36388,-0.10238 -0.37892,-0.1432 -0.12632,-0.34269 0.15772,-0.12456 0.34402,-0.37889 0.414,-0.56518 0.06998,-0.18629 0.29206,-0.38181 0.49349,-0.43449 0.49443,-0.1293 0.46419,-0.25934 -0.20713,-0.89066 -0.80036,-0.75267 -1.0792,-1.5205 -1.0771,-2.9659 0.0028,-1.8929 0.75591,-3.2526 2.5535,-4.6096 0.31113,-0.23487 0.56797,-0.52402 0.57075,-0.64256 0.0045,-0.19072 0.73023,-0.80543 1.4387,-1.2186 0.18758,-0.10938 0.24432,-0.60103 0.226,-1.9582 -0.02049,-1.5182 -0.08608,-1.8963 -0.4044,-2.3315 -0.54065,-0.73913 -0.35207,-1.3668 0.43341,-1.4426 l 0.59608,-0.05749 0.01697,-2.9374 c 0.01478,-2.5583 0.21861,-5.4302 0.79484,-11.199 0.15073,-1.5090004 0.01482,-2.0995004 -0.66103,-2.8719004 -0.34231,-0.39123 -0.20572,-0.71843 1.7518,-4.1963 0.8241,-1.4641 1.5679,-2.78599996 1.6529,-2.93739996 0.10488,-0.18695 0.51419,-0.29287 1.2746,-0.32983 1.1161,-0.05425 1.1217,-0.05194 1.5746,0.64256 0.36729,0.56319996 0.47893,1.03179996 0.58156,2.44109996 0.11698,1.6065 0.21246,1.9324 1.2099,4.1308 0.59561,1.3127 1.289,2.5697 1.5409,2.7934004 0.25189,0.22373 1.0661,1.6695 1.8094,3.2128 0.74328,1.5433 1.668,3.1698 2.055,3.6145 l 0.70356,0.80843 0.75595,-0.85908 c 0.73418,-0.83434 0.77539,-0.95234 1.4307,-4.0974 0.37109,-1.7811 0.62775,-3.2852004 0.57036,-3.3426004 -0.0574,-0.0574 -0.44999,-0.23154 -0.87242,-0.38699 -0.68423,-0.25178 -0.77409,-0.35403 -0.82324,-0.93677 -0.03361,-0.39848 0.04609,-0.7382 0.20394,-0.8692 0.16179,-0.13428 1.6651,-0.28196 4.0024,-0.39317 2.0588,-0.09796 4.1976,-0.22664 4.753,-0.28596 0.90502,-0.09666 1.1808,-0.03158 2.6591,0.62752 1.6177,0.72124 1.7958,0.88749 2.0043,1.8706 l 0.09989,0.47101 1.4049,-0.16349 c 0.82397,-0.09589 1.4727,-0.09568 1.5689,5.51e-4 0.18579,0.18579 0.24521,3.6117004 0.06762,3.8991004 -0.06358,0.10281 -0.51892,0.18698 -1.0119,0.18698 -0.935,0 -1.2691,0.21945 -0.93922,0.61694 0.32346,0.38974 1.1211,3.6403 1.0059,4.0993 -0.05923,0.23599 -0.0066,0.55088 0.11694,0.69974 0.12355,0.14886 0.17603,0.39732 0.11662,0.55212 -0.08699,0.22669 0.33227,2.4256 0.71733,3.7622 0.06003,0.20837 0.29924,0.26018 0.98299,0.21289 1.2103,-0.0837 1.5872,0.2922 1.7566,1.7517 0.12749,1.0985 0.04565,2.0788 -0.26354,3.1569 -0.18028,0.62859 0.07187,0.90393 0.63122,0.68929 0.14823,-0.05688 0.3187,-0.02383 0.37882,0.07345 0.19666,0.31821 -0.95106,0.51048 -3.1692,0.53092 -1.0928,0.01006 -1.1493,0.03311 -1.2645,0.51541 -0.06633,0.27768 -0.20966,0.61744 -0.31851,0.75502 -0.28852,0.36469 0.81573,1.3104 1.5301,1.3104 0.6499,0 0.98585,0.48145 0.6966,0.9983 -0.14696,0.26261 -0.11362,0.49508 0.13802,0.96235 0.32231,0.59848 0.32173,0.62352 -0.02015,0.87587 -0.62062,0.4581 -1.6156,0.60913 -2.8515,0.43285 -0.64473,-0.09196 -1.2962,-0.21574 -1.4476,-0.27506 -0.47337,-0.18539 -1.0052,-0.1971 -1.1168,-0.02458 -0.06287,0.09724 -0.3026,0.09117 -0.58105,-0.01469 -0.34507,-0.1312 -0.49756,-0.11888 -0.56055,0.04529 -0.11395,0.29694 -2.4061,0.25601 -2.7743,-0.04953 -0.14827,-0.12305 -0.42707,-0.19704 -0.61956,-0.16443 -0.41426,0.07018 -0.47226,-0.01408 -0.30668,-0.44558 0.13048,-0.34004 0.63477,-0.44943 0.63477,-0.1377 0,0.10097 0.16885,0.18359 0.37523,0.18359 0.25552,0 0.35802,-0.1025 0.32128,-0.32128 -0.03674,-0.21878 0.04855,-0.30407 0.26734,-0.26734 0.1767,0.02967 0.32128,-0.03717 0.32128,-0.14853 0,-0.11136 0.08396,-0.15058 0.18658,-0.08716 0.10262,0.06342 0.13982,0.19098 0.08267,0.28346 -0.05961,0.09644 0.13483,0.12039 0.45598,0.05616 0.36312,-0.07262 0.5599,-0.03816 0.5599,0.09806 0,0.12052 0.17604,0.17393 0.41308,0.12532 0.22719,-0.04659 0.72288,-0.13453 1.1015,-0.19541 0.37865,-0.06088 0.68846,-0.18737 0.68846,-0.28108 0,-0.09372 -0.42902,-0.45931 -0.95338,-0.81244 -0.67327,-0.45341 -1.0778,-0.61081 -1.3769,-0.53574 -0.23295,0.05847 -0.42354,0.02347 -0.42354,-0.07777 0,-0.10124 -0.21069,-0.17216 -0.46821,-0.15759 -0.34943,0.01976 -0.44694,0.10798 -0.38437,0.34776 0.07427,0.28461 -0.07136,0.32128 -1.2759,0.32128 -0.83461,0 -1.3597,0.07509 -1.3597,0.19442 0,0.10953 -0.10021,0.13189 -0.22949,0.05121 -0.41731,-0.26043 -0.93446,-0.30037 -4.1307,-0.31898 -2.4012,-0.01399 -3.1669,-0.07393 -3.1669,-0.24793 -4.6e-5,-0.12622 -0.12888,-0.22949 -0.2863,-0.22949 -0.15742,0 -0.23869,0.07691 -0.1806,0.1709 0.05809,0.094 0.02166,0.2228 -0.08096,0.28622 -0.10262,0.06342 -0.18658,7.34e-4 -0.18658,-0.13911 0,-0.17826 -0.16487,-0.23022 -0.55077,-0.17359 -0.31249,0.04587 -0.55077,-0.0023 -0.55077,-0.11122 0,-0.23928 0.666,-0.46431 0.9163,-0.30961 0.10188,0.06296 0.18523,0.03663 0.18523,-0.05853 0,-0.09516 0.18588,-0.22817 0.41308,-0.29559 l 0.41308,-0.12258 -0.39429,-0.16135 c -0.21686,-0.08874 -0.45049,-0.25229 -0.51919,-0.36344 -0.07618,-0.12326 -0.36994,-0.15612 -0.75314,-0.08423 -0.37647,0.07062 -0.62825,0.04397 -0.62825,-0.06652 0,-0.10141 -0.11948,-0.23023 -0.26552,-0.28627 -0.37927,-0.14554 -4.1738,1.2691 -4.3768,1.6317 -0.13519,0.24158 -0.3324,0.27828 -0.97638,0.18171 -0.89255,-0.13385 -0.98943,0.0027 -0.46314,0.6526 0.32787,0.4049 0.37951,0.41283 1.1126,0.17089 0.68246,-0.22524 0.82741,-0.21909 1.2909,0.0547 0.28717,0.16963 0.63559,0.30842 0.77428,0.30842 0.13869,0 0.39363,0.16523 0.56654,0.36718 0.35913,0.41943 1.1712,0.47431 1.6492,0.11146 0.17682,-0.13422 0.52794,-0.20458 0.78026,-0.15635 0.26504,0.05066 0.45876,0.0022 0.45876,-0.11483 0,-0.11139 0.29723,-0.32672 0.6605,-0.4785 0.78741,-0.329 2.0545,-0.09546 2.5695,0.47359 0.17333,0.19153 0.54818,0.34823 0.83301,0.34823 0.49626,0 0.74957,0.20789 1.9569,1.6061 0.19602,0.227 0.61535,0.46452 0.93184,0.52782 0.61889,0.12378 0.74351,0.33258 0.30004,0.50276 -0.41064,0.15758 -0.33752,0.52884 0.07817,0.39691 0.22675,-0.07197 0.41453,-0.0032 0.52358,0.1916 0.12826,0.22919 0.48109,0.31467 1.4364,0.34802 0.69653,0.02431 1.3697,0.05645 1.4959,0.07141 0.35571,0.04216 0.27057,0.55538 -0.0918,0.55333 -0.1767,-9.18e-4 -0.48651,0.03912 -0.68846,0.08916 -0.20195,0.05003 -0.47202,0.0973 -0.60016,0.10502 -0.15248,0.0092 -0.19492,0.16571 -0.12282,0.45299 0.12442,0.49573 -0.18504,0.79197 -0.52906,0.50646 -0.29278,-0.24299 -0.99395,-0.16146 -1.6728,0.19451 -0.47257,0.24778 -0.61494,0.25015 -1.1673,0.01936 -0.67709,-0.28291 -1.0386,-0.16604 -0.58909,0.19042 0.49055,0.38899 0.73179,0.96581 0.5006,1.197 -0.11393,0.11393 -0.3287,0.20715 -0.47726,0.20715 -0.14856,0 -0.4285,0.14334 -0.62208,0.31853 -0.24825,0.22466 -0.75296,0.33878 -1.7127,0.38725 -1.0066,0.05084 -1.3607,0.13514 -1.3607,0.32403 0,0.1798 -0.24178,0.25532 -0.81752,0.25532 -0.44963,0 -1.0159,0.09041 -1.2585,0.20092 -0.35621,0.1623 -0.58582,0.12701 -1.1947,-0.18359 -0.9174,-0.46802 -0.88743,-0.46732 -1.0034,-0.02371 -0.06426,0.24573 0.01674,0.39605 0.25397,0.47135 0.53822,0.17082 0.41261,0.39264 -0.24834,0.43858 -1.2515,0.08697 -1.3962,0.11003 -1.53,0.2439 -0.19307,0.19316 -0.95112,0.17208 -1.025,-0.02851 -0.06009,-0.1632 -0.64627,-0.26142 -1.3208,-0.2213 -0.30579,0.01819 -0.29616,0.0582 0.0918,0.38139 l 0.43342,0.36107 -0.40224,0.0061 c -0.22123,0.0034 -0.45057,0.0843 -0.50964,0.17987 -0.06465,0.10461 -0.40693,0.06808 -0.86007,-0.09179 -0.94415,-0.33312 -1.0737,-0.33194 -1.0737,0.0098 0,0.15146 0.08262,0.27538 0.18359,0.27538 0.10097,0 0.18359,0.07324 0.18359,0.16275 0,0.27901 -1.023,0.32858 -1.7299,0.08384 z m 3.5658,-2.3775 c 0,-0.03969 -0.12392,-0.07215 -0.27538,-0.07215 -0.15146,0 -0.27538,0.08002 -0.27538,0.17783 0,0.0978 0.12392,0.13027 0.27538,0.07215 0.15146,-0.05812 0.27538,-0.13814 0.27538,-0.17783 z m 3.2128,0.11144 c 0.14446,-0.23374 -0.28087,-0.23374 -0.64256,0 -0.22388,0.14468 -0.20016,0.17849 0.12686,0.18078 0.22123,0.0015 0.4533,-0.0798 0.51571,-0.18078 z m 2.5913,-0.59214 c -0.01803,-0.35763 -0.13567,-0.42583 -0.8192,-0.47493 -0.90369,-0.06491 -0.89626,0.14503 0.02496,0.70526 0.65384,0.39762 0.82341,0.34845 0.79424,-0.23033 z m -8.037,-0.608 c 0.11705,-0.25689 0.31619,-0.45364 0.44254,-0.43722 0.86147,0.11196 0.87233,0.08719 0.87155,-1.9872 -0.0013,-3.3496 -0.22018,-6.6552 -0.44066,-6.654 -0.11064,5.51e-4 -0.81653,0.47564 -1.5686,1.0556 -1.7436,1.3446 -2.3966,2.4762 -2.3951,4.1506 0.0017,1.7276 0.27476,2.4365 1.3284,3.4467 1.0489,1.0057 1.4531,1.1033 1.7619,0.42554 z m 1.4066,0.0999 c -0.06241,-0.10097 -0.19608,-0.18359 -0.29705,-0.18359 -0.10097,0 -0.13253,0.08262 -0.07012,0.18359 0.0624,0.10097 0.19608,0.18359 0.29705,0.18359 0.10097,0 0.13253,-0.08262 0.07013,-0.18359 z m 2.4326,-0.22949 c -0.02524,-0.12622 0.05234,-0.21051 0.1724,-0.18732 0.12006,0.02319 0.26675,-0.11049 0.32597,-0.29707 0.05922,-0.18658 0.26598,-0.48251 0.45947,-0.65761 0.32629,-0.29529 0.39456,-0.29704 0.94147,-0.02421 0.70325,0.35083 0.86833,0.37222 0.56997,0.07386 -0.34371,-0.34371 -0.25948,-0.55123 0.16859,-0.41536 0.28121,0.08925 0.36594,0.05455 0.30598,-0.12532 -0.09859,-0.29576 -1.7963,-0.35252 -1.7964,-0.06007 -7.5e-5,0.30498 -0.79475,0.91285 -1.1934,0.91285 -0.39856,0 -0.45897,0.08458 -0.45897,0.64256 0,0.20399 0.12239,0.36718 0.27538,0.36718 0.15146,0 0.25473,-0.10327 0.22949,-0.22949 z m -1.78,-0.644 c 0.0059,-0.1767 0.0018,-1.891 -0.0092,-3.8095 -0.01601,-2.7807 -0.07406,-3.5427 -0.28622,-3.757 -0.23279,-0.23514 -0.26615,-0.14102 -0.26615,0.75093 0,2.5246 0.25592,7.1369 0.39601,7.1369 0.08512,0 0.15964,-0.14458 0.1656,-0.32128 z m 6.1491,-2.3477 c -0.25774,-0.2781 -0.46861,-0.56656 -0.46861,-0.64101 0,-0.17851 -0.6817,-0.35324 -0.82379,-0.21115 -0.06088,0.06088 0.07891,0.25783 0.31065,0.43766 0.35925,0.27877 0.38076,0.3538 0.14596,0.50909 -0.21664,0.14328 -0.16802,0.18273 0.22793,0.18494 0.30577,0.0017 0.594,0.14935 0.73436,0.37617 0.16937,0.2737 0.24586,0.3035 0.28658,0.11165 0.03054,-0.14394 -0.15534,-0.48924 -0.41308,-0.76734 z m 1.5509,0.46592 c 0,-0.10097 -0.08262,-0.18359 -0.18359,-0.18359 -0.10097,0 -0.18359,0.08262 -0.18359,0.18359 0,0.10097 0.08262,0.18359 0.18359,0.18359 0.10097,0 0.18359,-0.08262 0.18359,-0.18359 z m -1.494,-1.6065 c -0.02913,-0.27774 0.01083,-0.6082 0.08879,-0.73436 0.20204,-0.32691 -0.16605,-0.28419 -0.50936,0.05912 -0.35786,0.35786 -0.35776,0.36077 0.02768,0.81094 0.41292,0.48225 0.45613,0.46732 0.39288,-0.1357 z m 0.94324,-1.5145 c 0.23732,-0.15337 0.23248,-0.17836 -0.03506,-0.18078 -0.17074,-0.0015 -0.36151,0.0798 -0.42391,0.18078 -0.1436,0.23235 0.09944,0.23235 0.45897,0 z m 2.0195,0 c 0,-0.10097 -0.07774,-0.18359 -0.17275,-0.18359 -0.09502,0 -0.22381,0.08262 -0.28622,0.18359 -0.06241,0.10098 0.01533,0.18359 0.17275,0.18359 0.15742,0 0.28622,-0.08261 0.28622,-0.18359 z m 14.924,-1.1015 c -0.05281,-0.20195 -0.21031,-0.36718 -0.34999,-0.36718 -0.2868,0 -0.29869,0.03703 -0.14254,0.44396 0.16632,0.43344 0.60795,0.36459 0.49253,-0.07678 z m 1.8745,0.18359 c 0.35036,-0.15055 0.34825,-0.15837 -0.0459,-0.17068 -0.22719,-0.0071 -0.41308,-0.1004 -0.41308,-0.20733 0,-0.10693 -0.08262,-0.14336 -0.18359,-0.08096 -0.26245,0.1622 -0.22726,0.64502 0.0459,0.62966 0.12622,-0.0071 0.39472,-0.0839 0.59667,-0.17068 z m -29.868,-0.964 c 0.07224,-0.38133 -0.67712,-0.45473 -1.0309,-0.10097 -0.37472,0.37472 -0.24576,0.53978 0.37486,0.47979 0.39197,-0.03789 0.61594,-0.16722 0.65602,-0.37881 z m -2.4636,-0.06246 c 0.06162,-0.16058 0.06558,-0.36711 0.0088,-0.45897 -0.16856,-0.27273 -1.4845,-0.19205 -1.7321,0.10619 -0.24889,0.29989 -0.14402,0.37418 0.73256,0.51894 0.82865,0.13685 0.87757,0.12864 0.9907,-0.16615 z m 2.144,-0.91542 c 1.1626,-0.87308 1.4506,-1.01 1.9566,-0.93004 0.87162,0.13773 0.90451,-0.18012 0.06306,-0.60939 -0.89765,-0.45795 -0.91946,-0.4587 -0.80677,-0.02776 0.04983,0.19055 0.01513,0.39311 -0.07712,0.45012 -0.28693,0.17733 -0.9658,-0.09083 -0.9658,-0.3815 0,-0.22674 -0.05027,-0.23474 -0.27953,-0.04446 -0.15374,0.12759 -0.23824,0.3649 -0.18778,0.52735 0.12828,0.41296 -0.17461,0.82909 -0.50983,0.70046 -0.19471,-0.07472 -0.33998,0.06511 -0.4775,0.45962 -0.19936,0.57187 -0.24766,0.87939 -0.13813,0.87939 0.03275,0 0.67301,-0.4607 1.4228,-1.0238 z m 29.255,0.41192 c -0.08372,-0.21817 -0.33787,-0.30608 -0.88485,-0.30608 -0.66796,0 -1.1657,-0.26166 -3.8418,-2.0195 -1.6909,-1.1107 -3.1033,-2.0195 -3.1387,-2.0195 -0.03539,0 -0.1075,0.16504 -0.16025,0.36675 -0.07883,0.30146 0.31675,0.65279 2.2222,1.9736 3.6462,2.5274 3.606,2.5068 4.1703,2.1371 0.4518,-0.29603 0.49799,-0.2929 0.96878,0.06565 0.52824,0.40229 0.85707,0.30428 0.66433,-0.198 z m -34.226,-0.0307 c 0,-0.15146 -0.08262,-0.27538 -0.18359,-0.27538 -0.10098,0 -0.18359,0.12392 -0.18359,0.27538 0,0.15146 0.08262,0.27538 0.18359,0.27538 0.10097,0 0.18359,-0.12392 0.18359,-0.27538 z m 6.7928,-0.45897 0.64256,-0.54089 -0.50744,-0.005 c -0.49573,-0.0048 -1.7806,0.68537 -1.7852,0.95891 -0.0057,0.34653 1.0665,0.0781 1.65,-0.41308 z m -4.9791,-0.36698 c 0.66852,-0.64877 1.0112,-1.4689 0.61376,-1.4689 -0.34246,0 -0.99224,0.63095 -1.3284,1.2899 -0.60781,1.1914 -0.38585,1.247 0.71468,0.17898 z m 1.3794,0.26016 c 0.26843,-0.69953 0.01338,-0.81235 -0.73213,-0.32387 -0.34983,0.22922 -0.40452,0.34106 -0.22303,0.45616 0.38505,0.24419 0.83458,0.18193 0.95516,-0.13229 z m 26.754,-2.1907 c -1.7549,-1.1597 -3.2792,-2.1086 -3.3872,-2.1086 -0.31886,0 -0.01507,0.22474 3.0809,2.2792 1.6107,1.0688 3.0565,1.9422 3.2128,1.9407 0.15636,-0.0015 -1.1516,-0.95154 -2.9065,-2.1113 z m 3.6497,1.655 c -0.41861,-0.44559 -0.91795,-0.61351 -0.91795,-0.30869 0,0.12323 0.99363,0.71408 1.2712,0.75593 0.04284,0.0065 -0.11613,-0.1948 -0.35328,-0.44723 z m -20.516,-1.193 c 1.1577,-0.40341 2.6887,-1.0038 3.402,-1.3342 1.1046,-0.51165 1.2707,-0.6478 1.1196,-0.91774 -0.16499,-0.29482 -0.22491,-0.29649 -0.85734,-0.02395 -0.37397,0.16116 -1.868,0.70455 -3.3202,1.2075 -2.6835,0.92952 -3.8516,1.107 -4.6108,0.70076 -0.5167,-0.27653 -0.71025,-0.08043 -0.31285,0.31697 0.19013,0.19013 0.54613,0.29266 0.92711,0.267 0.37319,-0.02513 0.71041,0.06915 0.85034,0.23775 0.32292,0.38909 0.43374,0.37114 2.802,-0.45407 z m -9.274,0.25537 c -0.06101,-0.06101 -0.21935,-0.06753 -0.35188,-0.01449 -0.14646,0.05861 -0.10295,0.10211 0.11092,0.11092 0.19353,0.008 0.30197,-0.03542 0.24096,-0.09642 z m 4.1582,-0.46613 c 0.11112,-0.55558 -0.1108,-1.0753 -0.45917,-1.0753 -0.18684,0 -0.22095,1.3477 -0.03872,1.5299 0.24229,0.2423 0.38446,0.11247 0.49789,-0.45466 z m 13.531,0.37623 c -0.29414,-0.11757 -0.50811,-0.11364 -0.63338,0.01164 -0.12986,0.12986 0.0095,0.18554 0.4442,0.17755 0.59514,-0.01094 0.60657,-0.02236 0.18919,-0.18918 z m 2.4637,-0.01236 c 0.10098,0.01654 0.47734,0.07844 0.83636,0.13755 0.4662,0.07675 0.72002,0.02644 0.88806,-0.17604 0.15951,-0.1922 0.40752,-0.24906 0.77005,-0.17656 0.86855,0.17371 0.6235,-0.20518 -0.68341,-1.0567 -1.0132,-0.66012 -1.4281,-0.8161 -2.4659,-0.92699 -1.5299,-0.16347 -2.1453,-0.01379 -2.6339,0.6406 -0.43873,0.58762 -0.29888,0.74648 0.81382,0.9244 0.48692,0.07786 0.71622,0.22054 0.78653,0.48939 0.0868,0.33191 0.18735,0.36286 0.80201,0.24686 0.38652,-0.07295 0.78539,-0.1191 0.88636,-0.10255 z m -1.412,-0.279 c 0.13253,-0.05303 0.29087,-0.04651 0.35188,0.01449 0.06101,0.06101 -0.04743,0.1044 -0.24096,0.09642 -0.21387,-0.0088 -0.25737,-0.05231 -0.11092,-0.11092 z m 11.142,-0.05818 c 0.06241,-0.10098 -0.01243,-0.18359 -0.1663,-0.18359 -0.15387,0 -0.36528,-0.1598 -0.46981,-0.35511 -0.24542,-0.45856 -0.23805,-0.75622 0.0082,-0.33335 0.16093,0.2763 0.71965,0.46612 0.71965,0.2445 0,-0.04223 0.05051,-0.2084 0.11224,-0.36926 0.08241,-0.21476 0.033,-0.26208 -0.18593,-0.17807 -0.16399,0.06293 -0.40798,0.02327 -0.5422,-0.08812 -0.13422,-0.11139 -0.28586,-0.16072 -0.33698,-0.1096 -0.19257,0.19257 -0.15588,-4.0421 0.04333,-5.0018 0.22398,-1.0789 0.73086,-1.7606 1.1808,-1.588 0.35141,0.13485 0.36876,-0.29059 0.03072,-0.7529 -0.34338,-0.46959 -0.83367,-0.23812 -0.97318,0.45944 -0.07739,0.38696 -0.195,0.53371 -0.37299,0.46541 -0.16961,-0.06509 -0.21225,-0.02256 -0.12268,0.12238 0.14295,0.2313 0.11881,1.2501 -0.03323,1.4022 -0.04798,0.04798 -0.38571,-0.26144 -0.7505,-0.68762 -0.93227,-1.0891 -1.0077,-0.79129 -0.0911,0.35987 0.79829,1.0026 0.97083,1.6367 0.44538,1.6367 -0.17118,0 -0.54295,-0.22199 -0.82615,-0.49332 -0.7554,-0.72372 -0.65183,-0.12242 0.11526,0.66917 0.61179,0.63133 1.0513,1.66 0.7092,1.66 -0.09303,0 -0.4066,-0.24785 -0.69682,-0.55077 -0.6125,-0.63931 -0.82615,-0.69048 -0.82615,-0.19787 0,0.19409 0.39098,0.6871 0.86885,1.0956 0.67364,0.57581 0.81957,0.79194 0.6495,0.96201 -0.17006,0.17006 -0.38346,0.10561 -0.94986,-0.28691 -0.40178,-0.27844 -0.80846,-0.45808 -0.90372,-0.3992 -0.09526,0.05888 -0.60347,-0.23553 -1.1293,-0.65424 -0.76441,-0.60863 -0.98898,-0.70942 -1.1199,-0.50263 -0.30136,0.47604 -0.17655,0.65063 1.2205,1.7073 1.6504,1.2483 1.8301,1.3315 1.9879,0.92027 0.08378,-0.21832 -0.06308,-0.4714 -0.48118,-0.82924 -0.33097,-0.28327 -0.52723,-0.51839 -0.43613,-0.52249 0.26964,-0.01215 1.7502,1.1672 1.7564,1.399 0.0062,0.23403 1.0401,1.1638 1.2941,1.1638 0.08727,0 0.20973,-0.08261 0.27213,-0.18359 z m -28.732,-1.525 c 0,-1.057 -0.08277,-1.6348 -0.26955,-1.8818 -0.24275,-0.32094 -0.27013,-0.16928 -0.27538,1.5254 -0.0048,1.5529 0.04229,1.8818 0.26955,1.8818 0.22269,0 0.27538,-0.29188 0.27538,-1.5254 z m 1.8359,0.6216 c 0,-0.73606 -0.09371,-1.0015 -0.50487,-1.4299 -0.27768,-0.28936 -0.59845,-0.68813 -0.71283,-0.88617 -0.33012,-0.5716 -0.39392,-0.2826 -0.29561,1.339 0.09157,1.5105 0.09377,1.516 0.6649,1.6816 0.31516,0.09139 0.63499,0.17361 0.71072,0.18271 0.07573,0.0091 0.13769,-0.39016 0.13769,-0.88727 z m -3.3715,-0.13154 c -0.06421,-0.46848 -0.11675,-1.4186 -0.11675,-2.1113 0,-1.0385 -0.05218,-1.2595 -0.29731,-1.2595 -0.26384,0 -0.28233,0.22217 -0.16417,1.9736 0.13996,2.0745 0.17852,2.249 0.49727,2.249 0.12958,0 0.15748,-0.29349 0.08096,-0.85178 z m 9.5514,-0.1641 c 1.7811,-0.64474 2.2211,-0.93746 1.8967,-1.2618 -0.10361,-0.10361 -0.61805,0.01309 -1.3234,0.30021 -0.63463,0.25834 -1.6303,0.6539 -2.2126,0.87902 -2.4151,0.93366 -0.91992,1.009 1.6393,0.0826 z m -2.5658,-0.45304 c 0.60642,-0.30303 1.2376,-0.70013 1.4026,-0.88243 0.16498,-0.1823 0.79732,-0.56917 1.4052,-0.85971 0.97653,-0.46674 1.1088,-0.5938 1.1358,-1.0912 0.08627,-1.5883 0.1332,-2.0816 0.24936,-2.6215 0.11278,-0.52414 -0.06443,-0.90006 -1.5911,-3.3753 -0.94492,-1.532 -1.844,-3.0015 -1.998,-3.2656 -1.0769,-1.8465 -1.3455,-2.2311 -1.4659,-2.0986 -0.1334,0.14677 -0.31547,2.4158 -0.80014,9.9719 -0.32722,5.1014 -0.33749,4.7733 0.14941,4.7733 0.22563,0 0.90639,-0.24794 1.5128,-0.55097 z m 18.049,-0.18339 c 0,-0.10097 -0.08749,-0.18359 -0.19442,-0.18359 -0.10693,0 -0.14337,0.08262 -0.08096,0.18359 0.06241,0.10097 0.1499,0.18359 0.19442,0.18359 0.04453,0 0.08096,-0.08262 0.08096,-0.18359 z m -20.595,-0.236 c 0.14047,-0.16926 0.10062,-0.44521 -0.14285,-0.989 -0.32205,-0.71932 -1.5667,-2.2644 -1.824,-2.2644 -0.06709,0 -0.21879,0.25649 -0.33712,0.56997 -0.2359,0.62498 -0.02674,1.0545 1.1304,2.3216 0.58778,0.64357 0.86806,0.73 1.1736,0.3619 z m 7.7497,-1.4202 c 1.0187,-0.51424 1.4562,-1.0989 0.8223,-1.0989 -0.29361,0 -3.2586,1.4586 -3.8389,1.8886 -0.19213,0.14234 -0.29378,0.34868 -0.22588,0.45854 0.12869,0.20822 1.0916,-0.16246 3.2425,-1.2482 z m 9.7647,1.1763 c 0.2554,-0.09055 0.29484,-0.25918 0.2083,-0.89055 -0.06379,-0.46542 -0.01698,-0.94661 0.11634,-1.1957 0.1456,-0.27206 0.15296,-0.3735 0.02119,-0.29206 -0.11384,0.07035 -0.20191,-6.3e-5 -0.20191,-0.16143 0,-0.15742 0.07832,-0.28622 0.17404,-0.28622 0.10452,0 0.09451,-0.23834 -0.02505,-0.59667 -0.42962,-1.2875 -0.58301,-1.064 -0.7874,1.1474 -0.06066,0.65633 -0.1564,1.5127 -0.21275,1.903 -0.07989,0.55336 -0.04797,0.68483 0.14487,0.59678 0.13603,-0.06211 0.3891,-0.16319 0.56239,-0.22462 z m -3.7803,-0.46226 c -0.06311,-0.31554 -0.11474,-0.76993 -0.11474,-1.0097 0,-0.31363 -0.10307,-0.43602 -0.36718,-0.43602 -0.43793,0 -0.47422,0.28636 -0.08556,0.67502 0.16092,0.16092 0.23452,0.42999 0.17174,0.62781 -0.12346,0.38899 0.02046,0.71666 0.31479,0.71666 0.12127,0 0.15206,-0.2182 0.08096,-0.57372 z m -17.803,-0.206 c -0.05093,-0.12622 -0.0926,-0.02295 -0.0926,0.22949 0,0.25244 0.04167,0.3557 0.0926,0.22949 0.05093,-0.12622 0.05093,-0.33276 0,-0.45897 z m 20.637,0.27538 c 0.007,-0.1767 0.0421,-0.54348 0.07809,-0.81505 0.03659,-0.27609 -0.04992,-0.58951 -0.19624,-0.71094 -0.21615,-0.17939 -0.26187,-0.12543 -0.26281,0.31018 -5.5e-4,0.29004 -0.11964,0.75454 -0.2645,1.0322 -0.2529,0.4848 -0.24555,0.50487 0.18472,0.50487 0.29954,0 0.45228,-0.10651 0.46074,-0.32128 z m -5.1532,-0.56615 c 0,-0.29299 -1.674,-1.6828 -2.0269,-1.6828 -0.34886,0 -0.35247,0.02935 -0.08295,0.67438 0.15498,0.37091 0.35638,0.76333 0.44757,0.87205 0.19304,0.23015 1.6622,0.35071 1.6622,0.1364 z m 0.1918,-2.0857 c -0.40224,-0.63671 -0.88637,-1.3229 -1.0758,-1.5248 -0.18947,-0.20195 -0.65042,-0.92483 -1.0243,-1.6064 -0.37392,-0.68158 -0.71688,-1.2392 -0.76213,-1.2392 -0.04525,0 -0.19264,0.2685 -0.32752,0.59667 -0.22954,0.55846 -0.2015,0.68735 0.43778,2.0129 0.74584,1.5465 1.9998,3.2148 2.0059,2.6686 0.002,-0.1767 0.11375,-0.32128 0.24838,-0.32128 0.39684,0 0.49021,0.20654 0.27508,0.6085 -0.16759,0.31315 -0.12854,0.43578 0.2317,0.72748 l 0.43327,0.35084 0.14454,-0.5578 c 0.12192,-0.47052 0.0301,-0.73896 -0.58681,-1.7155 z m -15.676,1.459 c -0.05093,-0.12622 -0.0926,-0.02295 -0.0926,0.22949 0,0.25244 0.04167,0.3557 0.0926,0.22949 0.05093,-0.12622 0.05093,-0.33276 0,-0.45897 z m 4.5449,-1.3742 c 0.06636,-0.88502 0.16095,-2.2288 0.21018,-2.9861 0.04924,-0.75731 0.17005,-2.4423 0.26846,-3.7443 0.26002,-3.4401 0.2466,-3.7223 -0.18227,-3.8345 -0.37062,-0.09692 -0.81216,-0.90718 -1.0171,-1.8665 -0.08242,-0.38577 -0.15939,-0.47038 -0.26801,-0.29463 -0.1179,0.19077 -0.17254,0.16783 -0.24147,-0.10137 -0.06194,-0.24189 -0.09558,-0.19076 -0.11039,0.16778 -0.01439,0.34874 0.04782,0.47299 0.19218,0.38377 0.16145,-0.09978 0.18586,1.3293 0.10016,5.864 -0.06903,3.6528 -0.04664,5.996 0.05732,5.996 0.09385,0 0.12336,0.2364 0.06557,0.52534 -0.11185,0.55927 0.37928,1.7625 0.65089,1.5947 0.08461,-0.05229 0.20813,-0.81918 0.27449,-1.7042 z m 12.167,0.91872 c -0.04655,-0.17863 -0.08769,-0.07693 -0.09143,0.22599 -0.0037,0.30292 0.03434,0.44907 0.08463,0.32478 0.05029,-0.1243 0.05335,-0.37214 0.0068,-0.55077 z m 7.2164,0.49626 c 0.22919,-0.15237 0.16759,-0.27339 -0.36718,-0.72138 -0.5569,-0.46653 -0.6779,-0.50344 -0.90761,-0.27686 -0.23068,0.22754 -0.20868,0.32143 0.1697,0.7242 0.47233,0.50278 0.68262,0.55492 1.1051,0.27405 z m 7.8944,-0.1893 c 0,-0.09501 -0.08261,-0.17275 -0.18359,-0.17275 -0.10098,0 -0.18359,0.1288 -0.18359,0.28622 0,0.15742 0.08262,0.23516 0.18359,0.17276 0.10097,-0.06241 0.18359,-0.1912 0.18359,-0.28622 z m 1.1015,0.29706 c 0,-0.04453 -0.08262,-0.13202 -0.18359,-0.19442 -0.10097,-0.06241 -0.18359,-0.02597 -0.18359,0.08096 0,0.10693 0.08262,0.19442 0.18359,0.19442 0.10097,0 0.18359,-0.03643 0.18359,-0.08096 z m -13.584,-0.834 c 0,-0.22903 -0.83299,-0.44485 -1.0941,-0.28348 -0.10836,0.06697 -0.14949,0.19867 -0.09139,0.29267 0.141,0.22815 1.1855,0.22005 1.1855,-0.0092 z m 5.497,-1.9769 c 0.08787,-0.32807 0.10555,-0.62868 0.0393,-0.66804 -0.22698,-0.13482 -2.0481,0.11773 -2.0481,0.28403 0,0.44436 0.62407,1.575 1.0651,1.9297 l 0.49543,0.3984 0.14429,-0.67378 c 0.07936,-0.37058 0.21618,-0.9422 0.30404,-1.2703 z m -25.192,1.4226 c -0.02896,-0.38453 -0.39731,-0.49874 -0.59209,-0.18359 -0.15145,0.24506 0.05204,0.55077 0.3666,0.55077 0.13997,0 0.24078,-0.16416 0.22548,-0.36718 z m 21.095,-0.0459 c -0.06,-0.229 -0.111,-0.765 -0.112,-1.195 l -0.0025,-0.78026 -0.77037,0 -0.77037,0 0.58678,0.60541 c 0.34655,0.35754 0.58678,0.796 0.58678,1.0709 0,0.49038 0.1298,0.71032 0.41919,0.71032 0.09592,0 0.12459,-0.18588 0.0637,-0.41308 z m 12.127,-0.17212 c -0.05861,-0.14646 -0.10211,-0.10295 -0.11092,0.11092 -0.008,0.19353 0.03542,0.30197 0.09642,0.24096 0.06101,-0.06101 0.06753,-0.21935 0.01449,-0.35188 z m -30.166,-0.655 c 0.05294,-0.27768 0.15102,-3.7269 0.21795,-7.6649 0.11832,-6.9614 0.1117,-7.1690004 -0.23845,-7.4855004 -0.35411,-0.32002 -0.3619,-0.30214 -0.46543,1.0667004 -0.05791,0.76568 -0.18341,1.4904 -0.2789,1.6106 -0.09586,0.12062 -0.2235,2.9488 -0.28502,6.315 l -0.11142,6.0965 0.40435,0.28322 c 0.55377,0.38788 0.64584,0.36091 0.75691,-0.22166 z m 8.837,0.13769 c 0.06241,-0.10098 0.03085,-0.18359 -0.07012,-0.18359 -0.10098,0 -0.23465,0.08261 -0.29705,0.18359 -0.06241,0.10097 -0.03085,0.18359 0.07013,0.18359 0.10097,0 0.23465,-0.08262 0.29705,-0.18359 z m 1.5605,0.09811 c 0,-0.27042 -1.3786,-2.5322 -1.5938,-2.6147 -0.5982,-0.22955 -0.40976,0.31192 0.70994,2.04 0.35402,0.54636 0.88386,0.89093 0.88386,0.5748 z m -11.969,-1.187 c 0.04248,-0.73252 -0.0022,-0.94889 -0.18359,-0.88909 -0.14654,0.04831 -0.26155,0.45538 -0.29587,1.0472 -0.04248,0.73252 0.0022,0.94889 0.18359,0.88909 0.14654,-0.04831 0.26155,-0.45538 0.29587,-1.0472 z m 23.711,-0.67872 c 0.04606,-0.04559 -0.47286,-0.06757 -1.1532,-0.04885 -0.68029,0.01871 -1.2717,0.09033 -1.3142,0.15916 -0.08342,0.13498 2.3285,0.02715 2.4674,-0.11031 z m 5.4296,-0.05917 c -0.06758,-0.10934 -0.20859,-0.14582 -0.31337,-0.08106 -0.12335,0.07623 -0.10457,0.17085 0.05327,0.2684 0.29462,0.18208 0.42872,0.0855 0.2601,-0.18734 z m -6.8903,-0.3764 c -0.19558,-0.12639 0.02866,-0.17878 0.7738,-0.18078 0.90102,-0.0024 1.0793,-0.06114 1.2622,-0.41589 0.40181,-0.77928 0.97967,-1.2536 1.7694,-1.4525 0.74337,-0.18718 1.1114,-0.4388 0.92079,-0.62946 -0.15006,-0.15006 -5.5403,1.2258 -5.6833,1.4506 -0.17244,0.2712 -0.187,1.1242 -0.022,1.2892 0.06731,0.06732 0.37712,0.12113 0.68846,0.11958 0.43299,-0.0021 0.50133,-0.04465 0.29068,-0.18078 z m -5.8085,-0.27538 c -0.11173,-0.29117 -0.43357,-0.38202 -0.43357,-0.12239 0,0.19415 0.20068,0.39778 0.39202,0.39778 0.08098,0 0.09968,-0.12392 0.04156,-0.27538 z m 4.5233,-0.44814 c 0,-0.39794 -0.07124,-0.76755 -0.15831,-0.82137 -0.23034,-0.14236 -4.9765,-0.17427 -5.1164,-0.0344 -0.065,0.065 0.1642,0.35393 0.50934,0.64206 0.60567,0.50563 0.65267,0.51501 1.3496,0.26912 0.39713,-0.14012 0.8314,-0.34551 0.96506,-0.45643 0.36954,-0.30669 0.83333,-0.04296 0.76542,0.43525 -0.05072,0.35717 -0.15313,0.40652 -0.74724,0.36005 -0.39003,-0.0305 -0.68846,0.02918 -0.68846,0.13769 0,0.11797 0.5994,0.19154 1.5605,0.19154 l 1.5605,0 0,-0.72352 z m -21.404,-0.24032 c 0.05082,-0.32817 0.14308,-1.0714 0.20503,-1.6516 0.0996,-0.93281 0.0774,-1.0414 -0.19174,-0.93811 -0.27876,0.10697 -0.29422,-0.13643 -0.18378,-2.8923 0.06632,-1.655 0.15428,-3.4946 0.19547,-4.0881 0.10107,-1.4565 -0.20813,-2.019 -0.36066,-0.65622 -0.11964,1.0689 -0.57237,6.5588 -0.76006,9.2166 l -0.11344,1.6064 0.5584,0 c 0.48864,0 0.56994,-0.07454 0.65079,-0.59667 z m 14.573,0.01004 c -0.50008,-0.64847 -0.88361,-0.8613 -0.87272,-0.48431 0.0039,0.13463 0.27239,0.42287 0.59667,0.64053 0.78793,0.52887 0.79938,0.52239 0.27605,-0.15622 z m -4.2984,-0.8362 c -0.27318,-0.47963 -0.8855,-1.533 -1.3607,-2.3408 -0.4752,-0.80779 -1.382,-2.4004 -2.0152,-3.5391 -0.63316,-1.1387 -1.2222,-2.1143 -1.3091,-2.168 -0.08684,-0.05367 -0.1579,0.29012 -0.1579,0.76398 0,0.77859 0.21451,1.2128 2.2272,4.5088 1.9029,3.1161 2.2916,3.6472 2.6698,3.6472 l 0.4426,0 -0.4967,-0.87205 z m 5.8053,0.68846 c 0,-0.10097 -0.12392,-0.18359 -0.27538,-0.18359 -0.15146,0 -0.27538,0.08262 -0.27538,0.18359 0,0.10098 0.12392,0.18359 0.27538,0.18359 0.15146,0 0.27538,-0.08262 0.27538,-0.18359 z m -4.4401,-0.71592 c 0.16652,-0.47769 0.07962,-0.71114 -0.83736,-2.2493 -0.56274,-0.94397 -1.1385,-1.8012 -1.2795,-1.9049 -0.14099,-0.10374 -0.27934,-0.31028 -0.30744,-0.45897 -0.20058,-1.0615 -1.2485,-2.3816 -1.8905,-2.3816 -0.23354,0 -0.42463,0.06645 -0.42463,0.14766 0,0.08122 0.54371,1.0933 1.2082,2.249 0.66453,1.1557 1.6206,2.8254 2.1245,3.7104 0.50393,0.885 0.98478,1.5667 1.0686,1.515 0.08377,-0.05177 0.23592,-0.33399 0.33812,-0.62714 z m 18.046,-0.07121 c -0.14993,-0.14993 -0.20424,-0.12939 -0.20424,0.07726 0,0.36495 0.24687,0.61182 0.33811,0.33811 0.03871,-0.11612 -0.02154,-0.30304 -0.13387,-0.41537 z m -14.47,0.163 c -0.27063,-0.47161 -5.0472,-5.619 -5.2142,-5.619 -0.0907,0 -0.16198,0.06196 -0.1584,0.13769 0.0219,0.46339 1.6091,2.4326 1.9607,2.4326 0.12974,0 0.2359,0.12392 0.2359,0.27538 0,0.15146 0.07408,0.27538 0.16462,0.27538 0.09054,0 0.76542,0.61962 1.4997,1.3769 1.232,1.2706 1.8682,1.7424 1.5117,1.1211 z m 9.767,-0.79024 c 2.9823,-0.7353 3.0493,-0.90849 0.36718,-0.94969 -1.2384,-0.01903 -1.328,0.01023 -2.4652,0.80443 -0.64904,0.45329 -1.0621,0.82419 -0.91795,0.8242 0.14416,1.7e-5 1.5013,-0.30551 3.016,-0.67894 z m -3.5727,0.26583 c 0.004,-0.02524 0.11682,-0.66551 0.2507,-1.4228 0.1754,-0.99218 0.18706,-1.413 0.04171,-1.506 -0.13315,-0.08521 -0.27432,0.28914 -0.41538,1.1015 -0.11752,0.67684 -0.27234,1.3752 -0.34403,1.5519 -0.092,0.22677 -0.04356,0.32128 0.16468,0.32128 0.16227,0 0.29831,-0.02065 0.30231,-0.0459 z m -2.005,-0.36718 c 0.03737,-0.39431 -0.05241,-0.77647 -0.2049,-0.87205 -0.08054,-0.05049 -0.68852,-0.06424 -1.3511,-0.03056 -0.99262,0.05046 -1.2242,0.12286 -1.3158,0.41143 -0.06113,0.19261 -0.05964,0.43356 0.0033,0.53544 0.17353,0.28077 2.8415,0.23961 2.8684,-0.04426 z m 0.52902,-0.22949 c 0,-0.15146 -0.03247,-0.27538 -0.07215,-0.27538 -0.03969,0 -0.11971,0.12392 -0.17783,0.27538 -0.05812,0.15146 -0.02565,0.27538 0.07215,0.27538 0.0978,0 0.17783,-0.12392 0.17783,-0.27538 z m -4.7733,-0.28622 c 0,-0.09501 -0.08262,-0.17275 -0.18359,-0.17275 -0.10097,0 -0.18359,0.1288 -0.18359,0.28622 0,0.15742 0.08262,0.23516 0.18359,0.17275 0.10098,-0.06241 0.18359,-0.1912 0.18359,-0.28622 z m -0.116,-0.904 c 0.61422,-0.92815 0.62105,-1.2891 0.0244,-1.2891 -0.36074,0 -0.45897,0.09332 -0.45897,0.43602 0,0.23981 -0.05164,0.6942 -0.11474,1.0097 -0.15148,0.75739 -0.03329,0.72367 0.54932,-0.1567 z m 1.2149,-0.70323 c 0.0017,-0.35883 -0.07234,-0.56106 -0.18078,-0.49404 -0.10098,0.06241 -0.18232,0.4597 -0.18078,0.88289 0.0021,0.56441 0.05023,0.69605 0.18078,0.49404 0.09788,-0.15146 0.17923,-0.54876 0.18078,-0.88289 z m 9.4638,0.37802 c -0.16768,-0.91252 -0.46512,-1.2098 -0.46512,-0.46481 0,0.69854 0.16058,1.1533 0.40725,1.1533 0.11316,0 0.13551,-0.26593 0.05787,-0.68846 z m -25.491,-0.367 c -0.04618,-0.1767 -0.08396,-0.03213 -0.08396,0.32128 0,0.35341 0.03778,0.49799 0.08396,0.32128 0.04618,-0.1767 0.04618,-0.46586 0,-0.64256 z m 24.716,0.20664 c -0.0735,-0.19155 -0.32262,-0.25511 -0.84687,-0.21606 -0.88452,0.06588 -1.1796,0.51429 -0.33843,0.51429 0.30538,0 0.60877,0.08663 0.67421,0.1925 0.17707,0.28651 0.63911,-0.15712 0.51109,-0.49073 z m -11.257,-0.10567 c 0,-0.29657 -0.05429,-0.34961 -0.20431,-0.19959 -0.11237,0.11237 -0.1488,0.29412 -0.08096,0.4039 0.1899,0.30727 0.28527,0.23897 0.28527,-0.20431 z m -2.5703,0.07181 c 0,-0.08168 -0.12526,-0.30887 -0.27837,-0.50487 -0.25813,-0.33046 -0.26266,-0.31966 -0.06233,0.1485 0.21616,0.50514 0.3407,0.63541 0.3407,0.35637 z m 3.1968,-0.63176 c 0.07432,-0.41107 0.05213,-0.68846 -0.05506,-0.68846 -0.25836,0 -0.43333,0.66907 -0.29168,1.1154 0.15158,0.4776 0.19228,0.42748 0.34675,-0.42691 z m 13.759,0.1319 c -0.43297,-0.32799 -0.61584,-0.3346 -0.61584,-0.02226 0,0.29774 0.79613,0.70062 0.89123,0.45099 0.03579,-0.09395 -0.08813,-0.28688 -0.27538,-0.42874 z m -4.105,-0.454 c 0,-0.63454 -0.45754,-0.76654 -0.64204,-0.18523 -0.13876,0.4372 0.01449,0.736 0.37749,0.736 0.17155,0 0.26455,-0.19362 0.26455,-0.55077 z m -23.741,-0.034 c -0.05861,-0.14646 -0.10211,-0.10295 -0.11092,0.11092 -0.008,0.19353 0.03542,0.30197 0.09642,0.24096 0.06101,-0.06101 0.06753,-0.21935 0.01449,-0.35188 z m 27.447,-2.4017 c -0.3024,-1.235 -0.6967,-2.8856 -0.87622,-3.6682 -0.34753,-1.5150004 -0.7412,-1.9543004 -0.57581,-0.64256 0.05411,0.42914 0.31658,2.0195 0.58326,3.5341 0.39423,2.239 0.55948,2.817 0.88391,3.0914 0.25009,0.21158 0.42434,0.26163 0.46685,0.13409 0.0373,-0.11192 -0.17959,-1.2139 -0.48199,-2.4489 z m -1.1937,2.0346 c -0.05861,-0.14646 -0.10211,-0.10295 -0.11092,0.11092 -0.008,0.19353 0.03542,0.30197 0.09642,0.24096 0.06101,-0.06101 0.06753,-0.21935 0.01448,-0.35188 z m -10.039,0.05789 c 0,-0.19475 -1.4206,-0.44207 -1.6664,-0.29011 -0.0965,0.05964 -0.12792,0.18534 -0.06982,0.27934 0.13373,0.21638 1.7363,0.22632 1.7363,0.01078 z m 6.0428,-0.25295 c 0.08587,-0.22719 0.11026,-0.49021 0.05421,-0.58448 -0.05605,-0.09427 -0.14962,-0.04874 -0.20793,0.10118 -0.08991,0.23116 -0.21762,0.23843 -0.84038,0.04782 -0.47865,-0.1465 -0.59277,-0.22968 -0.32774,-0.23888 0.45486,-0.01579 0.68088,-0.35152 0.87465,-1.2992 0.11989,-0.58635 0.10822,-0.61208 -0.13336,-0.29414 -0.25744,0.33882 -0.26758,0.33756 -0.36786,-0.0459 -0.05672,-0.21688 -0.22475,-0.39432 -0.37342,-0.39432 -0.35347,0 -0.74906,0.96828 -0.59453,1.4552 0.0967,0.30467 0.04197,0.38071 -0.27402,0.38071 -0.7157,0 -0.26944,0.45708 0.50229,0.51446 0.45077,0.03352 0.87434,0.19706 1.0698,0.41308 0.40619,0.44884 0.42839,0.44685 0.61825,-0.05549 z m 2.3441,0.01147 c -0.05861,-0.14646 -0.10211,-0.10295 -0.11092,0.11092 -0.008,0.19353 0.03542,0.30197 0.09643,0.24096 0.06101,-0.06101 0.06753,-0.21935 0.01448,-0.35188 z m 2.0157,-0.37865 c -0.05093,-0.12622 -0.0926,-0.02295 -0.0926,0.22949 0,0.25244 0.04167,0.3557 0.0926,0.22949 0.05093,-0.12622 0.05093,-0.33276 0,-0.45897 z m -9.3132,-0.07489 c 0.0854,-0.07411 0.72713,-4.8507 0.73923,-5.5023 0.005,-0.26725 -0.17223,-0.46515 -0.56047,-0.6259604 -0.70694,-0.29282 -0.81704,-0.15126 -0.99132,1.2745004 -0.06907,0.56509 -0.23444,1.5231 -0.36747,2.129 -0.48214,2.1957 -0.51332,2.8066 -0.14784,2.8963 0.31973,0.07848 1.1657,-0.03077 1.3279,-0.17147 z m 10.969,-0.09723 c -0.05861,-0.14646 -0.10211,-0.10295 -0.11092,0.11092 -0.008,0.19353 0.03542,0.30197 0.09642,0.24096 0.06101,-0.06101 0.06753,-0.21935 0.01449,-0.35188 z m -12.805,-1.021 c 0.1176,-0.68158 0.33089,-1.9002 0.47398,-2.7079 0.14309,-0.80779 0.31495,-1.7992 0.38191,-2.2031004 0.06696,-0.4039 0.19639,-0.87894 0.28763,-1.0556 0.20231,-0.39183 -0.02033,-0.41485 -0.50041,-0.05174 -0.23922,0.18094 -0.27339,0.27146 -0.10394,0.27538 0.18811,0.0043 0.21993,0.15788 0.12487,0.6025 -0.07016,0.3281704 -0.32256,1.6294004 -0.56089,2.8915004 -0.23833,1.2622 -0.49073,2.5634 -0.56089,2.8915 -0.07784,0.36407 -0.05516,0.59667 0.05818,0.59667 0.10216,0 0.28197,-0.55765 0.39956,-1.2392 z m 4.1319,0.24846 c 0.31738,-0.07966 0.46083,-0.28399 0.55617,-0.7922 0.08223,-0.43835 0.05666,-0.7088 -0.07104,-0.75137 -0.10974,-0.03658 -0.19952,-0.26616 -0.19952,-0.51018 0,-0.79163 -0.78855,-0.34984 -1.0015,0.56108 -0.12683,0.54255 -0.12532,0.54374 0.25336,0.20103 0.43962,-0.39786 0.4831,-0.21393 0.10556,0.44652 -0.1443,0.25244 -0.25292,0.78944 -0.24137,1.1933 0.01448,0.50678 0.04418,0.58325 0.09582,0.24675 0.04964,-0.32351 0.21875,-0.52374 0.50251,-0.59496 z m 3.0395,-0.40145 c 0,-1.048 -0.33196,-1.012 -0.65162,0.07067 -0.22265,0.75408 -0.21806,0.77078 0.21202,0.77078 0.3998,0 0.4396,-0.07618 0.4396,-0.84145 z m 2.4829,-2.1054 c -0.25424,-1.5492 -0.5338,-2.8883004 -0.62123,-2.9757004 -0.08957,-0.08957 -0.66841,-0.02696 -1.3259,0.14341 -1.0939,0.2834704 -1.4327,0.2819104 -3.1302,-0.01441 -0.40902,-0.0714 -0.715,-0.03837 -0.79151,0.08543 -0.14219,0.2300604 -0.43559,2.7433004 -0.33231,2.8466004 0.03727,0.03728 0.31083,-0.02397 0.6079,-0.1361 0.41032,-0.15488 0.54013,-0.32062 0.54013,-0.68964 0,-0.56882 0.58461,-1.381 1.1153,-1.5494 0.21599,-0.06855 0.55966,0.0055 0.82136,0.17697 0.35273,0.23112 0.44999,0.45264 0.44999,1.025 0,0.40157 -0.07378,0.73013 -0.16395,0.73013 -0.27842,0 -0.40473,0.58336 -0.18392,0.84942 0.15315,0.18453 0.154,0.25212 0.0032,0.25212 -0.11334,0 -0.20607,0.09914 -0.20607,0.22031 0,0.17135 0.04896,0.17135 0.22031,0 0.34401,-0.34401 0.5176,-0.2649 0.72515,0.33046 0.17385,0.49871 0.26787,0.55077 0.9947,0.55077 0.67827,0 0.86556,0.08503 1.2082,0.54851 0.22304,0.30168 0.43378,0.52026 0.46831,0.48573 0.03453,-0.03453 -0.14524,-1.3303 -0.39948,-2.8795 z m 1.2865,2.0748 c -0.07026,-0.47963 -0.21285,-0.95466 -0.31686,-1.0556 -0.12861,-0.12485 -0.15628,-0.06611 -0.08648,0.18359 0.05645,0.20195 0.15755,0.67699 0.22466,1.0556 0.17743,1.0011 0.32937,0.84502 0.17869,-0.18359 z m -7.8156,-0.36718 -0.0073,-0.68846 -0.27618,0.50922 c -0.27162,0.50082 -0.22168,0.8677 0.11812,0.8677 0.09502,0 0.16945,-0.30981 0.1654,-0.68846 z m -14.037,-0.0459 c 0.06241,-0.10097 -0.05664,-0.18359 -0.26455,-0.18359 -0.20791,0 -0.37802,-0.08262 -0.37802,-0.18359 0,-0.10098 0.08262,-0.18359 0.18359,-0.18359 0.31322,0 0.20149,-0.68821 -0.13255,-0.81639 -0.271,-0.10399 -0.27755,-0.14597 -0.0459,-0.29397 0.19213,-0.12275 0.35645,-0.06916 0.56852,0.1854 0.28158,0.338 0.30525,0.27368 0.4228,-1.1485 0.06849,-0.8286 0.16908,-1.6576 0.22354,-1.8422004 0.07261,-0.24617 0.0088,-0.32621 -0.23921,-0.30014 -0.64265,0.06755 -0.8059,-0.0086 -1.0183,-0.4747 -0.17691,-0.38827 -0.24032,-0.41954 -0.37237,-0.18359 -0.08753,0.15641 -0.25418,0.28438 -0.37033,0.28438 -0.15665,0 -0.15776,-0.05342 -0.0043,-0.2069 0.14133,-0.14133 0.15134,-0.35304 0.03158,-0.66802 -0.20863,-0.54873 -0.09193,-0.73043 0.27405,-0.4267 0.21333,0.17705 0.28748,0.14665 0.38399,-0.15743 0.14763,-0.46514 0.78399,-0.49614 1.1406,-0.05556 0.22682,0.28026 0.24693,0.07517 0.1575,-1.6064 -0.14062,-2.6441 -0.32834,-4.5441 -0.42171,-4.2685 -0.12593,0.37178 -0.3722,0.26403 -0.53878,-0.23572 -0.14149,-0.42449 -0.26658,-0.26378 -1.4289,1.8359 -0.70063,1.2656 -1.3342,2.3011 -1.4079,2.3011 -0.26303,0 0.17483,-1.0398 1.2756,-3.0292 l 1.1174,-2.01949996 -0.55944,-0.05883 c -0.30769,-0.03236 -0.66558,-0.0181 -0.7953,0.03168 -0.17665,0.06779 -2.975,4.92539996 -3.3704,5.85059996 -0.03366,0.07876 0.30093,0.1432 0.74354,0.1432 0.4426,0 0.91603,0.10327 1.0521,0.22949 0.2022,0.18761 0.22603,0.16912 0.13062,-0.10133 -0.06448,-0.18278 -0.04117,-0.28413 0.05209,-0.22649 0.09284,0.05738 0.22069,0.02036 0.28412,-0.08226 0.18873,-0.30537 0.48806,-0.21183 0.43105,0.1347 -0.02907,0.1767 0.01228,0.42514 0.09189,0.55206 0.08909,0.14204 0.03285,0.27372 -0.14624,0.34245 -0.24573,0.0943 -0.18527,0.3007 0.38872,1.3271 0.48147,0.86094 0.80294,1.7986004 1.1023,3.2148004 0.2324,1.0997 0.51674,2.1129 0.63187,2.2516 0.24543,0.29572 0.64554,0.32975 0.80693,0.06863 z m 4.4264,-1.8714 c -0.33032,-0.72636 -0.67988,-1.3471 -0.77682,-1.3794 -0.09694,-0.03231 -0.31888,0.04563 -0.49321,0.17321 -0.29445,0.21548 -0.2874,0.25036 0.09922,0.49094 0.38125,0.23724 0.39504,0.23339 0.16422,-0.0459 -0.17681,-0.21394 -0.18742,-0.30488 -0.03557,-0.30488 0.11902,0 0.38716,0.39242 0.59587,0.87205 0.32828,0.75438 0.82739,1.5146 0.99439,1.5146 0.02887,0 -0.21778,-0.59429 -0.54809,-1.3206 z m 9.5022,-0.05628 c 0.05975,-0.50487 0.15631,-1.3723 0.2146,-1.9277 0.05828,-0.5553604 0.14795,-1.1538004 0.19926,-1.3299004 0.06782,-0.23274 0.01513,-0.29013 -0.19305,-0.21025 -0.15748,0.06043 -0.24632,0.17462 -0.19741,0.25376 0.04891,0.07914 -0.03418,1.0773004 -0.18464,2.2181004 -0.31256,2.3698 -0.32211,2.5691 -0.10489,2.1893 0.08663,-0.15146 0.2064,-0.68846 0.26614,-1.1933 z m -11.709,0.32221 c -0.20055,-0.20055 -0.33808,0.11839 -0.19409,0.45013 0.13653,0.31456 0.14643,0.31427 0.2225,-0.0064 0.04379,-0.18461 0.031,-0.38426 -0.02841,-0.44368 z m 0.80711,0.54984 c -0.0015,-0.07573 -0.0829,-0.26162 -0.18078,-0.41308 -0.14391,-0.22269 -0.1785,-0.19634 -0.18078,0.13769 -0.0015,0.22719 0.0798,0.41308 0.18078,0.41308 0.10097,0 0.18232,-0.06196 0.18078,-0.13769 z m -1.0834,-0.79555 c 0.21036,-0.21036 0.32298,-0.43756 0.25025,-0.50487 -0.07273,-0.06732 -0.16911,-0.01912 -0.21419,0.10709 -0.04508,0.12622 -0.19323,0.22949 -0.32923,0.22949 -0.18871,0 -0.20899,-0.13349 -0.08561,-0.56366 0.11831,-0.41253 0.08114,-0.7325 -0.13861,-1.1933 -0.41559,-0.8715004 -0.59944,-0.7876504 -0.59944,0.2734 0,0.72337 0.4414,2.027 0.68846,2.0332 0.02524,5.5e-4 0.21801,-0.17096 0.42838,-0.38132 z m 14.174,0.01548 c 0.05278,-0.20185 0.02111,-0.41326 -0.07038,-0.46981 -0.0915,-0.05654 -0.16635,0.1086 -0.16635,0.367 0,0.56253 0.10464,0.60797 0.23674,0.10281 z m 5.2089,-0.22967 c -0.05093,-0.12622 -0.0926,-0.02295 -0.0926,0.22949 0,0.25244 0.04167,0.3557 0.0926,0.22949 0.05093,-0.12622 0.05093,-0.33276 0,-0.45897 z m 3.7026,-0.14696 c 0.09766,-1.0051 -0.14023,-2.1938004 -0.43902,-2.1938004 -0.20235,0 -0.26414,0.2756204 -0.26414,1.1783004 0,0.64808 0.05148,1.3125 0.11442,1.4765 0.18426,0.48018 0.52306,0.21489 0.58874,-0.46099 z m -2.2637,-0.3579 c -0.16537,-0.75293 -0.31369,-0.60461 -0.16064,0.16064 0.06451,0.32256 0.15556,0.5482 0.20234,0.50142 0.04677,-0.04677 0.02801,-0.3447 -0.04169,-0.66207 z m 1.1082,-1.2223 c -0.06331,-0.33746 -0.19398,-0.6135704 -0.29038,-0.6135704 -0.23545,0 -0.22067,0.4003604 0.05292,1.4333004 0.20584,0.77717 0.23428,0.80926 0.29038,0.32769 0.0342,-0.29363 0.01039,-0.80997 -0.05292,-1.1474 z m -6.2487,0.94443 c 0,-0.20056 -0.10327,-0.34401 -0.22949,-0.31877 -0.12622,0.02524 -0.22949,-0.05251 -0.22949,-0.17278 0,-0.12027 -0.1282,-0.05831 -0.28489,0.13769 -0.27687,0.34634 -0.28169,0.34474 -0.17122,-0.0567 0.1239,-0.45024 -0.07669,-0.5412 -0.42512,-0.19277 -0.32712,0.32712 -0.27378,0.47306 0.28456,0.77862 0.64777,0.3545 1.0556,0.28677 1.0556,-0.17529 z m -19.61,-0.123 c -0.05861,-0.14646 -0.10211,-0.10295 -0.11092,0.11092 -0.008,0.19353 0.03542,0.30197 0.09642,0.24096 0.06101,-0.06101 0.06753,-0.21935 0.01448,-0.35188 z m 3.7983,-1.8994004 c -0.52479,-1.2046 -0.80266,-1.4875 -0.80266,-0.8172 0,0.47176 1.1475,2.5214004 1.246,2.2257004 0.04059,-0.12175 -0.15894,-0.75559 -0.44339,-1.4085004 z m 19.147,0.7864304 c -0.05093,-0.12622 -0.0926,-0.02295 -0.0926,0.22949 0,0.25244 0.04167,0.3557 0.0926,0.22949 0.05093,-0.12622 0.05093,-0.33276 0,-0.45897 z m -0.17795,-1.0062004 c -0.04655,-0.17863 -0.08769,-0.07693 -0.09144,0.22599 -0.0037,0.30292 0.03434,0.44907 0.08463,0.32478 0.05029,-0.1243 0.05335,-0.37214 0.0068,-0.55077 z m -2.6207,0.38994 c 0.59689,-0.22905 0.25777,-0.43933 -0.70851,-0.43933 -0.93789,0 -1.3459,0.16422 -1.0768,0.43337 0.14905,0.14905 1.4015,0.15324 1.7853,0.006 z m -2.0794,-0.55146 c 0.17546,-0.21142 0.0665,-0.25505 -0.63696,-0.25505 -0.60976,0 -0.84863,0.07321 -0.84863,0.26009 0,0.49326 1.0751,0.48962 1.4856,-0.005 z m 3.7467,-0.07146 c 0,-0.20819 -0.24637,-0.28185 -1.0097,-0.3019 -0.55536,-0.01458 -0.8188,0.01248 -0.58544,0.06014 0.23337,0.04766 0.47111,0.20864 0.52832,0.35773 0.1373,0.35781 1.0669,0.25677 1.0669,-0.11597 z m -6.8846,-0.0918 c 0,-0.15146 -0.08262,-0.27538 -0.18359,-0.27538 -0.10097,0 -0.18359,0.12392 -0.18359,0.27538 0,0.15146 0.08262,0.27538 0.18359,0.27538 0.10097,0 0.18359,-0.12392 0.18359,-0.27538 z m -17.497,-0.595 c -0.04655,-0.17863 -0.08769,-0.07693 -0.09143,0.22599 -0.0037,0.30292 0.03434,0.44907 0.08463,0.32478 0.05029,-0.1243 0.05335,-0.37214 0.0068,-0.55077 z m 26.858,0.45548 c -0.0048,-0.38885 -0.23372,-0.57816 -1.3323,-1.1015 -1.2827,-0.61112 -1.4614,-0.6236 -1.3856,-0.09679 0.04425,0.3078 0.35191,0.53193 1.252,0.9121 1.3708,0.57895 1.4697,0.59828 1.4659,0.28624 z m -21.733,-0.45515 c -0.18662,-0.18662 -0.3406,0.09434 -0.18748,0.3421 0.11567,0.18716 0.15891,0.1873 0.2211,7.34e-4 0.04252,-0.12756 0.02739,-0.28183 -0.03361,-0.34284 z m 15.002,-0.22823 c 0.65504,-0.0048 0.69688,-0.03795 0.64256,-0.50995 l -0.05809,-0.50487 -1.6523,0.05888 c -2.1143,0.07534 -2.2949,0.13136 -2.2949,0.7119 l 0,0.47064 1.331,-0.11075 c 0.73206,-0.06092 1.6463,-0.11304 2.0317,-0.11584 z m -5.015,-0.29393 c 0,-0.17097 -0.12491,-0.26462 -0.30607,-0.22949 -0.46058,0.08933 -0.52383,0.51833 -0.07641,0.51833 0.22551,0 0.38248,-0.11854 0.38248,-0.28884 z m 0.99473,0.17741 c 0.41021,-0.15741 0.36094,-0.43933 -0.07678,-0.43933 -0.20399,0 -0.36718,0.12239 -0.36718,0.27538 0,0.30899 0.03362,0.32141 0.44396,0.16395 z m 5.7523,-0.57702 c 0.04434,-0.13318 -0.07956,-0.22949 -0.29523,-0.22949 -0.40149,0 -0.64313,0.23975 -0.44317,0.43971 0.18472,0.18472 0.65112,0.05194 0.73841,-0.21023 z m 1.4251,-0.22567 c -0.04697,-0.07599 -0.30705,-0.09579 -0.57798,-0.044 -0.46034,0.088 -0.47063,0.11022 -0.15714,0.33945 0.2462,0.18003 0.39997,0.19173 0.57797,0.04401 0.13339,-0.1107 0.2041,-0.26346 0.15714,-0.33945 z m -3.5365,28.7740004 c -0.329,-0.104 -0.597,-0.248 -0.597,-0.319 0,-0.07105 0.331,-0.2592 0.73555,-0.41811 0.65071,-0.2556 0.76701,-0.25747 1.0083,-0.01614 0.15003,0.15003 0.35604,0.22134 0.45779,0.15845 0.10175,-0.06288 0.27768,-0.05705 0.39097,0.01296 0.1218,0.07528 -0.08451,0.26472 -0.50487,0.46358 -0.8062,0.3814 -0.70192,0.37301 -1.4911,0.11985 z m -0.57664,-1.4911 c -0.26571,-0.32016 -0.01882,-0.5257 0.35439,-0.29504 0.19042,0.11769 0.20903,0.21989 0.06607,0.36285 -0.14296,0.14296 -0.26139,0.12386 -0.42046,-0.06781 z m 0.89792,-0.0362 c 0,-0.37743 0.4466,-0.81408 0.83261,-0.81408 0.56013,0 0.56855,0.11973 0.03944,0.56113 -0.39724,0.33139 -0.87205,0.46912 -0.87205,0.25295 z"
       id="path4667"
       inkscape:connector-curvature="0" />
  </g>
</svg>
