<?xml version="1.0" encoding="UTF-8" standalone="no"?>
<!-- Created with Inkscape (http://www.inkscape.org/) -->

<svg
   xmlns:dc="http://purl.org/dc/elements/1.1/"
   xmlns:cc="http://creativecommons.org/ns#"
   xmlns:rdf="http://www.w3.org/1999/02/22-rdf-syntax-ns#"
   xmlns:svg="http://www.w3.org/2000/svg"
   xmlns="http://www.w3.org/2000/svg"
   xmlns:sodipodi="http://sodipodi.sourceforge.net/DTD/sodipodi-0.dtd"
   xmlns:inkscape="http://www.inkscape.org/namespaces/inkscape"
   id="svg2"
   height="45"
   width="67.5"
   version="1.1"
   inkscape:version="0.91 r"
   sodipodi:docname="24.svg">
  <defs
     id="defs26" />
  <sodipodi:namedview
     pagecolor="#ffffff"
     bordercolor="#666666"
     borderopacity="1"
     objecttolerance="10"
     gridtolerance="10"
     guidetolerance="10"
     inkscape:pageopacity="0"
     inkscape:pageshadow="2"
     inkscape:window-width="1871"
     inkscape:window-height="1056"
     id="namedview24"
     showgrid="false"
     inkscape:zoom="1.8101934"
     inkscape:cx="17.896954"
     inkscape:cy="6.4600765"
     inkscape:window-x="1649"
     inkscape:window-y="24"
     inkscape:window-maximized="1"
     inkscape:current-layer="svg2" />
  <metadata
     id="metadata7">
    <rdf:RDF>
      <cc:Work
         rdf:about="">
        <dc:format>image/svg+xml</dc:format>
        <dc:type
           rdf:resource="http://purl.org/dc/dcmitype/StillImage" />
        <dc:title></dc:title>
      </cc:Work>
    </rdf:RDF>
  </metadata>
  <g
     id="g4959">
    <rect
       id="rect2990"
       height="45"
       width="67.5"
       y="0"
       x="3.5526999e-15"
       style="opacity:0" />
    <path
       inkscape:connector-curvature="0"
       id="path4758"
       d="m 67.297941,33.658003 c -0.02003,-0.02002 -0.987001,-0.08607 -2.148753,-0.146663 -1.161751,-0.0606 -2.429928,-0.12867 -2.818129,-0.15126 -0.388253,-0.02258 -1.525127,-0.0732 -2.526453,-0.112418 -1.001251,-0.03923 -2.255253,-0.08945 -2.786553,-0.111585 -1.051052,-0.0438 -3.485255,-0.139417 -6.576234,-0.25836 -1.083001,-0.0417 -3.089329,-0.12531 -4.458456,-0.18585 -1.369127,-0.06052 -3.291829,-0.143813 -4.27268,-0.185033 -0.980852,-0.04125 -2.134503,-0.09137 -2.563579,-0.111405 -0.42912,-0.02002 -1.214926,-0.05445 -1.746227,-0.07642 -0.531293,-0.02197 -1.317077,-0.05535 -1.746227,-0.0741 -2.343378,-0.10248 -6.025283,-0.255278 -7.20781,-0.2991 -0.592598,-0.02198 -1.746227,-0.07118 -2.563578,-0.109283 -0.818251,-0.03825 -2.055753,-0.0885 -2.750254,-0.11175 -0.69525,-0.02325 -2.3505,-0.09075 -3.678751,-0.14925 -1.328252,-0.05858 -2.883154,-0.12474 -3.45533,-0.14712 -0.572168,-0.02235 -1.240952,-0.05588 -1.486127,-0.0744 -0.24522,-0.01852 -1.081202,-0.0528 -1.857678,-0.07622 -0.776551,-0.0234 -2.101952,-0.07417 -2.9454034,-0.112913 -0.8434511,-0.0387 -2.3481781,-0.104437 -3.3438044,-0.146077 -0.9952513,-0.042 -2.4012781,-0.109501 -3.1239041,-0.150001 -0.9306012,-0.0525 -1.3653018,-0.05025 -1.4902519,0.0068 -0.1308002,0.06 -0.3747755,0.051 -0.94387616,-0.03375 -0.4221,-0.063 -0.784426,-0.13125 -0.805201,-0.15225 -0.04373,-0.04373 0.441481,-0.699428 1.79925226,-2.431203 0.5337831,-0.680843 1.3717517,-1.762952 1.8621774,-2.404653 1.0894514,-1.425452 1.3263017,-1.727627 4.3329056,-5.526832 0.1099052,-0.138878 0.3001354,-0.377693 0.4227456,-0.530701 0.1226026,-0.153008 0.5093707,-0.641273 0.8595011,-1.085026 0.3501004,-0.443761 0.966751,-1.224827 1.370402,-1.735653 0.997576,-1.262701 1.461677,-1.725152 1.684577,-1.678427 0.09489,0.01987 0.841276,0.05602 1.658702,0.08033 0.817351,0.02431 2.221803,0.07609 3.120905,0.11505 0.899101,0.03896 2.069477,0.08765 2.600778,0.10821 0.531293,0.02056 1.283627,0.05342 1.671899,0.07301 0.388253,0.0196 1.274402,0.05514 1.969128,0.07897 0.694778,0.02383 2.383428,0.09118 3.752555,0.149677 1.369126,0.05849 2.676678,0.106538 2.905653,0.106771 l 0.416363,4.46e-4 0.05003,-0.873076 c 0.02753,-0.480211 0.06923,-1.073777 0.09273,-1.318952 0.03967,-0.414436 0.0306,-0.451081 -0.128776,-0.520156 -0.167145,-0.07244 -0.17094,-0.09671 -0.151162,-0.966001 0.0129,-0.565598 0.05242,-0.921901 0.108202,-0.974326 0.06217,-0.05842 0.403381,-0.06554 1.165352,-0.02433 1.225952,0.06631 2.524728,0.124125 4.086905,0.181943 0.592599,0.02193 1.395152,0.05524 1.783353,0.07403 0.388253,0.01879 1.926452,0.08723 3.418129,0.152093 1.491752,0.06487 2.749204,0.12942 2.794354,0.143445 0.05415,0.01681 0.0723,0.224116 0.05333,0.607846 -0.05452,1.101376 -0.09667,1.344826 -0.239363,1.382102 -0.11421,0.02986 -0.138953,0.159195 -0.181365,0.948001 -0.027,0.50238 -0.04912,1.102276 -0.04912,1.333126 l 0,0.419671 3.250954,0.128348 c 1.788002,0.07059 3.518479,0.143392 3.845405,0.161782 0.326955,0.01839 1.480577,0.06727 2.563578,0.108646 1.083002,0.04136 2.415453,0.09573 2.960929,0.120802 l 0.991801,0.04559 0.138353,0.233498 c 0.0761,0.128422 0.415591,0.65874 0.754426,1.178476 0.338843,0.519728 0.733111,1.136927 0.876151,1.371527 0.296911,0.486998 0.775876,1.205251 2.072703,3.107929 0.501383,0.735638 1.067101,1.588352 1.257076,1.894802 0.190021,0.306511 0.616981,0.944177 0.948827,1.417052 0.533543,0.760276 2.077127,3.158404 2.555553,3.97028 0.190658,0.323555 1.714877,2.695875 1.946553,3.029626 0.07862,0.113265 0.122722,0.238665 0.098,0.278655 -0.04845,0.07843 -0.13782,0.0949 -0.1965,0.03622 z m -0.448073,-0.758176 c 0.0336,-0.236295 -0.26631,-0.290813 -2.140953,-0.389168 -2.371503,-0.124433 -7.259709,-0.336998 -9.548262,-0.415231 -0.694771,-0.02378 -2.433604,-0.09003 -3.864005,-0.147307 -1.430402,-0.0573 -3.169205,-0.125085 -3.864005,-0.150705 -0.694771,-0.02565 -1.396952,-0.05797 -1.560452,-0.07185 -0.163478,-0.01395 -0.982727,-0.04635 -1.820553,-0.07215 -0.837826,-0.0258 -1.707227,-0.06045 -1.932002,-0.07705 -0.224783,-0.01657 -0.927002,-0.04935 -1.560452,-0.07275 -0.633466,-0.0234 -1.452677,-0.0573 -1.820553,-0.07543 -0.367823,-0.01807 -1.019851,-0.05025 -1.449002,-0.07147 -0.429128,-0.02115 -1.198201,-0.0558 -1.709102,-0.07695 -0.510863,-0.02115 -1.697927,-0.07125 -2.637903,-0.11133 -0.939977,-0.04012 -2.160453,-0.0907 -2.712229,-0.112433 -1.396652,-0.05505 -4.346105,-0.18096 -5.721682,-0.244298 -1.537352,-0.0708 -2.303553,-0.03683 -2.303553,0.102105 0,0.161386 -0.132248,0.125611 -0.188288,-0.05092 -0.0273,-0.08608 -0.833023,-1.331701 -1.790474,-2.767953 -0.957452,-1.436258 -1.802403,-2.71171 -1.877703,-2.834335 -0.243398,-0.396203 -2.748304,-4.14593 -3.102454,-4.644231 -0.188805,-0.265643 -0.695716,-1.001251 -1.126502,-1.634777 -0.430748,-0.633466 -0.901276,-1.318952 -1.045651,-1.523327 -0.14433,-0.204345 -0.431071,-0.620048 -0.637193,-0.923776 -0.206123,-0.303736 -0.414983,-0.565149 -0.464146,-0.580906 -0.04913,-0.01576 -0.233078,0.159795 -0.408698,0.390128 -0.175613,0.230333 -1.305752,1.663277 -2.5113783,3.184354 -1.2056266,1.521077 -2.4762782,3.129904 -2.8236787,3.57518 -0.3473929,0.445298 -0.7221984,0.915076 -0.8328761,1.043926 -0.1107151,0.12888 -0.5705407,0.716334 -1.0218763,1.305452 -1.4280019,1.864052 -1.9449775,2.527278 -2.8808288,3.695855 -0.50150276,0.626228 -0.91185076,1.183951 -0.91185076,1.239376 0,0.115478 0.74049806,0.294361 0.94710086,0.228788 0.071925,-0.02287 0.1678952,-0.101018 0.2133303,-0.17376 0.04545,-0.07275 0.4877256,-0.649944 0.9828763,-1.282652 0.4951431,-0.632701 1.2537016,-1.601777 1.6856271,-2.153478 0.4319706,-0.551738 0.8634012,-1.103476 0.9588013,-1.226101 0.095355,-0.12261 0.371198,-0.473716 0.6129833,-0.780226 0.4394481,-0.557101 0.807901,-1.031327 1.6784272,-2.160228 0.6903459,-0.895201 0.8412011,-1.084651 1.6519521,-2.074728 0.7080685,-0.864601 1.0870515,-1.345427 2.0710525,-2.627403 0.239948,-0.312616 0.457298,-0.566033 0.483001,-0.563146 0.02572,0.0028 0.23547,0.29547 0.466171,0.650183 0.230692,0.354721 1.044076,1.531052 1.807577,2.614054 0.763501,1.083001 1.778477,2.564703 2.255628,3.292579 0.477113,0.727899 1.469402,2.227653 2.205003,3.332704 0.735639,1.105127 1.600202,2.415529 1.921278,2.912104 0.32106,0.496531 0.589973,0.909751 0.59757,0.918301 0.0076,0.0085 0.258283,0.02168 0.557061,0.02918 0.347985,0.0088 0.562538,-0.01755 0.596918,-0.07313 0.0408,-0.06607 0.559486,-0.0603 2.165853,0.02392 1.161676,0.0609 3.031729,0.145298 4.15568,0.187501 1.123876,0.04215 2.327703,0.09321 2.675104,0.113355 0.347385,0.02018 1.099726,0.05438 1.671902,0.07597 0.572168,0.0216 1.391402,0.05633 1.820552,0.07712 2.665804,0.12912 5.787308,0.2667 7.46191,0.328883 1.065901,0.0396 2.255628,0.08914 2.643903,0.110145 1.105352,0.05978 2.241303,0.109088 3.492455,0.151583 1.074676,0.03652 1.888952,0.06765 6.724809,0.257055 1.021726,0.04005 2.426103,0.09154 3.120904,0.114488 0.694778,0.02295 1.463852,0.057 1.709102,0.07561 0.245213,0.0186 0.880576,0.0504 1.411802,0.07057 1.951952,0.0741 4.830606,0.207151 4.850406,0.224176 0.01125,0.0097 0.1617,0.01387 0.334373,0.0095 0.263648,-0.0067 0.317678,-0.0342 0.337163,-0.171128 z M 20.644561,31.177975 c 0,-0.0267 -0.540518,-0.850651 -1.201127,-1.831128 C 17.672682,26.718769 17.166056,25.953843 16.52998,24.947792 16.214462,24.448749 15.473154,23.36199 14.882603,22.532789 14.29209,21.703587 13.591026,20.699111 13.324701,20.300636 13.058383,19.90216 12.7991,19.578085 12.748498,19.580462 c -0.05063,0.0023 -0.295081,0.261526 -0.543301,0.575881 -0.248213,0.314355 -1.050752,1.319852 -1.783352,2.234403 -1.8411779,2.298378 -2.675554,3.360979 -3.6246052,4.616106 -0.4480881,0.592598 -1.0698764,1.378427 -1.3816518,1.746227 -1.0564514,1.246052 -1.4391769,1.752602 -1.3713768,1.814853 0.036825,0.03375 0.6688958,0.08314 1.4045268,0.109657 2.9628039,0.106815 7.43746,0.282916 9.660013,0.380168 1.550402,0.06788 2.530803,0.10638 3.90113,0.15333 0.756076,0.02595 1.386302,0.05797 1.400552,0.07125 0.03967,0.03712 0.234233,-0.04958 0.234233,-0.104317 z m 44.284554,-0.747616 c 0.04215,-0.07878 0.05797,-0.191933 0.0351,-0.251461 -0.0462,-0.120397 -0.42933,-0.150645 -3.487504,-0.275325 -0.980851,-0.03997 -2.017428,-0.08964 -2.303553,-0.110333 -0.286088,-0.0207 -1.456427,-0.07155 -2.600779,-0.113055 -2.239877,-0.0812 -4.830306,-0.189652 -7.95076,-0.332873 -0.40869,-0.01875 -1.194526,-0.05228 -1.746227,-0.07447 -0.551731,-0.0222 -1.287377,-0.05557 -1.634777,-0.07425 -0.347393,-0.01868 -1.083002,-0.05175 -1.634777,-0.07357 -0.551739,-0.02182 -1.287377,-0.0552 -1.634778,-0.07418 -0.347392,-0.01897 -1.133176,-0.0531 -1.746227,-0.07579 -0.613036,-0.02273 -1.382102,-0.05662 -1.709102,-0.07539 -0.660571,-0.03787 -1.479902,-0.07297 -4.272681,-0.183008 -1.042201,-0.0411 -2.162327,-0.09108 -2.489328,-0.111128 -0.326955,-0.02002 -1.112776,-0.05385 -1.746227,-0.07518 -3.123754,-0.105037 -5.363557,-0.189757 -5.833133,-0.220627 -0.28608,-0.01882 -1.065901,-0.0555 -1.732877,-0.08156 l -1.212749,-0.0474 0.02385,0.248956 c 0.02257,0.235538 0.03983,0.249345 0.321065,0.256043 0.741759,0.0177 3.33443,0.115447 4.718557,0.17796 0.837826,0.0378 2.125202,0.0873 2.860803,0.109912 0.735646,0.02265 1.638452,0.05723 2.006328,0.07687 0.367823,0.01965 1.086751,0.05302 1.597652,0.07417 0.510856,0.02115 1.614302,0.07102 2.452128,0.110798 1.608077,0.07639 2.593354,0.11994 4.235556,0.18723 0.55173,0.02265 1.280701,0.05707 1.619927,0.07652 0.339233,0.01942 1.425977,0.06788 2.415003,0.107542 0.989026,0.03968 2.099103,0.09014 2.466978,0.112163 0.367823,0.02205 1.070027,0.05542 1.560452,0.07425 1.527077,0.05857 4.570431,0.183495 5.387257,0.221093 0.939676,0.04327 2.008503,0.08695 4.569906,0.186833 1.062602,0.04147 2.182803,0.09134 2.489328,0.110902 0.306518,0.01958 1.142477,0.0573 1.857678,0.08386 1.093651,0.04058 2.611953,0.126465 2.951104,0.166867 0.04965,0.006 0.124762,-0.0537 0.166927,-0.132472 z m -2.688753,-1.458602 c 0.326138,-0.228435 0.155205,-0.634598 -0.373486,-0.887476 -0.244417,-0.11691 -0.425985,-0.314266 -0.850951,-0.924976 -0.681196,-0.978827 -1.036951,-1.341077 -1.610177,-1.639503 -0.766876,-0.399285 -0.857551,-0.556223 -0.556546,-0.963301 0.124598,-0.168518 0.150143,-0.28155 0.117916,-0.521791 -0.106628,-0.795001 -0.967802,-1.901552 -1.791753,-2.302353 -0.745576,-0.362677 -1.214401,-0.446993 -2.494878,-0.44865 -0.635101,-7.5e-4 -1.355327,-0.03045 -1.600577,-0.06585 -0.550711,-0.07947 -0.997651,-0.01297 -1.106552,0.16458 -0.09361,0.152715 0.07298,0.321353 0.734319,0.743491 0.437228,0.279075 0.666256,0.607711 1.407752,2.020053 1.153576,2.197278 1.528052,2.973604 1.528052,3.167779 0,0.11064 -0.0585,0.30549 -0.130043,0.433005 l -0.130035,0.231841 0.308393,0.290108 c 0.198135,0.186382 0.450518,0.331395 0.705923,0.405608 0.436576,0.126855 1.930503,0.189375 2.199453,0.09206 0.340771,-0.123308 0.145005,-0.470506 -0.564038,-1.000352 -0.2286,-0.170812 -1.200752,-1.833002 -1.200752,-2.052977 0,-0.222623 0.271981,-0.282668 0.574824,-0.126908 0.34695,0.17844 0.543975,0.387218 1.165426,1.234952 1.239752,1.691252 1.428452,1.877477 2.182653,2.154677 0.391988,0.144053 1.277102,0.141698 1.485002,-0.0038 z m -6.058808,-4.478781 c -0.124335,-0.07894 -1.058176,-1.932677 -1.058176,-2.100528 0,-0.160665 0.229357,-0.242295 0.508508,-0.180982 0.368588,0.08095 0.732578,0.459743 1.048726,1.091326 0.303406,0.606181 0.374828,0.999226 0.211305,1.162727 -0.100297,0.100305 -0.567195,0.11835 -0.710371,0.02745 z m -1.355402,3.903305 c 0,-0.456143 -0.32457,-1.511327 -0.574088,-1.866302 -0.2283,-0.324841 -0.560258,-0.499126 -0.694658,-0.364726 -0.05363,0.05363 -0.05693,0.200986 -0.0102,0.457996 0.07933,0.436485 0.01365,0.622418 -0.302956,0.857476 -0.177668,0.131918 -0.301965,0.151763 -0.872701,0.139343 -0.997951,-0.02175 -1.069876,-0.07838 -1.883852,-1.483202 -0.443559,-0.765526 -0.449004,-1.013027 -0.0231,-1.048127 0.36969,-0.03053 0.64614,0.148426 1.020451,0.660361 0.424673,0.580793 0.444038,0.599889 0.579878,0.571883 0.223268,-0.04605 0.11658,-0.502808 -0.318968,-1.365601 -0.591436,-1.171652 -1.146301,-1.886778 -1.464002,-1.886778 -0.173572,0 -0.170902,0.104393 0.01297,0.509693 0.178178,0.392671 0.179048,0.413626 0.02355,0.569109 -0.149355,0.149355 -0.728168,0.09174 -0.934651,-0.09303 -0.176963,-0.158356 -0.948226,-1.615503 -0.948226,-1.791453 0,-0.24555 0.186218,-0.320655 0.795001,-0.320655 0.721433,0 1.264802,0.192353 1.731452,0.612968 1.199252,1.080901 1.166177,0.16713 -0.03878,-1.072576 l -0.494236,-0.508471 -0.532275,0.05948 c -0.292756,0.0327 -1.100702,0.04845 -1.795503,0.03495 -2.754228,-0.05347 -2.743878,-0.05378 -2.769753,0.07664 -0.03465,0.17442 0.317723,0.559515 0.557671,0.609541 0.377303,0.07866 0.785851,0.584085 1.542452,1.908227 0.499425,0.874051 1.747127,3.497105 1.747127,3.67298 0,0.07936 -0.0726,0.221573 -0.161318,0.316013 -0.138938,0.1479 -0.148628,0.19542 -0.06983,0.342683 0.203588,0.3804 0.460673,0.417203 3.723605,0.533055 0.674341,0.02392 1.359827,0.07223 1.523327,0.107325 0.600001,0.130501 0.631501,0.118501 0.631501,-0.23775 z m -9.037512,-0.12222 c 0.423218,-0.09819 0.476326,-0.18171 0.310868,-0.488948 -0.10107,-0.187665 -0.219742,-0.283358 -0.429278,-0.346141 -0.504615,-0.151185 -0.896776,-0.576788 -1.352551,-1.467751 -0.227911,-0.445561 -0.414384,-0.863702 -0.414384,-0.929102 0,-0.06547 0.07936,-0.155175 0.176363,-0.199372 0.139935,-0.06375 0.246301,-0.04943 0.515011,0.06945 0.327758,0.144982 0.584746,0.427673 0.884176,0.972676 0.09273,0.16875 0.179798,0.230355 0.32559,0.230355 0.191183,0 0.197356,-0.01245 0.156961,-0.315803 -0.06233,-0.46833 -0.961427,-2.223453 -1.342952,-2.621628 -0.392138,-0.409261 -0.606631,-0.445111 -0.542056,-0.0906 0.02415,0.132825 0.0624,0.308378 0.08499,0.39012 0.06863,0.248753 -0.06615,0.360413 -0.418838,0.346951 -0.450045,-0.01718 -0.645428,-0.192893 -1.009651,-0.908026 -0.355388,-0.697779 -0.396556,-0.988127 -0.158183,-1.115702 0.256208,-0.137123 1.370852,0.04747 1.861428,0.308243 0.09517,0.05063 0.383925,0.270525 0.641686,0.488738 0.50628,0.428618 0.548625,0.447346 0.672878,0.297623 0.171938,-0.207173 -0.689971,-1.511327 -1.246877,-1.886627 -0.237728,-0.160201 -0.318788,-0.168578 -1.632902,-0.168758 -0.760501,-7.5e-5 -1.850252,-0.04642 -2.421603,-0.102848 -0.571381,-0.05647 -1.081351,-0.08638 -1.133176,-0.06645 -0.0519,0.01987 -0.09431,0.113235 -0.09431,0.207398 0,0.181493 0.220553,0.390668 0.742906,0.704581 0.364861,0.219263 0.563986,0.53106 1.423652,2.229228 0.959851,1.895927 1.400177,2.859603 1.400177,3.064204 0,0.109282 -0.06668,0.231472 -0.160223,0.29358 -0.333833,0.221655 0.04747,0.799201 0.635581,0.962626 0.668191,0.185746 2.010678,0.261263 2.524578,0.142021 z m -5.745982,-0.337298 c 0.407468,-0.206235 0.585743,-0.411128 0.703906,-0.809026 0.211853,-0.713408 0.125738,-1.463852 -0.273435,-2.382978 -0.782852,-1.802552 -2.610904,-3.530405 -4.372131,-4.13243 -0.556111,-0.190096 -1.644827,-0.233656 -2.085978,-0.08347 -0.337823,0.11502 -0.719026,0.506401 -0.813301,0.834976 -0.188445,0.657068 -0.05145,1.444052 0.426676,2.451003 0.533115,1.122752 1.586477,2.418528 2.580903,3.174829 1.209677,0.919952 3.008704,1.364477 3.83333,0.947102 z m -1.823852,-1.367252 c -0.977702,-0.450195 -3.26213,-3.456679 -3.26213,-4.293305 0,-0.354901 0.252151,-0.572994 0.580659,-0.502238 0.854626,0.184072 2.315553,1.716452 3.226729,3.384679 0.653618,1.196627 0.402188,1.847102 -0.545296,1.410902 z m -0.483001,-2.418078 c 0,-0.05835 -0.0881,-0.175365 -0.195788,-0.26007 -0.162638,-0.127928 -0.30105,-0.154013 -0.817351,-0.154013 -0.341873,0 -0.621586,0.02978 -0.621586,0.06608 0,0.0363 0.0585,0.1359 0.130035,0.221243 0.104476,0.124673 0.232291,0.159945 0.650191,0.179445 0.286088,0.01335 0.595389,0.03083 0.687346,0.03878 0.10209,0.0089 0.16719,-0.02678 0.16719,-0.09152 z m 25.398783,3.473105 0.0225,-0.225443 -0.728431,-0.03997 c -0.400635,-0.02198 -0.753976,-0.0162 -0.785176,0.0129 -0.0312,0.0291 0.02715,0.13173 0.129653,0.22803 0.140947,0.132413 0.308753,0.187433 0.688336,0.22569 0.645585,0.0651 0.646508,0.0648 0.673073,-0.201225 z m -30.59254,0.11517 c 0.720504,-0.24123 1.052252,-0.762451 1.057202,-1.660802 0.0076,-1.383302 -0.985802,-3.072079 -2.616529,-4.447956 -1.300127,-1.096952 -2.172303,-1.489052 -3.315304,-1.490702 -0.919801,-0.0015 -1.323602,0.190643 -1.616177,0.768226 -0.351233,0.693428 -0.253846,1.466102 0.332265,2.636403 0.370013,0.738819 0.578776,1.062977 1.105052,1.715778 1.262701,1.566302 2.915028,2.556828 4.273205,2.561703 0.290206,7.5e-4 0.641303,-0.03615 0.780226,-0.08267 z M 30.924221,26.292806 C 30.521741,26.094303 30.11317,25.69426 29.430144,24.830004 28.340393,23.451052 27.701692,22.385001 27.707017,21.9539 c 0.0053,-0.444285 0.451808,-0.596933 0.971476,-0.332273 0.851851,0.433838 2.248803,2.109603 2.892004,3.469205 0.471248,0.996151 0.149565,1.594352 -0.646246,1.201876 z m -0.505786,-2.409453 c 0.02392,-0.03878 -0.04035,-0.15432 -0.142852,-0.256838 -0.169905,-0.169905 -0.242573,-0.18639 -0.821401,-0.18639 -0.349238,0 -0.633924,0.02505 -0.632626,0.05573 0.0075,0.1698 0.25347,0.347543 0.535861,0.386745 0.535478,0.07433 1.015351,0.0747 1.061026,4.95e-4 z m -2.881053,3.69923 c 0.19524,-0.0942 0.22098,-0.386881 0.05355,-0.608289 -0.05992,-0.07922 -0.284573,-0.229695 -0.499216,-0.334388 -0.338798,-0.165232 -0.450248,-0.28182 -0.845176,-0.884101 -0.578911,-0.882751 -1.062901,-1.377452 -1.625702,-1.661477 -0.741931,-0.374505 -0.835426,-0.521611 -0.557303,-0.877126 0.197197,-0.252105 0.18417,-0.626423 -0.03848,-1.104602 -0.374701,-0.804901 -0.933077,-1.365901 -1.782078,-1.790402 -0.742726,-0.371348 -1.185898,-0.456758 -2.26635,-0.436808 -0.469995,0.0087 -1.193776,-0.01057 -1.608452,-0.04275 -0.870301,-0.06757 -1.066651,-0.0294 -1.066651,0.207293 0,0.237818 0.13785,0.392723 0.520148,0.584513 0.527446,0.264608 0.885001,0.828751 2.296503,3.62303 0.741571,1.468127 0.819001,1.704377 0.645241,1.969577 -0.174495,0.266318 -0.14466,0.466651 0.10323,0.693061 0.378256,0.345488 0.834898,0.471136 1.865249,0.513226 0.982652,0.04012 1.259477,-0.01763 1.254977,-0.261885 -0.0038,-0.189458 -0.171758,-0.378706 -0.567398,-0.638214 -0.194775,-0.127755 -0.442703,-0.366038 -0.550951,-0.529508 -0.37605,-0.567946 -0.892276,-1.642352 -0.846451,-1.761752 0.06975,-0.18168 0.289275,-0.203146 0.604058,-0.05902 0.367493,0.168232 0.599079,0.423443 1.426277,1.571702 1.022476,1.419452 1.551377,1.824902 2.496228,1.913702 0.566049,0.05325 0.730194,0.039 0.988727,-0.08575 z m -6.239855,-4.569756 c -0.0627,-0.07155 -0.321653,-0.540984 -0.575484,-1.043252 -0.498518,-0.986401 -0.50766,-1.130251 -0.07177,-1.130251 0.465398,0 0.975298,0.502883 1.370324,1.351427 0.219675,0.471878 0.231158,0.664628 0.04935,0.829126 -0.180495,0.163342 -0.626663,0.159262 -0.772423,-0.0068 z m 37.467795,4.598481 c 0,-0.176896 -0.321623,-0.455866 -0.525548,-0.455866 -0.27792,0 -0.274973,0.08706 0.0111,0.32778 0.221378,0.186271 0.514456,0.259238 0.514456,0.128086 z M 55.303018,27.35741 c 0.08998,-0.14265 0.01013,-0.250696 -0.213248,-0.288638 -0.175823,-0.02985 -0.243945,0.190358 -0.10914,0.352785 0.10731,0.129308 0.213713,0.108136 0.322388,-0.06413 z m -6.603759,-0.13188 c 0.0267,-0.0432 0.02887,-0.156788 0.0053,-0.252443 -0.04237,-0.168818 -0.0735,-0.17526 -1.065901,-0.220343 -0.562223,-0.0255 -1.352327,-0.0663 -1.755827,-0.09061 -0.598891,-0.03608 -0.727411,-0.02565 -0.699961,0.0567 0.01853,0.0555 0.14538,0.166141 0.281978,0.245911 0.203085,0.118605 0.50001,0.16083 1.628777,0.231593 0.759226,0.04763 1.420276,0.09131 1.468952,0.09713 0.04867,0.006 0.11034,-0.02475 0.137032,-0.06795 z m 4.418031,-0.0681 c 0.22038,-0.139336 -0.04283,-0.212318 -0.853951,-0.236821 -0.826876,-0.02497 -0.983251,0.02903 -0.623273,0.215191 0.207817,0.107505 1.315651,0.123727 1.477201,0.02168 z M 42.301526,26.908054 c 0.112928,-0.08257 0.120638,-0.12573 0.04703,-0.263235 -0.08022,-0.149888 -0.135435,-0.162555 -0.622448,-0.142733 -0.518349,0.02107 -0.535111,0.02775 -0.557476,0.221333 -0.02092,0.181568 0.0023,0.202253 0.260078,0.229005 0.579271,0.06015 0.741061,0.05197 0.872776,-0.0444 z m -7.017234,-0.263468 c 0,-0.0387 -0.102878,-0.15696 -0.228623,-0.26277 -0.189645,-0.15957 -0.30366,-0.192375 -0.668768,-0.192375 -0.336751,0 -0.442763,0.02618 -0.451291,0.111465 -0.006,0.06127 -0.01448,0.151755 -0.01853,0.200993 -0.0038,0.04927 0.07616,0.11049 0.178335,0.136087 0.308153,0.07723 1.188902,0.08211 1.188902,0.0067 z m -7.28326,-0.287955 c -0.0053,-0.231975 -0.424643,-0.464416 -0.838951,-0.464416 -0.419955,0 -0.434318,0.0949 -0.05348,0.352958 0.238005,0.161266 0.895126,0.243338 0.892426,0.111458 z m -4.08578,-0.187808 c 0,-0.222788 -0.231945,-0.425228 -0.487216,-0.425228 -0.31584,0 -0.322433,0.0794 -0.0273,0.327781 0.242588,0.20412 0.514448,0.255622 0.514448,0.09745 z m -3.433126,-0.24672 c 0.03517,-0.24495 -0.150586,-0.33723 -0.628929,-0.312435 -0.406913,0.02107 -0.433538,0.0339 -0.433538,0.208237 0,0.170266 0.03412,0.189473 0.408691,0.230093 0.567413,0.0615 0.62856,0.04972 0.653776,-0.125895 z m 40.9958,-0.884401 0,-0.222923 -1.114652,-0.05618 c -1.129501,-0.05692 -1.300351,-0.04522 -1.300351,0.08906 0,0.170332 0.493223,0.31716 1.254076,0.373328 1.146302,0.08463 1.160927,0.08234 1.160927,-0.183323 z m -7.393585,-0.246976 c 0,-0.07894 -0.04178,-0.176827 -0.09288,-0.217545 -0.05107,-0.04072 -0.535943,-0.09697 -1.077451,-0.12501 -0.942002,-0.04882 -0.984602,-0.04477 -0.984602,0.09298 0,0.300953 0.170663,0.349433 1.318952,0.3747 0.782851,0.01725 0.835951,0.0092 0.835951,-0.125123 z m -6.576008,-0.1635 c 0.0264,-0.04267 -0.0037,-0.155737 -0.06585,-0.251265 -0.104228,-0.159075 -0.178276,-0.17661 -0.879527,-0.208283 -0.421133,-0.01897 -0.795751,-0.0079 -0.832501,0.02453 -0.0384,0.03405 -0.01485,0.13842 0.05565,0.245918 0.113821,0.173708 0.170536,0.188513 0.809851,0.211313 0.378106,0.0135 0.727284,0.03143 0.775951,0.03998 0.04868,0.0085 0.110071,-0.0195 0.136441,-0.06217 z m -6.300309,-0.368265 c 0.03233,-0.188513 -0.09735,-0.309256 -0.371903,-0.346253 -0.331687,-0.0447 -0.392745,0.0513 -0.193612,0.30447 0.171667,0.218236 0.530693,0.244763 0.565515,0.04177 z M 26.068505,23.67273 c 0,-0.0363 -0.0585,-0.133253 -0.130035,-0.215355 -0.105691,-0.121335 -0.258983,-0.158183 -0.818626,-0.196771 -0.605409,-0.04178 -0.694449,-0.03225 -0.736891,0.07832 -0.0315,0.08202 0.01065,0.173483 0.120967,0.262838 0.137618,0.111435 0.299596,0.13704 0.866926,0.13704 0.383731,0 0.697689,-0.02978 0.697689,-0.06607 z m -6.783906,-0.275633 c 0.01478,-0.04492 -0.03278,-0.152318 -0.105653,-0.238703 -0.112042,-0.132832 -0.224182,-0.159405 -0.726938,-0.172252 l -0.594458,-0.01523 -0.02303,0.231277 c -0.0228,0.229598 -0.02017,0.231481 0.371535,0.260363 0.637583,0.04702 1.049776,0.02198 1.078501,-0.06547 z m 40.4318,-0.940126 c 0.02137,-0.186075 0.0015,-0.204615 -0.222923,-0.207405 -0.13554,-0.0015 -0.438706,-0.02153 -0.673704,-0.04418 -0.456158,-0.04387 -0.497768,-0.0091 -0.295575,0.24699 0.12735,0.161303 0.368378,0.217463 0.908626,0.211695 0.227671,-0.0023 0.263011,-0.0282 0.283591,-0.20712 z m -7.34281,-0.122693 c 0,-0.03683 -0.117038,-0.13602 -0.260078,-0.220418 -0.24891,-0.146857 -0.341085,-0.09739 -0.203205,0.109051 0.09868,0.147757 0.463283,0.235402 0.463283,0.111367 z M 39.667072,21.813845 c 0,-0.03698 -0.148072,-0.15402 -0.32904,-0.260078 -0.237143,-0.138967 -0.434303,-0.192825 -0.705923,-0.192825 -0.207286,0 -0.376883,0.0312 -0.376883,0.06922 0,0.13263 0.418598,0.366083 0.709868,0.395903 0.558706,0.05722 0.701978,0.05467 0.701978,-0.01223 z m -6.851258,-0.4605 c 0.02003,-0.172508 -0.0088,-0.199148 -0.260078,-0.240683 -0.417203,-0.06893 -1.582952,-0.05828 -1.582952,0.01448 0,0.12021 0.292763,0.32661 0.535688,0.377663 0.134498,0.02828 0.478613,0.04942 0.764701,0.04695 0.504098,-0.0045 0.520846,-0.01042 0.542663,-0.198413 z m -7.25386,-0.252173 c 0.04665,-0.102345 0.06405,-0.206791 0.03878,-0.232096 -0.02535,-0.02528 -0.506438,-0.06277 -1.069201,-0.08327 -0.992477,-0.03615 -1.019852,-0.03308 -0.913501,0.10206 0.190275,0.24168 0.317242,0.286845 0.927076,0.32982 0.326948,0.02303 0.670411,0.04808 0.763201,0.05573 0.115777,0.0095 0.19542,-0.04462 0.253575,-0.172237 z m -8.010757,-0.170663 c 0.02025,-0.0327 -0.07215,-0.146415 -0.205223,-0.25263 -0.196688,-0.156938 -0.331493,-0.196103 -0.719746,-0.209101 -0.682628,-0.02287 -0.676351,-0.02482 -0.649861,0.205441 0.02332,0.202455 0.0297,0.204727 0.692281,0.246037 0.367823,0.02295 0.708593,0.048 0.757276,0.05573 0.04868,0.0077 0.10506,-0.01275 0.125288,-0.04545 z m 40.358299,-1.055101 0,-0.185768 -1.003126,-0.04778 c -0.551731,-0.02632 -1.655177,-0.0696 -2.452128,-0.09624 -0.796951,-0.02663 -1.883703,-0.07879 -2.415003,-0.115913 -0.531301,-0.03712 -1.584602,-0.08657 -2.340678,-0.10989 -1.299452,-0.04012 -1.929153,-0.06593 -3.67823,-0.150885 -0.408691,-0.01987 -1.177802,-0.0537 -1.709102,-0.07522 -2.370604,-0.09602 -6.074258,-0.26169 -6.650484,-0.297488 -0.347386,-0.0216 -2.203203,-0.104295 -4.124031,-0.18381 -1.920827,-0.07952 -3.84353,-0.162885 -4.27268,-0.185265 -0.748741,-0.03908 -3.90518,-0.173318 -7.83976,-0.333473 -1.021724,-0.04159 -2.2422,-0.09339 -2.712226,-0.115095 -4.961332,-0.229201 -4.518381,-0.229726 -4.577406,0.0055 -0.0261,0.104077 -0.02422,0.21246 0.0038,0.240855 0.02843,0.02843 0.30828,0.05558 0.621961,0.06045 0.313688,0.0053 1.038451,0.03075 1.610627,0.05753 2.592079,0.12126 4.524081,0.202298 7.282132,0.305453 1.634777,0.06113 3.256504,0.127575 3.603904,0.14763 0.347393,0.02003 1.083002,0.05483 1.634777,0.07729 0.551731,0.02243 1.253927,0.05573 1.560452,0.07395 0.306518,0.01823 1.042202,0.05108 1.634778,0.07305 0.592598,0.02197 1.361701,0.05558 1.709102,0.0747 0.855676,0.04703 2.114253,0.101197 3.455329,0.148665 1.725978,0.06113 2.852704,0.11154 3.381005,0.151402 1.164376,0.08786 5.643832,0.291331 8.13676,0.369601 0.694779,0.02182 1.514027,0.05467 1.820553,0.07297 0.306518,0.0183 1.175926,0.0549 1.932002,0.08132 0.756076,0.0264 1.943103,0.07283 2.637904,0.103185 0.694771,0.03037 1.597577,0.0516 2.006327,0.0471 0.740919,-0.008 0.743071,-0.0086 0.743071,-0.193845 z M 42.796227,18.03633 c 0.0045,-0.19413 0.01732,-0.436553 0.02812,-0.538726 0.0108,-0.102172 0.04403,-0.854551 0.0738,-1.671902 0.02978,-0.817351 0.05895,-1.583627 0.0648,-1.702727 0.01425,-0.290078 -0.0666,-0.307065 -1.735653,-0.36501 -0.756075,-0.02625 -2.236577,-0.08756 -3.289954,-0.136231 -1.173151,-0.05421 -1.940402,-0.06186 -1.980152,-0.01974 -0.06495,0.06882 -0.278836,4.390356 -0.220201,4.449006 0.0171,0.01711 0.983552,0.07062 2.147628,0.11892 1.164077,0.0483 2.568003,0.11214 3.119704,0.141863 0.551731,0.0297 1.178702,0.05933 1.393277,0.06578 l 0.390113,0.0117 0.0085,-0.352965 z m -7.405285,-1.449002 c 0.0291,-0.664126 0.08011,-1.608752 0.113303,-2.099177 0.03803,-0.561421 0.03375,-0.908252 -0.01148,-0.936452 -0.03953,-0.0246 -0.596139,-0.0669 -1.236977,-0.09399 -0.640846,-0.02709 -1.639802,-0.07046 -2.219853,-0.09638 l -1.054651,-0.04711 -0.0366,0.178267 c -0.02017,0.09805 -0.0546,0.721636 -0.07652,1.385777 l -0.0399,1.207502 0.685343,0.0079 c 0.376951,0.0044 0.735519,0.01534 0.796801,0.02444 0.06127,0.0091 0.262073,0.02227 0.446153,0.02926 0.302641,0.01149 0.437874,0.09053 1.411877,0.825226 0.592426,0.446873 1.097927,0.814726 1.123352,0.817351 0.02542,0.0027 0.07005,-0.538493 0.09918,-1.202626 z m 7.94176,-3.646204 c 0.0339,-0.319546 0.04583,-0.622238 0.02655,-0.672653 -0.02557,-0.06657 -0.611903,-0.117038 -2.142303,-0.184381 -1.158901,-0.051 -3.193879,-0.14034 -4.52213,-0.198532 -1.328252,-0.05819 -3.213005,-0.141796 -4.188456,-0.185783 -0.975376,-0.04398 -1.782752,-0.06993 -1.794227,-0.05766 -0.01148,0.01227 -0.03262,0.3051 -0.0471,0.650731 l -0.02632,0.628418 0.238823,0.04899 c 0.131355,0.02695 0.933901,0.07172 1.783352,0.0995 0.849526,0.02778 1.761902,0.06598 2.027552,0.08489 0.465076,0.0331 1.707978,0.08588 6.093233,0.258683 1.123877,0.04429 2.076903,0.09323 2.117778,0.108735 0.04087,0.01552 0.14118,0.02188 0.222923,0.01413 0.128775,-0.01221 0.156848,-0.09162 0.21033,-0.595081 z" />
  </g>
</svg>
