<?xml version="1.0" encoding="UTF-8" standalone="no"?>
<!-- Created with Inkscape (http://www.inkscape.org/) -->
<svg id="svg2" xmlns:rdf="http://www.w3.org/1999/02/22-rdf-syntax-ns#" xmlns="http://www.w3.org/2000/svg" height="45" width="67.5" version="1.1" xmlns:cc="http://creativecommons.org/ns#" xmlns:dc="http://purl.org/dc/elements/1.1/">
 <metadata id="metadata7">
  <rdf:RDF>
   <cc:Work rdf:about="">
    <dc:format>image/svg+xml</dc:format>
    <dc:type rdf:resource="http://purl.org/dc/dcmitype/StillImage"/>
    <dc:title/>
   </cc:Work>
  </rdf:RDF>
 </metadata>
 <g id="g5095">
  <g id="g5036">
   <rect id="rect2990" opacity="0" height="45" width="67.5" y="0" x="3.5527e-15"/>
  </g>
  <g id="g4769" transform="translate(-163.09 -94.107)">
   <path id="path4830" d="m221.11 129.88c-2.0782-0.18675-5.8597-0.816-8.592-1.4302-2.625-0.5895-7.7737-1.617-9.0284-1.8015-2.1615-0.31725-5.736-0.4845-10.777-0.504-5.4097-0.0207-5.5488-0.0116-10.942 0.71346-6.1437 0.82589-11.55 0.98647-14.26 0.42351-3.3001-0.68556-5.1804-3.1384-4.1258-5.382 0.33436-0.71133 1.2949-1.7547 1.7476-1.8984 0.23319-0.074 0.2688-0.17687 0.19585-0.56572-0.11715-0.62449 0.14678-1.5703 0.58278-2.0885 0.23985-0.28505 0.98017-0.67787 2.3626-1.2536 1.1073-0.46117 2.1872-0.93262 2.3998-1.0478 0.45062-0.24394 1.1103-0.26966 1.6503-0.0644 0.30204 0.11484 0.52305 0.0769 1.0653-0.18291 0.37627-0.1803 0.67024-0.40187 0.65326-0.49237-0.017-0.0905-0.1074-0.76124-0.20092-1.4905-0.13459-1.0495-0.13202-1.3718 0.0123-1.5457 0.26159-0.3152 0.44847-0.27686 1.1441 0.2347 0.33985 0.24993 0.64208 0.43014 0.67161 0.40047 0.0296-0.0297 0.0968-0.93862 0.14945-2.0199 0.12522-2.5716 0.20957-2.7085 1.6376-2.6586 0.55717 0.0195 1.6606 0.19968 2.4522 0.40046 1.7131 0.43456 1.6637 0.43129 1.6664 0.11023 0.002-0.28097 0.47878-1.8765 0.59502-1.9927 0.0791-0.0791 1.5318 0.39937 3.0346 0.99945 0.51576 0.20593 1.0284 0.37442 1.1392 0.37442 0.11075 0 1.0554-0.88432 2.0991-1.9651 1.0438-1.0808 1.9477-1.9342 2.0089-1.8965 0.0611 0.0378 0.62541 0.83129 1.2541 1.7633 0.62862 0.9321 1.2287 1.7276 1.3336 1.7678 0.10485 0.0402 0.46145-0.1147 0.79245-0.34429 0.99757-0.69192 2.3251-1.5096 2.4508-1.5096 0.065 0 0.56627 0.55372 1.114 1.2305 1.1051 1.3655 1.0586 1.3555 2.088 0.45044 0.46355-0.40758 1.834-1.3897 1.9391-1.3897 0.0439 0 0.48191 0.55701 0.97335 1.2378 0.49147 0.6808 0.93194 1.2378 0.97882 1.2378 0.089 0 1.0552-0.44136 2.6617-1.216 0.52061-0.251 0.9948-0.45691 1.0538-0.45756 0.059-0.00068 0.33493 0.47391 0.61322 1.0546 0.27828 0.58067 0.59044 1.0553 0.69369 1.0548 0.10324-0.00053 0.3843-0.13583 0.62458-0.30067 0.36614-0.25118 2.3727-1.3003 2.487-1.3003 0.0198 0 0.32025 0.49068 0.66765 1.0904s0.72196 1.0912 0.83234 1.0922c0.11039 0.00075 0.55404-0.20037 0.98587-0.44746l0.78517-0.44924 0.30773 0.74049c0.16925 0.40727 0.36619 0.74048 0.43765 0.74048 0.0715 0 0.82589-0.36174 1.6766-0.80384 0.85065-0.44214 1.5841-0.76642 1.6299-0.7207 0.0457 0.0457 0.0627 0.87562 0.0377 1.8441-0.0368 1.4275-0.008 1.7472 0.15033 1.6882 0.10769-0.04 0.77467-0.22457 1.4822-0.41021 1.0482-0.27504 1.3086-0.30159 1.4064-0.14343 0.066 0.10676 0.0991 0.26558 0.0736 0.35294-0.0255 0.0874-0.12671 0.95369-0.22488 1.9252l-0.17849 1.7665-0.50779 0.24215c-0.27928 0.13318-0.53547 0.21446-0.5693 0.18063-0.0557-0.0557 0.0671-1.1881 0.33038-3.0455 0.11167-0.78794 0.0404-0.82657-0.9081-0.4919-0.98279 0.34674-1.8206 0.43921-1.9617 0.2165-0.0689-0.10883-0.12638-0.83677-0.1276-1.6177-0.001-0.7809-0.0428-1.4198-0.0924-1.4198s-0.45916 0.21661-0.91012 0.48135c-1.636 0.96037-1.6071 0.95369-2.0015 0.46211-0.19144-0.23858-0.38513-0.54846-0.43042-0.68862-0.10872-0.33645-0.23955-0.32286-1.0512 0.10922-0.85725 0.45636-0.9318 0.45417-1.235-0.0364-0.13617-0.22026-0.50067-0.68983-0.80999-1.0435l-0.56242-0.64302-0.85964 0.51704c-0.47282 0.28437-1.1369 0.65634-1.4758 0.82657l-0.61611 0.30954-0.3455-0.54762c-0.19002-0.30119-0.48335-0.81802-0.65184-1.1485l-0.30634-0.60083-1.6867 0.85567c-0.92775 0.47062-1.8073 0.85567-1.9547 0.85567-0.25014 0-1.1866-1.0902-1.5949-1.8567-0.23259-0.43665-0.37089-0.41565-1.0863 0.16494-0.33385 0.27093-0.96074 0.70845-1.393 0.97229l-0.78599 0.47969-0.37898-0.43142c-0.20843-0.23729-0.71042-0.81525-1.1155-1.2844l-0.73656-0.85297-1.4467 0.96742c-0.79567 0.53208-1.5379 0.96742-1.6493 0.96742-0.33257 0-0.68653-0.45543-2.4509-3.1535-0.16409-0.25091-0.20595-0.23497-0.63307 0.24101-0.94762 1.0561-2.8309 2.9529-3.1196 3.142-0.26338 0.17258-0.46891 0.13367-1.6808-0.31818-1.9381-0.72256-2.3173-0.84366-2.3961-0.76491-0.0379 0.038-0.17084 0.5531-0.2953 1.1448-0.12446 0.59167-0.24395 1.0934-0.26553 1.115-0.0215 0.0216-0.98639-0.14847-2.144-0.37787-1.1576-0.22941-2.3749-0.45578-2.7051-0.50306l-0.60031-0.086-0.0821 0.69047c-0.0452 0.37975-0.0897 1.3786-0.099 2.2195-0.009 0.84097-0.0691 1.5814-0.13292 1.6454-0.0638 0.064-0.49119-0.0895-0.94972-0.34117-0.45852-0.25164-0.87112-0.42009-0.91687-0.37434-0.0457 0.0457 0.002 0.58067 0.10591 1.1887 0.1825 1.0669 0.20159 1.1024 0.54624 1.0159 0.53372-0.13396 1.0544 0.26621 1.0544 0.8103 0 0.2437-0.069 0.57195-0.15326 0.72945-0.13664 0.25531-0.11518 0.27681 0.19795 0.19822 0.53301-0.13378 1.17 0.47208 1.1523 1.096-0.0179 0.6261-0.1609 0.745-1.5878 1.3194-0.88102 0.35464-1.2124 0.56189-1.2709 0.79477-0.0435 0.17328-0.33913 0.61049-0.65698 0.97162-0.50695 0.57592-0.84682 0.76664-2.7684 1.5533-1.2048 0.49324-2.3572 0.89677-2.561 0.89677-0.49297 0-1.3696-0.37583-1.7834-0.76462l-0.33407-0.31384-0.516 0.51599c-0.99667 0.99667-0.75862 2.1631 0.61992 3.0373 1.3285 0.84254 1.9317 0.93764 5.9484 0.93839 3.6263 0.00059 5.8788-0.1816 10.703-0.86587 4.5709-0.64833 5.2912-0.70482 10.042-0.78764l4.8725-0.085-1.0135-0.79169c-0.55741-0.43545-1.0955-0.85312-1.1958-0.9282-0.12844-0.0962-0.34694 0.0436-0.73936 0.47289-0.6062 0.66316-0.64548 0.65441-1.1026-0.24559-0.13221-0.2603-0.30416-0.47327-0.3821-0.47327-0.0779 0-0.41182 0.26212-0.74194 0.58249-0.33012 0.32038-0.67648 0.5825-0.76972 0.5825-0.0932 0-0.29135-0.21297-0.44032-0.47327-0.14896-0.2603-0.40254-0.61932-0.56352-0.79777l-0.2927-0.32453-0.66926 0.35231c-0.36811 0.19378-1.1392 0.58378-1.7136 0.8667l-1.0443 0.51435-0.74478-1.1611c-0.40962-0.63858-0.77332-1.1611-0.80827-1.1611-0.093 0-1.4021 0.59445-3.0045 1.3643-1.5652 0.75209-1.7006 0.78329-1.8202 0.41956-0.13869-0.42196-0.83429-2.2897-0.87382-2.3464-0.0203-0.029-0.53893 0.0589-1.1526 0.19545-0.61368 0.13653-1.1707 0.19305-1.2377 0.1256-0.067-0.0674-0.1419-0.5107-0.16632-0.98497l-0.0444-0.86235-0.8253-0.0114c-0.76589-0.0106-1.1448-0.12864-0.97094-0.30251 0.04-0.04 0.66394-0.11463 1.3866-0.16593l1.3139-0.0933 0.10115 0.89407c0.0556 0.49173 0.15317 0.89407 0.21675 0.89407 0.0636 0 0.49653-0.13106 0.96209-0.29124 1.4268-0.4909 1.4479-0.47962 1.7905 0.95924 0.16381 0.68777 0.33081 1.2835 0.37112 1.3237 0.0403 0.0403 0.58615-0.19118 1.213-0.51442 1.7624-0.90884 3.4156-1.6286 3.55-1.5456 0.0669 0.0413 0.39207 0.56509 0.72261 1.1638 0.33054 0.59878 0.66796 1.0887 0.74982 1.0887 0.0819 0 0.90915-0.39183 1.8384-0.87075 1.5666-0.80737 1.7083-0.85379 1.947-0.63769 0.14161 0.12815 0.33056 0.45445 0.41988 0.72509 0.0893 0.27064 0.20647 0.49154 0.26032 0.49089 0.0539-0.00058 0.39283-0.29257 0.75322-0.6487 0.36042-0.35612 0.70312-0.65047 0.76155-0.65411 0.0584-0.004 0.23772 0.25106 0.39839 0.566 0.16066 0.31494 0.36256 0.61616 0.44865 0.66936 0.0861 0.0533 0.37007-0.15028 0.63106-0.4522l0.47452-0.54895 1.1038 0.81637c0.60713 0.449 1.1471 0.88627 1.1999 0.97177 0.19869 0.3215 0.57356 0.1262 1.6573-0.86347 0.61363-0.56038 1.1921-1.0191 1.2856-1.0194 0.0934-0.00029 0.62274 0.49098 1.1763 1.0917 0.55351 0.6007 1.0687 1.0922 1.1448 1.0922s0.48448-0.39318 0.9075-0.87374c0.42301-0.48056 0.81472-0.87375 0.87044-0.87375 0.0557 0 0.33037 0.29241 0.61032 0.6498 0.27996 0.35739 0.55191 0.65228 0.60433 0.65531 0.0524 0.003 0.29873-0.35491 0.54733-0.79545 0.24862-0.44052 0.52773-0.80092 0.62027-0.80092 0.0925 0 0.81352 0.36042 1.6021 0.80092 0.78869 0.44052 1.49 0.80092 1.5585 0.80092 0.0686 0 0.26714-0.391 0.44139-0.86887 0.17425-0.47789 0.37831-0.90689 0.45349-0.95339 0.0752-0.0464 0.41648 0.11713 0.75847 0.36353 0.34199 0.24639 0.98174 0.70916 1.4218 1.0284l0.79995 0.58039 0.29223-0.86572c0.16072-0.47615 0.33554-0.90817 0.38849-0.96007 0.053-0.0519 0.43711 0.14009 0.85365 0.42664 0.41658 0.28655 0.83797 0.52101 0.93644 0.52101 0.0985 0 0.25758-0.26213 0.35357-0.5825 0.096-0.32038 0.2217-0.5825 0.27938-0.5825 0.0577 0 0.28862 0.17039 0.51321 0.37864 0.35824 0.33217 0.38334 0.40813 0.20453 0.6189-0.11211 0.13215-0.28811 0.45324-0.3911 0.71354-0.103 0.2603-0.26124 0.47309-0.35164 0.47285-0.0904-0.00029-0.58966-0.25652-1.1095-0.56949-0.51981-0.31297-0.98654-0.54346-1.0372-0.51217-0.0506 0.0313-0.21133 0.5169-0.35717 1.0792-0.14583 0.56226-0.33493 1.0223-0.42022 1.0223-0.0853 0-0.79575-0.42842-1.5788-0.95204-0.78307-0.52364-1.4807-0.91679-1.5504-0.87375-0.0697 0.043-0.27609 0.43874-0.45868 0.87922-0.20584 0.49664-0.41862 0.79882-0.56001 0.79545-0.12543-0.003-0.88335-0.39485-1.6843-0.87067-1.6518-0.98129-1.5345-1.0027-2.2049 0.40294-0.20056 0.4205-0.40383 0.76455-0.45173 0.76455s-0.40244-0.34404-0.78787-0.76455l-0.7008-0.76454-0.86805 0.94657-0.86804 0.94657-1.1412-1.2014c-0.62764-0.66077-1.2047-1.2013-1.2823-1.2012-0.0777 0.00011-0.63266 0.45032-1.2334 1.0005l-1.0921 1.0003 1.2378 0.0987c2.6911 0.21466 5.3404 0.68104 10.896 1.9181 3.1306 0.69707 4.3006 0.94184 7.234 1.5135 1.0653 0.20761 4.3296 0.56759 5.7095 0.62965 1.6621 0.0748 2.6993-0.0962 3.7642-0.62047 1.6678-0.82102 2.0215-2.317 0.80767-3.4156-0.2768-0.2505-0.33059-0.25565-0.56099-0.0536-0.96607 0.84705-2.0656 0.87532-3.4157 0.0877-0.4567-0.26643-1.3696-0.77932-2.0287-1.1398-1.6427-0.89834-1.8198-1.0615-2.0262-1.8669-0.17797-0.69441-0.19452-0.70945-1.5425-1.4014-1.3243-0.67971-1.3626-0.71364-1.3626-1.2055 0-0.37849 0.1141-0.61277 0.45228-0.92865 0.24875-0.23237 0.51868-0.42249 0.59986-0.42249 0.0812 0 0.52514 0.22936 0.98661 0.50969 0.46147 0.28032 0.9288 0.50794 1.0384 0.5058 0.10966-0.002-0.17612-0.20762-0.63506-0.45663-0.69109-0.37497-0.84975-0.53429-0.92347-0.92737-0.049-0.26103-0.0192-0.60502 0.0661-0.7644 0.29515-0.55149 0.77153-0.50912 2.0886 0.18577 0.67878 0.35813 1.2659 0.6194 1.3047 0.5806s0.33388-0.0809 0.65573-0.0935c0.47996-0.0188 0.98834 0.19465 2.8274 1.1872 2.4778 1.3372 2.8423 1.6034 3.1348 2.2899 0.23758 0.55759 0.26458 1.7313 0.043 1.8682-0.092 0.0568 0.0557 0.24122 0.3577 0.4464 0.68351 0.46446 1.357 1.4681 1.5435 2.3001 0.45009 2.0084-0.79005 3.7576-3.2049 4.5205-1.0666 0.33694-1.3816 0.36918-3.3892 0.34697-1.2173-0.0134-2.4754-0.048-2.7958-0.0768zm5.1577-0.50226c2.3898-0.41557 3.7866-1.7051 3.795-3.5035 0.006-1.2568-0.56551-2.1085-2.1235-3.1656-1.152-0.78157-1.3794-0.85582-1.6443-0.5367-0.25037 0.30167-0.0767 0.56883 0.60572 0.93164 0.33922 0.18034 0.91972 0.58731 1.2901 0.90434 1.1896 1.0185 1.2619 2.448 0.18036 3.5617-1.8636 1.9189-6.1508 1.8082-16.363-0.42245-9.2542-2.0213-11.165-2.2433-18.859-2.1904-3.0436 0.0209-5.6648 0.0717-5.825 0.11277-0.16019 0.0411-0.7827 0.1182-1.3834 0.17137-0.60071 0.0532-1.5509 0.15947-2.1115 0.23623-7.1656 0.98115-12.787 1.2714-15.426 0.79642-2.0122-0.36231-3.2284-1.0588-3.664-2.0986-0.41149-0.98227-0.17489-2.008 0.60451-2.6212 0.20854-0.16404 0.34374-0.35559 0.30044-0.42567-0.0433-0.07 0.39353-0.29307 0.97079-0.49555 0.90405-0.31713 1.0495-0.41604 1.0495-0.71378 0-0.52149-0.42685-0.51378-1.5033 0.0272-2.6209 1.317-3.3604 3.5639-1.7484 5.3126 1.4038 1.5229 3.8136 2.0503 8.7127 1.9069 2.4746-0.0724 7.2372-0.52124 10.194-0.96052 0.5206-0.0774 1.3375-0.18322 1.8152-0.23525 0.47776-0.052 0.99142-0.11826 1.1414-0.14716 1.5904-0.30628 10.592-0.3459 13.885-0.0611 3.1358 0.27122 6.2743 0.81667 11.264 1.9576 6.8439 1.5649 12.041 2.1457 14.842 1.6588zm0.22543-5.1756c0.28305-0.13498 0.51462-0.29127 0.51462-0.34732 0-0.15286-0.68622-0.57228-0.93629-0.57228-0.55497 0-0.58048-1.116-0.0392-1.7111 0.34302-0.37707 1.121-0.45547 1.121-0.11296 0 0.18083 0.6816 0.65905 0.93929 0.65905 0.13468 0 0.0889-1.1227-0.0619-1.5195-0.0781-0.20541-0.35661-0.50816-0.6189-0.67277-1.4479-0.90869-3.4622 0.68967-3.4622 2.7474 0 0.69817 0.0545 0.83917 0.49513 1.2798 0.57341 0.57341 1.2075 0.65071 2.0484 0.24972zm-3.0862-1.3558c-0.1736-1.2943 0.80535-2.9568 2.0531-3.4867l0.58043-0.24651-1.5501-0.82777c-0.85252-0.45527-1.7194-0.82777-1.9264-0.82777-1.1353 0-2.4067 1.5351-2.3968 2.8938 0.008 1.0653 0.4002 1.5965 1.747 2.3644 0.67897 0.38714 1.3102 0.70578 1.4026 0.70808 0.11244 0.003 0.14231-0.18866 0.0901-0.57771zm-54.518-0.95774c1.1094-0.44389 1.3826-1.9964 0.59354-3.3724-0.67422-1.1756-1.7935-1.6324-2.7667-1.1291-0.61166 0.3163-1.1452 1.5204-0.87067 1.9647 0.12768 0.2066 0.63368-0.0112 1.0613-0.45687 0.34086-0.35524 0.48243-0.34273 0.90517 0.08 0.75134 0.75135 0.61435 1.726-0.26582 1.8911-0.64694 0.12136-0.91597 0.41475-0.6118 0.66718 0.16566 0.13748 1.0692 0.52563 1.3472 0.57874 0.0184 0.004 0.29186-0.097 0.60768-0.22336zm2.6692-1.0613c0.69161-0.32338 1.421-0.79162 1.7137-1.1002 0.48549-0.51177 0.50969-0.58704 0.50969-1.585 0-0.89917-0.0574-1.1359-0.40483-1.6706-0.25618-0.39419-0.64221-0.73825-1.0513-0.93697l-0.64648-0.31409-1.3515 0.5519c-0.74332 0.30353-1.5113 0.6352-1.7066 0.73702l-0.35512 0.18513 0.45804 0.23686c1.303 0.6738 2.0956 2.8132 1.5574 4.2042-0.13308 0.34399-0.10137 0.33634 1.2769-0.30814zm48.168-1.0269c0-0.18358-0.26189-0.43079-0.76455-0.72169l-0.76454-0.44245-0.0838 0.32122c-0.0705 0.27028 0.0334 0.38363 0.65531 0.71481 0.89287 0.47548 0.9576 0.48414 0.9576 0.12811zm-1.9407-1.3521c-0.23801-0.1471-0.44626 0.10775-0.33179 0.40604 0.089 0.23204 0.11111 0.23013 0.29817-0.0257 0.14916-0.20399 0.15795-0.3035 0.0336-0.38035zm-42.42-0.55c0.46963-0.20773 0.67382-0.38426 0.67382-0.5825 0-0.35902-0.14248-0.35653-1.0123 0.0177-0.55931 0.24061-0.68732 0.35917-0.62891 0.5825 0.0914 0.34944 0.13949 0.34856 0.96742-0.0177zm45.381-0.0542c0-0.11361-0.23602-0.35243-0.5245-0.53072-0.4308-0.26625-0.54678-0.2881-0.64925-0.12231-0.14566 0.23569-0.0727 0.32447 0.51844 0.63116 0.54095 0.28063 0.6553 0.28445 0.6553 0.0219zm-44.184-1.0672c-0.15908-0.15909-0.26816 0.0939-0.15395 0.35704 0.10829 0.24951 0.11614 0.24928 0.17649-0.005 0.0347-0.14643 0.0246-0.3048-0.0225-0.35193zm42.582 0.18129c0-0.12014-0.0656-0.21843-0.14563-0.21843-0.0801 0-0.14562 0.0983-0.14562 0.21843 0 0.12014 0.0656 0.21844 0.14562 0.21844 0.0801 0 0.14563-0.0983 0.14563-0.21844zm-44.124-0.65549c0.66817-0.36581 0.49137-0.36762-0.31175-0.003-0.34914 0.15842-0.53651 0.28674-0.41636 0.28514 0.12014-0.001 0.44779-0.12847 0.72811-0.28194zm-0.67274-0.366c0.29011-0.12122 0.52748-0.31781 0.52748-0.43687 0-0.28291-0.30645-0.27397-0.9384 0.0274-0.39785 0.18972-0.4758 0.2867-0.35118 0.43687 0.19525 0.23525 0.12772 0.23768 0.76207-0.0274zm1.11-0.79897c0-0.0801-0.0694-0.14563-0.15421-0.14563-0.0848 0-0.11373 0.0656-0.0642 0.14563 0.0495 0.0801 0.11889 0.14562 0.15421 0.14562 0.0353 0 0.0642-0.0656 0.0642-0.14562zm39.707 3.3979c-0.0534-0.0534-0.0971-0.60655-0.0971-1.2292 0-0.62266-0.0539-1.1655-0.11983-1.2062-0.0659-0.0407-0.53056 0.41431-1.0326 1.0112-1.3048 1.5514-1.466 1.3061-0.32421-0.4935 0.18576-0.29278 0.18699-0.35811 0.009-0.46963-0.17124-0.10722-0.13159-0.27247 0.22995-0.95835 0.57793-1.0963 0.56942-1.06 0.22675-0.97034-0.56971 0.14898-0.3042-0.31024 0.90045-1.5575 1.058-1.0954 1.2014-1.1992 1.2468-0.90172 0.0282 0.18485-0.0487 0.4886-0.17085 0.67503-0.2412 0.36812-0.18221 0.54358 0.14105 0.41953 0.27957-0.10728 0.25657 0.1787-0.0871 1.0829-0.30374 0.79912-0.37938 1.565-0.16749 1.696 0.19774 0.12222 0.73496-0.59296 0.66508-0.88536-0.0473-0.19799 0.23665-0.48213 1.1099-1.1107 1.5326-1.1031 1.5963-1.1242 1.5963-0.52855 0 0.40275-0.15528 0.62333-0.98295 1.3963-0.54063 0.50492-0.90104 0.91927-0.80092 0.9207 0.33601 0.005 0.18715 0.29059-0.72812 1.3975-0.50059 0.60535-1.0084 1.2599-1.1286 1.4545-0.22794 0.3693-0.32304 0.41972-0.48541 0.25734zm-35.193-1.17c0-0.53233-0.0388-0.6456-0.17475-0.50968-0.41614 0.41615-0.55336 0.19202-0.55336-0.90382 0-1.0125-0.0181-1.0738-0.29591-1.0012-0.28896 0.0756-0.29541 0.0227-0.27519-2.2518 0.0206-2.3196 0.12875-2.9614 0.42324-2.5129 0.0789 0.12014 0.1444 0.32925 0.14563 0.46468 0.004 0.44347 0.31335 0.45312 1.1842 0.0369l0.85747-0.40984 0.43654 0.41823c0.2401 0.23003 0.43655 0.49077 0.43655 0.57942 0 0.0887-0.55702 0.34257-1.2378 0.56428-0.7926 0.25811-1.2378 0.47843-1.2378 0.61251 0 0.30589 0.29459 0.25616 0.70057-0.11825l0.35527-0.32766-0.10401 0.85725-0.10401 0.85724 0.48625-0.29576c0.95586-0.58142 1.6271-0.8961 1.7498-0.82027 0.17884 0.11053-0.0353 0.41354-1.2343 1.747-0.33482 0.37234-0.58667 0.82132-0.63795 1.1373-0.0466 0.28713-0.0598 0.52134-0.0293 0.52048 0.0305-0.00075 0.37715-0.0992 0.77032-0.21844 0.86729-0.2631 1.5893-0.28509 1.5096-0.046-0.0313 0.094-0.63728 0.5057-1.3465 0.91492-0.70928 0.40922-1.3544 0.88934-1.4337 1.0669-0.23225 0.52048-0.39082 0.37378-0.39082-0.36156zm31.456-0.44415c0.0278-1.3146 0.0373-1.2814-0.28343-0.99119-0.219 0.19818-0.41466 0.23295-0.87412 0.15533-0.57582-0.0973-0.61297-0.0778-1.3616 0.71378-0.7409 0.78352-1.1228 1.0024-1.1228 0.64365 0-0.0936 0.32765-0.61922 0.72811-1.1681 0.79507-1.0897 0.83362-1.1687 0.50969-1.0444-0.46775 0.17949-0.19044-0.39845 0.54609-1.1381 0.59892-0.60147 0.70933-0.7788 0.50969-0.81855-0.14017-0.0279-0.25484-0.0957-0.25484-0.15068 0-0.055 0.11467-0.17269 0.25484-0.26164 0.14016-0.0889 0.90442-0.69692 1.6984-1.351 0.97514-0.8034 1.4914-1.1414 1.5911-1.0418 0.0997 0.0997 0.0597 0.24467-0.12318 0.44678-0.23012 0.25427-0.27223 0.55528-0.28052 2.0052-0.008 1.4144-0.0471 1.7062-0.22821 1.7074-0.18056 0.002-0.20939 0.2085-0.16626 1.1958 0.0521 1.1941 0.0521 1.1945-0.43292 1.6375-0.26681 0.24369-0.54042 0.44307-0.60804 0.44307-0.0677 0-0.11357-0.44233-0.10212-0.98295zm-0.0592-2.1457c0.39996-0.16711 0.50501-0.28698 0.4686-0.53468-0.072-0.48986-0.29225-0.44177-0.82837 0.18083-0.52802 0.61322-0.44842 0.69152 0.35975 0.35385zm-6.214 2.0676c-0.28571-0.17771-0.79657-0.54398-1.1353-0.8139-0.58769-0.4684-0.60451-0.50332-0.36812-0.76454 0.14576-0.16107 0.17849-0.27371 0.0795-0.27371-0.26631 0-0.19795-0.27167 0.19948-0.79275l0.36767-0.48203-0.32819-0.0858c-0.32376-0.0847-0.32184-0.0924 0.14202-0.57094 0.52125-0.5378 0.5767-0.68971 0.25176-0.68971-0.12014 0-0.21843-0.078-0.21843-0.17343 0-0.21297 2.3383-2.4388 2.5675-2.4441 0.17317-0.004 0.92744 0.90704 0.92744 1.1201 0 0.0682-0.21297 0.24904-0.47327 0.40194-0.26031 0.1529-0.7926 0.50664-1.183 0.78607-0.65043 0.46567-0.68385 0.51762-0.40047 0.62245 0.36599 0.13539 0.39238 0.31032 0.0853 0.56521-0.12317 0.10222-0.43195 0.44849-0.68619 0.76949l-0.46225 0.58364 0.37685-0.0946c0.3678-0.0923 0.37526-0.0798 0.31039 0.52255-0.0509 0.47297 0.0213 0.78052 0.30933 1.3166 0.52822 0.98309 0.49409 1.03-0.3621 0.49743zm-21.079-0.14175c0.0372-0.26752-0.0154-0.31916-0.28633-0.28137-0.32843 0.0458-0.33087 0.0341-0.2346-1.1203 0.0961-1.1518 0.0932-1.1655-0.22406-1.0825-0.3176 0.0831-0.32027 0.0698-0.22974-1.1369 0.26709-3.5608 0.61742-4.5933 0.86294-2.5431 0.0887 0.74061 0.22187 1.0201 0.33506 0.70322 0.0358-0.10012 0.15785-0.18203 0.27132-0.18203 0.23449 0 0.28528 0.81472 0.0718 1.152-0.0799 0.12626-0.067 0.30638 0.0336 0.46744 0.15105 0.24189 0.18362 0.24396 0.4235 0.0268 0.24379-0.22062 0.25953-0.209 0.25451 0.18787-0.003 0.23267-0.0925 0.87352-0.19903 1.4242l-0.19368 1.0012 0.98782-0.0707c0.54331-0.0388 1.0647-0.0232 1.1586 0.0349 0.16048 0.0992-0.68721 0.6319-2.2886 1.4383-0.76364 0.38453-0.79904 0.38363-0.74308-0.0189zm13.282 0.0957c0.049-0.12758 0.13037-0.39676 0.18092-0.59817 0.0847-0.33724 0.0673-0.35304-0.21905-0.19978-0.39852 0.21328-0.39123 0.0826 0.0512-0.91792 0.35065-0.7929 0.35297-0.81907 0.0728-0.81907-0.36085 0-0.36066-0.10089 0.002-0.94657 0.34882-0.81375 0.35903-0.94657 0.0728-0.94657-0.28243 0-0.27685-0.0681 0.0837-1.0214 0.41835-1.1061 0.57711-1.6428 0.50675-1.7132-0.0329-0.0329-0.58882 0.18774-1.2353 0.49037-1.1662 0.54592-1.4855 0.92909-0.9465 1.1359 0.18762 0.072 0.2109 0.23265 0.12885 0.88934-0.0704 0.56377-0.0506 0.80145 0.0668 0.80145 0.39673 0 0.27432 0.49039-0.43286 1.7342-0.4155 0.73078-0.8226 1.3702-0.90472 1.4209-0.14791 0.0914-0.0863-0.69553 0.12436-1.5897 0.0798-0.33839 0.0476-0.40046-0.20739-0.40046-0.29076 0-0.29404-0.0219-0.0898-0.60081 0.27513-0.77977 0.26847-0.84292-0.0793-0.75202-0.19304 0.0505-0.29125 0.004-0.29125-0.13646 0-0.11694 0.13107-0.59356 0.29125-1.0592 0.16019-0.46559 0.29125-0.87629 0.29125-0.91274 0-0.0365-0.22936-0.0232-0.50969 0.0294-0.531 0.0996-0.63737-0.013-0.32765-0.34676 0.14956-0.16119 0.13007-0.17756-0.10922-0.0917-0.56726 0.20342-1.0921 0.26422-1.0921 0.12651 0-0.0768 0.21297-0.37627 0.47327-0.66557 0.36984-0.41104 0.67476-0.57548 1.3952-0.7524 1.1751-0.28854 1.228-0.28546 1.1168 0.065-0.0834 0.26286-0.0549 0.27711 0.29123 0.14551 0.32858-0.12493 0.69843-0.11379 2.2573 0.068 0.12014 0.014 0.32738 0.23898 0.46053 0.49992s0.27043 0.50276 0.30506 0.5374c0.0347 0.0346 0.35164-0.16651 0.70446-0.44698 0.35283-0.28047 0.718-0.51058 0.8115-0.51136 0.0935-0.00075 0.27986 0.28628 0.41415 0.63791 0.19254 0.50417 0.20877 0.70544 0.0768 0.95205-0.0921 0.172-0.13098 0.44132-0.0865 0.59848 0.0445 0.15716 0.11807 0.41681 0.16351 0.57699 0.0583 0.20531 0.0131 0.29125-0.15305 0.29125-0.22142 0-1.238 0.97657-1.2395 1.1907-0.00044 0.0542 0.11085 0.12002 0.2472 0.14628 0.21704 0.0418 0.24287 0.22893 0.20741 1.5033-0.0223 0.80054-0.0963 1.5131-0.16458 1.5834-0.0693 0.0714-0.29711-0.42712-0.51582-1.1286-0.21545-0.69103-0.44225-1.2564-0.504-1.2564-0.0617 0-0.39255 0.58978-0.73511 1.3106-0.35927 0.75599-0.71165 1.3106-0.83272 1.3106-0.13216 0-0.17691-0.0859-0.12086-0.23197zm2.8172-5.229c-0.0677-0.5576-1.2732-0.40718-1.2732 0.15889 0 0.12224 0.0903 0.16137 0.23996 0.10395 0.24891-0.0955 0.24772-0.042-0.0216 0.97499-0.0803 0.30314 0.003 0.2544 0.4969-0.29124 0.34893-0.38539 0.57875-0.77527 0.55794-0.94657zm6.1563 5.2061c0.001-0.0601 0.19805-0.46372 0.43688-0.897 0.4937-0.89572 0.5223-1.0325 0.2158-1.0325-0.24813 0-0.29654-0.37141-0.0669-0.51333 0.0833-0.0515 0.31897-0.3589 0.52363-0.6831 0.27726-0.43921 0.32626-0.61777 0.19226-0.70059-0.12578-0.0777 0.16256-0.53157 0.95932-1.5099 0.62653-0.76927 1.1926-1.3987 1.258-1.3987 0.18018 0 0.14324 0.34314-0.0995 0.92407-0.30057 0.71937-0.28122 0.78217 0.21844 0.70883 0.24028-0.0353 0.43687-0.0134 0.43687 0.0485s-0.36686 0.49721-0.81524 0.96727c-0.67253 0.70508-0.7842 0.89212-0.63791 1.0684 0.14483 0.1745 0.0874 0.31584-0.31332 0.77054-0.26988 0.30625-0.81832 0.96135-1.2188 1.4557-0.64127 0.7917-1.0975 1.1233-1.0895 0.79177zm-18.784-0.3645c0.002-0.10012 0.0605-0.42777 0.13029-0.72813 0.1099-0.47328 0.0924-0.54609-0.13121-0.54609-0.21915 0-0.24705-0.0974-0.18518-0.64637 0.0688-0.60989 0.0547-0.64161-0.24935-0.56211-0.3127 0.0818-0.31918 0.0601-0.21958-0.73706 0.0876-0.70138 0.0682-0.82132-0.1326-0.82132-0.12938 0-0.23522-0.10656-0.23522-0.2368 0-0.48756 0.47341-3.0447 0.58609-3.1657 0.0645-0.0693 0.2228 0.0782 0.35182 0.32766 0.12901 0.24949 0.25435 0.45361 0.27853 0.45361 0.0242 0 0.45584-0.16736 0.95925-0.37191 0.5034-0.20455 0.94799-0.33919 0.98797-0.29921 0.04 0.04-0.0166 0.35479-0.12565 0.69956-0.16327 0.51602-0.30481 0.67501-0.8004 0.8991-0.53461 0.24175-0.61106 0.33933-0.68236 0.87097-0.0442 0.32929-0.062 0.61698-0.0397 0.63933 0.0223 0.0223 0.3801-0.10047 0.795-0.2729 0.41492-0.17243 0.78989-0.27807 0.83317-0.23474 0.19667 0.19667-0.13154 1.1032-0.46376 1.2811-0.22552 0.12069-0.40749 0.40229-0.50548 0.78224-0.0842 0.32652-0.18946 0.71803-0.23389 0.87007-0.0719 0.24587-0.0267 0.26471 0.40913 0.17076 0.26946-0.058 0.7444-0.1431 1.0554-0.18893 0.88147-0.12987 0.60844 0.2312-0.68566 0.90682-0.61367 0.32038-1.1533 0.69717-1.1993 0.83737-0.0951 0.29005-0.50261 0.34971-0.49732 0.0728zm13.54-0.15645c0-0.11403 0.17595-0.52214 0.391-0.90689 0.30837-0.55173 0.33914-0.6787 0.14563-0.60085-0.13496 0.0543-0.34368 0.1385-0.46381 0.18713-0.35278 0.14275-0.25591-0.1395 0.35864-1.045 0.3174-0.46765 0.55237-0.87502 0.52216-0.90517-0.0302-0.0302-0.1916 0.0182-0.35865 0.10762-0.25004 0.13382-0.30371 0.12067-0.30371-0.0745 0-0.13035 0.13106-0.40362 0.29124-0.60726 0.34745-0.4417 0.36857-0.62223 0.0728-0.62223-0.29129 0-0.27803-0.35182 0.0226-0.60108 0.1326-0.10993 0.59411-0.64219 1.0255-1.1828 0.73692-0.92339 1.2061-1.2738 1.0054-0.75097-0.25294 0.65916-0.26196 0.933-0.0307 0.933 0.29549 0 0.29331 0.0657-0.0179 0.54059-0.24807 0.37858-0.24691 0.38336 0.0727 0.29979 0.43-0.11244 0.54964 0.11528 0.26954 0.51304-0.12442 0.17669-0.42495 0.60209-0.66786 0.9453-0.2429 0.34323-0.44165 0.64686-0.44165 0.67473 0 0.0279 0.13107 0.0849 0.29126 0.12683 0.16018 0.0418 0.29022 0.13145 0.28897 0.19902-0.003 0.17783-2.0182 2.7222-2.2651 2.8605-0.1376 0.077-0.20821 0.0462-0.20821-0.0908zm-9.8039-1.131c-0.59137-0.39171-0.66756-0.49862-0.58622-0.82267 0.0657-0.26177 0.0436-0.34161-0.0744-0.26868-0.28223 0.17443-0.34607-0.2991-0.10356-0.76807 0.31541-0.60994 0.29309-0.78847-0.0836-0.66892-0.32396 0.10281-0.33295-0.0171-0.0524-0.69849 0.0743-0.18051 0.0367-0.25484-0.1291-0.25484-0.34186 0-0.29044-0.47913 0.14512-1.3519 0.40205-0.80564 1.3085-1.8519 1.6045-1.8519 0.0973 0 0.32273 0.23579 0.50085 0.52399l0.32386 0.524-0.45261 0.3863c-0.24893 0.21246-0.58033 0.64835-0.73643 0.96862-0.2828 0.58027-0.28276 0.58274 0.0103 0.69251 0.19125 0.0716 0.26306 0.19093 0.2054 0.34118-0.21548 0.56151-0.2565 0.9321-0.1032 0.9321 0.0888 0 0.16141 0.21966 0.16141 0.48815 0 0.63958 0.53722 1.4139 1.1182 1.6115 0.60291 0.20516 0.74382 0.36008 0.47951 0.52723-0.47676 0.30152-1.524 0.15564-2.2274-0.31028z"/>
  </g>
 </g>
</svg>
