<?xml version="1.0" encoding="UTF-8" standalone="no"?>
<!-- Created with Inkscape (http://www.inkscape.org/) -->
<svg id="svg2" xmlns:rdf="http://www.w3.org/1999/02/22-rdf-syntax-ns#" xmlns="http://www.w3.org/2000/svg" height="45" width="67.5" version="1.1" xmlns:cc="http://creativecommons.org/ns#" xmlns:dc="http://purl.org/dc/elements/1.1/">
 <metadata id="metadata7">
  <rdf:RDF>
   <cc:Work rdf:about="">
    <dc:format>image/svg+xml</dc:format>
    <dc:type rdf:resource="http://purl.org/dc/dcmitype/StillImage"/>
    <dc:title/>
   </cc:Work>
  </rdf:RDF>
 </metadata>
 <g id="g3679">
  <rect id="rect2990" opacity="0" height="45" width="67.5" y="0" x="3.5527e-15"/>
  <path id="path4004" d="m49.937 44.804c-0.08954-0.22898-0.36847-1.64-0.61984-3.1357-0.51908-3.0884-0.86829-4.1875-1.2546-3.9488-0.14702 0.09087-0.34911 0.60122-0.44908 1.1341-0.14108 0.752-0.26222 0.90214-0.54114 0.67066-0.52538-0.43603-0.7315 0.0502-0.8974 2.1168-0.18789 2.3407-0.61369 2.2763-0.65111-0.0984-0.02606-1.6541-0.06504-1.7835-0.33279-1.1055-0.39694 1.0052-0.86807 0.8219-0.95878-0.37303-0.12873-1.6956-0.36404-2.7541-0.61227-2.7541-0.13361 0-0.32125 0.40592-0.41698 0.90203-0.48932 2.5358-0.78482 3.5387-1.0426 3.5387-0.16815 0-0.21644-0.34062-0.11803-0.83265 0.19897-0.99485 0.03399-1.0455-0.67768-0.20816-0.48014 0.56494-0.51316 0.57156-0.34626 0.0694 0.10147-0.3053 0.39757-0.86734 0.658-1.249 0.61377-0.89939 0.93459-1.9428 0.59735-1.9428-0.29837 0-2.0485 1.8713-2.4931 2.6658-0.16049 0.28678-0.37724 0.43597-0.48167 0.33154s0.08205-0.57175 0.4144-1.0385c0.78928-1.1084 0.21793-1.1383-1.2653-0.0662-3.2992 2.3847-3.4466 2.0914-0.47991-0.95517 1.4183-1.4565 2.0756-1.9779 1.9688-1.5619-0.08813 0.34347-0.12521 0.62448-0.0824 0.62448s0.62437-0.30387 1.2924-0.67526c0.668-0.3714 1.5824-0.71486 2.0321-0.76326 0.73985-0.07963 0.84884 0.01757 1.1463 1.0222 0.2137 0.72172 0.46177 1.069 0.70893 0.99252 0.20911-0.0647 0.72309-0.10102 1.1422-0.0807 0.58844 0.0286 0.86224-0.15691 1.2023-0.81452l0.44034-0.85153 0.75572 0.72403c0.94124 0.90177 1.1417 0.90706 1.1417 0.03016 0-0.85376 0.45428-0.88534 1.3005-0.0904 0.52734 0.49541 0.64237 0.5232 0.64237 0.15516 0-0.24658-0.1249-0.52551-0.27755-0.61986-0.15265-0.09434-0.27755-0.41396-0.27755-0.71025 0-0.3749 0.1899-0.53742 0.62448-0.53447 0.5047 0.0034 0.54463 0.05575 0.20816 0.27276-0.36007 0.23223-0.3276 0.42478 0.24036 1.425l0.65668 1.1565-1.0036-0.16286c-1.147-0.18613-1.1515-0.17871-0.57595 0.93436 0.47174 0.91225 0.30776 1.5834-0.26975 1.1041-0.41437-0.34389-0.71301-0.10836-0.71301 0.56234 0 0.26714-0.13796 0.5317-0.30658 0.5879-0.22124 0.0737-0.21438 0.40993 0.02465 1.2077 0.32589 1.0877 0.27856 3.1917-0.05273 2.3445zm-38.198-3.7933 0.0923-1.2954-1.3878-0.76694c-0.76325-0.42182-1.6628-0.89516-1.9989-1.0519-0.33616-0.15672-0.81129-0.6719-1.0558-1.1448-0.69754-1.3489-0.3685-7.199 0.58698-10.436 0.40047-1.3567 0.84135-2.9448 0.97972-3.5291 0.35383-1.494 1.5152-3.7166 2.7004-5.1677 0.55442-0.6788 1.3203-1.767 1.7019-2.4182 0.39581-0.67541 1.5601-1.846 2.7105-2.7251 1.9612-1.4988 5.9573-3.7512 6.6573-3.7524 0.19107-0.000323 0.79604-0.62507 1.3444-1.3883 0.54835-0.76326 1.0261-1.3877 1.0617-1.3877 0.03557 0 0.0097 0.37469-0.05754 0.83265-0.15316 1.0436 0.13691 1.0416 1.1666-0.0077l0.80952-0.82494-0.67074-0.02869c-0.50089-0.02142-0.40432-0.09936 0.38133-0.30779 0.90516-0.24013 1.1659-0.50459 1.8672-1.8939 0.7794-1.544 1.3827-2.2806 1.3827-1.6882 0 0.15257-0.608 1.565-1.3511 3.1388-2.0774 4.3995-2.1128 4.5688-1.4513 6.9437 0.30998 1.113 0.70614 2.9542 0.88037 4.0915 0.39109 2.5529 0.75681 3.129 2.5549 4.0251 1.599 0.79684 4.4054 0.96619 6.351 0.38326 0.94678-0.28366 1.1833-0.53832 1.9057-2.0519 1.2197-2.5556 1.168-2.7145-0.8085-2.4851-1.6119 0.18708-1.6387 0.17868-2.0481-0.6421-0.37712-0.75596-0.36741-0.9377 0.10671-1.9967 0.28688-0.64076 0.5216-1.2916 0.5216-1.4462 0-0.53566-0.74157 0.32682-1.2495 1.4533-0.7658 1.6982-0.86278 1.0661-0.10679-0.69614l0.66244-1.5442 1.3877 0.18883c1.874 0.255 3.7437 0.20038 4.6263-0.13516 0.61151-0.2325 0.87247-0.71364 1.6276-3.0008 0.97352-2.9487 1.0157-3.0407 1.275-2.7814 0.0956 0.0956-0.2327 1.415-0.72956 2.932-0.82642 2.5233-0.86764 2.8092-0.48386 3.3572 0.37816 0.5399 0.368 0.7345-0.10309 1.9743-0.66043 1.7381-0.66197 1.7163 0.19366 2.7331 0.66942 0.79556 0.7033 0.97223 0.51806 2.7019-0.18651 1.7416-0.16738 1.8381 0.32455 1.6365 1.7274-0.70771 1.9269-0.36182 0.77188 1.338-0.52625 0.77444-0.63924 1.146-0.41632 1.3689 0.22292 0.22292 0.30596 0.1779 0.30596-0.16587 0-0.7005 0.4206-0.57148 0.79162 0.24284 0.41462 0.90998 0.16226 1.3188-0.68312 1.1066-0.36498-0.0916-0.66359-0.09675-0.66359-0.01144 0 0.28155 1.0369 2.1858 2.1883 4.0187 1.7291 2.7526 1.7814 2.8504 1.4655 2.7382-0.1572-0.05582-1.2926-1.6315-2.523-3.5015s-2.3436-3.4-2.4736-3.4c-0.40303 0-1.2568 1.1018-1.0229 1.3201 0.12173 0.11355 0.27708 0.05034 0.34523-0.14048 0.18861-0.52811 0.5503-0.41463 0.7176 0.22514 0.18103 0.69228-0.38017 0.97423-1.135 0.57025-0.9525-0.50976-2.1053 0.9723-1.2855 1.6527 0.35677 0.29609 0.35474 0.39519-0.01649 0.8054-0.50886 0.56228-0.54251 1.1653-0.09027 1.6175 0.25904 0.25904 0.24363 0.33778-0.06939 0.35429-1.483 0.07825-1.9838 0.43702-1.304 0.93409 0.70411 0.51486 0.60513 0.79674-0.48615 1.3844-1.2711 0.68452-1.2267 0.89107 0.16284 0.75855 1.8083-0.17244 2.1063 0.77698 0.51172 1.6304-0.39689 0.21241-0.45562 0.15938-0.33485-0.30241 0.1449-0.5541 0.13072-0.55364-1.3456 0.04305-3.373 1.3633-4.1287 1.6247-4.127 1.4275 0.000833-0.11386 0.40688-0.44245 0.90203-0.73019 1.3912-0.80844 0.4803-0.83148-1.8567-0.04696-2.3858 0.8009-2.864 0.87525-1.7531 0.2726 0.8957-0.48593 0.91469-0.59971 0.24532-1.4701-0.44211-0.57489-0.5851-0.61489-1.1388-0.31856-1.0402 0.55668-3.1568 2.2285-3.8183 3.016-0.50245 0.59808-0.66645 0.66206-0.87759 0.34238-0.14282-0.21624-0.1637-0.65338-0.04641-0.97142 0.11729-0.31805 0.16634-0.71036 0.109-0.87181-0.22997-0.64748 2.7665-2.6207 3.9797-2.6207 0.33672 0 0.69444-0.13303 0.79492-0.29563 0.21656-0.35041 1.2378 0.47342 1.2378 0.99853 0 0.59604 0.81038 1.0957 1.1791 0.72697 0.38842-0.38842-0.13903-2.6835-0.7793-3.391-0.58474-0.64613-0.48861-0.98079 0.12279-0.42748 0.28742 0.26011 0.73489 1.0289 0.99438 1.7083 0.27636 0.72364 0.64898 1.2354 0.89953 1.2354 0.35052 0 0.40409-0.28515 0.29674-1.5797-0.11421-1.3773-0.25064-1.6796-1.0647-2.3592-0.51353-0.42872-0.78426-0.77948-0.60162-0.77948s0.72478 0.35088 1.2048 0.77974c0.70873 0.63325 0.8986 1.0494 1.0106 2.2153 0.15526 1.6158 0.62485 2.2516 1.1742 1.5897 0.2486-0.29954 0.29062-0.94347 0.1483-2.2725-0.20512-1.9153-0.4587-2.3154-2.3982-3.7833-0.36305-0.27478 0.02684-0.14343 0.86642 0.2919s1.6469 1.0592 1.794 1.3865c0.29307 0.65196 1.4304 1.3791 1.7138 1.0958 0.0979-0.0979-0.02979-0.46237-0.28374-0.80993-0.25396-0.34757-0.89974-1.2876-1.4351-2.0891-0.53534-0.80142-1.1881-1.467-1.4505-1.479-0.35699-0.0164-0.37824-0.06102-0.08438-0.17719 0.21604-0.0854 0.8061 0.0673 1.3113 0.33934 0.75038 0.40411 0.99594 0.43031 1.3419 0.14321 0.23288-0.19328 0.42343-0.57062 0.42343-0.83854 0-0.55238 0.65061-1.1997 0.9275-0.92283 0.1004 0.1004 0.882-0.29918 1.7369-0.88795 1.4574-1.0038 1.545-1.1278 1.4053-1.989-0.15294-0.94246 0.03182-1.1468 0.55962-0.61903 0.37533 0.37533 1.1993-1.8918 1.1993-3.2998 0-1.2869-1.5699-2.8322-2.8646-2.8198-0.75103 0.0072-0.80773 0.0518-0.38117 0.29995 0.33494 0.19485 0.41482 0.39913 0.24092 0.61604-0.1431 0.17849-0.35026 1.5588-0.46036 3.0673-0.18407 2.522-0.26596 2.8124-1.0174 3.6081-0.44946 0.47595-1.0923 1.2929-1.4285 1.8154-0.3362 0.52251-0.78826 1.0082-1.0046 1.0794-0.26026 0.08561-0.18983-0.15639 0.20816-0.71532 1.2977-1.8225 0.4511-2.1328-4.1169-1.5092-2.5267 0.34494-3.7466 0.32337-4.7772-0.08446-0.32053-0.12684-0.69981 0.05433-1.1654 0.55666-0.72644 0.78384-1.2737 0.73014-1.2737-0.12498 0-0.64838-0.82415-0.97744-1.2754-0.50922-0.18929 0.19642-0.74236 1.148-1.2291 2.1145-0.77249 1.5342-0.96526 1.7372-1.5176 1.5986-0.59372-0.14902-1.5236 0.48873-1.1937 0.81866 0.0752 0.07522 1.3108 0.20625 2.7456 0.29117l2.6089 0.1544 0.7795-1.3125c0.70617-1.1891 0.82022-1.2718 1.2124-0.87961 0.5149 0.5149 0.27136 1.0413-0.48178 1.0413-0.35954 0-0.53872 0.19085-0.53872 0.5738 0 0.46602 0.1173 0.5383 0.62448 0.38481l0.62448-0.18899-0.61267 0.58642c-0.33697 0.32253-0.95028 1.1625-1.3629 1.8666-0.66642 1.1372-0.71425 1.3797-0.42814 2.1709 0.17715 0.4899 0.32209 1.0512 0.32209 1.2474 0 0.49344-1.6382 2.5182-2.0375 2.5182-0.17906 0-1.6141 0.63213-3.189 1.4047-2.2175 1.0879-2.949 1.3337-3.2427 1.0899-0.28817-0.23916-0.66683-0.18782-1.5754 0.21362-0.65784 0.29065-1.5083 0.60779-1.89 0.70476-0.49181 0.12497-0.84333 0.54277-1.2071 1.4347-0.70077 1.7183-1.368 1.6984-1.2444-0.037zm5.3284-4.016 1.0729-0.27829-0.20037-3.2419c-0.1102-1.783-0.2569-3.3355-0.326-3.45-0.38891-0.6444-1.4541-0.06558-3.0647 1.6653-1.2471 1.3402-1.7437 1.7229-1.7449 1.3446-0.003-0.83052 1.313-2.3452 2.8736-3.3086 1.376-0.84944 1.3991-0.884 0.64935-0.97002-1.8276-0.20967-4.9108 2.8825-6.1751 6.193-0.45706 1.1968-0.45683 1.2862 0.005 1.796 0.75317 0.83224 4.1871 0.95647 6.9108 0.24999zm5.0332-0.49116c0.8587-0.39797 1.0063-0.55789 0.6514-0.70596-0.41252-0.17212-2.733 0.76347-2.733 1.1019 0 0.28823 1.0268 0.09293 2.0816-0.39595zm0.20816-1.5734c1.0526-0.68861 1.3478-1.2281 0.67207-1.2281-0.41942 0-2.8675 1.5657-3.1417 2.0092-0.29877 0.48342 1.3187-0.02816 2.4696-0.7811zm-11.765-1.5967c1.7024-3.5173 3.7942-5.1824 6.5102-5.1824 0.71506 0 1.3001-0.09597 1.3001-0.21327 0-0.42916-2.8914-3.1358-3.5177-3.293-1.0008-0.25118-1.9665 0.10634-3.0876 1.143-0.93314 0.86291-0.96368 0.9344-0.33337 0.78038 0.65373-0.15974 0.66887-0.13893 0.26183 0.35973-0.23763 0.2911-0.58261 0.88197-0.76665 1.313-0.18403 0.43106-0.73899 1.287-1.2332 1.9022-0.84287 1.049-0.89864 1.2545-0.89864 3.31 0 1.4822 0.10459 2.1916 0.32315 2.1917 0.17775 0.000042 0.82661-1.04 1.4419-2.3113zm13.916 1.3399c0-0.22898-0.1249-0.41632-0.27755-0.41632s-0.27755 0.18734-0.27755 0.41632 0.1249 0.41632 0.27755 0.41632 0.27755-0.18735 0.27755-0.41632zm-4.0756-0.17444c0.33343-0.17227 0.83296-0.51124 1.1101-0.75328 0.48568-0.42423 0.48575-0.4464 0.002-0.61615-0.41936-0.1471-0.34639-0.25655 0.4434-0.66496 0.93069-0.48128 0.95279-0.47907 1.4213 0.14203l0.47589 0.6309 0.31156-0.58216c0.17136-0.32019 0.31157-1.264 0.31157-2.0973v-1.5151l-1.6949-0.29855c-1.3572-0.23907-1.8829-0.22-2.6385 0.09569-1.1913 0.49774-1.4951 1.2921-1.4951 3.9085 0 1.9004 0.0453 2.0635 0.57334 2.0635 0.31535 0 0.84616-0.14094 1.1796-0.31321zm17.259-1.9072c0.09434-0.15265 0.03926-0.27755-0.12239-0.27755-0.16166 0-0.29393 0.1249-0.29393 0.27755s0.05507 0.27755 0.12239 0.27755 0.19959-0.1249 0.29393-0.27755zm1.5963-2.9037c-0.6054-0.80956-0.72524-0.72693-0.35563 0.24521 0.15664 0.41198 0.41011 0.67162 0.56327 0.57696 0.17083-0.10558 0.09056-0.42339-0.20764-0.82216zm-13.113-0.583c0-0.45798-0.43865-0.53535-0.69387-0.12239-0.22634 0.36623 0.10553 0.88596 0.4355 0.68202 0.1421-0.08783 0.25837-0.33966 0.25837-0.55962zm12.338-1.555c0.38881-0.17715 0.70693-0.42695 0.70693-0.5551 0-0.42978-0.74161-0.23852-1.249 0.3221-0.57578 0.63622-0.45597 0.68772 0.54204 0.233zm-26.014-3.024c0.55559-0.55118 0.79112-0.59325 2.3402-0.418 1.0376 0.1174 1.9951 0.40935 2.4082 0.73437 0.37723 0.29673 0.7478 0.47757 0.8235 0.40187 0.25299-0.25298-1.4017-2.368-1.856-2.3723-0.58767-0.0055-1.3134-0.47179-1.087-0.69825 0.36205-0.36204 2.0562 0.75956 2.9612 1.9605 1.5233 2.0214 1.9396 1.458 1.1828-1.6008-0.4993-2.0182-0.49814-4.6531 0.002-4.6531 0.14499 0 0.12329-0.25428-0.0492-0.57662-0.17674-0.33024-0.47739-0.51185-0.70364-0.42503-0.27594 0.10589-0.39504-0.05497-0.39504-0.53357 0-1.0915 0.48371-0.80323 1.4119 0.84136 0.47383 0.83958 1.0236 1.5265 1.2216 1.5265 0.19808 0 0.43203 0.18735 0.5199 0.41632 0.36764 0.95807 0.72064 0.3515 0.6057-1.0408l-0.12029-1.4571 0.4323 1.3877c0.51211 1.644 0.566 1.7187 0.95715 1.3276 0.38061-0.38062-0.34382-3.0275-1.3035-4.7625-0.80908-1.4628-0.83682-1.6576-0.1472-1.0335 0.90975 0.82331 2.3251 4.0335 2.3241 5.2716-0.0014 1.8431-0.22077 3.4224-0.53076 3.8211-0.41255 0.53062-0.67209 1.343-0.42905 1.343 0.11339 0 0.7493-0.74583 1.4131-1.6574 0.66383-0.91158 1.4414-1.7318 1.728-1.8228 0.28656-0.09095 0.52101-0.30682 0.52101-0.47972 0-0.22372 0.09603-0.21832 0.33306 0.01871 0.73597 0.73597 0.85804 0.28866 0.68546-2.5118-0.25019-4.0599-1.2776-7.6438-2.5584-8.9247-0.62007-0.62007-0.9198-0.55293-1.1216 0.25125-0.09578 0.38163-0.31772 0.69387-0.49321 0.69387-0.42474 0-2.9805 1.3445-3.5065 1.8446-0.37006 0.35188-0.37006 0.42511 0 0.65912 0.31182 0.19718 0.18644 0.26433-0.49949 0.26751-1.8817 0.0087-4.1234 1.6129-5.3066 3.7974-0.9704 1.7917-1.0229 2.0354-0.4388 2.0354 0.7867 0 0.43147 1.0556-0.56183 1.6694-0.82165 0.50781-1.7973 1.7787-1.7973 2.3412 0 0.28986 0.86331 0.15104 1.7485-0.28114 0.73844-0.36055 0.62472-0.185-0.67415 1.0408-0.85932 0.81098-1.8166 1.9318-2.1272 2.4908l-0.56477 1.0163 1.017-0.64817c0.55934-0.3565 1.295-0.92396 1.6347-1.261zm14.285-5.952c0.0056-0.45796 0.06786-0.6117 0.13823-0.34165 0.07037 0.27004 0.06574 0.64474-0.01029 0.83265s-0.1336-0.03304-0.12795-0.49099zm15.237 6.2622c0.51361-0.44843 0.84732-0.90184 0.74158-1.0076-0.19741-0.19741-2.0993 1.2408-2.1353 1.6147-0.04013 0.41693 0.48053 0.1901 1.3937-0.60716zm-21.37-2.4372c-0.25247-0.43378-0.28881-0.40648-0.29622 0.22257-0.005 0.39435 0.0852 0.81147 0.19973 0.92693 0.33343 0.33626 0.41257-0.60647 0.0965-1.1495zm10.918 0.5066c0.08428-0.13637-0.13511-0.32031-0.48753-0.40877-0.35243-0.08845-0.93607-0.41694-1.297-0.72996-0.77796-0.67472-1.2171-0.59912-1.3391 0.23054-0.06198 0.42129 0.10624 0.68272 0.5551 0.8627 0.83682 0.33555 2.3725 0.36274 2.5686 0.04548zm6.4449-0.73545c0.0904-0.23556 0.092-0.50065 0.0035-0.58909-0.29009-0.29009-3.8847 0.31198-4.0029 0.67044-0.18467 0.56018 3.7841 0.47944 3.9993-0.08136zm-27.263-1.119c0.45929-0.45929 0.60051-1.5067 0.20315-1.5067-0.24201 0-0.8772 1.2153-0.8772 1.6784 0 0.37386 0.17246 0.32994 0.67405-0.17166zm29.249-1.3008c0.09924-1.1964-0.26631-1.3612-0.73546-0.33157-0.4661 1.023-0.40491 1.5699 0.16361 1.4621 0.33945-0.06433 0.51165-0.40477 0.57185-1.1305zm-2.8616-4.0915c0.09434-0.15265 0.03926-0.27755-0.12239-0.27755-0.16166 0-0.29393 0.1249-0.29393 0.27755s0.05508 0.27755 0.12239 0.27755 0.19958-0.1249 0.29393-0.27755zm3.7577-2.2777c1.8893-0.06575 2.3587-0.16779 2.4275-0.5277 0.07219-0.37809-0.13916-0.42489-1.3847-0.30662-2.1986 0.20878-3.9081 0.70093-4.061 1.1691-0.10962 0.33582-0.05741 0.35158 0.27001 0.08151 0.22479-0.18542 1.451-0.37118 2.7482-0.41632zm15.59 22.63c-0.655-0.232-1.383-0.715-1.619-1.074-0.23533-0.35916-0.88073-0.92021-1.4342-1.2468l-1.0064-0.59377 0.65054-0.4907c0.43087-0.32501 0.54407-0.55651 0.33524-0.68558-0.46822-0.28938-0.38861-1.8167 0.10455-2.0059 0.23092-0.08861 0.607-0.0058 0.83572 0.18402 0.36646 0.30414 0.35786 0.38756-0.07249 0.70223-0.85828 0.62759-0.12965 0.7847 2.0796 0.44843 2.8468-0.43331 4.3105-0.42508 4.164 0.02343-0.06235 0.19081-0.54112 0.48963-1.0639 0.66405-0.77436 0.25833-0.96721 0.24546-1.0403-0.06939-0.10931-0.47078-0.53045-0.48293-2.1965-0.0634-1.2296 0.30962-2.2933 0.95681-2.2933 1.3953 0 0.11403 1.0304 0.70593 2.2898 1.3153 1.2594 0.6094 2.0751 1.1128 1.8128 1.1187-0.30803 0.0069-0.42041 0.15821-0.31724 0.42706 0.08787 0.22898 0.11517 0.40646 0.06068 0.39441s-0.63494-0.21148-1.2899-0.44319zm-26.703-5.537c0-0.3531-0.18076-0.41486-0.83265-0.28449-0.45796 0.09159-0.83265 0.06973-0.83265-0.04857 0-0.40948 0.6686-0.88122 1.249-0.88122 0.32057 0 0.74059-0.15612 0.93337-0.34694 0.28208-0.27919 0.29444-0.19837 0.0633 0.41391-0.15797 0.41847-0.21492 0.94928-0.12654 1.1796 0.08838 0.2303 0.02243 0.41873-0.14656 0.41873-0.16898 0-0.30724-0.20296-0.30724-0.45102zm24.147-1.8558c0-0.57901 0.93169-0.99986 1.3121-0.59266 0.26242 0.28092 0.16028 0.41452-0.49029 0.64132-0.6151 0.21443-0.82177 0.20219-0.82177-0.04865zm2.2282-0.45797c-0.44157-0.27925-0.36095-0.33349 0.96364-0.64838 0.3053-0.07258 0.77367-0.22194 1.0408-0.33192 0.90668-0.37326 0.4933 0.34768-0.45827 0.79923-1.0998 0.52188-1.0217 0.51274-1.5462 0.18108zm-3.8935-0.68192c0-0.24143-0.14051-0.43896-0.31224-0.43896-0.19891 0-0.2518-0.30222-0.14571-0.83265 0.11288-0.56438 0.05646-0.83265-0.1751-0.83265-0.70592 0-1.0781-1.5112-0.72793-2.9559 0.47912-1.9767 0.79456-2.0795 0.6323-0.20606-0.1278 1.4755-0.10147 1.586 0.26932 1.1298 0.3883-0.47777 0.41617-0.47869 0.50514-0.01675 0.07323 0.38025 0.39731 0.16874 1.4581-0.9516 0.75014-0.79229 1.4128-1.3917 1.4725-1.3319 0.05973 0.05973-0.33975 0.8095-0.88774 1.6661-1.4479 2.2634-1.5545 2.6396-0.54351 1.9176 0.44775-0.31975 1.6774-1.3733 2.7325-2.3413 2.3923-2.1946 1.9667-1.3755-0.80233 1.5443-2.9856 3.1481-2.6601 3.5451 0.58116 0.70878 1.6082-1.4073 2.405-1.6766 1.216-0.41091-0.64378 0.68528-0.64448 0.69278-0.06373 0.69278 1.2174 0 0.91645 0.69606-0.68823 1.5918-0.51886 0.28964-0.58966 0.27887-0.45602-0.06939 0.2018-0.52589-0.67634-0.55388-1.4353-0.04575-1.9924 1.3338-2.6291 1.6202-2.6291 1.1826zm-20.607-1.455c0.19081-0.07699 0.50306-0.07699 0.69387 0 0.19082 0.07699 0.03469 0.13999-0.34694 0.13999s-0.53775-0.06299-0.34694-0.13999zm15.112-2.675c-0.18323-1.2673-0.32296-2.8597-0.31051-3.5387l0.02265-1.2346 0.37392 0.85165c0.42241 0.9621 1.2461 1.7868 1.2461 1.2476 0-0.18035 0.1249-0.25072 0.27755-0.15638s0.27755 0.34338 0.27755 0.55341 0.13423 0.73347 0.29828 1.1632c0.27073 0.70914 0.33053 0.73743 0.64734 0.30621 0.19198-0.26131 0.50602-1.1765 0.69786-2.0338 0.19184-0.85726 0.40433-1.5031 0.4722-1.4353 0.15474 0.15474-0.88149 5.9943-1.103 6.2158-0.0895 0.08949-0.47446-0.04155-0.85549-0.2912-0.65443-0.4288-0.70921-0.4232-0.98985 0.10118-0.16339 0.3053-0.39256 0.5551-0.50926 0.5551s-0.3621-1.0369-0.54533-2.3042zm1.3321-9.4753c0-0.21997 0.1249-0.47713 0.27755-0.57148 0.15265-0.09434 0.27755 0.08563 0.27755 0.39994s-0.1249 0.57148-0.27755 0.57148-0.27755-0.17997-0.27755-0.39994zm-9.209-5.719c-0.053-0.16-0.969-0.488-2.035-0.729-2.264-0.512-4.16-1.408-5.537-2.6175-1.56-1.3696-1.141-1.4506 0.753-0.1456 2.7787 1.9147 3.6334 2.1529 6.4761 1.8052 1.3267-0.16228 2.9141-0.47215 3.5276-0.6886 1.338-0.47209 1.6233-0.33051 0.63659 0.316-0.39487 0.25873-0.71795 0.59532-0.71795 0.74797s0.31224 0.07296 0.69387-0.17709c0.54825-0.35922 0.69387-0.37528 0.69387-0.07647 0 0.46505-1.041 0.96036-2.5131 1.1958-0.60902 0.09739-1.1744 0.28556-1.2563 0.41816-0.20421 0.33042-0.60437 0.30322-0.7218-0.04906zm5.879-4.4556c0-0.79079-0.78586-2.3932-1.2636-2.5765-0.21345-0.08191-0.79935 0.02291-1.302 0.23294-2.023 0.84527-7.5701 0.76285-8.1161-0.12058-0.30222-0.489 0.20618-1.0643 1.0555-1.1943 1.2091-0.18517 4.0705 0.29318 4.8695 0.81406 0.44737 0.29166 0.97617 0.37217 1.6653 0.25354 2.3044-0.39669 2.3546-0.38101 3.022 0.94241 0.66261 1.314 0.80521 2.231 0.34694 2.231-0.15265 0-0.27755-0.26214-0.27755-0.58254z"/>
 </g>
</svg>
