<?xml version="1.0" encoding="UTF-8" standalone="no"?>
<!-- Created with Inkscape (http://www.inkscape.org/) -->
<svg id="svg2" xmlns:rdf="http://www.w3.org/1999/02/22-rdf-syntax-ns#" xmlns="http://www.w3.org/2000/svg" height="45" width="67.5" version="1.1" xmlns:cc="http://creativecommons.org/ns#" xmlns:dc="http://purl.org/dc/elements/1.1/">
 <metadata id="metadata7">
  <rdf:RDF>
   <cc:Work rdf:about="">
    <dc:format>image/svg+xml</dc:format>
    <dc:type rdf:resource="http://purl.org/dc/dcmitype/StillImage"/>
    <dc:title/>
   </cc:Work>
  </rdf:RDF>
 </metadata>
 <g id="g3745">
  <rect id="rect2990" opacity="0" height="45" width="67.5" y="0" x="3.5527e-15"/>
  <path id="path4040" d="m19.643 44.214c-0.15556-0.15557-0.28399-2.5258-0.2854-5.2672l-0.003-4.9843-2.3085-4.2152c-3.7873-6.9153-3.7806-6.8965-3.2165-8.9113 0.26952-0.96264 0.37881-1.8615 0.24286-1.9974-0.13593-0.13595-1.7954-0.66062-3.6878-1.166-4.1545-1.1095-4.5383-1.4098-3.3783-2.6445 1.4881-1.584 1.2943-1.777-3.293-3.2794-1.0893-0.35676-2.1831-0.81254-2.4307-1.0128-0.24761-0.20031-0.56287-1.5624-0.70058-3.0267-0.13773-1.4644-0.3537-3.6875-0.47996-4.9401-0.19857-1.9726-0.1389-2.2782 0.44605-2.2782 0.9003 0 15.531 6.2089 16.368 6.9467 0.0721 0.06349-0.0739 0.4986-0.32457 0.9669-0.60371 1.128 0.15199 2.073 1.5276 1.9102 0.80004-0.0947 1.4023-0.808 2.9434-3.4859 1.0656-1.8517 2.1433-3.4978 2.395-3.6579 1.2811-0.81524 6.3362 0.19191 7.673 1.5287 0.78147 0.78147 1.088 0.87054 1.7595 0.51121 1.5446-0.82663 5.9507 0.39251 6.6045 1.8274 0.29357 0.6443 0.77011 0.97877 1.3944 0.97877 1.2249 0 4.6706 1.5223 5.2947 2.3392 0.26539 0.34739 0.48821 0.93945 0.49514 1.3157 0.007 0.37623 0.50279 0.98845 1.1019 1.3605 3.2226 2.0012 3.4383 2.8296 1.8142 6.9691-0.81239 2.0706-0.94922 2.8038-0.59027 3.1628 0.35894 0.35894 0.73354 0.30997 1.616-0.21129 1.2087-0.714 1.912-0.60856 3.5968 0.53931 0.54466 0.37105 3.9083 2.6112 7.4748 4.9781 4.2924 2.8487 6.2297 4.3424 5.7307 4.4187-0.41464 0.06341-4.0457-0.70908-8.0689-1.7166-7.2246-1.8092-7.3311-1.8233-8.6098-1.1382-1.1243 0.60239-1.5622 0.63194-3.3272 0.22453-1.1179-0.25804-2.0644-0.42158-2.1032-0.36342-0.66872 0.99961-2.8329 3.8252-4.4488 5.8085-2.0422 2.5064-2.0657 2.5665-2.1791 5.5455l-0.11464 3.0117-1.2874 0.12413-1.2874 0.12413v-2.4278c0-1.3353-0.18202-2.7679-0.40448-3.1836-0.32846-0.61374-0.15503-1.0369 0.92286-2.2516 2.2328-2.5162 5.4232-6.9301 5.4232-7.503 0-0.29783-0.57931-0.79229-1.2874-1.0988-1.3828-0.59863-10.034-3.391-10.507-3.391-0.15649 0 0.69519 0.93971 1.8926 2.0882s2.4403 2.5936 2.7619 3.2113c0.55649 1.0688 0.53165 1.1687-0.51394 2.0681-1.1362 0.97729-2.9011 1.6194-3.3146 1.2059-0.33516-0.33516 0.66131-1.4435 1.2978-1.4435 0.29244 0 0.72108-0.35383 0.95253-0.78628 0.34986-0.65372 0.20195-1.0192-0.8773-2.1678-0.71397-0.75979-2.3676-1.9724-3.6747-2.6946-2.6771-1.4792-3.2002-2.5827-1.7169-3.6216 1.1782-0.82527 1.8362-0.79787 4.0182 0.16729 2.4474 1.0827 5.1268 1.1754 6.189 0.21419 1.2034-1.089 1.0609-1.8349-0.29848-1.5629-0.6157 0.12313-1.7577-0.04443-2.5452-0.3735-1.0948-0.45744-1.4585-0.85888-1.557-1.7187-0.10031-0.8759-0.5159-1.3172-1.8959-2.0131-2.7499-1.3867-4.0286-1.1823-8.6978 1.3901-2.2701 1.2506-4.32 2.5886-4.5552 2.9731-0.46676 0.76286 0.20015 2.2117 5.4035 11.739 2.8467 5.2123 2.9229 5.8081 0.77452 6.0564-0.99217 0.11466-1.0731 0.27525-1.2583 2.4992-0.1922 2.3065-0.23354 2.3801-1.4006 2.4945-0.66141 0.06479-1.3298-0.0095-1.4854-0.16504zm37.743-16.413c-3.7155-2.9859-6.3378-4.1068-6.3378-2.7092 0 0.49436-2.2628 0.44252-3.2279-0.07395-0.6265-0.33529-0.96315-0.27924-1.5584 0.25944-1.421 1.2859-0.80695 2.143 1.9615 2.7378 0.84098 0.1807 1.6773 0.10316 2.262-0.20971 0.75647-0.40485 1.4236-0.38316 3.617 0.11755 1.4792 0.33768 3.046 0.62743 3.4816 0.64388 0.72065 0.02721 0.70277-0.04197-0.19805-0.7659zm-13.456-2.8504c1.3194-1.4085 4.3455-6.5841 4.3455-7.4319 0-0.89771-1.7226-2.1593-2.5269-1.8507-0.30386 0.1166-1.5084 2.1075-2.6768 4.4242l-2.1243 4.2122 0.93513 0.76877c1.1509 0.94615 1.0403 0.95277 2.0474-0.12248zm-7.934-5.0367c0-0.21019-0.34568-0.56717-0.76818-0.79329-0.98835-0.52896-1.4925 0.18114-0.5275 0.74296 0.89119 0.51883 1.2957 0.53454 1.2957 0.05034zm6.4907-2.6972c1.9978-3.9671 1.9869-4.4644-0.12194-5.528-2.0822-1.0502-2.479-0.84167-3.3692 1.7707-0.908 2.6649-0.79471 3.9533 0.46498 5.288 0.59841 0.63401 1.22 1.1528 1.3814 1.1528 0.16136 0 0.90148-1.2075 1.6447-2.6834zm-21.384-0.53898c1.1747-0.53522 1.5564-1.3407 1.0679-2.2535-0.19584-0.36596-2.245-1.3503-4.5536-2.1875-4.3382-1.5731-4.9938-1.9978-4.2426-2.749 1.0867-1.0867 0.7169-1.3503-6.0583-4.3189-1.9406-0.85027-3.7922-1.4447-4.1146-1.3209-0.4602 0.1766-0.53755 0.69771-0.35954 2.4225 0.25395 2.4605 0.65855 3.1417 2.0777 3.4979 2.5051 0.62875 7.7074 2.7261 7.7074 3.1073 0 0.23457-0.30484 0.76334-0.67743 1.1751-0.83408 0.92164-0.5111 1.1792 2.658 2.1199 1.1983 0.35567 2.3568 0.7024 2.5747 0.77053 0.93317 0.29179 3.0081 0.15242 3.9207-0.26336zm15.267-1.6298c0.24755-0.70805 0.55374-2.2739 0.68044-3.4798 0.2194-2.0883 0.18018-2.2152-0.8261-2.6738-0.58103-0.26474-1.5654-0.48134-2.1874-0.48134-1.3797 0-2.0007 1.4169-2.0007 4.5649 0 1.9411 0.0801 2.1095 1.2874 2.7047 1.9151 0.94404 2.5398 0.81387 3.0464-0.63469zm-7.0074-1.3627c0.1634-0.09319 0.29709-1.2899 0.29709-2.6594 0-2.7269-0.48624-3.5147-2.4757-4.0111-1.9546-0.48781-2.9227 0.0571-4.0225 2.2641-1.0008 2.0083-1.0077 2.0764-0.29328 2.8733 0.40249 0.44895 0.84538 1.1373 0.98425 1.5297 0.22134 0.62561 0.55758 0.68014 2.7328 0.44315 1.3642-0.14864 2.614-0.34649 2.7774-0.43968z"/>
 </g>
</svg>
