<?xml version="1.0" encoding="UTF-8" standalone="no"?>
<!-- Created with Inkscape (http://www.inkscape.org/) -->
<svg id="svg2" xmlns:rdf="http://www.w3.org/1999/02/22-rdf-syntax-ns#" xmlns="http://www.w3.org/2000/svg" height="54" width="99" version="1.1" xmlns:cc="http://creativecommons.org/ns#" xmlns:dc="http://purl.org/dc/elements/1.1/">
 <metadata id="metadata7">
  <rdf:RDF>
   <cc:Work rdf:about="">
    <dc:format>image/svg+xml</dc:format>
    <dc:type rdf:resource="http://purl.org/dc/dcmitype/StillImage"/>
    <dc:title/>
   </cc:Work>
  </rdf:RDF>
 </metadata>
 <g id="g6364">
  <rect id="rect2990" opacity="0" height="54" width="99" y="0" x="0"/>
  <path id="path4040" d="m35.079 49.198c-0.15903-0.15904-0.29033-2.5821-0.29177-5.3847l-0.003-5.0955-2.36-4.3092c-3.8718-7.0695-3.8649-7.0503-3.2882-9.1101 0.27553-0.98411 0.38726-1.903 0.24828-2.042-0.13897-0.13898-1.8355-0.67536-3.7701-1.192-4.2472-1.1342-4.6395-1.4412-3.4536-2.7035 1.5213-1.6193 1.3232-1.8166-3.3664-3.3525-1.1136-0.36472-2.2318-0.83066-2.4849-1.0354-0.25313-0.20478-0.57543-1.5972-0.71621-3.0942-0.1408-1.4971-0.36159-3.7697-0.49066-5.0503-0.203-2.0166-0.142-2.329 0.456-2.329 0.92038 0 15.877 6.3474 16.733 7.1016 0.0737 0.06491-0.0756 0.50972-0.33181 0.98847-0.61717 1.1532 0.15538 2.1192 1.5617 1.9528 0.81789-0.09681 1.4336-0.82602 3.009-3.5636 1.0894-1.893 2.1911-3.5758 2.4484-3.7395 1.3097-0.83342 6.4775 0.19619 7.8441 1.5628 0.7989 0.7989 1.1123 0.88996 1.7987 0.52261 1.579-0.84507 6.0834 0.40126 6.7518 1.8682 0.30011 0.65867 0.78728 1.0006 1.4255 1.0006 1.2522 0 4.7748 1.5563 5.4128 2.3914 0.27131 0.35514 0.49909 0.9604 0.50618 1.345 0.0072 0.38462 0.514 1.0105 1.1265 1.3908 3.2945 2.0458 3.515 2.8927 1.8547 7.1245-0.83051 2.1168-0.97039 2.8663-0.60344 3.2333 0.36695 0.36695 0.74991 0.31688 1.652-0.216 1.2357-0.72992 1.9546-0.62213 3.677 0.55134 0.5568 0.37933 3.9955 2.6694 7.6415 5.0891 4.3881 2.9122 6.3686 4.4393 5.8585 4.5173-0.42389 0.06482-4.1359-0.7249-8.2489-1.7549-7.3857-1.8496-7.4946-1.864-8.8018-1.1636-1.1494 0.61583-1.597 0.64604-3.4014 0.22954-1.1428-0.26379-2.1104-0.43098-2.1501-0.37152-0.68364 1.0219-2.8961 3.9105-4.548 5.938-2.0877 2.5623-2.1118 2.6237-2.2277 5.6692l-0.1172 3.0789-1.3161 0.1269-1.3161 0.1269v-2.4819c0-1.3651-0.18608-2.8296-0.4135-3.2546-0.33579-0.62743-0.15849-1.06 0.94344-2.3018 2.2826-2.5723 5.5442-7.0847 5.5442-7.6703 0-0.30447-0.59223-0.80996-1.3161-1.1233-1.4136-0.61198-10.258-3.4666-10.741-3.4666-0.15998 0 0.71069 0.96067 1.9348 2.1348s2.4947 2.6514 2.8235 3.2829c0.5689 1.0926 0.54351 1.1948-0.5254 2.1142-1.1615 0.99909-2.9658 1.6555-3.3885 1.2328-0.34264-0.34263 0.67606-1.4757 1.3267-1.4757 0.29897 0 0.73717-0.36172 0.97378-0.80382 0.35766-0.6683 0.20645-1.0419-0.89687-2.2161-0.72989-0.77674-2.4204-2.0164-3.7567-2.7547-2.7368-1.5122-3.2716-2.6403-1.7552-3.7024 1.2045-0.84368 1.8772-0.81567 4.1078 0.17102 2.502 1.1068 5.2412 1.2016 6.327 0.21897 1.2302-1.1133 1.0846-1.8758-0.30513-1.5978-0.62944 0.12588-1.7969-0.04542-2.602-0.38183-1.1192-0.46764-1.491-0.87804-1.5917-1.757-0.10254-0.89544-0.5274-1.3466-1.9382-2.058-2.8112-1.4176-4.1184-1.2087-8.8918 1.4211-2.3207 1.2785-4.4163 2.6463-4.6568 3.0394-0.47717 0.77987 0.20461 2.261 5.524 12.001 2.9102 5.3286 2.9881 5.9376 0.79179 6.1915-1.0143 0.11722-1.097 0.28139-1.2864 2.5549-0.19649 2.3579-0.23875 2.4332-1.4318 2.5501-0.67616 0.06623-1.3595-0.0097-1.5185-0.16872zm38.585-16.779c-3.7984-3.0525-6.4791-4.1984-6.4791-2.7696 0 0.50539-2.3133 0.45239-3.2999-0.0756-0.64047-0.34277-0.98463-0.28547-1.5932 0.26523-1.4527 1.3146-0.82495 2.1908 2.0052 2.7989 0.85974 0.18473 1.7147 0.10546 2.3124-0.21439 0.77334-0.41388 1.4554-0.39171 3.6977 0.12017 1.5122 0.34521 3.1139 0.64142 3.5593 0.65824 0.73672 0.02782 0.71844-0.04291-0.20247-0.78298zm-13.756-2.914c1.3488-1.4399 4.4424-6.7309 4.4424-7.5977 0-0.91773-1.761-2.2075-2.5833-1.892-0.31064 0.1192-1.5421 2.1545-2.7365 4.5229l-2.1717 4.3061 0.95598 0.78592c1.1766 0.96725 1.0635 0.97402 2.0931-0.12521zm-8.111-5.149c0-0.21488-0.35339-0.57982-0.78531-0.81098-1.0104-0.54076-1.5258 0.18518-0.53927 0.75953 0.91107 0.5304 1.3246 0.54646 1.3246 0.05146zm6.6355-2.7574c2.0424-4.0556 2.0312-4.564-0.12466-5.6513-2.1286-1.0736-2.5343-0.86044-3.4443 1.8102-0.92825 2.7243-0.81243 4.0415 0.47535 5.4059 0.61176 0.64815 1.2472 1.1785 1.4122 1.1785 0.16496 0 0.92159-1.2344 1.6814-2.7432zm-21.861-0.551c1.2009-0.54716 1.5911-1.3706 1.0917-2.3038-0.20021-0.37412-2.2951-1.3804-4.6552-2.2363-4.435-1.6082-5.1052-2.0424-4.3372-2.8103 1.1109-1.1109 0.73289-1.3804-6.1934-4.4152-1.9839-0.86923-3.8768-1.4769-4.2064-1.3504-0.47047 0.18054-0.54954 0.71327-0.36756 2.4765 0.25961 2.5154 0.67324 3.2118 2.124 3.5759 2.561 0.64277 7.8793 2.7869 7.8793 3.1766 0 0.2398-0.31164 0.78036-0.69254 1.2013-0.85268 0.9422-0.5225 1.2055 2.7173 2.1672 1.225 0.3636 2.4094 0.71807 2.6321 0.78772 0.95398 0.2983 3.0752 0.15582 4.0081-0.26923zm15.608-1.6662c0.25307-0.72384 0.56609-2.3246 0.69561-3.5574 0.2243-2.1349 0.1842-2.2646-0.84452-2.7334-0.59399-0.27064-1.6003-0.49208-2.2362-0.49208-1.4105 0-2.0453 1.4485-2.0453 4.6667 0 1.9844 0.08193 2.1566 1.3161 2.765 1.9578 0.9651 2.5965 0.83202 3.1143-0.64885zm-7.1637-1.3931c0.16704-0.09527 0.30371-1.3187 0.30371-2.7187 0-2.7877-0.49708-3.5931-2.5309-4.1006-1.9982-0.49869-2.9879 0.05837-4.1122 2.3146-1.0231 2.0531-1.0302 2.1227-0.29982 2.9374 0.41147 0.45896 0.86423 1.1627 1.0062 1.5638 0.22628 0.63956 0.57002 0.69531 2.7937 0.45303 1.3946-0.15195 2.6723-0.35422 2.8394-0.44949z"/>
 </g>
</svg>
