<?xml version="1.0" encoding="UTF-8" standalone="no"?>
<!-- Created with Inkscape (http://www.inkscape.org/) -->
<svg id="svg2" xmlns:rdf="http://www.w3.org/1999/02/22-rdf-syntax-ns#" xmlns="http://www.w3.org/2000/svg" height="54" width="99" version="1.1" xmlns:cc="http://creativecommons.org/ns#" xmlns:dc="http://purl.org/dc/elements/1.1/">
 <metadata id="metadata7">
  <rdf:RDF>
   <cc:Work rdf:about="">
    <dc:format>image/svg+xml</dc:format>
    <dc:type rdf:resource="http://purl.org/dc/dcmitype/StillImage"/>
    <dc:title/>
   </cc:Work>
  </rdf:RDF>
 </metadata>
 <g id="g6104">
  <rect id="rect2990" opacity="0" height="54" width="99" y="0" x="0"/>
  <path id="path4076" d="m31.406 49.222c-1.2143-0.23689-2.544-1.2138-3.4789-2.5557-0.62906-0.90304-0.63207-0.99708-0.63097-19.707 0.00099-21.125-0.14998-19.678 2.2471-21.506l1.1133-0.84927 18.396-0.08407c10.118-0.04624 18.7-0.0095 19.071 0.0816 0.91859 0.22573 2.8838 2.0456 3.3037 3.0594 0.25055 0.60487 0.31976 5.8682 0.25688 19.534-0.08489 18.451-0.09452 18.717-0.70628 19.542-0.34112 0.46002-1.185 1.2698-1.8752 1.7995l-1.255 0.964-17.684-0.034c-9.7259-0.01873-18.167-0.12846-18.759-0.2438zm35.311-2.8792c0.40299-0.26948 1.0994-0.82784 1.5477-1.2408l0.81494-0.75085v-16.978c0-19.003 0.01816-18.819-1.9489-19.757-0.92668-0.4419-2.7486-0.49338-17.462-0.49338-14.688 0-16.536 0.05202-17.458 0.49155-1.2988 0.61936-1.713 1.6121-1.5985 3.8318l0.0903 1.7516 1.3335 0.08799c1.8966 0.12514 2.0744 0.49517 2.0744 4.3164 0 2.6119 0.0968 3.3608 0.49045 3.7958 0.9122 1.008 4.562 0.51167 4.5369-0.61692-0.006-0.25907-0.20108-0.80442-0.43402-1.2119-0.23293-0.40747-0.42823-1.2365-0.43401-1.8423-0.008-0.87499 0.20659-1.3185 1.0455-2.1574 0.78651-0.78651 1.0323-1.2614 0.96311-1.8607-0.0843-0.72955-0.24513-0.82848-1.7228-1.0592-1.8815-0.29375-2.3707-0.60396-2.3707-1.5032 0-1.258 0.43314-1.3565 5.965-1.3565 4.381 0 5.3311 0.07736 5.7194 0.46568 1.0856 1.0856 0.25104 2.1272-1.9051 2.3779-2.027 0.23568-2.0744 0.26507-2.0744 1.2875 0 0.6076 0.2837 1.0528 1.0372 1.6275 0.90366 0.68926 1.0372 0.95619 1.0372 2.0733 0 0.77819-0.17472 1.4272-0.44451 1.6511-0.58562 0.48603-0.56478 1.4503 0.0459 2.1252 0.40812 0.45098 0.95278 0.54193 3.2452 0.54193 3.8643 0 5.3343 0.37677 6.9892 1.7913 1.2328 1.0537 1.4289 1.3973 1.8468 3.2344 0.56434 2.4812 0.59688 4.1671 0.09371 4.8552-0.32436 0.44358-0.84352 0.50005-3.9265 0.42707l-3.5528-0.0841-0.0774-1.4817c-0.11643-2.2277-0.28159-2.6812-1.1148-3.0608-0.50585-0.23048-2.8764-0.34715-7.0534-0.34715-5.2147 0-6.4042 0.07896-6.9501 0.46132-0.62473 0.43757-0.65863 0.66512-0.65863 4.4209 0 2.1778-0.0809 4.1705-0.17988 4.4283-0.13304 0.34673-0.59318 0.46875-1.7676 0.46875-2.0357 0-2.2013 0.30103-2.2013 4.0006 0 3.0232 0.18837 3.6703 1.4401 4.9468l0.78248 0.798 16.752 0.01695c15.106 0.01526 16.824-0.0312 17.484-0.47302zm-14.45-1.431c-1.2166-0.5289-2.1518-2.0519-2.1532-3.5067-0.00099-1.3602 0.39222-2.1783 1.523-3.1662 0.46642-0.40747 1.0277-1.2743 1.2472-1.9262 0.54069-1.6054 1.1967-1.6642 1.9564-0.17514 0.33554 0.65772 0.98977 1.633 1.4538 2.1672 1.1531 1.3275 1.5234 2.1026 1.5234 3.1892 0 1.3893-0.766 2.597-2.0687 3.2616-1.3616 0.69461-2.161 0.73048-3.4819 0.15624z"/>
 </g>
</svg>
