<?xml version="1.0" encoding="UTF-8" standalone="no"?>
<!-- Created with Inkscape (http://www.inkscape.org/) -->
<svg id="svg2" xmlns:rdf="http://www.w3.org/1999/02/22-rdf-syntax-ns#" xmlns="http://www.w3.org/2000/svg" height="45" width="67.5" version="1.1" xmlns:cc="http://creativecommons.org/ns#" xmlns:dc="http://purl.org/dc/elements/1.1/">
 <metadata id="metadata7">
  <rdf:RDF>
   <cc:Work rdf:about="">
    <dc:format>image/svg+xml</dc:format>
    <dc:type rdf:resource="http://purl.org/dc/dcmitype/StillImage"/>
    <dc:title/>
   </cc:Work>
  </rdf:RDF>
 </metadata>
 <g id="g3866">
  <rect id="rect2990" opacity="0" height="45" width="67.5" y="0" x="3.5527e-15"/>
  <path id="path4112" d="m48.742 44.873c-0.71829-0.23943-1.2599-0.89931-6.8376-8.3305-1.9119-2.5472-3.6288-4.7881-3.8153-4.9798-0.1865-0.19165-0.59492-0.71219-0.90761-1.1568-0.44664-0.63503-0.68813-0.77828-1.1266-0.66824-0.30693 0.07704-0.7306 0.07385-0.9415-0.0071-0.2109-0.08093-1.4343-1.3926-2.7187-2.9148-1.4883-1.7639-2.5051-2.7676-2.8036-2.7676-0.25761 0-0.80027 0.24538-1.2059 0.54528l-0.73753 0.54528-0.89232-0.99577c-0.49077-0.54767-1.5409-1.7347-2.3336-2.6379l-1.4412-1.6422-2.137 0.16718c-1.1754 0.09195-2.3532 0.09857-2.6174 0.01472-0.49197-0.15615-2.4441-2.4331-2.4441-2.8507 0-0.12755 0.40306-0.57785 0.89569-1.0007 0.49263-0.42281 1.5788-1.37 2.4138-2.1048 0.83496-0.73482 2.1809-1.8818 2.991-2.5489 0.81009-0.66708 1.4729-1.3631 1.4729-1.5468 0-0.18367-0.43595-0.76989-0.96878-1.3027l-0.96877-0.96877-0.69928 0.45079c-0.3846 0.24793-1.397 1.0652-2.2499 1.8162-2.9144 2.5664-5.1322 4.3431-5.4213 4.3431-0.31831 0-1.352-1.2905-1.352-1.6879 0-0.13752 0.51923-0.93005 1.1538-1.7612 0.63462-0.83112 1.5911-2.1297 2.1255-2.8858 0.53442-0.75608 1.8462-2.0993 2.915-2.985 1.0688-0.88567 2.1206-1.7789 2.3374-1.985 1.005-0.9529 3.755-3.0264 4.017-3.0264 0.16085 0 0.50741 0.27328 0.77014 0.60729 0.26274 0.33401 0.59216 0.60729 0.73204 0.60729 0.36843 0 0.50273 0.29709 0.76902 1.7013 0.30517 1.6092 1.0049 2.5871 2.0072 2.8052 1.0019 0.21802 1.516 0.58048 2.2685 1.5993 0.3905 0.52871 0.55678 1.0049 0.47085 1.3484-0.097 0.38782 0.20777 0.97756 1.1298 2.1862 1.4365 1.883 1.7748 2.1948 2.6255 2.4192 1.3517 0.35667 2.912 2.1479 2.9198 3.352 0.004 0.58237 0.5294 1.3659 2.4396 3.637 2.1154 2.5151 2.4156 2.9818 2.2889 3.5587-0.1147 0.52224 0.0248 0.86367 0.65353 1.5993 0.85274 0.99773 6.2984 6.8137 9.6121 10.266 2.0463 2.1318 2.6924 3.3196 2.411 4.433-0.29067 1.1502-1.5783 2.7799-2.9231 3.6995-1.5179 1.038-2.8427 1.3983-3.8753 1.0541zm3.0822-1.9821c2.1244-1.4986 2.8149-3.0153 2.0222-4.4418-0.16458-0.29614-1.3905-1.6692-2.7242-3.0511-1.3337-1.382-3.9929-4.1731-5.9093-6.2025-2.0811-2.2038-3.6676-3.6898-3.9393-3.6898-0.5702 0-2.9448 2.057-3.2462 2.8121-0.1792 0.44895-0.0813 0.77292 0.48583 1.6079 0.39064 0.57511 0.78869 1.0809 0.88457 1.124 0.0959 0.04308 0.78592 0.95118 1.5334 2.018 0.74753 1.0668 2.0355 2.8039 2.8621 3.8602 0.82665 1.0563 2.195 2.8627 3.0408 4.0141 2.0388 2.7757 3.1839 3.223 4.9901 1.9489zm-7.319-7.9496c-0.69567-0.69566-0.0755-1.7701 0.93519-1.6202 0.73754 0.1094 1.1477 0.80236 0.80191 1.3547-0.32678 0.52191-1.3277 0.67489-1.7371 0.2655zm-4.394-5.245c-0.38486-0.73445 0.0911-1.5182 0.92196-1.5182 0.57916 0 0.76393 0.12742 0.88516 0.61045 0.0879 0.35012 0.0254 0.76449-0.14658 0.97166-0.40927 0.49315-1.3884 0.45548-1.6605-0.06389zm-2.129-2.894c2.0612-1.6415 3.3062-2.8852 3.3062-3.3026 0-0.42805-4.2055-5.3874-4.6394-5.471-0.50028-0.09634-2.4052 1.5911-2.4052 2.1306 0 0.24511 0.54657 1.0998 1.2146 1.8992 0.66802 0.79947 1.2146 1.5848 1.2146 1.7453 0 0.16043-0.54656 0.7831-1.2146 1.3837-0.66802 0.60061-1.2146 1.2311-1.2146 1.4011 0 0.54594 0.99062 1.5892 1.509 1.5892 0.27614 0 1.2793-0.619 2.2293-1.3756zm-7.9507-4.6135c0.98635-0.75549 2.4638-1.9852 3.2831-2.7328 0.81938-0.74756 1.8215-1.6047 2.2269-1.9047 0.78998-0.58459 1.1218-1.0003 1.1278-1.4128 0.006-0.38002-0.93419-1.3211-1.3191-1.3211-0.18275 0-1.3374 0.88704-2.5658 1.9712-2.4863 2.1942-2.707 2.2306-3.827 0.63062-0.30029-0.42897-1.0869-1.3812-1.748-2.116-0.6611-0.73482-1.3407-1.5929-1.5103-1.9069-0.33761-0.62507-0.48574-0.45417 3.0545-3.524 0.74837-0.64892 1.3607-1.3115 1.3607-1.4724 0-0.3377-0.89373-1.3558-1.1902-1.3558-0.23848 0-2.2184 1.6275-7.5087 6.1719-2.8206 2.4229-3.9328 3.5264-3.9328 3.9019 0 0.28799 0.32263 0.83272 0.71695 1.2105 0.71148 0.68164 0.7342 0.68568 2.9757 0.52911 1.2423-0.08678 2.3863-0.07401 2.5421 0.02838 0.15585 0.10239 0.6292 0.6226 1.0519 1.156 0.94687 1.1949 3.1487 3.5205 3.3332 3.5205 0.0746 0 0.94259-0.61812 1.9289-1.3736zm2.7631-6.6044c0.39628-0.34773 0.72051-0.84536 0.72051-1.1059 0-0.67522-3.0956-4.2524-3.696-4.2711-0.4025-0.01251-1.891 1.5409-1.891 1.9735 0 0.56958 1.6088 2.7977 2.6568 3.6795 0.83516 0.70274 1.1375 0.66498 2.2098-0.27599zm-14.778-6.1049c2.0453-1.6674 3.9374-3.2342 4.2046-3.4818s1.114-0.96032 1.8817-1.5838c1.4785-1.2008 1.6259-1.5499 1.0195-2.4156-0.56968-0.81333-1.3328-0.65753-2.7943 0.5705-0.72683 0.61071-1.6494 1.3864-2.0503 1.7237-3.0983 2.6075-6.9892 7.4007-6.5648 8.0873 0.0947 0.15315 0.26497 0.24536 0.3785 0.2049 0.11351-0.04045 1.8798-1.4378 3.9251-3.1051zm7.8845-1.0354c1.3227-0.9063 1.4735-1.4463 0.69051-2.4728-0.96622-1.2668-1.6608-1.3614-2.6875-0.36632-0.45801 0.44392-0.83274 0.98153-0.83274 1.1947 0 0.38214 1.5411 2.1892 1.867 2.1892 0.0922 0 0.52543-0.24513 0.96267-0.54473z"/>
 </g>
</svg>
