<?xml version="1.0" encoding="UTF-8" standalone="no"?>
<!-- Created with Inkscape (http://www.inkscape.org/) -->
<svg id="svg2" xmlns:rdf="http://www.w3.org/1999/02/22-rdf-syntax-ns#" xmlns="http://www.w3.org/2000/svg" height="45" width="67.5" version="1.1" xmlns:cc="http://creativecommons.org/ns#" xmlns:dc="http://purl.org/dc/elements/1.1/">
 <metadata id="metadata7">
  <rdf:RDF>
   <cc:Work rdf:about="">
    <dc:format>image/svg+xml</dc:format>
    <dc:type rdf:resource="http://purl.org/dc/dcmitype/StillImage"/>
    <dc:title/>
   </cc:Work>
  </rdf:RDF>
 </metadata>
 <g id="g3938">
  <rect id="rect2990" opacity="0" height="45" width="67.5" y="0" x="3.5527e-15"/>
  <path id="path4148" d="m58.467 33.299c-0.551-0.186-1.119-0.404-1.263-0.484-0.343-0.192-2.97-2.794-3.659-3.624-0.296-0.357-0.79-0.896-1.097-1.198-0.308-0.303-0.639-0.705-0.736-0.895-0.387-0.758-1.933-1.101-4.321-0.958-1.3443 0.08037-9.7298 0.04596-10.617-0.04357-0.30203-0.03047-0.3959-0.13786-0.437-0.49991-0.06645-0.58496-0.23666-0.68762-1.145-0.69054-0.71927-0.0023-2.466-0.49456-2.8349-0.7989-0.10208-0.08422-0.25208-0.11203-0.33335-0.06181-0.17633 0.10898-1.7558-0.20758-1.866-0.374-0.0423-0.06388-0.59238-0.16162-1.2224-0.21719-0.62999-0.05558-1.2368-0.1768-1.3483-0.26941-0.11157-0.0926-0.68666-0.17197-1.2779-0.17638-0.5913-0.0044-1.0751-0.06444-1.0751-0.1334s-0.19619-0.12537-0.43595-0.12537c-0.23978 0-0.48601-0.05006-0.54718-0.11122-0.0612-0.06118-0.71318-0.12776-1.4489-0.14795-0.73572-0.0202-1.6838-0.06153-2.107-0.09186-1.115-0.07991-5.7399-0.09634-6.4623-0.02297-0.3385 0.03438-0.85778 0.08269-1.154 0.10734-0.29619 0.02465-0.64238 0.1101-0.76935 0.18988-0.12694 0.07978-0.30004 0.163-0.38466 0.18494-0.8049 0.20862-1.7386 0.40805-2.7654 0.59068-0.67473 0.12-1.4079 0.28133-1.6294 0.35852-0.22142 0.07718-0.5892 0.10466-0.81735 0.06105-0.26573-0.0508-0.51823 0.01435-0.70274 0.18133-0.17429 0.15773-0.59916 0.27635-1.0762 0.30047-0.43353 0.02192-0.86925 0.1209-0.96833 0.21995-0.25283 0.25282-0.58014 0.22421-0.58014-0.05071 0-0.2455 0.27872-0.56344 0.96443-1.1001 0.25769-0.20168 0.388-0.42092 0.33392-0.56183-0.10836-0.28236-0.60509-0.43151-0.79725-0.23936-0.20177 0.20176-2.0318 0.55224-2.4581 0.47075-0.53625-0.10251-0.7498-0.59868-0.4163-0.9672 0.14681-0.16221 0.38108-0.29493 0.52061-0.29493 0.29824 0 1.2373-0.92355 1.2373-1.2169 0-0.14366-0.14465-0.17648-0.50006-0.11344-1.2132 0.21517-2.1155 0.28247-2.1144 0.15771 0.0015-0.16409 0.73533-0.51989 1.0724-0.51989 0.13357 0 0.36143-0.13848 0.50634-0.30773 0.14492-0.16925 0.45458-0.31571 0.68812-0.32548 0.39907-0.01668 0.50267-0.03163 0.8862-0.12785 0.08462-0.02123 0.32696-0.04908 0.53852-0.0619 0.27454-0.01664 0.37172-0.1004 0.33945-0.29257-0.02625-0.15647 0.05108-0.26927 0.18468-0.26927 0.12645 0 0.28527-0.09177 0.35294-0.20393 0.06765-0.11216 0.24422-0.24847 0.39231-0.3029 0.42163-0.15496 0.3482-0.85553-0.10785-1.0289-0.37375-0.1421-1.2952-0.12386-1.5617 0.03091-0.2669 0.154-3.449 0.297-3.449 0.155 8.6623e-8 -0.077 0.24233-0.271 0.53853-0.43 0.29619-0.16 0.53857-0.374 0.53857-0.475 0-0.10199 0.13848-0.22939 0.30773-0.28311 0.50237-0.15944 0.35297-0.54551-0.31219-0.80678-0.6402-0.25148-0.75218-0.60605-0.17092-0.54134 0.20534 0.02286 0.32924-0.04952 0.32924-0.19233 0-0.12594 0.12308-0.22898 0.2735-0.22898s0.41007-0.09399 0.57699-0.20886c0.39574-0.27234 1.8577-0.61657 2.0676-0.48683 0.08971 0.05545 0.3806-0.0077 0.6464-0.14027 0.2658-0.1326 0.56802-0.24109 0.6716-0.24109 0.10357 0 0.2767-0.1065 0.38472-0.23666 0.1203-0.14495 0.44062-0.23419 0.82665-0.23027 0.94823 0.0096 1.2369-0.0279 1.3325-0.17312 0.04778-0.07255 0.77475-0.16278 1.6156-0.2005 0.84083-0.03773 2.3597-0.12944 3.3752-0.20382 1.0292-0.07538 1.9235-0.07675 2.0207-0.0031 0.10822 0.08201 0.20852 0.0431 0.26444-0.10259 0.04958-0.1291 0.22495-0.23472 0.3898-0.23472 0.16486 0 0.32813-0.08517 0.36284-0.18928 0.0465-0.1395 0.15654-0.14758 0.41845-0.03071 0.20874 0.09314 0.72369 0.11513 1.2481 0.0533 0.49103-0.05789 1.4163-0.07904 2.0562-0.04698s1.1635-0.0032 1.1635-0.07836c0-0.27488 0.50239-0.32646 0.68936-0.07077 0.17592 0.24058 0.21329 0.24076 0.55321 0.0027 0.38396-0.26894 1.1459-0.3446 1.2803-0.12713 0.04358 0.07052 0.29001 0.09728 0.54761 0.05947s0.46837 0.000097 0.46837 0.08423c0 0.08606 0.63252 0.18064 1.4458 0.21621 0.79515 0.03478 1.5395 0.13746 1.6541 0.22818 0.22599 0.179 0.293 0.19111 1.4392 0.26003 0.42313 0.02544 0.87315 0.09036 1.0001 0.14427 0.12693 0.05391 0.50774 0.08903 0.84623 0.07805 0.85193-0.02763 3.4484 0.41876 3.6587 0.62901 0.09492 0.09492 0.43787 0.17258 0.76208 0.17258 0.63824 0 0.90188-0.30437 0.58961-0.68066-0.30272-0.36476 0.02505-0.38441 1.3799-0.08276 0.71669 0.15959 1.6147 0.35814 1.9955 0.44123 0.38081 0.08308 1.5061 0.19641 2.5007 0.25182 0.9945 0.05541 1.8468 0.16316 1.8939 0.23942 0.0489 0.07914-0.64913 0.13867-1.626 0.13867-0.97965 0-1.8509 0.07447-2.0371 0.17412-0.31506 0.16862-0.31624 0.18077-0.03742 0.38466 0.26843 0.19628 0.25826 0.21054-0.14998 0.21054-0.4168 0-0.42545 0.01377-0.17957 0.28548 0.1421 0.15701 0.21706 0.39309 0.16658 0.52463-0.0603 0.15719 0.02032 0.27471 0.23519 0.34292 0.26161 0.08303 0.29082 0.14732 0.14615 0.32163-0.09944 0.11982-0.3437 0.21786-0.54278 0.21786-0.32007 0-0.35129 0.0534-0.26973 0.46121 0.05385 0.26916 0.01455 0.55478-0.09425 0.68592-0.15135 0.18236-0.10782 0.30338 0.23102 0.6422 0.37483 0.37483 0.39193 0.4362 0.16733 0.60043-0.1376 0.10061-0.25017 0.27152-0.25017 0.3798 0 0.23206 0.4514 0.60358 0.74185 0.61057 0.21631 0.0052 0.64294 0.37187 0.64294 0.55256 0 0.05943-0.23097 0.07058-0.51327 0.02476-0.60498-0.09817-0.95265 0.0712-0.82568 0.40222 0.04987 0.13001 0.008 0.266-0.09298 0.30219-0.40093 0.14364 0.1186 0.33883 0.90615 0.34044 0.45834 0.0009 0.85065 0.05062 0.87188 0.11041s-0.08736 0.25574-0.24124 0.43547c-0.19004 0.22196-0.38893 0.29936-0.6201 0.24134-0.7444-0.18683-1.4473 0.34234-0.97065 0.73081 0.32947 0.26856 0.43728 0.71131 0.17321 0.71131-0.26704 0-0.29254 0.17961-0.05873 0.41345 0.12045 0.12045 0.12045 0.19621 0 0.27065-0.37494 0.23172-0.12199 0.39395 0.64052 0.4108 0.44429 0.0098 0.66932 0.04713 0.50006 0.08292-0.16925 0.03579-0.46352 0.09832-0.65393 0.13895-0.37931 0.08094-0.47684 0.58118-0.15387 0.78915 0.10579 0.06812 0.7809 0.13279 1.5002 0.1437 0.71931 0.01091 1.5675 0.07217 1.8848 0.13615l0.57699 0.11631 0.01155-0.82793c0.03787-2.7071 0.14478-5.3957 0.28688-7.2133 0.08932-1.1425 0.16256-2.5421 0.16277-3.1103 0.000307-0.82763 0.05392-1.0612 0.26964-1.1738 0.2865-0.14957 5.6345 0.03279 6.0392 0.20593 0.12694 0.0543 0.43852 0.42288 0.6924 0.81908 0.286 0.4463 0.5933 0.73904 0.80775 0.7695 0.62013 0.08807 0.28239 0.48936-0.41186 0.48936-0.37377 0-0.80903 0.51623-0.6921 0.82088 0.12891 0.33593 1.0184 0.87165 1.4474 0.87165 0.19005 0 0.61859-0.15346 0.95228-0.34102 0.40406-0.22709 0.64236-0.2858 0.71334-0.17572 0.17648 0.27371 1.6344 0.8571 1.6941 0.67788 0.08397-0.25191 0.51137-0.18922 0.73708 0.10811 0.17958 0.23657 0.20499 0.18409 0.2093-0.43219 0.0027-0.3858-0.08165-0.81668-0.18744-0.95753-0.10578-0.14086-0.64238-0.36926-1.1924-0.50756-0.9531-0.23964-1.4722-0.48994-1.3238-0.63833 0.03765-0.03763 0.65099 0.15289 1.3631 0.42335 1.1372 0.43196 1.4615 0.6495 2.6664 1.7888l1.3718 1.297 1.6156-0.0619c2.7758-0.10636 4.9693 0.39113 6.1428 1.3933 0.64213 0.54836 0.57901 0.79793-0.32094 1.2691-1.1756 0.61542-1.8668 0.80618-3.2831 0.906l-1.3848 0.09762 0.02822 0.41771c0.01553 0.22974 0.30524 1.303 0.6438 2.3849 0.7492 2.3942 0.8004 2.7115 0.44899 2.7815-0.18369 0.03655-0.29309-0.07908-0.36036-0.38087-0.12472-0.55954-0.64659-2.1332-0.8211-2.476-0.0743-0.14594-0.34351-0.69378-0.59824-1.2174-0.25473-0.52365-0.50572-0.90953-0.55775-0.85748-0.05203 0.05203-0.18724-0.03209-0.30047-0.18694-0.12051-0.16481-0.28363-0.23348-0.39343-0.16562-0.11944 0.07382-0.21878-0.0035-0.2735-0.21268-0.09248-0.35361-1.6453-1.5488-2.0123-1.5488-0.15408 0-0.19563 0.10678-0.13522 0.34748 0.04796 0.19111 0.02085 0.45076-0.06025 0.57699-0.13061 0.2033-0.16478 0.20315-0.29897-0.0013-0.08333-0.12694-0.15257-0.45339-0.15386-0.72545-0.0025-0.52478-0.32717-0.81323-0.91545-0.81323-0.27412 0-0.31784 0.09524-0.31784 0.6924 0 0.38081-0.06173 0.69239-0.13718 0.69239-0.19898 0-0.34578-0.70755-0.23685-1.1416 0.07245-0.28864 0.0045-0.43065-0.30361-0.63238-0.46187-0.30263-0.861-0.20685-0.861 0.20661 0 0.37639-0.4736 0.798-0.8964 0.798-0.1835 0-0.60188-0.24234-0.9297-0.53853-0.66478-0.60059-0.7896-0.64778-0.7896-0.29852 0 0.37946 1.5045 1.8701 2.2533 2.2326 0.50189 0.24296 0.82403 0.30231 1.2288 0.22637 0.36993-0.0694 0.5158-0.04983 0.44787 0.06009-0.15526 0.25122 0.95115 1.8055 1.5477 2.1742 0.29238 0.1807 0.80828 0.36566 1.1465 0.41102 0.79613 0.10679 0.94553 0.34868 0.21534 0.34868-0.43818 0-0.54431 0.05151-0.4755 0.2308 0.14202 0.3701-0.02069 0.27582-0.8292-0.48041-0.59618-0.55766-0.78015-0.65954-0.85215-0.47188-0.13323 0.34719 0.66242 1.616 1.1818 1.8846 0.45896 0.23734 0.55667 0.44157 0.29007 0.60633-0.25958 0.16043-0.17165 0.5513 0.19233 0.85493 0.29601 0.24695 0.30717 0.28955 0.07694 0.29393-0.39347 0.0075-0.32885 0.39751 0.12501 0.7545 0.53074 0.41747 1.3765 0.68141 1.9253 0.60086 0.59348-0.08711 0.58316 0.16945-0.0116 0.2884-0.56237 0.11248-0.58216 0.24506-0.07693 0.51545 0.21156 0.11323 0.38466 0.2634 0.38466 0.33373 0 0.29358-0.4836 0.08723-1.2329-0.52606-0.43942-0.35966-1.0295-0.7947-1.3112-0.96683-0.28177-0.1721-0.63816-0.41836-0.792-0.54725-0.15383-0.12888-0.46638-0.31378-0.69456-0.41089-0.22818-0.0971-0.70328-0.43712-1.0558-0.75555-0.75068-0.67817-1.684-1.0652-1.8686-0.77475-0.21333 0.33539-0.31721 1.2002-0.18014 1.4996 0.07395 0.16146 0.95678 1.1236 1.9619 2.138 1.6699 1.6854 1.9124 1.8727 2.8135 2.1725 0.79365 0.26411 1.0307 0.29103 1.2152 0.13799 0.31165-0.25864 0.36503-0.14792 0.16137 0.33473l-0.16725 0.40275-1.002-0.3375zm-5.1675-6.1553c0.33384-0.61991 0.27772-0.85725-0.2723-1.1516-0.35703-0.19108-0.43625-0.18386-0.71102 0.06481-0.39158 0.35438-0.38961 0.61028 0.009 1.1701 0.41426 0.58178 0.62596 0.5637 0.97433-0.08322zm-7.994-1.817c0.1523-0.49065 0.37825-11.115 0.23934-11.255-0.28472-0.28472-0.38578 0.09179-0.42233 1.5733-0.02017 0.81818-0.1124 3.3026-0.20492 5.5209-0.09253 2.2183-0.12386 4.1051-0.0696 4.1928 0.13508 0.21857 0.38507 0.20066 0.45753-0.03278zm2.5132 0c0.09678-0.11753 0.19691-2.1669 0.25745-5.2699 0.05452-2.7926 0.13562-5.2676 0.18026-5.4999 0.0675-0.35102 0.01245-0.44847-0.32556-0.57699-0.57971-0.2204-1.7681-0.19609-1.842 0.03769-0.1045 0.3303-0.38552 10.875-0.29604 11.108 0.1433 0.37343 1.7524 0.53275 2.0259 0.20059zm1.6517-0.12019c0.12302-0.19905 0.34478-3.3669 0.44256-6.3222l0.07447-2.2496-0.45071-0.43181c-0.24789-0.2375-0.47969-0.40223-0.51512-0.36609-0.0354 0.03614-0.10022 1.8098-0.14398 3.9415-0.06368 3.1037-0.039 3.9095 0.12415 4.0448 0.15575 0.12926 0.16523 0.27102 0.04028 0.60207-0.2408 0.63794 0.11544 1.2877 0.42838 0.78135zm1.7023-0.41834c0.23866-0.31735 0.73074-0.8886 1.0935-1.2694 0.36275-0.38081 0.66038-0.7986 0.66138-0.9285 0.00075-0.12985-0.2214-0.36795-0.49424-0.52912-0.27283-0.16117-0.71548-0.53254-0.98363-0.8253-0.7899-0.8622-0.9777-0.63782-1.0052 1.201-0.05025 3.3588-0.04418 3.3783 0.72822 2.3513zm-0.24355-1.3121c0-0.43681 0.40504-1.0343 0.70112-1.0343 0.36785 0 0.27706 0.86723-0.1199 1.1453-0.46325 0.32447-0.58122 0.30196-0.58122-0.1109zm-40.196-1.687c0.28062-0.22606 0.23697-0.69602-0.15176-1.6339l-0.344-0.83 0.355-0.25c1.3599-0.95693 2.0257-1.957 2.0257-3.0427 0-0.83888-0.63087-1.8056-1.4312-2.193-0.95798-0.46376-2.0135-0.4222-3.459 0.13622-2.1311 0.8232-2.7122 1.4372-2.1231 2.243 0.1945 0.266 0.27365 0.27776 0.72444 0.10761 0.27834-0.10506 0.56358-0.13352 0.63386-0.06323 0.07027 0.07028 0.47422 0.98715 0.8976 2.0375 0.42341 1.0503 0.87075 2.1278 0.99413 2.3945 0.12338 0.26666 0.22432 0.52875 0.22432 0.58241s0.11398 0.2715 0.25328 0.4841c0.21233 0.32407 0.33046 0.37005 0.73085 0.28455 0.26268-0.05609 0.56414-0.17171 0.66992-0.25693zm-1.3164-4.387c-0.07395-0.1481-0.29603-0.67692-0.49346-1.1752-0.35094-0.8856-0.35242-0.91073-0.06623-1.12 0.32798-0.23983 1.0133-0.15324 1.5681 0.19813 0.46011 0.29138 0.46263 1.0961 0.0053 1.6916-0.56923 0.7412-0.79988 0.83348-1.0137 0.40541zm55.946 4.1871c1.9703-0.45215 2.2216-1.1146 0.68183-1.7977-1.2578-0.55806-1.8828-0.62966-5.3975-0.61829-3.0593 0.0099-3.1359 0.01793-3.371 0.35369-0.2276 0.32494-0.21657 0.36111 0.20339 0.66725 1.1567 0.84315 2.1902 1.3515 2.9867 1.4688 1.4467 0.21316 3.8009 0.1777 4.8967-0.07376zm-50.779-0.11c0.08706-0.10578 0.20692-0.51899 0.26636-0.91823 0.13348-0.8967 0.31009-1.0502 1.2292-1.0687 0.66202-0.01329 0.77663 0.04116 1.3064 0.62075 0.3194 0.34943 0.62679 0.63531 0.68308 0.63531 0.25682 0 0.98258-0.47521 1.0688-0.69981 0.08827-0.23003-0.75008-1.9638-1.224-2.5313-0.106-0.12694-0.57967-0.97673-1.0526-1.8884-1.3808-2.6618-1.5763-2.9279-2.0616-2.8061-0.63488 0.15935-0.79793 0.37181-0.79793 1.04 0 0.53114-0.32509 2.8534-0.54965 3.9265-0.0486 0.23224-0.28028 0.43181-0.69297 0.59694-0.5807 0.23235-0.617 0.28325-0.57338 0.804 0.03637 0.43504 0.1409 0.60095 0.48032 0.7629 0.37126 0.1771 0.42706 0.28461 0.38729 0.74628-0.03375 0.39143 0.03473 0.59873 0.24958 0.75585 0.36686 0.26825 1.0692 0.28149 1.2811 0.02414zm0.6487-4.039c0-0.60672 0.34199-0.74178 0.61004-0.24092 0.27121 0.50675 0.19235 0.7794-0.22538 0.7794-0.33704 0-0.38466-0.06667-0.38466-0.53852zm19.448 3.8773c0.24146-0.17655 0.25469-0.29884 0.1124-1.0386-0.30566-1.5893-0.65386-3.1397-0.71994-3.2057-0.03645-0.03644 0.0038-0.15131 0.09062-0.25527 0.11667-0.14057 0.31261-0.1495 0.76448-0.03481 0.8004 0.20317 1.0763 0.07988 1.0763-0.48106 0-0.43042-0.33127-0.939-0.61163-0.939-0.07043 0-1.1742-0.17663-2.4529-0.39249-1.2787-0.21587-2.3932-0.35027-2.4767-0.29865-0.19407 0.11994-0.19614 0.78248-0.0038 1.1423 0.08558 0.15992 0.40242 0.31769 0.74934 0.37317 0.33059 0.05286 0.67651 0.18701 0.76868 0.2981 0.0922 0.1111 0.3113 0.95993 0.48687 1.8863 0.50693 2.6745 0.59855 2.8984 1.2318 3.0103 0.29618 0.05233 0.57722 0.10426 0.62451 0.1154 0.04733 0.01114 0.20915-0.06979 0.35967-0.17987zm-9.2288-0.04715c0.3042-0.11673 0.30725-0.75075 0.0095-1.9838-0.27365-1.1333-0.27421-1.154-0.0312-1.154 0.27772 0 2.1828 1.9766 2.4841 2.5772 0.22592 0.45048 0.31796 0.50006 0.9282 0.50006 0.63975 0 1.161-0.27986 1.161-0.62333 0-0.07687-0.09966-0.40081-0.22147-0.71987-0.12179-0.31906-0.36824-1.2379-0.54764-2.0418-0.77805-3.4867-0.9369-3.8466-1.6977-3.8466-0.78758 0-0.87285 0.34777-0.51839 2.1157 0.15761 0.78608-0.17592 0.62853-1.7077-0.80663-0.76163-0.71363-1.6154-1.4213-1.8973-1.5725l-0.51246-0.275-0.3715 0.4616c-0.47281 0.58748-0.46835 0.86325 0.0234 1.4477 0.47105 0.55981 0.56198 0.86415 1.0563 3.5354 0.20815 1.1247 0.45958 2.1427 0.55873 2.2622 0.18584 0.22391 0.855 0.28846 1.284 0.12384zm-22.067-0.368c0-0.08462-0.10385-0.15386-0.2308-0.15386-0.12694 0-0.2308 0.06924-0.2308 0.15386s0.10386 0.15386 0.2308 0.15386c0.12695 0 0.2308-0.06924 0.2308-0.15386zm18.015-0.167c0.3527-0.3527 0.34592-0.5564-0.10714-3.2185-0.12242-0.71932-0.28111-1.8789-0.35264-2.5769-0.14534-1.4181-0.31643-1.7314-0.94553-1.7314-0.67496 0-0.95348 0.38753-0.87435 1.2167 0.22245 2.3321 0.7917 5.9895 0.97808 6.2843 0.27731 0.4385 0.87698 0.45038 1.3016 0.02577zm32.356-0.641c0.16032-0.59824 0.11034-0.72723-0.40308-1.0403-0.63246-0.38561-0.83213-0.38405-1.0421 0.0082-0.14289 0.26699-0.08819 0.3942 0.36386 0.84623 0.61664 0.61664 0.95048 0.67401 1.0813 0.18584zm3.3923-0.74585c0.08298-0.07572 0.05129-0.15572-0.07694-0.19418-0.97965-0.29378-2.7473-0.96338-3.0401-1.1516-0.22016-0.14153-0.65089-0.21828-1.1079-0.19743-0.49431 0.02255-0.966-0.07133-1.3917-0.27702-0.59764-0.28875-0.90983-0.30179-0.90983-0.03798 0 0.05986 0.36374 0.32639 0.80828 0.5923 0.57218 0.34224 0.93075 0.46005 1.2275 0.40332 0.26672-0.05098 0.65837 0.04543 1.0766 0.26505 1.5054 0.79058 2.9294 1.0399 3.4142 0.59759zm1.0863-1.0565c0.11074-0.17919-0.45436-0.7749-0.73508-0.7749-0.25307 0-0.5693 0.31055-0.5693 0.55908 0 0.16479 0.2275 0.24016 1.0295 0.34106 0.10078 0.01268 0.22448-0.04366 0.27488-0.1252zm-8.4855-3.9533c0.16322-0.16322-0.20569-0.50384-0.44586-0.41168-0.31763 0.12188-0.26995 0.51292 0.06255 0.51292 0.15514 0 0.32765-0.04556 0.38333-0.10124zm10.413 17.95c0-0.08462 0.17719-0.15386 0.39374-0.15386 0.22331 0 0.35258 0.0666 0.29865 0.15386-0.0523 0.08462-0.22949 0.15386-0.39374 0.15386-0.16426 0-0.29865-0.06924-0.29865-0.15386zm-3.0751-1.4566c-0.3503-0.8172-0.45916-1.5207-0.24585-1.5887 0.14804-0.04721 0.75773 2.1209 0.63184 2.2469-0.04 0.04-0.21369-0.25616-0.38599-0.65811zm1.9981-4.451c0-0.03343 0.27696-0.08719 0.61546-0.11947 0.33851-0.03228 0.61546-0.0049 0.61546 0.06077 0 0.06571-0.27696 0.11947-0.61546 0.11947-0.33851 0-0.61546-0.02734-0.61546-0.06077zm-18.809-1.271c0.10578-0.04268 0.27888-0.04268 0.38466 0s0.0192 0.07761-0.19233 0.07761c-0.21156 0-0.29811-0.03492-0.19233-0.07761zm0.07986-1.8511c0.14971-0.03901 0.35742-0.03644 0.4616 0.0057 0.10417 0.04215-0.0183 0.07406-0.27219 0.07093-0.25388-0.0032-0.33911-0.03762-0.18941-0.07663zm1.3848-3.6928c0.1497-0.03901 0.35742-0.03644 0.46159 0.0057 0.10418 0.04215-0.0183 0.07406-0.27219 0.07093-0.25388-0.0031-0.33911-0.03762-0.1894-0.07663zm0.54521-1.3832c0.11107-0.04444 0.24378-0.03898 0.29491 0.01215 0.05115 0.05113-0.03975 0.0875-0.20194 0.08081-0.17925-0.0074-0.21571-0.04385-0.09296-0.09296z"/>
 </g>
</svg>
