<?xml version="1.0" encoding="UTF-8" standalone="no"?>
<!-- Created with Inkscape (http://www.inkscape.org/) -->
<svg id="svg2" xmlns:rdf="http://www.w3.org/1999/02/22-rdf-syntax-ns#" xmlns="http://www.w3.org/2000/svg" height="54" width="99" version="1.1" xmlns:cc="http://creativecommons.org/ns#" xmlns:dc="http://purl.org/dc/elements/1.1/">
 <metadata id="metadata7">
  <rdf:RDF>
   <cc:Work rdf:about="">
    <dc:format>image/svg+xml</dc:format>
    <dc:type rdf:resource="http://purl.org/dc/dcmitype/StillImage"/>
    <dc:title/>
   </cc:Work>
  </rdf:RDF>
 </metadata>
 <g id="g87330">
  <rect id="rect2990" opacity="0" height="54" width="99" y="0" x="0"/>
  <path id="path8364" d="m18.5 48.884c0-1.0532 1.1063-5.2048 2.0194-7.5784 0.40998-1.0657 1.1399-2.9957 1.6221-4.2889 1.5753-4.2251 1.8026-4.4584 5.5016-5.645 4.012-1.287 5.0214-1.8084 7.0018-3.6167 1.5009-1.3705 1.5416-1.4505 0.95893-1.8844-0.33468-0.24925-0.79879-0.45319-1.0313-0.45319-1.399 0-4.4498-2.5201-4.947-4.0864-0.35761-1.1267-0.7596-0.27329-1.0868 2.3073-0.16893 1.3323-0.47483 2.7357-0.6798 3.1187-0.50381 0.94136-0.73455 0.17846-0.31235-1.0327 0.17902-0.5135 0.42511-2.1616 0.54689-3.6625 0.1335-1.6452 0.43743-3.108 0.76542-3.6837 0.29919-0.5252 0.6385-1.4944 0.75401-2.1539 0.1454-0.83003 0.66897-1.6826 1.7016-2.7709 1.2529-1.3204 1.7892-1.642 3.3515-2.0095 1.0229-0.24063 2.5089-0.43971 3.3022-0.4424 2.0624-0.007 3.382-0.54079 3.6131-1.4615 0.10588-0.42185 0.10881-0.85069 0.006-0.95298-0.10231-0.10228-2.059-0.19838-4.3482-0.21354-4.555-0.030171-5.518 0.21466-7.7275 1.9646-0.63735 0.5048-1.7182 1.1713-2.4019 1.4812-0.6837 0.30984-1.4908 0.7679-1.7936 1.0179-0.30279 0.25002-0.61842 0.38669-0.7014 0.30372-0.14387-0.14387 4.7899-3.4812 6.4142-4.3388 0.42535-0.22456 1.7001-0.63859 2.8327-0.92005 1.7535-0.43574 2.3371-0.45401 3.929-0.123 1.0283 0.21382 2.4594 0.39492 3.1802 0.40244 1.1154 0.011643 1.3254 0.1187 1.4107 0.71904 0.0791 0.55727 0.33266 0.72493 1.2075 0.79859 0.91863 0.07734 1.3212-0.10965 2.3622-1.0972 0.69019-0.65475 1.4615-1.5167 1.7141-1.9155 0.31909-0.50379 0.86374-0.77918 1.7849-0.9025 1.7046-0.22818 2.7618 0.43705 3.5591 2.2395 0.74704 1.6888 1.3812 2.2627 1.9651 1.7782 0.3175-0.2635 0.67776-0.22433 1.4416 0.15674 1.2326 0.61488 3.1539 0.42404 5.2955-0.526 1.1528-0.51141 2.1099-0.64831 4.5411-0.64954 3.4883-0.00176 3.8491 0.14878 6.1656 2.5723 1.375 1.4384 2.8287 2.4419 2.8183 1.9453-0.003-0.13538-0.67294-0.85818-1.4891-1.6062-0.81616-0.74804-1.8112-1.665-2.2112-2.0377-0.39998-0.3727-0.92235-1.0457-1.1608-1.4956-0.62307-1.1755-1.6844-1.4598-6.1876-1.658-3.7022-0.16292-4.1574-0.11902-6.1084 0.58918-1.1595 0.42087-2.2633 0.97739-2.4529 1.2367-0.26244 0.3589-0.432 0.38426-0.71005 0.10621-0.4943-0.4943-0.46623-0.65455 0.2617-1.4939 0.34484-0.39761 0.62699-0.96621 0.62699-1.2636 0-0.29735 0.21441-0.71858 0.47647-0.93607 0.48854-0.40545 1.7463-0.30584 9.2495 0.73256 3.2395 0.44832 4.7901 1.3452 7.0008 4.0494 1.1229 1.3736 1.6781 1.8215 2.1157 1.7071 0.39755-0.10396 0.7864 0.11958 1.1786 0.6775 1.293 1.8396 1.6897 3.0263 1.792 5.36 0.0572 1.3033 0.25266 2.8633 0.43448 3.4668 0.18182 0.60348 0.61999 2.7901 0.9737 4.8591 0.4884 2.8569 0.8573 4.1013 1.5334 5.1726 0.48969 0.7759 1.345 2.7509 1.9007 4.3889 0.55572 1.638 1.6999 4.587 2.5425 6.5533 0.84267 1.9663 1.4886 3.6187 1.4355 3.6718-0.37699 0.37699-4.3766-9.0543-5.228-12.328-0.18869-0.72551-0.48131-1.4045-0.65028-1.509-0.66011-0.40797-1.2938-2.1885-2.0347-5.7169-1.4412-6.8633-1.69-7.8357-2.4366-9.5239-0.42587-0.96298-1.2043-2.0405-1.8153-2.5129-0.58834-0.45483-1.9162-1.6226-2.9507-2.5951-1.0345-0.97246-2.2075-1.8512-2.6067-1.9528-0.39915-0.1016-1.8275-0.12095-3.1742-0.042994-2.2843 0.13224-2.5982 0.24036-4.682 1.6132-1.2285 0.80932-2.2336 1.6721-2.2336 1.9173 0 0.65961 1.2581 1.4221 2.3426 1.4198 1.0227-0.0022 2.4124-0.77868 3.1274-1.7473 0.35604-0.48235 0.52312-0.52404 0.84154-0.20997 0.21851 0.21553 0.86845 0.39187 1.4443 0.39187 2.3055 0 5.6775 2.5637 6.4836 4.9292 0.61647 1.8092 0.61748 2.3814 0.008 4.4342-0.34708 1.1688-0.93249 2.0949-2.0377 3.2236-1.7237 1.7603-1.938 2.7111-1.0763 4.7736 0.26094 0.62453 0.34755 1.1355 0.19247 1.1355-0.44568 0-1.2939-2.0348-1.2939-3.1039v-0.97148l-1.9593-0.0427c-1.0776-0.02348-1.6419-0.10383-1.254-0.17855 0.38794-0.07473 0.70536-0.30434 0.70536-0.51027s0.84766-0.74905 1.8837-1.207c1.6982-0.75058 1.9603-0.99706 2.6616-2.5036 0.42786-0.91908 0.77931-2.1702 0.78099-2.7802 0.005-1.7022-1.201-3.7886-2.6616-4.6056-1.3947-0.78021-3.3733-0.97569-3.117-0.30795 0.0853 0.22212-0.27188 0.8128-0.79358 1.3126-0.5217 0.49982-0.94855 1.1567-0.94855 1.4597 0 0.30299-0.49307 1.0878-1.0957 1.7439-0.60266 0.65618-1.0964 1.3721-1.0972 1.5909-0.00094 0.26767-0.25793 0.33348-0.78524 0.20114-0.94479-0.23713-1.0576 0.41588-0.27744 1.6065 0.27847 0.42499 0.38427 0.7716 0.23512 0.77026-0.41071-0.0037-1.0572-1.5595-1.2657-3.0458-0.19224-1.3708 0.24156-2.9252 1.0964-3.9289 0.25791-0.30279 0.3743-0.64518 0.25862-0.76085-0.11567-0.11567-0.42795 0.06153-0.69397 0.39379-1.5867 1.9818-1.8457 4.8762-0.61527 6.874 1.1137 1.8082 0.97593 1.9505-0.62116 0.64183-1.3961-1.144-4.091-2.4105-5.9926-2.8164-0.74914-0.1599-1.0255-0.08809-1.1766 0.30573-0.29023 0.75632-0.005 1.0298 1.4636 1.405 2.0995 0.53625 4.3235 1.831 6.0999 3.5511l1.6458 1.5937v-1.3071-1.3071l0.93883 0.53403c0.56399 0.32082 0.76441 0.57206 0.50196 0.62928-0.62988 0.13734-0.93647 2.1321-0.43689 2.8425 0.54394 0.77353 1.7856 1.7811 4.7957 3.8916 3.6774 2.5783 4.0461 3.3081 5.639 11.161 0.88804 4.3782 0.89329 4.4242 0.50636 4.4242-0.15472 0-0.43946-0.95224-0.63274-2.1161-0.85733-5.1624-2.0122-9.2339-3.0592-10.786-0.68704-1.0182-1.4592-1.6397-5.2431-4.2194-0.94314-0.64301-1.3322-1.0331-4.9236-4.9358-1.7839-1.9385-3.6442-3.0687-6.0472-3.6738-1.6643-0.41907-1.8106-0.5799-1.9416-2.1335-0.0526-0.62357-0.18873-1.736-0.30263-2.472-0.13088-0.8458-0.0738-1.4988 0.15513-1.7747 0.22854-0.27538 0.24889-0.50646 0.0552-0.6262-0.16888-0.10437-0.39567-0.0464-0.50397 0.12884s-0.58358 0.31861-1.0562 0.31861c-1.0699 0-1.6084 0.51488-1.6228 1.5518-0.006 0.43967-0.20467 1.1491-0.44125 1.5764-0.36753 0.66391-0.36303 0.90675 0.0308 1.6684 0.65107 1.259 0.21096 1.6264-2.4786 2.0689-3.0322 0.49888-8.2629 3.0359-10.407 5.0478-1.9026 1.785-2.529 2.1076-6.6733 3.4362l-3.2087 1.0287-0.9855 2.0779c-0.54205 1.1428-1.2394 2.7832-1.5498 3.6453-0.31035 0.86211-0.94431 2.555-1.4088 3.7619-0.46447 1.207-1.0786 3.2805-1.3647 4.608-0.54 2.5053-0.9703 3.4307-0.9703 2.0867zm53.292-26.07c-0.00086-0.20591-0.34846 0.04883-0.77246 0.5661-1.0064 1.2278-1.0062 1.8319 0.00019 0.68788 0.42561-0.48377 0.77313-1.0481 0.77227-1.254zm-39.431 0.19326c-1.2509-1.1931-1.9436-2.817-1.9471-4.5647-0.00096-0.47416-0.14281-0.86211-0.31524-0.86211-0.45939 0-0.38232 2.3633 0.11595 3.5559 0.40668 0.9733 2.9732 3.4912 3.2631 3.2013 0.0747-0.07468-0.42785-0.67337-1.1167-1.3304zm5.8554 1.1661c1.4747-0.42294 2.3291-1.2336 1.8759-1.7797-0.26195-0.31564-0.22101-0.61713 0.16353-1.204 0.28214-0.43061 0.6006-1.4221 0.70768-2.2033 0.16485-1.2026 0.28411-1.392 0.77806-1.2352 0.4209 0.13359 0.58647 0.02647 0.59449-0.38458 0.009-0.45601 0.10052-0.41329 0.45913 0.214l0.44802 0.78373 0.0111-0.8746c0.0128-1.0125-0.90877-2.959-1.7696-3.7375-0.82492-0.74599-2.7316-1.502-3.7737-1.4962-0.67831 0.0038-0.76765 0.07235-0.40194 0.30869 0.38026 0.24574 0.33526 0.30481-0.23512 0.30869-0.38795 0.0026-0.70536-0.13627-0.70536-0.30869s-0.13664-0.31349-0.30365-0.31349c-0.16702 0-0.22957 0.19307-0.13902 0.42904 0.0991 0.25819-0.10466 0.49946-0.51162 0.60588-0.93524 0.24457-0.46652 0.84603 0.65931 0.84603 1.0097 0 1.2457 0.53184 0.37336 0.84122-0.30174 0.10701-0.79647 0.40747-1.0994 0.66769s-0.85639 0.62673-1.2299 0.81446c-0.37353 0.18773-0.90766 0.75482-1.187 1.2602-0.63393 1.147-1.2645 1.3961-1.2645 0.49948 0-0.414-0.13405-0.58877-0.34946-0.45563-0.21393 0.13221-0.29307 0.803-0.20404 1.7295 0.18201 1.8942 1.4057 3.5821 3.1818 4.3886 1.4614 0.66364 2.394 0.73397 3.922 0.29575zm7.0867-1.3742c1.3644-0.31684 1.5675-0.46521 1.5675-1.1455 0-0.64741-0.16954-0.79798-0.98795-0.87745-0.74528-0.07236-1.265 0.14737-2.1161 0.89458-1.8137 1.5924-1.4889 1.8309 1.5366 1.1284zm17.279-6.5293c0.3254-0.2898 1.0145-0.74741 1.5314-1.0169 1.33-0.69346 0.26545-0.60095-1.3086 0.11372-1.4808 0.67232-2.2032 1.598-2.4747 3.1707l-0.18657 1.0808 0.92342-1.4107c0.50788-0.7759 1.1897-1.6478 1.5151-1.9376zm-4.0445-1.6241c-1.0093-1.089-2.5826-1.4338-2.7972-0.61308-0.28724 1.0984 2.287 2.5808 3.146 1.8116 0.34117-0.30554 0.27817-0.52207-0.34871-1.1985zm-24.568-1.1838c1.3686-0.71225 1.3348-1.0577-0.0731-0.74844-0.52238 0.11473-1.3789 0.69735-1.9034 1.2947-1.189 1.3542-1.255 2.0025-0.0915 0.899 0.47416-0.44971 1.4048-1.1001 2.0681-1.4453zm11.399 1.3755c0.11133-0.30174 0.2968-0.61915 0.41214-0.70536 0.43758-0.32706 0.6187-1.8446 0.24753-2.074-0.20598-0.1273-0.42831-0.07009-0.49405 0.12716-0.0764 0.22924-0.57446 0.07145-1.3805-0.43737-1.689-1.0662-1.9598-0.65291-0.46803 0.71423l1.2018 1.1013-0.65422 0.69639c-0.85217 0.90709-0.82505 1.1262 0.13935 1.1262 0.46968 0 0.87618-0.22392 0.99598-0.54861zm10.622-2.8191c-0.21741-0.21741-0.81217 0.22432-0.81217 0.60319 0 0.20788 0.17989 0.18409 0.47782-0.06318 0.2628-0.2181 0.41326-0.46111 0.33435-0.54002zm-5.3835 0.04252c0.7562-0.29018 0.59103-0.75019-0.26934-0.75019-0.42087 0-0.86176-0.15619-0.97974-0.34708-0.14036-0.2271-0.009-0.2821 0.37779-0.15909 0.39575 0.1256 0.7244-0.02353 0.99036-0.44941 0.50318-0.80571 0.24246-1.2389-0.74564-1.2389-1.1316 0-1.6503 1.2733-0.95249 2.3384 0.54705 0.83491 0.76511 0.91863 1.5791 0.60629zm-3.267-1.013c0-0.40819-0.37267-0.67966-0.67583-0.4923-0.32422 0.20038-0.0446 0.75355 0.38084 0.75355 0.16224 0 0.29499-0.11756 0.29499-0.26124zm11.913-5.2c2.007-0.4887 1.6-0.8554-1.025-0.9238-1.478-0.0385-1.651 0.0272-1.741 0.6626-0.11863 0.83532 0.25245 0.87022 2.7649 0.26005zm13.482 30.18c-0.19401-0.7502-0.42439-1.6109-0.51196-1.9126-0.0876-0.30174-0.031-0.54861 0.12552-0.54861 0.31945 0 1.1595 3.4049 0.90327 3.6611-0.0902 0.09023-0.32281-0.44973-0.51683-1.1999zm-60.177-2.824c-0.0468-0.61453 2.0916-4.7259 3.5381-6.8025 0.91811-1.318 2.0745-3.3661 2.5697-4.5513 0.49522-1.1852 1.295-2.7771 1.7774-3.5377 0.48234-0.76057 0.87698-1.4544 0.87698-1.5418 0-0.08741 0.41423-1.0449 0.9205-2.1278 0.50628-1.0829 1.0161-2.3496 1.1329-2.8149 0.28914-1.1521 1.8977-2.4037 4.2737-3.3256 2.462-0.95521 3.2559-1.4209 4.6499-2.7277 1.0882-1.0201 1.1451-1.0344 4.5457-1.1423 3.2899-0.10435 3.5276-0.06786 5.3246 0.8173 2.1492 1.0587 3.6026 2.0969 2.9353 2.0969-0.24252 0-1.3917-0.26365-2.5538-0.58588-1.8119-0.50243-2.7166-0.5544-6.3517-0.36487-3.5819 0.18676-4.3752 0.32188-5.1191 0.87183-0.48415 0.35794-1.5023 0.8357-2.2626 1.0617-1.9979 0.59383-4.0577 1.8168-4.3541 2.5851-0.95905 2.4861-2.1738 5.0478-3.2883 6.9342-0.71301 1.207-1.633 3.0409-2.0444 4.0754-0.41139 1.0345-1.4812 2.8685-2.3773 4.0754-0.89612 1.207-2.2028 3.323-2.9036 4.7024-0.70087 1.3794-1.2814 2.4153-1.29 2.3021zm26.557-27.411c0.907-0.0965 1.568-0.3052 1.47-0.4649-0.262-0.4242-6.64-0.3705-6.904 0.0581-0.49139 0.79508 0.80561 0.89191 5.4336 0.40564zm28.602 17.784c0-0.14917 0.28717-0.6363 0.63817-1.0825 0.35099-0.44621 0.78795-1.241 0.97102-1.7661 0.18307-0.52515 0.46018-0.87613 0.61581-0.77995 0.58522 0.36169 0.24894 1.7223-0.69 2.7917-0.94204 1.0729-1.535 1.3962-1.535 0.83692z"/>
 </g>
</svg>
