<?xml version="1.0" encoding="UTF-8" standalone="no"?>
<!-- Created with Inkscape (http://www.inkscape.org/) -->
<svg id="svg2" xmlns:rdf="http://www.w3.org/1999/02/22-rdf-syntax-ns#" xmlns="http://www.w3.org/2000/svg" height="54" width="99" version="1.1" xmlns:cc="http://creativecommons.org/ns#" xmlns:dc="http://purl.org/dc/elements/1.1/">
 <metadata id="metadata7">
  <rdf:RDF>
   <cc:Work rdf:about="">
    <dc:format>image/svg+xml</dc:format>
    <dc:type rdf:resource="http://purl.org/dc/dcmitype/StillImage"/>
    <dc:title/>
   </cc:Work>
  </rdf:RDF>
 </metadata>
 <g id="g87540">
  <rect id="rect2990" opacity="0" height="54" width="99" y="0" x="0"/>
  <path id="path8697" d="m78.151 49.187c-1.6688-0.22454-3.4605-0.53794-3.9816-0.69646-1.7084-0.51965-4.911-0.67982-5.9659-0.29836-0.7916 0.28625-1.2447 0.27855-2.2623-0.03843-0.69986-0.218-2.5333-0.50294-4.0744-0.63321-1.541-0.13027-3.6646-0.37406-4.719-0.54176-1.872-0.29774-6.4137-0.80669-9.2161-1.0328-1.5762-0.12716-4.3399-0.64303-5.6931-1.0627-2.0677-0.64124-6.1196-1.2203-9.5707-1.3678-3.9306-0.16796-5.4744-0.49194-4.709-0.98824 0.23781-0.1542 1.096-0.21032 1.9071-0.1247 2.3043 0.24324 5.7415 0.4928 7.5209 0.54604 0.89218 0.02669 2.4072 0.35164 3.3666 0.72209 1.5301 0.5908 1.925 0.63482 3.2142 0.35834 1.216-0.26079 1.5553-0.23775 1.9655 0.13344 1.0728 0.97091 4.1334 0.35993 4.1371-0.8259 0.00059-0.19118 0.2553 0.06926 0.56598 0.57876 0.70178 1.1509 0.77145 1.1929 2.3786 1.4326 0.72106 0.10755 1.5146 0.3001 1.7634 0.4279 0.24879 0.1278 0.96041 0.32414 1.5814 0.43632 0.98822 0.17853 1.1492 0.1267 1.2911-0.41576 0.10197-0.38997 0.35852-0.58788 0.69198-0.53382 0.31913 0.05173 0.93955-0.38338 1.5597-1.0938 0.75709-0.86735 1.1185-1.0937 1.3647-0.85492 0.24795 0.24046 0.13951 0.45289-0.41752 0.81788-1.0215 0.66932-0.95419 0.9346 0.46456 1.8302 0.87951 0.55521 1.4317 0.71533 1.9908 0.57734 1.5962-0.39393 1.9111-0.32908 2.0942 0.43139 0.18744 0.77823 1.3307 1.1354 2.3175 0.724 0.40094-0.16716 0.33471-0.27182-0.36033-0.56945-1.1641-0.4985-0.50625-0.82054 0.98965-0.48444 0.79852 0.17942 1.4942 0.16349 2.0518-0.04698 0.67925-0.25639 0.93488-0.22721 1.3119 0.14977 0.25751 0.25752 1.0349 0.56364 1.7275 0.68028 0.69264 0.11664 1.5759 0.46055 1.9627 0.76426 0.97633 0.76646 2.3934 0.74415 2.3934-0.03768 0-0.70801 0.11139-0.72374 1.0003-0.1413 0.48748 0.31941 0.88788 0.37224 1.3906 0.18347 0.51555-0.1936 1.0011-0.11571 1.8002 0.28877 1.4052 0.71126 1.9587 0.6979 2.7728-0.0669 0.67088-0.63027 1.2943-0.55117 1.2943 0.16422 0 0.92875-3.5104 1.199-7.9006 0.60833zm-28.082-3.691c0-0.16222-0.13272-0.29494-0.29494-0.29494-0.16221 0-0.29494 0.13272-0.29494 0.29494s0.13273 0.29494 0.29494 0.29494c0.16222 0 0.29494-0.13272 0.29494-0.29494zm33.993-0.36867c0.11957-0.35566 2.3051-0.55676 3.0958-0.28486 0.9311 0.32017 0.20395 0.65354-1.4255 0.65354-1.3048 0-1.7604-0.10055-1.6702-0.36867zm-1.6493-2.029c-0.29819-0.17336-0.99725-0.26207-1.5534-0.19714-0.62187 0.07259-0.9722-0.0012-0.90979-0.19198 0.16706-0.51042 1.8713-0.52531 2.8392-0.0248 0.49697 0.257 0.90359 0.53022 0.90359 0.60716 0 0.24263-0.71568 0.13455-1.2795-0.19324zm-60.51-0.99986c-0.97329-0.21932-1.9355-0.40727-2.1383-0.41769-0.20277-0.01041-0.36867-0.15166-0.36867-0.31387 0-0.16386 0.7865-0.29494 1.7696-0.29494 0.97329 0 1.7696-0.07637 1.7696-0.16971s-0.89671-1.0556-1.9927-2.1383c-1.4161-1.3989-2.7816-3.2591-4.719-6.4283-1.4995-2.4529-2.7263-4.5994-2.7263-4.7701 0-0.17072-0.46452-0.91896-1.0323-1.6628-0.56775-0.7438-1.0323-1.4176-1.0323-1.4973s0.38191-0.14492 0.8487-0.14492c1.35 0 1.4831-0.44478 0.99649-3.3317-0.38712-2.2967-0.38686-2.652 0.002-3.0968 0.24174-0.27639 0.61523-1.0002 0.82999-1.6085 0.48028-1.3605 1.0283-1.4236 1.2806-0.14747 0.10424 0.5272 0.50793 1.3202 0.89709 1.7622 0.65367 0.74243 0.96182 0.82635 4.0462 1.1019 7.1887 0.64229 17.493 2.2351 20.233 3.1275l2.1471 0.69939 1.2447-0.70238c1.0471-0.59092 1.2447-0.8485 1.2447-1.6232 0-0.76231 0.19816-1.0332 1.1515-1.574 1.8175-1.031 1.9203-1.4081 0.9057-3.3218-0.48258-0.91025-1.0119-1.8767-1.1762-2.1476-1.7804-2.9349-2.5436-4.5517-2.2753-4.82 0.20692-0.20692 0.80186 0.63613 1.8808 2.6652 1.1698 2.2 1.8224 3.1005 2.5224 3.4805 0.91417 0.49624 0.98618 0.49167 2.2576-0.14329 1.4681-0.7332 1.3962-0.47558 1.8247-6.5414 0.19996-2.8309 0.34899-3.5393 0.7446-3.5393 0.35199 0 0.35028 2.5819-0.003 4.8665-0.15061 0.97329-0.31551 2.5639-0.36645 3.5346-0.10519 2.0045 0.26177 2.3279 1.5287 1.3471 0.69464-0.53775 0.75333-0.80877 1.0323-4.7671 0.21613-3.0668 0.40347-4.2326 0.69573-4.3291 0.32914-0.10871 0.36253 0.46662 0.18864 3.2498l-0.2113 3.3818 1.4335 0.17634c0.78844 0.09699 2.8271 0.57164 4.5304 1.0548 3.4249 0.9715 5.862 1.3518 6.3946 0.99773 0.19159-0.12737 0.39067-0.81313 0.4424-1.5239 0.0596-0.81902 0.27792-1.4075 0.59606-1.6069 0.69955-0.43833 0.92001-0.10466 0.99869 1.5115 0.10111 2.0771 0.56769 3.0806 1.3826 2.9738 0.80953-0.10608 1.6631 0.69257 2.4001 2.2458 0.48009 1.0117 0.51903 1.5717 0.32753 4.7092-0.28381 4.6498-0.23284 5.5528 0.33765 5.9828 0.6524 0.49168 1.5676-0.01673 1.3725-0.7625-0.17987-0.68785 0.46274-1.1521 0.8181-0.59107 0.1416 0.22355 0.25949 0.70167 0.26196 1.0625 0.003 0.42485 0.30974 0.81387 0.87063 1.1039 1.203 0.62207 1.3096 0.91034 0.7112 1.9233-0.6849 1.1595-0.42821 1.3739 2.2509 1.8805 1.8901 0.35739 2.3231 0.56115 3.1804 1.4966l0.99241 1.0829-0.20402 2.3388c-0.19694 2.2577-0.18051 2.3475 0.47399 2.5896 0.3729 0.13794 0.54811 0.33108 0.38937 0.42918-0.15874 0.09811-0.96108-0.16608-1.783-0.58709-1.0028-0.51366-1.6764-0.68986-2.0476-0.53563-0.30426 0.12641-1.6646 0.27708-3.0229 0.33482s-2.6523 0.25662-2.8756 0.44194c-0.31433 0.26087-0.406 0.23603-0.406-0.11002 0-0.50546 0.60475-0.80501 1.6252-0.80501 0.38069 0 0.90072-0.20856 1.1556-0.46347 0.48998-0.48997 0.62983-1.7584 0.22169-2.0106-0.13299-0.08219-1.6909-0.29683-3.462-0.47699-3.4145-0.34733-6.7241-1.2012-12.96-3.3439-3.3629-1.1555-4.7768-1.4493-11.503-2.3906-4.2176-0.59028-9.0514-1.2834-10.742-1.5402-2.8305-0.43012-3.1011-0.42909-3.4243 0.01297-0.55528 0.75939-2.4616 0.62447-3.3666-0.23828-0.62402-0.59485-1.3363-0.79995-4.1453-1.1936-5.8292-0.81694-11.29-1.6308-12.964-1.9322-1.2568-0.22624-1.696-0.20301-2.005 0.10608-0.33104 0.33105-0.20263 0.7538 0.78547 2.5857 0.71884 1.3327 1.5188 2.3893 2.0435 2.6993 2.7725 1.6377 13.646 4.5511 19.514 5.2284 2.8075 0.32404 12.564 1.6678 14.894 2.0515 0.97329 0.16022 3.108 0.38076 4.7439 0.49009 2.4772 0.16556 3.096 0.11903 3.7026-0.27843 0.58748-0.38494 0.92484-0.41676 1.7447-0.16454 0.55902 0.17197 2.4764 0.31876 4.2607 0.32621 3.0028 0.01253 3.9817 0.2222 3.9817 0.85284 0 0.13625-0.8456 0.16876-1.8791 0.07225-1.5258-0.14248-2.0554-0.07138-2.8162 0.37809-0.92858 0.54853-0.94774 0.54744-2.1073-0.11993-1.1374-0.65461-1.2-0.65934-2.2342-0.16862-0.86607 0.41098-1.2286 0.44271-1.9495 0.17062-0.70066-0.26447-1.1052-0.24247-1.9377 0.10537-0.93801 0.39192-1.0796 0.39067-1.3047-0.01159-0.30297-0.54137-2.2115-0.60767-3.2941-0.11443-0.59617 0.27163-0.88208 0.24311-1.4782-0.14747-0.81159-0.53177-2.9776-0.65729-3.2668-0.1893-0.10026 0.16222-0.68913 0.29494-1.3086 0.29494s-1.6109 0.20245-2.2031 0.44989c-1.0241 0.42791-1.1376 0.41488-2.3218-0.26662-1.5171-0.87309-3.4826-1.233-4.3113-0.78954-0.47685 0.2552-0.57113 0.52277-0.44949 1.2757l0.15392 0.95274-0.58927-1.0619c-1.0357-1.8664-2.9936-2.5537-4.8567-1.7048-0.57871 0.26368-0.86215 0.23396-1.4067-0.14747-0.388-0.27176-1.2653-0.47767-2.0351-0.47767-1.1171 0-1.5171 0.1604-2.2939 0.91981-1.1526 1.1269-1.1802 1.6639-0.12973 2.524l0.81108 0.66408-1.4747-0.0141c-0.81108-0.0078-2.271-0.19355-3.2443-0.41286zm62.232-3.6809c0-0.65661-0.13725-0.74727-1.2535-0.82804-1.2258-0.08869-1.2535-0.07042-1.2535 0.82804s0.0276 0.91673 1.2535 0.82804c1.1162-0.08076 1.2535-0.17143 1.2535-0.82804zm-3.1498-2.4431c0.49204-0.59287 0.0112-1.0252-1.2669-1.1391-0.93288-0.08314-1.1934 0.0012-1.2754 0.41306-0.17176 0.86299 1.9304 1.4633 2.5422 0.72605zm3.5922-0.0731c0-0.60653-0.88186-0.91515-1.19-0.41648-0.32654 0.52835-0.0848 0.86814 0.61759 0.86814 0.31745 0 0.57246-0.2012 0.57246-0.45166zm-7.3952-0.8493c0.23611-0.28448 0.24753-0.47662 0.0361-0.60728-0.41184-0.25453-0.89913 0.0698-0.89913 0.59843 0 0.54153 0.41738 0.54581 0.86301 0.0088zm-4.5891-1.273c-0.0216-0.48891-0.22224-1.2711-0.4458-1.7382-0.37721-0.78814-0.56547-0.86503-2.6151-1.0681-1.2148-0.12038-5.1285-0.59527-8.6973-1.0553-3.7321-0.4811-6.6129-0.72747-6.7811-0.57992-0.45383 0.39803 0.27283 0.70778 2.538 1.0819 1.1221 0.18531 4.0621 1.0136 6.5334 1.8405 4.5077 1.5085 8.6611 2.6289 9.2122 2.4851 0.16221-0.04233 0.27724-0.47698 0.2556-0.96588zm2.7756 0.64012c1.0529-0.73748 0.69376-1.6054-0.66429-1.6054-0.49621 0-0.80827 0.81002-0.58412 1.5162 0.21186 0.66751 0.40323 0.68118 1.2484 0.0892zm0.65105-2.4813c0.38734-0.2449 0.38734-0.42341 0-1.5439-0.57064-1.6508-1.5889-1.9271-1.8727-0.50806-0.29537 1.4769-0.23158 1.7493 0.47621 2.0338 0.85745 0.34465 0.87972 0.34494 1.3965 0.01818zm-4.8184-2.3038c-0.28232-0.28233-1.7706-0.56505-4.3651-0.82924-2.1652-0.22047-4.7331-0.53352-5.7064-0.69567-2.0948-0.34899-9.6296-1.1942-10.646-1.1942-0.39008 0-0.70922 0.11182-0.70922 0.24849 0 0.61028 2.1549 1.2235 5.3089 1.5108 3.6128 0.32907 9.5421 1.0433 13.42 1.6165 2.5702 0.37992 3.5067 0.152 2.6981-0.65663zm-19.067-0.02858c0-0.60618-0.9873-0.96783-3.2933-1.2063-1.3519-0.13983-4.0928-0.47772-6.091-0.75086-1.9982-0.27315-3.7156-0.41401-3.8166-0.31303-0.10098 0.10098 0.0152 0.38242 0.25822 0.62543 0.43089 0.43089 3.247 0.88415 7.3389 1.1812 1.0544 0.07656 2.3153 0.259 2.8019 0.40544 1.1654 0.35067 2.8019 0.38462 2.8019 0.05813zm20.593-2.1345c-0.0636-0.66418-0.26635-1.0261-0.61135-1.0914-0.61494-0.11649-0.69104 0.71362-0.17022 1.8567 0.44816 0.9836 0.90619 0.53512 0.78157-0.76528zm-35.5 0.0542c0.27731-0.4487-0.19977-0.58322-3.7155-1.0477-4.1441-0.54747-4.9726-0.55766-4.9726-0.06116 0 0.35152 2.4232 0.75991 7.0785 1.193 0.56776 0.05281 1.124 0.11727 1.2361 0.14323 0.11208 0.02596 0.28015-0.07635 0.37348-0.22736zm10.698-0.22195c0.25699-0.771-5.0462-2.4157-6.5623-2.0352-0.71361 0.1791-1.1957 1.005-0.81112 1.3896 0.12869 0.12869 0.96255 0.31382 1.853 0.41141 0.89048 0.09759 2.349 0.28447 3.2412 0.4153 1.8589 0.27259 2.1353 0.25062 2.2792-0.18114zm19.438-2.0924 0.19181-1.8352h-1.0687c-1.1409 0-1.134-0.01084-1.5004 2.3595-0.18383 1.1891 0.0318 1.6474 0.86294 1.8335 0.92918 0.20808 1.3078-0.38144 1.5144-2.3578zm-3.3156 1.8274c0.0985-0.25659 0.17903-1.3847 0.17903-2.507 0-2.3657-0.27818-2.2455 3.6867-1.594 3.4494 0.56675 4.5431 0.56058 4.7686-0.0269 0.32966-0.85908-0.60443-1.3117-3.312-1.6047-11.713-1.2678-16.703-1.8467-17.94-2.081-0.79266-0.15021-1.8118-0.2731-2.2647-0.2731-0.90817 0-1.9365 0.8167-1.5345 1.2187 0.31438 0.31438 2.6398 0.74794 6.1253 1.142 7.4848 0.84626 9.6355 1.1303 9.7992 1.294 0.0987 0.09873-0.0275 0.17952-0.28049 0.17952-0.6038 0-0.81806 0.61877-0.81806 2.3626 0 1.82 1.1109 3.14 1.5906 1.8899zm6.3727 0.02413c0-0.24332-0.13273-0.44241-0.29494-0.44241-0.16222 0-0.29494 0.19908-0.29494 0.44241 0 0.24332 0.13272 0.44241 0.29494 0.44241 0.16221 0 0.29494-0.19908 0.29494-0.44241zm-43.208-0.90535c0-0.30869-0.21556-0.60277-0.47902-0.65351-0.6026-0.11605-1.0037 0.83593-0.48951 1.1618 0.5536 0.35086 0.96853 0.13309 0.96853-0.5083zm9.438-0.42036c0-0.33675-0.62947-0.51118-2.6648-0.73845-2.6655-0.29763-4.7237-0.18358-4.0752 0.22582 0.18619 0.11755 1.3807 0.35847 2.6544 0.53538 1.2738 0.17691 2.3773 0.38263 2.4523 0.45717 0.31759 0.31547 1.6332-0.07113 1.6332-0.47992zm22.434-0.11898c0.30187-1.2027 0.0427-2.0946-0.6087-2.0946-0.45348 0-0.61173 0.22813-0.6844 0.98662-0.052 0.54264-0.023 1.1731 0.0645 1.401 0.25481 0.66405 1.0351 0.47795 1.2286-0.29302zm-2.4363-0.83392c0.19777-1.4746-0.17965-2.0629-1.244-1.9392-0.69862 0.08121-0.77007 0.21854-0.85174 1.6371l-0.0892 1.5484h1.0088c0.96299 0 1.0165-0.05667 1.176-1.2463zm-16.606 0.65643c0-0.16222-0.19909-0.29494-0.44241-0.29494s-0.44241 0.13272-0.44241 0.29494 0.19909 0.29494 0.44241 0.29494 0.44241-0.13272 0.44241-0.29494zm13.715-1.3518c0-1.4453-0.003-1.4504-1.0323-1.5307-0.76166-0.05945-1.2642 0.11923-1.9171 0.68157-0.48664 0.41918-0.74664 0.82224-0.57776 0.89569 0.16887 0.07345 0.89884 0.45729 1.6222 0.85299 0.7233 0.3957 1.4478 0.68145 1.61 0.635 0.16222-0.04645 0.29494-0.73701 0.29494-1.5346zm-5.462-0.41783c1.2835-0.89219 2.2978-1.751 2.254-1.9084-0.0439-0.15743-0.5974-0.39381-1.2302-0.52528-1.0704-0.22239-1.2948-0.13808-3.2226 1.2105-2.255 1.5775-2.6497 2.2489-1.5779 2.6841 0.99789 0.40521 1.2102 0.32306 3.7767-1.4609zm24.485 1.1901c0-0.62439-1.0076-1.3313-1.4808-1.0389-0.32834 0.20293-0.38819 1.1258-0.0922 1.4218 0.10814 0.10814 0.5063 0.19662 0.88481 0.19662 0.48745 0 0.68819-0.16903 0.68819-0.5795zm-33.033-0.78387c0-0.47787-1.1609-0.99613-2.2312-0.99613-0.98593 0-1.0304 1.3782-0.056 1.7386 0.8222 0.30415 2.2873-0.17143 2.2873-0.74249zm-13.389 0.35764c0.0944-0.24586-0.0533-1.124-0.32812-1.9513-0.53265-1.6036-0.88534-1.8616-2.9523-2.1596-4.2047-0.60622-3.9762-0.60843-3.9762 0.03854 0 0.33089 0.28476 1.3457 0.63278 2.2552 0.44314 1.158 0.81881 1.6928 1.2535 1.7844 1.2815 0.27013 1.8452 0.33565 3.4996 0.40681 1.2942 0.05567 1.74-0.03344 1.8707-0.37393zm5.6469-0.2488c1.6018 0.05836 1.8434-0.0023 1.8434-0.46254 0-1.0825-0.75911-1.5949-3.1195-2.1058-1.2853-0.27818-2.5028-0.44983-2.7055-0.38145-0.4925 0.16608-0.46533 1.0425 0.0722 2.329 0.40356 0.96583 0.50969 1.0339 1.2535 0.80437 0.44694-0.13794 1.6421-0.22058 2.656-0.18364zm4.2029-0.35725c0-0.75122-0.95146-1.5135-1.4808-1.1864-0.39911 0.24666-0.36216 1.1322 0.0651 1.5594 0.63085 0.63085 1.4157 0.42404 1.4157-0.37304zm-17.991-0.02389c0-0.25075-0.3318-1.0792-0.73734-1.841s-0.73735-1.5495-0.73735-1.7505c0-0.4302-1.1232-0.76172-2.1083-0.62229-0.64667 0.09154-0.68688 0.20794-0.59419 1.7203 0.14912 2.4334 0.59731 2.9494 2.5618 2.9494 1.2605 0 1.6154-0.10015 1.6154-0.45592zm8.8518-1.4516c-0.45898-1.2072-0.6355-0.76508-0.2383 0.59686 0.18658 0.63974 0.38741 0.95363 0.44631 0.69753s-0.0347-0.83858-0.20801-1.2944zm16.66 1.0227c0.10026-0.16222-0.0246-0.29494-0.27752-0.29494-0.2529 0-0.45982 0.13272-0.45982 0.29494s0.12489 0.29494 0.27753 0.29494c0.15265 0 0.35955-0.13272 0.45981-0.29494zm-3.8489-0.8471c-0.15411-0.14148-0.87744-0.33961-1.6074-0.44031-1.2683-0.17495-1.2945-0.164-0.58987 0.24678 0.79369 0.4627 2.6706 0.62801 2.1973 0.19353zm-21.368-1.3086c0-0.21232-0.17882-0.63059-0.39739-0.92949-0.5594-0.76502-0.86101-0.10776-0.31093 0.67759 0.51258 0.73182 0.70832 0.80143 0.70832 0.2519zm55.444-1.5484c0.005-1.4116-0.57958-2.3732-1.2801-2.1044-0.72752 0.27918-0.63834 2.2897 0.14579 3.2866 0.76865 0.97718 1.1275 0.60312 1.1343-1.1822zm-2.9583 0.91841c0.19453-0.2344 0.31032-0.7321 0.25731-1.106-0.0762-0.53734-0.28184-0.67984-0.98118-0.67984-0.69935 0-0.90502 0.1425-0.98119 0.67984-0.17677 1.2469 0.97048 1.9911 1.7051 1.106zm-3.1969-0.53238c0.13961-1.5155-1.0492-4.3055-1.9153-4.4951-0.34408-0.07529-1.621-0.27762-2.8376-0.44962s-2.8756-0.43252-3.6867-0.57895c-2.8183-0.5088-3.8689-0.3791-5.5346 0.68326-0.84913 0.54156-2.108 1.3398-2.7974 1.7738-2.1887 1.378-2.0529 1.4397 4.6453 2.1096 2.5143 0.2515 5.8988 0.63897 7.5209 0.86104 3.8474 0.5267 4.5644 0.54162 4.6055 0.09587zm-17.594-3.2733c0.70652-0.51663 0.34529-1.077-0.69428-1.077-1.0404 0-1.2658 0.23232-0.89581 0.92359 0.34882 0.65179 0.84329 0.6995 1.5901 0.15343zm18.445-0.19221c0-0.57489-0.31283-0.76861-0.66787-0.41357-0.23627 0.23628 0.0729 1.0034 0.40449 1.0034 0.14485 0 0.26338-0.26544 0.26338-0.58988zm-2.3595 25.706c0-0.54484 0.7893-0.89591 2.2172-0.98617 1.2588-0.07957 1.5186-0.20509 1.8465-0.89231 0.26101-0.54693 0.68126-0.85207 1.3296-0.96536 1.1537-0.20161 2.6308 0.17769 2.8123 0.72214 0.0958 0.28732-0.0231 0.3379-0.42318 0.18003-1.1695-0.4615-2.3985-0.52936-2.6357-0.14555-0.14344 0.23208-0.0854 0.43437 0.14684 0.51178 0.52919 0.1764 1.49 1.168 1.49 1.5378 0 0.16707-0.39436 0.01221-0.87636-0.34416-0.78478-0.58022-0.99638-0.61196-2.025-0.30376-0.63177 0.18928-1.507 0.34415-1.9449 0.34415-0.43793 0-1.053 0.13739-1.3667 0.30531-0.31759 0.16997-0.57049 0.18598-0.57049 0.03612zm-14.248-7.6329c-0.65423-0.09834-0.80953-0.25986-0.73734-0.76689 0.0835-0.58603 0.23359-0.63313 1.7136-0.53754 1.8342 0.11846 2.6544 0.45384 2.6544 1.0854 0 0.43422-1.5693 0.52892-3.6307 0.21907z"/>
 </g>
</svg>
