<?xml version="1.0" encoding="UTF-8" standalone="no"?>
<!-- Created with Inkscape (http://www.inkscape.org/) -->
<svg id="svg2" xmlns:rdf="http://www.w3.org/1999/02/22-rdf-syntax-ns#" xmlns="http://www.w3.org/2000/svg" height="54" width="99" version="1.1" xmlns:cc="http://creativecommons.org/ns#" xmlns:dc="http://purl.org/dc/elements/1.1/">
 <metadata id="metadata7">
  <rdf:RDF>
   <cc:Work rdf:about="">
    <dc:format>image/svg+xml</dc:format>
    <dc:type rdf:resource="http://purl.org/dc/dcmitype/StillImage"/>
    <dc:title/>
   </cc:Work>
  </rdf:RDF>
 </metadata>
 <g id="g77642">
  <rect id="rect2990" opacity="0" height="54" width="99" y="0" x="0"/>
  <path id="path8734" d="m82.684 41.652c0.21266-0.08581 0.56066-0.08581 0.77333 0s0.0387 0.15603-0.38667 0.15603c-0.42533 0-0.59933-0.07021-0.38666-0.15603zm-41.506-0.378c-0.0934-0.15107-1.0571-0.20344-2.1417-0.11638-1.2882 0.1034-2.0466 0.03753-2.1872-0.19-0.14607-0.23635 0.21315-0.35637 1.1177-0.37342 1.6167-0.03047 2.3852-0.10113 4.5325-0.41666 1.2418-0.18248 1.5644-0.33083 1.2971-0.59655-0.2341-0.23272-1.725-0.34163-4.3595-0.31846-2.2021 0.01936-4.0038-0.08504-4.0038-0.232 0-0.14697-0.14742-0.26722-0.32759-0.26722-0.18018 0-0.25672 0.11467-0.17011 0.25481 0.24161 0.39093-2.4911 0.91955-4.993 0.96585-2.0249 0.03747-2.2427-0.01658-2.2427-0.55648 0-0.69622-0.88575-1.1395-1.3498-0.67548-0.2182 0.2182-0.13824 0.44999 0.25421 0.73696 0.53805 0.39342 0.51263 0.44853-0.42185 0.91471-0.82997 0.41405-1.6916 0.46455-5.2115 0.30545l-4.2171-0.19062 1.8383-0.44429c1.0111-0.24436 1.9775-0.61618 2.1477-0.82626 0.17013-0.21008 0.85649-0.47 1.5252-0.5776 0.66876-0.1076 1.4344-0.42164 1.7013-0.69786 0.51847-0.5364 0.18894-0.53553-6.6293 0.0175-2.0812 0.16881-2.1323 0.1568-1.3147-0.30874 1.4294-0.8139 0.98705-1.0833-1.7787-1.0833-2.4572 0-3.1575-0.25574-2.2448-0.81981 0.21149-0.13071 1.2903-0.26641 2.3973-0.30155 2.2155-0.07033 4.2176-0.50417 5.8068-1.2583 0.97409-0.46224 1.0605-0.45666 1.4456 0.09335 0.3471 0.49563 0.79271 0.58148 2.918 0.56219 1.3796-0.01252 2.6025-0.11692 2.7176-0.232 0.11508-0.11508 0.61524-0.20924 1.1114-0.20924 1.8273 0 0.48773-1.0598-3.48-2.7533-0.93574-0.39939-2.0493-0.96535-2.4747-1.2577-0.42534-0.29234-1.5389-0.93298-2.4747-1.4236-3.0373-1.5926-8.9339-5.6048-8.9586-6.0957-0.006-0.13181 0.37074-0.38581 0.83861-0.56444 0.83424-0.31851 0.83871-0.33384 0.23199-0.79368-0.51887-0.39326-2.9115-1.5809-4.024-1.9974-1.1078-0.41478-3.5542-2.0387-3.5544-2.3595-0.00018-0.21267 0.38248-0.40928 0.85035-0.43691 0.46787-0.02764 1.4075-0.0831 2.088-0.12326 2.4936-0.14715 4.5661-0.46663 5.1887-0.79984 0.35107-0.18789 2.1112-0.75118 3.9115-1.2518 2.8854-0.80233 3.7495-0.90744 7.2945-0.88732 6.0979 0.0346 11.528 0.62311 20.584 2.2311 2.6147 0.46424 3.9329 0.56219 4.9253 0.36595 1.4771-0.29211 2.0084-0.97137 0.97178-1.2424-0.9096-0.23786-0.88671-1.7542 0.0362-2.4006 1.5425-1.0804 3.3338-0.11293 3.3338 1.8006 0 0.57464 0.20044 1.2111 0.44543 1.4145 0.24499 0.20332 0.48859 0.67277 0.54134 1.0432 0.0924 0.64907 0.22513 0.67255 3.6532 0.64634 3.126-0.0239 4.0338-0.16455 7.4873-1.16 4.7589-1.3718 6.8628-1.4491 10.703-0.39319 1.4795 0.40679 4.0819 0.82719 5.7833 0.93423 1.7013 0.10704 3.4414 0.24982 3.8667 0.31728 0.42534 0.06747 0.92229 0.13427 1.1043 0.14844 0.18204 0.01418 0.92766 0.53651 1.6569 1.1607 1.3161 1.1265 1.3244 1.1466 1.1211 2.7067-0.32083 2.4612-0.47504 2.8567-1.2822 3.2887-1.2772 0.68354-4.7654 6.5368-4.7654 7.9964 0 0.28187 0.90481 1.4093 2.0107 2.5053s2.0107 2.2567 2.0107 2.5791c0 0.44968 0.17049 0.55374 0.73151 0.4465 0.40232-0.07691 0.98572 0.04606 1.2965 0.27327 0.49169 0.35953 0.29318 0.41311-1.5306 0.41311-1.538 0-2.0618 0.1029-1.9686 0.38667 0.0698 0.21267 0.53383 0.43378 1.0311 0.49137 0.49728 0.05759 1.0674 0.23972 1.2669 0.40473 0.19953 0.16502 1.2435 0.23039 2.32 0.14529 1.0765-0.08511 1.6092-0.08054 1.1839 0.0101-0.42534 0.09069-0.98739 0.35582-1.249 0.5892-0.31105 0.27746-1.4566 0.45506-3.3099 0.51313-2.4837 0.07783-2.8517 0.02187-2.9754-0.45252-0.10326-0.39602-0.46031-0.54261-1.3301-0.54607-0.65393-0.0026-1.3978-0.13968-1.653-0.3046-0.37767-0.24406-0.33861-0.30074 0.2099-0.3046 0.69761-0.0049 1.6461-0.74535 1.6461-1.285 0-0.17025-0.28493-0.21765-0.63686-0.10596-0.35845 0.11377-1.1006-0.01795-1.6977-0.3013-0.75971-0.3605-1.2229-0.41672-1.6315-0.19803-0.33175 0.17755-1.7416 0.22954-3.3676 0.12419l-2.797-0.18121v0.81175c0 0.75186 0.0941 0.80858 1.276 0.76881 0.70179-0.02362 1.4848 0.03742 1.74 0.13565 0.2552 0.09822 1.0208 0.31416 1.7013 0.47984 1.3538 0.3296 1.4232 0.31646-2.6293 0.49745-1.276 0.05699-2.7376 0.1645-3.248 0.23892-1.357 0.19786-6.4162-0.30115-6.6346-0.65439-0.2882-0.46631-2.8029-0.52227-3.0832-0.06862-0.26464 0.42819-5.8694 0.58849-6.9863 0.19981-0.34027-0.11842-0.96667-0.34121-1.392-0.4951-1.1276-0.40796-2.6452 0.09085-2.5673 0.84383 0.0586 0.56596-0.16026 0.59925-3.8667 0.58827-2.1608-0.0064-4.5119 0.09306-5.2247 0.22103s-1.3724 0.10907-1.4658-0.042zm19.022-1.593c0.82931-0.44383 0.74842-0.91712-0.15674-0.91712-0.81476 0-1.2537 0.43051-0.94626 0.928 0.23943 0.38742 0.36099 0.38622 1.103-0.01088zm11.734 0.01089c0-0.17013-0.2088-0.30934-0.464-0.30934s-0.46401 0.1392-0.46401 0.30934c0 0.17013 0.20881 0.30933 0.46401 0.30933s0.464-0.1392 0.464-0.30933zm-40.368-1.5467c0.10516-0.17013-0.034-0.30934-0.30933-0.30934-0.27528 0-0.41449 0.1392-0.30934 0.30934 0.10516 0.17013 0.24436 0.30933 0.30934 0.30933 0.065 0 0.20419-0.1392 0.30933-0.30933zm0-0.928c-0.10514-0.17013-0.39176-0.30934-0.63692-0.30934s-0.44574 0.1392-0.44574 0.30934c0 0.17013 0.28661 0.30934 0.63692 0.30934s0.5509-0.1392 0.44574-0.30934zm-7.1757-0.77334c0.0335-0.17013-0.63501-0.34102-1.4857-0.37974l-1.5467-0.0704 1.0827 0.42348c1.2165 0.47582 1.8594 0.48462 1.9497 0.02667zm10.638-0.02517c0.0613-0.18398-0.88704-0.72621-2.1073-1.205-2.1862-0.85773-2.2395-0.86299-3.6431-0.35997-0.78342 0.28077-1.7376 0.5098-2.1204 0.50896-0.3828-0.000855-0.696 0.12027-0.696 0.26914 0 0.38858 1.6139 0.65625 2.829 0.4692 0.57072-0.08785 1.8729 0.04769 2.8937 0.3012 2.0565 0.51072 2.6784 0.51431 2.8441 0.01643zm51.753 0.06532c0-0.5923-5.8001-5.3796-7.3684-6.0817-0.71026-0.31799-3.3449-1.0746-5.8548-1.6813-7.3247-1.7706-7.5022-1.8188-7.5022-2.0381 0-0.23443 0.82676-0.08064 5.7064 1.0615 1.8625 0.43593 3.4631 0.71587 3.5569 0.62208 0.29292-0.29292-0.99058-1.0469-1.821-1.0697-0.43535-0.01196-1.07-0.14524-1.4102-0.29618-0.38993-0.17297 0.1647-0.20516 1.5001-0.08706 1.6303 0.14418 2.1858 0.08766 2.4096-0.24516 0.19818-0.29471 0.26231-0.0015 0.20126 0.92l-0.0896 1.3525 1.5437 0.39721c2.3827 0.61308 3.1089-0.09711 2.8858-2.8224l-0.0989-1.2079-2.6293-0.38351c-1.4461-0.21093-3.8822-0.59465-5.4134-0.85271-8.1803-1.3786-10.518-1.6564-10.881-1.293-0.20026 0.20015-0.45664 0.87148-0.56975 1.4918l-0.20563 1.1279 2.5087 0.54203c3.7737 0.81535 2.7357 0.93088-1.2754 0.14195-5.3248-1.0473-10.597-1.8572-12.091-1.8572-0.70098 0-0.86387-0.11138-0.71818-0.49104 0.10364-0.27007 0.2734-1.0224 0.37724-1.6718 0.2483-1.5527-0.24855-1.8125-4.1471-2.168l-3.003-0.27387 3.1218 0.12112c1.717 0.06661 5.0578 0.47262 7.424 0.90225 2.3662 0.42962 6.3902 1.0613 8.9422 1.4038 2.552 0.34246 6.5192 0.91153 8.816 1.2646s4.698 0.72126 5.336 0.8182c0.72423 0.11004 1.16 0.05258 1.16-0.15296 0-0.46039-0.51284-0.58407-5.3695-1.295-2.3578-0.34511-4.4125-0.70512-4.566-0.80002-0.15355-0.0949-0.0689-0.47279 0.18813-0.83974 0.90485-1.2919 0.63844-1.5628-1.3114-1.3338-0.97827 0.11492-2.6077 0.42371-3.6209 0.6862-2.0308 0.52612-2.7076 0.49467-9.7127-0.45124-4.4909-0.60641-6.6115-1.0705-7.3145-1.6007-1.28-0.96535-11.388-1.5562-16.016-0.93611-3.0371 0.407-5.6093 0.95189-8.0927 1.7143-1.1079 0.34015-1.5859 0.37329-1.7419 0.12079-0.15711-0.25418-0.53762-0.23653-1.4118 0.06549-0.96743 0.33423-1.0667 0.43376-0.51786 0.5194 0.41054 0.06406 0.61709 0.26701 0.52254 0.51342-0.17385 0.45301 1.2311 1.6903 2.011 1.771 0.27479 0.02843-1.2015 0.13571-3.2807 0.2384-3.7412 0.18478-4.8557 0.50982-4.0435 1.1792 0.60972 0.50253 6.91 2.9842 9.5252 3.752 1.276 0.37461 2.5984 0.80416 2.9387 0.95457 1.0041 0.44383 8.9917 2.3657 12.837 3.0887 1.9565 0.36786 4.8798 0.93493 6.496 1.2602 1.6163 0.32524 4.5395 0.80873 6.496 1.0744 1.9565 0.2657 4.1838 0.61814 4.9494 0.7832 0.76561 0.16507 3.2712 0.5167 5.568 0.78142 2.2968 0.26471 5.22 0.6017 6.496 0.74886s4.756 0.36542 7.7334 0.48501c2.9773 0.11959 5.4714 0.26985 5.5422 0.33392 0.0709 0.06406 1.2889 0.11648 2.7067 0.11648 1.9766 0 2.5778-0.09884 2.5778-0.42386zm-5.2558-1.16c-1.2768-0.50925-12.428-3.7048-13.923-3.9899-0.7656-0.14599-2.0593-0.4258-2.8748-0.6218-1.9585-0.47068-2.4248-0.27328-2.1852 0.92506 0.21918 1.0959-0.18831 1.2069-1.8122 0.4936-0.55871-0.2454-2.2338-0.81857-3.7225-1.2737-1.4887-0.45515-2.7045-0.91557-2.7019-1.0232 0.002-0.10759 0.1225-0.38138 0.26642-0.60844 0.19896-0.31386 0.30211-0.25825 0.4303 0.232 0.21404 0.81846 0.72393 0.83272 0.93484 0.02615 0.29727-1.1367 2.0757-0.56927 2.0757 0.66228 0 0.56872 0.53893 1.0672 0.83437 0.77181 0.096-0.096 0.0277-0.75286-0.15167-1.4597l-0.32622-1.2852 1.4458 0.19573c0.79517 0.10765 3.673 0.75902 6.3951 1.4475 2.7221 0.68846 5.9934 1.5087 7.2694 1.8228 1.276 0.31407 3.0504 0.78014 3.9432 1.0357 1.6763 0.47987 2.0843 0.34416 1.7312-0.57586-0.32343-0.84284 0.26926-0.45404 2.4974 1.6383 1.7005 1.5968 1.9357 1.9299 1.3515 1.9137-0.38903-0.01079-1.054-0.15789-1.4778-0.3269zm-21.187-4.8901c-0.11477-0.52257-0.32379-0.95013-0.46448-0.95013-0.23335 0-0.16085 0.71415 0.18508 1.8229 0.25334 0.81206 0.48827 0.07817 0.2794-0.87282zm-7.7367-0.92518c-0.33944-0.1325-0.61784-0.49353-0.61867-0.8023-0.00066-0.30876-0.1755-0.61978-0.38817-0.69113-0.22712-0.07621-0.38667 0.13618-0.38667 0.5147 0 0.35445-0.17492 0.64445-0.38871 0.64445-0.92127 0-2.4861-0.64011-3.3577-1.3735-0.5176-0.43554-1.2895-0.79188-1.7153-0.79188-0.70012 0-0.75459 0.08922-0.56936 0.93254l0.20481 0.93254-2.2682-0.20326c-2.1094-0.18902-2.3658-0.29329-3.6602-1.4884l-1.392-1.2852-4.64-0.54332c-2.552-0.29883-5.8102-0.60403-7.2404-0.67822-1.4302-0.0742-2.683-0.22488-2.784-0.33486-0.10105-0.10998 2.9135-0.10554 6.699 0.0099 4.7027 0.14336 6.8827 0.1077 6.8827-0.1126 0-0.17733 0.4176-0.32242 0.92801-0.32242 0.5104 0 0.928 0.1392 0.928 0.30933s-0.14278 0.30934-0.31728 0.30934c-0.38586 0 0.3297 1.3586 1.3737 2.6081 0.65327 0.7819 1.0199 0.92572 2.6628 1.0446l1.9052 0.13781-0.47594-0.88989c-0.97442-1.8219-1.8637-2.5981-3.2925-2.8737l-1.392-0.26846 1.273-0.03389c0.85643-0.0228 1.5381 0.17466 2.0832 0.60344 0.44562 0.35054 1.3076 0.71805 1.9156 0.8167 0.90031 0.1461 1.1915 0.05638 1.5698-0.48376 0.33968-0.48497 0.60498-0.59035 0.9875-0.39224 0.28767 0.14899 1.1926 0.36806 2.0109 0.48682 1.8085 0.26248 1.7916 0.8812-0.0267 0.97466-1.0246 0.05266-1.3214-0.05285-1.4706-0.52277-0.10285-0.32382-0.31676-0.58875-0.47543-0.58875-0.37384 0-0.36825 0.04859 0.14621 1.2721 0.35067 0.834 0.61975 1.0431 1.392 1.082 0.52652 0.02648 0.95732-0.08583 0.95732-0.24957 0-0.16987 0.39851-0.21019 0.928-0.09389 0.79895 0.17548 0.92801 0.11437 0.92801-0.43942 0-0.82845 0.51675-0.833 0.77895-0.0069 0.11109 0.35001 0.54778 0.76786 0.97042 0.92854 0.68912 0.262 0.71966 0.3409 0.296 0.76457-0.25983 0.25983-0.39384 0.67719-0.2978 0.92746 0.19468 0.50732 0.19733 0.50664-0.66341 0.17066zm26.762-2.3375c-0.244-0.29399-0.26747-0.47148-0.0623-0.47148 0.37385 0 0.80971 0.58687 0.59519 0.80139-0.0778 0.07786-0.31765-0.0706-0.53285-0.32992zm-10.914-0.76824c-1.4668-0.28445-1.8557-0.63879-0.66681-0.60746 1.1906 0.03137 3.7105 0.84072 2.6036 0.83622-0.42534-0.0017-1.2969-0.10467-1.9368-0.22876zm-23.813-2.667c-0.2001-0.20009-14.455-1.3754-18.174-1.4984-5.2238-0.17276-5.0277-0.13552-3.5574-0.6758 2.2209-0.81608 6.7497-1.6885 9.4347-1.8174 2.8407-0.13642 2.5358-0.04185-1.5467 0.4798-2.986 0.38154-4.64 0.82399-4.64 1.2412 0 0.15694 0.174 0.28884 0.38667 0.29311 4.347 0.08731 19.299 1.3919 20.957 1.8285 0.96839 0.25496 0.87868 0.28202-0.84985 0.25632-1.0629-0.01581-1.9679-0.06412-2.0111-0.10736zm-6.7284-4.1506-2.32-0.19788 3.0933-0.03399c1.9699-0.02165 2.8687 0.06257 2.4747 0.23186-0.34027 0.14622-0.68827 0.25056-0.77334 0.23186-0.0851-0.01869-1.1987-0.12303-2.4747-0.23186zm-18.929 16.681c-0.061-0.18289-0.21177-0.32209-0.33512-0.30933-0.12334 0.01275-0.50267 0.0232-0.84294 0.0232-0.34026 0-0.61866 0.1392-0.61866 0.30934 0 0.17013 0.4292 0.30933 0.95378 0.30933 0.54274 0 0.90601-0.14331 0.84294-0.33253zm37.789-13.29c-0.73351-0.46389-1.1298-0.32002-0.47762 0.17339 0.32786 0.24803 0.67182 0.37524 0.76438 0.28268 0.0926-0.09256-0.0365-0.29779-0.28676-0.45607zm32.725-1.501c0.138-1.4361 0.0952-1.5605-0.58499-1.7008-0.40363-0.08321-1.1515-0.23956-1.6619-0.34745-0.5104-0.10788-1.5544-0.25011-2.32-0.31606s-1.7634-0.18916-2.2173-0.2738c-0.90788-0.16931-2.4228 0.78946-2.4228 1.5334 0 0.44421 0.91551 1.0711 1.5642 1.0711 0.27346 0 0.26738-0.1207-0.0237-0.47148-0.21521-0.25931-0.33329-0.52948-0.2624-0.60038 0.0709-0.07089 1.3088 0.19515 2.7508 0.59121s3.0047 0.80808 3.4725 0.9156c0.66785 0.15348 0.85067 0.37372 0.85067 1.0248 0 1.4399 0.6901 0.2886 0.85487-1.4262zm-10.591 1.4995c0.27949-0.45222-0.43227-1.2238-1.1289-1.2238-0.68336 0-0.67782 0.04063-0.23447-1.7201 0.42159-1.6743 0.0473-2.2942-1.3871-2.2976-0.53346-0.0013-1.3179-0.0087-1.7433-0.01667-3.652-0.06804-5.2587 0.94137-5.2587 3.3038 0 1.1539 0.9809 0.81681 1.3092-0.44994 0.34723-1.34 1.3757-1.2885 1.2162 0.06095-0.0679 0.57437 0.0126 0.8076 0.232 0.67201 0.18482-0.11422 0.33603-0.00004 0.33603 0.25374 0 0.55705 1.0124 0.92552 1.83 0.66603 0.32596-0.10345 0.6899-0.03073 0.80877 0.1616 0.13367 0.21629 0.61565 0.27475 1.2634 0.15323 0.60657-0.1138 1.0472-0.06995 1.0472 0.1042 0 0.25772 0.46497 0.4799 1.2964 0.61948 0.11756 0.01974 0.30355-0.10942 0.4133-0.287zm-3.6688-1.7393c-0.37574-0.37574-0.21373-0.70525 0.25778-0.52431 0.2552 0.09793 0.464 0.30236 0.464 0.45429 0 0.32431-0.42615 0.36565-0.72178 0.07002zm-3.1777-0.9025c0.10311-0.2687 0.18747-0.54677 0.18747-0.61792 0-0.36012 0.63461-0.05891 0.89297 0.42383 0.24557 0.45885 0.16269 0.56424-0.48592 0.61792-0.5987 0.04955-0.73806-0.04979-0.59452-0.42383zm-8.5436-0.57796c1.1749-0.24714 3.5156-0.88971 5.2016-1.4279 5.2678-1.6816 6.1268-2.4534 2.7308-2.4534-1.3202 0-2.8156 0.25952-4.2534 0.73816-3.5694 1.1883-7.735 1.8446-10.32 1.6261-1.7715-0.14974-2.2596-0.10198-2.2596 0.2211 0 0.52379 0.89733 1.327 1.7013 1.5229 1.3231 0.32232 5.1644 0.20128 7.1997-0.22686zm-10.192-1.039c0.0939-0.66289 0.005-0.70795-1.2133-0.61867-1.4978 0.10971-1.8669 0.6045-0.8301 1.1128 1.0801 0.52956 1.9273 0.32466 2.0434-0.49416zm-36.494-0.7073c0.5358-0.18678 0.97416-0.5254 0.97416-0.75249s0.24361-0.48829 0.54135-0.58045c0.80154-0.24809 6.3639-1.0324 9.2027-1.2975 2.1391-0.19982 2.329-0.26242 1.4001-0.46164-1.478-0.31701-10.161-0.08991-10.619 0.27772-0.20391 0.1639-1.4148 0.47458-2.6908 0.69039-2.6486 0.44797-3.0572 0.6791-2.4638 1.394 0.32016 0.38576 0.74692 0.46194 1.8274 0.3262 1.0552-0.13256 1.2347-0.10276 0.71373 0.11852-1.4523 0.61684-0.5213 0.8553 1.1138 0.28529zm36.559-0.75618c0.29891-0.36016 0.30858-0.5645 0.0395-0.83361-0.48474-0.48475-2.0217 0.06775-2.158 0.77578-0.13482 0.7001 1.5474 0.74602 2.1186 0.05783zm26.819 22.711c0.20983-0.21141 0.45944-0.30645 0.55468-0.21121 0.0953 0.09525-0.0764 0.26821-0.38151 0.38437-0.44087 0.16787-0.4764 0.13234-0.17317-0.17317zm10.233-2.3383c0.2233-0.08936 0.4901-0.07837 0.59289 0.02443 0.10281 0.10279-0.0799 0.1759-0.406 0.16247-0.359-0.017-0.432-0.09-0.186-0.189zm2.3999-0.06265c-0.0931-0.15068 0.21186-0.34719 0.67774-0.43669 0.95674-0.18379 1.1546-0.09619 0.8598 0.38073-0.24668 0.39914-1.3017 0.43754-1.5375 0.05595z"/>
 </g>
</svg>
