<?xml version="1.0" encoding="UTF-8" standalone="no"?>
<!-- Created with Inkscape (http://www.inkscape.org/) -->
<svg id="svg2" xmlns:rdf="http://www.w3.org/1999/02/22-rdf-syntax-ns#" xmlns="http://www.w3.org/2000/svg" height="54" width="99" version="1.1" xmlns:cc="http://creativecommons.org/ns#" xmlns:dc="http://purl.org/dc/elements/1.1/">
 <metadata id="metadata7">
  <rdf:RDF>
   <cc:Work rdf:about="">
    <dc:format>image/svg+xml</dc:format>
    <dc:type rdf:resource="http://purl.org/dc/dcmitype/StillImage"/>
    <dc:title/>
   </cc:Work>
  </rdf:RDF>
 </metadata>
 <g id="g67603">
  <rect id="rect2990" opacity="0" height="54" width="99" y="0" x="0"/>
  <path id="path8771" d="m62.822 49.018c-0.92844-0.57341-1.8555-1.7574-2.0077-2.564-0.0921-0.48834-0.38002-0.54699-3.4296-0.69864-3.6967-0.18384-5.0615-0.46405-7.1295-1.4638-1.4729-0.71211-2.9911-2.3474-2.5701-2.7685 0.2197-0.2197 1.938-0.14255 9.1257 0.40971 1.3098 0.10064 2.0799 0.047 2.3323-0.16244 0.29453-0.24444 0.37677-1.2001 0.37677-4.3782 0-5.5461-0.26559-6.7495-0.70604-3.1992-0.18188 1.466-0.33732 3.2116-0.34542 3.8791l-0.0147 1.2137-3.665 0.3234c-4.8411 0.42719-6.1972 0.41577-6.1972-0.05217 0-0.33118 0.43148-1.3882 1.8631-4.5644 1.0876-2.4129 1.3364-3.1753 1.1885-3.6413-0.14866-0.46847-0.84324-0.49016-15.693-0.49016h-15.537l-0.24982-2.145c-0.17027-1.462-0.16112-2.2135 0.0288-2.36 0.15322-0.11821 1.7179-0.23414 3.4771-0.25762 3.7284-0.04977 3.8078-0.0687 5.7307-1.3649 2.2868-1.5415 2.5564-1.6392 5.9766-2.1663 1.7706-0.27285 3.3222-0.49746 3.448-0.49913 0.12585-0.0017 0.15669-0.29038 0.0685-0.6416-0.31399-1.251 1.8437-1.3593 3.2085-0.16106 0.73427 0.6447 1.1523 0.79963 2.1574 0.79963 1.1082 0 1.3749 0.12591 2.3999 1.1328l1.1532 1.1328 2.7256 0.13327c1.4991 0.0733 3.1431 0.0733 3.6533 0 0.98108-0.14093 1.2886-0.58255 2.4125-3.4651 0.25721-0.6597 0.62708-1.5947 0.82192-2.0777 0.30359-0.75263 0.2976-0.91409-0.0418-1.1287-0.57783-0.36534-13.112-0.32316-14.92 0.05021-0.82241 0.16986-1.8192 0.22755-2.215 0.1282-0.72588-0.18218-0.96213-0.78888-0.43425-1.1151 0.15704-0.09705 3.7254-0.16207 7.9297-0.14447 7.4421 0.03115 7.6924 0.01498 9.4657-0.6115 1.9179-0.67755 2.6682-1.3805 2.5278-2.3683-0.0846-0.59514-0.0888-0.59558-5.4155-0.56027-4.4483 0.02949-5.706 0.12847-7.5965 0.59786-3.8476 0.95531-6.816 0.57448-6.6135-0.84849 0.20009-1.4061 3.9593-1.9874 7.1466-1.1051 1.4916 0.4129 7.3859 0.55087 8.7634 0.20513l0.66825-0.16772-0.61482-0.22744c-0.53534-0.19803-0.56781-0.28412-0.25122-0.66588 0.19998-0.24114 0.74574-0.59818 1.2128-0.79341 0.46705-0.19523 1.2934-0.65643 1.8364-1.0249 0.54295-0.36846 1.0768-0.66992 1.1863-0.66992s0.27832 0.52832 0.37515 1.174c0.10392 0.693 0.44776 1.4672 0.83917 1.8896 0.61746 0.66625 0.75881 0.70126 2.0532 0.50853 2.3874-0.35548 3.0596-0.22224 2.7641 0.54783-0.11612 0.30251-0.55009 0.41131-1.6406 0.41131-1.1345 0-1.5225 0.10373-1.6522 0.44162-0.26697 0.69571 0.4979 1.7492 1.5189 2.0921 0.85485 0.28709 0.93533 0.40452 0.96187 1.4034 0.03 1.1289 0.0894 1.237 6.6143 12.03 1.2765 2.1114 2.5997 4.2104 2.9404 4.6645 0.34075 0.4541 1.0226 1.5922 1.5152 2.5292 1.1642 2.2144 1.4383 2.6773 1.7977 3.0367 0.54468 0.54468 0.33316 1.2073-0.43558 1.3646-0.40315 0.08247-3.7316 0.40455-7.3966 0.71573s-6.7136 0.61307-6.7747 0.67086c-0.0611 0.0578-0.0542 0.16195 0.0153 0.23146 0.3008 0.3008 5.7765 0.728 9.8137 0.76563l4.3871 0.0409 0.17635 0.79963c0.097 0.4398 0.37103 1.1595 0.60897 1.5993 0.52659 0.97334 0.55123 1.5715 0.0808 1.9619-0.48392 0.40162-1.1795-0.15242-1.292-1.029l-0.0855-0.66636-4.1314-0.02796c-2.2723-0.01538-4.723 0.04459-5.4459 0.13327l-1.3144 0.16123-0.70211 1.7325c-0.7989 1.9714-1.3873 2.2551-2.8292 1.3646zm11.353-4.0447c0.31183-0.18379 0.25181-0.23615-0.26179-0.22842-0.3665 0.0055-2.6455-0.11013-5.0644-0.257-5.626-0.34161-15.633-0.48194-15.892-0.22287-0.52823 0.52824 0.63681 0.86449 3.4436 0.99389 4.3583 0.20092 17.302-0.0071 17.774-0.2856zm-5.4726-4.1196c4.2442-0.36492 7.9362-0.66349 8.2046-0.66349 0.26839 0 0.55735-0.18077 0.64214-0.40172 0.15128-0.39425-1.3812-3.216-2.8941-5.329-0.41987-0.5864-2.0928-3.2852-3.7177-5.9973-4.1279-6.8899-4.2806-7.1413-5.4073-8.8963l-1.0055-1.5663-1.8663 0.13353c-1.169 0.08364-1.9531 0.2705-2.0985 0.50014-0.12772 0.20163-0.23991 4.0249-0.24931 8.4962-0.009 4.4713-0.082 9.3637-0.16139 10.872-0.1359 2.5829 0.0442 3.5292 0.66941 3.5185 0.092-0.0016 3.6398-0.30144 7.8839-0.66636zm-14.263-1.7646c1.6945-0.1658 3.1804-0.39121 3.3019-0.50093 0.12158-0.10971 0.32983-1.9232 0.46277-4.0299 0.13295-2.1067 0.37009-4.8372 0.52697-6.0677 0.17574-1.3784 0.19014-2.3324 0.0375-2.485-0.15263-0.15264-0.63274 0.22208-1.2506 0.97607-0.55155 0.6731-1.8371 1.8306-2.8567 2.5722-1.481 1.0772-1.9775 1.6257-2.4685 2.7272-2.3457 5.2623-2.8022 6.3555-2.8022 6.7101 0 0.4927 0.84685 0.50914 5.0487 0.09801zm-1.0322-11.4c0.57727-0.55589 1.0478-1.4742 1.0478-2.0448 0-0.40552-0.25048-0.43728-2.3323-0.29574-8.2388 0.56018-10.718 0.68742-13.927 0.7148-5.7924 0.04943-16.607 0.56264-17.259 0.81901-0.70656 0.27797-0.78435 0.9172-0.1545 1.2697 0.27028 0.15126 6.6804 0.19296 16.314 0.10614 14.052-0.12665 15.919-0.19181 16.311-0.5691zm3.367-0.62598c0.30043-0.32985 0.68635-0.87138 0.85759-1.2034 0.37584-0.72872 0.016-0.94554-1.3518-0.81446-0.73543 0.07048-0.97428 0.26236-1.3661 1.0975-0.26116 0.55664-0.40418 1.1264-0.31783 1.2661 0.29371 0.47524 1.6225 0.26435 2.1781-0.3457zm-17.078-1.6591c0.17192-0.44802-0.79431-2.149-1.3396-2.3583-0.95504-0.36648-4.3054 0.88711-4.5661 1.7085-0.28696 0.90413 0.10723 1.0428 2.9635 1.0428 2.214 0 2.8226-0.08131 2.9422-0.39305zm4.5271 0.12651c1.5233 0 1.7818-0.54263 0.76444-1.6045-1.0802-1.1275-4.822-1.7933-5.1115-0.90945-0.27132 0.82842 1.9786 2.9489 2.806 2.6445 0.19523-0.07182 0.88869-0.13058 1.541-0.13058zm2.7686-1.0837c0-0.5468-0.55542-1.3152-0.95065-1.3152-0.55019 0-0.77797 0.72242-0.37926 1.2028 0.378 0.45546 1.3299 0.53588 1.3299 0.11235zm12.005-0.41632c0.31122-0.86629 0.53068-5.2802 0.28185-5.6689-0.131-0.20461-0.40539-0.30786-0.60975-0.22944-0.35966 0.13802-2.6156 5.0725-2.6147 5.7192 0.00089 0.89565 2.6277 1.0555 2.9426 0.17913zm-17.652-2.4315c-0.108-0.568-1.283-0.808-1.283-0.262 0 0.50984 0.2599 0.72932 0.86361 0.72932 0.34018 0 0.47881-0.15422 0.4193-0.46645zm20.785-7.1448c0.0431-0.30129-0.16456-0.76764-0.46145-1.0363-0.44217-0.40015-0.61307-0.42775-0.94465-0.15256-0.41899 0.34773-0.54803 1.3714-0.21488 1.7045 0.3997 0.3997 1.542 0.03635 1.621-0.51561zm-2.6202-2.6391c0.35913-0.43273 0.16159-0.94458-0.36455-0.94458-0.44374 0-1.2805 0.92184-1.0479 1.1544 0.30838 0.30839 1.0771 0.19417 1.4125-0.20986zm-17.849 36.736c0-0.09294 0.13589-0.62252 0.30197-1.1769 0.27108-0.9048 0.23019-1.1363-0.39982-2.2635-0.38598-0.69059-0.70178-1.3605-0.70178-1.4886 0-0.45931 1.0532-0.22213 1.3327 0.30012 0.28739 0.53699 1.0662 0.74559 1.0662 0.28558 0-0.38018 0.79162-1.0852 1.2185-1.0852 0.56855 0 0.48365 0.36842-0.71442 3.1002-0.82693 1.8855-1.2187 2.4972-1.5993 2.4972-0.27724 0-0.50407-0.07605-0.50407-0.16898zm-11.495-0.74438c-0.0183-0.23065-0.0483-0.7692-0.0666-1.1968-0.0471-1.099-0.30058-1.2313-1.1214-0.58569-1.137 0.89435-2.2874 0.70774-2.8875-0.46837-0.42309-0.82928-0.2484-2.4145 0.28879-2.6206 0.51885-0.1991 0.67789 0.01799 0.86742 1.184 0.22251 1.3689 0.92399 1.3609 1.0372-0.01194 0.0913-1.108 0.61498-1.5109 1.2638-0.97247 0.30881 0.2563 0.48256 0.26353 0.71627 0.02982 0.39174-0.39175 2.4625-0.40137 3.1848-0.01479 0.38207 0.20448 0.72102 0.21058 1.1153 0.02007 0.99433-0.48044 2.14-0.54256 3.0436-0.16503 0.96742 0.40421 1.0373 0.34007 1.1764-1.0794 0.047-0.4797 0.24965-0.82985 0.50871-0.87891 0.53674-0.10166 0.76884 0.92764 0.76884 3.4095 0 2.1037-0.46478 2.8331-1.1667 1.8311-0.36379-0.51939-0.49999-0.55388-1.1027-0.27925-0.37822 0.17233-0.97846 0.31333-1.3339 0.31333-0.50529 0-0.69514 0.18888-0.87066 0.86627-0.31685 1.2227-0.96897 1.1251-1.0746-0.16095-0.0744-0.90667-0.15267-1.0101-0.66636-0.88119-0.32008 0.08032-0.99733 0.24671-1.505 0.36976-0.66824 0.16198-0.96574 0.40481-1.0779 0.87979-0.17473 0.74014-1.0457 1.0669-1.0977 0.41186zm2.6507-3.1514c-0.0559-0.39364-0.26837-0.59973-0.61827-0.59973s-0.56236 0.20609-0.61826 0.59973c-0.0698 0.49196 0.0412 0.59973 0.61826 0.59973 0.57703 0 0.68813-0.10777 0.61827-0.59973zm4.3128 0.05828c0-0.62867-0.70489-0.99263-1.1195-0.57804-0.4146 0.4146-0.0506 1.1195 0.57804 1.1195 0.36654 0 0.54145-0.17491 0.54145-0.54145zm-14.601 1.4592c-0.81877-0.57349-0.74131-0.86931 0.25335-0.96754 1.2221-0.12069 1.2118-0.62213-0.0287-1.4052-0.85107-0.53726-1.0836-0.84607-1.0836-1.439 0-0.41524 0.21935-0.95349 0.48744-1.1961 0.46672-0.42238 2.1822-0.61459 2.515-0.2818 0.29405 0.29405-0.12245 0.90685-0.61636 0.90685-0.93248 0-0.83344 0.57197 0.27649 1.5966 1.3046 1.2044 1.3103 1.728 0.0283 2.5921-1.0735 0.72342-1.0759 0.72367-1.8319 0.19417zm21.797-6.4378c-0.2199-0.08085-0.61256-0.33243-0.87257-0.55906-0.36242-0.31588-0.54593-0.33887-0.78631-0.09849-0.17245 0.17246-0.52945 0.31356-0.79333 0.31356-0.36731 0-0.47978-0.21104-0.47978-0.90027 0-0.9326-0.56869-1.6728-1.0545-1.3726-0.15302 0.09457-0.27822 0.64842-0.27822 1.2308 0 0.72495-0.13455 1.1104-0.42672 1.2226-0.64421 0.24721-0.91853-0.4196-0.84184-2.0463l0.0691-1.466 1.5181-0.0795c1.3648-0.07148 1.5617-0.01295 1.95 0.57976l0.43197 0.65927 0.95252-0.6464c1.1842-0.8036 1.4634-0.80525 2.3832-0.01407 0.72279 0.62172 0.72882 0.65191 0.35922 1.7992-0.49091 1.5239-0.94117 1.815-2.1308 1.3776zm-22.025-0.47373c-0.13399-0.34917 0.27877-3.572 0.60638-4.7347 0.23618-0.8382 1.1161-0.53456 1.6856 0.58164 0.77308 1.5154 1.0211 1.5414 1.6273 0.17098 0.4172-0.94315 0.67941-1.2191 1.1585-1.2191 0.54415 0 0.65734 0.19384 0.93385 1.5993 0.17305 0.8796 0.42578 1.5993 0.56162 1.5993s0.44346-0.29986 0.6836-0.66636c0.37851-0.57769 0.63258-0.66636 1.9092-0.66636 1.0939 0 1.5609 0.11995 1.8161 0.46645 0.32718 0.44424 0.35214 0.44424 0.52436 0 0.12959-0.33428 0.47722-0.46645 1.2268-0.46645 1.3189 0 1.5538 0.51743 0.64673 1.4245-0.37598 0.37599-0.68361 0.98185-0.68361 1.3464 0 0.86628-0.52078 1.1696-0.96501 0.56211-0.27099-0.37061-0.43466-0.4107-0.71767-0.17582-0.64323 0.53384-3.008 0.48754-3.6251-0.07097-0.49402-0.44708-0.56077-0.45244-0.71244-0.0572-0.19627 0.51147-1.1468 0.58696-1.2959 0.10292-0.0564-0.18325-0.17491-0.66303-0.26326-1.0662-0.22236-1.0148-0.57874-0.9172-1.2166 0.33318-0.29916 0.5864-0.65982 1.0662-0.80147 1.0662-0.14166 0-0.42684-0.40517-0.63375-0.90037s-0.50923-0.98258-0.67183-1.0831c-0.30241-0.1869-0.39897-0.01016-0.66711 1.221-0.17546 0.80568-0.90304 1.2144-1.1263 0.63266zm9.6311-1.6028c0-0.79381-1.0405-0.7145-1.1541 0.08797-0.0732 0.51678 0.0163 0.60629 0.53309 0.53309 0.41404-0.05865 0.62105-0.26567 0.62105-0.62106zm5.0494 1.6563c-0.0817-0.21292-0.11175-1.0325-0.0668-1.8213 0.0701-1.2293 0.15795-1.4342 0.61486-1.4342 1.03 0 0.96989 3.191-0.0665 3.5328-0.18317 0.06042-0.39989-0.06435-0.48159-0.27727zm0.015-4.455c-0.21751-0.35194 0.0738-0.79963 0.5203-0.79963 0.38987 0 0.73745 0.65248 0.48309 0.90685-0.24856 0.24856-0.82134 0.18735-1.0034-0.10721zm-7.6854-11.906c-0.0977-0.09773-0.17814-0.48756-0.17869-0.86627-0.00056-0.37872-0.24086-1.082-0.53402-1.5628-0.51231-0.84028-0.51486-0.9024-0.0657-1.5993 0.25699-0.39877 0.68194-0.90495 0.94433-1.1249 0.41658-0.34912 0.4673-0.78766 0.39993-3.4583l-0.0771-3.0585-1.5457-0.76458-1.5457-0.76458 0.0797-1.3745 0.0797-1.3745 4.0956-0.073744c4.3229-0.077838 5.061 0.083842 4.5701 1.0011-0.41025 0.76655 0.47324 1.3383 2.068 1.3383 0.74945 0 1.4368 0.11995 1.5274 0.26654 0.10311 0.16683-0.45784 0.26654-1.4994 0.26654-1.8147 0-3.9019 0.78984-4.1404 1.5668-0.0729 0.23775-0.3032 0.75065-0.5116 1.1398-0.44866 0.83772-0.52997 5.9239-0.11226 7.0226 0.22314 0.5869 0.15325 0.85004-0.4283 1.6125-1.0238 1.3422-2.6505 2.2831-3.1257 1.8079zm-2.3989-16.792c-0.34974-0.34973-0.16876-1.1411 0.32088-1.4031 0.27422-0.14676 2.1334-0.26308 4.1314-0.2585 3.3719 0.00774 3.6329 0.044249 3.6329 0.50827 0 0.27496 0.1219 0.57527 0.27089 0.66736 0.76368 0.47197-0.42265 0.66368-4.1071 0.66368-2.2392 0-4.1513-0.079963-4.249-0.1777z"/>
 </g>
</svg>
