<?xml version="1.0" encoding="UTF-8" standalone="no"?>
<!-- Created with Inkscape (http://www.inkscape.org/) -->
<svg id="svg2" xmlns:rdf="http://www.w3.org/1999/02/22-rdf-syntax-ns#" xmlns="http://www.w3.org/2000/svg" height="45" width="67.5" version="1.1" xmlns:cc="http://creativecommons.org/ns#" xmlns:dc="http://purl.org/dc/elements/1.1/">
 <metadata id="metadata7">
  <rdf:RDF>
   <cc:Work rdf:about="">
    <dc:format>image/svg+xml</dc:format>
    <dc:type rdf:resource="http://purl.org/dc/dcmitype/StillImage"/>
    <dc:title/>
   </cc:Work>
  </rdf:RDF>
 </metadata>
 <g id="g21777">
  <rect id="rect2990" opacity="0" height="45" width="67.5" y="0" x="3.5527e-15"/>
  <path id="path8845" d="m20.236 38.171c-0.496-0.176-1.223-0.571-1.616-0.877-0.598-0.462-1.263-0.555-3.994-0.555h-3.2778l-0.58537-1.3233c-0.32196-0.72784-0.66425-1.9096-0.76066-2.6261-0.14623-1.0871-0.0441-1.4948 0.61668-2.4627 0.43557-0.63802 0.86963-1.5834 0.96466-2.1008 0.31232-1.7012 0.24638-1.6911 11.086-1.6911 5.4846 0 10.189-0.08318 10.454-0.18485 0.26494-0.10167 0.94021-1.1772 1.5005-2.39 0.56036-1.2128 1.3614-2.5478 1.7801-2.9664 0.70651-0.70652 0.96331-0.76126 3.5715-0.76126 3.074 0 5.367 0.52874 6.6418 1.5314 0.44216 0.3478 1.5451 1.5613 2.451 2.6966l1.647 2.0642 7.5571 0.08016 7.5571 0.08016 0.4376 1.1501c0.39504 1.0383 0.38725 1.2353-0.08 2.0264-0.60736 1.0282-0.43002 1.4753 0.58517 1.4753 0.92769 0 0.97464 0.81181 0.11057 1.9103-0.74404 0.94591-1.433 0.99923-2.4611 0.19053-0.41969-0.33013-0.97074-0.60024-1.2246-0.60024-0.25383 0-0.63768-0.36569-0.85306-0.81263-0.47836-0.99286-1.2353-1.2215-4.143-1.2517-3.4812-0.03608-5.4022 1.0583-5.4022 3.0774 0 1.1758 0.48804 1.1902 1.2017 0.03551 0.90421-1.463 1.3921-1.6487 4.3308-1.6487 2.9235 0 3.7712 0.47226 3.7712 2.1008v0.90038l1.8758 0.0046c2.083 0.0051 2.8056 0.29525 2.5292 1.0155-0.14652 0.38184-0.64951 0.48047-2.4502 0.48047-1.8632 0-2.5337 0.14006-3.7732 0.78818-1.7543 0.91733-3.3042 0.86588-4.7414-0.15749-0.87023-0.61967-1.134-0.6306-15.095-0.62557l-14.21 0.0051-1.5006 0.89011c-1.591 0.942-2.916 1.098-4.504 0.532zm30.612-3.683v-0.90038h-10.65c-10.036 0-10.656 0.03132-10.754 0.54274-0.2784 1.4456-0.47726 1.421 10.817 1.3369l10.587-0.07889v-0.90038zm-35.313 0.03596c0.14737-0.77528-0.44741-1.0764-2.1371-1.0818-1.6408-0.0053-2.239 0.67146-1.2398 1.4025 0.86296 0.63146 3.2388 0.40579 3.3769-0.32076zm12.358 0.25819c0.52893-0.63733 0.0405-2.1842-0.91486-2.8975-0.99744-0.74471-2.9931-1.0868-2.988-0.51216 0.002 0.22793 0.47296 0.71836 1.0465 1.0898 0.5735 0.37149 1.2402 1.148 1.4816 1.7257 0.48075 1.1507 0.79883 1.2881 1.3748 0.59411zm-8.9131-2.1885c1.1074-1.1341 1.1647-1.5567 0.21099-1.5567-0.72149 0-2.2213 1.6701-2.0053 2.233 0.26718 0.69628 0.56289 0.58484 1.7943-0.67627zm45.373-4.2578c0-0.39603-3.0668-0.45941-25.493-0.52692-15.201-0.04576-25.605 0.03456-25.769 0.19894-0.88756 0.88756 0.41011 0.93076 25.696 0.85486 22.492-0.06749 25.566-0.13085 25.566-0.52689zm-16.975-2.229c0.28633-0.34501 0.13264-0.67566-0.78856-1.6965-1.5093-1.6726-2.5781-2.0766-5.493-2.0766h-2.4172l-0.89379 1.4093c-0.8757 1.3809-1.0931 2.1929-0.69368 2.5923 0.11005 0.11004 2.3894 0.20008 5.0653 0.20008 3.8493 0 4.9395-0.08948 5.2209-0.42853zm-47.074 6.612c-0.51679-0.6227-0.32381-22.514 0.20311-23.04 0.23375-0.2337 2.4792-0.5744 5.8524-0.8882 3.0102-0.28 9.9979-0.9397 15.527-1.4659 6.975-0.6637 10.928-0.9091 12.906-0.8015 3.2756 0.17827 16.641 1.6113 17.464 1.8725 1.979 0.62812 2.1912 6.559 0.36134 10.097l-0.43368 0.83866h-8.3386c-6.3373 0-8.4653 0.09297-8.8681 0.38737-0.29137 0.21305-0.8283 1.4623-1.1933 2.7761l-0.66347 2.3888-11.244 0.15006-11.244 0.15006-0.9378 3.6444c-0.51676 2.0048-1.0313 3.7943-1.1438 3.9773-0.32476 0.525-7.8046 0.447-8.2471-0.087zm3.4253-1.682c0.25608-0.4952 0.52619-0.90038 0.60024-0.90038 0.074 0 0.3483 0.41316 0.60943 0.91808 0.40085 0.77513 0.62402 0.90368 1.4333 0.82531 0.95566-0.09252 0.96143-0.1034 1.9526-3.6942 0.54676-1.9808 1.049-3.7703 1.116-3.9766 0.0945-0.291 2.5679-0.37515 11.026-0.37515 10.752 0 11.624-0.07206 11.624-0.96038 0-0.13205-6.8878-0.2401-15.306-0.2401h-15.306v4.2918c0 2.9378 0.11362 4.4053 0.36014 4.6518 0.62027 0.62027 1.4069 0.39553 1.8908-0.54021zm28.543-9.5333c0.18241-0.12127 0.49319-0.71614 0.69062-1.322 0.62399-1.9146 0.4813-1.8851 9.9023-2.0498l8.5831-0.15006 0.50948-1.5349c0.28021-0.84421 0.59944-2.2131 0.70941-3.0421 0.17143-1.2923 0.10948-1.5977-0.43445-2.1416l-0.63438-0.63438h-24.511c-22.387 0-24.559 0.04305-25.06 0.4967-0.48862 0.4422-0.54884 1.0294-0.54884 5.3522 0 2.6705 0.09 4.9455 0.20008 5.0556 0.27448 0.27448 30.18 0.24554 30.594-0.02961zm-22.653-2.11-2.2134-0.089 0.2113-1.412c0.11621-0.77641 0.20222-1.8844 0.19114-2.4621-0.0111-0.57773 0.0795-1.1987 0.20133-1.38 0.12181-0.18127 1.4708-0.41614 2.9976-0.52194 2.5134-0.17415 2.7751-0.14295 2.7655 0.32958-0.006 0.28706-0.20364 0.85958-0.43955 1.2722-0.2359 0.41267-0.43369 1.4546-0.43954 2.3153-0.013 1.9223-0.25903 2.0686-3.2744 1.9475zm4.7586-0.37202c-0.42349-0.79133-0.36251-1.6599 0.14616-2.082 0.32227-0.26746 0.39208-0.71878 0.26013-1.6815-0.21428-1.5633-0.10596-1.634 2.633-1.7186l1.9184-0.0593 0.0955 1.165c0.0525 0.64075-0.0488 1.3093-0.22509 1.4856-0.17634 0.17633-0.3206 0.89333-0.3206 1.5934 0 0.70004-0.11723 1.3453-0.26051 1.4338-0.14329 0.08855-1.0913 0.21785-2.1066 0.28733-1.5617 0.10686-1.8914 0.04157-2.1404-0.42369zm18.427-4.3278c-0.098-0.25556-0.0978-0.78511 0.0003-1.1768 0.15607-0.62185 0.39805-0.73123 1.9081-0.86251 2.0288-0.17639 2.5447 0.12213 2.42 1.4004-0.0902 0.92423-0.094 0.92611-2.1203 1.0148-1.6123 0.07056-2.0666-0.0068-2.2082-0.37582zm5.1086-0.32569c-0.31062-1.2376 0.417-1.7228 2.6366-1.7582l1.8952-0.03015v1.2005 1.2005l-2.1669 0.088c-2.1194 0.08606-2.1713 0.07069-2.3648-0.70067zm12.725-4.9624c-1.948-0.46-17.69-2.1164-18.51-1.9476-0.4335 0.089251-4.164 0.43688-8.2913 0.77258-8.1976 0.66676-8.9656 0.77318-8.6978 1.2061 0.11325 0.18368 6.9083 0.2802 18.395 0.26115 11.099-0.018375 17.781-0.13253 17.105-0.2922z"/>
 </g>
</svg>
