<?xml version="1.0" encoding="UTF-8" standalone="no"?>
<!-- Created with Inkscape (http://www.inkscape.org/) -->
<svg id="svg2" xmlns:rdf="http://www.w3.org/1999/02/22-rdf-syntax-ns#" xmlns="http://www.w3.org/2000/svg" height="54" width="99" version="1.1" xmlns:cc="http://creativecommons.org/ns#" xmlns:dc="http://purl.org/dc/elements/1.1/">
 <metadata id="metadata7">
  <rdf:RDF>
   <cc:Work rdf:about="">
    <dc:format>image/svg+xml</dc:format>
    <dc:type rdf:resource="http://purl.org/dc/dcmitype/StillImage"/>
    <dc:title/>
   </cc:Work>
  </rdf:RDF>
 </metadata>
 <g id="g47098">
  <rect id="rect2990" opacity="0" height="54" width="99" y="0" x="0"/>
  <path id="path8845" d="m31.481 47.895c-0.661-0.235-1.63-0.761-2.155-1.169-0.796-0.617-1.683-0.74-5.325-0.74h-4.3703l-0.78049-1.7644c-0.42928-0.97045-0.88566-2.5461-1.0142-3.5014-0.19498-1.4494-0.0588-1.993 0.82223-3.2836 0.58075-0.85068 1.1595-2.1112 1.2862-2.8011 0.41643-2.2682 0.3285-2.2548 14.781-2.2548 7.3128 0 13.585-0.11091 13.938-0.24646 0.35325-0.13556 1.2536-1.5696 2.0007-3.1867 0.74715-1.6171 1.8152-3.397 2.3734-3.9552 0.94201-0.94202 1.2844-1.015 4.762-1.015 4.0986 0 7.156 0.70498 8.8557 2.0419 0.58954 0.46373 2.0601 2.0817 3.2679 3.5954l2.196 2.7523 10.076 0.10688 10.076 0.10688 0.58346 1.5335c0.52672 1.3844 0.51634 1.6471-0.10671 2.7019-0.80981 1.3709-0.57336 1.967 0.78022 1.967 1.2369 0 1.2995 1.0824 0.14742 2.5471-0.99204 1.2612-1.9106 1.3323-3.2814 0.25404-0.55958-0.44017-1.2943-0.80032-1.6328-0.80032-0.33843 0-0.85023-0.48758-1.1374-1.0835-0.63781-1.3238-1.6471-1.6287-5.524-1.6689-4.6415-0.0481-7.2028 1.411-7.2028 4.1031 0 1.5677 0.65072 1.5869 1.6022 0.04735 1.2056-1.9506 1.8561-2.1983 5.7744-2.1983 3.898 0 5.0283 0.62967 5.0283 2.8011v1.2005l2.501 0.0061c2.7773 0.0068 3.7407 0.39366 3.3722 1.354-0.19536 0.50911-0.866 0.64062-3.2669 0.64062-2.4843 0-3.3783 0.18674-5.0309 1.0509-2.3391 1.2231-4.4056 1.1545-6.3218-0.20998-1.1603-0.82622-1.512-0.84079-20.127-0.83409l-18.946 0.0068-2.0008 1.1868c-2.1175 1.2561-3.8842 1.4647-6.0024 0.70897zm40.816-4.9106v-1.2005h-14.2c-13.381 0-14.208 0.04176-14.339 0.72365-0.3712 1.9274-0.63634 1.8947 14.423 1.7825l14.116-0.10518v-1.2005zm-47.083 0.04795c0.19649-1.0337-0.59655-1.4352-2.8494-1.4424-2.1877-0.0071-2.9853 0.89527-1.6531 1.87 1.1506 0.84194 4.3184 0.54105 4.5025-0.42767zm16.477 0.34425c0.70524-0.84976 0.054-2.9123-1.2198-3.8633-1.3299-0.99294-3.9908-1.449-3.984-0.68287 0.003 0.3039 0.63061 0.95781 1.3953 1.4531 0.76467 0.49532 1.6536 1.5307 1.9754 2.3009 0.641 1.5342 1.0651 1.7174 1.833 0.79214zm-11.884-2.918c1.4765-1.5121 1.5529-2.0756 0.28132-2.0756-0.96198 0-2.9617 2.2268-2.6737 2.9773 0.35624 0.92837 0.75051 0.77978 2.3924-0.90168zm60.497-5.677c0-0.52803-4.089-0.61254-33.991-0.70255-20.268-0.06101-34.14 0.04608-34.359 0.26525-1.1834 1.1834 0.5468 1.241 34.261 1.1398 29.989-0.08998 34.088-0.17447 34.088-0.70252zm-22.633-2.972c0.38177-0.46001 0.17685-0.90088-1.0514-2.262-2.0124-2.2301-3.4374-2.7688-7.3239-2.7688h-3.2229l-1.1917 1.8791c-1.1676 1.8412-1.4574 2.9239-0.9249 3.4564 0.14673 0.14672 3.1859 0.26677 6.7537 0.26677 5.1323 0 6.5859-0.11931 6.9611-0.57137zm-62.766 8.816c-0.68905-0.83026-0.43175-30.018 0.27081-30.72 0.31166-0.31141 3.3055-0.76573 7.8031-1.1841 4.0136-0.37339 13.33-1.2529 20.703-1.9545 9.2997-0.88492 14.57-1.2122 17.207-1.0687 4.3674 0.23769 22.188 2.1484 23.285 2.4966 2.6387 0.83748 2.9216 8.7453 0.48178 13.463l-0.57824 1.1182h-11.118c-8.4496 0-11.287 0.12396-11.824 0.51649-0.38849 0.28407-1.1044 1.9497-1.591 3.7015l-0.88462 3.185-14.992 0.20008-14.992 0.20008-1.2504 4.8591c-0.689 2.673-1.375 5.059-1.525 5.303-0.433 0.7-10.406 0.596-10.996-0.116zm4.567-2.2428c0.34143-0.66026 0.70157-1.2005 0.80031-1.2005 0.0987 0 0.4644 0.55087 0.81256 1.2241 0.53447 1.0335 0.83203 1.2049 1.911 1.1004 1.2742-0.12336 1.2819-0.13786 2.6034-4.9256 0.729-2.641 1.3986-5.027 1.488-5.3021 0.12605-0.388 3.4238-0.5002 14.701-0.5002 14.336 0 15.499-0.09608 15.499-1.2805 0-0.17607-9.1836-0.32013-20.408-0.32013h-20.408v5.7223c0 3.9171 0.15149 5.8737 0.48019 6.2024 0.82702 0.82702 1.8758 0.52737 2.521-0.72028zm38.057-12.711c0.24321-0.16169 0.65758-0.95485 0.92081-1.7626 0.83199-2.5528 0.64174-2.5135 13.203-2.7331l11.444-0.20008 0.6793-2.0465c0.37361-1.1256 0.79925-2.9508 0.94587-4.0561 0.22857-1.723 0.14597-2.1302-0.57926-2.8554l-0.84583-0.84583h-32.681c-29.849 0-32.745 0.0574-33.413 0.66226-0.65149 0.5896-0.73178 1.3725-0.73178 7.1362 0 3.5606 0.12005 6.5939 0.26677 6.7407 0.36597 0.36597 40.24 0.32738 40.791-0.03948zm-30.204-2.8135-2.9511-0.11858 0.28171-1.8822c0.15494-1.0352 0.26962-2.5125 0.25484-3.2828-0.0148-0.7703 0.10605-1.5983 0.26844-1.84 0.16241-0.24169 1.961-0.55485 3.9968-0.69591 3.3511-0.2322 3.7001-0.1906 3.6873 0.43944-0.008 0.38275-0.27152 1.1461-0.58606 1.6963-0.31453 0.55022-0.57825 1.9394-0.58605 3.0871-0.0173 2.5631-0.34537 2.7581-4.3658 2.5966zm6.3448-0.49602c-0.56465-1.0551-0.48335-2.2132 0.19487-2.776 0.42969-0.35661 0.52278-0.95837 0.34684-2.242-0.2857-2.0844-0.14128-2.1786 3.5107-2.2915l2.5579-0.07906 0.12739 1.5533c0.07 0.85433-0.0651 1.7457-0.30012 1.9808-0.23511 0.2351-0.42746 1.1911-0.42746 2.1245 0 0.93338-0.1563 1.7937-0.34735 1.9117-0.19105 0.11807-1.455 0.29047-2.8088 0.38311-2.0822 0.14248-2.5219 0.05543-2.8539-0.56491zm24.569-5.7704c-0.13072-0.34075-0.13045-1.0468 0.0004-1.5691 0.2081-0.82912 0.53073-0.97496 2.5441-1.15 2.7051-0.23519 3.3929 0.16284 3.2266 1.8672-0.12031 1.2323-0.12538 1.2348-2.827 1.353-2.1497 0.09408-2.7555-0.0091-2.9443-0.50109zm6.8114-0.43425c-0.41416-1.6501 0.556-2.2971 3.5154-2.3442l2.5269-0.0402v1.6006 1.6006l-2.8892 0.11733c-2.8258 0.11475-2.895 0.09425-3.1531-0.93422zm16.967-6.6164c-2.598-0.6133-23.587-2.8219-24.68-2.5968-0.578 0.119-5.552 0.5825-11.055 1.0301-10.93 0.889-11.954 1.0309-11.597 1.6081 0.151 0.2449 9.211 0.3736 24.526 0.3482 14.798-0.0245 23.708-0.1767 22.806-0.3896z"/>
 </g>
</svg>
