<?xml version="1.0" encoding="UTF-8" standalone="no"?>
<!-- Created with Inkscape (http://www.inkscape.org/) -->
<svg id="svg2" xmlns:rdf="http://www.w3.org/1999/02/22-rdf-syntax-ns#" xmlns="http://www.w3.org/2000/svg" height="54" width="99" version="1.1" xmlns:cc="http://creativecommons.org/ns#" xmlns:dc="http://purl.org/dc/elements/1.1/">
 <metadata id="metadata7">
  <rdf:RDF>
   <cc:Work rdf:about="">
    <dc:format>image/svg+xml</dc:format>
    <dc:type rdf:resource="http://purl.org/dc/dcmitype/StillImage"/>
    <dc:title/>
   </cc:Work>
  </rdf:RDF>
 </metadata>
 <g id="g36629">
  <g id="g36625">
   <rect id="rect2990" opacity="0" height="54" width="99" y="0" x="0"/>
   <path id="path8882" d="m31.61 49.01c-1.9628-0.72211-3.3971-2.1562-4.5794-4.5788s-1.6407-4.5696-1.6454-7.7064c-0.0116-7.8655 3.4477-13.448 9.8596-15.912 0.33149-0.12736 0.70151-0.49145 0.82228-0.8091 0.21615-0.56851 0.24413-0.57564 1.7906-0.45628 0.86407 0.06669 2.0433 0.32498 2.6205 0.57397 1.2212 0.52679 1.6819 0.38911 2.1034-0.62861 0.23766-0.57376 0.21318-0.83508-0.17909-1.9121-0.24991-0.68614-0.69159-2.8383-0.98151-4.7825-0.50661-3.3973-0.90292-4.6241-1.4937-4.6241-0.13911 0-0.47456-0.2082-0.74543-0.46268-0.60828-0.57145-1.1674-0.39838-1.1674 0.36137 0 0.68748-0.38593 1.4629-0.64761 1.3011-0.10911-0.06743-0.10913-0.40199-0.00006-0.78231 0.11681-0.40727 0.10563-0.88791-0.0289-1.2417-0.17733-0.46644-0.14639-0.63058 0.16135-0.85561 0.20943-0.15314 0.45999-0.27844 0.55678-0.27844 0.0968 0 0.17599-0.19189 0.17599-0.42642 0-0.30898-0.23969-0.49823-0.87031-0.68717-0.47866-0.14341-0.8703-0.34316-0.8703-0.44389 0-0.25036-0.004-0.25118 1.8228 0.34524 0.89024 0.29061 2.1416 0.89241 2.7808 1.3373 0.63921 0.44494 1.4405 1.0036 1.7806 1.2414 0.43088 0.30126 0.5379 0.48216 0.35288 0.59651-0.37045 0.22895-0.0585 0.64792 0.48241 0.64792 0.37855 0 0.40558-0.05227 0.17234-0.3333-0.243-0.2928-0.20451-0.30588 0.31681-0.10768 0.44561 0.16942 0.89098 0.13912 1.788-0.12167 0.65705-0.19101 1.4283-0.28863 1.714-0.21694 0.38005 0.09539 0.71155-0.03663 1.236-0.49222 0.92404-0.80269 1.5429-1.1215 2.1767-1.1215 0.28026 0 1.8733 0.34047 3.54 0.75659 2.3387 0.58389 3.1569 0.88342 3.5843 1.3122 0.46981 0.47132 0.50431 0.58705 0.22744 0.76311-0.1795 0.11414-0.69352 0.20903-1.1423 0.21086-0.44875 0.0018-0.81591 0.10777-0.81591 0.23542 0 0.27122 1.0239 1.7114 1.4978 2.1068 0.27107 0.22616 0.17239 0.27197-0.58592 0.27197-0.60211 0-0.91189 0.09587-0.91189 0.28221 0 0.3801 1.4644 1.7614 2.3281 2.1959 0.75347 0.37909 1.8058 0.47002 1.8058 0.15604 0-0.25145-0.54832-0.45843-1.2145-0.45843-0.31702 0-0.52615-0.12668-0.52615-0.31871 0-0.48798 0.69201-0.75055 1.5299-0.58048 0.61995 0.12582 0.76727 0.26232 0.8255 0.76482 0.06 0.51834 0.14306 0.58869 0.54394 0.46111 0.26018-0.0828 0.90868-0.2732 1.4411-0.4231 2.0268-0.57061 1.2097-1.4187-1.3904-1.4432-0.96438-0.0091-2.0961-0.14852-2.5149-0.30981-0.99758-0.38416-0.4693-0.40487 2.3394-0.09168 2.2212 0.24768 2.7547 0.42962 3.3251 1.1341 0.19355 0.23903 0.78109 0.59313 1.3056 0.7869 1.1294 0.41719 2.3856 1.9083 2.3856 2.8317 0 0.33112-0.19341 1.1802-0.4298 1.8869-0.62886 1.8799-0.58331 2.1448 0.49664 2.8878 2.0209 1.3904 3.1079 3.0172 3.7266 5.577 0.20247 0.83767 0.55689 1.7872 0.78762 2.1101 0.36358 0.50879 0.40041 0.81305 0.27624 2.282-0.0794 0.9389-0.27266 1.8243-0.43333 1.985-0.15953 0.15953-0.2915 0.65022-0.29327 1.0904-0.006 1.423-0.97107 4.8856-2.0126 7.2189-0.49802 1.1157-1.945 3.0525-3.0211 4.0438-1.0792 0.99416-2.1876 1.5572-3.6202 1.8391-1.3217 0.26002-2.3523 0.06269-3.9277-0.75201-1.4921-0.77161-3.4652-3.4585-4.1671-5.6748-0.49699-1.5692-0.89162-1.6702-1.9873-0.50842-0.54548 0.5784-0.64369 0.60141-2.1433 0.50224-1.9027-0.12583-2.6938-0.54754-3.2735-1.7451-0.36679-0.75769-0.40948-1.1476-0.2863-2.6157 0.12428-1.4812 0.25391-1.89 0.91665-2.8901l0.7719-1.1649-1.0208-1.99c-1.2633-2.4628-3.7491-6.8996-4.071-7.2662-0.66803-0.7607-0.88649 0.03011-0.23658 0.85634 2.1322 2.7106 2.8238 8.6421 1.619 13.884-0.6472 2.8161-1.737 5.2218-2.3656 5.2218-0.16593 0-0.45445 0.2181-0.64117 0.48467-0.70372 1.0047-2.6642 2.8612-3.766 3.5664-2.5442 1.6283-5.4569 2.0304-7.9807 1.102zm5.4153-0.4743c0.4731-0.08027 1.2242-0.33169 1.6692-0.5587 1.1178-0.57025 3.1841-2.5271 4.1506-3.9309 0.82808-1.2026 1.9142-3.7819 1.9142-4.5456 0-0.70291-0.43316-0.49029-0.78581 0.38572-1.4766 3.6678-3.4777 5.9749-6.4159 7.3965-1.0052 0.4864-2.0725 0.95712-2.3717 1.046-0.51136 0.15198-0.51788 0.17173-0.10879 0.32966 0.23933 0.0924 0.58201 0.13542 0.76151 0.09559 0.1795-0.03982 0.71345-0.13808 1.1866-0.21836zm-1.9-1.4238c0.11131-0.42565 0.13344-0.42813 0.53977-0.06041 0.40728 0.36858 0.47807 0.35525 1.8265-0.34386 1.8196-0.94342 3.6884-2.9692 4.7528-5.1519 0.44062-0.90362 0.77067-1.857 0.73343-2.1186-0.0525-0.36897-0.67773-0.78003-2.7874-1.8327-1.4958-0.74636-2.8113-1.3583-2.9232-1.3598-0.11195-0.0015-0.42017-0.20634-0.68492-0.45506-0.46037-0.4325-0.51177-0.4365-1.1785-0.09172-0.67212 0.34757-0.71585 0.34292-1.2189-0.12965-0.28696-0.26958-0.52174-0.56036-0.52174-0.64617s0.37267-0.30514 0.82816-0.48739c1.0293-0.41184 2.1448-1.6275 3.1612-3.4451 1.2424-2.2215 2.6433-6.1867 2.4051-6.8074-0.1738-0.45294-1.572-0.99789-2.9225-1.139-1.1136-0.11639-1.4366-0.05592-2.5126 0.47054-1.5986 0.78212-3.7413 2.9141-4.5921 4.569-0.77974 1.5167-1.6531 4.3326-2.0382 6.5711-0.64483 3.749 0.48842 8.712 2.5483 11.16 1.2139 1.4426 4.3173 2.3213 4.5848 1.2981zm30.87-0.11781c1.3906-0.73275 2.2949-1.6134 3.4773-3.3865 1.246-1.8683 2.0823-4.1092 1.2874-3.4494-0.1795 0.14897-0.32636 0.39055-0.32636 0.53685 0 0.44717-1.7486 3.0013-2.5846 3.7752-1.0682 0.98891-2.6747 1.7792-3.9154 1.9262-2.1834 0.25859-4.41-1.3988-5.75-4.2801-0.79736-1.7144-0.75474-1.6598-1.0591-1.3554-0.73686 0.73685 2.1632 5.0825 4.0622 6.0872 1.613 0.8533 3.3654 0.90651 4.8087 0.14601zm-36.392-1.8803c-0.85415-1.1437-1.3055-2.1714-1.8206-4.1452-0.26007-0.99655-0.18158-6.1929 0.12893-8.5344 0.17519-1.3212-0.26408-0.46511-0.67871 1.3228-0.2557 1.1025-0.31093 2.0951-0.21726 3.9042 0.13967 2.6971 0.50887 4.387 1.295 5.9275 0.66482 1.3028 1.8648 2.9584 2.0267 2.7964 0.0678-0.06779-0.26254-0.63988-0.73408-1.2713zm35.098 0.68883c2.5925-0.98566 4.6798-4.2471 5.6316-8.7993 0.40241-1.9246 0.42909-4.4627 0.0469-4.4544-0.41531 0.009-2.2277 1.767-2.5084 2.433-0.1366 0.32422-0.62299 0.83741-1.0809 1.1404-0.71969 0.47627-0.93442 0.5217-1.5847 0.3352-1.4365-0.41198-2.1973-0.24644-4.7802 1.0401-1.6825 0.83805-2.527 1.3803-2.5779 1.6554-0.11677 0.63021 0.34965 0.77043 2.1334 0.64133 0.90266-0.06533 1.837-0.13258 2.0764-0.14944 0.23933-0.01686 0.4841 0.06725 0.54394 0.18691 0.0656 0.13134-0.66733 0.28436-1.8494 0.38609-1.077 0.09269-2.0806 0.212-2.2302 0.26514-1.1472 0.40757 1.6555 4.7866 3.333 5.2076 0.33959 0.08523 0.70277 0.03347 0.89716-0.12786 0.26615-0.22089 0.36499-0.20248 0.53394 0.09942 0.23993 0.42873 0.57062 0.46153 1.4153 0.14038zm-38.12-7.0043c-0.37097-4.4525 0.15652-7.0225 2.1542-10.496 1.9846-3.4504 5.125-5.7407 7.9563-5.8025 1.6519-0.03607 2.798 0.31931 4.2997 1.3333 1.2002 0.81041 1.2773 0.83291 1.4648 0.42765 0.15129-0.32695 0.0744-0.56031-0.32636-0.99014-0.69826-0.74896-2.6851-1.7263-3.8859-1.9115-0.53256-0.08215-1.092-0.25202-1.2432-0.37749-0.37089-0.30781-2.029 0.25273-3.6895 1.2472-2.3145 1.3862-4.9731 4.4007-5.8336 6.6144-0.85146 2.1904-1.429 4.2405-1.4331 5.0871-0.002 0.49331-0.0982 1.5333-0.21298 2.3112-0.13712 0.92953-0.13251 1.8617 0.0135 2.7197 0.28081 1.6508 0.35125 1.8494 0.65588 1.8494 0.17991 0 0.20199-0.55296 0.0804-2.0126zm23.836 0.69428c0-0.23227-0.14686-0.42231-0.32636-0.42231-0.32272 0-0.4562 0.66794-0.18723 0.93692 0.22684 0.22684 0.51359-0.06047 0.51359-0.5146zm1.0879 0.32636c0-0.18656-0.0979-0.27869-0.21757-0.20473s-0.21758 0.2266-0.21758 0.3392 0.0979 0.20474 0.21758 0.20474c0.11966 0 0.21757-0.15264 0.21757-0.33921zm1.1852-0.3321c-0.0701-0.11335-0.22011-0.14877-0.33346-0.07872s-0.14877 0.22011-0.0787 0.33346c0.07 0.11335 0.2201 0.14877 0.33345 0.07872s0.14878-0.22011 0.0787-0.33346zm4.2542-0.85172c0-0.62855-0.0907-0.8703-0.32636-0.8703-0.23571 0-0.32637 0.24175-0.32637 0.8703s0.0907 0.8703 0.32637 0.8703c0.2357 0 0.32636-0.24175 0.32636-0.8703zm15.353-3.4715c0.23928-2.4284-0.14813-2.6241-0.45001-0.22729-0.14318 1.1368-0.32332 2.5076-0.4003 3.0461l-0.13996 0.97909 0.4206-1.1426c0.23134-0.62842 0.48768-1.8233 0.56967-2.6553zm-22.316 2.8059c0-0.48202-0.54758-0.57499-0.72124-0.12246-0.13175 0.34333 0.26436 0.82714 0.53849 0.65771 0.10051-0.06212 0.18275-0.30298 0.18275-0.53525zm-6.9681 0.28481c-0.01-0.28334-3.4001-2.2302-3.8837-2.2302-0.93719 0-0.41073 0.47893 1.5504 1.4104 2.1138 1.004 2.3424 1.0844 2.3333 0.81971zm2.2831-0.32636c0.0839-0.26925 0.20523-1.8201 0.26973-3.4463 0.0904-2.2796 0.0333-3.3758-0.2495-4.7867-0.37946-1.8932-1.2484-4.1144-1.6097-4.1144-0.37487 0-0.48546 0.70613-0.18368 1.1729 0.2755 0.42617 0.99019 2.6454 1.3388 4.1574 0.29359 1.2732 0.14844 5.9804-0.20635 6.6916-0.41373 0.82935-0.41511 0.81502 0.0784 0.81502 0.23473 0 0.4749-0.20912 0.56224-0.48955zm14.351-0.49604c0.56662-0.42621 0.30578-0.61984-0.60484-0.44901-0.80016 0.15011-1.3513 0.625-1.1338 0.97693 0.15304 0.24762 1.083-0.03475 1.7386-0.52791zm-15.663-3.6456c-0.0114-2.7858-0.0845-3.4999-0.46114-4.507-0.30499-0.81545-0.56059-1.187-0.80233-1.1664-0.41675 0.03549-0.45429-0.44132-0.11203-1.4231 0.13349-0.38297 0.18475-0.75427 0.1139-0.82512-0.0709-0.07086-0.1708 0.0076-0.22211 0.17429-0.0513 0.16671-0.24673 0.80277-0.43425 1.4135-0.18753 0.61069-0.39281 1.6312-0.45618 2.2679-0.0634 0.63664-0.2619 1.3196-0.44118 1.5177-0.17927 0.1981-0.32595 0.57929-0.32595 0.8471 0 0.48069-0.93677 1.9259-1.4674 2.2637-0.15029 0.0957-0.27326 0.36372-0.27326 0.5956 0 0.44636 0.71573 0.96628 2.9329 2.1305 1.8987 0.99699 1.9661 0.88325 1.949-3.2886zm8.7138 3.3303c0.19012-0.30761-0.2823-1.0924-0.6576-1.0924-0.38422 0-0.42175 0.68024-0.0577 1.0444 0.31674 0.31674 0.53988 0.33172 0.71522 0.04801zm4.2697-2.0715c0.0731-0.95733 0.25345-2.3281 0.40067-3.0461 0.3543-1.7279 1.8684-4.8899 3.1537-6.5859 1.005-1.3261 1.1617-2.0083 0.46129-2.0083-0.43972 0-2.3146 2.2867-3.2519 3.9662-0.98528 1.7654-2.0934 4.7849-2.0934 5.7041 0 0.39602 0.14687 0.84192 0.32637 0.99089 0.45159 0.37479 0.40793 0.81134-0.10879 1.0879-0.27599 0.14771-0.43515 0.45556-0.43515 0.8417 0 0.76701 0.16975 0.93525 0.86216 0.8545 0.52674-0.06143 0.55819-0.14429 0.68508-1.805zm-2.0783 1.1758c0.21596-0.34942-0.49433-0.99897-0.77999-0.7133-0.12445 0.12444-0.16363 0.3895-0.0871 0.58901 0.15793 0.41157 0.64626 0.48157 0.86706 0.12429zm6.3512-0.22367c0.61389-0.22551 0.64739-0.84333 0.0457-0.84333-0.61735 0-2.2097 0.84287-2.0576 1.0891 0.12639 0.20452 1.1147 0.08378 2.0118-0.24576zm-0.97857-1.2064c0.81396-0.31934 1.444-0.6865 1.4-0.81591-0.0996-0.29318-2.7537-0.1742-3.1412 0.14081-0.35026 0.28478-0.35443 1.2557-0.005 1.2557 0.14662 0 0.93255-0.26128 1.7465-0.58063zm4.1652 0.01706c0.17684-0.46084-0.0207-0.74188-0.52137-0.74188-0.59896 0-0.78137 0.45571-0.31802 0.79452 0.51925 0.37969 0.6773 0.36978 0.83939-0.05264zm-26.702-0.24239c0.3793-0.05933 0.88666-0.31837 1.1274-0.57565 0.69061-0.73788 1.6679-2.883 2.4241-5.3208 0.6954-2.2418 0.73816-3.3061 0.13285-3.3061-0.45934 0-0.67125 0.39651-1.3227 2.4749-0.62005 1.9783-1.8683 4.0951-3.2932 5.5846-0.8756 0.91532-1.0049 1.6504-0.2477 1.4078 0.26926-0.08627 0.79989-0.20539 1.1792-0.26471zm31.48-1.6066c1.3962-1.2794 1.687-1.7641 1.2285-2.0475-0.33979-0.21-3.5788 1.4938-3.6621 1.9264-0.0778 0.40397 0.5036 1.4458 0.80683 1.4458 0.0996 0 0.83166-0.59613 1.6268-1.3247zm-18.803-1.4339c-0.50092-0.93591-0.98326-1.7996-1.0719-1.9192-0.0886-0.11967-0.40725-0.65817-0.7081-1.1967-1.961-3.51-2.6072-4.5691-2.7878-4.5691-0.11254 0-0.20462 0.04943-0.20462 0.10986 0 0.20441 1.0012 2.1654 1.999 3.9153 0.54586 0.95733 1.4577 2.6218 2.0263 3.6988 1.3028 2.4676 1.4998 2.73 1.5904 2.1183 0.0371-0.25059-0.34234-1.2214-0.84326-2.1573zm15.067 0.8831c-0.11426-0.67966-2.9052-6.5871-3.2455-6.8695-0.25681-0.21314-0.39438-0.16196-0.72659 0.2703-0.571 0.74298-0.5332 1.0988 0.42779 4.0268 1.0358 3.1558 1.5169 3.7181 2.7964 3.2684 0.60539-0.21276 0.79891-0.39284 0.74795-0.69601zm-11.951 0.08056c0.67637-0.51666 0.66147-1.287-0.0464-2.4009-0.36388-0.57257-0.6616-1.0895-0.6616-1.1487s-0.76915-1.4021-1.7092-2.9841c-1.546-2.6018-2.8363-4.8245-3.7307-6.4265-0.84238-1.5089-1.6544-2.6501-1.886-2.6505-0.14008-0.000214-0.30807 0.26886-0.37332 0.59794-0.48468 2.4445-0.41735 2.982 0.39917 3.187 0.52822 0.13258 1.8606 2.0206 1.8606 2.6364 0 0.28069 2.8333 5.9436 4.1569 8.3084 0.66929 1.1958 1.2448 1.4505 1.9905 0.88089zm19.527-0.9247c0-0.28504-0.0979-0.57877-0.21758-0.65273-0.12973-0.08018-0.21757 0.18333-0.21757 0.65273 0 0.46939 0.0878 0.73291 0.21757 0.65273 0.11967-0.07396 0.21758-0.36769 0.21758-0.65273zm-11.876 0.41187c0.18929-0.07263 0.34416-0.34892 0.34416-0.61397 0-0.66466-0.64506-2.5588-1.0009-2.939-0.24962-0.26672-0.3724-0.13207-0.83651 0.91737-0.66541 1.5046-0.85908 2.2356-0.67235 2.5377 0.15332 0.24807 1.6034 0.31361 2.1656 0.09788zm7.4154-0.8001 1.7406-0.91723-0.0326-1.0026c-0.0606-1.8625-1.5673-4.2387-3.2463-5.1194-1.226-0.64307-4.0099-0.23247-4.0099 0.59142 0 0.1238 0.5385 1.442 1.1967 2.9293 0.65817 1.4873 1.197 2.779 1.1975 2.8703 0.001 0.3655 0.88061 1.5799 1.1383 1.5729 0.15135-0.0041 1.0584-0.42022 2.0158-0.9247zm-13.598-0.02028c0-0.34672-0.6047-0.90871-0.78441-0.72901-0.1665 0.1665 0.315 1.0287 0.57448 1.0287 0.11546 0 0.20993-0.13488 0.20993-0.29972zm0.35702-3.8512c0.26014-0.88818 0.8383-2.7728 1.2848-4.1881l0.81184-2.5732-0.6829-0.62373c-0.89317-0.8158-0.87627-1.4697 0.0786-3.0416 0.41884-0.68948 0.76152-1.3724 0.76152-1.5176 0-0.14518-0.44059-0.84331-0.97909-1.5514-0.5385-0.70808-0.9791-1.3808-0.9791-1.4949 0-0.11412 0.19582-0.31229 0.43516-0.44038 1.3134-0.7029-0.58227-2.7736-3.2698-3.5717-1.6894-0.5017-2.3064-0.43681-3.446 0.36242-0.55453 0.38892-1.2016 0.81412-1.4378 0.9449-0.7527 0.41663-1.3923 2.0435-1.507 3.8332-0.10094 1.575-0.0697 1.7162 0.71939 3.2481 0.4537 0.88084 1.0234 1.9442 1.266 2.363 0.24262 0.41883 1.121 1.9364 1.952 3.3724 0.83096 1.436 1.9201 3.2818 2.4203 4.1018 0.50023 0.81998 0.9095 1.5466 0.9095 1.6147 0 0.26572 0.74233 0.92599 0.95963 0.85356 0.12644-0.04214 0.44272-0.80332 0.70285-1.6915zm2.9349-1.8764c1.3438-1.7533 1.321-1.6872 0.92412-2.6791-0.29759-0.74374-0.40929-0.8498-0.64395-0.61143-0.35151 0.35707-1.6274 4.1156-1.4788 4.3561 0.16752 0.27107 0.18844 0.25248 1.1986-1.0656zm9.4524-2.2146c-0.11863-0.19195-1.2127-0.47628-1.2127-0.31516 0 0.09557 0.88081 0.47147 1.1551 0.49297 0.0968 0.0076 0.12273-0.07243 0.0576-0.17781zm-4.0326-0.46555c0.98823-0.50416 1.0882-0.80073 0.33374-0.99008-0.72313-0.1815-1.7408 0.34354-1.8262 0.94215-0.0884 0.62006 0.34375 0.63395 1.4924 0.04793zm5.237-0.29317c-0.30336-0.36553-1.1118-0.614-1.1118-0.34171 0 0.2111 1.1468 0.86783 1.2821 0.73419 0.047-0.0464-0.0297-0.22302-0.17031-0.39248zm-26.351-0.03415c0-0.31206-0.30252-0.48726-1.4686-0.85053-0.72504-0.22586-0.5965 0.20075 0.21758 0.72209 0.84198 0.53922 1.2511 0.58122 1.2511 0.12843zm2.4214-0.59748c-0.36224-0.36223-0.5674-0.0023-0.23025 0.40389 0.20391 0.24569 0.32184 0.27504 0.38185 0.09501 0.0477-0.14326-0.0204-0.36776-0.1516-0.4989zm22.372-1.2145c0.50847-1.9059 0.80586-3.4246 0.7199-3.6764-0.12525-0.36689-0.74915-0.3435-1.2661 0.04747-0.23229 0.17569-0.58791 0.32256-0.79026 0.32636-0.48574 0.0091-0.72242 0.41786-0.41816 0.72212 0.36379 0.36378 0.29133 0.68436-0.0842 0.37268-0.51455-0.42704-0.97909 0.11143-0.97909 1.1349 0 0.68105 0.0922 0.88813 0.43515 0.97783 0.23933 0.06259 0.43515 0.19716 0.43515 0.29905 0 0.27631 1.1368 0.81943 1.4576 0.69635 0.15306-0.05874 0.37357-0.46388 0.49001-0.90033zm-3.8179-0.46717c0.0413-0.98181 0.51266-1.8965 1.9328-3.7508 0.34268-0.44745 0.59119-0.97891 0.55225-1.181-0.11627-0.6034-1.1386-0.73936-2.0175-0.2683-0.42429 0.22741-0.88647 0.41347-1.0271 0.41347-0.14059 0-0.44015 0.167-0.66568 0.3711-0.33959 0.30732-0.48429 0.32475-0.8419 0.10142-0.60845-0.37998-0.84928-0.14379-0.84928 0.83294 0 0.46454-0.0979 0.90513-0.21758 0.97909-0.35712 0.22072-0.23142 1.241 0.28095 2.2801 0.50196 1.018 1.0177 1.3097 2.1901 1.2387 0.57945-0.03507 0.62449-0.10415 0.66289-1.0167zm-24.239 0.20216c0-0.25051-1.6925-0.69273-1.9774-0.51666-0.14684 0.09075-0.10859 0.27066 0.10855 0.5106 0.34614 0.38249 1.8688 0.38742 1.8688 0.0061zm20.485-0.31095c0-0.11368-0.10525-0.24178-0.23389-0.28466s-0.23389 0.08522-0.23389 0.28466 0.10525 0.32754 0.23389 0.28466 0.23389-0.17098 0.23389-0.28466zm-16.025-1.4117c0.19826-0.59693 0.4509-1.1412 0.56142-1.2095s0.20094-0.37517 0.20094-0.68193c0-0.4711-0.0507-0.51566-0.32636-0.28688-0.1795 0.14897-0.32637 0.43398-0.32637 0.63336s-0.19582 0.74659-0.43515 1.216c-0.47035 0.92257-0.55208 1.4142-0.23506 1.4142 0.11005 0 0.36231-0.48839 0.56058-1.0853zm14.227-0.05695c0.48764-1.1432 0.98792-3.1894 0.8207-3.3567-0.2816-0.2816-0.8334 0.19581-1.2338 1.0675-0.2348 0.51113-0.62177 1.2666-0.85992 1.6788-0.40184 0.69551-0.40742 0.77779-0.0776 1.1423 0.55586 0.61422 0.92352 0.46942 1.3506-0.53192zm-14.327-1.813c0.54024-1.2603 0.53641-1.7587-0.0205-2.6723-0.24549-0.40267-0.54708-1.2839-0.67019-1.9582-0.12346-0.67622-0.42497-1.4426-0.67234-1.7089-0.48876-0.52618-0.90296-0.45779-0.72914 0.12039 0.0599 0.19935 0.26332 1.5863 0.45197 3.0821 0.36507 2.8946 0.66617 4.1339 1.0044 4.1339 0.11463 0 0.40076-0.44871 0.63585-0.99713zm1.6285-4.4494c0.0764-0.12356 0.22066-0.50991 0.32065-0.85856 0.14943-0.52105 0.0868-0.7364-0.35184-1.2097-0.30457-0.32863-0.67018-0.5234-0.85175-0.45373-0.36707 0.14086-0.41737 0.48386-0.0997 0.68016 0.12011 0.07423 0.16074 0.36462 0.0903 0.6453-0.21283 0.84798 0.50934 1.8163 0.89239 1.1965zm-1.3191-0.84818c0.0688-0.1114 0.0257-0.26404-0.0959-0.3392-0.12162-0.07517-0.22112 0.01598-0.22112 0.20254 0 0.38218 0.13056 0.43845 0.31707 0.13666zm-0.42586-1.6374c0-0.4282-2.1462-2.2683-2.6653-2.2852-0.51084-0.01656-0.27223 0.43431 0.86459 1.6337 1.1373 1.1999 1.8007 1.4399 1.8007 0.65146zm3.6988-1.2061c0.074-0.11967 0.0308-0.21758-0.0959-0.21758-0.12673 0-0.23042 0.09791-0.23042 0.21758s0.0431 0.21758 0.0959 0.21758 0.15646-0.09791 0.23042-0.21758zm10.021-0.11571c-0.46662-0.35294-1.427-0.4337-1.427-0.12 0 0.26936 0.4112 0.41684 1.1967 0.42919 0.6201 0.0097 0.63161-0.0057 0.23038-0.30919z"/>
  </g>
 </g>
</svg>
