<?xml version="1.0" encoding="UTF-8" standalone="no"?>
<!-- Created with Inkscape (http://www.inkscape.org/) -->
<svg id="svg2" xmlns:rdf="http://www.w3.org/1999/02/22-rdf-syntax-ns#" xmlns="http://www.w3.org/2000/svg" height="54" width="99" version="1.1" xmlns:cc="http://creativecommons.org/ns#" xmlns:dc="http://purl.org/dc/elements/1.1/">
 <metadata id="metadata7">
  <rdf:RDF>
   <cc:Work rdf:about="">
    <dc:format>image/svg+xml</dc:format>
    <dc:type rdf:resource="http://purl.org/dc/dcmitype/StillImage"/>
    <dc:title/>
   </cc:Work>
  </rdf:RDF>
 </metadata>
 <g id="g15253">
  <rect id="rect2990" opacity="0" height="54" width="99" y="0" x="0"/>
  <path id="path8956" d="m71.635 48.897c-4.2618-1.5701-6.5607-3.4191-8.341-6.7089l-0.74203-1.3711h-8.4938c-8.3901 0-10.884-0.35402-10.45-1.4836 0.10643-0.27718-0.49719-1.1733-1.3412-1.9914-0.84404-0.81808-1.5346-1.229-1.5346-0.91305 0 0.94327-1.1339-0.23258-1.7682-1.8336-0.30532-0.77067-1.2845-2.9906-2.1759-4.9332-0.89142-1.9426-1.7668-4.0007-1.9453-4.5737-0.47433-1.5224-3.2487-7.4751-3.7852-8.1216-0.66551-0.80189-1.565 0.08146-1.8997 1.8656-0.25037 1.3346-0.0672 1.6516 2.3027 3.9854 1.4161 1.3945 2.9954 3.4176 3.5097 4.4957 1.0506 2.2023 1.9688 7.3516 1.761 9.8759-0.12603 1.5323-0.25282 1.6784-1.5654 1.8047-1.0941 0.10528-1.6692 0.51284-2.4585 1.7424-1.3273 2.0676-3.9232 4.5235-6.1318 5.8012-1.5146 0.87615-2.3404 1.0094-6.3161 1.0194-4.2567 0.01075-4.7204-0.07478-6.6901-1.2325-5.8442-3.4351-8.0931-9.3425-6.062-15.924 0.59768-1.9367 1.3312-3.0126 3.5899-5.2654 1.9754-1.9703 2.8398-3.1625 2.8424-3.9203 0.006-1.7525 3.2749-2.6982 8.3069-2.4033l3.9473 0.23139 0.95309-1.6958c1.5058-2.6791 1.3289-3.1052-1.166-2.8097-2.517 0.2981-2.7246 0.07216-2.7822-3.0275-0.0524-2.8202 0.35321-4.1143 1.393-4.4443 1.232-0.39101 4.1956 0.98497 4.7521 2.2063 0.44353 0.97343 0.37558 1.1216-0.70313 1.5335-1.1655 0.44501-1.1734 0.47112-0.32804 1.0918 0.77159 0.56649 0.92901 0.55106 1.4432-0.14144 0.34824-0.46895 0.47446-1.2957 0.31818-2.0841-0.59204-2.987-0.56904-3.048 1.1544-3.0638 0.93179-0.0086 2.027-0.36872 2.6135-0.85962 0.55531-0.46475 0.76464-0.56598 0.46517-0.22495-0.78705 0.89627-0.67164 1.317 0.36131 1.317 0.79323 0 0.86839 0.1759 0.6049 1.4157-0.1655 0.77862-0.60456 1.7599-0.97572 2.1806-0.961 1.0893-0.30541 1.4746 1.3329 0.78333 1.6848-0.71089 3.966-0.84416 4.134-0.24152 0.0668 0.23958-0.88557 0.54104-2.1163 0.66993-1.5014 0.15723-2.4371 0.50711-2.8438 1.0633-0.92922 1.2708-0.75696 1.442 1.2451 1.2378 1.0182-0.10386 2.9293 0.10299 4.247 0.45965 2.1201 0.57386 2.5109 0.57397 3.3965 0.000958 1.4352-0.92866 4.4243-0.37348 6.5988 1.2257 0.97112 0.71416 1.7657 1.4635 1.7657 1.6653 0 0.49417-1.2686 1.7358-1.7735 1.7358-0.22246 0-0.40448 0.20626-0.40448 0.45835 0 0.27926 0.89354 0.40691 2.2868 0.32669 2.2346-0.12866 2.2857-0.16152 2.2353-1.4384l-0.0516-1.3068 5.7142-0.10444c3.9221-0.07168 7.4902-0.44662 11.377-1.1955 3.1145-0.60009 6.9779-1.0921 8.5854-1.0934l2.9227-0.0023 0.50283 1.8513c0.27656 1.0182 0.58294 2.124 0.68084 2.4574 0.13968 0.47577 0.80815 0.54809 3.1083 0.33631 4.8376-0.44542 4.7912-0.48855 4.7658 4.4309-0.01162 2.3153 0.06011 4.6997 0.16033 5.2986 0.1613 0.96483 0.04022 1.0789-1.0627 1.0006-1.1441-0.08127-1.2222 0.0068-0.96637 1.089 0.75296 3.1847 0.75868 4.8748 0.0241 7.1181-1.874 5.7228-3.5954 7.8103-8.2672 10.025-2.1328 1.0112-3.1744 1.2336-5.6627 1.2088-1.677-0.01668-3.7459-0.28704-4.5975-0.60078zm6.4192-5.7931c-0.78421-2.4895-0.78524-2.4856 0.85241-3.2924 1.7129-0.84396 2.3144-0.54673 2.3286 1.1508 0.01016 1.2281 0.98867 0.62832 2.0686-1.268 1.0871-1.909 1.3069-5.104 0.47659-6.9264-0.61642-1.3529-1.2938-1.228-1.7064 0.31456-0.16741 0.626-0.83841 1.8383-1.4911 2.6941-1.1723 1.5369-1.226 1.5559-4.4088 1.5559-3.1391 0-6.6931 0.75021-6.6931 1.4128 0 0.18124 1.8622 0.32953 4.1381 0.32953 2.276 0 4.1381 0.17564 4.1381 0.39031s-2.871 0.53383-6.3799 0.70924c-6.4953 0.3247-7.088 0.64176-2.7087 1.449 1.35 0.24886 3.1142 0.85459 3.9203 1.3461 1.9525 1.1903 5.8279 1.2858 5.4653 0.13457zm-52.661-1.139c1.7305-1.0924 3.1427-3.0338 3.1427-4.3202 0-0.33106-0.67291-0.80846-1.4954-1.0609-1.3319-0.40876-1.6021-0.34531-2.4717 0.5803-1.2357 1.3153-1.6956 1.3144-1.6956-0.0032 0-1.7566-1.9261-2.0633-4.4529-0.709l-1.6086 0.86217-0.67178-0.95909c-0.84611-1.208-0.84898-2.2082-0.0116-3.8286 0.74474-1.4402 2.6706-2.5993 4.3186-2.5993 0.80512 0 1.1742-0.28639 1.3689-1.0622 0.36193-1.442-0.99453-3.262-2.4446-3.28-1.871-0.02316-4.8913 1.8174-6.2936 3.8352-1.1699 1.6835-1.3126 2.2375-1.3126 5.0964 0 3.8481 0.4911 4.6143 2.2282 3.4761 1.1382-0.74575 1.2065-0.74493 1.7668 0.0213 0.59493 0.8136 0.37503 2.3607-0.40696 2.8631-0.64098 0.41182 0.0383 1.2503 1.5825 1.9533 2.1046 0.95815 6.2384 0.5351 8.4571-0.86548zm20.656-4.2812c-0.36244-0.36244-0.3728-0.66448-0.0367-1.0695 0.38215-0.46046 0.74855-0.44738 1.9892 0.07099 1.6659 0.69605 3.1843 0.27025 3.1843-0.89295 0-0.35093 0.21159-0.63806 0.47021-0.63806 0.29574 0 0.36953 0.52523 0.19885 1.4157-0.21709 1.1325-0.17611 1.2632 0.20483 0.65338 0.66896-1.0709 2.6308-0.99775 2.9202 0.1089 0.26639 1.0187 1.5318 1.1485 2.29 0.23488 0.29045-0.34997 0.62758-1.379 0.7492-2.2868 0.18125-1.353 0.017-1.8707-0.91115-2.8717-1.1154-1.203-1.2021-1.2201-5.814-1.1454-4.8358 0.07832-6.8465 0.67322-6.3804 1.8878 0.1285 0.33465 0.0241 0.73786-0.23179 0.89602-0.25591 0.15816-0.46529 1.0664-0.46529 2.0183 0 1.3945 0.19036 1.8027 0.98008 2.1015 1.1652 0.44079 1.5552 0.21985 0.85251-0.48287zm-10.411-3.92c-0.73-5.171-2.579-9.024-5.248-10.939-2.3703-1.7002-2.8907-1.2381-0.73189 0.64992 3.8851 3.3976 5.1096 5.7866 5.3163 10.372 0.16331 3.6216 0.35163 4.518 0.88046 4.1912 0.19575-0.12098 0.0982-2.0446-0.21671-4.2746zm25.204 0.9555c0.24618 0.73856 2.5406-0.6843 2.5406-1.5755 0-0.83773-2.1404-0.77251-2.4656 0.07512-0.14317 0.37313-0.52907 0.5753-0.85751 0.44926-0.43127-0.16549-0.59289 0.16034-0.58174 1.1728l0.0154 1.402 0.57967-1.046c0.37511-0.67688 0.64653-0.84546 0.76912-0.47768zm-31.435-0.16421c0-2.2089-0.59725-3.789-2.0923-5.5357l-1.5556-1.8173-0.78958 0.9751c-0.43428 0.5363-0.78959 1.6668-0.78959 2.5123 0 0.95905-0.28669 1.749-0.76228 2.1004-0.52216 0.38578-0.62176 0.70609-0.31617 1.0168 0.65278 0.66382 3.722 1.7167 5.1077 1.7522 0.97913 0.02509 1.1979-0.15821 1.1979-1.0038zm50.686-0.49004c0.31107-0.81063-1.375-1.0173-3.1944-0.39146-0.56451 0.19416-0.56451 0.26902 0 0.62602 0.99749 0.63082 2.9164 0.48992 3.1944-0.23456zm-59.903-0.89168c0.97347-2.1365 0.27726-2.9289-1.8546-2.1109-0.68449 0.26266-0.96969 2.3589-0.39863 2.9299 0.64087 0.64088 1.776 0.22823 2.2532-0.81908zm48.837-0.0045c1.7865-0.3727 3.6976-0.56482 4.247-0.42693 0.55197 0.13853 0.99886 0.0521 0.99886-0.19319 0-0.24414 0.53904-0.44657 1.1979-0.44984 1.6343-0.0081 3.158-0.4501 3.158-0.91603 0-0.21163-0.68605-0.38479-1.5246-0.38479-0.83851 0-1.5246-0.19602-1.5246-0.43559 0-0.64654 2.6676-0.49834 3.9203 0.2178 1.4063 0.80391 2.6135 0.82032 2.6135 0.03553 0-0.73749-2.3488-2.262-4.0292-2.6151-0.65883-0.13846-1.6879-0.35349-2.2868-0.47784-0.83845-0.17408-1.0903-0.49976-1.0949-1.4157-0.01016-2.0887-0.48136-3.1497-1.3979-3.1497-0.82177 0-0.85289 0.20852-0.60119 4.0292 0.18274 2.774 0.13373 3.7239-0.15751 3.0491-0.51893-1.2025-1.3222-1.2848-1.3222-0.13558 0 0.67613-0.41251 0.90264-2.0691 1.1362-2.3647 0.33339-4.0292 1.2288-4.0292 2.1675 0 0.79183-0.0646 0.7924 3.9015-0.03501zm-26.254-1.5755c1.0504-0.98679 1.3217-2.2924 0.57257-2.7554-0.23957-0.14807-0.43559-0.64967-0.43559-1.1147 0-0.58229-0.30509-0.84979-0.98008-0.85933-0.9339-0.01321-0.9421-0.04262-0.17417-0.6244 0.77664-0.58839 0.66654-1.5397-0.17823-1.5397-0.54507 0-2.1522 1.6264-2.1522 2.178 0 0.23957 0.26684 0.43559 0.59298 0.43559 0.39275 0 0.52479 0.3567 0.39105 1.0564-0.20489 1.0718 0.60554 4.1707 1.0907 4.1707 0.14566 0 0.71851-0.4262 1.273-0.94711zm13.745-2.5376c-0.062-0.59894-0.33085-1.628-0.59734-2.2868-0.45141-1.116-0.65959-1.1979-3.0452-1.1979-1.4084 0-2.5607-0.18164-2.5607-0.40365 0-0.69302-1.4704-0.7759-2.7367-0.15426-0.66667 0.32726-1.0986 0.77867-0.95988 1.0031 0.14961 0.24208 0.60997 0.19024 1.1316-0.12745 0.75195-0.45797 0.99561-0.39379 1.6818 0.44292 0.45465 0.5544 0.70426 1.3539 0.57591 1.8447-0.49277 1.8844 0.0825 2.2331 3.459 2.0964 3.0856-0.12491 3.1615-0.15521 3.0515-1.2171zm7.6267-0.77256c0.9074-0.58737 0.98007-0.5661 0.98007 0.28688 0 1.5353 0.80191 1.0465 2.4117-1.47 0.92986-1.4536 2.42-2.9908 3.8002-3.9203 2.1289-1.4337 2.4882-1.5288 5.7611-1.5248 4.6423 0.0057 7.3654 1.2402 10.749 4.8735 1.6909 1.8154 2.6847 2.5657 3.158 2.3841 0.37985-0.14576 0.69064-0.45759 0.69064-0.69296 0-0.81778-6.1106-6.6184-7.6493-7.2614-1.2075-0.50452-2.6684-0.59048-6.6412-0.39077-6.7493 0.33927-7.5689 0.48886-9.3679 1.7097-1.4294 0.97-1.6419 0.99942-3.2018 0.44319-2.2884-0.81599-5.8226-0.7938-7.0188 0.04407-1.3191 0.92394-1.3111 2.6701 0.0116 2.6234 0.75599-0.02667 1.0116 0.2393 1.1179 1.1633 0.15797 1.373-0.60981 1.5972-1.4916 0.43559-0.53852-0.70941-0.57962-0.69753-0.59252 0.17121-0.0293 1.9783 4.8093 2.726 7.2823 1.1253zm-24.465-3.3645c0.7845-0.59836 1.489-1.5245 1.5657-2.0581 0.0767-0.53362 0.62937-1.2198 1.2283-1.5249 0.59894-0.30505 1.04-0.751 0.98008-0.99098-0.0598-0.23999 0.62616-0.44257 1.5246-0.45019 1.5315-0.01292 1.5791-0.05252 0.76229-0.6335-0.47915-0.3408-1.2976-1.0499-1.8187-1.5758-0.91443-0.92272-1.0005-0.93102-2.4616-0.23768-1.7078 0.8104-4.7188 0.94501-5.9847 0.26754-1.217-0.65134-1.0862 0.2811 0.1375 0.98008 0.53904 0.3079 2.0582 0.78347 3.3758 1.0568 2.2482 0.4664 2.2934 0.49994 0.73365 0.54449-2.0922 0.05976-3.3472 0.71665-3.3472 1.752 0 0.97068 1.2063 3.9582 1.5982 3.9582 0.15385 0 0.92159-0.48957 1.7061-1.0879zm3.883-1.7737c0-0.4559-0.34303-0.89498-0.76229-0.97572-0.76661-0.14763-1.1036 1.1729-0.46281 1.8137 0.51461 0.51462 1.2251 0.02863 1.2251-0.83799zm46.39-0.2161c0-2.1346-0.69963-3.0205-2.3854-3.0205-2.2797 0-2.3369 0.81271-0.18804 2.6702 1.056 0.91283 2.067 1.6655 2.2467 1.6727 0.17968 0.0071 0.32669-0.58793 0.32669-1.3224zm-37.46-1.359c0-0.57254-0.99001-0.21402-1.207 0.43712-0.10613 0.31831 0.0931 0.41566 0.51727 0.25286 0.37938-0.14558 0.68978-0.45607 0.68978-0.68998zm-27.586-1.4417c-0.22541-0.68204-6.9094-0.78876-7.8174-0.12481-0.64348 0.47052-0.0665 0.56041 3.5975 0.56041 2.7148 0 4.3095-0.1646 4.2199-0.43559zm51.871-0.26468c5.174-0.593 6.035-1.02 5.594-2.775l-0.30488-1.2148-3.353 0.29199c-1.8441 0.16059-5.5091 0.698-8.1444 1.1942-3.763 0.70859-5.7265 0.84596-9.1474 0.64-4.8896-0.29438-6.173 0.06016-4.8866 1.3499 1.4089 1.4125 10.408 1.6407 20.242 0.51336zm-47.385-4.0656c-0.007-0.25368-0.30165-0.08074-0.65339 0.3843s-0.6333 1.0531-0.62568 1.3068c0.007 0.25368 0.30165 0.08074 0.65339-0.3843s0.6333-1.0531 0.62568-1.3068zm-2.8531-1.8146c0.89453-0.34326 0.87243-0.9889-0.0694-2.0297-0.7245-0.80055-0.71473-0.87358 0.21779-1.6287 1.2607-1.0208 1.2314-1.4838-0.13314-2.1056-2.1545-0.98166-2.3752-0.75203-2.3752 2.471 0 3.5922 0.34083 4.0678 2.3601 3.2929zm13.426-6.6547-3.1619-1.1846 0.8658-0.92932c0.86385-0.92723 0.87203-0.92753 3.6445-0.13468 3.658 1.0461 4.7744 1.668 4.4608 2.4851-0.13837 0.36058-0.25158 0.73758-0.25158 0.83777 0 0.50923-2.75-0.02232-5.5576-1.0742z"/>
 </g>
</svg>
