<?xml version="1.0" encoding="UTF-8" standalone="no"?>
<!-- Created with Inkscape (http://www.inkscape.org/) -->
<svg id="svg2" xmlns:rdf="http://www.w3.org/1999/02/22-rdf-syntax-ns#" xmlns="http://www.w3.org/2000/svg" height="45" width="67.5" version="1.1" xmlns:cc="http://creativecommons.org/ns#" xmlns:dc="http://purl.org/dc/elements/1.1/">
 <metadata id="metadata7">
  <rdf:RDF>
   <cc:Work rdf:about="">
    <dc:format>image/svg+xml</dc:format>
    <dc:type rdf:resource="http://purl.org/dc/dcmitype/StillImage"/>
    <dc:title/>
   </cc:Work>
  </rdf:RDF>
 </metadata>
 <g id="g21963">
  <rect id="rect2990" opacity="0" height="45" width="67.5" y="0" x="3.5527e-15"/>
  <path id="path8956" d="m51.235 39.797c-3.367-1.24-5.183-2.701-6.589-5.3l-0.58615-1.0831h-6.7095c-6.6276 0-8.5976-0.27965-8.2548-1.1719 0.08407-0.21895-0.39275-0.92683-1.0595-1.5731-0.66673-0.64623-1.2122-0.97083-1.2122-0.72125 0 0.74512-0.8957-0.18372-1.3968-1.4484-0.24118-0.60878-1.0147-2.3624-1.7188-3.8969-0.70416-1.5345-1.3957-3.1603-1.5367-3.6129-0.37469-1.2026-2.5663-5.9048-2.99-6.4155-0.52571-0.63344-1.2362 0.06435-1.5006 1.4737-0.19778 1.0542-0.05308 1.3047 1.819 3.1482 1.1186 1.1016 2.3662 2.6997 2.7724 3.5513 0.8299 1.7397 1.5552 5.8073 1.3911 7.8013-0.09955 1.2104-0.19971 1.3258-1.2366 1.4256-0.86426 0.08316-1.3186 0.40511-1.942 1.3764-1.0485 1.6333-3.0991 3.5733-4.8437 4.5826-1.1964 0.6921-1.8488 0.79736-4.9893 0.80526-3.3625 0.0085-3.7288-0.05907-5.2847-0.97359-4.6145-2.713-6.3909-7.38-4.7865-12.579 0.4721-1.53 1.0515-2.38 2.8358-4.159 1.5604-1.5564 2.2432-2.4982 2.2453-3.0968 0.0047-1.3844 2.5869-2.1314 6.5619-1.8984l3.1181 0.18278 0.75288-1.3396c1.1895-2.1163 1.0497-2.4529-0.92106-2.2195-1.9883 0.23548-2.1522 0.057-2.1977-2.3915-0.04139-2.2278 0.27901-3.25 1.1004-3.5107 0.9732-0.30887 3.3142 0.77806 3.7538 1.7428 0.35036 0.76894 0.29668 0.88599-0.55542 1.2114-0.92066 0.35153-0.9269 0.37215-0.25913 0.86245 0.6095 0.44749 0.73386 0.4353 1.14-0.11173 0.27508-0.37044 0.37479-1.0235 0.25134-1.6463-0.46767-2.3595-0.4495-2.4077 0.9119-2.4202 0.73605-0.0068 1.6012-0.29126 2.0645-0.67904 0.43866-0.36712 0.60401-0.44709 0.36745-0.1777-0.62172 0.70799-0.53055 1.0403 0.28541 1.0403 0.6266 0 0.68597 0.13895 0.47783 1.1183-0.13073 0.61506-0.47756 1.3902-0.77075 1.7225-0.75912 0.86047-0.24125 1.1648 1.0529 0.61878 1.3309-0.56155 3.1329-0.66683 3.2656-0.19078 0.05277 0.18925-0.69954 0.42739-1.6717 0.5292-1.186 0.1242-1.9251 0.40058-2.2464 0.83993-0.73402 1.0038-0.59795 1.1391 0.98354 0.97778 0.80431-0.08204 2.3139 0.08136 3.3548 0.36309 1.6747 0.45331 1.9834 0.4534 2.683 0.000757 1.1337-0.73358 3.4949-0.29502 5.2126 0.96822 0.76712 0.56414 1.3948 1.1561 1.3948 1.3155 0 0.39036-1.0021 1.3712-1.4009 1.3712-0.17573 0-0.31951 0.16293-0.31951 0.36206 0 0.2206 0.70584 0.32143 1.8064 0.25806 1.7652-0.10163 1.8055-0.12759 1.7657-1.1362l-0.04076-1.0323 4.5138-0.0825c3.0982-0.05662 5.9167-0.3528 8.9871-0.94436 2.4602-0.47403 5.5121-0.86268 6.7819-0.86371l2.3087-0.0018 0.3972 1.4624c0.21846 0.80431 0.46048 1.6778 0.53782 1.9412 0.11034 0.37583 0.63838 0.43295 2.4553 0.26566 3.8214-0.35185 3.7847-0.38592 3.7647 3.5001-0.0092 1.8289 0.04748 3.7124 0.12665 4.1855 0.12742 0.76215 0.03177 0.85226-0.83946 0.79041-0.90376-0.0642-0.96545 0.0054-0.76337 0.86024 0.59479 2.5157 0.5993 3.8508 0.01904 5.6228-1.4803 4.5206-2.8401 6.1696-6.5305 7.9191-1.6848 0.79878-2.5076 0.97446-4.4731 0.95487-1.3247-0.01318-2.959-0.22674-3.6317-0.47458zm5.0707-4.5762c-0.61947-1.9665-0.62029-1.9635 0.67335-2.6008 1.3531-0.66667 1.8282-0.43188 1.8394 0.90905 0.008 0.97012 0.78098 0.49633 1.6341-1.0016 0.85874-1.508 1.0324-4.0318 0.37647-5.4714-0.48693-1.0687-1.022-0.97004-1.3479 0.24848-0.13224 0.4945-0.66229 1.4521-1.1779 2.1282-0.92604 1.214-0.96846 1.2291-3.4826 1.2291-2.4797 0-5.2871 0.59261-5.2871 1.116 0 0.14317 1.471 0.26031 3.2688 0.26031 1.7979 0 3.2688 0.13874 3.2688 0.30832s-2.2679 0.42169-5.0397 0.56025c-5.1308 0.25649-5.599 0.50695-2.1397 1.1446 1.0664 0.19658 2.46 0.67507 3.0968 1.0633 1.5423 0.94026 4.6036 1.0157 4.3172 0.1063zm-41.599-0.9c1.367-0.86292 2.4825-2.3965 2.4825-3.4127 0-0.26152-0.53155-0.63863-1.1813-0.83804-1.0521-0.32289-1.2656-0.27277-1.9525 0.4584-0.97612 1.039-1.3394 1.0383-1.3394-0.0025 0-1.3876-1.5215-1.6299-3.5175-0.56006l-1.2707 0.68106-0.53066-0.75762c-0.66837-0.95424-0.67064-1.7443-0.0092-3.0243 0.58829-1.1377 2.1096-2.0533 3.4114-2.0533 0.63599 0 0.92754-0.22623 1.0813-0.83906 0.2859-1.1391-0.78561-2.5768-1.9311-2.591-1.478-0.01829-3.8638 1.4356-4.9715 3.0295-0.92414 1.3298-1.0369 1.7675-1.0369 4.0258 0 3.0397 0.38794 3.645 1.7601 2.7459 0.8991-0.58909 0.95305-0.58844 1.3957 0.01683 0.46995 0.64269 0.29625 1.8648-0.32147 2.2617-0.50633 0.32531 0.03025 0.98765 1.2501 1.543 1.6625 0.75687 4.9279 0.42269 6.6805-0.68367zm16.317-3.3819c-0.2863-0.2863-0.29449-0.52489-0.02899-0.84483 0.30187-0.36373 0.5913-0.3534 1.5713 0.05608 1.3159 0.54983 2.5154 0.21348 2.5154-0.70537 0-0.27721 0.16714-0.50402 0.37143-0.50402 0.23362 0 0.2919 0.4149 0.15708 1.1183-0.17149 0.8946-0.13912 0.99784 0.1618 0.51613 0.52843-0.84594 2.0782-0.78815 2.3068 0.08602 0.21043 0.8047 1.21 0.90724 1.8089 0.18554 0.22944-0.27645 0.49574-1.0893 0.59182-1.8064 0.14318-1.0688 0.01343-1.4777-0.71975-2.2684-0.88109-0.95029-0.94958-0.9638-4.5927-0.90479-3.82 0.06187-5.4083 0.5318-5.0401 1.4912 0.10151 0.26435 0.01904 0.58286-0.1831 0.7078-0.20215 0.12494-0.36755 0.84238-0.36755 1.5943 0 1.1016 0.15037 1.424 0.7742 1.66 0.92043 0.34819 1.2285 0.17367 0.67342-0.38144zm-8.224-3.096c-0.57665-4.0847-2.0372-7.1283-4.1456-8.6411-1.8724-1.343-2.2835-0.97801-0.57814 0.51339 3.069 2.6839 4.0362 4.571 4.1995 8.1932 0.129 2.8608 0.27776 3.5689 0.6955 3.3108 0.15463-0.09557 0.07757-1.6151-0.17119-3.3766zm19.909 0.75478c0.19446 0.58341 2.0069-0.54055 2.0069-1.2445 0-0.66175-1.6908-0.61023-1.9477 0.05934-0.1131 0.29475-0.41793 0.45445-0.67737 0.35488-0.34067-0.13073-0.46834 0.12666-0.45954 0.92643l0.01217 1.1075 0.4579-0.82627c0.29631-0.53469 0.51072-0.66786 0.60755-0.37734zm-24.831-0.13c0-1.7449-0.47179-2.9931-1.6528-4.3728l-1.2288-1.4355-0.62372 0.77026c-0.34305 0.42364-0.62372 1.3167-0.62372 1.9845 0 0.75758-0.22646 1.3816-0.60215 1.6592-0.41247 0.30474-0.49115 0.55776-0.24975 0.8032 0.51565 0.52437 2.9401 1.3561 4.0347 1.3841 0.77345 0.01982 0.94626-0.12498 0.94626-0.79293zm40.038-0.3871c0.24572-0.64034-1.0862-0.8036-2.5234-0.30923-0.44592 0.15337-0.44592 0.21251 0 0.49451 0.78795 0.4983 2.3038 0.387 2.5234-0.18529zm-47.319-0.705c0.76898-1.6877 0.21902-2.3136-1.465-1.6675-0.5407 0.20748-0.76599 1.8634-0.31489 2.3144 0.50624 0.50625 1.4029 0.18029 1.7799-0.64702zm38.578-0.0035c1.4112-0.29441 2.9209-0.44617 3.3548-0.33725 0.43602 0.10943 0.78903 0.04115 0.78903-0.15261 0-0.19285 0.4258-0.35276 0.94626-0.35534 1.291-0.0064 2.4946-0.35555 2.4946-0.7236 0-0.16717-0.54193-0.30396-1.2043-0.30396-0.66236 0-1.2043-0.15484-1.2043-0.34409 0-0.51072 2.1072-0.39366 3.0968 0.17205 1.1109 0.63503 2.0645 0.648 2.0645 0.02807 0-0.58257-1.8554-1.7868-3.1828-2.0658-0.52043-0.10937-1.3333-0.27923-1.8064-0.37746-0.66232-0.13751-0.86126-0.39478-0.8649-1.1183-0.008-1.6499-0.38024-2.488-1.1042-2.488-0.64914 0-0.67372 0.16472-0.4749 3.1828 0.14435 2.1913 0.10564 2.9416-0.12442 2.4086-0.409-0.949-1.044-1.014-1.044-0.106 0 0.5341-0.32586 0.71302-1.6344 0.89752-1.868 0.26336-3.1828 0.97067-3.1828 1.7122 0 0.62549-0.05103 0.62594 3.0819-0.02765zm-20.739-1.244c0.82974-0.7795 1.0441-1.8108 0.45229-2.1766-0.18924-0.11697-0.34409-0.5132-0.34409-0.88054 0-0.45997-0.241-0.67128-0.7742-0.67881-0.73772-0.01043-0.7442-0.03367-0.13758-0.49323 0.61349-0.46479 0.52652-1.2163-0.14079-1.2163-0.43057 0-1.7001 1.2847-1.7001 1.7205 0 0.18924 0.21078 0.34409 0.46841 0.34409 0.31024 0 0.41455 0.28177 0.3089 0.83448-0.16185 0.84665 0.47834 3.2946 0.86158 3.2946 0.11506 0 0.56757-0.33667 1.0056-0.74815zm10.858-2.0045c-0.04897-0.47312-0.26135-1.286-0.47186-1.8064-0.35658-0.88156-0.52103-0.94626-2.4055-0.94626-1.1125 0-2.0228-0.14348-2.0228-0.31886 0-0.54744-1.1615-0.61291-2.1618-0.12186-0.52662 0.25851-0.86782 0.6151-0.75824 0.79238 0.11818 0.19123 0.48183 0.15028 0.89389-0.10068 0.59399-0.36176 0.78646-0.31107 1.3285 0.34988 0.35914 0.43794 0.55632 1.0695 0.45493 1.4572-0.38925 1.4885 0.06517 1.764 2.7324 1.656 2.4374-0.09867 2.4974-0.1226 2.4105-0.96143zm6.0246-0.61027c0.71678-0.46398 0.77419-0.44718 0.77419 0.22662 0 1.2128 0.63345 0.82666 1.9051-1.1612 0.73453-1.1482 1.9116-2.3625 3.0019-3.0968 1.6817-1.1325 1.9655-1.2076 4.5509-1.2045 3.6671 0.0045 5.8182 0.97967 8.491 3.8497 1.3357 1.434 2.1207 2.0267 2.4946 1.8833 0.30006-0.11514 0.54556-0.36146 0.54556-0.54739 0-0.64599-4.827-5.2281-6.0424-5.736-0.95384-0.39854-2.1079-0.46644-5.2461-0.30868-5.3315 0.268-5.9789 0.38617-7.4 1.3505-1.1291 0.76623-1.297 0.78947-2.5292 0.35009-1.8077-0.64458-4.5995-0.62705-5.5444 0.03481-1.042 0.72985-1.0357 2.1092 0.0092 2.0723 0.59718-0.02107 0.7991 0.18903 0.88306 0.91893 0.12479 1.0846-0.48171 1.2617-1.1783 0.34409-0.42539-0.56039-0.45786-0.551-0.46805 0.13524-0.02314 1.5627 3.799 2.1534 5.7525 0.88891zm-19.327-2.658c0.6197-0.47266 1.1762-1.2043 1.2368-1.6258 0.06059-0.42152 0.49716-0.96356 0.97027-1.2046 0.47312-0.24097 0.82153-0.59324 0.7742-0.78281-0.04724-0.18958 0.49462-0.3496 1.2043-0.35562 1.2098-0.01021 1.2474-0.04149 0.60216-0.50042-0.3785-0.26921-1.025-0.82935-1.4366-1.2448-0.72234-0.72889-0.79033-0.73544-1.9445-0.18775-1.349 0.64016-3.7275 0.74649-4.7275 0.21134-0.96135-0.51451-0.85802 0.22205 0.10862 0.7742 0.4258 0.24322 1.6258 0.61889 2.6667 0.8348 1.7759 0.36842 1.8116 0.39492 0.57953 0.43011-1.6527 0.04721-2.6441 0.5661-2.6441 1.384 0 0.76677 0.9529 3.1267 1.2625 3.1267 0.12153 0 0.72799-0.38673 1.3477-0.85937zm3.0673-1.4011c0-0.36013-0.27097-0.70697-0.60216-0.77075-0.60557-0.11662-0.87177 0.92651-0.36559 1.4327 0.40651 0.40652 0.96774 0.02262 0.96774-0.66196zm36.645-0.1707c0-1.6862-0.55266-2.386-1.8843-2.386-1.8008 0-1.846 0.64199-0.14854 2.1093 0.83417 0.72107 1.6328 1.3156 1.7747 1.3213 0.14194 0.0056 0.25806-0.46442 0.25806-1.0446zm-29.59-1.074c0-0.45227-0.78204-0.16906-0.95345 0.3453-0.08384 0.25144 0.07354 0.32834 0.40861 0.19974 0.29968-0.115 0.54488-0.36026 0.54488-0.54504zm-21.791-1.138c-0.17806-0.53876-5.458-0.62307-6.1752-0.09859-0.5083 0.37168-0.05253 0.44269 2.8418 0.44269 2.1445 0 3.4042-0.13002 3.3334-0.34409zm40.975-0.20908c4.0871-0.46843 4.7672-0.80573 4.4189-2.1921l-0.24083-0.95961-2.6486 0.23065c-1.4567 0.12686-4.3518 0.55137-6.4335 0.94334-2.9725 0.55974-4.5235 0.66825-7.2258 0.50556-3.8624-0.23254-4.8762 0.04752-3.8601 1.0663 1.1129 1.1158 8.2216 1.296 15.99 0.40552zm-37.432-3.212c-0.0055-0.20039-0.23828-0.06378-0.51613 0.30357s-0.50026 0.83188-0.49424 1.0323c0.0055 0.20039 0.23828 0.06378 0.51613-0.30357s0.50026-0.83188 0.49424-1.0323zm-2.2538-1.4334c0.70662-0.27115 0.68916-0.78116-0.05482-1.6033-0.57231-0.63238-0.56459-0.69007 0.17204-1.2866 0.99587-0.80636 0.97272-1.1721-0.10517-1.6633-1.7019-0.77544-1.8762-0.59405-1.8762 1.9519 0 2.8376 0.26923 3.2133 1.8643 2.6012zm10.606-5.2568-2.4977-0.93575 0.68392-0.7341c0.68238-0.73245 0.68884-0.73268 2.8789-0.10639 2.8896 0.82635 3.7714 1.3176 3.5237 1.9631-0.1093 0.28483-0.19873 0.58264-0.19873 0.66178 0 0.40226-2.1723-0.01763-4.3901-0.84854z"/>
 </g>
</svg>
