<?xml version="1.0" encoding="UTF-8" standalone="no"?>
<!-- Created with Inkscape (http://www.inkscape.org/) -->
<svg id="svg2" xmlns:rdf="http://www.w3.org/1999/02/22-rdf-syntax-ns#" xmlns="http://www.w3.org/2000/svg" height="45" width="67.5" version="1.1" xmlns:cc="http://creativecommons.org/ns#" xmlns:dc="http://purl.org/dc/elements/1.1/">
 <metadata id="metadata7">
  <rdf:RDF>
   <cc:Work rdf:about="">
    <dc:format>image/svg+xml</dc:format>
    <dc:type rdf:resource="http://purl.org/dc/dcmitype/StillImage"/>
    <dc:title/>
   </cc:Work>
  </rdf:RDF>
 </metadata>
 <g id="g21200">
  <rect id="rect2990" opacity="0" height="45" width="67.5" y="0" x="3.5527e-15"/>
  <path id="path8512" d="m33.792 44.834c-0.23641-0.38253-0.52479-4.2042-0.65233-8.6448-0.18005-6.2691-0.41139-9.2688-0.75836-9.8337-0.16055-0.26136-0.78788-0.85122-1.3941-1.3108-1.1954-0.90623-1.2712-1.0502-0.77154-1.4648 0.26584-0.22063 0.56656-0.22567 1.5347-0.0257 1.7407 0.35954 3.3405 0.30636 4.6493-0.15457 0.81204-0.28597 1.2219-0.33955 1.409-0.18423 0.41996 0.34854 0.30798 0.78635-0.26831 1.0489-0.51873 0.23635-2.1928 2.4981-2.2012 2.974-0.002 0.13118-0.0921 0.84633-0.19946 1.5892-0.10737 0.74291-0.25851 4.1758-0.33586 7.6287-0.0774 3.4529-0.20016 6.7579-0.27291 7.3445-0.12393 0.99931-0.46513 1.4764-0.73899 1.0333zm-2.3896-22.4c-1.6533-0.35906-3.8684-1.5442-5.2434-2.8052-1.1024-1.011-2.5721-3.0141-2.5721-3.5055 0-0.15669-0.1877-0.645-0.41712-1.0852-0.31645-0.60712-0.42415-1.2547-0.44621-2.6832-0.0403-2.6107-0.0161-2.8276 0.31602-2.8276 0.16085 0 0.3498-0.14943 0.41988-0.33208 0.20774-0.54136 0.14691-0.77001-0.17226-0.64753-0.93941 0.36049 0.91842-3.61 2.4527-5.2419 1.0264-1.0916 2.6113-2.1032 4.2501-2.7124 2.6946-1.0019 6.3506-0.70908 8.5704 0.68636 0.64472 0.40529 0.75479 0.56233 0.55925 0.79794-0.1339 0.16133-0.1825 0.39194-0.10801 0.51247 0.20493 0.33159 0.74046 0.26232 0.74046-0.09577 0-0.43658 0.26137-0.39427 0.96889 0.15685 2.4334 1.8955 4.0696 5.3843 4.0696 8.6774 0 4.2018-2.4775 8.4574-5.903 10.14-2.4163 1.1866-4.9583 1.5146-7.4853 0.96573zm2.8914-0.62534c0-0.17495-0.18661-0.31491-0.41988-0.31491-0.41824 0-0.54607 0.2237-0.27991 0.48985 0.25569 0.25569 0.69979 0.14466 0.69979-0.17495zm-3.8184-0.88982c-0.0878-0.4561-0.80025-0.6277-0.80025-0.19275 0 0.28845 0.27334 0.50047 0.69769 0.54116 0.0951 0.0091 0.14122-0.14767 0.10256-0.34841zm7.9122-0.24974c2.3148-1.0202 4.1078-3.0086 5.0564-5.6078 0.96411-2.6415 0.76836-5.9031-0.50396-8.397-0.57444-1.126-2.1232-2.5111-3.1527-2.8196-0.75547-0.22634-0.94223-0.20339-1.7525 0.21535-0.49879 0.25778-1.4035 0.84957-2.0105 1.3151-0.98944 0.75885-1.1893 0.83267-1.9327 0.71379-0.63472-0.1015-0.89284-0.05104-1.1008 0.21518-0.1494 0.19127-0.61823 0.70023-1.0418 1.131-0.723 0.73525-0.86267 0.78847-2.2797 0.86854-1.1789 0.06661-1.5737 0.17306-1.8025 0.486-0.32506 0.44455-0.21089 1.054 0.31112 1.6605 0.27938 0.32465 0.28932 0.4166 0.0539 0.4986-0.60523 0.2108-1.1008 0.91769-1.0362 1.4779 0.0539 0.46699 0.18317 0.57599 0.7475 0.6304 0.78338 0.07553 0.81782 0.18889 0.32059 1.0553-0.33944 0.59144-0.34006 0.67561-0.0101 1.3676 0.28213 0.59164 0.48841 0.75047 1.044 0.80386 0.63868 0.06138 0.69239 0.12355 0.69239 0.80132 0 0.92678 0.21408 1.2596 0.81016 1.2596 0.65516 0 0.97431 0.38707 0.97431 1.1816 0 0.6706 0.44416 1.3376 0.89071 1.3376 0.12699 0 0.40366-0.15635 0.61481-0.34744 0.35749-0.32352 0.41128-0.32269 0.78125 0.01211 0.89956 0.8141 2.6675 0.87151 4.3263 0.14048zm-2.0994-4.6337c-0.18035-0.29182 0.0216-0.55906 0.52137-0.68973 0.52637-0.13765 0.75353 0.18692 0.41572 0.59396-0.29322 0.35331-0.74913 0.3999-0.93709 0.09577zm-3.7439-0.13996c-0.26722-0.26722-0.13764-0.48986 0.28512-0.48986 0.26023 0 0.50245-0.20352 0.62461-0.52484 0.10975-0.28866 0.29932-0.52484 0.42127-0.52484 0.3526 0 0.45386 0.50943 0.22231 1.1185-0.16253 0.42748-0.35615 0.56105-0.81333 0.56105-0.33001 0-0.663-0.06298-0.73998-0.13996zm-2.8692-0.69979c0-0.51614 0.0803-0.64513 0.36739-0.58985 0.23176 0.04463 0.36739 0.26238 0.36739 0.58985 0 0.32746-0.13563 0.54521-0.36739 0.58985-0.28705 0.05528-0.36739-0.07371-0.36739-0.58985zm-1.0497 3.3664c0-0.55361-0.79531-0.99728-0.9703-0.54128-0.19064 0.49679 0.0699 0.95377 0.54384 0.95377 0.28395 0 0.42646-0.13783 0.42646-0.41249zm-1.7949-1.9682c0.30592-0.22369 0.35528-0.43814 0.24103-1.0471-0.1598-0.85182-0.73881-1.291-1.4178-1.0755-0.37337 0.1185-0.42043 0.25945-0.32476 0.97268 0.0615 0.45876 0.2852 0.96546 0.49705 1.126 0.48329 0.36624 0.53474 0.36747 1.0045 0.02395zm-0.82929-4.2295c0-0.90572-0.46315-1.2244-1.0598-0.72929-0.6643 0.55132-0.19608 1.7462 0.63745 1.6267 0.34239-0.04907 0.42233-0.21893 0.42233-0.8974zm0.35086-2.5547c0.55585-0.50304 0.50459-1.5094-0.0884-1.7362-0.35701-0.13654-0.58771-0.07468-0.94472 0.2533-0.44734 0.41097-0.63869 1.3841-0.3324 1.6904 0.25481 0.25482 0.97576 0.14528 1.3656-0.20749zm3.3231-2.8501c0.51274-0.55037 0.47677-1.281-0.0682-1.3849-0.55586-0.10598-1.1916 0.56407-1.1916 1.2559 0 0.75029 0.62156 0.81392 1.2597 0.12896zm-2.2129-0.73668c0.59426-0.64089 0.65195-0.90173 0.28141-1.2723-0.40389-0.40389-0.88825-0.29462-1.4933 0.33689-0.54925 0.57329-0.70812 1.0866-0.42416 1.3706 0.31973 0.31973 1.1378 0.1021 1.636-0.43522zm6.2155-1.5316c0.51155-0.27378 0.53047-0.83236 0.0282-0.83236-0.44207 0-0.88174 0.38732-0.88174 0.77677 0 0.32909 0.30536 0.34898 0.85355 0.0556zm-1.6804-0.4254c0.24114-0.24115 0.40383-0.63623 0.36739-0.89224-0.10106-0.71001-1.3522-0.64348-1.9084 0.10149-0.23034 0.30852-0.36159 0.71002-0.29167 0.89224 0.18457 0.48097 1.3127 0.41849 1.8327-0.10149zm3.6935 0.10882c0.0684-0.17818 0.0609-0.3874-0.0166-0.46494-0.17194-0.17194-0.79931 0.20009-0.9131 0.54147-0.12439 0.37319 0.78594 0.29825 0.92976-0.07654zm-6.642-0.9396c0.337-0.3373 0.379-0.5101 0.203-0.8397-0.268-0.5006-0.396-0.5119-1.001-0.0883-0.70596 0.49447-0.58366 1.252 0.21571 1.3361 0.0866 0.0091 0.34856-0.17454 0.58214-0.40811zm8.2788-0.40056c0.0664-0.10749 0.0202-0.25757-0.10263-0.33351-0.3107-0.19202-0.88847 0.05961-0.72907 0.31752 0.16409 0.2655 0.67147 0.27525 0.8317 0.01599zm-2.815-0.61032c0.55177-0.44681 0.39945-0.87375-0.31174-0.87375-0.67911 0-1.0956 0.52598-0.7481 0.94472 0.33738 0.40651 0.48214 0.39682 1.0598-0.07097zm2.677-0.49586c0.35545-0.35545 0.31515-0.53922-0.17588-0.80201-0.87714-0.46944-1.7341 0.3322-0.8843 0.82718 0.48867 0.28462 0.75675 0.27826 1.0602-0.02517zm-4.8097-0.455c0.181-0.2182 0.163-0.3499-0.078-0.5496-0.256-0.2128-0.417-0.1964-0.849 0.0863-0.29292 0.19193-0.47676 0.43928-0.40853 0.54968 0.1849 0.29918 1.0629 0.24243 1.3358-0.08634z"/>
 </g>
</svg>
