<?xml version="1.0" encoding="UTF-8" standalone="no"?>
<!-- Created with Inkscape (http://www.inkscape.org/) -->
<svg id="svg2" xmlns:rdf="http://www.w3.org/1999/02/22-rdf-syntax-ns#" xmlns="http://www.w3.org/2000/svg" height="45" width="67.5" version="1.1" xmlns:cc="http://creativecommons.org/ns#" xmlns:dc="http://purl.org/dc/elements/1.1/">
 <metadata id="metadata7">
  <rdf:RDF>
   <cc:Work rdf:about="">
    <dc:format>image/svg+xml</dc:format>
    <dc:type rdf:resource="http://purl.org/dc/dcmitype/StillImage"/>
    <dc:title/>
   </cc:Work>
  </rdf:RDF>
 </metadata>
 <g id="g21261">
  <rect id="rect2990" opacity="0" height="45" width="67.5" y="0" x="3.5527e-15"/>
  <path id="path8549" d="m28.902 44.41c-0.45873-0.47881-0.62022-0.92806-0.85811-2.3871-0.62894-3.8576-0.69227-3.4484 0.76841-4.9643 0.7094-0.7362 1.5184-1.64 1.7977-2.0084 0.27934-0.36842 0.74484-0.95456 1.0344-1.3025 0.2896-0.34797 0.62919-0.93413 0.75463-1.3026 0.12545-0.36844 0.64273-1.2151 1.1495-1.8815 0.50679-0.66638 0.92143-1.2608 0.92143-1.3208 0-0.06008 0.37725-0.64417 0.83832-1.298l0.839-1.189-0.171-2.001c-0.094-1.1006-0.15856-2.1324-0.14352-2.293 0.015-0.16052-0.0547-1.0854-0.1551-2.0553-0.13517-1.3066-0.11342-2.0295 0.084-2.7904l0.2664-1.027-0.99554-1.0825c-2.4447-2.6581-3.1518-4.2407-3.1882-7.1357-0.0122-0.96759-0.10369-1.2663-0.51349-1.6761-0.27427-0.27426-0.58754-0.49866-0.69614-0.49866-0.10861 0-0.91271 0.35697-1.7869 0.79327-0.87417 0.4363-2.2893 1.112-3.1448 1.5016-1.0318 0.46993-1.6767 0.90384-1.9158 1.2891-0.73446 1.1833-1.5063 1.3344-1.5063 0.29491 0-0.60849 0.32753-1.0347 0.79514-1.0347 0.16916 0 1.894-0.74867 3.833-1.6637 2.7094-1.2786 3.5009-1.7371 3.4191-1.9808-0.62627-1.8668-0.62856-1.9702-0.0587-2.6474 0.299-0.355 0.544-0.7349 0.544-0.8435 0-0.39416 1.5967-0.93094 2.3881-0.8028 0.65991 0.10685 0.82363 0.2509 1.2334 1.0852 0.57068 1.1619 0.78834 1.188 2.571 0.30896 1.0536-0.51953 1.3244-0.74803 1.3244-1.1174 0-0.38044 0.11007-0.46429 0.60948-0.46429 0.33521 0 0.77804-0.16856 0.98406-0.37459 0.45605-0.45604 1.7779-0.69954 2.295-0.42276 0.20777 0.11119 0.37776 0.40922 0.37776 0.66229s0.0755 0.54697 0.16783 0.65312c0.24152 0.27774 0.59853 1.5387 1.0572 3.734 0.51022 2.442 0.50399 2.7853-0.0569 3.1306-2.2827 1.4054-3.1998 2.0587-3.1998 2.2793 0 0.14299 0.13098 0.5188 0.29107 0.83514 1.0168 2.0093 1.9666 4.2405 2.1462 5.042 0.11508 0.51349 0.45832 1.3184 0.76276 1.7887 0.50828 0.78515 0.55207 1.0128 0.53571 2.7851-0.0694 7.5199-0.0652 9.2715 0.0228 9.5489 0.0549 0.17279 0.0205 2.0947-0.0763 4.2709-0.2026 4.5553 0.0452 7.6127 0.64412 7.9479 0.98194 0.54952-0.39756 1.7386-2.0917 1.8029-0.61455 0.02334-1.314-0.02202-1.5543-0.10082-0.47322-0.15516-0.7668-1.0757-0.46103-1.4457 0.10087-0.12202 0.12973-0.27552 0.0641-0.34111-0.19243-0.19244-0.92929-2.9969-1.1065-4.2113-0.0916-0.62753-0.0677-2.436 0.0546-4.1252 0.23238-3.2117 0.11236-3.8671-0.54067-2.9523-0.62846 0.88042-2.447 3.6532-2.7542 4.1994-0.1676 0.29802-0.7847 1.3686-1.3713 2.3791-0.58663 1.0105-1.0666 1.933-1.0666 2.0499 0 0.35859-1.2326 2.7023-1.5074 2.8661-0.14211 0.08474-0.31874 0.46533-0.39252 0.84576-0.20186 1.0409-0.46371 1.2383-1.6423 1.2383-0.89864 0-1.138-0.08717-1.6196-0.58981zm2.193-1.0736c0.13842-0.6921-0.0849-1.0731-0.63131-1.0769-0.30247-0.0021-0.59794-0.74594-1.3931-3.5069-0.0402-0.13967-0.15875-0.25395-0.26341-0.25395-0.58932 0 0.48278 4.8805 1.1588 5.275 0.63998 0.37346 0.9944 0.23622 1.1291-0.43722zm12.547 0.174c0.57302-0.02855 0.6906-0.1183 0.74261-0.56682 0.0821-0.70752-0.59375-0.84426-1.7486-0.35381-1.0914 0.46351-1.1993 1.3372-0.13205 1.0693 0.25145-0.06311 0.76355-0.13001 1.138-0.14867zm-1.0801-2.3449c0.30931-0.19608 0.13481-1.9707-0.21504-2.1869-0.33801-0.2089-1.1578 0.98976-1.1657 1.7045-0.007 0.58736 0.0544 0.65992 0.55138 0.65716 0.30728-0.0016 0.68049-0.08032 0.82936-0.17469zm-9.8878-0.58404c0.59277-1.4566 0.90345-2.0958 1.7326-3.5645 0.49174-0.87105 1.0728-1.7624 1.2911-1.9808 0.21839-0.21839 0.40791-0.64848 0.42114-0.95576 0.0304-0.70673 0.0316-0.69609-0.12664-1.1026-0.10469-0.26883-0.0433-0.31734 0.29077-0.22997 0.41858 0.10946 1.0308-0.22858 1.0308-0.56918 0-0.09674-0.2057-0.15411-0.4571-0.1275-0.29446 0.03118-0.43651-0.04957-0.39919-0.22694 0.0318-0.15143-0.0493-0.40456-0.18042-0.5625-0.18572-0.22379-0.16495-0.36824 0.0942-0.65455 0.30995-0.3425 0.30023-0.39767-0.14353-0.81455l-0.476-0.44718-0.51104 0.76758c-1.3939 2.0936-1.5451 2.6603-0.9222 3.4569 0.4848 0.62001-0.35875 1.1709-0.86285 0.56351-0.38241-0.46077-0.63876-0.15185-0.49774 0.59982 0.14171 0.75538-0.16295 1.099-0.63039 0.7111-0.38016-0.31551-0.79247 0.004-1.3027 1.0096-0.32823 0.64684-0.33559 0.77266-0.0686 1.1718 0.39847 0.5956 0.18703 0.91177-0.44823 0.67025-0.72017-0.27381-0.77027 0.02875-0.18939 1.1437 0.89402 1.7161 1.9195 2.2131 2.3555 1.1418zm10.863-2.5396c0.0198-2.1104-0.0181-2.6249-0.13999-1.8987-0.0919 0.54788-0.26925 1.0592-0.39396 1.1363-0.14755 0.09119-0.18383 0.52393-0.10386 1.2386 0.37895 3.3865 0.60307 3.2192 0.63781-0.47617zm-1.7144 0.72397c0.56911-0.54524 0.75055-1.0794 0.36665-1.0794-0.36206 0-0.21502-0.55204 0.22482-0.84408 0.38021-0.25245 0.44864-0.57833 0.61307-2.9198 0.10179-1.4496 0.20633-4.8671 0.23229-7.5945 0.0496-5.2124-0.0394-5.7263-0.79242-4.577-0.26783 0.40877-0.39645 1.2034-0.5123 3.1652-0.0851 1.4407-0.25169 2.9606-0.37023 3.3776-0.11854 0.41701-0.31049 1.6724-0.42655 2.7898-0.11605 1.1174-0.25691 2.3516-0.313 2.7427-0.20418 1.4237-0.30971 4.151-0.18611 4.8098 0.15351 0.8182 0.41466 0.84728 1.1638 0.12957zm1.5919-5.5997c-0.15004-0.37328-0.18374-0.28945-0.18374 0.45711s0.0337 0.83039 0.18374 0.45711c0.10954-0.27252 0.10954-0.6417 0-0.91422zm-4.7686-2.2791c0.33131-0.25058 0.34149-0.29931 0.0637-0.30474-0.18185-0.0035-0.44445 0.13067-0.58356 0.29828-0.32415 0.39058 0.007 0.3947 0.51986 0.0064zm-1.1898-2.0533c0.27288-0.26937 0.14024-0.49266-0.29265-0.49266-0.38497 0-0.92141 0.55836-0.77071 0.80221 0.13554 0.21931 0.69159 0.05744 1.0634-0.30955zm2.9399-0.2895c0.23901-0.49996 0.40285-1.7136 0.55189-4.088 0.25227-4.019 0.64438-5.3848 1.5275-5.3206 0.72666 0.05279 0.67897-0.45325-0.0673-0.71338-0.32655-0.11384-0.70067-0.40679-0.83137-0.651-0.18968-0.35443-0.35807-0.41994-0.83449-0.32465-0.50251 0.1005-0.63477 0.03618-0.83665-0.40693-0.20208-0.4435-0.1842-0.56696 0.11366-0.78475 0.31905-0.2333 0.32159-0.27068 0.0261-0.38406-0.75844-0.29104-1.2356-0.12775-1.5272 0.5226-0.37271 0.83133-0.79851 0.9822-0.79851 0.28294 0-0.28866-0.0802-0.52483-0.17829-0.52483-0.39634 0-0.63153 0.60966-0.75733 1.9632-0.10748 1.1564-0.0673 1.5244 0.21287 1.9521 0.27543 0.42037 0.29846 0.61455 0.11379 0.9596-0.1872 0.34978-0.15107 0.58693 0.18872 1.2388 0.23113 0.44343 0.42024 0.92234 0.42024 1.0642 0 0.35364 0.47606 1.3512 0.64576 1.3532 0.24948 0.0028 0.77636 0.63423 0.77636 0.93031 0 0.38265-0.69442 0.37273-1.0158-0.01451-0.43792-0.52766-0.55298-0.33749-0.44921 0.74245 0.11488 1.1957 0.52599 1.797 1.2285 1.797 0.42592 0 0.47461 0.07633 0.39493 0.61918-0.0784 0.53437-0.0329 0.6109 0.33247 0.55869 0.25069-0.03582 0.562-0.35051 0.76327-0.77155zm-2.2351-1.8482c-0.34451-0.55165-0.0915-0.81356 0.28655-0.2966 0.15847 0.21672 0.28813 0.46799 0.28813 0.55837 0 0.30633-0.30732 0.16635-0.57468-0.26177zm-0.64428-12.803c0-0.27403-0.32798-0.2139-0.59621 0.10929-0.19664 0.23693-0.16465 0.26914 0.17829 0.17946 0.22986-0.06011 0.41792-0.19005 0.41792-0.28876zm-1.219-1.6338c0-0.36101-0.0369-0.36545-0.60346-0.07248-0.58508 0.30256-1.0218 0.86383-1.0218 1.3132 0 0.12067 0.36569-0.0226 0.81264-0.31838 0.47244-0.31265 0.81264-0.69876 0.81264-0.92232zm2.9844 0.83479c1.4054 0.2598 1.4851 0.26127 1.4851 0.0274 0-0.1022-0.67193-0.24879-1.4932-0.32575-1.176-0.1102-1.6264-0.07104-2.1203 0.18438-1.0014 0.51785-0.96064 0.75693 0.0526 0.3087 0.80462-0.35592 1.0694-0.38076 2.0757-0.19474zm-0.17095-1.036c1.1421 0.03717 1.4724-0.01279 1.4058-0.2126-0.1077-0.32306-1.428-0.73643-2.4191-0.75736-0.43496-0.0092-0.9292 0.13812-1.2005 0.3578-0.55778 0.45166-0.36814 0.93296 0.28086 0.71282 0.24201-0.08209 1.1118-0.12739 1.9329-0.10066zm-5.3529-1.1013c0-0.21263-0.15999-0.41742-0.35553-0.45508-0.35754-0.06886-0.51471 0.54706-0.21585 0.84591 0.24002 0.24002 0.57138 0.01336 0.57138-0.39084zm1.834-0.72229c0.14785-0.67312-0.0918-0.9814-0.76742-0.98731-0.56428-0.0049-0.41424-0.36877 0.30474-0.73894 1.0812-0.55668 2.3871-1.7235 2.3871-2.1329 0-0.21002-0.0782-0.38185-0.17377-0.38185-0.0956 0-0.25898-0.29712-0.36313-0.66027-0.25109-0.87551-0.65005-0.8338-1.1862 0.124-0.4922 0.87918-1.1211 1.3633-1.1211 0.8631 0-0.16656 0.0914-0.35935 0.20316-0.4284 0.32164-0.19879 0.23686-0.91422-0.10833-0.91422-0.17133 0-0.77339 0.23406-1.3379 0.52013l-1.0264 0.52013 0.14076 1.0235c0.0774 0.56292 0.15606 1.3488 0.17477 1.7464 0.0219 0.46558 0.16919 0.80202 0.41376 0.94508 0.20886 0.12218 0.618 0.42495 0.9092 0.67282 0.78751 0.67038 1.3803 0.60488 1.5508-0.17133zm3.1434-0.76238c0-0.38549-0.5871-0.6479-1.1487-0.51343-0.76893 0.1841-0.91195 0.27714-0.77261 0.5026 0.14839 0.24011 1.9213 0.25011 1.9213 0.01084zm1.6606-1.8864c0.59514-0.12994 1.1964-0.37597 1.336-0.54673 0.29755-0.36377 0.34255-3.0287 0.0587-3.4775-0.22379-0.35386-0.23033-0.347-0.70087 0.73587-0.26192 0.60276-0.6645 1.0322-1.4112 1.5052-2.6983 1.7094-2.3952 2.4627 0.71735 1.7831zm-0.34789-3.1537c0.83535-0.94959 0.70446-1.0873-0.44698-0.47012-0.41695 0.22348-0.91944 0.40632-1.1166 0.40632-0.23044 0-0.35854 0.15467-0.35854 0.4329 0 0.38112 0.0849 0.41912 0.70962 0.31775 0.42124-0.06836 0.91399-0.34748 1.2125-0.68685zm-5.471-0.28741c0.181-0.5707-0.031-0.7257-1.149-0.843-0.928-0.0973-0.939-0.0918-0.8 0.4263 0.21836 0.81649 1.7204 1.1362 1.9493 0.41498zm3.1858-0.19618c0.59076-0.23088 1.208-0.55086 1.3716-0.71106 0.26099-0.25554 0.25468-0.33408-0.0515-0.64023-0.32983-0.32983-0.43241-0.30766-1.872 0.40466-2.3162 1.1461-1.8787 1.8965 0.55185 0.94663z"/>
 </g>
</svg>
