<?xml version="1.0" encoding="UTF-8" standalone="no"?>
<!-- Created with Inkscape (http://www.inkscape.org/) -->
<svg id="svg2" xmlns:rdf="http://www.w3.org/1999/02/22-rdf-syntax-ns#" xmlns="http://www.w3.org/2000/svg" height="54" width="99" version="1.1" xmlns:cc="http://creativecommons.org/ns#" xmlns:dc="http://purl.org/dc/elements/1.1/">
 <metadata id="metadata7">
  <rdf:RDF>
   <cc:Work rdf:about="">
    <dc:format>image/svg+xml</dc:format>
    <dc:type rdf:resource="http://purl.org/dc/dcmitype/StillImage"/>
    <dc:title/>
   </cc:Work>
  </rdf:RDF>
 </metadata>
 <g id="g23805">
  <rect id="rect2990" opacity="0" height="54" width="99" y="0" x="0"/>
  <path id="path8623" d="m53.984 49.164c-0.13335-0.21485-0.57442-1.0469-0.98017-1.8491-0.50297-0.99435-0.88206-1.5337-1.1913-1.6949-0.24947-0.13004-0.45359-0.29875-0.45359-0.3749s-0.15957-0.34133-0.35462-0.58928c-0.32787-0.41683-0.35854-0.67476-0.40672-3.4208-0.0286-1.6335-0.0948-3.1046-0.14704-3.2691-0.0522-0.16451-0.59287-0.72136-1.2014-1.2374-0.60859-0.51607-1.8859-1.6601-2.8384-2.5424-2.6654-2.4686-2.9967-2.7431-3.7936-3.142-0.83649-0.41875-1.9003-1.2319-2.9053-2.2207-2.3661-2.3279-3.8897-5.6888-4.1537-9.1621-0.31745-4.1774 1.2948-8.5696 4.0605-11.062 1.6704-1.5054 3.6774-2.9578 4.0874-2.9578 0.12418 0 0.91345-0.22865 1.7539-0.5081 4.6152-1.5345 9.6778-0.24538 13.687 3.4852 0.76562 0.71241 1.6182 1.6971 1.9394 2.2398 0.31522 0.53264 0.61556 1.0055 0.66741 1.0509 0.18784 0.16429 1.0142 2.2388 1.149 2.8845 0.64797 3.1039 0.65376 3.1639 0.4892 5.0607-0.18911 2.1797-0.324 2.6379-1.8126 6.1572-0.61396 1.4515-1.3922 3.3442-1.7296 4.206-0.33729 0.86182-0.76308 1.9009-0.94621 2.3092-0.18312 0.40823-0.50743 1.2058-0.72069 1.7724-0.37104 0.98576-0.3767 1.0639-0.13118 1.8143 0.1411 0.43132 0.44634 1.1925 0.67831 1.6914 0.23196 0.49895 0.60384 1.3896 0.8264 1.9793 0.22256 0.58966 0.54745 1.2253 0.72199 1.4126 0.38195 0.40985 0.39067 0.55328 0.0709 1.1663-0.13551 0.25984-0.24685 0.64654-0.24741 0.85933-0.00049 0.21279-0.14459 0.58853-0.32008 0.83497-0.24895 0.34963-0.3443 0.86261-0.43394 2.3346-0.0632 1.0376-0.1808 1.9701-0.26136 2.0722-0.0806 0.10209-0.49764 0.27269-0.92682 0.3791-0.42918 0.10642-1.003 0.26112-1.2752 0.34379-0.27215 0.08266-0.98154 0.19919-1.5764 0.25895-1.0166 0.10212-1.0962 0.08517-1.324-0.28199zm0.89702-5.9094c0.20597-0.20464-1.0341-5.2899-1.3164-5.3982-0.45293-0.17381-0.7559 0.29439-0.65427 1.0111 0.0522 0.36807 0.13293 1.1517 0.17943 1.7413 0.15141 1.9201 0.28496 2.7194 0.47455 2.8398 0.21918 0.13927 1.1139 0.0074 1.3167-0.19405zm1.3894-0.26522c0.22664-0.40498-1.2791-5.3757-1.6076-5.307-0.28402 0.05943-0.29138 0.67023-0.0194 1.6068 0.0922 0.31751 0.32494 1.281 0.51716 2.1411 0.19222 0.86012 0.38475 1.6209 0.42785 1.6906 0.13362 0.21622 0.53012 0.13966 0.68197-0.13168zm-3.6648-1.0783c-0.15022-1.5245-0.39674-2.1949-0.41153-1.1192-0.0151 1.1018 0.17336 2.291 0.36316 2.291 0.10395 0 0.12163-0.42834 0.0484-1.1718zm-0.98396-0.09323c-0.16816-1.6413-0.42035-1.8805-0.40521-0.38438 0.0132 1.3066 0.0539 1.4845 0.33993 1.4845 0.12083 0 0.1418-0.35328 0.0653-1.1001zm5.8305 0.61469c0.20008-0.12659 0.12444-0.51225-0.47662-2.4304-0.76813-2.4512-0.93171-2.8572-1.1513-2.8572-0.34292 0-0.28179 0.60003 0.26309 2.5821 0.83301 3.0302 0.83749 3.0391 1.3649 2.7054zm1.9889-1.434c0-0.50466-1.8303-4.5299-1.9294-4.2433-0.0912 0.26368 1.1117 4.4074 1.3178 4.5393 0.24426 0.15636 0.61167-0.02144 0.61167-0.296zm-6.3835-3.9576c0.16125-0.16125-0.19699-0.72055-0.46153-0.72055s-0.62279 0.5593-0.46153 0.72055c0.0573 0.05729 0.26497 0.10416 0.46153 0.10416 0.19655 0 0.40424-0.04687 0.46153-0.10416zm1.2423-0.34943c0.21641-0.42078 0.0573-0.701-0.39801-0.701-0.30763 0-0.39861 0.08784-0.39861 0.38486 0 0.64783 0.5199 0.85416 0.79662 0.31614zm1.3476-0.52632c0-0.17608-0.0658-0.36082-0.14625-0.41054-0.20088-0.12415-0.56712 0.34555-0.4355 0.55852 0.18054 0.29212 0.58175 0.19007 0.58175-0.14798zm-3.6287-0.52334c0-0.30128-0.69441-1.4437-0.93326-1.5353-0.33575-0.12884-0.27368 0.55906 0.10674 1.183 0.31413 0.5152 0.82652 0.73363 0.82652 0.35234zm-1.8062-1.2848c-0.1896-0.37166-0.45895-0.67575-0.59853-0.67575-0.2823 0-0.231 0.12817 0.38396 0.95924 0.53236 0.71944 0.64817 0.56643 0.21457-0.2835zm7.951-1.253c0.93602-2.1133 1.5345-3.839 1.3836-3.9899-0.065-0.06503-0.55699 0.32364-1.0932 0.86371l-0.97502 0.98195-0.2455 1.787c-0.23405 1.7035-0.2098 2.4356 0.0709 2.1415 0.0708-0.07414 0.45741-0.87703 0.85922-1.7842zm-10.103 1.5763c0-0.30514-1.8557-2.1536-2.162-2.1536-0.52965 0-0.35646 0.25765 0.8753 1.3022 1.2704 1.0773 1.2867 1.0881 1.2867 0.85142zm7.7522-0.33928c0-0.51913-0.27214-0.67226-0.43598-0.24531-0.0818 0.2131 0.18434 0.74013 0.37371 0.74013 0.0342 0 0.0623-0.22267 0.0623-0.49482zm-6.9275-0.19715c0-0.22424-0.81662-1.1224-1.0205-1.1224-0.26947 0-0.12309 0.40577 0.30914 0.85691 0.47413 0.49489 0.71137 0.58342 0.71137 0.26546zm4.05-1.004c-0.0326-0.11049-0.14772-0.57201-0.25597-1.0256-0.10826-0.45359-0.25801-1.0103-0.33278-1.2371-0.0748-0.22679-0.36805-1.4144-0.65172-2.6391-0.84107-3.6311-1.3566-5.6735-1.5029-5.9548-0.10112-0.19433-0.49981-0.2942-1.5055-0.3771-0.75239-0.06202-1.6451-0.15648-1.9838-0.2099-0.47029-0.07418-0.63931-0.03583-0.71534 0.1623-0.1461 0.38074 3.046 6.7998 3.8241 7.6899 0.35249 0.40324 0.94724 1.0654 1.3217 1.4714 0.37443 0.40602 0.88143 1.1345 1.1266 1.6188 0.24522 0.4843 0.51086 0.84038 0.5903 0.79128 0.0794-0.0491 0.11782-0.17967 0.0853-0.29016zm-4.5448-8.9138c-0.31069-0.16094-0.40381-0.32952-0.37768-0.68376 0.0391-0.53067 0.1453-0.66496 0.64459-0.81534 0.26006-0.07832 0.41924 0.0013 0.62257 0.31171 0.2488 0.37971 0.25036 0.46109 0.0175 0.91139-0.28883 0.55854-0.33462 0.57248-0.90698 0.27599zm5.4463 7.7548c0.002-0.65235 0.12241-1.7799 0.26804-2.5056 0.51371-2.5599 0.48053-9.2309-0.047-9.4333-0.12974-0.04978-0.66008 0.20677-1.1785 0.57012-0.51846 0.36335-1.221 0.77673-1.5612 0.91862-0.34019 0.14188-0.61853 0.36648-0.61853 0.4991s0.17693 0.93431 0.39318 1.7815c0.21624 0.84722 0.70238 2.8393 1.0803 4.4269 0.80266 3.3717 1.1724 4.8163 1.2776 4.9922 0.21344 0.35651 0.38311-0.19271 0.386-1.2495zm-1.7557-8.5235c-0.71945-0.29054-0.23013-1.487 0.60814-1.487 0.41271 0 0.68304 0.73564 0.45458 1.2371-0.19496 0.42788-0.46483 0.49135-1.0627 0.2499zm4.5058 9.2786c-0.0418-0.16048-0.0788-0.06912-0.0821 0.20304-0.003 0.27215 0.0308 0.40346 0.076 0.29178 0.0452-0.11167 0.0479-0.33434 0.006-0.49482zm-4.7326 0.14805c0-0.16632-0.25669-0.5931-0.57042-0.94841-0.56884-0.64421-0.57045-0.64478-0.57729-0.20508-0.007 0.42939 0.69657 1.4559 0.99744 1.4559 0.0827 0 0.15027-0.13608 0.15027-0.3024zm2.9098-0.60602c0.13625-0.35506-0.0919-1.4288-0.27905-1.3131-0.21253 0.13135-0.20015 1.5618 0.0135 1.5618 0.0936 0 0.21306-0.11189 0.26554-0.24865zm-6.0436 0.01097c0-0.04-0.0742-0.11861-0.16494-0.17468-0.0907-0.05607-0.16494-0.02333-0.16494 0.07274s0.0742 0.17468 0.16494 0.17468c0.0907 0 0.16494-0.03273 0.16494-0.07273zm7.7501-0.99628c0.27333-0.39726 0.49696-0.85032 0.49696-1.0068 0-0.26846-0.0179-0.26832-0.31723 0.0026-0.53814 0.487-1.2046 1.5495-1.0891 1.7363 0.15312 0.24776 0.33709 0.09964 0.90936-0.73214zm-9.3995 0.44595c0-0.28104-0.54283-0.87776-1.0256-1.1274-1.175-0.60761-2.3435-1.9715-3.9072-4.5606-0.50117-0.8298-0.83233-0.97975-1.8709-0.84713-1.4567 0.18603-2.0684 0.6776-1.6471 1.3237 0.79899 1.2251 2.8951 3.0481 4.721 4.1059 1.4953 0.86631 3.7297 1.5286 3.7297 1.1055zm-6.7213-4.2695c-0.38191-0.1541-0.23981-1.0157 0.21686-1.3149 0.40108-0.2628 0.43974-0.26048 0.74491 0.04469 0.2443 0.2443 0.29638 0.44931 0.21611 0.85067-0.0878 0.43886-0.1794 0.52659-0.53873 0.51578-0.23813-0.0072-0.52575-0.05046-0.63915-0.09622zm9.5976 4.0266c-0.17443-0.56317-1.042-2.1135-1.546-2.7628-0.98571-1.2697-2.2708-3.729-2.8874-5.5255-0.21199-0.61768-0.44386-1.0089-0.61691-1.0408-0.33602-0.06197-2.1943 2.3264-2.0674 2.6571 0.072 0.18764 0.66766 1.0079 3.0783 4.2391 0.23688 0.31751 0.5609 0.78259 0.72003 1.0335 0.29262 0.46138 2.5566 1.7301 3.1346 1.7567 0.23672 0.01089 0.27558-0.06427 0.18481-0.35734zm-5.5153-5.8802c-0.33831-0.09338-0.41235-0.21613-0.41235-0.68367 0-0.51366 0.0488-0.57409 0.49482-0.61283 0.76334-0.06629 0.9923 0.15994 0.80894 0.79928-0.17114 0.59675-0.29019 0.66315-0.89141 0.49721zm11.494 4.7381c0.20996-0.19725 0.38175-0.42056 0.38175-0.49625s0.21203-0.43032 0.47117-0.78806c0.25915-0.35774 0.55059-0.96944 0.64765-1.3593 0.21356-0.85786 0.71499-4.8447 0.75164-5.9762l0.0263-0.81392-1.3027-0.63759c-0.71649-0.35068-1.3905-0.6039-1.4978-0.56273-0.14479 0.05556-0.15633 0.38726-0.0448 1.2866 0.0827 0.66644 0.10626 2.1024 0.0524 3.191-0.0539 1.0886-0.14297 2.8861-0.19798 3.9944-0.1286 2.5908-0.0377 2.8667 0.71228 2.1621zm0.71163-7.3825c-0.3155-0.08147-0.42449-0.2309-0.46405-0.63616-0.0437-0.4476 0.0183-0.55627 0.39956-0.70125 0.58701-0.22318 0.85415-0.10774 0.98839 0.42713 0.14602 0.58176-0.34036 1.061-0.9239 0.91028zm2.4692 5.4732c1.622-1.816 3.9698-7.5168 3.4758-8.4399-0.19838-0.37067-0.85473-0.27116-2.06 0.31232-1.02 0.49375-1.2459 0.8658-1.2459 2.0516 0 1.5903-0.55952 4.1515-1.1818 5.4097-0.36642 0.74088-0.40371 1.6147-0.0689 1.6147 0.12856 0 0.61496-0.42678 1.0809-0.94841zm1.2832-5.5489c-0.30602-0.2323-0.3781-0.85829-0.14178-1.2313 0.24713-0.39003 1.1102-0.07783 1.3438 0.48609 0.11175 0.26979 0.17464 0.5067 0.13975 0.52647-0.93503 0.52984-0.93241 0.52941-1.3417 0.21869zm-21.973 1.6126c0.52891-0.34656 0.51265-0.49498-0.0883-0.80573-0.63878-0.33033-0.62379-0.55685 0.0737-1.1134 0.88621-0.70711 1.3126-0.54717 1.1272 0.42281-0.12136 0.6348 0.15123 0.57115 1.5936-0.37212 2.3658-1.5472 5.5464-2.8699 8.5835-3.5697 0.95087-0.21909 1.8416-0.39876 1.9793-0.39927 0.13773-0.000511 0.53745-0.08062 0.88827-0.17803l0.63785-0.17711-0.55181-0.46068c-0.48657-0.4062-0.52472-0.49334-0.32263-0.73684 0.17121-0.2063 0.44154-0.26378 1.0686-0.22723 0.73333 0.04275 0.83298 0.0906 0.78891 0.37881-0.0278 0.18144-0.2504 0.4999-0.49482 0.7077l-0.44439 0.37782 2.5566-0.04724c2.3508-0.04344 4.8948 0.20627 6.3898 0.62719 0.28234 0.07949 0.4007 0.01962 0.50186-0.25386 0.22986-0.62137 0.034-1.4877-0.40072-1.7725-0.50002-0.32763-0.67394-0.1731-0.39397 0.35003 0.36184 0.67609 0.1204 0.96554-0.69554 0.83384-0.38535-0.0622-0.79614-0.20396-0.91287-0.31504-0.26884-0.25582-0.10097-0.71223 0.30995-0.84265 0.17305-0.05493 0.31464-0.16114 0.31464-0.23604 0-0.23775-0.5376-0.35591-1.9793-0.43502-0.7711-0.04231-1.5133-0.10996-1.6494-0.15034-0.13607-0.04038-0.34802-0.01022-0.47098 0.06702-0.18562 0.11658-0.17981 0.20722 0.0342 0.53389 0.15237 0.23254 0.20293 0.48225 0.12364 0.61055-0.20783 0.33629-1.3607 0.42559-1.7486 0.13546-0.32722-0.24469-0.32666-0.25011 0.0694-0.67168 0.21959-0.23375 0.35203-0.47222 0.29431-0.52994-0.46857-0.46857-7.5645 0.64619-9.3143 1.4633l-0.70355 0.32853 0.53861 0.28886c0.29624 0.15887 0.53861 0.38535 0.53861 0.50327 0 0.29973-0.89466 0.79203-1.4656 0.80649-0.47049 0.01191-0.47483 0.0034-0.37428-0.73018 0.056-0.40823 0.0788-0.74223 0.0508-0.74223-0.27162 0-3.1128 1.2444-3.6357 1.5924-0.37293 0.2482-0.91821 0.56908-1.2117 0.71306-0.73869 0.36234-2.2376 1.6284-2.6753 2.2596l-0.36334 0.52405 0.33364 0.75424c0.36565 0.82661 0.49541 0.88415 1.1002 0.48786zm1.6711-2.4826c-0.21075-0.21075-0.10791-0.83032 0.17868-1.0765 0.44118-0.3789 0.85708-0.47934 1.2078-0.29165 0.42421 0.22703 0.40226 0.59663-0.0498 0.83856-0.20224 0.10824-0.46732 0.29641-0.58907 0.41816-0.23868 0.23867-0.57084 0.28817-0.7476 0.1114zm2.3229-1.3877c-0.46997-0.27373-0.34068-0.72558 0.29425-1.0284 1.0788-0.51444 1.5573-0.27443 1.1324 0.56799-0.31256 0.61974-0.85342 0.79426-1.4267 0.46036zm4.8973-2.0389c-0.45483-0.33775-0.1354-0.78945 0.67776-0.9584 1.0741-0.22317 1.3831 0.1315 0.72752 0.83517-0.38777 0.41623-0.94491 0.46509-1.4053 0.12323zm2.69-0.38596c-0.64826-0.13529-0.0348-1.1906 0.69208-1.1906 0.61651 0 1.3226 0.55835 1.0531 0.83272-0.21991 0.22385-1.3132 0.44808-1.7452 0.35792zm7.9015-0.66757c-0.31148-0.34418-0.35622-0.78203-0.0963-0.94266 0.29321-0.18122 1.6496 0.09383 1.7498 0.35481 0.13656 0.35588-0.42542 0.88948-0.93679 0.88948-0.24403 0-0.56653-0.13574-0.71667-0.30163zm-17.097 6.2216c0-0.2937-0.57034-0.0772-0.63137 0.23965-0.0495 0.2573-0.008 0.27396 0.28676 0.11601 0.18953-0.10144 0.34461-0.26148 0.34461-0.35566zm1.9951-0.98298c0.4873-0.34699 0.62577-0.64853 0.2978-0.64853-0.37574 0-1.3032 0.54161-1.3032 0.76103 0 0.33126 0.45348 0.28053 1.0054-0.1125zm6.5007-2.1335c0.6972-0.26508 0.47644-0.74453-0.33624-0.73026-0.76252 0.01339-2.256 0.54157-2.1261 0.75188 0.12205 0.19748 1.9277 0.18163 2.4623-0.02162zm-12.398-1.6729c0.0822-1.0263 0.0533-1.3007-0.15538-1.4739-0.2109-0.17503-0.28302-0.17077-0.40627 0.02399-0.20746 0.32785-0.19285 2.1772 0.0217 2.7414 0.25047 0.65878 0.41533 0.26448 0.54-1.2915zm14.554 1.0677c0.84595-0.41422 1.3524-0.8116 1.2056-0.94598-0.13471-0.12332-1.9892 0.21476-2.2176 0.40425-0.24866 0.20637-0.31896 0.68244-0.12885 0.87255 0.1545 0.1545 0.14276 0.15791 1.1409-0.33082zm-11.706-2.2945c0.0205-2.5882 0.22969-3.67 1.1605-6 0.32958-0.82502 0.55499-1.5443 0.5009-1.5984-0.39777-0.39777-1.345 1.2182-1.5331 2.6155-0.0604 0.44881-0.23831 0.89737-0.42171 1.0633-0.27486 0.24874-0.31333 0.49496-0.28818 1.8442 0.0246 1.3229-0.0139 1.5812-0.25594 1.7166-0.23474 0.13137-0.26481 0.29452-0.17065 0.92571 0.15365 1.0299 0.52473 1.8835 0.78157 1.7979 0.15355-0.0512 0.2133-0.67462 0.22666-2.3649zm20.593 1.8531c0.42228-0.30877 0.17946-0.60231-0.49823-0.60231-0.4404 0-0.56756 0.06775-0.56756 0.30239 0 0.56136 0.51143 0.70528 1.0658 0.29992zm-1.8905-0.18996c0.34395-0.41444-0.0858-0.74263-0.96861-0.73971-0.84256 0.0028-1.4394 0.23947-1.0061 0.399 1.8202 0.67017 1.7162 0.65221 1.9747 0.34071zm-14.69-1.4716c0.13646-0.16442 0.15461-0.52136 0.0607-1.1937-0.14201-1.0168-0.38387-1.2381-0.92266-0.84411-0.25323 0.18516-0.26789 0.32232-0.11859 1.1096 0.20647 1.0887 0.56539 1.4285 0.98053 0.92824zm1.4951-2.0746c0-0.93579-0.0664-1.3342-0.24741-1.4845-0.29853-0.24776-0.30831-0.59247-0.052-1.8333 0.15759-0.763 0.15336-0.99662-0.0219-1.2078-0.39951-0.48138-0.62435 0.0087-0.74554 1.6251-0.11964 1.5959 0.1216 3.9508 0.44519 4.3457 0.12828 0.15654 0.22657 0.16176 0.39613 0.02104 0.15527-0.12886 0.22553-0.58568 0.22553-1.4663zm3.3984 0.42735c0.049-0.12783 0.004-0.5175-0.0994-0.86594-0.10372-0.34844-0.36024-1.3504-0.57004-2.2265-0.42555-1.7771-0.50147-1.9533-0.84181-1.9533-0.32624 0-0.2979 0.49667 0.0915 1.6047 0.21861 0.62197 0.27403 0.9919 0.16494 1.101-0.43231 0.43231 0.27555 2.5724 0.85086 2.5724 0.17311 0 0.35488-0.10459 0.40393-0.23242zm-11.387-1.1814c0.54767-1.1541 0.63384-1.7201 0.2619-1.7201-0.2585 0-0.47744 0.38151-0.75078 1.3082-0.25785 0.87422-0.34499 1.6607-0.184 1.6607 0.0442 0 0.34693-0.56199 0.67288-1.2489zm12.601 0.76488c0.0939-0.17547 0.17075-0.62265 0.17075-0.99373 0-0.5679-0.0653-0.6995-0.41236-0.83146-0.33067-0.12572-0.41235-0.27033-0.41235-0.73003 0-1.0505-0.33726-2.2312-0.6915-2.4208-0.18346-0.09818-0.39527-0.11597-0.47069-0.03952-0.0754 0.07644 0.11125 1.1039 0.41483 2.2832s0.59734 2.3483 0.65281 2.5978c0.11701 0.52635 0.50181 0.59552 0.74851 0.13455zm3.2203-0.50266c0.29315-0.47433-1.8939-5.2811-2.4028-5.2811-0.27899 0-0.15652 0.49161 0.34293 1.3766 0.27215 0.48223 0.4932 1.0563 0.49121 1.2758-0.004 0.40991 1.1503 2.7857 1.3546 2.7889 0.0627 0.00099 0.15901-0.07109 0.21406-0.16016zm5.0326-0.08924c0-0.13815-0.23466-0.8102-0.52146-1.4934-0.56842-1.3541-1.1807-2.0176-1.5666-1.6973-0.18992 0.15762-0.16769 0.28584 0.13591 0.78431 0.19963 0.32774 0.61414 1.0598 0.92115 1.6268 0.52267 0.96526 1.031 1.3497 1.031 0.7797zm1.0754-0.6865c-0.17059-1.3654-0.33331-1.7014-0.82395-1.7014-0.50467 0-0.53191 0.27739-0.10996 1.1199 0.16857 0.33658 0.35554 0.81607 0.4155 1.0655 0.0625 0.25984 0.22147 0.45359 0.37229 0.45359 0.22394 0 0.24577-0.1401 0.14612-0.93768zm-4.8081 0.40162c0.15361-0.57319 0.12189-1.4127-0.0576-1.5236-0.0889-0.05491-0.31987-0.01509-0.51339 0.08847-0.30232 0.1618-0.33679 0.28256-0.24479 0.85784 0.0589 0.36824 0.14584 0.73227 0.19324 0.80896 0.16622 0.26896 0.52403 0.1358 0.62251-0.23168zm7.6912-0.71181c0-0.05131-0.25766-0.65094-0.57257-1.3325-0.43996-0.95224-0.64051-1.2253-0.86594-1.179-0.18056 0.03706-0.27278 0.17743-0.23982 0.36503 0.0538 0.30638 0.71151 1.4133 1.1593 1.9512 0.2322 0.27892 0.51906 0.38688 0.51906 0.19537zm-18.534-1.1451c-0.0563-0.14684-0.1772-0.22078-0.26855-0.16431-0.192 0.11866-0.2236 0.79542-0.0455 0.97356 0.17513 0.17513 0.43488-0.49428 0.31401-0.80925zm14.095-1.4361c-0.0552-0.29799-0.26813-0.85724-0.47314-1.2428-0.32652-0.61405-0.44227-0.701-0.93324-0.701-0.45395 0-0.62391-0.1019-0.89411-0.53606-0.47582-0.76452-1.8373-2.0532-2.3874-2.2597-1.0492-0.39393-0.88508 0.30603 0.25139 1.0724 1.7086 1.1522 2.1669 1.6076 3.935 3.9102 0.43373 0.56484 0.63324 0.46817 0.50147-0.24299zm-4.7978-0.1261c0-0.4036-0.55394-1.4878-0.76014-1.4878-0.32984 0-0.28279 0.45214 0.11383 1.0939 0.33135 0.53614 0.64631 0.7281 0.64631 0.39392zm-8.9093-1.3738c-0.002-0.40049-0.0407-0.46717-0.16242-0.27891-0.2114 0.32712-0.2114 1.0378 0 0.90717 0.0907-0.05607 0.16381-0.33878 0.16242-0.62826zm11.054-0.0315c0-0.13608-0.12042-0.24741-0.2676-0.24741-0.21918 0-0.23045 0.044781-0.0623 0.24741 0.11293 0.13608 0.23336 0.24741 0.2676 0.24741 0.0343 0 0.0623-0.11134 0.0623-0.24741zm4.6183-0.0599c0-0.23981-1.6187-1.672-1.8898-1.672-0.51532 0-0.22943 0.46269 0.69393 1.1231 0.97189 0.69509 1.1958 0.79788 1.1958 0.54891zm-12.538-0.6417c-0.004-0.22575-0.30783-0.61056-0.40475-0.51365-0.12993 0.12993 0.077 0.63736 0.25998 0.63736 0.081 0 0.14615-0.055668 0.14477-0.12371z"/>
 </g>
</svg>
