<?xml version="1.0" encoding="UTF-8" standalone="no"?>
<!-- Created with Inkscape (http://www.inkscape.org/) -->
<svg id="svg2" xmlns:rdf="http://www.w3.org/1999/02/22-rdf-syntax-ns#" xmlns="http://www.w3.org/2000/svg" viewBox="0 0 315.54997 539.78997" height="100%" width="100%" version="1.1" xmlns:cc="http://creativecommons.org/ns#" xmlns:dc="http://purl.org/dc/elements/1.1/">
 <metadata id="metadata7">
  <rdf:RDF>
   <cc:Work rdf:about="">
    <dc:format>image/svg+xml</dc:format>
    <dc:type rdf:resource="http://purl.org/dc/dcmitype/StillImage"/>
    <dc:title/>
   </cc:Work>
  </rdf:RDF>
 </metadata>
 <g id="template1">
  <rect id="background1" height="179.29" width="314.55" stroke="#000" y=".5" x=".5" fill="#fff"/>
  <text id="line1" y="30.918495" x="291.48041" font-size="12.5px" style="text-anchor:end">John Smith</text>
  <text id="line2" y="41.918495" x="291.48041" font-size="9.375px" style="text-anchor:end">Owner</text>
  <text id="line3" y="90.918495" x="291.48041" font-size="12.5px" font-weight="bold" style="text-anchor:end">Company Name</text>
  <text id="line4" y="101.9185" x="291.48041" font-size="9.375px" style="text-anchor:end">123 Main Street</text>
  <text id="line5" y="112.9185" x="291.48041" font-size="9.375px" style="text-anchor:end">Anywhere, USA 12345-6789</text>
  <text id="line6" y="123.9185" x="291.48041" font-size="9.375px" style="text-anchor:end">Phone: (800) 123-4567</text>
  <text id="line7" y="134.9185" x="291.48041" font-size="9.375px" style="text-anchor:end">FAX: (123) 456-7890</text>
  <text id="line8" y="145.9185" x="291.48041" font-size="9.375px" style="text-anchor:end">Cell: (123) 3456 7893</text>
  <text id="line9" y="156.9185" x="291.48041" font-size="9.375px" style="text-anchor:end">www.yourwebsite.com</text>
  <path id="path12072" fill="#00f" d="m57.531 139.45c-6.0663-0.76096-9.3823-3.9538-10.145-9.7668-0.17036-1.2997-0.17036-4.0641 0-5.3637 0.87945-6.703 5.1011-9.8996 13.075-9.9004 3.5708-0.00018 6.302 0.63442 8.4513 1.964 0.97777 0.60492 2.3789 2.0399 2.9643 3.0359 1.194 2.0317 1.7093 4.3175 1.7093 7.582 0 2.0008-0.13625 3.2413-0.50872 4.6316-0.55209 2.0608-1.2428 3.3097-2.5715 4.6494-1.6492 1.6629-3.4661 2.5284-6.4 3.0488-1.3782 0.24443-5.0443 0.31067-6.5741 0.11877zm5.6598-0.94788c1.1692-0.18597 2.914-0.69943 3.3748-0.99315 0.08046-0.0513-0.61286-1.5679-2.6169-5.7241l-2.7264-5.6543h-0.80188-0.80188l-2.2271 4.6149c-1.2249 2.5382-2.4541 5.0912-2.7316 5.6733l-0.50445 1.0584 0.70821 0.27996c1.7338 0.68537 3.5918 0.96913 5.9762 0.91261 0.83809-0.0199 1.896-0.0953 2.351-0.16768zm-9.3177-1.3348c-0.000523-0.0359 0.36144-2.4709 0.79252-5.4128l0.79354-5.3475 1.9503-5.488c1.0727-3.0184 1.9503-5.506 1.9503-5.5281 0-0.022-0.35296-0.015-0.78432 0.0156-1.7467 0.12398-3.7426 0.71889-5.0923 1.5178-0.90499 0.5357-2.2236 1.8338-2.7779 2.7346-0.81436 1.3234-1.4163 3.2143-1.6222 5.0956-0.13862 1.2666-0.06814 4.4113 0.12137 5.4153 0.46236 2.4498 1.1981 4.0437 2.5198 5.4585 0.79339 0.84926 2.1533 1.8233 2.1488 1.539zm13.861-0.34278c2.8796-1.932 4.356-5.7418 4.1247-10.643-0.31684-6.7125-3.445-10.209-9.6471-10.786-0.41905-0.0389-0.7619-0.0665-0.7619-0.0613 0 0.005 0.8718 2.4995 1.9638 5.5334l1.9638 5.524 0.7849 5.3115c0.4317 2.9214 0.80065 5.3605 0.81988 5.4204 0.0516 0.16066 0.08878 0.14587 0.75218-0.29924zm-6.7199-13.727c0-0.68658-0.02598-2.7241-0.05768-4.5279l-0.05761-3.2795h-0.4564-0.45639l-0.04926 0.89251c-0.02707 0.49088-0.07133 2.5284-0.09846 4.5279l-0.0492 3.6354h0.61252 0.61252v-1.2484z"/>
  <path id="path12072-8" fill="#00f" d="m24.079 156.32c0.0032-0.079 1.4894-2.5983 3.3017-5.5985l3.295-5.4549h1.8092 1.8091l2.4601 4.4022c1.3531 2.4212 2.7611 4.9406 3.1288 5.5985l0.6686 1.1963h-1.6039-1.6039l-2.377-4.3099c-1.4902-2.702-2.4743-4.2908-2.6378-4.2587-0.22699 0.0445-2.6724 4.2131-2.6968 4.597-0.0048 0.079 0.97316 0.14355 2.1737 0.14355h2.1829l0.59247 1.0498c0.32586 0.57739 0.59248 1.0942 0.59248 1.1484s-1.5776 0.0986-3.5057 0.0986h-3.5057l-0.4303 0.76561-0.43029 0.76561h-1.6146c-0.88807 0-1.6116-0.0646-1.6079-0.14355zm18.847-0.12872c-0.7854-0.35202-1.4261-0.99805-1.7437-1.7583-0.32498-0.77782-0.37333-6.2733-0.06236-7.0964 0.11197-0.29636 0.43496-0.78627 0.71776-1.0887 0.95382-1.0201 1.309-1.077 6.7286-1.077h4.9827v1.1484 1.1484h-4.6785c-5.7143 0-5.2744-0.27387-5.2744 3.284 0 1.3382 0.08405 2.6541 0.18666 2.9241l0.18666 0.49097h4.7898 4.7898v1.1484 1.1484l-5.0243-0.008c-3.7823-0.006-5.1662-0.0711-5.5985-0.26486zm14.113-0.22022c-1.472-0.88222-1.5767-1.3066-1.5767-6.3903v-4.4099h1.3398 1.3398v4.2769c0 3.9003 0.03094 4.3048 0.35003 4.5936 0.29701 0.26879 0.84625 0.31677 3.6258 0.31677 3.168 0 3.2856-0.0144 3.5738-0.42539 0.24751-0.35339 0.29795-1.1308 0.29795-4.5936v-4.1682h1.3398 1.3398v4.4148c0 4.6471-0.02728 4.8163-0.93254 5.7944-0.96283 1.0403-1.1915 1.0836-5.7092 1.0817-4.1324-0.002-4.1804-0.006-4.9882-0.49076zm13.735-5.1538v-5.6464l5.7899 0.00038c6.4646 0.0004 6.7027 0.0419 7.5565 1.32 0.37089 0.55518 0.43446 0.90105 0.43446 2.3636 0 1.6687-0.01595 1.7276-0.59264 2.2668l-0.59264 0.55361 0.49694 0.59057c0.45806 0.54427 0.49694 0.73165 0.49694 2.3941v1.8036h-1.2441-1.2441v-1.6035c0-1.0956-0.08007-1.67-0.25297-1.8134-0.15456-0.12824-1.4723-0.23046-3.3862-0.26268l-3.1332-0.0528-0.32652-1.1006-0.3265-1.1006h3.4119c3.977 0 4.0135-0.0144 4.0135-1.6024 0-0.55043-0.10335-1.1041-0.2297-1.2304-0.16355-0.16355-1.3483-0.22968-4.1151-0.22968h-3.8855v4.4979 4.4979h-1.4355-1.4355v-5.6464zm14.797 5.4071c0.05519-0.13159 1.556-2.6509 3.3353-5.5985l3.2352-5.3592h1.8052 1.8052l2.7339 4.8807c1.5036 2.6844 2.905 5.2037 3.1141 5.5985l0.38033 0.71776h-1.5961-1.5961l-2.3774-4.3118c-1.4729-2.6712-2.475-4.2916-2.634-4.2587-0.20689 0.0427-2.7139 4.3431-2.7139 4.6552 0 0.048 0.98229 0.0872 2.1829 0.0872h2.1829l0.59247 1.0498c0.32588 0.57739 0.59248 1.0942 0.59248 1.1484s-1.5719 0.0993-3.4931 0.10018l-3.4931 0.001-0.43636 0.76414-0.43638 0.76414h-1.6416c-1.2392 0-1.6172-0.0587-1.5415-0.23925z"/>
 </g>
 <g id="template2" transform="translate(.27499)">
  <rect id="background2" height="179.29" width="314.55" stroke="#000" y="181.07" x=".22501" fill="#fff"/>
  <text id="line1-95" y="266.15714" x="157.51138" font-size="12.5px" style="text-anchor:middle">John Smith</text>
  <text id="line2-1" y="277.15714" x="157.51138" font-size="9.375px" style="text-anchor:middle">Owner</text>
  <text id="line3-8" y="304.15714" x="74.511391" font-size="11px" font-weight="bold" style="text-anchor:middle">Company Name</text>
  <text id="line4-1" y="315.15714" x="74.511391" font-size="9.375px" style="text-anchor:middle">123 Main Street</text>
  <text id="line5-19" y="326.15714" x="74.511391" font-size="9.375px" style="text-anchor:middle">Anywhere, USA 65421</text>
  <text id="line6-3" y="337.15714" x="74.511391" font-size="9.375px" style="text-anchor:middle">www.yourwebsite.com</text>
  <text id="line7-9" y="293.15714" x="293.51138" font-size="9.375px" style="text-anchor:end">Phone: (800) 123-4567</text>
  <text id="line8-77" y="304.15714" x="293.51138" font-size="9.375px" style="text-anchor:end">FAX: (123) 456-7890</text>
  <text id="line9-9" y="315.15714" x="293.51138" font-size="9.375px" style="text-anchor:end">Toll Free: (123) 345-7893</text>
  <text id="line10" y="326.15714" x="293.51138" font-size="9.375px" style="text-anchor:end">Cell: (123) 345-7893</text>
  <text id="line11" y="337.15714" x="293.51138" font-size="9.375px" style="text-anchor:end">email@yourdomain.com</text>
  <path id="path12072-0" fill="#00f" d="m154.03 228c-6.2595-0.78061-9.6812-4.0559-10.468-10.019-0.17579-1.3332-0.17579-4.169 0-5.5021 0.90749-6.876 5.2636-10.155 13.492-10.156 3.6845-0.00019 6.5027 0.65079 8.7204 2.0147 1.0089 0.62053 2.4547 2.0926 3.0587 3.1143 1.232 2.0841 1.7637 4.4289 1.7637 7.7776 0 2.0525-0.14059 3.325-0.52492 4.7512-0.56967 2.114-1.2824 3.3951-2.6534 4.7694-1.7018 1.7058-3.5765 2.5936-6.6038 3.1275-1.4221 0.25074-5.2049 0.31869-6.7834 0.12183zm5.84-0.97235c1.2064-0.19078 3.0068-0.71748 3.4823-1.0188 0.083-0.0526-0.63238-1.6083-2.7003-5.8718l-2.8132-5.8002h-1.6549l-2.298 4.734c-1.264 2.6037-2.5322 5.2226-2.8186 5.8197l-0.52051 1.0857 0.73076 0.28719c1.789 0.70305 3.7062 0.99411 6.1665 0.93613 0.86478-0.0204 1.9564-0.0978 2.4258-0.17202zm-9.6142-1.3747c-0.00054-0.0368 0.37295-2.5347 0.81775-5.5525l0.81882-5.4855 2.0124-5.6296c1.1068-3.0963 2.0124-5.6481 2.0124-5.6707s-0.3642-0.0153-0.8093 0.016c-1.8023 0.12717-3.8618 0.73743-5.2544 1.557-0.93384 0.54952-2.2944 1.8811-2.8664 2.8051-0.84029 1.3575-1.4614 3.2972-1.6739 5.2271-0.14303 1.2993-0.0703 4.5251 0.12523 5.555 0.47708 2.513 1.2363 4.148 2.6001 5.5993 0.81865 0.87118 2.2218 1.8703 2.2173 1.5787zm14.302-0.35163c2.9713-1.9819 4.4947-5.89 4.2561-10.918-0.32693-6.8858-3.5547-10.473-9.9544-11.065-0.43239-0.0398-0.78616-0.0682-0.78616-0.0629 0 0.004 0.89956 2.564 2.0263 5.6762l2.0263 5.6666 0.8099 5.4486c0.44544 2.9968 0.82614 5.4988 0.84599 5.5603 0.0532 0.16481 0.0916 0.14964 0.77613-0.30696zm-6.9339-14.081c0-0.70429-0.0268-2.7944-0.0595-4.6448l-0.0594-3.3641h-0.94186l-0.0508 0.91551c-0.0279 0.50355-0.0736 2.5936-0.1016 4.6448l-0.0508 3.7292h1.264v-1.2806z"/>
  <path id="path12072-8-66" fill="#00f" d="m118.06 247.14c0.003-0.0904 1.4894-2.974 3.3017-6.408l3.295-6.2436h3.6182l2.4601 5.0387c1.3531 2.7713 2.7611 5.6549 3.1288 6.408l0.66859 1.3692h-3.2078l-2.377-4.933c-1.4902-3.0927-2.4743-4.9112-2.6378-4.8744-0.227 0.051-2.6724 4.8223-2.6968 5.2616-0.005 0.0904 0.97314 0.16431 2.1737 0.16431h2.1829l0.59247 1.2016c0.32586 0.66088 0.59248 1.2524 0.59248 1.3144s-1.5776 0.11286-3.5057 0.11286h-3.5057l-0.4303 0.8763-0.43029 0.87632h-1.6146c-0.8881 0-1.6116-0.074-1.6079-0.16431zm18.847-0.14731c-0.7854-0.40293-1.4261-1.1423-1.7437-2.0126-0.32498-0.8903-0.37333-7.1804-0.0624-8.1225 0.11197-0.3392 0.43495-0.89991 0.71776-1.2461 0.95384-1.1676 1.309-1.2328 6.7286-1.2328h4.9827v2.6289h-4.6785c-5.7143 0-5.2744-0.31346-5.2744 3.7588 0 1.5317 0.0841 3.0379 0.18667 3.3469l0.18666 0.56195h9.5798v2.6289l-5.0243-0.01c-3.7823-0.006-5.1662-0.0814-5.5985-0.30316zm14.113-0.25208c-1.472-1.0098-1.5767-1.4955-1.5767-7.3142v-5.0475h2.6796v4.8952c0 4.4642 0.0309 4.9272 0.35003 5.2578 0.29701 0.30764 0.84626 0.36256 3.6258 0.36256 3.168 0 3.2856-0.0166 3.5738-0.4869 0.24751-0.40448 0.29795-1.2943 0.29795-5.2578v-4.7709h2.6796v5.0532c0 5.319-0.0273 5.5126-0.93252 6.6321-0.96283 1.1907-1.1915 1.2402-5.7092 1.2381-4.1324-0.002-4.1804-0.006-4.9882-0.5617zm13.735-5.899v-6.4628l5.79 0.00044c6.4646 0.00046 6.7027 0.0479 7.5565 1.5109 0.3709 0.63546 0.43447 1.0313 0.43447 2.7054 0 1.91-0.016 1.9774-0.59265 2.5945l-0.59264 0.63365 0.49694 0.67596c0.45807 0.62296 0.49694 0.83744 0.49694 2.7403v2.0644h-2.4882v-1.8353c0-1.254-0.0801-1.9115-0.25296-2.0756-0.15456-0.14678-1.4723-0.26379-3.3862-0.30067l-3.1332-0.0605-0.32652-1.2597-0.3265-1.2597h3.412c3.977 0 4.0135-0.0166 4.0135-1.8341 0-0.63-0.10335-1.2637-0.2297-1.4083-0.16355-0.1872-1.3483-0.26289-4.1151-0.26289h-3.8855v10.296h-2.871v-6.4628zm14.797 6.1889c0.0552-0.15062 1.556-3.0342 3.3353-6.408l3.2352-6.1341h3.6104l2.7339 5.5864c1.5036 3.0725 2.905 5.9561 3.1141 6.408l0.38033 0.82154h-3.1922l-2.3774-4.9352c-1.4729-3.0574-2.475-4.9121-2.634-4.8744-0.2069 0.0488-2.7139 4.971-2.7139 5.3283 0 0.055 0.98231 0.0998 2.1829 0.0998h2.1829l0.59247 1.2016c0.32588 0.66087 0.59248 1.2524 0.59248 1.3144s-1.5719 0.11365-3.4931 0.11466l-3.4931 0.00088-0.43636 0.87463-0.43638 0.87462h-1.6416c-1.2392 0-1.6172-0.0672-1.5415-0.27384z"/>
 </g>
 <g id="template3" transform="translate(.27499)">
  <rect id="background3" height="179.29" width="314.55" stroke="#000" y="360" x=".22501" fill="#fff"/>
  <text id="line1-2" y="444.97882" x="157.51138" font-size="12.5px" style="text-anchor:middle">John Smith</text>
  <text id="line2-9" y="455.97882" x="157.51138" font-size="9.375px" style="text-anchor:middle">Owner</text>
  <text id="line3-5" y="493.97882" x="74.511391" font-size="11px" font-weight="bold" style="text-anchor:middle">Company Name</text>
  <text id="line4-0" y="504.97882" x="74.511391" font-size="9.375px" style="text-anchor:middle">123 Main Street</text>
  <text id="line5-7" y="515.97882" x="74.511391" font-size="9.375px" style="text-anchor:middle">Anywhere, USA 65421</text>
  <text id="line6-1" y="482.97882" x="293.51138" font-size="9.375px" style="text-anchor:end">Phone: (800) 123-4567</text>
  <text id="line7-2" y="493.97882" x="293.51138" font-size="9.375px" style="text-anchor:end">FAX: (123) 456-7890</text>
  <text id="line8-5" y="504.97882" x="293.51138" font-size="9.375px" style="text-anchor:end">Cell: (123) 345-7893</text>
  <text id="line9-6" y="515.97882" x="293.51138" font-size="9.375px" style="text-anchor:end">www.yourwebsite.com</text>
  <path id="path12072-7" fill="#00f" d="m84.142 405.97c-6.0003-0.74828-9.2802-3.8879-10.035-9.6036-0.16851-1.278-0.16851-3.9964 0-5.2742 0.86988-6.5912 5.0456-9.735 12.933-9.735 3.532-0.00017 6.2334 0.62384 8.3593 1.9312 0.96715 0.59484 2.353 2.0059 2.932 2.9852 1.181 1.9978 1.6907 4.2455 1.6907 7.4556 0 1.9674-0.13477 3.1872-0.50319 4.5544-0.54608 2.0265-1.2293 3.2545-2.5435 4.5718-1.6312 1.6352-3.4283 2.4862-6.3303 2.9979-1.3632 0.24035-4.9894 0.30549-6.5025 0.11678zm5.5982-0.93208c1.1564-0.18287 2.8823-0.68777 3.3381-0.97658 0.07958-0.0504-0.60619-1.5418-2.5884-5.6287l-2.6967-5.56h-0.79315-0.79315l-2.2029 4.538c-1.2116 2.4959-2.4273 5.0063-2.7019 5.5787l-0.49896 1.0407 0.7005 0.27528c1.715 0.67395 3.5527 0.95297 5.9111 0.89745 0.82897-0.0195 1.8753-0.0937 2.3254-0.1649zm-9.2159-1.3125c-0.000517-0.0353 0.35751-2.4297 0.7839-5.3226l0.7849-5.2583 1.9291-5.3965c1.061-2.9681 1.9291-5.4142 1.9291-5.436 0-0.0216-0.34912-0.0147-0.77578 0.0154-1.7277 0.1219-3.7019 0.7069-5.0368 1.4924-0.89515 0.52677-2.1994 1.8032-2.7477 2.689-0.8055 1.3013-1.4009 3.1607-1.6045 5.0107-0.13711 1.2454-0.0674 4.3378 0.12005 5.325 0.45732 2.4089 1.1851 3.9763 2.4924 5.3675 0.78475 0.8351 2.1298 1.7929 2.1254 1.5133zm13.71-0.33707c2.8482-1.8998 4.3086-5.646 4.0798-10.465-0.31339-6.6006-3.4075-10.039-9.542-10.606-0.41449-0.0382-0.75361-0.0654-0.75361-0.0603 0 0.004 0.86231 2.4578 1.9424 5.4412l1.9424 5.4319 0.77636 5.223c0.427 2.8727 0.79194 5.2711 0.81096 5.33 0.05104 0.15798 0.08781 0.14343 0.744-0.29425zm-6.6468-13.498c0-0.67513-0.0257-2.6787-0.05705-4.4524l-0.05699-3.2248h-0.45144-0.45142l-0.04872 0.87763c-0.02678 0.48269-0.07055 2.4862-0.09739 4.4524l-0.04866 3.5748h0.60585 0.60586v-1.2276z"/>
  <path id="path12072-8-9" fill="#00f" d="m101.11 404.59c0.006-0.1559 2.656-5.1309 5.8879-11.055l5.876-10.772h3.2264 3.2262l4.3871 8.6932c2.413 4.7812 4.9239 9.7561 5.5796 11.055l1.1923 2.3624h-2.8602-2.8602l-4.2389-8.5108c-2.6574-5.3357-4.4124-8.4731-4.704-8.4098-0.4048 0.088-4.7657 8.3197-4.8092 9.0776-0.008 0.15592 1.7354 0.28349 3.8764 0.28349h3.8927l1.0566 2.073c0.5811 1.1402 1.0566 2.1608 1.0566 2.2678 0 0.10703-2.8133 0.19471-6.2517 0.19471h-6.2517l-0.76736 1.5118-0.76733 1.5118h-2.8793c-1.5837 0-2.874-0.1277-2.8673-0.28346zm33.61-0.25556c-1.4006-0.69515-2.5431-1.9709-3.1095-3.4721-0.57954-1.536-0.66576-12.388-0.11121-14.013 0.19967-0.58522 0.77566-1.5526 1.28-2.1498 1.701-2.0144 2.3344-2.1268 11.999-2.1268h8.8854v2.2678 2.2678h-8.3431c-10.191 0-9.4062-0.54081-9.4062 6.485 0 2.6426 0.14989 5.2411 0.33287 5.7743l0.33287 0.96953h8.5417 8.5417v2.2678 2.2678l-8.9595-0.0166c-6.7449-0.0107-9.2133-0.14048-9.9834-0.52302zm25.168-0.4349c-2.625-1.7421-2.8117-2.5802-2.8117-12.619v-8.7083h2.3893 2.3893v8.4457c0 7.702 0.0552 8.5008 0.62421 9.0714 0.52966 0.53077 1.5091 0.62552 6.4658 0.62552 5.6495 0 5.8592-0.0285 6.3731-0.84003 0.44139-0.69785 0.53133-2.233 0.53133-9.0714v-8.231h2.3893 2.3893v8.718c0 9.1771-0.0487 9.5111-1.663 11.442-1.717 2.0543-2.1248 2.1398-10.181 2.136-7.3693-0.004-7.4549-0.0107-8.8951-0.96909zm24.494-10.177v-11.15l10.325 0.00076c11.528 0.0008 11.953 0.0827 13.476 2.6066 0.66142 1.0963 0.77478 1.7793 0.77478 4.6674 0 3.2952-0.0285 3.4115-1.0569 4.4763l-1.0569 1.0933 0.88617 1.1662c0.81685 1.0747 0.88616 1.4448 0.88616 4.7277v3.5616h-2.2186-2.2186v-3.1664c0-2.1635-0.14277-3.2978-0.45112-3.581-0.27562-0.25324-2.6255-0.45512-6.0386-0.51874l-5.5874-0.10429-0.58229-2.1734-0.58224-2.1734h6.0844c7.0921 0 7.1573-0.0285 7.1573-3.1643 0-1.0869-0.1843-2.1802-0.40962-2.4296-0.29165-0.32298-2.4044-0.45356-7.3384-0.45356h-6.929v8.8819 8.8819h-2.5599-2.5599v-11.15zm26.388 10.678c0.0984-0.25986 2.7748-5.2348 5.9479-11.056l5.7693-10.583h3.2192 3.2192l4.8753 9.638c2.6814 5.301 5.1805 10.276 5.5533 11.056l0.67824 1.4174h-2.8463-2.8463l-4.2396-8.5146c-2.6266-5.2749-4.4136-8.4747-4.6972-8.4098-0.36896 0.0842-4.8397 8.5764-4.8397 9.193 0 0.0949 1.7517 0.17219 3.8928 0.17219h3.8927l1.0566 2.0731c0.58113 1.1401 1.0566 2.1608 1.0566 2.2678 0 0.10705-2.8032 0.19609-6.2292 0.19783l-6.2292 0.002-0.77816 1.509-0.77819 1.5089h-2.9274c-2.2099 0-2.8839-0.116-2.7489-0.47245z"/>
 </g>
 <text id="line1-5" y="87.377136" x="158.3606" style="text-anchor:middle" font-size="12.5px"/>
</svg>
