<?xml version="1.0" encoding="UTF-8" standalone="no"?>
<!-- Created with Inkscape (http://www.inkscape.org/) -->
<svg id="svg2" xmlns:rdf="http://www.w3.org/1999/02/22-rdf-syntax-ns#" xmlns="http://www.w3.org/2000/svg" viewBox="0 0 315 180" width="100%" height="100%" version="1.1" xmlns:cc="http://creativecommons.org/ns#" xmlns:xlink="http://www.w3.org/1999/xlink" xmlns:dc="http://purl.org/dc/elements/1.1/">
 <metadata id="metadata8">
  <rdf:RDF>
   <cc:Work rdf:about="">
    <dc:format>image/svg+xml</dc:format>
    <dc:type rdf:resource="http://purl.org/dc/dcmitype/StillImage"/>
    <dc:title/>
   </cc:Work>
  </rdf:RDF>
 </metadata>
 <text id="line1" font-size="12.5px" style="text-anchor:end" y="32" x="290" font-family="Helvetica" fill="#000000">John Smith</text>
 <text id="line2" font-size="9.375px" style="text-anchor:end" y="43" x="290" font-family="Helvetica" fill="#000000">Owner</text>
 <text id="line3" font-size="12.5px" font-weight="bold" style="text-anchor:end" y="92" x="290" font-family="Helvetica" fill="#000000">Company Name</text>
 <text id="line4" font-size="9.375px" style="text-anchor:end" y="103" x="290" font-family="Helvetica" fill="#000000">123 Main Street</text>
 <text id="line5" font-size="9.375px" style="text-anchor:end" y="114" x="290" font-family="Helvetica" fill="#000000">Anywhere, USA 12345-6789</text>
 <text id="line6" font-size="9.375px" style="text-anchor:end" y="125" x="290" font-family="Helvetica" fill="#000000">Phone: (800) 123-4567</text>
 <text id="line7" font-size="9.375px" style="text-anchor:end" y="136" x="290" font-family="Helvetica" fill="#000000">FAX: (123) 456-7890</text>
 <text id="line8" font-size="9.375px" style="text-anchor:end" y="147" x="290" font-family="Helvetica" fill="#000000">Cell: (123) 3456 7893</text>
 <text id="line9" font-size="9.375px" style="text-anchor:end" y="158" x="290" font-family="Helvetica" fill="#000000">www.yourwebsite.com</text>
 <g id="g4242" fill="#00f" transform="translate(6.5303 2.6629)">
  <path id="path12072" d="m49.52 137.87c-6.0663-0.76096-9.3823-3.9538-10.145-9.7668-0.17036-1.2997-0.17036-4.0641 0-5.3637 0.87945-6.703 5.1011-9.8996 13.075-9.9004 3.5708-0.00018 6.302 0.63442 8.4513 1.964 0.97777 0.60492 2.3789 2.0399 2.9643 3.0359 1.194 2.0317 1.7093 4.3175 1.7093 7.582 0 2.0008-0.13625 3.2413-0.50872 4.6316-0.55209 2.0608-1.2428 3.3097-2.5715 4.6494-1.6492 1.6629-3.4661 2.5284-6.4 3.0488-1.3782 0.24443-5.0443 0.31067-6.5741 0.11877zm5.6598-0.94788c1.1692-0.18597 2.914-0.69943 3.3748-0.99315 0.08046-0.0513-0.61286-1.5679-2.6169-5.7241l-2.7264-5.6543h-0.80188-0.80188l-2.2271 4.6149c-1.2249 2.5382-2.4541 5.0912-2.7316 5.6733l-0.50445 1.0584 0.70821 0.27996c1.7338 0.68537 3.5918 0.96913 5.9762 0.91261 0.83809-0.0199 1.896-0.0953 2.351-0.16768zm-9.3177-1.3348c-0.000523-0.0359 0.36144-2.4709 0.79252-5.4128l0.79354-5.3475 1.9503-5.488c1.0727-3.0184 1.9503-5.506 1.9503-5.5281 0-0.022-0.35296-0.015-0.78432 0.0156-1.7467 0.12398-3.7426 0.71889-5.0923 1.5178-0.90499 0.5357-2.2236 1.8338-2.7779 2.7346-0.81436 1.3234-1.4163 3.2143-1.6222 5.0956-0.13862 1.2666-0.06814 4.4113 0.12137 5.4153 0.46236 2.4498 1.1981 4.0437 2.5198 5.4585 0.79339 0.84926 2.1533 1.8233 2.1488 1.539zm13.861-0.34278c2.8796-1.932 4.356-5.7418 4.1247-10.643-0.31684-6.7125-3.445-10.209-9.6471-10.786-0.41905-0.0389-0.7619-0.0665-0.7619-0.0613 0 0.005 0.8718 2.4995 1.9638 5.5334l1.9638 5.524 0.7849 5.3115c0.4317 2.9214 0.80065 5.3605 0.81988 5.4204 0.0516 0.16066 0.08878 0.14587 0.75218-0.29924zm-6.7199-13.727c0-0.68658-0.02598-2.7241-0.05768-4.5279l-0.05761-3.2795h-0.4564-0.45639l-0.04926 0.89251c-0.02707 0.49088-0.07133 2.5284-0.09846 4.5279l-0.0492 3.6354h0.61252 0.61252v-1.2484z"/>
  <path id="path12072-8" d="m16.068 154.74c0.0032-0.079 1.4894-2.5983 3.3017-5.5985l3.295-5.4549h1.8092 1.8091l2.4601 4.4022c1.3531 2.4212 2.7611 4.9406 3.1288 5.5985l0.6686 1.1963h-1.6039-1.6039l-2.377-4.3099c-1.4902-2.702-2.4743-4.2908-2.6378-4.2587-0.22699 0.0445-2.6724 4.2131-2.6968 4.597-0.0048 0.079 0.97316 0.14355 2.1737 0.14355h2.1829l0.59247 1.0498c0.32586 0.57739 0.59248 1.0942 0.59248 1.1484s-1.5776 0.0986-3.5057 0.0986h-3.5057l-0.4303 0.76561-0.43029 0.76561h-1.6146c-0.88807 0-1.6116-0.0646-1.6079-0.14355zm18.847-0.12872c-0.7854-0.35202-1.4261-0.99805-1.7437-1.7583-0.32498-0.77782-0.37333-6.2733-0.06236-7.0964 0.11197-0.29636 0.43496-0.78627 0.71776-1.0887 0.95382-1.0201 1.309-1.077 6.7286-1.077h4.9827v1.1484 1.1484h-4.6785c-5.7143 0-5.2744-0.27387-5.2744 3.284 0 1.3382 0.08405 2.6541 0.18666 2.9241l0.18666 0.49097h4.7898 4.7898v1.1484 1.1484l-5.0243-0.008c-3.7823-0.006-5.1662-0.0711-5.5985-0.26486zm14.113-0.22022c-1.472-0.88222-1.5767-1.3066-1.5767-6.3903v-4.4099h1.3398 1.3398v4.2769c0 3.9003 0.03094 4.3048 0.35003 4.5936 0.29701 0.26879 0.84625 0.31677 3.6258 0.31677 3.168 0 3.2856-0.0144 3.5738-0.42539 0.24751-0.35339 0.29795-1.1308 0.29795-4.5936v-4.1682h1.3398 1.3398v4.4148c0 4.6471-0.02728 4.8163-0.93254 5.7944-0.96283 1.0403-1.1915 1.0836-5.7092 1.0817-4.1324-0.002-4.1804-0.006-4.9882-0.49076zm13.735-5.1538v-5.6464l5.7899 0.00038c6.4646 0.0004 6.7027 0.0419 7.5565 1.32 0.37089 0.55518 0.43446 0.90105 0.43446 2.3636 0 1.6687-0.01595 1.7276-0.59264 2.2668l-0.59264 0.55361 0.49694 0.59057c0.45806 0.54427 0.49694 0.73165 0.49694 2.3941v1.8036h-1.2441-1.2441v-1.6035c0-1.0956-0.08007-1.67-0.25297-1.8134-0.15456-0.12824-1.4723-0.23046-3.3862-0.26268l-3.1332-0.0528-0.32652-1.1006-0.3265-1.1006h3.4119c3.977 0 4.0135-0.0144 4.0135-1.6024 0-0.55043-0.10335-1.1041-0.2297-1.2304-0.16355-0.16355-1.3483-0.22968-4.1151-0.22968h-3.8855v4.4979 4.4979h-1.4355-1.4355v-5.6464zm14.797 5.4071c0.05519-0.13159 1.556-2.6509 3.3353-5.5985l3.2352-5.3592h1.8052 1.8052l2.7339 4.8807c1.5036 2.6844 2.905 5.2037 3.1141 5.5985l0.38033 0.71776h-1.5961-1.5961l-2.3774-4.3118c-1.4729-2.6712-2.475-4.2916-2.634-4.2587-0.20689 0.0427-2.7139 4.3431-2.7139 4.6552 0 0.048 0.98229 0.0872 2.1829 0.0872h2.1829l0.59247 1.0498c0.32588 0.57739 0.59248 1.0942 0.59248 1.1484s-1.5719 0.0993-3.4931 0.10018l-3.4931 0.001-0.43636 0.76414-0.43638 0.76414h-1.6416c-1.2392 0-1.6172-0.0587-1.5415-0.23925z"/>
 </g>
</svg>
