<?xml version="1.0" encoding="UTF-8" standalone="no"?>
<!-- Created with Inkscape (http://www.inkscape.org/) -->
<svg id="svg2" xmlns:rdf="http://www.w3.org/1999/02/22-rdf-syntax-ns#" xmlns="http://www.w3.org/2000/svg" viewBox="0 0 315 180" height="100%" width="100%" version="1.1" xmlns:cc="http://creativecommons.org/ns#" xmlns:dc="http://purl.org/dc/elements/1.1/">
 <metadata id="metadata8">
  <rdf:RDF>
   <cc:Work rdf:about="">
    <dc:format>image/svg+xml</dc:format>
    <dc:type rdf:resource="http://purl.org/dc/dcmitype/StillImage"/>
    <dc:title/>
   </cc:Work>
  </rdf:RDF>
 </metadata>
 <text id="line1" y="87" x="158" font-size="12.5px" style="text-anchor:middle">John Smith</text>
 <text id="line2" y="98" x="158" font-size="9.375px" style="text-anchor:middle">Owner</text>
 <text id="line3" y="136" x="75" font-size="11px" font-weight="bold" style="text-anchor:middle">Company Name</text>
 <text id="line4" y="147" x="75" font-size="9.375px" style="text-anchor:middle">123 Main Street</text>
 <text id="line5" y="158" x="75" font-size="9.375px" style="text-anchor:middle">Anywhere, USA 65421</text>
 <text id="line6" y="125" x="294" font-size="9.375px" style="text-anchor:end">Phone: (800) 123-4567</text>
 <text id="line7" y="136" x="294" font-size="9.375px" style="text-anchor:end">FAX: (123) 456-7890</text>
 <text id="line8" y="147" x="294" font-size="9.375px" style="text-anchor:end">Cell: (123) 345-7893</text>
 <text id="line9" y="158" x="294" font-size="9.375px" style="text-anchor:end">www.yourwebsite.com</text>
 <g id="g4242" fill="#00f" transform="matrix(.88123 0 0 .88123 108.19 -62.987)">
  <path id="path12072" d="m-26.735 125.94c-6.809-0.84913-10.531-4.4119-11.387-10.898-0.19122-1.4503-0.19122-4.535 0-5.9851 0.98712-7.4796 5.7256-11.047 14.676-11.047 4.008-0.000201 7.0735 0.70792 9.486 2.1915 1.0975 0.67501 2.6701 2.2762 3.3272 3.3876 1.3402 2.2671 1.9186 4.8177 1.9186 8.4604 0 2.2326-0.15293 3.6168-0.571 5.1682-0.61968 2.2996-1.395 3.6931-2.8863 5.188-1.8511 1.8556-3.8904 2.8213-7.1835 3.402-1.5469 0.27274-5.6619 0.34666-7.3789 0.13252zm6.3527-1.0577c1.3123-0.20752 3.2708-0.78046 3.788-1.1082 0.09031-0.0572-0.68789-1.7496-2.9373-6.3873l-3.0602-6.3094h-0.90005-0.90005l-2.4998 5.1496c-1.3749 2.8323-2.7545 5.681-3.066 6.3306l-0.56621 1.181 0.79491 0.31239c1.9461 0.76478 4.0315 1.0814 6.7078 1.0184 0.9407-0.0221 2.1281-0.10633 2.6388-0.18712zm-10.458-1.4894c-0.000587-0.0401 0.40569-2.7572 0.88955-6.0399l0.89069-5.967 2.1891-6.1238c1.204-3.3681 2.1891-6.1439 2.1891-6.1686 0-0.02454-0.39617-0.01668-0.88034 0.01745-1.9605 0.13833-4.2008 0.80217-5.7157 1.6936-1.0158 0.59776-2.4958 2.0462-3.118 3.0514-0.91406 1.4767-1.5897 3.5867-1.8208 5.686-0.15559 1.4133-0.07649 4.9224 0.13623 6.0427 0.51896 2.7336 1.3448 4.5122 2.8283 6.0909 0.89052 0.94765 2.4169 2.0345 2.4119 1.7173zm15.558-0.38249c3.2321-2.1558 4.8893-6.407 4.6297-11.876-0.35563-7.4902-3.8668-11.392-10.828-12.036-0.47035-0.04333-0.85518-0.0742-0.85518-0.06844 0 0.0048 0.97853 2.7891 2.2042 6.1745l2.2042 6.164 0.88099 5.9269c0.48455 3.2599 0.89867 5.9815 0.92026 6.0484 0.05792 0.17927 0.09965 0.16276 0.84427-0.33391zm-7.5426-15.317c0-0.76613-0.02916-3.0397-0.06474-5.0525l-0.06467-3.6594h-0.51228-0.51226l-0.05529 0.99592c-0.03039 0.54775-0.08006 2.8213-0.11052 5.0525l-0.05522 4.0566h0.68751 0.68751v-1.393z"/>
  <path id="path12072-8" d="m-7.4791 124.37c0.00642-0.17691 3.014-5.8224 6.6815-12.545l6.6679-12.224h3.6612 3.661l4.9784 9.8648c2.7382 5.4256 5.5875 11.071 6.3316 12.545l1.353 2.6808h-3.2457-3.2457l-4.8102-9.6579c-3.0156-6.0548-5.0071-9.6151-5.338-9.5432-0.45935 0.0999-5.408 9.441-5.4574 10.301-0.00963 0.17693 1.9693 0.32169 4.3988 0.32169h4.4174l1.199 2.3524c0.65942 1.2939 1.199 2.452 1.199 2.5734 0 0.12146-3.1925 0.22095-7.0943 0.22095h-7.0943l-0.87078 1.7156-0.87075 1.7156h-3.2674c-1.7971 0-3.2613-0.14491-3.2538-0.32167zm38.14-0.29c-1.5894-0.78884-2.8859-2.2365-3.5286-3.9401-0.65765-1.743-0.75549-14.058-0.12619-15.902 0.22658-0.6641 0.8802-1.7619 1.4525-2.4396 1.9302-2.2859 2.649-2.4134 13.616-2.4134h10.083v2.5734 2.5734h-9.4676c-11.564 0-10.674-0.6137-10.674 7.359 0 2.9987 0.17009 5.9475 0.37773 6.5525l0.37774 1.1002h9.6929 9.6929v2.5734 2.5734l-10.167-0.0188c-7.654-0.0121-10.455-0.15941-11.329-0.59351zm28.56-0.49351c-2.9788-1.9769-3.1907-2.9279-3.1907-14.32v-9.882h2.7113 2.7113v9.584c0 8.74 0.06261 9.6465 0.70834 10.294 0.60104 0.6023 1.7125 0.70982 7.3373 0.70982 6.4109 0 6.6489-0.0324 7.2321-0.95325 0.50087-0.7919 0.60294-2.534 0.60294-10.294v-9.3404h2.7113 2.7113v9.893c0 10.414-0.05521 10.793-1.8871 12.984-1.9484 2.3312-2.4112 2.4282-11.553 2.4239-8.3625-0.004-8.4597-0.0121-10.094-1.0997zm27.795-11.549v-12.653l11.717 0.000863c13.082 0.000897 13.564 0.09385 15.292 2.9579 0.75056 1.2441 0.8792 2.0191 0.8792 5.2965 0 3.7393-0.0323 3.8713-1.1993 5.0796l-1.1993 1.2406 1.0056 1.3234c0.92695 1.2196 1.0056 1.6395 1.0056 5.3649v4.0416h-2.5176-2.5176v-3.5932c0-2.4551-0.16201-3.7423-0.51192-4.0636-0.31277-0.28738-2.9794-0.51646-6.8525-0.58866l-6.3405-0.11835-0.66076-2.4663-0.66072-2.4663h6.9045c8.048 0 8.1219-0.0324 8.1219-3.5908 0-1.2334-0.20914-2.4741-0.46483-2.7571-0.33096-0.36651-2.7285-0.51469-8.3275-0.51469h-7.8629v10.079 10.079h-2.9049-2.9049v-12.653zm29.944 12.117c0.11168-0.29488 3.1488-5.9403 6.7495-12.546l6.5469-12.009h3.6531 3.6531l5.5324 10.937c3.0428 6.0154 5.8787 11.661 6.3018 12.546l0.76965 1.6084h-3.2299-3.2299l-4.811-9.6622c-2.9806-5.9858-5.0085-9.6169-5.3303-9.5432-0.41868 0.0956-5.492 9.7323-5.492 10.432 0 0.10766 1.9878 0.1954 4.4174 0.1954h4.4174l1.199 2.3525c0.65946 1.2938 1.199 2.452 1.199 2.5734 0 0.12147-3.181 0.22251-7.0688 0.22449l-7.0688 0.002-0.88304 1.7124-0.88308 1.7123h-3.322c-2.5077 0-3.2726-0.13164-3.1194-0.53613z"/>
 </g>
</svg>
