<?xml version="1.0" encoding="UTF-8" standalone="no"?>
<!-- Created with Inkscape (http://www.inkscape.org/) -->
<svg id="svg2" xmlns:rdf="http://www.w3.org/1999/02/22-rdf-syntax-ns#" xmlns="http://www.w3.org/2000/svg" viewBox="0 0 315 180" height="100%" width="100%" version="1.1" xmlns:cc="http://creativecommons.org/ns#" xmlns:dc="http://purl.org/dc/elements/1.1/">
 <metadata id="metadata8">
  <rdf:RDF>
   <cc:Work rdf:about="">
    <dc:format>image/svg+xml</dc:format>
    <dc:type rdf:resource="http://purl.org/dc/dcmitype/StillImage"/>
    <dc:title/>
   </cc:Work>
  </rdf:RDF>
 </metadata>
 <text id="line1" y="87" x="158" font-size="12.5px" style="text-anchor:middle" font-family="Helvetica" fill="#000000">John Smith</text>
 <text id="line2" y="98" x="158" font-size="9.375px" style="text-anchor:middle" font-family="Helvetica" fill="#000000">Owner</text>
 <text id="line3" y="125" x="75" font-size="11px" font-weight="bold" style="text-anchor:middle" font-family="Helvetica" fill="#000000">Company Name</text>
 <text id="line4" y="136" x="75" font-size="9.375px" style="text-anchor:middle" font-family="Helvetica" fill="#000000">123 Main Street</text>
 <text id="line5" y="147" x="75" font-size="9.375px" style="text-anchor:middle" font-family="Helvetica" fill="#000000">Anywhere, USA 65421</text>
 <text id="line6" y="158" x="75" font-size="9.375px" style="text-anchor:middle" font-family="Helvetica" fill="#000000">www.yourwebsite.com</text>
 <text id="line7" y="114" x="294" font-size="9.375px" style="text-anchor:end" font-family="Helvetica" fill="#000000">Phone: (800) 123-4567</text>
 <text id="line8" y="125" x="294" font-size="9.375px" style="text-anchor:end" font-family="Helvetica" fill="#000000">FAX: (123) 456-7890</text>
 <text id="line9" y="136" x="294" font-size="9.375px" style="text-anchor:end" font-family="Helvetica" fill="#000000">Toll Free: (123) 345-7893</text>
 <text id="line10" y="147" x="294" font-size="9.375px" style="text-anchor:end" font-family="Helvetica" fill="#000000">Cell: (123) 345-7893</text>
 <text id="line11" y="158" x="294" font-size="9.375px" style="text-anchor:end" font-family="Helvetica" fill="#000000">email@yourdomain.com</text>
 <g id="g4242" transform="matrix(.88123 0 0 .88123 109.02 -70.987)" fill="#00f">
  <path id="path12072" d="m51.633 135.98c-7.1031-0.88581-10.986-4.6025-11.879-11.369-0.19948-1.5129-0.19948-4.7309 0-6.2437 1.0298-7.8027 5.973-11.524 15.31-11.525 4.1811-0.00021 7.3791 0.7385 9.8957 2.2862 1.1449 0.70417 2.7855 2.3746 3.4709 3.534 1.3981 2.365 2.0014 5.0258 2.0014 8.8259 0 2.3291-0.15954 3.7731-0.59567 5.3915-0.64645 2.3989-1.4552 3.8527-3.011 5.4122-1.9311 1.9357-4.0585 2.9432-7.4938 3.549-1.6138 0.28453-5.9064 0.36164-7.6977 0.13825zm6.6271-1.1034c1.369-0.21649 3.412-0.81418 3.9516-1.1561 0.09421-0.0597-0.71761-1.8251-3.0642-6.6632l-3.1924-6.582h-1.8779l-2.6077 5.372c-1.4343 2.9546-2.8735 5.9265-3.1985 6.6041l-0.59067 1.232 0.82925 0.32589c2.0301 0.79781 4.2057 1.1281 6.9976 1.0623 0.98133-0.0231 2.2201-0.11093 2.7528-0.1952zm-10.91-1.56c-0.000612-0.0418 0.42322-2.8763 0.92797-6.3008l0.92917-6.2248 2.2836-6.3884c1.256-3.5136 2.2836-6.4093 2.2836-6.435 0-0.0256-0.41329-0.0174-0.91837 0.0182-2.0452 0.14431-4.3823 0.83682-5.9626 1.7668-1.0597 0.62358-2.6036 2.1346-3.2527 3.1832-0.95354 1.5405-1.6584 3.7416-1.8995 5.9316-0.16231 1.4744-0.07979 5.135 0.14211 6.3037 0.54138 2.8517 1.4029 4.7071 2.9505 6.354 0.92899 0.98859 2.5213 2.1224 2.5161 1.7915zm16.23-0.39902c3.3718-2.249 5.1005-6.6838 4.8297-12.389-0.37099-7.8138-4.0338-11.884-11.296-12.556-0.49067-0.0452-0.89212-0.0774-0.89212-0.0714 0 0.005 1.0208 2.9096 2.2994 6.4412l2.2994 6.4303 0.91905 6.1829c0.50548 3.4007 0.93749 6.2399 0.96001 6.3097 0.06042 0.18702 0.10395 0.1698 0.88074-0.34833zm-7.8684-15.979c0-0.79922-0.03042-3.171-0.06754-5.2708l-0.06746-3.8175h-1.0688l-0.05768 1.0389c-0.0317 0.57141-0.08352 2.9432-0.11529 5.2708l-0.05761 4.2318h1.4344v-1.4532z"/>
  <path id="path12072-8" d="m10.818 157.7c0.0036-0.10254 1.6901-3.3748 3.7467-7.2716l3.7391-7.0851h4.1059l2.7917 5.7178c1.5355 3.1448 3.1332 6.4171 3.5505 7.2716l0.75871 1.5538h-3.6402l-2.6974-5.5979c-1.691-3.5095-2.8078-5.5731-2.9933-5.5314-0.25759 0.0579-3.0326 5.4722-3.0603 5.9708-0.0054 0.10255 1.1043 0.18646 2.4667 0.18646h2.4771l0.67232 1.3635c0.36978 0.74995 0.67233 1.4212 0.67233 1.4916s-1.7902 0.12807-3.9782 0.12807h-3.9782l-0.4883 0.99441-0.48828 0.99442h-1.8322c-1.0078 0-1.8288-0.084-1.8246-0.18645zm21.387-0.16717c-0.89126-0.45723-1.6183-1.2963-1.9787-2.2838-0.36878-1.0103-0.42365-8.1481-0.07076-9.2172 0.12706-0.38492 0.49358-1.0212 0.8145-1.414 1.0824-1.325 1.4854-1.3989 7.6355-1.3989h5.6543v2.9832h-5.3091c-6.4845 0-5.9853-0.35571-5.9853 4.2654 0 1.7381 0.09538 3.4473 0.21182 3.798l0.21182 0.63768h10.871v2.9832l-5.7015-0.0109c-4.2921-0.007-5.8625-0.0924-6.3531-0.34401zm16.015-0.28605c-1.6704-1.1459-1.7892-1.6971-1.7892-8.3v-5.7278h3.0408v5.555c0 5.0659 0.03511 5.5913 0.39721 5.9664 0.33704 0.34911 0.96031 0.41143 4.1145 0.41143 3.595 0 3.7284-0.0188 4.0555-0.55252 0.28087-0.459 0.33811-1.4687 0.33811-5.9664v-5.4139h3.0408v5.7342c0 6.0359-0.03096 6.2556-1.0582 7.526-1.0926 1.3512-1.3521 1.4074-6.4787 1.405-4.6894-0.002-4.7438-0.007-5.6605-0.63741zm15.586-6.694v-7.3338l6.5703 0.0005c7.3359 0.00052 7.6061 0.0544 8.575 1.7145 0.42088 0.7211 0.49302 1.1703 0.49302 3.07 0 2.1674-0.0181 2.2439-0.67252 2.9442l-0.67252 0.71905 0.56392 0.76706c0.5198 0.70692 0.56392 0.95031 0.56392 3.1096v2.3426h-2.8236v-2.0827c0-1.423-0.09085-2.1691-0.28706-2.3553-0.17539-0.16657-1.6707-0.29935-3.8426-0.3412l-3.5555-0.0686-0.37053-1.4295-0.3705-1.4295h3.8718c4.513 0 4.5544-0.0188 4.5544-2.0813 0-0.71492-0.11728-1.434-0.26066-1.5981-0.18559-0.21243-1.53-0.29832-4.6697-0.29832h-4.4092v11.684h-3.258v-7.3338zm16.791 7.023c0.06263-0.17092 1.7657-3.4431 3.7848-7.2716l3.6712-6.9608h4.097l3.1024 6.3393c1.7063 3.4866 3.2965 6.7588 3.5338 7.2716l0.43159 0.93227h-3.6224l-2.6978-5.6004c-1.6714-3.4695-2.8086-5.5741-2.989-5.5314-0.23478 0.0554-3.0797 5.641-3.0797 6.0464 0 0.0624 1.1147 0.11326 2.4771 0.11326h2.4771l0.67232 1.3635c0.3698 0.74994 0.67233 1.4212 0.67233 1.4916s-1.7838 0.12897-3.9639 0.13012l-3.9639 0.001-0.49517 0.99251-0.4952 0.9925h-1.8629c-1.4062 0-1.8352-0.0763-1.7493-0.31075z"/>
 </g>
</svg>
