<svg id="preview"><desc>Created with Snap</desc><defs></defs><!--?xml version="1.0" encoding="UTF-8" standalone="no"?-->

<!-- Created with Inkscape (http://www.inkscape.org/) -->

<svg id="svg3119" xmlns:rdf="http://www.w3.org/1999/02/22-rdf-syntax-ns#" xmlns="http://www.w3.org/2000/svg" viewBox="0 0 315 180" height="100%" width="100%" version="1.1" xmlns:cc="http://creativecommons.org/ns#" xmlns:dc="http://purl.org/dc/elements/1.1/">

 <metadata id="metadata3123">

  <rdf:rdf>

   <cc:work rdf:about="">

    <dc:format>image/svg+xml</dc:format>

    <dc:type rdf:resource="http://purl.org/dc/dcmitype/StillImage"></dc:type>

    <dc:title></dc:title>

   </cc:work>

  </rdf:rdf>

 </metadata>

 <text id="companyName" style="text-anchor:middle;" font-size="18px" y="96.446289" x="157.54395" font-family="MyriadPro-Regular" fill="#000000" class="primaryColor">COMPANY NAME</text>

 <text id="name" style="text-anchor:start;" font-size="12px" y="31.547852" x="22.777929" font-family="MyriadPro-Regular" class="primaryColor">NAME</text>

 <text id="title" style="text-anchor:start;" font-size="10px" y="40.213867" x="22.787695" font-family="MyriadPro-Regular" class="secondaryColor">Title</text>

 <text id="address" style="text-anchor:start;" font-size="10px" y="147.26953" x="22.777929" font-family="MyriadPro-Regular" class="secondaryColor">Street Address</text>

 <text id="cityStateZip" style="text-anchor:start;" font-size="10px" y="156.93652" x="22.777929" font-family="MyriadPro-Regular" class="secondaryColor">City, State, Zip</text>

 <text id="line1" style="text-anchor:end;" font-size="10px" y="122.26953" x="292.84708" font-family="MyriadPro-Regular" class="secondaryColor">Phone:</text>

 <text id="line2" style="text-anchor:end;" font-size="10px" y="133.27148" x="292.84708" font-family="MyriadPro-Regular" class="secondaryColor">Toll Free:</text>

 <text id="line3" style="text-anchor:end;" font-size="10px" y="145.26953" x="292.84708" font-family="MyriadPro-Regular" class="secondaryColor">Fax:</text>

 <text id="line4" style="text-anchor:end;" font-size="10px" y="156.93652" x="292.84708" font-family="MyriadPro-Regular" class="secondaryColor">Mobile:</text>

 <rect id="logo" height="51.619" width="90" y="23.198" x="202.08" fill="#FFF"></rect>

<desc>Created with Snap</desc><defs></defs></svg>

<!--?xml version="1.0" encoding="UTF-8" standalone="no"?-->

<!-- Created with Inkscape (http://www.inkscape.org/) -->



<!--?xml version="1.0" encoding="UTF-8" standalone="no"?-->

<!-- Created with Inkscape (http://www.inkscape.org/) -->



<!--?xml version="1.0" encoding="UTF-8" standalone="no"?-->

<!-- Created with Inkscape (http://www.inkscape.org/) -->



<!--?xml version="1.0" encoding="UTF-8" standalone="no"?-->

<!-- Created with Inkscape (http://www.inkscape.org/) -->



<!--?xml version="1.0" encoding="UTF-8" standalone="no"?-->

<!-- Created with Inkscape (http://www.inkscape.org/) -->

<svg id="svg18552" xmlns:rdf="http://www.w3.org/1999/02/22-rdf-syntax-ns#" xmlns="http://www.w3.org/2000/svg" height="37.023" width="90" version="1.1" xmlns:cc="http://creativecommons.org/ns#" xmlns:dc="http://purl.org/dc/elements/1.1/" x="202.08" y="23.198">

 <metadata id="metadata18557">

  <rdf:rdf>

   <cc:work rdf:about="">

    <dc:format>image/svg+xml</dc:format>

    <dc:type rdf:resource="http://purl.org/dc/dcmitype/StillImage"></dc:type>

    <dc:title></dc:title>

   </cc:work>

  </rdf:rdf>

 </metadata>

 <g id="layer1" transform="translate(230.05091,-9.570711)">

  <g id="logo8" transform="matrix(0.16980913,0,0,0.16980913,-230.05043,9.5685602)">

   <path id="path77666" d="m502.44,168.48-1.428,5.784s10.813,0.335,14.428,4.61c3.614,4.275-0.206,6.654-14.527,12.04-20.47,7.696-55.583,20.343-75.234,23.065s-26.876,7.494-101.58,0.186c0,0-19.679,4.896-32.154,3.167-11.607-1.608-19.98-13.524-21.177-15.226,0,0-148.42-33.321-163.77-35.045s-17.846-1.801-21.186-1.488-15.895,2.422-22.511,0.968-20.448-11.874-19.714-35.581c-2.028-1.728-4.195-12.411-3.04-16.122-1.996-2.768-3.044-9.253-0.679-11.678s1.025-6.213,3.598-8.631,3.469-4.472,13.867-4.15,20.656,11.88,21.535,17.111,1.329,10.865,3.975,12.821c2.646,1.955,2.373,4.028,4.596,6.179,1.346,3.58,9.291,15.899,13.152,18.933l160.46,34.525-0.034-5.621c-2.613-2.995-4.292-9.292-3.936-14.068-1.215-1.078-2.412-2.78-1.691-5.88-1.189-1.91-0.846-6.271,2.987-9.066,1.844-5.771,5.474-15.442,23.358-14.889,17.884,0.554,36.765,9.256,42.287,25.872-0.759,4.348,0.692,11.262,3.136,13.002-0.083,2.704,0.476,4.803,1.906,5.68l4.931,15.556c1.717,5.049,22.208,8.805,45.103,8.89s96.565-12.83,120.08-26.256c2.137-1.809,3.267-4.688,3.267-4.688z"></path>

   <path id="path77668" d="m433.2,132.2c-3.997,1.333-6.108,2.309-6.158,10.633-0.05,8.325-0.568,11.639,6.736,11.033s22.393-3.886,32.894-6.892,20.585-6.024,22.521-8.045,5.054-8.586,5.195-13.161c0.142-4.575,0.206-6.654-6.267-6.022-6.472,0.632-16.317,2.617-28.696,5.772-12.378,3.156-26.225,6.682-26.225,6.682z"></path>

   <path id="path77670" d="m489.38,161.09-1.121,7.986-26.908,8.534,1.4-11.613,26.977-7.387-0.348,2.48,7.911-2.046,0.309-3.009s17.565-5.484,22.841-7.818,8.561-4.21,8.605-5.666l0.116-3.744c0.055-1.768-3.13-3.115-3.13-3.115s1.408,1.604-0.805,2.473c-2.213,0.868-11.583,4.325-13.798,5.297s-2.969,1.781-4.074,3.829c-1.104,2.047-3.591,3.849-9.438,5.64,0.317-3.529,0.551-4.354-2.354-4.652s-4.354-0.551-5.861,1.068-3.021,3.445-1.584,4.114c1.436,0.669,2.047,1.104,1.801,2.346l-26.876,7.494c0.135-4.367,0.148-4.783-3.797-5.113-3.944-0.331-3.724-0.74-6.069,1.061s-3.254,4.271-1.604,4.738c0,0,2.086-0.144,1.833,1.306l-8.188,2.245c-4.607,0.898-8.533-0.056-10.542-2.408,0,0-7.708,0.178-14.414,1.635-6.706,1.458-18.006,3.397-29.866,3.239-11.86-0.159-60.315-8.32-65.06-9.716,0.54,2.723,0.847,6.271,3.492,8.226,0,0,43.655,8.58,61.336,8.977,24.337,0.545,63.144-9.078,63.144-9.078l-0.496,5.917-1.368,0.478-1.012,5.797c-13.822,2.694-27.083,7.488-30.476,9.464-3.392,1.977,14.615-1.421,44.006-9.462s35.771-12.422,37.882-13.398c2.112-0.976-1.43-0.877-3.327-0.103l-2.092,0.352,0.863-8.412-7.908,2.044z"></path>

   <path id="path77672" d="m314.43,15.179c21.241,13.147,43.432,29.238,66.878,51.82,0,0-4.009,1.75-11.521,2.35s-33.739,7.282-67.88,14.134c-34.142,6.853-44.422,9.449-63.554,8.856s-24.253-3.248-24.253-3.248-2.056-7.557-7.424-8.973c-5.368-1.415-18.06-1.6-20.326,4.367,0,0-17.813-2.841-36.842-6.761s-66.966-15.396-70.047-16.74-0.319-3.132,0.98-4.757,14.083-17.882,21.354-24.109c7.27-6.228,15.788-12.417,35.543-11.805,19.756,0.611,47.272,6.043,58.016,8.665,10.743,2.623,24.688,2.638,40.382,0.001,15.693-2.636,78.207-11.525,78.694-13.8z"></path>

   <path id="path77674" fill="#FFF" d="m287.32,23.499,2.379,3.821c3.132-0.32,3.705,1.363,2.517,6.114,0,0,4.474,10.13,6.731,17.901l49.528,7.154c-10.93-16.783-35.4-40.229-35.4-40.229-4.85,2.14-25.76,5.239-25.76,5.239z"></path>

   <path id="path77676" fill="#FFF" d="m354.7,59.098,13.238,2.7c-8.38-11.708-37.56-30.721-37.56-30.721s18.943,20.153,24.32,28.021z"></path>

   <path id="path77678" fill="#FFF" d="m274.97,25.615s-29.924,5.11-39.535,6.27l2.849,8.831,8.891,1.94c5.263-1.918,17.194-4.047,19.865-2.923s5.141,2.033,5.402,7.036l11.185,1.804s-2.426-9.026-4-11.989l-8.798,1.809c-2.307,0.553-3.1-0.721-3.01-3.632,0.09-2.912,1.149-3.503,3.242-3.854l5.673-1.698-1.764-3.594z"></path>

   <path id="path77680" fill="#FFF" d="m229.58,32.952,2.491,6.946s-12.263-0.588-12.998-3.733,10.507-3.213,10.507-3.213z"></path>

   <polygon id="polygon77682" points="109.71,31.947,115.69,27.136,113.67,31.653" fill="#FFF"></polygon>

   <path id="path77684" fill="#FFF" d="m123.06,24.45-3.521,6.135s24.895-4.017,41.531-3.501l0.266-1.865c0.001,0-29.66-3.416-38.276-0.769z"></path>

   <path id="path77686" d="m44.421,130.46c-1.702,1.196-4.374,0.073-9.306-1.954-4.933-2.03-22.429-8.4-25.225-12.23-2.795-3.83-7.801-10.23-8.517-14-0.716-3.769-1.185-8.78,0.738-10.385s11.781-4.006,11.781-4.006c-2.804-10.287-3.567-19.261-1.749-24.2s0.056-8.533,12.493-13.56,48.437-11.406,54.727-12.876c0,0,12.688-13.137,22.213-18.254s18.609-9.416,54.545-13.715c35.936-4.3,57.83-6.268,89.796-2.632,40.24,4.576,57.145,5.784,68.102,12.308,16.964,10.101,52.609,35.35,66.274,51.177,9.189-0.965,95.254,16.063,127.6,40.169,7.348,5.476,3.237,23.206,3.237,23.206,7.844,2.116,14.85,4.415,15.806,7.15,2.947,1.727,2.296,2.739,2.163,7.072-0.134,4.332-1.481,7.801-2.57,9.625-1.089,1.825-0.94,3.688-4.298,5.442-3.519,1.838-19.801,9.678-19.801,9.678" stroke="#000" stroke-width="1.5" fill="none"></path>

   <g id="g77688">

    <ellipse id="ellipse77690" d="m 318.06099,175.17999 c 0,10.03336 -11.21124,18.167 -25.041,18.167 -13.82976,0 -25.041,-8.13364 -25.041,-18.167 0,-10.03335 11.21124,-18.167 25.041,-18.167 13.82976,0 25.041,8.13365 25.041,18.167 z" ry="18.167" cx="293.02" rx="25.041" cy="175.18" transform="matrix(0.0853,0.9964,-0.9964,0.0853,442.5506,-131.725)" fill="#FFF"></ellipse>

    <path id="path77692" fill="#FFF" d="M293.02,175.18"></path>

    <path id="path77694" d="M293.02,175.18" stroke="#000" stroke-width="0.5" fill="none"></path>

    <ellipse id="ellipse77696" d="m 316.37799,175.17999 c 0,9.35902 -10.45773,16.946 -23.358,16.946 -12.90027,0 -23.358,-7.58698 -23.358,-16.946 0,-9.35901 10.45773,-16.946 23.358,-16.946 12.90027,0 23.358,7.58699 23.358,16.946 z" ry="16.946" cx="293.02" rx="23.358" cy="175.18" transform="matrix(0.0853,0.9964,-0.9964,0.0853,442.5498,-131.7255)" stroke="#000" stroke-width="0.5" fill="none"></ellipse>

    <path id="path77698" d="m294.93,197.43c0.961-0.083,2.144-0.548,2.144-0.548l-0.85-4.493s-1.245,0.261-1.7,0.299c-0.455,0.039-1.727-0.006-1.727-0.006l-0.074,4.572s1.245,0.258,2.207,0.176z"></path>

    <line id="line77700" stroke-width="0.5" y2="190.48" y1="197.26" stroke="#000" x2="292.81" x1="292.72" fill="none"></line>

    <line id="line77702" stroke-width="0.5" y2="196.88" y1="190.16" stroke="#000" x2="297.07" x1="295.83" fill="none"></line>

    <path id="path77704" d="m301.74,194.63c0.817-0.648,1.707-1.785,1.707-1.785l-2.168-3.65s-1.009,0.982-1.396,1.29-1.516,1.023-1.516,1.023l1.383,4.274c-0.001,0,1.173-0.503,1.99-1.152z"></path>

    <line id="line77706" stroke-width="0.5" y2="189.46" y1="195.78" stroke="#000" x2="297.68" x1="299.75" fill="none"></line>

    <line id="line77708" stroke-width="0.5" y2="192.85" y1="187.36" stroke="#000" x2="303.45" x1="300.23" fill="none"></line>

    <path id="path77710" d="m306.83,187.98c0.511-1.086,0.932-2.667,0.932-2.667l-3.058-2.085s-0.574,1.51-0.816,2.025-1.005,1.85-1.005,1.85l2.566,3.13c-0.001-0.001,0.869-1.166,1.381-2.253z"></path>

    <line id="line77712" stroke-width="0.5" y2="185.61" y1="190.23" stroke="#000" x2="301.63" x1="305.45" fill="none"></line>

    <line id="line77714" stroke-width="0.5" y2="185.31" y1="182.15" stroke="#000" x2="307.76" x1="303.2" fill="none"></line>

    <path id="path77716" d="m309.19,178.8c0.104-1.31-0.027-3.023-0.027-3.023l-3.342-0.108s-0.025,1.739-0.074,2.36-0.296,2.31-0.296,2.31l3.242,1.367c-0.001,0,0.393-1.596,0.497-2.906z"></path>

    <line id="line77718" stroke-width="0.5" y2="179.7" y1="181.7" stroke="#000" x2="303.88" x1="308.69" fill="none"></line>

    <line id="line77720" stroke-width="0.5" y2="175.77" y1="175.57" stroke="#000" x2="309.16" x1="304.16" fill="none"></line>

    <path id="path77722" d="m308.34,168.9c-0.324-1.274-0.982-2.781-0.982-2.781l-2.965,1.891s0.528,1.624,0.682,2.227c0.153,0.604,0.472,2.313,0.472,2.313l3.276-0.667c0,0.002-0.16-1.709-0.483-2.983z"></path>

    <line id="line77724" stroke-width="0.5" y2="172.89" y1="171.88" stroke="#000" x2="303.98" x1="308.83" fill="none"></line>

    <line id="line77726" stroke-width="0.5" y2="166.12" y1="168.9" stroke="#000" x2="307.36" x1="302.91" fill="none"></line>

    <path id="path77728" d="m304.47,160.24c-0.688-0.985-1.742-1.988-1.742-1.988l-2.001,3.516s0.978,1.188,1.304,1.654c0.325,0.467,1.146,1.859,1.146,1.859l2.662-2.568c0,0.001-0.682-1.487-1.369-2.473z"></path>

    <line id="line77730" stroke-width="0.5" y2="166.54" y1="162.71" stroke="#000" x2="301.91" x1="305.84" fill="none"></line>

    <line id="line77732" stroke-width="0.5" y2="158.25" y1="163.48" stroke="#000" x2="302.73" x1="299.71" fill="none"></line>

    <path id="path77734" d="m298.33,154.54c-0.915-0.502-2.156-0.802-2.156-0.802l-0.642,4.445s1.233,0.516,1.667,0.754,1.594,1.038,1.594,1.038l1.521-3.962c0-0.001-1.069-0.971-1.984-1.473z"></path>

    <line id="line77736" stroke-width="0.5" y2="161.89" y1="156.01" stroke="#000" x2="298.08" x1="300.32" fill="none"></line>

    <line id="line77738" stroke-width="0.5" y2="153.73" y1="160.37" stroke="#000" x2="296.18" x1="295.18" fill="none"></line>

    <path id="path77740" d="m291.14,152.92c-0.961,0.08-2.146,0.543-2.146,0.543l0.845,4.494s1.246-0.257,1.701-0.295c0.456-0.038,1.727,0.01,1.727,0.01l0.08-4.571c-0.001-0.001-1.246-0.262-2.207-0.181z"></path>

    <line id="line77742" stroke-width="0.5" y2="159.87" y1="153.1" stroke="#000" x2="293.25" x1="293.35" fill="none"></line>

    <line id="line77744" stroke-width="0.5" y2="153.46" y1="160.19" stroke="#000" x2="289" x1="290.23" fill="none"></line>

    <path id="path77746" d="m284.32,155.7c-0.818,0.646-1.709,1.78-1.709,1.78l2.164,3.655s1.011-0.98,1.398-1.286c0.387-0.307,1.518-1.019,1.518-1.019l-1.378-4.277c-0.001,0-1.175,0.5-1.993,1.147z"></path>

    <line id="line77748" stroke-width="0.5" y2="160.88" y1="154.55" stroke="#000" x2="288.38" x1="286.32" fill="none"></line>

    <line id="line77750" stroke-width="0.5" y2="157.48" y1="162.98" stroke="#000" x2="282.61" x1="285.83" fill="none"></line>

    <path id="path77752" d="m279.23,162.34c-0.513,1.085-0.936,2.665-0.936,2.665l3.055,2.092s0.576-1.509,0.819-2.023,1.008-1.846,1.008-1.846l-2.563-3.136s-0.871,1.162-1.383,2.248z"></path>

    <line id="line77754" stroke-width="0.5" y2="164.72" y1="160.09" stroke="#000" x2="284.42" x1="280.61" fill="none"></line>

    <line id="line77756" stroke-width="0.5" y2="165" y1="168.17" stroke="#000" x2="278.29" x1="282.85" fill="none"></line>

    <path id="path77758" d="m276.86,171.52c-0.105,1.309,0.024,3.022,0.024,3.022l3.342,0.116s0.027-1.739,0.077-2.359,0.299-2.309,0.299-2.309l-3.24-1.375c0.001,0.001-0.396,1.596-0.502,2.905z"></path>

    <line id="line77760" stroke-width="0.5" y2="170.62" y1="168.61" stroke="#000" x2="282.17" x1="277.36" fill="none"></line>

    <line id="line77762" stroke-width="0.5" y2="174.54" y1="174.76" stroke="#000" x2="276.88" x1="281.88" fill="none"></line>

    <path id="path77764" d="m277.69,181.42c0.322,1.274,0.978,2.783,0.978,2.783l2.968-1.884s-0.526-1.625-0.679-2.229c-0.152-0.604-0.469-2.314-0.469-2.314l-3.277,0.658c-0.001,0.001,0.157,1.712,0.479,2.986z"></path>

    <line id="line77766" stroke-width="0.5" y2="177.43" y1="178.43" stroke="#000" x2="282.06" x1="277.21" fill="none"></line>

    <line id="line77768" stroke-width="0.5" y2="184.2" y1="181.42" stroke="#000" x2="278.67" x1="283.12" fill="none"></line>

    <path id="path77770" d="m281.55,190.08c0.686,0.987,1.739,1.992,1.739,1.992l2.006-3.51s-0.977-1.19-1.302-1.657c-0.325-0.468-1.144-1.862-1.144-1.862l-2.666,2.561c0.001,0,0.681,1.489,1.367,2.476z"></path>

    <line id="line77772" stroke-width="0.5" y2="183.79" y1="187.61" stroke="#000" x2="284.12" x1="280.18" fill="none"></line>

    <line id="line77774" stroke-width="0.5" y2="192.08" y1="186.85" stroke="#000" x2="283.29" x1="286.32" fill="none"></line>

    <path id="path77776" d="m287.68,195.8c0.914,0.504,2.156,0.807,2.156,0.807l0.648-4.443s-1.233-0.519-1.667-0.758-1.593-1.041-1.593-1.041l-1.527,3.957c0.001,0,1.069,0.973,1.983,1.478z"></path>

    <line id="line77778" stroke-width="0.5" y2="188.45" y1="194.32" stroke="#000" x2="287.95" x1="285.7" fill="none"></line>

    <line id="line77780" stroke-width="0.5" y2="196.61" y1="189.98" stroke="#000" x2="289.84" x1="290.84" fill="none"></line>

    <g id="g77782">

     <g id="g77784">

      <ellipse id="ellipse77786" transform="matrix(0.0854,0.9963,-0.9963,0.0854,433.4827,-135.8625)" cx="290.74" rx="2.828" cy="168.18" ry="2.069" d="m 293.56799,168.17999 c 0,1.14268 -1.26614,2.069 -2.828,2.069 -1.56186,0 -2.828,-0.92632 -2.828,-2.069 0,-1.14267 1.26614,-2.069 2.828,-2.069 1.56186,0 2.828,0.92633 2.828,2.069 z"></ellipse>

      <path id="path77788" d="M290.74,168.18"></path>

     </g>

     <g id="g77790" fill="#FFF">

      <ellipse id="ellipse77792" d="m 292.21699,168.12 c 0,0.68538 -0.75977,1.241 -1.697,1.241 -0.93723,0 -1.697,-0.55562 -1.697,-1.241 0,-0.68539 0.75977,-1.241 1.697,-1.241 0.93723,0 1.697,0.55561 1.697,1.241 z" ry="1.241" cx="290.52" rx="1.697" cy="168.12" transform="matrix(0.0853,0.9964,-0.9964,0.0853,433.2333,-135.685)"></ellipse>

      <path id="path77794" d="M290.52,168.12"></path>

     </g>

    </g>

    <g id="g77796">

     <g id="g77798">

      <ellipse id="ellipse77800" transform="matrix(0.0853,0.9964,-0.9964,0.0853,435.1073,-125.8707)" cx="286.11" rx="2.828" cy="174.04" ry="2.069" d="m 288.93799,174.03999 c 0,1.14268 -1.26614,2.069 -2.828,2.069 -1.56187,0 -2.828,-0.92632 -2.828,-2.069 0,-1.14267 1.26613,-2.069 2.828,-2.069 1.56186,0 2.828,0.92633 2.828,2.069 z"></ellipse>

      <path id="path77802" d="M286.11,174.04"></path>

     </g>

     <g id="g77804" fill="#FFF">

      <ellipse id="ellipse77806" d="m 287.577,173.98 c 0,0.68538 -0.75977,1.241 -1.697,1.241 -0.93722,0 -1.697,-0.55562 -1.697,-1.241 0,-0.68539 0.75978,-1.241 1.697,-1.241 0.93723,0 1.697,0.55561 1.697,1.241 z" ry="1.241" cx="285.88" rx="1.697" cy="173.98" transform="matrix(0.0853,0.9964,-0.9964,0.0853,434.8317,-125.7054)"></ellipse>

      <path id="path77808" d="M285.88,173.98"></path>

     </g>

    </g>

    <g id="g77810">

     <g id="g77812">

      <ellipse id="ellipse77814" transform="matrix(0.0853,0.9964,-0.9964,0.0853,446.2009,-121.6823)" cx="289.37" rx="2.828" cy="182.18" ry="2.069" d="m 292.198,182.17999 c 0,1.14268 -1.26614,2.069 -2.828,2.069 -1.56187,0 -2.828,-0.92632 -2.828,-2.069 0,-1.14267 1.26613,-2.069 2.828,-2.069 1.56186,0 2.828,0.92633 2.828,2.069 z"></ellipse>

      <path id="path77816" d="M289.37,182.18"></path>

     </g>

     <g id="g77818" fill="#FFF">

      <ellipse id="ellipse77820" d="m 290.84699,182.12 c 0,0.68538 -0.75977,1.241 -1.697,1.241 -0.93722,0 -1.697,-0.55562 -1.697,-1.241 0,-0.68539 0.75978,-1.241 1.697,-1.241 0.93723,0 1.697,0.55561 1.697,1.241 z" ry="1.241" cx="289.15" rx="1.697" cy="182.12" transform="matrix(0.0853,0.9964,-0.9964,0.0853,445.9311,-121.5141)"></ellipse>

      <path id="path77822" d="M289.15,182.12"></path>

     </g>

    </g>

    <g id="g77824">

     <g id="g77826">

      <ellipse id="ellipse77828" transform="matrix(0.0854,0.9963,-0.9963,0.0854,450.1914,-129.4835)" cx="295.62" rx="2.828" cy="180.47" ry="2.068" d="m 298.448,180.47 c 0,1.14213 -1.26614,2.068 -2.828,2.068 -1.56187,0 -2.828,-0.92587 -2.828,-2.068 0,-1.14212 1.26613,-2.068 2.828,-2.068 1.56186,0 2.828,0.92588 2.828,2.068 z"></ellipse>

      <path id="path77830" d="M295.62,180.47"></path>

     </g>

     <g id="g77832" fill="#FFF">

      <ellipse id="ellipse77834" d="m 297.09699,180.41 c 0,0.68539 -0.75977,1.241 -1.697,1.241 -0.93722,0 -1.697,-0.55561 -1.697,-1.241 0,-0.68538 0.75978,-1.241 1.697,-1.241 0.93723,0 1.697,0.55562 1.697,1.241 z" ry="1.241" cx="295.4" rx="1.697" cy="180.41" transform="matrix(0.0853,0.9964,-0.9964,0.0853,449.9485,-129.3023)"></ellipse>

      <path id="path77836" d="M295.4,180.41"></path>

     </g>

    </g>

    <g id="g77838">

     <g id="g77840">

      <ellipse id="ellipse77842" transform="matrix(0.0853,0.9964,-0.9964,0.0853,443.0324,-137.2474)" cx="296.27" rx="2.828" cy="172.67" ry="2.069" d="m 299.09799,172.67 c 0,1.14268 -1.26614,2.069 -2.828,2.069 -1.56186,0 -2.828,-0.92632 -2.828,-2.069 0,-1.14268 1.26614,-2.069 2.828,-2.069 1.56186,0 2.828,0.92632 2.828,2.069 z"></ellipse>

      <path id="path77844" d="M296.27,172.67"></path>

     </g>

     <g id="g77846" fill="#FFF">

      <ellipse id="ellipse77848" d="m 297.73701,172.61 c 0,0.68539 -0.75977,1.241 -1.697,1.241 -0.93723,0 -1.697,-0.55561 -1.697,-1.241 0,-0.68538 0.75977,-1.241 1.697,-1.241 0.93723,0 1.697,0.55562 1.697,1.241 z" ry="1.241" cx="296.04" rx="1.697" cy="172.61" transform="matrix(0.0853,0.9964,-0.9964,0.0853,442.7565,-137.082)"></ellipse>

      <path id="path77850" d="M296.04,172.61"></path>

     </g>

    </g>

    <ellipse id="ellipse77852" d="m 306.012,175.34 c 0,5.49026 -6.1346,9.941 -13.702,9.941 -7.56741,0 -13.702,-4.45074 -13.702,-9.941 0,-5.49027 6.13459,-9.941 13.702,-9.941 7.5674,0 13.702,4.45073 13.702,9.941 z" ry="9.941" cx="292.31" rx="13.702" cy="175.34" transform="matrix(0.0853,0.9964,-0.9964,0.0853,442.0575,-130.8665)" stroke="#000" stroke-width="0.5" fill="none"></ellipse>

    <ellipse id="ellipse77854" d="m 303.237,175.3 c 0,4.66681 -5.21454,8.45 -11.647,8.45 -6.43246,0 -11.647,-3.78319 -11.647,-8.45 0,-4.6668 5.21454,-8.45 11.647,-8.45 6.43246,0 11.647,3.7832 11.647,8.45 z" ry="8.45" cx="291.59" rx="11.647" cy="175.3" transform="matrix(0.0853,0.9964,-0.9964,0.0853,441.3646,-130.1904)" stroke="#000" stroke-width="0.5" fill="none"></ellipse>

    <ellipse id="ellipse77856" d="m 321.23001,175.14999 c 0,11.23127 -12.54946,20.336 -28.03,20.336 -15.48054,0 -28.03,-9.10473 -28.03,-20.336 0,-11.23126 12.54946,-20.336 28.03,-20.336 15.48054,0 28.03,9.10474 28.03,20.336 z" ry="20.336" cx="293.2" rx="28.03" cy="175.15" transform="matrix(0.0853,0.9964,-0.9964,0.0853,442.6829,-131.9247)" stroke="#FFF" stroke-width="3" fill="none"></ellipse>

   </g>

   <g id="g77858">

    <path id="path77860" fill="#FFF" d="m65.481,152.71c7.293-0.823,12.568-11.537,11.78-23.929-0.788-12.393-7.339-21.771-14.633-20.948-7.293,0.824-12.568,11.538-11.78,23.93,0.788,12.391,7.34,21.77,14.633,20.947z"></path>

    <path id="path77862" fill="#FFF" d="M64.055,130.27"></path>

    <path id="path77864" d="M64.055,130.27" stroke="#000" stroke-width="0.5" fill="none"></path>

    <path id="path77866" d="m65.386,151.2c6.803-0.768,11.723-10.762,10.988-22.321-0.735-11.56-6.846-20.309-13.649-19.541s-11.723,10.762-10.988,22.322c0.734,11.559,6.845,20.308,13.649,19.54z" stroke="#000" stroke-width="0.5" fill="none"></path>

    <path id="path77868" d="m65.328,150.29c0.701-0.079,1.566-0.505,1.566-0.505l-0.596-4.038s-0.909,0.241-1.241,0.278c-0.333,0.038-1.259,0.004-1.259,0.004l-0.078,4.114s0.906,0.226,1.608,0.147z"></path>

    <line id="line77870" stroke-width="0.5" y2="144.04" y1="150.14" stroke="#000" x2="63.822" x1="63.72" fill="none"></line>

    <line id="line77872" stroke-width="0.5" y2="149.78" y1="143.73" stroke="#000" x2="66.894" x1="66.026" fill="none"></line>

    <path id="path77874" d="m70.311,147.73c0.599-0.588,1.254-1.615,1.254-1.615l-1.562-3.273s-0.741,0.89-1.025,1.168c-0.284,0.279-1.111,0.929-1.111,0.929l0.986,3.838c0,0.001,0.859-0.458,1.458-1.047z"></path>

    <line id="line77876" stroke-width="0.5" y2="143.1" y1="148.78" stroke="#000" x2="67.38" x1="68.853" fill="none"></line>

    <line id="line77878" stroke-width="0.5" y2="146.12" y1="141.2" stroke="#000" x2="71.565" x1="69.248" fill="none"></line>

    <path id="path77880" d="m74.056,141.72c0.378-0.98,0.694-2.405,0.694-2.405l-2.219-1.86s-0.426,1.362-0.605,1.826c-0.179,0.465-0.743,1.669-0.743,1.669l1.855,2.803s0.64-1.052,1.018-2.033z"></path>

    <line id="line77882" stroke-width="0.5" y2="139.61" y1="143.75" stroke="#000" x2="70.28" x1="73.038" fill="none"></line>

    <line id="line77884" stroke-width="0.5" y2="139.31" y1="136.49" stroke="#000" x2="74.75" x1="71.442" fill="none"></line>

    <path id="path77886" d="m75.823,133.44c0.083-1.179-0.004-2.721-0.004-2.721l-2.437-0.079s-0.027,1.565-0.066,2.124c-0.04,0.559-0.229,2.08-0.229,2.08l2.357,1.213c0.001,0,0.297-1.438,0.379-2.617z"></path>

    <line id="line77888" stroke-width="0.5" y2="134.28" y1="136.06" stroke="#000" x2="71.949" x1="75.445" fill="none"></line>

    <line id="line77890" stroke-width="0.5" y2="130.72" y1="130.56" stroke="#000" x2="75.819" x1="72.175" fill="none"></line>

    <path id="path77892" d="m75.262,124.54c-0.229-1.145-0.701-2.497-0.701-2.497l-2.172,1.718s0.377,1.458,0.485,2,0.332,2.079,0.332,2.079l2.393-0.617s-0.108-1.539-0.337-2.683z"></path>

    <line id="line77894" stroke-width="0.5" y2="128.16" y1="127.22" stroke="#000" x2="72.056" x1="75.599" fill="none"></line>

    <line id="line77896" stroke-width="0.5" y2="122.04" y1="124.57" stroke="#000" x2="74.561" x1="71.302" fill="none"></line>

    <path id="path77898" d="m72.483,116.77c-0.496-0.883-1.259-1.78-1.259-1.78l-1.479,3.174s0.707,1.063,0.942,1.481,0.826,1.667,0.826,1.667l1.955-2.325c0.001,0.001-0.489-1.335-0.985-2.217z"></path>

    <line id="line77900" stroke-width="0.5" y2="122.45" y1="118.99" stroke="#000" x2="70.58" x1="73.469" fill="none"></line>

    <line id="line77902" stroke-width="0.5" y2="114.99" y1="119.71" stroke="#000" x2="71.225" x1="68.995" fill="none"></line>

    <path id="path77904" d="m68.038,111.67c-0.665-0.447-1.568-0.71-1.568-0.71l-0.492,4.003s0.897,0.458,1.211,0.669c0.315,0.212,1.157,0.925,1.157,0.925l1.13-3.573c0.001,0.001-0.774-0.866-1.438-1.314z"></path>

    <line id="line77906" stroke-width="0.5" y2="118.29" y1="112.98" stroke="#000" x2="67.813" x1="69.477" fill="none"></line>

    <line id="line77908" stroke-width="0.5" y2="110.96" y1="116.94" stroke="#000" x2="66.469" x1="65.71" fill="none"></line>

    <path id="path77910" d="m62.804,110.25c-0.702,0.077-1.567,0.5-1.567,0.5l0.592,4.04s0.91-0.238,1.242-0.275c0.332-0.036,1.259,0,1.259,0l0.083-4.114c-0.001-0.001-0.908-0.229-1.609-0.151z"></path>

    <line id="line77912" stroke-width="0.5" y2="116.5" y1="110.4" stroke="#000" x2="64.303" x1="64.412" fill="none"></line>

    <line id="line77914" stroke-width="0.5" y2="110.75" y1="116.8" stroke="#000" x2="61.237" x1="62.099" fill="none"></line>

    <path id="path77916" d="m57.817,112.79c-0.6,0.586-1.256,1.611-1.256,1.611l1.559,3.277s0.742-0.887,1.026-1.165,1.112-0.925,1.112-0.925l-0.982-3.841c0,0.001-0.859,0.457-1.459,1.043z"></path>

    <line id="line77918" stroke-width="0.5" y2="117.43" y1="111.75" stroke="#000" x2="60.744" x1="59.276" fill="none"></line>

    <line id="line77920" stroke-width="0.5" y2="114.4" y1="119.33" stroke="#000" x2="56.562" x1="58.874" fill="none"></line>

    <path id="path77922" d="m54.065,118.79c-0.379,0.979-0.696,2.403-0.696,2.403l2.217,1.867s0.428-1.36,0.608-1.825c0.18-0.464,0.745-1.667,0.745-1.667l-1.852-2.808c-0.001,0-0.642,1.051-1.022,2.03z"></path>

    <line id="line77924" stroke-width="0.5" y2="120.91" y1="116.76" stroke="#000" x2="57.839" x1="55.086" fill="none"></line>

    <line id="line77926" stroke-width="0.5" y2="121.19" y1="124.02" stroke="#000" x2="53.369" x1="56.674" fill="none"></line>

    <path id="path77928" d="m52.29,127.06c-0.084,1.178,0.001,2.72,0.001,2.72l2.436,0.086s0.029-1.564,0.069-2.123c0.04-0.558,0.23-2.079,0.23-2.079l-2.355-1.22c0-0.001-0.297,1.436-0.381,2.616z"></path>

    <line id="line77930" stroke-width="0.5" y2="126.23" y1="124.44" stroke="#000" x2="56.165" x1="52.671" fill="none"></line>

    <line id="line77932" stroke-width="0.5" y2="129.78" y1="129.95" stroke="#000" x2="52.291" x1="55.935" fill="none"></line>

    <path id="path77934" d="m52.842,135.97c0.228,1.145,0.698,2.499,0.698,2.499l2.174-1.71s-0.375-1.459-0.483-2.002c-0.108-0.542-0.33-2.08-0.33-2.08l-2.393,0.609s0.106,1.539,0.334,2.684z"></path>

    <line id="line77936" stroke-width="0.5" y2="132.36" y1="133.28" stroke="#000" x2="56.052" x1="52.508" fill="none"></line>

    <line id="line77938" stroke-width="0.5" y2="138.46" y1="135.94" stroke="#000" x2="53.54" x1="56.802" fill="none"></line>

    <path id="path77940" d="m55.612,143.74c0.495,0.885,1.257,1.783,1.257,1.783l1.481-3.169s-0.706-1.065-0.94-1.484-0.824-1.669-0.824-1.669l-1.957,2.319c0-0.001,0.488,1.335,0.983,2.22z"></path>

    <line id="line77942" stroke-width="0.5" y2="138.07" y1="141.52" stroke="#000" x2="57.522" x1="54.629" fill="none"></line>

    <line id="line77944" stroke-width="0.5" y2="145.53" y1="140.81" stroke="#000" x2="56.87" x1="59.104" fill="none"></line>

    <path id="path77946" d="m60.053,148.86c0.664,0.45,1.567,0.715,1.567,0.715l0.496-4.001s-0.896-0.46-1.211-0.673-1.156-0.929-1.156-0.929l-1.134,3.569c0.001,0,0.774,0.87,1.438,1.319z"></path>

    <line id="line77948" stroke-width="0.5" y2="142.24" y1="147.54" stroke="#000" x2="60.285" x1="58.616" fill="none"></line>

    <line id="line77950" stroke-width="0.5" y2="149.57" y1="143.6" stroke="#000" x2="61.621" x1="62.386" fill="none"></line>

    <g id="g77952">

     <g id="g77954">

      <path id="path77956" d="m62.593,126.52c0.831-0.094,1.432-1.304,1.343-2.704s-0.834-2.458-1.665-2.364c-0.83,0.094-1.431,1.304-1.342,2.704s0.833,2.458,1.664,2.364z"></path>

      <path id="path77958" d="M62.432,123.98"></path>

     </g>

     <g id="g77960" fill="#FFF">

      <path id="path77962" d="m62.364,125.45c0.499-0.057,0.859-0.783,0.806-1.623s-0.5-1.475-0.999-1.418c-0.499,0.056-0.859,0.783-0.806,1.623,0.054,0.839,0.501,1.474,0.999,1.418z"></path>

      <path id="path77964" d="M62.268,123.93"></path>

     </g>

    </g>

    <g id="g77966">

     <g id="g77968">

      <path id="path77970" d="m59.181,131.82c0.831-0.094,1.432-1.304,1.343-2.704s-0.834-2.458-1.665-2.364-1.432,1.304-1.343,2.704,0.835,2.458,1.665,2.364z"></path>

      <path id="path77972" d="M59.021,129.28"></path>

     </g>

     <g id="g77974" fill="#FFF">

      <path id="path77976" d="m58.953,130.75c0.498-0.057,0.859-0.783,0.806-1.623s-0.5-1.475-0.999-1.418c-0.498,0.056-0.859,0.783-0.806,1.622,0.054,0.84,0.501,1.475,0.999,1.419z"></path>

      <path id="path77978" d="M58.856,129.23"></path>

     </g>

    </g>

    <g id="g77980">

     <g id="g77982">

      <path id="path77984" d="m61.52,139.12c0.831-0.094,1.432-1.304,1.342-2.704-0.089-1.399-0.834-2.458-1.665-2.364s-1.432,1.304-1.343,2.704,0.835,2.457,1.666,2.364z"></path>

      <path id="path77986" d="M61.359,136.59"></path>

     </g>

     <g id="g77988" fill="#FFF">

      <path id="path77990" d="m61.292,138.06c0.499-0.056,0.859-0.782,0.806-1.622-0.054-0.84-0.5-1.475-0.999-1.418-0.498,0.056-0.859,0.782-0.806,1.622s0.5,1.475,0.999,1.418z"></path>

      <path id="path77992" d="M61.195,136.54"></path>

     </g>

    </g>

    <g id="g77994">

     <g id="g77996">

      <path id="path77998" d="m66.086,137.55c0.83-0.094,1.432-1.304,1.342-2.704-0.089-1.399-0.834-2.458-1.665-2.364s-1.432,1.304-1.343,2.704,0.836,2.458,1.666,2.364z"></path>

      <path id="path78000" d="M65.925,135.02"></path>

     </g>

     <g id="g78002" fill="#FFF">

      <path id="path78004" d="m65.858,136.49c0.498-0.057,0.859-0.783,0.806-1.623s-0.5-1.475-0.999-1.418c-0.498,0.056-0.859,0.783-0.806,1.622,0.054,0.84,0.501,1.475,0.999,1.419z"></path>

      <path id="path78006" d="M65.761,134.97"></path>

     </g>

    </g>

    <g id="g78008">

     <g id="g78010">

      <path id="path78012" d="m66.596,130.53c0.83-0.094,1.431-1.304,1.342-2.704s-0.834-2.458-1.665-2.364-1.432,1.304-1.343,2.704,0.836,2.458,1.666,2.364z"></path>

      <path id="path78014" d="M66.435,127.99"></path>

     </g>

     <g id="g78016" fill="#FFF">

      <path id="path78018" d="m66.368,129.46c0.498-0.056,0.859-0.782,0.805-1.622-0.053-0.84-0.5-1.475-0.999-1.418-0.499,0.056-0.859,0.783-0.806,1.622,0.054,0.84,0.501,1.475,1,1.418z"></path>

      <path id="path78020" d="M66.271,127.94"></path>

     </g>

    </g>

    <path id="path78022" d="m64.314,142.7c3.991-0.45,6.877-6.313,6.446-13.094s-4.016-11.913-8.007-11.462-6.877,6.313-6.446,13.094,4.016,11.913,8.007,11.462z" stroke="#000" stroke-width="0.5" fill="none"></path>

    <path id="path78024" d="m63.676,140.82c3.393-0.383,5.846-5.366,5.479-11.13s-3.414-10.126-6.806-9.744c-3.393,0.383-5.846,5.367-5.479,11.13,0.366,5.764,3.414,10.127,6.806,9.744z" stroke="#000" stroke-width="0.5" fill="none"></path>

    <path id="path78026" d="m65.779,155.36c8.165-0.922,14.068-12.915,13.187-26.786s-8.215-24.37-16.379-23.448-14.068,12.914-13.186,26.786c0.881,13.871,8.214,24.369,16.378,23.448z" stroke="#FFF" stroke-width="3" fill="none"></path>

   </g>

   <path id="path78028" d="m37.955,104.04c-0.883,1.638-1.058,3.922-0.609,6.226l-29.198-8.3s-7.227-1.889-7.257-4.284-0.202-3.545,0.788-5.283c-0.575,1.751,6.857,3.751,6.857,3.751l29.419,7.883z"></path>

   <path id="path78030" d="m98.246,116.52s-12.29-3.086-17.284-3.137c0.153,1.774,1.087,5.237,3.433,6.767,1.872,0.058,13.459,2.29,13.459,2.29l155.65,31.98c-0.969-2.32-0.261-5.004,1.051-7.045l-156.3-30.86z"></path>

   <path id="path78032" d="m186.56,84.082c-0.879,2.201-2.471,7.825,3.772,9.031,6.243,1.207,12.973-0.206,13.903,2.457s4.499,5.204,8.584,4.115c4.086-1.089,4.565-3.498,1.565-11.289" stroke="#000" stroke-width="0.5" fill="none"></path>

   <path id="path78034" d="M186.14,86.033c-38.44-5.527-101.75-21.735-106.86-23.339-5.113-1.604-3.282-4.363-2.091-5.847,13.102-16.321,24.101-28.164,32.381-32.244,8.283-4.08,13.399-5.962,29.489-5.385,21.146,0.758,52.525,7.615,52.525,7.615,13.014,3.191,25.382,3.883,39.181,1.729,19.657-3.068,71.699-11.409,76.688-12.493,0,0,4.57-0.891,4.602-1.923" stroke="#000" stroke-width="0.5" fill="none"></path>

   <path id="path78036" d="m215.41,91.069c3.485,0.831,15.502,2.854,24.273,3.023" stroke="#000" stroke-width="0.5" fill="none"></path>

   <path id="path78038" d="m261.04,174.67c-1.544-0.151-2.753-1.118-3.411-3.203s-2.59-6.378-2.347-10.914c-1.306-1.176-2.668-4.485-1.782-6.128-0.951-2.319-0.053-7.97,3.514-9.821,1.768-7.07,6.8-16.206,25.367-15.631s39,10.913,43.231,27.667c-0.815,2.969-0.147,9.718,3.219,11.878-0.953,1.614,0.477,5.479,2.188,6.874-0.157,1.75,3.814,13.541,3.814,13.541s0.465,1.667-0.783,1.938" stroke="#000" stroke-width="0.5" fill="none"></path>

   <path id="path78040" d="m13.892,87.888c2.828,4.463,4.55,5.549,26.148,11.586" stroke="#000" stroke-width="0.5" fill="none"></path>

   <path id="path78042" d="m43.002,130.54c-1.415-0.973-4.553-4.037-3.85-15.709-2.27-3.375-3.02-9.18-0.332-12.607,0.97-1.312,1.27-0.993,1.769-3.765s2.563-9.42,13.6-9.078c12.894,0.399,20.68,5.699,25.954,18.769,0.204,3.414,1.49,11.919,4.994,12.131,0,0,1.01,4.058,3.332,5.782,1.9,5.325,10.726,17.059,13.744,19.63" stroke="#000" stroke-width="0.5" fill="none"></path>

   <path id="path78044" d="m4.271,90.934c-1.792,1.184,4.443,3.235,7.821,4.166s26.728,7.125,26.728,7.125" stroke="#000" stroke-width="0.5" fill="none"></path>

   <path id="path78046" d="m1.06,101.26c1.535,3.765,12.505,6.272,12.505,6.272l25.586,7.297" stroke="#000" stroke-width="0.5" fill="none"></path>

   <path id="path78048" d="m80.568,111.05c3.92,0.122,21.147,3.959,21.147,3.959l154.56,30.184" stroke="#000" stroke-width="0.5" fill="none"></path>

   <path id="path78050" d="M255.28,160.55,98.431,127.71s-7.382-1.674-9.964-1.651" stroke="#000" stroke-width="0.5" fill="none"></path>

   <path id="path78052" d="M76.738,61.376c-5.556,6.022-9.408,17.054-6.798,32.829" stroke="#000" stroke-width="0.5" fill="none"></path>

   <path id="path78054" d="m154.26,78.644c-3.673,5.255-6.681,15.694-4.879,24.216,1.801,8.522,4.551,19.758,2.411,22.17s-3.918,6.487-0.428,13.822c0,0,2.556,10.817,4.517,14.182" stroke="#000" stroke-width="0.5" fill="none"></path>

   <line id="line78056" stroke-width="0.5" y2="174.86" y1="140.07" stroke="#000" x2="260.52" x1="97.429" fill="none"></line>

   <path id="path78058" d="m240.15,92.454c0.366,6.401-0.066,15.485,1.395,28.333,0.984,8.655,4.551,19.758,2.411,22.17s-3.556,8.15-0.066,15.485c0,0,2.356,10.604,4.317,13.969" stroke="#000" stroke-width="0.5" fill="none"></path>

   <path id="path78060" d="m325.61,156.64s42.371,8.746,61.621,7.277,28.449-5.108,30.943-5.65c2.495-0.542,5.125,1.191,13.429-0.204s50.333-11.658,53.698-13.618c3.365-1.961,4.885-4.392,9.056-5.708s16.083-5.903,16.083-5.903c0.464-1.638,0.692-3.319,0.692-3.319" stroke="#000" stroke-width="0.5" fill="none"></path>

   <path id="path78062" d="m489.37,153.24c-6.479,2.484-20.028,6.607-27.306,8.241" stroke="#000" stroke-width="0.5" fill="none"></path>

   <path id="path78064" d="m453.11,163.68c-4.39,1.722-8.554,2.833-11.03,2.756s-5.557-0.585-6.55-1.855-1.78-2.533-6.97-1.661c-5.189,0.872-24.522,5.023-34.65,5.329s-54.31-6.637-68.468-9.554" stroke="#000" stroke-width="0.5" fill="none"></path>

   <path id="path78066" d="m331.02,175.39c24.944,4.696,45.698,8.023,60.545,8.689s42.909-5.279,61.848-10.062" stroke="#000" stroke-width="0.5" fill="none"></path>

   <line id="line78068" stroke-width="0.5" y2="164.4" y1="172.2" stroke="#000" x2="489.64" x1="461.52" fill="none"></line>

   <path id="path78070" d="m496.31,162.33,25.901-9.523c4.184-1.729,6.51-3.516,6.774-5.366" stroke="#000" stroke-width="0.5" fill="none"></path>

   <path id="path78072" d="m523.03,133.22c2.625,1.94,2.592,2.971-2.216,4.887s-9.186,3.226-11.899,4.175c-2.714,0.948-3.391,2.786-4.479,4.611s-4.041,3.798-6.129,4.56" stroke="#000" stroke-width="0.5" fill="none"></path>

   <path id="path78074" d="m495.12,121c-0.762-2.088-1.11-4.164-11.708-2.014s-46.563,9.916-51.172,12.044-6.272,2.49-6.502,9.917-1.292,15.035,6.999,14.052c8.29-0.982,38.621-6.858,55.787-14.38,4.215-2.76,8.699-14.185,6.596-19.619z" stroke="#000" stroke-width="0.5" fill="none"></path>

   <path id="path78076" d="m423.54,158.64c-2.057-0.27-1.767-2.946-1.877-6.046-0.111-3.101-0.385-14.261-0.263-18.18,0.121-3.92,3.091-4.706,9.952-7.952,9.011-4.264,45.008-13.062,58.443-13.472" stroke="#000" stroke-width="0.5" fill="none"></path>

   <path id="path78078" d="m494.94,119.96c-1.522-4.177-9.81-15.652-40.674-26.865-43.5-15.801-73.08-20.847-73.08-20.847" stroke="#000" stroke-width="0.5" fill="none"></path>

   <path id="path78080" d="M421.3,137.3c-4.67-9.03-69.98-33.97-130.94-45.77" stroke="#000" stroke-width="0.5" fill="none"></path>

   <path id="path78082" d="M356.86,131.17c-36.58-12.28-88.57-27.31-139.95-35.099" stroke="#000" stroke-width="0.5" fill="none"></path>

   <path id="path78084" d="M186.12,90.162c-25.5-3.68-69.83-12.486-104.63-22.237-34.803-9.75-53.744-11.576-67.385-11.172" stroke="#000" stroke-width="0.5" fill="none"></path>

   <path id="path78086" d="m29.64,48.561c8.69-0.557,32.132,2.647,34.633,1.898s9.789-8.048,15.09-13.207" stroke="#000" stroke-width="0.5" fill="none"></path>

   <path id="path78088" d="M77.188,56.847c-4.208,5.858-14.229-3.951-11.239-7.162" stroke="#000" stroke-width="0.5" fill="none"></path>

   <path id="path78090" d="m189,83.644c-1.508,2.018-1.578,4.287,4.198,4.466s14.962-3.047,16.891,1.349,2.246,7.503,4.115,7.148c1.87-0.355,1.347-3.469,1.347-3.469" stroke="#000" stroke-width="0.5" fill="none"></path>

   <path id="path78092" d="m172.67,97.593c2.431-0.494-0.117-2.895-1.996-2.23s-7.25,0.705-7.843-0.139c-0.593-0.845-1.471-2.524-5.197-2.226s-4.58,1.201-4.409,2.341c0.171,1.141,1.112,0.757,1.112,0.757s0.24,2.279,2.199,2.339c1.96,0.061,2.827-1.254,2.827-1.254,8.044,1.361,9.672,1.149,13.307,0.412z" stroke="#000" stroke-width="0.5" fill="none"></path>

   <path id="path78094" stroke-width="0.5" stroke="#000" d="m173.3,97.302c-0.912,2.76-1.046,7.092-6.307,6.929-5.26-0.163-8.852-0.893-8.852-0.893-0.367,1.847,0.385,4.245-2.091,4.168s-2.434-1.418-2.38-3.171c0.055-1.753,0.043-8.052,0.043-8.052l0.722,0.022s-0.474,1.947,1.996,2.23c2.469,0.283,2.827-1.254,2.827-1.254s-1.23,3.059,1.958,3.468c3.188,0.408,6.477,0.923,7.846,0.036s1.733-2.631,1.733-2.631c1.136,0.035,2.505-0.852,2.505-0.852z"></path>

   <path id="path78096" d="m153.42,95.757s-0.006,0.207,0.918,0.338l5.026,1.085" stroke="#000" stroke-width="0.5" fill="none"></path>

   <path id="path78098" d="m160.83,93.302c1.012,0.651-1.692,1.29-0.673,1.734,1.019,0.445,2.663,0.702,4.932,0.772" stroke="#000" stroke-width="0.5" fill="none"></path>

   <path id="path78100" stroke-width="0.5" stroke="#000" d="m154.34,96.096s0.449,2.182,2.199,2.339"></path>

   <path id="path78102" d="m93.917,80.08c2.432-0.493-0.117-2.895-1.996-2.23s-7.249,0.705-7.842-0.14c-0.594-0.844-1.471-2.523-5.197-2.226-3.726,0.298-4.58,1.201-4.409,2.342s1.112,0.757,1.112,0.757,0.239,2.279,2.199,2.34c1.959,0.061,2.827-1.255,2.827-1.255,8.044,1.361,9.672,1.149,13.306,0.412z" stroke="#000" stroke-width="0.5" fill="none"></path>

   <path id="path78104" stroke-width="0.5" stroke="#000" d="m94.546,79.79c-0.911,2.76-1.045,7.092-6.306,6.929s-8.852-0.894-8.852-0.894c-0.367,1.847,0.385,4.245-2.091,4.168s-2.434-1.417-2.38-3.171c0.054-1.753,0.042-8.052,0.042-8.052l0.722,0.022s-0.473,1.947,1.996,2.23,2.827-1.255,2.827-1.255-1.23,3.059,1.958,3.468c3.188,0.408,6.476,0.923,7.846,0.037,1.37-0.887,1.733-2.631,1.733-2.631,1.135,0.036,2.505-0.851,2.505-0.851z"></path>

   <path id="path78106" d="m74.667,78.245s-0.006,0.206,0.919,0.338l5.026,1.085" stroke="#000" stroke-width="0.5" fill="none"></path>

   <path id="path78108" d="m82.073,75.79c1.013,0.651-1.692,1.29-0.673,1.734s2.663,0.702,4.932,0.772" stroke="#000" stroke-width="0.5" fill="none"></path>

   <path id="path78110" stroke-width="0.5" stroke="#000" d="m75.585,78.583s0.449,2.182,2.199,2.34"></path>

   <path id="path78112" fill="#FFF" stroke="#000" d="m12.143,63.688c2.877,3.521,4.026,6.448,3.9,17.182-1.837-0.676-3.7-0.527-3.7-0.527-1.453-6.447-1.173-14.955-0.2-16.655z"></path>

   <path id="path78114" fill="#FFF" stroke="#000" d="m33.165,84.498c0.745,0.023,1.368-0.563,1.391-1.308l0.076-2.459c0.023-0.745-0.563-1.368-1.308-1.391l-8.409-1.293c-0.745-0.023-1.368,0.563-1.391,1.308l-0.076,2.459c-0.023,0.745,0.562,1.368,1.307,1.391l8.41,1.293z"></path>

   <path id="path78116" fill="#FFF" stroke="#000" d="m356.19,152.94-0.804,5.963c15.628,2.136,29.424,3.389,44.161,0.955,14.737-2.435,19.945-3.926,19.945-3.926l0.617-6.589s-16.445,4.24-30.718,5.038c-14.272,0.797-33.201-1.441-33.201-1.441z"></path>

   <path id="path78118" fill="#FFF" stroke="#000" d="m420.1,149.34s-18.733,4.789-31.13,5.025c-12.397,0.235-32.789-1.428-32.789-1.428,0.875-8.233,6.353-11.78,18.312-11.204,11.959,0.577,18.612-0.869,25.458-1.896,6.847-1.027,16.407-3.003,18.618-1.076,2.212,1.927,1.904,5.222,1.531,10.579z"></path>

   <path id="path78120" fill="#FFF" stroke="#000" d="m388.76,141.35c0.897,4.364,1.136,16.658-0.194,19.611"></path>

   <polygon id="polygon78122" points="493.88,134.07,495.04,130.18,511.96,123.89,510.72,130.46,493.39,136.74" stroke="#000" fill="#FFF"></polygon>

   <path id="path78124" fill="#FFF" stroke="#000" d="m511.96,123.89-16.921,6.291c1.391-4.913,1.661-6.97,0.538-10.721,0.07-2.27,3.603-2.986,3.603-2.986l12.1-3.962c1.735,3.977,0.956,9.115,0.68,11.378z"></path>

   <g id="g78126" stroke-width="0.5" stroke="#FFF">

    <path id="path78128" d="m465.87,142.1c1.821,0.145,3.416-2.146,3.562-5.117,0.146-2.97-1.212-5.495-3.033-5.64s-3.416,2.146-3.562,5.117,1.212,5.496,3.033,5.64z"></path>

    <path id="path78130" d="M466.13,136.72"></path>

   </g>

   <g id="g78132">

    <path id="path78134" d="m465.27,134.45,1.597,0.127s-0.037,3.857-1.023,5.272c-0.845-1.436-0.574-5.399-0.574-5.399z" stroke="#FFF" stroke-width="0.5" fill="#FFF"></path>

   </g>

   <g id="g78136">

    <path id="path78138" stroke-width="0.5" stroke="#FFF" d="m466.6,133.68,1.597,0.127s-0.037,3.857-1.022,5.272c-0.847-1.436-0.575-5.399-0.575-5.399z"></path>

   </g>

   <g id="g78140">

    <path id="path78142" stroke-width="0.5" stroke="#FFF" d="m463.95,134.84,1.597,0.127s-0.037,3.856-1.022,5.272c-0.846-1.436-0.575-5.399-0.575-5.399z"></path>

   </g>

   <path id="path78144" d="m206.79,79.444-11.296-48.67-24.022-4.46s-8.6,24.307-11.731,52.087" stroke="#FFF" stroke-width="0.5" fill="none"></path>

   <path id="path78146" d="m171.47,26.313c-6.982-1.249-41.983-4.604-48.442-2.739s-13.55,4.124-20.582,11.133c-7.031,7.01-17.523,19.075-19.469,21.905-1.946,2.831-2.816,4.25-2.816,4.25" stroke="#FFF" stroke-width="0.5" fill="none"></path>

   <path id="path78148" d="m116.56,25.852s-14.748,29.486-17.556,40.137" stroke="#FFF" stroke-width="0.5" fill="none"></path>

   <path id="path78150" d="m123.03,23.575s-16.507,32.941-19.315,43.593" stroke="#FFF" stroke-width="0.5" fill="none"></path>

   <path id="path78152" d="m161.33,25.219s-9.762,30.214-12.702,51.806" stroke="#FFF" stroke-width="0.5" fill="none"></path>

   <path id="path78154" d="m153.97,78.016c1.94-22.655,12.356-52.274,12.356-52.274" stroke="#FFF" stroke-width="0.5" fill="none"></path>

   <path id="path78156" d="m213.62,85.438-12.806-53.26c7.68,5.4,9.777,11.041,15.976,24.242s17.5,35.027,17.5,35.027" stroke="#FFF" stroke-width="0.5" fill="none"></path>

   <path id="path78158" d="m215.51,31.188c-3.739,0.71-4.828,2.535-2.667,6.112s28.446,54.983,28.446,54.983" stroke="#FFF" stroke-width="0.5" fill="none"></path>

   <path id="path78160" d="M362.36,143.42c-19.12-9.27-100.36-25.82-159.94-36.34-62.44-11.018-99.74-20.02-130.87-28.418-31.128-8.398-56.283-9.589-56.283-9.589" stroke="#000" stroke-width="0.5" fill="none"></path>

   <line id="line78162" stroke-width="0.5" y2="140.58" y1="108.15" stroke="#000" x2="257.14" x1="80.142" fill="none"></line>

  </g>

 </g>

<desc>Created with Snap</desc><defs></defs></svg>

</svg>