<?xml version="1.0" encoding="UTF-8" standalone="no"?>
<!-- Created with Inkscape (http://www.inkscape.org/) -->
<svg id="svg2" xmlns:rdf="http://www.w3.org/1999/02/22-rdf-syntax-ns#" xmlns="http://www.w3.org/2000/svg" height="45" width="67.5" version="1.1" xmlns:cc="http://creativecommons.org/ns#" xmlns:dc="http://purl.org/dc/elements/1.1/">
 <metadata id="metadata7">
  <rdf:RDF>
   <cc:Work rdf:about="">
    <dc:format>image/svg+xml</dc:format>
    <dc:type rdf:resource="http://purl.org/dc/dcmitype/StillImage"/>
    <dc:title/>
   </cc:Work>
  </rdf:RDF>
 </metadata>
 <g id="g4000">
  <g id="g3941">
   <rect id="rect2990" opacity="0" height="45" width="67.5" y="0" x="3.5527e-15"/>
  </g>
  <path id="path3709" d="m32.35 41.632c-0.857-0.098-2.355-0.272-3.327-0.387-2.307-0.273-9.951-1.15-14.559-1.672-2.002-0.226-4.8094-0.549-6.2393-0.716-1.4298-0.168-3.6545-0.406-4.9436-0.528-2.5803-0.245-3.4232-0.472-3.2621-0.879 0.058079-0.14665 0.99301-0.67804 2.0776-1.1809 2.8842-1.3372 2.7302-1.1432 2.2813-2.8743-0.3361-1.2958-0.34587-1.5586-0.088217-2.3702 0.36976-1.1647 0.37087-5.6969 0.00172-6.5885-0.20289-0.48983-0.20608-0.73267-0.014327-1.0909 0.19176-0.35831 0.18893-0.56863-0.012697-0.9454-0.21605-0.40369-0.20144-0.57285 0.087548-1.0139 0.19079-0.29116 0.52522-0.52939 0.74319-0.52939 0.81277 0 1.3563 1.0664 0.81792 1.6048-0.17075 0.17075-0.14328 0.3588 0.10399 0.71182 0.18482 0.26387 0.33605 0.63935 0.33605 0.83439 0 0.30438 0.16941 0.26799 1.1959-0.25692 0.65775-0.33634 2.5415-0.94231 4.1861-1.3466 1.6446-0.4043 3.822-1.0115 4.8387-1.3492 1.0167-0.33778 2.0404-0.61414 2.275-0.61414 0.58218 0 1.2125-0.36241 1.7639-1.0143 0.81411-0.9623 1.4271-1.5625 2.6446-2.5895l1.1902-1.004v-3.2862c0-2.6673-0.05868-3.335-0.31197-3.5451-0.38622-0.32054-0.40345-0.91306-0.03543-1.2185 0.16394-0.13606 0.23889-0.48593 0.1841-0.85927-0.11122-0.7578 0.24683-1.25 0.90937-1.25 0.55033 0 0.98263 0.629 0.78539 1.1429-0.07198 0.18759-0.0095 0.56794 0.13894 0.84522 0.20993 0.39225 0.21606 0.62213 0.02762 1.0356-0.1332 0.29234-0.24055 1.0652-0.23858 1.7177l0.0034 1.1861 0.98435-1.9172c1.1692-2.2774 2.471-3.8375 3.896-4.6697 0.57195-0.33397 1.1803-0.68881 1.3519-0.78854 1.6387-0.95243 4.0575-1.2665 6.5157-0.846 1.1419 0.19534 2.0885 0.55999 3.7393 1.4406 2.3333 1.2446 2.1359 1.0538 4.8556 4.6941 0.5006 0.67004 0.96839 1.5922 1.1125 2.1929 0.13678 0.57019 0.33301 0.9846 0.43606 0.92095 0.27476-0.16981 0.22846-2.5479-0.06546-3.3605-0.18718-0.51765-0.1928-0.79511-0.0217-1.0692 0.12711-0.20354 0.18518-0.61046 0.12901-0.90422-0.05619-0.29379 0.0034-0.73184 0.13298-0.97345 0.54404-1.0166 2.1078-0.11745 1.6279 0.93596-0.17997 0.39497-0.15464 0.57324 0.12537 0.88269 0.27914 0.30846 0.30715 0.50274 0.137 0.95029-0.12295 0.32338-0.21108 2.436-0.20728 4.9687 0.0051 3.6038 0.06391 4.4818 0.32126 4.8221 0.2119 0.28014 0.2744 0.65456 0.1914 1.1467-0.07601 0.45054-0.0017 1.0228 0.19509 1.4926 0.43591 1.0433 0.65076 2.9833 0.3509 3.1686-0.14714 0.09094-0.23333 0.908-0.23333 2.2117v2.0675h0.62909 0.6291l-0.05714-3.3574c-0.05293-3.11-0.0878-3.3743-0.47311-3.5877-0.22878-0.1267-0.45196-0.25077-0.49596-0.2757-0.18626-0.10555 0.48049-1.3393 0.82278-1.5225 0.20558-0.11002 1.3393-0.20147 2.5193-0.20322 1.18-0.0017 2.2531-0.07194 2.3846-0.15599 0.13154-0.08404 0.29345-0.71436 0.35982-1.4007 0.06631-0.68634 0.17817-1.7892 0.24846-2.4508 0.08056-0.75841 0.04281-1.3054-0.10225-1.4801-0.13338-0.16072-0.84706-0.32135-1.6984-0.38226-1.8967-0.13571-2.2032-0.425-1.2342-1.1651 0.39841-0.30429 1.1108-0.90422 1.5832-1.3332 0.47232-0.42896 0.95998-0.77994 1.0837-0.77994 0.12371 0 0.3776-0.21058 0.5642-0.46796l0.33928-0.46796 0.32183 0.46796c0.17701 0.25738 0.44598 0.46796 0.59773 0.46796 0.15174 0 0.50368 0.21058 0.78209 0.46796s0.93836 0.8286 1.4666 1.2694c0.52822 0.4408 0.96042 0.9188 0.96042 1.0622 0 0.16588-0.45779 0.3087-1.2575 0.39228-2.1677 0.22658-2.1378 0.17902-1.9672 3.1185 0.08064 1.3908 0.2075 2.593 0.28182 2.6714 0.07429 0.07843 1.5229 0.17202 3.2191 0.20799l3.0842 0.06538-0.02359 4.4196-0.02359 4.4196 0.47537 0.03276c0.26144 0.01803 0.59235 0.02842 0.73534 0.02311 0.14298-0.0053 0.25998 0.18451 0.25998 0.42181 0 0.2741-0.76937 1.176-2.1094 2.4727-2.5055 2.4245-1.6145 2.2752-9.4857 1.5895-4.9127-0.42796-5.295-0.4354-5.9275-0.1153-1.1376 0.57566-3.5306 1.9222-4.6278 2.6041-0.57196 0.35544-1.5078 0.89221-2.0799 1.1928-0.57195 0.30062-1.1803 0.66545-1.3519 0.81074-0.17159 0.14528-1.0607 0.66491-1.9758 1.1547-0.91512 0.48981-2.3741 1.2995-3.242 1.7993-1.672 0.96273-1.745 0.97405-4.3494 0.67722zm-5.2387-3.9826c0.04804-0.24958-0.06391-0.36159-0.36159-0.36159-0.29765 0-0.43121 0.13358-0.43121 0.43121 0 0.53299 0.68838 0.47253 0.7928-0.06964zm-1.6248-0.26987c0-0.17909-0.20431-0.2997-0.50768-0.2997-0.69455 0-0.87454 0.37886-0.28561 0.60129 0.55735 0.21052 0.7933 0.12082 0.7933-0.30159zm-4.742-0.54928c-0.13345-0.13345-0.31169-0.1736-0.39607-0.08921-0.08442 0.08439-0.01844 0.23685 0.14649 0.3388 0.16496 0.10195 0.34319 0.1421 0.39607 0.08921 0.05293-0.05288-0.01304-0.20534-0.14649-0.3388zm-3.2005-0.11201c-0.08056-0.41828-0.73921-0.60712-1.0464-0.29999-0.31276 0.31276-0.000077 0.66157 0.59304 0.66157 0.38476 0 0.50454-0.09553 0.4533-0.36158zm18.965-0.05438c0-0.22878-0.09359-0.41597-0.20798-0.41597s-0.20799 0.18718-0.20799 0.41597c0 0.22878 0.0936 0.41597 0.20799 0.41597s0.20798-0.18718 0.20798-0.41597zm-23.917-0.3c0-0.16484-0.08712-0.35355-0.19361-0.41936-0.24727-0.15283-0.49596 0.23663-0.32634 0.51107 0.19125 0.30945 0.51995 0.25147 0.51995-0.09172zm1.6639-0.01227c0-0.17332-0.18488-0.31197-0.41597-0.31197-0.46033 0-0.56355 0.32175-0.15599 0.4862 0.45259 0.18263 0.57196 0.14626 0.57196-0.17423zm1.2479 0.10399c0-0.11439-0.14039-0.20798-0.31197-0.20798-0.17159 0-0.31197 0.0936-0.31197 0.20798 0 0.11439 0.14039 0.20799 0.31197 0.20799 0.17159 0 0.31197-0.0936 0.31197-0.20799zm12.063 0c0-0.11439-0.35097-0.20141-0.77994-0.19336-0.62565 0.01173-0.69765 0.04998-0.36397 0.19336 0.57796 0.24836 1.1439 0.24836 1.1439 0zm-16.412-0.312c-0.0017-0.11439-0.19364-0.23789-0.42696-0.27444-0.41828-0.06554-0.56274 0.17057-0.27835 0.45495 0.20223 0.20223 0.70865 0.07263 0.70531-0.18051zm14.747 0.10399c0-0.11439-0.18718-0.20799-0.41597-0.20799-0.22878 0-0.41597 0.0936-0.41597 0.20799s0.18718 0.20798 0.41597 0.20798c0.22878 0 0.41597-0.0936 0.41597-0.20798zm12.078-2.3897c-0.273-1.569-0.276-1.77-0.029-1.77 0.24253 0 0.39211 0.46518 0.64066 1.9924 0.10748 0.66038 0.30361 1.3012 0.43584 1.424 0.17989 0.16709 0.20862 0.05314 0.11412-0.45262-0.15346-0.82136 0.20134-0.908 0.50013-0.12212 0.15825 0.4162 0.26979 0.4946 0.44888 0.31552 0.17908-0.17908 0.17067-0.65479-0.0338-1.9142-0.26847-1.6532-0.2342-2.0287 0.16276-1.7835 0.26497 0.16376 0.86527 1.9352 0.86527 2.5534 0 0.2656 0.09975 0.48291 0.22165 0.48291 0.45494 0 1.0262-0.44288 1.0262-0.79555 0-0.37584-0.48485-2.354-0.73534-3.0001-0.08459-0.21809-0.0447-0.36397 0.0993-0.36397 0.30524 0 1.0404 1.6008 1.0506 2.2878 0.0043 0.28598 0.10108 0.66035 0.21516 0.83193 0.15401 0.23167 0.19592 0.1131 0.16278-0.46061-0.05817-1.0067 0.18158-1.218 0.66088-0.5826 0.38034 0.50422 0.38161 0.49568 0.10387-0.69909-0.15464-0.66524-0.42791-1.3717-0.60725-1.5699-0.39187-0.43301-0.42442-0.84872-0.06606-0.84433 0.48241 0.0059 0.73587 0.30509 0.96633 1.1407 0.36146 1.3105 0.63856 1.6021 0.64234 0.67594 0.0017-0.42896 0.09678-0.77994 0.21117-0.77994s0.20798-0.35565 0.20798-0.79034 0.09053-0.88089 0.20118-0.99147c0.27943-0.27943 0.02334-1.1299-0.34017-1.1299-0.2793 0-1.7507 0.68315-4.4366 2.0598-0.62915 0.32247-1.691 0.7553-2.3596 0.96187-1.3493 0.41677-1.4999 0.59818-1.1848 1.427 0.11892 0.31278 0.27668 1.2415 0.35058 2.0637 0.07387 0.82226 0.23348 1.729 0.3546 2.0149 0.21798 0.51463 0.22103 0.5127 0.29748-0.18885 0.04247-0.38984-0.02333-1.2867-0.14636-1.9929zm-28.414 2.196c0.0658-0.10649 0.019989-0.25517-0.10168-0.3304-0.3078-0.19024-0.8802 0.05905-0.72228 0.31456 0.16255 0.26302 0.66522 0.27269 0.82396 0.01584zm14.152-0.01437c-0.07069-0.11439-0.26892-0.20798-0.44051-0.20798s-0.25413 0.0936-0.18344 0.20798c0.07069 0.11439 0.26893 0.20799 0.44052 0.20799 0.17158 0 0.25413-0.0936 0.18343-0.20799zm-17.782-0.458c0-0.33598-0.061511-0.39606-0.23146-0.22611-0.12729 0.1273-0.16858 0.33321-0.091717 0.45757 0.21513 0.3481 0.32318 0.27072 0.32318-0.23146zm25.572-0.538c0.11799-0.42483 0.21505-1.0298 0.21568-1.3444 0.000695-0.36923 0.11174-0.57196 0.31313-0.57196 0.17159 0 0.31197 0.0936 0.31197 0.20799s0.08699 0.20798 0.1933 0.20798 0.1765-0.49136 0.15598-1.0919l-0.03732-1.0919-1.6454-0.06135c-2.0353-0.07588-2.3938 0.02487-1.9265 0.54126 0.1828 0.20198 0.47757 0.71479 0.65505 1.1395 0.3633 0.86948 0.62997 0.98109 0.79908 0.33444 0.06357-0.24302 0.23631-0.39635 0.38822-0.34455 0.28657 0.09771 0.30351 0.87128 0.05079 2.3187-0.18126 1.0381 0.22196 0.85112 0.52608-0.24388zm-24.324 0.347c0-0.11439-0.093596-0.15014-0.20799-0.07944s-0.20798 0.22214-0.20798 0.33653 0.093588 0.15014 0.20798 0.07944 0.20799-0.22213 0.20799-0.33653zm12.479 0.23253c-0.41095-0.26557-1.1001-0.26557-0.93596 0 0.07069 0.11439 0.38039 0.20655 0.68822 0.2048 0.43775-0.0025 0.49172-0.04711 0.2477-0.2048zm9.3528-0.48024c-0.0034-0.25062-0.13339-0.62282-0.28836-0.8271-0.25522-0.33646-0.29071-0.29731-0.37712 0.41597-0.09043 0.74646 0.14313 1.1938 0.50618 0.96933 0.09124-0.0564 0.16294-0.30761 0.15929-0.55823zm-11.328 0.27225c0.07069-0.11439-0.06417-0.20798-0.2997-0.20798-0.23554 0-0.42824 0.0936-0.42824 0.20798 0 0.11439 0.13486 0.20799 0.29969 0.20799 0.16484 0 0.35754-0.0936 0.42825-0.20799zm8.1738-0.0416c0.13727-0.13727 0.25086-0.48824 0.25242-0.77994 0.0043-0.75798 0.22102-1.4663 0.44913-1.4663 0.10751 0 0.16678 0.53816 0.13173 1.1959-0.05834 1.0955-0.02548 1.2013 0.39201 1.2608 0.38018 0.05411 0.4955-0.08385 0.69542-0.83193 0.13181-0.49324 0.31725-1.0477 0.41208-1.2322 0.1119-0.21765 0.03311-0.56448-0.22439-0.98795-0.56738-0.93296-1.5732-0.92164-2.2053 0.02484-0.6898 1.0329-1.0258 2.3539-0.69892 2.7477 0.3186 0.3839 0.46796 0.39684 0.79582 0.06899zm9.6324-0.93004c-0.04933-0.8024-0.0051-0.93759 0.27054-0.83169 0.20847 0.07999 0.32947 0.01425 0.32947-0.17902 0-0.16799 0.14039-0.30544 0.31198-0.30544 0.35658 0 0.40402-0.56274 0.11217-1.3304-0.18585-0.4888-0.24761-0.50944-0.88397-0.29534-1.1528 0.38788-1.2647 0.56225-1.1395 1.7752 0.06228 0.60391 0.26048 1.2451 0.44035 1.425 0.17986 0.17986 0.32702 0.47632 0.32702 0.6588s0.06546 0.26634 0.14542 0.18636 0.11891-0.57657 0.0865-1.1035zm-19.783 0.764c0-0.11439-0.0936-0.20799-0.20799-0.20799s-0.20798 0.0936-0.20798 0.20799 0.09359 0.20798 0.20798 0.20798 0.20799-0.0936 0.20799-0.20798zm18.127-1.3057c-0.11908-0.46914-0.16963-0.92884-0.11235-1.0215 0.05731-0.0927 0.0051-0.16854-0.11609-0.16854-0.24078 0-0.30563 1.8234-0.08527 2.3976 0.12662 0.32999 0.1472 0.3299 0.3326-0.0015 0.1265-0.22606 0.11972-0.6601-0.01887-1.2061zm-9.9756 0.19757c0.06666-0.80434 0.25507-1.3221 0.68707-1.8885 0.74572-0.97766 0.62479-1.0646-1.712-1.2294-1.8286-0.12904-2.4514-0.02313-1.8484 0.31432 0.55736 0.31191 1.1691 1.7468 1.1691 2.7423 0 0.97457 0.13928 1.1252 1.0662 1.1531 0.51236 0.01542 0.55188-0.05223 0.63809-1.0918zm-12.832 0.69219c-0.07069-0.11439-0.33359-0.20655-0.58423-0.2048-0.37047 0.0026-0.39734 0.04089-0.14372 0.2048 0.40975 0.2648 0.89161 0.2648 0.72794 0zm10.026-0.14175c0.16849-0.43905-0.08236-1.1449-0.78278-2.2023-0.51256-0.77383-0.77278-0.98366-1.2197-0.98366-0.90045 0-1.7869 1.1524-1.9203 2.4964-0.0652 0.65642-0.02153 0.72734 0.44778 0.72734 0.401 0 0.53279-0.11895 0.57605-0.51996 0.2078-1.9262 0.43551-2.2861 0.89882-1.4203 0.19676 0.36765 0.1788 0.49744-0.09668 0.69888-0.18678 0.13658-0.3383 0.53688-0.3383 0.89375v0.64637l1.1648-0.03064c0.75063-0.01976 1.2023-0.12847 1.2704-0.30579zm-5.0349-1.2156c0.11439-0.5732 0.41191-1.3855 0.66115-1.8051 0.3395-0.57155 0.39167-0.81334 0.20798-0.96402-0.32743-0.2686-2.5028-0.52797-3.1228-0.37235l-0.49339 0.12384 0.59362 1.1769c0.32649 0.64727 0.59362 1.3041 0.59362 1.4595 0 0.15547 0.14039 0.28267 0.31197 0.28267 0.20964 0 0.31197 0.20968 0.31197 0.6392 0 0.49634 0.08133 0.62382 0.36398 0.57036 0.2526-0.04778 0.4276-0.38773 0.57195-1.1111zm-3.2989 0.6294c0.06589-0.17159 0.25641-0.31197 0.42346-0.31197 0.3044 0 0.28014-0.2189-0.1525-1.3766-0.22934-0.61369-1.1933-1.3272-1.7931-1.3272-0.27575 0-0.7311 0.22973-1.0119 0.51051-0.97483 0.97482-0.44335 2.7461 0.77224 2.5739 0.41575-0.05888 0.49999-0.2151 0.58911-1.0925 0.06305-0.62026 0.21907-1.0616 0.39596-1.1199 0.23621-0.07777 0.26922 0.12427 0.17285 1.058-0.06554 0.63476-0.06434 1.2089 0.0026 1.2759 0.21436 0.21437 0.47795 0.13098 0.6012-0.19019zm-6.8896-2.171c-0.1894-2.139-0.614-2.272-0.4778-0.15 0.092893 1.4474 0.28636 2.1658 0.52028 1.9319 0.058251-0.05823 0.03912-0.85995-0.042466-1.7817zm1.562 0.76798c0.00257-1.0429 0.25722-1.8368 0.50783-1.5862 0.18128 0.18128 0.19093 1.6858 0.014155 2.2101-0.13065 0.38759-0.0821 0.46796 0.28248 0.46796 0.3778 0 0.44023-0.12276 0.44023-0.86562 0-0.55194 0.1916-1.1926 0.52873-1.7679 0.58739-1.0023 0.68143-0.91203-1.0487-1.0072-1.4204-0.07813-1.5599 0.09925-1.5599 1.9841 0 1.5179 0.03483 1.6565 0.41597 1.6565 0.36274 0 0.41638-0.13972 0.41915-1.0919zm20.975-0.90276c-0.88698-0.88698-3.1118-0.66722-3.0805 0.3043 0.0086 0.26182 0.08485 0.23249 0.33734-0.12946 0.26191-0.37545 0.52467-0.46796 1.3292-0.46796 0.89641 0 1.0423 0.06704 1.376 0.63169 0.20523 0.34743 0.40887 0.52451 0.45254 0.39352 0.04367-0.131-0.14286-0.46043-0.41451-0.73208zm5.4359-1.6157c0-1.3461 0.08934-2.2193 0.24276-2.3727 0.34314-0.34314-0.30475-0.56942-0.80209-0.28013-0.20713 0.12048-0.25961 0.22191-0.11662 0.22539 0.19263 0.0047 0.25998 0.62917 0.25998 2.4104 0 1.5498 0.07395 2.3584 0.20798 2.2756 0.11675-0.07216 0.20799-1.0628 0.20799-2.2585zm2.004 0.59591c0.36765-0.19174 0.46289-0.31118 0.24877-0.31197-0.49554-0.0019-1.0049 0.21966-1.0049 0.43693 0 0.24778 0.06074 0.23775 0.75616-0.12496zm11.716-0.94025c0.0034-0.17328-0.18057-0.6643-0.40935-1.0912-0.4851-0.90508-0.5318-1.4015-0.13186-1.4015 0.15785 0 0.48518 0.55147 0.73659 1.2409 0.24886 0.68253 0.51925 1.2822 0.60086 1.3327 0.08159 0.05044 0.3569-0.07714 0.61176-0.28352l0.46337-0.37522-0.40729-1.2174c-0.22402-0.66959-0.40961-1.3812-0.41242-1.5814-0.006-0.46726-0.09902-0.4605-1.4055 0.10274-1.0401 0.44842-1.3376 0.81493-0.88749 1.0931 0.11439 0.0707 0.20799 0.53021 0.20799 1.0212 0 0.49094 0.10401 1.191 0.23114 1.5557 0.2138 0.61332 0.25232 0.63515 0.51335 0.29102 0.15521-0.20462 0.28517-0.51382 0.28881-0.6871zm-16.008 0.523c0-0.17159-0.08356-0.31197-0.18573-0.31197-0.10215 0-0.2396 0.14038-0.30544 0.31197-0.07292 0.19004-0.00042 0.31197 0.18573 0.31197 0.168 0 0.30545-0.14039 0.30545-0.31197zm-4.0557-0.31197c0.15415-0.48566 0.51996-0.55882 0.51996-0.10399 0 0.17159 0.03921 0.31197 0.08698 0.31197 0.04787 0 0.21162 0.04783 0.36397 0.10628 0.21541 0.08265 0.27699-0.23877 0.27699-1.4459 0-1.513 0.01973-1.5723 0.77994-2.3509 0.42896-0.43929 0.77994-0.91177 0.77994-1.0499 0-0.18095-0.63488-0.25121-2.2698-0.25121h-2.2698l-0.64194 0.87291c-0.55332 0.75239-0.64103 1.0467-0.63533 2.1319 0.0069 1.2628 0.43742 2.3397 0.68152 1.7036 0.07678-0.20006 0.40368-0.28479 1.0125-0.26244 0.72794 0.02672 0.88749 0.10162 0.83802 0.39333-0.08485 0.50046 0.3154 0.45377 0.47708-0.05565zm-7.7852 0.0087c-0.1417-0.08757-0.24964-0.24236-0.23987-0.34396 0.0308-0.32-0.49355-0.2001-0.5564 0.12724-0.04015 0.20887 0.12413 0.32254 0.497 0.34396 0.33306 0.01913 0.45335-0.03202 0.29927-0.12724zm1.8577-0.0087c0-0.11439-0.04126-0.20798-0.09171-0.20798-0.05044 0-0.14957 0.0936-0.22026 0.20798-0.07069 0.11439-0.02942 0.20799 0.09172 0.20799s0.22026-0.0936 0.22026-0.20799zm17.549-0.50144c0.32929-0.07912 0.93596-0.37303 1.3482-0.65314 0.4122-0.28011 0.84834-0.50928 0.96916-0.50928 0.12084 0 0.59048-0.19672 1.0436-0.43715 0.73516-0.39005 0.7567-0.42183 0.19999-0.29497-0.91108 0.20762-5.0395 2.15-5.2395 2.4652-0.06048 0.09524 0.15778 0.03818 0.48494-0.1268 0.32717-0.16498 0.86424-0.3647 1.1935-0.44382zm-20.669 0.23569c0-0.14617 0.18718-0.42602 0.41597-0.62191 0.28339-0.24265 0.41596-0.61354 0.41596-1.1636 0-0.44414 0.19597-1.2506 0.43548-1.792 0.53483-1.209 0.39636-1.3915-1.1536-1.52-1.1436-0.09483-2.1936 0.28563-2.1936 0.79483 0 0.113-0.17783 0.6022-0.39517 1.0871-0.64848 1.4468-0.85052 2.2104-0.62221 2.3515 0.13104 0.08099 0.11728 0.23359-0.03792 0.42056-0.19263 0.23211-0.173 0.29346 0.0939 0.29346 0.18559 0 0.31404-0.11699 0.28545-0.25998-0.06683-0.33404 0.68717-0.21278 0.97886 0.15742 0.37704 0.47853 1.7769 0.67767 1.7769 0.25277zm-0.91863-0.33028c-0.0896-0.14497-0.10672-0.31974-0.03809-0.38839 0.18614-0.18614 0.38909 0.08763 0.28856 0.38923-0.07043 0.21135-0.11944 0.21118-0.25049-0.000831zm-12.177-4.264c-0.2559-0.256-0.2978 2.621-0.0571 3.924 0.1166 0.631 0.168 0.283 0.2131-1.439 0.0358-1.369-0.0261-2.355-0.156-2.485zm30.878 3.6636c0-1.0759-0.29714-1.1809-0.76474-0.27016-0.41591 0.81005-0.28476 1.3038 0.32326 1.2171 0.37087-0.05291 0.44149-0.20439 0.44149-0.94694zm-28.375-0.052c0.10622 0 0.19312 0.08483 0.19312 0.18851s0.18718 0.13956 0.41597 0.07973c0.22878-0.05983 0.41597-0.01705 0.41597 0.09506 0 0.11212 0.21059 0.19322 0.46796 0.18024 0.43252-0.02181 0.4724-0.13388 0.52652-1.4794 0.036289-0.90087 0.21462-1.792 0.46796-2.3375 0.22516-0.48492 0.4094-0.92944 0.4094-0.98795 0-0.15225-3.0196-0.13163-3.4236 0.02339-1.0738 0.41206-1.5581 3.663-0.61532 4.1306 0.24646 0.12226 0.38875 0.34666 0.33055 0.5213-0.076353 0.22891-0.010895 0.21532 0.25804-0.05363 0.19815-0.19814 0.44717-0.36026 0.55339-0.36026zm47.349 0.08232c-0.06915-0.06911-0.2485-0.0765-0.39864-0.01641-0.16592 0.06639-0.11663 0.11568 0.12566 0.12566 0.21925 0.009 0.34209-0.04012 0.27298-0.10924zm4.6319-0.08232c0-0.21073-0.30665-0.27428-1.2479-0.25856-0.91477 0.01526-1.0399 0.04639-1.0399 0.25856 0 0.11439 0.51476 0.20798 1.1439 0.20798 0.62915 0 1.1439-0.0936 1.1439-0.20798zm3.0683-0.05021c-0.05156-0.15476-0.41266-0.24574-0.90131-0.2271-1.1243 0.04289-1.1272 0.04359-1.1272 0.27732 0 0.11439 0.47576 0.20798 1.0573 0.20798 0.74948 0 1.0322-0.07517 0.97114-0.25819zm2.1313-0.0611c0-0.25485-0.08399-0.27436-0.41596-0.09668-0.22878 0.12244-0.41597 0.26612-0.41597 0.31929s0.18718 0.09668 0.41597 0.09668c0.23532 0 0.41596-0.13865 0.41596-0.31929zm-23.563-1.187c0.31995-0.14166 0.70541-0.37564 0.85657-0.51996 0.15115-0.14432 0.36174-0.2624 0.46796-0.2624 0.28324 0 0.23581-1.5379-0.05645-1.8302-0.41342-0.41343-1.6471-0.2988-2.1809 0.20264-0.3863 0.36291-0.48136 0.67098-0.48136 1.5599 0 1.2285 0.2269 1.3669 1.3941 0.8501zm8.2961-0.60654c-0.16295-1.019-0.31448-1.3165-0.54901-1.0779-0.21067 0.21437 0.23021 1.9419 0.49558 1.9419 0.10824 0 0.13148-0.37596 0.05345-0.86407zm5.0246 0.4504 0.67594-0.41213v-1.8494c0-2.0688-0.14179-2.3254-1.1959-2.1644l-0.67594 0.10324v2.3682c0 2.6035 0.03569 2.6619 1.1959 1.9545zm5.2126-0.92747c0.03578-0.56603-0.05019-1.2445-0.19114-1.5078-0.20665-0.38614-0.20022-0.58333 0.03329-1.0196 0.26093-0.48756 0.24902-0.57046-0.12084-0.84116-0.24058-0.17607-0.75445-0.27497-1.2422-0.23907-0.68822 0.05065-0.84367 0.14405-0.89993 0.54064-0.0374 0.26367 0.03929 0.60867 0.17041 0.76664 0.17205 0.2073 0.17649 0.40288 0.01596 0.70282-0.12233 0.22858-0.22241 0.9412-0.22241 1.5836v1.1679l1.1959-0.06238 1.1959-0.06238 0.06511-1.0291zm3.1587-1.0091c0-1.3888-0.08777-2.23-0.24958-2.3918-0.2664-0.2664-1.1671-0.3314-1.7093-0.12334-0.35836 0.13751-0.45172 1.0212-0.12895 1.2207 0.12806 0.07915 0.12806 0.31294 0 0.64976-0.11002 0.28938-0.20004 1.0348-0.20004 1.6565v1.1304h1.1439 1.1439v-2.1422zm1.6176 1.8185c0.42721-0.29923 0.46224-0.48747 0.46224-2.4835 0-1.1878-0.07833-2.2081-0.17409-2.2673-0.09575-0.05918-0.37652 0.0342-0.62395 0.2075-0.41456 0.29037-0.44986 0.49371-0.44986 2.5911 0 1.2518 0.07275 2.276 0.1617 2.276 0.08894 0 0.36972-0.1457 0.62396-0.32377zm-8.164-0.801c-0.0034-0.50524-0.07601-0.98881-0.16177-1.0746-0.08579-0.08578-0.15598 0.3276-0.15598 0.91863 0 0.59102 0.07283 1.0746 0.16176 1.0746 0.08897 0 0.15916-0.41338 0.15599-0.91863zm-18.899 0.27846c0.49101-0.2377 1.1286-0.71244 1.4168-1.055 0.58091-0.69036 0.52206-0.97054-0.38127-1.8155l-0.52907-0.49483-1.3619 1.3078c-0.74903 0.71926-1.3619 1.3949-1.3619 1.5014 0 0.23078 0.85308 0.97148 1.1302 0.98134 0.10688 0.0038 0.59606-0.18755 1.087-0.42525zm-3.6752-0.13984c-0.0017-0.37508-0.96436-0.96384-1.1321-0.69241-0.05182 0.08374-0.04092 0.35568 0.02411 0.60432 0.14932 0.571 1.1105 0.64741 1.108 0.08809zm11.648-0.052c0.25363-0.16391 0.22676-0.2022-0.14371-0.2048-0.25063-0.0016-0.51354 0.09041-0.58423 0.2048-0.16365 0.2648 0.31818 0.2648 0.72794 0zm-13.07-1.5484c0.29187-0.64059 0.61246-0.76393 1.3992-0.53829 0.54014 0.15491 0.67013 0.1081 0.96976-0.34924 0.46939-0.71638 0.16331-0.88449-1.6175-0.88861l-1.3997-0.0032-0.44362 0.86956c-0.42502 0.8331-0.42789 0.88106-0.06846 1.1439 0.5548 0.40568 0.90044 0.33591 1.1602-0.2342zm15.982 0.19654c0.35341-0.42583-0.17964-0.43059-0.74018-0.0066-0.39581 0.29937-0.39504 0.30549 0.03878 0.31197 0.24337 0.0037 0.559-0.13377 0.70141-0.30536zm-22.491-0.598c0.20541-0.18589 0.46676-0.33798 0.58081-0.33798 0.11404 0 0.41592-0.22202 0.67085-0.49338 0.40776-0.43404 0.42258-0.50908 0.12324-0.62395-0.18715-0.07182-1.5675-0.13057-3.0677-0.13057-2.6765 0-2.7382 0.01043-3.3107 0.55887-0.71022 0.68044-0.75965 1.259-0.11537 1.3505 0.25738 0.03655 1.4304 0.05476 2.6067 0.04047 1.6556-0.02013 2.2231-0.10234 2.5122-0.36397zm21.667-0.13422c0.62932-0.32105 0.82365-0.54342 0.82365-0.94248 0-0.6303-0.38462-0.80838-1.3534-0.62662-0.70075 0.13146-0.72637 0.16896-0.72637 1.0628 0 0.50957 0.09732 0.92652 0.21627 0.92652 0.11896 0 0.58691-0.18909 1.0399-0.4202zm2.6288-0.03756c1.0524-0.38054 0.82391-0.6023-0.24521-0.23802-0.51475 0.1754-0.93596 0.3569-0.93596 0.40334 0 0.15476 0.48289 0.08716 1.1811-0.16532zm10.258 0.04178c0-0.11439-0.0936-0.20798-0.20798-0.20798-0.11439 0-0.20799 0.0936-0.20799 0.20798 0 0.11439 0.0936 0.20799 0.20799 0.20799 0.11438 0 0.20798-0.0936 0.20798-0.20799zm-55.235-0.347c0.1771-0.4615-0.21398-0.85892-0.53213-0.54076-0.25462 0.25462-0.10714 0.88749 0.20682 0.88749 0.10574 0 0.25214-0.15604 0.32531-0.34675zm40.191-0.782c0.59217-0.4725 0.66356-0.61903 0.47409-0.97302-0.40184-0.75084-1.456-1.2248-2.7258-1.2257-1.0598-0.000693-1.2312 0.0631-1.7159 0.63913-0.29614 0.35195-0.5372 0.74971-0.53568 0.88389 0.0017 0.13421 0.52315 0.58161 1.1592 0.99421 1.0928 0.70894 1.1974 0.7361 1.9017 0.49397 0.40992-0.14092 1.059-0.50654 1.4425-0.8125zm-27.785 0.471c0.43989-0.24723 0.75128-0.52801 0.69199-0.62395-0.05928-0.09594-1.0356-0.17444-2.1697-0.17444-1.7924 0-2.2121 0.07113-3.2114 0.54431-0.63227 0.29937-1.1496 0.58014-1.1496 0.62395 0 0.0438 1.1338 0.07965 2.5195 0.07965 2.1968 0 2.6219-0.05757 3.3193-0.44951zm21.438-1.2566c1.2651-0.71101 1.0045-1.0889-0.80159-1.1625-0.82189-0.03348-1.8036 0.0187-2.1816 0.11597-0.57503 0.14797-0.69792 0.28529-0.75245 0.84081l-0.0652 0.66396h1.4927c1.1533 0 1.6781-0.10421 2.3081-0.45825zm-17.519 0.11863c0.72169-0.14434 2.7923-1.8734 2.6055-2.1756-0.17923-0.29001-3.0828-0.22974-3.4438 0.07148-0.47046 0.39244-1.4254 1.9647-1.281 2.1092 0.16476 0.16476 1.2838 0.16212 2.1194-0.005zm10.927-0.51849c0.30088-0.35757 0.5123-0.75534 0.46982-0.88389-0.0845-0.25564-2.8455-0.43664-3.6357-0.23832-0.42046 0.10553-1.293 1.1945-1.2951 1.6164-0.000412 0.08579 0.88003 0.15599 1.9566 0.15599 1.937 0 1.963-0.0067 2.5044-0.65013zm-16.317-0.07781c0.62552-0.66584 0.26558-0.66584-1.2479 0l-1.1439 0.50325 0.95166 0.0083c0.75268 0.0066 1.0538-0.10036 1.4401-0.5116zm-11.025 0.109c0.23451-0.14826 0.25162-0.25475 0.07009-0.43626-0.28472-0.28472-0.69233-0.08509-0.69233 0.33907 0 0.34602 0.18334 0.37466 0.62221 0.09719zm51.752-1.149c-0.22445-0.49263-0.32588-0.51996-1.9297-0.51996-1.6721 0-2.192 0.18253-2.192 0.76954 0 0.20464 0.52982 0.27037 2.1794 0.27037h2.1794l-0.23691-0.51996zm7.1795 0.13242c0.18764-0.15595 0.28987-0.36654 0.22719-0.46796-0.15147-0.24508-4.2491-0.23877-4.2491 0.0066 0 0.10503-0.06048 0.34852-0.13435 0.54107-0.12125 0.31598 0.05808 0.34297 1.8404 0.27699 1.2651-0.04684 2.0973-0.17499 2.3159-0.35665zm-17.162-0.925c0.09165-0.7993-0.30791-1.2182-1.0892-1.1419-0.5303 0.05175-0.6533 0.16406-0.70869 0.64714-0.09165 0.7993 0.30791 1.2182 1.0892 1.1419 0.5303-0.05175 0.6533-0.16406 0.70869-0.64714zm12.131-0.57738c-0.07738-1.1834-0.15403-1.4379-0.43283-1.4379-0.27476 0-0.4063 2.3698-0.14123 2.5444 0.47872 0.31525 0.64597-0.0071 0.57406-1.1065zm-19.291 0.58996c0.16661-0.26494 0.16642-0.463-0.000626-0.72794-0.19208-0.3045-0.54872-0.36397-2.1827-0.36397h-1.9532l-0.06863 0.60138c-0.03886 0.34034 0.05147 0.67935 0.20799 0.78101 0.15215 0.0988 1.0622 0.15575 2.0225 0.12656 1.3989-0.04252 1.7914-0.1254 1.9748-0.41704zm-5.2734-0.16928c0.42711-0.79805-0.07052-1.0499-1.9411-0.98255-1.7412 0.06274-2.2363 0.33435-1.9534 1.0715 0.1067 0.27806 0.45352 0.34024 1.8977 0.34024 1.5724 0 1.7924-0.04727 1.9968-0.42926zm14.864 0.03463c1.1866-0.44989 1.4021-0.87685 0.62226-1.2322-0.82615-0.37642-1.1684-0.30131-1.9122 0.41968-1.2415 1.2034-0.67769 1.5585 1.29 0.81247zm-23.322-0.446c0.41484-0.37917-0.1815-0.61624-1.5501-0.61624-1.1377 0-1.4776 0.07172-1.5779 0.33297-0.07026 0.18313-0.0077 0.40709 0.13874 0.49767 0.31587 0.19522 2.7307 0.02203 2.9893-0.2144zm-3.1104-1.3441c0.18737-0.28598 0.29842-0.51996 0.24676-0.51996-0.17271 0-0.74759 0.65116-0.74759 0.84679 0 0.3154 0.13979 0.22418 0.50083-0.32683zm8.1266-0.46796c1.0496-1.1579 0.95852-1.2922-0.87943-1.2967-1.2059-0.003-1.3599 0.05162-2.1428 0.75882-0.4639 0.4191-0.93545 0.93382-1.0478 1.1439-0.19052 0.35599-0.08973 0.38191 1.485 0.38191h1.6894l0.89556-0.98795zm13.627 0.90096c0-0.04784 0.05225-0.22296 0.11595-0.38915 0.23827-0.62093-0.48965-0.97972-1.9876-0.97972-1.2928 0-1.4662 0.05119-1.857 0.548-0.23708 0.3014-0.43106 0.62897-0.43106 0.72794s0.93596 0.17993 2.0799 0.17993 2.0798-0.03915 2.0798-0.08698zm-3.7437-1.8902c0-0.14636-0.11699-0.31002-0.25998-0.3637-0.39384-0.14782-3.3758-0.03817-3.6551 0.13442-0.55668 0.34405-0.1602 0.52781 1.2632 0.5855 1.917 0.07768 2.6518-0.02102 2.6518-0.35622zm-5.4076 0.1276c0-0.34187-0.5793-0.41284-0.9677-0.11858-0.3547 0.26873-0.3323 0.29158 0.29175 0.29769 0.37178 0.0036 0.67595-0.07696 0.67595-0.17912zm-7.9597-0.77186c-0.06915-0.06911-0.2485-0.0765-0.39864-0.01642-0.16592 0.06639-0.11663 0.11568 0.12566 0.12566 0.21925 0.009 0.34209-0.04012 0.27298-0.10924zm16.223-1.3599c1.1986-0.56181 1.9946-0.80224 2.6557-0.80224 0.91083 0 0.93939-0.0189 0.80954-0.53624-0.21968-0.87522-1.1257-2.6306-1.7945-3.4763l-0.62366-0.78879-0.48752 1.0522c-0.26813 0.57874-0.63148 1.1075-0.80744 1.175-0.17596 0.06752-0.31994 0.23534-0.31994 0.37293s-0.41555 0.73698-0.92344 1.332c-1.1736 1.3749-1.7803 2.2269-1.7803 2.5001 0 0.38221 1.4971 0.003 3.2715-0.82866zm3.5919 0.87866c0-0.50113-0.30321-0.84811-0.91863-1.0512-0.57081-0.18838-0.85423-0.14262-1.8535 0.29929-0.64879 0.28692-1.1796 0.61645-1.1796 0.73229 0 0.12737 0.78086 0.2106 1.9758 0.2106 1.0867 0 1.9758-0.08594 1.9758-0.19098zm-16.77-0.279c-0.19939-0.33328-0.82126-0.77934-1.7404-1.2484-0.59426-0.30324-0.83235-0.32781-1.2999-0.13415-0.4648 0.19253-0.57239 0.36917-0.57239 0.93982v0.70271h1.8841c1.4516 0 1.8484-0.05968 1.7286-0.25998zm2.4174 0.10399c-0.002-0.306-0.737-1.254-1.404-1.813-0.725-0.607-1.859-2.214-2.462-3.49-0.203-0.4293-0.434-0.7803-0.514-0.7803-0.24108 0-0.72666 0.86493-1.2011 2.1396-0.62137 1.6692-0.59759 1.894 0.18387 1.7377 0.51996-0.10399 0.93356 0.06264 2.3339 0.94025 1.873 1.1738 3.0678 1.6674 3.0642 1.266zm5.1501-0.10399c-0.09454-0.28752-1.6169-0.4603-2.3763-0.2697-0.98006 0.24598-0.45054 0.52968 0.98855 0.52968 1.0855 0 1.4507-0.06842 1.3877-0.25998zm-3.8872-0.37129c0.52971-0.28349 0.5051-0.71187-0.11306-1.9685-0.28136-0.57196-0.51448-1.1854-0.51806-1.3632-0.0034-0.17779-0.28728-0.76599-0.63046-1.3071-0.34317-0.54113-0.62395-1.0616-0.62395-1.1566 0-0.42318-0.89616-1.2498-1.4984-1.3821-0.53797-0.11816-0.73157-0.05862-1.0374 0.31905-0.68362 0.84424-0.33045 2.3125 0.85447 3.5525 0.35277 0.36914 0.6414 0.76692 0.6414 0.88397 0 0.17421 2.2364 2.5577 2.4574 2.6191 0.03612 0.01002 0.2467-0.07867 0.46796-0.19708zm7.4535-2.1734c1.044-1.3138 2.0023-2.6172 2.1296-2.8964 0.62662-1.3753-0.99713-3.0064-2.1323-2.1419-0.62879 0.47884-2.245 4.1375-2.6778 6.062-0.15045 0.66895-0.11999 0.86759 0.16644 1.0853 0.19283 0.14658 0.4103 0.26949 0.4833 0.27313 0.07301 0.0036 0.98692-1.0683 2.0309-2.3821zm8.1085-0.39859c0.03123-1.3574-0.03277-2.2143-0.1716-2.3001-0.15129-0.0935-0.22128 0.59075-0.22128 2.1634 0 1.265 0.07721 2.3001 0.1716 2.3001s0.19396-0.97354 0.22128-2.1634zm-12.224-0.82c0.421-3.6829 0.387-5.5994-0.108-6.1461-0.507-0.5611-1.594-0.5805-2.085-0.0372-0.313 0.3461-0.349 0.7203-0.265 2.7558 0.11425 2.7577 0.52284 5.8399 0.79671 6.0102 0.10553 0.0656 0.45738 0.08028 0.7819 0.03265l0.59005-0.0866 0.28904-2.5285zm1.4516 0.65024c1.3795-3.639 2.3082-5.1546 3.1585-5.1546 0.41417 0 0.40796-0.02968-0.12203-0.58287-0.5217-0.54454-2.9017-1.4969-3.7407-1.4969-0.28339 0-0.3083 0.094077-0.14123 0.5335 0.28212 0.74205 0.25092 2.2543-0.10914 5.29-0.1696 1.4299-0.30918 2.8182-0.31017 3.0851-0.0034 0.97791 0.52426 0.27905 1.2647-1.6743zm-3.9317 0.93562c-0.125-0.318-0.197-0.813-0.161-1.099s-0.013-1.128-0.109-1.871c-0.225-1.7439-0.258-4.3602-0.061-4.8689 0.138-0.3562 0.078-0.3846-0.582-0.2774-1.152 0.1869-2.819 0.9812-3.164 1.5077-0.29992 0.45773-0.28264 0.49356 0.3925 0.81394 0.51007 0.24205 0.85169 0.6426 1.2299 1.4421 0.28802 0.60883 0.66847 1.2271 0.84545 1.374 0.17698 0.14688 0.32178 0.41804 0.32178 0.60257s0.22571 0.80482 0.50158 1.3784c0.27587 0.5736 0.55884 1.2201 0.62884 1.4366 0.07 0.21656 0.18446 0.33655 0.25436 0.26665 0.06992-0.0699 0.02565-0.38747-0.09831-0.70571zm26.479 0.37776c0.32456-0.01656 0.14176-0.2704-0.83193-1.1552-1.1686-1.062-1.3165-1.1346-2.328-1.1436-0.83266-0.0074-1.1436 0.08102-1.357 0.38578-0.15229 0.21742-0.62556 0.60104-1.0517 0.85247s-0.77481 0.57817-0.77481 0.72608c0 0.4226 1.7383 0.63949 3.9332 0.49076 1.0969-0.07433 2.1815-0.14469 2.4103-0.15636zm-13.615-1.111c-0.39114-1.2986-0.84086-2.127-1.6114-2.968-0.84455-0.92189-0.86253-0.81194-0.0767 0.46804 0.33466 0.54507 0.8627 1.5784 1.1733 2.2962 0.62863 1.4524 0.92627 1.5703 0.51468 0.2038zm-2.505-4.1135c0-0.3982-1.6243-1.9765-2.5295-2.4577l-0.90225-0.47971 0.62395 0.47537c0.34317 0.26145 1.0919 0.96479 1.6639 1.563 1.1523 1.2051 1.1439 1.1986 1.1439 0.89907zm-16.126-1.4198c-0.1172-0.12336-0.51282 0.1893-0.51282 0.40527 0 0.11215 0.13095 0.08322 0.291-0.06427 0.16005-0.1475 0.25987-0.30095 0.22183-0.341zm20.453-0.04598c-0.04032-0.12294-0.163-0.22357-0.27195-0.22357-0.10867 0-0.23112 0.10061-0.27211 0.22358-0.04101 0.12297 0.08141 0.22358 0.27211 0.22358 0.19065 0 0.31311-0.10061 0.27212-0.22358zm-24.71-0.2964c0-0.17159-0.09359-0.31197-0.20798-0.31197s-0.20799 0.14039-0.20799 0.31197c0 0.17159 0.0936 0.31197 0.20799 0.31197s0.20798-0.14039 0.20798-0.31197zm6.134-1.1415c0.07284-0.1179-0.01064-0.15277-0.19571-0.08174-0.36032 0.13827-0.42624 0.28734-0.12707 0.28734 0.10764 0 0.25289-0.092524 0.32278-0.2056zm10.178-0.3931c-0.351-0.214-0.865-0.4523-1.143-0.5293-0.27811-0.077022-0.0845 0.091374 0.43027 0.37422 1.0978 0.60324 1.6428 0.72162 0.71364 0.15504zm-8.434-0.382c0.38664-0.17177 0.99499-0.34504 1.3519-0.38506 1.3019-0.14598 3.9939-0.08657 4.6525 0.10267 0.38309 0.11007 0.67594 0.11462 0.67594 0.010518 0-0.32524-1.5146-0.61685-3.2101-0.61804-1.8767-0.00129-3.9748 0.49183-4.5893 1.0787-0.41597 0.3973-0.41597 0.3973 0 0.26041 0.22878-0.075289 0.73231-0.27743 1.119-0.44919z"/>
 </g>
</svg>
