<?xml version="1.0" encoding="UTF-8" standalone="no"?>
<!-- Created with Inkscape (http://www.inkscape.org/) -->
<svg id="svg2" xmlns:rdf="http://www.w3.org/1999/02/22-rdf-syntax-ns#" xmlns="http://www.w3.org/2000/svg" height="45" width="67.5" version="1.1" xmlns:cc="http://creativecommons.org/ns#" xmlns:dc="http://purl.org/dc/elements/1.1/">
 <metadata id="metadata7">
  <rdf:RDF>
   <cc:Work rdf:about="">
    <dc:format>image/svg+xml</dc:format>
    <dc:type rdf:resource="http://purl.org/dc/dcmitype/StillImage"/>
    <dc:title/>
   </cc:Work>
  </rdf:RDF>
 </metadata>
 <g id="g4130">
  <rect id="rect2990" opacity="0" height="45" width="67.5" y="0" x="3.5527e-15"/>
  <path id="path3781" d="m28.796 44.756c-2.7159-0.66176-3.4125-0.85492-4.5405-1.2589-0.67276-0.24094-1.7727-0.56305-2.4443-0.71581-0.67163-0.15276-1.3586-0.37824-1.5266-0.50108-0.28479-0.20824-0.27896-0.2682 0.0862-0.88702 0.21537-0.36503 0.50008-0.66368 0.63267-0.66368 0.48532 0 0.79937-0.76844 0.79937-1.956 0-0.92953-0.0743-1.238-0.37555-1.5587-0.25445-0.27085-0.33729-0.52032-0.25689-0.77364 0.098-0.30862 0.26523-0.37406 0.95832-0.37492l0.83966-0.0011 0.0122-1.1016c0.0108-0.97266 0.0685-1.1465 0.49311-1.485 0.2645-0.21086 0.48091-0.49667 0.48091-0.6351 0-0.17699 0.0718-0.15356 0.24176 0.07896 0.13298 0.18185 0.32974 0.27627 0.43727 0.20981 0.10752-0.06645 0.26097-0.01352 0.341 0.11762 0.08 0.13114 0.40775 0.34436 0.72827 0.47381s0.58277 0.34661 0.58277 0.48258c0 0.35709 0.30185 0.30399 0.73518-0.12934 0.25641-0.25641 0.43502-0.31809 0.55979-0.19332 0.21513 0.21512 0.72158 0.06907 0.5762-0.16616-0.0546-0.08829-0.014-0.16052 0.0902-0.16052 0.10416 0 0.4941-0.27529 0.86653-0.61177 0.37244-0.33647 0.91734-0.63906 1.2109-0.67242 0.49164-0.05587 0.54625-0.13445 0.69249-0.99645 0.13203-0.77812 0.0896-1.1511-0.25208-2.2136-0.56806-1.7667-1.3546-2.8264-3.8501-5.1869-2.5824-2.4428-3.0228-2.9701-3.7457-4.4846-0.50324-1.0543-0.55582-1.328-0.55118-2.869 0.005-1.4988 0.0628-1.8112 0.48525-2.6 0.65306-1.2195 0.95869-1.5533 2.1067-2.3009 0.54242-0.35322 1.1989-0.80558 1.4588-1.0052 0.66816-0.51328 1.3158-0.7284 2.1929-0.7284 0.41766 0 0.83603-0.0707 0.92972-0.1571 0.0937-0.0864 0.69484-0.3834 1.3359-0.66 1.1902-0.51353 3.678-2.0341 4.8863-2.9865 0.44522-0.35094 0.67242-0.67641 0.67242-0.96325 0-0.26554 0.10411-0.43322 0.26897-0.43322 0.14794 0 0.26897-0.12967 0.26897-0.28816 0-0.17309 0.10008-0.24975 0.25062-0.19198 0.25988 0.09973 0.9065-0.52722 1.4688-1.4241 0.54202-0.86455 1.19-1.477 2.2696-2.1453l1.029-0.63803 0.763 0.61466c0.41952 0.33807 1.1359 0.82957 1.5919 1.0922 0.77092 0.44404 0.83753 0.54075 0.94848 1.3772 0.0656 0.49478 0.37008 1.6026 0.67654 2.4618 0.46623 1.3071 0.57829 1.9454 0.68632 3.9096 0.071 1.2911 0.2347 2.7595 0.36376 3.263 0.20583 0.8031 0.1976 0.99933-0.067 1.5974-0.35085 0.79314-0.6347 2.1782-0.77936 3.8029-0.0795 0.89239-0.33076 1.6323-1.1266 3.3173-0.56339 1.1928-1.1467 2.2696-1.2962 2.3929-0.14954 0.1233-0.93959 0.25812-1.7557 0.2996l-1.4838 0.07541-0.82888-0.77653c-0.45587-0.42709-1.0306-1.105-1.2772-1.5064-0.24656-0.40143-0.56932-0.77544-0.71725-0.83115-0.14794-0.05571-0.59174-0.50719-0.98623-1.0033-1.0265-1.2909-2.7635-2.5648-4.9204-3.6083-1.5179-0.73437-2.1003-0.92206-3.0787-0.99206-1.7036-0.12189-1.9869-0.01277-2.452 0.94448-0.91373 1.8807-0.41565 3.2867 2.0968 5.9189 1.2694 1.3298 2.7024 3.4207 3.3183 4.8415 0.50275 1.1599 0.54076 1.3933 0.50048 3.0729-0.0421 1.7553-0.0297 1.8214 0.36314 1.9251 0.22372 0.05908 0.52778 0.36911 0.67572 0.68894 0.16571 0.35828 0.44106 0.62048 0.71725 0.68302 0.40152 0.09091 0.44828 0.19094 0.44828 0.95901v0.85751l1.1655 0.40538c1.2875 0.4478 1.4408 0.68719 1.0217 1.5951-0.14522 0.31452-0.31791 1.025-0.38377 1.5788-0.10462 0.87986-0.0565 1.1359 0.38148 2.0289l0.50121 1.0219-0.44649 0.34757c-0.24558 0.19116-0.64822 0.4001-0.89478 0.4643s-0.48863 0.16571-0.53794 0.22558c-0.0493 0.05987-0.77553 0.38171-1.6138 0.7152-0.83829 0.33349-1.791 0.75623-2.1172 0.93942-0.68069 0.38231-1.4996 0.39811-2.9036 0.05601zm3.2632-1.4482c3.4029-1.3248 4.4472-1.8526 4.4472-2.2475 0-0.40224-0.73901-0.17097-3.4563 1.0816-0.66816 0.308-1.3137 0.56178-1.4345 0.56395-0.12081 0.0022-0.57361 0.16454-1.0062 0.36082l-0.78656 0.35688-1.4548-0.3731c-0.80017-0.20521-1.6613-0.48405-1.9136-0.61965-0.25233-0.1356-1.0189-0.40381-1.7035-0.59602-0.68458-0.19221-1.6078-0.47802-2.0516-0.63513-0.92647-0.32798-1.2552-0.36054-1.2552-0.12432 0 0.2748 6.2219 2.239 7.8466 2.4771 0.32143 0.04711 0.62879 0.15743 0.68301 0.24516 0.1498 0.24238 0.28818 0.20987 2.0854-0.48985zm1.0704-2.0406c1.3081-0.59187 2.4762-1.1769 2.5957-1.3 0.23914-0.24629 0.58156-1.8985 0.46558-2.2465-0.0401-0.12035-0.19227-0.21882-0.33811-0.21882-0.56821 0-5.3659 1.6635-5.5774 1.9339-0.48108 0.61479-0.21214 2.9076 0.34105 2.9076 0.0742 0 1.2051-0.48426 2.5132-1.0761zm-1.195-2.891c1.79-0.59182 2.3417-0.75945 3.4309-1.0425 0.40766-0.10592 0.84117-0.31304 0.96336-0.46027 0.18908-0.22784 0.13716-0.26768-0.34888-0.26768-0.31407 0-0.98965 0.12737-1.5013 0.28304-1.8579 0.56529-3.629 1.2034-4.0296 1.4517-0.36597 0.22694-0.4593 0.21492-0.87592-0.11279-0.25647-0.20174-0.61204-0.3668-0.79016-0.3668-0.17813 0-0.37373-0.08069-0.43469-0.17931-0.0609-0.09862-0.0206-0.17931 0.0897-0.17931 0.11026 0 0.15061-0.08069 0.0897-0.17931-0.061-0.09862-0.27679-0.17931-0.47963-0.17931-0.20285 0-0.78309-0.12918-1.2894-0.28707-1.9101-0.5956-1.9645-0.6056-2.2053-0.40573-0.17152 0.14235-0.55968 0.13506-1.4165-0.02662-1.226-0.23133-1.6628-0.10959-1.4641 0.40807 0.15684 0.40872 2.957 1.2727 6.4964 2.0044 1.3067 0.27014 1.7015 0.22186 3.7656-0.46057zm-0.71933-0.87212c0.56007-0.46482-0.30173-0.73412-1.1998-0.37493-0.22655 0.0906-0.57102 0.21598-0.7655 0.27862-0.29794 0.09596-0.31205 0.14182-0.0897 0.29133 0.33613 0.22597 1.7042 0.09615 2.055-0.19502zm-1.3428-0.75224c0-0.11692 0.18156-0.40584 0.40346-0.64204 0.29825-0.31748 0.40417-0.64779 0.4062-1.2667 0.002-0.46051 0.0711-0.94519 0.15472-1.0771 0.21466-0.33865-0.13566-0.62669-0.5877-0.48322-0.38799 0.12314-0.51542 0.70572-0.19736 0.9023 0.30245 0.18693 0.19931 1.0917-0.17932 1.5731-0.37682 0.47906-0.48492 1.2063-0.17931 1.2063 0.0986 0 0.17931-0.09566 0.17931-0.21258zm2.5552-0.15547c0.95034-0.26392 0.84402-0.55919-0.1777-0.49351-0.64056 0.04118-0.86482 0.13201-0.90972 0.36845-0.0686 0.36115 0.14771 0.38603 1.0874 0.12506zm-1.6586-0.16988c0-0.09862-0.0807-0.17931-0.17931-0.17931-0.0986 0-0.17932 0.08069-0.17932 0.17931s0.0807 0.17931 0.17932 0.17931c0.0986 0 0.17931-0.08069 0.17931-0.17931zm4.3932-0.35863c0.061-0.09862-0.0102-0.17931-0.15815-0.17931-0.14793 0-0.31883 0.08069-0.37979 0.17931-0.0609 0.09862 0.0102 0.17931 0.15815 0.17931 0.14794 0 0.31884-0.08069 0.37979-0.17931zm-8.5174-0.34804c0-0.48284-0.33922-0.64478-0.66603-0.31798-0.3268 0.32681-0.16485 0.66602 0.31798 0.66602 0.22498 0 0.34805-0.12307 0.34805-0.34804zm-1.3574-0.13208c0.0645-0.16821-0.002-0.4183-0.15113-0.56736-0.38683-0.38683-0.89565 0.03781-0.6331 0.52837 0.22508 0.42057 0.63008 0.4407 0.78423 0.03899zm3.7298-0.75881c-0.12841-0.34942-0.42307-0.56108-0.61553-0.44213-0.25792 0.15941-0.14976 0.76292 0.16868 0.94113 0.36775 0.2058 0.60746-0.0619 0.44685-0.499zm-5.4207 0.16305c0-0.09862-0.0807-0.17931-0.17931-0.17931-0.0986 0-0.17931 0.08069-0.17931 0.17931s0.0807 0.17931 0.17931 0.17931c0.0986 0 0.17931-0.08069 0.17931-0.17931zm10.221-0.08966c0-0.14793-0.0807-0.26897-0.17931-0.26897-0.0986 0-0.17931 0.12104-0.17931 0.26897s0.0807 0.26897 0.17931 0.26897c0.0986 0 0.17931-0.12104 0.17931-0.26897zm-1.7931-0.80691c0-0.09862-0.12103-0.17931-0.26897-0.17931-0.14793 0-0.26897 0.08069-0.26897 0.17931s0.12104 0.17931 0.26897 0.17931c0.14794 0 0.26897-0.08069 0.26897-0.17931zm-2.3311-0.88162c0-0.0904 0.2219-0.24542 0.49311-0.34447 0.33248-0.12143 0.38706-0.18471 0.16753-0.19426-0.17908-0.0078-0.48167 0.06937-0.67243 0.17146-0.36575 0.19575-0.4716 0.53163-0.16752 0.53163 0.0986 0 0.17931-0.07397 0.17931-0.16437zm1.2552-6.0013c0-0.1366-0.37841-0.70802-0.84091-1.2698-0.72768-0.88391-0.81198-1.0678-0.62607-1.3654 0.26627-0.42637-0.0727-0.47921-0.60012-0.09355-0.32633 0.23862-0.30278 0.29134 0.49833 1.1155 0.46246 0.47578 0.93372 1.0893 1.0472 1.3634 0.21746 0.52499 0.52152 0.67071 0.52152 0.24994zm13.46-4.7085c0.60762-1.3543 0.58935-1.7093-0.0311-0.60531-0.22791 0.40552-0.61836 0.83506-0.86764 0.95455-0.64495 0.30911-0.71118 0.8421-0.10466 0.8421 0.40501 0 0.54179-0.16239 1.0034-1.1913zm-3.3357 0.66442c0.0572-0.09256-0.01-0.23377-0.14943-0.3138-0.83588-0.47989-2.5044-6.7755-2.6359-9.9455-0.0612-1.4751 0.10371-2.8124 0.65992-5.3519 0.65131-2.9739 1.2841-4.6064 1.9977-5.1541 0.65949-0.50608 0.84512-1.2749 0.2281-0.9447-0.61314 0.32814-2.4032 2.9096-2.7371 3.947-0.88414 2.7476-1.285 7.452-0.84799 9.9519 0.49271 2.8187 1.718 6.7033 2.168 6.8737 0.0868 0.03288 0.15786 0.16424 0.15786 0.29193 0 0.12768 0.18156 0.3588 0.40346 0.51359 0.4779 0.33337 0.61588 0.35748 0.75527 0.13195zm-14.819-1.3559c0.11234-0.24656 0.28668-0.44828 0.38741-0.44828 0.30962 0 0.20533-0.35348-0.2996-1.0155-0.45548-0.59717-0.49061-0.61169-0.62182-0.257-0.32449 0.87718-1.4187-0.0023-1.6899-1.3582-0.13304-0.66517 0.30577-1.1303 0.73234-0.7763 0.14793 0.12277 0.26897 0.3245 0.26897 0.44828s0.12103 0.32551 0.26897 0.44828c0.23334 0.19366 0.26949 0.09563 0.27291-0.74013 0.004-1.0171 0.40495-2.1025 1.0414-2.8204 0.33525-0.37813 0.35044-0.48174 0.14459-0.98622-0.12651-0.31004-0.30479-0.56371-0.39619-0.56371-0.35401 0-0.92279 0.56925-1.2542 1.2552-0.37658 0.77951-0.85394 0.97577-1.4008 0.5759-0.32237-0.23572-0.31747-0.27143 0.13578-0.98943 0.25862-0.40968 0.47023-0.812 0.47023-0.89404 0-0.20183 0.89841-0.85336 1.3933-1.0104 0.55109-0.17491 0.87272-0.78737 0.49051-0.93404-0.15586-0.05981-0.42794 0.02208-0.60462 0.18197s-0.41003 0.29072-0.51856 0.29072c-0.2038 0-1.0722 1.1982-1.5986 2.2059-0.21149 0.4048-0.30374 1.0507-0.31361 2.1958-0.013 1.5035 0.0297 1.7059 0.58269 2.7637 0.57066 1.0916 1.9245 2.8762 2.182 2.8762 0.0674 0 0.21438-0.20173 0.32671-0.44828zm17.426 0.37329c0-0.04125 0.049-0.20263 0.10884-0.35863 0.08-0.20858-0.002-0.28364-0.3086-0.28364-0.26749 0-0.78905-0.36773-1.452-1.0238-0.74878-0.74097-1.0887-0.9696-1.2307-0.82766-0.14193 0.14194-0.10036 0.26376 0.15052 0.441 0.19065 0.13469 0.81663 0.66852 1.3911 1.1863 0.92656 0.83513 1.3408 1.1028 1.3408 0.8664zm0.27141-2.0185 0.32015-0.83828-0.51992-0.42008c-0.54246-0.43829-1.2737-0.48738-1.187-0.07968 0.0317 0.14928-0.1447 0.09714-0.48052-0.14199-0.32274-0.22981-0.57454-0.30693-0.64259-0.19682-0.11874 0.19212 0.93622 1.6186 1.197 1.6186 0.0846 0 0.23044 0.20173 0.32418 0.44828 0.26038 0.68487 0.63454 0.53728 0.98866-0.38999zm2.0666-1.3252c0.0639-0.24013 0.16958-1.0821 0.23496-1.8711 0.12689-1.5312-0.10382-1.5429-0.32445-0.01638-0.26984 1.867-0.46054 1.9929-1.9622 1.2954-0.50262-0.23344-1.1559-0.47892-1.4518-0.5455l-0.53794-0.12106 0.6276 0.39237c0.763 0.47703 2.8935 1.389 3.1282 1.339 0.0933-0.01986 0.22178-0.23258 0.28564-0.47271zm-1.2834-1.6815c0.11033-0.43816 0.2006-1.0335 0.2006-1.3229 0-0.60428-0.44782-1.0906-0.7375-0.80094-0.12628 0.12628-0.51792 0.10034-1.2431-0.08232-1.179-0.297-1.7843-0.20784-1.4363 0.21155 0.1154 0.13906 0.52795 0.30658 0.91676 0.37227 0.52242 0.08826 0.70693 0.2052 0.70693 0.44805 0 0.21933 0.17889 0.36791 0.53794 0.44677 0.29587 0.06498 0.53794 0.18823 0.53794 0.27389 0 0.20804-1.0458-0.15577-1.6436-0.57175-0.57841-0.40252-1.5002-0.6105-1.6478-0.37176-0.15218 0.24622 0.39691 0.677 1.1858 0.93029 0.3706 0.11899 0.75916 0.37582 0.86346 0.57072 0.10431 0.19491 0.36594 0.42541 0.5814 0.51221 0.77788 0.31342 0.9684 0.21372 1.1774-0.61609zm-10.02-1.1688c0-0.18174-0.26225-0.49838-0.58277-0.70365-0.41707-0.2671-0.49053-0.37407-0.25839-0.37624 0.1792-0.0017 0.27261-0.08679 0.20871-0.19019-0.0636-0.10294-0.0199-0.30254 0.0971-0.44356 0.18404-0.22176 0.28528-0.21891 0.74935 0.02108 0.56003 0.2896 0.8922 0.20963 0.55013-0.13244-0.109-0.109-0.1555-0.30938-0.10335-0.44529 0.0662-0.17254-0.0598-0.252-0.41746-0.26329-0.50239-0.01586-0.50038-0.01959 0.10366-0.19304 0.83265-0.23909 0.41048-0.50162-0.81255-0.50529-0.8741-0.0026-2.0448-0.40886-2.0448-0.70955 0-0.07843 0.5919-0.18058 1.3153-0.22701 1.4714-0.09443 1.8834-0.24405 1.558-0.56576-0.15463-0.15285 0.007-0.25054 0.64418-0.39016 0.46774-0.10244 0.8794-0.27313 0.91479-0.3793 0.0688-0.20646-0.29996-0.20662-1.0253-0.000431-0.75856 0.21562-2.135 0.25767-2.1985 0.06717-0.0388-0.11657-0.29947-0.10149-0.73598 0.04257-0.3717 0.12267-0.71632 0.18253-0.76583 0.13302-0.10925-0.10925 1.354-0.66674 3.1696-1.2076 1.4344-0.42733 1.9411-0.71056 1.271-0.71056-0.37027 0-0.38168-0.02562-0.12552-0.28178 0.84765-0.84765-0.43749-0.74826-1.6619 0.12852-0.42798 0.30647-1.1126 0.63238-1.5215 0.72424-0.40886 0.09186-0.86561 0.27161-1.015 0.39943s-0.90474 0.45955-1.6786 0.73719c-1.4971 0.53714-1.5112 0.55057-1.603 1.5266-0.0328 0.3488-0.12821 0.74515-0.21203 0.88078-0.10254 0.1659-0.0212 0.35283 0.24842 0.57118 0.22046 0.17852 0.34957 0.40752 0.28692 0.5089-0.0627 0.10138 0.0198 0.18432 0.18337 0.18432 0.29458 0 1.3577 0.41523 1.8756 0.73259 0.36745 0.22515 2.7155 1.3504 3.0483 1.4608 0.36851 0.12228 0.53794-0.0016 0.53794-0.39327zm-6.363-1.0872c0.0624-0.10096-0.0254-0.54693-0.19494-0.99105-0.24242-0.63476-0.2846-1.1159-0.19719-2.2494 0.10025-1.2999 0.0809-1.4361-0.19657-1.3827-0.51724 0.09961-0.85183 1.0272-0.81124 2.249 0.037 1.114 0.21087 1.6478 0.73089 2.2439 0.31164 0.35728 0.50542 0.395 0.66905 0.13024zm17.627-0.49657c0.0717-0.48627-0.38481-0.61297-1.9448-0.53981-1.0341 0.0485-1.1172 0.07888-0.76598 0.27981 0.46829 0.26788 2.2193 0.7557 2.475 0.6895 0.0986-0.02554 0.20472-0.21881 0.23579-0.4295zm-3.822-0.39575c0.0655-0.10592-0.13205-0.17819-0.48253-0.17657-0.44907 0.0021-0.52795 0.04501-0.32438 0.17657 0.34857 0.22526 0.66769 0.22526 0.80691 0zm4.9311-0.6276c0-0.13629-0.0807-0.29768-0.17931-0.35863-0.1021-0.0631-0.17932 0.09132-0.17932 0.35863 0 0.2673 0.0772 0.42173 0.17932 0.35863 0.0986-0.06095 0.17931-0.22233 0.17931-0.35863zm-2.1568 0.09656c0.23238-0.14696 0.23238-0.17803 0-0.25983-1.8974-0.66789-2.1467-0.6903-2.1467-0.1929 0 0.14966 0.27032 0.29547 0.67243 0.36273 0.36983 0.06186 0.75311 0.13983 0.85174 0.17328 0.29168 0.09893 0.34591 0.09168 0.62257-0.08328zm1.1412-1.1769c-0.061-1.1062-0.24039-2.6562-0.31622-2.732-0.0433-0.04333-0.18503-0.01253-0.31487 0.06846s-0.35725 0.1662-0.50536 0.18935c-0.6507 0.10172-3.2798 0.76785-3.3643 0.85243-0.0514 0.05137 0.002 0.20855 0.11894 0.34927 0.16272 0.19607 0.16297 0.27232 0.001 0.32629-0.11621 0.03873 0.0216 0.22389 0.30632 0.41146 0.41133 0.27102 0.8581 0.34297 2.1762 0.35046 1.5602 0.0089 2.1268 0.18956 1.2849 0.40972-0.28528 0.0746-0.31713 0.13426-0.13448 0.25196 0.45171 0.2911 0.77869 0.08235 0.74783-0.47742zm-2.75-1.5197c0-0.09862 0.0855-0.17931 0.1899-0.17931 0.10444 0 0.14003 0.08069 0.0791 0.17931-0.061 0.09862-0.1464 0.17931-0.1899 0.17931s-0.0791-0.08069-0.0791-0.17931zm0.67863-1.7584c0.14817-0.19267 0.16376-0.32173 0.0437-0.36175-0.10264-0.03422-0.14102-0.13601-0.0853-0.22621 0.0558-0.0902-0.0292-0.164-0.18878-0.164s-0.25296 0.06052-0.20753 0.13448c0.0454 0.07397-0.14268 0.14263-0.41804 0.15258-0.77304 0.02795-1.0779 0.2045-1.0779 0.62423 0 0.35645 0.0624 0.37566 0.85174 0.2624 0.46846-0.06722 0.95539-0.257 1.0821-0.42175zm1.7331 0.1209c0.3088-0.28208-0.19141-0.55779-0.77817-0.42892-0.59558 0.13081-0.82232 0.34886-0.651 0.62607 0.11857 0.19185 1.1607 0.04809 1.4292-0.19715zm0.81587-1.4706c0-0.59437-0.19575-0.71381-0.48741-0.2974-0.27568 0.39358-0.17258 0.7158 0.22903 0.7158 0.15114 0 0.25838-0.17365 0.25838-0.4184zm-3.0526-0.11582c0.22507-0.1952 0.49173-0.30391 0.59258-0.24158 0.10086 0.06233 0.28829-0.03015 0.41653-0.20553 0.13369-0.18284 0.35211-0.2732 0.51203-0.21184 0.23525 0.09027 0.26109-0.01143 0.16517-0.64993-0.22367-1.4889-0.55843-2.5504-0.82065-2.6023-0.30117-0.05963-2.4752 1.4821-2.4752 1.7553 0 0.24003 0.11635 0.22671 0.58907-0.06744 0.21843-0.13592 0.66137-0.29568 0.9843-0.35502 0.53592-0.09849 0.57114-0.07798 0.40364 0.23498-0.10092 0.18858-0.35563 0.39751-0.56601 0.46428-0.25749 0.08172-0.31266 0.16457-0.1688 0.25348 0.14623 0.09038 0.0688 0.22703-0.24528 0.43281-0.61237 0.40124-0.61919 0.90284-0.0107 0.78652 0.24656-0.04713 0.44828-0.01619 0.44828 0.06875 0.00001 0.08495-0.10561 0.15445-0.23469 0.15445-0.12909 0-0.39133 0.11847-0.58277 0.26327-0.33498 0.25337-0.33055 0.26348 0.11761 0.26897 0.25612 0.0031 0.64982-0.154 0.87488-0.3492zm0.72155-1.4382c0-0.09862 0.0807-0.17931 0.17931-0.17931 0.0986 0 0.17932 0.08069 0.17932 0.17931s-0.0807 0.17931-0.17932 0.17931c-0.0986 0-0.17931-0.08069-0.17931-0.17931zm-6.1863-0.89657c0.17851-0.19724 0.24386-0.35863 0.14524-0.35863-0.0986 0-0.32536 0.16138-0.50386 0.35863-0.17851 0.19724-0.24386 0.35863-0.14524 0.35863 0.0986 0 0.32536-0.16138 0.50386-0.35863zm3.138-0.89657c0.2318-0.1498 0.22707-0.1742-0.0342-0.17657-0.16678-0.0015-0.35309 0.07794-0.41404 0.17657-0.14026 0.22694 0.0971 0.22694 0.44828 0zm2.2732-1.9009c0.0607-0.1581-0.002-0.35654-0.14007-0.44172-0.25295-0.15633-0.56251 0.30754-0.39661 0.5943 0.13302 0.22994 0.42135 0.14797 0.53668-0.15258zm1.4924 0.02868c0-0.28558-0.32534-0.55193-0.48236-0.3949-0.14751 0.14751 0.0828 0.65329 0.29742 0.65329 0.10172 0 0.18494-0.11628 0.18494-0.25839z"/>
 </g>
</svg>
