<?xml version="1.0" encoding="UTF-8" standalone="no"?>
<!-- Created with Inkscape (http://www.inkscape.org/) -->
<svg id="svg2" xmlns:rdf="http://www.w3.org/1999/02/22-rdf-syntax-ns#" xmlns="http://www.w3.org/2000/svg" height="54" width="99" version="1.1" xmlns:cc="http://creativecommons.org/ns#" xmlns:dc="http://purl.org/dc/elements/1.1/">
 <metadata id="metadata7">
  <rdf:RDF>
   <cc:Work rdf:about="">
    <dc:format>image/svg+xml</dc:format>
    <dc:type rdf:resource="http://purl.org/dc/dcmitype/StillImage"/>
    <dc:title/>
   </cc:Work>
  </rdf:RDF>
 </metadata>
 <g id="g3542">
  <g id="g3381">
   <g id="g3423">
    <g id="g3459">
     <g id="g3495">
      <g id="g3531">
       <g id="g3567">
        <g id="g3603">
         <g id="g3639">
          <g id="g3675">
           <g id="g3711">
            <g id="g3747">
             <g id="g3783">
              <g id="g3819">
               <rect id="rect2990" opacity="0" height="54" width="99" y="0" x="0"/>
               <path id="path3817" d="m30.728 27v-22.5l18.704 0.068361 18.704 0.068361 0.0681 22.432 0.0681 22.432h-18.772-18.772v-22.5zm2.7958 21.701c0.0906-0.14656 0.21836-5.559 0.28396-12.028 0.0656-6.4687 0.16086-11.803 0.21169-11.854 0.0508-0.05083 0.17959 4.9164 0.28612 11.038 0.10653 6.1219 0.27798 11.546 0.38099 12.054 0.15584 0.76782 0.31768 0.93787 0.96345 1.0123 0.51087 0.05884 0.89295-0.07033 1.1179-0.37791 0.32545-0.44507 0.36679-0.44462 0.86854 0.0095 0.58322 0.52781 1.3454 0.38897 1.3454-0.24509 0-0.54096 0.13862-0.51697 1.1059 0.19133l0.81808 0.59906 0.40174-0.59906c0.22096-0.32948 0.64347-0.59906 0.93892-0.59906 0.5351 0 0.5365-0.06798 0.35973-17.506-0.2127-20.983-0.29933-22.763-1.0463-21.5-0.19788 0.33462-0.3363 2.0545-0.37246 4.6282-0.0317 2.2526-0.10682 4.145-0.16703 4.2052-0.0602 0.06022-0.19193-1.3036-0.2927-3.0307-0.20798-3.5648-0.35138-4.3389-0.69944-3.7757-0.18303 0.29614-0.30387 0.26449-0.62805-0.16451-0.48701-0.64446-0.43883-1.0271-0.56557 4.4913-0.05 2.1766-0.15714 4.0237-0.2381 4.1047-0.0809 0.08096-0.16137-1.64-0.17869-3.8244-0.0324-4.0845-0.43857-7.1817-0.6086-4.6408-0.0146 0.2177-0.26589 0.43748-0.55851 0.4884-0.29261 0.05092-0.6785 0.28058-0.85751 0.51036-0.28493 0.36573-0.3445 0.36825-0.47804 0.02022-0.0897-0.23368-0.52544-0.41158-1.0572-0.43157-0.71445-0.02686-0.94368 0.08917-1.0906 0.55201l-0.18599 0.58601-0.2078-0.56174c-0.15338-0.41461-0.37463-0.52985-0.84475-0.43998-1.1861 0.22674-1.2289 1.06-0.9948 19.382 0.11972 9.372 0.29969 17.25 0.39992 17.506 0.19571 0.50034 1.3169 0.64101 1.5898 0.19947zm3.3075-3.6607c-0.0113-0.69558-0.057-1.684-0.10152-2.1966-0.0446-0.51253-0.16317-3.9272-0.26357-7.5882-0.15865-5.7852-0.13284-6.5953 0.1972-6.1907 0.30908 0.37898 0.38658 2.0262 0.41654 8.8528 0.0202 4.613-0.0228 8.3872-0.0957 8.3872s-0.14171-0.56911-0.15298-1.2647zm2.2908-10.251c-0.17579-1.0256-0.18339-2.0899-0.0442-6.1903 0.0249-0.73219-0.0582-1.5549-0.18461-1.8283-0.15891-0.34367-0.0986-0.62823 0.19556-0.92237 0.38966-0.38966 0.42537-0.05456 0.42537 3.9915 0 2.4293 0.0749 4.7913 0.16641 5.2489 0.0974 0.48688 0.0563 0.83203-0.0991 0.83203-0.14602 0-0.35278-0.5092-0.45946-1.1316zm-5.262-13.778c-0.3146-1.0681-0.25235-5.4805 0.0727-5.1555 0.16567 0.16568 0.24551 1.3846 0.19969 3.0486-0.0476 1.7267-0.15031 2.5215-0.27241 2.1069zm31.59 27.134c0.17595-0.18139 0.70213-11.235 0.5424-11.395-0.31602-0.31602-0.60806 0.67742-0.92148 3.1346-0.45613 3.5761-0.49214 3.9684-0.51592 5.6213-0.0304 2.1058-0.53085 1.154-0.56006-1.065-0.0161-1.2164-0.0908-1.5724-0.25162-1.1981-0.23023 0.53577-0.36223 4.7409-0.15531 4.9478 0.14006 0.14007 1.7194 0.10116 1.862-0.04587zm2.004-4.436c-0.009-2.5993-0.11055-4.4863-0.22505-4.1935-0.33706 0.86217-0.37628 8.9194-0.0434 8.9194 0.19289 0 0.27989-1.5314 0.26848-4.726zm-18.95 3.7584c0.60205-0.16132 0.60282-0.16873 0.58362-5.5721l-0.0193-5.4105-0.89764-0.29625c-1.0515-0.34704-3.851-0.304-4.3255 0.06649-0.43 0.33581-0.14509 10.878 0.30206 11.177 0.35296 0.23603 3.5117 0.26137 4.3566 0.03496zm11.612-0.2045c0.22665-0.18504 0.46297-1.4181 0.64392-3.3598 0.17455-1.8731 0.5545-3.8904 0.9758-5.1811 0.37947-1.1625 0.63061-2.2682 0.55808-2.4572-0.20299-0.52896-10.875-0.49406-11.316 0.03701-0.39085 0.47094-0.0991 10.483 0.32074 11.007 0.35008 0.43734 8.2756 0.39572 8.817-0.0463zm2.6737-0.492c0.0672-0.32949 0.19167-2.2165 0.27665-4.1935 0.0849-1.9769 0.22787-3.999 0.31752-4.4936 0.23142-1.2767-0.46386-0.98467-0.92159 0.38711-0.74498 2.2327-1.3941 8.2658-0.93832 8.7215 0.4003 0.4003 1.149 0.15093 1.2657-0.42156zm1.3341-6.6825c0.12626-0.6977 0.095-0.96879-0.0978-0.8496-0.15577 0.09628-0.28323 0.60729-0.28323 1.1356 0 1.175 0.13499 1.0737 0.38104-0.28598zm1.5219-3.9367c1.0936-0.39873 1.5583-0.70772 1.5583-1.0361 0-0.42381-0.11922-0.40864-1.2647 0.16092-0.69558 0.34586-1.5942 0.69458-1.9969 0.77492-0.78978 0.15757-1.0142 0.66844-0.29359 0.66844 0.24124 0 1.1398-0.25568 1.9969-0.56818zm-3.731-2.8265c-0.92066-1.8289-2.364-6.24-2.5657-7.8411-0.17606-1.3977-0.003-1.0846 1.3454 2.4351 0.90706 2.3676 2.7403 6.2223 2.769 5.8222 0.007-0.10055-0.22569-1.1789-0.51755-2.3963-0.67849-2.8302-0.6578-3.0952 0.10006-1.2816 1.0509 2.5149 2.0498 4.5082 2.3531 4.6957 0.19967 0.1234 0.22667-0.02157 0.0858-0.46062-0.54172-1.6883-1.4655-5.3991-1.3683-5.4963 0.0603-0.06022 0.3112 0.5843 0.55771 1.4323 0.24652 0.84798 0.71104 2.0589 1.0323 2.691l0.58407 1.1492-0.0853-1.9391c-0.0802-1.8242-0.0617-1.8997 0.31418-1.2735 0.21972 0.3661 0.40373 1.0151 0.40892 1.4422 0.005 0.42711 0.0855 0.7005 0.17847 0.60753 0.093-0.09297 0.15285-5.0513 0.13307-11.018-0.0311-9.4013-0.0951-11.011-0.47929-12.056-0.55065-1.4991-0.82027-1.8259-1.0381-1.2583-0.095 0.24756 0.0228 0.62757 0.27169 0.87646 0.59532 0.59532 0.44094 1.5993-0.22814 1.4837-0.4808-0.08308-0.49867 0.07319-0.35792 3.1283 0.0815 1.7686 0.0524 3.2749-0.0646 3.3472-0.29146 0.18013-0.46251-0.66384-0.67412-3.3261-0.16142-2.0307-0.84871-4.6086-0.90505-3.3947-0.0274 0.59143-0.26202 0.59143-0.73467 0-0.32331-0.40456-0.36199-0.05379-0.2937 2.6625 0.0825 3.2782-0.17658 4.2182-0.4402 1.5975-0.26837-2.6679-0.99634-6.4542-1.2739-6.6258-0.47803-0.29544-0.71821 0.51025-0.32111 1.0772 0.42856 0.61186 0.5109 1.7545 0.12642 1.7545-0.13916 0-0.37515-0.20967-0.52441-0.46594-0.35546-0.6103-0.37933 3.0772-0.0296 4.5854 0.24082 1.0387 0.17805 1.464-0.16537 1.1206-0.0956-0.09555-0.38977-1.703-0.65382-3.5722-0.59722-4.2276-0.68998-4.5966-1.1555-4.5966-0.66166 0-1.0231 2.7019-0.81675 6.1055 0.2687 4.4322-0.31677 3.5285-0.68784-1.0617-0.15916-1.9687-0.34789-3.8788-0.41943-4.2447-0.11947-0.61118-0.15774-0.62745-0.47033-0.19996-0.98623 1.3487 0.0387 11.991 1.6064 16.681 1.2881 3.8531 4.1912 9.3053 4.9714 9.3369 0.11193 0.0045-0.14328-0.68069-0.56715-1.5227zm-3.8698-22.325c-0.0975-0.25399-0.0574-0.58161 0.089-0.72805 0.17751-0.1775 0.32533-0.11232 0.44346 0.19554 0.0975 0.25399 0.0574 0.58161-0.089 0.72805-0.1775 0.1775-0.32532 0.11232-0.44346-0.19554zm-10.444 22.837 1.5636-0.0455-0.11154-5.7549c-0.13294-6.859 0.0225-6.554-3.2795-6.4358l-2.1324 0.07629-0.0718 5.9717c-0.0416 3.4628 0.0319 6.0356 0.17486 6.1238 0.24163 0.14898 0.69304 0.15652 3.8568 0.06444zm11.944-0.08372c0.37145-0.22956 0.42951-0.05462-1.495-4.5042-0.66888-1.5465-1.5005-3.8828-1.848-5.1919l-0.63184-2.3802h-2.3701-2.3701l-0.0719 5.8239c-0.0496 4.023 0.0209 5.9355 0.22788 6.185 0.23101 0.27836 1.2086 0.35086 4.2642 0.31627 2.1805-0.02468 4.1131-0.13671 4.2947-0.24895zm-11.444-14.036 0.73219-0.03706v-3.978c0-2.224-0.11148-4.0469-0.25283-4.1343-0.14001-0.08653-0.18311-0.7449-0.0966-1.4754 0.2272-1.9183-0.0424-2.1273-2.745-2.1273h-2.2305l-0.0481 1.5309c-0.12725 4.0512-0.11174 9.6593 0.0273 9.8843 0.23719 0.38377 1.6495 0.48689 4.6136 0.33687zm6.9926-0.36987c0.0659-0.18305 0.0323-2.789-0.0749-5.791l-0.19489-5.4581-1.9734-0.079097c-1.3964-0.055969-2.0395 0.021886-2.1993 0.26625-0.22456 0.3434-0.25465 10.039-0.0339 10.929 0.098 0.39507 0.43809 0.46594 2.236 0.46594 1.4548 0 2.1581-0.10446 2.2404-0.33281zm-16.916-10.915c0.006-0.31085-0.74161-0.23471-0.9462 0.09633-0.10063 0.16281-0.021 0.39611 0.17695 0.51845 0.33783 0.20879 0.75931-0.12805 0.76925-0.61478zm25.657 0.19116c-0.0825-0.21497-0.25698-0.39085-0.38775-0.39085-0.2732 0-0.32124 0.62652-0.0675 0.88026 0.28403 0.28402 0.61537-0.072176 0.45526-0.48942zm-27.517 0.02424c0-0.064577-0.11982-0.19146-0.26625-0.28196-0.14644-0.090504-0.26625-0.037668-0.26625 0.11741s0.11981 0.28196 0.26625 0.28196c0.14643 0 0.26625-0.052835 0.26625-0.11741zm1.6747-2.4254c0.0398-0.54275-0.0793-0.79244-0.41078-0.86108-0.62614-0.12969-0.87418 0.61563-0.48739 1.4645 0.37571 0.82457 0.81524 0.52926 0.89817-0.60346zm-2.5779 0.26023c0.18555-0.73924-0.20132-1.3502-0.67111-1.0598-0.1592 0.09839-0.28945 0.53126-0.28945 0.96193 0 0.99144 0.71794 1.0646 0.96056 0.097918zm4.7925 0c0.0946-0.37682 0.045-0.81207-0.11016-0.96723-0.40838-0.40839-1.2065-0.030891-1.0112 0.47824 0.0884 0.2304 0.16076 0.58883 0.16076 0.79651 0 0.65751 0.78112 0.40744 0.96056-0.30752zm18.742-0.25511c0-0.61649-0.14676-0.99655-0.42625-1.1038-0.47559-0.1825-0.91422 0.33893-0.74724 0.88832 0.0596 0.19633 0.16463 0.53668 0.23327 0.75633 0.0686 0.21966 0.30824 0.39938 0.5325 0.39938 0.28916 0 0.40772-0.27341 0.40772-0.94023zm2.3963-0.41342c0-0.59006-0.67762-0.84373-1.0512-0.39353-0.21111 0.25436-0.21099 0.56193 0.00053 1.1157 0.28118 0.73659 0.30575 0.74566 0.67134 0.24775 0.20862-0.28426 0.37938-0.72073 0.37938-0.96995zm-19.17 0.13981c0-0.38837-0.1544-0.64991-0.38366-0.64991-0.56937 0-0.7441 0.45026-0.41405 1.067 0.36261 0.67753 0.79771 0.45006 0.79771-0.41704zm14.445 0.61478c0.20465-0.60824-0.12296-1.2647-0.63116-1.2647-0.34783 0-0.50145 0.19032-0.50145 0.62125 0 0.34169 0.0799 0.70113 0.1775 0.79875 0.2905 0.29049 0.8349 0.20197 0.95511-0.15531zm9.8169-0.56544c0.13825-0.51694 0.0879-0.77168-0.17242-0.87156-0.5446-0.20898-0.92577 0.12422-0.92577 0.80928 0 1.2023 0.78145 1.2466 1.0982 0.062284zm-2.2331-0.35642c0.11854-0.35561-0.60847-0.63856-1.1282-0.43911-0.40777 0.15648-0.54348 0.92844-0.22006 1.2518 0.20622 0.20622 1.2104-0.39909 1.3483-0.81273zm-31.229 0.16693c-0.0857-0.13871-0.26934-0.18206-0.40805-0.096331-0.13871 0.085727-0.18206 0.26935-0.0963 0.40806 0.0857 0.13871 0.26935 0.18206 0.40805 0.096331 0.13871-0.085727 0.18207-0.26935 0.0963-0.40806z"/>
              </g>
             </g>
            </g>
           </g>
          </g>
         </g>
        </g>
       </g>
      </g>
     </g>
    </g>
   </g>
  </g>
 </g>
</svg>
