<?xml version="1.0" encoding="UTF-8" standalone="no"?>
<!-- Created with Inkscape (http://www.inkscape.org/) -->
<svg id="svg2" xmlns:rdf="http://www.w3.org/1999/02/22-rdf-syntax-ns#" xmlns="http://www.w3.org/2000/svg" height="45" width="67.5" version="1.1" xmlns:cc="http://creativecommons.org/ns#" xmlns:dc="http://purl.org/dc/elements/1.1/">
 <metadata id="metadata7">
  <rdf:RDF>
   <cc:Work rdf:about="">
    <dc:format>image/svg+xml</dc:format>
    <dc:type rdf:resource="http://purl.org/dc/dcmitype/StillImage"/>
    <dc:title/>
   </cc:Work>
  </rdf:RDF>
 </metadata>
 <g id="g3436">
  <rect id="rect2990" opacity="0" height="45" width="67.5" y="0" x="3.5527e-15"/>
  <path id="path3415" d="m28.204 44.974c-1.4444-0.31855-3.8852-2.7509-5.0393-5.022-1.2031-2.3674-2.2907-7.6533-1.5748-7.6533 0.16929 0 0.5012 0.48336 0.73758 1.0741 0.23639 0.59078 0.51958 1.0741 0.62932 1.0741 0.17684 0 0.74665-1.9354 1.2141-4.1236 0.1042-0.48783 0.0108-1.0004-0.25666-1.4086-0.42487-0.64844-0.31942-1.9868 0.15654-1.9868 0.13169 0 0.23943-0.35051 0.23943-0.77892 0-1.0117-1.0041-6.9436-1.3228-7.8142-0.13514-0.36924-0.30451-1.5776-0.3764-2.6854-0.23045-3.5513-1.5389-10.516-2.1244-11.308-0.69073-0.93427-0.43741-2.7162 0.52263-3.6762l0.66535-0.66535 5.2787 0.18407c10.62 0.3703 11.34 0.52622 12.349 2.6713 0.71639 1.5241 0.71647 1.5424 0.011 2.4392-0.54205 0.6891-0.56073 0.89355-0.35305 3.8629 0.29707 4.2472 0.32022 4.6127 0.35666 5.6314 0.0676 1.8892 2.103 2.8898 4.9384 2.4278 1.1745-0.1914 1.897-0.18559 2.4271 0.01951 0.66694 0.25808 0.74502 0.40922 0.67134 1.2995-0.072 0.87072-0.19899 1.0416-0.9351 1.2585-0.72127 0.21257-0.89809 0.43881-1.1543 1.4769-0.16639 0.67426-0.41176 1.5884-0.54525 2.0315-0.13349 0.44308-0.32318 1.4303-0.42153 2.1938l-0.17881 1.3882 1.0516 0.5365c2.1833 1.1138 2.5196 3.4065 0.5829 3.9737l-0.89972 0.26349 0.0698 2.2671c0.0384 1.2469 0.19488 2.5771 0.34775 2.956 0.15287 0.37894 0.32067 1.1644 0.37289 1.7455 0.0522 0.58108 0.10721 1.1471 0.12219 1.2579 0.0149 0.11077 0.20165 0.2014 0.41482 0.2014 0.37749 0 1.2236 0.97577 1.2236 1.4111 0 0.5084-1.2526 0.63163-2.8008 0.27553-2.8492-0.65538-2.9702-0.68916-3.107-0.86736-0.0739-0.09617-0.79889-0.57746-1.6112-1.0695-0.81232-0.49208-2.0402-1.3643-2.7285-1.9384l-1.2516-1.0437-3.3135 0.20634-3.3135 0.20634-0.17146 2.014c-0.0943 1.1077-0.25311 2.3251-0.35292 2.7053-0.12453 0.47431-0.0497 0.80069 0.23857 1.0399 0.50374 0.41806 0.55224 1.46 0.0844 1.8132-0.18462 0.13938-0.57735 0.20012-0.87274 0.13497zm-1.2084-4.1021c0-0.9448-0.18116-1.2838-1.3275-2.484-1.6457-1.723-2.1884-1.5093-1.257 0.49511 0.65407 1.4077 1.9256 3.083 2.3399 3.083 0.13457 0 0.24467-0.49235 0.24467-1.0941zm16.918-1.9967c0-0.8368-0.66655-1.4244-2.3344-2.0578-1.4556-0.55282-1.9203-0.59476-2.4992-0.22558-0.49585 0.31618 0.0661 0.78049 2.5207 2.0829 1.9776 1.0493 2.313 1.0784 2.313 0.20049zm-16.848-2.4443c0.0768-0.68119 0.0766-1.7083-0.00043-2.2826-0.11556-0.86154-0.24546-1.044-0.74314-1.044-0.76739 0-1.1964 0.51975-1.3657 1.6544-0.10991 0.73691 0.024 1.0755 0.75147 1.9002 0.48688 0.5519 0.96014 1.0051 1.0517 1.007 0.0916 0.0019 0.2293-0.55378 0.30608-1.235zm7.0465-1.3226c0-0.14216-0.29135-0.76706-0.64744-1.3887-0.64006-1.1173-0.66148-1.1286-1.8798-0.9842-0.67777 0.08031-1.3655 0.18552-1.5282 0.23379-0.38821 0.11515-0.72969 2.6015-0.38643 2.8137 0.38935 0.24063 4.4419-0.37484 4.4419-0.6746zm6.5088-0.3067 1.9987-0.16895-0.18469-1.2341c-0.10158-0.67875-0.25043-1.3408-0.33077-1.4713-0.20141-0.32702-3.7875 0.0021-4.2556 0.39063-0.38973 0.32345-0.53564 2.4207-0.1923 2.764 0.10306 0.10306 0.36257 0.12015 0.57669 0.03799 0.21413-0.08216 1.2887-0.22542 2.388-0.31834zm-4.8975-1.5854c0-0.6192-0.13302-0.80205-0.63517-0.8731-1.0422-0.14746-1.304 0.3862-0.57174 1.1656 0.78761 0.83837 1.2069 0.73675 1.2069-0.29252zm-9.131-1.992c-0.12992-0.21022-0.28439-0.22582-0.46342-0.0468-0.14769 0.1477-0.18084 0.41043-0.0737 0.58387 0.12993 0.21022 0.2844 0.22582 0.46342 0.0468 0.1477-0.1477 0.18085-0.41043 0.0737-0.58387zm0.0362-7.0491c-0.0768-0.92309-0.14659-1.9502-0.15504-2.2826-0.008-0.33231-0.13621-0.60421-0.2839-0.60421-0.30569 0-0.34939 1.4835-0.0978 3.3192 0.25718 1.8763 0.69921 1.5202 0.53671-0.43246zm2.3429 1.2084c0.20734-0.73414-0.19945-3.9609-0.49933-3.9609-0.28284 0-0.52867 3.447-0.29015 4.0685 0.19568 0.50994 0.63187 0.45048 0.78948-0.10763zm9.274 0.10117c0.16833-0.20282 0.25132-0.53514 0.18442-0.73847-0.0669-0.20334-0.25567-4.297-0.41947-9.0971-0.16381-4.8001-0.35514-8.9993-0.42519-9.3316-0.07-0.33231-0.30206-0.60421-0.51559-0.60421-0.84052 0-0.94956 0.98672-0.80706 7.3037 0.0776 3.4416 0.13895 7.6684 0.13627 9.393-0.004 2.7629 0.051 3.1502 0.46506 3.2584 0.84404 0.22057 1.0712 0.19038 1.3816-0.18366zm1.8544-3.3907c0-1.4031-0.0924-2.8532-0.20544-3.2224l-0.20544-0.67134-0.27469 0.67134c-0.2862 0.6995-0.17123 6.3267 0.13954 6.8295 0.3151 0.50984 0.54603-1.0157 0.54603-3.6071zm-9.1826 3.111c0.17397-0.45336-0.64508-18.649-0.85473-18.988-0.18051-0.29207-1.1098-0.3097-1.2862-0.02441-0.14669 0.23735 1.076 17.85 1.3043 18.788 0.1653 0.67926 0.61562 0.79995 0.83655 0.2242zm2.0157-6.8758c-0.0573-3.911-0.17815-8.2589-0.26853-9.662-0.16093-2.4983-0.17821-2.5511-0.83567-2.5511-0.78819 0-0.76846-0.61796-0.29572 9.2645 0.45698 9.5529 0.52977 10.251 1.0585 10.147 0.40488-0.07948 0.4361-0.73753 0.34141-7.1984zm2.2313 2.668c-0.0653-13.597-0.10788-14.956-0.47311-15.096-0.85996-0.32999-1.0454 0.24171-0.99574 3.0696 0.13909 7.9186 0.46223 15.986 0.65265 16.294 0.11839 0.19155 0.35522 0.30146 0.52631 0.24424 0.22004-0.07359 0.30487-1.3939 0.28989-4.5122zm6.9971 1.0142c0.25705-1.5962 0.41653-2.9531 0.35439-3.0152-0.0621-0.06214-0.40761-0.1458-0.76773-0.1859l-0.65475-0.07293-0.0764 3.0717c-0.12466 5.012 0.35626 5.0971 1.1445 0.20232zm1.3542 1.0225c0.0396-0.29539 0.26238-1.1993 0.49513-2.0086 0.44021-1.5307 0.17466-2.5558-0.34242-1.3218-0.25997 0.62038-0.84763 4.1345-0.81253 4.8588 0.0216 0.44512 0.56368-0.81063 0.65982-1.5284zm-18.491-0.2014c-0.0745-0.18462-0.13544-0.03357-0.13544 0.33567s0.061 0.52029 0.13544 0.33567c0.0745-0.18462 0.0745-0.48672 0-0.67134zm-0.26854-2.1483c-0.0745-0.18462-0.13544-0.03357-0.13544 0.33567s0.061 0.52029 0.13544 0.33567c0.0745-0.18462 0.0745-0.48672 0-0.67134zm3.67-3.1553c-0.0252-0.36924-0.19643-3.0019-0.38035-5.8504-0.34941-5.4117-0.62045-6.5041-1.4134-5.6966-0.34839 0.35481-0.33653 1.1068 0.0995 6.3106 0.27227 3.2493 0.50329 5.9464 0.51338 5.9936 0.0101 0.0472 0.29025 0.0472 0.62256 0 0.45821-0.06508 0.59311-0.24803 0.55826-0.75715zm-2.2375-0.73847c-0.0009-1.4507-0.73131-9.5556-0.9436-10.473-0.1385-0.59841-0.76939-0.82125-1.0481-0.37023-0.0795 0.12869-0.033 1.2465 0.10337 2.484 0.13639 1.2375 0.37988 3.6397 0.54109 5.3381 0.36833 3.8806 0.46036 4.2966 0.95051 4.2966 0.29554 0 0.39745-0.32763 0.39676-1.2755zm-2.5585-5.474c-0.4893-4.9008-0.67376-5.9056-1.0658-5.8057-0.34541 0.08797-0.24594 1.4176 0.41694 5.5734 0.67146 4.2097 0.81223 4.9024 0.9651 4.7495 0.0674-0.06738-0.0749-2.1001-0.31626-4.5172z"/>
 </g>
</svg>
