<?xml version="1.0" encoding="UTF-8" standalone="no"?>
<!-- Created with Inkscape (http://www.inkscape.org/) -->
<svg id="svg2" xmlns:rdf="http://www.w3.org/1999/02/22-rdf-syntax-ns#" xmlns="http://www.w3.org/2000/svg" height="45" width="67.5" version="1.1" xmlns:cc="http://creativecommons.org/ns#" xmlns:dc="http://purl.org/dc/elements/1.1/">
 <metadata id="metadata7">
  <rdf:RDF>
   <cc:Work rdf:about="">
    <dc:format>image/svg+xml</dc:format>
    <dc:type rdf:resource="http://purl.org/dc/dcmitype/StillImage"/>
    <dc:title/>
   </cc:Work>
  </rdf:RDF>
 </metadata>
 <g id="g3496">
  <rect id="rect2990" opacity="0" height="45" width="67.5" y="0" x="3.5527e-15"/>
  <path id="path3457" d="m34.79 44.564c-0.23066-0.24758-0.53478-0.72874-0.67581-1.0692-0.31508-0.76067-0.7281-0.784-3.0915-0.17463-2.8917 0.7456-4.086 0.8427-5.9877 0.48686-2.1294-0.39845-3.2009-1.0102-4.4052-2.5152-0.5175-0.6467-1.025-1.1804-1.1278-1.1859-0.10279-0.006-0.55658 0.40988-1.0084 0.92321-0.8688 0.987-0.95599 1.031-3.8714 1.9545-1.8627 0.59-2.5249 0.59761-2.5249 0.029 0-0.16736-0.26463-0.37014-0.58807-0.45062-0.32344-0.0805-1.0211-0.41036-1.5504-0.73308-2.7884-1.7002-3.7822-1.951-5.56-1.4031-1.0895 0.3358 0.17657-0.69446 1.4603-1.1883 1.6912-0.65059 2.2325-0.90068 2.6034-1.2028 0.17675-0.14401 1.08-0.56561 2.0073-0.9369 1.2689-0.50808 1.7262-0.6098 1.849-0.41123 0.22422 0.36281 0.92315 0.06489 0.77197-0.32906-0.0872-0.22722 0.12676-0.37407 0.77974-0.5352 0.49494-0.12214 1.381-0.41984 1.9691-0.66155 0.58808-0.24171 1.6882-0.63485 2.4448-0.87364 0.75656-0.23879 1.5745-0.55831 1.8177-0.71005 0.24317-0.15174 0.97138-0.44162 1.6183-0.64418 1.5765-0.49365 4.9083-2.1079 5.5065-2.6679 0.26464-0.24772 0.48116-0.56103 0.48116-0.69624s0.20076-0.03034 0.44614 0.23304c0.35293 0.37882 0.50931 0.42646 0.74846 0.22798 0.16627-0.138 0.30232-0.39367 0.30232-0.56817s0.29855-0.69424 0.66346-1.155c0.72484-0.91518 0.73346-1.7641 0.0202-1.9905-0.2115-0.06713-0.5088-0.46567-0.66067-0.88565-0.27768-0.76793-0.15382-1.2892 0.17856-0.75144 0.23293 0.37689 0.65382 0.10886 0.65382-0.41637 0-0.25229-0.19279-0.45939-0.49927-0.53631l-0.49926-0.12531 0.45198-1.3126c0.44286-1.2861 0.46911-1.314 1.3012-1.3834 1.5781-0.13158 2.5382-1.0313 2.4029-2.2517l-0.0766-0.6907-0.25213 0.58808c-0.15436 0.36006-0.41711 0.58808-0.67765 0.58808-0.23406 0-0.76284 0.29614-1.1751 0.6581-1.2813 1.125-1.5476 0.23703-0.2776-0.9254 0.35338-0.32344 0.81071-0.58808 1.0163-0.58808 0.20558 0 0.42411-0.19246 0.48563-0.42769 0.0859-0.32847 0.29168-0.42769 0.88703-0.42769 0.48282 0 0.82044-0.11791 0.89516-0.31263 0.066-0.17195 0.29314-0.36759 0.50481-0.43477s0.42995-0.2946 0.48506-0.50538c0.13576-0.51913 3.339-1.2443 3.9803-0.90103 0.32954 0.17637 0.50485 0.1502 0.76998-0.11492 0.18952-0.18953 0.5314-0.29408 0.7633-0.23344 0.23102 0.06041 0.42003 0.04668 0.42003-0.03052s0.4689-0.14036 1.042-0.14036c0.74197 0 1.0127 0.07645 0.94012 0.2655-0.18609 0.48496 0.56088 0.53221 1.1454 0.07245 0.54834-0.43133 0.59233-0.43476 0.98766-0.07699 0.40104 0.36294 0.41153 0.35482 0.34123-0.26403-0.0577-0.5083-0.18772-0.65182-0.63751-0.70391-0.5185-0.06005-0.54718-0.11284-0.34861-0.64154 0.17553-0.4674 0.12684-0.7274-0.25807-1.378-0.5115-0.86458-0.85988-1.0335-0.85988-0.417 0 0.21171-0.10709 0.49201-0.23798 0.6229-0.30953 0.30954-0.0538 0.71942 0.35176 0.5638 0.64478-0.24743 0.28273 0.29743-0.56756 0.85414-0.68366 0.4476-0.94762 0.52224-1.1762 0.33257-0.54551-0.45273-0.26687-1.1847 1.0325-2.7123 0.32861-0.38634 0.59747-0.85414 0.59747-1.0396 0-0.18541 0.36688-0.7835 0.81529-1.3291 0.44841-0.54559 0.93044-1.391 1.0712-1.8787 0.34572-1.198 0.80737-1.3504 0.99884-0.32975 0.081 0.43203 0.19224 0.85813 0.24709 0.94688 0.14348 0.23216 1.7824-0.74782 1.7844-1.067 0.002-0.33857-0.47511-0.34655-0.80814-0.01352-0.19581 0.19581-0.37821 0.13688-0.79852-0.25798-0.70013-0.65773-0.55424-1.4893 0.45894-2.616 0.50724-0.56408 0.72167-1.0092 0.72167-1.4981 0-0.7463-0.0919-0.69023 2.5127-1.5333 0.81544-0.26396 1.2449-0.14128 0.695 0.19856-0.29494 0.18228-0.26896 0.53461 0.0394 0.53461 0.13929 0 0.6445-0.18335 1.1227-0.40744 1.0394-0.48709 3.3287-0.80575 3.3287-0.46333 0 0.12608-0.0962 0.22923-0.21385 0.22923-0.11761 0-0.21384 0.19246-0.21384 0.42769 0 0.42127-0.51166 0.597-0.72643 0.2495-0.0606-0.09801-0.40593-0.13477-0.76748-0.08171-0.54108 0.07941-0.63358 0.17141-0.52293 0.52007 0.10785 0.33978 0.0562 0.3996-0.26089 0.30232-0.89295-0.27392-2.2754 2.9272-1.3965 3.2338 0.15503 0.05409 0.26392-0.03216 0.24196-0.19165-0.088-0.63896 0.0277-0.99921 0.36214-1.1275 0.52737-0.20238 0.6026 0.01367 0.2122 0.60949-0.19235 0.29357-0.34974 0.6751-0.34974 0.84785 0 0.17854-0.24044 0.34329-0.55714 0.38175-0.4982 0.06051-0.62265 0.27049-1.1762 1.9845-0.34046 1.0542-0.61901 2.2331-0.61901 2.6196 0 0.60255 0.0745 0.70279 0.52199 0.70279 0.56912 0 0.89792-0.31788 0.55073-0.53246-0.11954-0.07388-0.21123-0.44139-0.20378-0.8167 0.0118-0.59178 0.0378-0.62245 0.19595-0.23097 0.32531 0.80509 1.0948 0.78983 1.1957-0.02372 0.0146-0.11762 0.0412-0.33413 0.0591-0.48115s0.14082-0.26731 0.27314-0.26731c0.15326 0 0.19401 0.23285 0.11227 0.64154-0.14386 0.7193 0.12431 0.83647 0.66865 0.29213 0.23789-0.23789 0.37597-0.26972 0.43263-0.09973 0.1258 0.3774-0.37905 0.87622-0.89223 0.88159-0.66465 0.0069-1.5862 0.76528-1.2906 1.062 0.16934 0.16996 0.30891 0.14372 0.50734-0.09538 0.39551-0.47656 0.62972-0.40854 0.88248 0.25629 0.19671 0.51737 0.15378 0.64119-0.36597 1.0556l-0.58882 0.46951 0.57286 0.26101c0.77812 0.35454 0.36669 0.91732-0.5271 0.72101-0.33756-0.07414-0.60747-0.04238-0.60747 0.07147 0 0.11269-0.28877 0.32451-0.64173 0.47071-0.51158 0.2119-0.70674 0.21186-0.9623-0.000235-0.48974-0.40645-0.38235-0.66503 0.21404-0.51535 0.40428 0.10147 0.53461 0.05033 0.53461-0.20977 0-0.18918-0.14435-0.34396-0.32077-0.34396s-0.32077-0.09623-0.32077-0.21385c0-0.27776 0.28251-0.27349 0.56454 0.0085 0.15394 0.15394 0.375 0.09879 0.71833-0.17921 0.60863-0.49284 0.40991-0.89855-0.44011-0.89855-0.49473 0-0.62891-0.09505-0.62891-0.44551 0-0.24503-0.11114-0.40847-0.24696-0.36319-0.25922 0.08641-0.63952 1.1477-1.1556 3.2251-0.16948 0.68212-0.44406 1.503-0.61018 1.8243-0.36023 0.69662-0.10765 1.3193 0.53515 1.3193 0.23416 0 0.70604 0.20725 1.0486 0.46055 0.60637 0.44831 0.64806 0.45094 1.5691 0.09921 0.79062-0.30194 1.0032-0.51065 1.293-1.2696 0.39537-1.0353 0.44454-1.6424 0.13303-1.6424-0.11762 0-0.21385 0.33681-0.21385 0.74846 0 0.80684-0.38214 0.99791-0.85538 0.42769-0.34926-0.42083-0.63721-0.40521-0.98539 0.05346-0.26031 0.34291-0.28427 0.32949-0.28632-0.16038-0.003-0.64625 1.457-1.7903 2.0124-1.5772 0.53733 0.20619 1.419-0.72321 1.2656-1.3342-0.14038-0.55931 0.1959-2.8046 0.79512-5.3089 0.50215-2.0986 0.52131-3.0236 0.0662-3.1982-0.18703-0.07177-0.41753-0.08262-0.51221-0.02411-0.59399 0.36711-0.36888-2.4674 0.23971-3.0181 0.40968-0.37076 0.57325-0.12692 0.17918 0.26714-0.33647 0.33646 0.16584 2.4321 0.58296 2.4321 0.23453 0 0.29886-0.15232 0.22578-0.53461-0.0563-0.29404-0.0181-0.53461 0.0847-0.53461 0.10278 0 0.4119-0.5088 0.68692-1.1307 0.48311-1.0924 1.2821-1.8632 1.9314-1.8632 0.17238 0 0.34417-0.21652 0.38176-0.48115 0.0376-0.26463 0.21268-0.48115 0.3891-0.48115 0.20619 0 0.29792 0.16567 0.2568 0.46381-0.0557 0.4042 0.0881 0.49537 1.119 0.70939 0.65061 0.13507 1.2421 0.34127 1.3144 0.45822 0.0723 0.11696 0.35805 0.29881 0.63503 0.40412 0.66388 0.25241 1.0411 1.0264 1.5734 3.2281 0.32216 1.3327 0.39469 2.0711 0.27182 2.7677-0.1566 0.88787-0.1776 0.91158-0.32073 0.36201-0.0842-0.32344-0.2235-0.58725-0.30947-0.58625-0.086 0.001-0.33196 0.5655-0.54666 1.2544-0.43907 1.409-1.3632 3.4879-1.6258 3.6574-0.1924 0.12422-1.2964 1.6534-1.9798 2.7421-0.27847 0.44367-0.67352 0.75195-1.0636 0.82996-0.63692 0.12738-1.4629 0.96688-1.4629 1.4869 0 0.36593 0.0163 0.36522 1.3069-0.05689 1.0904-0.35665 2.1147-1.3627 2.1147-2.0771 0-0.19472 0.0969-0.35404 0.21526-0.35404 0.6125 0 2.2078-2.6374 2.671-4.4159 0.16464-0.63208 0.3581-1.2443 0.42992-1.3605 0.24574-0.39762 0.5413-0.21182 0.42929 0.26987-0.0615 0.26463-0.14466 1.1548-0.18472 1.9781-0.0401 0.8233-0.22823 2.1705-0.41814 2.9938-0.76468 3.3151-1.1754 7.3765-1.2933 12.788-0.0306 1.4044-0.0628 1.4862-0.93857 2.3862l-0.9069 0.93194 0.23336 1.734c0.2788 2.0716 0.19688 2.3682-0.65415 2.3682-0.52898 0-0.66719-0.10516-0.77286-0.58808-0.0708-0.32344-0.21695-0.86707-0.32484-1.2081-0.10789-0.34099-0.19616-1.033-0.19616-1.5378 0-0.50477-0.0974-0.97796-0.21641-1.0515-0.11902-0.07356-1.0573 0.15388-2.085 0.50542s-2.1821 0.70256-2.5654 0.78004c-0.93557 0.18916-1.1164 0.61697-1.1462 2.7117-0.0286 2.0077-0.33286 1.415-0.37709-0.7344-0.0186-0.90446-0.10515-1.2296-0.32727-1.2296-0.33678 0-0.58779 1.1358-0.65429 2.9605-0.0358 0.98225 0.021 1.1665 0.40384 1.3114 0.24503 0.09276 0.53232 0.1171 0.63845 0.05409 0.11044-0.06557 0.13471 0.24966 0.0567 0.73719-0.0875 0.54707-0.0418 0.96807 0.12781 1.1769 0.28611 0.35235 4.3702 3.076 4.9407 3.2949 0.4635 0.17786 0.44076 0.45145-0.0598 0.71934-0.29371 0.15719-0.66191 0.12925-1.31-0.0994-1.2983-0.45808-2.6661-0.39151-4.3761 0.213-1.0099 0.35702-1.9612 0.53064-2.924 0.53368-1.2334 0.004-1.5179-0.072-2.0968-0.55905-0.57389-0.48289-0.74458-0.52946-1.1926-0.32535-0.3433 0.15642-0.5228 0.41458-0.5228 0.75188 0 0.49882-0.0727 0.52099-2.5127 0.76691-1.382 0.13928-3.0962 0.39134-3.8094 0.56014-1.8055 0.42732-2.5636 0.39185-3.0621-0.14325zm2.7247-0.50736c0.90417-0.9306 1.4098-1.0932 2.0648-0.66407 0.77279 0.50635 1.2326 0.4447 1.0637-0.14265-0.0761-0.26463-0.18786-0.65773-0.24843-0.87355-0.091-0.32409-0.28693-0.37993-1.1257-0.32077-0.64634 0.0456-1.1458-0.0363-1.3738-0.22519-0.52467-0.43471-1.2248 0.24034-1.1581 1.1165 0.0273 0.35865-0.0672 0.6838-0.21303 0.7324-0.4237 0.14124-0.29359 1.1268 0.14769 1.1187 0.0686-0.001 0.4479-0.33488 0.84286-0.74139zm-1.4809-0.62907c0.19879-0.23952 0.17237-0.34801-0.12535-0.51462-0.21715-0.12153-0.381-0.46749-0.38609-0.81526-0.006-0.40044-0.13502-0.62878-0.38308-0.67721-0.41878-0.0818-0.54074 0.68552-0.14759 0.9285 0.14411 0.0891 0.0925 0.23816-0.14166 0.40939-0.49669 0.36318-0.23554 0.9727 0.41674 0.9727 0.28333 0 0.62849-0.13658 0.76703-0.30351zm6.6435 0.0897c0-0.11762-0.14434-0.21385-0.32077-0.21385-0.17642 0-0.32077 0.0962-0.32077 0.21385 0 0.11762 0.14435 0.21384 0.32077 0.21384 0.17643 0 0.32077-0.0962 0.32077-0.21384zm-17.454-0.1524c0.0838-0.0838 0.5651-0.30905 1.0695-0.50052 0.89648-0.3403 0.93022-0.33687 1.499 0.1524 0.95157 0.8185 1.1345 0.65624 0.85208-0.75582-0.12741-0.63704-0.1816-0.66827-1.1597-0.66827-0.75898 0-1.1835 0.1297-1.6306 0.49822-0.33247 0.27402-0.77289 0.55969-0.97872 0.63482-0.43676 0.15943-0.50792 0.79157-0.0891 0.79157 0.15682 0 0.3537-0.0686 0.43752-0.1524zm22.287-0.64762c0.26771-0.26771 0.39718-0.29775 0.46079-0.10692 0.20457 0.61374 0.48394 0.19662 0.43093-0.64345-0.0435-0.69078 0.0196-0.90884 0.26343-0.90884 0.22134 0 0.3548 0.29828 0.43055 0.9623l0.10979 0.9623 0.37136-0.68438c0.4869-0.89727 0.46946-1.3615-0.0563-1.499-0.23523-0.0615-0.42769-0.24799-0.42769-0.41438 0-0.38437 0.69406-0.66614 0.80692-0.32759 0.0463 0.13878 0.25938 0.25232 0.47362 0.25232 0.33101 0 0.37229 0.12851 0.27479 0.85538-0.094 0.70104-0.0505 0.85538 0.24091 0.85538 0.1956 0 0.41103-0.14435 0.47873-0.32077s0.20902-0.32077 0.31406-0.32077c0.10502 0 0.19096 0.14435 0.19096 0.32077 0 0.41584 0.1934 0.40556 0.68156-0.0362 0.36892-0.33386 0.41235-0.33254 0.67036 0.0203 0.28913 0.39542 1.2303 0.40449 1.3588 0.0131 0.0391-0.11916-0.40761-0.53008-0.99276-0.91316-1.5438-1.0106-1.6748-1.0353-1.7556-0.33045-0.099 0.86419-0.51091 0.63014-0.42847-0.24346 0.0921-0.97633-0.66347-1.5104-1.865-1.3183-0.7075 0.11314-0.84361 0.0705-0.93893-0.29397-0.1647-0.6298-0.79306-0.54397-0.79306 0.10831 0 0.58317-0.20011 0.67666-0.59758 0.27918-0.19802-0.19802-0.35372-0.14995-0.69264 0.21385-0.5269 0.56556-0.79903 0.57987-1.4534 0.0765-0.42979-0.33062-0.47704-0.49651-0.34379-1.2068 0.14211-0.75751 0.17775-0.79168 0.44482-0.42644 0.15968 0.21838 0.29032 0.57112 0.29032 0.78386 0 0.21275 0.0859 0.38682 0.19097 0.38682 0.27181 0 0.45057-0.5584 0.45057-1.4075 0-0.66078-0.0584-0.73097-0.60839-0.73097-0.33646 0-0.7811-0.19083-0.99477-0.42694-0.30119-0.33281-0.45195-0.37251-0.68385-0.18005-0.16361 0.13579-0.26743 0.40008-0.23071 0.58732 0.0367 0.18724-0.16095 0.45986-0.43926 0.60582-0.43079 0.22593-0.55859 0.20746-0.85952-0.12417-0.19442-0.21426-0.60537-0.49421-0.91324-0.62212-0.45179-0.18772-0.63201-0.16377-0.93448 0.12417-0.20801 0.19802-0.41239 0.2616-0.45936 0.14289-0.3166-0.80008-0.71542-1.2693-1.4134-1.6628l-0.80088-0.45157-0.44651 0.47927c-0.35781 0.38406-0.39529 0.54097-0.1887 0.7899 0.1418 0.17085 0.42819 0.31063 0.63644 0.31063 0.20824 0 0.42982 0.13341 0.49238 0.29646 0.12876 0.33553 3.1016 1.8023 4.0286 1.9877 0.33439 0.0669 0.60797 0.18505 0.60797 0.2626 0 0.0776 0.31275 0.31945 0.695 0.53754s1.2002 0.72514 1.8177 1.1268c1.0276 0.66835 1.1227 0.79873 1.1227 1.5385 0 1.1596 0.3143 1.3901 0.98331 0.72112zm-0.62244-1.6904c-0.31458-0.31458-0.14915-0.96289 0.22721-0.89041 0.20582 0.0396 0.37423 0.2552 0.37423 0.47901 0 0.42546-0.3488 0.66404-0.60144 0.4114zm1.3499-0.93112c0-0.11762 0.0962-0.21385 0.21384-0.21385 0.11762 0 0.21385 0.0962 0.21385 0.21385 0 0.11762-0.0962 0.21385-0.21385 0.21385-0.11761 0-0.21384-0.0962-0.21384-0.21385zm-4.8701-1.7489c0.11719-0.35159 0.75578-0.72586 0.93415-0.5475 0.20344 0.20344-0.32273 0.79953-0.70576 0.79953-0.17182 0-0.27459-0.11341-0.22839-0.25203zm-28.824 3.7805c0.23646-0.56592 0.44019-0.74846 0.83537-0.74846 0.28745 0 0.57804-0.14435 0.64574-0.32077 0.0963-0.25086-0.0562-0.32077-0.6994-0.32077-0.95195 0-1.192 0.23061-1.3913 1.3365-0.18549 1.0294 0.18809 1.0622 0.60957 0.0535zm15.432 0.0732c-0.23517-0.33574-0.34258-0.38702-0.34258-0.16352 0 0.34315 0.44284 0.89494 0.59563 0.74215 0.0493-0.0492-0.0647-0.30962-0.25305-0.57863zm12.274 0.56547c0-0.0604-0.0892-0.27692-0.19823-0.48115-0.10904-0.20423-0.2717-0.56379-0.36148-0.79902-0.1445-0.37858-0.17263-0.35867-0.24491 0.17332-0.0449 0.33055 0.0333 0.73953 0.17382 0.90884 0.24841 0.29932 0.6308 0.41936 0.6308 0.19801zm-9.6764-0.64374c-0.0567-0.29684-0.0198-0.59121 0.082-0.65416 0.40841-0.25241 0.17934-1.3981-0.38391-1.9201l-0.56907-0.5274 0.48831-0.51978c0.35925-0.38241 0.45206-0.6642 0.35116-1.0662-0.18882-0.75228-0.49362-0.68461-0.66911 0.14854-0.0896 0.4255-0.51082 1.0342-1.0862 1.5698-0.90494 0.84236-1.1821 1.3705-0.71927 1.3705 0.12131 0 0.27595-0.14434 0.34365-0.32077 0.14229-0.37079 1.052-0.43297 1.2661-0.0865 0.0796 0.12883 0.0199 0.46758-0.13275 0.75278-0.21321 0.39838-0.21905 0.57701-0.0252 0.77084 0.13877 0.13876 0.2523 0.42551 0.2523 0.63722 0 0.24942 0.15933 0.38492 0.45261 0.38492 0.36863 0 0.43348-0.10016 0.34946-0.53972zm-19.095-0.0717c0.17093-0.53856-0.0547-1.057-0.5249-1.2062-0.46773-0.14845-2.3525 0.29608-2.3525 0.55484 0 0.29094 1.5463 1.0291 2.1775 1.0395 0.37678 0.006 0.61697-0.12699 0.69985-0.38811zm11.029-0.41721c0.64206-1.055 0.0594-1.5817-0.7547-0.68214-0.46565 0.51454-0.86996 0.5491-1.0464 0.0894-0.28325-0.73814-0.0988-1.3749 0.61866-2.1357 0.91478-0.96995 0.93241-1.1615 0.10692-1.1615-0.48503 0-0.64153-0.09795-0.64153-0.40151 0-0.51307-0.54005-0.96627-0.95959-0.80528-0.41678 0.15994-0.41855 0.75604-0.003 0.91561 0.56366 0.2163 0.35697 1.0961-0.4462 1.8993-0.76354 0.76354-0.85426 1.3857-0.20205 1.3857 0.18012 0 0.32748 0.10543 0.32748 0.2343 0 0.12886 0.18207 0.48973 0.4046 0.80192 0.32559 0.45677 0.57646 0.56762 1.2846 0.56762 0.76682 0 0.93547-0.0911 1.3108-0.70785zm19.881 0.39971c0-0.22829 0.0962-0.47454 0.21384-0.54724 0.36926-0.22821 0.23299-0.93701-0.22752-1.1835-0.3276-0.17533-0.5205-0.17052-0.74846 0.0187-0.25024 0.20769-0.30709 0.17208-0.30709-0.19241 0-0.6227-2.2798-1.7773-2.5754-1.3044-0.13337 0.21338-0.0956 0.33074 0.12181 0.37844 0.17333 0.038 0.31514 0.20341 0.31514 0.36752 0 0.18171 0.12967 0.24862 0.33163 0.17112 0.26412-0.10135 0.30413-0.0177 0.19652 0.41107-0.17419 0.69405 0.28531 1.0102 0.68124 0.46877 0.32267-0.44127 0.57972-0.27933 0.82102 0.51723 0.10011 0.33047 0.0763 0.46-0.0682 0.37074-0.34345-0.21226-0.53388 0.27804-0.24376 0.62761 0.14214 0.17127 0.53536 0.3114 0.8738 0.3114 0.46655 0 0.61535-0.10037 0.61535-0.41507zm1.7108-0.23909c0-0.11067-0.0962-0.20122-0.21384-0.20122-0.11762 0-0.21385 0.15002-0.21385 0.33339 0 0.18336 0.0962 0.27392 0.21385 0.20122 0.11761-0.0727 0.21384-0.22272 0.21384-0.33339zm-20.175-0.31737c0.0696-0.1815 0.0749-0.38175 0.0116-0.44502-0.1607-0.16069-1.007 0.31725-1.007 0.56869 0 0.33961 0.85859 0.23294 0.99543-0.12367zm14.449-0.16812c0.28181-0.44302 0.18345-1.2127-0.15496-1.2127-0.36984 0-0.43335 0.54672-0.0883 0.75998 0.16034 0.0991 0.16375 0.21241 0.011 0.36518-0.34915 0.34915-1.3794-0.41919-1.246-0.92926 0.13539-0.51774-0.20285-0.7404-0.61063-0.40197-0.45313 0.37606-0.38378 0.79468 0.23397 1.4124 0.42569 0.42569 0.67159 0.5137 1.1206 0.40102 0.31634-0.0794 0.64683-0.25702 0.73442-0.39471zm-22.31-0.44159c0.83512-0.86163 0.82198-1.4885-0.0333-1.5872-0.46719-0.0539-0.62956 0.0465-0.80009 0.49507-0.25648 0.67461-0.28294 1.818-0.0421 1.818 0.0945 0 0.48848-0.32663 0.87542-0.72585zm19.382 0.286c0.22279-0.36049-0.0919-1.2709-0.43928-1.2709-0.20518 0-0.3167 0.21335-0.3167 0.6059 0 0.827 0.42488 1.2008 0.75598 0.66502zm-10.165-0.30861c-0.14642-0.17642-0.35066-0.32077-0.45387-0.32077s-0.18766 0.14435-0.18766 0.32077c0 0.18437 0.19299 0.32077 0.45387 0.32077 0.3792 0 0.41008-0.0528 0.18766-0.32077zm-15.664-0.2309c0.75419-0.15365 0.5638-0.4849-0.32077-0.55812-0.71881-0.0595-0.80769-0.13286-0.85763-0.70791-0.076-0.87578 0.12153-1.0881 1.1639-1.2508 1.0168-0.15871 1.1544 0.0249 1.1757 1.5683 0.007 0.53391 0.11206 0.8587 0.27678 0.8587 0.3975 0 0.26441-2.8118-0.14533-3.0703-0.33048-0.20846-2.451-0.01811-2.9018 0.26046-0.35644 0.2203-0.56433 2.2451-0.28422 2.7685 0.21861 0.4085 0.45262 0.42471 1.8933 0.13122zm24.603-0.60577c-0.0351-0.24552-0.14953-0.4464-0.25432-0.4464-0.32761 0-0.63268 0.67289-0.4825 1.0642 0.11891 0.30989 0.19975 0.32723 0.47205 0.10124 0.1807-0.14998 0.29985-0.47356 0.26477-0.71908zm-27.115-0.4464c0-0.96651-0.28422-1.4308-0.5122-0.83666-0.17081 0.44513-0.16586 1.6912 0.007 1.8644 0.29453 0.29452 0.50479-0.1336 0.50479-1.0278zm19.46 0.86979c0-0.33866-0.73312-0.64983-1.058-0.44906-0.11354 0.0702-0.15222 0.26884-0.086 0.4415 0.1568 0.40861 1.1439 0.41514 1.1439 0.008zm-11.927-0.3c0.18955-0.18956 0.18748-0.31069-0.009-0.50682-0.19287-0.19287-0.47152-0.20066-1.1073-0.031-0.46727 0.12472-0.89981 0.17655-0.96119 0.11516-0.0614-0.0614-0.11161-0.5286-0.11161-1.0383 0-0.68114 0.085-0.92666 0.32077-0.92666 0.17642 0 0.32077 0.18217 0.32077 0.40481 0 0.45275 0.55418 0.76492 0.76174 0.42908 0.0736-0.11916 0.0731-0.45894-0.001-0.75505-0.11767-0.46884-0.0721-0.52943 0.35271-0.469 0.35224 0.0501 0.51854 0.24772 0.59825 0.71093 0.0607 0.35284 0.20569 0.63149 0.32215 0.61922 0.22602-0.0238 0.53849-1.5043 0.35601-1.6867-0.0597-0.05974-0.76052-0.10862-1.5573-0.10862-0.81251 0-1.5118-0.10209-1.5924-0.23248-0.0908-0.14684-0.21851-0.15764-0.34684-0.02931-0.25534 0.25533-0.32577 3.2684-0.0855 3.6572 0.21679 0.35077 2.3553 0.23177 2.7395-0.15245zm9.215 0.0909c0.16469-0.4292-0.31342-1.8637-0.58861-1.766-0.23516 0.0835-0.26288 1.1804-0.0442 1.7502 0.15395 0.4012 0.48179 0.40939 0.63282 0.0158zm8.4839-0.0859c0-0.21305-0.20831-0.61096-0.46291-0.88425-0.44238-0.47483-0.47559-0.47955-0.74846-0.10638-0.3867 0.52884-0.3633 0.65774 0.18972 1.0451 0.63073 0.44178 1.0216 0.42093 1.0216-0.0545zm-4.527-0.95798c0.27167-0.9201 0.17425-1.6485-0.22048-1.6485-0.11605 0-0.26132 0.19246-0.32283 0.42769-0.0615 0.23523-0.27384 0.42769-0.47183 0.42769-0.42557 0-0.87321 0.40211-0.87321 0.7844 0 0.26678 0.96529 0.90106 1.3968 0.9178 0.12134 0.005 0.34255-0.40438 0.49158-0.9091zm-2.5299 0.0394c0-0.26225-0.15061-0.40481-0.42769-0.40481-0.40774 0-0.60671 0.60508-0.29986 0.91193 0.23936 0.23936 0.72755-0.10092 0.72755-0.50712zm7.9123 0.23672c0-0.23761-0.14256-0.42769-0.32076-0.42769-0.32556 0-0.43866 0.45237-0.17821 0.71282 0.27111 0.27111 0.49897 0.1409 0.49897-0.28513zm2.78-0.71118c0-0.69933-0.12494-1.0424-0.51206-1.4061-0.35682-0.33522-0.55862-0.4057-0.66567-0.23249-0.0845 0.13671-0.0466 0.35565 0.0844 0.48654 0.13089 0.13089 0.23798 0.40667 0.23798 0.61284 0 0.4938 0.44793 1.4642 0.67587 1.4642 0.0987 0 0.17952-0.41626 0.17952-0.92503zm-18.205 0.16418c0.0431-0.22255 0.19809-0.50327 0.34435-0.62382 0.37388-0.30814 0.55909-0.93032 0.32079-1.0776-0.31995-0.19773-1.0643 0.30321-1.0643 0.71626 0 0.20757-0.10902 0.48641-0.24224 0.61964-0.30133 0.30133-0.0676 0.98013 0.29581 0.85913 0.14696-0.0489 0.30248-0.27105 0.3456-0.4936zm16.495-0.20146c-0.29282-0.35283-0.85538-0.43487-0.85538-0.12474 0 0.21338 0.36431 0.40195 0.8281 0.42863 0.23676 0.0136 0.24204-0.0451 0.0273-0.30388zm4.035 0.0338c0.2858-0.34437 0.10668-0.5684-0.45448-0.5684-0.22618 0-0.58677-0.21652-0.80133-0.48115-0.21455-0.26463-0.46422-0.4073-0.55481-0.31703-0.15286 0.15232 1.1391 1.6316 1.4382 1.6468 0.0738 0.004 0.24137-0.12235 0.37237-0.28019zm-9.2051-0.42574c0.0409-0.21101-0.0682-0.35651-0.26731-0.35651-0.19837 0-0.33645 0.18284-0.33645 0.44551 0 0.52115 0.49971 0.44749 0.60376-0.089zm3.4593 0.0838c0-0.22829-0.0966-0.47477-0.21466-0.54774-0.11856-0.07327 0.0787-0.3795 0.44059-0.68402 0.49037-0.41262 0.71658-0.49003 0.89897-0.30764 0.38125 0.38125 0.58586 0.28879 0.58586-0.26472 0-0.68538-0.4735-1.0388-1.1607-0.86634-0.60783 0.15256-1.2491 0.89492-1.0506 1.2162 0.0678 0.10966 0.001 0.42751-0.14807 0.70632-0.21932 0.4098-0.21913 0.5698 0.00071 0.83499 0.37239 0.4487 0.64759 0.41172 0.64759-0.087zm-7.5386-1.7705c0.281-0.33295 0.76801-2.5179 0.59891-2.6869-0.22224-0.22224-0.75871 0.18366-0.75871 0.57406 0 0.27226-0.1689 0.44352-0.48115 0.48787-0.4048 0.05749-0.49222 0.22105-0.55092 1.0306-0.0384 0.52927 0.0491 1.3472 0.19443 1.8177l0.26421 0.85538 0.23325-0.88132c0.12829-0.48473 0.35328-1.0235 0.49998-1.1974zm-7.953 0.68869c0.16976 0 0.30865-0.14434 0.30865-0.32077 0-0.21242-0.21245-0.32077-0.62892-0.32077-0.75368 0-0.95552 0.26371-0.76942 1.0052l0.13884 0.55321 0.32111-0.45844c0.1766-0.25214 0.45999-0.45844 0.62974-0.45844zm17.367 0.60144c-0.13217-0.39652-0.59253-0.46228-0.59253-0.08465 0 0.18622 0.15237 0.33859 0.33859 0.33859s0.3005-0.11428 0.25394-0.25394zm10.741-0.16113c0-0.42552-0.27878-0.7318-0.48153-0.52904-0.16772 0.16772 0.0729 0.94411 0.29263 0.94411 0.10389 0 0.1889-0.18678 0.1889-0.41507zm2.8411-2.099c-0.0511-1.146-0.15205-2.2279-0.22425-2.4044-0.0722-0.17642-0.1372-0.51323-0.14445-0.74846-0.0142-0.45933-0.22302-0.50744-6.9632-1.6037-4.4031-0.71613-7.3422-1.2294-7.9658-1.391-0.51954-0.13468-0.58807-0.09312-0.58807 0.35663 0 0.27999 0.28886 0.85952 0.64192 1.2878 0.68954 0.83654 1.731 1.2627 5.412 2.2146 1.249 0.32298 2.526 0.85775 3.7889 1.5866 1.0477 0.60467 2.6538 1.4887 3.5691 1.9645 0.91531 0.47578 1.7533 0.94971 1.8623 1.0532 0.11435 0.1086 0.30509 0.09929 0.45128-0.02204 0.17571-0.14583 0.22475-0.84789 0.16022-2.2938zm-24.867 1.8987c0-0.34068-0.61027-0.70176-1.0659-0.63067-0.67977 0.10604-0.61896 0.47604 0.10362 0.63055 0.95078 0.20331 0.96231 0.20331 0.96231 0.000124zm8.2553-1.0375c-0.21737-0.21738-0.39673 0.10989-0.21838 0.39848 0.13472 0.218 0.1851 0.21817 0.25754 0.000856 0.0495-0.14858 0.0319-0.32828-0.0391-0.39934zm-3.8056-0.66506c0.0619-0.84106 0.10282-0.89186 0.68242-0.8477 0.58779 0.04479 1.4971-0.52366 1.4971-0.9359 0-0.1023-0.26463-0.27988-0.58807-0.39464s-0.75518-0.30484-0.95941-0.4224c-0.88606-0.51006-1.5242 0.13816-1.2984 1.319 0.0827 0.43265-0.035 0.64844-0.55611 1.0195-0.8589 0.61159-0.84633 1.0335 0.034 1.1405 1.057 0.12843 1.1177 0.08359 1.1886-0.87834zm-12.401 0.1183c0.0811-0.69558-0.37119-0.78568-0.7665-0.15269-0.1469 0.23523-0.41062 0.42769-0.58605 0.42769-0.17542 0-0.31896 0.08074-0.31896 0.17942s0.36087 0.16739 0.80192 0.15269c0.70508-0.0235 0.8101-0.09682 0.86959-0.60711zm8.113 0.43538c-0.13543-0.41126-1.0168-0.4705-1.0168-0.06833 0 0.21834 0.19306 0.33564 0.55243 0.33564 0.34634 0 0.5196-0.09973 0.4644-0.26731zm7.1093 0.07079c0-0.30075-0.72725-1.5114-0.90884-1.5129-0.19187-0.0017-0.20366 0.56384-0.0256 1.2283 0.1238 0.46198 0.93444 0.70891 0.93444 0.28464zm-12.189-0.34714c0-0.14138-0.40421-0.32169-0.89824-0.40069s-1.0233-0.24743-1.1762-0.37429c-0.21516-0.17857-0.27791-0.11206-0.27791 0.29451 0 0.69897 0.0212 0.71107 1.27 0.72525 0.70703 0.008 1.0822-0.07684 1.0822-0.24478zm3.2077-0.2048c0.29404-0.16809 0.74472-0.30902 1.0015-0.31319 0.26346-0.0043 0.93854-0.46698 1.5494-1.0619 1.137-1.1075 1.2177-1.5248 0.38126-1.9725-0.49085-0.2627-0.87321 0.08267-1.256 1.1344-0.15431 0.42403-0.40486 0.60404-0.99469 0.71462-1.0363 0.19429-1.9646 0.75572-1.9646 1.1883 0 0.69182 0.43264 0.79645 1.2831 0.3103zm7.2218-0.06683c0.0465-0.13967-0.0677-0.25394-0.25394-0.25394-0.18623 0-0.33859 0.15236-0.33859 0.33859 0 0.37764 0.46036 0.31187 0.59253-0.08465zm12.568 0.17021c0.47434-0.18035 0.52691-0.27144 0.3085-0.53461-0.33134-0.39924-0.63859-0.40855-0.63859-0.01934 0 0.16384-0.14435 0.35328-0.32077 0.42098-0.37452 0.14372-0.4323-0.30795-0.084-0.65629 0.17317-0.17317 0.12035-0.29913-0.1966-0.46875-0.32455-0.17369-0.45842-0.16524-0.53303 0.03365-0.0692 0.18426-0.19591 0.14036-0.41402-0.14338-0.34254-0.4456-1.0178-0.34325-1.0178 0.15426 0 0.36201 1.4653 1.4309 1.9616 1.4309 0.19957 0 0.62015-0.09783 0.93463-0.21739zm-9.003-0.47173c0.4209-0.60092 0.4259-1.0216 0.0121-1.0216-0.17642 0-0.32077 0.08501-0.32077 0.1889 0 0.1039-0.19246 0.23923-0.42769 0.30075-0.25589 0.06692-0.42769 0.29169-0.42769 0.55956 0 0.60761 0.73127 0.59029 1.164-0.02756zm-12.827-0.72873c0.15019-0.80059-0.0942-1.3081-0.5071-1.0529-0.25245 0.15602-0.3217 1.4549-0.0899 1.6866 0.29309 0.29309 0.45548 0.1207 0.59702-0.63375zm15.194-0.34322c-0.0495-0.49813-0.18558-0.93752-0.30228-0.97642-0.38052-0.12684-2.2915-2.0634-2.4461-2.4789-0.21868-0.5876-0.34299-0.34102-0.38476 0.76315-0.0439 1.161 0.28188 1.7001 1.6825 2.784 1.3539 1.0477 1.5627 1.0345 1.4506-0.09185zm-14.093-0.54445c0.10985-0.54928 0.0675-0.68832-0.20984-0.68832-0.26561 0-0.3475 0.21165-0.3475 0.89815 0 1.0246 0.33573 0.89821 0.55734-0.20984zm16.55 0.61691c0-0.34071-1.4987-1.5191-1.9321-1.5191-0.60117 0-0.53877 0.10376 0.57281 0.95251 1.0049 0.76733 1.3592 0.91501 1.3592 0.56656zm1.0692-0.34292c0-0.17642-0.14132-0.32077-0.31406-0.32077-0.1913 0-0.26594 0.12538-0.19096 0.32077 0.0677 0.17642 0.20903 0.32077 0.31406 0.32077s0.19096-0.14435 0.19096-0.32077zm19.204-2.1386c-0.0464-0.88353-0.16941-1.3041-0.42903-1.4671-0.67238-0.42196-0.6781-0.12402-0.0503 2.6208 0.21461 0.93826 0.54713 0.13779 0.47928-1.1538zm-34.815 0.74862c0-0.11762-0.19246-0.21385-0.42769-0.21385s-0.42769 0.09623-0.42769 0.21385 0.19246 0.21384 0.42769 0.21384 0.42769-0.09623 0.42769-0.21384zm8.1261-0.21385c0-0.41683-0.22682-0.55728-0.48424-0.29986-0.17132 0.17131 0.0529 0.72755 0.29327 0.72755 0.10503 0 0.19097-0.19246 0.19097-0.42769zm-3.887-0.71272c0.04-0.20627-0.0673-0.35651-0.25469-0.35651-0.39726 0-0.63703 0.3486-0.44901 0.65283 0.19343 0.31298 0.6204 0.13318 0.7037-0.29632zm2.7819-0.27788c-0.0999-0.51871-0.78182-0.63954-0.96184-0.17044-0.0897 0.23384 0.004 0.47321 0.25646 0.65814 0.46311 0.33864 0.81735 0.09371 0.70538-0.48771zm-5.4263 0.36384c0.0677-0.10949 0.0252-0.25952-0.0943-0.33339-0.11954-0.07388-0.21734 0.0157-0.21734 0.19907 0 0.37563 0.12833 0.43093 0.31164 0.13432zm5.3851-2.3029c0.1798-0.71639-0.21551-1.0852-0.67289-0.62786-0.19239 0.19238-0.49028 0.34979-0.66199 0.34979-0.55521 0-0.58793 0.64075-0.0614 1.2013l0.5054 0.53797 0.37975-0.46897c0.20887-0.25793 0.43884-0.70442 0.51107-0.9922zm21.462 1.0176c0-0.22829-0.10284-0.47863-0.22854-0.55632-0.26405-0.1632-0.0556-2.7486 0.2723-3.3773 0.3187-0.61106-0.0336-0.73464-0.48985-0.17184-0.36006 0.44413-0.4089 0.45699-0.40602 0.10692 0.004-0.55916 0.21774-0.82176 0.98659-1.2156 0.36799-0.18848 0.73112-0.50438 0.80695-0.70198 0.0758-0.19761 0.19859-0.29856 0.27281-0.22434 0.0742 0.07422 0.42952-0.46533 0.78955-1.199 0.56437-1.1501 0.66574-1.6213 0.73544-3.4189 0.0775-1.9993 0.0624-2.085-0.36689-2.085-0.38298 0-0.44882 0.13143-0.45535 0.90884-0.008 0.9444-0.40662 2.8048-0.83298 3.8867-0.22937 0.58201-0.91677 1.4686-2.3234 2.9966-0.52724 0.57275-0.5849 0.80465-0.65262 2.625-0.0408 1.0982-0.0135 2.1553 0.061 2.3491 0.12036 0.31365 0.16777 0.30586 0.43169-0.07094 0.16307-0.23281 0.39342-0.75464 0.51191-1.1596 0.18453-0.63072 0.19806-0.55998 0.0943 0.49328-0.11339 1.1512-0.092 1.2296 0.33602 1.2296 0.30993 0 0.45713-0.13365 0.45713-0.41507zm-1.2335-2.3649c0-0.41165 0.044-0.58006 0.0978-0.37423s0.0538 0.54263 0 0.74846-0.0978 0.03742-0.0978-0.37423zm-18.909 2.3363c-0.0421-0.12644-0.16804-0.22988-0.27978-0.22988-0.11173 0-0.23763 0.10345-0.27978 0.22988-0.0421 0.12644 0.0838 0.22988 0.27978 0.22988 0.19603 0 0.32193-0.10345 0.27978-0.22988zm16.863-0.53295c0.27238-0.70982-0.21425-0.86442-4.6328-1.4718-1.235-0.16976-3.3039-0.51075-4.5977-0.75775-2.2168-0.42323-6.3095-1.0558-6.8965-1.066-0.14702-0.0026-0.26731 0.18599-0.26731 0.41898 0 0.48252-0.0843 0.45799 3.6354 1.0576 7.4266 1.1971 12.091 1.9894 12.171 2.0674 0.19161 0.18662 0.46496 0.07108 0.58754-0.24836zm-16.866-3.4613 0.0624-2.9397 0.72064-0.74846c0.95032-0.987 1.7812-2.5216 1.9556-3.6118 0.16058-1.0042-0.2514-1.2654-0.45884-0.2909-0.27052 1.2708-1.0698 2.6575-2.0381 3.5359l-1.0148 0.92061 0.0674 2.6635c0.0903 3.5668 0.0733 3.412 0.37597 3.4113 0.19781-0.000427 0.28354-0.7649 0.32973-2.9404zm-1.4885 1.2625c0.0548-0.38555-0.0176-0.48113-0.32076-0.42332-0.21755 0.04148-0.42308 0.29601-0.46242 0.57266-0.0548 0.38555 0.0176 0.48113 0.32076 0.42332 0.21755-0.04148 0.42308-0.29601 0.46242-0.57266zm18.498 0.30447c0.1503-0.39169-0.241-1.8555-0.59434-2.2234-0.22309-0.23225-0.35359-0.144-0.72966 0.49338-0.45185 0.76584-0.5933 1.6144-0.31541 1.8923 0.27037 0.27038 1.5209 0.14661 1.6394-0.16225zm-3.8018-0.80144c0.11235-0.35398 0.0139-0.56206-0.41328-0.87322-0.30842-0.22467-0.56078-0.59602-0.56078-0.82522 0-0.70137-0.60017-1.8999-0.95139-1.8999-0.39496 0-0.42782 0.24602-0.0794 0.59445 0.18996 0.18996 0.1924 0.37224 0.01 0.73777-0.13334 0.26701-0.3606 0.90202-0.50502 1.4111-0.31962 1.1266-0.12975 1.3116 1.3511 1.3165 0.84165 0.0028 1.0249-0.07084 1.1488-0.46145zm-4.3956-0.69394c0-0.74733-0.21384-1.1936-0.5719-1.1936-0.21498 0-0.27 0.13327-0.17656 0.42769 0.13883 0.43742-0.0383 0.54415-0.4381 0.26403-0.39888-0.27945-0.75244-1.9164-0.60843-2.817 0.13047-0.81589 0.10729-0.86856-0.38218-0.86856-0.28659 0-0.70115 0.13168-0.92126 0.29262-0.3882 0.28386-0.38698 0.29968 0.0409 0.52867 0.69618 0.37259 0.75236 0.85615 0.18584 1.5998-0.28475 0.37381-0.54902 0.96834-0.58724 1.3212-0.0675 0.62264-0.038 0.64527 0.99971 0.76833 2.2666 0.26878 2.4592 0.24347 2.4592-0.32314zm-5.3705-1.5315c-0.21461-1.1488-0.33113-1.3729-0.71385-1.3729-0.34243 0-0.54487 0.46732-0.54487 1.2578 0 0.3197-0.11232 0.6936-0.24961 0.83088-0.26388 0.26388-0.1197 0.36199 0.78422 0.53365 0.73586 0.13974 0.92324-0.18359 0.72411-1.2494zm-4.7196 0.08118c-0.0985-0.66857-0.60214-0.75168-0.60214-0.09937 0 0.29422 0.0624 0.6977 0.13879 0.89661 0.12773 0.33289 0.15438 0.33379 0.33483 0.01133 0.10783-0.19268 0.16566-0.55654 0.12852-0.80858zm11.469 0.45229c-0.0689-0.11141-0.21633-0.14622-0.32774-0.07737s-0.14623 0.21634-0.0774 0.32774c0.0689 0.11141 0.21633 0.14622 0.32774 0.07737s0.14623-0.21634 0.0774-0.32774zm4.7288 0.18368c0.0854-0.08544-0.003-0.21603-0.1961-0.29019-0.19326-0.07416-0.35138-0.23379-0.35138-0.35474 0-0.26822-1.0122-1.2313-1.2941-1.2313-0.35569 0-0.21824 0.39264 0.25298 0.7227 0.29227 0.20472 0.4071 0.44616 0.32007 0.67296-0.0746 0.19454-0.0937 0.42175-0.0423 0.50493 0.12108 0.1959 1.109 0.17751 1.3108-0.0244zm3.7278-0.63968c0.003-0.23149-0.92694 0.15934-1.0163 0.42733-0.0533 0.15968 0.0942 0.15325 0.46847-0.02042 0.30037-0.13938 0.54689-0.32248 0.5478-0.4069zm-2.5803-0.29324c-0.13772-0.16595-0.39789-0.30173-0.57814-0.30173-0.27593 0-0.26728 0.06679 0.0548 0.42265 0.42761 0.47251 0.92123 0.35847 0.52337-0.12092zm-5.4748-0.22859c0.24072-0.24072-0.31069-0.71467-0.83146-0.71467-0.54031 0-0.83708 0.30318-0.62797 0.64154 0.1472 0.23817 1.2396 0.29291 1.4594 0.07314zm-5.3106-0.72838c0.002-0.54622-0.44118-0.75499-0.93209-0.43896-0.23964 0.15428-0.2203 0.26679 0.10693 0.62218 0.50492 0.54836 0.8226 0.47782 0.82516-0.18322zm3.5304-0.53353c0-0.16948-0.19246-0.30815-0.42769-0.30815-0.48111 0-0.54847 0.22137-0.17961 0.59023 0.29478 0.29479 0.6073 0.14962 0.6073-0.28208zm8.1187-0.19408c0.53854-0.51595 1.5044-0.56507 1.5044-0.07651 0 0.11084 0.0962 0.14205 0.21384 0.06936 0.11762-0.07269 0.21385-0.33073 0.21385-0.57342 0-0.37337 0.0507-0.39914 0.32983-0.16752 0.24429 0.20274 0.39221 0.21135 0.57037 0.0332 0.17816-0.17816 0.14808-0.27602-0.11598-0.37735-0.44375-0.17028-0.46777-0.51874-0.0358-0.51874 0.3615 0 0.43656-0.54473 0.10343-0.75062-0.11953-0.07388-0.15908-0.22857-0.0879-0.34377 0.082-0.13262 0.23669-0.12045 0.42181 0.03319 0.39975 0.33176 0.73879 0.07508 0.73879-0.55934 0-0.4644-0.0689-0.51008-0.58808-0.38963-0.75671 0.17556-1.5504 0.67164-1.5504 0.96905 0 0.1396-0.20904 0.17963-0.52453 0.10045-0.39855-0.10003-0.65436 0.0084-1.0651 0.45137-0.43962 0.47411-0.59131 0.53163-0.81201 0.30792-0.21969-0.22269-0.1921-0.33363 0.14479-0.58228 0.30477-0.22493 0.35271-0.37068 0.17903-0.54435-0.28464-0.28464-0.70214-0.07157-0.70214 0.35833 0 0.1819-0.20832 0.30815-0.50843 0.30815-0.60471 0-1.1669 0.5406-0.73011 0.70203 0.21194 0.07832 0.19399 0.18852-0.0771 0.47344-0.3347 0.35174-0.36615 0.34745-0.5956-0.08129-0.31254-0.58399-0.56803-0.57429-0.75126 0.02851-0.0886 0.2915-0.18976 0.37579-0.25661 0.21384-0.12474-0.30217-0.71625-0.36794-0.71625-0.07964 0 0.34946 0.52988 0.62305 2.0315 1.0489 1.9759 0.56037 2.0261 0.55937 2.6656-0.05329zm0.46724-1.3865c0.047-0.14114 0.1553-0.2494 0.24057-0.24058 0.2557 0.02645 0.20618 0.31976-0.0695 0.41165-0.14114 0.04705-0.21812-0.02994-0.17107-0.17108zm-18.209 0.84469c0.27736-0.51825-0.0915-1.384-0.48577-1.1403-0.13775 0.08514-0.51784 0.13442-0.84464 0.10951-0.50131-0.0382-0.5942 0.03717-0.5942 0.48211 0 0.93122 1.4922 1.3566 1.9246 0.54864zm12.699-0.58808c0.0726-0.20583 0.18495-0.48516 0.24967-0.62073 0.0715-0.14986-0.29975-0.38515-0.947-0.60013-0.58557-0.1945-1.4557-0.63689-1.9336-0.98311-0.47794-0.34621-0.91792-0.62948-0.97775-0.62948-0.0598 0-0.10877 0.38794-0.10877 0.86209 0 0.90966 0.44868 1.3409 0.91253 0.87707 0.13322-0.13323 0.39139-0.2401 0.57369-0.23748 0.23285 0.0034 0.17241 0.13012-0.20315 0.42612-0.45597 0.35938-0.48743 0.45434-0.21385 0.64556 0.17643 0.12331 0.68785 0.18045 1.1365 0.12699 0.57493-0.06851 0.84997-0.008 0.93173 0.20507 0.15826 0.41242 0.42067 0.37986 0.58004-0.07196zm-10.774-1.5741c0-0.30421-0.56477-0.21955-0.85312 0.12789-0.14518 0.17492-0.19792 0.48767-0.11722 0.695 0.13302 0.34173 0.18521 0.32979 0.55854-0.12789 0.22649-0.27767 0.4118-0.59042 0.4118-0.695zm6.4154-0.09586c0-0.31037-0.0926-0.49003-0.21385-0.41507-0.11761 0.07269-0.21384 0.31895-0.21384 0.54724s0.0962 0.41507 0.21384 0.41507c0.11762 0 0.21385-0.24626 0.21385-0.54724zm4.2769 0.20674c0-0.06966-0.19115-0.36966-0.42477-0.66667-0.54766-0.69623-0.37464-0.94652 0.60219-0.87111 0.93236 0.07198 1.0904-0.416 0.26757-0.82623-0.28453-0.14185-0.60206-0.40933-0.70563-0.59439-0.18929-0.33824-1.1236-0.44837-1.7534-0.20668-0.56944 0.21852-0.41876 0.93943 0.19635 0.93943 0.49017 0 0.53462 0.07912 0.53462 0.95168 0 0.68076 0.10653 1.0137 0.37423 1.1696 0.41661 0.24266 0.90884 0.29916 0.90884 0.10432zm0.66374-1.0059c-0.27447-0.27447-0.55281-0.06234-0.34961 0.26645 0.0787 0.12736 0.24108 0.17102 0.36082 0.09701 0.14606-0.09027 0.14236-0.20988-0.0112-0.36346zm-6.4866 0.02324c-0.0465-0.13967-0.19898-0.29206-0.33873-0.33864-0.15627-0.05209-0.20406 0.04567-0.12414 0.25394 0.14916 0.38871 0.59117 0.46959 0.46287 0.0847zm13.057-0.24458c0.0578-0.30317-0.0378-0.3756-0.42332-0.32077-0.27665 0.03935-0.53118 0.24488-0.57267 0.46242-0.0578 0.30317 0.0378 0.3756 0.42333 0.32077 0.27665-0.03935 0.53118-0.24488 0.57266-0.46242zm-4.2403-0.05391c0-0.18622-0.11427-0.3005-0.25394-0.25394-0.39652 0.13217-0.46228 0.59253-0.0846 0.59253 0.18623 0 0.33859-0.15236 0.33859-0.33859zm1.8177-0.30588c0-0.45838-0.62136-0.39217-0.71149 0.07581-0.055 0.28578 0.0321 0.37288 0.31784 0.31784 0.21651-0.04169 0.39365-0.21884 0.39365-0.39365zm-15.183-0.17528c0-0.38677-0.41856-0.31616-0.50158 0.08462-0.0462 0.22298 0.034 0.32074 0.21385 0.26078 0.15825-0.05275 0.28773-0.20818 0.28773-0.3454zm6.2639-0.28543c0.0762-0.39241-3.2388-2.1025-4.0756-2.1025-0.84464 0-0.95229 0.43066-0.24803 0.99222 0.4889 0.38984 0.78405 0.46738 1.4025 0.36848 0.67557-0.10803 0.80382-0.06066 0.93238 0.34437 0.11466 0.36128 0.2626 0.44113 0.64121 0.34611 0.33403-0.08384 0.53371-0.01524 0.62148 0.21351 0.154 0.4013 0.63768 0.29327 0.72608-0.16217zm12.459-0.31449c0.11799-0.31035 0.16605-0.61275 0.10679-0.67201-0.19518-0.19519-0.7596 0.42508-0.7596 0.83478 0 0.58988 0.40505 0.48889 0.65281-0.16276zm-11.559-0.07727c0-0.11762-0.0962-0.21384-0.21385-0.21384-0.11761 0-0.21384 0.09623-0.21384 0.21384 0 0.11762 0.0962 0.21385 0.21384 0.21385 0.11762 0 0.21385-0.09623 0.21385-0.21385zm4.9665-0.64821c-0.0324-0.29037-0.0554-0.78625-0.0511-1.102 0.004-0.31571-0.0895-0.63414-0.20841-0.70762-0.12415-0.07673-0.21617 0.09934-0.21617 0.41363 0 0.58363-0.19737 0.69202-0.5741 0.31528-0.3213-0.3213-1.2259-0.15862-1.3006 0.2339-0.072 0.37837 1.6082 1.5383 2.0868 1.4406 0.20371-0.0416 0.30087-0.26041 0.26368-0.59381zm8.1991-1.0399c-0.21777-0.35237-0.91167-0.28581-1.0604 0.10171-0.0714 0.18604-0.12981 0.59317-0.12981 0.90473v0.56647l0.66819-0.66819c0.3675-0.3675 0.6024-0.77463 0.52199-0.90473zm-13.902 0.74324c0.22812-0.16681 0.34723-0.37082 0.26468-0.45337-0.25015-0.25015-1.2392 0.101-1.2392 0.43996 0 0.40036 0.43715 0.40638 0.97456 0.01341zm1.5178-0.02671c0.0696-0.1815 0.0689-0.38767-0.001-0.45816-0.15235-0.15231-0.78009 0.33094-0.78009 0.6005 0 0.32271 0.64845 0.20463 0.78159-0.14233zm-3.2527-0.71994c0.40434-0.65425-0.76012-1.1932-1.3353-0.61807-0.42025 0.42025-0.29294 0.65425 0.278 0.51095 0.3083-0.07737 0.53462-0.04192 0.53462 0.08374 0 0.27047 0.36002 0.28657 0.52269 0.02337zm8.5941-0.33691c0.0671-0.17476-0.12833-0.61496-0.4344-0.97871-0.72684-0.8638-0.70184-1.3232 0.10918-2.0056 0.4883-0.41088 0.73784-0.49988 0.93733-0.33432 0.36515 0.30305 0.5389-0.15998 0.30061-0.80105-0.22049-0.59316-0.50153-0.60564-1.2035-0.05346-0.29904 0.23523-0.66018 0.42769-0.8025 0.42769-0.14234 0-0.43381 0.1934-0.64773 0.42977-0.30634 0.33851-0.342 0.5315-0.16792 0.90884 0.12156 0.26349 0.45007 0.98055 0.73003 1.5935 0.50767 1.1115 0.94796 1.4152 1.1789 0.81339zm-5.4814-0.6447c0-0.17642-0.0962-0.32077-0.21384-0.32077-0.11762 0-0.21385 0.14435-0.21385 0.32077s0.0962 0.32077 0.21385 0.32077c0.11761 0 0.21384-0.14435 0.21384-0.32077zm14.188-0.0092c-0.0696-0.1815-0.1725-0.28413-0.22855-0.22807-0.056 0.05606-0.0385 0.20455 0.0391 0.32999 0.21086 0.34118 0.33411 0.2749 0.18951-0.10192zm0.95534-0.08433c0.0535-0.16038-0.0267-0.24058-0.18712-0.18712-0.15436 0.05146-0.32277 0.21986-0.37423 0.37423-0.0535 0.16038 0.0267 0.24058 0.18712 0.18712 0.15437-0.05146 0.32277-0.21986 0.37423-0.37423zm1.0024-1.0622c0.83123-0.48718 0.9001-1.3739 0.11531-1.4847-0.28944-0.04083-0.63976-0.22949-0.7785-0.41923-0.39905-0.54573-1.3683-0.01764-1.3683 0.7455 0 0.45264 0.057 0.52494 0.25661 0.32535 0.14114-0.14114 0.42378-0.25662 0.6281-0.25662 0.30511 0 0.34978 0.1337 0.25002 0.74846-0.13601 0.8381-0.0238 0.88078 0.8968 0.3412zm-11.592-2.3828c0.56363-0.35391 1.0789-0.78444 1.145-0.95672 0.0781-0.20364 0.28932-0.2708 0.60353-0.19193 0.71731 0.18003 0.8078-0.37528 0.20558-1.2615-0.62247-0.91606-0.54445-1.1913 0.49612-1.7497 0.81688-0.43843 1.1226-1.048 0.72495-1.4456-0.1561-0.1561-0.58943 0.02769-1.4296 0.6063-1.1951 0.82309-1.2044 0.83776-1.0689 1.6902 0.0752 0.47293 0.18708 1.0624 0.24872 1.3099 0.0886 0.35582-0.12278 0.61877-1.0096 1.2559-1.0563 0.7589-1.1382 0.78325-1.4054 0.41792-0.59307-0.81108-0.3602-1.3691 0.78053-1.8702 1.1065-0.48612 1.2883-0.77213 0.76621-1.2054-0.24298-0.20166-0.51015-0.16626-1.2648 0.16755-1.0939 0.48388-1.5199 1.1079-1.3156 1.9268 0.19584 0.78485 0.94607 1.959 1.2486 1.9541 0.13743-0.0022 0.71102-0.29363 1.2746-0.64754zm12.948-0.10692c0.1365-0.29957 0.24817-0.68839 0.24817-0.86404s0.2018-0.59231 0.44844-0.92592c0.72473-0.98024 0.49248-1.3963-0.82173-1.4722-1.4348-0.08284-1.8767 0.30378-2.0808 1.8204-0.14742 1.0957-0.138 1.1216 0.56399 1.5496 0.94484 0.57604 1.3422 0.54995 1.6419-0.10782zm-3.3872-2.0215c0-0.11762-0.14435-0.21384-0.32077-0.21384s-0.32077 0.09623-0.32077 0.21384c0 0.11762 0.14435 0.21385 0.32077 0.21385s0.32077-0.09623 0.32077-0.21385zm0.95268-1.2296c0.0799-0.26463 0.0658-0.48115-0.0314-0.48115-0.28262 0-0.73543 0.85084-0.58357 1.0966 0.1702 0.27538 0.42203 0.02339 0.61502-0.61541zm-11.133-0.60645c0.0716-0.18653 0.04-0.49928-0.0701-0.695-0.17437-0.30978-0.22654-0.28664-0.40293 0.17876-0.11144 0.29404-0.16012 0.60679-0.10818 0.695 0.15777 0.26796 0.44357 0.18007 0.58126-0.17876zm15.282-0.20102c0.0543-0.05431-0.0618-0.27612-0.25797-0.49292-0.25606-0.28294-0.31749-0.59027-0.21772-1.0891 0.11997-0.59984 0.0836-0.68662-0.26569-0.63395-0.22257 0.03356-0.71863-0.10551-1.1024-0.30904-0.69156-0.36682-0.69941-0.36552-0.89487 0.14859-0.81773 2.1508-0.43785 2.8223 1.4747 2.6066 0.64086-0.07227 1.2096-0.17583 1.2639-0.23014zm-4.6745-1.9681c0-0.64399-0.046-0.7136-0.32077-0.48555-0.17642 0.14642-0.32077 0.5401-0.32077 0.87485 0 0.45316 0.082 0.5772 0.32077 0.48555 0.20096-0.07711 0.32077-0.40389 0.32077-0.87486zm5.1323 0.36983c0-0.23523-0.0962-0.42769-0.21384-0.42769-0.11762 0-0.21385 0.19246-0.21385 0.42769s0.0962 0.42769 0.21385 0.42769c0.11761 0 0.21384-0.19246 0.21384-0.42769zm-12.189-0.61542c0-0.36131-0.69185-1.8453-0.93288-2.0009-0.37178-0.2401-0.49385-0.20352-1.121 0.33593-0.73356 0.63098-0.52898 1.1976 0.24847 0.68818 0.67866-0.44468 0.68449-0.44236 1.0432 0.41607 0.28269 0.67658 0.76224 1.0294 0.76224 0.56073zm0.977-0.4756c0.08-0.1288-0.063-0.5158-0.318-0.8599-0.547-0.7399-0.472-0.9115 0.641-1.4794 0.463-0.236 0.841-0.4673 0.841-0.5141s0.0584-0.2373 0.1298-0.42335c0.21117-0.55029-0.51974-0.40707-1.6615 0.32557-0.56897 0.36511-1.0345 0.79557-1.0345 0.95658 0 0.39957 0.90216 2.2288 1.0992 2.2288 0.0872 0 0.22374-0.10538 0.30334-0.23418zm11.127-0.9919c-0.21738-0.21738-0.39674 0.10989-0.21839 0.39848 0.13473 0.218 0.1851 0.21817 0.25754 0.000856 0.0495-0.14858 0.0319-0.32828-0.0392-0.39934zm-0.89569 0.01888c0.0741-0.193-0.009-0.57054-0.18516-0.839-0.28633-0.437-0.38759-0.46252-0.96716-0.24375-0.76408 0.28841-0.84313 0.84618-0.16619 1.1727 0.70413 0.33959 1.1658 0.30811 1.3185-0.0899zm-10.906-2.2212c0.70408-0.71749 0.64025-0.76738-0.41674-0.32574-0.40788 0.17042-0.74159 0.45911-0.74159 0.64154 0 0.5125 0.47171 0.38389 1.1583-0.3158zm-1.586 15.403c0-0.11762 0.0962-0.21385 0.21384-0.21385 0.11762 0 0.21385 0.09623 0.21385 0.21385s-0.0962 0.21384-0.21385 0.21384c-0.11761 0-0.21384-0.09623-0.21384-0.21384zm0.76433-1.2119c-0.18209-0.47451 0.22001-0.88312 0.54713-0.556 0.26181 0.2618 0.11017 0.91253-0.21264 0.91253-0.10872 0-0.25925-0.16044-0.33449-0.35653zm1.8018-7.5684c0-0.12456 0.0962-0.16699 0.21384-0.0943 0.11762 0.07269 0.21385 0.1746 0.21385 0.22647s-0.0962 0.0943-0.21385 0.0943c-0.11761 0-0.21384-0.10191-0.21384-0.22647zm1.8177-0.41507c-0.0727-0.11762-0.0302-0.21385 0.0943-0.21385 0.12456 0 0.22647 0.09623 0.22647 0.21385s-0.0424 0.21385-0.0943 0.21385-0.15377-0.09623-0.22647-0.21385zm-1.6038-1.1533c0-0.36258 0.57833-0.61892 0.75424-0.33431 0.0695 0.11248 0.0669 0.30074-0.006 0.41835-0.19761 0.31973-0.74846 0.25787-0.74846-0.08404zm1.3891 0.08253c-0.0732-0.11845 0.0173-0.27309 0.20123-0.34365 0.18387-0.07056 0.33432-0.35857 0.33432-0.64003 0-0.28825 0.12668-0.51174 0.29008-0.51174 0.3405 0 0.36629 1.3005 0.0307 1.5471-0.30457 0.22376-0.70086 0.19984-0.85632-0.0517zm3.7432-6.7097c0-0.18984 0.86515-0.28906 0.97471-0.11179 0.0659 0.10657-0.1265 0.19377-0.42747 0.19377-0.30099 0-0.54724-0.03689-0.54724-0.08198z"/>
 </g>
</svg>
