<?xml version="1.0" encoding="UTF-8" standalone="no"?>
<!-- Created with Inkscape (http://www.inkscape.org/) -->
<svg id="svg2" xmlns:rdf="http://www.w3.org/1999/02/22-rdf-syntax-ns#" xmlns="http://www.w3.org/2000/svg" height="54" width="99" version="1.1" xmlns:cc="http://creativecommons.org/ns#" xmlns:dc="http://purl.org/dc/elements/1.1/">
 <metadata id="metadata7">
  <rdf:RDF>
   <cc:Work rdf:about="">
    <dc:format>image/svg+xml</dc:format>
    <dc:type rdf:resource="http://purl.org/dc/dcmitype/StillImage"/>
    <dc:title/>
   </cc:Work>
  </rdf:RDF>
 </metadata>
 <g id="g3542">
  <g id="g3381">
   <g id="g3423">
    <g id="g3459">
     <g id="g3495">
      <rect id="rect2990" opacity="0" height="54" width="99" y="0" x="0"/>
      <path id="path3493" d="m89.206 43.078c-0.10206-0.10206-1.2055-0.18024-2.4521-0.17373-1.2466 0.0065-2.4748-0.11982-2.7293-0.28072-0.25454-0.1609-0.30421-0.29468-0.11039-0.29728 0.44049-0.0059 0.79309-1.3282 0.53413-2.0031-0.11396-0.29697-0.46245-0.46551-0.84865-0.4104-0.76689 0.10942-1.0768 1.5605-0.48543 2.2731 0.31608 0.38087-0.0116 0.44438-2.293 0.44438-2.3199 0-2.6649-0.06937-2.6861-0.54022-0.0146-0.32273-0.0871-0.38487-0.18007-0.15435-0.23816 0.5902-0.96552 0.45906-1.1787-0.21251-0.20629-0.64995-2.1573-2.4886-2.6407-2.4886-0.67783 0-0.21841 0.88669 0.94301 1.82 0.68252 0.5485 1.1742 1.1052 1.0927 1.2372-0.0816 0.13196-0.67473 0.20714-1.3181 0.16706-0.64343-0.04008-1.9686-0.08737-2.9449-0.10508-1.5038-0.02729-1.775-0.11869-1.775-0.59824 0-0.81795-2.3959-3.3355-2.7948-2.9367-0.53009 0.53009 0.21745 1.9165 1.414 2.6225 0.60411 0.35643 1.0527 0.69378 0.99677 0.74966-0.0559 0.05588-1.682 0.17032-3.6137 0.2543-3.9801 0.17304-4.7786-0.0435-4.3469-1.1789 0.2262-0.59496 0.17044-0.76372-0.29234-0.88473-0.31451-0.08225-0.61997-0.47818-0.67881-0.87985l-0.10697-0.73031-0.5731 0.85047c-0.46749 0.69377-0.50164 0.93657-0.18526 1.3178 0.31632 0.38115 0.28909 0.57638-0.14769 1.059-0.47764 0.52778-0.89098 0.57956-3.8242 0.47915-1.8088-0.06193-6.831-0.11561-11.16-0.1193-4.3295-0.0037-11.275-0.04781-15.435-0.09804-4.1597-0.05022-10.537-0.05137-14.171-0.0025-5.9012 0.0793-6.5663 0.03831-6.2164-0.38324 0.46804-0.56394 0.0893-0.77877-1.5586-0.8842-1.1568-0.07405-1.2061-0.13092-1.2061-1.3902 0-0.69236 0.22393-0.97571 1.1021-1.3945 0.74269-0.35416 1.0688-0.69997 1.0001-1.0604-0.11395-0.59792-1.4848-0.93886-1.4848-0.36929 0 0.1996-0.3587 0.64508-0.79713 0.98995-0.74776 0.58819-0.78413 0.73914-0.58709 2.4368 0.14147 1.219 0.10125 1.8098-0.12308 1.8098-0.18322 0-0.41684-0.38202-0.51914-0.84892-0.10228-0.46691-0.23554-1.0122-0.29605-1.2118-0.16972-0.55964 0.46384-2.5814 1.0874-3.47 0.31651-0.45102 0.6497-1.6681 0.76674-2.8006 0.11384-1.1016 0.34109-2.0858 0.50501-2.1871 0.19079-0.11791 0.185-0.6747-0.0162-1.5471-0.17278-0.74959-0.31754-2.08-0.32169-2.9564-0.004-0.87643-0.21275-2.666-0.46354-3.9768-0.49157-2.5692-0.43693-2.9189 0.456-2.9189 0.69034 0 1.1104-0.55658 0.71696-0.95001-0.16595-0.16595-0.6782-0.16427-1.2655 0.0041-0.54265 0.15563-1.0551 0.17222-1.1388 0.03686-0.24711-0.39984 0.89845-1.5172 1.7096-1.6675 0.41217-0.07638 1.3051-0.24077 1.9842-0.36531 1.6201-0.2971 2.2327-0.63348 2.4605-1.3512 0.19597-0.61742 2.786-2.0137 3.2283-1.7404 0.5943 0.3673 2.227-0.85511 2.691-2.0148l0.47903-1.1972 11.932 0.07523 11.932 0.07523-0.10228 0.72247c-0.0648 0.45814 0.0199 0.64698 0.23152 0.51616 0.1836-0.11347 0.33382-0.40649 0.33382-0.65114 0-0.27241 0.32905-0.45612 0.84893-0.47396 0.4669-0.01602 5.6415-0.09026 11.499-0.16498 5.8576-0.07471 10.789-0.14782 10.959-0.16247 0.16978-0.01464 0.93381 0.07799 1.6978 0.20586 0.76403 0.12787 4.8276 0.235 9.0301 0.23808l7.6409 0.0056 0.31601 1.2655c0.62414 2.4993 1.0814 3.1677 2.3021 3.3658 0.62063 0.10072 1.453 0.05972 1.8497-0.0911 0.51782-0.19687 1.029-0.11733 1.8123 0.28201 0.60005 0.30592 1.9327 0.74296 2.9614 0.97118 1.8153 0.40272 2.2009 0.66431 1.5617 1.0593-0.4033 0.24925-0.39659 1.8829 0.01087 2.6442 0.25144 0.46981 0.21853 0.5971-0.15435 0.5971-0.51796 0-0.634 0.63005-0.20184 1.0959 0.28597 0.30826-0.58241 6.6914-1.228 9.0268-0.27201 0.98395-0.2777 1.5191-0.0221 2.0801 0.18927 0.4154 0.26726 0.95556 0.17332 1.2004-0.09394 0.2448 0.03993 0.9063 0.2975 1.47 0.77453 1.695 1.1817 3.4311 1.073 4.5749-0.13861 1.4583-0.97283 1.4675-1.1831 0.013-0.11862-0.8203-0.33303-1.111-0.9261-1.2554-0.67279-0.16383-0.76014-0.33372-0.68121-1.325 0.07419-0.93177-0.01219-1.137-0.47848-1.137-1.4627 0-1.7233 1.6222-0.49504 3.0819 0.60982 0.72472 0.72634 1.0569 0.46305 1.3202-0.70662 0.70662-0.39375 1.1847 0.71372 1.0906 0.58604-0.04979 1.107 0.04838 1.1576 0.21816 0.09875 0.33101-3.2115 0.60657-3.5247 0.29341zm-1.039-0.63513c0.50522-0.19387 0.64963-1.2542 0.25205-1.8507-0.42136-0.63213-2.5555-1.4676-2.8912-1.1319-0.52051 0.52052-0.19655 2.3977 0.41452 2.4018 0.29061 0.0019 0.70041 0.17561 0.91066 0.38587 0.43248 0.43248 0.62176 0.46056 1.314 0.19491zm-2.1356-1.3561c-0.10495-0.16978-0.0436-0.3087 0.13612-0.3087 0.17981 0 0.32692 0.13891 0.32692 0.3087 0 0.16978-0.0612 0.3087-0.13612 0.3087-0.0749 0-0.22199-0.13891-0.32692-0.3087zm-60.351 0.46305c0-0.25468-0.12503-0.46305-0.27783-0.46305-0.15281 0-0.77441-0.49657-1.3813-1.1035-0.60692-0.60692-1.2459-1.0155-1.42-0.90788-0.48197 0.29787-0.39687 0.53843 0.63206 1.7867 0.98759 1.1981 2.4471 1.6083 2.4471 0.68773zm7.5023 0.0042c0.0334-0.16746-0.18224-0.35129-0.47936-0.40851-0.3379-0.06507-0.54023 0.08633-0.54023 0.40428 0 0.53707 0.9123 0.54085 1.0196 0.0042zm23.985-0.93033c0-0.98759-0.72439-1.4825-1.8182-1.2423-1.091 0.23963-1.6685 0.85029-1.5222 1.6098 0.16099 0.83598 1.0646 0.85888 1.3148 0.03332 0.16083-0.53064 0.25918-0.59278 0.39006-0.24647 0.0963 0.25468 0.31373 0.6384 0.48325 0.85273 0.42786 0.54097 1.1524-0.09219 1.1524-1.0071zm16.302 0.84892c-0.0572-0.29712-0.37806-0.54022-0.71299-0.54022-0.33491 0-0.65575 0.2431-0.71297 0.54022-0.0779 0.40463 0.10104 0.54022 0.71297 0.54022 0.61195 0 0.79091-0.1356 0.71299-0.54022zm-57.359-1.3822c0-0.14919 0.34729-0.78234 0.77175-1.407 1.018-1.4982 1.013-2.4636-0.0144-2.7214-0.97384-0.24442-1.3404 0.06306-0.6851 0.57461 0.44125 0.34444 0.416 0.49744-0.25275 1.5311-0.4627 0.71521-0.90764 1.0853-1.1795 0.98095-0.60815-0.23337-0.88792 0.84301-0.49066 1.8879l0.32601 0.85746 0.7623-0.71614c0.41926-0.39388 0.76229-0.83822 0.76229-0.98741zm31.476 1.0166c0.42202-0.78856 0.4036-0.94639-0.11047-0.94639-0.40447 0-0.80477 0.62675-0.80477 1.26 0 0.50238 0.58598 0.30156 0.91524-0.31365zm-7.2117-0.03242c0.78867-0.29985 1.6338-1.1094 1.6561-1.5865 0.005-0.11521-0.20847-0.42777-0.47528-0.69457-0.61482-0.61482-2.1072-0.62695-2.7121-0.02204-0.88546 0.88546-1.26 0.62018-1.5872-1.1243l-0.21005-1.1196 3.9636 0.04153c3.2416 0.03397 4.1428-0.05646 4.9473-0.49649 1.656-0.90574 1.723-1.3824 0.23247-1.6527-0.57429-0.10414-1.1446 0.04887-1.6928 0.45413-0.61553 0.45507-1.4093 0.63164-3.1077 0.69126-2.9084 0.1021-3.7569-0.33925-3.4808-1.8106 0.31153-1.6607-0.86819-2.6192-1.4241-1.1571-0.16139 0.42446-0.4434 0.77175-0.62669 0.77175-0.55395 0-3.0777 1.2319-3.0777 1.5023 0 0.2481 1.9599-0.0065 3.3185-0.43111 0.73628-0.23011 0.86914 0.02702 0.39849 0.77119-0.22762 0.35989-1.0329 0.44611-3.9113 0.41875-3.1476-0.02992-3.6809-0.10988-4.0522-0.60755-0.23515-0.3152-0.55667-0.53837-0.71447-0.49592s-0.28691-0.19506-0.28691-0.5278c0-0.48169-0.19015-0.59178-0.93319-0.54022-0.64817 0.04497-0.90272 0.20618-0.83343 0.5278 0.0869 0.40341-1.0888 1.8522-1.5031 1.8522-0.083 0-0.53039-0.28053-0.99414-0.6234l-0.8432-0.6234-1.3094 0.63265c-0.72019 0.34796-1.6322 0.75535-2.0266 0.90531-0.67874 0.25806-0.69955 0.34846-0.38863 1.6886 0.38739 1.6697 0.89994 1.7929 1.7179 0.41267 1.0031-1.6926 1.1685-1.7942 2.5741-1.5811 0.71413 0.10829 1.5177 0.38678 1.7858 0.61888 0.67115 0.58114 1.9737 0.52932 2.4847-0.09884 0.37102-0.45611 0.35653-0.49568-0.11656-0.31839-0.71076 0.26637-1.6735-0.07674-1.1402-0.40636 0.63041-0.38961 5.31 0.0043 6.388 0.53769 0.93678 0.46353 1.074 0.4583 2.0715-0.07887 0.58753-0.31641 1.1416-0.50193 1.2313-0.41225 0.0896 0.08968 0.50834 1.115 0.93039 2.2786 0.42203 1.1636 0.94453 2.228 1.1611 2.3655 0.54353 0.34494 1.5826 0.32024 2.5866-0.06148zm-18.091-5.5445c0-0.16978 0.13891-0.3087 0.30869-0.3087 0.16979 0 0.3087 0.13892 0.3087 0.3087s-0.13891 0.3087-0.3087 0.3087c-0.16978 0-0.30869-0.13892-0.30869-0.3087zm26.919 4.8774c-0.28812-0.28812-0.37044-0.2058-0.37044 0.37044s0.0823 0.65856 0.37044 0.37044c0.28812-0.28812 0.28812-0.45276 0-0.74088zm14.601 0.67914c0.10493-0.16978 0.59113-0.3087 1.0804-0.3087 1.1896 0 1.4542-0.53515 0.65829-1.3311-0.50999-0.50999-0.7326-0.57025-1.0253-0.27756-0.20562 0.20563-0.62827 0.37387-0.9392 0.37387-0.63818 0-1.0096 0.69444-0.74304 1.3891 0.20356 0.53046 0.6886 0.60774 0.96882 0.15435zm20.22-3.6033c0-0.50946-0.0913-0.50894-1.3277 0.0076-1.5604 0.652-3.1591 3.019-2.4906 3.6876 0.26309 0.26308 3.8182-3.1776 3.8182-3.6953zm-48.122 2.5884c-0.25211-0.25211-0.34343-0.21756-0.34343 0.12991 0 0.61365 0.4151 1.0288 0.56852 0.56852 0.0651-0.19525-0.0362-0.50954-0.22509-0.69843zm-22.261 0.05985c0-0.38668-0.24801-0.71115-0.61741-0.80775-0.70663-0.18479-0.84544-1.0155-0.16969-1.0155 0.24624 0 0.58932-0.2431 0.76237-0.54022 0.29966-0.5145 0.3151-0.5145 0.32404 0 0.0129 0.74255 0.54057 0.68078 0.78584-0.09199 0.52691-1.6601-1.7486-1.8266-2.4394-0.17846-0.22245 0.53076-0.79125 1.4238-1.264 1.9845l-0.85958 1.0195 0.77912-0.19555c0.43901-0.11018 0.86917-0.04986 0.98538 0.13816 0.11344 0.18354 0.54533 0.33371 0.95978 0.33371 0.55897 0 0.75353-0.16688 0.75353-0.6463zm16.978 0.20147c0-0.5842-0.52599-0.8911-1.13-0.65932-0.39041 0.14981-0.40993 0.27346-0.10177 0.64475 0.48632 0.586 1.2318 0.59481 1.2318 0.01457zm-8.641-0.482c0-0.16978-0.13891-0.3087-0.30869-0.3087-0.16979 0-0.3087 0.13891-0.3087 0.3087 0 0.16978 0.13891 0.3087 0.3087 0.3087 0.16978 0 0.30869-0.13892 0.30869-0.3087zm11.113-0.53414c0-0.75656-0.93381-1.6268-1.7457-1.6268-1.0954 0-0.93965 1.1127 0.25755 1.8407 1.0541 0.64104 1.4881 0.57863 1.4881-0.21398zm17.848-0.0061c-0.07-0.60783-0.29494-0.87694-0.79226-0.94757-0.50271-0.0714-0.69457-0.30588-0.69457-0.84892 0-0.85621 0.16048-0.89589 1.2297-0.30402 0.53827 0.29796 0.93601 0.33376 1.3351 0.12018 0.31261-0.16731 1.0854-0.21686 1.7173-0.1101 0.92375 0.15606 1.2616 0.0695 1.7243-0.44171 0.31648-0.3497 0.51456-0.69666 0.4402-0.77103-0.34564-0.34563-5.5047-0.25841-5.937 0.10037-0.36758 0.30507-0.58991 0.30241-1.0951-0.01309-0.51954-0.32446-0.70488-0.32069-1.0275 0.02087-0.31304 0.33145-0.31461 0.44568-0.007 0.55822 0.21222 0.07781 0.38587 0.41971 0.38587 0.75975 0 0.70767 1.7797 2.726 2.4037 2.726 0.27128 0 0.3817-0.29481 0.31793-0.84892zm28.388 0.36837c1.2575-0.88076 0.62786-2.0839-0.71453-1.3655-0.6385 0.34172-0.83906 0.29115-1.6921-0.42664-0.53225-0.44787-1.096-0.81431-1.2528-0.81431-0.57171 0-0.26507 1.4749 0.472 2.2702 0.86796 0.93654 2.139 1.0706 3.1874 0.33627zm-34.819-0.36838c-0.007-0.85268-0.53278-1.5154-0.90567-1.1425-0.21913 0.21912-0.16945 0.53177 0.159 1.0007 0.5765 0.82308 0.75292 0.85657 0.74667 0.14178zm3.0917-0.08686c0-0.80681-0.68872-1.0652-1.575-0.59085-0.67215 0.35972-0.67643 0.38826-0.11947 0.79552 0.86514 0.6326 1.6945 0.53242 1.6945-0.20467zm-23.152-0.29901c0-0.16978-0.13891-0.3087-0.30871-0.3087-0.16978 0-0.30869 0.13891-0.30869 0.3087 0 0.16978 0.13891 0.3087 0.30869 0.3087 0.1698 0 0.30871-0.13892 0.30871-0.3087zm-13.845-0.77175c0-0.1613-0.14933-0.34304-0.33185-0.40388-0.18251-0.06084-0.33186 0.1209-0.33186 0.40388s0.14935 0.46472 0.33186 0.40388c0.18252-0.06083 0.33185-0.24258 0.33185-0.40388zm55.873-0.05412c0.49925-0.60155-0.009-1.624-0.91441-1.8393-0.4556-0.10836-1.203-0.41214-1.661-0.67507-0.72439-0.41588-0.9452-0.42175-1.6978-0.04513-0.47585 0.23811-0.96937 0.48369-1.0967 0.54573-0.36209 0.17642-0.27131-1.1124 0.0943-1.3384 0.7129-0.44059 0.12041-1.1442-1.0515-1.2487-0.65382-0.05829-1.3612-0.24908-1.5719-0.42398-0.46875-0.38902-0.78939-0.11155-0.78939 0.6831 0 0.33189-0.26841 0.66504-0.60717 0.75363-0.76808 0.20086-0.97192 0.88036-0.67587 2.253 0.2116 0.98104 0.33104 1.0804 1.2983 1.0804 0.58587 0 1.2371-0.11973 1.4472-0.26606 0.21006-0.14633 0.60337-0.18109 0.87401-0.07724 0.27062 0.10385 0.78951-0.01952 1.1531-0.27416 0.93009-0.65146 1.657-0.57538 1.8584 0.19451 0.11685 0.44683 0.32994 0.59686 0.6651 0.46825 0.28865-0.11077 0.56504-0.0019 0.66652 0.2626 0.20442 0.53268 1.5524 0.49691 2.0091-0.05332zm-7.8968-1.92c-0.0939-0.15199 0.0367-0.356 0.29049-0.45336 0.25369-0.09735 0.46127-0.41752 0.46127-0.71149 0-0.34425 0.10628-0.42821 0.29859-0.23589 0.40097 0.40096 0.0428 1.6771-0.47072 1.6771-0.22485 0-0.48568-0.12436-0.57963-0.27635zm-29.501 1.1316c0-0.18068-0.19614-0.15068-0.46304 0.07082-0.25468 0.21136-0.46306 0.43239-0.46306 0.49116 0 0.05878 0.20838 0.02692 0.46306-0.07082 0.25467-0.09773 0.46304-0.31875 0.46304-0.49116zm43.479-0.19286c0.45068-0.31481 1.2113-0.66722 1.6903-0.78313 0.48274-0.11683 0.81591-0.37765 0.74757-0.58524-0.16419-0.49871-1.4486-0.66785-1.8701-0.24628-0.18415 0.18416-0.55833 0.33484-0.83149 0.33484-0.81763 0-1.6612 0.78426-1.4462 1.3445 0.25256 0.65819 0.69938 0.64128 1.71-0.06469zm-2.7682-0.02493c0.47668-0.25512 0.50374-0.50347 0.23312-2.1398l-0.30617-1.8512-0.75808 0.59632c-0.75263 0.59201-1.9096 0.81127-1.9096 0.36188 0-0.12894 0.28322-0.41132 0.62937-0.6275 0.69731-0.43547 0.54967-0.99026-0.26353-0.99026-0.28811 0-0.70829 0.41674-0.93375 0.9261-0.24973 0.56417-0.6411 0.9261-1.0015 0.9261-0.32533 0-0.59151 0.14235-0.59151 0.31634 0 0.55063 1.6483 0.97113 3.0098 0.76783 0.8424-0.12579 1.312-0.07865 1.312 0.13171 0 0.18019-0.19136 0.32761-0.42525 0.32761-0.69305 0-1.1664 0.75452-0.74046 1.1804 0.43786 0.43787 1.0202 0.46271 1.7456 0.07448zm8.909-0.24022c0.12992-0.39022-1.3535-0.91805-1.6754-0.59614-0.10115 0.10118-0.003 0.40165 0.21751 0.66771 0.44921 0.54126 1.2672 0.5011 1.4579-0.07157zm9.397-0.28314c0.83415-0.13793 1.1247-0.33291 1.0945-0.73443-0.02346-0.3116-0.21314-0.48067-0.4411-0.3932-0.29471 0.1131-0.39991-0.25458-0.39991-1.3978 0-2.0643-0.19321-2.4976-1.0232-2.2948-0.37106 0.09065-0.84828 0.30068-1.0605 0.46673-0.25778 0.20169-0.53959 0.17434-0.84893-0.08238-0.38999-0.32368-0.46305-0.2659-0.46305 0.36625 0 0.4128 0.20396 1.0202 0.45324 1.3498 0.65567 0.86687 0.57376 1.3717-0.22171 1.3662-1.13-0.0077-1.5766-0.48762-1.5993-1.7186-0.0285-1.5438-0.79308-1.8241-0.79308-0.29068 0 0.73959-0.11629 1.0525-0.3398 0.91438-0.18688-0.1155-0.26492-0.58439-0.1734-1.042 0.15812-0.79062 0.10218-0.83509-1.1265-0.8949-1.1532-0.05613-1.3513 0.0405-1.8331 0.89442-0.29712 0.52654-0.54023 1.1594-0.54023 1.4062 0 0.76718 1.242-0.11878 1.598-1.1399 0.17291-0.496 0.43452-0.82756 0.58137-0.73681 0.14684 0.09076 0.1227 0.48169-0.0536 0.86876-0.20346 0.44655-0.22035 1.0912-0.0462 1.764 0.27049 1.0449 0.30025 1.061 2.0567 1.1125 0.98023 0.02875 1.8629 0.13294 1.9615 0.23152 0.23122 0.23122 1.7719 0.22389 3.2186-0.01532zm-77.903-0.98723c0.0542-0.36872-0.0451-0.67039-0.22068-0.67039-0.40943 0-1.0007 1.0896-0.73532 1.355 0.35849 0.3585 0.85481 0.0031 0.956-0.6846zm81.244 0.61585c0-0.40195-0.36697-0.66927-0.66549-0.48478-0.31926 0.19732-0.04397 0.74202 0.37501 0.74202 0.15976 0 0.29048-0.11576 0.29048-0.25725zm-79.393-1.08c0.0537-0.45381-0.0504-0.82512-0.23152-0.82512-0.18106 0-0.32921-0.27783-0.32921-0.6174 0-0.77838-1.0828-0.84129-1.375-0.07988-0.13462 0.3508 0.0148 0.7165 0.43001 1.0528 0.34996 0.28338 0.6363 0.74764 0.6363 1.0317 0 0.83403 0.7625 0.34108 0.86942-0.56206zm42.686-0.22321c1.0038-0.53722 0.31296-0.96891-1.3751-0.85929l-1.5865 0.10303-0.15435-1.1678c-0.0849-0.64232-0.25854-1.1632-0.38588-1.1576-0.12734 0.0057-0.52421 0.01019-0.88196 0.01019-0.49639 0-0.59898 0.12793-0.43321 0.54022 0.11947 0.29712 0.25895 0.67914 0.30999 0.84892 0.40614 1.3511 0.56496 1.6725 0.76525 1.5487 0.17518-0.10827 2.3988 0.20203 3.0385 0.42403 0.0536 0.0186 0.37005-0.11206 0.70323-0.29036zm-46.087-0.355c0.20374-0.20374 0.37043-0.62166 0.37043-0.92871 0-0.48826-0.0872-0.50955-0.69456-0.16978-0.83674 0.468-1.17 0.89043-0.96469 1.2227 0.22359 0.36178 0.86463 0.30002 1.2888-0.12418zm63.808 0.06174c0.10493-0.16978 0.0436-0.3087-0.13613-0.3087-0.1798 0-0.32692 0.13891-0.32692 0.3087 0 0.16978 0.0612 0.3087 0.13613 0.3087 0.0749 0 0.22198-0.13891 0.32692-0.3087zm3.3189-0.12129c0.29734-0.2257 0.86042-0.34922 1.2513-0.27449 0.53781 0.10281 0.80057-0.06136 1.0801-0.6748 0.5396-1.1843 0.49874-1.237-1.0277-1.3252-1.2437-0.07186-1.4262 0.004-1.6924 0.70428-0.28621 0.75281-0.32913 0.76469-1.052 0.29106-0.70672-0.46305-0.77414-0.45539-1.0838 0.12321-0.65593 1.2256 1.2705 2.1078 2.5244 1.156zm-26.317-0.14c0-0.14347-0.25791-0.49426-0.57314-0.77954-0.50358-0.45573-0.61919-0.46318-0.95267-0.06137-0.20875 0.25152-0.28991 0.60231-0.18039 0.77954 0.23713 0.38368 1.7062 0.43652 1.7062 0.06137zm-35.082-0.50618c0.1028-0.26788-0.0711-0.59053-0.41853-0.77646-0.36903-0.1975-0.52319-0.50371-0.40656-0.80761 0.19566-0.5099-0.36014-1.0317-1.1076-1.0399-0.33635-0.0037-0.31349 0.12811 0.10177 0.58699 0.40919 0.45218 0.46029 0.73222 0.21663 1.1875-0.22583 0.42199-0.21501 0.69963 0.0371 0.95178 0.49956 0.49954 1.3678 0.4432 1.5771-0.10235zm2.9453-0.0351c1.2444-0.6208 1.09-1.1761-0.36144-1.2992-0.87135-0.07395-1.0761-0.20214-0.93022-0.58235 0.12653-0.32971 0.0463-0.44062-0.24798-0.34264-0.60511 0.20151-0.72446 1.1168-0.259 1.9865 0.46398 0.86695 0.52198 0.87462 1.7986 0.23773zm6.4373-0.62653c0.91891-1.0143 0.89253-1.6583-0.0679-1.6583-0.48928 0-1.0078 0.33185-1.4472 0.9261-0.83501 1.1294-1.4947 1.1975-1.4947 0.15435 0-0.4802-0.17493-0.77175-0.46305-0.77175-0.56041 0-0.56806 0.12881-0.0866 1.4601 0.362 1.0011 0.42399 1.0335 1.6207 0.84853 0.75445-0.11663 1.5177-0.49417 1.9389-0.95901zm20.22 0.05917c0.4669-0.10217 0.84892-0.33306 0.84892-0.5131 0-0.19904-0.34372-0.25185-0.87691-0.13474-0.60083 0.13197-1.0015 0.0425-1.2726-0.28417-0.50665-0.61048-0.90482-0.60203-1.6078 0.03412-1.1254 1.0185-0.3663 1.7897 1.2877 1.3083 0.42446-0.12355 1.1538-0.30822 1.6207-0.41039zm-14.277-0.19221c0-0.15976-0.20837-0.29048-0.46305-0.29048-0.47737 0-0.61329 0.36425-0.26564 0.7119 0.24662 0.24663 0.72869-0.03217 0.72869-0.42143zm26.852-0.2133c-0.003-0.30829-0.10364-0.40769-0.23511-0.23152-0.12672 0.16978-0.35611 0.41288-0.50977 0.54022s-0.0479 0.23152 0.23511 0.23152c0.286 0 0.5124-0.23992 0.50977-0.54022zm8.3396 0.24974c0-0.15977-0.13891-0.37634-0.3087-0.48127s-0.3087 0.02579-0.3087 0.29048c0 0.2647 0.13891 0.48127 0.3087 0.48127s0.3087-0.13072 0.3087-0.29048zm25.985-1.2671c0.13946-1.4624-0.10736-2.0022-0.79485-1.7384-0.58225 0.22343-0.63654 1.1024-0.13595 2.201 0.50919 1.1176 0.79358 0.97621 0.9308-0.46263zm-37.87 0.3228c0.10494-0.16978 0.0436-0.3087-0.13612-0.3087-0.17981 0-0.32693 0.13892-0.32693 0.3087s0.0612 0.3087 0.13613 0.3087c0.0749 0 0.22199-0.13892 0.32692-0.3087zm-43.166-1.722c0.10279-0.26784-0.027-0.70079-0.28825-0.96211-0.4277-0.4277-0.51038-0.40927-0.82824 0.18467-0.19421 0.36288-0.26903 0.79584-0.16627 0.96211 0.29008 0.46936 1.0752 0.35634 1.2828-0.18467zm29.676-0.501c0.53194-0.53193 0.45954-1.107-0.26799-2.1287-0.99741-1.4007-1.4405-1.1622-1.3452 0.72409 0.045 0.89137 0.093 1.6554 0.10665 1.6978 0.0766 0.23831 1.1921 0.02116 1.5066-0.29326zm6.1178 0.0028c0.12497-0.20221 0.0758-0.4181-0.10908-0.47976-0.18498-0.06166-0.70862-0.45715-1.1637-0.87888-0.57801-0.53569-1.0281-0.70864-1.4934-0.57386-0.69105 0.20017-1.7465 1.2378-1.7465 1.717 0 0.36467 1.1494 0.35366 1.3762-0.01318 0.10323-0.16703 0.53161-0.1031 1.0215 0.15245 1.0307 0.53768 1.8123 0.56587 2.1149 0.07628zm4.4397-0.06751c1.2221-0.13552 1.2825-0.16392 1.0725-0.50379-0.1936-0.31326-2.5369-0.36936-3.6192-0.08664-0.29713 0.07762-0.54023 0.3583-0.54023 0.62375 0 0.39017 0.22178 0.44141 1.1576 0.26745 0.63669-0.11836 1.5049-0.2537 1.9294-0.30077zm12.165 0.24909c1.2305-0.47218 1.3654-5.3705 0.1479-5.3705-0.3203 0-0.58235-0.11569-0.58235-0.25708 0-0.1414-0.7293-0.40995-1.6207-0.59679-0.89137-0.18684-2.2819-0.48396-3.0901-0.66027-1.7242-0.37614-11.758-0.38476-15.955-0.01371-2.6851 0.23741-2.9836 0.33093-3.7816 1.1848-0.87679 0.93818-1.1091 1.5779-0.573 1.5779 0.16135 0 0.43053-0.2431 0.59817-0.54022 0.24415-0.43269 0.38239-0.46342 0.69449-0.15435 0.46165 0.45716 7.9837 0.55514 7.9837 0.10399 0-0.15504 0.42118-0.1229 0.93598 0.0714 0.80511 0.3039 1.1284 0.25119 2.3125-0.37696 1.3555-0.71911 1.404-0.72255 3.1745-0.22576 2.0182 0.56626 4.2474 0.66249 4.5358 0.1958 0.29842-0.48286 1.3891-0.36167 1.3891 0.15435 0 0.54546 1.1276 0.63018 1.305 0.09804 0.0898-0.26933 0.43697-0.23925 1.3245 0.11474 1.4911 0.59473 1.6978 1.0942 0.55658 1.3451-1.7454 0.38385-1.752 0.39007-1.2401 1.1713 0.45187 0.68963 0.43006 0.73062-0.58395 1.0973-0.57935 0.20949-1.0534 0.51902-1.0534 0.68783 0 0.16882 0.12931 0.22702 0.28736 0.12933 0.15806-0.09768 0.37463-0.03643 0.48127 0.13613 0.2119 0.34285 1.9785 0.42477 2.7528 0.12764zm-23.278-5.6792c0-0.16978 0.14711-0.3087 0.32692-0.3087 0.1798 0 0.24107 0.13892 0.13613 0.3087s-0.25205 0.3087-0.32693 0.3087c-0.0749 0-0.13612-0.13892-0.13612-0.3087zm35.154 5.5864c0.79813-0.50553 0.0229-1.0352-1.2627-0.86277-1.4358 0.19258-1.7873 0.44854-1.1604 0.84504 0.57218 0.36186 1.8648 0.37131 2.423 0.01773zm11.519-0.27442c0.27232-0.27232 0.075-0.47709-0.82025-0.85114-0.99451-0.41553-1.1117-0.5565-0.74922-0.90156 0.26363-0.25099 0.82308-0.3472 1.448-0.24902 0.82126 0.12902 1.0529 0.33209 1.1962 1.0488 0.19229 0.96143 0.84534 1.1893 1.148 0.40054 0.34011-0.88629 0.19504-2.5167-0.25732-2.8922-0.24458-0.20299-0.36727-0.57083-0.27264-0.81743 0.14306-0.37282-0.22711-0.43231-2.197-0.35308-1.6936 0.06812-2.4664-0.02201-2.7105-0.3161-0.18778-0.22626-0.91149-0.67108-1.6082-0.98849-1.0725-0.48857-2.346-0.60487-8.3014-0.75809-3.869-0.09954-7.3742-0.09574-7.7893 0.0084-0.96909 0.24323-0.96225 0.84165 0.017 1.4833 0.42446 0.27812 0.77174 0.71084 0.77174 0.9616 0 0.6283 0.82922 0.57423 1.1942-0.07786 0.28314-0.50593 0.32953-0.50593 0.88857 0 0.71335 0.64557 1.5709 0.66935 2.3688 0.06568 0.62088-0.46979 2.7632-0.33847 3.465 0.21239 0.19437 0.15256 0.47221 0.25606 0.61741 0.23 1.1053-0.19838 1.9273 0.08225 2.0176 0.68877 0.23161 1.5568 1.8335 1.4713 1.9166-0.10224 0.0339-0.6403 0.16523-0.70381 1.2556-0.60676 0.66983 0.05962 1.5196 0.22311 1.8884 0.36333 0.41771 0.15881 0.80171 0.12376 1.0184-0.09296 0.25685-0.25684 0.43841-0.25738 0.69373-0.0021 0.25535 0.25533-0.0401 0.72096-1.1289 1.7791-1.4446 1.404-1.5131 1.4324-3.3557 1.3894-2.8087-0.06546-3.2701-0.02351-3.2701 0.29736 0 0.59421 9.9655 0.66993 10.555 0.0802zm-1.4486-3.4598c-0.10494-0.16978-0.0436-0.3087 0.13612-0.3087 0.17981 0 0.32692 0.13891 0.32692 0.3087 0 0.16978-0.0612 0.3087-0.13612 0.3087-0.0749 0-0.22198-0.13892-0.32692-0.3087zm-51.426 3.2368c0.19825-0.19906 0.12152-0.54422-0.22208-0.9989-0.44822-0.59313-0.66698-0.65403-1.4956-0.41638-0.64557 0.18515-1.0834 0.16557-1.3074-0.05848-0.24332-0.24332-0.64058-0.192-1.4308 0.18486-1.4902 0.71064-2.821 0.67592-3.2278-0.0842-0.36329-0.67881-1.241-0.52895-1.241 0.21188 0 0.31397-0.20135 0.41337-0.6171 0.30465-0.3394-0.08875-0.68041-0.0589-0.75781 0.06634s-0.59848 0.17899-1.1579 0.11944c-0.55946-0.05955-1.864-0.17219-2.899-0.25032s-2.2852-0.35244-2.7783-0.60957c-1.2607-0.65743-1.9769-0.601-1.9769 0.15576 0 0.3449-0.20837 0.70705-0.46305 0.80478-1.368 0.52494 0.1877 0.69475 6.1879 0.67543 3.658-0.01177 6.7026 0.03019 6.7657 0.09327 0.26287 0.26283 6.3433 0.08049 6.6212-0.19856zm4.3814-0.24125c-0.39621-0.39621-0.798-0.08999-0.50466 0.38463 0.11362 0.18385 0.348 0.24687 0.52085 0.14004 0.21084-0.13031 0.20551-0.30298-0.0162-0.52468zm20.089-0.15132c-0.0846-0.60601 0.006-0.67959 0.64031-0.52038 1.1332 0.28441 1.6308-0.5068 0.89238-1.4188-0.54436-0.67224-0.66311-0.6939-1.8518-0.33776-0.69859 0.2093-1.4162 0.65348-1.5948 0.98706-0.41574 0.77684-0.80482 0.77264-1.0097-0.01088-0.0888-0.33957-0.30401-0.6174-0.47825-0.6174s-0.40498 0.27783-0.51275 0.6174c-0.10778 0.33957-0.30931 0.6174-0.44785 0.6174-0.28257 0-0.6418 1.1227-0.42773 1.3368 0.0757 0.07575 1.2067 0.11852 2.5132 0.09505 2.2873-0.0411 2.3718-0.06887 2.277-0.74848zm10.599 0.54392c0.10749-0.17393 0.10946-0.70768 0.004-1.1861-0.17183-0.78229-0.3224-0.87187-1.4955-0.8896-1.0677-0.01615-1.3651 0.10878-1.6386 0.6883-0.53087 1.1249 0.005 1.7036 1.5786 1.7036 0.74557 0 1.4435-0.1423 1.551-0.31623zm24.171-1.6131c-0.08446-0.876-0.20207-0.99622-0.92702-0.94771-0.63398 0.04242-0.85802-0.10355-0.94759-0.6174-0.10841-0.6219-0.13542-0.60999-0.35604 0.157-0.30386 1.0564 0.59049 2.3878 1.6133 2.4017 0.62129 0.0084 0.70156-0.12074 0.6174-0.99357zm-21.607-0.179c0.0542-0.36872-0.0166-0.67039-0.15727-0.67039-0.3662 0-1.0231 1.1307-0.79142 1.3623 0.35195 0.35196 0.84837-0.01008 0.94869-0.6919zm-61.376-0.208c0-0.78816-0.42132-1.03-0.78087-0.44827-0.25681 0.4155 0.0481 1.22 0.46249 1.22 0.17511 0 0.31838-0.34729 0.31838-0.77175zm3.8136-0.68737c-0.25244-1.0058 0.83268-1.3113 5.2605-1.4812 2.0553-0.07885 3.9453-0.15501 4.2-0.16922 0.25467-0.01422 1.5396 0.07456 2.8555 0.19727 1.6979 0.15834 2.3924 0.34461 2.3924 0.64161 0 0.23017 0.27783 0.41849 0.61739 0.41849 0.33958 0 0.61741-0.13892 0.61741-0.3087s-0.13892-0.3087-0.3087-0.3087-0.30871-0.33909-0.30871-0.75353 0.13893-0.83938 0.30871-0.94432c0.16978-0.10493 0.3087 0.09524 0.3087 0.44483 0 0.46462 0.19873 0.63562 0.73872 0.63562 0.40629 0 0.81868-0.20837 0.91641-0.46305 0.18871-0.49177 1.6183-0.64745 1.792-0.19516 0.0566 0.14734 0.41547 0.36508 0.79748 0.48385 0.51917 0.16142 0.69457 0.09228 0.69457-0.27378 0-0.3638 0.19194-0.44156 0.74639-0.3024 0.56081 0.14076 0.83299 0.02551 1.0947-0.46355 0.19159-0.35798 0.27942-0.76239 0.19519-0.89868-0.1621-0.26228-3.2778-0.25706-3.7595 0.0063-0.15583 0.08519-1.3066 0.17903-2.5572 0.20853-2.5784 0.06081-2.8196 0.14728-2.8196 1.0106 0 0.49025-0.17234 0.59928-0.82511 0.522-0.45381-0.05372-0.887-0.2859-0.96263-0.51595-0.10248-0.31179 0.0486-0.36028 0.5936-0.1905 0.72389 0.22552 0.72536 0.22135 0.14962-0.42337-0.31983-0.35813-0.70792-0.57301-0.86246-0.4775-0.15452 0.0955-0.45712 0.02743-0.67246-0.15127-0.23051-0.19132-1.5023-0.28364-3.093-0.22453-2.1737 0.08078-2.8762 0.22952-3.5956 0.76139-0.62926 0.46524-1.3448 0.661-2.4158 0.661-1.0125 0-1.7543 0.18831-2.2166 0.56266-0.61623 0.49899-0.66948 0.73196-0.47051 2.0587 0.15571 1.0384 0.30667 1.3628 0.49346 1.0606 0.14801-0.2395 0.19091-0.74707 0.0953-1.1279zm7.6083-2.554c0-0.38678 0.3276-0.38678 0.9261 0 0.37444 0.24198 0.33013 0.30015-0.23153 0.30397-0.38201 0.0026-0.69457-0.13419-0.69457-0.30397zm25.622 3.3957c0-0.45276-0.2058-0.6174-0.77175-0.6174-0.84263 0-0.97677 0.2889-0.40131 0.86436 0.56807 0.56806 1.1731 0.4407 1.1731-0.24696zm-28.4-0.15435c0-0.25468-0.13892-0.46305-0.3087-0.46305s-0.30871 0.20837-0.30871 0.46305 0.13893 0.46305 0.30871 0.46305 0.3087-0.20837 0.3087-0.46305zm4.8344-0.01774c0.10146-0.26443 0.36136-0.41292 0.57752-0.32997 0.5758 0.22095 0.7822-0.11836 0.44981-0.73945-0.25573-0.47786-0.42214-0.4977-1.3882-0.16558-1.3082 0.44975-1.8408 0.92172-1.5575 1.3802 0.31364 0.50747 1.7084 0.4019 1.9184-0.14519zm49.295 0.27133c0.11521-0.1152 0.72875-0.21939 1.3634-0.23152 0.98254-0.01878 1.1698-0.13451 1.2608-0.77904 0.0911-0.64568 0.0381-0.6999-0.36095-0.36876-0.38443 0.31904-0.52441 0.2889-0.78555-0.16912-0.29274-0.5134-0.38596-0.52002-1.1826-0.08397-0.47563 0.26035-0.90915 0.78128-0.9634 1.1576-0.0956 0.66326 0.24078 0.90227 0.66825 0.4748zm-29.742-0.39c0-0.15976-0.13891-0.37634-0.3087-0.48127-0.16978-0.10493-0.3087 0.02579-0.3087 0.29048 0 0.2647 0.13892 0.48127 0.3087 0.48127 0.16979 0 0.3087-0.13072 0.3087-0.29048zm7.6178-0.20372c0.19194-0.50017-0.35066-1.0359-1.0579-1.0446-0.21224-0.0026-0.38588 0.34256-0.38588 0.76702 0 0.56992 0.16399 0.77175 0.62709 0.77175 0.3449 0 0.71244-0.22239 0.81673-0.4942zm2.1203-0.26351c1.1516-1.1516 0.99546-1.7119-0.47709-1.7119-0.69695 0-1.2348 0.14885-1.2348 0.34173 0 0.18795 0.20392 0.26347 0.45315 0.16783 0.66016-0.25332 0.83072 0.23463 0.31853 0.91128-0.94062 1.2427-0.23106 1.4623 0.9402 0.29104zm28.979-0.2084c-0.24353-0.39405-0.74701-0.01724-0.74701 0.55908 0 0.39242 0.0859 0.41132 0.45965 0.10115 0.2528-0.20981 0.38211-0.50692 0.28736-0.66023zm-47.361 0.19436c0.21136-0.25468 0.57565-0.46305 0.80953-0.46305 0.54943 0 0.54438-0.44295-0.0103-0.90329-0.29775-0.24712-0.49885-0.25908-0.6356-0.03779-0.11003 0.17803-0.61297 0.32369-1.1176 0.32369-1.0145 0-1.5731 0.81351-0.866 1.2612 0.64881 0.41082 1.3901 0.33719 1.82-0.18078zm13.891-0.44483c0-0.15976-0.13891-0.37634-0.30869-0.48127-0.16979-0.10493-0.3087 0.02579-0.3087 0.29048 0 0.2647 0.13891 0.48127 0.3087 0.48127 0.16978 0 0.30869-0.13072 0.30869-0.29048zm44.742-1.0753c0.2278-0.27448 0.28708-0.85435 0.15779-1.5435-0.19494-1.0391-0.57715-1.4349-0.80722-0.83595-0.05659 0.14734-0.43285 0.37059-0.83613 0.49612-0.50379 0.15681-0.66713 0.12128-0.522-0.11354 0.30331-0.49077-0.07432-0.96266-0.60685-0.75831-0.69103 0.26517-0.54179 0.96163 0.32822 1.5317 0.42976 0.28159 0.70975 0.58361 0.6222 0.67117-0.1602 0.1602 0.7443 0.96386 1.1054 0.98216 0.10655 0.0054 0.35792-0.18802 0.5586-0.42983zm-81.598-1.019c-0.31379-0.3138-0.57271 0.15864-0.31525 0.57522 0.1945 0.31469 0.26721 0.31494 0.37178 0.0012 0.0715-0.21448 0.0461-0.47389-0.0565-0.57647zm-1.4217-0.393c0-0.33957-0.18489-0.6174-0.41088-0.6174-0.22598 0-0.59675-0.34729-0.82391-0.77175-0.43602-0.81473-1.2348-1.0523-1.2348-0.3673 0 0.45463 1.7767 2.3738 2.1975 2.3738 0.14964 0 0.27206-0.27783 0.27206-0.6174zm2.7237-1.033c0.072-0.36769-0.1216-0.50977-0.69457-0.50977-0.58775 0-0.79438 0.16009-0.79438 0.61546 0 0.46377 0.17118 0.58941 0.69457 0.50977 0.38202-0.05813 0.73949-0.33509 0.79438-0.61546zm75.634-0.92368c0.05927-0.31254 0.37295-0.83347 0.6971-1.1576 0.32415-0.32415 0.58936-0.85018 0.58936-1.169 0-0.31878 0.20837-0.75253 0.46305-0.9639 0.48281-0.4007 0.63271-1.2164 0.23152-1.2599-1.7503-0.1896-1.902-0.13001-2.5345 0.99543-0.35346 0.62889-0.75866 1.1888-0.90049 1.2442-0.1418 0.0554-0.33103 0.76817-0.4205 1.5839l-0.16269 1.4832 0.96473-0.09405c0.6462-0.06299 1.0003-0.28166 1.0725-0.6623zm-78.799-0.689c-0.11355-0.4524-0.2759-0.75309-0.36079-0.6682-0.0849 0.08489-0.0614 0.5245 0.0521 0.9769 0.11353 0.4524 0.2759 0.75309 0.36079 0.6682 0.0849-0.08489 0.0614-0.5245-0.0521-0.9769zm75.301 0.04355c0-1.1026-0.60616-1.3707-1.0833-0.47918-0.448 0.8371-0.16284 1.6153 0.54216 1.4795 0.36753-0.07078 0.54115-0.39173 0.54115-1.0004zm7.5631-0.72956c0-0.43275 0.23067-1.0417 0.51261-1.3532 0.28193-0.31153 0.41418-0.66484 0.29389-0.78514-0.34858-0.34858-1.099 0.2835-1.8025 1.5181-0.54213 0.95155-0.58357 1.2216-0.24923 1.6245 0.53535 0.64506 1.2452 0.07257 1.2452-1.0042zm-75.927 0.49566c0.50247-0.3715 0.91801-0.96189 0.92341-1.312 0.005-0.35008 0.19759-0.88405 0.42711-1.1866 0.38779-0.51119 0.43196-0.49166 0.62467 0.27618 0.11405 0.45444 0.0641 0.96955-0.11107 1.1447-0.21878 0.21879-0.2123 0.44632 0.0207 0.7271 0.51127 0.61606 0.94852 0.49044 0.7266-0.20874-0.22776-0.71759 0.38868-0.86172 0.66012-0.15435 0.0978 0.25468 0.38894 0.46305 0.64717 0.46305 0.67127 0 0.29004-2.0949-0.77848-4.2777-1.0442-2.1331-1.6236-2.5274-2.7695-1.8846-0.74535 0.41809-0.85002 0.66654-0.87776 2.0837-0.0227 1.1617 0.0845 1.609 0.38588 1.609 0.22955 0 0.41737 0.13104 0.41737 0.2912 0 0.38976-1.273 1.2651-1.5716 1.0806-0.41919-0.25907-0.65275 1.1125-0.26833 1.5757 0.47428 0.57147 0.46073 0.57346 1.5437-0.22722zm1.6718-3.9769c-0.1158-0.18735-0.0744-0.47678 0.092-0.64318 0.1976-0.1976 0.36563-0.13816 0.4844 0.17136 0.21596 0.56278-0.27291 0.96294-0.57643 0.47182zm59.805 3.1769c-0.0774-0.79211-0.00029-0.95276 0.38587-0.80457 0.29791 0.11432 0.48249 0.01748 0.48249-0.25315 0-0.31981-0.39641-0.43306-1.4663-0.4189l-1.4663 0.0194-0.0939-1.2921c-0.077-1.0582 0.0252-1.3559 0.56435-1.6444 0.70785-0.37883 1.5362-0.21548 1.5362 0.30294 0 0.17511-0.33909 0.31839-0.75353 0.31839-1.3236 0-1.2863 0.94854 0.0538 1.3667 0.50777 0.15845 0.88996 0.01459 1.4505-0.54597 0.47073-0.47072 0.81329-0.62525 0.89787-0.40504 0.0752 0.19583 0.78768-0.37325 1.5832-1.2646 1.6279-1.824 2.3203-2.0798 2.0888-0.77175-0.11547 0.65245-0.0642 0.76832 0.22129 0.50066 0.20433-0.19155 0.32592-0.72636 0.2702-1.1885-0.0805-0.66787-0.35459-0.92749-1.3361-1.2657-0.67914-0.23399-1.4743-0.3508-1.767-0.25958-0.83287 0.25957-1.854 1.8889-1.6288 2.5987 0.34845 1.0979-0.66343 0.6975-1.2243-0.48444-0.60593-1.2769-0.44794-1.9849 0.44293-1.9849 0.34489 0 0.62708-0.13892 0.62708-0.3087s-0.4862-0.3087-1.0804-0.3087c-0.85114 0-1.0804 0.123-1.0804 0.5796 0 0.31878-0.19752 0.74352-0.43892 0.94387s-0.52675 0.88415-0.6341 1.5196c-0.18292 1.0827-0.26449 1.1553-1.2987 1.1553-0.78571 0-1.2726 0.20883-1.6907 0.7251-0.55014 0.67939-0.61215 0.69093-0.98353 0.18305-0.36874-0.50429-0.4326-0.48674-0.91656 0.25187-0.28611 0.43666-0.5202 0.88064-0.5202 0.98661 0 0.46074 2.3397 2.6073 2.8419 2.6073 0.70104 0 0.71661-0.49559 0.0277-0.88114-0.44922-0.2514-0.47113-0.41506-0.14992-1.12 0.3941-0.86497 1.2023-0.91616 1.0521-0.06665-0.12031 0.68042 1.0576 1.2409 2.1492 1.0225 0.82288-0.16458 0.86177-0.13673 0.42249 0.30254-0.63933 0.63934-0.35553 1.0299 0.68598 0.94393 0.75092-0.06195 0.83195-0.17703 0.74583-1.0592zm-63.958 0.08627c0-0.76285-0.41826-1.035-0.75452-0.49091-0.22313 0.36101 0.11884 1.2627 0.47886 1.2627 0.15161 0 0.27566-0.34729 0.27566-0.77175zm21.67-0.48251c0.55781-1.3279 0.46047-2.1414-0.25624-2.1414-0.4459 0-0.94857 1.0199-1.2552 2.5468-0.13766 0.6855-0.0591 0.84832 0.40834 0.84578 0.38264-0.0021 0.75649-0.42611 1.1031-1.2511zm10.28 0.63686c0.10494-0.16978-0.0257-0.3087-0.29047-0.3087-0.26471 0-0.48128 0.13891-0.48128 0.3087 0 0.16978 0.13071 0.3087 0.29048 0.3087 0.15978 0 0.37634-0.13892 0.48127-0.3087zm-34.741-0.44824c0.44899-0.54099 0.13885-1.7127-0.45334-1.7127-0.611 0-0.85566 0.53943-0.63799 1.4067 0.21564 0.85918 0.55357 0.95393 1.0913 0.30597zm17.608 0.13954c0-0.16978-0.13071-0.3087-0.29047-0.3087-0.15978 0-0.37635 0.13891-0.48128 0.3087-0.10494 0.16978 0.0258 0.3087 0.29048 0.3087 0.2647 0 0.48127-0.13892 0.48127-0.3087zm38.896 0c0.25468-0.16458 0.32414-0.29924 0.15436-0.29924-0.1698 0-0.51708 0.13466-0.77175 0.29924-0.25468 0.16458-0.32413 0.29924-0.15435 0.29924s0.51706-0.13466 0.77174-0.29924zm-30.561-0.13613c0-0.07487-0.13891-0.22198-0.30869-0.32692-0.16979-0.10493-0.3087-0.04367-0.3087 0.13613s0.13891 0.32692 0.3087 0.32692c0.16978 0 0.30869-0.06126 0.30869-0.13613zm21.896-1.6059c0.0196-0.60062-0.50093-1.0363-1.2384-1.0363-0.15589 0-0.28345 0.54547-0.28345 1.2122 0 1.9842 1.4565 1.8159 1.5218-0.17586zm-16.725 1.2387c0.40856-0.10949 0.69458-0.42556 0.69458-0.76753 0-0.70798-0.23876-0.72297-1.4993-0.09412-1.4418 0.71925-0.88569 1.3147 0.80473 0.86165zm5.4554-0.03695c0.12828-0.12734 0.59017-0.23152 1.0264-0.23152 1.1469 0 1.1737-0.57697 0.0788-1.697-0.94443-0.96613-0.975-0.9738-2.1003-0.52689-1.2969 0.51507-1.8106 1.7609-0.72603 1.7609 0.33722 0 0.68321-0.17364 0.76885-0.38587 0.0856-0.21223 0.16666-0.0039 0.18007 0.46305 0.024 0.8369 0.31587 1.0703 0.7721 0.6174zm7.8958-0.07717c0-0.16978-0.13892-0.3087-0.30871-0.3087-0.16978 0-0.30869 0.13892-0.30869 0.3087s0.13891 0.3087 0.30869 0.3087c0.16979 0 0.30871-0.13892 0.30871-0.3087zm6.4827-1.0419c0-0.74281 0.0868-1.7847 0.19293-2.3152 0.15608-0.7804 0.0918-0.96468-0.33638-0.96468-0.76654 0-1.6866 1.2433-1.6985 2.2953-0.009 0.84855 1.0007 2.3351 1.587 2.3351 0.14019 0 0.25489-0.60775 0.25489-1.3506zm22.066 0.93022c0.31616-0.23119 0.79699-0.36225 1.0685-0.29125 0.59309 0.1551 1.9538-1.5614 1.813-2.2871-0.0544-0.28055-0.43423-0.52518-0.86453-0.55681-1.0456-0.07686-2.7826 0.68619-2.7826 1.2224 0 0.24027-0.22217 0.65902-0.4937 0.93056-0.39479 0.39479-0.41815 0.58476-0.11656 0.94815 0.46566 0.56107 0.64892 0.56562 1.3758 0.0341zm-58.342-0.19045c0.20049-0.32441-1.0266-2.1675-1.4431-2.1675-0.29344 0-0.33417 1.2754-0.0633 1.9813 0.2066 0.53839 1.2119 0.66266 1.5064 0.18621zm7.7114-1.4499c0.17123-0.91277 0.10249-1.2343-0.33179-1.5519-0.74677-0.54606-0.96857-0.50679-1.3696 0.24254-0.27628 0.51624-0.23275 0.77025 0.22067 1.2879 0.31066 0.35463 0.38511 0.53949 0.16543 0.41079-0.40002-0.23435-1.2984 0.29261-1.2984 0.76159 0 0.35812 1.2983 0.52264 1.8934 0.23994 0.27736-0.13175 0.60149-0.75763 0.72029-1.3909zm17.452 1.3072c0-0.07487-0.13891-0.22198-0.3087-0.32692-0.16978-0.10493-0.3087-0.04367-0.3087 0.13613s0.13892 0.32692 0.3087 0.32692c0.16979 0 0.3087-0.06126 0.3087-0.13613zm12.657-0.32692c0-0.25468-0.13892-0.46305-0.30871-0.46305-0.16978 0-0.30869 0.20837-0.30869 0.46305s0.13891 0.46305 0.30869 0.46305c0.16979 0 0.30871-0.20837 0.30871-0.46305zm4.6552-0.93865c1.6042-0.81292 2.1382-1.498 1.5927-2.0435-0.21646-0.21645-0.55761-0.15883-1.0779 0.18205-0.66997 0.43898-0.80661 0.444-1.1404 0.04184-0.24734-0.298-0.6811-0.39652-1.2473-0.28328-0.6957 0.13914-0.90906 0.04458-1.0743-0.47615-0.26559-0.83683-1.0907-0.84596-1.0907-0.01208 0 0.35073-0.12922 0.87914-0.28716 1.1743-0.41064 0.76729 0.0924 1.5123 0.68756 1.0183 0.59168-0.49105 1.4518-0.13652 1.4518 0.59843 0 0.76887 0.33415 0.7383 2.1857-0.19993zm-54.92-0.03529c0.65484-0.59262 0.74595-1.3413 0.16322-1.3413-0.57266 0-1.1422 0.6465-1.1422 1.2965 0 0.69021 0.25298 0.70178 0.97897 0.04476zm42.056-0.11943c0.54307-0.52257-1.617-2.148-2.8545-2.148-1.1038 0-2.5069 2.2128-1.5986 2.521 0.57859 0.19636 4.1744-0.1049 4.4531-0.37308zm-26.556-0.34386c1.1249-0.5465 2.0424-1.5716 2.0424-2.2817 0-0.3863-0.90118-0.02473-1.9882 0.79774-1.3366 1.0113-2.2726 0.80638-1.2878-0.28189 0.39972-0.44168 0.48532-0.87074 0.33431-1.6756-0.16932-0.90256-0.11571-1.074 0.32336-1.0343 0.73056 0.06618 1.3323-0.89878 0.85688-1.3742-0.27206-0.27207-0.64219-0.24566-1.5366 0.10962-1.0252 0.40725-1.1987 0.62306-1.3367 1.6619-0.10659 0.80243-0.29883 1.1635-0.58629 1.1013-0.23522-0.05089-0.62521-0.01673-0.86661 0.0759-0.35971 0.13803-0.32933 0.32185 0.16834 1.0186 0.74998 1.05 2.1294 2.548 2.3462 2.548 0.0885 0 0.77721-0.29947 1.5306-0.66548zm15.162 0.35678c0.10493-0.16978 0.0436-0.3087-0.13613-0.3087-0.1798 0-0.32692 0.13892-0.32692 0.3087s0.0612 0.3087 0.13613 0.3087c0.0749 0 0.22198-0.13891 0.32692-0.3087zm-6.4262-1.6014c-0.0986-0.24626-0.17169-0.17311-0.18649 0.18651-0.0134 0.32542 0.0596 0.50774 0.16212 0.40517 0.10259-0.10258 0.11354-0.36883 0.0244-0.59167zm13.063 0.23045c0-0.07487-0.13891-0.22199-0.3087-0.32692s-0.3087-0.04367-0.3087 0.13613 0.13891 0.32692 0.3087 0.32692 0.3087-0.06126 0.3087-0.13613zm-27.674-1.8756c0.87888-1.3912 0.92459-2.4502 0.092-2.1307-0.24221 0.09294-0.6642 0.75509-0.93778 1.4714-0.93194 2.4403-0.49468 2.7811 0.84582 0.65925zm17.796 0.77691c0.39399-0.73618-0.0776-1.8522-0.78261-1.8522-0.30668 0-0.45219 0.33112-0.45219 1.029 0 1.5292 0.63159 1.9503 1.2348 0.8232zm18.769 0.24696c0.48052-0.48052 0.46809-0.9215-0.0458-1.6243-0.28058-0.38374-0.55721-0.48134-0.84891-0.29952-0.238 0.14833-0.89185 0.28637-1.453 0.30676-0.56116 0.02039-1.2557 0.27603-1.5435 0.56809-0.49199 0.49936-0.48746 0.55749 0.0761 0.9752 0.72625 0.53836 3.3008 0.58812 3.8152 0.07374zm-23.399-0.24696c0-0.16978-0.13891-0.3087-0.30869-0.3087s-0.3087 0.13892-0.3087 0.3087 0.13892 0.3087 0.3087 0.3087 0.30869-0.13892 0.30869-0.3087zm-15.744-1.7386c0-0.72392-0.52354-0.71141-0.91598 0.02188-0.51249 0.95759-0.0919 1.7422 0.50005 0.93276 0.22877-0.31285 0.41593-0.74244 0.41593-0.95464zm17.596 0.96688c0.30694-0.36983 0.30541-0.5581-0.007-0.93524-0.29744-0.3584-0.30936-0.65332-0.0494-1.2238 0.41829-0.91806 0.0138-1.2533-0.85652-0.70983-0.46744 0.29192-0.62995 0.71934-0.62995 1.6569 0 0.69489 0.0926 1.356 0.2058 1.4692 0.34435 0.34436 0.93223 0.23131 1.3377-0.25725zm31.179 0c0-0.25468-0.20837-0.46305-0.46305-0.46305s-0.46305 0.20837-0.46305 0.46305 0.20837 0.46305 0.46305 0.46305 0.46305-0.20837 0.46305-0.46305zm-33.031-0.48891c0-0.16397-0.31255-0.43326-0.69456-0.59844-0.38202-0.16518-0.91879-0.46168-1.1928-0.65889-0.27846-0.20037-0.75513-0.25831-1.0805-0.13131-0.5322 0.20774-0.50362 0.29036 0.33294 0.96243 1.2336 0.99102 2.6349 1.2177 2.6349 0.42621zm37.522-0.10779c0.3828-0.58423 0.41626-0.89278 0.15061-1.3891-0.3978-0.74329-0.80536-0.81564-1.1534-0.20475-0.13577 0.23834-0.59272 0.48144-1.0154 0.54022-1.0017 0.13928-1.1492 0.98795-0.24717 1.4224 1.1199 0.5394 1.7361 0.43911 2.2654-0.36871zm-23.558-0.29383c0.12473-0.18935 0.22892-0.58472 0.23152-0.87861 0.006-0.65789-1.379-1.063-1.9667-0.57525-0.23095 0.19167-0.63503 0.26595-0.89796 0.16505-0.62424-0.23954-1.7611 0.37721-1.7611 0.9554 0 0.30339 0.33013 0.45374 1.0033 0.45691 0.55179 0.0026 1.2116 0.13834 1.4663 0.30165 0.51937 0.33304 1.5794 0.09887 1.9246-0.42516zm12.584-0.52652c0-0.60847-0.78275-1.1444-1.1439-0.78328-0.10516 0.10515-0.0291 0.54689 0.16898 0.98164 0.39753 0.87247 0.97493 0.75499 0.97493-0.19836zm5.0683 0.45793c0.73538-0.2822 0.58692-1.0157-0.28609-1.4135-0.5998-0.27329-0.94779-0.26004-1.5435 0.05878-1.0367 0.55482-1.0298 1.3552 0.0103 1.1564 0.4285-0.08192 0.85345-0.02865 0.94431 0.11836 0.19651 0.31798 0.24367 0.32228 0.87526 0.07992zm-11.048-0.581c0.11972-0.312 0.41572-0.4009 0.91641-0.27523 0.56903 0.14282 0.73955 0.06119 0.73955-0.35404 0-0.63704-0.8539-1.3558-1.6273-1.3697-0.63651-0.01143-1.3169 1.2735-1.0469 1.977 0.23473 0.61171 0.78734 0.62358 1.0182 0.02188zm-11.989-0.21829c0.64432-0.64432 0.4509-1.2398-0.32413-0.9979-0.76737 0.23948-1.1995 0.74213-0.96469 1.1221 0.22359 0.36178 0.86462 0.30002 1.2888-0.12418zm-37.29 29.388c0.25467-0.16458 0.74088-0.29924 1.0804-0.29924 0.51125 0 0.53779 0.05145 0.15435 0.29924-0.25467 0.16459-0.74087 0.29924-1.0804 0.29924-0.51124 0-0.53778-0.05145-0.15434-0.29924z"/>
     </g>
    </g>
   </g>
  </g>
 </g>
</svg>
