<?xml version="1.0" encoding="UTF-8" standalone="no"?>
<!-- Created with Inkscape (http://www.inkscape.org/) -->
<svg id="svg2" xmlns:rdf="http://www.w3.org/1999/02/22-rdf-syntax-ns#" xmlns="http://www.w3.org/2000/svg" height="45" width="67.5" version="1.1" xmlns:cc="http://creativecommons.org/ns#" xmlns:dc="http://purl.org/dc/elements/1.1/">
 <metadata id="metadata7">
  <rdf:RDF>
   <cc:Work rdf:about="">
    <dc:format>image/svg+xml</dc:format>
    <dc:type rdf:resource="http://purl.org/dc/dcmitype/StillImage"/>
    <dc:title/>
   </cc:Work>
  </rdf:RDF>
 </metadata>
 <g id="g3684">
  <rect id="rect2990" opacity="0" height="45" width="67.5" y="0" x="3.5527e-15"/>
  <path id="path3565" d="m25.475 44.704c-0.22813-0.1018-0.41478-0.23958-0.41478-0.30619s0.30718-0.55317 0.68263-1.0812c0.37544-0.52807 0.78592-1.2086 0.91217-1.5123 0.12819-0.30835 0.71967-0.86385 1.3396-1.2582 1.5769-1.0029 2.1086-1.4139 2.1086-1.6298 0-0.10368-0.64224-0.82316-1.4272-1.5988-1.0089-0.99696-1.867-1.6219-2.9279-2.1321-2.4534-1.1801-3.3147-2.1326-3.3059-3.6562 0.005-0.81056 0.60096-2.3275 1.1559-2.9408 0.39472-0.43617 1.2307-0.8123 2.4706-1.1116 0.49926-0.12051 1.7247-0.66271 2.7232-1.2049 2.2078-1.1988 2.3576-1.5681 1.2252-3.0215-0.3965-0.50893-0.72091-1.1299-0.72091-1.38 0-0.25008-0.0485-0.58105-0.10775-0.73548-0.0592-0.15443 0.11479-0.6087 0.38677-1.0095 0.46042-0.67846 0.47695-0.78818 0.23984-1.5912-0.14006-0.47438-0.3595-0.89746-0.48762-0.94016-0.12813-0.04271-0.23296-0.20625-0.23296-0.36342s-0.0908-0.28577-0.20172-0.28577c-0.11095 0-0.20173-0.18155-0.20173-0.40344 0-0.39289-0.13448-0.40344-5.1439-0.40344h-5.1439v-0.50218c0-1.4556 2.0179-5.1117 4.0385-7.317 1.3329-1.4548 2.0536-1.9784 4.2282-3.0717 1.6748-0.84209 1.8194-1.0189 1.8194-2.2255 0-0.42816 0.10094-0.84086 0.2243-0.9171s0.76371-0.12643 1.423-0.11153c1.2588 0.02846 1.9837-0.21239 1.9837-0.65905 0-0.14632 0.2226-0.50622 0.49467-0.79979 0.40324-0.43511 0.67457-0.53376 1.468-0.53376 1.013 0 1.87 0.41611 1.87 0.90793 0 0.54958 0.89699 1.348 1.5184 1.3515 0.32979 0.0019 0.88848 0.04188 1.2415 0.08889 0.60775 0.08091 0.64892 0.1416 0.77372 1.1405 0.12866 1.0297 0.15924 1.0706 1.2744 1.7021 1.7459 0.98868 4.0666 2.8765 5.0762 4.1294 1.3003 1.6136 2.7517 4.1615 2.9067 5.1027 0.0731 0.44379 0.18239 1.0565 0.24289 1.3616l0.10999 0.55473h-5.8432-5.8432l-0.12481 1.4625c-0.21666 2.5387-0.0739 3.5805 0.49071 3.5805 0.3154 0 0.34176 0.089 0.18663 0.62991-0.0994 0.34645-0.31995 0.84252-0.49022 1.1024-0.77555 1.1837-0.11078 1.5944 2.3252 1.4366 1.173-0.07599 1.8271-0.03839 1.9793 0.1138 0.35355 0.35355 0.26838 1.0555-0.17696 1.4586-0.36118 0.32687-0.48947 0.33774-1.2038 0.102-0.97591-0.32208-1.5524-0.02519-1.2064 0.62131 0.16949 0.31671 2.725 1.6849 3.8424 2.0571 0.17705 0.05898 0.60823 0.53951 0.95818 1.0678 0.4732 0.7144 0.63016 1.1715 0.61241 1.7833-0.0618 2.1311-0.87814 3.1302-3.0677 3.7547-1.9463 0.5551-2.8573 1.0411-4.1449 2.2113-1.3474 1.2246-1.3225 1.722 0.12777 2.5475 1.4088 0.80185 2.2608 1.6634 2.7756 2.8069 0.25177 0.55917 0.6035 1.1376 0.78162 1.2855 0.59672 0.49523 0.33391 0.62282-1.283 0.62282h-1.6068l-0.13777-1.0386c-0.19194-1.4469-0.53104-1.7308-1.9028-1.5933-0.94967 0.09524-1.1089 0.1728-1.1649 0.56743-0.0357 0.25141 0.12196 0.75944 0.35034 1.1289 0.22837 0.36951 0.35591 0.73116 0.28341 0.80365-0.26861 0.2686-4.4103 0.14277-4.8052-0.146-0.36642-0.26793-0.36063-0.30074 0.16316-0.92322 0.2987-0.35498 0.54309-0.77142 0.54309-0.92542 0-0.39485-0.65563-0.69874-1.7999-0.83426-0.87762-0.10394-1.0141-0.06553-1.2905 0.3632-0.16999 0.26369-0.37066 0.81661-0.44595 1.2287-0.0753 0.4121-0.26126 0.85249-0.41328 0.97866-0.34944 0.29001-1.5463 0.35306-2.0907 0.11014zm8.824-8.8378c0.29801-0.29801 0.31563-0.89898 0.0315-1.0746-0.32234-0.19922-0.79805 0.29974-0.79805 0.83704 0 0.51514 0.37327 0.63081 0.76654 0.23754zm-1.2606-0.85464c0.17714-0.27035 0.2927-0.69309 0.2568-0.93942-0.10387-0.71278 0.35213-0.666 0.79308 0.08136 0.78183 1.3251 2.0668 0.89979 1.3674-0.45261-0.19383-0.37484-0.23348-0.64157-0.10698-0.71975 0.23396-0.14459 0.43682-0.03693 1.4541 0.7717 0.70655 0.56161 0.82858 0.58954 2.1602 0.49425 1.1361-0.08129 1.6392-0.23589 2.5795-0.79269 1.0987-0.65056 1.1718-0.74218 1.2302-1.5404 0.0535-0.73149 0.007-0.84873-0.3362-0.84873-0.21902 0-0.42849 0.08089-0.46547 0.17975-0.037 0.09886-0.52747 0.54193-1.09 0.9846-1.0371 0.81619-2.3056 1.2907-2.3056 0.86255 0-0.40004-0.61495-0.47687-0.88298-0.11032-0.21964 0.30037-0.32892 0.3157-0.72804 0.10209l-0.46961-0.25133 0.54315-0.32894c0.71573-0.43346 0.62082-1.0462-0.22281-1.4384-0.70859-0.32944-0.75773-0.63425-0.12921-0.80132 0.95249-0.25318 1.9201-1.4837 1.5885-2.0202-0.24633-0.39856-1.3117 0.39003-1.6419 1.2154-0.25112 0.62761-0.42627 0.79929-0.81547 0.79929-0.27261 0-0.67124 0.09397-0.88584 0.20882-0.33539 0.1795-0.39018 0.14082-0.39018-0.27538 0-0.62474-0.72611-1.5472-1.2179-1.5472-0.46471 0-0.79934 0.57523-0.79934 1.3741 0 0.32655-0.13557 0.70624-0.30127 0.84375-0.32238 0.26756-0.75653 0.12248-2.7423-0.91638-0.90884-0.47546-1.5545-0.60483-2.6525-0.53147-0.40421 0.027-0.68802 0.25205-1.059 0.83977-0.56783 0.89951-0.63584 1.3234-0.23691 1.4765 0.39135 0.15018 1.5295-0.45347 1.8887-1.0018 0.16962-0.25888 0.46727-0.47069 0.66144-0.47069 0.56548 0 1.3735 0.75924 1.5206 1.4287 0.16609 0.7562-0.2864 1.1777-1.2744 1.1873-0.97057 0.0094-1.8954 0.54043-1.818 1.0439 0.0526 0.34159 0.24326 0.42133 1.1562 0.48345 0.98287 0.06688 1.1637 0.01261 1.7899-0.5372 0.95398-0.83761 1.6017-1.1183 1.8976-0.82239 0.17368 0.17368 0.17232 0.36017-0.005 0.75039-0.48175 1.0573-0.17329 1.7106 0.8077 1.7106 0.37105 0 0.66892-0.16596 0.88224-0.49154zm3.9492 0.19401c0.008-0.34043-0.37378-0.33961-0.50452 0.001-0.0862 0.22474-0.0281 0.30558 0.18752 0.26068 0.17189-0.0358 0.31454-0.15359 0.317-0.26176zm-8.9015-3.5352c0-0.22189-0.1308-0.40344-0.29068-0.40344-0.35635 0-0.58419 0.33196-0.41534 0.60516 0.21937 0.35495 0.70602 0.2159 0.70602-0.20172zm12.138 0.0696c0.48406-0.43806 0.47032-0.87648-0.0274-0.87648-0.37719 0-0.81398 0.53411-0.81398 0.99534 0 0.31988 0.42259 0.26018 0.84143-0.11886zm-9.112-2.3678c0-0.69633-0.25403-0.92933-1.0132-0.92933-0.6904 0-0.67985 0.44976 0.0243 1.0337 0.88399 0.73312 0.98895 0.72204 0.98895-0.10437zm5.0359-0.51262c0.32916-0.61506 0.25719-1.2241-0.14419-1.2201-0.43596 0.0043-1.2608 0.84542-1.2608 1.2857 0 0.48575 1.1383 0.4326 1.405-0.0656zm4.445-14.168c0-0.51366-0.54111-1.1758-0.96088-1.1758-0.21897 0-0.25802 0.14014-0.15424 0.5536 0.25991 1.0356 1.1151 1.5127 1.1151 0.62218zm-3.0662-0.0058c0.33626-0.33626 0.30309-1.6173-0.0541-2.0896-0.61513-0.81328-0.26032-0.83332 1.2411-0.07008 1.6974 0.86288 2.7107 0.99422 3.7047 0.48022 1.3351-0.6904 0.35128-1.6808-1.3016-1.3104-0.95071 0.21306-1.6134 0.08333-2.8531-0.55853-0.70548-0.36525-0.75089-0.43028-0.39395-0.56416 0.22189-0.08323 0.70162-0.40833 1.066-0.72245 0.36444-0.31412 0.87528-0.57113 1.1352-0.57113 0.25993 0 0.59191-0.14377 0.73774-0.31949 0.38485-0.4637-0.0214-1.008-0.69688-0.93363-0.40968 0.0451-0.52748-0.03052-0.52748-0.3386 0-0.46319-0.50771-1.0306-0.92215-1.0306-0.318 0-0.39123 0.6159-0.10912 0.91783 0.0985 0.1054 0.2376 0.38594 0.30917 0.62343 0.12295 0.40802 0.0659 0.43062-1.0364 0.41034-0.64157-0.0118-1.4615 0.05487-1.8221 0.14815-0.64261 0.16624-0.65328 0.15804-0.53884-0.41417 0.2462-1.231-1.5562-2.1992-2.631-1.4133-0.37047 0.27089-0.37018 0.80407 0.001 2.0701 0.15804 0.53887-0.33019 0.75792-1.0045 0.45068-0.6782-0.30901-1.4124-0.07477-1.6925 0.53997-0.3499 0.76796-0.28912 1.2467 0.20198 1.5906 0.49813 0.3489 0.44652 0.38052-1.136 0.69592-0.61751 0.12307-1.1335 0.12809-1.3484 0.01311-0.19142-0.10244-0.63263-0.18626-0.98048-0.18626-0.54021 0-0.62306 0.06609-0.568 0.45308 0.0422 0.29608 0.33309 0.5793 0.83966 0.81729 0.67566 0.31745 0.9217 0.33428 1.9163 0.13109 0.62764-0.12822 1.6684-0.55119 2.3129-0.93995 0.64445-0.38875 1.2134-0.66514 1.2644-0.61418 0.051 0.05095-0.0446 0.35577-0.21231 0.67738-0.55748 1.069-0.29168 1.8959 0.60939 1.8959 0.50209 0 0.9835-0.47317 1.2831-1.2611 0.2857-0.75144 0.50688-0.69724 0.86392 0.2117 0.20187 0.5139 0.52734 0.87759 0.98877 1.1049 0.82581 0.40676 1.0362 0.42323 1.3535 0.10593zm5.9911-0.34629c0-0.70399-0.92663-0.98989-1.6571-0.51127l-0.53471 0.35035 0.47523 0.38481c0.29454 0.2385 0.71121 0.36177 1.0959 0.3242 0.50515-0.04932 0.62068-0.15134 0.62068-0.5481zm-19.006-0.817c1.1052-0.70087 1.1157-1.2171 0.0248-1.2171-0.84078 0-2.0358 0.96362-1.8371 1.4814 0.18859 0.49143 0.7497 0.40961 1.8123-0.26426zm1.7554-1.8177c0.44453-0.83061-1.0088-1.5516-2.028-1.0061-0.53162 0.28451-0.49004 0.56532 0.10584 0.71487 0.27282 0.06847 0.60164 0.25175 0.73073 0.40728 0.33771 0.40692 0.9431 0.34796 1.1914-0.11603zm2.6248-0.50892c0-0.27737 0.18154-0.68585 0.40344-0.90774 0.48855-0.48856 0.51236-0.86881 0.077-1.2301-0.28216-0.23417-0.39364-0.18964-0.82198 0.32831l-0.49555 0.59923 0.13118-0.84241c0.12555-0.80637 0.1111-0.83733-0.33792-0.72372-0.61618 0.15591-0.76485 0.40594-0.76858 1.2926-0.002 0.5355 0.15583 0.90524 0.58215 1.3616 0.71979 0.77053 1.2303 0.82124 1.2303 0.12219zm12.156-0.4116c0.6189-0.57388 0.71069-1.0533 0.23648-1.2353-0.68001-0.26094-1.8711 0.81186-1.622 1.4609 0.16896 0.44031 0.77351 0.34185 1.3855-0.22565zm-9.6055-2.2128c0.0645-0.16814-0.12369-0.62007-0.42004-1.0086-0.39939-0.52362-0.68934-0.70396-1.1318-0.70396-0.85119 0-0.78103 0.62408 0.15709 1.3974 0.83256 0.68627 1.2189 0.77358 1.3948 0.31521zm5.7595-1.8189c0.16964-0.37232 0.17213-0.56991 0.009-0.73281-0.33953-0.33952-0.85532-0.04004-0.85532 0.49661 0 0.87587 0.49204 1.0132 0.84608 0.2362zm-5.2839 0.02197c0-0.50003-0.23591-0.92424-0.51398-0.92424-0.37878 0-0.5428 0.33734-0.39319 0.80869 0.14468 0.45585 0.90717 0.55298 0.90717 0.11555z"/>
 </g>
</svg>
