<?xml version="1.0" encoding="UTF-8" standalone="no"?>
<!-- Created with Inkscape (http://www.inkscape.org/) -->
<svg id="svg2" xmlns:rdf="http://www.w3.org/1999/02/22-rdf-syntax-ns#" xmlns="http://www.w3.org/2000/svg" height="54" width="99" version="1.1" xmlns:cc="http://creativecommons.org/ns#" xmlns:dc="http://purl.org/dc/elements/1.1/">
 <metadata id="metadata7">
  <rdf:RDF>
   <cc:Work rdf:about="">
    <dc:format>image/svg+xml</dc:format>
    <dc:type rdf:resource="http://purl.org/dc/dcmitype/StillImage"/>
    <dc:title/>
   </cc:Work>
  </rdf:RDF>
 </metadata>
 <g id="g3542">
  <g id="g3381">
   <g id="g3423">
    <g id="g3459">
     <g id="g3495">
      <g id="g3531">
       <g id="g3567">
        <g id="g3603">
         <rect id="rect2990" opacity="0" height="54" width="99" y="0" x="0"/>
         <path id="path3601" d="m33.012 49.305c0-0.14015 0.51738-2.1253 1.1497-4.4115 0.63235-2.2862 1.3857-5.1067 1.6741-6.2678l0.524-2.112-1.1-4.339c-0.60498-2.3867-1.204-4.7352-1.3313-5.219-0.2228-0.84734-0.26897-0.87961-1.2586-0.87961-1.4474 0-1.7694-0.1753-1.7694-0.96335 0-0.64788 0.04777-0.67859 1.0555-0.67859 0.99609 0 1.0553-0.03633 1.0515-0.64505-0.0031-0.54962-0.47343-2.5204-1.0622-4.4538-0.24147-0.79297 0.54135-1.0025 1.1121-0.29762 0.33529 0.41407 0.50763 0.48012 0.71407 0.27368 0.37195-0.37195 1.2352-0.34258 1.5636 0.0532 0.14849 0.17892 0.5881 1.197 0.97692 2.2624 0.38881 1.0654 0.81172 2.1328 0.9398 2.3722 0.22266 0.41605 0.82443 0.43512 13.727 0.43512h13.494l-0.0735 0.76233-0.0735 0.76233-1.9227 0.06792-1.9227 0.06793-0.07115 1.1049-0.07107 1.1049-5.3292 0.11728c-6.5234 0.14356-6.3348 0.05996-6.2327 2.7622l0.06841 1.8118 1.87 0.06945c2.7859 0.10346 2.704-0.05181 2.704 5.1273v4.3031h1.0555 1.0555v1.6419 1.6419h-1.0457-1.0457l-0.06849 1.8179-0.06849 1.8179h-0.82097-0.82097l-0.06849-1.8179-0.06849-1.8179h-5.5024-5.5024v-1.6351-1.6351l3.108-0.06545 3.108-0.06545v-2.3456-2.3456l-3.8165-0.06447c-4.8272-0.08156-4.5256-0.31901-5.8989 4.6438-0.55254 1.9967-1.239 4.4221-1.5254 5.3896l-0.52076 1.7592-0.9802 0.07213c-0.5933 0.04366-0.9802-0.02845-0.9802-0.18269zm18.413-5.1671v-0.58641l-4.99-0.06332c-4.2876-0.0544-5.0093-0.01314-5.1268 0.2932-0.07522 0.19609-0.07522 0.51696 0 0.71305 0.11756 0.30634 0.83924 0.34761 5.1268 0.2932l4.99-0.06332v-0.58641zm3.2839 0c0-0.42989-0.14114-0.60645-0.52882-0.6615-0.3172-0.04504-0.58538 0.07229-0.67015 0.2932-0.23355 0.60861 0.09379 1.1116 0.67015 1.0298 0.38767-0.05505 0.52882-0.23161 0.52882-0.6615zm-3.2839-4.1048v-2.3456h-1.2901-1.2901l-0.06834 2.0925c-0.03761 1.1509-0.01235 2.2384 0.05606 2.4166 0.08916 0.23236 0.47376 0.30402 1.3584 0.25313l1.2341-0.07099v-2.3456zm0.70369-5.2777v-0.58641l-5.9285-0.06268c-5.1222-0.05415-5.9471-0.01429-6.0651 0.2932-0.07514 0.19574-0.07514 0.51603 0 0.71177 0.11799 0.30748 0.94293 0.34736 6.0651 0.2932l5.9285-0.06268v-0.58641zm-13.253-0.433c0-1.0059 0.64305-1.1924 4.3507-1.2613l3.5072-0.06518 0.06818-1.7998c0.06091-1.6078 0.01243-1.8518-0.45472-2.287-0.47701-0.44441-0.80715-0.48715-3.7625-0.48715h-3.2396v0.83639c0 1.1066-0.30094 1.6172-1.1639 1.9747-0.84781 0.35118-0.86277 0.50794-0.21097 2.2112 0.50003 1.3066 0.9057 1.7 0.9057 0.8782zm-0.86712-4.5203c0.18033-0.2864-0.14912-1.4046-1.3476-4.574-0.87247-2.3072-1.6848-4.3796-1.8051-4.6054-0.34938-0.65551-0.90597-0.50295-0.90597 0.24832 0 0.54539 1.8508 6.376 2.7932 8.7994 0.27963 0.71907 0.85773 0.7792 1.2655 0.13163zm20.922-3.1394c0-0.46114-0.17674-0.47016-10.379-0.53021-5.7087-0.0336-10.379-0.000234-10.379 0.07406 0 0.07433 0.10986 0.34043 0.24414 0.59133 0.23685 0.44255 0.54718 0.45436 10.379 0.39506 9.9585-0.06006 10.135-0.0693 10.135-0.53025zm-32.678 18.48c0.05966-0.51183 0.22882-0.66808 0.8625-0.79665 1.6634-0.33752 1.5446 0.95507 1.6746-18.216 0.11006-16.224 0.14253-17.292 0.52777-17.367 0.3756-0.07229 0.41048 0.20818 0.41048 3.3003 0 1.8586 0.0649 3.4442 0.1443 3.5236 0.07936 0.07936 0.71686-1.0013 1.4167-2.4016 1.0903-2.1816 1.5312-2.7924 3.0809-4.2687 2.7163-2.5875 6.6313-4.4243 9.4143-4.4168 2.3935 0.0064 6.0964 1.4014 7.7237 2.9097 0.59946 0.55561 1.4683 1.1326 1.9308 1.2822 2.1694 0.70177 3.0556 2.946 2.1791 5.5183-0.52497 1.5407-1.343 2.0126-3.4891 2.0126-2.2512 0-3.0203-0.47828-3.5171-2.1872-0.65707-2.2603 0.29965-4.5188 2.2578-5.3299 0.83162-0.34447 0.834-0.44888 0.02783-1.2209-1.1927-1.1421-5.1359-2.5067-7.2686-2.5154-1.4392-0.0058-5.1554 1.2558-6.7669 2.2974-2.0043 1.2955-3.8694 3.4752-5.1246 5.9892-1.9242 3.8538-1.8679 3.3471-1.953 17.593-0.05614 9.4015-0.0055 12.715 0.19924 12.962 0.15107 0.18202 0.68117 0.39595 1.178 0.4754 1.0037 0.1605 1.5044 0.59976 1.2977 1.1385-0.11196 0.29174-0.68241 0.35483-3.2084 0.35483h-3.0723l0.0742-0.6367zm27.809-29.981c0.90068-0.63086 1.3042-3.1671 0.68223-4.288-0.47303-0.85243-1.5686-1.4486-2.6652-1.4503-1.1977-0.0019-2.5259 1.0243-2.7712 2.141-0.24994 1.138 0.09662 2.777 0.71872 3.3991 0.46879 0.46879 0.79174 0.55696 2.0401 0.55696 0.95141 0 1.6668-0.12862 1.9953-0.35876zm2.3395 28.126c-0.09193-0.09193-0.16714-2.772-0.16714-5.9558 0-5.31 0.0355-5.8207 0.42895-6.1768 0.37051-0.3353 1.1007-0.3882 5.3586-0.3882 4.6317 0 4.9553 0.02835 5.3542 0.46913 0.2335 0.25802 0.51636 0.46912 0.62857 0.46912 0.22939 0 0.52247-0.6909 0.76371-1.8003 0.15431-0.70964 0.11142-0.76717-0.90837-1.2183-0.90372-0.39976-1.0704-0.57592-1.0708-1.1317-0.000704-1.0632 2.5559-8.3475 3.0913-8.8077 0.31192-0.26815 0.67339-0.35929 1.05-0.26477 0.4012 0.1007 0.66657 0.01802 0.88028-0.27424 0.38803-0.53066 1.1657-0.29207 0.98345 0.30172-0.0695 0.2264-0.38409 1.7838-0.69909 3.461-0.65458 3.4851-0.58021 3.1069-1.5181 7.721-0.83313 4.0988-0.76341 4.6913 1.392 11.831 0.24752 0.8199 0.45004 1.5852 0.45004 1.7006 0 0.11542-0.36083 0.20985-0.80185 0.20985-0.89808 0-0.79273 0.22712-2.4822-5.3509-0.40295-1.3304-0.93718-2.6234-1.1872-2.8734-0.41842-0.41842-0.81586-0.45456-4.9998-0.45456-3.4827 0-4.6054 0.07251-4.8027 0.31018-0.15835 0.19079-0.28225 1.8384-0.32193 4.2808l-0.0645 3.9706-0.59519 0.06941c-0.32735 0.03818-0.6704-0.0058-0.76233-0.09774zm10.271-10.879v-0.58641l-4.5207-0.06372c-3.8703-0.05456-4.5405-0.01236-4.6577 0.2932-0.07529 0.19631-0.07529 0.51754 0 0.71386 0.11726 0.30557 0.78745 0.34776 4.6577 0.2932l4.5207-0.06372v-0.58641zm2.7291-5.3363c0.14-0.35478 0.6078-2.0693 1.0395-3.8101 0.76278-3.0754 0.76977-3.7365 0.03657-3.4552-0.41456 0.15908-2.8535 7.0668-2.6668 7.5532 0.07537 0.1964 0.40683 0.35709 0.7366 0.35709 0.436 0 0.66902-0.17598 0.85411-0.64505z"/>
        </g>
       </g>
      </g>
     </g>
    </g>
   </g>
  </g>
 </g>
</svg>
