<?xml version="1.0" encoding="UTF-8" standalone="no"?>
<!-- Created with Inkscape (http://www.inkscape.org/) -->
<svg id="svg2" xmlns:rdf="http://www.w3.org/1999/02/22-rdf-syntax-ns#" xmlns="http://www.w3.org/2000/svg" height="45" width="67.5" version="1.1" xmlns:cc="http://creativecommons.org/ns#" xmlns:dc="http://purl.org/dc/elements/1.1/">
 <metadata id="metadata7">
  <rdf:RDF>
   <cc:Work rdf:about="">
    <dc:format>image/svg+xml</dc:format>
    <dc:type rdf:resource="http://purl.org/dc/dcmitype/StillImage"/>
    <dc:title/>
   </cc:Work>
  </rdf:RDF>
 </metadata>
 <g id="g3873">
  <rect id="rect2990" opacity="0" height="45" width="67.5" y="0" x="3.5527e-15"/>
  <path id="path3637" d="m26.152 40.502c-0.10035-0.058-0.60288-0.30269-1.1168-0.54366-1.0135-0.47527-1.2643-0.72653-2.623-2.6279-0.73247-1.025-1.5701-1.8994-2.0817-2.1732-0.16997-0.091-0.26084-0.25657-0.26084-0.47539 0-0.18469-0.24542-0.74385-0.54537-1.2426-0.35458-0.58955-0.54609-1.0498-0.54741-1.3157-0.0016-0.40556-0.0056-0.40823-0.4582-0.32788-1.0516 0.18675-2.1626 0.50958-4.2675 1.24-4.405 1.5287-6.0128 1.7063-7.3695 0.81399l-0.47607-0.31308 0.2936-0.22292c0.16147-0.12262 0.43043-0.28652 0.5977-0.36425 0.16726-0.0777 0.40081-0.1907 0.51899-0.25105 0.68629-0.35046 8.5159-3.0023 10.368-3.5114 1.1216-0.30837 2.2879-0.88838 2.6102-1.2982 0.27538-0.35009 0.51188-0.35564 1.0987-0.02581 0.44438 0.24976 0.48037 0.25152 1.2408 0.06082 0.52014-0.13044 1.3132-0.1964 2.3616-0.1964 1.6135 0 2.594-0.16495 3.3692-0.5668l0.3892-0.20176-0.75191-0.15377c-1.0496-0.21468-2.2057-0.82213-3.3957-1.7843-0.89764-0.72583-1.0759-0.82132-1.5359-0.82277-1.0726-0.0034-3.1358-0.92807-3.1358-1.4055 0-0.18034 0.61171 0.053-5.7174-2.1809-6.4445-2.275-8.9112-3.181-12.195-4.478l-2.5224-0.997-0.00059627-0.454c-0.00047-0.406 0.0498-0.479 0.48269-0.7 1.3765-0.702 4.5991-0.562 7.1343 0.31 0.52717 0.1814 1.9164 0.7671 3.0872 1.3015 3.4342 1.5677 4.0601 1.8305 6.8214 2.8654 2.6519 0.99385 6.1922 2.2114 6.4303 2.2114 0.0739 0 0.12928-0.25812 0.12928-0.60224 0-1.4308 0.48961-2.4804 1.4552-3.1194 0.76085-0.50352 1.8619-0.84813 4.0486-1.2671 1.1138-0.21342 2.1238-0.46019 2.2445-0.54837 0.17843-0.13037 0.22713-0.37269 0.26061-1.2965l0.04114-1.1363-0.74062-0.80828c-0.40734-0.44454-0.74062-0.8598-0.74062-0.92284 0-0.063-0.10948-0.21363-0.24329-0.33473s-0.24329-0.28531-0.24329-0.36493-0.10456-0.23938-0.23236-0.35503c-0.12779-0.11566-0.26872-0.35678-0.31318-0.53585-0.04444-0.17906-0.24097-0.72657-0.4367-1.2167-0.40101-1.0042-0.46276-1.8945-0.1706-2.4595 0.20874-0.40366 0.98644-0.84185 2.0351-1.1467 0.98056-0.28506 3.2173-0.20266 4.531 0.1669 1.3268 0.37326 1.5104 0.60202 1.5162 1.8896 0.0056 1.239-0.27442 2.2357-0.80103 2.8509-0.22608 0.26412-0.41106 0.53723-0.41106 0.6069s-0.06851 0.17045-0.15224 0.22395c-0.08374 0.0535-0.23329 0.2615-0.33231 0.46222s-0.35917 0.58032-0.5781 0.84354c-0.49436 0.59442-0.63883 1.0986-0.63969 2.2323-0.000805 1.0755 0.18549 1.4253 0.82293 1.5448 1.0566 0.19821 3.3651 0.93773 4.1275 1.3222 0.7267 0.36646 1.5145 0.90795 2.6081 1.7927 0.17675 0.14299 0.55994 0.30556 0.85151 0.36125 0.48586 0.09279 1.0228-0.05649 6.4299-1.7876 3.2449-1.0388 7.2305-2.3224 8.8565-2.8522 3.1781-1.0354 3.876-1.1457 5.2219-0.82551 0.83146 0.19785 1.0406 0.31396 1.9621 1.0896 0.63432 0.53395 0.93274 0.90102 1.2913 1.5885 0.25649 0.49176 0.62196 1.1229 0.81214 1.4026 0.41465 0.6097 0.43989 1.1058 0.09274 1.823-0.24023 0.49624-0.30355 0.53875-1.2469 0.8371-2.2692 0.71778-5.1454 1.35-9.9344 2.1839-6.8766 1.1972-9.8266 1.9317-11.86 2.9524-1.2716 0.63828-2.3425 0.80417-3.1129 0.48227-0.50735-0.21198-0.61395-0.1714-1.5096 0.57468-0.33453 0.27866-0.74508 0.60207-0.91237 0.71871l-0.30411 0.21207 0.36493-0.0804c0.20071-0.04422 0.88846-0.32098 1.5282-0.61501 1.4768-0.67866 2.0589-0.70637 3.0335-0.14437 2.0378 1.1751 2.2443 1.2504 12.438 4.531 2.0187 0.64965 3.2541 1.1063 3.2541 1.203 0 0.08569 0.16422 0.31312 0.36493 0.50542 0.58012 0.55579 0.48617 0.74706-0.86641 1.7639-1.7782 1.3368-2.2851 1.6647-3.0004 1.9411-1.4872 0.57465-3.0158 0.21659-6.9486-1.6277-2.3221-1.0889-4.0847-1.7732-4.5675-1.7732-0.33715 0-0.4733 0.15642-0.67153 0.77148-0.11399 0.35369-0.11641 0.50163-0.01 0.60822 0.07962 0.0797 0.71806 0.17089 1.4711 0.21004 0.73174 0.038 1.3627 0.10143 1.4021 0.14086 0.03937 0.0394 0.07873 0.37481 0.08746 0.7453 0.01827 0.77844-0.11646 0.97992-1.0679 1.5972-0.77116 0.50037-1.0655 0.83734-1.3298 1.5225-0.31413 0.81424-0.48783 0.94498-1.7946 1.351-0.65744 0.20425-1.3456 0.44384-1.5292 0.53242-0.24329 0.11737-0.52669 0.13368-1.0446 0.0601-0.39093-0.0555-0.73376-0.12391-0.76184-0.15199-0.0281-0.0281 0.04025-0.40162 0.15186-0.8301 0.18757-0.72009 0.18809-0.82961 0.0064-1.4481-0.21047-0.71811-1.0394-2.1857-1.3158-2.3295-0.09248-0.0481-0.4305-0.15846-0.75114-0.24519-0.32066-0.0867-0.70352-0.286-0.85087-0.44281-0.28369-0.30196-0.30946-0.58696-0.20063-2.2179 0.0421-0.63029 0.0064-0.8664-0.17068-1.1375l-0.22377-0.34215-0.33753 0.32338c-0.66074 0.63302-1.9661 0.82655-3.3509 0.49686-0.711-0.1693-0.73717-0.16659-1.012 0.10439-0.36336 0.35819-0.50183 0.97702-0.50629 2.2628-0.004 1.2303-0.14624 1.8097-0.56559 2.308l-0.31073 0.36928 0.37623 0.66664c0.40206 0.7124 0.49233 1.4389 0.22417 1.804-0.26646 0.36278-2.0105 0.93419-2.8283 0.92671-0.40144-0.004-0.81198-0.0542-0.91237-0.11224zm1.8687-0.54496c0.45908-0.10424 0.99344-0.3026 1.1875-0.44078l0.35283-0.25125-0.2752-0.34484c-0.31554-0.39538-0.73746-0.38622-1.0954 0.0238-0.19086 0.21863-0.21969 0.22263-0.28969 0.0402-0.11217-0.29233 0.14487-0.7765 0.49754-0.93717 0.22658-0.10324 0.28704-0.20428 0.23834-0.39831-0.08069-0.3216 0.12786-0.89506 0.45105-1.2401l0.24332-0.25978-0.54659-0.85272c-0.30062-0.469-0.59607-0.88331-0.65655-0.92066-0.14213-0.0878-1.1549 0.18014-1.8549 0.49077-0.67023 0.29745-1.4035 1.0864-1.5213 1.6365-0.12574 0.58754-0.25603 0.69855-0.92381 0.78714-0.32747 0.0434-0.5954 0.11595-0.5954 0.16114 0 0.18231 0.7241 1.1875 1.1094 1.5399 0.22614 0.2069 0.60276 0.44507 0.83694 0.52927 0.6551 0.23556 1.0061 0.38075 1.3381 0.55348 0.16726 0.087 0.38622 0.13905 0.48658 0.11561 0.10036-0.0234 0.55808-0.12792 1.0172-0.23217zm12.524-0.11646c0.34855-0.32303 0.43182-0.35512 1.439-0.55459 0.67222-0.13314 0.70034-0.15545 1.2744-1.0112 0.45704-0.68122 0.5844-0.97621 0.57507-1.332-0.01006-0.38301 0.02826-0.45698 0.23655-0.45698 0.13669 0 0.35382 0.0953 0.4825 0.21174 0.22415 0.20285 0.24624 0.19747 0.52657-0.12844 0.64666-0.75178 0.20052-1.1377-1.047-0.90569-0.52827 0.0982-0.84555 0.10162-1.0842 0.0115-0.28178-0.10636-0.36047-0.0904-0.47749 0.097-0.20647 0.33061-0.97042 0.77808-1.7454 1.0224l-0.68135 0.21477 0.23109 0.53912c0.24326 0.56752 0.30004 1.3166 0.12118 1.5989-0.18813 0.29703-0.37651 0.0162-0.38241-0.57017l-0.0056-0.57064-0.35346 0.66906c-0.33918 0.64202-0.4555 1.207-0.28384 1.3787 0.19155 0.19155 0.87059 0.0681 1.1745-0.21357zm-17.556-3.8886c0-0.0929 0.1045-0.29804 0.23222-0.45578l0.23222-0.28679 0.15224 0.33414c0.29018 0.63685 0.58255 0.21132 0.30736-0.44734-0.18024-0.43137-0.56633-0.75385-1.6961-1.4167-0.39117-0.22949-0.81697-0.5648-0.94627-0.74511-0.23234-0.32406-0.23234-0.33605 0.000491-1.034 0.12953-0.38837 0.27402-1.18 0.32108-1.7591 0.07962-0.98024 0.06851-1.062-0.16146-1.1851-0.21716-0.11623-0.29979-0.06033-0.68342 0.46228-0.28638 0.39012-0.60471 0.66183-0.92598 0.79038-0.43196 0.17284-0.47441 0.2243-0.36049 0.43716 0.07101 0.13269 0.26215 0.27464 0.42473 0.31545 0.16259 0.04081 0.3593 0.15093 0.43714 0.24472 0.11354 0.1368 0.09244 0.17054-0.1067 0.17054-0.47793 0-0.63307 0.1354-0.63307 0.5525 0 0.57148 0.1736 0.96236 0.71767 1.6158 0.2604 0.31277 0.64136 0.90521 0.8466 1.3166 0.2052 0.41137 0.51936 0.86295 0.69812 1.0036 0.37428 0.29442 1.1437 0.35271 1.1437 0.0867zm17.226-0.49755c0.28688-0.18797 0.28836-0.19841 0.09076-0.6442-0.24971-0.56333-0.35427-1.2438-0.19113-1.2438 0.06706 0 0.15255 0.0798 0.18997 0.17727 0.03735 0.0975 0.29442 0.32019 0.57111 0.49486l0.50309 0.31759 0.80303-0.79128c0.7592-0.74811 0.79513-0.80861 0.65835-1.1088-0.08475-0.186-0.14468-0.89136-0.14468-1.7028 0-0.7619-0.05563-1.5316-0.12364-1.7105-0.11398-0.2998-0.1591-0.31782-0.57782-0.23072-0.24979 0.05196-0.86471 0.10307-1.3665 0.11359-0.88218 0.01848-1.3876 0.16623-1.8751 0.54815-0.67008 0.52492-1.0443 0.94876-1.1193 1.2676l-0.08347 0.35519 0.59619-0.34637c1.2508-0.7267 1.9197-1.0331 2.2555-1.0331 0.31146 0 0.34779 0.0414 0.34779 0.39632 0 0.21797 0.13684 0.65339 0.30411 0.9676 0.16726 0.3142 0.30411 0.65284 0.30411 0.75253 0 0.37835-0.55178 0.78863-1.389 1.0328l-0.84161 0.24547-0.83573-0.74094-0.83573-0.74095-0.28953 0.272c-0.39154 0.36784-0.80256 1.3599-0.88186 2.1287l-0.06513 0.63116 0.63486 0.27311c0.34917 0.1502 0.66066 0.24729 0.69221 0.21574 0.03156-0.0315 0.39573 0.045 0.80933 0.17021 0.82325 0.24917 1.4103 0.22821 1.8599-0.0664zm0.9234-5.3184c-0.08027-0.08029-0.14597-0.2445-0.14597-0.36493 0-0.17842 0.10136-0.21896 0.5474-0.21896 0.46304 0 0.54741 0.03683 0.54741 0.23901 0 0.40052-0.65508 0.63864-0.94884 0.34489zm14.208 4.9753c0-0.33996-0.21277-0.57581-0.44058-0.48839-0.22324 0.0857-0.21159 0.27471 0.03365 0.54572 0.27083 0.29925 0.40691 0.28008 0.40691-0.0573zm-3.302-0.519c0.17565-0.38549 0.61702-0.36446 0.81738 0.039l0.13602 0.27395 0.22208-0.24539c0.3947-0.43615 1.8659-1.0932 2.4478-1.0932 0.47525 0 0.53106-0.0298 0.53106-0.28384 0-0.35652-0.11705-0.47964-0.3065-0.3224-0.08053 0.0668-0.52254 0.10578-0.98225 0.0865l-0.83581-0.035-0.18664-0.50528c-0.23246-0.62927-0.31547-0.71398-0.52738-0.53812-0.1523 0.1264-1.2275 0.49874-1.4494 0.50194-0.05024 0.00073-0.09123-0.0801-0.09123-0.17962 0-0.0995-0.21661-0.31768-0.48135-0.48481-0.50352-0.31785-0.73223-0.62688-0.73929-0.99892-0.0032-0.17449-0.34183-0.33251-1.6118-0.75236-2.1907-0.72426-2.7462-0.69863-2.9509 0.13614-0.10103 0.41212 0.1135 0.4466 0.50286 0.08081 0.22146-0.20805 0.31591-0.22918 0.52483-0.11736 0.4956 0.26524 0.65746 0.68053 0.59049 1.515-0.05684 0.70772-0.04323 0.76679 0.16415 0.71257 0.43691-0.11425 0.84644 0.10194 1.6765 0.88501l0.83782 0.79037 0.3579-0.2054c0.49906-0.28643 0.7805-0.1559 0.68572 0.318-0.13202 0.66006 0.40495 0.99965 0.66795 0.42239zm-28.082-0.77225c0-0.41848 0.16018-0.49765 0.70517-0.34856 0.82221 0.22493 1.7033-0.51826 1.8177-1.5332 0.12635-1.121-0.42846-2.2003-1.316-2.5602-0.4062-0.16472-0.47827-0.15666-1.0764 0.1205-0.84322 0.39068-1.3046 0.38306-1.7343-0.02861-0.18695-0.17911-0.37286-0.29272-0.41311-0.25246-0.16191 0.1619 0.09746 0.54584 0.49765 0.73667 0.46476 0.22163 0.56032 0.44967 0.18842 0.44967-0.32005 0-0.45311 0.24911-0.20672 0.387 0.28251 0.15811 0.56448 0.7517 0.56448 1.1883 0 0.41859-0.08653 0.46551-0.3057 0.16577-0.13666-0.1869-0.15802-0.18012-0.2393 0.07601-0.11086 0.34932 0.1306 0.52917 0.468 0.3486 0.31427-0.16819 0.56359 0.15216 0.56359 0.72418 0 0.44611 0.18227 0.88106 0.36922 0.88106 0.06457 0 0.11737-0.15966 0.11737-0.3548zm33.77-0.3242c-0.04066-0.10583-0.07382-0.24268-0.07382-0.30411 0-0.0614-0.13685-0.11169-0.30412-0.11169-0.34032 0-0.35799 0.037-0.17818 0.37293 0.15585 0.29122 0.66654 0.33059 0.55614 0.0429zm-11.57-1.633c0.35438 0 0.66905-0.1796 0.66905-0.38186 0-0.1586-1.2611 0.3328-1.3158 0.51271-0.04243 0.13951-0.02133 0.14364 0.10849 0.0212 0.08864-0.08363 0.33087-0.15206 0.53828-0.15206zm-17.639-1.3c-0.06875-0.16298-0.12968-0.04619-0.23404 0.44873-0.0985 0.46714-0.10277 0.72103-0.01409 0.84129 0.09699 0.1316 0.15221 0.02572 0.23405-0.44873 0.05885-0.34152 0.06529-0.72009 0.01409-0.84129zm11.063 0.90827c0.26057-0.37202 0.23872-0.45951-0.11475-0.45951-0.25681 0-0.30411 0.05676-0.30411 0.36493 0 0.43265 0.1572 0.46814 0.41886 0.09458zm-3.0755-0.69473c0.26802-0.64494 0.56221-0.86174 0.77481-0.57096 0.11051 0.15113 0.24849 0.08105 0.85473-0.4341 0.39761-0.33788 0.74102-0.66185 0.76312-0.71992 0.05627-0.14791-0.71386 0.0086-1.0395 0.21117-0.33916 0.21104-0.3729 0.20959-0.42112-0.01809-0.02753-0.12994-0.26772 0.02664-0.79961 0.52121-0.61176 0.56886-0.76029 0.7794-0.76029 1.0778 0 0.74843 0.30234 0.71612 0.62783-0.0671zm-9.3862-0.24345c0-0.24387-0.24384-0.73779-0.36424-0.73779-0.11439 0-0.05837 0.50627 0.08413 0.76028 0.07286 0.12982 0.28011 0.11317 0.28011-0.02249zm4.0009-1.0257c0.1114-0.13424 0.04975-0.1809-0.31963-0.24195-1.4035-0.23198-1.3085 0.12309 0.10526 0.39366 0.04202 0.0081 0.13846-0.06023 0.21437-0.15171zm5.3243-1.0574c0.29982-0.11399 0.39227-0.36034 0.13277-0.35374-0.08363 0.0022-0.25832 0.08424-0.38819 0.18247-0.34164 0.2584-0.63688 0.21947-0.72119-0.0951-0.04033-0.15054-0.07415-0.72083-0.07503-1.2673-0.000805-0.54649-0.03486-1.0802-0.07551-1.186-0.10492-0.27343-0.35199-0.23814-0.56908 0.08129-0.17551 0.25824-0.20539 0.26322-0.529 0.08816-0.22596-0.12224-0.40736-0.37125-0.53169-0.72988l-0.18872-0.54433-0.73157-0.03556c-0.40236-0.01955-0.9482 0.03537-1.2131 0.12206l-0.48147 0.15762-0.03889 0.72559c-0.02141 0.39908-0.0064 0.89748 0.03269 1.1075 0.07109 0.37926 0.07817 0.38252 1.0121 0.46892 1.6647 0.154 1.5211 0.18458 1.6745-0.35651 0.11694-0.41245 0.19295-0.49212 0.49889-0.5229 0.45703-0.04599 0.7907 0.30124 0.81625 0.84942 0.01779 0.38079-0.0064 0.40544-0.42811 0.44056-0.58253 0.04849-0.76164 0.25887-0.51734 0.60766 0.33186 0.47379 1.4347 0.59737 2.3216 0.26014zm-7.7451-2.4848c0.26554-0.31995 0.05378-0.54895-0.50753-0.54895-0.48204 0-0.50295-0.01352-0.31372-0.20275 0.28487-0.28487 0.89072-0.25483 1.2268 0.06082 0.35099 0.32974 0.44269 0.33288 0.35886 0.01228-0.03615-0.1382 0.0093-0.39137 0.10089-0.56258 0.15913-0.29733 0.14063-0.33483-0.41234-0.83549-1.2506-1.1322-2.807-1.591-3.3968-1.0011-0.20834 0.20834-0.44163 0.27817-1.034 0.3095-0.52574 0.02781-0.76494-0.004-0.76494-0.10178 0-0.09087 0.12288-0.11766 0.34025-0.07418 0.40698 0.0814 0.69429-0.06716 0.60084-0.31068-0.03711-0.09677-0.85256-0.46485-1.812-0.81794-0.95947-0.3531-3.4961-1.3411-5.6371-2.1955-3.7693-1.5043-8.206-3.1607-8.4652-3.1607-0.0698 0-0.73915-0.30508-1.4874-0.67795-1.7735-0.8838-2.875-1.1803-4.1853-1.1268-0.81601 0.03335-1.0467 0.08739-1.2528 0.29344l-0.25252 0.25257 3.2599 1.2873c2.8584 1.1287 9.2493 3.4842 14.786 5.4499 1.04 0.36922 1.7942 0.70218 1.7942 0.79208 0 0.2815 0.71257 0.76108 1.3264 0.89273 0.33202 0.07121 1.1136 0.16493 1.737 0.20828 1.0329 0.07184 1.1738 0.05486 1.5895-0.19146l0.45617-0.27028v0.62024c0 0.60806-0.0072 0.62024-0.36493 0.62024-0.76997 0-0.29394 0.63542 0.97316 1.299 0.40923 0.21431 1.1516 0.20312 1.3368-0.02016zm8.7429-0.30839c0.79555 0.22097 1.4032 0.15763 1.7197-0.17926 0.15688-0.167 0.25652-0.33235 0.22142-0.36746-0.0351-0.0351-0.34498-0.0035-0.68862 0.07017-0.46306 0.09931-0.73487 0.09766-1.05-0.0064-0.88798-0.29307-0.54857-0.36582 1.6625-0.35629 1.225 0.0053 2.1588 0.03721 2.0751 0.07096-0.08363 0.03375-0.15206 0.17141-0.15206 0.30591 0 0.23158 0.06513 0.24233 1.2272 0.20275 1.1702-0.03987 1.2408-0.05764 1.5206-0.38312 0.16137-0.18772 0.29339-0.3872 0.29339-0.44329s-0.42423-0.12289-0.94272-0.14844c-0.68828-0.03392-1.1234-0.13128-1.6118-0.3607-0.7133-0.33502-2.3112-1.7169-2.3112-1.9986 0-0.09289-0.15053-0.26551-0.33452-0.3836-0.18399-0.1181-0.44064-0.31095-0.57034-0.42857s-0.30597-0.21385-0.39171-0.21385-0.48092-0.16517-0.87816-0.36704c-1.4379-0.7307-2.3622-0.89587-5.0023-0.89386-1.9311 0.0014-2.6012 0.04924-3.6046 0.25698-1.6012 0.33152-2.818 0.70098-3.245 0.98531l-0.34162 0.22742 0.94981 0.49196c0.87985 0.45572 2.0531 0.88066 2.4317 0.88066 0.19398 0 0.20982-0.41022 0.0289-0.74829-0.21514-0.40201-0.02037-0.41141 0.46607-0.0225 1.8343 1.4666 2.4868 1.7336 3.7282 1.5258 0.69137-0.11571 0.77187-0.10416 1.1746 0.1686 0.53231 0.36056 0.56303 0.36064 1.3708 0.0035 0.54748-0.24211 0.66694-0.35223 0.73131-0.67408 0.06078-0.30392 0.18593-0.43416 0.59597-0.62027 0.67506-0.30641 1.5581-0.31349 1.9261-0.01546l0.27844 0.22546-0.55589 0.32578c-0.30574 0.17917-0.58407 0.43352-0.61851 0.56523-0.03583 0.1372-0.16621 0.23946-0.30522 0.23946-0.13343 0-0.51723 0.12724-0.85288 0.28274-0.47094 0.21819-0.58454 0.32234-0.49756 0.45617 0.06199 0.09538 0.19747 0.45826 0.30107 0.80643 0.18034 0.60605 0.20156 0.62795 0.49878 0.51495 0.20288-0.07713 0.46388-0.0754 0.7533 0.005zm1.8562-1.845c-0.57387-0.58697-0.47647-0.78115 0.28622-0.57056 0.50369 0.13907 1.0945 0.64629 0.97597 0.83799-0.04106 0.06635-0.25641 0.12063-0.47869 0.12063-0.29402 0-0.50753-0.10574-0.78352-0.38803zm-8.693-1.5375c-0.11073-0.12235-0.20132-0.37498-0.20132-0.56139v-0.33894l0.33453 0.21089c0.6601 0.41614 0.85224 0.91189 0.35338 0.91189-0.1569 0-0.37587-0.10011-0.48659-0.22245zm1.8666-0.08166c-0.15315-0.4028 0.04114-0.91237 0.34774-0.91237 0.30955 0 0.42436 0.57589 0.18795 0.94272-0.22913 0.35559-0.39246 0.34631-0.53569-0.03041zm1.8516 0.03381c0.21857-0.32919 0.79507-0.77282 0.88605-0.68184 0.09283 0.09283-0.16888 0.74483-0.34354 0.85594-0.07946 0.05052-0.27429 0.09269-0.43299 0.09371-0.27076 0.0018-0.2775-0.01476-0.1095-0.26777zm12.869 1.069c1.5736-0.36946 3.4348-0.78488 4.1359-0.92316 0.70117-0.13827 2.0686-0.46354 3.0387-0.72282 0.9701-0.25929 2.4207-0.61491 3.2236-0.79029 0.80285-0.17537 1.6278-0.37147 1.8333-0.43579 0.20547-0.06431 0.51699-0.11693 0.69228-0.11693s0.34937-0.04961 0.38686-0.11025c0.03743-0.06064 0.33439-0.14687 0.65983-0.19163 0.32542-0.04476 1.3791-0.28781 2.3415-0.54011 1.6967-0.4448 1.7511-0.46908 1.79-0.79919 0.05402-0.4572-0.29452-1.3348-0.72458-1.8246-0.19272-0.21949-0.81553-0.737-1.384-1.15l-1.0335-0.75092-2.22 0.55003c-4.6211 1.1449-15.681 4.4758-17.487 5.2667-0.72711 0.3184-2.0652 1.1427-2.0669 1.2732-0.0016 0.10132 0.77145 0.70382 1.337 1.0424 0.55031 0.32945 2.0239 0.80365 2.1861 0.70345 0.06883-0.04256 0.12522 0.0062 0.12522 0.10843 0 0.10221 0.06843 0.16274 0.15206 0.1345 0.08364-0.02823 1.4395-0.35362 3.0131-0.72307zm-7.3188-1.9643c0.07849-0.17228 0.10933-0.36724 0.06851-0.43326-0.13037-0.21096-0.6897-0.36086-1.0507-0.28158-0.28397 0.06237-0.32289 0.109-0.20726 0.24831 0.07825 0.09434 0.24648 0.17153 0.37376 0.17153 0.1349 0 0.27962 0.12682 0.34703 0.30411 0.14756 0.3881 0.28887 0.38536 0.46861-0.0091zm-14.214-2.0207c0-0.84789-0.03631-1.0719-0.17378-1.0719-0.42801 0-0.5561 0.35307-0.5561 1.5329v1.1506l0.36494-0.26981c0.35746-0.26428 0.36493-0.29176 0.36493-1.3417zm12.737-0.10124 0.51166-0.48296-0.20755-0.36474c-0.20495-0.36018-0.53412-0.46418-0.84475-0.2669-0.11933 0.07579-0.11962 0.17773-0.0016 0.49099 0.12626 0.33446 0.11753 0.45057-0.0566 0.754-0.29564 0.51513-0.02214 0.45556 0.59862-0.13038zm-9.734-0.285c-0.06505-0.35888-0.08229-0.7958-0.0384-0.97098 0.10349-0.41233 0.71364-0.74594 1.0424-0.56998 0.30034 0.16074 0.38334 0.43647 0.39578 1.3148l0.01006 0.71154 1.0475-0.04115c0.57612-0.02264 1.3886-0.07142 1.8057-0.1084l0.75814-0.06725 0.12297-0.50754c0.06762-0.27915 0.25446-0.76795 0.41517-1.0863l0.29218-0.57869-0.26096-0.05284c-0.14353-0.02906-0.5894-0.084-0.99087-0.12208-1.6158-0.15327-5.2954 0.45898-5.5433 0.92236-0.07624 0.14249-0.06432 0.49141 0.03462 1.0131l0.15096 0.79576h0.43812 0.43813l-0.11827-0.6525z"/>
 </g>
</svg>
