<?xml version="1.0" encoding="UTF-8" standalone="no"?>
<!-- Created with Inkscape (http://www.inkscape.org/) -->
<svg id="svg2" xmlns:rdf="http://www.w3.org/1999/02/22-rdf-syntax-ns#" xmlns="http://www.w3.org/2000/svg" height="54" width="99" version="1.1" xmlns:cc="http://creativecommons.org/ns#" xmlns:dc="http://purl.org/dc/elements/1.1/">
 <metadata id="metadata7">
  <rdf:RDF>
   <cc:Work rdf:about="">
    <dc:format>image/svg+xml</dc:format>
    <dc:type rdf:resource="http://purl.org/dc/dcmitype/StillImage"/>
    <dc:title/>
   </cc:Work>
  </rdf:RDF>
 </metadata>
 <g id="g4887">
  <rect id="rect2990" opacity="0" height="54" width="99" y="0" x="0"/>
  <path id="path3358" d="m49.257 49.008c-0.0866-0.25364-0.52271-0.77477-0.96905-1.1581-0.75002-0.6441-0.78652-0.7517-0.4818-1.4205 0.28886-0.63398 0.26303-0.79455-0.20855-1.2965-0.36402-0.38747-0.53825-0.92802-0.53825-1.6699 0-0.87925-0.13074-1.1826-0.65881-1.5286-0.51273-0.33595-0.65881-0.65525-0.65881-1.4399 0-0.55453 0.11858-1.0815 0.26352-1.1711 0.41821-0.25846 0.31779-0.52385-0.53637-1.4177-1.1742-1.2287-1.386-1.9721-0.89477-3.1408 0.40841-0.97166 0.40678-0.97838-0.4036-1.6591-1.1162-0.93764-1.42-2.1053-0.89142-3.4264l0.41292-1.032-0.9807-1.0855c-0.8378-0.92734-0.95962-1.2155-0.83598-1.9774 0.0796-0.49051 0.41215-1.2674 0.739-1.7264 0.57323-0.80502 0.57678-0.8446 0.10044-1.1175-0.27161-0.15559-0.89712-0.64082-1.39-1.0783-0.74315-0.65956-0.92631-1.0421-1.0725-2.24-0.15991-1.3103-0.24069-1.452-0.86909-1.5249-0.42459-0.04922-1.17 0.2223-1.9253 0.70135-1.05 0.66591-1.4575 0.77221-2.7519 0.71786-0.83563-0.03508-1.6543-0.14719-1.8192-0.24911-0.16491-0.10192-0.52613-0.04399-0.80271 0.12873-0.30564 0.19088-0.69741 0.22868-0.99893 0.0964-0.27284-0.1197-1.0462-0.18778-1.7186-0.15128-1.2616 0.06848-1.73-0.22969-1.3611-0.8664 0.90339-1.5592 7.1447-7.7635 9.272-9.2171 1.6306-1.1141 2.0355-1.2752 3.1829-1.2663 0.91664 0.0071 1.6585 0.21167 2.4502 0.67563 0.62453 0.366 1.6356 0.84189 2.2468 1.0576 1.2418 0.43812 1.2816 0.38018 0.83748-1.2188-0.56619-2.0386 1.1927-4.0818 3.25-3.7753 0.54985 0.08192 1.2318 0.29386 1.5153 0.47096 0.84145 0.5255 1.3707 1.931 1.1714 3.1107-0.14696 0.86985-0.10282 1.0373 0.27342 1.0373 0.47379 0 2.5484-1.0466 4.0485-2.0423 0.95487-0.63384 1.9604-0.74735 3.0272-0.34175 0.91471 0.34777 7.5004 6.0693 9.9874 8.677 1.7762 1.8623 2.012 2.2182 1.7695 2.6713-0.31326 0.58533-0.91122 0.62772-3.16 0.22399-1.5198-0.27286-2.6557-0.41175-4.9218-0.6018-0.75031-0.06293-1.6101-0.24599-1.9106-0.4068-0.38208-0.20449-0.69959-0.21038-1.0561-0.0196-0.28034 0.15004-0.79856 0.2728-1.1516 0.2728-0.57029 0-0.65758 0.1396-0.78272 1.2517-0.12154 1.0801-0.31372 1.4083-1.4016 2.3936-1.1704 1.06-1.2348 1.1828-0.89904 1.7129 1.2236 1.9316 1.265 2.7239 0.21921 4.1926-0.38332 0.53832-0.48631 0.95878-0.35896 1.4655 0.50148 1.9953 0.47172 2.4277-0.2411 3.5049-0.61862 0.9348-0.68433 1.2328-0.53565 2.4297 0.14823 1.1933 0.0835 1.4906-0.5168 2.3733-0.59791 0.87927-0.66381 1.1784-0.51188 2.3237 0.14631 1.1029 0.083 1.4381-0.39296 2.0819-0.45502 0.61546-0.53345 0.97929-0.39614 1.838 0.16759 1.048-0.0291 1.6962-1.1175 3.6835-0.19845 0.36235-0.56893 1.1023-0.82329 1.6443-0.50757 1.0817-1.5321 1.3795-1.8224 0.52973zm0.96465-1.6151c0-0.29516-1.5462-0.9454-1.7539-0.73762-0.0857 0.08573-0.0856 0.33886 0.00018 0.56252 0.1649 0.42972 1.7537 0.58836 1.7537 0.1751zm1.3176-1.0975c0-0.3827-2.7383-3.1509-3.1168-3.1509-0.16994 0-0.30897 0.33509-0.30897 0.74464 0 0.85615 0.75506 1.6589 2.1082 2.2412 1.1393 0.49033 1.3176 0.51266 1.3176 0.165zm0.73723-2.377c0.10612-0.908-0.8119-2.0096-1.8604-2.2324-1.085-0.23058-1.7756-0.83736-1.7756-1.5602 0-1.1195-1.0981-1.5839-1.7414-0.73655-0.89204 1.1751-0.29646 2.0072 2.4207 3.382 0.82202 0.41591 1.6195 1.0304 1.7722 1.3656 0.35713 0.78382 1.083 0.64998 1.1844-0.21841zm0.46441-3.2645c0.24402-0.37242 0.35221-0.86963 0.25551-1.1743-0.26661-0.84002-1.5971-1.7958-3.1133-2.2366-1.5382-0.44717-2.7209-1.4689-2.4668-2.1311 0.11018-0.2871-0.0537-0.49841-0.52576-0.67788-0.92089-0.35012-1.4123 0.0877-1.4123 1.2583 0 1.0982 1.134 2.3051 2.4342 2.5907 1.8956 0.41633 3.0714 1.121 3.4726 2.0812 0.46048 1.1021 0.77904 1.1701 1.3559 0.28968zm0.966-4.229c0.28813-0.3876 0.24583-1.9329-0.069-2.5212-0.35763-0.66822-2.3871-1.6717-4.2069-2.0801-2.49-0.5588-2.9538-0.83011-2.7954-1.6355 0.11855-0.60287 0.0208-0.74366-0.68772-0.99065-0.71687-0.2499-0.90676-0.21195-1.4384 0.28751-1.6812 1.5795 0.27292 3.5133 4.2042 4.1604 2.8669 0.47191 3.4773 0.93429 3.3211 2.516-0.0286 0.28988-0.0332 0.81454-0.0103 1.1659l0.0417 0.63887 0.72241-0.63887c0.39732-0.35138 0.81055-0.75745 0.9183-0.90239zm-2.4313-0.65881c0-0.28988-0.11858-0.52705-0.26352-0.52705s-0.26352 0.23717-0.26352 0.52705 0.11858 0.52705 0.26352 0.52705 0.26352-0.23717 0.26352-0.52705zm-2.5174-0.54956c-0.0849-0.13729-0.26659-0.18019-0.40388-0.09534s-0.1802 0.2666-0.0953 0.40388c0.0848 0.13729 0.26659 0.18019 0.40388 0.09534s0.1802-0.2666 0.0953-0.40388zm5.3507-3.2057c0.71295-0.76381 0.97753-1.8499 0.61546-2.5265-0.57504-1.0745-1.7695-1.6028-5.14-2.2734-1.8401-0.36614-3.5761-0.78903-3.8578-0.93976-0.60977-0.32634-0.66834-1.1154-0.11679-1.5731 0.63626-0.52804 0.45869-0.97537-0.46116-1.1618-0.72701-0.14736-0.94442-0.06413-1.4385 0.55062-1.635 2.0345-0.19326 3.7744 3.7443 4.5184 0.86963 0.16432 2.2474 0.42486 3.0618 0.57897 0.81433 0.15411 1.7037 0.44333 1.9764 0.64271 0.44092 0.3224 0.45901 0.45961 0.16363 1.2403-0.28932 0.76461-0.27432 0.92021 0.11632 1.2072 0.60204 0.44223 0.69461 0.42397 1.3363-0.26352zm-2.4662-0.87801c0.25098-0.65401 0.19076-0.90078-0.21977-0.90078-0.48808 0-0.76191 0.44585-0.57423 0.93496 0.19359 0.50449 0.59391 0.48726 0.794-0.03417zm-3.2659-0.79098c0-0.22949-0.14082-0.37031-0.31293-0.31294-0.48864 0.16288-0.56968 0.73018-0.10431 0.73018 0.22948 0 0.41724-0.18776 0.41724-0.41725zm6.6084-3.7789c1.0352-1.0352 1.0531-2.2993 0.0456-3.217-1.3124-1.1955-2.0689-1.5047-4.7057-1.9232-1.4339-0.22762-3.3882-0.5398-4.3429-0.69372-2.2764-0.36704-3.4029-1.0448-3.4029-2.0473 0-1.2613 0.73987-1.6876 2.5698-1.4806 2.3597 0.26697 3.3062-0.42814 2.2396-1.6448-1.0179-1.161-2.4008-1.4486-3.4458-0.71664-0.32912 0.23053-1.067 1.012-1.6398 1.7366-0.82025 1.0377-1.0414 1.5416-1.0414 2.3731 0 2.412 1.3804 3.2569 6.8516 4.194 3.1959 0.54738 4.8412 1.1151 5.4871 1.8934 0.24802 0.29884 0.19969 0.52151-0.23239 1.0708-1.0549 1.3411 0.33893 1.7336 1.6172 0.45536zm-10.114-10.464c-0.41497-0.41498-0.16867-0.92189 0.40814-0.83997 0.32611 0.04632 0.59293 0.26047 0.59293 0.47589 0 0.41868-0.69406 0.6711-1.0011 0.36408zm3.5005 9.3085c-0.008-1.0799-0.37298-1.3466-1.1487-0.83839-0.92894 0.60867-0.91208 1.3837 0.0328 1.5047 0.95477 0.12226 1.1208 0.02316 1.116-0.66627zm3.9569-0.1962c0-0.45541-0.49925-0.77647-1.2074-0.77647-0.37207 0-0.54477 1.3223-0.21568 1.6514 0.28787 0.28787 1.4231-0.41004 1.4231-0.87489zm3.6006-4.3858c0.95702-0.72872 1.1429-1.1031 1.1429-2.302 0-1.5586-2.0931-3.8391-3.5236-3.8391-0.49779 0-0.61438 0.11106-0.51509 0.49071 0.079 0.30194-0.041 0.5557-0.31198 0.65967-0.58054 0.22278-0.99316-0.05201-0.80692-0.53736 0.25524-0.66513-0.66807-0.28185-1.2708 0.52753-0.55383 0.74371-0.55389 0.74607-0.0279 1.1363 0.34441 0.25557 0.80101 0.33269 1.3176 0.22257 2.1774-0.46415 2.7786-0.46244 3.3 0.0094 1.0752 0.97305 0.37362 2.2997-1.6672 3.1523-1.0352 0.43252-1.0633 0.80154-0.0906 1.1898 0.71986 0.28733 1.404 0.08942 2.4536-0.70985zm-8.2123-1.6608v-0.922l-1.6922-0.20882c-1.9643-0.2424-2.3924-0.13757-2.3924 0.5859 0 0.59542 0.75287 1.0805 2.1082 1.3583 1.6657 0.34139 1.9764 0.21351 1.9764-0.81334zm5.7744 0.38828c1.7822-0.84571 1.5092-2.301-0.32837-1.7505-0.56499 0.16928-1.3396 0.30777-1.7214 0.30777-0.63778 0-0.69411 0.08835-0.69411 1.0886v1.0886l0.90887-0.14749c0.49988-0.08112 1.3256-0.34525 1.835-0.58696zm-23.002-1.8054c0.38048-0.33525 0.89811-0.92443 1.1503-1.3093 0.39871-0.60852 0.40545-0.69975 0.0516-0.69975-0.55373 0-2.289 1.6717-2.289 2.2052 0 0.57793 0.26226 0.53061 1.0871-0.19615zm1.9181 0.16503c0.8423-0.66422 3.0559-3.1999 3.0559-3.5005 0-0.1401-0.17233-0.25473-0.38295-0.25473-0.40125 0-3.5699 3.5146-3.5699 3.9596 0 0.37146 0.23447 0.31802 0.89696-0.20441zm5.0627-0.3891c0.96136-0.74198 1.3693-1.2268 1.699-2.0192 0.59278-1.4248-0.6558-0.95813-1.9392 0.72482-1.3981 1.8333-1.2802 2.4679 0.24029 1.2943zm-1.2373-1.1788c0.73629-0.8261 1.3387-1.7197 1.3387-1.9857 0-0.90727-1.0786 0.0544-3.3945 3.0265-0.31635 0.40597-0.29493 0.46117 0.17889 0.46117 0.32243 0 1.075-0.60223 1.8769-1.502zm32.698 0.63729c0-0.44828-3.0986-3.5032-3.3244-3.2774-0.2031 0.2031 1.8759 2.9835 2.5066 3.3521 0.58521 0.34207 0.81784 0.32084 0.81784-0.07463zm-7.62-1.685c-0.66726-1.2556-1.792-2.5262-2.1348-2.4118-0.36467 0.12176 0.69905 2.1688 1.6556 3.1861 0.97335 1.0351 1.2249 0.62871 0.47923-0.77431zm4.9848 1.3412c0-0.08491-0.44469-0.79392-0.98821-1.5756-1.1225-1.6144-1.8007-2.0805-1.5451-1.0621 0.25253 1.0062 2.5333 3.3809 2.5333 2.6377zm-24.849-1.5512c0.38898-0.79311 0.61424-1.5343 0.50057-1.647-0.28499-0.2827-1.344 1.099-1.6791 2.1907-0.45901 1.4956 0.36473 1.1156 1.1785-0.54368zm22.214 1.0737c0-0.53448-2.9803-4.2624-3.106-3.8852-0.12657 0.37973 0.45259 1.3071 1.8746 3.0018 1.1478 1.3678 1.2314 1.4278 1.2314 0.8834zm-5.5743-1.9006c-1.5653-2.585-2.6415-3.0618-1.4055-0.62273 0.80788 1.5943 2.0065 2.9226 2.1766 2.4122 0.0611-0.18303-0.28598-0.98828-0.7711-1.7894zm-1.5408 0.85912c0-0.56509-1.5707-2.5806-1.8679-2.3969-0.17224 0.10645-0.12166 0.39428 0.14069 0.80061 0.22528 0.34892 0.60112 0.93088 0.8352 1.2932 0.46467 0.7193 0.89203 0.86449 0.89203 0.30306zm-12.913-1.5716c0-0.13498-0.17788-0.0978-0.39529 0.08263s-0.39152 0.52106-0.38691 0.75696c0.007 0.36032 0.0703 0.34711 0.39529-0.08263 0.2128-0.28134 0.38691-0.62198 0.38691-0.75696zm4.2164-0.59814c0-0.84826-0.0981-1.1756-0.3294-1.0997-0.44776 0.14702-0.5733 1.4596-0.18442 1.9281 0.46823 0.56419 0.51382 0.49068 0.51382-0.82847zm-13.087 0.12019c1.0183-0.86978 1.2092-1.2841 0.59165-1.2841-0.20523 0-0.74883 0.47434-1.208 1.0541-0.99917 1.2616-0.71532 1.3675 0.61635 0.22999zm11.242 0.44437c0-0.27814-0.50573-0.395-0.65616-0.15161-0.091 0.1473 0.0193 0.26782 0.24532 0.26782 0.22596 0 0.41084-0.05229 0.41084-0.11621zm5.0626-1.2805c-0.077-0.29442-0.221-0.38805-0.36907-0.23997-0.13356 0.13355-0.15776 0.58176-0.0538 0.99603 0.16511 0.65783 0.21184 0.68821 0.36908 0.23997 0.099-0.28228 0.12322-0.73049 0.0538-0.99603zm2.0525 1.1487c0-0.31092-0.51397-0.64353-0.70273-0.45476-0.18878 0.18877 0.14384 0.70273 0.45475 0.70273 0.13639 0 0.24798-0.11159 0.24798-0.24797zm-12.172-0.78966c0.0659-0.19764-0.0329-0.29646-0.23058-0.23058-0.19023 0.06341-0.39776 0.27094-0.46117 0.46117-0.0659 0.19764 0.0329 0.29646 0.23058 0.23058 0.19023-0.06341 0.39776-0.27094 0.46117-0.46117zm-1.949-0.18595c0.0914-0.23815 0.11197-0.4872 0.0458-0.55344-0.20944-0.20943-0.68255 0.21111-0.68255 0.60671 0 0.51691 0.43188 0.48078 0.63681-0.05327zm-1.5483-0.11158c0.30901-0.5-0.14168-0.62338-0.60064-0.16442-0.41082 0.41082-0.41154 0.44548-0.009 0.44548 0.23991 0 0.51437-0.12648 0.60991-0.28106zm8.8172-0.54178c0-0.46545-0.0659-0.50467-0.39239-0.23367-0.39661 0.32915-0.31213 0.79298 0.14441 0.79298 0.13639 0 0.24798-0.25169 0.24798-0.55932zm6.277-0.29445c-0.10644-0.74606-1.0065-0.98177-1.0065-0.26358 0 0.59687 0.21699 0.85382 0.72106 0.85382 0.23227 0 0.33839-0.21941 0.28548-0.59024zm5.2986-0.09203c-0.16972-0.2045-0.41265-0.37183-0.53984-0.37183-0.35658 0-0.27357 0.73148 0.0981 0.86482 0.52777 0.18931 0.77705-0.08892 0.4417-0.49299zm4.7546 0.48463c-0.0118-0.28081-1.0653-1.0082-1.7947-1.239-0.50163-0.15878-0.60028-0.10863-0.52705 0.26794 0.10783 0.55439 2.3435 1.4895 2.3218 0.97111zm-18.175-0.32941c0-0.14494-0.11858-0.26352-0.26352-0.26352s-0.26353 0.11859-0.26353 0.26352c0 0.14494 0.11859 0.26352 0.26353 0.26352s0.26352-0.11859 0.26352-0.26352zm9.8267-0.52731c-0.0758-0.28973-0.24252-0.52679-0.37055-0.52679-0.26712 0-0.31707 0.88198-0.0643 1.1348 0.30552 0.30552 0.57512-0.07145 0.43482-0.60799zm-11.671-0.42613c0-0.21741-0.11859-0.322-0.26353-0.23242-0.14493 0.08958-0.26352 0.34075-0.26352 0.55816s0.11859 0.322 0.26352 0.23242c0.14494-0.08958 0.26353-0.34075 0.26353-0.55815zm12.645-0.37156c-0.159-0.2913-0.407-0.4586-0.551-0.3692-0.16969 0.10487-0.15354 0.29462 0.0455 0.53443 0.46663 0.56226 0.82895 0.44528 0.50362-0.1626zm-15.947-0.7974c0.39655-0.38947 0.42778-0.5102 0.13177-0.50945-0.43881 0.0011-2.1009 0.95805-2.1009 1.2096 0 0.32055 1.4575-0.19767 1.9691-0.70012zm1.9838-0.0033c0-0.12488-0.17788-0.1588-0.39529-0.07538s-0.39529 0.25386-0.39529 0.37875c0 0.12488 0.17788 0.1588 0.39529 0.07538 0.21741-0.08343 0.39529-0.25386 0.39529-0.37875zm15.284 0.31572c0-0.12719-0.17788-0.37888-0.39529-0.55932-0.33025-0.27408-0.39528-0.23603-0.39528 0.23126 0 0.32149 0.16807 0.55932 0.39528 0.55932 0.21741 0 0.39529-0.10407 0.39529-0.23126zm1.8447-0.39529c0-0.41994-0.7324-1.1006-0.95006-0.88296-0.20166 0.20167 0.38152 1.246 0.6958 1.246 0.13985 0 0.25426-0.16336 0.25426-0.36302zm2.3121 0.05244c-0.15292-0.45875-0.937-0.88885-1.1791-0.64677-0.11544 0.11543 0.0201 0.37805 0.30125 0.58361 0.62173 0.45462 1.0178 0.48312 0.87783 0.06316zm-10.373-0.5072c0.98274-0.77302 0.89095-2.43-0.17867-3.2255-0.67005-0.49834-0.76123-0.50744-1.1536-0.11508-0.33 0.32999-0.37883 0.65395-0.21663 1.4371 0.11518 0.55609 0.18159 1.1715 0.1476 1.3676-0.0843 0.48663 0.16913 1.0928 0.457 1.0928 0.12993 0 0.55486-0.25062 0.94429-0.55694z"/>
 </g>
</svg>
