<?xml version="1.0" encoding="UTF-8" standalone="no"?>
<!-- Created with Inkscape (http://www.inkscape.org/) -->
<svg id="svg2" xmlns:rdf="http://www.w3.org/1999/02/22-rdf-syntax-ns#" xmlns="http://www.w3.org/2000/svg" height="54" width="99" version="1.1" xmlns:cc="http://creativecommons.org/ns#" xmlns:dc="http://purl.org/dc/elements/1.1/">
 <metadata id="metadata7">
  <rdf:RDF>
   <cc:Work rdf:about="">
    <dc:format>image/svg+xml</dc:format>
    <dc:type rdf:resource="http://purl.org/dc/dcmitype/StillImage"/>
    <dc:title/>
   </cc:Work>
  </rdf:RDF>
 </metadata>
 <g id="g4138">
  <rect id="rect2990" opacity="0" height="54" width="99" y="0" x="0"/>
  <path id="path3743" d="m49.689 49.202c-0.70412-0.37214-1.1706-1.4129-1.3559-3.0247-0.62672-5.4538-0.82928-6.4833-1.3723-6.9747-0.35707-0.32315-1.0251-0.35492-1.2912-0.06141-0.10471 0.11549-0.31247 0.65666-0.46169 1.2026-0.14921 0.54594-0.33074 1.1644-0.40339 1.3744-0.0727 0.20998-0.26918 1.1721-0.43672 2.138s-0.34695 1.9967-0.39868 2.2907c-0.14461 0.82175-0.51607 1.7201-0.8673 2.0974-0.66739 0.71704-1.8986 0.5834-2.6297-0.28544-0.54465-0.64728-0.60539-1.4824-0.25396-3.4918 0.26258-1.5014 0.29839-2.2486 0.24679-5.1501-0.0621-3.4908-0.15084-4.0126-0.68254-4.0126-0.16007 0-0.33524-0.07152-0.38926-0.15892-0.054-0.08741-0.21269-0.12348-0.35261-0.08016s-0.94911 0.1109-1.7982 0.15018c-1.6688 0.0772-2.3812-0.11945-2.7207-0.75101-0.0903-0.16798-0.17946-0.33218-0.19816-0.3649-0.0187-0.03271-0.27532 0.12457-0.57024 0.34952-0.79349 0.60522-1.6614 0.85536-2.9655 0.85472-1.2862-0.00061-2.0544-0.31994-2.2948-0.95394-0.18749-0.49432-0.33325-8.1682-0.16896-8.8954 0.0881-0.38993 0.33341-0.79033 0.67833-1.1072 0.52552-0.48272 0.57774-0.49631 1.907-0.49631 1.5326 0 1.9404 0.11365 2.7725 0.77265l0.57836 0.45808 0.20278-0.42308c0.27327-0.57016 0.91784-0.86287 2.1089-0.95769 0.77881-0.062 0.98127-0.12836 0.93992-0.30809-0.19808-0.86088-0.18346-3.8518 0.0235-4.8104 0.47847-2.2161 1.2137-3.2748 3.0635-4.4117 1.4912-0.91655 2.47-1.206 4.1385-1.2238 1.2608-0.01349 1.4657 0.02767 2.3906 0.4802 0.55638 0.27222 1.3982 0.81319 1.8706 1.2022l0.85904 0.70721 0.83804-0.59131c1.4093-0.99437 1.9369-1.265 3.271-1.6778 1.9892-0.61556 3.1792-0.32392 4.57 1.12 1.2264 1.2732 2.3133 4.7508 2.5549 8.1748l0.0943 1.3362h1.1088c0.60987 0 1.3266 0.07591 1.5928 0.16869 0.39028 0.13605 0.58787 0.11936 1.0212-0.08628 0.7886-0.37421 1.5012-0.10407 2.0313 0.77002 0.46333 0.76405 0.59035 0.81882 0.71815 0.30964 0.15294-0.60936 0.91507-1.2232 1.5188-1.2232 1.5407 0 2.0347 1.7075 1.0904 3.7689-0.22238 0.48544-0.40432 0.92214-0.40432 0.97045s-0.16961 0.42551-0.3769 0.83822c-0.33076 0.65852-0.37943 0.96724-0.39755 2.5216-0.0231 1.9851-0.13614 2.5399-0.62293 3.058-0.4931 0.52488-1.5652 0.50228-2.1365-0.04504l-0.41998-0.40236-0.47819 0.40236c-0.70128 0.59009-1.6256 0.56232-2.3016-0.06913-0.4121-0.38496-0.53418-0.43272-0.66517-0.26024-0.75582 0.99526-2.2015 0.94904-2.7824-0.08896-0.14668-0.26209-0.18066-0.25068-0.47197 0.15842-0.24822 0.3486-0.3488 0.84921-0.48069 2.3924-0.20764 2.4297-0.21329 5.386-0.0126 6.5926 0.21794 1.3104 0.22157 3.2947 0.007 3.9443-0.21214 0.64279-0.80881 1.1716-1.322 1.1716-1.1257 0-2.6299-2.6267-3.1045-5.4213-0.23565-1.3875-0.58433-2.5983-0.96551-3.3528l-0.30515-0.60402-0.34151 0.39703c-0.49566 0.57624-0.70236 2.305-0.65388 5.4687 0.0387 2.5244 0.0218 2.7082-0.30414 3.3183-0.30097 0.56328-0.99474 1.124-1.3653 1.1036-0.0672-0.0037-0.36987-0.13769-0.67267-0.29772zm1.0637-0.8959c0.31658-0.31657 0.72304-2.1603 0.5663-2.5688-0.0549-0.14306-0.10043-1.2378-0.10118-2.4327-0.002-2.4119 0.22945-3.5648 0.86559-4.3208 0.20373-0.24212 0.37043-0.50423 0.37043-0.58245 0-0.23773-0.65349-0.76315-1.2599-1.0129-0.61838-0.25474-0.69808-0.41544-0.34951-0.70473 0.1702-0.14125 0.34725-0.14425 0.74604-0.01263 0.58808 0.19408 1.9191 1.4112 2.1796 1.993 0.78163 1.7459 1.1283 2.8797 1.3542 4.4286 0.18167 1.2459 0.7281 2.7524 1.2856 3.5445 0.76102 1.0812 1.019 1.2142 1.4182 0.7314 0.29779-0.36018 0.30916-0.4941 0.20085-2.367-0.0631-1.0919-0.15795-2.535-0.21069-3.2069-0.0527-0.67193-0.0378-2.1838 0.0333-3.3596 0.21189-3.5063 0.24376-3.1663-0.31047-3.3119-0.49163-0.12917-1.1168-0.76077-1.1168-1.1283 0-0.42343-0.29343-0.34929-0.60356 0.15251-0.35455 0.57368-1.412 1.1713-2.0996 1.1866-0.23509 0.0052-0.8977-0.10969-1.4725-0.25538-0.76393-0.19364-1.0905-0.21942-1.214-0.09587-0.093 0.09296-0.45776 0.16902-0.81065 0.16902-0.53336 0-0.71489-0.08388-1.0759-0.49715l-0.43427-0.49715-0.4365 0.49715c-0.36587 0.4167-0.54307 0.49715-1.095 0.49715-0.52975 0-0.74072-0.08719-1.0795-0.4461l-0.42105-0.4461-0.40855 0.43736c-0.95805 1.0256-2.0372 0.6829-2.8958-0.91955l-0.53181-0.99262-0.085 0.71594c-0.0468 0.39377-0.20773 0.85155-0.35772 1.0173-0.25115 0.27751-0.2613 0.49265-0.12834 2.7201 0.16403 2.7481 0.12472 4.9127-0.14032 7.7248-0.20458 2.1706-0.11396 2.6338 0.54779 2.7998 0.89675 0.22507 1.1373-0.23716 1.695-3.2566 0.58492-3.167 1.2739-5.8584 1.6444-6.4235 0.70186-1.0705 2.7925-1.9925 3.1621-1.3945 0.15637 0.25302 0.0493 0.44889-0.24547 0.44889-0.30594 0-1.5928 0.6171-1.5928 0.76382 0 0.06564 0.18898 0.16605 0.41995 0.22314 0.65205 0.16117 1.2489 0.83529 1.4886 1.6812 0.11965 0.42229 0.39512 2.1422 0.61218 3.822 0.45036 3.4854 0.56427 4.0034 1.0032 4.5614 0.37521 0.477 0.50647 0.49448 0.88335 0.1176zm-18.185-13.85c0.81712-0.34081 1.5063-1.0724 1.8126-1.9243 0.14643-0.40721 0.32138-0.74039 0.38878-0.74039s0.12255 0.43741 0.12255 0.97203c0 0.75214 0.0716 1.0631 0.3165 1.3744 0.30679 0.39001 0.36683 0.40237 1.9547 0.40237 1.0018 0 1.7044-0.06619 1.8086-0.17038 0.12537-0.12537 0.26345-0.1052 0.52266 0.07636 0.51105 0.35796 0.98108 0.30346 1.3422-0.15563 0.2798-0.35572 0.3165-0.61246 0.3165-2.2143 0-0.99657 0.0527-1.8119 0.11716-1.8119 0.0644 0 0.58048 0.92967 1.1468 2.0659 1.085 2.1772 1.4471 2.5571 2.1022 2.2065 0.57161-0.30592 0.68139-0.9428 0.62457-3.6234-0.0351-1.6542-0.29497-1.0339-0.31458 0.75077-0.0202 1.8338-0.20406 2.4943-0.69449 2.4943-0.38741 0-0.85176-0.71248-2.1873-3.3561l-1.0783-2.1344-0.0489 2.5388c-0.0432 2.241-0.083 2.5764-0.33981 2.8598-0.34594 0.38171-0.45339 0.39479-0.75616 0.09202-0.33838-0.33838-0.44212-1.558-0.45545-5.3544-0.0111-3.1462 0.0104-3.4332 0.27871-3.7297 0.54898-0.60661 0.83774-0.35818 1.8611 1.6011 0.52641 1.0079 1.148 2.2277 1.3814 2.7106 0.23334 0.48295 0.45874 0.87813 0.50086 0.87817 0.0421 0.000043 0.0601-1.0002 0.0399-2.2227-0.0421-2.5528 0.12899-3.275 0.77614-3.275 0.21368 0 0.41809 0.11425 0.47817 0.26724 0.0577 0.14698 0.14142 1.2637 0.18602 2.4816s0.10782 2.2429 0.14047 2.2779c0.15362 0.16461 0.24198-0.20222 0.27909-1.1586 0.0653-1.6823 0.0394-1.6031 0.50567-1.5494l0.41996 0.04832 0.0303 3.1306c0.0167 1.7218 0.0902 3.3367 0.16336 3.5887 0.24854 0.85596 1.291 1.0179 1.5856 0.24637 0.22609-0.59201 0.32886-2.8646 0.1439-3.1823-0.11646-0.20006-0.15897 0.11877-0.1624 1.2179-0.004 1.2872-0.0465 1.5308-0.31357 1.7979-0.40321 0.40321-0.83567 0.19108-0.96894-0.4753-0.0531-0.26546-0.0965-1.9098-0.0965-3.6542 0-3.4341 0.0195-3.3569-0.84753-3.3569-0.242 0-0.438-0.14045-0.58348-0.41812-0.18996-0.36254-0.19008-0.47419-0.001-0.83991 0.23738-0.45905 0.33167-0.47363 2.7281-0.42196 1.196 0.02579 1.4526 0.15887 1.4526 0.75323 0 0.58738-0.30209 0.9027-0.91627 0.95639-0.44262 0.03869-0.53261 0.10579-0.52358 0.39032 0.006 0.18898 0.0232 1.111 0.0382 2.0489s0.063 1.6696 0.10666 1.6259c0.0437-0.04366 0.10739-0.80952 0.14161-1.7019 0.0342-0.89238 0.10302-1.6885 0.15288-1.7692 0.0499-0.08068 0.2782-0.13236 0.50742-0.11486l0.41674 0.03184 0.0764 3.433c0.0788 3.5425 0.17723 4.1 0.73075 4.1382 0.52549 0.03631 0.72567-0.04689 1.0053-0.41783 0.25721-0.34118 0.3104-0.35575 0.54008-0.1479 0.6929 0.62707 2.2045 0.87993 2.9924 0.50057 0.83086-0.40007 1.4669-1.6896 1.552-3.1466 0.0806-1.3802-0.4033-2.3718-1.4858-3.0447-0.42549-0.2645-0.8675-0.4809-0.98224-0.4809-0.27424 0-0.45809-0.59577-0.24853-0.80533 0.11651-0.11651 0.27713-0.11208 0.55685 0.01537 0.53947 0.2458 1.0751 0.22447 1.3535-0.05391 0.19603-0.19603 0.34482-0.20487 0.9374-0.05565l0.70438 0.17736-0.0293 0.70468c-0.0161 0.38757 0.0161 0.81224 0.0717 0.94371 0.0555 0.13147 0.0445 0.39165-0.0245 0.57817s-0.0791 0.83488-0.0225 1.4408c0.0566 0.60591 0.0679 1.4498 0.0251 1.8753-0.11173 1.1103 0.44743 2.0725 1.1426 1.9662 0.10499-0.01606 0.25784-0.03779 0.33968-0.04829 0.0818-0.01049 0.25057-0.21592 0.37497-0.45649 0.17832-0.34483 0.22767-1.127 0.23314-3.6958 0.004-1.7921 0.0687-3.3201 0.14414-3.3956 0.0754-0.07546 0.28155-0.09138 0.45799-0.03538 0.30048 0.09537 0.32184 0.21476 0.33731 1.8859 0.0469 5.067 0.0437 5.0174 0.35075 5.3567 0.18445 0.20381 0.47642 0.32146 0.79781 0.32146 0.62776 0 0.97288-0.56293 0.97288-1.5869 0-0.37718 0.0665-0.72687 0.14779-0.77711 0.0813-0.05024 0.39004 0.38971 0.68612 0.97766 0.58477 1.1612 0.90989 1.43 1.6415 1.3573 0.40102-0.03987 0.51046-0.14361 0.69435-0.65817 0.26935-0.75372 0.11188-1.1692-1.0955-2.8902l-0.29274-0.41729 0.39653-0.33149c0.51411-0.42979 1.0276-1.3052 1.0283-1.7531 0.00091-0.52049 0.28093-0.2657 0.70197 0.63857 0.32222 0.69202 0.36503 1.0049 0.36834 2.6919 0.005 2.5137 0.26026 2.9847 1.4554 2.6848 0.49431-0.12406 0.57207-0.48803 0.58991-2.7611 0.009-1.1979 0.0857-2.1064 0.19243-2.2907 0.32404-0.55963 1.254-2.6102 1.4761-3.2549 0.20101-0.58343 0.19431-0.68637-0.0807-1.2423-0.52813-1.0674-1.2095-0.91921-1.8562 0.40381-0.15623 0.31959-0.33552 0.68415-0.39842 0.81014-0.2175 0.43561-0.54081 0.22573-0.941-0.61084-0.54938-1.1485-0.88126-1.4306-1.4351-1.22-0.23588 0.08968-0.50472 0.2668-0.59744 0.39359-0.14735 0.20151-0.28014 0.17945-1.055-0.17528-0.79362-0.36333-1.0011-0.39548-1.9818-0.30714-0.60248 0.05427-1.3016 0.09124-1.5536 0.08215-0.25197-0.0091-1.2664-0.02293-2.2542-0.03075-1.635-0.01293-1.8272 0.01506-2.1434 0.31203l-0.34727 0.32624-0.74586-0.3776c-0.89475-0.45298-1.2254-0.46731-2.094-0.09074-0.45276 0.19629-0.75291 0.4601-0.95061 0.83552-0.30908 0.58693-0.55098 0.60474-0.55098 0.04056 0-0.19038-0.15462-0.48802-0.3436-0.66142-0.32319-0.29654-0.49788-0.31278-2.9397-0.27338-1.4278 0.02304-2.6992 0.051-2.8252 0.06213-0.12598 0.01113-0.43544-0.02058-0.68767-0.07046-0.36731-0.07265-0.53452-0.0098-0.83991 0.31574-0.36647 0.39062-0.38068 0.48023-0.3651 2.3025 0.009 1.0428-0.0451 1.896-0.11996 1.896-0.0749 0-0.27202-0.32642-0.43804-0.72538-0.16604-0.39896-0.4471-1.0003-0.62458-1.3362-0.17749-0.33596-0.48844-0.93516-0.69101-1.3315-0.57183-1.119-1.3072-1.4812-1.9063-0.93899-0.25212 0.22817-0.30657 0.22874-0.6453 0.0068-0.26564-0.17405-0.70806-0.23762-1.5692-0.22547-1.887 0.02664-2.1799 0.28331-2.187 1.9165-0.005 1.2114-0.20849 1.4415-0.45724 0.51765-0.21794-0.80933-1.2598-1.9589-1.9631-2.1662-0.3093-0.09116-1.0707-0.14407-1.6919-0.11758-1.0208 0.04353-1.159 0.08767-1.4352 0.45847-0.28437 0.38177-0.30671 0.66162-0.32119 4.0233-0.009 1.9871 0.0419 3.6485 0.11227 3.692 0.0703 0.04344 0.0922 0.21547 0.0485 0.38228-0.0436 0.16681-0.0395 0.26348 0.009 0.21482 0.0487-0.04866 0.0955-1.8006 0.10419-3.8932 0.0189-4.5988-0.0397-4.4477 1.7267-4.4477 1.3409 0 1.7985 0.20019 2.5478 1.1146 1.2695 1.5493 1.3499 5.1683 0.15492 6.9741-0.56335 0.85126-1.4116 1.2267-2.7713 1.2267-1.0594 0-1.5662-0.20409-1.5662-0.63077 0-0.08295-0.0685-0.1085-0.15215-0.05678-0.18223 0.11262 0.20196 0.92656 0.49254 1.0435 0.44306 0.17826 2.294 0.09033 2.8333-0.1346zm20.245-0.25619c-1.1891-0.24323-1.7875-1.2485-1.2119-2.0357 0.19641-0.26861 0.2644-0.27728 0.72538-0.09244 1.2133 0.48648 1.6938 0.41577 1.9382-0.28518 0.25678-0.7366 0.0103-1.1109-1.0925-1.6593-1.4713-0.73164-1.6963-1.0332-1.7566-2.3543-0.0864-1.8931 0.80083-3.0934 2.2705-3.0716 1.0489 0.01555 1.5776 0.50156 1.4654 1.3471-0.0993 0.74841-0.31208 0.88036-0.97382 0.60387-0.64888-0.27112-1.0852-0.14755-1.279 0.36225-0.21321 0.5608 0.14454 1.0197 1.1983 1.5369 1.1308 0.55509 1.6305 1.4384 1.5738 2.7817-0.0911 2.1572-1.1472 3.2166-2.8578 2.8667zm-17.378-0.30454c-0.20097-0.28693-0.23772-0.97972-0.23772-4.4813 0-4.9535-0.12376-4.6474 1.8788-4.6474 1.2894 0 1.325 0.0098 1.523 0.41996 0.40528 0.83979 0.008 1.4414-0.888 1.3431-0.24536-0.02693-0.60209 0.01034-0.79274 0.08282-0.30133 0.11456-0.34663 0.23961-0.34663 0.95678 0 0.99646 0.22284 1.2459 0.98512 1.1029 0.62865-0.11794 1.1528 0.28953 1.1528 0.89613 0 0.54553-0.49271 0.82437-1.2966 0.73376-0.61611-0.06944-0.68132-0.04404-0.76741 0.29895-0.0517 0.20616-0.0724 0.67857-0.0459 1.0498l0.0482 0.67495 0.91098 0.04678c1.0819 0.05556 1.3033 0.20463 1.3033 0.87728 0 0.82746-0.29319 0.98483-1.8348 0.98483-1.2269 0-1.3773-0.03204-1.5926-0.3394zm25.205 0.05233c-0.26665-0.29465-0.29864-1.1608-0.25759-6.9757 0.015-2.1254 0.0943-2.2596 1.3262-2.2434 1.8902 0.02482 2.2986 0.19432 2.7771 1.1525 0.733 1.4677 0.48354 3.1637-0.58114 3.9508-0.58132 0.42978-0.57352 0.68948 0.0456 1.5176 0.81465 1.0897 1.0255 1.4778 1.0255 1.8873 0 0.37905-0.46873 0.998-0.75579 0.998-0.21621 0-0.79454-0.83138-1.6185-2.3267-0.40432-0.73374-0.7636-1.3056-0.79839-1.2708-0.0348 0.0348-0.0739 0.74492-0.0869 1.578-0.0296 1.8952-0.39553 2.4843-1.076 1.7324zm2.6177-5.3331c0.2702-0.34148 0.24516-1.6275-0.0362-1.8611-0.12491-0.10367-0.33107-0.1486-0.45813-0.09985s-0.23101 0.02208-0.23101-0.05927c0-0.2156-0.57171-0.18119-0.71396 0.04297-0.18296 0.2883-0.1925 1.996-0.0124 2.2173 0.20503 0.25185 1.1916 0.08873 1.4517-0.24004zm-1.0308-0.7847c0-0.79399 0.12044-0.98668 0.52071-0.83308 0.36899 0.14159 0.32916 1.2253-0.0525 1.4295-0.44835 0.23995-0.46818 0.2147-0.46818-0.59646zm4.7153 6.1532c-0.14554-0.17538-0.23224-0.90461-0.28594-2.4052l-0.0771-2.1535-0.80174-1.6858c-0.81747-1.7189-0.9754-2.4849-0.58-2.8131 0.44115-0.36612 0.75699-0.08934 1.438 1.2601 0.37198 0.7371 0.75064 1.3154 0.84147 1.2851 0.0908-0.03028 0.41-0.62321 0.70927-1.3176 0.55264-1.2823 0.84614-1.6137 1.2814-1.4467 0.17809 0.06834 0.24219 0.30283 0.24219 0.88597 0 0.43617-0.0607 0.85832-0.13488 0.93811-0.0742 0.07979-0.45215 0.87996-0.83992 1.7782l-0.70502 1.6331v1.9633c0 2.0109-0.0852 2.3298-0.62269 2.3298-0.1409 0-0.35018-0.11326-0.46507-0.25168zm-17.297-0.02552c-0.0482-0.07794-0.0948-2.0683-0.10372-4.4229-0.0162-4.3145 0.0501-4.9207 0.53888-4.9207 0.47622 0 0.69262 0.46388 0.69972 1.4998 0.004 0.56094 0.0377 2.3599 0.0752 3.9978 0.0801 3.4979 0.0179 3.8747-0.65056 3.9409-0.25955 0.02573-0.51132-0.01699-0.55949-0.09493zm7.7492-0.10585c-0.0486-0.12669-0.098-1.8275-0.10973-3.7796l-0.0213-3.5493-0.67534-0.07636c-0.57251-0.06473-0.69678-0.14105-0.8161-0.5012-0.1053-0.31786-0.0786-0.51976 0.1062-0.80173 0.27931-0.42628 0.23321-0.4184 2.3015-0.39295 1.6746 0.02061 1.9089 0.13752 1.9089 0.95251 0 0.48431-0.16224 0.61555-0.91108 0.73701l-0.53968 0.08753-0.0764 3.5863c-0.042 1.9725-0.13195 3.6722-0.1999 3.7772-0.17272 0.26688-0.86027 0.23882-0.96706-0.03946zm-19.508-1.891c-1.3367-0.16179-1.3968-1.1133-0.0763-1.2073 0.36941-0.0263 0.73694-0.1122 0.81673-0.19089 0.26131-0.2577 0.31265-0.15386 0.34457 0.69688 0.0218 0.58193-0.025 0.8325-0.15271 0.81588-0.10133-0.0132-0.52085-0.06474-0.93228-0.11453zm15.103-0.11867c-0.33597-0.13408-0.87319-0.25133-1.1938-0.26054l-0.58299-0.01676-0.0724-1.1835c-0.0398-0.65093-0.0263-1.1835 0.03-1.1835s0.3739 0.24533 0.7058 0.54517c0.33189 0.29985 0.9009 0.67268 1.2645 0.82852 0.71775 0.30767 0.95506 0.72494 0.69193 1.2166-0.0916 0.17116-0.18131 0.30818-0.19935 0.30449-0.018-0.0037-0.30769-0.11641-0.64366-0.25049zm-14.366-3.47c-0.17426-0.12273-0.62094-0.24487-0.99262-0.27142-0.63835-0.04559-0.67579-0.07365-0.67579-0.5064 0-0.45488 0.007-0.45846 0.9462-0.50338l0.9462-0.04525 0.0987 0.52631c0.0543 0.28947 0.0752 0.63813 0.0464 0.7748-0.0465 0.22093-0.0874 0.22374-0.36915 0.02534zm-6.0977 3.6371c0.46883-0.50588 0.7519-1.8518 0.63157-3.003-0.15641-1.4965-0.65706-2.1572-1.738-2.2936l-0.64902-0.0819-0.008 1.3217c-0.005 0.72693-0.0276 1.9745-0.051 2.7724-0.0234 0.79792-0.0155 1.5023 0.0175 1.5653 0.033 0.06299 0.36849 0.11453 0.7455 0.11453 0.54135 0 0.76255-0.08315 1.052-0.39546zm-1.2823-0.12087c-0.19954-0.24042-0.29859-4.188-0.11264-4.4888 0.12709-0.20564 0.68731-0.24682 0.95434-0.07016 0.38205 0.25276 0.71345 1.2048 0.72853 2.0928 0.0208 1.2232-0.11592 1.7213-0.61545 2.2427-0.46252 0.48276-0.69452 0.53706-0.95478 0.22346zm0.88695-1.281c0.003-0.14533 0.0128-0.66755 0.0221-1.1605 0.0191-1.0161-0.22649-1.4819-0.35885-0.68044-0.0461 0.27925-0.0605 0.67952-0.0319 0.8895s0.0577 0.60918 0.0647 0.8871c0.0127 0.50479 0.29408 0.56436 0.3039 0.06434zm33.494-0.6707c-0.0743-0.07428-0.28449 0.03018-0.48042 0.23874-0.39212 0.41739-0.3515 0.73084 0.18307 1.4127l0.33731 0.43022 0.0461-0.97479c0.0253-0.53613-0.0134-1.0342-0.086-1.1069zm-9.3808-1.7684c-0.0515-0.62156-0.40802-0.83199-0.82422-0.48657-0.19756 0.16396-0.17262 0.2464 0.18862 0.62346 0.5536 0.57783 0.69241 0.54794 0.6356-0.13689zm-13.554-3.6237c0.34942-0.71729 0.75142-0.82522 3.1144-0.83616 1.1803-0.0055 2.7187-0.03348 3.4187-0.06226 1.1353-0.04667 1.3302-0.01332 1.8051 0.309l0.53243 0.36132 0.43435-0.30928c0.6348-0.45202 1.6661-0.55002 2.5941-0.2465 0.62413 0.20414 0.83872 0.2173 1.114 0.06833 0.21614-0.11697 1.1068-0.18831 2.4329-0.19485 1.7269-0.0085 2.1017-0.0503 2.148-0.2394 0.13281-0.5423-0.19709-3.2818-0.55892-4.6413-1.3955-5.243-3.3351-6.3485-7.3461-4.1871-0.33596 0.18104-1.0101 0.64373-1.4981 1.0282-1.7719 1.396-1.9819 1.5334-2.4901 1.6287-0.86876 0.16298-0.57612 0.36837 0.52487 0.36837 0.86132 0 1.1851-0.07744 1.8707-0.44743 1.7737-0.95717 2.1828-1.1149 2.8915-1.1149 1.0732 0 1.9845 0.553 1.9845 1.2042 0 0.3602-0.21135 0.48116-0.37581 0.21507-0.17747-0.28715-1.0606-0.62052-1.6439-0.62052-0.55038 0-1.8166 0.57564-2.0317 0.92361-0.0445 0.07211 0.21195 0.21 0.57004 0.30643 1.1007 0.29638 2.107 0.87709 2.107 1.2159 0 0.3871-0.31023 0.38451-1.0816-0.009-0.33623-0.17153-1.2784-0.45204-2.0937-0.62335-2.0879-0.43872-4.0706-0.2337-6.2528 0.64658-0.76797 0.30978-1.2616 0.30936-1.2616-0.0011 0-0.32234 0.52335-0.62884 1.7632-1.0326 0.92037-0.29973 1.2881-0.48919 1.2576-0.64787-0.0627-0.32572-1.3962-0.63252-1.9984-0.4598-0.97931 0.28086-1.3588 0.02578-0.75504-0.50759 0.47213-0.41713 1.4289-0.4727 2.3804-0.13825 0.48812 0.17156 0.89926 0.24187 0.9485 0.16221 0.0478-0.07734 0.29242-0.14062 0.5436-0.14062 0.57036 0 1.3578-0.39488 1.3578-0.6809 0-0.33863-1.1963-1.2054-2.3765-1.7218-0.96904-0.42404-1.1937-0.46474-2.2143-0.40109-1.3925 0.08683-1.9433 0.24738-3.1211 0.9097-1.9769 1.1117-2.6918 2.2143-3.0596 4.7193-0.15731 1.0713-0.076 3.1828 0.15709 4.0796 0.11825 0.45494 0.62214 0.70529 0.88684 0.4406 0.26938-0.26938 1.0154-0.19414 1.5006 0.15133 0.24655 0.17557 0.66621 0.74251 0.93257 1.2599l0.48428 0.94066 0.0917-0.61084c0.0504-0.33596 0.19114-0.815 0.31269-1.0645zm-3.1468-12.518c-0.32878-0.50177-1.6099-3.8577-1.7036-4.4624-0.0869-0.56123 0.14741-0.75657 1.4517-1.2102 0.60389-0.21004 0.87494-0.23981 1.069-0.11742 0.46603 0.29397 0.30547 0.71856-0.40783 1.0784-0.85122 0.42945-0.81328 0.37056-0.61158 0.94914 0.14123 0.40513 0.23198 0.47828 0.49699 0.4006 0.95095-0.27876 1.2867-0.27218 1.4475 0.02836 0.21873 0.4087-0.13125 0.88886-0.73603 1.0098-0.55267 0.11054-0.58221 0.35869-0.15483 1.3005 0.37725 0.8314 0.37837 1.0389 0.007 1.2378-0.43837 0.2346-0.58828 0.1971-0.85807-0.21465zm17.852 0.13816c-0.0495-0.12901 0.0924-0.73479 0.31542-1.3462l0.40543-1.1116-0.31422-1.3476c-0.28655-1.2289-0.29342-1.3793-0.078-1.708 0.46723-0.7131 0.88024-0.37491 1.0675 0.87415 0.17227 1.1489 0.26322 1.1877 1.086 0.46346 0.83392-0.73404 1.3314-0.78912 1.405-0.15557 0.0353 0.3039-0.0902 0.50949-0.53448 0.87551-1.6615 1.3688-1.6788 1.3907-2.0259 2.56-0.31891 1.0743-0.35802 1.1305-0.78619 1.1305-0.26434 0-0.48779-0.09696-0.5406-0.23457zm-15.695-0.46354c-0.13199-0.13199-0.23997-0.25225-0.23995-0.26724 0.00001-0.015 0.10638-0.57703 0.23637-1.249 0.12999-0.67193 0.36878-1.976 0.53064-2.898 0.2386-1.3591 0.36003-1.7269 0.64171-1.9437 0.66849-0.51449 0.84129-0.37582 1.6387 1.315 1.5199 3.2227 1.62 3.6088 1.0286 3.9692-0.27416 0.16707-0.47052 0.02004-0.84863-0.63545-0.0889-0.15412-0.25711-0.14902-0.83655 0.02537-0.93126 0.28027-1.1692 0.48689-1.1692 1.0152 0 0.41023-0.335 0.90848-0.61084 0.90848-0.072 0-0.23889-0.10799-0.37087-0.23998zm2.1041-2.8852c0.245-0.1819 0.26-0.2796 0.11-0.7174-0.096-0.2786-0.269-0.6783-0.385-0.8882l-0.21129-0.38163-0.08 0.38163c-0.36981 1.7638-0.21569 2.2014 0.56663 1.6087zm12.011 2.7215c-1.0585-0.3428-1.5138-0.56314-1.5937-0.77115-0.0514-0.13399 0.26894-1.3398 0.71191-2.6795 0.79922-2.4172 1.0588-2.8527 1.5809-2.6524 0.33681 0.12924 0.26382 0.62777-0.39371 2.689-0.33491 1.0499-0.60936 1.9551-0.60989 2.0116-0.00046 0.05648 0.25675 0.18504 0.57171 0.28569 0.75693 0.24188 0.85906 0.35507 0.74183 0.82213-0.0977 0.38934-0.42323 0.48439-1.0091 0.29466zm-3.4408-1.1385c-0.0885-0.27881 0.007-1.2619 0.19056-1.9702 0.0327-0.12599 0.0807-0.46959 0.10661-0.76356 0.15677-1.7784 0.51492-2.7488 1.0145-2.7488 0.49893 0 0.55114 0.51287 0.25303 2.4853-0.15519 1.0268-0.29791 2.0044-0.31714 2.1724-0.0978 0.85409-0.27952 1.1453-0.71455 1.1453-0.30393 0-0.46133-0.09464-0.53302-0.3205zm-5.9545-0.04497c-0.26353-0.1927-0.26412-0.29178-0.0144-2.4172 0.30291-2.578 0.46494-3.2596 0.80598-3.3904 0.53291-0.2045 0.87997 0.28219 1.2564 1.7619 0.20054 0.78832 0.41038 1.4851 0.46629 1.5484 0.0559 0.06328 0.2698-0.57911 0.4753-1.4275 0.32008-1.3216 0.43088-1.5723 0.77333-1.7502 0.63619-0.33036 0.86302-0.03235 1.1107 1.4592 0.68521 4.127 0.68627 4.2759 0.0305 4.2759-0.49492 0-0.52398-0.06293-0.71783-1.5542-0.0909-0.69902-0.20208-1.374-0.24716-1.5-0.0451-0.12599-0.26517 0.49249-0.48908 1.3744-0.37986 1.4962-0.43403 1.6066-0.80938 1.6508-0.50069 0.05891-0.63546-0.17485-0.96026-1.6656-0.13547-0.6218-0.28301-1.2336-0.32786-1.3596-0.13814-0.38806-0.30719 0.259-0.42975 1.6449-0.12207 1.3804-0.37482 1.7499-0.92278 1.3492z"/>
 </g>
</svg>
