<?xml version="1.0" encoding="UTF-8" standalone="no"?>
<!-- Created with Inkscape (http://www.inkscape.org/) -->
<svg id="svg2" xmlns:rdf="http://www.w3.org/1999/02/22-rdf-syntax-ns#" xmlns="http://www.w3.org/2000/svg" height="54" width="99" version="1.1" xmlns:cc="http://creativecommons.org/ns#" xmlns:dc="http://purl.org/dc/elements/1.1/">
 <metadata id="metadata7">
  <rdf:RDF>
   <cc:Work rdf:about="">
    <dc:format>image/svg+xml</dc:format>
    <dc:type rdf:resource="http://purl.org/dc/dcmitype/StillImage"/>
    <dc:title/>
   </cc:Work>
  </rdf:RDF>
 </metadata>
 <g id="g4004">
  <rect id="rect2990" opacity="0" height="54" width="99" y="0" x="0"/>
  <path id="path3779" d="m87.572 41.024c-0.34009-0.23821-1.4758-1.6013-2.5237-3.029s-2.0643-2.5948-2.2585-2.5934c-0.19423 0.0013-1.1203 0.77593-2.0579 1.7212-1.821 1.8359-4.4247 3.3581-6.2407 3.6485-1.0183 0.16282-1.129 0.11516-1.2981-0.55858-0.11528-0.45932-0.3316-0.68028-0.57466-0.58701-0.28576 0.10966-0.3191 0.33551-0.12492 0.84623 0.25492 0.6705 0.21768 0.69665-0.9925 0.69665-1.0122 0-1.2866-0.11181-1.4073-0.57348-0.27244-1.0418-2.4956-1.5118-3.5398-0.74825-0.74912 0.54777-0.51993 0.70589 1.4879 1.0266l1.7018 0.27179-1.9961-0.14559c-2.2434-0.16363-3.2572-0.52311-2.4031-0.85216 0.27766-0.10698 0.50285-0.40779 0.50042-0.66847-0.0033-0.35676-0.06275-0.38203-0.24029-0.1022-0.17593 0.2773-0.4314 0.29744-1.0053 0.07927-0.88267-0.33559-0.99972-0.1257-0.26454 0.47437 0.4564 0.37252 0.4218 0.39441-0.3606 0.22816-2.86-0.60773-5.5527-3.1444-7.3622-6.9358-0.63132-1.3227-1.1479-2.6464-1.1479-2.9414 0-0.29505-0.1147-0.65977-0.25488-0.8105s-0.54424-1.1027-0.89791-2.1156c-1.2644-3.621-2.2987-4.6496-4.6745-4.6488-2.6731 0.000945-3.2967 0.70162-5.8791 6.6057-1.2493 2.8562-2.8458 5.517-4.1025 6.8375-1.9728 2.0729-5.0804 3.865-6.7019 3.865-0.65972 0-0.77502-0.1022-0.65088-0.57696 0.16286-0.62272-0.10064-0.72528-0.77217-0.30056-0.26528 0.16778-0.55424 0.15867-0.77487-0.02443-0.22383-0.18577-0.5422-0.19394-0.8751-0.02247-0.2878 0.14824-0.68554 0.21133-0.88388 0.14022-0.19832-0.07111-0.36059 0.07625-0.36059 0.32746 0 0.26852 0.2675 0.47461 0.64907 0.50008 0.35699 0.02383 0.06488 0.12119-0.64907 0.21636-3.3879 0.45156-7.6421-0.80619-10.271-3.0368-1.005-0.85253-2.0102-1.5501-2.2338-1.5501-0.22365 0-0.86832 0.55171-1.4326 1.226-2.5524 3.0501-3.8588 4.255-4.6137 4.255-1.3426 0-1.6759-1.6108-1.0423-5.038 0.42239-2.285 1.4459-4.4996 2.8478-6.1623 0.64259-0.76208 1.1683-1.6274 1.1683-1.9229 0-1.1044-2.3332-5.334-3.8516-6.9823-1.9313-2.1-2.203-2.621-2.203-4.231 0-2.2177 0.81408-2.581 7.5004-3.3478 5.6302-0.64566 12.353-0.72103 16.155-0.18112 3.8357 0.54468 6.2137 1.2843 10.062 3.1295l3.0634 1.4687 5.0827 0.02254 5.0827 0.02254 2.9947-1.5079c3.769-1.8979 9.1664-3.4681 13.158-3.828 4.3374-0.39107 11.125 0.32807 17.963 1.9032 2.7206 0.62667 3.477 0.98326 3.7809 1.7825 0.51135 1.345-0.28444 3.8565-1.5431 4.8701-0.3622 0.29167-1.1642 1.1529-1.7823 1.9139-0.65349 0.80458-1.2857 1.3214-1.5108 1.2351-0.21287-0.08169-0.38704-0.03359-0.38704 0.10686 0 0.14046 0.12865 0.29866 0.28589 0.35154 0.16128 0.05424-0.02435 0.85059-0.42587 1.827-0.88476 2.1516-0.88483 2.2018-0.0042 3.029 0.39666 0.37264 0.72119 0.84087 0.72119 1.0405 0 0.19964 0.23652 0.43806 0.5256 0.52981 1.3348 0.42364 2.5438 4.6248 2.3002 7.9929-0.16029 2.216-1.0025 2.8454-2.4503 1.8313zm1.6236-1.0814c0.01116-0.119-0.1998-0.21636-0.46877-0.21636-0.26898 0-0.85314-0.34882-1.2981-0.77516-1.1885-1.1386-0.98634-0.28811 0.25919 1.0905 0.93946 1.0399 1.0936 1.1182 1.2779 0.6499 0.11527-0.29291 0.21871-0.62992 0.22986-0.74892zm-79.436 0.288c-0.0669-0.357-0.131-0.69-0.1428-0.739-0.0119-0.04904-0.1516-0.0087-0.31068 0.08963-0.19236 0.11888-0.18896 0.36618 0.010105 0.73822 0.39952 0.7465 0.59159 0.70764 0.44297-0.08963zm65.825-0.299c0.44062 0.15963 0.4824-0.38507 0.05003-0.65229-0.17081-0.10557-0.56026 0.07606-0.86543 0.40363-0.69349 0.74437-0.72987 1.1501-0.05003 0.55781 0.27766-0.24188 0.6671-0.381 0.86543-0.30915zm-49.544-0.207c0.3613-0.19336 0.59975-0.19336 0.71925 0 0.32002 0.51782 1.3505 0.33928 1.2443-0.21558-0.07518-0.39296-0.43154-0.5202-1.6078-0.57417-1.0964-0.0503-1.5111 0.03547-1.5111 0.31252 0 0.74793 0.36662 0.89936 1.1554 0.47723zm-2.011-0.997c-0.221-0.266-0.836-0.445-1.528-0.445-0.77037 0-1.2825-0.1691-1.5277-0.50438-0.20285-0.27741-0.46518-0.40802-0.58295-0.29025-0.2817 0.28171 0.62888 1.2742 1.3396 1.4601 0.30704 0.0803 0.55826 0.0036 0.55826-0.17062 0-0.17413 0.16226-0.11201 0.3606 0.13806 0.19833 0.25007 0.55532 0.51828 0.79332 0.59603 0.65252 0.21317 1.014-0.26956 0.5871-0.78396zm9.4182 0.3664c-0.09208-0.23013-0.16044-0.16177-0.17429 0.17429-0.01247 0.3041 0.05563 0.47448 0.15152 0.37863 0.09587-0.09586 0.1061-0.34467 0.02286-0.55292zm40.634-0.10515c2.3635-0.61544 3.7761-1.5155 5.4696-3.4847 1.251-1.4548 1.4388-1.836 1.4156-2.8734-0.0345-1.5416-0.34501-2.4139-0.67132-1.8859-0.17385 0.2813-0.39956 0.14714-0.87446-0.5198-0.8106-1.1384-3.4691-3.6604-4.8416-4.593-1.669-1.1341-6.1712-2.3282-12.77-3.3867-3.2545-0.52211-3.6495-0.50649-4.3272 0.17112-1.1674 1.1674-0.49202 6.3663 1.3305 10.242 1.1538 2.4534 3.252 4.4586 5.6791 5.4274 3.3628 1.3423 6.6973 1.6564 9.5894 0.9033zm-40.506-1.125c3.3164-0.97836 5.6025-3.5008 7.3282-8.0852 0.89883-2.388 1.2557-6.0892 0.66245-6.8697-0.3576-0.47044-0.58572-0.48796-2.4955-0.19165-1.156 0.17937-2.2736 0.26024-2.4834 0.17972-0.20985-0.08052-0.4947-0.03764-0.63303 0.0953s-0.77077 0.31854-1.4054 0.41244c-1.5975 0.23638-4.0784 0.7047-5.6253 1.0619-4.4217 1.0211-6.4081 1.9876-8.017 3.901-1.1046 1.3137-3.2336 4.6471-3.2336 5.0629 0 0.42043 2.1333 2.6098 3.1716 3.255 3.3602 2.088 8.1458 2.5309 12.731 1.1782zm45.832-9.533c-0.85405-0.86479-1.612-1.5132-1.6843-1.4409-0.07229 0.07229 0.56171 0.84462 1.4089 1.7163 0.84719 0.87165 1.6051 1.5201 1.6843 1.4409 0.07914-0.07916-0.55485-0.85148-1.4089-1.7163zm4.4513-1.5541c0.08699-0.14076 0.30518-1.2443 0.48485-2.4523 0.47384-3.1859 0.71138-3.0613-5.8369-3.0613-2.9952 0-5.4457 0.10898-5.4457 0.24217 0 0.27236 1.2796 0.91174 1.8247 0.91174 0.59615 0 4.2595 1.878 6.3969 3.2794 2.144 1.4057 2.3275 1.4826 2.5762 1.0803zm-67.124-1.007c2.2459-1.5957 3.4095-2.0785 8.7992-3.6505 2.4366-0.71069 2.8436-1.1263 1.1539-1.1783-0.59498-0.0183-1.2116-0.06344-1.3703-0.1003-0.15867-0.03687-0.58056-0.0868-0.93755-0.11096-0.37678-0.0255-0.64907-0.23262-0.64907-0.49368 0-0.24736-0.13194-0.3682-0.29318-0.26854-0.16125 0.09966-0.20732 0.32014-0.10237 0.48995 0.13374 0.2164-1.0769 0.2663-4.0474 0.16682-4.0456-0.13548-4.2573-0.11472-4.6575 0.4567-0.71826 1.0255-0.34236 5.6628 0.45903 5.6628 0.15084 0 0.89117-0.43832 1.6452-0.97405zm39.51-1.691c-0.069-0.35884-0.12808-0.13318-0.13128 0.50147-0.0031 0.63465 0.05325 0.92825 0.12546 0.65244 0.0722-0.27581 0.07482-0.79507 0.0059-1.1539zm12.2-1.0852c0-0.15866-0.13748-0.28848-0.3055-0.28848-0.16803 0-0.22527 0.12982-0.12721 0.28848s0.23554 0.28848 0.3055 0.28848 0.12721-0.12982 0.12721-0.28848zm-26.054-1.208c-0.09208-0.23013-0.16044-0.16177-0.17429 0.17429-0.01247 0.3041 0.05572 0.47448 0.15152 0.37863 0.09587-0.09586 0.1061-0.34467 0.02276-0.55291zm3.9477-0.26544c-0.02097-0.22092-0.13191-0.75671-0.24655-1.1906-0.1808-0.68436-0.09924-0.83452 0.61507-1.1325 0.81904-0.34164 0.8157-0.34457-0.61888-0.54268-0.79331-0.10955-1.5667-0.08579-1.7186 0.05279-0.35 0.31935 1.2638 3.4793 1.698 3.3247 0.16996-0.06051 0.29187-0.29077 0.27091-0.51168zm26.356-0.14324c-0.09586-0.09586-0.34467-0.10611-0.55292-0.02278-0.23013 0.09209-0.16177 0.16045 0.17429 0.17429 0.3041 0.01253 0.47448-0.05566 0.37863-0.15151zm-54.733-1.735c0-0.06083-0.25963-0.11059-0.57695-0.11059s-0.57695 0.11766-0.57695 0.26147 0.25963 0.19358 0.57695 0.11059 0.57695-0.20064 0.57695-0.26147zm0.7212 0.17788c0.09806-0.15866 0.0408-0.28848-0.12721-0.28848-0.16803 0-0.3055 0.12982-0.3055 0.28848s0.05723 0.28848 0.1272 0.28848c0.06998 0 0.20745-0.12981 0.30551-0.28848zm31.589-1.154c0-0.15866-0.25197-0.28848-0.55992-0.28848-0.30797 0-0.64016 0.12982-0.73822 0.28848-0.10112 0.16361 0.14125 0.28848 0.55992 0.28848 0.40603 0 0.73822-0.12981 0.73822-0.28848zm38.893-1.2605c0.06956-0.3508-0.12609-0.47037-0.76972-0.47037-1.7521 0-2.392 0.77766-1.1265 1.3691 0.74982 0.35044 1.7418-0.1197 1.8963-0.89873zm-77.261-0.336c0-0.30068-0.33284-0.42257-1.1539-0.42257-1.2867 0-1.4643 0.32684-0.53236 0.97959 0.70338 0.49267 1.6863 0.16799 1.6863-0.55703zm21.78-0.42311c0.26272-0.42511-1.0716-0.84472-4.1728-1.3122-3.9165-0.59041-7.7993-0.50478-7.7993 0.17199 0 0.35535 1.4135 0.58787 6.0081 0.98831 5.5629 0.48484 5.7553 0.48974 5.9641 0.15192zm45.381-0.2668c0.29804-0.1642 0.27315-0.29636-0.11674-0.61976-0.38892-0.32259-1.5258-0.4038-5.2829-0.37736-4.9694 0.03496-8.0941 0.49556-8.3351 1.2286-0.10956 0.33323 0.95089 0.36322 6.6127 0.18704 3.7088-0.11541 6.9137-0.30375 7.1221-0.41854zm-48.987 23.812c0-0.2448 1.4669-0.37157 1.6105-0.13918 0.08491 0.13738-0.24272 0.24979-0.72806 0.24979-0.48536 0-0.88246-0.04977-0.88246-0.11061z"/>
 </g>
</svg>
