<?xml version="1.0" encoding="UTF-8" standalone="no"?>
<!-- Created with Inkscape (http://www.inkscape.org/) -->
<svg id="svg2" xmlns:rdf="http://www.w3.org/1999/02/22-rdf-syntax-ns#" xmlns="http://www.w3.org/2000/svg" height="45" width="67.5" version="1.1" xmlns:cc="http://creativecommons.org/ns#" xmlns:dc="http://purl.org/dc/elements/1.1/">
 <metadata id="metadata7">
  <rdf:RDF>
   <cc:Work rdf:about="">
    <dc:format>image/svg+xml</dc:format>
    <dc:type rdf:resource="http://purl.org/dc/dcmitype/StillImage"/>
    <dc:title/>
   </cc:Work>
  </rdf:RDF>
 </metadata>
 <g id="g5021">
  <g id="g4962">
   <rect id="rect2990" opacity="0" height="45" width="67.5" y="0" x="3.5527e-15"/>
  </g>
  <path id="path3815" d="m30.425 44.737c-0.0893-0.43874-0.36197-1.2419-0.56902-1.6762-0.10778-0.22603-0.39619-0.70817-0.64091-1.0714-0.91576-1.3593-1.1903-2.2095-1.2371-3.8304-0.0288-0.99856 0.0229-1.6033 0.19251-2.2533 0.32967-1.2632 1.062-2.3519 2.2939-3.4098l0.47119-0.40466 0.0114-0.89789c0.009-0.6865 0.0299-0.96229 0.0899-1.1714 0.0702-0.24463 0.0732-0.35312 0.0279-1.0258-0.0994-1.4764-0.19665-2.0197-0.54688-3.0547-0.3863-1.1416-0.46809-1.7287-0.46718-3.3531l0.00061-1.1874-0.34628-0.17826c-0.46091-0.23726-1.3816-0.85541-1.8252-1.2253-0.5139-0.42864-1.098-1.0583-1.393-1.5017l-0.2552-0.38353v-1.7662-1.7662l0.14931-0.14931 0.14931-0.14931-0.1721-0.19394c-0.0946-0.10667-0.17205-0.23233-0.17205-0.27926 0-0.07746-0.0404-0.08532-0.43923-0.08532-0.24159 0-0.52094-0.02448-0.6208-0.0544-0.20932-0.06271-0.44452-0.27703-0.44452-0.40504 0-0.07534-0.0337-0.08771-0.23937-0.08793-0.31613-0.000319-0.56867-0.07416-0.69878-0.20426-0.0596-0.05961-0.19147-0.11983-0.30193-0.13789-0.47826-0.0782-0.82447-0.32589-0.88167-0.63078-0.0263-0.14007-0.0451-0.15335-0.28911-0.20374-0.3646-0.07531-0.6727-0.28093-0.78212-0.52197-0.0482-0.10626-0.0881-0.22667-0.0887-0.26757-0.0006-0.05013-0.07-0.09175-0.21269-0.12768-0.44971-0.11324-0.71439-0.39987-0.77455-0.83878-0.0266-0.19375-0.0395-0.20917-0.23901-0.28386-0.41244-0.15444-0.75067-0.48452-0.86757-0.84665-0.052-0.16117-0.0604-0.16603-0.33664-0.19583-0.56064-0.06047-1.0072-0.39636-1.2183-0.91625-0.0695-0.17117-0.12704-0.25001-0.18254-0.25001-0.24387 0-0.48651-0.468-0.44296-0.85439 0.0174-0.15395 0.007-0.19424-0.0483-0.19424-0.0386 0-0.15597-0.05027-0.26082-0.11172-0.336-0.197-0.582-0.607-0.685-1.1418-0.058-0.3045-0.084-0.3545-0.29-0.561-0.249-0.2491-0.387-0.5929-0.364-0.9101 0.01-0.1351-0.014-0.1969-0.113-0.2961-0.171-0.1709-0.248-0.374-0.283-0.7455-0.016-0.1725-0.07-0.4022-0.121-0.5104s-0.103-0.3339-0.116-0.5015c-0.018-0.2212-0.053-0.3427-0.129-0.4428-0.058-0.0758-0.172-0.281-0.255-0.4559-0.119-0.2537-0.153-0.3894-0.166-0.6713-0.009-0.19434-0.005-0.35334 0.009-0.35334 0.0142 0 0.27794 0.14442 0.58614 0.32094 2.2463 1.2865 5.4322 2.6385 8.1971 3.4786 1.035 0.31448 2.0152 0.58338 2.0392 0.55941 0.01-0.0098-0.1546-0.42526-0.36536-0.92322-0.28824-0.681-0.36709-0.9092-0.31817-0.92082 0.10436-0.02479 0.52095 0.12564 0.71507 0.2582 0.32029 0.21872 0.84028 0.14991 1.1663-0.15435 0.36493-0.34051 1.2003-0.42009 1.4975-0.14265 0.13224 0.12347 0.23505 0.31571 0.23505 0.43952 0 0.06967 0.0294 0.09345 0.1158 0.09345 0.16438 0 0.40871-0.13506 0.84772-0.46863 0.84026-0.63843 1.3039-0.89725 2.0611-1.1506 0.69695-0.23319 1.2127-0.3112 2.059-0.31142 1.3209-0.000334 2.1419 0.27718 3.5562 1.2021 0.61744 0.40379 1.0293 0.63679 1.2424 0.70288 0.097 0.03009 0.10258 0.01936 0.10258-0.19805 0-0.21247 0.011-0.23557 0.14585-0.30529 0.11419-0.05905 0.22553-0.07023 0.51292-0.05152 0.4577 0.0298 0.83941 0.17 1.0763 0.39531 0.16037 0.15255 0.17986 0.19466 0.17986 0.38857 0 0.19132-0.0197 0.2355-0.16358 0.36731-0.14441 0.13228-0.15734 0.1615-0.1103 0.24939 0.0613 0.1145 0.37819 0.2717 0.55072 0.27317 0.21285 0.0018 0.53151-0.1384 0.72913-0.32085 0.10705-0.09882 0.20169-0.17262 0.21032-0.16399 0.009 0.0086-0.0552 0.24914-0.14182 0.53448-0.0866 0.28533-0.14909 0.5272-0.13881 0.53748 0.0451 0.04514 3.2982-0.82023 4.3531-1.158 0.3636-0.11642 0.78419-0.27383 0.93465-0.34981 0.40431-0.20417 0.51223-0.23757 2.0303-0.62846 1.6021-0.41252 2.0132-0.55193 2.4731-0.83855 0.50513-0.31483 2.4674-1.2104 2.5253-1.1525 0.031 0.03101-0.20378 0.87821-0.34384 1.2407-0.14687 0.38006-0.34888 0.73569-0.5298 0.9327-0.0576 0.06269-0.11849 0.19901-0.13537 0.30294-0.0481 0.29606-0.26162 0.69907-0.52027 0.98187-0.17924 0.19599-0.25293 0.32073-0.30298 0.5129-0.0848 0.32542-0.23107 0.55478-0.51396 0.8057-0.22371 0.19843-0.22634 0.20393-0.24773 0.5197-0.0272 0.40158-0.18025 0.71722-0.4725 0.97447-0.11756 0.10348-0.23032 0.18814-0.25059 0.18814-0.0203 0-0.10207 0.13669-0.18181 0.30375-0.17746 0.37184-0.46136 0.6565-0.79103 0.79314-0.23198 0.09615-0.25052 0.1154-0.27895 0.28953-0.0793 0.48614-0.39071 0.89181-0.80631 1.0505-0.15774 0.06024-0.24245 0.13114-0.33877 0.28353-0.21534 0.34067-0.74064 0.68724-1.1648 0.76848-0.11032 0.02113-0.18018 0.07717-0.264 0.21177-0.17738 0.28484-0.72321 0.63058-0.99552 0.63058-0.0476 0-0.11166 0.06258-0.1531 0.14948-0.11981 0.25124-0.31814 0.45101-0.55925 0.56328-0.1264 0.05886-0.25949 0.10722-0.29575 0.10747-0.0363 0.000228-0.24143 0.09088-0.45593 0.20142-0.37743 0.19449-0.70411 0.30729-1.0652 0.36779-0.10477 0.01755-0.24265 0.0914-0.34747 0.1861-0.0956 0.08635-0.21561 0.157-0.26674 0.157-0.0511 0-0.22304 0.06153-0.38202 0.13674-0.15897 0.07521-0.33653 0.13676-0.39457 0.13678-0.0606 0.00002-0.15323 0.05673-0.21764 0.13327-0.16964 0.20161-0.53985 0.36829-0.81802 0.36829-0.21113 0-0.25407 0.01844-0.43557 0.18708-0.33726 0.31334-0.56987 0.45082-0.84978 0.50222-0.41081 0.07544-1.9483 0.70346-2.028 0.82839-0.0816 0.12787-0.32395 0.81564-0.42691 1.2115-0.12745 0.49003-0.1377 0.83252-0.0445 1.4882 0.097 0.68268 0.243 2.0748 0.27874 2.6581l0.0316 0.5152 0.21055 0.10671c0.30987 0.15704 1.2412 0.78312 1.7379 1.1683 0.23822 0.18474 0.70498 0.60119 1.0372 0.92545l0.6041 0.58956v1.9209 1.9209l-0.16243 0.33893c-0.22497 0.46943-0.53649 0.8736-1.0624 1.3784-0.47746 0.45828-1.6599 1.4231-2.6153 2.1341l-0.58017 0.43174-0.002 0.20517c-0.006 0.62202-0.2059 1.5396-0.61593 2.8267-0.32263 1.0128-0.433 1.4324-0.433 1.6462 0 0.0935 0.0733 0.40255 0.16284 0.6867 0.24918 0.79051 0.42646 1.529 0.45818 1.9084l0.0287 0.34317-0.24214 0.31792c-0.5757 0.75585-1.0851 1.207-1.3629 1.207-0.0941 0-0.24851-0.12375-0.28279-0.2266-0.0131-0.0393-0.0686-0.0261-0.18911 0.045-0.11901 0.0702-0.20814 0.0918-0.2949 0.0713-0.13562-0.032-0.27415-0.0572-0.36438-0.0663-0.0317-0.003-0.0955-0.0681-0.14185-0.14426-0.0463-0.0761-0.21064-0.2324-0.36518-0.34725-0.283-0.2103-0.59893-0.6533-0.66779-0.93639-0.0212-0.0871 0.0431-0.33815 0.22194-0.86626 0.46056-1.3601 0.52707-1.7737 0.37722-2.3459-0.0403-0.15408-0.0734-0.36384-0.0734-0.46614 0-0.16652-0.22806-0.84103-0.31457-0.93039-0.0188-0.01943-0.22843 0.16522-0.46583 0.41034-0.7378 0.76179-1.1206 1.34-1.1685 1.7649-0.0585 0.51894 0.4895 1.6513 1.3432 2.7754 0.46356 0.61044 1.4309 1.5694 1.9861 1.9689 0.43044 0.30971 0.43962 0.32001 0.3179 0.35639-0.069 0.0206-0.455 0.0491-0.85789 0.0633-0.66523 0.0235-1.0491-0.005-1.4149-0.1042-0.0926-0.0251-0.0967-0.007-0.12273 0.53602-0.0309 0.64584-0.11544 1.0223-0.33087 1.4739-0.14978 0.31399-0.39998 0.66109-0.47653 0.66109-0.0215 0-0.0631-0.11797-0.0924-0.26216zm0.29345-0.86952c0.1479-0.28601 0.22231-0.86375 0.19914-1.5462-0.0122-0.35946-0.01-0.64761 0.005-0.64031 0.0152 0.007 0.13019 0.0667 0.25557 0.13208 0.3916 0.20409 0.70378 0.28649 1.0942 0.28882 0.20061 0.001 0.4018-0.0198 0.44709-0.0467 0.0729-0.0433 0.0547-0.0673-0.15958-0.21069-0.99783-0.66755-2.1708-2.3367-3.4622-4.9266-0.25944-0.52032-0.48487-0.94604-0.50097-0.94604-0.0772 0-0.14168 1.1128-0.11843 2.0442 0.0341 1.3661 0.16208 1.8481 0.74151 2.7927 0.14473 0.23595 0.39205 0.64024 0.5496 0.89842 0.33116 0.54269 0.60443 1.2105 0.75476 1.8444 0.058 0.24449 0.11034 0.44453 0.11637 0.44453 0.006 0 0.0409-0.0579 0.0775-0.12864zm3.2998-2.9972c0.0559-0.0391 0.13277-0.13146 0.17089-0.20516 0.0381-0.0737 0.0962-0.13401 0.1292-0.13401 0.0566 0 0.16572-0.18157 0.16572-0.27583 0-0.024 0.0809-0.11662 0.17971-0.20592 0.0988-0.0893 0.22516-0.25626 0.28073-0.37104 0.0946-0.19543 0.0976-0.23073 0.0476-0.55561-0.0294-0.19081-0.17884-0.7137-0.33211-1.162-0.33897-0.9914-0.33891-1.0423 0.003-2.0948 0.29613-0.9128 0.6054-2.0121 0.7398-2.6296 0.12408-0.57011 0.13255-1.1554 0.0366-2.5304-0.035-0.50152-0.0583-1.1273-0.0517-1.3906 0.007-0.2633-0.0115-0.60621-0.0402-0.76202-0.0447-0.24311-0.0408-0.31425 0.0272-0.50152 0.0578-0.15911 0.083-0.39336 0.0932-0.86472 0.0129-0.59413 0.025-0.67411 0.15045-0.98732 0.17611-0.43981 0.23387-0.76337 0.23387-1.31v-0.44225l-0.18752-0.16942c-0.42154-0.38083-0.94245-0.45427-1.4441-0.20359-0.34211 0.17096-0.71608 0.56316-0.78656 0.82491-0.0521 0.19342-0.003 1.1448 0.10271 1.9767 0.0508 0.40083 0.10423 4.0544 0.0741 5.0608-0.0275 0.91633-0.01 2.1804 0.0399 2.8267 0.0344 0.44914 0.0353 1.398 0.003 3.2018-0.0253 1.4099-0.0322 2.6369-0.0154 2.7266 0.0202 0.10767 0.0646 0.17676 0.13065 0.20337 0.13671 0.0551 0.13513 0.0552 0.24976-0.0251zm-0.7694-0.0542c0.17089-0.14046 0.20091-0.6717 0.17196-3.0433-0.0144-1.1786-0.0598-2.8815-0.10097-3.7842-0.0833-1.828-0.0969-2.9216-0.0464-3.7386 0.0201-0.3258 0.0154-0.64785-0.0116-0.79614-0.0349-0.19141-0.0292-0.32327 0.0245-0.56991 0.0882-0.40482 0.0968-1.4266 0.0144-1.7115-0.036-0.12428-0.0565-0.41189-0.052-0.72948 0.006-0.39966-0.0144-0.60561-0.0843-0.86626-0.0723-0.26956-0.0919-0.48671-0.0926-1.0258l-0.001-0.684-0.34-0.321c-0.79213-0.74792-1.5751-0.98984-1.9688-0.60831-0.23913 0.23178-0.30759 0.52693-0.27836 1.2001 0.0284 0.6536 0.15128 1.1171 0.48931 1.8453 0.27672 0.59612 0.30513 0.78164 0.33913 2.215 0.0143 0.60182 0.0455 1.2274 0.0694 1.3901 0.0354 0.24059 0.0289 0.34288-0.0344 0.54711-0.0613 0.19757-0.0779 0.4264-0.0779 1.0719 0 1.0167 0.0418 1.2268 0.53017 2.6672 0.4862 1.4339 0.58661 1.83 0.58785 2.3188 0.00061 0.29565 0.0239 0.44437 0.0927 0.59605 0.10944 0.24122 0.10343 0.28069-0.23631 1.5532-0.25411 0.95182-0.3222 1.4841-0.21115 1.6507 0.15078 0.22621 0.55724 0.6582 0.73122 0.77715 0.2122 0.14508 0.34801 0.15785 0.48461 0.0456zm2.9439-12.099c0.89671-0.59223 1.5727-1.377 1.8787-2.181 0.20115-0.52852 0.19668-0.58517-0.0654-0.82974-0.39382-0.36754-1.6188-1.2237-1.7509-1.2237-0.0212 0-0.0386 0.12041-0.0386 0.26758 0 0.38689-0.11281 0.97051-0.27875 1.4421-0.12295 0.34945-0.14734 0.49152-0.16437 0.95745-0.0119 0.32452-0.0499 0.63986-0.0935 0.77508-0.0869 0.26929-0.10878 1.1167-0.0289 1.1169 0.0275 0.000091 0.27126-0.14603 0.54173-0.32466zm3.6712-3.0011v-1.5022l-0.39657-0.41672c-0.65746-0.69088-1.589-1.3959-2.5476-1.9281-0.24887-0.13817-0.90387-0.45019-1.4555-0.69336-5.0255-2.2152-8.1174-4.3688-8.6707-6.0395l-0.0831-0.25076-0.012 1.6113-0.012 1.6113 0.22526 0.28076c0.48944 0.61003 1.2715 1.3034 2.0484 1.8159 0.65689 0.43343 1.0878 0.65868 2.0361 1.0642 2.873 1.2288 5.2591 2.5649 6.9604 3.8975 0.56908 0.44576 1.3524 1.2486 1.6347 1.6755 0.13682 0.20688 0.25415 0.37614 0.26072 0.37614 0.007 0 0.0119-0.676 0.0119-1.5022zm-1.319-0.58258c-0.23674-0.12244-0.33992-0.29231-0.33992-0.55958 0-0.66616 0.87718-0.93461 1.1966-0.36621 0.0549 0.09768 0.13049 0.18413 0.16797 0.19212 0.0546 0.01162 0.0449 0.04861-0.0484 0.18549-0.0641 0.09403-0.13633 0.17097-0.16051 0.17097-0.0242 0-0.0395-0.10168-0.0341-0.22596 0.0125-0.28798-0.1232-0.45793-0.36573-0.45793-0.18882 0-0.43901 0.23487-0.48805 0.45816-0.064 0.29153 0.1595 0.54488 0.48075 0.54488 0.21006 0 0.14546 0.11118-0.0735 0.12645-0.10476 0.0073-0.24357-0.02102-0.33516-0.06839zm-0.9037-0.70089c-0.10657-0.07548-0.19377-0.14744-0.19377-0.15991s0.0594-0.04337 0.13199-0.06868c0.19693-0.06865 0.62381-0.68154 0.60429-0.86761-0.0166-0.15797-0.003-0.15479 0.27816 0.06358 0.19547 0.152 0.21227 0.20402 0.0726 0.22471-0.13408 0.01985-0.70116 0.76062-0.63382 0.82796 0.0266 0.02657 0.0483 0.06473 0.0483 0.08479 0 0.07052-0.11592 0.03103-0.30775-0.10484zm-0.77507-0.56919c-0.26841-0.18129-0.29832-0.2464-0.11398-0.24811 0.10555-0.000973 0.16706-0.06196 0.38889-0.3856l0.26352-0.38444-0.11721-0.0768c-0.0949-0.0622-0.13893-0.0669-0.23147-0.02474-0.14449 0.06584-0.15556 0.06524-0.15556-0.0084 0-0.08778 0.21298-0.27422 0.28264-0.24742 0.0838 0.03225 0.85401 0.585 0.885 0.63514 0.0311 0.05029-0.10318 0.26543-0.16565 0.26543-0.0245 0-0.0445-0.05013-0.0445-0.1114 0-0.12924-0.17181-0.27328-0.24927-0.20899-0.0992 0.08234-0.48021 0.67241-0.48021 0.74372 0 0.04004 0.0205 0.08548 0.0456 0.10097 0.0642 0.03971 0.0567 0.11415-0.0114 0.11313-0.0313-0.000456-0.1647-0.07361-0.29635-0.16253zm-0.94831-0.63023c-0.23666-0.10308-0.3853-0.32165-0.38511-0.56627 0.00052-0.66038 0.80947-0.94596 1.1851-0.41839 0.054 0.0759 0.11722 0.12629 0.14038 0.11198 0.0654-0.04042 0.0496 0.10609-0.0275 0.25518-0.0913 0.1766-0.15836 0.17082-0.15857-0.01366-0.00043-0.33714-0.29691-0.57696-0.54276-0.43897-0.31424 0.17638-0.42107 0.61375-0.20313 0.83169 0.11824 0.11824 0.18946 0.138 0.43831 0.12159 0.15802-0.01042 0.16345 0.07757 0.008 0.13651-0.15578 0.05923-0.28713 0.05355-0.45522-0.01967zm-0.8609-0.51824c-0.24213-0.13386-0.31742-0.2383-0.17179-0.2383 0.12832 0 0.16152-0.21233 0.0506-0.3233-0.21325-0.21325-0.52557-0.12567-0.41525 0.11644 0.0666 0.14614 0.014 0.14991-0.22409 0.01609-0.20278-0.11397-0.21843-0.15474-0.0767-0.19974 0.0553-0.01755 0.31493-0.19332 0.57697-0.39061s0.49621-0.3587 0.52037-0.3587c0.0278 0 0.0294 0.14606 0.004 0.39894-0.0218 0.21942-0.0395 0.55794-0.0393 0.75228 0.00018 0.19434 0.00018 0.35286 0 0.35228-0.00018-0.000577-0.10149-0.05701-0.22516-0.12538zm0.0376-0.72075c0.0378-0.09852 0.0351-0.38381-0.004-0.38381-0.078 0-0.33277 0.21261-0.33305 0.27799-0.00028 0.06924 0.14518 0.16824 0.25697 0.17485 0.0287 0.0017 0.0646-0.02937 0.0798-0.06903zm-1.1354 0.10614c-0.15271-0.08452-0.20172-0.18417-0.20323-0.41316-0.002-0.23595-0.0698-0.41542-0.14121-0.3713-0.0242 0.01495-0.0739 0.09877-0.11046 0.18625-0.0523 0.12511-0.0549 0.17752-0.0124 0.24557 0.0893 0.14302 0.0139 0.14742-0.25624 0.01494-0.2654-0.13016-0.322-0.19784-0.16546-0.19784 0.13251 0 0.53503-0.80286 0.46153-0.92056-0.0999-0.15992-0.0603-0.16447 0.29021-0.03334 0.33267 0.12447 0.52531 0.28813 0.52531 0.44629 0 0.15662-0.10553 0.30753-0.2383 0.34078-0.0952 0.02384-0.10244 0.04749-0.0888 0.29016 0.009 0.16037 0.0405 0.28425 0.0803 0.3152 0.10194 0.07936-0.0207 0.16368-0.14117 0.09702zm0.11182-0.87431c0.0776-0.0935 0.0416-0.39414-0.0543-0.45426-0.10679-0.0669-0.21387 0.0019-0.32848 0.21102-0.075 0.13692-0.0796 0.17415-0.0286 0.23554 0.0751 0.09056 0.33859 0.09549 0.41144 0.0077zm-1.8059 0.11965c-0.25456-0.10349-0.27812-0.13534-0.16088-0.21746 0.0975-0.06832 0.41925-0.70083 0.41925-0.82427 0-0.03442-0.0249-0.10241-0.0553-0.15108s-0.0437-0.10006-0.0296-0.1142c0.0362-0.03624 0.66789 0.22666 0.77292 0.3217 0.11937 0.10803 0.11702 0.3993-0.004 0.52052-0.10859 0.1086-0.395 0.12299-0.52698 0.02648-0.0821-0.06006-0.0938-0.05111-0.16246 0.12449-0.0658 0.16835-0.0665 0.20059-0.006 0.29267 0.0842 0.12844 0.0289 0.13317-0.24665 0.02114zm0.64567-0.53938c0.12524-0.04806 0.1734-0.23982 0.0916-0.36468-0.10664-0.16274-0.18342-0.1313-0.28679 0.11744l-0.0936 0.22527 0.0989 0.01928c0.0544 0.0106 0.10239 0.02207 0.10661 0.02549 0.004 0.0034 0.0417-0.0068 0.0833-0.0228zm-1.6606 0.13412c-0.22967-0.12092-0.32999-0.28269-0.32999-0.53209 0-0.65501 0.79091-0.96291 1.1854-0.46146 0.11719 0.14898 0.13493 0.50446 0.0348 0.69693-0.1751 0.33652-0.56659 0.46698-0.89015 0.29661zm0.443-0.107c0.3082-0.18791 0.42805-0.72354 0.21056-0.94103-0.24912-0.24912-0.64768-0.01162-0.74543 0.4442-0.10087 0.4703 0.1683 0.72033 0.53487 0.49683zm-1.3055-0.33237c-0.0793-0.08439-0.0991-0.16088-0.0991-0.38196 0-0.37004-0.086-0.44957-0.22727-0.21015-0.079 0.13392-0.0901 0.18855-0.0508 0.25138 0.1109 0.17758 0.008 0.17091-0.29182-0.01895-0.21466-0.1359-0.22144-0.14591-0.11628-0.17162 0.0688-0.01681 0.15708-0.10555 0.22984-0.23096 0.065-0.11201 0.17319-0.2987 0.24045-0.41487l0.12229-0.21122-0.11446-0.12351c-0.14199-0.1532-0.16011-0.14011-0.47967 0.34663-0.21198 0.32289-0.23409 0.37804-0.18378 0.45858 0.0922 0.1476 0.015 0.15766-0.21407 0.02792-0.24453-0.13848-0.28386-0.22206-0.13518-0.28727 0.0571-0.02503 0.2101-0.20641 0.34008-0.40306 0.18473-0.27948 0.22845-0.37904 0.20025-0.45593-0.0604-0.16471-0.24911-0.1523-0.37171 0.02446-0.0575 0.0829-0.18497 0.24847-0.28326 0.36794-0.13948 0.16952-0.17247 0.24209-0.15027 0.33055 0.0384 0.15298-0.0313 0.1443-0.24952-0.03107-0.19797-0.1591-0.22408-0.22033-0.0939-0.22033 0.0796 0 0.3256-0.26621 0.32374-0.3503-0.001-0.04913-0.34486-0.33359-0.40314-0.33359-0.0249 0-0.0897 0.05641-0.14396 0.12537-0.0723 0.0919-0.0922 0.16492-0.0746 0.27356 0.0132 0.08151 0.008 0.14819-0.0112 0.14819-0.0508 0-0.46054-0.32489-0.46054-0.36514 0-0.01859 0.059-0.04559 0.13101-0.06 0.19158-0.03831 0.65861-0.66366 0.61762-0.82698-0.0398-0.15841 0.0387-0.14848 0.25665 0.03251 0.17682 0.1468 0.24529 0.29692 0.11212 0.24582-0.0695-0.02665-0.29823 0.18011-0.29503 0.26663 0.00092 0.02533 0.0881 0.11208 0.19377 0.19278l0.19206 0.14672 0.1301-0.12952c0.11322-0.11272 0.12309-0.1426 0.0761-0.23042-0.0297-0.0555-0.0426-0.11226-0.0288-0.12615 0.024-0.02404 0.28323 0.15567 0.43988 0.305 0.0404 0.0385 0.17244 0.12066 0.29345 0.18258 0.12101 0.06191 0.2289 0.14398 0.23975 0.18237 0.0109 0.03839 0.18696 0.15187 0.39134 0.25217 0.42202 0.20712 0.53564 0.34362 0.46232 0.55541-0.0269 0.07761-0.103 0.15431-0.19227 0.1937-0.14387 0.0635-0.14778 0.07273-0.14778 0.34954 0 0.17754 0.0202 0.29104 0.0537 0.30221 0.0665 0.02218 0.008 0.12649-0.0712 0.12649-0.0318 0-0.10237-0.04749-0.15689-0.10552zm0.25649-0.81545c0.13125-0.13125 0.0209-0.4924-0.1504-0.4924-0.15449 0-0.36374 0.43089-0.24559 0.50572 0.092 0.05829 0.33248 0.0502 0.39599-0.01331zm-3.3633-1.4417c-0.33463-0.18147-0.4427-0.5052-0.28051-0.84024 0.2353-0.48606 0.91212-0.53678 1.1423-0.08561 0.0514 0.10086 0.12745 0.20235 0.16889 0.22554 0.0669 0.03743 0.0605 0.06072-0.0567 0.20761-0.0726 0.091-0.15019 0.16545-0.1724 0.16545-0.0222 0.000001-0.0275-0.09373-0.0119-0.20829 0.0781-0.56997-0.47935-0.72946-0.79043-0.22614-0.19689 0.31858-0.0534 0.63104 0.31701 0.69026 0.10697 0.01711 0.18008 0.05175 0.17055 0.08082-0.0285 0.087-0.31949 0.08138-0.48689-0.0094zm9.0248 2.4197c-0.001-0.44426-0.0563-0.80486-0.13836-0.9037-0.032-0.03857-0.0997-0.02397-0.25609 0.0552-0.14145 0.07161-0.29011 0.10739-0.44423 0.10693-0.32127-0.000972-0.37651-0.0459-0.22705-0.18466 0.21335-0.1981 0.51809-0.62364 0.65725-0.9178 0.15392-0.32537 0.1749-0.59894 0.069-0.89924-0.18128-0.5138-0.12918-0.92627 0.31142-2.4657 0.32391-1.1317 0.51588-1.9416 0.5598-2.3619l0.0288-0.27505-0.22267 0.1061c-0.45653 0.21754-1.0995 0.25806-1.6132 0.10166l-0.20517-0.06246 0.31915-0.05511c0.4018-0.06938 0.81503-0.26793 1.1105-0.53358 0.12605-0.11333 0.43042-0.46574 0.67637-0.78312 0.73359-0.94665 1.3063-1.4816 1.5048-1.4054 0.0546 0.02093 0.0344 0.06502-0.0953 0.2086-0.0905 0.10013-0.16447 0.22223-0.16447 0.27133 0 0.22138 0.40016 0.3734 0.49862 0.18944 0.0419-0.07821 0.0894-0.0837 0.53958-0.06236l0.49368 0.0234 0.75002-0.3873c0.41251-0.21302 0.93115-0.4927 1.1525-0.62153 0.34724-0.20204 0.43583-0.23422 0.6449-0.23422 0.1333 0 0.38301-0.0434 0.55491-0.09645 0.68105-0.21017 1.1302-0.49296 3.8814-2.4438 0.50844-0.36053 1.0124-0.69322 1.12-0.73932 0.19569-0.08388 0.40913-0.29491 0.5-0.49435 0.0279-0.06111 0.14239-0.14661 0.26993-0.20147 0.12186-0.05242 0.28744-0.17228 0.36796-0.26634 0.16395-0.19154 0.42962-0.89562 0.3834-1.0161-0.043-0.11213-0.21683-0.09551-0.68792 0.06578-0.96755 0.33126-1.2093 0.55548-1.5338 1.4229-0.10363 0.277-0.55526 0.74948-0.91083 0.9529-0.26518 0.15171-2.4592 0.86861-2.9635 0.96833-0.4786 0.09464-0.8775 0.28032-1.173 0.54603-0.21417 0.19255-0.2484 0.20644-0.67749 0.27482-0.63936 0.10189-1.3354 0.27486-1.6661 0.41405l-0.28286 0.11905-0.68514-0.09967c-0.92456-0.1345-1.3563-0.07273-1.7864 0.25559l-0.20258 0.15463-0.62717-0.11551c-1.1424-0.21039-1.4795-0.32296-1.5617-0.52147-0.0296-0.07146-0.0469-0.26493-0.0384-0.42994 0.008-0.16502 0.008-0.29998-0.00004-0.29993-0.009 0.000045-0.13162 0.10389-0.27356 0.23075-0.37315 0.33352-0.85131 0.55968-1.1827 0.55938-0.15818-0.000137-0.32079-0.03137-0.41323-0.07935-0.0838-0.04351-0.1572-0.07247-0.16306-0.06435-0.006 0.0081-0.0569 0.09171-0.11348 0.18577-0.16722 0.27805-0.24093 0.30772-0.76458 0.30772-0.41849 0-0.48332-0.01138-0.62931-0.11045-0.41049-0.27856-1.2063-0.26611-2.1706 0.03397l-0.34608 0.10769-0.58857-0.19504c-0.66092-0.21901-1.1889-0.33769-1.5022-0.33769-0.24156 0-0.62422-0.19999-0.97535-0.50974-0.32446-0.28623-1.1959-0.68504-2.0776-0.95084-1.5359-0.46303-2.2405-0.92718-2.6816-1.7666-0.24157-0.45971-0.50303-0.78914-1.0437-1.3151-0.87369-0.84979-1.0675-0.82162-1.0317 0.14992 0.0115 0.3114 0.035 0.44076 0.0913 0.50235 0.0417 0.04563 0.15971 0.17342 0.26216 0.28399 0.10246 0.11056 0.18628 0.22766 0.18628 0.26021 0 0.03256 0.072 0.11649 0.16001 0.18651 0.088 0.07003 0.23368 0.25314 0.32374 0.40691 0.31677 0.5409 0.68335 0.88303 0.94615 0.88303 0.0676 0 0.31785 0.14724 0.62917 0.37018 0.5425 0.38849 1.1623 0.76964 1.2514 0.76964 0.0289 0 0.2345 0.16598 0.45688 0.36884 0.48596 0.4433 0.78532 0.65164 1.1151 0.77607 0.13566 0.05119 0.29796 0.14132 0.36065 0.20029 0.17514 0.16476 0.53052 0.32458 0.95699 0.43039 0.21289 0.05282 0.62323 0.19969 0.91185 0.32638 0.83268 0.3655 1.3132 0.54477 1.7786 0.66355 0.47007 0.11998 1.1398 0.19267 1.1398 0.12371 0-0.05994-0.12722-0.24276-0.28939-0.41584-0.18644-0.19899-0.0873-0.19338 0.34026 0.01925 0.23228 0.11552 0.43717 0.26748 0.66081 0.49012 0.30262 0.30127 0.75182 0.91939 0.81671 1.1238 0.0307 0.09657 0.61462 0.39139 1.4009 0.70726 0.24447 0.09821 0.44451 0.19066 0.44453 0.20544 0.00004 0.04068-0.22062 0.1327-0.3182 0.1327-0.0473 0-0.0988 0.0405-0.11453 0.09-0.039 0.12301-0.2412 0.27474-0.36606 0.27474-0.0564 0-0.16138 0.03065-0.23321 0.06811-0.0718 0.03746-0.18701 0.06824-0.25597 0.06839-0.14537 0.000319-0.15154 0.04002-0.0773 0.49773 0.0632 0.38981 0.20046 0.76931 0.32726 0.90515 0.16563 0.17743 0.45348 0.127 0.81698-0.14312 0.48915-0.36349 0.59615-0.20871 0.18091 0.26167-0.61574 0.6975-0.93639 1.6555-0.99497 2.9726l-0.0265 0.59556 0.3752 0.24068c0.33739 0.21642 1.5246 0.82491 1.6096 0.825 0.0188 0.000019 0.0342-1.9171 0.0342-4.2602 0-2.6409 0.0165-4.2704 0.0433-4.287 0.10783-0.06664 0.15916 0.21008 0.19002 1.0244 0.0176 0.46391 0.0563 0.96657 0.086 1.117 0.0625 0.31648 0.0328 1.2248-0.0492 1.5046-0.0394 0.13454-0.0463 0.79218-0.0262 2.5076 0.015 1.2789 0.0399 2.3868 0.0553 2.462 0.0262 0.12811 0.10497 0.17341 1.2435 0.71511 0.66854 0.31808 1.2309 0.57967 1.2497 0.58131 0.0188 0.0016 0.0337-0.19706 0.0331-0.44155zm-1.0724-4.7564c-0.19092-0.30243-0.52159-0.58431-0.89553-0.7634-0.38327-0.18355-0.45012-0.2932-0.23079-0.37854 0.28989-0.11279 0.85875 0.03648 1.092 0.28653 0.14837 0.15906 0.29101 0.51289 0.32 0.79377 0.0237 0.22988 0.0187 0.24734-0.0715 0.24734-0.0639 0-0.13703-0.06343-0.21422-0.1857zm-15.071-9.6394c-0.158-0.087-0.246-0.231-0.34-0.552-0.06-0.206-0.134-0.3268-0.328-0.5296-0.138-0.1444-0.289-0.2747-0.336-0.2896-0.232-0.0737-0.484-0.9205-0.296-0.9929 0.13168-0.05053 0.31245 0.05714 0.71758 0.42741 0.21791 0.19917 0.41714 0.36212 0.44272 0.36212 0.0256 0 0.0772 0.06155 0.11476 0.13678 0.0603 0.12098 0.0604 0.13678 0.0003 0.13678-0.10899 0-0.2467-0.08904-0.57599-0.37243-0.34676-0.29843-0.45726-0.33412-0.43498-0.14048 0.0118 0.10218 0.10301 0.18554 0.49315 0.45051l0.47872 0.32513 0.008 0.27934c0.006 0.18928 0.046 0.36183 0.12538 0.53524 0.0644 0.14075 0.11716 0.26369 0.11716 0.2732 0 0.03233-0.0681 0.01379-0.18724-0.05096zm27.542-0.242c0.002-0.31147 0.0572-0.41649 0.33073-0.62892 0.15109-0.11733 0.34354-0.24209 0.42766-0.27724 0.14872-0.06214 0.21307-0.19946 0.0935-0.19946-0.0327 0-0.1906 0.09233-0.35085 0.20517-0.30439 0.21435-0.45196 0.25143-0.54663 0.13736-0.0845-0.10178-0.0248-0.19474 0.15724-0.24501 0.0895-0.02472 0.22465-0.09701 0.30029-0.16066 0.15632-0.13154 0.39745-0.20978 0.64761-0.21016 0.16013-0.000228 0.17098 0.0085 0.17098 0.13834 0 0.2218-0.16197 0.48744-0.35828 0.58759-0.16791 0.08566-0.29255 0.21036-0.56692 0.56719-0.13479 0.17531-0.30617 0.22347-0.3053 0.0858zm-17.071 11.491 0.1307-0.64798-0.0854-0.21828c-0.33565-0.85743-0.4985-1.353-0.52869-1.6089-0.0386-0.32721-0.13332-0.72948-0.17175-0.72948-0.0554 0-0.55477 0.40133-0.84742 0.68107-0.52308 0.50002-0.81346 1.0105-0.82253 1.4459-0.005 0.23037-0.0141 0.2197 0.70237 0.80236 0.44517 0.36201 1.4221 1.0023 1.4614 0.95783 0.0168-0.01903 0.0894-0.32619 0.16132-0.68258zm-2.1746-3.1908c0.11026-0.0642 0.46393-0.38017 0.78592-0.70216l0.58543-0.58543-0.0286-0.28637c-0.0157-0.1575-0.0333-0.29224-0.0391-0.29941-0.006-0.0072-0.27473 0.24998-0.59772 0.57145s-0.77704 0.73502-1.009 0.919-0.42174 0.35354-0.42174 0.3768c0 0.07065 0.28885 0.17483 0.41034 0.14801 0.0627-0.01384 0.2042-0.07769 0.31447-0.14189zm1.0059 0.07866c0.14634-0.1042 0.29672-0.43133 0.34117-0.74217 0.0366-0.25586-0.004-0.27277-0.1483-0.06131-0.11736 0.17237-0.6196 0.66587-0.76097 0.74772-0.0784 0.04537-0.0816 0.05923-0.0228 0.09853 0.11814 0.07899 0.45404 0.05468 0.5909-0.04277zm8.5618 0.06116c0.1802-0.04829 0.12577-0.19008-0.11398-0.29696-0.40599-0.18099-0.44461-0.21112-0.59955-0.46772-0.0853-0.1412-0.16407-0.24767-0.17515-0.2366-0.0111 0.01107-0.0583 0.19094-0.105 0.39969-0.0929 0.41554-0.0889 0.42958 0.16162 0.55906 0.1381 0.07139 0.63047 0.09655 0.83206 0.04253zm1.1512-0.47218c0.0975-0.06214 0.0198-0.17222-0.25163-0.3564-0.12207-0.08285-0.25613-0.20683-0.2979-0.27551-0.0418-0.06868-0.13235-0.16184-0.20129-0.20701-0.13368-0.08759-0.36493-0.54281-0.50635-0.99679-0.0449-0.14419-0.10621-0.26216-0.13619-0.26216-0.0619 0-0.38531 0.40893-0.4868 0.6155-0.1577 0.32098 0.26698 0.96489 0.84329 1.2786 0.37269 0.20288 0.88141 0.30284 1.0369 0.20374zm-11.408-0.31481c0.46865-0.23658 1.3969-1.0575 1.6741-1.4806 0.1484-0.2265 0.0107-0.47843-0.29918-0.54737-0.10313-0.02294-0.13839 0.0072-0.30556 0.26149-0.33296 0.50643-1.0904 1.1355-1.8463 1.5335-0.11899 0.06265-0.21635 0.1275-0.21635 0.14412s0.0659 0.08568 0.14646 0.15346c0.12754 0.10732 0.17417 0.11996 0.36088 0.09784 0.11793-0.01397 0.33659-0.08707 0.48592-0.16244zm12.468-0.24172c0.2422-0.13335 0.2867-0.29262 0.0939-0.33594-0.52019-0.11686-0.72874-0.23448-1.0675-0.60209-0.13541-0.14692-0.31802-0.39218-0.40578-0.54501l-0.15958-0.27787-0.24521-0.01559c-0.28827-0.01833-0.30199 0.000182-0.26511 0.35755 0.0609 0.58982 0.619 1.2828 1.2116 1.5043 0.22406 0.08376 0.60012 0.04544 0.83771-0.08537zm-13.302-0.28469c0.46127-0.22904 1.0093-0.67222 1.3803-1.1163 0.31572-0.37784 0.32003-0.50085 0.0242-0.68849-0.11776-0.07468-0.23803-0.13577-0.26729-0.13577-0.0292 0-0.15816 0.14116-0.28645 0.31368-0.53573 0.72044-1.5181 1.3912-2.1843 1.4913-0.21502 0.03231-0.24643 0.10053-0.0912 0.19805 0.39288 0.2468 0.8416 0.22712 1.4248-0.06246zm14.647-0.2251c0.19953-0.10318 0.18593-0.18387-0.046-0.27275-0.52603-0.20162-1.2964-0.82901-1.4943-1.217-0.0505-0.09905-0.10685-0.18001-0.12515-0.17992-0.089 0.000456-0.71673 0.27211-0.73156 0.31661-0.0259 0.07777 0.34909 0.68241 0.56918 0.9177 0.23265 0.24873 0.57729 0.44605 0.87232 0.49946 0.31022 0.05615 0.78447 0.02434 0.95549-0.06409zm-16.262-0.0558c0.50632-0.14903 1.0437-0.47074 1.4673-0.87838 0.21943-0.21118 0.4605-0.47688 0.53572-0.59043 0.15767-0.23804 0.18443-0.49386 0.057-0.5446-0.13817-0.05501-0.48101-0.0383-0.50193 0.02446-0.0441 0.13225-0.39719 0.5275-0.68425 0.7659-0.36007 0.29905-1.0131 0.69459-1.4806 0.89685-0.18202 0.07874-0.34121 0.15121-0.35374 0.16103-0.0125 0.0098 0.0348 0.0674 0.10512 0.12796 0.15593 0.1342 0.47828 0.14823 0.85545 0.03722zm-0.60914-0.58503c0.17031-0.08986 0.45125-0.26978 0.62431-0.39982 0.46004-0.3457 1.1215-0.98936 1.1215-1.0913 0-0.05399-0.0812-0.13854-0.21409-0.22278-0.11775-0.07468-0.22593-0.13577-0.24039-0.13577-0.0145 0-0.14894 0.11479-0.29883 0.2551-0.35663 0.33382-0.99558 0.75388-1.4077 0.92544-0.33791 0.14067-1.0801 0.36961-1.1982 0.36961-0.0452 0-0.0617 0.03918-0.0519 0.12315 0.0193 0.16462 0.2277 0.28136 0.59271 0.332 0.46722 0.06482 0.72586 0.02729 1.0725-0.15562zm17.903 0.08753c0.5-0.13023 0.88714-0.34147 0.62583-0.34147-0.18935 0-0.68837-0.1913-0.9644-0.36971-0.32428-0.20959-0.73352-0.60735-0.9528-0.92606-0.079-0.11484-0.16255-0.20879-0.18565-0.20879-0.0556 0-0.74768 0.45172-0.76487 0.49922-0.0427 0.11798 0.90643 1.1123 1.2216 1.2798 0.27144 0.14422 0.63285 0.16797 1.0203 0.06705zm1.4007-0.66693c0.0852-0.02855 0.202-0.09448 0.25946-0.14651 0.18266-0.16539 0.11712-0.2481-0.34852-0.43983-0.53207-0.21908-1.0875-0.54939-1.3993-0.83212-0.2338-0.21204-0.24503-0.21656-0.5376-0.21656-0.25164 0-0.31901 0.01759-0.42674 0.11145l-0.12792 0.11145 0.43313 0.43947c0.49635 0.50362 0.8696 0.8068 1.1499 0.934 0.22451 0.1019 0.74819 0.12219 0.99759 0.03866zm-20.743-0.15034c0.55079-0.14335 1.0021-0.32869 1.3294-0.54596 0.26393-0.17518 0.71583-0.63938 0.71583-0.73531 0-0.03154-0.15613-0.06909-0.39765-0.09563l-0.39766-0.0437-0.33912 0.24331c-0.58065 0.4166-1.2647 0.69936-1.9317 0.79848-0.22415 0.03331-0.35334 0.07334-0.35334 0.10947 0 0.11127 0.10302 0.28061 0.19897 0.32708 0.17811 0.08624 0.72531 0.05936 1.1752-0.05774zm21.868-0.71722c0.17673-0.05423 0.42058-0.24854 0.42058-0.33516 0-0.03747-0.0985-0.08155-0.25466-0.11397-0.57945-0.12029-1.0404-0.31484-1.424-0.60107l-0.24252-0.18093-0.33879 0.14888c-0.18633 0.08189-0.33878 0.16615-0.33878 0.18726 0 0.08437 0.39077 0.45488 0.65458 0.62065 0.55891 0.35119 1.009 0.43224 1.5236 0.27434zm-22.411-0.17489c0.44565-0.14448 1.5063-0.67466 1.5047-0.75216-0.00061-0.02508-0.1487-0.10955-0.3293-0.18772l-0.32835-0.14212-0.11504 0.10661c-0.25635 0.23758-1.0135 0.41737-1.9397 0.46061-0.65465 0.03057-0.67716 0.04689-0.43265 0.31371 0.32349 0.35298 0.939 0.42843 1.6403 0.20106zm23.817-0.67491c0.17517-0.08947 0.42747-0.33514 0.42747-0.41623 0-0.0196-0.22055-0.04761-0.49012-0.06225-0.63071-0.03424-0.94688-0.13118-1.4143-0.43365l-0.24032-0.1555-0.36379 0.22153c-0.20008 0.12184-0.36378 0.23547-0.36378 0.25251 0 0.05219 0.31609 0.29502 0.54911 0.42184 0.55582 0.30252 1.4764 0.38592 1.8958 0.17175zm-24.557-0.14837c0.51218-0.08234 1.0486-0.38854 1.0486-0.59854 0-0.04713-0.11947-0.17584-0.27773-0.29922-0.47252-0.36838-0.4461-0.361-0.70459-0.19699-0.36593 0.23217-0.87861 0.35969-1.7646 0.43893-0.34629 0.03097-0.37397 0.07135-0.19482 0.28426 0.27678 0.32894 1.124 0.49522 1.8932 0.37157zm14.379-0.98729c0.17873-0.1611 0.19258-0.19292 0.28398-0.65235 0.18136-0.91169 0.51121-1.3947 1.192-1.7455 0.45908-0.23656 1.1773-0.49353 1.607-0.57498 1.7691-0.33529 5.0534-1.2088 7.7251-2.0547 3.6575-1.1579 5.4512-1.936 5.4512-2.3645 0-0.1257-0.0115-0.12431-0.29081 0.0351-0.32027 0.18281-1.3782 0.64699-1.8666 0.819-0.52098 0.18348-0.96856 0.29649-1.7347 0.43799-0.62484 0.1154-1.2899 0.32083-3.2431 1.0017-1.878 0.65466-2.8306 0.92179-5.1292 1.4383-2.0796 0.46734-2.671 0.68134-3.1672 1.1461-0.35982 0.33698-0.53885 0.64364-0.78049 1.3369-0.23796 0.6827-0.34791 0.91083-0.53281 1.1054-0.14356 0.1511-0.13964 0.16128 0.0808 0.21006 0.183 0.04049 0.22026 0.02774 0.40481-0.1386zm11.16-0.0089c0.35143-0.11154 0.58558-0.30281 0.58558-0.47833v-0.11849l-0.44453-0.000365c-0.54479-0.000456-1.1809-0.07008-1.4326-0.15679l-0.18789-0.06473-0.36947 0.27752c-0.49003 0.36808-0.46928 0.34432-0.36701 0.42025 0.081 0.06013 0.46769 0.17715 0.74983 0.22691 0.29106 0.05133 1.1708-0.01225 1.4661-0.10597zm-16.492-0.24038c-0.0426-0.0832-0.13969-0.23854-0.21578-0.3452-0.13708-0.19217-0.13786-0.19659-0.0849-0.48398 0.11716-0.63587 0.0626-0.86542-0.29935-1.2598-0.532-0.5796-1.2338-0.82504-4.4344-1.5509-3.1131-0.70601-8.5689-2.6979-10.595-3.8684-0.22302-0.12881-0.41319-0.2342-0.4226-0.2342-0.0326 0 0.0435 0.25137 0.1241 0.41034 0.0977 0.19249 0.40377 0.49195 0.67328 0.65863 0.31952 0.19761 0.85076 0.39064 1.5808 0.5744 0.45676 0.11497 0.98673 0.29584 1.5957 0.5446 2.8976 1.1836 3.8995 1.5487 4.6344 1.6887 0.60033 0.11439 1.0046 0.2312 2.5236 0.72909 1.63 0.53428 1.9472 0.6251 2.6216 0.75048 0.71028 0.13206 1.0281 0.25031 1.2884 0.47942 0.30921 0.27218 0.40583 0.54029 0.40231 1.1163-0.003 0.54111 0.0267 0.60282 0.4229 0.86963 0.25634 0.17263 0.30388 0.15232 0.18535-0.07919zm6.3409 0.08708c0.35621-0.12006 1.3567-0.15776 1.8237-0.06872l0.31915 0.06086 1.0619-0.2572c0.7583-0.18367 1.0907-0.28419 1.1626-0.3516 0.16795-0.15737 0.75502-0.40816 1.2983-0.55463 0.97447-0.26271 3.172-1.0227 3.3503-1.1587 0.22565-0.17212 0.41856-0.47373 0.57-0.89122 0.0982-0.27083 0.17533-0.39461 0.35707-0.57336 0.44093-0.43368 1.3713-0.90799 2.2279-1.1358 1.0658-0.28348 2.3503-0.93794 2.3503-1.1975 0-0.14998-0.55739 0.02987-3.2371 1.0445-2.9802 1.1284-3.8977 1.4484-4.1532 1.4484-0.26156 0-0.80278 0.13875-2.1172 0.54279-1.5078 0.46346-1.931 0.56291-2.2244 0.52269-0.39375-0.05397-1.3469 0.23064-2.1966 0.65592-0.8902 0.44552-0.98752 0.59008-1.0173 1.511-0.0174 0.53664-0.014 0.56347 0.0664 0.53002 0.0466-0.01938 0.20776-0.07673 0.35822-0.12744zm-1.894-0.02178c0.10847-0.09977 0.16053-0.2185 0.25491-0.58131 0.2246-0.8635 0.74309-1.7594 1.2501-2.1602 0.12383-0.09788 0.34137-0.21452 0.48344-0.25921s0.41486-0.17512 0.60622-0.28986c0.32516-0.19497 0.34884-0.2198 0.36207-0.37959 0.008-0.09404 0.003-0.17097-0.011-0.17097-0.0138 0-0.12279 0.07493-0.24212 0.1665-0.12 0.0894-0.307 0.2041-0.416 0.2528-0.319 0.1421-0.458 0.0894-0.914-0.3465-0.216-0.2057-0.499-0.4415-0.629-0.524-0.472-0.2989-1.321-0.5999-1.9-0.6731l-0.23411-0.02961 0.20742 0.16062c0.77302 0.59861 1.0321 1.8071 0.6816 3.1797-0.0666 0.26094-0.0907 0.50216-0.0895 0.89652 0.002 0.57835 0.0394 0.71143 0.23137 0.81784 0.15684 0.08693 0.20525 0.07858 0.35782-0.06176zm-3.5543-0.05699c0.12458-0.12458 0.11753-0.36402-0.0251-0.85417-0.16569-0.56923-0.24784-1.178-0.24815-1.8388-0.00061-1.1253 0.18402-1.5435 0.89705-2.033 0.24447-0.16782 0.24994-0.17586 0.12944-0.19018-0.18934-0.0225-0.84017 0.07367-1.3169 0.19459-0.88461 0.2244-1.5145 0.55035-1.9982 1.034-0.1708 0.17079-0.31054 0.3294-0.31054 0.35245s0.11724 0.05656 0.26053 0.07446c0.86006 0.10746 1.4665 0.47178 1.7279 1.0381 0.12871 0.2788 0.13154 0.30175 0.1337 1.0827 0.002 0.86043 0.0452 1.0936 0.21592 1.176 0.17104 0.08258 0.43326 0.06482 0.53426-0.03619zm-10.099-0.10956 0.18237-0.08015-0.29635-0.27333-0.29635-0.27333-0.61131 0.02624c-0.33622 0.01443-1.0389 0.02624-1.5616 0.02624-0.90511 0-0.95023 0.0041-0.95023 0.08713 0 0.22204 0.54453 0.46459 1.231 0.54834 0.18807 0.02294 0.74202 0.0366 1.231 0.03036 0.73117-0.0093 0.92145-0.02559 1.0714-0.0915zm7.8875 0.07042 0.27356-0.02925v-0.54862c0-0.49613-0.0109-0.56967-0.11399-0.76862-0.22049-0.4256-0.29263-0.45398-3.4878-1.3722-3.0068-0.86403-5.9136-1.6696-5.9742-1.6557-0.0418 0.0096-0.0109 0.09653 0.10217 0.28733 0.0891 0.15046 0.21234 0.40666 0.27378 0.56933 0.12103 0.32047 0.48126 0.79744 0.82998 1.099 0.31866 0.27554 0.67931 0.43164 1.577 0.68257 0.94435 0.26398 1.6186 0.56753 2.4131 1.0865 0.61552 0.40202 1.1561 0.57482 2.0549 0.65684 0.31324 0.02859 1.7647 0.02351 2.0517-0.0072zm4.2563-0.68695c0.26214-0.13373 0.67161-0.55846 0.70648-0.73279 0.0495-0.2477 0.0331-1.8486-0.0216-2.1065-0.1582-0.74562-0.67-1.1418-1.3792-1.0677-0.60198 0.06292-1.0042 0.44409-1.1194 1.0608l-0.0391 0.20912 0.18888-0.02791c0.10389-0.01535 0.3434-0.04097 0.53225-0.05693l0.34336-0.02902 0.1537 0.17506 0.15371 0.17506-0.0291 0.93394c-0.0266 0.8559-0.0213 0.95988 0.0634 1.2443 0.10433 0.35032 0.15083 0.37349 0.44666 0.22256zm14.565-0.04571c0.0671-0.02552 0.23821-0.16072 0.38017-0.30043 0.33779-0.33243 0.29927-0.37689-0.24247-0.27987-0.63705 0.11408-0.96365 0.13965-1.0344 0.08097-0.0344-0.02851-0.17849-0.07329-0.32031-0.0995l-0.25785-0.04767-0.34111 0.28215c-0.18761 0.15519-0.3411 0.30057-0.3411 0.32308s0.0462 0.06015 0.10258 0.08365c0.13263 0.05523 1.8932 0.01891 2.0544-0.04238zm-15.407-0.0298c0.0459-0.11967 0.0311-0.59708-0.0228-0.73418-0.0277-0.07059-0.0683-0.28199-0.0902-0.46977-0.0602-0.51717-0.30984-0.82005-0.58077-0.70464-0.0421 0.01792-0.12776 0.03493-0.19045 0.0378-0.11393 0.0052-0.11398 0.0054-0.10445 0.43836 0.0174 0.78965 0.045 0.91256 0.24803 1.1058 0.17277 0.16444 0.55222 0.39217 0.66081 0.39659 0.0287 0.0012 0.0646-0.03033 0.0798-0.07zm-12.423-0.23011c-0.0608-0.06592-0.18234-0.14988-0.27011-0.18656-0.0878-0.03669-0.25352-0.14515-0.36835-0.24104l-0.20878-0.17433-0.38393 0.03418c-0.36145 0.03218-1.2386-0.0038-1.6698-0.06845-0.18043-0.02706-0.19759-0.02044-0.24067 0.09287-0.0255 0.0671-0.0464 0.16407-0.0464 0.21547 0 0.14182 0.30199 0.3942 0.49644 0.41487 0.0906 0.0096 0.75809 0.02096 1.4834 0.02517l1.3187 0.0077-0.11053-0.11986zm27.978-0.69348c0.41705-0.04387 0.66141-0.15598 1.0809-0.49585 0.28436-0.2304 0.32956-0.35867 0.1429-0.40552-0.14901-0.0374-0.5907 0.01315-0.71926 0.08232-0.0538 0.02894-0.23436 0.05547-0.40129 0.05897-0.2981 0.0062-0.30802 0.01049-0.55813 0.23907-0.14004 0.128-0.31463 0.2459-0.38798 0.26201-0.14419 0.03167-0.20387 0.12531-0.16264 0.25521 0.0317 0.0998 0.16088 0.12288 0.43201 0.07715 0.11284-0.01903 0.37092-0.05204 0.57351-0.07335zm-29.147-0.23964c0.0252-0.04 0.0329-0.12422 0.0171-0.18715-0.0267-0.10637-0.0536-0.1165-0.38285-0.14401-0.66119-0.05525-1.6138-0.36388-2.2086-0.71558-0.16738-0.09896-0.31613-0.17993-0.33055-0.17993-0.0558 0-0.0203 0.25941 0.0595 0.43502 0.24243 0.53369 1.184 0.89036 2.3031 0.87236 0.39913-0.0064 0.50564-0.02227 0.54243-0.08072zm-0.501-0.829c0.029-0.079-0.082-0.3359-0.255-0.5913-0.124-0.1829-0.169-0.2156-0.296-0.2166-0.194-0.0015-0.754-0.1176-1.141-0.2365-0.409-0.1254-0.89-0.3639-1.183-0.5857-0.132-0.1001-0.25-0.182-0.262-0.182-0.0498 0-0.0143 0.2175 0.0634 0.38851 0.21895 0.48197 1.2492 1.1053 2.2875 1.384 0.39419 0.10581 0.75562 0.12411 0.78621 0.03981zm30.648-0.11366c0.19303-0.12354 1.0258-0.91566 1.0258-0.97572 0-0.01944-0.13848 0.03396-0.30775 0.11867-0.16926 0.08471-0.46675 0.18852-0.66109 0.2307-0.19434 0.04217-0.35335 0.09224-0.35335 0.11127s-0.0832 0.12909-0.18483 0.24458c-0.15363 0.17453-0.17681 0.22498-0.1373 0.2988 0.0261 0.04885 0.0734 0.09946 0.10505 0.11247 0.10052 0.04135 0.32509-0.02022 0.51344-0.14077zm-21.541-0.5366c0-0.08448-0.16297-0.38586-0.29732-0.54981l-0.159-0.193-0.001-0.5394c-0.001-0.6781-0.066-1.1586-0.167-1.2342-0.125-0.0931-0.355-0.1146-0.625-0.0585l-0.25542 0.05303v0.1724c0 0.11076 0.0401 0.22778 0.11215 0.32732 0.0617 0.08521 0.15455 0.23209 0.20637 0.32641 0.0979 0.17822 0.22786 0.90155 0.22833 1.2708l0.00027 0.21134 0.44453 0.11483c0.50697 0.13096 0.51292 0.13211 0.51292 0.09932zm22.012-0.55029c0.35062-0.17154 1.1473-0.70974 1.3172-0.88989 0.16386-0.17368 0.25254-0.37036 0.21321-0.47285-0.0391-0.10183-0.0811-0.08888-0.46203 0.14236-0.50011 0.30359-1.0287 0.529-1.4695 0.6267-0.11002 0.02438-0.11417 0.03864-0.11933 0.40946l-0.005 0.3842 0.14143-0.04056c0.0778-0.02231 0.25074-0.09404 0.38434-0.15941zm-13.2-1.9c-0.186-0.1962-0.63-0.5013-0.993-0.6829-0.697-0.3484-1.502-0.5304-2.513-0.5678-1.3546-0.05013-2.5113 0.1996-3.676 0.79363l-0.49012 0.24999v1.0219c0 0.56206 0.01 1.0219 0.0212 1.0219 0.0117 0 0.20013-0.11661 0.41878-0.25914 0.68869-0.44891 1.6531-0.79915 2.5403-0.92255 0.80778-0.11235 1.9638-0.04125 2.6732 0.16442 0.63649 0.18453 1.3737 0.57452 1.8782 0.99355l0.24186 0.2009 0.0123-0.93998 0.0123-0.93997-0.12633-0.13351zm-0.34289 1.35c-0.231-0.1703-0.257-0.2172-0.148-0.2591 0.0452-0.01734 0.0684-0.0888 0.0684-0.21069 0-0.16336-0.0274-0.21033-0.23936-0.41087-0.13165-0.12454-0.26306-0.22683-0.29201-0.22732-0.0811-0.0014-0.022 0.36501 0.083 0.5143 0.13729 0.19528 0.0822 0.22512-0.13977 0.07574-0.11034-0.07425-0.23857-0.135-0.28495-0.135-0.10196 0-0.1089-0.05962-0.0159-0.13678 0.0513-0.04262 0.0684-0.15715 0.0684-0.45973 0-0.35842-0.0113-0.41383-0.10258-0.50113l-0.10259-0.09816 0.26211 0.02034c0.26846 0.02084 0.36538 0.06173 0.27946 0.11791-0.0772 0.05049-0.11038 0.30896-0.0492 0.38331 0.10672 0.12964 0.47392 0.39942 0.50346 0.36988 0.0589-0.05892 0.0284-0.2698-0.0639-0.44209-0.0516-0.09635-0.0861-0.18298-0.0766-0.19251 0.01-0.0095 0.12342 0.03884 0.25309 0.10747 0.22722 0.12027 0.28702 0.20219 0.19094 0.26157-0.0262 0.01621-0.0456 0.25678-0.0456 0.56645 0 0.46924 0.0117 0.55314 0.0912 0.6542 0.17931 0.22796 0.0661 0.22928-0.23936 0.0028zm-7.0996-0.2318c0.00091-0.01881 0.0316-0.07402 0.0684-0.1227 0.0464-0.0614 0.0669-0.20502 0.0669-0.46893 0-0.3663-0.003-0.37862-0.0912-0.33163-0.13282 0.07108-0.11808-0.02502 0.024-0.15674 0.22507-0.20859 0.54765-0.27472 0.36715-0.07527-0.0436 0.04824-0.0726 0.13556-0.0643 0.19405 0.0129 0.09125 0.0377 0.10455 0.17463 0.09369 0.31682-0.02512 0.35921-0.04823 0.39007-0.21272 0.0346-0.18425 0.002-0.25335-0.1192-0.25335-0.14432 0-0.10065-0.05947 0.15901-0.21657 0.33397-0.20205 0.41109-0.19994 0.27516 0.0075-0.0541 0.08259-0.0671 0.21442-0.057 0.5797 0.0116 0.42099 0.0218 0.47133 0.0928 0.4594 0.0439-0.0074 0.0798 0.0048 0.0798 0.02713 0 0.08632-0.18369 0.20029-0.3612 0.2241-0.17951 0.02408-0.23123-0.013-0.14416-0.10333 0.0375-0.03886 0.0669-0.23755 0.0543-0.36569-0.007-0.0712-0.45917-0.0044-0.50962 0.07535-0.0805 0.1271-0.0326 0.36101 0.0738 0.36101 0.12143 0 0.11412 0.09249-0.0108 0.13718-0.0705 0.0252-0.18258 0.07645-0.24914 0.1139-0.13151 0.07398-0.22177 0.08792-0.21948 0.03388zm5.3215-0.59254c-0.258-0.115-0.347-0.239-0.17-0.239 0.0854 0 0.0912-0.0304 0.0912-0.47786v-0.47786l-0.12188-0.03059c-0.0993-0.02491-0.14118-0.0064-0.22594 0.09993-0.12599 0.158-0.18264 0.12093-0.12488-0.0817 0.0512-0.17972 0.17231-0.20604 0.58518-0.12719 0.60891 0.11628 0.617 0.1205 0.617 0.32194 0 0.09934-0.0112 0.18061-0.025 0.18061s-0.0702-0.04963-0.12538-0.1103c-0.0552-0.06066-0.14656-0.1236-0.20298-0.13985-0.10198-0.02938-0.10259-0.02657-0.10259 0.47399 0 0.4868 0.004 0.50602 0.11398 0.57822 0.0627 0.04108 0.11399 0.09284 0.11399 0.11503 0 0.0674-0.14599 0.03802-0.42174-0.08486zm-3.9096-0.03762c0-0.01433 0.0308-0.05683 0.0684-0.09444 0.05-0.05006 0.0684-0.17222 0.0684-0.45574 0-0.3666-0.005-0.3858-0.0912-0.35841-0.12873 0.04086-0.11937-0.08394 0.0114-0.15185 0.11215-0.05824 0.58869-0.22741 0.75228-0.26706 0.0938-0.02273 0.10258-0.0088 0.10258 0.16283 0 0.18474-0.0689 0.25312-0.12029 0.1193-0.0323-0.08406-0.2437-0.08953-0.35363-0.0091-0.12411 0.09075-0.0828 0.32373 0.061 0.34403 0.0682 0.0096 0.13433-0.01559 0.1705-0.06506 0.0786-0.1075 0.1085-0.06781 0.11742 0.15591 0.009 0.23349-0.0246 0.26816-0.14479 0.14798-0.0522-0.05224-0.13601-0.09499-0.18617-0.09499-0.0752 0-0.0912 0.03039-0.0912 0.17325 0 0.32959 0.23573 0.38521 0.48397 0.11419l0.15433-0.16848v0.12496c0 0.07189-0.0475 0.1725-0.11191 0.23687-0.10136 0.10136-0.14865 0.11191-0.50152 0.11191-0.21429 0-0.38961-0.01172-0.38961-0.02605zm2.8729-0.1613c-0.187-0.0504-0.346-0.0979-0.353-0.1049-0.007-0.0071 0.0144-0.06532 0.0477-0.12948 0.0485-0.09346 0.0701-0.60666 0.0361-0.86043-0.002-0.01588-0.05-0.04186-0.10644-0.05772-0.1398-0.0393-0.0365-0.09703 0.24672-0.13788 0.22485-0.03243 0.3114 0.01622 0.19731 0.11091-0.0517 0.04288-0.0679 0.1631-0.0679 0.50338 0 0.42864 0.005 0.45092 0.12013 0.54153 0.15073 0.11856 0.20206 0.11829 0.35484-0.0019 0.14651-0.11524 0.19619-0.08405 0.13678 0.08587-0.0561 0.16046-0.17224 0.17018-0.61115 0.05112zm-0.87826 0.01736c-0.17391-0.01819-0.2235-0.07366-0.10612-0.1187 0.091-0.03493 0.0381-0.20304-0.0905-0.28729-0.0576-0.03772-0.1728-0.06205-0.25607-0.05406-0.12701 0.01219-0.15373 0.03477-0.16586 0.14017-0.009 0.08193 0.0104 0.13518 0.057 0.15305 0.14332 0.05499 0.0659 0.10884-0.15652 0.10884-0.22438 0-0.27108-0.02983-0.18362-0.11729 0.0244-0.02439 0.16288-0.27982 0.30776-0.56763 0.15236-0.30269 0.29105-0.52328 0.32898-0.52328 0.0377 0 0.11173 0.11632 0.17413 0.27356 0.20488 0.51633 0.38679 0.88352 0.44965 0.90764 0.0346 0.01328 0.0629 0.04531 0.0629 0.07117 0 0.04632-0.0845 0.04909-0.42173 0.01381zm-0.17-0.6069c0-0.11609-0.12396-0.36248-0.18237-0.36248-0.0625 0-0.19322 0.27069-0.16556 0.34277 0.0129 0.03354 0.081 0.06965 0.15148 0.08024 0.0704 0.01059 0.14345 0.02233 0.16226 0.02608 0.0188 0.0038 0.0342-0.03522 0.0342-0.08662zm6.0638 2.008c0-0.1403 0.0276-0.2064 0.11885-0.28496 0.0654-0.05625 0.18119-0.19461 0.25737-0.30745 0.0762-0.11284 0.20046-0.27117 0.27617-0.35184l0.138-0.1467-0.134-0.2169c-0.178-0.2867-0.488-0.4789-0.818-0.5063l-0.24873-0.02063v0.98255c0 1.0801-0.0175 1.0168 0.28496 1.0295 0.11679 0.0049 0.12538-0.0072 0.12538-0.17738zm-20.498 0.0117c-0.016-0.0689-0.063-0.1963-0.104-0.283-0.071-0.1499-0.092-0.1604-0.428-0.2161-0.625-0.1035-1.239-0.4108-1.85-0.925-0.184-0.1548-0.346-0.2707-0.359-0.2575-0.0354 0.03542 0.10549 0.42402 0.23208 0.64003 0.17716 0.3023 0.586 0.65568 0.95182 0.82268 0.38382 0.17522 0.68437 0.252 1.1676 0.29828 0.19116 0.0183 0.36334 0.03615 0.38262 0.03966 0.0193 0.0035 0.0222-0.05004 0.006-0.119zm0.046-0.95093c0.0397-0.01522 0.0721-0.07722 0.0721-0.13777 0-0.23341-0.96075-0.71457-1.5836-0.79311-0.376-0.0473-0.84-0.2424-1.335-0.5609-0.137-0.0886-0.256-0.1551-0.263-0.1478-0.0365 0.0365 0.10303 0.29433 0.23142 0.42763 0.56756 0.58926 2.4422 1.3789 2.8772 1.212z"/>
 </g>
</svg>
