<?xml version="1.0" encoding="UTF-8" standalone="no"?>
<!-- Created with Inkscape (http://www.inkscape.org/) -->
<svg id="svg2" xmlns:rdf="http://www.w3.org/1999/02/22-rdf-syntax-ns#" xmlns="http://www.w3.org/2000/svg" height="54" width="99" version="1.1" xmlns:cc="http://creativecommons.org/ns#" xmlns:dc="http://purl.org/dc/elements/1.1/">
 <metadata id="metadata7">
  <rdf:RDF>
   <cc:Work rdf:about="">
    <dc:format>image/svg+xml</dc:format>
    <dc:type rdf:resource="http://purl.org/dc/dcmitype/StillImage"/>
    <dc:title/>
   </cc:Work>
  </rdf:RDF>
 </metadata>
 <g id="g3677">
  <rect id="rect2990" opacity="0" height="54" width="99" y="0" x="0"/>
  <path id="path3851" d="m44.695 47.65c-0.71476-0.15433-1.3736-0.51867-1.8886-1.0445-0.47397-0.48388-0.79311-1.0199-1.0066-1.6908-0.16507-0.51865-0.18476-0.55268-0.35214-0.60838-0.36481-0.12138-1.6316-0.79217-2.3639-1.2517-1.1947-0.7497-2.1909-1.5367-3.2243-2.5471-1.5933-1.5578-2.5684-2.8675-3.5132-4.7186l-0.44613-0.8741-2.2052-0.0265-2.2052-0.0265 0.004-0.38438c0.003-0.33683 0.0207-0.40232 0.13977-0.52941 0.24258-0.25888 0.35623-0.56237 0.41533-1.1091 0.037-0.34255 0.0498-2.4032 0.0377-6.0771-0.0205-6.2024-0.002-5.8953-0.38786-6.3228-0.17181-0.19018-0.18231-0.2235-0.18231-0.57865v-0.37686l2.3426-0.0138 2.3426-0.0138 0.20436-0.39706c0.76052-1.4777 1.7141-2.8047 2.8894-4.021l0.48356-0.50043-0.11532-0.26722c-0.17263-0.40003-0.25543-0.79072-0.29226-1.379-0.0577-0.92134 0.12192-1.6209 0.65235-2.5412 0.77689-1.3479 1.9837-2.0805 3.6966-2.2441 1.0045-0.0959 1.8733 0.0125 3.3748 0.4211 0.38436 0.1046 0.71647 0.49884 0.77755 0.92302 0.0244 0.16963 0.0514 0.21017 0.13559 0.20374 0.16936-0.0129 1.3708-0.33581 1.4046-0.37747 0.0169-0.0209 0.0737-0.18098 0.12603-0.35568 0.15332-0.5115 0.4423-0.97098 0.9022-1.4345 0.67926-0.68462 1.3313-1.0082 2.2914-1.1373 1.1255-0.1513 2.3301 0.28716 3.1274 1.1384 0.24186 0.25821 0.5917 0.70037 0.5917 0.74783 0 0.0155 0.0451 0.0927 0.10013 0.1716 0.0827 0.11845 0.21965 0.47688 0.30265 0.79198 0.01 0.0364 0.0718 0.0671 0.13821 0.0682 0.0961 0.002 1.0822 0.2264 1.4098 0.32141 0.0481 0.014 0.0962-0.0743 0.14756-0.27047 0.0837-0.32016 0.28932-0.61177 0.53125-0.75355 0.21326-0.12498 1.4686-0.44064 2.0681-0.52004 0.66566-0.0882 1.7117-0.0379 2.2905 0.11006 0.57307 0.14648 1.3169 0.50121 1.7056 0.8134 0.84066 0.67515 1.5043 1.8443 1.6859 2.97 0.11425 0.70824 0.0139 1.6854-0.23118 2.2511l-0.0804 0.18565 0.48534 0.50258c0.45508 0.47125 1.092 1.202 1.5225 1.7467 0.44967 0.56898 1.0554 1.5569 1.5058 2.4562l0.20169 0.40264h0.32626c0.43904 0 1.0989 0.1757 1.4452 0.38479 0.15583 0.0941 0.42731 0.31754 0.60331 0.49653 0.78527 0.79864 1.1645 1.8932 1.1675 3.3698 0.003 1.4974-0.3522 2.509-1.1963 3.4064-0.29945 0.31835-0.35542 0.40548-0.32516 0.50616 0.0201 0.0669 0.1908 0.5147 0.37933 0.99514 0.34146 0.87014 0.5637 1.4397 0.83663 2.1441 0.53119 1.3709 1.0623 2.4094 1.5932 3.115 0.24456 0.32501 0.4448 0.61805 0.44498 0.65121 0.00037 0.0648-0.17349 0.10684-0.63497 0.15345-0.16014 0.0162-0.67741 0.076-1.1495 0.13284-1.5594 0.1879-2.0684 0.13079-2.5815-0.28967-0.12704-0.10409-0.25298-0.18926-0.27987-0.18926-0.0269 0-0.13912 0.20249-0.2494 0.44999-0.66123 1.484-1.5164 2.8713-2.6737 4.3376-0.38083 0.48249-1.6305 1.7295-2.3307 2.3258-2.5165 2.143-5.8832 3.7684-8.8412 4.2686-1.3378 0.22622-2.8927 0.3483-3.8511 0.30235l-0.59518-0.0285-0.11062 0.14121c-0.54862 0.70038-1.2215 1.1716-2.0123 1.4092-0.33755 0.10143-1.2021 0.15011-1.5049 0.0847zm1.2182-0.45299c0.60228-0.12645 1.1046-0.40578 1.5618-0.86849 0.64862-0.65647 0.9499-1.2857 1.0733-2.2416 0.10564-0.81806-0.0653-1.6783-0.47252-2.3779-0.54513-0.93659-1.3519-1.4935-2.3684-1.6349-1.5634-0.21745-3.0882 0.92161-3.5595 2.6591-0.12732 0.46934-0.12884 1.495-0.003 1.9228 0.19596 0.6653 0.45565 1.1465 0.87418 1.6198 0.22409 0.25343 0.81286 0.67286 1.1035 0.78609 0.54855 0.21375 1.1865 0.26186 1.7906 0.13504zm0.027-0.43653c0.00036-0.0218 0.0806-0.11744 0.17839-0.21244 0.0978-0.095 0.26426-0.34516 0.3699-0.55589 0.23738-0.47352 0.32438-1.1099 0.28264-2.0674-0.029-0.66469-0.12686-1.0644-0.3555-1.452-0.12189-0.20659-0.13211-0.27885-0.0392-0.27751 0.0929 0.001 0.38277 0.36309 0.52426 0.6543 0.0654 0.13461 0.13798 0.24474 0.16129 0.24474 0.0661 0 0.0499-0.27573-0.0321-0.54846-0.068-0.22611-0.15908-0.39303-0.55255-1.0133-0.18292-0.28836-0.59008-0.71368-0.73935-0.77233-0.0673-0.0264-0.10755-0.0719-0.0895-0.1011 0.11477-0.18571 0.86323 0.19452 1.3075 0.66422 0.85793 0.90711 1.1252 1.8732 0.91834 3.3197-0.11418 0.79856-0.34354 1.1994-0.98163 1.7157-0.34496 0.27909-0.95428 0.53614-0.95238 0.40177zm-1.1603-0.0746c-0.50595-0.1454-1.081-0.69-1.3969-1.323-0.67032-1.3429-0.5261-3.1459 0.30218-3.7776 0.53768-0.41011 1.3748-0.31424 1.9028 0.21792 0.57033 0.57484 0.91481 1.3601 1.0395 2.3695 0.19743 1.599-0.71403 2.8388-1.8475 2.5131zm0.41493-0.71101c0.26286-0.10518 0.33762-0.30003 0.34353-0.89527 0.005-0.51622-0.0875-0.86444-0.32727-1.231-0.23588-0.36053-0.4334-0.49793-0.74395-0.51748-0.29692-0.0187-0.55944 0.0818-0.78562 0.30068-0.21315 0.2063-0.23906 0.35139-0.14826 0.83041 0.0949 0.50081 0.3043 0.91272 0.61993 1.2196 0.37798 0.36753 0.65836 0.4464 1.0416 0.29305zm5.8536-0.20877c3.2762-0.38368 5.6062-1.2026 8.3547-2.9364 3.0324-1.9129 5.3553-4.5566 6.9312-7.8883 0.4108-0.8685 0.40504-0.82945 0.18832-1.2788-0.10317-0.21389-0.20528-0.43653-0.22692-0.49477-0.0344-0.0926-0.0517-0.0793-0.13751 0.10589-0.17911 0.38638-0.18476 0.54428-0.0255 0.71057 0.12961 0.13528 0.14017 0.17836 0.12567 0.51268l-0.0158 0.36498-0.39706 0.0265-0.39706 0.0265-0.16174 0.31765c-0.55364 1.0873-1.2544 2.1635-1.9811 3.0426-0.13171 0.15932-0.29903 0.36182-0.37182 0.45-0.32663 0.39568-1.2532 1.3102-1.9243 1.8992-1.7067 1.498-3.7758 2.7026-5.9792 3.4808-0.97967 0.34605-1.8599 0.56308-3.1083 0.76637-0.5025 0.0818-0.59782 0.0909-1.6412 0.15647-0.40982 0.0257-0.60363 0.0625-0.73758 0.1398-0.19496 0.11252-0.50644 0.22436-0.78492 0.28183-0.18074 0.0373-0.3059 0.1943-0.25683 0.32216 0.0241 0.0627 0.21497 0.071 1.1556 0.0502 0.61969-0.0137 1.2458-0.0389 1.3914-0.0559zm-1.725-0.95576c0.59916-0.32639 1.0235-0.82171 1.3038-1.522 0.12845-0.32084 0.14003-0.40504 0.11968-0.87019-0.0185-0.42289-0.0484-0.56887-0.16733-0.81633-0.31093-0.64707-0.9013-1.0946-1.5921-1.2069-0.34515-0.0561-1.2344-0.0123-1.281 0.0631-0.0162 0.0261 0.0784 0.16274 0.2101 0.30356 0.13172 0.14081 0.3474 0.42438 0.47929 0.63014 0.29886 0.46626 0.41341 0.54822 0.68166 0.48772 0.25883-0.0584 0.45182-0.18708 0.52659-0.35117 0.0774-0.16979-0.0466-0.34657-0.42376-0.60449-0.24832-0.1698-0.36349-0.30083-0.31076-0.35356 0.0114-0.0114 0.16078 0.0316 0.33192 0.0957 0.42072 0.15741 0.85806 0.57669 1.058 1.0143 0.11846 0.25927 0.15061 0.40727 0.15191 0.69944 0.003 0.60649-0.0949 0.84296-0.52508 1.2722-0.2053 0.20487-0.45665 0.40344-0.55856 0.44126-0.31578 0.11718-0.33226 0.13582-0.43028 0.4864-0.0525 0.1877-0.0962 0.35913-0.0973 0.38097-0.004 0.0867 0.19139 0.0306 0.52316-0.15014zm1.7514-0.26163c0.71864-0.0672 1.4853-0.19906 2.3166-0.3983 2.6584-0.63721 5.1583-1.9341 7.3717-3.8243 1.0622-0.90712 2.2326-2.2191 3.0799-3.4529 0.36257-0.52788 1.1024-1.8099 1.1024-1.9103 0-0.0627-0.28713-0.0746-1.8-0.0746h-1.8v-0.37491c0-0.34984 0.0123-0.38998 0.1846-0.60019 0.20694-0.25255 0.32725-0.55018 0.37184-0.91993 0.0392-0.3251 0.0638-3.1348 0.0274-3.1329-0.0154 0.00081-0.15236 0.25692-0.30444 0.56911-0.62053 1.2739-1.5949 2.0832-2.8258 2.3472-0.56382 0.12092-1.3094-0.0212-1.8733-0.35696-1.0076-0.60004-1.6965-1.5116-2.1179-2.8025-0.25847-0.79182-0.38426-2.3995-0.26641-3.4049 0.0491-0.41878-0.009-0.39778-0.23687 0.0863l-0.16852 0.3573 0.0283 1.9324c0.0156 1.0645 0.0524 2.0121 0.082 2.1098 0.0296 0.0976 0.11776 0.2614 0.19598 0.36395 0.12206 0.16003 0.14084 0.23215 0.13254 0.50882-0.005 0.17935-0.0372 0.33939-0.0718 0.36074-0.0728 0.045-3.3399 0.0551-3.4556 0.0107-0.0579-0.0222-0.0785-0.11818-0.0785-0.36671 0-0.30075 0.0174-0.35648 0.16369-0.52305 0.13178-0.15009 0.1724-0.25625 0.20832-0.54449 0.0569-0.45692 0.0576-1.6981 0.00088-1.7331-0.0237-0.0147-0.11616-0.001-0.20548 0.03-0.17938 0.0625-0.15389-0.003-0.51452 1.3186-0.10728 0.39308-0.2527 0.90965-0.32315 1.1479l-0.1281 0.43321-0.24935 0.0804c-0.67567 0.21787-1.2392 0.31197-1.8072 0.30174-0.24704-0.004-0.40715 0.0156-0.43087 0.054-0.0411 0.0665 0.0941 0.6143 0.17864 0.72409 0.0371 0.0482 0.13463 0.0582 0.33617 0.0347 0.23211-0.0271 0.32455-0.012 0.50656 0.0829 0.12245 0.0638 0.2653 0.16524 0.31745 0.22536 0.0971 0.11191 0.29284 0.68429 0.4118 1.204 0.0367 0.16015 0.0894 0.31985 0.1171 0.35489 0.0473 0.0598 0.41423 0.18513 0.83569 0.28555 0.19438 0.0463 0.26515 0.0521 2.3029 0.1874 0.69882 0.0464 1.3302 0.0902 1.4029 0.0974 0.0728 0.007 0.40633 0.0306 0.74118 0.052 0.92801 0.0593 0.96247 0.0631 1.2176 0.13308 0.40621 0.11139 1.0113 0.4396 1.307 0.70893 0.1555 0.14162 0.37171 0.41559 0.48045 0.60882 0.19346 0.34377 0.19772 0.36331 0.19775 0.90722 0.00005 0.67137-0.11516 1.0852-0.48184 1.7308-0.79403 1.3981-2.0495 2.1095-4.6793 2.6517-0.15433 0.0318-0.20452 0.0799-0.3052 0.29228-0.22652 0.47788-0.6965 0.83766-1.2572 0.96238-0.2481 0.0552-0.27304 0.0762-0.39762 0.33512-0.0731 0.15194-0.23529 0.39509-0.3604 0.54034-0.24951 0.28966-0.2466 0.39505 0.01 0.35013 0.0913-0.016 0.32085-0.0436 0.51012-0.0613zm-9.4564-0.80588c-0.0159-0.19654-0.0369-0.38397-0.0466-0.41649-0.01-0.0325-0.17334-0.13201-0.36363-0.22106-0.83213-0.38939-2.1566-1.2228-3.0774-1.9364-2.1096-1.6349-3.8493-3.7172-4.9697-5.9482l-0.19207-0.38249-0.37412 0.004c-0.25517 0.002-0.3825 0.0254-0.40048 0.0722-0.0488 0.12707 0.7507 1.6219 1.3563 2.5359 0.86116 1.2998 2.5094 3.079 3.8176 4.121 1.1079 0.88245 2.1748 1.5533 3.6742 2.3102 0.59829 0.30204 0.6113 0.29892 0.5759-0.13824zm10.039-0.92647c0.38222-0.22904 0.58366-0.53265 0.62011-0.9346 0.0165-0.18166 0.00071-0.38958-0.0385-0.50853-0.0994-0.30107-0.46427-0.63788-0.79867-0.73718-0.42123-0.1251-1.0036-0.1004-0.99941 0.0424 0.00088 0.033 0.13903 0.21188 0.3068 0.3975 0.23152 0.25616 0.33951 0.3375 0.44807 0.3375 0.31462 0 0.40766-0.27579 0.1437-0.42599-0.19031-0.10829-0.2195-0.24856-0.04-0.19239 0.35629 0.11151 0.63681 0.51365 0.63327 0.90781-0.003 0.36666-0.14392 0.56491-0.4872 0.68683-0.26636 0.0946-0.31597 0.16544-0.3174 0.45315-0.001 0.20128 0.16295 0.19308 0.52931-0.0265zm-9.9-0.1653c0.002-0.42218 0.47799-1.339 0.97462-1.8778 0.5268-0.57155 1.4472-1.049 2.1765-1.1292 0.64667-0.0711 1.3322 0.0431 1.9029 0.317 0.24345 0.11681 0.45153 0.2035 0.4624 0.19263 0.0518-0.0518 0.68804-0.18748 0.99475-0.21214 0.47457-0.0382 1.1545 0.0896 1.4976 0.28145l0.27598 0.15431 0.22141-0.0979c0.55886-0.247 1.3039-0.15463 1.7924 0.22223 0.14985 0.11561 0.31345 0.2102 0.36354 0.2102 0.17972 0 1.5164-0.47535 2.0524-0.72986 1.1402-0.5414 1.7379-1.2064 1.7379-1.9335 0-0.24955-0.0163-0.28266-0.24227-0.49313-0.35238-0.32815-1.0466-0.57021-1.8021-0.62837-1.6411-0.12633-3.0826 0.0136-5.6683 0.55037-0.55857 0.11595-1.1065 0.2338-1.2176 0.2619-0.19048 0.0481-0.87815 0.15318-1.2874 0.19662-0.10191 0.0108-0.64985 0.0211-1.2176 0.0229-1.1631 0.004-1.7062-0.0676-2.3736-0.3112-0.40485-0.14775-0.42701-0.15015-0.71369-0.0771l-0.29586 0.0753-0.42542-0.41861c-0.48435-0.47661-0.63557-0.75243-0.63727-1.1624-0.00089-0.20481-0.0444-0.36508-0.16301-0.60006-0.36428-0.72164-0.79048-2.1083-0.87348-2.8419-0.033-0.29175-0.0474-0.31671-0.26046-0.4515-0.33125-0.20956-0.98481-0.89085-1.1901-1.2405-0.37441-0.63791-0.31794-0.62103-0.47894-0.1432-0.27352 0.81172-0.46379 1.2095-0.87275 1.8244-0.70319 1.0574-1.77 1.8529-2.773 2.068-0.17825 0.0382-0.27181 0.0852-0.27181 0.13655 0 0.10532 0.71163 1.3709 1.0674 1.8983 1.691 2.5068 3.6969 4.2775 6.7661 5.9727 0.36239 0.20016 0.47776 0.19135 0.47892-0.0365zm11.265-1.4683c1.7997-0.56512 2.5685-0.98851 3.0819-1.6972 0.15401-0.21261 0.35146-0.71598 0.30074-0.7667-0.0151-0.0151-0.11014 0.0996-0.21124 0.2549-0.23512 0.36115-0.51122 0.63809-0.89805 0.90077-0.29818 0.2025-1.0094 0.55356-1.4417 0.71164-0.62834 0.22977-0.96411 0.33695-1.0588 0.33801-0.18131 0.002-0.25577 0.0813-0.21792 0.23211 0.019 0.0759 0.0471 0.13803 0.0623 0.13803s0.18746-0.0502 0.38282-0.11152zm4.7394-3.3826c0.005-0.39973-0.0118-0.48469-0.15103-0.76052-0.0882-0.17466-0.2742-0.41787-0.42523-0.55588-0.30542-0.27911-0.9282-0.60376-1.3197-0.68799-0.24312-0.0523-1.8166-0.18247-2.9647-0.24528-0.26205-0.0143-0.65514-0.0381-0.87353-0.0528-0.21838-0.0147-0.62338-0.0404-0.9-0.0571-0.59736-0.036-1.0988-0.13448-1.4483-0.2843-0.14002-0.06-0.30025-0.10912-0.35608-0.10912-0.12702 0-0.13394 0.13663-0.009 0.17455 0.67314 0.20399 1.0356 0.30028 1.2441 0.33047 0.32187 0.0466 0.33731 0.16603 0.0265 0.20476-0.12375 0.0154-0.46323 0.0427-0.75441 0.0605-0.56106 0.0344-0.62819 0.0467-1.3765 0.25191-0.26206 0.0719-0.6075 0.15874-0.76765 0.19307-0.16014 0.0343-0.50061 0.10776-0.75659 0.16317-0.62717 0.13576-1.7684 0.2282-2.2875 0.18529-0.23294-0.0193-0.65842-0.0822-0.94552-0.13981-0.41923-0.0842-0.55732-0.0931-0.70147-0.0456-0.21659 0.0715-0.23402 0.18745-0.0339 0.22556 0.0801 0.0152 0.32427 0.0767 0.54265 0.13651 1.3224 0.36235 3.0817 0.25102 4.8176-0.30485 1.1123-0.35619 1.1411-0.36273 1.9853-0.4513 2.2388-0.2349 4.3276-0.19281 5.2743 0.10627 0.68585 0.21666 0.98123 0.38003 1.3356 0.73869 0.42752 0.43268 0.61904 0.81378 0.64397 1.2814 0.0105 0.19634 0.0222 0.39272 0.026 0.43639 0.004 0.0437 0.0435-0.0159 0.0881-0.13235 0.0475-0.12388 0.0835-0.39852 0.0868-0.66176zm-16.34-1.081c0.13311-0.16121 0.6132-0.45431 0.74414-0.45431 0.0497 0 2.0583-0.65656 4.62-1.5102 1.3443-0.44797 1.742-0.53097 2.0515-0.42814 0.15466 0.0514 0.15639-0.0484 0.008-0.48649-0.1213-0.3592-0.30599-0.53988-0.55185-0.53988-0.1639 0-0.83728 0.20211-2.6463 0.79429-1.5364 0.50294-3.2474 1.0442-4.2783 1.3535-0.4231 0.12693-0.6188 0.31749-0.6188 0.60257 0 0.12079 0.0385 0.29586 0.0855 0.38905 0.0913 0.1811 0.33229 0.46061 0.39706 0.46061 0.0216 0 0.10643-0.0814 0.18863-0.18099zm4.9936-0.5337c0.2475-0.043 0.61677-0.11565 0.82059-0.16148 0.20382-0.0458 0.42419-0.0942 0.4897-0.10753 0.17608-0.0358 0.14522-0.14852-0.0842-0.30749l-0.20329-0.14087-0.78936 0.25766c-0.43415 0.14171-0.96208 0.31206-1.1732 0.37855-0.2111 0.0665-0.38382 0.14524-0.38382 0.175 0 0.0662 0.67903 0.0181 1.3235-0.0938zm-4.9383-1.2046c0.0498-0.0385 0.0422-0.0941-0.0334-0.24325-0.0539-0.10634-0.14059-0.32926-0.19264-0.49537-0.13344-0.42581-0.20358-0.33178-0.15933 0.21359 0.0507 0.62524 0.12486 0.72624 0.38537 0.52503zm2.0266-0.63243c0.85897-0.28188 1.7881-0.58197 2.0647-0.66686l0.50294-0.15435-0.008-0.17971c-0.005-0.0988-0.0563-0.35429-0.11498-0.56766-0.0587-0.21337-0.12318-0.56411-0.14335-0.77942-0.0365-0.38965-0.0377-0.39207-0.2556-0.51995-0.28168-0.16532-0.81932-0.7276-1.0127-1.0592-0.17321-0.29691-0.13822-0.32108-0.50324 0.34767-0.29139 0.53385-0.98498 1.2625-1.4671 1.5412-0.18086 0.10456-0.51438 0.24895-0.74118 0.32088l-0.41235 0.13078 0.006 0.49901c0.004 0.31855 0.0401 0.60257 0.0998 0.78533 0.19887 0.60805 0.30313 0.84744 0.3621 0.83141 0.0337-0.009 0.76407-0.24729 1.623-0.52917zm25.915 0.24726c0.40765-0.0439 0.93973-0.10043 1.1824-0.12566 0.24268-0.0252 0.46368-0.0683 0.49111-0.0958 0.0312-0.0312-0.0888-0.23655-0.32072-0.54877-0.51697-0.69593-0.78269-1.2481-1.7943-3.7283-0.31034-0.76088-0.9224-2.3983-0.97278-2.6025-0.008-0.0337 0.10496-0.18857 0.25174-0.34411 0.82935-0.87887 1.1734-1.611 1.3023-2.771 0.22013-1.9817-0.51449-3.7926-1.8032-4.4451-0.509-0.25771-0.94352-0.2926-3.6161-0.29042l-2.4207 0.002-0.0808 0.1153c-0.12655 0.18067-0.0962 0.34803 0.10581 0.58406 0.35758 0.41775 0.40865 0.70641 0.42802 2.4194 0.0211 1.8667 0.0211 1.8702-0.008 1.899-0.013 0.013 0.003 0.0556 0.0354 0.0946 0.0324 0.0391 0.0372 0.0711 0.0106 0.0711-0.0288 0-0.0478 1.6887-0.0469 4.1691 0.002 4.6549 0.0259 4.337-0.37649 4.9248-0.12883 0.18818-0.19308 0.34351-0.19708 0.47648l-0.006 0.19728h2.197 2.1971l0.016-0.21832c0.0123-0.16899-0.0185-0.27067-0.13671-0.45-0.27747-0.42109-0.39067-0.95106-0.4151-1.9435-0.0119-0.48528-0.0303-1.0908-0.0407-1.3456-0.0104-0.25478 0.00085-0.46323 0.0251-0.46323 0.0242 0 0.0954 0.17272 0.15812 0.38382 0.0627 0.2111 0.20954 0.62206 0.32622 0.91324 0.11668 0.29117 0.29288 0.77392 0.39157 1.0728 0.18129 0.54899 0.50575 1.2198 0.74153 1.5331 0.14633 0.19446 0.54332 0.48235 0.75211 0.54542 0.22397 0.0677 0.82284 0.0568 1.6231-0.0293zm-1.4074-0.0735c-0.26411-0.0526-0.53666-0.23248-0.79368-0.5239-0.27931-0.3167-0.40529-0.5681-0.73804-1.4729-0.14849-0.40374-0.34276-0.92465-0.43173-1.1576-0.19272-0.50465-0.37234-1.0157-0.55354-1.575-0.0731-0.22566-0.15512-0.41029-0.18223-0.41029-0.0659 0-0.0613 2.9261 0.005 3.4412 0.0709 0.54706 0.17877 0.89091 0.36636 1.1678 0.16343 0.24122 0.20026 0.39011 0.11023 0.44575-0.0281 0.0173-0.92591 0.0313-1.9952 0.031-1.661-0.00043-1.9558-0.0121-2.0239-0.0803-0.0711-0.0711-0.068-0.0929 0.0278-0.19998 0.19283-0.21549 0.32685-0.48392 0.43319-0.86769 0.1015-0.36624 0.10398-0.53968 0.0882-6.1676-0.009-3.1849-0.0322-5.8861-0.0517-6.0025-0.0551-0.3289-0.23841-0.77395-0.41003-0.99532-0.28625-0.36923-0.38445-0.35479 2.406-0.35376 2.7074 0.00098 3.0105 0.0259 3.4488 0.28365 0.80206 0.47161 1.2744 1.1539 1.544 2.2301 0.12806 0.51133 0.14611 0.68566 0.148 1.4294 0.002 0.61826-0.0217 0.94346-0.086 1.2039-0.19806 0.80178-0.60334 1.5135-1.1814 2.0748l-0.35546 0.34512 0.0669 0.22632c0.0368 0.12447 0.20893 0.58367 0.38249 1.0204 0.17356 0.43677 0.35289 0.88941 0.39851 1.0059 0.0456 0.11647 0.11408 0.28323 0.15214 0.37058 0.0381 0.0874 0.19215 0.46853 0.34242 0.84706 0.59839 1.5073 1.151 2.6247 1.5426 3.1193 0.11344 0.14323 0.18765 0.27674 0.16491 0.29668-0.0227 0.0199-0.29148 0.0652-0.59721 0.10056-0.30574 0.0354-0.69883 0.0859-0.87353 0.11236-0.46855 0.0709-1.1378 0.098-1.3544 0.0549zm1.4539-0.34948c0.43325-0.0431 0.80847-0.0784 0.83382-0.0784 0.0984 0 0.0378-0.16875-0.1473-0.40983-0.29917-0.3897-0.86911-1.6199-1.527-3.296-0.15429-0.39309-0.40367-1.0244-0.55416-1.4029-0.38435-0.9667-0.63718-1.6461-0.63718-1.7121 0-0.031 0.10305-0.12722 0.22901-0.21388 0.39316-0.2705 0.81379-0.77328 1.0375-1.2401 0.17911-0.3738 0.26805-0.65833 0.40867-1.3074 0.0546-0.25216 0.0201-1.2813-0.0592-1.7645-0.0951-0.57947-0.18431-0.8834-0.3615-1.2319-0.42353-0.83302-1.0115-1.285-1.8139-1.3942-0.48203-0.0657-4.6187-0.0626-4.6595 0.003-0.0143 0.0231 0.0325 0.15755 0.10402 0.29867 0.29694 0.58599 0.29549 0.55284 0.29823 6.8344 0.003 6.2967 0.008 6.1711-0.29564 6.6369-0.0709 0.10857-0.12882 0.22173-0.12882 0.25147 0 0.0356 0.55093 0.0541 1.6147 0.0541 1.7515 0 1.7073 0.009 1.5088-0.29118-0.294-0.44378-0.37022-1.1869-0.3704-3.6114-0.00016-1.9495 0.001-1.9708 0.11142-2.0299 0.0765-0.0409 0.12869-0.0426 0.16606-0.005 0.0518 0.0518 0.21577 0.48698 0.49182 1.3053 0.4472 1.3257 1.1938 3.3221 1.4056 3.7588 0.36469 0.75189 0.72244 1.003 1.3456 0.94437 0.11647-0.011 0.56624-0.0552 0.99949-0.0983zm-4.4864-6.8961c-0.014-0.0227-0.0264-1.241-0.0274-2.7075l-0.002-2.6663 0.3637 0.0305c0.61768 0.0518 0.90744 0.26801 1.1883 0.88673 0.30359 0.66886 0.37713 1.7863 0.16884 2.5654-0.2155 0.80609-0.70495 1.4723-1.3037 1.7746-0.34409 0.1737-0.35116 0.17582-0.38778 0.11656zm0.663-0.63377c0.69639-0.62689 1.0473-1.9428 0.81302-3.0486-0.0879-0.41475-0.29783-0.90346-0.4672-1.0875-0.20893-0.22701-0.68312-0.35906-0.7365-0.2051-0.0126 0.0364-0.017 0.38779-0.01 0.78088s0.0144 1.3996 0.0159 2.2368c0.003 1.7162-0.008 1.6772 0.38457 1.3235zm-0.22024-2.1631v-2.0969l0.14559 0.0344c0.29694 0.0702 0.63477 0.64476 0.73139 1.2439 0.13786 0.85483 0.0123 1.6696-0.35098 2.2786-0.19798 0.33184-0.43601 0.63688-0.49699 0.63688-0.016 0-0.029-0.94361-0.02901-2.0969zm0.47913 1.2172c0.0941-0.2194 0.20231-0.81153 0.2334-1.2765 0.0353-0.52783-0.23663-1.5318-0.43068-1.5901-0.0468-0.0141-0.0618 0.38324-0.0602 1.6007 0.002 1.445 0.0107 1.6122 0.0827 1.5524 0.0444-0.0368 0.12306-0.16576 0.1748-0.28646zm-32.357 8.774c1.1764-0.34876 1.9418-0.89899 2.6676-1.9176 0.47595-0.66799 0.91665-1.6512 1.1187-2.4958 0.0609-0.25478 0.12709-0.46324 0.14701-0.46324 0.0199 0 0.0523 0.0774 0.072 0.17206 0.0499 0.2403 0.41023 0.90074 0.71485 1.3103 0.24557 0.33015 0.52235 0.59197 0.9731 0.92048 0.58288 0.42482 1.3952 0.63124 2.027 0.51508 0.90033-0.16554 1.8525-0.78805 2.3578-1.5414 0.23661-0.3528 0.56013-0.98248 0.62109-1.2089 0.071-0.26349 0.15592-0.26506 0.23669-0.004 0.0806 0.2602 0.51523 0.85548 0.57843 0.79229 0.0322-0.0322 0.001-0.11515-0.0846-0.22782-0.1443-0.18919-0.48112-0.83264-0.54176-1.035-0.0614-0.20475-0.13844-0.10735-0.32216 0.40721-0.38576 1.0804-1.0208 1.8724-1.8909 2.3582-0.29305 0.16361-0.98732 0.34813-1.3054 0.34693-0.36517-0.001-0.96271-0.17578-1.3562-0.39584-0.31403-0.17561-1.0241-0.81359-1.2417-1.1156-0.27156-0.37691-0.58561-1.036-0.74735-1.5685-0.13635-0.44889-0.13334-0.45297-0.33859 0.46027-0.20021 0.89088-0.57268 1.8294-0.96917 2.442-0.19825 0.3063-0.34266 0.513-0.40539 0.58025-0.0295 0.0316-0.13794 0.15074-0.24099 0.2647-0.63062 0.69743-1.6122 1.2194-2.4888 1.3236-0.15867 0.0188-0.30737 0.0454-0.33044 0.059-0.0589 0.0348-4.8048 0.0204-4.8616-0.0147-0.0814-0.0503-0.0503-0.18332 0.0843-0.35979 0.17728-0.23242 0.3352-0.60157 0.40301-0.94211 0.0622-0.31243 0.0839-11.575 0.0231-11.969-0.059-0.38197-0.18281-0.70418-0.37372-0.9727-0.10072-0.14166-0.18312-0.28742-0.18312-0.32391 0-0.0746 0.022-0.0752 2.8324-0.0749 1.9317 0.00016 2.5948 0.0573 3.1544 0.27202 1.0958 0.42042 1.9164 1.1956 2.5796 2.4366 0.36855 0.68966 0.76182 1.8598 0.8674 2.5809 0.0352 0.24022 0.0821 0.43676 0.10424 0.43676 0.0222 0 0.0664-0.10125 0.0982-0.225 0.27525-1.0696 0.77868-1.9292 1.508-2.575 0.46028-0.40759 0.6945-0.54662 1.2155-0.7215 0.93708-0.31457 1.8604-0.0781 2.6612 0.6815 0.65041 0.61696 1.2292 1.6818 1.3636 2.5089 0.0417 0.25624 0.12611 0.34323 0.17006 0.17515 0.0638-0.2439 0.38364-0.83885 0.61687-1.1474 0.46302-0.61257 1.2122-1.0498 2.0855-1.2173 0.46341-0.0888 0.52957-0.0889 1.3703-0.002 0.48585 0.0502 0.90073 0.10205 0.92195 0.11516 0.059 0.0364 0.12424 2.0377 0.0683 2.0937-0.0288 0.0288-0.11506-0.0229-0.21526-0.12914-0.33191-0.35189-1.1884-0.64415-1.6638-0.56776-0.24821 0.0399-0.48786 0.16372-0.6165 0.31857-0.52175 0.62809-0.62776 2.8939-0.19757 4.2228 0.14608 0.45123 0.39499 0.80384 0.66659 0.94429 0.24233 0.12532 0.24375 0.0914 0.005-0.1132-0.37052-0.31715-0.6411-0.96623-0.75392-1.8085-0.0696-0.51923-0.0358-1.8087 0.0606-2.3149 0.0792-0.41579 0.27742-0.81447 0.48701-0.97941 0.14847-0.11684 0.21809-0.13209 0.59384-0.13013 0.5333 0.003 0.84545 0.13754 1.3937 0.60164 0.21215 0.17958 0.4097 0.3117 0.439 0.29359 0.0944-0.0583-0.0447-2.4182-0.14839-2.5168-0.0738-0.0702-1.2452-0.1808-1.8675-0.17634-0.53429 0.004-0.66747 0.0243-1.0879 0.16749-0.93775 0.31929-1.6426 0.87628-1.9824 1.5666-0.0949 0.19283-0.19046 0.33957-0.21228 0.32608-0.0218-0.0135-0.0683-0.13809-0.10317-0.27689-0.16701-0.6639-0.65905-1.4609-1.2463-2.0187-0.91645-0.87054-2.0787-1.1103-3.1294-0.6455-0.38614 0.17081-0.94418 0.55863-1.2334 0.85714-0.43991 0.45413-0.96214 1.2866-1.1165 1.7797-0.0387 0.12375-0.0883 0.225-0.11023 0.225-0.0219 0-0.0566-0.10125-0.0771-0.225-0.0568-0.34261-0.32549-1.1131-0.61004-1.7496-0.55562-1.2428-1.3966-2.2097-2.3407-2.6914-0.90426-0.46132-1.329-0.51291-4.273-0.51897-2.2418-0.005-2.384 0.00065-2.391 0.0885-0.0203 0.25435 0.0219 0.42042 0.13782 0.54203 0.0701 0.0736 0.17993 0.2529 0.24396 0.39849 0.17135 0.3896 0.20052 1.5617 0.18377 7.3853-0.0142 4.9249-0.0148 4.9517-0.12928 5.285-0.0633 0.18424-0.19755 0.45493-0.29839 0.60153-0.1755 0.25512-0.24077 0.54949-0.14365 0.64779 0.0218 0.0221 1.2428 0.0296 2.7132 0.0167 2.5567-0.0225 2.6906-0.0286 3.0633-0.13908zm-0.19985-0.39398c1.0118-0.24154 1.7144-0.7329 2.4542-1.7163 0.55397-0.73637 0.89308-1.5886 1.224-3.0758 0.0152-0.0683 0.0588-0.42568 0.0968-0.79412 0.0961-0.93068 0.0618-2.3535-0.0766-3.174-0.41122-2.438-1.597-4.29-3.1396-4.9035-0.72627-0.28886-0.89192-0.30558-3.3032-0.33352-1.2302-0.0142-2.2368-0.0134-2.2368 0.002 0 0.0152 0.0591 0.14531 0.13125 0.28903 0.26934 0.53624 0.265 0.42606 0.26542 6.7356 0.00035 6.4144 0.009 6.2083-0.29656 6.7624-0.0842 0.15243-0.15305 0.29152-0.15305 0.3091 0 0.0176 1.0542 0.0208 2.3426 0.007 1.882-0.0198 2.4112-0.0411 2.6914-0.10795zm-1.7782-1.7648c-0.0582-0.0126-0.19619-0.0615-0.30658-0.10876l-0.20069-0.0859 0.0154-4.9013 0.0154-4.9013 0.2647-0.0737c0.14559-0.0405 0.50295-0.0758 0.79412-0.0782 0.45388-0.004 0.56185 0.0126 0.7568 0.1157 0.95188 0.50338 1.5427 1.8301 1.7066 3.8323 0.11796 1.4407 0.016 2.9665-0.26472 3.9598-0.0617 0.21838-0.22788 0.63529-0.36926 0.92647-0.36119 0.74387-0.7194 1.0854-1.328 1.2661-0.26041 0.0773-0.83199 0.10305-1.0838 0.0488zm1.2066-0.40455c0.4164-0.19296 0.65601-0.46409 0.94257-1.0666 0.45492-0.95645 0.63029-1.9655 0.63029-3.6266 0-2.0466-0.3753-3.5366-1.0783-4.281-0.38664-0.40939-0.87104-0.56783-1.4204-0.4646-0.18484 0.0347-0.3653 0.0812-0.40104 0.10331-0.0958 0.0592-0.0946 9.3142 0.001 9.3929 0.19155 0.15732 0.93134 0.12523 1.3257-0.0575zm-1.0622-0.0603-0.17336-0.0784 0.008-4.5304c0.01-5.2083-0.0638-4.6386 0.59833-4.6412 0.28698-0.001 0.44036 0.0264 0.59905 0.10731 0.66418 0.33883 1.1865 1.4551 1.3659 2.9191 0.10001 0.81595 0.10052 2.7324 0.00088 3.3882-0.21033 1.385-0.7834 2.534-1.3902 2.7876-0.28041 0.11716-0.80101 0.1418-1.0091 0.0478zm1.0029-0.27074c0.25603-0.16492 0.42595-0.395 0.65023-0.88042 0.40418-0.87481 0.5771-1.9309 0.57049-3.4842-0.008-1.9317-0.36241-3.347-1.0025-4.0056-0.23036-0.23702-0.47887-0.37213-0.54785-0.29786-0.0761 0.082-0.32553 1.2216-0.4552 2.0799-0.12137 0.80334-0.13162 1.0139-0.12751 2.6206 0.002 0.96088 0.0288 1.9376 0.0586 2.1706 0.067 0.52426 0.30082 1.7041 0.37049 1.8696 0.0604 0.14337 0.17446 0.12622 0.48323-0.0727zm-0.82271-8.4448c0.0353-0.11949 0.0413-0.22105 0.0141-0.23785-0.0969-0.0599-0.15332 0.0431-0.15332 0.28006 0 0.27721 0.0493 0.26226 0.13918-0.0422zm33.947 9.8641c0.17713-0.44722 0.18238-0.61487 0.0324-1.0372-0.22504-0.6339-0.27626-0.46436-0.20136 0.6666 0.0188 0.28389 0.0515 0.51617 0.0727 0.51617s0.0645-0.0655 0.0962-0.14558zm-6.9272-0.5243c0.32101-0.054 1.1246-0.47508 1.4672-0.76872 0.44845-0.38435 0.77138-0.81754 1.0794-1.4479 0.42002-0.85967 0.52979-1.3813 0.56281-2.6748 0.0524-2.0517-0.15525-2.9548-0.96711-4.2064-0.58038-0.89473-1.2419-1.387-2.1373-1.5907-0.46938-0.10676-0.87437-0.0745-1.3604 0.10848-0.71047 0.26742-1.5277 0.95328-1.8281 1.5342-0.098 0.18957-0.1961 0.34476-0.21793 0.34487-0.0571 0.00026-0.049-0.18092 0.0204-0.45627 0.0429-0.17016 0.0438-0.25497 0.003-0.29554-0.0391-0.0391-0.83879-0.0551-2.5614-0.0511-2.348 0.005-2.5069 0.0117-2.5432 0.10004-0.0529 0.12916-0.51753 2.467-0.51753 2.6043 0 0.0608 0.0124 0.11048 0.0276 0.11048s0.26546-0.18268 0.55614-0.40596c0.48344-0.37134 0.55332-0.40802 0.81942-0.43009l0.29092-0.0241 0.004 0.33744c0.002 0.18559-0.001 0.68288-0.008 1.1051-0.007 0.42221-0.014 0.89409-0.0158 1.0486-0.002 0.19216 0.0212 0.2965 0.0743 0.33008 0.0466 0.0295 0.0526 0.0494 0.0151 0.0499-0.0461 0.0006-0.0669 0.39332-0.0794 1.5004l-0.0169 1.4996-0.15883 0.23424c-0.20419 0.30115-0.24774 0.41205-0.20933 0.53308 0.0294 0.0927 0.11753 0.0982 1.5619 0.0982h1.5307l0.0318-0.12674c0.0218-0.087-0.0318-0.25714-0.17105-0.54264l-0.20286-0.41591 0.004-2.8324 0.004-2.8324 0.16927 0.008c0.2676 0.0126 0.40328 0.13868 0.53359 0.49607 0.11005 0.30183 0.11617 0.37641 0.0774 0.94421-0.13867 2.0325 0.23084 3.5826 1.144 4.7988 0.35913 0.47836 0.58252 0.68879 1.0134 0.95462 0.63476 0.39159 1.2082 0.49483 2.0044 0.36079zm-0.82059-0.0751c-1.0125-0.1128-1.9558-0.89914-2.5915-2.1602-0.48808-0.96822-0.7157-2.3708-0.59819-3.686 0.0772-0.86341 0.0727-0.9613-0.0589-1.3017-0.13707-0.35457-0.26735-0.43873-0.6851-0.44261l-0.30163-0.003v0.69648c0 0.38307-0.0164 0.68633-0.0364 0.6739-0.02-0.0124-0.0298 0.96063-0.0217 2.1623 0.0157 2.3396 0.0357 2.5296 0.30015 2.8659 0.0604 0.0768 0.10186 0.18135 0.0921 0.23228-0.0163 0.0849-0.13158 0.0938-1.3817 0.10674-1.2276 0.0127-1.3672 0.005-1.3974-0.0734-0.0185-0.0481-0.006-0.12596 0.0272-0.17296 0.0335-0.047 0.11467-0.18074 0.18049-0.29721 0.11944-0.21137 0.11968-0.21667 0.12731-2.8059 0.006-1.8971-0.009-2.6046-0.0529-2.633-0.0395-0.0253-0.0408-0.0392-0.004-0.0397 0.0614-0.00088 0.10002-0.47589 0.0512-0.62978-0.0253-0.0796-0.0774-0.0909-0.33361-0.0727-0.44591 0.0318-0.61349 0.0991-0.8965 0.36014-0.2343 0.21609-0.38703 0.29354-0.3863 0.19591 0.00016-0.0218 0.0241-0.12529 0.0531-0.22989s0.11516-0.54533 0.19134-0.97941c0.0762-0.43408 0.15027-0.85475 0.16465-0.93482l0.0261-0.14559h2.4028c1.8875 0 2.4026 0.0142 2.4018 0.0662-0.002 0.16428-0.16269 1.1823-0.23575 1.4973-0.16116 0.69492-0.0745 0.80066 0.12867 0.15712 0.46195-1.4628 1.4553-2.5663 2.572-2.8572 0.83485-0.21745 1.6795 0.0243 2.3931 0.68502 0.47809 0.44263 0.68326 0.72287 1.0163 1.3882 0.49934 0.99745 0.67163 1.9992 0.62447 3.6309-0.0324 1.1213-0.14853 1.6763-0.51429 2.4581-0.54675 1.1686-1.2594 1.8495-2.2777 2.1761-0.43326 0.13897-0.58397 0.15623-0.97941 0.11217zm0.927-0.38c1.2553-0.42793 2.1216-1.5987 2.4586-3.3223 0.16712-0.85493 0.14024-2.331-0.0597-3.2801-0.20591-0.97728-0.83385-2.1227-1.4301-2.6085-1.1255-0.91714-2.3183-0.82973-3.3806 0.24774-0.6628 0.67226-1.0861 1.5331-1.3302 2.7049-0.13842 0.66463-0.13806 2.2894 0.00065 2.9382 0.37936 1.7744 1.3055 3.0206 2.5207 3.3917 0.27557 0.0841 0.86537 0.0496 1.2207-0.0716zm-1.0118-1.193c-0.39982-0.25381-0.6074-0.58582-0.8157-1.3046-0.19875-0.68584-0.34492-1.6097-0.3814-2.4107-0.0514-1.1278 0.20869-2.5215 0.57874-3.1017 0.45555-0.71426 1.0687-0.82802 1.5908-0.29514 0.65 0.6634 0.96025 1.99 0.95535 4.0851-0.002 0.98407-0.0176 1.193-0.11315 1.5429-0.21128 0.77381-0.5646 1.3212-0.98381 1.5241-0.31192 0.151-0.54799 0.13965-0.83088-0.0399zm0.9171-0.37635c0.22028-0.19341 0.43758-0.58733 0.57973-1.0509 0.09-0.29364 0.11341-0.54498 0.13403-1.441 0.0254-1.1053-0.0267-1.8447-0.1811-2.5676-0.0999-0.46781-0.27318-0.98073-0.36807-1.0895-0.0401-0.046-0.0729-0.10871-0.0729-0.13943 0-0.0787-0.38831-0.42044-0.52816-0.46483-0.32365-0.10272-0.72344 0.15822-0.94563 0.61722-0.33666 0.69543-0.52064 2.0467-0.42875 3.1489 0.13568 1.6272 0.54834 2.8821 1.0021 3.0474l0.13193 0.048-0.13947-0.14862c-0.72056-0.76782-1.079-3.5224-0.68066-5.231 0.26815-1.1501 0.73485-1.6161 1.2144-1.2126 0.20596 0.17331 0.50301 0.78551 0.61474 1.267 0.22436 0.96678 0.31816 2.9035 0.1824 3.7665-0.0956 0.6077-0.46558 1.2922-0.81291 1.504l-0.16592 0.10118 0.14374 0.00021c0.0837 0.00011 0.21759-0.0646 0.32049-0.15498zm-0.25434-0.2352c0.18154-0.18154 0.38694-0.61321 0.48787-1.0253 0.11047-0.45102 0.13424-2.0332 0.042-2.7931-0.1409-1.1603-0.34171-1.8266-0.65022-2.1574-0.33368-0.35775-0.65258-0.0126-0.91708 0.99265-0.11493 0.43679-0.12515 0.57787-0.12273 1.6941 0.002 1.1152 0.0147 1.2742 0.14549 1.8906 0.15091 0.711 0.23264 0.93452 0.47501 1.2991 0.17551 0.26399 0.34402 0.295 0.53969 0.0993zm-4.9618 1.0096c0.0505-0.0327 0.0407-0.0917-0.0424-0.2546-0.17275-0.33863-0.19791-0.86356-0.17731-3.6998 0.018-2.4825 0.0261-2.6785 0.11314-2.7442 0.13679-0.10334 0.83795-0.0534 1.0565 0.0753 0.0927 0.0546 0.17955 0.0878 0.19289 0.0738 0.052-0.0547 0.19153-1.1877 0.1512-1.228-0.0235-0.0235-0.98226-0.0366-2.1305-0.0289l-2.0877 0.0139-0.0436 0.23823c-0.024 0.13103-0.0777 0.38607-0.11935 0.56677-0.0417 0.18068-0.0757 0.37781-0.0757 0.43805 0 0.10735 0.005 0.10687 0.25105-0.0241 0.21656-0.11528 0.3186-0.13364 0.74277-0.13364h0.49173l-0.0148 3.1632c-0.0137 2.9236-0.022 3.1764-0.10964 3.3368-0.0521 0.0955-0.0834 0.19199-0.0696 0.21445 0.0335 0.0542 1.7869 0.0476 1.8713-0.007zm-12.244 0.83506c1.2685-0.33041 2.2332-1.5561 2.5952-3.2972 0.18936-0.91088 0.15183-2.5865-0.0788-3.517-0.41403-1.6706-1.3898-2.8102-2.5804-3.0136-1.2082-0.2064-2.4621 0.6223-3.2173 2.1262-0.20271 0.4037-0.47584 1.3605-0.55613 1.9483-0.0738 0.5404-0.0455 1.6712 0.0554 2.208 0.24215 1.2891 0.71806 2.2194 1.4634 2.8606 0.77145 0.66362 1.5346 0.88902 2.3186 0.68481zm-0.80462-1.1796c-0.82192-0.4385-1.3137-1.9923-1.3018-4.1129 0.007-1.3122 0.19777-2.1569 0.63448-2.8148 0.28835-0.43442 0.74774-0.65848 1.1254-0.54889 0.70361 0.20416 1.1328 1.0337 1.3554 2.6198 0.26216 1.8675 0.0976 3.416-0.45227 4.2566-0.2854 0.43625-0.36936 0.51513-0.64963 0.61029-0.31836 0.10808-0.49469 0.10556-0.71163-0.0102zm0.57544-0.27022c0.14492-0.007 0.51033-0.40675 0.68031-0.74348 0.24878-0.49282 0.32129-0.8833 0.35432-1.908 0.0442-1.3721-0.1385-2.751-0.46183-3.4851-0.4432-1.0062-1.2164-1.0599-1.6894-0.11721-0.20891 0.41639-0.30396 0.78338-0.40591 1.5672-0.0773 0.59467-0.0807 0.78991-0.0258 1.4792 0.16527 2.0722 0.67724 3.2994 1.3453 3.2248 0.0642-0.007 0.15545-0.015 0.2029-0.0174zm-0.514-0.244c-0.41059-0.43535-0.70143-1.3319-0.86637-2.6707-0.11605-0.94184-0.0342-2.0374 0.21139-2.8292 0.27301-0.88021 0.78326-1.2603 1.2099-0.90131 0.2079 0.17494 0.45281 0.67869 0.59039 1.2144 0.28358 1.1042 0.34104 3.4436 0.10207 4.1559-0.19836 0.59124-0.46084 0.99406-0.74272 1.1398-0.22381 0.11573-0.3104 0.097-0.50468-0.10896zm0.80084-0.53655c0.22488-0.45964 0.37119-1.1296 0.24669-1.1296-0.0618 0-0.42044 0.72212-0.51278 1.0324-0.0433 0.14559-0.079 0.33391-0.0793 0.4185-0.00053 0.14846 0.003 0.15059 0.10136 0.0615 0.0561-0.0507 0.1659-0.22299 0.24408-0.38278zm-1.1931-2.0164c0.22554-0.45505 0.44916-0.74513 1.0177-1.3202l0.42852-0.43343-0.0952-0.49304c-0.14365-0.74404-0.43513-1.3737-0.6705-1.4484-0.53841-0.17088-1.007 1.2863-0.96663 3.0061 0.024 1.0237 0.0678 1.1293 0.28607 0.68902zm8.4869 3.9544c0.53641-0.0788 1.1455-0.26333 1.199-0.36324 0.0499-0.0932 0.58562-2.1082 0.62697-2.3581 0.0257-0.15561 0.025-0.15609-0.10462-0.0711-0.36506 0.2392-1.2605 0.78113-1.4465 0.87542-0.11647 0.0591-0.31289 0.1242-0.43649 0.14479-0.25459 0.0424-0.35533 0.13409-0.14732 0.13409 0.33768 0 1.1519-0.35611 1.6043-0.70163 0.15361-0.11733 0.29352-0.1991 0.31092-0.1817s-0.0301 0.25304-0.10547 0.52365c-0.0754 0.27062-0.18789 0.70644-0.24997 0.9685-0.0621 0.26206-0.14538 0.52788-0.18509 0.59071-0.12333 0.19514-0.90359 0.34725-1.8232 0.35541-0.85649 0.008-1.0898-0.0203-1.5573-0.18629-0.41999-0.14911-0.71227-0.33452-1.0598-0.67228-0.20916-0.20329-0.29042-0.2544-0.31259-0.19663-0.0455 0.11863 0.58731 0.6473 1.0927 0.91287 0.48346 0.25404 1.6879 0.35875 2.5945 0.22557zm0.34864-0.4708c0.43344-0.098 0.53326-0.15794 0.53355-0.32032 0.00006-0.0437 0.0638-0.28804 0.14162-0.54302 0.0778-0.25498 0.13029-0.47479 0.11662-0.48846-0.0137-0.0137-0.23785 0.0823-0.49816 0.21318-0.76266 0.38358-1.5356 0.437-2.1123 0.14598-0.42588-0.21491-0.74228-0.69731-0.95028-1.4489-0.18156-0.65598-0.20076-2.5206-0.034-3.3005 0.0852-0.39855 0.29461-0.80899 0.52624-1.0316 0.27414-0.2634 0.57492-0.34656 1.1186-0.3093 0.34362 0.0236 0.49372 0.065 0.8203 0.22634 0.21985 0.10863 0.40951 0.18772 0.42146 0.17577 0.012-0.012 0.008-0.28958-0.01-0.61696-0.0365-0.69177 0.0644-0.61296-0.88896-0.69446-1.2872-0.11004-2.0941 0.13986-2.8168 0.87243-0.26771 0.27136-0.44397 0.5109-0.59083 0.803-0.39735 0.79028-0.4203 0.91297-0.43513 2.3257-0.0129 1.2296 0.0273 1.6543 0.16481 1.7392 0.0283 0.0175 0.0515 0.0787 0.0515 0.1361 0 0.17009 0.31118 0.73867 0.5997 1.0958 0.44106 0.54586 0.86336 0.83089 1.4999 1.0124 0.50924 0.14518 1.716 0.14909 2.3418 0.008zm-1.6587-2.9176c0.39478-0.36727 0.71888-0.52802 1.7045-0.84541 1.3409-0.43181 1.9472-0.64235 2.0602-0.71542 0.10944-0.0708 0.11522-0.11277 0.11689-0.84966l0.002-0.77521-0.16188 0.0324c-0.22331 0.0447-0.47997 0.25974-1.1298 0.9468-0.64085 0.67753-0.72674 0.69345-0.54884 0.10171 0.063-0.2097 0.10491-0.38816 0.093-0.39658-0.0119-0.008-0.1407-0.10971-0.28629-0.22508-0.72576-0.57516-1.0258-0.71159-1.5647-0.71159-0.28094 0-0.31599 0.0139-0.46665 0.18553-0.2994 0.341-0.35101 0.64065-0.35101 2.038 0 1.2191 0.0277 1.5353 0.1347 1.5353 0.0293 0 0.20842-0.14434 0.39806-0.32076zm14.426-5.4763c-0.035-1.5512-0.048-1.7209-0.15337-2.0112-0.0633-0.17439-0.18487-0.38682-0.27011-0.47207l-0.155-0.155-0.32557 0.30142c-0.37906 0.35093-0.71248 0.53308-1.1758 0.64231-0.42502 0.10021-0.64832 0.0993-1.2623-0.005-0.62297-0.1058-0.90963-0.22498-1.4764-0.61381-0.2464-0.16903-0.47401-0.30732-0.50579-0.30732-0.0895 0-0.35074 0.30263-0.66141 0.76631-0.32933 0.4915-0.86687 1.5926-0.82753 1.6952 0.0176 0.0458 0.15295 0.0779 0.3878 0.0918l0.36081 0.0215 0.31531-0.31293c0.52783-0.52385 1.0631-0.83746 1.6332-0.95698 0.43816-0.0918 1.1766-0.0363 1.5798 0.11888 1.0272 0.39536 1.8988 1.383 2.4014 2.7214 0.0524 0.13966 0.11288 0.23496 0.13429 0.21177 0.0214-0.0232 0.0217-0.80452 0.00067-1.7363zm-11.81 0.57808c0.061-0.39959 0.12093-0.74287 0.13328-0.76285 0.0123-0.02 0.17915-0.004 0.37066 0.0353 0.24885 0.0512 0.70641 0.0676 1.6036 0.0576l1.2554-0.014 0.19377-0.59763c0.22832-0.70419 0.77377-1.8491 1.1216-2.3544 0.13551-0.19683 0.24638-0.37744 0.24638-0.40136 0-0.0454-0.6042-0.29364-1.5088-0.62003-0.66938-0.24152-1.8979-0.53961-2.6202-0.63578-0.62372-0.0831-2.4303-0.0987-2.9651-0.0257-0.8681 0.1185-1.1758 0.17269-1.6941 0.29838-0.82159 0.19923-1.651 0.46307-1.6784 0.53389-0.0132 0.0342 0.0966 0.30814 0.24394 0.60882 0.55014 1.1226 0.72137 2.4748 0.44483 3.5126-0.0497 0.18667-0.0751 0.35477-0.0563 0.37357s0.13673-0.0491 0.26207-0.1508c0.48675-0.39503 1.241-0.66242 2.0088-0.71216 0.40077-0.026 1.6563 0.0738 2.1956 0.17452 0.13663 0.0255 0.17937 0.27018 0.17937 1.027 0 0.51107 0.0404 0.68282 0.11397 0.48405 0.0212-0.0575 0.0885-0.43141 0.14948-0.831zm-12.354 0.20318c0.4273-0.76696 1.2566-1.543 2.0355-1.9048 0.26137-0.12139 0.91424-0.26723 1.2124-0.27082 0.34296-0.004 0.94115 0.14214 1.2793 0.31281 0.50806 0.25644 0.74234 0.44613 1.1709 0.94805 0.12189 0.14275 0.21755 0.21377 0.24684 0.18327 0.14968-0.1559 0.15591-1.4401 0.01-2.0521-0.0712-0.29867-0.3757-0.95938-0.536-1.1632l-0.1116-0.14187-0.27256 0.13812c-0.41342 0.2095-1.1809 0.6928-1.6431 1.0347-0.4785 0.35395-0.75546 0.4879-1.3072 0.63219-1.0517 0.27506-1.938 0.0154-2.7596-0.80843-0.43099-0.43217-0.62369-0.75881-0.75937-1.2872-0.21892-0.85255 0.0566-1.9652 0.67058-2.7082 0.11314-0.13691 0.18686-0.26503 0.16382-0.2847-0.023-0.0197-0.16794-0.1511-0.32201-0.29205l-0.28011-0.25628-0.29364 0.28722c-0.36862 0.36057-1.0057 1.146-1.4587 1.7984-0.40388 0.58166-1.1022 1.7144-1.1022 1.788 0 0.0277 0.12508 0.0911 0.27794 0.14076 0.64894 0.21095 1.1021 0.49999 1.6631 1.0607 0.56398 0.56373 0.86974 0.98768 1.2214 1.6935 0.16932 0.33988 0.48906 1.1986 0.57657 1.5485 0.009 0.0364 0.0263 0.0662 0.0383 0.0662 0.0119 0 0.13777-0.20828 0.2796-0.46285zm2.0677-2.8222c0.32597-0.11008 0.50286-0.21158 1.2957-0.74349 1.8975-1.273 3.9317-2.083 6.0268-2.3998 0.90119-0.13627 1.073-0.14887 2.0382-0.14949 1.2175-0.00078 1.6691 0.0391 2.6471 0.23385 1.8891 0.37617 3.8955 1.2452 5.5775 2.4159 0.96304 0.67027 2.2979 0.73554 3.0516 0.1492 0.47162-0.36688 0.75985-0.81505 0.93517-1.4541 0.30903-1.1264-0.19466-2.083-1.5492-2.9421-1.7539-1.1124-3.0762-1.7584-4.9974-2.4412-0.34552-0.12281-1.5965-0.43152-2.238-0.55232l-0.59684-0.11237-0.33429 0.28019c-0.18385 0.1541-0.40114 0.32853-0.48287 0.38762l-0.14858 0.10743 0.22182 1.1896c0.122 0.65429 0.27986 1.4263 0.35081 1.7156 0.0709 0.28928 0.11849 0.53646 0.10565 0.5493-0.0128 0.0128-0.21555-0.008-0.45048-0.046-0.36165-0.0587-0.43013-0.0861-0.44664-0.17872-0.0834-0.46771-0.13886-0.8043-0.19253-1.1682-0.0789-0.53511-0.0893-0.56919-0.16513-0.54391-0.0521 0.0174-0.60791 1.2604-0.81977 1.8333-0.0528 0.14285-0.0876 0.16652-0.24504 0.16652-0.1584 0-0.19233-0.0235-0.24832-0.17206-0.0357-0.0946-0.19108-0.45794-0.34536-0.80735-0.15429-0.34942-0.33103-0.75269-0.39277-0.89617-0.0666-0.15488-0.1312-0.24092-0.15891-0.21177-0.0405 0.0427-0.16182 0.82082-0.25375 1.6281-0.0346 0.3039-0.0931 0.33757-0.6303 0.36275-0.29853 0.014-0.3625 0.003-0.35583-0.0624 0.004-0.0437 0.11956-0.60352 0.25573-1.2441 0.13618-0.64059 0.28437-1.3384 0.32932-1.5508 0.045-0.21234 0.0728-0.39102 0.0619-0.39706-0.0109-0.006-0.1523-0.0771-0.31423-0.15783-0.16192-0.0808-0.45305-0.27852-0.64694-0.43946-0.40094-0.3328-0.30218-0.32577-1.3086-0.0932-1.6724 0.3865-3.6251 1.1206-5.2941 1.9903-1.6018 0.83463-1.9066 1.0288-2.3842 1.5187-0.77393 0.79394-1.0694 1.8256-0.79072 2.7612 0.1344 0.45131 0.51224 0.91942 1.0057 1.246 0.5173 0.34233 1.2779 0.43431 1.8879 0.22831zm0.81743-1.8638c-0.21471-0.3274-0.4428-0.67866-0.50689-0.78057-0.0641-0.10191-0.3232-0.49856-0.5758-0.88145-0.25261-0.38288-0.45929-0.72076-0.45929-0.75084 0-0.0301 0.0449-0.0689 0.0998-0.0864 0.11058-0.0351 1.1177-0.6386 1.4687-0.88011 0.12326-0.0848 0.2445-0.15419 0.26942-0.15419 0.0481 0 0.38562 0.41835 0.38562 0.47801 0 0.0194-0.2378 0.17585-0.52845 0.34773-0.29064 0.17187-0.52888 0.33927-0.52941 0.372-0.001 0.0757 0.25591 0.53823 0.32187 0.579 0.0273 0.0169 0.13854-0.037 0.24722-0.11959 0.10867-0.0826 0.33727-0.24392 0.50798-0.35839l0.31039-0.20812 0.15172 0.18262c0.14283 0.17193 0.23883 0.35997 0.19851 0.38883-0.01 0.007-0.23844 0.15297-0.50777 0.32413-0.26934 0.17116-0.48971 0.34452-0.48971 0.38524 0 0.0812 0.29845 0.5728 0.56912 0.93745 0.0946 0.12749 0.17206 0.26796 0.17206 0.31215 0 0.0442-0.10519 0.142-0.23375 0.21734-0.12856 0.0753-0.2625 0.17164-0.29766 0.214-0.0351 0.0424-0.0908 0.0769-0.12361 0.0767-0.0328-0.00016-0.23536-0.26819-0.45006-0.59559zm16.413 0.17353c-0.17922-0.11584-0.32585-0.22932-0.32585-0.25218 0-0.0229 0.0805-0.16113 0.17893-0.30727 0.0984-0.14614 0.27982-0.45168 0.40312-0.67899l0.22418-0.4133-0.11751-0.88206c-0.16241-1.219-0.17846-1.385-0.13396-1.385 0.0214 0 0.12949 0.0718 0.2403 0.15957 0.11082 0.0878 0.28534 0.19461 0.38783 0.23743 0.10248 0.0428 0.20073 0.10115 0.21833 0.12962 0.0176 0.0285 0.0386 0.33808 0.0467 0.68802 0.008 0.34994 0.0286 0.65011 0.0455 0.66705 0.0169 0.0169 0.24173-0.0738 0.49955-0.20164 0.83234-0.41271 0.76084-0.40311 1.2371-0.1662 0.43292 0.21532 0.50475 0.30766 0.30368 0.39034-0.0655 0.0269-0.32162 0.13667-0.56912 0.24383s-0.66441 0.28502-0.92647 0.39523c-0.46579 0.1959-0.48091 0.20791-0.67482 0.53592-0.1091 0.18454-0.28212 0.49634-0.38449 0.69288-0.10238 0.19655-0.21788 0.35736-0.25667 0.35736-0.0388 0-0.21718-0.0948-0.3964-0.21061zm-14.172-0.63954c-0.0191-0.0308-0.01-0.25118 0.0212-0.4897 0.052-0.4044 0.0732-0.68333 0.13941-1.8366 0.0142-0.2475 0.0422-0.67633 0.0621-0.95294 0.0199-0.27662 0.0306-0.52523 0.0236-0.55247-0.0422-0.16491 0.0596-0.28659 0.30767-0.36773 0.14409-0.0471 0.28567-0.0857 0.31462-0.0857 0.0289 0 0.56051 0.50672 1.1812 1.126 0.62073 0.61932 1.2656 1.2489 1.433 1.399 0.16743 0.15015 0.30442 0.29481 0.30442 0.32146 0 0.0642-0.82685 0.33508-0.9126 0.29895-0.0367-0.0155-0.13829-0.12163-0.22564-0.23589-0.20046-0.26218-0.32965-0.29886-0.58946-0.16736-0.11256 0.057-0.3825 0.16741-0.59987 0.24541s-0.42582 0.16723-0.46324 0.19828c-0.0374 0.031-0.0704 0.16669-0.0733 0.30144-0.009 0.41942-0.0418 0.46679-0.46227 0.66803-0.44159 0.21136-0.41501 0.20388-0.46082 0.12975zm1.2139-1.8407c0.0149-0.0241 0.17114-0.0874 0.34724-0.14074 0.17609-0.0533 0.32017-0.12103 0.32017-0.15046 0-0.0776-0.74706-0.77678-0.83-0.77678-0.0536 0-0.07 0.13031-0.07 0.55589 0 0.51495 0.008 0.55588 0.10276 0.55588 0.0565 0 0.11494-0.0197 0.12983-0.0438zm11.335 1.6062c-0.51825-0.24521-0.85192-0.38378-1.2044-0.50016-0.22751-0.0751-0.35735-0.14651-0.35735-0.1965 0-0.0432 0.0461-0.19014 0.10254-0.32657 0.22074-0.53393 0.97507-2.5369 1.0355-2.7495 0.0412-0.14507 0.0776-0.14729 0.30162-0.0184 0.0963 0.0554 0.25223 0.1168 0.34653 0.13643 0.0943 0.0196 0.18633 0.0597 0.20451 0.0892 0.0182 0.0294-0.0277 0.2003-0.10192 0.37975-0.0742 0.17944-0.1932 0.48111-0.26437 0.67038-0.0712 0.18926-0.22607 0.59426-0.34423 0.9-0.11816 0.30573-0.22225 0.58704-0.23132 0.62513-0.0172 0.0722 0.79389 0.43369 0.97316 0.43369 0.11257 0 0.12093 0.10966 0.0283 0.37059-0.078 0.21962-0.13706 0.31883-0.18719 0.31444-0.0201-0.002-0.1557-0.0596-0.30129-0.12846zm-2.8451-0.9749c-0.19629-0.0509-0.36963-0.10526-0.38519-0.12082-0.0156-0.0156 0.0303-0.26393 0.10198-0.55193 0.27554-1.1075 0.61364-2.5594 0.61364-2.6352 0-0.16256 0.15935-0.15378 0.88073 0.0485 0.0416 0.0117 0.0205 0.16901-0.0685 0.51055-0.18422 0.70721-0.58922 2.4768-0.60965 2.6638-0.0212 0.19443-0.0769 0.20332-0.53304 0.0851zm-19.225 1.9933c0.50366-0.99758 1.4785-2.3689 2.3857-3.356 0.27139-0.29532 0.49344-0.55572 0.49344-0.57866 0-0.057-0.33618-0.54899-0.37628-0.55069-0.0322-0.001-0.63444 0.60333-0.94768 0.95158-0.37389 0.41568-1.0052 1.2275-1.2799 1.6459-0.51351 0.78206-1.1549 1.887-1.1549 1.9896 0 0.0285 0.1489 0.076 0.33088 0.10562 0.18199 0.0296 0.34835 0.0576 0.3697 0.0622 0.0214 0.005 0.10196-0.11666 0.17914-0.26953zm32.579 0.0839c0-0.0945-0.47815-0.97152-0.89005-1.6324-0.58243-0.93452-0.96128-1.4165-1.8894-2.4038-0.63713-0.67778-0.65292-0.69322-0.70947-0.69322-0.0484 0-0.42876 0.52915-0.42876 0.59645 0 0.0163 0.13698 0.16933 0.30441 0.34011 1.002 1.0221 1.868 2.1887 2.4954 3.3615 0.3015 0.56363 0.29401 0.55877 0.81342 0.52816 0.22617-0.0133 0.30441-0.0382 0.30441-0.09671zm-1.3256 0.022c-0.003-0.10517-0.88581-1.5177-1.3215-2.115-0.21838-0.2994-0.65107-0.80663-0.96154-1.1272l-0.56449-0.58283-0.32219 0.31765c-0.17721 0.17471-0.32223 0.33763-0.32228 0.36205-0.00004 0.0244 0.10197 0.16106 0.22671 0.30366 0.26897 0.30747 0.48177 0.70993 0.58653 1.1093 0.0994 0.37888 0.0785 1.1727-0.0381 1.4476-0.15761 0.37161-0.23532 0.35089 1.316 0.35089 1.0882 0 1.4025-0.0149 1.4009-0.0662zm-27.095-3.3567c0.0532-0.0482 0.0968-0.11486 0.0968-0.14816s-0.13234-0.19041-0.29408-0.34915c-0.60189-0.5907-0.99045-1.261-1.1554-1.9932-0.10974-0.48716-0.11119-1.4029-0.003-1.9214 0.22411-1.0742 0.98586-2.0338 2.0488-2.5809 0.39552-0.20356 0.72727-0.28834 0.72727-0.18585-0.00001 0.0567-0.34345 0.32315-0.48744 0.37811-0.36477 0.13924-1.0234 0.87664-1.3527 1.5145-0.0514 0.0996-0.17273 0.56468-0.25544 0.97941-0.0824 0.41314-0.0337 1.071 0.1067 1.4426 0.23469 0.62111 0.38074 0.76858 0.26218 0.26473-0.14714-0.62525-0.0614-1.4586 0.20665-2.0098 0.2194-0.45108 0.41186-0.71187 0.8904-1.2065 0.37173-0.38426 0.57186-0.54156 0.95995-0.7545 0.68621-0.37651 1.1714-0.50192 1.822-0.47097 0.34743 0.0165 0.57425 0.002 0.71076-0.0465 0.16758-0.0591 0.21019-0.0591 0.25955 0.00043 0.0445 0.0536 0.0328 0.12018-0.0475 0.27-0.17807 0.33225-0.19367 0.6117-0.0502 0.89901 0.16821 0.33682 0.41752 0.50026 0.75942 0.49784 0.30454-0.002 0.43476-0.0633 0.6282-0.29517 0.17416-0.20874 0.24627-0.39852 0.24627-0.64812 0-0.24104-0.19024-0.62842-0.37439-0.76238-0.26007-0.18918-1.5146-0.44541-2.6433-0.53987-0.43063-0.036-1.5166 0.0944-1.9568 0.23501-1.5505 0.49534-2.7046 1.9289-2.9196 3.6267-0.11603 0.91603 0.13318 1.9055 0.70134 2.7846 0.19139 0.29613 0.91668 1.107 0.99019 1.107 0.0146 0 0.0702-0.0394 0.1234-0.0876zm5.1384-5.8243c-0.105-0.041-0.223-0.3108-0.223-0.5093 0-0.51826 0.5991-0.63721 0.74566-0.14804 0.13113 0.43768-0.15943 0.80451-0.52177 0.65872zm6.8919 5.3693c0.24781-0.58519 0.56974-1.3156 0.63694-1.4451 0.0432-0.0833 0.0685-0.16161 0.0562-0.17396-0.0123-0.0123-0.13108 0.005-0.26385 0.0383-0.13278 0.0334-0.49104 0.0618-0.79615 0.0631-0.32007 0.001-0.55474 0.0239-0.55474 0.0534 0 0.0281 0.1286 0.31848 0.28577 0.6452 0.15718 0.32672 0.32273 0.68338 0.36789 0.79257 0.10083 0.24378 0.17293 0.2509 0.26798 0.0265zm11.824-0.0466c0.6955-0.76641 1.1391-1.8056 1.1926-2.794 0.0696-1.2847-0.68026-2.8764-1.7119-3.6337-0.36481-0.2678-1.0265-0.57713-1.4794-0.69161-0.31985-0.0808-0.5875-0.10016-1.3765-0.0993-0.98328 0.001-1.4126 0.0562-2.0238 0.26022-0.12444 0.0415-0.31278 0.0912-0.41854 0.1104-0.32119 0.0582-0.51795 0.21465-0.65976 0.5244-0.11672 0.25495-0.12432 0.31104-0.0733 0.54126 0.0853 0.38461 0.26762 0.62646 0.55514 0.73627 0.23608 0.0902 0.25278 0.0898 0.49168-0.009 0.28252-0.11708 0.46188-0.37613 0.51827-0.74853 0.0274-0.18115 0.007-0.28077-0.10429-0.50821-0.23353-0.47733-0.17341-0.58341 0.15506-0.27361 0.23176 0.21857 0.43368 0.26638 0.82207 0.19464 0.15807-0.0292 0.56137-0.0468 0.89622-0.0391 0.64346 0.0148 1.0204 0.10435 1.6367 0.389 1.6587 0.76611 2.6783 2.7631 2.2336 4.3748-0.12155 0.44046-0.62947 1.5173-0.80325 1.703-0.0989 0.10569-0.13063 0.18188-0.0757 0.18188 0.0146 0 0.11589-0.0984 0.225-0.21862zm-6.1041-5.4803c-0.16706-0.18026-0.18653-0.63924-0.033-0.77818 0.29665-0.26846 0.71023 0.17234 0.5855 0.62404-0.0864 0.31297-0.33979 0.38365-0.55249 0.15414zm5.2289 4.984c0.82757-0.97077 1.0127-1.4088 1.0058-2.3798-0.004-0.57798-0.005-0.58164-0.24267-1.0588-0.15773-0.31658-0.329-0.56745-0.50546-0.74035-0.29135-0.28547-0.40005-0.29471-0.22268-0.0189 0.36981 0.57501 0.58508 1.264 0.59271 1.8972 0.0104 0.86204-0.28109 1.5399-0.97119 2.2586-0.27244 0.28371-0.30833 0.34328-0.24953 0.41412 0.11283 0.13596 0.21412 0.0724 0.593-0.37202zm-21.162-0.17369c1.8035-1.0227 4.3113-1.9889 6.0088-2.3152 0.65103-0.12513 0.68341-0.15506 0.4766-0.44055-0.19405-0.26788-0.33567-0.61431-0.42225-1.033-0.0728-0.35182-0.006-0.33844-0.71612-0.14399-1.6759 0.45908-3.6196 1.3477-5.0824 2.3235-0.41323 0.27567-1.4955 1.068-1.5522 1.1363-0.0442 0.0533 0.0271 0.16025 0.30637 0.45956l0.36398 0.39015 0.14977-0.0984c0.0824-0.0541 0.29272-0.17943 0.46742-0.2785zm20.588-0.0691c0.19283-0.20646 0.35061-0.41575 0.35061-0.46508 0-0.12273-0.90667-0.79732-2.0301-1.5105-0.4954-0.31447-2.0627-1.0985-2.6287-1.315-1.2248-0.46846-2.451-0.82711-2.6139-0.76457-0.0517 0.0199-0.0861 0.0935-0.0861 0.18477 0 0.28009-0.33692 1.1683-0.47571 1.254-0.0295 0.0182-0.0537 0.0765-0.0537 0.12947 0 0.0801 0.0735 0.10715 0.43677 0.16087 1.0184 0.15057 2.7672 0.67219 3.825 1.1409 0.84864 0.37603 2.3804 1.1996 2.7204 1.4627 0.0694 0.0537 0.14395 0.0977 0.16557 0.0977 0.0216 0 0.19708-0.16892 0.38992-0.37537zm-21.732-1.074c1.0487-0.85277 3.1266-2.0351 4.5588-2.5939 0.77099-0.30083 1.5886-0.57929 2.0382-0.69424l0.47648-0.12179 0.0462-0.35212c0.0254-0.19367 0.0346-0.36366 0.0205-0.37777-0.0243-0.0243-1.128 0.24441-1.3241 0.32245-0.051 0.0203-0.137 0.13558-0.19117 0.25621-0.1237 0.27544-0.4442 0.60524-0.68666 0.70654-0.2739 0.11444-0.60234 0.0956-0.92744-0.0532l-0.28557-0.13074-0.68966 0.33211c-1.1701 0.56348-2.1224 1.1368-3.3882 2.0396-0.32039 0.22855-0.33083 0.24325-0.29956 0.42209 0.0464 0.26543 0.16563 0.52941 0.2391 0.52941 0.0346 0 0.22049-0.12808 0.41299-0.28462zm22.458 0.0331c0.0306-0.0801 0.0746-0.24722 0.0979-0.37143 0.0407-0.21686 0.0347-0.23179-0.1495-0.37555-0.68836-0.53717-2.0804-1.3861-3.2104-1.9578l-0.94401-0.47765-0.24185 0.12875c-0.31984 0.17026-0.52224 0.20313-0.79636 0.12932-0.29902-0.0805-0.71394-0.46824-0.81024-0.75711l-0.072-0.2154-0.748-0.1943c-0.412-0.1069-0.762-0.1814-0.778-0.1657-0.0157 0.0157-0.0286 0.18954-0.0286 0.38619v0.35756l0.17205 0.0346c0.60326 0.12139 2.4801 0.73411 2.6584 0.86785 0.0301 0.0226 0.1382 0.0728 0.24011 0.11152 0.49951 0.18975 2.3822 1.1829 2.929 1.5451 0.58746 0.38912 1.0941 0.75058 1.2798 0.91304 0.25719 0.22503 0.33007 0.23294 0.40227 0.0437zm-10.62-0.2025c1.0818-0.2583 1.9682-1.1019 2.3446-2.2313 0.12055-0.36177 0.1376-0.5018 0.14043-1.153 0.003-0.64037-0.0133-0.78888-0.11801-1.0919-0.31441-0.90961-0.94098-1.6078-1.8111-2.0181-0.53714-0.25329-0.88634-0.32983-1.4824-0.32493-0.81087 0.007-1.4891 0.2472-2.1015 0.74525-0.35207 0.28636-0.42215 0.36285-0.67746 0.73945-0.49279 0.72693-0.7056 1.7702-0.53928 2.6438 0.37197 1.9538 2.2759 3.1608 4.2447 2.6907zm-1.472-0.28863c-1.1775-0.29855-2.1707-1.3176-2.4134-2.4762-0.12906-0.61623-0.017-1.4815 0.26283-2.0301 0.50256-0.98509 1.4811-1.6679 2.5386-1.7714 0.26882-0.0263 0.35966-0.0167 0.40939 0.0432 0.11222 0.13522-0.0339 0.24104-0.38428 0.27831-1.2395 0.13185-2.2149 1.0218-2.4895 2.2714-0.101 0.45955-0.081 0.99093 0.0545 1.4472 0.27404 0.92282 1.0525 1.6467 2.044 1.9007 0.40916 0.10482 1.167 0.0775 1.5557-0.0561 0.33496-0.11511 0.80271-0.47197 0.99614-0.75999 0.12748-0.18981 0.16392-0.21403 0.25147-0.16718 0.16102 0.0862 0.12195 0.22964-0.14271 0.524-0.51997 0.57833-1.0213 0.79669-1.899 0.82712-0.3203 0.0111-0.673-0.003-0.78378-0.0309zm0.35501-2.2688c-0.25725-0.11835-0.42217-0.33163-0.49005-0.63375-0.0897-0.39907 0.0358-0.70346 0.38252-0.9283 0.42533-0.27579 0.96209-0.12443 1.1979 0.33781 0.37448 0.73403-0.361 1.5598-1.0904 1.2242zm-10.845 1.6225c0.92319-0.66533 2.5354-1.6165 3.3455-1.9738 0.18199-0.0803 0.33052-0.17245 0.33008-0.20487-0.003-0.18478-0.2522-0.30366-0.89299-0.42521-0.54205-0.10283-0.77627-0.10383-1.2413-0.005-0.73597 0.15594-1.3116 0.58457-1.7214 1.2819-0.25337 0.43113-0.37007 0.80642-0.41525 1.3354-0.04 0.46884-0.0669 0.4692 0.59538-0.008zm22.771-0.0802c-0.10484-0.99056-0.79022-2.0824-1.5362-2.4473-0.5932-0.29016-1.2216-0.33848-2.0061-0.15428-0.46748 0.10975-0.67579 0.23014-0.67579 0.39055 0 0.0479 0.23975 0.19524 0.61303 0.37675 0.71648 0.3484 2.0783 1.1594 2.9076 1.7314 0.3203 0.22096 0.61553 0.40299 0.65608 0.40452 0.0583 0.002 0.067-0.0607 0.0415-0.30164z"/>
 </g>
</svg>
