<?xml version="1.0" encoding="UTF-8" standalone="no"?>
<!-- Created with Inkscape (http://www.inkscape.org/) -->
<svg id="svg2" xmlns:rdf="http://www.w3.org/1999/02/22-rdf-syntax-ns#" xmlns="http://www.w3.org/2000/svg" height="45" width="67.5" version="1.1" xmlns:cc="http://creativecommons.org/ns#" xmlns:dc="http://purl.org/dc/elements/1.1/">
 <metadata id="metadata7">
  <rdf:RDF>
   <cc:Work rdf:about="">
    <dc:format>image/svg+xml</dc:format>
    <dc:type rdf:resource="http://purl.org/dc/dcmitype/StillImage"/>
    <dc:title/>
   </cc:Work>
  </rdf:RDF>
 </metadata>
 <g id="g4383">
  <g id="g4316">
   <rect id="rect2990" opacity="0" height="45" width="67.5" y="0" x="3.5527e-15"/>
  </g>
  <path id="path3430" d="m22.902 44.253c0.21975-0.41061 5.1124-5.2294 10.872-10.708 5.7601-5.479 10.808-10.338 11.218-10.797 0.70166-0.78603 1.1094-0.83504 6.9456-0.83504 3.6382 0 6.2002 0.15302 6.2002 0.3703 0 0.20367-5.2386 5.3922-11.641 11.53l-11.641 11.16-6.1768 0.01346c-5.9582 0.01291-6.1627-0.01304-5.7772-0.73312zm22.845-1.7317c-1.363-1.363-2.4783-2.665-2.4783-2.8933 0-0.22828 1.4025-1.6794 3.1167-3.2247l3.1167-2.8096 2.4563 2.6703c1.351 1.4687 3.7649 4.035 5.3642 5.703l2.9079 3.0326h-6.0026-6.0026l-2.4783-2.4783zm-31.734-22.467 0.10396-10.859 3.6196-0.11251 3.6196-0.11251v2.1669c0 1.7057 0.13043 2.1669 0.61268 2.1669 0.92495 0 2.1098-0.70966 4.3534-2.6074 2.1853-1.8484 2.8936-3.1437 2.0214-3.6964-0.29204-0.18505-5.1533-0.33916-10.803-0.34245-5.6495-0.0033-10.272-0.10985-10.272-0.23679s1.2577-1.6237 2.7949-3.3261l2.795-3.0937h11.066 11.066l1.218 1.0249c1.742 1.4658 2.3643 2.9188 2.36 5.51-0.005 2.787-1.2247 5.6058-3.4899 8.0632-0.87628 0.95067-1.5933 1.8412-1.5933 1.9789s1.4967 1.9076 3.3261 3.933c1.8294 2.0255 3.3244 4.0062 3.3223 4.4015-0.004 0.66251-5.0413 5.6102-5.7124 5.6102-0.16245 0-3.1688-2.8545-6.6809-6.3432l-6.3855-6.3432v6.5389 6.5389h-3.7236-3.7236l0.10395-10.859z"/>
 </g>
</svg>
