<?xml version="1.0" encoding="UTF-8" standalone="no"?>
<!-- Created with Inkscape (http://www.inkscape.org/) -->
<svg id="svg2" xmlns:rdf="http://www.w3.org/1999/02/22-rdf-syntax-ns#" xmlns="http://www.w3.org/2000/svg" height="54" width="99" version="1.1" xmlns:cc="http://creativecommons.org/ns#" xmlns:dc="http://purl.org/dc/elements/1.1/">
 <metadata id="metadata7">
  <rdf:RDF>
   <cc:Work rdf:about="">
    <dc:format>image/svg+xml</dc:format>
    <dc:type rdf:resource="http://purl.org/dc/dcmitype/StillImage"/>
    <dc:title/>
   </cc:Work>
  </rdf:RDF>
 </metadata>
 <g id="g4754">
  <rect id="rect2990" opacity="0" height="54" width="99" y="0" x="0"/>
  <path id="path3466" d="m39.668 48.469c-0.9363-1.0664-1.282-2.7439-1.7753-8.6148-0.099-1.1782-0.24483-2.7619-0.32405-3.5193-0.0793-0.75742-0.33932-3.2914-0.57799-5.631s-0.56157-4.3815-0.71756-4.5375c-0.30307-0.30307-1.1133 0.68859-2.0332 2.4885-0.43516 0.85146-0.56847 2.2492-0.72968 7.6507l-0.19726 6.6089-0.84142 0.09682c-1.1697 0.13459-1.2752-0.27947-1.8914-7.4275-0.51721-5.9999-0.54456-6.1363-1.5649-7.8037-0.57118-0.93339-1.4414-2.4545-1.9339-3.3802-0.49247-0.92573-1.2881-2.0963-1.7681-2.6012-0.47997-0.50494-0.90662-1.1246-0.94813-1.3771-0.0415-0.25247-0.16097-0.9066-0.26547-1.4536l-0.19-0.99459h5.6782c3.568 0 5.7506-0.11722 5.8731-0.31542 0.22711-0.36746-0.37451-6.6675-0.79081-8.2812-0.15592-0.60445-0.57361-1.3615-0.92818-1.6824-0.35457-0.32088-0.8458-0.97235-1.0916-1.4477-0.90902-1.7579-1.0607-1.7384 13.542-1.7384 15.483 0 14.143-0.35784 13.597 3.6315-0.18044 1.3178-0.24745 2.5891-0.14891 2.8251 0.0985 0.23595 0.72455 0.84214 1.3911 1.3471 2.4752 1.875 3.6008 5.6409 2.5931 8.675-0.39791 1.198-0.94761 1.9536-2.3337 3.2079-0.99726 0.90247-1.8082 1.7654-1.802 1.9176 0.006 0.15219 0.4657 0.62099 1.0213 1.0418 1.1229 0.85052 3.6014 3.74 4.9219 5.738 0.47277 0.71534 1.0174 1.3006 1.2103 1.3006 0.19289 0 1.2346-0.89186 2.315-1.9819 1.8463-1.8629 1.9974-1.9519 2.5159-1.4827 0.90113 0.81551 0.6454 1.484-1.1072 2.8946-2.1311 1.7152-2.546 2.4307-2.0459 3.5283 0.80264 1.7616 4.1196 5.962 5.4082 6.8486 2.1415 1.4734 1.6849 2.1791-0.86878 1.343-1.3084-0.42837-2.1165-1.0456-4.4367-3.3886-1.5603-1.5757-3.0239-2.8648-3.2524-2.8648-0.22854 0-1.2496 0.84447-2.269 1.8766-1.8636 1.8869-2.5855 2.1292-3.0142 1.0118-0.12986-0.33843 0.44497-1.1304 1.8431-2.5393 1.1974-1.2066 2.0318-2.3089 2.0318-2.6839 0-0.8399-4.8359-8.07-5.3976-8.07-0.58491 0-0.60593 0.10552-1.0365 5.2025-0.20618 2.4406-0.6155 6.6328-0.9096 9.316-0.7374 6.7277-0.11226 6.2914-9.014 6.2914h-6.8368l-0.90002-1.0251zm14.714-0.453c0.63833-0.70535 1.0178-2.9033 1.277-7.3961 0.11168-1.9356 0.45598-5.585 0.76512-8.1097 0.4944-4.0378 0.50857-4.6733 0.11773-5.279-0.50393-0.78094-0.95734-0.84972-1.7308-0.26256-0.464 0.35222-0.53555 0.9642-0.53555 4.5807v4.1741h-1.5301-1.5301v-12.394-12.394h3.1959c2.9557 0 3.2317-0.05114 3.6723-0.68015 0.57167-0.81619 0.64768-3.9226 0.10916-4.4611-0.50728-0.50728-10.983-0.50772-12.385-0.000522l-1.0141 0.36671-0.0787 19.908-0.0786 19.908-1.6832 0.07806c-1.472 0.06825-1.616 0.02565-1.1476-0.33977 0.67827-0.52916 0.69459-1.6856 0.0274-1.9417-0.4349-0.16689-0.41285-0.23025 0.15302-0.43957 0.88228-0.32638 0.92037-1.784 0.0525-2.0109-0.73861-0.19315-0.50623-0.70162 0.32065-0.70162 1.0354 0 0.5377-1.3211-0.78313-2.0786-0.57145-0.32773-0.55623-0.35163 0.22952-0.36032 0.72135-0.008 0.84158-0.13536 0.84158-0.8917 0-0.64647-0.1841-0.94067-0.68856-1.1004-0.67864-0.21483-0.67644-0.22281 0.15301-0.55381 0.63029-0.25152 0.84157-0.54539 0.84157-1.1705 0-0.6786-0.17168-0.87239-0.91808-1.0363-0.50494-0.1109-0.91808-0.32842-0.91808-0.48336s0.41314-0.28171 0.91808-0.28171c0.84183 0 0.91808-0.08727 0.91808-1.0508 0-0.89474-0.11501-1.0651-0.77458-1.1476-0.98051-0.12258-1.1318-0.67719-0.22-0.80668 0.3787-0.05379 0.68856-0.28352 0.68856-0.51052s0.077-0.61357 0.17126-0.85904c0.11564-0.30133-0.1015-0.51478-0.66851-0.65708l-0.83976-0.21077 0.87303-0.69614c0.97798-0.77981 0.90258-1.7121-0.13848-1.7121-0.86615 0-0.77742-0.56798 0.14342-0.91808 0.42078-0.15998 0.76506-0.50085 0.76506-0.75749s0.0266-0.5699 0.0592-0.69614c0.0325-0.12624-0.33836-0.29838-0.82422-0.38253-0.92099-0.15953-1.2574-0.74186-0.45904-0.79456 1.407-0.09286 1.4458-0.12078 1.2914-0.92857-0.0847-0.44278-0.40982-0.87197-0.72263-0.95377-0.75853-0.19836-0.72767-0.6894 0.0434-0.6894 0.86075 0 0.76081-0.75664-0.19973-1.5122-0.82955-0.65252-0.77275-1.0781 0.14482-1.0851 0.80983-0.0061 0.71842-2.1008-0.0981-2.2481-1.1918-0.21498-1.209-0.66305-0.0255-0.66305 1.0619 0 1.1512-0.06254 0.98346-0.68856-0.1015-0.37871-0.1864-0.92956-0.18869-1.2241-0.003-0.39011-0.25352-0.53555-0.92227-0.53555-0.61205 0-0.91808-0.15301-0.91808-0.45904s0.30603-0.45904 0.91808-0.45904c0.50495 0 0.91808-0.14677 0.91808-0.32614 0-0.63657-0.64054-1.51-1.1074-1.51-0.83795 0-0.24996-0.76392 0.61281-0.79617 1.1294-0.04221 1.6528-0.59052 1.2199-1.2779-0.28308-0.44949-0.9478-0.53967-4.5133-0.61231-4.7777-0.09734-5.0186 0.02907-3.7548 1.9707 0.7583 1.165 0.85523 1.6984 1.5867 8.7316l0.1812 1.7424 1.1252 0.0938c1.483 0.12362 1.5537 0.67937 0.34691 2.7261l-0.96631 1.6389 0.79624 9.1874c1.238 14.285 1.4002 15.476 2.2172 16.293 0.68055 0.68054 0.85051 0.69764 6.9377 0.69764 5.6606 0 6.2872-0.05207 6.7474-0.56062zm-21.899-14.309c-0.0713-2.453-0.176-3.0333-0.54723-3.0333-0.37416 0-0.44102 0.4026-0.36153 2.1773 0.0537 1.1975 0.14637 2.4369 0.2061 2.7542 0.0598 0.31732 0.11914 0.84549 0.13202 1.1737 0.0162 0.41246 0.12152 0.49864 0.34112 0.27905 0.18958-0.18959 0.28214-1.5409 0.22952-3.351zm0.2432-4.9506c0.18226-0.12366 1.0084-1.3265 1.8358-2.673 1.3695-2.2286 1.5045-2.6156 1.5048-4.3138 0.00045-2.7528-0.18061-2.8778-4.1685-2.8778-2.929 0-3.3288 0.06249-3.3288 0.52024 0 0.28613 0.68856 2.2686 1.5301 4.4055 0.84157 2.1369 1.5301 4.0832 1.5301 4.3252 0 0.76488 0.47875 1.0329 1.0965 0.6138zm23.966-4.892c0.55079-0.45507 0.70028-1.0874 0.99475-4.2079 0.19061-2.0198 0.35179-4.1107 0.35819-4.6465 0.0212-1.7746-1.1402-2.3868-2.941-1.5505l-0.8237 0.38253-0.002 4.8328c-0.002 4.9709 0.15617 5.6877 1.2643 5.7134 0.27591 0.0064 0.79334-0.22936 1.1498-0.52391zm-27.825 0c-0.0191-0.55328-1.4553-4.4164-1.7524-4.7135-0.43228-0.43228-0.99389-0.06499-0.99389 0.65 0 0.31201 0.48199 1.2992 1.0711 2.1937 0.5891 0.8945 1.0711 1.7328 1.0711 1.8629 0 0.13007 0.13771 0.2365 0.30602 0.2365 0.16832 0 0.30247-0.10328 0.29812-0.22952zm31.082-3.4801c0.73027-2.1986 0.26924-5.047-0.71812-4.4368-0.35707 0.22068-0.82352 5.5104-0.52806 5.9885 0.33752 0.54613 0.69882 0.09626 1.2462-1.5517z"/>
 </g>
</svg>
