<?xml version="1.0" encoding="UTF-8" standalone="no"?>
<!-- Created with Inkscape (http://www.inkscape.org/) -->
<svg id="svg2" xmlns:rdf="http://www.w3.org/1999/02/22-rdf-syntax-ns#" xmlns="http://www.w3.org/2000/svg" height="54" width="99" version="1.1" xmlns:cc="http://creativecommons.org/ns#" xmlns:dc="http://purl.org/dc/elements/1.1/">
 <metadata id="metadata7">
  <rdf:RDF>
   <cc:Work rdf:about="">
    <dc:format>image/svg+xml</dc:format>
    <dc:type rdf:resource="http://purl.org/dc/dcmitype/StillImage"/>
    <dc:title/>
   </cc:Work>
  </rdf:RDF>
 </metadata>
 <g id="g4379">
  <rect id="rect2990" opacity="0" height="54" width="99" y="0" x="0"/>
  <path id="path3646" d="m41.562 49.126c-9.168-1.929-14.783-13.058-10.854-21.512 1.376-2.9604 4.8092-6.6605 6.1801-6.6605 0.73859 0 0.96498 0.45962 0.96498 1.9592 0 0.96005-0.19672 1.2932-1.6495 2.7936-1.9316 1.9948-2.7456 3.8023-2.9943 6.6488-0.35575 4.0718 0.7495 7.0016 3.751 9.943 3.377 3.3094 7.9147 4.1255 12.762 2.2953 1.2523-0.47286 1.9618-1.0149 3.5391-2.7038 1.9388-2.076 2.5337-3.0196 2.8504-4.5205 0.0876-0.41554 0.27405-0.75553 0.41421-0.75553 0.35267 0 2.1257 2.7252 2.3442 3.603 0.43244 1.7377-3.3979 5.8807-7.1186 7.6998-3.2152 1.5719-6.5719 1.9703-10.189 1.2093zm20.246-5.7539c-0.45264-0.96729-0.91506-2.0491-1.0276-2.404-0.11254-0.35489-0.48051-1.0825-0.81771-1.6168-0.33722-0.53436-0.89059-1.5852-1.2298-2.3353-1.9492-4.3108-2.5528-5.3805-3.4007-6.0273l-0.90961-0.69379h-6.6202c-4.7766 0-6.6758-0.08995-6.8199-0.323-0.21312-0.34485-0.45372-2.8157-0.91821-9.4302-0.15917-2.2666-0.42028-5.5428-0.58025-7.2805-0.35836-3.893-0.41475-6.2779-0.1661-7.0256 0.10412-0.31309 0.6966-0.85436 1.3166-1.2028 0.92302-0.51876 1.391-0.60637 2.5825-0.48339 2.5141 0.25948 3.4274 1.2739 3.4274 3.8069 0 1.2125-0.11827 1.5065-0.9341 2.3223-0.51376 0.51376-1.1964 0.93411-1.517 0.93411-1.0988 0-1.2686 1.0487-0.76077 4.696 0.25255 1.8137 0.58836 3.539 0.74622 3.834 0.26838 0.50147 0.60866 0.53633 5.2358 0.53633h4.9487l-0.0818 1.7171-0.0818 1.7171-4.7228 0.0751c-4.4966 0.07151-4.7314 0.10225-4.9027 0.64204-0.099 0.31182-0.10078 0.98891-0.004 1.5046l0.17592 0.9377h6.5912 6.5912l1.3048 2.8161c0.71765 1.5488 1.9186 4.2746 2.6687 6.0573 0.75015 1.7827 1.6742 3.6178 2.0534 4.078l0.68945 0.83673 1.6458-0.59425c2.4651-0.89008 2.675-0.86477 3.0863 0.37218 0.39286 1.1817 0.18802 1.661-0.8471 1.9821-0.32634 0.10123-0.90243 0.39679-1.2802 0.65681-0.60791 0.41843-3.9115 1.6531-4.4232 1.6531-0.10752 0-0.56584-0.79141-1.0185-1.7587z"/>
 </g>
</svg>
