<?xml version="1.0" encoding="UTF-8" standalone="no"?>
<!-- Created with Inkscape (http://www.inkscape.org/) -->
<svg id="svg2" xmlns:rdf="http://www.w3.org/1999/02/22-rdf-syntax-ns#" xmlns="http://www.w3.org/2000/svg" viewBox="0 0 315 180" height="100%" width="100%" version="1.1" xmlns:cc="http://creativecommons.org/ns#" xmlns:dc="http://purl.org/dc/elements/1.1/">
 <metadata id="metadata8">
  <rdf:RDF>
   <cc:Work rdf:about="">
    <dc:format>image/svg+xml</dc:format>
    <dc:type rdf:resource="http://purl.org/dc/dcmitype/StillImage"/>
    <dc:title/>
   </cc:Work>
  </rdf:RDF>
 </metadata>
 <text id="line1" y="146" x="22" font-size="12.5px" style="text-anchor:start">John Smith</text>
 <text id="line2" y="157" x="22" font-size="9.375px" style="text-anchor:start">Owner</text>
 <text id="line3" y="80" x="158" font-size="11px" font-weight="bold" style="text-anchor:start">Company Name</text>
 <text id="line4" y="102" x="158" font-size="9.375px" style="text-anchor:start">123 Main Street</text>
 <text id="line5" y="113" x="158" font-size="9.375px" style="text-anchor:start">Anywhere, USA 65421</text>
 <text id="line6" y="124" x="158" font-size="9.375px" style="text-anchor:start">Phone: (800) 123-4567</text>
 <text id="line7" y="135" x="158" font-size="9.375px" style="text-anchor:start">FAX: (123) 456-7890</text>
 <text id="line8" y="146" x="158" font-size="9.375px" style="text-anchor:start">www.yourwebsite.com</text>
 <text id="line9" y="157" x="158" font-size="9.375px" style="text-anchor:start">dealership@audi.com</text>
 <g id="g4330">
  <path id="path12197" d="m34.805 53.398c-3.2756-0.68594-6.534-2.5663-8.5633-4.9415-2.6831-3.1406-3.9365-6.7487-3.7693-10.85 0.12156-2.9818 0.9608-5.5635 2.5998-7.9975 0.89008-1.3218 2.9113-3.3077 4.2891-4.2141 5.1586-3.3935 11.912-3.344 17.062 0.12517l0.79083 0.53259 1.0781-0.69744c5.1537-3.3339 11.979-3.2793 16.955 0.1356l0.66028 0.45307 1.119-0.69717c2.1997-1.3704 4.5424-2.1365 7.1602-2.3413 3.2488-0.25416 7.1021 0.79878 9.7026 2.6513l0.73594 0.52428 0.9113-0.62205c1.29-0.88054 3.0617-1.664 4.7929-2.1193 1.8725-0.4925 5.134-0.56324 6.9409-0.15055 11.808 2.6968 16.216 16.912 7.9577 25.665-1.8736 1.986-4.1878 3.4075-6.9123 4.2458-1.308 0.40244-1.566 0.4284-4.2548 0.4284-2.6746 0-2.9515-0.02746-4.222-0.41926-1.4727-0.45411-3.1285-1.2334-4.3838-2.0632l-0.79252-0.52389-1.3356 0.8385c-1.5018 0.94286-3.3281 1.6573-5.2131 2.0392-1.7764 0.35994-5.3108 0.23904-6.9513-0.23777-1.3702-0.39824-3.4076-1.3278-4.3868-2.0016-0.38352-0.26386-0.7449-0.47975-0.80309-0.47975-0.05814 0-0.60263 0.30719-1.2099 0.68265-1.293 0.79947-2.5487 1.3429-4.2269 1.8292-1.0513 0.30468-1.5628 0.35043-3.9168 0.35043-2.3615 0-2.8637-0.04525-3.929-0.35381-1.4982-0.43394-3.2615-1.2364-4.5261-2.0598l-0.95139-0.61944-1.0404 0.69779c-1.1681 0.78341-2.8673 1.5383-4.4833 1.9917-1.4126 0.39631-5.3936 0.51141-6.8851 0.19908zm5.6051-1.6992c2.1702-0.41522 4.584-1.5786 6.3836-3.0768l0.46213-0.38473 0.73935 0.61901c1.67 1.3982 4.1918 2.5269 6.529 2.9224 1.4711 0.24887 4.3395 0.09037 5.7817-0.31953 1.7279-0.49107 4.053-1.7318 5.1606-2.7536l0.41395-0.38193 0.91202 0.70178c2.7368 2.1059 5.7041 3.0238 9.2081 2.8486 2.8718-0.14367 5.4596-1.1037 7.6241-2.8285l1.0265-0.81797 0.95366 0.77413c1.4051 1.1406 3.7697 2.2486 5.6171 2.6318 1.9392 0.40236 4.776 0.32734 6.526-0.17261 4.8995-1.3997 8.6859-5.4873 9.7215-10.495 0.30487-1.4742 0.20966-4.8959-0.17528-6.2994-1.004-3.6608-3.7922-6.9902-7.2513-8.6589-2.584-1.2465-4.6213-1.5696-8.3405-1.3226-3.5663 0.23674-4.5916 0.473-5.9175 1.3633-1.0591 0.71137-1.0841 0.74334-1.1297 1.4501l-0.04667 0.72268-1.0153-0.76848c-0.55841-0.42267-1.5469-1.0357-2.1967-1.3623-2.6223-1.318-4.7373-1.6543-8.841-1.4061-3.4073 0.20607-4.2098 0.39271-5.5658 1.2944-1.0303 0.68509-1.0706 0.73558-1.1162 1.3993l-0.04731 0.68861-0.9234-0.69933c-1.321-0.998-3.159-1.877-4.869-2.325-1.947-0.51-4.934-0.528-8.191-0.049-2.2829 0.33576-2.7111 0.47938-3.8478 1.2903-0.61811 0.44092-0.65755 0.51388-0.65755 1.2164 0 0.78176-0.13062 0.91716-0.47938 0.49695-0.33176-0.39975-2.4187-1.7596-3.2956-2.1474-2.4873-1.1-4.6648-1.4063-8.2878-1.1658-3.4452 0.2287-4.4305 0.45915-5.7509 1.345-3.4192 2.2941-5.8427 6.2196-6.3842 10.341l-0.10171 0.7736 0.36814-0.87532c0.39797-0.94877 1.1159-2.2353 1.3144-2.3578 0.06781-0.04189-0.01315 0.42451-0.17953 1.0364-0.45205 1.6615-0.44787 5.0032 0.0077 6.6823 1.4308 5.2663 5.5756 9.1477 10.797 10.111 1.2015 0.22175 3.7983 0.2003 5.0637-0.04177zm-4.616-0.713c-1.4527-0.26426-3.2203-0.91139-4.4694-1.6397-1.6387-0.95464-3.783-3.1128-4.6717-4.7018-2.1766-3.892-2.2428-8.5066-0.17746-12.372 3.0683-5.7421 9.7904-8.2684 15.916-5.9819 1.3389 0.49972 3.1765 1.6075 3.8393 2.3146l0.36352 0.38777-0.73552-0.02643-0.73551-0.02643-0.74765 1.083c-1.1834 1.7144-2.1587 4.3048-2.3799 6.3208l-0.0874 0.79627 0.37768-0.87679c0.44185-1.0258 1.3644-2.7842 1.4275-2.721 0.02398 0.02398-0.10248 0.53002-0.28089 1.1245-0.45124 1.5027-0.48586 5.3561-0.06252 6.9601 0.39903 1.512 1.4504 3.6784 2.3774 4.8986 0.73549 0.96819 0.76285 1.036 0.45139 1.1196-0.18234 0.04886-0.49839 0.08985-0.70231 0.09101-0.20394 0.0012-0.7444 0.2501-1.201 0.55319-0.98799 0.65579-1.9614 1.106-3.2245 1.4912l-0.92832 0.28315 1.5472-0.0727c1.4872-0.06987 1.5262-0.06368 1.0057 0.16191-1.7774 0.7702-5.0578 1.1655-6.9016 0.83172zm5.277-1.8526c1.1617-0.36422 3.1717-1.373 3.1717-1.5918 0-0.07309-0.21588-0.44675-0.47976-0.83027-0.68854-1.0008-1.6102-3.0338-2.025-4.467-0.31282-1.0807-0.35748-1.5731-0.35748-3.9426 0-2.3541 0.04576-2.8654 0.35043-3.9168 0.47525-1.6399 1.0066-2.865 1.8335-4.2272 0.38173-0.62885 0.66083-1.1971 0.62021-1.2629-0.18125-0.29324-2.4959-1.3035-3.6623-1.5985-1.0688-0.27028-1.5973-0.31244-3.1526-0.25144-3.1651 0.12414-5.3736 1.0691-7.5146 3.2154-3.5344 3.5431-4.3623 8.539-2.1657 13.07 1.5183 3.1317 4.4382 5.3456 8.0554 6.1079 1.1712 0.24678 4.102 0.07915 5.3262-0.3046zm13.667 1.8624c-2.4048-0.44123-4.823-1.621-6.6744-3.2565-0.06884-0.06072 0.2573-0.64336 0.72463-1.2948 3.5896-5.0031 3.5766-11.639-0.0321-16.39-0.43974-0.57891-0.79954-1.1042-0.79954-1.1673 0-0.16452 1.3119-1.1385 2.3981-1.7804 0.51057-0.30171 1.5897-0.7762 2.3981-1.0544 1.401-0.48219 1.5785-0.50609 3.7906-0.51057 1.9596-0.0039 2.5085 0.04963 3.5263 0.34469 1.5126 0.43843 2.9908 1.1791 4.287 2.148l1.0057 0.75174-0.80483 0.04654c-0.76228 0.04409-0.83245 0.08495-1.3267 0.7736-1.4474 2.0165-2.3777 4.3797-2.6615 6.7612l-0.09217 0.7736 0.3686-0.85096c0.54259-1.2526 1.5107-3.135 1.5777-3.0679 0.03197 0.03197-0.07051 0.44801-0.22758 0.92446-1.3645 4.1361-0.42173 9.2362 2.3378 12.647l0.73493 0.90828-0.72666 0.07129c-0.48131 0.04718-1.0166 0.25752-1.5855 0.62283-1.0049 0.64531-1.7311 0.97786-3.0091 1.3779l-0.92832 0.29063 1.2378-0.08173c0.68076-0.04499 1.4118-0.11924 1.6245-0.16498 0.90306-0.19425-0.85994 0.58702-1.9829 0.87871-1.332 0.34601-4.0472 0.50344-5.1604 0.29922zm4.211-1.6196c1.1174-0.23688 3.1141-1.0301 3.6848-1.4638l0.36566-0.27789-0.5607-0.78046c-0.77782-1.0827-1.7055-3.1205-2.1324-4.6843-0.31485-1.1533-0.35757-1.6482-0.34719-4.0228 0.01031-2.4753 0.04731-2.8242 0.42599-4.0655 0.43733-1.4339 1.513-3.7009 2.1746-4.5831 0.2169-0.28926 0.35668-0.5869 0.31063-0.66141-0.18016-0.29152-2.3226-1.248-3.4296-1.5311-1.484-0.37954-4.0099-0.40135-5.4402-0.04705-1.1244 0.27855-2.7148 0.95268-3.4019 1.442l-0.44596 0.31756 0.67755 1.0316c0.78965 1.2022 1.4984 2.8364 1.9568 4.5114 0.48286 1.7645 0.48092 5.4388-0.0039 7.3671-0.3719 1.4791-1.3962 3.7975-2.1832 4.9415l-0.48132 0.69959 0.65966 0.38625c2.5024 1.4652 5.5008 1.9865 8.1708 1.4205zm13.994 1.5454c-1.3671-0.27181-2.6228-0.71424-3.7559-1.3233-1.0939-0.588-2.3433-1.492-2.4515-1.7738-0.04447-0.11589 0.27738-0.65231 0.71522-1.1921 1.5166-1.8697 2.5871-4.6435 2.8569-7.4022 0.12014-1.2285-0.15012-3.5832-0.56776-4.9465-0.43097-1.4068-1.5211-3.4639-2.4296-4.5844l-0.76526-0.94402 0.72867-0.55568c1.2873-0.98172 2.4482-1.6007 3.9994-2.1319 1.4502-0.49677 1.6141-0.51917 3.8357-0.52449 2.5925-0.0064 3.8583 0.25494 5.6935 1.1747 1.0449 0.52363 2.6996 1.649 3.0558 2.0782 0.20881 0.25159 0.17559 0.26218-0.5034 0.16035l-0.72697-0.10906-0.55323 0.74327c-1.263 1.6968-2.7206 5.503-2.7067 7.0679 0.0026 0.40235 0.07928 0.29863 0.4529-0.62111 0.42117-1.0366 1.3632-2.8412 1.4832-2.8412 0.02978 0-0.07206 0.36737-0.22661 0.81637-0.75496 2.1943-0.82938 5.7091-0.16936 8.0008 0.44665 1.5508 1.4373 3.5136 2.3369 4.6299 0.69473 0.86215 0.71671 0.91731 0.39959 1.0024-0.18457 0.0495-0.5048 0.09101-0.71159 0.09217-0.20681 0.0012-0.82943 0.29801-1.3836 0.65967s-1.673 0.88859-2.4863 1.171l-1.4787 0.5134 1.2378-0.09024c0.68076-0.04963 1.4118-0.12762 1.6245-0.17344 0.28468-0.06123 0.23093 0.0026-0.20363 0.24336-1.5527 0.85878-5.1663 1.2846-7.3003 0.86036zm4.551-1.5546c1.2896-0.27128 3.1721-1.0335 3.8115-1.5434 0.42406-0.33813 0.43809-0.38209 0.20694-0.6488-0.13637-0.15735-0.49116-0.7073-0.78844-1.2221-2.8698-4.97-2.7228-11.221 0.37595-15.98 0.72445-1.1127 0.79148-0.97132-0.86412-1.8223-1.5449-0.79399-3.0794-1.143-5.0255-1.143-2.2234 0-4.156 0.51521-5.8427 1.5576l-0.51171 0.31625 0.51733 0.72629c0.74743 1.0493 1.5384 2.6992 2.0084 4.1897 1.331 4.2202 0.66177 9.0494-1.7704 12.775l-0.74493 1.1411 1.0327 0.53552c2.4368 1.2636 5.0641 1.6503 7.5951 1.1179zm14.686 1.631c-1.2881-0.23634-2.4819-0.63885-3.6769-1.2398-1.1346-0.57055-3.1088-1.9367-3.1004-2.1456 0.0026-0.05659 0.32116-0.52066 0.70868-1.0312 0.98167-1.2935 1.9998-3.4575 2.402-5.1057 0.46468-1.9043 0.46268-4.7285-0.0052-6.4982-0.42594-1.6129-1.4675-3.7569-2.4631-5.0701l-0.79413-1.0475 0.93166-0.68584c1.4207-1.0458 2.4082-1.5635 4.0149-2.1051 3.4976-1.1787 7.6603-0.62998 10.847 1.4297 4.2116 2.7221 6.5031 7.8461 5.7102 12.768-0.18863 1.171-1.0516 3.8501-1.1942 3.7074-0.0387-0.03867 0.004-0.47294 0.095-0.96493 0.091-0.49198 0.16442-1.1776 0.16329-1.5237-0.001-0.58881-0.0303-0.54814-0.44193 0.63444-0.73214 2.1033-2.0064 3.9708-3.6167 5.301-1.0419 0.86066-3.2742 2.0517-4.5263 2.4151l-0.7736 0.22452 1.4698-0.06149 1.4698-0.06149-0.69624 0.30488c-0.38293 0.16769-1.114 0.40653-1.6245 0.53076-1.138 0.27688-3.9195 0.40426-4.8999 0.22439zm4.0876-0.88312c-0.10635-0.04293-0.28043-0.04293-0.38681 0-0.10635 0.04293-0.01934 0.07799 0.1934 0.07799s0.29977-0.03506 0.1934-0.07799zm0.10145-0.74542c3.9763-0.83646 7.1788-3.6994 8.4837-7.5843 0.37342-1.1119 0.41629-1.4658 0.42152-3.4812 0.005-1.9486-0.0416-2.3857-0.35561-3.3265-0.65971-1.9768-1.3823-3.1424-2.8843-4.6523-2.2998-2.312-4.7056-3.3157-7.9475-3.3157-1.948 0-3.1952 0.27701-4.8975 1.0878-1.8082 0.86119-1.7438 0.77192-1.1648 1.6134 0.80311 1.1673 1.8257 3.4754 2.165 4.8868 1.0074 4.1902 0.20832 8.7512-2.1402 12.216-0.55873 0.82432-0.55311 0.83344 0.98528 1.5994 0.96615 0.48103 2.2015 0.88072 3.3265 1.0762 0.89657 0.15581 2.9966 0.09307 4.0081-0.11963zm9.5549-9.0928c-0.0429-0.10635-0.078-0.01934-0.078 0.1934s0.0351 0.29977 0.078 0.1934c0.0429-0.10635 0.0429-0.28043 0-0.38679zm-40.835 5.84c-0.94721-1.186-1.8769-3.0631-2.2988-4.6415-0.25168-0.94143-0.33244-1.7007-0.33736-3.1717-0.0077-2.3032 0.24622-3.4614 1.2041-5.4926 0.60933-1.2921 1.9763-3.3265 2.235-3.3265 0.36597 0 1.6662 1.8517 2.4178 3.4434 0.88588 1.8758 1.0798 2.8463 1.074 5.3755-0.0052 2.4116-0.20003 3.4563-0.9303 4.9965l-0.3819 0.80546 0.08186-0.66738c0.04499-0.36706 0.1204-1.0981 0.16744-1.6245l0.0856-0.95718-0.45357 1.2636c-0.45502 1.2677-1.0207 2.3576-1.6727 3.2233-0.19229 0.25529-0.3722 0.74265-0.39976 1.083l-0.05015 0.61888-0.7414-0.92832zm1.6757-2.8021c0.83498-1.6526 1.1544-3.0494 1.1544-5.0473 0-2.0026-0.36507-3.5289-1.2518-5.2333-0.74878-1.4393-0.77803-1.4354-1.5788 0.20673-0.87106 1.7864-1.1053 2.8577-1.107 5.0627-0.001 1.5896 0.06252 2.1405 0.3577 3.0943 0.43111 1.393 1.3904 3.2811 1.6292 3.2069 0.09423-0.02926 0.4525-0.60982 0.79614-1.29zm17.057 2.6693c-0.84655-1.1144-1.8341-3.1459-2.2294-4.5862-0.20066-0.73101-0.27682-1.5762-0.27888-3.0943-0.0026-2.3799 0.29498-3.7429 1.2355-5.6473 0.52983-1.0727 1.7936-2.8941 2.0738-2.9888 0.23512-0.07941 1.5464 1.8038 2.1889 3.1435 0.32644 0.68076 0.70775 1.6555 0.84737 2.1661 0.37575 1.374 0.45711 4.3751 0.15704 5.7924-0.24123 1.1393-1.0136 3.3184-1.1337 3.1984-0.03429-0.03429 0.0064-0.46982 0.09062-0.96796 0.08418-0.49813 0.19237-1.3234 0.2406-1.834l0.08766-0.92832-0.28489 1.0256c-0.33902 1.2205-1.0627 2.8095-1.7043 3.742-0.28405 0.41286-0.48253 0.9188-0.51244 1.3062l-0.04886 0.63246-0.72904-0.95973zm1.4696-2.5362c1.7325-3.309 1.6369-7.5968-0.24223-10.851l-0.39147-0.6779-0.48037 0.83261c-0.2642 0.45794-0.66838 1.3896-0.89818 2.0704-0.37334 1.106-0.41843 1.4683-0.42365 3.4039-0.0039 1.6637 0.05943 2.3813 0.27552 3.0943 0.31878 1.0517 1.319 3.1717 1.4965 3.1717 0.06446 0 0.36318-0.46995 0.66392-1.0443zm-38.512 3.025c-0.996-1.106-1.912-2.852-2.477-4.718-0.352-1.163-0.414-1.656-0.422-3.374-0.0064-1.4504 0.06781-2.3134 0.26735-3.0943 0.37448-1.4663 1.6413-4.0082 2.4606-4.9376l0.67023-0.76017 0.55688 0.68281c2.5898 3.1754 3.4744 7.8771 2.2256 11.83-0.44939 1.4225-0.94158 2.2853-0.71047 1.2454 0.07374-0.33202 0.17525-1.1327 0.22548-1.7792l0.09127-1.1756-0.36766 1.1604c-0.48146 1.5196-0.80665 2.2468-1.3837 3.0943-0.26069 0.38293-0.5511 1.0303-0.64537 1.4386l-0.1714 0.7424-0.32024-0.35561zm0.9149-2.6377c0.62984-1.0824 1.1876-2.8441 1.3765-4.348 0.14999-1.194 0.13748-1.653-0.07992-2.935-0.25104-1.4803-0.89196-3.296-1.4745-4.1768l-0.28832-0.43606-0.40122 0.6846c-1.742 2.9724-1.9616 7.0422-0.54842 10.16 0.45154 0.99616 0.85783 1.709 0.97404 1.709 0.03249 0 0.23128-0.2959 0.44173-0.65755z"/>
  <path id="path12197-1" d="m40.709 72.421c-1.679-0.21-2.822-0.878-3.316-1.937-0.223-0.478-0.231-0.586-0.232-3.002l-0.000662-2.5059h1.4807 1.4806l0.03283 2.3121c0.03663 2.5811 0.07302 2.7304 0.73205 3.0058 0.47852 0.19993 1.6004 0.18154 2.0286-0.03323 0.56587-0.28382 0.59377-0.4233 0.59539-2.9772l0.0016-2.3074h1.4887 1.4887v2.5609c0 2.5534-0.000662 2.5624-0.25592 3.0744-0.39694 0.79655-1.1674 1.3148-2.4517 1.6494-0.72469 0.18875-2.22 0.26651-3.0724 0.15977zm10.99-0.0058c-2.7021-0.42409-4.4192-1.8752-4.4437-3.7555-0.01149-0.88386 0.23618-1.578 0.77838-2.1811 0.99582-1.1076 2.2023-1.5914 4.2064-1.6867l1.335-0.0635-1.0124-1.1589c-0.55685-0.63738-1.0124-1.1844-1.0124-1.2158 0-0.03126 0.75651-0.0569 1.6812-0.0569h1.6812l1.5962 2.0097c1.9404 2.443 2.1163 2.7669 2.168 3.989 0.03142 0.74472 0.000794 0.9974-0.1788 1.4741-0.43297 1.149-1.7331 2.1072-3.3916 2.4996-0.79879 0.18895-2.6327 0.26748-3.4072 0.14591zm2.7292-2.2711c1.7417-0.88601 1.7175-2.4968-0.0496-3.2977-0.71716-0.32507-2.0774-0.32688-2.7788-0.0041-0.86385 0.39801-1.3398 0.98838-1.3398 1.6619 0 0.78148 0.53848 1.4017 1.5216 1.7524 0.72402 0.25834 2.026 0.20279 2.6466-0.11293zm-29.123-2.163c1.5661-2.3347 2.8699-4.3029 2.8973-4.3737 0.02728-0.07078-0.15684-0.39453-0.40923-0.71953l-0.45888-0.5909h1.8899 1.8899l3.2045 4.8381c1.7624 2.661 3.2369 4.894 3.2766 4.9623 0.05647 0.09724-0.29928 0.12406-1.646 0.12406h-1.718l-0.48349-0.79396-0.4835-0.79396h-3.1926-3.1926l-0.44856 0.76915-0.44856 0.76915-1.7621 0.02713-1.7621 0.02713 2.8476-4.245zm6.5942 0.5244c0-0.03804-1.8613-3.0332-1.9335-3.1114-0.01976-0.02141-1.4346 2.3879-1.8092 3.0809-0.02216 0.04092 0.81094 0.07443 1.8512 0.07443s1.8915-0.01976 1.8915-0.04399zm27.514 0.11838 0.02605-3.5976 1.5135-0.02737 1.5135-0.02737v3.625 3.625h-1.5395-1.5395z" fill="#f00"/>
 </g>
</svg>
