<?xml version="1.0" encoding="UTF-8" standalone="no"?>
<!-- Created with Inkscape (http://www.inkscape.org/) -->
<svg id="svg2" xmlns:rdf="http://www.w3.org/1999/02/22-rdf-syntax-ns#" xmlns="http://www.w3.org/2000/svg" height="45" width="67.5" version="1.1" xmlns:cc="http://creativecommons.org/ns#" xmlns:dc="http://purl.org/dc/elements/1.1/">
 <metadata id="metadata7">
  <rdf:RDF>
   <cc:Work rdf:about="">
    <dc:format>image/svg+xml</dc:format>
    <dc:type rdf:resource="http://purl.org/dc/dcmitype/StillImage"/>
    <dc:title/>
   </cc:Work>
  </rdf:RDF>
 </metadata>
 <g id="g12688">
  <rect id="rect2990" opacity="0" height="45" width="67.5" y="0" x="3.5527e-15"/>
  <path id="path12686" d="m41.45 32.047 0.24113-1.3269 3.3702-0.00048c3.0855-0.00036 3.4014-0.01949 3.7399-0.22589 0.20333-0.12399 0.43138-0.38038 0.50678-0.56975s0.54616-2.5591 1.0461-5.266c0.49998-2.7069 0.9373-5.0162 0.97182-5.1318 0.05776-0.19331-0.07635-0.21007-1.6803-0.21007-0.99761 0-1.8653 0.05571-2.029 0.13027-0.55605 0.25335-0.64332 0.53985-1.4199 4.6609-0.14441 0.76636-0.14361 0.77098 0.1812 1.0504 0.30086 0.25879 0.43316 0.28063 1.7 0.28063 1.0926 0 1.3738 0.03414 1.3738 0.1668 0 0.197-0.34327 2.0766-0.43697 2.3927-0.06048 0.204-0.23093 0.21606-2.5449 0.18006-2.3441-0.03647-2.507-0.054-2.9706-0.31974-0.57008-0.32675-1.0815-1.0519-1.1848-1.68-0.0808-0.49124 1.1285-7.2392 1.3837-7.7211 0.32603-0.61563 0.73984-1.039 1.3414-1.3723l0.63074-0.34945 4.8463-0.03635 4.8463-0.03635-0.06698 0.27643c-0.03684 0.15204-0.61238 3.2205-1.279 6.8187-0.66659 3.5983-1.2946 6.8394-1.3956 7.2025-0.25428 0.91443-0.85782 1.705-1.569 2.0551-0.57646 0.2838-0.61166 0.28598-5.2121 0.32214l-4.6317 0.03641 0.24113-1.3269zm-41.45-3.989c0.003-0.087 0.45288-2.563 0.99969-5.501l0.99419-5.3419 1.9855-0.03284 1.9855-0.03284-0.225 1.2333c-0.12375 0.67829-0.45926 2.4917-0.74557 4.0297l-0.52057 2.7965 3.1546-0.0355 3.1546-0.0355 0.37989-0.36013c0.20892-0.19807 0.43204-0.49461 0.49579-0.65897 0.0638-0.16437 0.40678-1.8642 0.76228-3.7773 0.7189-3.869 0.71837-3.9065-0.0622-4.2966-0.37897-0.18938-0.89213-0.2099-5.2517-0.21007-2.9156-0.000111-4.8317-0.04468-4.8317-0.11238 0-0.06171 0.075-0.48035 0.16656-0.93032 0.0916-0.44997 0.20244-1.0225 0.24629-1.2724l0.0797-0.45426 6.206 0.03411 6.206 0.03411 0.6904 0.33902c0.52226 0.25646 0.76542 0.46703 0.99844 0.86464 0.54491 0.92983 0.51979 1.3624-0.3518 6.0589-0.43498 2.3438-0.87375 4.5397-0.97504 4.8798-0.25745 0.86433-0.86581 1.7167-1.5024 2.105-1.164 0.71004-1.4167 0.7349-8.0128 0.78831-4.966 0.04021-6.0311 0.02062-6.0266-0.11084zm18.317-0.032c-0.91846-0.33387-1.6372-1.3234-1.6368-2.2535 0.00036-0.81671 1.1795-6.9066 1.4322-7.3969 0.27001-0.5238 0.86727-1.1082 1.4486-1.4175 0.38137-0.20288 0.79379-0.22695 4.4679-0.26076 3.7923-0.0349 4.081-0.02254 4.5746 0.19581 0.66934 0.29608 1.1732 0.94722 1.248 1.6128 0.0702 0.62495-1.0882 7.0059-1.402 7.7227-0.27997 0.63954-0.98455 1.3357-1.6752 1.6551-0.51927 0.24018-0.7647 0.25642-4.2722 0.28281-2.9496 0.02219-3.8174-0.007-4.185-0.14056zm6.3354-2.8197c0.11341-0.09423 0.28071-0.31539 0.37177-0.49148 0.16601-0.32103 0.90833-4.093 0.92591-4.7049 0.0183-0.63746-0.14193-0.6944-1.9545-0.6944-0.91194 0-1.7996 0.0538-1.9725 0.11956-0.19984 0.07598-0.39573 0.30567-0.53746 0.63022-0.28636 0.65571-1.0023 4.4844-0.90849 4.8583 0.0392 0.1564 0.1913 0.33522 0.33788 0.39737 0.43241 0.18334 3.4917 0.08949 3.7374-0.11465zm6.5813 2.8321c-1.0097-0.3662-1.5894-1.1901-1.589-2.2587 0.00024-0.85883 1.1169-6.7923 1.3843-7.3559 0.26827-0.56536 0.7862-1.0845 1.4204-1.4237 0.46528-0.24886 0.67456-0.26783 3.3473-0.30332 1.568-0.02082 2.851-0.02072 2.851 0.00024 0 0.02095-0.10804 0.60508-0.24009 1.2981-0.13204 0.69298-0.24008 1.2736-0.24008 1.2902 0 0.01664-0.69496 0.03025-1.5444 0.03025-2.2231 0-2.1626-0.06816-2.7797 3.132-0.59911 3.107-0.67691 2.9902 1.9927 2.99l1.9112-0.000155 1.2692-6.8722 1.2692-6.8722 1.7721-0.03327 1.7721-0.03328-0.0706 0.33338c-0.0388 0.18336-0.71894 3.8446-1.5113 8.1361-0.79235 4.2915-1.4657 7.8702-1.4964 7.9528-0.0775 0.20864-8.9407 0.19915-9.5179-0.01019zm24.956-0.15462c-0.80347-0.40039-1.2381-1.0257-1.3088-1.8831-0.06481-0.78601 0.97478-6.7544 1.3108-7.5254 0.28777-0.6603 0.72812-1.1389 1.363-1.4815 0.45875-0.24754 0.65134-0.26072 4.3175-0.29548 4.3015-0.04078 4.5989 0.0028 5.1749 0.75796 0.56344 0.7387 0.57884 1.0455 0.17011 3.389-0.20447 1.1724-0.40183 2.2531-0.43858 2.4017l-0.06681 0.27009h-3.5963c-3.3675 0-3.5926-0.01336-3.5373-0.21007 0.03246-0.11554 0.12578-0.60171 0.20738-1.0804l0.14836-0.8703h1.7686c1.993 0 1.8619 0.06771 1.9908-1.0286 0.11583-0.98552 0.06792-1.0121-1.8261-1.0121-1.8013 0-2.1122 0.08795-2.3915 0.67661-0.203 0.42778-0.89556 4.0408-0.89872 4.6885-0.0036 0.7361 0.11042 0.75707 4.1158 0.75707h3.5841l-0.06494 0.33012c-0.03572 0.18156-0.15544 0.80278-0.26605 1.3805l-0.2011 1.0504h-4.4616-4.4616l-0.63184-0.31486z"/>
 </g>
</svg>
