<?xml version="1.0" encoding="UTF-8" standalone="no"?>
<!-- Created with Inkscape (http://www.inkscape.org/) -->
<svg id="svg2" xmlns:rdf="http://www.w3.org/1999/02/22-rdf-syntax-ns#" xmlns="http://www.w3.org/2000/svg" height="45" width="67.5" version="1.1" xmlns:cc="http://creativecommons.org/ns#" xmlns:dc="http://purl.org/dc/elements/1.1/">
 <metadata id="metadata7">
  <rdf:RDF>
   <cc:Work rdf:about="">
    <dc:format>image/svg+xml</dc:format>
    <dc:type rdf:resource="http://purl.org/dc/dcmitype/StillImage"/>
    <dc:title/>
   </cc:Work>
  </rdf:RDF>
 </metadata>
 <g id="g12741">
  <rect id="rect2990" opacity="0" height="45" width="67.5" y="0" x="3.5527e-15"/>
  <path id="path12739" d="m18.101 26.06c-2.1116-0.06049-2.391-0.09332-2.8911-0.3397-1.0858-0.53498-1.2921-1.0344-1.2986-3.1436-0.006-1.7941 0.11942-2.3113 0.69795-2.8898 0.63231-0.6323 1.1466-0.69978 5.5295-0.72536 4.0813-0.02382 4.4968 0.02336 5.1662 0.58656 0.68275 0.57451 0.8219 1.0772 0.82487 2.9798 0.002 1.5276-0.0236 1.7399-0.2709 2.2177-0.38954 0.75239-1.2132 1.1469-2.7233 1.3044-0.62634 0.06533-1.4894 0.1094-1.918 0.09792-0.42855-0.01148-1.8311-0.051-3.1167-0.08783zm4.3623-1.7992c0.78005-0.18096 0.85221-0.32863 0.85221-1.7441s-0.0722-1.5632-0.85221-1.7441c-0.5704-0.13232-3.8442-0.13552-4.641-0.0046-0.93979 0.1545-1.0998 0.40591-1.0998 1.7278 0 1.2651 0.1844 1.7079 0.74658 1.7928 0.65887 0.09952 4.5385 0.07793 4.9942-0.0278zm22.369 1.7954c-0.98419-0.10426-1.2832-0.19944-1.7682-0.56283-0.72491-0.54309-0.80904-0.8465-0.80881-2.9168 0.00012-1.5857 0.0336-1.9255 0.22851-2.3183 0.26023-0.52458 0.86924-0.96618 1.5694-1.138 0.26372-0.06472 2.5698-0.15382 5.1246-0.19802l4.6451-0.08036v0.90832 0.90832h-4.0008c-2.2004 0-4.1754 0.03493-4.3889 0.07762-0.56655 0.11331-0.75398 0.64201-0.70183 1.9797 0.0639 1.6409-0.0377 1.5904 3.2919 1.6352 3.0362 0.04088 3.2822-0.01148 3.2822-0.69849v-0.35686h-2.3375-2.3375v-0.77918-0.77918h3.5962 3.5962l-0.00072 1.2287c-0.00072 1.4143-0.12539 1.9742-0.55237 2.4817-0.53463 0.63538-1.13 0.72715-4.5933 0.70792-1.6857-0.0094-3.4156-0.05417-3.8441-0.09957zm-44.832-2.036v-2.0427h1.3785 1.3785v1.1388 1.1388h2.8824c2.849 0 2.8856-0.0032 3.1585-0.27608 0.49674-0.49675 0.5117-2.4527 0.0225-2.9423-0.1753-0.176-0.6894-0.202-4.5091-0.233l-4.3113-0.034v-0.90294-0.90294l5.0047 0.04029c4.5369 0.03652 5.0522 0.06086 5.5126 0.26036 1.173 0.50824 1.5416 1.4666 1.4415 3.748-0.0735 1.675-0.3176 2.2071-1.2267 2.6742l-0.596 0.306-5.0679 0.035-5.0681 0.035v-2.043zm28.17-0.0049v-2.0378h1.3785 1.3785v1.1388 1.1388h2.8503c3.1918 0 3.2775-0.0199 3.4977-0.81268 0.26283-0.94637 0.0745-2.1581-0.38562-2.4803-0.22292-0.15613-0.88941-0.18334-4.4906-0.18334h-4.2288v-0.90622-0.90622l5.0047 0.03796c5.5811 0.04233 5.6433 0.05098 6.3767 0.88626 0.52047 0.59278 0.63878 1.1986 0.58313 2.986-0.0632 2.0304-0.29549 2.4851-1.4998 2.9357-0.60666 0.22698-0.92924 0.24097-5.5544 0.24097h-4.9103v-2.0378zm29.278 1.719c-1.094-0.388-1.467-1.144-1.467-2.971v-1.0258h5.7596 5.7596l-0.03569 0.74921-0.03569 0.74921-4.3601 0.03148-4.3601 0.03148 0.07686 0.38433c0.04227 0.21138 0.13244 0.43996 0.20035 0.50795 0.07875 0.07884 1.6413 0.13608 4.3132 0.15801l4.1897 0.03439v0.77475 0.77475l-4.765-0.0095c-3.9226-0.0078-4.8552-0.04141-5.2756-0.19018zm-1.383-5.165c-0.11475-0.2088 0.1831-0.87227 0.4864-1.0835 0.76064-0.52966 0.95315-0.54866 6.052-0.5971l4.8848-0.0464v0.90844 0.90844h-5.6869c-3.1278 0-5.7091-0.04046-5.7363-0.0899z"/>
 </g>
</svg>
