<?xml version="1.0" encoding="UTF-8" standalone="no"?>
<!-- Created with Inkscape (http://www.inkscape.org/) -->
<svg id="svg2" xmlns:rdf="http://www.w3.org/1999/02/22-rdf-syntax-ns#" xmlns="http://www.w3.org/2000/svg" height="45" width="67.5" version="1.1" xmlns:cc="http://creativecommons.org/ns#" xmlns:dc="http://purl.org/dc/elements/1.1/">
 <metadata id="metadata7">
  <rdf:RDF>
   <cc:Work rdf:about="">
    <dc:format>image/svg+xml</dc:format>
    <dc:type rdf:resource="http://purl.org/dc/dcmitype/StillImage"/>
    <dc:title/>
   </cc:Work>
  </rdf:RDF>
 </metadata>
 <g id="g10845">
  <rect id="rect2990" opacity="0" height="45" width="67.5" y="0" x="3.5527e-15"/>
  <g id="g10786" fill-rule="evenodd" transform="matrix(.74998 0 0 .74998 -3.3743 2.2503)">
   <path id="path12341" d="m8.1443 26.317v3.1146h6.0924c1.1794 0 1.7509-0.11317 2.0545-0.42402 0.35744-0.34106 0.50032-0.96428 0.50032-2.1119 0-1.7995-0.44655-2.2814-2.0904-2.2814l-10.202-0.0061v-2.3034h10.488c2.4652 0 3.6087 0.22686 4.3416 0.85008 0.89361 0.75073 1.1256 1.5163 1.1256 3.684 0 2.2245-0.14288 2.9896-0.69696 3.6979-0.58942 0.73691-1.9296 1.2055-3.4126 1.2055h-11.845v-5.4246h3.6451v-0.000512z"/>
   <path id="path12343" d="m45.784 26.317v3.1146h6.0924c1.1794 0 1.7509-0.11317 2.055-0.42402 0.35693-0.34106 0.50032-0.96428 0.50032-2.1119 0-1.7995-0.44655-2.2814-2.0904-2.2814l-10.201-0.0061v-2.3034h10.488c2.4652 0 3.6087 0.22686 4.3416 0.85008 0.8931 0.75073 1.1256 1.5163 1.1256 3.684 0 2.2245-0.14288 2.9896-0.69696 3.6979-0.58891 0.73691-1.9296 1.2055-3.4121 1.2055h-11.847v-5.4246h3.6436v-0.000512z"/>
   <path id="path12345" d="m33.888 22.221c2.9123 0.01434 3.7695 0.19869 4.5561 0.96325 0.75022 0.75125 0.96479 1.5163 0.96479 3.4997 0 2.6353-0.10703 3.1591-0.76815 3.8535-0.82192 0.87927-2.0725 1.2055-4.8598 1.2475l-7.182-0.0712c-0.894-0.085-1.626-0.297-2.144-0.6232-1.09-0.6801-1.394-1.4733-1.394-3.5427 0-0.21201 0.08962-2.5359 0.08962-2.5359 0.23249-1.6577 1.1435-2.4652 3.0372-2.6639 0.60786-0.05582 7.7004-0.127 7.7004-0.127z"/>
   <path id="path12347" d="m32.582 29.518c1.6971-0.01485 2.4657-0.17104 2.8227-0.56689 0.25042-0.28421 0.33952-0.86442 0.33952-2.1395 0-1.7283-0.30367-2.1395-1.6438-2.2389-0.58942-0.0425-0.8931-0.05684-1.6792-0.05684-2.2153 0-3.5196 0.02817-4.0737 0.08501-1.2505 0.11317-1.6259 0.59506-1.6259 2.1395 0 1.5445 0.14288 2.1539 0.55409 2.4366 0.39329 0.26988 1.1614 0.35488 3.2871 0.35488l2.0192-0.01383z" fill="#fff"/>
   <path id="path12349" d="m76.382 24.474h-9.5644c-1.1077 0-1.8246 0.05684-2.1109 0.26885-0.42862 0.31187-0.5715 0.82192-0.5715 2.2389 0 1.3453 0.10703 1.7857 0.44655 2.1109 0.42914 0.39688 1.3248 0.49622 3.2723 0.49622h2.6977c1.8046 0 2.5082-0.21201 2.5082-1.0764 0-0.05684 0-0.3303-0.01792-0.51415h-6.2503v-1.9962h9.5655l0.01792 1.332v0.41014c0 2.1114-0.39329 3.3466-1.6438 3.7859-0.80348 0.28319-1.036 0.29804-3.4121 0.29804l-4.574-0.0147c-2.734-0.0282-3.841-0.1982-4.663-0.7503-0.947-0.6662-1.251-1.5163-1.251-3.5565 0-0.1142 0.07169-2.1677 0.14288-2.6639 0.07169-0.63756 0.37486-1.2045 0.85776-1.6295 0.76814-0.6944 1.7334-0.92075 3.8771-0.96377 0 0 10.475-0.0425 10.672-0.0425v2.2671h-0.000512z"/>
   <path id="path12351" d="m79.178 25.99h15.3v1.99h-11.57c0.01024 0.57918 0.04046 1.0124 0.23966 1.2014 0.30367 0.31187 0.70464 0.31289 1.884 0.31289h9.4697l-0.0061 2.1144h-11.23c-1.483 0-2.8232-0.46806-3.4126-1.2045-0.554-0.7087-0.674-1.95-0.674-4.4142z"/>
   <path id="path12353" d="m79.311 24.469c0.02765-0.73435 0.14646-1.0411 0.62886-1.4467 0.73281-0.62373 1.8758-0.85008 4.3416-0.85008h10.214v2.3034l-15.185-0.0067z"/>
  </g>
 </g>
</svg>
