<?xml version="1.0" encoding="UTF-8" standalone="no"?>
<!-- Created with Inkscape (http://www.inkscape.org/) -->
<svg id="svg2" xmlns:rdf="http://www.w3.org/1999/02/22-rdf-syntax-ns#" xmlns="http://www.w3.org/2000/svg" height="45" width="67.5" version="1.1" xmlns:cc="http://creativecommons.org/ns#" xmlns:dc="http://purl.org/dc/elements/1.1/">
 <metadata id="metadata7">
  <rdf:RDF>
   <cc:Work rdf:about="">
    <dc:format>image/svg+xml</dc:format>
    <dc:type rdf:resource="http://purl.org/dc/dcmitype/StillImage"/>
    <dc:title/>
   </cc:Work>
  </rdf:RDF>
 </metadata>
 <g id="g12795">
  <rect id="rect2990" opacity="0" height="45" width="67.5" y="0" x="3.5527e-15"/>
  <path id="path12793" d="m31.747 44.256c-6.1799-2.8863-11.187-5.6862-14.354-8.0259-1.4205-1.0496-3.1241-2.7276-3.4785-3.4262-1.153-2.273-1.8462-10.036-2.0075-22.482-0.0697-5.3739-0.0576-6.0107 0.12337-6.542 0.56091-1.6462 1.8579-2.498 4.3786-2.8755 3.196-0.47791 11.421-0.904 17.466-0.904 7.006-9.7074e-8 16.013 0.54039 18.345 1.1007 1.5005 0.36049 2.6371 1.2087 3.1731 2.3679 0.24663 0.53339 0.25564 0.69927 0.22922 4.2188-0.0912 12.146-0.98001 23.093-2.0428 25.161-0.92592 1.8011-4.1643 4.3394-8.9635 7.0257-3.3809 1.8924-9.9893 5.0359-10.767 5.1217-0.32621 0.03598-0.79717-0.1296-2.102-0.73903zm2.9022-1.4221c8.9504-3.8732 16.247-8.4157 17.391-10.827 0.45232-0.95319 0.85658-3.7986 1.2026-8.4646 0.33013-4.4519 0.66167-12.854 0.66355-16.816 0.0011-2.1771-0.01687-2.3718-0.25388-2.7605-0.32317-0.53012-0.49775-0.66125-1.2774-0.9594-2.0892-0.79899-13.706-1.4105-22.642-1.1919-5.5497 0.13576-11.319 0.51663-13.461 0.88871-1.7608 0.3058-2.5115 0.9091-2.6656 2.1421-0.089 0.7127 0.1238 10.754 0.30722 14.493 0.33029 6.7334 0.88217 11.423 1.4805 12.58 0.2548 0.49274 1.6215 1.8393 2.7006 2.6607 2.839 2.1612 7.2002 4.6558 12.871 7.3625 1.4864 0.70945 2.7113 1.2922 2.722 1.295 0.0106 0.0028 0.44307-0.17822 0.96092-0.40232zm-2.0504-6.8684c-0.59109-0.21657-1.2721-0.72956-1.2721-0.95824 0-0.21886-0.21656-0.19892 2.5032-0.23052 2.5378-0.02949 2.722 0.02145 2.1767 0.60186-0.635 0.67592-2.3559 0.9723-3.4078 0.5869zm-1.4729-1.6677c-0.49052-0.21338-0.56464-0.36499-0.98955-2.0243-0.41151-1.6069-0.52712-1.8559-1.4608-3.1458-0.38257-0.52851-0.8084-1.2245-0.94629-1.5466-0.36758-0.85873-0.84577-2.5911-1.0771-3.902l-0.20257-1.148-1.312-0.78561c-1.1808-0.7071-1.3208-0.82763-1.4008-1.206-0.13015-0.6161 0.0198-1.5587 0.29102-1.83 0.46486-0.46487-0.00036-1.0561-0.69409-0.88205-0.38415 0.09642-0.52853 0.39952-0.7242 1.5203-0.14196 0.81318-0.14029 0.99674 0.0124 1.3622 0.0971 0.2323 0.17647 0.69172 0.17647 1.0209 0 0.32922 0.0824 0.91201 0.18314 1.2951 0.10072 0.38309 0.17559 0.93976 0.16637 1.237-0.009 0.29729 0.0705 0.74148 0.17721 0.9871 0.25037 0.57643 0.25657 1.5741 0.011 1.7779-0.29036 0.24099-1.0248-0.1639-1.8432-1.0162-1.6222-1.6894-2.8825-4.2759-3.1931-6.5534-0.071-0.521-0.0963-0.5492-0.70043-0.78075l-0.62672-0.24023-0.0343-1.098c-0.0856-2.7334 1.0612-5.0185 2.8191-5.6175 0.84597-0.28825 2.0141-0.24818 2.7406 0.094 1.3808 0.65037 2.3651 1.9285 4.026 5.2279 1.0045 1.9954 1.6427 2.895 2.0538 2.895 0.28276 0 0.28839 0.10812 0.016 0.30786-0.27413 0.20106-0.26839 1.3966 0.0113 2.3524l0.1985 0.6784 0.89913 0.32793c0.49453 0.18036 0.96217 0.40388 1.0392 0.49671 0.077 0.09283 0.16548 0.45076 0.19651 0.7954l0.0565 0.62662-0.42027-0.39986c-0.28164-0.26796-0.57842-0.42107-0.89969-0.46416-0.56955-0.07639-0.66049 0.02384-0.45809 0.50486 0.1142 0.27143 0.2995 0.41244 0.7586 0.57732 0.33412 0.11999 0.69016 0.30952 0.79121 0.42118 0.18436 0.20372 0.76767 2.1284 1.0329 3.4082 0.11868 0.5726 0.10979 0.8121-0.0545 1.467-0.22192 0.88486-0.20212 1.3186 0.0618 1.3532 0.0991 0.013 0.43628 0.0573 0.74929 0.09846 0.73514 0.09667 0.93233 0.3035 0.93233 0.97789 0 0.90301-0.11404 1.0052-1.1153 0.99981-0.47663-0.0026-1.038-0.07927-1.2475-0.1704zm3.2404 0.10571c-0.27089-0.12514-0.42806-0.85426-0.28052-1.3013 0.15591-0.4724 0.29925-0.55034 1.2047-0.65497l0.66064-0.07635-0.0172-0.54052c-0.009-0.29729-0.0561-0.89186-0.10378-1.3213-0.0734-0.66268-0.0315-0.99128 0.27786-2.1729 0.56114-2.1438 0.6073-2.2245 1.5056-2.6317 0.71216-0.32291 0.91017-0.53655 0.91844-0.99094 0.0008-0.04955-0.2144-0.09009-0.47847-0.09009-0.38293 0-0.57744 0.08792-0.96093 0.43438l-0.48081 0.43438 0.00072-0.3443c0.00036-0.18936 0.0559-0.54303 0.12334-0.78594 0.11617-0.41827 0.17241-0.45821 1.0629-0.75478 1.0658-0.35495 1.1255-0.43008 1.3455-1.6931 0.16249-0.93311 0.086-1.5759-0.21471-1.804-0.199-0.15092-0.19975-0.16387-0.01-0.16739 0.50136-0.0093 1.0574-0.75661 2.089-2.8078 1.9786-3.9341 3.0335-5.1437 4.8943-5.6122 0.42875-0.10796 0.73544-0.10578 1.3469 0.0096 1.9459 0.36716 3.0775 1.9643 3.4312 4.8426 0.08952 0.72846 0.09879 1.2857 0.02646 1.5917-0.10063 0.42572-0.17006 0.49195-0.72492 0.69156l-0.61363 0.22075-0.08452 0.68012c-0.27492 2.2123-1.7919 5.1557-3.4467 6.6878-1.077 0.99714-1.6846 1.03-1.7548 0.09505-0.0198-0.26356 0.0499-0.7175 0.1549-1.0088 0.10499-0.29125 0.21168-0.88089 0.23708-1.3103s0.10615-0.9377 0.17946-1.1295c0.0733-0.19182 0.1505-0.73448 0.17155-1.2059 0.021-0.47143 0.10585-0.98344 0.18846-1.1378 0.20568-0.38431-0.0504-2.0581-0.37881-2.4756-0.32462-0.41269-1.007-0.4185-1.1931-0.01018-0.10825 0.23759-0.0886 0.32922 0.11403 0.53186 0.30094 0.30094 0.44845 1.1925 0.30723 1.8568-0.10024 0.47155-0.16688 0.53147-1.4264 1.2824-1.0617 0.63299-1.3279 0.84664-1.3551 1.0874-0.14784 1.3075-0.90025 4.162-1.3138 4.9841-0.0997 0.19819-0.4918 0.79276-0.87137 1.3213-0.9456 1.3166-1.0829 1.6196-1.2734 2.8097-0.22843 1.4269-0.47002 2.0171-0.92115 2.2504-0.36424 0.18836-2.057 0.34467-2.3362 0.21572zm-13.492-3.7787c-1.086-0.25797-2.1834-0.94346-2.3498-1.4677-0.0455-0.14323-0.20273-0.35488-0.3495-0.47032-0.14676-0.11544-0.41846-0.52288-0.60378-0.90543-0.18532-0.38254-0.38296-0.77661-0.4392-0.87571-0.31109-0.54818-0.58878-1.2826-0.65124-1.7223-0.0391-0.27494-0.15609-0.68907-0.26007-0.9203-0.41226-0.91669-0.4678-3.856-0.0899-4.7603 0.15534-0.37177 0.21169-0.40469 0.69279-0.40469 0.82725 0 0.92812 0.14155 1.1819 1.6586 0.30005 1.7936 0.7621 2.932 1.8618 4.5874 1.4368 2.1626 2.3521 3.2372 3.4481 4.0476 0.46763 0.34579 0.57015 0.48601 0.54052 0.73924-0.0222 0.18986-0.15441 0.37184-0.33684 0.46367-0.33579 0.16903-1.9812 0.1878-2.6448 0.03017zm23.425 0.04708c-0.32426-0.1332-0.60058-0.43597-0.60058-0.65807 0-0.12405 0.27656-0.42214 0.64239-0.69239 0.82119-0.60664 1.6801-1.5641 2.7598-3.0764 1.6819-2.3558 2.1864-3.4901 2.5378-5.7055 0.21105-1.3304 0.38989-1.5615 1.2084-1.5615 0.47045 0 0.52867 0.0341 0.66672 0.39038 0.08327 0.21491 0.16776 1.0652 0.18799 1.8918 0.03732 1.525-0.09549 2.6285-0.36866 3.063-0.08307 0.13213-0.17818 0.48451-0.21135 0.78307-0.05226 0.47037-0.31909 1.1824-0.67428 1.7994-0.05705 0.09909-0.25535 0.49316-0.44067 0.87571s-0.45702 0.78999-0.60378 0.90543-0.30573 0.33244-0.35327 0.48223c-0.11401 0.35921-0.88747 0.90918-1.7303 1.2303-0.67817 0.2584-2.6267 0.43426-3.0203 0.27259zm-13.792-12.856c-0.25056-0.12347-0.79263-0.7134-1.4599-1.5888-1.1976-1.5711-3.293-3.6754-4.4187-4.4373-0.41349-0.2799-1.1432-0.69946-1.6216-0.93235-1.1514-0.56055-1.7063-0.51859-3.2168 0.24319-1.2618 0.63639-1.39 0.57503-0.92405-0.44264 0.34007-0.74281 1.6184-2.1649 2.2431-2.4953 1.2036-0.63662 1.5128-0.73718 2.6256-0.8537 1.2894-0.13502 2.1812-0.07396 3.0868 0.21136 0.84925 0.26753 2.1125 0.89586 2.186 1.0873 0.0341 0.0888 0.29071 0.26264 0.57031 0.38631 0.27959 0.12368 0.69795 0.41448 0.92969 0.64622 0.23175 0.23174 0.61746 0.51441 0.85715 0.62815 0.63074 0.2993 1.4596 1.0678 1.7016 1.5777 0.16743 0.35284 0.19318 0.61116 0.129 1.2944-0.12094 1.2877-0.53883 3.662-0.72145 4.0991-0.31397 0.75143-1.1278 0.99-1.9668 0.57656zm5.0654-0.02952c-0.46759-0.28513-0.57514-0.60281-0.88065-2.6014-0.35134-2.2984-0.35978-3.2719-0.0323-3.7318 0.33365-0.46858 0.97091-0.95436 1.6405-1.2505 0.28909-0.12788 0.5548-0.30851 0.59044-0.4014 0.0799-0.20833 1.0864-0.91231 1.3043-0.91231 0.0874 0 0.30744-0.15736 0.48898-0.34969 0.35453-0.37563 1.2346-0.85146 1.5748-0.85146 0.11455 0 0.38126-0.09459 0.59269-0.2102 0.60398-0.33027 3.6036-0.27028 4.5667 0.09133 0.38442 0.14434 0.72802 0.33824 0.76358 0.43089 0.03555 0.09265 0.174 0.16845 0.30767 0.16845 0.34969 0 1.7864 1.5101 2.171 2.282 0.32946 0.66115 0.41144 1.0813 0.21098 1.0813-0.06155 0-0.61166-0.24324-1.2225-0.54052-1.6667-0.81122-2.4604-0.70325-4.445 0.60466-1.164 0.7671-3.6932 3.2924-4.7908 4.7833-1.1542 1.5678-1.9394 1.9569-2.8404 1.4075z"/>
 </g>
</svg>
