<?xml version="1.0" encoding="UTF-8" standalone="no"?>
<!-- Created with Inkscape (http://www.inkscape.org/) -->
<svg id="svg2" xmlns:rdf="http://www.w3.org/1999/02/22-rdf-syntax-ns#" xmlns="http://www.w3.org/2000/svg" height="45" width="67.5" version="1.1" xmlns:cc="http://creativecommons.org/ns#" xmlns:dc="http://purl.org/dc/elements/1.1/">
 <metadata id="metadata7">
  <rdf:RDF>
   <cc:Work rdf:about="">
    <dc:format>image/svg+xml</dc:format>
    <dc:type rdf:resource="http://purl.org/dc/dcmitype/StillImage"/>
    <dc:title/>
   </cc:Work>
  </rdf:RDF>
 </metadata>
 <g id="g12851">
  <rect id="rect2990" opacity="0" height="45" width="67.5" y="0" x="3.5527e-15"/>
  <path id="path12849" d="m12.086 43.532v-1.4398h0.83987 0.83987v0.89986 0.89986h1.4374c1.6599 0 2.3036-0.18136 2.5866-0.7288 0.22044-0.42628 0.22044-0.63573 0-1.062-0.31614-0.61135-0.86836-0.7288-3.4265-0.7288h-2.2772v-0.53992-0.53992l1.9497 0.0075c3.5331 0.01368 4.6646 0.25219 5.2784 1.1126 0.21912 0.3072 0.2708 0.53989 0.2708 1.2195 0 1.0138-0.26008 1.4629-1.076 1.8579-0.75754 0.36672-1.7278 0.4766-4.2332 0.47936l-2.1897 0.0024v-1.4398zm10.798 1.2473c-1.4004-0.37505-1.9858-1.0914-1.8969-2.321 0.0844-1.1675 0.75968-1.7657 2.3247-2.0594 0.84608-0.15879 3.0513-0.07193 3.6516 0.14382 1.1043 0.39691 1.6797 1.1121 1.6797 2.0876 0 1.1378-0.60864 1.8023-1.9749 2.1562-0.90274 0.23385-2.8982 0.23001-3.7842-0.0073zm3.3406-1.1176c0.4461-0.22758 0.73875-0.65499 0.73875-1.0789 0-0.32486-0.46667-0.85711-0.91616-1.0449-0.54423-0.2274-1.9644-0.21112-2.5655 0.02941-1.043 0.41732-1.0997 1.5678-0.10352 2.0986 0.58633 0.31242 2.2306 0.31003 2.8464-0.0042zm3.8583-0.12095v-1.4594l0.80988 0.03547 0.80988 0.03547 0.0355 0.88151 0.0355 0.88151 1.5843-0.04474c1.8634-0.05262 2.2822-0.20249 2.4704-0.88408 0.15909-0.57616-0.0342-1.0878-0.50919-1.3478-0.31351-0.17161-0.78575-0.21286-2.8066-0.24516l-2.4296-0.03884v-0.53107-0.53107l1.8897 0.0022c3.7065 0.0042 4.8473 0.28128 5.3911 1.3095 0.6555 1.2396 0.0998 2.5794-1.2779 3.081-0.42308 0.15406-1.1491 0.21094-3.2732 0.25643l-2.7296 0.05846v-1.4594zm11.117 1.3007c-0.8707-0.12878-1.605-0.524-1.9641-1.0572-0.21284-0.31598-0.2746-0.57512-0.2746-1.1521 0-1.8661 1.327-2.3986 5.7641-2.3131l1.7348 0.03344 0.0369 0.50992 0.0369 0.50992-2.2566 0.00072c-1.2411 0.00036-2.4566 0.05621-2.701 0.12411-1.2334 0.34257-1.2334 1.9275 0 2.27 0.24446 0.06789 1.0789 0.12375 1.8543 0.12411l1.4098 0.00062v-0.35995-0.35994h-1.1998-1.1998v-0.53992-0.53992h2.0435 2.0435l-0.0338 1.4098-0.0338 1.4098-2.2797 0.01662c-1.2538 0.0091-2.595-0.03003-2.9805-0.08704zm7.1739-0.02175c-0.03289-0.08572-0.04502-1.1259-0.02694-2.3115l0.03287-2.1556 3.4495-0.03184 3.4495-0.03183v0.54176 0.54176h-2.5796-2.5796v0.35994 0.35994h2.4596 2.4596v0.53992 0.53992h-2.4596-2.4596v0.35994 0.35994h2.6465 2.6465l-0.0369 0.50992-0.0369 0.50992-3.4525 0.03184c-2.7437 0.0253-3.4648-0.00012-3.5123-0.12402zm-15.652-7.9727c-0.42893-0.2296-2.1297-1.134-3.7794-2.0097-5.966-3.167-7.8257-4.3298-9.3172-5.8257-0.8741-0.87663-1.1239-1.22-1.5776-2.1692-0.58184-1.217-0.85503-2.2244-1.0379-3.8272-0.32042-2.8078-0.59154-9.6246-0.61798-15.538-0.0194-4.3265 0.0239-4.6793 0.67819-5.5372 0.78141-1.0245 1.9042-1.3889 4.9136-1.5947 9.029-0.61756 24.106-0.36874 26.672 0.44018 0.8615 0.27156 1.7035 1.0276 2.0703 1.8589 0.37496 0.84982 0.42031 2.5401 0.24302 9.057-0.19867 7.3031-0.4318 11.018-0.80744 12.866-0.50656 2.492-1.8155 4.3432-4.2385 5.9943-1.2799 0.87219-4.3204 2.6243-7.1422 4.1157-1.1878 0.62782-2.7873 1.4732-3.5544 1.8785-0.76707 0.40537-1.469 0.73061-1.5598 0.72275-0.0908-0.0078-0.51603-0.20215-0.94496-0.43174zm3.5146-2.5714c6.6234-3.4821 8.9133-4.8661 10.293-6.2211 1.7033-1.6727 2.1468-2.8965 2.4528-6.7675 0.3963-5.0137 0.67674-16.626 0.4267-17.668-0.35744-1.49-1.0499-1.6398-9.1283-1.9747-3.639-0.15088-13.084-0.07504-16.258 0.13055-5.3781 0.34841-5.8016 0.49259-6.0521 2.0605-0.11658 0.72953 0.04 10.337 0.22773 13.971 0.2807 5.4344 0.47993 6.787 1.2269 8.3291 1.0298 2.1261 2.5609 3.2338 9.8484 7.1251 1.5334 0.81875 3.1388 1.6768 3.5678 1.9068 0.42894 0.22997 0.79568 0.42456 0.81499 0.43242 0.0193 0.0078 1.1801-0.58768 2.5796-1.3234zm-3.7151-5.3162c-0.49672-0.21607-0.56519-0.36438-0.87352-1.8923-0.22619-1.1207-0.35592-1.4549-1.0027-2.5827-0.6869-1.1978-0.77839-1.4471-1.2146-3.3102l-0.47175-2.0148-1.028-0.50172c-0.90792-0.4431-1.0596-0.56427-1.298-1.0371-0.29977-0.59447-0.35727-1.545-0.14063-2.3252 0.11449-0.41233 0.0954-0.51012-0.18087-0.92763-0.32588-0.49244-0.7127-0.66626-1.2068-0.54226-0.85281 0.21404-0.95599 1.7268-0.30203 4.4283 0.41705 1.7229 0.41521 2.1296-0.0109 2.397-0.91072 0.57138-2.8101-2.0364-3.4946-4.7979-0.26439-1.0667-0.28535-1.1044-0.63339-1.1398l-0.35994-0.03662 0.0307-0.77988c0.0774-1.9676 1.1937-3.6512 2.7441-4.1389 0.95483-0.30033 2.2806-0.20671 3.1874 0.22509 1.6038 0.76374 3.0502 2.6353 3.9441 5.1034 0.27456 0.7581 0.27525 0.77202 0.0455 0.92463-0.7314 0.48581-0.69636 0.36993-0.46464 1.5367l0.21025 1.0587 0.67046 0.28627c1.1293 0.48218 1.0201 0.30784 1.2673 2.023l0.0865 0.59991-0.49146-0.55811c-0.27032-0.30696-0.65559-0.61532-0.85618-0.68524l-0.3647-0.12714 0.0814 0.44528c0.14484 0.79284 0.23926 0.92032 0.84375 1.1391 0.32109 0.11623 0.64684 0.25106 0.72389 0.29962 0.077 0.04856 0.25732 0.90215 0.40058 1.8969 0.23826 1.6542 0.24538 1.8594 0.0835 2.4046l-0.17699 0.59598 0.71261 0.27632 0.71262 0.27632 0.71354-0.26685c0.39246-0.14677 0.71355-0.30747 0.71355-0.35712s-0.0767-0.30769-0.17047-0.57343c-0.15135-0.42899-0.14395-0.6762 0.066-2.2048 0.13007-0.94687 0.27475-1.794 0.3215-1.8825 0.0468-0.08851 0.36863-0.28082 0.71528-0.42735 0.79867-0.33762 0.83041-0.37392 0.93171-1.0654l0.0841-0.57381-0.34417 0.14174c-0.18928 0.07796-0.55185 0.36317-0.8057 0.63381l-0.46155 0.49207 0.079-0.77988c0.12929-1.2771 0.12204-1.2655 1.0311-1.6395 0.82393-0.339 0.82612-0.34115 0.95515-0.93987 0.0711-0.33005 0.15995-0.82145 0.19737-1.092 0.0709-0.51276 0.0893-0.4872-0.77425-1.0737-0.0191-0.01297 0.0949-0.3679 0.25333-0.78874 1.3343-3.5447 3.4077-5.5044 5.8236-5.5044 1.0979 0 1.8174 0.26873 2.5762 0.96217 0.9483 0.86669 1.5201 2.2446 1.5201 3.663 0 0.5126-0.0143 0.53401-0.35766 0.53401-0.29234 0-0.3711 0.06026-0.43128 0.32995-0.73896 3.312-2.5877 6.0825-3.7158 5.5685-0.25479-0.11609-0.29455-0.21408-0.29455-0.72599 0-0.32548 0.1441-1.123 0.32022-1.7723 0.24748-0.91238 0.32242-1.4711 0.32995-2.4598 0.009-1.1953-0.009-1.2996-0.28114-1.5898-0.43813-0.46769-0.96541-0.42285-1.4445 0.12285-0.37383 0.42576-0.37879 0.4473-0.28359 1.2298 0.24926 2.0488-0.0405 2.6151-1.6985 3.3198-0.88889 0.37778-0.75714 0.10918-1.3812 2.8159-0.33163 1.4383-0.45807 1.7676-1.1289 2.9396-0.64835 1.1327-0.7859 1.4814-0.97031 2.4596-0.25575 1.3566-0.42725 1.7348-0.89687 1.9777-0.44334 0.22926-1.8437 0.23346-2.3641 0.0071zm-4.0074-11.698c-0.0961-0.48863-0.31615-1.0038-0.65075-1.5239l-0.50551-0.78567-0.0775 0.38739c-0.23646 1.1824 0.0505 2.0509 0.81891 2.4787 0.26205 0.14589 0.49526 0.24643 0.51826 0.22344 0.023-0.023-0.0235-0.374-0.10343-0.78002zm11.253 0.23376c0.15211-0.1464 0.30592-0.38316 0.3418-0.52614 0.0965-0.38426 0.009-1.8123-0.11089-1.8123-0.18262 0-1.0017 1.4745-1.0803 1.9448-0.0418 0.25016-0.10938 0.57637-0.15012 0.7249-0.0722 0.26322-0.064 0.26582 0.32444 0.1025 0.21918-0.09216 0.52296-0.28734 0.67507-0.43374zm-16.027 7.071c-2.2573-0.44372-3.6644-3.3164-3.9304-8.0242l-0.0817-1.4452h0.41288 0.41289l0.19989 1.0574c0.53187 2.8134 1.6849 5.2754 2.9075 6.2079 0.28663 0.21862 0.62698 0.34844 1.01 0.38525 0.51381 0.04937 0.62275 0.01521 0.98479-0.3088 0.4002-0.35815 0.40698-0.38065 0.40135-1.3312-0.006-1.0641 0.0685-1.0481 0.42621 0.09118 0.55805 1.7773 0.0179 3.0303-1.4523 3.3693-0.59783 0.13781-0.5819 0.13783-1.2911-0.0016zm18.595 0.01022c-0.76516-0.18311-1.3965-0.8317-1.5735-1.6164-0.12928-0.57321 0.0271-1.5706 0.35242-2.2476l0.24808-0.51632-0.0546 0.5414c-0.12592 1.249 0.36406 2.0382 1.2655 2.0382 0.63472 0 1.0175-0.21364 1.7109-0.95497 1.0102-1.0799 2.0229-3.5282 2.4092-5.824 0.13995-0.83185 0.14513-0.84024 0.54272-0.87887l0.40142-0.039-0.0789 1.6588c-0.19378 4.0764-1.3517 6.7784-3.2583 7.6035-0.60375 0.26128-1.4387 0.36128-1.965 0.23534zm-9.6657-12.214c-0.75048-1.575-2.4696-3.671-3.6206-4.4143-2.3075-1.4901-5.2814-1.113-7.1735 0.90981-0.63731 0.68134-0.70453 0.63199-0.19237-0.14123 2.1158-3.1942 6.4558-3.6273 9.3916-0.93714 0.79236 0.72605 2.1792 2.6254 2.3165 3.1726 0.07 0.27877-0.26711 1.7052-0.42618 1.8035-0.0459 0.02838-0.17885-0.14856-0.29542-0.3932zm1.4932-0.38153-0.24916-0.8366 0.26096-0.51319c1.6182-3.1822 4.513-4.9817 7.3554-4.5723 1.6212 0.23356 3.2311 1.2131 4.0694 2.4761 0.5914 0.89098 0.55485 0.97812-0.11644 0.27756-1.2198-1.2729-2.5953-1.8128-4.416-1.7332-1.0036 0.04389-1.2142 0.09624-2.0503 0.50946-1.508 0.74528-3.169 2.5929-4.2423 4.7188-0.1416 0.28046-0.28107 0.50992-0.30993 0.50992-0.0289 0-0.16458-0.37647-0.30161-0.8366z"/>
 </g>
</svg>
