<?xml version="1.0" encoding="UTF-8" standalone="no"?>
<!-- Created with Inkscape (http://www.inkscape.org/) -->
<svg id="svg2" xmlns:rdf="http://www.w3.org/1999/02/22-rdf-syntax-ns#" xmlns="http://www.w3.org/2000/svg" height="54" width="99" version="1.1" xmlns:cc="http://creativecommons.org/ns#" xmlns:dc="http://purl.org/dc/elements/1.1/">
 <metadata id="metadata7">
  <rdf:RDF>
   <cc:Work rdf:about="">
    <dc:format>image/svg+xml</dc:format>
    <dc:type rdf:resource="http://purl.org/dc/dcmitype/StillImage"/>
    <dc:title/>
   </cc:Work>
  </rdf:RDF>
 </metadata>
 <g id="g6285">
  <rect id="rect2990" opacity="0" height="54" width="99" y="0" x="0"/>
  <path id="path12540" fill-rule="evenodd" clip-rule="evenodd" d="m67.946 34.507c-0.04093 0.04029-0.08272 0.08301-0.12748 0.12986-0.10554 0.11177-0.23866 0.18322-0.37326 0.23718-0.18381 0.07352-0.36763 0.12689-0.57664 0.18885-0.37089 0.1097-0.74298 0.12126-1.115 0.09161-0.21613-0.01777-0.43196-0.075-0.64988-0.2179-0.0919-0.05989-0.18411-0.13015-0.27868-0.18292-0.08094-0.04504-0.15742-0.06078-0.21969-0.04388-0.06255 0.0172-0.10762 0.06137-0.12986 0.13134-0.0249 0.07945-0.03317 0.16454-0.04151 0.24933-0.01036 0.10762 0.0058 0.20012 0.01899 0.2947 0.05217 0.37 0.12719 0.74536 0.24103 1.0596 0.19449 0.53513 0.38868 1.0682 0.5906 1.4343 0.06641 0.12007 0.14468 0.22858 0.2271 0.34154 0.12096 0.16691 0.22858 0.33383 0.38334 0.46398 0.14557 0.12244 0.31338 0.22383 0.50697 0.30566 0.36377 0.15386 0.68364 0.23214 1.0216 0.26623 0.50905 0.0513 1.0139 0.08598 1.5176-0.02785 0.51823-0.11741 0.92379-0.25912 1.3451-0.44352 0.22591-0.09931 0.46664-0.27098 0.71241-0.48028 0.33472-0.28521 0.6958-0.63477 0.94869-1.0166 0.1174-0.17699 0.22324-0.33056 0.31871-0.4625 0.06937-0.09576 0.13786-0.21346 0.23006-0.35221 0.25082-0.37623 0.41624-0.78953 0.55351-1.1891 0.2523-0.73378 0.39639-1.4571 0.46517-2.1859 0.03734-0.39223-0.0041-0.55588-0.14171-0.92113-0.08776-0.23214-0.18144-0.46339-0.22769-0.70089-0.10525-0.54758-0.11593-1.102-0.03734-1.6502 0.0052-0.0359 0.011-0.07086 0.01749-0.10495 0.03173-0.17076 0.15624-0.59089 0.21316-0.75508 0.0187-0.05396 0.04093-0.09813 0.07382-0.12215 0.03381-0.0249 0.08449-0.01633 0.13845 0.04093 0.05575 0.059 0.08776 0.1426 0.12096 0.2434 0.03647 0.1097 0.08479 0.21465 0.13401 0.31574 0.05245 0.10821 0.12155 0.17937 0.20782 0.22384 0.07056 0.03647 0.14972 0.03352 0.22413-0.01366 0.07086-0.04446 0.13519-0.11859 0.17878-0.2099 0.04302-0.09013 0.07767-0.18766 0.09013-0.28402l0.19834-1.2692c0.37829-2.5449 0.3777-5.0869-0.08568-7.629-0.01424-0.80371-0.55055-1.2253-0.71716 0.02698-0.30536 2.2956-0.89062 4.5778-1.6194 6.5562-0.73285 1.9923-2.9206 6.2626-4.3371 7.662zm-23.622 11.521c-0.09991 0.11592-0.15031 0.26001-0.1506 0.41388 0 0.15861 0.03051 0.31782 0.08212 0.47584 0.07975 0.24341 0.17996 0.48474 0.311 0.73019 0.10525 0.19775 0.24726 0.38186 0.41388 0.53543 0.20842 0.19152 0.43907 0.36081 0.69881 0.5126 0.48177 0.28165 0.97984 0.46932 1.5173 0.57812 1.2997 0.26326 2.6003 0.29914 3.9019 0.09576 0.69047-0.10792 1.3827-0.2769 2.0753-0.57634 0.35695-0.15446 0.66737-0.3777 0.93242-0.5888 0.17936-0.1429 0.33501-0.2944 0.42366-0.44233 0.11059-0.185 0.21494-0.41299 0.33205-0.67982 0.07767-0.17759 0.126-0.35814 0.14468-0.53958 0.01065-0.10436-0.0035-0.2099-0.01899-0.31722-0.01424-0.09962-0.06315-0.18471-0.13075-0.25082-0.06759-0.06552-0.15179-0.10139-0.25674-0.10317-0.10228-0.0017-0.20723 0.0023-0.30981 0.03619-1.6724 0.55529-3.3454 0.86213-5.0172 0.82241-1.4868-0.03561-2.9727-0.32197-4.4589-0.80904-0.08983-0.02964-0.18648-0.02519-0.27868-0.0063-0.08005 0.01569-0.15209 0.05841-0.21138 0.11296zm-5.942-17.035c-0.0308 0.03792-0.09072 0.02964-0.17551-0.03173-0.07412-0.05338-0.14053-0.12986-0.19448-0.2102-0.06523-0.09695-0.126-0.20427-0.19597-0.29173-0.0572-0.07115-0.11888-0.11118-0.18559-0.11948-0.07619-0.0092-0.13786 0.02223-0.17996 0.09517-0.04122 0.07116-0.0572 0.16484-0.03856 0.26297 0.01835 0.09605 0.05518 0.19152 0.0928 0.2858 0.07797 0.19508 0.17907 0.36051 0.28728 0.53365 0.80817 1.2929 1.6938 2.2395 2.619 3.0993 0.25793 0.23985 0.49896 0.52446 0.66916 0.81796 0.126 0.21702 0.21287 0.44352 0.29736 0.69226 0.04655 0.13638 0.05841 0.27691 0.04417 0.41269s-0.06937 0.26178-0.12719 0.33382c-0.05217 0.06552-0.11266 0.12986-0.18737 0.15417-0.07767 0.02582-0.16632 0.04151-0.28758 0.04684-0.118 0.0052-0.24281-0.04684-0.36733-0.11058-0.16336-0.08361-0.31071-0.18915-0.43908-0.30537-0.2609-0.23659-0.51942-0.51438-0.74889-0.84968-0.38927-0.56982-0.67391-1.1429-0.91464-1.7142-0.04979-0.1174-0.10198-0.23362-0.17699-0.34925-0.06374-0.09813-0.13608-0.15624-0.19627-0.17551-0.05575-0.01749-0.11088 0.0035-0.14438 0.06789-0.03676 0.07026-0.04359 0.16691-0.03115 0.26564 0.011 0.08538 0.011 0.17047 0.02785 0.25378 0.1432 0.71062 0.34391 1.4195 0.64184 2.1266 0.25111 0.59564 0.48829 1.1213 0.85443 1.681 0.16662 0.25467 0.37711 0.43196 0.57457 0.60953 0.81026 0.72787 1.4427 1.5668 2.0489 2.4495 0.63118 0.91939 1.1797 1.8722 1.547 2.8476 0.26119 0.69284 0.42811 1.3706 0.48266 1.9994 0.01662 0.19004 0.0017 0.38008 0.04539 0.5713 0.03289 0.1426 0.09665 0.26327 0.19448 0.38571 0.08598 0.10732 0.19182 0.18885 0.31693 0.24785 0.12511 0.0593 0.24815 0.09932 0.37148 0.13015 0.91018 0.22918 1.8176 0.36496 2.7249 0.34895 0.1257-0.0023 0.24874-0.02281 0.3614-0.07056 0.10258-0.0436 0.18263-0.1011 0.23747-0.19033 0.05662-0.0925 0.10169-0.19715 0.13727-0.31011 0.07412-0.23451 0.13905-0.46784 0.1933-0.69788 0.1773-0.75184 0.2778-1.5022 0.24163-2.2532-0.0046-0.09517-0.01366-0.19122-0.04122-0.28402-0.02727-0.0925-0.07857-0.15061-0.14438-0.18263-0.05274-0.02611-0.11326-0.01482-0.17996 0.04064-0.07175 0.0593-0.12304 0.1435-0.1595 0.2357-0.04267 0.10792-0.08479 0.21169-0.11088 0.31723-0.10198 0.41535-0.2013 0.75334-0.36762 1.0605-0.05633 0.10377-0.12748 0.20456-0.22146 0.31574-0.09635 0.11385-0.21435 0.19241-0.34806 0.24607-0.13282 0.05309-0.26949 0.05784-0.40261 0.03022-0.14586-0.03086-0.29291-0.10021-0.43344-0.20872-0.15091-0.11681-0.27928-0.26386-0.38927-0.42958-0.11859-0.17907-0.20427-0.35873-0.2517-0.53958-0.08331-0.31604-0.12689-0.63506-0.1088-0.95199 0.07886-1.3795 0.54195-2.7554 1.0226-4.1115 0.06878-0.19448 0.11948-0.37889 0.10791-0.58492-0.01216-0.21405-0.05425-0.40053-0.12363-0.59089-0.27186-0.74622-0.65845-1.4922-1.1139-2.2025-0.075-0.11681-0.16039-0.23451-0.25496-0.3445-0.08479-0.09842-0.17699-0.16128-0.2772-0.17699-0.10495-0.01633-0.20694 0.01129-0.30981 0.0572-0.10495 0.04655-0.20753 0.0759-0.30952 0.06611-0.13638-0.01303-0.26979-0.07619-0.40261-0.16187-0.244-0.161-0.492-0.332-0.739-0.523-0.303-0.234-0.611-0.49-0.885-0.792-0.202-0.224-0.339-0.435-0.459-0.622-0.04504-0.06937-0.09872-0.1343-0.13252-0.20397-0.03734-0.07679-0.03468-0.13905-0.0089-0.1601 0.02015-0.01633 0.07412-0.0187 0.15802 0.0035 0.0762 0.02015 0.14409 0.07412 0.22413 0.10465 0.60038 0.22858 1.1542 0.38304 1.7853 0.58701 0.2016 0.06523 0.39579 0.17433 0.57516 0.32079 0.18351 0.14971 0.33442 0.32701 0.47168 0.49274 0.08657 0.10495 0.1598 0.20634 0.25497 0.2769 0.08272 0.06107 0.16928 0.0925 0.23599 0.08302 0.06848-0.0092 0.12629-0.05755 0.16068-0.1343 0.03497-0.07797 0.03885-0.17225 0.02073-0.27039-0.01748-0.09487-0.03734-0.19092-0.07234-0.2858-0.18114-0.49837-0.38719-0.99379-0.6496-1.4919-0.16662-0.31574-0.38216-0.6383-0.68665-0.95256-0.44204-0.45568-0.88853-0.83012-1.3311-1.1521-0.327-0.243-0.648-0.547-0.901-0.857-0.22028-0.2692-0.37533-0.5464-0.46576-0.81321-0.0418-0.12304-0.07886-0.24637-0.08093-0.3869-0.0017-0.10169 0.0098-0.20071 0.05008-0.27335 0.04533-0.08093 0.12155-0.12778 0.20516-0.16899 0.07708-0.03798 0.18174-0.0436 0.28758-0.0436 0.12007 0 0.24518 0.03317 0.38334 0.08775 0.21702 0.08598 0.41239 0.20753 0.57516 0.34183 0.16246 0.1343 0.3104 0.29677 0.42722 0.50193 0.06374 0.11206 0.12511 0.21198 0.19448 0.2858 0.06552 0.06937 0.13994 0.11325 0.21672 0.11355 0.08093 0 0.1429-0.04331 0.19182-0.11355 0.04539-0.06552 0.05575-0.15328 0.05159-0.25378-0.0041-0.09487-0.01777-0.19122-0.04122-0.2855-0.10228-0.41269-0.21969-0.8245-0.40468-1.2381-0.38097-0.85119-0.88703-1.7174-1.5428-2.5123-0.9653-1.1696-2.1272-2.2159-3.2576-3.228-0.58197-0.5215-1.0919-1.1301-1.5402-1.7842-0.20546-0.29973-0.35903-0.595-0.44619-0.88882-0.0513-0.17284-0.07738-0.33946-0.07797-0.50785-0.000579-0.11741 0.03555-0.23421 0.10495-0.34747 0.0587-0.09606 0.13519-0.18174 0.23154-0.24637 0.09962-0.06641 0.2022-0.09398 0.30537-0.08746 0.10496 0.0065 0.20961 0.02136 0.30952 0.06048 0.20041 0.07827 0.39668 0.15802 0.58822 0.27691 0.09635 0.05989 0.18589 0.09813 0.27868 0.11058 0.0928 0.01245 0.16869-0.0071 0.21672-0.06789 0.03972-0.05043 0.05871-0.12304 0.05043-0.20546-0.0086-0.08598-0.05008-0.16929-0.10021-0.25378-0.05604-0.09487-0.12422-0.18826-0.19894-0.2858-0.403-0.532-0.853-1.054-1.269-1.512-0.681-0.7497-1.502-1.48-2.32-2.0442-0.603-0.4162-1.196-0.7364-1.7956-0.92-0.5464-0.1672-1.0933-0.201-1.6412-0.1959-0.6807 0.0062-1.3537 0.1805-1.9629 0.3557-0.2832 0.0813-0.6351 0.1919-0.9811 0.3638-0.4488 0.223-0.9036 0.5034-1.3617 0.8592-0.6997 0.5434-1.276 1.1645-1.847 1.8104-0.6694 0.758-1.255 1.532-1.6866 2.319-0.06433 0.118-0.12363 0.233-0.16691 0.349-0.03144 0.08509-0.0418 0.17107-0.02489 0.2526 0.0187 0.09102 0.06938 0.16039 0.14587 0.1933 0.07975 0.03468 0.17136 0.04151 0.25941 0.01366 0.08568-0.02698 0.16691-0.07086 0.2523-0.12067 0.27098-0.15832 0.58168-0.33442 0.89832-0.46338 0.21523-0.08746 0.43373-0.13371 0.65046-0.13875 0.16781-0.0041 0.33561 0.03352 0.49125 0.10762 0.13727 0.06552 0.26979 0.15328 0.37593 0.26772 0.11503 0.12452 0.2185 0.27364 0.29025 0.42929 0.08271 0.18025 0.13578 0.36021 0.14853 0.53958 0.0089 0.12719 0.01274 0.25437-0.0063 0.38097-0.01598 0.10554-0.05338 0.20012-0.12096 0.28253-0.06492 0.07887-0.15001 0.13519-0.25081 0.15713-0.10525 0.02281-0.20901-0.000579-0.30507-0.06374-0.09042-0.0593-0.16602-0.14231-0.23154-0.24934-0.0662-0.11-0.1166-0.215-0.1563-0.319-0.0433-0.113-0.102-0.209-0.1723-0.289-0.0649-0.074-0.1375-0.104-0.1977-0.095-0.06938 0.01065-0.12926 0.05989-0.16662 0.13904-0.03914 0.08242-0.05187 0.17966-0.05043 0.27661 0.0017 0.10762 0.0068 0.21228 0.01598 0.31722 0.0063 0.07471 0.01453 0.14912 0.02403 0.22324 0.14409 1.121 0.62198 2.635 1.2268 3.5043 1.1085 1.5935 2.2914 3.0365 3.3169 4.2888 0.35962 0.43937 0.53513 0.93716 0.74119 1.3967 0.13727 0.30656 0.19626 0.6152 0.25022 0.85976 0.02461 0.11207 0.03618 0.2271 0.04713 0.33887 0.008 0.08183 0.0058 0.15832-0.03856 0.20249-0.03288 0.0326-0.07679 0.0436-0.11355 0.03289-0.051-0.015-0.1325-0.05-0.2078-0.127-0.0688-0.071-0.1411-0.149-0.2152-0.235-0.2268-0.262-0.3872-0.514-0.5233-0.752-0.1373-0.241-0.2618-0.463-0.3902-0.712-0.0453-0.091-0.0598-0.176-0.0856-0.226-0.0305-0.06-0.0848-0.097-0.1329-0.088-0.0495 0.0086-0.09962 0.05575-0.15921 0.1254-0.05072 0.0593-0.07826 0.1432-0.08123 0.24311-0.0035 0.10762 0.01719 0.21138 0.03381 0.31722 0.09131 0.57427 0.24014 1.1542 0.4711 1.6976 0.10317 0.24252 0.24252 0.49244 0.39816 0.74061 0.64485 1.0267 0.79868 1.3682 1.6335 2.2541 0.08953 0.09517 0.17877 0.18885 0.26563 0.27987 0.19301 0.2019 0.41655 0.35962 0.64867 0.48533 0.18529 0.1008 0.37148 0.15209 0.55737 0.15327 0.13786 0.000579 0.27186-0.02698 0.39223-0.08153 0.12185-0.05517 0.23036-0.13816 0.32019-0.25349 0.09072-0.1168 0.1678-0.24429 0.23777-0.38541 0.14794-0.29796 0.2517-0.59471 0.30863-0.88824 0.1346-0.6914 0.26238-1.3465 0.19864-1.9677-0.17996-1.7518-0.54284-3.4954-0.90277-5.0525-0.13697-0.59234-0.29469-1.3341-0.37355-2.0643-0.04238-0.39223-0.0089-0.79393 0.08034-1.1983 0.0513-0.23303 0.13578-0.46813 0.26001-0.69788 0.07086-0.13193 0.16869-0.24429 0.25823-0.34746 0.08746-0.1008 0.19271-0.14883 0.28016-0.1767 0.09665-0.03086 0.18322-0.04122 0.27275 0.01366 0.09872 0.06048 0.19745 0.13519 0.28313 0.24341 0.11118 0.14023 0.18885 0.28639 0.2357 0.43077 0.06671 0.20576 0.15268 0.41596 0.14557 0.63003-0.04151 1.2914-0.34302 2.5731-0.4871 3.8716-0.05245 0.47287 0.13104 0.9517 0.29143 1.4281 0.09695 0.28876 0.19538 0.47525 0.31367 0.65017 0.08183 0.12126 0.17195 0.30596 0.29766 0.49274 0.29588 0.43878 0.62499 0.80846 0.93745 1.0854 0.08776 0.07797 0.17907 0.15446 0.27127 0.22087 0.06552 0.04684 0.13668 0.07026 0.21228 0.0667 0.07086-0.0041 0.12422-0.02964 0.15209-0.08153 0.02906-0.05454 0.03763-0.13044 0.01337-0.21168-0.02611-0.08657-0.07412-0.17047-0.12689-0.25378-0.06849-0.10851-0.15061-0.21138-0.23866-0.31722-0.30032-0.36199-0.50371-0.72011-0.63211-1.0795-0.06107-0.17077-0.11978-0.33887-0.13994-0.50786-0.01366-0.11681 0.0041-0.2348 0.04302-0.34924 0.04238-0.12393 0.11503-0.23007 0.21702-0.3113 0.10169-0.08094 0.18233-0.15417 0.27602-0.19479 0.09072-0.03943 0.1844-0.048 0.27572-0.05425 0.09516-0.0065 0.2096 0.02403 0.32582 0.08776 0.11384 0.06225 0.23154 0.1429 0.34064 0.25081 0.17344 0.17166 0.31693 0.34213 0.43196 0.48088 0.12274 0.14794 0.23036 0.28906 0.31544 0.44767 0.15476 0.28906 0.24904 0.57397 0.31219 0.88112 0.03231 0.15446 0.04418 0.27868-0.0058 0.32582zm32.446-18.226c0.08954 0.03734 0.18856 0.07945 0.2947 0.13252 0.10198 0.05072 0.20427 0.09932 0.30981 0.13756 0.0928 0.03381 0.18618 0.06315 0.2772 0.06077 0.08568-0.0023 0.16039-0.03618 0.20516-0.10109 0.0418-0.06107 0.06523-0.14409 0.04568-0.24341-0.0187-0.09754-0.06344-0.19004-0.12066-0.27809-0.116-0.1779-0.258-0.359-0.414-0.5473-0.243-0.295-0.477-0.5526-0.663-0.7741-0.581-0.691-1.213-1.2733-1.862-1.7373-0.181-0.1299-0.391-0.2879-0.619-0.4492-0.956-0.6783-1.949-1.1779-2.978-1.6184-0.662-0.28372-1.422-0.50222-2.229-0.65996-1.1349-0.22177-2.2731-0.24281-3.4065-0.059297-0.60096 0.097538-1.1957 0.33946-1.7966 0.62024-0.16335 0.076492-0.3279 0.17048-0.4957 0.29736-0.09636 0.072932-0.19064 0.15358-0.26683 0.24311-0.07145 0.083602-0.12422 0.16899-0.1429 0.25822-0.02044 0.097242-0.0035 0.18886 0.04539 0.2689 0.04539 0.074709 0.11859 0.13341 0.20931 0.16187 0.09309 0.029353 0.18559 0.038559 0.27868 0.024606l0.43345-0.064925c0.11385-0.013027 0.22828-0.014532 0.33797 0.022811 0.08746 0.029643 0.1681 0.08212 0.22859 0.15594 0.0572 0.069967 0.0753 0.16751 0.08983 0.26742 0.01957 0.13519 0.0041 0.28165-0.03856 0.43345-0.03676 0.13045-0.08805 0.26089-0.15179 0.38926-0.46161 0.92796-1.5126 1.8512-2.3374 2.4421-0.16751 0.12007-0.31752 0.21583-0.43196 0.27098-0.12807 0.06137-0.26208 0.10436-0.39282 0.14112-0.10288 0.02877-0.20456 0.04238-0.30951 0.03022-0.10436-0.01245-0.18886-0.06404-0.24934-0.13905-0.0593-0.07412-0.10614-0.1681-0.1266-0.27987-0.0249-0.13549-0.02906-0.27364-0.01598-0.41269 0.03555-0.38156 0.14705-0.76284 0.31456-1.1423 0.18204-0.4121 0.42573-0.74889 0.59355-1.0513 0.09398-0.16958 0.19478-0.28076 0.3113-0.36851 0.09072-0.068485 0.2016-0.13371 0.32019-0.26119 0.07679-0.082716 0.15446-0.16929 0.21257-0.25823 0.05691-0.088054 0.067-0.18856 0.04001-0.27186-0.02611-0.081234-0.07531-0.13786-0.16069-0.16632-0.09161-0.030511-0.1847-0.039427-0.2775-0.012448-0.12452 0.036475-0.25052 0.092205-0.37177 0.16455-0.34361 0.20605-0.67924 0.49007-1.0222 0.81414-0.69788 0.65903-1.2137 1.2532-1.7112 1.9561-0.72515 1.0249-1.3329 2.131-1.7907 3.2935-0.31959 0.81205-0.54343 1.6366-0.69435 2.3178-0.18411 0.83249-0.25319 1.7163-0.24281 2.6006 0.008 0.74003 0.13519 1.483 0.38216 2.2218 0.17403 0.52031 0.41714 0.98782 0.79572 1.5221 0.23599 0.33294 0.50371 0.61075 0.75925 0.87105 0.15298 0.15595 0.34065 0.2775 0.54373 0.37356 0.16692 0.07886 0.32849 0.12363 0.4957 0.11948 0.16899-0.0041 0.31901-0.05841 0.46754-0.13104 0.22028-0.10792 0.46012-0.28343 0.69313-0.46072 1.6273-1.2357 3.1643-2.5416 4.7874-4.1308 0.12719-0.12422 0.25229-0.27038 0.33561-0.4284 0.29054-0.54996 0.10436-0.80846-0.41299-0.60571-0.05749 0.02252-0.0922 0.04267-0.1257 0.05043-0.01957 0.0046-0.04001 0.0074-0.06077 0.0065-0.66378-0.01957-0.45776-0.86155-0.42396-1.0922 0.0092-0.06255 0.04539-0.13904 0.06908-0.21731 0.06315-0.20605 0.14053-0.34924 0.21435-0.4954 0.07056-0.14083 0.16247-0.36733 0.29232-0.58168 0.41002-0.67802 0.86126-1.3267 1.3486-1.89 0.48562-0.56122 1.0774-1.1162 1.6552-1.6155 0.50905-0.43967 1.0222-0.70651 1.6573-0.92292 1.0685-0.36436 2.2974-0.48443 3.2493-0.38126 0.28195 0.030511 0.5627 0.077673 0.84227 0.14201 0.11059 0.025474 0.2185 0.055465 0.32197 0.090428 0.06463 0.021943 0.12955 0.041801 0.19597 0.056044 0.02194 0.00463 0.11592 0.030801 0.31545 0.096056 0.75601 0.24577 2.6834 0.92437 2.3736 0.79515zm-28.046-4.6c-0.04684 0.11147-0.02935 0.24281 0.06612 0.36555 0.06937 0.089536 0.14171 0.1681 0.21968 0.23747 0.21791 0.1936 0.42159 0.41951 0.6027 0.69996 0.26683 0.41329 0.46635 0.82629 0.59679 1.2381 0.12778 0.4038 0.19775 0.80464 0.26327 1.206 0.01928 0.11829-0.0029 0.23421-0.04892 0.33561-0.04417 0.09724-0.11058 0.18114-0.19182 0.23866-0.08598 0.06107-0.19004 0.08598-0.29499 0.08746-0.10495 0.0017-0.20753-0.02252-0.30952-0.06078-0.177-0.0665-0.349-0.1478-0.526-0.2435-0.424-0.2292-0.856-0.5494-1.259-0.9318-0.382-0.362-0.758-0.7862-1.02-1.2049-0.192-0.3071-0.329-0.6148-0.409-0.9205-0.03086-0.118-0.05101-0.23392-0.03086-0.34925 0.01986-0.11266 0.07026-0.21168 0.14764-0.29143 0.08094-0.083608 0.17581-0.14053 0.28165-0.16751 0.10525-0.027269 0.20783-0.029353 0.30952-0.015111 0.15535 0.021653 0.30952 0.057491 0.46457 0.072637 0.09398 0.00921 0.18885 0 0.27009-0.039138 0.07916-0.038269 0.13638-0.097242 0.16217-0.1767 0.025-0.0819 0.011-0.1726-0.041-0.2707-0.052-0.0958-0.123-0.1809-0.211-0.2659-0.109-0.1044-0.223-0.1925-0.336-0.26598-0.229-0.14824-0.456-0.26238-0.681-0.36318-0.725-0.32316-1.447-0.50608-2.168-0.55588-1.301-0.089241-2.598 0.046259-3.902 0.43788-0.494 0.14824-0.988 0.33561-1.4622 0.54406-0.9126 0.4005-2.2108 1.1014-2.9873 1.7349-0.0818 0.067-0.1672 0.1418-0.2594 0.2271-0.2031 0.1892-0.4201 0.3499-0.6178 0.5257-0.7199 0.6389-1.2906 1.3044-1.9093 2.0679-0.1272 0.1571-0.2298 0.3154-0.3084 0.4758-0.04626 0.09398-0.0756 0.19092-0.07234 0.28402 0.0035 0.08924 0.0359 0.15743 0.09873 0.19953 0.06018 0.0403 0.14053 0.05841 0.23748 0.03943 0.09339-0.01835 0.18677-0.05483 0.27868-0.1011l1.0222-0.4784c1.0018-0.46576 2.0839-0.82595 3.046-1.0065 0.76076-0.1426 1.5366-0.13637 2.3122-0.081825 0.66262 0.046838 1.3157 0.27839 1.9819 0.595 0.35784 0.16988 0.7237 0.38926 1.0732 0.6819 0.36792 0.30774 0.72666 0.63859 1.0578 0.97659 0.62794 0.64097 1.7287 2.0385 2.1038 2.8633 0.10347 0.2274 0.19122 0.4622 0.27957 0.67119 0.08272 0.19597 0.1595 0.39639 0.19004 0.56686 0.0326 0.18411 0.05101 0.31812 0.06018 0.45509 0.0059 0.08864-0.01007 0.18411-0.05159 0.28254-0.03705 0.08775-0.09932 0.16276-0.1844 0.21138-0.08213 0.04713-0.18352 0.05691-0.28936 0.03289-0.10495-0.02374-0.20605-0.07412-0.30951-0.12393-0.08331-0.0403-0.16691-0.05959-0.24044-0.05749-0.08212 0.0023-0.14824 0.04122-0.18292 0.11147-0.03115 0.06403-0.0418 0.14497-0.01633 0.22977 0.02374 0.07886 0.05425 0.15594 0.09873 0.22976 0.07738 0.12837 0.18174 0.24815 0.29321 0.37504 0.18352 0.20931 0.38216 0.3952 0.55144 0.55796 1.273 1.225 2.6395 2.3125 4.0878 3.4675 0.32612 0.25971 0.66679 0.50726 1.0113 0.68931 0.18352 0.09724 0.37148 0.14142 0.55737 0.12719 0.1764-0.01332 0.34865-0.05989 0.52654-0.15832 0.18382-0.10139 0.37059-0.25882 0.55322-0.44086 0.25852-0.25793 0.46368-0.52742 0.66974-0.80968 0.27098-0.37059 0.49511-0.75155 0.64809-1.1755 0.27868-0.7732 0.39875-1.5455 0.4287-2.3163 0.05454-1.4094-0.14379-2.8198-0.59946-4.2211-0.334-1.0232-0.851-2.0351-1.406-3.0389-0.101-0.1833-0.229-0.349-0.38-0.5491l-0.771-1.0795c-0.426-0.5808-0.97-1.1589-1.553-1.6872-0.295-0.2668-0.597-0.4933-0.898-0.6715-0.103-0.0613-0.207-0.1085-0.309-0.1286-0.147-0.0276-0.265 0.0118-0.318 0.1049zm-18.006 13.489c-0.10199 0.01928-0.18292 0.13608-0.23036 0.30804-0.04059 0.14734-0.07826 0.29321-0.10198 0.44441-0.33709 2.1618-0.41002 4.324-0.1592 6.4873-0.000579-0.0041 0.30062 2.1438 0.30003 2.1396 0.01216 0.06552 0.02547 0.13045 0.04093 0.19567 0.02252 0.09635 0.04296 0.19389 0.07649 0.28105 0.03618 0.0928 0.0922 0.17759 0.15772 0.23421 0.07382 0.06404 0.15535 0.06879 0.24637 0.03057 0.0842-0.0359 0.14112-0.1174 0.19626-0.22828 0.05959-0.11948 0.1088-0.23332 0.14764-0.3445 0.03618-0.10258 0.08361-0.19063 0.12986-0.24014 0.04267-0.04539 0.09754-0.06137 0.15328-0.02252 0.04863 0.03317 0.10643 0.11355 0.15327 0.2099 0.05158 0.10554 0.08242 0.23362 0.10584 0.36555 0.08242 0.46605 0.12778 0.91968 0.11444 1.4281-0.01187 0.44441-0.16306 0.88054-0.33383 1.3327-0.12511 0.33086-0.12244 0.67623-0.09635 1.0157 0.05811 0.76162 0.28135 1.5162 0.59442 2.2852 0.18174 0.44619 0.3869 0.87458 0.67924 1.365 0.22295 0.37415 0.50637 0.75601 0.81796 1.0661 0.22354 0.22265 0.44975 0.37741 0.6368 0.52001 0.17225 0.13134 0.36348 0.27779 0.58967 0.37682 0.49363 0.21642 0.99112 0.40142 1.4847 0.46783 0.41447 0.05575 0.82328 0.10228 1.2386 0.05784 0.14349-0.01511 0.28699-0.04209 0.43077-0.08005 0.6881-0.18115 1.1894-0.4714 1.5562-1.2004 0.27098-0.53869 0.49748-1.1162 0.6632-1.6804 0.11177-0.38067 0.2013-0.76134 0.26-1.1423 0.01453-0.09428 0.02345-0.19033 0.02519-0.2858 0.0017-0.10139-0.02461-0.18471-0.07205-0.23392-0.04655-0.04863-0.11236-0.06196-0.19893-0.03647-0.08005 0.02316-0.16187 0.06938-0.24666 0.12689-0.24696 0.16721-0.49511 0.27127-0.74327 0.30626-0.34954 0.0495-0.6991 0.03173-1.0528-0.04302-0.22532-0.04742-0.4539-0.10288-0.68132-0.21791-0.2464-0.128-0.4521-0.258-0.6194-0.424-0.3854-0.382-0.7319-0.781-0.989-1.181-0.0836-0.13-0.204-0.272-0.3282-0.435 0.0919 0.121-1.0198-1.692-0.9499-1.56-0.0207-0.039-0.0424-0.079-0.0643-0.12-1.1969-2.204-2.0982-4.508-2.7279-6.82-0.3848-1.413-0.6531-2.835-0.8295-4.253-0.0122-0.097-0.054-0.189-0.0999-0.286-0.0721-0.149-0.1625-0.224-0.2731-0.212zm39.536 8.135c-0.02194 0.05396-0.04389 0.10881-0.06552 0.16692-0.0418 0.11296-0.11948 0.29262-0.23006 0.45153-0.11711 0.16781-0.28076 0.38067-0.43848 0.64693-0.18263 0.30804-0.37623 0.55707-0.65521 0.81738-0.14676 0.13667-0.29024 0.25852-0.43967 0.36525-0.0842 0.06018-0.16661 0.10406-0.25644 0.10554-0.09695 0.0023-0.16988-0.03051-0.21554-0.08953-0.04805-0.06226-0.06463-0.1435-0.04539-0.24311 0.01662-0.08627 0.067-0.1681 0.12689-0.25378 0.06611-0.09369 0.14497-0.19093 0.22739-0.2855 0.16602-0.19152 0.29648-0.38364 0.38216-0.5633 0.08657-0.18025 0.15683-0.3362 0.20397-0.47139 0.05454-0.15683 0.11474-0.33175 0.15802-0.55144 0.02403-0.12155 0.01245-0.21316-0.01303-0.30358-0.02698-0.09576-0.09428-0.14942-0.15031-0.21168-0.06374-0.07086-0.1343-0.14853-0.24044-0.20872-0.08568-0.04834-0.16988-0.09487-0.2775-0.10436-0.11177-0.01007-0.1764-0.0098-0.22265 0.01036-0.05367 0.0231-0.11088 0.0359-0.16217 0.07233-0.06137 0.04331-0.15476 0.12274-0.25823 0.20516-0.17581 0.13994-0.33205 0.3024-0.48384 0.47435-0.25289 0.28609-0.41209 0.57249-0.54462 0.8989-0.06048 0.14883-0.11948 0.28047-0.13134 0.42485-0.0074 0.08775-0.03856 0.14557-0.02547 0.16632 0.01245 0.01899 0.05662 0.01303 0.09902-0.02432 0.04475-0.03972 0.11118-0.10495 0.19775-0.16602 0.08272-0.05841 0.15742-0.126 0.21969-0.21909 0.06641-0.09932 0.13015-0.17907 0.20367-0.21613 0.07708-0.03856 0.15091-0.03352 0.20931 0.01366 0.05929 0.048 0.10672 0.13401 0.11799 0.22977 0.0098 0.08716-0.01482 0.17106-0.04597 0.25081-0.03705 0.09487-0.07827 0.17848-0.12244 0.26742-0.36228 0.72932-0.76342 1.3457-1.2306 1.8657-0.41862 0.46546-0.90781 0.98782-1.3973 1.4681-0.18204 0.17877-0.40943 0.38897-0.61845 0.657-0.16395 0.21049-0.3027 0.42543-0.38364 0.62377-0.07827 0.19152-0.13341 0.38482-0.16691 0.5713-0.02611 0.14498-0.03289 0.28906 0.01748 0.42306 0.0341 0.09102 0.06404 0.18114 0.13401 0.25111 0.06552 0.06523 0.14498 0.09724 0.23125 0.11355 0.0842 0.01569 0.17729 0.01216 0.27157-0.01662 0.11681-0.03526 0.22651-0.08924 0.3273-0.14764 0.18233-0.10554 0.33294-0.24133 0.47792-0.39134 0.29884-0.30892 0.56093-0.62673 0.7717-1.0136 0.09488-0.17403 0.15446-0.3107 0.22739-0.42899 0.17878-0.28936 0.35992-0.69018 0.54344-1.0937 0.04979-0.1091 0.10999-0.21228 0.18589-0.3021 0.06166-0.07293 0.13015-0.11296 0.19478-0.12067 0.06256-0.0077 0.11503 0.01777 0.14883 0.07234 0.03856 0.06256 0.05008 0.15476 0.04122 0.25526-0.0074 0.08539-0.02964 0.16751-0.04863 0.25378-0.12185 0.55203-0.2271 1.1032-0.41832 1.6499-0.19034 0.54462-0.40232 1.0777-0.6229 1.4385-0.21731 0.35577-0.38452 0.63622-0.65255 0.92292-0.11681 0.12511-0.29381 0.2437-0.47762 0.42011-0.21287 0.20397-0.42277 0.38541-0.5713 0.56774-0.69817 0.85947-1.2891 1.6264-1.8254 2.5514-0.50074 0.86364-0.83336 1.6973-1.1604 2.5909-0.08864 0.24252-0.12719 0.43107-0.17996 0.64068-0.10495 0.41447-0.1761 0.87012-0.19093 1.2662-0.0052 0.12749-0.0341 0.25467-0.09605 0.39282-0.05575 0.12452-0.13371 0.22918-0.24785 0.31426-0.11384 0.0845-0.24103 0.13282-0.36436 0.1767-0.32374 0.11503-0.64218 0.1933-0.95998 0.24755-0.51527 0.08717-1.0231 0.12956-1.4791 0.18026-0.1767 0.01957-0.36288-0.02993-0.59592-0.06522-0.11592-0.01778-0.23065-0.05784-0.32997-0.13312-0.08983-0.0679-0.16365-0.16188-0.22562-0.27216-0.06374-0.11296-0.10821-0.22472-0.14171-0.3448-0.1933-0.69788-0.31693-1.4198-0.38363-2.1417-0.02165-0.23362 0.0017-0.46605 0.03115-0.69788 0.01245-0.09903 0.03827-0.19152 0.08242-0.26297 0.04539-0.07264 0.1008-0.10466 0.16395-0.09517 0.06166 0.0095 0.12333 0.06048 0.17403 0.14527 0.05691 0.09546 0.09398 0.2013 0.12659 0.30833l0.20605 0.7299c0.04921 0.17936 0.11592 0.35813 0.21939 0.53958 0.08242 0.14468 0.19152 0.27691 0.32582 0.37059 0.12334 0.08627 0.24726 0.14112 0.37148 0.15268 0.13579 0.01274 0.2689-0.01482 0.40261-0.0679 0.14824-0.05841 0.28254-0.15386 0.40557-0.2852 0.12274-0.13134 0.22562-0.27365 0.31722-0.42011 0.12185-0.19389 0.2357-0.41002 0.28788-0.63744 0.05101-0.22117 0.04267-0.44382 0.03734-0.66644-0.0058-0.22977 0.0017-0.45953-0.02165-0.6196-0.0231-0.15773-0.03555-0.32256-0.10169-0.5547-0.2941-1.0367-0.60629-1.9125-0.91134-2.9202-0.06819-0.22591-0.12867-0.44501-0.11177-0.6665 0.0172-0.22265 0.08835-0.44145 0.16247-0.66615 0.23451-0.71062 0.60038-1.4183 1.0937-2.126 0.08064-0.11562 0.1595-0.23539 0.25378-0.33975 0.0836-0.0925 0.17521-0.1518 0.26978-0.1601 0.09903-0.0089 0.20249 0.03763 0.30537 0.08628 0.10495 0.0495 0.20783 0.07738 0.30952 0.06523 0.09724-0.01187 0.19241-0.06641 0.28876-0.13193 0.62053-0.42277 1.6238-1.2209 2.0326-1.9437 0.03317-0.0587 0.06226-0.10584 0.08954-0.13548 0.0403-0.0436 0.04626-0.10021 0.059-0.1435 0.0086-0.02964-0.01303-0.01957-0.05483-0.03173-0.05072-0.01482-0.12541-0.01303-0.21524 0.03022-0.10791 0.05188-0.20872 0.0928-0.29647 0.13904-0.03144 0.01662-0.06226 0.03231-0.0928 0.04771-0.39757 0.37088-1.322 0.20397-2.2511 1.0116-0.06522 0.08034-0.11058 0.13638-0.11058 0.13638-0.07174 0.08479-0.17018 0.16099-0.25823 0.2523-0.06908 0.07174-0.14409 0.11473-0.23154 0.12986-0.08568 0.01482-0.15209 0.0023-0.20219-0.05159-0.04805-0.05158-0.0756-0.13638-0.07205-0.22947 0.0041-0.09516 0.02993-0.18885 0.05483-0.2858 0.06493-0.25229 0.14794-0.50489 0.25852-0.76133 0.25615-0.59384 0.563-1.1829 1.0213-1.7569 0.3193-0.40024 0.80076-0.77616 1.2333-1.1601 0.20072-0.17848 0.34213-0.35369 0.48533-0.4456 0.09339-0.05989 0.19745-0.1349 0.33027-0.24133 0.13075-0.10495 0.24637-0.24607 0.36318-0.42484 0.10703-0.16366 0.18796-0.31545 0.25852-0.44709 0.06819-0.12719 0.09428-0.24459 0.12837-0.36554 0.0249-0.08895 0.03972-0.19864 0.02993-0.31426-0.0068-0.07975-0.02374-0.14705-0.0839-0.20872-0.06077-0.06196-0.13638-0.09309-0.23154-0.11799s-0.19567-0.04151-0.29943-0.02877c-0.14853 0.01835-0.28758 0.08301-0.41714 0.17195-0.12511 0.08568-0.23896 0.16306-0.32642 0.22947-0.19419 0.14823-0.36407 0.35487-0.56063 0.64218-0.06552 0.09546-0.14498 0.15684-0.22858 0.19034-0.07857 0.03144-0.16988 0.02698-0.24163-0.0169-0.06818-0.04122-0.12304-0.1094-0.15179-0.19479-0.02756-0.08064-0.03231-0.17433-0.01633-0.26594 0.01749-0.09724 0.05217-0.18766 0.07679-0.28698 0.07382-0.29795 0.16098-0.59795 0.27038-0.89565 1.0697-2.6437 3.0368-4.3018 4.8853-6.0779 0.43285-0.41595 0.80256-0.83486 1.1723-1.3107 0.22384-0.28817 0.87904-1.3208 0.88529-1.7296 0.0017-0.11029-0.01216-0.2182-0.03202-0.32345-0.02281-0.11918-0.06671-0.21998-0.14735-0.29469-0.05749-0.05338-0.12363-0.09546-0.20782-0.09843-0.09873-0.0035-0.19775 0.0083-0.30981 0.01957-0.19864 0.01986-0.39342 0.06492-0.58822 0.16276l-0.37177 0.19301c-0.09428 0.04597-0.18886 0.06403-0.26979 0.0513-0.08272-0.01274-0.14883-0.05512-0.17996-0.12867-0.02756-0.06493-0.02906-0.14349 0.0017-0.23124 0.03022-0.08598 0.06107-0.17403 0.11236-0.25082 0.02073-0.03144 0.04331-0.06285 0.06611-0.09428 0.88703-1.2108 2.5725-2.9463 3.8168-3.7687 0.97538-0.6445 2.0294-1.0237 3.2048-1.0139 1.311 0.01094 2.7104 0.44412 3.7471 1.0946 1.4509 0.91047 2.7614 2.3757 3.7595 3.8423 0.12304 0.18025 0.24044 0.36288 0.35192 0.54758 0.10851 0.18025 0.21613 0.35903 0.30625 0.53958 0.04742 0.09487 0.07323 0.19182 0.07205 0.28135-0.0012 0.0922-0.03885 0.1681-0.09872 0.20842-0.06493 0.0436-0.14942 0.05425-0.24192 0.03468-0.0928-0.01986-0.18411-0.06374-0.27868-0.11206l-0.43344-0.21613c-0.13816-0.07056-0.26298-0.14883-0.38779-0.201-0.14527-0.06078-0.26534-0.08776-0.37148-0.11059-0.09962-0.02136-0.21761-0.0418-0.35547-0.03051-0.15535 0.01274-0.3104 0.05338-0.46309 0.12214-0.16691 0.07531-0.30774 0.18856-0.43552 0.30211-0.10288 0.09161-0.19241 0.19508-0.27275 0.32908-0.06404 0.10644-0.11829 0.2523-0.14053 0.40646-0.02432 0.17284-0.01187 0.34213 0.01007 0.49718 0.01424 0.09931 0.03885 0.19715 0.08983 0.27216 0.0513 0.0756 0.13489 0.12363 0.22264 0.14053 0.08568 0.0169 0.17136-0.0029 0.25378-0.04209 0.09517-0.04568 0.16276-0.11058 0.21969-0.17521 0.07382-0.0842 0.1257-0.19479 0.18589-0.32049 0.04626-0.09695 0.09339-0.20575 0.15773-0.30358 0.05929-0.09013 0.1343-0.14824 0.20812-0.1675 0.06997-0.0187 0.14142 0.0059 0.18885 0.06789 0.05188 0.0679 0.07531 0.15327 0.07679 0.25378 0.0012 0.09516-0.0062 0.19004-0.01065 0.2858-0.02345 0.48325-0.10525 0.96501-0.21761 1.4477-1.083 3.0344-2.3039 4.188-3.6416 5.9564-0.73852 0.97601-0.98105 1.434-1.5422 2.5609-0.03317 0.07472-0.07441 0.16128-0.12719 0.26445-0.21109 0.41329 0.03497 0.86155 0.36941 0.34717-0.0046 0.0074 0.57663-0.82212 0.57545-0.82004 0.08834-0.16484 0.1675-0.3359 0.27601-0.49333 0.0063-0.0089 0.01245-0.01777 0.0187-0.0264 0.30922-0.55796 0.62493-0.4871 0.78716-0.24785 0.18589 0.27365 0.02611 0.6665-0.04064 0.95818-0.0086 0.03763-0.01366 0.05929-0.01274 0.05633-0.4284 1.582-1.652 2.8432-2.6167 3.9416-0.05633 0.06433-0.11385 0.12896-0.17196 0.1933-0.12185 0.13578-0.26594 0.26327-0.45271 0.37771-0.19982 0.12244-0.41002 0.22354-0.65666 0.28372-0.14765 0.0359-0.29025 0.05309-0.41714 0.0086-0.12-0.04-0.238-0.1-0.346-0.195-0.126-0.111-0.241-0.234-0.329-0.38-0.113-0.188-0.203-0.38-0.275-0.571-0.07708-0.20397-0.1512-0.4029-0.19864-0.53691-0.04684-0.13074-0.07679-0.27958-0.09398-0.49718-0.02935-0.36377-0.04597-0.67449-0.06167-0.88882-0.0095-0.13015-0.04713-0.26801-0.02785-0.46102 0.0282-0.2772 0.05425-0.57189 0.08361-0.86867 0.04533-0.4536 0.84789-4.5147 0.96501-4.9187 0.0074-0.02547 0.01453-0.05187 0.02194-0.07856 0.28402-1.0205 0.47791-2.673-0.35102-3.4957-0.41714-0.41447-0.86838 0.1601-0.9763 0.55737-0.06493 0.23688-0.10495 0.42929-0.12719 0.59413-0.06315 0.46694 0.38274 3.6128 0.43226 4.0809 0.01366 0.12986 0.0231 0.25348 0.02964 0.36881 0.03173 0.58643 0.01986 0.81379-0.23154 1.4287z"/>
 </g>
</svg>
