<?xml version="1.0" encoding="UTF-8" standalone="no"?>
<!-- Created with Inkscape (http://www.inkscape.org/) -->
<svg id="svg2" xmlns:rdf="http://www.w3.org/1999/02/22-rdf-syntax-ns#" xmlns="http://www.w3.org/2000/svg" height="45" width="67.5" version="1.1" xmlns:cc="http://creativecommons.org/ns#" xmlns:dc="http://purl.org/dc/elements/1.1/">
 <metadata id="metadata7">
  <rdf:RDF>
   <cc:Work rdf:about="">
    <dc:format>image/svg+xml</dc:format>
    <dc:type rdf:resource="http://purl.org/dc/dcmitype/StillImage"/>
    <dc:title/>
   </cc:Work>
  </rdf:RDF>
 </metadata>
 <g id="g12956">
  <rect id="rect2990" opacity="0" height="45" width="67.5" y="0" x="3.5527e-15"/>
  <path id="path12954" d="m30.447 35.393c-14.51-0.472-25.71-3.854-29.267-8.839-0.91146-1.277-1.1721-2.057-1.1799-3.53-0.010455-1.977 0.53359-3.221 2.1485-4.912 4.2862-4.489 13.761-7.545 26.136-8.4293 2.4243-0.17332 9.365-0.17247 11.893 0.0014 14.945 1.0281 25.124 5.0854 27.04 10.778 0.37377 1.1104 0.37549 2.5806 0.0042 3.5405-1.372 3.5465-6.0438 6.64-13.339 8.8325-6.5664 1.9735-14.562 2.846-23.436 2.5575zm10.692-1.3737c11.84-1.0822 21.157-4.5649 24.139-9.0238 0.68997-1.0316 0.969-1.8422 0.969-2.8149 0-5.0703-9.5987-9.6899-23.066-11.101-5.6893-0.59609-12.312-0.59709-18.02-0.0027-5.1184 0.53298-10.435 1.7137-14.416 3.2013-4.5837 1.713-7.8224 3.9702-8.9294 6.2235-0.80617 1.641-0.83587 2.9294-0.1036 4.4931 2.2815 4.8721 12.601 8.4037 26.873 9.1968 2.804 0.15581 10.053 0.05631 12.554-0.17232zm-11.293-0.6616c-4.0352-0.16927-7.3743-0.49379-10.632-1.0333-8.8216-1.461-14.768-4.2337-16.471-7.6808-0.427-0.86396-0.46753-1.0304-0.46753-1.9195 0-0.88102 0.0422-1.0586 0.4441-1.8683 1.677-3.3789 7.698-6.3554 16.134-7.9763 9.252-1.7775 21.418-1.7765 30.514 0.0027 8.012 1.5672 13.723 4.3852 15.442 7.6194 0.37939 0.71382 0.41505 0.86855 0.41527 1.802 0.000361 1.3877-0.35224 2.1128-1.6717 3.4379-5.1065 5.1285-18.871 8.2385-33.707 7.6161zm19.071-4.5516c0.76556-0.39056 1.6436-1.1486 2.6079-2.2516 0.71699-0.82011 0.87997-1.074 0.77249-1.2035-0.0749-0.09028-0.18926-0.16414-0.25407-0.16414-0.0648 0-0.62384 0.47887-1.2423 1.0642-0.61844 0.58529-1.4199 1.2189-1.781 1.4079-0.64474 0.33756-0.66106 0.3397-0.90542 0.11855-0.13687-0.12386-0.24885-0.30007-0.24885-0.39157 0-0.30675 0.50105-1.157 2.8991-4.9196 1.3116-2.0579 2.4189-3.8308 2.4607-3.9397 0.0672-0.17518-0.0315-0.19392-0.85676-0.16265l-0.93273 0.03536-1.4548 2.304c-0.80014 1.2672-1.4916 2.3401-1.5365 2.3843-0.045 0.04418-0.19092-0.13371-0.32438-0.39532-0.30608-0.59998-0.85025-0.86911-1.7573-0.86911-0.97488 0-1.88 0.47628-3.5178 1.8512-1.4981 1.2576-1.9868 1.5919-2.5724 1.7599-0.47842 0.13721-1.1255-0.0468-1.298-0.36913-0.26092-0.48754-0.0476-1.4943 0.41439-1.9563 0.26537-0.26537 0.42747-0.16121 0.42747 0.27468 0 0.99193 1.3811 1.0581 1.8414 0.08822 0.25906-0.54592 0.25265-0.78125-0.034-1.2515-0.56452-0.92585-1.8384-0.75615-2.9636 0.3948l-0.61567 0.62977-0.011-0.54858c-0.008-0.3887-0.0878-0.63033-0.27451-0.82907-0.69555-0.74037-1.8116-0.36187-3.3839 1.1476l-1.0122 0.97169-0.0678-0.65725c-0.0786-0.7616-0.40202-1.3858-0.71803-1.3858-0.33399 0-0.85007 0.5684-0.7411 0.81625 0.0496 0.11269 0.11326 0.58331 0.14159 1.0458 0.0402 0.65587-0.005 0.99024-0.20342 1.5193-0.47645 1.268-1.635 2.2559-2.6529 2.2622-0.87139 0.0054-1.2863-0.70063-1.0729-1.8259 0.24229-1.2776 1.1211-2.3753 2.3532-2.9394 0.67184-0.30758 0.8183-0.58512 0.46395-0.87921-0.25128-0.20855-1.1282-0.0915-1.7646 0.23553-0.97623 0.50168-1.8445 1.5201-2.9237 3.4294-0.18674 0.33037-0.62713 0.90289-0.97865 1.2723-0.65294 0.68614-0.77868 1.0452-0.45891 1.3106 0.20734 0.17207 0.29628 0.1204 1.1027-0.64066l0.50201-0.47378 0.19449 0.46548c0.41597 0.99555 1.2062 1.4913 2.3707 1.4873 1.3951-0.0049 2.3695-0.71683 3.8602-2.8205 0.94323-1.3311 2.3279-2.7976 2.9382-3.1119 0.43366-0.22335 0.80117-0.17091 0.91697 0.13084 0.10579 0.2757-0.4867 1.476-1.7976 3.6418-0.62567 1.0336-1.1376 1.916-1.1376 1.9608 0 0.04481 0.36991 0.08147 0.82202 0.08147h0.82202l1.3101-2.0427 1.3101-2.0427 0.1431 0.56096c0.32613 1.2785 1.321 1.5413 2.8201 0.74496l0.80015-0.42504-0.0586 0.85141c-0.0502 0.7287-0.0183 0.92831 0.22097 1.385 0.15381 0.29346 0.41948 0.6353 0.59038 0.75964 0.74451 0.54165 1.9583 0.34214 3.0761-0.50558l0.62374-0.47306 0.13058 0.39568c0.13031 0.39484 0.50326 0.81604 0.84442 0.95366 0.31415 0.12673 1.2878-0.02003 1.7721-0.26711zm-5.2261-1.3668c-0.37991-0.40702-0.44015-0.84358-0.21503-1.5585 0.53572-1.7013 2.2543-3.2069 3.3474-2.9326 0.39039 0.09798 0.57933 0.55911 0.4341 1.0594-0.0636 0.21904-0.0859 0.53628-0.0496 0.70497 0.11936 0.55448-1.4987 2.4457-2.4229 2.8318-0.55287 0.231-0.80264 0.207-1.094-0.10513zm-23.798 1.1346c1.573-0.75782 3.2168-2.6056 5.437-6.1117l1.0707-1.6908 0.91154-0.07963c0.50134-0.04379 1.2529-0.1377 1.6701-0.20868 0.69204-0.11774 0.7816-0.1081 1.0211 0.10988 0.68117 0.61985 1.2395 0.5521 0.63658-0.07725l-0.31298-0.32668 0.39933-0.1444c1.2106-0.43775 1.4069-2.039 0.27595-2.2511-0.8224-0.15428-1.449 0.47114-1.4543 1.4515-0.002 0.48267-0.0283 0.52387-0.36319 0.581-0.74153 0.1265-2.2225 0.22025-2.2225 0.1407 0-0.12804 0.69874-1.1224 1.418-2.0179 0.58093-0.72328 1.9317-1.8921 2.1866-1.8921 0.0533 0 0.0687-0.10812 0.0341-0.24027-0.0345-0.13215-0.008-0.24027 0.0584-0.24027 0.0667 0 1.2218 0.26855 2.5668 0.59677 4.097 0.99974 5.4169 1.1458 7.111 0.78683 1.571-0.33287 2.9631-1.1933 2.9631-1.8315 0-0.43358-0.3725-0.48987-1.6622-0.25114-3.0442 0.56351-5.7467 0.42134-12.033-0.63301-2.1704-0.36403-5.8889-0.40406-7.0879-0.07631-1.8678 0.51056-3.4472 1.5823-4.0194 2.7275-0.94821 1.8976-0.0176 3.7265 1.8962 3.7265 1.3042 0 3.0103-1.181 3.5859-2.4824 0.23756-0.53703 0.22322-1.1217-0.0275-1.1217-0.0671 0-0.48504 0.3744-0.92875 0.83201-1.1271 1.1624-2.0269 1.3826-2.7392 0.67024-0.59635-0.59635-0.21295-1.9422 0.75774-2.6598 1.6547-1.2234 3.939-1.4265 7.7821-0.69212 1.4954 0.28575 1.4808 0.27501 0.80033 0.59027-0.7387 0.34224-2.239 1.7558-3.4654 3.265-0.5012 0.6168-1.0256 1.1443-1.1654 1.1722-0.13976 0.0279-0.47035 0.07985-0.73465 0.11543-1.3796 0.18577-2.4627 0.79393-2.4627 1.3828 0 0.29156 0.15015 0.32265 0.35663 0.07384 0.27119-0.32676 2.4064-0.96781 2.4064-0.72246 0 0.20555-2.0836 2.7368-3.0713 3.7311-1.373 1.3822-2.4824 1.9903-3.6766 2.0154-2.3946 0.05022-2.7581-2.4911-0.57634-4.0297 0.92294-0.65088 0.91522-0.88401-0.0287-0.86543-1.8613 0.03663-3.4012 2.1354-3.0782 4.1952 0.14248 0.90857 0.45674 1.4889 1.1247 2.0768 0.79495 0.69974 1.3319 0.86363 2.6991 0.82382 0.99957-0.0291 1.2405-0.08105 1.9407-0.41836zm10.193-9.2797c0-0.33421 0.30966-0.90992 0.53616-0.99684 0.42246-0.16211 0.76081 0.23926 0.54368 0.64495-0.2919 0.54542-1.0798 0.80219-1.0798 0.35189z"/>
 </g>
</svg>
