<?xml version="1.0" encoding="UTF-8" standalone="no"?>
<!-- Created with Inkscape (http://www.inkscape.org/) -->
<svg id="svg2" xmlns:rdf="http://www.w3.org/1999/02/22-rdf-syntax-ns#" xmlns="http://www.w3.org/2000/svg" height="54" width="99" version="1.1" xmlns:cc="http://creativecommons.org/ns#" xmlns:dc="http://purl.org/dc/elements/1.1/">
 <metadata id="metadata7">
  <rdf:RDF>
   <cc:Work rdf:about="">
    <dc:format>image/svg+xml</dc:format>
    <dc:type rdf:resource="http://purl.org/dc/dcmitype/StillImage"/>
    <dc:title/>
   </cc:Work>
  </rdf:RDF>
 </metadata>
 <g id="g6158">
  <rect id="rect2990" opacity="0" height="54" width="99" y="0" x="0"/>
  <g fill-rule="evenodd">
   <path id="path13385" d="m50.01 9.7411c25.65 0 44.634 7.1087 44.489 17.149-0.15341 8.7943-18.839 17.369-44.489 17.369s-45.51-6.5223-45.51-16.709c0.0736-9.967 19.861-17.809 45.51-17.809z"/>
   <path id="path13387" d="m49.865 42.793c25.65 0 43.019-8.2812 43.019-16.196 0-7.8417-17.516-15.464-43.166-15.464-21.985 0-43.459 6.8158-43.605 16.269-0.073616 8.8672 18.102 15.39 43.752 15.39z" fill="#fff"/>
   <path id="path13389" d="m49.719 41.55c25.65 0 41.845-8.0618 41.845-14.658 0-7.1087-15.903-14.438-41.554-14.438-25.65 0-42.432 7.4753-42.432 14.804 0.00453 7.8409 16.494 14.291 42.144 14.291z"/>
   <path id="path13391" d="m61.59 16.558c-0.43941 0-2.9309 0.73311-6.1556 0.73311-6.9623 0-11.726-1.832-17.149-1.832-5.4961 0-9.6005 2.638-9.6005 6.0091 0 2.3451 1.7584 3.151 3.0046 3.151 2.2722 0 5.1295-2.4915 5.1295-4.3972 0-0.14647-0.14647-0.58665-0.29294-0.58665-0.6595 0-1.5391 2.5651-3.8113 2.5651-1.0997 0-1.5391-1.026-1.5391-1.4662 0-1.319 1.6127-4.0306 6.6694-4.0306 2.1985 0 4.6172 0.44018 7.0352 0.95323-2.2722 0.6595-4.3972 3.2975-6.6686 6.2291-1.9056 0.22008-3.5912 0.51302-4.3243 1.3926-0.6595 0.73312-0.22008 1.2462 0.14647 0.87882 0.58665-0.6595 1.9056-0.95246 3.3711-1.1725-2.9309 3.8841-5.8626 7.768-9.2339 7.768-1.8328 0-2.5651-1.319-2.5651-2.2714 0-1.6855 1.6127-3.0046 2.5651-3.5176 0.58588-0.22008 0.6595-0.87882-0.44018-0.87882-2.4187 0-4.4707 2.7116-4.4707 4.8365 0 2.9317 2.125 4.9102 4.9838 4.9102 5.0566 0 8.2812-6.0098 11.506-11.066 1.6127-0.14647 3.2246-0.29294 4.5436-0.58665 0.43941 0.6595 1.0997 0.95246 1.319 0.95246 0.21932 0 0.29294-0.22008 0.29294-0.36656 0-0.07361-0.51302-0.22008-0.87882-0.80595 1.1725-0.36656 1.9048-0.95322 1.9048-1.9792 0-0.58665-0.43941-1.319-1.319-1.319-1.1725 0-1.7584 1.026-1.7584 2.0521 0 0.22008 0.07362 0.43941 0.07362 0.6595-0.95323 0.14647-2.1985 0.22008-3.5176 0.36656 1.6127-2.4923 3.2246-4.5436 5.0566-5.3503l-0.22008-0.6595c4.0306 0.95323 7.9882 2.1985 10.773 2.1985 3.5912 0 6.3028-1.6127 6.3028-2.7844 0-0.21855-0.36656-0.58511-0.73311-0.58511zm-16.856 6.156c0-0.58665 0.29371-1.3197 0.95322-1.3197 0.29294 0 0.51302 0.36656 0.51302 0.51302 0 0.58588-0.58665 1.026-1.4662 1.2462v-0.43941z" fill="#fff"/>
   <path id="path13393" d="m49.282 35.538c1.4662-2.3451 4.1042-6.5221 4.1042-7.3289 0-0.36656-0.22008-0.58665-0.58665-0.58665-0.95246 0-3.151 2.2722-4.2507 3.9577-1.832 2.8581-3.5176 4.2507-5.4232 4.2507-2.0521 0-3.151-1.319-3.4447-2.7116-0.51302 0.58665-1.1725 1.2462-1.7592 1.6127-0.36656 0.22008-1.026-0.73311-0.58588-1.0997 0.95246-0.73311 1.6119-1.6119 2.1985-2.638 1.1725-2.2714 3.0046-4.9102 5.6433-4.9102 0.87959 0 1.2462 0.87882 0.43941 1.1725-2.7116 0.87959-3.7377 3.2983-3.7377 4.8373 0 1.0997 0.58588 1.6855 1.4655 1.6855 2.5651 0 4.6901-3.6648 3.5912-6.3756-0.22008-0.6595 1.026-1.5391 1.3926-1.026 0.58665 0.58588 0.80595 2.0521 0.6595 2.7116 1.1725-1.1725 2.9317-3.4447 4.7637-3.4447 0.87882 0 1.5391 0.6595 1.5391 1.319 0.07361 0.36656 0.07361 0.87959-0.07362 1.1725 0.95323-1.319 2.125-2.3451 3.2983-2.3451 1.026 0 1.8328 0.73311 1.8328 1.6855 0 0.87882-0.73311 1.832-1.6127 1.832-0.80672 0-1.3926-0.6595-1.1725-1.4655 0-0.07362 0-0.22008-0.22008-0.22008-0.29294 0-1.026 1.2462-1.026 2.125 0 0.80595 0.73312 1.2462 1.3197 1.2462 2.5651 0 5.3503-4.9838 8.7943-4.9838 1.026 0 2.1985 0.36656 2.5651 1.9792 1.3197-2.125 2.9317-4.5436 4.177-6.5965h2.5651c-2.8581 4.8373-7.4017 11.287-7.4017 12.093 0 0.44018 0.44018 0.73311 0.73311 0.73311 0.73312 0 2.7852-1.6127 4.47-3.5176 0.36732-0.43941 1.0268 0.22008 0.80672 0.44018-2.638 3.2246-4.3972 4.7629-6.3756 4.7629-1.0997 0-1.6855-0.95246-1.9048-1.9048-0.95246 0.87882-2.2722 1.7584-3.5184 1.7584-1.3918 0-2.5651-1.026-2.5651-3.0046 0-0.43941 0.07361-1.026 0.22008-1.4655-1.026 0.6595-2.1985 1.2462-3.0046 1.2462-1.3926 0-1.9792-1.026-1.9792-2.4923l-3.5176 5.4961h-2.4198zm17.295-7.988c-1.8328 0-4.2507 2.9317-4.2507 5.0566 0 0.58665 0.58665 1.319 1.0997 1.319 1.3918 0 3.2246-2.0521 4.177-3.8113l-0.36732-0.29294c0.14647-0.29294 0.36732-0.87882 0.36732-1.319 0-0.43941-0.36732-0.95246-1.026-0.95246z" fill="#fff"/>
  </g>
 </g>
</svg>
