<?xml version="1.0" encoding="UTF-8" standalone="no"?>
<!-- Created with Inkscape (http://www.inkscape.org/) -->
<svg id="svg2" xmlns:rdf="http://www.w3.org/1999/02/22-rdf-syntax-ns#" xmlns="http://www.w3.org/2000/svg" height="45" width="67.5" version="1.1" xmlns:cc="http://creativecommons.org/ns#" xmlns:dc="http://purl.org/dc/elements/1.1/">
 <metadata id="metadata7">
  <rdf:RDF>
   <cc:Work rdf:about="">
    <dc:format>image/svg+xml</dc:format>
    <dc:type rdf:resource="http://purl.org/dc/dcmitype/StillImage"/>
    <dc:title/>
   </cc:Work>
  </rdf:RDF>
 </metadata>
 <g id="g13008">
  <rect id="rect2990" opacity="0" height="45" width="67.5" y="0" x="3.5527e-15"/>
  <path id="path13006" d="m0 35.357c0-0.025 0.56991-1.225 1.2664-2.665 0.6966-1.441 1.2426-2.682 1.2133-2.758s-0.3425-0.204-0.696-0.284c-1.1572-0.26-1.0038-0.341 0.8195-0.43 2.2474-0.10926 11.476 0.03473 12.086 0.18856 0.9035 0.22796 1.133 0.78439 0.68539 1.6618-0.48304 0.94683-1.6533 1.4994-3.6326 1.7153l-1.1693 0.12752 1.4955 0.8813 1.4955 0.8813h20.207 20.207l-0.64976-0.39035c-1.242-0.746-1.385-1.609-0.423-2.545 0.943-0.916 3.033-1.745 5.523-2.191 1.33-0.238 9.072-0.386 9.072-0.174 0 0.06985-0.08917 0.31399-0.19816 0.54254l-0.19816 0.41554-3.7353 0.04389c-3.6465 0.04285-3.7575 0.05132-4.6654 0.35624-1.597 0.53631-2.4929 1.2511-2.4929 1.9889 0 1.0992 1.36 1.5897 4.4127 1.5914l1.5902 0.00096 0.54289-1.081 0.54289-1.081h1.4401c0.79204 0 1.4401 0.02779 1.4401 0.06177 0 0.03397-0.3517 0.76362-0.78155 1.6214l-0.78155 1.5596h-27.178-27.178l-2.0667-1.2735c-1.1367-0.70043-2.0667-1.3241-2.0667-1.386 0-0.06187 0.1092-0.32654 0.24266-0.58814l0.24266-0.47564 2.0093-0.0026c1.7189-0.0022 2.0825-0.03586 2.5156-0.23244 0.51542-0.23399 0.79663-0.73208 0.55162-0.97709-0.0667-0.06672-1.2428-0.10028-2.8492-0.08129l-2.7356 0.03234-1.181 2.4622-1.181 2.4622-1.8703 0.03308c-1.0285 0.019-1.8701 0.013-1.8701-0.012zm14.318-1.5863c0.0357-0.03568 1.4327-1.0626 3.1046-2.282l3.0397-2.2172h1.6381 1.6381l0.8203 1.8917c0.45117 1.0404 0.89399 2.0673 0.98405 2.282l0.16374 0.39035h-1.389-1.389l-0.17564-0.42037-0.17564-0.42037h-2.3236-2.3236l-0.52735 0.41921-0.52736 0.41921-1.3112 0.0012c-0.72113 0.0006-1.282-0.02802-1.2463-0.0637zm7.7128-2.1271c-0.0471-0.14863-0.18427-0.50085-0.30496-0.78272l-0.21941-0.51248-0.99429 0.73523c-0.54685 0.40438-1.0168 0.7566-1.0443 0.78272s0.55714 0.04748 1.2992 0.04748c1.3445 0 1.349-0.00096 1.2637-0.27024zm6.9755 2.1168c-1.281-0.253-1.624-0.346-2.028-0.551-1.58-0.80153-1.3512-1.9758 0.56841-2.9171 1.6324-0.80046 2.4161-0.93538 5.7649-0.99246l2.9842-0.05087-0.0863 0.28113c-0.16823 0.548-0.21116 0.55778-2.675 0.60984-2.0528 0.04337-2.4603 0.08458-3.0756 0.31097-1.7029 0.62664-2.142 1.6043-0.99358 2.2122 0.45532 0.24101 0.70998 0.26963 2.7537 0.3095 1.2386 0.02417 2.252 0.09038 2.252 0.14714s-0.06272 0.24087-0.13939 0.40912l-0.13938 0.30592-2.4729-0.01393c-1.3601-0.0077-2.581-0.03522-2.7131-0.06124zm6.9061 0.01401c0-0.03364 0.48238-1.0605 1.072-2.282l1.072-2.2209h1.3302c0.7316 0 1.3302 0.01944 1.3302 0.04321s-0.48992 1.0507-1.0887 2.282l-1.0887 2.2388h-1.3134c-0.72239 0-1.3134-0.02752-1.3134-0.06115zm4.444 0.0019c0-0.03256 0.49927-1.0595 1.1095-2.282l1.1095-2.2228 1.8632 0.006 1.8632 0.006 1.2867 1.6254 1.2867 1.6254 0.81308-1.6314 0.81308-1.6314h1.1737 1.1737l-1.1422 2.282-1.1422 2.282h-1.791-1.791l-1.2921-1.6214c-0.71066-0.89179-1.3241-1.6214-1.3632-1.6214-0.03913 0-0.43479 0.72965-0.87924 1.6214l-0.80809 1.6214h-1.1416c-0.62787 0.000002-1.1416-0.02665-1.1416-0.05921zm-10.006-6.918c-9.77-0.485-17.039-3.018-18.769-6.542-0.30397-0.61909-0.35067-0.85017-0.35067-1.7351 0-1.3353 0.34135-2.0948 1.4642-3.2578 0.95799-0.99231 2.0508-1.737 3.697-2.5193 9.8094-4.6615 29.519-4.1435 37.058 0.97395 1.0341 0.70194 2.2084 2.0197 2.5309 2.84 0.4054 1.0312 0.38147 2.1595-0.0656 3.0928-1.1356 2.3706-4.9707 4.5715-10.274 5.896-4.549 1.1362-9.4789 1.5397-15.29 1.2514zm9.525-1.0039c6.8047-0.8209 11.863-2.6503 14.276-5.1633 0.40991-0.42688 0.86037-1.0357 1.001-1.3529 1.2481-2.8147-1.9407-5.6769-8.2508-7.4058-9.3318-2.5567-22.259-1.9391-29.863 1.4268-6.361 2.8154-6.7023 7.0483-0.79404 9.8471 2.7728 1.3135 7.0741 2.3072 11.681 2.6985 0.7927 0.06735 1.6845 0.14362 1.9818 0.16949 1.3928 0.12124 8.4272-0.03396 9.9689-0.21994zm-10.509-0.389c-4.846-0.308-9.532-1.288-12.491-2.611-1.8097-0.80934-3.4108-2.1293-3.9059-3.22-1.4425-3.1781 3.2954-6.452 11.413-7.8863 2.7426-0.4846 4.5598-0.63584 8.41-0.69996 6.4588-0.10755 11.14 0.45058 15.327 1.8274 5.06 1.664 7.5618 4.1691 6.4128 6.4214-1.4882 2.9171-7.6385 5.3062-15.609 6.0633-1.7895 0.16998-7.5484 0.23385-9.556 0.10598zm-4.797-3.176c0.87604-0.43592 1.8819-1.5342 3.1251-3.4123 1.2555-1.8966 1.0228-1.7343 2.7582-1.9236 0.58678-0.06398 0.75604-0.04225 0.88548 0.11372 0.17158 0.20674 0.49094 0.2624 0.49094 0.08557 0-0.05899-0.08107-0.13837-0.18016-0.17639-0.27325-0.10485-0.21586-0.28188 0.11859-0.36583 0.16431-0.04124 0.38646-0.20885 0.49367-0.37247 0.37701-0.57538-0.09099-1.2516-0.75146-1.0859-0.3222 0.08087-0.68846 0.76469-0.57205 1.068 0.09171 0.239-0.0042 0.27651-0.9618 0.37627l-0.83231 0.08671 0.21764-0.34216c0.53922-0.84777 1.2482-1.6773 1.7172-2.0091 0.28075-0.19861 0.51045-0.43178 0.51045-0.51815 0-0.21463-0.01504-0.21683 2.1256 0.31069 2.2991 0.56658 3.2308 0.67864 4.183 0.50314 0.9342-0.17218 1.9593-0.67659 2.1282-1.0472 0.22581-0.49561 0.01155-0.55093-1.2999-0.33564-1.6493 0.27075-3.8092 0.17393-6.8366-0.30646-2.0345-0.32284-2.6411-0.37402-3.9635-0.33439-1.3391 0.04012-1.669 0.09107-2.3175 0.35785-1.0088 0.41504-1.5021 0.76837-1.8744 1.3426-1.1105 1.7127 0.21128 3.3319 2.03 2.4868 0.85969-0.39951 1.7272-1.5181 1.5452-1.9924-0.0382-0.09966-0.0882-0.1812-0.11102-0.1812-0.0228 0-0.30333 0.26184-0.62335 0.58187-0.60282 0.60282-1.0788 0.79127-1.5481 0.61287-1.0417-0.39605-0.29428-1.9671 1.1732-2.4661 0.99426-0.33811 2.6409-0.28898 4.8183 0.14377 0.319 0.0634 0.30576 0.08163-0.40294 0.55488-0.44575 0.29766-1.0887 0.91731-1.6415 1.582l-0.90872 1.0926-0.77343 0.145c-0.836 0.15673-1.2653 0.37781-1.4676 0.7558-0.15869 0.29653-0.1062 0.2984 0.45519 0.01624 0.24509-0.12319 0.65187-0.26142 0.90395-0.3072 0.41706-0.07573 0.44771-0.06367 0.34038 0.13389-0.30118 0.55437-2.0878 2.5593-2.6454 2.9686-1.1692 0.85826-2.2651 0.96968-2.8382 0.28857-0.55682-0.66174-0.28798-1.5769 0.65482-2.2291 0.66473-0.45984 0.64182-0.67947-0.0626-0.60007-0.66853 0.07536-1.3119 0.55584-1.7182 1.2833-0.70809 1.2675-0.0681 2.9375 1.2965 3.3827 0.53937 0.17596 1.7415 0.03946 2.3592-0.2679zm6.7793-6.2664c0-0.48472 0.5258-0.77891 0.67892-0.37987 0.08024 0.20909-0.27227 0.65611-0.51738 0.65611-0.08885 0-0.16154-0.12431-0.16154-0.27625zm0.39879 6.2054c0.2761-0.19253 0.86322-0.83517 1.3047-1.4281 1.2651-1.699 2.2905-2.5355 2.5645-2.0921 0.14221 0.23011-0.04752 0.65438-1.0083 2.2546l-0.94978 1.5819h0.57377 0.57377l0.8727-1.3512c0.84012-1.3008 0.87621-1.3384 0.96674-1.008 0.22191 0.80982 0.8881 1.0174 1.7894 0.5576 0.25897-0.13212 0.50003-0.24021 0.5357-0.24021 0.03566 0 0.06484 0.29312 0.06484 0.65137 0 1.5194 1.2736 1.9173 2.7177 0.84907 0.24332-0.17999 0.26746-0.16873 0.5064 0.23624 0.222 0.37626 0.30725 0.42524 0.74016 0.42524 0.26909 0 0.71681-0.11566 0.99493-0.25703 0.53865-0.27379 2.1271-1.8493 2.1271-2.1098 0-0.29409-0.26524-0.15377-1.0246 0.54203-0.41863 0.3836-0.95343 0.801-1.1884 0.92756-0.40781 0.21962-0.43691 0.22048-0.63849 0.01878-0.25802-0.25816-0.31097-0.15759 1.9722-3.7457l1.605-2.5222-0.49666-0.0376c-0.27317-0.02068-0.5643-0.01165-0.64696 0.02007s-0.59684 0.76871-1.1426 1.6378l-0.99234 1.5801-0.35371-0.4291c-0.32286-0.39168-0.40794-0.42901-0.97552-0.42798-0.70747 0.0013-1.456 0.37087-2.3634 1.167-0.96146 0.84354-1.5818 1.234-1.9603 1.234-0.43218 0-0.80233-0.29973-0.80171-0.64918 0.0006-0.33718 0.45273-1.0633 0.60389-0.96991 0.06611 0.04086 0.09456 0.1158 0.06321 0.16653-0.09704 0.15702 0.29472 0.61181 0.52702 0.61181 0.64155 0 1.067-0.98127 0.61954-1.4288-0.43195-0.43195-1.0764-0.34369-1.7372 0.23791-0.55297 0.48674-0.55739 0.48817-0.55739 0.18016 0-0.41047-0.39634-0.7909-0.82399-0.7909-0.39523 0-1.0611 0.41391-1.772 1.1015-0.50931 0.49258-0.64687 0.46342-0.64687-0.13714 0-0.1194-0.09458-0.33284-0.21019-0.4743-0.19184-0.23476-0.23241-0.24154-0.46469-0.07757-0.22895 0.16161-0.2485 0.26351-0.19475 1.0148 0.04993 0.69784 0.01569 0.92622-0.20819 1.3887-0.69655 1.4389-2.4053 1.6967-2.4053 0.36296 0-0.90647 0.66873-1.8756 1.5767-2.2851 0.57505-0.25931 0.58637-0.57582 0.02256-0.6306-0.82637-0.0803-1.7739 0.70954-2.6553 2.2133-0.26637 0.45448-0.65119 0.98507-0.85516 1.1791-0.36902 0.35101-0.47655 0.70876-0.25432 0.8461 0.0641 0.03962 0.31981-0.11425 0.56824-0.34192l0.4517-0.41395 0.24429 0.43909c0.51253 0.92123 1.7524 1.1125 2.7413 0.42294zm8.6707-0.66477c-0.16593-0.13052-0.30117-0.355-0.30052-0.49884 0.002-0.44015 0.54423-1.4575 1.0265-1.9259 0.48058-0.46673 0.80473-0.60369 1.2722-0.53753 0.25572 0.03619 0.28357 0.10251 0.29424 0.70057 0.01406 0.78839-0.2121 1.2272-0.9817 1.9046-0.66878 0.58869-0.92687 0.65901-1.3107 0.3571z"/>
 </g>
</svg>
