<?xml version="1.0" encoding="UTF-8" standalone="no"?>
<!-- Created with Inkscape (http://www.inkscape.org/) -->
<svg id="svg2" xmlns:rdf="http://www.w3.org/1999/02/22-rdf-syntax-ns#" xmlns="http://www.w3.org/2000/svg" height="45" width="67.5" version="1.1" xmlns:cc="http://creativecommons.org/ns#" xmlns:dc="http://purl.org/dc/elements/1.1/">
 <metadata id="metadata7">
  <rdf:RDF>
   <cc:Work rdf:about="">
    <dc:format>image/svg+xml</dc:format>
    <dc:type rdf:resource="http://purl.org/dc/dcmitype/StillImage"/>
    <dc:title/>
   </cc:Work>
  </rdf:RDF>
 </metadata>
 <g id="g13068">
  <rect id="rect2990" opacity="0" height="45" width="67.5" y="0" x="3.5527e-15"/>
  <path id="path13066" d="m0 22.5v-14.94l33.75 0.0298 33.75 0.0302v14.88 14.88l-33.75 0.03-33.75 0.03v-14.94zm66.48 0v-13.86h-32.76-32.76v13.86 13.86h32.76 32.76v-13.86zm-64.56 0v-13.02h31.86 31.86v13.02 13.02h-31.86-31.86v-13.02zm19.5 5.2961c0.33-0.15488 0.75606-0.43785 0.9468-0.62883 0.65134-0.65215 0.71727-0.96724 0.76948-3.6772l0.048-2.49h-3.8521-3.8521v1.3175 1.3175l2.43 0.03248 2.43 0.03249-0.021 0.5876c-0.0149 0.41743-0.094 0.6607-0.27324 0.84-0.24747 0.24758-0.35057 0.25304-5.3968 0.28607-4.488 0.029-5.168 0.01-5.3281-0.15-0.2658-0.266-0.3447-1.176-0.3002-3.465l0.0393-2.0207 0.33669-0.28934 0.3367-0.28934h6.7133 6.7133v-1.32-1.32l-7.23 0.0026c-7.0111 0.0026-7.2464 0.01003-7.77 0.24679-0.6568 0.297-1.2627 0.859-1.5705 1.456-0.2113 0.41-0.2295 0.737-0.2295 4.115 0 4.0865 0.007 4.1271 0.85949 4.9437 0.79778 0.76421 0.62354 0.74659 7.4205 0.75047l6.18 0.0035 0.6-0.28159zm6.9063-4.0661c0.006-4.1265 0.0167-4.3351 0.21-4.0601 0.11204 0.15943 1.2298 2.1034 2.4838 4.32l2.2801 4.0301 1.2686 0.03385 1.2686 0.03384 2.4512-4.1993c1.3482-2.3096 2.4917-4.2014 2.5412-4.2038 0.0495-0.0025 0.09 1.8855 0.09 4.1955v4.2h1.32 1.32v-5.76-5.76l-2.13 0.0049-2.13 0.0049-2.34 4.0733c-1.287 2.2403-2.367 4.0732-2.4 4.0729-0.033-0.00024-1.059-1.8339-2.28-4.0748l-2.22-4.0744-2.19-0.0034-2.19-0.0034v5.76 5.76h1.32 1.32l0.006-4.35zm32.634 3.03v-1.32h-5.9932-5.9932l-0.1868-0.2667c-0.155-0.221-0.187-0.703-0.187-2.825 0-2.5567 0.00024-2.559 0.29454-2.8533l0.29455-0.29455h5.8854 5.8855v-1.32-1.32h-6.3964-6.3964l-0.62075 0.30933c-0.68952 0.3436-1.1531 0.82861-1.4823 1.5507-0.19556 0.429-0.21896 0.84978-0.22027 3.96-0.002 3.4079 0.004 3.4924 0.28148 4.08 0.32348 0.68595 0.66692 1.0378 1.3415 1.3744 0.45269 0.22585 0.75493 0.23627 6.9832 0.24084l6.51 0.0048v-1.32z"/>
 </g>
</svg>
