<?xml version="1.0" encoding="UTF-8" standalone="no"?>
<!-- Created with Inkscape (http://www.inkscape.org/) -->
<svg id="svg2" xmlns:rdf="http://www.w3.org/1999/02/22-rdf-syntax-ns#" xmlns="http://www.w3.org/2000/svg" height="45" width="67.5" version="1.1" xmlns:cc="http://creativecommons.org/ns#" xmlns:dc="http://purl.org/dc/elements/1.1/">
 <metadata id="metadata7">
  <rdf:RDF>
   <cc:Work rdf:about="">
    <dc:format>image/svg+xml</dc:format>
    <dc:type rdf:resource="http://purl.org/dc/dcmitype/StillImage"/>
    <dc:title/>
   </cc:Work>
  </rdf:RDF>
 </metadata>
 <g id="g11588">
  <rect id="rect2990" opacity="0" height="45" width="67.5" y="0" x="3.5527e-15"/>
  <path id="path13428" d="m0 7.6282v29.744h67.5v-29.744h-67.5zm66.549 28.792h-65.598v-27.842h65.598v27.842zm-64.647-26.89v25.94h63.695v-25.94h-63.695zm21.217 9.7215h-13.28c-0.40437 0-0.75803 0.50535-0.75803 0.80865v4.3462c0 0.90975 0.25268 1.0108 0.9096 1.0108h8.991c1.4656 0 1.3645-0.8592 1.3645-1.7182h-4.9021v-2.7292h7.6815v4.4474c0 2.0721-2.1226 2.7292-2.9313 2.7292h-11.063c-1.7182 0-2.8301-1.5162-2.8301-2.5775v-6.3678c0-1.1623 1.4151-2.6786 2.8301-2.6786h13.994v2.7292zm20.451 8.895h-2.729v-8.5388l-5.0154 8.541h-2.4764l-4.9735-8.7938v8.7938h-2.7291v-11.622h4.3968l4.5185 8.238 4.7628-8.238h4.2452v11.624zm17.409-8.895h-11.606c-0.40428 0-0.75802 0.50535-0.75802 0.80865v4.3462c0 0.90975 0.25268 1.0108 0.90975 1.0108h11.455v2.7292h-12.314c-1.7182 0-2.8301-1.5162-2.8301-2.5775v-6.3678c0-1.1623 1.4151-2.6786 2.8301-2.6786h12.314v2.729z"/>
 </g>
</svg>
