<?xml version="1.0" encoding="UTF-8" standalone="no"?>
<!-- Created with Inkscape (http://www.inkscape.org/) -->
<svg id="svg2" xmlns:rdf="http://www.w3.org/1999/02/22-rdf-syntax-ns#" xmlns="http://www.w3.org/2000/svg" height="54" width="99" version="1.1" xmlns:cc="http://creativecommons.org/ns#" xmlns:dc="http://purl.org/dc/elements/1.1/">
 <metadata id="metadata7">
  <rdf:RDF>
   <cc:Work rdf:about="">
    <dc:format>image/svg+xml</dc:format>
    <dc:type rdf:resource="http://purl.org/dc/dcmitype/StillImage"/>
    <dc:title/>
   </cc:Work>
  </rdf:RDF>
 </metadata>
 <g id="g5679">
  <rect id="rect2990" opacity="0" height="54" width="99" y="0" x="0"/>
  <path id="path13428" d="m4.5 7.171v39.658h90v-39.658h-90zm88.732 38.39h-87.464v-37.122h87.464v37.122zm-86.196-35.854v34.586h84.927v-34.586h-84.927zm28.289 12.962h-17.707c-0.53916 0-1.0107 0.6738-1.0107 1.0782v5.795c0 1.213 0.3369 1.3477 1.2128 1.3477h11.988c1.9541 0 1.8194-1.1456 1.8194-2.291h-6.5362v-3.6389h10.242v5.9298c0 2.7628-2.8301 3.6389-3.9084 3.6389h-14.751c-2.291 0-3.7735-2.0216-3.7735-3.4367v-8.4904c0-1.5497 1.8868-3.5714 3.7735-3.5714h18.659v3.6389zm27.268 11.86h-3.6387v-11.385l-6.6872 11.388h-3.3018l-6.6313-11.725v11.725h-3.6388v-15.496h5.8624l6.0247 10.984 6.3504-10.984h5.6602v15.498zm23.212-11.86h-15.475c-0.53904 0-1.0107 0.6738-1.0107 1.0782v5.795c0 1.213 0.3369 1.3477 1.213 1.3477h15.273v3.6389h-16.418c-2.291 0-3.7735-2.0216-3.7735-3.4367v-8.4904c0-1.5497 1.8868-3.5714 3.7735-3.5714h16.418v3.6387z"/>
 </g>
</svg>
