<?xml version="1.0" encoding="UTF-8" standalone="no"?>
<!-- Created with Inkscape (http://www.inkscape.org/) -->
<svg id="svg2" xmlns:rdf="http://www.w3.org/1999/02/22-rdf-syntax-ns#" xmlns="http://www.w3.org/2000/svg" height="54" width="99" version="1.1" xmlns:cc="http://creativecommons.org/ns#" xmlns:dc="http://purl.org/dc/elements/1.1/">
 <metadata id="metadata7">
  <rdf:RDF>
   <cc:Work rdf:about="">
    <dc:format>image/svg+xml</dc:format>
    <dc:type rdf:resource="http://purl.org/dc/dcmitype/StillImage"/>
    <dc:title/>
   </cc:Work>
  </rdf:RDF>
 </metadata>
 <g id="g3305">
  <g id="g3345">
   <g id="g3722">
    <g id="g3757">
     <g id="g3952">
      <g id="g4047">
       <g id="g4079">
        <g id="g4116">
         <g id="g4159">
          <g id="g4184">
           <g id="g4225">
            <g id="g4264">
             <g id="g4289">
              <g id="g4304">
               <g id="g4413">
                <rect id="rect2990" opacity="0" height="54" width="99" y="0" x="0"/>
                <g id="g20313" transform="matrix(0.82316075,0,0,0.82316075,12.45852,2.919557)">
                 <polygon id="polygon13452" fill-rule="evenodd" points="221.07,431.15,217.5,431.15,217.5,427.4,232.86,427.4,232.86,431.15,229.29,431.15,229.29,435.7,241.6,435.7,241.6,431.15,238.03,431.15,238.03,427.4,253.38,427.4,253.38,431.15,249.82,431.15,249.82,443.65,253.38,443.65,253.38,447.4,238.03,447.4,238.03,443.65,241.6,443.65,241.6,439.81,229.29,439.81,229.29,443.65,232.86,443.65,232.86,447.4,217.5,447.4,217.5,443.65,217.5,443.65,221.07,443.65" transform="matrix(0.51209687,0,0,0.51209687,-111.3832,-172.844)"/>
                 <polygon id="polygon13454" fill-rule="evenodd" points="311.22,427.4,323.01,427.4,323.01,431.15,323.01,431.15,319.44,431.15,319.44,447.4,309.44,447.4,296.5,431.15,296.5,443.65,300.16,443.65,300.16,447.4,288.28,447.4,288.28,443.65,291.86,443.65,291.86,431.15,288.28,431.15,288.28,427.4,303.28,427.4,314.8,441.95,314.8,431.15,311.22,431.15" transform="matrix(0.51209687,0,0,0.51209687,-111.3832,-172.844)"/>
                 <path id="path13456" d="m27.241,45.755c2.1944,0,4.5254,0.3656,5.9424,1.3253,1.4626,1.0058,2.1027,2.56,2.1027,4.0681s-0.64012,3.1535-2.1027,4.1137c-1.417,1.0057-3.748,1.3253-5.9424,1.3253-2.2399,0-4.5249-0.3196-5.9423-1.3253-1.4626-0.9602-2.1022-2.6056-2.1022-4.1137s0.6401-3.0623,2.1022-4.0681c1.4174-0.9597,3.7029-1.3253,5.9423-1.3253zm0,2.1938c1.9199,0,3.4741,1.4626,3.4741,3.1996,0,1.7826-1.5542,3.1996-3.4741,3.1996-1.9654,0-3.5196-1.417-3.5196-3.1996,0.0005-1.7365,1.5542-3.1996,3.5196-3.1996z" fill-rule="evenodd"/>
                 <path id="path13458" d="m55.991,54.348h1.7821v-6.3992h-1.782v-1.9198h9.2787c3.0623,0,6.582,0.9141,6.6276,5.1194s-4.1137,5.1194-6.6276,5.1194h-9.279v-1.919zm11.93-3.1996c0-2.3316-1.8738-3.1996-3.8397-3.1996h-2.011v6.3992h2.011c1.6454,0,3.8397-0.8685,3.8397-3.1996z" fill-rule="evenodd"/>
                 <path id="path13460" d="m81.544,54.348h2.1027l-1.189-1.966h-4.662l-1.0058,1.9655h1.6459v1.9198h-6.4446v-1.92h1.9654l3.1535-6.3992h-1.8279v-1.92h7.9534l4.9366,8.319h1.8282v1.9198h-8.457v-1.92zm-0.1823-3.8848-1.4626-2.4222-1.1886,2.4222h2.6511z" fill-rule="evenodd"/>
                 <g id="g3214" transform="matrix(0.87333331,0,0,0.87333331,22.002036,1.91989)">
                  <path id="path13438" d="m44.923,0.46876c2.0107,0.16179,3.5208,0.67797,5.0462,1.2865,1.0477,0.88594,2.1958,2.0262,2.5809,4.738,0.06163,1.2018,0.10015,2.4113,0.11556,3.6132v2.6738c-0.07704,6.3865-0.64713,12.719-1.0632,19.16-0.53158,1.5947-0.23101,3.3743-0.7627,4.9768-0.43913,3.1124-1.6179,5.3851-3.5284,6.7949-0.74731,0.31587-1.5485,0.52387-2.3882,0.66246v-3.3511c0.24664-0.05395,0.49306-0.12326,0.72426-0.2003,1.4869-1.1402,1.9568-2.5809,1.8567-3.906,1.5331-9.1526,2.0339-18.683,1.8413-27.95-0.047-1.5955,0.107-3.1825-1.118-4.3536-1.117-0.4237-2.134-0.9553-3.305-1.1171v-3.0277zm-18.729-0.46228c6.0629-0.038504,12.173,0.09245,18.343,0.43143,0.13097,0.007724,0.26194,0.01539,0.3852,0.030838v3.0277c-0.1-0.0153-0.208-0.0231-0.316-0.0308-0.832-0.0539-1.671-0.077-2.526-0.1002,0.07704,0.00772,0.15398,0.00772,0.23101,0.00772-0.47765,12.642-1.0322,25.284-1.7488,37.919-0.03082,0.04635-0.06163,0.10026-0.09234,0.14638,0.6163-0.03084,1.2404-0.06164,1.8567-0.09245,0.85516-0.06152,1.7488-0.13097,2.5963-0.32346v3.3511c-0.77798,0.13108-1.587,0.2003-2.4037,0.26194-5.4775,0.23112-10.924,0.34668-16.325,0.36209v-3.1664c2.5578-0.02311,5.1232-0.06923,7.6885-0.14637-0.0077-0.0076-0.01541-0.01539-0.02311-0.03084-1.0094-2.9582-2.0185-5.9242-3.0277-8.898-0.5548-0.94762-1.3175-1.2558-2.111-1.4638-0.87055-0.10015-1.7026-0.14638-2.5269-0.14638v-5.1848c1.2943-0.0077,2.5963-0.06934,3.8982-0.17719,1.171-0.30816,2.2419-0.7627,2.6656-2.2958,1.8336-6.7101,3.1664-13.413,4.4992-20.115,0.01541-0.046228,0.03081-0.09245,0.04622-0.13867-3.651-0.1315-7.388-0.1932-11.109-0.1855v-3.043zm-18.459,0.60091h0.084744c6.0935-0.34668,12.218-0.5624,18.374-0.60091v3.0431c-3.6594,0-7.311,0.077043-10.862,0.23112,1.3097,6.3479,2.6271,12.843,3.9368,19.19,0.15408,1.718,1.0401,2.8197,2.6656,3.3127,1.4176,0.13097,2.8428,0.1926,4.2603,0.17719v5.1848c-0.99384,0.0077-1.9568,0.08474-2.889,0.23883-0.9784,0.14637-1.587,0.67025-1.8336,1.5562-0.93989,2.9121-2.0262,5.9704-2.9737,8.8752,2.5654,0.03084,5.1309,0.03845,7.6961,0.01539v3.1664c-4.723,0.016-9.414-0.053-14.091-0.192-1.379-0.046-2.9122-0.085-4.3682-0.316v-3.2511c1.3405,0.30056,2.7657,0.40061,4.1294,0.44684,0.10015,0,0.20801,0.0077,0.31587,0.0077-1.0862-12.419-1.641-25.469-2.0031-38.135-0.7627,0.046228-1.5177,0.10016-2.265,0.16179-0.053928,0-0.11556,0-0.17719,0.00772v-3.1206zm-7.7347,5.6316c1.0785-2.604,2.5654-4.5916,4.9613-5.2079,0.8321-0.32358,1.7797-0.42373,2.7735-0.42373v3.1202c-0.8937,0.0539-2.3344,0.5084-2.9661,1.0324-0.6471,0.5778-1.1171,1.379-1.4714,2.1725-0.0386,8.8216,0.1232,17.627,1.2172,26.387,0.25423,1.8489,0.46995,3.8212,1.017,5.3852,0.015408,0.85516,0.77809,1.9876,1.8027,2.4345,0.13097,0.03084,0.26964,0.06923,0.40061,0.10015v3.2511c-0.5239-0.084-1.0401-0.192-1.5331-0.338-2.0647-0.879-3.0123-2.612-3.8443-4.476-0.339-1.95-0.6703-3.914-1.0093-5.871-1.0477-8.174-1.3327-16.348-1.3482-24.522v-3.0431z"/>
                 </g>
                </g>
               </g>
              </g>
             </g>
            </g>
           </g>
          </g>
         </g>
        </g>
       </g>
      </g>
     </g>
    </g>
   </g>
  </g>
 </g>
</svg>
