<?xml version="1.0" encoding="UTF-8" standalone="no"?>
<!-- Created with Inkscape (http://www.inkscape.org/) -->
<svg id="svg2" xmlns:rdf="http://www.w3.org/1999/02/22-rdf-syntax-ns#" xmlns="http://www.w3.org/2000/svg" height="45" width="67.5" version="1.1" xmlns:cc="http://creativecommons.org/ns#" xmlns:dc="http://purl.org/dc/elements/1.1/">
 <metadata id="metadata7">
  <rdf:RDF>
   <cc:Work rdf:about="">
    <dc:format>image/svg+xml</dc:format>
    <dc:type rdf:resource="http://purl.org/dc/dcmitype/StillImage"/>
    <dc:title/>
   </cc:Work>
  </rdf:RDF>
 </metadata>
 <g id="g11753">
  <rect id="rect2990" opacity="0" height="45" width="67.5" y="0" x="3.5527e-15"/>
  <g id="g11708" transform="matrix(.91110 0 0 .91110 -11.35 -2.0997)">
   <g id="g11687" fill-rule="evenodd">
    <polygon id="polygon13452" points="249.82 431.15 249.82 443.65 253.38 443.65 253.38 447.4 238.03 447.4 238.03 443.65 241.6 443.65 241.6 439.81 229.29 439.81 229.29 443.65 232.86 443.65 232.86 447.4 217.5 447.4 217.5 443.65 217.5 443.65 221.07 443.65 221.07 431.15 217.5 431.15 217.5 427.4 232.86 427.4 232.86 431.15 229.29 431.15 229.29 435.7 241.6 435.7 241.6 431.15 238.03 431.15 238.03 427.4 253.38 427.4 253.38 431.15" transform="matrix(.42154 0 0 .42154 -79.228 -139.36)"/>
    <polygon id="polygon13454" points="311.22 427.4 323.01 427.4 323.01 431.15 323.01 431.15 319.44 431.15 319.44 447.4 309.44 447.4 296.5 431.15 296.5 443.65 300.16 443.65 300.16 447.4 288.28 447.4 288.28 443.65 291.86 443.65 291.86 431.15 288.28 431.15 288.28 427.4 303.28 427.4 314.8 441.95 314.8 431.15 311.22 431.15" transform="matrix(.42154 0 0 .42154 -79.228 -139.36)"/>
    <path id="path13456" d="m34.882 40.583c1.8063 0 3.7251 0.30095 4.8916 1.0909 1.204 0.82794 1.7309 2.1073 1.7309 3.3487s-0.52692 2.5958-1.7309 3.3862c-1.1664 0.82785-3.0852 1.0909-4.8916 1.0909-1.8438 0-3.7247-0.26308-4.8915-1.0909-1.204-0.7904-1.7304-2.1448-1.7304-3.3862s0.52691-2.5208 1.7304-3.3487c1.1667-0.78999 3.0481-1.0909 4.8915-1.0909zm0 1.8058c1.5804 0 2.8597 1.204 2.8597 2.6338 0 1.4674-1.2794 2.6338-2.8597 2.6338-1.6178 0-2.8972-1.1664-2.8972-2.6338 0.000412-1.4294 1.2794-2.6338 2.8972-2.6338z"/>
    <path id="path13458" d="m58.548 47.657h1.467v-5.2676h-1.4669v-1.5803h7.6379c2.5208 0 5.418 0.75245 5.4556 4.2141 0.03754 3.4616-3.3862 4.2141-5.4556 4.2141h-7.6381v-1.5796zm9.8203-2.6338c0-1.9193-1.5424-2.6338-3.1607-2.6338h-1.6554v5.2676h1.6554c1.3544 0 3.1607-0.71492 3.1607-2.6338z"/>
    <path id="path13460" d="m79.582 47.657h1.7309l-0.97874-1.6183h-3.8376l-0.82794 1.6179h1.3548v1.5803h-5.3049v-1.5805h1.6178l2.5958-5.2676h-1.5047v-1.5805h6.5469l4.0636 6.8479h1.5049v1.5803h-6.9615v-1.5805zm-0.15006-3.1978-1.204-1.9939-0.97841 1.9939h2.1823z"/>
   </g>
   <path id="path13438" d="m62.865 4.8369c1.4455 0.11631 2.5311 0.48739 3.6277 0.92486 0.75318 0.6369 1.5785 1.4566 1.8554 3.4061 0.0443 0.86397 0.072 1.7335 0.08308 2.5975v1.9222c-0.05538 4.5912-0.46522 9.1436-0.76433 13.774-0.38215 1.1464-0.16607 2.4258-0.5483 3.5778-0.31569 2.2375-1.1631 3.8713-2.5365 4.8848-0.53724 0.22708-1.1132 0.37661-1.7169 0.47624v-2.4091c0.17731-0.03878 0.35446-0.08861 0.52067-0.14399 1.0689-0.81968 1.4067-1.8554 1.3348-2.808 1.1021-6.5797 1.4622-13.431 1.3237-20.093-0.034-1.1467 0.077-2.2876-0.804-3.1295-0.803-0.3046-1.534-0.6868-2.376-0.8031v-2.1766zm-13.465-0.3323c4.3586-0.02768 8.7511 0.066462 13.187 0.31015 0.09415 0.00555 0.18831 0.011064 0.27692 0.022169v2.1766c-0.072-0.011-0.15-0.0166-0.227-0.0221-0.598-0.0388-1.202-0.0554-1.816-0.0721 0.05538 0.00555 0.1107 0.00555 0.16607 0.00555-0.34338 9.0883-0.74204 18.177-1.2572 27.26-0.02216 0.03332-0.04431 0.07208-0.06638 0.10523 0.44306-0.02217 0.89172-0.04431 1.3348-0.06646 0.61477-0.04423 1.2572-0.09415 1.8665-0.23253v2.4091c-0.55928 0.09423-1.1409 0.14399-1.728 0.18831-3.9377 0.16615-7.8532 0.24923-11.736 0.2603v-2.2763c1.8388-0.01661 3.683-0.04977 5.5272-0.10522-0.0055-0.0055-0.01108-0.01106-0.01661-0.02217-0.72565-2.1266-1.4511-4.2589-2.1766-6.3967-0.39884-0.68124-0.94714-0.90279-1.5176-1.0523-0.62583-0.072-1.224-0.10523-1.8166-0.10523v-3.7273c0.93046-0.0055 1.8665-0.04985 2.8024-0.12738 0.84182-0.22154 1.6117-0.5483 1.9163-1.6504 1.3182-4.8238 2.2763-9.6425 3.2344-14.461 0.01108-0.033233 0.02215-0.066462 0.03323-0.099689-2.6247-0.094534-5.3112-0.13889-7.9862-0.13335v-2.1876zm-13.27 0.43199h0.06092c4.381-0.2492 8.784-0.4043 13.209-0.432v2.1877c-2.6307 0-5.2558 0.055386-7.8086 0.16615 0.94154 4.5635 1.8886 9.2328 2.8301 13.796 0.11077 1.2351 0.74772 2.0271 1.9163 2.3815 1.0191 0.09415 2.0437 0.13846 3.0627 0.12738v3.7273c-0.71447 0.0055-1.4067 0.06092-2.0769 0.17169-0.70337 0.10522-1.1409 0.48184-1.3182 1.1187-0.67568 2.0935-1.4566 4.2921-2.1378 6.3803 1.8442 0.02217 3.6886 0.02764 5.5327 0.01106v2.2763c-3.3953 0.0115-6.7677-0.0381-10.13-0.13803-0.99136-0.03307-2.0936-0.06111-3.1403-0.22717v-2.3372c0.96368 0.21607 1.9882 0.288 2.9686 0.32123 0.072 0 0.14954 0.0055 0.22708 0.0055-0.78086-8.9279-1.1797-18.31-1.44-27.415-0.5483 0.033233-1.0911 0.072004-1.6283 0.11631-0.03877 0-0.08308 0-0.12738 0.00555v-2.2434zm-5.5604 4.0485c0.77533-1.872 1.8442-3.3009 3.5666-3.7439 0.59819-0.23262 1.2794-0.30462 1.9939-0.30462v2.2431c-0.64248 0.038748-1.6782 0.36549-2.1323 0.74219-0.4652 0.41538-0.80308 0.99135-1.0578 1.5618-0.02775 6.3418 0.08857 12.672 0.87504 18.969 0.18276 1.3292 0.33784 2.747 0.73112 3.8714 0.01108 0.61477 0.55936 1.4289 1.296 1.7501 0.09415 0.02217 0.19384 0.04977 0.288 0.072v2.3372c-0.37663-0.06039-0.74772-0.13803-1.1021-0.24299-1.4843-0.63191-2.1655-1.8778-2.7636-3.2178-0.243-1.401-0.481-2.813-0.725-4.22-0.753-5.876-0.958-11.752-0.969-17.628v-2.1877z"/>
  </g>
 </g>
</svg>
