<?xml version="1.0" encoding="UTF-8" standalone="no"?>
<!-- Created with Inkscape (http://www.inkscape.org/) -->
<svg id="svg2" xmlns:rdf="http://www.w3.org/1999/02/22-rdf-syntax-ns#" xmlns="http://www.w3.org/2000/svg" height="54" width="99" version="1.1" xmlns:cc="http://creativecommons.org/ns#" xmlns:dc="http://purl.org/dc/elements/1.1/">
 <metadata id="metadata7">
  <rdf:RDF>
   <cc:Work rdf:about="">
    <dc:format>image/svg+xml</dc:format>
    <dc:type rdf:resource="http://purl.org/dc/dcmitype/StillImage"/>
    <dc:title/>
   </cc:Work>
  </rdf:RDF>
 </metadata>
 <g id="g3305">
  <g id="g3345">
   <g id="g3722">
    <g id="g3757">
     <g id="g3952">
      <g id="g4047">
       <g id="g4079">
        <g id="g4116">
         <g id="g4159">
          <g id="g4184">
           <g id="g4225">
            <g id="g4264">
             <g id="g4289">
              <g id="g4304">
               <g id="g4413">
                <g id="g4448">
                 <g id="g4472">
                  <g id="g4680">
                   <rect id="rect2990" opacity="0" height="54" width="99" y="0" x="0"/>
                   <g id="layer1" transform="translate(1376.7104,-1731.3086)">
                    <g id="g3014" transform="translate(-77.030089,-60.482902)">
                     <g id="g3" transform="translate(167.31202,-121.31097)">
                      <g id="g3482" transform="translate(-60.165302,142.77208)">
                       <g id="g3546" transform="translate(-97.106109,219.96639)">
                        <g id="g11362" transform="translate(-9.1600299,137.29504)">
                         <g id="g11401" transform="translate(-281.0712,40.253158)">
                          <g id="g11417" transform="translate(-39.143625,80.159254)">
                           <g id="g11569" transform="translate(-290.16334,77.012914)">
                            <g id="g12022" transform="matrix(0.48106219,0,0,0.48106219,62.914433,178.79074)">
                             <g id="g12169" transform="matrix(2.0787333,0,0,2.0787333,-435.65849,-483.84169)">
                              <g id="g12241" transform="translate(22.78758,44.523459)">
                               <g id="g12337" transform="translate(28.406387,51.277079)">
                                <g id="g12416" transform="translate(-87.520446,94.283276)">
                                 <g id="g12509">
                                  <g id="g12536" transform="translate(-70.904471,44.341929)">
                                   <g id="g12573" transform="translate(-91.993041,12.24031)">
                                    <g id="g12702" transform="matrix(0.48105962,0,0,0.48105962,265.51469,285.42648)">
                                     <g id="g12786" transform="matrix(2.0787444,0,0,2.0787444,-353.89567,-180.40723)">
                                      <g id="g13369" transform="translate(-72.87494,147.61153)">
                                       <g id="g13448" transform="translate(-235.10457,245.61853)">
                                        <g id="g16567" transform="matrix(0.12342682,0,0,0.12342682,-127.08451,453.24488)">
                                         <polygon id="polygon16569" points="109.78,0.92,65.583,0.92,65.583,30.504,44.198,30.504,44.198,0.92,0,0.92,0,78.266,44.198,78.266,44.198,48.325,65.583,48.325,65.583,78.266,109.78,78.266"/>
                                         <path id="path16571" d="m182.48,52.603c0,5.347-3.208,11.406-11.05,11.406-7.841,0-11.049-6.059-11.049-11.406v-51.683h-44.198v52.396c0,7.841,6.772,24.95,32.079,24.95h46.336c25.307,0,32.079-17.109,32.079-24.95v-52.396h-44.2v51.683z"/>
                                         <polygon id="polygon16573" points="368.54,78.266,368.54,0.92,317.93,0.92,300.46,32.286,283,0.92,232.38,0.92,232.38,78.266,273.02,78.266,273.02,45.118,291.2,78.266,309.73,78.266,327.91,45.118,327.91,78.266"/>
                                         <polygon id="polygon16575" points="510.4,78.266,510.4,0.92,459.79,0.92,442.32,32.286,424.86,0.92,374.24,0.92,374.24,78.266,414.88,78.266,414.88,45.118,433.06,78.266,451.59,78.266,469.77,45.118,469.77,78.266"/>
                                         <polygon id="polygon16577" points="601.66,0.92,515.4,0.92,515.4,78.266,601.66,78.266,601.66,56.88,561.02,56.88,561.02,48.325,601.66,48.325,601.66,30.504,561.02,30.504,561.02,22.306,601.66,22.306"/>
                                         <path id="path16579" d="m718.57,26.583c0-9.624-6.059-25.663-23.168-25.663h-88.04v77.346h44.2v-22.455l18.891,22.455h54.534l-23.16-27.446c9.267,0.357,16.752-14.613,16.752-24.237zm-54.891,9.98h-12.123v-17.465h13.544c11.05,0,9.98,17.465-1.426,17.465z"/>
                                         <path id="path16581" d="m722.64,0c-3.559,0-6.57,2.737-6.57,6.449,0,3.747,3.011,6.484,6.57,6.484,3.524,0,6.535-2.737,6.535-6.484,0-3.712-3.01-6.449-6.54-6.449zm0,11.855c-2.96,0-5.27-2.292-5.27-5.406,0-3.062,2.31-5.372,5.27-5.372,2.925,0,5.235,2.31,5.235,5.372,0,3.114-2.309,5.406-5.235,5.406z"/>
                                         <path id="path16583" d="m725.62,4.858c0-1.471-0.872-2.121-2.634-2.121h-2.84v7.458h1.129v-3.232h1.3l1.967,3.233h1.266l-2.121-3.285c1.096-0.137,1.933-0.718,1.933-2.053zm-4.345,1.147v-2.31h1.54c0.787,0,1.625,0.171,1.625,1.095,0,1.146-0.855,1.215-1.813,1.215h-1.352z"/>
                                        </g>
                                       </g>
                                      </g>
                                     </g>
                                    </g>
                                   </g>
                                  </g>
                                 </g>
                                </g>
                               </g>
                              </g>
                             </g>
                            </g>
                           </g>
                          </g>
                         </g>
                        </g>
                       </g>
                      </g>
                     </g>
                    </g>
                   </g>
                  </g>
                 </g>
                </g>
               </g>
              </g>
             </g>
            </g>
           </g>
          </g>
         </g>
        </g>
       </g>
      </g>
     </g>
    </g>
   </g>
  </g>
 </g>
</svg>
