<?xml version="1.0" encoding="UTF-8" standalone="no"?>
<!-- Created with Inkscape (http://www.inkscape.org/) -->
<svg id="svg2" xmlns:rdf="http://www.w3.org/1999/02/22-rdf-syntax-ns#" xmlns="http://www.w3.org/2000/svg" height="45" width="67.5" version="1.1" xmlns:cc="http://creativecommons.org/ns#" xmlns:dc="http://purl.org/dc/elements/1.1/">
 <metadata id="metadata7">
  <rdf:RDF>
   <cc:Work rdf:about="">
    <dc:format>image/svg+xml</dc:format>
    <dc:type rdf:resource="http://purl.org/dc/dcmitype/StillImage"/>
    <dc:title/>
   </cc:Work>
  </rdf:RDF>
 </metadata>
 <g id="g13324">
  <rect id="rect2990" opacity="0" height="45" width="67.5" y="0" x="3.5527e-15"/>
  <path id="path13322" d="m64.859 34.144v-4.2001h1.3203 1.3203l-0.0315 4.1661-0.0315 4.1661-1.2888 0.03403-1.2888 0.03402v-4.2001zm-57.586 3.8723c-0.044-0.04396-0.0799-0.82623-0.0799-1.7384v-1.6584h-2.2779-2.2779v1.6784 1.6784h-1.3188-1.3188v-4.0162-4.0162h1.3188 1.3188v1.4387 1.4387h2.2741 2.2741l0.0338-1.4087 0.0338-1.4087 1.2888-0.03402 1.2888-0.03402v4.0802 4.0802h-1.2388c-0.68136 0-1.2748-0.03597-1.3188-0.07993zm24.497-3.9963v-4.0762l4.5258 0.00024c4.9829 0.00024 5.0465 0.0088 5.5962 0.75766 0.23542 0.3207 0.25012 0.51724 0.28339 3.7906l0.0351 3.4524-1.2003 0.0851c-0.66018 0.0468-1.2559 0.05074-1.3239 0.0087-0.0789-0.0488-0.12356-1.0492-0.12356-2.7668 0-2.5306-0.0142-2.7046-0.23978-2.9302-0.22249-0.2225-0.39962-0.23978-2.4577-0.23978h-2.2179v2.9972 2.9972h-1.4386-1.4386v-4.0762zm11.23 3.9963c-0.044-0.04396-0.0799-1.8782-0.0799-4.0762v-3.9963h3.9724c4.3693 0 4.6125 0.0312 5.3829 0.69067 0.79911 0.684 0.83516 0.8257 0.83516 3.2818 0 1.9649-0.0251 2.2378-0.24792 2.6982-0.3099 0.64017-0.92636 1.1906-1.5172 1.3547-0.4972 0.13807-8.211 0.18168-8.3455 0.04717zm7.1955-2.099c0.26308-0.24714 0.27748-0.34346 0.27748-1.8555v-1.5948l-0.32403-0.21257c-0.27912-0.18311-0.61553-0.21257-2.4277-0.21257h-2.1037l-0.0328 2.0681-0.0328 2.0681h2.183c2.0764 0 2.1966-0.01274 2.4605-0.26067zm3.4781 2.1026c-0.046-0.04594-0.083-1.3828-0.0824-2.9708 0.0008-2.7769 0.0119-2.9104 0.28258-3.4916 0.30093-0.64623 0.85532-1.1898 1.4807-1.4519 0.29949-0.1255 1.3524-0.16166 4.7072-0.16166h4.3214l-0.0316 4.0462-0.0316 4.0462h-1.4387-1.4386l-0.0346-1.049-0.0346-1.049h-2.3884-2.3884l-0.0346 1.049-0.0346 1.049-1.3851 0.03358c-0.76181 0.01846-1.4227-0.004-1.4686-0.04995zm7.7092-4.959v-0.9591h-2.2632c-2.6281 0-2.556-0.03154-2.6313 1.1515l-0.0488 0.76673h2.4717 2.4717v-0.9591zm-47.356 3.2483v-1.6671l-1.9182-2.3005c-1.055-1.2653-1.9182-2.3224-1.9182-2.3491 0-0.02675 0.56324-0.04864 1.2516-0.04864h1.2516l1.2736 1.4686c0.70046 0.80774 1.3157 1.4838 1.3672 1.5023 0.0515 0.01855 0.67231-0.64234 1.3796-1.4686l1.286-1.5023h1.2646 1.2646l-0.34033 0.44958c-0.18718 0.24727-1.0568 1.3572-1.9324 2.4665l-1.5921 2.0169v1.5497 1.5497h-1.3188-1.3188v-1.6671zm6.8336-2.3532v-4.0203l1.2888 0.03402 1.2888 0.03402 0.032 3.0871 0.032 3.0871h2.1293c3.0853 0 3.0218 0.07798 3.0218-3.7127v-2.5215h1.3256 1.3256l-0.0368 3.4083c-0.035 3.2398-0.0492 3.425-0.28762 3.7465-0.13794 0.18602-0.42915 0.4596-0.64714 0.60796-0.39378 0.26801-0.42563 0.26975-4.9344 0.26975h-4.538v-4.0203zm9.8908-8.2846c-3.2153-0.33848-5.2877-0.75427-7.6914-1.5432-2.905-0.95344-5.762-2.6622-7.0509-4.2171-1.396-1.6841-1.8318-3.5529-1.231-5.2789 1.3452-3.8649 7.0027-6.8327 14.829-7.7791 2.1957-0.26551 6.3442-0.26298 8.5773 0.0053 8.9212 1.0715 15.046 4.8877 15.046 9.3748 0 4.2524-5.8524 8.0348-14.267 9.2206-1.3258 0.18683-7.0615 0.33894-8.2123 0.21779zm4.6952-1.931c1.4065-0.74637 2.5955-3.5264 2.0838-4.8722-0.16187-0.42572-0.5765-0.65934-1.4403-0.81149-2.6166-0.46091-9.4085 1.6094-11.335 3.455-0.67437 0.64615-0.7074 0.99362-0.12105 1.2732 1.4389 0.68617 5.5244 1.283 8.5148 1.2438 1.5978-0.02091 1.854-0.05307 2.2975-0.28842zm8.2614-1.397c3.698-1.2086 6.2703-2.8983 7.0456-4.6282 0.30713-0.68532 0.32735-1.8788 0.0457-2.6975-0.43606-1.2675-2.2814-3.0571-3.1523-3.0571-0.39219 0-0.41898 0.03366-1.1211 1.4087-1.4049 2.7515-4.274 7.3282-5.3284 8.4997-0.53731 0.59699-0.65368 0.86047-0.46545 1.0538 0.17849 0.18335 1.3255-0.03995 2.976-0.57936zm-23.129-2.2305c0.0798-0.16485 0.36801-0.78375 0.64041-1.3753 1.129-2.4518 3.8587-6.6913 5.4328-8.4376 0.42695-0.47364 0.4529-0.53889 0.28224-0.70954-0.16553-0.16554-0.29215-0.16946-1.0626-0.03294-2.174 0.38523-4.8373 1.4313-6.5603 2.5768-1.1567 0.76897-2.2006 1.92-2.526 2.7854-0.63603 1.6912 0.13435 3.5638 2.0625 5.0132 0.60265 0.45302 0.81022 0.54532 1.1599 0.51574 0.31572-0.0267 0.46343-0.11355 0.57102-0.33574zm13.424-5.6966c3.1973-0.54593 7.3959-2.1885 8.8938-3.4794 0.91752-0.79074 0.61399-1.0599-1.8946-1.6799-2.0561-0.50816-3.7382-0.70252-6.1143-0.7065-2.638-0.0044-2.8314 0.05327-3.6426 1.0868-1.4437 1.8394-1.8315 3.8891-0.85671 4.5278 0.6932 0.4542 1.9242 0.53973 3.6144 0.25113z"/>
 </g>
</svg>
