<?xml version="1.0" encoding="UTF-8" standalone="no"?>
<!-- Created with Inkscape (http://www.inkscape.org/) -->
<svg id="svg2" xmlns:rdf="http://www.w3.org/1999/02/22-rdf-syntax-ns#" xmlns="http://www.w3.org/2000/svg" height="45" width="67.5" version="1.1" xmlns:cc="http://creativecommons.org/ns#" xmlns:dc="http://purl.org/dc/elements/1.1/">
 <metadata id="metadata7">
  <rdf:RDF>
   <cc:Work rdf:about="">
    <dc:format>image/svg+xml</dc:format>
    <dc:type rdf:resource="http://purl.org/dc/dcmitype/StillImage"/>
    <dc:title/>
   </cc:Work>
  </rdf:RDF>
 </metadata>
 <g id="g13379">
  <rect id="rect2990" opacity="0" height="45" width="67.5" y="0" x="3.5527e-15"/>
  <path id="path13377" d="m21.172 38.677c-6.506-1.377-11.587-3.447-15.422-6.283-2.0516-1.5169-4.108-3.9071-4.9396-5.741-1.1361-2.5057-1.0744-5.4205 0.16717-7.8987 2.0052-4.003 6.6995-7.455 13.353-9.8216 3.821-1.3589 7.988-2.2591 12.962-2.8005 2.4423-0.26584 9.8382-0.30219 12.302-0.06046 10.604 1.0405 19.187 4.2139 24.05 8.8914 4.7441 4.5631 5.1261 9.8922 1.0545 14.711-2.4563 2.9068-7.1454 5.6914-12.623 7.4963-2.6343 0.86798-7.9505 2.072-8.1628 1.8488-0.053-0.05574-2.3626-5.5185-5.1324-12.139l-5.036-12.038-0.59493 1.4166c-0.32721 0.77913-2.612 6.2368-5.0772 12.128-3.9259 9.3818-4.5132 10.711-4.7315 10.705-0.13707-0.0037-1.1134-0.18965-2.1695-0.41322zm31.144-8.2989c0.62709-0.22598 1.7949-0.72664 2.5951-1.1126 8.9324-4.308 9.493-11.097 1.3654-16.533-8.246-5.5155-22.691-7.327-34.61-4.3395-8.524 2.1365-14.512 6.2965-15.748 10.942-0.21507 0.8078-0.21054 2.3683 0.009 3.1944 0.8933 3.3567 4.6452 6.275 10.595 8.241 0.875 0.28912 1.6367 0.52567 1.6927 0.52567 0.10088 0 1.5531-1.6706 10.66-12.263 2.5923-3.0151 4.7594-5.5104 4.8157-5.5453 0.0563-0.03481 1.8263 1.9422 3.9334 4.3935 2.107 2.4512 4.56 5.3018 5.4512 6.3347 0.89112 1.0329 2.6451 3.0673 3.8977 4.5209l2.2775 2.643 0.96298-0.29537c0.52965-0.16246 1.4761-0.48026 2.1032-0.70624z"/>
 </g>
</svg>
