<?xml version="1.0" encoding="UTF-8" standalone="no"?>
<!-- Created with Inkscape (http://www.inkscape.org/) -->
<svg id="svg2" xmlns:rdf="http://www.w3.org/1999/02/22-rdf-syntax-ns#" xmlns="http://www.w3.org/2000/svg" height="45" width="67.5" version="1.1" xmlns:cc="http://creativecommons.org/ns#" xmlns:dc="http://purl.org/dc/elements/1.1/">
 <metadata id="metadata7">
  <rdf:RDF>
   <cc:Work rdf:about="">
    <dc:format>image/svg+xml</dc:format>
    <dc:type rdf:resource="http://purl.org/dc/dcmitype/StillImage"/>
    <dc:title/>
   </cc:Work>
  </rdf:RDF>
 </metadata>
 <g id="g13476">
  <rect id="rect2990" opacity="0" height="45" width="67.5" y="0" x="3.5527e-15"/>
  <path id="path13474" d="m5.5628 27.026c-3.8334-0.8808-6.1843-3.1479-5.4184-5.2253 0.41587-1.128 1.7011-2.2042 3.4854-2.9187 4.6025-1.8429 11.693-1.1154 14.439 1.4815 1.0815 1.0228 1.3802 1.8947 1.0445 3.0494-0.40768 1.4024-2.3404 2.7733-4.854 3.4431-1.848 0.49246-1.5352 0.77851-3.1096-2.8443-0.75256-1.7317-1.4041-3.22-1.4479-3.3072-0.0465-0.09253-0.72491 1.22-1.6275 3.1486-1.6874 3.6054-1.5245 3.3996-2.511 3.1729zm10.434-2.928c1.081-0.65675 1.6205-1.3821 1.6205-2.1784 0-0.66757-0.20482-1.0633-0.86557-1.6723-2.0815-1.9186-7.723-2.5724-11.676-1.353-3.9984 1.2335-4.6892 3.8053-1.4466 5.3859 1.596 0.778 1.2699 0.94675 3.7325-1.931 1.1875-1.3876 2.1973-2.5479 2.2441-2.5784 0.0468-0.03053 1.0359 1.1318 2.1979 2.583l2.1129 2.6385 0.79943-0.30091c0.43969-0.1655 1.0159-0.43242 1.2805-0.59317zm50.192 0.68167c-0.31525-0.25527-0.37218-0.89277-0.10325-1.156 0.34698-0.33961 0.79534-0.34724 1.1234-0.01912 0.38467 0.38466 0.38822 0.72518 0.0115 1.1019-0.35121 0.35121-0.66121 0.37321-1.0317 0.07321zm1.0562-0.23365c0.27561-0.35061 0.16729-0.72491-0.27748-0.95878-0.65021-0.34191-1.2363 0.6791-0.63253 1.102 0.30208 0.21158 0.67757 0.1525 0.91001-0.14319zm-0.86961-0.38477c0-0.34732 0.0497-0.47928 0.17992-0.47795 0.28346 0.0029 0.51457 0.19476 0.45064 0.37412-0.0321 0.09009-0.01 0.25826 0.0496 0.37371 0.0673 0.13094 0.0635 0.2099-0.0102 0.2099-0.065 0-0.17323-0.09446-0.24047-0.2099-0.11643-0.19991-0.12243-0.19991-0.1259 0-0.002 0.11545-0.0711 0.2099-0.15358 0.2099-0.095 0-0.14993-0.17592-0.14993-0.47978zm0.3818-0.26238c-0.0383-0.09568-0.0667-0.06727-0.0724 0.07247-0.006 0.12644 0.0231 0.19728 0.063 0.15743 0.0398-0.03985 0.0441-0.14331 0.009-0.2299zm-42.875-1.207 0.0327-2.189 0.50977-0.03689 0.50977-0.03688v2.2259 2.2259h-0.54246-0.54247l0.0327-2.189zm4.4107-0.02999v-2.219h0.58434 0.58434l0.52515 1.1603 0.52516 1.1603 0.06-1.1303 0.06-1.1303 0.50977-0.03689 0.50977-0.03688v2.2259 2.2259h-0.63951-0.63952l-0.54936-1.1695-0.54937-1.1695-0.0106 1.1695-0.0105 1.1695h-0.47978-0.47978v-2.219zm6.597 0v-2.219h1.1994 1.1995v0.47978 0.47978h-0.6597-0.6597v0.41981 0.41981h0.6597 0.6597v0.41981 0.41981h-0.6597-0.6597v0.89959 0.89959h-0.53976-0.53975v-2.219zm5.5175-0.0069v-2.2259l0.50977 0.03688 0.50977 0.03689 0.0327 2.189 0.0327 2.189h-0.54246-0.54247v-2.2259zm4.318 0.000599v-2.2253l0.62112 0.03626 0.62111 0.03626 0.54836 1.2319 0.54835 1.232 0.0341-1.2619 0.0341-1.2619h0.47572 0.47572v2.219 2.219h-0.59856-0.59856l-0.59476-1.1695-0.59477-1.1695-0.006 1.1695-0.006 1.1695h-0.47978-0.47979v-2.2253zm6.717 0.0062v-2.219h0.53975 0.53976v2.219 2.219h-0.53976-0.53975v-2.219zm5.1576 0.47978v-1.7392h-0.47978c-0.47978 0-0.47978 0-0.47978-0.47978v-0.47978h1.4993 1.4993v0.47978c0 0.47978 0 0.47978-0.47978 0.47978h-0.47979v1.7392 1.7392h-0.53975-0.53976v-1.7392zm5.2776-0.47978v-2.219h0.47978 0.47978v2.219 2.219h-0.47978-0.47978v-2.219z"/>
 </g>
</svg>
