<?xml version="1.0" encoding="UTF-8" standalone="no"?>
<!-- Created with Inkscape (http://www.inkscape.org/) -->
<svg id="svg2" xmlns:rdf="http://www.w3.org/1999/02/22-rdf-syntax-ns#" xmlns="http://www.w3.org/2000/svg" height="54" width="99" version="1.1" xmlns:cc="http://creativecommons.org/ns#" xmlns:dc="http://purl.org/dc/elements/1.1/">
 <metadata id="metadata7">
  <rdf:RDF>
   <cc:Work rdf:about="">
    <dc:format>image/svg+xml</dc:format>
    <dc:type rdf:resource="http://purl.org/dc/dcmitype/StillImage"/>
    <dc:title/>
   </cc:Work>
  </rdf:RDF>
 </metadata>
 <g id="g11180">
  <rect id="rect2990" opacity="0" height="54" width="99" y="0" x="0"/>
  <g fill-rule="evenodd">
   <polygon id="polygon16848" points="272.32 431.09 272.32 432.44 269.16 432.44 269.16 434.78 272.12 434.78 272.12 436.13 269.16 436.13 269.16 440.31 267.44 440.31 267.44 440.31 267.44 440.31 267.44 440.31 267.44 431.09" transform="matrix(.51209 0 0 .84568 -106.88 -324.43)"/>
   <polygon id="polygon16850" points="343.29 440.38 343.29 431.17 345.01 431.17 345.01 440.38 343.29 440.38 343.29 440.38" transform="matrix(.51209 0 0 .84568 -106.88 -324.43)"/>
   <polygon id="polygon16852" points="365.62 431.12 365.62 431.12 365.62 431.12 371.36 431.12 371.36 432.47 369.36 432.47 369.36 440.33 367.64 440.33 367.64 432.47 365.62 432.47" transform="matrix(.51209 0 0 .84568 -106.88 -324.43)"/>
   <polygon id="polygon16854" points="217.5 440.38 217.5 431.17 219.22 431.17 219.22 440.38 217.5 440.38 217.5 440.38" transform="matrix(.51209 0 0 .84568 -106.88 -324.43)"/>
   <polygon id="polygon16856" points="316.1 431.08 318.12 431.08 320.48 438.1 320.45 438.1 320.46 431.08 320.46 431.08 320.46 431.08 320.46 431.08 321.94 431.08 321.94 440.3 319.94 440.3 317.54 433.36 317.54 440.3 316.1 440.3" transform="matrix(.51209 0 0 .84568 -106.88 -324.43)"/>
   <polygon id="polygon16858" points="391.53 440.38 391.53 431.17 393.25 431.17 393.25 440.38 391.53 440.38 391.53 440.38" transform="matrix(.51209 0 0 .84568 -106.88 -324.43)"/>
   <polygon id="polygon16860" points="292.93 440.38 292.93 431.17 294.65 431.17 294.65 440.38 292.93 440.38 292.93 440.38" transform="matrix(.51209 0 0 .84568 -106.88 -324.43)"/>
   <polygon id="polygon16862" points="240.38 431.08 242.4 431.08 244.76 438.1 244.73 438.1 244.74 431.08 244.74 431.08 244.74 431.08 244.74 431.08 246.22 431.08 246.22 440.3 244.22 440.3 241.82 433.36 241.82 440.3 240.38 440.3" transform="matrix(.51209 0 0 .84568 -106.88 -324.43)"/>
   <path id="path16864" d="m49.5 6.0065c-16.743 0-30.315 6.8432-30.315 15.283 0 6.8342 8.8994 12.621 21.175 14.576l9.141-21.833 9.141 21.833c12.276-1.9558 21.175-7.7426 21.175-14.576 0-8.441-13.573-15.283-30.315-15.283zm13.921 22.954-13.922-16.165-13.868 16.121c-6.8292-1.9067-11.331-5.244-11.331-9.3464 0-6.5069 11.196-12.609 25.174-12.609 13.977 0 25.442 6.1014 25.442 12.609 0 4.1341-4.5735 7.492-11.495 9.3912z"/>
  </g>
 </g>
</svg>
