<?xml version="1.0" encoding="UTF-8" standalone="no"?>
<!-- Created with Inkscape (http://www.inkscape.org/) -->
<svg id="svg2" xmlns:rdf="http://www.w3.org/1999/02/22-rdf-syntax-ns#" xmlns="http://www.w3.org/2000/svg" height="54" width="99" version="1.1" xmlns:cc="http://creativecommons.org/ns#" xmlns:dc="http://purl.org/dc/elements/1.1/">
 <metadata id="metadata7">
  <rdf:RDF>
   <cc:Work rdf:about="">
    <dc:format>image/svg+xml</dc:format>
    <dc:type rdf:resource="http://purl.org/dc/dcmitype/StillImage"/>
    <dc:title/>
   </cc:Work>
  </rdf:RDF>
 </metadata>
 <g id="g3305">
  <g id="g3345">
   <g id="g3722">
    <g id="g3757">
     <g id="g3952">
      <g id="g4047">
       <g id="g4079">
        <g id="g4116">
         <g id="g4159">
          <g id="g4184">
           <g id="g4225">
            <g id="g4264">
             <g id="g4289">
              <g id="g4304">
               <g id="g4413">
                <g id="g4448">
                 <g id="g4472">
                  <g id="g4680">
                   <g id="g4737">
                    <g id="g4823">
                     <g id="g4901">
                      <g id="g4966">
                       <rect id="rect2990" opacity="0" height="54" width="99" y="0" x="0"/>
                       <g id="g3573" fill-rule="evenodd" transform="matrix(1.2020848,0,0,1.2020848,-4.592171,-4.8468116)">
                        <g id="g3541" transform="matrix(0.83187862,0,0,1.3737803,7.5652319,-17.955166)">
                         <polygon id="polygon16848" points="272.12,434.78,272.12,436.13,269.16,436.13,269.16,440.31,267.44,440.31,267.44,440.31,267.44,440.31,267.44,440.31,267.44,431.09,272.32,431.09,272.32,432.44,269.16,432.44,269.16,434.78" transform="matrix(0.51209687,0,0,0.51209687,-111.38295,-180.45002)"/>
                         <polygon id="polygon16850" points="343.29,431.17,345.01,431.17,345.01,440.38,343.29,440.38,343.29,440.38,343.29,440.38,343.29,440.38" transform="matrix(0.51209687,0,0,0.51209687,-111.38295,-180.45002)"/>
                         <polygon id="polygon16852" points="367.64,440.33,367.64,432.47,365.62,432.47,365.62,431.12,365.62,431.12,365.62,431.12,365.62,431.12,371.36,431.12,371.36,432.47,369.36,432.47,369.36,440.33" transform="matrix(0.51209687,0,0,0.51209687,-111.38295,-180.45002)"/>
                         <polygon id="polygon16854" points="217.5,431.17,219.22,431.17,219.22,440.38,217.5,440.38,217.5,440.38,217.5,440.38,217.5,440.38" transform="matrix(0.51209687,0,0,0.51209687,-111.38295,-180.45002)"/>
                         <polygon id="polygon16856" points="321.94,431.08,321.94,440.3,319.94,440.3,317.54,433.36,317.54,440.3,316.1,440.3,316.1,431.08,318.12,431.08,320.48,438.1,320.45,438.1,320.46,431.08,320.46,431.08,320.46,431.08,320.46,431.08" transform="matrix(0.51209687,0,0,0.51209687,-111.38295,-180.45002)"/>
                         <polygon id="polygon16858" points="391.53,431.17,393.25,431.17,393.25,440.38,391.53,440.38,391.53,440.38,391.53,440.38,391.53,440.38" transform="matrix(0.51209687,0,0,0.51209687,-111.38295,-180.45002)"/>
                         <polygon id="polygon16860" points="292.93,431.17,294.65,431.17,294.65,440.38,292.93,440.38,292.93,440.38,292.93,440.38,292.93,440.38" transform="matrix(0.51209687,0,0,0.51209687,-111.38295,-180.45002)"/>
                         <polygon id="polygon16862" points="246.22,431.08,246.22,440.3,244.22,440.3,241.82,433.36,241.82,440.3,240.38,440.3,240.38,431.08,242.4,431.08,244.76,438.1,244.73,438.1,244.74,431.08,244.74,431.08,244.74,431.08,244.74,431.08" transform="matrix(0.51209687,0,0,0.51209687,-111.38295,-180.45002)"/>
                        </g>
                        <path id="path16864" d="m44.999,9.0287c-13.928,0-25.219,5.6928-25.219,12.714,0,5.6853,7.4033,10.499,17.615,12.126l7.6043-18.163,7.6043,18.163c10.212-1.627,17.615-6.441,17.615-12.126,0-7.022-11.291-12.714-25.219-12.714zm11.58,19.095-11.581-13.448-11.537,13.411c-5.6811-1.5862-9.426-4.3624-9.426-7.7752,0-5.413,9.3141-10.489,20.942-10.489,11.627,0,21.165,5.0757,21.165,10.489,0,3.4391-3.8046,6.2325-9.5623,7.8124z"/>
                       </g>
                      </g>
                     </g>
                    </g>
                   </g>
                  </g>
                 </g>
                </g>
               </g>
              </g>
             </g>
            </g>
           </g>
          </g>
         </g>
        </g>
       </g>
      </g>
     </g>
    </g>
   </g>
  </g>
 </g>
</svg>
