<?xml version="1.0" encoding="UTF-8" standalone="no"?>
<!-- Created with Inkscape (http://www.inkscape.org/) -->
<svg id="svg2" xmlns:rdf="http://www.w3.org/1999/02/22-rdf-syntax-ns#" xmlns="http://www.w3.org/2000/svg" height="54" width="99" version="1.1" xmlns:cc="http://creativecommons.org/ns#" xmlns:dc="http://purl.org/dc/elements/1.1/">
 <metadata id="metadata7">
  <rdf:RDF>
   <cc:Work rdf:about="">
    <dc:format>image/svg+xml</dc:format>
    <dc:type rdf:resource="http://purl.org/dc/dcmitype/StillImage"/>
    <dc:title/>
   </cc:Work>
  </rdf:RDF>
 </metadata>
 <g id="g3305">
  <g id="g3345">
   <g id="g3722">
    <g id="g3757">
     <g id="g3952">
      <g id="g4047">
       <g id="g4079">
        <g id="g4116">
         <g id="g4159">
          <g id="g4184">
           <g id="g4225">
            <g id="g4264">
             <g id="g4289">
              <g id="g4304">
               <g id="g4413">
                <g id="g4448">
                 <g id="g4472">
                  <g id="g4680">
                   <g id="g4737">
                    <g id="g4823">
                     <g id="g4901">
                      <g id="g4966">
                       <g id="g5004">
                        <rect id="rect2990" opacity="0" height="54" width="99" y="0" x="0"/>
                        <g id="g3515" transform="translate(4.49976,6.1304483)">
                         <path id="path16895" d="m21.938,37.011c-0.31734-0.26215-0.76538-1.1235-0.91473-1.4418l-5.078-12.209h-1.4749l-4.6675,11.648c-0.2054,0.524-1.0518,2.041-1.2135,2.284-0.1494,0.225-0.3734,0.599,0.1866,0.599h1.8297l1.4611-3.6701h5.3349l1.5309,3.6701h2.9312c0.42941,0,0.4869-0.53965,0.07455-0.88013zm-9.1277-4.5844,1.867-4.7562,1.9789,4.7562h-3.8459z"/>
                         <path id="path16897" d="M64.91,37.011c-0.318-0.262-0.766-1.124-0.915-1.442l-5.079-12.209h-1.4748l-4.6674,11.647c-0.20538,0.5243-1.0518,2.0412-1.2135,2.2844-0.14935,0.22475-0.37337,0.59922,0.18675,0.59922h1.8297l1.4611-3.6701h5.3356l1.5309,3.6701h2.9312c0.42941,0,0.48691-0.53965,0.07467-0.88013zm-9.1278-4.5844,1.867-4.7562,1.9789,4.7562h-3.8459z"/>
                         <path id="path16899" d="m3.3608,25.297v10.037c0,4.3444-2.9125,5.8424-3.3606,6.4042h3.2859c1.8421-1.2438,2.9872-3.925,2.9872-5.5805v-12.809h-2.9125c-0.33609,0-0.52284,0.22463-0.37337,0.59922,0.14935,0.37459,0.3361,0.71166,0.37337,1.3483z"/>
                         <path id="path16901" d="m32.631,30.925h2.9125v6.217c-0.85882,0.5617-2.0537,1.0861-4.6302,1.0861-2.5764,0-7.6921-1.236-7.6921-7.715s6.3851-7.3779,7.804-7.3779,3.2859,0.33707,4.2941,0.74906v2.1347c-0.78414-0.26215-1.9417-1.1235-4.1073-1.1235-2.4645,0-4.8915,2.0224-4.9289,5.8424-0.03728,3.8201,2.6512,6.8536,6.3478,5.5427v-3.8206c-0.02-0.412-0.076-0.712-0.263-0.974-0.139-0.195-0.224-0.562,0.262-0.562z"/>
                         <path id="path16903" d="m50.06,33.471v-8.1082c0.01876-0.41199,0.35486-1.1797,0.54148-1.4418,0.13899-0.19515,0.2239-0.5617-0.26142-0.5617h-2.2012c-0.48532,0-0.40042,0.36667-0.26142,0.5617,0.18675,0.26215,0.52284,1.03,0.54136,1.4418v7.097c0,2.1347-1.5309,4.0447-3.734,4.0447s-3.1366-2.2846-3.1366-3.483v-9.6623h-2.9125c-0.48544,0-0.40029,0.36667-0.2613,0.5617,0.18675,0.26215,0.24266,0.56182,0.2613,0.97381v8.4265c0,2.5467,2.8006,4.8687,6.0491,4.8687,3.2486,0,5.3769-2.8463,5.3769-4.7189z"/>
                         <path id="path16905" d="m70.736,35.55c0,0.28091,0.22402,1.3857,0.37337,1.7415,0.14935,0.35583-0.05604,0.59922-0.37337,0.59922h-2.9138v-12.996c-0.01864-0.41199-0.07467-0.71154-0.26142-0.97381-0.13899-0.19515-0.22402-0.5617,0.26142-0.5617h4.2568c1.0828,0,4.7795-0.11232,4.8168,4.0447,0.0374,1.1235,0,2.1347-1.7176,3.2957-0.33597,0.22475-0.52272,0.5243-0.26142,0.97381,0.26142,0.44938,2.2964,4.0634,2.2964,4.0634,0.3361,0.5243,0.90304,1.3075,1.1015,1.4606,0.24278,0.18723,0.31746,0.6929-0.09331,0.6929h-3.0059l-3.566-6.4791c-0.22402-0.41199-0.22402-0.78646,0.2987-0.93629,0.65867-0.1887,2.0725-0.11207,2.0725-3.1459,0-2.8275-1.9417-2.4904-2.5764-2.4904-0.63479,0-0.70947,0.46815-0.70947,1.1423,0,0.67414-0.000122,9.5688-0.000122,9.5688z"/>
                         <rect id="rect16907" y="40.154" width="81.998" x="7.6726" height="0.97369"/>
                         <path id="path16909" d="M88.301,20.881h-2.5578c-1.4222,0.036-2.1282-0.73-2.4402-0.983-8.929-6.432-25.583-13.735-40.593-18.79-1.942-0.59922-4.817-1.0112-6.61-1.0112-1.7923,0-2.6511-0.14984-4.5181-0.074918-1.7908,0.071872-3.6594,0.37459-4.7048,0.67414s-3.398,0.89877-3.5099,2.322c-0.89609,0.67414-1.8109,1.5917-2.1844,1.9661-0.37337,0.37459-0.50408,1.1049,0.24278,1.9287,0.74674,0.82397,1.643,1.6478,2.2403,1.2734,0.59739-0.37459,0.44805-0.82397,0.67219-1.2734,0.22402-0.44926,0.97089-1.1235,1.7176-0.29955,0.74674,0.82397,0.28006,1.1798-0.14935,1.573-0.39774,0.36423-1.1949,1.0486-0.67219,1.7227,0.52284,0.67414,1.1202,0.89889,1.9417,0.29967,0.60275-0.43964,2.2151-1.3634,3.1492-1.8832,0.23011-0.13924,0.51017-0.47631,1.5326-0.062858,1.1,0.42222,2.8002,1.1782,3.5143,1.5714l-1.5496,0.71154c-0.82142,0.5243-1.5309,2.0037-1.6056,2.528-0.07467,0.82398,0.22402,2.0037,1.3443,2.9773h2.4271l1.4562-2.0972-0.11195-0.22463c1.8671-0.22475,6.9453,1.3108,9.3349,0.37447,1.643,0.67414,4.5555,1.0487,9.9324,0.5243,0.97089-0.07492,2.2965-0.28091,3.1179,0.78658,0.84883,1.1028,5.0222,5.5053,6.3664,5.9547,1.3443,0.44938,6.9452,0.44938,8.4015,0.71154,1.2581,0.22658,1.7549,0,2.8005,1.1984l2.2403,1.9849c0.26142,0.29955,1.0456,0.88013,1.9417,0.88013h1.5496c0.89609-0.07492,1.3815-0.71154,1.6056-1.4606h3.8088c1.1949,0,1.5683-1.0674,1.5683-2.0411-0.000122-0.97393-0.65367-1.7604-1.6992-1.7604zm0.01803,2.9025h-3.6032c-0.20538-1.5917-1.3817-1.8153-2.0537-1.8538-0.65343-0.03752-1.1575-0.29955-1.4563-0.4869,0,0-2.4271-2.1723-3.0992-2.8838-0.67207-0.71154-1.1201-0.93629-1.7549-0.93629h-2.203c-0.44805,0-0.97089,0.03752-1.7178-0.97369-0.74674-1.0112-2.6511-2.6216-3.1366-2.9587-0.48544-0.33707-0.59752,0.03752-0.29882,0.29955,0.26142,0.26215,1.4936,1.0486,2.2405,2.2846,0.74674,1.2358,1.3815,1.8725,1.9044,2.1346,0.44804,0.29955,1.8297,0.26215,2.6511,0.26215,0.82154,0,1.1202,0.07492,1.7923,0.74906,0.67207,0.67414,2.203,2.0224,2.6137,2.4718,0.41077,0.44939,1.1202,0.86137,2.1284,0.86137s1.4936,0.63662,1.4563,1.2358c-0.03508,0.56194-0.3361,1.1984-0.78414,1.1984h-1.6057c-0.26142,0-0.85881-0.37459-1.0082-0.5243-0.522-0.375-1.828-1.499-2.575-2.285-0.747-0.787-1.494-1.011-2.502-1.161s-5.19-0.337-6.124-0.375c-0.93349-0.03752-2.3524-0.03752-3.3606-0.67414-0.99172-0.62626-4.9289-4.9435-5.6011-5.7301-0.78414-0.89877-1.9603-0.78646-2.6699-0.80522-6.9825,0.7677-9.4656,0.05616-10.212-0.39323l0.72823-1.2546c2.1844,0.50554,5.1715,0.01876,5.5823-0.09368,0.41077-0.11232,0.3361-0.5243-0.07467-0.44938-0.93349,0.11232-5.0035-0.37447-5.4143-0.44939-0.03728-1.0486-2.3897-4.1945-2.6884-4.7938-0.2987-0.59922-0.0374-0.97369,0.2613-1.2358,0.2987-0.26215,0.2987-0.59922,0.0374-0.59922-1.0828,0.11232-1.3443,0.97381-1.1202,2.0224,0.22402,1.0486,2.539,4.0821,2.3897,4.7938-0.14935,0.71166-0.85882,1.704-1.2695,2.116-2.0163,0.4869-6.4971-0.71154-9.0736-0.63662-0.98977,0.02875-0.82154,0.88013-0.46668,1.1797l-0.82154,1.1984h-1.1762c-0.63479-0.18723-0.85882-1.1609-0.97089-1.6478,0.02863-0.31636,0.26142-1.2358,1.0456-1.91,1.5869-1.3642,7.9161-0.74906,8.4762-0.74906,0.56012,0,0.41077-0.26215,0.07467-0.37447-0.597-0.15-2.408-0.6366-3.472-0.674-0.242-0.7115-0.691-1.2172-0.84-1.91-0.12742-0.59082,0.03728-1.3295,0.24266-1.779,0.28006-0.86137-0.31734-0.7303-0.52272-0.48691-0.28006,0.41199-0.98952,1.3296-1.0268,2.0037-0.0374,0.67414,0.65343,1.8726,0.84006,2.1723-0.3361,0-0.93349,0.037398-1.1949,0.037398-1.811-1.5355-5.059-2.5654-5.694-2.7902,0.112-0.2996,0.28-0.6179,0.392-0.9923,0.112-0.3746,0.336-0.2996,0.598-0.2248,0.373,0.1873,2.128,0.824,2.688,1.0486,0.56,0.2247,1.083,0.1123,1.344-0.1123,0.262-0.2247,1.12-0.9738,1.494-1.498,0.373-0.5243-0.224-0.5618-0.448-0.2995-0.71,0.6552-1.755,1.0112-2.315,0.8987-0.56-0.1124-2.353-1.0112-2.801-1.3107-1.008-0.4494-1.381,0.2621-1.493,0.6741-0.654,1.8943-1.718,2.7871-2.483,3.3518-0.224,0.1874-1.235,0.7827-1.531,0.9738-0.262,0.1685-0.43-0.1124-0.318-0.2809,0.224-0.1684,1.046-1.0112,1.102-1.3107,0.187-1.086-0.112-1.4419-0.56-1.9288s-1.027-0.6553-1.699-0.6553c-0.67207,0-1.3069,0.61786-1.5309,0.84261-0.22402,0.22475,0.05604,0.67414-0.31746,0.93629-0.37325,0.26215-0.80266-0.43075-1.0268-0.7303,0.48544-0.5617,0.44805-0.82397,0.3361-1.3482,0.1608-0.12109,0.41394-0.41723,0.7281-0.6929,0.26142,0.14984,0.78414,0.22475,1.1202,0.14984,1.8109-0.14984,2.1284,0.056158,2.539,0.24351,0.41077,0.18736,0.54136-0.074918,0.39201-0.33707-0.20039-0.35169-0.35473-0.48691-0.7281-0.86137l0.7281-0.22475c0.82154,0,1.643,0.29967,2.0537,0.33719,0.41077,0.037398,0.67219,0.037398,0.82154-0.26215,0.26142-0.78646,0.74674-0.93629,1.0828-1.0486,0.3361-0.11232,0.59739-0.41199,0.2987-0.48691h-0.74674c-0.63479,0.03752-0.67219,0.26215-0.85882,0.48691-0.18675,0.22475-0.41077,0.48691-0.89621,0.41199-0.48544-0.074918-1.5122-0.24339-2.1096-0.20599-0.46693,0.029236-1.1389,0.50554-2.4457,0.46815,0.52272-1.3112,5.3768-1.8355,6.3103-1.8731,6.1983-0.26215,7.5052,0.03752,10.343,0.63674,2.8379,0.59922,7.1053,1.9924,15.283,5.2507,7.7717,3.0966,22.854,10.699,26.341,13.802,0.19674,0.1971,1.3356,1.0023,2.624,1.0023h2.6884c0.67207,0,0.85882,0.61798,0.85882,0.91753s-0.16799,1.1049-0.7281,1.1049z"/>
                        </g>
                       </g>
                      </g>
                     </g>
                    </g>
                   </g>
                  </g>
                 </g>
                </g>
               </g>
              </g>
             </g>
            </g>
           </g>
          </g>
         </g>
        </g>
       </g>
      </g>
     </g>
    </g>
   </g>
  </g>
 </g>
</svg>
