<?xml version="1.0" encoding="UTF-8" standalone="no"?>
<!-- Created with Inkscape (http://www.inkscape.org/) -->
<svg id="svg2" xmlns:rdf="http://www.w3.org/1999/02/22-rdf-syntax-ns#" xmlns="http://www.w3.org/2000/svg" height="45" width="67.5" version="1.1" xmlns:cc="http://creativecommons.org/ns#" xmlns:dc="http://purl.org/dc/elements/1.1/">
 <metadata id="metadata7">
  <rdf:RDF>
   <cc:Work rdf:about="">
    <dc:format>image/svg+xml</dc:format>
    <dc:type rdf:resource="http://purl.org/dc/dcmitype/StillImage"/>
    <dc:title/>
   </cc:Work>
  </rdf:RDF>
 </metadata>
 <g id="g13646">
  <rect id="rect2990" opacity="0" height="45" width="67.5" y="0" x="3.5527e-15"/>
  <path id="path13644" d="m0.49021 39.301c0.62169-0.562 1.0285-1.363 1.1865-2.337 0.0682-0.42028 0.1244-2.3451 0.1249-4.2775l0.0008-3.5133h0.84842 0.84843l-0.0392 3.8136c-0.0366 3.5643-0.0559 3.8546-0.29504 4.4407-0.14071 0.3449-0.42577 0.84164-0.63347 1.1039-0.42202 0.53285-1.6491 1.2118-2.19 1.2118h-0.3415l0.49011-0.441zm24.615-1.477c-2.8534-0.3723-4.3375-1.9273-4.1774-4.377 0.13927-2.1305 1.676-3.7184 4.0971-4.2335 1.0805-0.2299 2.4888-0.15366 3.5936 0.19456l0.81077 0.25553v0.54075 0.54075l-0.51048-0.2959c-2.2179-1.2856-4.9655-0.61992-5.8643 1.4207-0.63541 1.4426-0.27084 3.5156 0.77881 4.4282 0.138 0.11999 0.52116 0.34918 0.85147 0.50931 0.49963 0.24222 0.77216 0.28933 1.6215 0.28035 1.7124-0.01811 1.6114 0.08603 1.6816-1.7336l0.0601-1.5563 0.81077-0.03551 0.81076-0.03551v1.7853 1.7853l-0.64562 0.20352c-1.1999 0.37822-2.6074 0.49432-3.9187 0.32323zm12.779 0.0042c-1.0712-0.16817-1.7806-0.46769-2.2526-0.95108-0.72175-0.73913-0.79674-1.1782-0.79674-4.6653v-3.0493l0.81076 0.03551 0.81077 0.03551 0.0601 3.2431c0.0688 3.7167 0.1031 3.8546 1.0838 4.3622 0.47545 0.24608 0.67162 0.2735 1.6931 0.23662 1.0069-0.03635 1.2166-0.08231 1.6328-0.3577 0.87163-0.57682 0.9274-0.82114 0.99548-4.3612l0.0601-3.123 0.51952-0.03738 0.51952-0.03738-0.0488 3.1003c-0.0346 2.1992-0.0963 3.2339-0.21219 3.5599-0.25846 0.72712-0.99409 1.4735-1.72 1.7451-0.73458 0.27484-2.2693 0.40334-3.1555 0.2642zm-27.583-4.3907 2.131-4.264h0.49134 0.49134l2.0146 4.1139c1.108 2.2626 2.0425 4.1837 2.0767 4.2691 0.0484 0.121-0.15629 0.14749-0.92791 0.12011l-0.99-0.03512-0.5122-1.1411-0.5122-1.1411-2.094-0.03271-2.094-0.03271-0.55415 1.2038-0.55414 1.2038h-0.54871-0.54871l2.131-4.264zm3.8742 1.1631c0-0.09602-1.5442-3.5243-1.6249-3.6075-0.0482-0.04972-0.60555 1.0389-1.3283 2.5946l-0.51616 1.111h1.7347c0.95408 0 1.7347-0.04416 1.7347-0.09814zm32.551 3.0402c0-0.0334 0.94605-1.9522 2.1023-4.264l2.1023-4.2033h0.48784 0.48784l2.0342 4.1562c1.1188 2.2859 2.0342 4.2047 2.0342 4.264 0 0.05931-0.42561 0.10785-0.94581 0.10785h-0.9458l-0.52255-1.2011-0.52255-1.2011h-2.085-2.085l-0.55573 1.2011-0.55574 1.2011h-0.51532c-0.28344 0-0.51534-0.02733-0.51534-0.06072zm5.8397-3.3325c-0.4726-1.0904-1.4379-3.1645-1.5109-3.2463-0.0705-0.07906-1.8064 3.3432-1.8064 3.5612 0 0.04149 0.78446 0.07545 1.7433 0.07545h1.7433l-0.16921-0.39037zm7.613-0.88657v-4.2798l2.2521 0.05711c2.0253 0.05135 2.3236 0.08621 2.9617 0.34606 0.89136 0.36299 1.3637 0.9167 1.496 1.7536 0.18456 1.1675-0.34678 2.2341-1.3848 2.7796l-0.38033 0.19989 1.1865 1.6215c0.65258 0.89184 1.1886 1.6643 1.1911 1.7167 0.0026 0.05233-0.41398 0.07935-0.92556 0.06006l-0.93016-0.03508-1.0817-1.5861-1.0817-1.5861-0.87082-0.0054-0.87082-0.0054v1.6215 1.6215h-0.78074-0.78074v-4.2798zm4.0911 0.12348c0.6524-0.38102 0.95368-0.92732 0.95368-1.7293 0-0.51237-0.06875-0.78808-0.27265-1.0933-0.42143-0.63084-0.93578-0.82812-2.1596-0.82834l-1.051-0.000186v1.9966 1.9966l1.0586-0.05062c0.77325-0.03697 1.1698-0.11554 1.471-0.29144zm-9.317-6.497c-0.37365-0.08878-1.6215-0.65986-1.6218-0.74223-0.00012-0.04053 0.42913-0.05615 0.95397-0.03473 1.1298 0.04612 1.7076-0.16497 1.9316-0.70568 0.23764-0.57371 0.0754-0.8774-0.69072-1.2931-0.8716-0.47287-0.57528-0.48444 0.79999-0.03122 0.58617 0.19317 1.3142 0.38848 1.618 0.43402 0.76079 0.11409 1.9188-0.12722 2.9081-0.60599 0.71993-0.3484 0.78053-0.36218 0.46695-0.10619-0.19818 0.1618-0.70617 0.46614-1.1289 0.67632-0.6553 0.32586-0.93021 0.38922-1.8661 0.43016l-1.0976 0.048 0.0479 0.41011c0.11926 1.0215-1.0893 1.8132-2.3213 1.5205zm-3.0088-1.588c-0.23351-0.22803-1.7052-1.0055-2.5764-1.3611-0.87037-0.35523-0.9862-0.37071-3.4232-0.45762-2.5705-0.09167-3.165-0.18732-4.3086-0.69318-1.3721-0.60697-3.1404-2.2134-4.1253-3.7476-0.7981-1.2433-0.87836-1.331-1.4615-1.5965-0.51936-0.23646-0.77505-0.25356-4.0378-0.26999-3.6261-0.01826-4.3681-0.09544-6.1556-0.64028-0.41276-0.12582-0.77692-0.18597-0.80924-0.13368-0.0323 0.0523-0.31619 0.22042-0.63083 0.37361-0.47421 0.23089-0.76727 0.27892-1.7132 0.28078-1.187 0.0023-1.7619-0.14993-4.5043-1.1929-0.5223-0.19864-1.1138-0.32729-1.5615-0.33962l-0.72068-0.01985-0.037 0.38142c-0.0403 0.41524-0.38343 0.8352-0.38343 0.46921 0-0.10986-0.11046-0.34914-0.24546-0.53175-0.50439-0.68222 0.0993-1.0518 1.542-0.94392 0.57597 0.04306 1.5379 0.2582 2.547 0.56967 2.9468 0.90954 4.5865 0.78437 5.1163-0.39054 0.263-0.58324 0.26552-1.5758 0.006-2.647-0.0918-0.37986-0.15469-0.69065-0.13983-0.69065 0.0149 0 0.53476 0.26692 1.1553 0.59316 0.62058 0.32624 1.5997 0.75122 2.1758 0.94441 0.57611 0.19319 1.013 0.3857 0.97092 0.42781-0.13768 0.13767-1.6417 0.07665-2.3778-0.09647-0.39583-0.0931-0.73547-0.15348-0.75478-0.13418-0.0193 0.01931 0.0202 0.28178 0.0877 0.58327 0.0676 0.30149 0.0896 0.71435 0.049 0.91746-0.0717 0.35832-0.0503 0.37996 0.71908 0.72882 0.43612 0.19774 1.2132 0.50517 1.7268 0.68316 0.91553 0.31729 1.0009 0.3244 4.3571 0.36312 1.8828 0.02172 3.6001 0.06799 3.8162 0.10283 0.62909 0.10141 1.1578 0.67557 1.7578 1.9089 0.41783 0.85891 0.73671 1.3169 1.3298 1.91 1.4355 1.4355 2.7872 1.8724 5.8033 1.8758 3.0917 0.0035 4.2365 0.36631 5.966 1.8907 0.56403 0.49711 1.0255 0.92416 1.0255 0.949 0 0.07481-0.0656 0.05144-0.18618-0.06627zm1.103-2.3464c-1.0203-0.61437-1.5714-1.0835-2.0684-1.7605-0.2444-0.33293-0.57812-0.65619-0.74162-0.71835-0.16349-0.06216-0.91304-0.16321-1.6657-0.22455-1.4116-0.11505-2.5487-0.47989-2.9795-0.95597-0.17275-0.19089-0.13135-0.19045 0.62425 0.0066 0.4451 0.1161 1.2453 0.2142 1.7781 0.218 1.2315 0.0088 2.27 0.19878 2.8457 0.52061 0.27293 0.15256 0.6664 0.56988 0.99516 1.0555 0.29907 0.44173 0.88851 1.1342 1.3099 1.5388 0.42136 0.40462 0.72708 0.73566 0.67936 0.73566-0.0477 0-0.39752-0.18714-0.77735-0.41585zm4.0078 0.04209c-0.84099-0.2511-3.6083-1.6669-6.4261-3.2876-4.0612-2.3359-10.308-5.5893-10.453-5.4442-0.0263 0.02634 0.76528 0.89674 1.7592 1.9342 0.99389 1.0375 1.7563 1.8863 1.6943 1.8863-0.20553 0-1.753-1.2203-2.7892-2.1994-2.1166-2.0001-4.3715-3.0139-6.0963-2.7409-0.34682 0.0549-0.63059 0.05638-0.63059 0.0033 0-0.1469 0.80525-0.3479 1.7268-0.43104 1.0618-0.09578 1.1632-0.04467-3.2883-1.6572-6.2878-2.2777-9.8231-3.3305-9.5838-2.8542 0.17715 0.35269 0.57533 1.2629 0.57533 1.3152 0 0.03524-0.21928-0.13403-0.48729-0.37617-1.4816-1.3385-3.6009-2.2467-6.3394-2.7167-1.4124-0.24236-1.7101-0.2259-2.4301 0.13439-0.84411 0.42242-0.84271 0.52593 0.0175 1.304 0.69395 0.62771 1.6724 1.8106 1.4977 1.8106-0.038 0-0.36874-0.24398-0.73485-0.54217-0.83753-0.68218-1.8816-1.2129-2.8142-1.4304-0.73442-0.17133-1.4498-0.51494-1.522-0.73106-0.0239-0.0717 0.20182-0.10228 0.56786-0.07692 0.86043 0.0596 1.3067-0.04995 1.9838-0.48704l0.59174-0.38197-0.48045-0.0901c-2.2357-0.41927-6.4261 0.43437-6.4261 1.3091 0 0.14182 0.11098 0.08799 0.4039-0.19591 0.4108-0.39817 0.82742-0.49731 1.3684-0.32563 0.14833 0.04708 0.26968 0.15743 0.26968 0.24522 0 0.30029-0.81778 0.87796-1.6215 1.1454-0.80307 0.26724-1.6215 0.84508-1.6215 1.1448 0 0.21059 0.57604 0.6569 0.84785 0.6569 0.23353 0 0.52504-0.3296 1.1155-1.2612 0.34449-0.54355 0.42745-0.604 0.87377-0.6367 0.38899-0.0285 0.57188 0.03012 0.86588 0.2775 0.78078 0.65698 0.61164 1.6288-0.4786 2.7499-0.67625 0.6954-0.80727 1.0326-0.40125 1.0326 0.31926 0 0.75731-0.3589 1.1009-0.90193 0.22609-0.35738 0.4361-0.54062 0.67412-0.58823 1.2877-0.25755 1.8048-1.1267 1.3465-2.2634-0.24124-0.59838 0.71517 0.18674 1.4816 1.2162 0.15366 0.20642 0.37857 0.3753 0.49979 0.3753 0.78816 0 2.7374 1.218 3.5087 2.1925 0.2181 0.27555 0.31548 0.45207 0.21638 0.39226s-0.46742-0.29137-0.81852-0.51459c-0.84052-0.53439-2.0764-1.0499-2.9404-1.2265-1.2431-0.25408-2.4609 0.11664-3.7452 1.1401-0.95982 0.7649-1.2708 0.88078-1.667 0.62118-0.36955-0.24214-0.63431-0.86697-0.4576-1.0799 0.0713-0.08596 0.0976-0.27891 0.0585-0.42878-0.0665-0.25456-0.0436-0.26731 0.3486-0.19372 0.3623 0.06797 0.4551 0.03398 0.67686-0.24794 0.32574-0.41411 0.32912-1.011 0.008-1.4192-0.52276-0.6646-1.1363-0.20832-1.126 0.83746 0.006 0.59304-0.0164 0.64776-0.26316 0.64776-0.14824 0-0.30293-0.05405-0.34376-0.12011-0.0408-0.06606-0.26733-0.12011-0.50335-0.12011-0.34545 0-0.52978-0.10067-0.94547-0.51636-0.284-0.284-0.55556-0.67257-0.60348-0.86349-0.0788-0.3138-0.0179-0.41224 0.63425-1.0252 0.39675-0.37292 0.75696-0.81986 0.80046-0.9932 0.1071-0.42669 0.93069-0.97175 2.015-1.3335 4.7533-1.5859 13.835 0.1958 24.427 4.7925 6.9679 3.0238 12.139 5.6169 18.618 9.3352 2.1783 1.2503 3.6098 1.9859 4.9247 2.5306 0.45635 0.18906 0.87457 0.25075 1.7416 0.25688l1.1411 0.0081 1.0994-0.58648c0.82242-0.43872 1.1759-0.56729 1.4029-0.5103 0.67285 0.16888 0.87975 0.77113 0.44442 1.2937-0.22644 0.2718-0.2364 0.27335-0.24023 0.03733-0.01033-0.63635-0.53084-0.68246-1.7255-0.15285-0.70748 0.31363-1.0429 0.38784-1.8819 0.41639-0.56153 0.01911-1.2101-0.02175-1.4414-0.09079zm-50.208-15.325c0-0.02043-0.0465-0.03715-0.10321-0.03715-0.15172 0-1.218 0.96136-1.218 1.0982 0 0.06425 0.29728-0.13983 0.66062-0.45352 0.36335-0.31369 0.66063-0.58706 0.66063-0.60749zm1.2178-0.39349c0.16219-0.13511 0.21592-0.23794 0.12553-0.24023-0.22617-0.0057-0.6227 0.22389-0.6227 0.36057 0 0.18226 0.18879 0.13657 0.49717-0.12034zm5.196 9.6771c-0.34689-0.34689-0.40839-0.49217-0.40839-0.96477 0-1.7289 1.4362-2.7504 4.097-2.9141l1.1542-0.07103-0.16828-0.55342c-0.18471-0.60744-0.0856-1.275 0.29436-1.9829l0.19978-0.37222 0.0841 0.80873c0.16742 1.6103 0.83983 2.2444 3.2273 3.0435 1.3437 0.44972 1.3809 0.44608-1.1411 0.1116-2.354-0.31222-4.1006-0.35826-4.9847-0.13142-1.2696 0.32577-2.0706 1.1139-2.0903 2.0569-0.0142 0.67713 0.3144 1.0151 0.99257 1.0211 0.41039 0.0036 0.42286 0.01461 0.20396 0.18017-0.41734 0.31566-1.0063 0.22208-1.4604-0.23204zm-2.447-10.393c-0.27938-0.18315-0.13751-0.22252 1.0776-0.29906 1.0575-0.06661 1.1098-0.05967 0.71453 0.09464-0.59149 0.23092-1.5797 0.34364-1.7921 0.20442z"/>
 </g>
</svg>
