<?xml version="1.0" encoding="UTF-8" standalone="no"?>
<!-- Created with Inkscape (http://www.inkscape.org/) -->
<svg id="svg2" xmlns:rdf="http://www.w3.org/1999/02/22-rdf-syntax-ns#" xmlns="http://www.w3.org/2000/svg" height="45" width="67.5" version="1.1" xmlns:cc="http://creativecommons.org/ns#" xmlns:dc="http://purl.org/dc/elements/1.1/">
 <metadata id="metadata7">
  <rdf:RDF>
   <cc:Work rdf:about="">
    <dc:format>image/svg+xml</dc:format>
    <dc:type rdf:resource="http://purl.org/dc/dcmitype/StillImage"/>
    <dc:title/>
   </cc:Work>
  </rdf:RDF>
 </metadata>
 <g id="g13698">
  <rect id="rect2990" opacity="0" height="45" width="67.5" y="0" x="3.5527e-15"/>
  <path id="path13696" d="m51.333 25.558v-10.796h2.7585 2.7585v0.82844 0.82844l0.75654-0.75654c0.95762-0.95762 1.796-1.2602 3.492-1.2602 1.335 0 2.0609 0.19833 3.0387 0.83032 3.9939 2.5814 4.547 11.478 0.92428 14.867-1.8498 1.7304-4.8681 1.9303-6.8586 0.45426-0.31536-0.23386-0.68133-0.58994-0.81326-0.7913l-0.23987-0.36611-0.05997 3.4469-0.05997 3.4469-2.8485 0.03216-2.8485 0.03215v-10.796zm8.8374 1.1896c1.0022-0.37867 1.4859-1.4499 1.5683-3.4736 0.06417-1.5758-0.13442-2.6232-0.64359-3.3945-0.55637-0.84279-1.7601-1.1446-2.7578-0.69156-1.0144 0.46067-1.3988 1.4587-1.4132 3.6694-0.0145 2.2107 0.32282 3.1985 1.2945 3.791 0.41721 0.25441 1.4078 0.30477 1.9518 0.09923zm5.255 7.9826c-0.55826-0.29656-0.77393-0.6517-0.77691-1.2793-0.0022-0.463 0.05902-0.62216 0.35207-0.9152 0.73543-0.73543 1.878-0.5463 2.3332 0.38622 0.20807 0.42623 0.21362 0.51404 0.05997 0.94862-0.29756 0.84158-1.2332 1.2502-1.9684 0.85968zm1.4447-0.47353c0.66413-0.66413 0.14183-1.9844-0.78503-1.9844s-1.4492 1.3203-0.78503 1.9844c0.4091 0.4091 1.161 0.4091 1.5701 0zm-1.3847-0.78503v-0.83955h0.47118c0.72875 0 0.98222 0.40159 0.5816 0.92147-0.06969 0.09044-0.0362 0.25353 0.09238 0.44976 0.18129 0.27669 0.18242 0.30786 0.01111 0.30786-0.10484 0-0.27435-0.16191-0.37668-0.35981-0.10234-0.19789-0.26563-0.35981-0.36289-0.35981-0.11651 0-0.17682 0.12272-0.17682 0.35981 0 0.19789-0.05397 0.35981-0.11994 0.35981-0.06853 0-0.11994-0.35981-0.11994-0.83955zm0.93727-0.38979c0.03091-0.163-0.04255-0.20989-0.3288-0.20989-0.29259 0-0.3686 0.05111-0.3686 0.24784 0 0.19945 0.06419 0.24043 0.3288 0.20989 0.19831-0.02289 0.34459-0.12125 0.3686-0.24784zm-59.482-1.534c-2.1676-0.24032-3.6888-0.90491-4.9014-2.1413-1.5372-1.5674-2.0347-3.2327-2.0373-6.8193l-0.002-2.1888h3.1712 3.1712l0.0371 2.3088c0.0401 2.4969 0.1052 2.791 0.7178 3.2442 0.17649 0.13058 0.58127 0.26168 0.89952 0.29133 0.8052 0.07502 1.3427-0.29249 1.6228-1.1096 0.1846-0.53847 0.20515-1.3748 0.20988-8.5426l0.006-7.9457h3.5434 3.5434l-0.0387 8.3655c-0.0381 8.2226-0.0433 8.3819-0.30587 9.325-0.71458 2.5667-2.0645 4.0305-4.4035 4.775-1.308 0.41636-3.6547 0.61258-5.2332 0.43756zm17.346-0.164c-2.2805-0.44589-4.0261-1.5672-5.1509-3.3089-1.0956-1.6963-1.4434-3.1083-1.355-5.5002 0.0454-1.2283 0.12682-1.8452 0.32663-2.4756 0.91375-2.8826 2.9434-4.9023 5.5422-5.5149 1.0119-0.23855 3.2325-0.23408 4.3314 0.0087 3.7245 0.82292 5.7696 3.6905 6.0432 8.4737l0.0738 1.2902h-5.4887-5.4887l0.0828 0.44976c0.2092 1.1364 0.83949 2.0507 1.683 2.4412 0.94075 0.43555 2.4567 0.19587 3.1351-0.49567l0.34304-0.3497 2.6766-0.0034 2.6766-0.0034-0.0837 0.26986c-0.41982 1.3537-1.9943 3.1828-3.3515 3.8934-1.6 0.83784-4.1411 1.1873-5.9959 0.82465zm4.258-10.607c0-0.12208-0.0614-0.40543-0.1365-0.62966-0.42525-1.2701-1.6591-1.9541-3.0166-1.6722-0.81584 0.16937-1.4678 0.69983-1.8385 1.4959-0.50763 1.0902-0.65004 1.028 2.353 1.028 2.4877 0 2.6386-0.0127 2.6386-0.22197zm12.655 10.656c-3.297-0.5963-5.5758-2.6684-6.4438-5.8596-0.19258-0.70796-0.25084-1.2855-0.25583-2.5359-0.008-1.9574 0.1796-2.824 0.95747-4.427 0.97993-2.0194 2.7988-3.5018 4.9597-4.0423 1.2084-0.3022 3.8215-0.18126 5.1081 0.23641 3.0429 0.98778 4.7825 3.5449 5.2037 7.6489 0.0682 0.66498 0.12407 1.3652 0.12407 1.5562v0.3471h-5.4734-5.4734l0.0757 0.55246c0.096 0.70035 0.62261 1.6754 1.0932 2.024 1.0814 0.80116 2.811 0.68838 3.7901-0.24715l0.30885-0.29512 2.6677 0.03234 2.6677 0.03233-0.50831 1.0154c-0.92108 1.8399-2.6957 3.2271-4.8451 3.7873-0.86445 0.2253-3.1247 0.32506-3.9564 0.17462zm4.1364-10.533c0-0.054-0.081-0.37101-0.18005-0.70448-0.12896-0.43425-0.33116-0.7456-0.71252-1.0971-0.59811-0.55132-0.93743-0.6773-1.8081-0.67134-1.2235 0.0084-2.1332 0.73775-2.519 2.0198l-0.16593 0.55135h2.6928c1.481 0 2.6928-0.04418 2.6928-0.09817z"/>
 </g>
</svg>
