<?xml version="1.0" encoding="UTF-8" standalone="no"?>
<!-- Created with Inkscape (http://www.inkscape.org/) -->
<svg id="svg2" xmlns:rdf="http://www.w3.org/1999/02/22-rdf-syntax-ns#" xmlns="http://www.w3.org/2000/svg" height="45" width="67.5" version="1.1" xmlns:cc="http://creativecommons.org/ns#" xmlns:dc="http://purl.org/dc/elements/1.1/">
 <metadata id="metadata7">
  <rdf:RDF>
   <cc:Work rdf:about="">
    <dc:format>image/svg+xml</dc:format>
    <dc:type rdf:resource="http://purl.org/dc/dcmitype/StillImage"/>
    <dc:title/>
   </cc:Work>
  </rdf:RDF>
 </metadata>
 <g id="g13760">
  <rect id="rect2990" opacity="0" height="45" width="67.5" y="0" x="3.5527e-15"/>
  <path id="path13758" d="m16.959 44.791c-0.227-0.116-0.524-0.363-0.66-0.549-0.245-0.334-0.249-0.457-0.281-8.73-0.03173-8.2335-0.02773-8.4005 0.21162-8.8698 0.31916-0.62561 1.0436-1.0142 1.7212-0.92333 0.52791 0.07081 0.95491 0.34261 1.3323 0.84804 0.2444 0.32734 0.24742 0.43442 0.24742 8.7528 0 8.0768-0.0095 8.4369-0.22919 8.8001-0.47581 0.78617-1.5264 1.0872-2.3423 0.67114zm5.2697-0.0087c-0.26094-0.1366-0.52051-0.41855-0.69046-0.75001l-0.27232-0.53113 0.0323-8.3014c0.03183-8.1717 0.03612-8.3066 0.27974-8.6328 0.44346-0.59386 0.86318-0.82617 1.4926-0.82617 0.62944 0 1.0492 0.23232 1.4926 0.82617 0.24355 0.32616 0.24792 0.46107 0.27979 8.6394l0.0324 8.3081-0.27537 0.52074c-0.47352 0.89545-1.4814 1.213-2.3713 0.74715zm5.462 0.11228c-0.42109-0.18324-0.89551-0.75104-1.023-1.2243-0.08062-0.29933-0.11199-3.2936-0.09034-8.6154 0.03268-8.0247 0.03716-8.162 0.28066-8.4879 0.8649-1.1582 2.3167-1.1504 3.0003 0.01608l0.29237 0.49888v8.2715c0 7.8211-0.0121 8.2941-0.22218 8.6858-0.1222 0.22785-0.36118 0.51805-0.53107 0.6449-0.34049 0.25422-1.3268 0.37586-1.7068 0.21051zm5.0989-0.16341c-0.2182-0.1485-0.50969-0.42246-0.64776-0.60879-0.24907-0.33613-0.25104-0.40425-0.25104-8.7002 0-8.1456 0.0067-8.3719 0.24001-8.7688 0.53615-0.91024 1.5379-1.2071 2.3876-0.70748 0.96066 0.56491 0.91253 0.06948 0.91232 9.3932-0.000124 7.6454-0.01629 8.3141-0.21 8.6997-0.45848 0.91254-1.6211 1.2437-2.4311 0.69241zm5.3102 0.03065c-0.21511-0.13115-0.49841-0.41446-0.62957-0.62956-0.23194-0.38042-0.23847-0.62091-0.23891-8.8035l-0.000448-8.4124 0.2724-0.40776c0.56136-0.8403 1.6725-1.0482 2.4903-0.46589 0.737 0.52479 0.71745 0.26878 0.71696 9.3845-0.000486 8.0844-0.0076 8.3248-0.23891 8.7051-0.31969 0.52435-0.91386 0.86802-1.5007 0.86802-0.26776 0-0.65295-0.10544-0.87111-0.23846zm5.2801 0c-0.21511-0.13115-0.49841-0.41446-0.62957-0.62956-0.23194-0.38042-0.23846-0.62091-0.2389-8.8035l-0.000448-8.4124 0.27001-0.39556c0.32146-0.47096 0.96671-0.84003 1.4682-0.83977 0.52179 0.00024 1.1551 0.35692 1.4695 0.82758l0.2724 0.40776-0.000476 8.4124c-0.000486 8.1826-0.0076 8.4231-0.23891 8.8035-0.31969 0.52435-0.91386 0.86802-1.5007 0.86802-0.26776 0-0.65295-0.10544-0.87111-0.23846zm5.3797 0.02917c-0.22631-0.1154-0.52331-0.36225-0.66001-0.54856-0.24505-0.334-0.24898-0.4567-0.28028-8.7602-0.0303-8.0283-0.02125-8.441 0.19249-8.8414 0.32091-0.60103 1.0219-0.98342 1.683-0.91813 0.61076 0.06032 1.0601 0.35978 1.3963 0.93067 0.23381 0.39695 0.24 0.62329 0.24 8.7688 0 8.2959-0.0019 8.364-0.25103 8.7002-0.61665 0.83218-1.5003 1.0868-2.3205 0.66861zm-40.752-9.478c-1.4122-0.507-2.3944-1.369-3.0266-2.657-0.3005-0.613-0.3313-0.798-0.3316-1.995-0.0003-1.236 0.0241-1.372 0.3829-2.129 0.9489-2.004 3.0707-3.121 5.2239-2.752 2.1543 0.36943 3.7141 1.9589 4.0781 4.1559 0.33183 2.0025-0.83133 4.1629-2.7499 5.1074-0.6838 0.33664-0.95279 0.39918-1.8866 0.43866-0.83515 0.03531-1.2294-0.0042-1.6907-0.16975zm48.723 0.04658c-1.4166-0.46915-2.4892-1.4009-3.0897-2.6842-0.4722-1.0091-0.58693-2.3832-0.28553-3.42 0.26147-0.89942 1.0401-2.0295 1.765-2.5616 3.0083-2.2083 7.1793-0.52096 7.8105 3.1598 0.36489 2.1278-0.76515 4.2499-2.779 5.2186-0.66612 0.3204-0.94032 0.38097-1.8612 0.41112-0.66893 0.0219-1.2627-0.02516-1.56-0.12361zm-55.133-21.11-0.0085-14.25h32.161 32.161l-0.0029 14.25-0.0029 14.25-0.26691-0.78279c-0.36-1.054-0.913-1.884-1.828-2.74-0.894-0.836-1.946-1.388-3.119-1.635-1.272-0.268-52.539-0.271-53.814-0.003-2.1274 0.448-4.0569 2.047-4.7988 3.979-0.1485 0.386-0.3155 0.811-0.3711 0.943-0.0555 0.132-0.1047-6.171-0.1091-14.011zm46.793 3.9902v-2.1599l0.4869 0.47252c0.9609 0.93253 2.571 1.1026 3.8497 0.40666 0.73617-0.40067 1.1183-0.83726 1.5574-1.7795 1.1546-2.4774 0.50999-6.4067-1.2732-7.7609-1.2871-0.97747-3.1521-0.94264-4.2181 0.078777l-0.5227 0.50084v-0.51944-0.51944h-1.68-1.68v6.7201 6.7201h1.74 1.74v-2.1599zm1.0103-3.7322c-0.76025-0.21464-1.1169-0.9864-1.125-2.4341-0.0029-0.52035 0.05651-1.1522 0.13195-1.4041 0.40894-1.3649 2.0279-1.5404 2.6746-0.28989 0.3433 0.66381 0.35537 2.5282 0.02116 3.2705-0.33948 0.75405-0.96093 1.067-1.7028 0.8576zm4.3898 4.8488c-0.48796-0.1744-0.63136-0.85806-0.27-1.2873 0.20979-0.2492 0.20972-0.24922-0.06003-0.02085-0.47307 0.40053-0.24043 1.4096 0.3186 1.382 0.16213-0.008 0.16387-0.01931 0.01134-0.0738zm0.89322-0.18343c0.10274-0.14669 0.18254-0.40319 0.17734-0.57001-0.0101-0.32302-0.04498-0.26514-0.16362 0.2719-0.04174 0.18889-0.19037 0.382-0.3405 0.4424-0.19586 0.0788-0.2126 0.10921-0.06318 0.11481 0.11176 0.0042 0.28726-0.11241 0.39001-0.2591zm-0.74764-0.45331c0.07042 0 0.18793 0.08129 0.26121 0.18064 0.10653 0.14443 0.13579 0.09031 0.146-0.27 0.0076-0.24786-0.01039-0.35615-0.03878-0.24064-0.06156 0.25057-0.51399 0.28472-0.51399 0.0388 0-0.09417 0.09453-0.1959 0.21001-0.22608 0.15803-0.0413 0.14318-0.05833-0.06003-0.0688-0.24185-0.01247-0.26855 0.03926-0.25608 0.49609 0.0076 0.28051 0.03869 0.41551 0.0688 0.30001s0.11247-0.21 0.18285-0.21zm0.81445-0.52532c0-0.02492-0.09453-0.11942-0.21001-0.21-0.19032-0.14927-0.19456-0.14502-0.04526 0.0453 0.15676 0.19989 0.2553 0.26346 0.2553 0.1647zm-34.364-1.092c1.3907-0.47645 2.3936-1.7053 2.685-3.29 0.06632-0.36062 0.11888-2.8674 0.11888-5.6701v-5.0237h-2.16-2.16l-0.000724 4.8901c-0.000352 2.9949-0.04869 5.0631-0.12466 5.3366-0.22784 0.82037-1.1082 1.0828-1.758 0.52401-0.33226-0.28573-0.33726-0.31029-0.37883-1.863l-0.04212-1.5734-1.9379 0.03291-1.9379 0.03291 0.01801 1.529c0.02173 1.8405 0.28258 2.8471 0.96934 3.7393 0.48899 0.63531 1.3694 1.1981 2.2855 1.4609 0.81728 0.23445 3.6037 0.15545 4.4235-0.12541zm10.646-0.066c0.98157-0.36864 1.834-1.1033 2.3295-2.0077l0.4109-0.75002h-1.6255c-1.536 0-1.6498 0.01652-2.0676 0.30001-0.59705 0.40517-1.6578 0.42465-2.1475 0.03943-0.36271-0.2853-0.77434-1.0834-0.7785-1.5095l-0.0029-0.27h3.4322 3.4322l-0.087-0.87002c-0.369-3.6887-2.251-5.4385-5.608-5.2146-2.638 0.176-4.521 2.362-4.528 5.2586-0.0076 2.6538 1.4144 4.6206 3.7783 5.2281 0.87107 0.22384 2.5924 0.12245 3.4613-0.20387zm-3.8126-6.4445c0.24507-1.0905 1.3852-1.675 2.4262-1.2438 0.41236 0.1708 0.81805 0.7262 0.88419 1.2104l0.04097 0.30001-1.7131 0.03331-1.7131 0.03331 0.0749-0.33332zm13.65 6.6274c1.3614-0.3546 2.3508-1.072 2.9719-2.1549 0.19108-0.33313 0.34793-0.6462 0.34854-0.6957 0.0006-0.0495-0.72549-0.09-1.6136-0.09-1.5245 0-1.6394 0.01677-2.0568 0.30001-0.55614 0.37741-1.4851 0.41101-2.0382 0.07373-0.39834-0.2429-0.7733-0.90561-0.80854-1.429l-0.02182-0.32474 3.3901-0.03187 3.3901-0.03187v-0.5432c0-0.78612-0.33658-2.2975-0.66754-2.9976-0.789-1.669-2.3886-2.5783-4.5285-2.5742-1.4527 0.00276-2.6308 0.49988-3.5513 1.4986-1.9915 2.1605-1.8413 6.0953 0.30465 7.9794 1.1744 1.0312 3.2089 1.4569 4.8811 1.0213zm-3.1581-6.5707c0.0006-0.35915 0.39432-0.98864 0.77395-1.2374 0.41042-0.26892 1.3894-0.27641 1.7904-0.01369 0.39477 0.25866 0.65053 0.64726 0.74855 1.1373l0.07671 0.38374h-1.695c-1.6779 0-1.695-0.0028-1.6946-0.27001z"/>
 </g>
</svg>
