<?xml version="1.0" encoding="UTF-8" standalone="no"?>
<!-- Created with Inkscape (http://www.inkscape.org/) -->
<svg id="svg2" xmlns:rdf="http://www.w3.org/1999/02/22-rdf-syntax-ns#" xmlns="http://www.w3.org/2000/svg" height="45" width="67.5" version="1.1" xmlns:cc="http://creativecommons.org/ns#" xmlns:dc="http://purl.org/dc/elements/1.1/">
 <metadata id="metadata7">
  <rdf:RDF>
   <cc:Work rdf:about="">
    <dc:format>image/svg+xml</dc:format>
    <dc:type rdf:resource="http://purl.org/dc/dcmitype/StillImage"/>
    <dc:title/>
   </cc:Work>
  </rdf:RDF>
 </metadata>
 <g id="g13228">
  <rect id="rect2990" opacity="0" height="45" width="67.5" y="0" x="3.5527e-15"/>
  <g id="g13211">
   <path id="path17030" d="m8.2986 23.141h50.903c3.331 0 6.1012 2.3675 6.6889 5.4937v-28.635h-64.281v28.635c0.58806-3.1269 3.3583-5.4939 6.6892-5.4939z"/>
   <path id="path17032" d="m23.212 12.106c0 3.8865-1.79 5.3693-5.3693 5.3693-3.6309 0-5.2164-1.9948-5.2164-5.0624v-1.9436h3.9377v1.5855c0 1.0738 0 2.0965 1.1759 2.0965 1.1251 0 1.0738-1.3808 1.0738-1.9941v-9.0515h4.3978v9.0007h0.000372z" fill-rule="evenodd" clip-rule="evenodd" fill="#fff"/>
   <path id="path17034" d="m27.155 10.878c0.15325-1.0738 0.76701-1.6876 1.79-1.6876 0.92022 0 1.5848 0.76737 1.5848 1.6876h-3.3747zm6.8012 2.0457c0-3.9889-1.6364-6.2391-5.3185-6.2391-2.9659 0-4.9092 2.4037-4.9092 5.37 0 3.4257 2.2501 5.3693 5.2164 5.3693 2.1477 0 4.091-1.0226 4.8068-3.222h-3.324c-0.30686 0.46012-0.92057 0.7158-1.4827 0.7158-1.1254 0-1.7388-0.81822-1.8412-1.9941h6.8524z" fill-rule="evenodd" clip-rule="evenodd" fill="#fff"/>
   <path id="path17036" d="m37.64 10.878c0.15362-1.0738 0.76701-1.6876 1.79-1.6876 0.92064 0 1.5855 0.76737 1.5855 1.6876h-3.3755zm6.8016 2.0457c0-3.9889-1.6364-6.2391-5.3185-6.2391-2.9659 0-4.9092 2.4037-4.9092 5.37 0 3.4257 2.2498 5.3693 5.216 5.3693 2.0965 0 4.0913-1.0226 4.8071-3.222h-3.324c-0.30687 0.46012-0.92064 0.7158-1.4832 0.7158-1.1247 0-1.7388-0.81822-1.8409-1.9941h6.8524z" fill-rule="evenodd" clip-rule="evenodd" fill="#fff"/>
   <path id="path17038" d="m48.225 12.056c0-1.2275 0.25567-2.5062 1.534-2.5062s1.5852 1.2783 1.5852 2.5062c0 1.1759-0.30687 2.5055-1.5852 2.5055s-1.534-1.3295-1.534-2.5055zm-3.4264 8.3865h3.5284v-4.3982h0.05121c0.51132 0.86979 1.4832 1.3811 2.557 1.3811 3.1192 0 3.9377-2.9151 3.9377-5.3185 0-2.557-1.2271-5.4209-3.8865-5.4209-1.7388 0-2.3013 0.71616-2.7614 1.3808v-1.1253h-3.4264v13.501z" fill-rule="evenodd" clip-rule="evenodd" fill="#fff"/>
   <path id="path17040" d="m53.289 18.656c0-0.46012 0.3065-0.76701 0.7158-0.76701 0.40928 0 0.71616 0.30687 0.71616 0.76701 0 0.40891-0.30687 0.7158-0.71616 0.7158-0.40928 0-0.7158-0.30687-0.7158-0.7158zm-0.20446 0c0 0.46012 0.40892 0.869 0.92064 0.869 0.46049 0 0.86936-0.40892 0.86936-0.869 0-0.51133-0.40891-0.86908-0.86936-0.86908-0.51169-0.000364-0.92064 0.35772-0.92064 0.86908zm0.56254 0.51132h0.15325v-0.46012h0.20482l0.25567 0.46012h0.20482l-0.30687-0.46012c0.15325 0 0.25567-0.10204 0.25567-0.3065 0-0.15362-0.10241-0.25566-0.35808-0.25566h-0.4099v1.0223h-0.000364zm0.15325-0.92064h0.25566c0.10241 0 0.20483 0.05121 0.20483 0.15362 0 0.15325-0.15325 0.20446-0.25567 0.20446h-0.20482v-0.35807z" fill-rule="evenodd" clip-rule="evenodd" fill="#fff"/>
   <path id="path17042" d="m14.349 30.619c0 2.711-2.1975 4.9088-4.9084 4.9088-2.7114 0-4.9088-2.1978-4.9088-4.9088s2.1975-4.9088 4.9088-4.9088c2.711 0 4.9084 2.1978 4.9084 4.9088z"/>
   <path id="path17044" d="m62.966 30.619c0 2.711-2.1978 4.9088-4.9088 4.9088s-4.9088-2.1978-4.9088-4.9088 2.1978-4.9088 4.9088-4.9088 4.9088 2.1978 4.9088 4.9088z"/>
   <path id="path17046" d="m19.491 43.247c0 0.96814-0.78494 1.7531-1.7531 1.7531-0.96814 0-1.7531-0.78494-1.7531-1.7531v-15.778c0-0.96814 0.78494-1.7531 1.7531-1.7531 0.96814 0 1.7531 0.78494 1.7531 1.7531v15.779z"/>
   <path id="path17048" d="m45.982 43.247c0 0.96814-0.78494 1.7531-1.7531 1.7531-0.96814 0-1.7531-0.78494-1.7531-1.7531v-15.778c0-0.96814 0.78494-1.7531 1.7531-1.7531 0.96814 0 1.7531 0.78494 1.7531 1.7531v15.779z"/>
   <path id="path17050" d="m40.682 43.247c0 0.96814-0.78494 1.7531-1.7531 1.7531-0.96814 0-1.7531-0.78494-1.7531-1.7531v-15.778c0-0.96814 0.78494-1.7531 1.7531-1.7531 0.96814 0 1.7531 0.78494 1.7531 1.7531v15.779z"/>
   <path id="path17052" d="m35.39 43.247c0 0.96814-0.78494 1.7531-1.7531 1.7531-0.96814 0-1.7531-0.78494-1.7531-1.7531v-15.778c0-0.96814 0.78494-1.7531 1.7531-1.7531 0.96814 0 1.7531 0.78494 1.7531 1.7531v15.779z"/>
   <path id="path17054" d="m30.09 43.247c0 0.96814-0.78494 1.7531-1.7531 1.7531-0.96814 0-1.7531-0.78494-1.7531-1.7531v-15.778c0-0.96814 0.78494-1.7531 1.7531-1.7531 0.96814 0 1.7531 0.78494 1.7531 1.7531v15.779z"/>
   <path id="path17056" d="m24.791 43.247c0 0.96814-0.78494 1.7531-1.7531 1.7531-0.96814 0-1.7531-0.78494-1.7531-1.7531v-15.778c0-0.96814 0.78494-1.7531 1.7531-1.7531 0.96814 0 1.7531 0.78494 1.7531 1.7531v15.779z"/>
   <path id="path17058" d="m51.282 43.247c0 0.96814-0.78494 1.7531-1.7531 1.7531-0.96814 0-1.7534-0.78494-1.7534-1.7531v-15.778c0-0.96814 0.78494-1.7531 1.7534-1.7531 0.96814 0 1.7531 0.78494 1.7531 1.7531v15.779z"/>
  </g>
 </g>
</svg>
