<?xml version="1.0" encoding="UTF-8" standalone="no"?>
<!-- Created with Inkscape (http://www.inkscape.org/) -->
<svg id="svg2" xmlns:rdf="http://www.w3.org/1999/02/22-rdf-syntax-ns#" xmlns="http://www.w3.org/2000/svg" height="54" width="99" version="1.1" xmlns:cc="http://creativecommons.org/ns#" xmlns:dc="http://purl.org/dc/elements/1.1/">
 <metadata id="metadata7">
  <rdf:RDF>
   <cc:Work rdf:about="">
    <dc:format>image/svg+xml</dc:format>
    <dc:type rdf:resource="http://purl.org/dc/dcmitype/StillImage"/>
    <dc:title/>
   </cc:Work>
  </rdf:RDF>
 </metadata>
 <g id="g3305">
  <g id="g3345">
   <g id="g3722">
    <g id="g3757">
     <g id="g3952">
      <g id="g4047">
       <g id="g4079">
        <g id="g4116">
         <g id="g4159">
          <g id="g4184">
           <g id="g4225">
            <g id="g4264">
             <g id="g4289">
              <g id="g4304">
               <g id="g4413">
                <g id="g4448">
                 <g id="g4472">
                  <g id="g4680">
                   <g id="g4737">
                    <g id="g4823">
                     <g id="g4901">
                      <g id="g4966">
                       <g id="g5048">
                        <g id="g5083">
                         <g id="g5131">
                          <g id="g5004">
                           <rect id="rect2990" opacity="0" height="54" width="99" y="0" x="0"/>
                          </g>
                          <g id="g3823" transform="matrix(0.7142313,0,0,0.7142313,17.358592,4.5002142)">
                           <path id="path17030" d="m9.3662,32.4h71.27c4.6637,0,8.5423,3.3148,9.3652,7.6917v-40.092h-90v40.092c0.82334-4.378,4.702-7.692,9.3656-7.692z"/>
                           <path id="path17032" d="m30.246,16.95c0,5.4415-2.5062,7.5176-7.5176,7.5176-5.0836,0-7.3035-2.793-7.3035-7.0879v-2.7213h5.5132v2.2199c0,1.5035,0,2.9353,1.6464,2.9353,1.5752,0,1.5035-1.9332,1.5035-2.792v-12.673h6.1574v12.602h0.00052z" fill-rule="evenodd" clip-rule="evenodd" fill="#FFF"/>
                           <path id="path17034" d="m35.766,15.23c0.21457-1.5035,1.0739-2.3628,2.5062-2.3628,1.2884,0,2.2189,1.0744,2.2189,2.3628h-4.725zm9.5224,2.8642c0-5.5849-2.2911-8.7354-7.4464-8.7354-4.1526,0-6.8734,3.3655-6.8734,7.5186,0,4.7963,3.1504,7.5176,7.3035,7.5176,3.007,0,5.7278-1.4318,6.73-4.5111h-4.6539c-0.42964,0.64422-1.2889,1.0022-2.076,1.0022-1.5757,0-2.4345-1.1456-2.5779-2.792h9.5941z" fill-rule="evenodd" clip-rule="evenodd" fill="#FFF"/>
                           <path id="path17036" d="m50.446,15.23c0.21508-1.5035,1.0739-2.3628,2.5062-2.3628,1.289,0,2.2199,1.0744,2.2199,2.3628h-4.726zm9.523,2.8642c0-5.5849-2.2911-8.7354-7.4464-8.7354-4.1526,0-6.8734,3.3655-6.8734,7.5186,0,4.7963,3.1499,7.5176,7.303,7.5176,2.9353,0,5.7283-1.4318,6.7305-4.5111h-4.6539c-0.42965,0.64422-1.289,1.0022-2.0766,1.0022-1.5747,0-2.4345-1.1456-2.5774-2.792h9.5941z" fill-rule="evenodd" clip-rule="evenodd" fill="#FFF"/>
                           <path id="path17038" d="m65.266,16.88c0-1.7186,0.35796-3.5089,2.1477-3.5089,1.7898,0,2.2194,1.7898,2.2194,3.5089,0,1.6464-0.42965,3.5079-2.2194,3.5079s-2.1477-1.8615-2.1477-3.5079zm-4.7973,11.742h4.9402v-6.158h0.0717c0.71591,1.2178,2.0766,1.9337,3.5801,1.9337,4.3672,0,5.5132-4.0814,5.5132-7.4464,0-3.5801-1.7181-7.5898-5.4415-7.5898-2.4345,0-3.2221,1.0027-3.8663,1.9332v-1.5755h-4.7973v18.903z" fill-rule="evenodd" clip-rule="evenodd" fill="#FFF"/>
                           <path id="path17040" d="m72.356,26.12c0-0.64422,0.42914-1.0739,1.0022-1.0739,0.57303,0,1.0027,0.42965,1.0027,1.0739,0,0.57252-0.42965,1.0022-1.0027,1.0022-0.57304,0-1.0022-0.42965-1.0022-1.0022zm-0.28626,0c0,0.64421,0.57253,1.2167,1.289,1.2167,0.64473,0,1.2172-0.57253,1.2172-1.2167,0-0.71591-0.57252-1.2168-1.2172-1.2168-0.71642-0.00051-1.289,0.50084-1.289,1.2168zm0.78761,0.71591h0.21457v-0.64422h0.28677l0.35796,0.64422h0.28677l-0.42965-0.64422c0.21457,0,0.35796-0.14287,0.35796-0.42914,0-0.21508-0.14339-0.35795-0.50135-0.35795h-0.5739v1.4313h-0.00051zm0.21457-1.289h0.35795c0.14339,0,0.28678,0.0717,0.28678,0.21508,0,0.21457-0.21457,0.28626-0.35796,0.28626h-0.28677v-0.50134z" fill-rule="evenodd" clip-rule="evenodd" fill="#FFF"/>
                           <path id="path17042" d="m17.836,42.87c0,3.7957-3.0767,6.8729-6.8723,6.8729-3.7962,0-6.8728-3.0772-6.8728-6.8729s3.0767-6.8728,6.8728-6.8728c3.7957,0,6.8723,3.0772,6.8723,6.8728z"/>
                           <path id="path17044" d="m85.906,42.87c0,3.7957-3.0772,6.8729-6.8728,6.8729-3.7957,0-6.8728-3.0772-6.8728-6.8729s3.0772-6.8728,6.8728-6.8728c3.7957,0,6.8728,3.0772,6.8728,6.8728z"/>
                           <path id="path17046" d="m25.036,60.55c0,1.3555-1.099,2.4545-2.4545,2.4545s-2.4545-1.099-2.4545-2.4545v-22.091c0-1.3555,1.099-2.4545,2.4545-2.4545s2.4545,1.099,2.4545,2.4545v22.092z"/>
                           <path id="path17048" d="m62.126,60.55c0,1.3555-1.099,2.4545-2.4545,2.4545s-2.4545-1.099-2.4545-2.4545v-22.091c0-1.3555,1.099-2.4545,2.4545-2.4545s2.4545,1.099,2.4545,2.4545v22.092z"/>
                           <path id="path17050" d="m54.706,60.55c0,1.3555-1.099,2.4545-2.4545,2.4545s-2.4545-1.099-2.4545-2.4545v-22.091c0-1.3555,1.099-2.4545,2.4545-2.4545s2.4545,1.099,2.4545,2.4545v22.092z"/>
                           <path id="path17052" d="m47.296,60.55c0,1.3555-1.099,2.4545-2.4545,2.4545s-2.4545-1.099-2.4545-2.4545v-22.091c0-1.3555,1.099-2.4545,2.4545-2.4545s2.4545,1.099,2.4545,2.4545v22.092z"/>
                           <path id="path17054" d="m39.876,60.55c0,1.3555-1.099,2.4545-2.4545,2.4545s-2.4545-1.099-2.4545-2.4545v-22.091c0-1.3555,1.099-2.4545,2.4545-2.4545s2.4545,1.099,2.4545,2.4545v22.092z"/>
                           <path id="path17056" d="m32.456,60.55c0,1.3555-1.099,2.4545-2.4545,2.4545s-2.4545-1.099-2.4545-2.4545v-22.091c0-1.3555,1.099-2.4545,2.4545-2.4545s2.4545,1.099,2.4545,2.4545v22.092z"/>
                           <path id="path17058" d="m69.546,60.55c0,1.3555-1.099,2.4545-2.4545,2.4545s-2.455-1.099-2.455-2.4545v-22.091c0-1.3555,1.099-2.4545,2.455-2.4545,1.3555,0,2.4545,1.099,2.4545,2.4545v22.092z"/>
                          </g>
                         </g>
                        </g>
                       </g>
                      </g>
                     </g>
                    </g>
                   </g>
                  </g>
                 </g>
                </g>
               </g>
              </g>
             </g>
            </g>
           </g>
          </g>
         </g>
        </g>
       </g>
      </g>
     </g>
    </g>
   </g>
  </g>
 </g>
</svg>
