<?xml version="1.0" encoding="UTF-8" standalone="no"?>
<!-- Created with Inkscape (http://www.inkscape.org/) -->
<svg id="svg2" xmlns:rdf="http://www.w3.org/1999/02/22-rdf-syntax-ns#" xmlns="http://www.w3.org/2000/svg" height="45" width="67.5" version="1.1" xmlns:cc="http://creativecommons.org/ns#" xmlns:dc="http://purl.org/dc/elements/1.1/">
 <metadata id="metadata7">
  <rdf:RDF>
   <cc:Work rdf:about="">
    <dc:format>image/svg+xml</dc:format>
    <dc:type rdf:resource="http://purl.org/dc/dcmitype/StillImage"/>
    <dc:title/>
   </cc:Work>
  </rdf:RDF>
 </metadata>
 <g id="g12199">
  <rect id="rect2990" opacity="0" height="45" width="67.5" y="0" x="3.5527e-15"/>
  <path id="path12197" d="m30.433 43.098c-2.03-0.25422-3.412-1.0614-4.0095-2.3418-0.27003-0.57864-0.28009-0.70854-0.28122-3.6306l-0.0008-3.0305h1.7907 1.7906l0.0397 2.7961c0.0443 3.1214 0.0883 3.302 0.88531 3.6351 0.57869 0.24179 1.9354 0.21955 2.4533-0.04022 0.68434-0.34323 0.71807-0.51191 0.72003-3.6005l0.002-2.7905h1.8003 1.8003v3.097c0 3.088-0.0008 3.0988-0.30949 3.718-0.48004 0.96331-1.4118 1.5901-2.965 1.9947-0.8764 0.22827-2.6848 0.32231-3.7156 0.19322zm13.291-0.007c-3.2678-0.51287-5.3443-2.2678-5.374-4.5417-0.0139-1.0689 0.28562-1.9084 0.94133-2.6377 1.2043-1.3395 2.6634-1.9246 5.087-2.0398l1.6145-0.07681-1.2244-1.4015c-0.67343-0.77081-1.2244-1.4324-1.2244-1.4703 0-0.03784 0.91488-0.0688 2.0331-0.0688h2.0331l1.9304 2.4304c2.3466 2.9545 2.5594 3.3461 2.6219 4.8241 0.038 0.90063 0.00096 1.2062-0.21623 1.7827-0.52361 1.3896-2.0959 2.5484-4.1016 3.0229-0.96601 0.2285-3.1838 0.32347-4.1205 0.17645zm3.3006-2.7466c2.1063-1.0715 2.077-3.0195-0.06-3.9881-0.8673-0.39312-2.5123-0.39531-3.3606-0.0045-1.0447 0.48133-1.6203 1.1953-1.6203 2.0098 0 0.94508 0.65121 1.6951 1.8402 2.1193 0.8756 0.31242 2.4501 0.24524 3.2007-0.13657zm-35.22-2.616c1.894-2.8235 3.4707-5.2037 3.5038-5.2893 0.033-0.08556-0.18968-0.47713-0.4949-0.87016l-0.55494-0.7146h2.2856 2.2856l3.8754 5.851c2.1314 3.2181 3.9146 5.9186 3.9625 6.0011 0.0683 0.1176-0.36193 0.15003-1.9906 0.15003h-2.0777l-0.58471-0.96017-0.58472-0.96017h-3.861-3.861l-0.54247 0.93017-0.54247 0.93017-2.131 0.03281-2.131 0.03281 3.4437-5.1337zm7.9747 0.63418c0-0.04604-2.251-3.6682-2.3383-3.7628-0.0239-0.02587-1.7349 2.8878-2.188 3.7259-0.0268 0.04951 0.98071 0.09002 2.2388 0.09002s2.2875-0.02392 2.2875-0.05315zm33.274 0.14316 0.0315-4.3508 1.8303-0.03313 1.8303-0.03313v4.3839 4.3839h-1.8618-1.8618l0.0315-4.3508zm-43.476-12.983c-2.541-0.53211-5.0687-1.9908-6.6429-3.8333-2.0814-2.4363-3.0537-5.2352-2.924-8.4167 0.0943-2.3131 0.74533-4.3158 2.0168-6.204 0.69047-1.0254 2.2584-2.5659 3.3272-3.269 4.0017-2.6325 9.2403-2.5941 13.236 0.0971l0.61348 0.41315 0.83634-0.54103c3.9979-2.5862 9.2924-2.5439 13.153 0.10519l0.5122 0.35146 0.86805-0.54082c1.7064-1.0631 3.5237-1.6574 5.5544-1.8162 2.5202-0.19716 5.5094 0.61964 7.5267 2.0567l0.5709 0.4067 0.70693-0.48255c1.0007-0.68307 2.3751-1.2908 3.718-1.644 1.4526-0.38205 3.9826-0.43693 5.3843-0.11679 9.1601 2.092 12.579 13.119 6.1731 19.909-1.4534 1.5406-3.2486 2.6433-5.3621 3.2936-1.0147 0.31219-1.2148 0.33233-3.3006 0.33233-2.0748 0-2.2896-0.02133-3.2752-0.32524-1.1424-0.35227-2.4269-0.95681-3.4007-1.6005l-0.61479-0.4064-1.0361 0.65046c-1.165 0.73141-2.5817 1.2856-4.044 1.5819-1.378 0.27922-4.1198 0.18543-5.3924-0.18445-1.0629-0.30893-2.6434-1.03-3.403-1.5527-0.29751-0.20469-0.57785-0.37216-0.62299-0.37216-0.0451 0-0.46748 0.2383-0.93855 0.52956-1.003 0.62018-1.9771 1.0417-3.279 1.419-0.81557 0.23635-1.2123 0.27184-3.0384 0.27184-1.8319 0-2.2215-0.03509-3.0479-0.27446-1.1622-0.33662-2.5301-0.95914-3.5111-1.5979l-0.73803-0.48052-0.80711 0.5413c-0.90614 0.60772-2.2243 1.1933-3.4779 1.545-1.0958 0.30743-4.184 0.39672-5.341 0.15443zm4.3481-1.3181c1.6835-0.3221 3.556-1.2246 4.952-2.3868l0.35849-0.29845 0.57354 0.48019c1.2955 1.0846 3.2517 1.9602 5.0648 2.267 1.1412 0.19306 3.3663 0.07008 4.4851-0.24787 1.3404-0.38094 3.1441-1.3434 4.0033-2.1361l0.32112-0.29628 0.70749 0.5444c2.123 1.6336 4.4249 2.3457 7.1431 2.2098 2.2278-0.11145 4.2352-0.85617 5.9143-2.1942l0.79627-0.63453 0.73979 0.60052c1.09 0.88483 2.9243 1.7443 4.3574 2.0416 1.5043 0.31213 3.7049 0.25393 5.0625-0.1339 3.8007-1.0858 6.738-4.2567 7.5413-8.141 0.2365-1.1436 0.16264-3.7979-0.13597-4.8867-0.77885-2.8398-2.9418-5.4226-5.6251-6.717-2.0045-0.96692-3.5849-1.2176-6.47-1.026-2.7665 0.18365-3.5619 0.36692-4.5904 1.0576-0.82162 0.55184-0.84094 0.57664-0.87634 1.1249l-0.0362 0.56061-0.78762-0.59614c-0.43318-0.32788-1.2-0.80342-1.7041-1.0568-2.0342-1.0224-3.6749-1.2833-6.8583-1.0908-2.6432 0.15986-3.2657 0.30464-4.3176 1.0041-0.79923 0.53145-0.83048 0.57062-0.86587 1.0855l-0.0367 0.53418-0.71632-0.5425c-1.0246-0.77596-2.4507-1.4575-3.7768-1.8049-1.5105-0.3957-3.8281-0.40956-6.3544-0.03799-1.7709 0.26046-2.1031 0.37187-2.9849 1.0009-0.47949 0.34204-0.51009 0.39864-0.51009 0.94363 0 0.60644-0.10133 0.71148-0.37187 0.3855-0.25736-0.3101-1.8763-1.365-2.5565-1.6658-1.9295-0.85333-3.6187-1.0909-6.4292-0.90437-2.6726 0.17741-3.4369 0.35618-4.4612 1.0434-2.6524 1.7796-4.5324 4.8248-4.9525 8.0221l-0.0789 0.60011 0.28558-0.67902c0.30872-0.736 0.86562-1.734 1.0196-1.829 0.0526-0.03247-0.0102 0.32931-0.13927 0.80394-0.35067 1.2889-0.34743 3.8812 0.006 5.1837 1.1099 4.0853 4.3252 7.0962 8.376 7.8438 0.93207 0.17202 2.9465 0.15538 3.9281-0.03243zm-3.5809-0.55226c-1.1269-0.205-2.4981-0.707-3.4671-1.272-1.2712-0.74055-2.9346-2.4147-3.624-3.6474-1.6885-3.0192-1.7398-6.5989-0.13766-9.5972 2.3802-4.4544 7.5948-6.4141 12.347-4.6404 1.0386 0.38765 2.4641 1.247 2.9783 1.7955l0.282 0.30081-0.57057-0.02046-0.57056-0.02046-0.57998 0.84015c-0.91803 1.3299-1.6746 3.3394-1.8462 4.9033l-0.0678 0.6177 0.29298-0.68016c0.34276-0.79579 1.0584-2.1598 1.1074-2.1108 0.0186 0.01863-0.0795 0.41116-0.2179 0.8723-0.35004 1.1657-0.3769 4.1549-0.0485 5.3992 0.30954 1.1729 1.1251 2.8535 1.8442 3.8 0.57055 0.75106 0.59177 0.80369 0.35016 0.86852-0.14145 0.03795-0.38662 0.06975-0.54481 0.07064-0.1582 0.00096-0.57746 0.19401-0.93167 0.42913-0.76642 0.50872-1.5215 0.85793-2.5014 1.1568l-0.72013 0.21965 1.2002-0.05643c1.1537-0.05425 1.1839-0.04938 0.78014 0.1256-1.3788 0.59747-3.9235 0.90414-5.3538 0.6452zm4.0936-1.4371c0.9012-0.28254 2.4604-1.0651 2.4604-1.2348 0-0.05673-0.16747-0.34656-0.37217-0.64407-0.53413-0.77634-1.2491-2.3534-1.5709-3.4652-0.24267-0.83834-0.27731-1.2203-0.27731-3.0584 0-1.8262 0.0355-2.2228 0.27184-3.0384 0.36867-1.2721 0.78087-2.2225 1.4223-3.2792 0.29612-0.48782 0.51263-0.92866 0.48112-0.97965-0.1406-0.22748-1.9362-1.0112-2.841-1.24-0.82911-0.20967-1.2391-0.24237-2.4456-0.19505-2.4553 0.0963-4.1685 0.82935-5.8294 2.4943-2.7418 2.7485-3.384 6.624-1.68 10.139 1.1778 2.4294 3.4429 4.1468 6.2489 4.7381 0.90855 0.19144 3.1821 0.06142 4.1317-0.23629zm10.602 1.4447c-1.8655-0.34228-3.7414-1.2575-5.1776-2.5262-0.0534-0.04713 0.1996-0.49908 0.56212-1.0044 2.7846-3.8811 2.7745-9.0289-0.0249-12.714-0.34112-0.44908-0.62023-0.85655-0.62023-0.9055 0-0.12762 1.0177-0.88318 1.8603-1.3811 0.39607-0.23405 1.2332-0.60213 1.8603-0.81796 1.0868-0.37405 1.2245-0.39259 2.9405-0.39607 1.5201-0.0031 1.9459 0.03853 2.7355 0.26739 1.1734 0.34011 2.3201 0.91464 3.3256 1.6663l0.78014 0.58315-0.62434 0.03608c-0.59133 0.03417-0.64576 0.06591-1.0292 0.60011-1.1228 1.5643-1.8445 3.3975-2.0646 5.2449l-0.0715 0.60011 0.28594-0.66012c0.42091-0.97168 1.1719-2.4319 1.2239-2.3799 0.0248 0.02483-0.0547 0.34754-0.17654 0.71714-1.0585 3.2085-0.32715 7.1649 1.8135 9.8104l0.57011 0.70459-0.5637 0.05533c-0.37337 0.03665-0.78862 0.19977-1.2299 0.48315-0.77957 0.50059-1.3429 0.75856-2.3343 1.0689l-0.72013 0.22545 0.96017-0.06344c0.52809-0.03489 1.0952-0.09248 1.2602-0.12798 0.70054-0.15069-0.66709 0.45537-1.5382 0.68165-1.0333 0.26841-3.1396 0.39054-4.0031 0.23212zm3.2666-1.2564c0.86683-0.18376 2.4157-0.79906 2.8584-1.1355l0.28366-0.21557-0.43496-0.60543c-0.60338-0.83986-1.323-2.4207-1.6542-3.6338-0.24424-0.89465-0.27738-1.2786-0.26933-3.1206 0.008-1.9202 0.0367-2.1908 0.33046-3.1538 0.33925-1.1123 1.1737-2.8709 1.6869-3.5553 0.16826-0.22439 0.27669-0.45528 0.24097-0.51308-0.13976-0.22614-1.8017-0.9681-2.6605-1.1877-1.1512-0.29442-3.1106-0.31134-4.2202-0.03646-0.87221 0.21608-2.106 0.73903-2.639 1.1186l-0.34595 0.24634 0.5256 0.80024c0.61256 0.93263 1.1624 2.2003 1.518 3.4997 0.37457 1.3688 0.37307 4.2191-0.003 5.7149-0.2885 1.1474-1.0831 2.9459-1.6936 3.8333l-0.37338 0.5427 0.51172 0.29963c1.9412 1.1366 4.2672 1.541 6.3384 1.1019zm10.856 1.1988c-1.0605-0.21085-2.0346-0.55406-2.9136-1.0265-0.8486-0.45613-1.8178-1.1574-1.9017-1.376-0.0345-0.08988 0.21517-0.50602 0.55482-0.92476 1.1765-1.4504 2.0069-3.6021 2.2162-5.7422 0.0932-0.953-0.11645-2.7796-0.44043-3.8372-0.33432-1.0913-1.18-2.6871-1.8847-3.5563l-0.59364-0.73231 0.56526-0.43106c0.99861-0.76156 1.8992-1.2417 3.1025-1.6538 1.125-0.38536 1.2521-0.40274 2.9755-0.40687 2.0111-0.0048 2.993 0.19777 4.4167 0.91125 0.81055 0.4062 2.0942 1.2792 2.3705 1.6121 0.16198 0.19517 0.13621 0.20338-0.39051 0.12439l-0.56394-0.08457-0.42916 0.57658c-0.97977 1.3163-2.1105 4.2689-2.0997 5.4828 0.002 0.31212 0.0615 0.23166 0.35133-0.48182 0.32672-0.80411 1.0575-2.204 1.1506-2.204 0.0231 0-0.0559 0.28498-0.17579 0.63329-0.58565 1.7022-0.64338 4.4288-0.13138 6.2065 0.34648 1.203 1.115 2.7256 1.8128 3.5916 0.53893 0.6688 0.55598 0.71159 0.30998 0.77758-0.14318 0.03841-0.39159 0.07056-0.55201 0.07147-0.16043 0.00096-0.64342 0.23118-1.0733 0.51173-0.42989 0.28055-1.2978 0.68931-1.9287 0.90835l-1.1471 0.39826 0.96017-0.07c0.52809-0.0385 1.0952-0.09905 1.2602-0.13454 0.22084-0.04751 0.17914 0.0023-0.15796 0.18878-1.2045 0.66619-4.0077 0.99654-5.6631 0.66741zm3.5304-1.206c1.0004-0.21044 2.4607-0.80176 2.9567-1.1973 0.32896-0.2623 0.33984-0.2964 0.16053-0.5033-0.10579-0.12206-0.38101-0.54868-0.61162-0.94804-2.2262-3.8554-2.1122-8.7043 0.29164-12.396 0.56198-0.86316 0.61398-0.75349-0.67033-1.4136-1.1984-0.61593-2.3888-0.88669-3.8985-0.88669-1.7248 0-3.224 0.39967-4.5324 1.2083l-0.39695 0.24533 0.40131 0.56341c0.57981 0.81401 1.1934 2.0939 1.558 3.2501 1.0325 3.2738 0.51336 7.02-1.3734 9.9103l-0.57787 0.88519 0.80112 0.41542c1.8903 0.98023 3.9284 1.2802 5.8918 0.8672zm11.392 1.2635c-0.99925-0.18334-1.9253-0.49558-2.8523-0.96174-0.88018-0.4426-2.4116-1.5024-2.4051-1.6644 0.002-0.04391 0.24914-0.4039 0.54975-0.79997 0.76152-1.0034 1.5513-2.6821 1.8633-3.9607 0.36047-1.4772 0.35892-3.6681-0.004-5.0409-0.33042-1.2512-1.1384-2.9144-1.9107-3.9331l-0.61604-0.81258 0.72272-0.53203c1.1021-0.81129 1.8681-1.2129 3.1145-1.633 2.7132-0.91433 5.9424-0.4887 8.4145 1.1091 3.2671 2.1116 5.0447 6.0865 4.4296 9.9049-0.14633 0.90836-0.81575 2.9867-0.92637 2.876-0.03004-0.03004 0.0031-0.36688 0.07366-0.74853 0.07055-0.38165 0.12755-0.91353 0.12667-1.182-0.0015-0.45676-0.02348-0.42521-0.34282 0.49216-0.56795 1.6316-1.5564 3.0803-2.8056 4.1122-0.80826 0.66765-2.5399 1.5916-3.5112 1.8735l-0.60011 0.17417 1.1402-0.04774 1.1402-0.04774-0.5401 0.23651c-0.29705 0.13008-0.86415 0.31536-1.2602 0.41173-0.88276 0.21479-3.0405 0.3136-3.801 0.17407zm3.1709-0.68507c-0.0825-0.03329-0.21754-0.03329-0.30006 0-0.0825 0.03329-0.015 0.06054 0.15003 0.06054s0.23254-0.02725 0.15003-0.06054zm0.0787-0.57825c3.0846-0.64887 5.5689-2.8698 6.5811-5.8834 0.28968-0.86254 0.32293-1.1371 0.32699-2.7005 0.0039-1.5116-0.03233-1.8507-0.27586-2.5805-0.51176-1.5335-1.0723-2.4377-2.2375-3.609-1.784-1.7935-3.6503-2.5721-6.1652-2.5721-1.5111 0-2.4786 0.21489-3.7992 0.84383-1.4027 0.66806-1.3527 0.59881-0.90358 1.2516 0.623 0.90551 1.4163 2.696 1.6795 3.7909 0.78145 3.2505 0.1616 6.7886-1.6602 9.4765-0.43343 0.63946-0.42907 0.64653 0.76432 1.2407 0.74948 0.37315 1.7078 0.68321 2.5805 0.83486 0.6955 0.12087 2.3246 0.07224 3.1092-0.09282zm7.4121-7.0536c-0.03329-0.08251-0.06054-0.015-0.06054 0.15003s0.02725 0.23254 0.06054 0.15003c0.03329-0.08252 0.03329-0.21754 0-0.30005zm-31.68 4.5308c-0.73479-0.92004-1.456-2.3762-1.7833-3.6006-0.19524-0.7303-0.25789-1.3193-0.2617-2.4604-0.006-1.7867 0.191-2.6851 0.93409-4.2608 0.47268-1.0023 1.5331-2.5805 1.7338-2.5805 0.2839 0 1.2925 1.4364 1.8756 2.6712 0.68721 1.4551 0.83762 2.208 0.83314 4.17-0.004 1.8708-0.15517 2.6812-0.72167 3.876l-0.29625 0.62483 0.0635-0.51771c0.0349-0.28474 0.0934-0.85184 0.12989-1.2602l0.0664-0.74252-0.35185 0.98021c-0.35298 0.98341-0.79176 1.8289-1.2976 2.5004-0.14917 0.19804-0.28873 0.5761-0.31011 0.84015l-0.0389 0.48009-0.57513-0.72013zm1.2999-2.1737c0.64773-1.282 0.89555-2.3655 0.89555-3.9154 0-1.5535-0.2832-2.7375-0.97107-4.0597-0.58086-1.1165-0.60355-1.1135-1.2247 0.16037-0.67571 1.3858-0.85741 2.2168-0.85871 3.9273-0.0008 1.2331 0.0485 1.6605 0.27748 2.4004 0.33443 1.0806 1.0786 2.5453 1.2638 2.4877 0.0731-0.02273 0.35102-0.47306 0.6176-1.0007zm13.232 2.0707c-0.6567-0.86451-1.4228-2.4404-1.7294-3.5577-0.15566-0.56707-0.21474-1.2227-0.21634-2.4004-0.002-1.8462 0.22883-2.9035 0.95844-4.3808 0.41101-0.83216 1.3914-2.2451 1.6087-2.3185 0.18239-0.06162 1.1996 1.3993 1.698 2.4385 0.25323 0.52809 0.54903 1.2842 0.65734 1.6803 0.29148 1.0659 0.3546 3.3939 0.12182 4.4934-0.18713 0.88382-0.7863 2.5742-0.87943 2.4811-0.0266-0.02656 0.005-0.36446 0.0703-0.75088s0.14923-1.0266 0.18664-1.4227l0.068-0.72013-0.221 0.7956c-0.26299 0.94682-0.82436 2.1794-1.3221 2.9028-0.22035 0.32027-0.37432 0.71275-0.39752 1.0133l-0.0379 0.49062-0.56554-0.7445zm1.14-1.9674c1.344-2.5669 1.2698-5.8931-0.18791-8.4173l-0.30368-0.52587-0.37264 0.64589c-0.20495 0.35524-0.51849 1.078-0.69675 1.6061-0.28961 0.85798-0.32459 1.139-0.32864 2.6405-0.003 1.2906 0.0461 1.8473 0.21373 2.4004 0.24729 0.81586 1.0232 2.4604 1.1609 2.4604 0.05 0 0.28173-0.36456 0.51503-0.81014zm-29.875 2.3462c-0.77241-0.85775-1.4836-2.2122-1.9216-3.6596-0.27315-0.90273-0.3209-1.2849-0.32704-2.6174-0.005-1.1251 0.0526-1.7946 0.20739-2.4004 0.2905-1.1375 1.2732-3.1093 1.9088-3.8303l0.51992-0.58969 0.43199 0.52968c2.009 2.4633 2.6952 6.1106 1.7265 9.1771-0.34861 1.1035-0.73042 1.7728-0.55114 0.96611 0.0572-0.25756 0.13595-0.87867 0.17491-1.3802l0.0708-0.91197-0.28521 0.90016c-0.37349 1.1788-0.62575 1.7429-1.0734 2.4004-0.20223 0.29705-0.42751 0.79926-0.50064 1.116l-0.13296 0.57591-0.24842-0.27586zm0.70972-2.0462c0.48859-0.83963 0.92127-2.2063 1.0678-3.3729 0.11635-0.9262 0.10665-1.2823-0.062-2.2768-0.19474-1.1483-0.69193-2.5568-1.1438-3.2401l-0.22366-0.33827-0.31124 0.53107c-1.3513 2.3058-1.5217 5.4629-0.42543 7.8814 0.35028 0.77276 0.66545 1.3257 0.7556 1.3257 0.0252 0 0.17941-0.22954 0.34267-0.51009z"/>
 </g>
</svg>
