<?xml version="1.0" encoding="UTF-8" standalone="no"?>
<!-- Created with Inkscape (http://www.inkscape.org/) -->
<svg id="svg2" xmlns:rdf="http://www.w3.org/1999/02/22-rdf-syntax-ns#" xmlns="http://www.w3.org/2000/svg" height="54" width="99" version="1.1" xmlns:cc="http://creativecommons.org/ns#" xmlns:dc="http://purl.org/dc/elements/1.1/">
 <metadata id="metadata7">
  <rdf:RDF>
   <cc:Work rdf:about="">
    <dc:format>image/svg+xml</dc:format>
    <dc:type rdf:resource="http://purl.org/dc/dcmitype/StillImage"/>
    <dc:title/>
   </cc:Work>
  </rdf:RDF>
 </metadata>
 <g id="g3305">
  <g id="g3345">
   <g id="g3203">
    <rect id="rect2990" opacity="0" height="54" width="99" y="0" x="0"/>
    <g id="g3226" fill-rule="evenodd" transform="translate(12.7324,4.5000169)">
     <path id="path7" d="m36.768,19.318c1.39-1.7276,2.231-3.9273,2.231-6.3173,0-2.4009-0.83893-4.598-2.2402-6.3294-1.3938,1.7293-2.2272,3.9361-2.2272,6.3294,0,2.3934,0.84311,4.5884,2.2364,6.3173zm-0.003-11.861c1.1088,1.5666,1.7628,3.4783,1.7628,5.5436,0,2.0657-0.65399,3.9771-1.7628,5.544-1.1088-1.5666-1.7628-3.4783-1.7628-5.544,0-2.0653,0.65399-3.9771,1.7628-5.5436z"/>
     <path id="path9" d="m20.965,19.184c1.3381-1.7109,2.1143-3.8423,2.1143-6.1825,0-2.3155-0.80964-4.4469-2.1222-6.1491-1.3109,1.7013-2.1193,3.8352-2.1193,6.1491-0.000418,2.3289,0.80043,4.4754,2.1272,6.1825zm-0.007-11.568c1.0414,1.536,1.6498,3.3896,1.6498,5.385,0,1.9959-0.60838,3.849-1.6498,5.385-1.041-1.535-1.65-3.389-1.65-5.384,0-1.996,0.609-3.8491,1.65-5.3851z"/>
     <path id="path11" d="m44.614,2.9206c-2.2921,0-4.3967,0.75943-6.0901,2.0482,1.8214,2.1758,2.9264,4.9733,2.9264,8.0324,0,3.0503-1.0912,5.862-2.903,8.0349,1.6883,1.2741,3.7888,2.0456,6.0666,2.0456,2.3394,0,4.4976-0.80796,6.2081-2.1448-1.7653-2.159-2.8185-4.9294-2.8185-7.9357,0-3.013,1.0636-5.7779,2.836-7.9395l-0.01423-0.0004184c-1.713-1.341-3.869-2.1405-6.212-2.1405zm2.918,10.081c0,2.9461,0.98119,5.662,2.6327,7.842-1.5682,1.1122-3.4825,1.7678-5.5511,1.7678-2.0046,0-3.8653-0.61466-5.406-1.6649,1.6996-2.1975,2.7134-4.952,2.7134-7.9453,0-2.9925-1.0142-5.7474-2.7134-7.9449,1.5406-1.0498,3.4013-1.6645,5.406-1.6645,2.0682,0,3.9829,0.65566,5.5511,1.7678-1.6515,2.1804-2.6327,4.8963-2.6327,7.842z"/>
     <path id="path13" d="m60.535-0.0000037646c-3.0001,0-5.7604,1.0184-7.96,2.7252-2.2-1.7068-4.96-2.7252-7.96-2.7252-2.948,0-5.666,0.98286-7.847,2.6364-2.181-1.6535-4.899-2.6364-7.847-2.6364-3,0-5.76,1.0184-7.96,2.7252-2.2-1.7068-4.959-2.7252-7.96-2.7252-7.18,0-13.001,5.821-13.001,13.001,0,7.1805,5.821,13.001,13.001,13.001,2.9996,0,5.7599-1.0184,7.96-2.7256,2.2,1.7071,4.9599,2.7256,7.9596,2.7256,2.9482,0,5.6662-0.98244,7.847-2.6365,2.1812,1.654,4.8988,2.6365,7.847,2.6365,2.9996,0,5.7604-1.0184,7.9596-2.7256,2.2,1.7071,4.9599,2.7256,7.96,2.7256,7.18,0,13.001-5.821,13.001-13.001,0-7.1801-5.821-13.001-13.001-13.001zm0,25.532c-3.0247,0-5.7942-1.0728-7.9587-2.857-2.1653,1.7858-4.9357,2.857-7.9608,2.857-2.9766,0-5.7131-1.0255-7.8625-2.7599-2.1448,1.7184-4.8691,2.7599-7.8315,2.7599-3.0243,0-5.7938-1.0728-7.9587-2.857-2.1653,1.7858-4.9357,2.857-7.9608,2.857-6.9202,0-12.53-5.6106-12.53-12.531,0-6.9202,5.6101-12.53,12.53-12.53,3.0277,0,5.8102,1.0603,7.9763,2.8478,2.1611-1.7716,4.9311-2.8478,7.9432-2.8478,2.9641,0,5.693,1.036,7.8386,2.7565,2.1482-1.7289,4.8834-2.7565,7.8554-2.7565,3.0273,0,5.8043,1.0737,7.9704,2.8611l-0.01088,1.2398,0.02259-1.2666c2.1611-1.7712,4.9252-2.8344,7.9382-2.8344,6.9202,0,12.53,5.6101,12.53,12.53-0.000837,6.9202-5.6106,12.531-12.531,12.531z"/>
     <path id="path15" d="m12.998,2.9206c-5.5675,0-10.081,4.5135-10.081,10.081s4.5135,10.081,10.081,10.081c2.3394,0,4.4976-0.80796,6.2081-2.1448-1.7649-2.159-2.8185-4.9294-2.8185-7.9357,0-3.0134,1.0636-5.7784,2.836-7.9395l-0.01381-0.0004184c-1.712-1.342-3.869-2.1415-6.212-2.1415zm2.918,10.081c0,2.9461,0.98119,5.662,2.6327,7.842-1.5678,1.1122-3.4821,1.7678-5.5507,1.7678-5.3072,0-9.6098-4.3026-9.6098-9.6098s4.3026-9.6094,9.6098-9.6094c2.0687,0,3.9829,0.65566,5.5507,1.7678-1.6515,2.18-2.6327,4.8959-2.6327,7.8416z"/>
     <path id="path17" d="m52.572,6.8495c-1.3109,1.7013-2.1193,3.8352-2.1193,6.1491,0,2.3293,0.80085,4.4758,2.1277,6.1825,1.3377-1.7109,2.1143-3.8423,2.1143-6.1825,0-2.3155-0.81006-4.4469-2.1226-6.1491zm0.0013,11.534c-1.041-1.536-1.6494-3.3896-1.6494-5.385s0.60838-3.8486,1.6494-5.385c1.0414,1.536,1.6498,3.3896,1.6498,5.385,0.000418,1.9959-0.60796,3.849-1.6498,5.385z"/>
     <path id="path19" d="m22.768,5.0754c1.7314,2.1494,2.762,4.9486,2.762,7.9236,0,2.9942-1.0532,5.7758-2.8055,7.9311,1.7134,1.3452,3.8474,2.1494,6.1947,2.1494,2.2804,0,4.3905-0.75859,6.0796-2.0352-1.8243-2.1762-2.916-4.9834-2.916-8.0458,0-3.0574,1.0929-5.8654,2.9122-8.0403-1.689-1.276-3.795-2.0392-6.076-2.0392-2.2942,0-4.4561,0.86571-6.1512,2.1574zm8.8437,7.9232c0,2.9929,1.0138,5.7474,2.7134,7.9453-1.5406,1.0498-3.4013,1.6649-5.406,1.6649-2.0682,0-3.9829-0.65566-5.5507-1.7678,1.6511-2.18,2.6323-4.8963,2.6323-7.842s-0.98119-5.6616-2.6323-7.842c1.5678-1.1122,3.4821-1.7678,5.5507-1.7678,2.0051,0,3.8658,0.61466,5.406,1.6645-1.6996,2.1979-2.7134,4.9524-2.7134,7.9449z"/>
     <path id="path21" d="m70.614,13c0-5.5675-4.5135-10.081-10.081-10.081-2.2933,0-4.4319,0.86905-6.1265,2.1599,1.7176,2.1456,2.7369,4.9591,2.7369,7.9211,0,2.9942-1.0532,5.7758-2.8055,7.9311,1.7134,1.3452,3.8474,2.1494,6.1951,2.1494,5.5675,0,10.081-4.5135,10.081-10.081zm-12.999,0c0-2.9457-0.98077-5.6616-2.6323-7.842,1.5678-1.1122,3.4821-1.7678,5.5512-1.7678,5.3072,0,9.6098,4.3026,9.6098,9.6094,0,5.3076-4.3026,9.6098-9.6098,9.6098-2.0687,0-3.9833-0.65566-5.5512-1.7678,1.651-2.18,2.632-4.896,2.632-7.842z"/>
     <path id="path23" d="m18.839,13c0-2.3139,0.8088-4.4478,2.1193-6.1491l0.005-1.1745c-1.772,1.9289-2.878,4.4986-2.878,7.3236,0,2.8147,1.0929,5.4026,2.8524,7.329l0.02887-1.146c-1.326-1.707-2.127-3.854-2.127-6.183z"/>
     <path id="path25" d="m12.998,1.4101c3.0783,0,5.8842,1.2009,7.9591,3.1586l0.017-1.2532c-2.166-1.7874-4.948-2.8477-7.976-2.8477-2.2302,0-4.3239,0.58244-6.1378,1.6038,0,0,1.4841-0.66152,6.1378-0.66152z"/>
     <path id="path27" d="M2.0774,9.1215c-0.4305,1.2125-0.6648,2.5185-0.6648,3.8785,0,6.3997,5.1884,11.588,11.588,11.588,3.0867,0,5.888-1.203,7.9646-3.1699l-0.0038,1.2553c-2.1653,1.7858-4.9357,2.857-7.9608,2.857-6.9202,0-12.53-5.6106-12.53-12.531,0-1.8594,1.6071-3.8787,1.6071-3.8787z"/>
     <path id="path29" d="m23.082,13c0-2.3155-0.80964-4.4469-2.1222-6.1491l0.0046-1.1745c1.7682,1.9281,2.8716,4.5018,2.8716,7.3236,0,1.8046-0.44896,3.4959-1.2352,4.9854,0,0,0.48118-1.0276,0.48118-4.9854z"/>
     <path id="path31" d="m16.387,13c0,3.0063,1.0536,5.7767,2.8185,7.9357l1.2193-0.04435c-1.9239-2.0687-3.0955-4.8436-3.0955-7.8914,0-1.5251,0.29373-2.9804,0.82763-4.3135,0,0-1.7699,2.8754-1.7699,4.3135z"/>
     <path id="path33" d="M12.998,23.08c-5.5675,0-10.081-4.513-10.081-10.081,0-5.5675,4.5135-10.081,10.081-10.081,2.3431,0,4.4997,0.7996,6.2118,2.1406l0.01381,0.0004184,1.2059,0.048118c-1.94-1.8255-4.558-2.9418-7.432-2.9418-5.9834,0-10.835,4.8507-10.835,10.835,0,5.9838,4.8507,10.834,10.835,10.834,1.6854,0,3.2821-0.38494,4.7064-1.0724-0.000419-0.000418-1.1519,0.31842-4.7064,0.31842z"/>
     <path id="path35" d="m53.17,20.854,1.1674,0.07573c1.7523-2.1553,2.8055-4.9369,2.8055-7.9311,0-2.962-1.0193-5.7754-2.7369-7.9211l-1.2917,0.041005c1.8979,2.0641,3.0862,4.8553,3.0862,7.8801,0,2.9971-1.1628,5.798-3.0306,7.8554z"/>
     <path id="path37" d="m44.614,24.586c-3.0386,0-5.7855-1.1645-7.852-3.0779l-0.01046,1.2607c2.1494,1.7343,4.8859,2.7599,7.8625,2.7599,3.0252,0,5.7959-1.0716,7.9608-2.857l0.0038-1.2553c-2.077,1.9666-4.8779,3.1695-7.9646,3.1695z"/>
     <path id="path39" d="m44.614,1.4101c3.0779,0,5.8842,1.2009,7.9591,3.1586l0.01088-1.2398c-2.1661-1.7875-4.9428-2.8611-7.9704-2.8611-2.1946,0-4.2603,0.56026-6.0558,1.5498,0.000418,0,1.1301-0.60754,6.0562-0.60754z"/>
     <path id="path41" d="m52.551,20.327,0.02887-1.146c-1.3268-1.7071-2.1277-3.8532-2.1277-6.1825,0-2.3139,0.8088-4.4478,2.1193-6.1491l0.0046-1.1745c-1.7716,1.9289-2.8779,4.4984-2.8779,7.3236,0,2.8143,1.0929,5.4022,2.8528,7.3286z"/>
     <path id="path43" d="m54.693,13c0-2.3155-0.81006-4.4469-2.1222-6.1491l0.0046-1.1745c1.7682,1.9281,2.8712,4.5018,2.8712,7.3236,0,1.8063-0.4498,3.4996-1.2377,4.9901-0.000418,0.000418,0.48411-1.6281,0.48411-4.9901z"/>
     <path id="path45" d="m60.535,1.4101c6.3997,0,11.588,5.1884,11.588,11.588,0,6.3997-5.1884,11.588-11.588,11.588-3.0821,0-5.8796-1.208-7.9554-3.1699l-0.0038,1.2553c2.1649,1.7841,4.9344,2.857,7.9587,2.857,6.9202,0,12.53-5.6106,12.53-12.531,0-6.9202-5.6097-12.53-12.53-12.53-2.2595,0-4.3792,0.59792-6.2097,1.6444,0.06025-0.060671,2.0021-0.70252,6.2102-0.70252z"/>
     <path id="path47" d="m48.003,13c0,3.0063,1.0536,5.7767,2.8185,7.9357l1.2189-0.04435c-1.9239-2.0687-3.095-4.8436-3.095-7.8914,0-1.5812,0.31674-3.0883,0.89039-4.462,0,0-1.8327,2.9574-1.8327,4.462z"/>
     <path id="path49" d="m44.614,2.9206c2.3431,0,4.4997,0.7996,6.2114,2.1406l0.01423,0.0004184,1.2004,0.050629c-0.0021-0.00209-0.0042-0.00377-0.0063-0.00586-1.9389-1.8226-4.549-2.9394-7.4198-2.9394-2.8155,0-5.3838,1.0724-7.3106,2.8331l1.222-0.0309c1.693-1.2891,3.798-2.0485,6.09-2.0485z"/>
     <path id="path51" d="m28.919,2.9206c2.2808,0,4.3867,0.76361,6.0758,2.0402l1.235,0.0418c-1.927-1.7628-4.493-2.8356-7.311-2.8356-2.8637,0-5.4721,1.1306-7.4093,2.9452l1.2586-0.03431c1.6946-1.2917,3.8566-2.1574,6.1507-2.1574z"/>
     <path id="path53" d="m22.705,2.1256c1.832-1.0503,3.955-1.6557,6.214-1.6557,2.9641,0,5.693,1.036,7.8386,2.7565l0.0071,1.2456c-2.064-1.8992-4.82-3.0598-7.845-3.0598-3.2222,0-6.2143,0.7134-6.2143,0.7134z"/>
     <path id="path55" d="m41.451,13c0-3.0591-1.1055-5.857-2.9264-8.0324l-1.2205,0.030963c1.9875,2.0804,3.2047,4.8976,3.2047,8.0014s-1.2197,5.9189-3.2068,7.9993l1.246,0.03557c1.8117-2.1728,2.903-4.9846,2.903-8.0349z"/>
     <path id="path57" d="m38.999,13c0-2.4009-0.83893-4.598-2.2402-6.3294l0.01172-1.146c1.8511,1.944,2.9825,4.5796,2.9825,7.4759,0,1.8218-0.44896,3.5402-1.2431,5.0478,0-0.13724,0.48913-2.1645,0.48913-5.0482z"/>
     <path id="path59" d="m28.919,23.08c-2.3469,0-4.4813-0.8042-6.1947-2.1494,0,0-1.1841-0.05732-1.1674-0.07573,1.9352,1.8051,4.5068,2.9787,7.3621,2.9787,1.7632,0,3.4264-0.41842,4.8967-1.164,0-0.000418-1.4749,0.41047-4.8967,0.41047z"/>
     <path id="path61" d="m32.082,13c0,3.062,1.0917,5.8691,2.916,8.0458l1.2348-0.05021c-1.9858-2.08-3.2084-4.8926-3.2084-7.9955,0-1.6163,0.33097-3.1549,0.92889-4.552-0.000418,0-1.8712,3.0641-1.8712,4.552z"/>
     <path id="path63" d="m49.488,22.678c-1.4657,0.73893-3.1222,1.1548-4.8737,1.1548-2.818,0-5.3855-1.0716-7.3127-2.8348l1.246,0.03557c1.6883,1.2741,3.7888,2.0456,6.0666,2.0456,3.5344,0,4.8737-0.40126,4.8737-0.40126z"/>
     <path id="path65" d="m34.534,13c0-2.3938,0.83391-4.6005,2.2272-6.3294l0.01172-1.146c-1.8569,1.9448-2.9925,4.5746-2.9925,7.4759,0,2.8988,1.1364,5.5286,2.9904,7.4729v-1.1553c-1.392-1.7297-2.236-3.9237-2.236-6.3177z"/>
     <path id="path67" d="m28.919,24.586c-3.0816,0-5.8792-1.208-7.955-3.1699l-0.0038,1.2553c2.1649,1.7841,4.9344,2.857,7.9587,2.857,2.9624,0,5.6863-1.041,7.8315-2.7599l0.01046-1.2607c-2.0657,1.908-4.8085,3.0783-7.842,3.0783z"/>
     <path id="path69" d="m25.53,13c0-2.9745-1.0301-5.7737-2.762-7.9236l-1.2586,0.03431c1.913,2.0666,3.0779,4.8511,3.0779,7.8888,0,2.9971-1.1628,5.7976-3.0306,7.8554-0.01674,0.01841,1.1674,0.07573,1.1674,0.07573,1.7528-2.1549,2.8059-4.9361,2.8059-7.9307z"/>
     <path id="path71" d="m70.614,13c0-5.5675-4.5135-10.081-10.081-10.081-2.2933,0-4.4319,0.86905-6.1265,2.1599l-1.2917,0.041005c1.9335-1.795,4.5716-2.9544,7.4181-2.9544,5.9834,0,10.835,4.8507,10.835,10.835,0,1.8302-0.45356,3.5545-1.2548,5.0658,0,0,0.50126-1.1795,0.50126-5.0662z"/>
     <path id="path73" d="m60.535,23.08c-2.3473,0-4.4817-0.8042-6.1951-2.1494l-1.1674-0.07573c1.9352,1.8051,4.5068,2.9787,7.3625,2.9787,1.6988,0,3.3055-0.3908,4.7365-1.087-0.06736,0-0.66696,0.33348-4.7365,0.33348z"/>
     <path id="path75" d="m24.697,44.679h4.4967l-8.695-13.093h-4.897l1.2322,1.6327-7.6612,11.458h4.5302l1.2414-2.1323h8.4152l1.3356,2.1323zm-8.1985-4.7972,2.5026-4.2972,2.6917,4.2972h-5.1942z"/>
     <path id="path77" d="m28.496,35.151h3.8637l0.1,5.6624c0,1.6318,2.0984,1.5649,2.2318,1.5649,0.13306,0,2.1979,0.13306,2.1979-1.5322v-5.703h3.931v5.87c0,2.9984-3.298,3.9645-6.129,3.9645-2.8314,0-6.1955-0.83265-6.1955-4.1637v-5.6612z"/>
     <path id="path79" d="m55.827,36.599-3.9574-5.0039h-4.4967l2.8164,3.2582c-0.50587-0.02552-0.97408-0.03013-1.3737-0.03013-4.1741,0-7.039,2.1511-7.039,5.0064,0,3.1955,3.3837,5.1704,7.5575,5.1704,4.1741,0,7.5579-1.8109,7.5579-5.1704-0.000418-1.4628-0.41549-2.3477-1.0649-3.2306zm-6.4934,5.7633c-2.0143,0-3.6478-1.1594-3.6478-2.5904s1.6331-2.5904,3.6478-2.5904,3.6482,1.1594,3.6482,2.5904-1.6331,2.5904-3.6482,2.5904z"/>
     <polygon id="polygon81" points="355.82,426.58,355.82,426.58,355.82,449.38,365.3,449.38,365.3,426.58" transform="matrix(0.41841782,0,0,0.41841782,-91.00906,-143.35171)"/>
    </g>
   </g>
  </g>
 </g>
</svg>
