<?xml version="1.0" encoding="UTF-8" standalone="no"?>
<!-- Created with Inkscape (http://www.inkscape.org/) -->
<svg id="svg2" xmlns:rdf="http://www.w3.org/1999/02/22-rdf-syntax-ns#" xmlns="http://www.w3.org/2000/svg" height="45" width="67.5" version="1.1" xmlns:cc="http://creativecommons.org/ns#" xmlns:dc="http://purl.org/dc/elements/1.1/">
 <metadata id="metadata7">
  <rdf:RDF>
   <cc:Work rdf:about="">
    <dc:format>image/svg+xml</dc:format>
    <dc:type rdf:resource="http://purl.org/dc/dcmitype/StillImage"/>
    <dc:title/>
   </cc:Work>
  </rdf:RDF>
 </metadata>
 <g id="g13537">
  <rect id="rect2990" opacity="0" height="45" width="67.5" y="0" x="3.5527e-15"/>
  <g id="g13312" stroke-width=".16842" stroke="#000" transform="matrix(.76181 0 0 .76181 -3.9599 1.9311)">
   <path id="path17103" d="m34.166 26.509 6.33-9.2646c0.243-0.363-0.048-0.775-0.558-0.775l-4.886-0.037c-0.36379 0-1.0914 0.4608-1.4067 0.86097l-2.207 2.874-3.068 4.0138 0.02425-6.9363c0-0.47293-0.49718-0.77609-0.80034-0.77609h-5.6024c-0.38804 0-0.73971 0.14552-0.75184 0.86097-0.01213 0.70333 0.86097 0.84885 0.86097 1.0429v18.54c0 0.35166 0.48506 0.88523 0.82459 0.88523l4.802-0.02425c0.33954-0.01213 0.63057-0.49718 0.63057-0.82459l0.01213-7.7245 3.068 3.7956 3.2499 4.0017c0.26678 0.31545 0.78822 0.752 1.3339 0.752l5.2143-0.03655c0.49718 0 0.44868-0.60632 0.32741-0.76379-2.4495-3.4319-4.9354-6.9607-7.3971-10.465z"/>
   <path id="path17105" d="m52.162 16.468h-5.5418c-0.65482 0-0.80034 0.38804-0.90948 0.80034 0.12143 0.75184 0.90948 0.95798 0.90948 0.97011v18.712c0 0.49718 0.30333 0.82459 0.72758 0.82459l1.9887-0.01213 2.9588-0.02442c0.54569 0 0.6912-0.32724 0.6912-0.78822v-19.706c0-0.47276-0.40017-0.77592-0.82459-0.77592z"/>
   <path id="path17107" d="m69.029 6.9124c-5.893-1.4916-12.525-2.3283-19.535-2.3283-0.04851 0-0.09701 0.012126-0.15781 0.012126-6.3542 0-12.417 0.70333-17.898 1.9523-15.388 3.5167-26.156 11.374-26.156 20.458 0 9.0828 10.768 16.94 26.156 20.457 5.4811 1.249 11.544 1.9523 17.898 1.9523h0.158c7.009 0 13.642-0.82459 19.535-2.3161 14.612-3.6622 24.689-11.302 24.689-20.093 0-8.7916-10.077-16.431-24.689-20.093zm0 35.3c-5.8085 1.346-12.466 2.11-19.535 2.11-0.04851 0-0.09701-0.01213-0.15781-0.01213-6.4027 0-12.478-0.64253-17.898-1.7705-13.569-2.827-22.93-8.732-22.93-15.534 0-6.8032 9.3616-12.709 22.931-15.534 5.4215-1.1278 11.496-1.7705 17.9-1.7826h0.158c7.0697 0 13.727 0.76396 19.535 2.11 12.769 2.9346 21.464 8.6582 21.464 15.206 0 6.5482-8.6944 12.272-21.464 15.206z"/>
   <path id="path17109" d="m72.849 17.268c-0.182-0.412-0.497-0.8-0.909-0.8h-7.4941c-0.26678 0-0.63057 0.21828-0.63057 0.58207-0.01196 1.0671 1.1037 1.0307 1.0429 1.1884l-6.3178 18.638c-0.10914 0.31529 0.16977 0.89735 0.55781 0.89735l4.402-0.03655c0.38804 0 0.93373-0.32724 1.0912-0.80034l2.0857-6.257c0.7035-2.0857 1.4068-4.1715 2.0979-6.2572 0.03638-0.08488 0.14552-0.13339 0.25482-0.13339 0.16977 0 0.35166 0.06063 0.38804 0.1819l4.0866 12.539c0.08488 0.27874 0.65482 0.72742 0.95798 0.72742l4.5838 0.03655c0.26678 0 0.58207-0.53356 0.49718-0.77609l-6.6931-19.731z"/>
  </g>
 </g>
</svg>
