<?xml version="1.0" encoding="UTF-8" standalone="no"?>
<!-- Created with Inkscape (http://www.inkscape.org/) -->
<svg id="svg2" xmlns:rdf="http://www.w3.org/1999/02/22-rdf-syntax-ns#" xmlns="http://www.w3.org/2000/svg" height="45" width="67.5" version="1.1" xmlns:cc="http://creativecommons.org/ns#" xmlns:dc="http://purl.org/dc/elements/1.1/">
 <metadata id="metadata7">
  <rdf:RDF>
   <cc:Work rdf:about="">
    <dc:format>image/svg+xml</dc:format>
    <dc:type rdf:resource="http://purl.org/dc/dcmitype/StillImage"/>
    <dc:title/>
   </cc:Work>
  </rdf:RDF>
 </metadata>
 <g id="g13687">
  <rect id="rect2990" opacity="0" height="45" width="67.5" y="0" x="3.5527e-15"/>
  <g id="g13407" transform="matrix(.77049 0 0 .77049 -4.3894 1.6967)">
   <path id="path17123" d="m47.563 17.942"/>
   <path id="path17129" d="m50.013 4.4998c-14.59 0-26.417 6.0713-26.417 13.561 0 7.4893 11.827 13.561 26.417 13.561s26.417-6.0719 26.417-13.561c-0.001-7.49-11.827-13.561-26.417-13.561zm0.111 24.018c-13.342 0-24.157-4.6523-24.157-10.391 0-5.7384 10.815-10.391 24.157-10.391 13.343 0 24.158 4.6526 24.158 10.391 0 5.7387-10.815 10.391-24.158 10.391z"/>
   <path id="path17131" d="m58.748 12.675c0.01512-0.03172 0.03083-0.08656 0.03083-0.1242 0-0.15088-0.12212-0.27448-0.27152-0.27448l0.0018-0.0021-0.36697 0.0021c-0.03023 0-0.05513-0.02371-0.05513-0.05395v-0.64475c0-0.03112 0.0249-0.05484 0.05513-0.05484l1.3831-0.0015h0.30916l3.2576-0.0024c0.14821 0 0.29019 0.03083 0.3394 0.18289l4.2945 12.534c0.0047 0.02164 0.0086 0.04832 0.0086 0.07114 0 0.13339-0.10523 0.2404-0.23743 0.2404l0.0059 0.0015-3.0991 0.0024c-0.14821 0-0.30798-0.1242-0.35659-0.27656l-2.6544-8.0878c-0.01868-0.06966-0.06136-0.12894-0.13606-0.12894-0.07529 0-0.11857 0.05306-0.13546 0.12894l-2.6532 8.0878c-0.0498 0.15236-0.20957 0.27656-0.35837 0.27656l-3.0893-0.003c-0.1325 0-0.24099-0.1079-0.24099-0.24128 0-0.02283 0.0018-0.04535 0.0086-0.06758l3.958-11.563z"/>
   <path id="path17133" d="m48.433 12.663v-0.12002c0-0.15117-0.12805-0.26915-0.27804-0.26915l-0.411-0.0003c-0.03083 0-0.05543-0.02431-0.05543-0.05513v-0.64589c0-0.02875 0.0246-0.05424 0.05543-0.05424h4.1001c0.1488 0 0.27093 0.12272 0.27093 0.27389v12.483c0 0.15117-0.12212 0.273-0.27093 0.273h-3.1426c-0.1494 0-0.27093-0.12183-0.27093-0.273v-11.34l0.0018-0.27152z"/>
   <path id="path17135" d="m45.771 24.547-3.6178-0.000889c-0.15028 0-0.36045-0.12331-0.46953-0.27508l-3.6119-4.9629c-0.06106-0.05662-0.06551-0.07529-0.1073-0.11056-0.02608-0.01778-0.06699-0.02934-0.10167-0.02934-0.09248 0-0.14851 0.07055-0.14851 0.16629v0.0664-0.0059l0.0021 4.8797c0 0.15117-0.12124 0.273-0.27063 0.273h-3.0475c-0.1491 0-0.27063-0.12183-0.27063-0.273l0.0027-11.732v-0.0015c0-0.15117-0.11916-0.27271-0.26856-0.27271h0.0074l-0.42655 0.003c-0.02994 0-0.05454-0.02549-0.05454-0.05513v-0.64408c0-0.03053 0.0246-0.05573 0.05454-0.05573h0.95595l3.0475 0.0015c0.1494 0 0.27063 0.12272 0.27063 0.27389l-0.000889 3.2351v0.23595l0.000889 0.6121v-0.0059 0.0664c0 0.09515 0.05602 0.16659 0.1488 0.16659 0.03498 0 0.07529-0.01186 0.10375-0.02994 0.03972-0.03409 0.04268-0.05306 0.10493-0.11116l0.50006-0.68858 2.4947-3.4779c0.112-0.1518 0.322-0.2736 0.472-0.2736h3.4643c0.13102 0 0.23299 0.1079 0.23299 0.24099 0 0.04921-0.01186 0.09545-0.03646 0.13457l-3.8312 5.5697c-0.04209 0.05602-0.06373 0.10345-0.06373 0.16896 0 0.0658 0.01601 0.10345 0.05869 0.15977l4.585 6.352c0.04209 0.04505 0.05751 0.09426 0.05751 0.16007-0.000593 0.13339-0.10464 0.24128-0.23536 0.24128z"/>
   <g id="g13414" fill-rule="evenodd">
    <path id="path17143" d="m23.99 39.169h-1.108l-3.5333 9.8797h2.2157l0.6871-1.9166h3.4737l0.68888 1.9166h2.695l-3.5354-9.8797h-1.5838zm0 6.5245h-1.2287l1.2287-3.4112 1.2272 3.4112h-1.227z"/>
    <polygon id="polygon17145" points="283.05 325.97 276.18 345.26 269.31 325.97 259.72 325.97 255.17 359.3 262.64 359.3 265.37 338.49 272.45 359.3 278.8 359.3 286.08 338.4 288.81 359.3 297.19 359.3 292.54 325.97" transform="matrix(.29642 0 0 .29642 -41.798 -57.455)"/>
    <rect id="rect17147" y="39.169" width="2.695" x="15.785" height="9.8797"/>
    <path id="path17149" d="m13.63 47.493-2.7837-3.983 3.383-4.341h-2.7837l-3.0548 3.832v-3.8319h-2.6939v9.8797h2.6939v-4.5809l2.6352 3.7426s0.65983 0.83827 1.3469 0.83827h2.8447s-0.30116 0.03142-1.5876-1.5562z"/>
    <path id="path17151" d="m84.708 47.641-2.2457-3.3824c2.1265-0.68947 2.0068-2.6645 2.0068-2.6645 0-2.3334-2.7244-2.4247-2.7244-2.4247h-5.1503v9.8797h2.7238v-8.4438h0.95921s1.5562 0.09041 1.5562 1.3786c0 0 0.20898 2.0654-2.3343 2.0654l2.8444 4.2812s0.47812 0.71822 1.5266 0.71822h2.3029l-0.209-0.089c-0.23891-0.1494-0.6296-0.50866-1.2574-1.3182z"/>
    <path id="path17153" d="m93.299 46.055c-0.11916-1.9155-2.1849-2.5735-2.1849-2.5735-2.8427-0.98826-2.6046-2.0663-2.6046-2.0663 0-1.1374 1.7954-1.1969 1.7954-1.1969 1.2894 0 2.0355 0.65835 2.0355 0.65835v-1.4981s-1.0775-0.62841-2.8732-0.50777c0 0-2.7546 0.17933-3.5025 2.0352-0.14999 0.29938-0.20957 0.65983-0.20957 1.0472 0 0-0.06017 0.4805 0.20957 1.0787 0.23802 0.56794 0.80834 1.2571 2.0068 1.7972 0 0 2.7831 0.86584 2.7235 2.0053-0.0578 1.5269-2.0349 1.1978-2.0349 1.1978-1.1676-0.17933-2.3645-0.71822-2.695-0.86762-0.08922-0.03112-0.11975-0.06017-0.11975-0.06017l0.11975 0.3892 0.29879 1.1362c1.2287 0.74935 2.9052 0.80952 2.9052 0.80952 4.4291 0.20986 4.13-3.3842 4.13-3.3842z"/>
    <path id="path17155" d="m70.338 38.722c-2.3957 0-4.4312 1.4394-5.2395 3.4737-0.23862 0.59906-0.35837 1.2269-0.35837 1.9149 0 0.69125 0.11975 1.3179 0.35837 1.9161 0.80834 2.0379 2.8438 3.4734 5.2395 3.4734 3.0828 0 5.5973-2.3945 5.5973-5.3898 0-2.9935-2.5145-5.3883-5.5973-5.3883zm0 9.2213c-1.617 0-2.9052-1.7062-2.9052-3.8327 0-2.1241 1.2882-3.8312 2.9052-3.8312 1.6158 0 2.904 1.7071 2.904 3.8312 0 2.1265-1.2882 3.8327-2.904 3.8327z"/>
    <polygon id="polygon17157" points="361.83 330.82 361.83 325.97 360.62 325.97 334.56 325.97 333.65 325.97 333.65 330.82 334.56 330.82 343.14 330.82 343.14 359.3 352.24 359.3 352.24 330.82 360.62 330.82" transform="matrix(.29642 0 0 .29642 -41.798 -57.455)"/>
    <path id="path17159" d="m52.013 38.722c-3.1124 0-5.6284 2.3948-5.6284 5.3886 0 2.9953 2.5157 5.3898 5.6284 5.3898 2.5142 0 4.6407-1.5858 5.3575-3.8037 0.15236-0.50688 0.24128-1.0158 0.24128-1.5861 0-0.53859-0.08922-1.0769-0.24128-1.5864-0.71645-2.2157-2.843-3.8022-5.3575-3.8022zm0 9.2213c-1.617 0-2.9337-1.7062-2.9337-3.8327 0-2.1241 1.3167-3.8312 2.9337-3.8312 1.587 0 2.9046 1.7071 2.9046 3.8312 0 2.1265-1.3176 3.8327-2.9046 3.8327z"/>
   </g>
  </g>
 </g>
</svg>
