<?xml version="1.0" encoding="UTF-8" standalone="no"?>
<!-- Created with Inkscape (http://www.inkscape.org/) -->
<svg id="svg2" xmlns:rdf="http://www.w3.org/1999/02/22-rdf-syntax-ns#" xmlns="http://www.w3.org/2000/svg" height="54" width="99" version="1.1" xmlns:cc="http://creativecommons.org/ns#" xmlns:dc="http://purl.org/dc/elements/1.1/">
 <metadata id="metadata7">
  <rdf:RDF>
   <cc:Work rdf:about="">
    <dc:format>image/svg+xml</dc:format>
    <dc:type rdf:resource="http://purl.org/dc/dcmitype/StillImage"/>
    <dc:title/>
   </cc:Work>
  </rdf:RDF>
 </metadata>
 <g id="g3305">
  <g id="g3345">
   <g id="g3722">
    <g id="g3757">
     <g id="g3952">
      <g id="g4047">
       <g id="g4079">
        <g id="g4116">
         <g id="g4159">
          <g id="g4184">
           <g id="g4225">
            <g id="g4264">
             <g id="g4289">
              <g id="g4304">
               <g id="g4413">
                <g id="g4448">
                 <g id="g4472">
                  <g id="g4680">
                   <g id="g4737">
                    <g id="g4823">
                     <g id="g4901">
                      <g id="g4966">
                       <g id="g5048">
                        <g id="g5083">
                         <g id="g5131">
                          <g id="g5167">
                           <g id="g5212">
                            <g id="g5245">
                             <g id="g5004">
                              <rect id="rect2990" opacity="0" height="54" width="99" y="0" x="0"/>
                             </g>
                             <g id="g3609" fill-rule="evenodd" transform="translate(6.589,2.309)">
                              <path id="path17282" d="m85.823,24.691c0,12.426-19.215,22.5-42.91,22.5-23.702,0-42.914-10.074-42.914-22.5s19.212-22.5,42.914-22.5c23.694,0,42.91,10.074,42.91,22.5z" fill="#000"/>
                              <path id="path17284" d="M84.05,24.671c0,11.413-18.424,20.663-41.15,20.663-22.727,0-41.151-9.25-41.151-20.663,0-11.411,18.424-20.663,41.151-20.663,22.726,0,41.15,9.2515,41.15,20.663zm-41.152-19.035c-21.835,0-39.537,8.5229-39.537,19.036s17.702,19.036,39.537,19.036c21.834,0,39.536-8.5229,39.536-19.036,0.001-10.513-17.701-19.036-39.536-19.036z" fill="#FFF"/>
                              <path id="path17286" d="M81.413,24.671c0,9.949-17.243,18.013-38.513,18.013-21.271,0-38.513-8.064-38.513-18.013,0-9.947,17.243-18.012,38.513-18.012s38.513,8.0644,38.513,18.012zm-13.83-8.432h-6.6052l-0.80429,2.3001h4.2754l-4.8765,1.6887-0.3223,0.93272,7.5037-2.4607,0.82919-2.4607zm-42.114,4.0366h-2.6907s2.4934-6.6467,2.6937-7.1492c0.35551-0.89023,0.56842-0.82919,0.56842-0.82919h-3.7162c0.45952,0.22024,0.05225,1.088,0.05225,1.088s-2.9764,8.289-3.1839,8.7031c-0.20754,0.4146-0.36283,0.46685-0.36283,0.46685h6.4362l0.9-2.4549c-0.07765,0.23391-0.69685,0.17531-0.69685,0.17531zm11.289,2.2693h3.0316s-0.20754-0.30765-0.07813-0.64411c0.17971-0.46734,1.7878-4.8438,1.7878-4.8438l0.69929,5.4879h2.7459l3.5995-9.7623s0.14748-0.45806,0.34818-0.45806l-2.9178-0.0088s0.08351,0.33695-0.02051,0.59626c-0.10304,0.2593-1.7614,4.6885-1.7614,4.6885l-0.647-5.284h-3.1336s0.16213,0.25882,0.0586,0.54352c-0.08448,0.23098-3.3226,9.1182-3.3226,9.1182s-0.20754,0.56744-0.3892,0.56744zm13.859-10.226s0.25833,0.4146-0.07862,1.3727c-0.33646,0.9586-2.9788,8.0819-2.9788,8.0819s-0.20803,0.67-0.49224,0.80038l4.1445-0.0044s5.0245,0.18557,6.5793-5.0958c0,0,1.9685-5.2066-3.7304-5.1544h-3.4437v-0.000488zm0.43999,7.891s0.01319-0.0039,0.47857-0.0039c0.70467,0,2.011-0.15529,2.8885-2.2922,1.4421-3.5116-0.56989-3.3929-0.56989-3.3929h-0.77764l-2.0194,5.689zm-36.86,10.606h6.6047l0.8038-2.3005h-4.2749l4.8765-1.6882,0.32328-0.93272-7.5047,2.4617-0.8287,2.4597zm11.575,4.2422c-0.10402,0-0.10402-0.33402-0.10402-0.33402l1.215-3.224s1.5133,2.97,1.6174,3.1771c0.10353,0.20705,0.05128,0.38041,0.05128,0.38041h3.6205c-0.34574,0-0.70174-0.65632-0.70174-0.65632l-1.802-3.235c2.5213,0,3.3275-2.4988,3.3275-2.4988,1.2433-3.9711-2.9407-3.8676-2.9407-3.8676h-4.2822c0.31058,0.34525,0.06837,1.0709,0.06837,1.0709s-2.659,7.6024-2.866,8.1899c-0.20754,0.58649-0.58747,0.99669-0.58747,0.99669s3.5609,0.000977,3.3846,0.000977zm2.5662-7.8988-0.70174,2.0622h0.65632s1.2785,0.11232,1.7497-0.90342c0,0,0.55182-1.1647-0.99034-1.1647-0.33744,0-0.71394,0.0059-0.71394,0.0059zm34.897,7.9369c-0.25833,0.0059-0.07813-0.62849-0.07813-0.62849l1.0841-2.93s1.4611,2.971,1.5636,3.1781c0.10402,0.20803,0.05225,0.37944,0.05225,0.37944h3.7494c-0.34574,0-0.72566-0.65632-0.72566-0.65632l-1.8029-3.2342c2.5222,0,3.2811-2.4094,3.2811-2.4094,1.3244-4.1587-2.8934-3.9575-2.8934-3.9575h-4.248c0.31156,0.34525,0.06983,1.0699,0.06983,1.0699s-2.7703,7.6322-2.9784,8.2196c-0.20705,0.58747-0.60456,0.96251-0.60456,0.96251l3.5307,0.0063zm2.4695-5.838s1.2687,0.0962,1.6569-0.89756c0.45806-1.171-0.68513-1.1398-0.68513-1.1398h-0.9376l-0.6905,2.0373h0.65632zm-28.232,6.0549c3.7372,0,5.9616-3.6664,5.9616-6.2971,0-2.7581-1.1339-4.48-3.724-4.48-3.3041,0-5.4591,2.5076-6.0158,5.6237-0.5108,2.867,1.108,5.1534,3.7782,5.1534zm0.23538-2.4246c0.93223,0.17287,1.9572-0.49859,2.4925-2.6419,0.81161-3.244-0.68416-3.2714-0.95762-3.305-0.82675-0.10011-1.9314,0.85263-2.3797,2.8387-0.20559,0.90684-0.42339,2.8729,0.84482,3.1082zm6.6135-8.0497s0.25686,0.13722,0.25686,0.79354v8.8769s-0.03565,0.4854-0.21877,0.58649h2.7772s0-0.20705,0.27493-0.55231c0.2764-0.34525,6.0446-8.0814,6.0446-8.0814s1.3151-1.6232,1.6598-1.6232h-3.9746s0.31156,0.20705,0.06983,0.58649c-0.24173,0.38041-3.7748,5.6647-3.7748,5.6647l0.04493-5.3297s-0.0063-0.85458,0.33646-0.92588l-3.4965,0.0044zm16.789,2.4197,0.89805-2.4226-6.7341,0.000977s0.24124,0.21291-0.06885,1.0768c-0.31156,0.86338-3.0399,8.2177-3.0399,8.2177s-0.48345,0.9669-0.62067,0.9669h6.9412l0.82919-2.4519s-0.10353,0.1382-0.75985,0.1382h-2.9334l0.62214-1.6579h2.2786s0.48345-0.03418,0.58747,0.10402l0.93223-2.6199s-0.06837,0.23635-0.69099,0.23635h-2.2102l0.6573-1.8293h2.7972s0.37992-0.05225,0.51763,0.24075zm-35.106-4.704h3.3221s-0.01025-0.25491,0.07618-0.42046c0.15773-0.29935,0.56989-1.0216,0.56989-1.0216h3.3436l0.0068,0.90098s0.01709,0.31058-0.22903,0.54986h3.3158s-0.24612-0.1382-0.29154-0.54596l-0.416-9.014s-0.01807-0.57623,0.25638-0.69734h-3.2894s0.23049,0.2847-0.20998,0.93223c-0.43999,0.64753-6.0593,8.9795-6.0593,8.9795s-0.11134,0.2134-0.39555,0.33646zm7.2483-6.76-1.8464,3.0042h1.8728l-0.025-3.004z" fill="#FFF"/>
                             </g>
                            </g>
                           </g>
                          </g>
                         </g>
                        </g>
                       </g>
                      </g>
                     </g>
                    </g>
                   </g>
                  </g>
                 </g>
                </g>
               </g>
              </g>
             </g>
            </g>
           </g>
          </g>
         </g>
        </g>
       </g>
      </g>
     </g>
    </g>
   </g>
  </g>
 </g>
</svg>
