<?xml version="1.0" encoding="UTF-8" standalone="no"?>
<!-- Created with Inkscape (http://www.inkscape.org/) -->
<svg id="svg2" xmlns:rdf="http://www.w3.org/1999/02/22-rdf-syntax-ns#" xmlns="http://www.w3.org/2000/svg" height="45" width="67.5" version="1.1" xmlns:cc="http://creativecommons.org/ns#" xmlns:dc="http://purl.org/dc/elements/1.1/">
 <metadata id="metadata7">
  <rdf:RDF>
   <cc:Work rdf:about="">
    <dc:format>image/svg+xml</dc:format>
    <dc:type rdf:resource="http://purl.org/dc/dcmitype/StillImage"/>
    <dc:title/>
   </cc:Work>
  </rdf:RDF>
 </metadata>
 <g id="g13985">
  <rect id="rect2990" opacity="0" height="45" width="67.5" y="0" x="3.5527e-15"/>
  <path id="path13983" d="m30.031 40.156c-11.377-0.72-21.131-4.258-26.344-9.555-1.7069-1.734-2.6981-3.295-3.3465-5.27-0.30323-0.923-0.33587-1.188-0.34034-2.763-0.0059999-2.034 0.14226-2.718 0.95203-4.396 3.4355-7.123 14.668-12.325 28.664-13.276 2.6289-0.17863 8.0376-0.08297 10.568 0.18692 14.464 1.5426 25.242 7.6173 27.115 15.283 0.29028 1.1878 0.2612 3.3112-0.0619 4.5195-2.023 7.5656-12.772 13.52-27.174 15.052-1.7737 0.18873-8.2708 0.33056-10.033 0.21903zm8.5314-1.619c7.8786-0.57356 15.242-2.69 20.323-5.8412 6.7795-4.2048 8.9569-9.884 5.7487-14.994-0.83824-1.3352-1.5596-2.1739-2.8207-3.2797-7.959-6.9784-25.075-9.996-39.953-7.0434-11.12 2.2067-18.97 7.3244-20.294 13.23-1.7317 7.7273 7.3713 14.848 22.156 17.331 4.5127 0.75783 9.7445 0.96851 14.84 0.59758zm-9.6128-1.1912c-12.056-1.033-21.477-4.97-24.994-10.447-2.895-4.507-1.2035-9.377 4.6055-13.259 1.2474-0.834 4.4365-2.425 6.0415-3.015 9.054-3.3275 20.929-4.0579 31.377-1.9303 8.9878 1.8303 15.716 5.6876 18.045 10.345 0.5578 1.1155 0.7889 2.1299 0.7911 3.4724 0.004 2.3734-0.98681 4.4528-3.1177 6.5439-4.2589 4.1795-11.681 6.9904-21.453 8.125-1.8313 0.21261-9.4388 0.32331-11.295 0.16436zm11.175-1.0105c6.1677-0.67747 11.199-2.0065 15.501-4.0942 4.1476-2.0131 7.0394-4.7057 8.0012-7.4502 0.32395-0.92438 0.44122-2.8249 0.23241-3.7664-1.266-5.712-10.04-10.596-21.811-12.144-3.1789-0.41809-5.4655-0.52734-9.5851-0.45796-4.0616 0.06841-5.0209 0.1424-8.2587 0.63705-6.0892 0.93027-11.606 2.8496-15.38 5.3512-1.3609 0.90191-3.5979 3.09-4.1881 4.0967-1.7616 3.0043-1.59 5.9084 0.51446 8.708 3.5157 4.6769 12.56 8.3047 22.839 9.1612 0.85914 0.07158 1.7513 0.15138 1.9826 0.17734 1.1126 0.12486 8.4637-0.03451 10.154-0.22013zm-12.024-5.756c-1.835-0.87671-2.2456-3.1671-1.0074-5.6199 0.93524-1.8527 2.966-2.9034 4.8611-2.5151 0.6087 0.12473 0.80552 0.23478 1.264 0.70675 1.5006 1.5449 1.1957 4.463-0.66145 6.3309-0.95205 0.95757-1.6477 1.281-2.8855 1.3414-0.82866 0.04048-1.0453 0.0068-1.5706-0.24416zm2.4254-1.8729c0.43471-0.26508 0.79712-0.95456 1.0762-2.0475 0.36644-1.435 0.0396-2.3376-0.84638-2.3376-0.54034 0-1.1401 0.55728-1.5236 1.4157-0.37315 0.83523-0.40415 2.5567-0.053 2.9452 0.28792 0.31856 0.84761 0.32863 1.3468 0.02423zm-12.931 1.9712c0-0.0376 0.0779-0.18813 0.17304-0.3345 0.34115-0.52468 2.604-7.2261 2.534-7.5046l-0.0682-0.2715h1.903c2.2678 0 2.9384 0.14976 3.4915 0.77977 0.45629 0.51968 0.57189 1.1031 0.38448 1.9406-0.24968 1.1157-1.2218 2.1287-2.1914 2.2837l-0.46135 0.07377 0.5595 1.0358c0.30772 0.56971 0.712 1.2657 0.89839 1.5465l0.33888 0.51068-1.3477-0.0062-1.3477-0.0062-0.65384-1.3767c-0.35961-0.75718-0.68876-1.3357-0.73145-1.2855-0.1028 0.12076-0.85267 2.1508-0.89058 2.4111-0.0254 0.17406-0.21459 0.20837-1.3101 0.23755-0.70427 0.01875-1.2805 0.0034-1.2805-0.03428zm5.7115-4.9902c0.33096-0.31092 0.39368-0.8475 0.12512-1.0704-0.0943-0.07822-0.4008-0.12539-0.68123-0.10483-0.49387 0.03621-0.51647 0.05622-0.72053 0.63818-0.32413 0.92439-0.31732 0.94024 0.37544 0.87367 0.40972-0.03937 0.70032-0.14792 0.9012-0.33664zm11.652 0.96496v-4.0854h1.282 1.282l-0.11342 0.41079c-0.0624 0.22593-0.0986 1.3158-0.0804 2.4219l0.033 2.0111 1.472-2.2148c0.80958-1.2182 1.472-2.308 1.472-2.4219 0-0.18449 0.15727-0.20708 1.4419-0.20708 0.79306 0 1.4419 0.01947 1.4419 0.04327s-0.19853 0.25361-0.44118 0.51068c-0.4804 0.50897-5.3193 6.9141-5.5523 7.3494-0.13122 0.24518-0.23066 0.26753-1.1904 0.26753h-1.0472v-4.0854zm5.7633 3.7749c0.31-0.47312 2.7171-7.0248 2.7443-7.4693l0.0238-0.38998 2.6265-0.000481 2.6265-0.00048-0.0767 0.30529c-0.0421 0.16791-0.18194 0.58697-0.31066 0.93124l-0.23404 0.62595h-1.3422-1.3422l-0.14539 0.42056c-0.0799 0.23131-0.18598 0.54912-0.23559 0.70624l-0.0902 0.28568 1.0944-0.05232c0.60193-0.02889 1.0944-0.03078 1.0944-0.0043 0 0.02647-0.14153 0.44679-0.3145 0.93403l-0.31449 0.88589-1.154 0.03422-1.154 0.03422-0.21164 0.57076-0.21164 0.57076h1.429 1.429l-0.31514 0.96128-0.31513 0.96128h-2.752-2.752l0.20347-0.31054zm6.3128 0.21441c0-0.05287 0.0512-0.1475 0.11371-0.21028 0.0626-0.06279 0.68699-1.6822 1.3876-3.5988 0.88795-2.4289 1.2613-3.603 1.2322-3.8752l-0.0417-0.39052h1.7724c2.0356 0 2.8437 0.13631 3.3541 0.56574 0.57533 0.4841 0.75193 0.93665 0.67907 1.7401-0.12162 1.3413-1.082 2.5147-2.2198 2.7122l-0.5115 0.08877 0.66995 1.2016c0.36847 0.66088 0.77599 1.3503 0.90561 1.532l0.23567 0.33044h-1.3694-1.3694l-0.63833-1.3218c-0.35108-0.72697-0.67075-1.3218-0.71038-1.3218-0.0958 0-0.85014 2.1645-0.84799 2.4332 0.002 0.18762-0.14071 0.21028-1.3201 0.21028-0.72697 0-1.3218-0.04326-1.3218-0.09613zm5.6568-4.9414c0.6401-0.64009 0.38914-1.2108-0.5324-1.2108-0.39878 0-0.42873 0.03016-0.6262 0.63084-0.11408 0.34696-0.23235 0.69843-0.26284 0.78104-0.0393 0.10667 0.10768 0.1502 0.50738 0.1502 0.46186 0 0.62584-0.06301 0.91406-0.35124zm-41.554 1.5252c0.0318-0.08392 0.18131-0.53667 0.33215-1.0061l0.27425-0.85352 2.867-0.93774c1.5768-0.51576 2.8962-0.90858 2.9318-0.87294 0.0357 0.03564 0.0321 0.19517-0.008 0.3545-0.0626 0.24963-0.3169 0.37526-1.8383 0.90833l-1.7656 0.61863 1.472 0.007c1.6905 0.0081 1.6318-0.04844 1.194 1.1486l-0.26363 0.72096-2.6268 0.03242c-2.084 0.02572-2.6149 0.000801-2.569-0.12016zm3.6946-6.3824c0-0.02289 0.0766-0.19862 0.17023-0.39052 0.41079-0.84196 2.5935-7.0507 2.5935-7.3772v-0.36153h1.3849 1.3849l-0.17616 0.34065c-0.15513 0.3-2.2332 5.7583-2.2332 5.8658 0 0.02303 0.56775 0.04188 1.2617 0.04188 0.69392 0 1.2617 0.03204 1.2617 0.07122 0 0.03916-0.14219 0.47174-0.31598 0.96128l-0.31598 0.89007h-2.5078c-1.3793 0-2.5078-0.01873-2.5078-0.04162zm8.2309-3.7924c1.4209-2.1087 2.5835-3.9471 2.5835-4.0854 0-0.23936 0.0613-0.25145 1.2745-0.25145 1.0856 0 1.2642 0.02681 1.2051 0.18091-0.0791 0.206 0.24982 7.4526 0.35297 7.7776 0.0615 0.19381-0.0421 0.21239-1.1847 0.21239h-1.2521l0.0577-0.6008 0.0578-0.6008h-1.3165-1.3165l-0.2814 0.6008-0.2814 0.6008h-1.2412-1.2412l2.5835-3.834zm3.0641-0.33156c0-0.63885-0.021-1.139-0.0467-1.1115-0.0257 0.02754-0.34896 0.55023-0.71839 1.1615l-0.67168 1.1115h0.7184 0.71839v-1.1615zm2.9185 3.96c0.0358-0.11824 0.66453-1.8511 1.3971-3.8509 0.73256-1.9997 1.3319-3.7454 1.3319-3.8794 0-0.23096 0.0635-0.24174 1.2316-0.20926l1.2316 0.03425 0.23467 1.8925c0.12907 1.0409 0.26897 1.8925 0.31089 1.8925 0.11171 0 1.3169-3.2822 1.3169-3.5864 0-0.24643 0.0534-0.25874 1.1237-0.25874h1.1237l-1.4594 3.9365c-0.80264 2.1651-1.5008 4.0035-1.5514 4.0854-0.12872 0.20826-2.1077 0.20708-2.1809-0.0013-0.029-0.08261-0.13601-0.8261-0.23778-1.6522-0.34201-2.7762-0.23359-2.7196-1.0383-0.54178-0.38832 1.051-0.6926 1.9949-0.67617 2.0975 0.0249 0.15553-0.15771 0.19238-1.0969 0.22134-1.0352 0.03193-1.1214 0.0173-1.0616-0.18024zm8.0161 0.12284c0-0.06024 0.0482-0.1609 0.10713-0.22368 0.23151-0.2467 2.6566-7.0633 2.6566-7.4673v-0.42538l1.9526 0.05306c2.0694 0.05624 2.5941 0.17629 3.1984 0.73189 1.5094 1.3876 0.47459 5.0787-1.8339 6.5417-1.019 0.6458-1.6601 0.78269-3.948 0.84303-1.2449 0.03283-2.1328 0.01065-2.1328-0.05328zm4.4216-2.0975c0.63665-0.30819 1.1277-1.0189 1.4706-2.1282 0.31651-1.0241 0.30235-1.4039-0.0661-1.7723-0.23195-0.23195-0.40206-0.29346-0.73265-0.2649l-0.43055 0.03719-0.76813 2.1629c-0.42247 1.1896-0.76868 2.1764-0.76936 2.1929-0.006 0.1328 0.86884-0.0207 1.2962-0.2276zm5.2045 0.63165c0.12865-0.36906 0.0705-0.34172 2.6302-1.2366l1.1415-0.39908-1.5803-0.03344-1.5803-0.03345 0.3186-0.89721 0.3186-0.89721 2.6135-0.000601c1.4374-0.00036 2.6101 0.03997 2.6059 0.08954-0.004 0.04957-0.15284 0.4917-0.33044 0.98251l-0.3229 0.89239-2.8218 0.94005c-1.552 0.51705-2.8875 0.94007-2.9677 0.94007-0.10865 0-0.11501-0.08856-0.0249-0.34694z"/>
 </g>
</svg>
