<?xml version="1.0" encoding="UTF-8" standalone="no"?>
<!-- Created with Inkscape (http://www.inkscape.org/) -->
<svg id="svg2" xmlns:rdf="http://www.w3.org/1999/02/22-rdf-syntax-ns#" xmlns="http://www.w3.org/2000/svg" height="45" width="67.5" version="1.1" xmlns:cc="http://creativecommons.org/ns#" xmlns:dc="http://purl.org/dc/elements/1.1/">
 <metadata id="metadata7">
  <rdf:RDF>
   <cc:Work rdf:about="">
    <dc:format>image/svg+xml</dc:format>
    <dc:type rdf:resource="http://purl.org/dc/dcmitype/StillImage"/>
    <dc:title/>
   </cc:Work>
  </rdf:RDF>
 </metadata>
 <g id="g13927">
  <rect id="rect2990" opacity="0" height="45" width="67.5" y="0" x="3.5527e-15"/>
  <g id="g16844" transform="matrix(.78210 0 0 .78210 225.32 -923.1)">
   <g id="g16928" transform="translate(-317.62,350.72)">
    <g id="g16991" transform="translate(-50.48,60)">
     <g id="g17026" transform="translate(-14.694,56.175)">
      <g id="g17167" transform="translate(-43.127,132.01)">
       <g id="g17278" transform="translate(-81.509,191.32)">
        <g id="g17299">
         <g id="g17304" fill-rule="evenodd" clip-rule="evenodd" transform="matrix(.5121 0 0 .5121 106.12 215.87)">
          <path id="path17284" d="m389.62 396.34c0 23.371-37.729 42.314-84.266 42.314-46.54 0-84.268-18.943-84.268-42.314 0-23.368 37.728-42.313 84.268-42.313 46.537 0 84.266 18.945 84.266 42.313zm-84.27-38.98c-44.714 0-80.964 17.453-80.964 38.981 0 21.529 36.25 38.982 80.964 38.982 44.712 0 80.961-17.453 80.961-38.982 0.001-21.528-36.248-38.981-80.961-38.981z"/>
          <path id="path17286" d="m384.22 396.34c0 20.373-35.31 36.886-78.866 36.886-43.558 0-78.867-16.514-78.867-36.886 0-20.37 35.31-36.884 78.867-36.884 43.556 0 78.866 16.514 78.866 36.884zm-28.321-17.268h-13.526l-1.647 4.71h8.755l-9.986 3.458-0.66 1.91 15.366-5.039 1.698-5.039zm-86.241 8.266h-5.51s5.106-13.611 5.516-14.64c0.728-1.823 1.164-1.698 1.164-1.698h-7.61c0.941 0.451 0.107 2.228 0.107 2.228s-6.095 16.974-6.52 17.822c-0.425 0.849-0.743 0.956-0.743 0.956h13.18l1.843-5.027c-0.159 0.479-1.427 0.359-1.427 0.359zm23.118 4.647h6.208s-0.425-0.63-0.16-1.319c0.368-0.957 3.661-9.919 3.661-9.919l1.432 11.238h5.623l7.371-19.991s0.302-0.938 0.713-0.938l-5.975-0.018s0.171 0.69-0.042 1.221c-0.211 0.531-3.607 9.601-3.607 9.601l-1.326-10.822h-6.417s0.332 0.53 0.12 1.113c-0.173 0.473-6.804 18.672-6.804 18.672s-0.425 1.162-0.797 1.162zm28.38-20.94s0.529 0.849-0.161 2.811c-0.689 1.963-6.1 16.55-6.1 16.55s-0.426 1.372-1.008 1.639l8.487-0.009s10.289 0.38 13.473-10.435c0 0 4.031-10.662-7.639-10.555h-7.052v-0.001zm0.901 16.159s0.027-0.008 0.98-0.008c1.443 0 4.118-0.318 5.915-4.694 2.953-7.191-1.167-6.948-1.167-6.948h-1.592l-4.136 11.65zm-75.48 21.718h13.525l1.646-4.711h-8.754l9.986-3.457 0.662-1.91-15.368 5.041-1.697 5.037zm23.703 8.687c-0.213 0-0.213-0.684-0.213-0.684l2.488-6.602s3.099 6.082 3.312 6.506c0.212 0.424 0.105 0.779 0.105 0.779h7.414c-0.708 0-1.437-1.344-1.437-1.344l-3.691-6.625c5.163 0 6.814-5.117 6.814-5.117 2.546-8.132-6.022-7.92-6.022-7.92h-8.769c0.636 0.707 0.14 2.193 0.14 2.193s-5.445 15.568-5.869 16.771c-0.425 1.201-1.203 2.041-1.203 2.041s7.292 0.002 6.931 0.002zm5.255-16.175-1.437 4.223h1.344s2.618 0.23 3.583-1.85c0 0 1.13-2.385-2.028-2.385-0.691 0-1.462 0.012-1.462 0.012zm71.461 16.253c-0.529 0.012-0.16-1.287-0.16-1.287l2.22-6s2.992 6.084 3.202 6.508c0.213 0.426 0.107 0.777 0.107 0.777h7.678c-0.708 0-1.486-1.344-1.486-1.344l-3.692-6.623c5.165 0 6.719-4.934 6.719-4.934 2.712-8.516-5.925-8.104-5.925-8.104h-8.699c0.638 0.707 0.143 2.191 0.143 2.191s-5.673 15.629-6.099 16.832c-0.424 1.203-1.238 1.971-1.238 1.971l7.23 0.013zm5.057-11.955s2.598 0.197 3.393-1.838c0.938-2.398-1.403-2.334-1.403-2.334h-1.92l-1.414 4.172h1.344zm-57.812 12.399c7.653 0 12.208-7.508 12.208-12.895 0-5.648-2.322-9.174-7.626-9.174-6.766 0-11.179 5.135-12.319 11.516-1.046 5.871 2.269 10.553 7.737 10.553zm0.482-4.965c1.909 0.354 4.008-1.021 5.104-5.41 1.662-6.643-1.401-6.699-1.961-6.768-1.693-0.205-3.955 1.746-4.873 5.813-0.421 1.857-0.867 5.883 1.73 6.365zm13.543-16.484s0.526 0.281 0.526 1.625v18.178s-0.073 0.994-0.448 1.201h5.687s0-0.424 0.563-1.131c0.566-0.707 12.378-16.549 12.378-16.549s2.693-3.324 3.399-3.324h-8.139s0.638 0.424 0.143 1.201c-0.495 0.779-7.73 11.6-7.73 11.6l0.092-10.914s-0.013-1.75 0.689-1.896l-7.16 0.009zm34.38 4.955 1.839-4.961-13.79 0.002s0.494 0.436-0.141 2.205c-0.638 1.768-6.225 16.828-6.225 16.828s-0.99 1.98-1.271 1.98h14.214l1.698-5.021s-0.212 0.283-1.556 0.283h-6.013l1.274-3.395h4.666s0.99-0.07 1.203 0.213l1.909-5.365s-0.14 0.484-1.415 0.484h-4.526l1.346-3.746h5.728s0.778-0.107 1.06 0.493zm-71.893-9.633h6.803s-0.021-0.522 0.156-0.861c0.323-0.613 1.167-2.092 1.167-2.092h6.847l0.014 1.845s0.035 0.636-0.469 1.126h6.79s-0.504-0.283-0.597-1.118l-0.852-18.458s-0.037-1.18 0.525-1.428h-6.736s0.472 0.583-0.43 1.909c-0.901 1.326-12.408 18.388-12.408 18.388s-0.228 0.437-0.81 0.689zm14.843-13.843-3.781 6.152h3.835l-0.054-6.152z"/>
         </g>
        </g>
       </g>
      </g>
     </g>
    </g>
   </g>
  </g>
 </g>
</svg>
