<?xml version="1.0" encoding="UTF-8" standalone="no"?>
<!-- Created with Inkscape (http://www.inkscape.org/) -->
<svg id="svg2" xmlns:rdf="http://www.w3.org/1999/02/22-rdf-syntax-ns#" xmlns="http://www.w3.org/2000/svg" height="45" width="67.5" version="1.1" xmlns:cc="http://creativecommons.org/ns#" xmlns:dc="http://purl.org/dc/elements/1.1/">
 <metadata id="metadata7">
  <rdf:RDF>
   <cc:Work rdf:about="">
    <dc:format>image/svg+xml</dc:format>
    <dc:type rdf:resource="http://purl.org/dc/dcmitype/StillImage"/>
    <dc:title/>
   </cc:Work>
  </rdf:RDF>
 </metadata>
 <g id="g14090">
  <rect id="rect2990" opacity="0" height="45" width="67.5" y="0" x="3.5527e-15"/>
  <path id="path14088" d="m6.1071 28.319c-0.97137-0.17138-2.5579-0.7482-3.3191-1.2067-0.98433-0.59296-2.123-1.849-2.4502-2.7027-0.3692-0.96326-0.44509-2.3149-0.18148-3.232 0.55815-1.9418 2.4052-3.5178 4.985-4.2534 1.6748-0.47756 5.505-0.44572 6.1849 0.05141 0.27138 0.19843 0.23593 0.25801-1.6145 2.7142-2.3849 3.1656-2.8574 3.984-2.5288 4.3799 0.1253 0.151 0.72722 0.17846 3.911 0.17846h3.7629l0.20127-0.30718c0.30173-0.4605 0.35941-1.8896 0.11151-2.7627-0.37576-1.3234-1.391-2.4674-2.7245-3.0701-0.62086-0.28059-0.67723-0.38619-0.401-0.75127 0.16916-0.22356 0.20501-0.21537 1.1871 0.27128 1.2944 0.64141 2.2851 1.592 2.8459 2.7308 0.38338 0.77845 0.40539 0.89231 0.40539 2.0976 0 1.2193-0.0182 1.3101-0.42005 2.0996-0.24622 0.48371-0.5442 0.88966-0.72007 0.98096-0.2342 0.1216-1.327 0.14868-4.9805 0.12343-4.4571-0.0308-4.7005-0.044-5.1005-0.27645-0.83555-0.48558-1.0071-1.3612-0.49192-2.5111 0.23628-0.52737 1.7142-2.6246 3.0272-4.2955 0.4538-0.57754 0.82509-1.1041 0.82509-1.1701 0-0.18243-1.4497-0.14427-2.4953 0.06569-2.0482 0.41126-3.6959 1.5366-4.4255 3.0225-0.30449 0.6201-0.3399 0.81742-0.3399 1.8942 0 1.1152 0.0283 1.2596 0.39293 2.0008 1.4864 3.0219 6.4707 4.2904 10.22 2.6009 0.4245-0.19129 0.94745-0.48176 1.1621-0.6455 0.31488-0.24018 0.52522-0.29672 1.0884-0.29259l0.69808 0.0051-0.52225 0.45871c-0.64785 0.56902-1.9871 1.2401-3.1535 1.5803-1.0135 0.29555-3.992 0.42387-5.1395 0.22141zm14.425-2.764c-1.0765-0.53285-1.349-1.334-1.349-3.9663v-1.9011h1.0801 1.0801v1.9862c0 2.232 0.0904 2.5768 0.73434 2.8013 0.23192 0.08085 1.3599 0.13302 2.8759 0.13302 2.4554 0 2.4956-0.0041 2.5771-0.26089 0.0455-0.14349 0.3266-0.52153 0.62457-0.84009l0.54177-0.57919h-0.79879-0.79879l0.0791-0.33004c0.20774-0.86638 1.0847-1.9238 1.9657-2.3703 0.9253-0.46889 1.7267-0.54005 6.0817-0.54005h4.1174l1.3909 1.0292c0.76846 0.56861 1.4649 1.0008 1.5562 0.96574 0.0909-0.03489 0.81401-0.49803 1.6068-1.0292l1.4415-0.96574h1.8516 1.8516l0.0421 2.0157c0.0459 2.1947 0.14472 2.5501 0.77627 2.7902 0.16586 0.06306 1.242 0.11466 2.3915 0.11466h2.0899l0.0325-2.4303 0.0325-2.4303 1.0501-0.03468 1.0501-0.03468v2.4709 2.4709l4.0022-0.03601c4.2079-0.03786 4.3987-0.06311 4.3987-0.58219 0-0.11922-0.0849-0.30162-0.1886-0.40535-0.16304-0.16304-0.67513-0.18859-3.7804-0.18859h-3.5918v-0.45867c0-1.1301 0.86477-2.4598 1.9126-2.9408 0.50796-0.23321 0.80204-0.25464 4.058-0.29567l3.5104-0.04424v0.66958 0.66958l-3.1503 0.0026c-2.8036 0.0024-3.1785 0.02549-3.4063 0.21002-0.26624 0.21566-0.5241 0.63855-0.5241 0.85953 0 0.08706 0.94838 0.12812 2.9703 0.12857 1.7858 0.00036 3.1595 0.0532 3.4447 0.13238 1.5632 0.434 1.8231 2.331 0.42567 3.1073l-0.54005 0.30003-8.5083 0.03387c-9.514 0.03787-9.2516 0.05839-10.056-0.78625-0.60531-0.63584-0.69808-1.034-0.69808-2.9959 0-0.95275-0.0474-1.7143-0.10518-1.6923-0.20718 0.0788-3.3704 2.2016-3.3728 2.2634-0.002 0.03473 0.95421 0.76381 2.1234 1.6202l2.1259 1.557-1.6437 0.03338-1.6437 0.03338-1.396-1.033-1.396-1.033-1.5456 1.0296-1.5456 1.0296-8.6717-0.000095c-8.5787-0.000094-8.6772-0.0028-9.1829-0.25315zm18.662-1.7661 1.2293-0.81882-1.7921-1.3338c-1.7408-1.2956-1.7932-1.3245-1.8294-1.0112l-0.0373 0.32261-2.9403 0.06001c-2.0712 0.04227-3.0198 0.1054-3.2091 0.21358-0.23038 0.13163-0.63131 0.71627-0.63131 0.92058 0 0.03628 1.4312 0.06597 3.1803 0.06597h3.1803v0.60006 0.60006h-2.5262c-2.7005 0-3.0082 0.05654-3.4071 0.62608-0.4063 0.58008-0.44492 0.57406 3.6831 0.57383l3.8704-0.00024 1.2293-0.81882z"/>
 </g>
</svg>
