<?xml version="1.0" encoding="UTF-8" standalone="no"?>
<!-- Created with Inkscape (http://www.inkscape.org/) -->
<svg id="svg2" xmlns:rdf="http://www.w3.org/1999/02/22-rdf-syntax-ns#" xmlns="http://www.w3.org/2000/svg" height="45" width="67.5" version="1.1" xmlns:cc="http://creativecommons.org/ns#" xmlns:dc="http://purl.org/dc/elements/1.1/">
 <metadata id="metadata7">
  <rdf:RDF>
   <cc:Work rdf:about="">
    <dc:format>image/svg+xml</dc:format>
    <dc:type rdf:resource="http://purl.org/dc/dcmitype/StillImage"/>
    <dc:title/>
   </cc:Work>
  </rdf:RDF>
 </metadata>
 <g id="g14142">
  <rect id="rect2990" opacity="0" height="45" width="67.5" y="0" x="3.5527e-15"/>
  <path id="path14140" d="m3.6901 28.042c-1.3501-0.19966-2.5162-0.8182-3.0862-1.6371-0.56568-0.81268-0.59249-1.0525-0.59808-5.3489l-0.006-4.0546 1.7105 0.03331 1.7105 0.03331 0.06 4.0491 0.06 4.0491 0.39218 0.39225 0.39218 0.39226 2.9689 0.06002 2.9689 0.06002v1.0203 1.0203l-2.9409 0.0164c-1.6175 0.009-3.2522-0.02964-3.6328-0.08591zm11.627-0.06758c-2.7637-0.59255-4.2735-2.4949-4.2735-5.3846 0-2.3614 1.0184-4.0995 2.9246-4.9916 1.3002-0.60842 2.0744-0.70584 5.628-0.70815l3.211-0.0021v1.1404 1.1404h-3.1632c-3.08 0-3.174 0.0071-3.5711 0.27021-0.23701 0.15702-0.54616 0.54317-0.73798 0.9218-0.59586 1.1762-0.8828 1.0887 3.5711 1.0887h3.9012v1.1404 1.1404h-3.9012c-4.4539 0-4.167-0.08748-3.5711 1.0887 0.19182 0.37864 0.50097 0.76479 0.73798 0.92181 0.39714 0.2631 0.4911 0.27021 3.5711 0.27021h3.1632v1.0803 1.0803l-3.331-0.0098c-2.4551-0.0072-3.5488-0.05647-4.1591-0.18733zm39.06-0.94324v-1.1404l3.9312-0.000721c2.3111-0.00036 4.1136-0.05131 4.3737-0.12355 0.48238-0.13398 1.058-0.72144 1.058-1.0797 0-0.4232-0.27307-0.825-0.70685-1.0401-0.37039-0.18363-0.8879-0.22485-3.5545-0.28308-3.4678-0.07574-3.9302-0.16743-4.907-0.97308-1.792-1.478-1.0977-4.5783 1.1935-5.3291 0.65958-0.21611 1.0833-0.23349 5.6942-0.23349h4.9816l0.03468 1.0503 0.03468 1.0503-3.9959 0.00072c-2.4428 0.00036-4.1739 0.0501-4.4539 0.12783-0.85311 0.2369-1.13 0.80247-0.75144 1.5346 0.29496 0.57038 0.57173 0.61743 3.6458 0.61968 3.0099 0.0022 4.0094 0.12033 4.9114 0.58048 0.60638 0.30935 1.2818 1.0594 1.4879 1.6525 0.21147 0.60835 0.18852 2.0314-0.04153 2.5752-0.43667 1.0322-1.4631 1.776-2.7891 2.0212-0.43347 0.08008-2.5351 0.13073-5.4269 0.13073h-4.7194v-1.1404zm-30.61 0.95563c0-0.03558 1.11-1.3098 2.4667-2.8315 2.1582-2.4209 2.4472-2.7916 2.3107-2.9653-0.20981-0.26711-3.762-4.3001-4.2206-4.7918l-0.36382-0.39012 2.0342 0.000481 2.0342 0.000481 1.31 1.4999c0.7205 0.82507 1.3457 1.5 1.3892 1.5 0.0436 0 0.66948-0.67322 1.3908-1.496l1.3116-1.496 1.9692-0.0044c1.8635-0.0042 1.9597 0.0069 1.7912 0.20564-0.0979 0.11554-1.1326 1.2978-2.2993 2.6272s-2.1213 2.4562-2.1213 2.5038c0 0.0702 2.7038 3.1937 4.5454 5.2509l0.40409 0.45141h-1.9796-1.9796l-1.4833-1.6805c-0.81582-0.92429-1.5157-1.6805-1.5554-1.6805-0.0396 0-0.73268 0.75624-1.5401 1.6805l-1.468 1.6805h-1.9732c-1.0853 0-1.9732-0.02911-1.9732-0.06468zm18.846-0.12258c-1.1668-0.25151-2.4058-0.90999-3.0405-1.6159-0.88851-0.98824-0.92074-1.1801-0.92074-5.4805v-3.7598h1.7339 1.7339l0.0367 3.5111c0.0395 3.7848 0.0544 3.8776 0.74094 4.6331 0.55498 0.61074 1.1234 0.79857 2.4167 0.79857 1.3766 0 1.9302-0.20901 2.5522-0.96357 0.58005-0.7037 0.62878-1.065 0.62878-4.6621v-3.3171h1.7466 1.7465l-0.03602 3.9912-0.03601 3.9912-0.32346 0.55021c-0.66603 1.1329-1.9917 1.9798-3.6483 2.3308-1.0776 0.22829-4.2584 0.22392-5.3312-0.0073z"/>
 </g>
</svg>
