<?xml version="1.0" encoding="UTF-8" standalone="no"?>
<!-- Created with Inkscape (http://www.inkscape.org/) -->
<svg id="svg2" xmlns:rdf="http://www.w3.org/1999/02/22-rdf-syntax-ns#" xmlns="http://www.w3.org/2000/svg" height="54" width="99" version="1.1" xmlns:cc="http://creativecommons.org/ns#" xmlns:dc="http://purl.org/dc/elements/1.1/">
 <metadata id="metadata7">
  <rdf:RDF>
   <cc:Work rdf:about="">
    <dc:format>image/svg+xml</dc:format>
    <dc:type rdf:resource="http://purl.org/dc/dcmitype/StillImage"/>
    <dc:title/>
   </cc:Work>
  </rdf:RDF>
 </metadata>
 <g id="g3305">
  <g id="g3345">
   <g id="g3722">
    <g id="g3757">
     <g id="g3952">
      <g id="g4047">
       <g id="g4079">
        <g id="g4116">
         <g id="g4159">
          <g id="g4184">
           <g id="g4225">
            <g id="g4264">
             <g id="g4289">
              <g id="g4304">
               <g id="g4413">
                <g id="g4448">
                 <g id="g4472">
                  <g id="g4680">
                   <g id="g4737">
                    <g id="g4823">
                     <g id="g4901">
                      <g id="g4966">
                       <g id="g5048">
                        <g id="g5083">
                         <g id="g5131">
                          <g id="g5167">
                           <g id="g5212">
                            <g id="g5245">
                             <g id="g5325">
                              <g id="g5374">
                               <g id="g5399">
                                <g id="g5004">
                                 <rect id="rect2990" opacity="0" height="54" width="99" y="0" x="0"/>
                                </g>
                                <g id="g3676" fill-rule="evenodd" transform="translate(4.5002929,19.473486)">
                                 <path id="path17350" d="m-0.0018857,0.34211v9.7524c0.030214,2.7336,1.8615,4.9551,6.7848,4.9551h6.8791v-2.7048h-6.879c-2.2793-0.09522-2.2302-2.2772-2.2302-2.2772v-9.7259h-4.5546z"/>
                                 <path id="path17352" d="M30.442,6.134h-10.509c0.48035-3.0086,2.5072-3.0839,2.5072-3.0839h8.0021v-2.8939h-8.1444s-7.5909-0.047625-7.5909,7.5432c0,7.5909,7.5909,7.3538,7.5909,7.3538h8.1444v-2.7044h-8.0021s-2.0899-0.07784-2.5282-3.2257h10.53v-2.9895z"/>
                                 <polygon id="polygon17354" points="289.49,410.98,297.46,401.9,305.52,410.98,315.62,410.98,315.62,410.98,302.55,396.09,314.69,382.26,304.59,382.26,297.46,390.29,290.42,382.26,280.04,382.26,292.32,396.1,279.11,410.98" transform="matrix(0.51209979,0,0,0.51209979,-111.38359,-195.45924)"/>
                                 <path id="path17356" d="m88.556-0.00099215-12.407,0c-2.384,0.24614-4.291,0.91661-4.792,4.2699,0,4.2694,4.7912,4.5065,6.3096,4.5065h5.4559s1.8502,0.23813,1.8502,1.5184c0,1.2813-1.2808,1.7555-1.8031,1.7555h-10.723v2.9896h12.573s4.9817,0.09525,4.9817-4.6028c0-4.6965-5.3135-4.5065-5.6454-4.5065h-6.4996s-1.8118-0.14544-1.7084-1.8031c0.09525-1.5179,2.6097-1.3284,2.6097-1.3284h9.7975z"/>
                                 <path id="path17358" d="m60.498,15.019c9.0739,0,8.8066-5.4262,8.8066-5.4262v-9.3403h-4.6707v8.762s-0.13366,3.2918-4.2253,3.2918c-4.0922,0-4.2258-3.2918-4.2258-3.2918v-8.7614h-4.6699v9.3402s-0.2668,5.4262,8.8066,5.4262h0.1777z"/>
                                </g>
                               </g>
                              </g>
                             </g>
                            </g>
                           </g>
                          </g>
                         </g>
                        </g>
                       </g>
                      </g>
                     </g>
                    </g>
                   </g>
                  </g>
                 </g>
                </g>
               </g>
              </g>
             </g>
            </g>
           </g>
          </g>
         </g>
        </g>
       </g>
      </g>
     </g>
    </g>
   </g>
  </g>
 </g>
</svg>
