<?xml version="1.0" encoding="UTF-8" standalone="no"?>
<!-- Created with Inkscape (http://www.inkscape.org/) -->
<svg id="svg2" xmlns:rdf="http://www.w3.org/1999/02/22-rdf-syntax-ns#" xmlns="http://www.w3.org/2000/svg" height="45" width="67.5" version="1.1" xmlns:cc="http://creativecommons.org/ns#" xmlns:dc="http://purl.org/dc/elements/1.1/">
 <metadata id="metadata7">
  <rdf:RDF>
   <cc:Work rdf:about="">
    <dc:format>image/svg+xml</dc:format>
    <dc:type rdf:resource="http://purl.org/dc/dcmitype/StillImage"/>
    <dc:title/>
   </cc:Work>
  </rdf:RDF>
 </metadata>
 <g id="g14316">
  <rect id="rect2990" opacity="0" height="45" width="67.5" y="0" x="3.5527e-15"/>
  <g id="g14227" transform="matrix(.74997 0 0 .74997 -3.3748 2.2509)">
   <rect id="rect17381" y="20.879" width="2.9165" x="25.327" height="13.712"/>
   <polygon id="polygon17383" points="264.78 20.311 231.6 20.311 231.6 144.07 256.28 144.07 256.28 51.388 308.65 144.07 341.83 144.07 341.83 20.311 317.15 20.311 317.15 112.99" transform="matrix(.1108 0 0 .1108 4.5 18.628)"/>
   <polygon id="polygon17385" points="787.63 112.99 735.26 20.311 702.08 20.311 702.08 144.07 726.76 144.07 726.76 51.388 779.13 144.07 812.31 144.07 812.31 20.311 787.63 20.311" transform="matrix(.1108 0 0 .1108 4.5 18.628)"/>
   <path id="path17387" d="m17.578 29.425-0.006-8.547h-2.9047v9.1107c0 2.5346 2.2917 4.5892 4.8187 4.5892l4.7089 0.01174v-2.4286h-3.6608c-1.5068 0-2.9561-1.2251-2.9561-2.7363z"/>
   <path id="path17389" d="m74.407 29.425 0.009-8.547h-2.9048v9.1107c0 2.5346 2.2917 4.5892 4.8187 4.5892l4.7088 0.01174v-2.4286h-3.6608c-1.5066 0-2.9711-1.2251-2.9711-2.7363z"/>
   <path id="path17391" d="m47.043 27.735c0-2.4513 1.2217-4.408 3.6658-4.408l4.6481-0.01019v-2.4334h-5.286c-3.7727 0-6.0717 3.0676-6.0717 6.8516s2.299 6.8516 6.0717 6.8516l5.3165 0.0042v-2.4479h-4.6785c-2.444 0.000111-3.6658-1.9566-3.6658-4.4079z"/>
   <path id="path17393" d="m8.989 26.499c0.0009-0.057 0.0018-0.113 0.0027-0.162-0.0008 0.045-0.0017 0.098-0.0027 0.162z"/>
   <path id="path17395" d="m8.9919 26.315c0.0003-0.0184 0.0006-0.0355 0.0008-0.0514-0.0002 0.0154-0.0006 0.0325-0.0008 0.0514z"/>
   <path id="path17397" d="m8.9933 26.227c0.0002216-0.01152 0.0003324-0.02183 0.0004432-0.03102 0 0.0085-0.0002216 0.01961-0.0004432 0.03102z"/>
   <path id="path17399" d="m5.8122 26.417c0.0008 0.0495 0.0017 0.1019 0.0024 0.1548-0.0008-0.059-0.0016-0.1097-0.0024-0.1548z"/>
   <path id="path17401" d="m5.8082 26.172c0.0004 0.0259 0.0012 0.0771 0.0023 0.1426-0.0011-0.074-0.0019-0.12-0.0023-0.143z"/>
   <path id="path17403" d="m5.8147 27.428c-0.0009 0.0528-0.0017 0.1054-0.0024 0.1548 0.0007-0.0451 0.0015-0.096 0.0024-0.1548z"/>
   <path id="path17405" d="m5.8106 27.684c-0.0011 0.0656-0.0019 0.117-0.0023 0.1431 0.0004-0.023 0.0012-0.0696 0.0023-0.1431z"/>
   <path id="path17407" d="m8.989 27.501c0.001 0.064 0.0019 0.118 0.0027 0.163-0.0009-0.05-0.0018-0.105-0.0027-0.163z"/>
   <path id="path17409" d="m8.9918 27.684c0.0003324 0.01939 0.0005539 0.03667 0.0008863 0.0523-0.0002-0.0162-0.0006-0.0336-0.0009-0.0523z"/>
   <path id="path17411" d="m8.9933 27.773c0.0002216 0.0113 0.0003324 0.02216 0.0004432 0.03069 0-0.0091-0.0002216-0.01928-0.0004432-0.03069z"/>
   <path id="path17413" d="m63.285 20.619c-4.1317 0-6.8209 2.0878-6.8209 7.024-0.04509 5.18 2.6891 7.2068 6.8209 7.2068s6.8659-2.0268 6.8208-7.2068c0-4.9361-2.6891-7.024-6.8208-7.024zm0 11.646c-2.643 0-3.9297-1.3914-3.9297-4.5299s1.2866-4.5299 3.9297-4.5299c2.643 0 3.9296 1.3915 3.9296 4.5299s-1.2866 4.5299-3.9296 4.5299z"/>
   <path id="path17415" d="m9.6555 26.624c-0.0211-3.081-0.2987-6.547-0.7657-7.63l-1.4885-0.366-1.4887 0.366c-0.46687 1.083-0.74441 4.5485-0.76558 7.6289l-0.64704 0.0496v0.65514l0.64704 0.04952c0.021162 3.0803 0.2987 6.546 0.76571 7.629l1.4886 0.36562 1.4886-0.36562c0.4671-1.083 0.7447-4.55 0.7658-7.6303l0.6319-0.0485v-0.65532l-0.6321-0.04838zm-3.2843 7.506c-0.4224-1.808-0.5054-4.792-0.5395-6.724l1.056 0.08088 0.18514 6.6426h-0.70156zm0.5164-7.6181-1.056 0.0809c0.0342-1.9313 0.1171-4.916 0.5395-6.7236h0.70154l-0.18504 6.6427zm1.5437 7.6181h-0.71671l0.18511-6.6425 1.0712-0.0821c-0.0341 1.9316-0.1171 4.9166-0.5396 6.7246zm-0.5316-7.6184-0.1851-6.6426h0.71672c0.4225 1.808 0.5055 4.794 0.5396 6.725l-1.0712-0.082z"/>
  </g>
 </g>
</svg>
