<?xml version="1.0" encoding="UTF-8" standalone="no"?>
<!-- Created with Inkscape (http://www.inkscape.org/) -->
<svg id="svg2" xmlns:rdf="http://www.w3.org/1999/02/22-rdf-syntax-ns#" xmlns="http://www.w3.org/2000/svg" height="45" width="67.5" version="1.1" xmlns:cc="http://creativecommons.org/ns#" xmlns:dc="http://purl.org/dc/elements/1.1/">
 <metadata id="metadata7">
  <rdf:RDF>
   <cc:Work rdf:about="">
    <dc:format>image/svg+xml</dc:format>
    <dc:type rdf:resource="http://purl.org/dc/dcmitype/StillImage"/>
    <dc:title/>
   </cc:Work>
  </rdf:RDF>
 </metadata>
 <g id="g14256">
  <rect id="rect2990" opacity="0" height="45" width="67.5" y="0" x="3.5527e-15"/>
  <path id="path14254" d="m5.6889 28.757c-1.7967-0.29402-3.3858-1.0079-4.212-1.8922-0.93893-1.0049-1.4768-2.5867-1.4768-4.3429 0-1.2629 0.16416-2.0758 0.61048-3.023 0.50458-1.0708 0.60765-1.1234 1.1828-0.60378 0.53742 0.48553 1.2431 0.866 2.6047 1.4043 0.51485 0.20355 1.187 0.53012 1.4937 0.72572 0.62859 0.40093 1.5919 1.3837 1.7965 1.8329 0.13424 0.29464 0.14035 0.29052 0.58229-0.39326 0.58576-0.90627 1.2834-1.462 2.5884-2.0619 0.58731-0.26998 1.3375-0.6187 1.6672-0.77494 0.67686-0.32081 1.6603-1.0118 1.5693-1.1027-0.033-0.03297-0.27247 0.10838-0.53222 0.31411-0.25976 0.20573-0.50662 0.37405-0.5486 0.37405-0.0419 0-0.23277-0.1782-0.42399-0.39599-0.86309-0.983-2.3544-1.4465-4.6794-1.4542-2.3714-0.0079-3.5013 0.32814-4.6014 1.3686-0.34979 0.33083-0.69062 0.6015-0.75737 0.6015-0.0667 0-0.37405-0.22241-0.68286-0.49424-0.54836-0.48269-0.55647-0.49993-0.34651-0.73752 0.41375-0.46824 1.6425-1.1706 2.5485-1.4569 1.8439-0.58248 4.6953-0.68629 6.7729-0.2466 0.99811 0.21124 2.3703 0.84006 2.9568 1.355 0.3629 0.31863 0.42673 0.45315 0.44507 0.93796 0.0255 0.67449 0.13769 0.87226 0.13769 0.24275 0-0.58504 0.16243-0.55418 0.54826 0.10418 0.591 1.0085 0.80429 1.9027 0.81381 3.4119 0.01 1.5058-0.17427 2.3549-0.73314 3.3875-0.69852 1.2907-2.3649 2.3926-4.2249 2.7938-1.206 0.26014-3.8758 0.32602-5.0992 0.12581zm3.9684-0.67956c2.4797-0.439 4.0397-1.542 4.7387-3.35 0.35756-0.92502 0.42834-2.4426 0.16774-3.596-0.11172-0.49445-0.24552-1.0878-0.29734-1.3185-0.0559-0.24864-0.0998-0.31648-0.108-0.16654-0.0157 0.28741-0.9077 0.8114-2.2262 1.3077-1.8878 0.71056-2.9127 1.4305-3.6277 2.5482-0.22718 0.35516-0.43015 0.62779-0.45102 0.60584-0.0209-0.02194-0.2456-0.31597-0.49939-0.65338-0.79964-1.0631-1.4214-1.4753-3.4837-2.3096-1.9963-0.8076-2.3766-1.0696-2.5814-1.7782l-0.16561-0.57289-0.24866 0.47947c-0.38396 0.74034-0.6301 1.6962-0.71237 2.7665-0.0678 0.8824-0.0459 1.038 0.22819 1.622 0.16677 0.35527 0.44479 0.80776 0.61783 1.0055 0.17304 0.19778 0.54328 0.70515 0.82277 1.1275 0.7824 1.1823 2.1629 1.9949 3.8774 2.2824 0.86295 0.14467 3.1327 0.14482 3.9489 0.00024zm-3.9855-0.41378c-1.0488-0.22799-1.6601-0.53078-2.567-1.2715-0.43498-0.3553-0.93618-0.75387-1.1138-0.88573-0.18602-0.13811-0.45795-0.57002-0.64148-1.0189-0.27253-0.66653-0.31824-0.95237-0.31629-1.9778 0.002-0.65927 0.0718-1.4414 0.15661-1.7381l0.15434-0.5394 0.33187 0.65927c0.29046 0.57702 0.33846 0.83124 0.38476 2.0377 0.0455 1.1862 0.0999 1.4827 0.39003 2.1258 0.37695 0.83558 1.2361 1.7284 1.9568 2.0334 1.9267 0.81547 5.1149 0.81798 6.8898 0.0054 0.90488-0.41427 1.4671-0.95339 1.8848-1.8074 0.45667-0.93362 0.61915-1.7852 0.587-3.0763-0.0204-0.81986 0.0216-1.1096 0.21503-1.4832l0.24039-0.46436 0.16669 0.58423c0.22588 0.79174 0.20592 2.3501-0.0406 3.1701-0.15483 0.515-0.40748 0.90248-1.1029 1.6916-1.0344 1.1736-1.8575 1.6861-3.1467 1.9593-1.0125 0.21456-3.4339 0.21235-4.4294-0.0041zm1.9035-2.9764c-0.7253-1.3672-1.4557-1.8864-3.7488-2.6644-1.7506-0.59398-1.8314-0.6505-2.0799-1.4566-0.076-0.24634-0.002-0.22845 1.0337 0.25084 0.61348 0.28385 1.4788 0.66518 1.9229 0.8474 1.1378 0.46686 2.0115 1.1325 2.5549 1.9463 0.25589 0.38326 0.50104 0.74158 0.54478 0.79626 0.0437 0.05467 0.2742-0.22108 0.51215-0.61279 0.45743-0.753 1.258-1.5666 1.8301-1.8598 0.18884-0.0968 0.90971-0.40577 1.602-0.68661 0.69223-0.28084 1.4943-0.64665 1.7824-0.81292l0.5238-0.3023-0.0895 0.28951c-0.24432 0.79046-0.35176 0.87338-1.7563 1.3554-2.4035 0.82488-3.3033 1.4664-4.011 2.8597-0.15906 0.31315-0.30187 0.56937-0.31735 0.56937-0.0155 0-0.15217-0.23376-0.30374-0.51947zm-4.8494-6.5112c1.1788-0.90506 2.5201-1.331 4.526-1.4374 2.2814-0.12095 4.0996 0.2806 5.4887 1.2122 0.89213 0.59832 0.9526 0.6181 1.1527 0.37699 0.34391-0.41439-1.6772-1.4912-3.4076-1.8155-1.3898-0.26048-4.7646-0.19103-5.8708 0.12082-0.95818 0.27013-2.0519 0.80273-2.6218 1.2768-0.4327 0.35989-0.44944 0.39687-0.24679 0.54505 0.3041 0.22236 0.33996 0.21215 0.97964-0.27898zm17.8 4.4235 0.0316-4.0455h5.2142 5.2142l0.57206 0.33626c0.31462 0.18494 0.71918 0.55834 0.899 0.82978 0.297 0.44832 0.3307 0.61368 0.36789 1.8054l0.0409 1.3119 0.34848-0.42277c0.64837-0.78659 1.1308-0.92376 3.2488-0.92376 1.5119 0 1.8936-0.03407 2.0146-0.1798 0.11905-0.14345 0.11905-0.21615 0-0.3596-0.12412-0.14956-0.58017-0.1798-2.7117-0.1798h-2.5625v-1.146-1.146l3.1465 0.03722 3.1465 0.03722 0.57205 0.33626c0.31463 0.18494 0.71919 0.55835 0.89901 0.8298 0.31982 0.48278 0.32777 0.53882 0.36464 2.5705 0.02073 1.1423 0.07467 2.0743 0.11987 2.0711 0.0452-0.0033 1.7273-1.3231 3.7381-2.933l3.6559-2.9271 3.784-0.0037c4.2443-0.0042 4.6251 0.04949 5.4668 0.77 0.61609 0.52735 0.88462 1.1876 0.96771 2.3793l0.06522 0.93545 0.372-0.36001c0.63288-0.61249 1.0918-0.73176 2.8156-0.73176 1.7045 0 1.9315-0.04227 1.9315-0.3596 0-0.11775-0.08532-0.24683-0.1896-0.28684-0.10428-0.04002-1.2101-0.07276-2.4573-0.07276h-2.2677v-1.1492-1.1492l3.0866 0.04189c2.8804 0.03909 3.1186 0.05903 3.566 0.29844 0.55506 0.29699 0.89976 0.64856 1.2146 1.2388 0.19862 0.37235 0.22799 0.76726 0.26116 3.5112l0.03737 3.0917-3.5925-0.03504-3.5925-0.03504-0.46041-0.36904c-0.25323-0.20297-0.59244-0.56958-0.75381-0.81468l-0.29339-0.44565-0.17068 0.33521c-0.25277 0.49644-0.62598 0.86977-1.1257 1.126-0.40701 0.20872-0.73977 0.22807-3.9236 0.22807h-3.4788l-0.03206-2.9269-0.03206-2.9269-3.6961 2.9312-3.6961 2.9312-4.2241-0.03431c-4.226-0.033-4.226-0.033-4.641-0.318-0.229-0.157-0.535-0.453-0.681-0.658l-0.26485-0.37281v0.68755 0.68755h-1.4384-1.4384v-2.6285c0-3.0945 0.034-3.0052-1.1473-3.0052h-0.77057v2.8169 2.8169h-1.3785-1.3785v-2.8169-2.8169h-0.95893-0.95894v2.8169 2.8169h-1.44-1.44l0.0316-4.0455zm18.072 1.3485v-0.5394h-1.3391c-1.0778 0-1.3818 0.03871-1.5583 0.19838-0.26881 0.24327-0.2778 0.4451-0.0309 0.69206 0.14927 0.14926 0.47272 0.18836 1.5583 0.18836h1.3699v-0.5394zm26.131 0v-0.5394h-1.3699c-1.4029 0-1.7466 0.10615-1.7466 0.5394 0 0.43326 0.34371 0.5394 1.7466 0.5394h1.3699v-0.5394zm-8.8807 0.0899c0.51137-0.41942 0.55558-2.2509 0.06736-2.7903-0.18887-0.2087-0.37267-0.2363-1.5737-0.2363h-1.3599v1.6182 1.6182h1.3053c1.0658 0 1.3522-0.03849 1.561-0.20977zm-11.852 2.4465c0.09654-0.08831 0.77788-0.62772 1.5141-1.1987l1.3386-1.0381h1.3884 1.3884v1.1987 1.1987h-2.9025c-2.433 0-2.8741-0.02598-2.727-0.16057zm-2.1619-6.7917v-1.1987h2.9367c1.6152 0 2.9367 0.02071 2.9367 0.04603s-0.63957 0.56472-1.4213 1.1987l-1.4213 1.1526h-1.5155-1.5155v-1.1987z"/>
 </g>
</svg>
