<?xml version="1.0" encoding="UTF-8" standalone="no"?>
<!-- Created with Inkscape (http://www.inkscape.org/) -->
<svg id="svg2" xmlns:rdf="http://www.w3.org/1999/02/22-rdf-syntax-ns#" xmlns="http://www.w3.org/2000/svg" height="45" width="67.5" version="1.1" xmlns:cc="http://creativecommons.org/ns#" xmlns:dc="http://purl.org/dc/elements/1.1/">
 <metadata id="metadata7">
  <rdf:RDF>
   <cc:Work rdf:about="">
    <dc:format>image/svg+xml</dc:format>
    <dc:type rdf:resource="http://purl.org/dc/dcmitype/StillImage"/>
    <dc:title/>
   </cc:Work>
  </rdf:RDF>
 </metadata>
 <g id="g14442">
  <rect id="rect2990" opacity="0" height="45" width="67.5" y="0" x="3.5527e-15"/>
  <g id="g14417" transform="matrix(.74998 0 0 .74998 -3.3742 2.2508)">
   <path id="path17446" d="m8.6901 32.153c-0.5768-0.355-0.7605-0.806-1.6371-1.166-0.8732-1.145-1.2119-2.568-1.2118-3.991 0-1.0392 0.1807-2.0788 0.4654-3.0108l0.8804 1.7526c-0.0526 0.3895-0.0759 0.8117-0.0759 1.2618 0 5.8074 3.8523 6.979 7.9157 6.9658 4.0634 0.01326 7.9157-1.1584 7.9157-6.9658 0-0.59575-0.04059-1.1432-0.11779-1.6449l0.62966-1.2963c0.33166 0.82547 0.51163 1.883 0.49075 2.9476-0.03426 1.716-0.59082 3.4504-1.8788 4.2669l-0.20871 0.3102-0.22256 0.28251-0.23769 0.26291-0.25189 0.24297-0.26538 0.22385-0.27828 0.20531-0.28966 0.18783-0.30104 0.17058-0.31148 0.15428-0.32122 0.13797-0.3299 0.12319-0.33823 0.10876-0.34551 0.09503-0.35255 0.08189-0.3583 0.06992-0.36393 0.05796-0.36897 0.0474-0.3732 0.03649-0.37672 0.02745-0.37953 0.0183-0.38188 0.01h-0.76551l-0.38188-0.01-0.38-0.02-0.375-0.026-0.373-0.037-0.369-0.047-0.364-0.058-0.359-0.07-0.352-0.082-0.346-0.095-0.338-0.109-0.33-0.123-0.321-0.138-0.311-0.154-0.3014-0.171-0.2901-0.188-0.2781-0.205-0.2653-0.224-0.2185-0.219zm-2.3799-10.458-0.121-0.121c-1.0375 1.2582-1.6902 3.0067-1.6902 5.4251 0 7.322 5.9764 8.5094 10.528 8.5094s10.528-1.1874 10.528-8.5094c0-2.4183-0.65277-4.1671-1.6902-5.425l-0.12049 0.11662c-0.02217 0.6401-0.13269 1.3031-0.22478 1.9292 0.45426 0.97915 0.66908 2.1424 0.69982 3.3792 0.06652 3.6372-1.782 7.4585-9.1923 7.7072-4.6586-0.037-7.586-1.473-8.7821-4.475-0.79176-0.503-1.1784-1.43-1.5455-2.3298l-0.01954-0.2425-0.01725-0.6601 0.01725-0.6595 0.05021-0.6244 0.08201-0.5899 0.11192-0.5562 0.14137-0.5234 0.16836-0.492 0.19451-0.4612 0.21905-0.4323 0.2426-0.4033 0.2266-0.3157c0.086348 0.61675 0.19346 1.4355 0.38434 1.5925 2.3576 1.9795 6.5068 1.7243 8.5034 5.7138 2.1695-4.4243 6.0001-3.8654 8.3577-5.8449l0.219-1.8957c-2.749 2.9719-6.486 1.9639-8.577 6.4089-2.2528-4.3638-5.9379-3.2869-8.6941-6.221zm1.8472 1.0621c1.414-2.188 4.0924-2.7324 6.8693-2.7233 2.7299-0.0089 5.3647 0.51715 6.8029 2.6384l1.7011-1.2881-0.000352-0.000704 0.10078-0.07638c-2.136-2.321-5.667-2.8168-8.605-2.8168-3.0003 0-6.619 0.5168-8.7374 2.9656l0.039889 0.03261-0.000352 0.000352 0.058777 0.04716 0.02933 0.02417 0.0002347-0.000117c0.4572 0.44746 0.96261 0.91733 1.4753 1.1859 0.083063 0.03625 0.17657 0.05092 0.26479 0.01126zm15.217-1.4806-0.767 0.4818c-2.273-2-4.696-2.489-7.58-2.469-2.9148-0.01983-5.4716 0.4989-7.7157 2.6334l-0.7862-0.4818 0.2205-0.2348 0.3239-0.3003 0.3408-0.2771 0.357-0.2546 0.3716-0.2335 0.3856-0.212 0.3977-0.1925 0.4088-0.1734 0.4182-0.15543 0.4267-0.13773 0.4336-0.12155 0.4393-0.10547 0.4431-0.09092 0.4465-0.07673 0.4476-0.06382 0.4479-0.0515 0.4464-0.04036 0.4441-0.02957 0.4401-0.02029 0.4342-0.01115 0.4274-0.0039 0.42798 0.0039 0.43455 0.01114 0.44019 0.0203 0.44394 0.02957 0.44664 0.04036 0.44781 0.0515 0.44793 0.06382 0.44605 0.07673 0.44347 0.09092 0.43901 0.10547 0.43373 0.12154 0.42646 0.13773 0.4186 0.15545 0.40839 0.17316 0.39772 0.19276 0.38528 0.212 0.37214 0.23347 0.35689 0.25458 0.34105 0.27688 0.32357 0.30046 0.06629 0.07051zm-8.37 9.3188c-0.9731-2.089-2.0359-3.0314-3.66-3.7052l-4.064-1.37-0.5613-1.549c1.0005 0.76681 2.4724 1.2869 3.8772 1.8293 2.1655 0.82734 3.3432 1.8791 4.4085 4.0314v0.76352h0.000118zc0.97317-2.0883 2.036-3.1661 3.6602-3.8398l4.0194-1.4372 0.5588-1.4998c-1.0007 0.76657-2.5822 1.3492-3.9865 1.8917-2.1657 0.82734-3.1864 1.969-4.2518 4.1211v0.76364h-0.000118zm7.084-6.5674 0.248-0.13 0.242-0.1384 0.234-0.1488 0.227-0.1599 0.168-0.1336 0.157-1.3582-0.2 0.1849-0.277 0.2313-0.282 0.2122-0.284 0.1954-0.288 0.1801-0.29 0.1666-0.293 0.1545-0.293 0.1448-0.588 0.2669c-0.485 0.20625-0.97165 0.40558-1.4566 0.61417l-0.56654 0.26174-0.27781 0.14055-0.25541 0.13949c-0.665 0.5668-0.998 1.1162-1.134 1.697l0.181-0.1472 0.276-0.204 0.28-0.1882 0.283-0.1736 0.285-0.1603 0.288-0.1486 0.288-0.1383 0.288-0.1295 0.578-0.2371c0.55985-0.21657 1.1242-0.4213 1.6803-0.64362l0.26667-0.11134 0.26104-0.11626 0.25541-0.1226zm-4.8583 1.3323-0.02956 0.02112-0.25412 0.20226-0.24802 0.21998-0.24238 0.23922-0.06816 0.07532c-0.232 0.4369-0.335 0.8366-0.325 1.2235l0.197-0.2186 0.261-0.2601 0.116-0.1047c0.06488-0.46036 0.26256-0.92143 0.59282-1.398zm-5.874-0.688-0.003-0.001-0.571-0.249c-0.485-0.198-0.9733-0.388-1.4596-0.586l-0.588-0.256-0.2931-0.14-0.2915-0.149-0.2896-0.162-0.2875-0.175-0.2846-0.191-0.2807-0.208-0.2771-0.227-0.2725-0.248-0.1872-0.188c0.034492 0.23722 0.069805 0.47386 0.10747 0.70967l0.04376 0.24133 0.048336 0.21716 0.051738 0.17833 0.051034 0.12084 0.045286 0.05983 0.20672 0.16366 0.22913 0.16261 0.23875 0.15263 0.24755 0.14383 0.25599 0.13621 0.2635 0.1294 0.27031 0.12412 0.55856 0.2357c0.58742 0.23405 1.1788 0.45696 1.7644 0.6943l0.59833 0.25881 0.29752 0.13973 0.29588 0.14864 0.29271 0.15815 0.28978 0.16965 0.15545 0.09902c-0.3428-0.5698-0.776-1.117-1.2271-1.6628z"/>
   <path id="path17448" d="m56.085 29.654h-3.451l-0.13058-0.0043-0.12835-0.02605-0.11967-0.0501-0.10876-0.0718-0.09573-0.08928-0.07614-0.10442-0.05866-0.11744-0.03484-0.12624-0.01091-0.12835 0.01091-0.13058 0.03484-0.12401 0.05866-0.11744 0.07614-0.10441 0.09573-0.08928 0.10876-0.0718 0.11967-0.0501 0.12835-0.02604 0.13058-0.0043 3.451 0.0022v1.4317zm12.109-7.9505h-7.8179v3.1702h3.9449l3.873-3.1702zm-5.29 10.866h7.8178v-3.2397h-3.6252l-4.1928 3.2398zm12.238-3.225v-4.4264h2.7351l0.22631 0.0066 0.22854 0.01959 0.22408 0.03696 0.22197 0.04576 0.15017 0.05221 0.13703 0.07403 0.12401 0.09784 0.10887 0.1131 0.09139 0.15662 0.07391 0.18713 0.06312 0.20449 0.04787 0.22408 0.03484 0.2371 0.03696 0.24802 0.01091 0.26115v0.27195l-0.01091 0.26115-0.02393 0.24802-0.02393 0.24802-0.04787 0.2371-0.05878 0.2242-0.05866 0.20238-0.08271 0.17622-0.09573 0.1436-0.0935 0.11744-0.09785 0.09362-0.13281 0.0718-0.14571 0.05655-0.15662 0.04564-0.16753 0.03484-0.18713 0.01736-0.19581 0.0066-0.20015 0.0022-2.7354 0.0023zm15.721-1.1387v1.4491h-3.3663l-0.15017-0.0043-0.14583-0.03473-0.13492-0.06312-0.11744-0.08916-0.09784-0.11321-0.07391-0.12835-0.04575-0.1436-0.01525-0.14794 0.01525-0.14794 0.04575-0.14149 0.0718-0.13046 0.09784-0.11321 0.11967-0.08916 0.13492-0.06312 0.1436-0.03484 0.15017-0.0043h3.3681v-0.0012zm-19.406 4.3628h8.2922l0.31336-0.01736 0.3089-0.04575 0.30468-0.07403 0.29588-0.10007 0.28509-0.12835 0.27195-0.15228 0.2567-0.17844 0.25236-0.21106 0.23065-0.23276 0.20895-0.25458 0.14794-0.22197 0.13269-0.23065 0.1131-0.23933 0.0935-0.24802 0.07614-0.2567 0.06312 0.23065 0.08048 0.22408 0.09573 0.21751 0.11098 0.21106 0.12401 0.20449 0.13926 0.1937 0.15228 0.18278 0.16542 0.17187 0.17622 0.15885 0.18712 0.14794 0.19804 0.13269 0.20672 0.11967 0.21317 0.10453 0.22197 0.08916 0.22631 0.07391 0.23276 0.05655 0.23288 0.0413 0.2371 0.02393 0.23933 0.0066h8.1573v-7.3671l-0.004-0.25232-0.026-0.2503-0.044-0.2459-0.061-0.2436-0.08-0.2394-0.096-0.2306-0.11321-0.2242-0.13046-0.2154-0.143-0.2046-0.161-0.1936-0.172-0.1828-0.187-0.1696-0.198-0.1546-0.209-0.1392-0.217-0.124-0.228-0.1067-0.234-0.0914-0.241-0.0718-0.244-0.0566-0.248-0.0369-0.25-0.0196h-7.5191v2.9375h6.0597l0.15662 0.0066 0.14794 0.05866 0.11978 0.1023 0.08048 0.13492 0.0305 0.15439-0.0217 0.15662-0.0718 0.14149-0.1131 0.10876-0.14149 0.06746-0.15662 0.01748h-3.4595l-0.25024 0.0087-0.24802 0.02616-0.24802 0.04575-0.24156 0.06312-0.2371 0.0806-0.23065 0.09784-0.22197 0.11533-0.214 0.1304-0.202 0.1459-0.194 0.1609-0.178 0.1762-0.166 0.1872-0.152 0.198-0.137 0.2108-0.033-0.8638-0.017-0.2503-0.017-0.2611-0.02-0.3264-0.035-0.322-0.05-0.3221-0.065-0.3177-0.072-0.261-0.085-0.2567-0.098-0.2525-0.108-0.248-0.133-0.2241-0.148-0.2132-0.165-0.2001-0.177-0.1807-0.189-0.1654-0.198-0.1544-0.209-0.1393-0.217-0.1262-0.227-0.111-0.235-0.0935-0.243-0.087-0.253-0.0696-0.254-0.0566-0.257-0.0391h-10.251l-9.9135 7.8938v-4.4452l-0.013-0.28509-0.037-0.2807-0.059-0.2786-0.08-0.274-0.105-0.2655-0.124-0.2546-0.143-0.2459-0.164-0.2328-0.182-0.2176-0.198-0.2045-0.216-0.1871-0.23-0.1676-0.242-0.1501-0.252-0.1284-0.264-0.1087-0.272-0.0871-0.276-0.0653-0.281-0.0435-0.285-0.0196-0.285 0.0043h-7.152v2.9874h6.6124l0.10008 0.0022 0.09784 0.02182 0.09139 0.04141 0.07837 0.06089 0.06746 0.07391 0.0501 0.08705 0.03039 0.09362 0.0087 0.10007-0.0087 0.10007-0.03039 0.0935-0.0501 0.08705-0.06746 0.07391-0.07837 0.06101-0.09139 0.0413-0.09784 0.02182-0.10008 0.0022-4.0058 0.0043-0.27852 0.01091-0.27629 0.03484-0.27406 0.05432-0.26761 0.07837-0.25893 0.09784-0.25236 0.11967-0.24156 0.13926-0.22854 0.15885-0.21751 0.17399-0.20015 0.1937-0.18501 0.20672-0.16964 0.22408-0.15017 0.23499-0.13058 0.2459v-2.291l-0.003-0.40479-0.053-0.4004-0.1-0.3916-0.141-0.3786-0.187-0.359-0.227-0.3351-0.263-0.3067-0.298-0.2742-0.326-0.2394-0.351-0.198-0.374-0.1588-0.387-0.1131-0.398-0.0675-0.405-0.0217h-12.883v10.86h3.6815v-7.5823h2.698v7.5828h3.5858v-7.5827h1.7363l0.16976 0.01513 0.16319 0.04575 0.15451 0.07403 0.13703 0.10007 0.11744 0.12401 0.0935 0.14149 0.06535 0.15662 0.03696 0.16542 0.0065 0.17187v6.5885h3.7555v-1.9256l0.12835 0.2459 0.14794 0.23499 0.1653 0.22408 0.18501 0.20672 0.20238 0.1937 0.21763 0.17399 0.23065 0.15662 0.24156 0.13703 0.25236 0.11533 0.26116 0.09573 0.26984 0.07403 0.27406 0.0501 0.27629 0.02827 0.27852 0.0043 9.8523 0.0043 10.122-8.0201v8.02h0.000235z"/>
  </g>
 </g>
</svg>
