<?xml version="1.0" encoding="UTF-8" standalone="no"?>
<!-- Created with Inkscape (http://www.inkscape.org/) -->
<svg id="svg2" xmlns:rdf="http://www.w3.org/1999/02/22-rdf-syntax-ns#" xmlns="http://www.w3.org/2000/svg" height="45" width="67.5" version="1.1" xmlns:cc="http://creativecommons.org/ns#" xmlns:dc="http://purl.org/dc/elements/1.1/">
 <metadata id="metadata7">
  <rdf:RDF>
   <cc:Work rdf:about="">
    <dc:format>image/svg+xml</dc:format>
    <dc:type rdf:resource="http://purl.org/dc/dcmitype/StillImage"/>
    <dc:title/>
   </cc:Work>
  </rdf:RDF>
 </metadata>
 <g id="g14294">
  <rect id="rect2990" opacity="0" height="45" width="67.5" y="0" x="3.5527e-15"/>
  <path id="path14292" d="m29.297 44.914c-8.2766-0.7193-13.801-2.842-17.78-6.8315-1.5068-1.5109-2.5199-2.9184-3.4119-4.7399-1.5724-3.2111-2.3602-7.5021-2.1884-11.921 0.20043-5.1556 1.4444-9.1992 3.8278-12.442l0.59481-0.80936 1.0528 0.97093c2.2717 2.095 4.366 3.3107 8.8365 5.1293 3.7434 1.5228 4.8842 2.041 6.204 2.8179 2.7865 1.6402 4.9373 3.8104 6.6515 6.7112l0.64184 1.0862 0.38237-0.762c0.98341-1.9598 2.6639-4.1513 4.1968-5.4732 1.8708-1.6132 3.9302-2.7705 7.8674-4.4213 5.104-2.14 6.7302-3.0658 9.1616-5.2158l1.114-0.98502-0.0655 0.45982c-0.036 0.2529-0.17164 1.3778-0.30139 2.4999-0.26512 2.2926-0.12839 2.0314-1.5668 2.9929-0.43272 0.28922-1.2705 0.76832-1.8618 1.0647-1.02 0.51123-1.8586 0.8552-6.36 2.6084-6.0849 2.37-9.4846 5.1551-12.068 9.8857l-0.51052 0.93499-0.51119-0.89703c-1.9611-3.4413-4.9409-6.0863-9.0366-8.0215-0.67438-0.31863-2.6743-1.1521-4.4442-1.8522-3.8097-1.5069-5.8346-2.4503-7.1669-3.3393-1.6404-1.0945-1.7697-1.3224-2.1841-3.8476-0.2108-1.2846-0.21415-1.2925-0.42671-1.0115-1.0485 1.3861-2.1919 3.9417-2.7455 6.1361-0.59158 2.345-0.76659 3.8559-0.7759 6.699l-0.008 2.5824 0.61808 1.3533c0.33996 0.74429 0.84916 1.7422 1.1316 2.2176 0.47557 0.80049 1.5209 1.9886 2.0995 2.3861 0.13514 0.09286 0.5218 0.73637 0.85924 1.43 2.9193 6.001 8.5516 9.262 17.873 10.348 1.9861 0.23142 6.7188 0.20149 8.8283-0.05584 11.474-1.3997 18.046-6.3964 19.812-15.065 0.82713-4.0588 0.41333-9.3078-1.0226-12.972l-0.38743-0.98865 0.22393-1.5938c0.12317-0.87658 0.26012-2.0392 0.30436-2.5837 0.0893-1.0991 0.28204-1.434 0.5985-1.0399 0.55469 0.69081 1.6919 2.5141 2.0895 3.35 1.4941 3.1415 2.165 6.4932 2.1631 10.808-0.001 3.4838-0.32837 5.753-1.2116 8.4115-2.6561 7.9944-9.214 12.435-20.408 13.818-1.902 0.23498-8.6894 0.34126-10.69 0.16738zm0.90085-3.6114c-5.5576-0.39431-9.6511-1.918-12.912-4.8062-1.9151-1.6961-3.0299-2.5748-3.8182-3.0094-0.69596-0.38372-0.96965-0.62152-1.335-1.1599-1.0188-1.5015-1.8466-3.5354-2.3196-5.6994-0.23523-1.0761-0.26746-1.5715-0.2672-4.1065 0.00023-2.2132 0.0493-3.161 0.2112-4.0807 0.29547-1.6783 0.81881-3.7867 0.9399-3.7867 0.0558 0 0.60677 1.0135 1.2242 2.2521l1.1227 2.2521-0.0937 0.90085c-0.13542 1.3016-0.12717 3.5716 0.0187 5.1649 0.73542 8.0296 4.6822 12.876 12.022 14.762 2.7489 0.70634 6.5207 1.0512 10.136 0.92668 4.8096-0.16564 8.1668-0.84643 11.046-2.2401 1.5865-0.76784 2.5013-1.3867 3.6566-2.4734 2.5771-2.4243 4.054-5.6095 4.6322-9.9902 0.20969-1.5884 0.23908-5.4982 0.0526-6.986l-0.12668-1.0102 0.81387-1.7261c0.66942-1.4198 0.83827-1.6928 0.95132-1.5382 0.19564 0.26755 0.72683 2.2068 0.97225 3.5494 0.29609 1.6198 0.29064 5.4882-0.0101 7.1468-0.61326 3.3825-2.0055 6.0563-4.0011 7.6841-0.40705 0.33204-0.99568 0.95504-1.3081 1.3844-2.003 2.7533-5.1258 4.7074-9.1953 5.754-3.2779 0.84304-7.9127 1.1552-12.413 0.8359zm3.2519-9.7702c-0.30832-0.73791-1.6445-2.9773-2.3306-3.9061-0.89198-1.2074-2.3973-2.6829-3.5246-3.4548-1.6883-1.156-3.1385-1.7755-7.9405-3.3923-2.5248-0.85005-5.0034-1.6871-5.5081-1.86l-0.91756-0.31449-0.32742-0.9245c-0.18007-0.50848-0.50885-1.4267-0.73061-2.0406-0.22176-0.61383-0.33716-1.0761-0.25644-1.0272 0.0807 0.04885 0.4981 0.31465 0.92751 0.59066 1.6339 1.0502 4.1569 2.1931 8.468 3.8358 6.0304 2.2979 8.9802 4.7169 11.686 9.5833l0.72097 1.2966 0.68846-1.2835c1.8582-3.4642 3.7996-5.7322 6.3626-7.4326 1.366-0.90629 2.6403-1.5153 5.4598-2.6092 4.2818-1.6613 6.636-2.7499 8.351-3.8614 0.46116-0.29889 0.85253-0.52939 0.86971-0.51221 0.0172 0.01718-0.28626 0.89204-0.67432 1.9442l-0.70554 1.9129-5.4492 1.9488c-2.997 1.0718-5.8816 2.1641-6.4101 2.4272-3.3462 1.6658-5.7388 4.2107-7.8192 8.3171-0.32382 0.63917-0.62857 1.1662-0.67722 1.1711-0.0487 0.005-0.16701-0.17898-0.263-0.40871zm-18.627-20.291c-0.54956-0.24205-2.1701-1.5007-3.2431-2.5188l-0.9609-0.91178 1.1593-1.1299c4.565-4.4484 11.911-6.6826 21.97-6.6815 9.888 0.0011022 16.837 2.0354 21.703 6.3542 0.61108 0.54231 1.1079 1.0235 1.1041 1.0693-0.008 0.09728-4.4936 3.4928-4.7109 3.5662-0.0807 0.02725-0.36089-0.24932-0.62265-0.61461-1.4905-2.08-4.2968-3.957-7.3915-4.9436-5.0706-1.6167-13.267-1.7851-18.816-0.38668-3.7381 0.9421-6.6902 2.7366-8.7114 5.2955-0.46494 0.58862-0.90704 1.0681-0.98243 1.0655-0.0754-0.0026-0.29923-0.07612-0.49742-0.16342zm-0.32593-3.1993c3.0699-2.5624 6.6584-4.3185 10.536-5.1556 5.035-1.0872 12.467-1.0812 17.597 0.0141 3.5944 0.76746 7.0959 2.4464 10.21 4.8954l1.021 0.80298 0.99462-0.62374 0.99462-0.62374-0.81445-0.74159c-2.2886-2.0839-5.7551-3.8417-9.4865-4.8105-3.2356-0.84011-6.1638-1.1947-10.606-1.2844-10.111-0.2041-17.476 1.7751-22.31 5.9951-0.81498 0.71147-1.3115 1.2631-1.2144 1.3491 0.0897 0.07943 1.84 1.1481 1.8805 1.1481 0.0234 0 0.56307-0.43431 1.199-0.96514z"/>
 </g>
</svg>
