<?xml version="1.0" encoding="UTF-8" standalone="no"?>
<!-- Created with Inkscape (http://www.inkscape.org/) -->
<svg id="svg2" xmlns:rdf="http://www.w3.org/1999/02/22-rdf-syntax-ns#" xmlns="http://www.w3.org/2000/svg" height="45" width="67.5" version="1.1" xmlns:cc="http://creativecommons.org/ns#" xmlns:dc="http://purl.org/dc/elements/1.1/">
 <metadata id="metadata7">
  <rdf:RDF>
   <cc:Work rdf:about="">
    <dc:format>image/svg+xml</dc:format>
    <dc:type rdf:resource="http://purl.org/dc/dcmitype/StillImage"/>
    <dc:title/>
   </cc:Work>
  </rdf:RDF>
 </metadata>
 <g id="g14510">
  <rect id="rect2990" opacity="0" height="45" width="67.5" y="0" x="3.5527e-15"/>
  <path id="path17460" d="m16.995 36.126c-1.5259-0.938-2.0115-2.129-4.3293-3.084-2.3087-3.024-3.2045-6.787-3.2041-10.551 0-2.7479 0.47753-5.4965 1.2306-7.9609l2.328 4.6341c-0.1393 1.0299-0.20079 2.1464-0.20079 3.3365 0 15.356 10.186 18.454 20.931 18.418 10.744 0.03501 20.931-3.0631 20.931-18.418 0-1.5753-0.1072-3.0225-0.31135-4.3497l1.665-3.4275c0.87694 2.1827 1.3528 4.9788 1.2977 7.7938-0.09056 4.5376-1.562 9.1232-4.9677 11.282l-0.55188 0.82015-0.58859 0.74716-0.62832 0.69494-0.66587 0.64242-0.70187 0.59204-0.73596 0.54288-0.76584 0.49635-0.79621 0.45106-0.82355 0.40789-0.84922 0.36478-0.87224 0.32588-0.89451 0.28749-0.91362 0.2512-0.93212 0.21659-0.9474 0.185-0.96236 0.15332-0.97567 0.12518-0.98674 0.09653-0.99614 0.07259-1.0034 0.04831-1.0098 0.02648h-2.0243l-1.0097-0.024-1.003-0.048-0.997-0.073-0.985-0.096-0.976-0.126-0.962-0.153-0.949-0.185-0.932-0.217-0.913-0.251-0.894-0.287-0.873-0.326-0.848-0.365-0.824-0.408-0.797-0.451-0.767-0.496-0.735-0.543-0.702-0.592-0.577-0.578zm-6.293-27.652-0.3199-0.3191c-2.7432 3.3266-4.4693 7.9497-4.4693 14.345 0 19.361 15.802 22.5 27.837 22.5s27.837-3.1396 27.837-22.5c0-6.3946-1.7261-11.019-4.4693-14.344l-0.31866 0.30841c-0.05846 1.6923-0.35067 3.4453-0.59414 5.101 1.2012 2.5889 1.7693 5.6649 1.8504 8.9352 0.177 9.618-4.711 19.722-24.305 20.38-12.318-0.098-20.058-3.896-23.221-11.833-2.0938-1.331-3.1164-3.782-4.0869-6.16l-0.05-0.641-0.0457-1.745 0.0457-1.745 0.13282-1.65 0.21701-1.56 0.29597-1.471 0.3738-1.384 0.4451-1.301 0.5142-1.219 0.5793-1.143 0.6416-1.0664 0.5989-0.8347c0.2285 1.6311 0.5117 3.7961 1.0161 4.2111 6.2338 5.234 17.206 4.559 22.485 15.108 5.736-11.698 15.865-10.221 22.099-15.455l0.58-5.0131c-7.27 7.8581-17.15 5.1931-22.679 16.946-5.958-11.539-15.703-8.691-22.99-16.449zm4.884 2.8079c3.739-5.7852 10.821-7.2247 18.164-7.2005 7.219-0.0235 14.186 1.3673 17.988 6.9765l4.4979-3.4057-0.000619-0.0019 0.26649-0.20205c-5.644-6.1377-14.981-7.4484-22.751-7.4484-7.934 0-17.502 1.3664-23.103 7.8415l0.10552 0.08628-0.00062 0.000619 0.15551 0.12467 0.0778 0.06368 0.00042-0.000421c1.2089 1.1832 2.5454 2.4258 3.9011 3.1357 0.2191 0.09611 0.46635 0.13492 0.69958 0.02988zm40.237-3.9147-2.028 1.2737c-6.013-5.2881-12.418-6.5807-20.045-6.5287-7.706-0.0526-14.466 1.319-20.399 6.9636l-2.079-1.2742 0.5831-0.6207 0.8564-0.7941 0.9013-0.7326 0.944-0.6731 0.9825-0.6173 1.0191-0.5604 1.052-0.5091 1.081-0.4583 1.106-0.4109 1.128-0.3644 1.146-0.3212 1.162-0.2789 1.171-0.2405 1.181-0.2029 1.184-0.16871 1.184-0.13626 1.1803-0.10678 1.1742-0.07813 1.1636-0.05382 1.1491-0.02951 1.1302-0.01027 1.1316 0.01027 1.1491 0.02951 1.164 0.05382 1.1738 0.07813 1.1811 0.10678 1.1841 0.13627 1.1845 0.16869 1.1794 0.20289 1.1726 0.24053 1.1609 0.27892 1.1468 0.32118 1.1277 0.36436 1.1067 0.4109 1.0798 0.45787 1.0517 0.50954 1.0187 0.56045 0.98414 0.61724 0.94356 0.67317 0.90168 0.73218 0.8556 0.79454 0.17508 0.18626zm-22.132 24.64c-2.573-5.521-5.383-8.015-9.678-9.797l-10.746-3.622-1.4843-4.097c2.6453 2.0277 6.5375 3.4027 10.252 4.837 5.726 2.1875 8.8399 4.9686 11.657 10.659v2.0188h-0.00008zc2.5732-5.5217 5.3834-8.3716 9.6781-10.153l10.628-3.7999 1.4775-3.9657c-2.6453 2.0277-6.8276 3.5684-10.542 5.0028-5.7259 2.1875-8.4242 5.2061-11.241 10.897v2.0186h0.00009zm18.73-17.365 0.6569-0.34386 0.63939-0.36604 0.61898-0.39344 0.59842-0.42292 0.44459-0.35327 0.41561-3.5915-0.5297 0.48903-0.73206 0.6117-0.74369 0.56087-0.75266 0.51685-0.76157 0.47627-0.76714 0.44039-0.77276 0.40881-0.77524 0.38276-1.5557 0.70565c-1.2824 0.5455-2.5693 1.0726-3.8516 1.624l-1.498 0.69191-0.73466 0.37159-0.6754 0.36907c-1.7586 1.4985-2.6389 2.9512-2.999 4.4868l0.47794-0.38915 0.72959-0.53953 0.74022-0.4976 0.74746-0.45922 0.75569-0.42376 0.75903-0.39293 0.76206-0.3657 0.76324-0.3426 1.5262-0.62708c1.4806-0.5728 2.9725-1.114 4.4427-1.7018l0.70521-0.2943 0.69024-0.30757 0.67552-0.32353zm-12.846 3.5227-0.0781 0.05605-0.67193 0.53474-0.65572 0.58179-0.6407 0.63259-0.18028 0.19902c-0.61297 1.155-0.88467 2.2122-0.8577 3.2353l0.52155-0.57834 0.68901-0.68771 0.30664-0.27682c0.1713-1.2174 0.69413-2.4365 1.5672-3.6966zm-15.528-1.82-0.007-0.0037-1.5095-0.65906c-1.284-0.522-2.575-1.024-3.86-1.549l-1.555-0.676-0.775-0.37-0.771-0.395-0.7658-0.429-0.7599-0.463-0.7527-0.505-0.7423-0.549-0.7325-0.6-0.7202-0.654-0.4951-0.4993c0.0914 0.62752 0.18449 1.2529 0.28405 1.8764l0.11577 0.63816 0.1277 0.57406 0.13669 0.47156 0.13492 0.3195 0.11963 0.15844 0.54676 0.43267 0.60573 0.42972 0.63135 0.40368 0.65436 0.38016 0.67707 0.36008 0.69662 0.3421 0.71462 0.32807 1.4771 0.62319c1.5531 0.61892 3.117 1.208 4.6653 1.8359l1.5822 0.6843 0.78675 0.36949 0.78248 0.39301 0.774 0.41822 0.76633 0.44855 0.4109 0.26178c-0.90706-1.5069-2.0527-2.9535-3.2452-4.3969z"/>
 </g>
</svg>
