<?xml version="1.0" encoding="UTF-8" standalone="no"?>
<!-- Created with Inkscape (http://www.inkscape.org/) -->
<svg id="svg2" xmlns:rdf="http://www.w3.org/1999/02/22-rdf-syntax-ns#" xmlns="http://www.w3.org/2000/svg" height="45" width="67.5" version="1.1" xmlns:cc="http://creativecommons.org/ns#" xmlns:dc="http://purl.org/dc/elements/1.1/">
 <metadata id="metadata7">
  <rdf:RDF>
   <cc:Work rdf:about="">
    <dc:format>image/svg+xml</dc:format>
    <dc:type rdf:resource="http://purl.org/dc/dcmitype/StillImage"/>
    <dc:title/>
   </cc:Work>
  </rdf:RDF>
 </metadata>
 <g id="g14654">
  <rect id="rect2990" opacity="0" height="45" width="67.5" y="0" x="3.5527e-15"/>
  <g id="g14589" fill-rule="evenodd" transform="matrix(0.75 0 0 0.75 -3.3752 2.2502)">
   <path id="path17474" d="m83.984 20.411h-9.8048v3.7091h7.7457c2.6969 0 2.1246 1.5524 2.1246 1.5524h-6.0469c-2.9279 0-3.9632 1.2721-4.3312 2.4911 0.0026-0.25935-0.0021-0.52814-0.01523-0.80796 0-1.1272 0.56384-6.9777-5.0247-6.9777l-10.761-0.0084v0.0084h-2.6476l-13.367 10.681v-5.9743c0-4.8373-3.7584-4.6735-4.6735-4.6735h-9.8048v3.7091h7.7457c2.6964 0 2.1241 1.5524 2.1241 1.5524h-6.0463c-3.6539 0-4.3889 1.9671-4.5428 3.3453v-3.8352c-0.13-1.1765 0.262-4.7716-4.967-4.7716h-17.191v14.315h5.0982v-10.263h3.5951v10.263h4.8368v-10.197h2.1903c0.45727-0.01628 1.618-0.3108 1.5193 1.9446l0.01628 8.2361h4.9024v-3.6891c0.44414 3.5201 3.6965 3.7663 4.1831 3.7059h11.014v-0.03307h2.4837l13.531-10.968v11.034h10.687c0.37222 0 3.9873-0.03465 4.9045-4.4582 0.04882 4.2309 3.6618 4.4903 4.181 4.4257h11.02v-9.6444c0.0016-4.8373-3.7568-4.6735-4.6719-4.6735z"/>
   <g id="g14549" fill="#fff">
    <path id="path17476" d="m37.217 31.179h-4.8536c-0.98069 0-1.0783-0.88304-1.0783-1.0789 0-1.0789 0.73499-1.1277 1.1272-1.1277h4.8042v2.2065h0.000525z"/>
    <path id="path17478" d="m66.916 30.512h-4.3941v-5.9271l4.4346-0.0068c2.2984 0 2.0564 2.426 2.0564 2.889 0.14122 3.0245-1.9152 3.045-2.0968 3.045z"/>
    <path id="path17480" d="m84.015 31.179h-4.853c-0.98069 0-1.0789-0.88304-1.0789-1.0789 0-1.0789 0.73499-1.1277 1.1272-1.1277h4.8042v2.2065h0.000525z"/>
   </g>
   <g id="g14554">
    <polygon id="polygon17482" points="315.76 383.33 315.76 383.33 294.47 383.33 294.47 391.43 305.74 391.43" transform="matrix(.52499 0 0 .52499 -111.95 -180.9)"/>
    <polygon id="polygon17484" points="299.92 410.69 299.92 410.69 321.21 410.69 321.21 402.6 309.94 402.6" transform="matrix(.52499 0 0 .52499 -111.95 -180.9)"/>
    <path id="path17486" d="m89.517 21.692c0-1.4117 1.1455-2.4522 2.4984-2.4522 1.3403 0 2.4848 1.0405 2.4848 2.4522 0 1.4248-1.145 2.4654-2.4848 2.4654-1.353 0.0005-2.498-1.0405-2.498-2.4654z"/>
    <path id="path17488" fill="#fff" d="m92.016 23.745c1.1125 0 1.9908-0.87149 1.9908-2.0559 0-1.1644-0.87831-2.0427-1.9908-2.0427-1.1256 0-2.0034 0.87779-2.0034 2.0427-0.000525 1.1844 0.87779 2.0559 2.0034 2.0559z"/>
    <path id="path17490" d="m91.496 23.115h-0.42925v-2.8365h1.0804c0.66989 0 1.0017 0.24727 1.0017 0.80639 0 0.50767-0.31867 0.72869-0.73499 0.78066l0.80639 1.249h-0.4809l-0.74785-1.2296h-0.49402v1.2301h-0.000525z"/>
    <path id="path17492" fill="#fff" d="m92.011 21.519c0.36434 0 0.68932-0.02573 0.68932-0.46147 0-0.35122-0.31815-0.41632-0.61792-0.41632h-0.58497v0.87832h0.51397v-0.000525z"/>
   </g>
  </g>
 </g>
</svg>
