<?xml version="1.0" encoding="UTF-8" standalone="no"?>
<!-- Created with Inkscape (http://www.inkscape.org/) -->
<svg id="svg2" xmlns:rdf="http://www.w3.org/1999/02/22-rdf-syntax-ns#" xmlns="http://www.w3.org/2000/svg" height="45" width="67.5" version="1.1" xmlns:cc="http://creativecommons.org/ns#" xmlns:dc="http://purl.org/dc/elements/1.1/">
 <metadata id="metadata7">
  <rdf:RDF>
   <cc:Work rdf:about="">
    <dc:format>image/svg+xml</dc:format>
    <dc:type rdf:resource="http://purl.org/dc/dcmitype/StillImage"/>
    <dc:title/>
   </cc:Work>
  </rdf:RDF>
 </metadata>
 <g id="g14341">
  <rect id="rect2990" opacity="0" height="45" width="67.5" y="0" x="3.5527e-15"/>
  <path id="path14339" d="m0.00055782 22.909v-5.4037l7.1079 0.03532 7.1079 0.03532 0.61401 0.2779c1.3733 0.62153 1.7138 1.3454 1.8135 3.8548 0.0461 1.161 0.10258 1.6421 0.17105 1.457 0.21272-0.575 0.641-1.0122 1.2894-1.3163 0.65677-0.30799 0.73097-0.31532 3.5798-0.35387 3.0451-0.0412 3.0327-0.03878 2.8346-0.55509-0.18777-0.48932-0.60377-0.54521-4.0583-0.54521h-3.305v-1.4396-1.4396h4.057c4.7739 0 5.0277 0.04052 5.9023 0.94228 0.78865 0.81314 0.87354 1.1965 0.95099 4.2947l0.0665 2.6577 4.9185-3.9455 4.9185-3.9455 5.6383 0.02821c5.4407 0.02722 5.6573 0.03702 6.1782 0.27955 1.409 0.65603 2.038 1.9408 2.0502 4.1879l0.006 1.1355 0.38252-0.50152c0.21038-0.27583 0.65029-0.63942 0.97756-0.80798 0.58241-0.29996 0.65689-0.3073 3.5078-0.34582l2.9128-0.03937v-0.27195c0-0.14957-0.11352-0.37479-0.25228-0.50048-0.23219-0.21033-0.52602-0.23331-3.6889-0.28851l-3.4366-0.05998-0.0339-1.4164-0.0339-1.4164 4.3526 0.03685c4.2843 0.03628 4.3615 0.04126 4.9226 0.31755 0.31349 0.15438 0.73342 0.47828 0.93317 0.71979 0.66586 0.80502 0.7162 1.2041 0.7162 5.6793v4.057h-4.4173c-4.8463 0-5.0834-0.02882-5.9215-0.71961-0.46515-0.38342-0.86875-1.1293-1.0055-1.8582l-0.0865-0.46129-0.2419 0.6485c-0.16512 0.44261-0.45793 0.86451-0.92236 1.3289-1.048 1.0479-1.1288 1.0617-6.2595 1.0617h-4.2954l-0.0316-4.0715-0.0316-4.0715-5.0302 4.076-5.0302 4.076-5.5267-0.03447c-5.4038-0.0337-5.5373-0.04024-6.0065-0.29388-0.60504-0.32708-1.1936-0.93691-1.4285-1.4801-0.17959-0.41525-0.18164-0.40765-0.18628 0.6898l-0.005 1.1097h-1.8594-1.8594l-0.003-3.209c-0.003-3.3202-0.0767-4.0547-0.43335-4.3155-0.13238-0.0968-0.59834-0.15317-1.2662-0.15317h-1.0568v3.8389 3.8389h-1.8595-1.8594v-3.8389-3.8389h-1.3196-1.3196v3.8389 3.8389h-1.9194-1.9194v-5.4037zm24.472 1.865v-0.77977h-1.9708c-1.6317 0-2.0033 0.03244-2.1594 0.18852-0.21512 0.21512-0.24793 0.79594-0.0643 1.139 0.11528 0.21542 0.27001 0.23204 2.1594 0.23204h2.0352v-0.77977zm35.15 0v-0.77977h-1.9794c-1.8195 0-1.9988 0.01939-2.2193 0.23993-0.28762 0.28761-0.30791 0.68932-0.0532 1.053 0.18049 0.25768 0.25492 0.26662 2.2193 0.26662h2.0326v-0.77977zm-12.101 0.11201c0.70765-0.36594 1.0505-1.9321 0.6996-3.1956-0.23614-0.85023-0.48238-0.93518-2.7106-0.93518h-1.9632v2.1594 2.1594h1.8054c1.4042 0 1.8862-0.04176 2.1688-0.1879zm-16.683 3.337c0.004-0.04949 0.86452-0.77827 1.9123-1.6195l1.905-1.5295h2.2265 2.2265v1.6195 1.6195h-4.1388c-2.2763 0-4.1355-0.04048-4.1315-0.08997zm-2.2066-7.5478c-0.044-0.04399-0.08-0.77277-0.08-1.6195v-1.5395h4.2029 4.2029l-0.39406 0.33612c-0.21673 0.18487-1.1071 0.91365-1.9786 1.6195l-1.5846 1.2834h-2.1443c-1.1794 0-2.1803-0.03599-2.2243-0.07998zm36.195-0.45226c-0.20592-0.08962-0.5189-0.35241-0.69553-0.58398-1.403-1.8394 1.1784-4.022 2.8179-2.3825 0.30928 0.30928 0.46601 0.5928 0.52689 0.95312 0.23676 1.4014-1.3262 2.5892-2.6493 2.0133zm1.4412-0.36944c1.0149-0.48158 1.0627-2.1254 0.07677-2.6352-1.038-0.53678-2.1633 0.15146-2.1633 1.3231 0 1.1132 1.0776 1.7909 2.0865 1.3121zm-1.3667-1.3777v-1.0797h0.51315c0.28223 0 0.63313 0.08404 0.77977 0.18675 0.33795 0.23671 0.34413 0.70508 0.01236 0.93745l-0.25426 0.17809 0.25426 0.35708c0.29938 0.42044 0.31276 0.49999 0.0841 0.49999-0.09359 0-0.28694-0.18894-0.42966-0.41988-0.14272-0.23093-0.33607-0.41988-0.42966-0.41988-0.1145 0-0.17016 0.13736-0.17016 0.41988 0 0.29325-0.05427 0.41988-0.17995 0.41988-0.14662 0-0.17995-0.19994-0.17995-1.0797zm1.1397-0.41988c0-0.183-0.09251-0.24885-0.38988-0.27752-0.35046-0.03379-0.38988-0.0058-0.38988 0.27752 0 0.28325 0.03943 0.31131 0.38988 0.27752 0.29738-0.02867 0.38988-0.09452 0.38988-0.27752z"/>
 </g>
</svg>
