<?xml version="1.0" encoding="UTF-8" standalone="no"?>
<!-- Created with Inkscape (http://www.inkscape.org/) -->
<svg id="svg2" xmlns:rdf="http://www.w3.org/1999/02/22-rdf-syntax-ns#" xmlns="http://www.w3.org/2000/svg" height="45" width="67.5" version="1.1" xmlns:cc="http://creativecommons.org/ns#" xmlns:dc="http://purl.org/dc/elements/1.1/">
 <metadata id="metadata7">
  <rdf:RDF>
   <cc:Work rdf:about="">
    <dc:format>image/svg+xml</dc:format>
    <dc:type rdf:resource="http://purl.org/dc/dcmitype/StillImage"/>
    <dc:title/>
   </cc:Work>
  </rdf:RDF>
 </metadata>
 <g id="g12284">
  <rect id="rect2990" opacity="0" height="45" width="67.5" y="0" x="3.5527e-15"/>
  <path id="path12282" d="m0 28.877c0-0.02073 1.5781-1.5679 3.5069-3.4381s4.4402-4.3177 5.5808-5.439l2.0739-2.0386-0.9345-0.94001-0.9345-0.94002 2.691 0.03235 2.6909 0.03235 6.173 6.3544 6.173 6.3544-2.5652 0.03243-2.5652 0.03243-1.0263-1.0216-1.0263-1.0216h-6.3546-6.3546l-1.0138 1.0191-1.0138 1.0191h-2.5504c-1.4038-0.001-2.5515-0.018-2.5515-0.038zm16.905-5.0294c0-0.01737-0.74254-0.77271-1.6501-1.6785l-1.6501-1.647-1.6753 1.6785-1.6753 1.6785h3.3254c1.829 0 3.3254-0.01421 3.3254-0.03158zm10.697 4.7579c-0.6317-0.31479-1.2388-0.95443-1.4613-1.5397-0.0736-0.19365-0.12349-1.6287-0.12349-3.5541v-3.2293h1.9782 1.9782l0.002 2.5477c0.0008 1.4013 0.0415 2.6071 0.0899 2.6797 0.25035 0.37493 0.64976 0.4076 4.9826 0.4076 4.1233 0 4.3867-0.01296 4.6538-0.22898 0.2794-0.22604 0.28352-0.26229 0.31963-2.8175l0.0366-2.5885h1.9802 1.9802l-0.0385 3.2671-0.0385 3.2671-0.32959 0.56067c-0.40103 0.68221-1.0272 1.2172-1.6393 1.4006-0.31842 0.0954-2.47 0.13685-7.1034 0.13685h-6.6466l-0.62039-0.30916zm19.134 0.14443c-1.1704-0.32104-1.9399-1.1678-2.0799-2.2887-0.0432-0.34572-0.0588-1.4053-0.0346-2.3546 0.0481-1.8891 0.13682-2.1945 0.86198-2.9652 0.76587-0.81402 0.62654-0.7929 5.6675-0.859l4.5719-0.05995-1.7807-1.3788-1.7807-1.3788 2.8787-0.03212 2.8787-0.03212 1.7035 1.4545c3.0207 2.5791 3.0823 2.6936 3.0823 5.7265 0 2.2843-0.12456 2.8552-0.76741 3.5171-0.72634 0.74788-0.65957 0.7414-7.9848 0.77495-5.1312 0.0235-6.7828-0.0048-7.2164-0.12378zm11.707-3.0023c0.50665-0.21169 0.66521-0.50021 0.66521-1.2104 0-0.45536-0.06376-0.62038-0.35046-0.90708l-0.35046-0.35046h-4.8557-4.8557l-0.35342 0.29739c-0.65117 0.54792-0.58045 1.6715 0.13257 2.1063 0.36102 0.22014 0.63762 0.23313 4.9721 0.23355 3.6873 0.00036 4.6696-0.03292 4.9959-0.16924zm5.1013-1.1491v-4.3162h1.9782 1.9782v4.3162 4.3162h-1.9782-1.9782v-4.3162z"/>
 </g>
</svg>
