<?xml version="1.0" encoding="UTF-8" standalone="no"?>
<!-- Created with Inkscape (http://www.inkscape.org/) -->
<svg id="svg2" xmlns:rdf="http://www.w3.org/1999/02/22-rdf-syntax-ns#" xmlns="http://www.w3.org/2000/svg" height="45" width="67.5" version="1.1" xmlns:cc="http://creativecommons.org/ns#" xmlns:dc="http://purl.org/dc/elements/1.1/">
 <metadata id="metadata7">
  <rdf:RDF>
   <cc:Work rdf:about="">
    <dc:format>image/svg+xml</dc:format>
    <dc:type rdf:resource="http://purl.org/dc/dcmitype/StillImage"/>
    <dc:title/>
   </cc:Work>
  </rdf:RDF>
 </metadata>
 <g id="g9260">
  <rect id="rect2990" opacity="0" height="45" width="67.5" y="0" x="3.5527e-15"/>
  <g id="g9206" fill-rule="evenodd" transform="matrix(.74999 0 0 .74999 -3.3763 2.2476)">
   <path id="path3486" d="m57.929 24.057h5.1993v7.9349c0 1.7002-1.713 3.5114-3.4316 3.5114h-17.068c-1.7191 0-3.4321-1.8113-3.4321-3.5114v-7.9347h5.206v6.2824c0 0.81423 0.60582 1.2603 1.3827 1.2603h10.755c0.783 0 1.3888-0.44604 1.3888-1.2603v-6.2831z"/>
   <polygon id="polygon3488" points="274.42 412.98 269.18 407.63 236.34 407.63 230.94 412.98 217.5 412.98 217.5 412.98 246.68 384.65 241.9 379.77 255.65 379.77 287.85 412.98" transform="matrix(.5121 0 0 .5121 -106.88 -175.98)"/>
   <path id="path3490" d="m74.059 20.207h7.6896l4.5945 3.9518c1.3089 1.1256 1.8533 2.4043 1.8533 4.105v3.0034c0 1.2111-0.25042 2.5267-1.1927 3.3706-1.0401 0.92997-2.8693 0.86339-4.172 0.86339h-14.632c-1.1138 0-2.2143-0.30008-3.0526-1.0713-0.86851-0.80092-1.0826-1.8784-1.0826-3.0157v-3.5295c0-1.0708 0.46447-2.0986 1.248-2.8268 0.90539-0.85059 1.8169-1.0032 3.0034-1.0032h10.694l-4.949-3.847z"/>
   <polygon id="polygon3492" points="393.25 390.63 393.25 412.98 383.1 412.98 383.1 390.63" transform="matrix(.5121 0 0 .5121 -106.88 -175.98)"/>
   <path id="path3494" d="m70.359 31.597h11.122c1.1809 0 1.9946-0.58123 1.9946-1.8164 0-1.2485-0.80757-1.8236-1.9946-1.8236h-11.122c-1.1865 0-1.988 0.58123-1.988 1.8236 0 1.2296 0.80757 1.8164 1.988 1.8164z" fill="#fff"/>
   <polygon id="polygon3496" points="261.72 400.01 253 391.11 244.02 400.01 244.02 400.01" fill="#fff" transform="matrix(.5121 0 0 .5121 -106.88 -175.98)"/>
  </g>
 </g>
</svg>
