<?xml version="1.0" encoding="UTF-8" standalone="no"?>
<!-- Created with Inkscape (http://www.inkscape.org/) -->
<svg id="svg2" xmlns:rdf="http://www.w3.org/1999/02/22-rdf-syntax-ns#" xmlns="http://www.w3.org/2000/svg" height="45" width="67.5" version="1.1" xmlns:cc="http://creativecommons.org/ns#" xmlns:dc="http://purl.org/dc/elements/1.1/">
 <metadata id="metadata7">
  <rdf:RDF>
   <cc:Work rdf:about="">
    <dc:format>image/svg+xml</dc:format>
    <dc:type rdf:resource="http://purl.org/dc/dcmitype/StillImage"/>
    <dc:title/>
   </cc:Work>
  </rdf:RDF>
 </metadata>
 <g id="g14449">
  <rect id="rect2990" opacity="0" height="45" width="67.5" y="0" x="3.5527e-15"/>
  <path id="path14447" d="m3.429 27.048c-0.36205-0.10149-0.87783-0.3132-1.1462-0.47046-0.70122-0.41094-1.5872-1.4066-1.9607-2.2034-0.28227-0.60224-0.32218-0.83663-0.32218-1.8921 0-1.1175 0.0284-1.2624 0.39283-2.0026 0.50253-1.0208 1.5477-2.0143 2.5182-2.3937 0.96974-0.37911 2.4631-0.37975 3.4305-0.0014 1.8594 0.72712 2.9852 2.3865 2.9852 4.4003 0 1.0443-0.22972 1.8224-0.78497 2.6586-1.0528 1.5856-3.2848 2.4171-5.1127 1.9047zm0.6282-0.25518c-0.0826-0.03335-0.21788-0.03335-0.30053 0-0.0826 0.03335-0.0151 0.06064 0.15027 0.06064 0.16529 0 0.23291-0.02729 0.15026-0.06064zm1.4426 0c-0.0827-0.03335-0.21789-0.03335-0.30054 0-0.0826 0.03335-0.0151 0.06064 0.15027 0.06064 0.16529 0 0.23292-0.02729 0.15027-0.06064zm-2.1338-0.16081c-0.33047-0.14201-0.52027-0.14201-0.30053 0 0.0992 0.06409 0.26146 0.11356 0.36064 0.10992 0.1189-0.0043 0.0984-0.0418-0.0601-0.10992zm2.5354 0.01961c-0.12945-0.02519 0.0563-0.16579 0.49159-0.37212 0.38481-0.1824 0.889-0.48049 1.1204-0.66242 0.27714-0.21788 0.2361-0.15679-0.12022 0.17898-0.29753 0.28037-0.43277 0.4522-0.30053 0.38184 0.13223-0.07036 0.45681-0.35956 0.72128-0.64266s0.38619-0.44305 0.27048-0.35544c-0.1157 0.08761-0.21037 0.1052-0.21037 0.03908 0-0.1597 0.30392-0.40673 0.39201-0.31864 0.0382 0.03815 0.13083-0.05699 0.20595-0.21142 0.12465-0.25624 0.12131-0.26184-0.0382-0.06403-0.0961 0.11921-0.1938 0.17136-0.21701 0.1159-0.0232-0.05547-0.83759-0.4084-1.8097-0.78429l-1.7675-0.68344-1.7487 0.6785c-0.9618 0.37318-1.7487 0.74288-1.7487 0.82157 0 0.24144 1.1784 1.2609 1.7494 1.5135 0.70064 0.30993 1.362 0.42465 2.3872 0.41411 0.45693-0.0047 0.73714-0.02676 0.6227-0.04903zm0.82976-0.25867c0.0421-0.06814-0.006-0.0883-0.11312-0.04724-0.20826 0.07992-0.24637 0.16608-0.0734 0.16608 0.0622 0 0.14616-0.05348 0.18656-0.11884zm-4.1565-0.04817c-0.25684-0.23996-1.1976-0.90075-1.1325-0.79551 0.0903 0.14614 1.0164 0.8423 1.1205 0.8423 0.0341 0 0.0396-0.02106 0.012-0.0468zm-1.8362-1.7694c-0.47645-0.93255-0.49799-1.0222-0.49799-2.0737 0-1.4421 0.37088-2.307 1.3964-3.2565 1.4309-1.3248 3.3247-1.5908 5.065-0.71154 0.56972 0.28785 1.4161 1.0375 1.814 1.6068 0.18833 0.26943 0.18776 0.259-0.006-0.10081-0.52568-0.97851-2.0739-1.9596-3.3424-2.1181-0.79534-0.09937-1.826 0.09406-2.6089 0.48964-1.9456 0.98298-2.922 3.2439-2.308 5.3439 0.15717 0.53748 0.82321 1.795 0.95072 1.795 0.0191 0-0.18943-0.43862-0.46334-0.97471zm0.64404-0.31167c0.0992 0.0018 0.84095-0.38157 1.6484-0.85186 0.80745-0.47028 1.566-0.83621 1.6856-0.81317 0.11964 0.02304 0.83846 0.40662 1.5974 0.85239 0.75892 0.44578 1.4757 0.80616 1.5928 0.80086 0.11713-0.0053 0.18449 0.03642 0.1497 0.09274-0.0348 0.05631 0.0316 0.08936 0.14767 0.07344 0.29874-0.04099 0.59666-1.0185 0.65084-2.1355 0.0246-0.5078 0.0105-0.86781-0.0314-0.80002s-0.11204-0.01962-0.15587-0.19423c-0.0438-0.17462-0.0426-0.37745 0.002-0.45074 0.0466-0.07528 0.028-0.09969-0.0425-0.05611-0.0687 0.04243-0.19402-0.0899-0.2786-0.29407-0.22011-0.5314-1.1609-1.4423-1.8241-1.7662-0.67081-0.32761-1.7774-0.53705-1.7752-0.336 0.00077 0.07277 0.13537 0.86261 0.29914 1.7552 0.16376 0.89259 0.29838 1.633 0.29914 1.6453 0.00077 0.01231 0.32597 0.25005 0.72267 0.52833 0.81621 0.57254 0.94184 0.7398 0.27048 0.36014-0.41454-0.23444-0.40262-0.21364 0.14821 0.25861 0.86808 0.74423 1.4737 1.3293 1.257 1.2142-0.10322-0.05478-0.73842-0.50241-1.4115-0.99472-0.86515-0.63275-1.1801-0.92676-1.0746-1.0031 0.14769-0.10683-0.0204-0.0667-0.45177 0.10787-0.13777 0.05575-0.18032-0.0172-0.18032-0.30912 0-0.33964-0.02-0.36205-0.18032-0.20177-0.0992 0.09918-0.18032 0.23562-0.18032 0.3032 0 0.10884-1.6741 1.4125-2.5554 1.99-0.62853 0.41183-0.32444 0.08435 0.76832-0.82741 0.60392-0.5039 1.1912-1.036 1.305-1.1824 0.1273-0.16376 0.28736-0.79817 0.41596-1.6487 0.11497-0.76035 0.23946-1.5398 0.27664-1.732l0.0676-0.34956-0.61052 0.0723c-1.4442 0.17105-2.838 1.3883-3.2887 2.8723-0.18694 0.61547-0.23964 1.0298-0.19379 1.5239 0.079 0.85204 0.42304 1.7489 0.61348 1.5995 0.0749-0.05871 0.21719-0.1053 0.31637-0.10354zm7.5354-0.7798c-0.0384-0.0959-0.0668-0.06742-0.0726 0.07263-0.006 0.12672 0.0232 0.19773 0.0631 0.15778s0.0442-0.14363 0.009-0.23041zm0.12521-1.3277c-0.0268-0.21606-0.0492-0.06827-0.0498 0.32844-0.00068 0.3967 0.0212 0.57349 0.0486 0.39285s0.028-0.50522 0.002-0.72128zm9.808 3.7483c-0.52549-0.16047-1.0822-0.87464-1.2342-1.5832-0.16947-0.79021-0.15871-1.1411 0.0573-1.8685 0.5726-1.9282 2.8296-2.0804 3.5973-0.24258 0.10268 0.24582 0.1867 0.63802 0.1867 0.87155v0.42461h-1.4426-1.4426v0.42461c0 0.58827 0.2796 1.1997 0.66366 1.4514 0.29249 0.19165 0.3703 0.19538 0.82148 0.03941 0.39936-0.13806 0.54554-0.27381 0.7357-0.68321 0.15011-0.32317 0.3166-0.51091 0.4531-0.51091 0.17411 0 0.20074 0.06382 0.13793 0.33059-0.12285 0.52176-0.49341 1.0577-0.8407 1.2159-0.45289 0.20635-1.2446 0.26726-1.6932 0.13028zm1.5874-3.2696c-0.13891-0.70321-0.33522-1.0702-0.63298-1.1834-0.60684-0.23072-1.2269 0.36556-1.2306 1.1834l-0.002 0.39069h0.97126 0.97126l-0.0772-0.39069zm10.336 3.314c-1.0725-0.29545-1.689-1.747-1.3781-3.2448 0.2551-1.2288 1.2622-1.9652 2.3514-1.7195 0.79967 0.18035 1.4829 1.1311 1.4884 2.0711l0.002 0.4508h-1.4579-1.4579l0.0586 0.61002c0.10661 1.1094 0.79774 1.6576 1.6047 1.2728 0.30777-0.14677 0.48705-0.3444 0.62044-0.68398 0.1244-0.3167 0.26244-0.47757 0.40978-0.47757 0.28634 0 0.28009 0.16514-0.0305 0.80682-0.14267 0.29471-0.40355 0.60007-0.599 0.70115-0.3878 0.20054-1.2465 0.31405-1.6126 0.21318zm1.4481-3.3569c-0.13218-0.70453-0.28429-1.0042-0.57754-1.1378-0.61059-0.27821-1.2913 0.38969-1.2913 1.267 0 0.3007 0.0119 0.3044 0.97509 0.3044h0.97509l-0.0813-0.43358zm2.7594 3.258c-0.86317-0.3058-1.2622-1.0906-1.2622-2.4823 0-1.3904 0.77368-2.3857 1.8544-2.3857 0.27304 0 0.61902 0.08586 0.76885 0.19081l0.27242 0.19081-0.0353-0.94215c-0.0327-0.87302-0.0551-0.94497-0.30578-0.98056-0.45346-0.0644-0.30393-0.2077 0.36064-0.34562 0.42227-0.08763 0.68018-0.09118 0.77935-0.01072 0.10876 0.08825 0.15678 0.92502 0.18032 3.1426l0.0321 3.0224 0.33771 0.03873c0.53938 0.06185 0.30578 0.31196-0.3962 0.42419-0.5417 0.08661-0.65692 0.07146-0.75228-0.09894-0.0984-0.17583-0.13777-0.1795-0.31209-0.02914-0.15124 0.13046-0.95299 0.47432-1.0289 0.44128-0.006-0.0029-0.2285-0.08194-0.49297-0.17563zm1.3946-0.6432c0.22341-0.28402 0.24335-0.44914 0.20767-1.7192-0.0366-1.3009-0.0615-1.4284-0.33626-1.7206-0.23099-0.2456-0.39088-0.30763-0.72128-0.27981-0.62876 0.05294-0.8468 0.56253-0.83828 1.9592 0.004 0.59506 0.0712 1.2698 0.15008 1.4995 0.25392 0.73907 1.0551 0.87499 1.5381 0.26094zm3.2759 0.69733c-0.48223-0.14549-1.0745-0.81703-1.2372-1.4027-0.30155-1.0859-0.0789-2.3372 0.53075-2.9837 1.0593-1.1232 2.8401-0.54597 3.1781 1.0302 0.21921 1.0221 0.31058 0.95838-1.3734 0.95838h-1.5041l0.0774 0.51091c0.17707 1.1689 0.61884 1.6372 1.3856 1.4687 0.38921-0.08549 0.94407-0.68919 0.94407-1.0272 0-0.15559 0.0835-0.2312 0.25546-0.2312 0.22323 0 0.24575 0.04849 0.17857 0.38441-0.0951 0.47565-0.35348 0.88071-0.70618 1.1072-0.3583 0.2301-1.2598 0.32643-1.7292 0.18479zm1.5205-3.2314c0-0.52043-0.19021-0.93109-0.5363-1.1579-0.609-0.39903-1.2669 0.16991-1.2669 1.0956v0.41509h0.9016 0.9016v-0.35282zm14.515 3.191c-0.60204-0.22111-0.75326-0.36043-1.0447-0.9625-0.30673-0.63362-0.33764-2.0258-0.0598-2.691 0.41961-1.0045 1.285-1.4794 2.2314-1.2246 0.83122 0.22382 1.3585 0.94515 1.4472 1.9798l0.0412 0.48086-1.4724 0.03376c-1.6616 0.03809-1.6051-0.0061-1.3398 1.0476 0.17061 0.67754 0.48275 0.95678 1.0695 0.95678 0.54199 0 0.89443-0.27227 1.1045-0.85326 0.15013-0.41518 0.57847-0.5769 0.57847-0.21841 0 0.31132-0.46807 1.1235-0.75288 1.3064-0.41192 0.26453-1.2854 0.33457-1.8028 0.14455zm1.594-3.1426c0-0.4506-0.30536-1.1001-0.58842-1.2516-0.32784-0.17546-0.82811-0.04018-1.0298 0.27848-0.089 0.14064-0.19887 0.48562-0.24409 0.76662l-0.0822 0.51091h0.97228c0.96024 0 0.97227-0.0038 0.97227-0.3044zm-47.301 3.074c-0.0397-0.06411 0.11193-0.19345 0.33678-0.2874l0.40884-0.17082 0.0878-2.7718c0.0483-1.5245 0.0526-2.8287 0.01-2.8983-0.043-0.06957-0.24178-0.12649-0.44173-0.12649-0.23723 0-0.34629-0.05222-0.31385-0.15027 0.0325-0.09822 0.36476-0.16235 0.95935-0.18516l0.90965-0.03489 0.3832 0.9966c0.21076 0.54813 0.60147 1.5781 0.86825 2.2889 0.26678 0.71076 0.5262 1.2923 0.57649 1.2923 0.0503 0 0.30971-0.58153 0.57649-1.2923 0.26679-0.71076 0.65666-1.7386 0.86641-2.2841l0.38135-0.99176h0.89108c0.67593 0 0.89108 0.03991 0.89108 0.16529 0 0.09091-0.16229 0.19775-0.36064 0.23742l-0.36064 0.07213v1.3666c0 0.75162 0.0358 2.0322 0.0795 2.8458l0.0796 1.4792 0.34122 0.12879c0.18766 0.07084 0.3412 0.19997 0.3412 0.28696 0 0.12263-0.27468 0.15047-1.2224 0.12391-1.2623-0.03537-1.6194-0.1917-0.91296-0.39965l0.39229-0.11546 0.0327-2.3201c0.018-1.2761-0.0122-2.4002-0.0669-2.4981-0.0685-0.12246-0.39089 0.58493-1.0329 2.2666-1.034 2.7084-1.0981 2.8451-1.2521 2.6708-0.0579-0.06556-0.53354-1.2444-1.0569-2.6196l-0.9515-2.5004-0.0797 0.57698c-0.0438 0.31734-0.0844 1.4517-0.0902 2.5209l-0.0105 1.9439 0.36064 0.07921c0.19835 0.04357 0.36064 0.15606 0.36064 0.24998 0 0.13321-0.20994 0.17077-0.95462 0.17077-0.52504 0-0.98703-0.05246-1.0267-0.11658zm11.598-0.05576c0-0.09864 0.14137-0.1886 0.33059-0.21037l0.33059-0.03803v-1.9835-1.9835l-0.33059-0.03804c-0.31463-0.0362-0.43453-0.18668-0.24043-0.30176 0.0496-0.0294 0.36913-0.09107 0.71009-0.13705 0.5618-0.07575 0.62743-0.05995 0.69993 0.16846l0.08 0.25205 0.30805-0.24231c0.30938-0.24336 1.0409-0.3253 1.32-0.14786 0.20776 0.13211 0.41536 0.74409 0.33659 0.99225-0.15805 0.498-0.90008 0.34192-0.90008-0.18932 0-0.23518-0.0614-0.2963-0.29777-0.2963-0.56478 0-0.67463 0.38574-0.63738 2.2382 0.0327 1.6273 0.0402 1.6697 0.30402 1.7071 0.14877 0.02113 0.27048 0.1158 0.27048 0.21037 0 0.13707-0.23171 0.17196-1.142 0.17196-0.91147 0-1.142-0.03479-1.142-0.17234zm4.3268-0.28118c-0.50412-0.50412-0.719-1.1051-0.719-2.0109 0-1.8205 1.1847-2.9203 2.615-2.4275 0.41709 0.1437 0.506 0.1448 0.55891 0.0069 0.0346-0.09019 0.14825-0.16399 0.25253-0.16399 0.15723 0 0.18351 0.1368 0.15403 0.80186-0.0225 0.50768-0.0907 0.82008-0.18581 0.85152-0.0892 0.02946-0.15027-0.05595-0.15027-0.21004 0-0.42134-0.63207-0.96248-1.1242-0.96248-0.499 0-0.72703 0.19838-0.92801 0.80737-0.19886 0.60257-0.20374 2.031-0.009 2.5908 0.18376 0.52783 0.69721 0.85452 1.1603 0.73829 0.37971-0.0953 0.78053-0.59186 0.78053-0.96696 0-0.21977 0.0653-0.28432 0.28775-0.28432 0.27662 0 0.28296 0.01888 0.16387 0.48806-0.0681 0.26843-0.28293 0.64711-0.47732 0.8415-0.31906 0.31906-0.42992 0.35344-1.1397 0.35344-0.74915 0-0.80771-0.02142-1.2398-0.45351zm16.951-0.44809c0-0.49588 0.0432-0.9016 0.0961-0.9016 0.0528 0 0.16393 0.1877 0.24689 0.41711 0.20258 0.56024 0.66568 0.90524 1.2151 0.90524 0.68773 0 1.1862-0.67023 0.86931-1.1689-0.0515-0.08092-0.52514-0.35806-1.0527-0.61588-1.0871-0.53122-1.2417-0.67583-1.3261-1.2398-0.15242-1.0192 1.2994-1.9242 2.261-1.4096 0.20086 0.1075 0.27182 0.09516 0.36013-0.06263 0.20007-0.35751 0.33562-0.06784 0.33562 0.71724 0 0.87377-0.14786 0.98811-0.42379 0.32771-0.22761-0.54472-0.3531-0.63114-0.92002-0.6335-0.53258-0.0022-0.82004 0.25256-0.82004 0.72682 0 0.3213 0.0907 0.39641 1.077 0.89176 0.59236 0.2975 1.1333 0.64611 1.2021 0.77469 0.18842 0.35207 0.15034 1.1218-0.0712 1.438-0.22783 0.32527-1.0491 0.72856-1.4914 0.73238-0.16784 0.0014-0.5044-0.09893-0.7479-0.22308-0.43312-0.22082-0.44429-0.22082-0.51438 0-0.15711 0.495-0.29587 0.17802-0.29587-0.67588zm6.2511 0.76305c0-0.09316 0.16229-0.23063 0.36064-0.3055l0.36064-0.13613v-2.8385-2.8385l-0.36064-0.07213c-0.19835-0.03967-0.36064-0.14651-0.36064-0.23742 0-0.13257 0.34156-0.16529 1.7253-0.16529 1.5982 0 1.7554 0.02026 2.1338 0.27488 0.77407 0.5209 0.85647 1.665 0.17681 2.4552l-0.28354 0.32963 0.34192 0.20794c0.51909 0.31567 0.75039 0.86291 0.68714 1.6257-0.11328 1.366-0.75859 1.7411-3.1252 1.8166-1.3696 0.04371-1.6563 0.02354-1.6563-0.11652zm3.3589-0.55784c0.38658-0.28675 0.64684-1.0372 0.54645-1.5757-0.0419-0.22483-0.23035-0.56293-0.41876-0.75134-0.30143-0.30144-0.43024-0.34255-1.0731-0.34255h-0.73053v1.5195 1.5195l0.68416-0.07061c0.38565-0.0398 0.81837-0.17016 0.99176-0.29878zm-0.12424-3.3189c0.29282-0.31169 0.44901-1.0701 0.32343-1.5704-0.14146-0.56364-0.48444-0.78559-1.2139-0.78559h-0.66118v1.3224 1.3224h0.64022c0.52049 0 0.69095-0.054 0.91146-0.28872zm6.1061 3.9394c-0.16435-0.16434-0.0802-0.2692 0.24625-0.30676l0.33059-0.03804 0.033-1.9561c0.0282-1.6671 0.006-1.9646-0.15026-2.0136-0.62246-0.19519-0.61329-0.18889-0.42374-0.29104 0.0992-0.05345 0.44132-0.13487 0.76031-0.18095 0.5164-0.07459 0.58688-0.05743 0.64282 0.15648 0.0623 0.23809 0.0662 0.23818 0.44183 0.0092 0.46956-0.28632 1.4749-0.311 1.854-0.04551 0.49011 0.34329 0.56643 0.64898 0.62874 2.5183 0.05858 1.7576 0.06695 1.8042 0.33059 1.8416 0.14876 0.02113 0.27048 0.1179 0.27048 0.21505 0 0.14446-0.18983 0.17031-1.0422 0.14191-0.66276-0.02209-1.0592-0.08606-1.0888-0.17573-0.0257-0.07755 0.0782-0.15869 0.23073-0.18032 0.2738-0.03881 0.27784-0.06256 0.31077-1.8294 0.0287-1.5395 0.005-1.8214-0.1689-2.0136-0.26372-0.2914-0.8997-0.28834-1.2637 0.0061-0.27512 0.22256-0.2838 0.28397-0.2838 2.0078 0 1.7584 0.003 1.779 0.27758 1.8441 0.15267 0.03622 0.28791 0.11996 0.30053 0.18608 0.0262 0.1374-2.1044 0.23682-2.2369 0.10437zm5.2966 0.0072c-0.03782-0.03782 0.55148-1.0521 1.3096-2.254l1.3783-2.1852-0.63193-0.03715c-0.90947-0.05347-1.1464 0.04086-1.4536 0.57882-0.15022 0.26307-0.31371 0.47872-0.3633 0.47923-0.11962 0.0012-0.11289-0.0737 0.07013-0.78046l0.15565-0.60107 1.6452-0.03344c0.90488-0.01839 1.6452 0.01128 1.6452 0.06593 0 0.05466-0.61427 1.0705-1.3651 2.2574l-1.365 2.158 0.85414 0.03642c0.81268 0.03464 0.86873 0.01955 1.1547-0.31087 0.16529-0.191 0.36982-0.45082 0.45451-0.57737 0.13431-0.2007 0.14482-0.17087 0.08231 0.23354-0.16707 1.0807-0.09099 1.039-1.8963 1.039-0.8832 0-1.6368-0.03094-1.6746-0.06877zm-17.38-3.026c0.0349-0.18218 0.21331-0.21495 1.3312-0.24449 1.2291-0.03249 1.2909-0.02242 1.2909 0.21037 0 0.23113-0.0728 0.2445-1.3312 0.2445-1.203 0-1.3273-0.02026-1.2909-0.21037z"/>
 </g>
</svg>
