<?xml version="1.0" encoding="UTF-8" standalone="no"?>
<!-- Created with Inkscape (http://www.inkscape.org/) -->
<svg id="svg2" xmlns:rdf="http://www.w3.org/1999/02/22-rdf-syntax-ns#" xmlns="http://www.w3.org/2000/svg" height="45" width="67.5" version="1.1" xmlns:cc="http://creativecommons.org/ns#" xmlns:dc="http://purl.org/dc/elements/1.1/">
 <metadata id="metadata7">
  <rdf:RDF>
   <cc:Work rdf:about="">
    <dc:format>image/svg+xml</dc:format>
    <dc:type rdf:resource="http://purl.org/dc/dcmitype/StillImage"/>
    <dc:title/>
   </cc:Work>
  </rdf:RDF>
 </metadata>
 <g id="g14517">
  <rect id="rect2990" opacity="0" height="45" width="67.5" y="0" x="3.5527e-15"/>
  <path id="path14515" d="m30.456 44.813c-5.143-0.818-9.604-3.136-13.056-6.783-4.07-4.299-6.169-9.59-6.163-15.53 0.005-4.2752 1.0241-8.022 3.1334-11.52 3.6836-6.108 9.7288-9.9933 16.926-10.879 1.7582-0.21632 5.0042-0.07161 6.8066 0.30345 8.7406 1.8188 15.426 8.235 17.53 16.825 1.2002 4.8987 0.6706 10.15-1.4999 14.87-1.0104 2.1974-2.6391 4.4922-4.5169 6.3643-3.306 3.2959-7.4316 5.4402-12.073 6.2753-1.7485 0.31456-5.3413 0.35227-7.0878 0.07439zm5.2349-1.1025c9.891-0.96333 17.68-8.4062 19.101-18.252 0.26684-1.8491 0.1818-4.9579-0.1816-6.639-0.60142-2.7821-1.9041-5.8502-3.2316-7.6108-1.0707-1.42-1.352-1.5798-0.50386-0.28615 2.5775 3.9312 3.8646 8.765 3.4966 13.131-0.44976 5.3365-2.6308 9.915-6.4371 13.513-7.7949 7.368-19.789 7.5766-27.908 0.4853-1.8993-1.6587-3.6704-3.986-4.9009-6.4398-0.7176-1.4309-0.7986-1.5237-0.33562-0.38431 1.541 3.7924 4.3582 7.2842 7.5353 9.3396 3.745 2.4228 8.7289 3.5948 13.366 3.1432zm1.9093-1.3106c5.2311-1.0412 9.8528-4.0894 12.887-8.4996 0.34644-0.50354 0.61673-0.92859 0.60066-0.94456-0.02716-0.02697-4.6329-1.8098-13.394-5.1845l-3.634-1.3998v-1.7919-1.7919l0.2703 0.17547c0.14867 0.09651 1.7569 1.0298 3.5739 2.074s3.9794 2.2885 4.8053 2.7652c3.0555 1.7636 7.9972 4.5944 8.2591 4.7311 0.99045 0.51719-0.62006-0.71571-7.2929-5.583-4.1597-3.0342-7.5655-5.5532-7.5683-5.5977-0.003-0.04459 0.28573-0.2386 0.6412-0.43113l0.6463-0.35005 6.5916 5.5181c3.6254 3.0349 6.7953 5.6804 7.0442 5.8788l0.45256 0.36073 0.53132-1.1229c2.655-5.609 2.616-12.008-0.108-17.58-3.193-6.5323-9.551-10.796-16.869-11.311-1.0698-0.07534-1.122-0.06793-1.0565 0.14998 0.17736 0.59076 3.0947 17.384 3.0433 17.518-0.0639 0.16657-2.9611 1.9147-3.0409 1.8349-0.027-0.02697-0.0768-4.0976-0.11069-9.0458-0.0549-8.0036-0.12055-10.824-0.24318-10.438-0.0211 0.06607-0.4199 4.0935-0.88635 8.9498s-0.87737 9.0081-0.91316 9.2262l-0.0651 0.39654-0.6241-0.36058c-0.54617-0.31555-0.6192-0.40258-0.58486-0.69687 0.0215-0.18496 0.62975-4.1892 1.3515-8.8983 0.72173-4.7091 1.3122-8.5943 1.3122-8.6337 0-0.11976-2.0254 0.08266-3.3491 0.33471-7.9515 1.5141-14.149 7.598-15.951 15.66-0.368 1.6459-0.51288 4.9864-0.2907 6.7027 0.28627 2.2115 1.0231 4.6599 1.9508 6.4824l0.40145 0.78871 7.0125-5.861 7.0125-5.861 0.64586 0.37097c0.35523 0.20403 0.64373 0.40012 0.64112 0.43575-0.002 0.03563-1.7118 1.3081-3.7981 2.8278-8.5639 6.2379-11.276 8.2422-11.318 8.3642-0.0279 0.08147 0.0579 0.07395 0.23454-0.02057 0.37677-0.20164 13.477-7.7263 15.388-8.8386 0.83755-0.48757 1.5553-0.88648 1.595-0.88648 0.0396 0 0.0572 0.78935 0.0388 1.7541l-0.0332 1.7541-0.54059 0.20899c-3.5954 1.39-16.408 6.4074-16.44 6.4378-0.1218 0.11662 1.6254 2.4096 2.6684 3.5022 3.1668 3.3168 7.3266 5.4647 11.833 6.1097 1.7026 0.24371 4.9911 0.15401 6.6804-0.18222zm3.2472-16.051c-3.5018-2.0813-6.4442-3.83-6.5385-3.886-0.12891-0.07648-0.044-0.1668 0.34201-0.36372 0.28243-0.14408 0.57944-0.23667 0.66003-0.20574 0.16414 0.06299 11.718 7.9683 11.897 8.1401 0.06277 0.06024 0.0898 0.1073 0.06007 0.10458-0.02974-0.0027-2.9192-1.7079-6.421-3.7892zm-12.433-1.195c0-0.02849 0.79738-0.71043 1.772-1.5154 0.97457-0.805 1.8592-1.5374 1.9658-1.6275 0.16511-0.13953 0.24963-0.13209 0.5698 0.0502 0.20677 0.11772 0.36031 0.26204 0.3412 0.32071-0.0363 0.11176-4.6488 2.8621-4.6488 2.772zm4.4604-3.5469c-0.38783-0.23644-0.40213-0.27073-0.33778-0.81044 0.0369-0.30995 0.27325-3.8882 0.5251-7.9516l0.45791-7.3881 0.0377 4.9254c0.0396 5.1668-0.0712 11.473-0.20152 11.472-0.0421-0.000241-0.25866-0.11155-0.4814-0.24734zm-14.291 16.676c-0.45841-0.5451-1.3068-1.7479-1.8852-2.6729-2.9988-4.7954-4.2566-8.6826-4.2566-13.154 0-7.1378 3.5125-13.694 9.4714-17.679 5.5712-3.7254 12.654-4.6021 18.9-2.3394 5.1172 1.8539 9.4769 5.575 12.179 10.395 1.0902 1.9449 1.837 3.9712 2.3513 6.3798 0.20247 0.94827 0.2133 0.9697 0.15174 0.30033-0.10553-1.1475-0.63664-3.3851-1.0978-4.6251-2.651-7.1278-8.862-12.441-16.433-14.059-1.541-0.32944-5.26-0.45812-6.98-0.24158-5.296 0.66658-10.304 3.3202-13.829 7.3272-5.559 6.3194-7.039 15.317-3.796 23.07 0.80562 1.9257 2.1058 4.0955 3.3116 5.5264 0.39838 0.47277 2.6397 2.763 2.704 2.763 0.0228 0-0.33353-0.44599-0.79194-0.99109z"/>
 </g>
</svg>
