<?xml version="1.0" encoding="UTF-8" standalone="no"?>
<!-- Created with Inkscape (http://www.inkscape.org/) -->
<svg id="svg2" xmlns:rdf="http://www.w3.org/1999/02/22-rdf-syntax-ns#" xmlns="http://www.w3.org/2000/svg" height="54" width="99" version="1.1" xmlns:cc="http://creativecommons.org/ns#" xmlns:dc="http://purl.org/dc/elements/1.1/">
 <metadata id="metadata7">
  <rdf:RDF>
   <cc:Work rdf:about="">
    <dc:format>image/svg+xml</dc:format>
    <dc:type rdf:resource="http://purl.org/dc/dcmitype/StillImage"/>
    <dc:title/>
   </cc:Work>
  </rdf:RDF>
 </metadata>
 <g id="g5205">
  <rect id="rect2990" opacity="0" height="54" width="99" y="0" x="0"/>
  <path id="path17532" fill="#fff" d="m49.5 27.002"/>
  <path id="path17534" d="m49.5 27.002"/>
  <path id="path17536" d="m49.5 27.002"/>
  <polygon id="polygon17538" points="72.026 70.164 75.187 68.357 114.69 95.448" transform="matrix(.31888 0 0 .31888 27.001 4.502)"/>
  <polygon id="polygon17540" points="69.757 68.722 66.822 67.029 70.096 15.331" transform="matrix(.31888 0 0 .31888 27.001 4.502)"/>
  <polygon id="polygon17542" points="66.22 68.543 53.126 79.379 68.816 70.124" transform="matrix(.31888 0 0 .31888 27.001 4.502)"/>
  <path id="path17544" d="m49.5 4.502c-12.426 0-22.499 10.074-22.499 22.499 0 12.426 10.073 22.499 22.499 22.499s22.499-10.074 22.499-22.499c0-12.427-10.077-22.501-22.501-22.501zm0.002 43.798c-5.1422 0-9.9525-1.7136-13.537-4.8607-3.4878-3.062-6.1963-7.93-6.865-13.103 1.5854 9.838 10.117 17.353 20.402 17.353 11.414 0 20.667-9.2529 20.667-20.667 0-4.7353-1.7695-9.3715-4.4483-12.857 2.7146 2.0941 5.0593 8.0584 5.0593 12.857 0 11.751-9.5265 21.278-21.278 21.278zm-1.954-22.901 1.82-18.655c0.04432 0 0.08833-0.00159 0.13297-0.00159 0.01531 0 0.03061 0.0003189 0.04624 0.0003189l0.17857 19.63 3.1317-1.8718-3.1505-17.757c11.094 0.11065 20.054 9.1368 20.054 20.257 0 3.5724-0.92602 6.9279-2.5488 9.8422l-14.062-11.766-1.3316 0.75606 15.298 11.178c-0.03858 0.06728-0.07749 0.13425-0.11671 0.20121l-17.2-9.895v3.4914l17.086 6.6046c-3.5411 5.8999-10 9.8485-17.382 9.8485-7.3744 0-13.828-3.9407-17.372-9.831l17.074-6.66v-3.4913l-17.224 9.8983c-0.038-0.065-0.0756-0.131-0.1129-0.197l15.244-11.145-1.332-0.756-14.024 11.704c-1.6017-2.8996-2.5143-6.2331-2.5143-9.78 0-11.033 8.8195-20.005 19.792-20.254l-2.7446 17.895 1.2599 0.75542zm1.952-19.687c-11.751 0-21.277 9.5265-21.277 21.278 0 4.7723 1.7328 9.2867 4.3734 13.186 0.89573 1.6751 1.8651 2.7124 3.1582 4.082-5.0676-4.047-8.3466-10.278-8.3466-17.268 0-12.201 9.8913-22.092 22.092-22.092s22.28 10.322 21.918 22.091c-0.305-11.484-10.359-21.276-21.917-21.276z"/>
 </g>
</svg>
