<?xml version="1.0" encoding="UTF-8" standalone="no"?>
<!-- Created with Inkscape (http://www.inkscape.org/) -->
<svg id="svg2" xmlns:rdf="http://www.w3.org/1999/02/22-rdf-syntax-ns#" xmlns="http://www.w3.org/2000/svg" height="45" width="67.5" version="1.1" xmlns:cc="http://creativecommons.org/ns#" xmlns:dc="http://purl.org/dc/elements/1.1/">
 <metadata id="metadata7">
  <rdf:RDF>
   <cc:Work rdf:about="">
    <dc:format>image/svg+xml</dc:format>
    <dc:type rdf:resource="http://purl.org/dc/dcmitype/StillImage"/>
    <dc:title/>
   </cc:Work>
  </rdf:RDF>
 </metadata>
 <g id="g15527">
  <rect id="rect2990" opacity="0" height="45" width="67.5" y="0" x="3.5527e-15"/>
  <g id="g15502">
   <polygon id="polygon17608" fill-rule="evenodd" transform="matrix(.2598 0 0 .2598 -45.588 -79.721)" points="305.38 385.58 328.09 346.19 328.09 346.19 305.38 307.11 282.98 346.19" clip-rule="evenodd"/>
   <polygon id="polygon17610" stroke-linejoin="round" stroke-linecap="round" transform="matrix(.2598 0 0 .2598 -45.588 -79.721)" stroke="#000" points="328.09 346.19 305.38 307.11 305.38 307.11 282.98 346.19 305.38 385.58" stroke-miterlimit="2.6131" stroke-width=".676"/>
   <polygon id="polygon17612" fill-rule="evenodd" transform="matrix(.2598 0 0 .2598 -45.588 -79.721)" points="260.89 385.58 237.25 424.66 237.25 424.66 282.67 424.66 305.38 385.58" clip-rule="evenodd"/>
   <polygon id="polygon17614" stroke-linejoin="round" stroke-linecap="round" transform="matrix(.2598 0 0 .2598 -45.588 -79.721)" stroke="#000" points="237.25 424.66 282.67 424.66 282.67 424.66 305.38 385.58 260.89 385.58" stroke-miterlimit="2.6131" stroke-width=".676"/>
   <polygon id="polygon17616" fill-rule="evenodd" transform="matrix(.2598 0 0 .2598 -45.588 -79.721)" points="373.51 424.66 350.49 385.58 350.49 385.58 305.38 385.58 328.4 424.66" clip-rule="evenodd"/>
   <polygon id="polygon17618" stroke-linejoin="round" stroke-linecap="round" transform="matrix(.2598 0 0 .2598 -45.588 -79.721)" stroke="#000" points="350.49 385.58 305.38 385.58 305.38 385.58 328.4 424.66 373.51 424.66" stroke-miterlimit="2.6131" stroke-width=".676"/>
   <polygon id="polygon17620" fill-rule="evenodd" transform="matrix(.2598 0 0 .2598 -45.588 -79.721)" points="248.76 433.65 248.76 452.57 252.18 452.57 252.18 440.48 256.22 449.47 259.96 440.48 259.96 452.57 263.69 452.57 263.69 433.96 263.69 433.96 259.34 433.96 256.22 442.02 252.8 433.65" clip-rule="evenodd"/>
   <polygon id="polygon17622" fill-rule="evenodd" transform="matrix(.2598 0 0 .2598 -45.588 -79.721)" points="266.18 452.57 269.91 452.57 269.91 452.57 269.91 433.96 266.18 433.96" clip-rule="evenodd"/>
   <polygon id="polygon17624" fill-rule="evenodd" transform="matrix(.2598 0 0 .2598 -45.588 -79.721)" points="274.89 452.57 278.62 452.57 278.62 436.76 282.05 436.76 282.05 433.96 271.16 433.96 271.16 436.76 271.16 436.76 274.89 436.76" clip-rule="evenodd"/>
   <polygon id="polygon17626" fill-rule="evenodd" transform="matrix(.2598 0 0 .2598 -45.588 -79.721)" points="327.46 452.57 327.46 433.96 327.46 433.96 324.04 433.96 324.04 452.57" clip-rule="evenodd"/>
   <polygon id="polygon17628" fill-rule="evenodd" transform="matrix(.2598 0 0 .2598 -45.588 -79.721)" points="345.82 433.96 342.4 433.96 342.4 452.57 345.82 452.57 345.82 444.2 352.66 444.2 352.66 452.57 356.4 452.57 356.4 433.65 356.4 433.65 352.66 433.65 352.66 441.1 345.82 441.1" clip-rule="evenodd"/>
   <polygon id="polygon17630" fill-rule="evenodd" transform="matrix(.2598 0 0 .2598 -45.588 -79.721)" points="362.31 452.57 362.31 433.96 362.31 433.96 358.89 433.96 358.89 452.57" clip-rule="evenodd"/>
   <path id="path17632" d="m30.515 33.585c-0.24213-0.40295-0.64638-0.64353-1.2123-0.64353-0.56585-0.08132-0.96986 0.1603-1.2933 0.56325-0.40425 0.56429-0.32319 1.0483 0.0808 1.6115l0.48479 0.32267c0.40399 0.1603 0.56611 0.32267 0.88932 0.48297 0.2424 0.08028 0.40425 0.24213 0.40425 0.40295 0.08054 0.40295 0 0.64535-0.40425 0.72559-0.32345 0.08028-0.64664 0-0.80826-0.24265-0.08133-0.15933-0.162-0.32066-0.162-0.56266h-0.88899c0 0.24213 0 0.48349 0.16134 0.80639 0.16186 0.40295 0.48557 0.72559 0.97012 0.88592 0.40425 0.08028 0.96986 0 1.4546-0.32267 0.48557-0.32163 0.6469-0.80592 0.56585-1.3694-0.08054-0.40243-0.40399-0.72512-0.80826-0.96672-0.16186-0.08132-0.48479-0.24161-0.80799-0.48401-0.40425-0.1603-0.48479-0.32163-0.48479-0.56325-0.08132-0.32267 0.08054-0.48297 0.48479-0.48297 0.40399-0.08132 0.64613 0.1603 0.72746 0.72459h0.80826c0.000259-0.32215 0.000259-0.64457-0.1616-0.88699z" fill-rule="evenodd" clip-rule="evenodd"/>
   <path id="path17634" d="m34.317 36.246v-3.3028h-0.88952v3.3834c0 0.48297-0.2424 0.80592-0.72692 0.80592-0.48531 0-0.6469-0.32267-0.6469-0.80592v-3.3834h-0.88879v3.3028c-0.08054 1.1291 0.40399 1.6923 1.5356 1.6923 1.0504 0.08002 1.6164-0.48323 1.6164-1.6923z" fill-rule="evenodd" clip-rule="evenodd"/>
   <polygon id="polygon17638" fill-rule="evenodd" transform="matrix(.2598 0 0 .2598 -45.588 -79.721)" points="273.34 476.14 277.07 467.46 277.07 479.55 280.8 479.55 280.8 460.64 276.45 460.64 273.34 469.01 269.91 460.64 265.87 460.64 265.87 460.64 265.87 479.55 269.29 479.55 269.29 467.46" clip-rule="evenodd"/>
   <polygon id="polygon17640" fill-rule="evenodd" transform="matrix(.2598 0 0 .2598 -45.588 -79.721)" points="295.11 460.64 295.11 463.43 298.84 463.43 298.84 479.24 302.58 479.24 302.58 463.43 306.31 463.43 306.31 463.43 306.31 460.64" clip-rule="evenodd"/>
   <path id="path17642" d="m38.761 40.759h0.48479c0.56585 0 0.80799 0.24265 0.80799 0.72559 0 0.56325-0.32319 0.80592-0.96986 0.80592l1.2125 2.4974h1.0507l-1.1312-2.0145s0-0.08028 0.0808-0.08028h0.08132c0.48427-0.24265 0.72666-0.72559 0.64613-1.3699-0.08106-0.96726-0.64613-1.4502-1.8586-1.3699h-1.2935v4.8346h0.88932v-4.029h-0.00026z" fill-rule="evenodd" clip-rule="evenodd"/>
   <path id="path17644" d="m28.011 40.837c-0.48505 0.80592-0.56559 1.6928-0.32319 2.5798 0.32319 0.96619 0.88879 1.4492 1.778 1.4492 0.80826 0 1.4546-0.40295 1.6972-1.3691 0.40399-0.88592 0.40399-1.7728-0.08054-2.5788-0.40425-0.72512-0.88952-1.0473-1.5362-1.0473-0.64613 0-1.2123 0.32215-1.5354 0.96619zm0.64665 2.4985c-0.24265-0.56429-0.24265-1.1281 0-1.8532 0.08054-0.48297 0.40399-0.72559 0.88879-0.72559 0.40425 0 0.72772 0.24265 0.80826 0.80592 0.24213 0.80592 0.1616 1.4512-0.08054 2.0145-0.16186 0.32267-0.40425 0.56429-0.80826 0.56429-0.40399 0-0.64664-0.24162-0.80826-0.80592z" fill-rule="evenodd" clip-rule="evenodd"/>
   <path id="path17646" d="m33.75 43.497c0.32319 0.96619 0.88879 1.4502 1.7783 1.3691 0.80799 0.08132 1.4546-0.40295 1.7778-1.2889 0.32319-0.88592 0.32319-1.7718-0.16134-2.6588-0.40451-0.72512-0.88959-1.0473-1.4551-0.96726-0.72719 0-1.2123 0.24213-1.6164 0.88592-0.48505 0.88699-0.56559 1.7739-0.32319 2.6598zm0.97012-2.0145c0.16134-0.40295 0.40399-0.64535 0.88852-0.64535 0.40451-0.08028 0.72772 0.24265 0.88932 0.80592 0.16134 0.72559 0.16134 1.371-0.08106 1.9342-0.2424 0.40295-0.48453 0.56429-0.88879 0.56429-0.32345 0-0.64664-0.24161-0.80799-0.72459-0.24265-0.56533-0.24265-1.2094 0-1.9344z" fill-rule="evenodd" clip-rule="evenodd"/>
   <path id="path17648" d="m42.801 33.666c-0.24239-0.48401-0.64665-0.72459-1.2123-0.64431-0.56611-0.08028-0.97012 0.08028-1.2935 0.56325-0.40425 0.48401-0.32293 1.0483 0.08132 1.5315 0.08054 0.16134 0.24213 0.24265 0.48427 0.40295l0.88932 0.40295c0.24291 0.16134 0.40425 0.32215 0.40425 0.48297 0.08106 0.32267 0 0.56533-0.40425 0.72559-0.32319 0.08028-0.56559 0-0.80826-0.32267-0.08133-0.07933-0.162-0.32066-0.162-0.482h-0.88932c0 0.24265 0.08132 0.48297 0.1616 0.72559 0.16186 0.48297 0.48505 0.80592 0.96986 0.88592 0.40425 0.16134 0.97012 0.08028 1.4551-0.24161 0.48505-0.32163 0.64587-0.80592 0.56559-1.3699-0.08054-0.40295-0.40425-0.72559-0.80799-0.96619l-0.80826-0.48401c-0.40425-0.16134-0.48505-0.40295-0.48505-0.56429 0-0.32267 0.08106-0.48297 0.48505-0.56325 0.40425-0.08132 0.64639 0.1603 0.72746 0.80592h0.80852c-0.00026-0.40373-0.00026-0.64587-0.16212-0.88746z" fill-rule="evenodd" clip-rule="evenodd"/>
   <path id="path17650" d="m41.508 40.517c-0.32267 0.56429-0.32267 1.0473 0.16186 1.6115l0.40425 0.32163 0.88952 0.48401c0.2424 0.08132 0.40425 0.24162 0.40425 0.40295 0.08054 0.40295 0 0.64431-0.40425 0.80592-0.32371 0-0.56585 0-0.72772-0.32164-0.16186-0.16237-0.24239-0.32267-0.24239-0.56533h-0.88979c0 0.24265 0.08132 0.48401 0.16186 0.80592 0.16186 0.40295 0.48505 0.72559 0.97012 0.88699 0.40399 0.08132 0.96986 0 1.4546-0.32215 0.48557-0.32267 0.72799-0.80539 0.56611-1.3705-0.08-0.40266-0.32266-0.64332-0.80732-0.96599l-0.80826-0.48297c-0.40399-0.16237-0.48479-0.32267-0.48479-0.56533 0-0.32164 0.08106-0.48297 0.48479-0.48297 0.40425-0.08028 0.72799 0.16134 0.72799 0.72559h0.80826c0.08054-0.32267 0-0.64535-0.16186-0.88646-0.24265-0.40295-0.64638-0.64482-1.2125-0.64482-0.56585-0.0808-0.97012 0.16082-1.2938 0.56377z" fill-rule="evenodd" clip-rule="evenodd"/>
   <text id="text15425" style="word-spacing:0px;letter-spacing:0px" font-weight="bold" xml:space="preserve" transform="scale(.88851 1.1255)" line-height="125%" font-size="5.9686px" y="33.605156" x="38.807499" font-family="sans-serif" fill="#000000"><tspan id="tspan15427" x="38.807499" y="33.605156">B</tspan></text>
  </g>
 </g>
</svg>
