<?xml version="1.0" encoding="UTF-8" standalone="no"?>
<!-- Created with Inkscape (http://www.inkscape.org/) -->
<svg id="svg2" xmlns:rdf="http://www.w3.org/1999/02/22-rdf-syntax-ns#" xmlns="http://www.w3.org/2000/svg" height="54" width="99" version="1.1" xmlns:cc="http://creativecommons.org/ns#" xmlns:dc="http://purl.org/dc/elements/1.1/">
 <metadata id="metadata7">
  <rdf:RDF>
   <cc:Work rdf:about="">
    <dc:format>image/svg+xml</dc:format>
    <dc:type rdf:resource="http://purl.org/dc/dcmitype/StillImage"/>
    <dc:title/>
   </cc:Work>
  </rdf:RDF>
 </metadata>
 <g id="g3305">
  <g id="g3345">
   <g id="g3722">
    <g id="g3757">
     <g id="g3952">
      <g id="g4047">
       <g id="g4079">
        <g id="g4116">
         <g id="g4159">
          <g id="g4184">
           <g id="g4225">
            <g id="g4264">
             <g id="g4289">
              <g id="g4304">
               <g id="g4413">
                <g id="g4448">
                 <g id="g4472">
                  <g id="g4680">
                   <g id="g4737">
                    <g id="g4823">
                     <g id="g4901">
                      <g id="g4966">
                       <g id="g5048">
                        <g id="g5083">
                         <g id="g5131">
                          <g id="g5167">
                           <g id="g5212">
                            <g id="g5245">
                             <g id="g5325">
                              <g id="g5374">
                               <g id="g5399">
                                <g id="g5453">
                                 <g id="g5488">
                                  <g id="g5505">
                                   <g id="g5539">
                                    <g id="g5680">
                                     <g id="g5825">
                                      <g id="g5937">
                                       <g id="g6005">
                                        <g id="g5873">
                                         <g id="g5004">
                                          <rect id="rect2990" opacity="0" height="54" width="99" y="0" x="0"/>
                                         </g>
                                        </g>
                                        <g id="g4038" fill="#000" transform="translate(28.457172,4.5001574)">
                                         <polygon id="polygon17608" fill-rule="evenodd" transform="matrix(0.30734088,0,0,0.30734088,-72.81293,-94.283596)" points="328.09,346.19,328.09,346.19,305.38,307.11,282.98,346.19,305.38,385.58" clip-rule="evenodd"/>
                                         <polygon id="polygon17610" stroke-linejoin="round" stroke-linecap="round" transform="matrix(0.30734088,0,0,0.30734088,-72.81293,-94.283596)" stroke="#000" points="305.38,307.11,305.38,307.11,282.98,346.19,305.38,385.58,328.09,346.19" stroke-miterlimit="2.61310005" stroke-width="0.676"/>
                                         <polygon id="polygon17612" fill-rule="evenodd" transform="matrix(0.30734088,0,0,0.30734088,-72.81293,-94.283596)" points="237.25,424.66,237.25,424.66,282.67,424.66,305.38,385.58,260.89,385.58" clip-rule="evenodd"/>
                                         <polygon id="polygon17614" stroke-linejoin="round" stroke-linecap="round" transform="matrix(0.30734088,0,0,0.30734088,-72.81293,-94.283596)" stroke="#000" points="282.67,424.66,282.67,424.66,305.38,385.58,260.89,385.58,237.25,424.66" stroke-miterlimit="2.61310005" stroke-width="0.676"/>
                                         <polygon id="polygon17616" fill-rule="evenodd" transform="matrix(0.30734088,0,0,0.30734088,-72.81293,-94.283596)" points="350.49,385.58,350.49,385.58,305.38,385.58,328.4,424.66,373.51,424.66" clip-rule="evenodd"/>
                                         <polygon id="polygon17618" stroke-linejoin="round" stroke-linecap="round" transform="matrix(0.30734088,0,0,0.30734088,-72.81293,-94.283596)" stroke="#000" points="305.38,385.58,305.38,385.58,328.4,424.66,373.51,424.66,350.49,385.58" stroke-miterlimit="2.61310005" stroke-width="0.676"/>
                                         <polygon id="polygon17620" fill-rule="evenodd" transform="matrix(0.30734088,0,0,0.30734088,-72.81293,-94.283596)" points="252.18,452.57,252.18,440.48,256.22,449.47,259.96,440.48,259.96,452.57,263.69,452.57,263.69,433.96,263.69,433.96,259.34,433.96,256.22,442.02,252.8,433.65,248.76,433.65,248.76,452.57" clip-rule="evenodd"/>
                                         <polygon id="polygon17622" fill-rule="evenodd" transform="matrix(0.30734088,0,0,0.30734088,-72.81293,-94.283596)" points="269.91,452.57,269.91,452.57,269.91,433.96,266.18,433.96,266.18,452.57" clip-rule="evenodd"/>
                                         <polygon id="polygon17624" fill-rule="evenodd" transform="matrix(0.30734088,0,0,0.30734088,-72.81293,-94.283596)" points="278.62,452.57,278.62,436.76,282.05,436.76,282.05,433.96,271.16,433.96,271.16,436.76,271.16,436.76,274.89,436.76,274.89,452.57" clip-rule="evenodd"/>
                                         <polygon id="polygon17626" fill-rule="evenodd" transform="matrix(0.30734088,0,0,0.30734088,-72.81293,-94.283596)" points="327.46,433.96,327.46,433.96,324.04,433.96,324.04,452.57,327.46,452.57" clip-rule="evenodd"/>
                                         <polygon id="polygon17628" fill-rule="evenodd" transform="matrix(0.30734088,0,0,0.30734088,-72.81293,-94.283596)" points="342.4,452.57,345.82,452.57,345.82,444.2,352.66,444.2,352.66,452.57,356.4,452.57,356.4,433.65,356.4,433.65,352.66,433.65,352.66,441.1,345.82,441.1,345.82,433.96,342.4,433.96" clip-rule="evenodd"/>
                                         <polygon id="polygon17630" fill-rule="evenodd" transform="matrix(0.30734088,0,0,0.30734088,-72.81293,-94.283596)" points="362.31,433.96,362.31,433.96,358.89,433.96,358.89,452.57,362.31,452.57" clip-rule="evenodd"/>
                                         <path id="path17632" d="m17.216,39.757c-0.28644-0.47669-0.76466-0.76128-1.4341-0.76128-0.66939-0.0962-1.1473,0.18963-1.5299,0.66632-0.47822,0.66754-0.38233,1.2401,0.09558,1.9064l0.5735,0.38172c0.47792,0.18963,0.6697,0.38172,1.052,0.57135,0.28675,0.09497,0.47822,0.28644,0.47822,0.47669,0.09528,0.47669,0,0.76344-0.47822,0.8584-0.38264,0.09497-0.76497,0-0.95614-0.28706-0.0962-0.18963-0.19147-0.38049-0.19147-0.66693h-1.0517c0,0.28644,0,0.57196,0.19086,0.95399,0.19147,0.47669,0.57442,0.8584,1.1476,1.048,0.47822,0.09497,1.1473,0,1.7208-0.38172,0.57442-0.38049,0.76528-0.95337,0.66939-1.62-0.09528-0.47607-0.47792-0.85779-0.95614-1.1436-0.19147-0.0962-0.5735-0.28583-0.95583-0.57258-0.47822-0.18963-0.5735-0.38049-0.5735-0.66632-0.0962-0.38172,0.09528-0.57135,0.5735-0.57135,0.47792-0.0962,0.76436,0.18963,0.86056,0.85717h0.9546c0.000307-0.3811,0.000307-0.76251-0.19117-1.0493z" fill-rule="evenodd" clip-rule="evenodd"/>
                                         <path id="path17634" d="m21.713,42.904v-3.9072h-1.0523v4.0025c0,0.57135-0.28675,0.95337-0.85994,0.95337-0.57411,0-0.76528-0.38172-0.76528-0.95337v-4.0025h-1.0514v3.9072c-0.09528,1.3357,0.47792,2.002,1.8167,2.002,1.2426,0.09466,1.9123-0.57165,1.9123-2.002z" fill-rule="evenodd" clip-rule="evenodd"/>
                                         <path id="path17636" d="m24.294,39.09-1.8164-0.09497v5.8143h2.2943c0.5738,0,0.95614-0.19086,1.1473-0.66754,0.47822-0.57258,0.47822-1.1442,0.0962-1.8105-0.0962-0.19209-0.28736-0.38172-0.6697-0.57258,0.47822-0.28583,0.6697-0.57258,0.76466-0.85717,0.19147-0.4773,0.09589-0.8584-0.28675-1.2401-0.28644-0.47669-0.86086-0.66632-1.5296-0.57135zm-0.76528,0.8584h2.581c0.38202,0,0.66877,0.18963,0.66877,0.66632,0.0962,0.38172-0.09528,0.57135-0.47792,0.66754l-0.57319,0.0962v0.85717h0.47822c0.57288,0.0962,0.76436,0.38049,0.76436,0.85717,0,0.57258-0.19147,0.76344-0.76436,0.76344h-0.86117v-3.9078z" fill-rule="evenodd" clip-rule="evenodd"/>
                                         <path id="path17648" d="m31.751,39.852c-0.28675-0.57258-0.76497-0.85717-1.4341-0.76221-0.6697-0.09497-1.1476,0.09497-1.5303,0.66632-0.47822,0.57258-0.38202,1.2401,0.0962,1.8118,0.09528,0.19086,0.28644,0.28706,0.57288,0.47669l1.052,0.47668c0.28736,0.19086,0.47822,0.3811,0.47822,0.57135,0.09589,0.38172,0,0.66877-0.47822,0.8584-0.38233,0.09497-0.66908,0-0.95614-0.38172-0.09589-0.09497-0.19086-0.38049-0.19086-0.57135h-1.052c0,0.28706,0.0962,0.57135,0.19117,0.8584,0.19147,0.57135,0.57381,0.95337,1.1473,1.048,0.47822,0.19086,1.1476,0.09497,1.7214-0.28583,0.57381-0.38049,0.76405-0.95337,0.66908-1.6206-0.09527-0.47669-0.47822-0.8584-0.95583-1.143l-0.95614-0.57258c-0.47822-0.19086-0.57381-0.47669-0.57381-0.66754,0-0.38172,0.09589-0.57135,0.57381-0.66632,0.47822-0.0962,0.76466,0.18963,0.86055,0.95337h0.95644c-0.000307-0.47761-0.000307-0.76405-0.19178-1.0499z" fill-rule="evenodd" clip-rule="evenodd"/>
                                        </g>
                                       </g>
                                      </g>
                                     </g>
                                    </g>
                                   </g>
                                  </g>
                                 </g>
                                </g>
                               </g>
                              </g>
                             </g>
                            </g>
                           </g>
                          </g>
                         </g>
                        </g>
                       </g>
                      </g>
                     </g>
                    </g>
                   </g>
                  </g>
                 </g>
                </g>
               </g>
              </g>
             </g>
            </g>
           </g>
          </g>
         </g>
        </g>
       </g>
      </g>
     </g>
    </g>
   </g>
  </g>
 </g>
</svg>
