<?xml version="1.0" encoding="UTF-8" standalone="no"?>
<!-- Created with Inkscape (http://www.inkscape.org/) -->
<svg id="svg2" xmlns:rdf="http://www.w3.org/1999/02/22-rdf-syntax-ns#" xmlns="http://www.w3.org/2000/svg" height="45" width="67.5" version="1.1" xmlns:cc="http://creativecommons.org/ns#" xmlns:dc="http://purl.org/dc/elements/1.1/">
 <metadata id="metadata7">
  <rdf:RDF>
   <cc:Work rdf:about="">
    <dc:format>image/svg+xml</dc:format>
    <dc:type rdf:resource="http://purl.org/dc/dcmitype/StillImage"/>
    <dc:title/>
   </cc:Work>
  </rdf:RDF>
 </metadata>
 <g id="g14776">
  <rect id="rect2990" opacity="0" height="45" width="67.5" y="0" x="3.5527e-15"/>
  <path id="path14774" d="m15.909 44.887c-0.59057-0.17782-1.1162-0.58006-1.3865-1.0611l-0.26548-0.47236v-20.842c0-20.526 0.004-20.85 0.23733-21.308 0.26025-0.51013 0.68283-0.85416 1.3109-1.0672 0.30089-0.10206 5.0268-0.13769 18.003-0.13574 16.812 0.0015748 17.618 0.011535 18.081 0.22204 0.59971 0.27241 1.0893 0.83831 1.2538 1.4492 0.0848 0.3148 0.11468 7.0861 0.0932 21.089-0.0298 19.377-0.0444 20.648-0.2416 21.009-0.24744 0.45249-0.82747 0.90872-1.3983 1.0998-0.48516 0.16244-35.149 0.17904-35.687 0.01709zm17.487-2.2613c0.19604-0.11449 0.46636-0.39529 0.60072-0.624 0.21912-0.37299 0.24831-0.66007 0.28331-2.7863l0.0391-2.3705h-0.54911-0.54912v2.2671c0 2.0245-0.0237 2.2964-0.22133 2.5405-0.26837 0.33142-0.89568 0.36784-1.1946 0.06937-0.17361-0.17331-0.21335-0.55077-0.26434-2.5105l-0.06-2.3065-0.51703-0.03725-0.51703-0.03725 0.037 2.4377c0.0356 2.3519 0.0471 2.4519 0.32512 2.8418 0.57968 0.81277 1.6975 1.0356 2.5875 0.51575zm-4.2925-0.01436c0.5612-0.34219 0.80283-0.78166 0.80283-1.4602 0-0.7781-0.26779-1.1215-1.3652-1.7505-0.94751-0.54311-1.0768-0.67227-1.0796-1.0786-0.002-0.2859 0.40601-0.63693 0.74032-0.63693 0.26651 0 0.69811 0.45921 0.69811 0.74277 0 0.17462 0.0971 0.21742 0.49345 0.21742h0.49345l-0.0822-0.45009c-0.1661-0.90891-0.70183-1.3741-1.5949-1.3849-1.0504-0.0127-1.7278 0.61059-1.7541 1.6141-0.0154 0.58761 0.31278 1.0216 1.1338 1.4996 1.0157 0.59124 1.3405 0.90643 1.3405 1.301 0 0.40491-0.3965 0.78093-0.82346 0.78093-0.34429 0-0.73218-0.36021-0.83681-0.7771-0.065-0.25876-0.144-0.30311-0.54016-0.30311-0.45878 0-0.46324 0.0045-0.38993 0.39008 0.1934 1.0174 0.78936 1.5294 1.7802 1.5294 0.38359 0 0.73851-0.08438 0.98367-0.23387zm14.675 0.05713c1.0682-0.55242 1.2541-1.9961 0.35439-2.7532-0.19491-0.164-0.67838-0.47087-1.0744-0.68195-0.9549-0.50895-1.1326-1.1233-0.41895-1.4485 0.43524-0.19831 0.88786 0.03189 0.98129 0.49907 0.0659 0.32967 0.11449 0.3614 0.55308 0.3614h0.48079l-0.0703-0.43278c-0.14022-0.86416-0.69987-1.3732-1.544-1.4045-1.0941-0.04048-1.7779 0.59005-1.7779 1.6395 0 0.69962 0.33315 1.0866 1.4943 1.7359 0.95504 0.53401 1.1821 0.90655 0.8559 1.4044-0.40272 0.61463-1.267 0.43931-1.5516-0.31475-0.11254-0.29815-0.19491-0.34732-0.58187-0.34732-0.44372 0-0.44962 0.0061-0.37686 0.39008 0.11076 0.58451 0.29859 0.88964 0.7548 1.2262 0.48252 0.35599 1.365 0.41406 1.9212 0.12643zm-26.755-1.7127 0.006-1.7703 0.55829 1.3503c0.30706 0.74264 0.58819 1.3502 0.62472 1.3502 0.0366-0.000022 0.30948-0.63464 0.60654-1.4103l0.5401-1.4102 0.0331 1.8304 0.0331 1.8304h0.53698 0.53697v-2.9468-2.9468l-0.61412 0.03628-0.61411 0.03628-0.34945 0.8821c-0.19219 0.48516-0.43421 1.0793-0.53782 1.3203l-0.18838 0.43815-0.51355-1.3203-0.51356-1.3203-0.61494-0.03628-0.61494-0.03628v2.9468 2.9468h0.5401 0.5401l0.006-1.7703zm5.3956-1.1771v-2.9475l-0.5101 0.0369-0.5101 0.03691-0.0322 2.9106-0.0322 2.9106h0.54223 0.54224v-2.9475zm2.668 0.517 0.0325-2.4305 0.57011-0.03658 0.57011-0.03658v-0.47681-0.47681l-1.7103 0.0333-1.7103 0.0333-0.0372 0.45009-0.0373 0.45009h0.60736 0.60736v2.4605 2.4605h0.53761 0.53763l0.0325-2.4305zm12.998 2.2412c0.9386-0.4454 1.0446-1.9665 0.19091-2.7391l-0.25117-0.2273 0.28422-0.28422c0.3886-0.3886 0.47041-0.90403 0.23633-1.489-0.28942-0.72334-0.68782-0.884-2.2032-0.88847l-1.2602-0.0037-0.0322 2.9106-0.0322 2.9106h1.3342c0.96643 0 1.4442-0.05219 1.7332-0.18931zm-1.903-0.73087c-0.044-0.04401-0.08-0.96218-0.08-2.0404v-1.9604h0.54011c0.54771 0 1.0202 0.29336 1.0202 0.63342 0 0.35986-0.37464 0.68683-0.78695 0.68683-0.40214 0-0.41328 0.01294-0.41328 0.48009 0 0.45043 0.0217 0.48009 0.35026 0.48009 0.51272 0 0.71807 0.10896 0.91194 0.48386 0.22334 0.43189 0.0472 0.98817-0.37364 1.1799-0.32778 0.14935-1.0413 0.18388-1.1686 0.05655zm4.333-1.9904-0.0322-2.9106-0.5101-0.03691-0.51009-0.0369v2.9475 2.9475h0.54224 0.54224l-0.0322-2.9106zm5.935 1.6203 0.0341-1.2902 0.99019-0.03486 0.99019-0.03486v1.3251 1.3251h0.54011 0.5401v-2.9475-2.9475l-0.5101 0.0369-0.5101 0.03691-0.0345 1.1102-0.0345 1.1102h-1.0157-1.0157v-1.1402-1.1402h-0.48009-0.4801v2.9406 2.9406h0.47604 0.47603l0.0341-1.2902zm5.2272-1.6203-0.0322-2.9106-0.5101-0.03691-0.5101-0.0369v2.9475 2.9475h0.54224 0.54224l-0.0322-2.9106zm1.1081-21.546c0-15.876-0.009-16.552-0.22268-16.95-0.13133-0.24488-0.4345-0.52723-0.73902-0.68826l-0.51633-0.27304h-17.55c-18.946 0-18.014-0.03102-18.621 0.61964-0.14413 0.15429-0.31966 0.43258-0.39007 0.61841-0.0884 0.23333-0.12802 5.4232-0.12802 16.773v16.435h19.084 19.084v-16.535zm-37.115 15.147c-0.0372-0.03717 1.2656-2.4001 2.8952-5.251l2.9627-5.1834 6.0266-0.03112c3.3146-0.01712 6.0266 0.0014 6.0266 0.04099 0 0.03966-1.3338 2.4166-2.964 5.2821l-2.964 5.21h-5.9577c-3.2767 0-5.9881-0.03041-6.0253-0.06758zm23.937-0.08245c-0.13559-0.16345-5.9061-10.292-5.9061-10.366 0-0.02509 2.714-0.04383 6.0312-0.04164l6.0312 0.004 2.9406 5.1635c1.6173 2.8399 2.9586 5.2146 2.9806 5.277 0.0656 0.18624-11.923 0.15-12.077-0.03651zm-8.9664-15.723c-1.6265-2.855-2.9671-5.2247-2.979-5.2659-0.012-0.04118 1.3238-2.434 2.9683-5.3173 2.3724-4.1595 3.0196-5.2101 3.1332-5.0861 0.0787 0.08596 1.4501 2.4496 3.0474 5.2525l2.9042 5.0962-0.27636 0.49361c-2.2669 4.0489-5.6962 10.013-5.759 10.015-0.0448 0.0017-1.4123-2.3329-3.0388-5.1879z"/>
 </g>
</svg>
