<?xml version="1.0" encoding="UTF-8" standalone="no"?>
<!-- Created with Inkscape (http://www.inkscape.org/) -->
<svg id="svg2" xmlns:rdf="http://www.w3.org/1999/02/22-rdf-syntax-ns#" xmlns="http://www.w3.org/2000/svg" height="54" width="99" version="1.1" xmlns:cc="http://creativecommons.org/ns#" xmlns:dc="http://purl.org/dc/elements/1.1/">
 <metadata id="metadata7">
  <rdf:RDF>
   <cc:Work rdf:about="">
    <dc:format>image/svg+xml</dc:format>
    <dc:type rdf:resource="http://purl.org/dc/dcmitype/StillImage"/>
    <dc:title/>
   </cc:Work>
  </rdf:RDF>
 </metadata>
 <g id="g3305">
  <g id="g3345">
   <g id="g3722">
    <g id="g3757">
     <g id="g3952">
      <g id="g4047">
       <g id="g4079">
        <g id="g4116">
         <g id="g4159">
          <g id="g4184">
           <g id="g4225">
            <g id="g4264">
             <g id="g4289">
              <g id="g4304">
               <g id="g4413">
                <g id="g4448">
                 <g id="g4472">
                  <g id="g4680">
                   <g id="g4737">
                    <g id="g4823">
                     <g id="g4901">
                      <g id="g4966">
                       <g id="g5048">
                        <g id="g5083">
                         <g id="g5131">
                          <g id="g5167">
                           <g id="g5212">
                            <g id="g5245">
                             <g id="g5325">
                              <g id="g5374">
                               <g id="g5399">
                                <g id="g5453">
                                 <g id="g5488">
                                  <g id="g5505">
                                   <g id="g5539">
                                    <g id="g5680">
                                     <g id="g5825">
                                      <g id="g5937">
                                       <g id="g6005">
                                        <g id="g6083">
                                         <g id="g6153">
                                          <g id="g6193">
                                           <g id="g6226">
                                            <g id="g5873">
                                             <g id="g5004">
                                              <rect id="rect2990" opacity="0" height="54" width="99" y="0" x="0"/>
                                             </g>
                                            </g>
                                            <g id="g3702" transform="matrix(0.7440148,0,0,0.7440148,16.021194,4.5000327)">
                                             <polygon id="polygon17825" fill-rule="evenodd" transform="matrix(0.51365759,0,0,0.51365759,-111.8596,-173.3616)" points="235.4,410.08,235.4,395.1,243.74,410.08,254.26,410.08,254.26,387.43,248.46,387.43,248.46,403.5,240.12,387.43,228.52,387.43,228.52,387.43,228.52,410.08" clip-rule="evenodd"/>
                                             <polygon id="polygon17827" fill-rule="evenodd" transform="matrix(0.51365759,0,0,0.51365759,-111.8596,-173.3616)" points="259.33,410.08,259.33,410.08,267.31,410.08,267.31,387.43,259.33,387.43" clip-rule="evenodd"/>
                                             <path id="path17829" d="M63.436,25.645h-4.6553l-5.2137,11.635h3.7245l0.93126-2.0649h5.9595l1.1177,2.0649h3.7245l-5.589-11.635zm-3.911,6.5687,1.6761-3.3788,1.6766,3.3788h-3.3526z" fill-rule="evenodd" clip-rule="evenodd"/>
                                             <polygon id="polygon17831" fill-rule="evenodd" transform="matrix(0.51365759,0,0,0.51365759,-111.8596,-173.3616)" points="360.85,410.08,360.85,394.73,369.55,410.08,380.43,410.08,380.43,387.43,373.54,387.43,373.54,403.14,365.92,387.43,353.96,387.43,353.96,387.43,353.96,410.08" clip-rule="evenodd"/>
                                             <path id="path17833" d="m27.866,34.464v2.8148h10.056c2.2344-0.93794,2.0485-3.3778,2.0485-3.3778v-0.56297c0-2.2524-2.2349-3.0028-2.2349-3.0028h-6.3319v-1.6894h7.635v-3.0023h-8.3798c-3.1662,0.75045-2.9797,3.7533-2.9797,3.7533v0.56297c0.3724,2.8143,2.6073,3.0028,2.6073,3.0028h6.3319v1.5009h-8.7532v0.000514z" fill-rule="evenodd" clip-rule="evenodd"/>
                                             <path id="path17835" d="m41.277,34.464v2.8148h10.056c2.2349-0.93794,2.048-3.3778,2.048-3.3778v-0.56297c0-2.2524-2.2349-3.0028-2.2349-3.0028h-6.3319v-1.6894h7.6355v-3.0023h-8.3798c-3.1662,0.75045-2.9797,3.7533-2.9797,3.7533v0.56297c0.37292,2.8143,2.6073,3.0028,2.6073,3.0028h6.3319v1.5009h-8.7527v0.000514z" fill-rule="evenodd" clip-rule="evenodd"/>
                                             <path id="path17837" d="m85.601,41.851c0.84034,0,1.6052-0.35134,2.1568-0.93486,0.5491-0.58197,0.88914-1.3936,0.88914-2.3222v-13.512c0-0.94924-0.3534-1.8194-0.92356-2.4507-0.55116-0.61125-1.3031-0.99341-2.1229-0.99341h-81.199c-0.8198,0-1.5718,0.38216-2.1229,0.99341-0.56965,0.63128-0.92356,1.5014-0.92356,2.4507v13.511c0,0.92921,0.34004,1.7408,0.88914,2.3222,0.55167,0.58403,1.3165,0.93486,2.1574,0.93486h81.199zm3.141,0.01079c-0.80079,0.84754-1.9149,1.3576-3.141,1.3576h-13.442c-2.2123,5.188-6.0293,9.48-10.815,12.486-4.854,3.05-10.711,4.778-16.901,4.778-6.1988,0-11.934-1.7274-16.703-4.7231-4.833-3.036-8.676-7.376-11.008-12.541h-12.333c-1.2266,0-2.3407-0.50955-3.1415-1.3576-0.77819-0.82391-1.26-1.9663-1.26-3.2684v-13.512c0-1.3067,0.48797-2.5051,1.2728-3.3758,0.79771-0.88452,1.9046-1.4372,3.1287-1.4372h11.09c2.429-6.024,6.429-11.098,11.472-14.662,5.029-3.5535,11.092-5.6071,17.664-5.6071,6.5363,0,12.649,2.0428,17.727,5.6317,5.0051,3.537,9.0044,8.575,11.413,14.636h11.831c1.224,0,2.3305,0.5527,3.1287,1.4372,0.78436,0.87014,1.2728,2.0685,1.2728,3.3758v13.511c-0.000514,1.3016-0.48232,2.4445-1.2605,3.2679zm-71.789-21.595h55.346c-2.3275-5.584-6.0715-10.228-10.72-13.514-4.856-3.4323-10.702-5.3857-16.954-5.3857-6.2851,0-12.083,1.9632-16.892,5.3616-4.6856,3.311-8.4337,7.9874-10.78,13.538zm43.666,34.272c4.3337-2.7219,7.8287-6.5389,9.966-11.134h-52.27c2.2437,4.5818,5.7648,8.4414,10.14,11.189,4.5633,2.8662,10.052,4.5197,15.983,4.5197,5.9256,0,11.533-1.6555,16.181-4.5746z"/>
                                            </g>
                                           </g>
                                          </g>
                                         </g>
                                        </g>
                                       </g>
                                      </g>
                                     </g>
                                    </g>
                                   </g>
                                  </g>
                                 </g>
                                </g>
                               </g>
                              </g>
                             </g>
                            </g>
                           </g>
                          </g>
                         </g>
                        </g>
                       </g>
                      </g>
                     </g>
                    </g>
                   </g>
                  </g>
                 </g>
                </g>
               </g>
              </g>
             </g>
            </g>
           </g>
          </g>
         </g>
        </g>
       </g>
      </g>
     </g>
    </g>
   </g>
  </g>
 </g>
</svg>
