<?xml version="1.0" encoding="UTF-8" standalone="no"?>
<!-- Created with Inkscape (http://www.inkscape.org/) -->
<svg id="svg2" xmlns:rdf="http://www.w3.org/1999/02/22-rdf-syntax-ns#" xmlns="http://www.w3.org/2000/svg" height="45" width="67.5" version="1.1" xmlns:cc="http://creativecommons.org/ns#" xmlns:dc="http://purl.org/dc/elements/1.1/">
 <metadata id="metadata7">
  <rdf:RDF>
   <cc:Work rdf:about="">
    <dc:format>image/svg+xml</dc:format>
    <dc:type rdf:resource="http://purl.org/dc/dcmitype/StillImage"/>
    <dc:title/>
   </cc:Work>
  </rdf:RDF>
 </metadata>
 <g id="g9422">
  <rect id="rect2990" opacity="0" height="45" width="67.5" y="0" x="3.5527e-15"/>
  <g id="g9357" transform="matrix(.99998 0 0 .99998 -15.749 -4.4991)">
   <path id="path11324" d="m49.5 49.5c6.0099 0 11.66-2.3404 15.91-6.5902 4.2497-4.2497 6.5902-9.8999 6.5902-15.91 0-6.0098-2.3404-11.66-6.5902-15.91-4.25-4.2504-9.9-6.5908-15.91-6.5908-12.407-0.0005-22.5 10.092-22.5 22.499 0 6.0099 2.3404 11.66 6.5902 15.91 4.2497 4.2497 9.8999 6.5902 15.91 6.5902z"/>
   <path id="path11326" fill="#fff" d="m27.778 27c0-5.8019 2.2595-11.257 6.3621-15.359 4.1027-4.1027 9.5578-6.3621 15.359-6.3621 5.8018 0 11.257 2.2595 15.359 6.3621 4.1027 4.1027 6.3621 9.5578 6.3621 15.359 0 11.977-9.7437 21.722-21.722 21.722-5.8019 0-11.257-2.2595-15.359-6.3621-4.1017-4.103-6.3612-9.558-6.3612-15.36z"/>
   <circle id="circle11328" cx="49.5" cy="27" r="20.826"/>
   <circle id="circle11330" cy="27" cx="49.5" r="13.303" fill="#fff"/>
   <path id="path11334" d="m37.052 27h12.448v-12.447c-6.874 0-12.447 5.573-12.447 12.447z"/>
   <path id="path11336" d="m49.5 27v12.447c6.8743 0 12.447-5.5729 12.447-12.447h-12.447z"/>
   <g id="g9323" fill="#fff">
    <path id="path11342" d="m39.724 14.308c-0.441-0.4285-1.123-0.5578-1.763-0.1611 0.122-0.3167 0.072-0.64 0.008-0.8184-0.276-0.5028-0.372-0.5656-0.6-0.7562-0.7351-0.6172-1.5092-0.0903-2.0628 0.5695l-2.6749 3.1877 4.205 3.5284 2.8208-3.3617c0.64435-0.76811 0.744-1.5296 0.06644-2.1882z"/>
    <polygon id="polygon11346" points="233.8 31.137 215.53 31.137 215.53 91.864 227.69 91.864 227.69 49.462 243.69 91.864 256.97 91.864 272.97 49.462 272.97 91.864 285.12 91.864 285.12 31.137 266.86 31.137 250.24 74.616 250.42 74.616" transform="matrix(.09027 0 0 .09027 27 4.5006)"/>
    <polygon id="polygon11350" points="361.39 140.16 350.26 126.52 388.35 77.52 397.75 89.124 373.89 120.33 410.35 104.68 420.43 117.13 397.54 149.53 433.03 132.69 442.42 144.29 386.57 171.36 375.54 157.64 397.51 125.52 397.38 125.35" transform="matrix(.09027 0 0 .09027 27 4.5006)"/>
   </g>
   <path id="path11352" d="m35.891 13.93c0.1861-0.2218 0.6068-0.2127 0.8773 0.0142 0.2979 0.2496 0.2979 0.6038 0.0985 0.8418l-1.5884 1.893-0.99396-0.83409 1.6066-1.9146z"/>
   <path id="path11354" d="m38.717 16.163-1.6748 1.9959-1.0502-0.88122 1.6883-2.0121c0.19065-0.22721 0.61573-0.29338 0.90243-0.05281 0.32452 0.27225 0.35666 0.68524 0.13423 0.95027z"/>
  </g>
 </g>
</svg>
