<?xml version="1.0" encoding="UTF-8" standalone="no"?>
<!-- Created with Inkscape (http://www.inkscape.org/) -->
<svg id="svg2" xmlns:rdf="http://www.w3.org/1999/02/22-rdf-syntax-ns#" xmlns="http://www.w3.org/2000/svg" height="45" width="67.5" version="1.1" xmlns:cc="http://creativecommons.org/ns#" xmlns:dc="http://purl.org/dc/elements/1.1/">
 <metadata id="metadata7">
  <rdf:RDF>
   <cc:Work rdf:about="">
    <dc:format>image/svg+xml</dc:format>
    <dc:type rdf:resource="http://purl.org/dc/dcmitype/StillImage"/>
    <dc:title/>
   </cc:Work>
  </rdf:RDF>
 </metadata>
 <g id="g17429">
  <rect id="rect2990" opacity="0" height="45" width="67.5" y="0" x="3.5527e-15"/>
  <g id="g12337" transform="matrix(.72678 0 0 .72678 3982.2 -2387.9)">
   <g id="g12416" transform="translate(-87.52,94.283)">
    <g id="g12509">
     <g id="g12536" transform="translate(-70.904,44.342)">
      <g id="g12573" transform="translate(-91.993,12.24)">
       <g id="g12702" transform="matrix(.48106 0 0 .48106 265.51 285.43)">
        <g id="g12786" transform="matrix(2.0787,0,0,2.0787,-353.9,-180.41)">
         <g id="g13369" transform="translate(-72.875,147.61)">
          <g id="g13448" transform="translate(-235.1,245.62)">
           <g id="g16692" transform="translate(-568.9,304.16)">
            <g id="g16792" transform="translate(-819.82,51.918)">
             <g id="g16844" transform="translate(-320.58,-280.42)">
              <g id="g16928" transform="translate(-317.62,350.72)">
               <g id="g16991" transform="translate(-50.48,60)">
                <g id="g17026" transform="translate(-14.694,56.175)">
                 <g id="g17167" transform="translate(-43.127,132.01)">
                  <g id="g17278" transform="translate(-81.509,191.32)">
                   <g id="g17299">
                    <g id="g18120" fill-rule="evenodd" clip-rule="evenodd" transform="matrix(.5121 0 0 .5121 -2909.4 1505)">
                     <path id="path18124" d="m305.38 447.9c-0.143 0-0.286-0.009-0.439-0.009 5.554-6.338 19.326-23.611 21.167-41.029h47.92l0.2-0.057c-6.58 23.46-34.9 41.1-68.85 41.1zm-68.849-41.038h57.979c14.563 9.354 10.555 33.165 8.771 41.01-32.993-0.706-60.279-18.066-66.75-41.01zm68.056-61.986c-5.21 5.421-16.759 19.278-20.7 39.129h-46.764c7.501-22.294 34.796-38.871 67.464-39.129zm2.148 0c32.4 0.449 59.429 16.959 66.892 39.129h-59.639c-11.157-8.513-8.503-31.456-7.253-39.129zm-1.355-8.952c-48.54 0-87.879 27.066-87.879 60.459 0 33.384 39.339 60.45 87.879 60.45 48.53 0 87.869-27.066 87.869-60.45 0-33.393-39.349-60.459-87.869-60.459z"/>
                     <path id="path18126" d="m375.98 399.72c0 1.432-1.202 2.501-2.682 2.501h-1.622v-10.212c0-0.64-0.554-1.174-1.25-1.174h-20.787v11.386h-4.409v-13.886h27.076c2.08 0 3.684 1.622 3.684 3.607l-0.01 7.778zm-141.1-0.009 25.119 0.009c0.745 0 1.26-0.448 1.25-1.088l-0.009-2.08h-26.331v-4.61c0-2.023 1.708-3.607 3.798-3.607h26.942v2.5h-25.27c-0.802 0-1.069 0.477-1.069 1.107l-0.029 2.109h26.369v4.581c0 2.033-1.68 3.589-3.789 3.589h-24.308c-1.478 0-2.68-1.079-2.68-2.51zm38.623-1.155c0 0.63 0.554 1.164 1.269 1.164h25.03v2.501h-26.914c-2.1 0-3.798-1.613-3.798-3.607v-6.671c0-1.985 1.699-3.607 3.798-3.607h26.91v2.5h-25.034c-0.715 0-1.269 0.544-1.269 1.174v6.546zm34.157-10.222v13.895h-4.428l0.009-13.895h4.419zm34.138 3.608v6.671c0 1.994-1.698 3.607-3.789 3.607h-23.114c-2.1 0-3.799-1.613-3.799-3.607v-6.671c0-1.985 1.699-3.607 3.799-3.607h23.114c2.091-0.001 3.789 1.621 3.789 3.607zm-5.679-1.107h-19.345c-0.716 0-1.279 0.534-1.279 1.164v6.547c0 0.64 0.563 1.174 1.279 1.174h19.345c0.716 0 1.279-0.534 1.27-1.164l0.01-6.557c-0.01-0.63-0.564-1.164-1.28-1.164z" fill="#fff"/>
                    </g>
                   </g>
                  </g>
                 </g>
                </g>
               </g>
              </g>
             </g>
            </g>
           </g>
          </g>
         </g>
        </g>
       </g>
      </g>
     </g>
    </g>
   </g>
  </g>
 </g>
</svg>
