<?xml version="1.0" encoding="UTF-8" standalone="no"?>
<!-- Created with Inkscape (http://www.inkscape.org/) -->
<svg id="svg2" xmlns:rdf="http://www.w3.org/1999/02/22-rdf-syntax-ns#" xmlns="http://www.w3.org/2000/svg" height="45" width="67.5" version="1.1" xmlns:cc="http://creativecommons.org/ns#" xmlns:dc="http://purl.org/dc/elements/1.1/">
 <metadata id="metadata7">
  <rdf:RDF>
   <cc:Work rdf:about="">
    <dc:format>image/svg+xml</dc:format>
    <dc:type rdf:resource="http://purl.org/dc/dcmitype/StillImage"/>
    <dc:title/>
   </cc:Work>
  </rdf:RDF>
 </metadata>
 <g id="g15043">
  <rect id="rect2990" opacity="0" height="45" width="67.5" y="0" x="-.0000038147"/>
  <path id="path15035" d="m30.696 44.962c-0.231-0.027-1.043-0.107-1.804-0.179-6.459-0.606-13.021-2.831-17.836-6.046-1.8821-1.257-2.6163-1.851-4.158-3.364-5.2824-5.182-7.1262-11.526-5.1623-17.761 2.524-8.0128 11.463-14.55 23.007-16.825 3.364-0.66296 4.795-0.78782 9.02-0.787 4.018 0.00078476 5.398 0.10971 8.419 0.66462 9.635 1.7698 17.625 6.5088 21.678 12.858 3.1696 4.9654 3.5362 10.839 1.002 16.056-0.92287 1.8997-2.1481 3.6319-3.7195 5.2584-1.6053 1.6616-2.7396 2.6095-4.646 3.8826-4.6758 3.1226-10.589 5.1843-17.261 6.0179-1.4196 0.17738-7.5492 0.33845-8.539 0.22439zm2.3944-3.9278c0.67642-3.3805 0.7034-6.9302 0.07158-9.4209-0.50829-2.0037-1.5234-3.699-2.8364-4.7369l-0.61328-0.48478h-10.806-10.806l0.28038 0.8118c1.6993 4.9204 5.9988 9.1457 11.973 11.766 3.4382 1.5082 8.2324 2.5797 11.988 2.6795l0.62288 0.01654 0.12634-0.6314zm5.6983 0.26625c9.9453-1.4487 17.745-6.833 20.333-14.037l0.31325-0.87194h-8.9519-8.9519l-0.07246 0.451c-0.34881 2.1702-0.954 3.9988-2.0997 6.3441-1.1641 2.3832-2.7257 4.8159-4.4863 6.9891-0.41191 0.50845-0.85464 1.0606-0.98385 1.2269l-0.23494 0.30245 1.7129-0.07793c0.94214-0.04285 2.482-0.18995 3.422-0.32687zm-20.287-17.121c0.40513-0.40512 0.40892-0.41905 0.40892-1.5033v-1.0944h-4.931-4.931v-0.36871c0-0.20279 0.056-0.47339 0.12451-0.60134 0.11989-0.22403 0.30204-0.23263 4.931-0.23263h4.8065v-0.42454-0.42454l-5.3493 0.03366-5.3493 0.03366-0.33337 0.33328c-0.30957 0.30949-0.33636 0.41468-0.37505 1.4733l-0.0417 1.14h4.9426 4.9426v0.45702c0 0.25136-0.06498 0.52196-0.14432 0.60134-0.10741 0.10741-1.3684 0.14432-4.931 0.14432-2.6327 0-4.7866 0.04682-4.7866 0.10405s0.11218 0.24665 0.24927 0.42094l0.24926 0.31689h5.0545 5.0545l0.40892-0.40891zm13.157-0.01203v-0.42094h-4.742c-4.1505 0-4.7655-0.02357-4.931-0.18899-0.27438-0.27438-0.27438-2.7151 0-2.9895 0.16542-0.16542 0.78043-0.18899 4.931-0.18899h4.742v-0.42094-0.42094h-5.1637c-3.0634 0-5.2891 0.0477-5.4721 0.11727-0.16964 0.06449-0.41874 0.29451-0.55353 0.51114-0.22102 0.35518-0.2417 0.5573-0.21052 2.0577l0.03458 1.6638 0.39276 0.35064 0.39276 0.35064h5.2899 5.2899v-0.42094zm2.8864-2.1047v-2.5256h-0.78174-0.78174v2.5256 2.5256h0.78174 0.78174v-2.5256zm12.339 2.1167 0.40891-0.40891v-1.7078-1.7078l-0.40891-0.40891-0.40892-0.40891-4.7926 0.000481c-4.5347 0.00048-4.8133 0.01302-5.1761 0.23428-0.49403 0.30123-0.63745 0.81665-0.63745 2.2909 0 1.3714 0.14243 1.951 0.56023 2.2796 0.30335 0.23862 0.45878 0.24601 5.1794 0.24601h4.8666l0.40892-0.40891zm-9.1884-0.57728c-0.19902-0.19903-0.19902-2.8798 0-3.0788 0.20643-0.20644 7.6831-0.20644 7.8895 0 0.19903 0.19903 0.19903 2.8798 0 3.0788-0.20643 0.20644-7.6831 0.20644-7.8895 0zm12.604-1.1185v-2.1047h3.9448c2.9078 0 3.9827 0.03794 4.0891 0.14432 0.10045 0.10044 0.14432 0.74031 0.14432 2.1047v1.9604h0.5412c0.38084 0 0.61247-0.07127 0.78174-0.24054 0.21909-0.21909 0.24054-0.40089 0.24054-2.0389 0-1.9485-0.07275-2.26-0.60007-2.5715-0.30237-0.17861-0.90626-0.20028-5.5822-0.20028h-5.2431v2.5256 2.5256h0.84187 0.84187v-2.1047zm-24.369-5.564c0.97065-4.2437 3.2491-8.6542 6.4237-12.435l0.99554-1.1856-0.57461 0.0012c-2.525 0.0054-6.3341 0.63079-9.2899 1.5251-7.1452 2.1619-13.001 7.0758-14.984 12.575l-0.16269 0.451h8.6896 8.6896l0.2132-0.93207zm33.018 0.30067c-0.482-1.221-1.371-2.799-2.219-3.934-4.256-5.7021-12.12-9.4244-20.998-9.9394-1.307-0.07581-1.4041-0.06613-1.4665 0.14613-0.40518 1.3783-0.50083 6.8097-0.15332 8.7062 0.41517 2.2658 1.1566 3.9412 2.2333 5.0466l0.59023 0.60597h11.131 11.131l-0.24876-0.6314z"/>
 </g>
</svg>
