<?xml version="1.0" encoding="UTF-8" standalone="no"?>
<!-- Created with Inkscape (http://www.inkscape.org/) -->
<svg id="svg2" xmlns:rdf="http://www.w3.org/1999/02/22-rdf-syntax-ns#" xmlns="http://www.w3.org/2000/svg" height="45" width="67.5" version="1.1" xmlns:cc="http://creativecommons.org/ns#" xmlns:dc="http://purl.org/dc/elements/1.1/">
 <metadata id="metadata7">
  <rdf:RDF>
   <cc:Work rdf:about="">
    <dc:format>image/svg+xml</dc:format>
    <dc:type rdf:resource="http://purl.org/dc/dcmitype/StillImage"/>
    <dc:title/>
   </cc:Work>
  </rdf:RDF>
 </metadata>
 <g id="g15110">
  <rect id="rect2990" opacity="0" height="45" width="67.5" y="0" x="-.0000038147"/>
  <path id="path15108" d="m65.862 26.572c-0.55019-0.42242-0.59908-1.0542-0.11876-1.5345 0.96505-0.96505 2.3857 0.39069 1.4515 1.3851-0.3143 0.33456-0.99251 0.41057-1.3327 0.14938zm1.1336-0.21477c0.60508-0.47596 0.26471-1.4704-0.50328-1.4704-0.82529 0-1.1831 0.96754-0.54375 1.4704 0.1738 0.13671 0.40938 0.24856 0.52351 0.24856s0.34971-0.11185 0.52351-0.24856zm-0.91328-0.05986c-0.04948-0.05024-0.08995-0.32846-0.08995-0.61828v-0.52694l0.44974 0.03722c0.43978 0.03639 0.45017 0.04852 0.46908 0.54693 0.01064 0.28034-0.02984 0.5097-0.08995 0.5097s-0.10929-0.08095-0.10929-0.1799c0-0.28358-0.45715-0.21852-0.50136 0.07135-0.02107 0.13819-0.0788 0.21014-0.12827 0.15991zm0.59971-0.80093c-0.07556-0.22693-0.4498-0.25919-0.4498-0.03878 0 0.11125 0.10254 0.18869 0.24985 0.18869 0.14655 0 0.22922-0.06198 0.19994-0.14991zm-65.153 1.004c-0.96687-0.175-1.3002-0.56-1.448-1.674l-0.081985-0.618h1.2747c1.0443 0 1.2747 0.03202 1.2747 0.17713 0 0.09742 0.13031 0.26252 0.28958 0.36688 0.24508 0.16058 0.66134 0.18405 2.7083 0.15268 2.2571-0.03459 2.4304-0.05309 2.594-0.27693 0.25309-0.3463 0.16339-0.92492-0.16892-1.0896-0.16447-0.08151-1.4327-0.16921-3.1782-0.21977-1.5974-0.04627-3.1171-0.13971-3.3769-0.20765-1.0613-0.27746-1.4718-1.1198-1.3647-2.8008 0.0604-0.94787 0.30361-1.3242 1.1239-1.7386l0.59341-0.29982h3.6579c3.4422 0 3.6819 0.01414 4.0651 0.23986 0.61777 0.36388 0.88414 0.80121 0.94657 1.5541l0.0551 0.66459h-1.2024-1.2024l-0.12283-0.35233c-0.18563-0.53251-0.70167-0.63215-3.0366-0.58633-2.2919 0.04497-2.5008 0.12371-2.5008 0.94256 0 0.74936 0.048 0.76146 3.5958 0.906 2.7342 0.11139 3.268 0.16374 3.6697 0.35979 0.72484 0.35384 0.9082 0.82635 0.86528 2.2298-0.0397 1.2965-0.1931 1.6329-0.94751 2.0772-0.3805 0.22412-0.64327 0.24118-4.0051 0.26-1.9788 0.01108-3.8138-0.01886-4.0776-0.06654zm11.326-0.0042c-1.1683-0.36678-1.1923-0.46121-1.1923-4.6829v-3.4818h1.0704 1.0704l0.0389 3.128c0.0365 2.9334 0.0534 3.1386 0.27173 3.2981 0.18239 0.13325 0.74072 0.16968 2.5785 0.16825 1.2901-0.00096 2.4266-0.05295 2.5256-0.11542 0.15101-0.09535 0.1856-0.62455 0.21546-3.2962l0.0356-3.1827h1.0738 1.0738v3.4898c0 3.8737-0.0425 4.1247-0.76574 4.5208-0.32618 0.17862-0.83791 0.2075-4.0315 0.22749-2.0118 0.01259-3.7959-0.02044-3.9647-0.07343zm9.9612-4.0309v-4.1584l3.8678 0.04828c4.1786 0.05216 4.3924 0.0834 4.9873 0.72896 0.6368 0.69102 0.62317 2.2682-0.0252 2.911l-0.37482 0.37164 0.35979 0.23167c0.51585 0.33215 0.77914 0.93735 0.77936 1.7914 0.00024 0.92919-0.2795 1.4641-0.97118 1.857l-0.52776 0.29982-4.0476 0.03849-4.0476 0.0385v-4.1584zm7.1413 2.168c0.34012-0.34012 0.3907-0.9114 0.10592-1.1962-0.15904-0.15903-0.5711-0.18846-2.6385-0.18846h-2.45v0.83951 0.83951h2.3441c2.3289 0 2.346-0.0019 2.6385-0.29438zm-0.18535-3.1836c0.32414-0.32414 0.30204-0.78824-0.0545-1.1448-0.29139-0.29138-0.317-0.29438-2.5185-0.29438h-2.2242v0.83951 0.83951h2.2787c2.1188 0 2.2955-0.01683 2.5185-0.23986zm26.535 5.0433c-0.47416-0.11644-0.71243-0.30467-0.93811-0.74108-0.13799-0.26685-0.17199-1.034-0.17199-3.8812v-3.5486l1.0494 0.03465 1.0494 0.03465 0.05996 3.0981c0.05594 2.8903 0.07558 3.1095 0.29276 3.2681 0.18236 0.1332 0.74103 0.16964 2.5785 0.1682 1.2901-0.000959 2.4267-0.05296 2.5256-0.11545 0.15081-0.09525 0.18641-0.62819 0.22017-3.2962l0.04027-3.1826h1.0691 1.0691l-0.00024 3.448c-0.00024 3.7926-0.03272 3.9865-0.75792 4.5188-0.32325 0.2373-0.50261 0.24932-4.0177 0.26927-2.0236 0.01149-3.8544-0.02211-4.0683-0.07465zm-23.777-0.07388c0-0.03722 0.98146-1.8739 2.181-4.0815l2.181-4.0138 1.2458 0.03381 1.2458 0.03381 1.6752 3.0582c0.92134 1.682 1.9186 3.5035 2.2162 4.0476l0.54103 0.98942-1.2356-0.000359-1.2356-0.00036-0.35979-0.68926-0.35979-0.68926-2.4791-0.03239-2.4791-0.03239-0.39692 0.72199-0.39691 0.72198h-1.1716c-0.64439 0.000036-1.1716-0.03041-1.1716-0.06763zm6.7708-3.7401c-0.85386-1.5512-1.152-2.0688-1.1916-2.0688-0.0219 0-0.38989 0.64762-0.81774 1.4392l-0.7779 1.4392h1.6164 1.6164l-0.44562-0.80953zm5.1306-0.23986 0.03157-4.0476 4.0177 0.000959c3.9073 0.0008 4.0326 0.0082 4.56 0.2673 0.74006 0.36352 0.98674 0.8227 1.0525 1.9592 0.06375 1.1012-0.09417 1.6551-0.64598 2.2658l-0.40139 0.44429 0.41915 0.40626c0.4778 0.46306 0.77237 1.292 0.77237 2.1735v0.57788h-1.1262-1.1262l-0.04532-0.89742c-0.06821-1.3506 0.0093-1.3139-2.8632-1.3583l-2.3946-0.03697v1.1463 1.1463h-1.1409-1.1409l0.03158-4.0476zm7.1082-0.06015c0.68169-0.58636 0.42767-1.9225-0.42048-2.2118-0.25573-0.08721-1.2048-0.14579-2.4286-0.14991l-2.0088-0.0068v1.3192 1.3192h2.272c2.1837 0 2.2842-0.01049 2.5859-0.27003z"/>
 </g>
</svg>
