<?xml version="1.0" encoding="UTF-8" standalone="no"?>
<!-- Created with Inkscape (http://www.inkscape.org/) -->
<svg id="svg2" xmlns:rdf="http://www.w3.org/1999/02/22-rdf-syntax-ns#" xmlns="http://www.w3.org/2000/svg" height="54" width="99" version="1.1" xmlns:cc="http://creativecommons.org/ns#" xmlns:dc="http://purl.org/dc/elements/1.1/">
 <metadata id="metadata7">
  <rdf:RDF>
   <cc:Work rdf:about="">
    <dc:format>image/svg+xml</dc:format>
    <dc:type rdf:resource="http://purl.org/dc/dcmitype/StillImage"/>
    <dc:title/>
   </cc:Work>
  </rdf:RDF>
 </metadata>
 <g id="g3305">
  <g id="g3345">
   <g id="g3722">
    <g id="g3757">
     <g id="g3952">
      <g id="g4047">
       <g id="g4079">
        <g id="g4116">
         <g id="g4159">
          <g id="g4184">
           <g id="g4225">
            <g id="g4264">
             <g id="g4289">
              <g id="g4304">
               <g id="g4413">
                <g id="g4448">
                 <g id="g4472">
                  <g id="g4680">
                   <g id="g4737">
                    <g id="g4823">
                     <g id="g4901">
                      <g id="g4966">
                       <g id="g5048">
                        <g id="g5083">
                         <g id="g5131">
                          <g id="g5167">
                           <g id="g5212">
                            <g id="g5245">
                             <g id="g5325">
                              <g id="g5374">
                               <g id="g5399">
                                <g id="g5453">
                                 <g id="g5488">
                                  <g id="g5505">
                                   <g id="g5539">
                                    <g id="g5680">
                                     <g id="g5825">
                                      <g id="g5937">
                                       <g id="g6005">
                                        <g id="g6083">
                                         <g id="g6153">
                                          <g id="g6193">
                                           <g id="g6226">
                                            <g id="g6331">
                                             <g id="g6451" transform="translate(5.25,-0.75)">
                                              <g id="g6513">
                                               <g id="g6551">
                                                <g id="g5873" transform="translate(-5.25,0.75)">
                                                 <g id="g5004">
                                                  <rect id="rect2990" opacity="0" height="54" width="99" y="0" x="0"/>
                                                 </g>
                                                </g>
                                                <g id="g3734" transform="translate(-0.75012543,11.04409)">
                                                 <path id="path18176" d="m11.335,21.989c2.8887,0,2.5277,3.0695,2.5794,3.1985h-2.9922c0-0.02612,0-0.92894-0.82498-0.92894h-6.0352c-1.1865,0-1.1865,2.0632-0.10293,2.1155,1.9603,0.10293,5.1583,0.07681,7.7889,0.20586,1.2377,0.07784,2.3213,0.87721,2.3213,2.2184,0,0.05121,0.05172,2.3213,0.05172,2.3213,0.0256,1.547-1.3156,2.2696-2.6306,2.2696h-8.6142c-1.4441,0-2.6306-1.057-2.837-2.4765-0.051721-0.36102-0.051721-0.67033,0-1.0314h2.9917s-0.051721,1.2894,1.2377,1.2894c2.2696,0,3.559,0.05223,5.6223,0,1.5475-0.02612,1.8051-2.2696,0-2.3725-2.1662-0.102-3.8172-0.181-6.5507-0.258-1.8569-0.052-3.1986-0.774-3.1986-2.269v-2.3213c0-1.0831,1.0319-1.9603,2.476-1.9603h8.7179zm7.1181,0.36102c-0.05172,0.07681,0,4.5397,0,7.9446,0,0.48905,0.3093,0.87619,0.92842,0.87619h5.7769c0.61912,0,0.77377-0.51516,0.77377-0.92842,0.05172-3.0434,0.05172-7.7633,0-7.8406h3.3009s0.02612,5.674,0.05172,8.7173c0.02612,1.3663-1.1348,2.2435-2.7853,2.2696-3.0946,0.05121-4.6426,0-7.5313,0-2.0115,0-3.7398-0.593-3.7659-2.2696-0.0256-3.4566-0.10293-8.6928-0.05172-8.7696h3.3025v0.000512zm22.284,0.05223c3.0434,0,3.3527,2.2184,3.3527,2.8887,0,1.8051-1.5214,2.5533-1.5993,2.5794,0.0256,0,1.8056,0.67033,1.8056,2.4242,0,0.97912-0.15516,3.0685-3.559,3.0946-3.9206,0.05121-10.239,0-10.265,0v-10.987h10.265zm-0.82549,4.5387c0.61861,0,1.1348-0.36102,1.1348-1.186,0-0.72205-0.593-1.1343-1.2377-1.1343-2.1662,0-5.9577-0.05223-6.035,0v2.3203c0.07681,0.05172,3.7649,0,6.1379,0zm0.05121,4.2299c0.64472,0,1.2894-0.36102,1.2894-1.186,0-0.77428-0.64472-1.2644-1.3412-1.2382-2.0115,0.02612-6.0611,0-6.1384,0.05223v2.3725c0.07784,0.05121,3.5596-0.000512,6.1902-0.000512zm10.162-8.769h4.0235l5.932,10.987h-3.2507l-1.1863-2.218h-6.9119l-1.2381,2.218h-3.3011l5.9321-10.987zm1.9603,2.4242-2.1661,3.9718h4.4357l-2.2696-3.9718zm18.26-0.20586c0.82549,0,1.3412,0.97912,1.3412,1.7534,0,0.77326-0.54179,1.5993-1.3412,1.5993-2.373,0-5.9838,0.02612-6.035,0v-3.3527c0.07733-0.05223,3.8689,0,6.035,0zm-6.035,5.3637c0.02612,0,3.9718,0.02612,5.9321,0,0.8511-0.02612,1.547,0.87721,1.547,1.6505v1.7544h2.9404v-1.7022c0-1.5993-1.6766-2.5277-1.7022-2.5277,0.07733-0.02612,1.6505-1.0831,1.6505-2.8375,0-2.0632-0.82498-3.9196-3.8683-3.9196h-9.8015v10.989h3.3015v-3.4049h0.000512zm14.856-7.6343c-0.07733,0.10293,0.05172,4.5397,0.05172,7.9446,0,0.48905,0.25809,0.87619,0.92842,0.87619h5.7257c0.61912,0,0.77428-0.51516,0.77428-0.92842,0.05172-3.0434,0.10293-7.7633,0.05172-7.8406h3.2497s0.02612,5.674,0.05172,8.7173c0.02612,1.3663-1.0831,2.2435-2.7341,2.2696-3.1468,0.05121-4.6938,0-7.5308,0-2.012,0-3.791-0.56689-3.8171-2.2696-0.05172-3.4566-0.05172-8.6928,0-8.7696h3.2487v0.000512z" fill-rule="evenodd" clip-rule="evenodd"/>
                                                 <path id="path18178" d="m45.768,0.46591c-4.1336,0-7.9482,1.0969-10.76,2.7612-2.8795,1.7048-4.6964,3.9969-4.6964,6.2941,0,2.2926,1.8087,4.5597,4.6769,6.2434,2.8124,1.651,6.6352,2.7335,10.779,2.7335,4.1766,0,8.0153-1.0805,10.837-2.7295,2.8836-1.6848,4.6964-3.9534,4.6964-6.248,0-2.3003-1.8205-4.5945-4.7148-6.2998-2.818-1.6599-6.649-2.7543-10.818-2.7543zm-10.996,2.3608c2.878-1.7038,6.777-2.8268,10.996-2.8268,4.2524,0,8.1668,1.1205,11.054,2.8211,3.0362,1.7887,4.9453,4.2273,4.9453,6.6997,0,2.4693-1.9019,4.8828-4.9274,6.65-2.8882,1.6868-6.8098,2.7935-11.072,2.7935-4.2268,0-8.1336-1.1092-11.013-2.7996-3.0101-1.7672-4.9079-4.1782-4.9079-6.6439-0.000512-2.4698,1.905-4.9064,4.9253-6.6941z"/>
                                                 <polygon id="polygon18180" fill-rule="evenodd" transform="matrix(0.51209212,0,0,0.51209212,-111.3827,-184.1689)" points="298.5,371.53,312.52,374.58,298.65,377.47,295.6,385.09,292.55,377.32,279.75,374.58,292.55,371.83,295.45,364.52,298.5,371.53" clip-rule="evenodd"/>
                                                 <polygon id="polygon18182" fill-rule="evenodd" transform="matrix(0.51209212,0,0,0.51209212,-111.3827,-184.1689)" points="313.89,378.69,319.84,379.91,313.89,381.28,312.67,384.48,311.3,381.13,305.81,379.91,311.3,378.69,312.52,375.64,313.89,378.69" clip-rule="evenodd"/>
                                                 <polygon id="polygon18184" fill-rule="evenodd" transform="matrix(0.51209212,0,0,0.51209212,-111.3827,-184.1689)" points="328.37,378.69,334.31,379.91,328.37,381.28,327.15,384.48,325.78,381.13,320.44,379.91,325.78,378.69,327.15,375.64,328.37,378.69" clip-rule="evenodd"/>
                                                 <polygon id="polygon18186" fill-rule="evenodd" transform="matrix(0.51209212,0,0,0.51209212,-111.3827,-184.1689)" points="324.56,369.7,330.5,370.92,324.56,372.14,323.34,375.49,321.97,372.14,316.48,370.92,321.97,369.7,323.19,366.65,324.56,369.7" clip-rule="evenodd"/>
                                                 <polygon id="polygon18188" fill-rule="evenodd" transform="matrix(0.51209212,0,0,0.51209212,-111.3827,-184.1689)" points="318.92,385.85,325.02,387.23,319.07,388.44,317.7,391.65,316.33,388.44,310.99,387.23,316.33,386.01,317.7,382.96,318.92,385.85" clip-rule="evenodd"/>
                                                 <polygon id="polygon18190" fill-rule="evenodd" transform="matrix(0.51209212,0,0,0.51209212,-111.3827,-184.1689)" points="303.22,386.92,309.17,388.29,303.22,389.51,302,392.71,300.63,389.36,295.14,388.29,300.63,387.07,301.85,383.87,303.22,386.92" clip-rule="evenodd"/>
                                                </g>
                                               </g>
                                              </g>
                                             </g>
                                            </g>
                                           </g>
                                          </g>
                                         </g>
                                        </g>
                                       </g>
                                      </g>
                                     </g>
                                    </g>
                                   </g>
                                  </g>
                                 </g>
                                </g>
                               </g>
                              </g>
                             </g>
                            </g>
                           </g>
                          </g>
                         </g>
                        </g>
                       </g>
                      </g>
                     </g>
                    </g>
                   </g>
                  </g>
                 </g>
                </g>
               </g>
              </g>
             </g>
            </g>
           </g>
          </g>
         </g>
        </g>
       </g>
      </g>
     </g>
    </g>
   </g>
  </g>
 </g>
</svg>
