<?xml version="1.0" encoding="UTF-8" standalone="no"?>
<!-- Created with Inkscape (http://www.inkscape.org/) -->
<svg id="svg2" xmlns:rdf="http://www.w3.org/1999/02/22-rdf-syntax-ns#" xmlns="http://www.w3.org/2000/svg" height="54" width="99" version="1.1" xmlns:cc="http://creativecommons.org/ns#" xmlns:dc="http://purl.org/dc/elements/1.1/">
 <metadata id="metadata7">
  <rdf:RDF>
   <cc:Work rdf:about="">
    <dc:format>image/svg+xml</dc:format>
    <dc:type rdf:resource="http://purl.org/dc/dcmitype/StillImage"/>
    <dc:title/>
   </cc:Work>
  </rdf:RDF>
 </metadata>
 <g id="g15343">
  <rect id="rect2990" opacity="0" height="54" width="99" y="0" x="0"/>
  <g id="g16928" transform="translate(3489.5 -2212.4)">
   <g id="g16991" transform="translate(-50.48 60)">
    <g id="g17026" transform="translate(-14.694 56.175)">
     <g id="g17167" transform="translate(-43.127 132.01)">
      <g id="g17278" transform="translate(-81.509 191.32)">
       <g id="g17299">
        <g id="g18209" fill-rule="evenodd" clip-rule="evenodd" transform="matrix(.51210 0 0 .51210 -3406.6 1597)">
         <path id="path18213" d="m286.26 388.53h4.588v11.023c0 1.016 0.583 1.426 1.566 1.426h7.817c0.982 0 1.565-0.41 1.565-1.426v-11.02h4.589v11.748c0 2.494-2.138 4.383-4.589 4.383h-10.95c-2.44 0-4.588-1.9-4.588-4.383v-11.75z"/>
         <path id="path18215" d="m264.5 399.69h4.567c0.075 0.918 0.615 1.295 1.522 1.295h8.39c0.777 0 1.209-0.67 1.209-1.393 0-0.973-0.713-1.479-1.63-1.479h-9.145c-3.013 0-5.064-1.469-5.064-4.643 0-1.652 0.648-3.401 2.116-4.287 0.918-0.561 2.041-0.647 3.099-0.647h10.775c2.333 0 4.211 1.652 4.189 4.027v0.853h-4.718c-0.043-0.734-0.475-1.209-1.252-1.209h-7.98c-0.81 0-1.49 0.41-1.49 1.307 0 0.885 0.691 1.22 1.479 1.22h9.75c3.153 0 4.784 2.105 4.784 5.171 0 2.938-1.361 4.762-4.406 4.762h-11.65c-2.656 0-4.535-1.068-4.557-3.896l-0.01-1.081z"/>
         <path id="path18217" d="m237.82 384.5c5.086 0 10.539 1.037 14.879 3.79 2.818 1.803 5.442 4.535 5.442 8.098 0 4.158-3.552 7.179-6.954 8.951-4.049 2.096-8.832 2.926-13.367 2.926-5.085 0-10.527-1.025-14.868-3.789-2.818-1.803-5.453-4.535-5.453-8.087 0-4.179 3.542-7.191 6.954-8.962 4.06-2.095 8.833-2.927 13.367-2.927z"/>
         <path id="path18219" d="m373.12 388.53h4.6v11.023c0 1.016 0.583 1.426 1.565 1.426h7.817c0.982 0 1.565-0.41 1.565-1.426v-11.02h4.589v11.748c0 2.482-2.148 4.383-4.589 4.383h-10.948c-2.451 0-4.6-1.889-4.6-4.383v-11.75h0.001z"/>
         <path id="path18221" d="m334.41 401.48-1.803 3.186h-5.097l8.757-16.13h5.992l8.757 16.13h-5.096l-1.804-3.186h-9.706zm4.848-8.864-2.893 5.377h5.798l-2.905-5.377z"/>
         <path id="path18223" d="m308.14 388.53h14.145c3.034 0 5.28 1.058 5.28 4.459 0 1.468-0.583 2.753-1.879 3.477 1.425 0.755 2.234 2.159 2.234 3.778 0 2.279-1.457 4.416-3.908 4.416h-15.86v-16.13zm4.697 12.448h8.724c0.854 0 1.642-0.465 1.642-1.393 0-0.918-0.799-1.393-1.642-1.393h-8.724v2.786zm0-6.121h8.724c0.788 0 1.285-0.551 1.285-1.317s-0.485-1.339-1.285-1.339h-8.724v2.656z"/>
         <path id="path18225" d="m351.89 388.53h15.376c3.066 0 4.546 2.505 4.546 5.302 0 1.813-0.659 3.508-2.321 4.372 1.619 0.789 2.364 2.031 2.364 3.846v2.611h-4.589v-2.611c0-1.535-0.853-2.086-2.332-2.086h-8.313v4.697h-4.73v-16.13h-0.001zm4.73 7.763h8.605c1.111 0 1.856-0.993 1.856-2.041 0-1.339-0.993-2.052-2.278-2.052h-8.184v4.093h0.001z"/>
         <path id="path18227" fill="#fff" d="m237.78 385.76c-4.729 0-9.826 0.885-13.929 3.358-2.581 1.544-5.128 3.973-5.128 7.202 0 3.789 3.455 6.445 6.543 7.969 3.822 1.867 8.292 2.592 12.515 2.592 4.739 0 9.836-0.887 13.939-3.359 2.57-1.555 5.129-3.973 5.129-7.201 0-3.8-3.445-6.457-6.543-7.968-3.824-1.87-8.294-2.593-12.526-2.593z"/>
         <polygon id="polygon18229" points="227.72 392.37 230.06 387.28 232.39 392.37 240.18 393.7 232.39 395.03 230.06 400.13 227.72 395.03 219.93 393.7 219.93 393.7"/>
         <polygon id="polygon18231" points="240.48 396.97 241.51 394.67 242.53 396.97 245.97 397.57 242.53 398.16 241.51 400.46 240.48 398.16 237.05 397.57 237.05 397.57"/>
         <polygon id="polygon18233" points="247.58 390.84 248.61 388.53 249.64 390.84 253.07 391.44 249.64 392.04 248.61 394.34 247.58 392.04 244.15 391.44 244.15 391.44"/>
         <polygon id="polygon18235" points="243.9 401.73 244.93 399.42 245.97 401.73 249.4 402.32 245.97 402.93 244.93 405.23 243.9 402.93 240.48 402.32 240.48 402.32"/>
         <polygon id="polygon18237" points="233.36 402.56 234.4 400.25 235.43 402.56 238.86 403.15 235.43 403.76 234.4 406.06 233.36 403.76 229.93 403.15 229.93 403.15"/>
         <polygon id="polygon18239" points="250.62 396.87 251.65 394.57 252.68 396.87 256.12 397.48 252.68 398.07 251.65 400.37 250.62 398.07 247.2 397.48 247.2 397.48"/>
        </g>
       </g>
      </g>
     </g>
    </g>
   </g>
  </g>
 </g>
</svg>
