<?xml version="1.0" encoding="UTF-8" standalone="no"?>
<!-- Created with Inkscape (http://www.inkscape.org/) -->
<svg id="svg2" xmlns:rdf="http://www.w3.org/1999/02/22-rdf-syntax-ns#" xmlns="http://www.w3.org/2000/svg" height="54" width="99" version="1.1" xmlns:cc="http://creativecommons.org/ns#" xmlns:dc="http://purl.org/dc/elements/1.1/">
 <metadata id="metadata7">
  <rdf:RDF>
   <cc:Work rdf:about="">
    <dc:format>image/svg+xml</dc:format>
    <dc:type rdf:resource="http://purl.org/dc/dcmitype/StillImage"/>
    <dc:title/>
   </cc:Work>
  </rdf:RDF>
 </metadata>
 <g id="g3305">
  <g id="g3345">
   <g id="g3722">
    <g id="g3757">
     <g id="g3952">
      <g id="g4047">
       <g id="g4079">
        <g id="g4116">
         <g id="g4159">
          <g id="g4184">
           <g id="g4225">
            <g id="g4264">
             <g id="g4289">
              <g id="g4304">
               <g id="g4413">
                <g id="g4448">
                 <g id="g4472">
                  <g id="g4680">
                   <g id="g4737">
                    <g id="g4823">
                     <g id="g4901">
                      <g id="g4966">
                       <g id="g5048">
                        <g id="g5083">
                         <g id="g5131">
                          <g id="g5167">
                           <g id="g5212">
                            <g id="g5245">
                             <g id="g5325">
                              <g id="g5374">
                               <g id="g5399">
                                <g id="g5453">
                                 <g id="g5488">
                                  <g id="g5505">
                                   <g id="g5539">
                                    <g id="g5680">
                                     <g id="g5825">
                                      <g id="g5937">
                                       <g id="g6005">
                                        <g id="g6083">
                                         <g id="g6153">
                                          <g id="g6193">
                                           <g id="g6226">
                                            <g id="g6331">
                                             <g id="g6451" transform="translate(5.25,-0.75)">
                                              <g id="g6513">
                                               <g id="g6551">
                                                <g id="g8093">
                                                 <g id="g8185">
                                                  <g id="g5873" transform="translate(-5.25,0.75)">
                                                   <g id="g5004">
                                                    <rect id="rect2990" opacity="0" height="54" width="99" y="0" x="0"/>
                                                   </g>
                                                  </g>
                                                  <g id="g4022" transform="matrix(0.66666769,0,0,0.66666769,25.873305,5.2501321)">
                                                   <path id="path18264" d="M17.334,57.869"/>
                                                   <path id="path18266" d="M24.496,57.869"/>
                                                   <path id="path18268" d="M31.658,57.869"/>
                                                   <path id="path18270" d="M38.82,57.869"/>
                                                   <path id="path18272" d="M8.6812,58.209"/>
                                                   <path id="path18274" d="M46.449,58.209"/>
                                                   <path id="path18276" d="M53.837,1.2923c-0.833-0.83341-1.942-1.2924-3.12-1.2924h-46.304c-2.433,0-4.4125,1.9794-4.4125,4.4123v58.675c0,1.1785,0.45899,2.2865,1.2923,3.12,0.83343,0.83343,1.9416,1.2924,3.1202,1.2924h46.304c1.1786,0,2.2868-0.45899,3.1202-1.2924,0.83343-0.83343,1.2923-1.9415,1.2923-3.12v-58.676c0-1.1785-0.459-2.2864-1.292-3.1198zm0.211,54.765h-10.9l1.856-2.212-3.2958-2.7655-9.0742,10.814,3.2958,2.7655,3.6081-4.3h14.51v2.7282c0,1.8369-1.4945,3.3314-3.3315,3.3314h-46.303c-0.88991,0-1.7265-0.34657-2.3557-0.97586-0.6292-0.629-0.9757-1.466-0.9757-2.356v-2.7278h11.356l-1.2876,1.5345,3.2958,2.7655,9.0742-10.814-3.2958-2.7655-4.1765,4.9775h-14.965v-51.646c0-0.88969,0.34646-1.7262,0.97575-2.3555,0.6293-0.6293,1.4659-0.9759,2.3557-0.9759h46.304c0.88991,0,1.7265,0.34657,2.3557,0.97586,0.629,0.6284,0.976,1.4649,0.976,2.3547v51.645z"/>
                                                   <path id="path18278" d="M27.564,34.02" stroke="#000" stroke-width="1.0810225" fill="#FFF"/>
                                                   <path id="path18280" d="M27.731,41.817c3.632-3.294,15.201-10.186,19.086-11.452l-23.984-18.202,1.1898-0.81015,10.052,7.5945c1.0554,0.76008,9.9237,2.5338,13.514-2.5338l-19.691-14.318c-3.294,3.1249-15.403,9.7311-19.795,11.252l24.695,18.774-0.944,0.887-8.584-6.519c-2.83-2.144-9.216-4.966-15.2,0.506l19.661,14.821z"/>
                                                   <rect id="rect18282" y="43.128" width="1.9764" x="47.175" height="5.4655"/>
                                                   <polygon id="polygon18284" points="213.97,443.99,241.08,417.36,213.97,417.36,213.97,403.94,272.06,403.94,272.06,415.09,244.86,441.72,272.06,441.72,272.06,455.13,213.97,455.13" transform="matrix(0.10676765,0,0,0.10676765,0,-1e-4)"/>
                                                   <polygon id="polygon18286" points="362.85,403.94,381.27,403.94,381.27,421.13,399.88,403.94,424.72,403.94,398.56,428.31,424.72,455.13,399.88,455.13,381.37,438.32,381.37,455.13,362.85,455.13" transform="matrix(0.10676765,0,0,0.10676765,0,-1e-4)"/>
                                                   <path id="path18288" d="m6.7186,46.829c0,1.2303,0.75645,1.9159,2.8135,1.926h1.1294c1.6638,0,2.5713-0.49401,2.5815-1.9563,0-1.1697-1.1295-1.5932-2.2387-1.7143-1.1092-0.12108-1.815-0.131-1.8352-0.49401,0.010036-0.26222,0.2824-0.35297,0.62512-0.35297,0.34283,0,1.0286,0.34283,1.0286,0.58487h2.2185c0-1.0991-0.92781-1.8654-2.7128-1.8654h-0.77619c-1.6335,0-2.8438,0.71588-2.8438,1.6033,0,0.86717,0,1.8958,2.3799,1.9562,1.2907,0.11104,1.7344,0.07068,1.7344,0.50426,0,0.24204-0.24204,0.37315-0.58487,0.36301-0.3322-0.01-0.9071-0.172-0.9071-0.555h-2.6121z"/>
                                                   <path id="path18290" d="m18.494,48.755c2.3899,0,2.8336-1.0487,2.8236-1.9563v-3.6705h-1.9765v3.3882c0,0.17147,0.1009,0.7462-1.0689,0.7462-1.2304,0-1.1697-0.58487-1.1697-0.75624v-3.3782h-1.977v3.6705c0,0.85724,0.20168,1.9563,2.7125,1.9563h0.65545z"/>
                                                   <path id="path18292" d="m33.797,48.755c2.3898,0,2.8335-1.0487,2.8235-1.9563v-3.6708h-1.976v3.3882c0,0.17147,0.10079,0.7462-1.0689,0.7462-1.2304,0-1.1697-0.58487-1.1697-0.75624v-3.3782h-1.9765v3.6705c0,0.85724,0.20168,1.9563,2.7125,1.9563h0.6553z"/>
                                                   <rect id="rect18294" transform="matrix(0.76606129,0.64276753,-0.64276753,0.76606129,0,0)" height="14.118" width="4.3025" y="21.53" x="53.812"/>
                                                   <rect id="rect18296" transform="matrix(0.76606129,0.64276753,-0.64276753,0.76606129,0,0)" height="14.118" width="4.3025" y="16.927" x="59.299"/>
                                                  </g>
                                                 </g>
                                                </g>
                                               </g>
                                              </g>
                                             </g>
                                            </g>
                                           </g>
                                          </g>
                                         </g>
                                        </g>
                                       </g>
                                      </g>
                                     </g>
                                    </g>
                                   </g>
                                  </g>
                                 </g>
                                </g>
                               </g>
                              </g>
                             </g>
                            </g>
                           </g>
                          </g>
                         </g>
                        </g>
                       </g>
                      </g>
                     </g>
                    </g>
                   </g>
                  </g>
                 </g>
                </g>
               </g>
              </g>
             </g>
            </g>
           </g>
          </g>
         </g>
        </g>
       </g>
      </g>
     </g>
    </g>
   </g>
  </g>
 </g>
</svg>
