<?xml version="1.0" encoding="UTF-8" standalone="no"?>
<!-- Created with Inkscape (http://www.inkscape.org/) -->
<svg id="svg2" xmlns:rdf="http://www.w3.org/1999/02/22-rdf-syntax-ns#" xmlns="http://www.w3.org/2000/svg" height="45" width="67.5" version="1.1" xmlns:cc="http://creativecommons.org/ns#" xmlns:dc="http://purl.org/dc/elements/1.1/">
 <metadata id="metadata7">
  <rdf:RDF>
   <cc:Work rdf:about="">
    <dc:format>image/svg+xml</dc:format>
    <dc:type rdf:resource="http://purl.org/dc/dcmitype/StillImage"/>
    <dc:title/>
   </cc:Work>
  </rdf:RDF>
 </metadata>
 <g id="g15288">
  <rect id="rect2990" opacity="0" height="45" width="67.5" y="0" x="-.0000038147"/>
  <path id="path15286" d="m17.247 44.87c-0.63618-0.23128-1.3407-0.89976-1.6513-1.5668l-0.28498-0.61202v-20.183-20.183l0.28283-0.60736c0.34143-0.73326 1.1046-1.4168 1.7922-1.6051 0.37294-0.10216 4.7306-0.12952 16.613-0.10431l16.108 0.03418 0.59124 0.36472c0.70747 0.43643 1.3028 1.3497 1.4154 2.1715 0.10041 0.73256 0.10041 39.126 0 39.859-0.11264 0.8218-0.70793 1.7351-1.4154 2.1715l-0.59124 0.36472-16.228 0.02156c-12.533 0.01665-16.32-0.01189-16.632-0.12531zm33.105-0.93952c0.75076-0.49685 0.99688-1.1236 0.99688-2.5387v-1.1634h-4.7953-4.7953l-1.0845 1.3011c-0.59646 0.71559-1.1629 1.3662-1.2588 1.4457-0.14273 0.11846-0.35595-0.0091-1.1782-0.70472-0.55216-0.46715-1.0039-0.92278-1.0039-1.0125 0-0.15137 5.8006-7.1565 5.926-7.1565 0.0593 0 1.0897 0.83455 1.7951 1.4539l0.41329 0.36287-0.47083 0.56327c-0.25895 0.3098-0.51107 0.63085-0.56028 0.71344-0.0708 0.11877 0.65312 0.15017 3.4616 0.15017h3.5511l-0.002-17.45c-0.002-16.883-0.01-17.466-0.23084-17.952-0.14358-0.31623-0.41778-0.6281-0.73941-0.84096l-0.51121-0.33832-15.927-0.03322c-17.685-0.03689-16.554-0.08649-17.296 0.75856-0.1977 0.22517-0.41616 0.6136-0.48548 0.86319-0.0852 0.30692-0.12624 6.0433-0.12668 17.723l-0.00068 17.27 5.0157-0.0028 5.0157-0.0028 1.253-1.5021c0.68913-0.82615 1.3226-1.5599 1.4077-1.6305 0.11696-0.09706 0.41929 0.09602 1.2381 0.79069l1.0833 0.91911-3.0188 3.6017c-1.6604 1.981-3.0614 3.5863-3.1134 3.5674-0.052-0.01886-0.55898-0.43052-1.1266-0.9148l-1.0321-0.8805 0.36297-0.45829c0.19964-0.25206 0.36298-0.49183 0.36298-0.53284 0-0.041-1.6624-0.06025-3.6942-0.04278l-3.6942 0.03177-0.0351 0.92959c-0.059 1.5645 0.33811 2.4078 1.3516 2.8701 0.46503 0.21213 1.16 0.22028 16.472 0.19314l15.987-0.02833 0.48722-0.32245zm-21.73-1.691c-0.5735-0.47793-1.0302-0.91788-1.015-0.97766 0.039-0.1526 5.885-7.1476 5.979-7.1542 0.12653-0.0089 2.1456 1.7007 2.1456 1.8167 0 0.11835-5.8452 7.1113-5.9816 7.1561-0.0469 0.01541-0.55452-0.36302-1.128-0.84096zm4.8234 0.01737c-0.55962-0.47195-1.0333-0.89822-1.0525-0.94727-0.0472-0.12004 5.8449-7.1473 5.9927-7.1473 0.14467 0 2.1516 1.6345 2.1516 1.7523 0 0.09606-5.8755 7.12-5.9969 7.169-0.0425 0.01719-0.53519-0.35488-1.0948-0.82683zm-12.825-9.852c-0.37902-0.1093-0.86494-0.6905-0.86597-1.0357-0.00072-0.23702 1.727-0.20464 1.9268 0.0361 0.19177 0.23106 0.77585 0.1825 0.77585-0.0645 0-0.195 0.0111-0.19216-1.1924-0.30659-0.69468-0.06605-0.88799-0.13511-1.1713-0.41846-0.61784-0.61785-0.32939-1.4999 0.59359-1.8152 0.63866-0.21811 2.1634-0.19041 2.6198 0.04761 0.42752 0.22295 0.58999 0.40236 0.70546 0.779 0.0799 0.26079 0.0562 0.27017-0.67608 0.26649-0.47604-0.0024-0.84588-0.06958-0.99215-0.1802-0.26347-0.19928-0.738-0.23428-0.84431-0.06227-0.10865 0.1758 0.28686 0.32686 1.0524 0.40198 0.92468 0.09072 1.4367 0.3971 1.5731 0.94127 0.14156 0.56486-0.0992 1.0619-0.6471 1.3356-0.46887 0.2343-2.1519 0.27838-2.8577 0.07483zm5.5463-0.03001c-0.6762-0.30696-0.76627-0.56601-0.76627-2.2038v-1.475h0.66075 0.66075v1.2467c0 1.4366 0.0661 1.551 0.86212 1.4937l0.51946-0.03738 0.0601-1.3215 0.0601-1.3215h0.66075 0.66076l0.0373 1.2014c0.0666 2.1446-0.19711 2.4877-1.9595 2.5496-0.748 0.02627-1.1968-0.0145-1.4563-0.13227zm10.212 0c-0.6762-0.30696-0.76627-0.56601-0.76627-2.2038v-1.475h0.66075 0.66075v1.2467c0 1.4366 0.0661 1.551 0.86211 1.4937l0.51946-0.03738 0.0601-1.3215 0.0601-1.3215h0.66075 0.66075l0.0344 1.3162c0.0542 2.0763-0.18384 2.3725-1.9565 2.4347-0.74799 0.02627-1.1968-0.0145-1.4563-0.13227zm-5.812-0.34232c0-0.32293 0.15523-0.54394 0.92824-1.3215l0.92824-0.93372h-0.92824-0.92824v-0.54345-0.54345l2.0724 0.03287 2.0724 0.03287 0.0397 0.34816c0.034 0.29793-0.10427 0.4929-0.95845 1.3515l-0.99817 1.0034h0.98847 0.98848v0.48055 0.48055h-2.1024-2.1024v-0.38779zm10.572-1.4743v-1.8621h0.65447 0.65448l0.0363 0.62023 0.0363 0.62022 0.67759-0.62022 0.6776-0.62023 0.88418 0.0056 0.88418 0.0056-0.95443 0.89926-0.95444 0.89926 0.95162 0.95723 0.95161 0.95723h-0.93338-0.93339l-0.59553-0.55705-0.59554-0.55705v0.55705 0.55705h-0.72082-0.72082v-1.8621zm5.6464 0v-1.8621h0.66075 0.66076v1.8621 1.8621h-0.66076-0.66075v-1.8621zm-19.342-7.4616c-3.4689-2.616-6.4153-4.8333-6.5474-4.9273-0.23409-0.16666-0.22984-0.17949 0.16513-0.49857 2.5344-2.0474 5.5007-2.3441 8.4665-0.84697 0.39111 0.19743 2.1435 1.4411 3.8942 2.7636l3.1831 2.4047 0.28911-0.28911 0.28911-0.28911-8.2215-6.2401c-4.5218-3.432-8.1864-6.2713-8.1436-6.3095 0.0429-0.0382 0.51045-0.24534 1.039-0.46031 2.5696-1.045 8.5104-4.372 10.752-6.0215 0.62771-0.46186 1.2038-0.87001 1.2801-0.90701 0.16041-0.07774 13.058 9.2608 13.112 9.4935 0.0536 0.23228-1.1018 1.2155-1.8373 1.5634-1.0236 0.48424-2.136 0.69945-3.6046 0.69737-1.4995-0.0022-2.6722-0.18581-3.2972-0.51646-0.23486-0.12424-1.8867-1.3295-3.6707-2.6783l-3.2437-2.4524-0.34154 0.24116-0.34154 0.24116 0.28148 0.26806c0.1548 0.14744 3.724 2.875 7.9316 6.0614l7.6501 5.7933-2.304 1.1661c-3.3182 1.6794-6.7243 3.7615-9.2908 5.6794-0.60502 0.45214-1.1186 0.82156-1.1413 0.82093-0.0227-0.000622-2.8795-2.1415-6.3484-4.7574z"/>
 </g>
</svg>
