<?xml version="1.0" encoding="UTF-8" standalone="no"?>
<!-- Created with Inkscape (http://www.inkscape.org/) -->
<svg id="svg2" xmlns:rdf="http://www.w3.org/1999/02/22-rdf-syntax-ns#" xmlns="http://www.w3.org/2000/svg" height="54" width="99" version="1.1" xmlns:cc="http://creativecommons.org/ns#" xmlns:dc="http://purl.org/dc/elements/1.1/">
 <metadata id="metadata7">
  <rdf:RDF>
   <cc:Work rdf:about="">
    <dc:format>image/svg+xml</dc:format>
    <dc:type rdf:resource="http://purl.org/dc/dcmitype/StillImage"/>
    <dc:title/>
   </cc:Work>
  </rdf:RDF>
 </metadata>
 <g id="g3305">
  <g id="g3345">
   <g id="g3722">
    <g id="g3757">
     <g id="g3952">
      <g id="g4047">
       <g id="g4079">
        <g id="g4116">
         <g id="g4159">
          <g id="g4184">
           <g id="g4225">
            <g id="g4264">
             <g id="g4289">
              <g id="g4304">
               <g id="g4413">
                <g id="g4448">
                 <g id="g4472">
                  <g id="g4680">
                   <g id="g4737">
                    <g id="g4823">
                     <g id="g4901">
                      <g id="g4966">
                       <g id="g5048">
                        <g id="g5083">
                         <g id="g5131">
                          <g id="g5167">
                           <g id="g5212">
                            <g id="g5245">
                             <g id="g5325">
                              <g id="g5374">
                               <g id="g5399">
                                <g id="g5453">
                                 <g id="g5488">
                                  <g id="g5505">
                                   <g id="g5539">
                                    <g id="g5680">
                                     <g id="g5825">
                                      <g id="g5937">
                                       <g id="g6005">
                                        <g id="g6083">
                                         <g id="g6153">
                                          <g id="g6193">
                                           <g id="g6226">
                                            <g id="g6331">
                                             <g id="g6451" transform="translate(5.25,-0.75)">
                                              <g id="g6513">
                                               <g id="g6551">
                                                <g id="g8093">
                                                 <g id="g8185">
                                                  <g id="g8234">
                                                   <g id="g5873" transform="translate(-5.25,0.75)">
                                                    <g id="g5004">
                                                     <rect id="rect2990" opacity="0" height="54" width="99" y="0" x="0"/>
                                                    </g>
                                                   </g>
                                                   <g id="g3766" fill-rule="evenodd" fill="#000" transform="matrix(0.66666665,0,0,0.66666665,24.744434,5.2498006)">
                                                    <path id="path18328" d="m3.6042,55.973c0.044936-0.76392,0.44936-1.3934,1.0789-1.8428,0.49737-0.35565,1.2137-0.63833,3.0115-0.67482,4.8094,0,4.1802,2.3375,4.1802,2.3375h-2.8771s-0.31494-0.80886-1.2137-0.80886c-0.89911,0-0.98899,0.40481-0.98899,0.6295,0,0.22468,0.22507,0.6295,1.0339,0.6295,0.80886,0,2.922,0.13481,3.641,0.76392,0.6944,0.60722,0.94367,0.94405,0.89911,1.8881-0.04532,0.95212-0.94059,1.6327-1.5547,1.9023-0.6318,0.27768-1.0078,0.52464-2.8955,0.52464s-2.9216-0.31456-3.5508-0.85418c-0.6287-0.539-0.8534-1.618-0.8534-1.618h3.5507s0.35488,0.74625,1.0566,0.82883c0.76392,0.08987,1.0109-0.42402,1.0109-0.69364s-0.22468-0.6295-1.1238-0.67482c-0.89873-0.04455-1.708,0.04532-2.9666-0.40443-1.2578-0.4486-1.4825-1.168-1.438-1.9323z"/>
                                                    <polygon id="polygon18330" points="286.7,447.97,286.7,447.97,286.7,447.97,308.4,448.01,308.4,451.99,297.92,462.33,308.4,462.41,308.4,467.34,286.58,467.29,286.58,462.48,296.52,453,286.67,453,286.7,447.97" transform="matrix(0.38407266,0,0,0.38407266,-88.0279,-118.4881)"/>
                                                    <path id="path18332" d="m31.142,53.584,2.899,0.0061,0,0s0.0061,4.635,0,4.8992c-0.005,0.26424-0.02727,0.65715,1.5232,0.65715,1.5739,0,1.4157-0.59262,1.4157-0.59262l-0.01651-4.9891,2.8095,0.0084v6.0342c0,1.0143-0.65792,1.6404-4.1188,1.6519-3.4616,0.01114-4.5401-0.5957-4.5178-1.6404,0.02228-1.0454,0.0058-6.0349,0.0058-6.0349z"/>
                                                    <path id="path18334" d="m12.722,53.619,2.8994,0.0058,0,0s0.0054,4.6354,0,4.8992c-0.0058,0.26463-0.02804,0.65753,1.5225,0.65753,1.5739,0,1.4161-0.59262,1.4161-0.59262l-0.0169-4.9891,2.8095,0.0081v6.0345c0,1.014-0.65715,1.6404-4.1184,1.6519-3.4613,0.01114-4.5401-0.5957-4.5178-1.6411,0.02266-1.0443,0.0058-6.0342,0.0058-6.0342z"/>
                                                    <polygon id="polygon18336" points="334.45,447.97,334.45,467.29,342.41,467.29,342.41,460.99,349.2,467.29,359.03,467.29,359.03,467.29,359.03,467.29,359.03,467.29,349.12,456.86,358.44,447.97,348.73,447.97,342.41,453.64,342.41,447.97" transform="matrix(0.38407266,0,0,0.38407266,-88.0279,-118.4881)"/>
                                                    <polygon id="polygon18338" points="368.16,467.29,368.16,467.29,368.16,447.97,360.2,447.97,360.2,467.29,368.16,467.29,368.16,467.29" transform="matrix(0.38407266,0,0,0.38407266,-88.0279,-118.4881)"/>
                                                    <path id="path18340" d="m54.375,60.275v-0.19895h0.1229c0.06645,0,0.15747,0.0061,0.15747,0.09102,0,0.09103-0.04686,0.10754-0.12521,0.10754h-0.15528v0.000384zm0,0.13827h0.08296l0.18935,0.34566h0.2074l-0.2097-0.35988c0.10908-0.0081,0.1978-0.0626,0.1978-0.21431,0-0.18743-0.12482-0.24811-0.33722-0.24811h-0.30726v0.82192h0.177v-0.34528zm0.89335-0.06376c0-0.48316-0.36256-0.76354-0.76622-0.76354-0.40712,0-0.7693,0.28037-0.7693,0.76354,0,0.48201,0.36218,0.76354,0.7693,0.76354,0.40328,0,0.76622-0.28152,0.76622-0.76354zm-0.22123,0c0,0.35066-0.25042,0.58686-0.54538,0.58686v-0.0027c-0.3038,0.0027-0.54846-0.23352-0.54846-0.58417,0-0.35181,0.24466-0.58648,0.54846-0.58648,0.29497,0,0.54538,0.23467,0.54538,0.58648z"/>
                                                    <path id="path18342" d="m28.427,48.084c3.8553-3.4962,16.135-10.811,20.26-12.156l-25.458-19.32,1.263-0.86,10.669,8.061c1.12,0.80694,10.534,2.6893,14.345-2.6897l-20.902-15.197c-3.496,3.3168-16.349,10.33-21.011,11.944l26.213,19.928-1.0024,0.94136-9.1117-6.9195c-3.004-2.276-9.782-5.273-16.134,0.537l20.869,15.731z"/>
                                                    <path id="path18344" d="M57.148,1.2926c-0.885-0.83378-2.061-1.2924-3.312-1.2924h-49.153c-2.5829,0-4.6838,1.9791-4.6838,4.4122v58.675c0,1.1787,0.48739,2.2872,1.3719,3.1206,0.88452,0.83344,2.0609,1.2924,3.3122,1.2924h49.15c1.2509,0,2.427-0.45897,3.3115-1.2924,0.88529-0.83344,1.3727-1.9415,1.3727-3.1206v-58.675c0-1.1787-0.48777-2.2868-1.3731-3.1198zm0.22507,59.067v2.7281c0,1.837-1.587,3.3318-3.5365,3.3318h-49.153c-0.94443,0-1.8324-0.34643-2.5007-0.97554-0.6679-0.63-1.0354-1.466-1.0354-2.357v-58.675c0-0.8899,0.36794-1.7264,1.0355-2.3555,0.6678-0.6292,1.5558-0.9756,2.5006-0.9756h49.15c0.94482,0,1.8328,0.34643,2.5007,0.97554,0.6679,0.6295,1.0358,1.4656,1.0358,2.3555v55.948z"/>
                                                   </g>
                                                  </g>
                                                 </g>
                                                </g>
                                               </g>
                                              </g>
                                             </g>
                                            </g>
                                           </g>
                                          </g>
                                         </g>
                                        </g>
                                       </g>
                                      </g>
                                     </g>
                                    </g>
                                   </g>
                                  </g>
                                 </g>
                                </g>
                               </g>
                              </g>
                             </g>
                            </g>
                           </g>
                          </g>
                         </g>
                        </g>
                       </g>
                      </g>
                     </g>
                    </g>
                   </g>
                  </g>
                 </g>
                </g>
               </g>
              </g>
             </g>
            </g>
           </g>
          </g>
         </g>
        </g>
       </g>
      </g>
     </g>
    </g>
   </g>
  </g>
 </g>
</svg>
