<?xml version="1.0" encoding="UTF-8" standalone="no"?>
<!-- Created with Inkscape (http://www.inkscape.org/) -->
<svg id="svg2" xmlns:rdf="http://www.w3.org/1999/02/22-rdf-syntax-ns#" xmlns="http://www.w3.org/2000/svg" height="45" width="67.5" version="1.1" xmlns:cc="http://creativecommons.org/ns#" xmlns:dc="http://purl.org/dc/elements/1.1/">
 <metadata id="metadata7">
  <rdf:RDF>
   <cc:Work rdf:about="">
    <dc:format>image/svg+xml</dc:format>
    <dc:type rdf:resource="http://purl.org/dc/dcmitype/StillImage"/>
    <dc:title/>
   </cc:Work>
  </rdf:RDF>
 </metadata>
 <g id="g15408">
  <rect id="rect2990" opacity="0" height="45" width="67.5" y="0" x="-.0000038147"/>
  <path id="path15406" d="m6.6446 27.932c-1.1214-0.145-2.8916-0.735-3.8217-1.275-0.998-0.58-2.0404-1.607-2.4794-2.444-0.3039-0.58-0.3435-0.78-0.3435-1.737 0-0.95724 0.0396-1.1574 0.34348-1.7367 0.88824-1.6932 2.9844-3.0354 5.6652-3.6274 0.94284-0.20823 3.9861-0.20823 4.9289 0 2.6604 0.58755 4.7055 1.8747 5.6001 3.5245 0.38107 0.7028 0.41083 0.83606 0.41083 1.8396 0 1.0036-0.0297 1.1368-0.41083 1.8396-1.4328 2.6426-5.6071 4.1684-9.8931 3.6161zm0.6813-1.145c-0.5238-0.87-0.7553-1.68-0.8915-3.12-0.0601-0.635-0.1264-1.169-0.1473-1.185-0.0209-0.017-0.4167-0.123-0.8795-0.237-0.4629-0.114-1.1719-0.364-1.5757-0.557-0.823-0.392-1.7289-1.283-1.733-1.704l-0.002-0.27318-0.23638 0.30054c-0.80589 1.0246-0.93255 2.7651-0.2932 4.0287 0.80709 1.5952 3.0334 2.958 5.4009 3.306 0.33215 0.04882 0.64053 0.09552 0.6853 0.10377 0.0448 0.0082-0.10239-0.29021-0.32702-0.66324zm3.767 0.30592c1.9189-0.50518 3.6091-1.714 4.2982-3.0741 0.31067-0.61314 0.35525-0.82936 0.35525-1.723 0-0.87784-0.0479-1.1193-0.33944-1.7131-0.32965-0.67132-0.56219-0.88154-0.56219-0.50824 0 0.33999-0.98454 1.2582-1.7303 1.6138-0.40378 0.1925-1.1128 0.44308-1.5757 0.55685-0.46284 0.11376-0.85551 0.21726-0.8726 0.23-0.0171 0.01273-0.0832 0.56978-0.14682 1.2379-0.13202 1.3856-0.46221 2.4817-0.96991 3.2196l-0.3503 0.50914 0.50862-0.05903c0.27974-0.03247 0.90308-0.16287 1.3852-0.2898zm-1.8632-2.163c0.22709-0.45384 0.35854-0.94112 0.40573-1.504l0.0698-0.83268h-1.2322-1.2322l0.0668 0.79666c0.0657 0.78441 0.28127 1.4627 0.63804 2.0081 0.13849 0.21172 0.27246 0.26875 0.56485 0.24044 0.33197-0.03215 0.42832-0.12705 0.71924-0.70846zm0.38754-3.9871c-0.0276-0.082-0.1085-0.377-0.1797-0.655-0.15-0.587-0.6521-1.238-0.9542-1.238-0.29978 0-0.69427 0.46515-0.90784 1.0704-0.34163 0.9683-0.33677 0.97326 0.95391 0.97326 0.85737 0 1.1258-0.03708 1.0879-0.15027zm-3.0217-0.449c0.23521-1.4709 1.1144-2.7662 1.8775-2.7662 0.76117 0 1.6928 1.3764 1.8919 2.7951 0.0348 0.24795 0.12493 0.45082 0.20031 0.45082 0.0753 0 0.50084-0.10088 0.94547-0.22417 1.9935-0.55277 2.488-1.6317 1.0758-2.3473-1.1415-0.57842-1.9671-0.72368-4.1134-0.72368-2.1781 0-3.0412 0.1562-4.1325 0.74784-1.3586 0.73659-0.89846 1.7617 1.0395 2.316 1.0899 0.31174 1.1271 0.30414 1.2155-0.24833zm23.168 6.076c-0.7445-0.24212-1.7093-0.93806-2.1487-1.5499-0.62161-0.86558-0.80821-1.4673-0.80749-2.6039 0.0006-0.8847 0.0478-1.118 0.35164-1.738 0.43446-0.8865 1.243-1.6898 2.1122-2.0985 0.55803-0.26241 0.83-0.31093 1.7432-0.31093 0.92136 0 1.1836 0.04765 1.7668 0.321 0.87358 0.40949 1.7103 1.2462 2.1198 2.1198 0.27335 0.58317 0.321 0.84542 0.321 1.7668 0 0.92135-0.0476 1.1836-0.321 1.7668-0.68443 1.4601-2.0835 2.3932-3.6896 2.4606-0.57245 0.02401-1.1177-0.02633-1.4478-0.13367zm1.8519-1.5222c0.95317-0.26186 1.7432-1.4272 1.7432-2.5714 0-1.5838-1.3448-2.892-2.7096-2.636-2.3891 0.4482-2.6435 4.3433-0.33734 5.1655 0.57079 0.20352 0.70034 0.20768 1.3037 0.04191zm14.759 1.4685c-0.73136-0.27163-1.1236-0.53655-1.739-1.1747-1.1381-1.18-1.4552-3.0683-0.76831-4.575 0.40211-0.88192 1.3426-1.8328 2.1998-2.2241 0.88643-0.4047 2.504-0.38429 3.4155 0.0431 0.91467 0.42888 1.5525 1.0335 2.0414 1.9351 0.38721 0.71408 0.40862 0.81656 0.40862 1.9557 0 1.1392-0.0214 1.2417-0.40862 1.9557-0.77141 1.4226-2.0105 2.2025-3.6163 2.2763-0.67867 0.03117-1.0608-0.01671-1.533-0.1921zm1.9246-1.4625c0.59095-0.16411 1.2704-0.76817 1.5457-1.3742 0.13389-0.29471 0.21893-0.76209 0.21893-1.2032 0-0.88386-0.28069-1.5471-0.8759-2.0697-1.4468-1.2703-3.4261-0.36162-3.755 1.724-0.22185 1.4067 0.92269 2.9653 2.2318 3.0391 0.0992 0.0056 0.38467-0.04657 0.63443-0.11593zm-26.241-1.796v-3.2459h-1.2623-1.2623v-0.78329-0.78329l3.3962 0.03193 3.3961 0.03193 0.0358 0.75136 0.0358 0.75136h-1.268-1.268v3.2459 3.2459h-0.90164-0.90163v-3.2459zm16.35 1.6921v-1.5538l-1.4466-2.2939c-0.79565-1.2616-1.4777-2.3747-1.5156-2.4735-0.0579-0.1508 0.0965-0.17968 0.96047-0.17968h1.0294l0.48617 0.84152c0.2674 0.46284 0.70759 1.2247 0.97819 1.693l0.49201 0.85152 0.97581-1.693 0.97581-1.693h0.99665c0.60207 0 0.99663 0.0489 0.99663 0.12353 0 0.06794-0.67622 1.1961-1.5027 2.5071l-1.5027 2.3836v1.5202 1.5202h-0.96174-0.96174v-1.5538zm16.59-1.6921v-3.2459h-1.268-1.268l0.0358-0.75136 0.0358-0.75136 3.3962-0.03193 3.3962-0.03193v0.78329 0.78329h-1.2623-1.2623v3.2459 3.2459h-0.90163-0.90163v-3.2459zm3.7612 3.0956c0.83992-2.0988 3.1633-7.6454 3.2498-7.7583 0.0846-0.11045 0.4249-0.14475 1.1926-0.12022l1.0742 0.03433 1.6124 3.9006c0.88681 2.1453 1.6124 3.9462 1.6124 4.0019 0 0.05574-0.471 0.08572-1.0467 0.06661l-1.0467-0.03473-0.31944-0.84152-0.31944-0.84152-1.6259-0.03336-1.6259-0.03336-0.33006 0.90494-0.33004 0.90494h-1.0787c-0.8149 0-1.064-0.03675-1.0186-0.15027zm5.2714-3.5464c-0.12136-0.31407-0.37355-0.96575-0.5604-1.4482l-0.341-0.879-0.442 1.178c-0.72606 1.9339-0.7855 1.7187 0.47465 1.7187h1.0883l-0.22067-0.57103z"/>
 </g>
</svg>
