<?xml version="1.0" encoding="UTF-8" standalone="no"?>
<!-- Created with Inkscape (http://www.inkscape.org/) -->
<svg id="svg2" xmlns:rdf="http://www.w3.org/1999/02/22-rdf-syntax-ns#" xmlns="http://www.w3.org/2000/svg" height="54" width="99" version="1.1" xmlns:cc="http://creativecommons.org/ns#" xmlns:dc="http://purl.org/dc/elements/1.1/">
 <metadata id="metadata7">
  <rdf:RDF>
   <cc:Work rdf:about="">
    <dc:format>image/svg+xml</dc:format>
    <dc:type rdf:resource="http://purl.org/dc/dcmitype/StillImage"/>
    <dc:title/>
   </cc:Work>
  </rdf:RDF>
 </metadata>
 <g id="g3305">
  <g id="g3345">
   <g id="g3722">
    <g id="g3757">
     <g id="g3952">
      <g id="g4047">
       <g id="g4079">
        <g id="g4116">
         <g id="g4159">
          <g id="g4184">
           <g id="g4225">
            <g id="g4264">
             <g id="g4289">
              <g id="g4304">
               <g id="g4413">
                <g id="g4448">
                 <g id="g4472">
                  <g id="g4680">
                   <g id="g4737">
                    <g id="g4823">
                     <g id="g4901">
                      <g id="g4966">
                       <g id="g5048">
                        <g id="g5083">
                         <g id="g5131">
                          <g id="g5167">
                           <g id="g5212">
                            <g id="g5245">
                             <g id="g5325">
                              <g id="g5374">
                               <g id="g5399">
                                <g id="g5453">
                                 <g id="g5488">
                                  <g id="g5505">
                                   <g id="g5539">
                                    <g id="g5680">
                                     <g id="g5825">
                                      <g id="g5937">
                                       <g id="g6005">
                                        <g id="g6083">
                                         <g id="g6153">
                                          <g id="g6193">
                                           <g id="g6226">
                                            <g id="g6331">
                                             <g id="g6451" transform="translate(5.25,-0.75)">
                                              <g id="g6513">
                                               <g id="g6551">
                                                <g id="g8093">
                                                 <g id="g8185">
                                                  <g id="g8234">
                                                   <g id="g8273">
                                                    <g id="g5873" transform="translate(-5.25,0.75)">
                                                     <g id="g5004">
                                                      <rect id="rect2990" opacity="0" height="54" width="99" y="0" x="0"/>
                                                     </g>
                                                    </g>
                                                    <g id="g3734" transform="translate(-0.75023,20.34695)">
                                                     <path id="path18366" d="M44.941,7.3843"/>
                                                     <path id="path18368" d="M10.651,14.053c-1.1911-0.747-2.0692-3.323-2.0692-6.3833,0-0.11252,0.0007707-0.22324,0.00308-0.33396l0.00154,0.0018c-3.3144-0.5209-5.7092-1.9482-5.7706-3.6358l-0.0097,0.0196c-0.811,1.0081-1.2739,2.1734-1.2739,3.415,0,3.6538,4.0106,6.6476,9.0979,6.9122l0.02132,0.0041zm-10.651-6.6502c0-4.0882,5.0878-7.4029,11.364-7.4029,6.2759,0,11.364,3.3147,11.364,7.4029s-5.0878,7.4034-11.364,7.4034-11.364-3.315-11.364-7.403zm11.364-6.3347c1.2115,0,2.2424,1.8381,2.6239,4.4027l0.0013-0.00411c2.3573-0.3671,4.0075-1.2133,4.0075-2.1982,0-1.322-2.97-2.3925-6.6327-2.3925-3.6628,0-6.6327,1.0707-6.6327,2.3925,0,0.98467,1.65,1.8311,4.0073,2.1982l0.0025,0.0041c0.3827-2.5647,1.4129-4.4027,2.6249-4.4027zm0.733,12.981c5.0873-0.2646,9.0982-3.2587,9.0982-6.9122,0-1.2416-0.46318-2.4068-1.2742-3.4149l-0.01-0.0199c-0.0614,1.6875-2.4556,3.1148-5.7704,3.6358l0.0013-0.0018c0.0023,0.11072,0.0036,0.22144,0.0036,0.33396,0,3.0606-0.87832,5.636-2.0695,6.3828l0.02081-0.0041zm-0.733-8.3875c0.54282,0,1.0705-0.023121,1.5753-0.067563l-0.000514,0.0005138c-0.25124-1.6436-0.86162-2.804-1.5748-2.804-0.71314,0-1.3233,1.1601-1.5748,2.804v-0.0005c0.5048,0.0445,1.0328,0.0676,1.5758,0.0676zm0,6.0879c0.91223,0,1.6565-1.8984,1.696-4.2793l0.0049,0.0018c-0.54975,0.050865-1.1185,0.077582-1.7009,0.077582-0.58238,0-1.1509-0.026717-1.7006-0.077582l0.0044-0.0014c0.039562,2.3812,0.78353,4.2793,1.6958,4.2793z"/>
                                                     <path id="path18370" d="m57.986,7.4028c0-3.1249,2.5332-5.6581,5.6578-5.6581,3.1254,0,5.6586,2.5335,5.6586,5.6581,0,3.1251-2.5332,5.6578-5.6586,5.6578-3.1246,0.000257-5.6578-2.5327-5.6578-5.6578zm5.6578,0m0,3.5834c1.7448,0,3.1595-1.6043,3.1595-3.5832s-1.4147-3.5834-3.1595-3.5834c-1.7446,0-3.1588,1.6046-3.1588,3.5834,0,1.9789,1.4142,3.5832,3.1588,3.5832zm0-3.5834"/>
                                                     <polygon id="polygon18372" points="285.48,49.843,285.48,15.969,285.51,15.969,272.53,15.969,272.53,8.311,307.7,8.311,307.7,15.969,294.79,15.969,294.76,15.969,294.76,49.843" transform="matrix(0.25689404,0,0,0.25689404,0,-1e-4)"/>
                                                     <path id="path18374" d="m81.931,10.404-0.0023,0.0023-0.91454,2.3984h-2.7842l4.4026-10.669h2.9669l4.401,10.669h-2.7842l-0.9148-2.3984-0.0023-0.0023h-4.3675zm2.1844-1.8008h1.5l-0.001,0.0005138-1.4887-3.905h-0.02081l-1.4895,3.905-0.000771-0.0005138h1.5008z"/>
                                                     <polygon id="polygon18376" points="114.42,49.843,114.42,15.969,114.45,15.969,101.47,15.969,101.47,8.311,136.64,8.311,136.64,15.969,123.73,15.969,123.7,15.969,123.7,49.843" transform="matrix(0.25689404,0,0,0.25689404,0,-1e-4)"/>
                                                     <path id="path18378" d="m35.713,7.4028c0-3.1249,2.5332-5.6581,5.6583-5.6581,3.1249,0,5.6583,2.5335,5.6583,5.6581,0,3.1251-2.5335,5.6578-5.6583,5.6578-3.1251,0.000257-5.6583-2.5327-5.6583-5.6578zm5.6583,0m0,3.5834c1.7446,0,3.1593-1.6043,3.1593-3.5832s-1.4147-3.5834-3.1593-3.5834c-1.7448,0-3.1593,1.6046-3.1593,3.5834,0,1.9789,1.4145,3.5832,3.1593,3.5832zm0-3.5834"/>
                                                     <polygon id="polygon18380" points="204.39,49.843,209.1,49.843,209.1,34.268,209.1,34.072,225.29,8.311,214.45,8.311,204.39,25.768,194.34,8.311,183.5,8.311,199.69,34.072,199.69,34.268,199.69,49.843" transform="matrix(0.25689404,0,0,0.25689404,0,-1e-4)"/>
                                                    </g>
                                                   </g>
                                                  </g>
                                                 </g>
                                                </g>
                                               </g>
                                              </g>
                                             </g>
                                            </g>
                                           </g>
                                          </g>
                                         </g>
                                        </g>
                                       </g>
                                      </g>
                                     </g>
                                    </g>
                                   </g>
                                  </g>
                                 </g>
                                </g>
                               </g>
                              </g>
                             </g>
                            </g>
                           </g>
                          </g>
                         </g>
                        </g>
                       </g>
                      </g>
                     </g>
                    </g>
                   </g>
                  </g>
                 </g>
                </g>
               </g>
              </g>
             </g>
            </g>
           </g>
          </g>
         </g>
        </g>
       </g>
      </g>
     </g>
    </g>
   </g>
  </g>
 </g>
</svg>
