<?xml version="1.0" encoding="UTF-8" standalone="no"?>
<!-- Created with Inkscape (http://www.inkscape.org/) -->
<svg id="svg2" xmlns:rdf="http://www.w3.org/1999/02/22-rdf-syntax-ns#" xmlns="http://www.w3.org/2000/svg" height="54" width="99" version="1.1" xmlns:cc="http://creativecommons.org/ns#" xmlns:dc="http://purl.org/dc/elements/1.1/">
 <metadata id="metadata7">
  <rdf:RDF>
   <cc:Work rdf:about="">
    <dc:format>image/svg+xml</dc:format>
    <dc:type rdf:resource="http://purl.org/dc/dcmitype/StillImage"/>
    <dc:title/>
   </cc:Work>
  </rdf:RDF>
 </metadata>
 <g id="g4479">
  <rect id="rect2990" opacity="0" height="54" width="99" y="0" x="0"/>
  <path id="path11405" d="m27 4.5h14.061 30.939v45h-45v-45zm1.5477 1.5477v41.905h41.905v-41.905h-41.905zm20.952 3.3662c7.734 0 14.01 6.276 14.01 14.01s-6.276 14.01-14.01 14.01-14.01-6.276-14.01-14.01 6.276-14.01 14.01-14.01zm0 1.4821c-6.918 0-12.522 5.61-12.522 12.528s5.604 12.522 12.522 12.522 12.523-5.604 12.523-12.522-5.604-12.528-12.523-12.528zm7.374 19.506c-0.26999 0-0.48599-0.21599-0.48599-0.48573 0-0.26441 0.21599-0.48041 0.48599-0.48041 0.26973 0 0.48598 0.21599 0.48598 0.48041 0 0.26973-0.21625 0.48573-0.48598 0.48573zm0-0.054c0.23399 0 0.4259-0.19165 0.4259-0.43173 0-0.23425-0.19191-0.42641-0.4259-0.42641s-0.42615 0.19217-0.42615 0.42641c0 0.24007 0.19216 0.43173 0.42615 0.43173zm0.07783-0.4079 0.16199 0.25199h-0.07808l-0.15591-0.25199h-0.12017v0.25199h-0.06591v-0.54555h0.23399c0.0479 0 0.09608 0.0053 0.13208 0.02965 0.0421 0.01775 0.06617 0.06591 0.06617 0.11383 0 0.10799-0.07833 0.14399-0.17417 0.15008zm-0.19191-0.054h0.10191c0.07808 0 0.19216 0.0119 0.19216-0.09608 0-0.08366-0.07199-0.09608-0.13816-0.09608h-0.15588v0.19216zm-4.1462-3.9239c-0.7078 3.3061-2.8979 6.1795-3.0241 6.372h0.0061c-0.061-0.137-1.489-2.01-2.43-4.446-0.7078 3.3119-2.8981 6.1855-3.0239 6.378h0.0059c-0.09-0.20991-3.246-4.2722-3.246-8.328v-7.008h5.454v-1.9259h5.448v-1.932h6.4805v7.002c0 4.0559-3.0898 8.1-3.2399 8.328h0.0059c-0.06008-0.1374-1.4942-2.0035-2.4363-4.4395zm-10.686-6v6.084c0 3.066 2.0879 5.868 2.22 6.084 0.12599-0.21599 2.2079-3.0178 2.2079-6.084v-6.084h-4.4281zm5.454-1.932v6.084c0 3.0721 2.0879 5.874 2.2139 6.084 0.12599-0.20991 2.2079-3.012 2.2079-6.084v-6.084h-4.4229zm5.448-1.932v6.084c0 3.0781 2.0879 5.874 2.2139 6.084 0.13208-0.20991 2.2139-3.0059 2.2139-6.084v-6.084h-4.4287zm0.22791 0.22791h3.9718v4.8781c0 1.0619-0.036 1.6981-0.07175 2.058l-3.9001-6.936zm0 2.868 3.3841 5.952c-0.44999 1.2059-0.96613 2.0281-1.3921 2.7118-0.948-1.416-1.992-3.606-1.992-5.574-0.001-2.1-0.001-3.09-0.001-3.09zm-5.448-0.93593h3.9662v4.8781c0 1.0619-0.03625 1.6981-0.072 2.058l-3.8942-6.936zm0 2.8621 3.3778 5.952c-0.44973 1.2062-0.96587 2.0339-1.3918 2.7179-0.93593-1.4219-1.986-3.6059-1.986-5.574v-3.0961zm-5.454-0.93013h3.9718v4.8781c0 1.0619-0.036 1.6981-0.07199 2.0522l-3.8998-6.9307zm0 2.8621 3.3839 5.952c-0.44999 1.2057-0.96587 2.0339-1.3921 2.7179-0.94207-1.4219-1.9919-3.6121-1.9919-5.574v-3.0961zm-10.302 16.854c2.6221 0.0421 3.6602 0.02965 5.652 0 1.2301-0.01825 1.8362 0.22183 1.8362 1.0977 0 0.8822-0.70227 1.1284-1.4521 1.2062-0.17999 0.01775-0.13791 0.10191-0.0061 0.11383 1.0619 0.08417 1.752 0.19799 1.752 1.1824 0 0.98387-0.78613 1.5175-2.3761 1.4998-2.22-0.02435-3.0599-0.03015-5.448-0.0059v-0.31826c0.76787 0 1.2059-0.21041 1.2059-1.0619v-2.4544c0-0.6297-0.13208-0.93573-1.1641-0.93573v-0.32373zm2.5263 2.1901c1.1461 0.01775 1.6739 0.0479 2.3879 0.0059 0.67813-0.03625 1.0561-0.36581 1.0561-0.9844 0-0.61145-0.51615-0.82793-1.1159-0.82793-0.612 0-0.89993-0.0119-1.5241-0.0119-0.62415 0-0.76813 0.24007-0.78613 0.54025-0.01775 0.29433-0.01775 0.5879-0.01775 1.2782zm0.0059 0.504s-0.018 0.53365-0.0059 1.1699c0.0059 0.6358 0.26416 0.7798 0.80387 0.80413 0.594 0.02965 1.1159 0.04155 1.806 0 0.522-0.02435 1.1401-0.34807 1.1401-1.0805 0-0.7258-0.5519-0.85813-1.2301-0.89367-0.702-0.0421-1.7639-0.03015-2.5141 0zm5.496-2.6941h2.6461c-0.08417 1.7939-0.13208 2.6343-0.13208 3.4799 0 0.84013 0.37191 1.2838 1.4821 1.2838 1.1038 0 1.8299-0.4079 1.8839-1.2838 0.054-0.96007 0.054-1.6801 0.054-2.292 0-0.61805-0.49207-0.8338-1.1639-0.8338v-0.3535h2.6099c-0.02385 1.6321-0.08391 2.7179-0.08391 3.5877 0 0.87587 0.06591 1.1101 1.0561 1.1101v0.39624h-2.382v-0.67726c-0.5339 0.6239-1.1821 0.7674-2.166 0.7674-0.98387 0-2.6761-0.12574-2.67-1.5477 0.0119-1.4161 0.0479-2.0037 0.0479-2.5559 0-0.54605-0.35999-0.74427-1.1821-0.74427v-0.33591zm12.258 5.094h-3.5461v-0.40207c0.81 0 1.0799-0.25807 1.0799-0.8338v-2.712c0-0.612-0.36607-0.81-1.0381-0.81v-0.33565h3.4619v0.33565c-0.6718 0-1.0439 0.19799-1.0439 0.81v2.7123c0 0.5757 0.27607 0.8338 1.0861 0.8338v0.40207zm0.485-2.538c0-1.7221 0.83407-2.6941 3.5999-2.6941 1.7221 0 2.5021 0.19799 3.048 0.31182v1.4103h-1.0317c0-0.87007-0.5699-1.3259-2.0159-1.3259-1.4458 0-2.094 0.4799-2.094 2.3097s0.69007 2.2322 2.094 2.2322 2.0522-0.46799 2.0522-1.5299h1.1398c0 1.1041-0.96587 1.9019-3.192 1.9019-2.2259 0-3.5999-0.55825-3.5999-2.616zm7.356-2.5559h3.4381v0.33565c-0.74407 0-1.0321 0.16833-1.0321 0.76207v1.4883c0.57015-0.42641 1.5901-1.1522 1.9921-1.4463 0.39599-0.29407 0.6718-0.828-0.37799-0.828v-0.3118h3.2817v0.32373c-1.6019 0.22817-2.328 0.9304-3.2579 1.6503 1.1099 0.92407 2.0159 1.7275 2.5501 2.1777 0.5278 0.44415 0.882 0.612 1.1938 0.612v0.33033h-2.2552s-2.0281-1.842-2.2322-2.0459c-0.20991-0.19799-0.35391-0.31841-0.6358-0.10851-0.14399 0.10242-0.24616 0.18025-0.24616 0.18025v0.80413c0 0.60615 0.5879 0.8338 1.1761 0.8338v0.33615h-3.7441v-0.34807c0.6239 0 1.2059-0.10191 1.2059-0.80413v-2.8441c0-0.64825-0.35999-0.76207-1.0559-0.76207v-0.33565zm8.8553 5.106c-0.26974 0-0.48599-0.21599-0.48599-0.48573 0-0.26441 0.21625-0.48623 0.48599-0.48623 0.26416 0 0.48015 0.22183 0.48015 0.48623 0 0.26974-0.21599 0.48573-0.48015 0.48573zm0-0.06008c0.23425 0 0.42615-0.18608 0.42615-0.4259 0-0.23425-0.19191-0.42641-0.42615-0.42641-0.23983 0-0.42591 0.19217-0.42591 0.42641 0.000255 0.23982 0.18608 0.4259 0.42591 0.4259zm0.07808-0.40207 0.16225 0.24616h-0.07809l-0.15617-0.24616h-0.11991v0.24616h-0.06617v-0.54025h0.23399c0.0479 0 0.09 0 0.13208 0.02435 0.04185 0.02385 0.05983 0.07175 0.05983 0.11991 0.000256 0.10774-0.07175 0.14399-0.16783 0.14983zm-0.19191-0.05375h0.10191c0.07199 0 0.19216 0.0119 0.19216-0.09608 0-0.08417-0.07199-0.09609-0.13817-0.09609h-0.15591v0.19217z" fill-rule="evenodd" clip-rule="evenodd"/>
 </g>
</svg>
