<?xml version="1.0" encoding="UTF-8" standalone="no"?>
<!-- Created with Inkscape (http://www.inkscape.org/) -->
<svg id="svg2" xmlns:rdf="http://www.w3.org/1999/02/22-rdf-syntax-ns#" xmlns="http://www.w3.org/2000/svg" height="45" width="67.5" version="1.1" xmlns:cc="http://creativecommons.org/ns#" xmlns:dc="http://purl.org/dc/elements/1.1/">
 <metadata id="metadata7">
  <rdf:RDF>
   <cc:Work rdf:about="">
    <dc:format>image/svg+xml</dc:format>
    <dc:type rdf:resource="http://purl.org/dc/dcmitype/StillImage"/>
    <dc:title/>
   </cc:Work>
  </rdf:RDF>
 </metadata>
 <g id="g9636">
  <rect id="rect2990" opacity="0" height="45" width="67.5" y="0" x="3.5527e-15"/>
  <g id="g9557" fill-rule="evenodd" transform="matrix(.75003 0 0 .75003 -3.3769 2.2492)">
   <path id="path11421" d="m92.952 20.896c-0.85984 0-1.5543 0.69392-1.5543 1.5465 0 0.86036 0.69445 1.5543 1.5543 1.5543 0.85671 0 1.5465-0.69393 1.5465-1.5543 0-0.85201-0.68975-1.5465-1.5465-1.5465z"/>
   <path id="path11423" d="m92.952 23.806c-0.75445 0-1.3633-0.60888-1.3633-1.368 0-0.75079 0.60888-1.3597 1.3633-1.3597 0.75079 0 1.3597 0.60889 1.3597 1.3597 0.00053 0.75914-0.60835 1.368-1.3597 1.368z" fill="#fff"/>
   <path id="path11425" d="m18.902 26.816c-0.528-0.0924-0.404-0.3417-0.054-0.3777 2.1047-0.216 3.454-1.0795 3.454-2.6985 0-1.6195-0.43149-2.6447-4.9117-2.6447h-12.888v0.88802c2.04 0.108 2.7418 0.62035 2.7418 1.619v6.5626c0 0.99863-0.53949 1.6999-2.7418 1.8616v0.88749h12.888c2.3213 0 5.6672-0.53897 5.6672-3.1848 0-2.6432-1.9967-2.5352-4.1552-2.9129z"/>
   <path id="path11427" d="m16.072 22.016c1.7473 0.0417 2.6609 0.10331 2.6609 1.8303s-1.295 2.267-3.022 2.4287c-1.664 0.156-3.2793 0.1612-5.1811-0.0318v-3.1185c0.009-1.3242 1.8929-1.1953 5.542-1.1087z" fill="#fff"/>
   <path id="path11429" d="m16.192 31.916h-3.2265c-2.4825 0-2.4287-0.917-2.4287-1.919v-2.6609c1.7818-0.1367 3.1597-0.0376 5.2352-0.0376 2.1585 0 3.7237 0.37827 3.7237 2.2133s-1.5887 2.4042-3.3037 2.4042z" fill="#fff"/>
   <path id="path11431" d="m41.352 29.976v-8.8802h-6.1525v0.88802c1.5652 0.216 2.8602 0.108 2.8602 2.4287v4.0503c0 2.6985-0.79149 3.3783-4.6952 3.6726-2.6369 0.19879-3.6162-0.8661-3.6162-3.6726s-0.0543-4.4526 0.324-7.3671h-6.3147v0.88802c2.5367 0.16174 2.8065 0.70175 2.8065 2.1047s-0.12314 3.5865-0.10801 4.5575c0.0423 2.6922 0.34801 4.5387 6.4765 4.5387 3.562 0 4.3175-0.91724 4.6415-1.187 0.324-0.26974 0.53948-0.37827 0.53948 0v0.91723h5.6672v-0.8875c-1.403-0.16226-2.4287 0.0537-2.4287-2.0515z"/>
   <path id="path11433" d="m44.912 21.986c1.5652 0.16174 2.4282 0.288 2.4282 2.123v5.7977c0 1.8345-0.8635 1.9607-2.4282 2.1225v0.88749h8.0954v-0.8867c-1.565-0.1623-2.428-0.2883-2.428-2.1225v-5.7977c0-1.835 0.86297-1.9612 2.4287-2.123v-0.8877h-8.096v0.88802z"/>
   <path id="path11435" d="m63.482 32.586c-4.1562 0-5.4512-1.511-5.4512-5.1277 0-3.7775 0.59427-5.9364 4.858-5.9364 4.3175 0 4.9112 1.187 5.2347 3.1842h2.4287l-0.108-3.2385c-2.8602-0.59375-5.829-0.80923-7.5017-0.80923-1.6732 0-8.42 0-8.42 6.1525 0 2.1303 0.53688 3.6147 1.6195 4.5872 1.9618 1.763 5.8827 1.9435 7.0159 1.9435 3.346 0 7.448-1.0252 7.6634-4.4703h-2.5905c0 1.6639-0.75549 3.7148-4.749 3.7148z"/>
   <path id="path11437" d="m82.052 26.046c-0.254-0.2009-0.119-0.4711 0.28-0.7743l2.2117-1.5856c2.0927-1.5 4.1823-1.5877 5.3224-1.7025v-0.88798h-7.9342v0.88802c2.326-0.005 1.8663 1.0899 1.1103 1.7025l-5.0359 3.5614v-3.2672c0-1.835 0.96993-1.835 2.5769-1.9967v-0.88794h-8.312v0.88802c1.607 0.16174 2.5367 0.16174 2.5367 1.9967v6.0491c0 1.8355-1.0826 1.8355-2.7861 1.9973v0.88749h8.8097v-0.88712c-1.704-0.16188-2.826-0.16188-2.826-1.9973v-1.6477c0.97097-0.75601 1.1233-0.54731 1.3894-0.59427 0.48001-0.0835 6.1801 5.1267 6.1801 5.1267h5.397v-0.88749c-2.7825-0.16801-8.0026-5.3098-8.9208-5.9808z"/>
   <path id="path11439" d="m93.752 22.036c0-0.14609-0.0652-0.30052-0.19513-0.37357-0.12991-0.0767-0.276-0.085-0.42209-0.085h-0.75497v1.7327h0.21078v-0.79924h0.38975l0.49514 0.79932h0.25148l-0.524-0.7993c0.30939-0.008 0.54887-0.13409 0.54887-0.47479z"/>
   <path id="path11441" d="m92.912 22.346h-0.32532v-0.61304h0.49514c0.21496 0 0.45027 0.0329 0.45027 0.30053 0 0.3527-0.37722 0.31253-0.62036 0.31253z" fill="#fff"/>
  </g>
 </g>
</svg>
