<?xml version="1.0" encoding="UTF-8" standalone="no"?>
<!-- Created with Inkscape (http://www.inkscape.org/) -->
<svg id="svg2" xmlns:rdf="http://www.w3.org/1999/02/22-rdf-syntax-ns#" xmlns="http://www.w3.org/2000/svg" height="45" width="67.5" version="1.1" xmlns:cc="http://creativecommons.org/ns#" xmlns:dc="http://purl.org/dc/elements/1.1/">
 <metadata id="metadata7">
  <rdf:RDF>
   <cc:Work rdf:about="">
    <dc:format>image/svg+xml</dc:format>
    <dc:type rdf:resource="http://purl.org/dc/dcmitype/StillImage"/>
    <dc:title/>
   </cc:Work>
  </rdf:RDF>
 </metadata>
 <g id="g12501">
  <rect id="rect2990" opacity="0" height="45" width="67.5" y="0" x="3.5527e-15"/>
  <path id="path12499" d="m21.14 31.148v-1.6215h-10.57c-5.8136 0.001-10.57-0.03-10.57-0.068 0.000014793-0.057 1.8444-3.449 6.5429-12.032l0.80493-1.4704 6.926-0.031 6.926-0.031-0.0451-1.8317-0.0451-1.8317h12.447 12.447v1.9218 1.9218h10.75c5.9125 0 10.749 0.04054 10.747 0.09008-0.0016 0.04955-1.8814 3.0629-4.1772 6.6962l-4.1742 6.6062-6.6329 0.03104-6.6329 0.03104v1.6205 1.6205h-12.372-12.372v-1.6215zm23.902-0.78073v-1.6816l6.8164-0.00024 6.8164-0.000241 3.6943-5.8553 3.6943-5.8552-10.421-0.06006-10.421-0.06006-0.033-1.9518-0.03301-1.9518h-11.588-11.588v1.9208 1.9208l-7.0949 0.03098-7.0949 0.03098-3.2203 5.8855-3.2204 5.8855 10.315 0.03069 10.315 0.03069v1.6809 1.6809h11.531 11.531v-1.6816zm-19.818-2.4616v-1.861l-9.4169-0.03076-9.4169-0.03076 1.6997-3.2709 1.6998-3.2709 7.7773-0.0022 7.7772-0.0022v-1.8617-1.8617h8.7081 8.7081v1.8617 1.8617h9.3687c5.1528 0 9.3687 0.02776 9.3687 0.0617 0 0.03393-0.9734 1.5203-2.1631 3.3031l-2.1631 3.2414h-7.3257-7.3257v1.8617 1.8617h-8.6481-8.6481v-1.861zm-8.8883-3.6869c0.23122-0.10206 0.51804-0.35489 0.63738-0.56184l0.21698-0.37629h-1.0074c-0.95975 0-1.0153 0.01465-1.1731 0.30958-0.19782 0.36963-0.50884 0.55695-0.76289 0.45946-0.15434-0.05922-0.11379-0.21223 0.2466-0.93044 0.61881-1.2332 0.84587-1.5202 1.2029-1.5202 0.19663 0 0.28315 0.05334 0.24357 0.15014-0.24899 0.60902-0.30233 0.57053 0.79071 0.57053 0.82017 0 1.0353-0.03736 1.0939-0.18999 0.28771-0.74974-0.21408-0.93801-2.3128-0.86778-1.9675 0.06584-2.1036 0.1368-2.8263 1.4735-0.64605 1.1948-0.67956 1.4373-0.22301 1.6136 0.50179 0.19368 3.3573 0.09768 3.8736-0.13024zm3.2368-0.51876c0.35956-0.67694 0.45874-0.77972 0.75243-0.77972h0.33827l-0.36206 0.71725c-0.19914 0.39449-0.36207 0.748-0.36207 0.78559s0.4456 0.05264 0.99022 0.03346l0.99021-0.03489 0.80499-1.5014c0.44274-0.82577 0.8079-1.5419 0.81146-1.5915 0.003-0.04954-0.44371-0.09008-0.99394-0.09008h-1.0004l-0.28129 0.60056c-0.24021 0.51286-0.33091 0.60056-0.62109 0.60056-0.41544 0-0.41673-0.02779-0.0316-0.68488l0.30815-0.52582-1.043 0.03482-1.043 0.03482-0.83714 1.5915-0.83712 1.5915 1.0015-0.000961 1.0015-0.000961 0.41415-0.77972zm6.9727 0.54152c0.1229-0.22964 0.0913-0.24022-0.71644-0.24022-0.46476 0-0.84502-0.02918-0.84502-0.06484 0-0.03567 0.1092-0.27889 0.24267-0.5405l0.24267-0.47566h0.89839c0.49412 0 0.8984-0.0226 0.8984-0.05023s0.0328-0.13573 0.0729-0.24022c0.0623-0.1623-0.052-0.18999-0.78381-0.18999h-0.85672l0.18633-0.36034c0.18171-0.35138 0.20854-0.36034 1.0799-0.36034 0.7706 0 0.91122-0.03305 1.0221-0.24022 0.12605-0.23552 0.0914-0.24022-1.7701-0.24022h-1.8986l-0.80812 1.5441c-0.44446 0.84925-0.80811 1.5789-0.80811 1.6215 0 0.04258 0.83588 0.07742 1.8575 0.07742 1.7346 0 1.866-0.0159 1.9861-0.24022zm5.6864-1.3861 1.5425-1.6167h-0.8844-0.88441l-1.0679 1.2617c-0.58734 0.69396-1.0858 1.2439-1.1076 1.222-0.0218-0.02184 0.14549-0.58962 0.37184-1.2617l0.41154-1.222h-1.0555-1.0555l-0.20935 1.2912c-0.11514 0.71016-0.23791 1.4398-0.27283 1.6215l-0.0635 0.33031 1.3663-0.0048 1.3663-0.0048 1.5425-1.6167zm2.7449 0.87612c0.39344-0.74353 0.60696-0.90778 0.91886-0.70685 0.12996 0.08372 0.10159 0.21666-0.14511 0.68008-0.16865 0.31681-0.27869 0.62124-0.24453 0.67651 0.03416 0.05528 0.47781 0.09871 0.98589 0.09653l0.92378-0.004 0.31812-0.70486c0.36954-0.81878 0.30627-0.96239-0.43223-0.98107-0.46544-0.01177-0.45548-0.01907 0.2306-0.16875 0.67415-0.14708 1.2648-0.5685 1.2648-0.90242 0-0.28924-0.63965-0.40422-2.5285-0.45452l-1.988-0.05294-0.80458 1.5346c-0.44253 0.84404-0.80459 1.5804-0.80459 1.6363 0 0.05589 0.42942 0.10163 0.95427 0.10163h0.95427l0.39699-0.75024zm0.69727-1.2275c0-0.03079 0.09109-0.24699 0.20241-0.48045 0.14335-0.30061 0.28147-0.42447 0.47336-0.42447 0.38621 0 0.42581 0.14283 0.16055 0.57902-0.16194 0.26629-0.32366 0.38188-0.53428 0.38188-0.16613 0-0.30205-0.02519-0.30205-0.05598zm6.8484 1.6681c0.30078-0.17566 0.58121-0.5405 0.99798-1.2984 0.31881-0.57972 0.54992-1.1315 0.51358-1.2262-0.11556-0.30113-0.6517-0.40883-2.0319-0.40814-1.4148 0.00072-2.161 0.13598-2.5221 0.45716-0.1198 0.10656-0.46609 0.64922-0.76955 1.2059-0.80496 1.4767-0.67614 1.5852 1.8302 1.5413 1.3233-0.02316 1.6278-0.06491 1.9818-0.27168zm-2.226-0.17387c-0.04186-0.06773 0.18974-0.62175 0.51468-1.2311 0.49391-0.9263 0.64311-1.1142 0.90981-1.146 0.1843-0.02196 0.31901 0.02102 0.31901 0.10177 0 0.19133-0.9574 2.0175-1.1682 2.2284-0.19959 0.19959-0.46743 0.22147-0.57526 0.047zm7.0006 0.24327c0.14506-0.23229 0.11995-0.24022-0.7599-0.24022h-0.90992l0.73938-1.3861 0.73938-1.3861-1.0391 0.03486-1.0391 0.03486-0.84168 1.5915-0.84168 1.5915h1.9013c1.7712 0 1.9115-0.01644 2.0513-0.24022zm4.3991 0.05023c0.0401-0.1045 0.07291-0.2126 0.07291-0.24022 0-0.02763-0.38286-0.05023-0.85079-0.05023-0.46794 0-0.83137-0.04054-0.80762-0.09008 0.02374-0.04955 0.14636-0.29277 0.27248-0.5405l0.22931-0.45042h0.87437c0.75144 0 0.89244-0.03378 1.0029-0.24022 0.1229-0.22964 0.09134-0.24022-0.71645-0.24022-0.46476 0-0.84501-0.02448-0.84501-0.0544s0.06273-0.19207 0.13939-0.36034c0.13212-0.28996 0.18854-0.30593 1.081-0.30593 0.51789 0 0.94162-0.02261 0.94162-0.05023 0-0.02763 0.03334-0.13713 0.0741-0.24335 0.06647-0.17321-0.12099-0.1897-1.8189-0.15996l-1.893 0.03315-0.82356 1.5417c-0.45296 0.84792-0.82356 1.5641-0.82356 1.5915s0.85902 0.04981 1.9089 0.04981c1.6299 0 1.9196-0.02777 1.9818-0.18999zm4.2819-1.1913 0.73554-1.3813h0.6266c0.57543 0 0.91487-0.14261 0.91487-0.38436 0-0.05285-1.054-0.09609-2.3422-0.09609s-2.3422 0.02261-2.3422 0.05023c0 0.02763-0.03281 0.13573-0.07291 0.24022-0.06062 0.15796 0.0305 0.18999 0.5405 0.18999 0.33738 0 0.61341 0.0183 0.61341 0.04068 0 0.02237-0.29612 0.60341-0.65804 1.2912s-0.6592 1.2911-0.66062 1.3406c-0.0014 0.04955 0.42763 0.09008 0.95344 0.09008h0.95602l0.73554-1.3813z"/>
 </g>
</svg>
