<?xml version="1.0" encoding="UTF-8" standalone="no"?>
<!-- Created with Inkscape (http://www.inkscape.org/) -->
<svg id="svg2" xmlns:rdf="http://www.w3.org/1999/02/22-rdf-syntax-ns#" xmlns="http://www.w3.org/2000/svg" height="54" width="99" version="1.1" xmlns:cc="http://creativecommons.org/ns#" xmlns:dc="http://purl.org/dc/elements/1.1/">
 <metadata id="metadata7">
  <rdf:RDF>
   <cc:Work rdf:about="">
    <dc:format>image/svg+xml</dc:format>
    <dc:type rdf:resource="http://purl.org/dc/dcmitype/StillImage"/>
    <dc:title/>
   </cc:Work>
  </rdf:RDF>
 </metadata>
 <g id="g4039">
  <rect id="rect2990" opacity="0" height="54" width="99" y="0" x="0"/>
  <g fill-rule="evenodd">
   <path id="path11573" d="m81.451 29.308c-1.2714 1.1377-4.2824 1.6736-7.8957 1.6067-1.6063 1.2714-5.8882 1.5389-10.639 1.5389-7.4276 0-6.4241 4.4162-13.651 4.4162-7.2265 0-6.2899-4.4162-13.651-4.4162-4.751 0-9.0334-0.26795-10.64-1.5389-3.6133 0.06687-6.6247-0.46904-7.8957-1.6067-5.1527-0.13325-6.4241-1.1367-6.8922-1.9401 3.1447 0.26795 18.268 0.80337 28.706 0.80337 3.6801 0 5.3533-2.3423 10.372-2.3423 5.0184 0 6.6247 2.3423 10.372 2.3423 10.439 0 25.562-0.53542 28.706-0.80337-0.46904 0.80337-1.74 1.8064-6.8927 1.9401z" fill="#fff"/>
   <path id="path11575" d="m49.263 26.697c-3.9481 0-7.2265 1.8737-7.2265 4.2824 0 2.3423 3.2789 4.4835 7.2265 4.4835 4.0149 0 7.227-2.1412 7.227-4.4835 0-2.4092-3.2121-4.2824-7.227-4.2824z" fill="#040607"/>
   <path id="path11577" d="m55.69 30.978c0 2.2081-2.8768 4.0149-6.4236 4.0149-3.5464 0-6.3568-1.8069-6.3568-4.0149 0-2.1412 2.8104-3.9481 6.3568-3.9481 3.5469 0 6.4236 1.8069 6.4236 3.9481zm-6.4236-3.5469c-2.0075 0-3.6133 1.6067-3.6133 3.5469 0 2.007 1.6058 3.5459 3.6133 3.5459 2.0743 0 3.6801-1.5389 3.6801-3.5459 0-1.9401-1.6058-3.5469-3.6801-3.5469zm3.3458 0.67012c0.73602 0.73554 1.1377 1.8059 1.1377 2.8768 0 1.1377-0.40169 2.2081-1.1377 2.9446 1.4725-0.60229 2.4755-1.74 2.4755-2.9446s-1.0035-2.2745-2.4755-2.8768zm-7.7619 2.8768c0-1.0713 0.40121-2.1412 1.1372-2.8768-1.472 0.60229-2.4755 1.6727-2.4755 2.8768s1.0035 2.3423 2.4755 2.9446c-0.73602-0.73651-1.1372-1.8064-1.1372-2.9446z" fill="#fff"/>
   <path id="path11579" d="m54.314 32.777c-0.13374 0.37042-0.3098 0.72256-0.52195 1.0497-1.1613 0.72256-2.7613 1.1709-4.5282 1.1709-1.854 0-3.5074-0.49309-4.6625-1.2806-0.23139-0.37475-0.41468-0.7798-0.5436-1.2075 0.4368 0.58449 1.1103 1.0834 1.9271 1.4177-0.73602-0.73651-1.1372-1.8069-1.1372-2.9446 0-1.0713 0.40121-2.1412 1.1372-2.8768-0.79279 0.32424-1.4509 0.78558-1.8882 1.3297 0.13181-0.40698 0.31173-0.79183 0.53446-1.1493 1.1536-0.76489 2.7945-1.2517 4.6326-1.2517 1.752 0 3.3405 0.44162 4.4999 1.1464 0.20541 0.31365 0.37763 0.65136 0.51281 1.0064-0.42574-0.43584-0.99724-0.80818-1.6674-1.0814 0.73602 0.73554 1.1377 1.8059 1.1377 2.8768 0 1.1377-0.40169 2.2081-1.1377 2.9446 0.68984-0.28238 1.2763-0.68263 1.7049-1.1502zm-5.0502-5.3417c-2.0075 0-3.6133 1.6067-3.6133 3.5469 0 2.007 1.6058 3.5459 3.6133 3.5459 2.0743 0 3.6801-1.5389 3.6801-3.5459 0-1.9401-1.6058-3.5469-3.6801-3.5469z" fill="#fff"/>
   <path id="path11581" d="m45.934 32.382c-0.18184-0.41323-0.2819-0.86543-0.2819-1.334v-0.03271c0.0043 0.48924 0.10439 0.95058 0.2819 1.3667z" fill="#dbb46b"/>
  </g>
  <g fill-rule="evenodd">
   <path id="path11583" d="m50.336 33.388c0.40121-0.20108 0.66916-0.13422 0.93663-0.46904 0.33434-0.26795 0.33434-0.60229 0.46856-0.93663 0-0.06687 0.06687-0.13325 0.06687-0.20108l0.53542 0.26795-0.33482 2.008-0.40121-0.26795-0.20108 0.87024-1.0704-1.2714z"/>
   <path id="path11585" d="m46.589 31.516c-0.06687-0.13422-0.13374-0.26795-0.13374-0.46904 0-0.40121 0.26795-0.60229 0.40169-1.0035s0.13374-0.66916 0.46855-1.0035c0.26747-0.26795 0.53542-0.20108 0.93663-0.40217 0.40121-0.13325 0.60229-0.33434 1.0035-0.33434s0.60229 0.20108 1.0035 0.33434c0.40169 0.13422 0.66916 0.13422 0.93663 0.33434l-4.6168 2.5439z"/>
   <path id="path11587" d="m49.331 33.724c-0.46855 0-0.60229-0.20108-1.0708-0.33434-0.33482-0.13422-0.60229-0.13422-0.86976-0.40217l4.5499-2.5424c0.06687 0.13422 0.2006 0.33434 0.2006 0.53542 0 0.33434-0.2006 0.53542-0.33434 0.80241 0 0.06783-0.06687 0.13422-0.06687 0.20108-0.06735 0.13422-0.06735 0.20108-0.06735 0.26795-0.06687 0.06687-0.06687 0.13422-0.06687 0.13422-0.06687 0.20012-0.13374 0.40121-0.33434 0.53446-0.20108 0.26795-0.46855 0.26795-0.80337 0.40217-0.06687 0-0.13325 0-0.13325 0.06687h-0.0688c-0.33386 0.13325-0.53446 0.33434-0.93615 0.33434z"/>
  </g>
  <path id="path11589" d="m51.005 30.978c0 0.93663-0.73602 1.74-1.74 1.74-0.93663 0-1.74-0.80337-1.74-1.74 0-0.87024 0.80289-1.6736 1.74-1.6736 1.004 0.000481 1.74 0.80386 1.74 1.6736zm-1.74-2.008c-1.1372 0-2.0743 0.87024-2.0743 2.008 0 1.1377 0.93711 2.0748 2.0743 2.0748 1.2041 0 2.1412-0.93663 2.1412-2.0748s-0.93663-2.008-2.1412-2.008z" fill-rule="evenodd" fill="#fff"/>
  <g fill-rule="evenodd">
   <path id="path11591" d="m49.066 28.972c0.06687 0 0.2006 0 0.2006 0.06783l0.2006 0.20012c-0.06687 0.06687-0.13374 0.06687-0.2006 0l-0.201-0.268z"/>
   <path id="path11593" d="m48.729 29.039h0.2006l0.26747 0.20012c-0.06687 0.06687-0.2006 0.13422-0.2006 0.06687l-0.267-0.267z"/>
   <path id="path11595" d="m48.397 29.241c0-0.13325 0.13374-0.13325 0.2006-0.13325l0.26795 0.20012c-0.06687 0.06783-0.13374 0.13422-0.2006 0.06783l-0.268-0.135z"/>
   <path id="path11597" d="m48.061 29.376c0-0.06783 0.13374-0.13422 0.2006-0.06783l0.26795 0.06783c0 0.13325-0.06687 0.13325-0.13374 0.13325l-0.335-0.133z"/>
   <path id="path11599" d="m47.791 29.64c0-0.13422 0.13374-0.13422 0.13374-0.13422l0.33482 0.06687c0 0.06783-0.06687 0.13422-0.13374 0.13422l-0.335-0.067z"/>
   <path id="path11601" d="m47.594 29.91c0-0.13325 0.06687-0.20012 0.13374-0.20012h0.33482c0 0.13326-0.06735 0.20012-0.13422 0.20012h-0.335z"/>
   <path id="path11603" d="m47.392 30.174c0-0.06687 0.06687-0.13325 0.13374-0.13325l0.26795-0.06687c0.06687 0.06687 0 0.13325-0.06687 0.20012h-0.335z"/>
   <path id="path11605" d="m47.257 30.511c0-0.06687 0.06687-0.13325 0.06687-0.13325l0.33434-0.13422c0.06687 0.06783 0 0.13422-0.06687 0.20108l-0.334 0.066z"/>
   <path id="path11607" d="m47.19 30.915c0-0.13422 0-0.20108 0.06687-0.20108l0.26747-0.20108c0.06687 0.06783 0.06687 0.13422 0 0.20108l-0.334 0.201z"/>
   <path id="path11609" d="m47.257 31.247c-0.06687-0.06687-0.06687-0.20108 0-0.20108l0.2006-0.20012c0.06687 0.06687 0.06687 0.13325 0.06687 0.20012l-0.268 0.201z"/>
  </g>
  <g fill-rule="evenodd" fill="#a38a5a">
   <path id="path11611" d="m47.325 31.584c-0.06687-0.06687-0.06687-0.13422-0.06687-0.20108l0.2006-0.26795c0.06687 0.06783 0.13374 0.13422 0.06687 0.20108l-0.201 0.268z"/>
   <path id="path11613" d="m47.459 31.916c-0.06687-0.06687-0.13374-0.13422-0.06687-0.20108l0.13374-0.26795c0.06687 0 0.13374 0.13422 0.06687 0.13422l-0.134 0.335z"/>
   <path id="path11615" d="m47.661 32.185c-0.13374 0-0.13374-0.13422-0.13374-0.13422l0.134-0.335c0.06687 0 0.13374 0.13422 0.06687 0.20108l-0.067 0.268z"/>
   <path id="path11617" d="m47.859 32.454c-0.06687 0-0.13374-0.06687-0.13374-0.13422l0.06687-0.33434c0.06687 0 0.13374 0.06687 0.13374 0.13422l-0.067 0.334z"/>
  </g>
  <g fill-rule="evenodd">
   <path id="path11619" d="m48.128 32.719c-0.06687 0-0.13422-0.13422-0.13422-0.20108v-0.26796c0.06735 0 0.13422 0 0.13422 0.06687v0.402z"/>
   <path id="path11621" d="m48.46 32.854c-0.06687 0-0.2006-0.06687-0.2006-0.13325l-0.066-0.268c0.13374-0.06687 0.2006 0 0.2006 0.06687l0.06687 0.33434z"/>
   <path id="path11623" d="m48.797 32.988c-0.06687 0-0.2006-0.06687-0.2006-0.06687l-0.13374-0.33434c0.13374-0.06687 0.2006 0 0.2006 0.06687l0.134 0.334z"/>
   <path id="path11625" d="m49.196 32.988c-0.13374 0.06783-0.2006 0.06783-0.26747 0l-0.13374-0.26699c0.06687-0.06783 0.13374-0.06783 0.2006 0l0.2006 0.26699z"/>
   <path id="path11627" d="m49.533 32.988c-0.06687 0.06783-0.2006 0.06783-0.2006 0l-0.2006-0.20012c0-0.06687 0.13374-0.06687 0.2006-0.06687l0.201 0.267z"/>
   <path id="path11629" d="m49.869 32.921c-0.06687 0.06687-0.13374 0.06687-0.2006 0.06687l-0.26747-0.20012c0.067-0.067 0.134-0.134 0.201-0.067l0.26747 0.20012z"/>
   <path id="path11631" d="m50.201 32.786c0 0.06687-0.13374 0.13325-0.20108 0.06687l-0.26747-0.13325c0-0.06783 0.13374-0.13422 0.2006-0.06783l0.26795 0.13422z"/>
   <path id="path11633" d="m50.538 32.652c-0.06735 0.06783-0.13374 0.06783-0.2006 0.06783l-0.335-0.134c0.06735-0.06687 0.13374-0.13325 0.20108-0.06687l0.335 0.133z"/>
   <path id="path11635" d="m50.803 32.387c0 0.06687-0.13374 0.13325-0.20108 0.13325l-0.33434-0.06687c0.06735-0.06687 0.13374-0.13422 0.2006-0.13422l0.33482 0.06783z"/>
   <path id="path11637" d="m51.005 32.118c0 0.06687-0.06735 0.13325-0.13374 0.13325h-0.33434c0-0.06687 0.06687-0.13325 0.13374-0.13325h0.334z"/>
   <path id="path11639" d="m51.207 31.781c0 0.13422-0.06687 0.20108-0.13374 0.20108l-0.33434 0.06687c0-0.06687 0.06735-0.13325 0.13374-0.20012l0.334-0.068z"/>
   <path id="path11641" d="m51.341 31.449c0 0.13422-0.06687 0.20108-0.13374 0.20108l-0.26795 0.13325c-0.06687-0.06687 0-0.13325 0.06735-0.20012l0.335-0.134z"/>
   <path id="path11643" d="m51.341 31.112c0.06687 0.06783 0 0.20108 0 0.20108l-0.33434 0.20108c0-0.06783 0-0.20108 0.06687-0.20108l0.267-0.201z"/>
   <path id="path11645" d="m51.341 30.78c0.06687 0.06783 0.06687 0.20108 0 0.20108l-0.26795 0.20108c-0.06687-0.06783-0.06687-0.13422 0-0.20108l0.268-0.201z"/>
  </g>
  <g fill-rule="evenodd" fill="#a38a5a">
   <path id="path11647" d="m51.274 30.444c0.06687 0.06687 0.06687 0.13422 0.06687 0.20108l-0.26795 0.26795c-0.06687-0.06687-0.06687-0.13422 0-0.20108l0.201-0.268z"/>
   <path id="path11649" d="m51.139 30.112c0.06687 0.06687 0.13374 0.13326 0.06687 0.20108l-0.13374 0.26795c-0.06687 0-0.13374-0.13422-0.13374-0.20108l0.2006-0.26795z"/>
   <path id="path11651" d="m50.937 29.775c0.13374 0.06687 0.13374 0.13325 0.13374 0.20108l-0.134 0.334c-0.067-0.067-0.133-0.134-0.133-0.201l0.133-0.334z"/>
   <path id="path11653" d="m50.735 29.573c0.06735 0 0.13374 0.06783 0.13374 0.13422l-0.06687 0.33434c-0.06735 0-0.13374-0.06687-0.13374-0.13422l0.067-0.334z"/>
  </g>
  <g fill-rule="evenodd">
   <path id="path11655" d="m50.471 29.308c0.06735 0 0.13374 0.13422 0.13374 0.13422v0.33434c-0.06687 0-0.13374-0.06687-0.13374-0.13325v-0.3353z"/>
   <path id="path11657" d="m50.134 29.174c0.06735 0 0.13374 0.06687 0.13374 0.06687l0.06735 0.33434c-0.06735 0-0.13374 0-0.13374-0.06687l-0.067-0.334z"/>
   <path id="path11659" d="m49.802 29.039c0.06687 0 0.13374 0 0.2006 0.06687l0.06735 0.33434c-0.06735 0-0.13374 0-0.2006-0.06687l-0.067-0.334z"/>
   <path id="path11661" d="m49.398 28.972c0.06687 0 0.2006 0 0.2006 0.06783l0.2006 0.26699c-0.06687 0.06783-0.2006 0.06783-0.2006 0l-0.201-0.335z"/>
  </g>
  <path id="path11663" d="m52.078 31.916c0.2006-0.33434 0.33434-0.53542 0.33434-0.93663 0-0.46904-0.2006-0.66916-0.40169-1.0713-0.2006-0.46807-0.2006-0.73554-0.53494-1.0704-0.33434-0.33482-0.66916-0.33434-1.0708-0.46904-0.46855-0.20012-0.66916-0.40121-1.1377-0.40121-0.46855 0-0.66916 0.20108-1.0708 0.40121-0.46856 0.20108-0.80289 0.20108-1.1377 0.46904-0.33434 0.33434-0.33434 0.66916-0.46856 1.0704-0.2006 0.46904-0.40121 0.67012-0.40121 1.1377 0 0.46904 0.2006 0.66916 0.40121 1.0713 0.2006 0.4012 0.2006 0.73554 0.46856 1.0704 0.4012 0.33434 0.73602 0.26795 1.1377 0.46904 0.46855 0.13325 0.66916 0.4012 1.1377 0.4012 0.46855 0 0.66916-0.26795 1.0708-0.4012h0.06687l0.93663 1.1368 0.20108-0.86928 0.40121 0.20012 0.46855-2.0748-0.4012-0.13325zm-5.487-0.40121c-0.06687-0.13422-0.13374-0.26795-0.13374-0.46904 0-0.40121 0.26795-0.60229 0.40169-1.0035s0.13374-0.66916 0.46855-1.0035c0.26747-0.26795 0.53542-0.20108 0.93663-0.40217 0.40121-0.13326 0.60229-0.33434 1.0035-0.33434s0.60229 0.20108 1.0035 0.33434c0.40169 0.13422 0.66916 0.13422 0.93663 0.33434l-4.6168 2.5439zm2.7435 2.2076c-0.46856 0-0.60229-0.20108-1.0708-0.33434-0.33482-0.13422-0.60229-0.13422-0.86976-0.40217l4.5499-2.5424c0.06687 0.13422 0.2006 0.33434 0.2006 0.53542 0 0.33434-0.2006 0.53542-0.33434 0.80241 0 0.06783-0.06687 0.13422-0.06687 0.20108-0.06735 0.13422-0.06735 0.20108-0.06735 0.26795-0.06687 0.06687-0.06687 0.13422-0.06687 0.13422-0.06687 0.20012-0.13374 0.40121-0.33434 0.53446-0.20108 0.26795-0.46856 0.26795-0.80337 0.40217-0.06687 0-0.13325 0-0.13325 0.06687h-0.0693c-0.33386 0.13325-0.53446 0.33434-0.93615 0.33434zm1.9406 0.60229-0.60229-0.80337c0.33434-0.06687 0.60229-0.13325 0.87024-0.40121 0.06687-0.06687 0.13326-0.13422 0.13326-0.20108l-0.40121 1.4057zm0.60229-0.53542-0.20108-0.13325 0.33434-1.2046-0.13325-0.06687c0.06687-0.06783 0.06687-0.20108 0.13325-0.26795l0.20108 0.06687-0.33434 1.6058z" fill-rule="evenodd" fill="#fff"/>
  <g fill-rule="evenodd">
   <path id="path11665" d="m49.263 29.573c-0.73602 0-1.3383 0.60229-1.4052 1.2724l2.008-1.137c-0.13374-0.06687-0.33482-0.1347-0.60229-0.1347z"/>
   <path id="path11667" d="m48.662 32.252c0.2006 0.13422 0.40121 0.20108 0.60229 0.20108 0.80289 0 1.4052-0.60229 1.472-1.3388l-2.0743 1.1377z"/>
   <path id="path11669" d="m47.19 32.854c-0.13374-0.26795-0.2006-0.53542-0.33434-0.87024-0.06687-0.06687-0.06687-0.13325-0.13374-0.20108l4.6172-2.6093c0.20108 0.26795 0.20108 0.46904 0.40169 0.87024 0 0.06687 0.06687 0.13325 0.13374 0.20012l-4.6846 2.6102z"/>
  </g>
  <g fill-rule="evenodd" fill="#fff">
   <polygon id="polygon11671" transform="matrix(.48106 0 0 .48106 -97.407 -163.68)" points="304.89 401.87 304.47 402.71 304.34 402.43 303.36 403.4 303.22 403.26 302.8 403.68 302.8 403.68 303.22 402.71 303.36 403.12 304.34 402.01 304.47 402.29"/>
   <polygon id="polygon11673" transform="matrix(.48106 0 0 .48106 -97.407 -163.68)" points="307.26 405.77 306.84 406.6 306.7 406.32 305.73 407.3 305.45 407.02 305.03 407.58 305.03 407.58 305.45 406.6 305.73 406.88 306.7 405.91 306.84 406.18"/>
   <polygon id="polygon11675" transform="matrix(.48106 0 0 .48106 -97.407 -163.68)" points="302.25 407.3 301.97 407.44 301.97 405.21 301.97 405.21 302.25 405.07 302.25 406.04 302.67 405.77 302.67 404.79 302.94 404.65 302.94 406.88 302.67 407.02 302.67 406.04 302.25 406.32"/>
   <path id="path11677" d="m48.595 31.382v-0.40121l0.06687-0.06687c0.06687 0 0.06687 0 0.06687 0.06687v0.20108c0 0.06687 0 0.06687-0.06687 0.13325l-0.067 0.067zm0.2006-0.06639c0.06687-0.06687 0.06687-0.06687 0.06687-0.13325v-0.26887c0-0.13422-0.06687-0.20108-0.2006-0.13422l-0.2006 0.13422v1.0704l0.13374-0.06687v-0.46841h0.06687l0.13374 0.40217 0.13374-0.13422-0.13374-0.40121z"/>
   <polygon id="polygon11679" transform="matrix(.48106 0 0 .48106 -97.407 -163.68)" points="304.47 405.07 304.47 405.07 304.06 404.1 304.34 403.96 304.61 404.65 304.89 403.54 305.17 403.4 304.75 404.93 304.75 405.91 304.47 406.04"/>
   <path id="path11681" d="m49.6 30.848c-0.06687 0.06687-0.13374 0-0.13374-0.06783v-0.26795c0-0.13325 0-0.13325 0.13374-0.20012l0.13374-0.06783c0.06687-0.06687 0.13374-0.06687 0.13374 0.06783v0.13325l-0.13374 0.06687v-0.19994l-0.134 0.06694v0.40121l0.13374-0.06687c0.06687-0.06687 0.13374-0.06687 0.13374 0.06687v0.26795c0 0.13422 0 0.20108-0.13374 0.26795l-0.134 0.067c-0.06687 0-0.13374 0-0.13374-0.06687v-0.20108l0.06687-0.06687v0.20108l0.268-0.067v-0.40187l-0.201 0.06787z"/>
   <polygon id="polygon11683" transform="matrix(.48106 0 0 .48106 -97.407 -163.68)" points="306.42 402.71 306.7 402.57 306.7 404.65 307.12 404.38 307.12 404.65 306.42 405.07"/>
   <polygon id="polygon11685" transform="matrix(.48106 0 0 .48106 -97.407 -163.68)" points="308.09 404.1 307.26 404.52 307.26 402.29 307.26 402.29 308.09 401.87 308.09 402.01 307.53 402.29 307.53 403.12 307.95 402.85 307.95 403.12 307.53 403.26 307.53 404.1 308.09 403.82"/>
   <path id="path11687" d="m51.005 29.977v-0.33434l0.06687-0.06783c0.06735-0.06687 0.13374 0 0.13374 0v0.26795c0 0.06687-0.06687 0.06687-0.06687 0.06687l-0.134 0.067zm0.2006 0c0.06735-0.06783 0.13374-0.06783 0.13374-0.20108v-0.26795c0-0.06687-0.13374-0.13325-0.2006-0.06687l-0.26795 0.13325v1.0713l0.13374-0.06687v-0.46904l0.06687-0.06687 0.13374 0.40121 0.13374-0.06687-0.13325-0.40024z"/>
   <path id="path11689" d="m47.594 31.781v-0.26699l-0.2006 0.13325v0.80337l0.2006-0.13422v-0.20012l0.13374-0.06783v0.20108c0 0.13422 0 0.20108-0.13374 0.20108l-0.13374 0.06687c-0.06687 0.06687-0.2006 0.06687-0.2006-0.06687v-0.73651c0-0.13326 0.06687-0.20012 0.2006-0.26795l0.134-0.066c0.06687 0 0.13374 0 0.13374 0.13422v0.20012l-0.134 0.068z"/>
  </g>
  <g fill-rule="evenodd" fill="#040607">
   <path id="path11691" d="m88.277 27.1c-3.0778 0.20108-18.067 0.73651-28.64 0.73651-1.6731 0-2.9441-0.46904-4.2824-1.004-1.5389-0.60229-3.3458-1.2714-6.0893-1.2714s-4.5499 0.66916-6.0893 1.2714c-1.3383 0.53494-2.6098 1.004-4.2824 1.004-10.573 0-25.562-0.53542-28.64-0.73651l-0.53542-0.06687 0.2006 0.46904c0.46855 0.86928 1.6731 1.9401 7.0259 2.0739 1.74 1.4725 5.6876 1.6736 7.8962 1.6067 1.472 1.0704 4.6841 1.5389 10.773 1.5389 3.6133 0 5.1522 1.0704 6.6916 2.2081 1.6058 1.0704 3.2789 2.2081 6.959 2.2081s5.3528-1.1377 6.8922-2.2081c1.6063-1.1377 3.1452-2.2081 6.7589-2.2081 6.0224 0 9.3009-0.46904 10.706-1.5389 2.2749 0.06687 6.2235-0.13422 7.963-1.6067 5.3533-0.13325 6.5578-1.2046 6.9595-2.0739l0.26747-0.46904-0.5359 0.06687zm-6.8253 2.2081c-1.2714 1.1377-4.2824 1.6736-7.8957 1.6067-1.6063 1.2714-5.8882 1.5389-10.639 1.5389-7.4276 0-6.4241 4.4162-13.651 4.4162-7.2265 0-6.2899-4.4162-13.651-4.4162-4.751 0-9.0334-0.26795-10.64-1.5389-3.6133 0.06687-6.6247-0.46904-7.8957-1.6067-5.1527-0.13325-6.4241-1.1367-6.8922-1.9401 3.1447 0.26795 18.268 0.80337 28.706 0.80337 3.6801 0 5.3533-2.3423 10.372-2.3423 5.0184 0 6.6247 2.3423 10.372 2.3423 10.439 0 25.562-0.53542 28.706-0.80337-0.46904 0.80337-1.74 1.8064-6.8927 1.9401z"/>
   <path id="path11693" d="m87.806 27.432 0.2006-0.06687s-0.06687 0.13422-0.2006 0.26795h-0.33434c0.20034-0.066 0.33434-0.201 0.33434-0.201z"/>
   <path id="path11695" d="m87.474 27.634c-1.6731 0.66916-7.2939 1.3378-27.168 1.3378-2.1417 0-2.6766-0.26699-3.0114-0.26699-0.33482 0-0.40169 0.26699-0.26795 0.53446 0.13374 0.20108 0.26795 0.53542 0.33434 0.73651-0.06687-0.46904 0.33482-0.33434 2.0075-0.33434 14.186 0 17.264-0.26795 21.547-0.73651-1.8069 1.2046-12.178 1.2714-20.409 1.2714-0.93663 0.06687-1.9406 0.06687-2.6766 0.06687-0.26747 0-0.40121 0.06783-0.33434 0.3353 0 0.20012 0.06735 0.60229 0 0.86928 0.26795-0.33434 0.20108-0.60133 1.8737-0.60133 8.4311 0 12.179-0.26795 13.718-0.46904-1.3383 0.73554-3.4127 1.0704-12.848 1.0704-4.0149 0-4.483 4.4171-10.974 4.4171s-6.959-4.4171-10.974-4.4171c-9.4351 0-11.509-0.33434-12.848-1.0704 1.5389 0.20108 5.2864 0.46904 13.717 0.46904 1.6731 0 1.6058 0.26699 1.8737 0.60133-0.06687-0.26699 0-0.66916 0-0.86928 0.06687-0.26795-0.06687-0.3353-0.33482-0.3353-0.73602 0-1.7395 0-2.6761-0.06687-8.2305 0-18.602-0.06687-20.409-1.2714 4.2824 0.46904 7.3607 0.73651 21.547 0.73651 1.6731 0 2.0743-0.13422 2.0075 0.33434 0.06687-0.20108 0.2006-0.53542 0.33434-0.73651 0.13374-0.26795 0.06687-0.53446-0.26747-0.53446-0.33482 0-0.87024 0.26699-3.0114 0.26699-19.941 0-25.494-0.66916-27.168-1.3378h-0.33499c0.80289 0.53542 2.2081 0.93663 6.5574 1.2714 1.0708 1.0035 3.8143 1.2714 7.7619 1.4725 1.2714 1.2046 4.6841 1.4047 12.045 1.4047 5.5539 0 5.4201 4.4835 12.179 4.4835 6.7584 0 6.6247-4.4835 12.179-4.4835 7.3607 0 10.707-0.20012 12.044-1.4047 3.8812-0.20108 6.6916-0.46904 7.7624-1.4725 4.3493-0.33434 5.7549-0.73554 6.5578-1.2714h-0.33482z"/>
   <path id="path11697" d="m10.72 27.432-0.2006-0.067s0.06687 0.13422 0.2006 0.26795h0.33435c-0.20065-0.066-0.33435-0.201-0.33435-0.201z"/>
   <polygon id="polygon11699" transform="matrix(.48106 0 0 .48106 -97.407 -163.68)" points="333.68 385.6 350.52 385.6 350.52 383.79 338.83 383.79 338.83 375.72 333.68 375.72"/>
   <path id="path11701" d="m16.344 17.061v4.751h2.4758v-1.9406h4.3498v1.9406h2.4751v-4.751h-2.4758v1.9406h-4.3498v-1.9406h-2.4755z"/>
   <path id="path11703" d="m47.392 17.061-2.342 2.0075-2.342-2.0075h-2.8772l3.4795 2.8104v1.9406h2.4755v-1.9406c0.066-0.0669 3.277-2.8104 3.277-2.8104h-1.672z"/>
   <polygon id="polygon11705" transform="matrix(.48106 0 0 .48106 -97.407 -163.68)" points="373.19 375.72 356.22 375.72 356.22 385.6 356.22 385.6 373.33 385.6 373.33 383.93 361.36 383.93 361.36 381.42 372.91 381.42 372.91 379.76 361.36 379.76 361.36 377.39 373.19 377.39"/>
   <path id="path11707" d="m51.139 18.336c0 1.0708 1.2714 1.3383 3.0778 1.5389 1.8069 0.26795 2.6761 0.33434 2.6761 0.73603 0 0.33434-0.53494 0.53494-2.0743 0.53494-1.8069 0-3.3458-0.40121-3.5464-0.46855 0 0.06687-0.20108 1.004-0.20108 1.004 0.20108 0.06687 1.6731 0.40121 3.8143 0.40121 2.4092 0 4.6841-0.40121 4.6841-1.6731 0-0.86976-0.93663-1.3383-3.6137-1.6058-1.0708-0.13374-2.2081-0.2006-2.2081-0.60229 0-0.33434 0.26795-0.46855 1.8737-0.46855 1.5389 0 2.8772 0.33434 3.0778 0.33434l0.2-0.86976c-0.267-0.06687-1.806-0.33434-3.88-0.33434-1.672 0.000962-3.881 0.20157-3.881 1.473z"/>
   <path id="path11709" d="m4.5 19.471c0 1.5389 1.6731 2.6098 5.1522 2.6098 1.3383 0 2.7435-0.2006 3.0114-0.26795l0.2006-1.0035c-0.26747 0.06687-1.4721 0.2006-2.6761 0.2006-1.9406 0-3.2789-0.46855-3.2789-1.5389 0-1.1377 1.2714-1.6058 3.2789-1.6058 1.1372 0 2.4087 0.13374 2.6761 0.2006l-0.2006-1.0035c-0.3343-0.06686-1.6058-0.2006-2.9446-0.2006-3.5454 0-5.219 1.0035-5.219 2.6093z"/>
   <path id="path11711" d="m29.458 21.814h2.4755v-3.8812c0.33434-0.06687 0.73603-0.06687 1.2714-0.06687 0.60181 0 1.0708 0 1.4052 0.06687 0.73603 0.06735 1.0035 0.33482 1.0035 0.66916 0 0.26795-0.33434 0.60229-1.0708 0.66916-0.53542 0.06687-0.86976 0.13374-1.2714 0.13374-0.26795 0-0.46855 0-0.80289-0.06687l2.8104 2.4755h3.1452l-2.809-1.9406c0.53542-0.06687 0.73602-0.06687 1.3383-0.26795 0.73602-0.2006 1.0708-0.60181 1.1377-1.0035 0-0.60181-0.40169-1.0708-1.8069-1.4052-0.73603-0.13374-1.74-0.2006-3.011-0.2006-1.8069 0-3.6133 0.06687-3.8143 0.06687v4.7514h0.000481z"/>
   <path id="path11713" d="m85.468 21.814h2.4755v-3.8812c0.40121-0.06687 0.73602-0.06687 1.3378-0.06687 0.60229 0 1.004 0 1.4057 0.06687 0.73602 0.06735 1.0035 0.33482 0.93663 0.66916 0 0.26795-0.33482 0.60229-1.0708 0.66916-0.46855 0.06687-0.80337 0.13374-1.2719 0.13374-0.26747 0-0.46856 0-0.73554-0.06687l2.8104 2.4755h3.1447l-2.877-1.9406c0.60229-0.06687 0.80289-0.06687 1.3383-0.26795 0.73554-0.2006 1.1372-0.60181 1.1372-1.0035 0-0.60181-0.33434-1.0708-1.74-1.4052-0.80289-0.13374-1.7395-0.2006-3.0778-0.2006-1.7395 0-3.6133 0.06687-3.8139 0.06687v4.7514h0.000481z"/>
  </g>
 </g>
</svg>
