<?xml version="1.0" encoding="UTF-8" standalone="no"?>
<!-- Created with Inkscape (http://www.inkscape.org/) -->
<svg id="svg2" xmlns:rdf="http://www.w3.org/1999/02/22-rdf-syntax-ns#" xmlns="http://www.w3.org/2000/svg" height="45" width="67.5" version="1.1" xmlns:cc="http://creativecommons.org/ns#" xmlns:dc="http://purl.org/dc/elements/1.1/">
 <metadata id="metadata7">
  <rdf:RDF>
   <cc:Work rdf:about="">
    <dc:format>image/svg+xml</dc:format>
    <dc:type rdf:resource="http://purl.org/dc/dcmitype/StillImage"/>
    <dc:title/>
   </cc:Work>
  </rdf:RDF>
 </metadata>
 <g id="g19876">
  <rect id="rect2990" opacity="0" height="45" width="67.5" y="0" x="3.5527e-15"/>
  <path id="path7687" d="m16.453 42.029v-2.9097h1.3829c2.5383 0 3.6803 1.7906 2.1683 3.4l-0.6516 0.69361 0.6516 0.5897c0.3584 0.32434 0.65162 0.71264 0.65162 0.86289 0 0.54438-0.87427 0.255-1.6165-0.53506-0.41761-0.44454-0.95218-0.80824-1.1879-0.80824-0.24163 0-0.4286 0.35257-0.4286 0.80824 0 0.50291-0.1832 0.80824-0.48494 0.80824-0.39515 0-0.48495-0.53883-0.48495-2.9097zm3.0094-0.36018c0.52689-0.84203 0.0322-1.5796-1.0594-1.5796-0.908 0-0.98005 0.08477-0.98005 1.153 0 1.0574 0.071 1.1445 0.85646 1.0507 0.47106-0.05626 1.0034-0.33712 1.183-0.62413zm2.4867 0.36018v-2.9097h1.4548c1.0777 0 1.4548 0.12573 1.4548 0.48495 0 0.3233-0.3233 0.48495-0.9699 0.48495-0.81902 0-0.96989 0.12573-0.96989 0.80824 0 0.6466 0.16165 0.80824 0.80824 0.80824 0.50292 0 0.80825 0.1832 0.80825 0.48495 0 0.30174-0.30533 0.48495-0.80825 0.48495-0.59271 0-0.80824 0.17242-0.80824 0.6466 0 0.50291 0.21553 0.6466 0.96989 0.6466 0.6466 0 0.9699 0.16165 0.9699 0.48495 0 0.35922-0.37718 0.48495-1.4548 0.48495h-1.4548v-2.9097zm3.8796 2.7932c0-0.50221 2.6534-5.7029 2.9097-5.7029 0.25624 0 2.9097 5.2007 2.9097 5.7029 0 0.45666-1.0538-0.03442-1.4846-0.69181-0.35391-0.54015-0.82663-0.80824-1.4251-0.80824-0.59848 0-1.0712 0.2681-1.4251 0.80824-0.43074 0.65739-1.4846 1.1485-1.4846 0.69181zm3.5513-2.5508c-0.003-0.22227-0.14821-0.62235-0.3233-0.88907-0.28298-0.43106-0.35372-0.43106-0.6367 0-0.50795 0.77379-0.38009 1.2932 0.31835 1.2932 0.35563 0 0.64437-0.18186 0.64165-0.40412zm3.2379-0.24247c0-2.3709 0.0898-2.9097 0.48495-2.9097 0.38795 0 0.48494 0.48495 0.48494 2.4247 0 2.3709 0.018 2.4247 0.80825 2.4247 0.50291 0 0.80824 0.1832 0.80824 0.48495 0 0.35024-0.35921 0.48495-1.2932 0.48495h-1.2932v-2.9097zm4.2029 0.48495c0-2.2092-0.0574-2.4247-0.64659-2.4247-0.35922 0-0.6466-0.21553-0.6466-0.48495 0-0.37228 0.4131-0.48495 1.7781-0.48495s1.7781 0.11266 1.7781 0.48495c0 0.26941-0.28738 0.48495-0.6466 0.48495-0.58912 0-0.64659 0.21553-0.64659 2.4247 0 1.9398-0.097 2.4247-0.48495 2.4247-0.38796 0-0.48495-0.48495-0.48495-2.4247zm3.7032 1.6312c-1.7934-1.7934-0.32846-5.0258 2.2778-5.0258 2.6062 0 4.0712 3.2324 2.2778 5.0258-0.61206 0.61206-1.133 0.79355-2.2778 0.79355s-1.6657-0.18149-2.2778-0.79355zm3.7326-0.82294c0.77675-0.77676 0.82068-1.5474 0.14332-2.5144-1.048-1.4963-3.6996-0.56941-3.6996 1.2932 0 0.83364 1.1635 1.8679 2.1014 1.8679 0.44453 0 1.0992-0.29097 1.4548-0.6466zm2.9097-1.2932v-2.9097h1.2213c2.3853 0 3.4716 1.8406 2.0067 3.4l-0.65161 0.69361 0.65161 0.5897c0.3584 0.32434 0.65162 0.71264 0.65162 0.86289 0 0.54438-0.87428 0.255-1.6165-0.53506-0.41762-0.44454-0.87944-0.80824-1.0262-0.80824-0.14682 0-0.26694 0.36371-0.26694 0.80824 0 0.50291-0.18321 0.80824-0.48495 0.80824-0.39515 0-0.48495-0.53883-0.48495-2.9097zm2.6856-0.36018c0.48865-0.77993 0.0344-1.5796-0.89737-1.5796-0.7228 0-0.81838 0.13478-0.81838 1.154 0 0.99705 0.0944 1.14 0.6944 1.0507 0.38192-0.05681 0.84153-0.33813 1.0214-0.62514zm-33.722-23.564v-18.105h17.62 17.62v18.105 18.105h-17.62-17.62v-18.105zm14.872 0.16165v-13.74h-5.0111-5.0111v13.74 13.74h5.0111 5.0111v-13.74zm16.812 13.501c0-0.41939-12.1-12.369-12.525-12.369-0.31362 0-0.40731 1.4501-0.40731 6.3043v6.3043h6.466c3.5563 0 6.466-0.10771 6.466-0.23936zm-7.1874-14.486c5.4284-2.2681 5.1424-9.9707-0.45703-12.31-0.58511-0.24448-2.0142-0.4445-3.1757-0.4445h-2.1118v6.6276 6.6276h2.2735c1.3206 0 2.7754-0.20971 3.471-0.50038z"/>
 </g>
</svg>
