<?xml version="1.0" encoding="UTF-8" standalone="no"?>
<!-- Created with Inkscape (http://www.inkscape.org/) -->
<svg id="svg2" xmlns:rdf="http://www.w3.org/1999/02/22-rdf-syntax-ns#" xmlns="http://www.w3.org/2000/svg" height="45" width="67.5" version="1.1" xmlns:cc="http://creativecommons.org/ns#" xmlns:dc="http://purl.org/dc/elements/1.1/">
 <metadata id="metadata7">
  <rdf:RDF>
   <cc:Work rdf:about="">
    <dc:format>image/svg+xml</dc:format>
    <dc:type rdf:resource="http://purl.org/dc/dcmitype/StillImage"/>
    <dc:title/>
   </cc:Work>
  </rdf:RDF>
 </metadata>
 <g id="g6595">
  <rect id="rect2990" opacity="0" height="45" width="67.5" y="0" x="3.5527e-15"/>
  <path id="path5605" d="m21.584 44.602c-0.00041-0.23096 0.11567-0.74475 0.25797-1.1418 0.14229-0.39702 0.20684-0.77372 0.14344-0.83712s-0.50588-0.0984-0.98328-0.07778c-1.4519 0.06272-1.4878-0.12234-0.25364-1.3054 0.84191-0.80702 1.4588-1.2201 2.8698-1.9215 0.98857-0.4914 2.0633-0.92912 2.3883-0.97271 0.54071-0.07252 0.65665-0.01779 1.364 0.64389 0.97173 0.90894 1.3148 0.86303 1.1994-0.16053-0.11895-1.0553-1.4519-3.5145-1.7457-3.2207-0.0534 0.05337 0.0171 0.22312 0.15652 0.37722 0.13946 0.1541 0.25356 0.42447 0.25356 0.60082 0 0.77334-1.1442 1.1042-1.5947 0.46117-0.31749-0.45328-0.31115-0.48253 0.24071-1.1111 0.26313-0.29969 0.43481-0.58849 0.38151-0.64178-0.17742-0.17742-0.79784 0.27353-1.069 0.77696-0.2208 0.41001-0.23587 0.56636-0.0862 0.89478 0.41933 0.92033-0.33974 1.6561-1.1565 1.1209-0.59066-0.38702-0.48006-1.2229 0.19582-1.4799 0.64528-0.24534 0.25932-0.32608-0.65318-0.13665-0.47543 0.0987-1.0196 0.14051-1.2093 0.09291-0.53346-0.13389-0.89415-1.1646-0.99424-2.841l-0.0866-1.4501-0.99253-0.4917c-0.54589-0.27044-1.188-0.70853-1.427-0.97354l-0.43444-0.48184 0.79445-0.80444c0.43694-0.44244 1.2669-1.0634 1.8443-1.3799 0.57743-0.31653 1.0912-0.70556 1.1416-0.86452s0.31973-0.4965 0.59841-0.75008c0.68847-0.6265 0.73336-0.92698 0.2412-1.6148-0.89699-1.2535-1.4158-3.2064-1.0838-4.0796l0.16681-0.43874 1.1788 0.11853c2.1738 0.21858 2.0883 0.23606 2.1436-0.43822 0.0403-0.49181-0.0321-0.67599-0.42498-1.0814-0.55758-0.57528-0.50667-0.8523 0.23733-1.2913 0.46906-0.27676 0.5208-0.37507 0.5208-0.98963 0-0.37529 0.0694-0.86491 0.15425-1.088 0.14414-0.37913 0.20715-0.40228 0.9623-0.35351 0.79541 0.05137 0.82089 0.03955 1.6286-0.75548l0.82054-0.80766-0.1965-0.9886c-0.23013-1.1578-0.10101-1.4413 0.65782-1.4446 0.81274-0.0036 1.1103-0.15505 1.3687-0.69695 0.28345-0.59441 0.77316-0.68797 1.5313-0.29256 0.48904 0.25506 0.95324 0.29604 1.0774 0.09513 0.0452-0.07314 0.28976-0.17449 0.54346-0.22523 0.54261-0.10852 0.57955-0.35659 0.15644-1.0506-0.16765-0.27498-0.30508-0.7484-0.30539-1.0521l-0.00051-0.5521-1.0761-0.07699c-1.3222-0.0946-1.7616-0.42817-1.9154-1.4542-0.0565-0.37682-0.2311-0.79504-0.38799-0.92937-0.15688-0.13433-0.28524-0.32303-0.28524-0.41934s0.63163-0.49795 1.4036-0.89254c1.2886-0.65863 1.4669-0.70972 2.1759-0.62333l0.7723 0.0941-0.423-0.38453c-0.367-0.3333-0.474-0.3612-0.808-0.2094-0.312 0.1425-0.429 0.1296-0.628-0.0692-0.271-0.2709-0.183-0.6847 0.175-0.822 0.20666-0.0793 0.62868 0.20025 1.6572 1.0977 0.53052 0.46293 0.71325 0.1786 0.63776-0.99238-0.0586-0.90866-0.0285-1.0934 0.19814-1.2147 0.31072-0.16629 0.79379 0.04638 0.79379 0.34945 0 0.10879-0.13743 0.32216-0.30539 0.47417-0.20106 0.18195-0.30309 0.46393-0.29865 0.82533l0.007 0.54895 0.29589-0.56014c0.33524-0.63462 1.2907-1.4617 2.2422-1.941 0.83971-0.42294 0.96044-0.40928 0.96044 0.10873 0 0.31866 0.1557 0.55766 0.59139 0.90778 0.33167 0.26654 0.62573 0.65492 0.66959 0.88437 0.11798 0.61718-0.15755 1.4044-0.65944 1.884-0.51266 0.48992-0.56522 0.74548-0.18162 0.883 0.14697 0.05269 0.65728 0.49889 1.134 0.99157l0.86679 0.89578-0.4087 0.24711c-0.22479 0.13591-0.61484 0.39186-0.86679 0.56879-0.32962 0.23146-0.71506 0.32772-1.3743 0.34323-0.5039 0.01185-1.0303 0.02903-1.1698 0.03817-0.14065 0.0092-0.40137 0.32188-0.5854 0.70205-0.26417 0.54569-0.48486 0.75564-1.0825 1.0298-0.6628 0.30407-0.75069 0.39962-0.75069 0.8161 0 0.25944 0.0451 0.51684 0.10029 0.57201 0.0552 0.05516 0.43454-0.21236 0.84307-0.59448 0.88724-0.82991 1.5552-1.1346 2.4874-1.1346 0.67551 0 0.69245 0.01186 0.70895 0.49627 0.009 0.27295 0.004 0.65265-0.0114 0.84379-0.0213 0.26059 0.0857 0.38729 0.42766 0.50649 0.25081 0.08743 0.62632 0.41631 0.83446 0.73084 0.34068 0.5148 0.43302 0.5655 0.92527 0.50803 0.4556-0.05319 0.62737 0.01671 1.0296 0.41896 0.44077 0.44077 0.47543 0.54519 0.39819 1.1996-0.0554 0.46969-0.0117 0.8484 0.12703 1.0985 0.36572 0.6597 0.27648 1.4115-0.23564 1.9851-0.51603 0.57799-0.53948 0.65856-0.25928 0.8911 0.32584 0.27042 0.80813 0.03635 1.074-0.52125 0.21246-0.44552 0.32669-0.52254 0.77502-0.52254 0.37901 0 0.60967 0.10659 0.82611 0.38174 0.3789 0.4817 0.64363 0.4817 1.0962 0 0.65631-0.69861 1.6797-0.34456 1.6797 0.58112 0 0.54583-0.5904 0.93179-1.2154 0.79452-0.45625-0.10021-0.46429-0.0915-0.46429 0.50256 0 0.38378-0.19012 0.98227-0.52063 1.639-0.28635 0.56894-0.48652 1.1233-0.44483 1.232 0.0417 0.10864 0.30212 0.37016 0.57874 0.58114 0.31275 0.23855 0.54169 0.57361 0.60539 0.88602 0.24535 1.2033 0.56201 2.9642 0.5709 3.1746 0.0184 0.43641-0.29781 1.7071-0.46695 1.8762-0.26638 0.26638-0.19951 0.99697 0.13282 1.4511 0.49529 0.67685 0.91883 2.1368 0.91883 3.1671 0 0.91438-0.0156 0.95266-0.42114 1.0338-0.38329 0.07666-0.43856 0.17604-0.61492 1.1057-0.24467 1.2898-0.41084 1.5968-0.86432 1.5968-0.45101 0-1.805-1.0528-2.2625-1.7592-0.36142-0.558-0.65959-0.65329-1.0651-0.34039-0.21093 0.16277-0.78541 1.3071-1.7274 3.4409-0.50923 1.1535-0.0496 1.6235 0.74054 0.7574 0.6304-0.69096 1.0255-0.88524 1.8332-0.90145 0.77342-0.01553 1.9716 0.50925 3.0941 1.3551 0.96493 0.72714 2.5503 2.4493 2.4316 2.6414-0.051 0.0825-0.47956 0.10376-0.99842 0.04953-1.0527-0.11003-1.0466-0.12226-0.68975 1.3951 0.34323 1.4592 0.13414 1.5031-1.275 0.26736-1.7042-1.4944-2.0093-1.714-2.3814-1.714-0.22294 0-0.3958 0.11358-0.45454 0.29869-0.0521 0.16428-0.30971 0.47952-0.57238 0.70054-0.48083 0.40459-1.138 0.46118-1.8271 0.15731-0.20082-0.08855-0.30999 0.0062-0.48233 0.41867-0.12251 0.29322-0.35351 0.57463-0.51334 0.62536-0.15981 0.05073-2.5478 0.11812-5.3066 0.14977l-5.016 0.05754-0.35716-0.35716c-0.19644-0.19644-0.35716-0.50572-0.35716-0.68731 0-0.27361-0.0588-0.31105-0.34357-0.21865-0.18896 0.06132-0.60332 0.14546-0.92079 0.18698-0.51101 0.06683-0.63682 0.01231-1.0968-0.47543-0.28578-0.30301-0.64817-0.55092-0.80534-0.55092-0.34468 0-1.4558 0.68689-2.7472 1.6983-1.0978 0.85977-1.4154 0.93263-1.4165 0.32494zm11.453-0.64896c0.40777-0.40777 0.40373-0.91618-0.007-0.91618-0.4561 0-1.112 0.74776-0.89029 1.0149 0.24092 0.29029 0.54162 0.25721 0.89758-0.09876zm-2.5942-0.15585c0.19802-0.36999 0.0817-0.60763-0.29739-0.60763-0.42907 0-0.7035 0.40312-0.46778 0.68714 0.26375 0.3178 0.56954 0.28603 0.76517-0.0795zm1.2862-0.13018c0.12479-0.2413 0.18381-0.4818 0.13117-0.53444-0.20406-0.20406-0.64909-0.08027-0.87599 0.24366-0.34063 0.48633-0.29392 0.72951 0.14012 0.72951 0.26166 0 0.44758-0.13489 0.6047-0.43873zm2.8611 0.18602c0.28954-0.26203 0.37306-0.74016 0.15304-0.87614-0.39349-0.2432-1.4024 0.60294-1.1691 0.98047 0.1435 0.23218 0.70826 0.17419 1.016-0.10433zm1.3699-0.20369c0.4546-0.4546 0.47026-0.76518 0.0386-0.76518-0.2983 0-0.97658 0.68454-0.97658 0.98559 0 0.37787 0.44404 0.27353 0.93798-0.22042zm1.2834 0.05236c0.47131-0.50855 0.4722-0.66484 0.004-0.66484-0.21794 0-0.5002 0.16468-0.68506 0.39969-0.56391 0.71689 0.0435 0.9533 0.68127 0.26515zm1.2992 0.12243c0.36466-0.29528 0.3326-0.78727-0.0513-0.78727-0.28178 0-0.87342 0.57292-0.87342 0.84578 0 0.3108 0.50838 0.27863 0.92473-0.05851zm1.2704-0.05776c0.27262-0.43495-0.12087-0.70484-0.51181-0.35104-0.16995 0.1538-0.309 0.37684-0.309 0.49564 0 0.29694 0.61158 0.18919 0.82081-0.14461zm-15.636-0.947 1.485-0.982-0.015-0.659c-0.0112-0.49913 0.0872-0.79268 0.40503-1.2082 0.23092-0.30187 0.41985-0.67161 0.41985-0.82164 0-0.40038-0.87805-0.21885-2.2087 0.45664-1.2789 0.64918-3.1622 1.9095-3.2508 2.1755-0.0454 0.1363 0.19362 0.18903 0.85689 0.18903 0.50595 0 0.95608 0.05855 1.0003 0.13011 0.0442 0.07156-0.0548 0.3953-0.22003 0.71943-0.64764 1.2703-0.392 1.2704 1.5275 0.000611zm22.705 0.60998c-0.2211-0.5762-0.41697-1.5006-0.33525-1.5824 0.0502-0.05024 0.39833-0.07247 0.77352-0.0494 1.0109 0.06216 0.88535-0.24776-0.58115-1.4349-1.2684-1.0268-2.4172-1.5998-3.2079-1.6-0.62349-0.000152-0.66054 0.36144-0.12056 1.1767 0.35195 0.53136 0.45495 0.82967 0.38944 1.1279-0.0776 0.35333-0.005 0.45644 0.56782 0.80115 0.36129 0.2176 1.0005 0.70457 1.4204 1.0822 0.76018 0.68357 1.2555 0.90039 1.0937 0.47878zm-18.51-0.539c0.34146-0.16569 0.9427-0.59726 1.3361-0.95903 0.68719-0.63195 0.71218-0.68457 0.6364-1.3402-0.0434-0.37536-0.10543-0.76836-0.13787-0.87334-0.11706-0.37879-0.66545-0.17365-2.1002 0.78563-0.80329 0.53708-1.5428 1.0039-1.6434 1.0375-0.41241 0.13747 0.54519 1.6508 1.0446 1.6508 0.13399 0 0.52299-0.13557 0.86444-0.30126zm14.45-0.51c0.39655-0.64561 0.32946-0.85989-0.34122-1.0899-0.30828-0.1057-0.92671-0.50201-1.3743-0.88069-0.44758-0.37868-0.96904-0.76934-1.1588-0.86814-0.3074-0.16006-0.36149-0.13628-0.49627 0.21819-0.0832 0.21881-0.15125 0.46548-0.15125 0.54817s-0.1006 0.34488-0.22355 0.58264c-0.2223 0.42988-0.21864 0.43616 0.65169 1.1199 1.0106 0.794 2.0998 1.2278 2.5195 1.0035 0.15147-0.08096 0.40987-0.36613 0.57422-0.63372zm-15.835-1.643c0.4373-0.34398 0.52962-0.91477 0.19312-1.194-0.16467-0.13666-0.2889-0.06749-0.58344 0.32487-0.54154 0.72139-0.61059 0.86255-0.50528 1.0329 0.1471 0.23801 0.4568 0.18138 0.8956-0.16378zm5.2346 0.09018c0.50441-0.10122 1.0945-0.61652 0.91334-0.79764-0.13124-0.13123-1.779 0.20282-1.9769 0.40079-0.22661 0.22662 0.0105 0.65454 0.31519 0.56873 0.14738-0.04151 0.48417-0.11886 0.74841-0.17188zm6.0547 0.12988c0.21517-0.21516-0.23482-0.65083-0.90973-0.88079-1.1613-0.3957-1.6021-0.28361-1.006 0.25584 0.61944 0.56059 1.6454 0.89528 1.9157 0.62495zm4.9746-0.10992c0.13159-0.15855 0.065-0.35305-0.28765-0.83984-0.48844-0.67427-0.63218-0.74642-0.88187-0.44262-0.34626 0.42127-0.26551 0.77835 0.25659 1.1347 0.60361 0.41196 0.68301 0.42482 0.91293 0.14778zm-4.3448-0.74802c0.0387-0.18896 0.10156-0.95197 0.1397-1.6956 0.0605-1.18 0.0325-1.3888-0.22014-1.6415-0.5784-0.5784-1.7009-0.27422-2.7708 0.75086-0.60764 0.58216-0.7728 1.0548-0.3054 0.87401 0.58289-0.2255 1.0741-0.2588 1.1844-0.0803 0.15221 0.24628-0.19621 0.45117-0.77216 0.45407-0.51623 0.0026-0.8322 0.23778-0.8322 0.61942 0 0.20459 0.16121 0.24855 0.87801 0.23939 0.66186-0.0085 1.066 0.08615 1.6415 0.38432 0.97254 0.50385 0.97339 0.50393 1.0571 0.09531zm-7.165-0.186c0.33594-0.12102 0.9737-0.22306 1.4172-0.22675 0.58695-0.0049 0.83145-0.07184 0.89829-0.24601 0.12793-0.33338-0.14056-0.55379-0.80643-0.66203-0.31231-0.05076-0.59971-0.1879-0.63865-0.30474-0.0561-0.1683 0.0767-0.19582 0.63883-0.13246 0.39031 0.04399 0.75012 0.01451 0.79959-0.06553 0.23206-0.37548-1.2509-1.3558-2.3502-1.5536-0.38388-0.06909-0.57411-0.01524-0.82208 0.23274-0.28924 0.28924-0.31404 0.44302-0.23956 1.4856 0.0829 1.1603 0.2082 1.6995 0.39402 1.6951 0.054-0.0012 0.37304-0.10132 0.70897-0.22234zm3.186-0.424c0.12312-0.45944 0.12067-1.2608-0.004-1.3857-0.0553-0.05526-0.19268-0.02394-0.30539 0.0696-0.2846 0.2362-0.27918 1.6597 0.006 1.6597 0.11618 0 0.25267-0.15461 0.30331-0.34357zm-10.136-1.7159c0.39493-0.47586-0.27507-1.0886-0.71227-0.65143-0.18342 0.18342-0.19583 0.29992-0.0591 0.55532 0.20242 0.37822 0.5059 0.41603 0.77141 0.09611zm1.981-0.98387c0.22432-0.41914-0.19657-0.84004-0.61572-0.61572-0.28809 0.15418-0.39587 0.60583-0.19299 0.80871 0.20287 0.20288 0.65453 0.09509 0.80871-0.19299zm18.878-1.1334c-0.0543-0.28942-0.19826-0.60883-0.31992-0.7098-0.18072-0.14998-0.25582-0.10759-0.41039 0.23165-0.17283 0.37933-0.15183 0.44735 0.24286 0.78686 0.51994 0.44723 0.61765 0.38534 0.48745-0.30871zm-21.28 0.03496c0.14851-0.07948 0.26977-0.26235 0.26946-0.40636-0.00051-0.33412-0.55718-1.2544-0.75848-1.2544-0.20259 0-1.089 1.7658-0.95416 1.9006 0.12319 0.12319 1.0538-0.0315 1.4432-0.23989zm6.229-0.37276c0.22969-0.60414 0.18398-0.9829-0.1183-0.98026-0.56414 0.0049-0.69863 0.22434-0.50226 0.81936 0.21479 0.65079 0.41461 0.7026 0.62056 0.1609zm1.0507 0.10246c0.42428-0.32619 0.47664-1.0385 0.11436-1.5557l-0.22598-0.32262-0.18808 0.35144c-0.10345 0.19329-0.27502 0.681-0.38128 1.0838-0.17366 0.65832-0.16757 0.73201 0.0602 0.72896 0.13937-0.0019 0.41871-0.13049 0.62077-0.28582zm-8.7018-0.66162c0.21626-0.38736 0.3465-0.75099 0.28942-0.80807-0.0571-0.05708-0.38326-0.05656-0.72485 0.0012-0.52008 0.0878-0.62108 0.16314-0.62108 0.46325 0 0.53212 0.2818 1.1751 0.48529 1.1072 0.0979-0.03264 0.35496-0.37627 0.57122-0.76363zm3.0546-0.05526c0.25839-0.21743 0.46981-0.45099 0.46981-0.51902 0-0.19506-1.1288-0.73258-1.6541-0.78769-0.26183-0.02746-0.47694 0.01787-0.47802 0.10073-0.007 0.5315 0.65153 1.6013 0.9856 1.6013 0.11381 0 0.41834-0.17789 0.67674-0.39532zm18.769 0.0064c0.25302-0.55531 0.21996-0.89933-0.11559-1.203-0.36211-0.3277-0.98359-0.26068-1.055 0.11377-0.0548 0.28716 0.6441 1.4782 0.86735 1.4782 0.0693 0 0.20577-0.17502 0.30323-0.38893zm1.7042-0.06379c0-0.48342-0.45337-0.86194-0.85006-0.70972-0.16944 0.06502-0.18115 0.17277-0.0549 0.50492 0.29308 0.77086 0.90493 0.90933 0.90493 0.2048zm-14.094-0.57799c-0.12983-0.64653-0.41029-1.3123-0.51057-1.212-0.0911 0.09111 0.40895 1.6319 0.52962 1.6319 0.0359 0 0.0273-0.18896-0.019-0.41992zm9.0605-0.04794c0.20057-0.37476-0.0359-0.75373-0.4703-0.75373-0.34397 0-1.2456 0.7424-1.1296 0.9301 0.0472 0.07633 0.3885 0.13878 0.75852 0.13878 0.52342 0 0.71019-0.06996 0.84142-0.31516zm-10.778-0.01454c0.35029-0.15961 0.69115-0.87193 0.69394-1.4502 0.002-0.28414-0.60635-0.04721-0.85593 0.3337-0.12448 0.18998-0.36056 0.38051-0.52461 0.42342-0.16573 0.04334-0.29828 0.20876-0.29828 0.37224 0 0.52922 0.30761 0.62943 0.98488 0.32084zm7.5662-0.0098c0-0.30258-1.8562-1.9883-2.0147-1.8297-0.0773 0.07729-0.11942 0.50829-0.0936 0.95778 0.0415 0.72349 0.0907 0.82937 0.42866 0.92277 0.66327 0.18332 1.6797 0.15255 1.6797-0.05085zm-4.7978-0.60029c0.25274-0.48874 0.21874-0.57165-0.7575-1.8469-0.28324-0.37001-0.53007-0.33392-0.63727 0.09318-0.11047 0.44016 0.76054 2.4603 0.99762 2.3138 0.0869-0.05373 0.26566-0.30574 0.39715-0.56002zm6.4836 0.14758c0.41548-0.30717 0.60995-0.73189 0.33739-0.73686-0.063-0.0012-0.26791-0.0432-0.45537-0.09345-0.26897-0.0721-0.37272-0.0075-0.49198 0.30615-0.13527 0.35577-0.0815 0.85826 0.0919 0.85826 0.0364 0 0.26956-0.15035 0.5181-0.33411zm3.3777-0.15148c0.23845-0.26708 0.43354-0.52819 0.43354-0.58025 0-0.18918-0.37291-0.46113-0.63232-0.46113-0.33632 0-0.40188 0.11108-0.52685 0.89258-0.12634 0.79009 0.10985 0.83853 0.72563 0.14881zm3.5739 0.31669c0.0574-0.0929-0.11032-0.38361-0.37273-0.64603l-0.47713-0.47712v0.48574c0 0.60471 0.5945 1.0506 0.84986 0.63741zm-23.258-0.31549c0.30949-0.15883 0.35511-0.42527 0.0763-0.44595-0.58447-0.04336-1.5836 0.0556-1.7 0.16839-0.0741 0.07185-0.0931 0.23942-0.042 0.37237 0.0735 0.19156 0.22825 0.22104 0.74559 0.14202 0.35905-0.05484 0.77308-0.16142 0.92005-0.23684zm12.178-0.79661c0-0.73363-0.0725-1.065-0.29225-1.3361-0.16074-0.19827-0.32652-0.32613-0.36841-0.28414-0.0419 0.04199-0.20129 0.54652-0.35424 1.1212-0.27234 1.0233-0.27202 1.0493 0.0158 1.2598 0.16167 0.11821 0.45258 0.21492 0.64649 0.21492 0.33149 0 0.35256-0.05829 0.35256-0.97562zm2.9361 0.60728c0.10128-0.52978-0.12996-2.0505-0.35258-2.3188-0.11124-0.13404-0.28931-0.18405-0.432-0.12132-0.13352 0.0587-0.54648 0.14772-0.91769 0.19782-0.37121 0.05011-0.70443 0.18029-0.74048 0.2893-0.0597 0.18052 2.0348 2.3213 2.2711 2.3213 0.0557 0 0.13289-0.16575 0.17162-0.36833zm-10.959-0.65994c-0.004-0.43504-0.0503-0.83517-0.10437-0.88918-0.23999-0.24-0.4239 0.17003-0.4239 0.94512 0 0.7205 0.0386 0.8343 0.26722 0.78853 0.21423-0.04289 0.266-0.21033 0.26105-0.84448zm14.589 0.35543c0-0.45201-0.0417-0.50924-0.31831-0.4369-0.40306 0.1054-0.5348 0.43602-0.29086 0.72995 0.33287 0.40109 0.60917 0.26817 0.60917-0.29304zm3.2677 0.25083c-0.008-0.10383-0.0278-0.4121-0.043-0.68505-0.0263-0.47066-0.0393-0.48097-0.25195-0.19986-0.3282 0.43392-0.29925 1.1911 0.043 1.1252 0.14697-0.02831 0.26035-0.13641 0.25195-0.24024zm1.7713-0.25519c0-0.9004-0.22962-1.2798-0.84434-1.3951-0.8759-0.16432-0.90219 0.0899-0.10808 1.0452 0.39786 0.4786 0.77491 0.87114 0.8379 0.87232 0.063 0.0012 0.11452-0.23388 0.11452-0.52236zm-21.524-0.70983c0.41105-0.80572 0.3743-1.0271-0.0974-0.58648-0.44548 0.41617-0.85736 1.1271-0.72796 1.2565 0.18133 0.18133 0.53923-0.10921 0.82532-0.67001zm4.0432 0.46063c0.067-0.21109-0.0326-0.51631-0.30088-0.92163-0.62026-0.93728-0.94261-0.46179-0.46381 0.68415 0.25606 0.61283 0.6106 0.72294 0.76469 0.23748zm15.023-0.16527c0.32035-0.91894 0.10171-1.4505-0.4146-1.0079-0.14168 0.12144-0.37785 0.26344-0.52482 0.31556-0.35448 0.12571-0.3384 0.49126 0.0382 0.86784 0.43298 0.43298 0.70778 0.37948 0.90124-0.17548zm-10.38-1.0505 0.21307-0.96044-0.55665-0.51013c-0.76398-0.70014-1.0429-0.66344-1.3451 0.17697-0.24662 0.68582-0.24623 0.68845 0.20858 1.4125 0.70839 1.1276 0.91383 1.3246 1.1067 1.0608 0.0882-0.12057 0.25619-0.65142 0.37338-1.1797zm-11.011 0.88436c0.0455-0.23956-0.6508-1.016-0.92171-1.0279-0.15027-0.0066-0.57653 0.83718-0.57653 1.1412 0 0.3686 1.4272 0.26064 1.4982-0.11333zm18.381-1.4801c-0.0907-2.1639-0.6209-2.2267-0.75425-0.08927l-0.0827 1.3248 0.44221-0.05047 0.44221-0.05047-0.0475-1.1346zm-19.75 0.41231c0.28519-0.45043 0.29145-0.51622 0.0721-0.75857-0.28912-0.31948-0.64196-0.17648-1.0315 0.41808-0.32507 0.49613-0.21349 0.8337 0.27559 0.8337 0.25245 0 0.47164-0.15809 0.68382-0.49321zm2.472-0.26407c0.42219-0.36087 0.4708-0.45314 0.24131-0.45809-0.38096-0.0082-1.3414 0.59254-1.2315 0.77032 0.15148 0.24511 0.44732 0.15183 0.99023-0.31223zm6.951 0.13184c0.16377-0.26499-0.34799-0.70002-0.56647-0.48154-0.13535 0.13534-0.13114 0.23415 0.0176 0.41337 0.23034 0.27755 0.40598 0.29936 0.54887 0.06817zm12.385-0.07316c0.15865-0.41343-0.8446-2.2743-1.0925-2.0264-0.0677 0.06771 0.21194 1.0728 0.5139 1.847 0.18215 0.46702 0.43782 0.5463 0.5786 0.17941zm-23.007-0.407c0-0.08518-0.10128-0.06864-0.22905 0.0374-0.12598 0.10455-0.22905 0.2588-0.22905 0.34279 0 0.08518 0.10128 0.06864 0.22905-0.0374 0.12598-0.10455 0.22905-0.2588 0.22905-0.34279zm7.9035 0.19092c1.1881-0.72439 1.4839-2.3341 0.64247-3.4957-0.51775-0.71473-0.94991-0.93338-1.8448-0.93338-0.7266 0-1.2736 0.2631-1.8859 0.90707-0.39499 0.41542-0.45349 0.59118-0.4581 1.3762-0.006 1.0092 0.26649 1.5133 1.1384 2.1068 0.65085 0.44297 1.717 0.46024 2.4079 0.039zm17.902 0.07552c0-0.12598-0.14847-0.37752-0.32993-0.55898l-0.32993-0.32993-0.28086 0.34685c-0.45178 0.55792-0.36056 0.77111 0.32993 0.77111 0.44113 0 0.61079-0.06363 0.61079-0.22905zm-7.0177-0.87801c0.52175-1.1029 0.55398-1.3362 0.18451-1.3358-0.15028 0.000153-0.45651 0.2999-0.69976 0.68492-0.33444 0.52937-0.40961 0.78905-0.33144 1.145 0.0556 0.25317 0.16728 0.46031 0.24815 0.46031 0.0809 0 0.35022-0.42946 0.59854-0.95436zm-19.704 0.57262c0-0.12598-0.10307-0.22905-0.22905-0.22905-0.12597 0-0.22904 0.10307-0.22904 0.22905s0.10307 0.22905 0.22904 0.22905c0.12598 0 0.22905-0.10307 0.22905-0.22905zm17.713-0.07219c0.48283-0.12783 0.56334-0.60383 0.18182-1.075-0.28945-0.35746-0.29433-0.35794-1.1143-0.10838-0.45295 0.13786-1.0812 0.29544-1.3962 0.35018-0.6579 0.11435-0.70868 0.28276-0.23672 0.78514 0.30624 0.32598 0.41746 0.34834 1.2598 0.25332 0.50812-0.05732 1.0956-0.1497 1.3056-0.20528zm-7.0241-0.14052c0-0.18733-0.4302-0.33771-0.5254-0.18366-0.0424 0.0686-0.0331 0.16867 0.0206 0.22238 0.14553 0.14552 0.50484 0.11797 0.50484-0.03871zm-9.7504-0.45614c0.18392-0.17658-0.16349-0.78177-0.44878-0.78177-0.34472 0-1.0172 0.68026-0.88457 0.89483 0.0955 0.15452 1.1476 0.06532 1.3334-0.11305zm0.77025-0.60465c0.0817-0.55686 0.001-0.78792-0.27555-0.78792-0.31188 0-0.40326 0.33555-0.22154 0.8135 0.2018 0.53078 0.41706 0.5197 0.49709-0.02559zm2.8199 0.02161c0.66629-0.25568-0.367-0.5891-1.3244-0.42735-0.64234 0.10852-0.84546 0.27377-0.67517 0.5493 0.0987 0.15969 1.4861 0.07507 1.9996-0.12195zm11.569-0.0974c0.32921-0.09933 0.62475-0.25918 0.65676-0.35523 0.0706-0.21182-1.4772-0.96902-1.9712-0.96433-0.81864 0.0078-2.0718 0.84825-1.7479 1.1722 0.31775 0.31774 2.1977 0.40819 3.0623 0.14733zm9.8612-0.07561c0-0.3017-1.3185-1.2473-1.7392-1.2473-0.40875 0-0.28176 0.24786 0.46275 0.90321 0.75959 0.66862 1.2764 0.80794 1.2764 0.34409zm-13.81-0.25186c0.25678-0.19592 0.26579-0.24691 0.0674-0.38146-0.24812-0.16825-1.5139-0.05037-1.7434 0.16235-0.14066 0.13041-0.003 0.20927 0.59815 0.34225 0.57312 0.12682 0.78145 0.10302 1.0779-0.12314zm10.756-0.51135c0.20996-0.149 0.53891-0.5839 0.73099-0.96645 0.29555-0.5886 0.32728-0.79328 0.20641-1.3313-0.20281-0.90264-0.56073-1.3754-1.2929-1.7079-0.81875-0.37174-1.2308-0.3684-2.0258 0.01646-0.724 0.35048-0.91334 0.64605-0.58722 0.9167 0.30945 0.25682 0.27237 0.89718-0.086 1.485-0.16765 0.27498-0.30482 0.6228-0.30482 0.77295 0 0.30525 0.74044 0.90965 1.3544 1.1056 0.55595 0.1774 1.5477 0.03342 2.0049-0.29106zm-4.6858-0.30157c0.22567-0.23555 0.41031-0.47254 0.41031-0.52664s-0.37935-0.21794-0.84301-0.3641c-0.83075-0.26187-0.85322-0.26078-1.5454 0.07553-0.38633 0.1877-0.66273 0.38096-0.61421 0.42948 0.20025 0.20025 1.5751 0.79079 1.867 0.80196 0.17325 0.0066 0.49964-0.18068 0.72531-0.41623zm-4.4324-0.22069c0.2739-0.2053 0.56141-1.9479 0.32099-1.9456-0.0746 0.000764-0.39322 0.24556-0.70816 0.54406-0.54296 0.51462-0.75991 1.2015-0.47082 1.4906 0.16196 0.16196 0.58112 0.11844 0.85799-0.08907zm-10.045-0.34908c-0.54094-0.24769-0.83984-0.27743-0.83984-0.08356 0 0.19138 0.29371 0.29408 0.83984 0.29366l0.45809-0.000305-0.45809-0.20976zm7.8258-0.24246c0.35332-0.12979 0.47153-0.64745 0.18788-0.82275-0.4131-0.25532-1.837 0.6115-1.6094 0.97976 0.0975 0.15769 0.76576 0.08388 1.4215-0.157zm3.7644-0.17194c0.1217-0.18896 0.26554-0.58622 0.31965-0.88281 0.0792-0.43404 0.035-0.59663-0.22669-0.83342-0.54683-0.49487-0.83329-0.1573-0.88679 1.045-0.0414 0.93164-0.0199 1.0148 0.26371 1.0148 0.16986 0 0.40842-0.15461 0.53012-0.34357zm3.9509-0.46764c0.0782-0.2362 0.11401-0.45766 0.0796-0.49213-0.085-0.08504-1.0592 0.19819-1.3434 0.3906-0.19789 0.13396-0.18753 0.18669 0.0762 0.38767 0.46491 0.35427 1.0199 0.22056 1.1877-0.28614zm7.3635 0.20042c0-0.17493-0.23082-0.23993-0.97702-0.2751-1.1286-0.0532-1.554 0.17454-0.76161 0.40782 0.76073 0.22397 1.7386 0.14932 1.7386-0.13272zm-21.435-0.11452c-0.287-0.53242-0.92938-1.0216-1.1075-0.84348-0.22906 0.22905-0.0642 0.44826 0.60177 0.79999 0.69643 0.36784 0.67984 0.36642 0.50576 0.04349zm12.238-0.28212c0.77505-0.30214 1.4943-0.61913 1.5984-0.70444 0.27106-0.22222 0.0629-0.46754-0.31324-0.36918-0.17524 0.04583-0.62286-0.05126-0.99471-0.21574-0.8338-0.36883-1.1318-0.37526-1.4432-0.03112-0.24078 0.26606-0.54584 1.8698-0.35567 1.8698 0.0546 0 0.73343-0.2472 1.5085-0.54934zm-3.9252-0.80873c-0.0574-0.0929-0.4117-0.16891-0.78731-0.16891-0.88206 0-1.0538 0.33917-0.42815 0.84542l0.44196 0.3576 0.43894-0.4326c0.24143-0.23793 0.39198-0.50861 0.33456-0.60151zm-3.512 0.11702c0.2709-0.52387 0.27767-0.74402 0.0228-0.74402-0.25525 0-0.72006 0.79118-0.72006 1.2257 0 0.2901 0.0343 0.31023 0.23912 0.14026 0.13151-0.10915 0.33765-0.389 0.45809-0.6219zm-3.5187-0.09224c-0.17824-0.95009-0.51418-1.3661-0.76952-0.95299-0.12075 0.19538 0.50717 1.5228 0.72034 1.5228 0.0975 0 0.11596-0.2138 0.0492-0.5698zm1.7479-0.65178c0-0.20996-0.0581-0.4734-0.12911-0.58542-0.20073-0.31667-0.3258 0.15251-0.21789 0.81743 0.0991 0.61094 0.347 0.44521 0.347-0.23201zm17.281 0.30193c0.68216-0.18948 1.0217-0.54128 0.76757-0.79537-0.13166-0.13167-0.40276-0.06628-1.093 0.26359-0.50482 0.24128-0.91785 0.49477-0.91785 0.56332 0 0.16978 0.57056 0.1553 1.2432-0.03154zm-13.174-0.74501c0.22288-0.6928 0.10237-1.0119-0.32086-0.84946-0.13603 0.0522-0.26874 0.33406-0.30789 0.65397-0.13827 1.1297 0.28579 1.2616 0.62875 0.19549zm1.4705 0.45972c0-0.11682-0.11896-0.28744-0.26436-0.37916-0.20507-0.12936-0.32492-0.10617-0.53444 0.1034-0.23616 0.23622-0.24132 0.28875-0.041 0.4182 0.31601 0.20426 0.83983 0.11541 0.83983-0.14245zm-2.4383-0.18471c0.11376-0.35841-0.11767-0.68529-0.37331-0.52729-0.1833 0.11329-0.22401 0.58646-0.0642 0.74626 0.18303 0.18303 0.33389 0.10753 0.43751-0.21897zm-6.8136-0.2408c1.0341-0.67707 0.71844-1.1597-0.52996-0.81013-0.83836 0.23473-0.91317 0.34027-0.59036 0.83294 0.31438 0.47981 0.35385 0.47901 1.1203-0.02281zm13.909-0.60378c0-0.42826-0.075-0.5504-0.41803-0.68082-0.35584-0.13529-0.45808-0.10949-0.68714 0.17339-0.36822 0.45473-0.34295 0.56347 0.20893 0.89909 0.62332 0.37906 0.89624 0.2598 0.89624-0.39166zm-2.0308 0.21099c0.4837-0.53106 0.70802-1.0403 0.53464-1.2136-0.0826-0.08258-0.38098-0.1611-0.66311-0.17448l-0.51296-0.02433-0.0458 0.87801c-0.0513 0.98434 0.14112 1.134 0.68723 0.53444zm-3.0932-0.1485c0.3244-0.46316 0.29831-0.72951-0.0715-0.72951-0.27922 0-0.60701 0.50011-0.60701 0.92613 0 0.2701 0.44112 0.14227 0.67848-0.19662zm6.4983 0.11033c0-0.12598-0.10307-0.22905-0.22904-0.22905-0.23845 0-0.30295 0.1806-0.12725 0.35629 0.1757 0.1757 0.35629 0.1112 0.35629-0.12725zm4.7029-0.50994c0.4559-0.36919 0.64245-0.62852 0.61078-0.84907-0.0825-0.57488-0.49101-0.40912-1.0763 0.43678-0.9043 1.307-0.77772 1.4191 0.46551 0.4123zm-13.356 0.22167c0.3285-0.26876 0.42012-0.45986 0.38174-0.79617-0.0426-0.37284-0.12713-0.44995-0.53711-0.48966-0.44725-0.04331-0.49968-0.000079-0.64811 0.53444-0.32791 1.1808-0.0449 1.4455 0.80348 0.75139zm4.0342 0.01683c0.10498-0.08123 0.19087-0.38392 0.19087-0.67265 0-0.51325-0.0128-0.5239-0.57261-0.47757-0.54585 0.04518-0.5749 0.07522-0.62136 0.64264-0.0662 0.80861 0.34508 1.0167 1.0031 0.50758zm-8.322-0.21825c0.57766-0.10923 0.5522-0.61495-0.0626-1.2438-0.65267-0.66756-0.93174-0.57878-1.0867 0.34574-0.15981 0.95323-0.0618 1.2275 0.38773 1.0854 0.18795-0.05937 0.53068-0.14368 0.76164-0.18735zm3.1728-0.36614c0.24644-0.91521 0.10634-1.1618-0.42382-0.74607-0.89652 0.70307-1.03 1.3729-0.27351 1.3729 0.48968 0 0.54096-0.04609 0.69733-0.62679zm-6.0426 0.17126c0.70601-0.26842 0.36297-0.71452-0.65942-0.85753-0.73247-0.10245-0.94236 0.15794-0.64801 0.80395 0.1846 0.40516 0.36344 0.41249 1.3074 0.05358zm18.863-0.76169c0.56439-1.1181 0.60141-1.5729 0.12237-1.5038-0.24811 0.03583-0.36667 0.19018-0.44611 0.58076-0.2036 1.0011-0.3036 1.8348-0.22006 1.8348 0.0459 0 0.29063-0.41032 0.5438-0.91183zm-14.79 0.25968c-0.25422-0.25422-0.3982-0.0016-0.16158 0.28346 0.1431 0.17243 0.22587 0.19302 0.26798 0.06668 0.0335-0.10054-0.0144-0.2581-0.1064-0.35013zm13.172 0.25791c0.18283-0.47644 0.10256-1.4381-0.12002-1.4381-0.11699 0-0.25442 0.10869-0.3054 0.24154-0.19223 0.50094-0.0536 1.4381 0.21271 1.4381 0.066 0 0.16174-0.10869 0.21271-0.24154zm-15.881-0.1527c0.17542-0.45716 0.0819-1.0571-0.22161-1.4216-0.38289-0.45977-0.45605-0.38303-0.47371 0.49683-0.0183 0.91376 0.45696 1.5459 0.69532 0.92477zm14.123 0.10289c0.13465-0.08527 0.17762-0.26913 0.11821-0.50583-0.0962-0.38346-0.75558-1.1889-0.97142-1.1866-0.22084 0.0023-0.82202 1.2683-0.67302 1.4173 0.11246 0.11245 0.71259 0.30427 1.2383 0.3958 0.042 0.0073 0.17154-0.047 0.28789-0.12068zm-6.2952-0.51133c0.0528-0.08548-0.0621-0.27473-0.25545-0.42056l-0.3515-0.26514 0.32954-0.4628c0.18124-0.25454 0.32954-0.5593 0.32954-0.67726 0-0.27862-0.44664-0.87838-0.45324-0.60861-0.003 0.10926-0.24535 0.29915-0.5393 0.42197-0.37256 0.15567-0.53444 0.32138-0.53444 0.54711 0 0.43622 0.33468 1.5585 0.49871 1.6723 0.1819 0.12621 0.85894-0.01736 0.97614-0.207zm-4.1449-0.42127c0.1694-0.18719 0.305-0.62714 0.34612-1.123l0.0676-0.81522-0.62757-0.10035c-0.34517-0.05519-0.67924-0.11481-0.74238-0.13247-0.22535-0.06305-0.51818 0.81112-0.42058 1.2555 0.11604 0.52832 0.62961 1.2233 0.90398 1.2233 0.10686 0 0.31963-0.13849 0.47282-0.30776zm-5.881-0.18995c0-0.27247-0.6141-0.62894-0.78649-0.45655-0.0768 0.07684-0.0958 0.25426-0.042 0.39428 0.11318 0.29494 0.82851 0.34869 0.82851 0.06227zm1.1621-0.20235c0.14603-0.58184-0.20722-0.85713-1.0248-0.79863l-0.67179 0.04807 0.61079 0.57189c0.72096 0.67504 0.95166 0.71301 1.0858 0.17868zm11.206-0.12108c0-0.7299-0.31564-0.94955-1.0489-0.72987-0.31959 0.09575-0.71161 0.31832-0.87114 0.4946-0.28502 0.31495-0.28495 0.32424 0.004 0.53576 0.16577 0.12121 0.64856 0.21526 1.105 0.21526h0.81065v-0.51574zm4.9491-0.29209c0.11909-0.1888 0.0696-0.33928-0.20907-0.63593-0.83235-0.886-1.6619-0.06522-0.90573 0.89613 0.29107 0.37002 0.35315 0.38926 0.64055 0.19843 0.17503-0.11622 0.38845-0.3226 0.47425-0.45863zm-9.5569-0.09359c0.0536-0.5602-0.13712-0.77209-0.69847-0.77591-0.29036-0.002-0.34357 0.07926-0.34357 0.52452 0 0.93477 0.95459 1.1651 1.042 0.2514zm-3.9045-0.20564c0.13744-0.10498 0.29518-0.3788 0.35056-0.6085 0.0857-0.35563 0.0402-0.44063-0.30698-0.57262-0.22421-0.08525-0.49843-0.15499-0.60937-0.15499-0.25422 0-0.74751 1.0161-0.63527 1.3086 0.10327 0.26912 0.86201 0.28648 1.2011 0.02749zm18.461-0.18113c0.36719-0.80589-0.29561-1.1533-0.92406-0.4843l-0.34316 0.36528 0.35051 0.24551c0.48532 0.33993 0.71888 0.3077 0.91671-0.12649zm-6.5425-0.3589c0.33485-0.37001 0.74751-1.3861 0.63612-1.5663-0.23103-0.37381-1.642 0.15361-1.8482 0.69084-0.0932 0.24295 0.525 1.126 0.79797 1.1398 0.092 0.0046 0.27831-0.11432 0.4141-0.26436zm-3.8965-0.10221c0.0365-0.03654 0.005-0.3274-0.0707-0.64634-0.14523-0.61408-0.39948-0.75696-1.0544-0.59258-0.44133 0.11077-0.49404 0.60492-0.1213 1.1371 0.20017 0.28578 0.33877 0.33652 0.71418 0.26143 0.25619-0.05124 0.49571-0.12306 0.53226-0.15961zm6.2928-0.18775c0-0.43581-0.52837-1.1169-0.86646-1.1169-0.32354 0-0.23705 0.7833 0.12959 1.1736 0.44454 0.47319 0.73687 0.45071 0.73687-0.05667zm2.7595-0.000458c0.22234-0.5848 0.11559-0.89427-0.29304-0.8495-0.38936 0.04266-1.5784 0.93823-1.4728 1.1092 0.0377 0.06092 0.41569 0.11858 0.84008 0.12814 0.70168 0.01581 0.78561-0.01936 0.92572-0.38786zm-12.298-0.10856c0.2654-0.19406 0.27208-0.25138 0.0728-0.62382-0.19918-0.37216-0.86026-0.84215-1.1846-0.84215-0.0713 0-0.22896 0.25768-0.35039 0.57262s-0.24407 0.62424-0.27251 0.68733c-0.0686 0.1522 0.56157 0.39791 1.0517 0.41005 0.2149 0.0053 0.52225-0.08649 0.68298-0.20402zm4.4616-0.09002c0.27295-0.16642 0.49627-0.34702 0.49627-0.40132 0-0.25983-0.65986-1.1223-0.9224-1.2056-0.50758-0.1611-0.64923 0.06044-0.55381 0.86609 0.13704 1.1571 0.20858 1.2112 0.97994 0.74088zm6.0981-0.02829c0.43095-0.40486 0.45141-0.8889 0.0579-1.3689-0.28082-0.34252-0.30897-0.34728-0.56498-0.09545-0.2718 0.26737-0.35611 1.0384-0.16734 1.5303 0.13305 0.34673 0.24703 0.33558 0.67445-0.06595zm2.7714-0.48098c0.35302-0.37576 0.30424-0.56129-0.14755-0.56129-0.30393 0-0.58767 0.42785-0.481 0.72531 0.0992 0.27664 0.25205 0.23675 0.62855-0.16403zm0.78871 0.04049c0-0.07903-0.0687-0.14368-0.15269-0.14368-0.084 0-0.1527 0.10713-0.1527 0.23806s0.0687 0.19559 0.1527 0.14369 0.15269-0.15903 0.15269-0.23806zm-18.4-0.98352c0-0.88296-0.015-0.91792-0.41435-0.96397-0.52127-0.06011-1.7998 0.49328-1.7998 0.77902 0 0.45358 1.2112 1.2084 1.8324 1.142 0.36024-0.03852 0.38174-0.09243 0.38174-0.95701zm5.3806 0.542c0.10323-0.16529 0.44236-0.34412 0.76205-0.40184 0.68364-0.12344 1.1105-0.32492 1.1105-0.52417 0-0.07932-0.28407-0.28915-0.63128-0.46628l-0.6313-0.32206-0.44526 0.3292c-0.2449 0.18106-0.59138 0.35734-0.76996 0.39173-0.60758 0.11701-0.6613 0.34583-0.19537 0.83216 0.51912 0.54185 0.55807 0.54969 0.80064 0.16127zm4.9147-0.07142c0.27258-0.29014 0.32475-0.47007 0.24353-0.83984-0.12345-0.56207-0.46814-0.61261-1.051-0.15411-0.46977 0.36952-0.48732 0.48075-0.15573 0.98682 0.30957 0.47246 0.52458 0.47405 0.96323 0.0071zm3.2184-0.38175c0-0.38232-0.15418-0.77598-0.30392-0.77598-0.20407 0-0.3022 0.66146-0.12908 0.87006 0.23803 0.28681 0.433 0.24445 0.433-0.09409zm5.3444-0.30887c0-0.21936-0.25003-0.32607-0.52067-0.22222-0.37283 0.14307-0.28822 0.3659 0.13892 0.3659 0.20996 0 0.38175-0.06466 0.38175-0.14368zm-4.7336-0.39076c0-0.23753-0.0865-0.38174-0.22904-0.38174-0.24645 0-0.28299 0.13985-0.13637 0.52195 0.14265 0.37174 0.36541 0.28627 0.36541-0.14021zm-10.242-0.17329c0.4811-0.61161 0.40967-0.81924-0.28182-0.81924-1.0591 0-1.3064 0.25461-0.89194 0.91826 0.26428 0.42319 0.79845 0.37813 1.1738-0.09901zm4.6809-0.54629c-0.12782-0.79937-0.20917-0.88537-0.4831-0.51075-0.43328 0.59255-0.25414 1.043 0.45192 1.1363 0.0737 0.0097 0.0878-0.27174 0.0312-0.62552zm-8.4222-0.61869c0.11467-0.71711-0.0495-0.9003-0.75222-0.83928-0.4123 0.0358-0.46289 0.09809-0.50612 0.62305-0.06 0.729 0.14407 0.98668 0.71512 0.90287 0.38551-0.05658 0.45691-0.14683 0.54322-0.68664zm5.7273-0.52793c0.18233-0.66036 0.12835-0.7344-0.63438-0.86992-0.52072-0.09252-0.57649-0.06787-0.6676 0.29516-0.12552 0.5001 0.0164 1.4041 0.26798 1.7073 0.16826 0.20273 0.23494 0.18196 0.53473-0.16657 0.18837-0.219 0.41305-0.65368 0.49927-0.96595zm7.1859 0.95096c0.91514-0.82819 0.65993-2.5512-0.45215-3.0527-0.6662-0.30042-1.1896-0.23434-1.846 0.23303-0.89466 0.63705-0.95611 1.873-0.13674 2.7501 0.42685 0.45695 0.50834 0.48337 1.2907 0.41849 0.51522-0.04272 0.95347-0.17639 1.1442-0.34896zm-11.181-0.3964c0.0465-0.58146-0.4387-1.5133-0.78791-1.5133-0.27426 0-0.55163 0.78315-0.55163 1.5575v0.59576l0.64897-0.05964c0.61499-0.05652 0.65114-0.0869 0.69057-0.58037zm5.3738 0.32914c0.18444-0.34463 0.20842-0.87996 0.0436-0.97245-0.063-0.03534-0.29306-0.1068-0.51126-0.1588-0.32343-0.07708-0.42923-0.02323-0.57261 0.29147-0.22554 0.49499-0.23228 0.45992 0.1583 0.82379 0.41859 0.38997 0.67934 0.3947 0.88202 0.01599zm-3.2888-0.36477c0.21024-0.15373 0.25175-0.31385 0.17358-0.66971-0.19419-0.88415-1.4604-0.77581-1.4604 0.12495 0 0.72933 0.65512 1.0067 1.2868 0.54476zm4.363-1.0124c0-0.50845-0.34591-1.0892-0.78358-1.3155-0.39806-0.20585-0.43481-0.19394-0.74479 0.24138-0.43099 0.60527-0.34004 0.95086 0.30864 1.1728 0.82286 0.28159 1.2197 0.24946 1.2197-0.09872zm-4.2252-0.5798c0.0376-0.06299 0.0322-0.48305-0.0121-0.93346l-0.0804-0.81894-0.61466 0.08244c-0.6808 0.09131-1.3776 0.53445-1.4544 0.92491-0.0885 0.4499 1.9237 1.1435 2.1616 0.74505zm4.918-0.66691c0.0703-0.22132 0.005-0.42073-0.20604-0.63201-0.55458-0.55458-1.2366 0.07457-0.71069 0.65564 0.35551 0.39284 0.78808 0.38169 0.91673-0.02363zm-1.4081-0.76462c0.5889-0.3033 1.0207-0.78803 1.0207-1.1458 0-0.2758-0.10907-0.36867-0.52449-0.4466-0.52326-0.09816-1.5338 0.13786-1.693 0.39541-0.0837 0.13537 0.61813 1.3688 0.77882 1.3688 0.0465 0 0.23456-0.0773 0.418-0.17178zm-4.3952-0.50757c0.56007-0.23401 0.67541-0.59514 0.37147-1.1631-0.19318-0.36096-1.0873-0.40562-1.3673-0.06829-0.1994 0.24026-0.10136 0.91943 0.18202 1.2609 0.19693 0.23728 0.17314 0.23815 0.81377-0.02953zm2.0183-0.60216c0.37201-0.12556 0.49627-0.25754 0.49627-0.52714 0-0.40594-0.9064-1.398-1.2773-1.398-0.50603 0-0.6993 0.91502-0.38419 1.8189 0.12863 0.36898 0.23249 0.46346 0.41992 0.38196 0.13696-0.05955 0.47234-0.18364 0.74529-0.27576zm4.9168 0.14551c0.10034-0.1209 0.16029-0.41293 0.13323-0.64896l-0.0492-0.42915-0.41992 0.44222c-0.23096 0.24322-0.41992 0.53525-0.41992 0.64896 0 0.2741 0.52503 0.26502 0.75582-0.01307zm-3.294-0.77477c0.45313-0.18933 0.55309-0.31014 0.55309-0.66844 0-0.66661-0.30276-0.82546-0.89123-0.4676-0.59225 0.36017-0.71621 0.62607-0.48943 1.0498 0.20255 0.37848 0.14298 0.37227 0.82757 0.08623zm2.807-0.45729c0.0219-0.25126-0.0261-0.55811-0.10647-0.68189-0.12365-0.19025-0.20653-0.16843-0.53605 0.14114-0.45999 0.43214-0.48234 0.59002-0.12257 0.86606 0.41228 0.31634 0.72064 0.18522 0.76509-0.32532zm1.1818-0.0751c0.0519-0.08398-0.0128-0.1527-0.14369-0.1527-0.13093 0-0.23806 0.06871-0.23806 0.1527 0 0.08398 0.0647 0.1527 0.14369 0.1527 0.079 0 0.18615-0.06871 0.23806-0.1527zm-0.1554-0.84987c0.48621-0.63746 0.42374-0.77635-0.26086-0.58001-0.49359 0.14156-0.68322 0.47285-0.51764 0.90436 0.13262 0.34559 0.33034 0.26322 0.7785-0.32434zm0.8145 0.0469c0.0266-0.23024-0.0112-0.41861-0.084-0.41861-0.22802 0-0.49878 0.35422-0.49878 0.65253 0 0.46559 0.52641 0.25429 0.58276-0.23391zm-2.9759-1.0849c1.2021-0.50228 1.3399-1.9909 0.29462-3.1838-0.2145-0.2448-0.27264-0.2319-0.90012 0.19982-0.90243 0.62089-1.185 1.079-1.0767 1.746 0.10234 0.63064 0.64392 1.4462 0.96036 1.4462 0.12295 0 0.4478-0.0937 0.72187-0.20821zm-0.80833-0.93076c-0.23598-0.28434-0.0825-1.012 0.32184-1.5261 0.46085-0.58587 0.58915-0.4777 0.58915 0.49673 0 1.1245-0.42939 1.6096-0.91099 1.0293zm4.9005-1.1646c0.74246-0.37446 0.83187-0.67841 0.36336-1.2352-0.21048-0.25015-0.3827-0.50553-0.3827-0.56752 0-0.17469-1.037-0.62736-1.4372-0.62736-0.39741 0-1.3992 0.38228-1.5219 0.58073-0.11174 0.18079 0.56901 1.5844 0.91414 1.8848 0.55309 0.48147 1.0564 0.47282 2.0642-0.0355zm-1.8893-1.022c-1.0158-0.58249-0.96612-0.85502 0.13927-0.76335 0.66286 0.05497 0.93124 0.15329 1.1475 0.42041 0.21632 0.26714 0.24172 0.39759 0.10864 0.55795-0.25205 0.3037-0.57855 0.2534-1.3954-0.21501zm-4.395 0.64047c0.83166-0.24698 1.7749-0.76627 2.0972-1.1546 0.24867-0.29963-0.50848-1.5794-1.2706-2.1476-0.68777-0.51282-1.3087-0.54465-2.222-0.11393-1.3869 0.65401-1.5359 0.76878-1.4491 1.1159 0.0451 0.18047 0.15897 0.64756 0.25296 1.038 0.19609 0.81447 0.53877 1.1846 1.2536 1.3539 0.27639 0.06548 0.50722 0.12609 0.51298 0.13469 0.006 0.0086 0.37704-0.09323 0.82509-0.22629zm-0.98363-0.92051c-0.2228-0.22279-0.22383-0.28045-0.0109-0.60542 0.12944-0.19754 0.23534-0.56038 0.23534-0.8063 0-0.5485 0.29982-0.68726 1.0471-0.4846 0.52921 0.14353 1.3961 0.79752 1.3961 1.0532 0 0.20376-0.66472 0.75509-1.117 0.92645-0.62042 0.23507-1.2669 0.20031-1.5506-0.08338zm-1.065-0.96156c-0.14597-0.23618 0.0861-0.62457 0.37323-0.62457 0.2871 0 0.51919 0.38839 0.37322 0.62457-0.0472 0.07641-0.21517 0.13892-0.37322 0.13892-0.15806 0-0.32601-0.06251-0.37323-0.13892zm6.0711-0.19576c1.5358-0.64915 2.2424-1.4208 2.2424-2.4489 0-0.41734-0.14754-0.64716-0.82455-1.2844l-0.82456-0.77615-0.78876 0.45539c-1.3688 0.79027-1.9527 2.0655-1.4531 3.1735 0.36688 0.81359 0.53585 0.76184 0.43002-0.13171-0.1344-1.1348 0.46134-2.1331 0.98921-1.6575 0.14169 0.12764 0.4981 0.25462 0.79204 0.28218 0.42696 0.04003 0.54467 0.12237 0.58529 0.40938 0.0378 0.26704-0.13515 0.53249-0.6737 1.034-0.39851 0.37111-0.88522 0.71506-1.0816 0.76434-0.19635 0.04928-0.357 0.18522-0.357 0.30209 0 0.27624 0.0309 0.27233 0.96422-0.12218zm0.20646-2.9738c-0.20264-0.20264-0.0954-0.50899 0.17815-0.50899 0.36024 0 0.4833 0.12835 0.38033 0.39667-0.0863 0.22498-0.38563 0.28517-0.55848 0.11232z"/>
 </g>
</svg>
