<?xml version="1.0" encoding="UTF-8" standalone="no"?>
<!-- Created with Inkscape (http://www.inkscape.org/) -->
<svg id="svg2" xmlns:rdf="http://www.w3.org/1999/02/22-rdf-syntax-ns#" xmlns="http://www.w3.org/2000/svg" height="45" width="67.5" version="1.1" xmlns:cc="http://creativecommons.org/ns#" xmlns:dc="http://purl.org/dc/elements/1.1/">
 <metadata id="metadata7">
  <rdf:RDF>
   <cc:Work rdf:about="">
    <dc:format>image/svg+xml</dc:format>
    <dc:type rdf:resource="http://purl.org/dc/dcmitype/StillImage"/>
    <dc:title/>
   </cc:Work>
  </rdf:RDF>
 </metadata>
 <g id="g6655">
  <rect id="rect2990" opacity="0" height="45" width="67.5" y="0" x="3.5527e-15"/>
  <path id="path5641" d="m50.609 36.198c-4.7663-1.5882-9.558-1.7606-12.945-0.46615-4.607 1.761-12.014 1.0008-17.205-1.7657-6.2963-3.356-9.0101-8.6559-6.3893-12.48 1.1039-1.611 2.2094-2.2231 4.7493-2.6292 0.96287-0.15397 1.879-0.48745 2.0356-0.74105 0.4443-0.71889-2.8129-3.2634-5.4319-4.2432-6.6988-2.5063-11.97 0.38273-13.512 7.4068-0.16455 0.74921-0.47201 1.3622-0.68324 1.3622-0.41812 0-1.0052-2.5492-0.81739-3.5492 0.0639-0.3407-0.0368-1.8431-0.22425-3.3386-0.41368-3.303-0.2208-3.7183 1.4365-3.0928 1.0539 0.3978 1.4651 0.32268 2.5803-0.4714 1.7268-1.2296 5.431-2.0068 7.9312-1.6642 2.6714 0.36615 6.1632 2.0207 9.3015 4.4075 1.4263 1.0848 2.6733 1.8313 2.7712 1.6591 0.0979-0.17224 0.30315-1.0095 0.45633-1.8605 0.37797-2.1001 2.358-4.3816 4.9382-5.69 3.1297-1.5871 7.8936-1.4705 11.399 0.27916 5.4382 2.7145 8.3009 6.9502 11.377 16.831 1.643 5.2791 3.9272 7.9018 6.8779 7.897 0.93635-0.0014 0.91276-0.06038-0.32602-0.8158-2.0093-1.2253-3.4532-3.1666-4.5637-6.1363l-0.9998-2.6733 1.9991-3.0345c1.0995-1.6689 2.6824-3.4567 3.5174-3.9728 1.2401-0.76644 7.0225-2.6232 8.293-2.6631 0.5348-0.01678 0.3755 1.5228-0.2194 2.1205-0.38093 0.38267-0.51879 1.9178-0.45124 5.0244 0.0535 2.4603-0.12043 5.0658-0.38654 5.7898-0.98645 2.6841-2.215 5.0464-2.6246 5.0464-0.23214 0-0.7165 0.70469-1.0764 1.5659-0.44373 1.062-1.1381 1.7681-2.1576 2.1941-2.1035 0.87893-6.53 0.74302-9.6494-0.29619zm-10.142-5.7272c-1.9032-1.4861-4.5514-3.7076-5.8849-4.9366-2.399-2.2112-3.7589-3.3128-8.042-6.5154-1.6284-1.2175-2.2968-1.504-2.559-1.097-0.72477 1.1245 10.656 10.782 16.511 14.011 3.6607 2.0189 3.6504 1.4077-0.0245-1.4619z"/>
 </g>
</svg>
