<?xml version="1.0" encoding="UTF-8" standalone="no"?>
<!-- Created with Inkscape (http://www.inkscape.org/) -->
<svg id="svg2" xmlns:rdf="http://www.w3.org/1999/02/22-rdf-syntax-ns#" xmlns="http://www.w3.org/2000/svg" height="45" width="67.5" version="1.1" xmlns:cc="http://creativecommons.org/ns#" xmlns:dc="http://purl.org/dc/elements/1.1/">
 <metadata id="metadata7">
  <rdf:RDF>
   <cc:Work rdf:about="">
    <dc:format>image/svg+xml</dc:format>
    <dc:type rdf:resource="http://purl.org/dc/dcmitype/StillImage"/>
    <dc:title/>
   </cc:Work>
  </rdf:RDF>
 </metadata>
 <g id="g6715">
  <rect id="rect2990" opacity="0" height="45" width="67.5" y="0" x="3.5527e-15"/>
  <path id="path5677" d="m58.637 34.35c0-0.14237-0.08182-0.47208-0.18183-0.73269-0.16102-0.41961-0.11262-0.43062 0.42286-0.0962 0.69584 0.43456 0.80505 1.0877 0.18183 1.0877-0.23258 0-0.42286-0.11648-0.42286-0.25885zm-12.525-0.467c-0.66614-0.66614-0.53764-1.7515 0.29918-2.527 1.0812-1.0021 0.56082-1.5006-1.3766-1.3189-0.8139 0.07632-1.5559 0.25631-1.6489 0.39997-0.37626 0.58144-1.7186 1.0671-2.1852 0.79057-0.40845-0.24205-0.38788-0.2971 0.16945-0.45381 0.34886-0.09808 0.6343-0.33347 0.6343-0.52307 0-0.33319-1.144-0.99907-1.7165-0.99907-0.5397 0-1.4579 1.0936-1.2886 1.5347 0.1159 0.30202 0.0015 0.43864-0.36703 0.43864-0.33746 0-0.56866-0.23062-0.62545-0.62386-0.13836-0.9582-1.6169-1.1485-3.121-0.40182-0.98385 0.48848-1.6762 0.58918-3.8759 0.56373-1.473-0.01704-3.055-0.07865-3.5155-0.1369-0.68639-0.08683-0.9051 0.03381-1.2135 0.66932-0.50572 1.0422-1.0261 1.0072-0.81367-0.05472 0.13338-0.66692 0.0546-0.86535-0.40115-1.0099-0.31193-0.099-0.71963-0.05506-0.906 0.09764-0.67612 0.55397-2.7507 0.95265-3.1656 0.60831-0.21312-0.17688-1.0791-0.32781-1.9243-0.3354-0.84525-0.0076-1.693-0.11037-1.884-0.22838-0.19096-0.11801-0.70906-0.11078-1.1513 0.01606-0.4633 0.13287-0.87255 0.11994-0.96555-0.0305-0.08881-0.14362-0.72478-0.26113-1.4134-0.26113-0.6932 0-1.252-0.13324-1.252-0.29854 0-0.1642-0.12686-0.22014-0.28191-0.12432-0.15506 0.09583-0.28191 0.42046-0.28191 0.72141 0 0.64108-0.48955 0.69223-1.2334 0.1289-0.64765-0.49043-0.4147-1.2732 0.3789-1.2732 0.31497 0 0.57267-0.12686 0.57267-0.28191 0-0.56113-1.0468-0.2634-1.9691 0.56006-0.8967 0.801-0.9609 0.817-1.3087 0.32-0.2327-0.332-0.8468-0.576-1.6875-0.671-0.7978-0.09-1.4222-0.329-1.575-0.602-0.1393-0.249-0.4418-0.453-0.6721-0.453-0.32668 0-0.35459 0.11992-0.12695 0.54529 0.44174 0.82537 0.35075 1.4281-0.2156 1.4281-0.80182 0-1.2408-0.57747-0.82492-1.0852 0.2947-0.359 0.2429-0.395-0.3515-0.242-0.7465 0.193-1.981-0.679-1.981-1.4 0-0.20554-0.19029-0.37372-0.42286-0.37372-0.23258 0-0.42286-0.18566-0.42286-0.41258 0.000019645-0.333 0.46654-0.406 2.4112-0.377 2.5752 0.037 3.48-0.327 2.9403-1.184-0.2337-0.37-0.3775-0.36-1.1707 0.088-0.8979 0.507-0.9155 0.505-2.4721-0.289-1.0916-0.558-1.5952-0.991-1.6578-1.427-0.07493-0.52077 0.04425-0.62647 0.70627-0.62647 0.67299 0 0.84802-0.16377 1.1299-1.0571 0.27223-0.86265 0.25899-1.172-0.072-1.6815-0.55279-0.85102-0.50922-1.208 0.14742-1.208 0.51345 0 2.2822 1.5601 3.4887 3.0773 0.34355 0.43199 0.6123 0.55675 0.79837 0.37065 0.3902-0.391-0.15-1.146-1.5652-2.19-0.6647-0.491-1.2011-1.138-1.2554-1.516-0.0887-0.617-0.0276-0.648 0.9319-0.468l1.0267 0.19261-0.18805-1.0024c-0.2406-1.282 0.2907-1.34 1.4252-0.156 0.44564 0.46515 0.91447 0.8457 1.0419 0.8457 0.12739 0 0.14962-0.69772 0.049425-1.5505-0.1256-1.0687-0.083632-1.5505 0.13495-1.5505 0.45324 0 1.733 2.1235 1.7381 2.884 0.003 0.35194 0.12487 0.83017 0.27223 1.0627 0.21141 0.33367 0.37401 0.17076 0.77092-0.77235 0.62877-1.4941 0.92587-1.5229 0.92587-0.08998 0 0.61105 0.11857 1.1842 0.2635 1.2739 0.14491 0.08957 0.7393-0.40639 1.3209-1.1021 0.8307-0.99382 1.1393-1.1969 1.4398-0.94762 0.29131 0.24177 0.56418 0.18293 1.1458-0.24708 0.4199-0.31042 1.2709-0.73691 1.8911-0.9477 0.6202-0.21082 1.3813-0.60222 1.6915-0.86977 0.62954-0.54315 3.3508-1.434 5.9201-1.938 0.9303-0.1825 2.051-0.52377 2.4904-0.7584 0.43947-0.2346 1.7715-0.52555 2.96-0.64655 1.1886-0.121 3.2156-0.48809 4.5046-0.81577 4.372-1.1113 6.023-0.68897 8.304 2.1245 0.7354 0.90712 2.038 2.347 2.8946 3.1998 1.729 1.7212 1.9142 1.6829 2.236-0.46293 0.10024-0.66846 0.31597-1.298 0.4794-1.399 0.43486-0.26876 0.82792 0.48997 0.64838 1.2516-0.23626 1.0024 0.0896 1.6668 1.0534 2.1475 0.48084 0.23987 0.96517 0.43614 1.0762 0.43614 0.11108 0 0.36271-0.57413 0.55918-1.2758 0.40088-1.4318 0.8415-1.9127 0.84802-0.92557 0.0023 0.35801 0.12923 0.8412 0.28191 1.0738 0.24376 0.37132 0.31011 0.37228 0.54433 0.0079 0.22977-0.35745 0.29184-0.34955 0.44784 0.05698 0.09961 0.25957 0.10602 0.59343 0.01425 0.7419-0.30835 0.49891 0.15904 1.1912 0.69037 1.0225 0.71612-0.22729 0.861 0.17266 0.49482 1.3658-0.35992 1.1727-0.16597 1.5714 0.49687 1.0213 0.37699-0.31287 0.49327-0.30789 0.70726 0.03031 0.471 0.74434 0.2518 1.2446-0.8922 2.0363-1.2022 0.83197-1.432 1.8307-0.38273 1.6629 0.30416-0.04864 0.8067-0.08369 1.1168-0.0779 0.3164 0.0059 1.0853-0.55283 1.7521-1.2733 1.3099-1.4152 2.2583-1.4754 1.0742-0.06812-1.0631 1.2634-0.9525 1.8563 0.33953 1.8196 0.86182-0.02451 1.1543-0.19329 1.621-0.93525 0.66091-1.0508 1.5955-1.2796 1.3471-0.32966-0.14652 0.56029-0.07921 0.58606 1.0835 0.41484 1.5418-0.22704 2.8159-0.23483 3.0322-0.01854 0.33714 0.33714-0.69586 0.7043-1.559 0.55413-0.49182-0.08557-0.96615-0.0392-1.054 0.10304-0.30478 0.49314 0.66825 0.94665 1.7996 0.83872 1.2054-0.11495 1.3907 0.05925 1.1884 1.1172-0.10059 0.52622-0.25446 0.63169-0.72472 0.49676-0.32836-0.09421-1.1996-0.24916-1.936-0.34431l-1.339-0.173v1.267c0 1.1722 0.06495 1.2859 0.867 1.5193 0.98445 0.28639 1.13 0.77167 0.27184 0.90615-0.31624 0.04955-0.57498 0.20812-0.57498 0.35239 0 0.46383-1.5218 0.27768-2.4735-0.30257-1.2089-0.73709-1.4732-0.71003-1.4732 0.15085 0 0.85372-0.70504 1.2013-1.4689 0.72423-0.42211-0.26362-0.64095-0.26591-0.94935-0.01-0.25631 0.21271-0.40077 0.226-0.40077 0.03683 0-0.32742-1.5604-1.1828-2.1576-1.1828-0.20875 0-0.37955 0.12686-0.37955 0.28191s-0.38058 0.28191-0.8457 0.28191c-0.71417 0-0.8457 0.10964-0.8457 0.70477 0 0.38762-0.05767 0.70477-0.12814 0.70477-0.12334 0-1.0531-0.79965-2.2978-1.9762-0.69952-0.66124-1.0529-0.70198-1.4926-0.17207-0.2466 0.29714-0.21103 0.58366 0.15071 1.2139 0.59965 1.0448 0.34764 2.2126-0.52817 2.4472-1.1104 0.29755-2.1329 0.19315-2.5906-0.26451zm2.6158-0.55995c0.23781-0.21004-0.32056-0.6885-0.80347-0.6885-0.61164 0-0.96165 0.43006-0.69769 0.85717 0.15154 0.2452 1.161 0.13177 1.5012-0.16869zm5.6041-3.6779c-0.09367-0.09368-0.33682-0.1037-0.54033-0.02226-0.22489 0.08999-0.15809 0.1568 0.17032 0.17032 0.29718 0.01225 0.46368-0.05439 0.37-0.14806zm-15.126-0.47c-0.03487-0.33708-0.42154-0.2718-0.54268 0.09162-0.06202 0.18606 0.03945 0.28755 0.22552 0.22552 0.18606-0.06202 0.32877-0.20474 0.31714-0.31714zm-23.326-0.325c0.08495-0.22123-0.02085-0.54766-0.23499-0.72538-0.21415-0.17772-0.33166-0.47345-0.26116-0.65718s-0.39913-1.0307-1.0436-1.8823c-0.6445-0.85155-1.4732-2.2231-1.8415-3.0479-0.72643-1.6267-1.5598-1.9228-1.7444-0.6197-0.054 0.38166-0.27605 0.94777-0.49334 1.258-0.81802 1.1679-0.24454 2.0037 2.5868 3.7705 0.78727 0.49124 1.6016 1.2111 1.8096 1.5997 0.4188 0.78255 0.98505 0.92347 1.2226 0.30432zm14.283-0.07427c0-0.26209-0.5796-1.6444-1.288-3.0718-1.0799-2.176-1.2962-2.8846-1.339-4.3864-0.05048-1.7683-0.03938-1.7962 0.86512-2.1944 0.50392-0.22179 0.9162-0.54538 0.9162-0.71908 0-0.42678 2.3752-1.5558 3.273-1.5558 1.2258 0 0.61964 0.64049-1.7423 1.8409-1.8073 0.91852-2.2515 1.272-2.3191 1.8457-0.09303 0.78907 2.6835 5.8677 3.2185 5.887 0.17367 0.0062 0.4686-0.59123 0.65542-1.3277 0.4172-1.6447 0.6518-2.115 1.1356-2.2762 0.28096-0.09366 0.33148 0.09275 0.2014 0.74313-0.17053 0.8526-0.15452 0.86737 0.89617 0.82545 0.8631-0.03442 1.333 0.17275 2.4323 1.0725 0.87795 0.71853 1.4046 0.98985 1.4808 0.76275 0.06502-0.19382 0.29793-0.35239 0.51758-0.35239 0.5664 0 0.49465-0.64856-0.16444-1.4865-0.72662-0.92377-0.70826-1.1227 0.14003-1.516 0.61659-0.28596 0.76155-0.23912 1.2238 0.39537 0.69464 0.95362 1.4074 0.61009 0.76582-0.36907-0.64936-0.99105-0.51427-1.5193 0.15808-0.61811 0.77527 1.0391 1.2924 0.99825 0.55057-0.04351-0.32066-0.45032-0.58302-0.95775-0.58302-1.1276 0-0.60959 0.50062-0.28942 1.2593 0.80542 0.8289 1.1961 1.8383 1.9867 2.5365 1.9867 0.66756 0 0.5233-0.68822-0.58951-2.8125-0.56879-1.0858-0.9468-2.1482-0.85215-2.395 0.41648-1.0853 1.0585-0.77242 3.3841 1.6494 2.2913 2.386 3.0008 2.8586 3.0008 1.9986 0-1.1687-1.0968-2.7252-3.7564-5.3308-1.5918-1.5595-3.3211-3.3429-3.8428-3.9631-1.9239-2.2871-3.1437-2.5622-6.8988-1.5559-1.1459 0.30709-2.8245 0.63504-3.7301 0.72878-0.90562 0.09374-2.1451 0.358-2.7544 0.58726-1.0764 0.40503-2.0155 0.62717-5.2351 1.2385-2.2873 0.43426-3.0306 0.7968-3.2254 1.5733-0.28519 1.1363 0.29254 2.6212 2.2327 5.7388 1.0112 1.6249 1.8419 3.0838 1.8461 3.2419 0.01388 0.52775 1.5241 2.0998 3.2344 3.3667 1.837 1.3609 2.3962 1.5508 2.3962 0.81397zm4.7924 0.22913c0-0.36049-0.8289-0.99105-1.0336-0.7863-0.20475 0.20475 0.42579 1.0336 0.7863 1.0336 0.13606 0 0.24739-0.11132 0.24739-0.24739zm2.948-0.01504c0.20848-0.33733-0.32184-0.67157-0.69733-0.4395-0.31528 0.19485-0.10831 0.70193 0.28651 0.70193 0.13675 0 0.32162-0.1181 0.41083-0.26243zm11.148-1.167c0-0.42462-1.049-0.30104-1.5304 0.18028-0.4759 0.4759-0.54873 0.76687-0.26339 1.0522 0.21852 0.21851 1.7938-0.86385 1.7938-1.2325zm7.725 0.2233c0.14203-0.22516 0.17472-0.62701 0.0726-0.89302-0.14364-0.37431-0.37942-0.44106-1.0431-0.29529-0.53257 0.11697-1.0179 0.05524-1.2808-0.16294-1.0102-0.83835-1.245 1.1069-0.25339 2.0986 0.36848 0.36848 0.55176 0.37459 1.3367 0.04454 0.50032-0.21037 1.0258-0.56671 1.1679-0.79185zm4.969 0.21876c0.14752-1.4635-0.4736-1.7499-1.2442-0.57373-0.58756 0.8967-0.57743 0.96787 0.17901 1.2581 0.72745 0.27912 0.98482 0.11378 1.0652-0.6844zm-16.598-0.168c-0.15723-1.0743-0.61343-1.7701-0.94395-1.4395-0.19369 0.19369-0.17662 0.61831 0.0528 1.3135 0.37036 1.1222 1.051 1.2185 0.89115 0.1261zm1.3679-0.11475c0-0.54268-0.12686-0.9867-0.28191-0.9867-0.3126 0-0.39094 1.4884-0.09397 1.7854 0.32446 0.32446 0.37588 0.2152 0.37588-0.79875zm-10.801 0.0885c-0.09002-0.22489-0.15679-0.15808-0.17032 0.17032-0.01223 0.29718 0.05445 0.46368 0.14806 0.37 0.09369-0.09367 0.10369-0.33682 0.02228-0.54033zm-12.015 0.044c0.75562-0.4044 0.70195-0.61772-0.58114-2.3101-0.61954-0.81712-1.1269-1.5655-1.1276-1.663-0.000668-0.0975-0.44522-0.91462-0.9879-1.8158-0.54267-0.9012-0.9867-1.8838-0.9867-2.1837 0-0.79425-1.4318-3.8584-1.8004-3.853-0.52126 0.0077-2.4943 1.2306-2.8144 1.7443-0.38882 0.62401 1.0752 3.4417 2.8263 5.4397 2.3296 2.6579 4.4668 4.8939 4.6966 4.9136 0.12648 0.01088 0.47534-0.11155 0.77527-0.27206zm27.464 0.01596c0.21433-0.34681-0.9882-2.0094-1.3097-1.8107-0.38673 0.23901-0.27043 1.1672 0.20592 1.6436 0.50868 0.50868 0.8598 0.56184 1.1038 0.16713zm1.8361-0.53863c0-0.74457-0.9579-1.8609-1.3753-1.6029-0.35392 0.21874-0.18814 1.152 0.31674 1.783 0.42478 0.53095 1.0586 0.42305 1.0586-0.1802zm6.4312-0.09861c0.05887-0.31084-0.18369-0.61624-0.66287-0.8346-0.64978-0.29605-0.80797-0.27289-1.1284 0.16525-0.57084 0.78067-0.19921 1.3447 0.82042 1.2452 0.56645-0.05526 0.91087-0.25958 0.9708-0.57589zm-50.261-0.16c-0.086827-0.0868-0.31427-0.000179-0.5055 0.19249-0.27634 0.27841-0.24396 0.3108 0.15781 0.15781 0.27802-0.10586 0.43447-0.2635 0.34768-0.35029zm11.357-0.03683c0.0705-0.21143-0.03525-0.31714-0.24667-0.24667-0.2035 0.06784-0.4255 0.28984-0.49333 0.49334-0.0705 0.21143 0.03525 0.31714 0.24667 0.24668 0.2035-0.06784 0.4255-0.28984 0.49334-0.49334zm16.686-0.175c0-0.22342-0.12686-0.40623-0.28191-0.40623s-0.28191 0.2612-0.28191 0.58045 0.12686 0.50205 0.28191 0.40623c0.15505-0.09583 0.28191-0.35703 0.28191-0.58045zm27.345-0.40623c0-0.15505-0.19029-0.28191-0.42286-0.28191-0.23258 0-0.42286 0.12686-0.42286 0.28191s0.19029 0.28191 0.42286 0.28191 0.42286-0.12686 0.42286-0.28191zm-47.219-2.536c0-0.36178-0.1478-0.70705-0.32846-0.76725-0.38561-0.12854-0.7788 0.90795-0.50962 1.3435 0.30546 0.49425 0.83805 0.12808 0.83805-0.57618zm31.433 0.47674c0-0.52951-0.73114-1.4559-0.91057-1.1537-0.21009 0.35386 0.26549 1.5227 0.61956 1.5227 0.16004 0 0.29099-0.16604 0.29099-0.36898zm5.3563-0.33579c0-0.43852-0.15975-0.70477-0.42286-0.70477-0.50751 0-0.55495 0.60088-0.08457 1.0712 0.46662 0.46662 0.50743 0.43714 0.50743-0.36648zm-51.406-0.27c-0.18067-0.47025-1.0307-0.60825-1.0307-0.16725 0 0.29059 0.91365 0.88575 1.0896 0.70979 0.059175-0.05921 0.03255-0.30341-0.059325-0.54268zm4.8898 0.29281c0-0.45016-0.40729-1.0097-0.73494-1.0097-0.405 0-0.5373 0.60715-0.20476 0.93967 0.2053 0.20531 0.93967 0.26005 0.93967 0.07004zm6.757-1.1586c-0.14278-0.61585-0.26457-1.5003-0.27065-1.9654-0.0162-1.2409-0.40295-1.7551-0.96757-1.2864-0.67506 0.56025-0.53688 1.5229 0.44538 3.1031 0.48934 0.7872 0.92632 1.3946 0.9711 1.3498 0.0447-0.04476-0.0354-0.58525-0.17822-1.2011zm40.322-1.8245c0-0.15505-0.05595-0.28191-0.12432-0.28191-0.0684 0-0.20272 0.12686-0.29854 0.28191-0.09583 0.15505-0.0399 0.28191 0.12432 0.28191 0.1642 0 0.29854-0.12686 0.29854-0.28191zm-32.983-0.281c0-0.15505-0.13435-0.28191-0.29855-0.28191-0.16419 0-0.22014 0.12685-0.12431 0.28191 0.09584 0.15505 0.23018 0.28191 0.29854 0.28191 0.0684 0 0.12432-0.12686 0.12432-0.28191zm31.292-1.7081c0-0.61105-0.11274-1.111-0.25054-1.111-0.31255 0-0.68515 1.8817-0.44843 2.2647 0.3364 0.5443 0.69897-0.05412 0.69897-1.1536zm-46.977 0.439c-0.0893-0.232-0.2911-0.422-0.4486-0.422-0.16501 0-0.1376 0.17913 0.06465 0.42286 0.19302 0.23257 0.39486 0.42286 0.44854 0.42286 0.053625 0 0.024525-0.19029-0.06465-0.42286zm44.521-0.14025c-0.0811-0.3101-0.19608-0.56382-0.25552-0.56382-0.05947 0-0.10808 0.25372-0.10808 0.56382s0.11498 0.56382 0.25552 0.56382 0.18917-0.25372 0.10808-0.56382zm1.2339 14.471c-0.32437-0.32437-0.2053-0.65778 0.23492-0.65778 0.23257 0 0.42286 0.19029 0.42286 0.42286 0 0.44022-0.33341 0.5593-0.65779 0.23492zm1.9088-0.12241c-0.22336-0.36141 0.89392-1.5854 1.1832-1.2961 0.24858 0.24857-0.36007 1.6065-0.72005 1.6065-0.14923 0-0.35763-0.13966-0.46312-0.31034zm-19.702-0.23c-0.24282-0.39289 0.65386-1.7155 1.163-1.7155 0.29083 0 0.38289 0.2636 0.31996 0.9162-0.06645 0.6889-0.23911 0.93772-0.69603 1.0028-0.33423 0.04763-0.68836-0.04393-0.78697-0.20347zm2.7987-0.87877c-0.10948-0.17714-0.07912-0.44205 0.06757-0.58867 0.3424-0.3424 1.264 0.0025 1.1247 0.42092-0.14758 0.44329-0.95197 0.55647-1.1922 0.16774zm3.9551 0.0044c0.09739-0.15758 0.29517-0.21352 0.43951-0.12432 0.39102 0.24166 0.3181 0.41083-0.17707 0.41083-0.24172 0-0.35982-0.12892-0.26243-0.28651zm-13.057-0.862c0.0555-0.16668 0.22154-0.30305 0.36883-0.30305s0.31327 0.13637 0.36883 0.30305c0.0555 0.16668-0.11042 0.30305-0.36883 0.30305-0.25842 0-0.4244-0.13637-0.36883-0.30305zm15.862 0.0023c-0.1022-0.16537-0.11812-0.36835-0.0354-0.45109 0.20194-0.20194 0.75172 0.15387 0.75172 0.48649 0 0.36027-0.48669 0.33622-0.71636-0.03539zm-8.4015-0.735c-0.37317-0.37317-0.16592-0.5941 0.67275-0.7172 0.77902-0.11434 1.3723 0.18079 1.0371 0.51597-0.24108 0.24108-1.5195 0.39154-1.7098 0.20122z"/>
 </g>
</svg>
