<?xml version="1.0" encoding="UTF-8" standalone="no"?>
<!-- Created with Inkscape (http://www.inkscape.org/) -->
<svg id="svg2" xmlns:rdf="http://www.w3.org/1999/02/22-rdf-syntax-ns#" xmlns="http://www.w3.org/2000/svg" height="54" width="99" version="1.1" xmlns:cc="http://creativecommons.org/ns#" xmlns:dc="http://purl.org/dc/elements/1.1/">
 <metadata id="metadata7">
  <rdf:RDF>
   <cc:Work rdf:about="">
    <dc:format>image/svg+xml</dc:format>
    <dc:type rdf:resource="http://purl.org/dc/dcmitype/StillImage"/>
    <dc:title/>
   </cc:Work>
  </rdf:RDF>
 </metadata>
 <g id="g25926">
  <rect id="rect2990" opacity="0" height="54" width="99" y="0" x="0"/>
  <path id="path5677" d="m82.683 42.799c0-0.18983-0.10909-0.62944-0.24244-0.97692-0.21469-0.55948-0.15016-0.57416 0.56382-0.12826 0.92779 0.57941 1.0734 1.4503 0.24244 1.4503-0.3101 0-0.56382-0.15531-0.56382-0.34514zm-16.7-0.62141c-0.88819-0.88819-0.71686-2.3353 0.39891-3.3694 1.4416-1.3361 0.74776-2.0008-1.8355-1.7586-1.0852 0.10176-2.0746 0.34175-2.1985 0.5333-0.50168 0.77525-2.2915 1.4228-2.9136 1.0541-0.5446-0.32273-0.51718-0.39614 0.22593-0.60508 0.46515-0.13078 0.84573-0.44463 0.84573-0.69743 0-0.44425-1.5254-1.3321-2.2887-1.3321-0.7196 0-1.9439 1.4581-1.7181 2.0463 0.15454 0.4027 0.0025 0.58486-0.48938 0.58486-0.44995 0-0.75822-0.30749-0.83394-0.83181-0.18448-1.2776-2.1559-1.5314-4.1613-0.53576-1.3118 0.65131-2.2349 0.78557-5.1679 0.75164-1.964-0.02272-4.0733-0.10486-4.6873-0.18254-0.91519-0.11578-1.2068 0.04508-1.618 0.89243-0.67429 1.3896-1.3681 1.343-1.0849-0.07296 0.17784-0.88923 0.0728-1.1538-0.53487-1.3466-0.41591-0.132-0.95951-0.07342-1.208 0.13018-0.90149 0.73863-3.6676 1.2702-4.2208 0.81108-0.28416-0.23584-1.4388-0.43708-2.5658-0.4472-1.127-0.01015-2.2574-0.14716-2.512-0.30451-0.25461-0.15735-0.94541-0.14771-1.5351 0.02141-0.61773 0.17716-1.1634 0.15992-1.2874-0.04067-0.11841-0.1915-0.96637-0.34818-1.8845-0.34818-0.92427 0-1.6693-0.17766-1.6693-0.39806 0-0.21893-0.16915-0.29352-0.37588-0.16576-0.20674 0.12777-0.37588 0.56062-0.37588 0.96188 0 0.85477-0.65273 0.92298-1.6446 0.17186-0.86354-0.65391-0.55294-1.6976 0.5052-1.6976 0.41996 0 0.76356-0.16915 0.76356-0.37588 0-0.74818-1.3958-0.3512-2.6255 0.74675-1.1958 1.0676-1.2814 1.0885-1.7451 0.42634-0.3102-0.44286-1.1291-0.76858-2.25-0.89492-1.0637-0.11989-1.8962-0.43791-2.1-0.80222-0.18579-0.33198-0.58906-0.60359-0.89615-0.60359-0.43557 0-0.47279 0.1599-0.16927 0.72705 0.58899 1.1005 0.46767 1.9041-0.28747 1.9041-1.0691 0-1.6544-0.76996-1.0999-1.447 0.39294-0.4798 0.32384-0.5274-0.46869-0.32291-0.99535 0.25683-2.6413-0.90627-2.6413-1.8665 0-0.27406-0.25372-0.4983-0.56382-0.4983s-0.56382-0.24755-0.56382-0.55011c0-0.44367 0.62203-0.54102 3.2149-0.50316 3.4336 0.05013 4.64-0.4354 3.9204-1.5779-0.31148-0.49452-0.50333-0.48012-1.5609 0.1172-1.1972 0.67618-1.2206 0.67343-3.2961-0.38631-1.4555-0.74315-2.1269-1.321-2.2105-1.9026-0.0999-0.69436 0.059-0.8353 0.9417-0.8353 0.89732 0 1.1307-0.21836 1.5066-1.4095 0.36298-1.1502 0.34532-1.5627-0.096-2.242-0.73706-1.1347-0.67896-1.6107 0.19656-1.6107 0.6846 0 3.0429 2.0802 4.6516 4.1031 0.45807 0.57599 0.8164 0.74234 1.0645 0.4942 0.52028-0.52028-0.19991-1.5278-2.0869-2.9197-0.88625-0.65368-1.6015-1.5174-1.6739-2.0213-0.11815-0.8222-0.0367-0.86304 1.2426-0.62305l1.369 0.25682-0.25074-1.3365c-0.32077-1.7099 0.38763-1.7877 1.9003-0.2089 0.59419 0.6202 1.2193 1.1276 1.3892 1.1276 0.16986 0 0.19949-0.9303 0.0659-2.0673-0.16747-1.4249-0.11151-2.0673 0.17993-2.0673 0.60432 0 2.3107 2.8313 2.3175 3.8453 0.004 0.46926 0.1665 1.1069 0.36297 1.417 0.28188 0.4449 0.49868 0.22768 1.0279-1.0298 0.83836-1.9921 1.2345-2.0306 1.2345-0.11998 0 0.81473 0.1581 1.579 0.35133 1.6985 0.19321 0.11942 0.98574-0.54186 1.7612-1.4695 1.1076-1.3251 1.5191-1.5959 1.9197-1.2635 0.38842 0.32236 0.75224 0.24391 1.5278-0.32944 0.55987-0.4139 1.6945-0.98255 2.5215-1.2636 0.82693-0.2811 1.8418-0.80296 2.2553-1.1597 0.83939-0.7242 4.4677-1.912 7.8935-2.584 1.2404-0.24334 2.7347-0.69836 3.3206-1.0112 0.58596-0.3128 2.362-0.70073 3.9467-0.86207 1.5848-0.16134 4.2875-0.65079 6.0062-1.0877 5.8294-1.4818 8.0307-0.91863 11.072 2.8327 0.98053 1.2095 2.7173 3.1294 3.8595 4.2664 2.3054 2.295 2.5523 2.2439 2.9814-0.61724 0.13366-0.89128 0.4213-1.7307 0.6392-1.8654 0.57982-0.35835 1.1039 0.65329 0.86451 1.6688-0.31502 1.3366 0.11947 2.2224 1.4045 2.8634 0.64112 0.31983 1.2869 0.58152 1.435 0.58152s0.48361-0.76551 0.74557-1.7011c0.53451-1.9091 1.122-2.5503 1.1307-1.2341 0.003 0.47735 0.17231 1.1216 0.37588 1.4317 0.32501 0.49509 0.41348 0.49637 0.72578 0.01052 0.30636-0.4766 0.38912-0.46607 0.59712 0.07597 0.13281 0.34609 0.14136 0.79124 0.01902 0.98921-0.41113 0.66522 0.21205 1.5883 0.92049 1.3634 0.95483-0.30305 1.148 0.23022 0.65976 1.8211-0.47989 1.5636-0.22129 2.0952 0.6625 1.3617 0.50265-0.41716 0.65769-0.41052 0.94302 0.04041 0.628 0.99246 0.33574 1.6595-1.1896 2.7151-1.6029 1.1093-1.9094 2.441-0.51031 2.2172 0.40555-0.06485 1.0756-0.11159 1.4891-0.10386 0.42187 0.0079 1.4471-0.73711 2.3362-1.6977 1.7466-1.887 3.0111-1.9672 1.4323-0.09083-1.4175 1.6846-1.27 2.4751 0.45271 2.4261 1.1491-0.03268 1.5391-0.25772 2.1613-1.247 0.88121-1.4011 2.1273-1.7061 1.7961-0.43955-0.19536 0.74706-0.10562 0.78142 1.4447 0.55312 2.0557-0.30272 3.7546-0.31311 4.043-0.02472 0.44952 0.44952-0.92781 0.93907-2.0787 0.73884-0.65576-0.11409-1.2882-0.05227-1.4054 0.13738-0.40637 0.65752 0.891 1.2622 2.3995 1.1183 1.6072-0.15327 1.8543 0.079 1.5846 1.4896-0.13412 0.70163-0.33928 0.84226-0.96629 0.66235-0.43781-0.12562-1.5995-0.33221-2.5814-0.45908l-1.7854-0.23067v1.6894c0 1.5629 0.0866 1.7146 1.156 2.0257 1.3126 0.38186 1.5067 1.0289 0.36245 1.2082-0.42166 0.06607-0.76665 0.27749-0.76665 0.46985 0 0.61844-2.0291 0.37024-3.298-0.40343-1.6119-0.98279-1.9643-0.94671-1.9643 0.20114 0 1.1383-0.94006 1.6018-1.9586 0.96564-0.56282-0.35149-0.8546-0.35455-1.2658-0.01329-0.34175 0.28362-0.53436 0.30133-0.53436 0.04911 0-0.43656-2.0805-1.5771-2.8768-1.5771-0.27834 0-0.50607 0.16915-0.50607 0.37588s-0.50744 0.37588-1.1276 0.37588c-0.95223 0-1.1276 0.14618-1.1276 0.9397 0 0.51683-0.07688 0.9397-0.17086 0.9397-0.16445 0-1.4041-1.0662-3.0637-2.6349-0.9327-0.88166-1.4039-0.93597-1.9902-0.22943-0.3288 0.39619-0.28138 0.77821 0.20095 1.6186 0.79954 1.3931 0.46352 2.9501-0.70423 3.263-1.4806 0.39674-2.8439 0.25754-3.4541-0.35268zm3.4877-0.7466c0.31708-0.28005-0.42741-0.91801-1.0713-0.91801-0.81552 0-1.2822 0.57341-0.93025 1.1429 0.20205 0.32693 1.548 0.17569 2.0016-0.22492zm7.4721-4.9039c-0.1249-0.1249-0.4491-0.13826-0.72044-0.02968-0.29985 0.11999-0.21079 0.20906 0.2271 0.22709 0.39624 0.01633 0.61824-0.07252 0.49334-0.19742zm-20.168-0.628c-0.04648-0.44944-0.56205-0.3624-0.72357 0.12216-0.08269 0.24808 0.05262 0.3834 0.3007 0.3007 0.24808-0.08269 0.43836-0.27298 0.42286-0.42286zm-31.101-0.43297c0.11326-0.29498-0.0278-0.73022-0.31332-0.96718-0.28553-0.23696-0.44222-0.63127-0.34822-0.87624s-0.53217-1.3743-1.3915-2.5097c-0.85934-1.1354-1.9643-2.9641-2.4554-4.0639-0.96858-2.1689-2.0798-2.5637-2.3259-0.82627-0.072 0.50888-0.36807 1.2637-0.65779 1.6773-1.0907 1.5572-0.32605 2.6716 3.4491 5.0273 1.0497 0.65499 2.1355 1.6148 2.4128 2.133 0.5584 1.0434 1.3134 1.2313 1.6302 0.40576zm19.044-0.09903c0-0.34945-0.7728-2.1925-1.7173-4.0957-1.4399-2.9014-1.7283-3.8461-1.7854-5.8486-0.0673-2.3578-0.0525-2.395 1.1535-2.9259 0.67189-0.29572 1.2216-0.72717 1.2216-0.95877 0-0.56904 3.1669-2.0744 4.364-2.0744 1.6344 0 0.82619 0.85399-2.3231 2.4545-2.4098 1.2247-3.002 1.696-3.0922 2.461-0.12404 1.0521 3.578 7.8236 4.2914 7.8493 0.23156 0.0083 0.6248-0.78831 0.87389-1.7703 0.55627-2.193 0.86907-2.82 1.5142-3.035 0.37461-0.12488 0.44197 0.12366 0.26854 0.99084-0.22737 1.1368-0.20602 1.1565 1.1949 1.1006 1.1508-0.0459 1.7773 0.23033 3.2431 1.43 1.1706 0.95804 1.8728 1.3198 1.9744 1.017 0.0867-0.25842 0.39724-0.46985 0.69011-0.46985 0.7552 0 0.65953-0.86475-0.21926-1.982-0.96883-1.2317-0.94435-1.4969 0.18671-2.0214 0.82212-0.38128 1.0154-0.31883 1.6317 0.52716 0.92619 1.2715 1.8766 0.81346 1.0211-0.4921-0.86582-1.3214-0.6857-2.0257 0.21078-0.82415 1.0337 1.3855 1.7232 1.331 0.73409-0.05802-0.42755-0.60043-0.77736-1.277-0.77736-1.5035 0-0.81279 0.66749-0.3859 1.6791 1.0739 1.1052 1.5948 2.4511 2.649 3.382 2.649 0.89008 0 0.69774-0.91763-0.78602-3.75-0.75839-1.4477-1.2624-2.8643-1.1362-3.1933 0.55531-1.4471 1.4113-1.0299 4.5122 2.1992 3.0551 3.1814 4.0011 3.8115 4.0011 2.6648 0-1.5583-1.4624-3.6336-5.0085-7.1078-2.1224-2.0794-4.4281-4.4572-5.1237-5.2842-2.5652-3.0495-4.1916-3.4163-9.1984-2.0746-1.5279 0.40945-3.766 0.84672-4.9735 0.97171s-2.8601 0.47734-3.6725 0.78302c-1.4352 0.54004-2.6873 0.83623-6.9802 1.6513-3.0497 0.57901-4.0408 1.0624-4.3006 2.0977-0.38025 1.5151 0.39005 3.495 2.9769 7.6517 1.3483 2.1665 2.4559 4.1117 2.4615 4.3226 0.0185 0.70367 2.0322 2.7997 4.3125 4.489 2.4494 1.8145 3.195 2.0678 3.195 1.0853zm6.3899 0.30551c0-0.48066-1.1052-1.3214-1.3782-1.0484s0.56772 1.3782 1.0484 1.3782c0.18142 0 0.32986-0.14843 0.32986-0.32986zm3.9307-0.02005c0.27798-0.44978-0.42912-0.89543-0.92978-0.586-0.42037 0.2598-0.14441 0.93591 0.38201 0.93591 0.18233 0 0.42883-0.15746 0.54777-0.34991zm14.863-1.5551c0-0.56616-1.3987-0.40138-2.0405 0.24038-0.63453 0.63453-0.73164 1.0225-0.35119 1.4029 0.29136 0.29135 2.3917-1.1518 2.3917-1.6433zm10.3 0.29773c0.18937-0.30021 0.23296-0.83602 0.09685-1.1907-0.19152-0.49908-0.50589-0.58808-1.3908-0.39372-0.7101 0.15596-1.3572 0.07365-1.7077-0.21725-1.3469-1.1178-1.66 1.4759-0.33786 2.7981 0.49131 0.49131 0.73568 0.49946 1.7823 0.05939 0.6671-0.28049 1.3678-0.75562 1.5572-1.0558zm6.6254 0.29168c0.1967-1.9513-0.63147-2.3332-1.659-0.76498-0.78341 1.1956-0.76991 1.2905 0.23868 1.6775 0.96994 0.37216 1.3131 0.15171 1.4203-0.91254zm-22.131-0.224c-0.20964-1.4324-0.81791-2.3601-1.2586-1.9194-0.25825 0.25825-0.23549 0.82442 0.0704 1.7513 0.49382 1.4963 1.4013 1.6247 1.1882 0.16814zm1.8239-0.153c0-0.72357-0.16915-1.3156-0.37588-1.3156-0.4168 0-0.52125 1.9846-0.12529 2.3806 0.43262 0.43262 0.50117 0.28694 0.50117-1.065zm-14.402 0.118c-0.12003-0.29985-0.20905-0.21078-0.22709 0.22709-0.01629 0.39624 0.07255 0.61824 0.19742 0.49334 0.12492-0.1249 0.13825-0.4491 0.02969-0.72044zm-16.019 0.05726c1.0075-0.5392 0.93593-0.82363-0.77485-3.0802-0.82605-1.0895-1.5026-2.0874-1.5035-2.2174-0.00089-0.13-0.59363-1.2195-1.3172-2.4211-0.72356-1.2016-1.3156-2.5118-1.3156-2.9116 0-1.059-1.9091-5.1446-2.4006-5.1373-0.69501 0.01027-3.3257 1.6408-3.7526 2.3258-0.51843 0.83202 1.4336 4.589 3.7684 7.2529 3.1061 3.5439 5.9557 6.5252 6.2622 6.5515 0.16864 0.0145 0.63379-0.14874 1.0337-0.36275zm36.619 0.02128c0.28578-0.46241-1.3176-2.6792-1.7463-2.4143-0.51564 0.31868-0.36058 1.5563 0.27456 2.1915 0.67824 0.67824 1.1464 0.74913 1.4717 0.22284zm2.4482-0.71817c0-0.99276-1.2772-2.4812-1.8338-2.1372-0.47189 0.29165-0.25085 1.536 0.42232 2.3774 0.56638 0.70793 1.4115 0.56407 1.4115-0.24027zm8.5749-0.13148c0.0785-0.41446-0.24492-0.82166-0.88383-1.1128-0.86637-0.39474-1.0773-0.36385-1.5045 0.22034-0.76112 1.0409-0.26561 1.7929 1.0939 1.6603 0.75527-0.07368 1.2145-0.34611 1.2944-0.76786zm-67.015-0.214c-0.11577-0.11573-0.41903-0.000238-0.674 0.25665-0.36846 0.37122-0.32528 0.4144 0.21042 0.21042 0.37069-0.14115 0.5793-0.35133 0.46358-0.46706zm15.143-0.0491c0.094-0.28191-0.047-0.42286-0.3289-0.32889-0.27133 0.09045-0.56734 0.38645-0.65778 0.65779-0.094 0.28191 0.047 0.42286 0.32889 0.3289 0.27133-0.09045 0.56734-0.38645 0.65779-0.65779zm22.247-0.23362c0-0.2979-0.16915-0.54164-0.37588-0.54164s-0.37588 0.34827-0.37588 0.77394 0.16915 0.6694 0.37588 0.54164c0.20673-0.12777 0.37588-0.47604 0.37588-0.77394zm36.46-0.54164c0-0.20673-0.25372-0.37588-0.56382-0.37588s-0.56382 0.16915-0.56382 0.37588 0.25372 0.37588 0.56382 0.37588 0.56382-0.16914 0.56382-0.37588zm-62.959-3.382c0-0.48238-0.19707-0.94274-0.43795-1.023-0.51415-0.17138-1.0384 1.2106-0.6795 1.7913 0.40728 0.659 1.1174 0.17077 1.1174-0.76824zm41.911 0.63566c0-0.70602-0.97485-1.9412-1.2141-1.5383-0.28012 0.47181 0.35399 2.0303 0.82608 2.0303 0.21339 0 0.38799-0.22139 0.38799-0.49198zm7.1417-0.44772c0-0.5847-0.213-0.9397-0.56382-0.9397-0.67668 0-0.73993 0.80117-0.11276 1.4283 0.62216 0.62216 0.67658 0.58286 0.67658-0.48864zm-68.541-0.36c-0.2409-0.627-1.3743-0.811-1.3743-0.223 0 0.38745 1.2182 1.181 1.4528 0.94639 0.0789-0.07895 0.0434-0.40455-0.0791-0.72357zm6.5197 0.39041c0-0.60021-0.54306-1.3463-0.97992-1.3463-0.54 0-0.7164 0.80954-0.27301 1.2529 0.27374 0.27375 1.2529 0.34673 1.2529 0.09339zm9.0093-1.5448c-0.19038-0.82113-0.35276-2.0004-0.36087-2.6206-0.0216-1.6545-0.53727-2.3401-1.2901-1.7152-0.90008 0.747-0.71584 2.0306 0.59384 4.1375 0.65246 1.0496 1.2351 1.8595 1.2948 1.7998 0.0596-0.05968-0.0472-0.78034-0.23763-1.6015zm53.763-2.4327c0-0.20673-0.07459-0.37588-0.16576-0.37588-0.09116 0-0.2703 0.16915-0.39806 0.37588-0.12777 0.20673-0.05317 0.37588 0.16576 0.37588 0.21894 0 0.39806-0.16915 0.39806-0.37588zm-43.978-0.375c0-0.20673-0.17913-0.37588-0.39807-0.37588-0.21892 0-0.29352 0.16914-0.16575 0.37588 0.12778 0.20673 0.3069 0.37588 0.39806 0.37588 0.0912 0 0.16576-0.16914 0.16576-0.37588zm41.723-2.2775c0-0.81473-0.15032-1.4813-0.33405-1.4813-0.41674 0-0.91353 2.5089-0.59791 3.0196 0.44854 0.72574 0.93196-0.07216 0.93196-1.5382zm-62.636 0.586c-0.11902-0.3101-0.38812-0.56382-0.59804-0.56382-0.22001 0-0.18347 0.23884 0.0862 0.56382 0.25736 0.3101 0.52648 0.56382 0.59805 0.56382 0.0715 0 0.0327-0.25372-0.0862-0.56382zm59.361-0.187c-0.10813-0.41347-0.26144-0.75176-0.34069-0.75176s-0.1441 0.33829-0.1441 0.75176 0.15331 0.75176 0.34069 0.75176 0.25223-0.33829 0.1441-0.75176zm1.6452 19.295c-0.4325-0.4325-0.27373-0.87705 0.31323-0.87705 0.3101 0 0.56382 0.25372 0.56382 0.56382 0 0.58696-0.44455 0.74573-0.87705 0.31323zm2.5451-0.16321c-0.29782-0.48188 1.1919-2.1139 1.5776-1.7282 0.33144 0.33143-0.48009 2.142-0.96007 2.142-0.19897 0-0.47684-0.18621-0.6175-0.41379zm-26.268-0.306c-0.32376-0.52385 0.87181-2.2874 1.5507-2.2874 0.38777 0 0.51052 0.35147 0.42662 1.2216-0.08858 0.91853-0.31881 1.2503-0.92804 1.3371-0.44564 0.06351-0.91782-0.05857-1.0493-0.27129zm3.7316-1.1717c-0.14598-0.23619-0.1055-0.5894 0.09009-0.78489 0.45653-0.45653 1.6853 0.0034 1.4996 0.56123-0.19677 0.59106-1.2693 0.74196-1.5896 0.22366zm5.2735 0.0058c0.12985-0.2101 0.39356-0.2847 0.58601-0.16576 0.52136 0.32222 0.42414 0.54777-0.2361 0.54777-0.3223 0-0.47976-0.1719-0.34991-0.38201zm-17.41-1.15c0.074-0.22224 0.29538-0.40407 0.49178-0.40407 0.19639 0 0.41769 0.18183 0.49177 0.40407 0.074 0.22224-0.14722 0.40407-0.49177 0.40407-0.34456 0-0.56587-0.18183-0.49178-0.40407zm21.15 0.0031c-0.13627-0.22049-0.1575-0.49114-0.0472-0.60146 0.26925-0.26925 1.0023 0.20516 1.0023 0.64865 0 0.48036-0.64892 0.4483-0.95515-0.04719zm-11.202-0.98c-0.49756-0.49756-0.22123-0.79214 0.897-0.95627 1.0387-0.15245 1.8297 0.24106 1.3828 0.68796-0.32144 0.32144-2.026 0.52205-2.2798 0.2683z"/>
 </g>
</svg>
