<?xml version="1.0" encoding="UTF-8" standalone="no"?>
<!-- Created with Inkscape (http://www.inkscape.org/) -->
<svg id="svg2" xmlns:rdf="http://www.w3.org/1999/02/22-rdf-syntax-ns#" xmlns="http://www.w3.org/2000/svg" height="54" width="99" version="1.1" xmlns:cc="http://creativecommons.org/ns#" xmlns:dc="http://purl.org/dc/elements/1.1/">
 <metadata id="metadata7">
  <rdf:RDF>
   <cc:Work rdf:about="">
    <dc:format>image/svg+xml</dc:format>
    <dc:type rdf:resource="http://purl.org/dc/dcmitype/StillImage"/>
    <dc:title/>
   </cc:Work>
  </rdf:RDF>
 </metadata>
 <g id="g23752">
  <rect id="rect2990" opacity="0" height="54" width="99" y="0" x="0"/>
  <path id="path5729" d="m41.413 48.798c-0.31799-0.43009-0.51978-1.0507-0.5208-1.6015-0.002-1.1947-0.87343-4.7846-1.3304-5.482-0.19967-0.30472-0.40804-1.1463-0.46306-1.8701-0.0577-0.7594-0.30655-1.6502-0.58822-2.106-0.37703-0.61005-0.47189-1.1031-0.41666-2.1657l0.0715-1.3758 4.0334 0.0813c3.3074 0.06666 4.1936 0.01272 4.9232-0.29976 0.48935-0.20958 0.88973-0.48639 0.88973-0.61513 0-0.42684 0.41703-0.24226 0.54326 0.24044 0.0682 0.26099 0.30759 0.47452 0.53185 0.47452 0.32695 0 0.37942-0.14172 0.26476-0.71504-0.0787-0.39327-0.21364-1.562-0.29998-2.5972-0.11254-1.3495-0.25792-1.9209-0.51375-2.019-0.53135-0.2039-0.58687-0.02711-0.3075 0.97899 0.32517 1.171 0.33784 3.2446 0.0186 3.0473-0.1305-0.08065-0.23981-0.64748-0.24293-1.2596-0.008-1.6162-0.37482-2.9539-0.93366-3.4066-0.39319-0.31854-0.65261-0.35014-1.3328-0.16232-0.88628 0.24471-1.2934 0.0766-1.9527-0.80639-0.17052-0.22836-0.58144-0.41521-0.91317-0.41521-0.36422 0-0.86652-0.28195-1.268-0.71178-0.81012-0.86723-1.2901-0.89884-1.8013-0.11863-0.48039 0.73318-1.5053 0.79071-2.1135 0.11863-0.23619-0.26099-0.61769-0.47452-0.84778-0.47452-0.93556 0-1.1689-0.26677-1.1689-1.3362 0-0.89973-0.084-1.0801-0.59315-1.2737-0.60049-0.22831-0.7907-0.79894-0.35589-1.0677 0.36163-0.2235 0.28361-0.86047-0.16631-1.3576-0.48322-0.53395-0.44956-2.0077 0.0587-2.5693 0.1897-0.20961 0.34491-0.60663 0.34491-0.88227 0-0.27563 0.10677-0.56714 0.23726-0.64779s0.23765-0.48733 0.23815-0.90373c0.00049-0.4164 0.22225-1.1202 0.49282-1.564 0.27056-0.44381 0.43948-1.0075 0.37538-1.2526-0.0765-0.29247 0.14154-0.68763 0.63417-1.1494 0.41289-0.38702 0.82359-0.70416 0.91267-0.70476 0.0891-0.000603 0.22973-0.21463 0.31257-0.47562 0.0828-0.26099 0.28205-0.47452 0.44271-0.47452s0.73656-0.42707 1.2798-0.94904c0.54322-0.52197 1.1021-0.94904 1.242-0.94904 0.13988 0 0.62802-0.37368 1.0847-0.83041 0.97128-0.97127 1.0519-0.99631 1.0519-0.32684 0 0.42072 0.0585 0.45498 0.35589 0.20821 0.19574-0.16245 0.35589-0.48275 0.35589-0.71178 0-0.64603 0.57236-0.97136 1.6983-0.9653 0.56663 0.0031 1.3224 0.0036 1.6796 0.0011 0.3994-0.0028 0.74537-0.18385 0.8988-0.47052 0.20097-0.37553 0.42054-0.442 1.1301-0.34217 0.48436 0.06815 1.2847 0.15787 1.7786 0.19937 0.49386 0.0415 1.0224 0.19988 1.1744 0.35196 0.15208 0.15207 0.45214 0.2765 0.6668 0.2765 0.21467 0 0.58355 0.21353 0.81974 0.47452s0.615 0.47452 0.8418 0.47452 0.47382 0.16015 0.54893 0.35589c0.0788 0.20543 0.43347 0.35589 0.83885 0.35589 0.69053 0 1.448 0.51517 1.448 0.98484 0 0.14232 0.2883 0.17584 0.71198 0.08279 0.56172-0.12337 0.7458-0.06476 0.87224 0.27772 0.08814 0.23876 0.581 0.91455 1.0952 1.5018 0.51424 0.58722 1.253 1.6282 1.6416 2.3133 0.38867 0.68509 0.80324 1.2456 0.92128 1.2456s0.21461 0.59468 0.21461 1.3215c0 1.0904 0.12892 1.5089 0.73733 2.3932 0.57936 0.84207 0.70625 1.227 0.59229 1.7969-0.08143 0.40715-0.02869 0.86538 0.12025 1.0448 0.35822 0.43162 0.51657 3.4352 0.22196 4.21-0.13009 0.34216-0.41913 0.62211-0.64231 0.62211s-0.64871 0.22822-0.94563 0.50715c-0.45539 0.42782-0.64336 0.46795-1.2016 0.25652-0.36396-0.13785-1.1001-0.31147-1.6358-0.38584-0.79729-0.11067-1.0556-0.04401-1.4236 0.36738-0.67814 0.75814-2.4945 1.4889-2.7398 1.1022-0.10652-0.1679-0.19532-0.43872-0.19732-0.60184s-0.0623-0.29658-0.13404-0.29658c-0.33031 0-1.5304 0.74899-1.5304 0.95514 0 0.12714-0.24023 0.23551-0.53384 0.24081-0.68079 0.01229-1.9729 1.1118-2.2916 1.95-0.47793 1.2571-0.59172 3.6721-0.20109 4.2683 0.60621 0.9252 2.3496 1.2126 6.2029 1.0226 1.8416-0.0908 3.5432-0.08993 3.7814 0.0019 0.37314 0.14393 0.41026 0.33486 0.26838 1.3804-0.09056 0.66736-0.35082 1.5871-0.57836 2.0438-0.22753 0.45673-0.48789 1.4094-0.57858 2.1171-0.09068 0.70766-0.26116 1.4666-0.37884 1.6864-0.11768 0.21989-0.59235 1.8634-1.0548 3.6522-1.2114 4.6856-0.83067 4.3924-5.7032 4.3923-3.179-0.000072-4.131-0.07388-4.494-0.34843-0.62117-0.4698-2.8251-0.46463-3.217 0.0076-0.20867 0.25144-0.76116 0.35589-1.8825 0.35589-1.4836 0-1.621-0.04583-2.1063-0.70218zm2.5652-0.72139c-0.19574-0.1265-0.51604-0.22999-0.71178-0.22999-0.31634 0-0.31634 0.02555 0 0.22999 0.19574 0.1265 0.51604 0.22999 0.71178 0.22999 0.31635 0 0.31635-0.02555 0-0.22999zm-0.26053-0.80236c0.33315-0.40143 0.19891-2.3308-0.35277-5.0698-0.0956-0.47475-0.2499-0.53384-1.3939-0.53384-0.70752 0-1.3529 0.10765-1.4343 0.23922-0.13857 0.22421 0.34882 2.6967 0.87982 4.4631 0.32277 1.0738 1.7078 1.6163 2.3011 0.90132zm5.3023 0.11919c0.32039-0.05152 0.20846-5.4024-0.11863-5.6712-0.25554-0.20996-1.4118-0.23313-4.287-0.08593l-0.66876 0.03424 0.17093 1.9574c0.094 1.0766 0.1914 2.2243 0.21643 2.5506 0.0703 0.91612 0.0893 0.95306 0.58533 1.1366 0.37485 0.13866 3.3707 0.19589 4.1017 0.07835zm5.6293-0.1404c0.14453-0.17415 0.32342-1.2078 0.39753-2.2971l0.13473-1.9804-0.74553-0.70425c-0.66195-0.6253-0.92421-0.7085-2.3393-0.74212-2.4036-0.05712-2.3966-0.06563-2.3799 2.9296 0.008 1.4026 0.11857 2.6809 0.24609 2.8405 0.33309 0.41709 4.3347 0.37764 4.6864-0.0462zm3.0489-0.54068c0.1395-0.35886 0.4865-1.5409 0.77112-2.6268 0.61738-2.3554 0.44161-2.7843-0.76916-1.8768-0.43514 0.32615-1.0259 0.66424-1.3129 0.7513-0.62104 0.18845-0.73222 0.51108-0.82287 2.388-0.0833 1.7259 0.0742 2.0167 1.0925 2.0167 0.63957 0 0.8353-0.12265 1.0413-0.65247zm-14.712-7.491c0.10399-1.2629-0.2486-1.585-1.7354-1.585-1.4548 0-1.8767 0.34546-1.6383 1.3416 0.27132 1.1338 0.53318 1.2957 1.9728 1.2197l1.3263-0.07002 0.0747-0.90628zm6.1688-0.13787c0.0482-0.67475-0.0357-1.1141-0.23726-1.242-0.17158-0.10881-1.4-0.19946-2.7299-0.20146-2.6352-0.004-2.8354 0.09216-2.7111 1.3012 0.12754 1.2403 0.34027 1.3266 3.0884 1.2534l2.5151-0.06699 0.0747-1.0442zm2.7505 0.96094c0.14583-0.23595-0.89311-1.7106-1.4083-1.9989-0.19415-0.10865-0.45893-0.13209-0.58839-0.05208-0.26252 0.16224-0.32462 1.8472-0.0772 2.0946 0.22986 0.22987 1.927 0.19413 2.0739-0.04367zm2.5932-0.78838c0.3227-0.5116 0.0288-1.1451-0.53121-1.1451-0.57445 0-0.88128 0.84306-0.48195 1.3242 0.33772 0.40694 0.68187 0.3461 1.0132-0.1791zm-2.69-1.1451c0-0.13049-0.16015-0.23726-0.35589-0.23726s-0.35589 0.10677-0.35589 0.23726 0.16015 0.23726 0.35589 0.23726 0.35589-0.10677 0.35589-0.23726zm5.8961-0.88462c1.7699-0.21514 0.59142-0.4932-2.1368-0.50416-1.4152-0.0057-2.573 0.0848-2.573 0.20106 0 0.344 2.8594 0.52801 4.7098 0.3031zm-17.996-0.302c0-0.13049-0.10676-0.23726-0.23726-0.23726-0.13049 0-0.23726 0.10677-0.23726 0.23726s0.10677 0.23726 0.23726 0.23726c0.1305 0 0.23726-0.10677 0.23726-0.23726zm3.3216 0c0-0.13049-0.16015-0.23726-0.35589-0.23726s-0.35589 0.10677-0.35589 0.23726 0.16015 0.23726 0.35589 0.23726 0.35589-0.10677 0.35589-0.23726zm2.0167 0c0.0898-0.14537-0.24934-0.2281-0.87572-0.21361-0.86396 0.01999-0.93046 0.05308-0.42922 0.21361 0.84459 0.27048 1.1378 0.27048 1.3049 0zm14.876-0.04745c-0.22144-0.22144-0.34798-0.22144-0.56943 0-0.22144 0.22144-0.15817 0.28471 0.28471 0.28471 0.44289 0 0.50616-0.06327 0.28471-0.28471zm-3.8145-0.9406c0.28237-0.44546 0.25919-0.58782-0.1647-1.0117-0.38483-0.38484-3.1719-0.52912-4.3131-0.2233-0.71151 0.19068-0.73561 1.2147-0.0347 1.474 0.82618 0.30562 4.2833 0.12256 4.5125-0.23894zm-13.799-0.06923c0.3546-0.42727 0.11965-0.86851-0.36369-0.68304-0.19642 0.07537-0.55622-0.04313-0.79955-0.26333-0.6031-0.5458-2.2316-0.4234-2.3453 0.17628-0.1482 0.78168 0.40744 1.1156 1.8564 1.1156 0.90604 0 1.4619-0.11625 1.6522-0.3455zm6.8158-0.04264c0.0819-0.21348 0.0403-0.56047-0.0926-0.7711-0.36335-0.57602-5.4802-0.5652-5.8445 0.01236-0.18096 0.28688-0.16381 0.4984 0.0625 0.7711 0.46852 0.56454 5.6574 0.55362 5.8746-0.01236zm11.422-0.1709c0.16054-0.84088-0.79464-1.2167-2.49-0.97976-1.0017 0.14002-1.3655 0.53044-1.1114 1.1927 0.11189 0.29157 0.48257 0.35169 1.8288 0.29658 1.4252-0.05834 1.7016-0.13778 1.7726-0.50953zm-10.206-0.193c-0.094-0.63883-0.55914-0.82496-0.75914-0.30378-0.18583 0.48425 0.009 0.81903 0.47656 0.81903 0.23294 0 0.33185-0.18036 0.28258-0.51525zm0.26338-6.8086c0.27399-0.51196 0.11934-0.74298-0.49737-0.74298-0.30581 0-0.43498 0.17615-0.43498 0.59315 0 0.70668 0.5841 0.80054 0.93235 0.14982zm-4.8086-2.7004c-0.0658-0.16312-0.11967-0.02966-0.11967 0.29658 0 0.32623 0.0539 0.45969 0.11967 0.29658 0.0658-0.16312 0.0658-0.43004 0-0.59315zm4.0708 0.23726c-0.0487-0.34307-0.26659-0.56093-0.60966-0.60965-0.62235-0.08839-0.69108 0.24057-0.16099 0.77065 0.53008 0.53008 0.85904 0.46136 0.77065-0.161zm-5.9334-1.189c0.0482-0.25068-0.067-0.41248-0.29385-0.41248-0.20531 0-0.37329 0.04465-0.37329 0.09923s-0.069 0.27894-0.15324 0.49858c-0.11534 0.30056-0.0426 0.37806 0.29384 0.31326 0.24591-0.04736 0.48285-0.27172 0.52654-0.49858zm3.9116 0.31748c1.1537-0.43863 0.94022-1.8651-0.23495-1.5702-0.44071 0.11061-0.60219 0.01587-0.78284-0.45927-0.17155-0.45121-0.39807-0.59862-0.91987-0.59862-0.39824 0-0.7506 0.15203-0.82962 0.35795-0.27169 0.70802 0.54743 1.9669 1.5102 2.3209 0.52549 0.19322 0.62609 0.18916 1.2571-0.05077zm4.3516-0.12736c0.7356-0.51524 1.1372-1.6283 0.80879-2.2419-0.14601-0.27283-0.47526-0.49605-0.73165-0.49605-0.37742 0-0.46618 0.16329-0.46618 0.8577 0 0.85708-0.00042 0.85742-0.5848 0.47452-0.78953-0.51732-1.3876-0.482-1.9268 0.1138-0.44423 0.49086-0.4416 0.504 0.21372 1.0677 0.75931 0.65314 1.9345 0.75122 2.6869 0.22426zm1.8649-0.83986c-0.11479-0.18574-0.25127-0.19952-0.40945-0.04135-0.13049 0.13049-0.15977 0.36263-0.0651 0.51587 0.11479 0.18574 0.25127 0.19952 0.40945 0.04135 0.13049-0.13049 0.15977-0.36263 0.0651-0.51587zm-16.964 0.25667c0-0.48674-0.30767-0.96845-0.61854-0.96845-0.33629 0-0.46035 0.74011-0.17233 1.0281 0.23395 0.23396 0.79087 0.19193 0.79087-0.05968zm3.7962-0.49393c0.77672-0.77672 0.469-2.3726-0.45749-2.3726-0.51974 0-0.74793 0.4688-0.56628 1.1634 0.13186 0.50423-0.24935 0.69552-0.51843 0.26014-0.0806-0.13049-0.30048-0.23726-0.48852-0.23726-0.41725 0-0.45778 0.97551-0.0572 1.3761 0.43927 0.43927 1.5608 0.33732 2.0879-0.18981zm18.458-0.60939c0.58964-0.413 0.49765-0.81418-0.18668-0.81418-0.30882 0-0.46771-0.19943-0.51984-0.65247-0.05958-0.51777-0.19752-0.65247-0.66822-0.65247-0.79892 0-0.92076 0.97527-0.23133 1.8517 0.5795 0.73672 0.86752 0.78467 1.6061 0.26737zm2.6587 0.13486c0-0.13049-0.21354-0.23726-0.47452-0.23726-0.26099 0-0.47452 0.10677-0.47452 0.23726s0.21353 0.23726 0.47452 0.23726 0.47452-0.10677 0.47452-0.23726zm-24.505-1.151c-0.18361-0.21541-0.47437-1.1644-0.64613-2.109-0.33414-1.8373-1.0196-2.908-1.3352-2.0855-0.0873 0.22762 0.0172 0.97222 0.23232 1.6547 0.21512 0.68244 0.39112 1.4027 0.39112 1.6005 0 0.50361 1.1349 1.6751 1.4401 1.4865 0.16908-0.1045 0.14212-0.28406-0.0822-0.54719zm6.5802 0.21789c0.17547-0.28391-0.27086-0.56521-0.58688-0.36989-0.26535 0.16399-0.0911 0.59076 0.24112 0.59076 0.11509 0 0.27069-0.09939 0.34576-0.22087zm6.1953-0.04292c0.14117-0.22841-0.26303-0.67799-0.60955-0.67799-0.0653 0-0.26577 0.0932-0.4456 0.2071-0.41952 0.26571-0.13508 0.73468 0.4456 0.73468 0.24558 0 0.51988-0.1187 0.60955-0.26379zm4.8474-0.09955c0-0.43304-0.57346-0.6992-0.97362-0.45188-0.20561 0.12708-0.16327 0.26456 0.15262 0.49554 0.57099 0.41752 0.821 0.40422 0.821-0.04366zm-7.1646-1.3123c0.0171-1.2018-0.0425-1.4262-0.36195-1.3642-0.58473 0.11343-0.87959 1.2718-0.53531 2.1029 0.48861 1.1796 0.87457 0.86183 0.89726-0.73869zm-1.6057-0.10378c0.0698-0.52197 0.21386-1.0894 0.32009-1.261 0.10623-0.17158 0.12434-0.67873 0.0403-1.127-0.12615-0.6725-0.25746-0.81502-0.75089-0.81502-0.90658 0-1.5202 0.42698-1.8918 1.3164-0.45812 1.0964-0.42287 1.5933 0.16615 2.3421 0.38774 0.49293 0.67117 0.62168 1.2456 0.56583 0.67207-0.06534 0.75588-0.16367 0.87061-1.0213zm7.78 0.18336c0.49543-0.65908 0.22628-2.6628-0.42896-3.1934-0.73292-0.59348-1.8162-0.56008-2.1515 0.06633-0.37359 0.69805-0.0918 1.6387 0.49087 1.6387 0.56855 0 0.59175 0.18399 0.0927 0.73541-0.24376 0.26935-0.31903 0.6004-0.21268 0.93546 0.14172 0.44653 0.28468 0.49909 1.029 0.37831 0.47541-0.07715 1.0066-0.32955 1.1806-0.56089zm-12.711-0.49348c0.64484-0.55378 0.55751-2.202-0.15198-2.8685-0.68041-0.63921-1.9734-0.61151-2.3746 0.05088-0.21461 0.35426-0.14813 0.52353 0.3727 0.94904 0.50764 0.41474 0.60704 0.65521 0.49909 1.2074-0.0976 0.49943-0.0175 0.77536 0.29079 1.0008 0.44001 0.32174 0.65679 0.26777 1.364-0.33961zm9.9056 0.07002c0-1.0394-1.4283-2.3322-2.1107-1.9105-0.33098 0.20456-0.069 0.79962 0.42042 0.95496 0.2207 0.07005 0.59167 0.44968 0.82438 0.84363 0.41585 0.70398 0.86586 0.76214 0.86586 0.11191zm7.0086-0.11936c0.53558-0.20363 0.60905-0.33792 0.47566-0.86941-0.12738-0.50754-0.02936-0.73222 0.50901-1.1668 0.54002-0.43589 0.61866-0.61715 0.41366-0.95351-0.52102-0.85487-0.98809-0.94477-1.6649-0.32045-1.1619 1.0718-1.4521 2.3401-0.74461 3.2544 0.27589 0.35655 0.22707 0.35386 1.0112 0.05575zm5.4866-0.13101c0.17394-0.45329-0.21607-0.88872-0.69631-0.7774-0.26013 0.0603-0.29962 0.22075-0.15148 0.6154 0.23249 0.61934 0.64224 0.69764 0.84779 0.162zm-21.063-2.582c-0.13191-0.14138-0.3127-0.12301-0.48498 0.04926-0.20803 0.20804-0.19636 0.369 0.0482 0.66361 0.29704 0.3579 0.33574 0.35397 0.48498-0.04926 0.0892-0.24102 0.0675-0.53964-0.0482-0.66361zm8.0824 0.23247c0.49722-0.3073 0.25677-1.2739-0.4404-1.7704-1.0217-0.72752-2.4611-0.66488-3.0899 0.13447-0.45822 0.58254-0.64986 1.5102-0.36983 1.7903 0.16961 0.16961 3.5953 0.03401 3.9001-0.15438zm-13.746-0.541c0.002-0.09787 0.10063-0.33123 0.21918-0.51858 0.17783-0.28105 0.28043-0.28678 0.58649-0.03277 0.52583 0.4364 1.0888 0.13999 1.0888-0.57328 0-1.2388-2.1617-1.4184-2.6183-0.21746-0.15093 0.39699-0.14523 0.7584 0.0168 1.061 0.24076 0.44986 0.69993 0.63236 0.7071 0.28104zm24.434-1.1042c0-0.29831-0.2108-0.73315-0.46844-0.96631-0.43866-0.39698-0.50654-0.39897-1.0677-0.0313-0.96601 0.63295-0.68196 1.4152 0.58707 1.6167 0.79201 0.1258 0.94904 0.02336 0.94904-0.61913zm-17.557-0.37866c0-0.13049-0.047-0.23726-0.10462-0.23726-0.0576 0-0.17061 0.10677-0.25127 0.23726-0.0807 0.13049-0.0335 0.23726 0.10463 0.23726 0.13819 0 0.25126-0.10677 0.25126-0.23726zm-1.776-0.48014c0.214-0.34625-0.58104-2.3102-1.0003-2.4711-1.0363-0.39768-1.0345 0.80277 0.004 2.4174 0.23047 0.35845 0.78961 0.38857 0.99657 0.05369zm3.9213-0.25018c0.14513-0.27118 0.20498-0.64652 0.133-0.83409-0.10536-0.27458-0.24761-0.23952-0.73005 0.17996-0.32955 0.28654-0.59918 0.66188-0.59918 0.83409 0 0.49864 0.90599 0.36234 1.1962-0.17996zm8.8471-0.25408c0.3906-0.6241-0.39187-1.6255-1.2701-1.6255-0.64089 0-0.70631 0.07252-0.70631 0.78296 0 0.43063 0.13271 0.91567 0.29491 1.0779 0.39183 0.39183 1.3752 0.2542 1.6815-0.23536zm-6.3772-1.151c0.20204 0 0.36735-0.10677 0.36735-0.23726s-0.1541-0.23726-0.34244-0.23726c-0.4432 0-1.0838 0.91776-1.0718 1.5357 0.007 0.35468 0.0973 0.27849 0.34444-0.29005 0.18433-0.4241 0.50045-0.7711 0.70249-0.7711zm12.431 0.13096c0.05243-0.27048-0.03307-0.38456-0.23726-0.31657-0.17558 0.05847-0.35612 0.29659-0.40121 0.52917-0.05243 0.27048 0.03307 0.38456 0.23726 0.31657 0.17558-0.05847 0.35612-0.29659 0.40121-0.52917zm-17.999-0.665c0.002-0.22836-0.10649-0.41521-0.24108-0.41521-0.34358 0-0.54781 0.63369-0.36106 1.1203 0.1343 0.34999 0.18844 0.35849 0.37764 0.05931 0.12148-0.19208 0.2225-0.53608 0.2245-0.76445zm15.772-0.10607c0.10595-0.42216 0.03293-0.74131-0.22848-0.99863-0.35184-0.34632-0.41296-0.33938-0.7256 0.08237-0.41339 0.55769-0.44214 1.3605-0.06232 1.7403 0.36381 0.36381 0.80881 0.003 1.0164-0.82407zm-7.679-0.144c-0.18784-0.18784-0.25951-0.12628-0.25951 0.22292 0 0.62726 0.3318 0.9602 0.43746 0.43897 0.0448-0.22131-0.0352-0.51916-0.17795-0.66189zm-4.7675-0.73835c0-0.44605-0.0648-0.97989-0.14402-1.1863-0.18208-0.4745-1.3597-0.4946-1.7454-0.0298-0.38593 0.46502-0.11176 0.8408 0.61344 0.8408 0.42369 0 0.58195 0.11908 0.55183 0.41521-0.0667 0.65557-0.0115 0.7711 0.3683 0.7711 0.24693 0 0.35589-0.24828 0.35589-0.81101zm-8.7778-0.46931c-0.35011-0.35012-0.81235 0.20472-0.60859 0.73053 0.15926 0.41098 0.18298 0.40955 0.50691-0.03061 0.2274-0.309 0.26104-0.54056 0.10168-0.69992zm16.37 0.35666c0-0.39126 0.15303-0.74512 0.35589-0.82297 0.47088-0.18069 0.45855-0.86324-0.0156-0.86324-1.1057 0-1.7511 1.3414-1.0046 2.0879 0.45773 0.45773 0.66433 0.33281 0.66433-0.40168zm-11.935-0.01216c0.0812-0.31055 0.3647-0.485 0.86752-0.53384 0.66411-0.0645 0.75533-0.16457 0.82312-0.90295 0.0419-0.45673 0.17538-0.93184 0.29657-1.0558 0.32758-0.33509 0.2671-0.60501-0.13555-0.60501-0.19574 0-0.35589 0.11222-0.35589 0.24937s-0.36304 0.40106-0.80677 0.58646c-1.1056 0.46193-1.5658 0.97677-1.5658 1.7514 0 1.0145 0.64658 1.3908 0.87683 0.51034zm8.6729-0.43935c0.54746-0.47362 0.52776-1.1578-0.0422-1.4628-0.48179-0.25785-1.2035-0.10587-1.2035 0.25345 0 0.42187-0.65957 0.19993-0.78053-0.26264-0.17305-0.66172-0.83667-0.59262-1.1618 0.12098-0.23261 0.51053-0.19383 0.67799 0.27184 1.1737 0.80807 0.86016 2.0402 0.93508 2.9161 0.17732zm-10.843-0.20384c-0.0976-0.38879-0.0504-0.69654 0.1233-0.80389 0.38807-0.23984 0.0556-0.7015-0.50516-0.7015-0.55514 0-0.58861 0.48764-0.0985 1.4353 0.45015 0.87048 0.69008 0.90546 0.4804 0.07004zm16.215-0.74707c0.13684-0.2557 0.14366-0.56611 0.01694-0.7711-0.18192-0.29425-0.26864-0.28661-0.60904 0.0537-0.39833 0.39822-0.31568 1.1454 0.12669 1.1454 0.13 0 0.33943-0.1926 0.46541-0.42799zm1.4485 0.0861c0-0.37787-0.43048-0.73029-0.63825-0.52252-0.19518 0.19518 0.1095 0.8644 0.39354 0.8644 0.13459 0 0.2447-0.15385 0.2447-0.34189zm-4.041-0.654c0.536-0.5749 0.645-1.834 0.199-2.2804-0.636-0.6362-1.557-0.0828-1.239 0.745 0.0671 0.17483-0.043 0.45482-0.24471 0.6222-0.37719 0.31304-0.48865 0.99422-0.20851 1.2743 0.31646 0.31646 1.0208 0.14616 1.4934-0.36108zm-6.322-0.37047c0.61745-1.2423-0.12798-2.4114-1.343-2.1064-0.51576 0.12945-0.62987 0.29419-0.62987 0.90937 0 0.77805 0.77641 1.8495 1.3402 1.8495 0.16964 0 0.45437-0.29361 0.63272-0.65247zm-4.583-0.8902c0-0.19574-0.16015-0.35589-0.35589-0.35589s-0.35589 0.16015-0.35589 0.35589 0.16015 0.35589 0.35589 0.35589 0.35589-0.16015 0.35589-0.35589zm6.1688-0.72578c0-0.3915-0.37498-0.45764-0.59315-0.10463-0.19349 0.31307 0.0902 0.75735 0.37228 0.58302 0.12148-0.07508 0.22087-0.29035 0.22087-0.47839zm-0.49926-1.0334c0.43422-0.27495 0.15839-0.97038-0.38302-0.96572-0.65671 0.0056-1.0998 0.38438-0.9392 0.80283 0.1592 0.41486 0.79967 0.49376 1.3222 0.16289zm3.6665-0.82897c0.30431-1.2868-0.15609-1.6728-0.92978-0.77962-0.67669 0.78118-0.74749 1.5094-0.16144 1.6605 0.70173 0.18089 0.87277 0.04281 1.0912-0.88089z"/>
 </g>
</svg>
