<?xml version="1.0" encoding="UTF-8" standalone="no"?>
<!-- Created with Inkscape (http://www.inkscape.org/) -->
<svg id="svg2" xmlns:rdf="http://www.w3.org/1999/02/22-rdf-syntax-ns#" xmlns="http://www.w3.org/2000/svg" height="45" width="67.5" version="1.1" xmlns:cc="http://creativecommons.org/ns#" xmlns:dc="http://purl.org/dc/elements/1.1/">
 <metadata id="metadata7">
  <rdf:RDF>
   <cc:Work rdf:about="">
    <dc:format>image/svg+xml</dc:format>
    <dc:type rdf:resource="http://purl.org/dc/dcmitype/StillImage"/>
    <dc:title/>
   </cc:Work>
  </rdf:RDF>
 </metadata>
 <g id="g6957">
  <g id="g6895">
   <g id="g6834">
    <g id="g6774">
     <g id="g6715">
      <rect id="rect2990" opacity="0" height="45" width="67.5" y="0" x="3.5527e-15"/>
     </g>
    </g>
   </g>
  </g>
  <path id="path5837" d="m33.789 43.92c-0.27691-0.59891-0.66682-1.1934-0.86645-1.3211-0.19964-0.12772-0.36298-0.33978-0.36298-0.47125s-0.29385-0.87634-0.65299-1.6553c-0.35914-0.77892-0.65316-1.8736-0.65336-2.4326-0.00041-1.1113 0.0159-1.108-1.9281-0.38419-1.2811 0.47701-1.403 0.4763-2.4913-0.0145-0.99426-0.44835-1.3817-0.47297-2.9545-0.18777l-1.8102 0.32825-1.0744-1.1071c-0.74992-0.77274-1.6249-1.2818-2.8976-1.6858-1.5937-0.50589-1.804-0.65596-1.6704-1.1921 0.14011-0.56252-0.48416-1.2661-1.9356-2.1816-0.53565-0.33785 0.0581-1.267 1.2402-1.9406 0.91943-0.52397 1.137-0.79326 0.99707-1.2341-0.13885-0.43751-0.0406-0.56391 0.43796-0.56391 1.5098 0 3.2443-0.66691 3.5028-1.3468 0.24999-0.65753 0.38016-0.68583 3.1546-0.68583 1.5916 0 2.9711-0.12493 3.0654-0.27762 0.21568-0.34896-0.80262-0.99855-2.3152-1.4769-1.9317-0.61089-4.7913-2.6955-4.7913-3.4928 0-0.18618-0.39202-0.78499-0.87115-1.3307-0.47913-0.5457-0.87114-1.166-0.87114-1.3785 0-0.21247-0.24337-0.69794-0.54082-1.0788-1.2678-1.6234-1.0008-3.1109 0.45873-2.556 0.56787 0.2159 0.8639 0.17445 1.2501-0.17503 0.33686-0.30486 0.76008-0.39416 1.2661-0.26716 0.95309 0.23921 0.9828-0.16608 0.15011-2.0485-0.39549-0.89408-0.55006-1.6786-0.43956-2.2311 0.10554-0.52775 0.006-1.1034-0.26218-1.5123-0.23792-0.36312-0.33413-0.75872-0.21378-0.8791 0.12034-0.12038 0.23605-0.82865 0.25712-1.5739 0.0211-0.74527 0.39782-2.3024 0.83722-3.4603 0.67954-1.7908 0.90098-2.1053 1.4823-2.1053 0.50654 0 0.79328 0.26301 1.108 1.0163 0.23355 0.55898 0.5429 1.0163 0.68743 1.0163 0.14455 0 0.61529 0.32668 1.0461 0.72595 0.43082 0.39927 0.95052 0.72595 1.1549 0.72595 0.41788 0 0.91565 0.89615 1.1862 2.1355 0.0995 0.45584 0.38955 1.1472 0.64455 1.5364l0.46365 0.70762 0.68476-0.64329c0.3766-0.35381 0.68475-0.87117 0.68475-1.1497 0-1.8877 1.1946-1.9132 2.1416-0.0457 0.38471 0.75862 0.97493 1.6282 1.3116 1.9325 0.33669 0.30424 0.61216 0.72592 0.61216 0.93704 0 0.21113 0.3127 0.58876 0.69489 0.83918 0.60434 0.39598 0.7429 0.83203 1.0633 3.3461 0.48326 3.7921 0.87296 3.8537 1.2881 0.2037 0.13125-1.1541 0.34666-1.7546 0.69666-1.9419 0.47776-0.2557 1.046-1.8915 1.393-4.0099 0.15665-0.95652 0.30036-1.0499 1.4703-0.9551 0.35935 0.0291 0.65336-0.09 0.65336-0.26473 0-0.17471 0.50798-0.87009 1.1288-1.5453 0.62085-0.6752 1.3834-1.685 1.6945-2.244 0.98867-1.7765 2.1-1.4528 2.1088 0.6142 0.003 0.60431 0.25088 1.3631 0.58521 1.7881 0.3677 0.46746 0.58076 1.178 0.58076 1.9369 0 1.1236 0.0378 1.1783 0.60345 0.87558 0.905-0.48434 1.528-0.1305 1.3087 0.74331-0.10461 0.41683-0.003 1.0719 0.23839 1.539 0.27172 0.52545 0.32698 0.96127 0.15615 1.2316-0.14541 0.23012-0.19445 0.81042-0.10899 1.2895 0.11549 0.64745-0.0659 1.2181-0.70656 2.2224-0.63803 1.0002-0.86194 1.7016-0.86194 2.7001 0 0.74185-0.184 1.6365-0.40889 1.9881-1.0146 1.5865-0.9464 1.6862 1.0201 1.491 2.1275-0.21121 3.4057 0.17103 3.4057 1.0184 0 0.31775 0.26135 0.7176 0.58077 0.88855 1.1333 0.60651 0.62012 1.7931-0.94537 2.186-0.8157 0.20473-0.90185 0.36838-0.80627 1.5317 0.0699 0.85033-0.39831 1.409-1.765 2.1062-0.59798 0.30507-1.175 0.8311-1.2822 1.169-0.25596 0.80645-2.9828 2.01-4.7389 2.0916-0.98682 0.0459-1.3692 0.19006-1.4365 0.54179-0.13214 0.69035 4.3833 4.5295 6.3281 5.3804 3.0291 1.3253 3.0421 1.3356 3.1393 2.5002 0.0674 0.80822-0.0353 1.1303-0.4058 1.2725-1.2785 0.49061-5.5701-2.3757-8.2136-5.4858-1.0561-1.2425-2.0714-2.2591-2.2562-2.2591-0.32211 0-0.40678 0.41177-0.84803 4.1245-0.12584 1.0588-0.39379 1.8344-0.74277 2.1503-0.30026 0.27173-0.54592 0.84819-0.54592 1.281 0 1.2136-2.1988 3.7407-3.2715 3.7599-0.31424 0.006-0.70785-0.41255-1.0163-1.0798zm2.8213-1.6521c0.49909-0.60135 0.26751-2.0248-0.3484-2.1416-0.42394-0.0804-0.50817 0.12374-0.50817 1.2316 0 1.3686 0.25296 1.6373 0.85657 0.90999zm-2.354-3.848c-0.321-0.38679-0.42816-0.36226-0.88566 0.20271-0.8197 1.0123-0.544 2.5288 0.6159 3.3879 0.40554 0.30035 0.47117 0.13204 0.54784-1.4047 0.0547-1.0958-0.0489-1.9098-0.27808-2.1859zm15.726 1.4899c0-0.24899-0.10737-0.38635-0.2386-0.30524-0.13124 0.0811-0.60352-0.0419-1.0495-0.27324-0.44601-0.23139-0.99199-0.42071-1.2133-0.42071s-0.40238-0.1025-0.40238-0.22777c0-0.12528-0.39202-0.45934-0.87114-0.74237-1.0922-0.64515-1.1511-0.13846-0.0726 0.624 1.1572 0.81806 3.054 1.7981 3.4803 1.7981 0.202 0 0.36727-0.20372 0.36727-0.45271zm-11.959-1.376c0.0619-0.31951-0.17435-0.53008-0.72595-0.64683-0.44981-0.0952-1.0592-0.30494-1.3543-0.46607-0.60995-0.3331-0.92858-0.16303-0.62248 0.33226 0.29915 0.48403 1.98 1.4618 2.3204 1.3499 0.15971-0.0525 0.33174-0.30869 0.38227-0.56924zm-3.9907-2.4466c0.41015-1.2428 0.13514-1.6484-0.73223-1.0801-0.60793 0.39833-1.1685 2.2175-0.79761 2.5884 0.29079 0.29079 1.2473-0.65227 1.5298-1.5083zm-3.6511 0.19422c0.47913-0.29353 1.7808-1.454 2.8927-2.5787 2.2765-2.303 2.2731-2.7232-0.0209-2.5775-1.4134 0.0898-1.4218 0.0963-1.8554 1.4529-0.44739 1.3998-1.8448 3.1381-2.5226 3.1381-0.45102 0-0.50683-0.46887-0.0867-0.72852 0.41495-0.25645 1.4478-2.3452 1.4478-2.9279 0-0.4034-0.20843-0.45743-1.2341-0.31988-1.2864 0.1725-1.7483 0.57364-3.5403 3.0745-0.97711 1.3636-1.7597 1.6001-1.5429 0.46623 0.12443-0.65087 0.0436-0.72595-0.78178-0.72595-0.50632 0-1.1742 0.18876-1.4842 0.41946-0.5509 0.40996-0.54662 0.43672 0.18878 1.1814l0.75246 0.76196 1.8085-0.46864c1.9212-0.49784 2.7688-0.40946 3.0479 0.31784 0.21125 0.55052 1.6211 0.31707 2.9309-0.48531zm5.9404-1.0188c-0.48764-0.70875-1.0135-1.2886-1.1686-1.2886-0.50166 0 0.0543 1.5763 0.79526 2.2546 1.1274 1.0321 1.3506 0.45448 0.37331-0.96596zm2.4761 0.17778c0.1801-0.56742-0.46063-2.1422-1.0097-2.4815-0.16085-0.0994-0.29245-0.49971-0.29245-0.88956 0-0.83342-0.19795-0.88248-0.92087-0.22824-0.77362 0.70011-0.65413 1.5767 0.40225 2.9512 1.0227 1.3306 1.5451 1.5166 1.8207 0.64806zm-16.565-1.4968c0.96787-0.17639 2.0521-0.37448 2.4094-0.44018 0.35733-0.0657 0.86968-0.45522 1.1386-0.86559 0.41639-0.63548 0.42771-0.78485 0.0763-1.0073-0.9941-0.62919-4.6231 0.0273-4.6231 0.83633 0 0.12117-0.38303 0.44657-0.85116 0.72311-1.0358 0.61185-1.4945 0.15917-0.71334-0.70398 0.86864-0.95985-0.18166-1.3451-2.3556-0.86402l-0.87115 0.19276 0.79855 0.53223c0.4392 0.29272 0.79855 0.70671 0.79855 0.91998 0 0.95888 1.4026 1.1852 4.193 0.67665zm17.005-1.84c0-0.77472-0.43189-1.2189-0.72464-0.74523-0.23597 0.38182 0.0987 1.454 0.45383 1.454 0.14895 0 0.27081-0.31897 0.27081-0.70882zm4.5085-1.602c-0.18916-0.30608-2.1202-0.59979-2.6377-0.4012-0.23036 0.0884-0.41901 0.31008-0.41923 0.49263-0.00026 0.22084 0.53438 0.29861 1.5976 0.23241 0.8789-0.0547 1.5356-0.20045 1.4594-0.32384zm-22.222 0.004c0-0.99423-3.0871-1.5715-4.1379-0.77376-1.0311 0.78272-0.57213 1.0477 1.8149 1.0477 1.2777 0 2.323-0.12326 2.323-0.27392zm8.4036-0.14061c0.28048-0.33797 0.0637-0.63615-1.1741-1.6145-2.2153-1.7511-3.2915-2.2145-4.8036-2.0684-0.36664 0.0354 2.6655 3.2426 3.5523 3.7574 0.78195 0.45393 2.0184 0.41597 2.4254-0.0745zm-4.3382-0.0662c0-0.52232-1.6172-2.2052-2.6018-2.7075-0.93615-0.47759-1.1696-0.50518-1.447-0.171-0.1819 0.21917-0.65738 0.48047-1.0566 0.58068-0.76088 0.19097-0.70494 0.74593 0.0752 0.74593 0.24898 0 0.89917 0.39202 1.4449 0.87114 0.78557 0.68974 1.2622 0.87114 2.2888 0.87114 0.71314 0 1.2966-0.0857 1.2966-0.19038zm7.5196-0.36551c0.43301-0.27419-0.11445-0.63856-2.368-1.576l-1.0916-0.45411 0.92243 1.1478c0.91345 1.1367 1.7023 1.411 2.5372 0.88232zm4.0956-0.0136c0-0.62043-1.4055-1.5206-3.248-2.0803-2.6959-0.81885-3.4495-0.58839-1.3102 0.40065 0.92671 0.42844 2.0224 1.0444 2.4348 1.3688 0.77256 0.6077 2.1235 0.80541 2.1235 0.31078zm9.0018-0.73039c0-0.21693 0.58162-0.61654 1.2925-0.88803 1.746-0.66679 2.3434-1.3426 1.9072-2.1577-0.36107-0.67467-0.86605-0.62493-2.4737 0.24365l-0.87115 0.47066 0.96137 0.093c1.6292 0.15765 0.87395 0.76318-1.2734 1.021-2.3146 0.27791-3.4278 0.65221-3.1718 1.0665 0.0983 0.15903 0.75131 0.28915 1.4511 0.28915 0.69984 0 1.3545 0.1328 1.4548 0.29512 0.23306 0.37709 0.72304 0.0834 0.72304-0.43343zm-7.0249-0.81681c0.0625-0.73818-0.10414-1.3173-0.55461-1.9266-0.62288-0.84249-2.4825-1.9626-2.7741-1.6709-0.30516 0.30516 0.95919 3.1805 1.7586 3.9993 1.0423 1.0676 1.4545 0.96207 1.5701-0.40184zm2.3398-0.77152c0.41014-1.3689 0.88723-1.7631 1.1087-0.916 0.2137 0.8172 0.52065 0.75543 2.5397-0.51105 1.1808-0.74068 1.8098-1.3502 2.0015-1.9396 0.15372-0.47272 0.54559-1.2392 0.87082-1.7032l0.59131-0.84375-1.1409 0.15514c-0.86024 0.11698-1.498 0.50381-2.5928 1.5726-1.6432 1.6042-3.3505 3.0088-3.6574 3.0088-0.26354 0-0.84356 1.6515-0.84356 2.4019 0 0.91077 0.71713 0.12832 1.1225-1.2248zm-12.706-0.61332c-0.38197-0.3181-0.77378-0.49908-0.87069-0.40217-0.20622 0.20623 0.80751 1.0043 1.2577 0.99019 0.16911-0.005-0.005-0.26992-0.38702-0.58802zm5.508-0.3919c-0.60239-0.72584-2.2534-1.3335-3.6232-1.3335-0.73448 0-1.3354 0.10976-1.3354 0.2439 0 0.2586 1.4165 0.76096 3.3394 1.1843 1.798 0.39585 2.0159 0.3831 1.6193-0.0948zm5.8926-1.1403c0.24033-0.95754-0.21891-2.3416-1.2358-3.7243-0.47989-0.65255-1.0935-1.8891-1.3636-2.7478-0.52807-1.6789-1.1255-2.0298-1.3607-0.79932-0.22895 1.1976 0.3132 2.8058 0.8734 2.5909 0.5442-0.20883 0.93613 0.29844 0.94241 1.2198 0.005 0.71502 1.4818 4.1388 1.7854 4.1388 0.10385 0 0.26536-0.30509 0.35895-0.67797zm-6.0462-2.6614c-0.37374-2.0851-0.94825-3.6298-1.35-3.6298-0.91641 0-0.54286 2.6359 0.63724 4.4967 0.48063 0.75788 0.91961 1.3302 0.97551 1.2718s-0.0623-1.0208-0.26272-2.1388zm8.6555 1.2931c1.5895-0.93782 4.4527-5.5036 3.4513-5.5036-0.12129 0-0.38182 0.25828-0.57896 0.57394-0.19714 0.31567-0.88078 0.84042-1.5192 1.1661-0.83596 0.42648-1.3646 0.99446-1.8893 2.0298-0.66428 1.3109-0.9264 2.3281-0.59993 2.3281 0.0708 0 0.58194-0.26748 1.136-0.5944zm7.6613 0.15816c1.2154-0.24454 1.3239-0.4628 0.77595-1.5612-0.55305-1.1086-0.87093-1.1295-1.9182-0.12613-0.93121 0.89215-1.1377 2.2537-0.30628 2.0196 0.2795-0.0787 0.93135-0.22822 1.4486-0.33229zm-17.826-0.29779c-0.2113-0.55064-1.0352-1.0083-1.8153-1.0083-0.71617 0-2.6424 0.88592-2.6424 1.2153 0 0.13013 1.0413 0.2366 2.3139 0.2366 1.9562 0 2.2876-0.0686 2.1437-0.44364zm4.7208-0.4923c-0.26696-0.36364-0.75549-1.0858-1.0856-1.6049-0.73766-1.1598-1.1236-1.2034-1.1236-0.12692 0 0.8124 1.1078 2.1458 2.0327 2.4466 0.66149 0.21514 0.71128 0.0136 0.17657-0.71477zm-9.7767-0.34028c0.54934-0.19849 1.0484-0.50969 1.109-0.69157 0.23787-0.71361-3.4135-1.6425-3.8269-0.97354-0.0859 0.13908-0.56225 0.33407-1.0584 0.4333-1.1403 0.22805-0.99047 0.79694 0.33111 1.2575 1.2566 0.43792 2.1812 0.43102 3.4452-0.0257zm13.578-2.7381c-0.0828-1.3379-0.32372-1.9884-1.2803-3.456-0.64811-0.99433-1.2692-2.292-1.3802-2.8837-0.27785-1.4811-0.72629-0.71705-0.73214 1.2473-0.004 1.2445 0.0799 1.4855 0.50372 1.4519 0.40459-0.0321 0.52378 0.22602 0.58475 1.2664 0.0421 0.71869 0.14008 1.5907 0.2177 1.9377 0.187 0.83611 1.5734 2.4646 1.9172 2.252 0.14912-0.0922 0.22525-0.9092 0.16922-1.8157zm-10.366 1.2562c0-0.0796-0.62069-1.2581-1.3793-2.6188-1.3625-2.444-1.3987-2.4798-2.9764-2.9368-0.8784-0.25447-2.2204-0.73294-2.9822-1.0633-1.0806-0.46855-1.462-0.52365-1.735-0.25062-0.27301 0.27302-0.26001 0.492 0.0591 0.99607 0.22502 0.35536 0.58761 0.99932 0.80574 1.431 0.64449 1.2754 3.2731 3.2304 3.7297 2.7738 0.23522-0.23522-0.57673-1.7161-1.2996-2.3703-0.64215-0.58114-0.79382-1.0432-0.34239-1.0432 0.57832 0 2.0194 1.5122 2.5824 2.71 0.58849 1.252 1.441 2.0275 2.5337 2.3051 0.84911 0.21569 1.0042 0.22605 1.0042 0.0671zm-6.899-0.775c0.2795-0.14324 0.50817-0.3688 0.50817-0.50124 0-0.13245-0.96613-0.70584-2.147-1.2742-2.5414-1.2232-3.1297-1.837-1.5088-1.574 1.1958 0.19406 1.1934 0.21283 0.17119-1.3148-0.66619-0.99557-0.80962-1.0701-1.7423-0.90522-0.55899 0.0988-1.0586 0.21553-1.1104 0.25935-0.0517 0.0438 0.11164 0.47735 0.36298 0.96339 0.25135 0.48604 0.45698 1.0652 0.45698 1.287 0 0.22183 0.45735 0.81951 1.0163 1.3282 0.55898 0.50866 1.0163 1.043 1.0163 1.1874 0 0.14443 0.20546 0.46806 0.45658 0.71917 0.45965 0.45966 1.4101 0.39361 2.5198-0.1751zm11.206-2.2338c0.37807-1.2619 0.45083-3.239 0.11857-3.2218-0.11978 0.006-0.51921 0.63156-0.88762 1.3897-0.54356 1.1185-0.61334 1.527-0.37017 2.1666 0.41243 1.0848 0.74312 0.98768 1.1392-0.33443zm10.077-0.47455c0.87146-0.87844 1.585-1.7605 1.5857-1.9601 0.00068-0.1996 0.39214-0.95093 0.8699-1.6696 0.6309-0.94907 0.869-1.6531 0.86991-2.5723 0.00097-1.2052-0.0334-1.2569-0.72472-1.0834-0.79449 0.1994-0.95897-0.14512-0.32176-0.67396 0.4887-0.40559 0.80778-1.478 0.43976-1.478-0.14475 0-0.50184 0.23866-0.79354 0.53035-0.59676 0.59676-1.3719 0.9552-1.5912 0.73583-0.0802-0.0802 0.037-0.49582 0.26021-0.92373 0.4558-0.87365 0.54421-2.0847 0.15219-2.0847-0.39839 0-1.1946 1.8776-1.1946 2.817 0 0.46298-0.11319 0.96592-0.25154 1.1176-0.37478 0.41102-1.3184 4.1747-1.1012 4.392 0.25771 0.25771 1.3527-0.77174 1.3527-1.2717 0-0.6158 0.84554-2.1184 1.192-2.1184 0.18892 0 0.2328 0.33328 0.11466 0.87114-0.14957 0.681-0.0913 0.87114 0.26731 0.87114 0.92693 0 0.40895 0.62462-1.5906 1.9182-1.1747 0.75991-2.1661 1.633-2.323 2.0457-0.99537 2.618 0.44768 2.896 2.7879 0.53697zm-13.806-0.15237c0-1.0903-0.25756-1.9706-1.019-3.4826-0.56043-1.1129-1.158-2.6717-1.328-3.4641-0.16994-0.79239-0.67681-1.9036-1.1264-2.4693-0.44957-0.56572-0.90897-1.5166-1.0209-2.1131-0.27997-1.4923-0.65771-2.1116-1.2881-2.1116-0.29425 0-0.69766-0.19601-0.89649-0.43557-0.19882-0.23956-0.55812-0.43557-0.79845-0.43557-0.68784 0-0.31817 2.4802 0.67286 4.5145l0.84214 1.7287 0.0918-1.6697c0.0925-1.6836 0.50747-2.2244 0.77979-1.0163 0.081 0.35935 0.33518 1.8658 0.56486 3.3477 0.34749 2.2421 0.67004 3.1682 1.9214 5.5172 2.2166 4.1608 2.6043 4.4719 2.6043 2.0897zm2.1611-1.4654c0.5088-0.93484 0.85859-2.102 0.95778-3.196 0.14468-1.5955 0.0983-1.777-0.62503-2.4474l-0.7813-0.72409-0.38571 0.94364c-0.21214 0.519-0.44691 2.283-0.52173 3.9201-0.15841 3.4668 0.11971 3.7752 1.356 1.5038zm8.5455-0.94146c0.32295-1.4431 0.29495-1.653-0.43281-3.2426-0.42795-0.93478-0.86676-2.4292-0.97511-3.3209l-0.19701-1.6213-0.62432 1.3067c-1.041 2.1789-0.75962 5.5545 0.64122 7.6925 0.74166 1.1319 1.2057 0.89395 1.588-0.81438zm-15.718-2.553c-0.90446-1.7118-1.1311-1.9277-2.9426-2.8031-2.7007-1.3051-3.0135-1.0357-1.8068 1.556 0.45786 0.98329 1.0487 1.702 1.761 2.1423 1.3143 0.81228 3.4132 1.4748 3.7327 1.1782 0.12956-0.12029-0.2054-1.0533-0.74436-2.0733zm4.4276-0.73851c-0.42483-1.4299-0.27508-3.9324 0.24557-4.1039 0.28205-0.0929 0.37052 0.14106 0.32077 0.84844-0.16116 2.2916 0.27174 2.6955 0.88795 0.82831 0.35622-1.0794 0.33834-1.2138-0.2439-1.8336-0.34557-0.36785-0.62832-0.82373-0.62832-1.0131 0-0.6208-0.42381-0.33808-1.115 0.74379-0.63735 0.99757-0.65844 1.1703-0.34041 2.7868 0.39413 2.0033 0.8242 3.2415 1.0481 3.0176 0.0864-0.0865 0.008-0.65993-0.17476-1.2744zm12.609-1.7424c0.51338-1.6286 0.51226-1.6526-0.1418-3.049-0.36258-0.77412-0.75172-1.4075-0.86476-1.4075-0.46373 0-0.92183 1.8258-0.78408 3.125 0.16352 1.5423 0.65856 2.973 1.0287 2.973 0.1345 0 0.47739-0.73868 0.76198-1.6415zm-19.179-1.2015c0.078-0.12624-0.0404-0.61626-0.26318-1.0889-1.5778-3.3479-1.8912-4.6492-1.2694-5.2711 0.22946-0.22946 0.21805-0.50271-0.0412-0.98715-0.34943-0.6529-0.37585-0.63394-1.0432 0.74891-0.48248 0.99974-0.68473 1.9265-0.68473 3.1377 0 1.513 0.0928 1.7936 0.77437 2.3415 1.4837 1.1928 2.2674 1.5398 2.5274 1.119zm21.1-2.9784c0.51521-0.72355 0.57672-1.0279 0.33737-1.6697-0.16099-0.43166-0.38035-1.0462-0.48747-1.3656-0.18218-0.54319-0.2402-0.5244-0.89693 0.29038-0.75624 0.93826-0.86893 1.709-0.42184 2.8849 0.36927 0.97124 0.70004 0.93971 1.4689-0.14001z"/>
 </g>
</svg>
