<?xml version="1.0" encoding="UTF-8" standalone="no"?>
<!-- Created with Inkscape (http://www.inkscape.org/) -->
<svg id="svg2" xmlns:rdf="http://www.w3.org/1999/02/22-rdf-syntax-ns#" xmlns="http://www.w3.org/2000/svg" height="54" width="99" version="1.1" xmlns:cc="http://creativecommons.org/ns#" xmlns:dc="http://purl.org/dc/elements/1.1/">
 <metadata id="metadata7">
  <rdf:RDF>
   <cc:Work rdf:about="">
    <dc:format>image/svg+xml</dc:format>
    <dc:type rdf:resource="http://purl.org/dc/dcmitype/StillImage"/>
    <dc:title/>
   </cc:Work>
  </rdf:RDF>
 </metadata>
 <g id="g14386">
  <rect id="rect2990" opacity="0" height="54" width="99" y="0" x="0"/>
  <path id="path5873" d="m69.164 49.345c-0.0734-0.1188-0.10863-1.6946-0.0782-3.5019 0.0547-3.2551 0.0488-3.2985-0.63268-4.6338-0.75651-1.4822-1.9187-2.4482-2.8145-2.3395-0.82329 0.09993-1.3667 1.0235-1.5147 2.5745-0.13494 1.4142 0.18399 6.4466 0.46586 7.3506 0.148 0.47467 0.0901 0.51283-0.77838 0.51283-0.78633 0-0.93828-0.07382-0.93828-0.45585 0-0.53686-0.28893-0.58972-0.67575-0.12364-0.16451 0.19823-0.52048 0.29124-0.88262 0.23062-0.3338-0.05588-1.6057-0.14052-2.8265-0.1881-1.3482-0.05255-2.3576-0.20109-2.5713-0.3784-0.28964-0.24037-0.40075-0.22766-0.6295 0.07204-0.30398 0.39826-1.161 0.44154-7.7249 0.39013-2.4709-0.01935-3.6371-0.11192-3.7821-0.30022-0.11533-0.14973-0.39131-0.9362-0.61329-1.7477-0.22199-0.8115-0.55871-1.5889-0.74827-1.7275-0.26102-0.19086-0.28739-0.35904-0.10865-0.69302 0.14642-0.2736 0.16572-0.82538 0.0508-1.4536-0.10185-0.55695-0.1305-1.3495-0.0637-1.7613 0.11436-0.70472-0.20539-1.4363-0.62778-1.4363-0.0982 0-0.18754 0.79489-0.19849 1.7664-0.0109 0.97153-0.12709 2.1254-0.25808 2.5642-0.13099 0.43876-0.33394 1.6068-0.451 2.5958-0.11705 0.98892-0.25937 1.8446-0.31626 1.9015-0.0569 0.05689-1.7265 0.06952-3.7102 0.02805-1.9837-0.04146-4.3604-0.06064-5.2816-0.04261-1.6404 0.0321-1.6728 0.02179-1.5729-0.50078 0.0561-0.29345 0.0264-0.65588-0.066-0.80541-0.24817-0.40155-0.67483-0.03906-0.67483 0.57334 0 0.60099-0.50129 0.89999-0.87774 0.52353-0.16442-0.16442-0.42653-0.17778-0.76853-0.03917-0.28546 0.11569-1.1023 0.17978-1.8152 0.14242-1.1269-0.05906-1.3091-0.13346-1.3956-0.56981l-0.0994-0.50188-0.17235 0.52379c-0.16258 0.49411-0.27076 0.51994-1.9093 0.45585-1.6635-0.06506-1.7396-0.09204-1.7986-0.63775-0.0339-0.3134 0.13794-0.89308 0.3819-1.2882l0.44358-0.71837 1.8973 0.09341c1.0435 0.05137 2.0512 0.08738 2.2392 0.08 0.18804-0.0074 1.265-0.03385 2.3932-0.05882l2.0513-0.0454-0.0456-3.1854c-0.0447-3.1283-0.056-3.193-0.62679-3.6088-0.69444-0.50587-0.7605-1.0691-0.12538-1.0691 0.58481 0 0.58792-0.49164 0.005-0.85543-0.34232-0.21378-0.41885-0.43926-0.31883-0.93936 0.0831-0.41575-0.003-0.86358-0.23413-1.2162-0.20116-0.30701-0.30903-0.6149-0.23972-0.68422 0.31048-0.31049 0.26975-3.7645-0.0565-4.7865-0.37863-1.1863-0.58562-1.4174-1.4553-1.6245-0.32429-0.07722-0.96862-0.49784-1.4318-0.93471-0.7263-0.68499-0.92167-0.76409-1.4196-0.5748-0.31755 0.12073-0.81299 0.21951-1.101 0.21951-0.28799 0-0.91438 0.31054-1.392 0.69008-1.0869 0.86378-1.5143 0.60798-0.95254-0.5701 0.26249-0.55043 0.69808-0.94593 1.4108-1.281 1.2117-0.56956 1.374-1.0161 0.29038-0.7988-2.0836 0.41774-2.4502 0.42916-2.4502 0.07631 0-0.19123 0.4082-0.5096 0.9117-0.71106 0.70923-0.28378 0.9117-0.48632 0.9117-0.91206 0-0.63586-0.47741-0.88445-1.3014-0.67763-0.4367 0.1096-0.55536 0.067-0.47672-0.17115 0.14933-0.45225 1.0856-0.8796 1.9356-0.88352 0.9435-0.0043 1.1188-0.32251 0.51209-0.92925-0.40837-0.40836-0.64807-0.46246-1.4898-0.33624-1.155 0.1732-1.3109-0.11059-0.48174-0.87702 0.80535-0.74444 1.7159-1.0903 2.1952-0.83373 0.31512 0.16865 0.52539 0.09879 0.89867-0.29855 0.6739-0.71732 0.60949-1.0591-0.19956-1.0591-0.37778 0-0.86497-0.09508-1.0826-0.21129-0.21768-0.11621-0.57527-0.26684-0.79465-0.33473-0.69115-0.21391-0.47625-0.82153 0.29055-0.82153 0.52851 0 0.74077-0.13509 0.90947-0.57879 0.17003-0.44722 0.35605-0.56379 0.81828-0.51283 0.58648 0.06466 0.82716-0.15941 1.0921-1.0167 0.19129-0.61906 0.98423-0.48264 1.3248 0.22792 0.44933 0.93749 0.99292 0.82156 0.91529-0.19522-0.0833-1.0905 0.34179-1.445 1.3866-1.1565 0.45093 0.12451 0.9184 0.13238 1.0982 0.0185 0.50956-0.32278 0.63187-0.24413 0.83282 0.53548 0.22348 0.86701 1.1896 1.2265 1.1896 0.44263 0-0.24409 0.15254-0.57039 0.33899-0.72513 0.41388-0.3435 1.0286-0.1449 1.0286 0.33232 0 0.19355 0.19708 0.34904 0.4424 0.34904 0.67972 0 0.79603 0.43525 0.26685 0.99854-0.37033 0.39419-0.41682 0.57026-0.20622 0.78086 0.33929 0.3393 1.4691 0.35652 1.6737 0.02552 0.0838-0.13552 0.38604-0.18772 0.67174-0.11602 0.40293 0.10113 0.65034-0.0412 1.1028-0.63442 0.52534-0.68876 1.3108-1.0629 2.4306-1.1579 0.18803-0.01595 0.71295-0.21686 1.1665-0.44649 0.70937-0.35916 1.0119-0.38459 2.1653-0.18196 0.73738 0.12954 1.4023 0.16772 1.4776 0.08483 0.20545-0.22623-0.0395-2.0881-0.27476-2.0881-0.11219 0-0.20399 0.26333-0.20399 0.58517 0 0.49908-0.0754 0.56323-0.51283 0.43604-0.58768-0.17089-1.3106-0.92833-1.3106-1.3732 0-0.16582 0.28205-0.33395 0.62679-0.37362 0.43951-0.05057 0.64772-0.21895 0.69682-0.56352 0.0446-0.31308 0.29147-0.54697 0.68026-0.64456 0.48397-0.12147 0.71481-0.03158 1.1156 0.43441 0.27797 0.32316 0.55346 0.58757 0.61219 0.58757 0.0587 0 0.1787-0.32742 0.26659-0.7276 0.13139-0.59821 0.0657-0.80378-0.36926-1.156-0.41623-0.33705-0.4777-0.50998-0.28821-0.8109 0.13247-0.21037 0.43455-0.4205 0.67128-0.46696 0.23674-0.04646 0.67548-0.27724 0.97498-0.51283 0.29952-0.2356 0.6882-0.42836 0.86374-0.42836 0.17555 0 0.57217-0.16577 0.88138-0.36838 0.33594-0.22011 0.81268-0.3205 1.1845-0.24942 0.34225 0.06542 0.91543-0.03264 1.2737-0.21793 0.36518-0.18884 0.8177-0.26368 1.0298-0.1703 0.20806 0.09162 0.67718 0.20923 1.0425 0.26135 0.36531 0.05212 0.98071 0.31817 1.3676 0.59123 1.0187 0.71909 1.5218 1.0163 2.3558 1.392 0.40742 0.18351 0.74076 0.47486 0.74076 0.64744 0 0.37586 0.94354 1.3049 1.3253 1.3049 0.14861 0 0.27021 0.19416 0.27021 0.43146s0.1282 0.48084 0.2849 0.54118 0.42444 0.58415 0.59498 1.164c0.22962 0.78077 0.42376 1.0543 0.74834 1.0543 0.62783 0 2.0186-1.4674 2.0186-2.1298 0-0.70803 0.35447-0.97997 1.4815-1.1366 0.50143-0.06968 1.2266-0.19272 1.6116-0.27343 0.55174-0.11568 0.91356-0.0022 1.7094 0.53615 0.55525 0.37559 1.2396 0.94865 1.5209 1.2735 0.28123 0.32481 0.62141 0.59056 0.75597 0.59056 0.34409 0 1.8097 1.1471 1.8097 1.4164 0 0.12247 0.21471 0.5242 0.47713 0.89274 0.26648 0.37423 0.415 0.83199 0.33639 1.0368-0.078 0.20323 0.0351 0.561 0.25351 0.8024 0.32671 0.36102 0.34593 0.51301 0.11217 0.88732-0.24631 0.3944-0.19436 0.52549 0.4096 1.0337 0.38042 0.3201 0.63664 0.67105 0.56938 0.77988-0.0673 0.10883-0.0162 0.40718 0.11335 0.663 0.1296 0.25582 0.33821 0.66886 0.46357 0.91788s0.22792 0.63646 0.22792 0.86098 0.16612 0.64539 0.36915 0.93526c0.28655 0.40912 0.31507 0.64572 0.12744 1.0575-0.20017 0.43933-0.16331 0.58269 0.21454 0.83425 0.37157 0.24738 0.47004 0.60679 0.53053 1.9364 0.0657 1.4432 0.0244 1.6457-0.35577 1.7451-0.23652 0.06185-0.43004 0.22463-0.43004 0.36172 0 0.28167 0.37764 0.31909 2.5642 0.25409 1.4093-0.0419 1.5385-0.0069 1.5385 0.41712 0 0.25457-0.10256 0.52625-0.22792 0.60372-0.44701 0.27626-0.21385 0.91807 0.4762 1.3108 0.82128 0.46744 0.77166 0.95864-0.10017 0.99148-0.33664 0.01267-0.66441 0.07538-0.72836 0.13933-0.22147 0.22147 0.33258 1.2925 0.79727 1.5412 0.25672 0.13739 0.46676 0.34876 0.46676 0.46971 0 0.3275-0.61655 0.26638-1.4-0.13879-0.79405-0.41062-0.98325-0.3282-0.7723 0.33643 0.0949 0.29897 0.47277 0.55525 1.0465 0.70974 1.0157 0.27351 1.245 0.908 0.32814 0.908-0.31339 0-0.56981 0.10257-0.56981 0.22792 0 0.12536-0.20513 0.22792-0.45585 0.22792-0.90958 0-0.2818 1.1907 1.0391 1.9707 0.75724 0.4472 0.13572 0.77507-0.92744 0.48924-0.78799-0.21185-1.0461-0.17839-1.8713 0.24262-0.52649 0.26859-1.1507 0.48835-1.3872 0.48835-0.9322 0-2.7848 2.4001-3.2548 4.2166-0.0973 0.37608-0.35093 1.1453-0.56363 1.7094-0.25355 0.67248-0.39627 1.7702-0.41446 3.1879-0.0233 1.8179-0.0879 2.1738-0.40537 2.2349-0.20768 0.03998-0.43769-0.02452-0.51111-0.14331zm-15.525-1.4c0.1683-0.27232-0.2698-1.1443-0.57491-1.1443-0.2476 0-0.30245 0.98111-0.0679 1.2156 0.21713 0.21713 0.48285 0.18768 0.64288-0.07126zm0.72842-0.27537c-0.0728-0.18182-0.12677-0.12782-0.1377 0.1377-0.01 0.24027 0.044 0.37489 0.11971 0.29915 0.0757-0.07574 0.0838-0.27232 0.018-0.43686zm4.8607 0.15921c-0.15492-0.18666-0.37428-0.28214-0.48747-0.21218-0.29095 0.17981-0.0127 0.55155 0.41278 0.55155 0.28974 0 0.3037-0.06344 0.0747-0.33938zm-27.903-0.74211c-0.24899-0.24898-0.41972 0.14698-0.24095 0.55883 0.1695 0.39052 0.18178 0.39016 0.27622-0.008 0.0543-0.22919 0.0385-0.47706-0.0352-0.55082zm16.049 0.39772c0-0.25325-0.15195-0.45585-0.34189-0.45585-0.34699 0-0.46754 0.48215-0.18994 0.75975 0.28896 0.28896 0.53183 0.15018 0.53183-0.3039zm3.6468 0.02791c0-0.23537-0.14523-0.54846-0.32272-0.69577-0.25768-0.21386-0.35252-0.17396-0.47056 0.19798-0.0813 0.2562-0.0839 0.56929-0.006 0.69577 0.24185 0.39131 0.799 0.25326 0.799-0.19798zm-14.587-0.14187c0-0.18804-0.10256-0.34189-0.22792-0.34189s-0.22792 0.15385-0.22792 0.34189 0.10256 0.34189 0.22792 0.34189 0.22792-0.15385 0.22792-0.34189zm9.4589 0.11396c0.0775-0.12536 0.0322-0.22792-0.10051-0.22792-0.13276 0-0.24138 0.10257-0.24138 0.22792 0 0.12536 0.0452 0.22792 0.10051 0.22792 0.0553 0 0.1639-0.10257 0.24138-0.22792zm-11.168-0.45585c-0.0775-0.12536-0.29471-0.22792-0.48275-0.22792s-0.2785 0.10257-0.20102 0.22792c0.0775 0.12536 0.29471 0.22792 0.48275 0.22792s0.2785-0.10257 0.20102-0.22792zm3.7608 0.04356c0-0.33249-0.64295-1.0721-0.79757-0.91744-0.1921 0.19209 0.28486 1.1018 0.57766 1.1018 0.12095 0 0.21991-0.08296 0.21991-0.18436zm10.736-0.339c-0.29254-0.29254-0.58919-0.06644-0.37262 0.28399 0.0839 0.13574 0.25695 0.18227 0.38457 0.1034 0.15567-0.09621 0.15174-0.2237-0.0119-0.38739zm9.8868-0.54306c2.8294 0.18585 2.8534 0.16206 2.8534-2.8319 0-2.412-0.2953-3.5222-1.1902-4.4748-0.27854-0.29649-0.75475-0.51594-1.1196-0.51594-0.54089 0-0.67446 0.13206-0.90214 0.89199-0.22213 0.74142-0.38998 0.91502-0.99431 1.0284-0.45827 0.08597-0.99653 0.0021-1.4559-0.2272-0.7036-0.351-0.7662-0.34122-1.8069 0.28217-0.59294 0.35517-1.2576 0.71939-1.4769 0.80937-0.31735 0.13016-0.39887 0.44296-0.39887 1.5305 0 1.1541 0.0743 1.4066 0.47733 1.6223 0.33512 0.17935 0.43982 0.39889 0.35143 0.73691-0.20611 0.78814 0.24921 1.075 1.7063 1.075 1.233 0 1.3408 0.04081 1.3541 0.51283 0.0144 0.51036 0.0155 0.5102 0.23317-0.03403 0.21522-0.5381 0.25315-0.5446 2.3692-0.4056zm3.993 0.38265c0-0.12536-0.10256-0.22792-0.22792-0.22792s-0.22793 0.10257-0.22793 0.22792c0 0.12536 0.10257 0.22792 0.22793 0.22792s0.22792-0.10257 0.22792-0.22792zm-16.638-0.34189c0-0.18804-0.10257-0.34189-0.22793-0.34189s-0.22792 0.15385-0.22792 0.34189 0.10256 0.34189 0.22792 0.34189 0.22793-0.15385 0.22793-0.34189zm16.97-0.42039c0.56002-0.4095 0.31769-1.517-0.33194-1.517-0.48055 0-0.835 0.87263-0.60154 1.481 0.16226 0.42285 0.39228 0.43171 0.93348 0.03597zm-31.379-0.20641c0.1287-0.1567 0.26947-0.54132 0.31282-0.85472 0.0779-0.56319 0.10132-0.56902 2.0162-0.50202 1.0656 0.03728 2.1425 0.07132 2.3932 0.07563 1.1165 0.01921 3.8348-0.46425 3.986-0.70894 0.5848-0.94623-0.59701-3.7348-1.7002-4.0117-0.68575-0.17211-2.0252 0.59405-2.5682 1.469-0.76697 1.2359-0.99097 1.4043-1.5034 1.13-0.26108-0.13973-0.63824-0.45601-0.83811-0.70285-0.19989-0.24684-0.65507-0.48082-1.0115-0.51994-0.77737-0.08533-1.0056-0.39441-0.85862-1.163 0.0891-0.46585 0.20048-0.54429 0.59237-0.41703 0.99705 0.32379 3.5677 0.38847 4.2475 0.10687 1.494-0.61884 0.4287-1.1537-2.6024-1.3066-1.784-0.08999-2.4944-0.0354-3.1568 0.24259l-0.85471 0.35872v3.4138c0 3.0596 0.0414 3.4246 0.39886 3.518 0.70757 0.18491 0.90842 0.16253 1.1469-0.12779zm18.599-0.96066c0.48996-0.74778 0.5262-3.9503 0.0468-4.1343-0.36817-0.14128-1.73 0.49974-1.73 0.81431 0 0.11503 0.21862 0.36227 0.48582 0.54942 0.60416 0.42317 0.42769 1.0705-0.24395 0.89488-0.34917-0.09131-0.47165-0.01363-0.47704 0.3026-0.007 0.40205-0.0239 0.40351-0.31003 0.02658-0.4321-0.56922-0.59442-0.49562-0.59442 0.26954 0 0.46824 0.13652 0.71174 0.45585 0.8131 0.25072 0.07958 0.45585 0.24229 0.45585 0.36159s0.25641 0.15255 0.56981 0.07389c0.4309-0.10815 0.56981-0.05364 0.56981 0.22358 0 0.53639 0.35023 0.44778 0.77153-0.1952zm-3.2787-0.54709c0-0.23381-0.1795-0.6709-0.39887-0.9713-0.21938-0.3004-0.51261-0.75014-0.65164-0.99942-0.21105-0.37844-0.49225-0.45323-1.7039-0.45323-1.3777 0-1.4623 0.03173-1.6716 0.62679-0.14203 0.40386-0.14192 0.84972 0.00022 1.2536 0.19172 0.54433 0.34817 0.63003 1.1892 0.65137 0.53266 0.01352 1.0343 0.09045 1.1148 0.17094 0.0806 0.0805 0.59091 0.14636 1.1341 0.14636 0.81192 0 0.98768-0.07565 0.98768-0.42511zm23.745-3.7811c0.42892-1.0919 0.41939-1.7198-0.0261-1.7198-0.34955 0-0.69014 0.78382-0.8512 1.9589-0.19381 1.414 0.27853 1.2853 0.87729-0.23906zm-24.376 0.74968c-0.20216-0.20216-0.17222-0.3372 0.12536-0.56548 0.6411-0.49181-0.0978-0.81802-0.90616-0.40003-0.78818 0.40759-0.82798 0.77524-0.0839 0.77524 0.306 0 0.61975 0.10257 0.69723 0.22792 0.0775 0.12536 0.20661 0.22792 0.28696 0.22792 0.0804 0 0.0266-0.11951-0.11948-0.26558zm-1.8769-0.98801c0.15606-0.18804 0.38356-0.34189 0.50556-0.34189 0.31633 0 1.5458-0.90481 1.5458-1.1376 0-0.10718-0.31996-0.51483-0.71102-0.90589-0.64757-0.64757-0.75435-0.68262-1.1966-0.39279-0.42707 0.27989-1.2143 2.0442-1.265 2.8352-0.0255 0.39763 0.77795 0.3568 1.1214-0.05698zm9.5159-0.65571c0.63869-0.55971 0.66115-1.1897 0.0482-1.35-0.51861-0.13562-1.4379 0.67281-1.2681 1.1152 0.056 0.14582-0.005 0.37126-0.13409 0.50097-0.12971 0.12971-0.16385 0.35232-0.0759 0.49469 0.16862 0.27283 0.37679 0.16206 1.43-0.76088zm-5.6908 0.12111c0.0653-0.19616-0.0443-0.2783-0.30411-0.22792-0.22343 0.04331-0.45218 0.21675-0.50835 0.38542-0.0653 0.19616 0.0443 0.2783 0.30412 0.22792 0.22342-0.04331 0.45218-0.21675 0.50834-0.38542zm21.091-0.92475c-0.0688-0.26291-0.21561-0.47801-0.32635-0.47801-0.23924 0-0.27299 1.4478-0.0392 1.6816 0.23983 0.23983 0.51021-0.65045 0.36555-1.2036zm-28.562 0.44441c0-1.4793-0.83829-2.2343-1.8028-1.6238-0.64694 0.40954 0.59514 2.2968 1.5116 2.2968 0.17055 0 0.29117-0.27883 0.29117-0.67305zm9.7497 0.34425c0.0351-0.0351-0.0431-0.34489-0.17364-0.68842-0.16395-0.43119-0.34813-0.58213-0.59484-0.48746-0.19654 0.07543-0.60538 0.13713-0.90853 0.13713-0.69639 0-0.71616 0.51129-0.0384 0.99146 0.42729 0.30268 1.4322 0.33039 1.7154 0.04729zm10.86-2.2428c-0.41456-1.2605-1.567-3.1265-1.9308-3.1265-0.3065 0-0.27852 0.12544 0.26607 1.1929 0.37929 0.74346 0.42825 1.0346 0.22793 1.3554-0.40386 0.64667-0.31657 0.883 0.71355 1.9319 0.95181 0.96914 0.96995 0.9763 1.0415 0.41093 0.04-0.31647-0.10317-1.1105-0.31829-1.7646zm1.6124 1.8898c0.16536-0.52099-0.0437-0.98366-0.35699-0.79004-0.27656 0.17092-0.27623 1.2439 0.00046 1.2439 0.11691 0 0.27738-0.20421 0.3566-0.45381zm5.129-0.21132c0-1.0829-0.20459-1.4147-0.70655-1.1461-0.52898 0.2831-0.54141 0.52226-0.065 1.2494 0.48967 0.74733 0.77152 0.70958 0.77152-0.10334zm-25.21-0.70703c0.56785-1.4192 0.50412-1.5909-0.59065-1.5909-0.74456 0-0.8965 0.06078-0.68378 0.27351 0.15043 0.15043 0.27351 0.51632 0.27351 0.8131 0 0.43586-0.0876 0.51177-0.45584 0.3949-0.32351-0.10267-0.45585-0.04096-0.45585 0.21256 0 0.2053 0.19388 0.35725 0.45585 0.35725 0.25071 0 0.45584 0.10257 0.45584 0.22792 0 0.59201 0.67411 0.12839 1.0009-0.68839zm13.48-0.13556c0.61941-0.40585 0.73606-0.77152 0.24611-0.77152-0.17362 0-0.48368 0.25642-0.68902 0.56981-0.43503 0.66394-0.33327 0.71029 0.44291 0.20171zm8.9197-1.4232c0.13143-1.1097-0.16741-1.704-0.62616-1.2453-0.37957 0.37957-0.52346 2.3172-0.20094 2.7059 0.26956 0.3248 0.3175 0.32523 0.49698 0.0045 0.10926-0.19523 0.25781-0.85452 0.33012-1.4651zm5.8029 0.8179c-0.30419-0.30419-0.72096 0.0044-0.56275 0.41666 0.10253 0.2672 0.20049 0.28242 0.45555 0.07074 0.20647-0.17136 0.24555-0.34904 0.1072-0.48739zm-18.036 0.28958c0-0.12536-0.21119-0.22792-0.4693-0.22792s-0.40591 0.10257-0.32844 0.22792c0.0775 0.12536 0.28867 0.22792 0.46931 0.22792s0.32843-0.10257 0.32843-0.22792zm20.741-0.24138c0-0.11796-0.15385-0.21447-0.34189-0.21447-0.35246 0-0.45281 0.26894-0.19613 0.52563 0.1821 0.1821 0.53802-0.02375 0.53802-0.31116zm-39.659-0.38053c0-0.39853-0.53085-0.8782-1.3477-1.2177-0.7947-0.33035-3.0345 0.15383-2.939 0.63534 0.13225 0.66718 1.3442 1.0957 2.865 1.0131 1.0993-0.05972 1.4216-0.15738 1.4216-0.43072zm2.1174-0.42422c0.0429-0.5927-0.0855-0.72976-1.2057-1.2875-1.2585-0.62665-2.2792-0.81332-2.2792-0.41682 0 0.11691 0.1902 0.27293 0.42266 0.34671s0.91271 0.65174 1.5117 1.2844c1.1444 1.2087 1.4675 1.224 1.5506 0.07325zm14.034 0.44994c0.65269-0.45716 0.33934-0.85731-0.50534-0.6453-0.57433 0.14415-0.77836 0.53409-0.45083 0.86162 0.22465 0.22465 0.37524 0.19058 0.95617-0.21631zm5.0458-0.10658c0-0.55546-0.53261-0.47695-0.6435 0.09486-0.0436 0.22491 0.0726 0.37998 0.2849 0.37998 0.21142 0 0.3586-0.19488 0.3586-0.47484zm14.815 0.11797c0-0.54336-0.45107-1.2685-0.69521-1.1176-0.24712 0.15273-0.29305 1.094-0.0645 1.3225 0.28277 0.28277 0.75974 0.15412 0.75974-0.20492zm-31.91-0.55597c-0.12637-0.23613-0.33178-0.49237-0.45646-0.56943-0.31733-0.19612-0.28452 0.64951 0.0377 0.97173 0.38658 0.38657 0.68666 0.09827 0.41876-0.4023zm8.6618 0.32957c0-0.19544-0.10424-0.29091-0.23164-0.21218-0.12741 0.07874-0.17264 0.23864-0.10052 0.35534 0.19539 0.31614 0.33216 0.25719 0.33216-0.14316zm16.242-0.07528c0.1546-0.59117-0.13185-0.9823-0.59049-0.8063-0.37965 0.14568-0.51689 0.79677-0.2287 1.085 0.29084 0.29083 0.70731 0.14916 0.81919-0.27867zm4.4991 0.1647c0-0.10446-0.15385-0.18994-0.34189-0.18994-0.21273 0-0.34189-0.21526-0.34189-0.56981 0-0.3134-0.11452-0.56981-0.25449-0.56981-0.14856 0-0.20916 0.23719-0.14557 0.56981 0.0599 0.3134 0.0206 0.56981-0.0874 0.56981-0.10798 0-0.19632 0.08547-0.19632 0.18994s0.3077 0.18994 0.68377 0.18994c0.37608 0 0.68378-0.08547 0.68378-0.18994zm-19.222-0.31922c0.0754-0.19646 0.0201-0.47412-0.12274-0.61702-0.32079-0.32079-1.0808 0.33471-0.83989 0.72444 0.22749 0.36809 0.80489 0.30366 0.96263-0.10741zm10.291-0.15562c0.0513-0.26955-0.0682-0.39887-0.36863-0.39887-0.4984 0-1.0386 0.52556-0.79278 0.77134 0.28913 0.28913 1.0839 0.03424 1.1614-0.37247zm-17.379-0.766c0.19013-1.2678-0.32831-3.9967-0.78808-4.1481-0.26135-0.08606-0.29597 0.28987-0.19778 2.1476 0.11932 2.2575 0.28528 3.0496 0.63897 3.0496 0.10426 0 0.26037-0.4721 0.34689-1.0491zm13.001 0.46066c-0.0761-0.19829-0.13835-0.4547-0.13835-0.56981 0-0.1151-0.2161-0.20928-0.48023-0.20928-0.34427 0-0.44107 0.10207-0.34189 0.36053 0.0761 0.19829 0.13835 0.4547 0.13835 0.56981 0 0.1151 0.2161 0.20928 0.48024 0.20928 0.34426 0 0.44106-0.10207 0.34188-0.36053zm2.6825 0.01001c0.0774-0.20184-0.0131-0.40714-0.21338-0.48401-0.44596-0.17113-0.64946 0.03464-0.47748 0.4828 0.17301 0.45087 0.51807 0.45147 0.69086 0.0011zm-11.111-0.91059c-0.16595-0.43246-0.82638-0.4355-0.82638-0.0038 0 0.40068 0.76034 0.88615 0.87622 0.55945 0.0431-0.1217 0.0207-0.37174-0.0498-0.55564zm29.051-0.40624c-0.17768-0.17768-0.32264-0.1718-0.51535 0.0209-0.20554 0.20555-0.16565 0.38199 0.17095 0.75604l0.43907 0.48791 0.0763-0.50881c0.042-0.27985-0.035-0.62006-0.17094-0.75604zm-35.141 0.38796c-0.33118-0.39905-0.54265-0.24307-0.35024 0.25834 0.0773 0.20139 0.24878 0.29925 0.38111 0.21746 0.16523-0.10212 0.15556-0.25117-0.0308-0.4758zm-3.6051-0.89763c-0.38722-0.44102-0.70403-0.93624-0.70403-1.1005 0-0.16425-0.20313-0.48246-0.45139-0.70713-0.38852-0.3516-0.7457-0.39181-2.5642-0.28865-2.3972 0.13599-2.9105 0.28352-2.9105 0.8366 0 0.6347 1.4282 1.1575 3.1623 1.1575 1.29 0 1.759 0.11375 2.7843 0.67537 0.67816 0.37146 1.2678 0.57487 1.3103 0.45204 0.0425-0.12284-0.23957-0.58417-0.62679-1.0252zm26.831 0.97612c0.13201-0.15907 0.26358-1.5181 0.29238-3.02 0.0384-2.0042 0.14095-2.8347 0.38533-3.1212 0.18314-0.21471 0.27034-0.55364 0.19376-0.75319-0.12494-0.32559-0.19803-0.32061-0.71231 0.0485-0.31521 0.22622-0.537 0.56792-0.49287 0.75933 0.0441 0.19141 0.0122 1.0632-0.071 1.9374-0.14677 1.5423-0.15983 1.5691-0.44086 0.90556-0.15928-0.37608-0.29103-1.0174-0.29276-1.4252-0.002-0.40776-0.1018-0.80235-0.22235-0.87686s-0.31289-0.38192-0.42742-0.68314c-0.26812-0.70521-0.78207-0.73595-0.58265-0.03484 0.0802 0.28206 0.24757 1.0257 0.37189 1.6525 0.12432 0.62679 0.42963 1.5744 0.67846 2.1058 0.24883 0.53141 0.45242 1.3092 0.45242 1.7284 0 1.047 0.3694 1.3777 0.86798 0.77692zm5.286-0.16664c0-0.25325-0.15195-0.45585-0.34189-0.45585-0.34699 0-0.46753 0.48215-0.18993 0.75975 0.28896 0.28896 0.53182 0.15018 0.53182-0.3039zm-20.743-0.6078c0.003-0.44625-0.53355-0.47553-0.98622-0.05381-0.58305 0.5432-0.31286 0.92142 0.41656 0.58311 0.31233-0.14486 0.56868-0.38305 0.56966-0.5293zm24.659 0.26591c0.14279-0.3134 0.39701-0.56981 0.56493-0.56981 0.16791 0 0.3053-0.14288 0.3053-0.3175 0-0.45408-0.67445-0.6558-0.83075-0.24847-0.0714 0.18592-0.26163 0.33804-0.42284 0.33804-0.30466 0-0.56981 0.48594-0.56981 1.0443 0 0.53737 0.67561 0.3626 0.95317-0.24657zm-27.848-0.12111c0-0.53758-0.60275-0.84881-0.95728-0.49428-0.35452 0.35452-0.0433 0.95728 0.49429 0.95728 0.31343 0 0.46299-0.14957 0.46299-0.463zm6.6098-0.0063c0-0.11797-0.10257-0.21448-0.22793-0.21448-0.12535 0-0.22792 0.1599-0.22792 0.35534s0.10257 0.29195 0.22792 0.21447c0.12536-0.07748 0.22793-0.23738 0.22793-0.35534zm19.317 0.04913c-0.0643-0.24585 0.0547-0.52294 0.28674-0.66787 0.27055-0.16896 0.36082-0.43492 0.284-0.83678-0.1481-0.77475-0.51234-0.97992-0.66992-0.37736-0.15816 0.60482-0.43892 0.61566-0.59392 0.02294-0.0656-0.25072-0.28266-0.45585-0.48244-0.45585-0.42371 0-0.4695-0.2584-0.10957-0.61833 0.30289-0.30289 0.0783-0.74922-0.37696-0.74922-0.24104 0-0.31768 0.29516-0.29844 1.1493 0.0232 1.0294 0.0957 1.1854 0.6958 1.4957 0.53501 0.27667 0.61681 0.41039 0.40623 0.66413-0.34004 0.40972-0.0985 0.79353 0.49938 0.79353 0.34349 0 0.43958-0.11243 0.3591-0.42018zm-39.374-0.0091c0-0.11074-0.20513-0.25498-0.45585-0.32055-0.29627-0.07748-0.45584-0.007-0.45584 0.20134 0 0.1763 0.20513 0.32055 0.45584 0.32055 0.25072 0 0.45585-0.0906 0.45585-0.20134zm23.838-0.51486c0.31927-0.51659-0.39035-0.80781-1.8845-0.77338-1.6341 0.03764-1.9411 0.26042-1.237 0.8976 0.34748 0.31446 0.54112 0.34758 0.90225 0.1543 0.54111-0.28959 0.7278-0.3099 0.69074-0.07515-0.0148 0.09402-0.0148 0.24253 0 0.33003 0.0352 0.2075 1.3554-0.25318 1.5285-0.5334zm6.4302 0.21477c0.42443-0.42443 0.32413-0.67712-0.23699-0.59706-0.28078 0.04006-0.54472 0.25232-0.58652 0.4717-0.0871 0.45721 0.4152 0.53368 0.82351 0.12536zm4.4747-0.23932c0.47939-2.293 0.48392-3.0732 0.0314-5.3997-0.41699-2.1438-0.69483-2.6751-1.1858-2.2676-0.41436 0.34389-0.39529 0.98929 0.0399 1.3505 0.23613 0.19597 0.27615 0.36716 0.12189 0.52141-0.15425 0.15426-0.12809 0.31083 0.0797 0.4769 0.35441 0.28328 0.64047 3.4919 0.32851 3.6847-0.23136 0.14298-0.26884 1.7718-0.0459 1.9948 0.28677 0.28678 0.52325 0.15139 0.63035-0.36088zm-27.77-0.52613c0.2884-0.60777 0.31964-0.87625 0.12465-1.0712-0.19499-0.195-0.26021-0.19025-0.26021 0.01894 0 0.15353-0.25641 0.37664-0.56981 0.49579-0.78938 0.30012-0.76807 1.3675 0.0273 1.3675 0.16126 0 0.4664-0.36497 0.67807-0.81104zm18.526 0.60511c0.3627-0.22973 0.15084-0.70577-0.31411-0.70577-0.39114 0-0.64401 0.37931-0.45585 0.68377 0.17152 0.27751 0.35813 0.28284 0.76996 0.02199zm1.8512-0.61971c0-0.30287-0.0619-0.31844-0.34189-0.08606-0.18804 0.15606-0.34189 0.32246-0.34189 0.36979s0.15385 0.08605 0.34189 0.08605 0.34189-0.16641 0.34189-0.36979zm9.0767-0.16192c0.0436-0.22491-0.0727-0.37998-0.2849-0.37998-0.21143 0-0.3586 0.19488-0.3586 0.47484 0 0.55546 0.5326 0.47695 0.6435-0.09486zm-24.975-0.7229c0.0389-0.25015 0.15069-0.58302 0.24849-0.73972 0.25348-0.40618-0.0807-0.35224-0.57192 0.09231-0.23077 0.20885-0.41681 0.68844-0.41681 1.0745 0 0.61323 0.0403 0.65693 0.33478 0.36251 0.18413-0.18413 0.36658-0.53945 0.40546-0.7896zm17.665 0.43786c-0.2172-0.2172-0.65266 0.13461-0.49079 0.39652 0.0962 0.15567 0.2237 0.15174 0.38739-0.01194 0.13419-0.13419 0.18072-0.30725 0.1034-0.38457zm-15.554 0.12985c0.0786-0.12708 0.34394-0.95684 0.58975-1.8439 0.43703-1.5771 0.408-3.319-0.0506-3.0356-0.11366 0.07025-0.15423 0.21252-0.0902 0.31617 0.0641 0.10365-0.0362 0.48118-0.2228 0.83897-0.1866 0.35778-0.3399 0.8104-0.34067 1.0058-0.00069 0.19542-0.152 0.5544-0.33605 0.79774-0.34324 0.4538-0.46889 1.7282-0.19718 1.9999 0.21921 0.21921 0.48329 0.18696 0.64772-0.07911zm13.01-0.56616c0.21415-0.85324-0.0365-1.2541-0.78424-1.2541-0.46525 0-0.69891-0.13219-0.7797-0.4411-0.0833-0.31858-0.24895-0.40616-0.59639-0.3153-0.69639 0.18211-0.60052 0.50345 0.47811 1.6025 1.0993 1.1201 1.4803 1.2125 1.6822 0.40801zm-6.7877 0.09636c-0.0449-0.13476-0.17911-0.24502-0.2982-0.24502s-0.25328 0.11026-0.2982 0.24502c-0.0449 0.13476 0.0893 0.24502 0.2982 0.24502 0.20893 0 0.34312-0.11026 0.2982-0.24502zm3.0067 0.14451c0-0.05528-0.10256-0.1639-0.22792-0.24138s-0.22793-0.03224-0.22793 0.10051c0 0.13276 0.10257 0.24138 0.22793 0.24138s0.22792-0.04523 0.22792-0.10051zm-6.2924-0.99956c0.19735-0.31933-0.12542-1.1792-0.44263-1.1792-0.34515 0-0.65709 0.79586-0.44589 1.1376 0.17147 0.27745 0.72668 0.30344 0.88852 0.0416zm-10.501-0.50379c0.65639-0.51632 0.59539-1.1312-0.11223-1.1312-0.24554 0-0.65584-0.11207-0.91178-0.24904-0.32774-0.1754-0.53676-0.17761-0.7069-0.0074-0.17015 0.17014-0.13346 0.28305 0.12404 0.38186 0.20109 0.07716 0.30933 0.28696 0.24054 0.46622-0.12473 0.32504 0.28565 1.0039 0.60687 1.0039 0.0931 0 0.43486-0.2089 0.75946-0.46423zm2.6211-0.25324c-0.0751-0.50437-0.74528-1.0793-0.98213-0.84241-0.0734 0.07338-0.0106 0.4031 0.13961 0.73269 0.33313 0.73113 0.94686 0.81105 0.84252 0.10971zm19.315 0.08606c-0.0715-0.07146 0.0324-0.37779 0.23097-0.68073 0.4482-0.68402 0.3595-0.78037-0.55081-0.5983-0.48885 0.09777-0.72018 0.27608-0.72018 0.55511 0 0.50854 0.6404 1.1811 0.94524 0.99272 0.12359-0.07638 0.16624-0.19735 0.0948-0.26881zm-25.19-0.29924c0.19992-0.37356 0.17732-0.55965-0.10595-0.87266-0.19803-0.21882-0.36005-0.51438-0.36005-0.6568 0-0.40889-0.79878-0.73083-1.8133-0.73083-0.76835 0-0.97631 0.0982-1.1869 0.56048-0.48219 1.0583 0.75195 2.0821 2.5934 2.1514 0.40954 0.01541 0.70469-0.13728 0.87288-0.45154zm-4.2365-0.22471c-0.21433-0.3468-0.55678-0.24086-0.41508 0.1284 0.0719 0.18732 0.22419 0.2828 0.33845 0.21218 0.11427-0.07063 0.14875-0.22388 0.0766-0.34058zm28.057-0.0041c0.23487-0.38005-0.2934-0.81586-0.60782-0.50143-0.26301 0.263-0.0984 0.74921 0.25365 0.74921 0.11057 0 0.26993-0.1115 0.35417-0.24778zm-6.866-0.91766c-0.19422-0.31426-0.78177-0.23775-0.78177 0.10179 0 0.16715 0.0675 0.37139 0.14997 0.45387 0.20612 0.20612 0.78692-0.30469 0.6318-0.55567zm-10.127 0.38635c0-0.05243-0.0622-0.25756-0.13835-0.45585-0.19543-0.50928-0.54543-0.44811-0.54543 0.09532 0 0.25325 0.15195 0.45585 0.34189 0.45585 0.18804 0 0.34189-0.0429 0.34189-0.09532zm27.301-0.90248c0.81648-0.88578 0.95803-0.95952 1.2607-0.6568 0.37738 0.37738 0.84059 0.21415 0.84059-0.2962 0-0.19838-0.22563-0.32844-0.56981-0.32844-0.35455 0-0.56981-0.12916-0.56981-0.34189 0-0.85032-1.7151 0.23907-1.8788 1.1934-0.0594 0.34652-0.18483 0.80952-0.27866 1.0289-0.30133 0.70461 0.24762 0.42964 1.1957-0.59894zm6.204 0.69238c0.40571-0.02596 0.56982-0.16775 0.56982-0.49232 0-0.41664-0.15195-0.45585-1.7664-0.45585-0.97152 0-1.7664 0.03683-1.7664 0.08184-0.00001 0.04501 0.23076 0.33038 0.51281 0.63415 0.40573 0.43696 0.65565 0.52268 1.1966 0.41048 0.37607-0.078 0.94019-0.15824 1.2536-0.1783zm-35.556-0.35045c0-0.23537 0.15384-0.55562 0.34188-0.71168s0.34189-0.4694 0.34189-0.69632c0-0.52312-0.89366-0.83828-1.1646-0.41071-0.23208 0.36627-0.26886 1.8768-0.051 2.0947 0.28304 0.28304 0.53183 0.15393 0.53183-0.27599zm9.9587-0.13654c1.2479-0.19047 1.3379-0.81962 0.10536-0.73708-0.48199 0.03227-1.0461 0.22844-1.2536 0.43592-0.5218 0.52181-0.47156 0.71972 0.1356 0.53417 0.28205-0.0862 0.73774-0.19105 1.0126-0.23301zm-12.764-0.26621c0.15049-0.39216-0.45413-0.9927-0.99944-0.9927-0.43937 0-0.36304 0.85136 0.10054 1.1214 0.55984 0.32608 0.73397 0.30115 0.8989-0.12867zm20.355 0.14692c0-0.4642-0.12853-0.56812-0.74076-0.59891-0.72758-0.03659-0.7833 0.08796-0.22792 0.50955 0.476 0.36133 0.96868 0.40678 0.96868 0.08936zm3.1909-0.22358c0-0.52186-1.0298-0.8891-1.4145-0.50441-0.41954 0.41955-0.0135 0.95592 0.72358 0.95592 0.53676 0 0.69092-0.10074 0.69092-0.45151zm-30.086-0.0043c0-0.12536-0.15385-0.22792-0.34189-0.22792s-0.34189 0.10257-0.34189 0.22792c0 0.12536 0.15385 0.22792 0.34189 0.22792s0.34189-0.10257 0.34189-0.22792zm8.1053-0.63978c-0.13837-0.43598-0.76678-0.84867-0.97509-0.64036-0.0539 0.05398 0.072 0.42716 0.27995 0.82929 0.41006 0.79296 0.9594 0.64366 0.69514-0.18893zm6.8107-0.11704c0.66777-0.98401 0.72556-1.2945 0.24097-1.2945-0.18804 0-0.34188-0.15385-0.34188-0.34189 0-0.38348-1.0259-0.48232-1.2496-0.1204-0.0753 0.12182 0.0297 0.47578 0.23337 0.78658 0.21789 0.33254 0.30953 0.75644 0.22269 1.0301-0.0812 0.25573-0.0794 0.57528 0.004 0.7101 0.1803 0.29173 0.15556 0.31312 0.89054-0.76994zm9.4719 0.12007c0-0.19416-0.16203-0.53205-0.36005-0.75087-0.29074-0.32127-0.30862-0.49396-0.0928-0.89713 0.38331-0.71624-0.0353-1.0879-0.77789-0.69046-0.48453 0.25931-0.54725 0.43201-0.48657 1.3397 0.0806 1.2051 0.84204 2.0782 1.405 1.611 0.17181-0.1426 0.31239-0.41812 0.31239-0.61228zm-3.2147-0.02751c0.46664-0.29548 0.12467-0.93121-0.5009-0.93121-0.71161 0-0.87604 0.19594-0.59892 0.71374 0.24761 0.46266 0.60194 0.53272 1.0998 0.21747zm-21.173-0.32341c0-0.16715-0.0557-0.35955-0.12367-0.42757-0.068-0.06802-0.15449-0.90664-0.19216-1.8636-0.073-1.8556-0.15817-2.0927-0.67948-1.8926-0.47744 0.18321-0.24795 3.7947 0.26706 4.2028 0.46517 0.36862 0.72825 0.36176 0.72825-0.01899zm4.0708-0.37988c0.29441 0 0.33725-0.43705 0.0821-0.83814-0.0939-0.14758-0.57948-0.30143-1.0792-0.34189-0.83811-0.06786-0.91397-0.02613-0.97921 0.53876-0.0549 0.47565 0.0722 0.68893 0.56981 0.95559 0.55694 0.29848 0.67356 0.30037 0.89358 0.01447 0.13918-0.18084 0.36995-0.3288 0.51283-0.3288zm8.3885-0.09864c-0.16516-0.43043-0.83515-0.47929-0.83515-0.06091 0 0.16297 0.12308 0.41938 0.27351 0.56981 0.34709 0.34709 0.75002-0.01801 0.56164-0.50891zm15.534-0.09015c0.0473-0.32171-0.0477-0.49498-0.27146-0.49498-0.44919 0-0.63632 0.3216-0.45781 0.7868 0.19212 0.50067 0.63896 0.32187 0.72927-0.29182zm-1.3868 0.01728c0.16163-0.4212-0.94399-1.5345-1.3034-1.3124-0.14931 0.09228-0.22086 0.36134-0.159 0.59791 0.0618 0.23657 0.0195 0.43012-0.0941 0.43012-0.11363 0-0.20659 0.15073-0.20659 0.33495 0 0.44866 1.589 0.40304 1.7631-0.05061zm-18.069-0.26858c0.0721-0.1167 0.0269-0.2766-0.10052-0.35534-0.1274-0.07874-0.23164 0.01674-0.23164 0.21218 0 0.40036 0.13677 0.4593 0.33216 0.14316zm10.787-0.26922c0.0527-0.27666-0.17088-0.39973-0.905-0.4982-1.2082-0.16206-1.3676-0.02744-0.63841 0.5393 0.65703 0.51066 1.4423 0.48975 1.5434-0.04109zm14.848-1.1467c0.0107-0.5537-0.10268-0.87589-0.3403-0.96707-0.19599-0.07521-0.29836-0.23054-0.22751-0.34518 0.14116-0.22842-0.98593-2.074-1.2666-2.074-0.0957 0-0.23738 0.10257-0.31486 0.22792-0.0775 0.12536-0.44251 0.22792-0.81118 0.22792-0.36868 0-0.67033 0.11599-0.67033 0.25775 0 0.16698 0.27926 0.21243 0.79302 0.12906 0.76476-0.1241 0.80162-0.09673 1.0346 0.76852 0.13287 0.49347 0.47933 1.053 0.76992 1.2434 0.38475 0.2521 0.49917 0.49865 0.42105 0.90729-0.059 0.30862-0.0333 0.74232 0.057 0.96379 0.15181 0.37213 0.17848 0.3681 0.35171-0.05318 0.10309-0.25072 0.19465-0.8295 0.20345-1.2862zm9.3609 1.0431c0-0.50366-0.0871-0.57493-0.6268-0.51283-0.44878 0.05164-0.64747 0.21776-0.69962 0.58495-0.062 0.43626 0.0316 0.51283 0.62679 0.51283 0.59915 0 0.69963-0.08401 0.69963-0.58495zm-45.253-0.64335c-0.0845-0.45046-0.23534-0.76854-0.33519-0.70684-0.16571 0.10242-0.11362 0.63176 0.14319 1.4549 0.19551 0.62668 0.34248 0.05404 0.192-0.7481zm30.438 0.77245c0-0.12536-0.10257-0.22792-0.22793-0.22792s-0.22792 0.10257-0.22792 0.22792c0 0.12536 0.10256 0.22792 0.22792 0.22792s0.22793-0.10257 0.22793-0.22792zm2.7351 0.01753c0-0.37293-1.385-1.6087-1.9666-1.7547-0.40099-0.10064-0.65713-0.01833-0.88683 0.28498-0.64284 0.84886-0.32559 1.2499 0.5978 0.75576 0.58336-0.3122 1.2831-0.08234 1.4616 0.48014 0.14034 0.44217 0.79403 0.63465 0.79403 0.2338zm8.8891-0.13149c0-0.18804-0.10256-0.34189-0.22792-0.34189s-0.22793 0.15385-0.22793 0.34189 0.10257 0.34189 0.22793 0.34189 0.22792-0.15385 0.22792-0.34189zm-38.596-0.66845c-0.19406-0.5057-0.83515-0.44456-0.83515 0.07965 0 0.48008 0.45388 0.75186 0.77102 0.46167 0.11066-0.10126 0.13952-0.34486 0.0641-0.54132zm8.9656 0.57077c0-0.26738-0.65102-0.92798-0.91452-0.92798-0.30704 0-0.5072 0.44175-0.36641 0.80865 0.13786 0.35926 1.2809 0.46575 1.2809 0.11933zm-10.257-0.2442c0-0.12536-0.10863-0.22792-0.24138-0.22792s-0.17799 0.10257-0.10051 0.22792c0.0775 0.12536 0.18609 0.22792 0.24138 0.22792 0.0553 0 0.10051-0.10257 0.10051-0.22792zm7.2214-0.27066c-0.0728-0.18182-0.12676-0.12782-0.1377 0.1377-0.01 0.24027 0.044 0.37489 0.11971 0.29915 0.0757-0.07574 0.0838-0.27232 0.018-0.43686zm19.514 0.35466c0.0792-0.07916 0.0413-0.33558-0.084-0.56981-0.15435-0.28841-0.15176-0.42588 0.008-0.42588 0.29059 0 0.3151-1.0638 0.0286-1.2409-0.11405-0.07048-0.37047-0.06557-0.56982 0.01093-0.40372 0.15492-0.49041 0.89603-0.13081 1.1183 0.1274 0.07874 0.17835 0.22938 0.11323 0.33477-0.27654 0.44745 0.28116 1.1262 0.63478 0.77259zm5.6284-0.48286c-0.002-0.20469-1.1058-0.74076-1.5252-0.74076-0.31063 0-0.40549 0.49875-0.1445 0.75975 0.20915 0.20914 1.6719 0.1925 1.6697-0.01899zm-35.327-0.85472c0-0.62137-0.078-0.68757-1.0566-0.89728-0.68031-0.14578-0.71307-0.1204-0.6805 0.5273 0.0189 0.37425 0.12602 0.76445 0.2382 0.86711 0.11708 0.10714 0.143 0.01673 0.0609-0.21222-0.20459-0.57017 0.44783-0.5156 0.75769 0.06336 0.30592 0.57163 0.68035 0.37997 0.68035-0.34827zm9.0413 0.43818c0.17286-0.45046-0.30335-0.93121-1.121-1.1317-0.73244-0.17957-0.83285 0.18392-0.27199 0.98466 0.41132 0.58724 1.1924 0.66967 1.393 0.147zm4.6341-0.10974c0-0.11796-0.15063-0.21447-0.33474-0.21447-0.20332 0-0.28342 0.1337-0.20403 0.34058 0.13454 0.35061 0.53877 0.25599 0.53877-0.12611zm32.017 0.02341c0.0741-0.11988 0.26884-0.1665 0.43278-0.10359s0.43169-0.04662 0.59499-0.24339c0.3411-0.411 0.12028-0.78208-0.2469-0.4149-0.2302 0.2302-1.1166 0.14885-1.1166-0.10247 0-0.0646 0.21234-0.46103 0.47187-0.88096 0.5333-0.86289 0.4202-1.3552-0.23125-1.0065-0.22852 0.1223-0.48336 0.58413-0.56631 1.0263-0.0829 0.44215-0.24873 0.80391-0.36841 0.80391-0.30583 0-0.27102 0.53918 0.0559 0.86612 0.32887 0.32887 0.78879 0.3551 0.97393 0.05554zm-30.194-0.83559c0-0.17269 0.15385-0.31398 0.34189-0.31398 0.18803 0 0.34188-0.10257 0.34188-0.22792 0-0.40272-1.0553-0.24299-1.4776 0.22365-0.33602 0.3713-0.35718 0.51361-0.11905 0.80055 0.22045 0.26562 0.36406 0.2872 0.60127 0.09033 0.17141-0.14226 0.31165-0.39994 0.31165-0.57262zm23.476 0.30655c0-0.28551 0.15372-0.73855 0.34158-1.0068 0.22053-0.31485 0.25487-0.51658 0.0969-0.56923-0.13458-0.04485-0.27779-0.72664-0.31826-1.5151-0.0405-0.78843-0.13472-1.4947-0.20947-1.5694-0.0748-0.07474-0.34165 0.05032-0.59313 0.27791-0.50951 0.4611-0.572 1.2786-0.21581 2.8236 0.18696 0.81092 0.16446 1.0717-0.11953 1.3855-0.50337 0.55622-0.43763 0.69255 0.33394 0.69255 0.5596 0 0.68377-0.09427 0.68377-0.5191zm-12.764 0.06325c0-0.12536 0.15384-0.22792 0.34188-0.22792 0.41065 0 0.46461-0.67247 0.057-0.71002-1.0656-0.09817-1.6796 0.24146-1.4619 0.80866 0.14923 0.38891 1.0631 0.50005 1.0631 0.12928zm14.815 0c0-0.12536-0.10257-0.22792-0.22793-0.22792s-0.22792 0.10257-0.22792 0.22792c0 0.12536 0.10256 0.22792 0.22792 0.22792s0.22793-0.10257 0.22793-0.22792zm-34.872-0.41026c0-0.10029-0.12308-0.30542-0.27351-0.45585-0.21273-0.21273-0.18741-0.27351 0.11396-0.27351 0.56431 0 0.47399-0.61658-0.15022-1.0256-0.79444-0.52054-1.2302-0.24118-1.2446 0.79785-0.0101 0.73214 0.0732 0.9002 0.48616 0.98047 0.86603 0.16836 1.0682 0.16393 1.0682-0.02339zm4.5574-0.10257c-0.00062-0.1567-0.2314-0.56154-0.51283-0.89965-0.39211-0.47107-0.75141-0.63088-1.5374-0.68377-0.95137-0.06403-1.0257-0.02919-1.0257 0.48111 0 0.45476 0.19757 0.61963 1.1396 0.95101 1.3817 0.48601 1.9377 0.52947 1.9362 0.1513zm9.346-0.53722c0-0.17463-0.20513-0.3175-0.45585-0.3175-0.42908 0-0.61976 0.44389-0.3196 0.74404 0.2218 0.2218 0.77545-0.08273 0.77545-0.42654zm12.472 0.3385c0.40675-0.40675 0.0719-0.88392-0.62038-0.88392-0.34925 0-0.68924 0.14135-0.75554 0.31411-0.14682 0.38261 0.25854 0.82551 0.75554 0.82551 0.20057 0 0.47974-0.11506 0.62038-0.2557zm1.4309 0.04122c0-0.30778-0.41549-0.52114-0.68749-0.35304-0.1274 0.07874-0.17264 0.23864-0.10051 0.35534 0.1711 0.27684 0.788 0.27504 0.788-0.0023zm-20.741-0.24138c0-0.12536-0.0452-0.22792-0.1005-0.22792s-0.1639 0.10257-0.24138 0.22792c-0.0775 0.12536-0.0322 0.22792 0.1005 0.22792 0.13276 0 0.24138-0.10257 0.24138-0.22792zm9.507-0.15728c0.0825-0.21506 0.029-0.42479-0.12111-0.47484-0.14791-0.04931-0.26893-0.22239-0.26893-0.38463 0-0.36186-0.4027-0.69963-1.0826-0.90808-0.69243-0.21228-0.66419 0.20039 0.088 1.2858 0.64355 0.92864 1.1461 1.1035 1.3847 0.48177zm5.3521-0.06273c0.39898-0.3717 0.4314-0.50746 0.19049-0.79774-0.15967-0.19239-0.36299-0.3498-0.45182-0.3498-0.27784 0-0.75595 1.0835-0.59385 1.3458 0.21012 0.33998 0.29974 0.3192 0.85518-0.19827zm-16.533-0.33997c-0.0742-0.19344-0.24076-0.35172-0.37004-0.35172-0.33403 0-0.29235 0.62533 0.0498 0.74754 0.3872 0.13829 0.48078 0.02261 0.32022-0.39582zm31.703-0.02731c0.28206-0.05785 0.51283-0.24179 0.51283-0.40877s0.26047-0.79347 0.57881-1.3922c0.31835-0.59873 0.52872-1.1387 0.46749-1.1999-0.20664-0.20663-1.5124 0.3745-2.9931 1.3321-0.80963 0.5236-1.472 1.0066-1.472 1.0733 0 0.06669 0.17104 0.31025 0.38008 0.54124 0.37483 0.41419 0.73349 0.4219 2.526 0.05429zm-43.932-0.2176c0-0.36392-0.60574-0.71667-0.83572-0.48668-0.0728 0.07276-0.0716 0.29056 0.003 0.48401 0.17479 0.45551 0.83305 0.45763 0.83305 0.0027zm26.865 0.04316c0.13962-0.16823 0.17867-0.38106 0.0868-0.47294-0.0919-0.09189 0.0138-0.26824 0.23469-0.39191 0.22098-0.12366 0.34227-0.3211 0.26956-0.43875-0.18125-0.29327-0.56115-0.26994-0.56115 0.03446 0 0.1366-0.22146 0.42769-0.49212 0.64686-0.27692 0.22424-0.42054 0.5143-0.32844 0.66333 0.21542 0.34853 0.4787 0.33486 0.79067-0.04104zm18.813-0.39538c0.60864-0.72333 0.74455-1.1221 0.3824-1.1221-0.25283 0-1.3878 1.3191-1.3878 1.613 0 0.4084 0.42216 0.20231 1.0054-0.49082zm-24.853 0.17746c0.0792 0.07916 0.14393 0.02427 0.14393-0.12198s-0.10257-0.26591-0.22793-0.26591-0.22792-0.15707-0.22792-0.34904c0-0.49416-0.62042-0.67105-1.0636-0.30325-0.20571 0.17072-0.43518 0.27934-0.50993 0.24138-0.0748-0.03796-0.16707 0.07986-0.20516 0.26182-0.0867 0.41406 1.0718 0.84151 1.5778 0.58215 0.20289-0.10401 0.43366-0.12434 0.51283-0.04518zm-6.536-0.61483c0.24204-0.64122 0.0366-1.1836-0.26406-0.69719-0.087 0.14083-0.3417 0.1454-0.69146 0.01243-0.66548-0.25302-0.89983 0.01804-0.70089 0.81069 0.10601 0.42236 0.29179 0.55686 0.76922 0.55686 0.4899 0 0.68661-0.15139 0.88719-0.68279zm-12.842 0.25717c0.38064-0.14979 0.38637-0.19437 0.0599-0.46533-0.43235-0.35882-1.0507-0.17403-1.0507 0.31399 0 0.37223 0.30937 0.41949 0.99078 0.15134zm30.103-0.2681c0.34802-0.34018-0.25151-1.3576-0.79998-1.3576-0.40399 0-0.46145 0.0956-0.34243 0.56981 0.1262 0.50281 0.0704 0.56981-0.4747 0.56981-0.59346 0-0.60034 0.01337-0.17529 0.34052 0.44536 0.34277 1.3819 0.27874 1.7924-0.12254zm-19.242-0.20314c0-0.93641-0.42687-1.6103-1.02-1.6103-0.65135 0-0.6771 0.06114-0.31824 0.75574 0.61289 1.1863 1.3383 1.6495 1.3383 0.85457zm11.624 0.21309c0-0.12536-0.0452-0.22792-0.10051-0.22792-0.0553 0-0.1639 0.10257-0.24138 0.22792-0.0775 0.12536-0.0322 0.22792 0.10051 0.22792 0.13275 0 0.24138-0.10257 0.24138-0.22792zm-19.882-0.27066c-0.14087-0.42262-0.63154-0.49272-0.63154-0.09022 0 0.19848 0.1624 0.36088 0.36088 0.36088 0.19849 0 0.32028-0.1218 0.27066-0.27066zm11.766-0.08987c0.19212-0.50065 0.20274-0.48572-0.43146-0.60696-0.61308-0.1172-0.76101 0.22926-0.2963 0.69397 0.36762 0.36762 0.56224 0.34435 0.72776-0.08702zm1.278-0.09532c0-0.12536-0.0452-0.22792-0.10051-0.22792-0.0553 0-0.1639 0.10257-0.24138 0.22792-0.0775 0.12536-0.0322 0.22792 0.10051 0.22792 0.13276 0 0.24138-0.10257 0.24138-0.22792zm9.6955-1.5165c0.43724-0.95944 0.74034-1.7991 0.67358-1.8658-0.29412-0.29412-1.3518 0.3745-1.7393 1.0995-0.41943 0.7847-0.56725 2.0641-0.27255 2.3588 0.34673 0.34672 0.58235 0.06634 1.3383-1.5925zm14.753 1.3258c1.0729-0.70745 1.6243-1.6327 0.97305-1.6327-0.44873 0-1.9453 1.3333-1.9453 1.733 0 0.42163 0.21411 0.39953 0.97224-0.10038zm-22.606-0.037c0.34132 0 0.23806-0.45911-0.13551-0.60246-0.40811-0.15661-1.0767 0.33077-0.88323 0.64383 0.074 0.1197 0.28637 0.15936 0.47198 0.08814 0.18561-0.07123 0.43165-0.1295 0.54676-0.1295zm-11.239-0.46383c0.0767-0.40273-1.9168-1.9054-2.111-1.5912-0.0695 0.11245 0.0683 0.39007 0.30625 0.61692s0.50545 0.64921 0.59445 0.93857c0.18496 0.60134 1.0975 0.62826 1.2102 0.03572zm21.09-0.17026c-0.27414-0.77419-0.79871-1.2073-1.1296-0.93267-0.39973 0.33175-0.39555 0.88299 0.007 0.88299 0.17268 0 0.44072 0.15272 0.59564 0.33938 0.3547 0.42739 0.71174 0.23122 0.52729-0.2897zm7.4863 0.2922c0-0.11909-0.11025-0.25328-0.24502-0.2982-0.13475-0.04492-0.24502 0.08927-0.24502 0.2982s0.11027 0.34312 0.24502 0.2982c0.13477-0.04492 0.24502-0.17911 0.24502-0.2982zm-12.855-0.28491c0.0556-0.16711-0.10146-0.28491-0.37998-0.28491-0.27997 0-0.47484 0.14717-0.47484 0.3586 0 0.4189 0.71122 0.35758 0.85482-0.0737zm14.354-0.11396c0.5319-1.1245 0.76144-3.0303 0.58336-4.8434-0.26755-2.724-0.65822-2.2682-1.1223 1.3094-0.0837 0.64509-0.0419 1.2 0.10363 1.3753 0.16331 0.19677 0.17465 0.59256 0.0343 1.1978-0.11526 0.49714-0.21201 1.0321-0.21501 1.1888-0.009 0.46087 0.35358 0.32679 0.61596-0.22792zm-24.965-0.73457c-0.27121-0.59525-0.95599-0.79927-0.95599-0.28482 0 0.16014 0.16572 0.52777 0.36827 0.81694 0.50156 0.71608 0.96518 0.29632 0.58772-0.53212zm8.0606 0.76968c0.0849-0.13739-0.0154-0.41944-0.22271-0.62679-0.32679-0.32669-0.40468-0.3324-0.58375-0.04275-0.12853 0.20789-0.11486 0.44484 0.0362 0.62679 0.29747 0.35844 0.56599 0.37334 0.7703 0.04275zm12.812-0.16029c0.056-0.17056-0.20229-0.4092-0.60924-0.5628-0.38857-0.14667-0.7065-0.39804-0.7065-0.55859s-0.10257-0.29192-0.22793-0.29192c-0.29531 0-0.29474 0.38765 0.00076 0.57033 0.12582 0.07776 0.16411 0.39898 0.0851 0.71382-0.134 0.53391-0.0931 0.56749 0.6084 0.49886 0.41365-0.04046 0.79585-0.20683 0.84935-0.3697zm-31.402-0.04576c0-0.12536-0.15385-0.22792-0.34189-0.22792s-0.34189 0.10257-0.34189 0.22792c0 0.12536 0.15385 0.22792 0.34189 0.22792s0.34189-0.10257 0.34189-0.22792zm7.5215 0c0-0.12536-0.10257-0.22792-0.22792-0.22792-0.12536 0-0.22793 0.10257-0.22793 0.22792 0 0.12536 0.10257 0.22792 0.22793 0.22792 0.12535 0 0.22792-0.10257 0.22792-0.22792zm-4.863-0.35721c0.0754-0.19646 0.022-0.47236-0.11883-0.61311-0.31402-0.31401-1.9598 0.38992-1.7407 0.7445 0.23144 0.37447 1.7054 0.27032 1.8595-0.13139zm19.45-0.56794c0-0.75161-0.3661-0.87247-0.82233-0.27146-0.41901 0.55197-0.38984 0.91878 0.0816 1.0258 0.59453 0.135 0.74075-0.01391 0.74075-0.75438zm-27.351 0.4693c0-0.12536-0.10256-0.22792-0.22792-0.22792s-0.22793 0.10257-0.22793 0.22792c0 0.12536 0.10257 0.22792 0.22793 0.22792s0.22792-0.10257 0.22792-0.22792zm0.9117 0c0-0.12536-0.0452-0.22792-0.10051-0.22792-0.0553 0-0.1639 0.10257-0.24138 0.22792-0.0775 0.12536-0.0322 0.22792 0.10052 0.22792 0.13275 0 0.24137-0.10257 0.24137-0.22792zm1.4815 0c-0.0775-0.12536-0.23738-0.22792-0.35533-0.22792-0.11797 0-0.21448 0.10257-0.21448 0.22792 0 0.12536 0.1599 0.22792 0.35534 0.22792 0.19543 0 0.29195-0.10257 0.21447-0.22792zm31.247-0.03458c0.21253-0.34388-0.60627-0.95321-0.8941-0.66537-0.29038 0.29039-0.0182 0.92787 0.39628 0.92787 0.18457 0 0.40859-0.11812 0.49782-0.2625zm4.1952-0.07938c0-0.18804-0.0965-0.34189-0.21447-0.34189-0.28742 0-0.49326 0.35592-0.31116 0.53802 0.25668 0.25668 0.52563 0.15633 0.52563-0.19613zm-25.846-0.50808c-0.23169-0.23169-0.42286 0.11713-0.23276 0.42471 0.1436 0.23235 0.19728 0.23253 0.27449 0.000911 0.0528-0.15836 0.034-0.34989-0.0417-0.42563zm7.8396 0.2988c0-0.56384-0.2663-1.0443-0.57883-1.0443-0.34688 0-0.65994 0.7948-0.44809 1.1376 0.2155 0.34868 1.0269 0.27498 1.0269-0.09328zm24.371-0.27632c0.43031-0.54705 0.6131-1.0454 1.0551-2.8763 0.2626-1.0879-0.20924-0.68023-1.0947 0.94578-1.1559 2.1225-1.1293 3.4166 0.0397 1.9305zm-40.138-0.23072c-0.11147-0.56636-0.79756-0.93023-1.129-0.59878-0.20821 0.20821-0.20326 0.35069 0.0216 0.62167 0.39826 0.47987 1.203 0.46324 1.1074-0.02289zm14.317 0.03255c0.24844-0.64741-0.0781-1.04-0.67588-0.81273-0.40375 0.15351-0.63957 0.1149-0.90216-0.14768-0.368-0.368-1.0746-0.26199-1.0746 0.16122 0 0.13243 0.3054 0.30186 0.67866 0.37651 0.37327 0.07465 0.79609 0.27722 0.93961 0.45015 0.34396 0.41444 0.87019 0.40046 1.0344-0.02747zm3.2734 0.04558c0-0.38116-0.46216-0.84332-0.84332-0.84332-0.37915 0-0.38879 0.83639-0.0114 0.98867 0.52212 0.21068 0.85472 0.15411 0.85472-0.14535zm21.168-0.524c0.32236-0.70751 0.33697-1.6862 0.0251-1.6862-0.12849 0-0.29559 0.30983-0.37133 0.68852-0.0757 0.37868-0.22702 0.74372-0.33619 0.81119-0.10916 0.06747-0.19848 0.31853-0.19848 0.55792 0 0.58791 0.54924 0.35629 0.88083-0.37145zm5.9615 0.4736c0.15857-0.19107 0.22489-0.41082 0.14738-0.48833-0.16554-0.16554-0.83573 0.34425-0.83573 0.63571 0 0.31395 0.37149 0.23442 0.68835-0.14738zm-24.208-0.12555c-0.0449-0.13476-0.17911-0.24502-0.2982-0.24502s-0.25328 0.11026-0.2982 0.24502c-0.0449 0.13476 0.0893 0.24502 0.2982 0.24502 0.20893 0 0.34313-0.11026 0.2982-0.24502zm12.523-0.15373c0.12462-0.37428-0.58953-0.64146-0.89584-0.33515-0.13107 0.13108-0.1659 0.35551-0.0774 0.49873 0.20138 0.32584 0.84636 0.21744 0.97322-0.16358zm-13.2-0.48458c0.0419-0.29523-0.0169-0.62995-0.13074-0.74381-0.29794-0.29794-1.0579 0.6166-0.88557 1.0657 0.20512 0.53454 0.92711 0.30587 1.0163-0.32188zm2.5449-0.17024c0-0.17269-0.10257-0.31398-0.22793-0.31398s-0.22792-0.23359-0.22792-0.5191c0-0.2855-0.17753-0.77256-0.39452-1.0823-0.21697-0.30979-0.40649-0.66595-0.42113-0.79147-0.0147-0.12552-0.0422-0.36293-0.0613-0.52757-0.0227-0.19558-0.29149-0.27459-0.77547-0.22792-0.61723 0.05951-0.75278 0.17594-0.81287 0.69821-0.0798 0.69349 0.003 0.74059 0.67417 0.38162 0.41695-0.22314 0.43514-0.20224 0.2024 0.23264-0.3085 0.57644-0.12623 0.9558 0.3681 0.7661 0.30196-0.11587 0.33342-0.01624 0.19453 0.61609-0.13916 0.63362-0.0801 0.81887 0.36923 1.1578 0.56586 0.42683 1.1128 0.23512 1.1128-0.39007zm20.496 0.23557c0.48734-0.41007 0.70127-0.79248 0.70127-1.2536 0-0.7305-0.24774-0.84702-0.68378-0.32163-0.15606 0.18804-0.5276 0.34189-0.82564 0.34189-0.29805 0-0.54191 0.08975-0.54191 0.19943 0 0.10969-0.0641 0.51995-0.14245 0.9117-0.12245 0.61228-0.0769 0.71226 0.3244 0.71226 0.25677 0 0.78242-0.26553 1.1681-0.59007zm-45.796 0.135c0-0.12536-0.15385-0.22792-0.34189-0.22792s-0.34189 0.10257-0.34189 0.22792c0 0.12536 0.15385 0.22792 0.34189 0.22792s0.34189-0.10257 0.34189-0.22792zm8.3095-0.21218c0.0721-0.1167 0.0269-0.2766-0.10051-0.35534s-0.23164 0.01674-0.23164 0.21218c0 0.40036 0.13677 0.4593 0.33215 0.14316zm1.4912 0.11166c0-0.05528-0.10256-0.1639-0.22792-0.24138s-0.22793-0.03224-0.22793 0.10051c0 0.13276 0.10257 0.24138 0.22793 0.24138s0.22792-0.04523 0.22792-0.10051zm9.117-0.22792c0-0.18064-0.0955-0.38744-0.21218-0.45957-0.27098-0.16747-0.54351 0.25933-0.35763 0.56008 0.20959 0.33912 0.56981 0.27558 0.56981-0.10051zm2.1261-0.25383c-0.0216-0.23058 0.13216-0.5445 0.34153-0.69759 0.21603-0.15797 0.2934-0.36034 0.17888-0.46793-0.11098-0.10427-0.2473-0.06219-0.30293 0.09351-0.0741 0.20731-0.2195 0.21974-0.54332 0.04644-0.85091-0.45539-1.1622 0.20409-0.52545 1.1132 0.41328 0.59004 0.90979 0.53895 0.85129-0.0876zm-6.6846-0.07493c0-0.23758 0.20355-0.4825 0.45584-0.54847 0.82386-0.21544 0.5815-0.85904-0.64907-1.7237-0.54173-0.38063-0.83374-0.46543-1.0068-0.29238-0.17305 0.17305-0.11701 0.29068 0.19324 0.40554 0.70603 0.26141 0.80162 0.62447 0.27082 1.0286-0.43323 0.32987-0.46198 0.45261-0.22683 0.96868 0.31165 0.68402 0.9628 0.79336 0.9628 0.16168zm13.293 0.10966c0.14249-0.3713-0.0489-0.6344-0.33358-0.45848-0.25891 0.16001-0.25303 0.77809 0.008 0.77809 0.11195 0 0.25873-0.14382 0.32618-0.3196zm6.7188-0.0551c0.37268-0.09982 0.5048-0.28058 0.45585-0.62368-0.0562-0.39402-0.24546-0.49304-1.0261-0.53692-1.1173-0.0628-1.3207 0.13352-0.84377 0.8144 0.36545 0.52176 0.57087 0.57205 1.4141 0.34621zm-28.218-0.43018c0-0.19197 0.15385-0.40808 0.34189-0.48024 0.18803-0.07215 0.34188-0.26691 0.34188-0.43278 0-0.22977 0.17057-0.25267 0.71623-0.09618 0.79073 0.22678 1.1072 0.12613 1.1072-0.35214 0-0.22513-0.26203-0.30128-0.9117-0.26497-0.50143 0.02803-0.9117-0.02888-0.9117-0.12647 0-0.40778-0.666-0.13663-0.81463 0.33166l-0.16158 0.50909-0.18832-0.50909c-0.20894-0.56481-0.54006-0.65778-0.80662-0.22648-0.11789 0.19075-0.21821 0.09814-0.30863-0.28491-0.2042-0.865-1.0251-0.77436-1.0251 0.11319 0 0.51997 0.14996 0.75258 0.63512 0.98511 0.34931 0.16742 0.75861 0.50214 0.90954 0.74383 0.32683 0.52334 1.0765 0.58628 1.0765 0.09038zm25.332-0.72346c0.98173-0.74867 1.1075-0.94277 1.1075-1.7094 0-0.47568 0.10257-0.86486 0.22793-0.86486s0.22792-0.15385 0.22792-0.34189c0-0.19365-0.2043-0.34189-0.47121-0.34189-0.36748 0-0.43935-0.10034-0.32652-0.45585 0.10267-0.3235 0.0409-0.45585-0.21257-0.45585-0.2268 0-0.35725 0.20314-0.35725 0.55636 0 0.306-0.095 0.61508-0.21113 0.68685-0.12872 0.07955-0.12986 0.41387-0.003 0.85652 0.1965 0.68516 0.0136 1.0758-0.50922 1.0877-0.0844 0.0019-0.47196 0.2715-0.86125 0.59906-0.55963 0.4709-0.65288 0.66174-0.44543 0.9117 0.38753 0.46694 0.61479 0.40147 1.8342-0.52844zm-13.48 0.27476c0-0.18804-0.10257-0.34189-0.22793-0.34189-0.12535 0-0.22792 0.15385-0.22792 0.34189s0.10257 0.34189 0.22792 0.34189c0.12536 0 0.22793-0.15385 0.22793-0.34189zm8.3255-0.51283c-0.16912-0.91213-0.94019-2.3362-1.265-2.3362-0.42031 0-0.41726 0.4251 0.009 1.2613 0.24476 0.48008 0.39889 0.919 0.34252 0.97538-0.20167 0.20166 0.36034 0.95426 0.71259 0.95426 0.29134 0 0.32928-0.16155 0.20077-0.85472zm-25.319 0.41944c0.19669-0.31826-0.11123-0.93227-0.46753-0.93227-0.17462 0-0.3175 0.18804-0.3175 0.41786 0 0.64899 0.49954 0.97633 0.78503 0.51441zm8.6748-0.02218c0.078-0.12624-0.023-0.29276-0.2243-0.37004-0.4364-0.16746-0.67961 0.01708-0.46985 0.35649 0.18927 0.30624 0.5094 0.31249 0.69415 0.01355zm9.2641-0.5682c0-0.11909-0.11026-0.25328-0.24502-0.2982s-0.24502 0.08927-0.24502 0.2982 0.11026 0.34312 0.24502 0.2982 0.24502-0.17911 0.24502-0.2982zm26.374 0.0373c0.13903-0.16752 0.41197-0.75576 0.60652-1.3072 0.3209-0.90952 0.32039-1.027-0.005-1.2653-0.19757-0.14447-0.32974-0.36651-0.2937-0.49342 0.036-0.12691-0.037-0.21536-0.1624-0.19656-0.12536 0.0188-0.23238 0.49574-0.23783 1.0598-0.005 0.56411-0.13365 1.2497-0.2849 1.5235-0.48215 0.87284-0.20156 1.3772 0.37781 0.67908zm-15.514-0.19685c0.35025-0.35025 0.35604-0.93161 0.008-0.81563-0.14597 0.04865-0.41489 0.31362-0.59761 0.5888-0.28468 0.42874-0.28584 0.50034-0.008 0.50034 0.17825 0 0.44718-0.12308 0.59761-0.27351zm12.255-0.44028c0.34886-0.67461 0.32216-2.0848-0.0582-3.0761-0.16222-0.42274-0.85829-0.39569-1.2262 0.04765-0.23457 0.28263-0.24058 0.45409-0.0279 0.79464 0.14915 0.23884 0.27119 0.99975 0.27119 1.6909 0 1.4722 0.44156 1.7024 1.0412 0.54288zm1.5897-0.48281c0.19527-0.7965-0.20813-0.82972-0.71329-0.05874-0.45897 0.70047-0.26228 1.5251 0.24111 1.0109 0.17518-0.17895 0.38766-0.60743 0.47218-0.95216zm-33.453 0.69802c-0.14087-0.42262-0.63154-0.49272-0.63154-0.09022 0 0.19848 0.16239 0.36088 0.36088 0.36088 0.19848 0 0.32028-0.1218 0.27066-0.27066zm17.602-0.3126c0-0.37609-0.36022-0.43963-0.56981-0.10051-0.18588 0.30075 0.0866 0.72755 0.35763 0.56008 0.1167-0.07212 0.21218-0.27893 0.21218-0.45957zm8.124 0.23847c0.16023-0.41755-0.29907-1.0228-0.77619-1.0228-0.43851 0-0.95094 0.68547-0.80219 1.0731 0.15856 0.41321 1.4159 0.37311 1.5784-0.05033zm2.9007-0.16804c0.0756-0.28206 0.13884-0.79489 0.14055-1.1396 0.002-0.53342-0.0903-0.62627-0.62368-0.6233-0.93771 0.0052-1.282 0.3089-1.1132 0.98177 0.2991 1.1917 1.3486 1.7053 1.5963 0.78116zm-9.7067-0.13573c0.0653-0.19616-0.0443-0.27829-0.30412-0.22792-0.22342 0.04331-0.45218 0.21675-0.50834 0.38542-0.0653 0.19616 0.0443 0.27829 0.30411 0.22792 0.22342-0.04331 0.45218-0.21675 0.50835-0.38542zm-8.3836-0.36908c0-0.44024-0.77695-0.84315-1.2648-0.65593-0.33975 0.13037-0.32118 0.19817 0.15443 0.56393 0.6562 0.50463 1.1104 0.54226 1.1104 0.092zm-5.2423-0.23594c0-0.18804-0.15385-0.34189-0.34189-0.34189s-0.34189-0.15385-0.34189-0.34189c0-0.41213-0.26594-0.44062-0.63818-0.06838-0.42578 0.42578-0.32346 0.82479 0.23932 0.93318 0.95263 0.18348 1.0826 0.16175 1.0826-0.18103zm21.074-0.39887c-0.0846-0.28206-0.29285-0.65925-0.46283-0.8382-0.50688-0.53365-0.70625 0.34886-0.20416 0.90367 0.54074 0.59751 0.85651 0.56652 0.66699-0.06547zm-9.1557-1.3675c-0.12659-1.0926-0.41622-1.3956-0.6791-0.71056-0.0785 0.20464-0.0206 0.5678 0.12884 0.80701 0.14939 0.23921 0.21081 0.53332 0.13648 0.65358-0.18543 0.30003 0.12682 0.76017 0.35519 0.52342 0.10122-0.10494 0.12759-0.67799 0.0586-1.2734zm2.6452 1.2161c0.17496-0.11079 0.25555-0.36448 0.17907-0.56377-0.10971-0.2859-0.26097-0.31598-0.71698-0.14261-0.52217 0.19853-0.57795 0.16528-0.57795-0.34444 0-0.34954-0.13007-0.56417-0.34189-0.56417-0.18804 0-0.34188 0.09418-0.34188 0.20928s-0.0572 0.3583-0.12707 0.54042c-0.28516 0.7431 1.1218 1.375 1.9267 0.86528zm-3.8724-0.61512c-0.33118-0.39905-0.54265-0.24307-0.35024 0.25834 0.0773 0.20139 0.24878 0.29925 0.38111 0.21746 0.16523-0.10212 0.15556-0.25117-0.0308-0.4758zm-5.0721-0.21061c0.1979-0.51571-0.57755-1.2451-1.3237-1.2451-0.8459 0-0.81949 0.28801 0.0923 1.0066 0.86234 0.67963 1.0483 0.71564 1.2314 0.23848zm-3.5676-0.10547c0-0.12536-0.10257-0.22792-0.22792-0.22792-0.12536 0-0.22793 0.10257-0.22793 0.22792 0 0.12536 0.10257 0.22792 0.22793 0.22792 0.12535 0 0.22792-0.10257 0.22792-0.22792zm4.451-1.1325c-0.5477-0.6052-0.80416-0.58565-0.80416 0.06128 0 0.77644 0.46297 1.1618 0.8867 0.73808 0.29661-0.29661 0.28684-0.3912-0.0825-0.79936zm22.368-0.30778c0.0911-0.56118 0.0489-0.83893-0.12725-0.83893-0.32448 0-0.70795 0.96042-0.70795 1.7731 0 0.54259 0.0354 0.56838 0.34953 0.25428 0.19224-0.19224 0.41079-0.72705 0.48567-1.1885zm-4.482 0.72964c0-0.12536-0.10257-0.16454-0.22792-0.08706-0.12536 0.07748-0.22793 0.24343-0.22793 0.36879s0.10257 0.16454 0.22793 0.08706c0.12535-0.07748 0.22792-0.24343 0.22792-0.36879zm-16.224-0.37197c-0.0567-0.49231-0.2066-0.64227-0.69891-0.69891-0.48565-0.05588-0.62679 0.02367-0.62679 0.35328 0 0.54414 0.42827 0.97242 0.97242 0.97242 0.32961 0 0.40916-0.14114 0.35328-0.62679zm1.8872-0.90514c-0.19979-0.34322-0.23705-0.2976-0.24293 0.29734-0.004 0.38652 0.07 0.78088 0.16402 0.87636 0.2721 0.27631 0.33949-0.72602 0.0789-1.1737zm8.0508 1.1657c0.19829-0.07609 0.36053-0.23675 0.36053-0.35703 0-0.31877-1.2015-0.12603-1.312 0.21047-0.0997 0.30375 0.35806 0.37426 0.95145 0.14656zm-8.8582-1.5859c-0.0791-0.42184-0.24625-0.83025-0.37138-0.90758-0.29597-0.18292-0.21481 1.4512 0.10241 2.062 0.2234 0.43012 0.24173 0.43205 0.32481 0.03422 0.0484-0.2319 0.0233-0.76677-0.0558-1.1886zm6.2557 1.2684c0-0.12536-0.20513-0.22792-0.45585-0.22792s-0.45585 0.10257-0.45585 0.22792c0 0.12536 0.20513 0.22792 0.45585 0.22792s0.45585-0.10257 0.45585-0.22792zm5.2423-0.22792c0-0.12536-0.10257-0.22792-0.22793-0.22792s-0.22792 0.10257-0.22792 0.22792c0 0.12536 0.10256 0.22792 0.22792 0.22792s0.22793-0.10257 0.22793-0.22792zm3.7642-0.23349c0.19619-0.31743-0.10041-1.5899-0.37059-1.5899-0.33045 0-0.49648 0.61812-0.33686 1.2541 0.14847 0.59156 0.45845 0.7387 0.70745 0.33582zm3.0736-0.23582c0-0.11796-0.10257-0.21447-0.22793-0.21447s-0.22792 0.1599-0.22792 0.35534 0.10256 0.29195 0.22792 0.21447 0.22793-0.23738 0.22793-0.35534zm-11.894-0.469c1.0302-1.0072 0.94837-1.4734-0.189-1.0769-0.62377 0.21745-1.3632 1.0592-1.3632 1.5518 0 0.47536 0.84456 0.21698 1.5522-0.47488zm-4.9711 0.15446c0-0.18064-0.10256-0.39182-0.22792-0.4693s-0.22792 0.07032-0.22792 0.32844 0.10256 0.4693 0.22792 0.4693 0.22792-0.1478 0.22792-0.32844zm7.456-0.21342c-0.12784-0.38873-1.0741-0.46079-1.0741-0.0818 0 0.46409 0.1946 0.58969 0.7063 0.45588 0.24858-0.065 0.4141-0.23334 0.36781-0.37408zm8.0279-0.00002c0.2443-0.45649 0.22934-0.63444-0.095-1.1294-0.32042-0.48902-0.4542-0.54426-0.79805-0.32952-0.30369 0.18966-0.3638 0.38313-0.22697 0.73051 0.10237 0.25989 0.24255 0.65202 0.31149 0.87139 0.17302 0.55057 0.46492 0.49894 0.80848-0.143zm-18.789-0.24712c0-0.59677-1.1292-1.2499-1.5073-0.87182-0.20786 0.20787-0.18022 0.40666 0.12031 0.86534 0.46704 0.71279 1.387 0.71709 1.387 0.0065zm6.001-0.65404c0.0616-0.32313-0.0403-0.40033-0.45119-0.34189-0.29487 0.04194-0.56616 0.261-0.61037 0.49287-0.0616 0.32313 0.0403 0.40033 0.45119 0.34189 0.29487-0.04194 0.56615-0.261 0.61037-0.49287zm10.068-0.38036c0-0.44427-0.24175-0.59397-0.51612-0.3196-0.18259 0.18259 0.0564 0.77545 0.31259 0.77545 0.11194 0 0.20353-0.20513 0.20353-0.45585zm-16.056-0.627c-0.43728-1.7758-0.43203-1.8804 0.0943-1.8804 0.77098 0 0.42299-0.50962-0.41027-0.60084-0.54835-0.06003-0.76918 0.02131-0.86065 0.31703-0.0677 0.21878-0.21644 0.57322-0.33061 0.78764-0.37668 0.7074 0.40895 2.0034 1.2145 2.0034 0.3732 0 0.42158-0.10358 0.29274-0.62679zm2.3805 0.40602c0-0.12142 0.15385-0.16173 0.34188-0.08958 0.44891 0.17226 0.44212-0.35683-0.0129-1.0065-0.41445-0.5917-0.90041-0.6807-0.68752-0.12592 0.0803 0.20936 0.0251 0.45542-0.12279 0.54681-0.14787 0.09139-0.20584 0.33036-0.12883 0.53105 0.15176 0.39549 0.61017 0.50376 0.61017 0.14412zm-5.6981-0.463c0-0.25072-0.10257-0.45585-0.22792-0.45585-0.12536 0-0.22793 0.20513-0.22793 0.45585s0.10257 0.45585 0.22793 0.45585c0.12535 0 0.22792-0.20513 0.22792-0.45585zm8.6611 0.09497c0-0.4025-0.49067-0.3324-0.63155 0.09022-0.0496 0.14886 0.0722 0.27066 0.27067 0.27066 0.19848 0 0.36088-0.1624 0.36088-0.36088zm4.3306 0.14924c0-0.30238-0.66686-0.92855-0.98496-0.92487-0.73421 0.0085-1.2943 0.31455-1.2943 0.70724 0 0.36317 0.17548 0.42927 1.1396 0.42927 0.62679 0 1.1396-0.09524 1.1396-0.21164zm-5.5937-1.8967c0.13059-1.0948 0.0987-1.3106-0.19394-1.3106-0.71879 0-1.0246 1.2612-0.58575 2.4155 0.32336 0.85052 0.59179 0.47011 0.77969-1.1049zm1.8118 0.59972c0.0634-0.16512 0.021-0.35842-0.0941-0.42955-0.11804-0.07295-0.12797-0.34938-0.0228-0.63409 0.24556-0.66467 0.0831-1.0746-0.4259-1.0746-0.28916 0-0.44623 0.22075-0.52705 0.74076-0.0633 0.40742-0.18735 0.96496-0.27562 1.239-0.142 0.44083-0.0804 0.49596 0.53485 0.47846 0.38243-0.01087 0.74718-0.15487 0.81054-0.31999zm-4.3748-1.9103c0.10606-0.72258-0.13216-0.93291-0.36611-0.32324-0.2004 0.52223-0.16973 1.007 0.0637 1.007 0.11112 0 0.24721-0.3077 0.30241-0.68377zm1.6364-0.36053c0.21887-0.57034 0.16433-0.7791-0.20353-0.7791-0.21273 0-0.34189 0.21526-0.34189 0.56981 0 0.63658 0.3325 0.76416 0.54542 0.20928zm-8.7718 41.9c-0.0814-0.65813 0.0939-2.2609 0.26666-2.4388 0.13141-0.13529 0.21687-0.09253 0.22776 0.11396 0.0362 0.68526 0.18688 1.1958 0.42262 1.4315 0.46486 0.46486 0.2812 1.0642-0.32609 1.0642-0.3134 0-0.57933-0.07692-0.59095-0.17094z"/>
 </g>
</svg>
