<?xml version="1.0" encoding="UTF-8" standalone="no"?>
<!-- Created with Inkscape (http://www.inkscape.org/) -->
<svg id="svg2" xmlns:rdf="http://www.w3.org/1999/02/22-rdf-syntax-ns#" xmlns="http://www.w3.org/2000/svg" height="45" width="67.5" version="1.1" xmlns:cc="http://creativecommons.org/ns#" xmlns:dc="http://purl.org/dc/elements/1.1/">
 <metadata id="metadata7">
  <rdf:RDF>
   <cc:Work rdf:about="">
    <dc:format>image/svg+xml</dc:format>
    <dc:type rdf:resource="http://purl.org/dc/dcmitype/StillImage"/>
    <dc:title/>
   </cc:Work>
  </rdf:RDF>
 </metadata>
 <g id="g6029">
  <g id="g5966">
   <g id="g5904">
    <g id="g5824">
     <g id="g5764">
      <g id="g5579">
       <rect id="rect2990" opacity="0" height="45" width="67.5" y="0" x="3.5527e-15"/>
      </g>
     </g>
    </g>
   </g>
  </g>
  <path id="path5353" d="m24.681 44.86c-0.25467-0.41205 0.1742-1.1805 0.89673-1.6068 0.43817-0.25853 0.82514-0.70521 0.91252-1.0533 0.12724-0.50697 0.028-0.7004-0.61532-1.1996-2.149-1.6676-3.486-2.9456-3.8816-3.7103-0.24155-0.46697-0.51852-0.84904-0.61551-0.84904-0.36926 0-1.1709-2.3642-1.3534-3.9913-0.10472-0.93371-0.2331-1.7404-0.28529-1.7926-0.0522-0.0522-0.40522 0.02223-0.7845 0.16538-0.59213 0.2235-0.80179 0.19095-1.4835-0.23035-0.43662-0.26985-1.0063-0.49064-1.2659-0.49064-0.7238 0-1.5496-0.44973-1.8129-0.98725-0.22499-0.4594-0.30194-0.86729-0.63147-3.3475-0.15337-1.1544-0.17029-1.1387 1.5309-1.4248 0.45385-0.07632 1.218-0.45102 1.6981-0.83266 1.4068-1.1183 2.1686-1.3378 4.3495-1.2528 1.8184 0.07084 4.5121-0.18151 4.7782-0.44765 0.45615-0.45615-2.767-1.6715-4.4207-1.667-1.4372 0.0039-4.5506 1.1364-4.9642 1.8056-0.23709 0.38363-0.99024 0.25704-1.2393-0.20829-0.12891-0.24086-0.23438-0.78744-0.23438-1.2146 0-0.65279 0.25425-1.0433 1.5939-2.4482l1.5939-1.6716 1.7457-0.01512c1.0768-0.0093 1.9358-0.13568 2.2419-0.32975 0.41458-0.26288 0.68313-0.26671 1.6328-0.02331 1.2373 0.31711 1.6068 0.22262 1.6068-0.41097 0-0.78853 0.51191-0.94479 1.8324-0.55935 1.7567 0.51275 2.962 1.278 4.1546 2.6378 0.79643 0.90806 1.0903 1.1159 1.2396 0.87685 0.27269-0.43642-0.0602-1.4544-0.9075-2.7747-1.0855-1.6916-1.549-1.8507-5.5268-1.8975-3.7581-0.04423-4.3759-0.19138-6.0566-1.4425-1.127-0.83897-1.4856-1.4463-1.1236-1.9033 0.11852-0.14968 0.26673-0.75148 0.32935-1.3373 0.18627-1.7428 1.0144-3.1104 2.275-3.7568 0.76888-0.39429 1.1791-0.78272 1.4098-1.3349 0.21327-0.51043 0.46374-0.76462 0.72685-0.73762 0.79801 0.08188 0.93626-0.02726 1.3255-1.0464 0.31939-0.83631 0.61692-1.1625 1.547-1.6959 1.5372-0.8817 2.6333-0.87353 4.3549 0.03246l1.3248 0.6972 0.58252-0.6972c0.70595-0.84495 0.95193-0.86745 1.4344-0.13118 0.44515 0.67938 0.74719 0.69968 2.0044 0.1347 1.4278-0.64168 2.0926-0.73554 3.2124-0.45358 1.1532 0.29038 2.3989 1.3093 3.0194 2.4698 0.32701 0.61157 0.5876 0.80863 1.1418 0.86338 0.59627 0.05891 0.71806 0.16704 0.71806 0.63751 0 0.75634 0.38789 1.4424 0.81551 1.4424 0.58974 0 1.9086 1.1638 2.253 1.9882 0.18018 0.43122 0.32759 1.2315 0.32759 1.7783 0 0.54685 0.12661 1.197 0.28136 1.4448 0.38902 0.62293 0.06386 1.0779-1.4061 1.9675-1.6495 0.99821-3.2335 1.2864-6.161 1.121-1.4758-0.08338-2.6838-0.04391-3.1004 0.10129-0.71555 0.24944-1.9653 1.6206-2.599 2.8516-0.36739 0.71364-0.50975 1.8791-0.22952 1.8791 0.0789 0 0.86926-0.68772 1.7563-1.5283 1.332-1.2622 1.8836-1.6176 3.1683-2.0414 1.6945-0.55902 2.0203-0.48141 2.2773 0.54242 0.1366 0.54425 0.20474 0.56848 1.2109 0.4307 0.73103-0.10011 1.3236-0.03817 1.8854 0.19704 0.49618 0.20776 1.1338 0.29199 1.617 0.21359 1.2509-0.20299 2.4198 0.32184 3.8141 1.7124 1.8626 1.8576 2.2556 2.9227 1.3731 3.7214-0.54394 0.49226-0.58975 0.4847-1.7024-0.28083-1.2007-0.82609-3.0494-1.3821-4.5952-1.3821-1.6529 0-4.3321 1.0314-3.8727 1.4908 0.32244 0.32244 2.5767 0.70771 3.0618 0.52329 0.29806-0.11332 0.6544-0.13653 0.79185-0.05158 0.13746 0.08495 0.84631 0.17109 1.5752 0.19142 1.0877 0.03033 1.6788 0.22037 3.297 1.0599 1.0844 0.56262 2.2448 1.0887 2.5786 1.169 0.85939 0.20684 0.9027 0.95796 0.22248 3.858-0.18008 0.76775-1.0005 1.4436-2.0922 1.7234-1.5021 0.38502-2.9258 0.95961-2.9258 1.1808 0 0.12309-0.13856 0.17062-0.3079 0.10564-0.21959-0.08426-0.38916 0.24495-0.59121 1.1478-0.61426 2.7448-2.1653 5.073-4.8704 7.3106-0.91023 0.75292-1.7007 1.5439-1.7566 1.7578-0.17384 0.66479 0.16379 1.2205 0.97397 1.603 0.58049 0.27409 0.77872 0.51124 0.77872 0.93159v0.5639l-8.8716 0.05921c-4.8794 0.03257-8.9244-0.02616-8.9889-0.13052zm11.861-3.6794c1.9316-0.43663 4.7702-2.03 6.2463-3.506 2.3272-2.3272 3.8627-6.0822 2.9152-7.1291-0.54681-0.60421-1.5024-0.55762-2.504 0.1221-1.1382 0.77242-2.2055 0.73629-3.4653-0.11733l-0.99632-0.67511h-5.2321c-4.959 0-5.2466 0.02326-5.5104 0.4457-0.15309 0.24513-0.59751 0.61075-0.9876 0.81247-0.94175 0.487-2.0313 0.26893-3.0278-0.60598-1.618-1.4206-2.8857-0.3675-2.4098 2.002 0.58111 2.8936 2.992 6.1227 5.4856 7.3473 1.8839 0.92521 2.756 1.2841 3.373 1.3882 1.1484 0.19378 5.1257 0.139 6.1131-0.0842zm-17.815-12.066c0.19266-0.29403 0.79021-1.0166 1.3279-1.6058 1.6708-1.8308 1.89-2.5657 1.0744-3.6025-0.73031-0.92844-1.7889-0.81207-3.7193 0.40887-2.6834 1.6972-2.5682 1.5747-2.0377 2.1651 0.24905 0.27719 0.68467 0.59265 0.96804 0.70101 0.28338 0.10836 0.57099 0.37685 0.63916 0.59664 0.57895 1.8668 1.126 2.2853 1.7475 1.3367zm31.212 0.15989c0.22772-0.20609 0.41404-0.60689 0.41404-0.89067 0-0.3549 0.30038-0.71732 0.96224-1.161 1.3448-0.9015 1.3453-1.4082 0.0016-2.0516-0.59242-0.2837-1.5356-0.76163-2.096-1.0621-1.4994-0.80393-2.6195-0.69547-3.1552 0.30551-0.31054 0.58026 0.09484 1.9164 0.81526 2.6872 0.32022 0.34258 0.93904 1.0559 1.3752 1.5851 0.8778 1.0652 1.0778 1.1351 1.6828 0.58754zm-19.185-0.752c1.1342-0.43123 0.42214-2.2071-1.148-2.8632-1.3347-0.55766-2.4744-0.40862-3.4063 0.44543-0.59688 0.547-0.78346 0.87027-0.67118 1.1629 0.13877 0.36162 0.19767 0.36907 0.54701 0.06924 0.9678-0.83066 1.8312-0.65565 2.4243 0.49143 0.1867 0.36104 0.56982 0.70074 0.85138 0.75489 0.28155 0.05414 0.5817 0.11232 0.66699 0.12928 0.0853 0.01696 0.41641-0.06853 0.73583-0.18997zm8.1639-0.68236c0.4646-0.73598 0.73755-0.92994 1.4745-1.0478 1.0437-0.1669 1.1281-0.38254 0.34928-0.89282-0.6741-0.44169-2.3619-0.47426-3.2033-0.06182-1.4346 0.70321-1.9052 2.5161-0.7128 2.7459 1.289 0.24834 1.5175 0.16717 2.0924-0.74343zm7.4844 0.65836c0.08321-0.13464-0.11823-0.52614-0.44766-0.86999s-0.80609-1.1703-1.0592-1.8365c-0.88839-2.3381-1.654-2.8804-3.6218-2.5657-0.922 0.14743-1.2117 0.67968-0.48626 0.89342 0.21792 0.06421 0.91447 0.37044 1.5479 0.68052 1.225 0.59968 2.1313 1.8129 2.1313 2.8532 0 0.30059 0.12226 0.66878 0.27169 0.81821 0.33834 0.33834 1.4605 0.35646 1.6642 0.02688zm-23.467-0.695c0.1367-0.39216 0.24856-0.91993 0.24856-1.1728 0-0.61179 1.954-2.4159 2.6166-2.4159 1.2628 0 1.728-0.78841 0.6097-1.0334-0.34244-0.07504-0.74238-0.17275-0.88875-0.21714-0.14636-0.04439-0.62386 0.01807-1.0611 0.1388-0.88676 0.24485-1.6335 1.2384-1.8763 2.4962-0.0814 0.42156-0.44529 1.1467-0.80875 1.6115-0.74481 0.9524-0.67236 1.3059 0.2677 1.3059 0.51847 0 0.69208-0.13874 0.89228-0.71301zm8.8472-3.4323c-0.0147-1.4694-2.8648-5.1015-3.8094-4.8545-0.31591 0.08261-0.70244-0.14912-1.3164-0.78922-0.79459-0.82844-2.3188-1.7406-2.9288-1.7529-0.1366-0.0027-0.47028 0.18749-0.74151 0.42272-0.40224 0.34886-0.64858 0.39159-1.3365 0.23181-1.3402-0.31128-2.2831-0.24397-2.6546 0.18953-0.62155 0.72514-1.1915 1.2967-1.803 1.8079-0.95429 0.79789-0.47555 0.99713 0.91657 0.38147 1.7054-0.75423 3.8958-0.92856 5.7378-0.45668 2.3132 0.59261 3.8989 1.5808 5.8446 3.642 0.96609 1.0235 1.8329 1.8188 1.9263 1.7674 0.0934-0.05143 0.16757-0.31674 0.16484-0.58958zm6.3134-1.2434c3.4485-3.5223 7.4594-4.5561 11.222-2.8921 1.3891 0.61432 1.941 0.7203 1.941 0.37271 0-0.29475-0.53252-0.79421-1.454-1.3637-0.43271-0.26743-0.84974-0.68471-0.92673-0.92729-0.18439-0.58096-0.97433-0.75727-2.5793-0.57568-1.0339 0.11697-1.3727 0.0749-1.5997-0.19862-0.65342-0.78732-2.4919-0.08887-3.751 1.425-0.44621 0.53653-0.75716 0.71896-1.0811 0.63425-0.25009-0.0654-0.63817-0.02073-0.86239 0.09927-1.0509 0.56244-3.5267 5.1924-2.7765 5.1924 0.0763 0 0.91685-0.79478 1.8679-1.7662zm-3.081-8.546c0.71278-1.0162 0.66372-1.4924-0.19402-1.8832-0.80312-0.36593-1.6852-0.31804-2.1666 0.11763-0.55948 0.50633-0.5215 0.94692 0.1693 1.9635 0.74155 1.0913 1.3239 1.0387 2.1913-0.19792zm-6.431-1.936c1.5205-0.53006 0.61224-1.6115-1.8267-2.1749-1.1397-0.26329-1.6631-0.27129-2.9306-0.04479-1.5184 0.27136-2.4257 0.83267-2.127 1.3159 0.16123 0.26089 1.3501 0.83931 2.0502 0.99752 0.9246 0.20893 4.145 0.1465 4.834-0.09371zm16.857-0.3114c0.46045-0.2185 0.83719-0.54369 0.83719-0.72264 0-0.50559-1.5198-1.0199-3.3921-1.1479-1.4471-0.09892-1.8642-0.04006-2.7847 0.39294-0.91501 0.43044-1.7449 1.2462-1.4828 1.4575 0.62343 0.50262 1.2247 0.59036 3.4829 0.50828 1.7615-0.06402 2.7502-0.20856 3.3395-0.48822zm-7.3549-1.58c0.53764-0.42741 1.4636-0.93857 2.0577-1.1359 1.2761-0.42384 2.107-1.23 2.6319-2.5537 0.72955-1.8394 0.24712-1.9759-2.3711-0.67087-2.4288 1.2106-4.4251 3.6372-3.8604 4.6924 0.31796 0.59412 0.39891 0.57669 1.5418-0.33191zm-6.7953 0.05204c0.17229-0.89463-1.7342-3.4697-3.0076-4.0624-0.25158-0.11709-0.91589-0.45625-1.4762-0.75369-1.4285-0.75827-2.0391-0.74172-2.0327 0.0551 0.006 0.77986 0.69866 2.3147 1.2649 2.8037 0.2355 0.2034 0.98856 0.53049 1.6734 0.72687 0.68489 0.19638 1.6018 0.66409 2.0377 1.0394 0.85374 0.7351 1.4222 0.80558 1.5406 0.19101zm4.0541-1.1384c0.28526-0.52626 0.39976-1.2517 0.40202-2.5471 0.003-1.5716-0.0926-2.0135-0.72077-3.3395-0.39817-0.84055-0.78693-1.5283-0.86392-1.5283-0.93963 0-2.1966 2.575-2.3305 4.7742-0.0728 1.1965 0.005 1.6776 0.39011 2.4339 0.46645 0.91431 0.51455 0.9426 1.6025 0.9426 1.0327 0 1.1533-0.05836 1.5205-0.73583zm-11.198-0.43398c0.49972-0.25802 0.49522-0.3631-0.0541-1.2641-0.49875-0.81801-0.80316-0.89736-1.519-0.39594-0.50677 0.35496-0.88798 1.5138-0.63345 1.9256 0.1574 0.25469 1.5155 0.09122 2.2066-0.2656zm21.823 0.15047c0.59213-1.5431-1.6867-2.626-2.37-1.1263-0.35735 0.7843-0.36512 0.76565 0.47061 1.1289 0.96748 0.42051 1.7375 0.41946 1.8994-0.0026zm-15.106-4.2957c0.56309-1.667 0.44642-2.1513-0.65563-2.7212-0.97476-0.50406-1.7254-0.41912-2.4803 0.28067-0.6569 0.60895-0.77518 0.88857-0.72077 1.7038 0.0259 0.38812 2.5803 2.1951 3.1094 2.1996 0.13886 0.0012 0.47515-0.65713 0.74733-1.4629zm8.4594 0.57917c0.83304-0.42498 1.5724-0.95478 1.643-1.1773 0.20197-0.63633-0.5284-1.7897-1.3509-2.1334-1.2288-0.51343-3.0882 0.22305-3.0622 1.2129 0.0138 0.52527 0.51808 2.3538 0.7481 2.7127 0.10397 0.16223 0.26066 0.26411 0.34819 0.22641 0.0875-0.0377 0.84073-0.41626 1.6738-0.84124z"/>
 </g>
</svg>
