<?xml version="1.0" encoding="UTF-8" standalone="no"?>
<!-- Created with Inkscape (http://www.inkscape.org/) -->
<svg id="svg2" xmlns:rdf="http://www.w3.org/1999/02/22-rdf-syntax-ns#" xmlns="http://www.w3.org/2000/svg" height="45" width="67.5" version="1.1" xmlns:cc="http://creativecommons.org/ns#" xmlns:dc="http://purl.org/dc/elements/1.1/">
 <metadata id="metadata7">
  <rdf:RDF>
   <cc:Work rdf:about="">
    <dc:format>image/svg+xml</dc:format>
    <dc:type rdf:resource="http://purl.org/dc/dcmitype/StillImage"/>
    <dc:title/>
   </cc:Work>
  </rdf:RDF>
 </metadata>
 <g id="g6093">
  <g id="g6029">
   <g id="g5966">
    <g id="g5904">
     <g id="g5824">
      <g id="g5764">
       <g id="g5579">
        <rect id="rect2990" opacity="0" height="45" width="67.5" y="0" x="3.5527e-15"/>
       </g>
      </g>
     </g>
    </g>
   </g>
  </g>
  <path id="path5389" d="m28.04 44.782c-0.32326-0.1446-0.85223-0.37791-1.1755-0.51847-1.0781-0.46878-1.4106-0.89774-1.4106-1.8201 0-0.7658 0.13155-0.98036 0.9867-1.6092 0.54269-0.3991 1.1224-0.72563 1.2883-0.72563 0.16586 0 0.73913-0.17508 1.2739-0.38906 0.7007-0.28037 1.0633-0.60666 1.2978-1.1679 0.72206-1.7281 0.25617-2.6617-1.4622-2.93-0.63308-0.09885-1.5786-0.25153-2.1012-0.33928-0.72668-0.12203-1.0237-0.07088-1.263 0.21747-0.1721 0.20736-0.51612 0.37703-0.76449 0.37703-0.37664 0-0.44014-0.14479-0.38264-0.87251 0.0613-0.77586-0.0252-0.93423-0.78135-1.4297-0.55828-0.36584-0.95338-0.86956-1.1505-1.4668-0.28911-0.876-0.33642-0.90779-1.282-0.86155-0.73087 0.03574-1.1347 0.21302-1.5801 0.69358-0.32906 0.35506-0.70398 0.64557-0.83315 0.64557s-0.48732 0.24646-0.79589 0.54769c-0.71599 0.69897-1.3839 0.95556-1.3839 0.53166 0-0.17406 0.15189-0.44254 0.33754-0.59661 0.18564-0.15407 0.40537-0.58899 0.48828-0.96648 0.0829-0.37749 0.24841-0.7467 0.36776-0.82047 0.11936-0.07377 0.21701-0.32814 0.21701-0.56529 0-0.23714 0.15869-0.49206 0.35265-0.56649 0.19395-0.07442 0.35264-0.29208 0.35264-0.48367s0.17031-0.44366 0.37848-0.56015c0.34289-0.19189 0.3446-0.27589 0.0181-0.8933-0.33055-0.62513-0.37281-0.6426-0.51102-0.2113-0.0829 0.25861-0.2998 0.78758-0.48209 1.1755-0.18228 0.38791-0.4353 0.99069-0.56226 1.3395-0.23431 0.64376-1.3294 1.5404-1.5778 1.2919-0.0748-0.07472 0.0949-0.45994 0.37697-0.85605 0.61257-0.86028 0.55262-1.4554-0.17884-1.7754-0.29557-0.1293-0.60048-0.49958-0.67756-0.82284-0.0771-0.32326-0.24135-0.71641-0.36504-0.87368-0.12368-0.15726-0.19168-0.79203-0.1511-1.4106 0.0406-0.61856-0.0542-1.3538-0.21061-1.6339-0.33781-0.6049-0.22863-1.9411 0.17921-2.1931 0.19917-0.12309 0.23688-0.48237 0.122-1.1623-0.11796-0.69821-0.0715-1.0994 0.16003-1.3809 0.17947-0.2182 0.50072-0.78331 0.71388-1.2558l0.38757-0.85906-0.96111-0.98048c-0.67546-0.68907-0.95565-1.1724-0.94275-1.6261 0.0238-0.83669 0.89887-2.3141 1.4799-2.4985 0.28144-0.08932 0.45312-0.35737 0.45312-0.70745 0-0.7332 0.76311-1.136 1.788-0.94369 0.95741 0.17961 1.0107-0.06305 0.18222-0.82977-3.0017-2.7779-2.4289-7.4485 1.1426-9.3178 2.2949-1.2011 5.7088-0.76897 7.5728 0.95857l0.67738 0.62777 0.80873-0.92842c0.72547-0.83283 0.86707-0.90184 1.3754-0.67024 0.471 0.2146 0.62189 0.1826 0.89409-0.18966 0.31676-0.43319 0.34291-0.43387 0.79934-0.0208 0.37662 0.34083 0.56965 0.37471 0.95626 0.1678 0.36715-0.19649 0.68126-0.17697 1.2978 0.08066 0.44741 0.18694 1.0322 0.28268 1.2997 0.21275 0.2674-0.06993 0.6309-0.0071 0.80778 0.13976 0.17688 0.1468 0.51207 0.19381 0.74486 0.10448 0.35106-0.13472 0.38839-0.08528 0.21886 0.28982-0.23995 0.5309-0.26411 1.907-0.0375 2.1336 0.0865 0.08653 0.37912-0.04339 0.65021-0.28871 0.45261-0.40962 0.51586-0.41458 0.77453-0.06084 0.31759 0.43433 1.4319 0.34243 2.0268-0.16716 0.54674-0.4683 2.0629-0.6785 2.4681-0.34219 0.19089 0.15843 0.49938 0.2296 0.68552 0.15817 0.18615-0.07143 0.46494 0.02253 0.61953 0.2088 0.1546 0.18627 0.41968 0.33867 0.5891 0.33867 0.1694 0 0.37516 0.21159 0.45725 0.4702 0.0821 0.25861 0.34073 0.4702 0.57479 0.4702 0.69173 0 0.97121 0.52854 0.72796 1.3767-0.20978 0.73146 0.033 1.9834 0.48061 2.4787 0.10508 0.11626 0.59317 0.27638 1.0846 0.35581 0.65655 0.10612 0.91171 0.2702 0.96194 0.61861 0.0376 0.2608 0.30208 0.57682 0.58774 0.70226 0.40328 0.17709 0.50377 0.39228 0.44951 0.9626-0.0469 0.49383 0.0493 0.78026 0.29387 0.8741 0.62231 0.2388 0.40125 1.0296-0.49415 1.7677l-0.8579 0.70716 0.93214 0.89687c0.51269 0.49328 1.2836 1.2977 1.7131 1.7876l0.78097 0.89076-0.53295 0.5673c-0.36459 0.38809-0.48933 0.73411-0.39487 1.0953 0.0759 0.29042 0.0117 0.68028-0.14272 0.86638-0.22568 0.27193-0.1776 0.40688 0.24494 0.68743 0.45692 0.30338 0.52574 0.55459 0.52574 1.9191 0 0.8635 0.1148 1.6848 0.2551 1.8251 0.18341 0.18341 0.14848 0.4613-0.12428 0.98875-0.3717 0.71878-0.36543 0.74729 0.30943 1.407l0.68882 0.67334-1.1391 0.86866c-0.72262 0.55107-1.0917 0.99204-1.0096 1.2061 0.0794 0.20692-0.0166 0.33744-0.24831 0.33744-0.47436 0-0.48587 0.32294-0.0252 0.70529 0.19396 0.16097 0.35265 0.47015 0.35265 0.68706 0 0.21692 0.0947 0.4949 0.21032 0.61773 0.11569 0.12284 0.28554 0.57975 0.37747 1.0154l0.16714 0.79202-0.75249-0.43937c-0.41386-0.24166-0.952-0.82796-1.1958-1.3029-0.50883-0.99101-1.1188-1.2173-1.6278-0.60402-0.25251 0.30427-0.74117 0.44205-1.721 0.48523-1.2241 0.05395-1.4134-0.0016-1.7966-0.52769-0.36297-0.49828-0.48462-0.54128-0.79723-0.28184-0.2029 0.16839-0.44045 0.53464-0.52789 0.8139-0.0874 0.27926-0.35325 0.75651-0.59068 1.0606-0.53602 0.68645-0.81276 2.0579-0.49381 2.4473 0.13124 0.16021 0.30646 1.0319 0.38938 1.937 0.14827 1.6184 0.14379 1.6365-0.27074 1.0912-0.23183-0.30497-0.65954-0.79318-0.95047-1.0849-0.29094-0.29172-0.52897-0.65052-0.52897-0.79732s-0.1058-0.26691-0.2351-0.26691c-0.12931 0-0.2351-0.13753-0.2351-0.30563 0-0.68211-0.48158-0.8243-1.7017-0.50244-0.65492 0.17276-1.2541 0.30693-1.3315 0.29815-0.0773-0.0088-0.67588-0.0034-1.33 0.01187-1.6368 0.03831-2.0628 0.4016-2.0628 1.7588 0 1.4973 0.35748 2.0448 1.8428 2.8225 1.0332 0.54092 1.3852 0.89062 1.864 1.8513 0.32463 0.65143 0.52736 1.2861 0.45052 1.4105-0.0769 0.12433-0.52352 0.39066-0.99263 0.59185-1.0824 0.46424-8.2884 0.67025-9.1989 0.26298zm7.9157-1.1404c0.7318-0.26952 1.136-0.80085 0.89992-1.1829-0.0658-0.10645-0.57324-0.41313-1.1277-0.68153-0.55442-0.26839-1.3643-0.85559-1.7998-1.3049-0.70566-0.72806-0.79404-0.96484-0.81266-2.1772-0.0183-1.195-0.0745-1.3511-0.4621-1.2844-1.0779 0.18547-1.5571 0.51131-1.5571 1.0587 0 1.6314-1.1535 2.6896-3.3892 3.109-0.99787 0.1872-1.632 0.91981-1.3127 1.5165 0.20801 0.38866 1.6483 1.0328 2.8211 1.2617 1.0291 0.20083 5.9661-0.02988 6.7402-0.31498zm1.0394-8.7296c1.0873-0.14277 2.0655-0.3424 2.1737-0.44363 0.24186-0.22622-0.55332-1.2029-0.83675-1.0277-0.1119 0.06916-0.35288 0.0016-0.53551-0.14983-0.18262-0.15157-0.45852-0.19741-0.61311-0.10187-0.16015 0.09897-0.41257-0.0061-0.58675-0.24435-0.17445-0.23859-0.46192-0.3581-0.66963-0.27839-0.46126 0.177-0.46699-0.2468-0.0179-1.3217 0.2857-0.6838 0.29193-0.87316 0.0357-1.0858-0.23263-0.19307-0.41058-0.14685-0.71047 0.18452-0.45347 0.50108-2.3256 1.0977-2.7063 0.86241-0.15404-0.0952-0.19689-0.01418-0.11097 0.20974 0.10524 0.27424-0.0177 0.36486-0.49489 0.36486-0.43719 0-0.6732 0.14643-0.75787 0.4702-0.17334 0.66285-0.49508 0.58461-0.96067-0.23361-0.52688-0.92595-0.75312-0.89108-0.75312 0.11606 0 0.86145-0.18532 1.0137-0.65828 0.54072-0.21942-0.21942-0.28211-0.2159-0.28211 0.01585 0 0.18485-0.16813 0.2446-0.44291 0.15739-0.33915-0.10764-0.47988 0.0067-0.60076 0.48836-0.0868 0.34591-0.0562 0.73062 0.0682 0.85492 0.12429 0.12429 1.161 0.32873 2.3037 0.4543 1.1428 0.12557 2.1225 0.27306 2.1772 0.32775 0.18915 0.18915 3.0103 0.09843 4.9795-0.16013zm-11.541-2.428c0-0.41125 0.14648-0.59245 0.52266-0.64652 0.40778-0.05861 0.53092-0.24307 0.56023-0.83919 0.0207-0.42024-0.0294-0.76569-0.11124-0.76767-0.0819-0.0019-0.3007-0.09971-0.48634-0.21718-0.27728-0.17545-0.2835-0.27869-0.0349-0.57828 0.25661-0.3092 0.20959-0.40712-0.30898-0.6434-0.33642-0.15328-0.61167-0.37375-0.61167-0.48993 0-0.58958-0.42835 0.1657-0.55965 0.98679-0.14768 0.92355-0.62804 1.2614-0.98115 0.69002-0.10138-0.16405-0.23914-0.1744-0.38462-0.02892-0.35241 0.35241 0.27869 2.1303 0.94118 2.6514 0.8208 0.64564 1.4544 0.5946 1.4544-0.11717zm17.069-1.0106c-0.23899-0.23898-0.43617 0.12082-0.24009 0.43808 0.14812 0.23966 0.2035 0.23985 0.28313 0.00094 0.0545-0.16334 0.0351-0.36091-0.043-0.43903zm-3.8167-1.0272c0.0801-0.40062 0.0536-0.893-0.059-1.0942-0.17239-0.30806-0.26798-0.26914-0.60598 0.2467-0.4329 0.66069-0.30985 1.5759 0.2119 1.5759 0.16907 0 0.37296-0.32778 0.45309-0.72841zm-9.7259 0.25821c0-0.1293-0.10579-0.2351-0.2351-0.2351-0.1293 0-0.23509 0.10579-0.23509 0.2351 0 0.1293 0.10579 0.2351 0.23509 0.2351 0.12931 0 0.2351-0.10579 0.2351-0.2351zm18.808-0.22199c0-0.502-1.1561-1.9618-1.1681-1.4749-0.0128 0.51753 0.6615 1.932 0.92096 1.932 0.1359 0 0.2471-0.20569 0.2471-0.45709zm-6.5882-0.07188c-0.006-0.34515-2.0366-2.5273-2.3514-2.5273-0.19418 0 0.28735 0.84777 1.3019 2.2922 0.39958 0.56887 1.0584 0.71645 1.0494 0.2351zm4.6508-0.66465c0.0808-0.75598-0.19374-1.1317-0.88438-1.2103-0.38485-0.04378-0.59543 0.06798-0.65348 0.34683-0.0507 0.24358 0.0549 0.41142 0.25875 0.41142 0.18942 0 0.41267 0.272 0.4961 0.60445 0.18442 0.73475 0.69887 0.63464 0.78301-0.15238zm-11.338-0.24063c0.22688-0.71482-0.24842-1.0946-0.58434-0.46691-0.26845 0.5016-0.16225 0.96077 0.22222 0.96077 0.11296 0 0.27591-0.22224 0.36212-0.49386zm2.85-0.26163c-0.0672-0.25703-0.006-0.72161 0.13526-1.0324 0.39499-0.86691-0.0275-1.0013-0.66166-0.21044-0.71417 0.89071-0.74543 1.3811-0.0745 1.1681 0.42663-0.13541 0.47095-0.08584 0.32747 0.36624-0.11896 0.3748-0.0865 0.47371 0.11481 0.34932 0.15442-0.09544 0.22577-0.38382 0.15856-0.64085zm11.521 0.15578c0.17464-0.45513-0.7849-1.5162-1.3711-1.5162-0.58617 0-0.53912 0.30352 0.17943 1.1574 0.6789 0.80684 0.98445 0.89882 1.1917 0.35872zm-7.4502-0.04682c-0.004-0.09698-0.1628-0.38168-0.35264-0.63268-0.65678-0.86834-0.36054-1.2231 0.32804-0.39287 0.36332 0.43805 0.80349 0.74882 0.97815 0.6906 0.21362-0.0712-0.005-0.42813-0.66689-1.0903-0.54146-0.54146-1.0739-0.98447-1.1831-0.98447-0.10927 0-0.39226 0.21391-0.62887 0.47536-0.42037 0.46452-0.41211 0.49401 0.36234 1.293 0.76105 0.78521 1.1789 1.0156 1.163 0.64135zm-23.406-0.91142c0.16534-0.43085-0.27329-1.0919-0.59328-0.89413-0.11466 0.07086-0.20846 0.38708-0.20846 0.7027 0 0.65 0.57325 0.78687 0.80174 0.19142zm25.185-0.84962c-0.4444-0.2487-0.72052-0.10024-0.4943 0.26577 0.0817 0.13226 0.3155 0.17643 0.51946 0.09816 0.33124-0.1271 0.32855-0.16599-0.0252-0.36393zm-13.415-0.40194c0.41355-0.79973 0.45585-1.1872 0.12962-1.1872-0.24234 0-0.94643 1.2156-0.94643 1.634 0 0.48766 0.46514 0.2332 0.81681-0.44684zm1.5342 0.4724c0-0.12167-0.1058-0.28661-0.2351-0.36652s-0.2351 0.01963-0.2351 0.22122 0.1058 0.36652 0.2351 0.36652 0.2351-0.09955 0.2351-0.22122zm-2.9123-0.60896c0.21446-0.32729 0.34275-0.64224 0.28511-0.69988-0.18872-0.18872-1.1344 0.60794-1.1344 0.95565 0 0.52702 0.41906 0.40082 0.84927-0.25576zm8.2881 0.35998c0.0908 0 0.3566-0.32404 0.59055-0.72009 0.35785-0.60579 0.46853-0.66553 0.69721-0.37639 0.14951 0.18904 0.50988 0.41442 0.80081 0.50084 0.68045 0.20213 0.71456-0.33901 0.0588-0.93249-0.2586-0.23404-0.47019-0.33507-0.47019-0.22452 0 0.11056-0.12695 0.07406-0.28212-0.08111-0.15516-0.15516-0.58547-0.28212-0.95624-0.28212-0.54655 0-0.64824 0.08151-0.5374 0.43075 0.0847 0.26678-0.0436 0.59388-0.3368 0.85928-0.57166 0.51735-0.64072 1.1754-0.10164 0.96855 0.20453-0.07849 0.4462-0.1427 0.53705-0.1427zm9.39-0.35887c-0.0724-0.07239-0.20385 0.05809-0.29213 0.28995-0.12759 0.33506-0.10058 0.36206 0.13161 0.13161 0.16067-0.15948 0.2329-0.34918 0.16052-0.42156zm3.9053 0.21616c0.45689-0.17532 0.49435-0.79769 0.048-0.79769-0.39873 0-0.90474 0.57381-0.69286 0.7857 0.18858 0.18858 0.18485 0.18851 0.64485 0.01199zm-17.496-0.31643c0-0.47816-0.56062-1.4216-0.84474-1.4216-0.16449 0-0.36622-0.21159-0.4483-0.4702-0.18647-0.58751-0.50088-0.6016-0.80357-0.03602-0.26924 0.5031 0.0895 1.0101 0.58123 0.82143 0.17812-0.06835 0.46613 0.18737 0.68268 0.60612 0.35727 0.69088 0.8327 0.97654 0.8327 0.50031zm2.008-0.0267c0.21551-0.34871 0.0129-0.49354-0.44486-0.3179-0.21172 0.08124-0.32641 0.24243-0.25487 0.35818 0.17595 0.28471 0.51079 0.26544 0.69973-0.04027zm8.5427 0.03833c0.46866-0.29684 0.10513-0.72526-0.63174-0.7445-0.34795-0.0091-0.84037-0.09774-1.0943-0.19701-0.40878-0.15983-0.38201-0.20047 0.23379-0.35502 1.371-0.34409 1.7412-1.0771 0.54405-1.0771-0.70369 0-0.72177-0.02205-0.35265-0.42993 0.51423-0.56822 0.50212-1.0083-0.0223-0.81152-0.54772 0.20552-1.0103 0.81954-0.88526 1.1752 0.0554 0.15749-0.00047 0.34887-0.12417 0.4253-0.68425 0.42289 0.0336 1.806 1.0682 2.058 0.74403 0.18126 0.91931 0.17525 1.2644-0.04332zm-23.716-0.25778c0-0.1293-0.1587-0.2351-0.35265-0.2351-0.19396 0-0.35265 0.10579-0.35265 0.2351 0 0.1293 0.15869 0.2351 0.35265 0.2351 0.19395 0 0.35265-0.10579 0.35265-0.2351zm29.964-0.27284c0.97948-0.44628 0.74736-0.90265-0.45913-0.90265-0.7933 0-1.0579-0.09006-1.0579-0.36002 0-0.19802 0.15869-0.42092 0.35264-0.49535 0.19396-0.07443 0.35265-0.23474 0.35265-0.35624 0-0.12151-0.26183-0.03084-0.58184 0.20148-1.6343 1.1865-0.48235 2.7675 1.3936 1.9128zm-21.051-0.60878c0.77259-0.43973 0.96895-0.99916 0.3507-0.99916-0.20632 0-0.68239 0.21879-1.0579 0.4862-1.2248 0.87212-0.65276 1.287 0.70724 0.51296zm17.582 0.09982c0.1034-0.17138 0.38096-0.38265 0.6168-0.46948 0.47473-0.1748 0.4524-0.88461-0.0329-1.0462-0.17133-0.05705-0.36793 0.1208-0.44056 0.39853-0.0948 0.36234-0.25358 0.4627-0.57221 0.36157-0.32574-0.10339-0.44105-0.02316-0.44105 0.30687 0 0.75362 0.52315 1.0235 0.86993 0.44872zm-27.436-0.28196c0-0.19716 0.26449-0.45902 0.58775-0.58192 0.89661-0.34089 0.77054-0.98785-0.17469-0.89651-0.57039 0.05511-0.84354 0.2437-1.0844 0.74871-0.2717 0.56959-0.27195 0.70675-0.002 0.87802 0.4719 0.29897 0.67303 0.25465 0.67303-0.14829zm25.088-0.49228c-0.22544-0.22544-0.89582 0.38902-0.72535 0.66485 0.0849 0.13742 0.29253 0.08127 0.51239-0.13859 0.20328-0.20328 0.29911-0.4401 0.21296-0.52626zm-18.373 0.06609c0.34577 0.13268 0.48224-0.27388 0.15901-0.47366-0.33111-0.20464-1.0549 0.50379-0.84931 0.83125 0.15083 0.24021 0.21204 0.22031 0.27337-0.08888 0.0467-0.23566 0.21705-0.34542 0.41693-0.26872zm-1.3078-0.43785c0-0.37978-0.0695-0.44769-0.26163-0.25558-0.1439 0.1439-0.19056 0.37664-0.10368 0.51722 0.24319 0.39348 0.36531 0.30601 0.36531-0.26163zm9.9916 0.04702c0.0799-0.1293 0.0828-0.33627 0.006-0.45993-0.19338-0.3129-0.82919-0.03109-0.82919 0.36753 0 0.3759 0.6056 0.4439 0.82284 0.0924zm4.4504 0.02664c0.19835-0.32093-0.51746-0.80289-0.94741-0.6379-0.30961 0.11881-0.32703 0.21301-0.0918 0.4965 0.32353 0.38982 0.84204 0.46038 1.0392 0.14141zm11.374-0.20296c-0.0954-0.49555-0.51268-0.4643-0.619 0.04635-0.0444 0.21299 0.0852 0.36506 0.31111 0.36506 0.24214 0 0.35745-0.15408 0.30789-0.41142zm-27.227-0.05877c0-0.1293-0.1058-0.2351-0.2351-0.2351-0.12931 0-0.2351 0.10579-0.2351 0.2351 0 0.1293 0.10579 0.2351 0.2351 0.2351 0.1293 0 0.2351-0.10579 0.2351-0.2351zm-5.066-0.448c0.1609-0.26034-1.1674-0.58744-1.5144-0.37295-0.13457 0.08317-0.1838 0.2497-0.10941 0.37007 0.17474 0.28273 1.4495 0.28499 1.6238 0.0029zm15.838-0.43055c0.0549-0.38672-0.0431-0.52897-0.3644-0.52897-0.51622 0-1.0038 0.43009-1.0038 0.88548 0 0.21175 0.22037 0.29589 0.64652 0.24685 0.46291-0.05326 0.66785-0.22462 0.72164-0.60336zm7.1001 0.28819c0.16355-0.19708 0.23196-0.42374 0.15201-0.5037-0.17075-0.17075-0.86202 0.35508-0.86202 0.65571 0 0.32384 0.38317 0.2418 0.71001-0.15202zm5.6376-0.22942c0-0.19396-0.0995-0.35265-0.22122-0.35265-0.29645 0-0.50878 0.36713-0.32095 0.55495 0.26477 0.26476 0.54217 0.16125 0.54217-0.20231zm-27.551-0.29117c-0.0433-0.2248-0.28909-0.44184-0.54621-0.48231-0.25712-0.04048-0.69839-0.18799-0.9806-0.32781-0.57224-0.28351-1.3609-0.09095-1.1336 0.27679 0.0805 0.13022 0.49741 0.23676 0.92651 0.23676s0.91188 0.15869 1.0728 0.35265c0.39555 0.47661 0.75773 0.44589 0.66106-0.05608zm5.4421 0.18438c0.29437-0.1862 0.28213-0.28474-0.0859-0.69138-0.36561-0.40399-0.47739-0.42602-0.75472-0.14869-0.7462 0.7462-0.0737 1.4184 0.8406 0.84008zm13.987-0.92236c-0.18403-0.18404-0.81239 0.50224-0.80721 0.88162 0.004 0.28524 0.11949 0.23392 0.45411-0.2016 0.2469-0.32133 0.40579-0.62734 0.3531-0.68002zm5.869-0.0499c0.15647-0.45512 0.24233-0.95394 0.19082-1.1085-0.11323-0.33969-0.74782-0.37659-0.78916-0.04588-0.0161 0.1293-0.0426 0.34475-0.0588 0.47877-0.0161 0.13402-0.17139 0.33143-0.34493 0.43869-0.26331 0.16274-0.26362 0.27815-0.002 0.69733 0.41175 0.65932 0.6577 0.54651 1.0039-0.46042zm-24.314-0.09643c0-0.62389-0.35295-0.96766-0.59363-0.57822-0.22112 0.35777 0.0906 1.4491 0.36542 1.2793 0.12551-0.07757 0.22821-0.39304 0.22821-0.70103zm9.8741 0.68984c0-0.5382-0.57263-1.0425-1.1838-1.0425-0.87298 0-0.89478 0.34789-0.0505 0.80592 0.66633 0.36149 1.2343 0.47034 1.2343 0.23656zm2.7332-0.21189c0.0728-0.18969 0.0249-0.63932-0.10636-0.99916-0.2085-0.57145-0.24106-0.58907-0.25728-0.13918-0.026 0.72295-0.40202 0.87616-0.60449 0.24633-0.14939-0.46469-0.18246-0.4761-0.28244-0.09741-0.11166 0.42298 0.51136 1.3343 0.91219 1.3343 0.11332 0 0.2656-0.1552 0.33838-0.34489zm9.727-0.25673c0-0.20159-0.1058-0.30114-0.2351-0.22122-0.12931 0.07991-0.2351 0.24485-0.2351 0.36652s0.10579 0.22122 0.2351 0.22122c0.1293 0 0.2351-0.16494 0.2351-0.36652zm6.4897-0.5102c-0.23898-0.23898-0.43617 0.12081-0.24009 0.43808 0.14812 0.23966 0.2035 0.23985 0.28313 0.000941 0.0545-0.16334 0.0351-0.3609-0.043-0.43903zm-17.774-0.50508c0-1.1176-0.60706-1.7951-0.8262-0.92197-0.15955 0.63571 0.22281 1.8336 0.58528 1.8336 0.13251 0 0.24092-0.41022 0.24092-0.91161zm2.7249 0.26682c-0.16304-0.16304-0.60906 0.16822-0.60906 0.45235 0 0.15589 0.13489 0.13806 0.35832-0.04738 0.19709-0.16356 0.30992-0.3458 0.25074-0.40498zm3.8039-0.01643c0.052-0.15595-0.12314-0.27918-0.39673-0.27918-0.48838 0-0.63475 0.24687-0.32816 0.55346 0.21781 0.21781 0.61036 0.06928 0.72489-0.27428zm2.1698-0.14774c0-0.18632-0.10579-0.40416-0.2351-0.48407-0.1293-0.07991-0.23509 0.07253-0.23509 0.33877s0.10579 0.48407 0.23509 0.48407c0.12931 0 0.2351-0.15245 0.2351-0.33877zm9.6216-0.2699c-0.15141-0.18244-0.43743-0.33172-0.63559-0.33172-0.30336 0-0.29384 0.07343 0.0602 0.46465 0.47011 0.51947 1.0128 0.39409 0.57539-0.13294zm-30.31-0.43541c0-0.18632-0.10579-0.40416-0.23509-0.48407-0.12931-0.07991-0.2351 0.07254-0.2351 0.33877 0 0.26624 0.10579 0.48407 0.2351 0.48407 0.1293 0 0.23509-0.15245 0.23509-0.33877zm-1.0215-0.47393c-0.0766-0.19953-0.25206-0.36278-0.38997-0.36278-0.17387 0-0.17028 0.15034 0.0117 0.49033 0.29183 0.54528 0.597 0.44239 0.3783-0.12755zm9.2499-0.15647c0-0.28343-0.6438-0.26091-0.82284 0.02878-0.25411 0.41115 0.12271 0.75858 0.49113 0.45282 0.18244-0.15141 0.33171-0.36814 0.33171-0.48161zm8.3972-0.26218c0.20145-0.75475 0.19899-1.0388-0.0102-1.1717-0.44876-0.28508-0.75179-0.05937-0.67039 0.49934 0.0418 0.28662-0.0467 0.66888-0.19656 0.84946-0.14987 0.18058-0.20424 0.43876-0.12083 0.57373 0.32191 0.52087 0.74313 0.20395 0.99799-0.75086zm5.4736 0.70162c0-0.47498-1.3817-1.6475-1.7672-1.4996-0.49362 0.18942-0.43227 0.56056 0.12173 0.73639 0.25874 0.08212 0.57985 0.35374 0.71356 0.60359 0.27064 0.50569 0.93188 0.61897 0.93188 0.15964zm4.937-0.17556c0-0.31346-0.15673-0.4702-0.4702-0.4702-0.45308 0-0.63709 0.46003-0.31346 0.78366s0.78366 0.13961 0.78366-0.31346zm4.1206 0.2248c0.23218-0.37567-0.34933-0.93009-0.97554-0.93009-0.47603 0-0.55896-0.11552-0.55896-0.77863 0-0.59254 0.16857-0.90326 0.7053-1.3001 0.66209-0.48951 0.95883-1.2127 0.49761-1.2127-0.11422 0-0.26301-0.21159-0.33064-0.4702-0.16202-0.61958-0.49971-0.59598-0.84123 0.05877-0.26088 0.50017-0.2687 0.49256-0.14346-0.1396 0.10073-0.50845-0.006-0.80699-0.44556-1.2466l-0.57801-0.57801-0.18338 0.54128c-0.10087 0.2977-0.15784 0.67431-0.12659 0.8369 0.0313 0.16259-0.0506 0.47997-0.18187 0.70529-0.19284 0.33104-0.24003 0.24312-0.2458-0.45806-0.008-1.0019-0.35768-1.3723-0.56496-0.59898-0.21707 0.8099-0.17339 1.7756 0.0876 1.9369 0.1293 0.07991 0.23636 0.0068 0.23792-0.16245 0.002-0.16926 0.28138 0.16833 0.62183 0.75019 0.34045 0.58187 0.61414 1.4018 0.60819 1.822-0.008 0.55653 0.0946 0.76501 0.37733 0.76753 0.21348 0.0019 0.65264 0.15022 0.9759 0.3296 0.7443 0.413 0.87762 0.42889 1.0643 0.12684zm-21.718-0.34235c0-0.12284-0.11374-0.26125-0.25273-0.30759-0.13901-0.04633-0.25273 0.09208-0.25273 0.30759s0.11372 0.35392 0.25273 0.30759c0.13899-0.04633 0.25273-0.18475 0.25273-0.30759zm4.6667 0c0-0.19396-0.1587-0.35265-0.35265-0.35265-0.61183 0-0.41356 0.46333 0.29387 0.68673 0.0323 0.01021 0.0588-0.14013 0.0588-0.33409zm5.8774 0.10209c0-0.46428-0.4919-1.1744-0.71709-1.0352-0.32352 0.19995-0.27413 0.99096 0.0705 1.13 0.48127 0.1942 0.64652 0.16995 0.64652-0.09485zm-1.728-0.16447c0.14871-0.095 0.3074-0.38431 0.35264-0.64292 0.0589-0.33694-0.0635-0.49095-0.43223-0.54343-0.56506-0.08042-1.5864 0.77493-1.361 1.1397 0.16439 0.266 1.0522 0.29472 1.4406 0.0466zm-13.222-0.87906c0.7327-0.67905 0.61139-1.272-0.156-0.76252-0.50436 0.33489-1.0102 1.3513-0.6725 1.3513 0.10626 0 0.47908-0.26495 0.8285-0.58878zm5.8985-0.09106c0-0.38496-0.96549-1.0741-1.1255-0.80332-0.0617 0.10457-0.0195 0.43601 0.094 0.73655 0.2213 0.58596 1.0314 0.63841 1.0314 0.06678zm4.0212-0.19688c-0.23899-0.23898-0.43617 0.12082-0.24009 0.43808 0.14812 0.23966 0.2035 0.23985 0.28313 0.00094 0.0545-0.16334 0.0351-0.3609-0.043-0.43902zm8.7917 0.16178c-0.69023-0.1748-0.94697-0.04991-0.48471 0.23578 0.17849 0.11031 0.49281 0.13588 0.69849 0.05682 0.28685-0.11026 0.23705-0.17842-0.21378-0.2926zm8.1271 0.21846c0.23638-0.38248-0.27538-0.6113-1.0974-0.49065-0.74376 0.10916-0.67665 0.38778 0.14075 0.5844 0.75901 0.18257 0.7876 0.17977 0.95664-0.09374zm-25.207-1.077c0.60331-0.75834 0.89792-1.6642 0.60095-1.8477-0.11796-0.0729-0.21446 0.03239-0.21446 0.23398 0 0.20379-0.19899 0.36652-0.44819 0.36652-0.32351 0-0.41591 0.12342-0.33217 0.44366 0.0638 0.24402 0.00079 0.51474-0.13956 0.60162-0.26813 0.16572-0.35879 0.8355-0.11309 0.8355 0.0784 0 0.36931-0.2851 0.64652-0.63355zm17.784 0.17723c0-0.12167-0.11086-0.28974-0.24635-0.37348-0.34506-0.21326-0.99005 0.07085-0.81261 0.35794 0.18492 0.2992 1.059 0.31203 1.059 0.01553zm-22.334-0.53109c0-0.37978-0.0695-0.44769-0.26163-0.25558-0.14389 0.1439-0.19055 0.37664-0.10368 0.51722 0.24319 0.39348 0.36531 0.30601 0.36531-0.26163zm17.985-0.18808c0-0.30171-0.13219-0.59262-0.29375-0.64648-0.36042-0.12014-0.63116 0.51159-0.43658 1.0187 0.20682 0.53896 0.73033 0.27217 0.73033-0.3722zm-15.619 0.22683c0.61567-0.3295 0.57172-0.6538-0.13204-0.97446-0.48485-0.22091-0.66864-0.19328-1.0579 0.15903-0.25913 0.23451-0.47115 0.56868-0.47115 0.7426 0 0.37712 1.0098 0.4214 1.6611 0.07284zm8.8044-0.68021c-0.15897-0.72382-0.44069-0.92111-0.70487-0.49365-0.14995 0.24261 0.57179 1.5074 0.7554 1.3238 0.0595-0.05944 0.0367-0.43302-0.0506-0.83018zm4.0468 0.78154c-0.0781-0.07812-0.28089-0.08647-0.4506-0.01856-0.18755 0.07505-0.13185 0.13076 0.14204 0.14204 0.24783 0.01021 0.38668-0.04536 0.30856-0.12348zm14.485-0.37666c0.17369-0.66418-0.0466-0.89452-0.34522-0.36096-0.12603 0.2252-0.37634 0.40946-0.55624 0.40946s-0.39247 0.10579-0.47238 0.2351c-0.0843 0.13638 0.14514 0.2351 0.54644 0.2351 0.51559 0 0.7263-0.13209 0.8274-0.5187zm-8.1652-0.22958c0.64777-0.32014 0.71379-0.83417 0.091-0.70892-0.19395 0.03901-0.67003 0.09499-1.0579 0.1244-0.88582 0.06717-1.293 0.31587-1.293 0.7897 0 0.2905 0.17468 0.34119 0.81669 0.237 0.44917-0.07289 1.0986-0.27187 1.4432-0.44218zm2.2891-0.08208c-0.0729-0.18981-0.22691-0.34512-0.34238-0.34512-0.24124 0-0.28366 0.55322-0.0596 0.77727 0.2508 0.25079 0.54337-0.06373 0.40199-0.43215zm-17.789-0.1541c-0.0751-0.18754-0.13075-0.13184-0.14204 0.14204-0.0102 0.24783 0.0454 0.38669 0.12348 0.30857 0.0781-0.07812 0.0865-0.28089 0.0186-0.4506zm1.8622-0.36244c-0.23899-0.23898-0.43617 0.12082-0.24009 0.43808 0.14812 0.23966 0.2035 0.23985 0.28312 0.000941 0.0545-0.16334 0.0351-0.3609-0.043-0.43902zm16.442-0.69551c-0.1131-0.45066-0.22267-0.5425-0.41624-0.34894-0.19357 0.19357-0.18203 0.43458 0.0438 0.91562 0.35458 0.75516 0.60755 0.37021 0.3724-0.56669zm-23.751-0.49793c0.0696-0.88443-0.15715-1.0871-0.98395-0.8796-0.5597 0.14048-0.57486 0.17941-0.22173 0.56962 0.56028 0.6191 0.48583 1.0345-0.14993 0.8366-0.52527-0.16348-0.52582-0.1611-0.0786 0.3396 0.38946 0.43603 0.5129 0.46273 0.91252 0.1974 0.26977-0.17912 0.48692-0.62186 0.52167-1.0636zm19.705 0.50284c1.4475-1.4475 0.9689-2.1226-0.51392-0.72488-0.60168 0.56714-0.76499 0.64288-0.63367 0.29387 0.62683-1.6659 0.65237-1.8039 0.38335-2.073-0.35765-0.35765-0.61614 0.05264-0.97462 1.5469-0.20877 0.8703-0.2045 1.2022 0.019 1.4714 0.43882 0.52874 0.77835 0.4272 1.7199-0.51437zm-3.3697-0.33001c0-0.61505-0.67175-1.6291-1.0792-1.6291-0.24846 0-0.26718 0.13839-0.0839 0.62035 0.3533 0.92927 0.11365 0.92309-0.63596-0.01638-0.71644-0.89791-1.2572-1.0881-1.2572-0.4422 0 0.60232 1.0051 1.9507 1.4555 1.9525 0.21865 0.000894 0.46311 0.10769 0.54324 0.23734 0.23305 0.37709 1.0576-0.18617 1.0576-0.72247zm-13.283 0.01654c0-0.1724-0.13224-0.35754-0.29387-0.41142-0.17482-0.05827-0.29388 0.10841-0.29388 0.41142 0 0.30302 0.11906 0.46969 0.29388 0.41142 0.16163-0.05388 0.29387-0.23902 0.29387-0.41142zm4.3493 0.1012c0-0.24505-0.1715-0.34376-0.51056-0.29387-0.75266 0.11075-0.83328 0.66287-0.0968 0.66287 0.39508 0 0.60734-0.12896 0.60734-0.369zm-10.496-0.826c0.75093-0.59068 0.86732-1.9764 0.20803-2.4768-0.48593-0.36888-1.382-0.42376-1.5839-0.09703-0.22627 0.36612 0.34665 1.2318 0.72033 1.0884 0.18403-0.07062 0.33461-0.03916 0.33461 0.06993 0 0.10908-0.31738 0.26181-0.70529 0.33939-0.80945 0.16189-0.95649 0.62301-0.19866 0.62301 0.49174 0 0.49412 0.01382 0.0811 0.4702-0.41218 0.45545-0.41063 0.4702 0.0495 0.4702 0.26121 0 0.75367-0.21927 1.0944-0.48726zm9.9763-0.02996c0.39227-0.39227 0.35271-0.89337-0.0705-0.89337-0.41523 0-0.44911-0.32087-0.1023-0.96888 0.13769-0.25728 0.20249-0.59415 0.14402-0.74861-0.17916-0.47316-1.0907 1.8187-0.94495 2.3759 0.14966 0.57226 0.54184 0.6669 0.97376 0.23498zm2.0181 0.0074c1.2185-0.34596 1.4676-0.55755 1.1321-0.9618-0.14427-0.17384-0.20151-0.5486-0.12718-0.83281 0.18415-0.70418-0.34302-0.67068-0.61281 0.03894-0.2129 0.55998-0.95258 1.0355-0.95258 0.61243 0-0.40352-0.66778-0.2419-0.75901 0.1837-0.0992 0.46282 0.0447 1.2343 0.23018 1.2343 0.0669 0 0.55708-0.12363 1.0893-0.27473zm8.144-1.5952c-0.3482-0.6506-0.67097-0.6053-0.85294 0.1197-0.11183 0.44558-0.007 0.7549 0.40695 1.1975l0.55772 0.59674 0.0729-0.71644c0.04-0.39404-0.043-0.93292-0.18459-1.1975zm6.9534 1.0244c-0.0759-0.19789-0.24489-0.29377-0.37546-0.21308-0.15649 0.09672-0.14363 0.32191 0.0377 0.66079 0.29962 0.55984 0.58115 0.18663 0.33773-0.44772zm-11.323 0.3982c0.11651-0.18851-1.0315-0.7282-1.5491-0.7282-0.44955 0-0.16065 0.68017 0.32896 0.77448 0.92086 0.17736 1.0858 0.17111 1.2201-0.04628zm-8.4617-0.55187c-0.36126-1.1828-0.80054-2.0571-1.0336-2.0571-0.32352 0-0.32025 0.86743 0.004 1.0678 0.13812 0.08536 0.18919 0.3166 0.1135 0.51387-0.16388 0.42704 0.26031 1.0044 0.73795 1.0044 0.24342 0 0.29391-0.14993 0.17815-0.52897zm1.0359-0.84517c0.1829-0.81402 0.1608-1.0333-0.1148-1.139-0.48958-0.18787-0.65205 0.06544-0.62624 0.97633 0.0214 0.75496 0.25517 1.4302 0.43342 1.2519 0.0446-0.04462 0.18304-0.53476 0.30762-1.0892zm-4.2049-0.21277c0.004-0.16163-0.0772-0.29387-0.1806-0.29387-0.3811 0-0.69449 0.52295-0.57872 0.96569 0.11323 0.43296 0.13509 0.43491 0.43553 0.03895 0.17397-0.22929 0.31968-0.54914 0.32379-0.71077zm18.815 0.64652c0-0.1293-0.0466-0.2351-0.10368-0.2351-0.0571 0-0.16905 0.10579-0.24896 0.2351-0.0799 0.1293-0.0333 0.2351 0.10367 0.2351 0.13693 0 0.24897-0.10579 0.24897-0.2351zm-4.7809-0.83864c0.2088-0.54414-0.25324-0.90395-0.60953-0.47466-0.30119 0.36291-0.16476 0.8431 0.23954 0.8431 0.12573 0 0.29222-0.1658 0.36999-0.36845zm9.6131-0.35733c0.0869-0.14057 0.0358-0.37772-0.11346-0.527-0.20517-0.20516-0.32554-0.18582-0.49313 0.07926-0.12194 0.19288-0.22333 0.43003-0.22531 0.527-0.005 0.27155 0.65392 0.20872 0.8319-0.07926zm-26.273-0.26164c0.47635-0.47635 0.31891-0.82234-0.56513-1.2418-1.1705-0.55545-1.5011-0.16189-0.63835 0.75999 0.77709 0.83035 0.83272 0.85262 1.2035 0.48186zm3.3216-0.29693c0.77441-0.40046 1.1072-1.0626 0.6713-1.3356-0.21133-0.1323-0.32457-0.01017-0.37764 0.40728-0.0608 0.478-0.14032 0.54269-0.40112 0.32624-0.41337-0.34307-0.81611-0.10143-0.81611 0.48966 0 0.54713 0.0671 0.55529 0.92357 0.11237zm16.16-0.0245c0.19594-0.51062-0.3015-0.99082-0.65756-0.63476-0.30094 0.30093-0.1145 1.0032 0.26632 1.0032 0.13741 0 0.31348-0.1658 0.39124-0.36845zm5.3825 0.03017c0.41465-0.30736 0.42269-0.37249 0.088-0.71261-0.33668-0.34213-0.4044-0.33452-0.7871 0.08837-0.23031 0.25448-0.34924 0.57516-0.26428 0.71261 0.20673 0.33452 0.41917 0.31504 0.96338-0.08837zm-2.9526-0.36702c0-0.1293-0.1058-0.2351-0.2351-0.2351s-0.2351 0.10579-0.2351 0.2351c0 0.1293 0.1058 0.2351 0.2351 0.2351s0.2351-0.10579 0.2351-0.2351zm-20.355-0.449c0.37201-0.41107 0.37597-0.50757 0.0458-1.1167l-0.36135-0.66676-0.009 0.77794c-0.005 0.45683-0.10645 0.71797-0.24451 0.63264-0.1293-0.07991-0.23509-0.35064-0.23509-0.60162s-0.1058-0.45632-0.2351-0.45632c-0.29793 0-0.30023 0.50338-0.005 1.2777 0.27391 0.72042 0.50182 0.7538 1.0454 0.1531zm8.9832 0.09971c0.19264-0.19264 0.41029-0.72022 0.48367-1.1724 0.10649-0.65624 0.006-0.98883-0.49656-1.6481-0.34648-0.45426-0.78327-0.82593-0.97065-0.82593-0.43475 0-0.42818 0.1181 0.0469 0.84318 0.27541 0.42034 0.31475 0.66438 0.13592 0.84322-0.13842 0.13842-0.191 0.40978-0.11685 0.60302 0.113 0.29448 0.0509 0.3064-0.38405 0.07365-0.28538-0.15273-0.64525-0.23055-0.79971-0.17292-0.15446 0.05762 0.007 0.21944 0.35911 0.35958 0.37404 0.14893 0.70212 0.50248 0.78955 0.85086 0.17044 0.67907 0.44783 0.75064 0.95266 0.24582zm2.4374-0.0024c0-0.38639-1.0558-0.50148-1.2795-0.13947-0.0725 0.11724 0.08 0.1578 0.33877 0.09013 0.26317-0.06882 0.47052-0.0074 0.47052 0.13947 0 0.14438 0.10579 0.26252 0.2351 0.26252 0.1293 0 0.2351-0.15869 0.2351-0.35265zm2.0386-0.2636c0.37925-0.57882 0.37958-0.63394 0.005-0.90753-0.21911-0.16021-0.39838-0.42027-0.39838-0.57792 0-0.1936-0.22002-0.23831-0.67784-0.13776l-0.67784 0.14888 0.12068-1.0706c0.13675-1.2133-0.26576-1.4824-0.66131-0.442-0.32978 0.8674-0.0654 1.8504 0.61816 2.2983 0.31508 0.20644 0.57286 0.5845 0.57286 0.84013 0 0.661 0.6221 0.5752 1.0982-0.15147zm2.0344 0.22646c0.0851-0.08508 0.0357-0.29797-0.10956-0.4731-0.19849-0.23917-0.3436-0.25255-0.58311-0.05377-0.17538 0.14555-0.2609 0.35844-0.19003 0.4731 0.1511 0.24449 0.66092 0.27554 0.8827 0.05377zm11.542-0.4582c0.20454-0.07849 0.37188-0.34035 0.37188-0.58193 0-0.37434-0.0891-0.40535-0.60305-0.20994-0.82474 0.31356-0.83613 0.30747-0.66898-0.35847 0.1619-0.64505-0.28572-0.81674-0.79683-0.30563-0.91162 0.91161 0.33294 1.9794 1.697 1.456zm-10.955-1.1031c0.16516-0.86633-1.5825-2.6312-2.0966-2.1172-0.15442 0.15441 0.0914 0.52673 0.72651 1.1005 0.52793 0.47695 0.89554 0.97126 0.81693 1.0985-0.0786 0.1272-0.24143 0.17042-0.3618 0.09602-0.12037-0.07439-0.21885-0.01586-0.21885 0.13006 0 0.43518 1.0463 0.15103 1.1338-0.30791zm7.2648-0.63736c0.0289-0.32194-0.006-0.4531-0.0784-0.29147-0.21949 0.49249-0.79556 0.32848-1.0322-0.29387-0.25428-0.6688-0.64699-0.74169-1.3069-0.24258-0.66934 0.50626-0.83332 0.43562-0.53068-0.22861 0.356-0.78132 0.13407-0.94886-0.61057-0.46095l-0.60814 0.39847v-0.84988c0-0.59872-0.10422-0.84988-0.35265-0.84988-0.21125 0-0.35264-0.21681-0.35264-0.54072 0-0.52553-0.38675-1.105-0.73754-1.105-0.0953 0-0.1132 0.37028-0.0397 0.82284 0.10688 0.65861 0.057 0.82284-0.24988 0.82284-0.58615 0-0.50944 1.1865 0.0868 1.3425 0.28121 0.07353 0.47317 0.32456 0.47758 0.62451 0.004 0.27585 0.28157 0.70145 0.61668 0.94576 0.60022 0.43761 0.62475 0.4367 1.6494-0.06111 1.1008-0.53483 1.7553-0.42838 2.0475 0.33303 0.22032 0.57416 0.96072 0.30892 1.0214-0.36589zm1.5679-0.0866c0.19639-0.33321 0.18814-0.4679-0.0335-0.54856-0.16163-0.0588-0.29387-0.30344-0.29387-0.54364s-0.10829-0.50366-0.24065-0.58546c-0.15805-0.09768-0.18808 0.17995-0.0875 0.80897 0.10308 0.64461 0.0665 0.95769-0.112 0.95769-0.14583 0-0.26515 0.11355-0.26515 0.25234 0 0.39498 0.74363 0.1492 1.0327-0.34134zm-14.59-1.8506c-0.16359-0.27186-0.48651-0.209-0.60381 0.11755-0.0581 0.16163 0.00078 0.66415 0.13108 1.1167l0.23666 0.82284 0.17109-0.94039c0.0941-0.51722 0.12334-1.0197 0.065-1.1167zm-7.1313 1.2343c0-0.25861-0.1058-0.4702-0.2351-0.4702s-0.2351 0.21159-0.2351 0.4702 0.1058 0.4702 0.2351 0.4702 0.2351-0.21159 0.2351-0.4702zm13.871 0.2351c0-0.1293-0.10728-0.2351-0.23841-0.2351s-0.53548-0.33247-0.89856-0.73883-0.80976-0.68896-0.99262-0.628c-0.24151 0.0805-0.14039 0.28123 0.36958 0.73358 0.38614 0.34252 0.80786 0.72562 0.93717 0.85134 0.31118 0.30257 0.82284 0.31314 0.82284 0.017zm-15.402-0.763c-0.0411-0.42024-0.14119-0.93226-0.2224-1.1378-0.18701-0.47334 0.44775-1.02 0.95734-0.82442 0.28564 0.10961 0.34828 0.32761 0.24398 0.84914-0.17869 0.89344 0.0961 0.88751 1.0053-0.0217 0.83235-0.83236 0.93818-1.7614 0.35866-3.1484-0.214-0.5108-0.256-0.8056-0.102-0.7105 0.28056 0.17339 0.9169-0.51227 0.92934-1.0014 0.0106-0.41634-0.93499-0.36486-1.4238 0.07751-0.56538 0.51166-1.2846 0.10049-1.7429-0.99638-0.28921-0.69219-0.4127-0.79298-0.6898-0.56302-0.18562 0.15406-0.40455 0.58539-0.48651 0.9585-0.17877 0.81398-0.90615 1.1189-1.4269 0.59823-0.37383-0.37384-1.076-0.48987-1.3438-0.22206-0.0807 0.08066 0.0415 0.53029 0.27161 0.99917 0.41815 0.85225 0.42529 1.6753 0.0146 1.6753-0.11982 0-0.21786-0.10579-0.21786-0.2351 0-0.40606-1.1165-0.25775-1.2807 0.17012-0.19821 0.51652 0.51855 1.07 1.1733 0.90603 0.37152-0.09305 0.54184 0.0426 0.75176 0.59874 0.29117 0.7714 0.76623 0.72909 0.76623-0.06824 0-0.3389 0.10822-0.43994 0.36548-0.34122 0.20102 0.07714 0.70354-0.09633 1.1167-0.38547 0.41318-0.28915 0.79708-0.55429 0.85311-0.58921 0.056-0.03492-0.0138-0.17914-0.15512-0.32048-0.18593-0.18593-0.46064-0.1367-0.99343 0.17803-0.64265 0.37962-0.76499 0.39039-0.96057 0.08459-0.15982-0.24989-0.11073-0.41789 0.17112-0.58553 0.21738-0.1293 0.61709-0.46376 0.88824-0.74324 0.57983-0.59763 1.1948-0.38822 1.5421 0.52509 0.19351 0.50897 0.2767 0.53884 0.81618 0.29303 0.43503-0.19821 0.67168-0.20274 0.85801-0.0164 0.18634 0.18633-0.0835 0.4407-0.97835 0.92226-2.1114 1.1362-2.2278 1.212-2.8051 1.8265l-0.56234 0.59859 0.74481 0.25964c0.48432 0.16883 0.74482 0.41605 0.74482 0.70684 0 0.28266 0.16439 0.4472 0.4468 0.4472 0.36268 0 0.43273-0.14385 0.37206-0.76407zm22.456 0.58128c0-0.3288-0.71924-1.2187-1.1876-1.4694-0.39688-0.21241-0.45813-0.16722-0.45813 0.338 0 0.39692 0.20649 0.69195 0.64652 0.92372 0.76984 0.40549 0.99916 0.45315 0.99916 0.20763zm-25.155-1.1185c0-0.46452-0.85333-0.44018-1.0336 0.02949-0.0789 0.20562-0.0838 0.4704-0.0109 0.58838 0.18937 0.30641 1.0444-0.19943 1.0444-0.61787zm5.7994 0.46024c0.0783-0.20398-0.0308-0.54403-0.24248-0.75567-0.35633-0.35633-0.38479-0.32889-0.38479 0.37088 0 0.78952 0.38203 1.0239 0.62727 0.3848zm8.2229-0.96649c-0.26078-0.26078-0.62128 0.22329-0.61237 0.82227l0.009 0.63264 0.36164-0.6673c0.19889-0.36702 0.30749-0.72144 0.24133-0.78761zm3.61 0.63207c0-0.1293-0.1058-0.2351-0.2351-0.2351-0.12931 0-0.2351 0.10579-0.2351 0.2351 0 0.1293 0.10579 0.2351 0.2351 0.2351 0.1293 0 0.2351-0.10579 0.2351-0.2351zm-11.369-1.574c-0.28237-0.28236-0.68929 0.3514-0.50956 0.79362 0.15931 0.39201 0.19401 0.38343 0.42079-0.104 0.13594-0.29217 0.17589-0.6025 0.0888-0.68962zm-7.4787 0.31518c0.0598-0.31058-0.0367-0.40706-0.34725-0.34725-0.23654 0.04555-0.46734 0.27636-0.5129 0.5129-0.0598 0.31058 0.0367 0.40706 0.34725 0.34725 0.23654-0.04555 0.46734-0.27636 0.5129-0.5129zm24.851-0.68124c-0.094-0.55-0.165-1.2902-0.158-1.6458 0.016-0.748-0.144-0.8141-0.571-0.2351-0.33097 0.4494-0.28319 0.50354-0.68757-0.77897-0.16778-0.53211-0.5894-0.17518-0.5894 0.49897 0 0.31563-0.1058 0.57387-0.2351 0.57387-0.12931 0-0.2351-0.21159-0.2351-0.4702s-0.10579-0.4702-0.2351-0.4702c-0.26152 0-0.31234 0.70063-0.0924 1.2738 0.0785 0.20453 0.29532 0.37187 0.48186 0.37187 0.64144 0 1.7264 0.71791 1.7264 1.1423 0 0.47108 0.19563 0.73844 0.54033 0.73844 0.13709 0 0.15897-0.39541 0.0553-0.99916zm-9.7644 0.20511c0-0.17812-0.15869-0.45556-0.35264-0.61653-0.29302-0.24318-0.35265-0.21493-0.35265 0.16713 0 0.25289 0.0705 0.53033 0.15673 0.61653 0.26256 0.26256 0.54856 0.17543 0.54856-0.16713zm-7.1953-0.41291c0.52899-0.24103 0.58322-0.39684 0.5658-1.6256-0.0148-1.0438-0.0934-1.3306-0.33892-1.2364-0.1758 0.06747-0.31964-0.0087-0.31964-0.1693 0-0.16058-0.19662-0.03965-0.43693 0.26872-0.40058 0.51404-0.44425 0.92192-0.29289 2.7353 0.0301 0.36018 0.0878 0.3621 0.82258 0.0273zm10.957-0.7986c0-0.91848-0.48553-1.2905-1.0609-0.81298-0.4992 0.4143-0.4319 0.93791 0.12054 0.93791 0.26122 0 0.4702 0.15673 0.4702 0.35265 0 0.19396 0.10579 0.35265 0.2351 0.35265 0.1293 0 0.2351-0.3736 0.2351-0.83022zm-6.583-0.1102c0-0.1293-0.10579-0.2351-0.2351-0.2351-0.1293 0-0.2351 0.10579-0.2351 0.2351 0 0.1293 0.1058 0.2351 0.2351 0.2351 0.12931 0 0.2351-0.10579 0.2351-0.2351zm3.409-0.1025c0.7308-0.25688 0.84869-0.36649 0.52897-0.49181-0.47112-0.18466-0.54756-1.0563-0.12931-1.4745 0.21943-0.21942 0.21943-0.34481 0-0.56423-0.21942-0.21942-0.34481-0.21942-0.56423 0-0.42005 0.42005-0.65828 0.34288-0.65828-0.21323 0-0.33977-0.1088-0.4536-0.34643-0.36241-0.19053 0.07312-0.4401-0.03446-0.55459-0.23905-0.16811-0.30038-0.25927-0.22542-0.47361 0.38942-0.28412 0.81504-0.19387 1.1172 0.47863 1.6023 0.24498 0.17675 0.42581 0.60105 0.42581 0.99917 0 0.79243 0.0263 0.79962 1.293 0.35434zm-15.676-1.0078c-0.118-0.6128-0.896-0.6812-0.896-0.0787 0 0.33645 0.15099 0.48743 0.48743 0.48743 0.33645 0 0.46305-0.1266 0.40872-0.40872zm11.505 0.11485c-0.054-0.1617-0.345-0.2939-0.647-0.2939-0.30171 0-0.59264 0.13224-0.64652 0.29387-0.0647 0.19385 0.15543 0.29387 0.64652 0.29387 0.4911 0 0.71114-0.10002 0.64652-0.29387zm1.3518-1.1164c0-0.19378-0.18612-0.35248-0.41362-0.35265-0.22749-0.00017-0.67331-0.31769-0.99071-0.7056-0.72565-0.88686-0.7713-0.38688-0.065 0.71227 0.54413 0.84682 1.4694 1.0647 1.4694 0.34598zm-10.634-0.7643c0.15265-0.43764-0.0695-0.88162-0.44113-0.88162-0.1926 0-0.32749 0.2421-0.32749 0.58774 0 0.61058 0.5807 0.83261 0.76862 0.29387zm3.3531-0.19999c0.23947-0.75447-0.23614-1.0557-0.67579-0.42803-0.20353 0.29058-0.31532 0.61687-0.24842 0.72511 0.22884 0.37029 0.76734 0.1972 0.92421-0.29708z"/>
 </g>
</svg>
