<?xml version="1.0" encoding="UTF-8" standalone="no"?>
<!-- Created with Inkscape (http://www.inkscape.org/) -->
<svg id="svg2" xmlns:rdf="http://www.w3.org/1999/02/22-rdf-syntax-ns#" xmlns="http://www.w3.org/2000/svg" height="45" width="67.5" version="1.1" xmlns:cc="http://creativecommons.org/ns#" xmlns:dc="http://purl.org/dc/elements/1.1/">
 <metadata id="metadata7">
  <rdf:RDF>
   <cc:Work rdf:about="">
    <dc:format>image/svg+xml</dc:format>
    <dc:type rdf:resource="http://purl.org/dc/dcmitype/StillImage"/>
    <dc:title/>
   </cc:Work>
  </rdf:RDF>
 </metadata>
 <g id="g6359">
  <g id="g6291">
   <g id="g6224">
    <g id="g6158">
     <g id="g6093">
      <g id="g6029">
       <g id="g5966">
        <g id="g5904">
         <g id="g5824">
          <g id="g5764">
           <g id="g5579">
            <rect id="rect2990" opacity="0" height="45" width="67.5" y="0" x="3.5527e-15"/>
           </g>
          </g>
         </g>
        </g>
       </g>
      </g>
     </g>
    </g>
   </g>
  </g>
  <path id="path5533" d="m32.731 44.777c-1.8421-0.60047-3.1539-1.8963-3.8376-3.791-0.72571-2.0109-0.3283-4.3043 0.98286-5.672 0.33087-0.34516 0.51002-0.6372 0.46417-0.75669-0.0411-0.10702-0.0747-0.29542-0.0747-0.41867s-0.0731-0.32414-0.16256-0.44642c-0.15089-0.20635-0.28372-0.18332-1.849 0.32069-0.92751 0.29866-1.7834 0.62543-1.9019 0.72615-0.11851 0.10072-0.52722 0.22842-0.90826 0.28377s-0.95554 0.25468-1.2767 0.44295c-0.32114 0.18827-0.75506 0.34302-0.96429 0.34388-0.20921 0.000908-0.81399 0.15542-1.3439 0.34346-0.87159 0.30926-1.0272 0.32798-1.6308 0.19614-1.5494-0.33848-2.1542-0.34081-2.7587-0.0106-0.41748 0.22805-0.60142 0.27002-0.70955 0.16188-0.10814-0.10814 0.009-0.21451 0.45169-0.41035 0.44333-0.19611 0.59766-0.33648 0.59766-0.5436 0-0.63648 1.5295-2.0968 2.8782-2.7479 0.26276-0.12686 0.5167-0.35341 0.56431-0.50343 0.0962-0.3032 0.88355-0.69526 1.6827-0.83797 0.28546-0.05097 0.73507-0.20126 0.99915-0.33399 0.92253-0.46366 1.6149-0.62376 2.7778-0.64232 0.95867-0.0153 1.2686 0.03079 1.7053 0.25353 0.29349 0.14973 0.57022 0.33145 0.61496 0.40384 0.0447 0.07238 0.28113 0.13161 0.52533 0.13161 0.37651 0 0.4574-0.05424 0.53211-0.35682 0.12046-0.48782 0.62219-1.264 0.97832-1.5134 0.16586-0.11618 0.55624-0.20577 0.89658-0.20577h0.60281l0.072-0.53677c0.0872-0.64986-0.012-0.93288-0.62681-1.7886-0.5025-0.69944-0.6297-0.75938-1.0365-0.4884-0.38294 0.2551-1.924 0.51524-2.4869 0.41978-0.3208-0.05441-0.78524-0.32027-1.3254-0.75871-1.0647-0.86417-1.1906-1.0591-0.85233-1.3202 0.22912-0.17687 0.23502-0.21551 0.0551-0.36031-0.40811-0.3284-1.4203-2.0653-1.4203-2.4372 0-0.29915 0.41139-0.08538 0.69517 0.36122 0.41799 0.65781 0.73572 0.92196 1.2272 1.0203 0.32293 0.06459 0.41318 0.03849 0.41318-0.11947 0-0.11116 0.10218-0.23514 0.22707-0.27553 0.22778-0.07366 0.55144-0.62717 0.55144-0.94307 0-0.25092-0.52549-0.20339-1.0087 0.09123-0.50663 0.30889-0.54831 0.31441-0.54831 0.07263 0-0.10252 0.30654-0.35067 0.6812-0.55144 0.73276-0.39268 0.85394-0.60002 0.38925-0.66602-0.57612-0.08182-0.22269-0.41267 0.44084-0.41267 0.17726 0 0.44235-0.06425 0.58908-0.14278 0.20147-0.10782 0.55206-0.08737 1.432 0.08354 0.98921 0.19214 1.1825 0.19901 1.2797 0.04546 0.16397-0.25896 0.14499-0.61545-0.0647-1.2145-0.3554-1.0156-1.015-3.744-1.2987-5.3716-0.24316-1.3953-0.0885-2.8719 0.30076-2.8719 0.059 0 0.10344 0.65687 0.0987 1.4597-0.008 1.3965 0.32072 3.4709 0.55044 3.4709 0.23023 0 0.40225-0.35725 0.40298-0.8369 0.00039-0.28902 0.0924-0.70066 0.20425-0.91475 0.16985-0.32496 0.17748-0.46821 0.0462-0.86724-0.18885-0.57379-0.0913-1.1586 0.28039-1.6806 0.15082-0.2118 0.29238-0.57181 0.31458-0.80003 0.21282-2.1874 0.21506-2.5358 0.0222-3.4641-0.11118-0.53523-0.25621-1.1182-0.32228-1.2954l-0.12012-0.32225-0.0916 0.28865c-0.0504 0.15876-0.0506 0.35498-0.00043 0.43605 0.11724 0.18969 0.32774 4.2579 0.23596 4.5603-0.17688 0.58278-0.3103-0.05857-0.3103-1.4916 0-0.86443-0.0845-2.0433-0.18776-2.6198-0.33738-1.8834-0.33488-2.6252 0.0127-3.7729 0.47352-1.5635 0.6843-2.4263 0.68942-2.8221 0.003-0.22862 0.0746-0.35682 0.19926-0.35682 0.29633 0 0.24609 1.7809-0.0824 2.9194-0.42217 1.4634-0.42878 1.8366-0.0553 3.1196 0.1861 0.63921 0.37499 1.5884 0.41976 2.1092 0.0725 0.84405 0.12196 0.97811 0.45451 1.2326 1.0485 0.8026 1.0536 0.80923 1.1558 1.5292 0.0549 0.38648 0.10484 1.1698 0.11102 1.7407 0.0164 1.5161 0.1954 1.9814 0.52511 1.3654 0.0976-0.18246 0.0955-0.3234-0.007-0.48818-0.11088-0.17756-0.0889-0.39797 0.0943-0.94369 0.20195-0.60158 0.22296-0.90322 0.13546-1.9447-0.13538-1.6112-0.0547-2.8167 0.22479-3.3571 0.29637-0.57312 0.50326-0.36787 0.31428 0.31179-0.20881 0.75098-0.0692 3.1428 0.1991 3.4111 0.13544 0.13545 0.25095 0.16291 0.33437 0.0795 0.0701-0.07009 0.15743-1.2882 0.1941-2.707 0.0367-1.4187 0.0965-2.6094 0.133-2.6459 0.20046-0.20046 0.26197 0.35649 0.27131 2.4569 0.007 1.4999 0.0609 2.3791 0.15236 2.4706 0.10087 0.10087 0.25502 0.1026 0.53224 0.006 0.45464-0.15849 0.92694-0.06979 0.92694 0.17408 0 0.09338-0.24815 0.30767-0.55145 0.4762-0.59415 0.33017-0.61578 0.41119-0.39093 1.4647 0.10503 0.49212 0.11889 0.50429 0.26749 0.23482 0.0862-0.1563 0.20052-0.49503 0.25406-0.75272 0.11373-0.54738 0.33728-0.61425 0.39852-0.1192 0.0584 0.47176-0.33044 2.0006-0.63698 2.5046-0.15369 0.25271-0.48162 0.51207-0.84368 0.66727-0.43077 0.18465-0.57957 0.31593-0.54568 0.48144 0.0372 0.18167 0.16913 0.22339 0.65422 0.2069 0.75264-0.02558 1.3021-0.39254 1.6713-1.1162 0.21656-0.42449 0.29377-0.49034 0.38463-0.32798 0.15773 0.28184-0.10021 0.9912-0.53264 1.4648-0.19547 0.21409-0.39196 0.54523-0.43665 0.73587-0.12574 0.53642-0.88052 1.4411-1.4493 1.7372-0.43908 0.22857-0.51936 0.33672-0.55379 0.74607-0.0221 0.26331 0.007 0.47693 0.0649 0.4747 0.0578-0.0022 0.3387-0.1479 0.62415-0.32372s0.5628-0.31996 0.61632-0.32033c0.18007-0.0012 0.0993 0.25684-0.16219 0.51834-0.14273 0.14273-0.2595 0.42737-0.2595 0.63254s-0.0365 0.5555-0.0811 0.77851c-0.0746 0.37318-0.0535 0.40548 0.26554 0.40548 0.24126 0 0.40981-0.10846 0.55445-0.35682 0.30828-0.52931 0.90676-0.96712 1.3764-1.0069 0.54746-0.04635 0.53367-0.03688 0.35934-0.24692-0.0837-0.10084-0.44117-0.2231-0.79439-0.27168-0.35323-0.04858-0.64224-0.1421-0.64224-0.20781 0-0.18544 0.80842-0.63365 1.1439-0.63419 0.16526-0.000259 0.42375 0.06549 0.57442 0.14613s0.61541 0.15995 1.0327 0.17626c0.41734 0.0163 0.78921 0.06007 0.8264 0.09725 0.0372 0.03718-0.18305 0.2644-0.4894 0.50494-0.73156 0.5744-1.1322 0.91016-1.3874 1.1626-0.11466 0.11346-0.31329 0.24401-0.4414 0.29012-0.12812 0.0461-0.31731 0.3036-0.42043 0.57222-0.10313 0.26862-0.33567 0.76868-0.51677 1.1113-0.18109 0.34258-0.29499 0.67831-0.25311 0.74607 0.0419 0.06777 0.35096 0.12321 0.68684 0.12321 0.70987 0 1.4403 0.34389 1.6829 0.79234 0.10448 0.19312 0.14346 0.55587 0.10309 0.95931-0.044 0.43976-0.007 0.7261 0.11529 0.88882 0.20556 0.27382 0.49512 0.16808 0.42403-0.15484-0.026-0.11823 0.1164-0.51108 0.3165-0.87299 0.20011-0.36191 0.40005-0.92228 0.44432-1.2453 0.0778-0.56782 0.065-0.59685-0.38856-0.87715-0.35894-0.22184-0.46905-0.37553-0.46905-0.65468 0-0.21203 0.0854-0.39758 0.20402-0.44308 0.52579-0.20176 1.3665 0.75032 1.5968 1.8084 0.32118 1.4754 0.4668 1.5109 1.0837 0.26422 0.74762-1.5109 2.3056-3.6096 2.3056-3.1058 0 0.07952-0.85766 1.8797-1.7336 3.6387-0.37769 0.75843-0.39019 0.83055-0.22377 1.2908 0.22366 0.61853 0.22642 1.4093 0.006 1.6751-0.31599 0.38074-0.92367 0.6089-1.438 0.53991-0.7335-0.09838-0.88345 0.15452-0.52683 0.88856 0.30681 0.63149 0.71895 0.7796 0.84355 0.30313 0.11756-0.44955 0.40462-0.20413 0.5342 0.45669 0.0863 0.44025 0.077 0.68919-0.0324 0.8644-0.0845 0.13534-0.15368 0.3273-0.15368 0.42658 0 0.3341-0.3471 0.47252-1.2465 0.49709-0.58322 0.01593-0.99396-0.03895-1.1805-0.15772-0.40494-0.25786-0.50145-0.07938-0.26387 0.4879 0.11239 0.26834 0.33755 0.83822 0.50037 1.2664 0.16281 0.42818 0.34451 0.83575 0.40378 0.90571 0.0593 0.06996 0.5141 0.19566 1.0108 0.27935 0.69818 0.11764 1.102 0.28301 1.7802 0.72903 1.243 0.81748 2.0459 1.1417 3.0377 1.2265 0.72676 0.06217 0.95837 0.02769 1.4664-0.21826 0.33185-0.16064 0.70252-0.4456 0.8237-0.63322 0.23973-0.37115 0.81049-0.91605 0.96642-0.92262 0.4956-0.02088-0.8385 1.5472-1.6509 1.9405-0.4337 0.20995-0.8525 0.2868-1.6544 0.30357-1.0711 0.0224-1.0773 0.02064-2.501-0.72058-0.785-0.40868-1.69-0.80137-2.0112-0.87265-0.73311-0.16273-1.4273-0.17216-1.4273-0.01938 0 0.06412 0.18049 0.45824 0.40109 0.87583 0.34117 0.64581 0.38862 0.84648 0.31759 1.3431-0.0459 0.32114-0.1043 0.93421-0.12972 1.3624-0.0614 1.0345-0.18401 1.752-0.36054 2.1105-0.11343 0.23042-0.0986 0.39075 0.0685 0.74116 0.15314 0.32113 0.17186 0.4727 0.0664 0.53786-0.15038 0.09294-0.75077-0.54928-0.75195-0.80435-0.001-0.23905-0.61459-0.72956-0.85438-0.68312-0.12547 0.0243-0.50516 0.51365-0.84376 1.0874-1.0846 1.8381-2.0993 2.672-3.7182 3.0558-1.2568 0.29799-1.9766 0.29825-2.8884 0.001zm-1.6868-2.6621c0-0.02976-0.12-0.33406-0.26667-0.67622-0.32459-0.75724-0.42592-1.964-0.23827-2.8378 0.22547-1.05 0.41486-1.6681 0.60256-1.9667 0.1913-0.3043 0.0567-0.48477-0.26856-0.35997-0.22557 0.08656-0.66805 1.0576-0.8586 1.8842-0.28257 1.2259-0.0845 2.6289 0.50656 3.5889 0.21683 0.35214 0.52298 0.56732 0.52298 0.36758zm6.0136-1.3852c0.27842-0.32516 0.32467-1.0074 0.0786-1.1595-0.1726-0.10667-0.41685 0.35433-0.6035 1.1391-0.0899 0.37797 0.20879 0.38959 0.52488 0.02042zm3.9772-0.58061c0-0.39672 0.0355-0.45162 0.24807-0.38414 0.31446 0.09981 0.39868-0.24364 0.46251-1.886 0.0448-1.1531 0.0291-1.2354-0.39505-2.0677-0.60767-1.1924-1.4862-1.8836-3.0053-2.3649-1.2398-0.39273-1.6877-0.41139-1.8958-0.07895-0.22758 0.36361 0.11674 0.6272 0.8193 0.6272 0.75856 0 1.3148 0.18151 2.1119 0.6892 0.59928 0.38166 0.77162 0.66467 0.46667 0.76633-0.0869 0.02896 0.0972 0.37362 0.43901 0.82176 0.47067 0.61714 0.6034 0.90771 0.66213 1.4495 0.0404 0.37267 0.0231 0.70871-0.0384 0.74675-0.0616 0.03804-0.15133 0.30242-0.1995 0.5875-0.0994 0.58849-0.2578 0.67105-0.37691 0.19647-0.0444-0.17702-0.25512-0.45075-0.46819-0.60828-0.23575-0.1743-0.38742-0.40387-0.38742-0.58641 0-0.34643-0.19332-0.3952-0.3632-0.09164-0.10164 0.18161-0.16083 0.1641-0.46145-0.13652-0.18967-0.18967-0.39767-0.57991-0.46221-0.8672-0.14026-0.62426-0.2694-0.79583-0.27215-0.36158-0.003 0.41835-0.18994 0.69503-0.38773 0.57279-0.11022-0.06812-0.1326-0.28291-0.0727-0.69782 0.15151-1.0497 0.14698-1.1085-0.089-1.1563-0.18247-0.03697-0.22707 0.04506-0.22707 0.41764 0 0.49608-0.18606 0.62875-0.2954 0.21062-0.0512-0.19571-0.16482-0.24644-0.5017-0.22397-0.23955 0.01598-0.50852 0.0749-0.59773 0.13093-0.10035 0.06304-0.16219 0.03421-0.16219-0.07561 0-0.09762-0.0876-0.29083-0.19471-0.42935-0.19109-0.24718-0.19954-0.24617-0.45383 0.05408-0.15114 0.17845-0.34034 0.27477-0.45405 0.23114-0.20863-0.08006-0.27064-0.34245-0.0809-0.34245 0.0627 0 0.18861-0.18008 0.27977-0.40017 0.0912-0.22009 0.30261-0.4522 0.46987-0.5158 0.35571-0.13524 0.38218-0.28496 0.10022-0.56691-0.29702-0.29703-0.4767-0.25434-0.91665 0.2178-0.84417 0.90594-0.95906 1.1303-0.87184 1.7029 0.0966 0.6344 0.24934 0.85966 0.58277 0.85966 0.13496 0 0.36752-0.07299 0.51682-0.16219 0.23249-0.13892 0.29274-0.12605 0.41993 0.08969 0.35908 0.60907 1.4296 1.4133 1.7471 1.3126 0.16538-0.05249 0.36484 0.06366 0.65289 0.3802 0.22811 0.25068 0.5063 0.45578 0.6182 0.45578s0.35191 0.11678 0.53336 0.2595c0.18145 0.14273 0.43551 0.2595 0.56458 0.2595s0.33668 0.17269 0.46136 0.38376c0.12467 0.21107 0.38879 0.4509 0.58692 0.53297 0.19812 0.08207 0.42769 0.23051 0.51016 0.32988 0.24969 0.30085 0.37767 0.20522 0.37767-0.28221zm-1.368-3.7814c-0.22713-0.42176-0.57823-0.58101-0.57823-0.26228 0 0.09048 0.15903 0.39702 0.35341 0.6812 0.29571 0.43235 0.36167 0.47516 0.40403 0.26228 0.0279-0.13993-0.0528-0.44646-0.17921-0.6812zm-18.26-0.357c0.26906-0.1044 0.9433-0.30629 1.4983-0.44866 1.1222-0.28785 1.133-0.29275 1.8033-0.81383 0.28581-0.22218 0.50985-0.31744 0.55911-0.23773 0.11913 0.19276 0.61495 0.16308 0.92701-0.05549 0.37342-0.26155 1.8728-0.82144 3.0121-1.1248 1.325-0.35275 1.5773-0.54011 1.5773-1.171 0-0.66519-0.24902-0.75348-1.0194-0.36142-0.3314 0.16867-0.76922 0.28952-0.97294 0.26855-0.38185-0.03931-1.1218 0.20179-1.1218 0.36552 0 0.05083-0.23105 0.34269-0.51345 0.64858-0.49191 0.53283-0.5371 0.55262-1.0773 0.4716-0.68556-0.10281-1.8531 0.128-2.3218 0.45898-0.18942 0.13376-0.4454 0.24321-0.56883 0.24321-0.35957 0-1.2775 0.3004-1.4599 0.47774-0.092 0.0895-0.3654 0.15528-0.60751 0.14618-0.43723-0.01644-1.0401 0.28274-1.3149 0.65249-0.084 0.113-0.23468 0.158-0.36354 0.10856-0.19413-0.0745-0.17721-0.13824 0.14343-0.54009 0.19995-0.25059 0.40878-0.45562 0.46407-0.45562 0.0553-0.000003 0.15287-0.13768 0.21684-0.30596 0.13097-0.34446 0.81259-0.73462 1.7179-0.98335 0.33441-0.09187 0.63912-0.24808 0.67713-0.34713 0.038-0.09905 0.2461-0.18009 0.46243-0.18009 0.33134 0 0.39333-0.0503 0.39333-0.31917 0-0.32484 0.18288-0.41391 1.3418-0.6535 0.24001-0.04962 0.345-0.13775 0.30092-0.25262-0.0405-0.10562 0.0459-0.20686 0.21527-0.2523 0.46862-0.12568 1.7519-0.08902 2.3748 0.06784 0.44845 0.11292 0.62075 0.11077 0.73865-0.0092 0.11894-0.12104 0.0844-0.21318-0.15255-0.40678-0.25679-0.20982-0.51447-0.25029-1.5936-0.25029-1.2821 0-1.9806 0.16513-2.442 0.57725-0.10966 0.09795-0.5789 0.25006-1.0428 0.33802-0.98622 0.187-1.2975 0.32383-1.2975 0.57031 0 0.17179-0.67862 0.62923-1.7363 1.1704-0.72245 0.36965-1.7881 1.6035-1.74 2.0147 0.0333 0.28435 0.11862 0.3354 0.68672 0.41063 0.35682 0.04725 0.85312 0.14345 1.1029 0.21378 0.62377 0.17564 0.5858 0.17683 1.1327-0.03537zm17.162-0.0697c0-0.07136-0.0584-0.12975-0.12975-0.12975-0.0714 0-0.12975 0.05839-0.12975 0.12975s0.0584 0.12975 0.12975 0.12975c0.0714 0 0.12975-0.05839 0.12975-0.12975zm-5.4496-0.9006c0-0.18946-0.21381-0.27655-0.45331-0.18465-0.17312 0.06643-0.18208 0.10563-0.0441 0.19306 0.23189 0.147 0.49745 0.1425 0.49745-0.0084zm-1.499-0.408c-0.0418-0.0676-0.13126-0.08872-0.19886-0.04694s-0.0887 0.13126-0.0469 0.19886 0.13126 0.08872 0.19885 0.04694c0.0676-0.04178 0.0887-0.13126 0.047-0.19886zm-0.0285-0.56446c0.37624-0.17382 0.78625-0.34716 0.91113-0.38518 0.50233-0.15296 0.0651-1.0538-0.70471-1.4518-0.45494-0.23526-0.40093-0.26922-0.81726 0.5138-0.32566 0.61249-0.45101 1.6393-0.20011 1.6393 0.0698 0 0.43471-0.14222 0.81095-0.31604zm9.3726 0.06435c0.13251-0.21442-0.75587-1.3221-1.2726-1.5867-0.4773-0.24444-0.50986-0.2456-0.75178-0.02667-0.35425 0.32059-0.25738 0.71572 0.21269 0.86764 0.21409 0.06919 0.59361 0.29076 0.84338 0.49238 0.46385 0.37442 0.83368 0.47118 0.96832 0.25334zm-7.1164-1.1243c-0.0788-0.67082-0.29574-1.306-0.40773-1.194-0.0259 0.02595 0.007 0.27911 0.0723 0.56256 0.0657 0.28345 0.12088 0.70513 0.12258 0.93706 0.002 0.23193 0.0695 0.42169 0.15071 0.42169 0.10293 0 0.12174-0.22016 0.0621-0.72728zm4.6356-0.40496c0.0881-0.54315 0.0358-0.63009-0.45157-0.75038-0.2672-0.06595-0.38803-0.01899-0.55144 0.21432-0.40552 0.57897-0.15912 1.007 0.58471 1.0156 0.29279 0.0034 0.3507-0.06299 0.4183-0.47953zm-3.9371-0.02705c0-0.5692-0.35497-2.1467-0.60769-2.7006l-0.22209-0.48678-0.048 0.42941c-0.0516 0.46103 0.14005 1.8586 0.36367 2.6522 0.16673 0.59178 0.51415 0.66327 0.51415 0.1058zm-9.9909 0.12127c0-0.07136-0.0876-0.12975-0.19463-0.12975-0.10704 0-0.19462 0.05839-0.19462 0.12975s0.0876 0.12975 0.19462 0.12975c0.10705 0 0.19463-0.05839 0.19463-0.12975zm0.58388-0.2595c0.0441-0.07136 0.0183-0.12975-0.0572-0.12975-0.0756 0-0.13741 0.05839-0.13741 0.12975s0.0257 0.12975 0.0572 0.12975 0.0933-0.05839 0.1374-0.12975zm15.376-0.08591c0-0.31404-0.61565-1.3145-0.9038-1.4687-0.1358-0.07268-0.42702-0.13214-0.64716-0.13214-0.36874 0-0.39343 0.02723-0.31349 0.34571 0.0761 0.30316 0.0564 0.33305-0.15972 0.24282-0.45664-0.19063-0.83037-0.23078-0.83037-0.08922 0 0.17553 0.42345 0.40895 0.74187 0.40895 0.13197 0 0.61751 0.19895 1.079 0.44211 0.98878 0.521 1.0337 0.53188 1.0337 0.25049zm-14.005-0.25676c0.32661-0.13068 0.47327-0.2493 0.37973-0.30711-0.18205-0.11251-1.0955 0.13802-1.3194 0.36185-0.2368 0.2368 0.28729 0.20627 0.93962-0.05474zm6.6111 0.1156c0.005-0.28834-0.4626-2.0558-0.56212-2.125-0.28357-0.19726-1.2641 0.3251-1.5248 0.81236-0.17552 0.32795 0.0165 0.58392 0.52124 0.69477 0.20036 0.04401 0.558 0.22292 0.79476 0.3976 0.42387 0.31272 0.7677 0.41096 0.77096 0.22027zm3.7287-1.1419c0.23193-0.13423 0.4217-0.31668 0.4217-0.40545 0-0.24497-0.65665-0.80178-1.0465-0.88741-0.22781-0.05003-0.48633-0.2934-0.7595-0.71498-0.22778-0.35152-0.47434-0.67633-0.54792-0.7218-0.16739-0.10346-0.006 3.4041 0.17219 3.7474 0.10962 0.21094 0.17804 0.18558 0.72966-0.2705 0.33479-0.2768 0.79847-0.61309 1.0304-0.74732zm-3.5266-1.1191c-0.0764-0.90457-0.1756-1.6809-0.22049-1.7251-0.21417-0.21115-0.24809 1.3878-0.0472 2.2258 0.41078 1.7137 0.44868 1.6428 0.26771-0.50061zm8.8789 1.1281c0-0.10569-0.15015-0.22984-0.33365-0.2759-0.18351-0.04606-0.62143-0.28169-0.97315-0.52363-0.65642-0.45154-0.82447-0.37492-0.50145 0.22865 0.31984 0.59763 1.8082 1.0675 1.8082 0.57088zm-3.8102-0.54484c0.27337-0.17912 0.42349-0.19376 0.84181-0.0821 0.59686 0.15931 0.6915 0.06938 0.57584-0.54716-0.11293-0.60198-0.31873-0.68669-0.67162-0.27643-0.37415 0.43497-0.49049 0.4378-0.38294 0.0093 0.0807-0.3214 0.0659-0.33216-0.34275-0.24982-0.8955 0.18044-0.91406 0.19419-0.82991 0.61496 0.0432 0.21583 0.0785 0.4727 0.0785 0.57082 0 0.2423 0.32799 0.22454 0.73109-0.03958zm4.8208-0.18951c0.0284-0.14736-0.0775-0.2272-0.35533-0.26798-0.41714-0.06122-0.51994 0.11013-0.23626 0.39382 0.20948 0.20948 0.54058 0.13905 0.59159-0.12584zm-1.2701-0.08263c0-0.16248-0.39351-0.67763-0.51762-0.67763-0.20678 0-0.29928 0.54468-0.11258 0.66297 0.22059 0.13978 0.6302 0.1493 0.6302 0.01466zm-0.97974-1.1116c0.41698-0.54669 0.41415-0.6056-0.0505-1.0508-0.54944-0.5264-0.78625-0.38136-0.78625 0.48156 0 0.62882 0.15247 1.0032 0.4086 1.0032 0.0535 0 0.24614-0.19527 0.42818-0.43394zm-6.3735-1.6632c0.0122-0.61817-0.0225-1.169-0.0772-1.224-0.18158-0.1826-0.3604 0.15325-0.51003 0.95784-0.11494 0.61803-0.11084 0.96077 0.0184 1.5382l0.16628 0.74302 0.19018-0.44558c0.10978-0.25719 0.19959-0.92079 0.21242-1.5695zm2.9416 1.73c0-0.05917-0.29842-0.24734-0.66315-0.41818-0.36474-0.17083-0.82742-0.50989-1.0282-0.75347-0.45132-0.54753-0.85319-0.50317-0.63523 0.07013 0.17771 0.46739 0.36131 0.68086 0.83443 0.97012 0.38951 0.23814 1.4922 0.33524 1.4922 0.13139zm1.0802-0.82057c0.24925-0.39516-0.11902-0.93814-0.89412-1.3183-0.39094-0.19174-0.73871-0.34861-0.77281-0.34861-0.17242 0-0.0201 0.60945 0.32145 1.286 0.3708 0.73454 0.39715 0.75681 0.79857 0.67471 0.22831-0.04669 0.47442-0.17892 0.54691-0.29384zm-1.5992-0.03504c0-0.23894-0.6253-0.9831-0.82608-0.9831-0.0849 0-0.25425-0.11678-0.37645-0.2595-0.25625-0.29927-0.48424-0.33868-0.48424-0.0837 0 0.202 1.3421 1.511 1.5492 1.511 0.0756 0 0.13752-0.0831 0.13752-0.18467zm2.595-0.20431c0.16256-0.10483 0.12782-0.18466-0.21087-0.48458-0.22303-0.19749-0.43714-0.44666-0.47582-0.5537-0.0387-0.10705-0.0544 0.04545-0.0349 0.33889 0.0533 0.80326 0.25593 0.99969 0.72161 0.6994zm4.2947-1.0074c0.0779-0.20482 0.0867-0.52778 0.0221-0.80306-0.0888-0.37785-0.17444-0.46812-0.47747-0.50312-0.35019-0.04045-0.36353-0.02367-0.25787 0.32438 0.0613 0.20187 0.10677 0.64172 0.10109 0.97745-0.009 0.56048 0.01 0.59963 0.2358 0.47868 0.13537-0.07245 0.30474-0.2859 0.37639-0.47432zm-3.5918 0.05786c0.29341-0.21455 0.22075-0.67262-0.10669-0.67262-0.30139 0-0.53553 0.3466-0.42635 0.63112 0.0986 0.25689 0.22501 0.26674 0.53304 0.0415zm2.2091-0.37711c0.19733-0.28174 0.27698-1.0206 0.12626-1.1714-0.0978-0.09776-0.85721 0.35006-1.1588 0.68327-0.12815 0.1416-0.3164 0.25746-0.41832 0.25746-0.32836 0-0.09 0.32166 0.30112 0.40634 0.70341 0.1523 0.94592 0.11524 1.1497-0.17571zm-9.8151-0.86063c0.0401-0.83371-0.15198-2.5759-0.30039-2.7239-0.0466-0.0465-0.22728 0.08101-0.40144 0.28336-0.22328 0.25942-0.30787 0.4984-0.28686 0.81042 0.0164 0.24338-0.0405 0.51281-0.12643 0.59874-0.0859 0.08593-0.15624 0.22552-0.15624 0.3102 0 0.26351 0.94261 1.6208 1.0915 1.5717 0.0776-0.02559 0.15854-0.40834 0.17984-0.85056zm1.0656 0.46781c0.35143-0.57639 0.32381-0.89405-0.11421-1.3137-0.33405-0.32003-0.38133-0.33315-0.46018-0.12767-0.0839 0.21863 0.0246 1.5618 0.14269 1.7658 0.0955 0.16496 0.16534 0.11248 0.4317-0.32438zm4.3463 0.29033c0.0446-0.07225-0.15334-0.36356-0.43999-0.64735-0.4677-0.46305-0.78732-1.1412-0.79491-1.6866-0.001-0.10704-0.0602-0.28221-0.13048-0.38926-0.11357-0.173-0.14196-0.173-0.25553 0-0.19078 0.29061-0.14826 1.0228 0.10101 1.7393 0.16878 0.48521 0.32881 0.69331 0.67349 0.87582 0.51124 0.27071 0.72871 0.29847 0.84641 0.10804zm1.3758-0.7769c0.0436-0.32114 0.0571-0.64338 0.0301-0.71611-0.0271-0.07272-0.46647-0.35297-0.97645-0.62277-0.81378-0.43052-0.95046-0.46732-1.1171-0.30072-0.43289 0.4329 0.0943 1.4373 1.0759 2.0499 0.62148 0.38784 0.89458 0.27436 0.98753-0.41034zm-10.459 0.38926c-0.0441-0.07136-0.2957-0.12886-0.5591-0.12776-0.35698 0.0015-0.42936 0.03401-0.28429 0.12776 0.25896 0.16735 0.94682 0.16735 0.84339 0zm6.2105-0.81529c0.21162-0.55411 0.27513-1.0012 0.14221-1.0012-0.0385 0-0.30127 0.11796-0.58388 0.26214-0.60033 0.30627-0.69168 0.74992-0.2219 1.0776 0.41223 0.28755 0.42743 0.2798 0.66357-0.33852zm-5.4515 0.23556c0.0402-0.10476 0.023-0.22146-0.0383-0.25933-0.17043-0.10533-2.3425-0.05801-2.3425 0.05103 0 0.12487 1.0838 0.35808 1.7702 0.3809 0.36553 0.01215 0.56096-0.04309 0.61066-0.1726zm12.179-0.11617c0.39513-0.3002 0.56599-1.2504 0.22484-1.2504-0.1035 0-0.77118 1.1758-0.77118 1.3581 0 0.12659 0.32133 0.06325 0.54634-0.1077zm-1.8654-0.86718c-0.18552-0.5322-0.50505-0.75698-1.1363-0.79935-0.80429-0.05399-0.79522 0.2001 0.0181 0.5069 0.47777 0.18022 0.73931 0.36792 0.86265 0.61908 0.22603 0.46029 0.43624 0.19163 0.25558-0.32663zm-10.169 0.25763c-0.0375-0.06077-0.15366-0.07773-0.25801-0.03768-0.10435 0.04004-0.159 0.12252-0.12144 0.18329 0.0375 0.06077 0.15366 0.07773 0.25801 0.03769s0.159-0.12252 0.12144-0.18329zm-2.0062 0.01559c0-0.15309-0.25306-0.31685-0.346-0.22391-0.093 0.09294 0.0708 0.346 0.22391 0.346 0.0671 0 0.12209-0.05494 0.12209-0.12209zm6.5592-0.40019c0.29856-0.14453 0.63323-0.36348 0.74372-0.48657 0.29045-0.32356 1.2842-3.35 1.2363-3.7651-0.0438-0.3798-0.29158-0.4247-0.31325-0.05677-0.007 0.1235-0.0219 0.28845-0.0324 0.36655s-0.30675 0.47059-0.65818 0.87219c-0.56134 0.64147-0.64901 0.82127-0.72162 1.4799-0.11977 1.0864-0.11954 1.0854-0.26131 1.1134-0.22682 0.04472-0.22153-0.82486 0.0102-1.681 0.12317-0.45503 0.19319-0.85808 0.1556-0.89568-0.0376-0.03759-0.24989 0.08441-0.47176 0.2711-0.67343 0.56665-1.0162 2.1549-0.59495 2.7564 0.24583 0.35097 0.2361 0.3507 0.90766 0.0256zm-5.2942-0.07851c0.16057-0.04303 0.29194-0.15675 0.29194-0.2527 0-0.19828-1.1379-0.5734-1.7428-0.5745-0.21898-0.000389-0.62058-0.06249-0.89245-0.13799-0.69071-0.1918-0.82348-0.10348-0.46324 0.30818 0.48268 0.55158 1.933 0.8911 2.8065 0.65701zm1.6875-0.38251c0.0527-0.39627-0.16797-0.65516-0.3967-0.46533-0.15361 0.12749-0.20205 0.10543-0.26066-0.11871-0.0397-0.15187-0.13408-0.23692-0.21048-0.1897-0.21038 0.13002-0.17018 0.27219 0.20201 0.71452 0.36677 0.43588 0.61279 0.45776 0.66583 0.05923zm0.6228-0.49142c0.12615-0.50264-0.17053-1.3304-0.60911-1.6994-0.58881-0.49545-1.1277-0.74288-1.4176-0.65086-0.33115 0.1051-0.21358 0.27972 0.34568 0.51339 0.36964 0.15444 0.53168 0.36118 0.9138 1.1658 0.25546 0.53794 0.51527 0.97806 0.57735 0.97806 0.0621 0 0.14755-0.13813 0.18992-0.30696zm4.7977-0.09536c0.11457-0.36097-0.10633-0.57905-0.32259-0.31847-0.17348 0.20904-0.10174 0.59104 0.111 0.59104 0.0688 0 0.16401-0.12265 0.21159-0.27256zm-7.0756-0.18674c0-0.03852-0.11985-0.30496-0.26633-0.59208-0.17161-0.3364-0.34081-0.50759-0.47581-0.4814-0.36736 0.07126-0.33116 0.35769 0.0956 0.75635 0.38293 0.35771 0.64654 0.48702 0.64654 0.31714zm0.71347-0.34274c0.45366-0.2067 0.38079-0.59975-0.18121-0.97758-0.429-0.28841-1.0513-0.40209-1.0513-0.19205 0 0.13174 0.75133 1.3229 0.83443 1.3229 0.0339 0 0.21302-0.06898 0.39805-0.15329zm3.3714-0.3152c0.16763-0.4012 0.17224-0.60941 0.0321-1.4496-0.09-0.5396-0.22685-1.0022-0.30411-1.0279-0.0773-0.02575-0.26255 0.05728-0.41175 0.18451-0.27115 0.23122-0.27116 0.23185-0.0323 1.3049 0.37082 1.666 0.41016 1.7203 0.71609 0.98809zm4.1322-0.26923c0.4924-0.09826 0.76006-0.64537 0.43279-0.88467-0.30103-0.22012-0.70366-0.10294-0.95281 0.27731-0.11066 0.16888-0.27862 0.30706-0.37325 0.30706-0.22275 0-0.35684 0.22001-0.24468 0.40147 0.051 0.08255 0.23073 0.10641 0.42935 0.05701 0.18789-0.04673 0.50676-0.11791 0.7086-0.15819zm-5.8126-0.78687c-0.13932-0.55821-0.4435-0.81175-0.96477-0.80414l-0.46646 0.0068 0.32243 0.22026c0.17733 0.12114 0.49847 0.37912 0.71363 0.57328 0.48816 0.4405 0.50419 0.44065 0.39517 0.0038zm2.4217-0.87582c-0.0641-0.44597-0.15364-0.64876-0.28633-0.64876-0.15007 0-0.18478 0.14438-0.15599 0.64876 0.0522 0.91522 0.1172 1.0694 0.35137 0.83399 0.13792-0.13865 0.16079-0.34837 0.0909-0.83399zm-2.1242-0.10807c0.0248-0.12803-0.0414-0.21631-0.16219-0.21631-0.12037 0-0.20415 0.11094-0.20415 0.27032 0 0.31621 0.3032 0.27152 0.36634-0.054zm3.524-0.40828c0.12959-0.15615 0.1366-0.27586 0.0289-0.49365-0.0782-0.15814-0.13809-0.45052-0.13309-0.64974 0.01-0.39778-0.0421-0.48783-0.30428-0.52631-0.30437-0.04467-0.77171-0.43514-1.1012-0.92011-0.17518-0.2578-0.37377-0.43457-0.4413-0.39283-0.0675 0.04174-0.1228 0.42402-0.1228 0.84953 0 0.69161 0.0332 0.78874 0.31273 0.91612 0.24728 0.11267 0.37552 0.09851 0.61276-0.06766 0.52346-0.36665 0.62613-0.27656 0.42948 0.37685-0.0972 0.32285-0.14984 0.67318-0.11705 0.77851 0.0328 0.10533 0.0879 0.28161 0.12255 0.39173 0.071 0.22589 0.41227 0.10035 0.71336-0.26244zm-2.3676-0.42436c0.62011-0.25494 0.68747-0.44275 0.26492-0.73872-0.30029-0.21033-0.71207-0.25805-1.0634-0.12323-0.24248 0.09305-0.27511 0.70774-0.0495 0.93331 0.19797 0.19797 0.19159 0.19851 0.84803-0.07136zm-0.37218-1.1868c0.0976-0.06182 0.19423-0.27988 0.21476-0.48458 0.0205-0.2047 0.0759-0.81221 0.12299-1.35l0.0857-0.97783-0.78684 0.0047-0.78683 0.0047-0.00013 1.0097c-0.00013 1.2312 0.24 1.9106 0.67443 1.9077 0.16421-0.001 0.3784-0.05257 0.47598-0.11439zm3.862-0.54297c0.46131-0.2851 0.61299-0.70904 0.20995-0.58679-0.63878 0.19375-1.4683 0.12082-1.8519-0.16282-0.4484-0.33151-0.64579-0.27334-0.64579 0.19031 0 0.25431 0.11736 0.37634 0.55145 0.57338 0.71404 0.32412 1.1954 0.32021 1.7363-0.01408zm-0.73548-0.86524c-0.003-0.05352-0.22156-0.26228-0.48657-0.4639-0.42628-0.32432-0.48726-0.34002-0.5288-0.13622-0.0549 0.2693 0.42084 0.69743 0.77497 0.69743 0.13482 0 0.243-0.04379 0.2404-0.09731zm0.91299-0.17732c0-0.14748-0.48184-0.14998-0.5727-0.003-0.0379 0.06141-0.038 0.14264-0.00013 0.18052 0.10177 0.10177 0.57284-0.04424 0.57284-0.17755zm-0.598-0.454c0.28783-0.11045 0.12294-0.31078-0.2558-0.31078-0.30833 0-0.40537 0.12761-0.23023 0.30275 0.10707 0.10707 0.22294 0.10899 0.48603 0.008zm-0.20669-0.99198c-0.0518-0.36468-0.93272-0.87986-1.1437-0.66886-0.19763 0.19764-0.0274 0.54814 0.37156 0.7649 0.52724 0.28647 0.82128 0.2499 0.77215-0.09604zm-3.373-0.08c0.13458-0.08533 0.0998-0.21393-0.16219-0.6-0.18341-0.27027-0.33347-0.54164-0.33347-0.60304 0-0.21213-0.25086-0.11074-0.39572 0.15994-0.19834 0.37061-0.0471 0.88275 0.30229 1.0233 0.36927 0.14859 0.38511 0.14912 0.58909 0.01978zm4.5322-0.92185c0.30329-0.2817 0.55144-0.60211 0.55144-0.71202 0-0.24415-0.0993-0.24515-0.51901-0.0052-0.17841 0.10199-0.54059 0.1875-0.80484 0.19003-0.50749 0.0049-1.1414 0.23345-1.1414 0.41158 0 0.13354 0.9074 0.61817 1.1678 0.62368 0.10705 0.0022 0.44278-0.22637 0.74608-0.50807zm-3.762 0.1586c0.0349-0.1062-0.0849-0.16219-0.34681-0.16219-0.27666 0-0.40007 0.0627-0.40007 0.20325 0 0.24726 0.66419 0.21075 0.74688-0.04106zm0.0316-0.60044c0-0.19847-0.2046-0.38697-0.55635-0.51256-0.33548-0.11978-0.45834 0.29259-0.15356 0.51544 0.31125 0.2276 0.70991 0.22598 0.70991-0.0029zm3.114-0.53489c0-0.10704-0.0876-0.19463-0.19463-0.19463-0.20262 0-0.25742 0.15346-0.10813 0.30275 0.1493 0.1493 0.30276 0.09449 0.30276-0.10813zm-2.6594-0.74607c-0.28798-1.8221-0.81699-2.3246-1.1095-1.0539-0.13936 0.60537-0.0611 0.91776 0.25511 1.0181 0.12967 0.04116 0.34009 0.19011 0.4676 0.33102 0.36296 0.40106 0.48243 0.30986 0.38679-0.29525zm1.6324-0.02706c0.27425-0.61997 0.50802-0.86331 0.50802-0.5288 0 0.12488 0.15381 0.23629 0.39195 0.28392 0.21558 0.04312 0.42338 0.12924 0.46179 0.19138 0.0384 0.06215 0.12478 0.11299 0.19193 0.11299 0.19076 0 0.14326-0.33992-0.0725-0.51901-0.26212-0.21754-0.24069-0.51763 0.0649-0.90826 0.32549-0.41611 0.32295-0.51901-0.0128-0.51901-0.78726 0-1.8114 1.0443-2.0131 2.0528-0.12445 0.62223 0.17745 0.51783 0.47992-0.16598zm-3.0717 0.3377c0.0378-0.06108 0.0336-0.40667-0.009-0.76798-0.0898-0.75786-0.33153-0.79594-0.56485-0.08898-0.10463 0.31704-0.1051 0.50897-0.002 0.70216 0.14539 0.27167 0.45247 0.35424 0.57573 0.1548zm1.3885-2.2618c-0.10596-0.10596-0.14434-0.09144-0.14434 0.0546 0 0.25793 0.17447 0.43241 0.23896 0.23896 0.0273-0.08207-0.0152-0.21417-0.0946-0.29356zm-0.81632-0.26236c0.0626-0.32525-0.24009-0.68105-0.38504-0.45255-0.0587 0.09258-0.10767 0.30399-0.10877 0.46979-0.003 0.3637 0.42331 0.34884 0.49381-0.01724zm-1.0252-7.8747c0.00087-0.11139-0.0781-0.0559-0.18418 0.12975-0.10199 0.17841-0.18276 0.44116-0.17949 0.58388 0.005 0.2009 0.0462 0.1716 0.18418-0.12975 0.098-0.21409 0.1788-0.47684 0.17949-0.58388z"/>
 </g>
</svg>
