<?xml version="1.0" encoding="UTF-8" standalone="no"?>
<!-- Created with Inkscape (http://www.inkscape.org/) -->
<svg id="svg2" xmlns:rdf="http://www.w3.org/1999/02/22-rdf-syntax-ns#" xmlns="http://www.w3.org/2000/svg" height="45" width="67.5" version="1.1" xmlns:cc="http://creativecommons.org/ns#" xmlns:dc="http://purl.org/dc/elements/1.1/">
 <metadata id="metadata7">
  <rdf:RDF>
   <cc:Work rdf:about="">
    <dc:format>image/svg+xml</dc:format>
    <dc:type rdf:resource="http://purl.org/dc/dcmitype/StillImage"/>
    <dc:title/>
   </cc:Work>
  </rdf:RDF>
 </metadata>
 <g id="g5153">
  <g id="g4962">
   <rect id="rect2990" opacity="0" height="45" width="67.5" y="0" x="3.5527e-15"/>
  </g>
  <path id="path4872" d="m31.012 41.984c-1.13-1.051-3.444-3.151-5.14-4.668-1.696-1.516-4.174-3.772-5.506-5.013-2.745-2.556-4.109-3.791-8.718-7.887-1.7889-1.59-3.6386-3.242-4.1096-3.671-0.4709-0.428-2.3596-2.113-4.1978-3.744-1.8373-1.631-3.3406-3.164-3.3406-3.405 0-0.243 2.5058-2.295 5.5685-4.5607s6.4115-4.9797 7.4415-6.0313l1.8731-1.912h18.625 18.625l2.7669 2.3131c1.5218 1.2722 3.577 3.007 4.5672 3.8551 0.99019 0.84813 3.2011 2.6985 4.9132 4.1121 1.7121 1.4135 3.116 2.7495 3.1198 2.9689 0.0038 0.21933-1.2652 1.4468-2.82 2.7278-2.9668 2.444-7.0048 5.9444-10.214 8.8541-1.0473 0.94952-2.2809 2.0244-2.7415 2.3886-0.46051 0.36424-2.3068 1.9834-4.1029 3.5981s-4.1716 3.7069-5.2789 4.6492c-1.1073 0.94236-2.823 2.4515-3.8127 3.3537-2.5159 2.2935-4.7145 4.0093-5.1193 3.995-0.18848-0.0067-1.2679-0.87203-2.3987-1.923zm1.1006-3.1127c-0.17302-1.1761-0.59929-3.6401-2.1194-12.251-0.29946-1.6963-0.62089-3.3341-0.71428-3.6396-0.13856-0.45325-4.9363-3.7278-5.4618-3.7278-0.08335 0-1.3326-0.77103-2.7762-1.7134-1.4436-0.94236-2.7629-1.7134-2.9318-1.7134-0.44967 0-0.8816 1.3302-1.1199 3.4491l-0.20945 1.8624 5.331 6.8535c5.9183 7.6087 9.6555 12.165 9.978 12.165 0.11689 0 0.12747-0.57826 0.0235-1.285zm9.4202-6.1381c9.2749-11.078 9.1635-10.924 8.9401-12.395-0.5728-3.7721-0.64369-3.999-1.2184-3.9004-1.0398 0.17842-10.357 5.8974-10.595 6.5034-0.12863 0.32712-0.63991 2.5223-1.1361 4.8783-0.49626 2.3559-1.2006 5.6444-1.5652 7.3077-0.63944 2.9174-0.83123 4.686-0.50814 4.686 0.08506 0 2.8222-3.1862 6.0825-7.0804zm-5.9193-4.6552 1.0809-5.7388-0.89244-2.1427c-0.49084-1.1785-1.0519-2.5668-1.2469-3.0851-0.19496-0.5183-0.46015-0.94236-0.5893-0.94236-0.12914 0-0.81687 1.4936-1.5282 3.319-1.2561 3.2232-1.2831 3.384-0.93434 5.5685 0.19752 1.2372 0.68386 4.3313 1.0808 6.8756 0.39687 2.5444 0.81396 4.7758 0.92685 4.9586 0.26061 0.42211 0.74931-1.626 2.1028-8.8127zm12.292 1.9657c3.8275-3.3793 4.5108-4.1293 4.3249-4.7463-0.50456-1.6744-0.54125-1.6445-8.3162 6.7753-5.2646 5.7013-4.085 5.1017 3.9913-2.029zm-21.519 5.5073c0-0.08278-0.57827-0.83043-1.285-1.6614-0.70678-0.83103-1.979-2.3424-2.8271-3.3587-1.3682-1.6394-5.4829-6.4815-6.2081-7.3054-0.41829-0.4753-1.3308 0.45457-1.3308 1.3561 0 0.58627 1.4707 2.1212 5.7055 5.9549 5.4741 4.9554 5.9454 5.353 5.9454 5.0145zm28.852-11.929c0.46973-0.42406 2.7282-2.354 5.0189-4.2887 2.2906-1.9347 4.1647-3.6695 4.1647-3.8551 0-0.18557-0.50116-0.3368-1.1137-0.33607-0.86906 0.001-1.8095 0.55739-4.2814 2.5328-5.7631 4.6056-5.9033 4.767-5.3625 6.1761 0.2785 0.72579 0.56212 0.68453 1.574-0.22898zm-41.474-0.824c0.34466-0.31192 0.62666-0.74391 0.62666-0.95993 0-0.21607-1.9234-1.8884-4.2743-3.7163-3.8465-2.991-4.4172-3.324-5.7064-3.324h-1.4324l1.1675 1.1137c2.6233 2.5023 8.3824 7.4471 8.6769 7.4501 0.17363 0.0017 0.59769-0.25207 0.94236-0.56399zm17.458-4.4051c0.75161-1.6039 1.2722-3.0689 1.1569-3.2554-0.25044-0.40523-11.82-0.47169-11.82-0.0679 0 0.25103 8.765 6.2395 9.1324 6.2395 0.09039 0 0.77928-1.3123 1.5309-2.9162zm12.039-0.29954c2.2145-1.447 4.0264-2.7804 4.0264-2.963 0-0.44072-11.541-0.44467-11.813-0.004-0.11148 0.18043 0.42862 1.5838 1.2003 3.1185 1.0633 2.1147 1.5431 2.7529 1.9816 2.635 0.3182-0.08552 2.3905-1.3394 4.605-2.7865zm13.364-0.29781c1.6492-1.1242 2.9984-2.1649 2.9984-2.3126 0-0.14771-0.24392-0.36217-0.54204-0.47657-0.86324-0.33125-5.4953-0.24078-6.4605 0.12619-0.82561 0.3139-0.879 0.47692-0.879 2.6843 0 1.2926 0.09743 2.4475 0.21639 2.5665 0.29019 0.29018 1.1198-0.16985 4.6667-2.5878zm-41.036-0.62699v-2.1988l-3.1697-0.09853c-1.9744-0.06137-3.1698 0.03224-3.1698 0.24821 0 0.47043 5.5445 4.513 5.9873 4.3654 0.19373-0.06458 0.35224-1.1069 0.35224-2.3162zm32.726-3.7117c0-0.38167-2.5228-2.631-4.4444-3.9628l-1.405-0.9725-2.644 1.8223c-3.3262 2.2921-3.8722 2.7611-3.6437 3.1307 0.24759 0.4006 12.137 0.38426 12.137-0.01668zm11.963-0.0028c0.40216-0.25458 0.41071-0.49755 0.05109-1.4512-0.65545-1.738-1.1411-2.6874-1.3746-2.6874-0.25149 0-3.174 1.8911-4.7178 3.0529-0.60336 0.45404-1.0168 0.95518-0.91892 1.1137 0.23808 0.38522 6.3463 0.36057 6.9602-0.02809zm4.4858 0.01425c0-0.30194-2.1804-2.0967-2.5472-2.0967-0.31619 0-0.22171 1.0217 0.16053 1.7359 0.35879 0.6704 2.3867 0.97696 2.3867 0.36082zm-58.94-1.422c0-1.5704-0.20509-1.5416-2.3987 0.33715l-1.1994 1.0272 1.799 0.0092 1.799 0.0092v-1.3828zm8.0204 0.65526c-0.716-0.797-4.5542-3.3845-5.022-3.3845-0.31461 0-1.0945 1.6913-1.4703 3.1887l-0.23175 0.92339h3.6884 3.6884l-0.65279-0.7275zm17.68 0.57294c0-0.19033-5.7584-4.3002-6.0251-4.3002-0.3462 0-5.2833 3.9126-5.2833 4.187 0 0.14729 2.5444 0.2678 5.6542 0.2678s5.6542-0.06955 5.6542-0.15456zm-11.822-2.246c1.131-0.778 2.479-1.6733 2.996-1.9908 1.3-0.798 1.181-1.5294-0.422-2.5899-0.751-0.4974-2.178-1.5195-3.169-2.2714-2.6242-1.9896-3.3671-1.8867-6.0705 0.84102-2.6188 2.6423-2.6283 2.5883 1.0093 5.7634 1.8713 1.6334 2.7075 2.1624 3.0841 1.9509 0.28416-0.15961 1.4418-0.92616 2.5727-1.7034zm17.028-0.302c1.377-1.1092 2.811-2.3575 3.187-2.7739l0.68238-0.75697-0.74179-0.567c-2.6086-1.994-5.918-4.1651-6.3487-4.1651-0.27915 0-0.80129 0.3272-1.1603 0.72711-0.35904 0.39991-1.5395 1.4112-2.6232 2.2475-1.0837 0.83618-1.9704 1.7086-1.9704 1.9389 0 0.69871 5.2166 5.3668 5.9974 5.3668 0.26005 0 1.6-0.90772 2.9776-2.0171zm17.695-0.23c1.443-1.2363 2.747-2.4686 2.898-2.7386 0.283-0.5064-0.132-0.9432-3.69-3.8838-0.939-0.7758-1.869-1.4105-2.067-1.4105-0.78387 0-7.1916 4.7274-7.1916 5.3058 0 0.67609 5.7921 4.8856 6.7976 4.9403 0.34623 0.01884 1.8101-0.97715 3.2531-2.2133zm-26.916-5.5583c1.0778-1.0891 1.9596-2.0915 1.9596-2.2274 0-0.13589-1.9276-0.24707-4.2835-0.24707-2.8523 0-4.2835 0.12429-4.2835 0.372 0 0.45616 3.8025 4.0648 4.2941 4.0753 0.19437 0.00409 1.2353-0.88364 2.3131-1.9729zm17.434 0.1877c3.11-2.6219 3.072-2.6645-2.355-2.647l-4.7238 0.015174 2.1886 2.0409c1.2037 1.1224 2.4097 2.0409 2.6799 2.0409 0.27028 0 1.2653-0.65247 2.2109-1.4499z"/>
 </g>
</svg>
