<?xml version="1.0" encoding="UTF-8" standalone="no"?>
<!-- Created with Inkscape (http://www.inkscape.org/) -->
<svg id="svg2" xmlns:rdf="http://www.w3.org/1999/02/22-rdf-syntax-ns#" xmlns="http://www.w3.org/2000/svg" height="45" width="67.5" version="1.1" xmlns:cc="http://creativecommons.org/ns#" xmlns:dc="http://purl.org/dc/elements/1.1/">
 <metadata id="metadata7">
  <rdf:RDF>
   <cc:Work rdf:about="">
    <dc:format>image/svg+xml</dc:format>
    <dc:type rdf:resource="http://purl.org/dc/dcmitype/StillImage"/>
    <dc:title/>
   </cc:Work>
  </rdf:RDF>
 </metadata>
 <g id="g5764">
  <g id="g5579">
   <rect id="rect2990" opacity="0" height="45" width="67.5" y="0" x="3.5527e-15"/>
  </g>
  <path id="path5209" d="m15.282 44.8c0-0.10057 0.0691-0.18286 0.15351-0.18286 0.0844 0 0.24319-0.19683 0.3528-0.4374 0.16727-0.36712 0.13526-0.49567-0.19922-0.80001-0.4881-0.44412-1.2213-0.8351-1.3411-0.71522-0.16281 0.16281 0.3691 0.82698 0.84134 1.0505l0.467 0.22107-0.53928 0.15158c-0.43785 0.12307-0.65234 0.06535-1.1404-0.30692-0.84952-0.64797-1.0658-1.1072-0.69569-1.4773 0.16145-0.16145 0.24767-0.4131 0.1916-0.55921-0.0561-0.14612-0.10195-0.38236-0.10195-0.525 0-0.14263-0.12343-0.25933-0.27428-0.25933-0.15118 0-0.27429-0.16201-0.27429-0.36096 0-0.45411 1.045-3.1113 1.3682-3.4791 0.13259-0.15086 0.36898-0.58402 0.52531-0.96258s0.41138-0.73708 0.56678-0.79671c0.34148-0.13104 0.37214-0.86431 0.0502-1.1991-0.51685-0.53738-1.4271-2.153-1.8902-3.355-0.41374-1.0738-0.49203-1.5641-0.49557-3.1038-0.004-1.5827 0.0767-2.0738 0.59719-3.6522 0.75021-2.2748 1.8427-4.3982 3.1711-6.1632 1.2344-1.6401 3.7723-3.9934 5.5242-5.1223 0.704-0.45365 1.5172-0.98114 1.807-1.1722 0.28987-0.19106 0.66016-0.43067 0.82286-0.53246s0.52228-0.33766 0.79907-0.52415c0.2768-0.18649 0.74276-0.35792 1.0355-0.38094 0.62315-0.04902 2.7584-0.81906 2.7584-0.99476 0-0.06618-0.288-0.39198-0.64-0.72399-0.84484-0.79687-0.87283-1.2591-0.0457-0.75481 0.86359 0.52654 0.9798 0.44724 0.36715-0.25053-0.70011-0.79739-0.95353-2.4636-0.4875-3.2052 0.37259-0.59296 2.3912-2.5806 2.6208-2.5806 0.0927 0 0.40125-0.19359 0.68554-0.4302 0.67282-0.55998 2.5973-1.2155 3.5685-1.2155 1.2301 0 2.2725 0.61842 2.8848 1.7115 0.62425 1.1144 1.153 1.6631 1.9014 1.9731 0.42404 0.17564 0.5663 0.17762 0.62261 0.0087 0.1448-0.43438 0.84087-0.20401 1.6678 0.55197 1.4852 1.3578 1.3966 1.7405-0.4181 1.8063-1.1766 0.04265-1.2802 0.0142-1.6132-0.44296-0.19573-0.2687-0.52319-0.48854-0.72767-0.48854-0.30182 0-0.34755-0.07744-0.243-0.41143 0.26083-0.83323 0.20369-1.1407-0.22328-1.2013-0.37517-0.05328-0.41143 0.01521-0.41143 0.77715 0 0.45957-0.0841 0.83558-0.18694 0.83558-0.10281 0-0.6225 0.432-1.1549 0.96-0.53238 0.528-1.1957 1.1451-1.4741 1.3712-0.27838 0.22618-0.47383 0.50818-0.43433 0.62668s0.84722 0.40566 1.7949 0.63813c2.0551 0.50411 4.3532 1.5814 5.4509 2.5553l0.79555 0.70583-1.1151-0.06193c-1.2419-0.06897-1.5062 0.15061-1.1028 0.91622 0.30792 0.58438 0.51607 0.69396 1.3244 0.69721 0.38376 0.0015 0.85812 0.08864 1.0542 0.19354 0.50991 0.2729 0.63855-0.18927 0.25768-0.9258-0.17673-0.34176-0.21178-0.52906-0.0842-0.45024 0.12011 0.07423 0.42405 0.59758 0.67542 1.163 1.2539 2.8205 1.6537 5.111 1.3604 7.7938-0.088 0.80458-0.13428 1.5109-0.10287 1.5695 0.0314 0.05866 0.30967 0.06959 0.61834 0.02428 0.42644-0.06259 0.51528-0.13774 0.36991-0.3129-0.14165-0.17068-0.0225-0.37874 0.45891-0.80143 0.35762-0.314 0.7849-0.5709 0.94951-0.5709 0.5921 0 2.7165-0.9616 3.2537-1.4728 0.30171-0.2871 0.74164-1.0082 0.97761-1.6025 0.40487-1.0197 0.4126-1.1123 0.13714-1.645-0.16054-0.31045-0.29203-0.83597-0.29219-1.1678-0.00019-0.41304-0.23013-0.92061-0.7289-1.6091-0.40073-0.55314-0.92703-1.2993-1.1696-1.6581-0.24252-0.35883-0.64447-0.78577-0.89322-0.94876-0.82019-0.53741-1.675-1.408-1.958-1.9942-0.15324-0.3174-0.40205-0.63193-0.5529-0.69896-1.4294-0.63505-3.1738-1.6058-3.2521-1.8098-0.0534-0.13911-0.002-0.40549 0.11466-0.59194 0.11645-0.18646 0.21172-0.46356 0.21172-0.61578 0-0.20035 0.19919-0.27677 0.72145-0.27677 0.62018 0 0.94425 0.17969 2.3085 1.28 0.87288 0.704 1.7208 1.2806 1.8843 1.2813 0.43203 0.0019 1.4067 1.0245 3.7009 3.8832 0.67589 0.84216 1.1627 1.8964 1.4147 3.0641 0.11942 0.55315 0.30397 1.376 0.41011 1.8286 0.28214 1.203 0.21453 1.8066-0.32175 2.8728-0.94928 1.8872-2.6933 3.0174-5.7412 3.7204-3.2358 0.74637-3.0844 0.65636-4.0127 2.3857-1.4405 2.6833-3.5958 5.5614-3.9468 5.2702-0.14793-0.12277-0.24248-0.0242-0.31744 0.33094-0.0618 0.29269-0.36056 0.67607-0.70916 0.90995-0.33132 0.22228-0.95503 0.65429-1.386 0.96-0.43099 0.30572-0.86299 0.55585-0.96 0.55585-0.097 0-0.17638 0.06843-0.17638 0.15206 0 0.16761-1.5695 1.2256-2.1208 1.4297-0.19126 0.07079-0.38889 0.17782-0.43917 0.23783-0.0503 0.06001-0.61043 0.38192-1.2448 0.71535-1.4067 0.73942-3.4676 1.4708-4.6981 1.6673-2.065 0.32978-2.9268 0.88995-4.1267 2.6825-0.35502 0.53038-2.9951 2.7427-3.7249 3.1214-0.41174 0.21365-0.61411 0.23082-0.8661 0.07345-0.57033-0.35618-0.93539-0.25871-0.81579 0.21781 0.0906 0.36091-0.0148 0.48196-0.7165 0.82286-0.86566 0.42057-3.0072 0.57499-3.0072 0.21684zm2.5284-0.99493c0.0379-0.32267 0.19247-0.54426 0.42139-0.60412 0.26161-0.06841 0.34612-0.22247 0.30584-0.55751-0.045-0.3744 0.0493-0.49749 0.49291-0.64338 0.30172-0.09922 0.74535-0.33311 0.98586-0.51975 0.34762-0.26977 0.4916-0.29426 0.70222-0.11946 0.22919 0.19021 0.2222 0.25115-0.0517 0.45148-0.17421 0.12738-0.40792 0.26444-0.51938 0.30459-0.11145 0.04014-0.14716 0.13288-0.0794 0.20607 0.0678 0.0732 0.35581 0.01991 0.64-0.11841 0.46027-0.22402 0.51058-0.3339 0.46052-1.0058-0.0492-0.66016 0.0271-0.83756 0.61142-1.4219 0.3672-0.36719 0.86563-0.7429 1.1076-0.83491 0.26482-0.10068 0.44001-0.31471 0.44001-0.53753 0-0.20363-0.0339-0.37024-0.0753-0.37024-0.85449 0-3.1935-0.69242-4.3494-1.2876-1.1584-0.59644-1.505-0.70371-1.7136-0.5305-0.14388 0.11941-0.26161 0.32012-0.26161 0.44601 0 0.28432-1.468 2.2863-1.6764 2.2863-0.38625 0-0.0842-0.72357 0.56785-1.3603 0.39599-0.38668 0.82232-0.9501 0.94739-1.2521 0.20576-0.49674 0.18751-0.5813-0.19167-0.88835-0.72141-0.58416-0.96146-0.44825-0.90247 0.51096 0.0458 0.74578 0.00025 0.86956-0.37108 1.0069-1.2308 0.45531-1.8442 1.316-1.3744 1.9286 0.23794 0.31025 0.25848 0.30522 0.36966-0.09038l0.11771-0.41888 0.27217 0.38858c0.322 0.45972 0.0909 0.80129-0.5479 0.80963-0.55943 0.0073-0.64808 0.60312-0.11886 0.7989 0.27043 0.10004 0.33748 0.19704 0.19644 0.28421-0.33763 0.20866-0.24963 0.65932 0.12874 0.65932 0.2384 0 0.37801 0.17574 0.45823 0.57686 0.17857 0.8929 0.42349 1.0689 1.4877 1.0689 0.87417 0 0.96512 0.03833 0.97616 0.41143 0.0244 0.82602 0.0916 1.0603 0.28556 0.9967 0.10895-0.03569 0.22504-0.29421 0.25796-0.57447zm5.1958-2.4337c0.15606-0.176 0.31338-0.48168 0.3496-0.67929 0.0362-0.19761 0.3533-0.55488 0.7046-0.79394s0.61474-0.51968 0.58539-0.62361c-0.0293-0.10392 0.0867-0.34373 0.25793-0.5329 0.42202-0.46632 0.17964-0.64797-0.43807-0.3283-0.79688 0.41239-2.8458 2.6696-2.7202 2.9967 0.1458 0.37995 0.91036 0.35648 1.2608-0.03871zm3.8872-3.8794c2.4508-0.39608 3.2185-0.58487 4.6235-1.137 1.2088-0.47507 1.5047-0.93424 0.96937-1.5041-0.20976-0.22328-0.38138-0.46156-0.38138-0.5295s0.55507-0.37522 1.2335-0.68283c1.7348-0.7866 4.6216-2.6283 5.4507-3.4774 0.67721-0.69353 0.69081-0.73271 0.43599-1.2559-0.14467-0.29703-0.6267-0.82577-1.0712-1.175-0.94973-0.74617-1.2228-0.70198-2.5564 0.41368-1.3135 1.0989-4.1479 2.6022-6.4184 3.4044-2.4139 0.85276-3.4504 1.029-6.1172 1.0402-2.2828 0.0096-2.713-0.03984-3.8672-0.44405-0.71427-0.25014-1.7533-0.75658-2.309-1.1254-1.4617-0.97023-1.5986-0.85898-1.8544 1.5071-0.0775 0.71682-0.0259 0.85717 0.49346 1.3428 1.3203 1.2343 3.7882 2.3216 5.2931 2.332 0.54488 0.0038 0.72338 0.09141 0.84759 0.41619 0.49272 1.2884 1.5622 1.4673 5.2279 0.87493zm2.8343-2.2006c-0.22066-0.14261-0.19175-0.17781 0.14794-0.18006 0.23544-0.0016 0.37223 0.07809 0.30921 0.18006-0.1359 0.21989-0.1169 0.21989-0.45715 0zm-2.9035-3.7531c1.6546-0.36044 3.9334-1.1408 4.5493-1.5579 0.25142-0.17028 0.63827-0.36581 0.85965-0.43451 0.63116-0.19587 2.9498-1.767 4.2948-2.9102 2.3597-2.0057 4.5321-5.8656 4.8132-8.5521 0.28414-2.7154-0.9592-5.4596-3.0599-6.7537-0.80309-0.4947-0.86079-0.58042-0.82286-1.2224l0.0408-0.69044-1.1886-0.30753c-2.9788-0.77072-6.3925-0.16047-10.606 1.8959-1.7014 0.8304-3.6489 2.1063-3.7858 2.4802-0.0644 0.17598-0.96196 1.125-1.9945 2.1089-1.0326 0.98392-2.0633 2.0948-2.2906 2.4686-0.22724 0.3738-0.62845 0.96764-0.89157 1.3196-0.4685 0.62676-1.0401 2.0446-1.6101 3.994-0.24098 0.82417-0.25238 1.205-0.0729 2.4367 0.32177 2.2076 1.3025 3.6457 3.3896 4.9702 1.8064 1.1464 5.181 1.4504 8.3752 0.75464zm-2.1445-0.81873c-0.0208-0.58586 0.11253-0.65801 0.6673-0.36111 0.34287 0.1835 0.34264 0.19391-0.012 0.54857-0.49421 0.49421-0.63247 0.45466-0.65528-0.18747zm2.0612-0.61922c0.46034-0.39597 0.52818-0.40889 0.72603-0.1383 0.27102 0.37064 0.0221 0.56823-0.72077 0.57228l-0.51305 0.0028 0.50779-0.43678zm-7.7103-0.11179c0.0622-0.10057 0.19044-0.18286 0.28508-0.18286 0.0946 0 0.17207 0.08229 0.17207 0.18286s-0.12829 0.18286-0.28509 0.18286c-0.15678 0-0.23422-0.08229-0.17206-0.18286zm9.7829 0c0-0.10057 0.0872-0.18286 0.19366-0.18286 0.1065 0 0.14279 0.08229 0.0806 0.18286-0.0622 0.10057-0.1493 0.18286-0.19365 0.18286-0.0444 0-0.0806-0.08229-0.0806-0.18286zm-6.547-0.585c-0.12-0.12-0.217-0.429-0.213-0.685l0.005-0.46629 0.45398 0.51609c0.56608 0.64353 0.34158 1.2236-0.24611 0.63591zm9.2056-0.31651c-0.13523-0.21881 0.20876-0.43561 0.45232-0.28508 0.2045 0.12639 0.0703 0.4553-0.18584 0.4553-0.0887 0-0.20862-0.0766-0.26648-0.17022zm-11.619-0.17924c0-0.20656 1.0603-1.1134 1.3018-1.1134 0.0971 0-0.0532 0.288-0.33403 0.64-0.48186 0.60391-0.9678 0.84161-0.9678 0.4734zm3.9239-0.21128c-0.14972-0.24226-0.13558-0.25244 0.64752-0.46623 0.4101-0.11196 0.72384-0.34913 0.87338-0.66023 0.23041-0.47933 0.87261-0.8335 1.0997-0.60645 0.19226 0.19226-0.24568 0.73522-0.6408 0.79449-0.20216 0.03032-0.60001 0.29775-0.88411 0.59429-0.53964 0.56325-0.89186 0.67388-1.0956 0.34413zm5.0361-0.44498c0-0.16762 0.0885-0.27528 0.19658-0.23924 0.10811 0.03603 0.19657 0.1437 0.19657 0.23924s-0.0885 0.2032-0.19657 0.23924c-0.109 0.037-0.197-0.071-0.197-0.239zm1.4629-0.27429c0-0.43598 0.28079-0.48505 0.43758-0.07647 0.15683 0.4087 0.14446 0.44219-0.1633 0.44219-0.15238 0-0.27428-0.16254-0.27428-0.36572zm1.5196-0.83882c-0.46302-0.71251-0.28717-0.96066 0.32785-0.46265 0.33462 0.27095 0.38623 0.41905 0.24762 0.71054-0.16462 0.34622-0.19904 0.3314-0.57547-0.24789zm-9.7482 0.18169c0-0.16027-0.16457-0.33444-0.36572-0.38704-0.56966-0.14897-0.43-0.4187 0.21679-0.4187 0.3461 0 0.75397-0.16108 1.005-0.39691 0.66105-0.62103 0.74232-0.21747 0.0914 0.45407-0.31998 0.33014-0.58179 0.69919-0.58179 0.82012s-0.0823 0.21987-0.18285 0.21987c-0.10058 0-0.18286-0.13113-0.18286-0.29141zm-3.5938-1.5736c0.0191-0.53489 0.14501-0.8869 0.39373-1.1004 0.57961-0.49751 0.62252-0.39357 0.29418 0.71246-0.38185 1.2863-0.72684 1.4808-0.68791 0.38794zm11.38 0.05295c-0.31671-0.34996-0.38376-0.74801-0.12599-0.74801 0.0898 0 0.21426 0.13283 0.27656 0.29517 0.077 0.20068 0.26027 0.26707 0.5725 0.20738 0.65797-0.12578 0.73263 0.1585 0.0996 0.37919-0.43388 0.15125-0.5873 0.12631-0.82264-0.13373zm-9.9808-0.35395c0-0.08499 0.16457-0.30345 0.36572-0.48549 0.3544-0.32073 0.36571-0.31938 0.36571 0.04353 0 0.20597-0.13015 0.42444-0.28924 0.48549-0.38151 0.1464-0.44219 0.14043-0.44219-0.04353zm-2.4686-0.2112c0.0622-0.10057 0.25215-0.1816 0.42222-0.18006 0.26648 0.0024 0.2713 0.0273 0.0349 0.18006-0.3581 0.23142-0.60017 0.23142-0.45714 0zm6.8572-0.11035c0-0.16979 0.723-0.41695 0.80964-0.27677 0.0552 0.08934-0.10437 0.20158-0.35462 0.24942-0.25026 0.04784-0.45502 0.06014-0.45502 0.02734zm3.9314-0.80394c-0.0622-0.10057 0.0564-0.18286 0.26349-0.18286 0.20708 0 0.37651 0.08229 0.37651 0.18286s-0.11857 0.18286-0.26349 0.18286c-0.14493 0-0.31435-0.08229-0.37651-0.18286zm-1.5543-0.17729c0-0.09751 0.28469-0.16659 0.63265-0.15351s0.58996 0.09286 0.53778 0.17729c-0.13237 0.21418-1.1704 0.19308-1.1704-0.02378zm10.789-0.0055c0-0.10057 0.0823-0.18286 0.18286-0.18286 0.10057 0 0.18285 0.08229 0.18285 0.18286s-0.0823 0.18286-0.18285 0.18286c-0.10058 0-0.18286-0.08229-0.18286-0.18286zm-1.097-0.673c-0.75649-0.25592-1.8568-0.82378-1.768-0.9125 0.0554-0.05539 0.53758 0.000732 1.0715 0.12483 1.4408 0.33475 1.4644 0.34459 1.386 0.5796-0.0874 0.26221-0.32104 0.33271-0.6895 0.20807zm-18.834-1.0348c0-0.16693 0.25857-0.24381 0.81996-0.24381 0.66256 0 0.78111 0.0468 0.61761 0.24381-0.11129 0.1341-0.48027 0.24381-0.81996 0.24381-0.39277 0-0.61761-0.08876-0.61761-0.24381zm4.2057-1.0362c0-0.10057 0.0823-0.18286 0.18286-0.18286 0.10057 0 0.18286 0.08229 0.18286 0.18286s-0.0823 0.18286-0.18286 0.18286c-0.10057 0-0.18286-0.08229-0.18286-0.18286zm-3.7161-0.19707c0.34343-0.34343 1.5711-0.5382 1.8634-0.29563 0.21535 0.17872 0.13409 0.24087-0.45089 0.34482-1.12 0.19904-1.6425 0.18084-1.4125-0.04919zm4.7218-0.16864c0.0622-0.10057 0.19044-0.18286 0.28508-0.18286 0.0946 0 0.17207 0.08229 0.17207 0.18286s-0.12829 0.18286-0.28509 0.18286c-0.15678 0-0.23422-0.08229-0.17206-0.18286zm4.1991-0.37645c-0.0658-0.10648 0.0931-0.5006 0.35314-0.87583 0.52083-0.75156 0.51211-0.33585 0.12713-6.062-0.15627-2.3243-0.10694-2.4779 0.85781-2.6709 0.48745-0.09749 0.5757-0.0684 0.48777 0.16076-0.0591 0.15388-0.27027 0.32238-0.46939 0.37446-0.33423 0.0874-0.35262 0.19861-0.23941 1.4479 0.0674 0.74426 0.0449 1.7589-0.0502 2.2548-0.0951 0.49587-0.12423 1.601-0.0648 2.4559l0.10805 1.5543 0.29526-0.64c0.54852-1.1889 0.91802-2.54 0.79804-2.918-0.11649-0.36705 0.63279-2.2473 0.98142-2.4628 0.21039-0.13003 1.3019 0.41742 1.3019 0.65298 0 0.1004-0.21696 0.15609-0.48214 0.12375-0.53059-0.06471-0.62631 0.05551-1.0452 1.3126-0.15079 0.45257-0.52127 1.5358-0.82328 2.4072-0.30201 0.87137-0.50622 1.7483-0.45379 1.9488 0.18874 0.72172-1.3021 1.5513-1.6823 0.93616zm9.188-0.651c-0.28324-0.28323-0.0985-0.3976 0.5997-0.37135 0.40166 0.0151 0.7039 0.10973 0.67164 0.2103-0.0701 0.21857-1.0852 0.34716-1.2713 0.16105zm-18.142-0.80105c-0.0622-0.10057-0.0258-0.18286 0.0806-0.18286 0.10651 0 0.19365 0.08229 0.19365 0.18286s-0.0363 0.18286-0.0806 0.18286c-0.0444 0-0.13149-0.08229-0.19365-0.18286zm21.943-0.18286c-0.0622-0.10057-0.0259-0.18286 0.0806-0.18286 0.10651 0 0.19365 0.08229 0.19365 0.18286s-0.0363 0.18286-0.0806 0.18286c-0.0444 0-0.13149-0.08229-0.19365-0.18286zm-19.463-0.25508c-0.76979-0.27814-1.0344-0.77214-0.31722-0.59213 0.86472 0.21703 1.4033 0.47028 1.4033 0.65982 0 0.23739-0.29214 0.21918-1.0861-0.0677zm15.715-0.12274c0-0.23096 0.56977-0.35992 0.86362-0.19548 0.21783 0.1219 0.15056 0.17825-0.29 0.24291-0.31549 0.04631-0.57362 0.02496-0.57362-0.04743zm2.56-0.09012c0-0.15679 0.0836-0.23339 0.18584-0.17022 0.10222 0.06317 0.1385 0.19146 0.0806 0.28508-0.15675 0.25363-0.26648 0.20634-0.26648-0.11486zm-17.924-0.72506c-0.34508-0.4158-0.085-0.53229 0.5921-0.26517 0.92003 0.36298 1.0176 0.54388 0.29339 0.54388-0.36303 0-0.75713-0.12404-0.88549-0.27871zm-1.553-0.636c0.0622-0.10057 0.1493-0.18286 0.19365-0.18286 0.0444 0 0.0806 0.08229 0.0806 0.18286s-0.0872 0.18286-0.19366 0.18286c-0.1065 0-0.14279-0.08229-0.0806-0.18286zm3.2946 0.0051c-0.0605-0.09781-0.43289-0.2746-0.82767-0.39287-0.75702-0.22681-0.81599-0.52646-0.1036-0.52646 0.43963 0 1.3853 0.63319 1.3853 0.92756 0 0.22358-0.31429 0.21788-0.45403-0.0082zm3.6558-0.72862c-0.0935-0.42587-0.0596-0.64701 0.11587-0.75551 0.31098-0.19227 0.90121 0.32643 0.59821 0.5257-0.10917 0.07179-0.28474 0.28834-0.39016 0.48122-0.17248 0.31556-0.20492 0.29037-0.32392-0.25142zm4.7702 0.38644c-0.0633-0.10239-0.026-0.24122 0.0829-0.30853 0.28114-0.17376 0.46254 0.06425 0.22784 0.29894-0.13132 0.13132-0.23361 0.13448-0.31079 0.0096zm4.5734-0.50067c-0.18417-0.47992-0.12582-0.80791 0.14372-0.80791 0.30884 0 0.50429 0.44678 0.35998 0.82286-0.13679 0.35647-0.36376 0.34973-0.5037-0.01496zm-3.2196-0.45299c0-0.10651 0.0823-0.14279 0.18285-0.08064 0.10057 0.06216 0.18286 0.1493 0.18286 0.19365s-0.0823 0.08064-0.18286 0.08064c-0.10057 0-0.18285-0.08714-0.18285-0.19365zm4.6629 0.01079c-0.0622-0.10057 0.0525-0.18286 0.2549-0.18286 0.20234 0 0.57783-0.09565 0.83442-0.21256 0.5817-0.26504 0.86308-0.03135 0.38403 0.31894-0.40882 0.29893-1.307 0.34556-1.4734 0.07648zm-12.537-0.93605c-0.25616-0.50213-0.32329-0.81414-0.20139-0.93605 0.12191-0.12191 0.3097 0.06578 0.56339 0.56305 0.41883 0.82097 0.47341 1.1262 0.20139 1.1262-0.0985 0-0.35205-0.33894-0.56339-0.75319zm1.6538-0.44345c-0.34057-0.89576-0.40748-1.3634-0.19509-1.3634 0.20539 0 0.45648 0.51418 0.67366 1.3795 0.15168 0.60434-0.24779 0.59088-0.47857-0.01613zm10.975 0.30111c0-0.19146 0.57463-0.56733 0.86732-0.56733 0.088 0 0.31966 0.12127 0.51488 0.2695 0.342 0.25966 0.33826 0.26852-0.10219 0.24262-0.25143-0.01479-0.64229 0.03406-0.86858 0.10854-0.2484 0.08176-0.41143 0.06064-0.41143-0.05332zm2.1943-0.20161c0-0.10057 0.0871-0.18286 0.19365-0.18286 0.10651 0 0.14279 0.08229 0.0806 0.18286-0.0622 0.10057-0.1493 0.18286-0.19366 0.18286-0.0443 0-0.0806-0.08229-0.0806-0.18286zm-5.668-0.42c0-0.48668 1.6597-2.1979 1.8993-1.9583 0.13464 0.13463-0.12163 0.50644-0.85346 1.2383-0.73384 0.73384-1.0459 0.94865-1.0459 0.72002zm-4.496-0.60632c0.07-0.2897 0.18448-0.77358 0.25445-1.0753 0.07-0.30172 0.23627-0.57121 0.36957-0.59888 0.17495-0.03632 0.20428 0.0654 0.10545 0.36572-0.0753 0.22881-0.18465 0.69727-0.24301 1.041-0.0584 0.34374-0.22032 0.66305-0.35991 0.70958-0.19524 0.06508-0.22443-0.03691-0.12655-0.44213zm-4.5555-0.80101c0.0622-0.10057 0.19044-0.18286 0.28508-0.18286 0.0946 0 0.17207 0.08229 0.17207 0.18286s-0.12829 0.18286-0.28509 0.18286c-0.15678 0-0.23422-0.08229-0.17206-0.18286zm6.8507-0.35369c0.28579-0.534 0.23008-0.74345-0.19774-0.74345-0.31423 0-0.3706 0.08599-0.29965 0.45714 0.0594 0.31063 0.005 0.45714-0.16728 0.45714-0.48085 0-0.49036-0.56737-0.0174-1.0403 0.38836-0.38836 0.5204-0.42757 0.84853-0.25196 0.42716 0.22861 0.51846 0.90638 0.16916 1.2557-0.3407 0.34071-0.54584 0.25863-0.33557-0.13426zm4.5779-1.0025c0-0.15924 0.13029-0.28952 0.28953-0.28952s0.25695 0.09772 0.21714 0.21714c-0.11301 0.33906-0.50667 0.3953-0.50667 0.07238zm-1.0057-0.28952c0.0621-0.10057 0.14929-0.18286 0.19364-0.18286 0.0444 0 0.0806 0.08229 0.0806 0.18286s-0.0871 0.18286-0.19365 0.18286c-0.10651 0-0.14279-0.08229-0.0806-0.18286zm-4.1703-0.29979c-0.14609-0.14609 0.0191-0.43164 0.24963-0.43164 0.0946 0 0.17207 0.12343 0.17207 0.27429 0 0.28277-0.21577 0.36328-0.4217 0.15735zm3.3474-0.05513c0-0.09464 0.0823-0.22292 0.18286-0.28508 0.10057-0.06216 0.18286 0.01527 0.18286 0.17207 0 0.15679-0.0823 0.28508-0.18286 0.28508-0.10057 0-0.18286-0.07743-0.18286-0.17207zm-19.124 17.975c0.16911-0.4407-0.0241-0.83275-0.65661-1.3327l-0.56196-0.44414 0.13604 0.44414c0.46012 1.5022 0.83865 1.9682 1.0825 1.3327zm-0.9903-2.5235c0-0.04435-0.0823-0.13149-0.18286-0.19365-0.10057-0.06216-0.18286-0.02587-0.18286 0.08064s0.0823 0.19365 0.18286 0.19365c0.10057 0 0.18286-0.03628 0.18286-0.08064zm34.69-3.827c-0.10605-0.31815-0.93946-0.24939-1.0034 0.08278-0.0437 0.2269 0.0661 0.27155 0.50829 0.20666 0.3108-0.04562 0.5331-0.17556 0.49514-0.28944zm1.9581-0.59193c0.34646-0.13295 0.39104-0.98616 0.0515-0.98616-0.33922 0-0.67658 0.38295-0.67658 0.768 0 0.34742 0.15091 0.4001 0.62505 0.21815zm2.5833-1.435c0.24686-0.24686 0.44884-0.65442 0.44884-0.90568 0-0.51439 0.35449-1.4131 0.63475-1.6093 0.38892-0.27222-0.16466-0.50487-0.63681-0.26762-0.40116 0.20158-0.45521 0.347-0.45617 1.2272-0.00091 0.92586-0.0343 1.003-0.45714 1.0597-0.63511 0.08522-0.8348 0.32405-0.55393 0.66248 0.31981 0.38534 0.49734 0.35633 1.0205-0.1668zm-10.706-2.0197c0-0.15086-0.0823-0.27429-0.18286-0.27429-0.10057 0-0.18285 0.12343-0.18285 0.27429s0.0823 0.27429 0.18285 0.27429c0.10058 0 0.18286-0.12343 0.18286-0.27429zm11.595-2.4371c-0.1563-0.88035-0.36839-1.0963-0.72574-0.73895-0.23953 0.23953-0.24685 0.36363-0.0481 0.81502 0.45498 1.0335 0.96202 0.98361 0.77387-0.07608zm-1.0482-2.5151c0.0549-0.90343-0.0407-1.0041-0.65986-0.69523l-0.55467 0.27671 0.39911 0.53982c0.47862 0.64737 0.77135 0.60383 0.81542-0.1213zm-1.0381-1.6109c0-0.59062-1.0852-1.9184-1.5776-1.9303-0.49796-0.01208-0.80826-0.38627-0.69808-0.84181 0.0994-0.41082-0.19646-0.96215-0.40459-0.75402-0.0771 0.07709-0.0397 0.30099 0.083 0.49756 0.19365 0.31008 0.17458 0.3574-0.14406 0.3574-0.202 0-0.36727 0.07668-0.36727 0.17041 0 0.24014 1.0031 0.92674 1.354 0.92674 0.2185 0 0.29177 0.18369 0.29177 0.73143 0 0.59363 0.0647 0.73143 0.34333 0.73143 0.18883 0 0.44576 0.12343 0.57096 0.27429 0.33219 0.40026 0.54858 0.33594 0.54858-0.16308zm-2.7429-1.5461c0-0.08518-0.144-0.32508-0.32-0.53311-0.17601-0.20803-0.41803-0.52919-0.53782-0.7137-0.20584-0.317-0.21842-0.31418-0.22858 0.05131-0.006 0.21272 0.15979 0.60358 0.36824 0.86858 0.37275 0.47388 0.71816 0.63112 0.71816 0.32693zm-16.952-1.8424c0.47746-0.18153 0.86003-1.2632 0.86003-2.4316 0-0.34953 0.13658-0.73233 0.32-0.89685 0.176-0.15786 0.41802-0.44358 0.53782-0.63493 0.19819-0.31656 0.21931-0.29848 0.23439 0.20067 0.0158 0.52243 0.0294 0.53166 0.28503 0.19362 0.14766-0.19522 0.26848-0.45678 0.26848-0.58123 0-0.87587-1.8046-1.1053-2.7089-0.34437-0.46597 0.39209-0.81757 1.0867-0.75307 1.4879 0.0104 0.06464-0.0896 0.18454-0.22209 0.26646-0.18489 0.11427-0.12469 0.27031 0.25867 0.67045 0.56236 0.58697 0.61702 0.9111 0.24048 1.426-0.18291 0.25015-0.20322 0.42184-0.069 0.58352 0.22713 0.27367 0.19414 0.27101 0.74819 0.06037zm-0.52878-2.8027-0.34835-0.41143 0.45715 0.36377c0.25143 0.20007 0.49143 0.38522 0.53333 0.41143 0.0419 0.02622-0.007 0.04767-0.1088 0.04767-0.10174 0-0.34175-0.18514-0.53333-0.41143zm-0.90437 2.4311c0.31024-0.34282 0.30658-0.39837-0.0894-1.3538-0.27572-0.6652-0.36209-1.1085-0.25992-1.3339 0.0842-0.1857 0.16206-0.41993 0.17311-0.5205 0.0668-0.60818 0.74438-1.4362 1.4301-1.7475 0.98922-0.44912 1.7068-0.44397 2.7552 0.01978 0.94258 0.41695 1.3604 0.92818 1.5084 1.8455 0.0798 0.49487 0.01 0.69726-0.36213 1.0457-0.25362 0.23764-0.73393 0.48741-1.0674 0.55503-0.51422 0.10429-0.6148 0.21033-0.66263 0.69863-0.0416 0.42509 0.0392 0.62682 0.3089 0.77118 0.37583 0.20114 0.74209-0.04348 0.39048-0.26079-0.32915-0.20342-0.19985-0.4424 0.40845-0.75491 0.84814-0.43573 2.4693-2.1766 2.5782-2.7687 0.15277-0.83057 0.0756-1.1867-0.2772-1.279-0.39658-0.10371-0.40114-0.12731-0.11359-0.58775 0.1219-0.1952 0.17032-0.40625 0.10757-0.46899-0.21119-0.21119-1.1426-0.32961-2.7064-0.3441-1.4294-0.01324-1.6358 0.03268-2.569 0.57168-1.6784 0.96943-2.5723 1.7977-3.0865 2.8599-0.51553 1.0649-0.49915 2.0083 0.0423 2.4368 0.23163 0.1833 0.4759 0.47727 0.54283 0.65328 0.16015 0.42115 0.54736 0.40585 0.94857-0.03749zm5.9673-3.6337c-0.2695-0.50357-0.25142-0.76308 0.0532-0.76308 0.30078 0 0.53547 0.74758 0.30657 0.97648-0.0913 0.09133-0.24563-0.000201-0.35973-0.2134zm11.468 3.3058c-0.0339-0.17583-0.36219-0.4844-0.72961-0.68572-0.36743-0.20132-1.0066-0.55117-1.4203-0.77746-0.90867-0.49696-0.86645-0.49471-1.1-0.05841-0.27377 0.51154 0.23711 0.9655 1.0115 0.89879 0.46103-0.03972 0.71101 0.06495 1.0635 0.44528 0.5295 0.57134 1.2724 0.68358 1.1749 0.17752zm-6.2154-2.6499c-0.07-0.49051-0.60512-0.64594-0.76745-0.22292-0.15437 0.40229 0.0124 0.63248 0.45824 0.63248 0.27625 0 0.35312-0.10181 0.30921-0.40956zm-6.7328-0.25202c0-0.15086-0.0823-0.22343-0.18286-0.16128-0.10057 0.06216-0.18286 0.23644-0.18286 0.3873s0.0823 0.22343 0.18286 0.16127c0.10057-0.06216 0.18286-0.23644 0.18286-0.3873zm5.4857-0.2527c0-0.10057-0.0363-0.18286-0.0806-0.18286-0.0444 0-0.13149 0.08229-0.19365 0.18286-0.0622 0.10057-0.0259 0.18286 0.0806 0.18286 0.10651 0 0.19365-0.08229 0.19365-0.18286z"/>
 </g>
</svg>
