<?xml version="1.0" encoding="UTF-8" standalone="no"?>
<!-- Created with Inkscape (http://www.inkscape.org/) -->
<svg id="svg2" xmlns:rdf="http://www.w3.org/1999/02/22-rdf-syntax-ns#" xmlns="http://www.w3.org/2000/svg" height="54" width="99" version="1.1" xmlns:cc="http://creativecommons.org/ns#" xmlns:dc="http://purl.org/dc/elements/1.1/">
 <metadata id="metadata7">
  <rdf:RDF>
   <cc:Work rdf:about="">
    <dc:format>image/svg+xml</dc:format>
    <dc:type rdf:resource="http://purl.org/dc/dcmitype/StillImage"/>
    <dc:title/>
   </cc:Work>
  </rdf:RDF>
 </metadata>
 <g id="g14684">
  <rect id="rect2990" opacity="0" height="54" width="99" y="0" x="0"/>
  <path id="path4908" d="m30.648 48.787c-1.7199-1.0907-3.3793-3.0956-3.8768-4.6842-0.67552-2.1566-0.79355-5.2755-0.25321-6.6904 0.51653-1.3525 1.7632-2.5361 2.6711-2.5361 0.37934 0 0.98467 0.40908 1.5793 1.0673 0.8799 0.97395 0.96424 1.2058 0.96424 2.6512 0 1.3345-0.0933 1.6493-0.59259 1.999-1.2272 0.85953-2.8736 0.28019-2.8736-1.0111 0-1.0293 0.73355-1.7734 1.7482-1.7734 1.0494 0 1.0592-0.02032 0.5154-1.0719-0.58236-1.1261-1.3428-1.4684-2.1244-0.95627-1.5378 1.0076-1.6307 5.4356-0.17799 8.4794 0.94811 1.9866 3.1207 4.214 4.1102 4.214 1.0866 0 2.1327-1.3828 2.2648-2.9937 0.18052-2.2016-0.61695-6.9445-1.8055-10.738-0.59731-1.9064-1.4842-5.026-1.971-6.9324-0.59007-2.3113-1.0058-3.4662-1.2476-3.4662-0.19947 0-0.76575 0.7799-1.2584 1.7331-0.90229 1.7458-2.1604 3.5816-2.3349 3.4071-0.0518-0.05179 0.53475-1.3495 1.3034-2.8838 0.76868-1.5343 1.5496-3.4703 1.7354-4.3022 0.33575-1.5033 0.85653-2.2743 1.336-1.978 0.13789 0.08522 0.38941 0.95136 0.55892 1.9248 0.30905 1.7747 2.0161 7.9828 2.8134 10.231 1.0711 3.021 1.9922 8.1011 1.9961 11.009 0.004 2.943-0.40894 4.1243-1.8717 5.3551-1.0618 0.89341-1.7329 0.88212-3.209-0.05395zm0.007-8.9652c0.50206-0.60494 0.2283-1.346-0.49722-1.346-0.84107 0-1.3175 0.74009-0.84386 1.3108 0.43676 0.52626 0.92292 0.539 1.3411 0.03516zm36.241 6.8177c-1.5279-1.5279-1.4396-2.3132 0.48714-4.3333 0.94981-0.99578 2.2283-1.966 3.3996-2.5799l1.8773-0.9839 0.0787-1.4905c0.0579-1.0968-0.031-1.5815-0.33658-1.8351-0.35-0.29047-0.51753-0.23431-1.0658 0.35731-1.0454 1.1281-2.0092 0.77254-2.0092-0.74116v-0.80321l-1.2757 1.2565c-1.9487 1.9194-2.9905 1.6419-2.9905-0.79659 0-0.77724-0.0803-1.4132-0.17856-1.4132-0.0982 0-0.79272 0.65992-1.5434 1.4665-0.90015 0.96722-1.5762 1.4665-1.9859 1.4665-0.61024 0-2.2284-1.4336-2.863-2.5364-0.29461-0.512-0.33505-0.50173-1.1998 0.3047-1.8625 1.7368-3.0359 1.8772-4.3878 0.52526-0.71309-0.71309-0.90655-1.1229-0.90655-1.9204 0-0.77759-0.19711-1.2172-0.84587-1.8866l-0.84589-0.87273-1.295 1.2114c-1.6939 1.5845-2.158 1.4953-2.9031-0.55782l-0.29027-0.7999-0.44281 0.62141c-1.8666 2.6195-2.4156 2.7151-3.3185 0.57792-0.30967-0.73296-0.65063-1.3326-0.7577-1.3326s-0.40141 0.20997-0.65408 0.46661c-0.79151 0.80392-1.8219 1.3962-2.4322 1.3981-0.3229 0.0011-0.99493-0.41819-1.4934-0.93146-0.55451-0.57096-1.1624-0.93321-1.5662-0.93321-0.93383 0-1.8816-1.0897-1.773-2.0386 0.10908-0.95359 0.85042-1.0251 0.97916-0.09443 0.1353 0.97814 0.55784 1.4122 1.0097 1.0372 0.23922-0.19854 0.36458-0.89247 0.36458-2.0183 0-2.25 0.43481-3.8995 1.2232-4.6401 0.61871-0.58125 0.65358-0.58464 1.1737-0.11392 0.77055 0.69734 0.71468 2.6497-0.13053 4.5609-0.83551 1.8892-0.85685 2.8772-0.074 3.4255 0.89243 0.62508 1.4022 0.50959 2.3089-0.52304 0.87042-0.99134 1.0456-1.4736 1.1602-3.1947 0.0577-0.86508 0.1718-1.0665 0.60434-1.0665 0.49945 0 0.5284 0.15217 0.45651 2.3997-0.07 2.1905-0.0216 2.4674 0.55578 3.1759 0.37691 0.46252 0.7602 0.69736 0.94839 0.58105 0.54771-0.3385 1.7666-2.9122 1.9055-4.0236 0.10554-0.84434 0.24441-1.0665 0.66658-1.0665 0.49658 0 0.52707 0.14774 0.44321 2.1477-0.0709 1.6906-0.003 2.2204 0.32161 2.4893 0.22641 0.18791 0.53776 0.26372 0.69187 0.16848 0.59452-0.36743 1.1991-1.9403 1.3347-3.4723 0.12168-1.3748 0.21657-1.5998 0.67485-1.5998 0.46281 0 0.56047 0.2464 0.7392 1.865 0.13766 1.2467 0.36917 2.0282 0.69839 2.3574 0.47888 0.47888 0.51368 0.46195 1.2606-0.61314 2.5078-3.6098 2.9942-4.0144 3.5584-2.9602 0.41523 0.77589 0.33628 1.7029-0.28693 3.3686-0.49483 1.3225-0.70454 1.5672-1.7331 2.0222-1.2665 0.56025-1.4468 1.0456-0.75511 2.0331 0.6979 0.99639 1.8045 0.78241 3.3292-0.64374l1.3217-1.2363v-1.7873c0-4.255 2.5604-10.496 5.5993-13.648 1.7207-1.7849 2.3416-2.0384 3.2291-1.3183 0.54979 0.44607 0.63205 0.73008 0.60031 2.0726-0.079 3.3409-2.5394 8.3303-5.8331 11.829-1.6626 1.766-2.3624 3.024-2.1509 3.8666 0.19201 0.76502 1.4216 2.2582 1.8596 2.2582 0.17816 0 0.71728-0.40582 1.198-0.90181 0.78818-0.81319 0.83917-0.95812 0.51891-1.4747-0.30815-0.4971-0.27941-0.70417 0.21719-1.5645 0.69747-1.2084 1.5209-1.3377 1.6451-0.25836 0.0715 0.6212 0.20864 0.73324 0.89764 0.73324 0.75134 0 0.80011 0.05584 0.64048 0.73324-0.41287 1.752-0.47608 2.9351-0.16703 3.1261 0.4796 0.29641 1.5834-0.87447 2.3815-2.5262 0.92194-1.9081 1.5238-1.9646 1.4208-0.13332-0.0412 0.73324-0.006 1.6137 0.0777 1.9566 0.1322 0.53998 0.21051 0.57568 0.58493 0.26663 0.23776-0.19625 0.65619-0.86179 0.92982-1.479 0.98057-2.2116 1.3381-1.7202 1.9763 2.7164 0.70712 4.9162 0.005 7.7326-2.5089 10.071-1.8102 1.6835-2.842 1.7384-4.349 0.23134zm3.6085-0.58072c1.5507-1.3615 2.7133-5.6013 1.6481-6.0101-0.89577-0.34374-4.0392 1.8694-4.848 3.4133-0.56614 1.0806-0.46079 1.7704 0.40219 2.6334 0.99145 0.99146 1.6365 0.98302 2.7977-0.0366zm-15.571-15.782c0.53817-0.88267 0.71291-2.0664 0.30503-2.0664-0.28639 0-0.94552 0.75201-1.3587 1.5502-0.24726 0.47763-0.24762 0.70344-0.002 0.99987 0.42923 0.51718 0.45125 0.50708 1.0553-0.48365zm5.8361-1.2163c0.14219-0.2657 0.74888-1.0756 1.3482-1.7998 1.3802-1.6678 4.1341-7.1107 4.5595-9.0116 0.34964-1.5623 0.18335-2.837-0.37008-2.837-1.7308 0-6.5773 9.7598-6.5773 13.245 0 0.99031 0.60077 1.2233 1.0397 0.40314zm-23.246-3.6193c0.28804-0.98786 0.30041-1.3598 0.055-1.6554-0.56903-0.68564-1.0456 0.08004-1.0456 1.6799 0 1.8007 0.4617 1.7893 0.99057-0.02442zm8.2454 17.301c-0.0937-0.24426-0.17043-0.67427-0.17043-0.95557 0-0.32852-0.1851-0.51146-0.51752-0.51146-0.28464 0-0.59704-0.12864-0.69421-0.28588-0.0972-0.15723-0.67418-0.24722-1.2822-0.19997-0.60805 0.04725-1.138-0.03409-1.1777-0.18073-0.0402-0.14832 0.69366-0.32579 1.6537-0.39995 0.94921-0.07332 1.8723-0.28004 2.0513-0.45937 0.41536-0.41609 0.0601-1.2451-1.0998-2.5661-1.1587-1.3197-0.74521-1.8798 0.4359-0.59052 0.94129 1.0275 1.428 1.0504 1.4342 0.06741 0.005-0.91144 0.29794-1.784 0.59754-1.784 0.17584 0 0.20902 0.61821 0.0936 1.7446-0.0983 0.95956-0.10861 1.8581-0.0229 1.9968 0.15052 0.24354 1.2978-0.34624 1.8611-0.95677 0.53669-0.58162 1.7766-1.2156 2.2131-1.1315 0.31986 0.0616 0.11564 0.31471-0.71249 0.88306-0.63849 0.43819-1.514 1.0967-1.9457 1.4633-0.77984 0.66235-0.78216 0.67293-0.36626 1.6665 0.45847 1.0952 0.16459 1.3418-0.68399 0.5738-0.60097-0.54386-1.0365-0.27552-1.0418 0.64178-0.005 0.98-0.39307 1.5901-0.6254 0.98468zm28.359-17.732c0-1.8088-0.30805-2.0244-1.3332-0.93321-0.88034 0.93708-1.2198 0.83077-0.51363-0.16088 0.68633-0.96386 0.42717-1.2947-1.0195-1.3015-0.4766-0.0022-0.86655-0.12407-0.86655-0.27072s0.38995-0.26795 0.86655-0.26957c0.47661-0.0016 1.3116-0.0765 1.8554-0.16642l0.98886-0.16348 0.0777-1.8787c0.0499-1.2072 0.19679-1.918 0.41096-1.9889 0.23376-0.0773 0.33329 0.25004 0.33329 1.0961 0 0.66348 0.13443 1.2894 0.29873 1.391 0.16829 0.10402 0.71193-0.26641 1.2451-0.84839 0.57372-0.62626 0.99005-0.90194 1.0573-0.70013 0.061 0.18308-0.40927 0.91168-1.0451 1.6191-1.2499 1.3906-1.8227 2.9553-1.8227 4.9794 0 0.65781-0.11999 1.196-0.26664 1.196-0.14813 0-0.26663-0.71102-0.26663-1.5998zm-44.896-7.6118c-0.12167-0.31709-0.38116-0.37089-1.1202-0.23225-0.56587 0.10616-1.387 0.04013-1.9946-0.1604-0.77656-0.25629-1.1237-0.2654-1.3992-0.0367-0.40646 0.33732-0.71736 0.15355-0.71736-0.42404 0-0.35066-1.6927-2.6452-2.2458-3.0442-0.13529-0.09763-0.26018-1.2975-0.27752-2.6663-0.0345-2.7224-0.11079-2.5493 2.0567-4.6661 0.54993-0.53708 0.99988-1.1368 0.99988-1.3327 0-0.43823 0.13213-0.44472 0.78268-0.038448 0.38758 0.24205 0.74585 0.24501 1.5036 0.012441 0.65048-0.19964 1.1592-0.21734 1.4698-0.051128 0.26123 0.13981 0.90279 0.25419 1.4257 0.25419 0.65875 0 0.95074 0.12038 0.95074 0.39197 0 0.21558 0.37309 0.66552 0.82908 0.99987s0.93296 0.87787 1.0599 1.2078c0.12697 0.32996 0.41793 0.59992 0.64659 0.59992 0.34324 0 0.38568 0.22649 0.24341 1.299-0.11187 0.84331-0.0681 1.3634 0.12485 1.4827 0.21688 0.13404 0.21798 0.33165 0.004 0.73137-0.16122 0.30124-0.24138 0.90028-0.17813 1.3312 0.0811 0.55272-0.0208 0.85618-0.34613 1.0303-0.25363 0.13573-0.58141 0.59181-0.72842 1.0135-0.19537 0.56046-0.49584 0.81243-1.1169 0.93664-0.62359 0.12472-0.93017 0.38331-1.1524 0.97202-0.33651 0.89153-0.58287 1.0085-0.82042 0.38941zm-0.81477-0.94821c0.10006-0.1619-0.11882-0.5951-0.4864-0.96268-0.6175-0.6175-0.7262-0.64058-1.4294-0.30353-1.1209 0.53724-1.1465 1.2315-0.0505 1.3665 1.6399 0.20203 1.784 0.19468 1.9663-0.10028zm-3.9966-1.6902c0.21395-0.85244-0.0355-1.215-0.83565-1.215-0.77189 0-0.87047 0.64854-0.20957 1.3788 0.59234 0.65453 0.84996 0.61415 1.0452-0.16382zm5.1312-0.48176c-0.10355-0.72903-1.293-0.96624-1.7974-0.35845-0.48701 0.58682-0.12002 0.95837 0.94662 0.95837 0.81818 0 0.9253-0.07553 0.85083-0.59992zm-3.2848-0.19997c0-0.2381-0.29673-0.43409-0.73324-0.48432-0.70907-0.08159-1.0086 0.38676-0.54423 0.85108 0.3257 0.32571 1.2775 0.05246 1.2775-0.36676zm5.8508-1.1259c0.22829-0.32593 0.41506-0.8101 0.41506-1.076 0-0.40312-0.18812-0.47044-1.1332-0.40549-1.0579 0.07269-1.1386 0.13398-1.2152 0.92208-0.0682 0.70157 0.022 0.86408 0.53326 0.96178 0.33841 0.06466 0.69848 0.1339 0.80014 0.15387 0.10167 0.01997 0.37163-0.23036 0.59993-0.55628zm-3.5514-0.28355c0.40377-0.34073 0.77185-0.99483 0.87054-1.547 0.14078-0.78774 0.0548-1.082-0.48686-1.6665-0.87499-0.94412-1.8065-0.90362-3.0986 0.13472-1.2681 1.0191-1.3644 1.8654-0.33443 2.9404 0.88204 0.92065 2.059 0.97404 3.0494 0.13832zm-1.7717-1.0947c-0.98992-0.72385 0.63054-1.5137 1.7218-0.83921 0.27549 0.17026 0.21208 0.33082-0.2801 0.70926-0.77097 0.59282-0.80456 0.59585-1.4417 0.12995zm-2.3674 0.86118c0.27852-0.45067-0.88569-1.29-1.7893-1.29-0.60772 0-0.77037 0.11963-0.77037 0.56659 0 0.48343 0.11387 0.54382 0.77578 0.41144 0.5422-0.10844 0.82067-0.03819 0.92485 0.2333 0.1792 0.467 0.5955 0.50511 0.85907 0.07864zm8.3241-2.0259c0.0546-0.38264-0.0534-0.5972-0.30065-0.5972-0.51694 0-1.0755 0.7035-0.84919 1.0696 0.29774 0.48175 1.0583 0.16928 1.1498-0.47241zm-8.3017-1.8637c0.0519-2.0449-0.11234-2.2716-1.1033-1.5222-0.37147 0.28091-0.50285 0.66242-0.45792 1.3297 0.0429 0.63786-0.0671 0.98571-0.34561 1.0926-0.22476 0.086246-0.40865 0.39084-0.40865 0.67688 0 0.44695 0.15932 0.50854 1.1332 0.43808l1.1332-0.08199 0.0491-1.9331zm6.6785 1.1002c-0.10105-0.5286-0.0109-0.73168 0.36886-0.831 0.63827-0.16691 0.64374-0.90238 0.0125-1.6819-0.51217-0.6325-1.1097-0.52973-1.1097 0.19084 0 0.30444-0.17059 0.3703-0.64844 0.25037-0.51158-0.1284-0.68781-0.038756-0.8349 0.4247-0.14927 0.47029 0.0199 0.76208 0.84842 1.463 1.2548 1.0616 1.5384 1.0999 1.3632 0.18396zm-4.7278-1.9668c0-0.35551-0.17775-0.53326-0.53326-0.53326-0.51385 0-0.72255 0.52174-0.35551 0.88878s0.88877 0.15834 0.88877-0.35551zm1.0176-1.5331c-0.10225-0.88863-1.2842-1.2615-1.2842-0.40516 0 0.58546 0.48778 1.1384 1.0043 1.1384 0.24014 0 0.33557-0.24992 0.27996-0.73324zm1.7475 0.14066c0.35804-0.56854-0.12182-1.1577-0.7474-0.91767-0.5835 0.22391-0.56485 1.5783 0.0202 1.4631 0.24091-0.047415 0.56818-0.29288 0.72724-0.54548z"/>
 </g>
</svg>
