<?xml version="1.0" encoding="UTF-8" standalone="no"?>
<!-- Created with Inkscape (http://www.inkscape.org/) -->
<svg id="svg2" xmlns:rdf="http://www.w3.org/1999/02/22-rdf-syntax-ns#" xmlns="http://www.w3.org/2000/svg" height="54" width="99" version="1.1" xmlns:cc="http://creativecommons.org/ns#" xmlns:dc="http://purl.org/dc/elements/1.1/">
 <metadata id="metadata7">
  <rdf:RDF>
   <cc:Work rdf:about="">
    <dc:format>image/svg+xml</dc:format>
    <dc:type rdf:resource="http://purl.org/dc/dcmitype/StillImage"/>
    <dc:title/>
   </cc:Work>
  </rdf:RDF>
 </metadata>
 <g id="g12601">
  <rect id="rect2990" opacity="0" height="54" width="99" y="0" x="0"/>
  <path id="path4980" d="m23.987 49.425c-0.0411-0.04106-0.0746-0.54202-0.0746-1.1132 0-0.57159-0.0504-1.0697-0.11199-1.1078-0.0711-0.04399-0.11198-1.4853-0.11198-3.9551 0-3.7646 0.007-3.8903 0.22397-4.0258 0.13653-0.08526 0.22397-0.26115 0.22397-0.45052 0-0.26904 0.18321-0.44208 1.3678-1.2918 0.75227-0.53962 1.7032-1.1427 2.1131-1.3402 0.68963-0.33222 0.7508-0.39118 0.81887-0.78926 0.17039-0.99636 0.8896-1.8332 2.1953-2.5543l0.72789-0.402 0.81881 0.11419c1.0675 0.14887 1.2521 0.01913 1.7999-1.2654 0.3394-0.79587 0.46829-0.98112 0.79684-1.1452 0.21557-0.10769 0.50533-0.19588 0.6439-0.19597 0.24931-0.000224 0.25197 0.01637 0.25197 1.5676v1.5678h-0.27606c-0.15184 0-0.4542-0.1564-0.67191-0.34755l-0.39584-0.34755 0.001 0.76749c0.00075 0.42212 0.0387 0.8234 0.084 0.89174 0.0452 0.06834 0.53581 0.15056 1.0901 0.18272 0.55432 0.03216 1.1502 0.12464 1.3242 0.20551 0.35764 0.16623 0.63551 0.62521 0.63551 1.0497 0 0.34526-0.25309 0.37482-0.83468 0.09747-0.21688-0.10343-0.42311-0.15926-0.45829-0.12409-0.13196 0.13196 0.26967 0.83854 0.71827 1.2636 0.72026 0.68252 0.75331 0.68724 1.1046 0.15766 0.17052-0.25709 0.45467-0.62177 0.63147-0.81039 0.39041-0.41655 0.30289-0.63404-0.32619-0.81054-0.34562-0.09697-0.46493-0.20593-0.61665-0.56319-0.17131-0.40337-0.80261-1.0789-1.1024-1.1798-0.15505-0.05214-0.57183-2.3014-0.57183-3.0861v-0.59431h0.96342 0.96341l0.76393-0.77154c0.79865-0.80662 1.6497-1.3123 2.4138-1.4341 0.28575-0.04558 0.78352-0.31701 1.4284-0.7789 2.3787-1.7037 3.6509-1.9574 8.4744-1.6898 2.2845 0.12672 3.4766 0.05347 5.1593-0.31704l0.83022-0.1828 0.0361-1.35c0.0588-2.2001-0.15336-2.9661-0.65119-2.3513-0.12623 0.15589-0.23936 0.20097-0.34322 0.13678-0.12715-0.07858-0.13042-0.16352-0.0182-0.47377 0.2054-0.56804 0.18252-0.60874-0.42402-0.75425-0.43009-0.10318-0.73661-0.10436-1.3158-0.0051-1.665 0.28539-1.8649 0.45124-1.3217 1.0968 0.31169 0.37042 0.79996 0.53882 1.8824 0.64921 0.71144 0.07256 0.90284 0.17093 0.64391 0.33096-0.0616 0.03807-0.11198 0.34056-0.11198 0.67222v0.60301l-0.51746-0.22889c-0.5153-0.22795-0.52019-0.228-1.1782-0.01225l-0.66077 0.21664-0.35717-0.62536c-0.19644-0.34395-0.59563-0.86425-0.88708-1.1562-0.59539-0.59645-0.7483-0.60123-1.2307-0.03848-0.26962 0.31452-0.28264 0.3714-0.14568 0.63674 0.0827 0.16025 0.51323 0.61305 0.9567 1.0062 0.67996 0.60283 1.1088 1.1884 1.1088 1.514 0 0.14499-1.109-0.05793-1.5522-0.284-0.2462-0.1256-0.74098-0.4711-1.0995-0.76777s-1.0298-0.81775-1.4917-1.1579c-0.46194-0.34019-1.0058-0.78454-1.2085-0.98744-0.20274-0.2029-0.6183-0.49333-0.92346-0.6454-0.60793-0.30295-1.0036-0.72412-1.0036-1.0683 0-0.19419 0.0515-0.2123 0.41994-0.14771 0.23098 0.04049 0.70724 0.27287 1.0584 0.51639 0.59482 0.41252 1.0973 0.57092 1.0973 0.34589 0-0.30318-0.60393-0.7749-1.5621-1.2202-0.58822-0.27333-1.1822-0.60091-1.32-0.72796-0.22349-0.20608-0.29739-0.21696-0.6849-0.10086-0.23891 0.07158-0.59053 0.13014-0.7814 0.13014-0.56314 0-0.61559-0.23152-0.5238-2.3123 0.0925-2.0965 0.0682-2.0615 1.0671-1.5392 0.33956 0.17755 0.63477 0.26188 0.75383 0.21534 0.17332-0.06774 0.16156-0.10434-0.10267-0.31983-0.48144-0.39264-0.47221-0.85925 0.017-0.85925 0.26852 0 0.39035 0.08841 0.61731 0.44794 0.15553 0.24636 0.33254 0.44794 0.39335 0.44794 0.24481 0 0.10604 0.52604-0.17221 0.65282l-0.28281 0.12885 0.22587 0.44274c0.26752 0.52438 0.90144 1.1664 1.3252 1.342 0.24062 0.09975 0.36595 0.30224 0.61345 0.99114 0.38493 1.0714 0.83669 1.7482 1.2019 1.8006 0.22271 0.03197 0.48379-0.18844 1.451-1.225 2.9048-3.113 2.81-3.0286 3.2615-2.9017 0.23733 0.06672 0.61095 0.33102 0.91125 0.64462 0.62665 0.65441 0.68765 0.71544 1.3363 1.3372 0.28717 0.27525 0.58304 0.64752 0.6575 0.82727 0.0803 0.19396 0.21929 0.32682 0.34181 0.32682 0.11355 0 0.26162 0.1031 0.32906 0.2291 0.1192 0.22273 0.1812 0.22694 2.2295 0.15151l2.1069-0.07759 0.11811 0.38042c0.065 0.20923 0.15401 0.55679 0.1979 0.77236 0.0889 0.43688 0.13362 0.37387 0.37715-0.53192 0.091-0.3386 0.18675-0.47593 0.33167-0.47593 0.27946 0 1.1479 0.78466 1.4128 1.2764 0.11947 0.22185 0.26875 0.4031 0.33173 0.40279 0.063-0.000336 0.31609-0.12473 0.56245-0.27646 0.24637-0.15174 0.53613-0.27746 0.64391-0.27939 0.10779-0.0019 0.19597-0.05789 0.19597-0.12438 0-0.07444-0.12175-0.09414-0.31688-0.05128-0.24748 0.05436-0.42907-0.01115-0.82906-0.29906-0.28168-0.20276-0.79528-0.57023-1.1413-0.8166-0.59704-0.42508-0.62608-0.46794-0.56883-0.83988 0.0332-0.21557 0.0907-0.6817 0.12786-1.0359 0.0372-0.35415 0.11518-0.64391 0.17342-0.64391 0.26481 0 0.66402 0.31805 1.5498 1.2348 0.52561 0.54393 1.0871 1.0213 1.2493 1.062 0.63681 0.15982 1.0824-0.40973 1.9962-2.5513 0.29505-0.69149 0.7226-1.6758 0.95012-2.1873 0.25945-0.58334 0.42022-1.1241 0.43127-1.4506 0.0169-0.49876-0.001-0.53114-0.43675-0.77416-0.24988-0.1395-1.0658-0.43754-1.813-0.66232l-1.3587-0.40869-0.49968 0.24189c-0.48829 0.23638-0.84533 0.58286-2.0812 2.0197-0.33428 0.38863-0.83328 0.84961-1.1089 1.0244-0.59283 0.37596-0.30904 0.53466-2.5746-1.4398-1.0788-0.94015-1.659-1.3718-1.8441-1.3718-0.32999 0-1.0952 0.53854-1.4454 1.0172-0.14194 0.19401-0.42533 0.46726-0.62976 0.60722-0.20442 0.13996-0.64647 0.58761-0.98232 0.99478-0.71932 0.87206-1.0318 0.95317-1.5576 0.40435-0.42617-0.44482-0.67875-0.43224-0.83513 0.04158-0.26713 0.80943-1.4923 2.5964-2.8388 4.1406l-0.37555 0.43068-0.30302-0.36012c-0.44717-0.53144-0.5777-0.83062-1.0298-2.3605-0.22565-0.76356-0.48015-1.5244-0.56557-1.6907-0.0854-0.16632-0.1553-0.4632-0.1553-0.65973 0-0.3624 0.0435-0.41385 1.1198-1.325 0.32719-0.27695 0.37158-0.36521 0.26866-0.53413-0.16495-0.27077-0.60438-0.3095-1.097-0.0967-0.22191 0.09586-0.56991 0.24641-0.77333 0.33455-0.53489 0.23175-0.77627 0.05736-0.43032-0.3109 0.25102-0.2672 0.25279-0.28416 0.0671-0.64326-0.48365-0.93528-0.40637-1.4458 0.21887-1.4458 0.44627 0 1.7266 0.43745 2.6745 0.91378l0.64847 0.32588 1.1993-0.17846c1.0044-0.14947 2.1362-0.17285 6.9664-0.1439 6.2889 0.03769 6.4548 0.02501 7.8389-0.59912 0.40034-0.18053 1.1207-0.58579 1.6008-0.90057 0.778-0.5106 0.866-0.6029 0.817-0.8624-0.03-0.1597-0.112-0.6485-0.181-1.0862-0.123-0.7838-0.132-0.7993-0.605-1.0352-0.264-0.1318-0.651-0.2729-0.86-0.3137-0.21-0.0407-0.643-0.2205-0.963-0.3995l-0.581-0.3256-7.604 0.0351c-5.3629 0.02472-7.6505 0.07176-7.7613 0.1596-0.0864 0.0685-0.30827 0.16061-0.49305 0.2047-0.42689 0.10186-0.95229 0.42588-1.6011 0.98739-0.36239 0.31365-0.61419 0.67509-0.86564 1.2426-0.69036 1.5581-0.60031 1.4487-1.1116 1.3506-0.24921-0.04781-0.67987-0.0904-0.95703-0.09465-0.48297-0.0074-0.50533 0.0066-0.53763 0.3376-0.0185 0.18993 0.0697 0.60753 0.19598 0.92801 0.12631 0.32048 0.22967 0.75526 0.22967 0.96617 0 0.35079-0.0371 0.39348-0.43534 0.50071-0.23943 0.06447-0.62427 0.10421-0.85518 0.0883-0.63711-0.04388-0.78119-0.34726-0.78119-1.6449v-1.0659l0.78389-0.53877c0.43114-0.29632 1.0373-0.75704 1.3471-1.0238 0.30976-0.26678 0.78849-0.59976 1.0638-0.73996 0.27536-0.1402 0.85872-0.49628 1.2964-0.79128 0.8372-0.56432 2.1366-1.2233 2.4123-1.2233 0.0895 0 0.21471-0.05199 0.27826-0.11554 0.27816-0.27816 2.3606-0.35189 8.44-0.29882l6.2151 0.05425 1.5118 0.33622c1.9369 0.43076 2.6536 0.70705 3.292 1.269 0.58596 0.51579 0.63644 0.65865 0.23271 0.65865-0.41362 0-0.53469 0.40634-0.32822 1.1016 0.21087 0.71009 0.3936 0.8644 0.86515 0.73064 0.25156-0.07136 0.47528-0.2722 0.73462-0.65947 0.20509-0.30627 0.4201-0.57394 0.4778-0.59481s0.27316 0.10978 0.4788 0.29033c0.20564 0.18056 0.96337 0.69404 1.6838 1.1411 1.5062 0.93454 2.3538 1.717 2.524 2.3301 0.0641 0.23092 0.11688 0.95365 0.11723 1.6061l0.00062 1.1862-1.2598 1.2406c-0.6929 0.6823-1.7419 1.6376-2.3312 2.1229-2.6953 2.2197-5.6579 4.5894-7.5994 6.0784-1.1644 0.89307-2.3906 1.8757-2.7248 2.1837-0.33422 0.30796-0.80452 0.67578-1.0451 0.81738-0.24061 0.1416-0.76501 0.56034-1.1654 0.93052-0.92926 0.85924-1.4543 1.2177-1.9462 1.3286-0.335 0.07556-0.47149 0.03696-0.93094-0.26322-0.74265-0.48521-0.74993-0.7203-0.0385-1.2425 0.62348-0.45768 0.82247-0.73454 0.71994-1.0017-0.0589-0.15348-0.10119-0.14835-0.34255 0.0415-0.31884 0.2508-0.65985 0.36468-1.8528 0.61872-0.70192 0.14948-0.91674 0.24712-1.1478 0.52176-0.73339 0.87158 0.0647 1.4554 1.5254 1.116 0.38016-0.08834 0.45325-0.05965 1.0079 0.39568 0.81725 0.67096 0.92136 0.68878 1.4155 0.24233 0.22914-0.20702 0.86963-0.69339 1.4233-1.0808 0.55367-0.38744 1.309-0.92635 1.6786-1.1976 0.88374-0.64861 1.6821-0.94663 2.5358-0.94663 0.57377 0 0.66909 0.0276 0.61171 0.17714-0.0374 0.09742-0.0679 0.22165-0.0679 0.27606 0 0.1914-0.69307 0.88511-1.4344 1.4357-0.83934 0.6234-1.272 1.2071-1.0152 1.3697 0.24926 0.15789 0.64417 0.11794 1.8896-0.19115 1.8743-0.46515 2.618-0.38386 2.9853 0.32627 0.14908 0.28828 0.14773 0.34292-0.0128 0.52037-0.24956 0.27576-0.84253 0.50335-2.0205 0.77551-0.81956 0.18935-1.0654 0.2964-1.3158 0.57298-0.16937 0.18707-0.30796 0.38249-0.30796 0.43426s0.52026 0.12069 1.1561 0.15314c1.2615 0.06438 1.7374 0.23046 2.0567 0.71785 0.18558 0.28323 0.18306 0.29894-0.0829 0.51791-0.15088 0.1242-0.55148 0.35587-0.89024 0.51483-0.60536 0.28406-0.6725 0.29021-3.9194 0.35928-2.7802 0.05914-3.4784 0.10835-4.4077 0.31059-1.6031 0.3489-2.4676 0.32265-3.4653-0.10522-2.1433-0.91914-4.9713-1.74-6.9466-2.0163-1.1761-0.16453-1.3243-0.11384-2.5782 0.88218-0.49922 0.39653-1.1353 0.87496-1.4135 1.0632-0.27821 0.18822-0.71499 0.53173-0.97064 0.76336-0.52406 0.47485-1.2637 0.88499-1.5959 0.88499-0.20623 0-0.21729 0.05508-0.15657 0.77934 0.10414 1.2422-0.26475 1.5715-2.0453 1.8259-1.2117 0.17311-1.3266 0.29707-0.96505 1.0412 0.16487 0.33936 0.21602 0.56466 0.14724 0.64848-0.0579 0.07065-0.12282 0.25218-0.14412 0.40341-0.049 0.34773-0.84419 0.9648-1.4554 1.1294-0.26461 0.07125-0.7457 0.09155-1.1482 0.04845l-0.69274-0.07419-0.32984 0.52181c-0.34794 0.55046-1.0908 1.119-1.6118 1.2334-0.30821 0.06769-1.0264 0.79962-2.7431 2.7957-0.42645 0.49584-0.87999 0.9723-1.0079 1.0588-0.86718 0.58656-1.4444 1.1149-1.9084 1.747-0.49106 0.66886-0.56747 0.72736-0.95015 0.72736-0.22888 0-0.44974-0.03359-0.4908-0.07466zm3.2409-8.2773c-0.038-0.098-0.068-0.222-0.068-0.276 0-0.05441-0.15898-0.28-0.35329-0.50131-0.26337-0.29995-0.37696-0.36508-0.44623-0.25586-0.16868 0.26598-0.10106 0.45158 0.30357 0.8332 0.42646 0.40221 0.67539 0.49051 0.56393 0.20004zm8.1824-0.55854c0.46949-0.2974 0.43073-0.5475-0.25272-1.6307-0.59685-0.94591-1.3191-1.6651-1.6721-1.6651-0.0748 0-0.22479-0.2326-0.33336-0.5169-0.20722-0.54261-1.5336-2.0587-1.801-2.0587-0.082 0-0.31112 0.20157-0.50911 0.44794-0.50218 0.6249-0.99753 0.58592-0.834-0.06564 0.0429-0.17112 0.29479-0.421 0.6593-0.65418 0.83387-0.53342 0.91135-0.64784 0.65394-0.96573-0.19263-0.23788-0.23789-0.24698-0.56161-0.11289-0.19366 0.08022-0.3521 0.18277-0.3521 0.22789 0 0.12648-0.48724 0.62282-0.68644 0.69926-0.3542 0.13592-0.42584 1.415-0.14667 2.6187 0.22528 0.97138 0.40732 1.3117 0.85839 1.6045 0.20167 0.13094 0.54304 0.45636 0.75861 0.72316 0.47418 0.58687 0.99176 0.96412 1.3227 0.96412 0.26811 0 0.27377-0.02717 0.24685-1.1843-0.0179-0.77122 0.12691-0.98179 0.63532-0.92349 0.26056 0.02988 0.34065 0.11801 0.46533 0.51202 0.11663 0.36855 0.20576 0.47593 0.39503 0.47593 0.40879 0 0.75948 0.31865 0.72058 0.65474-0.0314 0.27147-0.0771 0.29713-0.52891 0.29713-0.57192 0-0.67414 0.14907-0.38142 0.55628 0.17804 0.2477 0.26111 0.27534 0.65197 0.21698 0.24637-0.03679 0.55751-0.13629 0.69141-0.22112zm-4.975-2.963c-0.27699-0.11134-0.34677-0.61799-0.13866-1.0068 0.26437-0.49399 1.5664-0.47821 1.5664 0.01898 0 0.35521-0.29747 0.82587-0.61278 0.96954-0.33966 0.15476-0.46835 0.15765-0.81501 0.01831zm29.317-5.3717c0.14478 0 0.18164-0.06202 0.13741-0.23118-0.10869-0.4156-0.52993-0.57524-1.7509-0.66358-1.0345-0.07484-1.2351-0.12624-1.8747-0.48029-0.39396-0.21806-1.1194-0.53548-1.6122-0.70537-0.80267-0.27676-0.97162-0.3885-1.6239-1.074-0.49068-0.51562-0.81261-0.76506-0.98741-0.76506-0.21651 0-0.24697 0.04162-0.18438 0.25196 0.16246 0.54601 0.59474 1.0194 1.4519 1.5899 2.2862 1.5217 4.3036 2.2668 5.7548 2.1254 0.27036-0.02634 0.58059-0.04789 0.68941-0.04789zm-0.55588-6.915c0.21482-0.23097 0.60215-0.67994 0.86074-0.99773l0.47015-0.57779-0.1157-0.92267c-0.0636-0.50747-0.0896-0.99076-0.0576-1.074 0.0408-0.10652-0.0422-0.1513-0.28054-0.1513-0.30111 0-0.36712 0.06509-0.59614 0.58792-0.14164 0.32335-0.41875 1.0749-0.6158 1.6702l-0.35827 1.0823-0.3442-0.09872c-0.48336-0.13862-0.76354 0.03708-0.76354 0.47883v0.35313l0.22834-0.24508c0.30126-0.32337 0.61968-0.31024 0.84582 0.03488 0.10088 0.15398 0.2178 0.27996 0.25981 0.27996 0.042 0 0.25214-0.18897 0.46696-0.41994zm3.0584-2.4448c0.10231-0.26661 0.0877-0.31936-0.16267-0.58812-0.28075-0.30134-0.44126-0.22626-0.44126 0.20638 0 0.44247 0.46728 0.73784 0.60393 0.38174zm2.6543-0.97464c0.20885-0.14075 0.39767-0.34903 0.41959-0.46286 0.0339-0.17602-0.008-0.19505-0.27918-0.12732-0.4071 0.10162-0.71099 0.37494-0.71099 0.63947 0 0.27018 0.11072 0.26061 0.57058-0.04929zm-5.893-2.0118c0.0635-0.14967 0.0293-0.19597-0.14486-0.19597-0.50062 0-0.79898 0.76214-0.38833 0.99195 0.15601 0.0873 0.21557 0.04156 0.32083-0.2464 0.0711-0.19448 0.16666-0.44179 0.21236-0.54958zm9.5486-1.5685c0.8066-0.41934 2.2689-1.6049 2.2689-1.8395 0-0.50486-0.38136-1.7316-0.61753-1.9864-0.4407-0.47552-0.73008-0.38415-1.1276 0.35602-0.18996 0.35365-0.58403 1.0828-0.87572 1.6204-0.38065 0.7015-0.54836 1.1519-0.59417 1.5958-0.0772 0.74813-0.0295 0.76094 0.94614 0.25374zm5.6273-5.2065c-0.002-0.4406-0.46971-1.3707-0.8876-1.7634-0.19641-0.18458-0.45745-0.56253-0.58009-0.83988-0.37017-0.83714-1.0935-1.4561-1.7016-1.4561-0.22504 0-0.31048 0.10581-0.51324 0.63566-0.13378 0.34961-0.30322 0.98536-0.37651 1.4128l-0.13326 0.77713 0.33297 0.26595c0.44542 0.35575 1.5574 0.9429 2.1188 1.1187 0.24962 0.07818 0.74362 0.14552 1.0978 0.14964 0.62986 0.0073 0.64388 0.000746 0.64281-0.30046zm-5.3714-2.331c0.16481-0.43347 0.13529-0.59273-0.16565-0.89367-0.34084-0.34084-0.85014-0.35915-1.3526-0.04864-0.6926 0.42806-0.60085 0.78641 0.27001 1.0546 0.81417 0.25071 1.1207 0.22314 1.2482-0.11228zm-9.9414 7.6535c-0.32042-0.15453-0.33816-0.673-0.0334-0.9777 0.12018-0.12018 0.47495-0.32882 0.78838-0.46366 0.44829-0.19285 0.63269-0.3553 0.86429-0.76136 0.4122-0.72271 0.59034-0.90814 0.87243-0.90814 0.13489 0 0.33646 0.10079 0.44794 0.22397 0.11147 0.12318 0.27047 0.22397 0.35331 0.22397 0.21712 0 0.18455 0.33491-0.0738 0.7586-0.12295 0.20166-0.22355 0.47194-0.22355 0.60063 0 0.20412-0.0464 0.22476-0.36395 0.16176-0.71939-0.14273-0.81054-0.13059-0.84529 0.11258-0.0184 0.12857 0.0417 0.29603 0.13333 0.37214 0.5903 0.48991-1.0805 1.0619-1.9197 0.65722zm-17.193-1.425c-0.50053-0.097-1.2163-0.64196-1.3554-1.0319-0.20652-0.57895 0.40757-1.324 1.0913-1.324 0.22394 0 0.27621 0.0967 0.43891 0.81188 0.22594 0.99316 0.3427 1.6561 0.28865 1.6389-0.0222-0.0071-0.23079-0.04977-0.46342-0.09485zm-2.1525-1.5892c-0.448-0.12056-0.61604-0.3776-0.61604-0.94233 0-0.45489 0.0164-0.47576 0.55269-0.70649 0.62648-0.26951 1.351-0.31869 1.351-0.09171 0 0.08033-0.15851 0.39528-0.35226 0.6999s-0.40792 0.68371-0.47593 0.84243c-0.10872 0.25368-0.16428 0.27765-0.4595 0.1982zm0.0769-3.5618c-0.42957-0.58103-0.29332-1.0319 0.42391-1.4028 0.17148-0.08867 0.3415-0.23868 0.37783-0.33334 0.0363-0.09466 0.13358-0.17212 0.21613-0.17212 0.31292 0 0.55315 0.31132 0.6528 0.84595 0.0567 0.30462 0.13108 0.64203 0.16515 0.74982 0.0433 0.13704 0.00075 0.19672-0.14158 0.19846-0.11194 0.0014-0.3295 0.10104-0.48348 0.22148-0.42672 0.33378-0.91669 0.2903-1.2108-0.10745z"/>
 </g>
</svg>
