<?xml version="1.0" encoding="UTF-8" standalone="no"?>
<!-- Created with Inkscape (http://www.inkscape.org/) -->
<svg id="svg2" xmlns:rdf="http://www.w3.org/1999/02/22-rdf-syntax-ns#" xmlns="http://www.w3.org/2000/svg" viewBox="0 0 315 180" height="100%" width="100%" version="1.1" xmlns:cc="http://creativecommons.org/ns#" xmlns:dc="http://purl.org/dc/elements/1.1/">
 <metadata id="metadata8">
  <rdf:RDF>
   <cc:Work rdf:about="">
    <dc:format>image/svg+xml</dc:format>
    <dc:type rdf:resource="http://purl.org/dc/dcmitype/StillImage"/>
    <dc:title/>
   </cc:Work>
  </rdf:RDF>
 </metadata>
 <text id="line1" y="90" x="158" font-size="12.5px" style="text-anchor:middle" font-family="Helvetica" fill="#000000">John Smith</text>
 <text id="line2" y="101" x="158" font-size="9.375px" style="text-anchor:middle" font-family="Helvetica" fill="#000000">Owner</text>
 <text id="line3" y="136" x="75" font-size="11px" font-weight="bold" style="text-anchor:middle" font-family="Helvetica" fill="#000000">Company Name</text>
 <text id="line4" y="147" x="75" font-size="9.375px" style="text-anchor:middle" font-family="Helvetica" fill="#000000">123 Main Street</text>
 <text id="line5" y="158" x="75" font-size="9.375px" style="text-anchor:middle" font-family="Helvetica" fill="#000000">Anywhere, USA 65421</text>
 <text id="line6" y="125" x="294" font-size="9.375px" style="text-anchor:end" font-family="Helvetica" fill="#000000">Phone: (800) 123-4567</text>
 <text id="line7" y="136" x="294" font-size="9.375px" style="text-anchor:end" font-family="Helvetica" fill="#000000">FAX: (123) 456-7890</text>
 <text id="line8" y="147" x="294" font-size="9.375px" style="text-anchor:end" font-family="Helvetica" fill="#000000">Cell: (123) 345-7893</text>
 <text id="line9" y="158" x="294" font-size="9.375px" style="text-anchor:end" font-family="Helvetica" fill="#000000">www.yourwebsite.com</text>
 <g id="g3452" transform="translate(-.44244 6.375)">
  <path id="path12394" d="m119.69 48.509c-2.4276-0.28244-5.063-1.2348-7.1428-2.5817-1.6153-1.0457-3.9122-3.3823-4.9077-4.9929-4.0464-6.5464-3.0894-14.852 2.3366-20.275 2.4274-2.4262 5.386-3.9652 8.7514-4.5521 1.5992-0.27887 3.8849-0.27643 5.5585 0.0059 7.7625 1.3096 13.575 8.1819 13.575 16.05 0 8.4812-6.2812 15.453-14.735 16.355-1.5198 0.16215-1.9731 0.16094-3.4354-0.0093zm4.7957-2.0039c5.8158-1.2418 10.235-5.7622 11.343-11.603 0.29414-1.5505 0.27018-4.0773-0.0534-5.6372-0.60968-2.9386-1.8233-5.135-4.0627-7.3528-2.1965-2.1755-4.4712-3.4006-7.4205-3.9971-1.6375-0.33123-4.9381-0.22572-6.5288 0.2088-1.3441 0.36712-3.3582 1.2972-4.5252 2.0896-4.1078 2.7895-6.5474 7.7494-6.2777 12.764 0.42777 7.954 7.117 14.106 15.004 13.798 0.84731-0.03304 1.9817-0.15427 2.5209-0.26941zm-10.048-2.8384c-1.672-2.703-2.6477-5.1923-2.9006-7.4008-0.0792-0.69214-0.14467-3.0704-0.14532-5.285l-0.00093-4.0265h3.2212 3.2213v-1.1204-1.1204h3.1512 3.1512v-1.1204-1.1204h3.8651 3.865l-0.061 4.8669c-0.0591 4.7175-0.0726 4.9094-0.4306 6.2518-0.41892 1.57-1.5297 3.9801-2.612 5.6673-0.40255 0.62757-0.75357 1.141-0.78 1.141-0.12054 0-1.7123-2.7151-2.2332-3.8091l-0.57994-1.2181-0.39499 1.2181c-0.45151 1.3926-1.581 3.707-2.5044 5.1317l-0.63024 0.97243-0.83775-1.2955c-0.461-0.71194-1.0808-1.8265-1.3784-2.4766-0.29759-0.64892-0.57188-1.1811-0.61039-1.1823-0.0385-0.000561-0.18511 0.39272-0.32579 0.87404-0.4976 1.7026-2.061 4.8193-2.9972 5.9747l-0.27357 0.33769-0.77923-1.2597zm1.9893-3.3372c1.2381-2.4919 1.3028-2.8607 1.371-7.808l0.0593-4.3067h-2.6031-2.6031l0.002 3.6064c0.002 3.8542 0.10878 5.0363 0.57955 6.4775 0.32116 0.98314 1.0444 2.513 1.6382 3.4654l0.37052 0.59428 0.24456-0.31418c0.1345-0.1728 0.5577-0.94442 0.94042-1.7147zm-1.7768 0.60437c-0.56728-0.99833-0.96807-1.9128-1.4005-3.1953-0.14902-0.44195-0.23092-1.4253-0.27412-3.2913-0.0614-2.6511-0.0607-2.6595 0.20244-2.2409 0.14526 0.23109 1.0367 1.7878 1.9811 3.4592 1.3508 2.3911 1.6961 3.1078 1.619 3.3613-0.11428 0.37601-1.1172 2.3454-1.3717 2.6935-0.15295 0.20917-0.24461 0.11384-0.75621-0.78651zm1.4437-6.8367c-0.76393-1.348-1.781-3.1442-2.26-3.9915l-0.87108-1.5406 2.2448-0.03859c1.2347-0.02123 2.2684-0.01496 2.2974 0.0139 0.0289 0.02887 0.0356 1.8424 0.0152 4.0302l-0.0372 3.9776-1.389-2.4509zm6.2547 4.8251c0.73266-1.2913 1.1926-2.4061 1.5186-3.681 0.23344-0.91618 0.26728-1.5674 0.26728-5.1575v-4.1092h-2.521-2.521v4.1092c0 3.6663 0.0306 4.2286 0.28329 5.217 0.41371 1.6176 1.9458 4.7531 2.2698 4.6451 0.0823-0.02743 0.39816-0.48787 0.70188-1.0232zm-1.3746-0.2825c-0.71343-1.2757-1.3019-2.8357-1.541-4.0853-0.22431-1.1723-0.28019-5.0779-0.0696-4.862 0.0715 0.07318 0.98792 1.644 2.0367 3.4907l1.907 3.3577-0.74121 1.4643c-0.40768 0.80532-0.81493 1.488-0.90503 1.517-0.0902 0.02906-0.39918-0.3681-0.68689-0.88256zm0.63956-8.2655c-1.194-2.1263-2.1915-3.9561-2.2168-4.0663-0.0387-0.16887 0.31496-0.19444 2.2409-0.16198l2.2868 0.03853 0.0373 3.5144c0.0566 5.3248 0.23399 5.2738-2.3482 0.67533zm7.3816 5.7224c1.3932-2.6921 1.5793-3.7154 1.5809-8.6867l0.00092-3.6764h-2.591-2.591l0.00093 3.7464c0.00093 4.891 0.17245 5.8966 1.4235 8.3682 0.76898 1.519 1.0786 1.9397 1.2954 1.7598 0.0943-0.07837 0.49048-0.7585 0.88012-1.5114zm-1.4489 0.63205c-0.62941-0.99504-1.314-2.5904-1.6043-3.7384-0.22683-0.89704-0.26728-1.4726-0.2353-3.3483l0.0385-2.265 1.9407 3.431 1.9407 3.431-0.23537 0.59454c-0.29387 0.74229-1.1572 2.3053-1.3334 2.4143-0.0723 0.04475-0.30251-0.18883-0.5114-0.51904zm2.3605-5.1871c-0.61155-1.0201-4.232-7.5104-4.232-7.5874 0-0.04521 1.0399-0.08218 2.3109-0.08218h2.3109v4.0616c0 2.2339-0.0263 4.0616-0.0586 4.0616-0.0322 0-0.18141-0.20483-0.33152-0.45517zm-0.13538 8.7674c-0.0962-0.04027-0.17507-0.13472-0.17507-0.20988 0-0.07514 0.0631-0.0977 0.14005-0.05008 0.0805 0.0497 0.14007-0.07749 0.14007-0.29861 0-0.37162-0.006-0.3756-0.21783-0.1133-0.21027 0.26249-0.21269 0.26128-0.0697-0.03485 0.17939-0.37127 0.81036-0.37522 1.0429-0.0065 0.28775 0.45618-0.30354 0.94625-0.86056 0.71325zm0.782-0.37988c0.0668-0.34962-0.14082-0.53274-0.39802-0.35123-0.17707 0.12496-0.17298 0.13597 0.0269 0.07216 0.16948-0.05411 0.23002 0.0011 0.21528 0.19687-0.0228 0.30231-0.18678 0.36474-0.27366 0.10415-0.0343-0.10268-0.0929-0.07171-0.15103 0.07968-0.0757 0.19737-0.0316 0.23859 0.21796 0.203 0.17213-0.02456 0.33531-0.16165 0.36259-0.30463z"/>
  <path id="path12441" d="m184.49 37.002c-1.0043-0.16856-2.2101-0.58177-2.8092-0.96266-1.0393-0.66072-1.5381-1.5576-1.7078-3.0706-0.33214-2.9616 1.0224-4.759 4.0773-5.4106 1.575-0.33593 7.6002 0.0047 8.0608 0.45581 0.0648 0.06337 0.14069 0.64223 0.16887 1.2864l0.0512 1.1712h-0.98763-0.98761l-0.0857-0.46248c-0.22199-1.1974-0.97317-1.7014-2.785-1.8685-2.067-0.19072-3.4658 0.15164-4.1025 1.0041-0.53232 0.71274-0.63906 1.2537-0.63906 3.2385 0 1.7283 0.0204 1.8901 0.30832 2.4603 0.59191 1.1717 1.6988 1.6713 3.7034 1.6713 2.2428 0 3.4521-0.77336 3.6625-2.3423l0.0663-0.49424h1.0344 1.0344l-0.0772 0.33916c-0.35389 1.5553-1.509 2.4748-3.6693 2.921-0.99306 0.20512-3.2737 0.23882-4.3166 0.06379zm-23.635-0.12939c-1.0025-0.19638-1.879-0.72672-2.2224-1.3446-0.30422-0.54758-0.30833-0.59332-0.30833-3.433v-2.878l-0.33964-0.29222c-0.18808-0.16033-0.54883-0.3258-0.80269-0.36589-1.0072-0.16239-1.0175-0.16753-1.0175-0.55603v-0.36764h2.465 2.465l-0.091 0.95579c-0.0499 0.52569-0.091 2.1212-0.091 3.5457 0 2.8133 0.034 2.9808 0.7387 3.6382 0.31677 0.29554 0.39527 0.30823 1.8924 0.30618 1.1806-0.0016 1.7193-0.05645 2.2058-0.22453 0.68131-0.23534 1.2026-0.73113 1.3602-1.2937 0.0508-0.18131 0.0924-1.3865 0.0925-2.6782 0.00013-2.9338-0.10552-3.1671-1.5256-3.3686-0.53474-0.07586-0.57327-0.10643-0.60965-0.48363l-0.0388-0.40265 2.3821 0.03352 2.3821 0.03352 0.0617 3.9267 0.0617 3.9267 0.29115 0.23562c0.16013 0.12959 0.43762 0.23637 0.61665 0.2373 0.66635 0.0035 0.89633 0.13154 0.85627 0.47692l-0.0375 0.32303-2.1891 0.03368-2.1891 0.03368v-0.43449c0-0.51391-0.1261-0.539-0.66052-0.13138-0.64847 0.49462-1.6518 0.68519-3.5277 0.67001-0.91843-0.0074-1.9186-0.06221-2.2225-0.12175zm-19.489-0.34636c0-0.31142 0.0585-0.3885 0.33916-0.44606 1.7624-0.36178 1.688-0.19733 1.7327-3.8326l0.037-3.0083-0.30066-0.30067c-0.16547-0.16547-0.51502-0.33608-0.777-0.37822-1.0285-0.16547-1.0313-0.16753-1.0313-0.56836v-0.37793l5.889 0.05036c6.5653 0.0561 6.8462 0.08832 7.4955 0.85997 0.3022 0.35915 0.32604 0.46445 0.28192 1.2452-0.0449 0.79626-0.0778 0.88001-0.49546 1.2627-0.41286 0.37836-1.4424 0.79561-1.963 0.79561-0.45769 0-0.33095 0.22859 0.16873 0.30431 1.8773 0.2845 2.4646 0.54829 2.752 1.236 0.41434 0.99167 0.10749 2.0737-0.76015 2.6805-1.0163 0.7108-1.4206 0.75328-7.6644 0.8054l-5.704 0.04762v-0.37637zm10.565-0.78214c0.64897-0.35073 0.90502-0.78016 0.90502-1.5178 0-0.79347-0.35959-1.2978-1.0718-1.5031-0.6106-0.17678-4.1477-0.333-5.029-0.22303l-0.68255 0.08528v1.2942c0 1.4425 0.09 1.7121 0.65718 1.9676 0.59847 0.26963 4.68 0.18837 5.2209-0.10394zm-0.67782-4.3689c0.76211-0.34903 1.0297-0.77464 1.021-1.6239-0.006-0.56466-0.0574-0.71256-0.33063-0.9476-0.29086-0.25078-0.50463-0.28778-2.1357-0.36897-2.0312-0.10153-3.3428 0.04138-3.5994 0.39219-0.10237 0.13997-0.15529 0.67075-0.15529 1.557v1.3446l2.3124-0.04481c2.042-0.03956 2.3797-0.07562 2.8878-0.30834zm21.274 5.4276c-0.0452-0.04522-0.0822-0.20532-0.0822-0.35578 0-0.23047 0.10994-0.30008 0.69793-0.44192 0.50729-0.12238 0.76837-0.26348 0.9558-0.51657 0.24429-0.32988 0.25786-0.49972 0.25786-3.2283 0-3.5552 0.0283-3.4867-1.5802-3.8213-0.29104-0.06053-0.3407-0.1261-0.30832-0.40701l0.0386-0.33485 3.122-0.03297 3.122-0.03297-0.0388 0.40295c-0.0312 0.3247-0.0987 0.41028-0.34712 0.44066-0.75615 0.09248-1.1342 0.29834-1.3069 0.71181-0.21873 0.52348-0.24832 5.4725-0.0364 6.0805 0.14021 0.4022 0.64476 0.75462 1.0804 0.75462 0.45512 0 0.63286 0.14225 0.63286 0.50651v0.35679h-3.0627c-1.6844 0-3.0997-0.037-3.1449-0.08222zm20.883-0.27457c0-0.3893 0.17498-0.50651 0.75618-0.50651 0.45606 0 1.0456-0.29629 1.2134-0.60981 0.077-0.14378 0.12698-1.4002 0.12698-3.1887 0-2.7855-0.0142-2.9693-0.252-3.2717-0.15744-0.20015-0.42355-0.34789-0.70914-0.39372-1.0181-0.16338-1.0301-0.16977-0.98907-0.52593l0.0386-0.33485h3.2066 3.2066l0.0386 0.33485c0.0308 0.26719-0.019 0.34578-0.24666 0.38896-1.676 0.31792-1.7231 0.38548-1.6767 2.405l0.0348 1.5176 2.0349-1.46c2.0559-1.475 2.3265-1.7744 1.9804-2.1913-0.0743-0.08955-0.35607-0.19814-0.62611-0.24132-0.44612-0.07134-0.49099-0.11239-0.49099-0.4492v-0.37068l3.0524 0.03298 3.0524 0.03298 0.0386 0.33485c0.0426 0.36942 0.1186 0.33732-1.3888 0.58677-0.47132 0.07799-1.2482 0.32556-1.7266 0.55014-0.85099 0.39956-2.9088 1.8529-2.9914 2.1126-0.051 0.16045 2.443 2.3141 3.8262 3.304 1.1564 0.82758 1.8974 1.2273 2.6525 1.4306 0.47435 0.12773 0.52562 0.1773 0.49125 0.47498l-0.0383 0.33237-2.0573 0.03377-2.0573 0.03377-1.3343-1.194c-2.068-1.8505-3.258-2.7584-3.6159-2.7584-0.17325 0-0.43835 0.0864-0.5891 0.19199-0.24187 0.16941-0.2741 0.30089-0.2741 1.118 0 0.50934 0.0571 1.0328 0.12698 1.1633 0.1678 0.31352 0.75736 0.60981 1.2134 0.60981 0.5812 0 0.75618 0.11721 0.75618 0.50651v0.35679h-3.3916-3.3916v-0.35679zm15.553-6.7156c-1.1775-0.67715-0.49399-2.5341 0.8261-2.2442 0.90242 0.19821 1.2676 1.3456 0.63084 1.9823-0.37562 0.37562-1.0487 0.49659-1.457 0.26185zm1.287-0.3834c0.89988-0.89988-0.45731-2.274-1.3851-1.4024-0.37654 0.35374-0.38475 1.0285-0.0173 1.4197 0.36741 0.39109 1.0018 0.38327 1.4024-0.01728zm-1.1772-0.67664c0-0.71996 0.0115-0.74726 0.31643-0.74726 0.67266 0 1.042 0.46421 0.5777 0.72616-0.17286 0.09754-0.18514 0.15277-0.0617 0.27745 0.0848 0.08562 0.1524 0.24169 0.15025 0.34683-0.002 0.12681-0.0891 0.07699-0.25694-0.14799-0.29665-0.39761-0.47912-0.43561-0.47912-0.09978 0 0.13166-0.0555 0.27368-0.12333 0.3156-0.0771 0.04762-0.12333-0.20427-0.12333-0.67102zm0.8633-0.3156c0-0.11511-0.11648-0.18499-0.30833-0.18499-0.19184 0-0.30832 0.06989-0.30832 0.18499 0 0.11511 0.11648 0.18499 0.30832 0.18499 0.19185 0 0.30833-0.06989 0.30833-0.18499z"/>
 </g>
</svg>
