<?xml version="1.0" encoding="UTF-8" standalone="no"?>
<!-- Created with Inkscape (http://www.inkscape.org/) -->
<svg id="svg2" xmlns:rdf="http://www.w3.org/1999/02/22-rdf-syntax-ns#" xmlns="http://www.w3.org/2000/svg" viewBox="0 0 315.54997 180.29" height="100%" width="100%" version="1.1" xmlns:cc="http://creativecommons.org/ns#" xmlns:dc="http://purl.org/dc/elements/1.1/">
 <metadata id="metadata7">
  <rdf:RDF>
   <cc:Work rdf:about="">
    <dc:format>image/svg+xml</dc:format>
    <dc:type rdf:resource="http://purl.org/dc/dcmitype/StillImage"/>
    <dc:title/>
   </cc:Work>
  </rdf:RDF>
 </metadata>
 <g id="template1" transform="translate(-.000015259)">
  <rect id="background1" height="179.29" width="314.55" stroke="#000" y=".5" x=".5" fill="#fff"/>
  <text id="line1" font-family="Helvetica" font-size="12.5px" y="92.310394" x="66.836426" font-weight="bold">John Smith</text>
  <text id="line2" font-size="9.375px" y="103.31039" x="66.836426" font-family="Helvetica">Owner</text>
  <text id="line3" font-size="9.375px" y="125.31039" x="66.836426" font-family="Helvetica">123 Main Street</text>
  <text id="line4" font-size="9.375px" y="136.31039" x="66.836426" font-family="Helvetica">Anywhere, USA 12345-6789</text>
  <text id="line5" font-size="9.375px" y="147.31039" x="66.836426" font-family="Helvetica">Phone: (800) 123-4567</text>
  <text id="line6" font-size="9.375px" y="147.31039" x="170.20834" font-family="Helvetica">FAX: (123) 456-7890</text>
  <text id="line7" font-size="9.375px" y="158.31039" x="66.836426" font-family="Helvetica">email@yourdomain.com</text>
  <polygon id="polygon3405" points="55.25 55.248 0 55.248 0 0 0 0 55.25 0" fill="#6bb623" transform="matrix(.681 0 0 .681 22.58 22.795)"/>
  <polygon id="polygon3407" points="70.799 28.52 70.799 33.783 67.529 33.783 67.529 21.508 67.529 21.508 70.799 21.508 70.799 26.2 74.677 26.2 74.677 21.508 77.957 21.508 77.957 33.783 74.677 33.783 74.677 28.52" transform="matrix(.681 0 0 .681 22.58 22.795)"/>
  <path id="path3409" d="m78.992 43.347c0-0.59792 0.28738-0.89824 0.75727-1.1482 0.63401 0.58362 1.2626 1.1836 1.8571 1.8407-0.41677 0.3153-0.76817 0.46036-1.2701 0.46036-0.67351 0-1.3443-0.43244-1.3443-1.1529zm4.4742-2.0736c-0.02179 0.53731-0.1648 1.0889-0.54889 1.5098-0.46921-0.45491-0.95272-0.89892-1.443-1.3307 0.89075-0.51756 1.7992-1.0556 1.7992-2.1118 0-1.5615-1.4369-2.0621-2.9031-2.0621-1.3116 0-2.786 0.52369-2.786 2.0008 0 0.73344 0.33778 1.3068 1.0113 1.836-1.0324 0.48147-1.6453 1.1175-1.6453 2.2786 0 1.727 1.5758 2.5442 3.1687 2.5442 0.9105 0 1.885-0.15322 2.6035-0.77974 0.18455 0.19204 0.33369 0.40792 0.50394 0.63605h2.3883l-1.4866-1.6555c0.77634-0.77021 1.234-1.8006 1.285-2.8663h-1.947v0.000681zm-3.957-1.886c0-0.4195 0.3691-0.74365 0.88939-0.74365 0.51552 0 0.93365 0.25197 0.93365 0.74365 0 0.55229-0.6129 0.88939-1.0188 1.1298-0.33641-0.26559-0.80426-0.64831-0.80426-1.1298z"/>
  <path id="path3411" d="m88.802 39.006h0.59247c0.8458 0 1.6296 0.14301 1.6296 0.92344 0 0.94455-0.91118 0.96906-1.6296 0.96906h-0.59247v-1.8925zm-2.2289 6.7882h2.2289v-3.3137h0.46921c0.82673 0 1.1155 0.36365 1.5717 1.8019l0.4801 1.5118h2.3249l-0.81107-2.282c-0.4195-1.0174-0.46853-1.6548-1.187-1.8462v-0.02179c1.0746-0.25333 1.6038-0.99698 1.6038-2.1138 0-1.4383-1.2074-2.1097-2.6988-2.1097h-3.9825v8.3736h0.000681z"/>
  <path id="path3413" d="m100.48 42.243h0.681c0.76884 0 1.6487 0.08513 1.6487 0.99835 0 0.85125-0.85466 0.96838-1.6712 0.96838h-0.65852v-1.9667zm-2.2323 3.5514h3.5262c1.503 0 3.2674-0.41882 3.2674-2.4257 0-1.0167-0.57953-1.6187-1.6909-1.8448v-0.02588c0.93501-0.30986 1.471-0.90028 1.471-1.9545 0-1.441-1.1604-2.1227-2.7213-2.1227h-3.8517v8.3736h-0.000681zm2.2323-6.7882h0.64558c0.74434 0 1.4642 0.07082 1.4642 0.84035 0 0.70688-0.75591 0.88394-1.4866 0.88394h-0.6238v-1.7243h0.00069z"/>
  <polygon id="polygon3415" points="126.23 21.477 126.23 31.342 131.3 31.342 131.3 33.772 122.95 33.772 122.95 21.477 122.95 21.477" transform="matrix(.681 0 0 .681 22.58 22.795)"/>
  <path id="path3417" d="m114.58 41.609c0-1.4519 0.53867-2.677 1.8925-2.677 1.3572 0 1.9 1.2251 1.9 2.677 0 1.3804-0.54275 2.6736-1.9 2.6736-1.3538 0-1.8925-1.2932-1.8925-2.6736zm-2.3018 0c0 2.6579 1.4614 4.3284 4.1943 4.3284 2.7369 0 4.2004-1.6705 4.2004-4.3284 0-2.6886-1.4417-4.3312-4.2004-4.3312-2.7608 0-4.1943 1.6426-4.1943 4.3312z"/>
  <path id="path3419" d="m128.85 45.6c-0.63606 0.15595-1.3477 0.33778-2.4836 0.33778-2.2296 0-4.8099-1.1264-4.8099-4.2937 0-2.9174 2.0335-4.3666 4.7956-4.3666 0.85533 0 1.6841 0.19136 2.4856 0.43175l-0.17979 1.8081c-0.72322-0.39634-1.4158-0.58566-2.1819-0.58566-1.5894 0-2.6205 1.1509-2.6205 2.7124 0 1.6439 1.1645 2.6382 2.7962 2.6382 0.73343 0 1.4784-0.19068 2.0866-0.43448l0.11168 1.7522z"/>
  <polygon id="polygon3421" points="164.76 33.77 160.86 28.185 160.82 28.185 160.82 33.77 157.57 33.77 157.57 21.496 157.57 21.496 160.82 21.496 160.82 26.521 160.86 26.521 164.63 21.496 168.53 21.496 164.04 27.216 168.88 33.77" transform="matrix(.681 0 0 .681 22.58 22.795)"/>
 </g>
 <text id="line1-5" y="87.377129" x="158.36058" style="text-anchor:middle" font-size="12.5px"/>
</svg>
