<?xml version="1.0" encoding="UTF-8" standalone="no"?>
<!-- Created with Inkscape (http://www.inkscape.org/) -->
<svg id="svg2" xmlns:rdf="http://www.w3.org/1999/02/22-rdf-syntax-ns#" xmlns="http://www.w3.org/2000/svg" viewBox="0 0 315 180" height="100%" width="100%" version="1.1" xmlns:cc="http://creativecommons.org/ns#" xmlns:xlink="http://www.w3.org/1999/xlink" xmlns:dc="http://purl.org/dc/elements/1.1/">
 <metadata id="metadata8">
  <rdf:RDF>
   <cc:Work rdf:about="">
    <dc:format>image/svg+xml</dc:format>
    <dc:type rdf:resource="http://purl.org/dc/dcmitype/StillImage"/>
    <dc:title/>
   </cc:Work>
  </rdf:RDF>
 </metadata>
 <text id="line1" font-size="12.5px" y="92" x="67" font-weight="bold" font-family="Helvetica" fill="#000000">John Smith</text>
 <text id="line2" font-size="9.375px" y="103" x="67" font-family="Helvetica" fill="#000000">Owner</text>
 <text id="line3" font-size="9.375px" y="125" x="67" font-family="Helvetica" fill="#000000">123 Main Street</text>
 <text id="line4" font-size="9.375px" y="136" x="67" font-family="Helvetica" fill="#000000">Anywhere, USA 12345-6789</text>
 <text id="line5" font-size="9.375px" y="147" x="67" font-family="Helvetica" fill="#000000">Phone: (800) 123-4567</text>
 <text id="line6" font-size="9.375px" y="147" x="170.37192" font-family="Helvetica" fill="#000000">FAX: (123) 456-7890</text>
 <text id="line7" font-size="9.375px" y="158" x="67" font-family="Helvetica" fill="#000000">email@yourdomain.com</text>
 <g id="g3429" transform="matrix(0.681 0 0 0.681 22.744 22.485)">
  <g id="g3403">
   <polygon id="polygon3405" points="55.25 55.248 0 55.248 0 0 0 0 55.25 0" fill="#6bb623"/>
   <polygon id="polygon3407" points="67.529 21.508 67.529 21.508 70.799 21.508 70.799 26.2 74.677 26.2 74.677 21.508 77.957 21.508 77.957 33.783 74.677 33.783 74.677 28.52 70.799 28.52 70.799 33.783 67.529 33.783"/>
   <path id="path3409" d="m82.836 30.178c0-0.878 0.422-1.319 1.112-1.686 0.931 0.857 1.854 1.738 2.727 2.703-0.612 0.463-1.128 0.676-1.865 0.676-0.989 0-1.974-0.635-1.974-1.693zm6.57-3.045c-0.032 0.789-0.242 1.599-0.806 2.217-0.689-0.668-1.399-1.32-2.119-1.954 1.308-0.76 2.642-1.55 2.642-3.101 0-2.293-2.11-3.028-4.263-3.028-1.926 0-4.091 0.769-4.091 2.938 0 1.077 0.496 1.919 1.485 2.696-1.516 0.707-2.416 1.641-2.416 3.346 0 2.536 2.314 3.736 4.653 3.736 1.337 0 2.768-0.225 3.823-1.145 0.271 0.282 0.49 0.599 0.74 0.934h3.507l-2.183-2.431c1.14-1.131 1.812-2.644 1.887-4.209h-2.859v0.001zm-5.811-2.769c0-0.616 0.542-1.092 1.306-1.092 0.757 0 1.371 0.37 1.371 1.092 0 0.811-0.9 1.306-1.496 1.659-0.494-0.39-1.181-0.952-1.181-1.659z"/>
   <path id="path3411" d="m97.241 23.804h0.87c1.242 0 2.393 0.21 2.393 1.356 0 1.387-1.338 1.423-2.393 1.423h-0.87v-2.779zm-3.273 9.968h3.273v-4.866h0.689c1.214 0 1.638 0.534 2.308 2.646l0.705 2.22h3.414l-1.191-3.351c-0.616-1.494-0.688-2.43-1.743-2.711v-0.032c1.578-0.372 2.355-1.464 2.355-3.104 0-2.112-1.773-3.098-3.963-3.098h-5.848v12.296h0.001z"/>
   <path id="path3413" d="m114.39 28.557h1c1.129 0 2.421 0.125 2.421 1.466 0 1.25-1.255 1.422-2.454 1.422h-0.967v-2.888zm-3.278 5.215h5.178c2.207 0 4.798-0.615 4.798-3.562 0-1.493-0.851-2.377-2.483-2.709v-0.038c1.373-0.455 2.16-1.322 2.16-2.87 0-2.116-1.704-3.117-3.996-3.117h-5.656v12.296h-0.001zm3.278-9.968h0.948c1.093 0 2.15 0.104 2.15 1.234 0 1.038-1.11 1.298-2.183 1.298h-0.916v-2.532h0.001z"/>
   <polygon id="polygon3415" points="122.95 33.772 122.95 21.477 122.95 21.477 126.23 21.477 126.23 31.342 131.3 31.342 131.3 33.772"/>
   <path id="path3417" d="m135.1 27.627c0-2.132 0.791-3.931 2.779-3.931 1.993 0 2.79 1.799 2.79 3.931 0 2.027-0.797 3.926-2.79 3.926-1.988 0-2.779-1.899-2.779-3.926zm-3.38 0c0 3.903 2.146 6.356 6.159 6.356 4.019 0 6.168-2.453 6.168-6.356 0-3.948-2.117-6.36-6.168-6.36-4.054 0-6.159 2.412-6.159 6.36z"/>
   <path id="path3419" d="m156.05 33.487c-0.934 0.229-1.979 0.496-3.647 0.496-3.274 0-7.063-1.654-7.063-6.305 0-4.284 2.986-6.412 7.042-6.412 1.256 0 2.473 0.281 3.65 0.634l-0.264 2.655c-1.062-0.582-2.079-0.86-3.204-0.86-2.334 0-3.848 1.69-3.848 3.983 0 2.414 1.71 3.874 4.106 3.874 1.077 0 2.171-0.28 3.064-0.638l0.164 2.573z"/>
   <polygon id="polygon3421" points="157.57 33.77 157.57 21.496 157.57 21.496 160.82 21.496 160.82 26.521 160.86 26.521 164.63 21.496 168.53 21.496 164.04 27.216 168.88 33.77 164.76 33.77 160.86 28.185 160.82 28.185 160.82 33.77"/>
  </g>
 </g>
</svg>
