<?xml version="1.0" encoding="UTF-8" standalone="no"?>
<!-- Created with Inkscape (http://www.inkscape.org/) -->
<svg id="svg2" xmlns:rdf="http://www.w3.org/1999/02/22-rdf-syntax-ns#" xmlns="http://www.w3.org/2000/svg" height="45" width="67.5" version="1.1" xmlns:cc="http://creativecommons.org/ns#" xmlns:dc="http://purl.org/dc/elements/1.1/">
 <metadata id="metadata7">
  <rdf:RDF>
   <cc:Work rdf:about="">
    <dc:format>image/svg+xml</dc:format>
    <dc:type rdf:resource="http://purl.org/dc/dcmitype/StillImage"/>
    <dc:title/>
   </cc:Work>
  </rdf:RDF>
 </metadata>
 <g id="g22769">
  <rect id="rect2990" opacity="0" height="45" width="67.5" y="0" x="3.5527e-15"/>
  <g id="g22268" transform="matrix(.97441 0 0 .97441 -14.484 -3.811)">
   <path id="path73606" fill="#fff" d="m49.5 44.755h-13.235l-0.71364-0.25951h-2.9843c-0.45414 0-0.84339-0.51901-0.84339-0.51901h-2.2032l-0.38926 0.22716h-0.48666v-0.22716h-0.51901l-0.35691 0.25951h-0.32438v-0.16228h-0.22716s-0.0974 1.3301-0.03252 1.9139c0.06488 0.58389 0.12975 1.7517-1.038 1.7517h-1.4922c0 0.51901 0.51901 1.7517-1.1029 1.7517h-4.2818c-1.038 0-1.3624-1.1029-1.1678-1.8814 0.19463-0.77852 0-10.964 0-10.964 0-1.2861 0.30933-3.6101 0.41711-4.358-0.18823-2.8573-0.30276-6.9409-0.15761-7.0279 0.16228-0.0974 1.1678-0.74617 1.3624-1.8491 0.12716-0.72074 0.61641-1.4598 0.61641-1.4598l-0.0974-0.03252-0.25951-2.6276s-2.1409-0.16228-2.8546-0.22716c-0.71364-0.06488-1.2975-0.25951-1.8491-0.84339-0.55154-0.58389-0.0974-1.7842 0.74617-2.4653 0.84357-0.68112 4.1521-0.25951 5.1901-0.19463s0.58389 1.9139 0.48666 2.7897c-0.09723 0.87575 0.25951 1.2003 0.25951 1.2003 0.51901-0.35691 0.74617-1.0057 0.74617-1.0057 2.92-7.513 5.1258-9.427 6.6504-11.049 1.5247-1.6219 2.4004-2.0437 3.3727-2.3681l-0.03252 0.12975h0.38926l0.06488-0.12975c1.3624-0.64877 16.349-0.38926 16.349-0.38926s14.986-0.25951 16.349 0.38926l0.06488 0.12975h0.38926l-0.03253-0.12975c0.97315 0.32438 1.8491 0.74617 3.3736 2.3681s3.7305 3.5359 6.6499 11.062c2.9194 7.5257 0.22715 0.64877 0.74617 1.0057 0 0 0.35691-0.32438 0.25951-1.2003s-0.55154-2.7248 0.48666-2.7897c1.0382-0.06488 4.3467-0.48666 5.1901 0.19463 0.84339 0.68129 1.2975 1.8814 0.74617 2.4653-0.55136 0.58389-1.1354 0.77852-1.8491 0.8434-0.71364 0.06488-2.8546 0.22715-2.8546 0.22715l-0.25951 2.6276-0.0974 0.03252s0.48908 0.7389 0.61641 1.4598c0.19463 1.1029 1.2003 1.7517 1.3624 1.8491 0.14256 0.08564 0.01695 4.191-0.16591 7.0395 0.1 0.68786 0.42542 3.0284 0.42542 4.3462 0 0-0.19463 10.186 0 10.964 0.19463 0.77852-0.12975 1.8814-1.1678 1.8814h-4.2819c-1.6219 0-1.1029-1.2327-1.1029-1.7517h-1.4922c-1.1678 0-1.1029-1.1678-1.038-1.7517 0.06488-0.58389-0.03252-1.9139-0.03252-1.9139h-0.22716v0.16228h-0.32438l-0.35691-0.25951h-0.51901v0.22715h-0.48666l-0.38926-0.22715h-2.2058s-0.38926 0.51901-0.8434 0.51901h-2.9843l-0.71364 0.25951h-13.234z"/>
   <path id="path73608" d="m49.508 35.351h14.135c0.77849 0 0.06488 3.1789-0.51902 3.1789h-13.625"/>
   <path id="path73610" d="m49.5 26.461h7.5257c0.90826 0 0.90826 0.51901 0.77849 0.84337l-0.84337 1.6219c-0.32438 0.51901-1.6219 0.51901-1.6219 0.51901h-5.8383"/>
   <path id="path73614" d="m75.467 35.608c0.20622 0 0.37369-0.1673 0.37369-0.37369v-1.2638c0-0.20639-0.16747-0.37369-0.37369-0.37369h-7.8163c-0.20639 0-0.37369 0.16729-0.37369 0.37369v1.2638c0 0.20639 0.1673 0.37369 0.37369 0.37369h7.8163z" stroke="#000" stroke-width=".34601" fill="#fff"/>
   <path id="path73616" d="m71.559 34.601" stroke="#000" stroke-width=".34601" fill="#fff"/>
   <path id="path73618" d="m49.5 13.145v4.6874s17.128-0.19463 26.275 0.77849c-2.011-6.292-6.423-11.742-8.629-12.066-2.205-0.3235-17.646-0.2586-17.646-0.2586v3.6331h3.3736c0.84337 0 0.90826-1.8165 0-1.8165h-3.0492v-0.32438s17.393-0.00693 17.841 0.38926c2.2706 2.0112 3.7628 4.4765 4.1521 5.5145 0.38926 1.038 0.51901 1.8814-0.12975 1.7516-0.64877-0.12975-5.0604 0-5.0604 0s-0.58389-2.3355-1.4922-2.3355h-6.6823c-0.64877 0-1.1029 2.3355-1.1029 2.3355h-4.8008v-0.51901l-1.2326-1.4922c-0.261-0.326-1.818-0.277-1.818-0.277z"/>
   <path id="path73620" d="m49.5 4.7243s12.165-0.097407 13.397 0.097399c1.2323 0.19481-0.22716 0.35691-1.4598 0.35691h-11.937v-0.45413z"/>
   <g id="g22008" stroke-width=".34601" fill="none">
    <g id="g22010" stroke="#000">
     <g id="g22012">
      <path id="path73622" d="m49.468 26.038h7.5906c1.1678 0 1.4922 0.77849 1.038 1.6219l-0.84337 1.5084c-0.45414 0.77849-1.9463 0.66503-1.9463 0.66503h-5.8066"/>
      <path id="path73624" d="m70.586 18.579c-3.7305 1.4922-9.5044 3.5033-11.646 8.2721l-1.7842 3.8926"/>
      <path id="path73626" d="m70.617 18.579c-3.3412 1.557-8.5961 3.5033-10.737 8.2721l-1.7193 3.7628"/>
     </g>
     <line id="line73628" y2="29.447" y1="26.592" x2="74.027" x1="73.634"/>
     <path id="path73630" d="m72.757 26.138s0.77849 0.03248 0.87593 0.48666c-0.0974-0.48666 0.71364-0.51901 0.71364-0.51901"/>
     <path id="path73632" d="m73.442 29.832s0.61642-0.16228 0.58389-0.38926c0.06489 0.29204 0.71364 0.35691 0.71364 0.35691"/>
    </g>
    <path id="path73634" d="m49.5 29.17c0.62074 0 1.1239-0.50327 1.1239-1.124s-0.5031-1.124-1.1239-1.124" stroke="#fff"/>
   </g>
   <polyline id="polyline73636" points="200.21 130.67 201.33 130.95 203.11 140.52 202.36 140.89 200.21 134.98" fill="#fff" transform="matrix(.173 0 0 .173 14.863 4.5018)"/>
   <path id="path73638" d="m49.5 34.928h15.765c1.5247 0 0.51901 4.0548-0.77849 4.0548h-14.987" stroke="#000" stroke-width=".34601" fill="none"/>
   <path id="path73640" d="m74.997 18.548c0 0.77849 0.38926 0.64877 0.12976 1.3624-0.25951 0.71364-1.8814 4.0872-1.557 6.1632" stroke="#000" stroke-width=".34601" fill="none"/>
   <polygon id="polygon73642" points="297.33 4.296 295.08 4.296 296.49 11.328 298.93 11.328" transform="matrix(.173 0 0 .173 14.863 4.5018)"/>
   <g id="g22025" fill="none">
    <g id="g22027" stroke="#000">
     <path id="path73644" stroke-width=".34601" d="m77.044 19.549c0.61641 0.55154 1.0705 1.4922 1.6867 2.4979"/>
     <path id="path73646" stroke-width=".34601" d="m79.022 19.287s-1.4922-1.2003-1.6867-0.48666"/>
     <polyline id="polyline73648" stroke-width="2" points="254.96 148.67 365.58 147.55 379.83 147.17" transform="matrix(.173 0 0 .173 14.863 4.5018)"/>
     <line id="line73650" stroke-width=".34601" y2="29.64" y1="29.771" x2="80.639" x1="78.176"/>
     <g id="g22033" stroke-width=".34601">
      <path id="path73652" d="m79.6 24.321c-0.779-0.714-2.206-2.271-1.038 4.477"/>
      <path id="path73654" d="m78.761 30.094c0.71364 0 1.1678 0.51902 0.84337 0.84337v0.38926c0.32439 0.19463 0.25951 1.1678-0.58389 1.2975-0.84337 0.12975-2.9194 0.77849-4.8008 0.77849h-24.719"/>
      <path id="path73656" d="m79.538 31.518c-0.84337 0.12975-3.4385 0.84337-5.3199 0.84337h-24.719"/>
      <path id="path73658" d="m79.538 31.064c-0.84337 0.12976-3.4385 0.84337-5.3199 0.84337h-24.719"/>
      <path id="path73662" d="m64.941 26.904c0.68285-0.01176 1.2463 0.53251 1.2579 1.2157 0.01176 0.68302-0.53251 1.2465-1.2155 1.2581l-1.4271 0.02457c-0.68302 0.01177-1.2463-0.53251-1.2579-1.2157-0.01176-0.68319 0.53233-1.2465 1.2154-1.2581l1.427-0.025z"/>
      <path id="path73664" d="m66.351 28.773c0.25414 0.5114 0.78596 0.85879 1.3949 0.84841l3.7623-0.0647c0.84322-0.01453 1.5153-0.71001 1.5008-1.5534-0.01453-0.8434-0.71001-1.5153-1.5534-1.5008l-3.7623 0.0647c-0.60984 0.01055-1.1302 0.37715-1.366 0.89841l0.0021-0.0066c-0.254-0.509-0.785-0.854-1.392-0.844l-1.4271 0.02457c-0.8434 0.01453-1.5153 0.71001-1.5008 1.5534 0.01453 0.8434 0.71001 1.5153 1.5534 1.5008l1.4269-0.02457c0.60655-0.01055 1.1242-0.37282 1.3621-0.88924v-0.0066z"/>
      <path id="path73666" d="m71.462 26.792c0.68302-0.01176 1.2463 0.53251 1.2581 1.2155 0.01159 0.68319-0.53268 1.2465-1.2157 1.2583l-3.7623 0.0647c-0.68285 0.01176-1.2463-0.53251-1.2579-1.2157-0.01176-0.68302 0.53251-1.2465 1.2155-1.2581l3.762-0.065z"/>
      <line id="line73670" y1="29.736" x2="73.505" x1="60.27" y2="29.444"/>
      <line id="line73672" y1="29.38" x2="73.472" x1="60.562" y2="29.087"/>
      <line id="line73674" y1="29.022" x2="73.472" x1="60.853" y2="28.762"/>
      <line id="line73676" y1="28.665" x2="73.439" x1="61.016" y2="28.406"/>
      <line id="line73678" y1="28.309" x2="73.375" x1="61.275" y2="28.049"/>
      <line id="line73680" y1="27.953" x2="73.342" x1="61.568" y2="27.693"/>
      <line id="line73682" y1="27.594" x2="73.309" x1="61.86" y2="27.335"/>
      <line id="line73684" y1="27.238" x2="73.245" x1="62.313" y2="27.011"/>
     </g>
    </g>
    <g id="g22050" stroke-width=".34601" stroke="#fff">
     <line id="line73688" y1="29.606" x2="73.586" x1="60.351" y2="29.314"/>
     <line id="line73690" y1="29.25" x2="73.553" x1="60.642" y2="28.958"/>
     <line id="line73692" y1="28.892" x2="73.553" x1="60.934" y2="28.632"/>
     <line id="line73694" y1="28.536" x2="73.52" x1="61.097" y2="28.276"/>
     <line id="line73696" y1="28.179" x2="73.456" x1="61.356" y2="27.92"/>
     <line id="line73698" y1="27.823" x2="73.423" x1="61.649" y2="27.563"/>
     <line id="line73700" y1="27.465" x2="73.391" x1="61.939" y2="27.205"/>
     <line id="line73702" y1="27.108" x2="73.327" x1="62.394" y2="26.882"/>
    </g>
    <g id="g22060" stroke="#000">
     <polyline id="polyline73704" stroke-width="2" points="372.71 162.17 367.08 183.55 371.96 195.17" transform="matrix(.173 0 0 .173 14.863 4.5018)"/>
     <g id="g22063" stroke-width=".34601">
      <path id="path73706" d="m78.368 36.259c-0.2595 0.84337-2.0112 0.90826-2.0112 0.90826h-9.342s-0.98408 0.0865-0.98408-1.1354"/>
      <path id="path73708" d="m49.5 30.741h7.5257c1.1029 0 2.1025-0.08737 3.3736-2.2058 1.557-2.5951 3.9575-2.2058 3.9575-2.2058l10.77-0.25951c2.0112-0.12975 2.6184 0.7771 3.4385 2.7248 0.51901 1.2326-1.4273 0.97315-1.4273 0.97315l-17.841 0.2595"/>
      <path id="path73710" d="m49.5 4.7243s14.986-0.25951 16.349 0.38926l0.06488 0.12975h0.38926l-0.03252-0.12975c0.97315 0.32438 1.8491 0.74617 3.3736 2.3681s3.7305 3.5358 6.6499 11.062c2.9194 7.5257 0.22715 0.64876 0.74617 1.0057 0 0 0.35691-0.32438 0.25951-1.2003-0.09741-0.87593-0.55154-2.7248 0.48666-2.7897 1.0382-0.06489 4.3467-0.48666 5.1901 0.19463 0.84337 0.6813 1.2975 1.8814 0.74617 2.4653-0.55136 0.58389-1.1354 0.77849-1.8491 0.84337-0.71365 0.06489-2.8546 0.22716-2.8546 0.22716l-0.25951 2.6276-0.0974 0.03256s0.48908 0.7389 0.61641 1.4598c0.19463 1.1029 1.2003 1.7516 1.3624 1.8491 0.1621 0.0974 0 5.1902-0.22716 7.9796"/>
     </g>
    </g>
   </g>
   <path id="path73712" d="m49.5 39.438s28.61-0.16228 30.233-0.51902l0.71364-6.812s0.45414 2.9843 0.45414 4.5414c0 1.557-0.19463 10.186 0 10.964 0.19463 0.77849-0.12975 1.8814-1.1678 1.8814h-4.2818c-1.6219 0-1.1029-1.2326-1.1029-1.7516h-1.4922c-1.1678 0-1.1029-1.1678-1.038-1.7516 0.06489-0.5839-0.03256-1.914-0.03256-1.914h-0.22715v0.16228h-0.32439l-0.35691-0.25951h-0.51901v0.22716h-0.48666l-0.38927-0.22716h-2.2058s-0.38926 0.51902-0.84337 0.51902h-2.9843l-0.71365 0.25951h-13.235"/>
   <path id="path73714" d="m49.5 4.7243s-14.986-0.25951-16.349 0.38926l-0.06488 0.12975h-0.38926l0.03253-0.12975c-0.972 0.3243-1.848 0.7461-3.373 2.368-1.524 1.6219-3.73 3.5354-6.65 11.061-2.9194 7.5259-0.22716 0.64877-0.74617 1.0057 0 0-0.35691-0.32438-0.25951-1.2003 0.0974-0.87591 0.55154-2.7248-0.48666-2.7897-1.0382-0.06489-4.3467-0.48666-5.1901 0.19463-0.84337 0.68129-1.2975 1.8814-0.74617 2.4653 0.55136 0.58389 1.1354 0.77849 1.8491 0.84337 0.71365 0.06489 2.8546 0.22715 2.8546 0.22715l0.25951 2.6276 0.0974 0.03256s-0.48925 0.7389-0.61642 1.4598c-0.19463 1.1029-1.2003 1.7516-1.3624 1.8491-0.1621 0.0974 0 5.1901 0.22716 7.9796" stroke="#000" stroke-width=".34601" fill="#fff"/>
   <path id="path73716" d="m49.5 39.438s-28.61-0.16228-30.233-0.51902l-0.71365-6.812s-0.45414 2.9843-0.45414 4.5414c0 1.557 0.19463 10.186 0 10.964-0.19463 0.77849 0.12975 1.8814 1.1678 1.8814h4.2818c1.6219 0 1.1029-1.2326 1.1029-1.7516h1.4922c1.1678 0 1.1029-1.1678 1.038-1.7516-0.06488-0.5839 0.03253-1.914 0.03253-1.914h0.22716v0.16228h0.32438l0.35691-0.25951h0.51901v0.22716h0.48666l0.38926-0.22716h2.2058s0.38926 0.51902 0.84337 0.51902h2.9843l0.71365 0.25951h13.235"/>
   <path id="path73718" d="m49.508 35.351h-14.151c-0.77849 0-0.06488 3.1789 0.51902 3.1789h13.624"/>
   <path id="path73720" d="m49.5 26.461h-7.5257c-0.90826 0-0.90826 0.51901-0.77849 0.84337l0.84337 1.6219c0.32438 0.51901 1.6219 0.51901 1.6219 0.51901h5.8389"/>
   <path id="path73722" d="m23.534 35.605c-0.20622 0-0.37369-0.1673-0.37369-0.37369v-1.2638c0-0.20639 0.1673-0.37369 0.37369-0.37369h7.8164c0.20622 0 0.37369 0.1673 0.37369 0.37369v1.2638c0 0.20639-0.1673 0.37369-0.37369 0.37369h-7.8164z" stroke="#000" stroke-width=".34601" fill="#fff"/>
   <path id="path73724" d="m27.442 34.604" stroke="#000" stroke-width=".34601" fill="#ccc"/>
   <path id="path73726" d="m49.5 13.145v4.6874s-17.128-0.19463-26.275 0.77849c2.011-6.292 6.423-11.742 8.629-12.066 2.205-0.3235 17.646-0.2586 17.646-0.2586v3.6331h-3.3736c-0.84337 0-0.90826-1.8165 0-1.8165h3.0492v-0.32438s-17.393-0.00693-17.841 0.38926c-2.2706 2.0112-3.7628 4.4765-4.1521 5.5145-0.38926 1.038-0.51901 1.8814 0.12975 1.7516 0.64877-0.12975 5.0604 0 5.0604 0s0.58389-2.3355 1.4922-2.3355h6.6823c0.64877 0 1.1029 2.3355 1.1029 2.3355h4.8008v-0.51901l1.2326-1.4922c0.25951-0.32456 1.8165-0.27576 1.8165-0.27576z"/>
   <path id="path73728" d="m49.5 4.7243s-12.165-0.097407-13.397 0.097399c-1.2323 0.19481 0.22716 0.35691 1.4598 0.35691h11.937v-0.45413z"/>
   <g id="g22077" stroke-width=".34601" fill="none">
    <g id="g22079" stroke="#000">
     <g id="g22081">
      <path id="path73730" d="m49.468 26.038h-7.5257c-1.1678 0-1.4922 0.77849-1.038 1.6219l0.84337 1.5084c0.45414 0.77849 1.9463 0.66503 1.9463 0.66503h5.8066"/>
      <path id="path73732" d="m28.415 18.579c3.7305 1.4922 9.5044 3.5033 11.646 8.2721l1.7842 3.8926"/>
      <path id="path73734" d="m28.383 18.579c3.3412 1.557 8.5961 3.5033 10.737 8.2721l1.7193 3.7628"/>
     </g>
     <line id="line73736" y2="29.447" y1="26.592" x2="24.977" x1="25.366"/>
     <path id="path73738" d="m26.242 26.138s-0.77849 0.03248-0.87593 0.48666c0.0974-0.48666-0.71364-0.51901-0.71364-0.51901"/>
     <path id="path73740" d="m25.56 29.832s-0.61642-0.16228-0.58389-0.38926c-0.06488 0.29204-0.71365 0.35691-0.71365 0.35691"/>
    </g>
    <path id="path73742" d="m49.5 29.17c-0.62074 0-1.124-0.50327-1.124-1.124s0.50327-1.124 1.124-1.124" stroke="#fff"/>
   </g>
   <polyline id="polyline73744" points="200.21 130.67 199.08 130.95 197.3 140.52 198.05 140.89 200.21 134.98" fill="#fff" transform="matrix(.173 0 0 .173 14.863 4.5018)"/>
   <path id="path73746" d="m49.5 34.928h-15.764c-1.5247 0-0.51901 4.0548 0.77849 4.0548h14.986" stroke="#000" stroke-width=".34601" fill="none"/>
   <path id="path73748" d="m24.003 18.548c0 0.77849-0.38926 0.64877-0.12975 1.3624 0.25951 0.71364 1.8814 4.0872 1.557 6.1632" stroke="#000" stroke-width=".34601" fill="none"/>
   <polygon id="polygon73750" points="103.08 4.296 105.33 4.296 103.93 11.328 101.49 11.328" transform="matrix(.173 0 0 .173 14.863 4.5018)"/>
   <g id="g22094" fill="none">
    <g id="g22096" stroke="#000">
     <path id="path73752" stroke-width=".34601" d="m21.96 19.549c-0.61642 0.55154-1.0705 1.4922-1.6868 2.4979"/>
     <path id="path73754" stroke-width=".34601" d="m19.982 19.287s1.4922-1.2003 1.6868-0.48666"/>
     <polyline id="polyline73756" stroke-width="2" points="145.46 148.67 34.833 147.55 20.583 147.17" transform="matrix(.173 0 0 .173 14.863 4.5018)"/>
     <line id="line73758" stroke-width=".34601" y2="29.64" y1="29.771" x2="18.36" x1="20.824"/>
     <g id="g22102" stroke-width=".34601">
      <path id="path73760" d="m19.397 24.321c0.77849-0.71365 2.2058-2.2706 1.038 4.4765"/>
      <path id="path73762" d="m20.241 30.094c-0.71365 0-1.1678 0.51902-0.84337 0.84337v0.38926c-0.32438 0.19463-0.25951 1.1678 0.58389 1.2975 0.84337 0.12975 2.9194 0.77849 4.8008 0.77849h24.718"/>
      <path id="path73764" d="m19.462 31.518c0.84337 0.12975 3.4385 0.84337 5.3199 0.84337h24.718"/>
      <path id="path73766" d="m19.462 31.064c0.84337 0.12976 3.4385 0.84337 5.3199 0.84337h24.718"/>
      <path id="path73768" d="m34.059 26.907c-0.68302-0.01178-1.2465 0.5325-1.2581 1.2157-0.01176 0.68302 0.53251 1.2465 1.2157 1.2581l1.4271 0.02455c0.6832 0.01178 1.2465-0.5325 1.2581-1.2157 0.01159-0.68319-0.53251-1.2465-1.2155-1.2581l-1.4278-0.02309z"/>
      <path id="path73770" d="m32.649 28.77c-0.25414 0.5114-0.78595 0.85877-1.3949 0.84838l-3.7624-0.06473c-0.84337-0.01455-1.5153-0.71001-1.5008-1.5534 0.01453-0.84337 0.71001-1.5153 1.5534-1.5008l3.7624 0.06473c0.61001 0.01055 1.1302 0.37715 1.366 0.89841l-0.0021-0.0069c0.25484-0.50915 0.78564-0.85484 1.3929-0.84445l1.4271 0.02455c0.84337 0.01455 1.5153 0.71001 1.5008 1.5534-0.01453 0.84337-0.71001 1.5153-1.5534 1.5008l-1.4271-0.02455c-0.60638-0.01055-1.1242-0.37282-1.3618-0.88925v-0.0069z"/>
      <path id="path73772" d="m27.539 26.792c-0.6832-0.01178-1.2465 0.53251-1.2581 1.2155-0.01176 0.68319 0.53251 1.2465 1.2155 1.2582l3.7624 0.06473c0.68302 0.01178 1.2465-0.5325 1.2581-1.2157 0.01176-0.68302-0.53251-1.2465-1.2157-1.2581l-3.761-0.065z"/>
     </g>
     <g id="g22111" stroke-width=".34601">
      <line id="line73774" x2="25.496" y1="29.732" x1="38.731" y2="29.447"/>
      <line id="line73776" x2="25.528" y1="29.378" x1="38.438" y2="29.086"/>
      <line id="line73778" x2="25.528" y1="29.024" x1="38.147" y2="28.762"/>
      <line id="line73780" x2="25.56" y1="28.662" x1="37.984" y2="28.408"/>
      <line id="line73782" x2="25.626" y1="28.308" x1="37.725" y2="28.047"/>
      <line id="line73784" x2="25.658" y1="27.954" x1="37.433" y2="27.692"/>
      <line id="line73786" x2="25.691" y1="27.592" x1="37.142" y2="27.338"/>
      <line id="line73788" x2="25.755" y1="27.238" x1="36.687" y2="27.007"/>
     </g>
    </g>
    <g id="g22121" stroke-width=".34601" stroke="#fff">
     <line id="line73790" x2="25.415" y1="29.609" x1="38.649" y2="29.317"/>
     <line id="line73792" x2="25.447" y1="29.247" x1="38.358" y2="28.955"/>
     <line id="line73794" x2="25.447" y1="28.893" x1="38.066" y2="28.631"/>
     <line id="line73796" x2="25.48" y1="28.539" x1="37.904" y2="28.277"/>
     <line id="line73798" x2="25.544" y1="28.177" x1="37.644" y2="27.916"/>
     <line id="line73800" x2="25.577" y1="27.823" x1="37.352" y2="27.562"/>
     <line id="line73802" x2="25.61" y1="27.462" x1="37.06" y2="27.208"/>
     <line id="line73804" x2="25.674" y1="27.107" x1="36.606" y2="26.884"/>
    </g>
    <g id="g22131" stroke="#000">
     <polyline id="polyline73806" stroke-width="2" points="27.708 162.17 33.333 183.55 28.458 195.17" transform="matrix(.173 0 0 .173 14.863 4.5018)"/>
     <path id="path73808" stroke-width=".34601" d="m20.63 36.259c0.25951 0.84337 2.0112 0.90826 2.0112 0.90826h9.342s0.98408 0.0865 0.98408-1.038"/>
     <path id="path73810" stroke-width=".34601" d="m49.5 30.741h-7.5257c-1.1029 0-2.1025-0.08737-3.3736-2.2058-1.557-2.5951-3.9575-2.2058-3.9575-2.2058l-10.77-0.26c-2.0112-0.12975-2.6184 0.7771-3.4385 2.7248-0.51901 1.2326 1.4273 0.97315 1.4273 0.97315l17.841 0.2595"/>
    </g>
   </g>
   <g id="g22136" stroke-width=".34601" stroke="#000" fill="#fff">
    <path id="path73814" d="m25.366 26.622c0.0974-0.48666-0.71364-0.51901-0.71364-0.51901l-0.77852-0.03252c-2.0112-0.12975-2.6184 0.77714-3.4385 2.7248-0.51901 1.2327 1.4273 0.97315 1.4273 0.97315l2.4004 0.03252s0.64876-0.06488 0.71364-0.35691l0.38926-2.822z"/>
    <path id="path73818" d="m73.635 26.622c-0.0974-0.48666 0.71364-0.51901 0.71364-0.51901l0.77852-0.03252c2.0112-0.12975 2.6184 0.77714 3.4385 2.7248 0.51901 1.2327-1.4273 0.97315-1.4273 0.97315l-2.4004 0.03252s-0.64877-0.06488-0.71364-0.35691l-0.38926-2.822z"/>
    <path id="path73820" d="m49.5 39.438s29-0.19463 30.233-0.51902c1.2331-0.32439-0.12976 3.698-1.1678 3.698h-58.125c-1.038 0-1.1678-3.698-1.1678-3.698 1.2326 0.32439 30.233 0.51902 30.233 0.51902"/>
   </g>
  </g>
 </g>
</svg>
