<?xml version="1.0" encoding="UTF-8" standalone="no"?>
<!-- Created with Inkscape (http://www.inkscape.org/) -->
<svg id="svg2" xmlns:rdf="http://www.w3.org/1999/02/22-rdf-syntax-ns#" xmlns="http://www.w3.org/2000/svg" height="54" width="99" version="1.1" xmlns:cc="http://creativecommons.org/ns#" xmlns:dc="http://purl.org/dc/elements/1.1/">
 <metadata id="metadata7">
  <rdf:RDF>
   <cc:Work rdf:about="">
    <dc:format>image/svg+xml</dc:format>
    <dc:type rdf:resource="http://purl.org/dc/dcmitype/StillImage"/>
    <dc:title/>
   </cc:Work>
  </rdf:RDF>
 </metadata>
 <g id="g3491">
  <g id="g3871">
   <g id="g4614">
    <g id="g5219">
     <g id="g5689">
      <g id="g6406">
       <g id="g7263">
        <g id="g8053">
         <g id="g8717">
          <g id="g9406">
           <g id="g9898">
            <rect id="rect2990" opacity="0" height="54" width="99" y="0" x="0"/>
            <g id="layer1" transform="translate(211.75436,-31.588197)">
             <g id="logo11" transform="matrix(0.16398347,0,0,0.16398347,-207.2542,44.607556)">
              <g id="g80023">
               <path id="path80025" d="m3.349,128.66s2.025-6.75,2.362-9.45c0.338-2.7-4.05-10.125-4.725-14.175s-1.688-13.5,24.975-29.7c26.662-16.2,79.649-19.913,106.31-25.65,26.663-5.737,33.413-8.775,68.85-26.325,35.438-17.55,45.225-17.212,45.225-17.212,35.1-5.063,76.615-7.128,121.5-3.712,31.05,2.362,43.875,9.787,43.875,9.787,20.925,10.125,36.45,16.875,54.675,29.362,28.012,1.688,68.512,3.375,69.862,8.775s0.675,10.8,0,12.825,2.869,8.438,0,23.287c5.063,2.363,11.475,0.675,11.813,5.4,0.337,4.725-6.075,12.15-6.75,17.55s1.35,8.437-3.038,10.462c-3.953,1.824-9.824,3.923-31.683,9.998l0.204-0.399c3.296-7.518-0.246-20.399-0.246-20.399,0.675-14.175-9.45-31.725-28.012-31.725-28.688,0-38.813,28.35-38.475,37.462,0.764,20.617-2.362,20.25-6.75,19.912l-156.26,0.675s-1.013-11.138-0.675-23.288c0.337-12.15-8.1-37.8-39.15-37.8-41.85,0-45.899,47.587-45.899,47.587,3.037,4.387,1.688,8.775-1.688,11.813-12.825,0-20.25-2.363-63.112-2.363-42.213,0-85.735,0-122.51-2.579l-0.674-0.13z" fill="#FFF"/>
              </g>
              <g id="g80027">
               <path id="path80029" d="m261.87,147.22s-5.062,23.288-29.024,23.288h-19.575c-22.95,0-29.024-24.637-29.024-24.637-19.575,0.337-31.725,1.012-59.737-1.35,0,0-6.413,17.887-30.037,17.887h-15.555c-20.925,0-23.625-17.887-23.625-17.887h-9.113v-3.038l-17.55-2.362,0.675-5.063c-14.175-0.675-19.912-2.363-27-5.4,37.125,2.7,81.337,2.7,124.2,2.7,42.862,0,50.287,2.363,63.112,2.363,3.375-3.038,4.725-7.425,1.688-11.813,0,0,4.05-47.587,45.899-47.587,31.05,0,39.487,25.65,39.15,37.8-0.338,12.15,0.675,23.288,0.675,23.288l156.26-0.675c4.387,0.337,7.513,0.705,6.75-19.912-0.337-9.113,9.788-37.462,38.475-37.462,18.562,0,28.687,17.55,28.012,31.725,0,0,3.712,13.5,0,20.925l-5.737,1.35s-3.713,30.712-28.688,30.712h-16.875c-19.575,0-23.625-21.938-23.625-21.938l-18.563,0.338c0,2.025-13.5,1.35-13.5,1.35v1.013h-10.462v-1.013c-9.45-1.35-31.387,0-31.387,0s-6.075,16.875-23.962,16.875h-11.813c-14.512,0-23.625-15.188-23.625-15.188l-21.263,0.338-0.675,3.375h-14.51z"/>
               <path id="path80031" d="m3.349,128.66s2.025-6.75,2.362-9.45c0.338-2.7-4.05-10.125-4.725-14.175s-1.688-13.5,24.975-29.7c26.662-16.2,79.649-19.913,106.31-25.65,26.663-5.737,33.413-8.775,68.85-26.325,35.438-17.55,45.225-17.212,45.225-17.212,35.1-5.063,76.615-7.128,121.5-3.712,31.05,2.362,43.875,9.787,43.875,9.787,20.925,10.125,36.45,16.875,54.675,29.362,28.012,1.688,68.512,3.375,69.862,8.775s0.675,10.8,0,12.825,2.869,8.438,0,23.287c5.063,2.363,11.475,0.675,11.813,5.4,0.337,4.725-6.075,12.15-6.75,17.55s1.35,8.437-3.038,10.462c-4.387,2.025-11.137,4.387-39.487,12.15" stroke="#000" stroke-width="1.5" fill="none"/>
              </g>
              <g id="g80033" fill="#FFF">
               <path id="path80035" d="m476.4,153.17c10.12-0.726,18.02-13.551,17.646-28.646-0.375-15.096-8.882-26.746-19.002-26.02-10.12,0.725-18.02,13.551-17.645,28.646s8.881,26.745,19.001,26.02z"/>
               <path id="path80037" d="M475.72,125.84"/>
              </g>
              <g id="g80039" stroke-width="0.5" stroke="#000" fill="none">
               <path id="path80041" d="m476.47,152.13c9.715-0.696,17.299-13.009,16.939-27.5-0.359-14.492-8.527-25.676-18.242-24.979-9.715,0.696-17.299,13.009-16.939,27.501,0.36,14.491,8.527,25.675,18.242,24.978z"/>
               <path id="path80043" d="M475.82,125.89"/>
              </g>
              <polygon id="polygon80045" points="465.88,122.23,459.32,127.19,459.43,128.99,465.11,124.85"/>
              <g id="g80047" stroke-width="0.5" stroke="#000" fill="none">
               <path id="path80049" d="m476.56,136.73c3.989-0.249,7.104-4.649,6.956-9.827-0.147-5.179-3.501-9.175-7.491-8.926-3.989,0.249-7.104,4.649-6.956,9.827,0.147,5.179,3.501,9.175,7.491,8.926z"/>
               <path id="path80051" d="M476.29,127.36"/>
              </g>
              <path id="path80053" d="m463.36,110.65s-2.718,4.903-3.735,11.633l9.12-5.868s-2.762-4.381-5.385-5.765z"/>
              <path id="path80055" d="m479.9,114.1,4.728-9.033c-6.23-5.435-11.917-4.109-16.1-0.399,0-0.001,7.045,5.904,11.372,9.432z"/>
              <polygon id="polygon80057" points="474.13,113.63,466.59,106.2,465.19,107.97,472.37,114.14"/>
              <polygon id="polygon80059" points="471.54,149.43,472.62,140.2,470.18,138.76,469.59,148.2"/>
              <path id="path80061" d="m475.79,141.22-1.544,8.775c1.657,0.774,10.732,0.45,12.861-8.282,0,0.001-6.018-0.714-11.317-0.493z"/>
              <polygon id="polygon80063" points="489.79,136.9,483.9,136.02,482.75,137.8,489.36,137.94"/>
              <path id="path80065" d="m485.99,131.58,4.9,1.124s2.128-8.732-1.429-20.298c-0.001,0-1.352,11.548-3.471,19.174z"/>
              <polygon id="polygon80067" points="487.39,109.18,486.99,108.23,484.06,118.48,485.33,120.59"/>
              <path id="path80069" d="m459.99,131.95,5.099-3.799s0.414,9.651,1.234,18.383c0,0-3.848-4.122-6.333-14.584z"/>
              <g id="g80071" stroke-width="0.5" stroke="#000" fill="none">
               <path id="path80073" d="m476.31,140.09c5.418-0.338,9.647-6.313,9.447-13.346s-4.755-12.46-10.173-12.122-9.648,6.313-9.447,13.346c0.2,7.032,4.755,12.46,10.173,12.122z"/>
               <path id="path80075" d="M475.94,127.36"/>
              </g>
              <g id="g80077" stroke-width="0.5" stroke="#000" fill="none">
               <path id="path80079" d="m476.05,131.18c1.625-0.101,2.895-1.894,2.834-4.003-0.06-2.11-1.426-3.738-3.052-3.637-1.625,0.101-2.895,1.894-2.834,4.003,0.061,2.11,1.427,3.738,3.052,3.637z"/>
               <path id="path80081" d="M475.94,127.36"/>
              </g>
              <g id="g80083" stroke-width="0.5" stroke="#000">
               <path id="path80085" d="m477.86,131.18c1.625-0.101,2.894-1.894,2.834-4.003s-1.426-3.738-3.052-3.637c-1.625,0.101-2.894,1.894-2.834,4.003,0.061,2.11,1.427,3.738,3.052,3.637z"/>
               <path id="path80087" d="M477.75,127.36"/>
              </g>
              <path id="path80089" d="m140.37,47.993c36.787-0.675,81,2.7,115.09-1.35,34.087-4.05,47.925-3.712,47.925-3.712,14.512-17.55,24.3-27.337,30.712-31.725-6.412-3.038-20.925-5.063-49.95-4.388s-43.537,1.688-44.887,0.338c-24.975,7.087-69.525,35.099-98.887,40.837z"/>
              <path id="path80091" d="m340.51,53.73c-5.738,3.038-14.85,0.675-14.85,0.675,3.375,4.05-7.579,11.475-10.462,11.475-4.387,0-9.788-10.462-14.512-10.125-4.725,0.338-22.95,0.338-28.012-0.675,0,0,23.625-1.012,30.375-1.688,6.75-0.675,5.063-8.438,3.712-10.8,0,0,1.438-0.332,3.693-0.776,1.707-3.949,22.294-26.898,27.356-29.936,5.063-3.037,8.438-3.375,19.913-3.375s35.774,1.688,35.774,1.688c8.438,7.087,19.575,20.587,19.575,20.587s2.362,8.1,2.7,18.563c-35.1,3.375-75.262,4.387-75.262,4.387z"/>
              <path id="path80093" d="m415.77,49.343c20.925-1.688,47.25-2.025,50.625-7.763" stroke="#000" stroke-width="0.5" fill="none"/>
              <path id="path80095" d="m413.07,30.78,11.475,17.887c9.788,5.4,13.838,30.375,13.163,37.8s-12.487,23.288-11.813,43.537" stroke="#000" stroke-width="0.5" fill="none"/>
              <line id="line80097" stroke-width="0.5" x1="441.08" x2="303.38" stroke="#000" y1="129.67" y2="131.69" fill="none"/>
              <path id="path80099" d="m301.7,136.08c1.012-0.675,1.859-3.418,0.675-7.762-1.013-3.713-2.025-17.888-1.35-30.375,0.701-12.965-1.012-26.663-2.025-32.4s-1.013-10.8-1.013-10.8" stroke="#000" stroke-width="0.5" fill="none"/>
              <g id="g80101">
               <path id="path80103" d="m269.97,94.567c9.45,0.675,156.6-8.438,186.64-8.1" stroke="#000" stroke-width="0.5" fill="none"/>
              </g>
              <path id="path80105" d="m271.66,96.93c9.45,0.675,151.87-8.438,181.91-8.1" stroke="#000" stroke-width="0.5" fill="none"/>
              <path id="path80107" d="m492.72,83.43c3.061,0.219,20.572-0.59,43.871-1.771" stroke="#000" stroke-width="0.5" fill="none"/>
              <path id="path80109" d="m496.77,85.792c3.046,0.218,16.354-0.582,39.484-1.754" stroke="#000" stroke-width="0.5" fill="none"/>
              <g id="g80111">
               <path id="path80113" d="m200.11,99.292c-22.95,1.688-125.89,4.725-134.32,4.725-8.437,0-48.262,0-64.8-1.688" stroke="#000" stroke-width="0.5" fill="none"/>
              </g>
              <g id="g80115">
               <path id="path80117" d="m200.11,101.32c-22.95,1.688-125.89,4.725-134.32,4.725-8.437,0-48.262,0-64.8-1.688" stroke="#000" stroke-width="0.5" fill="none"/>
              </g>
              <path id="path80119" d="m150.16,132.37c10.8,0.337,12.825-3.712,43.875-3.712" stroke="#000" stroke-width="0.5" fill="none"/>
              <path id="path80121" d="m193.36,122.24c-14.513,1.35-30.038,2.025-43.537-0.337-13.5-2.363-20.25-2.363-51.975-0.675s-82.687,0-91.799-2.362" stroke="#000" stroke-width="0.5" fill="none"/>
              <g id="g80123" stroke-width="0.5" stroke="#000" fill="none">
               <ellipse id="ellipse80125" d="m 515.32801,69.593002 c 0,4.745231 -2.56452,8.592 -5.728,8.592 -3.16349,0 -5.728,-3.846769 -5.728,-8.592 0,-4.74523 2.56451,-8.592 5.728,-8.592 3.16348,0 5.728,3.84677 5.728,8.592 z" cx="509.6" rx="5.728" cy="69.593" ry="8.592"/>
               <path id="path80127" d="M509.6,69.593"/>
              </g>
              <path id="path80129" d="m414.31,70.623c-0.754,0-1.366-0.555-1.366-1.24l-0.745-5.656c0-0.685,0.612-1.239,1.367-1.239h11.564c0.755,0,1.366,0.555,1.366,1.239l0.745,5.656c0,0.685-0.612,1.24-1.366,1.24h-11.56z" stroke="#000" stroke-width="0.5" fill="none"/>
              <path id="path80131" d="m413.86,67.025c-0.755,0-1.366-0.278-1.366-0.62l-0.448-3.151c0-0.342,0.612-0.62,1.367-0.62h11.564c0.755,0,1.366,0.278,1.366,0.62l0.448,3.151c0,0.342-0.612,0.62-1.367,0.62h-11.56z" stroke-width="0.5" stroke="#000"/>
              <g id="g80133" stroke-width="0.5" stroke="#000" fill="none">
               <ellipse id="ellipse80135" d="m 430.60901,64.466003 c 0,0.75884 -0.49204,1.374 -1.099,1.374 -0.60696,0 -1.099,-0.61516 -1.099,-1.374 0,-0.758839 0.49204,-1.374 1.099,-1.374 0.60696,0 1.099,0.615161 1.099,1.374 z" cx="429.51" rx="1.099" cy="64.466" ry="1.374"/>
               <path id="path80137" d="M429.51,64.466"/>
              </g>
              <g id="g80139" fill="#FFF">
               <path id="path80141" d="m235.48,162.12c12.313-0.831,21.924-15.518,21.469-32.804-0.456-17.286-10.807-30.626-23.12-29.796s-21.924,15.518-21.468,32.804c0.455,17.286,10.806,30.626,23.119,29.796z"/>
               <path id="path80143" d="M234.65,130.82"/>
              </g>
              <g id="g80145" stroke-width="0.5" stroke="#000" fill="none">
               <path id="path80147" d="m235.57,160.93c11.82-0.797,21.048-14.897,20.61-31.492s-10.375-29.401-22.195-28.604-21.047,14.897-20.61,31.492,10.376,29.401,22.195,28.604z"/>
               <path id="path80149" d="M234.77,130.88"/>
              </g>
              <polygon id="polygon80151" points="222.68,126.68,214.7,132.37,214.83,134.42,221.74,129.68"/>
              <g id="g80153" stroke-width="0.5" stroke="#000" fill="none">
               <path id="path80155" d="m235,143.25c4.854-0.285,8.643-5.323,8.463-11.253s-4.26-10.506-9.114-10.221-8.643,5.323-8.464,11.253c0.18,5.93,4.261,10.507,9.115,10.221z"/>
               <path id="path80157" d="M234.67,132.52"/>
              </g>
              <polygon id="polygon80159" points="232.71,116.84,223.54,108.33,221.84,110.36,230.58,117.42"/>
              <polygon id="polygon80161" points="229.56,157.83,230.87,147.27,227.91,145.62,227.19,156.42"/>
              <polygon id="polygon80163" points="251.77,143.49,244.6,142.47,243.2,144.51,251.24,144.68"/>
              <polygon id="polygon80165" points="248.85,111.75,248.36,110.66,244.8,122.4,246.34,124.8"/>
              <g id="g80167">
               <path id="path80169" d="m219.62,113.42s-3.307,5.615-4.544,13.321l11.096-6.72c-0.001,0-3.361-5.016-6.552-6.601z"/>
               <path id="path80171" d="m239.74,117.38,5.752-10.344c-7.58-6.224-14.499-4.706-19.588-0.457,0,0.001,8.572,6.762,13.836,10.801z"/>
               <path id="path80173" d="m234.73,148.43-1.878,10.049c2.017,0.886,13.058,0.516,15.648-9.484-0.001,0-7.323-0.818-13.77-0.565z"/>
               <path id="path80175" d="m247.14,137.39,5.961,1.286s2.59-9.999-1.738-23.243c0-0.001-1.645,13.224-4.223,21.957z"/>
               <path id="path80177" d="m215.51,137.82,6.205-4.35s0.504,11.052,1.502,21.05c0,0-4.682-4.72-7.707-16.7z"/>
              </g>
              <g id="g80179" stroke-width="0.5" stroke="#000" fill="none">
               <path id="path80181" d="m235.36,147.14c6.592-0.387,11.738-7.229,11.494-15.283-0.244-8.053-5.786-14.268-12.377-13.881-6.592,0.387-11.738,7.229-11.494,15.283s5.785,14.268,12.377,13.881z"/>
               <path id="path80183" d="M234.92,132.56"/>
              </g>
              <g id="g80185" stroke-width="0.5" stroke="#000" fill="none">
               <path id="path80187" d="m235.06,136.93c1.978-0.116,3.521-2.169,3.448-4.585s-1.736-4.281-3.713-4.165-3.521,2.169-3.448,4.585,1.735,4.28,3.713,4.165z"/>
               <path id="path80189" d="M234.92,132.56"/>
              </g>
              <g id="g80191" stroke-width="0.5" stroke="#000">
               <path id="path80193" d="m237.25,136.93c1.978-0.116,3.521-2.169,3.448-4.585s-1.736-4.281-3.713-4.165-3.521,2.169-3.448,4.585c0.072,2.416,1.735,4.28,3.713,4.165z"/>
               <path id="path80195" d="M237.12,132.56"/>
              </g>
              <path id="path80197" d="m22.923,77.018s2.025,1.35,4.387,1.688,1.35,1.35,0.338,3.038c-1.013,1.688-8.438,9.787-9.788,11.475s-2.7,1.35-4.387,1.013-7.425-1.35-7.087-3.375c3.038-4.727,13.837-12.152,16.537-13.839z"/>
              <path id="path80199" d="m79.454,95.58s6.075-4.05,7.762-6.075,7.425-7.425,18.562-8.438c11.138-1.012,31.725-2.362,40.5-1.688,8.775,0.675,12.434,5.364,10.8,9.45-0.675,1.688-16.829,6.088-35.437,5.737-17.89-0.336-42.186,1.014-42.186,1.014z"/>
              <path id="path80201" d="m51.104,108.07c11.811,0.164,32.062,0,35.437,0s3.375,11.475-0.337,11.813c-3.713,0.337-23.625,0.337-33.075,0-9.45-0.338-34.762-0.675-38.137-1.35s-2.363-11.813,1.35-11.475c3.713,0.337,10.463,0.675,34.762,1.012z"/>
              <g id="g80203" fill="#FFF">
               <path id="path80205" d="m84.22,117.18c0.537,0,0.971-0.435,0.971-0.971v-4.47c0-0.537-0.435-0.972-0.971-0.972h-12.907c-0.536,0-0.971,0.435-0.971,0.972v4.47c0,0.536,0.435,0.971,0.971,0.971h12.907z"/>
               <path id="path80207" d="M77.767,113.97"/>
              </g>
              <g id="g80209" fill="#FFF">
               <path id="path80211" d="m26.414,116.17c0.402,0,0.729-0.435,0.729-0.971v-4.47c0-0.536-0.326-0.971-0.729-0.971h-9.68c-0.403,0-0.729,0.435-0.729,0.971v4.47c0,0.537,0.326,0.971,0.729,0.971h9.68z"/>
               <path id="path80213" d="M21.573,112.96"/>
              </g>
              <polygon id="polygon80215" stroke="#FFF" points="48.145,115.44,49.562,111.7,45.46,111.69,45.769,109.94,41.42,110.01,41.112,111.76,38.019,111.81,36.601,115.56,40.668,115.48,40.354,116.79,44.534,116.8,44.764,115.41" stroke-width="0.5" fill="none"/>
              <g id="g80217" fill="#FFF">
               <path id="path80219" d="m125.73,90.518c0.537,0,0.972-0.435,0.972-0.972v-5.145c0-0.537-0.435-0.971-0.972-0.971h-11.219c-0.537,0-0.972,0.435-0.972,0.971v5.145c0,0.537,0.435,0.972,0.972,0.972h11.219z"/>
               <path id="path80221" d="M120.12,86.974"/>
              </g>
              <path id="path80223" d="m140.92,86.467c0.537,0,0.971-0.435,0.971-0.971v-1.095c0-0.537-0.435-0.971-0.971-0.971h-11.22c-0.536,0-0.971,0.435-0.971,0.971v5.145c0,0.537,0.435,0.972,0.971,0.972l11.22-4.051z" fill="#FFF"/>
              <path id="path80225" d="M135.31,86.974" fill="#FFF"/>
              <g id="g80227">
               <polygon id="polygon80229" points="166.53,54.068,197.24,54.068,214.79,51.03,184.08,51.03"/>
              </g>
              <polygon id="polygon80231" points="118.27,54.068,132.78,54.068,150.33,51.03,135.82,51.03"/>
              <path id="path80233" d="m28.155,79.717c12.488,2.025,32.4,3.713,80.324,1.688" stroke="#000" stroke-width="0.5" fill="none"/>
              <path id="path80235" d="M96.667,83.43c22.273-16.538,108.67-27.337,131.62-35.438" stroke="#000" stroke-width="0.5" fill="none"/>
              <path id="path80237" d="M28.492,80.055c12.825-10.462,64.799-21.938,128.59-32.737" stroke="#000" stroke-width="0.5" fill="none"/>
              <path id="path80239" d="M42.667,103.68c-0.337-2.7,2.561-10.706,15.188-20.587,23.287-18.225,120.14-31.725,124.54-35.774" stroke="#000" stroke-width="0.5" fill="none"/>
              <path id="path80241" d="m109.49,105.7c-2.025,1.013-5.4,3.375-4.725,4.725s34.425,0,36.787,0c2.363,0,14.513-4.725,12.825-5.737-1.688-1.013-21.938,1.349-44.887,1.012z" fill="#FFF" stroke="#000"/>
              <path id="path80243" d="m2.167,106.38s0.844,0.337,3.881,0.337,4.725,4.894,2.7,4.894-4.556-0.337-4.556-0.337c-0.675-1.519-1.687-3.713-2.025-4.894z" fill="#FFF" stroke="#000"/>
              <path id="path80245" d="m145.27,101.66c17.55-0.337,23.962-4.725,37.125-9.788,13.162-5.063,24.975-10.462,36.112-12.487" stroke="#000" stroke-width="0.5" fill="none"/>
              <path id="path80247" d="m270.82,44.618c-16.2,1.688-55.012,12.15-65.812,15.188" stroke="#000" stroke-width="0.5" fill="none"/>
              <path id="path80249" d="m277.23,55.08s-19.913,0.337-25.65,2.025" stroke="#000" stroke-width="0.5" fill="none"/>
              <path id="path80251" d="m258.33,80.393c13.837,1.012,13.5,3.375,44.887,1.688s68.493-6.22,124.87-7.087c21.938-0.338,24.3-3.713,49.274-4.05,24.975-0.337,18.895,2.21,35.1,1.688,20.925-0.675,24.3-3.375,24.3-3.375" stroke="#000" stroke-width="0.5" fill="none"/>
              <path id="path80253" d="m536.26,86.467c-0.506,5.063-2.531,6.413,1.519,6.413s9.45,0,8.944-2.7" stroke="#000" stroke-width="0.5" fill="none"/>
              <path id="path80255" d="m402.44,8.843c11.475,4.725,37.125,20.25,53.325,35.774,6.075-1.013,8.1-1.688,9.45-4.05-22.27-15.187-46.57-24.637-62.77-31.724z"/>
              <path id="path80257" d="m340.34,48.33s0.844,1.013,0.506,1.856l-33.581,2.025s13.5-2.868,33.075-3.881z" fill="#FFF"/>
              <path id="path80259" d="m310.45,41.816c4.566-0.9,12.481-2.261,18.582-2.261,9.112,0,17.212,11.138,11.475,14.175" stroke="#FFF" stroke-width="0.5" fill="none"/>
              <path id="path80261" d="m531.35,98.294c0.535-0.039,0.938-0.504,0.899-1.039l0.342-2.438c-0.039-0.535-0.504-0.938-1.039-0.899l-6.646,0.481c-0.535,0.039-0.938,0.504-0.899,1.039l-0.342,2.439c0.039,0.535,0.504,0.938,1.039,0.898l6.646-0.481z" stroke="#000" stroke-width="0.5" fill="none"/>
             </g>
            </g>
           </g>
          </g>
         </g>
        </g>
       </g>
      </g>
     </g>
    </g>
   </g>
  </g>
 </g>
</svg>
