<?xml version="1.0" encoding="UTF-8" standalone="no"?>
<!-- Created with Inkscape (http://www.inkscape.org/) -->
<svg id="svg2" xmlns:rdf="http://www.w3.org/1999/02/22-rdf-syntax-ns#" xmlns="http://www.w3.org/2000/svg" height="54" width="99" version="1.1" xmlns:cc="http://creativecommons.org/ns#" xmlns:dc="http://purl.org/dc/elements/1.1/">
 <metadata id="metadata7">
  <rdf:RDF>
   <cc:Work rdf:about="">
    <dc:format>image/svg+xml</dc:format>
    <dc:type rdf:resource="http://purl.org/dc/dcmitype/StillImage"/>
    <dc:title/>
   </cc:Work>
  </rdf:RDF>
 </metadata>
 <g id="g37074">
  <rect id="rect2990" opacity="0" height="54" width="99" y="0" x="0"/>
  <path id="path79751" fill="#fff" d="m9.6781 35.717c-0.6912 0.19794-1.1526 0.46218-1.8218 0.82303-0.50487 0.27231 0.048598 1.0855 0.54914 0.91157 0.48146-0.16744 1.1394-0.8734 3.2884-0.83031l0.05922-0.0071c-0.09287 3.5674 1.0031 8.0296 4.4884 8.1897l3.6748 0.03758c1.8344 0.08421 2.8539-2.1012 3.5105-4.9598 1.0825 0.04978 2.7015-0.03482 3.738-0.1033l-0.03797-0.60089-3.4226-0.3335 0.0362-0.78623 1.081 0.04958-1.5632 0.51235 0.15504 0.2973 1.8859-0.49248s0.78623 0.0362 0.61663-0.56252c0.98279 0.04506 1.6118 1.3543 1.6118 1.3543l-0.40079-0.03876 0.03797 0.60089c0.51963-0.03522 0.99716-0.073 0.99716-0.073l7.993 0.36734s0.8917 3.455 4.1675 3.6053l2.3585 0.10841c2.3585 0.10841 3.9324-2.7079 3.9865-3.8873l2.0964 0.09641s1.0153 6.4807 7.0427 6.7576l3.6689 0.16862c4.1931 0.19262 6.7682-4.416 6.8585-6.3816 2.7457 0.25736 7.1119-0.46119 7.1119-0.46119s1.0271 5.1709 8.1693 5.1025c7.0673-0.06768 8.0591-4.064 8.245-7.981l0.06454-0.0024c0.54462-0.1092 1.2616-0.22568 1.9166-0.24594 1.2821-0.03955 1.3047-0.53085 1.3273-1.0223 0.02263-0.4913-0.05765-0.88894 0.36714-1.5587 0.4246-0.66976 0.76459-1.6392 0.81437-2.7199 0.04958-1.081-0.5218-1.5012-2.0988-1.4753 0.78623 0.0362 0.93793-0.7215 0.45096-0.84251 0.09484-2.0638-0.39941-4.4107-0.39941-4.4107 0.49602-0.07575 0.81358-0.71442-0.15996-0.95623-1.821-3.2351-18.245-5.1387-18.245-5.1387s-9.3142-8.0438-10.364-8.7814c-1.049-0.737-1.106-1.6259-15.575-1.7983-14.468-0.1723-24.372 1.047-31.7 1.8923-2.3778 0.27428-2.9753 0.45411-4.1342 1.3857-1.1589 0.93144-2.5551 2.7384-4.1645 5.6189-1.6095 2.8805-1.7755 4.3501-1.9109 7.2982-0.13537 2.9482 0.45765 5.0434 0.45765 5.0434l-0.88442-0.04073s-1.1794-0.05411-0.94305 1.237c0.68353 3.7378 2.5429 4.6289 4.876 5.0322l0.12317 0.0026z"/>
  <path id="path79753" d="m27.127 39.178 0.40099 0.03915s-0.62922-1.3092-1.6118-1.3543c0.16941 0.59853-0.61663 0.56252-0.61663 0.56252l-1.8859 0.49248-0.15504-0.2973 1.5632-0.51235-1.081-0.04958-0.0362 0.78623 3.4224 0.33311 0.03797 0.60089c-1.0365 0.06847-2.6554 0.15308-3.738 0.1033-0.65657 2.8587-1.6762 5.044-3.5105 4.9598l-3.678-0.036c-3.767-0.173-4.743-5.372-4.443-9.035-0.083-1.055-1.121-1.332-1.287-3.44l-5.4214-0.26562s-0.26227-0.43483-0.29572-1.0483l5.5032 0.25283c-0.17177-1.9774 1.384-4.4008 3.6175-4.4296l1.7033 0.07831c3.931 0.18062 4.2564 4.5287 4.2564 4.5287l29.256 0.557-0.048 1.049-28.974-0.533c0.23866 2.2275 1.9016 3.8841 1.9016 3.8841l26.867 1.1032c0.0362-0.78624 0.07221-1.5725 0.07221-1.5725s-0.32701-1.4593-0.49858-3.4369c-0.17177-1.9774 1.7122-5.8301 4.8569-5.6856l2.6206 0.12041c4.5862 0.21072 5.6795 4.9879 5.6795 4.9879s4.3361-0.06336 8.2791-0.14481c3.943-0.08146 12.365-0.48225 17.231-0.65264 4.8662-0.17039 7.0645-0.33311 7.0645-0.33311s0.28293 0.39351 0.11077 1.4446l-4.8709 0.17629-0.06631 1.4414 1.3104 0.06021s1.0422 0.17924 0.63709 0.42302c-0.40512 0.24398-0.42302 0.63709-0.44132 1.0302-0.0181 0.39312-0.6912 0.75613-0.6912 0.75613l-1.1902 0.0913c-0.52416-0.0242-0.63218-0.43758-0.63218-0.43758l-2.1716-0.0051s0.10684 0.53006-0.54816 0.50015c-0.6552-0.0301-6.3816 0.4-6.9057 0.3758-0.52416-0.0242-0.17177-1.9774 0.35239-1.9534 0.52416 0.0242 2.1025-0.03463 2.1025-0.03463l0.04211-0.91727s0.27998-0.38112 0.17314-0.91117c0 0-7.3738 0.449-11.186 0.53655-3.8119 0.08736-4.342 0.19439-8.0109 0.02577-0.28018 0.38112 1.0528 2.8059 1.2728 3.735 0 0-0.05411 1.1794 0.58889 1.4715 4.5921 0.07969 8.8272-0.64477 15.004-0.75495 6.1763-0.11018 10.799-0.6855 10.799-0.6855-0.18062 3.931-1.1534 7.9566-8.2472 8.0247-7.142 0.06847-8.1693-5.1025-8.1693-5.1025s-4.3662 0.71855-7.1119 0.4612c-0.09031 1.9654-2.6654 6.5742-6.8585 6.3816l-3.6689-0.16862c-6.0274-0.27703-7.0427-6.7576-7.0427-6.7576l-2.0964-0.09641c-0.05411 1.1794-1.628 3.9957-3.9865 3.8873l-2.359-0.106c-3.276-0.152-4.167-3.607-4.167-3.607l-7.993-0.36734s-0.47752 0.03778-0.99716 0.073l-0.03542-0.60207z"/>
  <path id="path79755" d="m76.758 36.63c1.1794 0.05411 0.7036-1.3405 0.98378-1.7216 0.28018-0.38112-1.5603-0.08716-2.6086-0.13537-1.0483-0.0482-1.7938 1.8871-0.48343 1.9473 1.3104 0.06021 2.1082-0.09031 2.1082-0.09031z"/>
  <path id="path79757" d="m74.643 25.17c-0.53006 0.10684-0.54108 0.29513-0.29769 1.033 0.16941 0.51353 0.08519 0.80611 0.74039 0.83621s4.7204-0.19715 8.6572-0.14757c3.9369 0.04958 5.772-0.07339 6.2962-0.04919 0.52416 0.0242 0.3823-1.8704-0.14186-1.8944-0.52416-0.0242-3.0137-0.13852-6.6946-0.04506s-8.5596 0.267-8.5596 0.267z"/>
  <path id="path79759" d="m89.99 27.678c0.6552 0.0301 0.50763 1.7517-0.14757 1.7216s-14.349 0.40079-15.004 0.37069c-0.6552-0.0301-0.57689-1.7336-0.05293-1.7094 0.52435 0.0242 15.205-0.38289 15.205-0.38289z"/>
  <path id="path79761" d="m6.4021 20.726c1.5725 0.07221 5.7-0.14029 7.0163-0.21112s1.8826-0.9639 2.5919-2.1132c0.7093-1.1492 3.5345-5.4838 6.2877-8.246-2.7697 0.2666-8.8426 0.51038-10.174 1.3708-1.5249 0.98594-5.0777 6.6031-5.7222 9.1995z"/>
  <path id="path79763" d="m20.25 20.435 6.8317-0.08008c0.78623 0.0362 1.2093-0.60089 1.3946-1.7741 0.18534-1.1733 2.1476-6.7292 2.5826-7.6284 0.43522-0.89917-0.09484-0.79214-1.1431-0.84034 0 0-2.7636 0.13556-3.9489 0.2125-1.1853 0.07693-1.8706 0.70183-2.705 1.7139-0.83424 1.0121-3.3736 4.8347-3.6959 6.1329-0.32228 1.2984-0.36439 2.2155 0.68392 2.2637z"/>
  <path id="path79765" d="m35.312 9.8344s-1.3104-0.060207-2.0256 1.2201-2.2424 5.9371-2.5179 9.0757l15.48 0.31737s-3.672-5.8149-5.4147-10.753l-5.519 0.14009z"/>
  <path id="path79767" d="m42.013 9.7482s2.1238 5.2185 5.1648 10.479c6.5228-1.9325 14.665-1.9522 26.719-1.3983 0 0-6.2987-5.8043-9.7402-8.0632-0.369-0.542-0.881-0.8285-2.316-1.0256-1.435-0.1974-15.861-0.5976-19.827 0.0078z"/>
  <path id="path79769" d="m70.73 16.32 2.6613 2.0919s0.4065-3.1327-2.6613-2.0919z"/>
  <path id="path79771" d="m31.471 24.134c0.10861 0.0049 0.20069-0.0789 0.20561-0.18751l0.06788-1.4741c0.0049-0.10861-0.0791-0.20069-0.18751-0.20541l-1.769-0.08146c-0.10841-0.0049-0.20049 0.0789-0.20541 0.18751l-0.06768 1.4741c-0.0049 0.10861 0.0789 0.20069 0.18751 0.20561l1.7686 0.08126z"/>
  <path id="path79773" d="m19.912 24.182c0.1033 0.0016 0.1883-0.08087 0.18967-0.18416l0.02046-1.4017c0.0016-0.1031-0.08087-0.1881-0.18416-0.18967l-1.6821-0.02459c-0.1031-0.0014-0.1881 0.08106-0.18967 0.18416l-0.02046 1.4017c-0.0014 0.1033 0.08106 0.1883 0.18416 0.18967l1.6821 0.0246z"/>
  <path id="path79775" d="m12.015 36.042c-3.4256-0.453-6.4253-0.378-7.3363-5.36-0.2361-1.291 0.9431-1.237 0.9431-1.237l0.88442 0.04073s-0.59302-2.0952-0.45765-5.0434 0.30143-4.4177 1.9111-7.2982c1.6095-2.8805 3.0056-4.6875 4.1645-5.6189 1.1589-0.93164 1.7564-1.1115 4.1342-1.3857 7.3264-0.84506 17.23-2.0642 31.699-1.8918 14.469 0.17236 14.526 1.0615 15.576 1.7989 1.0493 0.73764 10.364 8.7814 10.364 8.7814s16.424 1.9036 18.245 5.1387c0.97374 0.24181 0.65598 0.88048 0.15996 0.95623 0 0 0.49425 2.3469 0.39941 4.4107 0.48697 0.12081 0.33527 0.87851-0.45096 0.84251 1.577-0.02597 2.1484 0.3941 2.0988 1.4753-0.04958 1.081-0.38958 2.0502-0.81437 2.7199-0.4248 0.66976-0.34452 1.0674-0.36715 1.5587-0.02263 0.4915-0.04506 0.98279-1.3273 1.0223-1.2823 0.03955-2.8016 0.44821-2.8016 0.44821" stroke="#000" stroke-width=".29513" fill="none"/>
  <path id="path79777" fill="#fff" d="m56.127 10.495 0.88442 0.04073s1.8174 1.1668 3.095 1.2256c1.2775 0.05883 1.9654 0.09031 1.9654 0.09031 0.4915 0.02263-0.07122-0.5942-0.07122-0.5942s5.1351 3.9782 7.2961 6.244c0 0-7.9782 0.02735-11.324-0.02794l-1.3466-4.9858 1.1794 0.05411c0.58968 0.02715 0.55013-1.2549-0.03955-1.2821l-1.4741-0.06768-0.16488-0.6971z"/>
  <path id="path79779" d="m57.685 17.313c0.44506-1.1121 3.5569-2.3971 5.0543 0.37994l-0.83542-0.03837c-0.583-1.259-2.908-1.021-3.288-0.25l-0.93065-0.09189z"/>
  <g stroke="#000" fill="none">
   <g stroke-width=".098378">
    <path id="path79781" d="m60.807 30.8c3.1402 0.2428 8.9565 0.11608 13.495-0.06926 4.5386-0.18534 15.147-0.54383 18.148-0.59302"/>
    <path id="path79783" d="m64.247 30.958c0.82795-3.0149 1.1689-6.1506 4.6265-6.3855 3.4576-0.23512 14.5-0.5155 14.5-0.5155l8.7688-0.08952"/>
    <path id="path79785" d="m68.176 24.738c-0.705-1.805-2.71-3.178-10.361-3.825-7.652-0.647-12.276-0.761-12.276-0.761"/>
    <path id="path79787" d="m47.975 37.891s0.14796-1.0764-0.32091-1.5904c-0.46867-0.51393-0.77148-2.4974-0.73095-3.3818 0.04053-0.88442-0.1151-1.7779 0.51058-2.537-0.13793-1.2866-0.60561-6.8229-0.25559-10.155"/>
    <path id="path79789" d="m75.702 32.815c0.10861 0.0037 0.20069-0.05745 0.20561-0.13674l0.0362-0.57315c0.0049-0.0791-0.0789-0.14619-0.18751-0.14973l-3.3502 0.03129c-0.10861-0.0037-0.20069 0.05745-0.20561 0.13674l-0.0362 0.57315c-0.0049 0.0791 0.0789 0.14619 0.18751 0.14993l3.3502-0.03148z"/>
    <path id="path79791" d="m93.447 31.89c0.10861-0.0016 0.19794-0.0608 0.1999-0.13202l0.01299-0.51688c0.0018-0.07142-0.0848-0.12789-0.19321-0.12632l-2.1655 0.13911c-0.10861 0.0016-0.19813 0.0608-0.1999 0.13202l-0.01299 0.51688c-0.0018 0.07142 0.0848 0.12789 0.19321 0.12632l2.1655-0.13911z"/>
   </g>
   <path id="path79793" d="m66.848 30.092c-0.79076 0.06217-1.2348-0.27054-0.81673-1.5146 0.68451-2.0366 0.80984-2.6218 2.7933-2.9246 1.9835-0.30281 4.0382-0.01141 4.0382-0.01141s0.69592 2.0016 0.39548 4.2529c-2.3766 0.2847-4.8423 0.36833-6.4103 0.19774z" stroke-width=".29513"/>
   <path id="path79795" d="m92.302 24.924h-1.5249s0.52258 2.7705 0.15091 4.4276l1.7734-0.01692" stroke-width=".29513"/>
   <path id="path79797" d="m66.588 18.559c8.6163 1.0853 16.017 2.9025 16.784 5.4983" stroke-width=".098378"/>
   <path id="path79799" d="m62.039 34.007c5.3067 0.24378 7.4822 0.0484 12.414-0.11884 4.9317-0.16724 19.544-0.97315 19.544-0.97315" stroke-width=".098378"/>
  </g>
  <ellipse id="ellipse79801" rx="5.2866" transform="rotate(92.626)" ry="5.0082" cy="-58.321" cx="36.138" fill="#fff"/>
  <g stroke="#000" stroke-width=".098373" fill="none">
   <ellipse id="ellipse79803" rx="4.7577" transform="rotate(92.626)" ry="4.5075" cy="-58.322" cx="36.139"/>
   <ellipse id="ellipse79805" rx="4.0441" transform="rotate(92.626)" ry="3.8312" cy="-58.322" cx="36.139"/>
   <ellipse id="ellipse79807" rx="2.0222" transform="rotate(92.626)" ry="1.9157" cy="-58.322" cx="36.139"/>
   <ellipse id="ellipse79809" rx=".66736" transform="rotate(92.626)" ry=".63215" cy="-58.296" cx="36.047"/>
  </g>
  <circle id="circle79811" cx="57.236" cy="35.658" r=".41732"/>
  <circle id="circle79813" cx="58.73" cy="36.457" r=".41732"/>
  <circle id="circle79815" cx="59.587" cy="37.761" r=".41732"/>
  <circle id="circle79817" cx="59.694" cy="39.316" r=".41732"/>
  <circle id="circle79819" cx="59.099" cy="40.799" r=".41732"/>
  <circle id="circle79821" cx="57.817" cy="41.594" r=".41732"/>
  <circle id="circle79823" cx="56.304" cy="41.655" r=".41732"/>
  <circle id="circle79825" cx="54.975" cy="41.012" r=".41732"/>
  <circle id="circle79827" cx="54.031" cy="39.648" r=".41732"/>
  <circle id="circle79829" cx="53.907" cy="38.066" r=".41732"/>
  <circle id="circle79831" cx="54.566" cy="36.587" r=".41732"/>
  <circle id="circle79833" cx="55.788" cy="35.723" r=".41732"/>
  <circle id="circle79835" cx="56.984" cy="37.368" r=".33803"/>
  <circle id="circle79837" cx="57.986" cy="38.645" r=".33803"/>
  <circle id="circle79839" cx="57.12" cy="39.989" r=".33803"/>
  <circle id="circle79841" cx="55.672" cy="39.668" r=".33803"/>
  <circle id="circle79843" cx="55.46" cy="38.057" r=".33803"/>
  <g fill="none">
   <g stroke="#000">
    <g stroke-width=".098378">
     <path id="path79845" d="m61.663 30.741c-1.117-2.809-3.553-4.102-5.519-4.193l-2.6208-0.12041c-3.3411-0.15347-5.1802 2.7164-5.482 5.0003"/>
     <path id="path79847" d="m63.497 30.826c-0.90075-3.2585-3.0763-5.9188-8.2519-6.1567-5.1756-0.23768-7.0025 2.3699-7.4865 5.7618l-26.596-0.565s-1.4584-4.6956-4.6031-4.84l-2.0638-0.09444c-2.7516-0.12651-4.2584 2.6599-4.6436 4.6117l-3.3458-0.05509"/>
     <path id="path79849" d="m33.537 9.1619c-1.3769 2.1033-3.1255 5.8637-3.9589 11.143-0.59518 2.2377-0.49012 6.3786 0.0488 9.6534-0.62116 0.6607-0.38525 1.9518-0.3276 2.8408 0.05765 0.88894 1.0845 2.1179 1.1467 2.9086"/>
     <path id="path79851" d="m47.652 36.302-25.666-0.786s-1.2765-2.2253-1.3342-3.1142c-0.38859-0.11628-0.44172-1.1036-0.44172-1.1036s0.04073-0.88442-0.50389-1.8942c-0.54442-1.0094-1.2584-2.6168-3.2057-3.1007-0.06217-0.79076 0.35337-1.264 0.35337-1.264-0.07005-2.7583 0.42676-5.0005 1.6254-7.506 1.1982-2.5053 3.7659-6.4827 5.6961-7.7726l9.3618-0.59558 8.0855-0.21938 1.0477 1.7987"/>
     <line id="line79853" x1="19.451" x2="48.764" y1="30.672" y2="31.428"/>
     <path id="path79855" d="m4.5984 30.285 5.5078 0.15465s0.18967-4.1275 4.0268-4.0496c3.8371 0.07791 4.8504 1.6016 5.6174 4.1974"/>
    </g>
    <path id="path79857" d="m9.6781 35.717c-0.6912 0.19794-1.1526 0.46218-1.8218 0.82303-0.50487 0.27231 0.048598 1.0855 0.54914 0.91157 0.50035-0.17393 1.1917-0.93006 3.5501-0.82165" stroke-width=".29513"/>
   </g>
   <path id="path79859" d="m24.833 11.004c-1.1723 1.9158-2.377 5.7244-2.9147 8.851" stroke="#fff" stroke-width=".098378"/>
   <path id="path79861" d="m25.488 10.762c-1.1713 1.9158-2.5403 5.989-3.0778 9.1157" stroke="#fff" stroke-width=".098378"/>
  </g>
  <g fill="#fff">
   <path id="path79863" d="m13.779 10.519c0.92967-0.94207 1.5463-1.5046 3.3287-1.7183 1.7826-0.21348 15.379-1.4983 17.643-1.5357 4.7306-0.078112 11.829-0.13143 16.823 0.49189 0.87989 0.13891 1.82 0.54108 1.82 0.54108s-5.7059-0.63946-17.265-0.59027c0.66976 0.42479 0.83621 0.68864 0.83621 0.68864l-1.4257 0.069455-0.66543-0.52298s-10.56 0.49956-16.998 1.2872l-0.34078 0.6914-1.033 0.14757 0.3821-0.68746c-0.88461-0.040728-1.2498 0.46001-1.661 0.83503-0.39764 0.08008-1.4442 0.30241-1.4442 0.30241z" stroke="#000" stroke-width=".29513"/>
   <ellipse id="ellipse79865" rx="4.4518" transform="rotate(92.626)" ry="2.6433" cy="-17.496" cx="36.928"/>
   <path id="path79867" d="m49.065 35.579c0.99381-4.4844 4.6265-6.3857 9.0262-5.691-4.4947-0.20659-7.6178 1.1711-9.0262 5.691z"/>
   <path id="path79869" d="m11.869 34.952c0.85156-5.6725 5.8464-7.215 7.751-1.515-2.232-5.1196-6.158-4.4073-7.751 1.515z"/>
  </g>
  <ellipse id="ellipse79871" rx=".41081" ry=".23472" transform="rotate(92.626)" cy="-17.371" cx="34.175"/>
  <ellipse id="ellipse79873" rx=".41081" ry=".23472" transform="rotate(92.626)" cy="-18.225" cx="34.208"/>
  <ellipse id="ellipse79875" rx=".41081" ry=".23472" transform="rotate(92.626)" cy="-18.971" cx="35.159"/>
  <ellipse id="ellipse79877" rx=".41080" ry=".23472" transform="rotate(92.626)" cy="-19.362" cx="36.341"/>
  <ellipse id="ellipse79879" rx=".41081" ry=".23472" transform="rotate(92.626)" cy="-19.365" cx="37.75"/>
  <ellipse id="ellipse79881" rx=".41081" ry=".23472" transform="rotate(92.626)" cy="-18.972" cx="38.93"/>
  <ellipse id="ellipse79883" rx=".41081" ry=".23472" transform="rotate(92.626)" cy="-18.185" cx="39.455"/>
  <ellipse id="ellipse79885" rx=".41081" ry=".23472" transform="rotate(92.638)" cy="-17.399" cx="39.286"/>
  <ellipse id="ellipse79887" rx=".41081" ry=".23472" transform="rotate(92.626)" cy="-16.742" cx="38.57"/>
  <ellipse id="ellipse79889" rx=".41080" ry=".23472" transform="rotate(92.626)" cy="-16.312" cx="37.325"/>
  <ellipse id="ellipse79891" rx=".41080" ry=".23472" transform="rotate(92.626)" cy="-16.344" cx="35.947"/>
  <ellipse id="ellipse79893" rx=".41080" ry=".23472" transform="rotate(92.626)" cy="-16.739" cx="34.799"/>
  <path id="path79895" d="m16.476 36.721c-0.12789-0.0059-0.22686-0.11432-0.22096-0.24221s0.11451-0.22686 0.24221-0.22115l0.12297 0.0057c0.12789 0.0059 0.22686 0.11451 0.22096 0.24221-0.0059 0.12789-0.11432 0.22686-0.24221 0.22096l-0.12297-0.0055z"/>
  <path id="path79897" d="m16.85 38.072c-0.12789-0.0059-0.22686-0.11451-0.22096-0.24221 0.0059-0.12789 0.11432-0.22686 0.24221-0.22096l0.12297 0.0055c0.12789 0.0059 0.22686 0.11432 0.22096 0.24221s-0.11432 0.22686-0.24221 0.22096l-0.12297-0.0059z"/>
  <path id="path79899" d="m16.334 39.133c-0.12789-0.0059-0.22686-0.11432-0.22115-0.24221 0.0059-0.12789 0.11451-0.22686 0.24221-0.22096l0.12297 0.0055c0.12789 0.0059 0.22686 0.11431 0.22096 0.2422s-0.11432 0.22686-0.24221 0.22096l-0.12278-0.0055z"/>
  <path id="path79901" d="m15.494 38.45c-0.12789-0.0059-0.22686-0.11431-0.22096-0.2422s0.11432-0.22686 0.24221-0.22096l0.12278 0.0057c0.12789 0.0059 0.22686 0.11432 0.22096 0.24221s-0.11432 0.22686-0.24221 0.22096l-0.12278-0.0057z"/>
  <path id="path79903" d="m15.571 37.093c-0.12789-0.0059-0.22686-0.11451-0.22115-0.24221 0.0059-0.12789 0.11451-0.22686 0.24221-0.22096l0.12297 0.0055c0.12789 0.0059 0.22686 0.11432 0.22096 0.24221s-0.11432 0.22686-0.24221 0.22096l-0.12278-0.0055z"/>
  <path id="path79905" d="m16.077 36.957h0.26208c0.2363 0.01082 0.4122 0.36006 0.39292 0.78014-0.01928 0.41988-0.22646 0.75161-0.46277 0.74078h-0.26208" stroke="#000" stroke-width=".098378" fill="#fff"/>
  <g stroke="#000" fill="none">
   <ellipse id="ellipse79907" rx="4.2293" transform="rotate(92.626)" ry="2.3791" cy="-17.496" cx="36.928" stroke-width=".098373"/>
   <ellipse id="ellipse79909" rx="1.9031" transform="rotate(92.626)" ry="1.0705" cy="-17.867" cx="36.928" stroke-width=".098373"/>
   <path id="path79911" d="m16.352 35.825c-0.54068 0.07831-0.99499 0.86612-1.04 1.8464-0.04565 0.9942 0.34629 1.83 0.88953 1.9388" stroke-width=".098378"/>
   <path id="path79913" d="m17.078 34.037c-1.1012-0.44506-2.7371 0.69691-2.8516 3.1906-0.11353 2.4693 0.80926 4.9122 2.7961 3.9351" stroke-width=".098378"/>
  </g>
  <ellipse id="ellipse79915" rx=".76121" transform="rotate(92.626)" stroke="#000" ry=".42812" cy="-17.758" cx="36.927" stroke-width=".098373" fill="#fff"/>
  <path id="path79917" fill="#fff" d="m37.948 39.597 0.4915 0.02263s0.36144 0.70596 1.3442 0.75121c0.98279 0.04525 1.5191-0.91491 1.5191-0.91491l0.39312 0.0181s-0.45628 1.3576-1.8322 1.2945c-1.3773-0.06296-1.9164-1.1707-1.9164-1.1707z"/>
  <path id="path79919" stroke-width=".098378" stroke="#fff" d="m44.61 18.928c0.6552 0.0301 0.85707 1.3525-0.06021 1.3104 0 0-2.8827-0.13242-4.9732-0.35987s-2.8669-0.35082-2.1012-2.8539c0.38623-1.2626 2.6808-1.1898 3.592-1.0166 0.91117 0.17314 1.0182 0.7034 1.333 2.4248l2.2096 0.49523z"/>
  <path id="path79921" d="m68.396 25.711c0.19676 1.0822 0.19676 2.7546 0 4.427" stroke="#000" stroke-width=".19676" fill="none"/>
  <path id="path79923" d="m49.047 18.836c-1.09 0.14698-1.5363-0.85844-1.5363-0.85844l-3.4235-6.9524c2.5911-0.66877 16.568-0.51884 18.712-0.02656 1.9203 1.0731 8.149 6.9726 8.149 6.9726-7.965-0.268-16.823-0.38-21.903 0.864z" stroke="#fff" stroke-width=".098378" fill="none"/>
 </g>
</svg>
