<?xml version="1.0" encoding="UTF-8" standalone="no"?>
<!-- Created with Inkscape (http://www.inkscape.org/) -->
<svg id="svg2" xmlns:rdf="http://www.w3.org/1999/02/22-rdf-syntax-ns#" xmlns="http://www.w3.org/2000/svg" height="54" width="99" version="1.1" xmlns:cc="http://creativecommons.org/ns#" xmlns:dc="http://purl.org/dc/elements/1.1/">
 <metadata id="metadata7">
  <rdf:RDF>
   <cc:Work rdf:about="">
    <dc:format>image/svg+xml</dc:format>
    <dc:type rdf:resource="http://purl.org/dc/dcmitype/StillImage"/>
    <dc:title/>
   </cc:Work>
  </rdf:RDF>
 </metadata>
 <g id="g3491">
  <g id="g3871">
   <g id="g4614">
    <g id="g5219">
     <g id="g5689">
      <g id="g6406">
       <g id="g7263">
        <g id="g8053">
         <g id="g8717">
          <g id="g9406">
           <g id="g9898">
            <g id="g10207">
             <rect id="rect2990" opacity="0" height="54" width="99" y="0" x="0"/>
             <g id="layer1" transform="translate(240.5888,-29.405607)">
              <g id="logo12" transform="matrix(0.19675537,0,0,0.19675537,-236.08893,36.477182)">
               <path id="path79751" d="m26.318,145.59c-3.513,1.006-5.858,2.349-9.259,4.183-2.566,1.384,0.247,5.517,2.791,4.633,2.447-0.851,5.791-4.439,16.713-4.22l0.301-0.036c-0.472,18.131,5.098,40.81,22.812,41.624l18.677,0.191c9.323,0.428,14.505-10.679,17.842-25.208,5.502,0.253,13.73-0.177,18.998-0.525l-0.193-3.054-17.395-1.695,0.184-3.996,5.494,0.252-7.945,2.604,0.788,1.511,9.585-2.503s3.996,0.184,3.134-2.859c4.995,0.229,8.192,6.883,8.192,6.883l-2.037-0.197,0.193,3.054c2.641-0.179,5.068-0.371,5.068-0.371l40.624,1.867s4.532,17.56,21.181,18.324l11.987,0.551c11.987,0.551,19.986-13.763,20.261-19.757l10.655,0.49s5.16,32.938,35.794,34.345l18.647,0.857c21.311,0.979,34.399-22.444,34.858-32.434,13.955,1.308,36.146-2.344,36.146-2.344s5.22,26.281,41.52,25.933c35.919-0.344,40.96-20.655,41.905-40.563l0.328-0.012c2.768-0.555,6.412-1.147,9.741-1.25,6.516-0.201,6.631-2.698,6.746-5.196,0.115-2.497-0.293-4.518,1.866-7.922,2.158-3.404,3.886-8.331,4.139-13.824,0.252-5.494-2.652-7.63-10.667-7.498,3.996,0.184,4.767-3.667,2.292-4.282,0.482-10.489-2.03-22.417-2.03-22.417,2.521-0.385,4.135-3.631-0.813-4.86-9.255-16.442-92.731-26.117-92.731-26.117s-47.339-40.882-52.673-44.631c-5.35-3.739-5.64-8.257-79.18-9.133-73.53-0.876-123.87,5.321-161.11,9.616-12.085,1.394-15.122,2.308-21.012,7.043-5.89,4.734-12.986,13.918-21.166,28.558s-9.024,22.109-9.712,37.093,2.326,25.633,2.326,25.633l-4.495-0.207s-5.994-0.275-4.793,6.287c3.474,18.997,12.924,23.526,24.782,25.576l0.626,0.013z" fill="#FFF"/>
               <path id="path79753" d="m115,163.18,2.038,0.199s-3.198-6.654-8.192-6.883c0.861,3.042-3.134,2.859-3.134,2.859l-9.585,2.503-0.788-1.511,7.945-2.604-5.494-0.252-0.184,3.996,17.394,1.693,0.193,3.054c-5.268,0.348-13.496,0.778-18.998,0.525-3.337,14.529-8.519,25.636-17.842,25.208l-18.684-0.19c-19.146-0.88-24.105-27.3-22.583-45.92-0.421-5.36-5.695-6.77-6.538-17.48l-27.554-1.35s-1.333-2.21-1.503-5.328l27.97,1.285c-0.873-10.05,7.034-22.367,18.386-22.513l8.657,0.398c19.979,0.918,21.633,23.017,21.633,23.017l148.69,2.828-0.245,5.328-147.26-2.706c1.213,11.321,9.665,19.741,9.665,19.741l136.55,5.607c0.184-3.996,0.367-7.992,0.367-7.992s-1.662-7.417-2.534-17.468c-0.873-10.05,8.702-29.631,24.685-28.897l13.319,0.612c23.309,1.071,28.866,25.351,28.866,25.351s22.038-0.322,42.078-0.736,62.845-2.451,87.577-3.317,35.905-1.693,35.905-1.693,1.438,2,0.563,7.342l-24.756,0.896-0.337,7.326,6.66,0.306s5.297,0.911,3.238,2.15c-2.059,1.24-2.15,3.238-2.243,5.236-0.092,1.998-3.513,3.843-3.513,3.843l-6.049,0.464c-2.664-0.123-3.213-2.224-3.213-2.224l-11.037-0.026s0.543,2.694-2.786,2.542c-3.33-0.153-32.434,2.033-35.098,1.91s-0.873-10.05,1.791-9.928c2.664,0.123,10.686-0.176,10.686-0.176l0.214-4.662s1.423-1.937,0.88-4.631c0,0-37.477,2.282-56.851,2.727-19.374,0.444-22.068,0.988-40.715,0.131-1.424,1.937,5.351,14.261,6.469,18.983,0,0-0.275,5.994,2.993,7.479,23.339,0.405,44.864-3.277,76.255-3.837s54.884-3.484,54.884-3.484c-0.918,19.979-5.862,40.439-41.916,40.785-36.299,0.348-41.52-25.933-41.52-25.933s-22.191,3.652-36.146,2.344c-0.459,9.989-13.547,33.413-34.858,32.434l-18.647-0.857c-30.634-1.408-35.794-34.345-35.794-34.345l-10.655-0.49c-0.275,5.994-8.274,20.308-20.261,19.757l-11.987-0.551c-16.65-0.77-21.18-18.33-21.18-18.33l-40.624-1.867s-2.427,0.192-5.068,0.371l-0.18-3.06z"/>
               <path id="path79755" d="m367.25,150.23c5.994,0.275,3.576-6.813,5-8.75s-7.93-0.443-13.258-0.688-9.117,9.591-2.457,9.897,10.715-0.459,10.715-0.459z"/>
               <path id="path79757" d="m356.5,91.984c-2.694,0.543-2.75,1.5-1.513,5.25,0.861,2.61,0.433,4.097,3.763,4.25s23.991-1.002,44-0.75,29.336-0.373,32-0.25,1.943-9.506-0.721-9.628c-2.664-0.123-15.317-0.704-34.025-0.229s-43.504,1.357-43.504,1.357z"/>
               <path id="path79759" d="m434.5,104.73c3.33,0.153,2.58,8.903-0.75,8.75s-72.929,2.037-76.259,1.884-2.932-8.811-0.269-8.688c2.665,0.123,77.278-1.946,77.278-1.946z"/>
               <path id="path79761" d="m9.668,69.396c7.992,0.367,28.97-0.713,35.66-1.073s9.568-4.899,13.173-10.74,17.964-27.871,31.957-41.91c-14.077,1.355-44.942,2.594-51.707,6.967-7.75,5.011-25.807,33.56-29.083,46.756z"/>
               <path id="path79763" d="m80.049,67.917,34.722-0.407c3.996,0.184,6.146-3.054,7.088-9.017s10.915-34.201,13.126-38.771c2.212-4.57-0.482-4.026-5.81-4.271,0,0-14.046,0.689-20.07,1.08s-9.507,3.567-13.748,8.711c-4.24,5.144-17.146,24.572-18.784,31.17-1.638,6.599-1.852,11.26,3.476,11.505z"/>
               <path id="path79765" d="m156.6,14.042s-6.66-0.306-10.295,6.201-11.397,30.175-12.797,46.127l78.674,1.613s-18.663-29.554-27.52-54.653l-28.05,0.712z"/>
               <path id="path79767" d="m190.66,13.604s10.794,26.523,26.25,53.26c33.152-9.822,74.533-9.922,135.8-7.107,0,0-32.013-29.5-49.504-40.981-1.875-2.756-4.478-4.21-11.773-5.212-7.295-1.003-80.611-3.037-100.77,0.04z"/>
               <path id="path79769" d="m336.61,47.005,13.526,10.632s2.066-15.922-13.526-10.632z"/>
               <path id="path79771" d="m137.08,86.721c0.552,0.025,1.02-0.401,1.045-0.953l0.345-7.492c0.025-0.552-0.402-1.02-0.953-1.044l-8.991-0.414c-0.551-0.025-1.019,0.401-1.044,0.953l-0.344,7.492c-0.025,0.552,0.401,1.02,0.953,1.045l8.989,0.413z"/>
               <path id="path79773" d="m78.331,86.965c0.525,0.008,0.957-0.411,0.964-0.936l0.104-7.124c0.008-0.524-0.411-0.956-0.936-0.964l-8.549-0.125c-0.524-0.007-0.956,0.412-0.964,0.936l-0.104,7.124c-0.007,0.525,0.412,0.957,0.936,0.964l8.549,0.125z"/>
               <path id="path79775" d="M38.197,147.24c-17.412-2.3-32.658-1.92-37.288-27.24-1.2-6.562,4.793-6.287,4.793-6.287l4.495,0.207s-3.014-10.649-2.326-25.633,1.532-22.453,9.713-37.093c8.18-14.64,15.276-23.824,21.166-28.558,5.89-4.735,8.927-5.649,21.012-7.043,37.236-4.295,87.573-10.491,161.11-9.615,73.536,0.876,73.829,5.395,79.163,9.143,5.333,3.749,52.673,44.631,52.673,44.631s83.476,9.675,92.731,26.117c4.949,1.229,3.334,4.475,0.813,4.86,0,0,2.512,11.928,2.03,22.417,2.475,0.614,1.704,4.465-2.292,4.282,8.015-0.132,10.919,2.003,10.667,7.498-0.252,5.494-1.98,10.42-4.139,13.824s-1.751,5.425-1.866,7.922c-0.115,2.498-0.229,4.995-6.746,5.196s-14.239,2.278-14.239,2.278" stroke="#000" stroke-width="1.5" fill="none"/>
               <path id="path79777" d="m262.39,17.401,4.495,0.207s9.237,5.93,15.73,6.229,9.989,0.459,9.989,0.459c2.498,0.115-0.362-3.02-0.362-3.02s26.099,20.219,37.082,31.735c0,0-40.549,0.139-57.553-0.142l-6.844-25.34,5.994,0.275c2.997,0.138,2.796-6.378-0.201-6.516l-7.492-0.344-0.838-3.543z" fill="#FFF"/>
               <path id="path79779" d="m270.31,52.05c2.262-5.652,18.078-12.183,25.688,1.931l-4.246-0.195c-2.959-6.393-14.777-5.184-16.709-1.269l-4.73-0.467z"/>
               <path id="path79781" d="m286.18,120.6c15.96,1.234,45.521,0.59,68.587-0.352,23.067-0.942,76.986-2.764,92.236-3.014" stroke="#000" stroke-width="0.5" fill="none"/>
               <path id="path79783" d="m303.66,121.4c4.208-15.323,5.941-31.26,23.514-32.454,17.573-1.195,73.697-2.62,73.697-2.62l44.567-0.455" stroke="#000" stroke-width="0.5" fill="none"/>
               <path id="path79785" d="M323.63,89.787c-3.58-9.174-13.77-16.149-52.66-19.437-38.89-3.289-62.39-3.868-62.39-3.868" stroke="#000" stroke-width="0.5" fill="none"/>
               <path id="path79787" d="m220.96,156.64s0.752-5.471-1.631-8.083c-2.382-2.612-3.921-12.693-3.715-17.188s-0.585-9.036,2.595-12.894c-0.701-6.539-3.078-34.677-1.299-51.613" stroke="#000" stroke-width="0.5" fill="none"/>
               <path id="path79789" d="m361.88,130.84c0.552,0.019,1.02-0.292,1.045-0.695l0.184-2.913c0.025-0.402-0.401-0.743-0.953-0.761l-17.027,0.159c-0.552-0.019-1.02,0.292-1.045,0.695l-0.184,2.913c-0.025,0.402,0.401,0.743,0.953,0.762l17.027-0.16z" stroke="#000" stroke-width="0.5" fill="none"/>
               <path id="path79791" d="m452.07,126.14c0.552-0.008,1.006-0.309,1.016-0.671l0.066-2.627c0.009-0.363-0.431-0.65-0.982-0.642l-11.006,0.707c-0.552,0.008-1.007,0.309-1.016,0.671l-0.066,2.627c-0.009,0.363,0.431,0.65,0.982,0.642l11.006-0.707z" stroke="#000" stroke-width="0.5" fill="none"/>
               <path id="path79793" d="m316.88,117c-4.019,0.316-6.276-1.375-4.151-7.698,3.479-10.351,4.116-13.325,14.197-14.864s20.524-0.058,20.524-0.058,3.537,10.173,2.01,21.615c-12.079,1.447-24.611,1.872-32.58,1.005z" stroke="#000" stroke-width="1.5" fill="none"/>
               <path id="path79795" d="m446.25,90.734h-7.75s2.656,14.081,0.767,22.503l9.013-0.086" stroke="#000" stroke-width="1.5" fill="none"/>
               <path id="path79797" d="m315.56,58.384c43.792,5.516,81.408,14.752,85.306,27.945" stroke="#000" stroke-width="0.5" fill="none"/>
               <path id="path79799" d="m292.44,136.9c26.971,1.239,38.028,0.246,63.093-0.604s99.33-4.946,99.33-4.946" stroke="#000" stroke-width="0.5" fill="none"/>
               <ellipse id="ellipse79801" d="m 291.66001,161.16 c 0,14.05841 -12.03011,25.455 -26.87,25.455 -14.83989,0 -26.87,-11.39659 -26.87,-25.455 0,-14.0584 12.03011,-25.455 26.87,-25.455 14.83989,0 26.87,11.3966 26.87,25.455 z" cx="264.79" cy="161.16" rx="26.87" ry="25.455" transform="matrix(-0.0459,0.9989,-0.9989,-0.0459,437.9373,-95.958)" fill="#FFF"/>
               <ellipse id="ellipse79803" d="m 288.97201,161.16 c 0,12.65285 -10.82665,22.91 -24.182,22.91 -13.35535,0 -24.182,-10.25715 -24.182,-22.91 0,-12.65284 10.82665,-22.91 24.182,-22.91 13.35535,0 24.182,10.25716 24.182,22.91 z" cx="264.79" cy="161.16" rx="24.182" ry="22.91" transform="matrix(-0.0459,0.9989,-0.9989,-0.0459,437.9404,-95.9557)" stroke="#000" stroke-width="0.5" fill="none"/>
               <ellipse id="ellipse79805" d="m 285.34501,161.16 c 0,10.75464 -9.20279,19.473 -20.555,19.473 -11.35221,0 -20.555,-8.71836 -20.555,-19.473 0,-10.75464 9.20279,-19.473 20.555,-19.473 11.35221,0 20.555,8.71836 20.555,19.473 z" cx="264.79" cy="161.16" rx="20.555" ry="19.473" transform="matrix(-0.0459,0.9989,-0.9989,-0.0459,437.9402,-95.956)" stroke="#000" stroke-width="0.5" fill="none"/>
               <ellipse id="ellipse79807" d="m 275.06801,161.16 c 0,5.3776 -4.60162,9.737 -10.278,9.737 -5.67638,0 -10.278,-4.3594 -10.278,-9.737 0,-5.37759 4.60162,-9.737 10.278,-9.737 5.67638,0 10.278,4.35941 10.278,9.737 z" cx="264.79" cy="161.16" rx="10.278" ry="9.737" transform="matrix(-0.0459,0.9989,-0.9989,-0.0459,437.9435,-95.9537)" stroke="#000" stroke-width="0.5" fill="none"/>
               <ellipse id="ellipse79809" d="m 268.07199,160.67999 c 0,1.77449 -1.51865,3.213 -3.392,3.213 -1.87335,0 -3.392,-1.43851 -3.392,-3.213 0,-1.77449 1.51865,-3.213 3.392,-3.213 1.87335,0 3.392,1.43851 3.392,3.213 z" cx="264.68" cy="160.68" rx="3.392" ry="3.213" transform="matrix(-0.0459,0.9989,-0.9989,-0.0459,437.3447,-96.3398)" stroke="#000" stroke-width="0.5" fill="none"/>
               <circle id="circle79811" d="m 270.151,145.28999 c 0,1.1714 -0.94961,2.121 -2.121,2.121 -1.1714,0 -2.121,-0.9496 -2.121,-2.121 0,-1.17139 0.9496,-2.121 2.121,-2.121 1.17139,0 2.121,0.94961 2.121,2.121 z" cx="268.03" cy="145.29" r="2.121"/>
               <circle id="circle79813" d="m 277.741,149.35001 c 0,1.17139 -0.94961,2.121 -2.121,2.121 -1.1714,0 -2.121,-0.94961 -2.121,-2.121 0,-1.1714 0.9496,-2.121 2.121,-2.121 1.17139,0 2.121,0.9496 2.121,2.121 z" cx="275.62" cy="149.35" r="2.121"/>
               <circle id="circle79815" d="m 282.10101,155.98 c 0,1.17139 -0.9496,2.121 -2.121,2.121 -1.17139,0 -2.121,-0.94961 -2.121,-2.121 0,-1.1714 0.94961,-2.121 2.121,-2.121 1.1714,0 2.121,0.9496 2.121,2.121 z" cx="279.98" cy="155.98" r="2.121"/>
               <circle id="circle79817" d="m 282.64099,163.88 c 0,1.1714 -0.94961,2.121 -2.121,2.121 -1.1714,0 -2.121,-0.9496 -2.121,-2.121 0,-1.17139 0.9496,-2.121 2.121,-2.121 1.17139,0 2.121,0.94961 2.121,2.121 z" cx="280.52" cy="163.88" r="2.121"/>
               <circle id="circle79819" d="m 279.621,171.42 c 0,1.17139 -0.9496,2.121 -2.121,2.121 -1.1714,0 -2.121,-0.94961 -2.121,-2.121 0,-1.1714 0.9496,-2.121 2.121,-2.121 1.1714,0 2.121,0.9496 2.121,2.121 z" cx="277.5" cy="171.42" r="2.121"/>
               <circle id="circle79821" d="m 273.10101,175.46001 c 0,1.17139 -0.9496,2.121 -2.121,2.121 -1.17139,0 -2.121,-0.94961 -2.121,-2.121 0,-1.1714 0.94961,-2.121 2.121,-2.121 1.1714,0 2.121,0.9496 2.121,2.121 z" cx="270.98" cy="175.46" r="2.121"/>
               <circle id="circle79823" d="m 265.41101,175.77 c 0,1.1714 -0.94961,2.121 -2.121,2.121 -1.1714,0 -2.121,-0.9496 -2.121,-2.121 0,-1.17139 0.9496,-2.121 2.121,-2.121 1.17139,0 2.121,0.94961 2.121,2.121 z" cx="263.29" cy="175.77" r="2.121"/>
               <circle id="circle79825" d="m 258.66101,172.5 c 0,1.1714 -0.94961,2.121 -2.121,2.121 -1.1714,0 -2.121,-0.9496 -2.121,-2.121 0,-1.1714 0.9496,-2.121 2.121,-2.121 1.17139,0 2.121,0.9496 2.121,2.121 z" cx="256.54" cy="172.5" r="2.121"/>
               <circle id="circle79827" d="m 253.86101,165.57001 c 0,1.17139 -0.94961,2.121 -2.121,2.121 -1.1714,0 -2.121,-0.94961 -2.121,-2.121 0,-1.1714 0.9496,-2.121 2.121,-2.121 1.17139,0 2.121,0.9496 2.121,2.121 z" cx="251.74" cy="165.57" r="2.121"/>
               <circle id="circle79829" d="m 253.231,157.53 c 0,1.17139 -0.9496,2.121 -2.121,2.121 -1.1714,0 -2.121,-0.94961 -2.121,-2.121 0,-1.1714 0.9496,-2.121 2.121,-2.121 1.1714,0 2.121,0.9496 2.121,2.121 z" cx="251.11" cy="157.53" r="2.121"/>
               <circle id="circle79831" d="m 256.58101,150.00999 c 0,1.1714 -0.94961,2.121 -2.121,2.121 -1.1714,0 -2.121,-0.9496 -2.121,-2.121 0,-1.17139 0.9496,-2.121 2.121,-2.121 1.17139,0 2.121,0.94961 2.121,2.121 z" cx="254.46" cy="150.01" r="2.121"/>
               <circle id="circle79833" d="m 262.79101,145.62 c 0,1.17139 -0.9496,2.121 -2.121,2.121 -1.17139,0 -2.121,-0.94961 -2.121,-2.121 0,-1.1714 0.94961,-2.121 2.121,-2.121 1.1714,0 2.121,0.9496 2.121,2.121 z" cx="260.67" cy="145.62" r="2.121"/>
               <circle id="circle79835" d="m 268.468,153.98 c 0,0.94882 -0.76917,1.718 -1.718,1.718 -0.94883,0 -1.718,-0.76918 -1.718,-1.718 0,-0.94883 0.76917,-1.718 1.718,-1.718 0.94883,0 1.718,0.76917 1.718,1.718 z" cx="266.75" cy="153.98" r="1.718"/>
               <circle id="circle79837" d="m 273.558,160.47 c 0,0.94883 -0.76918,1.718 -1.718,1.718 -0.94883,0 -1.718,-0.76917 -1.718,-1.718 0,-0.94882 0.76917,-1.718 1.718,-1.718 0.94882,0 1.718,0.76918 1.718,1.718 z" cx="271.84" cy="160.47" r="1.718"/>
               <circle id="circle79839" d="m 269.158,167.3 c 0,0.94883 -0.76917,1.718 -1.718,1.718 -0.94882,0 -1.718,-0.76917 -1.718,-1.718 0,-0.94882 0.76918,-1.718 1.718,-1.718 0.94883,0 1.718,0.76918 1.718,1.718 z" cx="267.44" cy="167.3" r="1.718"/>
               <circle id="circle79841" d="m 261.79799,165.67 c 0,0.94882 -0.76918,1.718 -1.718,1.718 -0.94883,0 -1.718,-0.76918 -1.718,-1.718 0,-0.94883 0.76917,-1.718 1.718,-1.718 0.94882,0 1.718,0.76917 1.718,1.718 z" cx="260.08" cy="165.67" r="1.718"/>
               <circle id="circle79843" d="m 260.718,157.48 c 0,0.94882 -0.76917,1.718 -1.718,1.718 -0.94883,0 -1.718,-0.76918 -1.718,-1.718 0,-0.94883 0.76917,-1.718 1.718,-1.718 0.94883,0 1.718,0.76917 1.718,1.718 z" cx="259" cy="157.48" r="1.718"/>
               <path id="path79845" d="M290.53,120.3c-5.68-14.28-18.06-20.851-28.05-21.31l-13.32-0.612c-16.981-0.78-26.328,13.806-27.862,25.414" stroke="#000" stroke-width="0.5" fill="none"/>
               <path id="path79847" d="m299.85,120.73c-4.578-16.561-15.635-30.082-41.94-31.291-26.305-1.208-35.59,12.045-38.05,29.284l-135.17-2.87s-7.412-23.865-23.395-24.599l-10.489-0.48c-13.985-0.643-21.643,13.519-23.601,23.439l-17.005-0.28" stroke="#000" stroke-width="0.5" fill="none"/>
               <path id="path79849" d="m147.58,10.624c-6.998,10.69-15.885,29.802-20.121,56.635-3.025,11.373-2.491,32.419,0.248,49.063-3.157,3.358-1.958,9.92-1.665,14.438s5.512,10.764,5.828,14.783" stroke="#000" stroke-width="0.5" fill="none"/>
               <path id="path79851" d="M219.32,148.56,88.873,144.57s-6.488-11.31-6.781-15.828c-1.975-0.591-2.245-5.609-2.245-5.609s0.207-4.495-2.561-9.627c-2.767-5.13-6.396-13.3-16.293-15.759-0.316-4.019,1.796-6.424,1.796-6.424-0.356-14.019,2.169-25.415,8.261-38.149,6.09-12.733,19.14-32.948,28.95-39.504l47.581-3.027,41.094-1.115,5.325,9.142" stroke="#000" stroke-width="0.5" fill="none"/>
               <line id="line79853" stroke-width="0.5" x1="75.99" x2="224.97" stroke="#000" y1="119.95" y2="123.79" fill="none"/>
               <path id="path79855" d="m0.501,117.98,27.993,0.786s0.964-20.978,20.466-20.582,24.652,8.14,28.55,21.333" stroke="#000" stroke-width="0.5" fill="none"/>
               <path id="path79857" d="m26.318,145.59c-3.513,1.006-5.858,2.349-9.259,4.183-2.566,1.384,0.247,5.517,2.791,4.633,2.543-0.884,6.057-4.727,18.043-4.176" stroke="#000" stroke-width="1.5" fill="none"/>
               <path id="path79859" d="M103.34,19.984c-5.958,9.737-12.081,29.094-14.814,44.985" stroke="#FFF" stroke-width="0.5" fill="none"/>
               <path id="path79861" d="m106.67,18.754c-5.953,9.737-12.911,30.439-15.643,46.33" stroke="#FFF" stroke-width="0.5" fill="none"/>
               <path id="path79863" d="m47.161,17.522c4.725-4.788,7.859-7.647,16.918-8.733,9.06-1.085,78.163-7.615,89.672-7.805,24.043-0.397,60.119-0.668,85.5,2.5,4.472,0.706,9.25,2.75,9.25,2.75s-29-3.25-87.75-3c3.404,2.159,4.25,3.5,4.25,3.5l-7.246,0.353-3.382-2.658s-53.672,2.539-86.39,6.542l-1.732,3.514-5.25,0.75,1.942-3.494c-4.496-0.207-6.352,2.338-8.442,4.244-2.021,0.407-7.34,1.537-7.34,1.537z" stroke="#000" stroke-width="1.5" fill="#FFF"/>
               <ellipse id="ellipse79865" d="m 79.959002,155.63 c 0,7.41995 -10.130454,13.43501 -22.627001,13.43501 -12.496548,0 -22.627001,-6.01506 -22.627001,-13.43501 0,-7.41994 10.130453,-13.435 22.627001,-13.435 12.496547,0 22.627001,6.01506 22.627001,13.435 z" cx="57.332" cy="155.63" rx="22.627" ry="13.435" transform="matrix(-0.0459,0.9989,-0.9989,-0.0459,215.4319,105.5037)" fill="#FFF"/>
               <path id="path79867" d="m226.5,144.89c5.051-22.792,23.514-32.455,45.875-28.924-22.844-1.05-38.717,5.952-45.875,28.924z" fill="#FFF"/>
               <path id="path79869" d="M37.451,141.7c4.328-28.83,29.714-36.67,39.394-7.7-11.344-26.02-31.298-22.4-39.394,7.7z" fill="#FFF"/>
               <ellipse id="ellipse79871" d="m 59.430999,141.62 c 0,0.65887 -0.93483,1.193 -2.088,1.193 -1.153171,0 -2.088001,-0.53413 -2.088001,-1.193 0,-0.65888 0.93483,-1.193 2.088001,-1.193 1.15317,0 2.088,0.53412 2.088,1.193 z" cx="57.343" cy="141.62" rx="2.088" transform="matrix(-0.0459,0.9989,-0.9989,-0.0459,201.4462,90.8431)" ry="1.193"/>
               <ellipse id="ellipse79873" d="m 63.755999,141.98 c 0,0.65887 -0.934829,1.193 -2.088,1.193 -1.15317,0 -2.088,-0.53413 -2.088,-1.193 0,-0.65888 0.93483,-1.193 2.088,-1.193 1.153171,0 2.088,0.53412 2.088,1.193 z" cx="61.668" cy="141.98" rx="2.088" transform="matrix(-0.0459,0.9989,-0.9989,-0.0459,206.3359,86.9055)" ry="1.193"/>
               <ellipse id="ellipse79875" d="m 67.325,146.99001 c 0,0.65887 -0.93483,1.193 -2.088,1.193 -1.153171,0 -2.088001,-0.53413 -2.088001,-1.193 0,-0.65888 0.93483,-1.193 2.088001,-1.193 1.15317,0 2.088,0.53412 2.088,1.193 z" cx="65.237" cy="146.99" rx="2.088" transform="matrix(-0.0459,0.9989,-0.9989,-0.0459,215.0655,88.5712)" ry="1.193"/>
               <ellipse id="ellipse79877" d="m 69.047999,153.07001 c 0,0.65887 -0.934829,1.193 -2.088,1.193 -1.153171,0 -2.088,-0.53413 -2.088,-1.193 0,-0.65888 0.934829,-1.193 2.088,-1.193 1.153171,0 2.088,0.53412 2.088,1.193 z" cx="66.96" cy="153.07" rx="2.088" transform="matrix(-0.0458,0.9989,-0.9989,-0.0458,222.9391,93.1975)" ry="1.193"/>
               <ellipse id="ellipse79879" d="m 68.718997,160.23 c 0,0.65887 -0.93483,1.193 -2.088,1.193 -1.153171,0 -2.088,-0.53413 -2.088,-1.193 0,-0.65888 0.934829,-1.193 2.088,-1.193 1.15317,0 2.088,0.53412 2.088,1.193 z" cx="66.631" cy="160.23" rx="2.088" transform="matrix(-0.0459,0.9989,-0.9989,-0.0459,229.7537,101.0323)" ry="1.193"/>
               <ellipse id="ellipse79881" d="m 66.445002,166.13 c 0,0.65888 -0.934829,1.193 -2.088,1.193 -1.15317,0 -2.088,-0.53412 -2.088,-1.193 0,-0.65887 0.93483,-1.193 2.088,-1.193 1.153171,0 2.088,0.53413 2.088,1.193 z" cx="64.357" cy="166.13" rx="2.088" transform="matrix(-0.0459,0.9989,-0.9989,-0.0459,233.2714,109.4764)" ry="1.193"/>
               <ellipse id="ellipse79883" d="m 62.326998,168.61 c 0,0.65888 -0.934829,1.193 -2.088,1.193 -1.15317,0 -2.088,-0.53412 -2.088,-1.193 0,-0.65888 0.93483,-1.193 2.088,-1.193 1.153171,0 2.088,0.53412 2.088,1.193 z" cx="60.239" cy="168.61" rx="2.088" transform="matrix(-0.0459,0.9989,-0.9989,-0.0459,231.4414,116.1842)" ry="1.193"/>
               <ellipse id="ellipse79885" d="m 58.370002,167.60001 c 0,0.65887 -0.93483,1.193 -2.088001,1.193 -1.15317,0 -2.088,-0.53413 -2.088,-1.193 0,-0.65888 0.93483,-1.193 2.088,-1.193 1.153171,0 2.088001,0.53412 2.088001,1.193 z" cx="56.282" cy="167.6" rx="2.088" transform="matrix(-0.046,0.9989,-0.9989,-0.046,226.2875,119.0759)" ry="1.193"/>
               <ellipse id="ellipse79887" d="m 55.208998,163.78 c 0,0.65887 -0.934829,1.193 -2.088,1.193 -1.15317,0 -2.088,-0.53413 -2.088,-1.193 0,-0.65888 0.93483,-1.193 2.088,-1.193 1.153171,0 2.088,0.53412 2.088,1.193 z" cx="53.121" cy="163.78" rx="2.088" transform="matrix(-0.0459,0.9989,-0.9989,-0.0459,219.1692,118.2418)" ry="1.193"/>
               <ellipse id="ellipse79889" d="m 53.335002,157.35001 c 0,0.65887 -0.93483,1.193 -2.088,1.193 -1.153171,0 -2.088,-0.53413 -2.088,-1.193 0,-0.65888 0.934829,-1.193 2.088,-1.193 1.15317,0 2.088,0.53412 2.088,1.193 z" cx="51.247" cy="157.35" rx="2.088" transform="matrix(-0.0458,0.9989,-0.9989,-0.0458,210.7847,113.3734)" ry="1.193"/>
               <ellipse id="ellipse79891" d="m 53.823001,150.37 c 0,0.65887 -0.93483,1.193 -2.088,1.193 -1.153171,0 -2.088,-0.53413 -2.088,-1.193 0,-0.65888 0.934829,-1.193 2.088,-1.193 1.15317,0 2.088,0.53412 2.088,1.193 z" cx="51.735" cy="150.37" rx="2.088" transform="matrix(-0.0458,0.9989,-0.9989,-0.0458,204.3173,105.5811)" ry="1.193"/>
               <ellipse id="ellipse79893" d="m 56.088,144.63 c 0,0.65888 -0.934829,1.193 -2.088,1.193 -1.153171,0 -2.088,-0.53412 -2.088,-1.193 0,-0.65887 0.934829,-1.193 2.088,-1.193 1.153171,0 2.088,0.53413 2.088,1.193 z" cx="54" cy="144.63" rx="2.088" transform="matrix(-0.0458,0.9989,-0.9989,-0.0458,200.9575,97.3197)" ry="1.193"/>
               <path id="path79895" d="m60.869,150.69c-0.65-0.03-1.153-0.581-1.123-1.231s0.582-1.153,1.231-1.124l0.625,0.029c0.65,0.03,1.153,0.582,1.123,1.231-0.03,0.65-0.581,1.153-1.231,1.123l-0.625-0.028z"/>
               <path id="path79897" d="m62.77,157.56c-0.65-0.03-1.153-0.582-1.123-1.231,0.03-0.65,0.581-1.153,1.231-1.123l0.625,0.028c0.65,0.03,1.153,0.581,1.123,1.231s-0.581,1.153-1.231,1.123l-0.625-0.03z"/>
               <path id="path79899" d="m60.146,162.95c-0.65-0.03-1.153-0.581-1.124-1.231,0.03-0.65,0.582-1.153,1.231-1.123l0.625,0.028c0.65,0.03,1.153,0.581,1.123,1.231s-0.581,1.153-1.231,1.123l-0.624-0.028z"/>
               <path id="path79901" d="m55.876,159.48c-0.65-0.03-1.153-0.581-1.123-1.231s0.581-1.153,1.231-1.123l0.624,0.029c0.65,0.03,1.153,0.581,1.123,1.231s-0.581,1.153-1.231,1.123l-0.624-0.029z"/>
               <path id="path79903" d="m56.271,152.58c-0.65-0.03-1.153-0.582-1.124-1.231,0.03-0.65,0.582-1.153,1.231-1.123l0.625,0.028c0.65,0.03,1.153,0.581,1.123,1.231s-0.581,1.153-1.231,1.123l-0.624-0.028z"/>
               <path id="path79905" d="m58.842,151.89h1.332c1.201,0.055,2.095,1.83,1.997,3.965-0.098,2.134-1.151,3.82-2.352,3.765h-1.332" stroke="#000" stroke-width="0.5" fill="#FFF"/>
               <ellipse id="ellipse79907" d="m 78.828001,155.63 c 0,6.67823 -9.624087,12.092 -21.496,12.092 -11.871913,0 -21.496001,-5.41377 -21.496001,-12.092 0,-6.67822 9.624088,-12.092 21.496001,-12.092 11.871913,0 21.496,5.41378 21.496,12.092 z" cx="57.332" cy="155.63" rx="21.496" ry="12.092" transform="matrix(-0.0459,0.9989,-0.9989,-0.0459,215.4314,105.5034)" stroke="#000" stroke-width="0.5" fill="none"/>
               <ellipse id="ellipse79909" d="m 68.895,155.72 c 0,3.00498 -4.330749,5.441 -9.673,5.441 -5.34225,0 -9.673,-2.43602 -9.673,-5.441 0,-3.00498 4.33075,-5.441 9.673,-5.441 5.342251,0 9.673,2.43602 9.673,5.441 z" cx="59.222" cy="155.72" rx="9.673" ry="5.441" transform="matrix(-0.0459,0.9989,-0.9989,-0.0459,217.4948,103.7041)" stroke="#000" stroke-width="0.5" fill="none"/>
               <path id="path79911" d="m60.238,146.14c-2.748,0.398-5.057,4.402-5.286,9.384-0.232,5.053,1.76,9.301,4.521,9.854" stroke="#000" stroke-width="0.5" fill="none"/>
               <path id="path79913" d="m63.926,137.05c-5.597-2.262-13.911,3.542-14.493,16.216-0.577,12.55,4.113,24.966,14.211,20" stroke="#000" stroke-width="0.5" fill="none"/>
               <ellipse id="ellipse79915" d="m 62.533001,155.69 c 0,1.20177 -1.73221,2.176 -3.869,2.176 -2.136789,0 -3.868999,-0.97423 -3.868999,-2.176 0,-1.20177 1.73221,-2.176 3.868999,-2.176 2.13679,0 3.869,0.97423 3.869,2.176 z" cx="58.664" cy="155.69" rx="3.869" ry="2.176" transform="matrix(-0.0459,0.9989,-0.9989,-0.0459,216.8845,104.2329)" stroke="#000" stroke-width="0.5" fill="#FFF"/>
               <path id="path79917" d="m170,165.31,2.498,0.115s1.837,3.588,6.832,3.818,7.721-4.65,7.721-4.65l1.998,0.092s-2.319,6.9-9.312,6.579c-7-0.32-9.74-5.95-9.74-5.95z" fill="#FFF"/>
               <path id="path79919" d="m203.86,60.259c3.33,0.153,4.356,6.874-0.306,6.66,0,0-14.651-0.673-25.276-1.829s-14.571-1.783-10.679-14.505c1.963-6.417,13.625-6.047,18.256-5.167s5.175,3.575,6.775,12.324l11.23,2.517z" stroke-width="0.5" stroke="#FFF"/>
               <path id="path79921" d="m324.75,94.734c1,5.5,1,14,0,22.5" fill="none" stroke="#000"/>
               <path id="path79923" d="m226.41,59.793c-5.54,0.747-7.808-4.363-7.808-4.363l-17.4-35.335c13.169-3.399,84.208-2.637,95.104-0.135,9.76,5.454,41.417,35.438,41.417,35.438-40.479-1.359-85.5-1.926-111.32,4.395z" stroke="#FFF" stroke-width="0.5" fill="none"/>
              </g>
             </g>
            </g>
           </g>
          </g>
         </g>
        </g>
       </g>
      </g>
     </g>
    </g>
   </g>
  </g>
 </g>
</svg>
