<?xml version="1.0" encoding="UTF-8" standalone="no"?>
<!-- Created with Inkscape (http://www.inkscape.org/) -->
<svg id="svg2" xmlns:rdf="http://www.w3.org/1999/02/22-rdf-syntax-ns#" xmlns="http://www.w3.org/2000/svg" height="45" width="67.5" version="1.1" xmlns:cc="http://creativecommons.org/ns#" xmlns:dc="http://purl.org/dc/elements/1.1/">
 <metadata id="metadata7">
  <rdf:RDF>
   <cc:Work rdf:about="">
    <dc:format>image/svg+xml</dc:format>
    <dc:type rdf:resource="http://purl.org/dc/dcmitype/StillImage"/>
    <dc:title/>
   </cc:Work>
  </rdf:RDF>
 </metadata>
 <g id="g6172">
  <rect id="rect2990" opacity="0" height="45" width="67.5" y="0" x="3.5527e-15"/>
  <path id="path6170" d="m38.438 37.315c-1.682-0.15722-2.5361-0.56149-3.5891-1.6988-0.68865-0.74382-1.4276-2.1057-1.5721-2.8972-0.075-0.41125-0.1158-0.44994-0.47371-0.44994-0.21539 0-0.55431-0.03254-0.75318-0.07232-0.33618-0.06723-0.37175-0.03983-0.50621 0.38995-0.33849 1.0819-1.3584 2.1772-2.2711 2.439-0.64651 0.18541-3.1053-0.03809-3.6877-0.33522-0.60953-0.31096-1.3937-1.1846-1.6761-1.8675l-0.21228-0.51324-3.0666-0.12247c-1.6866-0.06736-3.8285-0.09848-4.7597-0.06916l-1.6932 0.05331-0.13999 0.62554c-0.16995 0.75943-0.77364 2.0684-1.1314 2.4532-0.51069 0.54929-0.80463 0.61852-2.6261 0.61852-0.9441 0-1.8997-0.05252-2.1235-0.11671-1.4622-0.41936-2.4142-2.0696-2.6921-4.6669l-0.13311-1.2441-0.6856 0.06217c-0.37709 0.03419-0.9309 0.18467-1.2307 0.33439-0.45455 0.22702-0.59523 0.24937-0.84714 0.13459-0.48709-0.22193-0.40221-0.65919 0.1966-1.0128l0.49865-0.29449-0.58429-0.19909c-1.2506-0.42612-2.0139-1.2634-2.4556-2.6934-0.43119-1.396-0.24691-1.9422 0.65525-1.9422 0.43025 0 0.44942-0.01625 0.37399-0.31679-0.30882-1.2304-0.26982-4.7623 0.0675-6.1133 0.36133-1.4472 1.4736-3.5638 2.8343-5.3938 0.83675-1.1253 1.4879-1.7369 2.2767-2.1384 0.31583-0.16076 0.70922-0.43787 0.8742-0.61581 0.66012-0.71195 1.3032-0.88082 4.5594-1.1973 8.8058-0.85582 8.5774-0.84274 14.698-0.84134 6.0727 0.0014 8.1973 0.11985 9.5759 0.53396 0.47924 0.14395 1.5042 0.27146 2.889 0.3594 2.4564 0.15599 3.7756 0.35872 4.5276 0.69578 0.45791 0.20524 2.2072 1.6113 5.4014 4.3414 0.82764 0.70741 0.95214 0.77345 1.4768 0.78331 0.47002 0.0088 0.6243 0.07053 0.85912 0.34351 0.15742 0.18301 0.32015 0.54491 0.36161 0.80423 0.0414 0.25932 0.14431 0.52868 0.22854 0.59859 0.0842 0.06991 1.1979 0.2868 2.4747 0.48199 6.123 0.93599 9.8523 2.0108 11.12 3.205 0.22769 0.21447 0.45852 0.38995 0.51297 0.38995 0.0544 0 0.15917 0.11248 0.23274 0.24995 0.10503 0.19624 0.0936 0.29436-0.0533 0.45663-0.15536 0.17167-0.16726 0.3275-0.0702 0.9199 0.0642 0.39227 0.1171 1.0745 0.11749 1.516 0.00036 0.44155 0.0547 0.83619 0.12068 0.87697 0.066 0.04078 0.11998 0.20595 0.11998 0.36704 0 0.20357 0.0668 0.29288 0.21906 0.29288 0.25905 0 0.67945 0.4285 0.79537 0.8107 0.11737 0.38699-0.13911 1.4926-0.54557 2.3518-0.19177 0.40538-0.34873 0.93567-0.34878 1.1784-0.00012 0.72433-0.1869 0.8266-1.8297 1.002-0.77126 0.08235-0.70152-0.02814-0.90657 1.4362-0.3323 2.3731-1.6733 3.8406-3.9506 4.3231-0.97339 0.20626-3.1323 0.22872-4.016 0.04177-1.674-0.35415-3.24-1.5088-3.8941-2.871-0.3849-0.80168-0.36076-0.79372-1.7811-0.58716-0.46195 0.06718-1.5148 0.14527-2.3397 0.17353l-1.4998 0.05138-0.0912 0.43871c-0.27957 1.3454-1.7282 3.1694-3.0391 3.8267-0.66735 0.33461-0.80142 0.35689-2.2691 0.37718-0.8579 0.01185-1.993-0.01893-2.5224-0.06842zm2.0561-2.3996c2.4052-1.0624 3.0454-4.3145 1.2386-6.2915-1.4974-1.6384-3.939-1.6363-5.3834 0.0047-0.72952 0.82878-1.0022 1.675-0.94116 2.9206 0.057 1.1607 0.31719 1.804 1.0356 2.5596 1.0564 1.1111 2.645 1.4275 4.0504 0.80673zm-2.7855-0.28776c-0.76369-0.36352-1.3682-0.95946-1.7405-1.7157-0.39997-0.81248-0.40413-2.2386-0.009-3.1026 0.56377-1.233 1.6074-1.9793 2.8968-2.0715 0.69219-0.04953 0.91546-0.01323 1.4608 0.23746 0.87178 0.40073 1.31 0.79542 1.7205 1.5496 0.73992 1.3595 0.49081 3.2397-0.57409 4.3332-0.68743 0.70591-1.2883 0.9723-2.3024 1.0208-0.69501 0.03325-0.94549-0.01008-1.4521-0.25122zm2.6565-0.12278c2.6522-1.235 2.6122-5.2181-0.0645-6.4263-1.5175-0.68498-3.3797 0.05053-4.1622 1.6439-0.28536 0.58112-0.33691 0.83455-0.33495 1.6467 0.002 0.8034 0.054 1.0577 0.31925 1.5598 0.86832 1.6437 2.6642 2.3108 4.2424 1.5759zm-2.154-0.22507c-0.7239-0.19138-1.6801-1.1893-1.9188-2.0026-0.23872-0.81335-0.23944-1.1223-0.005-1.9137 0.42145-1.4192 1.9784-2.3799 3.3459-2.0646 1.9649 0.45309 2.9081 2.5679 1.9767 4.4319-0.67379 1.3484-1.9531 1.9313-3.3993 1.549zm2.0512-0.31337c1.0383-0.53397 1.5333-1.3917 1.5333-2.6573 0-0.97056-0.17555-1.4519-0.75884-2.0807-1.5019-1.6192-4.2084-0.80355-4.7056 1.418-0.53798 2.4039 1.8276 4.4017 3.9312 3.32zm-1.7218-0.32688c-0.0399-0.1041 0.019-0.27958 0.13109-0.38995 0.1905-0.18766 0.21478-0.18575 0.37433 0.02946 0.12643 0.17054 0.13626 0.27151 0.038 0.38995-0.1797 0.21654-0.4547 0.20163-0.54338-0.02946zm1.1224-0.09557c-0.0877-0.22841 0.2176-0.48375 0.46488-0.38886 0.1047 0.04018 0.17233 0.1677 0.15028 0.28339-0.0502 0.26379-0.52329 0.34488-0.61516 0.10547zm-2.038-0.27094c-0.12031-0.12031-0.10395-0.49767 0.025-0.57738 0.21077-0.13027 0.50381 0.08134 0.46711 0.33731-0.0363 0.25357-0.33363 0.39858-0.49213 0.24007zm3.0996-0.23712c-0.17853-0.17853-0.18102-0.2215-0.022-0.3805 0.20411-0.20411 0.5578-0.11846 0.5578 0.13508 0 0.09298-0.0753 0.23152-0.16727 0.30787-0.12941 0.10741-0.2128 0.09328-0.36852-0.06244zm-2.4411-0.41002c-0.40095-0.24446-0.74268-0.85402-0.74268-1.3248 0-0.43196 0.3815-1.0885 0.7703-1.3255 1.2608-0.76882 2.7433 0.71156 2.0518 2.0488-0.42434 0.82058-1.3031 1.0748-2.0794 0.60149zm1.421-0.05895c0.36338-0.18791 0.71598-0.7276 0.71598-1.0959 0-0.15516-0.0351-0.17481-0.13461-0.07533-0.16866 0.16866-0.46531 0.06461-0.46531-0.16321 0-0.2407 0.36265-0.35231 0.49021-0.15086 0.18695 0.29525 0.12809-0.10887-0.0723-0.49638-0.51045-0.98709-1.8606-0.91477-2.4001 0.12855-0.2288 0.44244-0.22425 0.76064 0.0181 1.2715 0.33439 0.70466 1.1273 0.95423 1.8479 0.5816zm-0.44357-0.246c-0.1-0.2606 0.15387-0.50568 0.33559-0.32396 0.15358 0.15359 0.0585 0.512-0.13592 0.512-0.0702 0-0.15999-0.08462-0.19967-0.18804zm-1.0799-0.23997c-0.0946-0.24643 0.0952-0.4306 0.30815-0.29901 0.18133 0.11207 0.0978 0.48705-0.10848 0.48705-0.0702 0-0.15998-0.08462-0.19967-0.18804zm0.43153-0.54704c-0.20037-0.37438 0.0334-0.82472 0.42806-0.82472 0.20468 0 0.34782 0.09374 0.43487 0.28479 0.17697 0.38841-0.0454 0.79508-0.43487 0.79508-0.1745 0-0.34633-0.10242-0.42806-0.25515zm0.72325-0.03906c0.21451-0.25847 0.0386-0.68781-0.26324-0.64267-0.35676 0.05334-0.53844 0.38806-0.34025 0.62686 0.19654 0.23682 0.41531 0.24255 0.60349 0.01581zm-1.3822-0.5572c-0.0447-0.07232-0.002-0.21002 0.0932-0.30598 0.15265-0.15266 0.19325-0.15188 0.32449 0.0063 0.0825 0.09941 0.11517 0.2371 0.0726 0.30598-0.10142 0.16409-0.38728 0.16044-0.49031-0.0063zm1.1873-0.53648c-0.1-0.2606 0.15387-0.50568 0.33559-0.32396 0.15358 0.15358 0.0585 0.512-0.13592 0.512-0.0702 0-0.15998-0.08462-0.19967-0.18804zm-2.2763 1.6887c-0.0416-0.1083-0.018-0.25444 0.0523-0.32476 0.18281-0.18281 0.52918-0.01573 0.48143 0.23223-0.0532 0.27619-0.43766 0.34285-0.53372 0.09253zm4.1993-0.24042c-0.0414-0.10805-0.02-0.25189 0.0477-0.31963 0.19559-0.19559 0.56861-0.06377 0.56861 0.20094 0 0.3052-0.50734 0.4029-0.61639 0.11869zm-4.283-0.86024c-0.14151-0.14151-0.0854-0.40542 0.10152-0.47713 0.23687-0.0909 0.54264 0.1665 0.45845 0.38592-0.0676 0.17619-0.41793 0.23325-0.55997 0.09121zm4.3776-0.1487c-0.21813-0.13487-0.12655-0.53861 0.13354-0.5887 0.11493-0.02213 0.24317 0.04893 0.28499 0.15791 0.0982 0.25585-0.2019 0.56473-0.41853 0.43079zm-3.9321-1.0254c-0.0922-0.24035 0.0446-0.42569 0.31436-0.42569 0.27612 0 0.38504 0.15498 0.28751 0.40912-0.0916 0.23878-0.51216 0.25036-0.60187 0.01657zm3.1196-0.11998c-0.0916-0.2386 0.0441-0.42569 0.30861-0.42569 0.23027 0 0.41498 0.30315 0.29903 0.49077-0.10674 0.1727-0.53395 0.12695-0.60764-0.06507zm-2.1585-0.47682c-0.10916-0.28447 0.0453-0.57177 0.2828-0.52603 0.13283 0.02558 0.21034 0.14983 0.21034 0.33718 0 0.34203-0.37871 0.48706-0.49314 0.18885zm1.0734-0.13692c-0.0397-0.10342-0.0146-0.24558 0.0557-0.31589 0.18663-0.18663 0.50394-0.02279 0.50394 0.2602 0 0.29591-0.45026 0.34072-0.55963 0.05569zm-30.198 4.497c0.36608-0.22625 1.0051-1.1068 1.0015-1.3799-0.00079-0.06019-0.13857 0.13353-0.30617 0.43049-0.42634 0.75543-0.56193 0.83731-1.1425 0.68994-0.88003-0.22338-1.3546-1.1951-1.3624-2.7897-0.007-1.4796 0.43935-2.3936 1.3671-2.7977 0.35338-0.15392 0.38485-0.19459 0.18557-0.23983-0.23997-0.05448-0.23997-0.05448 0-0.14479 0.15983-0.06016 0.0597-0.08481-0.29996-0.07382-0.37806 0.01156-0.53993 0.06746-0.53993 0.18648 0 0.09349-0.075 0.19498-0.16668 0.22554-0.11447 0.03815-0.1362 0.0037-0.0694-0.10999 0.0535-0.09105-0.0257-0.05756-0.17625 0.07442-0.73002 0.64038-1.233 2.4835-1.0007 3.6672l0.12797 0.65225-0.0613-0.78389c-0.0337-0.43114 0.006-1.1061 0.0866-1.4998 0.14313-0.69274 0.68039-1.9352 0.7896-1.826 0.0295 0.02952-0.0778 0.29136-0.23849 0.58186-0.63715 1.1518-0.69412 3.0279-0.12604 4.15 0.15757 0.31125 0.2625 0.5899 0.23318 0.61923-0.0294 0.02933-0.18893-0.23799-0.35467-0.59404-0.16575-0.35605-0.30188-0.57772-0.30252-0.4926-0.002 0.25643 0.43485 1.029 0.72658 1.2851 0.15035 0.13198 0.22958 0.16547 0.17605 0.07442-0.0672-0.11434-0.0457-0.14681 0.0694-0.10499 0.0917 0.03331 0.15618 0.11229 0.14336 0.17551-0.0142 0.07001 0.1969 0.08094 0.53994 0.02795 0.30978-0.04785 0.58311-0.06845 0.6074-0.0458 0.0405 0.03777-0.0517 0.06363-0.76407 0.21426-0.16328 0.03453-0.12947 0.05519 0.10583 0.06466 0.19019 0.0077 0.52812-0.09877 0.75096-0.2365zm-0.93928-6.1908c0.0866-0.03466 0.1901-0.0304 0.22997 0.0095 0.0398 0.03987-0.0309 0.06823-0.15748 0.06302-0.13977-0.0058-0.1682-0.03419-0.0725-0.07249zm1.1874 5.6602c0.14214-0.09956 0.37013-0.47954 0.50664-0.8444 0.29631-0.79198 0.31598-0.97999 0.0822-0.78599-0.12798 0.10622-0.18204 0.09585-0.2362-0.0453-0.0689-0.17954 0.0138-0.543 0.12361-0.543 0.0306 0 0.13853 0.0828 0.23973 0.18401 0.13024 0.13024 0.16337 0.3143 0.11337 0.62992-0.0646 0.4077-0.0587 0.4202 0.0688 0.14595 0.35736-0.76867 0.0557-3.5396-0.38541-3.5396-0.0868 0-0.18291-0.07501-0.21347-0.16668-0.0354-0.10624-0.003-0.13432 0.0888-0.07743 0.11059 0.06834 0.11007 0.03425-0.002-0.14551-0.0806-0.12912-0.2601-0.30384-0.39881-0.38828-0.21351-0.12997-0.20618-0.10346 0.0478 0.17279l0.29996 0.32631-0.30975-0.14062c-0.44675-0.2028-1.0942 0.0966-1.4704 0.67994-0.34795 0.53956-0.53449 1.0721-0.3316 0.94675 0.16627-0.10276 0.30351 0.22517 0.2034 0.48603-0.0601 0.1567-0.10819 0.16531-0.2528 0.0453-0.15154-0.12576-0.17856-0.09207-0.17856 0.22269 0 0.26846 0.0463 0.35309 0.16784 0.30647 0.0923-0.03542 0.20047-0.0116 0.24036 0.05293 0.11022 0.17835-0.0593 0.52036-0.22626 0.45631-0.20545-0.07884-0.0234 0.85253 0.28474 1.4565 0.35131 0.68862 1.014 0.93201 1.5381 0.56489zm-0.60105-0.45979c-0.0339-0.08848-0.015-0.2365 0.0421-0.32896 0.14002-0.22655 0.41481 0.03792 0.31357 0.30178-0.0884 0.23041-0.27234 0.24447-0.35572 0.02718zm-0.50689-0.08397c-0.0438-0.07082-0.0498-0.24763-0.0133-0.39291s0.022-0.33575-0.0321-0.42327c-0.0739-0.11954-0.11462-0.09691-0.16376 0.09099-0.0895 0.34238-0.32784 0.31632-0.32784-0.03586 0-0.18506 0.0847-0.30811 0.23997-0.34872 0.13199-0.03452 0.23915-0.1353 0.23813-0.22397-0.002-0.12243-0.0298-0.11791-0.11814 0.01876-0.0821 0.12709-0.11685-0.03519-0.11815-0.55219-0.003-1.2308 0.72147-1.9802 1.3069-1.3518l0.25107 0.26948v-0.32259c0-0.35604 0.20428-0.43521 0.32322-0.12526 0.0449 0.11695-0.006 0.25684-0.12405 0.34341-0.14577 0.10659-0.17965 0.24682-0.12528 0.51866 0.18621 0.93104-0.363 2.1695-0.89984 2.0291-0.16826-0.044-0.20328 0.0019-0.16285 0.21344 0.0556 0.29083-0.14368 0.50371-0.27405 0.29276zm1.129-1.3266c0.0958-0.27494 0.0865-0.34831-0.0443-0.34831-0.0912 0-0.18925-0.12148-0.21796-0.26997-0.0287-0.14848-0.0357-0.09449-0.0155 0.11998 0.0205 0.21768-0.0194 0.38995-0.0904 0.38995-0.0813 0-0.0749 0.06294 0.0179 0.17472 0.19698 0.23734 0.0423 0.48607-0.18497 0.29745-0.0924-0.07667-0.13839-0.18728-0.10223-0.2458 0.0362-0.05851 0.04-0.10639 0.008-0.10639-0.0315 0-0.14266-0.03277-0.24705-0.07283-0.2795-0.10726-0.24011 0.26249 0.0599 0.56253 0.23475 0.23474 0.2631 0.23764 0.47227 0.04834 0.12239-0.11076 0.27717-0.35812 0.34395-0.5497zm-0.52602-0.70826c0-0.21997-0.0655-0.42178-0.14555-0.44847-0.17104-0.05701-0.3329 0.48291-0.22728 0.75814 0.12319 0.32104 0.37283 0.11368 0.37283-0.30967zm-0.51171-0.05398c0.031-0.16188-0.006-0.31802-0.0834-0.34752-0.0928-0.03561-0.12248 0.0629-0.0886 0.29395 0.0622 0.42432 0.0989 0.43573 0.17197 0.05356zm1.1716-0.17618c0-0.3746-0.12839-0.59898-0.30414-0.53154-0.28802 0.11052-0.47935-0.09492-0.24679-0.26498 0.1451-0.1061 0.16448-0.17539 0.0661-0.23622-0.17722-0.10952-0.65146 0.35456-0.54249 0.53087 0.0449 0.07265 0.18759 0.13209 0.3171 0.13209 0.13472 0 0.29393 0.12834 0.37213 0.29996 0.16234 0.3563 0.33812 0.39259 0.33812 0.06981zm-0.11998 1.85c0-0.20264 0.0549-0.30163 0.14998-0.26997 0.0825 0.0275 0.14998 0.14898 0.14998 0.26997 0 0.12098-0.0675 0.24247-0.14998 0.26997-0.095 0.03166-0.14998-0.06732-0.14998-0.26997zm0.83989-1.6546c0-0.34909-0.081-0.94565-0.17998-1.3257-0.22441-0.86158-0.21782-1.0048 0.0174-0.37931 0.18696 0.49705 0.37571 2.3397 0.23965 2.3397-0.0424 0-0.0771-0.28562-0.0771-0.63471zm-0.4032-0.048c-0.14833-0.14833-0.0747-0.51667 0.10325-0.51667 0.099 0 0.17998 0.1048 0.17998 0.23289 0 0.25044-0.15813 0.40888-0.28323 0.28378zm-1.9748-1.5066c0.0211-0.14848 0.0923-0.26997 0.15833-0.26997 0.066 0 0.13724 0.12148 0.15832 0.26997 0.0264 0.18576-0.023 0.26997-0.15832 0.26997s-0.18471-0.08421-0.15833-0.26997zm0.5046-0.26236c-0.0945-0.24635 0.0386-0.58337 0.19281-0.48807 0.0665 0.04107 0.12084 0.17629 0.12084 0.30049 0 0.2956-0.22139 0.428-0.31365 0.18758zm0.59392-0.01567c-0.10126-0.26385 0.17353-0.52832 0.31355-0.30178 0.11736 0.1899 0.0374 0.48982-0.13049 0.48982-0.061 0-0.14338-0.08462-0.18306-0.18804zm18.596 3.7674c0.45582-0.45581 0.25217-0.60661-0.22366-0.16563-0.43909 0.40693-1.0673 0.40976-1.6129 0.0072-0.40245-0.29693-0.58326-0.32256-0.42077-0.05966 0.18594 0.30086 0.85944 0.5973 1.358 0.59773 0.42333 0.00036 0.58934-0.06973 0.89931-0.3797zm-10.527-1.1214c-0.11142-0.17004-0.33989-0.37173-0.50771-0.4482-0.25566-0.11648-0.32368-0.10587-0.41957 0.06546-0.063 0.11246-0.19997 0.20448-0.30452 0.20448s-0.41233 0.06749-0.68395 0.14998l-0.49386 0.14998 1.2598 0.12359c0.69291 0.06798 1.2807 0.11016 1.3061 0.09373 0.0254-0.01642-0.045-0.16899-0.15632-0.33903zm33.532-0.36317c1.2244-0.09501 3.7621-0.22653 5.6393-0.29226 3.8082-0.13335 6.4707-0.3121 7.3726-0.49495 0.32996-0.0669 1.0243-0.17082 1.543-0.23092 0.51869-0.06011 1.0181-0.17158 1.1099-0.24771 0.0917-0.07613 0.16684-0.33429 0.16689-0.57368s0.16337-0.78038 0.36292-1.2022 0.34347-0.7863 0.31982-0.80995c-0.0237-0.02365-0.78089-0.0076-1.6828 0.03564-1.4347 0.06881-1.6398 0.10423-1.6398 0.2833 0 0.15704 0.14443 0.22176 0.62073 0.27817 0.7447 0.0882 0.92793 0.22817 0.6554 0.5007-0.10794 0.10794-0.19626 0.31798-0.19626 0.46674s-0.13081 0.39337-0.29069 0.54357c-0.2544 0.239-0.37049 0.26358-0.92989 0.19688-1.702-0.20293-2.1557-0.21017-2.3578-0.03763-0.14902 0.12726-0.89444 0.20886-2.8755 0.3148-1.4709 0.07865-2.7262 0.11093-2.7897 0.07173-0.24559-0.15178-0.0345-1.2013 0.28214-1.4027 0.0784-0.04983 0.47993-0.09142 0.89237-0.09243l0.74991-0.0018v-0.36427-0.36427l-1.0499 0.06736c-2.7211 0.17458-6.8238 0.30122-9.7586 0.30122-2.0477 0-3.2298 0.0434-3.2298 0.11858 0 0.06522 0.18897 0.5751 0.41994 1.1331 0.23098 0.55797 0.41995 1.1405 0.41995 1.2945 0 0.15403 0.0894 0.40767 0.19864 0.56365 0.19859 0.28354 0.19899 0.28358 2.0098 0.20059 0.99611-0.04565 2.8129-0.16074 4.0374-0.25575zm1.6973-1.2789c-0.23349-0.23349-0.16558-0.68522 0.15053-1.0013 0.25412-0.25412 0.41456-0.29712 1.1698-0.31352 0.8651-0.01879 1.3174-0.0017 1.3649 0.05159 0.0891 0.09994-0.18717 1.2121-0.32243 1.2977-0.25694 0.1627-2.194 0.13444-2.3629-0.03447zm-37.399 1.3438c0.21264-0.09138 0.2024-0.10408-0.09-0.11155-0.18147-0.0046-0.32996 0.04556-0.32996 0.11155 0 0.14083 0.0922 0.14083 0.41995 0zm17.696-0.86989c-0.0008-0.14848-0.0423-0.33367-0.0919-0.41153-0.0649-0.10198-2.0692-0.20264-7.1673-0.35996-3.8925-0.12011-6.7936-0.24538-6.4469-0.27838l0.63037-0.05999-0.41065-0.89989c-0.22586-0.49494-0.44034-0.99438-0.47663-1.1099-0.0597-0.18997-0.27611-0.20997-2.2714-0.20997-1.213 0-2.6185-0.03492-3.1234-0.0776-0.7297-0.06168-0.91799-0.04432-0.91799 0.08466 0 0.08924 0.19749 0.5831 0.43886 1.0975 0.33244 0.70841 0.49976 0.93901 0.68992 0.95086 0.13808 0.0086 1.2769 0.05281 2.5308 0.09823l2.2797 0.08258-1.9198 0.0099c-1.0559 0.0054-2.2167-0.02526-2.5797-0.06823l-0.65992-0.07812-0.44446-0.89989c-0.24444-0.49494-0.44692-0.99438-0.44994-1.1099-0.003-0.11549-0.0925-0.20997-0.19881-0.20997-0.15828 0-0.17818 0.08159-0.10975 0.44994 0.0972 0.52324 0.82529 1.9622 1.1344 2.2419 0.17723 0.16038 0.89815 0.22019 4.3998 0.365 9.2876 0.38408 14.172 0.59538 14.896 0.64439 0.20586 0.01393 0.26953-0.04584 0.26813-0.2517zm0.74098-0.27558c0.0238-0.30005-0.0352-1.056-0.13126-1.6798l-0.17464-1.1342h-0.53394-0.53393l0.0739 0.79165c0.0419 0.44886 0.20529 1.0786 0.37731 1.4543 0.16686 0.36447 0.30337 0.76413 0.30337 0.88814 0 0.15799 0.0862 0.22547 0.28789 0.22547 0.25528 0 0.29279-0.06178 0.33127-0.54555zm-29.757 0.128c0.42534-0.198 0.85432-0.29919 1.2718-0.29996 0.72668-0.0014 0.84365-0.1968 0.17998-0.30072-0.24747-0.03875-0.6028-0.09471-0.78962-0.12436-0.21489-0.03411-0.57852 0.06304-0.98987 0.26446-0.60611 0.29678-0.76432 0.48529-0.57022 0.67939 0.12305 0.12306 0.20818 0.10232 0.89797-0.2188zm28.657-0.631c-0.00072-0.04949-0.0817-0.35504-0.17997-0.67899-0.0983-0.32395-0.17868-0.81703-0.17868-1.0957v-0.50674l-5.1294-0.07608c-2.8211-0.04185-5.7638-0.10816-6.5392-0.14737-1.6758-0.08473-1.657-0.11019-0.97656 1.3226l0.43327 0.91234 1.0965 0.01232c0.6031 0.0068 3.0403 0.07945 5.416 0.1615 5.6748 0.19598 6.0595 0.20208 6.058 0.09615zm-27.171-1.274c-0.23319-0.44737-0.42398-0.94616-0.42398-1.1084 0-0.16225-0.069-0.32146-0.15316-0.35378-0.27848-0.10686-3.8064-0.23559-3.8064-0.13889 0.00006 0.2221 0.48884 1.0156 0.85298 1.3847 0.54532 0.55277 1.1079 0.81399 2.2169 1.0294 1.2681 0.24634 1.6629 0.27544 1.7036 0.12559 0.0187-0.06886-0.15677-0.49123-0.38995-0.9386zm48.83-0.495c2.0457-0.09518 3.733-0.17472 3.7495-0.17675 0.0165-0.002 0.03-0.1132 0.03-0.24702 0-0.22553-0.0548-0.23848-0.74991-0.17712-1.7395 0.15354-5.6964 0.31352-9.4788 0.38323-3.2737 0.06033-4.0495 0.10552-4.0495 0.23589 0 0.2227 5.5264 0.2131 10.499-0.01823zm-19.362-0.75039c0.14924-0.1903 0.14499-0.19455-0.0453-0.0453-0.19986 0.15674-0.26342 0.25528-0.16466 0.25528 0.0249 0 0.1194-0.09449 0.20997-0.20997zm31.96 0.10696c0.50001-0.05354 0.7292-0.13174 0.75313-0.25694 0.0295-0.15462-0.21118-0.17488-1.7086-0.14382-1.6353 0.03393-1.743 0.05061-1.743 0.26997 0 0.21391 0.0842 0.2327 0.98988 0.22078 0.54444-0.0072 1.3133-0.04766 1.7086-0.08999zm-59.524-1.278c0.20163-0.26397 0.26859-0.40206 0.1488-0.30686-0.24347 0.19347-0.91746 1.1375-0.91746 1.2851 0 0.05229 0.0905-0.03843 0.20103-0.2016 0.11057-0.16317 0.366-0.51264 0.56763-0.7766zm29.253-0.254c0.34882-0.17762 0.8772-0.3949 1.1742-0.48285l0.53993-0.15991-0.47994 0.06958c-0.72497 0.10511-1.6646 0.59756-2.3056 1.2083-0.48065 0.458-0.4918 0.47711-0.0685 0.11744 0.27809-0.23627 0.79103-0.57491 1.1398-0.75252zm-4.3452 0.63713c0-0.12544-1.1252-0.18678-5.5493-0.30254-7.2654-0.1901-7.649-0.1881-7.649 0.03993 0 0.20682-0.37087 0.18321 4.6194 0.29409 6.725 0.14943 8.5789 0.14262 8.5789-0.03149zm1.1998 0.03736c0-0.06599-0.12148-0.12072-0.26997-0.12162-0.14848-0.00096-0.39145-0.0342-0.53993-0.07399-0.19847-0.05319-0.26997-0.02098-0.26997 0.12162 0 0.1499 0.12267 0.19397 0.53993 0.19397 0.29697 0 0.53994-0.05399 0.53994-0.11998zm24.777-0.30363c8.5767-0.32563 9.2733-0.36998 9.0656-0.57721-0.19832-0.19778-5.3332-0.15466-11.765 0.09881-2.8706 0.11312-6.8451 0.21387-8.8322 0.22389l-3.6128 0.01821 0.12045 0.3456 0.12046 0.3456 3.6124-0.08167c1.9868-0.04492 7.0679-0.21287 11.291-0.37322zm-39.295-0.05632c0-0.23076-0.0887-0.24097-2.3097-0.26604l-2.3097-0.02607 2.3382-0.06392c2.0827-0.05693 2.3425-0.0864 2.3777-0.26961 0.0348-0.18156-0.10575-0.21026-1.1984-0.24466l-1.2378-0.03897 1.3024-0.0253 1.3024-0.02531-0.0682-0.50994c-0.0374-0.28047-0.10358-1.5358-0.14691-2.7897-0.0698-2.0192-0.0493-2.4511 0.17973-3.7795 0.50411-2.9246 1.3664-5.6084 2.4192-7.5291l0.47678-0.86989-0.51304 0.0018c-0.28217 0.00096-1.6469 0.08085-3.0327 0.17745-1.3858 0.09659-2.7066 0.17676-2.9351 0.17816-0.35354 0.0022-0.53275 0.12312-1.2036 0.81243-0.94251 0.96838-1.8912 2.2976-2.8046 3.9295-1.139 2.035-1.7556 4.0724-1.7556 5.8005v0.80005l0.58857 0.27001c0.79973 0.36689 1.6604 1.3414 2.1722 2.4595l0.41884 0.91508 1.6798 0.04032 1.6798 0.04032-1.6902 0.02643-1.6902 0.02643-0.49369-0.99633c-0.59777-1.2063-1.2839-2.0141-2.009-2.3651-0.64455-0.31202-0.89609-0.25031-0.89609 0.21982 0 0.28752 0.0813 0.38214 0.48417 0.56382 0.26629 0.12008 0.66067 0.41371 0.87641 0.6525 0.46031 0.50951 1.1058 1.6049 1.2229 2.0753 0.0806 0.32348 0.10134 0.33044 1.059 0.35438l0.97687 0.02442-0.97743 0.04022c-0.89614 0.03688-0.9724 0.05943-0.91702 0.27121 0.0685 0.26179 0.43099 0.2891 4.4441 0.33474 2.118 0.02409 2.1897 0.01704 2.1897-0.21507zm-8.3279-5.3815c-0.0916-0.14824 0.0549-1.2072 0.17749-1.283 0.0522-0.0323 0.39823-0.02309 0.76881 0.02046l0.6738 0.07919-0.0357 0.61274-0.0357 0.61274-0.73945 0.03545c-0.40671 0.0195-0.77089-0.01541-0.80931-0.07757zm1.3688-2.8054c-0.26982-0.14591-0.29988-0.23606-0.2992-0.89721 0.00067-0.62986 0.0736-0.87514 0.50998-1.7145 0.61506-1.1832 1.9011-3.1351 2.5549-3.8779 0.79071-0.89829 1.1765-1.0191 3.5604-1.1149 1.7791-0.0715 2.0761-0.05799 2.1356 0.09711 0.038 0.09909-0.0894 0.57973-0.28307 1.0681-0.5231 1.3188-1.5384 4.4319-1.7013 5.2166-0.0865 0.41652-0.25329 0.79681-0.42474 0.96826-0.26808 0.26808-0.36293 0.28238-1.8776 0.28296-0.87739 0.000359-2.1082 0.03056-2.7351 0.06716-0.83638 0.04883-1.2197 0.02335-1.4398-0.09567zm-1.4253 7.822c-0.28895-0.26126-0.58052-0.47502-0.64792-0.47502s0.0961 0.15841 0.36341 0.35203c0.26728 0.19362 0.52153 0.40959 0.56501 0.47994 0.0434 0.07035 0.11637 0.1257 0.16196 0.12299 0.0456-0.0027-0.15351-0.21868-0.44246-0.47994zm1.6652 0.31196c0-0.09509-0.054-0.20627-0.11999-0.24705-0.066-0.04078-0.11998 0.03702-0.11998 0.1729s0.054 0.24705 0.11998 0.24705c0.066 0 0.11999-0.0778 0.11999-0.1729zm21.364-0.27705c0.24498-0.75747 0.5871-1.3488 1.106-1.9118 0.59697-0.64762 1.2291-0.98952 1.9848-1.0735 0.95922-0.10662 3.2818 0.14042 3.9028 0.41512 0.7059 0.31225 1.7621 1.3044 2.1331 2.0036 0.15658 0.29516 0.35564 0.53665 0.44237 0.53665 0.29064 0-0.47745-1.1927-1.1972-1.8591-0.9631-0.89166-1.6841-1.1444-3.6148-1.267-2.252-0.14306-3.2583 0.18273-4.1873 1.3557-0.38474 0.48577-0.9289 1.6747-0.93386 2.0405-0.005 0.36924 0.21362 0.22512 0.36405-0.23997zm-28.803 0.03v-0.29996h-2.0485c-1.8863 0-2.0454 0.01663-2.0084 0.20997 0.0347 0.18154 0.2349 0.21889 1.4786 0.27583 2.8626 0.13106 2.5783 0.15155 2.5783-0.18584zm27.602 0.04971c0.0737-0.13764 0.11605-0.26512 0.0942-0.2833-0.0218-0.01818-2.9824-0.09484-6.5789-0.17036-6.0841-0.12775-6.5495-0.12326-6.6879 0.06457-0.0818 0.11103-0.11798 0.23281-0.0804 0.27063 0.0674 0.06776 7.9145 0.30848 11.354 0.34828 1.6776 0.01942 1.7722 0.008 1.8995-0.22981zm0.77965-0.1397c0.22047-1.0197 1.1248-2.2629 2.0335-2.7954 0.74097-0.43423 1.4764-0.52754 3.2804-0.4162 1.4423 0.08902 1.6747 0.13568 2.3631 0.47458 0.92902 0.45736 1.7139 1.198 2.2201 2.095l0.37928 0.67204h0.59655c0.69339 0 0.69289 0.0097 0.0684-1.3165-0.95725-2.033-3.0574-3.1453-5.9672-3.1607-2.71-0.01428-4.2531 0.96847-4.9223 3.1349-0.1304 0.4222-0.2371 0.83716-0.2371 0.92214s-0.0774 0.18422-0.17213 0.22055c-0.0947 0.03633-0.23155 0.17709-0.30418 0.3128-0.11942 0.22314-0.0981 0.24675 0.22259 0.24675 0.30283 0 0.36696-0.05698 0.43895-0.38995zm12.173-0.35996c0.6203-2.4584 1.1321-3.4113 2.1048-3.9188 0.32752-0.17088 0.61651-0.32271 0.64221-0.33742 0.11723-0.06706-0.65361-0.91241-1.0739-1.1778-1.1086-0.69982-3.431-1.2172-6.9518-1.5488-1.6656-0.15686-1.722-0.16889-0.53993-0.11522 2.8256 0.12828 5.8042 0.67986 7.1034 1.3154 0.34333 0.16794 0.86523 0.5734 1.1598 0.901l0.53553 0.59564 2.3798-0.11669c1.3089-0.06418 3.8241-0.15428 5.5894-0.20021 1.7653-0.04594 3.2096-0.1172 3.2096-0.15834 0-0.21057-0.45787-0.67376-1.024-1.0359-1.6575-1.0603-5.0739-1.9855-9.9546-2.696-1.6522-0.2405-2.1244-0.25694-5.7593-0.20056-4.0409 0.06268-5.6702 0.20028-8.0793 0.68232-2.086 0.4174-2.0736 0.42704 0.76193 0.59283 1.4509 0.08483 2.6649 0.18314 2.6979 0.21846s-0.47994 0.03106-1.1398-0.0095c-0.65992-0.04053-1.9379-0.11001-2.84-0.15441l-1.6401-0.08072-0.0434 1.0076c-0.0505 1.1699 0.10345 5.49 0.2176 6.107 0.0763 0.41261 0.0824 0.4049 0.34538-0.44098 0.49062-1.5779 1.1792-2.4348 2.4089-2.9978 0.88267-0.4041 2.3552-0.56477 3.6894-0.40255 2.9746 0.36168 4.4294 1.4955 5.5828 4.3512 0.19848 0.49141 0.46822 0.41283 0.61779-0.17998zm8.1596 0.26814c1.5508-0.06013 5.0334-0.1739 7.739-0.25281 2.7057-0.07891 5.0409-0.18755 5.1894-0.24142 0.50665-0.1838 0.28112-0.34385-0.48453-0.34385h-0.7545l0.005-1.1099c0.002-0.61042-0.0364-1.4203-0.0864-1.7998l-0.091-0.68991h0.71388c0.79797 0 1.0363-0.17056 0.52529-0.37595-0.61713-0.24806-17.194 0.20487-18.289 0.4997-1.0302 0.27739-1.7468 1.2841-2.2611 3.1758-0.14349 0.52794-0.28865 1.0568-0.32256 1.1752-0.0584 0.20407 0.0788 0.2116 2.6178 0.14374 1.4737-0.03939 3.9483-0.12082 5.4991-0.18095zm-6.895-0.40024c-0.29421-0.21513-0.27062-0.74743 0.0767-1.7313 0.33031-0.93564 0.7278-1.3948 1.3659-1.5778 0.65542-0.18801 2.7721-0.29145 3.351-0.16377 0.45887 0.10122 0.48435 0.13202 0.62904 0.76039 0.0829 0.36019 0.13769 1.1138 0.12167 1.6748l-0.0291 1.0199-0.59993 0.07948c-0.32996 0.04371-1.521 0.08421-2.6467 0.08999-1.5432 0.0079-2.1014-0.02937-2.2685-0.15158zm1.7356-1.5777c0-0.96719-0.0447-1.4998-0.12594-1.4998-0.31666 0-0.81968 0.38754-1.0022 0.7721-0.53054 1.118-0.70061 2.0275-0.4017 2.1481 0.0825 0.03329 0.46044 0.06478 0.83989 0.06999l0.68991 0.0095v-1.4998zm2.6816 1.4222 0.91799-0.0776v-0.72247c0-0.39736-0.0588-1.0602-0.1307-1.473l-0.13069-0.7505-0.85919-0.07461c-0.47254-0.04104-1.1711-0.03169-1.5524 0.02076l-0.69325 0.09537-0.0266 1.5299-0.0266 1.5299 0.7918-0.000099c0.43549-0.000053 1.2049-0.03502 1.7098-0.0777zm1.9331-0.19148c-0.0392-0.1021-0.0541-0.39378-0.0333-0.64819l0.038-0.46256 1.7398-0.0791c0.95688-0.0435 3.6296-0.0975 5.9393-0.11998l4.1995-0.04088 0.0363 0.43502c0.0649 0.77661 0.0601 0.77773-3.6554 0.86633-1.837 0.0438-4.432 0.1146-5.7665 0.15733-2.1261 0.06807-2.4353 0.05471-2.4977-0.10795zm0.0811-2.0596c-0.0558-0.07206-0.16428-0.31717-0.24096-0.54468-0.23898-0.70909-0.18865-0.72181 3.3528-0.84741 5.0142-0.17782 8.3302-0.15579 8.5064 0.0565 0.22731 0.27389 0.2966 1.0722 0.10634 1.2251-0.23065 0.1854-11.584 0.2924-11.725 0.1105zm-41.3 1.8286c-0.55619-1.1058-0.99765-1.6061-1.7361-1.9674-0.36018-0.17622-0.65487-0.32792-0.65487-0.3371 0-0.0092 0.0485-0.18566 0.10768-0.39216 0.10464-0.36489 0.0954-0.3775-0.32996-0.44783-1.2303-0.20346-2.3149-0.0089-2.9948 0.53721-0.50745 0.40761-1.1837 1.4637-1.4226 2.2216l-0.20354 0.64571h-1.7539c-1.6803 0-2.0418 0.06799-2.0418 0.38395 0 0.05279 0.87812 0.09599 1.9514 0.09599h1.9514l0.14843-0.62992c0.26579-1.128 1.0597-1.9772 2.1162-2.2636 0.9195-0.24927 2.9058 0.09551 3.5514 0.61643 0.24277 0.19589 0.18557 0.18459-0.29996-0.05924-0.72067-0.36192-2.1989-0.60969-2.9582-0.49583-0.89274 0.13388-1.5696 0.64647-2.0055 1.5189-0.20659 0.4134-0.37279 0.8645-0.36935 1.0024 0.003 0.1414 0.10971-0.01823 0.24344-0.36595 0.2962-0.77019 1.2025-1.6524 1.8868-1.8367 1.0913-0.29387 3.3478 0.15314 3.8544 0.76354 0.0855 0.10308 0.20447 0.15719 0.26427 0.12024 0.0929-0.05741 0.59794 0.90783 0.88407 1.6896 0.0494 0.13507 0.11088 0.17872 0.14056 0.09986 0.029-0.07706-0.11923-0.48201-0.32941-0.89989zm-0.96641-1.1497c-0.14925-0.1903-0.14501-0.19455 0.0453-0.0453 0.19986 0.15674 0.26342 0.25528 0.16468 0.25528-0.025 0-0.11941-0.09449-0.20998-0.20997zm21.795 1.4998c-0.12934-0.74173-0.28143-4.9533-0.21617-5.9861 0.063-0.99795 0.0554-1.0399-0.20554-1.1227-0.15056-0.04779-0.30438-0.03241-0.34605 0.03458-0.0681 0.10952-11.511-0.05446-11.64-0.16681-0.18679-0.1628 0.83218-4.2449 1.4476-5.7994 0.72517-1.8316 0.83396-1.8865 3.8543-1.9445l2.2564-0.04328 0.46622 1.1111c0.62323 1.4853 1.5857 3.4144 2.578 5.1668 0.76122 1.3445 0.84096 1.4417 1.2182 1.4858 0.22203 0.02592 0.4037 0.03616 0.4037 0.02276 0-0.01341-0.1945-0.36702-0.43223-0.78581-0.72174-1.2714-1.7219-3.2926-2.6923-5.4409l-0.92142-2.0397-2.7464 0.03743c-1.5105 0.02059-2.8933 0.06502-3.0728 0.09874-0.25726 0.04832-0.42594 0.24368-0.79651 0.92245-1.4874 2.7246-2.5198 6.6096-2.6262 9.883-0.047 1.4468 0.12235 4.542 0.25621 4.682 0.0403 0.04219 8.2292 0.23501 10.847 0.25542l2.4351 0.01898-0.068-0.38995zm-13.005-4.2546-0.40408-0.05215 0.054-0.65112c0.0297-0.35812 0.0867-0.68387 0.12676-0.72389 0.04-0.04002 0.40257-0.03449 0.80566 0.01229l0.73288 0.08506-0.0356 0.67748-0.0356 0.67748-0.41994 0.01349c-0.23098 0.0074-0.60179-0.01-0.82405-0.03865zm19.513 4.3222c-0.11472-0.03003-0.33069-0.03112-0.47994-0.0024-0.14926 0.0287-0.0554 0.05327 0.20857 0.0546 0.26397 0.0013 0.38608-0.02215 0.27137-0.05218zm-34.428-0.972c0.51665-1.417 1.415-2.3924 2.4666-2.678 0.27943-0.07589 0.94437-0.10812 1.5413-0.0747l1.0499 0.05879v-0.81428c0-2.2834 0.98872-4.898 2.9239-7.7321 0.72163-1.0569 2.0874-2.6144 2.4738-2.8212 0.2452-0.13123 7.3854-0.56572 10.702-0.65125l2.4817-0.06399 0.21797 0.28948 0.21796 0.28948 2.8196-0.09557c3.215-0.10897 11.435 0.03703 12.237 0.21737 0.74463 0.16731 0.73564 0.0807-0.0206-0.19896-1.26-0.46593-3.9527-0.68315-10.057-0.81132-5.662-0.11888-12.823 0.19821-19.258 0.85273-4.3138 0.4388-6.5302 0.73579-7.0791 0.94858-0.26397 0.10234-0.34496 0.16167-0.17998 0.13185 1.1173-0.20195 6.4659-0.72256 6.5509-0.63763 0.0169 0.01697-0.3204 0.43522-0.74969 0.92947-1.1738 1.3514-2.0102 2.468-3.4015 4.5409-1.0214 1.5218-1.3477 1.92-1.7241 2.1038-0.39524 0.19299-0.85788 0.2376-3.1112 0.29996l-2.6469 0.07325-0.10589 0.35996c-0.19225 0.65358-0.25625 4.0618-0.0951 5.0665 0.0823 0.51302 0.17406 0.97326 0.20399 1.0228 0.0299 0.04949 0.55693 0.08999 1.1711 0.08999h1.1167l0.2537-0.6958zm61.767-0.714c-0.12056-1.7629-0.1442-1.8298-0.64687-1.8298h-0.42267l0.0757 0.62992c0.0416 0.34646 0.0762 1.0214 0.0767 1.4998l0.0008 0.86989h0.49806 0.49807l-0.08-1.1699zm-2.9691-2.794 2.5929-0.0043-0.35995-0.29812c-1.3471-1.1157-5.8158-2.3281-11.459-3.1089-0.7589-0.10501-1.6228-0.23977-1.9198-0.29945-0.29696-0.05969-1.3498-0.13492-2.3397-0.1672l-1.7998-0.05868 2.2797 0.39665c5.0587 0.88017 7.7899 1.8328 8.8561 3.089 0.48993 0.5772 0.51608 0.5905 1.0294 0.5238 0.28967-0.03764 1.6935-0.07038 3.1196-0.07275zm-20.024-4.852c0-0.15345-0.76463-0.42303-1.1998-0.42303-0.43523 0-1.1998 0.26958-1.1998 0.42303 0 0.0313 0.53993 0.05691 1.1998 0.05691 0.65991 0 1.1998-0.02561 1.1998-0.05691zm4.6194-0.8614c-1.3268-1.2538-4.1892-3.5521-4.2387-3.4034-0.11271 0.33814-2.1406 0.04393-3.2003-0.4643-0.75037-0.35988-1.3798-0.5271-1.3798-0.36654 0 0.35722 0.1759 0.47312 0.71805 0.47312 0.63643 0 0.88281 0.18707 0.82097 0.62332-0.0338 0.23895-0.1181 0.2816-0.61929 0.31356-0.42207 0.02691-0.56348 0.08026-0.51912 0.19586 0.0335 0.08738 0.23259 0.79965 0.44235 1.5828 0.20976 0.78316 0.39513 1.4387 0.41194 1.4567 0.0168 0.01805 0.26777-0.10279 0.55768-0.26852 0.93834-0.53639 2.2086-0.33798 2.7795 0.43413l0.25249 0.34152 2.4671-0.0056 2.4671-0.0056-0.95988-0.90708zm-39.317-4.9017c0.19607-0.16498 0.42968-0.30422 0.51914-0.30944 0.10903-0.0063 0.11616-0.02844 0.0217-0.067-0.15562-0.06349-1.0585 0.36176-1.1778 0.5547-0.14717 0.23812 0.2863 0.11681 0.63697-0.17826zm0.6818 0.05999c0.0408-0.06599-0.007-0.11998-0.10582-0.11998-0.099 0-0.21335 0.05399-0.25414 0.11998-0.0408 0.06599 0.007 0.11999 0.10583 0.11999 0.099 0 0.21334-0.05399 0.25413-0.11999zm0.87806-0.29996c0.11411-0.25046 0.2196-0.29996 0.63917-0.29996 0.27639 0 0.46895-0.03357 0.42793-0.0746-0.041-0.04103-0.49548-0.03069-1.0099 0.02297-0.51441 0.05366-0.81379 0.11798-0.66531 0.14293 0.30289 0.05091 0.33803 0.1526 0.12598 0.36464-0.11199 0.11199-0.0896 0.14398 0.10072 0.14398 0.14459 0 0.30063-0.12273 0.38139-0.29996zm2.6615 0.0052c2.2131-0.24296 5.3676-0.5259 8.099-0.72646l2.2797-0.16739-1.7998 0.05737c-2.0295 0.0647-5.7202 0.31853-8.7589 0.60243-1.4564 0.13606-2.0912 0.2423-2.2197 0.37145-0.16028 0.16108-0.12744 0.1732 0.29996 0.11066 0.26397-0.03863 1.2088-0.15025 2.0997-0.24805zm-0.68992-0.50984c-0.14847-0.0286-0.39144-0.0286-0.53993 0-0.14848 0.0286-0.0269 0.05199 0.26997 0.05199 0.29696 0 0.41845-0.0234 0.26996-0.05199zm1.3215-0.11977c-0.14758-0.02848-0.41754-0.02922-0.59993-0.0016-0.18238 0.02758-0.0617 0.05088 0.26832 0.05178 0.32996 0.00088 0.47918-0.02166 0.33161-0.05015zm1.3782-0.12146c-0.18147-0.02749-0.47844-0.02749-0.65992 0-0.18147 0.02749-0.033 0.04999 0.32996 0.04999 0.36295 0 0.51144-0.02249 0.32996-0.04999zm5.6093-0.33282c2.2846-0.14298 2.6754-0.14207 2.9054 0.0068 0.14616 0.0946 0.41613 0.1708 0.59992 0.16933l0.33418-0.0026-0.29996-0.24624-0.29996-0.24624 4.7394 0.04385c2.6067 0.02412 4.1725 0.0078 3.4796-0.03635-2.067-0.13158-8.5029-0.1192-10.406 0.02002-0.97473 0.07129-2.7981 0.23058-4.052 0.35396-2.5372 0.24967-1.7135 0.23252 2.9996-0.06246zm9.2888-0.0165c0.0275-0.02457-1.123-0.04467-2.5568-0.04467-1.8317 0-2.583 0.03843-2.5269 0.12923 0.0557 0.09004 0.83113 0.10359 2.5568 0.04467 1.3623-0.04651 2.4994-0.10466 2.5269-0.12923zm4.7808-0.12712c-0.11471-0.03003-0.33069-0.03112-0.47994-0.0024-0.14925 0.0287-0.0554 0.05327 0.20857 0.0546 0.26397 0.0014 0.38608-0.02215 0.27137-0.05219z"/>
 </g>
</svg>
