<?xml version="1.0" encoding="UTF-8" standalone="no"?>
<!-- Created with Inkscape (http://www.inkscape.org/) -->
<svg id="svg2" xmlns:rdf="http://www.w3.org/1999/02/22-rdf-syntax-ns#" xmlns="http://www.w3.org/2000/svg" height="45" width="67.5" version="1.1" xmlns:cc="http://creativecommons.org/ns#" xmlns:dc="http://purl.org/dc/elements/1.1/">
 <metadata id="metadata7">
  <rdf:RDF>
   <cc:Work rdf:about="">
    <dc:format>image/svg+xml</dc:format>
    <dc:type rdf:resource="http://purl.org/dc/dcmitype/StillImage"/>
    <dc:title/>
   </cc:Work>
  </rdf:RDF>
 </metadata>
 <g id="g43185">
  <rect id="rect2990" opacity="0" height="45" width="67.5" y="0" x="3.5527e-15"/>
  <g id="g42956" transform="matrix(.90766 0 0 .90766 -11.179 -2.0067)">
   <path id="path80393" d="m49.499 39.248c-22.17 0-30.664 0.30795-31.463 0.73896-0.8005 0.43128-2.4633 0.8005-3.1407 0.30795-0.67663-0.49282-0.18408-1.1694-0.12227-2.1551 0.06154-0.98564-0.06153-1.9713-0.30794-3.3885-0.24614-1.4145-0.73896-2.4614-0.73896-2.4614-0.89294-2.1258-1.0775-4.6197-1.2009-6.1285-0.12307-1.5088 1.0469-4.0952 2.6173-5.6349 0 0-0.12307-0.18461-0.70806-0.36948-0.43528-0.13746-1.6319-1.9092-1.324-2.8637 0.61429-1.9047 4.0643-2.2478 6.8355-2.2478 0 0 3.0757-3.3911 6.774-6.4045 3.3256-2.7092 7.6928-3.941 22.779-3.941 15.088 0 19.455 1.2318 22.781 3.9412 3.6983 3.0134 6.774 6.4045 6.774 6.4045 2.7712 0 6.2212 0.34284 6.8358 2.2478 0.30795 0.95447-0.88867 2.7262-1.324 2.8637-0.58499 0.18461-0.70833 0.36948-0.70833 0.36948 1.5704 1.5397 2.7403 4.1261 2.6173 5.6349-0.12307 1.5088-0.30794 4.0028-1.2009 6.1275 0 0-0.49255 1.0469-0.73896 2.4633s-0.36948 2.4018-0.30795 3.3871c0.06154 0.98537 0.55436 1.6628-0.12307 2.1554-0.67743 0.49255-2.3402 0.12307-3.1407-0.30795-0.8005-0.43128-9.294-0.73923-31.463-0.73923z" stroke="#000" stroke-width=".39958" fill="#fff"/>
   <line id="line80395" x2="81.152" y1="22.712" x1="81.335" y2="26.715"/>
   <polygon id="polygon80397" points="174.82 45.367 173.2 43.055 218.51 44.211 215.97 46.523" transform="matrix(.26639 0 0 .26639 12.317 4.5)"/>
   <path id="path80399" stroke-width=".39958" d="m79.055 15.046c0.47444 0.61163 1.5235 0.23709 1.8783 1.4779 0.2592 0.90572 0.36948 1.4779 1.3549 2.4633 0.98537 0.98537 1.5704 1.5395 1.5704 1.5395s0.18461-0.18461 0.49255-0.27704c0.30794-0.09244 1.2318-0.89294 1.4779-1.9705 0.24641-1.0778 0-1.8783-1.6628-2.5251-1.6628-0.64679-4.0952-0.67743-5.1112-0.70806z" stroke="#000"/>
   <path id="path80401" fill="#fff" d="m81.181 15.384c-0.58206-0.05807-0.70833 0.18487-0.70833 0.18487s1.1393 0.27704 2.1863 0.49255c1.0469 0.21551 2.3402 0.67743 2.3402 1.3549 0 0.59804 0.21551 1.4779 0.43102 0.8623 0.21551-0.61589 0.18461-1.0469-0.33858-1.7243-0.24108-0.31194-1.1393-0.70833-2.0629-0.86203-0.92384-0.15424-1.5397-0.27731-1.8477-0.30821z"/>
   <path id="path80403" d="m81.365 31.949c0.22057 0 0.39958-0.17875 0.39958-0.39958l0.43102-0.8021c0-0.22084-0.17901-0.39958-0.39958-0.39958h-6.0364c-0.22057 0-0.89214 0.17875-0.89214 0.39958v0.8021c0 0.22057 0.17875 0.39958 0.39958 0.39958h6.0982z" stroke="#000" stroke-width=".13319" fill="#fff"/>
   <g id="g42844" stroke-width=".13319" stroke="#000" fill="none">
    <path id="path80405" d="m81.621 32.188c0.24108 0 0.43661-0.23495 0.43661-0.52452l0.47098-1.0528c0-0.28956-0.19553-0.52452-0.43661-0.52452h-6.5945c-0.24108 0-0.97472 0.23496-0.97472 0.52452v1.0528c0 0.28956 0.19526 0.52452 0.43661 0.52452h6.6616z"/>
    <path id="path80407" d="m71.165 16.04s-2.9969 3.3863-3.836 4.3456c-0.83912 0.95927 2.0978-2.6972 1.7382-3.0568-0.35962-0.35962-0.959-0.17981-0.959-0.17981l-8.8121-0.08977c-0.4795 0-0.83912-0.0301-1.0789-0.5096-0.23975-0.4795-0.77919-0.959 0.23975-0.959s11.568 0.23975 15.644 0.59938c4.0757 0.35962 4.9149 0.05994 5.5742 0.4795 0.65931 0.41956 0.17981 0.77919 0.65931 0.959s1.1988 0.29969 1.1988 0.29969"/>
    <path id="path80409" d="m79.676 16.669c-0.3-0.359-1.618-1.198-1.618-1.198"/>
    <path id="path80411" d="m80.155 17.509s1.121 3.3453 1.1812 5.2034"/>
    <path id="path80413" d="m81.594 26.739c0.77919 0.77919 0.4795 2.3376 0.4795 2.3376"/>
    <path id="path80415" d="m83.363 19.966c1.7981 2.1578-1.4385 7.7919-2.877 8.5111-1.1988 0.59938-4.3155 0.88175-4.3155 0.88175"/>
   </g>
   <path id="path80417" d="m81.242 26.685c-1.4779 0.24641-11.762 0.43102-13.548 0.24641-1.4089-0.14572-1.9092-0.12307-1.2931-1.7859 0.61589-1.6628 2.5248-2.7097 7.8209-2.9561 5.2961-0.24614 7.205 0.49282 7.205 0.49282 1.6319 0.98537 2.8021 2.2169 2.2478 3.1407-0.55409 0.92357-2.4324 0.86203-2.4324 0.86203z"/>
   <path id="path80419" d="m49.499 39.277c-22.17 0-30.603 0.30795-31.405 0.73896-0.8005 0.43102-2.4633 0.8005-3.1407 0.30794-0.67743-0.49255-0.18461-1.1702-0.12307-2.1554 0.06154-0.98537-0.06154-1.9705-0.30795-3.3869s-0.73896-2.4633-0.73896-2.4633c-0.18487 0.98537-0.12307 6.2814 0.06154 9.5452 0.18487 3.2638 0.18487 7.6363 2.6482 7.6363h7.6696c0.4795 0 0.64439-0.74962 0.64439-0.74962l-0.05994 0.74962h5.2324c1.2318 0 1.2933-1.8477 1.2933-1.8477v-1.9092s0.18461-0.61589 0.98537-0.67743c0.8005-0.06154 4.3107-0.18461 5.4191 0.06153s2.3402 0.36948 2.7712-0.12307c0.43102-0.49255 9.0476-0.43102 9.0476-0.43102h0.0032s8.6166-0.06154 9.0476 0.43102c0.43102 0.49255 1.6628 0.36948 2.7712 0.12307s4.6186-0.12307 5.4194-0.06153c0.8005 0.06153 0.98537 0.67743 0.98537 0.67743v1.9092s0.06154 1.8477 1.2931 1.8477h5.2324l-0.05994-0.74962s0.1649 0.74962 0.6444 0.74962h7.6699c2.4633 0 2.4633-4.3725 2.6479-7.6363 0.18461-3.2638 0.24641-8.5599 0.06154-9.5452 0 0-0.49282 1.0469-0.73896 2.4633s-0.36948 2.4018-0.30794 3.3869c0.06154 0.98537 0.55436 1.6628-0.12307 2.1554-0.67743 0.49282-2.3402 0.12307-3.1407-0.30794-0.8005-0.43102-9.2341-0.73896-31.405-0.73896z"/>
   <line id="line80421" x2="17.85" y1="22.712" x1="17.665" y2="26.715"/>
   <polygon id="polygon80423" points="104.35 45.367 105.97 43.055 60.658 44.211 63.2 46.523" transform="matrix(.26639 0 0 .26639 12.317 4.5)"/>
   <path id="path80425" stroke-width=".39958" d="m19.946 15.046c-0.47444 0.61163-1.5235 0.23709-1.8783 1.4779-0.25893 0.90572-0.36948 1.4779-1.3549 2.4633-0.98537 0.98537-1.5704 1.5395-1.5704 1.5395s-0.18461-0.18461-0.49255-0.27704c-0.30795-0.09244-1.2318-0.89294-1.4782-1.9705-0.24641-1.0778 0-1.8783 1.6628-2.5251 1.6628-0.64679 4.0952-0.67743 5.1115-0.70806z" stroke="#000"/>
   <path id="path80427" fill="#fff" d="m17.821 15.384c0.58233-0.05807 0.70833 0.18487 0.70833 0.18487s-1.1393 0.27704-2.1863 0.49255c-1.0469 0.21551-2.3402 0.67743-2.3402 1.3549 0 0.59804-0.21551 1.4779-0.43102 0.8623-0.21551-0.61589-0.18487-1.0469 0.33858-1.7243 0.24108-0.31194 1.1391-0.70833 2.0629-0.86203 0.9241-0.15424 1.5397-0.27731 1.8477-0.30821z"/>
   <path id="path80429" d="m17.636 31.949c-0.22084 0-0.39958-0.17875-0.39958-0.39958l-0.431-0.8c0-0.22084 0.17875-0.39958 0.39958-0.39958h6.0364c0.22084 0 0.8924 0.17875 0.8924 0.39958v0.8021c0 0.22057-0.17901 0.39958-0.39958 0.39958h-6.0982z" stroke="#000" stroke-width=".13319" fill="#fff"/>
   <path id="path80431" d="m17.38 32.188c-0.24108 0-0.43661-0.23495-0.43661-0.52452l-0.47098-1.0528c0-0.28956 0.19526-0.52452 0.43661-0.52452h6.5945c0.24108 0 0.97472 0.23496 0.97472 0.52452v1.0528c0 0.28956-0.19553 0.52452-0.43661 0.52452h-6.6616z" stroke="#000" stroke-width=".13319" fill="none"/>
   <path id="path80433" d="m49.499 14.861c-12.808 0-28.999 0.8005-28.999 0.8005 2.0938-2.5248 4.5571-4.9266 6.8358-6.7125 2.2784-1.7859 5.2295-3.6951 22.166-3.6951 16.935 0 19.886 1.9092 22.165 3.6951 2.2784 1.7859 4.7417 4.1876 6.8355 6.7125-0.000267 0-16.191-0.8005-29.002-0.8005z"/>
   <path id="path80435" stroke-width=".13319" d="m49.499 35.769c-7.9442 0-16.181 0.08365-17.821-0.49255-2.2787-0.8005-3.5102-3.7566-1.6013-3.8797 1.9092-0.12307 19.434 0.24614 19.434 0.24614s17.506-0.36948 19.415-0.24614c1.9092 0.12307 0.67743 3.0792-1.601 3.8797-1.6404 0.5762-9.8774 0.49255-17.822 0.49255h-0.0032z" stroke="#000"/>
   <g id="g42862" stroke-width=".13319" fill="none">
    <path id="path80437" d="m14.896 40.295c3.2305 2.3874 9.6736 2.5672 34.607 2.5672h-0.0067c24.934 0 31.378-0.17981 34.609-2.5672" stroke="#808080"/>
    <path id="path80439" d="m49.494 14.457c-12.169 0-27.843 0.72857-27.843 0.72857 1.9891-2.2976 4.3291-4.4833 6.4938-6.1083s5.2617-3.3626 21.35-3.3626h0.01199c16.088 0 19.186 1.7374 21.35 3.3626 2.1644 1.6252 4.5046 3.8107 6.4938 6.1083 0 0-15.675-0.72857-27.843-0.72857h-0.01199z" stroke="#fff"/>
    <g id="g42866" stroke="#000">
     <path id="path80441" d="m12.852 29.076s0.65931 0.41956 3.836 0.59938c3.1767 0.17981 25.234 0.41956 32.787 0.41956h0.05328c7.5521 0 29.609-0.23975 32.787-0.41956 3.1767-0.17981 3.836-0.59938 3.836-0.59938"/>
     <path id="path80443" d="m12.852 28.597s0.65931 0.41956 3.836 0.59938c3.1767 0.17981 25.234 0.41956 32.787 0.41956h0.05328c7.5521 0 29.609-0.23975 32.787-0.41956 3.1767-0.17981 3.836-0.59938 3.836-0.59938"/>
     <path id="path80445" d="m27.837 16.04s2.9969 3.3863 3.836 4.3456c0.83912 0.959-2.0978-2.6972-1.7382-3.0568 0.35962-0.35962 0.959-0.17981 0.959-0.17981l8.8108-0.08977c0.4795 0 0.83912-0.0301 1.0789-0.5096 0.23975-0.4795 0.77919-0.959-0.23975-0.959s-11.568 0.23975-15.644 0.59938c-4.0757 0.35962-4.9149 0.05994-5.5742 0.4795-0.65931 0.41956-0.17981 0.77919-0.65931 0.959s-1.1988 0.29969-1.1988 0.29969"/>
     <path id="path80447" d="m19.326 16.669c0.29969-0.35962 1.6183-1.1987 1.6183-1.1987"/>
     <path id="path80449" d="m18.846 17.509s-1.1212 3.3453-1.1812 5.2034"/>
     <path id="path80451" d="m17.407 26.739c-0.77919 0.77919-0.4795 2.3376-0.4795 2.3376"/>
     <path id="path80453" d="m29.425 22.783c0.71925-0.35962 13.786-0.59938 20.079-0.59938h-0.0067c6.2934 0 19.36 0.23975 20.079 0.59938"/>
     <path id="path80455" d="m30.076 31.395c-1.6183 0-1.8501 0.31754-1.7901 1.4563 0.05994 1.1388 1.0789 3.1767 2.5174 3.2966 1.4385 0.11988 18.641 0.29969 18.641 0.29969h0.11322s17.202-0.17981 18.641-0.29969c1.4385-0.11988 2.4574-2.1577 2.5174-3.2966 0.05994-1.1388-0.17182-1.4563-1.7901-1.4563"/>
    </g>
   </g>
   <g id="g42876" stroke-width=".13319" stroke="#000">
    <path id="path80459" fill="#fff" d="m31.803 34.29c-0.22084 0-0.39958-0.17875-0.39958-0.39958v-1.1188c0-0.22084 0.17875-0.39958 0.39958-0.39958h5.3145c0.22084 0 0.39958 0.17875 0.39958 0.39958v1.1188c0 0.22084-0.17875 0.39958-0.39958 0.39958h-5.3145z"/>
    <path id="path80461" fill="#fff" d="m34.46 33.331"/>
    <path id="path80463" fill="none" d="m28.436 35.129c-10.549 0.4795-12.21 2.2337-11.088 2.8171 1.4984 0.77919 30.07 0.87482 32.126 0.77919h0.05328c2.0576 0.09563 30.629 0 32.126-0.77919 1.1218-0.58339-0.53944-2.3376-11.088-2.8171"/>
    <path id="path80465" fill="none" d="m15.639 19.966c-1.7981 2.1578 1.4385 7.7919 2.877 8.5111 1.1988 0.59938 4.3155 0.88175 4.3155 0.88175"/>
   </g>
   <path id="path80467" d="m17.76 26.685c1.4779 0.24641 11.762 0.43102 13.548 0.24641 1.4089-0.14572 1.9092-0.12307 1.2933-1.7859-0.61589-1.6628-2.5251-2.7097-7.8209-2.9561-5.2961-0.24614-7.2053 0.49282-7.2053 0.49282-1.6319 0.98537-2.8019 2.2169-2.2478 3.1407 0.55436 0.92357 2.4327 0.86203 2.4327 0.86203z"/>
   <g id="g42883" stroke="#000">
    <polygon id="polygon80469" transform="matrix(.26639 0 0 .26639 12.317 4.5)" points="139.48 83.707 136.11 83.707 135.21 75.157 139.48 75.157 139.69 75.157 143.96 75.157 143.06 83.707 139.69 83.707" stroke-width=".5" fill="none"/>
    <path id="path80473" stroke-width=".13319" fill="#fff" d="m67.198 34.29c0.22084 0 0.39958-0.17875 0.39958-0.39958v-1.1188c0-0.22084-0.17901-0.39958-0.39958-0.39958h-5.3145c-0.22057 0-0.39958 0.17875-0.39958 0.39958v1.1188c0 0.22084 0.17901 0.39958 0.39958 0.39958h5.3145z"/>
    <path id="path80475" stroke-width=".13319" fill="#fff" d="m64.542 33.331"/>
   </g>
   <polygon id="polygon80477" transform="matrix(.26639 0 0 .26639 12.317 4.5)" stroke="#fff" points="139.85 104.86 135.91 104.86 135.91 107.11 130.43 107.11 128.05 112.28 135.8 112.28 135.8 114.31 139.85 114.31 139.82 114.31 143.87 114.31 143.87 112.28 149.22 112.28 151.58 107.11 143.76 107.11 143.76 104.86 139.82 104.86" fill="none"/>
   <g id="g42889" fill="#fff">
    <path id="path80479" d="m74.529 26.069c-0.22057 0-0.39958-0.17875-0.39958-0.39958v-2.4646c0-0.22084 0.17901-0.39958 0.39958-0.39958h5.7287c0.22057 0 0.39958 0.17875 0.39958 0.39958l-0.06153 2.4646c0 0.22084-0.17875 0.39958-0.39958 0.39958h-5.6661z"/>
    <path id="path80481" d="m72.252 26.069c0.22057 0 0.39958-0.17875 0.39958-0.39958v-2.4646c0-0.22084-0.17901-0.39958-0.39958-0.39958l-1.9105 0.30795c-2.0008 0.61589-2.9244 1.1702-3.1093 1.6926l-0.36948 0.86363c0 0.22084 0.17875 0.39958 0.39958 0.39958h4.9897z"/>
    <path id="path80483" d="m81.887 23.483-0.12307 2.7094s1.1084 0.06154 1.4164-0.49255c0.30794-0.55409-0.18487-1.3549-1.2933-2.2169z"/>
    <path id="path80485" d="m24.473 26.069c0.22084 0 0.39958-0.17875 0.39958-0.39958v-2.4646c0-0.22084-0.17875-0.39958-0.39958-0.39958h-5.7287c-0.22084 0-0.39958 0.17875-0.39958 0.39958l0.06154 2.4646c0 0.22084 0.17875 0.39958 0.39958 0.39958h5.6672z"/>
    <path id="path80487" d="m26.75 26.069c-0.22084 0-0.39958-0.17875-0.39958-0.39958v-2.4646c0-0.22084 0.17875-0.39958 0.39958-0.39958l1.9105 0.30795c2.0006 0.61589 2.9244 1.1702 3.109 1.6926l0.36948 0.86363c0 0.22084-0.17901 0.39958-0.39958 0.39958h-4.9895z"/>
    <path id="path80489" d="m17.113 23.483 0.12307 2.7094s-1.1084 0.06154-1.4164-0.49255c-0.30795-0.55436 0.18487-1.3549 1.2933-2.2169z"/>
   </g>
  </g>
 </g>
</svg>
