<?xml version="1.0" encoding="UTF-8" standalone="no"?>
<!-- Created with Inkscape (http://www.inkscape.org/) -->
<svg id="svg2" xmlns:rdf="http://www.w3.org/1999/02/22-rdf-syntax-ns#" xmlns="http://www.w3.org/2000/svg" height="54" width="99" version="1.1" xmlns:cc="http://creativecommons.org/ns#" xmlns:dc="http://purl.org/dc/elements/1.1/">
 <metadata id="metadata7">
  <rdf:RDF>
   <cc:Work rdf:about="">
    <dc:format>image/svg+xml</dc:format>
    <dc:type rdf:resource="http://purl.org/dc/dcmitype/StillImage"/>
    <dc:title/>
   </cc:Work>
  </rdf:RDF>
 </metadata>
 <g id="g3491">
  <g id="g3871">
   <g id="g4614">
    <g id="g5219">
     <g id="g5689">
      <g id="g6406">
       <g id="g7263">
        <g id="g8053">
         <g id="g8717">
          <g id="g9406">
           <g id="g9898">
            <g id="g10207">
             <g id="g10407">
              <rect id="rect2990" opacity="0" height="54" width="99" y="0" x="0"/>
              <g id="layer1" transform="matrix(0.82631064,0,0,0.82631064,236.2372,-53.604351)">
               <g id="logo13" transform="matrix(0.3223834,0,0,0.3223834,-270.98818,70.317805)">
                <path id="path80393" d="m139.58,130.44c-83.223,0-115.11,1.156-118.11,2.774-3.005,1.619-9.247,3.005-11.79,1.156-2.54-1.85-0.691-4.39-0.459-8.09,0.231-3.7-0.231-7.4-1.156-12.72-0.924-5.31-2.774-9.24-2.774-9.24-3.352-7.98-4.045-17.342-4.508-23.006-0.462-5.664,3.93-15.373,9.825-21.153,0,0-0.462-0.693-2.658-1.387-1.634-0.516-6.126-7.167-4.97-10.75,2.306-7.15,15.257-8.438,25.66-8.438,0,0,11.546-12.73,25.429-24.042,12.484-10.17,28.878-14.794,85.511-14.794,56.638,0,73.033,4.624,85.516,14.795,13.883,11.312,25.429,24.042,25.429,24.042,10.403,0,23.354,1.287,25.661,8.438,1.156,3.583-3.336,10.234-4.97,10.75-2.196,0.693-2.659,1.387-2.659,1.387,5.895,5.78,10.287,15.489,9.825,21.153s-1.156,15.026-4.508,23.002c0,0-1.849,3.93-2.774,9.247s-1.387,9.016-1.156,12.715,2.081,6.242-0.462,8.091-8.785,0.462-11.79-1.156c-3.005-1.619-34.889-2.775-118.11-2.775z" stroke="#000" stroke-width="1.5" fill="#FFF"/>
                <line id="line80395" y1="68.366" x2="258.4" x1="259.09" y2="83.392"/>
                <polygon id="polygon80397" points="174.82,45.367,173.2,43.055,218.51,44.211,215.97,46.523"/>
                <path id="path80399" d="m250.53,39.588c1.781,2.296,5.719,0.89,7.051,5.548,0.973,3.4,1.387,5.548,5.086,9.247s5.895,5.779,5.895,5.779,0.693-0.693,1.849-1.04,4.624-3.352,5.548-7.397c0.925-4.046,0-7.051-6.242-9.479s-15.373-2.543-19.187-2.658z" stroke-width="1.5" stroke="#000"/>
                <path id="path80401" d="m258.51,40.859c-2.185-0.218-2.659,0.694-2.659,0.694s4.277,1.04,8.207,1.849,8.785,2.543,8.785,5.086c0,2.245,0.809,5.548,1.618,3.237,0.809-2.312,0.693-3.93-1.271-6.473-0.905-1.171-4.277-2.659-7.744-3.236-3.468-0.579-5.78-1.041-6.936-1.157z" fill="#FFF"/>
                <path id="path80403" d="m259.2,103.04c0.828,0,1.5-0.671,1.5-1.5l1.618-3.011c0-0.829-0.672-1.5-1.5-1.5h-22.66c-0.828,0-3.349,0.671-3.349,1.5v3.011c0,0.828,0.671,1.5,1.5,1.5h22.892z" stroke="#000" stroke-width="0.5" fill="#FFF"/>
                <path id="path80405" d="m260.16,103.94c0.905,0,1.639-0.882,1.639-1.969l1.768-3.952c0-1.087-0.734-1.969-1.639-1.969h-24.755c-0.905,0-3.659,0.882-3.659,1.969v3.952c0,1.087,0.733,1.969,1.639,1.969h25.007z" stroke="#000" stroke-width="0.5" fill="none"/>
                <path id="path80407" d="m220.91,43.32s-11.25,12.712-14.4,16.313,7.875-10.125,6.525-11.475-3.6-0.675-3.6-0.675l-33.08-0.337c-1.8,0-3.15-0.113-4.05-1.913s-2.925-3.6,0.9-3.6,43.425,0.9,58.725,2.25,18.45,0.225,20.925,1.8,0.675,2.925,2.475,3.6,4.5,1.125,4.5,1.125" stroke="#000" stroke-width="0.5" fill="none"/>
                <path id="path80409" d="m252.86,45.683c-1.125-1.35-6.075-4.5-6.075-4.5" stroke="#000" stroke-width="0.5" fill="none"/>
                <path id="path80411" d="m254.66,48.833s4.208,12.558,4.434,19.533" stroke="#000" stroke-width="0.5" fill="none"/>
                <path id="path80413" d="m260.06,83.482c2.925,2.925,1.8,8.775,1.8,8.775" stroke="#000" stroke-width="0.5" fill="none"/>
                <path id="path80415" d="m266.7,58.058c6.75,8.1-5.4,29.25-10.8,31.95-4.5,2.25-16.2,3.31-16.2,3.31" stroke="#000" stroke-width="0.5" fill="none"/>
                <path id="path80417" d="m258.74,83.28c-5.548,0.925-44.155,1.618-50.859,0.925-5.289-0.547-7.167-0.462-4.854-6.704,2.312-6.242,9.478-10.172,29.359-11.097,19.881-0.924,27.047,1.85,27.047,1.85,6.126,3.699,10.519,8.322,8.438,11.79-2.08,3.467-9.131,3.236-9.131,3.236z"/>
                <path id="path80419" d="m139.58,130.55c-83.223,0-114.88,1.156-117.89,2.774-3.005,1.618-9.247,3.005-11.79,1.156s-0.693-4.393-0.462-8.091c0.231-3.699-0.231-7.397-1.156-12.714s-2.774-9.247-2.774-9.247c-0.694,3.699-0.462,23.58,0.231,35.832,0.694,12.252,0.694,28.666,9.941,28.666h28.791c1.8,0,2.419-2.814,2.419-2.814l-0.225,2.814h19.642c4.624,0,4.855-6.936,4.855-6.936v-7.167s0.693-2.312,3.699-2.543c3.005-0.231,16.182-0.693,20.343,0.231s8.785,1.387,10.403-0.462,33.964-1.618,33.964-1.618h0.012s32.346-0.231,33.964,1.618,6.242,1.387,10.403,0.462,17.338-0.462,20.344-0.231c3.005,0.231,3.699,2.543,3.699,2.543v7.167s0.231,6.936,4.854,6.936h19.642l-0.225-2.814s0.619,2.814,2.419,2.814h28.792c9.247,0,9.247-16.414,9.94-28.666s0.925-32.133,0.231-35.832c0,0-1.85,3.93-2.774,9.247s-1.387,9.016-1.156,12.714c0.231,3.699,2.081,6.242-0.462,8.091-2.543,1.85-8.785,0.462-11.79-1.156s-34.664-2.774-117.89-2.774z"/>
                <line id="line80421" y1="68.366" x2="20.771" x1="20.077" y2="83.392"/>
                <polygon id="polygon80423" points="104.35,45.367,105.97,43.055,60.658,44.211,63.2,46.523"/>
                <path id="path80425" d="m28.64,39.588c-1.781,2.296-5.719,0.89-7.051,5.548-0.972,3.4-1.387,5.548-5.086,9.247s-5.895,5.779-5.895,5.779-0.693-0.693-1.849-1.04-4.624-3.352-5.549-7.397c-0.925-4.046,0-7.051,6.242-9.479s15.373-2.543,19.188-2.658z" stroke-width="1.5" stroke="#000"/>
                <path id="path80427" d="m20.664,40.859c2.186-0.218,2.659,0.694,2.659,0.694s-4.277,1.04-8.207,1.849-8.785,2.543-8.785,5.086c0,2.245-0.809,5.548-1.618,3.237-0.809-2.312-0.694-3.93,1.271-6.473,0.905-1.171,4.276-2.659,7.744-3.236,3.469-0.579,5.78-1.041,6.936-1.157z" fill="#FFF"/>
                <path id="path80429" d="m19.968,103.04c-0.829,0-1.5-0.671-1.5-1.5l-1.618-3.006c0-0.829,0.671-1.5,1.5-1.5h22.66c0.829,0,3.35,0.671,3.35,1.5v3.011c0,0.828-0.672,1.5-1.5,1.5h-22.892z" stroke="#000" stroke-width="0.5" fill="#FFF"/>
                <path id="path80431" d="m19.005,103.94c-0.905,0-1.639-0.882-1.639-1.969l-1.768-3.952c0-1.087,0.733-1.969,1.639-1.969h24.755c0.905,0,3.659,0.882,3.659,1.969v3.952c0,1.087-0.734,1.969-1.639,1.969h-25.007z" stroke="#000" stroke-width="0.5" fill="none"/>
                <path id="path80433" d="M139.58,38.894c-48.079,0-108.86,3.005-108.86,3.005,7.86-9.478,17.107-18.494,25.661-25.198,8.553-6.704,19.631-13.871,83.209-13.871,63.573,0,74.651,7.167,83.205,13.871,8.553,6.704,17.8,15.72,25.66,25.198-0.001,0-60.781-3.005-108.87-3.005z"/>
                <path id="path80435" d="m139.58,117.38c-29.822,0-60.743,0.314-66.9-1.849-8.554-3.005-13.177-14.102-6.011-14.564,7.167-0.462,72.953,0.924,72.953,0.924s65.715-1.387,72.881-0.924c7.167,0.462,2.543,11.559-6.01,14.564-6.158,2.163-37.079,1.849-66.901,1.849h-0.012z" stroke-width="0.5" stroke="#000"/>
                <path id="path80437" d="m9.684,134.37c12.127,8.962,36.314,9.637,129.91,9.637h-0.025c93.6,0,117.79-0.675,129.92-9.637" stroke="#808080" stroke-width="0.5" fill="none"/>
                <path id="path80439" d="m139.56,37.378c-45.68,0-104.52,2.735-104.52,2.735,7.467-8.625,16.251-16.83,24.377-22.93s19.752-12.623,80.147-12.623h0.045c60.394,0,72.021,6.522,80.146,12.623s16.91,14.305,24.377,22.93c0,0-58.844-2.735-104.52-2.735h-0.045z" stroke="#FFF" stroke-width="0.5" fill="none"/>
                <path id="path80441" d="m2.011,92.257s2.475,1.575,14.4,2.25,94.725,1.575,123.08,1.575h0.2c28.35,0,111.15-0.9,123.08-1.575,11.925-0.675,14.4-2.25,14.4-2.25" stroke="#000" stroke-width="0.5" fill="none"/>
                <path id="path80443" d="m2.011,90.457s2.475,1.575,14.4,2.25,94.725,1.575,123.08,1.575h0.2c28.35,0,111.15-0.9,123.08-1.575,11.925-0.675,14.4-2.25,14.4-2.25" stroke="#000" stroke-width="0.5" fill="none"/>
                <path id="path80445" d="m58.26,43.32s11.25,12.712,14.4,16.313c3.15,3.6-7.875-10.125-6.525-11.475s3.6-0.675,3.6-0.675l33.075-0.337c1.8,0,3.15-0.113,4.05-1.913s2.925-3.6-0.9-3.6-43.425,0.9-58.725,2.25-18.45,0.225-20.925,1.8-0.675,2.925-2.475,3.6-4.5,1.125-4.5,1.125" stroke="#000" stroke-width="0.5" fill="none"/>
                <path id="path80447" d="m26.311,45.683c1.125-1.35,6.075-4.5,6.075-4.5" stroke="#000" stroke-width="0.5" fill="none"/>
                <path id="path80449" d="m24.511,48.833s-4.209,12.558-4.434,19.533" stroke="#000" stroke-width="0.5" fill="none"/>
                <path id="path80451" d="m19.11,83.482c-2.925,2.925-1.8,8.775-1.8,8.775" stroke="#000" stroke-width="0.5" fill="none"/>
                <path id="path80453" d="m64.223,68.632c2.7-1.35,51.75-2.25,75.375-2.25h-0.025c23.625,0,72.675,0.9,75.375,2.25" stroke="#000" stroke-width="0.5" fill="none"/>
                <path id="path80455" d="m66.668,100.96c-6.075,0-6.945,1.192-6.72,5.467s4.05,11.925,9.45,12.375,69.975,1.125,69.975,1.125h0.425s64.575-0.675,69.975-1.125,9.225-8.1,9.45-12.375-0.645-5.467-6.72-5.467" stroke="#000" stroke-width="0.5" fill="none"/>
                <g id="g80457" stroke-width="0.5" stroke="#000" fill="#FFF">
                 <path id="path80459" d="m73.148,111.83c-0.829,0-1.5-0.671-1.5-1.5v-4.2c0-0.829,0.671-1.5,1.5-1.5h19.95c0.829,0,1.5,0.671,1.5,1.5v4.2c0,0.829-0.671,1.5-1.5,1.5h-19.95z"/>
                 <path id="path80461" d="M83.123,108.23"/>
                </g>
                <path id="path80463" d="m60.51,114.98c-39.6,1.8-45.836,8.385-41.625,10.575,5.625,2.925,112.88,3.284,120.6,2.925h0.2c7.724,0.359,114.98,0,120.6-2.925,4.211-2.19-2.025-8.775-41.625-10.575" stroke="#000" stroke-width="0.5" fill="none"/>
                <path id="path80465" d="m12.473,58.058c-6.75,8.1,5.4,29.25,10.8,31.95,4.5,2.25,16.2,3.31,16.2,3.31" stroke="#000" stroke-width="0.5" fill="none"/>
                <path id="path80467" d="m20.433,83.28c5.548,0.925,44.154,1.618,50.858,0.925,5.289-0.547,7.167-0.462,4.855-6.704s-9.479-10.172-29.359-11.097c-19.881-0.924-27.048,1.85-27.048,1.85-6.126,3.699-10.518,8.322-8.438,11.79,2.081,3.467,9.132,3.236,9.132,3.236z"/>
                <polygon id="polygon80469" stroke="#000" points="139.48,83.707,136.11,83.707,135.21,75.157,139.48,75.157,139.69,75.157,143.96,75.157,143.06,83.707,139.69,83.707" stroke-width="0.5" fill="none"/>
                <g id="g80471" stroke-width="0.5" stroke="#000" fill="#FFF">
                 <path id="path80473" d="m206.02,111.83c0.829,0,1.5-0.671,1.5-1.5v-4.2c0-0.829-0.672-1.5-1.5-1.5h-19.95c-0.828,0-1.5,0.671-1.5,1.5v4.2c0,0.829,0.672,1.5,1.5,1.5h19.95z"/>
                 <path id="path80475" d="M196.05,108.23"/>
                </g>
                <polygon id="polygon80477" points="139.82,114.31,143.87,114.31,143.87,112.28,149.22,112.28,151.58,107.11,143.76,107.11,143.76,104.86,139.82,104.86,139.85,104.86,135.91,104.86,135.91,107.11,130.43,107.11,128.05,112.28,135.8,112.28,135.8,114.31,139.85,114.31" stroke="#FFF" fill="none"/>
                <path id="path80479" d="m233.54,80.968c-0.828,0-1.5-0.671-1.5-1.5v-9.252c0-0.829,0.672-1.5,1.5-1.5h21.505c0.828,0,1.5,0.671,1.5,1.5l-0.231,9.252c0,0.829-0.671,1.5-1.5,1.5h-21.27z" fill="#FFF"/>
                <path id="path80481" d="m224.99,80.968c0.828,0,1.5-0.671,1.5-1.5v-9.252c0-0.829-0.672-1.5-1.5-1.5l-7.172,1.156c-7.511,2.312-10.978,4.393-11.672,6.354l-1.387,3.242c0,0.829,0.671,1.5,1.5,1.5h18.731z" fill="#FFF"/>
                <path id="path80483" d="m261.16,71.259-0.462,10.171s4.161,0.231,5.317-1.849-0.694-5.086-4.855-8.322z" fill="#FFF"/>
                <path id="path80485" d="m45.634,80.968c0.829,0,1.5-0.671,1.5-1.5v-9.252c0-0.829-0.671-1.5-1.5-1.5h-21.505c-0.829,0-1.5,0.671-1.5,1.5l0.231,9.252c0,0.829,0.671,1.5,1.5,1.5h21.274z" fill="#FFF"/>
                <path id="path80487" d="m54.182,80.968c-0.829,0-1.5-0.671-1.5-1.5v-9.252c0-0.829,0.671-1.5,1.5-1.5l7.172,1.156c7.51,2.312,10.978,4.393,11.671,6.354l1.387,3.242c0,0.829-0.672,1.5-1.5,1.5h-18.73z" fill="#FFF"/>
                <path id="path80489" d="m18.006,71.259,0.462,10.171s-4.161,0.231-5.317-1.849c-1.156-2.081,0.694-5.086,4.855-8.322z" fill="#FFF"/>
               </g>
              </g>
             </g>
            </g>
           </g>
          </g>
         </g>
        </g>
       </g>
      </g>
     </g>
    </g>
   </g>
  </g>
 </g>
</svg>
