<?xml version="1.0" encoding="UTF-8" standalone="no"?>
<!-- Created with Inkscape (http://www.inkscape.org/) -->
<svg id="svg2" xmlns:rdf="http://www.w3.org/1999/02/22-rdf-syntax-ns#" xmlns="http://www.w3.org/2000/svg" height="45" width="67.5" version="1.1" xmlns:cc="http://creativecommons.org/ns#" xmlns:dc="http://purl.org/dc/elements/1.1/">
 <metadata id="metadata7">
  <rdf:RDF>
   <cc:Work rdf:about="">
    <dc:format>image/svg+xml</dc:format>
    <dc:type rdf:resource="http://purl.org/dc/dcmitype/StillImage"/>
    <dc:title/>
   </cc:Work>
  </rdf:RDF>
 </metadata>
 <g id="g44014">
  <rect id="rect2990" opacity="0" height="45" width="67.5" y="0" x="3.5527e-15"/>
  <g id="g43601" transform="matrix(.74990 0 0 .74990 -3.3686 2.2681)">
   <path id="path80552" fill="#fff" d="m15.107 33.472c-1.407 0.31-8.6493 0.113-8.9941 0.122-0.3623 0.008-0.8811-0.031-0.7309-0.241 0.1503-0.211 0.5968-0.999 0.5968-0.999-1.2472-0.177-1.3999-0.069-1.3156-0.848 0.0844-0.779 0.2446-2.699 1.0965-3.859 0.8519-1.161 9.1643-4.317 16.382-5.633 7.2179-1.3165 16.699-1.135 16.699-1.135 0.21217 0.20182 0.83456 0.23853 0.83456 0.23853s1.0249-0.4394 4.1944-2.1226c3.1694-1.6832 8.7588-3.9439 9.0679-4.0032 0.30931-0.0593 0.82816-0.02033 1.7092 0.0098 0.88106 0.03012 0.74118 0.65496 0.13028 1.0844l-6.0298 3.3072c0.4746 0.35092 0.81573 1.5853 0.57344 2.2646 8.9563-0.11634 12.621-0.6207 14.742-0.72461 2.1208-0.10392 3.0485-0.28201 3.508-0.55236 0.45936-0.27015 1.0691-0.75116 2.1042-0.77657 8.0197-0.30046 20.306 0.22629 21.914 0.29049 1.607 0.06401 1.7231 0.57909 1.6917 1.4084-0.03144 0.82929-0.15588 4.1986-0.09507 4.5597 0.06062 0.36108 0.23363 1.0819 0.78693 2.5182 0.55311 1.4364 0.8323 2.2582-1.3831 2.727-1.315 0.27825-6.1375 1.0311-7.9436 1.2826-1.4372 0.20012-1.8986 0.08133-2.2106 0.0026l0.02523-0.04989c0.21066-1.5315-0.87146-8.6297-8.3808-8.4454-8.5399 0.20972-8.1001 9.676-8.1001 9.676s-4.3795-0.66926-5.196-0.70278c-1.0347-0.04274-23.036-0.1186-23.566-0.08942-0.72367 0.03991-5.4065 0.73798-5.4065 0.73798-0.4923-0.01374-0.45408-1.0893-0.45408-1.0893s-0.25961-8.4608-8.0231-8.2703c-8.5045 0.20897-8.3036 8.0598-8.2226 9.2652l-0.0038 0.04688z"/>
   <path id="path80554" d="m82.42 32.522-1.3009-0.25283-13.774 1.0893-1.5407 0.52976-34.158-0.19692-1.6855-1.1497-13.353 0.32795-1.4844 0.70974s-1.0025-9.1935 8.21-9.4198c7.7635-0.19071 8.0231 8.2703 8.0231 8.2703s-0.03841 1.0755 0.45408 1.0893c0 0 4.683-0.69807 5.4065-0.73798 0.53014-0.02918 22.531 0.04669 23.566 0.08942 0.8163 0.0337 5.196 0.70278 5.196 0.70278s-0.43959-9.4663 8.1001-9.676c7.8668-0.19334 8.6797 7.6067 8.3424 8.6248z"/>
   <path id="path80556" d="m93.125 25.501s-24.54 0.29199-44.311 0.77752c-19.771 0.48552-43.055 1.3679-43.055 1.3679l-0.3963 0.735s23.905-0.79427 43.469-1.2747c19.564-0.48044 44.516-0.88614 44.516-0.88614l-0.22478-0.71934z"/>
   <circle id="circle80560" stroke-width=".047065" stroke="#fff" cy="31.974" cx="74.174" r="7.1386"/>
   <path id="path80562" stroke-width=".047065" d="m74.174 31.974" stroke="#fff"/>
   <circle id="circle80566" cy="31.974" cx="74.174" r="4.6493" fill="#fff"/>
   <path id="path80568" fill="#fff" d="m74.174 31.974"/>
   <circle id="circle80572" cx="74.174" cy="31.974" r="4.0634"/>
   <path id="path80574" d="m74.174 31.974"/>
   <circle id="circle80578" cy="31.974" cx="74.173" r="3.4412" fill="#fff"/>
   <path id="path80580" fill="#fff" d="m74.174 31.974"/>
   <g id="g43398" fill="none">
    <g id="g43400" stroke-width=".09413" stroke="#000">
     <circle id="circle80584" cx="74.174" cy="31.974" r="1.9402"/>
     <path id="path80586" d="m74.174 31.974"/>
     <circle id="circle80590" cx="74.167" cy="30.628" r=".38443"/>
     <path id="path80592" d="m74.167 30.628"/>
     <circle id="circle80596" cx="75.451" cy="31.551" r=".38443"/>
     <path id="path80598" d="m75.451 31.551"/>
     <circle id="circle80602" cx="74.971" cy="33.059" r=".38443"/>
     <path id="path80604" d="m74.971 33.059"/>
     <circle id="circle80608" cx="73.387" cy="33.067" r=".38443"/>
     <path id="path80610" d="m73.387 33.067"/>
     <circle id="circle80614" cx="72.89" cy="31.565" r=".38443"/>
     <path id="path80616" d="m72.89 31.565"/>
    </g>
    <g id="g43414" stroke-width=".18826" stroke="#fff">
     <line id="line80620" x2="73.916" y1="36.158" x1="74.56" y2="35.217"/>
     <line id="line80624" x2="72.058" y1="35.588" x1="72.026" y2="34.447"/>
     <line id="line80628" x2="71.01" y1="33.636" x1="70.313" y2="32.732"/>
     <line id="line80632" x2="71.168" y1="31.049" x1="70.074" y2="30.727"/>
     <line id="line80636" x2="72.474" y1="28.816" x1="71.399" y2="29.199"/>
     <line id="line80640" x2="74.43" y1="27.789" x1="73.787" y2="28.731"/>
     <line id="line80644" x2="76.289" y1="28.36" x1="76.321" y2="29.502"/>
     <line id="line80648" x2="77.337" y1="30.312" x1="78.034" y2="31.217"/>
     <line id="line80652" x2="77.179" y1="32.899" x1="78.273" y2="33.221"/>
     <line id="line80656" x2="75.871" y1="35.132" x1="76.946" y2="34.748"/>
    </g>
   </g>
   <circle id="circle80660" stroke-width=".047065" stroke="#fff" cy="31.98" cx="23.319" r="7.1385"/>
   <path id="path80662" stroke-width=".047065" d="m23.319 31.98" stroke="#fff"/>
   <circle id="circle80666" cy="31.98" cx="23.319" r="4.6493" fill="#fff"/>
   <path id="path80668" fill="#fff" d="m23.319 31.98"/>
   <circle id="circle80672" cx="23.319" cy="31.98" r="4.0634"/>
   <path id="path80674" d="m23.319 31.98"/>
   <circle id="circle80678" cy="31.98" cx="23.319" r="3.4412" fill="#fff"/>
   <path id="path80680" fill="#fff" d="m23.319 31.98"/>
   <g id="g43434" fill="none">
    <g id="g43436" stroke-width=".09413" stroke="#000">
     <circle id="circle80684" cx="23.319" cy="31.98" r="1.9402"/>
     <path id="path80686" d="m23.319 31.98"/>
     <circle id="circle80690" cx="23.311" cy="30.634" r=".38443"/>
     <path id="path80692" d="m23.311 30.634"/>
     <circle id="circle80696" cx="24.596" cy="31.557" r=".38443"/>
     <path id="path80698" d="m24.596 31.557"/>
     <circle id="circle80702" cx="24.116" cy="33.065" r=".38443"/>
     <path id="path80704" d="m24.116 33.065"/>
     <circle id="circle80708" cx="22.533" cy="33.073" r=".38443"/>
     <path id="path80710" d="m22.533 33.073"/>
     <circle id="circle80714" cx="22.036" cy="31.571" r=".38443"/>
     <path id="path80716" d="m22.036 31.571"/>
    </g>
    <g id="g43450" stroke-width=".18826" stroke="#fff">
     <line id="line80720" x2="23.062" y1="36.166" x1="23.706" y2="35.223"/>
     <line id="line80724" x2="21.204" y1="35.594" x1="21.172" y2="34.453"/>
     <line id="line80728" x2="20.155" y1="33.642" x1="19.458" y2="32.738"/>
     <line id="line80732" x2="20.314" y1="31.055" x1="19.218" y2="30.733"/>
     <line id="line80736" x2="21.62" y1="28.822" x1="20.545" y2="29.205"/>
     <line id="line80740" x2="23.576" y1="27.795" x1="22.931" y2="28.737"/>
     <line id="line80744" x2="25.434" y1="28.366" x1="25.466" y2="29.508"/>
     <line id="line80748" x2="26.482" y1="30.318" x1="27.179" y2="31.222"/>
     <line id="line80752" x2="26.322" y1="32.905" x1="27.418" y2="33.227"/>
     <line id="line80756" x2="25.016" y1="35.138" x1="26.091" y2="34.756"/>
    </g>
    <path id="path80758" stroke-width=".28239" d="m82.209 32.346c0.36353 0.04292 0.6286 0.29519 2.4351 0.04368 1.8064-0.25152 6.6286-1.0044 7.9436-1.2826 2.2154-0.46877 1.9363-1.2903 1.3831-2.727-0.55311-1.4364-0.72612-2.1571-0.78693-2.5182-0.06062-0.3609 0.06382-3.7302 0.09507-4.5597 0.03144-0.82929-0.08472-1.3444-1.6917-1.4084-1.607-0.0642-13.893-0.59095-21.914-0.29048-1.0352 0.02541-1.6448 0.50642-2.1042 0.77657-0.45936 0.27034-1.3873 0.44844-3.508 0.55236-2.1208 0.10392-5.7852 0.60808-14.742 0.72461 0.24229-0.67906-0.09884-1.9137-0.57344-2.2646l6.0281-3.3072c0.6109-0.42923 0.75078-1.0543-0.13028-1.0844-0.88106-0.03012-1.3999-0.06909-1.7092-0.0098-0.30931 0.0593-5.8986 2.3199-9.0679 4.0032-3.1694 1.6832-4.1944 2.1226-4.1944 2.1226s-0.62239-0.03652-0.83456-0.23853c0 0-9.4815-0.18148-16.699 1.135-7.2247 1.3169-15.537 4.4731-16.389 5.6331-0.85188 1.1602-1.0119 3.0805-1.0962 3.8593-0.084341 0.77883 0.068339 0.67152 1.3156 0.84811 0 0-0.44674 0.78787-0.59679 0.99853-0.15023 0.21085 0.36861 0.24982 0.73083 0.24097 0.3624-0.0088 8.3429 0.20934 9.1621-0.1732" stroke="#000"/>
   </g>
   <path id="path80760" d="m52.221 15.32s0.77883 0.08434 1.3999 0.06909 0.57702 0.29651-0.03652 0.62239c-0.61335 0.32569-10.118 5.5309-10.118 5.5309-2.4312 0.11145-2.9564-0.18638-3.7908-0.42472 2.0409-1.2414 10.745-5.2875 12.545-5.7977z"/>
   <path id="path80762" d="m51.391 21.606-0.87899-2.05c-0.2197-0.51244-0.78523-0.3432-0.6173 0.17056l0.77168 1.8971 0.72461-0.0177z"/>
   <path id="path80764" d="m67.57 20.38c-0.24756-0.58944-0.50586-1.6189-1.5876-1.385-1.0819 0.23363-1.1448 0.83079-0.92699 1.2657 0.21782 0.43488 0.27335 0.58888 0.27335 0.58888s0.41474 0.01563 1.1362-0.13141c0.72141-0.14703 1.1051-0.33812 1.1051-0.33812z"/>
   <g id="g43466" stroke-width=".09413" stroke="#000">
    <path id="path80768" d="m61.785 23.371c-0.08227 0.0021-0.15061-0.06288-0.15268-0.14534l-0.0113-0.47837c-0.0021-0.08227 0.06307-0.15061 0.14534-0.15268l2.8075-0.0689c0.08227-0.0021 0.15061 0.06307 0.15268 0.14534l0.01186 0.47837c0.0021 0.08227-0.06307 0.15061-0.14534 0.15268l-2.8075 0.0689z"/>
    <path id="path80770" d="m63.18 22.948"/>
    <path id="path80774" fill="none" d="m61.796 23.811c-0.08227 0.0021-0.15061-0.06307-0.15268-0.14534l-0.02184-0.89235c-0.0021-0.08227 0.06307-0.15061 0.14534-0.15268l2.8075-0.0689c0.08227-0.0021 0.15061 0.06288 0.15268 0.14515l0.02203 0.89254c0.0019 0.08227-0.06307 0.15061-0.14534 0.15268l-2.8077 0.0689z"/>
    <path id="path80776" fill="none" d="m63.186 23.181"/>
   </g>
   <g id="g43472" stroke-width=".18826" stroke="#000" fill="#fff">
    <path id="path80780" d="m85.301 27.713c-0.08227 0.0021-0.15061-0.06288-0.15268-0.14515l-0.01318-0.53014c-0.0021-0.08227 0.06307-0.15061 0.14534-0.15268l4.6707-0.11465c0.08227-0.0021 0.15061 0.06307 0.15268 0.14534l0.01299 0.53014c0.0021 0.08227-0.06307 0.15061-0.14534 0.15268l-4.6707 0.11446z"/>
    <path id="path80782" d="m87.626 27.241"/>
    <path id="path80786" d="m10.352 29.346c-0.08246 0.0021-0.15061-0.06288-0.15268-0.14534l-0.01299-0.53014c-0.0021-0.08227 0.06288-0.15061 0.14515-0.15268l4.1532-0.10204c0.08227-0.0021 0.15061 0.06307 0.15268 0.14534l0.01299 0.53014c0.0021 0.08227-0.06307 0.15061-0.14534 0.15268l-4.153 0.10204z"/>
    <path id="path80788" d="m12.419 28.881"/>
   </g>
   <g id="g43478" stroke="#000" fill="none">
    <g id="g43480" stroke-width=".09413">
     <path id="path80790" d="m8.365 26.184s0.33077 0.82044 0.44712 1.3355"/>
     <path id="path80792" d="m5.9788 32.354c1.4012 0.12086 7.463 0.231 7.8772 0.22083 0.41417-0.01017-1.963 0.2037-3.4056 0.49795-1.4428 0.29425-1.6953 0.55951-1.6953 0.55951"/>
     <path id="path80794" d="m42.165 21.263c-3.3778 1.6365-5.1485 7.5579-2.1281 12.455"/>
     <path id="path80796" d="m65.872 20.785c0.32061 0.40645 0.33849 1.1311 0.33849 1.1311 0.16962 2.6887 0.29802 7.9162-2.9178 11.931"/>
     <line id="line80798" y1="25.469" x2="90.813" x1="90.224" y2="19.965"/>
     <path id="path80800" d="m79.931 19.714s0.24003 1.3406-1.5196 1.3839l-9.1116 0.1203s-1.4441 0.24267-1.7295-0.83795"/>
    </g>
    <path id="path80802" stroke-width=".28239" d="m49.527 21.652c-1.6044 0.03935-4.8675 0.01581-7.0982-0.13649"/>
    <path id="path80804" stroke-width=".09413" d="m45.28 21.601c-0.68546-0.50115 1.3101-1.4824 1.9752-1.8094 0.66531-0.32701 1.3318-0.60243 1.6537-0.14421"/>
   </g>
   <path id="path80806" stroke-width=".09413" d="m49.064 21.715c-0.03652 0.62239 1.0765 1.6567-0.4763 1.6947-1.5528 0.03803-3.1428-1.4505-3.0728-1.7631 1.3216 0.04537 3.5491 0.06834 3.5491 0.06834z" stroke="#000"/>
   <path id="path80810" d="m36.116 27.989c0.01845 0.75229-0.03746 2.6938 0.13442 3.3629 0.15306 0.59603 0.39968 0.45634 1.2516 0.35769 0 0-0.83399 0.19956-0.96822-0.41643-0.1459-0.66964-0.13988-2.534-0.12614-3.0265 0.01224-0.43978 0.14251-0.52148 0.86656-0.56497 0 0-1.1678-0.10091-1.1582 0.28729z"/>
   <path id="path80814" d="m34.122 28.038c0.01845 0.75229-0.03746 2.6938 0.13442 3.3629 0.15306 0.59603 0.39968 0.45616 1.2517 0.3577 0 0-0.83418 0.19956-0.96841-0.41643-0.1459-0.66964-0.13988-2.5342-0.12613-3.0265 0.01224-0.43978 0.14251-0.52148 0.86656-0.56497 0 0-1.1676-0.10091-1.1582 0.28728z"/>
   <path id="path80816" d="m8.8387 25.938c12.519-3.859 17.131-4.142 31.213-4.633" stroke="#000" stroke-width=".09413" fill="none"/>
   <path id="path80818" fill="#fff" d="m40.913 21.067s0.16473 0.11766 0.49418 0.09413l11.085-5.5066h-0.25886s-6.0008 2.6592-11.319 5.4125z"/>
   <path id="path80820" fill="#fff" d="m66.164 19.278s0.51772-0.16473 0.68244 0.28239c0 0-0.37652-0.21179-0.80011-0.11766s-0.80011 0.25886-0.72951 0.63538 0.04838 0.47856-0.11766 0.04706c-0.11766-0.30592 0.16473-0.82364 0.96483-0.84717z"/>
  </g>
 </g>
</svg>
