<?xml version="1.0" encoding="UTF-8" standalone="no"?>
<!-- Created with Inkscape (http://www.inkscape.org/) -->
<svg id="svg2" xmlns:rdf="http://www.w3.org/1999/02/22-rdf-syntax-ns#" xmlns="http://www.w3.org/2000/svg" height="45" width="67.5" version="1.1" xmlns:cc="http://creativecommons.org/ns#" xmlns:dc="http://purl.org/dc/elements/1.1/">
 <metadata id="metadata7">
  <rdf:RDF>
   <cc:Work rdf:about="">
    <dc:format>image/svg+xml</dc:format>
    <dc:type rdf:resource="http://purl.org/dc/dcmitype/StillImage"/>
    <dc:title/>
   </cc:Work>
  </rdf:RDF>
 </metadata>
 <g id="g6560">
  <rect id="rect2990" opacity="0" height="45" width="67.5" y="0" x="3.5527e-15"/>
  <path id="path6558" d="m43.701 34.646c-0.85191-0.14184-1.4364-0.45843-2.1125-1.1442-0.62427-0.63322-1.444-2.1514-1.5726-2.9123-0.0794-0.46981-0.10188-0.49101-0.5225-0.49214-0.24176-0.000654-2.33-0.10814-4.6406-0.23887-5.008-0.28334-5.1012-0.28498-5.1013-0.09002-0.00024 0.4293-0.73536 1.6419-1.3068 2.1556-0.74819 0.67269-1.5099 0.878-2.904 0.78271-1.0661-0.07287-1.6956-0.35118-2.2674-1.0024-0.38736-0.44118-1.0833-1.7617-1.0835-2.0559-0.00005-0.08667-0.15218-0.15004-0.36018-0.15004-0.19805 0-0.36009 0.05401-0.36009 0.12003s-0.15123 0.12003-0.33608 0.12003c-0.18484 0-0.38739 0.04618-0.45011 0.10263-0.0627 0.05645-0.54754 0.25377-1.0774 0.4385-1.2821 0.447-1.7238 0.37546-2.2447-0.36354-0.31711-0.4499-0.45195-0.54084-0.90197-0.60832-0.29101-0.04364-0.57763-0.03082-0.63694 0.02848-0.0593 0.0593-0.1857 0.51165-0.28089 1.0052-0.31003 1.6076-0.93218 2.6376-1.8876 3.125-0.64743 0.3303-3.1704 0.33517-3.8917 0.0075-0.97533-0.44303-1.7693-1.6804-2.1162-3.2979-0.12292-0.57315-0.0787-2.4161 0.0739-3.0782 0.038-0.16504 0.0371-0.23256-0.002-0.15004-0.0392 0.08252-0.16406 0.15004-0.2774 0.15004-0.11332 0-0.25735 0.05076-0.32007 0.11279-0.0712 0.07047-0.85696-0.04736-2.0945-0.31414-1.0893-0.23481-2.2506-0.43965-2.5806-0.45521-0.33008-0.01556-0.69587-0.03623-0.81287-0.04595-0.11701-0.0097-0.44732-0.2339-0.73403-0.49818-0.56341-0.51933-0.95413-1.3454-0.89206-1.886 0.0346-0.30116 0.10073-0.34524 0.66973-0.44629l0.63136-0.11212-0.0912-0.60805c-0.13974-0.9315-0.0924-3.0511 0.0847-3.7888 0.25217-1.0508 0.66328-1.8849 0.97827-1.9849 0.30126-0.09562 20.818 0.03807 21.415 0.13954l0.36389 0.06179 0.62963-1.8989c0.68091-2.0536 1.3661-3.7432 1.7322-4.2713 0.45538-0.65687 0.75196-0.72141 3.752-0.81649 6.6333-0.21023 13.793 0.34184 15.769 1.2159 0.35776 0.15826 1.1908 0.88763 2.5821 2.2607 1.681 1.659 2.0887 2.0044 2.2454 1.9022 0.51062-0.33296 1.2316 0.32185 1.3853 1.2582 0.0836 0.50941-0.0805 0.45435 2.2642 0.75958 3.7095 0.4829 8.3864 1.3601 10.219 1.9166 1.4632 0.44438 1.4952 0.48452 1.6289 2.0459 0.16257 1.8977 0.0922 3.2775-0.17489 3.427-0.34794 0.19471-0.24316 0.30007 0.45348 0.45597 0.87987 0.19691 1.0748 0.47608 0.89437 1.2811-0.17537 0.78255-0.48381 1.2495-1.2958 1.9619-0.63051 0.55312-0.68221 0.63749-0.68221 1.1132v0.51475l-0.96024 0.09551c-1.3797 0.13724-1.5125 0.19354-1.6936 0.71784-0.37402 1.0833-1.385 2.052-2.5334 2.4277-0.49855 0.16307-0.96892 0.19318-2.4559 0.15723-1.6523-0.03995-1.8997-0.07409-2.4343-0.33595-0.7542-0.36942-1.4118-1.025-1.8034-1.7979l-0.30619-0.60424h-1.142c-0.98052 0-1.1521 0.0297-1.2132 0.21005-0.66799 1.972-1.9918 3.1197-3.92 3.3986-0.90589 0.13105-2.4412 0.12108-3.297-0.02141zm1.686-1.7513c-0.14763-0.02849-0.41769-0.02923-0.60014-0.0016-0.18246 0.02759-0.0617 0.0509 0.26841 0.0518 0.33008 0.000801 0.47936-0.02167 0.33173-0.05016zm1.2894-0.44186c0.69624-0.46075 1.2194-1.3191 1.1391-1.869-0.0353-0.24185-0.0227-0.33687 0.0292-0.22026 0.052 0.11682 0.0936-0.19283 0.0966-0.71948 0.003-0.54318-0.0291-0.80108-0.0781-0.6252-0.0459 0.16466-0.0921 0.21836-0.10288 0.11933-0.0114-0.10446-0.0705-0.05407-0.14096 0.12003-0.0667 0.16504-0.0897 0.50277-0.0509 0.75051 0.0739 0.47208-0.10719 1.0399-0.46871 1.47-0.11097 0.13203-0.1624 0.1642-0.1143 0.07147 0.058-0.1118 0.0401-0.13932-0.053-0.08173-0.0773 0.04777-0.11201 0.133-0.0771 0.18941 0.0941 0.15218-0.53138 0.55725-1.0946 0.7089-0.87331 0.23516-1.6538-0.03367-2.3568-0.81178-0.47735-0.52837-0.68639-1.1147-0.69049-1.9367l-0.002-0.54013-0.23698 0.36981c-0.13034 0.2034-0.26549 0.55448-0.30034 0.78019-0.0444 0.28744-0.0327 0.34015 0.0391 0.17594 0.089-0.20363 0.11287-0.18228 0.1818 0.16236 0.0437 0.21824 0.0443 0.45362 0.002 0.52305-0.0492 0.0796-0.0193 0.08995 0.081 0.028 0.11639-0.07194 0.13781-0.04308 0.0799 0.10772-0.0533 0.1388-0.0337 0.17794 0.06 0.12003 0.0916-0.0566 0.11404-0.02075 0.0658 0.10502-0.0419 0.10922 0.0136 0.25894 0.12964 0.34977 0.18641 0.1459 0.18833 0.1393 0.0236-0.08125-0.0986-0.13203 0.0737-0.01233 0.38301 0.266 0.30927 0.27833 0.70567 0.54204 0.88088 0.58601 0.17521 0.04398 0.26458 0.11332 0.19858 0.1541s0.3314 0.06952 0.8831 0.06387c0.88052-0.009 1.0632-0.05008 1.4953-0.33603zm-0.60085 0.09521c0.57101-0.24695 1.1834-0.84962 1.4524-1.4293 0.12253-0.26406 0.22396-0.39486 0.22541-0.29064 0.008 0.57056-1.3592 1.9221-1.9284 1.9063-0.0932-0.0026 0.0195-0.08646 0.2506-0.18638zm1.5882-2.8096c0-0.23106 0.0247-0.32558 0.0549-0.21005s0.0302 0.30457 0 0.4201-0.0549 0.02101-0.0549-0.21005zm-4.0021 2.7255c-0.54713-0.37016-0.79919-0.51161-0.6469-0.36305 0.26588 0.25938 0.81984 0.6383 0.93315 0.6383 0.0663 0-0.0625-0.12386-0.28625-0.27525zm2.3538-0.55064c0.26406-0.12126 0.58186-0.33485 0.70621-0.47465s0.27018-0.22693 0.32405-0.19363c0.0539 0.0333 0.1547-0.04544 0.22402-0.17498 0.19444-0.36332 0.14077-0.46922-0.0666-0.13128-0.12361 0.2015-0.15717 0.22121-0.10215 0.06001 0.0451-0.13203 0.11029-0.33915 0.14497-0.46026 0.0426-0.14881 0.0912-0.1747 0.14978-0.07986 0.12099 0.19578 0.006-1.0545-0.14014-1.5334-0.25317-0.82562-1.2061-1.558-2.0804-1.5989l-0.36009-0.01684 0.36009-0.10154c0.28592-0.08062 0.24896-0.0888-0.17943-0.03969-0.29673 0.03401-0.70104 0.15618-0.89846 0.27147-0.42445 0.24789-1.1427 1.1518-1.1426 1.4379 0.00005 0.1104 0.11661-0.03468 0.25903-0.32239 0.26245-0.53024 1.058-1.2174 1.4093-1.2172 0.10562 0.000052-0.0419 0.11591-0.32789 0.25746-0.76135 0.37686-1.1445 1.0212-1.1952 2.0097-0.0318 0.62217 0.0125 0.89533 0.20526 1.2654 0.13524 0.25956 0.22646 0.49136 0.20271 0.51512-0.0238 0.02375-0.15793-0.18862-0.29817-0.47193s-0.25482-0.4341-0.25462-0.33507c0.00048 0.23738 0.47257 1.0072 0.56251 0.9173 0.0385-0.03851 0.22687 0.0417 0.4186 0.17822 0.69195 0.49271 1.3596 0.5695 2.0791 0.23912zm-1.5846-0.72963c-1.0414-0.63501-0.99801-2.3859 0.0729-2.9397 1.0721-0.55442 2.1764 0.16781 2.1015 1.3745-0.0318 0.51156-0.0284 0.51791 0.0626 0.12003 0.0888-0.38823 0.0973-0.39477 0.11194-0.08617 0.0404 0.85337-0.74782 1.7669-1.5238 1.7661-0.24249-0.00024-0.61382-0.10588-0.82517-0.23475zm1.6575-0.22147c0.34607-0.30921 0.37801-0.4012 0.39199-1.129 0.008-0.43578-0.0245-0.7299-0.073-0.6536s-0.089 0.10263-0.09 0.05852c-0.0008-0.04411-0.038-0.1745-0.0823-0.28976-0.0598-0.15598-0.0368-0.18656 0.09-0.11963 0.0937 0.04945-0.006-0.07672-0.22155-0.28038-0.32033-0.3026-0.4849-0.36737-0.90022-0.35426l-0.50823 0.01604 0.57152 0.07965c0.31434 0.04381 0.66543 0.17962 0.78019 0.30181 0.20207 0.21512 0.19927 0.21589-0.0881 0.02433-0.37915-0.25272-1.0701-0.25387-1.4292-0.0024-0.15347 0.1075-0.35241 0.36406-0.44211 0.57014-0.0931 0.21397-0.16509 0.28639-0.16777 0.16882-0.002-0.11323 0.17085-0.40588 0.3854-0.65034 0.31236-0.3559 0.33653-0.41582 0.12127-0.30069-0.39095 0.20909-0.59801 0.71205-0.57737 1.4025 0.0285 0.95381 0.52989 1.4822 1.4144 1.4906 0.32541 0.0031 0.55146-0.08798 0.82499-0.33239zm-1.7653-0.19149c-0.22446-0.22445-0.40599-0.50802-0.40341-0.63015 0.003-0.14614 0.0604-0.09395 0.16778 0.15264 0.21169 0.4864 0.62101 0.76558 1.1224 0.76558 0.5171 0 0.81755-0.1658 1.0386-0.57316 0.0976-0.17988 0.17965-0.25539 0.1823-0.16779 0.002 0.0876-0.15309 0.31715-0.34605 0.51012-0.51875 0.51875-1.2081 0.49635-1.7617-0.05725zm0.96577 0.03755c-0.12369-0.20014 0.15451-0.42964 0.32008-0.26406 0.13851 0.1385 0.0519 0.39455-0.13357 0.39455-0.0583 0-0.14216-0.05872-0.18651-0.13049zm-0.95776-0.35607c-0.0305-0.04934-0.0485-0.39216-0.0399-0.76181 0.0111-0.48114 0.0622-0.6721 0.17975-0.6721 0.0903 0 0.16426 0.0583 0.16426 0.12957 0 0.07912 0.12942 0.10114 0.33241 0.05656 0.19952-0.04382 0.42147-0.0079 0.55514 0.08984 0.24363 0.17815 0.29943 0.74559 0.0935 0.95147-0.1604 0.1604-1.2095 0.32894-1.2852 0.20647zm1.2948-0.81542c-0.0787-0.21395-0.265-0.37364-0.43921-0.37659-0.0598-0.000961-0.0125 0.10441 0.10505 0.23427 0.13536 0.14957 0.18836 0.33654 0.14461 0.51012-0.0647 0.25686-0.0587 0.26014 0.0968 0.05229 0.0912-0.12194 0.13297-0.31099 0.0928-0.4201zm-0.51063 0.20888c0-0.14095-0.44642-0.13879-0.5338 0.0026-0.0813 0.13155 0.17281 0.23735 0.38376 0.15977 0.0825-0.03034 0.15004-0.10341 0.15004-0.16236zm0.8402-0.04717c0-0.09902 0.081-0.18004 0.18005-0.18004 0.099 0 0.18004 0.08102 0.18004 0.18004s-0.081 0.18004-0.18004 0.18004c-0.099 0-0.18005-0.08102-0.18005-0.18004zm-0.60014-0.96023c0-0.09902 0.081-0.18004 0.18004-0.18004 0.099 0 0.18004 0.08102 0.18004 0.18004s-0.081 0.18004-0.18004 0.18004c-0.099 0-0.18004-0.08102-0.18004-0.18004zm-34.448 2.9285c-0.14463-0.10331-0.12689-0.11695 0.0902-0.06937 0.17384 0.03811 0.24174 0.01313 0.19036-0.07-0.0495-0.08019-0.008-0.10179 0.10859-0.05692 0.16652 0.0639 0.68294-0.33492 0.6011-0.46423-0.0803-0.12689-0.0158-0.29289 0.0887-0.2283 0.0705 0.04355 0.0866-0.0103 0.0396-0.13264-0.0579-0.1508-0.0365-0.17965 0.0799-0.10772 0.10517 0.065 0.13028 0.05185 0.0742-0.03887-0.055-0.08892-0.24482 0.03116-0.54009 0.34154-0.5113 0.53749-1.0546 0.63606-1.5589 0.28282-0.41153-0.28824-0.85011-1.3196-0.86103-2.0247-0.008-0.53289-0.0244-0.56878-0.14392-0.32027-0.10131 0.21061-0.096 0.44826 0.0212 0.96023 0.0857 0.3742 0.16154 0.77091 0.16847 0.8816 0.007 0.11068 0.055 0.17501 0.10691 0.14295 0.0862-0.05327 0.13504 0.13159 0.0643 0.24335-0.0818 0.12931 0.43458 0.52813 0.6011 0.46423 0.11694-0.04487 0.15815-0.02328 0.10859 0.05692-0.0514 0.08313 0.0165 0.1081 0.19036 0.07 0.21708-0.04758 0.23482-0.03394 0.0902 0.06937-0.14175 0.10125-0.0907 0.1286 0.24006 0.1286 0.33074 0 0.3818-0.02735 0.24006-0.1286zm-1.2154-0.439c-0.1493-0.19037-0.14506-0.19462 0.0453-0.04532 0.11554 0.0906 0.21005 0.18513 0.21005 0.21005 0 0.09879-0.0986 0.03521-0.25536-0.16473zm1.6957 0.16473c0-0.02493 0.0945-0.11945 0.21005-0.21005 0.19037-0.1493 0.19461-0.14506 0.0453 0.04532-0.1568 0.19994-0.25537 0.26352-0.25537 0.16473zm0.0466-0.6542c0.20977-0.18578 0.55417-0.85016 0.55313-1.0671-0.00026-0.05164-0.10455 0.07684-0.23178 0.2855-0.44502 0.72983-1.1643 0.62509-1.5019-0.2187-0.23147-0.57848-0.23651-1.0685-0.0164-1.5952 0.27162-0.65007 0.9262-0.87265 1.3122-0.44618 0.26304 0.29066 0.12177 0.41434-0.21857 0.19134-0.14817-0.09708-0.36003-0.14174-0.47079-0.09924-0.29667 0.11384-0.55434 0.69207-0.54033 1.2125l0.0123 0.45607 0.0981-0.41714c0.0539-0.22942 0.0746-0.45525 0.0458-0.50183s-0.0008-0.11631 0.0614-0.15496c0.0625-0.03865 0.14816-0.01449 0.19029 0.05368 0.0421 0.06817 0.12925 0.09141 0.1936 0.05164 0.19798-0.12236 0.46656 0.19942 0.46656 0.55898 0 0.36812-0.2746 0.58967-0.73089 0.58967-0.25981 0-0.26101 0.0061-0.0471 0.24242 0.2321 0.25647 0.96462 0.30402 0.99328 0.06447 0.008-0.06977 0.0507-0.27539 0.094-0.45693 0.0502-0.21008 0.0301-0.33008-0.0552-0.33008-0.0737 0-0.13402-0.08102-0.13402-0.18004s0.0607-0.18004 0.13503-0.18004c0.0856 0 0.10903-0.13004 0.0639-0.35543-0.0757-0.37859 0.10584-0.63337 0.19681-0.27619 0.0296 0.11634 0.0472 0.04124 0.0391-0.16688-0.008-0.20812-0.0645-0.3478-0.1252-0.31039-0.061 0.03762-0.0751-0.02404-0.0314-0.13796 0.0435-0.11328 0.0329-0.17743-0.0236-0.14255-0.11689 0.07224-0.58666-0.40242-0.49479-0.49996 0.033-0.03504-0.16444-0.06988-0.43877-0.07742-0.27644-0.0076-0.46832 0.03552-0.43042 0.09671 0.0376 0.06073-0.0198 0.0766-0.12752 0.03525-0.16816-0.06453-0.3665 0.07655-0.3858 0.27443-0.003 0.03301-0.10596 0.3167-0.2283 0.63043-0.42409 1.0875-0.0675 2.6989 0.67845 3.0657 0.32759 0.16106 0.78977 0.07921 1.099-0.19462zm-0.28663-0.91379c0-0.10292 0.054-0.18713 0.12003-0.18713 0.066 0 0.12003 0.05083 0.12003 0.11294 0 0.06212-0.054 0.14633-0.12003 0.18713-0.066 0.0408-0.12003-0.01003-0.12003-0.11294zm0-1.6946c0-0.10292 0.054-0.15375 0.12003-0.11294 0.066 0.0408 0.12003 0.12501 0.12003 0.18713s-0.054 0.11294-0.12003 0.11294c-0.066 0-0.12003-0.08421-0.12003-0.18713zm0.12003 2.1816c0-0.02531-0.1334-0.07152-0.29644-0.10269s-0.26788-0.01046-0.23298 0.04602c0.0615 0.09945 0.52942 0.14954 0.52942 0.05667zm31.654-1.005c-0.0275-0.18154-0.05-0.03301-0.05 0.33008s0.0225 0.51162 0.05 0.33008 0.0275-0.47862 0-0.66016zm13.237 0.32724c3.4715-0.11364 6.3244-0.26214 8.2466-0.42927 0.84066-0.07309 0.88513-0.0936 1.5944-0.73544 0.63556-0.57514 1.1789-1.2989 1.0606-1.4127-0.0214-0.02055-0.52498 0.0099-1.1191 0.06757-3.0666 0.29785-13.624 0.48076-15.814 0.27396-0.77334-0.07304-0.81019-0.09074-0.81019-0.38924v-0.31272l6.8116-0.0034c6.2128-0.0031 9.5557-0.11931 10.844-0.37695 0.50282-0.10056 0.42947-0.26285-0.10133-0.22415-0.24755 0.01805-0.30157 0.0095-0.12003-0.01903 0.18155-0.02851 0.33008-0.1014 0.33008-0.16198 0-0.20433-0.60293-0.2634-1.1134-0.10909-0.38243 0.1156-2.5117 0.16526-8.667 0.20214-6.0985 0.03654-8.1822 0.0847-8.2476 0.19063-0.0668 0.10804 1.5021 0.15637 6.5996 0.20327l6.6873 0.06153-6.7088 0.02849-6.7089 0.02849 0.078 0.83977c0.15684 1.6877 0.54543 2.1323 1.9969 2.2849 1.1654 0.12253 1.2136 0.12247 5.1612-0.0067zm6.9961-3.3268c0.382-0.02389 0.97615-0.02367 1.3203 0.00048 0.34417 0.02417 0.0316 0.04371-0.69456 0.04344-0.72617-0.00024-1.0078-0.02004-0.62576-0.04393zm2.2778-0.11733c0.18246-0.02759 0.45252-0.02685 0.60015 0.0016 0.14763 0.02849-0.002 0.05106-0.33173 0.05016-0.33008-0.00096-0.45086-0.02421-0.26842-0.0518zm-54.471 2.8365c-0.0386-0.06253-0.12143-0.08207-0.18396-0.04343-0.0625 0.03865-0.0821 0.12143-0.0435 0.18396 0.0387 0.06254 0.12143 0.08207 0.18396 0.04343 0.0625-0.03864 0.0821-0.12143 0.0434-0.18396zm31.236-0.132c-0.0383-0.09575-0.0667-0.06731-0.0725 0.07251-0.006 0.12653 0.0231 0.19742 0.0631 0.15754 0.0399-0.03989 0.0442-0.14341 0.009-0.23006zm5.0293-0.63134c-0.34688-0.59189-0.80808-0.96896-1.3377-1.0937-0.23608-0.05559-0.13534 0.03269 0.30452 0.26686 0.52674 0.28043 0.71744 0.46869 0.96023 0.94792 0.16662 0.3289 0.32118 0.55562 0.34347 0.50382 0.0223-0.0518-0.0995-0.33301-0.27053-0.62493zm-36.064 0.38178c-0.11854-0.11766-0.13233-0.10387-0.0672 0.06719 0.0451 0.11838 0.1122 0.18499 0.14915 0.14804 0.037-0.03695 0.00008-0.13381-0.082-0.21523zm26.214 0.06202c-0.046-0.11553-0.11323-0.62474-0.14943-1.1316l-0.0658-0.92154-0.85366-0.06686c-1.159-0.09076-9.7575-0.43217-10.863-0.43132l-0.88731 0.00072 0.0658 0.75018c0.0398 0.45343 0.0275 0.63148-0.031 0.45011-0.0532-0.16504-0.10207-0.49632-0.10866-0.73618-0.01-0.34552-0.0681-0.45114-0.28203-0.50848-0.6203-0.16624-0.6619-0.12482-0.557 0.5545 0.0535 0.34658 0.16052 0.85971 0.23774 1.1403 0.13462 0.48909 0.15974 0.51012 0.60915 0.51012 0.42624 0 0.45748-0.02105 0.34449-0.23217-0.0683-0.12769-0.12209-0.27623-0.11944-0.33008 0.002-0.05385 0.085 0.04994 0.18307 0.23064 0.0981 0.1807 0.29844 0.353 0.4453 0.38287 0.14687 0.02987 1.3473 0.08954 2.6676 0.1326 2.3656 0.07715 9.1448 0.367 9.3451 0.39956 0.0566 0.0092 0.0652-0.0778 0.0193-0.19333zm1.5306-0.12003c-0.0508-0.18154-0.0867-0.69467-0.0799-1.1403l0.0125-0.8102h-0.77979-0.77981l0.0664 0.93023c0.0956 1.3387 0.1037 1.3503 0.94327 1.3503h0.70962l-0.0923-0.33008zm8.8031-0.48458c-0.30163-0.58328-0.79358-1.101-1.2838-1.3511-0.25313-0.12914-0.50289-0.23228-0.55503-0.22921-0.0522 0.003 0.1624 0.13947 0.47677 0.30311 0.54648 0.28445 1.1957 1.009 1.3556 1.513 0.0414 0.13031 0.10126 0.21087 0.13311 0.17902 0.0318-0.03185-0.0251-0.21849-0.12663-0.41476zm-24.138 0.09547c-0.0405-0.06547-0.16594-0.56509-0.27882-1.1103l-0.20525-0.99122-1.5587-0.08033c-3.7527-0.19339-7.4265-0.33339-7.475-0.28486-0.0812 0.0812 0.75726 1.528 1.0995 1.8974 0.18245 0.19687 0.43868 0.33277 0.64006 0.33948 0.18469 0.0062 1.7672 0.07914 3.5166 0.16218 4.3216 0.20514 4.3468 0.20554 4.2616 0.06767zm18.95-0.06723c0.041-0.10682 0.0209-0.155-0.0472-0.11294-0.0652 0.04033-0.11865 0.12416-0.11865 0.18628 0 0.17265 0.086 0.13461 0.16583-0.07333zm-31.073-0.41387c-0.0408-0.06602-0.13851-0.1192-0.21713-0.11819-0.0859 0.001-0.0711 0.04828 0.0371 0.11819 0.23059 0.14902 0.27214 0.14902 0.18004 0zm32.468-0.96688c0.16504-0.08624 0.65115-0.19338 1.0803-0.23808l0.78019-0.08128-0.6666-0.01704c-0.73127-0.01869-1.6879 0.36617-2.1079 0.84801-0.1911 0.21925-0.16099 0.21186 0.19386-0.04762 0.23106-0.16895 0.55514-0.37775 0.72018-0.46399zm-37.168-0.624c-0.0405-0.4126-0.10718-0.78749-0.1482-0.83308-0.0605-0.06724-3.7364-0.3372-4.5914-0.3372-0.22414 0-0.22397 0.01023 0.008 0.46531 0.13056 0.25592 0.33421 0.50431 0.45255 0.55198 0.31691 0.12766 3.7711 0.88403 4.0843 0.89434 0.25747 0.0085 0.26527-0.02124 0.19459-0.74135zm4.1258 0.55763c-0.0399-0.03988-0.14341-0.04415-0.23006-0.0095-0.0957 0.03831-0.0673 0.06676 0.0725 0.07251 0.12653 0.0052 0.19742-0.02316 0.15754-0.06304zm0.4526-0.4076c-0.0408-0.06602-0.13851-0.1192-0.21713-0.11819-0.0859 0.0011-0.0711 0.04828 0.0371 0.11819 0.23059 0.14902 0.27215 0.14902 0.18004 0zm-9.1822-0.24484c0-0.24524-0.48776-1.0755-0.6326-1.0768-0.0812-0.00072-0.35814-0.0361-0.61547-0.0786l-0.46787-0.07728 0.22782 0.3887c0.33116 0.56503 1.4881 1.2212 1.4881 0.84398zm36.728-0.175c0-0.14157-0.1667-0.18004-0.78018-0.18004-0.93185 0-1.0472 0.20883-0.15004 0.2716 0.34659 0.02425 0.69767 0.05408 0.78019 0.06629 0.0825 0.01221 0.15003-0.05881 0.15003-0.15784zm-1.6804-0.06001c0-0.06602-0.25656-0.12718-0.57014-0.13592-0.31357-0.0087-1.3803-0.05681-2.3706-0.10685-1.7002-0.0859-1.6659-0.08836 0.61559-0.04429 2.0399 0.0394 2.4393 0.01866 2.5653-0.13321 0.13072-0.15751 0.002-0.18301-1.0357-0.205l-1.185-0.02512 1.1403-0.03969 1.1403-0.03969 0.0305-1.8857c0.0167-1.0371 0.0817-2.2638 0.14429-2.7259l0.11381-0.8402-0.0523 0.92516c-0.22174 3.9216-0.22077 4.2344 0.0138 4.469 0.2194 0.2194 0.22642 0.21792 0.30535-0.0642 0.0709-0.25345 0.0823-0.25845 0.0928-0.04092 0.007 0.15671 0.16022 0.31853 0.4152 0.44012l0.40324 0.19229 0.1391-0.62017c0.21925-0.97741 0.75355-1.8052 1.3584-2.1046 0.2842-0.14068 0.44653-0.25582 0.36073-0.25587-0.57301-0.000361-1.3253 0.76033-1.6529 1.6714-0.12046 0.33499-0.26237 0.60908-0.31534 0.60908-0.14349 0-0.12669-0.05928 0.24748-0.87285 0.38401-0.83495 0.83621-1.3081 1.4445-1.5114 0.50519-0.16884 3.8492-0.17685 5.4055-0.01295 1.9703 0.2075 2.849 0.82873 3.3298 2.3541 0.20923 0.66376 0.51902 0.8711 0.51902 0.34739 0-0.45739-0.35192-1.401-0.68967-1.8491-0.38691-0.51343-1.3421-0.95356-2.5294-1.1655l-0.92195-0.16457 0.76657 0.06494c1.6996 0.14399 2.8792 0.93264 3.2879 2.1981 0.11359 0.3517 0.20653 0.76828 0.20653 0.92574 0 0.16712 0.0708 0.28629 0.17022 0.28629 0.0936 0 0.25567 0.03278 0.36009 0.07286 0.16462 0.06317 0.19043-0.07647 0.19414-1.0503 0.002-0.61771 0.0517-1.6538 0.10964-2.3025 0.12015-1.345 0.27022-1.6082 0.94907-1.6648l0.43738-0.0365-0.42011-0.26962c-0.23105-0.14829-0.35672-0.26982-0.27927-0.27006 0.0775-0.00024 0.30913 0.14116 0.51482 0.31425l0.37399 0.3147 4.7665 0.05192 4.7665 0.05192-0.41414-0.36542c-0.87389-0.77108-3.5356-1.6012-6.5237-2.0346-0.87133-0.12637-1.4373-0.23515-1.2578-0.24174 0.57576-0.02112 2.8735 0.36086 4.2355 0.70411 1.6757 0.42232 3.0114 0.97707 3.6325 1.5088l0.48577 0.41581h1.9314c1.5605 0 1.9314-0.03175 1.9314-0.16535 0-0.25942-0.22963-0.39039-1.2603-0.71882-1.699-0.5414-5.253-1.2155-9.8865-1.8751-1.9123-0.27225-2.6451-0.42352-2.8807-0.59462-0.17381-0.12622-1.4089-1.3327-2.7446-2.6811-1.3358-1.3484-2.641-2.5988-2.9006-2.7787-0.55759-0.38641-2.3932-0.78908-4.9933-1.0954-1.739-0.20485-9.4212-0.37421-8.102-0.17862 0.75023 0.11123 1.0607 0.21404 1.324 0.43843 0.13998 0.11929 1.1115 0.16888 4.081 0.20829 4.0579 0.05386 6.7603 0.28171 7.2652 0.61256 0.42223 0.27665 2.2773 2.0441 3.9732 3.7855l1.5798 1.6222-1.1597 0.06001-1.1597 0.06001 1.0803 0.15872c1.3568 0.19935 1.571 0.2818 0.49195 0.18934-0.4556-0.03904-1.1038-0.15478-1.4404-0.2572-0.33658-0.10242-1.1791-0.20946-1.8723-0.23786-1.4542-0.05958-7.9445 0.16576-8.541 0.29654l-0.40114 0.08794 0.54013 0.07328 0.54013 0.07328-0.50304 0.01803c-0.27667 0.0099-0.53998-0.04175-0.58514-0.11482-0.12407-0.20074-0.28815 0.12332-0.29032 0.5734-0.002 0.3795 0.00025 0.38073 0.74835 0.4511 3.807 0.35807 7.0975 0.70096 7.5918 0.79111l0.60014 0.10945-0.72017-0.05393c-0.3961-0.02966-2.0435-0.18969-3.6609-0.35562s-3.5349-0.34831-4.261-0.40529c-0.72618-0.05698-1.1248-0.11115-0.88583-0.12038 0.4259-0.01644 0.43583-0.02808 0.50142-0.58692 0.0607-0.51666 0.0102-0.6771-0.53805-1.7104-0.33274-0.62715-1.0445-1.8918-1.5817-2.8103-0.53718-0.91849-1.087-1.8591-1.2217-2.0901-0.15465-0.2652-0.39813-0.47289-0.66016-0.56311-0.66205-0.22796-3.7948-0.45955-5.2703-0.38961-1.5385 0.07292-1.7948 0.19005-2.2676 1.0363-0.36748 0.65782-1.4806 3.6399-1.8554 4.9709l-0.29465 1.0462h0.40537c0.32535 0 0.40537 0.04739 0.40537 0.24006 0 0.32062-0.67454 0.34734-0.75746 0.03001-0.0427-0.16322-0.058-0.1518-0.0688 0.05121-0.008 0.15588 0.0708 0.2834 0.19613 0.31616 0.16973 0.04435 0.16192 0.05757-0.0407 0.06882-0.32842 0.01823-0.49003 0.39538-0.71004 1.657-0.17677 1.0137-0.25066 4.1531-0.10658 4.5286 0.048 0.12502 0.22219 0.1899 0.51012 0.18998l0.43727 0.000117-0.042-1.2237c-0.0463-1.3498 0.13705-3.4379 0.38626-4.3986 0.14391-0.55476 0.14059-0.62021-0.0318-0.62702-0.12659-0.005-0.10003-0.04477 0.0776-0.11616 0.18202-0.07316 0.27006-0.20929 0.27006-0.41755 0-1.0114 0.93496-4.1285 1.8137-6.0469 0.45167-0.986 0.53182-1.0921 0.81399-1.0773 0.29967 0.01565 0.30097 0.01863 0.0306 0.06999-0.21922 0.04163-0.38713 0.28029-0.75032 1.0664-0.86595 1.8743-1.7879 4.991-1.7879 6.044 0 0.30222 0.0481 0.36515 0.27928 0.36515 0.23844 0 0.27198-0.04977 0.22934-0.34032-0.0954-0.65022 0.85674-3.9719 1.6979-5.9232 0.33277-0.77195 0.48651-0.81831 2.7114-0.81756 2.2704 0.000769 2.7302 0.09254 3.2737 0.65345 0.83649 0.86326 3.3445 5.5412 3.4018 6.3449l0.0343 0.48031-2.3629-0.07919c-5.9726-0.20015-9.3473-0.23586-9.4314-0.0998-0.21593 0.34939-0.44263 2.0614-0.51197 3.8664-0.0643 1.6724-0.048 2.0127 0.10321 2.1639 0.15923 0.15924 0.158 0.19933-0.0109 0.35607-0.17001 0.15776-0.12641 0.18423 0.40812 0.24779l0.59845 0.07116-0.63016 0.01886c-0.34658 0.01037-0.63015 0.06956-0.63015 0.13153 0 0.18089 0.74238 0.22766 5.8814 0.37055 2.6736 0.07434 4.9422 0.1518 5.0412 0.17213 0.46038 0.09454 1.8004 0.05345 1.8004-0.05521zm-7.2918-0.4491c0.44561-0.02309 1.1748-0.02309 1.6204 0 0.44561 0.02309 0.081 0.042-0.8102 0.042-0.89121 0-1.2558-0.01889-0.81019-0.042zm-3.3661-0.11991c0.44272-0.02303 1.1989-0.02318 1.6804-0.00036 0.4815 0.02285 0.11928 0.04168-0.80495 0.04187-0.92422 0.00024-1.3182-0.0185-0.87546-0.04153zm6.0015-0.24006c0.44271-0.02303 1.1989-0.02318 1.6804-0.000361 0.4815 0.02285 0.11927 0.04168-0.80495 0.04187-0.92422 0.00024-1.3182-0.0185-0.87546-0.04153zm-3.3608-0.12003c0.44272-0.02303 1.1989-0.02318 1.6804-0.00036 0.4815 0.02284 0.11928 0.04168-0.80495 0.04187-0.92422 0.00024-1.3182-0.0185-0.87546-0.04153zm-3.3608-0.12003c0.44271-0.02303 1.1989-0.02318 1.6804-0.000359 0.4815 0.02284 0.11927 0.04168-0.80495 0.04187-0.92422 0.00024-1.3182-0.0185-0.87546-0.04153zm12.35-0.39123c-0.006-0.16504 0.14538-0.63265 0.33767-1.0391 0.27572-0.58282 0.46189-0.80484 0.88066-1.0503 0.29207-0.17116 0.5803-0.30904 0.64052-0.3064 0.0602 0.0026-0.0526 0.09023-0.25061 0.19464-0.76584 0.40374-1.2633 1.0881-1.4898 2.0492-0.0803 0.34092-0.10943 0.37824-0.11845 0.1519zm2.2783-2.5356c0.15959-0.04462 1.0734-0.07842 2.0306-0.07511 2.0913 0.0072 1.797 0.06628-0.59023 0.11844-0.95179 0.02079-1.5999 0.0013-1.4404-0.04332zm4.1632 0.04801c0.21573-0.02671 0.53981-0.02617 0.72017 0.0012 0.18037 0.02739 0.004 0.04924-0.39225 0.04857-0.39609-0.000719-0.54366-0.02309-0.32792-0.0498zm-19.657-1.7134v-0.48012h0.8552 0.85521l-0.075 0.37509c-0.0413 0.2063-0.075 0.42235-0.075 0.48012s-0.35109 0.10502-0.78019 0.10502h-0.78019v-0.48012zm1.5604-0.18004c0-0.14004-0.16004-0.18004-0.72018-0.18004-0.56013 0-0.72017 0.04001-0.72017 0.18004s0.16004 0.18004 0.72017 0.18004c0.56014 0 0.72018-0.04001 0.72018-0.18004zm23.586 0.11729c-0.34017-0.08744-0.47016-0.15526-0.30008-0.15656 0.16504-0.0013 0.51613 0.06891 0.78019 0.15594 0.61281 0.20196 0.30474 0.20236-0.48011 0.0006zm-1.108-0.26049c0.11678-0.03043 0.27882-0.02843 0.36008 0.0045 0.0813 0.03288-0.0143 0.05778-0.21234 0.05533-0.19804-0.0025-0.26453-0.02934-0.14774-0.05978zm1.408-0.16479c-0.44535-0.1514-0.52346-0.20156-0.24006-0.15415 0.41104 0.06877 1.2574 0.38446 1.0202 0.38056-0.066-0.0011-0.4171-0.10297-0.78019-0.22641zm-2.9407 0.0079c-0.40417-0.07236-0.42316-0.08725-0.12003-0.0941 0.19804-0.0045 0.60314 0.03511 0.90022 0.08797 0.48462 0.08623 0.49696 0.0959 0.12002 0.0941-0.23105-0.001-0.63615-0.04069-0.90021-0.08797zm-9.6345-0.48012c0-0.23106 0.0247-0.32558 0.0549-0.21005s0.0302 0.30457 0 0.4201-0.0549 0.02101-0.0549-0.21005zm10.235-0.07327c-0.66016-0.155-0.95723-0.25446-0.66016-0.22101 0.63292 0.07126 2.4529 0.50915 2.1005 0.50539-0.13203-0.0014-0.78019-0.12938-1.4404-0.28438zm-2.5806-0.46685c-0.42911-0.08291-0.64516-0.15481-0.48012-0.15979 0.16504-0.005 0.65116 0.06301 1.0803 0.15108 0.42911 0.08807 0.64516 0.15998 0.48012 0.15979-0.16504-0.00024-0.65116-0.06818-1.0803-0.15108zm-1.9205-0.30007c-0.31874-0.0671-0.3477-0.09057-0.12003-0.09731 0.16504-0.0049 0.51613 0.03581 0.78019 0.09043 0.40022 0.08278 0.4202 0.09898 0.12003 0.09731-0.19805-0.0011-0.54913-0.04179-0.78019-0.09042zm-2.7007-0.36248c-0.79219-0.11485-1.2513-0.21171-1.0202-0.21524 0.23105-0.0035 1.0683 0.09115 1.8604 0.2104 0.79219 0.11925 1.2513 0.21611 1.0202 0.21524-0.23106-0.00088-1.0683-0.09555-1.8605-0.2104zm11.043-0.11764c-0.40061-0.07173-0.42048-0.08704-0.12003-0.09248 0.19805-0.0036 0.63016 0.03555 0.96024 0.08696 0.56973 0.08874 0.57581 0.09343 0.12003 0.09248-0.26407-0.0006-0.69617-0.03968-0.96024-0.08696zm-22.956-7.2904c0.37959-0.02382 1.0007-0.02382 1.3803 0s0.069 0.04331-0.69017 0.04331c-0.75918 0-1.0698-0.01949-0.69016-0.04331zm21.695 15.201c0-0.08392-0.23775-0.11634-0.66032-0.09002-0.55194 0.03437-0.6603 0.0084-0.66016-0.15825 0.00009-0.10965-0.11307-0.49525-0.25146-0.85689-0.56817-1.4847-1.4099-1.9768-3.5083-2.0511-0.67169-0.02377-0.9512-0.02292-0.62112 0.0019 1.0864 0.08169 2.1287 0.29428 2.5854 0.52728 0.64326 0.32816 1.2516 1.097 1.4969 1.8918 0.11651 0.3775 0.23458 0.72687 0.26238 0.77638 0.0816 0.14531 1.3567 0.10667 1.3567-0.04111zm15.184-0.06942c0.71739-0.24007-0.0924-0.28041-3.2446-0.16165-1.7143 0.06459-5.075 0.1185-7.468 0.11979-3.0197 0.0016-4.351 0.0418-4.351 0.1313 0 0.17078 14.544 0.08443 15.064-0.08944zm-27.307-0.26702c-0.39405-0.21926-0.81268-0.25036-0.9612-0.0714-0.12845 0.15478-0.0615 0.17839 0.4964 0.17523 0.41017-0.0023 0.57932-0.04011 0.4648-0.10383zm24.756-0.0925c1.3038-0.04256 2.3706-0.1095 2.3706-0.14876 0.00001-0.03925-3.2756-0.05231-7.2792-0.02902l-7.2792 0.04236 0.0775-0.38744c0.0427-0.21309 0.0775-0.62375 0.0775-0.91257v-0.52513h4.6683c4.902 0 4.814 0.009 4.814-0.48993 0-0.06504-1.9105-0.11021-4.6611-0.11021-2.5636 0-4.6836-0.02245-4.7112-0.04988-0.0275-0.02743-0.023-0.4147 0.01-0.86061l0.06-0.81073 7.2918 0.0031c6.0596 0.0026 7.2918-0.02436 7.2918-0.15964 0-0.13527-1.2473-0.16279-7.3776-0.16279-7.2546 0-7.3797 0.004-7.506 0.24004-0.10737 0.20061-0.34614 3.0436-0.35696 4.2501l-0.003 0.34917 5.0712-0.08038c2.7892-0.04421 6.138-0.11521 7.4418-0.15777zm-40.305-0.03191c0.038-0.06153-0.0803-0.13445-0.26299-0.16206-0.31162-0.0471-0.30804-0.05131 0.058-0.06818 0.25874-0.01193 0.39009-0.07861 0.39009-0.19803 0-0.13249-0.15059-0.18434-0.57014-0.1963-0.31357-0.0089-1.4073-0.05697-2.4306-0.10672-1.8436-0.08964-1.8387-0.09007 0.54014-0.04756l2.4006 0.0429 0.0134-2.0667c0.0124-1.9122 0.11537-2.781 0.47592-4.0172l0.0787-0.27007-1.7244-0.01211c-0.94843-0.0066-4.209-0.08392-7.2458-0.1717l-5.5213-0.15959 4.141 0.05291c2.2776 0.02909 5.5504 0.08774 7.2729 0.13032l3.1319 0.07741 0.0676-0.25869c0.0562-0.21477 0.0135-0.26128-0.25119-0.2739-0.17536-0.0084-1.4801-0.05617-2.8995-0.10625l-2.5806-0.09104 3.0607 0.02458c2.1125 0.01697 2.819-0.007 2.2806-0.07754-0.42911-0.05617-2.9407-0.08694-5.5814-0.06838-2.6406 0.01857-7.2123-0.01435-10.159-0.07313l-5.3581-0.10688-0.1375 0.25692c-0.13273 0.24801-0.11342 0.25754 0.5569 0.27494 0.69431 0.01803 0.69433 0.01804 0.15856 0.09002-0.53428 0.07178-0.53649 0.07409-0.76119 0.79217-0.13472 0.43056-0.25179 1.2632-0.2911 2.0705-0.0531 1.0912-0.10031 1.3503-0.24585 1.3503-0.14714 0-0.16728 0.12424-0.11002 0.67892 0.0386 0.37341 0.14062 0.72366 0.22684 0.77835 0.0862 0.05468 0.44935 0.10026 0.80693 0.10127 0.97744 0.0028 0.66935 0.11479-0.35754 0.13-0.49102 0.0073-1.0278 0.04728-1.1928 0.0889-0.27837 0.07019-0.26969 0.08046 0.12003 0.14196 0.23106 0.03646 0.44711 0.03434 0.48012-0.0047 0.033-0.03905 0.19505-0.0321 0.36009 0.01544 0.28562 0.08227 0.28706 0.08701 0.03 0.0984-0.15471 0.0069-0.27006 0.08886-0.27006 0.19201 0 0.13862 0.15475 0.18004 0.67258 0.18004 0.36993 0 1.4531 0.06012 2.407 0.1336 1.5593 0.12011 1.9984 0.10318 1.8248-0.07038-0.0312-0.03124-0.99898-0.13671-2.1505-0.23437-1.9594-0.16617-1.9974-0.17379-0.59335-0.11879 0.8252 0.03233 1.7704 0.09049 2.1005 0.12925 0.47121 0.05533 0.57043 0.03884 0.46181-0.07677-0.078-0.08307-0.81038-0.21363-1.6804-0.29956-0.84813-0.08378-1.326-0.1583-1.062-0.16561 0.78704-0.02178 2.6081 0.20198 2.7432 0.33707 0.21155 0.21154 0.28394 0.14532 0.42051-0.38462 0.18369-0.71279 0.54004-1.2442 0.99046-1.4772 0.31913-0.16503 0.6793-0.19094 2.1358-0.15368 1.5466 0.03957 1.8204 0.07825 2.3357 0.33 0.62828 0.30693 1.1711 1.0107 1.4199 1.841 0.0742 0.24756 0.14503 0.45011 0.15745 0.45011 0.0124 0 0.17941-0.06889 0.37109-0.15309 0.25807-0.11336 0.81581-0.13426 2.149-0.08054l1.8004 0.07255-1.9374 0.0054c-1.8935 0.0052-2.512 0.09362-2.0156 0.28802 0.19479 0.07628 0.17904 0.09224-0.098 0.09932-0.18154 0.0046-0.33008 0.06245-0.33008 0.12847 0 0.07154 0.49703 0.12422 1.2303 0.1304 0.67666 0.0057 2.5536 0.07881 4.171 0.16247 1.6174 0.08365 3.1131 0.16001 3.3237 0.16968 0.21066 0.0097 0.41412-0.03276 0.45215-0.09428zm-3.5058-0.33745c0.51162-0.0225 1.3488-0.0225 1.8604 0 0.51162 0.0225 0.093 0.04091-0.93023 0.04091s-1.4418-0.01841-0.93022-0.04091zm-3.8952-0.1202c0.54777-0.02229 1.412-0.02217 1.9205 0.00024 0.50849 0.02244 0.0603 0.04068-0.99594 0.04053-1.0562-0.00012-1.4723-0.01852-0.92452-0.0408zm3.3442-1.1173c-0.43739-0.34405-0.63905-1.057-0.42338-1.4969 0.4943-1.0082 1.5446-0.48563 1.5446 0.76847 0 0.37274-0.0693 0.53189-0.31626 0.72614-0.39013 0.30688-0.41759 0.30696-0.80494 0.0022zm0.73441-0.06038c0.20548-0.14392 0.26676-0.30566 0.26676-0.70399 0-1.0331-0.91612-1.5557-1.3036-0.74358-0.20822 0.43635-0.0176 1.176 0.37363 1.45 0.32468 0.22742 0.3351 0.22738 0.66324-0.0025zm-5.9618-0.26326c-0.12759-0.24756-0.41246-0.62335-0.63304-0.8351-0.63926-0.61365-1.2673-0.78296-3.1405-0.84664-2.2386-0.07611-2.6494 0.10537-3.1532 1.393-0.14909 0.38113-0.16241 0.39145-0.10146 0.07864 0.11365-0.58326 0.45446-1.0617 0.96039-1.3483 0.41676-0.23606 0.64641-0.26839 1.9186-0.27013 2.3962-0.0033 3.4777 0.42471 4.1654 1.6484 0.19476 0.34658 0.32299 0.63015 0.28496 0.63015-0.038 0-0.17355-0.20255-0.30114-0.45011zm0.30831 0c-0.0291-0.04952-0.0892-0.25923-0.13355-0.46604-0.10855-0.50655-0.8331-1.3299-1.3664-1.5527-0.23851-0.09966-0.70554-0.2313-1.0378-0.29254l-0.60418-0.11134 0.64397 0.05204c1.2623 0.102 2.1392 0.77884 2.4812 1.9151 0.14859 0.49372 0.1559 0.69183 0.0168 0.45552zm-7.6809-0.452c0.0359-0.26406 0.15912-0.66916 0.27369-0.90022 0.21801-0.43964 0.86628-0.9603 1.1954-0.96014 0.10576 0.000052-0.0418 0.11597-0.3279 0.25759-0.52998 0.26233-0.79248 0.66502-1.0839 1.6628l-0.12269 0.4201 0.0654-0.48012zm1.8738-1.9436c0.11678-0.03043 0.27882-0.02843 0.36008 0.0045 0.0813 0.03288-0.0143 0.05778-0.21233 0.05533-0.19805-0.0025-0.26454-0.02934-0.14775-0.05978zm1.0816-0.12522c0.31556-0.02481 0.80168-0.02451 1.0803 0.00072 0.27857 0.02517 0.0204 0.04547-0.57377 0.04511-0.59414-0.00036-0.82207-0.02096-0.50649-0.04577zm-4.0913-3.1219c0.70601-0.02118 1.8943-0.02126 2.6406-0.00012 0.74633 0.02109 0.16869 0.03843-1.2837 0.03851-1.4524 0.000091-2.063-0.01716-1.357-0.03835zm19.181 7.5313c0-0.06602-0.21605-0.12003-0.48011-0.12003-0.26407 0-0.48012 0.05401-0.48012 0.12003s0.21605 0.12003 0.48012 0.12003c0.26406 0 0.48011-0.05401 0.48011-0.12003zm0.21072-0.45011c0.0773-0.23503-0.88655-0.19867-0.97693 0.03685-0.0591 0.15393 0.0164 0.18039 0.42795 0.15004 0.27481-0.02027 0.52185-0.10437 0.54898-0.18689zm33.397 0.03001c0-0.13337 0.14004-0.18004 0.54013-0.18004 0.43294 0 0.54089 0.04169 0.54395 0.21005 0.004 0.20005 0.0114 0.20005 0.16327 0 0.21175-0.27894 1.2158-0.30609 1.1098-0.03001-0.038 0.09902-0.0168 0.18004 0.0471 0.18004s0.11626-0.08102 0.11626-0.18004c0-0.12574 0.12671-0.18004 0.42011-0.18004 0.31868 0 0.42098 0.05071 0.42375 0.21005 0.003 0.20005 0.009 0.20005 0.12599 0 0.0727-0.12494 0.26584-0.21005 0.47647-0.21005 0.25194 0 0.35814 0.06061 0.36804 0.21005 0.0133 0.20005 0.0166 0.20005 0.0688 0 0.0631-0.24169 0.63527-0.29523 0.64125-0.06001 0.002 0.09163 0.0659 0.06826 0.16327-0.06001 0.0877-0.11553 0.24802-0.21005 0.35627-0.21005s0.19846 0.09452 0.20047 0.21005c0.003 0.20005 0.009 0.20005 0.126 0 0.15579-0.26749 0.59052-0.27757 0.59052-0.01369 0 0.16454 0.0902 0.18399 0.55689 0.12003 0.30628-0.04198 0.65107-0.07633 0.76619-0.07633 0.22276 0 0.38379-0.39154 0.27626-0.67174-0.0866-0.22575-0.51907-0.2161-0.51907 0.01158 0 0.09902-0.054 0.18004-0.12003 0.18004-0.066 0-0.12003-0.08732-0.12003-0.19404 0-0.14225-0.0801-0.17873-0.30007-0.13667-0.16504 0.03155-0.30008 0.006-0.30008-0.05669 0-0.06389 0.31682-0.09616 0.72039-0.07338 0.62163 0.03509 0.72037 0.01187 0.72018-0.16938-0.00024-0.17848-0.11747-0.21005-0.78041-0.21005-0.58684 0-0.78019 0.04143-0.78019 0.1672 0 0.15727-0.24369 0.31292-0.48993 0.31292-0.0606 0-0.11364-0.12153-0.11782-0.27006l-0.008-0.27007-0.10856 0.27007c-0.13045 0.32455-0.5898 0.36972-0.61032 0.06001-0.0133-0.20005-0.0166-0.20005-0.0688 0-0.069 0.26387-0.63743 0.29063-0.63743 0.03001 0-0.09902-0.054-0.18004-0.12003-0.18004-0.066 0-0.12003 0.08102-0.12003 0.18004 0 0.224-0.71554 0.25343-0.72965 0.03001-0.007-0.12003-0.0216-0.12003-0.07 0-0.0897 0.22229-0.88074 0.19534-0.88074-0.03001 0-0.09902-0.054-0.18004-0.12003-0.18004-0.066 0-0.12003 0.08102-0.12003 0.18004 0 0.28325-1.0754 0.25376-1.0942-0.03001-0.0133-0.20005-0.0166-0.20005-0.0688 0-0.0429 0.1642-0.18398 0.21005-0.64624 0.21005-0.47786 0-0.59401-0.04031-0.60526-0.21005-0.0133-0.20005-0.0166-0.20005-0.0688 0-0.043 0.16462-0.18432 0.21005-0.65332 0.21005-0.36838 0-0.56991 0.04614-0.52425 0.12003 0.0408 0.06602 0.31406 0.12003 0.60723 0.12003 0.40757 0 0.53305 0.045 0.53305 0.19115 0 0.15667-0.11912 0.18374-0.66032 0.15004-0.38765-0.02413-0.66029 0.0085-0.66024 0.07892 0.00006 0.06955 0.25249 0.10254 0.60031 0.07843 0.48701-0.03374 0.60022-0.0054 0.60022 0.15004 0 0.1054 0.054 0.19163 0.12003 0.19163 0.066 0 0.12003-0.08102 0.12003-0.18004zm0-0.47354c0-0.14433 0.13826-0.18662 0.61015-0.18662 0.79314 0 0.75141 0.28441-0.0494 0.33666-0.4429 0.0289-0.56076-0.0026-0.56076-0.15004zm1.3203-0.0066c0-0.13337 0.14004-0.18004 0.54013-0.18004 0.4001 0 0.54013 0.04668 0.54013 0.18004s-0.14003 0.18004-0.54013 0.18004c-0.40009 0-0.54013-0.04668-0.54013-0.18004zm1.2003 0.0073c0-0.13913 0.12606-0.18729 0.49012-0.18729 0.62539 0 0.58392 0.28382-0.0493 0.33733-0.33533 0.02833-0.44083-0.0076-0.44083-0.15004zm1.1008-0.02826c0.0262-0.13808 0.16708-0.23345 0.38115-0.25804 0.27425-0.0315 0.33159 0.0031 0.29802 0.18004-0.0262 0.13808-0.16708 0.23345-0.38115 0.25804-0.27425 0.03149-0.33159-0.0031-0.29802-0.18004zm0.84896-0.06901c0.0765-0.23294 0.69091-0.26671 0.69091-0.03798 0 0.13002-0.11416 0.18802-0.37009 0.18802-0.24232 0-0.35307-0.0518-0.32082-0.15004zm0.81094-0.02166c0-0.12255 0.10837-0.18839 0.31008-0.18839 0.37602 0 0.33486 0.28188-0.0494 0.33843-0.17311 0.02547-0.26067-0.02493-0.26067-0.15004zm0.72018-0.0083c0-0.10002 0.1067-0.18004 0.24006-0.18004s0.24005 0.08002 0.24005 0.18004-0.10669 0.18004-0.24005 0.18004-0.24006-0.08002-0.24006-0.18004zm-7.5618 0.07633v-0.58383l-0.55688-0.07633c-0.30629-0.04199-1.1165-0.07634-1.8004-0.07634-1.1569 0-1.2436 0.01646-1.2436 0.23629 0 0.16786 0.0608 0.21893 0.21005 0.17633 0.11553-0.03298 0.0885 0.004-0.06 0.08212-0.18357 0.09657-0.27007 0.25154-0.27007 0.48383v0.34175h1.8604 1.8604v-0.58383zm-1.7204-0.10634c0.0608-0.24137 0.14234-0.27007 0.76713-0.27007 0.38451 0 0.72426 0.04051 0.75501 0.09002 0.0307 0.04952-0.23986 0.07131-0.60136 0.04843-0.53058-0.03358-0.68922 0.0011-0.82305 0.18004-0.15572 0.20821-0.16164 0.20528-0.0977-0.04843zm-0.32004-0.02204c0-0.06163-0.14853-0.13456-0.33008-0.16206-0.30722-0.04654-0.30307-0.05124 0.06-0.06798 0.27473-0.01267 0.3901 0.03526 0.3901 0.16206 0 0.09902-0.027 0.18004-0.06 0.18004s-0.06-0.05043-0.06-0.11206zm-2.0405 0.36712c0-0.12378 0.0346-0.39783 0.0768-0.609 0.0753-0.37656 0.069-0.3832-0.33008-0.34508-0.38903 0.03716-0.40974 0.06385-0.4724 0.609l-0.0655 0.57014h0.39562c0.3068 0 0.39561-0.05052 0.39561-0.22505zm-51.4-0.457c-0.11476-0.03004-0.33081-0.03113-0.48012-0.0024-0.14931 0.02871-0.0555 0.05329 0.20865 0.05462 0.26407 0.0014 0.38622-0.02216 0.27147-0.0522zm61.094-0.7c0.52448-0.26164 0.59958-0.53718 0.14641-0.53718-0.19597 0-0.35632-0.05401-0.35632-0.12003s-0.10802-0.12003-0.24005-0.12003c-0.13204 0-0.24006 0.05401-0.24006 0.12003s-0.10803 0.12003-0.24006 0.12003-0.24006 0.02259-0.24006 0.0502-0.0328 0.13564-0.0728 0.24006c-0.055 0.14321 0.004 0.18986 0.24006 0.18986 0.17211 0 0.31292 0.05401 0.31292 0.12003 0 0.17239 0.26709 0.14802 0.69002-0.06297zm3.481-0.13484c0.50729-0.06094 0.63015-0.11924 0.63015-0.29903 0-0.20738-0.12296-0.22334-1.7212-0.22334-1.7194 0-1.7213 0.00036-1.8579 0.30007l-0.13673 0.30007 1.2277-0.0011c0.67525-0.0006 1.5113-0.0351 1.8579-0.07673zm-7.4118-0.82244c0-0.13337 0.14004-0.18004 0.54013-0.18004 0.4001 0 0.54013 0.04668 0.54013 0.18004 0 0.09902 0.054 0.18004 0.12003 0.18004 0.066 0 0.12003-0.08102 0.12003-0.18004 0-0.27119 0.91008-0.24568 1.0706 0.03001 0.11652 0.20005 0.12252 0.20005 0.12599 0 0.002-0.15934 0.10507-0.21005 0.42375-0.21005 0.24674 0 0.42011 0.05945 0.42011 0.14404 0 0.11203 0.032 0.11203 0.14403 0 0.21225-0.21225 0.66615-0.1751 0.80659 0.06602 0.11652 0.20005 0.12252 0.20005 0.12599 0 0.002-0.14306 0.0994-0.21005 0.30372-0.21005 0.20438 0 0.30124 0.06699 0.30372 0.21005 0.003 0.20005 0.009 0.20005 0.126 0 0.0673-0.11553 0.22768-0.21005 0.35644-0.21005 0.14153 0 0.23553 0.08305 0.23774 0.21005 0.003 0.20005 0.009 0.20005 0.126 0 0.12974-0.22276 0.59052-0.293 0.59052-0.09002 0 0.06793 0.34475 0.12003 0.7942 0.12003 0.76502 0 0.79152-0.0099 0.72181-0.27006-0.0399-0.14854-0.0731-0.33758-0.074-0.4201-0.002-0.23955-0.4812-0.1804-0.48557 0.06001-0.003 0.19311-0.0176 0.19187-0.17455-0.01543-0.1087-0.14354-0.25998-0.20215-0.41629-0.16127-0.13505 0.03531-0.24555 0.01525-0.24555-0.04458 0-0.05984 0.29707-0.10879 0.66016-0.10879 0.50679 0 0.66016-0.04183 0.66016-0.18004 0-0.14004-0.16004-0.18004-0.72017-0.18004-0.56014 0-0.72018 0.04001-0.72018 0.18004 0 0.26754-0.59627 0.2384-0.61407-0.03001-0.0133-0.20005-0.0166-0.20005-0.0688 0-0.0333 0.12726-0.16969 0.21005-0.34617 0.21005-0.19207 0-0.296-0.07154-0.30519-0.21005-0.0133-0.20005-0.0166-0.20005-0.0688 0-0.069 0.26387-0.63743 0.29063-0.63743 0.03001 0-0.09902-0.0598-0.18004-0.13287-0.18004-0.0731 0-0.10178 0.08102-0.0638 0.18004 0.0532 0.13871-0.0265 0.18004-0.34725 0.18004-0.31118 0-0.41985-0.05305-0.43026-0.21005-0.0133-0.20005-0.0166-0.20005-0.0688 0-0.072 0.27555-0.8775 0.3031-0.8775 0.03001 0-0.09902-0.054-0.18004-0.12003-0.18004-0.066 0-0.12003 0.08102-0.12003 0.18004 0 0.28325-1.0754 0.25376-1.0942-0.03001-0.0133-0.20005-0.0166-0.20005-0.0688 0-0.0417 0.1597-0.18083 0.21005-0.58025 0.21005-0.37372 0-0.56068-0.06063-0.64771-0.21005-0.11652-0.20005-0.12252-0.20005-0.126 0-0.003 0.17002-0.12372 0.21428-0.6338 0.23225l-0.63015 0.02221 0.63015 0.04408c0.54031 0.0378 0.63015 0.07907 0.63015 0.28945 0 0.21997-0.0621 0.24107-0.60021 0.20378-0.33012-0.02288-0.60019-0.0011-0.60015 0.04843 0.00004 0.04952 0.27014 0.09002 0.60022 0.09002 0.45344 0 0.60014 0.04401 0.60014 0.18004 0 0.09902 0.054 0.18004 0.12003 0.18004 0.066 0 0.12003-0.08102 0.12003-0.18004zm0-0.54013c0-0.20449 0.08-0.24006 0.54013-0.24006 0.46011 0 0.54013 0.03557 0.54013 0.24006s-0.08 0.24006-0.54013 0.24006c-0.46011 0-0.54013-0.03557-0.54013-0.24006zm1.3203-0.0069c0-0.21624 0.0633-0.24237 0.50909-0.21005 0.37137 0.02693 0.51987 0.09374 0.54894 0.24696 0.0332 0.17524-0.0511 0.21005-0.5091 0.21005-0.47402 0-0.54893-0.0337-0.54893-0.24696zm1.2003 0.0069c0-0.19433 0.08-0.24006 0.4201-0.24006 0.34009 0 0.42011 0.04572 0.42011 0.24006 0 0.19433-0.08 0.24006-0.42011 0.24006-0.34008 0-0.4201-0.04572-0.4201-0.24006zm1.0138 0.10957c-0.0443-0.07177-0.0267-0.18437 0.0391-0.25022 0.18302-0.18302 0.68003-0.06605 0.72514 0.17066 0.031 0.16245-0.0419 0.21005-0.32177 0.21005-0.199 0-0.39809-0.05872-0.44246-0.13049zm0.90669-0.10957c0-0.17604 0.08-0.24006 0.30007-0.24006 0.22005 0 0.30007 0.06401 0.30007 0.24006 0 0.17604-0.08 0.24006-0.30007 0.24006-0.22005 0-0.30007-0.06402-0.30007-0.24006zm0.74261 0.03001c0.022-0.11553 0.16101-0.22731 0.30887-0.24841 0.20419-0.02913 0.26884 0.02138 0.26884 0.21005 0 0.18684-0.0766 0.24841-0.30888 0.24841-0.22939 0-0.29856-0.05404-0.26883-0.21005zm0.72018 0c0.022-0.11553 0.161-0.22731 0.30886-0.24841 0.2042-0.02913 0.26884 0.02138 0.26884 0.21005 0 0.18684-0.0766 0.24841-0.30887 0.24841-0.22939 0-0.29857-0.05404-0.26883-0.21005zm-20.573 0.48158c-0.37701-0.02374-1.0252-0.02393-1.4404-0.00048-0.41519 0.0235-0.10673 0.04293 0.68546 0.04317s1.1319-0.019 0.75489-0.04274zm9.004-0.54159c0.0359-0.55975 0.0302-0.57014-0.31799-0.57014-0.33467 0-0.35703 0.03081-0.39821 0.5486-0.0508 0.63913-0.0298 0.6744 0.37506 0.6272 0.2722-0.03174 0.30845-0.09611 0.34114-0.60566zm4.1044 0.03001v-0.60015h-1.7876c-1.9711 0-1.9333-0.01544-1.9333 0.79001v0.41028h1.8604 1.8604v-0.60014zm-2.2135-0.06383c-0.18876-0.14277-0.19689-0.17623-0.0429-0.17623 0.10459 0 0.22124 0.08102 0.25924 0.18004 0.0837 0.21813 0.0769 0.21801-0.21639-0.0038zm0.47878 0.03382c0.0622-0.16336 0.22058-0.21005 0.71259-0.21005 0.46193 0 0.67551 0.05668 0.79157 0.21005 0.13521 0.1787 0.13383 0.18766-0.009 0.06001-0.0925-0.08252-0.4167-0.15004-0.72038-0.15004-0.30367 0-0.62015 0.06752-0.70328 0.15004-0.12118 0.1203-0.13529 0.1084-0.0711-0.06001zm-1.8662-0.06373c0-0.15647 0.56739-0.33912 0.68576-0.22075 0.041 0.04094-0.0318 0.07443-0.16163 0.07443s-0.30088 0.06482-0.38009 0.14404c-0.10945 0.10944-0.14404 0.11-0.14404 0.0023zm-51.245-2.103c0.0703-0.51493 0.20319-1.1496 0.29519-1.4103 0.092-0.26076 0.12074-0.4741 0.0639-0.4741-0.25763 0-0.51462 1.1843-0.54698 2.5206-0.0184 0.75918-0.0124 1.1373 0.0133 0.8402 0.0257-0.29707 0.10428-0.96144 0.17464-1.4764zm23.279-2.005c0-0.06602-0.10803-0.12003-0.24006-0.12003s-0.24006 0.05401-0.24006 0.12003 0.10803 0.12003 0.24006 0.12003 0.24006-0.05401 0.24006-0.12003zm26.888-1.1948c-0.0629-0.21928-0.20537-0.49927-0.31662-0.6222-0.22901-0.25304-0.64596-0.30064-0.6437-0.07348 0.002 0.16907 0.94489 1.2241 1.0238 1.1452 0.028-0.02797-0.0006-0.23027-0.0635-0.44954zm-3.9418-1.9198c-1.659-1.6156-2.2934-2.1593-2.5806-2.212-0.20949-0.03842-1.3206-0.10639-2.4691-0.15103l-2.0882-0.08116 0.0877 0.34881c0.23066 0.91759 0.54432 2.5431 0.54601 2.8296 0.003 0.53293 0.12264 0.69998 0.5008 0.69998 0.19426 0 0.51706 0.08473 0.71733 0.1883 0.28654 0.14818 0.44254 0.16097 0.73213 0.06001 0.55166-0.19231 1.9982-0.14808 2.5527 0.07806 0.31006 0.12645 1.0328 0.22267 2.0405 0.27165 0.85821 0.04171 1.6954 0.08351 1.8604 0.09287 0.24046 0.01364-0.13697-0.40858-1.8997-2.1251zm-20.693 1.553c0.0893-0.8244 0.18771-1.13 0.44757-1.3898 0.27076-0.27076 0.33883-0.28085 1.4624-0.21682 1.7853 0.10174 2.0295 0.25729 2.1621 1.377 0.0558 0.47114 0.11528 0.59098 0.29332 0.59098 0.18732 0 0.22335-0.09466 0.22335-0.58685 0-0.96281 0.18352-1.0878 1.6497-1.1236 0.67631-0.0165 1.23-0.04566 1.2303-0.06479 0.002-0.10703-0.58228-1.156-1.0375-1.8627-0.73115-1.135-0.85831-1.177-3.4358-1.1361l-2.0676 0.03283-0.62581 1.8605c-0.34419 1.0232-0.66255 2.0955-0.70745 2.3827-0.0735 0.46973-0.0588 0.51789 0.1457 0.47889 0.13854-0.02642 0.23997-0.16009 0.25969-0.34221zm7.8065 0.04785 0.36703-0.0734-0.2554-0.52569c-0.20835-0.42884-0.33103-0.53988-0.66592-0.60271-0.53446-0.10026-2.0601 0.04287-2.2644 0.21244-0.0874 0.07256-0.15897 0.34137-0.15897 0.59735v0.46542h1.3053c0.71793 0 1.4705-0.03303 1.6723-0.0734zm3.3254-2.6573c-0.12697-1.5354-0.11022-1.5183-1.4082-1.4342-0.59402 0.03849-1.102 0.09193-1.1288 0.11876-0.0268 0.02684 0.25482 0.57009 0.6259 1.2072l0.67469 1.1584h0.66166 0.66166l-0.0868-1.0503z"/>
 </g>
</svg>
