<?xml version="1.0" encoding="UTF-8" standalone="no"?>
<!-- Created with Inkscape (http://www.inkscape.org/) -->
<svg id="svg2" xmlns:rdf="http://www.w3.org/1999/02/22-rdf-syntax-ns#" xmlns="http://www.w3.org/2000/svg" height="54" width="99" version="1.1" xmlns:cc="http://creativecommons.org/ns#" xmlns:dc="http://purl.org/dc/elements/1.1/">
 <metadata id="metadata7">
  <rdf:RDF>
   <cc:Work rdf:about="">
    <dc:format>image/svg+xml</dc:format>
    <dc:type rdf:resource="http://purl.org/dc/dcmitype/StillImage"/>
    <dc:title/>
   </cc:Work>
  </rdf:RDF>
 </metadata>
 <g id="g3491">
  <g id="g3871">
   <g id="g4614">
    <g id="g5219">
     <g id="g5689">
      <g id="g6406">
       <g id="g7263">
        <g id="g8053">
         <g id="g8717">
          <g id="g9406">
           <g id="g9898">
            <g id="g10207">
             <g id="g10407">
              <g id="g10743">
               <g id="g11282">
                <g id="g11967">
                 <rect id="rect2990" opacity="0" height="54" width="99" y="0" x="0"/>
                 <g id="layer1" transform="translate(224.62494,42.480384)">
                  <g id="logo16" transform="matrix(0.16653016,0,0,0.16653016,-220.12417,-32.252735)">
                   <g id="g80968">
                    <path id="path80970" d="m495.81,154.2c6.073,0.655,20.424-1.379,22.146-1.81,1.85-0.462,1.156-2.312,1.85-3.467s7.166-4.393,13.177-7.86c6.01-3.468,6.704-7.629,6.704-11.559s-1.85-6.242-3.468-6.936-3.699-1.618-4.161-3.236c0,0,0.925-2.312-3.005-5.086,0,0,0.462-3.699-4.161-11.559s-24.966-18.494-52.245-30.515c0,0-27.279-19.881-60.567-36.525-33.31-16.59-42.1-19.826-100.35-25.374-58.26-5.548-135.94-3.236-184.02-3.699-48.083-0.463-53.169,3.699-63.341,7.397-10.171,3.699-27.278,53.17-28.665,90.16-2.774,0.462-1.85,6.935,0,19.881-6.011,0-12.946,2.774-12.946,6.01,0,4.161,1.849,14.333,7.397,17.107,4.625,2.313,38.8,11.049,57.816,14.697l1.634,0.264,5.51-0.396c17.338,2.081,53.863,2.081,63.573,2.081,0,0,5.085-10.171,7.397-15.72,2.312-5.548,5.086-26.354,18.956-26.354h41.14c12.946,0,17.569,0,18.031,13.408s-4.161,24.042-4.161,24.042l170.61-6.473c7.86-0.462,15.72,0.925,15.72,0.925,6.011-5.086,8.942-13.463,11.096-24.504,3.699-18.957,14.787-21.73,27.278-21.73,22.655,0,27.279-0.462,30.515,8.322s5.548,24.042,0.925,35.138c-0.958,1.277-0.813,2.553-0.633,3.222l0.217,0.205z" fill="#FFF"/>
                   </g>
                   <path id="path80972" d="m495.77,154.48s0,6.473-2.312,8.785c0,0,7.763-1.292,16.182,0.462,11.096,2.312,21.268,5.086,17.107,9.709s-18.032,5.548-30.978,6.473c-12.945,0.925-45.772,4.161-55.943,4.161-10.172,0-26.816,0.462-43.461,0.462s-130.38,3.236-141.02,6.473c-10.634,3.236-23.348,9.709-37.681,10.172-12.024,0.388-20.575,0.462-27.972-0.694s-22.886-3.236-44.154-2.774-58.255,2.774-74.9,0.462-52.602-11.74-59.643-15.72c-10.634-6.011-19.899-15.72,4.161-15.72,8.785,0,22.192-0.925,22.192-0.925l57.793-4.161c17.338,2.081,53.863,2.081,63.573,2.081,0,0,5.085-10.171,7.397-15.72,2.312-5.548,5.086-26.354,18.956-26.354h41.149c12.946,0,17.569,0,18.031,13.408s-4.161,24.042-4.161,24.042l170.61-6.473c7.86-0.462,15.72,0.925,15.72,0.925,6.011-5.086,8.942-13.463,11.096-24.504,3.699-18.957,14.787-21.73,27.278-21.73,22.655,0,27.279-0.462,30.515,8.322s5.548,24.042,0.925,35.138c-1.384,1.851-0.46,3.7-0.46,3.7z"/>
                   <path id="path80974" d="m97.226,163.27c-13.408-1.39-61.492-13.41-67.04-16.18-5.548-2.78-7.397-12.95-7.397-17.11,0-3.237,6.935-6.011,12.946-6.011-1.85-12.946-2.774-19.418,0-19.881,1.386-36.99,18.493-86.461,28.664-90.16,10.172-3.699,15.258-7.86,63.341-7.397,48.084,0.463,125.76-1.849,184.01,3.699,58.255,5.548,67.04,8.785,100.33,25.429,33.289,16.645,60.567,36.525,60.567,36.525,27.278,12.021,47.622,22.655,52.245,30.515,4.624,7.86,4.161,11.559,4.161,11.559,3.93,2.774,3.005,5.086,3.005,5.086,0.462,1.618,2.543,2.543,4.161,3.236,1.618,0.694,3.468,3.005,3.468,6.936,0,3.93-0.694,8.091-6.704,11.559-6.011,3.467-12.483,6.704-13.177,7.86s0,3.005-1.85,3.467c-1.849,0.462-18.263,2.774-23.348,1.618" stroke="#000" stroke-width="1.5" fill="none"/>
                   <path id="path80976" d="m473.11,75.191c-1.387,0.924-3.467,1.849-10.634,1.849s-69.583-1.156-90.389-1.618-25.66-4.161-33.52-18.263-18.032-33.982-23.349-42.073c30.746,0.924,54.326,2.543,78.83,14.564s49.472,26.353,79.062,45.541z"/>
                   <path id="path80978" d="m139.76,17.397s-8.322,32.595-8.785,57.793c0,0,39.531-0.694,96.399-0.462,56.869,0.231,78.137,0.924,78.137,0.924,14.795,0,11.79-9.94,10.865-15.026s-8.322-29.59-15.026-42.074c0,0-24.967-2.774-80.217-2.312-55.25,0.464-81.373,1.157-81.373,1.157z" stroke="#000"/>
                   <path id="path80980" d="m111.1,74.959c0-26.354,12.252-55.25,13.639-58.024-12.95-2.081-24.74-3.005-35.836-3.468-11.096-0.462-23.117,0.231-23.117,0.231-4.392,1.387-4.854,3.005-7.167,6.242-2.312,3.236-11.79,20.343-17.106,46.234,18.493,4.624,46.003,7.167,69.583,8.785z" stroke="#000"/>
                   <path id="path80982" d="m218.36,16.473c3.468,12.946,8.091,37.913,9.016,58.256" fill="none" stroke="#000"/>
                   <path id="path80984" d="m226.91,81.201v2.081c-24.042-0.231-70.739,0.693-95.474,1.85l-0.231-3.005c25.429-1.157,75.131-1.157,95.705-0.926z" stroke="#000"/>
                   <line id="line80986" x1="131.21" x2="130.98" stroke="#000" y1="82.126" y2="75.191" fill="none"/>
                   <path id="path80988" d="m113.41,26.645c1.156-3.005,3.005-5.779-5.317-6.704s-33.52-1.85-39.299-1.387-5.694,3.053-7.397,6.011c-4.877,8.47-10.118,24.004-11.328,30.052-1.156,5.779,0.231,7.629,4.854,8.553,4.624,0.925,33.058,4.393,40.456,4.624,7.397,0.231,8.529-0.491,9.016-4.624,0.924-7.86,6.01-30.284,9.015-36.525z" stroke="#FFF" stroke-width="0.5" fill="none"/>
                   <path id="path80990" d="m153.17,22.714s-5.085,24.273-5.085,49.009c0,0,39.299-1.156,72.588-0.693-0.924-20.112-6.473-46.003-7.86-49.24,0,0-43.923-0.231-59.643,0.924z" stroke="#FFF" stroke-width="0.5" fill="none"/>
                   <path id="path80992" d="m231.31,21.559c3.699,11.559,8.091,37.45,7.86,49.009,0,0,56.869,0.462,65.653,0.693,8.785,0.231,8.091-6.473,5.78-13.639-2.31-7.167-8.09-25.429-13.17-33.982-23.82-2.312-66.12-2.081-66.12-2.081z" stroke="#FFF" stroke-width="0.5" fill="none"/>
                   <path id="path80994" d="m401.22,62.014c-7.86-11.327-21.037-25.429-31.671-33.982,0,0-6.473-2.081-13.87-2.312v1.387c1.156,0,2.081,1.156,2.081,1.156l1.387,2.774c0.694,0.925,0.925,2.543-1.387,2.312l-9.709-0.462s-2.312,0.462-3.236-0.925l-1.156-2.312c-0.925-1.619-0.462-2.774,2.543-2.774l6.935,0.231,0.693-1.618c-8.553-1.156-29.59-1.387-29.59-1.387s1.742,3.064,4.263,7.502c9.666,3.131,37.406,19.545,48.965,26.711,12.02-0.462,23.752,3.699,23.752,3.699z" fill="#FFF"/>
                   <path id="path80996" d="m401.22,62.014,1.618,9.709,0,0h-33.751c-11.327,0-18.956-1.85-25.198-12.946" stroke="#FFF" stroke-width="0.5" fill="none"/>
                   <path id="path80998" d="m343.89,58.777c-2.832-5.034-7.138-12.636-10.998-19.441,13.83,6.958,26.776,15.28,31.63,19.441,0,0-15.835-0.231-20.632,0z" fill="#FFF"/>
                   <path id="path81000" d="m419.48,60.858s2.081,3.005,6.473,3.005c4.393,0,30.284,3.468,30.284,3.468-22.655-14.564-54.094-30.284-63.573-33.983,12.021,8.554,26.816,27.51,26.816,27.51z" fill="#FFF"/>
                   <path id="path81002" d="m323.08,21.096c20.112,0.462,36.063,1.618,42.767,3.005s8.785,3.93,12.021,6.473,17.569,17.8,24.273,26.816" stroke="#FFF" stroke-width="0.5" fill="none"/>
                   <path id="path81004" d="m324.01,22.714c20.112,0.462,33.289,0.925,39.993,2.312s7.965,2.415,11.096,5.085c7.86,6.704,20.343,21.037,27.047,30.053" stroke="#FFF" stroke-width="0.5" fill="none"/>
                   <path id="path81006" d="m402.84,60.165,1.849,12.483c0.462,2.543,3.005,2.774,5.548,1.618s3.973-3.923,3.005-9.247c-0.925-5.086-2.081-8.091-5.779-8.091s-2.543-0.694-3.93,0.462c-1.386,1.156-0.693,2.775-0.693,2.775z" stroke="#FFF" stroke-width="0.5" fill="none"/>
                   <path id="path81008" d="m378.33,23.177c8.091,7.167,36.525,34.676,43.692,49.009" stroke="#FFF" stroke-width="0.5" fill="none"/>
                   <path id="path81010" d="m412.78,71.954s33.982,0.925,39.993,0.925,14.102,0.693,14.564-1.387" stroke="#FFF" stroke-width="0.5" fill="none"/>
                   <polyline id="polyline81012" stroke="#FFF" points="413.24,70.567,418.79,70.567,413.01,62.476" stroke-width="0.5" fill="none"/>
                   <path id="path81014" d="m348.28,14.161c-14.795-2.081-31.902-1.85-37.219-1.85s-4.392,1.156-2.543,3.237c1.85,2.081,12.483,18.031,18.725,40.917s7.86,34.907,6.936,58.024c1.387,3.468,0.924,6.473,0.693,11.096s-1.85,16.182-1.85,16.182-3.005,11.096-6.473,14.564" stroke="#000" stroke-width="0.5" fill="none"/>
                   <path id="path81016" d="m429.88,75.422c2.312,10.171,4.161,25.198,3.467,39.068,0,0,1.156,2.312,1.156,5.548,0,3.237-0.693,8.322-1.156,11.097-0.462,2.774-2.774,10.865-4.624,15.026-1.849,4.161-6.241,7.398-6.241,7.398" stroke="#000" stroke-width="0.5" fill="none"/>
                   <path id="path81018" d="m520.27,148.7c-3.005,1.156-24.042,2.081-24.042,2.081s3.236-5.548,4.392-9.709,0.925-13.639-1.156-19.418c0.462-1.156-1.618-3.468-4.161-6.011" stroke="#000" stroke-width="0.5" fill="none"/>
                   <path id="path81020" d="m495.54,115.18s20.806,0.462,25.892,0.231,7.628-1.156,7.628-1.156" stroke="#000" stroke-width="0.5" fill="none"/>
                   <path id="path81022" d="m532.06,119.34c-3.236,2.312-32.595,2.312-32.595,2.312" stroke="#000" stroke-width="0.5" fill="none"/>
                   <g id="g81024">
                    <path id="path81026" d="m539.23,133.22c-5.317,3.005-37.681,3.699-37.681,3.699" stroke="#000" stroke-width="0.5" fill="none"/>
                   </g>
                   <path id="path81028" d="m531.6,117.03c-2.543,2.081-12.021,3.005-32.133,3.005" stroke="#000" stroke-width="0.5" fill="none"/>
                   <g id="g81030">
                    <path id="path81032" d="m446.53,114.49c-39.3-0.925-147.49-0.462-205.28,0.462-57.793,0.924-111.42,1.387-111.42,1.387s-14.795,0.925-24.504-0.462l-24.042-2.774s-1.618,2.312-1.85,3.93c-0.231,1.618,0,11.79,0,11.79,0,2.543-3.005,1.618-3.005,1.618l-18.032-3.467c-2.543-0.694-3.93-1.156-3.93-4.161v-14.34s-18.726-1.849-18.725-4.392" stroke="#000" stroke-width="0.5" fill="none"/>
                   </g>
                   <path id="path81034" d="m79.426,128.82c0,3.236-2.543,3.005-2.543,3.005s-13.87-2.543-19.881-4.161c-6.01-1.618-4.392-5.548-4.392-5.548s-1.156-6.242-0.231-9.016c-1.156-1.849,0.693-3.005,2.081-4.624l26.816,4.624" stroke="#000" stroke-width="0.5" fill="none"/>
                   <g id="g81036">
                    <path id="path81038" d="m441.44,120.96c-39.299-0.462-140.78,0.462-198.81,0.694-57.8,0.23-112.81,0.693-112.81,0.693s-14.795,0.925-24.504-0.462l-25.433-3" stroke="#000" stroke-width="0.5" fill="none"/>
                   </g>
                   <g id="g81040">
                    <path id="path81042" d="m52.61,113.8s-18.725-1.849-18.725-4.392" stroke="#000" stroke-width="0.5" fill="none"/>
                   </g>
                   <path id="path81044" d="m441.44,119.34c-39.299-0.462-140.78,0.462-198.81,0.693-57.8,0.23-112.81,0.694-112.81,0.694s-14.795,0.925-24.504-0.462l-25.433-3" stroke="#000" stroke-width="0.5" fill="none"/>
                   <path id="path81046" d="m51.685,112.18s-17.8-1.849-17.8-4.392" stroke="#000" stroke-width="0.5" fill="none"/>
                   <path id="path81048" d="m35.734,123.97c0.231,2.312,0,3.005,14.102,6.242s44.385,9.016,59.411,9.478,36.294,0,36.294,0l0.231,4.624s-18.263,0.924-31.439,1.156-22.655,0.693-36.756-1.849c-14.102-2.543-54.326-9.709-54.557-12.021s0-3.699,3.005-5.086c3.005-1.388,6.241-2.312,9.709-2.544z" stroke-width="0.5" stroke="#000"/>
                   <line id="line81050" stroke-width="0.5" x1="145.54" x2="170.51" stroke="#000" y1="139.69" y2="139.23" fill="none"/>
                   <path id="path81052" d="m109.25,139.69c-0.924-6.473-3.005-18.725-0.462-23.58-1.387-6.242,1.85-34.676,2.312-41.149" stroke="#000" stroke-width="0.5" fill="none"/>
                   <path id="path81054" d="m25.1,127.44c-0.925,1.156,4.854,2.774,4.854,2.774,14.102,3.236,48.084,9.709,62.879,11.328s52.708,0,52.708,0" stroke="#FFF" stroke-width="0.5" fill="none"/>
                   <g id="g81056" fill="#FFF">
                    <ellipse id="ellipse81058" d="m 483.50799,152.63 c 0,12.09725 -9.00265,21.904 -20.108,21.904 -11.10534,0 -20.108,-9.80675 -20.108,-21.904 0,-12.09724 9.00266,-21.90399 20.108,-21.90399 11.10535,0 20.108,9.80675 20.108,21.90399 z" cx="463.4" rx="20.108" cy="152.63" ry="21.904"/>
                    <path id="path81060" d="M463.4,152.63"/>
                   </g>
                   <g id="g81062" stroke-width="0.5" stroke="#000" fill="none">
                    <ellipse id="ellipse81064" d="m 482.50299,152.63 c 0,11.4925 -8.5527,20.809 -19.103,20.809 -10.55029,0 -19.103,-9.3165 -19.103,-20.809 0,-11.49249 8.55271,-20.809 19.103,-20.809 10.5503,0 19.103,9.31651 19.103,20.809 z" cx="463.4" rx="19.103" cy="152.63" ry="20.809"/>
                    <path id="path81066" d="M463.4,152.63"/>
                   </g>
                   <g id="g81068">
                    <rect id="rect81070" y="132.98" x="462.66" height="9.709" width="1.485"/>
                    <path id="path81072" d="M463.4,137.84"/>
                   </g>
                   <g id="g81074">
                    <polygon id="polygon81076" points="455.81,147.07,456.73,145.8,449.77,139.75,448.84,141.01"/>
                    <path id="path81078" d="M452.79,143.41"/>
                   </g>
                   <path id="path81080" d="m457.28,138.72s-2.137,1.104-3.063,2.369l-2.986-2.595c1.257-1.717,4.322-3.483,4.322-3.483s3.289-1.561,5.306-1.561v4.161c-1.487,0-3.579,1.109-3.579,1.109z" stroke-width="0.5" stroke="#000"/>
                   <g id="g81082">
                    <polygon id="polygon81084" points="454.67,155.63,454.34,154.05,445.65,156.21,445.98,157.79"/>
                    <path id="path81086" d="M450.16,155.92"/>
                   </g>
                   <path id="path81088" d="m449.47,149.46s-0.413,2.216-0.083,3.794l-3.724,0.924c-0.448-2.141,0.275-5.795,0.275-5.795s0.853-3.831,2.11-5.548l2.986,2.595c-0.927,1.266-1.564,4.03-1.564,4.03z" stroke-width="0.5" stroke="#000"/>
                   <g id="g81090">
                    <polygon id="polygon81092" points="460.11,161.94,458.77,161.24,454.9,169.98,456.24,170.68"/>
                    <path id="path81094" d="M457.5,165.96"/>
                   </g>
                   <path id="path81096" d="m452.31,162.38s1.465,1.878,2.803,2.581l-1.659,3.749c-1.816-0.954-4.162-3.943-4.162-3.943s-2.044-3.02-2.492-5.162l3.725-0.924c0.33,1.577,1.785,3.699,1.785,3.699z" stroke-width="0.5" stroke="#000"/>
                   <g id="g81098">
                    <polygon id="polygon81100" points="468.03,161.24,466.69,161.94,470.55,170.69,471.89,169.99"/>
                    <path id="path81102" d="M469.29,165.97"/>
                   </g>
                   <path id="path81104" d="m463.44,168.26s2.294-0.176,3.633-0.877l1.655,3.75c-1.817,0.952-5.269,0.919-5.269,0.919s-3.599,0.022-5.415-0.931l1.659-3.749c1.339,0.704,3.737,0.888,3.737,0.888z" stroke-width="0.5" stroke="#000"/>
                   <g id="g81106">
                    <polygon id="polygon81108" points="472.46,154.06,472.13,155.64,480.82,157.81,481.15,156.23"/>
                    <path id="path81110" d="M476.64,155.94"/>
                   </g>
                   <path id="path81112" d="m474.48,162.34s1.465-2.055,1.797-3.632l3.724,0.929c-0.45,2.141-2.478,5.119-2.478,5.119s-2.376,3.019-4.193,3.971l-1.655-3.75c1.339-0.702,2.805-2.637,2.805-2.637z" stroke-width="0.5" stroke="#000"/>
                   <polygon id="polygon81114" points="470.08,145.81,471.01,147.08,477.98,141.03,477.06,139.76"/>
                   <path id="path81116" d="M474.03,143.42"/>
                   <path id="path81118" d="m469.44,138.5s2.243,1.337,3.168,2.603l2.989-2.591c-1.255-1.718-4.385-3.507-4.385-3.507s-3.236-1.561-5.252-1.561v4.161c1.485,0,3.48,0.895,3.48,0.895z" stroke-width="0.5" stroke="#000"/>
                   <path id="path81120" d="m477.45,149.55s-0.73-2.826-1.655-4.092l2.988-2.591c1.256,1.718,2.191,5.785,2.191,5.785s0.623,3.423,0.172,5.563l-3.723-0.929c0.331-1.577,0.027-3.736,0.027-3.736z" stroke-width="0.5" stroke="#000"/>
                   <g id="g81122">
                    <g id="g81124">
                     <ellipse id="ellipse81126" d="m 465.01299,146.85001 c 0,0.97036 -0.72216,1.757 -1.613,1.757 -0.89083,0 -1.613,-0.78664 -1.613,-1.757 0,-0.97037 0.72217,-1.757 1.613,-1.757 0.89084,0 1.613,0.78663 1.613,1.757 z" cx="463.4" rx="1.613" cy="146.85" ry="1.757"/>
                     <path id="path81128" d="M463.4,146.85"/>
                    </g>
                    <g id="g81130" fill="#FFF">
                     <ellipse id="ellipse81132" d="m 464.26299,146.85001 c 0,0.51914 -0.38637,0.94 -0.863,0.94 -0.47662,0 -0.863,-0.42086 -0.863,-0.94 0,-0.51915 0.38638,-0.94 0.863,-0.94 0.47663,0 0.863,0.42085 0.863,0.94 z" cx="463.4" rx="0.863" cy="146.85" ry="0.94"/>
                     <path id="path81134" d="M463.4,146.85"/>
                    </g>
                   </g>
                   <g id="g81136">
                    <g id="g81138">
                     <path id="path81140" d="m459.89,151.39c0.275-0.923-0.188-1.914-1.036-2.214-0.847-0.3-1.757,0.206-2.033,1.128-0.275,0.923,0.188,1.915,1.036,2.214,0.848,0.3,1.757-0.205,2.033-1.128z"/>
                     <path id="path81142" d="M458.36,150.85"/>
                    </g>
                    <g id="g81144" fill="#FFF">
                     <path id="path81146" d="m459.18,151.14c0.147-0.494-0.101-1.024-0.554-1.185-0.453-0.16-0.94,0.11-1.087,0.604s0.101,1.024,0.554,1.185c0.453,0.16,0.94-0.11,1.087-0.604z"/>
                     <path id="path81148" d="M458.36,150.85"/>
                    </g>
                   </g>
                   <g id="g81150">
                    <g id="g81152">
                     <path id="path81154" d="m461.23,155.89c-0.721-0.571-1.729-0.396-2.253,0.389s-0.364,1.884,0.356,2.455c0.721,0.57,1.73,0.396,2.253-0.389,0.524-0.786,0.365-1.885-0.356-2.455z"/>
                     <path id="path81156" d="M460.29,157.31"/>
                    </g>
                    <g id="g81158" fill="#FFF">
                     <path id="path81160" d="m460.79,156.55c-0.385-0.305-0.925-0.212-1.205,0.208s-0.195,1.008,0.191,1.313c0.385,0.305,0.925,0.212,1.205-0.208s0.194-1.008-0.191-1.313z"/>
                     <path id="path81162" d="M460.29,157.31"/>
                    </g>
                   </g>
                   <g id="g81164">
                    <g id="g81166">
                     <path id="path81168" d="m465.57,155.89c-0.721,0.57-0.88,1.669-0.357,2.455,0.524,0.785,1.533,0.959,2.253,0.389s0.88-1.669,0.357-2.455-1.532-0.96-2.253-0.389z"/>
                     <path id="path81170" d="M466.52,157.31"/>
                    </g>
                    <g id="g81172" fill="#FFF">
                     <path id="path81174" d="m466.02,156.55c-0.385,0.305-0.471,0.893-0.19,1.313,0.28,0.42,0.819,0.513,1.205,0.208s0.471-0.893,0.191-1.313c-0.281-0.42-0.82-0.513-1.206-0.208z"/>
                     <path id="path81176" d="M466.52,157.31"/>
                    </g>
                   </g>
                   <g id="g81178">
                    <g id="g81180">
                     <path id="path81182" d="m466.92,151.39c0.275,0.923,1.186,1.428,2.033,1.128s1.311-1.291,1.036-2.214-1.185-1.428-2.032-1.128c-0.849,0.3-1.312,1.291-1.037,2.214z"/>
                     <path id="path81184" d="M468.45,150.85"/>
                    </g>
                    <g id="g81186" fill="#FFF">
                     <path id="path81188" d="m467.63,151.14c0.147,0.494,0.634,0.764,1.087,0.604s0.702-0.69,0.554-1.184-0.634-0.764-1.087-0.604-0.701,0.691-0.554,1.184z"/>
                     <path id="path81190" d="M468.45,150.85"/>
                    </g>
                   </g>
                   <g id="g81192" fill="#FFF">
                    <ellipse id="ellipse81194" d="m 226.419,164.94 c 0,12.95605 -9.09265,23.459 -20.309,23.459 -11.21635,0 -20.309,-10.50295 -20.309,-23.459 0,-12.95605 9.09265,-23.459 20.309,-23.459 11.21635,0 20.309,10.50295 20.309,23.459 z" cx="206.11" rx="20.309" cy="164.94" ry="23.459"/>
                    <path id="path81196" d="M206.11,164.94"/>
                   </g>
                   <g id="g81198" stroke-width="0.5" stroke="#000" fill="none">
                    <ellipse id="ellipse81200" d="m 225.403,164.94 c 0,12.30877 -8.63777,22.287 -19.293,22.287 -10.65523,0 -19.293,-9.97823 -19.293,-22.287 0,-12.30877 8.63777,-22.287 19.293,-22.287 10.65523,0 19.293,9.97823 19.293,22.287 z" cx="206.11" rx="19.293" cy="164.94" ry="22.287"/>
                    <path id="path81202" d="M206.11,164.94"/>
                   </g>
                   <g id="g81204">
                    <rect id="rect81206" y="143.89" x="205.36" height="10.399" width="1.5"/>
                    <path id="path81208" d="M206.11,149.09"/>
                   </g>
                   <g id="g81210">
                    <polygon id="polygon81212" points="198.44,158.98,199.37,157.62,192.33,151.14,191.4,152.49"/>
                    <path id="path81214" d="M195.38,155.06"/>
                   </g>
                   <path id="path81216" d="m199.92,150.03s-2.159,1.182-3.094,2.537l-3.016-2.779c1.27-1.838,4.365-3.73,4.365-3.73s3.322-1.671,5.358-1.671v4.457c-1.5-0.001-3.613,1.186-3.613,1.186z" stroke-width="0.5" stroke="#000"/>
                   <g id="g81218">
                    <polygon id="polygon81220" points="197.29,168.15,196.96,166.46,188.18,168.77,188.51,170.46"/>
                    <path id="path81222" d="M192.73,168.46"/>
                   </g>
                   <path id="path81224" d="m192.03,161.54s-0.416,2.374-0.083,4.064l-3.761,0.99c-0.453-2.293,0.277-6.208,0.277-6.208s0.861-4.103,2.131-5.941l3.016,2.779c-0.936,1.355-1.58,4.316-1.58,4.316z" stroke-width="0.5" stroke="#000"/>
                   <g id="g81226">
                    <polygon id="polygon81228" points="202.78,174.9,201.43,174.15,197.52,183.52,198.87,184.27"/>
                    <path id="path81230" d="M200.15,179.21"/>
                   </g>
                   <path id="path81232" d="m194.9,175.37s1.479,2.012,2.831,2.765l-1.675,4.014c-1.834-1.021-4.204-4.223-4.204-4.223s-2.064-3.234-2.517-5.528l3.762-0.99c0.333,1.69,1.803,3.962,1.803,3.962z" stroke-width="0.5" stroke="#000"/>
                   <g id="g81234">
                    <polygon id="polygon81236" points="210.78,174.16,209.43,174.91,213.33,184.28,214.68,183.53"/>
                    <path id="path81238" d="M212.05,179.22"/>
                   </g>
                   <path id="path81240" d="m206.15,181.68s2.316-0.188,3.669-0.939l1.671,4.017c-1.835,1.019-5.321,0.984-5.321,0.984s-3.634,0.024-5.469-0.997l1.676-4.014c1.353,0.752,3.774,0.949,3.774,0.949z" stroke-width="0.5" stroke="#000"/>
                   <g id="g81242">
                    <polygon id="polygon81244" points="215.26,166.47,214.92,168.16,223.7,170.48,224.04,168.79"/>
                    <path id="path81246" d="M219.48,168.48"/>
                   </g>
                   <path id="path81248" d="m217.3,175.33s1.48-2.201,1.815-3.89l3.761,0.995c-0.455,2.293-2.502,5.482-2.502,5.482s-2.399,3.234-4.235,4.253l-1.672-4.016c1.352-0.751,2.833-2.824,2.833-2.824z" stroke-width="0.5" stroke="#000"/>
                   <polygon id="polygon81250" points="212.85,157.63,213.79,158.99,220.83,152.51,219.9,151.15"/>
                   <path id="path81252" d="M216.84,155.07"/>
                   <path id="path81254" d="m212.21,149.8s2.266,1.432,3.2,2.788l3.019-2.775c-1.268-1.84-4.429-3.756-4.429-3.756s-3.269-1.671-5.305-1.671v4.457c1.5-0.002,3.515,0.957,3.515,0.957z" stroke-width="0.5" stroke="#000"/>
                   <path id="path81256" d="m220.29,161.63s-0.738-3.026-1.672-4.382l3.019-2.775c1.268,1.84,2.212,6.196,2.212,6.196s0.629,3.666,0.174,5.959l-3.76-0.995c0.334-1.691,0.027-4.003,0.027-4.003z" stroke-width="0.5" stroke="#000"/>
                   <g id="g81258">
                    <g id="g81260">
                     <ellipse id="ellipse81262" d="m 207.739,158.75 c 0,1.0394 -0.72933,1.882 -1.629,1.882 -0.89967,0 -1.629,-0.8426 -1.629,-1.882 0,-1.0394 0.72933,-1.882 1.629,-1.882 0.89967,0 1.629,0.8426 1.629,1.882 z" cx="206.11" rx="1.629" cy="158.75" ry="1.882"/>
                     <path id="path81264" d="M206.11,158.75"/>
                    </g>
                    <g id="g81266" fill="#FFF">
                     <ellipse id="ellipse81268" d="m 206.981,158.75 c 0,0.55615 -0.38996,1.007 -0.871,1.007 -0.48104,0 -0.871,-0.45085 -0.871,-1.007 0,-0.55615 0.38996,-1.007 0.871,-1.007 0.48104,0 0.871,0.45085 0.871,1.007 z" cx="206.11" rx="0.871" cy="158.75" ry="1.007"/>
                     <path id="path81270" d="M206.11,158.75"/>
                    </g>
                   </g>
                   <g id="g81272">
                    <g id="g81274">
                     <path id="path81276" d="m202.56,163.61c0.278-0.989-0.19-2.05-1.046-2.372-0.856-0.321-1.775,0.22-2.053,1.208s0.19,2.05,1.046,2.372,1.775-0.219,2.053-1.208z"/>
                     <path id="path81278" d="M201.01,163.03"/>
                    </g>
                    <g id="g81280" fill="#FFF">
                     <path id="path81282" d="m201.84,163.34c0.149-0.529-0.102-1.097-0.56-1.269s-0.949,0.118-1.098,0.646c-0.148,0.529,0.102,1.097,0.56,1.269s0.95-0.117,1.098-0.646z"/>
                     <path id="path81284" d="M201.01,163.03"/>
                    </g>
                   </g>
                   <g id="g81286">
                    <g id="g81288">
                     <path id="path81290" d="m203.92,168.42c-0.728-0.611-1.747-0.424-2.276,0.417s-0.368,2.018,0.36,2.629,1.747,0.424,2.276-0.417,0.368-2.017-0.36-2.629z"/>
                     <path id="path81292" d="M202.96,169.95"/>
                    </g>
                    <g id="g81294" fill="#FFF">
                     <path id="path81296" d="m203.47,169.13c-0.389-0.327-0.934-0.227-1.217,0.223s-0.196,1.079,0.193,1.406c0.39,0.327,0.935,0.228,1.217-0.223,0.283-0.45,0.197-1.08-0.193-1.406z"/>
                     <path id="path81298" d="M202.96,169.95"/>
                    </g>
                   </g>
                   <g id="g81300">
                    <g id="g81302">
                     <path id="path81304" d="m208.3,168.42c-0.728,0.611-0.89,1.788-0.361,2.629s1.548,1.027,2.276,0.417,0.889-1.788,0.36-2.629-1.547-1.027-2.275-0.417z"/>
                     <path id="path81306" d="M209.26,169.95"/>
                    </g>
                    <g id="g81308" fill="#FFF">
                     <path id="path81310" d="m208.75,169.13c-0.39,0.327-0.476,0.956-0.193,1.406s0.828,0.55,1.217,0.223,0.476-0.957,0.193-1.406c-0.283-0.45-0.828-0.55-1.217-0.223z"/>
                     <path id="path81312" d="M209.26,169.95"/>
                    </g>
                   </g>
                   <g id="g81314">
                    <g id="g81316">
                     <path id="path81318" d="m209.66,163.61c0.278,0.989,1.197,1.53,2.053,1.208,0.855-0.321,1.324-1.383,1.046-2.372-0.278-0.988-1.197-1.529-2.053-1.208-0.855,0.322-1.324,1.384-1.046,2.372z"/>
                     <path id="path81320" d="M211.2,163.03"/>
                    </g>
                    <g id="g81322" fill="#FFF">
                     <path id="path81324" d="m210.38,163.34c0.149,0.529,0.64,0.818,1.098,0.646s0.708-0.74,0.56-1.269c-0.149-0.529-0.641-0.818-1.098-0.646-0.458,0.173-0.709,0.741-0.56,1.269z"/>
                     <path id="path81326" d="M211.2,163.03"/>
                    </g>
                   </g>
                   <path id="path81328" d="m85.032,144.89c12.714,1.85,25.892,2.312,37.681,2.081,11.79-0.231,43.923-0.463,43.923-0.463" stroke="#000" stroke-width="0.5" fill="none"/>
                   <path id="path81330" d="m227.38,74.729c0.693,9.247,0.521,35.254-0.173,38.49-0.693,3.236-0.462,4.161,2.774,4.161,3.237,0,6.011-0.231,8.322,0,9.478,0.693,14.102,9.247,12.021,24.504l-3.699,14.564v3.699" stroke="#000" stroke-width="0.5" fill="none"/>
                   <path id="path81332" d="m240.61,156.91s54.557-1.387,95.706-3.005c41.148-1.619,94.087-3.005,94.087-3.005" stroke="#000" stroke-width="0.5" fill="none"/>
                   <path id="path81334" d="m242.69,142.35s52.938-0.694,88.539-1.156,105.65-3.236,105.65-3.236" stroke="#000" stroke-width="0.5" fill="none"/>
                   <path id="path81336" d="m524.26,101.78c0.116,1.156-1.271,1.503-2.658,1.618-1.387,0.116-7.629,0.578-9.594,0.925s-4.97,0.116-4.97,3.121,0.116,4.97,0.116,4.97c0,1.965,2.312,2.081,4.624,2.081s13.639,0.231,17.106-1.965c0-3.814-4.624-10.75-4.624-10.75z" stroke="#000" stroke-width="1.5" fill="#FFF"/>
                   <g id="g81338">
                    <path id="path81340" d="m539.23,126.97c-5.317,3.005-37.681,3.699-37.681,3.699" stroke="#000" stroke-width="0.5" fill="none"/>
                   </g>
                   <line id="line81342" stroke-width="0.5" x1="472.61" x2="469.7" stroke="#000" y1="141.1" y2="143.62" fill="none"/>
                   <line id="line81344" stroke-width="0.5" x1="465.96" x2="465.96" stroke="#000" y1="137.61" y2="141.77" fill="none"/>
                   <line id="line81346" stroke-width="0.5" x1="460.86" x2="460.86" stroke="#000" y1="137.61" y2="141.54" fill="none"/>
                   <line id="line81348" stroke-width="0.5" x1="454.22" x2="456.64" stroke="#000" y1="141.08" y2="143.27" fill="none"/>
                   <line id="line81350" stroke-width="0.5" x1="451.03" x2="453.29" stroke="#000" y1="145.43" y2="147.2" fill="none"/>
                   <line id="line81352" stroke-width="0.5" x1="449.39" x2="452.83" stroke="#000" y1="153.26" y2="152.4" fill="none"/>
                   <line id="line81354" stroke-width="0.5" x1="450.52" x2="454.1" stroke="#000" y1="158.68" y2="157.72" fill="none"/>
                   <line id="line81356" stroke-width="0.5" x1="455.11" x2="456.41" stroke="#000" y1="164.96" y2="162.34" fill="none"/>
                   <line id="line81358" stroke-width="0.5" x1="459.71" x2="461.04" stroke="#000" y1="167.37" y2="164.19" fill="none"/>
                   <line id="line81360" stroke-width="0.5" x1="467.08" x2="465.77" stroke="#000" y1="167.38" y2="164.31" fill="none"/>
                   <line id="line81362" stroke-width="0.5" x1="471.68" x2="470.4" stroke="#000" y1="164.97" y2="162.34" fill="none"/>
                   <line id="line81364" stroke-width="0.5" x1="476.28" x2="472.83" stroke="#000" y1="158.7" y2="157.72" fill="none"/>
                   <line id="line81366" stroke-width="0.5" x1="477.42" x2="474.33" stroke="#000" y1="153.28" y2="152.75" fill="none"/>
                   <line id="line81368" stroke-width="0.5" x1="475.79" x2="473.52" stroke="#000" y1="145.46" y2="147.32" fill="none"/>
                   <line id="line81370" stroke-width="0.5" x1="208.69" x2="208.69" stroke="#000" y1="148.84" y2="152.4"/>
                   <line id="line81372" stroke-width="0.5" x1="203.54" x2="203.54" stroke="#000" y1="148.84" y2="152.29"/>
                   <line id="line81374" stroke-width="0.5" x1="196.83" x2="199.35" stroke="#000" y1="152.57" y2="155.06"/>
                   <line id="line81376" stroke-width="0.5" x1="193.61" x2="196.23" stroke="#000" y1="157.23" y2="159.45"/>
                   <line id="line81378" stroke-width="0.5" x1="191.95" x2="194.96" stroke="#000" y1="165.6" y2="165"/>
                   <line id="line81380" stroke-width="0.5" x1="193.1" x2="196.69" stroke="#000" y1="171.41" y2="170.2"/>
                   <line id="line81382" stroke-width="0.5" x1="197.73" x2="198.88" stroke="#000" y1="178.14" y2="175.4"/>
                   <line id="line81384" stroke-width="0.5" x1="202.38" x2="203.51" stroke="#000" y1="180.73" y2="177.37"/>
                   <line id="line81386" stroke-width="0.5" x1="209.82" x2="208.71" stroke="#000" y1="180.74" y2="177.6"/>
                   <line id="line81388" stroke-width="0.5" x1="214.46" x2="213.22" stroke="#000" y1="178.16" y2="175.29"/>
                   <line id="line81390" stroke-width="0.5" x1="219.11" x2="216.11" stroke="#000" y1="171.44" y2="170.66"/>
                   <line id="line81392" stroke-width="0.5" x1="220.26" x2="217.26" stroke="#000" y1="165.64" y2="165"/>
                   <line id="line81394" stroke-width="0.5" x1="218.62" x2="216.34" stroke="#000" y1="157.25" y2="159.22"/>
                   <line id="line81396" stroke-width="0.5" x1="215.41" x2="212.99" stroke="#000" y1="152.59" y2="154.83"/>
                   <g id="g81398">
                    <path id="path81400" d="m81.564,8.959s10.172-1.849,16.182-1.387c0,0-4.623-4.161-6.473-5.086-1.849-0.925-4.624-1.387-6.01,0-1.387,1.388-3.699,6.473-3.699,6.473z"/>
                   </g>
                   <path id="path81402" d="m141.67,12.196c11.559-0.462,93.856-2.774,140.09-0.462,0,0-2.774-3.699-4.161-5.548s-6.011-2.312-7.398-0.462-3.699,4.161-3.699,4.161c-30.515-1.387-82.76-1.387-108.19,0l-4.161-4.161c-1.387-0.462-5.085-1.849-6.935,0-1.849,1.849-5.548,6.472-5.548,6.472z"/>
                   <path id="path81404" d="m203.16,6.648s10.171-0.462,16.182,0c0,0-3.699-3.236-5.548-4.161-1.85-0.925-4.624-1.387-6.011,0s-4.623,4.161-4.623,4.161z"/>
                   <path id="path81406" d="M88.962,3.412c15.718-3.699,41.148-2.312,60.108,4.161" stroke="#000" stroke-width="2.5" fill="none"/>
                   <path id="path81408" d="m211.48,2.949c15.257-2.312,40.224-3.236,61.492,3.699" stroke="#000" stroke-width="2.5" fill="none"/>
                   <path id="path81410" d="m126.41,8.035c17.8-0.231,96.168-0.694,141.25,0.693" stroke="#000" stroke-width="0.5" fill="none"/>
                   <g id="g81412" stroke-width="0.5" stroke="#000">
                    <path id="path81414" d="m327.16,99.256c0.479,0,0.868-0.389,0.868-0.869v-13.652c0-0.479-0.389-0.868-0.868-0.868h-1.871c-0.479,0-0.868,0.389-0.868,0.868v13.653c0,0.48,0.389,0.869,0.868,0.869h1.871z"/>
                    <path id="path81416" d="M326.22,91.562"/>
                   </g>
                   <g id="g81418">
                    <ellipse id="ellipse81420" d="m 324.73,106.68 c 0,1.12721 -0.76112,2.041 -1.7,2.041 -0.93889,0 -1.7,-0.91379 -1.7,-2.041 0,-1.12721 0.76111,-2.041 1.7,-2.041 0.93888,0 1.7,0.91379 1.7,2.041 z" cx="323.03" rx="1.7" cy="106.68" ry="2.041"/>
                    <path id="path81422" d="M323.03,106.68"/>
                   </g>
                   <path id="path81424" d="m325.28,81.853-3.97,0.325s-2.353-0.181-2.353,2.172v11.606c0,2.896,1.086,3.258,1.991,3.258l5.249,0.181" stroke="#000" stroke-width="0.5" fill="none"/>
                   <g id="g81426" stroke-width="0.5" stroke="#000">
                    <path id="path81428" d="m341.37,99.256c-0.479,0-0.868-0.389-0.868-0.869v-13.652c0-0.479,0.389-0.868,0.868-0.868h1.871c0.479,0,0.868,0.389,0.868,0.868v13.653c0,0.48-0.389,0.869-0.868,0.869h-1.871z"/>
                    <path id="path81430" d="M342.31,91.562"/>
                   </g>
                   <g id="g81432">
                    <ellipse id="ellipse81434" d="m 345.49999,106.68 c 0,1.12721 -0.76112,2.041 -1.7,2.041 -0.93889,0 -1.7,-0.91379 -1.7,-2.041 0,-1.12721 0.76111,-2.041 1.7,-2.041 0.93888,0 1.7,0.91379 1.7,2.041 z" cx="343.8" rx="1.7" cy="106.68" ry="2.041"/>
                    <path id="path81436" d="M343.8,106.68"/>
                   </g>
                   <path id="path81438" d="m343.24,81.853,3.97,0.325s2.353-0.181,2.353,2.172v11.606c0,2.896-1.086,3.258-1.991,3.258l-5.249,0.181" stroke="#000" stroke-width="0.5" fill="none"/>
                   <path id="path81440" d="m473.11,75.191c1.557-0.917,1.557-0.917,1.557-0.917l-8.871-6.801-5.618-0.591,12.932,8.309z"/>
                   <path id="path81442" d="m139.76,17.397s-7.398,27.278-8.785,57.793c-4.624,0.231-13.408,0.462-19.881-0.231,0.925-30.515,13.639-58.024,13.639-58.024,6.705,0.925,15.027,0.462,15.027,0.462z" stroke="#FFF"/>
                  </g>
                 </g>
                </g>
               </g>
              </g>
             </g>
            </g>
           </g>
          </g>
         </g>
        </g>
       </g>
      </g>
     </g>
    </g>
   </g>
  </g>
 </g>
</svg>
