<?xml version="1.0" encoding="UTF-8" standalone="no"?>
<!-- Created with Inkscape (http://www.inkscape.org/) -->
<svg id="svg2" xmlns:rdf="http://www.w3.org/1999/02/22-rdf-syntax-ns#" xmlns="http://www.w3.org/2000/svg" height="45" width="67.5" version="1.1" xmlns:cc="http://creativecommons.org/ns#" xmlns:dc="http://purl.org/dc/elements/1.1/">
 <metadata id="metadata7">
  <rdf:RDF>
   <cc:Work rdf:about="">
    <dc:format>image/svg+xml</dc:format>
    <dc:type rdf:resource="http://purl.org/dc/dcmitype/StillImage"/>
    <dc:title/>
   </cc:Work>
  </rdf:RDF>
 </metadata>
 <g id="g6759">
  <rect id="rect2990" opacity="0" height="45" width="67.5" y="0" x="3.5527e-15"/>
  <path id="path6757" d="m23.151 34.905c-0.34629-0.08201-3.034-0.13223-7.4972-0.14009l-6.9574-0.01225-1.5594-0.34119c-2.0291-0.444-5.0707-1.319-5.696-1.638-0.7113-0.363-1.4412-1.059-1.4412-1.375 0-0.36178 0.47342-0.56485 1.4395-0.61745 2.2488-0.12242 8.9914-0.57271 8.9654-0.59873-0.0166-0.0166-0.75857-0.19725-1.6488-0.40144-2.1075-0.48338-4.6502-1.1869-5.0662-1.4017-0.426-0.22-0.81451-0.99165-0.89579-1.7792-0.0594-0.57563-0.0385-0.64454 0.2682-0.88583 0.18294-0.1439 0.54009-0.29482 0.79367-0.33536l0.46103-0.07372-0.0693-0.67453c-0.0381-0.37099-0.0933-0.75041-0.12261-0.84314-0.0293-0.09274 0.024-0.52458 0.11858-0.95964 0.0946-0.43507 0.25899-1.4524 0.3654-2.2607 0.43748-3.3233 1.8749-7.5434 2.9362-8.6201 0.33987-0.34481 1.9569-1.0062 2.4601-1.0062 0.0975 0 0.27432-0.16416 0.39284-0.3648 0.11853-0.20064 0.35099-0.40186 0.51659-0.44714 0.16561-0.04529 1.3537-0.08355 2.6402-0.08503 1.8894-0.0022 2.5352 0.04196 3.3588 0.22954 1.3968 0.31815 1.6434 0.33219 5.398 0.30744 3.1541-0.02079 3.3106-0.03263 3.5671-0.27012 0.24858-0.23013 0.44693-0.25224 2.699-0.3008 2.4495-0.05283 2.451-0.0527 5.42 0.46095 0.32463 0.05616 0.62152 0.15146 0.65976 0.21177 0.0382 0.06031 0.63632 0.14625 1.3291 0.19097 5.912 0.38168 9.8521 0.99969 12.231 1.9185 2.2555 0.87109 5.9299 2.8339 8.8095 4.7061 0.93003 0.60465 2.8785 1.6942 4.33 2.4213 3.3577 1.6819 4.3962 2.4933 4.7276 3.6936 0.20348 0.73695 0.54592 1.3281 0.8814 1.5216 0.41272 0.23805 0.60799 0.72993 0.50781 1.2792-0.1211 0.6639-0.35689 0.92164-1.3949 1.5248-0.53372 0.31011-1.0249 0.6834-1.0914 0.82951-0.15488 0.33993-0.36573 0.39507-1.8612 0.48672-1.0145 0.06217-1.2298 0.1089-1.2312 0.2672-0.0008 0.10552-0.0342 0.3133-0.074 0.46175-0.0686 0.25617-0.0385 0.2699 0.59358 0.2699 0.81889 0 2.2176 0.2852 2.9178 0.59498 0.96989 0.42903 0.51597 1.05-0.96037 1.3139-2.1592 0.38588-8.2631 0.74698-14.411 0.85254-7.626 0.13094-12.751 0.32213-16.356 0.61014-1.2963 0.10358-1.7082 0.1959-3.2988 0.73941l-1.8176 0.62106-2.3991 0.02325c-1.3698 0.01327-2.6307-0.0316-2.9389-0.10459zm3.1974-1.6799c-0.0761-0.04847-0.35441-0.08813-0.61832-0.08813-0.2639 0-0.54214 0.03966-0.61831 0.08813-0.0761 0.04847 0.20207 0.08813 0.61831 0.08813s0.69448-0.03966 0.61832-0.08813zm-1.1815-0.58826c0.19162-0.61399 0.10139-0.75581-0.10962-0.17228-0.13611 0.37643-0.34678 0.58471-0.34678 0.34287 0-0.1936 0.39912-1.1136 0.48312-1.1136 0.12266 0 0.26169 0.5821 0.17323 0.72525-0.0397 0.06435 0.11447 0.11444 0.35243 0.11444 0.34761 0 0.41165-0.03748 0.35866-0.20992-0.0355-0.11546 0.0183-0.07497 0.11947 0.08997 0.10118 0.16494 0.18588 0.38858 0.18821 0.49698 0.002 0.1084 0.088 0.22924 0.19042 0.26853 0.12163 0.04667 0.15639 0.02326 0.10028-0.06753-0.0565-0.09153-0.0207-0.11397 0.10496-0.06574 0.10496 0.04027 0.25484-0.0039 0.33307-0.09815 0.11196-0.13489 0.10339-0.18629-0.0402-0.2414-0.20717-0.0795-0.51633-0.74051-0.40051-0.85633 0.0419-0.04187 0.0761-0.0048 0.0761 0.08242 0 0.11189 0.0706 0.09465 0.23991-0.05858 0.2732-0.24724 0.30971-0.4869 0.09-0.5905-0.0825-0.03888 0.012-0.04107 0.20992-0.0049 0.19793 0.0362 0.458 0.18198 0.57794 0.32396l0.21807 0.25814-0.0778-0.35323c-0.0626-0.28436-0.0504-0.31815 0.0632-0.17329 0.11996 0.15311 0.13034 0.14718 0.0697-0.0398-0.0392-0.12085-0.0713-0.28939-0.0713-0.37452 0-0.08762-0.22122-0.19494-0.50981-0.24732-0.28373-0.05149-0.41672-0.11539-0.29989-0.14408 0.236-0.05796 0.26236-0.2403 0.0974-0.67408-0.0873-0.22972-0.065-0.33879 0.0997-0.48789 0.11671-0.10562 0.24288-0.16133 0.2804-0.12381 0.0375 0.03752 0.10896 0.0023 0.15875-0.07825 0.0596-0.09646 0.0405-0.11555-0.056-0.05592-0.0987 0.06099-0.13411 0.01809-0.1085-0.13141 0.0236-0.13785-0.0244-0.20874-0.12665-0.18706-0.10082 0.02137-0.13884-0.0324-0.0981-0.13867 0.0732-0.19057-0.30768-0.60535-0.43702-0.47601-0.0443 0.04427 0.00012 0.16964 0.0988 0.27859 0.1612 0.17812 0.14163 0.23354-0.19392 0.54954-0.31875 0.30017-0.36211 0.31499-0.29724 0.10158 0.0576-0.18935 0.005-0.2823-0.21803-0.38381-0.24573-0.11196-0.3028-0.10048-0.34768 0.06993-0.0295 0.11213-0.06-0.02554-0.0676-0.30594-0.0101-0.37035 0.0334-0.50981 0.15894-0.50981 0.0951 0 0.20018-0.04422 0.23358-0.09825 0.0334-0.05404-0.0849-0.07697-0.26282-0.05096-0.312 0.0456-0.32208 0.0705-0.28246 0.69803 0.0262 0.41568-0.006 0.65074-0.09 0.65074-0.0785 0-0.13105-0.25886-0.13105-0.64614 0-0.62365-0.0123-0.64795-0.35353-0.69803-0.19444-0.02854-0.32621-0.0077-0.29281 0.04636 0.0334 0.05404 0.1385 0.09825 0.23357 0.09825 0.12557 0 0.16905 0.13946 0.15894 0.50981-0.008 0.2804-0.0381 0.41807-0.0676 0.30594-0.0449-0.1704-0.10196-0.18188-0.34768-0.06993-0.22278 0.10151-0.27559 0.19446-0.21803 0.38381 0.0649 0.21341 0.0215 0.19859-0.29724-0.10158-0.33556-0.31599-0.35512-0.37142-0.19393-0.54954 0.0986-0.10895 0.14306-0.23432 0.0988-0.27859-0.12934-0.12934-0.51015 0.28543-0.43702 0.47601 0.0408 0.10627 0.002 0.16004-0.0981 0.13867-0.10226-0.02167-0.15025 0.04921-0.12665 0.18707 0.0266 0.15512-0.01 0.19448-0.11995 0.13071-0.0869-0.05019-0.13098-0.0601-0.098-0.02203 0.0329 0.03807 0.0948 0.06022 0.13735 0.04922 0.0425-0.011 0.18764 0.07979 0.32241 0.20176 0.19597 0.17735 0.22252 0.281 0.13255 0.51762-0.16492 0.43378-0.13857 0.61612 0.0974 0.67408 0.11826 0.02905-0.008 0.09116-0.28848 0.14226-0.39323 0.07156-0.50982 0.15037-0.55246 0.37346-0.0328 0.1717-0.006 0.25325 0.0675 0.20765 0.076-0.04695 0.0942 0.03311 0.0486 0.21355-0.0622 0.24648-0.0516 0.26028 0.0728 0.09448 0.0801-0.1068 0.33385-0.22762 0.56382-0.26849 0.22998-0.04087 0.35067-0.04346 0.26819-0.0058-0.21993 0.10057-0.18314 0.34121 0.09 0.58837 0.16932 0.15323 0.23991 0.17047 0.23991 0.05858 0-0.0872 0.0342-0.12428 0.0761-0.08242 0.11582 0.11582-0.19333 0.77683-0.40051 0.85633-0.14361 0.05511-0.15217 0.10651-0.0402 0.2414 0.0782 0.09426 0.22811 0.13843 0.33308 0.09815 0.12569-0.04823 0.16152-0.02579 0.10496 0.06574-0.0528 0.08536-0.0251 0.11565 0.0717 0.07852 0.0866-0.03324 0.22674-0.28219 0.31133-0.55321zm1.2301-0.19329c-0.0885-0.24741-0.18614-0.51731-0.21686-0.59978-0.0307-0.08247-0.003-0.14994 0.0606-0.14994 0.10278 0 0.50896 0.88872 0.50896 1.1136 0 0.24781-0.2121 0.029-0.35273-0.36388zm-1.1893-1.1486c-0.10892-0.13125-0.10005-0.20254 0.0397-0.31848 0.14685-0.12187 0.19424-0.11227 0.25732 0.05212 0.10761 0.28044-0.11762 0.48246-0.29697 0.26636zm0.74778-0.01556c-0.10762-0.28044 0.11762-0.48246 0.29697-0.26636 0.10893 0.13125 0.10005 0.20254-0.0397 0.31848-0.14684 0.12187-0.19423 0.11227-0.25731-0.05212zm-2.4446-0.17974c0-0.06287 0.20243-0.17053 0.44984-0.23924 0.55604-0.15442 0.62976-0.15582 0.62976-0.01195 0 0.06287-0.20242 0.17053-0.44983 0.23924-0.55603 0.15442-0.62977 0.15582-0.62977 0.01195zm3.7486-0.01989c-0.33832-0.09768-0.55493-0.34684-0.29989-0.34495 0.2706 0.002 0.98963 0.26709 0.98963 0.36484 0 0.13623-0.1656 0.13145-0.68974-0.01989zm-2.3541-0.68122c-0.0948-0.15346 0.12517-0.42287 0.27148-0.33244 0.19258 0.11902 0.16407 0.42813-0.0395 0.42813-0.0951 0-0.19947-0.04306-0.232-0.09569zm1.2653-0.10334c0.0505-0.26251 0.39911-0.29965 0.39911-0.04253 0 0.09806-0.0994 0.19743-0.22081 0.22082-0.16031 0.03087-0.20916-0.01798-0.1783-0.17829zm-0.62051-0.5207c0-0.13328 0.08-0.23991 0.17993-0.23991 0.1 0 0.17994 0.10663 0.17994 0.23991s-0.08 0.23991-0.17994 0.23991c-0.1 0-0.17993-0.10663-0.17993-0.23991zm-1.2595 0c-0.0408-0.06598-0.017-0.11996 0.0529-0.11996s0.12703 0.05398 0.12703 0.11996c0 0.06597-0.0238 0.11996-0.0529 0.11996s-0.0863-0.05398-0.12703-0.11996zm-0.065-0.45768c-0.3386-0.30048-0.45112-0.46198-0.32189-0.46198 0.21532 0 1.0112 0.7552 0.90639 0.86003-0.0352 0.03516-0.29817-0.14397-0.5845-0.39806zm2.4042 0.36439c0-0.16074 0.70049-0.78948 0.91458-0.8209 0.13376-0.01963 0.0872 0.08335-0.15057 0.33326-0.38108 0.40047-0.76401 0.64488-0.76401 0.48764zm-2.639-1.1516c0-0.02491 0.0945-0.11937 0.20992-0.20992 0.19026-0.14921 0.1945-0.14497 0.0453 0.04529-0.1567 0.19982-0.25521 0.26336-0.25521 0.16463zm3.2235-0.16463c-0.14921-0.19026-0.14497-0.1945 0.0453-0.04529 0.11546 0.09055 0.20992 0.18501 0.20992 0.20992 0 0.09873-0.0985 0.03519-0.25521-0.16463zm-3.2635 3.9938c0-0.09606-0.0459-0.14631-0.10192-0.11167-0.0561 0.03464-0.0709 0.11324-0.0329 0.17466 0.097 0.15695 0.13482 0.13928 0.13482-0.06299zm3.7131-0.1397c0.0151-0.1031-0.006-0.15395-0.0469-0.11301-0.041 0.04094-0.0868 0.1588-0.10196 0.2619-0.0151 0.1031 0.006 0.15395 0.047 0.11301 0.0409-0.04094 0.0868-0.1588 0.10195-0.2619zm30.518-0.69302c-0.14471-0.0647-0.39702-0.0619-0.63205 0.007-0.3653 0.10715-0.34935 0.11428 0.24086 0.1077 0.4762-0.0053 0.57266-0.0336 0.39119-0.11474zm-1.0098-0.17053c-0.0277-0.04495 0.0557-0.27063 0.18533-0.50152 0.12972-0.23089 0.20723-0.32533 0.17227-0.20987-0.0506 0.16706 0.009 0.20992 0.29253 0.20992 0.25545 0 0.35887-0.05934 0.36589-0.20992 0.006-0.12573 0.0793-0.05094 0.18296 0.1865 0.0952 0.21803 0.14513 0.44179 0.11085 0.49724-0.0342 0.05545 0.0212 0.13285 0.12317 0.172 0.12103 0.04645 0.15563 0.02289 0.0996-0.06779-0.0579-0.09365-0.0188-0.11321 0.11996-0.05998 0.13871 0.05323 0.17783 0.03368 0.11995-0.05998-0.0561-0.09074-0.0214-0.11422 0.1-0.06766 0.24864 0.09541 0.89751-0.56404 0.68451-0.69567-0.0885-0.05468-0.11779-0.04226-0.0726 0.03079 0.066 0.10672-0.32549 0.57437-0.48077 0.57437-0.0844 0-0.38836-0.57645-0.39328-0.74596-0.002-0.0804 0.0633-0.12024 0.14594-0.08854 0.0826 0.0317 0.22253-0.0582 0.31094-0.19978 0.1344-0.21521 0.13436-0.27563-0.00024-0.36856-0.104-0.0718-0.0124-0.08244 0.25884-0.03005 0.23092 0.04461 0.48856 0.13649 0.57254 0.20418 0.11391 0.09181 0.13445 0.07555 0.0809-0.06404-0.0395-0.10291-0.33762-0.25088-0.6625-0.32882-0.3249-0.07794-0.59071-0.1903-0.59071-0.2497 0-0.13704 0.02-0.13614 0.69661 0.0314 0.30961 0.07667 0.59184 0.18259 0.62719 0.23539 0.0353 0.0528 0.0643-0.19683 0.0643-0.55472s-0.0416-0.58527-0.0924-0.50529c-0.0509 0.07998-0.0933 0.28638-0.0942 0.45867-0.002 0.27102-0.0432 0.30534-0.30869 0.25458-0.19883-0.03801-0.28447-0.11697-0.24328-0.22432 0.0978-0.25498-0.1453-0.78978-0.31933-0.70235-0.0826 0.04149 0.0657-0.12536 0.32966-0.37077 0.2639-0.24542 0.40318-0.40221 0.30949-0.34843-0.12386 0.0711-0.15087 0.04707-0.099-0.08806 0.0433-0.11295-0.0578-0.30953-0.25783-0.50118-0.36256-0.34736-0.61397-0.28522-0.2908 0.07188 0.18797 0.20771 0.18825 0.2373 0.004 0.42156s-0.21383 0.18399-0.42127-0.0038c-0.1227-0.11105-0.33895-0.20191-0.48056-0.20191-0.22605 0-0.2482-0.04756-0.18161-0.38986 0.0418-0.21442 0.12468-0.4221 0.18437-0.46151 0.0597-0.03941-0.13759-0.0664-0.4384-0.05998-0.30082 0.0064-0.4931 0.02967-0.42728 0.05166 0.0658 0.02199 0.11339 0.31888 0.10573 0.65976-0.008 0.34087-0.0386 0.52531-0.0688 0.40985-0.0301-0.11546-0.12108-0.20992-0.20201-0.20992-0.23434 0-0.42247 0.25167-0.34718 0.46445 0.0429 0.12103-0.0634 0.07222-0.27934-0.12835-0.38542-0.35799-0.85242-0.38195-0.79013-0.04054 0.0253 0.13857-0.011 0.17801-0.1085 0.11778-0.0944-0.05832-0.11562-0.04056-0.0597 0.04989 0.0477 0.07724 0.12669 0.11579 0.17546 0.08565 0.0488-0.03014 0.24746 0.07688 0.44154 0.23782 0.19409 0.16094 0.2599 0.26048 0.14623 0.22119-0.16677-0.05764-0.22181 0.02339-0.28523 0.41998-0.073 0.45653-0.19101 0.56351-0.55773 0.50561-0.0495-0.0078-0.09 0.03536-0.09 0.09594s-0.0362 0.20438-0.0804 0.31957c-0.0592 0.15422-0.0384 0.18348 0.0789 0.11101 0.12151-0.0751 0.14197-0.03005 0.0863 0.19024-0.0655 0.25941-0.057 0.26743 0.084 0.07915 0.0863-0.11523 0.34001-0.24123 0.56382-0.28 0.27603-0.04781 0.3547-0.03356 0.24459 0.0443-0.21828 0.15437 0.0433 0.67343 0.29149 0.57822 0.0939-0.03603 0.17073-0.03667 0.17073-0.0014 0 0.14774-0.28728 0.59541-0.43988 0.68547-0.0907 0.05354-0.13308 0.14888-0.0941 0.21188 0.11583 0.18741 0.30679-0.0075 0.55324-0.56461 0.12756-0.28838 0.28338-0.52432 0.34627-0.52432 0.0629 0 0.11434 0.02967 0.11434 0.06594 0 0.12662-0.39032 0.83548-0.57753 1.0488-0.17392 0.19822-0.17125 0.20838 0.0342 0.12956 0.16649-0.06389 0.19803-0.04534 0.12468 0.07335-0.0658 0.1065-0.0519 0.13026 0.0422 0.07208 0.0772-0.04774 0.11771-0.12358 0.0899-0.16853zm1.3192-0.62386c-0.22382-0.55938-0.22929-0.59735-0.086-0.59735 0.0588 0 0.19377 0.21701 0.29989 0.48225 0.22382 0.55938 0.22929 0.59735 0.086 0.59735-0.0588 0-0.19376-0.21701-0.29989-0.48225zm-1.2209-1.0906c-0.0904-0.14632 0.17898-0.36633 0.33244-0.27148 0.0526 0.03253 0.0957 0.13693 0.0957 0.232 0 0.20356-0.30911 0.23206-0.42813 0.03949zm0.80919-0.0529c0.0542-0.26056 0.26715-0.2765 0.31584-0.02366 0.0253 0.1313-0.0336 0.20992-0.1571 0.20992-0.11524 0-0.18136-0.0776-0.15874-0.18627zm-2.4203-0.04801c0-0.06287 0.20243-0.17053 0.44984-0.23924 0.55604-0.15442 0.62977-0.15582 0.62977-0.01195 0 0.06287-0.20243 0.17053-0.44984 0.23924-0.55603 0.15442-0.62977 0.15582-0.62977 0.01195zm1.3834-0.59908c-0.10546-0.17065 0.029-0.3662 0.25188-0.3662 0.1051 0 0.16531 0.08428 0.14287 0.19998-0.0467 0.24093-0.28623 0.34178-0.39475 0.16622zm1.3323 0.03039c-0.14337-0.14337-0.0775-0.39659 0.10322-0.39659 0.099 0 0.17994 0.07779 0.17994 0.17285 0 0.2004-0.17121 0.33568-0.28316 0.22374zm-0.66186-0.55889c-0.14581-0.17569-0.063-0.31752 0.1853-0.31752 0.1787 0 0.21896 0.30923 0.0536 0.41144-0.0585 0.03615-0.166-0.0061-0.23888-0.09392zm-1.3342-0.54908c-0.29689-0.25848-0.4533-0.45857-0.34757-0.44464 0.26138 0.03444 0.97666 0.64845 0.92719 0.79593-0.0219 0.06527-0.28273-0.09281-0.57962-0.35129zm2.3517 0.37189c-0.0405-0.06559 0.14543-0.29281 0.41325-0.50493l0.48695-0.38567-0.27646-0.3146-0.27646-0.3146 0.32524 0.28645c0.36798 0.32409 0.33442 0.46465-0.24178 1.0129-0.20107 0.19132-0.38923 0.28762-0.43074 0.22045zm-1.0322-1.1c0-0.32988 0.054-0.59978 0.11996-0.59978 0.066 0 0.11995 0.2699 0.11995 0.59978s-0.054 0.59978-0.11995 0.59978c-0.066 0-0.11996-0.2699-0.11996-0.59978zm-1.7194 3.424c0-0.09606-0.0458-0.14631-0.10193-0.11167-0.0561 0.03464-0.0708 0.11324-0.0329 0.17466 0.097 0.15695 0.13482 0.13928 0.13482-0.06299zm-35.707-1.1748 0.46535-0.98963-4.6411-0.07383c-3.5083-0.05581-4.9193-0.12235-5.7807-0.2726-2.3314-0.40664-6.0859-1.1549-6.6564-1.3266-0.32436-0.09762-0.60931-0.15793-0.63323-0.13402-0.10285 0.10285 0.24315 1.0499 0.48724 1.3337 0.31969 0.37167 1.9059 0.84891 5.5428 1.6677 2.6072 0.58693 4.198 0.72663 8.7341 0.76701l2.0166 0.01795 0.46534-0.98963zm3.1333 0.42884c-0.1414-0.24318-0.17556-0.16534-0.0598 0.13631 0.0411 0.1072 0.10007 0.16965 0.13096 0.13876 0.0309-0.03088-0.0008-0.15467-0.0712-0.27507zm4.7604-0.10214c-0.0369-0.03693-0.10401 0.02965-0.14906 0.14794-0.0651 0.17096-0.0513 0.18474 0.0672 0.06715 0.082-0.08137 0.11883-0.17816 0.0819-0.2151zm2.5422-0.0568c0-0.06598-0.13176-0.11996-0.29281-0.11996-0.16104 0-0.32617 0.05398-0.36694 0.11996-0.0433 0.06998 0.0787 0.11996 0.29281 0.11996 0.20182 0 0.36694-0.05398 0.36694-0.11996zm6.1177-0.14786c3.2718-0.12378 3.7845-0.16438 2.759-0.21851l-1.2595-0.06649 1.2963-0.02348 1.2963-0.02348 0.22034-0.50981c0.12118-0.2804 0.25673-0.63127 0.30122-0.77971l0.0809-0.2699-1.6575-0.02481-1.6575-0.02481 1.6794-0.06516c0.92366-0.03584 2.3811-0.03834 3.2388-0.0055l1.5594 0.0596-1.5077 0.03379-1.5077 0.03379-0.3016 0.76753c-0.30132 0.76683-0.30137 0.76759-0.0517 0.83463 0.13745 0.03691 0.89767 0.05707 1.6894 0.04482l1.4395-0.02229-1.3195-0.07815c-0.88809-0.0526-0.39784-0.07017 1.4994-0.05376 1.9867 0.01719 2.4648-0.001 1.6194-0.06187-0.85338-0.06137-0.40334-0.07916 1.5594-0.06163 1.552 0.01385 2.3392-0.0096 1.7993-0.05362-0.84217-0.06866-0.74284-0.08098 0.81133-0.10059 1.1996-0.01514 1.8449 0.02382 2.0001 0.12076 0.19501 0.12179 0.28331 0.09015 0.59276-0.21239 0.33173-0.32433 0.73424-1.0702 0.73424-1.3606 0-0.06494-0.33737-0.13725-0.74972-0.16067l-0.74972-0.04259 0.8097-0.02311c0.54946-0.01568 0.81274-0.07131 0.81916-0.17306 0.007-0.11996 0.0216-0.11996 0.07 0 0.1278 0.31671 0.39564 0.13254 0.52339-0.35987 0.0728-0.2804 0.18248-0.69874 0.24387-0.92966 0.0614-0.23091 0.11191-0.46033 0.11227-0.50981 0.0008-0.15617-0.47869-0.09726-0.48862 0.05998-0.007 0.11996-0.0216 0.11996-0.07 0-0.0473-0.11723-1.4063-0.14995-6.2282-0.14995h-6.1677l-0.0222 0.62977-0.0222 0.62977-0.0434-0.61068-0.0434-0.61068-3.0727-0.07907c-1.69-0.04349-4.1571-0.06726-5.4824-0.05284l-2.4096 0.02623 2.4591 0.0675 2.4591 0.0675-2.362 0.02623-2.362 0.02623 0.17208 0.32988c0.0947 0.18143 0.1665 0.49182 0.15968 0.68974-0.0102 0.29579-0.0307 0.26682-0.11514-0.16274-0.14012-0.7127-0.29081-0.8586-0.8753-0.84742-0.27232 0.0052-0.42651 0.03707-0.34265 0.07081 0.29988 0.12066 0.50728 0.74748 0.50728 1.5332v0.78567h0.35987c0.30826 0 0.36244-0.04731 0.37785-0.32988l0.018-0.32988 0.05 0.32988 0.05 0.32988h3.1908c1.755 0 3.1649 0.02593 3.1332 0.05762-0.0317 0.03168-1.6601 0.06136-3.6187 0.06595-3.2944 0.0077-3.5611 0.02389-3.5611 0.21613 0 0.11429-0.0738 0.49236-0.16402 0.84015l-0.16404 0.63235 0.30389-0.03643c0.23774-0.02849 0.33597-0.14085 0.45134-0.51624 0.17187-0.55926 0.22618-0.42511 0.061 0.15074l-0.11158 0.38906 1.641 0.02631 1.641 0.02631-1.6494 0.03705c-1.0878 0.02443-1.6494 0.08157-1.6494 0.16781 0 0.08963 0.31125 0.10808 0.98963 0.05867 0.5443-0.03965 2.798-0.1405 5.0082-0.22411zm-1.6494-0.18121c0.51132-0.02249 1.348-0.02249 1.8593 0 0.51132 0.02249 0.093 0.04088-0.92965 0.04088s-1.441-0.01839-0.92966-0.04088zm-4.099-1.1804c0.006-0.13974 0.0341-0.16817 0.0725-0.07248 0.0346 0.08659 0.0304 0.19005-0.009 0.22992-0.0398 0.03986-0.0682-0.03099-0.063-0.15744zm14.775-0.73892c0.51132-0.02249 1.348-0.02249 1.8593 0 0.51132 0.02249 0.093 0.04088-0.92965 0.04088s-1.441-0.0184-0.92966-0.04088zm3.7186-0.11975c0.44534-0.02308 1.1741-0.02308 1.6194 0 0.44534 0.02308 0.081 0.04197-0.8097 0.04197-0.89067 0-1.255-0.01888-0.8097-0.04197zm-7.9168-0.45085c0.002-0.2639 0.0259-0.35774 0.0546-0.20852 0.0287 0.14921 0.0276 0.36513-0.002 0.47982-0.03 0.11469-0.0535-0.0074-0.0521-0.2713zm12.409-0.65976c0.0376-0.36286 0.088-0.68225 0.11202-0.70974 0.0841-0.09611 0.0189 0.7724-0.0803 1.0696-0.0646 0.1936-0.0759 0.06604-0.0317-0.35987zm-30.538 3.2068c-0.11847-0.11759-0.13225-0.10381-0.0672 0.06715 0.045 0.1183 0.11213 0.18488 0.14906 0.14795 0.0369-0.03693 0.00008-0.13373-0.0819-0.2151zm17.706-0.04048c-0.0398-0.03986-0.14332-0.04412-0.22991-0.0095-0.0957 0.03829-0.0673 0.06672 0.0725 0.07248 0.12646 0.0052 0.19731-0.02314 0.15745-0.063zm12.208-0.40735c0.0408-0.06598-0.007-0.11996-0.1058-0.11996-0.099 0-0.21329 0.05398-0.25407 0.11996-0.0408 0.06598 0.007 0.11996 0.1058 0.11996 0.099 0 0.21329-0.05398 0.25407-0.11996zm11.141-0.07074c0.3783-0.14517 0.18799-0.22902-0.49439-0.21785-0.60961 0.01-0.62269 0.0058-0.11235-0.03653 0.41559-0.03441 0.87544-0.21752 1.6395-0.65285 1.2571-0.7162 1.5465-0.99636 1.6429-1.5902l0.072-0.4434-0.64649 0.06284c-0.64187 0.06239-0.64273 0.06203-0.12012-0.0502 0.2895-0.06217 0.5594-0.14723 0.59978-0.18901 0.0404-0.04178-0.10315-0.21304-0.31891-0.38056-0.38232-0.29683-0.44501-0.30516-2.4591-0.32668-1.2725-0.0136-1.7441 0.0079-1.2271 0.05607l0.83969 0.07815-0.74973 0.02118c-0.41234 0.01165-0.74972 0.06842-0.74972 0.12614 0 0.05773 0.0337 0.27365 0.0749 0.47982l0.0749 0.37486 0.91467 0.02414 0.91466 0.02414-0.92966 0.04088-0.92965 0.04088v0.35482c0 0.30275 0.0484 0.35746 0.32987 0.3728l0.32988 0.01797-0.32988 0.04997c-0.2084 0.03157-0.33055 0.12434-0.33171 0.25193-0.0008 0.11108-0.0417 0.26457-0.0904 0.34109s-0.0693-0.28295-0.0459-0.79884c0.0268-0.58957-0.0222-1.1589-0.13175-1.5327-0.15803-0.53911-0.15637-0.59132 0.0178-0.55803 0.10567 0.02021 0.94785 0.05949 1.8715 0.0873 0.92366 0.02781 1.4635 0.0118 1.1996-0.0356-0.42391-0.07612-0.43789-0.08833-0.11996-0.10482 0.19793-0.01027 0.49482-0.04602 0.65976-0.07947 0.26136-0.05299 0.26907-0.04616 0.06 0.05319-0.2307 0.10961-0.22955 0.11431 0.03 0.12242 0.31282 0.0098 0.33797-0.07727 0.0988-0.34199-0.14528-0.16081-0.46788-0.18404-2.1386-0.15398l-1.9675 0.0354 0.0307 0.38444c0.0169 0.21144 0.0632 0.84327 0.10294 1.4041 0.0397 0.56079 0.0909 1.2481 0.11369 1.5273 0.0228 0.2792 0.008 0.4868-0.0335 0.46134-0.0413-0.02546-0.0826 0.08076-0.0919 0.23605-0.0151 0.25257 0.0417 0.28702 0.53981 0.32673 0.53457 0.04263 0.52927 0.04526-0.13303 0.06602-0.428 0.01342-0.68974 0.07406-0.68974 0.15981 0 0.10029 0.34125 0.11731 1.2443 0.06205 0.68438-0.04187 1.3321-0.10983 1.4395-0.15102zm-1.1144-1.8921c0.0275-0.02394 0.72473-0.07145 1.5494-0.10558 0.95004-0.03932 1.2577-0.02772 0.83969 0.03166-0.67709 0.09618-2.4787 0.15192-2.3891 0.07392zm3.1988-0.27583c0.0825-0.03328 0.21743-0.03328 0.29989 0 0.0825 0.03328 0.015 0.06051-0.14994 0.06051s-0.23241-0.02723-0.14995-0.06051zm-1.6772-0.60727c0.2156-0.02669 0.53948-0.02614 0.71973 0.0012 0.18025 0.02737 0.004 0.04921-0.39201 0.04854-0.39585-0.00072-0.54332-0.02307-0.32772-0.04977zm-11.27 2.4521c0.0703-0.08468 0.23691-0.40856 0.3703-0.71973 0.24005-0.56004 0.24013-0.56578 0.007-0.56578-0.12961 0-0.23565 0.07182-0.23565 0.1596s-0.12761 0.41166-0.28358 0.71973c-0.18922 0.37377-0.23401 0.56013-0.13464 0.56013 0.0819 0 0.20643-0.06928 0.2767-0.15395zm1.8429-0.2319c-0.0861-0.08608-0.14195-0.09316-0.14195-0.01799 0 0.16012 0.14186 0.30198 0.22192 0.22192 0.0341-0.03408-0.002-0.12585-0.08-0.20392zm-34.686-0.40166c0.0644-0.16923 0.11699-0.35606 0.11699-0.41518 0-0.05911-0.47232-0.12547-1.0496-0.14746l-1.0496-0.03998 1.0875-0.02466 1.0875-0.02467 0.27191-0.65605c0.14956-0.36083 0.44893-0.81147 0.66529-1.0014l0.39336-0.34538-4.311-0.0853c-2.371-0.04691-4.3743-0.03935-4.4518 0.01681-0.0799 0.05791-0.76391 0.01531-1.5803-0.09841-0.7917-0.11028-1.282-0.207-1.0896-0.21493 0.19243-0.0079 0.31733-0.04695 0.27757-0.08671-0.0397-0.03976-0.34564-0.0347-0.67975 0.01125l-0.60745 0.08355v0.71224c0 0.52502-0.0477 0.73054-0.18141 0.78186-0.26167 0.10041-1.2755-0.07188-1.1944-0.20299 0.0397-0.06426-0.0925-0.07829-0.31622-0.03356-0.22588 0.04518-0.35608 0.03093-0.31562-0.03452 0.0379-0.06128-0.13341-0.11142-0.38064-0.11142-0.24722 0-0.5937-0.09448-0.76994-0.20996-0.29189-0.19125-0.32044-0.27819-0.32044-0.97568 0-0.71036-0.0176-0.76111-0.24344-0.70206-0.1339 0.03501-0.57098-0.00072-0.97131-0.07954-0.40033-0.07876-0.75541-0.11566-0.78907-0.08199-0.0337 0.03366-0.0229 0.44235 0.0238 0.90819l0.0851 0.84699 0.61757 0.1774c1.57 0.45098 5.5385 1.1832 7.3615 1.3583l0.98604 0.09469-0.0501-0.90533c-0.0537-0.96927-0.003-0.8569 0.11932 0.26424l0.0752 0.68974h2.2705 2.2705v0.29989c0 0.16494-0.0135 0.30703-0.03 0.31576-0.0165 0.0087-0.86668 0.05305-1.8893 0.0985-1.7876 0.07943-1.7377 0.08345 1.2925 0.10408l3.1518 0.02146 0.11698-0.3077zm-6.5106-2.6597c0.34637-0.02423 0.91317-0.02423 1.2595 0 0.34638 0.02423 0.063 0.04406-0.62976 0.04406-0.69275 0-0.97614-0.01982-0.62977-0.04406zm10.274 2.827c-0.0605-0.09795-0.0173-0.11392 0.14286-0.05287 0.17516 0.06673 0.19653 0.05413 0.0901-0.05313-0.15541-0.15664-0.44368-0.04082-0.33521 0.13468 0.038 0.06142 0.096 0.11167 0.129 0.11167 0.0329 0 0.021-0.06315-0.0268-0.14034zm2.2422-0.1371c-0.0939-0.09391-0.17238-0.08813-0.28036 0.02065-0.12028 0.12117-0.10452 0.13375 0.0797 0.06358 0.17261-0.06576 0.20523-0.04803 0.13141 0.07141-0.0678 0.10969-0.0521 0.13038 0.0508 0.06682 0.10726-0.06629 0.11245-0.12855 0.0186-0.22246zm-0.87874-0.2848c-0.11468-0.03002-0.3306-0.03112-0.47982-0.0024-0.14921 0.02869-0.0554 0.05326 0.20852 0.05459 0.26391 0.0014 0.38599-0.02214 0.2713-0.05217zm30.737-0.83016c0-0.09928-0.23293-0.15542-0.28632-0.06901-0.0346 0.05606 0.0156 0.10192 0.11166 0.10192 0.0961 0 0.17466-0.01481 0.17466-0.03291zm1.9793-0.28698c0.0408-0.06598 0.0202-0.11996-0.0458-0.11996s-0.15332 0.05398-0.1941 0.11996c-0.0408 0.06597-0.0202 0.11996 0.0458 0.11996s0.15331-0.05398 0.19409-0.11996zm-49.122-0.356c0.18982 0 0.22322-0.12969 0.26009-1.0097 0.0233-0.55533 0.0793-1.0467 0.12452-1.0919 0.0452-0.04518 0.47706-0.02577 0.95964 0.04313l0.87742 0.12529-0.85463-0.05884c-0.69783-0.04805-0.86769-0.02477-0.92589 0.12687-0.0402 0.10472-0.007 0.18652 0.0749 0.18755 0.0944 0.0012 0.0825 0.04707-0.0337 0.12966-0.13743 0.09763-0.0986 0.10998 0.16419 0.05229 0.18926-0.04154 0.72906-0.0353 1.1996 0.01387 0.71012 0.07423 0.7943 0.10425 0.49557 0.17669-0.21182 0.05137 0.0102 0.06906 0.5398 0.043 0.67361-0.03315 0.79417-0.01853 0.47982 0.05819l-0.41984 0.10247 0.41984-0.01911c0.33215-0.01511 0.4276-0.07349 0.45693-0.27948 0.0333-0.23437-0.0326-0.26824-0.65975-0.33906-1.1134-0.12571-1.0287-0.17366 0.19632-0.11115 0.62319 0.0318 1.1585 0.08324 1.1896 0.1143 0.031 0.03107-0.0875 0.05648-0.2634 0.05648-0.23045 0-0.31988 0.06161-0.31988 0.22037 0 0.20928 0.26365 0.22437 5.2378 0.29989 2.8808 0.04374 6.7538 0.06705 8.6068 0.05181l3.3691-0.02771-4.3184-0.06454-4.3184-0.06454 4.1385-0.03614c2.7288-0.02383 4.0568-0.07497 3.8986-0.15013-0.19253-0.09147-0.18068-0.09634 0.06-0.02463 0.16494 0.04914 2.8235 0.10527 5.9078 0.12473l5.6079 0.03538 0.0163-0.27222c0.0158-0.26426 0.0178-0.26468 0.0667-0.01455 0.0277 0.14172 0.16881 0.28943 0.31354 0.32824 0.14474 0.03881 2.9352 0.05864 6.201 0.04407l5.9378-0.02649-5.398-0.06369-5.398-0.06369 5.3568-0.02813c5.2909-0.02779 5.356-0.03109 5.294-0.26804-0.062-0.23728-0.17561-0.24022-10.335-0.26825-5.6497-0.01559-8.4504-0.0433-6.2237-0.06158l4.0485-0.03324 0.0163-0.2683 0.0163-0.2683 0.052 0.2699 0.052 0.2699h6.1694 6.1694l0.0231-0.74972 0.0231-0.74972 0.0426 0.74972 0.0426 0.74972h0.59663c0.43449 0 0.71893-0.08094 1.0467-0.29784 0.58921-0.38992 1.448-0.54304 3.0099-0.53663 1.7274 0.0071 2.2679 0.12483 2.6775 0.58331 0.29814 0.33367 0.40143 0.37111 1.0239 0.37111h0.6923l-0.0438-0.55084c-0.0241-0.30296 0.009-0.60408 0.0745-0.66915 0.0651-0.06508 0.51134-0.16767 0.9917-0.22799 0.48037-0.06031 0.90316-0.13944 0.93957-0.17584 0.19842-0.19843-2.1493-1.653-4.369-2.7068-1.4575-0.69198-1.4838-0.69923-1.9016-0.52465-0.32541 0.13596-0.97811 0.17702-2.814 0.17702h-2.3903l0.10446 0.44983c0.0574 0.24741 0.0994 0.61177 0.0932 0.8097-0.008 0.24428-0.0434 0.16774-0.11121-0.23827-0.2074-1.2411 0.33882-1.096-4.4048-1.1703-3.5213-0.05522-4.2991-0.0995-4.9504-0.28184-1.1342-0.31751-1.5923-0.8525-3.0822-3.5993-0.67643-1.2471-1.4242-2.6091-1.6616-3.0266l-0.43175-0.75914 1.4217 0.07857c3.699 0.20442 6.1164 0.68753 8.1392 1.6266 1.3414 0.62271 4.5623 2.3784 6.5195 3.5537 1.1446 0.68733 2.1406 1.2298 2.2135 1.2056 0.13616-0.04538-2.1225-1.4804-4.0787-2.5912-1.7186-0.97601-4.9164-2.4867-6.1004-2.882-2.1202-0.70783-5.6811-1.2489-7.8154-1.1875l-1.2245 0.03521 0.36595 0.5398c0.38398 0.56641 1.3052 2.3273 1.3008 2.4864-0.002 0.05095-0.29247-0.45822-0.64678-1.1315-0.35431-0.67326-0.75727-1.3679-0.89546-1.5435-0.30591-0.3889-0.24018-0.52603 0.26237-0.54742 0.45439-0.01934-0.79869-0.15641-2.5431-0.27819-1.0526-0.07348-1.2364-0.0605-1.1811 0.0835 0.0561 0.14614-0.64035 0.16396-4.8712 0.12466-2.7152-0.02522-6.61-0.000959-8.6553 0.05396-2.0452 0.0549-3.742 0.08375-3.7706 0.0641s0.0119-0.09961 0.09-0.17768 0.14195-0.17673 0.14195-0.21925-0.74222-0.11085-1.6494-0.15185c-2.1303-0.09627-5.5402 0.09032-6.6591 0.36438l-0.86811 0.21264 2.0392 0.07169c2.4416 0.08584 4.6184 0.32884 4.6181 0.51555-0.00024 0.16712 1.9434 0.18278 2.0625 0.01662 0.10509-0.14659 16.734-0.1656 18.733-0.02142l1.4227 0.10263 0.3613 0.79681c0.46124 1.0173 1.3525 3.6984 1.543 4.6418 0.18468 0.91463 0.0848 1.3161-0.40457 1.6254-0.379 0.23955-0.48919 0.24277-5.5759 0.16278l-5.1892-0.0816 0.0445 1.5429c0.0245 0.84857 0.0227 1.0889-0.004 0.53397l-0.0482-1.0089-4.7033 0.08137c-2.5868 0.04475-5.319 0.11611-6.0715 0.15856l-1.3682 0.07719 0.0577-1.069c0.0318-0.58793 0.0369-0.89352 0.0114-0.6791l-0.0462 0.38986-1.0424-0.0018c-1.0729-0.0019-1.2542-0.04895-1.3789-0.35803-0.04-0.09896-0.0552 0.08997-0.0339 0.41984 0.0213 0.32988 0.0162 0.46163-0.0112 0.29279-0.0498-0.30598-0.0561-0.30749-1.8922-0.45703-2.1704-0.17676-4.0175-0.40721-5.5515-0.69262-0.60934-0.11337-1.1306-0.18287-1.1584-0.15445-0.0722 0.07384-0.52257 2.9007-0.61279 3.8464l-0.0759 0.7958 0.57785 0.1293c0.31782 0.07111 1.1851 0.21875 1.9274 0.32808 0.74222 0.10933 1.3495 0.22547 1.3495 0.25809 0 0.06205-0.98674-0.05698-1.3495-0.16279-0.18745-0.05468-0.20992 0.0408-0.20992 0.89181 0 0.67043 0.0497 0.99436 0.16789 1.0924 0.0923 0.07664 0.63174 0.22876 1.1986 0.33805 0.67837 0.13078 0.97981 0.23556 0.88173 0.30651-0.10091 0.07298-0.0781 0.08477 0.0707 0.03651 0.12085-0.03921 0.31774-0.07129 0.43753-0.07129zm18.716-1.6764c0-0.06973-0.78744-0.13159-1.9493-0.15313l-1.9493-0.03615 1.9433-0.02681 1.9433-0.0268 0.0433-0.68974 0.0433-0.68974 0.0227 0.68974 0.0227 0.68974 2.3092 0.02606 2.3091 0.02606-2.3391 0.06457c-1.5778 0.04356-2.0854 0.08611-1.5594 0.13076l0.77972 0.06618-0.8097 0.02311c-0.46192 0.01319-0.80971-0.02713-0.80971-0.09387zm-10.766-0.09273c1.1051-0.01979 2.9134-0.01979 4.0185 0s0.20092 0.03599-2.0093 0.03599-3.1143-0.01619-2.0093-0.03599zm-4.0782-0.68995c0.002-0.2639 0.0259-0.35774 0.0546-0.20852 0.0287 0.14921 0.0276 0.36513-0.002 0.47982-0.03 0.11469-0.0535-0.0074-0.0521-0.2713zm-4.0765 0.21676c0.11671-0.03041 0.27865-0.02841 0.35986 0.0045 0.0812 0.03286-0.0143 0.05775-0.21221 0.0553-0.19792-0.0025-0.26437-0.02933-0.14765-0.05975zm-0.71974-0.11996c0.11671-0.03041 0.27865-0.02841 0.35987 0.0045 0.0812 0.03286-0.0143 0.05774-0.21221 0.0553-0.19793-0.0025-0.26437-0.02933-0.14766-0.05975zm31.453-0.40195c-0.11241-0.1819 0.19228-0.51345 0.33797-0.36776 0.13454 0.13453 0.0299 0.49297-0.14394 0.49297-0.0641 0-0.15147-0.05635-0.19403-0.12521zm2.6226-0.06278c-0.10655-0.27764 0.1292-0.46123 0.31099-0.24219 0.15368 0.18517 0.0841 0.43018-0.12222 0.43018-0.0641 0-0.1491-0.0846-0.18877-0.188zm-0.981-0.29183c0-0.16494 0.0273-0.23241 0.0605-0.14994 0.0333 0.08247 0.0333 0.21742 0 0.29989s-0.0605 0.01499-0.0605-0.14994zm-28.194-0.60977c0.008-0.42334 0.0562-1.1206 0.10779-1.5494 0.0637-0.52951 0.0737-0.29856 0.0312 0.71973-0.0657 1.5718-0.16307 2.1536-0.13896 0.82969zm40.448-0.5298c0.00072-0.39585 0.0231-0.54333 0.0497-0.32773 0.0267 0.2156 0.0262 0.53948-0.002 0.71973-0.0274 0.18025-0.0492 0.0038-0.0485-0.392zm-13.592-0.467c0-0.80966 0.0374-1.0211 0.19076-1.08 0.33818-0.12977 0.40902 0.04367 0.40902 1.0014 0 0.9336-0.0685 1.0854-0.48964 1.0854-0.0605 0-0.11014-0.45306-0.11014-1.0068zm2.1892 0.92734c-0.17727-0.07153-0.21446-1.9058-0.0408-2.0131 0.0601-0.0371 0.19497-0.03451 0.29989 0.0058 0.15341 0.05887 0.19076 0.27033 0.19076 1.08 0 1.0116-0.0394 1.0929-0.44984 0.92734zm-2.789-0.22044c0-0.09896 0.0212-0.17993 0.0471-0.17993s0.0782 0.08097 0.1162 0.17993 0.0167 0.17993-0.0472 0.17993-0.11619-0.08097-0.11619-0.17993zm3.6972-0.82995c0.0359-0.94247 0.0217-1.0142-0.21177-1.0659-0.22355-0.04949-0.22125-0.05371 0.0214-0.03945 0.25758 0.01513 0.27354 0.07063 0.30639 1.0656 0.019 0.57729-0.008 1.0497-0.06 1.0499-0.0521 0.00012-0.0773-0.45442-0.0561-1.0102zm-1.8585 0.11021c0.00048-0.46183 0.0222-0.63606 0.0481-0.38718 0.026 0.24888 0.0255 0.62674-0.0008 0.83969-0.0265 0.21295-0.0477 0.0093-0.0472-0.45251zm-0.2093-1.5094c-0.0451-0.33978-0.0578-0.64193-0.0283-0.67144s0.0917 0.22316 0.13825 0.56148c0.0465 0.33833 0.0593 0.64048 0.0283 0.67144-0.0309 0.03096-0.0932-0.2217-0.13826-0.56148zm-1.6294 0.35323c0-0.05683 0.13495-0.10332 0.29989-0.10332s0.29989 0.0207 0.29989 0.04599-0.13495 0.07179-0.29989 0.10332-0.29989 0.01084-0.29989-0.04599zm1.2204-2.2834c-0.1466-0.60112-0.24488-1.1146-0.21841-1.1411 0.0265-0.02648 0.16936 0.44242 0.3175 1.042 0.14816 0.59957 0.24644 1.1131 0.21842 1.1411-0.028 0.02802-0.17091-0.44087-0.31751-1.042zm-0.53496-1.9241c-0.10923-0.3416-0.1787-0.64099-0.15437-0.66533 0.0243-0.02434 0.13622 0.23265 0.24862 0.57108 0.11241 0.33843 0.18188 0.63782 0.15437 0.66533-0.0275 0.0275-0.13938-0.22948-0.24862-0.57108zm-0.37075-0.99856c-0.11575-0.30165-0.0816-0.37948 0.0598-0.13631 0.0701 0.12041 0.10203 0.24419 0.0712 0.27507-0.0309 0.03088-0.0898-0.03156-0.13095-0.13876zm-33.418 9.5411-0.064-1.0196-0.47983-0.09868c-0.2639-0.05428-0.7605-0.16775-1.1036-0.25218-0.52448-0.12908-0.63392-0.12697-0.68773 0.01325-0.0352 0.09172 0.0206 0.19922 0.12399 0.23889 0.15306 0.05874 0.15826 0.0934 0.028 0.18671-0.11653 0.08344-0.0988 0.09463 0.0652 0.04118 0.12387-0.04037 0.50173-0.03558 0.83969 0.01064 0.5297 0.07245 0.5731 0.0972 0.31459 0.17945-0.20348 0.06474-0.14574 0.07342 0.17966 0.02701 0.26375-0.03762 0.51933-0.13092 0.56795-0.20733 0.0486-0.07641 0.0892 0.2974 0.0902 0.83071 0.0008 0.5333 0.0378 1.0056 0.0818 1.0496 0.11448 0.11448 0.11421 0.12046 0.044-0.99963zm48.131 0.28118c-0.0812-0.03286-0.24316-0.03486-0.35987-0.0045-0.11671 0.03041-0.0503 0.0573 0.14766 0.05975 0.19793 0.0025 0.29342-0.02244 0.21221-0.0553zm0.32759-0.40114c0.11963-0.22352 0.0912-0.23991-0.41562-0.23991-0.51403 0-0.70196 0.16194-0.46405 0.39985 0.17869 0.17869 0.75447 0.074 0.87967-0.15994zm10.226-0.43686c0.5012-0.08284 0.54868-0.22358 0.2623-0.77739-0.18751-0.36262-0.18758-0.36264-0.98963-0.28429-1.1744 0.11473-1.222 0.13756-1.222 0.58696 0 0.21547 0.036 0.42776 0.08 0.47174 0.10017 0.10017 1.27 0.10203 1.8693 0.003zm-60.163-0.235c-0.0398-0.03986-0.14333-0.04412-0.22992-0.0095-0.0957 0.03829-0.0673 0.06672 0.0725 0.07248 0.12646 0.0052 0.19731-0.02314 0.15745-0.063zm21.284-3.8861h1.7797v-0.29989-0.29989h-5.02c-2.761 0-5.433 0.03492-5.9378 0.07758-0.8799 0.07438-0.91777 0.09003-0.91777 0.37929v0.30171l4.1581-0.0794c2.2869-0.04367 4.959-0.0794 5.9378-0.0794zm-12.532-2.129c-0.0301-0.11546-0.0549-0.02099-0.0549 0.20992 0 0.23092 0.0247 0.32538 0.0549 0.20992s0.0302-0.30439 0-0.41984zm41.392-0.38972c-1.6069-0.95333-4.2446-2.3562-5.3083-2.8232l-0.71974-0.31601 1.2051 1.2397c0.66278 0.68181 1.3958 1.4749 1.6288 1.7623l0.42379 0.52268 1.7299 0.21113c2.691 0.32843 2.6445 0.35507 1.0404-0.5966zm-38.873-0.0901c-0.0301-0.11546-0.0549-0.02099-0.0549 0.20992 0 0.23092 0.0247 0.32538 0.0549 0.20992s0.0302-0.30439 0-0.41984zm33.122-0.22955c-0.54525-0.76773-2.9076-3.2171-3.391-3.5158-0.22185-0.13711-0.72387-0.27806-1.1484-0.32244l-0.75428-0.07883 0.26637 0.26637c0.2757 0.27571 0.3003 0.68052 0.0401 0.65947-0.0816-0.0066-0.47334-0.02009-0.8706-0.02999-0.64599-0.01609-0.73677-0.04973-0.85918-0.31839-0.17925-0.39342-0.0759-0.47578 0.56237-0.448 0.29074 0.01265 0.55624-0.02168 0.58999-0.07629 0.0613-0.09909-1.6998-0.25312-2.9073-0.2543l-0.63743-0.000599 0.25849 0.44983c0.21319 0.37099 0.45963 0.54444 1.4061 0.98963 0.63119 0.29689 1.9893 1.0309 3.018 1.6311 1.7308 1.0098 1.933 1.0974 2.71 1.1741 0.68276 0.06736 1.2112 0.17498 2.0767 0.4229 0.0206 0.0059-0.14135-0.24102-0.35986-0.5487zm-35.525-0.19029c-0.0333-0.08247-0.0605-0.01499-0.0605 0.14994 0 0.16494 0.0273 0.23241 0.0605 0.14994 0.0333-0.08247 0.0333-0.21742 0-0.29989zm31.113 0.21448c-0.17649-0.21266-1.6757-1.1718-2.8148-1.8008l-0.83177-0.45932 0.3067 0.52803c0.16869 0.29041 0.48067 0.83841 0.69328 1.2178l0.38658 0.68974h1.2028c1.0417 0 1.1833-0.0235 1.0572-0.17538zm-28.59-0.75199c-0.0304-0.11671-0.0573-0.05026-0.0597 0.14766-0.002 0.19793 0.0225 0.29342 0.0553 0.2122 0.0329-0.08121 0.0349-0.24315 0.005-0.35987zm-2.4003-0.05476c-0.0383-0.09569-0.0667-0.06727-0.0725 0.07248-0.006 0.12645 0.0231 0.1973 0.063 0.15744 0.0398-0.03987 0.0441-0.14332 0.009-0.22992zm0.11996-0.47982c-0.0383-0.09569-0.0667-0.06727-0.0725 0.07248-0.006 0.12645 0.0231 0.1973 0.063 0.15744 0.0398-0.03986 0.0441-0.14332 0.009-0.22992zm2.4003-0.3051c-0.0304-0.11671-0.0573-0.05026-0.0597 0.14766-0.002 0.19793 0.0225 0.29342 0.0553 0.2122 0.0329-0.08121 0.0349-0.24315 0.005-0.35987zm-2.2803-0.29468c-0.0383-0.09569-0.0667-0.06727-0.0725 0.07248-0.006 0.12645 0.0231 0.1973 0.063 0.15744 0.0398-0.03986 0.0441-0.14332 0.009-0.22991zm2.3966-0.48732c-0.0333-0.08247-0.0605-0.01499-0.0605 0.14994 0 0.16494 0.0272 0.23241 0.0605 0.14994s0.0333-0.21742 0-0.29989zm-2.1567-0.35237c-0.0383-0.09569-0.0667-0.06727-0.0725 0.07247-0.006 0.12645 0.0231 0.1973 0.063 0.15744 0.0398-0.03987 0.0441-0.14332 0.009-0.22992zm2.2792-0.23991c-0.0383-0.09569-0.0667-0.06727-0.0725 0.07248-0.006 0.12645 0.0231 0.1973 0.063 0.15744 0.0398-0.03987 0.0441-0.14332 0.009-0.22992zm0.11996-0.59978c-0.0383-0.09569-0.0667-0.06727-0.0725 0.07248-0.006 0.12645 0.0231 0.1973 0.063 0.15744 0.0398-0.03987 0.0441-0.14332 0.009-0.22992zm-1.885-0.51731c0-0.06598-0.0523-0.03899-0.11629 0.05998-0.064 0.09896-0.11628 0.23391-0.11628 0.29989 0 0.06597 0.0523 0.03898 0.11628-0.05998 0.064-0.09896 0.11629-0.23391 0.11629-0.29989zm2.0024-0.08997c-0.0333-0.08247-0.0605-0.01499-0.0605 0.14994 0 0.16494 0.0273 0.23241 0.0605 0.14994 0.0333-0.08247 0.0333-0.21742 0-0.29989zm0.12246-0.47232c-0.0383-0.09569-0.0667-0.06727-0.0725 0.07248-0.006 0.12645 0.0231 0.1973 0.063 0.15744 0.0398-0.03986 0.0442-0.14332 0.009-0.22992zm11.254-1.4571c0.32988-0.01949-1.5491-0.04542-4.1755-0.05762s-4.7503 0.0183-4.7198 0.06777c0.0505 0.08192 7.4802 0.07344 8.8953-0.01016zm4.5283 0.07544c-0.14844-0.02859-0.39135-0.02859-0.5398 0-0.14844 0.02859-0.027 0.05198 0.2699 0.05198s0.41835-0.02339 0.2699-0.05198zm-16.678-0.55589c-0.41994-0.12997-4.2651-0.2551-4.5445-0.1479-0.52866 0.20287 0.26407 0.28829 2.4968 0.26907 1.4892-0.01282 2.2519-0.05796 2.0476-0.12118zm16.048 0.01833c-0.6117-0.17169-5.398-0.27727-5.398-0.11908 0 0.19282 0.45167 0.22507 3.2388 0.23122 1.8851 0.0042 2.4661-0.02602 2.1592-0.11215z"/>
 </g>
</svg>
