<?xml version="1.0" encoding="UTF-8" standalone="no"?>
<!-- Created with Inkscape (http://www.inkscape.org/) -->
<svg id="svg2" xmlns:rdf="http://www.w3.org/1999/02/22-rdf-syntax-ns#" xmlns="http://www.w3.org/2000/svg" height="45" width="67.5" version="1.1" xmlns:cc="http://creativecommons.org/ns#" xmlns:dc="http://purl.org/dc/elements/1.1/">
 <metadata id="metadata7">
  <rdf:RDF>
   <cc:Work rdf:about="">
    <dc:format>image/svg+xml</dc:format>
    <dc:type rdf:resource="http://purl.org/dc/dcmitype/StillImage"/>
    <dc:title/>
   </cc:Work>
  </rdf:RDF>
 </metadata>
 <g id="g7290">
  <rect id="rect2990" opacity="0" height="45" width="67.5" y="0" x="3.5527e-15"/>
  <path id="path7288" d="m45.491 33.884c-1.4181-0.46097-2.4875-1.7173-2.7651-3.2483l-0.0822-0.45346-2.3748-0.000484c-2.2014-0.000484-7.6118-0.22389-11.392-0.4704l-1.6036-0.10457-0.28508 0.33879c-0.47132 0.56014-1.2265 0.84788-2.4299 0.92584-1.6203 0.10497-2.2223-0.078-3.0558-0.9287-0.56067-0.57228-0.70664-0.66403-0.88377-0.55551-0.16484 0.10099-0.24732 0.08277-0.36959-0.08162-0.17616-0.23686-0.43305-0.28299-0.43305-0.07779 0 0.07363-0.0771 0.10427-0.17138 0.0681-0.0943-0.03617-0.20436 0.02017-0.24466 0.12521-0.0608 0.15836-0.2122 0.17853-0.8867 0.1181-0.75887-0.06799-0.84291-0.10564-1.2531-0.56138-0.6293-0.69921-0.78398-0.6497-0.85818 0.27467-0.11665 1.4533-0.95341 2.6902-2.197 3.2479-0.53015 0.23771-0.81996 0.27683-2.0676 0.2791-1.3637 0.0025-1.4848-0.01716-2.0105-0.32623-1.1064-0.65044-1.7268-2.1012-1.7337-4.0543-0.003-0.88901-0.0459-1.2393-0.15129-1.2395-0.0808-0.000121-0.20756-0.11363-0.2817-0.25216-0.12826-0.23966-0.146-0.24174-0.36553-0.04308-0.28121 0.2545-0.88879 0.20709-3.5347-0.27579-1.4465-0.26398-1.8344-0.29852-2.0238-0.18022-0.32252 0.20142-0.97717 0.18356-1.2895-0.03518-0.14255-0.09985-0.29402-0.34017-0.33661-0.53405-0.0426-0.19388-0.15887-0.38377-0.25842-0.42197-0.13042-0.05005-0.1706-0.21338-0.14377-0.58449l0.0373-0.51503 0.86154-0.2954 0.86154-0.2954-0.0622-2.0713c-0.053-1.7643-0.0308-2.1658 0.14974-2.7093 0.17031-0.51276 0.28805-0.66986 0.59954-0.80001 0.6393-0.26712 11.813-0.9026 15.871-0.9026h3.3931l0.14812-0.75287c0.18216-0.92593 0.76114-2.6778 1.2213-3.6954 0.29648-0.65561 0.41513-0.79128 0.86328-0.98713 1.1713-0.51189 4.1067-0.72188 11.342-0.81143 7.4467-0.09215 9.3581 0.08652 10.715 1.0016 0.88392 0.596 2.5252 2.0345 4.2831 3.7541l1.7573 1.719 3.6238 0.43497c6.4787 0.77766 10.178 1.3536 10.52 1.6379 0.0872 0.07238 0.19619 0.35974 0.24216 0.63857 0.046 0.27883 0.13659 0.57266 0.20137 0.65296 0.0668 0.08282 0.10014 0.75006 0.077 1.5419-0.0396 1.356-0.0334 1.3959 0.21651 1.3958 0.1415-0.000087 0.33195 0.09002 0.42323 0.20023 0.24252 0.29285 0.17053 1.3721-0.1288 1.9306-0.13717 0.25593-0.2494 0.54347-0.2494 0.63898s-0.0743 0.25956-0.16519 0.36456c-0.20167 0.23308-0.35147 1.426-0.19148 1.5248 0.21906 0.13539 0.11312 0.39082-0.21771 0.52489-0.43224 0.17516-2.4184 0.57784-3.3921 0.68771-0.75675 0.08539-0.76398 0.08983-1.0472 0.64404-0.35442 0.69349-0.93011 1.2861-1.5702 1.6163-0.40524 0.20905-0.77425 0.26228-2.1313 0.30742-2.191 0.07289-2.8204-0.09738-3.7002-1.001-0.57025-0.5857-0.67961-0.64611-1.2399-0.6849l-0.61445-0.04253-0.19503 0.60462c-0.40376 1.2517-1.2107 2.1781-2.3436 2.6904-0.58556 0.2648-3.9522 0.33997-4.6768 0.10443zm3.1469-1.5058c1.7108-0.91186 2.0544-3.4291 0.66375-4.8621-0.60977-0.62833-1.1726-0.86478-2.0584-0.86478-1.2202 0-2.1379 0.62673-2.6695 1.8231-0.3609 0.81226-0.26434 2.0857 0.21724 2.8646 0.86089 1.3925 2.4026 1.8089 3.8469 1.0391zm-1.5234 0.14247c0.0831-0.03354 0.21917-0.03354 0.3023 0 0.0831 0.03354 0.0152 0.06099-0.15115 0.06099-0.16627 0-0.23428-0.02745-0.15115-0.06099zm-1.0138-0.25582c-0.5654-0.2871-1.1162-0.8827-1.3272-1.4352-0.19807-0.51863-0.16718-0.88921 0.0741-0.88921 0.0894 0 0.0876 0.07733-0.006 0.2522-0.0742 0.13871-0.10832 0.27885-0.0758 0.31142 0.0326 0.03257 0.0951-0.05371 0.13887-0.19174 0.0754-0.23745 0.242-0.30177 0.67621-0.26101 0.13353 0.01254 0.18963-0.0881 0.18963-0.34013 0-0.31467-0.0414-0.35676-0.34248-0.3482-0.18837 0.0053-0.37158-0.01935-0.40714-0.05491-0.099-0.09905 0.0791-0.6978 0.20758-0.6978 0.10608 0 0.49331 0.37555 0.76739 0.74426 0.23829 0.32054 0.16369 0.54031-0.3875 1.1416-0.31449 0.34306-0.51869 0.37407-0.52127 0.07918-0.002-0.18085-0.0189-0.18524-0.11907-0.03023-0.1411 0.21833-0.15408 0.368-0.0302 0.34845 0.29699-0.04689 0.51837 0.03021 0.44191 0.15393-0.0567 0.09169-0.0328 0.10655 0.0696 0.04328 0.11802-0.07295 0.14254-0.0056 0.10101 0.27724-0.0329 0.22418-0.008 0.34447 0.0629 0.3008 0.0647-0.04002 0.0793-0.01056 0.0323 0.06546-0.0567 0.09171-0.0121 0.11451 0.13247 0.06773 0.16117-0.05213 0.1759-0.04041 0.0566 0.04502-0.1306 0.09352-0.12365 0.12995 0.0365 0.19141 0.11434 0.04388 0.16699 0.02605 0.12478-0.04225-0.0413-0.0669 0.008-0.08703 0.11395-0.0464 0.10284 0.03946 0.15167 0.12887 0.10852 0.19868-0.0462 0.07476-0.0202 0.09097 0.0631 0.03944 0.0779-0.04813 0.11028-0.13816 0.072-0.20007-0.0383-0.06191 0.0121-0.11257 0.11182-0.11257 0.2586 0 0.3784 0.24905 0.18092 0.37612-0.15082 0.09705 0.15379 0.07344 0.88563-0.06864 0.1132-0.02198 0.22565 0.01953 0.24989 0.09225 0.0243 0.07272 0.0806 0.0369 0.12534-0.07958 0.0486-0.12663 0.0332-0.18208-0.0383-0.1379-0.0658 0.04063-0.11954 0.01625-0.11954-0.05418s0.11205-0.12806 0.24898-0.12806c0.13694 0 0.21768 0.05066 0.17942 0.11257-0.0383 0.06191-0.006 0.15194 0.072 0.20007 0.0912 0.05636 0.10909 0.03494 0.0503-0.0602-0.0614-0.09925-0.0188-0.13512 0.12975-0.10938 0.13128 0.02276 0.22333-0.03535 0.22667-0.14307 0.003-0.09976 0.089-0.17559 0.19084-0.1685 0.13875 0.0096 0.17186-0.07809 0.13199-0.34971-0.0402-0.27361-0.015-0.33896 0.10264-0.26628 0.10236 0.06326 0.12624 0.04841 0.0696-0.04328-0.0517-0.08356-0.008-0.13961 0.10938-0.13961 0.1171 0 0.16102 0.05605 0.10938 0.13961-0.0522 0.08454-0.0333 0.10686 0.048 0.05659 0.0738-0.04566 0.10025-0.17182 0.0586-0.28037-0.0503-0.13102-0.0286-0.16825 0.0643-0.11077 0.0921 0.05691 0.11494 0.02106 0.0667-0.10464-0.0651-0.16968-0.091-0.16716-0.22953 0.02235-0.1487 0.20335-0.16825 0.20263-0.40893-0.01519-0.42903-0.38826-0.2355-0.74267 0.32544-0.59598 0.39767 0.10399 0.54425 0.591 0.31464 1.0454-0.26071 0.51602-0.63265 0.91269-1.0742 1.1457-0.48451 0.25565-1.9728 0.28885-2.4347 0.05432zm-0.68919-0.80754c0-0.09684-0.0463-0.14749-0.10275-0.11257-0.0565 0.03492-0.0714 0.11415-0.0331 0.17607 0.0978 0.15821 0.13591 0.1404 0.13591-0.0635zm3.8442 0.0635c0.0383-0.06191 0.0143-0.14675-0.0533-0.18852-0.0676-0.04178-0.1229 0.0089-0.1229 0.11257 0 0.2124 0.0726 0.24368 0.17622 0.07596zm-2.3528 0.40693c0-0.10413 0.0536-0.28954 0.11918-0.41201 0.10023-0.1873 0.057-0.24436-0.27208-0.35914-0.3114-0.10861-0.35423-0.15947-0.20987-0.24919 0.10825-0.06727 0.19673-0.06827 0.21943-0.0025 0.021 0.06064 0.11615 0.08028 0.21161 0.04364 0.0955-0.03663 0.17358-0.0064 0.17358 0.06726 0 0.07363 0.0544 0.13386 0.12092 0.13386 0.0665 0 0.12092-0.08829 0.12092-0.19619 0-0.16906 0.0283-0.17324 0.20461-0.03023 0.15857 0.12863 0.18304 0.13014 0.10878 0.0067-0.0675-0.11209-0.0304-0.1479 0.12523-0.12092 0.12157 0.02107 0.22225-0.0297 0.22375-0.11284 0.003-0.18063 0.0489-0.19147 0.36548-0.0869 0.13302 0.04393 0.30987 0.10015 0.393 0.12494 0.17536 0.05228 0.20609 0.2945 0.0373 0.2945-0.0626 0-0.14742-0.05442-0.18852-0.12092-0.0411-0.06651-0.16676-0.12065-0.27921-0.12032-0.14846 0.000484-0.10526 0.07999 0.15764 0.29033 0.3478 0.27827 0.35376 0.29896 0.15089 0.52314-0.11618 0.12838-0.17196 0.27268-0.12397 0.32068 0.048 0.048-0.002 0.05283-0.1122 0.01073-0.10972-0.04211-0.25487-0.23543-0.32256-0.42962-0.1225-0.35137-0.3068-0.43276-0.58275-0.25734-0.0955 0.0607-0.1064 0.1527-0.0321 0.27022 0.2315 0.36606 0.13508 0.60141-0.24638 0.60141-0.24862 0-0.36277-0.05957-0.36277-0.18933zm-0.99795-0.227c-0.2721-0.19896-0.26665-0.34254 0.023-0.60462 0.28102-0.25432 0.49131-0.15703 0.49131 0.22728 0 0.39223-0.24653 0.57312-0.51426 0.37734zm0.63518-0.12069c0-0.09584 0.0544-0.20788 0.12093-0.24898 0.0665-0.04111 0.12092 0.03731 0.12092 0.17425s-0.0544 0.24898-0.12092 0.24898c-0.0665 0-0.12093-0.07842-0.12093-0.17425zm1.167-0.0032c-0.0375-0.09763-0.016-0.20968 0.0476-0.24898 0.0636-0.03931 0.11565-0.0455 0.11565-0.01376s0.0331 0.14378 0.0734 0.24898c0.0404 0.1052 0.019 0.19127-0.0476 0.19127-0.0665 0-0.15158-0.07988-0.18904-0.17751zm-2.1117-0.67651c0.0291-0.08729 0.12432-0.18252 0.21162-0.21162 0.0907-0.03023 0.13604 0.01511 0.10581 0.10581-0.0291 0.08729-0.12433 0.18252-0.21162 0.21162-0.0907 0.03023-0.13604-0.01512-0.10581-0.10581zm0.53012-0.18246c-0.24612-0.24612-0.2438-0.53552 0.004-0.53552 0.12594 0 0.16898 0.06604 0.12231 0.18767-0.0413 0.10761-0.021 0.15615 0.0476 0.11379 0.0657-0.04063 0.11953 0.03816 0.11953 0.1751 0 0.29891-0.0447 0.30789-0.29366 0.05896zm1.261-0.22607c0-0.10369 0.0544-0.18852 0.12093-0.18852 0.0665 0 0.12092 0.05121 0.12092 0.11379s-0.0544 0.14742-0.12092 0.18852c-0.0665 0.04111-0.12093-0.01009-0.12093-0.11379zm0.89708-0.08352c-0.0465-0.07526 0.0112-0.19045 0.1283-0.25597 0.17318-0.09692 0.18199-0.13869 0.0472-0.22407-0.13635-0.08638-0.13357-0.1056 0.0157-0.10865 0.16124-0.0033 0.16124-0.01795 0-0.13198-0.1335-0.09442-0.14228-0.1442-0.0332-0.1886 0.0815-0.03318 0.1878-0.04264 0.23628-0.02102 0.12538 0.0559 0.13974 0.46062 0.019 0.53525-0.0556 0.03437-0.10109 0.1681-0.10109 0.29719 0 0.25764-0.17876 0.31368-0.31215 0.09786zm1.3702-0.29193c-0.24586-0.32741-0.27939-0.66847-0.0605-0.6151 0.0831 0.02027 0.10807 0.01327 0.0554-0.01555-0.0526-0.02882-0.0339-0.1269 0.0417-0.21796 0.0755-0.09106 0.10935-0.23541 0.0751-0.32078-0.0387-0.09643-0.0659-0.07393-0.0719 0.05939-0.0108 0.24205-0.51702 0.48016-0.7945 0.37368-0.26643-0.10224-0.22285-0.44441 0.0808-0.63402 0.22767-0.14219 0.28286-0.13747 0.40893 0.03493 0.13149 0.17983 0.15289 0.18062 0.2191 0.0081 0.0482-0.1257 0.0254-0.16155-0.0667-0.10464-0.093 0.05748-0.11463 0.02025-0.0643-0.11077 0.0417-0.10854 0.0153-0.23471-0.0586-0.28037-0.0813-0.05027-0.10028-0.02795-0.048 0.05659 0.0517 0.08356 0.008 0.13961-0.10938 0.13961-0.1171 0-0.16101-0.05605-0.10938-0.13961 0.0567-0.09169 0.0328-0.10655-0.0696-0.04328-0.11761 0.07268-0.1428 0.0073-0.10264-0.26627 0.0398-0.27163 0.006-0.35936-0.13199-0.34972-0.10187 0.0071-0.18775-0.06874-0.19084-0.16851-0.003-0.10772-0.0954-0.16582-0.22667-0.14307-0.14853 0.02575-0.19109-0.01013-0.12975-0.10938 0.0588-0.09513 0.0409-0.11655-0.0503-0.0602-0.0779 0.04813-0.11028 0.13816-0.072 0.20007 0.0383 0.06191-0.0425 0.11257-0.17942 0.11257-0.13693 0-0.24898-0.05762-0.24898-0.12806 0-0.07043 0.0538-0.09481 0.11953-0.05418 0.0715 0.04417 0.0869-0.01127 0.0383-0.1379-0.0447-0.11648-0.1011-0.15229-0.12534-0.07958-0.0243 0.07271-0.13669 0.11422-0.24989 0.09224-0.73184-0.14208-1.0364-0.16569-0.88563-0.06864 0.19747 0.12707 0.0777 0.37612-0.18092 0.37612-0.0998 0-0.15008-0.05066-0.11182-0.11257 0.0383-0.06191 0.006-0.15194-0.072-0.20007-0.0949-0.05866-0.10894-0.0347-0.0426 0.07266 0.0717 0.11606 0.044 0.13905-0.10079 0.0835-0.12317-0.04727-0.18874-0.02037-0.17099 0.07014 0.0158 0.08074-0.0659 0.13934-0.18153 0.13022-0.11771-0.0093-0.17604 0.03889-0.13248 0.10938 0.0458 0.07411 0.0192 0.08968-0.0647 0.03782-0.0854-0.05278-0.12928-0.02389-0.10938 0.07201 0.0183 0.08808-0.0389 0.14519-0.12691 0.12691-0.0881-0.01828-0.12514 0.02343-0.0823 0.09267 0.0428 0.06924 0.12846 0.09459 0.19038 0.05632 0.0619-0.03827 0.11256 0.01848 0.11256 0.12609 0 0.1171-0.056 0.16102-0.13961 0.10938-0.0865-0.05346-0.10678-0.03317-0.0533 0.05333 0.0749 0.12124-0.13076 0.19693-0.42951 0.15806-0.043-0.0056-0.0481 0.1053-0.0112 0.24644 0.0458 0.17524 0.0227 0.22919-0.0729 0.17011-0.19546-0.1208-0.17465 0.07754 0.0376 0.35812 0.0976 0.1291 0.17295 0.34356 0.16735 0.47657-0.01 0.23826-0.011 0.2383-0.0707 0.003-0.0333-0.13136-0.1464-0.30162-0.25135-0.37835-0.16443-0.12024-0.17008-0.20867-0.0409-0.63987 0.32317-1.0786 1.4084-1.8738 2.5575-1.8738 1.5318 0 2.7146 1.2663 2.6357 2.8217-0.0356 0.70198-0.0372 0.7046-0.24746 0.42454zm-0.39816-2.1023c0.0383-0.06191 0.0143-0.14675-0.0533-0.18852-0.0676-0.04178-0.1229 0.0089-0.1229 0.11257 0 0.2124 0.0726 0.24368 0.17622 0.07596zm-1.7784-1.0591c-0.11639-0.03042-0.30684-0.03042-0.42323 0s-0.0212 0.0553 0.21161 0.0553c0.23278 0 0.32801-0.02489 0.21162-0.0553zm-0.92116 2.7706 0.0216-0.61024 0.43465 0.06659c0.52127 0.07986 0.73697 0.2311 0.73697 0.51672 0 0.29234-0.26113 0.4824-0.778 0.56628l-0.43682 0.07089 0.0216-0.61024zm1.0723-0.02693c0-0.12516-0.0465-0.25633-0.10338-0.29147-0.0568-0.03514-0.0977 0.09234-0.0907 0.28328 0.0137 0.3756 0.19407 0.38321 0.19407 0.0082zm-0.49801-0.0089c-0.18342-0.11336-0.38142-0.02141-0.28609 0.13285 0.0364 0.05901 0.15075 0.07488 0.25396 0.03528 0.14658-0.05625 0.15361-0.09305 0.0322-0.16812zm-2.646 0.0089c0-0.15855 0.0586-0.21176 0.18138-0.16465 0.0998 0.03828 0.18139 0.11238 0.18139 0.16465 0 0.05228-0.0816 0.12637-0.18139 0.16465-0.12276 0.04711-0.18138-0.0061-0.18138-0.16465zm0.72554 0c0-0.06651 0.0784-0.12092 0.17425-0.12092 0.0958 0 0.20787 0.05442 0.24898 0.12092 0.0411 0.06651-0.0373 0.12092-0.17425 0.12092-0.13694 0-0.24898-0.05442-0.24898-0.12092zm2.6603 0c0-0.06651 0.0816-0.12092 0.18138-0.12092 0.0998 0 0.18139 0.05442 0.18139 0.12092 0 0.06651-0.0816 0.12092-0.18139 0.12092-0.0998 0-0.18138-0.05442-0.18138-0.12092zm0.96738 0c0-0.06651 0.10883-0.12092 0.24185-0.12092 0.13301 0 0.24184 0.05442 0.24184 0.12092 0 0.06651-0.10883 0.12092-0.24184 0.12092-0.13302 0-0.24185-0.05442-0.24185-0.12092zm-0.48267-0.48184c-0.14234-0.08894-0.14914-0.14394-0.0323-0.26083 0.17613-0.17613 0.31093-0.07731 0.25354 0.18587-0.0292 0.13369-0.0928 0.15525-0.22129 0.07496zm-2.4195-0.1746c0-0.15775 0.30862-0.55279 0.43187-0.55279 0.0285 0 0.0518 0.11204 0.0518 0.24898s-0.0538 0.21574-0.11954 0.1751c-0.0685-0.04236-0.0888 0.0062-0.0476 0.11379 0.0467 0.12163 0.004 0.18766-0.12231 0.18766-0.10688 0-0.19433-0.07774-0.19433-0.17275zm1.4511-0.12956c0-0.09976 0.0544-0.18138 0.12093-0.18138 0.0665 0 0.12092 0.08162 0.12092 0.18138s-0.0544 0.18138-0.12092 0.18138c-0.0665 0-0.12093-0.08162-0.12093-0.18138zm0.71043 0.000968c-0.008-0.03382-0.0231-0.12951-0.033-0.21264-0.01-0.08313-0.1173-0.13391-0.23888-0.11284-0.14852 0.02575-0.19109-0.01013-0.12975-0.10938 0.0612-0.09905 0.0409-0.11652-0.0618-0.05305-0.0891 0.05508-0.19801 0.02499-0.26053-0.07201-0.0912-0.14158-0.12356-0.14158-0.21481 0-0.0625 0.097-0.1714 0.12709-0.26053 0.07201-0.1067-0.06595-0.12312-0.04609-0.0542 0.06552 0.0751 0.12137 0.0429 0.13705-0.13246 0.06474-0.1273-0.05248-0.31308-0.09616-0.41284-0.09707-0.21368-0.0019-0.60462-0.31805-0.60462-0.48887 0-0.06549 0.0951-0.1886 0.21128-0.27357 0.26795-0.19593 0.51426-0.01479 0.51426 0.37819 0 0.25964 0.0276 0.27156 0.36102 0.15536 0.30124-0.10501 0.34129-0.16273 0.24185-0.34853-0.22052-0.41198-0.14383-0.60129 0.24359-0.60129 0.38147 0 0.47788 0.23536 0.24638 0.60142-0.0743 0.11752-0.0634 0.20953 0.0321 0.27022 0.27595 0.17542 0.46025 0.09404 0.58275-0.25734 0.0677-0.19419 0.21284-0.38752 0.32256-0.42962s0.1602-0.03728 0.11221 0.01073c-0.048 0.048 0.008 0.1923 0.12396 0.32068 0.20288 0.22418 0.19691 0.24487-0.15089 0.52314-0.26289 0.21034-0.3061 0.28989-0.15764 0.29033 0.11246 0.000363 0.2381-0.05381 0.27921-0.12032 0.0978-0.15828 0.30231-0.15571 0.30231 0.0038 0 0.0686-0.0952 0.15419-0.21162 0.19021-0.11638 0.03602-0.30684 0.1164-0.42323 0.17861-0.11638 0.06222-0.21842 0.08545-0.22673 0.05164zm-2.4688-0.31138c-0.0439-0.07093-0.0506-0.158-0.0152-0.19349 0.0866-0.08662 0.32246 0.066 0.32246 0.20868 0 0.15454-0.20876 0.14422-0.30728-0.01518zm0.97614-0.63202c-0.0518-0.11926-0.0601-0.25076-0.0187-0.29223 0.1228-0.1228 0.22178 0.04969 0.16527 0.28798-0.0501 0.21125-0.0566 0.21144-0.14656 0.0043zm1.1092 0.07543c-0.0866-0.14015 0.11523-0.4845 0.22163-0.37809 0.043 0.04297 0.0263 0.17081-0.0372 0.2841-0.0634 0.11329-0.14642 0.15559-0.18449 0.09399zm-35.139 3.0334c1.438-1.366 1.1784-4.1851-0.45174-4.9062-0.96816-0.42826-1.8982 0.02968-2.4331 1.198-0.26244 0.57322-0.29529 0.78498-0.24817 1.5991 0.0628 1.0851 0.43014 1.857 1.0908 2.2922 0.58288 0.38392 1.5352 0.29858 2.0422-0.18302zm-1.8371 0.03155c-0.74782-0.39546-1.2032-1.2763-1.1905-2.3025 0.0102-0.82304 0.24645-1.6064 0.46902-1.5552 0.0794 0.01828 0.10779-0.02597 0.063-0.09831-0.0447-0.07234 0.0191-0.24251 0.14187-0.37814 1.1532-1.2743 2.972-0.29579 3.1526 1.6961 0.11389 1.2561-0.49822 2.4297-1.4555 2.7906-0.47506 0.1791-0.57874 0.1657-1.1806-0.15259zm0.8862 0.07998c-0.0831-0.03354-0.21917-0.03354-0.30231 0-0.0831 0.03354-0.0152 0.06099 0.15116 0.06099 0.16627 0 0.23429-0.02745 0.15115-0.06099zm-0.37018-0.58387c0.0273-0.23339 0.0377-0.42435 0.0232-0.42435-0.0144 0-0.11236-0.03303-0.21756-0.0734-0.13605-0.05221-0.19128-0.0019-0.19128 0.17425 0 0.32921-0.20417 0.43991-0.45876 0.24872-0.18961-0.14239-0.19091-0.13798-0.0162 0.0545 0.23916 0.26342 0.59092 0.14497 0.60988-0.20539 0.0115-0.21292 0.0241-0.22036 0.0705-0.04171 0.031 0.11958-0.0161 0.30688-0.10472 0.41621-0.13608 0.16787-0.13444 0.18269 0.0106 0.09528 0.12984-0.07827 0.15229-0.05292 0.0921 0.10399-0.0438 0.11413-0.0318 0.17797 0.0265 0.14188 0.0584-0.03609 0.12848-0.25658 0.15572-0.48997zm0.55613 0.04281c-0.0301-0.09056-0.085-0.03575-0.12776 0.12776-0.0526 0.20114-0.0368 0.24835 0.0529 0.15862 0.0703-0.07026 0.10397-0.19914 0.0749-0.28638zm0.54993 0.29842c0.0445-0.04448-0.004-0.17443-0.10726-0.28878-0.10348-0.11434-0.19649-0.3187-0.20669-0.45413-0.0149-0.19765-0.0614-0.22334-0.23536-0.1302-0.11924 0.06382-0.21597 0.18213-0.21494 0.26293 0.0008 0.09369 0.0426 0.08243 0.11441-0.03109 0.0972-0.15366 0.123-0.15082 0.18884 0.02078 0.0419 0.10933 0.0951 0.29826 0.11819 0.41984 0.0231 0.12158 0.046 0.23466 0.0511 0.25129 0.0188 0.06145 0.21336 0.02766 0.29167-0.05065zm0.48089-0.9601c0.079 0.01868 0.0967 0.0091 0.0393-0.02132-0.0574-0.0304-0.048-0.09016 0.021-0.13279 0.0705-0.04353-0.003-0.13812-0.16762-0.21579-0.16872-0.07962-0.32174-0.09183-0.36071-0.02878-0.0372 0.06023 0.0172 0.10951 0.12084 0.10951 0.10369 0 0.18852 0.05808 0.18852 0.12907 0 0.07801-0.10539 0.09562-0.26643 0.04451-0.25097-0.07966-0.25449-0.07261-0.0605 0.12141 0.11328 0.11329 0.21338 0.27011 0.22244 0.34849 0.009 0.07838 0.0397 0.02309 0.068-0.12288 0.0284-0.14596 0.11616-0.25011 0.19515-0.23143zm-2.0522-0.10806c0.26045-0.13512 0.34829-0.13701 0.47509-0.01022 0.1268 0.1268 0.18516 0.12387 0.31568-0.01585 0.0881-0.09427 0.2407-0.14048 0.3392-0.10269 0.10921 0.0419 0.15955 0.01013 0.12903-0.08144-0.0275-0.08259 0.0255-0.22568 0.11777-0.31798 0.0923-0.0923 0.1392-0.24243 0.10421-0.33362-0.035-0.09119 0.002-0.17009 0.0837-0.17534 0.11104-0.0072 0.10992-0.02465-0.005-0.07079-0.0836-0.03368-0.1221-0.10947-0.0857-0.16842s-0.0234-0.24393-0.13287-0.41107c-0.19319-0.29485-0.18965-0.30748 0.119-0.42483 0.36554-0.13898 0.49935-0.39445 0.36611-0.69896-0.051-0.11639-0.0826-0.25647-0.0704-0.3113 0.0123-0.05483-0.0325-0.0659-0.0992-0.02463-0.0788 0.04871-0.0693 0.16075 0.0273 0.31917 0.12769 0.20966 0.10839 0.27714-0.1368 0.47809-0.3261 0.26727-0.62866 0.29931-0.83911 0.08886-0.11286-0.11286-0.14511-0.11286-0.14511 0 0 0.07981-0.10883 0.14511-0.24184 0.14511-0.13302 0-0.24185 0.07774-0.24185 0.17275s-0.068 0.24465-0.15115 0.33254c-0.19498 0.20612-0.22523 0.58248-0.047 0.58488 0.0792 0.0011 0.0651 0.04778-0.0331 0.10995-0.14435 0.09137-0.13967 0.13919 0.0302 0.30909 0.21754 0.21754 0.27065 0.54649 0.0882 0.54649-0.062 0-0.15013-0.1177-0.19578-0.26154-0.0735-0.2317-0.0959-0.2386-0.19554-0.06046-0.0619 0.1106-0.20506 0.20538-0.31814 0.21063-0.14655 0.0068-0.15826 0.02838-0.0408 0.0751 0.13917 0.05534 0.13917 0.08388 0 0.18324-0.12617 0.09009-0.1152 0.10173 0.0468 0.04962 0.14554-0.04681 0.2122-0.0031 0.21347 0.13975 0.002 0.15774 0.0262 0.16948 0.10274 0.04873 0.0555-0.0875 0.24467-0.23369 0.42041-0.32487zm-0.525-0.0602c0-0.06651 0.0544-0.12092 0.12092-0.12092 0.0665 0 0.12092 0.05442 0.12092 0.12092 0 0.06651-0.0544 0.12092-0.12092 0.12092-0.0665 0-0.12092-0.05442-0.12092-0.12092zm1.2092-0.36277c0-0.06651 0.0544-0.12092 0.12092-0.12092 0.0665 0 0.12092 0.05441 0.12092 0.12092s-0.0544 0.12092-0.12092 0.12092c-0.0665 0-0.12092-0.05441-0.12092-0.12092zm-0.54084-0.23649c-0.046-0.07434-0.0467-0.35319-0.002-0.61966 0.0622-0.36838 0.11798-0.45451 0.23262-0.35938 0.0829 0.06882 0.1826 0.09329 0.22151 0.05438 0.0389-0.03891 0.12766 0.13535 0.19721 0.38725 0.0696 0.2519 0.11423 0.47024 0.0993 0.4852-0.12282 0.12282-0.68125 0.16175-0.74894 0.05222zm0.48038-0.36813c0.0411-0.06651-0.0133-0.12092-0.12093-0.12092-0.10761 0-0.16203 0.05442-0.12092 0.12092 0.0411 0.06651 0.0955 0.12092 0.12092 0.12092 0.0254 0 0.0798-0.05442 0.12093-0.12092zm0.26352-0.22947c-0.0522-0.27309-0.0412-0.28533 0.0924-0.10265 0.0834 0.11409 0.18711 0.17201 0.23042 0.1287 0.0433-0.04331 0.0788 0.0029 0.0788 0.10265 0 0.30827-0.33878 0.19969-0.40156-0.1287zm-0.13743-0.48771c-0.0383-0.06191-0.0143-0.14675 0.0533-0.18852 0.0676-0.04178 0.1229 0.0089 0.1229 0.11257 0 0.2124-0.0725 0.24368-0.17621 0.07596zm1.562 0.94389c-0.0592-0.18641-0.0406-0.23167 0.0676-0.1648 0.11199 0.06921 0.11915 0.03856 0.0288-0.12296-0.0662-0.11833-0.10811-0.30265-0.0931-0.40959 0.015-0.10694 0.004-0.12642-0.0247-0.04329-0.0286 0.08313-0.15681 0.15115-0.28495 0.15115s-0.23298 0.04932-0.23298 0.1096 0.10883 0.08114 0.24185 0.04636c0.13521-0.03536 0.24184-0.0037 0.24184 0.07178 0 0.07426-0.10883 0.13503-0.24184 0.13503-0.13302 0-0.24185 0.05441-0.24185 0.12092s0.10883 0.12092 0.24185 0.12092c0.13301 0 0.24184 0.05442 0.24184 0.12092 0 0.06651 0.0309 0.12092 0.0686 0.12092s0.0319-0.11564-0.013-0.25699zm-2.7753-0.10393c-0.0405-0.06549-0.20301-0.10836-0.36119-0.09527-0.37448 0.031-0.26116 0.21434 0.13248 0.21434 0.16761 0 0.26951-0.05305 0.22871-0.11907zm0.0593-0.37644c0-0.0445-0.13108-0.10597-0.29128-0.13659-0.18469-0.03531-0.27208-0.0057-0.23884 0.08091 0.0554 0.14425 0.53012 0.19412 0.53012 0.05568zm0.16099-1.099c-0.23798-0.26298-0.38516-0.18712-0.16099 0.08299 0.0855 0.10298 0.11986 0.22275 0.0764 0.26617-0.0434 0.04342-0.15126-0.01994-0.23964-0.14081-0.14853-0.20314-0.16662-0.20428-0.23921-0.01512-0.0432 0.11255-0.0309 0.1752 0.0273 0.13922s0.17716 0.02052 0.26433 0.12556c0.14363 0.17307 0.17317 0.1709 0.31504-0.02311 0.13071-0.17875 0.12357-0.25053-0.0433-0.43489zm2.269 0.24279c0.13261-0.2478 0.13116-0.248-0.16828-0.0235-0.16612 0.12456-0.27668 0.26816-0.24569 0.31913 0.078 0.1282 0.25468 0.002 0.41397-0.29563zm-1.2314-0.36287c0.39803-0.0055 0.48012-0.05133 0.5265-0.29395 0.0549-0.28699-0.16473-0.59977-0.31534-0.44916-0.12751 0.1275-0.0916 0.42376 0.0413 0.34157 0.0665-0.04111 0.12093 0.0069 0.12093 0.10654 0 0.12319-0.10656 0.17328-0.33254 0.15633-0.26471-0.01986-0.34034-0.09238-0.3708-0.35552-0.0305-0.26308 0.0113-0.33058 0.20447-0.33058 0.13352 0 0.26965-0.04353 0.30254-0.09674 0.0329-0.05321-0.13532-0.09674-0.37378-0.09674-0.23845 0-0.37404 0.01984-0.30129 0.04409 0.0727 0.02425 0.10177 0.12359 0.0645 0.22075-0.0446 0.11607-0.11479 0.13766-0.20482 0.06294-0.0754-0.06255-0.17213-0.13196-0.21503-0.15424-0.12932-0.06717-0.58678 0.4063-0.51101 0.5289 0.0387 0.06262 0.19537-0.0035 0.34815-0.14711 0.17697-0.16625 0.27514-0.20247 0.27051-0.09978-0.0201 0.44401 0.0433 0.71188 0.15246 0.64442 0.0669-0.04136 0.33386-0.07812 0.59322-0.0817zm-0.5844-0.2907c0.006-0.14087 0.0344-0.16952 0.073-0.07306 0.0349 0.08729 0.0306 0.19159-0.01 0.23177-0.0401 0.04018-0.0688-0.03124-0.0635-0.15871zm-0.73509-0.09604c0-0.02511 0.0952-0.12034 0.21162-0.21162 0.19179-0.15041 0.19606-0.14614 0.0456 0.04565-0.15797 0.20143-0.25727 0.26548-0.25727 0.16596zm47.855 2.6297c0.22384-0.05999 0.27208-0.15747 0.27208-0.5498v-0.47689l-0.45346 0.03753c-0.44017 0.03643-0.45456 0.0526-0.49065 0.55145-0.0397 0.54923 0.0464 0.60536 0.67203 0.43771zm-15.932-0.15555c0-0.16985-0.17013-0.19489-1.0254-0.15091-1.0881 0.05595-0.99497 0.26176 0.11843 0.26176 0.49881 0 0.90692-0.04989 0.90692-0.11085zm-2.5394-0.131-0.66508-0.0815 0.6003-0.01971c0.55812-0.01832 0.58626-0.03375 0.40055-0.21946-0.16419-0.16419-0.6047-0.21607-2.4746-0.29144l-2.2749-0.0917 2.3278 0.03242c1.6377 0.02281 2.3306-0.0073 2.3373-0.10156 0.006-0.08011 0.0341-0.0732 0.0705 0.01717 0.0381 0.0944 0.30312 0.15115 0.70592 0.15115 0.40837 0 0.66345-0.05544 0.69545-0.15115 0.0278-0.08313 0.08 0.0026 0.11598 0.19055 0.0468 0.24386 0.0282 0.30446-0.0647 0.21162-0.0716-0.07155-0.42515-0.13009-0.78579-0.13009-0.5781 0-0.63732 0.02214-0.50039 0.18714 0.11513 0.13873 0.35501 0.18067 0.92728 0.16215 0.6529-0.02114 0.75977-0.05466 0.69285-0.21737-0.34387-0.83598-0.3674-2.4097-0.0544-3.6387 0.47084-1.8488 2.2936-2.7415 4.9992-2.4482 1.5434 0.1673 2.3474 0.41166 3.0051 0.91334 0.768 0.58577 1.1267 1.1858 1.7492 2.9255 0.53979 1.5088 0.74203 1.941 0.85524 1.8278 0.1178-0.1178-1.2123-3.5671-1.6019-4.1543-0.56966-0.85842-1.2456-1.261-2.7777-1.6543-0.13302-0.03415-0.003-0.0349 0.28795-0.0017 1.286 0.14667 2.3802 1.0117 3.0159 2.3841 0.26606 0.57445 0.36698 0.68799 0.56568 0.6365 0.13301-0.03447 0.74908-0.06342 1.369-0.06432 1.0247-0.0015 1.1099-0.01893 0.93716-0.19167-0.12102-0.12102-0.18235-0.37351-0.1689-0.69531l0.0211-0.50528 0.0458 0.50451c0.0612 0.67385 0.27462 0.8429 0.84362 0.66827 0.2411-0.074 0.4885-0.10355 0.54979-0.06568 0.16705 0.10324 2.388-0.08596 2.388-0.20343 0-0.05588-0.12243-0.12494-0.27207-0.15347-0.14964-0.02852-0.10884-0.02577 0.0907 0.0061 0.66483 0.10626 1.5692 0.04194 3.6353-0.25851 3.1077-0.45193 3.6923-0.56901 3.7631-0.75367 0.0437-0.11392 0.2725-0.16738 0.71637-0.16738 0.35867 0 0.65214-0.04997 0.65214-0.11103 0-0.06107 0.0339-0.21071 0.0754-0.33254 0.0562-0.16532 0.0238-0.15249-0.12778 0.05057-0.14826 0.1986-0.32694 0.27208-0.66158 0.27208h-0.45846l-0.0789-1.2898c-0.0434-0.70937-0.0653-1.3004-0.0486-1.3133 0.0167-0.01295 0.25766-0.05836 0.53555-0.10089 0.37642-0.05762 0.5537-0.02887 0.69531 0.11273 0.1728 0.1728 0.19006 0.16806 0.19006-0.05227 0-0.13614-0.10599-0.27597-0.24185-0.3191-0.13302-0.04222-0.24185-0.14889-0.24185-0.23706 0-0.17529-0.2674-0.31195-0.58427-0.2986-0.15926 0.0067-0.15099 0.0283 0.0393 0.10258 0.42795 0.16707-2.9322 0.53453-3.5059 0.3834-0.44012-0.11593-0.40745-0.12295 0.36277-0.07791 0.59915 0.03503 0.75814 0.01744 0.54416-0.0602-0.2165-0.07856-0.0793-0.0953 0.48369-0.05897 0.57201 0.03691 0.7037 0.0203 0.48369-0.06104-0.22279-0.08237-0.11146-0.09796 0.42323-0.05928 0.43823 0.03171 0.62977 0.01362 0.4837-0.04565-0.17963-0.07289-0.0474-0.12103 0.51392-0.18712 0.43796-0.05156 0.75584-0.14755 0.75594-0.22826 0.00012-0.09873-0.48394-0.13698-1.6627-0.13136l-1.6629 0.0079 1.5418-0.04165c0.84798-0.02291 1.5418-0.08565 1.5418-0.13942 0-0.21144-6.1368-1.1295-7.6182-1.1397-0.67679-0.0047-0.92459-0.03915-0.72553-0.10104 0.18429-0.0573 0.0191-0.07236-0.42324-0.03858-0.53668 0.04098-0.66258 0.02382-0.48369-0.06594 0.19949-0.10009 0.1772-0.11005-0.12727-0.05683-0.20303 0.03549-1.0465-0.02525-1.8743-0.13496-0.82786-0.10971-2.1854-0.23935-3.0167-0.28808-1.4063-0.08244-1.4402-0.0899-0.48701-0.1072 0.96521-0.01751 1.0089-0.02951 0.75514-0.20727-0.23825-0.16688-0.56621-0.17352-2.8384-0.05744-3.9825 0.20344-8.5547 0.73223-8.5547 0.98937 0 0.05677 0.58497 0.11302 1.2999 0.125 1.2864 0.02156 1.2905 0.02254 0.39301 0.09455-0.72756 0.05837-0.82323 0.08682-0.4837 0.14384 0.25455 0.04274 0.17203 0.05304-0.20707 0.02585-0.34667-0.02487-0.76492-0.10655-0.92944-0.18152-0.36795-0.16765-0.69953-0.06119-0.60189 0.19323 0.0537 0.13997 0.28497 0.19182 0.93511 0.20965l0.86375 0.02369-0.81623 0.0423c-0.89251 0.04626-0.86411 0.01087-0.73933 0.9213l0.0769 0.56103 1.1021 0.0218c0.60615 0.01199 0.83002 0.03894 0.49749 0.05988-0.33254 0.02094-0.83588 0.06889-1.1185 0.10654l-0.51393 0.06845-0.0251 1.1111-0.0251 1.1111-0.0399-1.1185-0.0399-1.1185-1.2349-0.01692-1.2349-0.01692 1.1935-0.09837c0.65644-0.0541 1.2187-0.12353 1.2494-0.15428 0.0308-0.03075 0.018-0.35978-0.0285-0.73118l-0.0844-0.67526h-0.78322c-0.60013 0-0.85511 0.05653-1.0907 0.24185-0.34399 0.27058-1.0623 0.33778-0.96945 0.09069 0.0312-0.08313 0.0952-0.27359 0.14202-0.42323l0.0852-0.27208-3.1824-0.02715-3.1824-0.02715 3.144-0.06662c1.7292-0.03665 2.7359-0.08138 2.2371-0.09941-2.0866-0.07542-3.5751-0.10756-5.7665-0.1245l-2.3202-0.01794 0.0671-0.45346c0.37344-2.5223 0.88592-4.7777 1.1756-5.1739 0.13295-0.18181 0.38422-0.19294 2.5585-0.1133l2.4111 0.08831 0.42323 0.44563c0.42679 0.44938 3.5277 4.9775 3.659 5.3431 0.0389 0.10828 0.01 0.25793-0.0649 0.33254-0.10026 0.10026 0.06 0.13566 0.61407 0.13566 0.41234 0 0.74672-0.04081 0.74306-0.09069-0.004-0.04989-0.96954-1.5327-2.1464-3.2952-1.7119-2.5638-2.2244-3.2467-2.563-3.4159-0.3684-0.18404-0.80784-0.21145-3.3919-0.21162-2.2077-0.000121-3.0104 0.03856-3.1315 0.15097-0.11754 0.10909-0.14002 0.11057-0.0808 0.0053 0.0624-0.11094-0.43981-0.15436-2.0986-0.18138-1.1993-0.01955-2.1806 0.0052-2.1805 0.05516 0.00008 0.04989-0.10743 0.09069-0.23891 0.09069-0.13149 0-0.32265 0.12757-0.42481 0.2835-0.29376 0.44832-0.90364 2.196-1.2725 3.6465l-0.33828 1.3302-3.488 0.06326-3.488 0.06326 3.4161 0.02743 3.4161 0.02743-0.002 0.27208c-0.004 0.61064 0.29692 0.59048-7.3241 0.49028-6.5613-0.08627-6.9046-0.10059-4.3431-0.18126 3.8707-0.12189 4.7765-0.19975 4.7765-0.41058 0-0.21924-0.16006-0.21855-4.1718 0.01815-1.7957 0.10595-3.3594 0.24288-3.4749 0.30428-0.11549 0.0614-1.1222 0.11239-2.2371 0.1133-1.1149 0.000967-2.1602 0.03726-2.3229 0.08078-0.27399 0.07328-0.27845 0.08593-0.0605 0.17124 0.21916 0.08576 0.21693 0.09269-0.0324 0.10061-0.29802 0.0095-0.4657 0.25103-0.55147 0.7945l-0.0572 0.36277 2.7358-0.01213c2.6325-0.01168 2.6673-0.0088 0.92197 0.07509-0.99762 0.04797-2.1353 0.09424-2.5281 0.10283l-0.71425 0.01561 0.0762 1.9348c0.0729 1.8518 0.0663 1.9348-0.15531 1.9348-0.1273 0-0.2651 0.05442-0.30621 0.12092-0.0466 0.07539 0.23528 0.1288 0.74864 0.14183 0.66089 0.01678 0.56089 0.03629-0.50679 0.09888-0.73158 0.04289-1.4934 0.15281-1.6929 0.24427l-0.36277 0.1663 0.34038 0.04592c0.1872 0.02526 0.63736-0.04749 1.0003-0.16167 0.36299-0.11417 0.69502-0.17254 0.73786-0.12971 0.0428 0.04283-0.0432 0.07787-0.19127 0.07787-0.14802 0-0.24005 0.04706-0.20451 0.10457 0.0356 0.05751 0.92302 0.14124 1.9722 0.18606 1.0491 0.04482 2.2084 0.11226 2.5761 0.14988 0.61675 0.06307 0.67011 0.04864 0.68779-0.18606 0.0139-0.18381-0.0542-0.25779-0.24539-0.2665-0.2428-0.01107-0.2397-0.01906 0.0377-0.09727 0.26634-0.07508 0.31143-0.04127 0.37901 0.28413 0.0422 0.20314 0.0545 0.07639 0.0273-0.28167-0.0372-0.48915 0.0136-0.78132 0.20426-1.1751 0.23456-0.48454 1.0827-1.258 1.3783-1.257 0.0701 0.000242-0.0359 0.10218-0.23543 0.22652-0.72747 0.45334-1.2844 1.251-1.2612 1.8064 0.005 0.11206 0.0876-0.01229 0.18428-0.27635 0.23043-0.62947 0.70714-1.125 1.3792-1.4338 0.42536-0.19542 0.78176-0.24905 1.6325-0.24564 1.8188 0.0073 3.0482 0.53525 3.7635 1.6162 0.17703 0.26751 0.55595 1.2745 0.84204 2.2377 0.56601 1.9057 0.75468 2.3727 0.98945 2.4492 0.0989 0.03223 0.0715-0.09355-0.0772-0.35384-0.32504-0.56906-0.65614-1.6479-0.57258-1.8657 0.0399-0.10407 0.0187-0.15126-0.0493-0.10929-0.0657 0.04063-0.11954-0.02586-0.11954-0.14776 0-0.20937 0.15901-0.2203 2.8719-0.19728 2.3759 0.02015 2.6944 0.0043 1.8441-0.09174-0.56531-0.06386-1.8819-0.10072-2.9258-0.08193l-1.898 0.03417-0.13297-0.52874c-0.2793-1.1107-0.96163-2.0658-1.885-2.6384-0.14436-0.08953-0.17082-0.14674-0.0699-0.15115 0.0893-0.004 0.50105 0.33298 0.91503 0.74866 0.61976 0.62231 0.79396 0.89004 0.98642 1.5161 0.20625 0.67092 0.26218 0.74975 0.47558 0.67045 0.13302-0.04943 1.4562-0.1079 2.9403-0.12993l2.6985-0.04005-0.0797-0.9327c-0.0438-0.51298-0.0882-1.5175-0.0986-2.2322l-0.0189-1.2995-0.90693-0.02255-0.90692-0.02256 0.96739-0.07632c0.53206-0.04198-0.44742-0.06602-2.1766-0.05345-2.0283 0.01475-2.7149-0.0066-1.9348-0.06025 0.73185-0.05031-0.22289-0.07429-2.4185-0.06075-2.2364 0.01379-3.1407-0.0094-2.358-0.06042 0.72394-0.04721-0.44555-0.07015-2.7208-0.05336-3.7454 0.02763-3.8642 0.02214-1.9348-0.08931 1.4066-0.08126 3.995-0.07396 8.1979 0.02313 3.3782 0.07803 6.16 0.12163 6.1818 0.09687s0.0772-0.30349 0.12297-0.6194l0.0834-0.57438-1.1864-0.02241-1.1864-0.02241 1.3906-0.06857c0.76484-0.03771 1.3982-0.06843 1.4076-0.06828 0.009 0.000121-0.036 0.34499-0.10061 0.7663-0.0647 0.4213-0.0995 0.77954-0.0774 0.79609s1.1829-0.0017 2.5795-0.04047l2.5394-0.07055 0.0813-0.48369 0.0813-0.48369-0.024 0.51392-0.024 0.51392h0.50752c0.46726 0 0.51392-0.02921 0.58839-0.36826 0.0806-0.36696 0.0835-0.36813 0.82584-0.33254l0.74495 0.03572-0.0158 0.37438-0.0158 0.37438 2.2529 0.07874c1.2391 0.04331 2.7426 0.08696 3.3412 0.09701l1.0883 0.01828-1.2697 0.10266c-0.69833 0.05646-2.8069 0.06892-4.6858 0.02768l-3.4161-0.07499-0.0257 1.3148-0.0257 1.3148-0.0389-1.2999-0.0389-1.2999-0.50982-0.01816-0.50984-0.01816 0.48369-0.08918c0.36332-0.06698 0.28809-0.07773-0.3023-0.04316-0.43231 0.02531-1.5614 0.04641-2.5092 0.04688l-1.7232 0.000886v1.1302c0 0.62161 0.0354 1.6283 0.0786 2.2371 0.0634 0.89252 0.11605 1.1096 0.27208 1.1209 0.1688 0.01224 0.1678 0.02084-0.008 0.06735-0.11072 0.02933-0.2285 0.12414-0.26172 0.21071-0.0902 0.23512 4.9871 0.40422 5.1316 0.1709 0.0808-0.13046-0.30341-0.17285-2.0427-0.22538l-2.1422-0.0647 2.1766-0.04032c1.1971-0.02217 2.231-0.02074 2.2975 0.0031 0.0665 0.02392 1.0188 0.07493 2.1162 0.11337l1.9952 0.06989-2.1125 0.01096c-1.4083 0.0073-2.1272 0.0549-2.1565 0.1428-0.0285 0.08556 0.24611 0.13779 0.78236 0.14878 0.45447 0.0093 1.9418 0.05757 3.3052 0.10725 2.3011 0.08383 2.2367 0.0869-0.89757 0.0428-1.8571-0.02613-3.3455-0.01655-3.3077 0.02128 0.0862 0.08615 13.173 0.4368 13.255 0.35514 0.0328-0.03284-0.36654-0.05972-0.88751-0.05972-0.52098 0-0.92-0.02723-0.88673-0.06051 0.0333-0.03329 0.70849-0.06457 1.5004-0.06954 1.0126-0.0064 1.3768-0.04436 1.2272-0.1281-0.11703-0.06549-0.30702-0.10956-0.42221-0.09792-0.11519 0.01163-0.53593 0.0055-0.93497-0.01364l-0.72554-0.03479 0.786-0.07243c0.51079-0.04707 0.92878-0.0186 1.1938 0.08133 0.56163 0.21179 0.55313 0.21611 0.70833-0.36016 0.1891-0.70208 0.78461-1.5643 1.352-1.9575 0.54553-0.37806 1.457-0.67884 1.995-0.65836 0.27484 0.01046 0.21464 0.04083-0.22741 0.11473-0.33065 0.05528-0.8297 0.18778-1.109 0.29444-0.88073 0.33636-1.852 1.6151-2.0205 2.6601-0.0322 0.19952-0.0734 0.90692-0.0917 1.572-0.0259 0.94212-0.0427 1.0423-0.0762 0.45346l-0.043-0.75577h-0.47793c-0.45564 0-0.47859 0.01832-0.49223 0.393-0.008 0.21615-0.058 0.55625-0.11127 0.75577-0.063 0.23601-0.0744 0.10457-0.0324-0.37615l0.0645-0.73892-1.8578-0.07621c-1.0218-0.04191-3.5991-0.10505-5.7273-0.14029-2.1282-0.03525-4.2913-0.0939-4.8067-0.13034l-0.93715-0.06625-0.0194 0.40131-0.0193 0.40131-0.0488-0.393-0.0488-0.393-2.2596-0.0017c-1.2428-0.000968-2.3897-0.03646-2.5487-0.079-0.27773-0.07433-0.28575-0.05894-0.20555 0.39465 0.0459 0.2596 0.13936 0.64884 0.2077 0.86499 0.12282 0.38851 0.13346 0.39324 0.93109 0.41387l0.80686 0.02087-0.78601 0.06982c-0.90733 0.0806-0.75778 0.23504 0.36277 0.37464l0.66508 0.08286-0.63485 0.01778c-1.1117 0.03113-0.70415 0.25896 0.4837 0.2704 0.6152 0.006 3.7577 0.10685 6.9833 0.22428 6.0216 0.21922 10.179 0.27856 8.9483 0.12771zm-3.471-0.21091c0.51847-0.02272 1.3347-0.02258 1.8138 0.000363 0.47913 0.02289 0.0549 0.04148-0.94269 0.04131-0.99762-0.000121-1.3896-0.0189-0.87116-0.04162zm-3.7486-0.12092c0.51847-0.02273 1.3347-0.02258 1.8138 0.000362 0.47914 0.02289 0.0549 0.04148-0.94269 0.04132-0.99761-0.000121-1.3896-0.0189-0.87116-0.04162zm-3.7486-0.12092c0.51847-0.02272 1.3347-0.02258 1.8138 0.000363 0.47914 0.0229 0.0549 0.04149-0.94268 0.04132-0.99762-0.000121-1.3896-0.0189-0.87117-0.04162zm-3.7486-0.12092c0.51847-0.02272 1.3347-0.02258 1.8138 0.000363 0.47914 0.02289 0.0549 0.04148-0.94268 0.04131-0.99762-0.00012-1.3896-0.0189-0.87116-0.04162zm7.4917-0.24175c0.51544-0.02267 1.3589-0.02267 1.8743 0 0.51544 0.02267 0.0937 0.04121-0.93716 0.04121s-1.4526-0.01854-0.93715-0.04121zm-3.7486-0.12092c0.51544-0.02267 1.3589-0.02267 1.8743 0 0.51544 0.02267 0.0937 0.04121-0.93715 0.04121-1.0309 0-1.4526-0.01854-0.93716-0.04121zm-3.1997-0.12141 1.4861-0.03807-0.0622-0.4497-0.0622-0.4497 0.12821 0.44643c0.0998 0.34759 0.19955 0.45736 0.45041 0.4958 0.1772 0.02716-0.52125 0.04577-1.5521 0.04135-1.7112-0.0073-1.745-0.01134-0.38823-0.0461zm9.1312-2.5392c0.6519-0.02178 1.6858-0.02169 2.2975 0.000242 0.61174 0.0219 0.0784 0.03973-1.1853 0.03961-1.2636-0.000116-1.7642-0.01803-1.1123-0.03982zm1.3843-0.36233c0.48219-0.02295 1.2712-0.02295 1.7534 0 0.48218 0.02295 0.0877 0.04173-0.87669 0.04173-0.96437 0-1.3589-0.01878-0.8767-0.04173zm-3.8638-0.1212c0.55186-0.02246 1.4225-0.02233 1.9348 0.000243 0.51228 0.02261 0.0608 0.04099-1.0034 0.04083-1.0641-0.000121-1.4833-0.01865-0.93142-0.04111zm23.423-0.03695c0.23522-0.09515 1.6022-0.15922 1.5015-0.07037-0.0277 0.02445-0.4313 0.0723-0.89685 0.10633-0.48436 0.03541-0.743 0.02002-0.60462-0.03596zm-15.375-1.0218c-0.00036-0.59857 0.0201-0.85868 0.0455-0.57803s0.0256 0.77039 0.00072 1.0883c-0.025 0.31792-0.0457 0.0883-0.0461-0.51028zm14.186 0.94723c-0.0443-0.04434-0.0806-0.69732-0.0806-1.4511v-1.3705h0.41029c0.51616 0 0.5571 0.10664 0.5571 1.4511 0 0.58769-0.0331 1.1546-0.0734 1.2598-0.0729 0.19002-0.65483 0.26919-0.81336 0.11066zm0.64492-1.4309v-1.2697h-0.30231-0.30231v1.2697 1.2697h0.30231 0.30231v-1.2697zm0.4409 1.0907c-0.043-0.11198-0.0781-0.71027-0.0781-1.3295 0-1.306-0.0317-1.2727 1.2123-1.2727 0.72032 0 0.85454 0.03543 1.018 0.26875 0.10353 0.14781 0.18198 0.43349 0.17433 0.63485-0.0137 0.36-0.0153 0.35898-0.0976-0.06124-0.11481-0.58596-0.21836-0.72143-0.55139-0.72143-0.27897 0-0.2814 0.009-0.1 0.37271 0.26183 0.52486 0.16746 1.7691-0.15291 2.0159-0.2177 0.16774-0.20924 0.17396 0.12914 0.09495 0.49986-0.1167 0.64398-0.2627 0.69988-0.70895l0.0481-0.384 0.0193 0.37426c0.0307 0.59433-0.32596 0.82329-1.3643 0.87572-0.73796 0.03727-0.89107 0.01178-0.95669-0.15924zm1.4692-1.1322c0.0443-1.0997-0.0589-1.2528-0.81116-1.2039l-0.55475 0.03605-0.0359 0.89561c-0.0487 1.2152-0.0332 1.2406 0.72986 1.1967l0.6362-0.0366 0.0358-0.88788zm1.2599 1.2118c-0.11462-0.07498-0.14638-0.44778-0.12092-1.4194 0.0338-1.2898 0.041-1.3195 0.33684-1.402 0.41774-0.11653 5.0152-0.63555 5.6834-0.64161l0.54416-0.0049 0.0343 1.3014 0.0343 1.3014-0.32657 0.12416c-0.17961 0.06829-0.69249 0.13566-1.1397 0.14972-0.44725 0.01406-0.78471 0.07277-0.74992 0.13047 0.0348 0.0577-0.157 0.08391-0.4262 0.05824-0.28053-0.02676-0.45995 0.001-0.42036 0.0651 0.041 0.0664-0.22078 0.08425-0.64502 0.04396-0.39275-0.0373-0.60527-0.02646-0.47225 0.02409 0.16213 0.06161-0.077 0.12068-0.72554 0.1792-0.53206 0.04802-1.0762 0.11085-1.2092 0.13964-0.13302 0.02879-0.3118 0.0066-0.3973-0.04934zm0.42502-0.0947c-0.0401-0.04018-0.14448-0.04448-0.23177-0.0095-0.0965 0.0386-0.0678 0.06726 0.073 0.07305 0.12747 0.0052 0.19889-0.02333 0.15871-0.06351zm1.0883-0.12092c-0.0402-0.04018-0.14448-0.04448-0.23177-0.0095-0.0965 0.0386-0.0678 0.06726 0.073 0.07305 0.12748 0.0052 0.1989-0.02333 0.15872-0.06351zm-0.12902-0.56179c-0.0335-0.08313-0.061-0.01512-0.061 0.15115s0.0274 0.23429 0.061 0.15115c0.0335-0.08313 0.0335-0.21917 0-0.30231zm3.6524-1.2092c-0.0125-0.86551-0.0337-0.99417-0.0935-0.56876-0.0758 0.53858-0.034 1.6873 0.0614 1.6873 0.0265 0 0.041-0.50334 0.0322-1.1185zm-4.7326 0.92456c-0.0402-0.04018-0.14447-0.04448-0.23177-0.0095-0.0965 0.0386-0.0678 0.06726 0.073 0.07305 0.12748 0.0052 0.1989-0.02333 0.15872-0.06351zm1.2343-0.50133c-0.006-0.50337-0.0224-0.53736-0.12716-0.27492-0.11016 0.27608-0.0584 0.8493 0.0767 0.8493 0.032 0 0.0547-0.25847 0.0505-0.57438zm-0.37891 0.09069c0.0257-0.33718-0.00024-0.36176-0.36728-0.34846l-0.39492 0.01431 0.36277 0.09231c0.32382 0.0824 0.30109 0.09384-0.21161 0.10662-0.41317 0.01029-0.57439 0.06327-0.57439 0.18874 0 0.11734 0.16822 0.18958 0.51392 0.22072 0.28267 0.02546 0.54317 0.05579 0.5789 0.06741 0.0357 0.01162 0.0774-0.14212 0.0926-0.34164zm2.311-0.33254c-0.009-0.61247-0.0236-0.65209-0.12125-0.33254-0.10014 0.3277-0.0451 1.0278 0.0808 1.0278 0.028 0 0.0462-0.31289 0.0405-0.69531zm-0.70003 0.33254c0.22841 0 0.34765-0.06221 0.34765-0.18138 0-0.20335-0.0909-0.21402-0.89004-0.10449-0.38183 0.05233-0.56104 0.13442-0.56104 0.25696 0 0.13718 0.09 0.16206 0.37789 0.10449 0.20783-0.04157 0.53433-0.07558 0.72554-0.07558zm1.7534-0.24185c0.3305 0 0.15713-0.33437-0.21161-0.40812-0.52228-0.10446-0.84025-0.07368-0.46858 0.04535 0.29002 0.09288 0.29126 0.09731 0.0302 0.10887-0.16558 0.0073-0.27207 0.08896-0.27207 0.20855 0 0.15559 0.0787 0.18076 0.37788 0.12092 0.20783-0.04156 0.4527-0.07558 0.54415-0.07558zm1.1337-0.13279c-0.13761-0.09793-0.0763-0.11462 0.25391-0.06916 0.40497 0.05575 0.43444 0.0382 0.42323-0.2521-0.006-0.17162-0.0937-0.33426-0.19345-0.36142-0.16123-0.0439-0.16123-0.03385 0 0.0905 0.14238 0.10981 0.0643 0.12594-0.36277 0.07501-0.3706-0.04419-0.46701-0.03074-0.30231 0.04219 0.23132 0.10242 0.23001 0.10745-0.0302 0.11558-0.49283 0.0154-0.2975 0.4592 0.21162 0.48079 0.16123 0.0069 0.16123-0.0067 0-0.12139zm-3.4161-0.07149c-0.11638-0.03042-0.30684-0.03042-0.42323 0s-0.0211 0.0553 0.21161 0.0553c0.23278 0 0.32801-0.02489 0.21162-0.0553zm0.78831-0.11688c-0.0819-0.03312-0.24512-0.03514-0.36277-0.0045-0.11766 0.03066-0.0507 0.05776 0.14884 0.06023 0.19953 0.0025 0.29579-0.02262 0.21393-0.05575zm-1.6454-0.67645c-0.0335-0.08313-0.061-0.01512-0.061 0.15115s0.0274 0.23429 0.061 0.15115c0.0335-0.08313 0.0335-0.21917 0-0.30231zm-32.932 1.7836c0.00048-0.46555 0.0224-0.64119 0.0485-0.3903 0.0262 0.25089 0.0257 0.6318-0.00081 0.84646-0.0267 0.21467-0.0481 0.0094-0.0476-0.45616zm-21.413 0.57619c0.31592-0.02491 0.83286-0.02491 1.1488 0 0.31592 0.02491 0.0574 0.04529-0.57438 0.04529-0.63183 0-0.8903-0.02038-0.57439-0.04529zm-2.2975-0.12092c0.31592-0.02491 0.83286-0.02491 1.1488 0 0.31592 0.02491 0.0574 0.04529-0.57438 0.04529-0.63183 0-0.8903-0.02038-0.57439-0.04529zm1.4511-0.24232c0.38242-0.024 1.0082-0.024 1.3906 0 0.38242 0.024 0.0696 0.04363-0.69531 0.04363-0.76484 0-1.0777-0.01963-0.69531-0.04363zm49.584-1.2408c0-0.36579 0.0226-0.51544 0.0504-0.33254 0.0277 0.1829 0.0277 0.48218 0 0.66508s-0.0504 0.03325-0.0504-0.33254zm-8.1381-0.36844c-0.32549-0.054-0.0825-0.06484 0.60462-0.02697 0.63182 0.03481 1.1714 0.0836 1.1992 0.10843 0.083 0.07438-1.2187 0.0156-1.8038-0.08145zm8.2538-0.47802c0.0272-0.09976 0.15378-0.19403 0.28128-0.20948 0.16289-0.01974 0.17789-0.0053 0.0505 0.04836-0.0998 0.04206-0.22634 0.13632-0.28129 0.20948-0.0642 0.08556-0.0822 0.0683-0.0505-0.04836zm-41.931-0.2029c-0.41236-0.11791-1.0083-0.1581-1.8743-0.12637-0.94162 0.0345-1.1603 0.01718-0.84646-0.06701 0.59751-0.16026 2.6339-0.03818 3.144 0.18849 0.52014 0.23112 0.37387 0.23281-0.42323 0.0049zm42.625-0.15987c0.12963-0.08377-0.0256-0.12355-0.54415-0.1394l-0.72554-0.02218 0.72554-0.08665c0.46384-0.0554 0.0931-0.07335-1.0278-0.04977-1.1027 0.0232-1.5515 0.0019-1.2092-0.05722 0.35012-0.06055-0.038-0.0812-1.0883-0.05792-1.3935 0.03089-1.5086 0.02053-0.786-0.07077 0.46556-0.05882 1.7322-0.07459 2.8147-0.03503 1.7925 0.06551 1.9614 0.05421 1.8921-0.12648-0.0418-0.10913-0.2746-0.24929-0.51716-0.31147s-0.54986-0.14087-0.68288-0.17486c-0.13301-0.034 0.0847-0.0396 0.4837-0.01245 0.68833 0.04683 0.70073 0.04298 0.24184-0.07511-0.26603-0.06846-0.70135-0.09519-0.96738-0.0594s-0.94623-0.0048-1.5115-0.09031l-1.0278-0.15538 0.62055-0.08652c0.60046-0.08372 2.5964 0.14267 3.544 0.40198 0.36662 0.10032 2.1331-0.07797 5.0861-0.51335 0.17449-0.02572-0.10558-0.11452-0.66242-0.21002-0.5306-0.091-0.89717-0.18796-0.8146-0.21549 0.0826-0.02752 0.57655 0.03636 1.0977 0.14196 0.52118 0.1056 1.3775 0.20162 1.9029 0.21336l0.95532 0.02135-0.81595 0.06934-0.81595 0.06934 0.23448 0.38428c0.15167 0.24856 0.35444 0.40232 0.57411 0.43534 0.20857 0.03136 0.12966 0.05253-0.20454 0.05487-0.29929 0.0021-0.7074-0.03773-0.90692-0.0885-0.36205-0.09212-0.36187-0.09234 0.0881-0.10662 0.43286-0.01374 0.44549-0.02611 0.31616-0.30996-0.0741-0.16261-0.20151-0.32129-0.28315-0.35262-0.10369-0.03979-4.7416 0.52891-5.2301 0.64132-0.0166 0.0038-0.0302 0.11332-0.0302 0.24332 0 0.23483 0.0362 0.24846 1.0883 0.40986 0.16627 0.02551 0.0166 0.05379-0.33254 0.06284-0.34916 0.0091-0.63485 0.07089-0.63485 0.13739 0 0.16441 0.51613 0.15083 2.2975-0.06046 0.83135-0.09861 1.6748-0.17316 1.8743-0.16568 0.19953 0.0075-0.45346 0.11278-1.4511 0.23398-2.02 0.24542-3.8624 0.30382-3.5672 0.11308zm0.72554-0.05621c0-0.03092-0.10883-0.11445-0.24184-0.18564-0.19303-0.10331-0.24185-0.09196-0.24185 0.05621 0 0.10502 0.10502 0.18564 0.24185 0.18564 0.13301 0 0.24184-0.0253 0.24184-0.05621zm-0.12092-0.66933c0-0.17825-0.0806-0.24185-0.30657-0.24185-0.26908 0-0.29074 0.02956-0.17712 0.24185 0.0712 0.13302 0.20914 0.24185 0.30656 0.24185 0.0974 0 0.17713-0.10883 0.17713-0.24185zm-2.2068-0.68797c-0.11638-0.03042-0.30684-0.03042-0.42323 0-0.11638 0.03042-0.0212 0.0553 0.21162 0.0553 0.23277 0 0.328-0.02489 0.21161-0.0553zm-0.84646-0.12092c-0.11639-0.03042-0.30684-0.03042-0.42323 0s-0.0212 0.0553 0.21161 0.0553c0.23278 0 0.32801-0.02489 0.21162-0.0553zm4.1416 1.0406c-0.3761-0.06545-0.13334-0.08333 0.786-0.0579 0.73158 0.02024 1.1397 0.000887 0.90692-0.04311-0.32467-0.0613-0.15571-0.09888 0.72554-0.16136 0.63182-0.0448 1.3664-0.04101 1.6325 0.0084 0.40205 0.0747 0.21834 0.11488-1.0883 0.23802-1.6953 0.15978-2.1228 0.16208-2.9626 0.01593zm3.1765-0.19014c-0.0819-0.03312-0.24511-0.03514-0.36276-0.0045-0.11766 0.03066-0.0507 0.05776 0.14884 0.06023 0.19953 0.0025 0.29579-0.02262 0.21392-0.05575zm1.1162 0.19468c0.33254-0.05179 0.79507-0.09167 1.0278-0.08861 0.34238 0.0045 0.30774 0.02356-0.18139 0.09974-0.33254 0.05179-0.79507 0.09167-1.0278 0.08861-0.34238-0.0045-0.30774-0.02356 0.18139-0.09974zm-16.99-0.16623-2.9626-0.13146 1.386-0.09833c1.6403-0.11638 8.9412 0.16759 7.6228 0.29648-1.0712 0.10472-2.5511 0.0884-6.0462-0.06669zm3.9624-0.03553c-0.18171-0.02759-0.5082-0.02814-0.72554-0.0012-0.21734 0.02691-0.0687 0.04949 0.33037 0.05017 0.39905 0.000725 0.57687-0.02134 0.39517-0.04893zm-2.7861-0.12277c-0.25089-0.02618-0.6318-0.02574-0.84646 0.000967-0.21467 0.02672-0.009 0.04813 0.45616 0.0476 0.46555-0.000484 0.64119-0.0224 0.3903-0.04857zm17.537 0.12383c0.14965-0.02882 0.39452-0.02882 0.54416 0s0.0273 0.05241-0.27208 0.05241c-0.29928 0-0.42172-0.02358-0.27208-0.05241zm1.0897-0.12111c0.15042-0.02892 0.36808-0.02783 0.48369 0.0024 0.11562 0.03026-0.007 0.05393-0.27348 0.05259-0.26603-0.0014-0.36063-0.0261-0.21021-0.05503zm0.90552-0.11876c0.11639-0.03042 0.30684-0.03042 0.42323 0s0.0212 0.0553-0.21162 0.0553c-0.23278 0-0.328-0.02489-0.21161-0.0553zm-29.294-0.16452c0.63183-0.0483 1.8018-0.08549 2.5998-0.08264l1.4511 0.0052-1.0278 0.0902c-0.56531 0.04961-1.7352 0.0868-2.5998 0.08264l-1.572-0.0076 1.1488-0.08783zm30.14 0.0436c0.11639-0.03042 0.30684-0.03042 0.42323 0s0.0212 0.0553-0.21162 0.0553c-0.23277 0-0.328-0.02489-0.21161-0.0553zm-16.355-0.69244-1.0278-0.13846 0.69988-0.08862c0.413-0.0523 1.1565-0.02734 1.8138 0.06088 1.0253 0.13759 1.0754 0.15643 0.63029 0.23647-0.60671 0.10909-0.84298 0.10124-2.1162-0.07027zm1.5418-0.0331c-0.11638-0.03042-0.30684-0.03042-0.42323 0-0.11638 0.03042-0.0212 0.0553 0.21162 0.0553 0.23277 0 0.328-0.02489 0.21161-0.0553zm-0.96738-0.12092c-0.11639-0.03042-0.30684-0.03042-0.42323 0s-0.0212 0.0553 0.21161 0.0553c0.23278 0 0.32801-0.02489 0.21162-0.0553zm-22.378 0.12618c-0.16613-0.16613-0.08-0.42272 0.12848-0.38258 0.11639 0.02241 0.21161 0.1171 0.21161 0.2104 0 0.19092-0.21334 0.29892-0.34009 0.17217zm0.27963-0.16375c0-0.06651-0.0544-0.12092-0.12092-0.12092-0.0665 0-0.12093 0.05442-0.12093 0.12092 0 0.06651 0.0544 0.12092 0.12093 0.12092 0.0665 0 0.12092-0.05442 0.12092-0.12092zm24.91-0.14956c-0.89785-0.13326-1.6507-0.29051-1.673-0.34943s-0.0942-0.07396-0.15986-0.0334c-0.0656 0.04055-0.66809 0.0038-1.3388-0.08169-0.85748-0.10928-1.1511-0.18548-0.98891-0.25667 0.15466-0.06789 0.0917-0.07967-0.19119-0.03574-0.5689 0.08836-1.9551-0.06843-1.6317-0.18456 0.13683-0.04913-0.0976-0.08353-0.5463-0.08013-0.4323 0.0032-1.2485-0.01484-1.8138-0.04025l-1.0278-0.0462 0.786-0.14864c0.4323-0.08175 1.1941-0.17302 1.6929-0.20282 0.62495-0.03732 0.73774-0.0271 0.36277 0.03292-0.29929 0.0479-0.48974 0.09947-0.42323 0.1146 0.0665 0.01512 0.0121 0.07867-0.12092 0.14122-0.17772 0.08357-0.11811 0.09524 0.22482 0.04401 0.6206-0.09271 3.8202 0.31959 3.5101 0.45231-0.14127 0.06047-0.0439 0.07329 0.2555 0.03366 0.43733-0.05787 5.2119 0.70184 5.3635 0.85342 0.10191 0.10191-0.60525 0.03596-2.28-0.21261zm-2.3303-0.52812c-0.0402-0.04018-0.14448-0.04447-0.23177-0.0095-0.0965 0.0386-0.0678 0.06726 0.073 0.07305 0.12748 0.0052 0.1989-0.02333 0.15872-0.06351zm-2.5973-0.3698c-0.0831-0.03354-0.21917-0.03354-0.30231 0-0.0831 0.03354-0.0151 0.06099 0.15116 0.06099 0.16627 0 0.23429-0.02745 0.15115-0.06099zm0.0302 0.92098c0.83057-0.12937 1.521-0.11906 0.786 0.01173-0.29928 0.05325-0.73461 0.09359-0.96738 0.08963-0.34608-0.0059-0.31302-0.02436 0.18138-0.10136zm-2.9626-0.17582c-0.69833-0.08063-1.0248-0.14931-0.72553-0.15263 0.29928-0.0033 1.1155 0.06289 1.8138 0.14712 0.69833 0.08423 1.0248 0.15291 0.72554 0.15263-0.29928-0.000242-1.1155-0.06649-1.8138-0.14712zm1.9348-0.06046c-0.49474-0.07691-0.50572-0.08544-0.12093-0.0938 0.23278-0.0051 0.6681 0.03437 0.96739 0.08763 0.48606 0.08649 0.49897 0.0965 0.12092 0.0938-0.23278-0.0017-0.6681-0.0411-0.96738-0.08763zm10.883 0c-0.32112-0.0676-0.35029-0.09125-0.12092-0.09804 0.16626-0.0049 0.51996 0.03608 0.786 0.0911 0.4032 0.0834 0.42332 0.09971 0.12092 0.09804-0.19952-0.0011-0.55322-0.04211-0.786-0.0911zm-15.263-0.21c0.21615-0.02682 0.56986-0.02682 0.786 0 0.21616 0.02682 0.0393 0.04877-0.393 0.04877s-0.60915-0.02195-0.393-0.04877zm2.9643 0.000726c0.18381-0.0278 0.45589-0.02706 0.60461 0.0016 0.14873 0.0287-0.002 0.05144-0.33419 0.05054-0.33254-0.000968-0.45423-0.02439-0.27042-0.05219zm10.307-0.09262c-0.46556-0.08289-0.71043-0.15465-0.54416-0.15946 0.16627-0.0048 0.71043 0.06261 1.2092 0.14982 0.49881 0.08722 0.74368 0.15897 0.54416 0.15946-0.19953 0.000483-0.74368-0.06693-1.2092-0.14982zm5.8043 0.05845c-0.32586-0.08291-0.33201-0.09254-0.0605-0.09456 0.16627-0.0012 0.43834 0.04131 0.60461 0.09456 0.23689 0.07587 0.24997 0.09633 0.0605 0.09456-0.13301-0.0012-0.40509-0.04379-0.60461-0.09456zm-17.443-0.08661c0.1829-0.02771 0.48219-0.02771 0.66508 0 0.1829 0.02771 0.0332 0.05038-0.33254 0.05038-0.36579 0-0.51543-0.02267-0.33254-0.05038zm-16.943-0.24514c-0.0493-0.81165 1.0857-5.4629 1.5104-6.1899 0.10543-0.18047 0.14624-0.20922 0.0975-0.06866-0.61586 1.7742-1.1473 3.9235-1.5399 6.2275-0.047 0.27578-0.053 0.2785-0.068 0.03102zm1.2835 0.08021c-0.13877-0.08082-0.20595-0.25648-0.19515-0.51025 0.0121-0.28442 0.0303-0.31488 0.0688-0.11491 0.0501 0.26006 0.10945 0.27312 1.3439 0.29575l1.2915 0.02367-1.2697 0.06832c-2.2737 0.12235-0.98899 0.24577 2.9022 0.2788l3.8091 0.03233-3.8695 0.02477c-2.4554 0.01572-3.9469-0.02027-4.0812-0.09849zm14.452 0.04384c0.18381-0.0278 0.45589-0.02705 0.60462 0.0016 0.14873 0.0287-0.002 0.05144-0.3342 0.05054-0.33254-0.000967-0.45423-0.02439-0.27042-0.05219zm17.321-0.03415c-0.32359-0.08234-0.33012-0.09231-0.0605-0.09231 0.16627 0 0.46556 0.04154 0.66508 0.09231 0.32359 0.08234 0.33012 0.09231 0.0605 0.09231-0.16627 0-0.46555-0.04154-0.66508-0.09231zm-7.074-0.18138c-0.49881-0.08254-0.74368-0.15303-0.54416-0.15664 0.19953-0.0036 0.7981 0.06445 1.3302 0.15126 0.53206 0.08681 0.77693 0.1573 0.54415 0.15665-0.23277-0.000605-0.83134-0.06873-1.3302-0.15126zm-13.906-0.073c0-0.20014-3.2463-4.8965-3.8477-5.5665l-0.52234-0.58185-1.8357-0.03673-1.8357-0.03673 1.8442-0.02684 1.8442-0.02684 0.46376 0.47787c0.25506 0.26283 1.1828 1.528 2.0617 2.8115 1.9912 2.9079 2.1242 3.1196 1.9603 3.1196-0.073 0-0.13279-0.06006-0.13279-0.13347zm20.106 0.04967c0.11765-0.03066 0.28089-0.02864 0.36277 0.0045 0.0819 0.03312-0.0144 0.05821-0.21393 0.05575-0.19952-0.0025-0.2665-0.02957-0.14884-0.06023zm-44.502-0.12743c0.78147-0.02106 2.0602-0.02106 2.8417 0 0.78146 0.02107 0.14208 0.0383-1.4208 0.0383s-2.2023-0.01724-1.4208-0.0383zm43.776 0.0065c0.11765-0.03066 0.28089-0.02864 0.36277 0.0045 0.0819 0.03312-0.0144 0.05821-0.21392 0.05575-0.19953-0.0025-0.26651-0.02957-0.14885-0.06023zm-50.843-0.129c1.0184-0.02025 2.6508-0.0202 3.6277 0.0001 0.97689 0.0203 0.14369 0.03686-1.8516 0.03682-1.9952-0.000055-2.7945-0.01666-1.7761-0.03691zm43.132-0.03043c-0.40718-0.0729-0.42631-0.0879-0.12092-0.0948 0.19952-0.0045 0.60764 0.03537 0.90692 0.08863 0.48823 0.08687 0.50066 0.09662 0.12092 0.0948-0.23277-0.0011-0.64089-0.04099-0.90692-0.08863zm-47.066-0.08903c0.31791-0.02499 0.80765-0.02469 1.0883 0.000725 0.28065 0.02536 0.0206 0.04581-0.57803 0.04544-0.59857-0.000363-0.8282-0.02112-0.51027-0.04611zm19.636 0.0084c-0.23561-0.23561 0.039-1.87 0.66641-3.9655 0.35129-1.1734 0.64232-1.7135 0.97066-1.8015 0.15265-0.04089 0.8959-0.07509 1.6517-0.076l1.3741-0.0016-0.0655 0.33254c-0.036 0.1829-0.23416 0.9039-0.44032 1.6022-0.20616 0.69833-0.46329 1.8138-0.5714 2.4789-0.1081 0.66508-0.24929 1.2773-0.31375 1.3604-0.12533 0.16164-3.1163 0.22613-3.2719 0.07054zm2.4161-1.5665 0.71834-0.07509 0.13906-0.86207c0.0765-0.47414 0.26894-1.3074 0.42769-1.8516l0.28863-0.98956-1.0681-0.03828c-0.58745-0.02106-1.0687-0.03828-1.0694-0.03828-0.00072 0-0.10635 0.50902-0.23472 1.1312-0.18293 0.88653-0.20285 1.1801-0.0921 1.3574 0.11465 0.18359 0.10145 0.25536-0.0701 0.38078-0.11625 0.085-0.24444 0.35843-0.28488 0.60762-0.0839 0.51694-0.0839 0.51694 1.2456 0.37798zm23.079 1.3997c-0.33254-0.0518-0.93111-0.10629-1.3302-0.12111-0.69586-0.02584-0.68103-0.03132 0.36276-0.13403 0.59857-0.05891 1.3876-0.08904 1.7534-0.06698 0.56866 0.03429 0.52483 0.04564-0.30231 0.0782l-0.96738 0.03808 0.96738 0.14918c0.53206 0.08205 0.77693 0.14956 0.54416 0.15001-0.23278 0.000484-0.69531-0.04155-1.0278-0.09334zm-20.609-0.41767c-0.0148-0.32686 0.50388-3.0548 0.55186-2.9022 0.0209 0.06651-0.0923 0.80112-0.25143 1.6325-0.1592 0.83135-0.29438 1.4027-0.30043 1.2697zm0.59585-3.1565c0-0.0623 0.11079-0.5203 0.2462-1.0178 0.28402-1.0435 0.54754-1.3346 1.188-1.3126l0.44007 0.01513-0.48369 0.07979c-0.26604 0.04389-0.5456 0.11813-0.62127 0.16499-0.0757 0.04685-0.25822 0.53469-0.40569 1.0841-0.25348 0.94435-0.36366 1.2432-0.36366 0.98637zm30.17 13.629c3.7915-0.5177 7.2611-1.1646 7.7681-1.4483 0.12195-0.06825 0.74463-1.3329 0.75646-1.5364 0.00036-0.0053-0.3571 0.06391-0.79424 0.15381-4.4892 0.92319-8.0751 1.4171-11.858 1.6332l-2.5556 0.14602 0.15506 0.42891c0.0853 0.2359 0.20841 0.56495 0.27361 0.73122l0.11854 0.30231 2.1006-0.0733c1.1553-0.04032 2.9712-0.19218 4.0354-0.33748zm-2.765-0.22808c-0.0431-0.06976-0.0267-0.26278 0.0364-0.42893 0.10163-0.26732 0.20959-0.31214 0.93801-0.38942 1.4487-0.1537 1.5445-0.14461 1.5865 0.15061 0.0266 0.18677 0.0982 0.24612 0.24185 0.20033 0.11224-0.03579 0.0403 0.0459-0.15984 0.18153-0.42245 0.28626-2.5036 0.51138-2.643 0.28588zm1.8883-0.22326c0.352-0.05127 0.45346-0.12053 0.45346-0.30954 0-0.22913-0.0517-0.23869-0.87669-0.16208-1.1576 0.1075-1.2999 0.15635-1.2999 0.44632 0 0.25874 0.1094 0.26035 1.7232 0.0253zm1.4813-0.40139c0.373-0.10126 1.2287-0.1627 1.1387-0.08177-0.0277 0.02493-0.37687 0.07568-0.77592 0.11279-0.47709 0.04436-0.60131 0.03374-0.36277-0.03101zm1.6929-0.25495c0.26604-0.05503 0.64694-0.09692 0.84647-0.09311 0.31559 0.006 0.29986 0.01994-0.12093 0.10699-0.26603 0.05503-0.64694 0.09693-0.84646 0.09311-0.31559-0.006-0.29986-0.01995 0.12092-0.10699zm2.1162-0.29919c1.1752-0.20624 1.6251-0.19687 0.60462 0.01259-0.4323 0.08873-0.94925 0.158-1.1488 0.15394-0.19953-0.004 0.0454-0.079 0.54415-0.16653zm1.5416-0.0064c-0.0389-0.0389-0.0183-0.22126 0.0459-0.40523 0.0962-0.27613 0.22641-0.35919 0.74589-0.47607 0.34612-0.07787 0.74423-0.17197 0.8847-0.20913 0.31067-0.08217 0.44923 0.19493 0.29729 0.59454-0.0788 0.20741-0.26404 0.31431-0.73137 0.42218-0.68245 0.15753-1.1319 0.18419-1.2424 0.07371zm1.3908-0.30339c0.32946-0.08638 0.45346-0.18374 0.45346-0.35607 0-0.27741-0.0969-0.28557-0.90693-0.07634-0.48304 0.12478-0.61279 0.21258-0.64531 0.43664-0.0442 0.3046-0.0797 0.30474 1.0988-0.0043zm-0.29334 1.8409c0.0962-0.061 0.14448-0.26498 0.12092-0.51108-0.0422-0.44136-0.24685-0.55233-0.7743-0.41994-0.23605 0.05924-0.29275 0.1511-0.29275 0.47425 0 0.22042 0.0363 0.43705 0.0806 0.48139 0.11309 0.11309 0.67346 0.09716 0.86551-0.02461zm-44.171-0.34824c-0.0449-0.11639-0.13975-0.45648-0.21083-0.75577-0.0711-0.29928-0.14731-0.61217-0.1694-0.69531-0.0306-0.11526-0.68711-0.15115-2.7647-0.15115-1.9952 0-2.7246-0.03776-2.7246-0.14108 0-0.07759-0.0273-0.11373-0.0608-0.0803-0.0808 0.0808 0.37811 1.4037 0.60938 1.7567 0.18119 0.27654 0.20132 0.27854 2.7925 0.27854 2.4362 0 2.6046-0.01409 2.5284-0.21162zm-14.455-1.777c0-0.66104 0.0974-0.63584-2.8824-0.74563l-2.2173-0.0817 0.0407 0.28037c0.0359 0.24725 0.14787 0.29923 0.94765 0.44 0.4988 0.0878 1.4783 0.26366 2.1766 0.3908 0.69833 0.12714 1.4193 0.23557 1.6022 0.24094 0.3141 0.0092 0.33254-0.01989 0.33254-0.52478zm-5.3206-0.01561c0-0.03656-0.0776-0.21655-0.17247-0.39999-0.14763-0.28548-0.23266-0.3265-0.59027-0.28475-0.35828 0.04182-0.40844 0.08589-0.35206 0.3093 0.0362 0.14329 0.12493 0.3005 0.19727 0.34936 0.15252 0.10302 0.91753 0.12476 0.91753 0.02608zm56.592-0.29259c1.2304-0.14241 3.1621-0.41906 4.2928-0.61477 1.1306-0.19572 2.5726-0.44132 3.2045-0.54579 1.2921-0.21363 1.5146-0.27106 1.4193-0.3663-0.0365-0.03651-0.82729 0.0736-1.7573 0.24469-0.92999 0.17109-1.7922 0.30606-1.9159 0.29993-0.18569-0.0092 1.0988-0.27234 3.1911-0.65371 0.21615-0.0394 0.393-0.1293 0.393-0.19978 0-0.1503-0.42986-0.09937-2.0557 0.24355-2.5262 0.53284-8.015 1.2435-10.724 1.3885-1.4754 0.07897-2.7224 0.18348-2.7712 0.23224s0.50538 0.09931 1.2314 0.11233l1.3201 0.02367-1.2092 0.08111c-0.88252 0.0592-0.62114 0.07194 0.96738 0.04718 1.2088-0.01884 3.1713-0.14905 4.4137-0.29285zm-3.7184 0.02913c0.24941-0.02609 0.65752-0.02609 0.90692 0 0.24941 0.02609 0.0454 0.04743-0.45346 0.04743-0.49881 0-0.70286-0.02135-0.45346-0.04743zm2.9324-0.22565c0.8646-0.09126 2.4895-0.30587 3.6109-0.47692s2.062-0.28789 2.0903-0.25964c0.13079 0.13079-5.8641 0.9386-6.7896 0.91488-0.26603-0.0069 0.22371-0.08706 1.0883-0.17831zm-36.013 0.17014c-0.0386-0.09646-0.0672-0.06781-0.073 0.07306-0.006 0.12747 0.0233 0.19889 0.0635 0.15871 0.0402-0.04019 0.0445-0.14448 0.01-0.23177zm19.356 0.05699c-0.18289-0.02771-0.48217-0.02771-0.66507 0s-0.0332 0.05038 0.33253 0.05038c0.3658 0 0.51544-0.02267 0.33254-0.05038zm-15.69-0.39504c-1.7108-0.12575-3.897-0.14419-3.8274-0.03227 0.031 0.04988 1.1906 0.09855 2.5768 0.10815 2.0954 0.01452 2.3063 0.0017 1.2506-0.07588zm-4.1411-0.4555c0.0626-0.18978-5.2325-0.22262-5.3496-0.03318-0.046 0.07434 0.6783 0.13235 1.9579 0.15684 3.0224 0.05783 3.3356 0.04642 3.3917-0.12366zm44.439-1.0777c-0.0831-0.03354-0.21917-0.03354-0.3023 0-0.0831 0.03354-0.0151 0.06099 0.15115 0.06099 0.16627 0 0.23429-0.02745 0.15115-0.06099zm0.62169-0.65108c0.15171-0.14229 0.23986-1.2264 0.1421-1.7476-0.0801-0.42713-0.093-0.43584-0.58913-0.39979-0.27896 0.02027-0.49359 0.07766-0.47696 0.12755 0.0166 0.04988 0.0302 0.58475 0.0302 1.1886v1.0979l0.393-0.08281c0.21615-0.04555 0.44149-0.12829 0.50076-0.18388zm-34.42-2.9855c-0.3159-0.02491-0.83285-0.02491-1.1488 0-0.3159 0.02491-0.0574 0.04529 0.57439 0.04529 0.63182 0 0.8903-0.02038 0.57438-0.04529zm-4.1092-0.11844c-0.1817-0.02759-0.5082-0.02814-0.72553-0.0012-0.21735 0.02691-0.0687 0.04949 0.33037 0.05017 0.39904 0.000726 0.57686-0.02134 0.39516-0.04893zm1.6001-0.57867c0-0.13925-0.15452-0.18138-0.66508-0.18138s-0.66508 0.04214-0.66508 0.18138 0.15452 0.18138 0.66508 0.18138 0.66508-0.04214 0.66508-0.18138zm10.752-1.2916c0.21178-0.13226 0.0909-0.3486-1.6341-2.9245-1.0246-1.5299-1.8628-2.8499-1.8628-2.9333 0-0.15484 0.29672-0.21577 1.9348-0.39734 0.6791-0.07527 0.77023-0.10353 0.36277-0.11248-0.79562-0.01748-2.3041 0.19828-2.4952 0.35689-0.11492 0.09537-0.16507 0.09718-0.16507 0.0059 0-0.27997 1.052-0.43063 3.0231-0.43294 1.3736-0.0016 1.7503-0.02726 1.2092-0.08234-0.4323-0.044 0.43834-0.06701 1.9348-0.05113 1.8538 0.01967 2.2969 0.0035 1.3906-0.05075l-1.3302-0.07962 1.0883-0.03749 1.0883-0.03749-0.66508-0.19024c-0.56772-0.16239-1.621-0.19046-7.1949-0.19171-6.3958-0.0015-9.1131 0.10453-11.246 0.43857-0.87991 0.13781-0.49526 0.15698 4.2538 0.21197 5.0205 0.05814 5.2344 0.06999 5.5625 0.30822 0.18768 0.13627 1.2529 1.6191 2.3671 3.2952s2.0537 3.0474 2.0876 3.0474 0.16457-0.06427 0.29036-0.14283zm-1.9714-2.8942c-1.0493-1.5334-1.8806-2.8153-1.8474-2.8485 0.0332-0.03323 0.11562 0.0427 0.18307 0.16874 0.0675 0.12604 0.91693 1.3897 1.8877 2.8081 0.97081 1.4184 1.7469 2.5971 1.7247 2.6193s-0.89888-1.2143-1.9482-2.7477zm-1.6992 1.7252c0.8995 0.03748 0.99148 0.02204 0.82958-0.13923-0.13143-0.13093-0.43728-0.17921-1.0995-0.17356-0.75201 0.0064-0.94734 0.04874-1.0833 0.23473-0.26638 0.36429-0.20132 0.57884 0.0879 0.28968 0.22536-0.22536 0.367-0.24905 1.2654-0.21162zm8.9978-0.57284c0.43993-0.1439 0.9512-0.18162 2.0483-0.15115l1.4621 0.04061-0.00012-0.42935c-0.00012-0.40688-0.0925-0.50417-1.7656-1.8593-0.97097-0.7865-1.9368-1.5184-2.1464-1.6263-0.3111-0.16034-0.7692-0.19477-2.4971-0.18769-1.7393 0.0071-4.6786 0.21592-4.8039 0.34125-0.0172 0.01723 0.0799 0.3606 0.21579 0.76306l0.24711 0.73173 0.60563 0.0582c0.3331 0.032 0.65829 0.11085 0.72265 0.17521 0.0643 0.06436 0.14569 0.41214 0.18073 0.77284 0.0351 0.3607 0.0902 0.83115 0.12255 1.0454l0.0589 0.38962 1.6578 0.03732c0.91181 0.02052 2.0285 0.04926 2.4816 0.06384 0.49544 0.01595 1.0574-0.0499 1.41-0.16524zm-15.786-0.82216c0.11504-0.76713 0.35916-0.93046 1.5085-1.0092 1.1324-0.07762 1.2568-0.01354 1.448 0.74576l0.13324 0.52914 0.51504-0.06574c0.28327-0.03616 0.53513-0.08288 0.55969-0.10383 0.0537-0.04582-0.26489-1.4834-0.53367-2.408l-0.19322-0.66464h-1.6746-1.6746l-0.18569 0.57438c-0.25198 0.77942-0.6802 2.505-0.6802 2.7409 0 0.13045 0.11122 0.19147 0.34904 0.19147 0.31961 0 0.35574-0.0447 0.42855-0.53023zm19.417-1.0835c0-0.02294-0.12243-0.14538-0.27208-0.27208l-0.27207-0.23036 0.23036 0.27208c0.21647 0.25568 0.31379 0.32713 0.31379 0.23036z"/>
 </g>
</svg>
