<?xml version="1.0" encoding="UTF-8" standalone="no"?>
<!-- Created with Inkscape (http://www.inkscape.org/) -->
<svg id="svg2" xmlns:rdf="http://www.w3.org/1999/02/22-rdf-syntax-ns#" xmlns="http://www.w3.org/2000/svg" height="54" width="99" version="1.1" xmlns:cc="http://creativecommons.org/ns#" xmlns:dc="http://purl.org/dc/elements/1.1/">
 <metadata id="metadata7">
  <rdf:RDF>
   <cc:Work rdf:about="">
    <dc:format>image/svg+xml</dc:format>
    <dc:type rdf:resource="http://purl.org/dc/dcmitype/StillImage"/>
    <dc:title/>
   </cc:Work>
  </rdf:RDF>
 </metadata>
 <g id="g3491">
  <g id="g3871">
   <g id="g4614">
    <g id="g5219">
     <g id="g5689">
      <g id="g6406">
       <g id="g7263">
        <g id="g8053">
         <g id="g8717">
          <g id="g9406">
           <g id="g9898">
            <g id="g10207">
             <g id="g10407">
              <g id="g10743">
               <g id="g11282">
                <g id="g15079">
                 <rect id="rect2990" opacity="0" height="54" width="99" y="0" x="0"/>
                 <g id="layer1" transform="translate(276.2385,-13.968804)">
                  <g id="logo18" transform="matrix(0.17372578,0,0,0.17372578,-271.73841,25.575508)">
                   <g id="g82283">
                    <path id="path82285" d="m510.86,122.45c0.921-0.531,1.933-1.346,2.065-2.406,0.25-2,1.25-5.125,2.875-7.25s2.25-11.75,0.25-12.875-6.232-0.786-6.232-0.786,1.607-3.839,1.732-6.214v-13c0-3-0.375-3.625-2.375-5.125,0,0,0-4.625-1.23-8.003-1.027-2.641-49.78-9.093-105.42-15.412-5.718-0.649-5.703-2.62-5.703-2.62-25.121-26.2-43.152-39.3-43.152-39.3s-2.774-3.236-16.491-6.473c-15.945-3.762-112.97-2.465-141.32,1.542,0,0-13.871,1.541-15.874,5.394-2.004,3.853-9.247,20.343-12.638,39.146l-43.615,0.309s-11.25-0.154-14.333,0.154c0,0-74.438,4.47-83.839,5.086-9.401,0.617-8.63,2.62-10.634,7.398-2.003,4.777-1.541,25.737-0.771,28.511,0.771,2.774,1.079,4.778,0.308,8.014,0,0-9.247,3.083-10.942,3.699-1.695,0.617-2.774,0.925-2.774,2.312s0.154,2.928,0.154,4.469,1.695,1.849,2.62,2.158c0.925,0.308,0,3.391,1.387,5.548,1.387,2.158,5.24,2.004,8.322,2.004,3.083,0,1.079-1.387,2.312-1.85s5.24-0.154,7.86,0.617c0,0,28.196,5.781,32.863,5.107l0.029-1.268c-0.837-19.566-0.459-37.36,23.978-37.36,25.275,0,31.028,12.399,33.906,22.501,6.935,24.35,7.706,26.354,10.942,26.508s41.611,0.154,41.611,0.154c-3.391-5.394-4.624-20.343-4.624-20.343-1.079,0-1.233-3.083-0.462-3.083s0.925-2.158,0.925-2.158c-1.233-16.49-2.466-30.669-0.462-44.385,0.617-4.007,0.965-3.545,3.585-4.47-0.108,1.084-0.194,0.308-0.811,4.315-2.003,13.716-0.771,27.895,0.462,44.386,0,0-0.154,2.157-0.924,2.157-0.771,0-0.617,3.083,0.462,3.083,0,0,1.233,14.949,4.624,20.344,1.387,1.926,3.545,1.31,3.545,2.389s0.616,2.774,0.616,2.774l136.08,4.469,13.716,0.154s1.541-1.387-0.154-1.695-4.007-3.853-4.469-8.477-0.462-10.018,0.154-16.028c0.617-6.011,3.237-25.275,30.978-25.275s37.151,8.936,41.766,21.422c7.86,21.268,7.244,23.426,11.097,23.426s19.88-0.649,24.504-0.771c11.713-0.308,24.659-3.236,36.372-4.315s28.358-4.47,47.16-9.016l-0.015,0.408z" fill="#FFF"/>
                   </g>
                   <path id="path82287" d="m211.89,15.934c2.004-3.699-1.079-4.007-3.39-4.007l-17.107,0.617c-3.853,0.154-4.162,1.233-5.703,3.699s-8.99,27.737-9.709,36.372c-0.462,5.548,3.237,4.932,4.007,4.932h17.723c2.774,0,4.876-0.479,5.24-3.699,1.079-9.556,3.237-22.502,8.939-37.914z"/>
                   <path id="path82289" d="m225.92,13.468c-3.699,9.247-6.319,21.268-9.401,43.769l78.908,1.233s-23.272-34.831-26.816-39.3c-3.545-4.469-5.086-5.394-12.33-5.394l-30.36-0.308z"/>
                   <path id="path82291" d="m286.33,10.54c-6.604,0.825-7.552,1.079-5.394,4.161s21.73,31.594,28.357,42.228c25.583-5.24,63.358-7.552,86.322-7.706-16.96-17.261-37.44-35.583-44.08-39.916-3.55-2.312-6.65-1.992-8.5-2.003-24.04-0.155-44.38,1.695-56.71,3.236z"/>
                   <path id="path82293" d="m167.16,51.073s-0.697,3.544-1.159,6.473l-95.585-1.387,45.156-2.157v-2.929h51.588z"/>
                   <path id="path82295" d="m445.84,87.907c0.308,4.469,0.308,9.555,0,15.257-0.143,2.634,3.39,2.312,3.39,2.312s39.146-4.315,43.461-5.395c4.315-1.079,3.545-6.774,3.545-8.63,0-3.391,0-7.706-0.617-9.863-0.616-2.158-1.849-1.85-3.699-1.542-1.849,0.308-20.96,3.545-42.69,5.24-4.932,0.154-3.39,2.621-3.39,2.621z" stroke-width="0.5" stroke="#000"/>
                   <path id="path82297" d="m446.42,93.373-0.154,5.856c13.563-0.925,43.698-5.539,49.709-6.618l-0.246-5.929c-8.631,2.467-37.134,5.612-49.309,6.691z" fill="#FFF"/>
                   <path id="path82299" d="m454.86,84.799c1.079,4.315,1.618,12.798,0.231,20.041l2.466-0.308c1.542-7.552,0.987-15.572-0.246-19.887l-2.451,0.154z" stroke="#000" stroke-width="0.5" fill="#FFF"/>
                   <path id="path82301" d="m469.8,83.196c1.079,4.315,1.681,12.672,0.293,19.916l2.404-0.308c1.541-7.552,0.987-15.509-0.246-19.825l-2.451,0.217z" stroke="#000" stroke-width="0.5" fill="#FFF"/>
                   <path id="path82303" d="m482.41,81.438c0.954,4.002,1.493,12.86,0.106,20.104l2.528-0.246c1.541-7.552,0.799-16.197-0.309-20.2l-2.325,0.342z" stroke="#000" stroke-width="0.5" fill="#FFF"/>
                   <g id="g82305">
                    <path id="path82307" d="m510.88,122.04s0,7.089-0.308,8.63-0.308,3.699,1.233,4.624c1.542,0.925,0.308,1.85-4.315,3.391s-22.192,4.624-30.207,5.548c0,0-5.856,18.494-22.809,18.494l-17.261,0.309c-16.953,0-22.81-12.946-22.81-12.946-4.529,0.228-9.35,0.317-10.171-1.542,0,0-2.779,28.666-32.615,28.666h-11.861c-25.203,0-31.965-20.96-31.965-29.59,0,0-23.426,0.308-34.214-0.309-10.789-0.616-31.749-1.233-48.084-2.158-16.33-0.92-36.37-2.15-36.37-2.15s-4.624,9.555-20.035,9.555h-9.247c-13.563,0-18.802-12.33-18.802-12.33l-1.695,0.154s0,1.387-2.004,1.387c-2.003,0-2.465-2.465-2.465-2.465h-2.62s0,1.541-0.771,1.541-1.233-1.233-1.233-1.233h-1.233s0.462,2.774-0.462,2.774c-0.925,0-6.627,0.462-7.706,0s-3.083-0.617-4.469-0.617c-1.387,0-5.086-3.853-6.319-6.935l-4.161-0.616c1.233,8.63-2.774,33.289-28.974,33.289h-9.886c-20.652,0.04-25.121-30.17-22.039-43.27l-3.237-0.771c-0.924-0.308-0.462-1.849-0.462-1.849l-1.849-1.079-2.158,2.312-0.925,0.543c-0.925-20.343-1.387-39.38,23.888-39.38s31.028,12.399,33.906,22.501c6.935,24.351,7.706,26.354,10.942,26.508s41.611,0.154,41.611,0.154c-3.391-5.394-4.624-20.343-4.624-20.343-1.079,0-1.233-3.083-0.462-3.083s0.925-2.158,0.925-2.158c-1.233-16.49-2.466-30.669-0.462-44.385,0.617-4.007,0.965-3.545,3.585-4.47-0.108,1.084-0.194,0.309-0.811,4.315-2.003,13.716-0.771,27.895,0.462,44.386,0,0-0.154,2.158-0.924,2.158-0.771,0-0.617,3.082,0.462,3.082,0,0,1.233,14.949,4.624,20.344,1.387,1.926,3.545,1.31,3.545,2.389s0.616,2.774,0.616,2.774l136.08,4.47,13.716,0.154s1.541-1.387-0.154-1.695-4.007-3.853-4.469-8.476c-0.462-4.624-0.462-10.018,0.154-16.028,0.617-6.011,3.237-25.275,30.978-25.275s37.151,8.936,41.766,21.422c7.86,21.268,7.244,23.426,11.097,23.426s19.88-0.649,24.504-0.771c11.713-0.308,24.659-3.236,36.372-4.315,11.709-1.08,28.354-4.47,47.156-9.017z"/>
                    <path id="path82309" d="m56.873,122.38c-1.387,1.695-33.468-4.883-33.468-4.883-2.62-0.771-6.627-1.079-7.86-0.617s0.771,1.85-2.312,1.85c-3.082,0-6.935,0.154-8.322-2.003-1.387-2.158-0.462-5.24-1.387-5.548s-2.62-0.617-2.62-2.158-0.154-3.083-0.154-4.469c0-1.387,1.079-1.695,2.774-2.312,1.695-0.616,10.942-3.699,10.942-3.699,0.771-3.236,0.462-5.24-0.308-8.014-0.771-2.774-1.233-23.734,0.771-28.511,2.004-4.778,1.233-6.781,10.634-7.398,9.401-0.616,83.839-5.086,83.839-5.086,3.083-0.308,14.333-0.154,14.333-0.154l43.615-0.309c3.391-18.802,10.634-35.292,12.638-39.146,2.003-3.853,15.874-5.394,15.874-5.394,28.357-4.007,125.38-5.303,141.32-1.541,13.716,3.236,16.491,6.473,16.491,6.473s18.032,13.1,43.152,39.3c0,0-0.015,1.971,5.703,2.62,55.636,6.319,104.39,12.771,105.42,15.412,1.23,3.378,1.23,8.003,1.23,8.003,2,1.5,2.375,2.125,2.375,5.125v13c-0.125,2.375-1.732,6.214-1.732,6.214s4.232-0.339,6.232,0.786,1.375,10.75-0.25,12.875-2.625,5.25-2.875,7.25-3.625,3.125-3.625,3.125" stroke="#000" stroke-width="1.5" fill="none"/>
                   </g>
                   <g id="g82311">
                    <path id="path82313" d="m517.21,104.27s-42.556,7.862-60.697,10.083c-19.375,2.373-40.531,4.35-59.906,3.954l2.175,5.536c20.562,0.198,35.786-0.989,57.929-3.756,22.144-2.768,60.301-10.677,60.301-10.677l0.198-5.14z"/>
                   </g>
                   <polygon id="polygon82315" points="316.63,122.36,166.37,119,165.58,112.64,317.02,116.42"/>
                   <polygon id="polygon82317" points="162.71,118.9,120.7,118.5,118.62,111.88,162.11,112.8"/>
                   <path id="path82319" d="m8.699,104.22,46.163,2.71-0.396,5.733-39.146-1.977s-0.198,3.757,1.582,5.932l-1.779,0.593c-2.57-1.582-3.954-5.931-3.954-5.931-1.384,1.186-7.315,0.593-7.315,0.593s0.099-0.495-1.483-1.087c-1.582-0.593-1.483-1.384-1.483-2.669l-0.137-3.57c4.684,0.604,6.27,0.818,7.948-0.327z"/>
                   <path id="path82321" d="m14.727,96.951c-0.198,1.187,0.593,1.483,4.943,1.384-1.186-8.106-1.842-22.154-1.15-30.063l-4.683-0.088c-0.593,2.768-0.593,20.562,0.494,23.231s0.396,5.536,0.396,5.536z"/>
                   <g id="g82323" stroke-width="0.5" stroke="#000">
                    <path id="path82325" d="m223.25,71.325c0.596,0,1.08-0.392,1.08-0.875l0.588-3.99c0-0.483-0.483-0.874-1.08-0.874h-9.136c-0.596,0-1.08,0.391-1.08,0.874l-0.588,3.99c0,0.483,0.483,0.875,1.08,0.875h9.136z"/>
                    <path id="path82327" d="m223.6,68.787c0.596,0,1.08-0.196,1.08-0.437l0.354-2.223c0-0.242-0.483-0.438-1.08-0.438h-9.136c-0.596,0-1.079,0.196-1.079,0.438l-0.354,2.223c0,0.241,0.483,0.437,1.08,0.437h9.135z" fill="#FFF"/>
                   </g>
                   <g id="g82329" stroke-width="0.5" stroke="#000" fill="none">
                    <ellipse id="ellipse82331" d="m 210.716,67.587997 c 0,0.880895 -0.57128,1.595 -1.276,1.595 -0.70471,0 -1.276,-0.714105 -1.276,-1.595 0,-0.880894 0.57129,-1.595 1.276,-1.595 0.70472,0 1.276,0.714106 1.276,1.595 z" cx="209.44" rx="1.276" cy="67.588" ry="1.595"/>
                    <path id="path82333" d="M209.44,67.588"/>
                   </g>
                   <path id="path82335" d="m179.99,9.923c1.2-1.879,10.45-1.879,20.7-2.129s47.25-0.5,58.5-0.25,12.75,2.75,17.25,9.5,25,38.5,26.5,39.75,2,2.75,3,5.5,1.5,9.75,1.5,16,1.25,29.25,1.5,32.25-2,2.5-2,5.75v5h1.75s-0.5,10.75-2.5,15.75l2.75,3.25v3.25" stroke="#000" stroke-width="0.5" fill="none"/>
                   <path id="path82337" d="m219.94,7.544c-4,3.75-12.577,32.627-16,62.75-1.25,11,1.25,38.5,1.25,38.5,0.25,1.25-2,2.25-2,4.5s0.25,6,0.25,6h1.5s1.5,12.5,3.25,13.75" stroke="#000" stroke-width="0.5" fill="none"/>
                   <line id="line82339" stroke-width="0.5" x1="169.44" x2="317.94" stroke="#000" y1="132.29" y2="137.04" fill="none"/>
                   <path id="path82341" d="m173.44,136.04,147,4.75c-4-3.5-3-6.75-3.5-10.75s-1-18.75,3-25.25,9-17,35-15.75c24.036,1.155,33.518,6.079,40.5,26.25,4.5,13,7.403,20.851,7.403,20.851" stroke="#000" stroke-width="0.5" fill="none"/>
                   <path id="path82343" d="m117.94,109.54,199.5,5.25s-4.5-2.75-7.25-3-184.25-6-187-4.75-5.25,2.5-5.25,2.5z" stroke="#000" stroke-width="0.5" fill="none"/>
                   <g id="g82345">
                    <g id="g82347" fill="#FFF">
                     <ellipse id="ellipse82349" d="m 385.31998,143.81 c 0,13.20292 -10.16761,23.906 -22.70999,23.906 -12.54239,0 -22.71,-10.70308 -22.71,-23.906 0,-13.20292 10.16761,-23.906 22.71,-23.906 12.54238,0 22.70999,10.70308 22.70999,23.906 z" cx="362.61" rx="22.71" cy="143.81" ry="23.906"/>
                     <path id="path82351" d="M362.61,143.81"/>
                    </g>
                    <g id="g82353" stroke-width="0.5" stroke="#000" fill="none">
                     <ellipse id="ellipse82355" d="m 383.04898,143.81 c 0,11.8824 -9.15085,21.515 -20.43899,21.515 -11.28815,0 -20.439,-9.6326 -20.439,-21.515 0,-11.88241 9.15085,-21.515 20.439,-21.515 11.28814,0 20.43899,9.63259 20.43899,21.515 z" cx="362.61" rx="20.439" cy="143.81" ry="21.515"/>
                     <path id="path82357" d="M362.61,143.81"/>
                    </g>
                    <path id="path82359" d="M368.5,162.92"/>
                    <g id="g82361">
                     <ellipse id="ellipse82363" d="m 369.563,162.92 c 0,0.61745 -0.47592,1.118 -1.063,1.118 -0.58708,0 -1.063,-0.50055 -1.063,-1.118 0,-0.61746 0.47592,-1.118 1.063,-1.118 0.58708,0 1.063,0.50054 1.063,1.118 z" cx="368.5" rx="1.063" cy="162.92" ry="1.118"/>
                     <path id="path82365" d="m366.66,159.81c0.469,0.099,1.215-0.063,1.497-0.656s-1.23-3.387-1.794-3.19c-0.563,0.198-0.172,3.746,0.297,3.846z"/>
                     <path id="path82367" d="m362.61,162.49s-1.216,0.125-2.249-0.172c-1.033-0.296,0.402-6.021,1.537-6.155,0.328-0.039,0.711,0,0.711,0s0.383-0.039,0.711,0c1.135,0.135,2.57,5.859,1.537,6.155-1.032,0.296-2.247,0.172-2.247,0.172z"/>
                     <ellipse id="ellipse82369" d="m 357.77299,162.92 c 0,0.61745 -0.47592,1.118 -1.063,1.118 -0.58708,0 -1.063,-0.50055 -1.063,-1.118 0,-0.61746 0.47592,-1.118 1.063,-1.118 0.58708,0 1.063,0.50054 1.063,1.118 z" cx="356.71" rx="1.063" cy="162.92" ry="1.118"/>
                     <path id="path82371" d="m358.55,159.81c-0.469,0.099-1.215-0.063-1.497-0.656s1.23-3.387,1.794-3.19c0.564,0.198,0.173,3.746-0.297,3.846z"/>
                     <path id="path82373" d="m357.42,160.69c0.891,0.375,1.781,1.125,1.363,2.764,1.292,0.291,2.455,0.444,3.83,0.444s2.537-0.153,3.83-0.444c-0.418-1.639,0.472-2.389,1.363-2.764" stroke="#000" stroke-width="0.5" fill="none"/>
                     <path id="path82375" d="m359.32,154.38c0.831,0.313,0.891,1.563,0.891,1.563,0.237-0.688,1.544-0.875,2.375-0.875h0.054c0.831,0,2.138,0.188,2.375,0.875,0,0,0.06-1.25,0.891-1.563" stroke="#000" stroke-width="0.5" fill="none"/>
                     <g id="g82377" stroke-width="0.5" stroke="#000" fill="none">
                      <ellipse id="ellipse82379" d="m 361.29401,153.81 c 0,0.53682 -0.22565,0.972 -0.504,0.972 -0.27835,0 -0.504,-0.43518 -0.504,-0.972 0,-0.53682 0.22565,-0.972 0.504,-0.972 0.27835,0 0.504,0.43518 0.504,0.972 z" cx="360.79" rx="0.504" cy="153.81" ry="0.972"/>
                      <path id="path82381" d="M360.79,153.81"/>
                     </g>
                     <g id="g82383" stroke-width="0.5" stroke="#000" fill="none">
                      <ellipse id="ellipse82385" d="m 364.874,153.81 c 0,0.53682 -0.22565,0.972 -0.504,0.972 -0.27836,0 -0.504,-0.43518 -0.504,-0.972 0,-0.53682 0.22564,-0.972 0.504,-0.972 0.27835,0 0.504,0.43518 0.504,0.972 z" cx="364.37" rx="0.504" cy="153.81" ry="0.972"/>
                      <path id="path82387" d="M364.37,153.81"/>
                     </g>
                    </g>
                    <path id="path82389" d="m378.68,156.53c0.475-0.363,0.58-1.063,0.235-1.562-0.345-0.5-1.009-0.61-1.484-0.248-0.475,0.363-0.58,1.063-0.235,1.563s1.009,0.611,1.484,0.247z"/>
                    <path id="path82391" d="m374.82,154.25c0.435-0.21,0.948-0.803,0.845-1.457-0.104-0.654-2.887-1.979-3.232-1.47-0.346,0.508,1.952,3.137,2.387,2.927z"/>
                    <path id="path82393" d="m373.04,158.92s-0.914,0.854-1.915,1.252c-1.001,0.399-3.037-5.119-2.194-5.931,0.244-0.234,0.576-0.44,0.576-0.44s0.289-0.269,0.576-0.44c0.993-0.594,5.351,3.149,4.68,4.028-0.67,0.88-1.723,1.531-1.723,1.531z"/>
                    <path id="path82395" d="m367.83,160.68c0.93-0.248,2.069-0.192,2.646,1.393,1.208-0.564,2.234-1.16,3.346-2.01,1.112-0.851,1.967-1.694,2.851-2.729-1.254-1.067-0.952-2.225-0.441-3.079" stroke="#000" stroke-width="0.5" fill="none"/>
                    <path id="path82397" d="m365.84,154.4c0.847-0.262,1.593,0.713,1.593,0.713-0.192-0.703,0.76-1.663,1.433-2.177l0.044-0.034c0.673-0.515,1.834-1.171,2.41-0.762,0,0-0.65-1.048-0.152-1.815" stroke="#000" stroke-width="0.5" fill="none"/>
                    <g id="g82399" stroke-width="0.5" stroke="#000" fill="none">
                     <path id="path82401" d="m367.27,153.81c0.225-0.172,0.165-0.664-0.135-1.098-0.3-0.435-0.726-0.647-0.951-0.475s-0.165,0.664,0.136,1.099c0.299,0.434,0.725,0.646,0.95,0.474z"/>
                     <path id="path82403" d="M366.73,153.02"/>
                    </g>
                    <g id="g82405" stroke-width="0.5" stroke="#000" fill="none">
                     <path id="path82407" d="m370.16,151.6c-0.225,0.172-0.65-0.041-0.95-0.475s-0.36-0.926-0.135-1.098,0.65,0.041,0.95,0.475c0.299,0.434,0.36,0.925,0.135,1.098z"/>
                     <path id="path82409" d="M369.62,150.81"/>
                    </g>
                    <path id="path82411" d="m382.71,144.16c0.181-0.587-0.125-1.219-0.683-1.41-0.558-0.19-1.157,0.131-1.339,0.718-0.181,0.587,0.125,1.218,0.683,1.409s1.157-0.13,1.339-0.717z"/>
                    <path id="path82413" d="m378.32,144.7c0.234-0.44,0.319-1.236-0.13-1.702-0.449-0.465-3.441,0.186-3.436,0.811,0.004,0.626,3.331,1.331,3.566,0.891z"/>
                    <path id="path82415" d="m379.49,149.58s-0.263,1.255-0.85,2.198-5.315-2.263-5.086-3.441c0.066-0.34,0.22-0.712,0.22-0.712s0.083-0.396,0.22-0.712c0.472-1.095,6.087-0.763,6.036,0.363s-0.54,2.304-0.54,2.304z"/>
                    <path id="path82417" d="m376.26,154.22c0.614-0.776,1.567-1.436,2.918-0.51,0.662-1.204,1.159-2.321,1.584-3.697s0.646-2.587,0.783-3.971c-1.61-0.087-2.013-1.211-2.076-2.218" stroke="#000" stroke-width="0.5" fill="none"/>
                    <path id="path82419" d="m371.14,150.37c0.539-0.735,1.687-0.409,1.687-0.409-0.548-0.45-0.313-1.816-0.057-2.648l0.017-0.055c0.257-0.832,0.83-2.082,1.524-2.107,0,0-1.111-0.446-1.136-1.375" stroke="#000" stroke-width="0.5" fill="none"/>
                    <g id="g82421" stroke-width="0.5" stroke="#000" fill="none">
                     <path id="path82423" d="m371.97,149.02c0.086-0.279-0.238-0.639-0.723-0.805s-0.948-0.074-1.034,0.204c-0.086,0.279,0.237,0.639,0.723,0.805s0.948,0.074,1.034-0.204z"/>
                     <path id="path82425" d="M371.09,148.72"/>
                    </g>
                    <g id="g82427" stroke-width="0.5" stroke="#000" fill="none">
                     <path id="path82429" d="m373.07,145.44c-0.086,0.278-0.549,0.37-1.034,0.204s-0.809-0.526-0.723-0.805c0.086-0.278,0.549-0.37,1.034-0.204s0.809,0.526,0.723,0.805z"/>
                     <path id="path82431" d="M372.19,145.14"/>
                    </g>
                    <path id="path82433" d="m379.07,131.65c-0.181-0.587-0.781-0.909-1.339-0.718s-0.863,0.822-0.682,1.409c0.182,0.587,0.781,0.909,1.339,0.718s0.864-0.821,0.682-1.409z"/>
                    <path id="path82435" d="m375.82,134.8c-0.056-0.5-0.432-1.197-1.055-1.296s-2.68,2.279-2.327,2.782c0.352,0.502,3.437-0.985,3.382-1.486z"/>
                    <path id="path82437" d="m379.49,138.03s0.489,1.178,0.54,2.304-5.563,1.458-6.036,0.364c-0.137-0.316-0.22-0.712-0.22-0.712s-0.154-0.372-0.22-0.712c-0.229-1.178,4.499-4.384,5.086-3.441,0.587,0.942,0.85,2.198,0.85,2.197z"/>
                    <path id="path82439" d="m379.46,143.79c0.063-1.007,0.466-2.131,2.076-2.219-0.137-1.383-0.358-2.595-0.783-3.971s-0.922-2.493-1.584-3.697c-1.352,0.925-2.304,0.266-2.918-0.51" stroke="#000" stroke-width="0.5" fill="none"/>
                    <path id="path82441" d="m373.17,143.84c0.025-0.929,1.136-1.374,1.136-1.374-0.694-0.025-1.268-1.275-1.524-2.107l-0.017-0.054c-0.257-0.833-0.491-2.198,0.056-2.648,0,0-1.147,0.327-1.687-0.409" stroke="#000" stroke-width="0.5" fill="none"/>
                    <g id="g82443" stroke-width="0.5" stroke="#000" fill="none">
                     <path id="path82445" d="m373.09,142.23c-0.086-0.278-0.549-0.37-1.034-0.204s-0.809,0.526-0.723,0.805,0.549,0.37,1.034,0.204c0.485-0.165,0.809-0.526,0.723-0.805z"/>
                     <path id="path82447" d="M372.21,142.53"/>
                    </g>
                    <g id="g82449" stroke-width="0.5" stroke="#000" fill="none">
                     <path id="path82451" d="m371.98,138.65c0.086,0.279-0.237,0.639-0.723,0.805-0.485,0.166-0.948,0.075-1.034-0.204-0.086-0.278,0.238-0.639,0.723-0.805s0.948-0.075,1.034,0.204z"/>
                     <path id="path82453" d="M371.1,138.96"/>
                    </g>
                    <path id="path82455" d="m369.14,123.79c-0.475-0.363-1.139-0.252-1.484,0.248s-0.239,1.199,0.235,1.562c0.475,0.363,1.139,0.252,1.484-0.248s0.24-1.2-0.235-1.562z"/>
                    <path id="path82457" d="m368.26,128.35c-0.325-0.371-1.019-0.702-1.578-0.396s-0.896,3.502-0.329,3.69,2.232-2.923,1.907-3.294z"/>
                    <path id="path82459" d="m373.04,128.69s1.053,0.651,1.723,1.53-3.687,4.623-4.68,4.029c-0.287-0.171-0.576-0.44-0.576-0.44s-0.332-0.206-0.575-0.44c-0.844-0.812,1.191-6.33,2.193-5.931,1.001,0.399,1.915,1.252,1.915,1.252z"/>
                    <path id="path82461" d="m376.23,133.36c-0.511-0.854-0.813-2.012,0.44-3.08-0.883-1.035-1.738-1.878-2.851-2.728-1.112-0.851-2.139-1.446-3.346-2.01-0.577,1.584-1.716,1.64-2.646,1.393" stroke="#000" stroke-width="0.5" fill="none"/>
                    <path id="path82463" d="m371.17,137.3c-0.498-0.767,0.151-1.815,0.151-1.815-0.576,0.409-1.737-0.247-2.41-0.762l-0.044-0.033c-0.673-0.514-1.625-1.474-1.433-2.177,0,0-0.746,0.975-1.593,0.713" stroke="#000" stroke-width="0.5" fill="none"/>
                    <g id="g82465" stroke-width="0.5" stroke="#000" fill="none">
                     <path id="path82467" d="m370.2,136.05c-0.225-0.172-0.651,0.041-0.951,0.475s-0.36,0.926-0.135,1.098,0.65-0.041,0.95-0.475,0.361-0.925,0.136-1.098z"/>
                     <path id="path82469" d="M369.66,136.84"/>
                    </g>
                    <g id="g82471" stroke-width="0.5" stroke="#000" fill="none">
                     <path id="path82473" d="m367.31,133.84c0.225,0.172,0.165,0.664-0.135,1.099-0.3,0.434-0.725,0.647-0.95,0.475s-0.165-0.664,0.135-1.098,0.725-0.648,0.95-0.476z"/>
                     <path id="path82475" d="M366.77,134.62"/>
                    </g>
                    <ellipse id="ellipse82477" d="m 357.77299,124.69 c 0,0.61746 -0.47592,1.118 -1.063,1.118 -0.58708,0 -1.063,-0.50054 -1.063,-1.118 0,-0.61745 0.47592,-1.118 1.063,-1.118 0.58708,0 1.063,0.50055 1.063,1.118 z" cx="356.71" rx="1.063" cy="124.69" ry="1.118"/>
                    <path id="path82479" d="m358.55,127.8c-0.47-0.099-1.216,0.063-1.498,0.656s1.231,3.387,1.794,3.189,0.174-3.746-0.296-3.845z"/>
                    <path id="path82481" d="m362.61,125.12s1.215-0.125,2.249,0.171-0.401,6.021-1.537,6.155c-0.328,0.039-0.711,0-0.711,0s-0.383,0.039-0.711,0c-1.135-0.134-2.57-5.858-1.537-6.155,1.032-0.296,2.247-0.171,2.247-0.171z"/>
                    <path id="path82483" d="m367.8,126.93c-0.891-0.375-1.781-1.125-1.363-2.764-1.292-0.291-2.455-0.443-3.83-0.443s-2.538,0.153-3.83,0.444c0.418,1.639-0.472,2.389-1.363,2.764" stroke="#000" stroke-width="0.5" fill="none"/>
                    <path id="path82485" d="m365.9,133.24c-0.831-0.313-0.891-1.563-0.891-1.563-0.237,0.688-1.543,0.875-2.375,0.875h-0.054c-0.831,0-2.138-0.188-2.375-0.875,0,0-0.06,1.25-0.891,1.563" stroke="#000" stroke-width="0.5" fill="none"/>
                    <g id="g82487" stroke-width="0.5" stroke="#000" fill="none">
                     <ellipse id="ellipse82489" d="m 364.92401,133.8 c 0,0.53682 -0.22565,0.972 -0.504,0.972 -0.27835,0 -0.504,-0.43518 -0.504,-0.972 0,-0.53682 0.22565,-0.972 0.504,-0.972 0.27835,0 0.504,0.43518 0.504,0.972 z" cx="364.42" rx="0.504" cy="133.8" ry="0.972"/>
                     <path id="path82491" d="M364.42,133.8"/>
                    </g>
                    <g id="g82493" stroke-width="0.5" stroke="#000" fill="none">
                     <ellipse id="ellipse82495" d="m 361.35401,133.8 c 0,0.53682 -0.22565,0.972 -0.504,0.972 -0.27836,0 -0.504,-0.43518 -0.504,-0.972 0,-0.53682 0.22564,-0.972 0.504,-0.972 0.27835,0 0.504,0.43518 0.504,0.972 z" cx="360.85" rx="0.504" cy="133.8" ry="0.972"/>
                     <path id="path82497" d="M360.85,133.8"/>
                    </g>
                    <path id="path82499" d="m346.54,131.09c-0.475,0.363-0.58,1.063-0.235,1.563s1.009,0.61,1.484,0.247,0.58-1.063,0.235-1.562c-0.345-0.501-1.01-0.611-1.484-0.248z"/>
                    <path id="path82501" d="m350.39,133.37c-0.435,0.21-0.948,0.803-0.845,1.457s2.887,1.979,3.232,1.47-1.952-3.138-2.387-2.927z"/>
                    <path id="path82503" d="m352.17,128.69s0.914-0.853,1.915-1.252,3.038,5.119,2.194,5.93c-0.244,0.234-0.576,0.44-0.576,0.44s-0.288,0.269-0.575,0.44c-0.994,0.594-5.351-3.149-4.681-4.028s1.723-1.53,1.723-1.53z"/>
                    <path id="path82505" d="m357.38,126.94c-0.93,0.248-2.069,0.192-2.646-1.392-1.208,0.564-2.234,1.16-3.346,2.011s-1.967,1.694-2.851,2.729c1.254,1.067,0.952,2.225,0.441,3.079" stroke="#000" stroke-width="0.5" fill="none"/>
                    <path id="path82507" d="m359.37,133.22c-0.847,0.261-1.593-0.713-1.593-0.713,0.192,0.703-0.76,1.664-1.433,2.178l-0.044,0.034c-0.672,0.514-1.834,1.171-2.41,0.762,0,0,0.65,1.048,0.152,1.815" stroke="#000" stroke-width="0.5" fill="none"/>
                    <g id="g82509" stroke-width="0.5" stroke="#000" fill="none">
                     <path id="path82511" d="m357.94,133.8c-0.225,0.172-0.165,0.664,0.136,1.099,0.3,0.434,0.725,0.646,0.95,0.475,0.225-0.172,0.165-0.664-0.135-1.098-0.3-0.435-0.726-0.648-0.951-0.476z"/>
                     <path id="path82513" d="M358.49,134.59"/>
                    </g>
                    <g id="g82515" stroke-width="0.5" stroke="#000" fill="none">
                     <path id="path82517" d="m355.05,136.02c0.225-0.172,0.651,0.041,0.951,0.475,0.3,0.435,0.36,0.926,0.135,1.099-0.225,0.172-0.65-0.041-0.95-0.475-0.301-0.435-0.361-0.927-0.136-1.099z"/>
                     <path id="path82519" d="M355.6,136.8"/>
                    </g>
                    <path id="path82521" d="m342.5,143.46c-0.181,0.587,0.125,1.218,0.683,1.409,0.558,0.19,1.157-0.131,1.338-0.718,0.182-0.587-0.124-1.219-0.682-1.409-0.558-0.191-1.157,0.131-1.339,0.718z"/>
                    <path id="path82523" d="m346.9,142.92c-0.234,0.439-0.319,1.236,0.13,1.701s3.44-0.186,3.436-0.811c-0.004-0.624-3.331-1.329-3.566-0.89z"/>
                    <path id="path82525" d="m345.73,138.04s0.262-1.255,0.85-2.198c0.587-0.943,5.315,2.262,5.086,3.44-0.066,0.34-0.22,0.712-0.22,0.712s-0.083,0.396-0.22,0.712c-0.472,1.095-6.087,0.763-6.036-0.362,0.052-1.126,0.54-2.304,0.54-2.304z"/>
                    <path id="path82527" d="m348.96,133.4c-0.614,0.776-1.566,1.436-2.918,0.511-0.662,1.204-1.16,2.321-1.584,3.697-0.425,1.376-0.646,2.588-0.782,3.972,1.61,0.087,2.013,1.21,2.076,2.218" stroke="#000" stroke-width="0.5" fill="none"/>
                    <path id="path82529" d="m354.08,137.25c-0.539,0.735-1.687,0.409-1.687,0.409,0.547,0.45,0.313,1.815,0.057,2.648l-0.017,0.054c-0.257,0.832-0.83,2.082-1.524,2.107,0,0,1.111,0.445,1.137,1.374" stroke="#000" stroke-width="0.5" fill="none"/>
                    <g id="g82531" stroke-width="0.5" stroke="#000" fill="none">
                     <path id="path82533" d="m353.25,138.6c-0.086,0.278,0.238,0.639,0.723,0.805s0.948,0.074,1.034-0.204c0.086-0.279-0.238-0.639-0.723-0.805-0.484-0.167-0.948-0.075-1.034,0.204z"/>
                     <path id="path82535" d="M354.13,138.9"/>
                    </g>
                    <g id="g82537" stroke-width="0.5" stroke="#000" fill="none">
                     <path id="path82539" d="m352.15,142.18c0.086-0.279,0.549-0.37,1.034-0.204s0.809,0.526,0.723,0.805-0.549,0.37-1.034,0.204-0.809-0.526-0.723-0.805z"/>
                     <path id="path82541" d="M353.02,142.48"/>
                    </g>
                    <path id="path82543" d="m346.15,155.97c0.181,0.587,0.781,0.909,1.339,0.718s0.863-0.822,0.682-1.409c-0.182-0.587-0.781-0.909-1.339-0.718s-0.864,0.821-0.682,1.409z"/>
                    <path id="path82545" d="m349.4,152.81c0.056,0.5,0.432,1.197,1.055,1.296s2.68-2.279,2.327-2.782-3.438,0.986-3.382,1.486z"/>
                    <path id="path82547" d="m345.73,149.58s-0.489-1.178-0.54-2.304c-0.052-1.126,5.563-1.459,6.036-0.364,0.136,0.316,0.22,0.712,0.22,0.712s0.154,0.372,0.22,0.712c0.229,1.178-4.498,4.384-5.085,3.441s-0.851-2.197-0.851-2.197z"/>
                    <path id="path82549" d="m345.75,143.83c-0.063,1.008-0.465,2.131-2.076,2.219,0.137,1.383,0.358,2.595,0.783,3.971s0.922,2.493,1.585,3.697c1.351-0.925,2.304-0.266,2.918,0.51" stroke="#000" stroke-width="0.5" fill="none"/>
                    <path id="path82551" d="m352.04,143.78c-0.025,0.929-1.136,1.375-1.136,1.375,0.694,0.025,1.268,1.275,1.525,2.107l0.017,0.054c0.257,0.833,0.491,2.198-0.056,2.648,0,0,1.147-0.327,1.687,0.408" stroke="#000" stroke-width="0.5" fill="none"/>
                    <g id="g82553" stroke-width="0.5" stroke="#000" fill="none">
                     <path id="path82555" d="m352.13,145.39c0.086,0.279,0.549,0.37,1.034,0.204s0.809-0.526,0.722-0.805c-0.086-0.279-0.549-0.37-1.034-0.204-0.485,0.167-0.809,0.527-0.722,0.805z"/>
                     <path id="path82557" d="M353.01,145.09"/>
                    </g>
                    <g id="g82559" stroke-width="0.5" stroke="#000" fill="none">
                     <path id="path82561" d="m353.23,148.96c-0.086-0.279,0.237-0.639,0.723-0.805,0.485-0.166,0.948-0.075,1.034,0.204,0.086,0.278-0.238,0.639-0.723,0.805s-0.948,0.074-1.034-0.204z"/>
                     <path id="path82563" d="M354.11,148.66"/>
                    </g>
                    <path id="path82565" d="m352.18,158.92s-1.053-0.651-1.724-1.53c-0.67-0.879,3.687-4.623,4.68-4.029,0.287,0.171,0.576,0.44,0.576,0.44s0.332,0.206,0.575,0.44c0.844,0.811-1.191,6.33-2.192,5.931s-1.915-1.252-1.915-1.252z"/>
                    <path id="path82567" d="m348.98,154.25c0.511,0.854,0.813,2.012-0.44,3.079,0.883,1.035,1.739,1.878,2.851,2.729,1.112,0.85,2.139,1.446,3.346,2.01,0.577-1.585,1.716-1.641,2.646-1.393" stroke="#000" stroke-width="0.5" fill="none"/>
                    <path id="path82569" d="m354.04,150.32c0.499,0.767-0.151,1.815-0.151,1.815,0.576-0.409,1.737,0.247,2.41,0.761l0.044,0.034c0.672,0.514,1.625,1.474,1.433,2.177,0,0,0.746-0.975,1.593-0.713" stroke="#000" stroke-width="0.5" fill="none"/>
                    <g id="g82571" stroke-width="0.5" stroke="#000" fill="none">
                     <path id="path82573" d="m355.01,151.57c0.225,0.172,0.651-0.041,0.951-0.475s0.36-0.926,0.135-1.098-0.65,0.041-0.95,0.475c-0.301,0.434-0.361,0.926-0.136,1.098z"/>
                     <path id="path82575" d="M355.56,150.78"/>
                    </g>
                    <g id="g82577" stroke-width="0.5" stroke="#000" fill="none">
                     <path id="path82579" d="m357.9,153.78c-0.225-0.172-0.165-0.664,0.135-1.098,0.3-0.435,0.726-0.647,0.951-0.475s0.165,0.664-0.135,1.098-0.726,0.647-0.951,0.475z"/>
                     <path id="path82581" d="M358.45,152.99"/>
                    </g>
                    <g id="g82583" stroke-width="0.5" stroke="#000" fill="none">
                     <ellipse id="ellipse82585" d="m 366.03299,143.81 c 0,1.99043 -1.53253,3.604 -3.423,3.604 -1.89048,0 -3.423,-1.61357 -3.423,-3.604 0,-1.99044 1.53252,-3.604 3.423,-3.604 1.89047,0 3.423,1.61356 3.423,3.604 z" cx="362.61" rx="3.423" cy="143.81" ry="3.604"/>
                     <path id="path82587" d="M362.61,143.81"/>
                    </g>
                    <g id="g82589" stroke-width="0.5" stroke="#000">
                     <ellipse id="ellipse82591" d="m 363.954,144.31 c 0,1.99043 -1.53298,3.604 -3.424,3.604 -1.89102,0 -3.424,-1.61357 -3.424,-3.604 0,-1.99044 1.53298,-3.604 3.424,-3.604 1.89102,0 3.424,1.61356 3.424,3.604 z" cx="360.53" rx="3.424" cy="144.31" ry="3.604"/>
                     <path id="path82593" d="M360.53,144.31"/>
                    </g>
                    <path id="path82595" d="M360.51,144.36" fill="#FFF"/>
                    <g id="g82597">
                     <g id="g82599">
                      <polygon id="polygon82601" points="362.82,143.71,358.67,143.71,358.15,145.01,362.29,145.01" fill="#FFF"/>
                     </g>
                     <g id="g82603" fill="#FFF">
                      <rect id="rect82605" y="143.1" x="359.74" width="1.524" height="2.406"/>
                      <path id="path82607" d="M360.51,144.31"/>
                     </g>
                    </g>
                    <g id="g82609">
                     <ellipse id="ellipse82611" d="m 369.70699,143.81 c 0,0.67213 -0.51801,1.217 -1.157,1.217 -0.639,0 -1.157,-0.54487 -1.157,-1.217 0,-0.67213 0.518,-1.217 1.157,-1.217 0.63899,0 1.157,0.54487 1.157,1.217 z" cx="368.55" rx="1.157" cy="143.81" ry="1.217"/>
                     <path id="path82613" d="M368.54,143.81"/>
                    </g>
                    <g id="g82615">
                     <path id="path82617" d="m365.78,138.38c0.197-0.639-0.135-1.326-0.743-1.534-0.607-0.208-1.26,0.142-1.457,0.781-0.198,0.64,0.135,1.326,0.742,1.534,0.607,0.209,1.26-0.141,1.458-0.781z"/>
                     <path id="path82619" d="M364.68,138"/>
                    </g>
                    <g id="g82621">
                     <path id="path82623" d="m358.92,139.09c-0.517-0.395-1.24-0.275-1.615,0.269s-0.261,1.305,0.256,1.701c0.517,0.395,1.24,0.274,1.615-0.27s0.26-1.305-0.256-1.7z"/>
                     <path id="path82625" d="M358.24,140.08"/>
                    </g>
                    <g id="g82627">
                     <path id="path82629" d="m357.44,146.18c-0.517,0.395-0.631,1.156-0.256,1.7s1.099,0.665,1.615,0.269c0.517-0.395,0.631-1.156,0.256-1.7s-1.098-0.664-1.615-0.269z"/>
                     <path id="path82631" d="M358.12,147.17"/>
                    </g>
                    <g id="g82633">
                     <path id="path82635" d="m363.39,149.85c0.197,0.639,0.85,0.989,1.457,0.781s0.94-0.894,0.743-1.534c-0.197-0.639-0.85-0.989-1.458-0.782-0.606,0.208-0.939,0.895-0.742,1.535z"/>
                     <path id="path82637" d="M364.49,149.47"/>
                    </g>
                   </g>
                   <g id="g82639">
                    <g id="g82641" fill="#FFF">
                     <ellipse id="ellipse82643" d="m 104.153,136.69 c 0,11.88241 -7.244928,21.515 -16.181999,21.515 -8.937072,0 -16.182,-9.63259 -16.182,-21.515 0,-11.8824 7.244928,-21.515 16.182,-21.515 8.937071,0 16.181999,9.6326 16.181999,21.515 z" cx="87.971" rx="16.182" cy="136.69" ry="21.515"/>
                     <path id="path82645" d="M87.971,136.69"/>
                    </g>
                    <g id="g82647" stroke-width="0.5" stroke="#000" fill="none">
                     <ellipse id="ellipse82649" d="m 102.534,136.69 c 0,10.69444 -6.520077,19.364 -14.562999,19.364 -8.042923,0 -14.563,-8.66956 -14.563,-19.364 0,-10.69444 6.520077,-19.364 14.563,-19.364 8.042922,0 14.562999,8.66956 14.562999,19.364 z" cx="87.971" rx="14.563" cy="136.69" ry="19.364"/>
                     <path id="path82651" d="M87.971,136.69"/>
                    </g>
                    <path id="path82653" d="M92.173,153.9"/>
                    <g id="g82655">
                     <ellipse id="ellipse82657" d="m 92.929997,153.89999 c 0,0.55615 -0.338921,1.007 -0.757,1.007 -0.41808,0 -0.757001,-0.45085 -0.757001,-1.007 0,-0.55615 0.338921,-1.007 0.757001,-1.007 0.418079,0 0.757,0.45085 0.757,1.007 z" cx="92.173" rx="0.757" cy="153.9" ry="1.007"/>
                     <path id="path82659" d="m90.859,151.09c0.334,0.089,0.866-0.056,1.066-0.59,0.201-0.534-0.876-3.048-1.278-2.871-0.401,0.179-0.122,3.372,0.212,3.461z"/>
                     <path id="path82661" d="m87.971,153.51s-0.866,0.112-1.602-0.154c-0.736-0.267,0.287-5.418,1.095-5.54,0.234-0.035,0.507,0,0.507,0s0.273-0.035,0.507,0c0.809,0.122,1.832,5.273,1.095,5.54-0.736,0.266-1.602,0.154-1.602,0.154z"/>
                     <ellipse id="ellipse82663" d="m 84.525997,153.89999 c 0,0.55615 -0.33892,1.007 -0.757,1.007 -0.418079,0 -0.757,-0.45085 -0.757,-1.007 0,-0.55615 0.338921,-1.007 0.757,-1.007 0.41808,0 0.757,0.45085 0.757,1.007 z" cx="83.769" rx="0.757" cy="153.9" ry="1.007"/>
                     <path id="path82665" d="m85.083,151.09c-0.334,0.089-0.866-0.056-1.066-0.59s0.877-3.048,1.278-2.871,0.123,3.372-0.212,3.461z"/>
                     <path id="path82667" d="m84.271,151.88c0.635,0.338,1.269,1.013,0.971,2.488,0.921,0.262,1.749,0.399,2.729,0.399s1.808-0.138,2.729-0.399c-0.298-1.475,0.336-2.15,0.971-2.488" stroke="#000" stroke-width="0.5" fill="none"/>
                     <path id="path82669" d="m85.625,146.2c0.592,0.281,0.635,1.406,0.635,1.406,0.169-0.619,1.1-0.788,1.692-0.788h0.039c0.592,0,1.523,0.169,1.692,0.788,0,0,0.042-1.125,0.635-1.406" stroke="#000" stroke-width="0.5" fill="none"/>
                     <g id="g82671" stroke-width="0.5" stroke="#000" fill="none">
                      <ellipse id="ellipse82673" d="m 87.038001,145.7 c 0,0.48325 -0.16073,0.875 -0.359,0.875 -0.19827,0 -0.359,-0.39175 -0.359,-0.875 0,-0.48325 0.16073,-0.875 0.359,-0.875 0.19827,0 0.359,0.39175 0.359,0.875 z" cx="86.679" rx="0.359" cy="145.7" ry="0.875"/>
                      <path id="path82675" d="M86.679,145.7"/>
                     </g>
                     <g id="g82677" stroke-width="0.5" stroke="#000" fill="none">
                      <ellipse id="ellipse82679" d="m 89.582999,145.7 c 0,0.48325 -0.16073,0.875 -0.359,0.875 -0.19827,0 -0.359,-0.39175 -0.359,-0.875 0,-0.48325 0.16073,-0.875 0.359,-0.875 0.19827,0 0.359,0.39175 0.359,0.875 z" cx="89.224" rx="0.359" cy="145.7" ry="0.875"/>
                      <path id="path82681" d="M89.224,145.7"/>
                     </g>
                    </g>
                    <path id="path82683" d="m99.421,148.14c0.338-0.327,0.413-0.957,0.167-1.406-0.246-0.45-0.719-0.549-1.058-0.223s-0.413,0.957-0.167,1.406c0.246,0.45,0.72,0.55,1.058,0.223z"/>
                    <path id="path82685" d="m96.675,146.09c0.31-0.189,0.676-0.723,0.602-1.311-0.074-0.589-2.057-1.781-2.303-1.323s1.391,2.824,1.701,2.634z"/>
                    <path id="path82687" d="m95.405,150.29s-0.651,0.768-1.364,1.127-2.164-4.607-1.563-5.337c0.174-0.211,0.41-0.396,0.41-0.396s0.206-0.242,0.41-0.396c0.708-0.534,3.812,2.834,3.335,3.625-0.478,0.791-1.228,1.377-1.228,1.377z"/>
                    <path id="path82689" d="m91.694,151.87c0.663-0.223,1.474-0.173,1.885,1.253,0.86-0.508,1.592-1.044,2.384-1.81s1.401-1.524,2.031-2.456c-0.893-0.96-0.678-2.003-0.314-2.771" stroke="#000" stroke-width="0.5" fill="none"/>
                    <path id="path82691" d="m90.278,146.22c0.604-0.235,1.135,0.642,1.135,0.642-0.137-0.633,0.542-1.497,1.021-1.959l0.031-0.03c0.479-0.463,1.307-1.054,1.717-0.686,0,0-0.463-0.943-0.108-1.633" stroke="#000" stroke-width="0.5" fill="none"/>
                    <g id="g82693" stroke-width="0.5" stroke="#000" fill="none">
                     <path id="path82695" d="m91.293,145.69c0.161-0.155,0.117-0.598-0.096-0.988-0.214-0.391-0.517-0.583-0.677-0.428-0.161,0.155-0.117,0.598,0.096,0.989,0.214,0.391,0.517,0.582,0.677,0.427z"/>
                     <path id="path82697" d="M90.906,144.98"/>
                    </g>
                    <g id="g82699" stroke-width="0.5" stroke="#000" fill="none">
                     <path id="path82701" d="m93.353,143.7c-0.161,0.155-0.464-0.037-0.677-0.428-0.214-0.391-0.257-0.833-0.097-0.988,0.161-0.155,0.464,0.036,0.677,0.427,0.214,0.391,0.257,0.834,0.097,0.989z"/>
                     <path id="path82703" d="M92.966,143"/>
                    </g>
                    <path id="path82705" d="m102.3,137c0.129-0.529-0.088-1.097-0.486-1.269-0.397-0.171-0.825,0.118-0.954,0.646-0.129,0.529,0.088,1.097,0.486,1.268,0.397,0.173,0.824-0.116,0.954-0.645z"/>
                    <path id="path82707" d="m99.166,137.49c0.167-0.396,0.227-1.113-0.093-1.531-0.32-0.419-2.451,0.167-2.448,0.729,0.004,0.563,2.374,1.198,2.541,0.802z"/>
                    <path id="path82709" d="m99.998,141.89s-0.187,1.13-0.605,1.978c-0.418,0.849-3.788-2.036-3.624-3.096,0.047-0.307,0.156-0.641,0.156-0.641s0.06-0.356,0.157-0.641c0.336-0.985,4.337-0.687,4.301,0.327-0.037,1.013-0.385,2.073-0.385,2.073z"/>
                    <path id="path82711" d="m97.695,146.06c0.438-0.698,1.116-1.292,2.08-0.459,0.472-1.083,0.826-2.088,1.128-3.327,0.303-1.239,0.46-2.329,0.558-3.574-1.147-0.079-1.434-1.09-1.479-1.997" stroke="#000" stroke-width="0.5" fill="none"/>
                    <path id="path82713" d="m94.049,142.6c0.384-0.662,1.202-0.368,1.202-0.368-0.391-0.405-0.224-1.634-0.041-2.383l0.012-0.049c0.183-0.749,0.591-1.874,1.086-1.896,0,0-0.792-0.401-0.81-1.237" stroke="#000" stroke-width="0.5" fill="none"/>
                    <g id="g82715" stroke-width="0.5" stroke="#000" fill="none">
                     <path id="path82717" d="m94.639,141.38c0.061-0.251-0.169-0.575-0.515-0.725-0.346-0.149-0.676-0.067-0.737,0.184-0.062,0.251,0.169,0.575,0.515,0.725,0.345,0.149,0.675,0.067,0.737-0.184z"/>
                     <path id="path82719" d="M94.013,141.11"/>
                    </g>
                    <g id="g82721" stroke-width="0.5" stroke="#000" fill="none">
                     <path id="path82723" d="m95.425,138.16c-0.061,0.251-0.391,0.333-0.737,0.184s-0.576-0.474-0.515-0.724c0.061-0.251,0.391-0.333,0.737-0.184s0.577,0.474,0.515,0.724z"/>
                     <path id="path82725" d="M94.8,137.89"/>
                    </g>
                    <path id="path82727" d="m99.698,125.75c-0.129-0.529-0.557-0.818-0.954-0.646-0.397,0.171-0.615,0.74-0.486,1.268,0.129,0.529,0.556,0.818,0.954,0.646,0.398-0.171,0.615-0.739,0.486-1.268z"/>
                    <path id="path82729" d="m97.381,128.59c-0.04-0.451-0.308-1.078-0.752-1.167s-1.91,2.051-1.658,2.503,2.45-0.885,2.41-1.336z"/>
                    <path id="path82731" d="m99.998,131.49s0.348,1.06,0.385,2.074c0.036,1.013-3.964,1.313-4.301,0.327-0.097-0.285-0.157-0.641-0.157-0.641s-0.109-0.334-0.157-0.641c-0.163-1.061,3.206-3.945,3.624-3.097,0.419,0.848,0.606,1.978,0.606,1.978z"/>
                    <path id="path82733" d="m99.981,136.67c0.045-0.907,0.332-1.918,1.479-1.997-0.098-1.245-0.255-2.335-0.558-3.574s-0.658-2.244-1.129-3.327c-0.963,0.833-1.642,0.239-2.079-0.459" stroke="#000" stroke-width="0.5" fill="none"/>
                    <path id="path82735" d="m95.499,136.72c0.019-0.836,0.81-1.237,0.81-1.237-0.495-0.023-0.903-1.148-1.086-1.896l-0.012-0.049c-0.183-0.749-0.35-1.978,0.04-2.383,0,0-0.817,0.294-1.202-0.368" stroke="#000" stroke-width="0.5" fill="none"/>
                    <g id="g82737" stroke-width="0.5" stroke="#000" fill="none">
                     <path id="path82739" d="m95.437,135.27c-0.062-0.25-0.391-0.333-0.737-0.184s-0.577,0.474-0.515,0.725c0.062,0.25,0.391,0.333,0.737,0.184,0.346-0.15,0.576-0.474,0.515-0.725z"/>
                     <path id="path82741" d="M94.811,135.54"/>
                    </g>
                    <g id="g82743" stroke-width="0.5" stroke="#000" fill="none">
                     <path id="path82745" d="m94.65,132.05c0.062,0.25-0.169,0.575-0.515,0.724s-0.676,0.067-0.737-0.183c-0.062-0.251,0.169-0.575,0.515-0.725s0.676-0.067,0.737,0.184z"/>
                     <path id="path82747" d="M94.024,132.32"/>
                    </g>
                    <path id="path82749" d="m92.621,118.67c-0.338-0.327-0.812-0.227-1.057,0.223-0.246,0.45-0.171,1.079,0.167,1.406s0.812,0.227,1.057-0.223c0.247-0.45,0.172-1.079-0.167-1.406z"/>
                    <path id="path82751" d="m92.001,122.78c-0.231-0.333-0.726-0.631-1.124-0.356s-0.638,3.151-0.234,3.321c0.403,0.17,1.59-2.631,1.358-2.965z"/>
                    <path id="path82753" d="m95.404,123.09s0.75,0.585,1.228,1.376c0.478,0.792-2.627,4.16-3.335,3.626-0.204-0.154-0.41-0.396-0.41-0.396s-0.237-0.185-0.41-0.396c-0.601-0.73,0.849-5.697,1.563-5.337s1.364,1.127,1.364,1.127z"/>
                    <path id="path82755" d="m97.68,127.29c-0.364-0.769-0.58-1.811,0.313-2.771-0.629-0.931-1.238-1.69-2.031-2.456s-1.524-1.301-2.384-1.809c-0.411,1.426-1.223,1.477-1.885,1.253" stroke="#000" stroke-width="0.5" fill="none"/>
                    <path id="path82757" d="m94.073,130.83c-0.354-0.69,0.108-1.634,0.108-1.634-0.41,0.369-1.238-0.222-1.717-0.685l-0.031-0.03c-0.479-0.463-1.157-1.327-1.021-1.959,0,0-0.531,0.877-1.135,0.642" stroke="#000" stroke-width="0.5" fill="none"/>
                    <g id="g82759" stroke-width="0.5" stroke="#000" fill="none">
                     <path id="path82761" d="m93.384,129.71c-0.161-0.155-0.464,0.037-0.677,0.427-0.213,0.391-0.257,0.834-0.096,0.989,0.16,0.155,0.463-0.037,0.677-0.428,0.213-0.39,0.256-0.833,0.096-0.988z"/>
                     <path id="path82763" d="M92.997,130.42"/>
                    </g>
                    <g id="g82765" stroke-width="0.5" stroke="#000" fill="none">
                     <path id="path82767" d="m91.324,127.72c0.161,0.155,0.117,0.598-0.096,0.988-0.214,0.391-0.517,0.583-0.677,0.428-0.161-0.155-0.117-0.598,0.096-0.988,0.214-0.392,0.517-0.583,0.677-0.428z"/>
                     <path id="path82769" d="M90.937,128.43"/>
                    </g>
                    <ellipse id="ellipse82771" d="m 84.524998,119.49 c 0,0.55615 -0.338921,1.007 -0.757,1.007 -0.41808,0 -0.757,-0.45085 -0.757,-1.007 0,-0.55615 0.33892,-1.007 0.757,-1.007 0.418079,0 0.757,0.45085 0.757,1.007 z" cx="83.768" rx="0.757" cy="119.49" ry="1.007"/>
                    <path id="path82773" d="m85.082,122.29c-0.335-0.089-0.866,0.057-1.067,0.59s0.877,3.048,1.278,2.871c0.403-0.178,0.124-3.372-0.211-3.461z"/>
                    <path id="path82775" d="m87.97,119.88s0.866-0.112,1.602,0.154c0.736,0.267-0.286,5.418-1.095,5.54-0.234,0.035-0.507,0-0.507,0s-0.273,0.035-0.507,0c-0.809-0.121-1.832-5.272-1.096-5.54,0.737-0.266,1.603-0.154,1.603-0.154z"/>
                    <path id="path82777" d="m91.67,121.5c-0.634-0.337-1.269-1.012-0.971-2.487-0.921-0.262-1.749-0.399-2.729-0.399-0.979,0-1.808,0.138-2.729,0.4,0.298,1.475-0.336,2.15-0.971,2.488" stroke="#000" stroke-width="0.5" fill="none"/>
                    <path id="path82779" d="m90.317,127.18c-0.592-0.281-0.635-1.406-0.635-1.406-0.169,0.619-1.1,0.788-1.692,0.788h-0.039c-0.592,0-1.523-0.168-1.692-0.788,0,0-0.042,1.125-0.635,1.406" stroke="#000" stroke-width="0.5" fill="none"/>
                    <g id="g82781" stroke-width="0.5" stroke="#000" fill="none">
                     <ellipse id="ellipse82783" d="m 89.621001,127.69 c 0,0.48325 -0.16073,0.875 -0.359,0.875 -0.19827,0 -0.359,-0.39175 -0.359,-0.875 0,-0.48325 0.16073,-0.875 0.359,-0.875 0.19827,0 0.359,0.39175 0.359,0.875 z" cx="89.262" rx="0.359" cy="127.69" ry="0.875"/>
                     <path id="path82785" d="M89.262,127.69"/>
                    </g>
                    <g id="g82787" stroke-width="0.5" stroke="#000" fill="none">
                     <ellipse id="ellipse82789" d="m 87.076003,127.69 c 0,0.48325 -0.16073,0.875 -0.359,0.875 -0.19827,0 -0.359,-0.39175 -0.359,-0.875 0,-0.48325 0.16073,-0.875 0.359,-0.875 0.19827,0 0.359,0.39175 0.359,0.875 z" cx="86.717" rx="0.359" cy="127.69" ry="0.875"/>
                     <path id="path82791" d="M86.717,127.69"/>
                    </g>
                    <path id="path82793" d="m76.52,125.24c-0.338,0.327-0.413,0.957-0.167,1.406,0.246,0.45,0.719,0.549,1.057,0.222s0.413-0.956,0.167-1.406-0.718-0.549-1.057-0.222z"/>
                    <path id="path82795" d="m79.267,127.3c-0.311,0.19-0.676,0.723-0.603,1.312,0.074,0.589,2.057,1.781,2.303,1.323,0.247-0.458-1.391-2.825-1.7-2.635z"/>
                    <path id="path82797" d="m80.537,123.09s0.65-0.768,1.364-1.127,2.164,4.607,1.563,5.337c-0.173,0.211-0.41,0.396-0.41,0.396s-0.206,0.242-0.41,0.396c-0.708,0.534-3.813-2.834-3.335-3.625,0.477-0.791,1.228-1.377,1.228-1.377z"/>
                    <path id="path82799" d="m84.247,121.51c-0.663,0.223-1.475,0.173-1.886-1.253-0.86,0.508-1.591,1.044-2.384,1.81s-1.402,1.524-2.031,2.456c0.893,0.96,0.678,2.002,0.314,2.771" stroke="#000" stroke-width="0.5" fill="none"/>
                    <path id="path82801" d="m85.664,127.16c-0.604,0.235-1.135-0.642-1.135-0.642,0.137,0.633-0.542,1.497-1.021,1.959l-0.031,0.03c-0.479,0.463-1.307,1.054-1.717,0.686,0,0,0.463,0.943,0.108,1.634" stroke="#000" stroke-width="0.5" fill="none"/>
                    <g id="g82803" stroke-width="0.5" stroke="#000" fill="none">
                     <path id="path82805" d="m84.648,127.69c-0.16,0.155-0.117,0.597,0.096,0.988,0.214,0.391,0.517,0.583,0.678,0.427,0.16-0.155,0.117-0.598-0.097-0.988-0.213-0.39-0.517-0.582-0.677-0.427z"/>
                     <path id="path82807" d="M85.035,128.4"/>
                    </g>
                    <g id="g82809" stroke-width="0.5" stroke="#000" fill="none">
                     <path id="path82811" d="m82.589,129.68c0.16-0.155,0.463,0.036,0.677,0.427,0.213,0.391,0.257,0.833,0.096,0.988-0.16,0.155-0.463-0.036-0.677-0.427-0.213-0.391-0.257-0.833-0.096-0.988z"/>
                     <path id="path82813" d="M82.976,130.39"/>
                    </g>
                    <path id="path82815" d="m73.647,136.38c-0.129,0.528,0.088,1.096,0.486,1.268,0.398,0.171,0.825-0.118,0.954-0.646,0.129-0.529-0.088-1.097-0.486-1.268-0.398-0.172-0.825,0.117-0.954,0.646z"/>
                    <path id="path82817" d="m76.776,135.89c-0.167,0.396-0.228,1.112,0.092,1.531s2.452-0.167,2.448-0.73c-0.003-0.563-2.373-1.197-2.54-0.801z"/>
                    <path id="path82819" d="m75.943,131.5s0.187-1.13,0.605-1.978c0.418-0.849,3.787,2.036,3.624,3.096-0.047,0.307-0.156,0.641-0.156,0.641s-0.06,0.356-0.157,0.641c-0.336,0.985-4.337,0.687-4.301-0.326,0.037-1.014,0.385-2.074,0.385-2.074z"/>
                    <path id="path82821" d="m78.247,127.32c-0.438,0.698-1.116,1.292-2.079,0.46-0.472,1.083-0.826,2.088-1.129,3.327-0.302,1.239-0.46,2.329-0.557,3.574,1.147,0.079,1.434,1.09,1.479,1.997" stroke="#000" stroke-width="0.5" fill="none"/>
                    <path id="path82823" d="m81.892,130.79c-0.384,0.662-1.202,0.368-1.202,0.368,0.39,0.405,0.224,1.634,0.041,2.383l-0.012,0.049c-0.183,0.749-0.591,1.874-1.086,1.897,0,0,0.792,0.401,0.81,1.237" stroke="#000" stroke-width="0.5" fill="none"/>
                    <g id="g82825" stroke-width="0.5" stroke="#000" fill="none">
                     <path id="path82827" d="m81.303,132c-0.061,0.25,0.169,0.575,0.515,0.724s0.676,0.067,0.737-0.184-0.169-0.575-0.515-0.724-0.675-0.067-0.737,0.184z"/>
                     <path id="path82829" d="M81.929,132.28"/>
                    </g>
                    <g id="g82831" stroke-width="0.5" stroke="#000" fill="none">
                     <path id="path82833" d="m80.517,135.22c0.061-0.25,0.391-0.333,0.737-0.184s0.576,0.474,0.515,0.725c-0.062,0.25-0.391,0.333-0.737,0.184s-0.577-0.474-0.515-0.725z"/>
                     <path id="path82835" d="M81.143,135.49"/>
                    </g>
                    <path id="path82837" d="m76.244,147.63c0.129,0.528,0.557,0.818,0.954,0.646s0.615-0.74,0.486-1.269-0.556-0.818-0.954-0.646c-0.397,0.172-0.615,0.74-0.486,1.269z"/>
                    <path id="path82839" d="m78.562,144.8c0.04,0.451,0.308,1.078,0.752,1.167s1.909-2.051,1.658-2.504-2.45,0.887-2.41,1.337z"/>
                    <path id="path82841" d="m75.944,141.89s-0.348-1.061-0.385-2.074,3.964-1.313,4.301-0.328c0.097,0.285,0.157,0.641,0.157,0.641s0.109,0.334,0.157,0.641c0.163,1.061-3.205,3.946-3.624,3.098s-0.606-1.978-0.606-1.978z"/>
                    <path id="path82843" d="m75.961,136.71c-0.045,0.907-0.332,1.918-1.479,1.997,0.098,1.245,0.255,2.335,0.558,3.574s0.657,2.244,1.129,3.327c0.963-0.833,1.642-0.239,2.08,0.459" stroke="#000" stroke-width="0.5" fill="none"/>
                    <path id="path82845" d="m80.443,136.66c-0.018,0.835-0.81,1.237-0.81,1.237,0.495,0.023,0.903,1.147,1.086,1.896l0.012,0.049c0.183,0.749,0.35,1.978-0.04,2.383,0,0,0.818-0.294,1.202,0.368" stroke="#000" stroke-width="0.5" fill="none"/>
                    <g id="g82847" stroke-width="0.5" stroke="#000" fill="none">
                     <path id="path82849" d="m80.505,138.11c0.062,0.25,0.391,0.333,0.737,0.183s0.576-0.474,0.515-0.724c-0.061-0.251-0.391-0.333-0.736-0.184-0.346,0.15-0.577,0.474-0.516,0.725z"/>
                     <path id="path82851" d="M81.131,137.84"/>
                    </g>
                    <g id="g82853" stroke-width="0.5" stroke="#000" fill="none">
                     <path id="path82855" d="m81.292,141.33c-0.062-0.251,0.169-0.575,0.515-0.725s0.676-0.067,0.737,0.184c0.062,0.25-0.169,0.575-0.515,0.724s-0.676,0.068-0.737-0.183z"/>
                     <path id="path82857" d="M81.918,141.06"/>
                    </g>
                    <path id="path82859" d="m80.539,150.3s-0.75-0.586-1.228-1.377,2.626-4.16,3.334-3.626c0.205,0.154,0.41,0.396,0.41,0.396s0.236,0.185,0.41,0.396c0.601,0.73-0.849,5.697-1.562,5.338-0.713-0.36-1.364-1.127-1.364-1.127z"/>
                    <path id="path82861" d="m78.263,146.09c0.364,0.769,0.58,1.811-0.313,2.771,0.629,0.931,1.239,1.69,2.031,2.456,0.792,0.765,1.523,1.301,2.384,1.809,0.411-1.426,1.223-1.477,1.885-1.254" stroke="#000" stroke-width="0.5" fill="none"/>
                    <path id="path82863" d="m81.869,142.55c0.355,0.69-0.108,1.634-0.108,1.634,0.411-0.368,1.238,0.222,1.717,0.685l0.031,0.03c0.479,0.463,1.158,1.327,1.021,1.959,0,0,0.531-0.877,1.135-0.642" stroke="#000" stroke-width="0.5" fill="none"/>
                    <g id="g82865" stroke-width="0.5" stroke="#000" fill="none">
                     <path id="path82867" d="m82.559,143.68c0.161,0.155,0.464-0.037,0.677-0.427,0.214-0.391,0.257-0.833,0.097-0.989-0.161-0.155-0.464,0.037-0.677,0.428-0.214,0.391-0.257,0.833-0.097,0.988z"/>
                     <path id="path82869" d="M82.946,142.97"/>
                    </g>
                    <g id="g82871" stroke-width="0.5" stroke="#000" fill="none">
                     <path id="path82873" d="m84.618,145.66c-0.16-0.155-0.117-0.598,0.097-0.989,0.213-0.391,0.517-0.583,0.677-0.427,0.16,0.155,0.117,0.597-0.097,0.988-0.213,0.391-0.516,0.583-0.677,0.428z"/>
                     <path id="path82875" d="M85.006,144.96"/>
                    </g>
                    <g id="g82877" stroke-width="0.5" stroke="#000" fill="none">
                     <ellipse id="ellipse82879" d="m 90.410001,136.69 c 0,1.79106 -1.091978,3.243 -2.439,3.243 -1.347023,0 -2.439,-1.45194 -2.439,-3.243 0,-1.79106 1.091977,-3.243 2.439,-3.243 1.347022,0 2.439,1.45194 2.439,3.243 z" cx="87.971" rx="2.439" cy="136.69" ry="3.243"/>
                     <path id="path82881" d="M87.971,136.69"/>
                    </g>
                    <g id="g82883" stroke-width="0.5" stroke="#000">
                     <ellipse id="ellipse82885" d="m 88.928998,137.14 c 0,1.79106 -1.091978,3.243 -2.439,3.243 -1.347023,0 -2.439,-1.45194 -2.439,-3.243 0,-1.79106 1.091977,-3.243 2.439,-3.243 1.347022,0 2.439,1.45194 2.439,3.243 z" cx="86.49" rx="2.439" cy="137.14" ry="3.243"/>
                     <path id="path82887" d="M86.49,137.14"/>
                    </g>
                    <path id="path82889" d="M86.473,137.19" fill="#FFF"/>
                    <g id="g82891">
                     <g id="g82893">
                      <polygon id="polygon82895" points="88.119,136.6,85.167,136.6,84.794,137.77,87.745,137.77" fill="#FFF"/>
                     </g>
                     <g id="g82897" fill="#FFF">
                      <rect id="rect82899" y="136.06" x="85.93" width="1.086" height="2.165"/>
                      <path id="path82901" d="M86.473,137.14"/>
                     </g>
                    </g>
                    <g id="g82903">
                     <ellipse id="ellipse82905" d="m 93.024996,136.69 c 0,0.60475 -0.368917,1.095 -0.824,1.095 -0.455082,0 -0.824,-0.49025 -0.824,-1.095 0,-0.60475 0.368918,-1.095 0.824,-1.095 0.455083,0 0.824,0.49025 0.824,1.095 z" cx="92.201" rx="0.824" cy="136.69" ry="1.095"/>
                     <path id="path82907" d="M92.201,136.69"/>
                    </g>
                    <g id="g82909">
                     <path id="path82911" d="m90.229,131.8c0.141-0.576-0.096-1.193-0.529-1.38s-0.898,0.128-1.039,0.703c-0.141,0.576,0.097,1.194,0.529,1.381,0.434,0.186,0.899-0.128,1.039-0.704z"/>
                     <path id="path82913" d="M89.446,131.46"/>
                    </g>
                    <g id="g82915">
                     <path id="path82917" d="m85.341,132.45c-0.368-0.355-0.884-0.247-1.151,0.242-0.268,0.49-0.186,1.175,0.182,1.53,0.368,0.356,0.883,0.248,1.151-0.242,0.267-0.489,0.186-1.174-0.182-1.53z"/>
                     <path id="path82919" d="M84.856,133.33"/>
                    </g>
                    <g id="g82921">
                     <path id="path82923" d="m84.291,138.83c-0.368,0.355-0.449,1.041-0.182,1.53,0.268,0.489,0.783,0.598,1.151,0.242s0.45-1.041,0.183-1.53c-0.268-0.489-0.784-0.598-1.152-0.242z"/>
                     <path id="path82925" d="M84.775,139.72"/>
                    </g>
                    <g id="g82927">
                     <path id="path82929" d="m88.531,142.13c0.141,0.575,0.605,0.89,1.038,0.704,0.433-0.187,0.669-0.805,0.529-1.381-0.141-0.575-0.605-0.89-1.038-0.703s-0.669,0.805-0.529,1.38z"/>
                     <path id="path82931" d="M89.315,141.79"/>
                    </g>
                   </g>
                   <g id="g82933">
                    <path id="path82935" d="m13.837,68.184s123.54,2.673,148.54,3.744c28.75-0.536,204.46,5.536,246.6,8.75,13.571,0.714,21.071-0.714,30.714-1.071s65.714-6.429,68.928-8.214" stroke="#000" stroke-width="0.5" fill="none"/>
                   </g>
                   <g id="g82937">
                    <path id="path82939" d="m13.837,66.755s123.54,2.673,148.54,3.745c28.75-0.536,204.46,5.536,246.6,8.75,13.571,0.714,21.071-0.714,30.714-1.071s65.714-6.428,68.928-8.214" stroke="#000" stroke-width="0.5" fill="none"/>
                   </g>
                   <path id="path82941" d="m55.052,102.28s-39.643-1.786-42.678-1.607c-3.036,0.178,2.322,0.893,3.036-3.75" stroke="#000" stroke-width="0.5" fill="none"/>
                   <path id="path82943" d="m54.873,104.96s-38.571-2.143-40.178-2.143-3.572,1.964-3.572,1.964" stroke="#000" stroke-width="0.5" fill="none"/>
                   <path id="path82945" d="m55.052,122.73c-0.714-12.143-0.536-27.5,5.179-33.214s8.928-7.5,23.036-7.5c14.107,0,28.571,6.25,33.035,24.107,3.961,15.842,6.786,25.714,10,26.607" stroke="#000" stroke-width="0.5" fill="none"/>
                   <path id="path82947" d="m16.124,58.982c2.143-1.429,4.286-1.607,11.786-1.607s132.86,1.786,136.07,2.857" stroke="#000" stroke-width="0.5" fill="none"/>
                   <line id="line82949" stroke-width="0.5" x1="114.87" x2="114.87" stroke="#000" y1="49.339" y2="55.053" fill="none"/>
                   <polyline id="polyline82951" stroke="#000" points="114.87,50.054,31.124,55.411,101.48,56.125" stroke-width="0.5" fill="none"/>
                   <path id="path82953" d="m284.53,58.411c1.072,0.893,2.214,3.339-0.107,6.732s4.107,1.607,6.429,0.179c2.321-1.429,5.321-6.036,4.071-6.75s-10.393-0.161-10.393-0.161z"/>
                   <path id="path82955" d="m229.43,11.036c-3.393-0.179-5.536,0.178-6.607,3.928s-5.714,17.321-8.928,41.786c-0.28,2.132,0.417,2.321,3.214,2.321,1.682,0,82.321,1.25,82.321,1.25s-23.929-35.892-29.107-42.321c-5.179-6.428-5.714-6.607-13.214-6.607s-27.679-0.357-27.679-0.357z" stroke="#000" stroke-width="0.5" fill="none"/>
                   <path id="path82957" d="m309.29,56.929s-3.081,0.535-4.152,2.856" stroke="#000" stroke-width="0.5" fill="none"/>
                   <path id="path82959" d="m349.78,6.929c-7.857-1.964-58.214,0.714-66.785,2.321-7.423,1.392-6.428,2.5-3.75,6.786l28.393,41.429c1.607,2.143,11.964,1.786,16.964,1.786s15.714-5.357,79.642-7.143" stroke="#000" stroke-width="0.5" fill="none"/>
                   <path id="path82961" d="m214.07,54.786c-1.071,5.536-0.714,7.321,11.607,7.321s67.142-0.357,90,0.714c22.856,1.071,93.213,9.286,102.14,12.143,3.928,0.714,42.5-5.357,48.571-5.714,6.072-0.357,35-1.429,37.143-1.429s5-0.714,2.857-1.786" stroke="#000" stroke-width="0.5" fill="none"/>
                   <g id="g82963">
                    <path id="path82965" d="m340.68,56.75c24.643,1.786,69.285,9.643,77.5,11.428s-68.214-10.357-80.356-10.357" stroke="#000" stroke-width="0.5" fill="none"/>
                   </g>
                   <path id="path82967" d="m397.82,52.464c24.643,1.786,69.285,9.643,77.5,11.428" stroke="#000" stroke-width="0.5" fill="none"/>
                   <path id="path82969" d="m364.96,54.25s90.714,11.428,100.36,15c3.571,1.428,4.643,6.071,4.643,6.071" stroke="#000" stroke-width="0.5" fill="none"/>
                   <path id="path82971" d="m509.18,74.795c-1.54-0.724-1.719-1.082-8.147,0.168s-64.106,7.857-72.5,8.214c-8.393,0.357-10.536,0.357-10.536,0.357-2.857,0-3.393,1.607-3.393,4.643s0.179,20,0,21.786,1.071,2.5,4.464,2.5,11.607-0.536,24.643-2.143c63.763-7.861,66.111-11.186,66.111-11.186" stroke="#000" stroke-width="0.5" fill="none"/>
                   <path id="path82973" d="m517.21,102.3s-42.556,7.862-60.697,10.083c-19.375,2.372-41.245,4.35-60.62,3.954" stroke="#000" stroke-width="0.5" fill="none"/>
                   <g id="g82975">
                    <path id="path82977" d="m446.49,129.84c0.792-0.061,1.386-0.753,1.325-1.545l0.511-2.639c-0.061-0.792-0.752-1.386-1.545-1.325l-15.478,1.707c-0.792,0.061-1.386,0.752-1.325,1.545l-0.511,2.639c0.061,0.792,0.752,1.386,1.545,1.325l15.478-1.707z" fill="#FFF" stroke="#000"/>
                   </g>
                   <g id="g82979">
                    <path id="path82981" d="m509.91,119.61c0.592-0.11,1.014-0.838,0.942-1.625l0.297-2.665c-0.072-0.787-0.61-1.335-1.202-1.225l-11.546,2.674c-0.592,0.11-1.014,0.838-0.942,1.625l-0.297,2.665c0.072,0.787,0.61,1.335,1.202,1.225l11.546-2.674z" fill="#FFF" stroke="#000"/>
                   </g>
                   <path id="path82983" d="m447.64,129.61c1.964-1.429,3.393-2.679,8.036-3.214,4.643-0.536,22.678-3.036,25-3.393s12.321-1.786,13.75-2.322,3.393,1.429,3.393,1.429" stroke="#000" stroke-width="0.5" fill="none"/>
                   <g id="g82985">
                    <path id="path82987" d="m447.09,143.36c0.795,0,1.439-0.645,1.439-1.439v-5.514c0-0.795-0.644-1.439-1.439-1.439l-5.158,0.536c-0.794,0-1.439,0.644-1.439,1.439v5.515c0,0.794,0.645,1.439,1.439,1.439l5.158-0.537z" fill="#FFF"/>
                   </g>
                   <g id="g82989">
                    <path id="path82991" d="m504.06,134.25c0.795,0,1.439-0.645,1.439-1.439v-5.514c0-0.795-0.644-1.439-1.439-1.439l-5.157,0.536c-0.795,0-1.439,0.645-1.439,1.439v5.514c0,0.795,0.645,1.439,1.439,1.439l5.157-0.536z" fill="#FFF"/>
                   </g>
                   <path id="path82993" d="m477.28,144.24s-36.605,5.906-44.284,5.906c-7.678,0-18.417,0.218-18.417,0.218" stroke="#808080" stroke-width="0.5" fill="none"/>
                   <g id="g82995" stroke="#000" fill="#FFF">
                    <path id="path82997" d="m422.1,108.62c0.397,0,0.72-0.322,0.72-0.72v-19.449c0-0.397-0.322-0.719-0.72-0.719h-4.275c-0.397,0-0.719,0.322-0.719,0.719v19.454c0,0.397,0.322,0.72,0.719,0.72h4.275z"/>
                    <path id="path82999" d="M419.96,98.178"/>
                   </g>
                   <path id="path83001" d="m425.14,90.41c0.357,3.572,0.536,8.393,0.357,11.786-0.178,3.393,0.893,3.75,3.75,3.75s3.571,0,5.893-0.357c2.321-0.357,2.678-2.857,2.678-5.536s0.357-7.857-0.536-10-1.964-2.5-4.107-2.5-3.395,0.25-4.821,0.179c-3.572-0.179-3.214,2.678-3.214,2.678z" fill="#FFF" stroke="#000"/>
                   <path id="path83003" d="m499.42,78.982c1.071,3.571,1.607,15.536,0.893,18.928l6.25-0.536c2.679-0.536,3.036-3.928,3.036-5.714s0.357-8.75-0.178-11.071-1.964-3.036-4.643-2.5-5.358,0.893-5.358,0.893z" fill="#FFF" stroke="#000"/>
                   <path id="path83005" d="m425.32,89.339c0-1.786,0.714-2.321,3.75-2.5s6.25,0,8.929-0.179c2.679-0.178,4.286,1.072,5,4.643s0.714,10-0.536,12.5-3.036,2.678-5.893,3.036c-2.857,0.357-6.964,0.357-9.286,0.357s-1.786-4.107-1.786-4.107" stroke="#000" stroke-width="0.5" fill="none"/>
                   <path id="path83007" d="m419.96,112.38c3.036-0.357,4.286-2.321,7.5-2.857s11.25-0.714,14.107-1.429c2.857-0.714,1.607,1.786,6.607,1.607" stroke="#000" stroke-width="0.5" fill="none"/>
                   <path id="path83009" d="m497.64,102.38c2.5-0.536,0.545-2.406,2.857-2.679,6.071-0.714,5.179,0.714,7.5,0.357" stroke="#000" stroke-width="0.5" fill="none"/>
                   <path id="path83011" d="m417.82,74.964c3.131,0.758,4.031,2.258,4.031,8.258" stroke="#000" stroke-width="0.5" fill="none"/>
                   <path id="path83013" d="m310.55,58.921c5.1,2.4,25.8,3.3,38.7,4.8s67.373,8.242,72.899,9.9c3,0.9,3.3,0.9,3.9,9.6" stroke="#000" stroke-width="0.5" fill="none"/>
                   <path id="path83015" d="m506.15,67.321c1.2,0.9,1.5,6,1.2,7.2" stroke="#000" stroke-width="0.5" fill="none"/>
                   <path id="path83017" d="m395.44,115.29c2.411-1.773,5.111-2.073,9.011-1.773s22.775-0.914,28.5-1.2c6-0.3,56.5-7.459,70.2-10.2,7.5-1.5,7.8-2.7,7.8-2.7" stroke="#000" stroke-width="0.5" fill="none"/>
                   <path id="path83019" d="m200.94,44.544c0.75-9,4.75-23.25,7-29h-15.75s-2,1-5,18c2,0,3.25,3.75-0.75,4.25,0,0-1.5,5.5-1.5,8.25l16-1.5z" fill="#FFF"/>
                   <path id="path83021" d="m227.19,14.794s-5.5,15.75-7,27.75l6.25-1c0.75-9.25,2-9.75,4.75-10.5s10.75-1.55,13.25-1.55,4.25,1.05,5.75,10.3l9-0.75c-2.25-13.25-6-24.25-6-24.25h-26z" fill="#FFF"/>
                   <path id="path83023" d="m374.86,43.542c-0.056-1.478-0.364-6.048-0.256-7.346l-28.2-22.8c-10.5-5.7-58.5,0.6-58.5,0.6s1.65,3.45,4.2,12.3c0,0,0,0.3,4.5,0.3s6.3-0.3,6.9,3.6c0.645,4.193,1.2,14.1,1.2,14.1l39.454,1.357c9.596-5.577,30.702-2.111,30.702-2.111z" fill="#FFF"/>
                   <path id="path83025" d="m446.1,94.455s8.502-0.699,9.815-0.818c0.998-0.091,0.685-0.966,0.654-2.126-0.027-0.995,0-4.581-0.818-6.707" stroke="#000" stroke-width="0.5" fill="none"/>
                   <line id="line83027" stroke-width="0.5" x1="456.4" x2="454.93" stroke="#000" y1="93.31" y2="92.001" fill="none"/>
                   <path id="path83029" d="m458.7,93.474s10.966-1.263,12.269-1.472c0.886-0.143,0.698-1.143,0.654-2.126-0.044-0.994,0-4.581-0.818-6.707" stroke="#000" stroke-width="0.5" fill="none"/>
                   <line id="line83031" stroke-width="0.5" x1="471.45" x2="469.98" stroke="#000" y1="91.674" y2="90.366" fill="none"/>
                   <path id="path83033" d="m473.69,91.498s8.453-1.147,9.762-1.304c0.708-0.085,0.521-1.147,0.548-2.157,0.027-0.995-0.228-4.574-1.15-6.658" stroke="#000" stroke-width="0.5" fill="none"/>
                   <line id="line83035" stroke-width="0.5" x1="483.93" x2="482.39" stroke="#000" y1="89.843" y2="88.608" fill="none"/>
                   <path id="path83037" d="m445.84,103.16c0,2.333-0.968,3.805,2.958,3.642,3.926-0.164,40.037-4.796,44.147-5.687,3.216-0.697,3.293-2.188,3.292-5.927" stroke="#000" stroke-width="0.5" fill="none"/>
                   <path id="path83039" d="m486.04,89.698s8.886-1.131,9.844-2.203" stroke="#000" stroke-width="0.5" fill="none"/>
                   <path id="path83041" d="m284.53,58.411c-0.621-0.701-1.496-1.201-3.746-1.076s-12,0.875-13.5,0-1.75-1.625-1.625-3.875,0.5-5.375,1-6.625,1.75-1.875,5.125-1.875,10.578-0.301,11.75-0.125c2.5,0.375,3.5,3.5,4.5,4.625s2.5,2,2.5,2" stroke="#FFF" stroke-width="0.5" fill="none"/>
                   <path id="path83043" d="m288.04,50.959c-1.875-2.375-2.553-4.637-4.75-5.125-2.25-0.5-13.375-0.375-14.625,0.625s-1,2.25-1.625,4.75,0.125,4.625,0.125,4.625,0.125-5,1.875-6.125,2.997-1.25,5.125-1.25c1.875,0,6.56-0.125,8.5-0.125,2.375,0,5.375,2.625,5.375,2.625z" fill="#FFF"/>
                   <path id="path83045" d="m446.3,98.222,9.6-0.975c1.075-0.075,0.638,1.425,0.575,2.8s-0.688,4.75-0.688,4.75" stroke="#000" stroke-width="0.5" fill="none"/>
                   <path id="path83047" d="m458.45,97.097,12.375-1.575c1.025-0.1,0.962,0.65,0.837,1.962s-0.875,5.625-0.875,5.625" stroke="#000" stroke-width="0.5" fill="none"/>
                   <path id="path83049" d="m473.45,95.222,9.837-1.475c1.188-0.263,1.063,1.3,0.875,2.675s-0.875,5.063-0.875,5.063" stroke="#000" stroke-width="0.5" fill="none"/>
                   <path id="path83051" d="m485.9,93.196s9.525-1.35,9.975-1.95" stroke="#000" stroke-width="0.5" fill="none"/>
                  </g>
                 </g>
                </g>
               </g>
              </g>
             </g>
            </g>
           </g>
          </g>
         </g>
        </g>
       </g>
      </g>
     </g>
    </g>
   </g>
  </g>
 </g>
</svg>
