<?xml version="1.0" encoding="UTF-8" standalone="no"?>
<!-- Created with Inkscape (http://www.inkscape.org/) -->
<svg id="svg2" xmlns:rdf="http://www.w3.org/1999/02/22-rdf-syntax-ns#" xmlns="http://www.w3.org/2000/svg" height="45" width="67.5" version="1.1" xmlns:cc="http://creativecommons.org/ns#" xmlns:dc="http://purl.org/dc/elements/1.1/">
 <metadata id="metadata7">
  <rdf:RDF>
   <cc:Work rdf:about="">
    <dc:format>image/svg+xml</dc:format>
    <dc:type rdf:resource="http://purl.org/dc/dcmitype/StillImage"/>
    <dc:title/>
   </cc:Work>
  </rdf:RDF>
 </metadata>
 <g id="g7676">
  <rect id="rect2990" opacity="0" height="45" width="67.5" y="0" x="3.5527e-15"/>
  <path id="path7674" d="m50.242 44.766c-0.23841-0.12601-0.52868-0.37442-0.64506-0.55204-0.23125-0.35293-0.23075-0.33982-0.11718-3.109 0.07514-1.8329 0.06902-1.9106-0.1452-1.8284-0.12304 0.04722-0.49471 0.14461-0.82594 0.21642-1.2566 0.27245-18.77-0.1603-25.765-0.63666-0.99327-0.06765-3.0015-0.28287-4.4628-0.47829-3.1085-0.41572-2.7801-0.39155-2.7848-0.20482-0.01896 0.74546-1.0275 3.0852-1.5853 3.6774-0.62819 0.667-0.97759 0.74713-3.2579 0.74713h-2.0455l-0.47324-0.45149c-0.8347-0.797-1.2293-2.604-1.4748-6.754-0.1188-2.007-0.1838-2.476-0.4282-3.086-0.5072-1.266-1.259-4.065-1.3673-5.089-0.0577-0.546-0.1394-1.049-0.1816-1.117-0.1134-0.184 0.4074-1.186 0.7239-1.393 0.24884-0.16304 0.26279-0.2246 0.15556-0.68604-0.22918-0.98628 0.09417-3.5095 0.63498-4.955 0.33194-0.88715 0.82252-1.3728 2.4245-2.4001 1.2315-0.78968 1.2862-0.84284 1.3605-1.3216 0.12408-0.79924 0.62306-1.7137 1.1442-2.097 0.25891-0.1904 1.1501-0.61303 1.9804-0.93917l1.5096-0.59298 0.000362-0.55437 0.000362-0.55438-1.1739-0.06976c-1.4736-0.08756-2.3906-0.35064-2.5104-0.72022-0.1316-0.40581-0.07962-1.8203 0.08735-2.3777 0.08126-0.27136 0.26019-0.55454 0.39753-0.6293 0.31838-0.17328 2.9008-0.16154 3.3521 0.01524 0.47332 0.18544 0.60544 0.63179 0.51208 1.7301-0.1267 1.4907 0.11621 1.3205 1.6506-1.1562 1.7285-2.7902 3.1463-4.8165 3.9117-5.591 0.72051-0.72899 1.7502-1.26 2.9937-1.5438 1.6666-0.38041 9.7928-0.34727 19.012 0.077539 6.8224 0.31436 9.1338 0.60319 10.466 1.3079 0.70738 0.37417 1.3222 1.248 1.8606 2.6443 0.31763 0.82375 1.1994 4.1762 1.4058 5.3449 0.06437 0.3643 0.13206 0.45148 0.35061 0.45148 0.24416 0 0.27748-0.07277 0.33781-0.73819 0.03688-0.4068 0.14652-0.81777 0.2442-0.91545 0.3663-0.3663 3.2949-0.45507 4.5597-0.1382 0.58147 0.14568 0.75647 0.63405 0.75908 2.1183 0.0026 1.283-0.09254 1.4489-0.91932 1.6086-0.28791 0.05563-1.2142 0.1035-2.0585 0.10639-0.84427 0.0029-1.535 0.0377-1.535 0.07737s0.2184 0.72307 0.48532 1.5187c0.69716 2.078 0.80902 2.9359 0.55175 4.2313-0.14956 0.7531-0.17124 1.0993-0.07954 1.2707 0.16008 0.29911 0.16356 0.93632 0.006 1.0339-0.06618 0.04092-0.12324 0.27438-0.12673 0.51879-0.0034 0.24441-0.09065 0.85072-0.19373 1.3474-0.14141 0.6814-0.20632 2.07-0.26455 5.6586-0.06946 4.2783-0.09912 4.7959-0.29584 5.1564-0.22408 0.41065-0.98983 0.85568-1.4811 0.86077-0.31663 0.0034-0.34562 0.18328-0.54657 3.3938-0.11471 1.8326-0.11635 2.7058-0.0069 3.8634 0.16547 1.7557 0.11186 2.0237-0.57823 2.8904-0.83042 1.043-0.854 1.0508-3.1278 1.0457-1.715-0.0043-2.0458-0.03585-2.42-0.23363zm4.9156-2.3789c-0.02602-0.24833-0.04722-0.04516-0.04722 0.45148 0 0.49663 0.02128 0.6998 0.04722 0.45149 0.02602-0.24832 0.02602-0.65466 0-0.90297zm-43.951-2.581c-0.03843-0.09604-0.06696-0.06747-0.07273 0.07273-0.006 0.12692 0.02318 0.19802 0.06325 0.15802 0.03998-0.03999 0.04429-0.14385 0.0095-0.23076zm44.071-1.9914c-0.02611-0.24978-0.04783-0.07497-0.04834 0.38861-0.000483 0.46353 0.02077 0.6679 0.04731 0.45417s0.02706-0.59298 0.000801-0.84277zm-2.9774 0.02749c0.22464-0.23177 0.38133-0.42139 0.34823-0.42139-0.03309 0-0.24399 0.18962-0.46862 0.42139-0.22464 0.23176-0.38133 0.42138-0.34823 0.42138 0.03309 0 0.24398-0.18962 0.46862-0.42138zm-45.187 0.03766c-0.038433-0.09604-0.066957-0.06747-0.07273 0.07273-0.00603 0.12692 0.023181 0.19802 0.063251 0.15802 0.039984-0.03999 0.044293-0.14385 0.00948-0.23076zm4.1756-0.24647c0.08667-0.0561 0.05955-0.08912-0.07411-0.09029-0.15336-0.0017-0.20689 0.08824-0.19672 0.32925 0.01069 0.25376 0.02801 0.27485 0.07411 0.09028 0.03309-0.13242 0.12162-0.2806 0.19672-0.32924zm3.4776 0.30971c-0.08281-0.03344-0.21822-0.03344-0.301 0-0.08273 0.03335-0.01499 0.06075 0.1505 0.06075 0.16554 0 0.23327-0.02732 0.15049-0.06075zm-1.3244-0.1204c-0.08273-0.03335-0.21822-0.03335-0.301 0-0.08273 0.03335-0.01499 0.06075 0.15049 0.06075 0.16555 0 0.23327-0.0274 0.1505-0.06075zm-1.2667-0.1134c-0.03998-0.03999-0.14385-0.04429-0.23076-0.0095-0.09605 0.03843-0.06747 0.06696 0.07273 0.07273 0.12692 0.006 0.19804-0.02318 0.15802-0.06325zm35.971-0.81932c1.7723-0.22436 3.5461-0.66461 4.3796-1.0869 0.34424-0.17444 0.67803-0.28493 0.74177-0.24555 0.06368 0.03938 0.11588-0.0026 0.11588-0.09246 0-0.09024 0.19647-0.35078 0.4366-0.57898 0.73279-0.69638 2.3325-4.3032 2.3325-5.2591 0-0.19087-0.07402-0.44828-0.1645-0.57201-0.15677-0.2144-0.18459-0.21542-0.59237-0.02189-0.23532 0.11167-0.59473 0.23641-0.79866 0.27719-0.31096 0.06222-0.37081 0.13003-0.37081 0.42031 0 0.19036 0.04059 0.34583 0.0903 0.34546 0.32693-0.0026 1.0428-0.29734 1.3507-0.55644 0.20072-0.16889 0.36493-0.25176 0.36493-0.18417 0 0.21612-0.6936 0.62583-1.3056 0.7712l-0.59292 0.14084-0.31099 1.0389c-1.189 3.9718-3.2307 4.2921-21.81 3.421-9.212-0.435-18.316-1.006-20.26-1.273-2.8535-0.393-4.6055-1.091-5.2157-2.078-0.39-0.631-0.993-2.722-1.0027-3.478-0.006-0.472-0.0618-0.71-0.1765-0.755-0.092249-0.03585-0.19422-0.03869-0.22659-0.006-0.14421 0.14422 1.048 4.3063 1.5662 5.4676 0.13724 0.30755 0.24939 0.66754 0.24922 0.79998-0.0002499 0.20247 0.00776 0.20634 0.050928 0.0243 0.043948-0.18602 0.11708-0.15691 0.52007 0.20716 1.0512 0.94972 2.9817 1.6049 5.7115 1.9382 1.9111 0.23341 16.158 1.1095 22.456 1.3808 1.6223 0.06989 3.2477 0.14646 3.6119 0.17012 1.5569 0.10115 7.48-0.04498 8.8491-0.2183zm-38.949-0.115c0-0.02292-0.1219-0.14475-0.27089-0.27089l-0.27089-0.22934 0.22936 0.27089c0.21554 0.25456 0.31243 0.3257 0.31243 0.22935zm-2.2011-0.89c-0.027662-0.18301-0.051015-0.06187-0.051962 0.26923-0.00081 0.3311 0.021716 0.48083 0.050325 0.33275s0.029299-0.41897 0.00172-0.60198zm40.848-1.116c3.6926-0.31795 4.996-1.0619 5.6606-3.2308 0.13509-0.44086 0.27219-0.88808 0.30466-0.99381 0.05351-0.17425-0.32734-0.18685-4.0668-0.13455-9.6485 0.13493-38.385-1.1333-40.485-1.7868-0.32533-0.10122-0.31232-0.10664 0.13104-0.05455 4.8541 0.5701 16.653 1.1711 32.195 1.6399 4.4546 0.13436 11.762 0.09015 12.181-0.07368 0.24483-0.09585 0.38673-0.42324 0.24493-0.56505-0.05756-0.05756-1.3798-0.04153-2.9838 0.03628-10.062 0.48795-38.42-0.87125-44.394-2.1278-0.45189-0.09506-0.85268-0.17283-0.89066-0.17283-0.15867 0 0.095032 1.4676 0.44245 2.5594 0.42446 1.3339 0.82032 1.8783 1.6782 2.3077 1.7591 0.88048 3.8808 1.1773 11.689 1.6354 15.798 0.92678 25.044 1.2409 28.293 0.96114zm-12.018-1.211c-3.9748-0.10865-3.7541-0.01706-3.7541-1.5569 0-1.6402-0.59462-1.5133 6.288-1.3411 5.0478 0.1263 5.8298 0.17054 6.0175 0.34042 0.2964 0.26826 0.31702 2.2066 0.02654 2.4971-0.21351 0.21351-2.4148 0.22906-8.5779 0.06058zm-18.242-1c-6.0584-0.44239-5.6177-0.2954-5.6177-1.8739 0-0.82085 0.03309-0.95993 0.28461-1.1962l0.28463-0.26739 2.5748 0.18585c1.4161 0.10221 3.8209 0.27495 5.3439 0.38386 3.4038 0.2434 3.3109 0.19623 3.3109 1.6811 0 0.93005-0.02034 1.0096-0.31723 1.2432-0.17447 0.13724-0.40473 0.24292-0.51168 0.23486-0.10695-0.0078-2.5154-0.18414-5.3522-0.39129zm-9.3882 1.9485c-0.038433-0.09604-0.066957-0.06747-0.07273 0.07273-0.00603 0.12692 0.023181 0.19802 0.063251 0.15802 0.039984-0.03998 0.044293-0.14385 0.00948-0.23076zm47.2-1.268c-0.02611-0.24979-0.04783-0.07488-0.04834 0.38861-0.000482 0.46353 0.02077 0.6679 0.0474 0.45417 0.02654-0.21373 0.02706-0.59298 0.000802-0.84278zm2.2794-0.30367c-0.03335-0.08281-0.06067-0.01508-0.06067 0.15049 0 0.16555 0.02732 0.23327 0.06067 0.1505 0.03343-0.08281 0.03343-0.21822 0-0.30099zm-0.95651-3.1888c-0.02766-0.18302-0.05101-0.06187-0.05196 0.26924-0.000802 0.33109 0.02172 0.48082 0.05033 0.33274s0.0293-0.41898 0.0017-0.60198zm0.96175-0.66384c-0.0287-0.14899-0.05213-0.02706-0.05213 0.2709 0 0.29798 0.02352 0.41988 0.05213 0.27089 0.02869-0.14899 0.02869-0.3928 0-0.54179zm-9.807-1.3813c-0.2152-0.02671-0.56736-0.02671-0.78257 0-0.2152 0.02671-0.03912 0.04852 0.39129 0.04852 0.43042 0 0.6065-0.0218 0.39129-0.04852zm-3.9731-0.12039c-0.21521-0.02671-0.56736-0.02671-0.78257 0s-0.03921 0.0486 0.39129 0.0486c0.43042 0 0.6065-0.0218 0.39129-0.0486zm-4.036-0.12117c-0.2498-0.02611-0.62905-0.02559-0.84277 0.000801-0.21374 0.02654-0.0094 0.04791 0.45417 0.04739 0.46353-0.000482 0.6384-0.02232 0.38861-0.04843zm-4.029-0.12c-0.2152-0.02671-0.56736-0.02671-0.78257 0-0.2152 0.02671-0.03921 0.04851 0.39129 0.04851 0.43042 0 0.6065-0.0218 0.39129-0.04851zm-4.0311-0.11933c-0.18092-0.02749-0.50598-0.02801-0.72238-0.0017-0.2164 0.0268-0.06834 0.04929 0.32893 0.04989 0.39731 0.000724 0.57435-0.02128 0.39345-0.04869zm25.997-0.36317c-0.0305-0.11714-0.05756-0.05041-0.05998 0.14821-0.0026 0.19866 0.02258 0.29449 0.05558 0.21298 0.033-0.08152 0.03499-0.24404 0.0052-0.36119zm-29.849 0.24278c-0.18091-0.02749-0.50598-0.02801-0.72238-0.0017-0.2164 0.0268-0.06842 0.04929 0.32893 0.04989 0.39731 0.000724 0.57435-0.02128 0.39345-0.04869zm-3.7323-0.1204c-0.18091-0.02749-0.50598-0.02801-0.72237-0.0017-0.2164 0.0268-0.06842 0.04929 0.32893 0.04989 0.3973 0.000715 0.57435-0.02128 0.39344-0.04869zm-3.793-0.11912c-0.14808-0.02861-0.41897-0.0293-0.60198-0.0017-0.18302 0.02766-0.06187 0.05101 0.26923 0.05196 0.3311 0.000801 0.48083-0.02172 0.33275-0.05033zm-3.2524-0.12061c-0.14898-0.0287-0.39279-0.0287-0.54178 0-0.14898 0.02861-0.02706 0.05213 0.27089 0.05213 0.29799 0 0.41989-0.02353 0.27089-0.05213zm38.694-0.18318c0.04076-0.06601 0.01896-0.15454-0.04852-0.1968-0.06825-0.04274-0.14188-0.72578-0.16593-1.5391-0.0555-1.8763-0.12044-1.969-1.3802-1.969h-0.87828l-0.03611 1.8212-0.03611 1.8212 0.87287-0.07402c0.78997-0.06696 0.87287-0.05326 0.87287 0.14444 0 0.17438 0.07316 0.20768 0.36267 0.16518 0.19946-0.0293 0.39602-0.10722 0.43681-0.1732zm-41.403 0.0648c-0.11588-0.03025-0.30549-0.03025-0.42138 0-0.11588 0.03025-0.02103 0.05506 0.21069 0.05506 0.23175 0 0.32657-0.02482 0.21068-0.05506zm-1.7457-0.11714c-0.08273-0.03335-0.21822-0.03335-0.30099 0-0.08273 0.03335-0.01508 0.06075 0.15049 0.06075 0.16555 0 0.23327-0.02732 0.15049-0.06075zm34.225-2.4184c0.10684-2.9917 0.03145-4.3617-0.26827-4.8746-0.27482-0.4703-0.8625-0.77376-1.9293-0.99619-0.96411-0.20102-5.3468-0.56737-10.025-0.838-1.7548-0.10151-3.3807-0.20464-3.6133-0.22918l-0.42276-0.04461-0.34652 0.91776c-0.33546 0.88847-1.1493 1.9411-1.5007 1.9411-0.07471 0-0.34221-0.18639-0.59436-0.4142l-0.45848-0.4142 0.05145 1.0764c0.04731 0.98974 0.03326 1.0764-0.17396 1.0773-0.6952 0.0028-13.293-0.61722-13.618-0.67019-0.46618-0.07587-0.63872-0.35485-0.65279-1.0555-0.01491-0.74244 0.10812-1.0317 0.47876-1.1256 0.17768-0.04502 3.1887-0.01881 6.6913 0.05823 5.9915 0.13179 6.3921 0.15419 6.7725 0.37861l0.40429 0.23853-0.18035-0.27525c-0.09918-0.15139-0.21445-0.60155-0.25614-1.0004l-0.07575-0.72511-3.5064-0.07904c-1.9285-0.04347-4.888-0.07828-6.5765-0.07737-3.3508 0.0018-4.2361 0.11591-4.7785 0.61588-0.6011 0.55408-0.63934 0.81108-0.63934 4.2972v3.2373l1.1739 0.07894c4.8533 0.32612 9.3565 0.54669 17.427 0.85361 4.4037 0.16746 11.867 0.39937 14.989 0.46578 0.7615 0.0162 1.4192 0.04102 1.4616 0.05515s0.11719-1.0984 0.16625-2.4724zm-9.7805 1.3066c-8.3494-0.22232-7.642-0.09064-7.718-1.4366-0.06541-1.1581 0.02042-1.2245 1.5822-1.2247 0.674-0.000069 4.0156 0.05782 7.4259 0.12871 5.4792 0.11384 6.2179 0.15154 6.3509 0.32412 0.22949 0.29781 0.20003 2.0089-0.03869 2.2476-0.10406 0.10405-0.22596 0.18125-0.27089 0.17154-0.04498-0.0097-3.344-0.10452-7.3314-0.21069zm7.5588-0.58432c0.03757-0.28142 0.03757-0.74194 0-1.0234l-0.069-0.515-1.813-0.078c-0.99689-0.04283-4.3559-0.09701-7.4646-0.12039l-5.652-0.04248-0.0355 0.80638c-0.03214 0.72958-0.0091 0.82312 0.24078 0.98194 0.22434 0.14256 1.5431 0.20866 7.0184 0.35177 3.7082 0.09692 6.9589 0.16974 7.2238 0.16182 0.47266-0.01413 0.48285-0.02396 0.54988-0.52608zm-25.171-0.21807c-3.2116-0.15233-5.9849-0.28071-6.1629-0.28528-0.28868-0.0069-0.33235-0.06592-0.40351-0.54043-0.09084-0.60575 0.01474-1.3999 0.22424-1.6862 0.13015-0.17787 0.62648-0.17877 6.0412-0.01094 3.2447 0.10054 6.4536 0.21497 7.131 0.2543l1.2315 0.07152 0.12224 0.44007c0.1594 0.57391 0.15615 1.2137-0.0086 1.6863l-0.13218 0.37916-1.1019-0.01577c-0.60604-0.0087-3.7295-0.14034-6.9411-0.29267zm8.016-0.36295c0.0773-0.41192-0.0086-1.4742-0.12823-1.5943-0.12165-0.12166-13.943-0.51572-14.058-0.40081-0.06377 0.06377-0.14449 0.47195-0.17941 0.90712-0.05351 0.6669-0.0318 0.80339 0.13864 0.86877 0.2174 0.08342 10.884 0.60646 12.918 0.63345l1.2286 0.01629 0.08074-0.43053zm5.9693-2.5758c-3.5319-0.06377-3.5324-0.06382-3.7624-0.34801-0.16589-0.20502-0.23-0.47436-0.23-0.96648 0-0.7139 0.18153-1.1128 0.61103-1.3427 0.16894-0.09041 2.1916-0.05424 7.0069 0.12533 7.8823 0.29393 7.5093 0.22861 7.7784 1.3623 0.12536 0.52814 0.1334 0.77222 0.03266 0.99327l-0.13352 0.29306-3.8853-0.02651c-2.137-0.01458-5.4749-0.05522-7.4177-0.0903zm11.208-0.76371c-0.0368-0.71178-0.19311-1.0221-0.59099-1.1734-0.23662-0.08996-11.634-0.59183-13.495-0.59426-0.61482-0.000862-0.87323 0.34729-0.87103 1.1734 0.00081 0.38075 0.05317 0.77354 0.11583 0.87287 0.13746 0.2178 3.4021 0.31368 10.417 0.30592l4.4547-0.0049-0.02999-0.57954zm7.5371 5.619 0.74003-0.07738v-1.7888-1.7888h-2.8724-2.8724l-0.07738 0.74004c-0.04257 0.40702-0.07738 1.2468-0.07738 1.8661v1.1261h2.2097c1.2153 0 2.5427-0.03481 2.9497-0.07738zm-40.71-0.118c-0.03998-0.03998-0.14385-0.04429-0.23075-0.0095-0.09605 0.03843-0.06747 0.06696 0.07273 0.07273 0.12692 0.006 0.19803-0.02318 0.15802-0.06325zm-0.96317-0.1204c-0.03998-0.03998-0.14385-0.04429-0.23076-0.0095-0.09605 0.03843-0.06747 0.06696 0.07273 0.07273 0.12692 0.006 0.19803-0.02318 0.15802-0.06325zm-0.8427-0.121c-0.039984-0.03998-0.14385-0.04429-0.23075-0.0095-0.096049 0.03843-0.067474 0.06696 0.07273 0.07273 0.12692 0.006 0.19803-0.02318 0.15802-0.06325zm48.194-1.957c0.08109-0.87571 0.1212-1.6184 0.08922-1.6504-0.08255-0.08255-0.30939 1.5066-0.38783 2.7171-0.10355 1.5977 0.12884 0.76757 0.29862-1.0667zm-1.8091 1.5487c0.07083-0.1322 0.18556-0.55208 0.25512-0.93307 0.15554-0.85193 0.7572-2.1509 1.075-2.321 0.20626-0.11039 0.237-0.08454 0.24949 0.20943l0.01431 0.33533 0.0919-0.36119c0.12578-0.49428 0.14218-1.505 0.02439-1.505-0.05274 0-0.29211 0.20317-0.53185 0.45148-0.48316 0.50046-0.79663 1.3261-1.1156 2.9384-0.1093 0.55249-0.22592 1.0993-0.25912 1.2152-0.08169 0.28492 0.03774 0.2669 0.19641-0.02973zm-44.667-2.5787v-1.8559l-0.93307-0.07818c-0.51319-0.043-1.4613-0.14573-2.1069-0.22829l-1.1739-0.15011v1.8325 1.8325l0.81267 0.12856c1.2214 0.19321 2.4438 0.34215 2.9497 0.35939l0.45148 0.01543v-1.8559zm45.208-0.88161c0.23194-0.57302 0.9626-1.285 1.2181-1.187 0.12881 0.04943 0.16747-0.0702 0.16747-0.51816 0-1.2977-0.51153-3.3676-1.0265-4.1535l-0.184-0.28-1.592 0.818c-2.2264 1.1442-6.6598 3.0451-7.7264 3.3128-0.29978 0.07524-0.30671 0.10103-0.30671 1.1429v1.0659l4.0301 0.03473c4.0014 0.03447 4.032 0.03662 4.3019 0.30666 0.22368 0.22381 0.28055 0.43692 0.32124 1.204l0.04946 0.93202 0.27048-1.0836c0.14877-0.59597 0.36341-1.3131 0.47699-1.5937zm-49.783 0.343c0-1.9018-0.011547-1.9392-0.59895-1.9392-0.30719 0-0.37278 0.24736-0.45053 1.6992-0.099246 1.8533-0.079366 1.8977 0.89899 2.015 0.11446 0.0137 0.15049-0.41122 0.15049-1.775zm51.251 1.4093c-0.03843-0.09604-0.06696-0.06747-0.07273 0.07273-0.006 0.12692 0.02318 0.19802 0.06325 0.15802 0.03999-0.03999 0.04429-0.14385 0.0095-0.23076zm0.46855-1.7232c0.16709-0.93976 0.2275-1.8418 0.11586-1.7302-0.0673 0.06736-0.43646 2.1397-0.50115 2.8137-0.04145 0.43241-0.03292 0.45085 0.08393 0.18059 0.07161-0.16555 0.20719-0.73441 0.30138-1.2642zm0.17456-2.0058c0.2568-0.21586 0.32972-0.89317 0.10424-0.96833-0.09418-0.03139-0.0723-0.34484 0.07419-1.0629 0.29122-1.4278 0.20022-2.3734-0.40622-4.2206-0.27364-0.83352-0.49752-1.6056-0.49752-1.7156 0-0.11008-0.07738-0.20015-0.17199-0.20015-0.26689 0-0.54817-0.34488-0.57165-0.70088-0.01172-0.17737-0.05231 0.05675-0.09029 0.52028-0.0679 0.82932-0.0748 0.84341-0.43023 0.88251-0.19865 0.02185-0.47841 0.14881-0.62168 0.28211l-0.2605 0.24238 0.34719 0.50046c0.19096 0.27525 0.4093 0.77135 0.48522 1.1024 0.15195 0.66272 0.29392 1.0692 0.76899 2.202 0.44005 1.0493 0.66302 2.3371 0.67846 3.9187l0.0131 1.3439 0.17045-0.96317c0.11702-0.6612 0.24502-1.0258 0.40827-1.1631zm-31.186-0.04637c0-0.66159-0.04438-0.83244-0.27668-1.0647-0.25771-0.25772-0.40828-0.28203-2.1972-0.35487-1.0563-0.04301-4.0455-0.11408-6.6427-0.15794-4.5712-0.0772-4.7251-0.07242-4.8135 0.14964-0.14682 0.36868-0.08734 1.2533 0.09628 1.4316 0.12959 0.12588 1.4854 0.2229 5.8275 0.41701 3.1122 0.13913 5.8482 0.26958 6.08 0.28988 0.23176 0.02031 0.76 0.04602 1.1739 0.05716l0.75247 0.02024v-0.78805zm-16.134-0.281c0-0.71177-0.04679-0.98726-0.18753-1.1041-0.30126-0.25003-0.78794-1.1545-1.0204-1.8962-0.13841-0.44171-0.2778-0.6815-0.39088-0.67243-0.3707 0.02975-2.6358 1.6419-2.9858 2.1251-0.46154 0.63715-0.80673 1.7616-0.58318 1.8998 0.26121 0.16144 3.2815 0.55314 4.4755 0.58043l0.69227 0.01582v-0.94843zm36.264 0.1115c0.15211-0.06301 0.9267-0.36827 1.7213-0.67836 2.5894-1.0105 6.523-2.8507 7.1472-3.3435 0.24737-0.19532 0.08867-1.1763-0.30829-1.9056-0.46057-0.84623-0.96453-1.225-1.6867-1.2677-0.31742-0.01878-1.6607-0.11516-2.9851-0.21419-2.5744-0.1925-9.7484-0.60267-12.822-0.73309l-1.8661-0.07919-1.2642 0.8359c-1.6275 1.0761-2.5534 1.8133-3.3455 2.6634-0.35012 0.37578-0.60236 0.57488-0.56052 0.44244 0.05937-0.18799 0.04886-0.20245-0.04774-0.06595-0.06808 0.09616-0.09649 0.21905-0.06308 0.27309 0.03344 0.05403-0.05584 0.28688-0.19836 0.51743l-0.25907 0.41919h0.31673c1.61 0 11.644 0.7554 12.886 0.97017 1.7349 0.29985 2.5065 0.82192 2.6632 1.8021 0.07988 0.49933 0.19485 0.56159 0.67213 0.36389zm-0.46525-1.1784c0.04283-0.06939 1.1484-0.5981 2.4566-1.1749 1.3083-0.57683 2.9457-1.3384 3.6387-1.6925 0.69303-0.35403 1.2795-0.62421 1.3034-0.6004 0.09868 0.09868-1.6552 0.97287-4.3693 2.1779-1.5892 0.70557-2.9385 1.3128-2.9984 1.3495-0.05989 0.03662-0.07385 0.0098-0.03094-0.05955zm-18.016 0.58606c0.51915-0.47418 1.1437-1.7394 1.0967-2.2219-0.03524-0.36202-0.06842-0.38477-0.69915-0.47814-0.80765-0.11958-1.8661-0.0072-2.0959 0.22258-0.16294 0.16294-0.16081 0.69295 0.006 1.4988 0.0555 0.26809 1.0421 1.3244 1.237 1.3244 0.04231 0 0.24714-0.15555 0.4553-0.34566zm-0.97073-0.38546c-0.28338-0.22291-0.31723-0.33134-0.31723-1.0164v-0.76683l0.87288 0.06984c0.48008 0.03842 0.88442 0.07842 0.89854 0.08889 0.10312 0.07652-0.36656 1.3592-0.58148 1.5879-0.32927 0.35049-0.46627 0.35622-0.8727 0.03653zm-16.077-1.73c0.71296-0.59992 0.88602-0.61257 7.9511-0.5814l6.5785 0.02902 0.07419-0.39514c0.1008-0.5373 0.79483-1.941 1.3165-2.6627 0.2353-0.32551 0.7529-0.92807 1.1502-1.339l0.72242-0.74721-0.55169-0.07562c-0.91064-0.12482-11.063-0.08277-12.602 0.05219-0.7857 0.06892-1.4552 0.09864-1.4879 0.06603-0.08737-0.08738 1.9493-3.9872 3.0093-5.7621 0.50419-0.84428 0.89375-1.5351 0.86569-1.5351-0.08402 0-3.0387 4.6294-3.6348 5.6951-0.2378 0.42509-0.75493 1.6023-0.75598 1.7209-0.000483 0.05983-0.74265 0.4025-1.6491 0.76148-1.3217 0.52342-1.7474 0.75198-2.1494 1.1539-1.0589 1.0589-1.0661 2.9707-0.01715 4.5385l0.37875 0.56609 0.22043-0.59091c0.12124-0.325 0.38252-0.72731 0.58065-0.89402zm-0.58729-0.27934c-0.12681-0.1821-0.29304-0.51525-0.36939-0.74034-0.15467-0.45605-0.18906-1.7732-0.04852-1.8589 0.04972-0.03028 0.09051 0.35932 0.09077 0.86577 0.000396 0.79011 0.04809 1.002 0.33616 1.4927 0.36575 0.62307 0.36021 0.77098-0.009 0.24079zm19.665-0.73887c0.52144-1.4501 1.8821-2.8029 3.8345-3.8123 0.63373-0.32766 1.1529-0.62949 1.1537-0.67074 0.00081-0.04125-1.365-0.11514-3.0352-0.1642l-3.0367-0.0892-0.79865 0.83751c-1.2696 1.3314-2.2342 2.8962-2.461 3.9922-0.08255 0.39919-0.07704 0.40624 0.25993 0.33214 1.2473-0.27424 1.6267-0.31521 2.2706-0.24514 0.39735 0.04324 0.85789 0.15059 1.0234 0.23855 0.47639 0.25313 0.56456 0.20635 0.78937-0.4188zm3.4079-3.1439c1.5584-1.0871 1.6421-1.1683 0.67879-0.65873-1.3397 0.70862-2.0395 1.2181-2.8218 2.0544-1.0103 1.0801-0.91619 1.219 0.14559 0.21488 0.48152-0.45539 1.3803-1.1801 1.9974-1.6106zm21.327-0.18044c0.308-0.373-1.07-6.2006-2.216-9.3656-0.325-0.899-0.383-1.1695-0.251-1.1695 0.2712 0 0.47483 0.405 1.241 2.4681 0.90657 2.4413 0.87368 2.3634 0.78871 1.8661-0.139-0.8139-0.797-2.7173-1.22-3.5278-0.462-0.885-1.006-1.4187-1.65-1.6161l-0.40679-0.12485 0.42773 1.1595c0.95733 2.5953 1.7791 5.9818 2.0984 8.648 0.13013 1.0865 0.17085 1.2059 0.51332 1.5063 0.43741 0.38359 0.47613 0.39254 0.67282 0.15554zm5.8984-1.2629c0.26807-0.07333 0.30139-0.14487 0.29525-0.63388-0.01146-0.91427-0.0555-0.93272-2.2231-0.93272h-1.8996l-0.142 0.59195c-0.17875 0.74513-0.03792 1.0576 0.50944 1.1303 0.50556 0.06714 3.0668-0.04809 3.46-0.15565zm-4.167-0.22c-0.03731-0.18646-0.006-0.5657 0.06782-0.84277 0.09951-0.36953 0.10026-0.63517 0.0034-0.9969-0.09164-0.34034-0.09502-0.60147-0.01094-0.84277 0.15879-0.45552-0.06437-0.47267-0.24141-0.01854-0.13822 0.35458-0.08967 2.6534 0.06127 2.8975 0.14618 0.23652 0.19204 0.16165 0.1204-0.19655zm4.8794-1.1659c0.0086-1.065-0.11492-1.2926-0.38895-0.71794-0.18359 0.385-0.18582 0.4616-0.02266 0.77723 0.09958 0.19258 0.18487 0.556 0.18953 0.8076 0.01543 0.8325 0.21479 0.05397 0.22202-0.86689zm-43.346 0.29915c0.3053-0.001 0.62577-0.04668 0.71218-0.10149 0.08642-0.05481 0.23531-0.47339 0.33089-0.9302 0.28024-1.3394 1.1031-3.6668 2.0289-5.7387 0.27641-0.61856 0.28708-0.69212 0.10018-0.69077-0.29453 0.00207-3.5162 4.9702-4.5974 7.0897l-0.2702 0.52964 0.57019-0.07815c0.3136-0.04298 0.81998-0.07898 1.1253-0.08zm37.939-0.119c0-0.18728-0.08023-0.24079-0.36119-0.24079-0.28092 0-0.36119 0.05351-0.36119 0.24079s0.08023 0.24079 0.36119 0.24079c0.28092 0 0.36119-0.05351 0.36119-0.24079zm-42.521-0.395c0.15354-0.18502 0.38056-1.5068 0.38183-2.2232 0.0017-0.77151-0.24267-0.94496-1.4738-1.0475-0.56331-0.04692-1.2746-0.04777-1.5807-0.0018l-0.5565 0.08345v0.7689 0.7689h1.3846c1.1664 0 1.3846-0.02921 1.3846-0.18539 0-0.19264 0.44728-1.139 0.53833-1.139 0.02852 0-0.05265 0.23026-0.1804 0.51168-0.28054 0.61804-0.29248 0.95306-0.06135 1.721 0.09689 0.32197 0.15366 0.60791 0.12615 0.63543-0.02749 0.02752-0.14742-0.28141-0.26647-0.68649l-0.21645-0.73652-1.3424-0.000167-1.3424-0.000167-0.14766 0.61554c-0.17262 0.71955-0.12304 0.78073 0.72563 0.89537 0.29798 0.04025 0.59596 0.09173 0.66217 0.1144 0.34572 0.11837 1.8483 0.04619 1.965-0.09439zm37.95-1.4487c-0.301-1.487-0.772-3.2813-1.012-3.8573-0.165-0.3928-0.226-0.4256-1.238-0.6599-1.195-0.2766-4.16-0.7421-4.728-0.7421h-0.37044v1.8102c0 1.7524 0.0069 1.8062 0.23288 1.6855 0.32729-0.17516 4.0514-0.14862 4.583 0.03266 0.53441 0.18224 0.70629 0.64329 0.71558 1.9195l0.006 0.93307 0.69228 0.0042c0.38076 0.0023 0.82772 0.07973 0.99327 0.17195 0.16555 0.09223 0.31836 0.11948 0.33958 0.06057 0.0212-0.05892-0.07549-0.67026-0.21474-1.3585zm9.3777 1.0453c0.13725-0.17448 0.24953-0.47522 0.24953-0.66832 0-0.283-0.07583-0.38215-0.39129-0.51121-0.56163-0.22981-1.906-0.34474-2.8839-0.24653-0.80547 0.08089-0.84886 0.10144-1.0055 0.47621-0.1219 0.29176-0.13282 0.50333-0.04274 0.82937l0.12085 0.4377h1.8517 1.8518l0.24952-0.31723zm-18.083-0.4052c0.16836-0.13244 0.37151-0.24079 0.45143-0.24079 0.10707 0 0.167-0.74916 0.22766-2.8463 0.04524-1.5654 0.06739-2.8602 0.04912-2.8772-0.02913-0.027196-2.065-0.26044-4.264-0.48853l-0.73927-0.076677 0.06024 0.53404c0.04576 0.40605 0.0096 0.58469-0.15113 0.74537-0.18423 0.18423-0.21896 0.54156-0.27078 2.7867l-0.05946 2.5753 1.311 0.03887c0.72107 0.02138 1.7088 0.05038 2.195 0.06445 0.72682 0.02102 0.93841-0.01724 1.1901-0.21522zm-11.357-0.2708c0.03257-0.21521 0.08851-1.7275 0.12426-3.3606l0.06498-2.9693-2.3762 0.053703c-1.3069 0.02954-2.7752 0.084208-3.2629 0.12149l-0.887 0.0677-0.575 1.2225c-0.59171 1.256-1.4867 3.7616-1.63 4.5631l-0.08057 0.45114 0.40463-0.08404c0.32016-0.06649 0.94229-0.09588 2.03-0.09588 0.000724 0 0.05119-0.30446 0.11215-0.67659 0.19013-1.1606 0.36533-1.6605 0.63203-1.8032 0.16581-0.08874 0.99307-0.12982 2.3737-0.11789 2.0842 0.01801 2.1242 0.02326 2.4202 0.31724 0.27386 0.27198 0.30473 0.40725 0.34238 1.5004 0.04067 1.1817 0.19158 1.5786 0.30795 0.81018zm5.8515-0.36119c0.000242-0.41386 0.03533-1.5952 0.07807-2.6252l0.07773-1.8727-2.1549 0.042759c-2.5163 0.049929-2.7346-0.00732-2.7948-0.73313-0.02077-0.25142 0.02637-0.53461 0.10504-0.62931 0.11747-0.14154 0.08919-0.17219-0.15888-0.17219h-0.30179l-0.0536 3.2808c-0.02947 1.8044-0.03257 3.3214-0.0069 3.3711 0.02568 0.04967 1.2084 0.0903 2.6282 0.0903h2.5814l0.000362-0.75248zm-27.165 0.25584c0.11257-0.56283 0.08255-1.7869-0.03662-1.4899-0.16008 0.39918-0.28082 1.8661-0.15359 1.8661 0.06325 0 0.14879-0.16931 0.19018-0.37624zm40.827-7.052c-0.102-0.2449-0.198-0.4562-0.212-0.4696-0.015-0.0133-0.568-0.1084-1.231-0.2113-1.799-0.27959-4.745-0.47296-11.317-0.74294-3.981-0.16355-10.832-0.25345-12.762-0.16749-1.1258 0.050136-2.413 0.17605-2.8605 0.27982-0.73374 0.17016-2.1018 0.75166-1.9972 0.8489 0.0231 0.021509 0.31296-0.013753 0.64405-0.078366 0.94674-0.18474 13.6-0.26124 17.638-0.10664 5.8421 0.22364 10.306 0.57383 11.514 0.90328 0.32214 0.087841 0.62707 0.16643 0.67762 0.17465 0.05058 0.00819 0.0086-0.18544-0.09414-0.43036z"/>
 </g>
</svg>
