<?xml version="1.0" encoding="UTF-8" standalone="no"?>
<!-- Created with Inkscape (http://www.inkscape.org/) -->
<svg id="svg2" xmlns:rdf="http://www.w3.org/1999/02/22-rdf-syntax-ns#" xmlns="http://www.w3.org/2000/svg" height="54" width="99" version="1.1" xmlns:cc="http://creativecommons.org/ns#" xmlns:dc="http://purl.org/dc/elements/1.1/">
 <metadata id="metadata7">
  <rdf:RDF>
   <cc:Work rdf:about="">
    <dc:format>image/svg+xml</dc:format>
    <dc:type rdf:resource="http://purl.org/dc/dcmitype/StillImage"/>
    <dc:title/>
   </cc:Work>
  </rdf:RDF>
 </metadata>
 <g id="g63106">
  <rect id="rect2990" opacity="0" height="54" width="99" y="0" x="0"/>
  <path id="path86048" fill="#fff" d="m74.266 27.67c0.21694-1.3259 0.46992-2.5224 0.33791-2.8523 0 0 0.27163-0.09054 0.27163-0.6338s-0.27163-0.54326-0.27163-0.54326 0.09054-0.6338 0.27163-1.4487c0.18109-0.81489 0.09054-1.7203-0.18109-2.7163-0.27163-0.99598-0.90543-2.2636-0.90543-3.0785 0-0.81489 0-1.7203-0.54326-1.7203h-1.0865s-0.81489-4.5272-1.8109-6.6097c-0.996-2.0821-1.721-2.0821-4.437-2.5348-2.716-0.4528-16.388-0.9055-21.368-0.9055-4.9799 0-6.2475 0.45272-7.6056 1.5392s-5.4326 7.9678-5.4326 7.9678h-0.99598v2.173s-1.1771 0.45272-2.7163 1.0865c-1.5392 0.6338-1.9014 1.8109-1.9014 2.9879 0 0-1.7203 0.99598-2.8974 1.9014-1.1771 0.90543-1.5392 3.8934-1.5392 5.0704 0 0.62891 0 1.1026 0.15175 1.4351l0.0259 0.04256c-1.3027 0.88714-1.327 1.8531-0.82648 2.4075l0.01503 0.04183c-0.06229 0.26602-0.06791 0.53203 0 0.78103 0.17276 0.63308 0.71131 3.0593 1.476 4.9055l0.0632 0.07443c0.18109 7.4245 0.90543 9.7787 2.3541 9.9598h2.3541c1.3581 0 1.992 0 2.8068-0.99598 0.81489-0.99598 1.4487-3.6217 1.4487-3.6217s1.2676 0.18109 4.7082 0.6338c3.4406 0.45272 19.648 0.90543 22.636 0.90543 2.9879 0 5.0704 0.27163 6.5191-0.36217v3.169c-0.6338 1.9014 0.6338 2.6258 1.7203 2.6258h2.8974c0.99598 0 1.0865-0.45272 1.7203-1.1771 0.6338-0.72435 0.6338-1.1771 0.45272-2.6258-0.18109-1.4487-0.09054-3.6217 0.27163-7.334 1.6298-0.09054 1.992-0.90543 1.992-1.992v-8.4341l0.02354-0.12404z"/>
  <path id="path86050" d="m37.211 6.1664c-1.7203 1.4487-5.4326 8.4205-6.1569 10.141 3.5312-0.90543 28.431 0.09054 39.567 1.0865-0.09-2.535-1.449-8.964-2.445-10.322-0.995-1.3583-29.517-1.9015-30.965-0.9056z"/>
  <path id="path86052" d="m22.362 37.042c1.1771 1.6298 2.9879 2.8068 9.0543 3.169 6.0664 0.36217 24.809 1.6298 29.245 1.3581 4.4366-0.27163 8.33-0.72435 9.507-3.169 1.1771-2.4447 2.3541-5.0704 1.1771-5.161-0.81489 0.6338-1.9014 0.6338-3.7123 0.72435-1.8109 0.09054-8.1422 0.41215-22.636-0.27163-19.195-0.90543-22.636-1.7203-23.632-2.0825-0.99598-0.36217-1.4487-1.7203 0.45272-2.8974 2.8974 0.6338 5.7042 1.0865 22.545 1.7203s23.27 0.72435 26.348 0.36217v0.45272l0.81489-0.18109v-0.36217l0.45272-0.90543c0.09054-0.90543 0.54326-2.6258 1.3581-2.9879 0.09054 1.992-0.09054 3.0785-0.18109 3.8028l0.272 0.091s0.36217-2.4447 0.81489-3.3501v8.8732c0 1.0865-0.36217 1.9014-1.992 1.992-0.36217 3.7123-0.45272 5.8853-0.27163 7.334s0.18109 1.9014-0.45272 2.6258c-0.6338 0.72435-0.72435 1.1771-1.7203 1.1771h-2.8974c-1.0865 0-2.3541-0.72435-1.7203-2.6258v-3.169c-1.4487 0.6338-3.5312 0.36217-6.5191 0.36217s-19.195-0.45272-22.636-0.90543c-3.4406-0.45272-4.7082-0.6338-4.7082-0.6338s-0.6338 2.6258-1.4487 3.6217c-0.81489 0.99598-1.4487 0.99598-2.8068 0.99598h-2.3541c-1.449-0.182-2.173-2.536-2.354-9.96z"/>
  <g fill="#fff">
   <path id="path86054" d="m38.478 7.7057h-0.45272s-3.2596 4.7082-4.7082 7.6962c0.99598-0.27163 2.6258-0.27163 2.6258-0.27163 0.36217-2.9879 2.5352-7.4245 2.5352-7.4245z"/>
   <path id="path86056" d="m42.009 7.434s-1.7203 3.2596-2.3541 6.338c1.3581-0.36217 2.5352-0.18109 2.5352-0.18109s0.18109-1.9014 0.54326-2.3541c0.36217-0.45272 1.3581-0.27163 1.3581-0.27163h2.8068c0.54326 0 1.0865 0.27163 1.0865 1.1771v1.8109h0.36217l0.18109-6.7002-6.5191 0.18109z"/>
   <path id="path86058" d="m49.796 7.253h-0.81489l-0.09054 6.7002h5.2515l0.18109-5.2515s-2.4447 0.090543-3.2596 0.090543c-0.81489 0-1.7203 0-1.7203-0.6338v-0.45272c0-0.36217 0.45272-0.45272 0.45272-0.45272z"/>
   <path id="path86060" d="m55.319 7.3435s0.45272 1.3581-0.27163 1.3581l-0.09054 5.2515 4.4366 0.18109s0.27163-0.45272 0.90543-0.54326l0.09054-5.7042s-2.4447-0.36217-5.0704-0.54326z"/>
   <path id="path86062" d="m60.933 7.8868v4.0744s0.09054-0.6338 0.72435-0.6338c0.6338 0 3.169 0.09054 3.8028 0.09054s0.99598 0.36217 0.99598 1.3581v1.5392h1.0865c0.36217 0 1.0865 0.45272 1.0865 0.45272s-0.6338-3.9839-1.4487-5.7948c-1.81-0.6334-6.247-1.0861-6.247-1.0861z"/>
  </g>
  <path id="path86064" d="m38.75 37.313c0.40002 0 0.72435-0.32433 0.72435-0.72435v-1.4487c0-0.40002-0.32433-0.72435-0.72435-0.72435l-10.231-0.724c-0.40002 0-0.72435 0.32433-0.72435 0.72435v1.4487c0 0.40002 0.32433 0.72435 0.72435 0.72435l10.231 0.72435z"/>
  <path id="path86066" d="m59.575 38.128c0.40002 0 0.72435-0.32433 0.72435-0.72435v-1.4487c0-0.40002-0.32433-0.72435-0.72435-0.72435l-11.046-0.27163c-0.40002 0-0.72435 0.32433-0.72435 0.72435v1.4487c0 0.40002 0.32433 0.72435 0.72435 0.72435l11.046 0.27163z"/>
  <g stroke="#000" stroke-width=".18109" fill="#fff">
   <path id="path86068" d="m43.458 25.633v-1.2676c0-0.72435-0.18109-1.1771-1.5392-1.1771l-11.952-0.27163c-0.54326 0-0.72435 0.27163-0.72435 0.99598s0.18109 1.0865 0.81489 1.0865l13.4 0.6338z"/>
   <path id="path86070" d="m60.48 26.086c0.27163-0.27163 0-1.2676 0-1.2676 0-0.45272-0.36217-0.90543-1.4487-0.90543l-12.404-0.453c-1.1771-0.09054-1.2676 0.72435-1.2676 1.2676 0 0.54326 0 1.2676 0.90543 1.2676s14.215 0.09054 14.215 0.09054z"/>
   <path id="path86072" d="m60.299 27.535s-13.491-0.27163-14.215-0.27163c-0.72435 0-0.81489 0.09054-0.81489 0.99598 0 0.90543 0.09054 1.2676 0.81489 1.2676l14.215 0.36217c0.36217 0 0.36217-2.3541 0-2.3541z"/>
   <path id="path86074" d="m43.187 26.901-14.035-0.453c-0.36217 0.27163-0.36217 1.8109-0.18109 2.173l14.215 0.6338c0.36217-0.18109 0.36217-2.0825 0-2.3541z"/>
  </g>
  <path id="path86076" d="m74.062 29.164c0.18109-1.8109 0.72435-3.8934 0.54326-4.3461 0 0 0.27163-0.09054 0.27163-0.6338s-0.27163-0.54326-0.27163-0.54326 0.09054-0.6338 0.27163-1.4487c0.18109-0.81489 0.09054-1.7203-0.18109-2.7163-0.27163-0.99598-0.90543-2.2636-0.90543-3.0785 0-0.81489 0-1.7203-0.54326-1.7203h-1.0865s-0.81489-4.5272-1.8109-6.6097c-0.995-2.082-1.72-2.082-4.436-2.5347s-16.388-0.9054-21.368-0.9054c-4.9799 0-6.2475 0.45272-7.6056 1.5392s-5.4326 7.9678-5.4326 7.9678h-0.99598v2.173s-1.1771 0.45272-2.7163 1.0865c-1.5392 0.6338-1.9014 1.8109-1.9014 2.9879 0 0-1.7203 0.99598-2.8974 1.9014-1.1771 0.90543-1.5392 3.8934-1.5392 5.0704 0 1.1771 0 1.8109 0.99598 1.992-0.99598 0.45272-1.9014 1.7203-1.6298 2.7163 0.27163 0.99598 1.4487 6.4286 2.9879 7.0624" stroke="#000" stroke-width=".27163" fill="none"/>
  <path id="path86078" d="m69.082 7.0719c0.09054-0.27163 0.45272 0 0.81489 0.99598s2.0825 5.161 2.2636 7.2435h0.6338v1.992h-0.99598c-0.724-4.889-2.173-8.7824-2.716-10.231z"/>
  <polygon id="polygon86080" points="55.25 53.25 55.25 63.25 56.75 63.25 60.75 53.25" transform="matrix(.18109 0 0 .18109 20.505 4.4914)"/>
  <path id="path86082" d="m30.601 14.768c0.31672-0.42248 0.54326-2.9879 0.18109-3.2596-0.36217-0.27163-3.2596-0.36217-3.6217-0.09054-0.36217 0.27163-0.6338 2.5352-0.27163 2.9879 0.36217 0.45272 3.4406 0.72435 3.7123 0.36217z" stroke="#000" stroke-width=".18109" fill="#fff"/>
  <path id="path86084" d="m73.247 12.957c-0.45272 0.45272-0.27163 3.169 0 3.4406 0.27163 0.27163 4.4366 0.18109 4.8893-0.18109 0.45272-0.36217 0.27163-2.7163-0.09054-3.169-0.36217-0.45272-4.4366-0.45272-4.7988-0.09054z" stroke="#000" stroke-width=".18109" fill="#fff"/>
  <g fill="none">
   <g stroke="#000">
    <path id="path86086" d="m62.653 30.975s0.18109-4.7988 0.09054-6.1569c-0.09054-1.3581-0.45272-1.992-2.7163-2.3541-2.2636-0.36217-13.672-0.99598-13.672-0.99598-0.09054-0.45272-3.169-0.54326-3.2596 0 0 0-10.412-0.27163-12.495-0.18109-2.0825 0.09054-3.2596 0.45272-3.2596 2.6258v5.7948" stroke-width=".18109"/>
    <path id="path86088" d="m27.341 25.543c-1.7203 0-4.2555-0.36217-5.6137-0.6338" stroke-width=".27163"/>
    <line id="line86090" stroke-width=".27163" y2="28.983" y1="25.181" x2="22.905" x1="22.905"/>
    <path id="path86092" d="m69.716 33.782c0.27163 0.27163-0.09054 0.99598-0.09054 0.99598l-0.54326 1.8109c-0.90543 1.9014-2.0825 2.6258-7.5151 2.8068-5.4326 0.18109-29.698-1.1771-32.958-1.5392-3.2596-0.36217-5.7948-0.90543-6.4286-2.6258-0.6338-1.7203-0.81489-2.8974-0.81489-2.8974 0-0.72435 0.18109-0.90543 0.54326-0.99598" stroke-width=".18109"/>
    <g stroke-width=".090543">
     <path id="path86094" d="m27.432 23.551c-0.996-0.725-1.449-2.354-1.539-3.169"/>
     <path id="path86096" d="m70.44 17.032c0.6338 0.45272 1.992 1.1771 2.0825 3.4406-2.6258 1.6298-8.2394 3.8934-9.7787 4.3461"/>
     <path id="path86098" d="m72.523 20.472c0.72435 1.1771 1.9014 3.169 0.90543 10.231"/>
    </g>
    <path id="path86100" d="m62.744 27.082h7.1529c0.99598 0 1.5392 0.09054 1.5392 1.5392v2.0825" stroke-width=".27163"/>
    <path id="path86102" d="m71.436 30.704s0.6338-3.8934 1.2676-4.5272 0.99598-0.90543 0.99598-0.18109c0 0.72435-0.99598 5.2515-0.99598 5.2515" stroke-width=".090543"/>
    <path id="path86104" d="m68.358 7.5246c-0.453-0.9054-0.453-1.6298-0.906-1.8109" stroke-width=".27163"/>
    <g stroke-width=".090543">
     <path id="path86106" d="m43.096 21.468c0 1.0865 0 1.6298 0.45272 2.0825 0.45272 0.45272 0.99598 0.81489 0.99598 0.81489s0.81489-0.45272 1.0865-1.0865c0.27163-0.6338 0.90543-1.6298 0.45272-1.9014"/>
     <path id="path86108" d="m46.899 21.378c0.54326-1.992 1.992-3.6217 5.9759-5.2515-3.3501 2.173-4.9799 3.2596-5.9759 5.2515z"/>
     <path id="path86110" d="m46.446 15.673c-1.3581 0.99598-3.7123 3.5312-3.8934 5.7042"/>
    </g>
    <line id="line86112" stroke-width=".27163" y2="30.885" y1="27.172" x2="68.81" x1="68.81"/>
    <path id="path86114" d="m30.782 11.508c-0.6338 0.6338-0.72435 1.5392-0.72435 1.5392s0.18109 1.1771 0.54326 1.7203" stroke-width=".090543"/>
    <polyline id="polyline86116" transform="matrix(.18109 0 0 .18109 20.505 4.4914)" points="36.75 38.25 37.25 47.25 35.25 54.75" stroke-width=".5"/>
    <g stroke-width=".090543">
     <line id="line86118" y2="13.048" y1="13.048" x2="30.058" x1="27.251"/>
     <path id="path86120" d="m74.062 12.776c-0.45272 0.09054-0.90543 0.81489-0.36217 1.9014-0.36217 0.81489-0.36217 1.7203 0.09054 1.7203"/>
     <path id="path86122" d="m77.231 12.957c0.54326 0 1.3581 0.36217 0.27163 1.6298 0.6338 0.54326 0.6338 1.6298 0.18109 1.8109"/>
     <line id="line86124" y2="14.678" y1="14.587" x2="73.7" x1="77.502"/>
     <path id="path86126" d="m62.925 23.37c2.5352-1.1771 6.6097-2.8068 7.4245-3.5312"/>
     <path id="path86128" d="m27.704 21.83c-0.634-0.543-0.996-2.173-0.634-2.897"/>
     <path id="path86130" d="m73.881 27.444c0.18109-1.5392 0.45272-2.6258 0.45272-2.6258l0.27163 0.36217"/>
     <path id="path86132" d="m72.07 16.851c0 0.6338-0.6338 0.99598-0.6338 0.99598"/>
     <path id="path86134" d="m72.07 33.058c-0.906 1.72-1.902 1.539-5.523 1.72-3.622 0.181-15.483-0.272-22.274-0.543-6.791-0.272-16.66-0.724-19.467-1.268"/>
    </g>
   </g>
   <g stroke="#fff" stroke-width=".090543" stroke-linecap="round">
    <line id="line86136" y2="49.446" y1="35.593" x2="70.712" x1="71.074"/>
    <path id="path86138" d="m20.732 28.983c0.36217 0.99598 4.7082 1.8109 9.1449 2.0825 4.4366 0.27163 27.887 0.90543 33.32 1.0865 5.4326 0.18109 7.6962 0.27163 8.6016-1.0865"/>
    <path id="path86140" d="m23.901 38.309c0.18109 2.0825 0.2624 3.5444 4.7988 3.8934 1.229 0.09453 2.1002 0.17674 2.7165 0.24664"/>
    <path id="path86142" d="m64.984 43.718c1.6298-0.54326 3.7226-1.122 4.0065-3.9613"/>
    <path id="path86144" d="m72.251 38.4c0-2.0825 0.09054-4.4366 0.09054-4.4366l0.72435-2.8068"/>
    <path id="path86146" d="m73.428 31.066s-0.36217 5.3421-0.09054 6.8813"/>
    <path id="path86148" d="m22.769 37.63c-0.09054 1.6298-0.16606 7.7867 1.7354 9.4165"/>
    <path id="path86150" d="m28.156 47.001c-1.358-0.633-1.29-4.119-1.29-5.025"/>
   </g>
  </g>
  <path id="path86152" d="m43.73 21.83 1.7656 0.09054-0.36217 1.3129s-0.27163 0.40744-0.6338 0.6338c-0.45272-0.22636-0.81489-0.72435-0.81489-0.72435l0.04527-1.3129z"/>
 </g>
</svg>
