<?xml version="1.0" encoding="UTF-8" standalone="no"?>
<!-- Created with Inkscape (http://www.inkscape.org/) -->
<svg id="svg2" xmlns:rdf="http://www.w3.org/1999/02/22-rdf-syntax-ns#" xmlns="http://www.w3.org/2000/svg" height="54" width="99" version="1.1" xmlns:cc="http://creativecommons.org/ns#" xmlns:dc="http://purl.org/dc/elements/1.1/">
 <metadata id="metadata7">
  <rdf:RDF>
   <cc:Work rdf:about="">
    <dc:format>image/svg+xml</dc:format>
    <dc:type rdf:resource="http://purl.org/dc/dcmitype/StillImage"/>
    <dc:title/>
   </cc:Work>
  </rdf:RDF>
 </metadata>
 <g id="g22891">
  <rect id="rect2990" opacity="0" height="54" width="99" y="0" x="0"/>
  <path id="path73989" fill="#fff" d="m89.493 35.085 3.6215-0.43329c0.53317-0.08886 0.08886-0.75533 0.17772-1.1552 0.08886-0.39988 0.88862-0.88862 0.93305-1.5107 0.04443-0.62204-0.08886-2.266-0.08886-2.266 0.26659-0.08886 0.26659-0.79976-0.13329-0.88862s-0.44431-0.5776-0.44431-1.0219c0-0.44431-0.01795-3.1642-0.39988-4.1765-0.88862-2.3548-1.1108-2.6659-1.7772-2.7992-0.666-0.134-4.665-0.533-5.332-0.711-0.666-0.178-1.244-0.578-1.91-1.333-0.667-0.755-5.243-6.354-6.665-7.598-1.422-1.2439-4.087-1.8659-9.686-1.9548-5.598-0.0888-23.134 0.1344-26.125 0.5332-2 0.2666-4.488 2.5766-10.975 7.2866 0 0-0.04443-0.62204-0.5776-0.88862-0.53317-0.26659-1.955-0.44431-2.577-0.08886-0.62204 0.35545-0.88862 2.4881 0 2.6659l0.85539 0.25557-0.67766 0.54437c-10.575 1.3329-18.293 3.0323-19.55 4.3542-0.84419 0.88862-0.62204 1.5107-0.88862 3.7322 0 0-0.83655 0.59982-2.2216 0.97748-0.48874 0.13329-0.44431 1.3329-0.17772 1.3329 0 0.7109-0.38886 2.7075 0.26659 3.199 0.7109 0.53317 1.2441 0.88862 1.3329 1.5107 0.082464 0.57707-0.10272 1.1158 0.22464 1.6164l-0.012085 0.01653c-0.095794 0.06665-0.27903 0.23335-0.21238 0.49994l-0.35545 0.35545c0 0.35545 2.0438 0.62204 2.0438 0.62204s0.79976 5.3317 6.4869 5.2429h2.9325c2.7547 0 4.2654-1.1552 5.154-2.577l5.5095-0.53317c2.2216 0.53317 13.329 0.62204 15.462 0.44431 0.17772 1.4218 2.3104 4.6208 5.6872 4.6208h4.6208c2.9325 0 4.9763-3.0213 4.9763-3.9988 0.79976 0 1.0663-0.44431 1.0663-0.44431l0.35545-0.7109c6.8424-0.08886 16.262-0.97748 19.816-1.6884 0.26659 1.955 1.4218 3.9988 3.4656 3.9988h2.0438c3.0119-0.000177 3.8182-4.5686 3.7539-7.0315z"/>
  <path id="path73991" d="m48.372 38.295s-9.6416-0.35545-17.906-0.7109c-8.264-0.356-23.726-1.333-23.726-1.333s-0.35545 0.17772-0.26659 0.53317l-0.35545 0.35545c0 0.35545 2.0438 0.62204 2.0438 0.62204s0.79976 5.3317 6.4869 5.2429h2.9325c2.7547 0 4.2654-1.1552 5.154-2.577l5.5095-0.53317c2.2216 0.53317 13.329 0.62204 15.462 0.44431 0.17772 1.4218 2.3104 4.6208 5.6872 4.6208h4.6208c2.9325 0 4.9763-3.0213 4.9763-3.9988 0.79976 0 1.0663-0.44431 1.0663-0.44431l0.354-0.71c6.8424-0.08886 16.262-0.97748 19.816-1.6884 0.26659 1.955 1.4218 3.9988 3.4656 3.9988h2.0438c3.199 0 3.9099-5.154 3.7322-7.4644 1.3329-1.3329 0.53317-4.9763 0.53317-4.9763-0.62204-1.8661-1.2441-2.7547-2.3104-2.7547s-2.0438 1.0663-2.6659 2.4881c-0.62204 1.4218-1.8661 4.532-2.4881 4.8874-0.62204 0.35545-0.08886 1.3329-0.79976 1.8661l-0.35545 0.7109-20.616 0.88862-0.08886-0.62204c0.26659-0.44431 0.08886-1.2441-0.08886-1.6884-0.17772-0.44431-0.03732-1.9642-0.26659-3.1102-0.08886-0.44431-0.53317-0.53317-0.53317-0.53317 0-3.2879-1.1552-5.776-4.3542-5.776s-6.0871 3.7322-7.0645 12.263z"/>
  <path id="path73993" d="m31.622 35.185-20.883-0.978c0.35545 0.79976 1.3329 1.7772 2.6659 1.955 0 0 10.752 0.88862 16.173 0.88862 2.0438 0 2.0438-1.8661 2.0438-1.8661z"/>
  <path id="path73995" d="m31.711 34.651-21.149-0.977c-0.53317-0.08886-0.62204-1.5107-0.44431-1.7772 0.17772-0.26659 19.55 0.7109 20.527 0.7109 0.97748 0 1.4218 1.5995 1.0663 2.0438z"/>
  <path id="path73999" d="m26.157 28.031c0.79976 0 0.88862-0.39988 1.0663-0.75533 0 0 0.31102-1.1552 0.48874-1.6884 0.17772-0.53317-0.44431-0.62204-0.97748-0.62204s-9.1528-0.35545-9.8637-0.26659-0.53317 0.97748-0.53317 0.97748l0.26659 1.2441s0.08886 0.79976 1.1552 0.88862 7.42 0.31102 8.3975 0.22216z"/>
  <path id="path74001" d="m61.835 20.7s2.7547-7.9976 2.9325-9.1528c0.17772-1.1552-1.955-1.0663-1.955-1.0663-4.9763-0.35545-16.617-0.26659-19.461-0.08886-2.8436 0.17772-3.3768 0.7109-4.3542 1.3329-0.97748 0.62204-6.1649 4.0322-10.519 7.7644l1.8661-0.08886s6.6981-5.1874 8.9196-6.4315c2.2216-1.2441 2.8436-1.3329 3.8211-1.3329 0.97748 0 3.6434-0.08886 3.6434-0.08886l-4.532 7.5533-2.5326 0.19994 5.8205 0.19994v-1.3774s0.17772 0.08886 0.17772-0.53317c0-0.62204 0.26659-1.2441 0.26659-1.2441l0.08886-0.7109 2.3993-3.9988h1.4218l-0.08886 0.35545h-0.62204c-0.44431 0-0.7109 1.4218-0.08886 1.4218l3.9099 0.17772-0.53317 2.4881h-2.2216c-1.1552 0-1.1552 0.44431-1.2441 0.97748l-0.17772 0.97748c-0.17772 0.7109 0.44431 1.5773 0.97748 1.6662 0 0 8.7974 0.64425 12.085 0.9997z"/>
  <path id="path74003" fill="#fff" d="m63.968 12.08-1.5107 4.7097h-3.199c-0.7109 0-0.79976 0.97748-0.79976 0.97748-0.53317-0.62204-1.955-0.53317-2.3104-0.26659-0.26659-1.2441-0.26659-2.9325 0-3.8211 0.26659-0.88862 0.7109-1.2441 1.955-1.4218 1.2441-0.17772 5.8649-0.17772 5.8649-0.17772z"/>
  <path id="path74005" d="m65.478 19.989 0.08886 0.62204 15.284-0.17772c0.97748-0.17772 1.7772-0.7109 1.5107-1.3329-0.26659-0.62204-3.4656-5.5095-5.154-6.9313s-2.3104-1.0663-3.2879-1.1552c-0.97748-0.08886-4.6985-0.24686-6.7535-0.08886-1.1552 0.08886-1.5107 1.4218-1.5107 1.4218l-2.577 8.4419 2.2216 0.17772v-0.35545l-1.7772-0.17772 1.0663-3.7322 0.7109 1.955s0.26659-1.2441 0.7109-1.7772c0.44431-0.53317 1.5107-0.44431 1.5107-0.44431l2.577 0.26659c1.2441 0.17772 1.5281 1.8672 1.2441 2.577-0.35545 0.88862-5.8649 0.7109-5.8649 0.7109z"/>
  <g fill="#fff">
   <path id="path74007" d="m64.768 16.346 4.265-0.267c0.62204 0.08886 1.0219 0.44431 1.0219 0.44431l0.97748 0.26659s-0.04443-0.44431 0.31102-0.53317-0.35545-0.7109 0.26659-0.79976l-1.7772-3.2879-3.9099 0.17772-1.1552 3.9988z"/>
   <path id="path74009" d="m71.699 12.08s1.5107 3.1102 2.1327 5.154l3.9988 0.08886c1.1552 0 1.4218 0.08886 1.955 2.3104h1.4218c-0.7109-1.4218-3.5451-5.7604-4.9763-6.9313-0.97748-0.79976-1.5995-0.62204-1.5995-0.62204h-2.9325z"/>
   <path id="path74011" d="m49.355 34.001c0.82411-1.8062 2.1816-3.1056 3.9115-3.1056 2.611 0 4.7278 2.7574 4.7278 6.1585s-2.1167 6.1585-4.7278 6.1585c-2.3621 0-4.257-2.2148-4.605-5.1606 0.13152-1.4908 0.4779-3.1455 0.69348-4.0509z"/>
  </g>
  <g stroke="#000" stroke-width=".35545" fill="none">
   <ellipse id="ellipse74015" rx="1.8849" ry="2.639" cy="36.962" cx="53.482"/>
   <path id="path74017" d="m53.482 36.962"/>
   <ellipse id="ellipse74021" rx="4.1472" ry="5.5422" cy="37.095" cx="53.304"/>
   <path id="path74023" d="m53.304 37.095"/>
  </g>
  <path id="path74025" d="m52.593 42.516s0.97748 0.17772 1.1996 0.08886c0.22216-0.08886 0.08886-1.5107-0.53317-1.5551-0.62204-0.04443-0.66647 1.4662-0.66647 1.4662z"/>
  <path id="path74027" d="m51.483 42.071s-0.75533-0.5776-1.0663-1.1108c-0.31102-0.53317 1.0663-0.7109 1.3774-0.39988 0.31102 0.31102-0.31102 1.5107-0.31102 1.5107z"/>
  <path id="path74029" d="m54.726 42.249s0.66647-0.31102 1.0219-0.7109c0.35545-0.39988-0.44431-1.1108-0.93305-0.88862-0.48874 0.22216-0.08886 1.5995-0.08886 1.5995z"/>
  <path id="path74031" d="m56.326 40.916 0.533-1.11s-0.88862-0.48874-1.0663-0.08886c-0.17772 0.39988 0.53317 1.1996 0.53317 1.1996z"/>
  <path id="path74033" d="m57.17 35.185s0.22216 0.88862 0.26659 1.4218c0.04443 0.53317-0.88862 0.08886-1.0219-0.39988-0.13329-0.48874 0.75533-1.0219 0.75533-1.0219z"/>
  <path id="path74035" d="m57.17 39.095s0.26659-1.1996 0.26659-1.5551c0-0.35545-0.97748 0.04443-1.0663 0.48874-0.08886 0.44431 0.79976 1.0663 0.79976 1.0663z"/>
  <path id="path74037" d="m56.77 34.029s-0.48874-0.84419-0.88862-1.2441c-0.39988-0.39988-0.5776 1.0663-0.22216 1.3774 0.35545 0.31102 1.1108-0.13329 1.1108-0.13329z"/>
  <path id="path74039" d="m55.259 32.252s-0.75533-0.62204-1.5551-0.62204c-0.79976 0-0.13329 1.1552 0.39988 1.3329 0.53317 0.17772 1.1552-0.7109 1.1552-0.7109z"/>
  <path id="path74041" d="m52.682 31.675s-0.88862 0.08886-1.4218 0.7109c-0.53317 0.62204 0.62204 0.84419 1.1552 0.7109 0.53317-0.13329 0.26659-1.4218 0.26659-1.4218z"/>
  <path id="path74043" d="m50.55 33.008s-0.66647 0.79976-0.84419 1.3774c-0.17772 0.5776 1.0219 0.44431 1.2885 0 0.26659-0.44431-0.44431-1.3774-0.44431-1.3774z"/>
  <path id="path74045" d="m49.439 35.407s-0.26659 0.66647-0.22216 1.6884 1.0663-0.04443 1.1996-0.66647c0.13329-0.62204-0.97748-1.0219-0.97748-1.0219z"/>
  <path id="path74047" d="m49.35 38.339s0.08886 0.79976 0.48874 1.7328c0.39988 0.93305 0.97748-0.66647 0.79976-1.1996-0.17772-0.53317-1.2885-0.53317-1.2885-0.53317z"/>
  <g fill="#fff">
   <path id="path74049" d="m59.302 33.141s-0.17772-3.0435-3.1546-4.1321c-2.7204-0.99472-4.4875-0.04443-5.0207 0.26659 0 0 2.1327-1.2885 5.2429-0.06665 2.4306 0.95491 2.9325 3.9322 2.9325 3.9322z"/>
   <ellipse id="ellipse74053" rx="2.0421" ry="4.964" cy="35.229" cx="86.672"/>
   <path id="path74055" d="m86.672 35.229"/>
  </g>
  <g stroke="#000" stroke-width=".35545" fill="none">
   <ellipse id="ellipse74059" rx=".86161" ry="2.0941" cy="35.229" cx="86.85"/>
   <path id="path74061" d="m86.85 35.229"/>
   <ellipse id="ellipse74065" rx="1.94" ry="4.7157" cy="35.229" cx="86.56"/>
   <path id="path74067" d="m86.56 35.229"/>
  </g>
  <path id="path74069" d="m85.805 39.516s0.2888 0.37766 0.66647 0.39988c0.37766 0.02222 0-0.93305-0.22216-1.0663-0.22216-0.13329-0.44431 0.66647-0.44431 0.66647z"/>
  <path id="path74071" d="m85.449 39.095s-0.33323-0.44431-0.44431-1.1108c-0.11108-0.66647 0.46653-0.26659 0.5776 0 0.11108 0.26659-0.13329 1.1108-0.13329 1.1108z"/>
  <path id="path74073" d="m84.85 37.339-0.19994-1.3552s0.62204-0.02221 0.68868 0.2888c0.06665 0.31102-0.48874 1.0663-0.48874 1.0663z"/>
  <path id="path74075" d="m84.621 35.229s0.0295-0.82198 0.07393-1.1996c0.04443-0.37766 0.68868 0.24437 0.64425 0.62204-0.04443 0.37766-0.71818 0.5776-0.71818 0.5776z"/>
  <path id="path74077" d="m84.806 33.363s0.02222-0.68868 0.33323-1.3107c0.31102-0.62204 0.59982 0.66647 0.4221 1.0219-0.17772 0.35545-0.75533 0.2888-0.75533 0.2888z"/>
  <path id="path74079" d="m85.472 31.364s0.17772-0.4221 0.51096-0.62204c0.33323-0.19994 0.33323 1.0663 0.06665 1.1996-0.26659 0.13329-0.5776-0.5776-0.5776-0.5776z"/>
  <path id="path74081" d="m86.45 30.541s0.31102-0.08886 0.64425 0.17772c0.33323 0.26659-0.08886 1.0219-0.33323 0.97748-0.24437-0.04443-0.31102-1.1552-0.31102-1.1552z"/>
  <path id="path74083" d="m87.626 31.319s0.35545 0.53317 0.44431 0.9997-0.35545-0.06665-0.44431-0.26659 0-0.73311 0-0.73311z"/>
  <path id="path74085" d="m87.116 39.738s0.26659-0.19994 0.48874-0.55539c0.22216-0.35545-0.24437-0.35545-0.39988-0.2888s-0.08886 0.84419-0.08886 0.84419z"/>
  <path id="path74087" d="m87.893 38.627s0.22216-0.5776 0.26659-0.79976-0.26659-0.02222-0.35545 0.24437 0.08886 0.55539 0.08886 0.55539z"/>
  <path id="path74091" d="m88.272 37.406 0.15551-0.95527s-0.19994 0.04443-0.24437 0.33323 0.08886 0.62204 0.08886 0.62204z"/>
  <path id="path74093" d="m88.471 35.917v-0.93305s-0.17772 0.11108-0.17772 0.44431 0.17772 0.48874 0.17772 0.48874z"/>
  <path id="path74097" d="m88.293 33.118 0.15551 0.95527s-0.19994-0.04443-0.24437-0.33323 0.08886-0.62204 0.08886-0.62204z"/>
  <g stroke="#000" stroke-width=".35545" fill="none">
   <path id="path74099" d="m89.382 35.096 3.7322-0.44431c0.53317-0.08886 0.08886-0.75533 0.17772-1.1552 0.08886-0.39988 0.88862-0.88862 0.93305-1.5107 0.04443-0.62204-0.08886-2.266-0.08886-2.266 0.26659-0.08886 0.26659-0.79976-0.13329-0.88862s-0.44431-0.5776-0.44431-1.0219c0-0.44431-0.01795-3.1642-0.39988-4.1765-0.88862-2.3548-1.1108-2.6659-1.7772-2.7992-0.666-0.134-4.665-0.534-5.331-0.711-0.666-0.178-1.244-0.578-1.911-1.333-0.666-0.756-5.242-6.354-6.664-7.598-1.422-1.2442-4.088-1.8663-9.686-1.9551-5.598-0.0889-23.135 0.1343-26.126 0.5332-1.9994 0.26659-4.4875 2.577-10.974 7.2867 0 0-0.04443-0.62204-0.5776-0.88862-0.53317-0.26659-1.955-0.44431-2.577-0.08886-0.62204 0.35545-0.88862 2.4881 0 2.6659l0.85539 0.25557-0.67766 0.54437c-10.575 1.3329-18.293 3.0323-19.55 4.3542-0.84419 0.88862-0.62204 1.5107-0.88862 3.7322 0 0-0.83655 0.59982-2.2216 0.97748-0.48874 0.13329-0.44431 1.3329-0.17772 1.3329 0 0.7109-0.38886 2.7075 0.26659 3.199 0.7109 0.53317 1.2441 0.88862 1.3329 1.5107 0.088862 0.62204-0.13329 1.1996 0.31102 1.7328"/>
   <path id="path74101" d="m4.8736 29.942s19.639 0.7109 28.08 1.0663c8.4419 0.35545 15.284 0.26659 16.173 0 0.88862-0.26659 0.44431-0.7109 0-0.88862s-3.6434 0.44431-15.817 0c-12.175-0.445-28.525-1.067-28.525-1.067"/>
   <path id="path74103" d="m26.539 28.502c0.87974 0 0.97748-0.43987 1.173-0.83086 0 0 0.56428-1.7595 0.75977-2.346 0.1955-0.58649-0.2266-0.83442-0.80865-0.9064-1.3285-0.1644-8.5708-0.43098-11.028-0.24881-0.7859 0.05829-0.85308 0.85308-0.85308 0.85308l0.24881 2.2571s0.18661 0.9686 1.3596 1.0663c1.173 0.09775 8.0733 0.25326 9.1484 0.15551z"/>
   <path id="path74105" d="m27.623 27.942s7.9976 0.17772 13.551 0.35545c5.5539 0.17772 6.9313 0.26659 10.486 0.26659"/>
   <path id="path74107" d="m28.556 24.965c0.39988-0.26659 15.195 0.35545 16.928 0.44431 1.7328 0.08886 1.9336 2.5713 2.0216 3.0992"/>
   <line id="line74109" x1="7.3618" x2="16.115" y1="27.098" y2="27.498"/>
   <path id="path74111" d="m7.5395 27.098s0.088862-2.7103 0.93305-2.7992c0.84419-0.08886 7.3311-0.13329 7.6866 0.04443"/>
   <line id="line74115" y2="27.987" y1="25.01" x2="31.755" x1="32.244"/>
   <line id="line74117" y2="27.987" y1="25.01" x2="32.022" x1="32.511"/>
   <line id="line74119" y2="28.298" y1="25.276" x2="40.908" x1="41.13"/>
   <line id="line74121" y2="28.298" y1="25.276" x2="41.175" x1="41.397"/>
   <line id="line74123" y2="27.898" y1="25.01" x2="27.845" x1="28.778"/>
   <path id="path74125" d="m13.404 24.254c-0.35545 0.44431-0.53317 2.4881-0.44431 3.0657"/>
   <path id="path74127" d="m13.671 24.254c-0.35545 0.44431-0.53317 2.4881-0.44431 3.0657"/>
   <path id="path74129" d="m7.8061 27.098s0.088862-2.7103 0.97748-2.7547"/>
   <path id="path74131" d="m41.752 25.232c0-0.88862 1.0663-2.3993 18.572-4.6208"/>
   <path id="path74133" d="m27.712 19.545c4.1765-0.26659 14.307-0.79976 34.123 1.1552 0 0 0.53317 0.31102 1.2441 0.08886l2.4437 0.17772s15.862 0.04443 16.617-0.31102c0.75533-0.35545 0.79976-1.1552 0.62204-1.4218"/>
   <path id="path74135" d="m82.362 19.1s0.44431-0.17772 0.66647 0 0.88862 0.97748 0.75533 1.5551c0.62204 0.17772 1.0219 0.53317 1.1996 1.1996 0.17772 0.66647 0.31102 3.1546 0.48874 3.7766 0.17772 0.62204 0.5776 1.1108 0.13329 1.644-0.44431 0.53317-1.1952 1.5857-1.7772 3.3323-0.66647 1.9994-1.4662 3.4212-1.8661 3.8211-0.39988 0.39988-0.31102 0.7109-0.35545 1.0663-0.04443 0.35545-0.7109 1.3774-0.7109 1.3774"/>
   <line id="line74137" x1="60.68" x2="81.696" y1="37.14" y2="36.295"/>
   <line id="line74139" x1="60.547" x2="82.407" y1="35.896" y2="35.185"/>
   <line id="line74141" x1="60.28" x2="83.073" y1="34.563" y2="33.985"/>
   <path id="path74143" d="m62.901 20.833c0.97748 0.48874 0.88862 1.9994 1.0219 3.2879 0.10308 0.99704 0.13329 5.5095 0.13329 5.5095v0.39988c0.26659 0.08886 0.22216 0.66647 0 0.66647 0 0 0.08886 2.7992 0.08886 3.5545 0 0.75533-0.13329 1.2441-0.48874 1.7328-0.35545 0.48874-0.31102 1.4218-0.35545 1.7772"/>
   <path id="path74145" d="m74.276 20.522c0.31102 0.04443 0 0.44431 0 0.44431s0.62204-0.08886 1.1996 0.44431c0.5776 0.53317 1.1996 4.1765 1.1552 8.3086 0.26659 0 0.35545 0.62204 0 0.66647 0.04443 1.2885-0.17772 2.9325-0.7109 3.5989-0.53317 0.66647-0.7109 0.62204-0.93305 1.3774-0.22216 0.75533-0.17772 2.0883-0.17772 2.0883"/>
  </g>
  <path id="path74147" d="m31.311 37.628c0.84419-0.08886 1.2885-0.75533 1.5551-1.2441 0.26659-0.48874 0.66647-1.8661 1.5995-2.0438 0.93305-0.17772 7.731 0.53317 10.53 0.44431 2.7992-0.08886 2.4437 1.0219-0.66647 0.93305-3.1102-0.08886-8.5752-0.79976-9.4194-0.08886-0.84419 0.7109-0.7109 1.4218-1.4662 1.6884-0.75533 0.26659-2.1327 0.31102-2.1327 0.31102z"/>
  <path id="path74149" d="m5.3179 33.274s2.3104-0.17772 2.9325 0.08886c0.62204 0.26659 1.6884 1.0219 2.4437 1.9994 0.75533 0.97748 1.955 1.2885 1.955 1.2885l-0.84419-0.04443s-1.0974-0.49816-1.5107-1.0663c-0.7109-0.97748-1.4218-1.2885-2.5326-1.3329-1.1108-0.04443-1.4662 0-1.4662 0s-0.17772-0.35545-0.97748-0.93305z"/>
  <g stroke-width=".35545" fill="none">
   <g stroke="#000">
    <path id="path74151" d="m28.423 24.699c0.26659-1.2441 5.154-2.8436 24.082-4.7986"/>
    <path id="path74153" d="m16.426 24.077c0.88862-1.2441 4.4431-2.8436 15.373-4.7097"/>
    <path id="path74155" d="m13.049 22.122s-4.4431 1.4218-4.5764 2.1771"/>
   </g>
   <ellipse id="ellipse74159" rx=".82944" ry="1.0367" stroke="#fff" cy="26.32" cx="21.713"/>
   <path id="path74161" d="m21.713 26.32" stroke="#fff"/>
  </g>
  <polygon id="polygon74163" points="96.031 91.596 97.819 91.596 99.332 102.18 98.781 102.46 96.856 95.859 94.794 102.32 94.381 102.05" fill="#fff" transform="matrix(.17772 0 0 .17772 4.4994 9.0396)"/>
  <g stroke="#000" stroke-width=".35545" fill="none">
   <path id="path74165" d="m47.039 28.564c1.1996 0.04443 1.9105 1.0219 2.5326 1.8217"/>
   <path id="path74167" d="m49.261 29.986c-0.39988-0.17772-2.0883 0.22216-9.4194 0.04443-7.331-0.177-34.968-1.243-34.968-1.243"/>
   <path id="path74169" d="m46.906 35.362c0.7109-0.53317 0.79976 0.08886 1.955-4.2654"/>
   <path id="path74171" d="m59.525 27.454c0.32897 0.65776 0.75533 2.266 0.75533 2.266s21.771-0.22216 23.46-0.48874c1.6884-0.26659 0.62204-3.3323 1.2885-3.8211 0.66647-0.48874-0.7109-0.35545-0.7109-0.35545l-24.437 2.1327s-0.44431 0.08886-0.35545 0.26659z"/>
   <path id="path74173" d="m60.413 30.075s-0.04443 0.66647 0.17772 0.7109c0.22216 0.04443 22.704-0.5776 22.704-0.5776s0.53317-0.53317 0.31102-0.62204c-0.22216-0.08886-16.839 0.48874-23.193 0.48874z"/>
   <path id="path74175" d="m93.58 28.275c-0.577 0.844-3.576 0.644-3.576 0.644l-0.17772-0.62204c0.44431-0.35545-0.83246-2.8356-1.5995-3.0657-0.44431-0.13329 4.4431-0.31102 4.4431-0.31102"/>
   <path id="path74177" d="m89.96 34.563s0.31102-0.35545 0.35545-0.75533l2.9769-0.31102"/>
   <line id="line74179" x1="94.225" x2="90.538" y1="32.119" y2="32.563"/>
   <path id="path74181" d="m89.56 29.364s4.4875-0.08886 4.7097-0.35545"/>
   <path id="path74183" d="m89.827 30.075s4.0877-0.08886 4.3098-0.35545"/>
  </g>
  <path id="path74185" d="m93.559 27.187s-0.44431 0.17772-0.5776 0.04443-0.26659-3.2879-0.5776-3.7322c-0.31102-0.44431 0.53317-0.44431 0.53317-0.44431 0.46653 1.0219 0.48874 1.7328 0.62204 4.1321z"/>
  <line id="line74187" stroke-width=".35545" x1="27.712" x2="31.178" stroke="#000" y1="19.545" y2="16.701" fill="none"/>
  <path id="path74189" d="m37.042 14.124c0.53317-0.35545 1.0663 0.26659 1.6884-0.17772 0.62204-0.44431 0.79976-0.53317 1.4218-0.88862s0.17772-1.1552 0.62204-1.4218" stroke="#000" stroke-width=".35545" fill="none"/>
  <path id="path74191" d="m33.799 31.586c-0.31368 0.20918-0.26659 1.4662 0.31102 1.5995 0.5776 0.13329 6.798 0.35545 7.0645 0.17772 0.26659-0.17772 0.31102-1.1996-0.04443-1.5107-0.35545-0.31102-1.9105-0.13329-3.9988-0.17772s-2.9325-0.35545-3.3323-0.08886z"/>
  <path id="path74193" d="m5.0069 30.297s-0.13329 1.3774 0.13329 1.4662c0.26659 0.08886 3.1546 0.35545 3.4212 0.17772 0.26659-0.17772 0.35545-1.2441 0-1.4218-0.35545-0.17772-2.3548 0.13329-3.5545-0.22216z"/>
  <g stroke="#000" stroke-width=".35545" fill="none">
   <path id="path74195" d="m65.212 18.523s-0.22216 0.35545-0.44431 0.44431l0.17772 0.7109 1.7772-0.04443 0.39988 0.35545"/>
   <line id="line74197" x1="65.567" x2="63.523" y1="20.611" y2="20.433"/>
   <path id="path74199" d="m62.146 20.744s2.339-6.9467 2.7992-8.6196c0.48874-1.7772-0.62204-1.8217-1.644-1.9105-1.0219-0.08886-10.434-0.3112-19.505-0.04443-3.0213 0.08886-3.8211 1.0219-5.154 1.9105"/>
   <path id="path74201" d="m62.768 20.833 2.4881-8.3975c0.44431-1.4662 1.1108-1.7772 2.577-1.7772s5.5095 0.08886 5.5095 0.08886c1.0663 0 2.4437-0.26659 4.2654 1.9105"/>
   <path id="path74203" d="m63.301 10.214c0.7109-0.53317 1.5551-0.93305 5.7316-0.88862"/>
   <path id="path74209" d="m75.351 24.303c0.26694-0.01546 0.45693-0.24562 0.42476-0.51398l-0.09117-0.75782c-0.03235-0.26836-0.27494-0.47328-0.5417-0.45782l-1.76 0.10219c-0.26676 0.01546-0.45693 0.24544-0.42476 0.5138l0.09135 0.75782c0.03235 0.26836 0.27476 0.47328 0.5417 0.45782l1.7598-0.10201z"/>
   <path id="path74211" d="m74.366 23.489"/>
  </g>
  <path id="path74215" d="m73.741 23.377 1.3422-0.07784s0.10699-0.51594-0.81593-0.46244c-0.75515 0.0439-0.52624 0.54028-0.52624 0.54028z"/>
  <path id="path74219" d="m73.776 23.672 1.3422-0.07784s0.22873 0.49638-0.69384 0.55006c-0.75515 0.04372-0.64834-0.47221-0.64834-0.47221z"/>
  <path id="path74225" d="m84.237 23.681c0.26694-0.01546 0.45693-0.24562 0.42476-0.51398l-0.09117-0.75782c-0.03235-0.26836-0.27494-0.47328-0.5417-0.45782l-1.76 0.10219c-0.26676 0.01546-0.45693 0.24544-0.42476 0.5138l0.09135 0.75782c0.03235 0.26836 0.27476 0.47328 0.5417 0.45782l1.7598-0.10201z" stroke="#000" stroke-width=".35545" fill="none"/>
  <path id="path74227" d="m83.253 22.867" stroke="#000" stroke-width=".35545" fill="none"/>
  <path id="path74231" d="m82.627 22.755 1.3422-0.07784s0.10699-0.51593-0.81593-0.46244c-0.75515 0.0439-0.52624 0.54028-0.52624 0.54028z"/>
  <path id="path74235" d="m82.663 23.05 1.3422-0.07784s0.22873 0.49638-0.69384 0.55006c-0.75515 0.04372-0.64834-0.47221-0.64834-0.47221z"/>
  <g stroke-width=".35545" fill="none">
   <path id="path74237" d="m59.347 27.009s-1.3329-3.8211-4.4431-3.5545c-3.1102 0.26659-4.8874 2.6659-5.5095 4.532" stroke="#000"/>
   <line id="line74239" x1="9.8944" x2="31.755" stroke="#fff" y1="32.252" y2="33.141"/>
   <path id="path74241" d="m44.285 28.12-0.04443-2.4437c1.3329-0.04443 2.3548-0.13329 2.9325 2.5326l-2.888-0.08886z" stroke="#000"/>
  </g>
 </g>
</svg>
