<?xml version="1.0" encoding="UTF-8" standalone="no"?>
<!-- Created with Inkscape (http://www.inkscape.org/) -->
<svg id="svg2" xmlns:rdf="http://www.w3.org/1999/02/22-rdf-syntax-ns#" xmlns="http://www.w3.org/2000/svg" height="45" width="67.5" version="1.1" xmlns:cc="http://creativecommons.org/ns#" xmlns:dc="http://purl.org/dc/elements/1.1/">
 <metadata id="metadata7">
  <rdf:RDF>
   <cc:Work rdf:about="">
    <dc:format>image/svg+xml</dc:format>
    <dc:type rdf:resource="http://purl.org/dc/dcmitype/StillImage"/>
    <dc:title/>
   </cc:Work>
  </rdf:RDF>
 </metadata>
 <g id="g3912">
  <rect id="rect2990" opacity="0" height="45" width="67.5" y="0" x="3.5527e-15"/>
  <path id="path3909" d="m32.519 35.839c-1.268-0.407-2.414-1.446-2.928-2.654l-0.28799-0.67684-1.3806 0.07552c-1.4973 0.0819-8.39-0.1204-9.5177-0.27935-0.457-0.06441-1.3811-0.03108-2.7055 0.09761l-2.0115 0.19543-0.53099 0.57605c-0.983 1.068-2.048 1.393-4.5615 1.394-0.7593 0-1.6876-0.051-2.0629-0.112-1.7682-0.29-3.1717-1.553-3.7037-3.333-0.1431-0.48-0.1827-0.512-0.7636-0.634-0.8793-0.184-0.9896-0.272-0.7573-0.603 0.1374-0.196 0.1577-0.346 0.076-0.561-0.0614-0.162-0.1116-0.515-0.1116-0.785 0-0.43783-0.067308-0.55296-0.62031-1.0614l-0.62031-0.57028-0.02649-1.5197c-0.01769-1.0152 0.01881-1.5606 0.1101-1.643 0.07515-0.0678 0.48776-0.26812 0.91694-0.44516l0.78032-0.32189 0.098248-0.7175c0.054022-0.39462 0.12288-0.88704 0.15298-1.0942 0.078192-0.53836 0.52001-1.1366 1.0729-1.4529 1.4107-0.80699 6.0788-1.8354 12.181-2.6835 2.1418-0.29766 2.3493-0.36529 1.8531-0.60377-0.63352-0.30446-0.69672-1.5126-0.10984-2.0994 0.23371-0.23371 0.4105-0.28671 0.9563-0.28671 0.73805 0 1.417 0.22924 1.589 0.53647 0.09433 0.16856 0.47869-0.07515 2.5257-1.6015 4.4518-3.3194 4.7345-3.4756 6.5612-3.6243 2.1226-0.17284 13.92-0.38389 17.777-0.31804 4.9483 0.084463 6.7011 0.36233 8.0231 1.2719 0.52538 0.36147 1.8003 1.7568 4.1991 4.5957 1.9813 2.3448 1.805 2.2489 4.8109 2.6164 2.2553 0.27571 2.293 0.29848 2.8383 1.7123 0.39136 1.0148 0.58745 2.1717 0.59341 3.5008 0.0032 0.73285 0.03898 0.85928 0.31493 1.115 0.18756 0.17383 0.28296 0.36207 0.2401 0.47377-0.03914 0.10194-0.07115 0.63268-0.07115 1.1794 0 0.92497-0.02521 1.0258-0.36204 1.4497-0.2947 0.37084-0.3484 0.52828-0.2887 0.84652 0.09794 0.52201-0.05562 0.59163-1.7042 0.77276l-1.3345 0.14662-0.06563 0.97663c-0.11647 1.7336-0.73233 3.1391-1.6856 3.8467-0.28696 0.213-0.54514 0.25734-1.6959 0.29123-1.1817 0.03481-1.42 0.0081-1.8408-0.2066-0.68688-0.35042-1.1964-1.0262-1.4842-1.9682-0.19576-0.64097-0.29069-0.80136-0.44589-0.7534-1.0365 0.32027-9.6647 1.1471-11.974 1.1474-0.46873 0.000069-1.2603 0.03462-1.759 0.07677-0.80495 0.06804-0.92159 0.10915-1.0386 0.36598-0.07251 0.15913-0.29406 0.35754-0.49235 0.44092-0.24412 0.10265-0.45881 0.34883-0.66497 0.76254-0.36927 0.74103-1.3013 1.639-2.0695 1.9939-0.51616 0.23846-0.7842 0.26395-3.0273 0.28796-1.802 0.01929-2.5965-0.01717-2.9669-0.13612zm5.2745-1.526c2.1121-1.0704 2.9176-4.3572 1.6671-6.8031-0.67056-1.3116-1.6608-1.994-2.9037-2.001-0.67248-0.0038-0.87621 0.04904-1.3721 0.35571-0.63786 0.39446-1.6198 1.691-1.6196 2.1386 0.000072 0.19418 0.06363 0.13404 0.24449-0.23132 0.37077-0.74903 1.0152-1.4362 1.6225-1.7302 0.76432-0.37 1.8641-0.30142 2.5609 0.1597 2.09 1.3831 2.4444 5.172 0.66861 7.1472-2.0038 2.2287-5.0516 0.58772-5.3157-2.862-0.06739-0.88078-0.07083-0.88862-0.15703-0.36015-0.179 1.0974 0.41245 2.7956 1.2357 3.5477 0.64604 0.59027 0.8039 0.68612 1.3981 0.84891 0.6588 0.18048 1.3444 0.10742 1.9708-0.21002zm-1.7074-0.6222c0-0.15245 0.07787-0.38204 0.17305-0.51021 0.22912-0.30855 0.56338-0.11464 0.71526 0.41491 0.16991 0.59243 0.48355 0.445 0.52842-0.24838 0.0417-0.64438 0.26279-0.80674 0.70444-0.51735 0.40301 0.26406 0.55789 0.11926 0.3345-0.31273-0.23025-0.44525-0.12433-0.63385 0.30747-0.54749 0.44984 0.08997 0.58214-0.33647 0.223-0.71876-0.31467-0.33496-0.25181-0.65937 0.16664-0.85992 0.39559-0.1896 0.42164-0.40531 0.06835-0.56614-0.46663-0.21245-0.54582-0.49188-0.23357-0.82426 0.24815-0.26414 0.26377-0.34075 0.14371-0.70456-0.11872-0.35974-0.17592-0.40214-0.48186-0.35724-0.42351 0.06216-0.66333-0.29096-0.54952-0.80913 0.09881-0.44987-0.09181-0.54973-0.5419-0.28386-0.43712 0.25821-0.69006 0.14832-0.95776-0.4161-0.22449-0.47333-0.4802-0.49872-0.4802-0.04767 0 0.51934-0.25539 0.789-0.67072 0.70819-0.9238-0.17974-0.86652-0.23381-0.68982 0.65109 0.07019 0.3514-0.04802 0.46362-0.60907 0.57837-0.47911 0.09799-0.54145 0.42517-0.14103 0.74014 0.40654 0.31979 0.39155 0.64335-0.05026 1.0852-0.48522 0.48522-0.46719 0.76793 0.06011 0.94194 0.51426 0.16972 0.64321 0.54898 0.3717 1.0932-0.25477 0.51069-0.24166 0.62263 0.05434 0.46421 0.13532-0.07242 0.39192-0.11484 0.57024-0.09426 0.30181 0.03483 0.3242 0.07705 0.3242 0.61139 0 0.37929 0.06107 0.6128 0.18008 0.68845 0.30152 0.19167 0.4802 0.1325 0.4802-0.15903zm0.12119-1.7347c-1.3634-0.68427-1.4274-3.1297-0.10267-3.9205 1.3794-0.82342 2.7284 1.3732 1.8723 3.0487-0.45158 0.88376-1.1047 1.2055-1.7696 0.87177zm1.1934-0.48475c0.32601-0.32601 0.66311-1.3792 0.55404-1.7309-0.02633-0.08483-0.07931-0.29864-0.11786-0.47513-0.11922-0.54637-0.63969-1.0597-1.0745-1.0597-0.79014 0-1.2766 0.68988-1.2766 1.8106 0 1.4252 1.105 2.265 1.9148 1.4552zm24.474 0.24196c0.02065-0.14027 0.13021-0.28442 0.24338-0.32034 0.26168-0.08305 0.58786-1.1853 0.65902-2.227 0.06331-0.92628-0.09355-2.1983-0.33302-2.7011-0.09434-0.19808-0.20312-0.46204-0.24171-0.58658-0.06739-0.21746-0.07955-0.21796-0.30631-0.01273-0.22927 0.20749-0.24126 0.20186-0.41297-0.19374l-0.17685-0.40744-0.0048 0.4431c-0.0048 0.44579-0.1635 0.68594-0.30361 0.45923-0.18117-0.29314-0.29128-0.08217-0.22177 0.42495 0.06715 0.49009 0.04818 0.55395-0.18237 0.61425-0.27046 0.07072-0.36612 0.55814-0.13729 0.69956 0.18397 0.1137 0.14258 0.53911-0.06002 0.61686-0.10265 0.03939-0.18007 0.21844-0.18007 0.41641 0 0.22868 0.06155 0.3473 0.18007 0.3473 0.20399 0 0.25317 0.5409 0.06002 0.66027-0.1839 0.11366-0.14416 0.28183 0.12005 0.50805 0.15782 0.13513 0.2401 0.35414 0.2401 0.63909 0 0.52961 0.10516 0.65758 0.31362 0.38162 0.1432-0.18958 0.17085-0.17319 0.30871 0.18303 0.16593 0.42873 0.37668 0.45543 0.43571 0.05521zm-0.69746-1.8489c-0.14229-0.31354-0.23526-0.77931-0.23526-1.1787 0-0.39936 0.09297-0.86512 0.23526-1.1787 0.20484-0.45138 0.27823-0.51346 0.5676-0.4802 0.47496 0.05459 0.75214 0.66593 0.75214 1.6589 0 0.99294-0.27719 1.6043-0.75214 1.6589-0.28938 0.03326-0.36276-0.02882-0.5676-0.4802zm0.97148-0.50112c0.07331-0.27224 0.10268-0.71826 0.06531-0.99115-0.22937-1.6734-0.95815-1.3095-0.89159 0.44528 0.05298 1.397 0.51495 1.7022 0.82632 0.54586zm-29.304 1.4953c0-0.05946 0.10534-0.72124 0.23408-1.4706 0.3034-1.7659 0.74782-3.2777 1.3268-4.5131l0.46443-0.99107h-0.45565c-0.25062 0-0.7198-0.03535-1.0426-0.07855l-0.58699-0.07855 0.57024 0.61363c0.63389 0.68213 0.71694 1.0424 0.2856 1.239-0.2242 0.10215-0.34146 0.33704-0.55228 1.1063-0.44321 1.6172-0.74505 2.073-1.4656 2.2131-0.55149 0.1072-2.9365 0.09912-5.8609-0.01986-1.7198-0.06996-2.5609-0.0606-2.7927 0.0311-0.18324 0.0725-0.47741 0.37257-0.65739 0.67052-0.31912 0.52834-0.63064 0.73447-1.2319 0.81516-0.35916 0.0482 1.7744 0.16331 6.1825 0.33358 3.0167 0.11652 3.9892 0.15723 5.1321 0.21486 0.24761 0.01249 0.45019-0.02595 0.45019-0.08542zm11.045-0.50198c0-0.06061-0.37816-0.1102-0.84035-0.1102-0.5921 0-0.84043 0.04433-0.84062 0.15006-0.00024 0.10958 0.22652 0.13931 0.84035 0.1102 0.46234-0.02193 0.84062-0.08945 0.84062-0.15006zm-23.332-0.102c0.24228-0.14773 0.54223-0.5415 0.83079-1.0906 0.70069-1.3334 0.41315-1.2702 4.7106-1.0349 2.0258 0.11092 4.0615 0.21681 4.5237 0.2353 0.46219 0.01849 0.92937 0.07507 1.0382 0.12574 0.3218 0.14985 0.63845-0.3183 0.98633-1.4583 0.17573-0.57583 0.31884-1.101 0.31804-1.167-0.000801-0.07827-1.3905-0.10845-3.9932-0.08671-2.8209 0.02356-6.7558-0.07254-13.416-0.32766-5.1831-0.19855-10.342-0.39036-11.465-0.42624-1.1225-0.03588-2.419-0.09284-2.8812-0.12658-0.59153-0.04319-0.78703-0.02515-0.66027 0.06092 0.099041 0.06725 0.70576 0.1231 1.3483 0.12411 1.1351 0.0018 1.1703 0.01008 1.2411 0.29247 0.20832 0.83002-0.085323 0.98286-1.617 0.84161l-1.2126-0.11182 0.000048 0.32156c0.0000961 0.54186 0.27688 0.69855 1.2391 0.7015 1.149 0.0035 1.6878 0.26333 2.827 1.3629 0.50381 0.48634 1.0489 0.95327 1.2114 1.0376 0.26893 0.13962 4.4928 0.42551 12.07 0.81692 1.1225 0.05798 2.1489 0.11329 2.2809 0.1229 0.13205 0.0096 0.41073-0.08657 0.61928-0.21373zm-6.381-0.331c-2.725-0.144-7.6425-0.54-8.0257-0.646-0.4357-0.122-1.5184-1.044-1.5184-1.295 0-0.06016 0.33764-0.08874 0.75031-0.06352 0.41267 0.02523 1.9388 0.0991 3.3914 0.16417 12.165 0.54492 11.531 0.50173 11.49 0.78273-0.06163 0.42508-0.30852 0.79649-0.64528 0.97064-0.25331 0.13099-0.83082 0.16464-2.5253 0.14713-1.2083-0.01248-2.521-0.03979-2.9172-0.06068zm1.981-1.84c-0.892-0.046-3.755-0.176-6.363-0.287-2.6081-0.112-4.9166-0.23-5.13-0.262-0.3142-0.048-0.4081-0.132-0.4935-0.444-0.058024-0.21182-0.07251-0.41943-0.032173-0.46138 0.040337-0.04194 1.8021-0.0057 3.9149 0.0805 2.1129 0.08622 5.4082 0.21516 7.323 0.28653 5.1798 0.19308 5.0964 0.17868 5.1003 0.8797l0.0016 0.33014-1.3506-0.01894c-0.7428-0.01042-2.0799-0.05694-2.9712-0.10338zm7.2507-0.82976c-0.76067-0.04286-1.2865-0.12976-1.4106-0.2331-0.23267-0.1938-0.26415-0.89461-0.04778-1.0633 0.17066-0.13303 5.2247-0.01923 5.453 0.12278 0.21374 0.13295 0.31217 0.75959 0.16307 1.0382-0.12307 0.22995-0.23007 0.24563-1.5386 0.22544-0.7735-0.01193-1.9521-0.05245-2.6191-0.09004zm-4.43-0.307c-0.06603-0.02219-3.4289-0.16472-7.4731-0.31674-4.2796-0.16087-7.353-0.32328-7.353-0.38856 0-0.2472 15.484 0.34446 15.826 0.60473 0.17078 0.12987 0.12083 0.1514-0.34005 0.14657-0.29712-0.0031-0.59424-0.02381-0.66027-0.046zm30.373 3.2882c1.7167-0.07191 3.1438-0.15256 3.1713-0.17922 0.17998-0.17443-0.48753-0.18636-3.5581-0.0636-1.9002 0.07597-3.7384 0.13746-4.0851 0.13665-0.49025-0.0012-0.63026 0.03991-0.63026 0.18486 0 0.15878 0.14645 0.17641 0.99041 0.1192 0.54473-0.03693 2.395-0.12597 4.1117-0.19788zm6.9929-0.30176c0.49284-0.03765 0.87036-0.12183 0.87036-0.19408 0-0.08602-0.32274-0.10248-0.99041-0.0505-0.54472 0.0424-1.5171 0.07742-2.1609 0.07782-0.9198 0.000601-1.1705 0.03652-1.1705 0.16786 0 0.1713 1.1995 0.17092 3.4514-0.001zm-12.305-0.355c0.05506-0.28809 0.04602-0.29107-0.88811-0.29107h-0.94375l-0.00024 0.33014-0.00024 0.33014 0.88839-0.03907c0.8312-0.03655 0.89197-0.05781 0.94403-0.33014zm3.9905 0.1291c3.9495-0.119 4.4713-0.17033 4.5436-0.44693 0.06299-0.24078 0.03754-0.24188-3.5607-0.15436-4.2439 0.10322-4.5174 0.13393-4.6614 0.52351l-0.10442 0.28236 0.811-0.06973c0.44605-0.03835 1.7834-0.09903 2.9719-0.13484zm9.664 0.06003c0-0.06603-0.02385-0.12005-0.0529-0.12005-0.02913 0-0.08632 0.05402-0.12713 0.12005-0.04082 0.06603-0.01697 0.12005 0.0529 0.12005 0.06995 0 0.12713-0.05402 0.12713-0.12005zm-52.814-0.336c-0.161-0.112-0.4851-0.413-0.7203-0.67-0.5455-0.595-1.0234-0.795-1.9067-0.795h-0.70653l0.056503 0.63026c0.031053 0.34664 0.09752 0.67493 0.14767 0.72952 0.077872 0.08473 1.8982 0.26144 3.062 0.29724l0.36015 0.01108-0.2927-0.20341zm50.984-0.02324c1.2285-0.00072 1.3743-0.02459 1.6132-0.26346 0.14443-0.14444 0.21196-0.27815 0.15006-0.29714-0.06195-0.01899-1.139 0.0046-2.3935 0.05253l-2.2809 0.08705-0.04074 0.28847c-0.0405 0.28671-0.03577 0.288 0.78032 0.21094 0.4516-0.04264 1.4288-0.07792 2.1716-0.07839zm2.311-0.504c0-0.05341-0.05402-0.0971-0.12005-0.0971s-0.12005 0.0496-0.12005 0.11023c0 0.06062-0.03145 0.20919-0.06979 0.33014-0.06387 0.20123-0.0537 0.20012 0.12005-0.01313 0.10443-0.12817 0.18987-0.27673 0.18987-0.33014zm-13.778-0.145c0.24954-0.37436 0.09258-0.43244-1.1686-0.43244-0.69328 0-1.2598 0.04052-1.2589 0.09004 0.0008 0.04952 0.03457 0.21302 0.07483 0.36334 0.07147 0.2669 0.09887 0.27141 1.1688 0.19234 0.60259-0.04453 1.1353-0.1405 1.1838-0.21328zm5.9771-0.02245 2.3438-0.07404 0.14197-0.30084 0.14198-0.30084-4.0464 0.08701c-2.2255 0.04786-4.0555 0.09425-4.0667 0.1031-0.01112 0.0088-0.05915 0.171-0.10665 0.36033l-0.0864 0.34425 1.6673-0.07247c0.91701-0.03986 2.722-0.10578 4.0111-0.1465zm5.5795-0.16979c1.6733-0.002 1.6813-0.0033 1.8195-0.30117l0.13877-0.29919-1.7594 0.0089c-2.2591 0.01143-2.7562 0.08777-3.0037 0.46132l-0.19224 0.29014 0.65821-0.07902c0.36201-0.04345 1.4145-0.0799 2.3389-0.08099zm2.3564-0.39027c0.13051-0.24493 0.12531-0.25475-0.05578-0.10535-0.10985 0.09062-0.19973 0.21217-0.19973 0.27011 0 0.18337 0.10668 0.11459 0.25553-0.16476zm6.5273 0.09636c1.4568-0.14839 1.6207-0.19258 1.6207-0.43705 0-0.25812-0.13732-0.27425-1.3002-0.15271-0.56644 0.05921-0.75122 0.12746-0.80517 0.29743-0.0429 0.1352-0.16664 0.21002-0.31965 0.19327-0.1373-0.01502-0.2755 0.04588-0.30709 0.13534-0.0393 0.11127 0.01344 0.14282 0.16684 0.09987 0.12336-0.03453 0.54842-0.0958 0.94458-0.13616zm-20.348-1.567v-1.2605h-1.3125c-1.1831 0-1.3196-0.02243-1.3847-0.22767-0.03978-0.12522-0.06162-0.27378-0.04874-0.33014 0.01297-0.05636-0.03922-0.25455-0.11591-0.44042-0.07667-0.18587-0.14062-0.40196-0.14207-0.4802-0.0016-0.07823-0.11101-0.38113-0.24347-0.6731-0.1561-0.34406-0.19974-0.57195-0.12404-0.64765 0.06427-0.06424 0.8319-0.19084 1.7059-0.28134 0.87402-0.09049 1.6051-0.18052 1.6247-0.20006 0.07387-0.07386-0.20283-3.3158-0.30619-3.5877-0.17774-0.46748-0.40306-0.56668-1.4633-0.64418-1.556-0.11375-8.4318 0.92476-11.635 1.7574-1.3951 0.36259-2.8812 0.96704-2.8812 1.1719 0 0.16508 0.62928 0.26141 1.7076 0.26141 0.61224 0 1.0973 0.06647 1.3459 0.18442 0.44363 0.21052 0.8246 0.81754 1.0332 1.6463l0.14355 0.57024 1.3963-0.000004 1.3963-0.000004 0.32184-0.40336c0.81109-1.0165 2.1706-1.5325 3.3776-1.2819 1.4197 0.29472 2.2461 1.3654 2.5056 3.2459 0.07747 0.56123 0.21293 1.0744 0.30105 1.1405 0.08983 0.0673 0.19344 0.47612 0.23578 0.93038l0.07555 0.81033h1.2432 1.2432v-1.2605zm-10.923-3.632c0.0006-0.11555 0.15955-0.48631 0.35318-0.82391 1.1312-1.9723 3.4866-3.0392 5.1396-2.3282 0.72035 0.30989 1.4421 1.0392 1.8763 1.8961 0.27357 0.53986 0.29455 0.74575 0.07603 0.74575-0.04234 0-0.17689-0.22654-0.29904-0.50342-0.2885-0.6539-1.0677-1.4933-1.6727-1.8019-0.38999-0.19896-0.6372-0.23411-1.3325-0.18949-1.5215 0.09764-2.8948 1.0726-3.6409 2.5849-0.31676 0.64202-0.50194 0.79766-0.49991 0.42017zm16.96 4.6994 2.8551-0.0746 0.18456-0.3569c0.15579-0.30127 0.43476-2.0037 0.34612-2.1122-0.01585-0.01938-1.8857 0.02085-4.1553 0.0894-2.2696 0.06856-4.302 0.12493-4.5166 0.12528l-0.39016 0.000638v1.2711 1.2711l1.4106-0.06954c0.77582-0.03825 2.6954-0.10311 4.2657-0.14414zm13.629-0.11069c-0.03697-0.03696-0.10409 0.02967-0.14916 0.14806-0.06515 0.1711-0.05138 0.18488 0.06723 0.0672 0.08204-0.08143 0.11893-0.1783 0.08196-0.21526zm-6.6285-0.05636 0.73137-0.00048 0.43517-0.93038c0.23934-0.51171 0.51879-1.1691 0.62099-1.4608 0.17997-0.51371 0.17885-0.52414-0.03554-0.33014-0.16473 0.14908-0.4493 0.20045-1.1123 0.20082-0.49 0.00024-1.5725 0.03525-2.4056 0.07774l-1.5147 0.07726-0.06763 0.80654c-0.03722 0.4436-0.15314 1.0112-0.25767 1.2614l-0.19006 0.45487 1.5323-0.07815c0.84276-0.04298 1.8614-0.07837 2.2637-0.07863zm2.0934-1.6555c0.99218-2.2187 1.3255-2.7915 1.8417-3.1655 0.76-0.55054 1.5907-0.39063 2.0996 0.40419l0.2527 0.39464 0.0024-0.33399c0.0032-0.47494-0.25466-1.0248-0.76484-1.6329-0.24283-0.28946-0.41474-0.55306-0.38201-0.58578 0.03273-0.03273 0.80102-0.10774 1.7073-0.16669 0.90631-0.05895 1.6616-0.12096 1.6784-0.13777 0.01681-0.01682-0.02265-0.26762-0.08777-0.55734-0.08764-0.39007-0.08085-0.54994 0.02617-0.61609 0.22289-0.13775-0.43992-1.4152-0.77348-1.4907-0.14372-0.03255-1.1203-0.16673-2.1701-0.29819-1.2884-0.16134-2.0769-0.32043-2.4262-0.48952-0.397-0.193-1.053-0.878-2.846-2.977-1.281-1.499-2.634-3.004-3.006-3.344-0.797-0.729-1.538-1.0361-3.174-1.3188-1.475-0.2546-5.414-0.2852-6.36-0.0493l-0.63465 0.15813 0.39455 0.19706c0.2631 0.13141 0.43903 0.3347 0.52808 0.61021 0.12684 0.39245 0.14031 0.40049 0.26874 0.16051 0.07435-0.13895 0.38213-0.34694 0.68394-0.4622 0.49039-0.18728 0.86174-0.20127 3.4931-0.13154 3.3139 0.08781 3.5768 0.14696 4.4317 0.99691 0.67276 0.66894 1.9155 2.2783 3.0002 3.8852 0.76078 1.127 0.9865 1.3816 1.2291 1.3864 0.3172 0.0062 0.82172 0.52775 0.93704 0.9687 0.03657 0.13981 0.21966 0.36745 0.40686 0.50586 0.42284 0.31261 0.5479 0.70866 0.72185 2.2859 0.07555 0.68485 0.1875 1.3772 0.24882 1.5384 0.18864 0.49615 0.12523 0.93295-0.1981 1.3648-0.42694 0.57017-0.84182 1.4028-1.2099 2.4281-0.17108 0.47659-0.4394 1.1213-0.59629 1.4328-0.3275 0.65014-0.35374 0.78052-0.11764 0.58458 0.09218-0.0765 0.45058-0.7719 0.79646-1.5453zm6.0275 1.3528c0.6763-0.06415 0.84891-0.12745 1.0521-0.38578 0.1337-0.16997 0.22882-0.32316 0.21139-0.34042-0.01745-0.01726-0.50438 0.02378-1.0821 0.0912-0.95556 0.11152-1.5456 0.07186-1.381-0.09281 0.03521-0.0352 0.62367-0.12955 1.3077-0.20966l1.2437-0.14565 0.03514-0.7179 0.03513-0.7179-1.4157 0.10792-1.4157 0.10792v1.2456 1.2456l0.30012-0.05573c0.16507-0.03065 0.66419-0.09026 1.1092-0.13247zm-32.278-1.929c0.11375-0.04365 0.18652-0.14024 0.16172-0.21464-0.03273-0.09815-1.3437-0.12475-4.777-0.09695-4.4297 0.03587-10.862-0.15163-24-0.69955-3.8532-0.16071-4.594-0.15564-4.5321 0.03098 0.035775 0.10798 0.63614 0.17351 2.1409 0.23367 2.6132 0.10449 21.211 0.80386 22.92 0.86188 1.8468 0.06273 7.8456-0.02287 8.0867-0.11539zm11.121-0.28988c0.12245-0.07914-0.23288-0.11696-1.1105-0.11821-0.78155-0.0011-1.2905 0.04551-1.2905 0.11821 0 0.15605 2.1595 0.15605 2.401 0zm9.274-0.24656c0.46684-0.11506-6.2295-0.00048-7.7734 0.13307-0.5944 0.0514 0.82328 0.0641 3.1515 0.02823 2.3276-0.03586 4.4074-0.10844 4.6219-0.16131zm4.7118-0.10896c0.58962-0.07316 0.44805-0.08973-0.78032-0.09133-0.82534-0.0011-1.9058 0.03627-2.401 0.08299-0.77758 0.07337-0.67115 0.08582 0.78032 0.09133 0.92438 0.0035 2.0048-0.03384 2.401-0.08299zm-25.39-0.234c0-0.06064-0.19578-0.23126-0.43507-0.37915-0.54362-0.33598-1.3679-0.38836-9.4365-0.59967-5.4313-0.14225-5.8658-0.13883-6.072 0.04776-0.19602 0.1774-0.58698 0.20025-3.3339 0.1948-3.7896-0.0075-4.617-0.08361-5.0195-0.46169-0.28216-0.26508-0.41568-0.28122-3.3651-0.40686-2.8486-0.12135-3.0821-0.11595-3.2213 0.0744-0.082538 0.11288-0.40997 0.33049-0.72762 0.48359l-0.57754 0.27835 2.4986 0.0813c1.3742 0.04471 3.7952 0.13218 5.3798 0.19436 1.5847 0.06219 4.6099 0.175 6.7228 0.2507s4.949 0.17731 6.3026 0.2258c3.7188 0.13322 11.285 0.14415 11.285 0.0163zm33.997-0.10523c0.07163-0.0716-0.41197-0.09201-1.3054-0.05512-0.78051 0.03223-1.4731 0.11299-1.5392 0.17948-0.08056 0.08112 0.34884 0.09925 1.3054 0.05512 0.784-0.03617 1.4766-0.11693 1.5392-0.17948zm-22.593-0.94049v-0.91588l-0.87036 0.07938c-0.47869 0.04366-1.169 0.11028-1.534 0.14805l-0.66359 0.06868 0.24342 0.76527 0.24343 0.76527 1.2905 0.0026 1.2905 0.0026v-0.91588zm7.4024 0.79583h1.9615v-1.2744-1.2744l-0.63026 0.07297c-0.34664 0.04013-2.2779 0.20967-4.2918 0.37674-2.0138 0.16708-3.7831 0.33058-3.9316 0.36333-0.24286 0.05354-0.27011 0.131-0.27011 0.76774 0 1.2153-0.2025 1.1362 2.6804 1.0464 1.3863-0.04317 3.4031-0.0785 4.4819-0.0785zm6.4602-0.17186c1.4773-0.0599 1.6237-0.17831 1.6237-1.3128 0-0.40579 0.05026-0.91302 0.11167-1.1272l0.11167-0.38937-0.50183 0.0019c-0.62302 0.0024-5.4912 0.43998-5.5272 0.49685-0.01441 0.02281-0.0056 0.58988 0.01945 1.2602l0.0457 1.2187 1.4597-0.04984c0.80284-0.02741 1.9986-0.07168 2.6571-0.09839zm8.4666-0.18829c0-0.1409-0.09227-0.1409-0.42017 0-0.21276 0.09143-0.2025 0.10413 0.09004 0.11161 0.18158 0.0046 0.33014-0.04559 0.33014-0.11161zm-0.69028-0.24641c0.40561-0.11264 0.45018-0.1648 0.45018-0.52671 0-0.24631-0.06963-0.42842-0.18007-0.47079-0.11567-0.04439-0.18066-0.23145-0.18172-0.52306-0.0032-0.8984-0.07683-0.99427-0.76267-0.99332-0.33895 0.00048-0.97915 0.03513-1.4227 0.07702l-0.80641 0.07617 0.23814 0.33444c0.38495 0.54061 0.70893 1.3428 0.71177 1.7625l0.0024 0.39016 0.75031-0.00072c0.41267-0.00036 0.9529-0.05693 1.2005-0.12569zm-49.33-0.228c0.23954-0.09107 0.36855-0.33169 0.68152-1.2711 0.2622-0.78706 0.34679-1.198 0.26368-1.2811-0.1733-0.1733-2.9784-0.32388-6.1624-0.33078-2.2681-0.0049-2.741 0.0237-2.8652 0.17342-0.105 0.12652-0.12528 0.41814-0.068828 0.99041 0.093807 0.95161 0.25354 1.4183 0.5294 1.5469 0.43583 0.20314 7.142 0.35471 7.6219 0.17226zm-6.0422-0.24467c-0.628-0.04-1.2283-0.115-1.3349-0.165-0.2708-0.127-0.4784-0.632-0.552-1.342-0.1023-0.986-0.2676-0.954 4.2959-0.817 2.7822 0.08336 4.0012 0.16148 4.1027 0.26292 0.11241 0.1124 0.09786 0.32151-0.06579 0.94538-0.33692 1.2846-0.22116 1.2371-2.954 1.2122-1.2938-0.01176-2.8656-0.05475-3.4928-0.09552zm2.5317-0.46787c0.53411-0.43249 0.23659-1.5761-0.41002-1.5761-0.64501 0-0.94392 1.0577-0.44103 1.5606 0.29887 0.29886 0.49664 0.30246 0.85106 0.01547zm-0.61096-0.20263c0-0.10294-0.0501-0.15618-0.11141-0.11831-0.17729 0.10957-0.26639-0.35278-0.13472-0.6991 0.16725-0.43992 0.33428-0.39516 0.27685 0.07418-0.03241 0.26504-0.01184 0.33881 0.06411 0.23003 0.09012-0.12903 0.12675-0.12129 0.18858 0.03983 0.13285 0.3462 0.08367 0.66052-0.10335 0.66052-0.09904 0-0.18008-0.08422-0.18008-0.18716zm0.42224-0.43666c-0.11714-0.60167-0.01449-0.84404 0.18107-0.42764 0.1121 0.23866 0.12034 0.40363 0.02993 0.60025-0.11757 0.25578-0.12952 0.246-0.21103-0.17261zm16.505 0.32369v-1.0204h-0.88536-0.88536l-0.07499 0.37515c-0.0413 0.20634-0.07499 0.63476-0.07499 0.95205 0 0.65606 0.02225 0.66868 1.2305 0.69729l0.69028 0.01635v-1.0204zm-2.4739 0.71048c0.0401-0.10444 0.07283-0.53331 0.07283-0.95304v-0.76315l-0.51021-0.06364c-0.28061-0.03501-1.6512-0.0977-3.0457-0.13933l-2.5355-0.07569-0.07147 0.40209c-0.0393 0.22115-0.10709 0.68422-0.15068 1.0291l-0.07923 0.62696 1.7858 0.03677c4.7106 0.097 4.4563 0.10262 4.5341-0.10003zm4.5695-0.08022c-0.16313-0.54087-0.4507-1.0611-0.64064-1.1588-0.10694-0.05505-0.39702-0.13667-0.64462-0.18136l-0.45019-0.08127v0.77918 0.77918l0.57024 0.04496c1.3152 0.1037 1.2542 0.11323 1.1652-0.18187zm-11.414-0.06002c0.03369-0.11555 0.0959-0.4802 0.13823-0.81033 0.04234-0.33014 0.1037-0.6968 0.13639-0.8148 0.05458-0.19704-0.03594-0.21174-1.1097-0.18007l-1.1691 0.03448-0.28096 0.83372c-0.15453 0.45854-0.28096 0.87485-0.28096 0.92512 0 0.05028 0.39166 0.11005 0.87036 0.13284 0.4787 0.02278 1.0423 0.05216 1.2524 0.06528 0.27388 0.0171 0.39943-0.03564 0.44335-0.18623zm40.398-1.1073c-0.19346-0.64572-0.34331-0.41116-0.34306 0.53703l0.00024 0.7203 0.24513-0.38269c0.21907-0.34199 0.22946-0.43501 0.09774-0.87464zm-52.261 0.626c-0.037-0.116-0.0811-0.575-0.0981-1.02l-0.030893-0.80834-0.6832-0.00024c-0.37575-0.00012-0.71374 0.04918-0.75108 0.10959-0.11076 0.17921-0.22484 1.5376-0.14632 1.7422 0.056503 0.14716 0.26039 0.18879 0.92465 0.18879 0.75967 0 0.84491-0.023 0.78497-0.21184zm-2.3069-0.238c0.034174-0.18158 0.097392-0.64915 0.14055-1.0391l0.078512-0.70892-1.0014 0.07794c-0.55076 0.04287-1.2836 0.07827-1.6286 0.07866-0.56316 0.000601-0.64468 0.03458-0.79871 0.33244-0.094343 0.18244-0.20948 0.58475-0.25586 0.894l-0.084323 0.56228 0.70296 0.0437c0.38663 0.02403 1.1714 0.05391 1.7439 0.0664l1.0409 0.0227 0.062106-0.33014zm41.194-0.26812c0.7263-0.06092 2.4685-0.20493 3.8716-0.32001l2.5511-0.20924v-0.38682c0-0.53148-0.12183-0.83792-0.25041-0.62988-0.05554 0.08987-0.44574 0.18947-0.91368 0.23321-1.0861 0.10153-1.357-0.05382-1.357-0.77819 0-0.7193 0.16326-0.81974 1.2548-0.77194 0.49867 0.02184 0.90655 0.0018 0.9064-0.04468-0.000801-0.26608-0.31454-0.69682-0.58609-0.80484-0.23944-0.09525-8.5385-0.26619-8.538-0.17586 0.000048 0.0084 0.08148 0.21017 0.18098 0.44829 0.11237 0.26895 0.21048 1.0499 0.25901 2.0618l0.07811 1.6288 0.61135-0.06994c0.33624-0.03847 1.2056-0.11979 1.9319-0.18071zm10.648-0.91726 2.4845-0.20909-0.07019-0.78838c-0.07539-0.84684-0.15675-1.1182-0.15675-0.52296 0 0.4891-0.15957 0.58895-1.0863 0.67973-0.9469 0.09276-1.1556-0.02534-1.2627-0.71444-0.1133-0.72917 0.10666-0.89098 1.2111-0.89098 0.717 0 0.90915 0.04004 1.0082 0.21009 0.16688 0.28652 0.16223-0.0073-0.0056-0.3764-0.07459-0.16371-0.29069-0.36189-0.4802-0.44039-0.2309-0.09564-0.34458-0.22937-0.34458-0.40534 0-0.14444-0.07931-0.36748-0.17626-0.49565-0.15449-0.20425-0.17673-0.20791-0.18007-0.02964-0.0024 0.11187-0.13295 0.35352-0.29078 0.53701-0.28137 0.32712-0.32055 0.33526-2.0108 0.41788-0.94813 0.04635-2.0898 0.08831-2.537 0.09325l-0.8131 0.009 0.17794 0.27159c0.18494 0.28225 0.46617 1.4027 0.60634 2.4156l0.08113 0.58632 0.68052-0.06904c0.37428-0.03797 1.7985-0.16313 3.165-0.27813zm-29.897-0.446c0.47072-0.46934 1.3166-0.81024 3.2233-1.2991 1.2515-0.32084 5.3508-1.0486 8.1033-1.4386l1.0804-0.15309-1.5606-0.14589c-2.3206-0.21694-3.3815-0.19436-6.2671 0.13336-8.0057 0.90922-12.813 1.8342-14.201 2.7323l-0.42017 0.27184 3.7816 0.12953c6.3314 0.21687 5.7921 0.23671 6.2606-0.23039zm-10.103-0.181c0-0.17219 1.0981-0.70357 2.0102-0.97272 2.0278-0.59839 7.1305-1.4462 12.096-2.0097l1.9208-0.21799-1.0204-0.08118c-0.56123-0.04465-3.5865-0.11912-6.7228-0.16548l-5.7024-0.0843-2.2809 0.44346c-4.2962 0.83528-7.0747 1.6271-8.3434 2.3776l-0.66027 0.3906 3.3614 0.09203c1.8488 0.05062 3.7395 0.13829 4.2017 0.19483 0.46219 0.05654 0.90788 0.10976 0.99041 0.11828 0.08254 0.0085 0.15006-0.02995 0.15006-0.08548zm34.124-0.09858c-0.08253-0.0333-0.15006-0.13708-0.15006-0.23062 0-0.12212 0.15594-0.17007 0.55307-0.17007 0.44229 0 0.53923 0.03606 0.48397 0.18007-0.0421 0.10969-0.00024 0.18008 0.1072 0.18008 0.10644 0 0.1763-0.11505 0.1763-0.29031 0-0.46328-0.12659-0.6708-0.40301-0.66061-0.14149 0.0052-0.18973 0.03673-0.1072 0.07003 0.08254 0.0333 0.15006 0.13708 0.15006 0.23062 0 0.12212-0.15594 0.17007-0.55307 0.17007-0.4423 0-0.53922-0.03606-0.48396-0.18008 0.04698-0.12248-0.0064-0.18007-0.16724-0.18007-0.26008 0-0.27066 0.03841-0.1613 0.58524 0.06187 0.3094 0.13027 0.37349 0.39016 0.36568 0.17332-0.0052 0.24761-0.03673 0.16507-0.07003zm-43.247-0.159c0-0.218 1.2477-0.94637 2.3419-1.3672 1.0158-0.39064 4.9013-1.4129 6.0355-1.5879 0.28283-0.04364 0.4916-0.10198 0.46394-0.12964-0.1227-0.1227-6.5405 0.87143-9.4394 1.4622-1.5019 0.30607-3.2537 0.89146-4.3033 1.4381l-0.56091 0.2921 2.7311 0.0056c1.7257 0.0035 2.7311-0.03816 2.7311-0.11324zm49.832-0.406c-0.10853-0.13078-0.08019-0.18071 0.13536-0.23846 0.55264-0.14807 0.8451-0.09251 0.78206 0.14855-0.0457 0.17463-0.0072 0.21138 0.17219 0.16447 0.18948-0.04955 0.21657-0.12772 0.15073-0.43497-0.10536-0.4917-0.14884-0.55463-0.38324-0.55463-0.15322 0-0.16499 0.03201-0.05298 0.14406 0.25494 0.25494 0.15614 0.33614-0.40901 0.33614-0.44229 0-0.53922-0.03606-0.48396-0.18007 0.04698-0.12249-0.0064-0.18008-0.16724-0.18008-0.1878 0-0.23633 0.08216-0.23633 0.40016 0 0.46172 0.06947 0.56023 0.39486 0.56023 0.18584 0 0.20617-0.03449 0.09751-0.16541zm-14.919-2.6697c0.1838-0.64736 0.16506-0.81977-0.03105-0.2862-0.27175 0.7392-0.34317 1.0282-0.22249 0.90037 0.06235-0.06603 0.17643-0.34241 0.25358-0.61418zm7.6134 0.58488c-0.54472-0.02224-1.4361-0.02224-1.9808 0-0.54472 0.02224-0.09904 0.04044 0.99041 0.04044s1.5351-0.0182 0.99041-0.04044zm4.3157-0.00024c-0.61408-0.02183-1.5865-0.02173-2.1609 0.00024-0.5744 0.02196-0.07195 0.03982 1.1165 0.0397 1.1885-0.00012 1.6585-0.0181 1.0444-0.03992zm2.6377-0.2292c0.12074-0.10927 0.21611-0.33887 0.21193-0.51021-0.0072-0.30982-0.0082-0.31002-0.11801-0.03646-0.06075 0.15129-0.34092 0.3797-0.62266 0.50757l-0.51224 0.2325 0.41072 0.0026c0.22589 0.0014 0.50951-0.08677 0.63026-0.19604zm-12.626-0.04139c0-0.06603 0.2296-0.12937 0.51021-0.14077 0.40038-0.01626 0.34397-0.03564-0.26208-0.09004-0.72646-0.0652-0.77774-0.08984-0.86419-0.41522-0.07211-0.27148-0.04074-0.3877 0.14592-0.54022 0.23057-0.1884 0.23161-0.21249 0.03401-0.7896l-0.20378-0.59528-0.34004 1.1955c-0.40196 1.4132-0.39553 1.3436-0.13054 1.4129 0.40369 0.10549 1.1105 0.08176 1.1105-0.0373zm3.5623-0.37373c0.78804-0.15184 0.92737-0.31971 0.84821-1.0219-0.11801-1.047-0.70989-1.3277-2.8572-1.3553-0.9543-0.01227-1.1934 0.16244-1.4974 1.0941-0.11422 0.35008-0.25409 0.6955-0.3108 0.7676-0.16747 0.21289 0.01545 0.28908 0.6941 0.28908 0.48429 0 0.67179 0.0521 0.77348 0.21494 0.11192 0.17922 0.26672 0.20798 0.9314 0.17309 0.43844-0.02302 1.0766-0.09569 1.4182-0.16151zm7.9541-0.55666c-1.272-2.138-2.956-4.358-3.665-4.832-0.396-0.266-0.6-0.305-1.748-0.341-0.76367-0.02387-1.2998 0.0061-1.2998 0.07267 0 0.06232 0.23329 0.64784 0.51841 1.3012 0.28512 0.65332 0.61727 1.4641 0.7381 1.8017l0.2197 0.61384 0.9726 0.07573c0.53492 0.04165 1.3622 0.07605 1.8383 0.07645 0.93549 0.00072 1.2534 0.17883 1.4062 0.78761 0.20215 0.80544 0.28087 0.8938 0.79622 0.8938h0.49296l-0.26809-0.45018zm-23.944-0.03416c-0.15952-0.30848-0.16696-0.47317-0.04858-1.075 0.19168-0.97427 0.323-1.0646 1.6095-1.1067l1.0709-0.03507 0.17307-0.81304c0.09519-0.44717 0.14622-0.8399 0.11339-0.87273-0.03281-0.03283-0.72877-0.09914-1.5466-0.14735-1.3056-0.07698-1.492-0.11443-1.5289-0.30725-0.0874-0.45669 0.09436-0.79246 0.49098-0.90702 0.38287-0.1106 0.3804-0.11242-0.16616-0.12309l-0.55479-0.01083-0.85093 1.4231c-0.72568 1.2136-0.887 1.5883-1.0959 2.5454-0.13473 0.61729-0.24496 1.243-0.24496 1.3905 0 0.31068 0.19868 0.35372 1.7738 0.38418l0.99349 0.01922-0.18838-0.36429zm-14.222-0.496c1.3151-1.0803 3.5978-2.7731 5.0421-3.739 0.69328-0.46368 1.4766-1.0168 1.7407-1.2291 0.67587-0.5434 1.5699-0.96803 2.4058-1.1427 0.52257-0.10921 2.7708-0.1537 8.3386-0.16501 5.9626-0.01211 7.6754-0.04892 7.8632-0.16897 0.1959-0.12524-0.91997-0.14089-6.0625-0.085047-3.4664 0.037641-7.2974 0.12222-8.5133 0.18795-2.9588 0.15996-2.7568 0.06389-7.3933 3.5178-2.2869 1.7036-4.5019 3.4374-4.5019 3.5238 0 0.13816 0.28582-0.04694 1.0804-0.6997zm5.1625 0.62151 4.0221-0.0016 1.6503-2.7507c0.90765-1.5129 1.6503-2.7885 1.6503-2.8347 0-0.13162-3.3608 0.07585-3.8361 0.23681-0.27807 0.09417-0.48111 0.26679-0.58551 0.49776-0.23471 0.51927-1.4597 1.249-2.0994 1.2506-0.45768 0.0012-0.707 0.15393-2.831 1.7349-2.5927 1.9298-2.7401 2.0547-2.2928 1.9434 0.16507-0.0411 2.1101-0.07545 4.3222-0.07636zm-5.608-0.86c0.40978-0.33972 0.76186-0.68746 0.78241-0.77274 0.08434-0.35011-1.0916-0.74116-1.7765-0.59074-0.65949 0.14485-0.84205 1.5244-0.24171 1.8266 0.16507 0.08308 0.34301 0.15185 0.39542 0.15282 0.05242 0.00096 0.43057-0.27619 0.84035-0.61591zm23.569-0.94296 1.2992-0.06002 0.52498-1.6591c0.28873-0.9125 0.50624-1.6767 0.48335-1.6982-0.02289-0.02153-1.068 0.000993-2.3225 0.05005-2.7008 0.10562-3.042 0.20307-3.3428 0.95485-0.12924 0.323-0.19809 0.8418-0.19702 1.4845 0.0024 1.4498 0.01569 1.4762 0.71574 1.4272 0.32188-0.02255 0.68382 0.0146 0.80429 0.08254 0.17646 0.09951 0.26927 0.0608 0.47735-0.1991 0.24504-0.30607 0.32501-0.32572 1.5575-0.38266zm7.8179-0.27011c0.27848-0.57722 0.23825-0.77847-0.38061-1.904l-0.61978-1.1272-1.4355 0.04231c-0.7895 0.02327-1.4547 0.06055-1.4783 0.08285-0.05954 0.05635-0.86168 2.8534-0.82624 2.8811 0.01577 0.01235 0.74318-0.02643 1.6164-0.08617 1.4687-0.10049 1.6261-0.0906 2.1009 0.13195 0.66636 0.31237 0.86434 0.30835 1.0231-0.02077zm-23.82-2.303c0.67204-0.4299 0.87975-0.64839 0.47073-0.49518-0.39925 0.14956-1.4706 0.83843-1.4706 0.9456 0 0.14924 0.21117 0.05411 0.99988-0.45042zm20.092-1.4298c0.21073-0.24777 0.21038-0.24986-0.01248-0.07671-0.24829 0.19291-0.66783 1.0272-0.66301 1.3185 0.0016 0.09904 0.10556-0.08253 0.23092-0.40349 0.12537-0.32096 0.32543-0.69819 0.44458-0.83828zm-1.1639-0.3789c-0.08219-0.09904-0.20718-0.18007-0.27774-0.18007-0.07059 0-0.02345 0.07932 0.10473 0.17626 0.30114 0.22777 0.35995 0.22907 0.17301 0.0038z"/>
 </g>
</svg>
