<?xml version="1.0" encoding="UTF-8" standalone="no"?>
<!-- Created with Inkscape (http://www.inkscape.org/) -->
<svg id="svg2" xmlns:rdf="http://www.w3.org/1999/02/22-rdf-syntax-ns#" xmlns="http://www.w3.org/2000/svg" height="45" width="67.5" version="1.1" xmlns:cc="http://creativecommons.org/ns#" xmlns:dc="http://purl.org/dc/elements/1.1/">
 <metadata id="metadata7">
  <rdf:RDF>
   <cc:Work rdf:about="">
    <dc:format>image/svg+xml</dc:format>
    <dc:type rdf:resource="http://purl.org/dc/dcmitype/StillImage"/>
    <dc:title/>
   </cc:Work>
  </rdf:RDF>
 </metadata>
 <g id="g7784">
  <rect id="rect2990" opacity="0" height="45" width="67.5" y="0" x="3.5527e-15"/>
  <path id="path7782" d="m5.2261 36.625c-4.9695-0.09-6.0588-0.2-4.6701-0.471 0.9268-0.181 2.665-0.343 6.6416-0.619 1.9077-0.13238 3.4959-0.24068 3.5295-0.24068 0.0335 0-0.16257-0.16195-0.43582-0.35989-0.9851-0.713-1.7965-2.352-1.9101-3.858l-0.0601-0.7971-0.41571-0.06746c-0.58287-0.09459-0.75443-0.27843-0.75443-0.80843 0-0.55908-0.20564-1.0443-0.47943-1.1312-0.50974-0.16178-0.74636-0.62176-0.87643-1.7037-0.0806-0.67029-0.19218-1.1061-0.30468-1.1898-0.10529-0.07834-0.20034-0.40742-0.23363-0.80891-0.0665-0.80206 0.14358-1.2192 0.6726-1.3354 0.33065-0.07262 0.36462-0.14352 0.71206-1.4862 0.45903-1.7739 0.76961-2.4356 1.3946-2.9714 1.6097-1.3799 6.4867-2.931 10.76-3.422l1.2605-0.14486 1.2005-1.1571c2.3047-2.2214 5.019-4.2143 6.5351-4.7984 1.5578-0.60015 3.3758-0.79343 8.6513-0.91972 4.8373-0.1158 13.673 0.24651 14.406 0.59074 0.26944 0.1265 0.32737 0.28808 0.56655 1.5802 0.14653 0.79164 0.30271 1.8025 0.34707 2.2464 0.10315 1.0322 0.31279 1.2631 0.95464 1.0513 0.28782-0.09499 0.93601-0.12852 1.8527-0.09583 1.6422 0.05855 1.9348 0.18698 2.2984 1.0088 0.28039 0.63386 0.30418 0.6369 2.2796 0.29124 2.1694-0.37959 2.791-0.29636 3.6415 0.48757 0.28079 0.25882 0.89546 0.66316 1.3659 0.89852 1.7794 0.89021 2.3787 2.1909 2.5042 5.4352 0.0695 1.7964 0.078 1.843 0.35591 1.9487 0.51727 0.19667 0.657 1.1698 0.23913 1.6653-0.0872 0.10337-0.21947 0.53185-0.29401 0.95217-0.16756 0.94497-0.35903 1.2453-1.0797 1.6939l-0.56581 0.35216-0.017 1.5961c-0.0191 1.7965-0.23302 3.009-0.68976 3.9104-0.55303 1.0913-0.43685 1.0599-4.2381 1.1453-1.8362 0.04123-4.203 0.15413-5.2594 0.25089s-2.9472 0.24016-4.2018 0.31865c-1.2545 0.0785-2.362 0.18833-2.461 0.24408-0.1388 0.07813-0.11652 0.1022 0.0971 0.10502 0.15355 0.002 0.24411 0.0572 0.203 0.1237-0.0467 0.07558-1.3947 0.12103-3.6386 0.12268-1.9604 0.0014-4.6449 0.08169-5.9654 0.17832-2.8274 0.2069-25.856 0.33509-33.918 0.18882zm20.773-1.871c2.6741-0.09654 5.3212-0.17675 5.8825-0.17825l1.0204-0.0027-0.37353-0.22777c-0.41063-0.2504-0.81136-0.75726-1.0084-1.2754l-0.12735-0.33496-4.5876 0.10717c-2.5232 0.05894-5.0038 0.10779-5.5124 0.10855-0.88666 0.0014-0.9278 0.01377-0.99891 0.30215-0.0974 0.39512-0.75113 1.4133-1.0011 1.5593-0.27512 0.16068 0.94006 0.15017 6.7064-0.05799zm33.576-0.41617c-0.28461-0.33825-0.69394-1.4074-0.86329-2.255l-0.078-0.39016h-3.712c-2.2582 0-3.712 0.04456-3.712 0.11378 0 0.31868-0.78753 2.2286-1.0452 2.5348l-0.29672 0.35264h5.0034 5.0034l-0.29968-0.35615zm-19.078-0.09404c-0.10201-0.11555-0.30611-0.49371-0.45356-0.84035-0.29514-0.69384-0.35521-0.71447-1.5468-0.53133-0.50539 0.07767-0.53494 0.10525-0.69235 0.64602-0.0905 0.31069-0.28358 0.64833-0.42919 0.75032-0.24379 0.17076-0.12346 0.18543 1.5213 0.18543 1.6916 0 1.7762-0.0111 1.6006-0.21009zm7.1571 0.07935c1.5472-0.4296 2.7808-3.0459 2.5364-5.3796-0.34774-3.3205-2.6139-5.13-4.5835-3.6598-0.22943 0.17124-0.39815 0.23131-0.42484 0.15125-0.0315-0.09459-2.5224-0.15123-8.6576-0.19685l-8.6133-0.06404 0.0774 1.0084c0.0503 0.65482 0.17537 1.2287 0.35687 1.6366l0.27953 0.62822 3.0989 0.03417 3.0989 0.03418-3.1246 0.02789c-3.4083 0.03043-3.4704 0.01956-3.8264-0.66968-0.15862-0.3071-0.43107-2.0924-0.43179-2.8294l-0.00036-0.34566 7.1188 0.05241 7.1188 0.05242-0.046-0.31384c-0.0734-0.50004 0.18832-0.61469 1.3133-0.57534l1.0021 0.03505 0.0373 0.45019 0.0372 0.45019h0.75775 0.75773l0.078-0.48748c0.0429-0.26812 0.0411-0.54712-0.004-0.62-0.0901-0.14581-38.534-0.02244-39.54 0.12688-0.53685 0.07972-0.54022 0.08321-0.54022 0.56042v0.4802l3.5415 0.0055 3.5415 0.0055 0.14667 1.252c0.16721 1.4274 0.30205 1.8289 0.72612 2.1625 0.16504 0.12982 0.24886 0.23603 0.18629 0.23603-0.0626 0-0.25677-0.14924-0.43152-0.33165-0.32483-0.33904-0.48416-0.90123-0.62901-2.2194l-0.0759-0.69029h-0.5556c-0.43213 0-0.52359 0.03201-0.41154 0.14406 0.2001 0.2001 0.18412 1.2339-0.0217 1.4047-0.11437 0.09493-0.82945 0.1274-2.3066 0.10474l-2.1408-0.03283-0.11565-0.40364c-0.078-0.27203-0.073-0.51668 0.0152-0.75032l0.13086-0.34667h-0.58284-0.58285l0.0703 0.87037c0.0913 1.1296 0.18823 1.367 0.67518 1.6543 0.47921 0.28274 0.68109 0.67564 0.68109 1.3255 0 0.62945 0.11619 0.66812 2.4804 0.82549 2.0966 0.13956 18.931 0.17326 23.549 0.04714l2.8981-0.07915 0.45278-0.60658c0.57448-0.7696 1.0769-1.1065 1.9073-1.2789 0.54748-0.11366 0.63547-0.16571 0.51845-0.30672-0.0776-0.09341-0.4181-0.26012-0.75684-0.37047-0.50579-0.16478-1.3476-0.21313-4.7095-0.27049-3.2134-0.05483-4.1362-0.10528-4.2918-0.23461-0.23773-0.19763-0.27718-1.3289-0.0541-1.552 0.10316-0.10315 0.88037-0.14406 2.7372-0.14406s2.634 0.04091 2.7372 0.14406c0.0792 0.07923 0.14406 0.39257 0.14406 0.69629 0 0.30373-0.0648 0.61706-0.14406 0.69629-0.10133 0.10132-0.89378 0.15109-2.6711 0.16774-2.2066 0.02068-2.0094 0.03327 1.5547 0.09926 4.3394 0.08035 5.0261 0.1691 5.5185 0.71316 0.20884 0.23077 0.20663 0.24158-0.0703 0.34455-0.15728 0.05846-0.48251 0.14219-0.72274 0.18605-0.24022 0.04387-0.61186 0.19999-0.82586 0.34694-0.37817 0.25969-1.1714 1.2443-1.0692 1.3272 0.028 0.02269 0.99626-0.0014 2.1517-0.05361 1.1555-0.05218 2.7822-0.11088 3.6148-0.13046l1.514-0.03558 0.13345 0.85952c0.2913 1.8762 1.247 3.2618 2.5127 3.6429 0.4588 0.13815 0.62246 0.13656 1.1546-0.01121zm-1.4291-0.33398c-1.0712-0.48661-1.9042-1.8254-2.1357-3.4326-0.11096-0.77024-0.10172-0.9027 0.0754-1.0798 0.27971-0.27971 0.73251-0.1953 0.78091 0.14558 0.0469 0.3304-0.27591 0.48651-0.59456 0.28751-0.18939-0.11827-0.2242-0.10457-0.2242 0.08826 0 0.12555 0.0901 0.26284 0.20015 0.30508 0.15255 0.05854 0.16683 0.11013 0.06 0.21693-0.0771 0.07706-0.14012 0.24678-0.14012 0.37714 0 0.22532 0.0145 0.22339 0.29402-0.0392 0.47851-0.44954 0.88885-0.11576 0.50426 0.41019-0.1094 0.14961-0.24913 0.19896-0.42966 0.15176-0.20486-0.05357-0.25125-0.02752-0.19803 0.11117 0.0383 0.09962 0.0695 0.22568 0.0695 0.28013s0.11418 0.06913 0.25372 0.03264c0.22863-0.05979 0.23983-0.04038 0.11325 0.19614-0.11628 0.21728-0.0963 0.33391 0.11575 0.67708 0.21632 0.35001 0.29217 0.39535 0.48701 0.29108 0.18412-0.09854 0.23078-0.08366 0.23078 0.07363 0 0.13595-0.0632 0.17292-0.20336 0.11911-0.31881-0.12234 0.18555 0.39712 0.58728 0.60486 0.40622 0.21007 0.46511 0.21005 0.38446-0.00012-0.0355-0.09236-0.006-0.2036 0.0638-0.24719 0.0785-0.04851 0.12823 0.04287 0.12823 0.23556 0 0.28216 0.0399 0.31092 0.38545 0.2772 0.29697-0.02898 0.40148-0.10624 0.45531-0.33654 0.0471-0.20166 0.0998-0.25048 0.16187-0.15006 0.0506 0.08187 0.0586 0.20288 0.0178 0.2689-0.12831 0.20762 0.10765 0.13139 0.57379-0.18536 0.38331-0.26047 0.43094-0.33995 0.32376-0.54023-0.1316-0.24591 0.0407-0.34486 0.18735-0.10759 0.0497 0.08041 0.13925 0.04727 0.24336-0.09004 0.0906-0.1195 0.16646-0.16071 0.16855-0.09157 0.006 0.21436-0.87336 0.9934-1.3429 1.189-0.58004 0.24164-1.0026 0.2314-1.5972-0.03869zm0.67192-0.29341c-0.071-0.18587-0.12902-0.35793-0.12902-0.38235s0.058-0.19648 0.12902-0.38235c0.12444-0.32596 0.13509-0.32968 0.30013-0.10492 0.0941 0.12817 0.1711 0.34744 0.1711 0.48727s-0.077 0.3591-0.1711 0.48727c-0.16504 0.22476-0.17569 0.22104-0.30013-0.10492zm-1.0336-0.2091c-0.0934-0.15109 0.0327-0.71089 0.20755-0.92158 0.18819-0.22676 0.33689-0.06289 0.33689 0.37125 0 0.52264-0.34563 0.87201-0.54444 0.55033zm1.9858-0.11187c-0.16084-0.30054-0.11647-0.86496 0.0728-0.92702 0.16214-0.05314 0.44383 0.58426 0.38723 0.8762-0.0605 0.31195-0.30584 0.33904-0.4601 0.05081zm-1.2731-0.62443c0.044-0.24365 0.0447-0.5838 0.002-0.75588-0.0743-0.29631-0.0903-0.30221-0.30115-0.11141-0.12244 0.11081-0.25465 0.3024-0.2938 0.42574-0.0391 0.12335-0.11519 0.22427-0.16899 0.22427s-0.0255-0.20259 0.0628-0.45019c0.29588-0.8291 0.15242-1.0939-0.3761-0.69411-0.38695 0.29268-0.42206 0.20775-0.1064-0.2574 0.16471-0.24271 0.28041-0.49932 0.25711-0.57024s-0.25423-0.15675-0.51318-0.19073l-0.47082-0.06179 0.35868-0.17923c0.19729-0.09858 0.37759-0.27738 0.40069-0.39733 0.0477-0.24754-0.29451-0.68044-0.53787-0.68044-0.0888 0-0.16147-0.04318-0.16147-0.09595s0.18908-0.07387 0.42018-0.04689c0.38021 0.04439 0.42017 0.0208 0.42017-0.24802 0-0.16339-0.10804-0.43443-0.2401-0.60231-0.3148-0.40021-0.30448-0.50615 0.0267-0.27418 0.14675 0.10278 0.33582 0.18688 0.42018 0.18688 0.18469 0 0.19992-0.46218 0.0299-0.90921-0.18458-0.4855-0.0607-0.47968 0.22868 0.01073 0.14029 0.23778 0.30906 0.39897 0.37503 0.35819 0.066-0.04078 0.12479-0.38158 0.13069-0.75734l0.0107-0.68321 0.1595 0.5804c0.25147 0.91508 0.36138 0.9136 0.60933-0.0082l0.15391-0.57218 0.01 0.60025c0.0148 0.89166 0.16815 1.0467 0.49222 0.49741 0.14527-0.2462 0.28-0.43174 0.29943-0.41232 0.0194 0.01942-0.0234 0.29176-0.0951 0.6052-0.1546 0.67559-0.0841 0.786 0.35964 0.56358 0.18186-0.09114 0.3831-0.18943 0.44722-0.21842 0.0641-0.029-0.0304 0.12198-0.21009 0.3355-0.17966 0.21351-0.32666 0.49211-0.32666 0.6191 0 0.19153 0.087 0.23097 0.51022 0.23134l0.51021 0.00048-0.37707 0.22992c-0.20738 0.12646-0.41014 0.28345-0.45057 0.34887-0.1273 0.20596 0.0558 0.48445 0.4243 0.64556l0.35535 0.15534-0.4562 0.06003c-0.39393 0.05183-0.452 0.09863-0.42538 0.34278 0.017 0.15551 0.14262 0.43973 0.27924 0.6316l0.2484 0.34885-0.42866-0.25292c-0.53606-0.31629-0.62703-0.16394-0.3841 0.64328 0.0939 0.31206 0.12202 0.56737 0.0624 0.56737-0.0595 0-0.1095-0.06752-0.11097-0.15006-0.004-0.21734-0.44648-0.76136-0.54186-0.66599-0.0444 0.04441-0.0798 0.39475-0.0787 0.77853 0.002 0.69861-0.0507 0.67313-0.29511-0.14256-0.15023-0.50123-0.32074-0.44935-0.46319 0.14094-0.15457 0.6405-0.35799 0.84826-0.25106 0.25642zm1.0388-1.1066c0.0612-0.06457 0.18581-0.0405 0.3058 0.05908 0.18219 0.15121 0.19373 0.1405 0.11522-0.10689-0.10287-0.32408 0.11017-0.64001 0.3655-0.54203 0.14901 0.05718 0.15284 0.01803 0.0255-0.26134-0.13217-0.29007-0.1207-0.3521 0.0978-0.529 0.22455-0.18183 0.23118-0.22498 0.0715-0.46547-0.15553-0.23424-0.15404-0.29856 0.0128-0.55325 0.17633-0.26912 0.17331-0.29225-0.0458-0.34954-0.25336-0.06625-0.30195-0.33399-0.12173-0.67073 0.0921-0.17212 0.0645-0.20935-0.15006-0.20219-0.20173 0.0067-0.27198-0.06987-0.30167-0.32886-0.0314-0.2744-0.0703-0.31145-0.2071-0.19787-0.13462 0.11173-0.19674 0.07754-0.30974-0.17049-0.13086-0.28719-0.15338-0.29478-0.30312-0.10225-0.15248 0.19605-0.1721 0.19461-0.34184-0.02504-0.17663-0.22857-0.18008-0.22813-0.18008 0.02293 0 0.32691-0.20069 0.45228-0.42543 0.26577-0.14671-0.12176-0.17482-0.08481-0.17482 0.22977 0 0.29076-0.0522 0.37485-0.23255 0.37485-0.19944 0-0.22269 0.0608-0.16326 0.42702 0.0585 0.36078 0.0311 0.43699-0.17653 0.4913-0.24486 0.06404-0.24489 0.0652-0.008 0.30163 0.21997 0.21997 0.22355 0.25839 0.0489 0.5249-0.23142 0.35319-0.23462 0.41606-0.0212 0.41606 0.23061 0 0.33689 0.33125 0.19272 0.60063-0.0984 0.18392-0.072 0.22981 0.1505 0.26142 0.20409 0.02899 0.26891 0.11644 0.2659 0.35876-0.003 0.27544 0.0273 0.30368 0.21898 0.20111 0.1795-0.09606 0.23565-0.07077 0.28809 0.12976 0.0659 0.25198 0.27724 0.35034 0.27724 0.12903 0-0.20451 0.363-0.13195 0.45041 0.09004 0.0747 0.18966 0.0871 0.18675 0.12793-0.03001 0.0249-0.13206 0.0917-0.28913 0.14852-0.34906zm-0.35245-0.52467c-0.14593-0.27268-0.0535-0.70623 0.16887-0.79154 0.23572-0.09046 0.43995 0.22252 0.39578 0.60654-0.0462 0.40166-0.38865 0.51386-0.56465 0.185zm0.46594-0.26675c0-0.19808-0.0209-0.36015-0.0464-0.36015s-0.0702 0.16207-0.0993 0.36015-0.008 0.36015 0.0464 0.36015c0.0546 0 0.0992-0.16207 0.0992-0.36015zm-1.6374 0.17981c-0.10297-0.26832 0.0574-0.78006 0.2444-0.78006 0.2704 0 0.4651 0.33428 0.38368 0.65872-0.085 0.33879-0.51292 0.42146-0.62808 0.12134zm0.5485-0.33696c-0.008-0.25359-0.0122-0.25441-0.11161-0.02293-0.142 0.33044-0.142 0.44791 0 0.36015 0.066-0.04081 0.11625-0.19256 0.11161-0.33722zm1.0311-1.1564c-0.12645-0.3984 0.0408-0.74666 0.33822-0.70429 0.20984 0.02989 0.25981 0.11783 0.25981 0.45719s-0.0499 0.4273-0.25981 0.45719c-0.17648 0.02514-0.28495-0.04223-0.33822-0.21009zm0.51329-0.32439c-0.035-0.16505-0.0651-0.13486-0.1164 0.1164-0.0447 0.21907-0.0279 0.29801 0.0472 0.22284 0.064-0.06402 0.0951-0.21668 0.0692-0.33924zm-2.2963 0.3574c-0.16285-0.16284-0.081-0.85433 0.10986-0.92755 0.27692-0.10627 0.28538-0.10145 0.41334 0.23512 0.18287 0.48097-0.21203 1.0036-0.5232 0.69244zm0.43147-0.26683c0.0327-0.12475 0.0189-0.29229-0.0306-0.37231-0.0554-0.08962-0.11091-0.0025-0.14456 0.22681-0.0591 0.40278 0.0781 0.51674 0.17517 0.1455zm0.45022-0.91208c-0.12227-0.14733-0.12615-0.25577-0.0177-0.4939 0.208-0.45651 0.55655-0.33615 0.55655 0.19218 0 0.46708-0.27423 0.62062-0.5389 0.30172zm0.47888-0.30172c0-0.19808-0.0209-0.36015-0.0464-0.36015s-0.0702 0.16207-0.0993 0.36015c-0.029 0.19808-0.008 0.36015 0.0464 0.36015 0.0546 0 0.0993-0.16207 0.0993-0.36015zm-2.2212 4.5614c-0.13274-0.21476 0.0431-0.70215 0.30362-0.84158 0.32619-0.17457 0.45996 0.16798 0.22696 0.58116-0.19566 0.34694-0.4116 0.45294-0.53058 0.26042zm3.6452-0.13621c-0.26851-0.26852-0.25773-0.76368 0.0166-0.76368 0.099 0 0.2694 0.17886 0.37857 0.39746 0.22626 0.45305 0.406 0.32746 0.22242-0.15541-0.10933-0.28755-0.0978-0.31096 0.11919-0.24208 0.13212 0.04193 0.24022 0.02299 0.24022-0.04208 0-0.06508 0.0371-0.21728 0.0825-0.33823 0.0729-0.19445 0.0588-0.20062-0.12231-0.05328-0.17688 0.14392-0.23723 0.13729-0.44265-0.04862-0.13082-0.11839-0.23785-0.30914-0.23785-0.4239 0-0.31645 0.33593-0.37861 0.60297-0.11156 0.13056 0.13056 0.26439 0.23738 0.29741 0.23738 0.12767 0 0.0511-0.29103-0.12882-0.48989-0.17318-0.19136-0.16821-0.21522 0.06-0.28766 0.20686-0.06566 0.24886-0.17756 0.24886-0.66306s-0.042-0.5974-0.24886-0.66306c-0.23396-0.07426-0.23686-0.09227-0.0483-0.30065 0.287-0.31713 0.10603-0.5259-0.19495-0.22491-0.28729 0.28728-0.51387 0.2473-0.56519-0.09973-0.0467-0.31562 0.43008-0.68421 0.64948-0.50212 0.11244 0.09332 0.13302 0.06315 0.0842-0.12347-0.0363-0.13897-0.16344-0.24696-0.29067-0.24696-0.24163 0-0.30437-0.17756-0.10605-0.30013 0.15881-0.09815 0.1514-0.21141-0.03-0.45919-0.13446-0.18365-0.15196-0.17201-0.1683 0.11201-0.01 0.17433-0.12948 0.42821-0.26544 0.56417-0.22392 0.22392-0.25451 0.22815-0.32484 0.04485-0.12199-0.3179 0.0558-0.82127 0.31386-0.88876 0.26886-0.07031 0.29376-0.16631 0.0947-0.36532-0.10648-0.10648-0.17903-0.09071-0.3038 0.06603-0.14898 0.18715-0.16119 0.17857-0.13393-0.09422 0.0314-0.31431-0.0892-0.60025-0.25318-0.60025-0.053 0-0.0707 0.13406-0.0394 0.29791 0.081 0.4238-0.0636 0.9026-0.27261 0.9026-0.23754 0-0.23717-0.70216 0.0006-1.0416 0.15875-0.22665 0.15767-0.26256-0.01-0.32684-0.25255-0.09692-0.31432-0.09094-0.24355 0.02356 0.0326 0.05267 0.01 0.17422-0.0512 0.27011-0.0827 0.13068-0.11075 0.09166-0.11213-0.1558-0.002-0.2938-0.0447-0.32921-0.392-0.3217-0.43813 0.0095-1.0295 0.20828-0.66405 0.22322 0.13437 0.0055 0.18175 0.07247 0.13587 0.19204-0.0608 0.15856-0.0918 0.15447-0.22697-0.03001-0.14882-0.20312-0.17318-0.20112-0.49602 0.04091-0.23868 0.17894-0.32712 0.33771-0.29781 0.53461 0.0363 0.24438 0.0173 0.25979-0.15006 0.12093-0.28261-0.23454-0.24262-0.33149 0.29836-0.72337 1.0408-0.75399 2.2067-0.57402 3.1616 0.48804 1.2813 1.4251 1.6003 4.0072 0.75331 6.0978-0.29269 0.72244-0.55799 0.85616-0.94023 0.47392zm0.45008-2.8133c-0.10423-0.27166 0.14749-0.55143 0.45644-0.50729 0.17773 0.02539 0.25061 0.12308 0.25061 0.33593 0 0.23455-0.0687 0.3081-0.31481 0.33663-0.20803 0.02412-0.34106-0.03193-0.39224-0.16528zm-37.479-0.464c-0.0405-0.16132-0.0383-0.3504 0.005-0.42018 0.0476-0.07706 0.61268-0.12688 1.4391-0.12688 1.4395 0 1.5064 0.02708 1.5064 0.61007 0 0.2142-0.10047 0.23028-1.4383 0.23028-1.4252 0-1.439-0.0026-1.5119-0.2933zm3.3614 0c-0.0405-0.16132-0.0383-0.3504 0.005-0.42018 0.0476-0.07706 0.61263-0.12688 1.4389-0.12688 1.3576 0 1.3606 0.000601 1.4372 0.30565 0.0422 0.1681 0.0448 0.35718 0.006 0.42018-0.039 0.063-0.68783 0.11453-1.442 0.11453-1.354 0-1.3721-0.0037-1.4448-0.2933zm3.3904 0.21327c-0.044-0.04402-0.08-0.2331-0.08-0.42018v-0.34014h1.3764c1.2707 0 1.3866 0.01914 1.5099 0.24948 0.27545 0.51468 0.0999 0.59087-1.3618 0.59087-0.75039 0-1.4004-0.03602-1.4444-0.08003zm3.3614 0c-0.044-0.04402-0.08-0.2331-0.08-0.42018v-0.34014h1.3836c1.3773 0 1.3841 0.0014 1.5015 0.3102 0.0649 0.17061 0.0874 0.35969 0.0499 0.42018-0.0772 0.12494-2.7321 0.15278-2.855 0.02994zm3.3614 0c-0.044-0.04402-0.08-0.2331-0.08-0.42018v-0.34014h1.3836c1.3773 0 1.3841 0.0014 1.5015 0.3102 0.0649 0.17061 0.0873 0.35969 0.0499 0.42018-0.0772 0.12494-2.7321 0.15278-2.855 0.02994zm3.279-0.22634c-0.0656-0.17271-0.0888-0.36351-0.0514-0.424 0.10948-0.17715 2.8126-0.13944 2.873 0.04009 0.21289 0.63193 0.2207 0.6279-1.2901 0.6641l-1.4121 0.03384-0.11939-0.31402zm14.288-0.19347c-0.46453-0.64126-0.72439-1.5034-0.77207-2.5614-0.0208-0.46219-0.0169-0.62426 0.009-0.36015 0.11319 1.1641 0.42835 2.2301 0.83338 2.8189 0.49921 0.72574 0.44195 0.80962-0.0701 0.10272zm-33.762-0.551c0.80884-0.02077 2.1324-0.02077 2.9412 0 0.80885 0.02077 0.14707 0.03776-1.4706 0.03776s-2.2795-0.01699-1.4706-0.03776zm5.7148-0.08624c-0.4152-0.29081-0.63936-0.94181-0.72117-2.0943l-0.0775-1.0912h6.1233 6.1233l0.0819 1.0849c0.0955 1.265 0.19517 1.5788 0.62915 1.981l0.31888 0.29553h-6.1134c-5.1757 0-6.1519-0.02699-6.3646-0.17592zm29.912 0.05835c-0.0874-0.14143 0.14111-0.60273 0.29859-0.60273 0.15747 0 0.386 0.4613 0.2986 0.60273-0.0399 0.06466-0.17434 0.11757-0.2986 0.11757s-0.25863-0.05291-0.29859-0.11757zm0.61149-1.1889c-0.23843-0.26347-0.15368-0.87797 0.10729-0.77783 0.20393 0.07826 0.46705 0.71077 0.36462 0.87651-0.11373 0.18402-0.23995 0.15762-0.47191-0.09869zm0.77178-0.72653c-0.19373-0.36198-0.15692-0.9683 0.0587-0.9683 0.2318 0 0.45224 0.56439 0.36156 0.92571-0.0843 0.33586-0.25417 0.35307-0.42033 0.04259zm0.91867-0.20547c-0.12051-0.1205-0.0974-0.79348 0.0343-1.0019 0.18453-0.29187 0.38474 0.02714 0.34149 0.54414-0.0365 0.43639-0.19914 0.63449-0.37584 0.45778zm17.116 6.3502c0.17295-0.19219 0.16795-0.23566-0.0587-0.51021l-0.24782-0.30013 0.0607 0.33014c0.0776 0.42226-0.11546 0.43393-0.22102 0.01336l-0.0795-0.31678-0.14621 0.34679c-0.24319 0.5768 0.27342 0.90264 0.69259 0.43683zm-0.67706-0.0058c-0.0326-0.05267-0.01-0.17422 0.0511-0.27011 0.0915-0.14462 0.11061-0.13853 0.11214 0.03574 0.002 0.2451 0.24132 0.27487 0.48225 0.06003 0.14316-0.12766 0.14455-0.1187 0.009 0.06003-0.16375 0.2164-0.55003 0.28384-0.65479 0.11432zm0.9454-0.73458c0-0.19258-0.0405-0.39066-0.09-0.44018-0.0495-0.04953-0.09 0.07203-0.09 0.27011 0 0.28428 0.0772 0.52022 0.17008 0.52022 0.006 0 0.01-0.15757 0.01-0.35015zm-1.0204-0.2501c0-0.06603-0.0508-0.12005-0.11297-0.12005-0.0621 0-0.14635 0.05402-0.18716 0.12005-0.0408 0.06603 0.01 0.12005 0.11297 0.12005 0.10294 0 0.18716-0.05402 0.18716-0.12005zm0.43966-0.39016c-0.0333-0.08253-0.0605-0.01501-0.0605 0.15006s0.0272 0.2326 0.0605 0.15006c0.0333-0.08253 0.0333-0.21759 0-0.30013zm-0.19956 0.09712c0-0.02912-0.054-0.08633-0.12005-0.12714-0.066-0.04081-0.12005-0.01698-0.12005 0.05294s0.054 0.12714 0.12005 0.12714c0.066 0 0.12005-0.02383 0.12005-0.05294zm0.43966-0.33722c-0.0333-0.08253-0.0605-0.01501-0.0605 0.15006s0.0272 0.2326 0.0605 0.15006c0.0333-0.08253 0.0333-0.21759 0-0.30013zm0.51557-0.49177c-0.11447-0.10562-0.12999-0.10287-0.0654 0.01157 0.0466 0.08253 0.032 0.15006-0.0324 0.15006s-0.14437-0.06752-0.17768-0.15006c-0.0333-0.08253-0.0648-0.02532-0.07 0.12714-0.006 0.15604 0.043 0.24477 0.11058 0.203 0.066-0.04081 0.12169-0.0034 0.1237 0.08295 0.002 0.09186 0.0571 0.06506 0.13249-0.06451 0.0948-0.16317 0.0892-0.2582-0.0213-0.36015zm-1.5121 0.22166c-0.038-0.09904-0.0903-0.18008-0.11629-0.18008-0.0259 0-0.0471 0.08103-0.0471 0.18008 0 0.09904 0.0523 0.18008 0.11628 0.18008 0.0639 0 0.0852-0.08103 0.0472-0.18008zm0.31673-0.08404c0-0.19393-0.0355-0.22861-0.1336-0.13051-0.0735 0.07348-0.0973 0.19233-0.053 0.26411 0.12418 0.20093 0.18654 0.15626 0.18654-0.1336zm0.57624 0.12005c0.16733-0.16733 0.19496-0.38177 0.0366-0.28389-0.0592 0.03654-0.14378-0.02781-0.18815-0.14298-0.0746-0.19352-0.0892-0.19425-0.19284-0.0096-0.1132 0.2016-0.0367 0.58056 0.11714 0.58056 0.0458 0 0.14802-0.06483 0.22726-0.14406zm-6.5623-0.46391c3.4218-0.14359 3.8251-0.23564 4.2837-0.97763 0.2273-0.36777 0.70491-2.0982 0.9292-3.3665l0.0796-0.45019h-0.7856c-0.64483 0-0.79657 0.03764-0.84682 0.21009-0.53295 1.8288-0.80276 2.8216-0.77254 2.8426 0.0205 0.01424 0.29811 0.17533 0.61692 0.35797 0.31882 0.18264 0.54875 0.363 0.51095 0.40079s-0.16358-0.01423-0.27954-0.11561c-0.11595-0.10138-0.37086-0.26614-0.56646-0.36613-0.35102-0.17944-0.36138-0.17534-0.79641 0.31511l-0.44076 0.49692-3.2253 0.07605c-1.7739 0.04183-3.5359 0.08234-3.9156 0.09004-0.70204 0.01423-0.86334 0.15308-0.54623 0.47019 0.18143 0.18143 1.7161 0.18577 5.7549 0.01629zm5.9546-0.26239c-0.024-0.22689 0.0284-0.26921 0.32748-0.26443 0.27319 0.0043 0.37521 0.07422 0.43823 0.30013 0.078 0.27938 0.0828 0.27602 0.096-0.06571 0.0182-0.47381 0.18185-0.74798 0.3165-0.53012 0.0564 0.0913 0.0378 0.1753-0.0451 0.2029-0.0777 0.02591-0.13504 0.19116-0.12738 0.36724 0.01 0.21895 0.0318 0.25095 0.0705 0.10123 0.0311-0.1204 0.1194-0.19492 0.19616-0.16562 0.0843 0.03218 0.14456-0.08177 0.15216-0.28763 0.007-0.1875-0.0339-0.31214-0.0909-0.27696-0.20018 0.12372-0.26438-0.34355-0.067-0.48787 0.20111-0.14706 0.15445-0.72082-0.0484-0.59544-0.0585 0.03617-0.11194-0.03196-0.11869-0.15141-0.006-0.11944-0.0567-0.02846-0.11087 0.20219-0.0542 0.23065-0.0757 0.44224-0.0477 0.4702 0.0279 0.02796 0.0508-0.0122 0.0508-0.08922 0-0.07703 0.0493-0.14006 0.10962-0.14006 0.0603 0 0.0484 0.16207-0.0263 0.36015-0.18827 0.49876-0.44346 0.46421-0.44346-0.06003 0-0.23121 0.0607-0.42018 0.13506-0.42018 0.16192 0 0.0512-0.67589-0.15048-0.91895-0.20535-0.24745-0.28713-0.2005-0.53368 0.30637-0.15789 0.32459-0.29248 0.45538-0.43949 0.42707-0.15466-0.02979-0.21192 0.0365-0.21192 0.24534 0 0.15738 0.054 0.31954 0.12005 0.36034 0.066 0.04081 0.12005 0.17905 0.12005 0.30721s-0.054 0.23302-0.12005 0.23302c-0.066 0-0.12005 0.13825-0.12005 0.30721 0 0.16897 0.0508 0.27582 0.11286 0.23746 0.0621-0.03836 0.18362 0.01042 0.27011 0.1084 0.20886 0.2366 0.21919 0.23199 0.18586-0.08284zm-0.44877-0.29175c0-0.0229 0.0645-0.14496 0.14337-0.27122 0.10601-0.16975 0.10921-0.30458 0.0123-0.51737-0.11035-0.24217-0.0928-0.31175 0.11087-0.43893 0.1558-0.0973 0.28336-0.10979 0.35807-0.03508 0.15961 0.15961 0.0644 0.69099-0.1172 0.65397-0.134-0.02731-0.19928 0.18392-0.16078 0.52022 0.008 0.07153-0.0664 0.13006-0.16584 0.13006-0.0994 0-0.18075-0.01874-0.18075-0.04165zm0.7203-1.7191c0-0.25077 0.0511-0.36314 0.15006-0.33014 0.0825 0.02751 0.15007 0.17607 0.15007 0.33014 0 0.15406-0.0675 0.30263-0.15007 0.33014-0.099 0.033-0.15006-0.07937-0.15006-0.33014zm-11.912 1.5907c-0.0146-0.04952 0.0797-0.24957 0.20986-0.44456 0.20267-0.30374 0.24277-0.60898 0.27989-2.1309l0.0433-1.7764h-0.74739c-0.71825 0-0.74434 0.01053-0.66905 0.27011 0.24202 0.83444 0.54739 2.4313 0.61985 3.2414 0.0458 0.51172 0.1298 0.93039 0.18672 0.93039 0.0569 0 0.0915-0.04052 0.0768-0.09004zm7.503-0.17524c0.18329-0.06962 0.43849-0.27437 0.5671-0.45499l0.23385-0.32841-0.55384-0.07591c-0.30462-0.04175-1.8572-0.07591-3.4502-0.07591-3.2197 0-3.5048 0.05877-3.9483 0.81397l-0.21532 0.36664 3.5167-0.0594c2.0185-0.03409 3.6587-0.11333 3.85-0.18598zm-2.5534-1.0362 3.4886 0.04098 0.22747-0.78033c0.12511-0.42918 0.31225-1.0731 0.41586-1.431 0.10361-0.35788 0.15712-0.68201 0.11893-0.7203-0.0382-0.03829-1.7803-0.09813-3.8712-0.13297l-3.8018-0.06335 4.0217-0.04273c2.5112-0.02668 3.7963-0.07784 3.4214-0.13622-0.92088-0.14343-8.0123-0.13849-7.9233 0.0055 0.0408 0.06603-0.002 0.12005-0.0945 0.12005-0.13188 0-0.18604 0.33388-0.24829 1.5306-0.0438 0.84185-0.11134 1.648-0.15011 1.7914l-0.0705 0.26077 0.48859-0.24173c0.46221-0.22868 0.67688-0.23952 3.9771-0.20074zm-28.329-0.76936c-0.1433-0.32729-0.23771-0.87607-0.26337-1.5306l-0.04-1.0204h8.7235c4.7979 0 8.7553-0.03173 8.7942-0.07053 0.0912-0.09097-8.1055-0.2296-13.576-0.2296h-4.2421l0.00036 0.27011c0.0008 0.7453 0.28691 2.4704 0.45772 2.7612 0.29924 0.50935 0.39522 0.39051 0.14542-0.18008zm37.893-0.04375c0.38991-0.29082 0.56347-0.68058 0.7022-1.5769l0.079-0.51022h-0.67082-0.67084l-0.002 0.45019c-0.0008 0.2476-0.0822 0.82833-0.18007 1.2905-0.0979 0.46217-0.17799 0.85573-0.17799 0.87459 0 0.06524 0.54178-0.24556 0.92064-0.52813zm-2.8414 0.14663c0-0.25616-0.32308-0.32271-0.50144-0.10328-0.1367 0.16818-0.1301 0.18465 0.0474 0.11816 0.11344-0.04249 0.23818-0.02559 0.2772 0.03755 0.10143 0.16411 0.17684 0.14175 0.17684-0.05242zm1.2596-0.09198c0.0363-0.03634 0.0143-0.19548-0.0489-0.35362-0.0835-0.20866-0.1171-0.22991-0.12262-0.07746-0.004 0.11555-0.0616 0.21009-0.12767 0.21009-0.066 0-0.12005 0.07626-0.12005 0.16945 0 0.16029 0.27654 0.19428 0.41928 0.05153zm-1.2561-0.81459c-0.13849-0.25878-0.36371-0.33491-0.36371-0.12294 0 0.0681 0.081 0.15492 0.18007 0.19292 0.0991 0.03801 0.18435 0.15786 0.18956 0.26635 0.006 0.11372 0.0342 0.13652 0.0678 0.05384 0.0321-0.07887-0.0008-0.25445-0.0737-0.39016zm0.6787 0.21094c-0.0383-0.09577-0.0668-0.06732-0.0725 0.07253-0.006 0.12655 0.0231 0.19746 0.0631 0.15757 0.0399-0.0399 0.0442-0.14344 0.009-0.2301zm-0.2401-0.2401c-0.0383-0.09577-0.0667-0.06732-0.0725 0.07253-0.006 0.12655 0.0231 0.19746 0.0631 0.15756 0.0399-0.03989 0.0442-0.14344 0.009-0.2301zm0.57827-0.09754c0.0408-0.06603 0.017-0.12005-0.053-0.12005s-0.12714 0.05402-0.12714 0.12005 0.0239 0.12005 0.0529 0.12005c0.0291 0 0.0863-0.05402 0.12713-0.12005zm-52.822-0.60025v-0.54023h-2.0409-2.0408l-0.0367 0.5731-0.0367 0.5731 2.0776-0.03288 2.0776-0.03288v-0.54023zm23.29 0v-0.54023h-2.5811-2.5811l-0.0385 0.40159c-0.0738 0.77041-0.16126 0.7469 2.6467 0.71127l2.5539-0.03241v-0.54023zm28.644-0.09761c-0.14659-0.27391-0.0635-0.38568 0.27811-0.37415 0.246 0.0083 0.24617 0.01013 0.01 0.11161-0.20828 0.0895-0.21196 0.10429-0.0277 0.11161 0.16576 0.0066 0.19855 0.0809 0.14938 0.33858l-0.063 0.33014 0.15792-0.33297c0.0868-0.18314 0.20813-0.29118 0.26952-0.2401 0.0614 0.05108 0.009-0.02868-0.11582-0.17724-0.43353-0.51492-0.97787-0.26372-0.74803 0.34519 0.0738 0.19552 0.15198 0.30212 0.17372 0.2369 0.0218-0.06523-0.0161-0.22253-0.0841-0.34956zm-0.79234-0.74274c0.0463-0.07499-0.19883-0.12005-0.65319-0.12005-0.40489 0-0.72739 0.05322-0.72739 0.12005 0 0.06603 0.29394 0.12005 0.6532 0.12005 0.35925 0 0.68657-0.05402 0.72738-0.12005zm4.4945-0.05115c0.0781-0.09416 0.12528-0.40479 0.10474-0.69029l-0.0374-0.51909-0.88534-0.03557c-0.77696-0.03122-0.87617-0.01165-0.81034 0.15988 0.0412 0.1075 0.075 0.3531 0.075 0.54579 0 0.34383 0.0128 0.35076 0.69029 0.37303l0.69029 0.0227-0.69029 0.04331c-0.37966 0.02383-0.69029 0.09464-0.69029 0.15738 0 0.18895 1.3915 0.13776 1.5533-0.05714zm-1.1718-0.75186c0.0352-0.30723 0.0817-0.33746 0.51889-0.33746 0.43218 0 0.4802 0.03001 0.4802 0.30013 0 0.26808-0.0554 0.30411-0.51889 0.33746-0.50526 0.03636-0.51788 0.02847-0.4802-0.30013zm0.81902-0.03734c0-0.06603-0.13506-0.12005-0.30013-0.12005s-0.30013 0.05402-0.30013 0.12005 0.13506 0.12005 0.30013 0.12005 0.30013-0.05402 0.30013-0.12005zm-55.417 0.76175c0.70654-0.04323 1.2417-0.1121 1.1892-0.15305-0.15569-0.12142-6.768-0.0012-6.6921 0.12164 0.0785 0.127 3.611 0.14717 5.5029 0.03141zm41.01-0.1615c-0.23952-0.1548-1.8008-0.1548-1.8008 0 0 0.07049 0.40895 0.11929 0.99042 0.11821 0.68379-0.0013 0.93467-0.03786 0.81034-0.11821zm9.0184-0.46956c0.1485-0.73207 0.15156-0.73095-1.989-0.73095-1.0718 0-3.0108-0.03558-4.309-0.07905l-2.3603-0.07905v0.61764 0.61763l3.9317 0.03595c2.1624 0.01977 4.0918 0.03401 4.2876 0.03165 0.30747-0.0037 0.36722-0.06002 0.43899-0.41383zm1.549 0.16162c0.0644-0.16937 0.11708-0.43948 0.11708-0.60025 0-0.2787-0.0351-0.29231-0.75422-0.29231h-0.75422l-0.0261 0.60025-0.0261 0.60025h0.66326c0.6015 0 0.67416-0.02868 0.78034-0.30794zm-10.327-0.47947v-0.53314h-1.1474-1.1474l0.0369 0.51022 0.0369 0.51022 1.0204 0.06002c0.56123 0.03301 1.061 0.04333 1.1105 0.02293 0.0496-0.0204 0.09-0.27701 0.09-0.57024zm-8.6436 0.12714c0-0.2966-0.012-0.30013-1.0204-0.30013s-1.0204 0.0035-1.0204 0.30013c0 0.2966 0.012 0.30013 1.0204 0.30013s1.0204-0.0035 1.0204-0.30013zm22.484-0.90038c-0.0508-0.19404-0.16375-0.2401-0.58901-0.2401-0.37635 0-0.52623 0.04891-0.52623 0.17173 0 0.17211 0.26312 0.26157 0.85913 0.29213 0.26307 0.01349 0.3079-0.02568 0.25611-0.22375zm-5.0769 0.0042c0-0.06371-0.0945-0.1664-0.21009-0.22821-0.21289-0.11388-8.6753-0.24676-8.6718-0.13617 0.01 0.31813 0.30285 0.35694 2.9451 0.39022 1.5155 0.01908 3.4713 0.04714 4.3462 0.06234 0.96085 0.0167 1.5907-0.01822 1.5907-0.08818zm1.6807-0.05401c0-0.12529-0.21254-0.18138-0.81034-0.21385-0.44569-0.02421-0.82512-0.03655-0.84318-0.02743-0.0181 0.0091 0.002 0.10536 0.0429 0.21385 0.10258 0.26731 1.6107 0.29299 1.6107 0.02743zm-28.962-0.07017c9.7638-0.000081 11.555-0.02587 11.555-0.16634 0-0.27637-6.1325-0.35217-23.264-0.28757-13.846 0.05221-15.657 0.08004-15.787 0.24259-0.0803 0.10098-0.227 0.21731-0.32604 0.2585-0.0991 0.04118 3.5205 0.04744 8.0434 0.01391 4.5229-0.03354 13.423-0.06103 19.778-0.06108zm18.398 0.02392c0-0.27786-0.35545-0.38416-1.2845-0.38416-0.75031 0-0.99642 0.03954-0.99642 0.16007 0 0.08804 0.036 0.19608 0.08 0.2401 0.11452 0.11452 2.2009 0.09934 2.2009-0.01601zm10.857-0.72655c0.28738-0.63729 0.74259-1.0982 1.0846-1.0982 0.37105 0 0.7421 0.4761 0.8448 1.084l0.0805 0.47667h0.58971 0.58969l-0.004-0.87037c-0.014-3.2928-0.80923-5.017-2.6704-5.79l-0.45319-0.18823 0.0732 0.29181c0.0403 0.1605 0.009 0.41188-0.0695 0.55863-0.1403 0.26215-0.17081 0.26534-1.7446 0.18194l-1.6018-0.08488 0.21944 0.45951c0.31121 0.65164 0.58201 1.961 0.66609 3.2207 0.0397 0.59425 0.0997 1.3067 0.13339 1.5833 0.0686 0.56284 0.11995 0.5859 1.3811 0.61965 0.66949 0.01792 0.67285 0.01622 0.88059-0.44446zm-2.3914-0.16782c-0.0296-0.28062-0.085-0.96941-0.12299-1.5306-0.0874-1.2906-0.3717-2.6784-0.66731-3.2578-0.27215-0.53346-0.20399-0.51995-3.5336-0.70031-3.0674-0.16615-2.8059-0.18831-2.4376 0.20656 0.40687 0.43624 0.56337 0.75672 0.68348 1.3996 0.10466 0.56021 0.0126 0.87878-0.2137 0.73896-0.074-0.04569-0.43009-0.48287-0.79145-0.97151s-0.79583-0.97938-0.96548-1.0905c-0.17071-0.11185-0.28065-0.2746-0.24618-0.36443 0.0393-0.10251-0.0248-0.16232-0.17405-0.16232-0.22889 0-0.23633 0.09627-0.23633 3.0558v3.0558l0.81034 0.04199c0.44569 0.0231 2.4165 0.05258 4.3796 0.06551l3.5692 0.02351-0.0539-0.51022zm-1.5666-2.2857c-0.0398-0.15855-0.0551-0.49921-0.034-0.75702 0.0362-0.44273 0.0623-0.47076 0.46882-0.50484 0.56773-0.04759 0.73343 0.16879 0.68697 0.89712l-0.037 0.57957-0.50625 0.03672c-0.44863 0.03254-0.51447 0.0039-0.57858-0.25154zm1.0248-0.74558c0-0.27011-0.048-0.30013-0.48021-0.30013-0.43218 0-0.4802 0.03001-0.4802 0.30013 0 0.27011 0.048 0.30013 0.4802 0.30013 0.43219 0 0.48021-0.03001 0.48021-0.30013zm-46.853 3.346 0.72188-0.07545 0.14431-1.035c0.16879-1.2106 0.48094-1.9989 0.83615-2.1117 0.13866-0.04401 0.25212-0.1473 0.25212-0.22954 0-0.20987 0.55309-0.70508 1.2605-1.1286 1.3475-0.8067 4.294-1.7475 7.9233-2.5298 2.2296-0.48062 4.5854-0.89005 4.769-0.82884 0.0813 0.02709-0.28321 0.11719-0.80998 0.20022-4.5058 0.71019-9.3171 1.9888-11.333 3.0117-0.87234 0.44266-1.8157 1.1261-1.6899 1.2244 0.033 0.02579 1.3026 0.0023 2.8212-0.05223 1.5186-0.05452 4.3631-0.08386 6.321-0.0652l3.5598 0.03393 0.26929-0.39317c0.49782-0.72684 2.3794-1.9795 3.8213-2.5441 0.93228-0.36502 0.87103-0.23545-0.0803 0.16988-1.4487 0.61726-2.6581 1.4045-3.402 2.2145-0.38777 0.42222-0.70504 0.8426-0.70504 0.93418s-0.10562 0.48007-0.23474 0.86331c-0.1291 0.38325-0.27162 1.0568-0.3167 1.4968l-0.082 0.80003h6.1798c3.3988 0 7.4768 0.03543 9.0621 0.07873l2.8824 0.07873 0.13567-0.38918c0.26099-0.74866 0.95608-1.539 1.6537-1.8803 0.60078-0.29393 0.70396-0.31026 1.1381-0.18018 0.58193 0.17435 1.0629 0.78968 1.363 1.7437l0.21028 0.66854h0.95305 0.95307l-0.0413-3.1513c-0.025-1.9068-0.12217-3.8625-0.24612-4.9521-0.2336-2.0534-0.78531-5.4809-0.90242-5.6062-0.0431-0.04614-0.32148-0.11485-0.61861-0.15268-0.4571-0.0582-0.49946-0.04744-0.27529 0.06992 0.18933 0.09913 0.30363 0.32514 0.40057 0.79211 0.24936 1.2011 0.35007 2.1267 0.35251 3.2395 0.002 0.97531-0.0291 1.1396-0.2677 1.4118-0.36323 0.41417-1.4128 0.61198-2.2871 0.43106-0.34325-0.07103-2.5529-0.17657-4.9103-0.23455-3.4394-0.08459-4.4711-0.07328-5.2222 0.05726-1.0083 0.17524-2.7451 0.61044-3.9921 1.0003-0.42635 0.1333-0.79445 0.22309-0.81801 0.19953-0.0712-0.07125 1.4639-0.55149 3.1369-0.98131l1.5776-0.40531-3.4214 0.06594c-6.3887 0.12312-8.1006 0.17354-9.9642 0.29348-1.0234 0.06587-2.32 0.14958-2.8812 0.18603l-1.0204 0.06628 0.90038-0.8515c1.0979-1.0383 2.9134-2.4897 4.7698-3.8134 1.3748-0.9802 1.5815-1.1761 0.83655-0.79267-1.2959 0.66699-4.0336 2.7943-5.7865 4.4964l-1.2005 1.1657-1.2005 0.14261c-3.5495 0.42165-7.0835 1.3624-9.3156 2.4798-1.0372 0.51925-2.1492 1.3995-2.1492 1.7014 0 0.10394 0.83013 0.14063 3.1813 0.14063 3.0213 0 3.1934 0.01208 3.4214 0.2401 0.2665 0.2665 0.3013 0.67519 0.11471 1.347-0.2224 0.80082-0.28235 0.81388-3.7351 0.81388-1.6977 0-3.22-0.05063-3.3827-0.1125-0.2517-0.0957-0.30642-0.07329-0.36632 0.15006-0.15578 0.58086-0.25164 0.56269 2.97 0.56269 1.674 0 3.3685-0.03395 3.7656-0.07545zm16.077-1.0137c-0.37346-0.29376-0.39286-0.59142-0.083-1.2739 0.39927-0.87942 0.3928-0.87833 5.2132-0.87833 2.3419 0 4.3454 0.03356 4.4523 0.07458 0.53805 0.20647 0.74846 1.6434 0.3055 2.0863-0.23186 0.23186-0.40016 0.2401-4.9059 0.2401-4.5385 0-4.6744-0.0068-4.9821-0.24881zm7.1268-0.32528c0-0.18369 0.0731-0.61588 0.16249-0.9604l0.1625-0.62642h-3.2298c-3.7146 0-3.7867 0.01574-4.1243 0.89961-0.1985 0.51978-0.19815 0.55542 0.008 0.78288 0.20547 0.22704 0.37663 0.23832 3.6185 0.23832h3.4028v-0.33399zm2.5725 0.14534c0.31149-0.31149 0.17324-1.3948-0.20903-1.6378-0.0784-0.04985-0.52883-0.09147-1.001-0.09248l-0.85839-0.0018-0.1263 0.57024c-0.0695 0.31363-0.16017 0.74581-0.20158 0.9604l-0.0753 0.39016h1.1414c0.87761 0 1.1851-0.0436 1.3301-0.18865zm-1.3272-2.9831c0.98463-0.89098 3.5206-1.9638 6.4243-2.7177 1.6076-0.41741 3.6183-0.8379 3.9342-0.82275 0.12169 0.0058-0.373 0.13509-1.0993 0.28723-4.4214 0.92616-7.4416 1.9974-9.132 3.2391l-0.59204 0.43488 0.46496-0.42073zm-10.446 3.3818c0.0426-0.41267 0.19347-1.1429 0.33529-1.6226 0.14184-0.47977 0.21786-0.91195 0.16895-0.96041-0.0489-0.04845-2.7785-0.0781-6.0658-0.06588-6.4756 0.02407-6.6045 0.03654-7.0262 0.68017-0.18511 0.28252-0.52736 1.8441-0.53674 2.4489l-0.004 0.27011h6.5256 6.5256l0.0774-0.75032zm-12.582 0c0.0984-0.83254 0.39526-2.0401 0.53622-2.1811 0.0663-0.06631 2.5905-0.11989 6.1584-0.13074l6.046-0.01838-0.23205 0.60987c-0.12763 0.33543-0.26181 1.0015-0.29817 1.4802l-0.0661 0.87037h-6.1094-6.1094l0.0745-0.63026zm6.5002-0.55382 0.26372-0.46193-0.40028-0.38797c-0.22016-0.21338-0.41987-0.34274-0.4438-0.28746-0.0239 0.05528-0.20557 0.19125-0.40366 0.30216-0.29423 0.16475-0.3669 0.29108-0.39706 0.69029-0.0365 0.48279-0.0322 0.48847 0.36015 0.47471 0.21839-0.0077 0.30552-0.03806 0.19364-0.06755-0.23711-0.0625-0.15597-0.39873 0.0962-0.39873 0.0984 0 0.16723 0.12363 0.16723 0.30013 0 0.44051 0.26241 0.36435 0.56384-0.16365zm-1.2823 0.0346c0.003-0.19572 0.20665-0.4419 0.32703-0.39579 0.0641 0.02456 0.0163 0.14864-0.10616 0.27574-0.12249 0.1271-0.22189 0.18112-0.22087 0.12005zm0.80373-0.17107c-0.0501-0.19169-0.004-0.2401 0.23032-0.2401 0.25591 0 0.2768 0.03048 0.16461 0.2401-0.0707 0.13206-0.17432 0.2401-0.23032 0.2401s-0.13008-0.10805-0.16461-0.2401zm-0.68552-0.41595c0-0.03069 0.10804-0.11362 0.2401-0.1843 0.19164-0.10256 0.2401-0.0913 0.2401 0.0558 0 0.10426-0.10427 0.1843-0.2401 0.1843-0.13206 0-0.2401-0.02511-0.2401-0.0558zm0.60025-0.05716c0-0.21814 0.24386-0.26057 0.42968-0.07477 0.17027 0.17027 0.15902 0.18773-0.12097 0.18773-0.16979 0-0.30871-0.05084-0.30871-0.11296zm-12.905 0.685c0.0472-0.27974 0.15766-0.71193 0.24533-0.9604 0.15892-0.45044 0.15843-0.45177-0.16542-0.44994-0.47836 0.0027-0.61783 0.13657-0.81097 0.77832-0.28759 0.95559-0.25163 1.0356 0.50562 1.1243 0.0768 0.009 0.17818-0.21254 0.22544-0.49228zm5.7977 0.29854c0.14985-0.12761 0.27711-0.42637 0.32416-0.76102 0.13208-0.93948 0.10087-0.9497-2.9-0.9497h-2.5786l-0.17658 0.42262c-0.0971 0.23244-0.20975 0.66462-0.25029 0.9604l-0.0737 0.53779h2.7042c2.4014 0 2.7318-0.02352 2.9509-0.21009zm42.027-5.9162c1.0491-0.14145 1.1915-0.29886 0.91805-1.0149-0.32056-0.83936-0.52817-0.92319-2.3383-0.94418-1.126-0.01305-1.5994 0.02453-1.7114 0.13588-0.0886 0.08803-0.174 0.53292-0.19956 1.0392-0.0394 0.78137-0.0186 0.89264 0.17793 0.94783 0.26707 0.07502 2.0808-0.01921 3.1533-0.16381zm-2.9168 0.0135c0.1432-0.15569 1.9956-0.3725 2.9874-0.34966 0.33014 0.0076-0.12905 0.07974-1.0204 0.16032-0.89137 0.08057-1.7287 0.18889-1.8608 0.2407-0.18457 0.07241-0.20914 0.06054-0.10621-0.05135zm-0.53391-0.75386c0.0337-0.73062 0.004-0.8973-0.19149-1.0792-0.12726-0.11831-0.25209-0.19439-0.27742-0.16907-0.0253 0.02532-0.008 0.51096 0.0378 1.0792 0.0581 0.71593 0.13102 1.0331 0.23754 1.0331 0.10699 0 0.16583-0.26266 0.19358-0.86408zm-24.811-0.69743c1.3866-0.06266 3.2098-0.11511 4.0517-0.11656 1.2008-0.0021 1.5306-0.03743 1.5306-0.16411 0-0.08881 0.11364-0.26438 0.25253-0.39016 0.22625-0.2049 0.49348-0.23295 2.5687-0.26956 2.4994-0.0441 2.7624 0.005 2.897 0.5412l0.0787 0.31332 1.8195-0.06115c1.4609-0.0491 1.9012-0.10504 2.2338-0.28386 0.53589-0.28811 2.3274-0.29397 3.0854-0.01009 0.49146 0.18407 0.51022 0.18246 0.51022-0.04369 0-0.12913 0.10804-0.34282 0.2401-0.47488 0.21069-0.21069 0.40016-0.2401 1.547-0.2401h1.3069l0.0763-0.51022c0.0779-0.52015-0.19567-2.4456-0.37252-2.6224-0.0845-0.08443-5.8225-0.34841-7.5811-0.34877-0.54048-0.00011-0.65139-0.03794-0.70429-0.24023-0.0574-0.21941-0.16375-0.2401-1.2346-0.2401-1.2224 0-1.3447 0.04705-1.4717 0.56618-0.0636 0.2599-0.0369 0.26684 1.1532 0.30013l1.2182 0.03407-0.008 0.57965c-0.005 0.36497-0.0718 0.61994-0.18007 0.68845-0.21906 0.13862-4.398 0.14734-4.4833 0.0093-0.0351-0.05672-0.0234-0.34034 0.0258-0.63026l0.0895-0.52713 0.73762-0.06002c0.83442-0.0679 0.79641-0.04564 0.9734-0.57024l0.13163-0.39016h-0.76285c-0.69372 0-0.75737 0.02093-0.70243 0.231 0.0719 0.27498 0.25316 0.24506-4.0172 0.66302-2.9186 0.28566-3.3888 0.2925-3.3888 0.04931 0-0.06129-0.12155-0.04778-0.27012 0.03001-0.81256 0.4255-4.758 3.4587-5.3723 4.1301l-0.30013 0.32804 0.90038-0.0781c0.49521-0.04296 2.0349-0.12937 3.4214-0.19203zm22.923-0.02586c0.25058-0.35775 0.24796-2.0205-0.006-3.6205-0.20539-1.2955-0.32389-1.635-0.57069-1.635-0.12046 0-0.10744 0.18563 0.059 0.841 0.11746 0.46255 0.27601 1.3959 0.35232 2.074 0.11516 1.0235 0.109 1.3498-0.0363 1.9202-0.18358 0.72081-0.11273 0.86873 0.20136 0.42032zm-1.4615-5.5744c-0.0813-0.03289-0.24335-0.03489-0.36015-0.0045-0.11681 0.03044-0.0503 0.05734 0.14777 0.05979 0.19808 0.0025 0.29365-0.02246 0.21238-0.05534z"/>
 </g>
</svg>
