<?xml version="1.0" encoding="UTF-8" standalone="no"?>
<!-- Created with Inkscape (http://www.inkscape.org/) -->
<svg id="svg2" xmlns:rdf="http://www.w3.org/1999/02/22-rdf-syntax-ns#" xmlns="http://www.w3.org/2000/svg" height="45" width="67.5" version="1.1" xmlns:cc="http://creativecommons.org/ns#" xmlns:dc="http://purl.org/dc/elements/1.1/">
 <metadata id="metadata7">
  <rdf:RDF>
   <cc:Work rdf:about="">
    <dc:format>image/svg+xml</dc:format>
    <dc:type rdf:resource="http://purl.org/dc/dcmitype/StillImage"/>
    <dc:title/>
   </cc:Work>
  </rdf:RDF>
 </metadata>
 <g id="g55828">
  <rect id="rect2990" opacity="0" height="45" width="67.5" y="0" x="3.5527e-15"/>
  <g id="g54447" transform="matrix(.75001 0 0 .75001 -3.3754 2.2497)">
   <path id="path84364" d="m30.291 43.653v2.2315l-0.24958 0.0059c-12.694 0.008-25.541-0.101-25.541-0.438 0-0.57921 14.697-1.3757 14.697-1.3757s-3.5475-1.3031-3.5475-7.0952c4.344 0.72406 33.884 0.28951 36.851 0.14485 2.9685-0.14485 8.0725-0.36193 9.5207-0.28951 1.4479 0.07243 1.3757-0.83251 1.4843-1.0136 0.10864-0.18087 1.8101-4.3078 1.2671-5.2127 0.543 0 0.76028-1.8825 0.543-2.4255-0.21708-0.543 1.3033-3.9458 3.5477-3.9458s2.7512 4.0181 2.7512 5.6835c0 0 1.3755 2.8959 1.3755 7.1676 0 0.47057 0.50678 0.57902 0.50678 0.57902s9.5569-0.18087 11.439-0.43436c1.8825-0.2533 2.172-2.5339 2.172-2.5339s0.68785-2.715 0.86872-4.0543c0.43436 0 0.61542-1.7738 0.47057-2.172-0.14485-0.39815 0.97736-2.3893 1.4479-2.6064 0.47057-0.21708 1.6652-0.39815 1.6652 2.6788 0.57921 0.97755 0.2533 5.4662-0.18106 5.611 0.68785 4.1269-0.21708 9.231-2.1358 9.4845 0 0-4.5826 0.04306-7.5121 0.16188h0.000588v-0.51618l0.11764-0.01762c1.3577 0.01331 2.4621 0.02858 3.0137 0.0462-1.5204 0-2.0996-4.0545-2.0996-4.0545l-9.9188-0.03621s-1.0498 3.9821-1.9911 3.9821c0 0 6.6119 0.02016 10.875 0.06009l0.0029 0.02016v0.52675h-0.0037c-0.76478 0.03328-1.5344 0.07203-1.933 0.11725-1.9187 0.21728-9.8826 0.76028-10.534 0.76028l-0.36213 0.28951s0.68785-0.03621 0.68785 0.18106c0 0.21708-4.5973 0.18087-7.2763 0.10864-1.2222-0.03308-2.4404 0.03289-3.7014 0.12449l-0.13272 0.0096v-2.3783l0.1335-0.0086c0.15758 0.01311 0.30615 0.02799 0.44258 0.04463-0.61542 0-1.4117-2.3893-1.4117-2.3893l-2.4977 0.10864s-0.12704 2.1348-1.5027 2.1348l0.97794 0.000979s2.2994-0.02819 3.8595 0.08965v2.3793l-0.000979 0.01801c-1.462 0.10766-2.9836 0.24586-4.6368 0.30027-2.953 0.09729-13.172 0.18009-23.55 0.18655v-2.245l18.59-0.62071c-1.7738 0-2.4255-2.3531-2.4255-2.3531s-11.295 0.03621-11.801 0.14485c-0.50678 0.10864-2.715 0.25329-2.8596-0.07243 0 0-0.79649 2.9321-2.4255 2.9321l0.92118-0.02251 0.000392-0.000979z"/>
   <ellipse id="ellipse84370" rx="4.2539" ry="6.4778" cy="36.43" cx="67.277" fill="#fff"/>
   <path id="path84372" fill="#fff" d="m67.277 36.43"/>
   <ellipse id="ellipse84376" cy="41.421" cx="67.316" rx=".32729" ry=".83055"/>
   <path id="path84378" d="m67.316 41.421"/>
   <path id="path84382" d="m68.774 41.788c0.16697-0.10531 0.20886-0.53419 0.09357-0.95798s-0.34412-0.68178-0.51109-0.57647-0.20886 0.53419-0.09357 0.95798c0.11549 0.42359 0.34412 0.68178 0.51109 0.57647z"/>
   <path id="path84384" d="m68.567 41.02"/>
   <path id="path84388" d="m70.008 40.505c0.12763-0.19457 0.05872-0.61542-0.15425-0.93958-0.21297-0.32435-0.48936-0.42947-0.61699-0.2349s-0.05872 0.61523 0.15425 0.93958 0.48936 0.42947 0.61699 0.2349z"/>
   <path id="path84390" d="m69.622 39.918"/>
   <path id="path84394" d="m70.824 38.605c0.0691-0.25427-0.10042-0.6027-0.37877-0.77809-0.27816-0.17558-0.55983-0.11158-0.62913 0.1427-0.0691 0.25427 0.10042 0.6027 0.37877 0.77809s0.56003 0.11158 0.62913-0.1427z"/>
   <path id="path84396" d="m70.321 38.286"/>
   <ellipse id="ellipse84400" cy="36.371" cx="70.554" rx=".54535" ry=".49817"/>
   <path id="path84402" d="m70.554 36.371"/>
   <path id="path84406" d="m70.794 34.148c-0.06929-0.25427-0.35078-0.31809-0.62913-0.1425-0.27815 0.17558-0.44786 0.52401-0.37857 0.77828 0.0691 0.25427 0.35078 0.31809 0.62893 0.1425 0.279-0.176 0.448-0.524 0.379-0.778z"/>
   <path id="path84408" d="m70.289 34.467"/>
   <path id="path84412" d="m69.953 32.272c-0.12782-0.19457-0.40402-0.08945-0.61699 0.23509-0.21297 0.32435-0.28187 0.74501-0.15425 0.93958 0.12763 0.19457 0.40402 0.08946 0.61699-0.23489 0.21278-0.32455 0.28187-0.7452 0.15425-0.93978z"/>
   <path id="path84414" d="m69.567 32.86"/>
   <path id="path84418" d="m68.704 31.029c-0.16697-0.10531-0.3956 0.15288-0.5109 0.57647-0.11529 0.42379-0.0734 0.85267 0.09376 0.95798 0.16717 0.10531 0.3956-0.15288 0.5109-0.57667 0.1151-0.42359 0.07321-0.85247-0.09376-0.95778z"/>
   <path id="path84420" d="m68.494 31.797"/>
   <ellipse id="ellipse84424" cy="31.438" cx="67.238" rx=".32729" ry=".83035"/>
   <path id="path84426" d="m67.238 31.438"/>
   <path id="path84430" d="m65.777 31.074c-0.16697 0.10531-0.20886 0.53419-0.09357 0.95798s0.34412 0.68178 0.5109 0.57647c0.16697-0.10551 0.20886-0.53419 0.09357-0.95798-0.115-0.423-0.344-0.681-0.511-0.576z"/>
   <path id="path84432" d="m65.987 31.842"/>
   <path id="path84436" d="m64.546 32.356c-0.12763 0.19457-0.05872 0.61523 0.15444 0.93958 0.21297 0.32435 0.48936 0.42927 0.61699 0.2347 0.12782-0.19457 0.05872-0.61523-0.15425-0.93938-0.21297-0.32435-0.48936-0.42946-0.61719-0.23489z"/>
   <path id="path84438" d="m64.932 32.944"/>
   <path id="path84442" d="m63.73 34.257c-0.0691 0.25427 0.10042 0.6025 0.37877 0.77809 0.27835 0.17558 0.55983 0.11157 0.62913-0.1427 0.069-0.254-0.101-0.602-0.379-0.778-0.278-0.175-0.56-0.111-0.629 0.143z"/>
   <path id="path84444" d="m64.233 34.574"/>
   <ellipse id="ellipse84448" cy="36.491" cx="63.998" rx=".54535" ry=".49817"/>
   <path id="path84450" d="m63.998 36.491"/>
   <path id="path84454" d="m63.759 38.714c0.0691 0.25408 0.35078 0.31809 0.62893 0.1425 0.27835-0.17558 0.44787-0.52401 0.37857-0.77828-0.06929-0.25427-0.35078-0.31809-0.62913-0.1425-0.27796 0.17558-0.44747 0.52401-0.37838 0.77828z"/>
   <path id="path84456" d="m64.262 38.395"/>
   <path id="path84460" d="m64.601 40.59c0.12782 0.19457 0.40402 0.08946 0.61699-0.23509 0.21297-0.32435 0.28207-0.74501 0.15425-0.93958s-0.40402-0.08946-0.61699 0.23509c-0.21297 0.32435-0.28207 0.74501-0.15425 0.93958z"/>
   <path id="path84462" d="m64.987 40.002"/>
   <path id="path84466" d="m65.85 41.833c0.16697 0.10531 0.3956-0.15288 0.5109-0.57667 0.1151-0.42379 0.07321-0.85267-0.09376-0.95798s-0.3956 0.15288-0.5109 0.57667c-0.11529 0.42379-0.07321 0.85267 0.09376 0.95798z"/>
   <path id="path84468" d="m66.057 41.065"/>
   <g id="g53778" stroke-width=".097873" stroke="#000" fill="none">
    <ellipse id="ellipse84472" cy="36.43" cx="67.277" rx="3.9832" ry="6.0656"/>
    <path id="path84474" d="m67.277 36.43"/>
    <ellipse id="ellipse84480" cy="34.437" cx="67.277" rx=".40735" ry=".62032"/>
    <path id="path84482" d="m67.277 34.437"/>
   </g>
   <path id="path84484" d="m67.277 33.817c0.16384 0 0.18165 1.4031-0.26993 1.0721-0.26-0.191-0.145-1.072 0.27-1.072z"/>
   <path id="path84490" d="m66.016 36.434c0.22472 0.01292 0.414-0.25408 0.42242-0.59663 0.0084-0.34236-0.16697-0.6305-0.39169-0.64342-0.22491-0.01292-0.414 0.25408-0.42262 0.59644-0.0084 0.34256 0.16697 0.6305 0.39188 0.64361z" stroke="#000" stroke-width=".097873" fill="none"/>
   <path id="path84492" d="m66.032 35.815" stroke="#000" stroke-width=".097873" fill="none"/>
   <path id="path84494" d="m66.048 35.195c0.16364 0.0094 0.14681 1.4127-0.29636 1.0559-0.25545-0.20573-0.11803-1.0797 0.29636-1.0559z"/>
   <path id="path84500" d="m66.392 38.609c0.22491 0.0094 0.41224-0.26054 0.4185-0.60309 0.0063-0.34255-0.17128-0.62795-0.39599-0.63715-0.22472-0.0092-0.41224 0.26073-0.4185 0.60329-0.0063 0.34236 0.17108 0.62776 0.39599 0.63696z" stroke="#000" stroke-width=".097873" fill="none"/>
   <path id="path84502" d="m66.404 37.988" stroke="#000" stroke-width=".097873" fill="none"/>
   <path id="path84504" d="m66.414 37.368c0.16384 0.0069 0.1564 1.4103-0.28912 1.0604-0.257-0.201-0.125-1.077 0.289-1.06z"/>
   <path id="path84510" d="m67.917 38.708c0.22491 0.01057 0.41283-0.25858 0.41987-0.60094 0.0069-0.34256-0.16991-0.62874-0.39482-0.6393-0.22491-0.01057-0.41283 0.25858-0.41987 0.60094-0.0069 0.34255 0.16991 0.62873 0.39482 0.6393z" stroke="#000" stroke-width=".097873" fill="none"/>
   <path id="path84512" d="m67.931 38.088" stroke="#000" stroke-width=".097873" fill="none"/>
   <path id="path84514" d="m67.942 37.469c0.16384 0.0076 0.15327 1.4109-0.29146 1.059-0.25643-0.20299-0.12293-1.0784 0.29146-1.059z"/>
   <path id="path84520" d="m68.512 36.659c0.22491 0.0018 0.40833-0.27463 0.4095-0.61719 0.000979-0.34256-0.18028-0.62188-0.40539-0.62364-0.22511-0.0018-0.40832 0.27463-0.4095 0.61718-0.0012 0.34256 0.18028 0.62188 0.40539 0.62365z" stroke="#000" stroke-width=".097873" fill="none"/>
   <path id="path84522" d="m68.516 36.038" stroke="#000" stroke-width=".097873" fill="none"/>
   <path id="path84524" d="m68.518 35.418c0.16384 0.0012 0.17695 1.4047-0.27346 1.0699-0.25975-0.193-0.14113-1.0733 0.27346-1.0699z"/>
   <path id="path84528" d="m67.974 41.472s0.01488 0.48936-0.10238 0.64478c-0.11745 0.15523 0.46901-0.02231 0.35919-0.10883-0.11-0.087-0.257-0.536-0.257-0.536z"/>
   <path id="path84532" d="m69.189 40.683s0.13663 0.44376 0.06734 0.65555c-0.06929 0.2118 0.4277-0.29381 0.30458-0.30986-0.123-0.016-0.372-0.346-0.372-0.346z"/>
   <path id="path84536" d="m70.111 39.245s0.23783 0.33022 0.22687 0.56649c-0.01077 0.23607 0.32122-0.52068 0.20358-0.46392-0.117 0.056-0.43-0.103-0.43-0.103z"/>
   <path id="path84540" d="m70.603 37.377s0.30262 0.16658 0.35195 0.3909c0.04913 0.22452 0.1658-0.66828 0.07145-0.54711s-0.4234 0.1562-0.4234 0.1562z"/>
   <path id="path84544" d="m70.587 35.367s0.32141-0.02251 0.4234 0.15601c0.10198 0.17852-0.01468-0.71408-0.07145-0.54711-0.057 0.167-0.352 0.391-0.352 0.391z"/>
   <path id="path84548" d="m70.068 33.519s0.29127-0.20808 0.43044-0.10238c0.13918 0.1057-0.193-0.65124-0.20358-0.46392-0.01057 0.18733-0.22687 0.56629-0.22687 0.56629z"/>
   <path id="path84552" d="m69.125 32.114s0.21669-0.36213 0.37192-0.34549c0.15503 0.01644-0.34197-0.48917-0.30458-0.30986 0.03719 0.17911-0.06734 0.65536-0.06734 0.65536z"/>
   <path id="path84556" d="m67.899 31.366s0.10942-0.46078 0.25682-0.53595-0.43886-0.25271-0.35939-0.10883c0.08 0.144 0.103 0.645 0.103 0.645z"/>
   <path id="path84560" d="m66.578 31.388s-0.01488-0.48936 0.10237-0.64478c0.11745-0.15523-0.46901 0.02232-0.35919 0.10883 0.11 0.087 0.257 0.536 0.257 0.536z"/>
   <path id="path84564" d="m65.364 32.178s-0.13683-0.44356-0.06734-0.65536c0.06929-0.21199-0.4277 0.29381-0.30458 0.30986 0.12293 0.01605 0.37192 0.34549 0.37192 0.34549z"/>
   <path id="path84568" d="m64.441 33.617s-0.23783-0.33022-0.22706-0.56629c0.01096-0.23626-0.32122 0.52068-0.20358 0.46392 0.11784-0.05696 0.43064 0.10238 0.43064 0.10238z"/>
   <path id="path84572" d="m63.951 35.483s-0.30262-0.16658-0.35195-0.3911c-0.04933-0.22432-0.1658 0.66828-0.07145 0.54711 0.094-0.121 0.423-0.156 0.423-0.156z"/>
   <path id="path84576" d="m63.965 37.493s-0.32142 0.02271-0.4234-0.15601 0.01468 0.71408 0.07164 0.54711c0.057-0.167 0.352-0.391 0.352-0.391z"/>
   <path id="path84580" d="m64.486 39.343s-0.29127 0.20808-0.43044 0.10257c-0.13898-0.1057 0.193 0.65105 0.20358 0.46372 0.01057-0.18713 0.22687-0.56629 0.22687-0.56629z"/>
   <path id="path84584" d="m65.429 40.748s-0.21669 0.36213-0.37192 0.34549c-0.15503-0.01644 0.34197 0.48917 0.30478 0.30986-0.03739-0.17911 0.06714-0.65536 0.06714-0.65536z"/>
   <path id="path84588" d="m66.654 41.496s-0.10942 0.46078-0.25682 0.53595 0.43886 0.25271 0.35919 0.10884c-0.079-0.144-0.102-0.645-0.102-0.645z"/>
   <g id="g53813" stroke-width=".097873" stroke="#000" fill="none">
    <path id="path84592" d="m66.688 41.069s0.26993-1.6443 0.61699-1.6443c0.38562 0 0.61699 1.6443 0.61699 1.6443"/>
    <path id="path84596" d="m67.899 41.059s-0.16384-1.6764 0.15679-1.8786c0.35626-0.22472 0.98323 1.1594 0.98323 1.1594"/>
    <path id="path84600" d="m69.015 40.345s-0.57256-1.4532-0.32729-1.8269c0.27267-0.41537 1.1997 0.49817 1.1997 0.49817"/>
    <path id="path84604" d="m69.867 39.033s-0.89417-1.0089-0.76145-1.4973c0.1474-0.54261 1.2336-0.23881 1.2336-0.23881"/>
    <path id="path84608" d="m70.323 37.326s-1.0797-0.41107-1.0797-0.93958c0-0.58724 1.0797-0.93958 1.0797-0.93958"/>
    <path id="path84612" d="m70.317 35.483s-1.1009 0.24958-1.2338-0.23881c-0.14759-0.54241 0.76145-1.4973 0.76145-1.4973"/>
    <path id="path84616" d="m69.847 33.783s-0.95426 0.87205-1.1997 0.49837c-0.27267-0.41518 0.32709-1.8271 0.32709-1.8271"/>
    <path id="path84620" d="m68.986 32.488s-0.6626 1.3618-0.98323 1.1596c-0.35626-0.22472-0.15679-1.8788-0.15679-1.8788"/>
    <path id="path84624" d="m67.864 31.791s-0.26974 1.6443-0.61679 1.6443c-0.38562 0-0.61719-1.6443-0.61719-1.6443"/>
    <path id="path84628" d="m66.654 31.803s0.16384 1.6764-0.15679 1.8786c-0.35626 0.22472-0.98323-1.1594-0.98323-1.1594"/>
    <path id="path84632" d="m65.539 32.517s0.57275 1.4532 0.32729 1.8269c-0.27267 0.41537-1.1999-0.49817-1.1999-0.49817"/>
    <path id="path84636" d="m64.687 33.828s0.89436 1.0089 0.76165 1.4971c-0.14759 0.54241-1.2338 0.239-1.2338 0.239"/>
    <path id="path84640" d="m64.229 35.535s1.0799 0.41087 1.0799 0.93938c0 0.58724-1.0797 0.93978-1.0797 0.93978"/>
    <path id="path84644" d="m64.237 37.379s1.1009-0.24958 1.2336 0.23861c0.14759 0.54241-0.76125 1.4973-0.76125 1.4973"/>
    <path id="path84648" d="m64.707 39.078s0.95426-0.87224 1.1997-0.49837c0.27267 0.41518-0.32709 1.8269-0.32709 1.8269"/>
    <path id="path84652" d="m65.568 40.374s0.6626-1.3618 0.98323-1.1596c0.35626 0.22472 0.15699 1.8786 0.15699 1.8786"/>
   </g>
   <path id="path84656" fill="#fff" d="m91.469 34.792c0.34021-0.19829 1.1868-0.70096 1.5575-1.0022 0.46979-0.3817 0.67532-1.703 0.70468-2.0847s0.05872-0.85149 0.35234-0.85149 0.44004-1.9048-0.05872-1.9672c-0.93958-0.11745-0.79277-0.6166-0.79277-0.6166 0.4831-7.8144-2.1689-9.0012-4.363-9.7348l-0.042-0.105c-0.46979-1.1451-2.1141-1.9672-3.729-1.703-1.5515 0.25388-3.0215 0.72465-4.5145 0.57902l-0.12723-0.01703c-0.63696-2.0123-1.0588-1.7938-3.9445-1.8506-0.44062-0.0086-2.0553-0.10277-2.0553 0.53086 0-0.83603-0.92881-0.83603-0.92881-0.83603 0-0.88242-0.65007-4.3653-0.78944-5.1086-0.142-0.7434 0.091-1.0685-1.675-1.2077-4.359-0.3443-8.941-0.5162-13.134-0.5536l0.000391 0.15444c8.9203 0.11529 12.74 0.72445 12.74 0.72445 0.69666 1.8576 1.1146 5.155 0.88242 6.4087-0.23215 1.2539-0.46685 1.4789-1.904 1.3933-7.0126-0.41792-24.938-0.78944-37.524 0.41792 2.6007-2.7864 8.2665-6.8732 9.8454-7.7556 0 0 2.1828-1.2076 13.282-1.2076 0.62306 0 1.2246 0.00235 1.8052 0.00685l0.87361 0.01194-0.000392-0.15444c-7.069-0.06-13.099 0.2622-14.962 0.786 0 0-1.2074 0.27855-2.74 1.1146-0.97246 0.53047-5.5263 3.7152-8.8702 7.2913-8.4057 0.74305-15.325 3.4367-16.626 5.3407-0.70273 1.029-1.3003 3.7152-1.5791 5.1086 0 0-0.5107 0.27855-1.0216 0.32513-0.5109 0.04659-0.55729 2.2755-0.09298 2.4615 0.4645 0.18576 0.32513 0.92881 0.4645 2.2755s0.69666 1.2539 1.2539 1.6719c0.55729 0.41792 0.5109 1.3933 0.55729 1.997 0.03054 0.39815 0.80902 0.51364 1.3352 0.54593v-0.04267c-0.000587-0.05207-0.000978-0.10453-0.000978-0.15718 4.344 0.72406 33.884 0.28951 36.851 0.14485 2.9685-0.14485 8.0725-0.36193 9.5207-0.28951 1.4481 0.07243 1.3757-0.83251 1.4843-1.0136 0.10864-0.18106 1.8101-4.3078 1.2671-5.2129 0.543 0 0.76028-1.8823 0.543-2.4253-0.21708-0.543 1.3033-3.9458 3.5477-3.9458s2.7512 4.0181 2.7512 5.6833c0 0 1.3755 2.8961 1.3755 7.1676 0 0.47057 0.50678 0.57921 0.50678 0.57921s9.5569-0.18106 11.439-0.43436c1.8825-0.2533 2.172-2.5339 2.172-2.5339s0.68785-2.715 0.86872-4.0545c0.43436 0 0.61542-1.7738 0.47057-2.172-0.14485-0.39815 0.97736-2.3893 1.4479-2.6064 0.47057-0.21708 1.6652-0.39815 1.6652 2.6788 0.57921 0.97736 0.2533 5.4662-0.18106 5.611 0.03073 0.18439 0.05833 0.37074 0.0828 0.55846l0.0072 0.07477z"/>
   <path id="path84658" d="m40.552 27.226h-16.149s0.11745-2.9949 0.85149-3.8758l16.232-0.05872c-0.88066 0.9983-0.93468 3.9345-0.93468 3.9345z"/>
   <path id="path84662" d="m24.491 35.095c-1.468-0.881-1.263-1.967-1.41-4.404h16.266c0.14681 2.437-0.05872 3.5234 1.4094 4.4043h-16.266z"/>
   <g id="g53834" stroke-width=".097873" stroke="#fff" fill="none">
    <path id="path84668" d="m24.718 35.095c-1.459-0.881-1.255-1.967-1.401-4.404"/>
    <path id="path84672" d="m25.068 35.095c-1.459-0.881-1.255-1.967-1.401-4.404"/>
    <path id="path84676" d="m25.419 35.095c-1.46-0.881-1.255-1.967-1.401-4.404"/>
    <path id="path84680" d="m25.769 35.095c-1.459-0.881-1.255-1.967-1.401-4.404"/>
    <path id="path84684" d="m26.119 35.095c-1.459-0.881-1.255-1.967-1.4-4.404"/>
    <path id="path84688" d="m26.47 35.095c-1.459-0.881-1.255-1.967-1.401-4.404"/>
    <path id="path84692" d="m26.818 35.095c-1.459-0.881-1.255-1.967-1.401-4.404"/>
    <path id="path84696" d="m27.169 35.095c-1.46-0.881-1.255-1.967-1.401-4.404"/>
    <path id="path84700" d="m27.519 35.095c-1.459-0.881-1.255-1.967-1.401-4.404"/>
    <path id="path84704" d="m27.869 35.095c-1.459-0.881-1.255-1.967-1.401-4.404"/>
    <path id="path84708" d="m28.22 35.095c-1.46-0.881-1.255-1.967-1.401-4.404"/>
    <path id="path84712" d="m28.57 35.095c-1.459-0.881-1.255-1.967-1.401-4.404"/>
    <path id="path84716" d="m28.921 35.095c-1.46-0.881-1.255-1.967-1.401-4.404"/>
    <path id="path84720" d="m29.271 35.095c-1.459-0.881-1.255-1.967-1.401-4.404"/>
    <path id="path84724" d="m29.621 35.095c-1.459-0.881-1.255-1.967-1.401-4.404"/>
    <path id="path84728" d="m29.972 35.095c-1.46-0.881-1.255-1.967-1.401-4.404"/>
    <path id="path84732" d="m30.322 35.095c-1.459-0.881-1.255-1.967-1.401-4.404"/>
    <path id="path84736" d="m30.672 35.095c-1.459-0.881-1.254-1.967-1.401-4.404"/>
    <path id="path84740" d="m31.021 35.095c-1.459-0.881-1.255-1.967-1.401-4.404"/>
    <path id="path84744" d="m31.371 35.095c-1.459-0.881-1.255-1.967-1.401-4.404"/>
    <path id="path84748" d="m31.722 35.095c-1.46-0.881-1.255-1.967-1.401-4.404"/>
    <path id="path84752" d="m32.072 35.095c-1.459-0.881-1.255-1.967-1.401-4.404"/>
    <path id="path84756" d="m32.422 35.095c-1.459-0.881-1.255-1.967-1.401-4.404"/>
    <path id="path84760" d="m32.773 35.095c-1.459-0.881-1.255-1.967-1.401-4.404"/>
    <path id="path84764" d="m33.123 35.095c-1.459-0.881-1.255-1.967-1.401-4.404"/>
    <path id="path84768" d="m33.474 35.095c-1.46-0.881-1.255-1.967-1.401-4.404"/>
    <path id="path84772" d="m33.824 35.095c-1.459-0.881-1.255-1.967-1.401-4.404"/>
    <path id="path84776" d="m34.174 35.095c-1.459-0.881-1.255-1.967-1.401-4.404"/>
    <path id="path84780" d="m34.525 35.095c-1.46-0.881-1.255-1.967-1.401-4.404"/>
    <path id="path84784" d="m34.875 35.095c-1.459-0.881-1.255-1.967-1.401-4.404"/>
    <path id="path84788" d="m35.224 35.095c-1.46-0.881-1.255-1.967-1.401-4.404"/>
    <path id="path84792" d="m35.574 35.095c-1.459-0.881-1.255-1.967-1.401-4.404"/>
    <path id="path84796" d="m35.924 35.095c-1.459-0.881-1.255-1.967-1.401-4.404"/>
    <path id="path84800" d="m36.275 35.095c-1.46-0.881-1.255-1.967-1.401-4.404"/>
    <path id="path84804" d="m36.625 35.095c-1.459-0.881-1.255-1.967-1.401-4.404"/>
    <path id="path84808" d="m36.975 35.095c-1.459-0.881-1.254-1.967-1.4-4.404"/>
    <path id="path84812" d="m37.326 35.095c-1.459-0.881-1.255-1.967-1.401-4.404"/>
    <path id="path84816" d="m37.676 35.095c-1.459-0.881-1.255-1.967-1.401-4.404"/>
    <path id="path84820" d="m38.027 35.095c-1.46-0.881-1.255-1.967-1.401-4.404"/>
    <path id="path84824" d="m38.377 35.095c-1.459-0.881-1.255-1.967-1.401-4.404"/>
    <path id="path84828" d="m38.727 35.095c-1.459-0.881-1.255-1.967-1.4-4.404"/>
    <path id="path84832" d="m39.076 35.095c-1.459-0.881-1.255-1.967-1.401-4.404"/>
    <path id="path84836" d="m39.426 35.095c-1.459-0.881-1.255-1.967-1.401-4.404"/>
    <path id="path84840" d="m39.777 35.095c-1.46-0.881-1.255-1.967-1.401-4.404"/>
    <path id="path84844" d="m40.127 35.095c-1.459-0.881-1.255-1.967-1.401-4.404"/>
    <path id="path84848" d="m40.477 35.095c-1.459-0.881-1.255-1.967-1.401-4.404"/>
    <path id="path84854" d="m25.63 23.228c-0.4645 0.55729-0.85913 1.2307-0.9985 4.1101"/>
    <path id="path84858" d="m25.978 23.228c-0.4645 0.55729-0.85913 1.2307-0.9985 4.1101"/>
    <path id="path84862" d="m26.327 23.228c-0.4645 0.55729-0.85913 1.2307-0.9985 4.1101"/>
    <path id="path84866" d="m26.675 23.228c-0.4645 0.55729-0.85913 1.2307-0.9985 4.1101"/>
    <path id="path84870" d="m27.024 23.228c-0.46431 0.55729-0.85913 1.2307-0.9985 4.1101"/>
    <path id="path84874" d="m27.372 23.228c-0.4645 0.55729-0.85913 1.2307-0.9985 4.1101"/>
    <path id="path84878" d="m27.721 23.228c-0.4645 0.55729-0.85913 1.2307-0.9985 4.1101"/>
    <path id="path84882" d="m28.069 23.228c-0.4645 0.55729-0.85913 1.2307-0.9985 4.1101"/>
    <path id="path84886" d="m28.417 23.228c-0.4645 0.55729-0.85913 1.2307-0.9985 4.1101"/>
    <path id="path84890" d="m28.766 23.228c-0.4645 0.55729-0.85913 1.2307-0.9985 4.1101"/>
    <path id="path84894" d="m29.114 23.228c-0.4645 0.55729-0.85913 1.2307-0.9985 4.1101"/>
    <path id="path84898" d="m29.463 23.228c-0.4645 0.55729-0.85913 1.2307-0.9985 4.1101"/>
    <path id="path84902" d="m29.811 23.228c-0.4645 0.55729-0.85913 1.2307-0.9985 4.1101"/>
    <path id="path84906" d="m30.158 23.228c-0.4645 0.55729-0.85913 1.2307-0.9985 4.1101"/>
    <path id="path84910" d="m30.506 23.228c-0.4645 0.55729-0.85913 1.2307-0.9985 4.1101"/>
    <path id="path84914" d="m30.854 23.228c-0.4645 0.55729-0.85913 1.2307-0.9985 4.1101"/>
    <path id="path84918" d="m31.203 23.228c-0.46431 0.55729-0.85913 1.2307-0.9985 4.1101"/>
    <path id="path84922" d="m31.551 23.228c-0.4645 0.55729-0.85913 1.2307-0.9985 4.1101"/>
    <path id="path84926" d="m31.9 23.228c-0.4645 0.55729-0.85913 1.2307-0.9985 4.1101"/>
    <path id="path84930" d="m32.248 23.228c-0.4645 0.55729-0.85913 1.2307-0.9985 4.1101"/>
    <path id="path84934" d="m32.597 23.228c-0.4645 0.55729-0.85913 1.2307-0.9985 4.1101"/>
    <path id="path84938" d="m32.945 23.228c-0.4645 0.55729-0.85913 1.2307-0.9985 4.1101"/>
    <path id="path84942" d="m33.293 23.228c-0.4645 0.55729-0.85913 1.2307-0.9985 4.1101"/>
    <path id="path84946" d="m33.642 23.228c-0.46431 0.55729-0.85913 1.2307-0.9985 4.1101"/>
    <path id="path84950" d="m33.99 23.228c-0.4645 0.55729-0.85913 1.2307-0.9985 4.1101"/>
    <path id="path84954" d="m34.339 23.228c-0.4645 0.55729-0.85913 1.2307-0.9985 4.1101"/>
    <path id="path84958" d="m34.687 23.228c-0.4645 0.55729-0.85913 1.2307-0.9985 4.1101"/>
    <path id="path84962" d="m35.036 23.228c-0.4645 0.55729-0.85913 1.2307-0.9985 4.1101"/>
    <path id="path84966" d="m35.384 23.228c-0.4645 0.55729-0.85913 1.2307-0.9985 4.1101"/>
    <path id="path84970" d="m35.732 23.228c-0.4645 0.55729-0.85913 1.2307-0.9985 4.1101"/>
    <path id="path84974" d="m36.081 23.228c-0.4645 0.55729-0.85913 1.2307-0.9985 4.1101"/>
    <path id="path84978" d="m36.427 23.228c-0.4645 0.55729-0.85913 1.2307-0.9985 4.1101"/>
    <path id="path84982" d="m36.776 23.228c-0.4645 0.55729-0.85913 1.2307-0.9985 4.1101"/>
    <path id="path84986" d="m37.124 23.228c-0.4645 0.55729-0.85913 1.2307-0.9985 4.1101"/>
    <path id="path84990" d="m37.473 23.228c-0.46431 0.55729-0.85913 1.2307-0.9985 4.1101"/>
    <path id="path84994" d="m37.821 23.228c-0.4645 0.55729-0.85932 1.2307-0.9985 4.1101"/>
    <path id="path84998" d="m38.17 23.228c-0.4645 0.55729-0.85913 1.2307-0.9985 4.1101"/>
    <path id="path85002" d="m38.518 23.228c-0.4645 0.55729-0.85913 1.2307-0.9985 4.1101"/>
    <path id="path85006" d="m38.866 23.228c-0.4645 0.55729-0.85913 1.2307-0.9985 4.1101"/>
    <path id="path85010" d="m39.215 23.228c-0.4645 0.55729-0.85913 1.2307-0.9985 4.1101"/>
    <path id="path85014" d="m39.563 23.228c-0.46431 0.55729-0.85913 1.2307-0.9985 4.1101"/>
    <path id="path85018" d="m39.912 23.228c-0.4645 0.55729-0.85913 1.2307-0.9985 4.1101"/>
    <path id="path85022" d="m40.26 23.228c-0.4645 0.55729-0.85913 1.2307-0.9985 4.1101"/>
    <path id="path85026" d="m40.608 23.228c-0.4645 0.55729-0.85913 1.2307-0.9985 4.1101"/>
    <path id="path85030" d="m40.957 23.228c-0.4645 0.55729-0.85913 1.2307-0.9985 4.1101"/>
    <path id="path85034" d="m41.303 23.228c-0.4645 0.55729-0.85913 1.2307-0.9985 4.1101"/>
   </g>
   <path id="path85036" d="m57.057 8.4154v1.057l0.22021 0.00489c0.90278-0.00489 2.0148-0.011353 2.0148-0.011353s-0.41792 0.55729 0.27874 0.60368 8.7308 0.18576 10.774 0.41792c0 0 0.88242 2.5079 0.37152 4.3189 0 0-2.5543-0.13937-3.2507 0-0.69666 0.13918-0.9752 0.69666-0.88242 1.3467 0 0-0.69666-0.69666-3.0652-0.69666-1.4395 0-2.0898 0.60368-2.0898 0.60368s-0.88242-0.13937-1.3467 0.18576l-3.8503-0.04639v-0.5109s0-0.5107-1.0218-0.55729-4.737-0.04639-5.5729 0.09298c-0.83603 0.13918-0.92881 0.60368-0.92881 0.60368l-0.04639 0.41792c-8.8238 0-13.329 0.5109-13.329 0.5109 1.7183-1.904 7.1983-5.805 8.0808-6.2695 0 0-0.27855 0.60368 0.74305 0.5109 1.0218-0.09298 6.5483-0.69666 8.2201-0.78964 1.6719-0.09278 0.69666-0.69666 0.69666-0.69666l2.2667-0.03406c-0.512 0.5109-0.313 1.2461-0.313 1.2461l0.55964-0.0049s-0.07732-1.2367 0.56962-1.2367c0.04757 0 0.42888-0.00196 0.91061-0.0045v-1.0737c-0.58058-0.00431-1.1823-0.00685-1.8052-0.00685-11.099 0-13.282 1.2076-13.282 1.2076-1.5789 0.88242-7.2447 4.9692-9.8454 7.7556 12.585-1.2074 30.511-0.83603 37.524-0.41792 1.4372 0.08574 1.6719-0.13918 1.904-1.3931 0.23235-1.2539-0.18576-4.5511-0.88242-6.4089 0 0-4.01-0.65203-13.613-0.73444l-0.000392 0.00881z"/>
   <path id="path85040" d="m58.423 12.423c0.18674 0 0.33805-0.15131 0.33805-0.33805l0.10277-1.0856c0-0.18674-0.15131-0.33805-0.33805-0.33805l-5.5046 0.0734c-0.18674 0-0.33825 0.15131-0.33825 0.33805l-0.10277 1.0856c0 0.18674 0.15131 0.33805 0.33805 0.33805l5.5048-0.07341z"/>
   <path id="path85042" d="m73.764 18.545s-0.23489 0.91022 1.0277 0.91022 13.389 0.73405 13.389 0.73405c0.91022 0.08809 1.1158-0.6166 0.64596-1.7617-0.46979-1.1451-2.1141-1.9672-3.729-1.703-1.6149 0.26426-3.1417 0.76341-4.6979 0.55788 0 0 0.20553 0.82213-0.91022 0.96894-1.1157 0.14681-4.9915 0.58724-5.0796 0.11745 0.000195 0-0.14661 0.20553-0.64596 0.17617z"/>
   <path id="path85046" d="m46.052 36.34c0.14975 0 0.27111-0.12254 0.27111-0.27385l-0.1149-0.50561c0-0.15112-0.12136-0.27385-0.27111-0.27385h-3.3277c-0.14974 0-0.27111 0.12254-0.27111 0.27385l0.1149 0.50561c0 0.15112 0.12136 0.27385 0.27111 0.27385h3.331z"/>
   <path id="path85050" d="m41.593 36.34c0.14974 0 0.27111-0.12254 0.27111-0.27385l-0.1149-0.50561c0-0.15112-0.12136-0.27385-0.27111-0.27385h-3.331c-0.14974 0-0.27111 0.12254-0.27111 0.27385l0.1149 0.50561c0 0.15112 0.12136 0.27385 0.27111 0.27385h3.3316z"/>
   <path id="path85054" d="m37.134 36.34c0.14975 0 0.27111-0.12254 0.27111-0.27385l-0.1149-0.50561c0-0.15112-0.12136-0.27385-0.27111-0.27385h-3.3308c-0.14975 0-0.27111 0.12254-0.27111 0.27385l0.1149 0.50561c0 0.15112 0.12136 0.27385 0.27111 0.27385h3.3308z"/>
   <path id="path85058" d="m32.673 36.34c0.14974 0 0.27111-0.12254 0.27111-0.27385l-0.1149-0.50561c0-0.15112-0.12136-0.27385-0.27111-0.27385h-3.3296c-0.14974 0-0.27111 0.12254-0.27111 0.27385l0.1149 0.50561c0 0.15112 0.12136 0.27385 0.27111 0.27385h3.331z"/>
   <path id="path85062" d="m28.214 36.34c0.14975 0 0.27111-0.12254 0.27111-0.27385l-0.1149-0.50561c0-0.15112-0.12136-0.27385-0.27111-0.27385h-3.3308c-0.14974 0-0.27111 0.12254-0.27111 0.27385l0.1149 0.50561c0 0.15112 0.12136 0.27385 0.27111 0.27385h3.3308z"/>
   <path id="path85066" d="m23.754 36.34c0.14974 0 0.27111-0.12254 0.27111-0.27385l-0.1149-0.50561c0-0.15112-0.12136-0.27385-0.27111-0.27385h-3.331c-0.14974 0-0.27111 0.12254-0.27111 0.27385l0.1149 0.50561c0 0.15112 0.12136 0.27385 0.27111 0.27385h3.331z"/>
   <g id="g53937" stroke="#000" fill="none">
    <g id="g53939" stroke-width=".29362">
     <path id="path85068" d="m16.126 37.191s-1.7648 0.04639-1.8112-0.55729c-0.04639-0.60368 0-1.5791-0.55729-1.997-0.55729-0.41792-1.1146-0.32513-1.2539-1.6721-0.13937-1.3467 0-2.0898-0.4645-2.2755-0.4645-0.18576-0.41792-2.4149 0.09298-2.4613 0.5109-0.04639 1.0216-0.32513 1.0216-0.32513 0.27874-1.3931 0.87635-4.0793 1.5791-5.1086 1.3003-1.904 8.2199-4.5977 16.626-5.3407 3.3439-3.5759 7.8977-6.7607 8.8702-7.2913 1.5327-0.83603 2.74-1.1146 2.74-1.1146 2.9722-0.83544 16.339-1.16 28.097-0.23176 1.7646 0.13918 1.5325 0.46431 1.6719 1.2074 0.13937 0.74305 0.78944 4.2261 0.78944 5.1086l0.92881 0.83603c0-0.63363 1.6147-0.53967 2.0553-0.53086 2.9802 0.05872 3.3326-0.17617 4.0079 2.0553"/>
     <path id="path85070" d="m88.652 18.461c2.2315 0.73405 5.0796 1.7323 4.5804 9.8069 0 0-0.14681 0.49915 0.79277 0.6166 0.49876 0.06225 0.35234 1.9672 0.05872 1.9672s-0.32298 0.46979-0.35234 0.85149-0.2349 1.703-0.70468 2.0847c-0.46979 0.3817-1.703 1.0864-1.703 1.0864"/>
     <path id="path85074" d="m11.959 28.59 34.353-0.29362 19.379 0.11745"/>
     <line id="line85076" x2="88.799" y1="28.473" x1="71.27" y2="28.737"/>
     <line id="line85078" x2="93.644" y1="28.767" x1="91.442" y2="28.796"/>
    </g>
    <g id="g53946" stroke-width=".097873">
     <line id="line85080" y1="30.352" x2="21.325" x1="11.959" y2="30.272"/>
     <path id="path85082" d="m41.174 30.103 5.1381-0.04385 19.379 0.11745"/>
     <line id="line85084" y1="30.235" x2="88.799" x1="71.27" y2="30.499"/>
     <line id="line85086" y1="30.528" x2="93.644" x1="91.442" y2="30.558"/>
     <line id="line85088" y1="30.822" x2="21.383" x1="11.959" y2="30.742"/>
     <path id="path85090" d="m41.703 30.567 4.6102-0.03935 18.783 0.1012"/>
     <line id="line85092" y1="30.704" x2="88.799" x1="71.27" y2="30.969"/>
     <line id="line85094" y1="30.998" x2="93.644" x1="91.442" y2="31.027"/>
     <path id="path85096" d="m41.174 30.205 0.29362 2.76c0.11745 1.1745 0.52851 1.6443 1.2919 2.0553 0 0-0.76341-1.1745-0.88086-2.0553l-0.17617-2.3489"/>
     <path id="path85098" d="m21.325 30.272 0.29362 2.76c0.11745 1.1745 0.52851 1.6443 1.2919 2.0553"/>
     <path id="path85100" d="m13.251 27.593 33.061-0.117 19.379 0.117"/>
     <line id="line85102" y1="27.651" x2="88.799" x1="71.27" y2="27.915"/>
     <line id="line85104" y1="27.944" x2="93.203" x1="91.442" y2="27.974"/>
    </g>
   </g>
   <ellipse id="ellipse85110" rx="1.5579" ry="4.9602" cy="35.962" cx="89.333" fill="#fff"/>
   <path id="path85112" fill="#fff" d="m89.333 35.962"/>
   <ellipse id="ellipse85116" cy="39.783" cx="89.347" rx=".1198" ry=".63598"/>
   <path id="path85118" d="m89.347 39.783"/>
   <path id="path85122" d="m89.882 40.063c0.06127-0.08065 0.07654-0.40911 0.03426-0.73346-0.04228-0.32455-0.12606-0.52205-0.18713-0.44141-0.06127 0.08065-0.07654 0.40891-0.03426 0.73346 0.04209 0.32435 0.12606 0.52205 0.18713 0.44141z"/>
   <path id="path85124" d="m89.805 39.476"/>
   <path id="path85128" d="m90.334 39.082c0.04678-0.14896 0.02153-0.47116-0.05657-0.71936-0.0781-0.2484-0.1793-0.32885-0.22609-0.17989-0.04678 0.14896-0.02153 0.47116 0.05657 0.71936 0.0781 0.2484 0.1793 0.32885 0.22609 0.17989z"/>
   <path id="path85130" d="m90.193 38.632"/>
   <path id="path85134" d="m90.631 37.626c0.02525-0.19477-0.0368-0.46137-0.13859-0.59585-0.10198-0.13448-0.20495-0.08554-0.23039 0.10923-0.02545 0.19477 0.0368 0.46137 0.13859 0.59585s0.20514 0.08534 0.23039-0.10923z"/>
   <path id="path85136" d="m90.447 37.383"/>
   <ellipse id="ellipse85140" cy="35.917" cx="90.533" rx=".19966" ry=".38151"/>
   <path id="path85142" d="m90.533 35.917"/>
   <path id="path85146" d="m90.621 34.214c-0.02525-0.19457-0.12841-0.24351-0.23039-0.10903s-0.16404 0.40108-0.13859 0.59585c0.02525 0.19477 0.12841 0.24351 0.23039 0.10923 0.10179-0.13448 0.16384-0.40128 0.13859-0.59604z"/>
   <path id="path85148" d="m90.437 34.457"/>
   <path id="path85152" d="m90.314 32.777c-0.04678-0.14896-0.14798-0.06851-0.22589 0.17989-0.0781 0.2484-0.10335 0.5704-0.05657 0.71936s0.14798 0.06851 0.22589-0.17989 0.10335-0.5704 0.05657-0.71936z"/>
   <path id="path85154" d="m90.171 33.228"/>
   <path id="path85158" d="m89.856 31.826c-0.06127-0.08065-0.14505 0.11706-0.18713 0.4416-0.04228 0.32455-0.02682 0.65281 0.03426 0.73346 0.06127 0.08065 0.14485-0.11706 0.18713-0.44141 0.04228-0.32455 0.02701-0.65281-0.03426-0.73366z"/>
   <path id="path85160" d="m89.78 32.413"/>
   <ellipse id="ellipse85164" cy="32.139" cx="89.32" rx=".1198" ry=".63598"/>
   <path id="path85166" d="m89.32 32.139"/>
   <path id="path85170" d="m88.783 31.861c-0.06127 0.08065-0.07654 0.40911-0.03426 0.73365 0.04228 0.32435 0.12606 0.52205 0.18713 0.44141 0.06107-0.08065 0.07654-0.40911 0.03426-0.73346-0.042-0.325-0.126-0.523-0.187-0.442z"/>
   <path id="path85172" d="m88.86 32.448"/>
   <path id="path85176" d="m88.333 32.842c-0.04678 0.14896-0.02153 0.47116 0.05657 0.71936s0.1793 0.32885 0.22609 0.17969c0.04678-0.14896 0.02153-0.47116-0.05657-0.71936-0.0783-0.2482-0.1793-0.32866-0.22609-0.17969z"/>
   <path id="path85178" d="m88.474 33.292"/>
   <path id="path85182" d="m88.034 34.298c-0.02525 0.19477 0.0368 0.46137 0.13859 0.59585 0.10198 0.13428 0.20495 0.08554 0.23039-0.10923 0.02545-0.19477-0.0368-0.46137-0.13859-0.59585-0.101-0.135-0.205-0.086-0.23 0.109z"/>
   <path id="path85184" d="m88.22 34.541"/>
   <ellipse id="ellipse85188" cy="36.007" cx="88.134" rx=".19966" ry=".38151"/>
   <path id="path85190" d="m88.134 36.007"/>
   <path id="path85194" d="m88.045 37.71c0.02525 0.19477 0.1286 0.24351 0.23039 0.10923 0.10198-0.13448 0.16384-0.40128 0.13859-0.59585-0.025-0.194-0.128-0.243-0.23-0.109s-0.164 0.401-0.139 0.596z"/>
   <path id="path85196" d="m88.229 37.465"/>
   <path id="path85200" d="m88.353 39.147c0.04678 0.14896 0.14798 0.06851 0.22589-0.17989s0.10335-0.5704 0.05657-0.71936-0.14798-0.06851-0.22589 0.17989c-0.0781 0.2482-0.10335 0.5704-0.05657 0.71936z"/>
   <path id="path85202" d="m88.494 38.697"/>
   <path id="path85206" d="m88.811 40.098c0.06127 0.08065 0.14505-0.11706 0.18713-0.4416 0.04228-0.32455 0.02682-0.65281-0.03426-0.73346-0.06107-0.08065-0.14485 0.11706-0.18713 0.4416-0.04228 0.32455-0.02682 0.65301 0.03426 0.73346z"/>
   <path id="path85208" d="m88.887 39.511"/>
   <g id="g53995" stroke-width=".097873" stroke="#000" fill="none">
    <ellipse id="ellipse85212" cy="35.962" cx="89.333" rx="1.4587" ry="4.6447"/>
    <path id="path85214" d="m89.333 35.962"/>
    <ellipse id="ellipse85220" cy="34.435" cx="89.333" rx=".14916" ry=".47507"/>
    <path id="path85222" d="m89.333 34.435"/>
   </g>
   <path id="path85224" d="m89.333 33.962c0.06009 0 0.06655 1.0744-0.09885 0.82076-0.095-0.146-0.053-0.821 0.099-0.821z"/>
   <path id="path85230" d="m88.872 35.964c0.08241 0.01 0.1517-0.19457 0.15484-0.45667 0.0031-0.2621-0.06107-0.48271-0.14348-0.49269-0.08221-0.01-0.15151 0.19457-0.15483 0.45668-0.0031 0.2623 0.06127 0.4829 0.14348 0.49269z" stroke="#000" stroke-width=".097873" fill="none"/>
   <path id="path85232" d="m88.877 35.49" stroke="#000" stroke-width=".097873" fill="none"/>
   <path id="path85234" d="m88.883 35.015c0.06009 0.0072 0.05383 1.0817-0.10844 0.80843-0.094-0.157-0.044-0.826 0.108-0.808z"/>
   <path id="path85240" d="m89.009 37.63c0.08241 0.0072 0.15092-0.19966 0.15327-0.46176 0.0023-0.2623-0.06264-0.48075-0.14505-0.48799-0.08241-0.0072-0.15092 0.19966-0.15327 0.46176-0.0023 0.2623 0.06264 0.48075 0.14505 0.48799z" stroke="#000" stroke-width=".097873" fill="none"/>
   <path id="path85242" d="m89.014 37.154" stroke="#000" stroke-width=".097873" fill="none"/>
   <path id="path85244" d="m89.018 36.679c0.0599 0.0053 0.05716 1.0799-0.1059 0.81195-0.09415-0.15444-0.046-0.82526 0.1059-0.81195z"/>
   <path id="path85250" d="m89.568 37.706c0.08241 0.0082 0.15112-0.1979 0.15366-0.4602 0.0025-0.2621-0.06205-0.48134-0.14446-0.48936-0.08241-0.008-0.15112 0.19809-0.15366 0.4602-0.0027 0.2621 0.06205 0.48134 0.14446 0.48936z" stroke="#000" stroke-width=".097873" fill="none"/>
   <path id="path85252" d="m89.572 37.233" stroke="#000" stroke-width=".097873" fill="none"/>
   <path id="path85254" d="m89.576 36.757c0.06009 0.0059 0.05618 1.0805-0.10668 0.81078-0.094-0.155-0.045-0.826 0.107-0.811z"/>
   <path id="path85260" d="m89.786 36.136c0.08241 0.0014 0.14955-0.21023 0.14994-0.47272 0.000391-0.2623-0.06597-0.47625-0.14838-0.47742-0.08241-0.0014-0.14955 0.21023-0.14994 0.47273-0.000392 0.2623 0.06597 0.47605 0.14838 0.47742z" stroke="#000" stroke-width=".097873" fill="none"/>
   <path id="path85262" d="m89.786 35.663" stroke="#000" stroke-width=".097873" fill="none"/>
   <path id="path85264" d="m89.788 35.187c0.06009 0.000979 0.06499 1.0756-0.10022 0.81939-0.095-0.147-0.052-0.821 0.1-0.819z"/>
   <path id="path85268" d="m89.588 39.822s0.0055 0.37485-0.03739 0.49367c-0.04306 0.11882 0.17167-0.01703 0.13154-0.08339-0.04-0.066-0.094-0.41-0.094-0.41z"/>
   <path id="path85272" d="m90.034 39.217s0.04991 0.33981 0.02447 0.50189c-0.02525 0.16227 0.1566-0.22491 0.11158-0.23724-0.045-0.013-0.136-0.265-0.136-0.265z"/>
   <path id="path85276" d="m90.371 38.117s0.08711 0.2529 0.08319 0.43377c-0.0041 0.18087 0.11764-0.39873 0.07458-0.35528-0.043 0.044-0.158-0.078-0.158-0.078z"/>
   <path id="path85280" d="m90.551 36.688s0.11079 0.12743 0.129 0.2993c0.01801 0.17186 0.06068-0.51168 0.02603-0.4189-0.035 0.093-0.155 0.12-0.155 0.12z"/>
   <path id="path85284" d="m90.545 35.148s0.11764-0.01723 0.15503 0.1196c0.03719 0.13683-0.0053-0.54672-0.02623-0.41909-0.021 0.127-0.129 0.299-0.129 0.299z"/>
   <path id="path85288" d="m90.355 33.733s0.10668-0.15934 0.15758-0.07849c0.05089 0.08084-0.07066-0.49856-0.07458-0.35508-0.0037 0.14348-0.083 0.43358-0.083 0.43358z"/>
   <path id="path85292" d="m90.009 32.656s0.07947-0.27718 0.13624-0.26465c0.05696 0.01253-0.12528-0.37466-0.11158-0.23724 0.013 0.138-0.025 0.502-0.025 0.502z"/>
   <path id="path85296" d="m89.561 32.082s0.04013-0.35293 0.09396-0.41028c0.05403-0.05755-0.16071-0.1934-0.13154-0.08339s0.03758 0.49367 0.03758 0.49367z"/>
   <path id="path85300" d="m89.077 32.1s-0.0055-0.37485 0.03758-0.49367c0.04287-0.11901-0.17167 0.01703-0.13154 0.08339 0.04 0.066 0.094 0.41 0.094 0.41z"/>
   <path id="path85304" d="m88.633 32.707s-0.05011-0.33962-0.02466-0.50189-0.1566 0.22491-0.11158 0.23724 0.13624 0.26465 0.13624 0.26465z"/>
   <path id="path85308" d="m88.294 33.807s-0.08711-0.2529-0.08319-0.43358c0.0039-0.18067-0.11764 0.39873-0.07458 0.35508s0.15777 0.07849 0.15777 0.07849z"/>
   <path id="path85312" d="m88.114 35.236s-0.11079-0.12743-0.1288-0.2993c-0.0182-0.17186-0.06088 0.51168-0.02623 0.41909s0.15503-0.1198 0.15503-0.1198z"/>
   <path id="path85316" d="m88.12 36.776s-0.11764 0.01723-0.15503-0.1194c-0.03739-0.13683 0.0053 0.54672 0.02623 0.4189 0.02055-0.12782 0.1288-0.29949 0.1288-0.29949z"/>
   <path id="path85320" d="m88.31 38.192s-0.10668 0.15934-0.15758 0.07849c-0.05089-0.08084 0.07066 0.49856 0.07458 0.35508 0.0039-0.14329 0.083-0.43358 0.083-0.43358z"/>
   <path id="path85324" d="m88.656 39.268s-0.07947 0.27737-0.13624 0.26465c-0.05677-0.01253 0.12528 0.37446 0.11158 0.23724-0.013-0.137 0.025-0.502 0.025-0.502z"/>
   <path id="path85328" d="m89.104 39.84s-0.04013 0.35293-0.09396 0.41048c-0.05403 0.05735 0.16071 0.1934 0.13154 0.08319-0.03-0.111-0.038-0.494-0.038-0.494z"/>
   <g id="g54030" stroke-width=".097873" stroke="#000" fill="none">
    <path id="path85332" d="m89.118 39.515s0.09885-1.259 0.22589-1.259c0.14133 0 0.22589 1.259 0.22589 1.259"/>
    <path id="path85336" d="m89.561 39.507s-0.0599-1.2837 0.05735-1.4385c0.13056-0.17206 0.36017 0.8879 0.36017 0.8879"/>
    <path id="path85340" d="m89.97 38.959s-0.20964-1.113-0.1198-1.399c0.09983-0.31809 0.43945 0.38151 0.43945 0.38151"/>
    <path id="path85344" d="m90.281 37.955s-0.32748-0.77261-0.27894-1.1465c0.05402-0.41537 0.45178-0.18283 0.45178-0.18283"/>
    <path id="path85348" d="m90.449 36.647s-0.39541-0.31476-0.39541-0.71956c0-0.44963 0.39541-0.71936 0.39541-0.71936"/>
    <path id="path85352" d="m90.447 35.236s-0.40324 0.19105-0.45178-0.18283c-0.05403-0.41537 0.27874-1.1465 0.27874-1.1465"/>
    <path id="path85356" d="m90.275 33.934s-0.3496 0.66788-0.43945 0.3817c-0.09983-0.31809 0.1198-1.399 0.1198-1.399"/>
    <path id="path85360" d="m89.96 32.942s-0.24272 1.0429-0.36017 0.8881c-0.13056-0.17206-0.05735-1.4385-0.05735-1.4385"/>
    <path id="path85364" d="m89.549 32.409s-0.09885 1.259-0.22589 1.259c-0.14133 0-0.22609-1.259-0.22609-1.259"/>
    <path id="path85368" d="m89.104 32.417s0.06009 1.2837-0.05735 1.4385c-0.13056 0.17206-0.35998-0.8879-0.35998-0.8879"/>
    <path id="path85372" d="m88.697 32.965s0.20964 1.1128 0.1198 1.3988c-0.09983 0.31809-0.43945-0.38131-0.43945-0.38131"/>
    <path id="path85376" d="m88.384 33.969s0.32748 0.77241 0.27894 1.1465c-0.05403 0.41537-0.45178 0.18302-0.45178 0.18302"/>
    <path id="path85380" d="m88.218 35.277s0.39541 0.31456 0.3956 0.71936c0 0.44963-0.3956 0.71956-0.3956 0.71956"/>
    <path id="path85384" d="m88.22 36.688s0.40324-0.19124 0.45178 0.18263c0.05403 0.41557-0.27874 1.1465-0.27874 1.1465"/>
    <path id="path85388" d="m88.392 37.99s0.3494-0.66788 0.43945-0.3817c0.09983 0.31789-0.1198 1.399-0.1198 1.399"/>
    <path id="path85392" d="m88.707 38.982s0.24253-1.0429 0.35998-0.8881c0.13056 0.17206 0.05735 1.4385 0.05735 1.4385"/>
   </g>
   <g id="g54048" stroke="#000">
    <path id="path85394" stroke-width=".29362" fill="#fff" d="m56.346 26.274c0.56042 0 1.0147-0.45432 1.0147-1.0147l-0.14094-0.82448c0-0.56042-0.45432-1.0147-1.0147-1.0147h-10.761c-0.56022 0-1.085 0.31711-1.3669 0.90904l-0.38758 0.93018c0 0.56042 0.45432 1.0147 1.0147 1.0147h11.641z"/>
    <path id="path85396" stroke-width=".29362" fill="#fff" d="m22.382 26.556c0.56022 0 1.0145-0.45432 1.0145-1.0147l0.17617-0.82448c0-0.56042-0.45433-1.0147-1.0147-1.0147h-7.0609c-0.56042 0-1.0498 0-1.3319 0.59174l-0.45804 1.5646c-0.14094 0.59174 0.35234 0.6624 1.1204 0.69744h7.5544z"/>
    <path id="path85398" stroke-width=".19575" fill="none" d="m15.152 26.486s0.28187-2.0788 0.81039-2.7483"/>
    <path id="path85400" stroke-width=".19575" fill="none" d="m54.121 23.42c-0.28187 0.38758-0.63422 2.3959-0.63422 2.8892"/>
   </g>
   <g id="g54054" stroke="#000" fill="#fff">
    <path id="path85404" stroke-width=".29362" d="m50.611 32.826c0.28011 0 0.50737-0.22726 0.50737-0.50737v-0.84288c0-0.28031-0.22726-0.50737-0.50737-0.50737h-6.4616c-0.28031 0-0.50737 0.22726-0.50737 0.50737v0.84288c0 0.28011 0.22706 0.50737 0.50737 0.50737h6.4621z"/>
    <path id="path85406" stroke-width=".29362" d="m47.381 31.896"/>
    <path id="path85410" stroke-width=".19575" d="m62.978 30.039c0.09337 0 0.16893-0.07556 0.16893-0.16893v-0.68374c0-0.09337-0.07556-0.16893-0.16893-0.16893h-2.5878c-0.09337 0-0.16912 0.07575-0.16912 0.16893v0.68374c0 0.09337 0.07575 0.16893 0.16912 0.16893h2.5878z"/>
    <path id="path85412" stroke-width=".19575" d="m61.684 29.528"/>
    <path id="path85416" stroke-width=".29362" d="m19.612 32.826c0.22413 0 0.40578-0.22726 0.40578-0.50737v-0.84288c0-0.28031-0.18165-0.50737-0.40578-0.50737h-5.1698c-0.22413 0-0.40578 0.22726-0.40578 0.50737v0.84288c0 0.28011 0.18165 0.50737 0.40578 0.50737h5.1698z"/>
    <path id="path85418" stroke-width=".29362" d="m17.027 31.896"/>
   </g>
   <g id="g54062" stroke-width=".097873" fill="none">
    <g id="g54064" stroke="#000">
     <path id="path85420" d="m70.671 9.1411s0.644 0.027209 0.78494 0.37955 0.93547 4.143 0.63422 6.166c-0.24664 1.656-2.1493 1.1625-2.1493 1.1625"/>
     <path id="path85422" d="m73.527 15.132s0.11334 3.0562 0.28951 3.5495"/>
     <path id="path85424" d="m74.455 15.968-0.18126 1.9385c-0.1057 0.56375 0.35234 0.70468 0.35234 0.70468"/>
     <path id="path85426" d="m79.736 17.801-4.0519 0.31711c-0.35234 0-0.81039 0.31711-0.81039 0.31711"/>
    </g>
    <line id="line85428" y2="19.351" x2="85.479" stroke="#fff" stroke-linecap="round" y1="18.999" x1="76.706"/>
    <path id="path85430" stroke-linecap="round" d="m88.58 18.857c0.14094 0.35234 0.07047 0.66945-0.31711 0.66945h-1.9379c-0.42281 0-0.81039-0.88086-1.8674-1.0218" stroke="#fff"/>
   </g>
   <path id="path85432" d="m74.727 19.55 1.6501 0.09396 0.71643 0.83388c0.31711 0.49328 0.88086 2.3607 0.38758 2.4312-0.49328 0.07047-1.5679-2.4194-2.7659-3.0184-0.31711-0.1057 0.01174-0.3406 0.01174-0.3406z"/>
   <g id="g54073" stroke="#000">
    <path id="path85434" stroke-width=".097873" fill="none" d="m72.76 36.722 10.006-0.141c0.98656 0 1.8322-1.3389 2.0436-2.255 0.2114-0.91609 0.98656-3.453 0.98656-3.453 0.77515-0.07047 0.91609-3.0299 0-3.0299 0 0 0-7.0468-1.7617-8.1743"/>
    <path id="path85436" stroke-width=".097873" fill="none" d="m73.394 36.651c0.49328-0.70468 0.70468-2.4664 0.70468-3.1006v-2.7483c0.84562 0 0.70468-3.1006-0.07047-3.1006 0 0 0-7.6106-0.07047-8.879"/>
    <path id="path85440" stroke-width=".19575" fill="#ccc" d="m93.544 29.988c0.03739 0 0.06773-0.04855 0.06773-0.10825v-0.43749c0-0.0599-0.03034-0.10825-0.06773-0.10825h-1.0351c-0.03739 0-0.06773 0.04835-0.06773 0.10825v0.43749c0 0.0597 0.03034 0.10825 0.06773 0.10825h1.0351z"/>
    <path id="path85442" stroke-width=".19575" fill="#ccc" d="m93.027 29.661"/>
   </g>
   <g id="g54079" stroke-width=".097873" stroke="#000" fill="none">
    <path id="path85444" d="m43.656 32.141c-0.14094 0.70468 0.2114 1.057 0.70468 1.057h6.2717c4.0167 0 5.4261 0.28187 6.2012 0.91609 0.77515 0.63422-0.84562 0.35234-1.9026 0.91609s-2.0436 2.4664-2.0436 2.4664"/>
    <path id="path85446" d="m60.428 31.084s-0.28187 3.453 1.6208 5.2147"/>
    <line id="line85448" y1="35.021" x2="50.914" x1="42.76" y2="35.021"/>
    <line id="line85450" y1="34.96" x2="14.623" x1="22.234" y2="34.96"/>
    <path id="path85452" d="m23.643 27.49c0-1.5503 0.42281-3.7348 0.91609-4.0872 0.49328-0.35234 0.91609-0.56375 1.9026-0.56375 0 0 12.896-0.28187 14.023-0.14094 1.1275 0.14094 2.0436-0.14094 1.4094 1.057-0.63422 1.198-0.70468 3.7348-0.70468 3.7348"/>
    <path id="path85454" d="m70.575 16.92s-12.614 1.8322-16.067 5.5668"/>
    <path id="path85458" d="m56.341 16.497s-11.557 1.6912-14.164 6.4126"/>
    <path id="path85460" d="m45.277 16.638s-18.089 2.5329-20.154 6.2717"/>
   </g>
   <path id="path85464" stroke-width=".097873" d="m83.811 24.217c-0.07321 0-0.13252-0.12117-0.13252-0.27052l-0.07223-1.2344c0-0.14935 0.05931-0.27032 0.13252-0.27032h1.1216c0.07321 0 0.13252 0.12097 0.13252 0.27032l0.07223 1.2344c0 0.14935-0.05931 0.27052-0.13252 0.27052h-1.1216z" stroke="#000"/>
   <path id="path85466" d="m83.768 23.432c-0.07321 0-0.13252-0.06068-0.13252-0.13526l-0.04345-0.68765c0-0.07458 0.05931-0.13506 0.13252-0.13506h1.1216c0.07321 0 0.13252 0.06048 0.13252 0.13506l0.04346 0.68765c0 0.07458-0.05931 0.13526-0.13252 0.13526h-1.1216z" stroke="#000" stroke-width=".097873" fill="#fff"/>
   <g id="g54091" fill="none">
    <g id="g54093" stroke="#fff">
     <polygon id="polygon85470" points="143.97 92.088 147.39 86.508 142.89 82.458 137.04 86.058 137.31 91.728" transform="matrix(.19575 0 0 .19575 4.4993 8.1075)"/>
     <polyline id="polyline85472" points="137.31 91.728 141.45 87.048 143.97 92.088" transform="matrix(.19575 0 0 .19575 4.4993 8.1075)"/>
     <polyline id="polyline85474" points="137.04 86.058 141.45 87.048 142.89 82.638" transform="matrix(.19575 0 0 .19575 4.4993 8.1075)"/>
     <line id="line85476" stroke-width=".19575" y2="25.147" y1="25.041" x2="32.188" x1="33.35"/>
    </g>
    <path id="path85478" stroke-width=".097873" d="m73.241 36.5s0.82213-1.3506 2.0553-1.4681c1.2332-0.11745 8.8085-0.11745 9.5132 0.2349 0.70468 0.35234 1.4094 0.93958 1.4094 0.93958" stroke="#000"/>
   </g>
  </g>
 </g>
</svg>
