<?xml version="1.0" encoding="UTF-8" standalone="no"?>
<!-- Created with Inkscape (http://www.inkscape.org/) -->
<svg id="svg2" xmlns:rdf="http://www.w3.org/1999/02/22-rdf-syntax-ns#" xmlns="http://www.w3.org/2000/svg" height="45" width="67.5" version="1.1" xmlns:cc="http://creativecommons.org/ns#" xmlns:dc="http://purl.org/dc/elements/1.1/">
 <metadata id="metadata7">
  <rdf:RDF>
   <cc:Work rdf:about="">
    <dc:format>image/svg+xml</dc:format>
    <dc:type rdf:resource="http://purl.org/dc/dcmitype/StillImage"/>
    <dc:title/>
   </cc:Work>
  </rdf:RDF>
 </metadata>
 <g id="g8172">
  <rect id="rect2990" opacity="0" height="45" width="67.5" y="0" x="3.5527e-15"/>
  <path id="path8170" d="m31.5 33.542c-1.8472-0.0966-14.951-0.41349-19.8-0.4789-2.838-0.0382-5.376-0.12349-5.64-0.18934-0.92798-0.23151-1.9901-1.7189-2.3703-3.3194-0.13225-0.55676-0.25196-0.72218-1.0258-1.4175-1.5913-1.43-2.664-2.968-2.664-3.82 0-0.49735 0.43393-1.0193 0.84738-1.0193 0.19684 0 0.23904-0.04997 0.17735-0.21-0.0446-0.1155-0.11233-0.76168-0.15069-1.4359-0.0561-0.98534-0.03-1.3301 0.13288-1.7565 0.55627-1.4566 2.3063-2.3091 5.3277-2.5954 0.72467-0.06866 1.3801-0.19597 1.5365-0.29844 0.15-0.09828 0.65004-0.63044 1.1112-1.1826 1.0761-1.2884 1.7422-1.8691 2.7477-2.3956 1.5233-0.79755 2.8163-1.0121 6.99-1.1597 1.4991-0.05301 2.7881-0.16136 3.3-0.27739 1.4391-0.3262 3.5548-0.46094 8.34-0.53114 5.4547-0.08002 7.1919 0.02848 7.964 0.49739 0.27281 0.16569 1.522 1.1877 2.776 2.271l2.28 1.9698 0.0366-0.52814c0.0307-0.44345 0.0923-0.55696 0.38404-0.70782 0.41482-0.21451 0.52586-0.21864 1.317-0.04898 0.84584 0.1814 1.3581 0.62865 1.299 1.1342l-0.045 0.3854 0.84417 0.08405c0.46429 0.04622 3.2472 0.13063 6.1842 0.18756 5.7006 0.11051 6.4571 0.18284 8.2704 0.79076 1.6936 0.56778 2.8566 1.3906 4.1794 2.9569 1.6853 1.9955 1.8658 2.5282 1.4744 4.3504-0.48981 2.2804-0.50041 2.4199-0.24026 3.1601 0.12981 0.36936 0.23603 0.80129 0.23603 0.95984 0 0.65687-1.3987 1.5563-2.7583 1.7737-0.35008 0.056-0.55776 0.18347-0.78572 0.48233-0.30869 0.40472-0.92149 0.78079-1.7263 1.0594-0.36751 0.12723-0.0827 0.15575 2.1534 0.21566 1.5373 0.0412 2.7222 0.12645 2.937 0.21134l0.36 0.14229-0.29763 0.114c-0.47309 0.1812-4.3996 0.32804-12.602 0.4713-7.945 0.13875-21.648 0.23041-23.1 0.15451zm24.202-1.3069c-0.21899-0.0951-0.56586-0.29235-0.77082-0.43829l-0.37265-0.26536-7.0292 0.0189c-5.8497 0.0158-7.0351 0.0466-7.0642 0.18363-0.029 0.13617 0.77136 0.18031 4.62 0.25484 2.5603 0.0496 5.8161 0.15774 7.2351 0.24037 1.419 0.0826 2.85 0.15666 3.18 0.16452l0.6 0.0143-0.39815-0.17294zm-21.063-0.23648c1.6919-0.50245 2.8473-2.1754 3.0258-4.3812l0.0825-1.02 0.15904 0.80438 0.15904 0.80439 0.67747 0.043 0.67747 0.043-0.76643 0.0227-0.76643 0.0227 0.062 0.77228c0.0698 0.86876 0.46088 1.7954 0.85256 2.0198 0.19804 0.11345 2.1901 0.14727 8.5383 0.14499 12.541-0.005 17.114-0.35322 18.988-1.4479 0.61533-0.35948 0.79323-0.65999 0.69035-1.1662-0.1319-0.64897-0.34026-1.1629-0.47225-1.1648-0.0693-0.0008-0.0487-0.0506 0.0456-0.11036 0.14864-0.0941 0.14864-0.20171 0-0.80816-0.24904-1.0161-0.22973-2.6128 0.0348-2.8773 0.19503-0.19502 0.21956-0.19424 0.45 0.0143 0.24057 0.21771 0.24374 0.21512 0.24374-0.19885 0-0.47114-0.55122-1.6385-1.0505-2.2246-0.32015-0.37587-0.3449-0.38332-0.86953-0.26177-0.85611 0.19836-2.7553 0.16398-3.2903-0.05956-0.25246-0.10548-0.62793-0.19914-0.83437-0.20813-0.28252-0.0123-0.30857-0.0292-0.10534-0.06834 0.20372-0.03924 0.27-0.13491 0.27-0.3897 0-0.63147 0.99514-1.2921 2.2192-1.4732 0.31899-0.0472-0.60227-0.59098-1.7107-1.0098-1.7895-0.67608-2.6782-0.77266-8.0685-0.8768-2.739-0.05292-6.6-0.19329-8.58-0.31194-3.8242-0.22916-4.7031-0.1954-9.3 0.35723-1.224 0.14715-1.2411 0.1533-0.6 0.21513 0.363 0.03501-0.0519 0.044-0.92209 0.01998-1.9753-0.05453-4.0607 0.10547-7.2979 0.55993-1.386 0.19458-2.736 0.36227-3 0.37265-0.47552 0.0187-0.4744 0.01967 0.12 0.10445 0.3504 0.04998-0.40481 0.08241-1.8154 0.07795-2.1152-0.0067-2.4406 0.0176-2.6184 0.19539-0.47437 0.47438-1.1769 0.41996-1.2662-0.09809l-0.0618-0.35854-1.2591-0.0829c-0.6925-0.04559-2.3057-0.19986-3.5848-0.34282s-2.5481-0.22954-2.82-0.1924c-0.34003 0.04645-0.4194 0.03436-0.25431-0.03874 0.4075-0.18043-2.2083-0.13932-3.9957 0.06279-3.1961 0.36141-4.7541 1.0261-5.3187 2.2691-0.1564 0.34434-0.21922 0.76334-0.2166 1.445 0.004 0.9719 0.22628 2.5211 0.40336 2.8076 0.0531 0.086 0.42517 0.31168 0.82676 0.5016 0.54667 0.25853 0.75368 0.30831 0.82371 0.19807 0.0695-0.10938 0.094-0.1025 0.0954 0.0267 0.005 0.4802 0.21511-0.16617 0.33379-1.0272 0.25928-1.8812 0.8335-2.9871 1.8104-3.487 0.38471-0.19682 0.45604-0.27377 0.29305-0.31608-0.11849-0.03076 0.00055-0.06189 0.26455-0.06918 0.84389-0.0233 1.3247 0.18865 1.9134 0.84344 0.85207 0.9477 1.4903 2.4812 2.4021 5.772l0.19119 0.69 0.80665 0.0216 0.80664 0.0216-0.8919 0.0684c-0.83818 0.0642-0.89698 0.0875-0.97605 0.38502-0.18169 0.6837 0.36592 2.3882 0.92499 2.8792 0.19611 0.17221 0.88069 0.20567 5.683 0.27771 5.4402 0.0816 8.9296 0.21618 10.725 0.41365 1.0062 0.11065 1.4343 0.0514 1.4878-0.20608 0.0182-0.0874-0.0145-0.1296-0.0725-0.0938s-0.16732-0.0707-0.24297-0.23672c-0.19473-0.42739-0.16298-0.52591 0.055-0.17059 0.10122 0.165 0.1563 0.20888 0.12239 0.0975-0.28319-0.93027-0.3342-1.3239-0.26671-2.0581 0.0582-0.6339 0.0409-0.80924-0.0764-0.77063-0.0875 0.0288-0.18308 0.35113-0.22557 0.76061l-0.0738 0.71063 0.0177-0.81 0.0177-0.81h-3.0375-3.0375l0.2736-0.36994c0.2565-0.34684 0.27359-0.48362 0.27359-2.19v-1.8201l-0.43095-0.9c-0.60236-1.258-0.91352-1.5758-2.1798-2.2265-1.1807-0.60672-2.1806-1.2421-2.0929-1.3298 0.0676-0.06759 1.4359 0.4454 2.1229 0.79589 0.82026 0.41847 1.7799 1.4054 2.2243 2.2876 0.66347 1.3171 0.80154 1.9757 0.75643 3.6084-0.039 1.4137-0.0474 1.4522-0.37662 1.7351l-0.3367 0.28934h0.94753c0.52114 0 1.8472-0.0354 2.9467-0.0789 1.7148-0.0676 1.9994-0.10604 2.001-0.27 0.002-0.15302 0.0224-0.15867 0.105-0.0283 0.18431 0.29089 0.22892-0.0172 0.22336-1.5428-0.008-2.1523 0.38093-3.5495 1.3058-4.6929l0.32931-0.40711-0.45422 0.42c-0.24983 0.231-0.61053 0.69-0.80154 1.02-0.19103 0.33-0.34783 0.54307-0.34844 0.47349-0.002-0.21126 0.66221-1.1694 1.0933-1.5773 0.71458-0.67627 1.4579-0.93497 2.6856-0.93468 1.1824 0.00024 1.6838 0.18047 2.5025 0.89927 0.22505 0.19759 0.51005 0.36306 0.63334 0.3677 0.21669 0.0081 0.21677 0.01134 0.002 0.09565-0.20359 0.08012-0.20568 0.10045-0.0256 0.24989 0.28257 0.23452 0.96804 1.5001 1.3224 2.4417 0.38828 1.0316 0.38298 1.0946-0.0364 0.43323-1.0602-1.6718-2.9973-2.2602-4.6773-1.4207-3.0553 1.5268-3.3271 6.6713-0.45446 8.6019 0.95888 0.64444 1.8141 0.77693 2.9115 0.45104zm-1.819-0.297c-0.14093-0.0578 0.082-0.0725 0.54-0.0354 0.429 0.0348 0.8025 0.0829 0.83 0.10697 0.10109 0.0885-1.1378 0.0237-1.37-0.0717zm1.5-0.0299c0.033-0.0325 0.24777-0.12255 0.47726-0.20015s0.36449-0.0894 0.3-0.0263c-0.0645 0.0631-0.27926 0.15319-0.47726 0.20014-0.198 0.047-0.333 0.0588-0.3 0.0263zm-2.4763-0.43683c-0.25976-0.18818-0.62724-0.52568-0.81662-0.75-0.4092-0.48472-0.90752-1.5103-0.89788-1.8479 0.004-0.132 0.0752-0.024 0.15866 0.24 0.33612 1.0628 0.89884 1.8246 1.7433 2.3602 0.29472 0.18691 0.47938 0.33983 0.41036 0.33983-0.069 0-0.33803-0.15396-0.5978-0.34213zm3.6763-0.14099c0.24997-0.21599 0.26002-0.24608 0.0602-0.18041-0.79234 0.26049-1.425 0.32077-1.9579 0.18657-0.65544-0.16504-0.86237-0.31134-0.86237-0.6097 0-0.19498 0.73705-0.88891 1.2-1.1298 0.16398-0.0853-0.52763 0.53907-0.93528 0.84437-0.19128 0.14326-0.15789 0.54782 0.051 0.61735 0.0746 0.0249 0.16713-0.0802 0.20559-0.23338 0.1071-0.42671 0.73739-0.95876 1.2443-1.0503l0.45447-0.0821-0.42-0.12893c-0.29403-0.0903-0.34226-0.13217-0.16078-0.13974 0.40405-0.0169 1.4566 0.87664 1.5024 1.2754l0.0383 0.3338 0.35347-0.46209c0.31912-0.41719 0.33361-0.47321 0.14916-0.57644-0.24648-0.13794-0.68669-0.96732-0.67232-1.2667 0.007-0.14455 0.0402-0.11643 0.10181 0.086 0.14715 0.48372 0.48427 1.0792 0.61096 1.0792 0.15748 0 0.14141-0.12229-0.063-0.48-0.39581-0.69241-0.0941-2.2304 0.52227-2.6621 0.12401-0.0869 0.21923-0.19393 0.2116-0.23793-0.008-0.044 0.0226-0.11645 0.0671-0.161 0.13436-0.13435 0.25442 0.99802 0.18592 1.7535-0.10908 1.203-1.1254 2.9674-1.9366 3.3619-0.20171 0.0981-0.19206 0.0714 0.0497-0.13747zm-19.71-0.56664c1.0065-0.0201 2.6535-0.0201 3.66 0s0.183 0.0365-1.83 0.0365-2.8365-0.0164-1.83-0.0365zm-4.305-0.32291c-0.46276-0.31446-0.83099-0.94918-0.81535-1.4055 0.006-0.19492 0.053-0.13164 0.15 0.20509 0.27405 0.95091 0.70269 1.2903 1.7484 1.3842l0.79199 0.0711-0.72214 0.0189c-0.58735 0.0154-0.80255-0.0358-1.1528-0.27379zm10.199 0.0779c0.22021-0.1181 0.47395-0.3476 0.56387-0.51 0.0899-0.1624 0.16541-0.22244 0.16774-0.13342 0.006 0.21842-0.69244 0.85815-0.93656 0.85815-0.10749 0-0.0153-0.0966 0.20495-0.21473zm9.817-0.17527c-0.32443-0.43473-0.56175-0.86362-0.56004-1.0121 0.0006-0.0538 0.16149 0.18172 0.35749 0.52348 0.42055 0.73326 0.56554 0.8459 0.79433 0.6171 0.14657-0.14656 0.11029-0.28616-0.2639-1.0155-0.34897-0.68017-0.43727-0.99165-0.45143-1.5925-0.0174-0.73928-0.021-0.74645-0.34128-0.70043-0.17802 0.0256-0.29633 0.002-0.26292-0.0518 0.12085-0.19554 0.55379-0.0911 1.0567 0.25492 0.75193 0.51733 0.94724 0.8746 0.88545 1.6197-0.0581 0.70068-0.51341 1.7471-0.76018 1.7471-0.0898 0-0.29416-0.17551-0.45423-0.39zm16.149 0.0602c1.4355-0.0191 3.7845-0.0191 5.22 0s0.261 0.0348-2.61 0.0348-4.0455-0.0157-2.61-0.0348zm-3.54-0.11481c0.1485-0.0286 0.3915-0.0286 0.54 0s0.027 0.052-0.27 0.052-0.4185-0.0234-0.27-0.052zm12.775-0.004c0.44262-0.023 1.1986-0.0232 1.68-0.00036 0.48139 0.0228 0.11925 0.0417-0.80475 0.0418-0.924 0.00024-1.3179-0.0185-0.87525-0.0415zm-14.005-0.092c-0.066-0.0233-0.525-0.10803-1.02-0.1884-0.495-0.0804-0.846-0.16354-0.78-0.1848 0.066-0.0213 0.714 0.0627 1.44 0.18666 0.726 0.12394 1.131 0.22611 0.9 0.22707-0.231 0.0008-0.474-0.0173-0.54-0.0406zm17.554-0.0274c0.34872-0.0243 0.88872-0.0241 1.2 0.0006 0.31129 0.0246 0.026 0.0445-0.63402 0.0442-0.66-0.00036-0.91469-0.0205-0.56598-0.0448zm2.276-0.1182c0.2145-0.0266 0.5655-0.0266 0.78 0s0.039 0.0484-0.39 0.0484-0.6045-0.0218-0.39-0.0484zm-34.401-0.22319c0.006-0.1398 0.0342-0.16824 0.0725-0.0725 0.0346 0.0866 0.0304 0.19012-0.009 0.23-0.0398 0.0399-0.0682-0.031-0.063-0.1575zm35.781 0.107c0.1155-0.0302 0.3045-0.0302 0.42 0s0.021 0.0549-0.21 0.0549-0.3255-0.0247-0.21-0.0549zm0.78-0.11676c0.0825-0.0333 0.2175-0.0333 0.3 0s0.015 0.0605-0.15 0.0605-0.2325-0.0272-0.15-0.0605zm-24.36-0.12c0.0825-0.0333 0.2175-0.0333 0.3 0s0.015 0.0606-0.15 0.0606-0.2325-0.0272-0.15-0.0606zm8.6366-0.091c-0.56321-0.15148-1.1666-0.58623-1.1665-0.84049 0.00004-0.0897-1.2547-0.12787-4.11-0.1251l-4.1101 0.004 4.08-0.064 4.08-0.064 0.0382-0.46658 0.0382-0.46659 0.74177 0.0617c0.40797 0.0339 2.3348 0.0254 4.2818-0.019s3.6075-0.0589 3.69-0.0322c0.0977 0.0315 0.14343 0.26344 0.13115 0.66556l-0.0189 0.61716-0.0711-0.6c-0.0676-0.56989-0.0882-0.59879-0.41167-0.57597-0.43821 0.0309-0.67948 0.23544-0.67948 0.57597 0 0.14883-0.081 0.33785-0.18004 0.42003-0.25358 0.21045-6.346 0.33104-6.9037 0.13665-0.46284-0.16134-0.5765-0.10209-0.34338 0.17901 0.44206 0.53303 0.81116 0.5807 5.0271 0.6493l4.02 0.0654-3.78 0.0167c-2.7481 0.0122-3.9366-0.0254-4.3534-0.13752zm16.833-0.07c0.363-0.13361 0.7337-0.33677 0.82377-0.45146 0.12038-0.15329 0.15045-0.16085 0.11347-0.0286-0.0581 0.20781-0.71266 0.55389-1.2372 0.65413-0.198 0.0378-0.063-0.0406 0.3-0.17413zm-43.56-0.0238c0-0.30865-0.47327-0.80692-0.87755-0.92389-0.21035-0.0609-0.28278-0.11552-0.16096-0.12147 0.35168-0.0172 0.89561 0.36419 1.0496 0.73589 0.0777 0.18754 0.10698 0.37525 0.0651 0.41714-0.0418 0.0419-0.0762-0.006-0.0762-0.10767zm17.16 0.0238c-0.23755-0.0761-0.25004-0.0961-0.06-0.0961 0.132 0 0.375 0.0433 0.54 0.0961 0.23755 0.0761 0.25004 0.0961 0.06 0.0961-0.132 0-0.375-0.0432-0.54-0.0961zm18.99 0.0314c0.3795-0.0238 1.0005-0.0238 1.38 0s0.069 0.0433-0.69 0.0433-1.0695-0.0194-0.69-0.0433zm2.8173-0.11793c0.21302-0.0265 0.59102-0.027 0.84-0.0008 0.24897 0.026 0.0746 0.0477-0.38733 0.0482-0.462 0.00048-0.6657-0.0207-0.45267-0.0472zm-22.557-0.112c0.0825-0.0333 0.2175-0.0333 0.3 0s0.015 0.0605-0.15 0.0605-0.2325-0.0272-0.15-0.0605zm24.45-0.0485c0.78058-0.1297 1.3718-0.72263 1.3963-1.4003 0.01-0.26921 0.0371-0.3445 0.0678-0.18631 0.0431 0.2228 0.11283 0.2566 0.43366 0.2104l0.38225-0.055-0.36 0.11713c-0.22588 0.0735-0.45839 0.29074-0.62411 0.58313-0.30021 0.5297-0.89469 0.86586-1.494 0.84482-0.32918-0.0116-0.29334-0.0322 0.19814-0.11382zm-25.108-0.0752c0.11675-0.0304 0.27875-0.0284 0.36 0.005 0.0812 0.0329-0.0143 0.0578-0.21229 0.0553-0.198-0.002-0.26447-0.0294-0.14771-0.0598zm-4.5419-0.26312c-0.44236-0.26976-0.77571-0.91851-0.75628-1.4719 0.0123-0.35096 0.026-0.33145 0.10805 0.15412 0.14663 0.86791 0.64238 1.424 1.2694 1.424 0.32981 0 0.87997-0.35873 1.0605-0.69151 0.098-0.18067 0.1804-0.27301 0.18305-0.20519 0.0146 0.37576-0.79288 1.0173-1.2792 1.0162-0.11878-0.00024-0.38228-0.10187-0.58557-0.22583zm23.35 0.107c-0.12258-0.0782-0.0307-0.0908 0.28793-0.0395l0.46793 0.0752-0.0814-0.61357c-0.12853-0.96893 0.005-1.0151 3.5406-1.2248 1.0973-0.065 2.2527-0.083 2.5675-0.0398l0.57244 0.0785-0.40594 0.19167c-0.22327 0.10543-0.42351 0.28291-0.44498 0.39441-0.0314 0.16298 0.0742 0.21161 0.53843 0.24798l0.57747 0.0453-0.666 0.0216c-0.3663 0.0119-0.72609 0.0817-0.79953 0.15516-0.0855 0.0855-1.0649 0.15658-2.724 0.19764l-2.5905 0.0641v0.28237c0 0.22847-0.063 0.28201-0.33 0.28052-0.1815-0.0008-0.411-0.0535-0.51-0.1166zm-26.345-0.89694c-0.0464-0.37158-0.0585-0.70152-0.0268-0.73322s0.0936 0.24841 0.13756 0.62245c0.044 0.37403 0.056 0.70398 0.0268 0.73321-0.0292 0.0292-0.0911-0.25087-0.13756-0.62244zm-19.708 0.34593c0.11393-0.11894 0.23297-0.19044 0.26455-0.15887 0.0316 0.0316-0.0617 0.1289-0.20715 0.21627-0.25276 0.15179-0.25531 0.14923-0.0574-0.0574zm19.071-0.77877c-0.0166-0.81738 0.26588-2.2674 0.41306-2.1203 0.0303 0.0303-0.007 0.21118-0.0843 0.40183-0.0767 0.19066-0.17794 0.85965-0.2249 1.4866l-0.0854 1.14-0.0185-0.90822zm4.2595 0.67437c0.20788-0.0904 0.43574-0.26383 0.50635-0.38529 0.0706-0.12148 0.13003-0.15728 0.13204-0.0796 0.005 0.1894-0.57957 0.6399-0.82253 0.63401-0.1066-0.002-0.0238-0.0787 0.18414-0.16915zm-14.448-0.033c0.2475-0.0259 0.6525-0.0259 0.9 0s0.045 0.047-0.45 0.047-0.6975-0.0212-0.45-0.047zm13.659-0.22877c-0.33893-0.43088-0.31581-0.91796 0.063-1.3271l0.31173-0.33669-0.25173 0.34618c-0.31945 0.43932-0.32054 0.91396-0.003 1.3176 0.13679 0.1739 0.22171 0.31619 0.18871 0.31619s-0.17192-0.14229-0.30871-0.31619zm2.1063-0.0588c-0.0413-0.20624-0.075-0.54926-0.075-0.76225 0-0.56688-0.45442-1.1672-1.0227-1.3509-0.45864-0.14834-0.46119-0.15192-0.0652-0.0917 0.76218 0.11597 1.1322 0.65793 1.2493 1.8298 0.0801 0.80174 0.0366 0.99028-0.0864 0.375zm-22.237 0.16517c1.1097-0.0198 2.8917-0.0198 3.96 0.00008 1.0683 0.0198 0.16038 0.0361-2.0176 0.0361-2.178-0.00004-3.0521-0.0163-1.9424-0.0361zm29.062-0.431c-0.74173-0.24242-1.0131-0.42172-1.266-0.83644-0.70709-1.1596 0.42618-2.3851 2.2178-2.3981 1.2055-0.009 1.8414 0.48194 1.9538 1.5075 0.0651 0.5946-0.27468 1.2006-0.86595 1.5444-0.49557 0.28815-1.4542 0.37401-2.0396 0.18267zm1.9715-0.37439c0.66306-0.34288 0.92146-1.2631 0.55414-1.9734-0.26048-0.50372-1.1147-0.79883-1.9498-0.6736l-0.54043 0.081 0.24986 0.26597c0.25553 0.27199 0.56618 1.0042 0.4678 1.1025-0.0301 0.0301-0.11953-0.16192-0.19884-0.42661-0.0793-0.26469-0.27553-0.56732-0.43607-0.67251-0.27263-0.17863-0.3199-0.17393-0.71656 0.0712-1.4834 0.91683-0.34471 2.623 1.6419 2.4601 0.30995-0.0254 0.72754-0.13103 0.92797-0.23467zm-1.9934-0.19857c0.12-0.0698 0.32229-0.29765 0.44955-0.50635 0.12726-0.20871 0.23158-0.31611 0.23183-0.23867 0.0006 0.19768-0.59177 0.87996-0.76021 0.87556-0.0766-0.002-0.0411-0.0607 0.0788-0.13054zm-6.6381 0.47351c-0.00012-0.2492 0.71544-1.2005 0.9599-1.2762 0.099-0.0306 0.0376 0.0588-0.13652 0.19869-0.17409 0.13992-0.43055 0.48474-0.56991 0.76629-0.13935 0.28153-0.25343 0.42158-0.25347 0.31121zm30.03 0.0579c0.1155-0.0302 0.3045-0.0302 0.42 0s0.021 0.0549-0.21 0.0549-0.3255-0.0247-0.21-0.0549zm-47.166-0.12654c0.57417-0.0219 1.5462-0.0221 2.16-0.00024 0.61384 0.0218 0.14407 0.0398-1.0439 0.0399-1.188 0.00012-1.6902-0.0178-1.1161-0.0397zm16.295-0.194c0-0.15611-0.11328-0.4396-0.25173-0.63l-0.25173-0.34619 0.31173 0.33669c0.26531 0.28655 0.43891 0.92331 0.25173 0.92331-0.033 0-0.06-0.12772-0.06-0.28381zm-22.529-0.23143c-0.13158-0.22301-0.33349-0.54932-0.44868-0.72512s-0.18387-0.31964-0.15262-0.31964c0.0948 0 0.9522 1.3386 0.89438 1.3964-0.0296 0.0296-0.16149-0.12863-0.29308-0.35165zm1.5534 0.30598c0.57417-0.0219 1.5462-0.0221 2.16-0.00024 0.61384 0.0218 0.14407 0.0398-1.0439 0.0399-1.188 0.00012-1.6902-0.0178-1.1161-0.0397zm33.992-0.27756c-0.17741-0.28707 0.0842-0.71482 0.63541-1.0388l0.56881-0.33436 3.8604-0.04c3.7812-0.0392 3.8631-0.035 3.9912 0.20439 0.0719 0.13439 0.11673 0.42235 0.0996 0.63989-0.0265 0.33551 0.0118 0.40165 0.25262 0.43578 0.15611 0.0222 0.34242-0.0183 0.414-0.0899 0.0716-0.0716 0.29486-0.12281 0.49616-0.11382 0.3191 0.0142 0.32756 0.0226 0.066 0.065-0.165 0.0267-0.4103 0.10354-0.5451 0.17062-0.16108 0.0802-0.44905 0.083-0.84 0.008-0.3272-0.0625-0.47925-0.11957-0.33791-0.12695 0.50714-0.0265 0.50872-1.0934 0.002-1.0934-0.43387 0-0.79861 0.33195-0.79861 0.7268v0.3532h-1.1806c-0.64933 0-2.4178 0.0405-3.93 0.09l-2.7494 0.09 2.7 0.0634 2.7 0.0634-2.6629 0.0266c-1.769 0.0176-2.6892-0.0161-2.7413-0.10029zm6.3386-0.082c0.38192-0.0239 0.97592-0.0237 1.32 0.00048 0.34409 0.0242 0.0316 0.0437-0.69438 0.0434-0.726-0.00024-1.0075-0.02-0.62562-0.0439zm-26.047-0.39119c0-0.231 0.0247-0.3255 0.0549-0.21s0.0302 0.3045 0 0.42-0.0549 0.021-0.0549-0.21zm4.7726 0.1767c-0.0008-0.28247 0.6378-1.0044 0.89625-1.0129 0.0642-0.002-0.008 0.0835-0.16028 0.19018-0.15234 0.10671-0.38016 0.36321-0.50625 0.57-0.1261 0.2068-0.22947 0.32051-0.22972 0.2527zm26.549-0.146c0.3795-0.0238 1.0005-0.0238 1.38 0s0.069 0.0433-0.69 0.0433-1.0695-0.0194-0.69-0.0433zm-1.8299-0.53424c-0.00007-0.24361 0.0598-0.47997 0.1331-0.52526 0.19307-0.11932 5.2492-0.41794 5.7468-0.33941 0.7456 0.11768 0.80857 0.17343 0.39418 0.34901-0.23956 0.10151-0.41454 0.27793-0.46159 0.46539-0.068 0.27085-0.14557 0.30632-0.75418 0.34486-0.52562 0.0333-0.44869 0.0477 0.34159 0.064 1.2252 0.0253 1.4935-0.0356 1.6582-0.37609 0.069-0.14278 0.12923-0.20241 0.13369-0.13252 0.005 0.0699-0.0686 0.23189-0.16236 0.36-0.16186 0.22117-0.3437 0.23293-3.5999 0.23293h-3.4294l-0.00012-0.44292zm-23.663 0.18095c0.0866-0.0346 0.19012-0.0304 0.23 0.009 0.0398 0.0398-0.031 0.0682-0.1575 0.063-0.13979-0.006-0.16822-0.0342-0.0725-0.0725zm-3.1935-0.30203c-0.0792-0.0792-0.144-0.23063-0.144-0.33651 0-0.3231 0.64619-1.2341 1.2563-1.7711 0.31763-0.27959 0.52402-0.50835 0.45863-0.50835-0.2724 0-1.1339 0.75773-1.5297 1.3454-0.23387 0.34729-0.42523 0.58789-0.42523 0.53466 0-0.18677 0.71654-1.1358 1.1063-1.4652 0.5162-0.43629 1.3552-0.80345 1.6885-0.73889 0.20841 0.04037 0.1881 0.05651-0.0948 0.07533-0.34082 0.02267-0.34553 0.02977-0.0883 0.13312 0.38032 0.15279 0.54132 0.65886 0.44844 1.4095-0.0966 0.78037-0.43234 1.1999-1.0802 1.3495-0.67399 0.15565-1.4258 0.14274-1.596-0.0274zm0.87066-0.40973c0.0886-0.47242 1.1048-1.6063 1.4396-1.6063 0.10383 0 0.18571-0.10269 0.18571-0.23292 0-0.26766-0.048-0.30448-0.54-0.41413-0.26301-0.05862-0.3115-0.04742-0.18 0.04158 0.099 0.06702 0.11837 0.12263 0.043 0.12365-0.2553 0.0034-1.3202 1.064-1.6023 1.5959-0.336 0.63337-0.26578 0.92595 0.22223 0.92595 0.30758 0 0.36036-0.053 0.43178-0.43373zm-3.622-0.0463c0-0.297 0.0234-0.4185 0.052-0.27s0.0286 0.3915 0 0.54-0.052 0.027-0.052-0.27zm8.9768 0.33c-0.0103-0.22895-0.1911-0.28152-0.30947-0.09-0.0408 0.066-0.21948 0.11361-0.39708 0.1058-0.31986-0.0141-0.31951-0.0149 0.0371-0.0908 0.49114-0.10447 0.51-0.42671 0.0659-1.1266-0.41033-0.64672-1.3214-1.2884-1.8294-1.2884-0.29596 0-0.33867 0.04699-0.35448 0.39l-0.018 0.39-0.0523-0.35408c-0.0362-0.24494 0.0134-0.40214 0.16091-0.51 0.19336-0.14139 0.18035-0.15744-0.1397-0.17226-0.26838-0.01242-0.29038-0.02852-0.0919-0.06718 0.44364-0.08638 1.4356 0.43226 2.0184 1.0554 0.54538 0.58305 1.0773 1.5865 0.97378 1.8369-0.0298 0.0722-0.0586 0.0368-0.0638-0.0787zm-25.901-0.72c-0.53321-0.84568-0.90088-1.53-0.82205-1.53 0.029 0 0.24492 0.3375 0.4798 0.75 0.23487 0.4125 0.54183 0.9255 0.68211 1.14 0.14029 0.2145 0.2276 0.39 0.19404 0.39-0.0336 0-0.27382-0.3375-0.5339-0.75zm24.186 0.44709c-0.35057-0.19369-1.1241-1.2279-1.0065-1.3455 0.0394-0.0394 0.0728-0.0221 0.0742 0.0384 0.002 0.0605 0.10827 0.245 0.23734 0.41l0.23466 0.3-0.11733-0.41921c-0.0646-0.23056-0.11734-0.57327-0.11734-0.76158v-0.34237l0.63 0.35385c0.61146 0.34345 1.41 1.2069 1.41 1.5246 0 0.0862-0.1215 0.18562-0.27 0.22098-0.1485 0.0354-0.378 0.0949-0.51 0.13235-0.132 0.0374-0.3863-0.0128-0.5651-0.11158zm29.21-0.009c-0.0851-0.0923-0.10179-0.1679-0.0371-0.1679 0.12461 0 0.305 0.22827 0.23383 0.29588-0.0231 0.0219-0.11164-0.0356-0.19675-0.12798zm-26.706-0.868c-0.42274-0.46712-0.0792-0.86055 0.75138-0.86055 0.81123 0 1.2137 0.45915 0.78145 0.89143-0.27345 0.27346-1.2757 0.25327-1.5328-0.0309zm-9.6483-0.32055c0.002-0.264 0.0259-0.35787 0.0546-0.2086s0.0276 0.36527-0.002 0.48c-0.03 0.11473-0.0535-0.007-0.0522-0.2714zm-25.18-0.842c0.0374-1.1417 0.22749-1.6905 0.88481-2.5538 0.30457-0.40004 1.3009-1.0671 1.4184-0.94959 0.035 0.03499-0.0563 0.10169-0.20288 0.14821-0.4403 0.14-1.313 1.028-1.6357 1.665-0.2166 0.428-0.3307 0.907-0.4013 1.685l-0.0987 1.0876 0.0354-1.0821zm25.289 0.12213c-0.002-0.132 0.0429-0.348 0.0996-0.48 0.1314-0.30579 0.1314 0.0097 0 0.42-0.0772 0.24117-0.0968 0.25293-0.0996 0.06zm-18.386-0.671c-0.138-0.27-0.2303-0.512-0.2051-0.537 0.0251-0.02515 0.16322 0.19608 0.30681 0.49163 0.32703 0.67314 0.23861 0.71289-0.10175 0.04574zm47.059-0.176c-0.20829-0.17526-0.43339-0.42084-0.50023-0.54572-0.10833-0.20242-0.0787-0.22528 0.27271-0.21072 0.28186 0.01169 0.31727 0.03116 0.12422 0.06834-0.1485 0.0286-0.27 0.09745-0.27 0.15299 0 0.15396 0.71542 0.72232 0.90921 0.72232 0.20079 0 0.24333-0.78403 0.0478-0.881-0.0677-0.03355-0.0542-0.04705 0.03-0.03 0.0926 0.01876 0.153 0.21598 0.153 0.49936 0 0.59144-0.24522 0.66322-0.76671 0.22442zm-47.638-1.179c-0.1365-0.365-0.2784-0.814-0.3153-0.999-0.037-0.18419 0.093 0.09608 0.28878 0.62281 0.19576 0.52673 0.33767 0.97596 0.31535 0.99828-0.0223 0.02232-0.15228-0.25794-0.28879-0.62281zm31.605 0.061c-1.7004-0.05542-2.3563-0.1198-2.58-0.25329-0.165-0.09844-0.705-0.211-1.2-0.25013l-0.9-0.07114 0.80743-0.01987 0.80743-0.01987-0.13828-0.30347c-0.11588-0.25435-0.0992-0.35632 0.10337-0.63 0.38321-0.51786 0.83083-0.6724 1.96-0.67672 1.755-0.0067 3.46 0.10427 3.3885 0.22058-0.0377 0.06129 0.0248 0.07484 0.14043 0.03047 0.11454-0.04395 0.7849 0.03082 1.4897 0.16616 3.1482 0.60458 3.5554 0.72628 4.0058 1.1972 0.19367 0.2025 0.18421 0.22328-0.18 0.39543-0.47066 0.22247-4.241 0.32751-7.7044 0.21464zm6.5626-0.23544c1.028-0.094 1.229-0.197 0.881-0.452-0.444-0.324-2.027-0.665-4.701-1.012-3.6613-0.47511-4.9958-0.44196-5.5763 0.13854-0.5512 0.55119 0.0347 1.171 1.2358 1.3074 0.99239 0.11267 6.9759 0.12568 8.1605 0.01775zm-23.714-0.448c-0.25873-0.25872-0.2358-0.87251 0.0501-1.3414 0.21175-0.3473 0.2971-0.39 0.77955-0.39 0.59614 0 0.63892 0.07962 0.35453 0.66-0.17215 0.35134-0.17247 0.27705-0.002-0.27 0.0781-0.24941 0.0476-0.27-0.40044-0.27-0.41572 0-0.51116 0.05058-0.66809 0.35404-0.23881 0.46181-0.23326 1.0149 0.0122 1.2187 0.16987 0.14098 0.24229 0.10772 0.55581-0.25531 0.19828-0.22958 0.31836-0.33641 0.26684-0.23741-0.13477 0.25898-0.56399 0.72-0.67032 0.72-0.0498 0-0.17536-0.08486-0.27908-0.18857zm26.541 0.099c0.4785-0.02278 1.2615-0.02278 1.74 0s0.087 0.04142-0.87 0.04142-1.3485-0.01863-0.87-0.04142zm3.5455-0.1202c0.51451-0.02255 1.3245-0.02241 1.8 0.00036 0.47548 0.02272 0.0545 0.04117-0.93549 0.04099-0.99-0.000119-1.379-0.01875-0.86451-0.0413zm3.84-0.12c0.51451-0.02254 1.3245-0.02241 1.8 0.00036 0.47548 0.02272 0.0545 0.04117-0.93549 0.041-0.99-0.00012-1.379-0.01875-0.86451-0.0413zm-48.857-0.87c0-0.165 0.0272-0.2325 0.0606-0.15 0.0333 0.0825 0.0333 0.2175 0 0.3s-0.0606 0.015-0.0606-0.15zm-0.1111-0.72c0-0.231 0.0247-0.3255 0.0549-0.21s0.0302 0.3045 0 0.42-0.0549 0.021-0.0549-0.21zm33.332 0.12c-0.23755-0.07608-0.25004-0.09608-0.06-0.09608 0.132 0 0.375 0.04323 0.54 0.09608 0.23755 0.07608 0.25004 0.09608 0.06 0.09608-0.132 0-0.375-0.04323-0.54-0.09608zm-1.08-0.24c-0.23755-0.07608-0.25004-0.09608-0.06-0.09608 0.132 0 0.375 0.04323 0.54 0.09608 0.23755 0.07608 0.25004 0.09608 0.06 0.09608-0.132 0-0.375-0.04323-0.54-0.09608zm-0.75-0.19947c0.0825-0.03329 0.2175-0.03329 0.3 0s0.015 0.06053-0.15 0.06053-0.2325-0.02724-0.15-0.06053zm-1.59-0.29c-0.5622-0.13052-0.73624-0.19783-0.42-0.16242 0.64738 0.07248 1.9612 0.38477 1.62 0.38508-0.132 0.00012-0.672-0.10008-1.2-0.22266zm-29.811 0.0014c-0.0162-0.32096 0.92509-1.0766 1.3326-1.0698 0.0868 0.0014-0.0581 0.10182-0.32211 0.22305-0.48401 0.22226-0.81302 0.52291-0.93486 0.85431-0.057 0.15513-0.0675 0.15409-0.0757-0.0075zm26.991-0.484c-0.97014-0.16818-1.0806-0.20378-0.48-0.15474 0.84651 0.06911 2.5296 0.37874 2.04 0.37529-0.165-0.0012-0.867-0.10041-1.56-0.22054zm-10.353 0.04466c0.21302-0.02651 0.59102-0.02694 0.84-0.00096 0.24897 0.02598 0.0746 0.04766-0.38733 0.0482-0.462 0.00048-0.6657-0.02072-0.45267-0.04723zm1.6827-0.1202c0.2145-0.02662 0.5655-0.02662 0.78 0s0.039 0.0484-0.39 0.0484-0.6045-0.02178-0.39-0.0484zm1.5573-0.1198c0.21302-0.02651 0.59102-0.02694 0.84-0.00096 0.24897 0.02598 0.0746 0.04766-0.38733 0.0482-0.462 0.000479-0.6657-0.02072-0.45267-0.04723zm2.4566-0.12265c0.57417-0.02195 1.5462-0.02205 2.16-0.00024 0.61384 0.02182 0.14407 0.03978-1.0439 0.03991-1.188 0.00012-1.6902-0.01773-1.1161-0.03968zm6.486-0.353c0.1155-0.03018 0.3045-0.03018 0.42 0s0.021 0.05488-0.21 0.05488-0.3255-0.0247-0.21-0.05488zm-1.0784-0.12339c0.18241-0.02758 0.45241-0.02685 0.6 0.0016 0.14759 0.02848-0.002 0.05105-0.33165 0.05015-0.33-0.00096-0.45076-0.02421-0.26835-0.05179zm-18.032 14.363c1.485-0.063 4.536-0.12454 6.78-0.13684 2.8632-0.0157 3.6863-0.0467 2.76-0.10403-0.726-0.045-2.13-0.1407-3.12-0.21282-2.8622-0.20851-11.34-0.31542-11.34-0.143 0 0.0781-0.11667 0.3058-0.25927 0.50607l-0.25927 0.36412 1.3693-0.0795c0.75309-0.0438 2.5843-0.13103 4.0693-0.19399zm-11.538-0.306c0.40735-0.2414 0.93461-0.97664 1.1615-1.6196 0.1934-0.54816 0.22729-0.9164 0.049-0.53164-0.0845 0.18231-0.0946 0.14625-0.042-0.15 0.075-0.42238-0.0595-0.50315-0.3516-0.21109-0.28006 0.28005-0.47219 1.0036-0.40316 1.5182 0.0582 0.43422 0.0304 0.49126-0.37393 0.76601-1.0235 0.69547-2.0322 0.10783-2.7307-1.5908-0.15659-0.38081-0.286-0.60514-0.28757-0.4985-0.006 0.43646 0.85846 1.912 1.2943 2.2081 0.51155 0.3476 1.2061 0.39265 1.6843 0.10924zm0.6185-1.011c0.0706-0.132 0.15545-0.24 0.18845-0.24s0.002 0.108-0.0685 0.24c-0.0706 0.132-0.15544 0.24-0.18844 0.24s-0.002-0.108 0.0685-0.24zm0.24367-0.42c0-0.066 0.0523-0.201 0.11633-0.3 0.064-0.099 0.11633-0.126 0.11633-0.06s-0.0523 0.201-0.11633 0.3c-0.064 0.099-0.11633 0.126-0.11633 0.06zm-0.95218 1.1741c0.3071-0.18141 0.34851-0.2738 0.34851-0.77757 0-0.77312 0.30874-1.5039 0.72668-1.72 0.31842-0.16467 0.33981-0.15947 0.38934 0.0946 0.0288 0.14786 0.0282-0.0822-0.002-0.51116-0.0295-0.429-0.11692-0.90993-0.19422-1.0688l-0.14053-0.28874-0.0758 0.34874c-0.0747 0.34374-0.0761 0.34271-0.0926-0.0713-0.009-0.231-0.12101-0.6495-0.24833-0.93-0.17682-0.38954-0.29807-0.51-0.51336-0.51-0.28221 0-0.56987 0.19741-0.56987 0.39108 0 0.0567 0.0518 0.0711 0.11494 0.0321 0.0632-0.039 0.0366 0.0793-0.0593 0.26292-0.33501 0.64225-0.11215 1.654 0.36433 1.654 0.1281 0 0.3012-0.135 0.38468-0.3 0.0948-0.18731 0.15244-0.2281 0.15355-0.1086 0.0008 0.10528-0.10926 0.29188-0.24495 0.41468-0.20393 0.18456-0.28716 0.19801-0.48 0.0776-0.26648-0.16643-0.30295-0.0733-0.0833 0.21277 0.0825 0.10743 0.0242 0.0633-0.1294-0.0982-0.1645-0.17281-0.25547-0.38494-0.22123-0.51588 0.032-0.12232 0.009-0.22239-0.0506-0.22239-0.0598 0-0.10877-0.21919-0.10877-0.48708 0-0.2679 0.049-0.45682 0.10881-0.41984 0.0598 0.037 0.0836-0.0294 0.0526-0.14742-0.13748-0.52572 0.75975-1.0964 1.1345-0.72166 0.112 0.112 0.144 0.007 0.144-0.47292 0-0.3393 0.0405-0.64159 0.09-0.67174 0.0495-0.0302 0.0927 0.33115 0.096 0.80291 0.004 0.62371 0.0731 0.98557 0.25208 1.3262l0.24611 0.46849 0.0839-0.6325c0.0462-0.34787 0.0542-0.66218 0.0179-0.69848s-0.066 0.06-0.066 0.21401c0 0.4007-0.0762 0.25908-0.16125-0.3-0.0552-0.36264-0.044-0.42132 0.0459-0.24 0.21197 0.42745 0.0238-0.33386-0.22742-0.91977-0.83477-1.9474-2.4797-2.1925-3.492-0.52023-0.11985 0.198-0.25333 0.495-0.2966 0.66l-0.0787 0.3 0.18075-0.3c0.23187-0.38483 0.2386-0.2612 0.0139 0.25622-0.0964 0.22208-0.18084 0.32278-0.1876 0.22378-0.008-0.11709-0.0473-0.0935-0.11248 0.0674-0.15268 0.3771 0.0643 3.3899 0.28872 4.0086 0.62522 1.724 1.6109 2.4213 2.5982 1.8381zm-1.0915-0.31c-0.099-0.0815-0.28685-0.28227-0.41744-0.44619-0.14657-0.18397-0.0692-0.1427 0.20209 0.10784 0.27298 0.25208 0.51073 0.37855 0.62744 0.33376 0.25764-0.0989 0.23636-0.28216-0.11259-0.96997-0.16472-0.32469-0.2995-0.71619-0.2995-0.87 0-0.24664-0.0571-0.27967-0.48377-0.27967-0.62499 0-0.72527 0.24214-0.36887 0.89068 0.24828 0.45179 0.24985 0.46631 0.0204 0.18932-0.6534-0.78884-0.42584-1.2 0.66415-1.2 0.68674 0 0.78265 0.0307 0.96486 0.30877 0.17496 0.26703 0.18414 0.40649 0.0679 1.0315-0.18551 0.9975-0.43461 1.2579-0.86469 0.90395zm1.6713-2.5604c0.13679-0.1739 0.25297-0.4034 0.25818-0.51 0.006-0.1111 0.0342-0.13327 0.0673-0.0519 0.0738 0.18106-0.28228 0.87814-0.44855 0.87814-0.0691 0-0.0137-0.14229 0.12308-0.31619zm-3.0699-0.46899c-0.039-0.10185-0.0374-0.21885 0.004-0.26 0.0411-0.0411 0.0748 0.0152 0.0748 0.12517 0 0.25134 0.45139 0.26669 0.79361 0.027 0.21775-0.15252 0.2476-0.30201 0.25211-1.2624 0.004-0.90355-0.0348-1.1401-0.22902-1.387-0.29106-0.37003-0.54897-0.38021-0.70044-0.0276-0.0892 0.20761-0.10909 0.21751-0.0861 0.0429 0.0518-0.39327 0.39828-0.5167 0.69581-0.24782 0.39189 0.35414 0.83406 1.3111 0.83406 1.8051 0 0.81534-1.3937 1.823-1.6386 1.1847zm3.0975-0.65483c0-0.165 0.0273-0.2325 0.0606-0.15s0.0333 0.2175 0 0.3-0.0606 0.015-0.0606-0.15zm-3.2311-0.24c0-0.231 0.0247-0.3255 0.0549-0.21s0.0302 0.3045 0 0.42-0.0549 0.021-0.0549-0.21zm3.0922-0.243c0-0.0892-0.1215-0.29458-0.27-0.45629l-0.27-0.29402 0.26187 0.13616c0.26419 0.13736 0.48035 0.5742 0.34909 0.70545-0.039 0.039-0.071-0.002-0.071-0.0913zm-2.9697-0.89774c0.002-0.264 0.0259-0.35787 0.0546-0.2086s0.0276 0.36527-0.002 0.48c-0.03 0.11473-0.0535-0.007-0.0522-0.2714zm-0.37132-0.06c0-0.165 0.0272-0.2325 0.0606-0.15 0.0333 0.0825 0.0333 0.2175 0 0.3s-0.0606 0.015-0.0606-0.15zm2.196-0.698c-0.80193-0.58888-1.0552-0.92205-0.90878-1.1956 0.11295-0.21105 0.91619-0.62575 1.212-0.62575 0.17313 0 0.95511 0.72009 1.093 1.0065 0.0794 0.1648 0.0321 0.13783-0.13504-0.0771-0.1414-0.18184-0.29916-0.30462-0.35059-0.27283-0.0514 0.0318-0.19009-0.0489-0.30814-0.17938-0.29091-0.32146-0.81299-0.29854-1.2208 0.0536l-0.3367 0.291 0.36 0.378c0.4243 0.44511 1.0897 0.8776 1.2619 0.82019 0.0668-0.0223-0.0386-0.23466-0.23416-0.47198-0.40259-0.4884-0.32133-0.70737 0.26249-0.70737 0.33751 0 0.34177 0.009 0.306 0.63-0.0304 0.52842-0.0758 0.63566-0.28127 0.66507-0.13474 0.0193-0.45874-0.12189-0.72-0.31374zm0.905-1.267c0-0.025-0.0945-0.119-0.21-0.21-0.1903-0.149-0.1946-0.145-0.0453 0.046 0.1568 0.199 0.2553 0.263 0.2553 0.164zm0.79482 1.3007c-0.1158-0.30176-0.0816-0.37962 0.0598-0.13636 0.07 0.12045 0.10208 0.24428 0.0712 0.27518-0.0309 0.0309-0.0898-0.0316-0.131-0.13882zm-3.2418-0.99365c0.22173-0.38916 0.95761-0.95103 1.0823-0.82635 0.0345 0.0345-0.0478 0.09782-0.18297 0.14072-0.13514 0.0429-0.44383 0.30433-0.68597 0.58096-0.40403 0.46159-0.42159 0.4702-0.21334 0.10468zm-0.7136 4.3883c-0.0333-0.0825-0.0606-0.015-0.0606 0.15s0.0273 0.2325 0.0606 0.15 0.0333-0.2175 0-0.3zm-0.61555-0.0837c-0.0386-0.0625-0.071-0.84551-0.0719-1.74-0.0008-0.89449-0.0358-1.6264-0.0774-1.6264-0.0417 0-0.17448 0.0894-0.29518 0.1986-0.16864 0.15262-0.22424 0.39571-0.24016 1.05l-0.0207 0.8514-0.0693-0.75096-0.0693-0.75095-0.78-0.36794c-0.429-0.20236-0.95549-0.50168-1.17-0.66515l-0.39-0.29721 0.0008 0.27611c0.002 0.49701 0.72856 1.5592 1.8247 2.6677 0.59196 0.59864 1.0418 1.0074 0.9997 0.90843-0.0422-0.099 0.0135-0.0585 0.1236 0.09 0.1952 0.26328 0.37484 0.38287 0.23484 0.15635zm-0.5891-0.67099c-0.0411-0.10724-0.0702-0.28507-0.0645-0.39517 0.006-0.11011 0.0579-0.0409 0.11604 0.15378 0.11312 0.37875 0.0731 0.56619-0.0515 0.24139zm5.7728-0.62268c-0.026-0.24897-0.0477-0.0746-0.0482 0.38732-0.00053 0.462 0.0207 0.66571 0.0472 0.45268s0.027-0.59103 0.0008-0.84zm-4.6797-0.42268c-0.0253-0.2805-0.0459-0.051-0.0459 0.51s0.0206 0.7905 0.0459 0.51 0.0253-0.7395 0-1.02zm63.135-2.52c-0.259-0.647-0.463-0.319-0.463 0.746 0 0.38235 0.0367 0.87743 0.0816 1.1002 0.0753 0.3733 0.0985 0.32984 0.29696-0.555 0.16715-0.74527 0.18589-1.0338 0.0838-1.29zm-64.07 0.843c-0.0294-0.019-0.3659-0.183-0.7479-0.364-0.4699-0.223-0.7722-0.461-0.9345-0.736-0.2639-0.447-0.53468-0.465-0.90172-0.06-0.1954 0.21591-0.19467 0.24097 0.0139 0.47143 0.12115 0.13387 0.6526 0.45979 1.181 0.72426l0.96074 0.48086 0.24093-0.24092c0.1325-0.13251 0.21692-0.25668 0.18759-0.27593zm61.673-4.0492c0.55365-0.06366 1.0366-0.14572 1.0733-0.18237 0.0366-0.03666-0.28135-0.42031-0.70665-0.85258l-0.77328-0.78594-0.74753 0.04475c-0.59069 0.03536-0.85249 0.11912-1.2478 0.39922-0.65502 0.46413-0.79598 0.82911-0.41631 1.0779 0.56239 0.3685 1.4214 0.45964 2.8183 0.29903zm-45.048-2.35c0.23238-0.17564 0.23292-0.1926 0.0242-0.74618-0.11748-0.31155-0.29704-0.83646-0.39903-1.1665-0.34097-1.1033-0.98051-1.455-2.4559-1.3506-1.3468 0.09531-2.287 0.87117-2.0757 1.7129 0.14241 0.56744 0.5368 0.70328 2.196 0.75636 0.832 0.02662 1.5768 0.10004 1.655 0.16317s0.17705 0.27304 0.21954 0.46648c0.0879 0.40002 0.4341 0.46809 0.83596 0.16435zm-8.066-2.521c0.17269-0.69788 0.47604-1.6152 0.67412-2.0385l0.36013-0.76959-0.62297 0.31186c-1.0208 0.511-1.818 1.1987-2.8432 2.4526l-0.96893 1.185 1.4746 0.03778c0.81102 0.02078 1.5056 0.04946 1.5434 0.06373s0.21016-0.54504 0.38284-1.2429zm34.648 0.011c0-0.50643-0.26948-0.71442-1.1781-0.90929-1.0619-0.22774-1.5412 0.05966-1.3869 0.83154 0.0801 0.40029-0.12551 0.35446 2.115 0.47148 0.43822 0.02289 0.45 0.01258 0.45-0.39373zm-31.089-0.41794c0.12456-0.06666 0.35704-0.35481 0.51662-0.64033 0.33567-0.60058 0.24661-1.0445-0.20956-1.0445-0.28984 0-1.516 0.21794-1.5786 0.28059-0.0214 0.02139 0.0964 0.43951 0.26174 0.92915 0.4573 1.3542 0.41569 1.2912 0.61035 0.92328 0.0952-0.17984 0.27492-0.38153 0.39948-0.44819z"/>
 </g>
</svg>
