<?xml version="1.0" encoding="UTF-8" standalone="no"?>
<!-- Created with Inkscape (http://www.inkscape.org/) -->
<svg id="svg2" xmlns:rdf="http://www.w3.org/1999/02/22-rdf-syntax-ns#" xmlns="http://www.w3.org/2000/svg" height="45" width="67.5" version="1.1" xmlns:cc="http://creativecommons.org/ns#" xmlns:dc="http://purl.org/dc/elements/1.1/">
 <metadata id="metadata7">
  <rdf:RDF>
   <cc:Work rdf:about="">
    <dc:format>image/svg+xml</dc:format>
    <dc:type rdf:resource="http://purl.org/dc/dcmitype/StillImage"/>
    <dc:title/>
   </cc:Work>
  </rdf:RDF>
 </metadata>
 <g id="g57541">
  <rect id="rect2990" opacity="0" height="45" width="67.5" y="0" x="3.5527e-15"/>
  <g id="g57180" transform="matrix(.74999 0 0 .74999 146.65 26.66)">
   <path id="path86217" d="m-121.93 8.8519c3.2706-0.06396 6.7871-0.1246 10.265-0.16466 8.6112-0.09937 8.107-1.1223-2.2331-1.0196 1.8741-0.33839 3.2487-1.1103 3.8144-2.328l0.0768-0.000443c5.463-1.0431 3.9576-3.0814 3.6922-3.7763-0.28063-0.73477-0.26403-1.1475 0.35942-3.8099s0.5451-3.2857-2.6208-6.8234c-3.167-3.5373-7.9961-4.2477-15.238-4.1242-3.8334 0.06529-5.8905-0.02921-10.117-0.30188 0.677-1.42-0.54067-1.9856-2.0844-2.1507-1.5439-0.16532-1.7834 0.652-1.321 2.0142l-6.6948-5.7471c-0.69759-0.64801-1.8285-0.79674-4.718-0.91248-2.8895-0.11575-16.222-0.13301-18.959 1.101-2.1844-0.15802-6.1701-0.0018-8.7533 0.53116l-0.41541 0.07126c-3.9219 0.73455-5.746 3.1597-6.5237 4.1437-0.8711 1.1019-1.4202 1.9071-2.2499 1.977-6.109 0.272-8.3463 1.9396-8.6519 4.4079 0.0164 2.1713 0.37137 3.6327 0.37137 3.6327s-1.8575-0.07436-1.416 1.8037c0.39328 1.6734 3.2075 4.3458 4.4591 5.3003l0.037 0.02435c0.5949 3.3321 2.2019 5.59 3.9527 5.6601l4.8543 0.09118c1.034-0.01018 2.9258 0.01394 5.324 0.05998l0.009-1.5187c-0.84012 0.04139-1.3494 0.06794-1.3494 0.06794 0.5949-0.54908 0.80692-1.2431 0.86911-1.5083l0.0246 0.0027c4.6332 0.08565 11.788 0.21977 15.382 0.29701 2.5449 0.33441 4.3953 0.58317 5.2191 0.33994l0.0383-0.01616c0.0903 0.14363 0.18856 0.28262 0.29457 0.41563 0 0-2.5841-0.000221-6.6127-0.05821-3.1363-0.04515-10.708 0.30453-13.866 0.45945l-0.009 1.5187c7.2029 0.13921 18.977 0.47406 25.759 0.66837 7.089 0.20295 17.282-0.09849 29.032-0.32865l-0.03-1.23c-1.83-0.104-5.049-0.274-8.975-0.431-6.192-0.248-10.848-0.125-10.848-0.125l0.33861-0.70998 0.023-0.08941 0.3966 0.02302c4.7879 0.13987 11.791 0.13876 18.036-0.03275l0.0963 0.06883c0.9282 0.9563 2.5823 1.3941 2.5823 1.3941s-0.67236-0.04183-1.6499-0.09738l0.029 1.2283z" fill="#fff"/>
   <path id="path86219" d="m-156.24 6.5929c-1.2794-1.6017-1.3868-4.0866-0.93661-4.9989 0 0 0.0124-0.30962-0.29723-0.32201-0.30962-0.01239-5.5809-0.01682-5.5809-0.01682 1.2549-0.36318 5.3826-0.19786 5.5975-0.39593 0.21468-0.1983 0.14031-0.92466 0.10335-2.5799-0.037-1.6552 0.37602-6.8068 4.4296-7.368 4.0534-0.56126 6.5879 3.2613 8.1311 11.179-0.62322 0.07835-0.054 3.9255 1.3907 3.9835 1.4447 0.05799 1.9524 0.28506 1.9524 0.28506l-0.33861 0.70998s4.6563-0.12349 10.848 0.1246c6.1917 0.2481 10.625 0.52894 10.625 0.52894s-1.8409-0.48734-2.7284-1.5563c4.9617-0.008 11.178-0.37911 12.953-0.82484-0.56568 1.2177-1.9403 1.9894-3.8144 2.328 10.34-0.10269 10.844 0.92045 2.2331 1.0196-16.029 0.184-30.212 0.753-39.297 0.492-9.085-0.26-26.947-0.769-31.082-0.728l-4.8563-0.09074c-2.3734-0.09517-4.4825-4.2116-4.1643-9.5734 0.3966-4.739 1.02-7.4015 3.9301-7.8016 2.9101-0.40036 4.5197 5.8657 5.5019 9.7295-1.0402 0.1651 0.0162 4.7552 1.6674 4.8214l2.7946-0.09472s-0.14031 0.92466-0.89168 1.618c0 0 11.186-0.5856 15.215-0.5274 4.0288 0.05821 6.6127 0.05821 6.6127 0.05821z"/>
   <ellipse id="ellipse86221" rx="5.8424" ry="3.2133" transform="rotate(88.573)" cy="187.19" cx="-3.8566" fill="#fff"/>
   <ellipse id="ellipse86223" rx="6.4631" ry="5.3676" transform="rotate(92.292)" cy="150.45" cx="6.9229" fill="#fff"/>
   <path id="path86225" d="m-131.49 0.24591c0.21999 0.08321 10.344-0.20582 10.344-0.20582-0.27664-0.83812-0.0578-1.1393 1.3002-1.4983 0 0-8.2679-0.02125-9.7211 0.12748-1.4529 0.1485-2.5345 1.3456-1.9235 1.5767z"/>
   <path id="path86227" d="m-118.39-1.6071c-0.22707 0.5077-0.24765 1.0236-0.0538 1.3416l7.1396-0.23083c0.72237 0.02899 0.23128-0.61083 0.65642-0.90385 0.42515-0.29302 0.94524-0.37557 0.94524-0.37557s-0.81311-0.3426-2.6788-0.21069c-1.8659 0.13212-5.5933 0.2928-6.0103 0.37934z"/>
   <path id="path86229" d="m-118.5 1.0759c-0.326 0.40036-0.0454 1.1351-0.0454 1.1351s5.4818-0.09052 6.5177-0.15226c1.0362-0.06175 1.0568-0.57786 1.0692-0.88726 0.0124-0.30962 1.3704-0.66859 1.3704-0.66859s-1.2349-0.16709-2.5799-0.10335c-5.9027 0.27996-5.9069 0.38332-6.3321 0.67634z"/>
   <path id="path86231" d="m-120.25 0.90291s-10.452 0.30475-11.269 0.06529c-0.0414 1.032-0.27244 1.6428 1.8947 1.7296 2.1671 0.08676 6.2083-0.16488 7.137-0.12748 0.92886 0.03718 1.2507-0.26005 1.1765-0.98662-0.0447-0.43555 1.0608-0.68077 1.0608-0.68077z"/>
   <path id="path86233" d="m-167.71-19.19c-3.1951-0.23128-10.241 0.21003-11.121 1.5184-0.87929 1.3086-1.5109 4.1773-1.6554 5.2051 0.81732 0.23946 2.0598 0.18591 2.6748 0.31383 0.61504 0.12792 2.7381 0.34857 3.8732 0.39416-1.144 0.01239-2.8297-0.48158-1.8644-2.3227 0.45502-0.86778 1.7395-1.3323 3.4939-1.2619 1.7544 0.07016 2.2413 0.81334 2.5095 1.8577 0.26823 1.0444 0.84188 2.2043 0.84188 2.2043s0.61504 0.12814 1.1311 0.14872c0.51589 0.02058 4.5529-0.1277 7.5705-0.62699s6.4436-0.87884 9.9605-0.9448c4.7636-0.22264 7.2815-1.1555 12.957-0.92798l-6.697-5.7462c-0.697-0.649-1.828-0.797-4.718-0.913-2.889-0.116-16.222-0.133-18.959 1.101z"/>
   <path id="path86235" d="m-151.19 5.6079c0.60264 0.65288 2.8275 0.37159 3.3806-0.53647 0.31338-0.51434-0.77593-1.2715-1.6014-1.3044-0.82551-0.0332-2.0764 1.5189-1.7792 1.8409z"/>
   <path id="path86237" d="m-146.52 4.0869c0.66063-1.0072 1.2717-3.36 0.69781-4.5199-1.2591 0.46631-2.0764 2.8109-0.69781 4.5199z"/>
   <path id="path86239" d="m-149.29-4.2921c1.0196 0.35078 2.5303 1.3418 2.6872 2.5883-1.9856 0.54067-2.6666-0.52031-2.6872-2.5883z"/>
   <path id="path86241" d="m-150.86-3.8381c-1.3582 0.3592-2.448 1.7623-2.4933 2.8977 2.2703 0.09096 2.5179-0.93285 2.4933-2.8977z"/>
   <path id="path86243" d="m-153.71 0.38891c-0.1485 1.1309 0.39195 3.1166 1.2876 3.9793 1.2261-2.2247 0.53669-3.0792-1.2876-3.9793z"/>
   <path id="path86245" d="m-187.06-3.2211 1.0856 1.2839c0.45635-1.067 0.18989-2.1629-1.0856-1.2839z"/>
   <path id="path86247" d="m-187.85-1.4951c-0.44175 0.70578-0.10336 2.5799-0.10336 2.5799s1.1681-0.78014 0.10336-2.5799z"/>
   <path id="path86249" d="m-187.71 2.7479c0.0617 1.0362 0.57055 1.8834 0.97091 2.2094 0.24278-1.4631 0.58228-2.1472-0.97091-2.2094z"/>
   <g id="g56921" fill="none" transform="translate(-200.04 -32.547)">
    <g id="g56923" stroke-width=".23238" stroke="#000">
     <path id="path86251" d="m24.659 13.773c-4.9741 0.31759-7.1578 3.2274-8.0289 4.3296-0.8711 1.1019-1.4202 1.9071-2.2499 1.977-6.1092 0.27222-8.3465 1.9398-8.6521 4.4082 0.016377 2.1713 0.37137 3.6327 0.37137 3.6327s-1.8575-0.07436-1.416 1.8037c0.44152 1.8783 3.9334 5.0157 4.8415 5.5687"/>
     <path id="path86253" d="m55.292 38.67c6.5963 0.47096 27.067 0.36074 33.72-0.61304 6.6541-0.97379 4.9867-3.2113 4.7061-3.9461-0.28063-0.73477-0.26403-1.1475 0.35942-3.8099s0.5451-3.2857-2.6208-6.8234-7.9955-4.2482-15.236-4.1247c-3.8334 0.06529-5.8905-0.02921-10.117-0.30188 0.677-1.42-0.54067-1.9856-2.0844-2.1507-1.5439-0.16532-1.7834 0.652-1.321 2.0142 1.188 0.01527 3.4056 0.13655 3.4056 0.13655"/>
     <path id="path86255" d="m43.934 38.318c-0.13633 0.82152-2.295 0.52828-5.6883 0.08233-5.5772-0.11951-19.727-0.37624-19.727-0.37624"/>
     <path id="path86257" d="m55.024 24.706c0.68099 1.0608 1.9235 1.0072 4.6107 1.0116s8.8832 0.14917 9.6221-0.23482c0.73875-0.38376 0.88349-1.4116-9.9273-2.465-5.3452-0.52076-4.3055 1.6882-4.3055 1.6882z"/>
     <path id="path86259" d="m90.056 22.285c-2.1587-0.29324-3.8761 1.2916-3.4924 2.0306 0.38376 0.73897 2.9512 1.1519 6.0844 0.34702"/>
     <path id="path86261" d="m59.187 31.694c0.14784 2.689 6.1041 2.99 5.6015-0.49929-0.40456-2.8067-5.7212-1.6762-5.6015 0.49929z"/>
     <path id="path86263" d="m94.113 29.372c-0.07016-0.82971-0.96582-1.6924-0.95785 0.68519 0.0082 2.3776 0.50748 2.8112 0.50748 2.8112"/>
    </g>
    <g id="g56932" stroke-width=".07746" stroke-linecap="round" stroke="#fff">
     <path id="path86265" d="m22.357 20.296c0.04559-1.1351 0.35433-4.3269 0.48645-5.0453 0.13212-0.71817 0.7735-1.1785 3.1537-1.3206 4.1444-0.24743 5.7794-0.18192 5.7794-0.18192"/>
     <path id="path86267" d="m22.959 14.946c-0.71418-0.23526-2.068 0.02058-2.068 0.02058"/>
     <path id="path86269" d="m25.245 17.208c0.3468-0.91625 0.79674-1.8285 2.353-1.973 1.5563-0.14452 3.5612 0.11686 3.5612 0.11686"/>
     <path id="path86271" d="m33.14 13.002c-1.2507 0.26005-1.7811 1.2464-1.9093 1.8615-0.12792 0.61504 0.43334 4.6687 0.60242 5.6057l-0.82971 0.07016"/>
     <path id="path86273" d="m29.955 18.327c0.13633-0.82152-0.05356-1.2425-1.3952-1.2962-1.3416-0.05378-1.4529 0.1485-1.4529 0.1485"/>
    </g>
   </g>
   <path id="path86275" d="m-177.2-16.598 1.0384 3.1035c0.23681-1.0758 1.1431-1.4399 1.1431-1.4399l0.71618-1.4312-0.36052-0.67324c0-0.000221-1.6951 0.06108-2.5372 0.44086z" fill="#fff"/>
   <line id="line86277" stroke-width=".07746" x1="-176.68" x2="-177.46" stroke="#fff" stroke-linecap="round" y1="-12.082" y2="-14.516" fill="none"/>
   <path id="path86279" d="m-171.77-10.671c2.9597 0.94546 4.9862 1.9569 6.0346 4.1694 1.0484 2.2127 1.1185 3.0424 1.0648 4.3838-0.0538 1.3414 0.28882 3.1124-1.3664 3.1493 0.82551 0.03298 0.8773-1.2569 0.94745-3.011 0.0414-1.032-0.008-2.3776-0.38774-3.2197-0.37956-0.84211-0.94303-2.2601-1.9502-2.9205-1.0072-0.66063-2.6418-1.1396-4.3424-2.5513z"/>
   <path id="path86281" d="m-168.96-11.281c0.15359 0.52297-1.5415 1.2303-1.6112 0.54908-0.0697-0.68121-0.0927-1.0696-0.7361-0.9791-0.64314 0.09052-3.0418-0.02501-3.9425-0.27421-0.90098-0.2492-1.182-1.564-0.27-2.4528 1.0891-1.061 2.868-0.9988 4.1587-0.76376 1.5007 0.27332 1.4264 1.6464 1.8334 2.6124 0.407 0.96604 0.56768 1.3084 0.56768 1.3084z" stroke="#000" stroke-width=".15492" fill="#fff"/>
   <path id="path86283" d="m-167.59-17.118c-0.0372 0.92864 0.21047 2.4891 0.21047 2.4891s5.073-0.21025 8.165 0.01704l0.7226-2.5551c-1.9527-0.28483-9.0981 0.04891-9.0981 0.04891z" fill="#404040"/>
   <g id="g56944" fill="none" stroke="#000" transform="translate(-200.04 -32.547)">
    <ellipse id="ellipse86285" rx="2.0038" ry="1.1022" transform="rotate(88.573)" cy="-13.183" cx="33.45" stroke-width=".077461"/>
    <ellipse id="ellipse86287" rx="1.4027" ry=".77152" transform="rotate(88.573)" cy="-13.02" cx="33.44" stroke-width=".077461"/>
    <g id="g56948" stroke-width=".07746">
     <path id="path86289" d="m12.944 38.847c1.6526-0.04205 2.9324-2.5363 2.8585-5.5712-0.07392-3.0349-1.4737-5.4607-3.1263-5.4182-1.6526 0.04249-2.9322 2.5372-2.8583 5.5721 0.073698 3.0347 1.4735 5.4607 3.1261 5.4182z"/>
     <path id="path86291" d="m6.0996 28.121c0.057763 1.1391 1.298 1.5576 1.8905 1.8329 1.2177 0.56546 1.3498-0.15271 1.3498-0.15271"/>
     <line id="line86293" y1="33.767" x2="17.988" x1="38.691" y2="33.248"/>
     <path id="path86295" d="m13.968 20.063c1.449-0.04537 4.8709-0.32157 8.2555 0.33065"/>
     <path id="path86297" d="m19.549 20.08c-2.6047 0.51589-3.8637 0.9822-2.9599 4.2227 0.90363 3.2403 2.8601 6.0061 4.8041 9.0815"/>
     <line id="line86299" y1="24.637" x2="69.578" x1="86.86" y2="25.185"/>
     <path id="path86301" d="m55.245 34.638c1.4363 0.26425 12.706 0.19874 12.706 0.19874 0.51611 0.02058 0.95365-0.58184 0.95365-0.58184"/>
     <path id="path86303" d="m88.447 34.055c1.1309 0.14872 1.7083 0.2492 2.5462-0.02722 0.8379-0.27664 2.5372-0.44108 2.5372-0.44108"/>
    </g>
   </g>
   <path id="path86305" d="m-143.47-2.5081c0.34193 0.01372 0.63031-0.25252 0.64403-0.59445 0.0137-0.34193-0.25252-0.63031-0.59445-0.64403l-1.135-0.045c-0.34193-0.01372-0.63031 0.25252-0.64403 0.59445-0.0137 0.34193 0.25252 0.63031 0.59445 0.64403l1.1351 0.04559z" stroke-width=".07746" stroke="#000"/>
   <g id="g56959" stroke-width=".07746" fill="none" transform="translate(-200.04 -32.547)">
    <g id="g56961" stroke="#000">
     <g id="g56963">
      <path id="path86307" d="m60.732 29.908c1.6428 0.27244 1.8157 3.0573-0.47118 3.379"/>
      <path id="path86309" d="m36.708 22.628 1.3416 0.05378s-0.39217 2.0516-1.4408 2.423c-1.3168-0.67302 0.09915-2.4767 0.09915-2.4767z"/>
      <path id="path86311" d="m79.765 26.317 1.449-0.04537s0.80891 0.44595 0.1485 1.4529c-1.0238-0.24787-1.5975-1.4076-1.5975-1.4076z"/>
      <line id="line86313" y1="25.122" x2="51.284" x1="55.42" y2="25.176"/>
     </g>
     <g id="g56969">
      <ellipse id="ellipse86315" rx="2.1377" ry="1.7754" transform="rotate(92.292)" cy="-51.502" cx="31.291"/>
      <ellipse id="ellipse86317" rx="1.3361" ry="1.1097" transform="rotate(92.292)" cy="-51.308" cx="31.289"/>
      <ellipse id="ellipse86319" rx="5.8912" ry="4.8926" transform="rotate(92.292)" cy="-50.727" cx="31.444"/>
     </g>
     <g id="g56974">
      <path id="path86321" d="m14.249 29.171c-0.01859 0.46432 0.17329 1.4799-0.44905 1.5324-0.62234 0.05245-1.7336-1.2323-2.0339-1.4768-0.3001-0.24455 0.12194-0.77682 0.58206-0.98441 0.63141-0.28483 1.3281-0.25695 1.9009 0.92886z"/>
      <path id="path86323" d="m10.723 30.115c0.17351-0.45812 0.78633-0.27864 1.294 0.59445 0.5077 0.87309 0.97622 2.0804 0.06396 2.9225-0.91248 0.84211-1.6059 0.73676-1.6552 0.03696-0.04958-0.69936-0.05245-2.56 0.29723-3.5539z"/>
      <path id="path86325" d="m10.948 36.092c-0.28793-0.55417-0.03718-1.0092 0.58206-0.98441s1.3675-0.06507 1.6222 0.14253c0.60043 0.48911 0.31648 1.4162 0.14231 2.2539-0.09605 0.46122-0.42426 0.91315-0.87619 0.58516-0.45193-0.32843-0.96582-1.0466-1.4704-1.9972z"/>
      <path id="path86327" d="m14.332 38.064c-0.117-0.935 0.061-2.814 1.309-2.997"/>
      <path id="path86329" d="m14.873 29.712c-0.29435 1.5386 0.32733 3.1365 0.91094 3.7059"/>
      <path id="path86331" d="m45.394 33.519c-0.04603-0.77328 0.58206-0.98441 1.1858-0.57254 0.60375 0.41165 0.98131 0.6593 1.3436 1.2943 0.36207 0.63473-0.0095 2.1702-0.34702 2.8543-0.33751 0.68409-0.63695 0.58981-1.0092 0.03696-0.804-1.195-1.08-2.059-1.173-3.613z"/>
      <path id="path86333" d="m45.826 30.436c-0.41187 0.60375-0.59136 1.2166 0.4953 1.1825 1.0867-0.03386 1.9412-0.07724 2.3468-0.52607 0.40567-0.44883 0.67789-1.4456 0.41806-2.6965-0.12991-0.62544-0.67789-0.49243-1.3126-0.13013-0.63473 0.36207-1.6875 1.4828-1.9476 2.1702z"/>
      <path id="path86335" d="m51.244 30.653c-0.6624-0.87929-1.0309-1.3591-1.0802-2.0589-0.04935-0.6998 0.42116-0.83591 1.0309-0.57896 0.60995 0.25695 1.7862 0.88548 2.4982 2.4646 0.41165 1.3345-1.4675 0.83281-2.4489 0.17329z"/>
      <path id="path86337" d="m53.439 31.981c0.55417-0.28793 0.74296-0.1111 0.88238 1.1982 0.14076 1.3235-0.32821 2.39-0.66572 3.0741-0.33751 0.68409-0.60552 0.49862-1.0712-0.353-0.65-1.1889-0.74606-2.6655 0.8545-3.9193z"/>
      <path id="path86339" d="m49.155 38.321c-0.8483-0.11154-1.2584-0.55307-0.65332-1.1114 1.1269-1.0402 1.771-1.6346 2.5976-0.98131 0.82661 0.65332 1.5696 1.4582 1.0929 1.7493-0.47694 0.29103-1.4985 0.63783-3.0371 0.34348z"/>
      <path id="path86341" d="m9.1289 35.063c-1.1968-1.081-1.0151-3.037-1.0771-4.073 0.3302-0.503 0.6522-0.801 0.6522-0.801s-0.23105-1.9732 0.024787-3.2031c0.25606-1.2301 2.1406-4.4106 4.8855-3.2668"/>
      <path id="path86343" d="m4.785 28.688c-0.3426 0.81311 1.942 1.8349 3.2671 2.3015"/>
      <path id="path86345" d="m43.608 38.719c-1.122-0.355-2.084-4.735-1.044-4.9-0.875-1.378-1.241-10.282 4.959-10.241"/>
      <path id="path86347" d="m68.602 34.087c-0.26226 1.385 0.24655 2.2322 4.4321 2.2448 4.1857 0.01261 13.808-0.2222 15.913-0.5254 2.1052-0.3032 2.2798-2.7253 1.5058-2.7563"/>
      <path id="path86349" d="m81.582 31.945 0.05267 0.62234s7.6139-0.29701 8.5415-0.35543c1.1269-0.07104 0.8576-1.4127 0.16112-1.4405"/>
      <path id="path86351" d="m68.506 32.584s-0.48313 0.44573 0.23725 0.52629c0.53625 0.05998 9.6427-0.10048 11.382-0.31914 0.461-0.05799 0.68741-1.678-0.08853-1.6572"/>
      <path id="path86353" d="m54.694 35.519c2.7058 0.18591 6.1298 1.796 13.572 1.784 7.4424-0.01195 20.167-0.27753 22.667-0.7974 2.5015-0.52009 3.0588-0.88526 2.9473-1.975"/>
     </g>
    </g>
    <path id="path86355" d="m56.002 13.168c-2.2579-0.40058-20.008-1.1114-23.404 1.1296-0.46653 1.325 0.20604 5.1764 0.37535 6.1134 15.236-1.0435 23.612-1.1214 23.612-1.1214" stroke="#fff" stroke-linecap="round"/>
    <g id="g56994" stroke="#000">
     <path id="path86357" d="m79.063 33.524c0.72636-0.07414 1.2467-0.15669 1.2301 0.25606s-0.32224 1.5893 0.5015 1.6738c0.82352 0.08476 0.87508 0.08676 0.78412-0.22685-0.09074-0.3136-0.03298-0.46631-0.06994-0.82971"/>
     <path id="path86359" d="m80.125 32.791c0.5181-0.03098 1.5603 0.39837 1.5078-0.22375"/>
     <path id="path86361" d="m20.113 34.368c-2.4787 0.09871-0.95365 3.1659 0.80072 3.2363 1.7544 0.07038 10.022 0.0914 11.781 0.05865 1.7586-0.03298 3.0203-2.8523-0.28882-3.1124-2.679-0.21091-9.7045-0.28572-12.293-0.18259z"/>
     <path id="path86363" d="m32.633 21.121c3.9956 0.88371 11.449-0.71861 17.172-0.3457 4.1238 0.26846 11.801 2.1264 14.361 2.7459"/>
     <path id="path86365" d="m46.742 19.826c2.5841 0.000221 7.4342 0.19454 9.1762 0.57431" stroke-linecap="round"/>
    </g>
   </g>
  </g>
 </g>
</svg>
