<?xml version="1.0" encoding="UTF-8" standalone="no"?>
<!-- Created with Inkscape (http://www.inkscape.org/) -->
<svg id="svg2" xmlns:rdf="http://www.w3.org/1999/02/22-rdf-syntax-ns#" xmlns="http://www.w3.org/2000/svg" height="54" width="99" version="1.1" xmlns:cc="http://creativecommons.org/ns#" xmlns:dc="http://purl.org/dc/elements/1.1/">
 <metadata id="metadata7">
  <rdf:RDF>
   <cc:Work rdf:about="">
    <dc:format>image/svg+xml</dc:format>
    <dc:type rdf:resource="http://purl.org/dc/dcmitype/StillImage"/>
    <dc:title/>
   </cc:Work>
  </rdf:RDF>
 </metadata>
 <g id="g44818">
  <rect id="rect2990" opacity="0" height="54" width="99" y="0" x="0"/>
  <path id="path86454" fill="#fff" d="m87.095 30.83c0.20931 0.16862 0.5635 0.35758 1.0496 0.28279 0.5066-0.078 3.3701-0.8265 4.2601-1.1445 0.89018-0.31802 0.95386-0.63584 1.3352-1.7804 0.18538-0.55615 0.50868-0.76301 0.57235-1.0808 0.06368-0.31783 0.06349-1.1445 0-1.3989-0.06349-0.25434-0.06349-0.57235-1.2717-0.57235 0.19085-1.2082 0.06349-4.0057-0.12717-5.0233-0.22382-1.1939-0.12717-1.2717-1.2082-1.526-1.081-0.25434-7.6301-0.76301-7.6301-0.76301s-1.526-3.7514-2.1619-5.1502c-0.636-1.399-1.081-1.526-2.098-1.717s-10.874-1.4632-22.764-1.5266c-11.89-0.0635-14.688 1.0806-15.641 1.5896-0.95386 0.50868-5.5954 4.1329-7.1851 5.8496-1.6532 0-2.0347 1.0174-1.8439 1.844 0 0-1.2717 0.06349-1.526 0.38151-0.48494 0.60608-2.289 0.50868-11.445 2.4799-9.1562 1.9712-11.191 2.8614-11.572 3.3699-0.38151 0.50868-0.44519 2.289-0.31802 3.3701-0.44519 0.12717-0.57235 1.1445-0.57235 1.1445s-1.7804 0.69934-1.971 0.82669c-0.19066 0.12717-0.12717 0.89018-0.12717 0.89018-0.25434 0.06368-0.31802 1.081 0.06349 1.2717 0 0 0.25434 1.971 0.38151 2.2255 0.12717 0.25434 3.3064 1.5897 3.3064 1.5897s0.445 0.50868 0.63584 0.25434l4.3872 1.6532s-0.19066 0.50868 0.38151 0.69934c5.2139 1.7804 13.798 3.0521 14.052 2.9249 0.25434-0.12717 0.82669-0.89018 0.82669-0.89018 4.5144-0.25434 8.9653-0.69934 9.1562-0.76301 0.19085-0.06349 0.63584-1.1445 0.63584-1.1445l0.30162-0.06707 0.0162-0.12378c0.82669 0 2.0347-3.1157 2.5434-4.8959 0.50868-1.7804 2.6705-5.0233 7.1849-4.8959 4.5144 0.12717 4.3872 5.0868 4.0694 7.8845l-0.08704-0.04371c-0.0324 0.26621-0.10984 0.62228-0.29447 0.80672-0.31802 0.31802 0.19085 0.69952 1.3989 0.50868l22.062-3.56c1.3913-0.22269 1.711-0.25038 2.5364-0.25377l0.007-0.000565c1.2082-0.57235 1.9075-2.734 2.6069-5.2139 0.69933-2.4797 2.3527-4.0057 4.0694-4.1966 1.7167-0.19066 2.5434 0.95386 2.6705 2.7977 0.12717 1.844-0.38151 2.7977-0.38151 2.7977l-0.31802-0.06368c0.0068 0.07234 0.01074 0.15826 0.01149 0.25641l0.02054 0.09627z"/>
  <path id="path86456" d="m38.993 38.806c0 2.1619 1.3352 5.6589 4.5781 5.8498l2.6069 0.06349c5.2774-0.31802 5.4683-8.0751 5.4683-8.0751s0.57235-0.12717 1.1445 0.25434c0.31802-2.7977 0.44518-7.7573-4.0694-7.8845-4.5144-0.12717-6.6765 3.1155-7.1849 4.8959-0.50868 1.7804-1.7167 4.8961-2.5434 4.8961z"/>
  <path id="path86458" d="m78.416 34.355s0.31802 3.4972 3.0521 3.4972h1.3989c3.4336 0 4.3237-6.0406 4.1966-7.3758l0.31802 0.06368s0.50868-0.95386 0.38151-2.7977c-0.12717-1.844-0.95386-2.9884-2.6705-2.7977-1.7167 0.19085-3.3701 1.7169-4.0694 4.1966-0.69952 2.4795-1.399 4.6414-2.6071 5.2137z"/>
  <path id="path86460" d="m41.474 11.465c-2.1619 1.4623-7.6301 6.1041-8.584 7.3121 0 0 4.4509 0.19085 11.318 0.89018 6.8671 0.69934 10.428 1.5897 10.428 1.5897 1.2082-2.6705 3.3701-6.6128 4.4509-8.3931-4.8961-0.95367-11.064-1.526-17.613-1.3989z"/>
  <path id="path86462" d="m67.289 12.355s-3.8786-0.12717-4.7689 0.31802c-0.89018 0.445-1.208 0.8265-1.7167 1.7804-0.50868 0.95386-2.8614 5.2774-3.5607 6.9306-0.12717 0.38151 0.12717 0.50868 1.3989 0.44519s9.2198-0.82669 9.2198-0.82669c-0.000189-4.8324-0.57236-8.6475-0.57236-8.6475z"/>
  <path id="path86464" d="m69.323 12.164s1.081 4.8324 1.081 8.5838l8.5203-0.89018c0-2.1619-2.289-7.6301-2.289-7.6301l-7.3136-0.06349z"/>
  <path id="path86466" d="m39.248 38.869-0.57235 0.12717s-0.445 1.0808-0.63584 1.1445c-0.19066 0.06349-4.6416 0.50868-9.1562 0.76301 0 0-0.57235 0.76301-0.82669 0.89018s-8.8381-1.1445-14.052-2.9249c-0.57217-0.19066-0.38151-0.69934-0.38151-0.69934l-4.3875-1.658c-0.1909 0.255-0.6359-0.254-0.6359-0.254s-3.179-1.3354-3.3062-1.5897c-0.1273-0.258-0.3817-2.228-0.3817-2.228-0.3815-0.191-0.318-1.208-0.0635-1.272 0 0-0.063679-0.76301 0.12717-0.89018s1.971-0.82669 1.971-0.82669 0.12717-1.0174 0.57235-1.1445c-0.12717-1.081-0.06349-2.8614 0.31802-3.3701 0.38151-0.50868 2.4162-1.3989 11.572-3.3699 9.1562-1.971 10.96-1.8736 11.445-2.4799 0.25434-0.31802 1.526-0.38151 1.526-0.38151-0.19085-0.8265 0.19066-1.844 1.8439-1.844 1.5897-1.7167 6.2313-5.3411 7.1851-5.8496 0.95367-0.50868 3.7514-1.6532 15.642-1.5897 11.89 0.06349 21.745 1.3352 22.762 1.526 1.0174 0.19066 1.4623 0.31802 2.0982 1.7167 0.63584 1.3987 2.1619 5.1502 2.1619 5.1502s6.5491 0.50868 7.6301 0.76301c1.081 0.25434 0.98419 0.33196 1.2082 1.526 0.19066 1.0174 0.31802 3.8151 0.12717 5.0233 1.2082 0 1.2082 0.31802 1.2717 0.57235 0.06349 0.25434 0.06349 1.0808 0 1.3989-0.06349 0.31802-0.38697 0.52488-0.57236 1.0808-0.38151 1.1445-0.445 1.4625-1.3352 1.7804-0.89018 0.31802-3.7535 1.0665-4.2601 1.1445-0.82669 0.12717-1.2717-0.50868-1.2717-0.50868" stroke="#000" stroke-width=".28260" fill="none"/>
  <path id="path86468" d="m78.798 34.355c-1.1445 0-1.3352 0-2.9249 0.25434l-22.063 3.561c-1.2082 0.19085-1.7169-0.19085-1.3989-0.50868 0.31802-0.31783 0.31802-1.1445 0.31802-1.1445" stroke="#000" stroke-width=".28260" fill="none"/>
  <path id="path86470" d="m20.713 29.618c0.15901 0 0.19085-1.7167 0.03184-1.7804-0.15901-0.06368-4.4826-0.5245-4.6416-0.55634v0.98551l0.69933 0.77903 3.9104 0.57217z"/>
  <path id="path86472" d="m20.682 30.221c-0.15298-0.04371-3.9422-0.60419-3.9422-0.60419l-0.38151 0.89018-0.41335-0.06349v0.6675s4.5144 0.76301 4.7052 0.79485c0.19085 0.03203 0.25434-1.6212 0.03184-1.6848z"/>
  <path id="path86474" d="m15.436 30.986v-0.604l-0.31802-0.09533-0.15901-0.98551-2.2572-0.445c-0.19085-0.06349-0.15901 1.526 0 1.5897l2.7342 0.54014z"/>
  <path id="path86476" d="m15.484 27.25v0.92202l-0.46101 0.46101-2.3207-0.44519c-0.15901-0.06349-0.12717-1.5897 0.06349-1.5579l2.7182 0.62002z"/>
  <g stroke="#000" fill="#fff">
   <polygon id="polygon86478" transform="matrix(.18840 0 0 .18840 4.5012 9.2864)" points="90.777 118.55 126.22 123.11 126.89 104.21 91.115 99.819"/>
   <g stroke-width=".18840">
    <path id="path86480" d="m28.693 28.982-0.03165 3.4654s0.92202 0.12717 1.685 0.12717l0.03165-3.5607c-0.79485 0.12717-1.685-0.03184-1.685-0.03184z"/>
    <path id="path86482" d="m30.6 28.982 0.03184 3.5289 1.4307-0.54052c0.2225-0.54052 0.33591-2.7751 0.06349-2.9567-0.28599-0.19066-1.526-0.03165-1.526-0.03165z"/>
    <path id="path86484" d="m12.193 26.598-0.03165 3.2111-3.9422-1.2082s-0.06349-2.6387 0.2225-3.0202l3.7514 1.0174z"/>
    <path id="path86486" d="m8.1872 25.517c-0.3496 0.572-0.2225 2.988-0.2225 2.988l-0.3496-0.222c-0.12717-0.28561-0.031839-2.7018 0.15901-2.9562l0.41316 0.19085z"/>
   </g>
  </g>
  <g stroke="#000" stroke-width=".094199" fill="none">
   <path id="path86488" d="m7.8376 24.945c0.34967 0.31802 4.4191 1.367 4.4191 1.367 0.06349-0.445 0.09533-0.69934 0.69934-0.50868 0.604 0.19066 2.2254 0.50868 2.9249 0.63584 0.69934 0.12717 4.6416 0.54051 5.1821 0.63584 0.54052 0.09533 0.604 0.38151 0.604 0.69952 0 0 5.3411 0.6675 6.7718 0.76301 1.4307 0.09552 2.7659-0.41335 3.9104-0.76301 1.145-0.349 11.858-3.656 17.2-4.673 5.341-1.017 5.531-1.399 5.531-1.399"/>
   <path id="path86490" d="m10.127 23.864c1.0174 0.12717 4.1331 0.82669 4.1331 0.82669"/>
   <path id="path86492" d="m12.352 25.962c0.12717-0.38151 1.1445-1.1445 3.8786-2.0347 2.7342-0.89018 12.526-3.5607 14.243-3.8786 1.7169-0.31783 2.4162-1.2717 2.4162-1.2717"/>
   <path id="path86494" d="m21.063 27.075c3.0521-0.98551 16.341-4.1647 22.318-5.0549 0 0-16.214 3.4336-21.715 5.7544"/>
   <path id="path86496" d="m14.514 24.563c0.445-0.12717 10.154 0.98909 10.237 1.526 0.06349 0.41335 0.69933 0.41335 0.69933 0.41335s5.1502 0.92202 5.5318 0.98551c0.38151 0.06349 1.0174 0.12717 1.2082 0.44518 0.19085 0.31783 0.54146 0.56651 0.50868 1.9075-0.06349 2.6069-0.06349 2.7342-0.76301 2.9249-0.69934 0.19085-1.9107 0.37114-3.3699 0.25434-1.5897-0.12717-7.3121-1.0174-7.3121-1.0174"/>
   <path id="path86498" d="m21.603 31.621s-0.54052 0.76301-0.92202 0.76301c-0.38151 0-3.4972-0.57235-5.1502-0.89018s-3.0521-0.63584-3.0521-0.63584c-0.50868-0.19066-0.31802-1.049-0.31802-1.049"/>
   <path id="path86500" d="m7.3289 28.569c0.63584 0.44518 3.3064 1.2082 4.8324 1.7169"/>
   <path id="path86502" d="m5.2307 34.419s0.38151 0.38151 1.3352 0.76301c0.95367 0.38151 6.9943 2.289 6.9943 2.289s3.1155 0.8265 7.0578 1.3989c5.7842 0.83969 6.8034 0.76301 8.8381 0.76301s9.2196-0.63584 9.2196-0.63584c0.69934-0.50868 1.7804-3.3064 2.0984-4.1966 0.31802-0.89018 0.57216-1.6532 0.57216-1.6532-0.31802 0.19066-0.89018-0.31802-1.2717-0.57235-4.7052 0.57235-10.046 1.3352-11.127 1.3352-1.0808 0-12.971-1.2717-14.306-1.5897s-8.6475-2.352-8.6475-2.352"/>
   <path id="path86504" d="m13.624 38.17"/>
   <path id="path86506" d="m28.884 40.903s-9.1562-0.95386-10.555-1.208c-1.3989-0.25434-5.0233-1.6532-5.0233-1.6532"/>
   <path id="path86508" d="m40.964 33.147s-0.1413 0.01959-0.39149 0.05445"/>
   <path id="path86510" d="m40.574 33.202c-1.709 0.236-8.5 1.17-10.164 1.281-1.907 0.127-14.624-1.399-16.341-1.717-1.716-0.318-8.9651-2.289-8.9651-2.289"/>
   <path id="path86512" d="m40.455 33.91c-1.9933 0.35664-7.6851 1.3474-9.6646 1.3996-2.4162 0.06349-15.896-1.3989-17.422-1.7804-1.526-0.38151-8.5201-2.3527-8.5201-2.3527"/>
   <path id="path86514" d="m40.255 34.238c-2.088 0.364-7.821 1.338-9.782 1.389-2.416 0.064-15.896-1.398-17.422-1.78-1.526-0.381-8.3295-2.353-8.3295-2.353"/>
   <path id="path86516" d="m20.999 32.32s6.4219 1.1445 7.503 1.1445c1.081 0 4.0057-0.06349 4.4509-0.57217 0.445-0.50868 0.06349-1.4625 1.3352-1.7169 1.2717-0.25434 5.7226-0.89018 6.9943-0.69934"/>
   <path id="path86518" d="m12.479 30.858s-4.1331-1.208-5.4048-1.7804"/>
   <path id="path86520" d="m41.346 33.147c0.82669-1.9712 3.1157-4.5781 6.8034-4.5781 3.6879 0 4.9713 2.416 5.0233 5.2139 0.07291 3.9328-0.63584 4.3237-0.63584 4.3237"/>
   <path id="path86522" d="m40.075 32.574c1.2082-2.0984 2.6705-5.4048 7.6936-5.4683 5.0231-0.06349 5.5954 2.9884 5.8498 3.9422 0.31802 0.25434 0.57236 1.3352 0.31802 1.5897 0 1.844-0.12717 4.2601-1.2717 4.9596"/>
   <path id="path86524" d="m40.583 33.337c-0.19085 0.69933-0.38151 2.1619-1.2082 2.289-0.8265 0.12717-7.7573 1.0174-9.2196 1.0174-1.4625 0-15.642-1.3989-17.104-1.7804-1.4622-0.38056-8.1384-2.4153-8.1384-2.4153"/>
   <path id="path86526" d="m13.051 34.863s0.44518 1.5897 0.50868 2.6069"/>
  </g>
  <g stroke="#000" stroke-width=".094199">
   <path id="path86530" d="m20.054 39.634c0.10117 0 0.18294-0.08195 0.18294-0.18294v-3.005c0-0.10117-0.08195-0.18312-0.18294-0.18312l-0.71478-0.09533c-0.10117 0-0.18312 0.08195-0.18312 0.18312v3.0038c0 0.10117 0.08195 0.18312 0.18312 0.18312l0.71478 0.09514z" fill="#fff"/>
   <path id="path86532" d="m19.76 36.199c0.92202 0.09533 1.1127 0.31802 1.1127 0.79485 0 0.47684-0.12717 1.9392 0.34967 1.971l-0.604-0.09533s-0.38151 0.23814-0.38151 0.58008v-2.8691c0.03184-0.28618-0.05577-0.34967-0.47684-0.38151z"/>
   <path id="path86534" d="m20.054 39.634s0.42145-0.01582 0.58046-0.07932c0.15882-0.06368 0.23832-0.09533 0.23832-0.22269v-0.38151" fill="none"/>
   <path id="path86538" d="m9.1505 36.7c0.059722 0 0.10814-0.05388 0.10814-0.1202v-1.9708c0-0.06632-0.048418-0.12001-0.10814-0.12001l-0.422-0.062c-0.059722 0-0.10814 0.05369-0.10814 0.12001v1.9708c0 0.06632 0.048418 0.12001 0.10814 0.12001l0.42201 0.06274z" fill="#fff"/>
   <path id="path86540" d="m8.977 34.449c0.54447 0.06255 0.65694 0.20856 0.65694 0.52149s-0.074983 1.2723 0.20648 1.2932l-0.35664-0.06255s-0.22532 0.15618-0.22532 0.38056v-1.8823c0.01884-0.18783-0.032781-0.22966-0.28147-0.25038z"/>
  </g>
  <g stroke-width=".094199" fill="none">
   <path id="path86542" d="m9.1505 36.7s0.24887-0.01055 0.3427-0.05219c0.093822-0.04183 0.14073-0.06255 0.14073-0.14601v-0.25038" stroke="#000"/>
   <g stroke="#fff">
    <line id="line86544" x1="17.343" x2="17.343" y1="27.297" y2="31.525"/>
    <line id="line86546" x1="18.679" x2="18.679" y1="27.488" y2="31.717"/>
    <line id="line86548" x1="20.014" x2="20.014" y1="27.679" y2="31.907"/>
    <line id="line86550" x1="14.737" x2="14.737" y1="26.979" y2="30.922"/>
    <line id="line86552" x1="13.91" x2="13.91" y1="26.725" y2="30.762"/>
    <line id="line86554" x1="13.147" x2="13.147" y1="26.534" y2="30.572"/>
    <line id="line86556" x1="12.543" x2="15.627" y1="26.852" y2="27.488"/>
    <line id="line86558" x1="12.543" x2="15.627" y1="27.138" y2="27.806"/>
    <line id="line86560" x1="12.543" x2="15.627" y1="27.488" y2="28.124"/>
    <line id="line86562" x1="12.543" x2="15.404" y1="27.838" y2="28.411"/>
    <line id="line86564" x1="12.543" x2="15.118" y1="29.11" y2="29.618"/>
    <line id="line86566" x1="12.543" x2="15.118" y1="29.428" y2="29.937"/>
    <line id="line86568" x1="12.543" x2="15.531" y1="29.745" y2="30.381"/>
    <line id="line86570" x1="12.543" x2="15.531" y1="30.063" y2="30.7"/>
    <line id="line86572" x1="16.008" x2="20.999" y1="27.583" y2="28.124"/>
    <line id="line86574" x1="16.008" x2="20.999" y1="27.997" y2="28.537"/>
    <line id="line86576" x1="16.008" x2="20.968" y1="28.315" y2="28.951"/>
    <line id="line86578" x1="16.39" x2="21.031" y1="28.695" y2="29.332"/>
    <line id="line86580" x1="16.612" x2="20.936" y1="29.905" y2="30.604"/>
    <line id="line86582" x1="16.421" x2="20.936" y1="30.221" y2="30.986"/>
    <line id="line86584" x1="15.849" x2="20.904" y1="30.445" y2="31.303"/>
    <line id="line86586" x1="15.913" x2="20.904" y1="30.762" y2="31.653"/>
   </g>
  </g>
  <polygon id="polygon86588" points="62.765 112.64 65.803 105.72 59.896 98.807 54.834 103.36 56.353 111.46" transform="matrix(.18840 0 0 .18840 4.5012 9.2864)" stroke="#000"/>
  <g stroke="#fff" fill="none">
   <g stroke-width=".5">
    <polygon id="polygon86592" transform="matrix(.18840 0 0 .18840 4.5012 9.2864)" points="59.896 101 56.184 103.87 57.534 110.62 62.09 111.46 64.284 105.89"/>
    <polyline id="polyline86594" transform="matrix(.18840 0 0 .18840 4.5012 9.2864)" points="59.896 101 59.728 106.06 62.09 111.46"/>
    <polyline id="polyline86596" transform="matrix(.18840 0 0 .18840 4.5012 9.2864)" points="57.534 110.62 59.728 106.06 64.284 105.89"/>
   </g>
   <line id="line86598" stroke-width=".094199" y2="28.855" y1="29.268" x2="15.086" x1="15.754"/>
  </g>
  <g fill="#fff">
   <path id="path86600" d="m47.769 11.846s-3.1792-0.19085-4.0057-0.12717c-0.82669 0.06349-1.3352 0.31802-2.289 1.0808-0.95386 0.76282-4.9596 4.0694-5.2139 4.5144-0.25434 0.445-0.19085 1.4623-0.19085 1.4623s5.7226 0.19085 8.5203-0.06349c0 0.000189 1.7804-4.8957 3.1792-6.8669z"/>
   <path id="path86602" d="m57.051 12.864s-4.5144-0.76301-6.6765-0.8265c0 0-0.69933 1.0808-0.8265 1.5897 0.31802 0.12717 0.25434 0.445 0.25434 0.445l-0.12717 0.89018s-0.12717 0.25434-0.38151 0.25434h-0.31802s-0.50868 1.7167-0.69934 2.9247h2.734c0.19085-1.3989 0.31802-1.9075 1.2082-1.9075l2.4162 0.12717c0.63584 0.12717 1.2082 0.19085 1.2082 0.69934l1.208-4.1964z"/>
   <path id="path86604" d="m63.982 12.673s-0.69934-0.25434-0.82669 0.76301l-0.25434 1.9075 0.76301 0.76301 3.7514 0.25434s-0.25434-3.0521-0.38151-3.6879h-3.0521z"/>
   <path id="path86606" d="m69.768 12.482s0.50868 2.4162 0.63584 4.0057l1.0808 0.06368c0-0.50868 0.19085-0.63584 1.0808-0.57235 0.89018 0.06349 1.2717 0.19085 1.7804 0.31802 0.50868 0.12717 0.50868 0.63584 0.50868 0.63584l3.2427 0.25434s-1.2717-4.1329-1.5897-4.6416l-6.739-0.06368z"/>
  </g>
  <g stroke="#000" fill="none">
   <line id="line86608" stroke-width=".28260" x1="34.225" x2="32.38" y1="16.869" y2="18.713"/>
   <g stroke-width=".094199">
    <path id="path86610" d="m32.38 18.713c-0.31802 0.31802-0.28618 0.47684 1.4623 0.44518 1.0808-0.01959 8.6156 0.57217 11.604 0.89018 2.9886 0.31802 8.2025 1.3035 8.8381 1.4942 0.63584 0.19085 0.79485 0.15901 1.1129-0.47684 0.21647-0.43313 1.2717-2.6069 2.1619-4.3237 0.89018-1.7169 1.7804-3.2427 1.971-3.6879 0.19085-0.44518-0.06349-0.50868-1.1445-0.69934-1.081-0.19085-6.74-1.0808-10.364-1.1445-3.6242-0.06349-6.6128-0.19066-6.6128-0.19066"/>
    <path id="path86612" d="m54.89 21.829c-0.25434 0.76301 0.445 3.5607 0.445 8.9653 0.63584 0.12717 0.25434 1.526 0.25434 1.526-0.06349 1.9075-0.50868 3.9422-1.1445 5.1502l23.653-3.7516c0.38151-0.06349 0.85589-0.0763 1.4625-1.6532 1.2717-3.3064 1.7804-6.74 5.3411-7.3756 1.8324-0.32725 3.0745 0.95292 3.1157 2.3525 0.06349 2.1619 0 4.3872-0.95386 3.4336"/>
    <path id="path86614" d="m53.619 31.048c0.95386 0.06349 2.0347-0.19085 2.0347-0.19085l24.352-3.1804c0.82669-0.19085 0.44518 0.95386 0.12717 1.0174l-24.543 3.6248s-1.1445 0.19085-1.6532 0.12717"/>
    <path id="path86616" d="m80.132 27.615c0.76301-2.1619 1.399-4.248 4.5781-4.3237 2.6705-0.06349 3.2427 1.7169 3.3699 2.1619 0.12717 0.445 0.95386 0.25434 0.95386 0.25434l4.0057-0.57235"/>
    <path id="path86618" d="m78.544 14.899s0.63584 1.6532 1.1445 3.6242c0.52262 2.0251 0.06349 1.9075-1.0174 2.0347-1.0808 0.12717-18.757 1.971-20.728 2.0982-1.971 0.12717-1.526-0.69934-1.1445-1.3989 0 0 2.6705-5.5318 3.6879-7.1849 1.0174-1.6532 1.2717-1.9075 3.8151-2.0347 2.5434-0.12717 7.6301-0.25434 9.6012-0.25434 2.7977 0 3.0521-0.06349 3.4972 1.2082 0.44518 1.2717 1.6532 4.3237 1.844 5.9133 0 0 0.25434 0.8265 0.06349 1.0808-0.19085 0.25434-1.7167 0.31802-1.7167 0.31802l-19.171 1.8757c-1.3989 0.06368-1.5897 0.06368-1.1764-0.79485"/>
    <path id="path86620" d="m81.658 24.5c0.50868-0.76301 0.38151-1.4625-0.19066-3.6242-0.57273-2.1619-2.6696-7.6936-3.0521-8.584-0.38056-0.89018-0.69896-1.2717-2.7337-1.2717s-11.7 0.31783-13.098 0.50868c-1.3989 0.19085-1.844 0.19085-2.9886 2.5434-1.1445 2.3525-3.2427 6.4219-3.2427 6.4219s-0.57217 1.1445-1.4623 1.0808"/>
    <path id="path86622" d="m67.861 21.002 0.63584 0.12717c0-3.7832-0.76301-9.188-0.76301-9.188l-0.445 0.41335"/>
    <path id="path86624" d="m69.165 21.13c0-3.5289-0.92202-9.2198-0.92202-9.2198"/>
    <path id="path86626" d="m68.815 11.91s1.0808 5.7544 1.0808 9.1243c0.445 0.2225 0.57235 0.54051 0.63584 2.0029 0.06349 1.4625 0.19085 4.1966 0.06349 5.7861 0.50868 0 0.50868 1.2717 0.50868 1.2717s-0.25434 2.7977-0.95386 4.8324"/>
    <path id="path86628" d="m88.843 25.771-1.0808 0.19066c0.76301 0.69952 0.76301 0.69952 0.8265 1.9075 0.06368 1.2082 0 2.289-0.38151 2.6069-0.38151 0.31783-0.76301 0.25434-0.76301 0.25434"/>
    <line id="line86630" x1="88.589" x2="94.313" y1="26.789" y2="25.708"/>
    <line id="line86632" x1="88.525" x2="94.313" y1="27.17" y2="26.026"/>
    <line id="line86634" x1="88.653" x2="94.313" y1="28.315" y2="27.107"/>
    <path id="path86636" d="m53.873 31.557c0.69934 0 1.8439-0.19085 1.8439-0.19085l24.669-3.4336"/>
    <path id="path86638" d="m54.031 31.907s1.0808-0.12717 1.7167-0.19066c0.63584-0.06349 24.607-3.5607 24.607-3.5607"/>
   </g>
  </g>
  <ellipse id="ellipse86642" rx="5.4526" transform="rotate(97.858)" ry="3.6285" cy="-51.15" cx="30.839" fill="#fff"/>
  <path id="path86644" fill="#fff" d="m46.452 37.542"/>
  <g stroke="#000" stroke-width=".094199">
   <path id="path86648" d="m44.176 41.542c-0.34307-0.40864-0.61625-0.92956-0.8022-1.5258 0.15317-0.07498 0.5311 0.10644 0.86173 0.27902 0.37096 0.19367 0.06236 0.91957-0.05953 1.2468z"/>
   <path id="path86650" d="m44.112 40.235s0.74964 0.3312 1.2677 0.48814c0.30634 0.11342-0.72345 0.02807-0.85382 0.42295" fill="none"/>
   <path id="path86652" d="m44.176 41.542s0.23964 0.32913 0.45856 0.45894" fill="none"/>
   <path id="path86656" d="m46.294 42.49c-0.46685 0.04465-0.92409-0.05501-1.341-0.2907 0.09552-0.1982 0.49228-0.43369 0.84516-0.63019 0.39582-0.22062 0.45479 0.57725 0.49586 0.92089z"/>
   <path id="path86658" d="m45.668 41.648s0.77394-0.48701 1.2772-0.8736c0.30671-0.21402-0.59458 0.7112-0.5311 1.1093" fill="none"/>
   <path id="path86660" d="m46.294 42.49s0.34533-0.000942 0.58554-0.1202" fill="none"/>
   <path id="path86664" d="m48.487 41.124c-0.37209 0.47702-0.79937 0.84497-1.2523 1.0803-0.0066-0.22872 0.22306-0.7713 0.43313-1.2446 0.2355-0.53147 0.63434-0.03466 0.81916 0.16428z"/>
   <path id="path86666" d="m47.592 41.137s0.43595-1.0773 0.68916-1.8263c0.16353-0.44142-0.18764 1.0614 0.03994 1.2766" fill="none"/>
   <path id="path86668" d="m48.487 41.124s0.28919-0.33064 0.43878-0.643" fill="none"/>
   <path id="path86672" d="m49.726 38.081c-0.10324 0.68634-0.30068 1.3499-0.57763 1.9458-0.10569-0.15223-0.15053-0.74775-0.18162-1.2766-0.03504-0.59364 0.51696-0.63057 0.75924-0.66919z"/>
   <path id="path86674" d="m48.982 38.946s-0.10607-1.1635-0.22156-1.9247c-0.05614-0.46233 0.30747 0.91486 0.59251 0.84666" fill="none"/>
   <path id="path86676" d="m49.726 38.081s0.09778-0.50566 0.08648-0.86512" fill="none"/>
   <path id="path86680" d="m49.436 34.786c0.21383 0.57424 0.33874 1.2229 0.36738 1.9008-0.15524-0.0045-0.45366-0.37435-0.7112-0.7112-0.28919-0.37793 0.15769-0.93125 0.34383-1.1895z"/>
   <path id="path86682" d="m49.189 36.097s-0.59835-0.70536-1.0285-1.1223c-0.24963-0.26677 0.65845 0.34044 0.86758 0.02035" fill="none"/>
   <path id="path86684" d="m49.436 34.786s-0.13923-0.44406-0.30615-0.68238" fill="none"/>
   <path id="path86688" d="m47.748 32.78c0.43087 0.19367 0.81953 0.52375 1.1404 0.96648-0.13226 0.14526-0.54447 0.17408-0.90808 0.18689-0.40807 0.01432-0.27544-0.79636-0.2323-1.1534z"/>
   <path id="path86690" d="m48.115 33.925s-0.81068 0.08289-1.3542 0.20516c-0.32612 0.05369 0.70141-0.39338 0.73683-0.81539" fill="none"/>
   <path id="path86692" d="m47.748 32.78s-0.31123-0.17465-0.55559-0.1803" fill="none"/>
   <path id="path86696" d="m45.455 33.002c0.44632-0.2777 0.91694-0.42032 1.3798-0.42013-0.04729 0.22721-0.38075 0.64112-0.68012 0.99757-0.33591 0.40016-0.57951-0.28863-0.69971-0.57744z"/>
   <path id="path86698" d="m46.263 33.445s-0.64376 0.83253-1.0462 1.4367c-0.25019 0.34891 0.41617-0.94312 0.26131-1.2694" fill="none"/>
   <path id="path86700" d="m45.455 33.002s-0.33761 0.17653-0.54504 0.40619" fill="none"/>
   <path id="path86704" d="m43.628 35.349c0.25283-0.61908 0.58516-1.1679 0.97364-1.6101 0.05972 0.20272-0.03862 0.80823-0.13358 1.3416-0.10701 0.59835-0.61286 0.35381-0.84007 0.26847z"/>
   <path id="path86706" d="m44.5 34.882s-0.17559 1.1924-0.24868 1.9959c-0.05709 0.48098-0.06387-1.0516-0.33667-1.1296" fill="none"/>
   <path id="path86708" d="m43.628 35.349s-0.20592 0.445-0.2794 0.80239" fill="none"/>
   <path id="path86712" d="m43.123 38.722c-0.05897-0.6707-0.02035-1.3689 0.11191-2.0468 0.13885 0.08346 0.3216 0.59703 0.47514 1.0577 0.17257 0.51696-0.35909 0.83102-0.58705 0.98909z"/>
  </g>
  <g fill="none">
   <path id="path86714" d="m43.65 37.563s0.37472 0.99437 0.66523 1.6212c0.16259 0.38791-0.51395-0.66787-0.77714-0.4612" stroke="#000" stroke-width=".094199"/>
   <path id="path86716" d="m43.123 38.722s0.02204 0.50528 0.117 0.8233" stroke="#000" stroke-width=".094199"/>
   <ellipse id="ellipse86720" rx="5.864" transform="rotate(97.858)" stroke="#fff" ry="3.9322" cy="-51.176" cx="30.873" stroke-width=".37679"/>
   <path id="path86722" d="m46.473 37.578" stroke="#fff" stroke-width=".37680"/>
   <ellipse id="ellipse86726" rx="3.2414" transform="rotate(97.858)" stroke="#000" ry="2.1569" cy="-51.15" cx="30.839" stroke-width=".094198"/>
   <path id="path86728" d="m46.452 37.542" stroke="#000" stroke-width=".094199"/>
  </g>
  <path id="path86732" fill="#fff" d="m83.173 36.005c1.2685 0.21308 2.5102-1.4953 2.7732-3.8158 0.26319-2.3205-0.55182-4.3746-1.8205-4.5877-1.2685-0.21308-2.51 1.4953-2.7732 3.8158-0.26319 2.3205 0.55201 4.3746 1.8205 4.5877z"/>
  <path id="path86734" fill="#fff" d="m83.649 31.804"/>
  <g stroke="#000" stroke-width=".094199">
   <path id="path86738" d="m82.195 34.914c-0.2193-0.31802-0.39375-0.72288-0.51263-1.1869 0.09778-0.05822 0.33931 0.0829 0.5505 0.21704 0.23719 0.15053 0.04013 0.71516-0.03787 0.96988z"/>
   <path id="path86740" d="m82.153 33.899s0.4791 0.25754 0.81011 0.37962c0.19575 0.08817-0.46252 0.02185-0.5456 0.32894" fill="none"/>
   <path id="path86742" d="m82.195 34.914s0.15317 0.25603 0.29296 0.3572" fill="none"/>
   <path id="path86746" d="m83.548 35.653c-0.29823 0.03467-0.59044-0.04295-0.85684-0.22627 0.06104-0.15411 0.31462-0.33761 0.53995-0.4904 0.25302-0.17144 0.2907 0.44952 0.31689 0.71667z"/>
   <path id="path86748" d="m83.148 34.997s0.49454-0.37887 0.81614-0.67955c0.19594-0.16654-0.38 0.55333-0.3393 0.86286" fill="none"/>
   <path id="path86750" d="m83.548 35.653s0.22062-0.000753 0.37416-0.09344" fill="none"/>
   <path id="path86754" d="m84.949 34.59c-0.23776 0.37114-0.51075 0.65732-0.80013 0.84026-0.0041-0.17785 0.14243-0.59986 0.27676-0.96818 0.15034-0.41335 0.40524-0.02694 0.52337 0.12792z"/>
   <path id="path86756" d="m84.376 34.6s0.27864-0.83818 0.44029-1.4209c0.10437-0.34345-0.11982 0.82556 0.02562 0.99305" fill="none"/>
   <path id="path86758" d="m84.949 34.59s0.18482-0.25735 0.28034-0.5002" fill="none"/>
   <path id="path86762" d="m85.742 32.222c-0.06594 0.53373-0.19217 1.0499-0.36907 1.5136-0.06764-0.11831-0.09627-0.58159-0.11605-0.99305-0.02242-0.46176 0.33045-0.4904 0.48513-0.52054z"/>
   <path id="path86764" d="m85.266 32.895s-0.06763-0.90525-0.14149-1.4972c-0.0358-0.35965 0.19631 0.71177 0.37849 0.65845" fill="none"/>
   <path id="path86766" d="m85.742 32.222s0.06255-0.39338 0.0552-0.67296" fill="none"/>
   <path id="path86770" d="m85.556 29.66c0.13678 0.44688 0.21647 0.95122 0.23474 1.4787-0.09929-0.0036-0.28994-0.29126-0.4546-0.55333-0.18463-0.29409 0.10098-0.72439 0.21986-0.92541z"/>
   <path id="path86772" d="m85.398 30.679s-0.38226-0.54862-0.65713-0.87304c-0.15957-0.20762 0.42069 0.2647 0.55446 0.01582" fill="none"/>
   <path id="path86774" d="m85.556 29.66s-0.08892-0.34533-0.19556-0.53072" fill="none"/>
   <path id="path86778" d="m84.478 28.099c0.27525 0.15072 0.52375 0.40751 0.72872 0.7519-0.0844 0.11304-0.34797 0.13546-0.58027 0.14526-0.26074 0.0113-0.17596-0.61945-0.14846-0.89715z"/>
   <path id="path86780" d="m84.712 28.989s-0.5181 0.06462-0.86531 0.15976c-0.20837 0.04164 0.4482-0.30615 0.47081-0.63415" fill="none"/>
   <path id="path86782" d="m84.478 28.099s-0.19895-0.13584-0.35494-0.14036" fill="none"/>
   <path id="path86786" d="m83.012 28.273c0.28524-0.2159 0.58592-0.32687 0.8817-0.32668-0.03033 0.17672-0.24322 0.49869-0.43464 0.77601-0.21477 0.31123-0.37039-0.22476-0.44707-0.44933z"/>
   <path id="path86788" d="m83.529 28.616s-0.41146 0.64771-0.66862 1.1176c-0.15976 0.27129 0.26602-0.73381 0.16692-0.98758" fill="none"/>
   <path id="path86790" d="m83.012 28.273s-0.21572 0.13734-0.34835 0.31594" fill="none"/>
   <path id="path86794" d="m81.844 30.097c0.16146-0.48155 0.37397-0.90846 0.62209-1.2525 0.03825 0.15769-0.02468 0.62869-0.08553 1.0437-0.06801 0.46534-0.39149 0.27506-0.53656 0.20875z"/>
   <path id="path86796" d="m82.402 29.733s-0.11228 0.92748-0.15882 1.5526c-0.03655 0.37397-0.04069-0.81802-0.21515-0.87888" fill="none"/>
   <path id="path86798" d="m81.844 30.097s-0.13169 0.34609-0.1786 0.62416" fill="none"/>
   <path id="path86802" d="m81.522 32.721c-0.03768-0.52168-0.013-1.0648 0.0714-1.5922 0.08874 0.06481 0.20554 0.4644 0.3037 0.82274 0.11021 0.40223-0.22947 0.64658-0.3751 0.76942z"/>
  </g>
  <g fill="none">
   <path id="path86804" d="m81.859 31.821s0.23946 0.77338 0.42503 1.2611c0.104 0.30181-0.32838-0.5196-0.49643-0.3589" stroke="#000" stroke-width=".094199"/>
   <path id="path86806" d="m81.522 32.721s0.01413 0.393 0.07461 0.64056" stroke="#000" stroke-width=".094199"/>
   <path id="path86810" d="m83.15 36.352c1.3746 0.23098 2.7184-1.605 3.0014-4.1007 0.28297-2.4957-0.60212-4.7062-1.9767-4.9372-1.3746-0.23098-2.7184 1.605-3.0014 4.1007-0.28279 2.4957 0.60212 4.7062 1.9767 4.9372z" stroke="#fff" stroke-width=".37680"/>
   <path id="path86812" d="m83.662 31.832" stroke="#fff" stroke-width=".37680"/>
   <g stroke="#000" stroke-width=".094199">
    <path id="path86816" d="m83.367 34.302c0.75397 0.12679 1.4921-0.88886 1.6485-2.2683 0.15637-1.3795-0.32819-2.6005-1.0822-2.7273-0.75397-0.1266-1.4921 0.88886-1.6485 2.2685-0.15637 1.3795 0.32819 2.6005 1.0822 2.7271z"/>
    <path id="path86818" d="m83.649 31.804"/>
    <path id="path86820" d="m92.404 18.777c-0.69934-0.19066-8.1388-0.06349-9.6646 0 1.526-0.12717 1.5895-0.31802 1.3352-0.95386"/>
    <path id="path86822" d="m91.293 18.745c0.44518 0.63584 0.66768 3.3382 0.604 6.5173 0 0-0.06349 0.57236 0.31802 0.76301 0.38151 0.19066 0.28618 0.34967 0.28618 0.34967v1.081c0 0.34967-0.2225 0.34967-0.38151 1.0808-0.15901 0.73117-0.12717 1.526-0.12717 1.526"/>
    <path id="path86824" d="m68.265 25.194c-0.09401 0.0087-0.17879-0.07819-0.18953-0.19405l-0.182-0.95c-0.01074-0.11605 0.05671-0.21704 0.15053-0.2257l1.4392-0.13357c0.09401-0.0087 0.17879 0.07819 0.18953 0.19405l0.18162 0.94953c0.01074 0.11586-0.05671 0.21704-0.15053 0.2257l-1.4392 0.13357z"/>
   </g>
  </g>
  <path id="path86826" d="m68.152 24.59c-0.09401 0.0087-0.17446-0.03127-0.17973-0.0893l-0.10532-0.52865c-0.0055-0.05803 0.0665-0.1121 0.16033-0.12076l1.4394-0.13357c0.09401-0.0087 0.17446 0.03127 0.17973 0.08911l0.10532 0.52865c0.0055 0.05803-0.0665 0.1121-0.16033 0.12076l-1.4394 0.13376z" stroke="#000" stroke-width=".094199" fill="#fff"/>
  <g stroke="#000" fill="none">
   <ellipse id="ellipse86830" rx=".23361" transform="rotate(84.703)" ry=".15147" cy="-66.952" cx="31.084" stroke-width=".094196"/>
   <path id="path86832" d="m69.534 24.774" stroke-width=".094199"/>
   <path id="path86834" d="m79.634 23.893c-0.09382 0.0087-0.17879-0.07818-0.18953-0.19405l-0.18162-0.94953c-0.01074-0.11586 0.05671-0.21703 0.15053-0.2257l1.4392-0.13357c0.09401-0.0087 0.17879 0.07818 0.18953 0.19424l0.18162 0.94953c0.01074 0.11605-0.05671 0.21704-0.15053 0.2257l-1.4392 0.13339z" stroke-width=".094199"/>
  </g>
  <g stroke="#000" stroke-width=".094199">
   <path id="path86836" d="m79.523 23.289c-0.09401 0.0087-0.17446-0.03127-0.17992-0.08911l-0.105-0.529c-0.0055-0.05803 0.06632-0.1121 0.16033-0.12076l1.4394-0.13357c0.09401-0.0087 0.17446 0.03127 0.17973 0.08911l0.10532 0.52865c0.0053 0.05803-0.06651 0.1121-0.16033 0.12076l-1.4392 0.13358z" fill="#fff"/>
   <path id="path86838" d="m52.791 29.078c0.50868-0.38151 0.95386-0.57236 2.8614-0.82669 1.9075-0.25434 11.509-1.7804 16.341-2.289 4.8322-0.50868 9.2196-1.2717 9.2831-0.89018 0.06349 0.38151-0.38151 1.0808 0.95386 1.0174" fill="none"/>
   <path id="path86840" d="m87.636 24.436c0.57235-0.25434 1.2082-0.50868 4.2601-0.69934" fill="none"/>
   <path id="path86842" d="m93.041 21.193s-0.5245 0.12717-1.224 0.12717c0 0 0.12717 2.8454 0.07932 3.9581l1.1445-0.15901c0.1592-0.41335 0.07969-3.6561 0.000188-3.9262z"/>
   <path id="path86844" d="m28.121 36.517c-0.69934 0.12717-0.19085 2.6705 0.69933 2.6705s8.0115-0.31802 10.174-0.69934" fill="none"/>
  </g>
 </g>
</svg>
