<?xml version="1.0" encoding="UTF-8" standalone="no"?>
<!-- Created with Inkscape (http://www.inkscape.org/) -->
<svg id="svg2" xmlns:rdf="http://www.w3.org/1999/02/22-rdf-syntax-ns#" xmlns="http://www.w3.org/2000/svg" height="45" width="67.5" version="1.1" xmlns:cc="http://creativecommons.org/ns#" xmlns:dc="http://purl.org/dc/elements/1.1/">
 <metadata id="metadata7">
  <rdf:RDF>
   <cc:Work rdf:about="">
    <dc:format>image/svg+xml</dc:format>
    <dc:type rdf:resource="http://purl.org/dc/dcmitype/StillImage"/>
    <dc:title/>
   </cc:Work>
  </rdf:RDF>
 </metadata>
 <g id="g8305">
  <rect id="rect2990" opacity="0" height="45" width="67.5" y="0" x="3.5527e-15"/>
  <path id="path8303" d="m28.359 35.561c-1.1288-0.41366-2.2211-1.8863-2.4207-3.2636-0.11574-0.79837-0.16681-0.83297-0.45944-0.31128-0.23027 0.4105-0.3238 0.47016-0.85534 0.54564-0.80545 0.11437-5.1157 0.45761-5.7465 0.45761-0.40436 0-0.57356 0.07167-0.84976 0.35996-0.4306 0.44946-0.48824 0.4494-3.1465-0.0033-4.214-0.71758-8.0471-1.7336-8.1593-2.1627-0.0627-0.23989-2.0538-1.0808-3.1303-1.3221-0.30605-0.06858-0.58483-0.16943-0.6195-0.22409-0.0346-0.05466-0.58431-0.34258-1.2214-0.63983-0.63713-0.29725-1.2145-0.6452-1.283-0.77323-0.0685-0.12802-0.16185-0.52559-0.20742-0.88347-0.0456-0.35788-0.13511-0.7168-0.199-0.7976-0.0683-0.08639-0.081-0.45033-0.0307-0.8835l0.0855-0.73659 0.76519-0.34696c0.92902-0.42124 1.1478-0.8089 1.2025-2.1306 0.068-1.6434 0.26043-1.8606 2.1817-2.4627 2.2658-0.71004 7.7387-1.9421 12.322-2.774 1.5157-0.2751 2.6291-0.54278 3.0223-0.72661 0.34238-0.16008 0.73384-0.29106 0.86991-0.29106 0.18183 0 0.24741-0.07708 0.24741-0.29076 0-0.44321 0.54205-1.0078 1.0571-1.1012 0.29066-0.05267 0.6488-0.27162 1.0427-0.63746 1.7323-1.609 4.2944-3.5607 5.1668-3.9358 0.65451-0.28146 1.9711-0.56617 3.5324-0.76388 1.5865-0.2009 10.517-0.27809 13.713-0.11851 5.526 0.27597 11.087 0.83533 11.908 1.1977 0.56903 0.25124 0.8682 0.76436 1.86 3.1901 0.35076 0.85792 0.67253 1.6012 0.71504 1.6518 0.0425 0.05059 0.99161 0.17298 2.1091 0.27198 2.6778 0.23722 3.7745 0.39913 4.0957 0.6047 0.39017 0.2497 0.51813 0.86724 0.59873 2.8895l0.0725 1.8184 0.34428 0.06886c0.73488 0.14698 0.74342 1.0447 0.0241 2.5338-0.37363 0.77349-0.54634 1.0003-0.88927 1.1681-0.72583 0.35512-3.2445 0.96187-3.7252 0.8974l-0.43893-0.05887-0.0754 0.64193c-0.11337 0.96458-0.62887 2.4762-1.0661 3.1262-0.2135 0.31738-0.62231 0.74074-0.90847 0.94081-0.48862 0.34162-0.58722 0.36355-1.6198 0.36026-1.6065-0.0051-2.2053-0.41868-2.6676-1.8422l-0.20976-0.64582-0.85091 0.06701c-0.468 0.03686-4.7303 0.69469-9.4717 1.4619-6.3741 1.0313-8.7038 1.3666-8.9391 1.2866-0.32752-0.11138-0.35296-0.2305-0.19094-0.89388 0.072-0.2949 0.048-0.32997-0.22602-0.32997-0.2751 0-0.31443 0.05857-0.38273 0.56994-0.34497 2.583-1.3254 4.4229-2.7296 5.1226-0.5695 0.28379-0.73336 0.3062-2.182 0.29838-1.039-0.006-1.7236-0.0661-2.0335-0.17968zm3.7271-0.88412c2.5092-1.1393 3.2956-5.9973 1.2947-7.9982-1.5021-1.5021-3.6021-0.61282-4.6343 1.9624-0.238 0.59382-0.27629 0.90342-0.27811 2.2485-0.002 1.4316 0.0235 1.6141 0.30908 2.2198 0.73172 1.5518 2.0097 2.1573 3.3086 1.5675zm-1.9511-0.29718c-0.98649-0.60561-1.5094-1.8168-1.5069-3.4901 0.002-1.3265 0.30495-2.3823 0.94747-3.302 1.1128-1.5928 2.5625-1.8454 3.7161-0.64741 1.6595 1.7234 1.1495 5.8496-0.9022 7.2988-0.70559 0.49842-1.5826 0.55312-2.2545 0.14064zm1.7974-0.11703c0.90236-0.37703 1.7177-1.5612 2.0524-2.9808 0.45251-1.9193-0.0651-3.8163-1.2634-4.6307-0.60479-0.411-1.6113-0.33132-2.2435 0.1776-1.1475 0.92371-1.7219 2.2441-1.7286 3.9732-0.005 1.2337 0.26265 2.1307 0.83448 2.7987 0.67668 0.79055 1.4913 1.0202 2.3487 0.66194zm-1.3363-0.19711c-0.37994-0.15271-0.33918-0.27854 0.20741-0.64025 0.51919-0.34359 0.69738-0.40086 0.51628-0.16593-0.17082 0.22157 0.006 0.753 0.24324 0.73347 0.11021-0.009 0.17077 0.0314 0.13459 0.09-0.0836 0.13525-0.74799 0.12482-1.1015-0.0173zm1.4147-0.32623c0.002-0.11549 0.13893-0.50695 0.30281-0.86992 0.1639-0.36296 0.28126-0.55195 0.26079-0.41996-0.058 0.37413 0.2793 0.56772 0.55894 0.32081 0.21656-0.19122 0.22117-0.18885 0.0963 0.04951-0.12635 0.24116-1.0418 1.1295-1.164 1.1295-0.0328 0-0.0575-0.0945-0.0549-0.20999zm-2.5272-0.59344c-0.30897-0.4872-0.466-0.99641-0.30728-0.99641 0.0275 0 0.30198 0.10799 0.60989 0.23998 0.71679 0.30725 0.72305 0.30566 0.42813-0.10851-0.13648-0.19167-0.24815-0.40765-0.24815-0.47996s-0.0405-0.13266-0.09-0.13413c-0.0495-0.0014-0.22498-0.11448-0.38996-0.25114-0.18453-0.15285-0.22152-0.22345-0.0961-0.18344 0.33836 0.10797 0.46414-0.85819 0.23205-1.7825l-0.12051-0.47995 0.2522 0.29997c0.17436 0.2074 0.22752 0.23214 0.17227 0.08018-0.0439-0.12089-0.0799-0.26937-0.0799-0.32997 0-0.06059-0.13499-0.11017-0.29998-0.11017-0.20208 0-0.30305 0.06852-0.30944 0.20998-0.006 0.11549-0.035 0.14774-0.0661 0.07167-0.069-0.16863 0.34911-1.0703 0.68706-1.4815l0.24653-0.29997-0.073 0.95991-0.073 0.95991 0.24397-0.39286c0.13419-0.21607 0.24635-0.45905 0.24924-0.53995 0.003-0.0809 0.0819-0.36234 0.17561-0.62542 0.19399-0.54478 0.0705-0.7978-0.25882-0.53048-0.13938 0.11313-0.178 0.11881-0.11693 0.0172 0.20335-0.33836 1.5148-0.81825 1.5148-0.55431 0 0.08315-0.83891 1.246-0.8989 1.246-0.0212 0-0.009-0.12149 0.0279-0.26997 0.0366-0.14848 0.0229-0.22982-0.0305-0.18074-0.0533 0.04908-0.10642 0.24841-0.11799 0.44296-0.0199 0.33418-0.007 0.34416 0.22592 0.18074 0.13583-0.09514 0.31054-0.17298 0.38826-0.17298 0.16118 0 1.0052-0.81105 1.0052-0.96594 0-0.05612-0.0945-0.15706-0.20998-0.22433-0.31896-0.18578-0.0635-0.15322 0.30593 0.03898 0.40865 0.21262 0.91415 0.74632 0.78299 0.82667-0.0545 0.03337-0.40811 0.0991-0.78589 0.14609l-0.68687 0.08543 0.41974 0.28484c0.23085 0.15666 0.5767 0.2968 0.76856 0.31142 0.19185 0.01462 0.32183 0.07026 0.28884 0.12364-0.033 0.05338-0.12375 0.05881-0.20168 0.01207-0.0779-0.04674-0.0643 0.01034 0.0303 0.12686 0.16142 0.1988 0.18212 0.19253 0.33645-0.10201 0.0904-0.17262 0.13089-0.41957 0.0899-0.54878-0.041-0.12921-0.0482-0.23492-0.0161-0.23492 0.0735 0 0.39327 1.0113 0.48368 1.5299 0.0927 0.53176-0.10819 0.50068-0.61869-0.09573-0.22865-0.26713-0.43656-0.46487-0.46201-0.43942-0.069 0.06907 0.1822 0.80502 0.44434 1.3014 0.23751 0.44976 0.31691 0.78315 0.11041 0.46362-0.0943-0.14595-0.11666-0.12965-0.11815 0.08623-0.002 0.3764 0.33694 0.2214 0.55676-0.25417l0.17196-0.372-0.0711 0.47995c-0.1112 0.75093-0.41506 1.7398-0.53461 1.7398-0.0596 0-0.14709-0.44362-0.19439-0.98583l-0.086-0.98583-0.15693 0.59586c-0.0863 0.32772-0.16358 0.86584-0.1717 1.1958-0.013 0.53115-0.028 0.56376-0.13047 0.2844l-0.11571-0.31555-0.35478 0.35478c-0.19512 0.19512-0.35477 0.37631-0.35477 0.40264 0 0.02632-0.11085 0.22465-0.24635 0.44073l-0.24635 0.39287 0.0541-0.37816c0.0495-0.34638 0.0226-0.38276-0.31956-0.43299-0.20548-0.03016-0.5644 0.02025-0.7976 0.112-0.35809 0.1409-0.39164 0.14108-0.21587 0.0012 0.19291-0.15357 0.17273-0.32192-0.0386-0.32192-0.17094 0-0.25534 0.72422-0.10545 0.90483 0.10524 0.1268 0.10743 0.17507 0.008 0.17507-0.0755 0-0.29811-0.25355-0.49465-0.56345zm2.2528-0.34613c-0.0383-0.03831 0.13743-0.25674 0.39054-0.4854 1.3884-1.2544 0.991-4.2445-0.56419-4.2445-0.94029 0-1.8364 1.5499-1.6765 2.8997 0.1339 1.1306 0.50935 1.6102 1.3999 1.7883 0.23097 0.04619 0.44246 0.09018 0.46995 0.09777 0.0275 0.0076 0.0186-0.01754-0.0197-0.05585zm0.62959-5.2845c0-0.16664-0.0302-0.17153-0.20998-0.03396-0.11548 0.0884-0.23247 0.176-0.25997 0.19467-0.0275 0.01868 0.067 0.03396 0.20998 0.03396 0.15981 0 0.25997-0.075 0.25997-0.19467zm-3.4657 3.2844c-0.0148-1.1189 0.10834-1.3239 0.39013-0.64949 0.16447 0.39362 0.38021 1.125 0.24397 0.82703-0.0822-0.17981-0.46302 0.25085-0.55963 0.6329-0.0333 0.1317-0.0668-0.233-0.0745-0.81045zm-11.113 2.4298c0.11944-0.13199 0.19531-0.24753 0.16858-0.25677-0.0267-0.0092-0.56155-0.08267-1.1885-0.16319-0.62694-0.08052-0.92391-0.1494-0.65993-0.15307 0.26397-0.0037 0.80034 0.03321 1.1919 0.08195 0.4304 0.05357 1.7591 0.007 3.3597-0.11794 4.3635-0.34041 4.3764-0.3423 4.5917-0.67088 0.10358-0.15809 0.16541-0.31035 0.13741-0.33835-0.028-0.02801-0.96672 0.02697-2.0861 0.12215-1.1193 0.09519-2.3051 0.16771-2.6351 0.16115-0.32997-0.0066 0.59928-0.10994 2.065-0.22974 1.4657-0.11981 2.7616-0.27882 2.8797-0.35336 0.17645-0.11134 0.13984-0.12434-0.20518-0.07284-0.90097 0.1345-3.9862 0.32235-5.6841 0.3461l-1.7845 0.02496-0.24897-0.33027c-0.17668-0.23438-0.25081-0.51597-0.25531-0.96984l-0.006-0.63957-3.3803-0.32841c-1.8592-0.18062-4.3305-0.44731-5.4918-0.59264-1.6566-0.2073-2.0986-0.2305-2.0514-0.10767 0.033 0.08611 0.12442 0.50575 0.20306 0.93254 0.0786 0.42679 0.17415 0.77692 0.21223 0.77807 0.0381 0.0012 0.94667 0.1838 2.0191 0.40589l1.9498 0.4038v-0.87877c0-0.48332 0.041-0.90408 0.091-0.93503 0.16477-0.10184 1.1359 0.13173 1.2416 0.29863 0.057 0.08988 0.10437 0.50259 0.10538 0.91712 0.0008 0.49345 0.0536 0.77188 0.15182 0.80637 0.45968 0.16144 3.4472 0.46352 5.3695 0.54293l2.2198 0.0917-2.2198-0.03176c-1.2442-0.0178-2.9216-0.12502-3.8168-0.24395l-1.597-0.21219-0.17965 0.25649c-0.11293 0.16123-0.32197 0.26319-0.56281 0.27452-0.36346 0.0171-0.35849 0.02249 0.0968 0.10488 0.30026 0.05434 0.14302 0.06555-0.41996 0.02995-0.49495-0.0313-0.87292-0.02916-0.83992 0.0048 0.14151 0.1455 5.9348 1.2291 6.7908 1.2702 0.13825 0.007 0.34911-0.0959 0.46855-0.22792zm-4.3196-0.77836c-0.59394-0.08075-0.89091-0.15165-0.65993-0.15755 0.23097-0.0059 0.9599 0.06103 1.6198 0.14876 0.66339 0.08819 0.95847 0.15863 0.65994 0.15756-0.29698-0.0011-1.0259-0.06801-1.6198-0.14876zm-2.2498-0.48565 0.50995-0.07696v-1.1893c0-0.94671-0.0347-1.1893-0.17017-1.1893-0.0936 0-0.25557-0.03277-0.35996-0.07283-0.16529-0.06343-0.1898 0.08246-0.1898 1.1299 0 0.84991 0.044 1.2205 0.14998 1.2632 0.0927 0.03741 0.0729 0.06414-0.052 0.06999-0.13176 0.0062-0.21521-0.10038-0.23998-0.30644-0.0367-0.30545-0.0936-0.32712-1.7178-0.65443-0.92391-0.18618-2.0038-0.44811-2.3998-0.58205-0.39596-0.13394-0.56494-0.21475-0.3755-0.17957 0.34043 0.06321 0.34348 0.05866 0.26265-0.39192-0.20484-1.1418-0.29697-1.3341-0.6994-1.4598-1.9912-0.62194-5.392-1.591-5.4345-1.5485-0.12766 0.12765 0.12324 1.2153 0.32334 1.4017 0.12105 0.11278 0.58542 0.33213 1.0319 0.48746 0.44651 0.15532 0.87601 0.3051 0.95444 0.33284 0.0927 0.03278 0.15569-0.13156 0.17998-0.46952 0.0343-0.47698 0.0622-0.51676 0.33736-0.48124 0.40587 0.05238 0.59994 0.33712 0.59994 0.88026v0.45314l1.0445 0.32565c0.57445 0.17911 0.99088 0.34352 0.92537 0.36535-0.0655 0.02184-0.51765-0.09585-1.0047-0.26152-0.48711-0.16567-0.91101-0.27585-0.94202-0.24484-0.031 0.03101 0.0996 0.1143 0.29023 0.1851 1.5134 0.56204 2.6457 1.0092 2.7464 1.0845 0.18621 0.13936 2.9871 1.0722 3.2477 1.0817 0.22406 0.0082 0.22379 0.01221-0.008 0.11968-0.25402 0.11776-0.28314 0.11989 0.98991-0.07225zm-1.3224-0.0084c-0.0398-0.03987-0.14336-0.04413-0.22998-0.0095-0.0957 0.0383-0.0673 0.06674 0.0725 0.07249 0.12649 0.0052 0.19735-0.02315 0.15748-0.06302zm-0.56745-0.13322c-1.5232-0.56519-2.4058-0.83212-2.3674-0.71599 0.0457 0.1381 2.0083 0.7887 2.3674 0.78475 0.15999-0.0018 0.15999-0.0094 0-0.06876zm2.8636-0.22036c0.0379-0.19571 0.0177-0.20453-0.14998-0.06535-0.22933 0.19033-0.25788 0.41278-0.0438 0.34151 0.0825-0.02747 0.16972-0.15174 0.19382-0.27615zm10.035-0.2331c3.862-0.25689 3.5991-0.18761 4.0422-1.0651 0.34883-0.6907 1.1754-2.7877 1.1767-2.9853 0.00036-0.0495-0.0783-0.08999-0.17477-0.08999-0.10479 0-0.23056 0.20521-0.31255 0.50995-0.19262 0.716-0.43243 1.1412-0.68972 1.2228-0.33268 0.10559-3.8698 0.54831-4.2818 0.53593-0.19798-0.0059 0.66594-0.14234 1.9198-0.30309 2.1214-0.27197 2.299-0.31385 2.5559-0.60282 0.36416-0.40958 0.30179-0.69694-0.15715-0.72408l-0.35894-0.02122 0.35997 0.08383c0.412 0.09595 0.27765 0.12136-3.9596 0.7491-2.121 0.31422-2.7286 0.36191-3.8396 0.3014-1.7915-0.09758-6.8888-0.59277-6.6371-0.64477 0.11125-0.02298 1.3261 0.06887 2.6997 0.20413 1.3736 0.13525 3.1724 0.26704 3.9973 0.29286 1.0329 0.03233 1.2383 0.02081 0.65994-0.037l-0.83992-0.08394 0.80378-0.02161c0.97855-0.02632 3.0278-0.28759 5.4327-0.69267 0.98832-0.16646 1.8981-0.27622 2.0217-0.2439 0.12359 0.03233 0.19285 0.0269 0.1539-0.01206-0.039-0.03895-0.01-0.14459 0.0652-0.23475 0.0748-0.09016 0.10693-0.19304 0.0714-0.22863-0.0356-0.03559-1.0827 0.07299-2.3269 0.24129-4.4173 0.59751-5.3584 0.68813-6.3418 0.61064-2.3962-0.18884-8.2043-0.83198-10.379-1.1493-0.88014-0.12842-4.0285-0.88613-6.1794-1.4872-1.2796-0.35759-1.4096-0.36759-1.3587-0.10451 0.0286 0.14761 0.5277 0.3383 1.8986 0.72538 4.9014 1.3839 5.547 1.4985 11.999 2.1282 1.6828 0.16426 3.2757 0.32077 3.5397 0.34778 0.26397 0.02701-0.0572 0.02765-0.71364 0.0014-1.3159-0.05259-4.8018-0.39423-7.8655-0.77086-2.0317-0.24977-3.2072-0.5141-6.8115-1.5318l-2.072-0.58503-0.0734 0.29241c-0.045 0.17922-0.009 0.3511 0.0922 0.44401 0.091 0.08338 1.4884 0.54606 3.1053 1.0282 2.2388 0.66755 3.326 0.92761 4.5596 1.0907 2.5353 0.33511 8.8786 0.95774 10.799 1.06l1.7398 0.09263-1.4736 0.01816c-1.2496 0.0154-1.4852 0.04834-1.5498 0.21665-0.086 0.22416 0.14911 1.211 0.34467 1.4467 0.16668 0.20083 1.0445 0.19589 4.3586-0.02456zm-1.4099-1.8253c0.14849-0.0286 0.39147-0.0286 0.53995 0 0.14849 0.0286 0.027 0.052-0.26997 0.052s-0.41846-0.0234-0.26998-0.052zm-9.959-1.3199c0.14849-0.0286 0.39147-0.0286 0.53995 0 0.14849 0.0286 0.027 0.052-0.26997 0.052s-0.41846-0.0234-0.26998-0.052zm-1.7695-0.157c-0.4876-0.07581-0.49923-0.08467-0.11998-0.09145 0.23097-0.0042 0.68993 0.03454 1.0199 0.08593 0.56748 0.08839 0.57397 0.09334 0.11999 0.09146-0.26398-0.001-0.72293-0.03976-1.0199-0.08593zm-1.7998-0.23998c-0.5997-0.12623 0.0155-0.13146 0.71993-0.0061 0.48705 0.08666 0.49881 0.096 0.11999 0.0953-0.23098-0.000479-0.60895-0.04056-0.83992-0.08917zm-4.0033-0.99633c-1.6409-0.46991-2.9316-0.87162-2.8684-0.8927s1.3248 0.30745 2.8034 0.73005c1.4786 0.42261 2.9044 0.82368 3.1684 0.89128 0.32879 0.08419 0.38548 0.12335 0.17999 0.12432-0.16499 0.00072-1.6425-0.38305-3.2834-0.85296zm23.445 3.3882c0.18558-0.36731 0.53348-1.2312 0.7731-1.9198 0.54649-1.5704 0.83043-2.0549 1.6688-2.8478 1.1207-1.0599 2.4943-1.5403 4.1079-1.4368 1.4129 0.09068 2.3401 0.82509 2.7465 2.1756 0.13487 0.4481 0.38604 2.4979 0.42849 3.4968 0.007 0.17216 0.0614 0.1224 0.19138-0.17608 0.27686-0.63574 0.43685-3.3025 0.22632-3.7722-0.0915-0.20421-0.22628-0.5648-0.29947-0.80132-0.24116-0.77936-0.80191-1.3923-1.6604-1.8149-0.71964-0.35428-0.92221-0.39696-2.0704-0.43626-1.9118-0.06543-3.1002 0.30614-4.2832 1.3392-0.37177 0.32466-1.8327 2.3993-1.8327 2.6026 0 0.1302 0.76665 0.5191 0.80377 0.40773 0.0206-0.06188 0.25526-0.44577 0.5214-0.85309 0.5973-0.91413 1.4005-1.5995 2.4504-2.0908 1.0173-0.47604 2.5196-0.60456 3.5536-0.30399 1.6362 0.47566 2.545 2.0771 2.4918 4.3914-0.0174 0.7588-0.0211 0.74802-0.10109-0.29201-0.10358-1.3474-0.19891-1.7786-0.54367-2.4598-0.32377-0.63963-0.64637-0.95271-1.377-1.3363-0.47299-0.24836-0.70439-0.28351-1.8662-0.28351-1.287 0-1.3527 0.01309-2.2198 0.44246-1.5657 0.77531-2.3606 1.7512-3.1185 3.8284-0.27462 0.7527-0.7117 1.7971-0.97129 2.3209-0.36878 0.74415-0.41571 0.90157-0.21459 0.71993 0.14157-0.12786 0.40924-0.533 0.59482-0.90031zm14.775-0.22621c7.0701-1.158 12.581-2.0233 13.447-2.1111 0.78843-0.08005 0.81599-0.09449 1.154-0.60473 0.36634-0.55308 0.63692-1.239 1.1742-2.9765 0.57399-1.8563 1.5222-2.9676 2.8335-3.3207 1.3186-0.35505 2.0754 0.35714 2.3674 2.2278 0.10853 0.69518 0.11025 0.68694 0.0502-0.23998-0.0757-1.1685-0.29097-1.5856-1.0104-1.9575-0.65448-0.33832-1.3083-0.29049-2.2388 0.16378-1.0985 0.53627-1.6566 1.3987-2.5401 3.9254-0.73903 2.1136-1.0059 2.5035-1.6944 2.4756-0.25136-0.01017-0.23286-0.02887 0.10803-0.1092 0.53664-0.12645 0.76419-0.44204 1.2102-1.6783 0.75689-2.0981 0.97805-2.6267 1.3742-3.2846 0.35801-0.59454 0.37972-0.67504 0.18206-0.67504-0.12343 0-0.30301-0.11221-0.39908-0.24936-0.16693-0.23834-0.18593-0.21922-0.42982 0.43264-0.17473 0.46703-0.231 0.81078-0.17851 1.0906 0.0974 0.51903-0.10245 0.77088-0.59517 0.75014l-0.37528-0.0158 0.41042-0.07419c0.22574-0.04081 0.4346-0.14736 0.46415-0.23677 0.0365-0.11044-0.0182-0.14253-0.17044-0.10006-0.1233 0.03438-1.6685 0.26879-3.4339 0.52092-2.1066 0.30087-3.2097 0.50658-3.2097 0.5986 0 0.09194 0.17553 0.12484 0.50995 0.09559l0.50995-0.0446-0.46245 0.09916c-0.52755 0.11312-0.6719 0.28187-0.6782 0.79281-0.004 0.31682-0.38012 2.1986-0.54073 2.7046-0.0476 0.14994 0.0299 0.18104 0.39105 0.15686 0.24773-0.01659-0.62948 0.15581-1.9494 0.3831s-2.5078 0.40017-2.6398 0.38417c-0.13199-0.016 0.70241-0.17866 1.8542-0.36145 1.1518-0.1828 2.1319-0.39332 2.1779-0.46782 0.16804-0.27189 0.75306-3.4594 0.63492-3.4594-0.0316 0-0.97526 0.13876-2.0971 0.30836s-2.0991 0.28855-2.1717 0.26434 0.85744-0.19095 2.0668-0.37053 2.2249-0.35253 2.2567-0.38433c0.18306-0.18306-0.23702-0.18691-1.3573-0.01244-0.695 0.10824-1.5743 0.17195-1.9541 0.14157-0.45981-0.03679-0.55016-0.02656-0.27048 0.03064 0.31543 0.0645-0.59553 0.23055-3.6596 0.6671-3.7173 0.5296-4.4234 0.67138-4.2428 0.85193 0.0334 0.03343 1.5398-0.15638 3.3475-0.42178 1.8077-0.26541 3.3696-0.46645 3.4709-0.44676 0.10129 0.01969-1.3756 0.26285-3.2821 0.54036-1.9064 0.2775-3.4814 0.51968-3.4999 0.53817s-0.0959 0.49248-0.17197 1.0533c-0.0761 0.56084-0.26187 1.3899-0.41284 1.8423l-0.27449 0.82255 0.49303-0.07894c1.0976-0.17572 1.5013-0.16463 0.51931 0.01427-0.57949 0.10557-1.0741 0.17112-1.0992 0.14567-0.025-0.02545 0.0807-0.42424 0.23514-0.88619 0.24783-0.74156 0.61493-2.7914 0.51525-2.877-0.0206-0.0177-0.28042 0.0014-0.57739 0.04256l-0.53995 0.07473-0.0757 1.1999c-0.0717 1.1348-0.37871 2.2868-0.57688 2.1643-0.048-0.02967-0.0898 0.01118-0.093 0.09077-0.003 0.07959-0.045 0.2392-0.0928 0.35469-0.0746 0.17962-0.0174 0.20998 0.39552 0.20998 0.26545 0 2.4445-0.32133 4.8424-0.71407zm-1.4597-0.12947c0.23098-0.05447 0.74393-0.12731 1.1399-0.16184l0.71993-0.06279-0.83992 0.16675c-0.92933 0.1845-1.7555 0.23138-1.0199 0.05788zm1.9798-0.30162c0.20283-0.07831 2.444-0.4155 2.6685-0.40147 0.28903 0.01806-2.1134 0.45234-2.4885 0.44982-0.16499-0.001-0.24598-0.02286-0.17999-0.04835zm8.9991-1.4407c0.46195-0.08754 0.9749-0.15642 1.1399-0.15308 0.16498 0.0034-0.078 0.0777-0.53995 0.16523-0.46196 0.08754-0.97491 0.15642-1.1399 0.15308-0.16499-0.0034 0.078-0.0777 0.53995-0.16524zm2.2798-0.35997c0.46195-0.08754 0.9749-0.15642 1.1399-0.15308 0.16498 0.0034-0.078 0.0777-0.53995 0.16524-0.46196 0.08754-0.97491 0.15642-1.1399 0.15308-0.16499-0.0034 0.078-0.0777 0.53995-0.16524zm-1.3799-3.3494c0.49495-0.08838 1.2239-0.18958 1.6198-0.22489 0.68498-0.06108 0.67624-0.05639-0.17998 0.09649-0.49495 0.08838-1.2239 0.18958-1.6198 0.22489-0.68498 0.06108-0.67623 0.05639 0.17998-0.09649zm2.8197-0.43105c0.26397-0.0546 0.64194-0.09563 0.83992-0.09117 0.26993 0.0061 0.22492 0.03213-0.17999 0.10418-0.72406 0.12884-1.2916 0.11765-0.65993-0.01301zm-51.295 4.986c0-0.61327-0.0385-0.77992-0.17999-0.77992-0.1397 0-0.17998 0.15887-0.17998 0.70993 0 0.63512 0.0454 0.75056 0.32997 0.84044 0.0165 0.0052 0.03-0.34149 0.03-0.77045zm32.839 0.397c-0.0383-0.09572-0.0667-0.06729-0.0725 0.07249-0.006 0.12649 0.0231 0.19736 0.063 0.15748 0.0398-0.03988 0.0442-0.14336 0.009-0.22998zm24.004-0.39825c0.69397-0.76248 1.0197-1.797 1.0198-3.2389 0.00009-1.5899-0.46857-2.6651-1.316-3.0192-0.83339-0.34821-1.7844 0.35386-2.3213 1.7136-0.22986 0.58221-0.27962 0.93649-0.28446 2.0255-0.006 1.1881 0.0262 1.3885 0.31601 2.0067 0.62612 1.3359 1.6515 1.539 2.586 0.51231zm-1.8512 0.12152-0.33667-0.29923 0.49955 0.26642c0.49751 0.26534 0.50141 0.26549 0.95991 0.03822 0.32277-0.16 0.39997-0.24202 0.25828-0.27444-0.18388-0.04208-0.18658-0.09023-0.03-0.534 0.0946-0.26827 0.17209-0.54158 0.17209-0.60736 0-0.22052-0.33482 0.15322-0.41171 0.45957-0.0414 0.16498-0.11612 0.27472-0.16604 0.24386-0.14221-0.08789-0.11239 0.45554 0.0304 0.55439 0.17922 0.12405-0.5572 0.11058-0.7534-0.01378-0.12329-0.07814-0.0673-0.18963 0.23998-0.47756 0.39712-0.37218 0.36447-0.43892-0.18597-0.38016-0.17071 0.01822-0.20684-0.02784-0.14605-0.18625 0.0536-0.13962-0.0406-0.3614-0.27958-0.65886-0.2855-0.35527-0.3237-0.46246-0.18392-0.5161 0.097-0.03724 0.17642-0.12549 0.17642-0.19613 0-0.19964-0.44679 0.27134-0.51308 0.54086-0.0325 0.13199-0.0653-0.15149-0.073-0.62994-0.0142-0.88447 0.14247-1.1637 0.28606-0.50995 0.0435 0.19798 0.12877 0.35997 0.18951 0.35997 0.13549 0 0.13558-0.16712 0.00048-0.74908-0.0609-0.26262-0.0598-0.42161 0.003-0.38288 0.059 0.03643 0.10716 0.009 0.10716-0.06084 0-0.21892-0.35946-0.13825-0.36944 0.08291-0.006 0.11549-0.0354 0.14641-0.0671 0.06872-0.0745-0.18266 0.42967-1.3586 0.5825-1.3586 0.0713 0 0.0836 0.2444 0.0317 0.62994-0.10442 0.77547 0.0199 0.69297 0.24573-0.16305 0.11707-0.4438 0.1293-0.6619 0.0402-0.71698-0.16316-0.10084 0.34788-0.46984 0.65068-0.46984 0.20643 0 0.2032 0.0316-0.0492 0.48065-0.18674 0.33227-0.29967 0.43413-0.3658 0.32997-0.0762-0.12002-0.096-0.11939-0.0975 0.003-0.0008 0.08456 0.0773 0.18414 0.17416 0.22129 0.22945 0.08805 0.79888-0.54903 0.73555-0.82292-0.0381-0.16464-0.005-0.18473 0.15999-0.09654 0.11444 0.06124 0.27725 0.1947 0.36178 0.29657 0.0846 0.10187 0.20098 0.15601 0.25874 0.12031 0.0577-0.0357 0.0744 0.01486 0.037 0.11235s-0.28579 0.21405-0.55197 0.25902l-0.48395 0.08176 0.34337 0.22638c0.45235 0.29823 0.81071 0.30213 0.73379 0.008-0.0346-0.13249 0.006-0.21998 0.10326-0.21998 0.11129 0 0.13777 0.0917 0.086 0.29787-0.057 0.2272-0.0373 0.27472 0.0831 0.2003 0.11569-0.07151 0.13639-0.0416 0.0775 0.1119-0.0442 0.11521-0.0816 0.38055-0.0831 0.58963l-0.002 0.38015-0.23364-0.29997c-0.12851-0.16498-0.20466-0.39446-0.16923-0.50995 0.0354-0.11549 0.0104-0.20998-0.0555-0.20998-0.14872 0-0.0726 0.87037 0.10523 1.2026 0.0713 0.13324 0.097 0.29513 0.057 0.35976-0.0399 0.06463-0.0154 0.11751 0.0545 0.11751s0.12789-0.01349 0.12889-0.03c0.0008-0.0165 0.0796-0.24598 0.17471-0.50995 0.15109-0.41939 0.17357-0.43921 0.17817-0.15707 0.003 0.17759-0.0546 0.35994-0.12794 0.40522-0.0782 0.04836-0.10594 0.25042-0.0671 0.48972 0.0449 0.2765 0.0242 0.3815-0.0643 0.32682-0.0885-0.05472-0.10397 0.02464-0.0481 0.24734 0.0582 0.23213 0.0421 0.30307-0.0554 0.24285-0.0952-0.05882-0.11553 0.0029-0.066 0.19992 0.0526 0.20946 0.0257 0.18958-0.10173-0.07497-0.0954-0.19798-0.17582-0.54445-0.17879-0.76993-0.008-0.58664-0.11414-0.39846-0.18286 0.32341-0.0322 0.33792-0.0658 0.65762-0.0747 0.71044-0.0398 0.23585 0.025 0.29477 0.1815 0.1649 0.12963-0.10759 0.1902-0.10669 0.25852 0.0038 0.0606 0.09813 0.0383 0.1129-0.0697 0.04614-0.11749-0.07262-0.13753-0.04249-0.0769 0.11558 0.0594 0.15496-0.0626 0.3585-0.44378 0.73961-0.62728 0.62728-1.078 0.69108-1.6006 0.22659zm1.8867-0.66736c0.18233-0.34069 0.058-0.2851-0.18221 0.08145-0.11342 0.17311-0.14692 0.27809-0.0745 0.23329 0.0725-0.04479 0.18797-0.18643 0.25664-0.31474zm-0.87942-0.42921c-0.0418-0.04176 0.056-0.17971 0.21729-0.30656 0.31755-0.24979 0.65855-1.2112 0.65855-1.8566 0-0.52752-0.33425-1.3383-0.61328-1.4876-0.36001-0.19267-0.88326 0.15401-1.118 0.74075-0.22244 0.55591-0.27028 1.6803-0.0913 2.1461 0.12209 0.31778 0.44407 0.64498 0.74273 0.7548 0.2552 0.09383 0.29027 0.09542 0.20406 0.0092zm-1.5304 0.42378c-0.18218-0.34041-0.12215-0.43784 0.0665-0.10788 0.0943 0.16498 0.17339 0.25593 0.17573 0.20209 0.006-0.13244-0.24856-0.60681-0.36735-0.68521-0.0526-0.03474-0.0531-0.13199-0.0008-0.21612 0.14215-0.22999 0.69591 0.05463 0.67439 0.34662-0.009 0.12526-0.0502 0.26112-0.0909 0.30191-0.0408 0.0408-0.0485 0.14088-0.0173 0.22242 0.089 0.23197-0.31277 0.17366-0.43987-0.06383zm2.4657-5.0283c-0.041-0.06647-0.23775-0.20516-0.43704-0.30822-0.2883-0.14908-0.43945-0.1605-0.73958-0.05588-0.29804 0.1039-0.34632 0.10059-0.22998-0.01574 0.26951-0.26951 0.96467-0.17628 1.3177 0.17672 0.17818 0.17818 0.28789 0.32397 0.24379 0.32397s-0.1138-0.05438-0.15487-0.12084zm-39.326 5.3176c-0.11548-0.03018-0.30447-0.03018-0.41996 0-0.11548 0.03018-0.021 0.05487 0.20998 0.05487s0.32547-0.02469 0.20998-0.05487zm0.9022-0.11598c-0.0812-0.03287-0.24322-0.03487-0.35996-0.0045-0.11675 0.03042-0.0503 0.05731 0.14769 0.05976 0.19799 0.0025 0.2935-0.02245 0.21227-0.05532zm0.83992-0.11999c-0.0812-0.03287-0.24322-0.03487-0.35996-0.0045-0.11675 0.03042-0.0503 0.05732 0.14769 0.05976 0.19798 0.0025 0.2935-0.02245 0.21227-0.05531zm0.83992-0.11999c-0.0812-0.03287-0.24322-0.03487-0.35996-0.0045-0.11675 0.03042-0.0503 0.05731 0.14769 0.05976 0.19798 0.0025 0.2935-0.02245 0.21227-0.05531zm0.71993-0.11999c-0.0812-0.03287-0.24322-0.03487-0.35996-0.0045-0.11675 0.03042-0.0503 0.05731 0.14769 0.05976 0.19798 0.0025 0.2935-0.02245 0.21227-0.05532zm0.71993-0.11999c-0.0812-0.03287-0.24322-0.03487-0.35996-0.0045-0.11675 0.03042-0.0503 0.05731 0.14769 0.05976 0.19799 0.0025 0.2935-0.02245 0.21227-0.05531zm-4.2911-0.22156c1.7491-0.20225 6.0542-0.7714 6.2384-0.82475 0.0658-0.01906-0.002-0.10014-0.15223-0.18018-0.22251-0.11908-0.98535-0.05488-4.1993 0.3534-4.541 0.57687-4.2942 0.57868-10.145-0.07443-4.6568-0.51982-4.5419-0.49874-8.2408-1.511-2.3877-0.65341-3.152-0.81861-3.4797-0.75216l-0.41996 0.08515 0.53995 0.16627c1.274 0.39231 6.13 1.5924 6.8993 1.705 1.2245 0.17929 6.7323 0.81729 8.3392 0.96597 0.75893 0.07022 1.5688 0.14587 1.7998 0.16812 0.90552 0.0872 1.3171 0.0724 2.8205-0.10143zm5.0111 0.10157c-0.0812-0.03287-0.24322-0.03487-0.35996-0.0045-0.11675 0.03042-0.0503 0.05731 0.1477 0.05976 0.19798 0.0025 0.29349-0.02245 0.21226-0.05532zm-3.0588-0.88543c2.0916-0.2663 3.8392-0.52277 3.8836-0.56994s0.25106-0.37743 0.45936-0.73391l0.3787-0.64815-1.3575 0.07342c-1.5236 0.0824-3.7493 0.39813-4.0893 0.58008-0.12304 0.06585-0.32654 0.35962-0.45223 0.65284-0.15188 0.35434-0.34037 0.5782-0.56206 0.66755-0.18344 0.07394-1.0625 0.16068-1.9534 0.19276-1.426 0.05135-1.9111 0.01159-4.0535-0.33212-1.3385-0.21474-2.4099-0.41424-2.3808-0.44332s1.1228 0.11968 2.4304 0.33059c2.0896 0.33704 2.574 0.37639 4.0006 0.325 1.9696-0.07095 2.2208-0.15478 2.4161-0.80652 0.0802-0.26774 0.21678-0.54567 0.30347-0.61762 0.24838-0.20613 2.5984-0.57487 4.2314-0.66396l1.4882-0.08118 0.80285-0.81731c1.282-1.3051 2.4637-1.7259 4.6108-1.642 1.0049 0.03928 1.3306 0.10337 1.929 0.37959 0.39596 0.18278 0.86228 0.46848 1.0363 0.63489 0.31253 0.29893 0.32305 0.30029 0.87411 0.1132 0.30678-0.10415 0.65038-0.1902 0.76356-0.19121 0.52155-0.0046 0.53074-0.07485 0.32323-2.4689-0.10811-1.2474-0.20576-2.2767-0.217-2.2875-0.0112-0.01076-0.50638 0.10556-1.1003 0.25849-0.59394 0.15294-1.9978 0.47086-3.1197 0.70649s-3.0592 0.70152-4.3052 1.0353c-1.246 0.33379-2.2858 0.58651-2.3107 0.56161-0.10907-0.10907 4.6221-1.3162 7.5811-1.9343 1.1248-0.23494 2.3396-0.51624 2.6997-0.62512l0.65471-0.19796-0.71993-0.16775c-2.4837-0.57874-6.3648-1.0993-10.979-1.4725-1.4848-0.12011-2.451-0.22445-2.147-0.23187 0.30402-0.0074 1.2547 0.04526 2.1127 0.11707 0.85798 0.07182 1.6891 0.1112 1.847 0.08752 0.15788-0.02368-0.98183-0.13732-2.5327-0.25253-1.5508-0.11522-3.0747-0.23287-3.3863-0.26146-0.31163-0.02859-0.59697-0.0028-0.63409 0.05724-0.0379 0.06139 0.39403 0.12674 0.98656 0.14926l1.054 0.04005-1.163 0.02467c-0.91324 0.01937-1.2497 0.07582-1.5666 0.26281-0.22199 0.13097-1.2798 0.45527-2.3506 0.72065-2.5876 0.64129-7.302 1.9415-9.0184 2.4873l-1.3799 0.43874 1.3199 0.15346c2.3197 0.26972 4.7806 0.64497 5.4205 0.82656 0.60954 0.17296 0.6615 0.1662 2.8145-0.3659 3.6442-0.90067 11.028-2.4591 11.651-2.4591 0.38045 0-0.18681 0.15904-2.1281 0.59667-1.1812 0.26627-2.2515 0.45114-2.3785 0.41082-0.12702-0.04032-0.20073-0.02439-0.16377 0.0354 0.037 0.05979-0.77972 0.31626-1.8148 0.56994-3.1379 0.76905-6.3148 1.635-6.4355 1.7543-0.0627 0.06191-0.22455 0.11256-0.35967 0.11256-0.44549 0-2.512 0.74494-2.3332 0.8411 0.0919 0.04946 1.224 0.20686 2.5157 0.34978 2.2394 0.24778 2.3927 0.25072 3.2997 0.06348 0.52314-0.108 1.0254-0.23788 1.1162-0.28861 0.20481-0.11446 0.1558-0.12638-2.3083-0.56106-1.0468-0.18466-1.8472-0.35444-1.7786-0.37729 0.1521-0.0507 3.5323 0.53461 4.0613 0.70326 0.32554 0.10378 0.79214-0.000479 3.2811-0.73339 1.5959-0.46991 2.9232-0.83277 2.9496-0.80637s-1.2071 0.41403-2.7411 0.8614-2.8381 0.8593-2.898 0.91542c-0.0644 0.06031-0.0398 0.18541 0.06 0.30595 0.12162 0.14685 0.16717 0.54293 0.16274 1.415-0.008 1.6701-0.0624 1.8285-0.68499 2.0136-0.83385 0.24782-3.0318 0.15909-5.569-0.22482-1.8402-0.27845-2.3404-0.3189-2.5001-0.20216-0.23125 0.1691-0.309 0.15984-3.2986-0.39288-2.4955-0.46136-3.3578-0.67709-5.5394-1.3859-1.4142-0.45948-1.5336-0.47999-1.7184-0.2952-0.10922 0.10922-0.28921 0.20224-0.39999 0.2067-0.39229 0.01582 0.25238 0.22345 3.1583 1.0172 3.5626 0.97313 3.238 0.92322 12.299 1.8911 1.1678 0.12474 2.3716 0.04228 5.8526-0.40091zm-2.778-0.24716c0.41499-0.07227 0.80907-0.19712 0.87574-0.27744 0.0666-0.08032 0.15673-0.65564 0.20014-1.2785 0.0632-0.90728 0.0402-1.2249-0.11612-1.5974-0.17421-0.41528-0.23027-0.4574-0.52488-0.39448-0.18141 0.03875-0.7078 0.15352-1.1698 0.25505-0.51379 0.11292-1.1661 0.16351-1.6798 0.13029l-0.83992-0.0543 0.65994 0.11914c0.36296 0.06553 1.2809 0.13042 2.0398 0.1442l1.3799 0.02505 0.0348 0.98876c0.0192 0.54382-0.0166 1.0849-0.0795 1.2024-0.15476 0.28917-1.1487 0.62988-1.8353 0.62915-0.69249-0.00072-0.93623-0.08868-0.95168-0.3434-0.009-0.14352-0.0332-0.13028-0.09 0.04867l-0.078 0.24582-2.4598-0.32816c-1.3529-0.18049-2.5013-0.28739-2.552-0.23755s1.0022 0.23916 2.3398 0.42073 2.513 0.34707 2.612 0.36778c0.42355 0.08861 1.5358 0.0558 2.2347-0.06591zm-7.552-0.60945c0.25858-0.24292 0.27771-0.35449 0.27771-1.6198v-1.359l0.38996-0.01798c0.36296-0.01673 0.36711-0.02144 0.06-0.06796-0.18147-0.02749-0.32996-0.12421-0.32996-0.21492s-0.0594-0.2016-0.13186-0.24643c-0.0726-0.04482-1.1232-0.20744-2.3348-0.36137s-2.6737-0.39167-3.249-0.52831c-0.57535-0.13665-1.0868-0.2067-1.1365-0.15567-0.10814 0.11095-0.18399 3.4756-0.0807 3.5789 0.0772 0.07723 2.8363 0.64742 4.8931 1.0112 0.69294 0.12256 1.2834 0.2272 1.3121 0.23253 0.0287 0.0054 0.17723-0.10771 0.32997-0.2512zm-1.7021-0.29707c-1.3133-0.24-1.3948-0.252-1.7744-0.269-0.23925-0.01101-0.3658-0.10176-0.44973-0.3225-0.0642-0.16896-0.17178-0.27321-0.23897-0.23169-0.0672 0.04153-0.0911 0.12577-0.0531 0.1872s-0.0286 0.1117-0.14807 0.1117c-0.28585 0-1.844-0.3271-1.9199-0.40305-0.10583-0.10583-0.13773-0.8737-0.0426-1.0275 0.071-0.11489 0.20116-0.1196 0.55911-0.02021 0.70086 0.1946 1.0065 0.1679 1.0065-0.08792 0-0.17307-0.15374-0.24739-0.73555-0.35559-0.40456-0.07523-0.76608-0.16731-0.80338-0.20462-0.0796-0.07956-0.0722-1.0095 0.009-1.0904 0.0478-0.04782 1.3256 0.20653 1.9123 0.38066 0.12749 0.03784 0.18458 0.1505 0.15475 0.30538-0.0322 0.16742 0.004 0.22584 0.11334 0.1838 0.0883-0.03389 0.21918-0.003 0.2908 0.06859 0.0936 0.09363 0.11348 0.03787 0.0706-0.19849l-0.0596-0.32871 0.63395 0.07859c0.34866 0.04323 1.1469 0.14183 1.7738 0.21912l1.1399 0.14052 0.036 0.68993c0.0198 0.37946 0.002 0.68993-0.0382 0.68993-0.0408 0-0.67088-0.08723-1.4002-0.19385-1.1008-0.16093-1.3429-0.16662-1.4251-0.03347-0.12514 0.20247-0.10755 0.21757 0.3178 0.2728 1.3283 0.17246 2.3978 0.34238 2.4818 0.39431 0.0544 0.0336 0.0867 0.32635 0.0719 0.65057-0.031 0.68109 0.0301 0.66496-1.4839 0.3915zm7.0429-0.67192c0.0253-0.67644 0.0438-1.238 0.0412-1.2479-0.002-0.0099-0.9497-0.13372-2.1046-0.27509s-2.2483-0.28602-2.4298-0.32145l-0.32997-0.06441v1.2559 1.2559l1.1699 0.14373c1.0404 0.12783 3.3207 0.43079 3.5284 0.4688 0.0433 0.0079 0.0995-0.53904 0.12479-1.2155zm1.5363 0.03v-1.1999h-0.53995-0.53994v1.1999 1.1999h0.53994 0.53995v-1.1999zm1.2921 0.78771c0.0245-0.02449 0.0746-0.44242 0.1114-0.92872 0.0755-0.9988-0.0512-1.2258-0.64631-1.1575l-0.33722 0.03867-0.0342 1.2333-0.0342 1.2333 0.44803-0.1872c0.24641-0.10296 0.46806-0.20724 0.49256-0.23173zm17.476 0.33934c0.36958-0.14182 0.18287-0.30042-0.31083-0.26404-0.58686 0.04325-0.79528 0.33687-0.23912 0.33687 0.19809 0 0.44557-0.03277 0.54995-0.07283zm0.1298-0.46634c0.066-0.023-0.13648-0.04608-0.44995-0.0513-0.31347-0.0052-0.56995 0.03368-0.56995 0.08642 0 0.08804 0.73963 0.06257 1.0199-0.03512zm3.2997-0.44708c1.4849-0.21259 2.6092-0.40482 2.4985-0.42718-0.21369-0.04317-5.4033 0.67889-5.4882 0.76361-0.0935 0.0933 0.28829 0.05033 2.9897-0.33643zm-3.2395 0.11634c0.00012-0.10681-0.18991-0.13815-0.66015-0.10887-0.80858 0.05035-0.75452 0.25886 0.0671 0.25886 0.39421 0 0.59291-0.05026 0.59303-0.14999zm4.2072-0.51191c2.269-0.31594 4.092-0.5144 4.3719-0.47594 0.26398 0.03628 0.72293 0.01322 1.0199-0.05124 0.50009-0.10856 0.47794-0.11367-0.29997-0.06921l-0.83992 0.048 1.0199-0.17727c0.56095-0.0975 1.2629-0.15506 1.5598-0.12792 0.29698 0.02714 0.43196 0.02098 0.29997-0.01369-0.23997-0.06303-0.23997-0.06303 0-0.15841 0.23998-0.09538 0.23998-0.09538 0-0.10372-0.21354-0.0074-9.6397 1.2013-10.769 1.3809-0.24747 0.03936-0.44996 0.12081-0.44996 0.18101 0 0.14643-0.29246 0.17738 4.0873-0.43247zm-4.4473-0.66026v-0.96219l-0.32997 0.07431c-0.86848 0.19559-1.2246 0.30458-1.2781 0.39116-0.0321 0.05193 0.0601 0.4005 0.20492 0.77462l0.26326 0.6802 0.56994 0.0021 0.56995 0.0021v-0.96219zm25.718 0.71672c1.8105-0.45355 1.7203-0.39678 1.8583-1.1698 0.0673-0.3765 0.15791-0.77526 0.20147-0.88613 0.073-0.18561 0.0238-0.1889-0.62033-0.04157-0.38475 0.088-1.01 0.22304-1.3895 0.30008l-0.68993 0.14008-0.002 0.50144c-0.002 0.61845-0.20974 1.0495-0.60055 1.2472l-0.2976 0.15058 0.27998 0.0018c0.15399 0.00096 0.72093-0.1087 1.2599-0.24371zm-19.858-0.59444c3.0235-0.39596 5.5337-0.71993 5.5782-0.71993 0.0446 0 0.0809-0.43942 0.0809-0.97648v-0.97648l-0.80992 0.08298c-0.44545 0.04564-1.0529 0.10543-1.3499 0.13288l-0.53995 0.04991 0.47995-0.10562c0.26398-0.05809 0.87575-0.14418 1.3595-0.1913l0.87954-0.08568-0.0758-1.4549c-0.10449-2.0051-0.10046-1.9916-0.57376-1.9236-0.70257 0.10096-8.8637 0.88872-9.207 0.88872-0.1843 0-0.46257-0.104-0.61836-0.23111l-0.28327-0.23111 1.4067-2.7986c1.6455-3.2737 2.2179-4.2121 2.7312-4.4776 0.61902-0.32011 2.2396-0.42832 6.8175-0.45521l4.3618-0.02562 0.26417 0.30591c0.41798 0.48401 1.6518 4.2942 1.6764 5.1772 0.0194 0.69307 0.003 0.73887-0.28645 0.81867-0.16882 0.04649-1.6537 0.20745-3.2997 0.35769s-3.044 0.31967-3.1067 0.3765c-0.15855 0.14372-0.17628 0.14497 3.5835-0.25255 3.2891-0.34776 3.5426-0.405 3.548-0.80087 0.003-0.23982-0.58479-2.4053-0.82426-3.0355-0.12691-0.33399-0.1905-0.60726-0.14132-0.60726 0.10003 0 0.76904 2.1204 0.97241 3.0821 0.17534 0.8291 0.0386 1.0812-0.63525 1.1704-0.2803 0.03714-1.8318 0.20619-3.4478 0.37568-1.616 0.16948-2.9428 0.31787-2.9485 0.32974-0.0336 0.07021 0.21269 3.2668 0.25498 3.3091 0.0416 0.04158 4.6016-0.46422 7.3114-0.81099 0.54882-0.07023 0.6193-0.11641 0.82708-0.54196 0.21977-0.4501 0.22035-0.49682 0.0178-1.4399-0.34753-1.6181-2.1863-6.8727-2.7013-7.7196-0.36812-0.60532-0.80155-0.66349-4.4344-0.59519l-3.1882 0.05994 3.0513-0.11993c3.4731-0.13651 3.9601-0.09715 4.4444 0.35931 0.74489 0.70205 3.2876 8.23 3.0711 9.0925l-0.0744 0.29638 0.51328-0.26308c0.62644-0.32108 2.0184-0.44122 2.6597-0.22956 0.24169 0.07977 0.59121 0.27274 0.77673 0.42885 0.32607 0.27436 0.35669 0.27799 0.91935 0.10865 0.32013-0.09635 1.0316-0.20972 1.581-0.25196l0.99892-0.07679-0.0645-0.7921c-0.0355-0.43566-0.0918-1.1302-0.12498-1.5434-0.0332-0.4132-0.11301-0.88962-0.17729-1.0587l-0.11691-0.30746-3.168 0.03883c-1.7424 0.02136-3.1429-0.0017-3.1122-0.05116 0.0306-0.0495 0.20375-0.08999 0.38464-0.08999s0.39368-0.06479 0.47287-0.14399c0.11199-0.11199 0.14399-0.11199 0.14399 0 0 0.10741 0.57151 0.14013 2.2498 0.12881l2.2498-0.01517-1.5598-0.1544c-0.85792-0.08492-1.9043-0.17753-2.3253-0.2058l-0.76546-0.0514-0.79951-1.9088c-1.0549-2.5185-1.2637-2.8765-1.8045-3.0928-0.84945-0.33989-6.8731-0.91695-12.168-1.1657-3.8543-0.18105-11.443-0.0797-13.484 0.18011-1.5499 0.19722-3.0859 0.53366-2.9692 0.65036 0.0381 0.03811 1.3494 0.10614 2.914 0.15119 2.719 0.07828 6.0128 0.33201 5.6931 0.43856-0.0832 0.02775-0.72697-0.01153-1.4305-0.08728-0.70354-0.07574-2.7368-0.18478-4.5184-0.24229l-3.2392-0.10457-0.54974 0.37592c-1.5819 1.0817-3.8065 2.9604-5.3322 4.5033-0.73925 0.74752-1.1276 1.0578-1.2756 1.0191-0.11702-0.0306-0.50265 0.08018-0.85697 0.24619-0.40762 0.19098-1.4154 0.44033-2.744 0.67896-4.912 0.88222-12.415 2.5952-12.101 2.7627 0.0891 0.04746 0.64795 0.18102 1.2419 0.2968l1.0799 0.2105 1.4399-0.48511c1.5983-0.5385 6.568-1.9253 9.5314-2.6597 1.0567-0.26189 2.0751-0.55566 2.263-0.65283 0.18789-0.09716 0.9587-0.75495 1.7129-1.4617 1.487-1.3936 3.3517-2.9744 4.7119-3.9948l0.85897-0.64436 2.8197 0.07323c1.5508 0.04028 3.6566 0.15383 4.6796 0.25234 2.5914 0.24956 5.4386 0.66228 5.586 0.80974 0.0305 0.03051-0.22135 0.53646-0.55968 1.1243-0.60215 1.0463-2.5482 4.7694-2.6401 5.0509-0.0352 0.10777-0.2508 0.09917-0.8864-0.03536-1.1669-0.24697-4.4959-0.766-4.8595-0.75766-0.16499 0.0038 0.72593 0.18582 1.9798 0.40453s2.6087 0.46708 3.0108 0.55194c0.40205 0.08486 0.8201 0.1201 0.92901 0.0783 0.10891-0.04179 0.41564-0.54703 0.68163-1.1228 0.26598-0.57572 1.0027-2.0142 1.6371-3.1966 0.87429-1.6295 1.1153-2.1734 0.99595-2.2472-0.0866-0.05354-0.75541-0.18651-1.4862-0.2955-0.73077-0.10898-1.5986-0.24652-1.9286-0.30564l-0.59994-0.10748 0.71993 0.05602c1.1645 0.09061 3.1672 0.44003 3.3694 0.58787 0.16205 0.1185-0.0305 0.56196-1.4511 3.3419-0.90085 1.7629-1.5832 3.2052-1.5163 3.2052 0.21066 0 0.54458-0.58078 2.0368-3.5425 0.79879-1.5854 1.6188-3.0529 1.8223-3.261 0.49296-0.50421 1.1492-0.63274 3.5338-0.69213l1.9242-0.04792-1.918 0.10946c-2.5543 0.14579-3.0739 0.26042-3.5289 0.77865-0.19769 0.22516-1.036 1.7558-1.8628 3.4013-1.3979 2.782-1.6532 3.1785-2.2898 3.5567-0.19491 0.11578-0.19523 0.2526-0.006 2.457 0.11033 1.2839 0.21336 2.3471 0.22894 2.3627 0.0156 0.01559 0.91676-0.10464 2.0026-0.26717s2.0822-0.28983 2.2142-0.28288c0.13199 0.007-0.40795 0.11455-1.1999 0.23913-0.79192 0.12458-1.8043 0.28576-2.2498 0.35818l-0.80992 0.13168v0.88907c0 0.51863 0.0505 0.88907 0.12119 0.88907 0.0666 0 2.595-0.32397 5.6185-0.71993zm-1.1202-1.8634c0.21552-0.08015 3.552-0.53674 3.8192-0.52265 0.31851 0.01678-3.2186 0.56871-3.6393 0.56788-0.16499-0.000359-0.24598-0.02068-0.17999-0.04523zm4.8559-1.8059c-0.064-0.16829-0.11634-0.43746-0.11634-0.59815 0-0.25753 0.0569-0.29453 0.47995-0.31216 0.26398-0.01101 0.57242-0.02449 0.68543-0.03 0.14256-0.007 0.23877 0.13077 0.3142 0.44973 0.1317 0.55688 0.0656 0.6278-0.67331 0.72281-0.53496 0.06879-0.58144 0.05314-0.68993-0.23223zm0.81357 0.07124c0.0825-0.00096 0.14998-0.08841 0.14998-0.19446 0-0.12653-0.0653-0.16778-0.18979-0.11999-0.10439 0.04006-0.29337 0.07283-0.41996 0.07283-0.13198 0-0.23017 0.08275-0.23017 0.19398 0 0.14261 0.0715 0.17482 0.26998 0.12163 0.14849-0.0398 0.33747-0.07309 0.41996-0.07399zm0.015-0.4366c0.62364-0.12473 0.46796-0.40496-0.22498-0.40496-0.51995 0-0.59994 0.032-0.59994 0.23998 0 0.258 0.17991 0.29398 0.82492 0.16498zm7.6816-0.61823c-0.059-0.15527-0.10733-0.40682-0.10733-0.55901 0-0.24249 0.0763-0.28683 0.61748-0.35861 0.33962-0.04505 0.66399-0.0354 0.72084 0.02145 0.0569 0.05685 0.11646 0.31623 0.13245 0.5764l0.0291 0.47304-0.64259 0.06452c-0.59267 0.05951-0.65093 0.04259-0.74993-0.21779zm1.3325-0.09828c0-0.17784-0.44632-0.22237-0.92991-0.09277-0.52034 0.13945-0.2952 0.34607 0.32989 0.30275 0.41527-0.02877 0.60002-0.09343 0.60002-0.20998zm-0.34497-0.28839c0.14879 0 0.22498-0.08561 0.22498-0.25281 0-0.18124-0.0538-0.2322-0.1898-0.17998-0.10438 0.04006-0.37435 0.07283-0.59994 0.07283-0.33819 0-0.41014 0.04473-0.41014 0.25498 0 0.22158 0.0491 0.24515 0.37496 0.17998 0.20623-0.04124 0.4762-0.07499 0.59994-0.07499zm-51.494 5.519c0-0.06415-0.31047-0.20599-0.68993-0.31519-0.95164-0.27387-2.6919-0.90593-2.6392-0.95857 0.0238-0.02378 0.76447 0.19844 1.646 0.49382 0.88151 0.29538 1.6298 0.50996 1.663 0.47684 0.0914-0.09145 0.0743-0.09797-1.6596-0.63186-1.4084-0.43366-1.6424-0.47626-1.7927-0.32638-0.0951 0.09481-0.14906 0.19497-0.11999 0.22258 0.0586 0.05572 3.3597 1.1385 3.5025 1.1489 0.0495 0.0036 0.09-0.04595 0.09-0.1101zm56.82-0.29134c0.0421-0.22439 0.0508-0.50786 0.0194-0.62994-0.0398-0.15456-0.0614-0.12414-0.0711 0.1002-0.008 0.17719-0.0666 0.46066-0.13094 0.62994-0.0706 0.18583-0.0728 0.30778-0.006 0.30778 0.0614 0 0.14602-0.18359 0.18811-0.40798zm0.51256-1.1259c0.0283-0.86276-0.006-1.2247-0.13038-1.3922-0.14884-0.1998-0.16782-0.09408-0.16155 0.89991 0.004 0.61947-0.0358 1.3423-0.0884 1.6063-0.0921 0.46321-0.0878 0.47249 0.12327 0.26593 0.17561-0.17182 0.22628-0.44389 0.25701-1.3799zm-18.127 1.3312c-0.11548-0.03018-0.30446-0.03018-0.41996 0-0.11548 0.03018-0.021 0.05487 0.20998 0.05487s0.32548-0.02469 0.20998-0.05487zm0.83992-0.11999c-0.11548-0.03018-0.30446-0.03018-0.41996 0-0.11548 0.03018-0.021 0.05487 0.20998 0.05487s0.32548-0.02469 0.20998-0.05487zm20.592-0.52594c0.17388-0.13678 0.31615-0.31661 0.31615-0.39962 0-0.08302 0.12764-0.40307 0.28365-0.71122 0.15601-0.30816 0.26091-0.56028 0.23312-0.56028-0.0278 0-0.28817 0.05984-0.5786 0.13297-0.56326 0.14183-0.65842 0.29448-0.83341 1.3369-0.0891 0.53106 0.0835 0.59108 0.57909 0.20127zm-60.638-0.98813v-1.1168l-1.2778-0.33115c-1.0297-0.26685-1.2972-0.30045-1.378-0.17305-0.0551 0.08696-0.10108 0.54537-0.10209 1.0187l-0.002 0.8606 1.2299 0.37573c0.67643 0.20665 1.2839 0.39556 1.3499 0.4198s0.13349 0.04834 0.14998 0.05355c0.0165 0.0052 0.03-0.4931 0.03-1.1074zm43.406 1.0341c-0.11549-0.03018-0.30447-0.03018-0.41996 0-0.11548 0.03018-0.021 0.05487 0.20998 0.05487s0.32547-0.02469 0.20998-0.05487zm1.5298-0.28669c-0.26047-0.0731-0.14439-0.08841 0.41996-0.05537 0.58848 0.03445 0.69157 0.01958 0.41996-0.06056-0.27795-0.08202-0.19593-0.09572 0.35997-0.06013 0.52763 0.03378 0.6398 0.01712 0.41996-0.06237-0.21873-0.07908-0.10498-0.09533 0.41996-0.05999 0.42762 0.02879 0.59813 0.01214 0.41996-0.041-0.23505-0.0701-0.12908-0.10855 0.48966-0.17765 0.4343-0.0485 0.94725-0.05703 1.1399-0.01897 0.29456 0.05821 0.3121 0.0495 0.11028-0.05477-0.18368-0.0949-0.0852-0.11166 0.41996-0.07143 0.46901 0.03735 0.59051 0.01999 0.41996-0.06-0.17033-0.07988-0.0485-0.09705 0.41996-0.05917 0.52139 0.04217 0.59696 0.02833 0.35996-0.06591-0.21947-0.08727-1.129-0.01281-3.3897 0.27748-1.6993 0.21822-3.0897 0.43387-3.0897 0.47922 0 0.10417 0.33052 0.19229 0.71993 0.19193 0.27267-0.00024 0.2672-0.0095-0.06-0.10131zm2.5711-0.7191c1.5461-0.20088 3.031-0.33702 3.2997-0.30254 0.32234 0.04137 0.38653 0.03164 0.18863-0.02858-0.24183-0.0736-0.26162-0.10604-0.10207-0.16736 0.10884-0.04184 0.26464-0.28233 0.34621-0.53442 0.0816-0.2521 0.25397-0.66845 0.38311-0.92524l0.23482-0.46688-0.58102 0.06979c-0.31956 0.03839-2.0794 0.24764-3.9107 0.465l-3.3297 0.3952v0.98879 0.98879l0.32997-0.05865c0.18148-0.03226 1.595-0.22301 3.141-0.4239zm0.93606 0.29607c-0.0398-0.03987-0.14336-0.04413-0.22998-0.0095-0.0957 0.0383-0.0673 0.06674 0.0725 0.07249 0.1265 0.0052 0.19736-0.02315 0.15749-0.06302zm-37.674-0.13c-0.11548-0.03018-0.30446-0.03018-0.41996 0-0.11548 0.03018-0.021 0.05488 0.20998 0.05488s0.32547-0.02469 0.20998-0.05488zm-1.0176-0.11598c-0.0812-0.03287-0.24322-0.03487-0.35997-0.0045-0.11674 0.03042-0.0502 0.05731 0.14771 0.05976 0.19798 0.0025 0.2935-0.02245 0.21226-0.05531zm-12.844-1.206c0.0219-0.47536-0.002-0.79933-0.0519-0.71993-0.0505 0.0794-0.0863 0.54932-0.0797 1.0443 0.0142 1.0532 0.075 0.90329 0.13157-0.32434zm11.822 1.0815c-0.11549-0.03018-0.30447-0.03018-0.41996 0s-0.021 0.05487 0.20998 0.05487 0.32547-0.02469 0.20998-0.05487zm49.976-0.15805c0.60974-0.13242 1.2301-0.26843 1.3786-0.30226 0.18449-0.04203 0.26998-0.14943 0.26998-0.33919 0-0.15273-0.0286-0.30635-0.0637-0.34139-0.035-0.03504-0.56148 0.03646-1.1699 0.15889-1.7496 0.35208-1.6461 0.30761-1.6461 0.70702 0 0.19672 0.0276 0.35768 0.0613 0.35768s0.56015-0.10834 1.1699-0.24076zm-50.092-0.63928c0.61265-0.2155 1.0716-0.43822 1.0199-0.49494-0.0517-0.05671-0.009-0.07296 0.0943-0.0361 0.10355 0.03686 1.1564-0.19877 2.3398-0.52362 1.1833-0.32486 2.5294-0.67856 2.9914-0.786 0.46195-0.10745 0.77906-0.21647 0.70468-0.24227-0.14378-0.04987-5.0793 1.0844-5.8268 1.3391-0.25366 0.08644-0.48746 0.10588-0.54778 0.04556-0.0579-0.05788-0.49518-0.18654-0.97177-0.28591-1.1113-0.23171-5.3781-0.77556-6.0847-0.77556-0.58348 0-1.8414 0.54399-1.6568 0.7165 0.25761 0.24076 4.7385 0.96741 5.924 0.96068 0.23098-0.0013 0.87614-0.13624 1.4337-0.29984 0.55755-0.1636 1.0975-0.29275 1.1999-0.287 0.10237 0.0058-0.27281 0.14025-0.83376 0.29889-1.4172 0.40079-1.3748 0.37985-1.1987 0.592 0.18746 0.22587 0.10331 0.23907 1.4127-0.22152zm52.896 0.0035c0.0119-0.01288 0.0405-0.15841 0.0634-0.32339 0.0358-0.25697-0.002-0.29577-0.25824-0.27069-0.71339 0.06963-0.83992 0.14498-0.83992 0.5002 0 0.34341 0.002 0.34443 0.50653 0.23112 0.27859-0.06259 0.51629-0.12435 0.52821-0.13723zm-2.5346-0.27325c0.59394-0.11202 1.126-0.24492 1.1823-0.29532s-0.29464-0.01516-0.77993 0.07833c-0.48529 0.09348-1.086 0.20336-1.335 0.24416-0.24894 0.04081-0.48517 0.12689-0.52498 0.19128-0.0417 0.06763 0.0226 0.08924 0.15265 0.05115 0.12375-0.03626 0.71096-0.15758 1.3049-0.26961zm-0.1612-0.23731c0.6166-0.11182 1.1359-0.21572 1.1539-0.23088 0.0181-0.01516-0.003-0.12246-0.0481-0.23844-0.07-0.18243-0.19582-0.20244-0.93273-0.14832l-0.85181 0.06255 0.83991-0.13951 0.83992-0.13951 0.0369-0.50927 0.0369-0.50927-0.51685 0.00096c-0.61168 0.0011-1.8933 0.19809-2.3038 0.35414-0.2857 0.10862-0.28721 0.11702-0.0966 0.53758 0.17334 0.38242 0.24452 0.42873 0.6786 0.44142l0.48496 0.01418-0.56482 0.11785-0.56482 0.11785 0.19261 0.29395c0.10593 0.16167 0.26055 0.26788 0.34361 0.236 0.0831-0.03187 0.65552-0.14944 1.2721-0.26126zm-58.573-0.421c0.099-0.11986 0.41547-0.35032 0.70329-0.51213l0.52331-0.2942-0.58331-0.12297c-2.2173-0.46744-2.4298-0.46146-3.523 0.09916l-0.41996 0.21537 1.1116 0.33326c0.70608 0.21169 1.0562 0.36898 0.95991 0.43119-0.0844 0.05453 0.0345 0.06694 0.26831 0.028 0.32576-0.05424 0.37959-0.03993 0.23997 0.06381-0.14039 0.10432-0.10079 0.11644 0.17999 0.05508 0.19798-0.04326 0.44096-0.17672 0.53995-0.29658zm61.194 0.11464c0.21771-0.12404-0.54878 0.0033-0.89991 0.14948-0.15134 0.06302-0.0627 0.0728 0.23998 0.02649 0.26397-0.04038 0.56094-0.11957 0.65993-0.17597zm-62.666-0.06c-0.0398-0.03987-0.14336-0.04413-0.22998-0.0095-0.0957 0.0383-0.0673 0.06674 0.0725 0.07249 0.12649 0.0052 0.19735-0.02315 0.15749-0.06302zm54.154-0.116c0.20917-0.25203 0.89416-0.59386 1.5368-0.7669 0.75204-0.2025 1.3967-0.05687 1.9464 0.43967 0.25455 0.22997 0.51292 0.39965 0.57416 0.37706 0.22382-0.08253-0.38486-1.084-0.84317-1.3873-0.54509-0.36072-1.7886-0.49959-2.573-0.28733-0.99636 0.26963-1.7761 1.0833-1.565 1.6333 0.0916 0.23873 0.72354 0.23292 0.92389-0.0085zm8.4666-0.01346c0.35014-0.13436-0.002-0.27774-0.68167-0.27774-0.51404 0-0.71285 0.04462-0.71285 0.15998 0 0.08799 0.0402 0.20014 0.0892 0.24922 0.0862 0.08618 0.97013-0.0029 1.3053-0.13146zm-63.609-0.158c-0.13198-0.05672-0.32097-0.10312-0.41996-0.10312-0.11344 0-0.0913 0.03812 0.06 0.10312 0.13198 0.05671 0.32097 0.10312 0.41996 0.10312 0.11344 0 0.0913-0.03813-0.06-0.10312zm19.078-1.132c0.32996-0.09182 0.51895-0.17072 0.41996-0.17535-0.099-0.0046-0.44996 0.06671-0.77993 0.15852-0.32997 0.09182-0.51895 0.17073-0.41996 0.17535 0.099 0.0046 0.44996-0.06671 0.77993-0.15852zm0.9874-0.26089c-0.0398-0.03987-0.14336-0.04413-0.22997-0.0095-0.0957 0.0383-0.0673 0.06674 0.0725 0.0725 0.12649 0.0052 0.19736-0.02315 0.15749-0.06302zm20.843-1.1891c2.3798-0.23191 4.462-0.45454 4.627-0.49475 0.85451-0.20822-0.39673-0.13528-4.2867 0.24991-4.894 0.48461-5.1726 0.4978-5.2679 0.24942-0.0677-0.17666 2.4561-5.2201 3.0583-6.1114 0.64698-0.95752 1.1689-1.1436 3.2195-1.148 0.88828-0.0019 1.372-0.05009 1.429-0.14239 0.10496-0.16983-3.0097-0.05488-3.6627 0.13518-0.84849 0.24697-1.4253 1.1184-3.4456 5.2052-1.0161 2.0555-1.0492 2.1479-0.82782 2.3098 0.30698 0.22447 0.20604 0.22942 5.1569-0.25302zm-0.47255-0.29173c1.7818-0.18497 3.0942-0.34311 2.9164-0.35141-0.17783-0.0083-1.4937 0.09693-2.9242 0.23385s-2.9994 0.23141-3.4866 0.20998c-0.64944-0.02857-0.8856 0.001-0.8854 0.11102 0.00036 0.21419 0.64563 0.18422 4.3799-0.20343zm3.7675-0.44682 0.28787-0.07702-0.0759-1.7512c-0.0755-1.7424-0.3772-4.6682-0.49329-4.7843-0.16115-0.16115-0.19035 0.41408-0.0726 1.4308 0.0715 0.61732 0.16431 2.0213 0.20631 3.1199 0.0726 1.8971 0.0649 2.0004-0.15192 2.0559-0.12554 0.03212-0.17427 0.06392-0.10827 0.07067 0.066 0.0067 0.24952-0.02238 0.40784-0.06475zm18.607-0.18967c-0.009-0.8886-0.36864-1.5299-0.85702-1.5299-0.17226 0-0.19413 0.05272-0.11196 0.26997 0.0562 0.14848 0.14088 0.55345 0.18827 0.89991 0.0815 0.59566 0.10514 0.62994 0.43487 0.62994 0.28248 0 0.34816-0.05127 0.34584-0.26997zm-17.739-0.11999 0.0163-0.26997 0.052 0.26997c0.0286 0.14849 0.12924 0.26997 0.22363 0.26997 0.22751 0 0.22591-0.82857-0.006-2.7043-0.36335-2.949-0.56166-4.0151-0.7469-4.0151-0.12736 0-0.15697 0.09014-0.1084 0.32997 0.17563 0.8673 0.44262 3.346 0.48789 4.5296l0.0505 1.3199-0.11115-1.3199c-0.14299-1.698-0.54601-4.7306-0.64137-4.8259-0.18403-0.18404-0.18723 0.15926-0.0149 1.5994 0.1018 0.85066 0.21962 2.3431 0.26182 3.3165 0.0699 1.6124 0.0964 1.7698 0.29804 1.7698 0.14469 0 0.22699-0.09348 0.23767-0.26997zm0.94254 0.05999c-0.006-1.0655-0.55874-5.3748-0.79374-6.1794-0.0571-0.19568 0.12703-0.20998 2.7049-0.20998h2.7662l0.19056 0.44996c0.45228 1.0679 1.373 4.0113 1.4441 4.617l0.0776 0.66031-0.4046 0.06941c-0.22252 0.03818-1.6465 0.19268-3.1643 0.34334s-2.6651 0.29265-2.5494 0.31552c0.20447 0.04042 4.9607-0.38817 5.8948-0.5312l0.46567-0.07131-0.0762-0.73672c-0.0869-0.84075-1.4059-4.8184-1.6932-5.106-0.16076-0.16095-0.6331-0.19582-3.0657-0.22632-2.2991-0.02883-2.8754-0.0048-2.8744 0.11999 0.00072 0.08582 0.13618 1.074 0.30102 2.1958 0.16484 1.1219 0.33444 2.5933 0.37688 3.2697 0.0574 0.91345 0.1188 1.2299 0.23893 1.2299 0.089 0 0.16128-0.09449 0.16072-0.20998zm-18.087-0.59463c-0.14848-0.0286-0.39145-0.0286-0.53994 0s-0.027 0.05199 0.26997 0.05199 0.41846-0.0234 0.26997-0.05199zm-1.0782-0.11977c-0.14758-0.02849-0.41756-0.02922-0.59995-0.0016-0.18239 0.02758-0.0617 0.05088 0.26833 0.05179 0.32997 0.0008 0.47919-0.02166 0.33162-0.05015zm-1.1999-0.11999c-0.14758-0.02848-0.41755-0.02922-0.59994-0.0016-0.18239 0.02758-0.0617 0.05088 0.26832 0.05178 0.32997 0.0008 0.4792-0.02166 0.33162-0.05015zm1.5826-2.1953c0.33829-0.82492 0.85822-1.9655 1.1554-2.5347l0.54034-1.0349-0.78507-0.07417c-1.5441-0.14588-2.3064-0.09168-2.9449 0.20936-0.5703 0.26891-2.0827 1.4679-3.9896 3.1627-0.83244 0.73988-0.86992 0.79607-0.86992 1.3043v0.53115l3.1393-0.03199 3.1393-0.03199 0.61507-1.4999zm-8.95 0.37447c-0.15988-0.05329-0.70344 0.51516-0.70344 0.73566 0 0.07526 0.19121-0.04849 0.42492-0.27501 0.25647-0.24858 0.36688-0.43119 0.27852-0.46064zm13.249 0.21616c0.0361-0.2691 0.16469-0.59928 0.28577-0.73375 0.20484-0.22747 0.30778-0.23877 1.48-0.16236 0.77427 0.05047 1.3648 0.1499 1.532 0.25797 0.21554 0.13928 0.28299 0.14379 0.32431 0.02169 0.19546-0.57751 0.79091-2.7663 0.76066-2.7961-0.0713-0.07015-3.5217-0.53058-4.227-0.56406-0.69482-0.03299-0.71536-0.02486-0.953 0.37688-0.16034 0.27106-0.24522 0.63334-0.24978 1.0661-0.006 0.52657-0.0541 0.68182-0.24689 0.7893-0.13199 0.07358-0.26041 0.14522-0.28538 0.1592-0.046 0.02572-0.49188 1.8184-0.49361 1.9844-0.00048 0.0495 0.45091 0.08999 1.0032 0.08999h1.0041l0.0656-0.48927zm19.709-1.7605c-0.28511-0.84142-0.55708-1.6243-0.60439-1.7398-0.0781-0.19058-0.31876-0.20998-2.6058-0.20998-2.1267 0-2.5096 0.02657-2.4544 0.17028 0.0359 0.09366 0.15719 0.76859 0.26946 1.4999l0.20411 1.3296h0.34709c0.19381 0 0.37681-0.07746 0.4144-0.17541 0.10635-0.27715 0.43889-0.3229 1.3229-0.18198 0.58089 0.0926 0.91008 0.21523 1.1222 0.41804 0.24555 0.23483 0.45274 0.29475 1.1399 0.32965 0.46188 0.02346 0.9575 0.05324 1.1014 0.06615 0.2537 0.02279 0.24595-0.02264-0.2568-1.5064zm-7.548 0.29997c-0.0394-0.34647-0.10656-0.96741-0.14932-1.3799l-0.0778-0.74993h-1.2897c-0.88664 0-1.3278 0.04687-1.4118 0.14998-0.0671 0.08249-0.18035 0.52795-0.25158 0.9899-0.12457 0.80798-0.11869 0.85074 0.15469 1.1245 0.24757 0.24789 0.44426 0.29584 1.5268 0.37217 0.68341 0.04819 1.3163 0.09563 1.4064 0.10541 0.12786 0.01389 0.14811-0.12049 0.0922-0.61215z"/>
 </g>
</svg>
