<?xml version="1.0" encoding="UTF-8" standalone="no"?>
<!-- Created with Inkscape (http://www.inkscape.org/) -->
<svg id="svg2" xmlns:rdf="http://www.w3.org/1999/02/22-rdf-syntax-ns#" xmlns="http://www.w3.org/2000/svg" height="54" width="99" version="1.1" xmlns:cc="http://creativecommons.org/ns#" xmlns:dc="http://purl.org/dc/elements/1.1/">
 <metadata id="metadata7">
  <rdf:RDF>
   <cc:Work rdf:about="">
    <dc:format>image/svg+xml</dc:format>
    <dc:type rdf:resource="http://purl.org/dc/dcmitype/StillImage"/>
    <dc:title/>
   </cc:Work>
  </rdf:RDF>
 </metadata>
 <g id="g3491">
  <g id="g3871">
   <g id="g4614">
    <g id="g5219">
     <g id="g5689">
      <g id="g6406">
       <g id="g7263">
        <g id="g8053">
         <g id="g8717">
          <g id="g9406">
           <g id="g9898">
            <g id="g10207">
             <g id="g10407">
              <g id="g10743">
               <g id="g11282">
                <g id="g15079">
                 <g id="g15585">
                  <g id="g16769">
                   <g id="g17492">
                    <g id="g17976">
                     <rect id="rect2990" opacity="0" height="54" width="99" y="0" x="0"/>
                     <g id="layer1" transform="translate(268.07017,8.0288024)">
                      <g id="logo22" transform="matrix(0.18839833,0,0,0.18839833,-263.56895,1.2575596)">
                       <g id="g86452">
                        <path id="path86454" d="m438.4,114.35c1.111,0.895,2.991,1.898,5.571,1.501,2.689-0.414,17.888-4.387,22.612-6.075,4.725-1.688,5.063-3.375,7.087-9.45,0.984-2.952,2.7-4.05,3.038-5.737s0.337-6.075,0-7.425-0.337-3.038-6.75-3.038c1.013-6.413,0.337-21.262-0.675-26.663-1.188-6.337-0.675-6.75-6.413-8.1s-40.5-4.05-40.5-4.05-8.1-19.912-11.475-27.337-5.737-8.1-11.137-9.112c-5.4-1.018-57.72-7.768-120.83-8.105s-77.96,5.737-83.02,8.438c-5.063,2.7-29.7,21.937-38.138,31.049-8.775,0-10.8,5.4-9.787,9.788,0,0-6.75,0.337-8.1,2.025-2.574,3.217-12.15,2.7-60.75,13.163s-59.4,15.188-61.425,17.887c-2.025,2.7-2.363,12.15-1.688,17.888-2.363,0.675-3.038,6.075-3.038,6.075s-9.45,3.712-10.462,4.388c-1.012,0.675-0.675,4.725-0.675,4.725-1.35,0.338-1.688,5.738,0.337,6.75,0,0,1.35,10.462,2.025,11.813,0.675,1.35,17.55,8.438,17.55,8.438s2.362,2.7,3.375,1.35l23.287,8.775s-1.012,2.7,2.025,3.712c27.675,9.45,73.237,16.2,74.587,15.525s4.388-4.725,4.388-4.725c23.962-1.35,47.587-3.712,48.6-4.05,1.013-0.337,3.375-6.075,3.375-6.075l1.601-0.356,0.086-0.657c4.388,0,10.8-16.538,13.5-25.987,2.7-9.45,14.175-26.663,38.137-25.987,23.962,0.675,23.287,27,21.6,41.85l-0.462-0.232c-0.172,1.413-0.583,3.303-1.563,4.282-1.688,1.688,1.013,3.713,7.425,2.7l117.11-18.9c7.385-1.182,9.082-1.329,13.463-1.347l0.037-0.003c6.413-3.038,10.125-14.512,13.837-27.675,3.712-13.162,12.488-21.262,21.6-22.275,9.112-1.012,13.5,5.063,14.175,14.85,0.675,9.788-2.025,14.85-2.025,14.85l-1.688-0.338c0.036,0.384,0.057,0.84,0.061,1.361l0.109,0.511z" fill="#FFF"/>
                       </g>
                       <path id="path86456" d="m183.08,156.69c0,11.475,7.087,30.037,24.3,31.05l13.837,0.337c28.012-1.688,29.025-42.862,29.025-42.862s3.038-0.675,6.075,1.35c1.688-14.85,2.363-41.175-21.6-41.85-23.962-0.675-35.438,16.537-38.137,25.987-2.7,9.45-9.112,25.988-13.5,25.988z"/>
                       <path id="path86458" d="m392.33,133.06s1.688,18.563,16.2,18.563h7.425c18.225,0,22.95-32.063,22.275-39.15l1.688,0.338s2.7-5.063,2.025-14.85c-0.675-9.788-5.063-15.862-14.175-14.85-9.112,1.013-17.888,9.113-21.6,22.275-3.713,13.161-7.426,24.636-13.838,27.674z"/>
                       <path id="path86460" d="m196.25,11.563c-11.475,7.762-40.5,32.4-45.563,38.812,0,0,23.625,1.013,60.075,4.725s55.35,8.438,55.35,8.438c6.413-14.175,17.888-35.1,23.625-44.55-25.988-5.062-58.725-8.1-93.487-7.425z"/>
                       <path id="path86462" d="m333.27,16.289s-20.587-0.675-25.313,1.688c-4.725,2.362-6.412,4.387-9.112,9.45s-15.188,28.012-18.9,36.787c-0.675,2.025,0.675,2.7,7.425,2.363s48.938-4.388,48.938-4.388c-0.001-25.65-3.038-45.9-3.038-45.9z"/>
                       <path id="path86464" d="m344.07,15.276s5.738,25.65,5.738,45.562l45.225-4.725c0-11.475-12.15-40.5-12.15-40.5l-38.82-0.337z"/>
                       <path id="path86466" d="m184.43,157.02-3.038,0.675s-2.362,5.737-3.375,6.075c-1.012,0.337-24.637,2.7-48.6,4.05,0,0-3.038,4.05-4.388,4.725s-46.912-6.075-74.587-15.525c-3.037-1.012-2.025-3.712-2.025-3.712l-23.288-8.8c-1.013,1.35-3.375-1.35-3.375-1.35s-16.874-7.088-17.549-8.438c-0.676-1.37-2.026-11.83-2.026-11.83-2.025-1.012-1.688-6.412-0.337-6.75,0,0-0.338-4.05,0.675-4.725s10.462-4.388,10.462-4.388,0.675-5.4,3.038-6.075c-0.675-5.738-0.337-15.188,1.688-17.888s12.825-7.425,61.425-17.887,58.176-9.945,60.75-13.163c1.35-1.688,8.1-2.025,8.1-2.025-1.013-4.387,1.012-9.788,9.787-9.788,8.438-9.112,33.075-28.35,38.138-31.049,5.062-2.7,19.912-8.775,83.024-8.438s115.42,7.087,120.82,8.1c5.4,1.012,7.762,1.688,11.137,9.112s11.475,27.337,11.475,27.337,34.762,2.7,40.5,4.05,5.224,1.762,6.413,8.1c1.012,5.4,1.688,20.25,0.675,26.663,6.413,0,6.413,1.688,6.75,3.038s0.337,5.737,0,7.425-2.054,2.786-3.038,5.737c-2.025,6.075-2.362,7.763-7.087,9.45-4.725,1.688-19.923,5.661-22.612,6.075-4.388,0.675-6.75-2.7-6.75-2.7" stroke="#000" stroke-width="1.5" fill="none"/>
                       <path id="path86468" d="m394.36,133.06c-6.075,0-7.087,0-15.525,1.35l-117.11,18.9c-6.413,1.013-9.113-1.013-7.425-2.7s1.688-6.075,1.688-6.075" stroke="#000" stroke-width="1.5" fill="none"/>
                       <path id="path86470" d="m86.052,107.92c0.844,0,1.013-9.112,0.169-9.45s-23.793-2.784-24.637-2.953v5.231l3.712,4.135,20.756,3.037z"/>
                       <path id="path86472" d="m85.884,111.12c-0.812-0.232-20.925-3.207-20.925-3.207l-2.025,4.725-2.194-0.337v3.543s23.962,4.05,24.975,4.219c1.013,0.17,1.35-8.605,0.169-8.943z"/>
                       <path id="path86474" d="m58.04,115.18v-3.206l-1.688-0.506-0.844-5.231-11.981-2.362c-1.013-0.337-0.844,8.1,0,8.438l14.513,2.867z"/>
                       <path id="path86476" d="m58.293,95.347v4.894l-2.447,2.447-12.318-2.363c-0.844-0.337-0.675-8.438,0.337-8.269l14.428,3.291z"/>
                       <polygon id="polygon86478" points="90.777,118.55,126.22,123.11,126.89,104.21,91.115,99.819" stroke="#000" fill="#FFF"/>
                       <path id="path86480" d="m128.41,104.54-0.168,18.394s4.894,0.675,8.944,0.675l0.168-18.9c-4.219,0.675-8.944-0.169-8.944-0.169z" fill="#FFF" stroke="#000"/>
                       <path id="path86482" d="m138.53,104.54,0.169,18.731,7.594-2.869c1.181-2.869,1.783-14.73,0.337-15.694-1.518-1.012-8.1-0.168-8.1-0.168z" fill="#FFF" stroke="#000"/>
                       <path id="path86484" d="m40.828,91.888-0.168,17.044-20.925-6.413s-0.337-14.006,1.181-16.031l19.912,5.4z" fill="#FFF" stroke="#000"/>
                       <path id="path86486" d="m19.565,86.15c-1.856,3.038-1.181,15.862-1.181,15.862l-1.856-1.181c-0.675-1.516-0.169-14.341,0.844-15.691l2.193,1.013z" fill="#FFF" stroke="#000"/>
                       <path id="path86488" d="m17.709,83.113c1.856,1.688,23.456,7.256,23.456,7.256,0.337-2.362,0.506-3.712,3.712-2.7s11.812,2.7,15.525,3.375c3.712,0.675,24.637,2.869,27.506,3.375s3.206,2.025,3.206,3.713c0,0,28.35,3.543,35.944,4.05s14.681-2.194,20.756-4.05,62.943-19.406,91.293-24.806,29.362-7.425,29.362-7.425" stroke="#000" stroke-width="0.5" fill="none"/>
                       <path id="path86490" d="m29.859,77.375c5.4,0.675,21.938,4.388,21.938,4.388" stroke="#000" stroke-width="0.5" fill="none"/>
                       <path id="path86492" d="m41.671,88.513c0.675-2.025,6.075-6.075,20.587-10.8,14.513-4.725,66.487-18.9,75.6-20.587s12.825-6.75,12.825-6.75" stroke="#000" stroke-width="0.5" fill="none"/>
                       <path id="path86494" d="m87.909,94.419c16.2-5.231,86.737-22.106,118.46-26.831,0,0-86.062,18.225-115.26,30.544" stroke="#000" stroke-width="0.5" fill="none"/>
                       <path id="path86496" d="m53.146,81.088c2.362-0.675,53.898,5.25,54.337,8.1,0.337,2.194,3.712,2.194,3.712,2.194s27.337,4.894,29.362,5.231,5.4,0.675,6.413,2.363c1.013,1.687,2.874,3.007,2.7,10.125-0.337,13.837-0.337,14.513-4.05,15.525-3.712,1.013-10.142,1.97-17.887,1.35-8.438-0.675-38.812-5.4-38.812-5.4" stroke="#000" stroke-width="0.5" fill="none"/>
                       <path id="path86498" d="m90.777,118.55s-2.869,4.05-4.894,4.05-18.563-3.038-27.337-4.725-16.2-3.375-16.2-3.375c-2.7-1.012-1.688-5.568-1.688-5.568" stroke="#000" stroke-width="0.5" fill="none"/>
                       <path id="path86500" d="m15.009,102.35c3.375,2.363,17.55,6.413,25.65,9.113" stroke="#000" stroke-width="0.5" fill="none"/>
                       <path id="path86502" d="m3.872,133.4s2.025,2.025,7.087,4.05,37.125,12.15,37.125,12.15,16.537,4.387,37.462,7.425c30.702,4.457,36.112,4.05,46.912,4.05s48.937-3.375,48.937-3.375c3.712-2.7,9.45-17.55,11.138-22.275s3.037-8.775,3.037-8.775c-1.688,1.012-4.725-1.688-6.75-3.038-24.975,3.038-53.324,7.087-59.062,7.087-5.737,0-68.85-6.75-75.937-8.438s-45.9-12.487-45.9-12.487" stroke="#000" stroke-width="0.5" fill="none"/>
                       <path id="path86504" d="M48.421,153.31" stroke="#000" stroke-width="0.5" fill="none"/>
                       <path id="path86506" d="m129.42,167.82s-48.6-5.063-56.024-6.412c-7.425-1.35-26.663-8.775-26.663-8.775" stroke="#000" stroke-width="0.5" fill="none"/>
                       <path id="path86508" d="m193.54,126.65s-0.75,0.104-2.078,0.289" stroke="#000" stroke-width="0.5" fill="none"/>
                       <path id="path86510" d="m191.47,126.94c-9.068,1.256-45.116,6.21-53.947,6.799-10.125,0.675-77.625-7.425-86.737-9.113s-47.587-12.15-47.587-12.15" stroke="#000" stroke-width="0.5" fill="none"/>
                       <path id="path86512" d="m190.84,130.7c-10.58,1.893-40.792,7.152-51.299,7.429-12.825,0.337-84.375-7.425-92.475-9.45s-45.224-12.488-45.224-12.488" stroke="#000" stroke-width="0.5" fill="none"/>
                       <path id="path86514" d="m189.78,132.44c-11.085,1.935-41.513,7.102-51.924,7.376-12.825,0.337-84.375-7.425-92.475-9.45s-44.212-12.488-44.212-12.488" stroke="#000" stroke-width="0.5" fill="none"/>
                       <path id="path86516" d="m87.571,122.26s34.087,6.075,39.825,6.075,21.262-0.337,23.625-3.037c2.362-2.7,0.337-7.763,7.087-9.113s30.375-4.725,37.125-3.712" stroke="#000" stroke-width="0.5" fill="none"/>
                       <path id="path86518" d="m42.347,114.5s-21.938-6.412-28.688-9.45" stroke="#000" stroke-width="0.5" fill="none"/>
                       <path id="path86520" d="m195.57,126.65c4.388-10.463,16.538-24.3,36.112-24.3,19.575,0,26.387,12.824,26.663,27.675,0.387,20.875-3.375,22.95-3.375,22.95" stroke="#000" stroke-width="0.5" fill="none"/>
                       <path id="path86522" d="m188.82,123.61c6.413-11.138,14.175-28.688,40.837-29.025s29.7,15.862,31.05,20.925c1.688,1.35,3.038,7.087,1.688,8.438,0,9.788-0.675,22.612-6.75,26.325" stroke="#000" stroke-width="0.5" fill="none"/>
                       <path id="path86524" d="m191.52,127.66c-1.013,3.712-2.025,11.475-6.413,12.15-4.387,0.675-41.175,5.4-48.937,5.4-7.763,0-83.024-7.425-90.787-9.45-7.761-2.02-43.198-12.82-43.198-12.82" stroke="#000" stroke-width="0.5" fill="none"/>
                       <path id="path86526" d="m45.384,135.76s2.363,8.438,2.7,13.837" stroke="#000" stroke-width="0.5" fill="none"/>
                       <g id="g86528" stroke-width="0.5" stroke="#000">
                        <path id="path86530" d="m82.55,161.08c0.537,0,0.971-0.435,0.971-0.971v-15.95c0-0.537-0.435-0.972-0.971-0.972l-3.794-0.506c-0.537,0-0.972,0.435-0.972,0.972v15.944c0,0.537,0.435,0.972,0.972,0.972l3.794,0.505z" fill="#FFF"/>
                        <path id="path86532" d="m80.99,142.85c4.894,0.506,5.906,1.688,5.906,4.219s-0.675,10.293,1.856,10.462l-3.206-0.506s-2.025,1.264-2.025,3.079v-15.229c0.169-1.519-0.296-1.856-2.531-2.025z"/>
                        <path id="path86534" d="m82.55,161.08s2.237-0.084,3.081-0.421c0.843-0.338,1.265-0.506,1.265-1.182v-2.025" fill="none"/>
                       </g>
                       <g id="g86536" stroke-width="0.5" stroke="#000">
                        <path id="path86538" d="m24.678,145.51c0.317,0,0.574-0.286,0.574-0.638v-10.461c0-0.352-0.257-0.637-0.574-0.637l-2.24-0.332c-0.317,0-0.574,0.285-0.574,0.637v10.461c0,0.352,0.257,0.637,0.574,0.637l2.24,0.333z" fill="#FFF"/>
                        <path id="path86540" d="m23.757,133.56c2.89,0.332,3.487,1.107,3.487,2.768s-0.398,6.753,1.096,6.864l-1.893-0.332s-1.196,0.829-1.196,2.02v-9.991c0.1-0.997-0.174-1.219-1.494-1.329z"/>
                        <path id="path86542" d="m24.678,145.51s1.321-0.056,1.819-0.277c0.498-0.222,0.747-0.332,0.747-0.775v-1.329" fill="none"/>
                       </g>
                       <line id="line86544" stroke-width="0.5" x1="68.165" x2="68.165" stroke="#FFF" y1="95.601" y2="118.04" fill="none"/>
                       <line id="line86546" stroke-width="0.5" x1="75.252" x2="75.252" stroke="#FFF" y1="96.613" y2="119.06" fill="none"/>
                       <line id="line86548" stroke-width="0.5" x1="82.34" x2="82.34" stroke="#FFF" y1="97.625" y2="120.07" fill="none"/>
                       <line id="line86550" stroke-width="0.5" x1="54.328" x2="54.328" stroke="#FFF" y1="93.913" y2="114.84" fill="none"/>
                       <line id="line86552" stroke-width="0.5" x1="49.94" x2="49.94" stroke="#FFF" y1="92.563" y2="113.99" fill="none"/>
                       <line id="line86554" stroke-width="0.5" x1="45.89" x2="45.89" stroke="#FFF" y1="91.55" y2="112.98" fill="none"/>
                       <line id="line86556" stroke-width="0.5" x1="42.684" x2="59.053" stroke="#FFF" y1="93.238" y2="96.613" fill="none"/>
                       <line id="line86558" stroke-width="0.5" x1="42.684" x2="59.053" stroke="#FFF" y1="94.757" y2="98.3" fill="none"/>
                       <line id="line86560" stroke-width="0.5" x1="42.684" x2="59.053" stroke="#FFF" y1="96.613" y2="99.988" fill="none"/>
                       <line id="line86562" stroke-width="0.5" x1="42.684" x2="57.872" stroke="#FFF" y1="98.469" y2="101.51" fill="none"/>
                       <line id="line86564" stroke-width="0.5" x1="42.684" x2="56.353" stroke="#FFF" y1="105.22" y2="107.92" fill="none"/>
                       <line id="line86566" stroke-width="0.5" x1="42.684" x2="56.353" stroke="#FFF" y1="106.91" y2="109.61" fill="none"/>
                       <line id="line86568" stroke-width="0.5" x1="42.684" x2="58.546" stroke="#FFF" y1="108.59" y2="111.97" fill="none"/>
                       <line id="line86570" stroke-width="0.5" x1="42.684" x2="58.546" stroke="#FFF" y1="110.28" y2="113.66" fill="none"/>
                       <line id="line86572" stroke-width="0.5" x1="61.078" x2="87.571" stroke="#FFF" y1="97.119" y2="99.988" fill="none"/>
                       <line id="line86574" stroke-width="0.5" x1="61.078" x2="87.571" stroke="#FFF" y1="99.313" y2="102.18" fill="none"/>
                       <line id="line86576" stroke-width="0.5" x1="61.078" x2="87.402" stroke="#FFF" y1="101" y2="104.38" fill="none"/>
                       <line id="line86578" stroke-width="0.5" x1="63.103" x2="87.74" stroke="#FFF" y1="103.02" y2="106.4" fill="none"/>
                       <line id="line86580" stroke-width="0.5" x1="64.284" x2="87.234" stroke="#FFF" y1="109.44" y2="113.15" fill="none"/>
                       <line id="line86582" stroke-width="0.5" x1="63.271" x2="87.234" stroke="#FFF" y1="111.12" y2="115.18" fill="none"/>
                       <line id="line86584" stroke-width="0.5" x1="60.234" x2="87.065" stroke="#FFF" y1="112.31" y2="116.86" fill="none"/>
                       <line id="line86586" stroke-width="0.5" x1="60.571" x2="87.065" stroke="#FFF" y1="113.99" y2="118.72" fill="none"/>
                       <polygon id="polygon86588" points="65.803,105.72,59.896,98.807,54.834,103.36,56.353,111.46,62.765,112.64" stroke="#000"/>
                       <g id="g86590" stroke-width="0.5" stroke="#FFF" fill="none">
                        <polygon id="polygon86592" points="64.284,105.89,59.896,101,56.184,103.87,57.534,110.62,62.09,111.46"/>
                        <polyline id="polyline86594" points="59.896,101,59.728,106.06,62.09,111.46"/>
                        <polyline id="polyline86596" points="57.534,110.62,59.728,106.06,64.284,105.89"/>
                        <line id="line86598" x2="56.184" y1="106.06" x1="59.728" y2="103.87"/>
                       </g>
                       <path id="path86600" d="m229.66,13.588s-16.875-1.013-21.262-0.675c-4.388,0.337-7.087,1.688-12.15,5.737s-26.325,21.6-27.675,23.962-1.013,7.762-1.013,7.762,30.375,1.013,45.225-0.337c0,0.001,9.45-25.986,16.875-36.449z" fill="#FFF"/>
                       <path id="path86602" d="m278.93,18.988s-23.962-4.05-35.438-4.387c0,0-3.712,5.737-4.387,8.438,1.688,0.675,1.35,2.362,1.35,2.362l-0.675,4.725s-0.675,1.35-2.025,1.35h-1.688s-2.7,9.112-3.712,15.524h14.512c1.013-7.425,1.688-10.125,6.413-10.125l12.825,0.675c3.375,0.675,6.413,1.013,6.413,3.712l6.412-22.274z" fill="#FFF"/>
                       <path id="path86604" d="m315.72,17.976s-3.712-1.35-4.388,4.05l-1.35,10.125,4.05,4.05,19.912,1.35s-1.35-16.2-2.025-19.575h-16.2z" fill="#FFF"/>
                       <path id="path86606" d="m346.43,16.963s2.7,12.825,3.375,21.262l5.737,0.338c0-2.7,1.013-3.375,5.737-3.038,4.725,0.337,6.75,1.013,9.45,1.688s2.7,3.375,2.7,3.375l17.212,1.35s-6.75-21.937-8.438-24.637l-35.77-0.338z" fill="#FFF"/>
                       <line id="line86608" stroke-width="1.5" x1="157.77" x2="147.98" stroke="#000" y1="40.25" y2="50.038" fill="none"/>
                       <path id="path86610" d="m147.98,50.038c-1.688,1.688-1.519,2.531,7.762,2.363,5.737-0.104,45.731,3.037,61.593,4.725,15.863,1.688,43.538,6.919,46.912,7.931,3.375,1.013,4.219,0.844,5.907-2.531,1.149-2.299,6.75-13.837,11.475-22.95s9.45-17.212,10.462-19.575c1.013-2.363-0.337-2.7-6.075-3.712-5.738-1.013-35.775-5.737-55.012-6.075-19.237-0.337-35.1-1.012-35.1-1.012" stroke="#000" stroke-width="0.5" fill="none"/>
                       <path id="path86612" d="m267.46,66.576c-1.35,4.05,2.362,18.9,2.362,47.587,3.375,0.675,1.35,8.1,1.35,8.1-0.337,10.125-2.7,20.925-6.075,27.337l125.55-19.913c2.025-0.337,4.543-0.405,7.763-8.775,6.75-17.55,9.45-35.775,28.35-39.149,9.726-1.737,16.319,5.058,16.538,12.487,0.337,11.475,0,23.287-5.063,18.225" stroke="#000" stroke-width="0.5" fill="none"/>
                       <path id="path86614" d="m260.71,115.51c5.063,0.337,10.8-1.013,10.8-1.013l129.26-16.881c4.388-1.013,2.363,5.063,0.675,5.4l-130.27,19.24s-6.075,1.013-8.775,0.675" stroke="#000" stroke-width="0.5" fill="none"/>
                       <path id="path86616" d="m401.44,97.288c4.05-11.475,7.426-22.548,24.3-22.95,14.175-0.337,17.212,9.113,17.887,11.475s5.063,1.35,5.063,1.35l21.262-3.038" stroke="#000" stroke-width="0.5" fill="none"/>
                       <path id="path86618" d="m393.01,29.789s3.375,8.775,6.075,19.237c2.774,10.749,0.337,10.125-5.4,10.8s-99.562,10.462-110.02,11.137c-10.462,0.675-8.1-3.712-6.075-7.425,0,0,14.175-29.362,19.575-38.137s6.75-10.125,20.25-10.8,40.5-1.35,50.962-1.35c14.85,0,16.2-0.337,18.563,6.413s8.775,22.95,9.788,31.387c0,0,1.35,4.387,0.337,5.737s-9.112,1.688-9.112,1.688l-101.76,9.956c-7.425,0.338-8.438,0.338-6.244-4.219" stroke="#000" stroke-width="0.5" fill="none"/>
                       <path id="path86620" d="m409.54,80.75c2.7-4.05,2.025-7.763-1.012-19.237-3.04-11.475-14.17-40.837-16.2-45.563-2.02-4.725-3.71-6.75-14.51-6.75s-62.1,1.687-69.524,2.7c-7.425,1.013-9.788,1.013-15.863,13.5s-17.212,34.087-17.212,34.087-3.037,6.075-7.762,5.737" stroke="#000" stroke-width="0.5" fill="none"/>
                       <path id="path86622" d="m336.31,62.188,3.375,0.675c0-20.081-4.05-48.769-4.05-48.769l-2.362,2.194" stroke="#000" stroke-width="0.5" fill="none"/>
                       <path id="path86624" d="m343.23,62.863c0-18.731-4.894-48.938-4.894-48.938" stroke="#000" stroke-width="0.5" fill="none"/>
                       <path id="path86626" d="m341.37,13.926s5.737,30.544,5.737,48.431c2.362,1.181,3.038,2.869,3.375,10.631,0.337,7.763,1.013,22.275,0.337,30.712,2.7,0,2.7,6.75,2.7,6.75s-1.35,14.85-5.063,25.65" stroke="#000" stroke-width="0.5" fill="none"/>
                       <path id="path86628" d="m447.68,87.5-5.737,1.012c4.05,3.713,4.05,3.713,4.387,10.125,0.338,6.413,0,12.15-2.025,13.837s-4.05,1.35-4.05,1.35" stroke="#000" stroke-width="0.5" fill="none"/>
                       <line id="line86630" stroke-width="0.5" x1="446.33" x2="476.71" stroke="#000" y1="92.9" y2="87.163" fill="none"/>
                       <line id="line86632" stroke-width="0.5" x1="445.99" x2="476.71" stroke="#000" y1="94.925" y2="88.851" fill="none"/>
                       <line id="line86634" stroke-width="0.5" x1="446.67" x2="476.71" stroke="#000" y1="101" y2="94.588" fill="none"/>
                       <path id="path86636" d="m262.06,118.21c3.712,0,9.787-1.013,9.787-1.013l130.94-18.225" stroke="#000" stroke-width="0.5" fill="none"/>
                       <path id="path86638" d="m262.9,120.07s5.737-0.675,9.112-1.012,130.61-18.9,130.61-18.9" stroke="#000" stroke-width="0.5" fill="none"/>
                       <g id="g86640" fill="#FFF">
                        <ellipse id="ellipse86642" d="m 251.612,149.98 c 0,10.637 -12.95778,19.26 -28.942,19.26 -15.98423,0 -28.942,-8.623 -28.942,-19.26 0,-10.63701 12.95777,-19.26 28.942,-19.26 15.98422,0 28.942,8.62299 28.942,19.26 z" cx="222.67" cy="149.98" rx="28.942" ry="19.26" transform="matrix(-0.1367,0.9906,-0.9906,-0.1367,401.6898,-50.0983)"/>
                        <path id="path86644" d="M222.67,149.98"/>
                       </g>
                       <g id="g86646" stroke-width="0.5" stroke="#000">
                        <path id="path86648" d="m210.59,171.21c-1.821-2.169-3.271-4.934-4.258-8.099,0.813-0.398,2.819,0.565,4.574,1.481,1.969,1.028,0.331,4.881-0.316,6.618z"/>
                        <path id="path86650" d="m210.25,164.27s3.979,1.758,6.729,2.591c1.626,0.602-3.84,0.149-4.532,2.245" fill="none"/>
                        <path id="path86652" d="m210.59,171.21s1.272,1.747,2.434,2.436" fill="none"/>
                       </g>
                       <g id="g86654" stroke-width="0.5" stroke="#000">
                        <path id="path86656" d="m221.83,176.24c-2.478,0.237-4.905-0.292-7.118-1.543,0.507-1.052,2.613-2.302,4.486-3.345,2.101-1.171,2.414,3.064,2.632,4.888z"/>
                        <path id="path86658" d="m218.51,171.77s4.108-2.585,6.779-4.637c1.628-1.136-3.156,3.775-2.819,5.888" fill="none"/>
                        <path id="path86660" d="m221.83,176.24s1.833-0.005,3.108-0.638" fill="none"/>
                       </g>
                       <g id="g86662" stroke-width="0.5" stroke="#000">
                        <path id="path86664" d="m233.47,168.99c-1.975,2.532-4.243,4.485-6.647,5.734-0.035-1.214,1.184-4.094,2.299-6.606,1.25-2.821,3.367-0.184,4.348,0.872z"/>
                        <path id="path86666" d="m228.72,169.06s2.314-5.718,3.658-9.694c0.868-2.343-0.996,5.634,0.212,6.776" fill="none"/>
                        <path id="path86668" d="m233.47,168.99s1.535-1.755,2.329-3.413" fill="none"/>
                       </g>
                       <g id="g86670" stroke-width="0.5" stroke="#000">
                        <path id="path86672" d="m240.05,152.84c-0.548,3.643-1.596,7.165-3.066,10.328-0.561-0.808-0.799-3.969-0.964-6.776-0.186-3.151,2.744-3.347,4.03-3.552z"/>
                        <path id="path86674" d="m236.1,157.43s-0.563-6.176-1.176-10.216c-0.298-2.454,1.632,4.856,3.145,4.494" fill="none"/>
                        <path id="path86676" d="m240.05,152.84s0.519-2.684,0.459-4.592" fill="none"/>
                       </g>
                       <g id="g86678" stroke-width="0.5" stroke="#000">
                        <path id="path86680" d="m238.51,135.35c1.135,3.048,1.798,6.491,1.95,10.089-0.824-0.024-2.408-1.987-3.775-3.775-1.535-2.006,0.837-4.943,1.825-6.314z"/>
                        <path id="path86682" d="m237.2,142.31s-3.176-3.744-5.459-5.957c-1.325-1.416,3.495,1.807,4.605,0.108" fill="none"/>
                        <path id="path86684" d="m238.51,135.35s-0.739-2.357-1.625-3.622" fill="none"/>
                       </g>
                       <g id="g86686" stroke-width="0.5" stroke="#000">
                        <path id="path86688" d="m229.55,124.7c2.287,1.028,4.35,2.78,6.053,5.13-0.702,0.771-2.89,0.924-4.82,0.992-2.166,0.076-1.462-4.227-1.233-6.122z"/>
                        <path id="path86690" d="m231.5,130.78s-4.303,0.44-7.188,1.089c-1.731,0.285,3.723-2.088,3.911-4.328" fill="none"/>
                        <path id="path86692" d="m229.55,124.7s-1.652-0.927-2.949-0.957" fill="none"/>
                       </g>
                       <g id="g86694" stroke-width="0.5" stroke="#000">
                        <path id="path86696" d="m217.38,125.88c2.369-1.474,4.867-2.231,7.324-2.23-0.251,1.206-2.021,3.403-3.61,5.295-1.783,2.124-3.076-1.532-3.714-3.065z"/>
                        <path id="path86698" d="m221.67,128.23s-3.417,4.419-5.553,7.626c-1.328,1.852,2.209-5.006,1.387-6.738" fill="none"/>
                        <path id="path86700" d="m217.38,125.88s-1.792,0.937-2.893,2.156" fill="none"/>
                       </g>
                       <g id="g86702" stroke-width="0.5" stroke="#000">
                        <path id="path86704" d="m207.68,138.34c1.342-3.286,3.106-6.199,5.168-8.546,0.317,1.076-0.205,4.29-0.709,7.121-0.568,3.176-3.253,1.878-4.459,1.425z"/>
                        <path id="path86706" d="m212.31,135.86s-0.932,6.329-1.32,10.594c-0.303,2.553-0.339-5.582-1.787-5.996" fill="none"/>
                        <path id="path86708" d="m207.68,138.34s-1.093,2.362-1.483,4.259" fill="none"/>
                       </g>
                       <g id="g86710" stroke-width="0.5" stroke="#000">
                        <path id="path86712" d="m205,156.24c-0.313-3.56-0.108-7.266,0.594-10.864,0.737,0.443,1.707,3.169,2.522,5.614,0.916,2.744-1.906,4.411-3.116,5.25z"/>
                        <path id="path86714" d="m207.8,150.09s1.989,5.278,3.531,8.605c0.863,2.059-2.728-3.545-4.125-2.448" fill="none"/>
                        <path id="path86716" d="m205,156.24s0.117,2.682,0.621,4.37" fill="none"/>
                       </g>
                       <g id="g86718" stroke-width="2" stroke="#FFF" fill="none">
                        <ellipse id="ellipse86720" d="m 253.906,150.17 c 0,11.52729 -13.93559,20.872 -31.126,20.872 -17.19042,0 -31.126,-9.34471 -31.126,-20.872 0,-11.52729 13.93558,-20.872 31.126,-20.872 17.19041,0 31.126,9.34471 31.126,20.872 z" cx="222.78" cy="150.17" rx="31.126" ry="20.872" transform="matrix(-0.1367,0.9906,-0.9906,-0.1367,402.0049,-49.9849)"/>
                        <path id="path86722" d="M222.78,150.17"/>
                       </g>
                       <g id="g86724" stroke-width="0.5" stroke="#000" fill="none">
                        <ellipse id="ellipse86726" d="m 239.875,149.98 c 0,6.3231 -7.70294,11.449 -17.205,11.449 -9.50206,0 -17.205,-5.1259 -17.205,-11.449 0,-6.32311 7.70294,-11.449 17.205,-11.449 9.50206,0 17.205,5.12589 17.205,11.449 z" cx="222.67" cy="149.98" rx="17.205" ry="11.449" transform="matrix(-0.1367,0.9906,-0.9906,-0.1367,401.6893,-50.0986)"/>
                        <path id="path86728" d="M222.67,149.98"/>
                       </g>
                       <g id="g86730" fill="#FFF">
                        <path id="path86732" d="m417.58,141.82c6.733,1.131,13.324-7.937,14.72-20.254,1.397-12.317-2.929-23.22-9.663-24.351-6.733-1.131-13.323,7.937-14.72,20.254s2.93,23.22,9.663,24.351z"/>
                        <path id="path86734" d="M420.11,119.52"/>
                       </g>
                       <g id="g86736" stroke-width="0.5" stroke="#000">
                        <path id="path86738" d="m412.39,136.03c-1.164-1.688-2.09-3.837-2.721-6.3,0.519-0.309,1.801,0.44,2.922,1.152,1.259,0.799,0.213,3.796-0.201,5.148z"/>
                        <path id="path86740" d="m412.17,130.64s2.543,1.367,4.3,2.015c1.039,0.468-2.455,0.116-2.896,1.746" fill="none"/>
                        <path id="path86742" d="m412.39,136.03s0.813,1.359,1.555,1.896" fill="none"/>
                       </g>
                       <g id="g86744" stroke-width="0.5" stroke="#000">
                        <path id="path86746" d="m419.57,139.95c-1.583,0.184-3.134-0.228-4.548-1.201,0.324-0.818,1.67-1.792,2.866-2.603,1.343-0.91,1.543,2.386,1.682,3.804z"/>
                        <path id="path86748" d="m417.45,136.47s2.625-2.011,4.332-3.607c1.04-0.884-2.017,2.937-1.801,4.58" fill="none"/>
                        <path id="path86750" d="m419.57,139.95s1.171-0.004,1.986-0.496" fill="none"/>
                       </g>
                       <g id="g86752" stroke-width="0.5" stroke="#000">
                        <path id="path86754" d="m427.01,134.31c-1.262,1.97-2.711,3.489-4.247,4.46-0.022-0.944,0.756-3.184,1.469-5.139,0.798-2.194,2.151-0.143,2.778,0.679z"/>
                        <path id="path86756" d="m423.97,134.36s1.479-4.449,2.337-7.542c0.554-1.823-0.636,4.382,0.136,5.271" fill="none"/>
                        <path id="path86758" d="m427.01,134.31s0.981-1.366,1.488-2.655" fill="none"/>
                       </g>
                       <g id="g86760" stroke-width="0.5" stroke="#000">
                        <path id="path86762" d="m431.22,121.74c-0.35,2.833-1.02,5.573-1.959,8.034-0.359-0.628-0.511-3.087-0.616-5.271-0.119-2.451,1.754-2.603,2.575-2.763z"/>
                        <path id="path86764" d="m428.69,125.31s-0.359-4.805-0.751-7.947c-0.19-1.909,1.042,3.778,2.009,3.495" fill="none"/>
                        <path id="path86766" d="m431.22,121.74s0.332-2.088,0.293-3.572" fill="none"/>
                       </g>
                       <g id="g86768" stroke-width="0.5" stroke="#000">
                        <path id="path86770" d="m430.23,108.14c0.726,2.372,1.149,5.049,1.246,7.849-0.527-0.019-1.539-1.546-2.413-2.937-0.98-1.561,0.536-3.845,1.167-4.912z"/>
                        <path id="path86772" d="m429.39,113.55s-2.029-2.912-3.488-4.634c-0.847-1.102,2.233,1.405,2.943,0.084" fill="none"/>
                        <path id="path86774" d="m430.23,108.14s-0.472-1.833-1.038-2.817" fill="none"/>
                       </g>
                       <g id="g86776" stroke-width="0.5" stroke="#000">
                        <path id="path86778" d="m424.51,99.857c1.461,0.8,2.78,2.163,3.868,3.991-0.448,0.6-1.847,0.719-3.08,0.771-1.384,0.06-0.934-3.288-0.788-4.762z"/>
                        <path id="path86780" d="m425.75,104.58s-2.75,0.343-4.593,0.848c-1.106,0.221,2.379-1.625,2.499-3.366" fill="none"/>
                        <path id="path86782" d="m424.51,99.857s-1.056-0.721-1.884-0.745" fill="none"/>
                       </g>
                       <g id="g86784" stroke-width="0.5" stroke="#000">
                        <path id="path86786" d="m416.73,100.78c1.514-1.146,3.11-1.735,4.68-1.734-0.161,0.938-1.291,2.647-2.307,4.119-1.14,1.652-1.966-1.193-2.373-2.385z"/>
                        <path id="path86788" d="m419.47,102.6s-2.184,3.438-3.549,5.932c-0.848,1.44,1.412-3.895,0.886-5.242" fill="none"/>
                        <path id="path86790" d="m416.73,100.78s-1.145,0.729-1.849,1.677" fill="none"/>
                       </g>
                       <g id="g86792" stroke-width="0.5" stroke="#000">
                        <path id="path86794" d="m410.53,110.46c0.857-2.556,1.985-4.822,3.302-6.648,0.203,0.837-0.131,3.337-0.454,5.54-0.361,2.47-2.078,1.46-2.848,1.108z"/>
                        <path id="path86796" d="m413.49,108.53s-0.596,4.923-0.843,8.241c-0.194,1.985-0.216-4.342-1.142-4.665" fill="none"/>
                        <path id="path86798" d="m410.53,110.46s-0.699,1.837-0.948,3.313" fill="none"/>
                       </g>
                       <g id="g86800" stroke-width="0.5" stroke="#000">
                        <path id="path86802" d="m408.82,124.39c-0.2-2.769-0.069-5.652,0.379-8.451,0.471,0.344,1.091,2.465,1.612,4.367,0.585,2.135-1.218,3.432-1.991,4.084z"/>
                        <path id="path86804" d="m410.61,119.61s1.271,4.105,2.256,6.694c0.552,1.602-1.743-2.758-2.635-1.905" fill="none"/>
                        <path id="path86806" d="m408.82,124.39s0.075,2.086,0.396,3.4" fill="none"/>
                       </g>
                       <g id="g86808" stroke-width="2" stroke="#FFF" fill="none">
                        <path id="path86810" d="m417.46,143.66c7.296,1.226,14.429-8.519,15.931-21.766s-3.196-24.98-10.492-26.206-14.429,8.519-15.931,21.766c-1.501,13.247,3.196,24.98,10.492,26.206z"/>
                        <path id="path86812" d="M420.18,119.67"/>
                       </g>
                       <g id="g86814" stroke-width="0.5" stroke="#000" fill="none">
                        <path id="path86816" d="m418.61,132.78c4.002,0.673,7.92-4.718,8.75-12.04s-1.742-13.803-5.744-14.476c-4.002-0.672-7.92,4.718-8.75,12.041-0.83,7.322,1.742,13.803,5.744,14.475z"/>
                        <path id="path86818" d="M420.11,119.52"/>
                       </g>
                       <path id="path86820" d="m466.58,50.375c-3.712-1.012-43.2-0.337-51.299,0,8.1-0.675,8.437-1.688,7.087-5.063" stroke="#000" stroke-width="0.5" fill="none"/>
                       <path id="path86822" d="m460.68,50.207c2.363,3.375,3.544,17.719,3.206,34.593,0,0-0.337,3.038,1.688,4.05s1.519,1.856,1.519,1.856v5.738c0,1.856-1.181,1.856-2.025,5.737s-0.675,8.1-0.675,8.1" stroke="#000" stroke-width="0.5" fill="none"/>
                       <path id="path86824" d="m338.45,84.436c-0.499,0.046-0.949-0.415-1.006-1.03l-0.964-5.04c-0.057-0.616,0.301-1.152,0.799-1.198l7.639-0.709c0.499-0.046,0.949,0.415,1.006,1.03l0.964,5.04c0.057,0.615-0.301,1.152-0.799,1.198l-7.639,0.709z" stroke="#000" stroke-width="0.5" fill="none"/>
                       <path id="path86826" d="m337.85,81.229c-0.499,0.046-0.926-0.166-0.954-0.474l-0.559-2.806c-0.029-0.308,0.353-0.595,0.851-0.641l7.64-0.709c0.499-0.046,0.926,0.166,0.954,0.473l0.559,2.806c0.029,0.308-0.353,0.595-0.851,0.641l-7.64,0.71z" stroke="#000" stroke-width="0.5" fill="#FFF"/>
                       <g id="g86828" stroke-width="0.5" stroke="#000" fill="none">
                        <ellipse id="ellipse86830" d="m 346.43,82.206001 c 0,0.444037 -0.55516,0.804 -1.24,0.804 -0.68483,0 -1.24,-0.359963 -1.24,-0.804 0,-0.444037 0.55517,-0.804 1.24,-0.804 0.68484,0 1.24,0.359963 1.24,0.804 z" cx="345.19" cy="82.206" rx="1.24" ry="0.804" transform="matrix(0.0923,0.9957,-0.9957,0.0923,395.1835,-269.1024)"/>
                        <path id="path86832" d="M345.19,82.206"/>
                       </g>
                       <path id="path86834" d="m398.8,77.532c-0.498,0.046-0.949-0.415-1.006-1.03l-0.964-5.04c-0.057-0.615,0.301-1.152,0.799-1.198l7.639-0.709c0.499-0.046,0.949,0.415,1.006,1.031l0.964,5.04c0.057,0.616-0.301,1.152-0.799,1.198l-7.639,0.708z" stroke="#000" stroke-width="0.5" fill="none"/>
                       <path id="path86836" d="m398.21,74.325c-0.499,0.046-0.926-0.166-0.955-0.473l-0.559-2.806c-0.029-0.308,0.352-0.595,0.851-0.641l7.64-0.709c0.499-0.046,0.926,0.166,0.954,0.473l0.559,2.806c0.028,0.308-0.353,0.595-0.851,0.641l-7.639,0.709z" stroke="#000" stroke-width="0.5" fill="#FFF"/>
                       <path id="path86838" d="m256.32,105.05c2.7-2.025,5.063-3.038,15.188-4.388s61.087-9.45,86.737-12.15c25.649-2.7,48.937-6.75,49.274-4.725s-2.025,5.737,5.063,5.4" stroke="#000" stroke-width="0.5" fill="none"/>
                       <path id="path86840" d="m441.27,80.413c3.038-1.35,6.413-2.7,22.612-3.712" stroke="#000" stroke-width="0.5" fill="none"/>
                       <path id="path86842" d="m469.96,63.201s-2.784,0.675-6.497,0.675c0,0,0.675,15.103,0.421,21.009l6.075-0.844c0.845-2.194,0.423-19.406,0.001-20.84z" stroke-width="0.5" stroke="#000"/>
                       <path id="path86844" d="m125.37,144.54c-3.712,0.675-1.013,14.175,3.712,14.175s42.524-1.688,54-3.712" stroke="#000" stroke-width="0.5" fill="none"/>
                      </g>
                     </g>
                    </g>
                   </g>
                  </g>
                 </g>
                </g>
               </g>
              </g>
             </g>
            </g>
           </g>
          </g>
         </g>
        </g>
       </g>
      </g>
     </g>
    </g>
   </g>
  </g>
 </g>
</svg>
