<?xml version="1.0" encoding="UTF-8" standalone="no"?>
<!-- Created with Inkscape (http://www.inkscape.org/) -->
<svg id="svg2" xmlns:rdf="http://www.w3.org/1999/02/22-rdf-syntax-ns#" xmlns="http://www.w3.org/2000/svg" height="54" width="99" version="1.1" xmlns:cc="http://creativecommons.org/ns#" xmlns:dc="http://purl.org/dc/elements/1.1/">
 <metadata id="metadata7">
  <rdf:RDF>
   <cc:Work rdf:about="">
    <dc:format>image/svg+xml</dc:format>
    <dc:type rdf:resource="http://purl.org/dc/dcmitype/StillImage"/>
    <dc:title/>
   </cc:Work>
  </rdf:RDF>
 </metadata>
 <g id="g3491">
  <g id="g3871">
   <g id="g4614">
    <g id="g5219">
     <g id="g5689">
      <g id="g6406">
       <g id="g7263">
        <g id="g8053">
         <g id="g8717">
          <g id="g9406">
           <g id="g9898">
            <g id="g10207">
             <g id="g10407">
              <g id="g10743">
               <g id="g11282">
                <g id="g15079">
                 <g id="g15585">
                  <g id="g16769">
                   <g id="g17492">
                    <g id="g17976">
                     <g id="g18386">
                      <rect id="rect2990" opacity="0" height="54" width="99" y="0" x="0"/>
                      <g id="layer1" transform="translate(268.06999,8.0270255)">
                       <g id="logo23" transform="matrix(0.1932439,0,0,0.1932439,-263.5697,4.4931356)">
                        <path id="path88932" d="m51.329,144.55c-16.638,0-22.627-23.293-23.292-26.621,0,0-4.326-4.659-4.326-18.302s4.326-30.613,24.624-30.613,28.95,22.294,31.612,33.608c2.662,11.313,6.988,17.969,6.988,17.969l138.43,1.997s-1.997-7.986-1.997-19.633,1.997-43.591,33.941-43.591,42.592,28.95,43.258,56.235c0,2.662,17.636,1.997,17.636,1.997l123.78-1.664s0.666,2.995,1.331,4.991-2.662,1.997-2.662,1.997l-33.275,1.331s-7.654,18.967-29.283,18.967h-14.641c-10.648,0-20.298-11.313-20.298-11.313s-1.664,1.664-7.32,1.664c-5.657,0-6.988-2.33-6.988-2.33h-5.657v1.331h-4.326v-1.331h-13.976s-8.319,18.634-32.943,18.634h-11.979c-18.301,0-28.284-21.296-28.284-21.296h-7.653v1.331h-3.66s-3.993-0.666-5.657-2.662h-5.324s-6.322,11.979-21.296,11.979h-9.65c-9.317,0-16.971-9.983-16.971-13.31h-76.2s-4.326,18.634-23.626,18.634h-10.313z"/>
                        <path id="path88934" d="m28.702,118.93s-15.973-1.664-19.965-1.664c-3.993,0-2.995-2.33-1.331-3.66,1.664-1.331,2.662-3.661-0.333-4.992s-5.99-2.329-6.322-8.984v-14.658c0-3.993,2.329-5.324,2.329-5.324-0.999-3.328,0.998-21.296,3.66-23.625s8.984-8.319,11.979-8.652,19.965-2.995,30.614-3.993l6.988-5.657h-9.317c-2.329,0,0.666-2.329,3.661-2.329h9.317c15.638-11.98,56.9-35.938,112.8-34.607,55.903,1.331,68.88,2.995,82.523,7.653,13.643,4.659,43.258,19.3,54.239,26.62l3.66,0.333c0.333-3.993,7.986-5.324,11.979,0.998,52.576,0.999,119.24,16.104,135.43,42.593,3.66,5.99,2.329,10.315-0.999,13.643,0,0-1.664,11.314,0.333,13.31,1.997,1.997,6.322,3.661,4.659,6.323-1.664,2.662-14.309,4.326-26.288,4.326" stroke="#000" stroke-width="1.5" fill="none"/>
                        <path id="path88936" d="m208.72,42.73c-17.969,0.998-47.584,3.66-85.851,2.995-38.266-0.666-57.565-2.662-57.565-2.662-2.662-0.666-3.661-1.997,4.658-8.651,8.319-6.655,25.623-18.302,47.587-24.292,21.96-5.99,41.26-3.993,49.91-2.329,8.652,1.664,20.964,12.978,41.262,34.939z"/>
                        <path id="path88938" d="m304.89,35.41s-19.965,0.333-45.92,1.997-44.256,3.66-44.256,3.66c-10.98-13.644-31.28-31.279-39.26-34.607,9.65-0.666,58.232,0,65.885,0.333,7.654,0.332,47.917,17.969,63.557,28.617z"/>
                        <path id="path88940" d="m313.21,35.41c2.329,0.333,6.156,0.666,11.979,0.998" stroke="#000" stroke-width="1.5" fill="none"/>
                        <line id="line88942" stroke-width="1.5" x1="56.32" x2="59.98" stroke="#000" y1="37.739" y2="35.41" fill="none"/>
                        <path id="path88944" d="m93.129,34.745-16.845,0.083c5.49-6.156,18.481-13.267,22.255-15.016,3.83-1.775,5.205-1.275,3.117,2.121-1.256,2.044-6.031,8.32-8.527,12.812z" fill="#FFF"/>
                        <path id="path88946" d="m123.54,35.079h-11.979c2.563-6.416,11.313-20.041,15.474-23.627,14.808-4.159,32.776-3.993,41.262-1.664,0,0-20.132,10.648-35.272,20.298-4.659,0.166-6.989,0.5-9.485,4.993z" fill="#FFF"/>
                        <path id="path88948" d="m194.58,29.919-8.652-7.82c-5.49-0.167-10.648,2.662-14.808,5.989,7.986,0,15.473,0.167,16.804,2.33l6.656-0.499z" fill="#FFF"/>
                        <path id="path88950" d="m219.87,14.113h-7.154s4.659,14.309,6.156,24.458c24.125-2.995,63.057-5.324,70.877-4.825-8.485-8.153-36.936-19.3-42.26-19.466-5.324-0.167-7.986,0-7.986,0s0.333,4.991-1.331,5.158-15.14,0-16.804-0.167c-1.665-0.167-1.498-5.158-1.498-5.158z" fill="#FFF"/>
                        <g id="g88952" fill="#FFF">
                         <ellipse id="ellipse88954" d="m 281.81599,106.95 c 0,15.98367 -9.9554,28.941 -22.236,28.941 -12.28061,0 -22.236,-12.95733 -22.236,-28.941 0,-15.983676 9.95539,-28.941003 22.236,-28.941003 12.2806,0 22.236,12.957327 22.236,28.941003 z" cx="259.58" rx="22.236" cy="106.95" ry="28.941"/>
                         <path id="path88956" d="M259.58,106.95"/>
                        </g>
                        <g id="g88958" stroke-width="0.5" stroke="#000" fill="none">
                         <ellipse id="ellipse88960" d="m 279.36599,106.95 c 0,14.22299 -8.8585,25.753 -19.786,25.753 -10.92751,0 -19.786,-11.53001 -19.786,-25.753 0,-14.222992 8.85849,-25.753003 19.786,-25.753003 10.9275,0 19.786,11.530011 19.786,25.753003 z" cx="259.58" rx="19.786" cy="106.95" ry="25.753"/>
                         <path id="path88962" d="M259.58,106.95"/>
                        </g>
                        <g id="g88964">
                         <path id="path88966" d="m276.58,114.77c-1.406,5.49-4.474,10.315-9.587,13.477,0,0-3.452-1.664-7.414-9.816,0,0,3.068-0.333,4.729-1.997,0,0,3.452,2.662,12.272-1.664z"/>
                        </g>
                        <g id="g88968">
                         <ellipse id="ellipse88970" d="m 266.24999,106.95 c 0,4.79493 -2.98626,8.682 -6.67,8.682 -3.68374,0 -6.67,-3.88707 -6.67,-8.682 0,-4.79494 2.98626,-8.682003 6.67,-8.682003 3.68374,0 6.67,3.887063 6.67,8.682003 z" cx="259.58" rx="6.67" cy="106.95" ry="8.682"/>
                         <path id="path88972" d="M259.58,106.95"/>
                        </g>
                        <g id="g88974">
                         <path id="path88976" d="m270.55,88.324c3.577,3.437,6.155,8.726,6.885,16.032,0,0-2.283,3.758-9.464,6.144,0,0,0.705-3.9,0.003-6.471,0-0.001,3.011-3.45,2.576-15.705z"/>
                        </g>
                        <g id="g88978">
                         <path id="path88980" d="m249.36,87.619c3.617-3.366,8.278-4.922,13.842-3.568,0,0,2.041,3.986,1.565,13.613,0,0-2.632-2.078-4.728-2.003,0.001,0.001-1.589-4.794-10.679-8.042z"/>
                        </g>
                        <g id="g88982">
                         <path id="path88984" d="m242.29,113.63c-1.342-5.518-1.039-11.768,1.671-18.237,0,0,3.543-1.294,10.431,2.27,0,0-2.332,2.616-2.925,5.233,0,0-3.994,0.487-9.177,10.734z"/>
                        </g>
                        <g id="g88986">
                         <path id="path88988" d="m259.12,130.41c-4.446-0.044-8.92-2.351-12.81-7.703,0,0,0.149-4.787,4.882-12.21,0,0,1.191,3.695,2.92,5.237,0,0-0.879,5.095,5.008,14.676z"/>
                        </g>
                        <g id="g88990" fill="#FFF">
                         <ellipse id="ellipse88992" d="m 67.385002,108.26 c 0,13.66574 -7.377452,24.744 -16.478001,24.744 -9.100548,0 -16.478,-11.07826 -16.478,-24.744 0,-13.665731 7.377452,-24.743997 16.478,-24.743997 9.100549,0 16.478001,11.078266 16.478001,24.743997 z" cx="50.907" rx="16.478" cy="108.26" ry="24.744"/>
                         <path id="path88994" d="M50.907,108.25"/>
                        </g>
                        <g id="g88996" stroke-width="0.5" stroke="#000" fill="none">
                         <ellipse id="ellipse88998" d="m 65.570002,108.25 c 0,12.16076 -6.564849,22.019 -14.663001,22.019 -8.098151,0 -14.663,-9.85824 -14.663,-22.019 0,-12.160757 6.564849,-22.018999 14.663,-22.018999 8.098152,0 14.663001,9.858242 14.663001,22.018999 z" cx="50.907" rx="14.663" cy="108.25" ry="22.019"/>
                         <path id="path89000" d="M50.907,108.25"/>
                        </g>
                        <g id="g89002">
                         <path id="path89004" d="m63.506,114.94c-1.042,4.694-3.315,8.819-7.104,11.522,0,0-2.558-1.423-5.495-8.393,0,0,2.273-0.285,3.505-1.707,0,0.001,2.558,2.277,9.094-1.422z"/>
                        </g>
                        <g id="g89006">
                         <ellipse id="ellipse89008" d="m 55.850001,108.25 c 0,4.09961 -2.213056,7.423 -4.943,7.423 -2.729943,0 -4.942999,-3.32339 -4.942999,-7.423 0,-4.09961 2.213056,-7.423 4.942999,-7.423 2.729944,0 4.943,3.32339 4.943,7.423 z" cx="50.907" rx="4.943" cy="108.25" ry="7.423"/>
                         <path id="path89010" d="M50.907,108.25"/>
                        </g>
                        <g id="g89012">
                         <path id="path89014" d="m59.035,92.327c2.651,2.939,4.561,7.46,5.102,13.708,0,0-1.691,3.213-7.014,5.253,0,0,0.522-3.335,0.002-5.533,0-0.001,2.232-2.95,1.91-13.428z"/>
                        </g>
                        <g id="g89016">
                         <path id="path89018" d="m43.332,91.725c2.681-2.878,6.135-4.208,10.258-3.051,0,0,1.513,3.409,1.16,11.64,0,0-1.95-1.777-3.503-1.713-0.001,0-1.18-4.099-7.915-6.876z"/>
                        </g>
                        <g id="g89020">
                         <path id="path89022" d="m38.098,113.97c-0.995-4.718-0.77-10.062,1.238-15.593,0,0,2.626-1.106,7.73,1.941,0,0-1.728,2.237-2.167,4.474-0.001,0-2.961,0.417-6.801,9.178z"/>
                        </g>
                        <g id="g89024">
                         <path id="path89026" d="m50.566,128.31c-3.295-0.038-6.61-2.01-9.493-6.586,0,0,0.11-4.092,3.618-10.44,0,0,0.883,3.159,2.164,4.479,0,0-0.651,4.356,3.711,12.547z"/>
                        </g>
                        <path id="path89028" d="m325.19,54.376c-4.991,0-12.978,14.642-5.657,15.307s28.95,2.662,36.271,2.662h26.953c4.991,0,3.993-9.317-23.958-16.971-5.325-1.663-22.629-0.998-33.609-0.998z"/>
                        <path id="path89030" d="m421.02,52.713c9.983,3.328,26.288,11.979,30.946,16.971,0,0-3.825,1.208-5.324-0.666-2.67-3.328-18.31-11.979-24.97-13.976-4.85-1.456-0.66-2.329-0.66-2.329z"/>
                        <path id="path89032" d="m431,97.302s-5.657,4.659-11.314,4.659h-20.631c-3.327,0,0.666-4.659,4.659-4.659h27.28z" stroke-width="0.5" stroke="#000"/>
                        <path id="path89034" d="m431,104.29s-5.657,4.659-11.314,4.659h-20.631c-3.327,0,0.666-4.659,4.659-4.659h27.28z" stroke-width="0.5" stroke="#000"/>
                        <path id="path89036" d="m455.29,96.304s-5.657,4.659-11.313,4.659h-8.652c-3.328,0,0.666-4.659,4.659-4.659h15.306z" stroke-width="0.5" stroke="#000"/>
                        <path id="path89038" d="m455.29,103.79s-5.657,4.659-11.313,4.659h-9.983c-3.328,0,0.666-4.659,4.659-4.659h16.637z" stroke-width="0.5" stroke="#000"/>
                        <g id="g89040" stroke="#000" fill="#FFF">
                         <path id="path89042" d="m391.78,107.95c0.529,0,0.958-0.429,0.958-0.958v-8.067c0-0.529-0.429-0.958-0.958-0.958h-14.39c-0.529,0-0.958,0.429-0.958,0.958v8.067c0,0.529,0.429,0.958,0.958,0.958h14.39z"/>
                         <path id="path89044" d="M384.58,102.96"/>
                        </g>
                        <path id="path89046" d="m324.85,56.041c-3.328,2.662-7.321,10.315-5.99,11.313,1.331,0.999,25.622,2.995,31.612,2.995-3.99-5.657-25.62-14.308-25.62-14.308z" fill="#FFF"/>
                        <path id="path89048" d="m348.48,65.69s3.827,1.997,4.991,4.659h28.617c2.496,0-1.83-4.659-3.827-4.659h-29.78z" fill="#FFF"/>
                        <path id="path89050" d="m179.61,46.557c-0.333,1.664,11.813,3.827,11.813,0.166,0-3.66-3.993-1.331-3.66-3.66s3.161-3.328,1.664-7.986c-1.498-4.658-0.998-6.988-11.979-6.988-10.98,0-20.298,1.331-20.298,8.319s3.494,8.818,13.144,7.82,12.478-1.83,12.645-1.165c0.73,2.923-2.996,1.83-3.329,3.494z" fill="#FFF" stroke="#000"/>
                        <g id="g89052" stroke-width="0.5" stroke="#000" fill="none">
                         <path id="path89054" d="m22.792,77.669c1.058,0,1.916-0.857,1.916-1.916v-14.137c0-1.058-0.858-1.916-1.916-1.916h-8.48c-1.058,0-1.916,0.858-1.916,1.916v14.138c0,1.058,0.857,1.916,1.916,1.916h8.48z"/>
                         <path id="path89056" d="M18.552,68.685"/>
                        </g>
                        <path id="path89058" d="M1.083,83.659h22.627c4.659-8.984,9.983-16.305,25.29-16.305s24.291,12.978,25.622,15.64l148.41,0.333s6.322-27.286,33.608-26.621c27.286,0.666,36.27,18.301,40.263,27.952,0,0,43.258,1.331,62.891,1.331,19.632,0,102.82-1.997,102.82-1.997" stroke="#000" stroke-width="0.5" fill="none"/>
                        <path id="path89060" d="m316.2,103.96c15.307-6.323,43.258-13.976,79.861-13.976l66.551-1.997" stroke="#000" stroke-width="0.5" fill="none"/>
                        <line id="line89062" stroke-width="0.5" x1="378.76" x2="436.99" stroke="#000" y1="63.028" y2="63.028" fill="none"/>
                        <path id="path89064" d="M323.86,54.709c-28.96-14.309-109.15-13.643-109.15-13.643" stroke="#000" stroke-width="0.5" fill="none"/>
                        <path id="path89066" d="m316.87,66.023c-0.998,4.326-1.331,18.967-1.331,18.967" stroke="#000" stroke-width="0.5" fill="none"/>
                        <path id="path89068" d="m297.9,86.321c4.594,13.216,4.658,21.962,4.658,25.955s8.652-0.666,34.607-1.997,59.23-0.666,59.23-0.666c-0.999-6.655-3.661-14.641,7.653-14.309,11.313,0.333,49.581-0.333,49.581-0.333,4.326,0,2.995,2.828,2.662,13.477,0,0,4.492,0.333,5.49-0.666" stroke="#000" stroke-width="0.5" fill="none"/>
                        <polyline id="polyline89070" stroke="#000" points="419.69,108.95,431,108.95,434,95.638" stroke-width="0.5" fill="none"/>
                        <path id="path89072" d="m421.69,101.63h7.986c3.66,0,1.331,2.662,1.331,2.662" stroke="#000" stroke-width="0.5" fill="none"/>
                        <path id="path89074" d="m443.98,100.96h10.648c2.662,0,0.666,2.829,0.666,2.829" stroke="#000" stroke-width="0.5" fill="none"/>
                        <line id="line89076" stroke-width="0.5" x1="443.98" x2="456.29" stroke="#000" y1="108.45" y2="108.45" fill="none"/>
                        <path id="path89078" d="m461.62,81.996s-68.88,1.664-78.863,1.664-12.312-0.666-19.965-4.659-8.818-4.991-19.633-5.657c-9.631-0.593-27.951-0.998-28.617-3.66s1.35-8.397-5.324-9.983c-26.621-6.322-56.901-7.653-92.173-7.653s-58.232,0.666-58.232,0.666c-2.995,0-3.327,2.329,3.328,2.662s17.636,0.998,20.298,3.66c0,0-32.61-1.331-59.896-1.664-27.341-0.333-94.225-0.999-116.19-0.333" stroke="#000" stroke-width="0.5" fill="none"/>
                        <path id="path89080" d="m17.721,48.054s37.269-1.331,45.92-0.666c8.652,0.666,3.281-1.407-4.658-2.995-3.328-0.666-9.65-0.998-9.65-0.998" stroke="#000" stroke-width="0.5" fill="none"/>
                        <path id="path89082" d="m7.405,113.61h12.312c3.993,0,0.666-2.995-5.657-4.659-6.322-1.67-13.31-3-13.31-9.319" stroke="#000" stroke-width="0.5" fill="none"/>
                        <path id="path89084" d="m23.044,85.656c-1.331,6.655-3.328,27.952,6.322,31.612" stroke="#000" stroke-width="0.5" fill="none"/>
                        <path id="path89086" d="m99.246,45.06c-3.328,2.662-7.653,6.988-7.986,11.979-0.333,4.992,1.664,27.952,2.995,32.277h3.328l4.991,15.64s-1.664,1.664-0.999,3.993c0.666,2.329,1.331,4.659,1.331,4.659h93.504c4.991,0,6.988-0.999,7.321-5.657s2.662-17.636,2.662-24.291-0.666-27.619-0.666-31.279c0-3.661,2.995-9.65,2.995-9.65" stroke="#000" stroke-width="0.5" fill="none"/>
                        <path id="path89088" d="M161.47,89.316h-70.543c-15.64-0.333-0.666,21.296,7.321,19.633,7.986-1.664,52.243-8.984,52.243-8.984s-43.591,4.991-50.579,5.324-15.64-13.976-6.322-14.308c9.316-0.334,67.881-1.665,67.881-1.665z" stroke="#000" stroke-width="0.5" fill="none"/>
                        <path id="path89090" d="m75.62,85.323c5.375,8.715,8.319,25.955,12.645,33.608,0,0,2.995-3.328,23.625-3.328h76.867c8.984,0,18.302,4.659,33.608,4.659-1.997-9.317-2.662-23.293,0-34.606" stroke="#000" stroke-width="0.5" fill="none"/>
                        <path id="path89092" d="m93.422,60.865c-1.231,1.094-1.664,7.487-0.167,8.485,1.498,0.999,12.108,1.217,13.643,0.167,3.161-2.163-0.333-4.991-3.494-6.988-3.16-1.996-8.484-2.994-9.982-1.664z" stroke="#000" stroke-width="0.5" fill="none"/>
                        <path id="path89094" d="m92.59,63.694c0,1.498,11.646,2.163,11.813,0.832s-0.999-1.997-0.999-1.997" stroke="#000" stroke-width="0.5" fill="none"/>
                        <path id="path89096" d="m93.422,64.526c-0.333,1.664-0.499,3.494,1.83,3.66,2.33,0.167,4.326,0.167,6.489,0.167s0.999-3.161,0.999-3.161-2.995,0.333-5.657,0c-2.663-0.334-3.661-0.666-3.661-0.666z" stroke-width="0.5" stroke="#000"/>
                        <g id="g89098" stroke-width="0.5" stroke="#000" fill="none">
                         <ellipse id="ellipse89100" d="m 106.246,67.021004 c 0,0.779826 -0.52651,1.412 -1.176,1.412 -0.64949,0 -1.176,-0.632174 -1.176,-1.412 0,-0.779826 0.52651,-1.412 1.176,-1.412 0.64949,0 1.176,0.632174 1.176,1.412 z" cx="105.07" rx="1.176" cy="67.021" ry="1.412"/>
                         <path id="path89102" d="M105.07,67.021"/>
                        </g>
                        <path id="path89104" d="m125.7,9.207c-4.991,5.657-16.138,17.633-20.796,34.771" stroke="#FFF" stroke-width="0.5" fill="none"/>
                        <path id="path89106" d="m93.009,43.895c0-6.607,12.394-23.043,18.051-30.53" stroke="#FFF" stroke-width="0.5" fill="none"/>
                        <path id="path89108" d="m99.246,44.228c1.249-8.94,8.152-19.799,19.466-33.774" stroke="#FFF" stroke-width="0.5" fill="none"/>
                        <path id="path89110" d="m161.14,38.238c-2.662-0.167-0.832,4.492,3.494,4.492s14.808-0.999,16.804-0.999c1.997,0,4.16-0.832,0.333-1.498-3.827-0.664-20.631-1.995-20.631-1.995z"/>
                        <path id="path89112" d="m262.96,37.406c39.265,1.997,86.184,7.986,107.15,18.967,0,0-19.633-16.305-95.834-20.631" stroke="#000" stroke-width="0.5" fill="none"/>
                        <polygon id="polygon89114" points="71.128,39.735,91.426,39.735,92.257,37.491,73.623,37.491" fill="#FFF"/>
                        <polygon id="polygon89116" points="109.4,39.735,123.24,39.735,123.24,37.741,110.39,37.741" fill="#FFF"/>
                        <g id="g89118" stroke-width="0.5" stroke="#FFF" fill="none">
                         <ellipse id="ellipse89120" d="m 274.41999,106.95 c 0,10.66738 -6.6441,19.315 -14.84,19.315 -8.19591,0 -14.84,-8.64762 -14.84,-19.315 0,-10.667383 6.64409,-19.315004 14.84,-19.315004 8.1959,0 14.84,8.647621 14.84,19.315004 z" cx="259.58" rx="14.84" cy="106.95" ry="19.315"/>
                         <path id="path89122" d="M259.58,106.95"/>
                        </g>
                        <g id="g89124" stroke-width="0.5" stroke="#FFF" fill="none">
                         <ellipse id="ellipse89126" d="m 61.904001,108.26 c 0,9.12043 -4.923524,16.514 -10.997,16.514 -6.073475,0 -10.996999,-7.39357 -10.996999,-16.514 0,-9.120428 4.923524,-16.513998 10.996999,-16.513998 6.073476,0 10.997,7.39357 10.997,16.513998 z" cx="50.907" rx="10.997" cy="108.26" ry="16.514"/>
                         <path id="path89128" d="M50.907,108.25"/>
                        </g>
                       </g>
                      </g>
                     </g>
                    </g>
                   </g>
                  </g>
                 </g>
                </g>
               </g>
              </g>
             </g>
            </g>
           </g>
          </g>
         </g>
        </g>
       </g>
      </g>
     </g>
    </g>
   </g>
  </g>
 </g>
</svg>
