<?xml version="1.0" encoding="UTF-8" standalone="no"?>
<!-- Created with Inkscape (http://www.inkscape.org/) -->
<svg id="svg2" xmlns:rdf="http://www.w3.org/1999/02/22-rdf-syntax-ns#" xmlns="http://www.w3.org/2000/svg" height="54" width="99" version="1.1" xmlns:cc="http://creativecommons.org/ns#" xmlns:dc="http://purl.org/dc/elements/1.1/">
 <metadata id="metadata7">
  <rdf:RDF>
   <cc:Work rdf:about="">
    <dc:format>image/svg+xml</dc:format>
    <dc:type rdf:resource="http://purl.org/dc/dcmitype/StillImage"/>
    <dc:title/>
   </cc:Work>
  </rdf:RDF>
 </metadata>
 <g id="g39925">
  <rect id="rect2990" opacity="0" height="54" width="99" y="0" x="0"/>
  <path id="path88932" d="m14.419 40.454c-3.2152 0-4.3725-4.5012-4.501-5.1443 0 0-0.83597-0.90032-0.83597-3.5368 0-2.6364 0.83597-5.9158 4.7584-5.9158 3.9225 0 5.5944 4.3082 6.1088 6.4945 0.51442 2.1862 1.3504 3.4724 1.3504 3.4724l26.751 0.38591s-0.38591-1.5432-0.38591-3.794c0-2.2507 0.38591-8.4237 6.5589-8.4237s8.2306 5.5944 8.3593 10.867c0 0.51442 3.408 0.38591 3.408 0.38591l23.92-0.32156s0.1287 0.57876 0.25721 0.96448-0.51442 0.38591-0.51442 0.38591l-6.4302 0.25721s-1.4791 3.6653-5.6588 3.6653h-2.8293c-2.0577 0-3.9225-2.1862-3.9225-2.1862s-0.32156 0.32156-1.4145 0.32156c-1.0932 0-1.3504-0.45026-1.3504-0.45026h-1.0932v0.25721h-0.83597v-0.25721h-2.7008s-1.6076 3.6009-6.366 3.6009h-2.3149c-3.5366 0-5.4657-4.1153-5.4657-4.1153h-1.4789v0.25721h-0.70727s-0.77162-0.1287-1.0932-0.51442h-1.0288s-1.2217 2.3149-4.1153 2.3149h-1.8648c-1.8005 0-3.2795-1.9292-3.2795-2.5721h-14.725s-0.83597 3.6009-4.5656 3.6009h-1.9929z"/>
  <path id="path88934" d="m10.047 35.503s-3.0867-0.32156-3.8581-0.32156c-0.77162 0-0.57877-0.45026-0.25721-0.70727 0.32156-0.25721 0.51442-0.70747-0.06435-0.96467-0.57877-0.25721-1.1575-0.45006-1.2217-1.7361v-2.8326c0-0.77162 0.45006-1.0288 0.45006-1.0288-0.19305-0.64312 0.19286-4.1153 0.70727-4.5654 0.51442-0.45006 1.7361-1.6076 2.3149-1.6719 0.57877-0.06435 3.8581-0.57877 5.916-0.77162l1.3504-1.0932h-1.8005c-0.45006 0 0.1287-0.45006 0.70747-0.45006h1.8005c3.0219-2.3151 10.996-6.9448 21.798-6.6876 10.803 0.25721 13.311 0.57877 15.947 1.4789 2.6364 0.90032 8.3593 3.7296 10.481 5.1442l0.70727 0.06435c0.06435-0.77162 1.5432-1.0288 2.3149 0.19286 10.16 0.19305 23.042 3.112 26.171 8.2308 0.70727 1.1575 0.45006 1.9933-0.19305 2.6364 0 0-0.32156 2.1864 0.06435 2.5721 0.38591 0.38591 1.2217 0.70746 0.90032 1.2219-0.32156 0.51442-2.7651 0.83597-5.08 0.83597" stroke="#000" stroke-width=".28987" fill="none"/>
  <path id="path88936" d="m44.834 20.777c-3.4724 0.19286-9.1953 0.70727-16.59 0.57876-7.3947-0.1287-11.124-0.51442-11.124-0.51442-0.51442-0.1287-0.70747-0.38591 0.90013-1.6718 1.6076-1.286 4.9515-3.5368 9.1959-4.6943 4.2436-1.1575 7.9732-0.77162 9.6448-0.45006 1.6719 0.32156 4.0512 2.5079 7.9736 6.7517z"/>
  <path id="path88938" d="m63.418 19.363s-3.8581 0.06435-8.8738 0.38591c-5.0156 0.32156-8.5522 0.70727-8.5522 0.70727-2.1218-2.6366-6.0447-6.0445-7.5868-6.6876 1.8648-0.1287 11.253 0 12.732 0.06435 1.4791 0.06416 9.2597 3.4724 12.282 5.5301z"/>
  <path id="path88940" d="m65.026 19.363c0.45006 0.06435 1.1896 0.1287 2.3149 0.19286" stroke="#000" stroke-width=".28987" fill="none"/>
  <line id="line88942" stroke-width=".28987" y2="19.363" y1="19.813" stroke="#000" x2="16.091" x1="15.384" fill="none"/>
  <g fill="#fff">
   <path id="path88944" d="m22.497 19.234-3.2552 0.01604c1.0609-1.1896 3.5713-2.5638 4.3006-2.9018 0.74012-0.34301 1.0058-0.24639 0.60234 0.40987-0.24271 0.39499-1.1655 1.6078-1.6478 2.4758z"/>
   <path id="path88946" d="m28.374 19.299h-2.3149c0.49528-1.2399 2.1862-3.8728 2.9903-4.5658 2.8616-0.8037 6.3338-0.77162 7.9736-0.32156 0 0-3.8904 2.0577-6.8161 3.9225-0.90032 0.03208-1.3506 0.09662-1.8329 0.96487z"/>
   <path id="path88948" d="m42.102 18.302-1.6719-1.5112c-1.0609-0.03227-2.0577 0.51442-2.8616 1.1573 1.5432 0 2.9901 0.03227 3.2473 0.45026l1.2862-0.09643z"/>
   <path id="path88950" d="m46.989 15.247h-1.3825s0.90032 2.7651 1.1896 4.7264c4.662-0.57876 12.185-1.0288 13.697-0.9324-1.6397-1.5755-7.1377-3.7296-8.1665-3.7617-1.0288-0.03227-1.5432 0-1.5432 0s0.06435 0.96448-0.25721 0.99675-2.9257 0-3.2473-0.03227c-0.32175-0.03227-0.28948-0.99675-0.28948-0.99675z"/>
   <ellipse id="ellipse88954" rx="4.297" ry="5.5927" cy="33.188" cx="54.663"/>
   <path id="path88956" d="m54.663 33.188"/>
  </g>
  <ellipse id="ellipse88960" rx="3.8235" ry="4.9766" stroke="#000" cy="33.188" cx="54.663" stroke-width=".096622" fill="none"/>
  <path id="path88962" d="m54.663 33.188" stroke="#000" stroke-width=".096622" fill="none"/>
  <path id="path88966" d="m57.948 34.699c-0.2717 1.0609-0.86457 1.9933-1.8526 2.6043 0 0-0.66708-0.32156-1.4327-1.8969 0 0 0.59287-0.06435 0.91385-0.38591 0 0 0.66708 0.51442 2.3715-0.32156z"/>
  <ellipse id="ellipse88970" cy="33.188" cx="54.663" rx="1.2889" ry="1.6777"/>
  <path id="path88972" d="m54.663 33.188"/>
  <path id="path88976" d="m56.782 29.588c0.69123 0.66418 1.1894 1.6862 1.3305 3.0981 0 0-0.44118 0.72621-1.8289 1.1873 0 0 0.13624-0.75365 0.00058-1.2505 0-0.000194 0.58186-0.66669 0.4978-3.0349z"/>
  <path id="path88980" d="m52.688 29.452c0.69896-0.65046 1.5997-0.95115 2.6749-0.68949 0 0 0.39441 0.77027 0.30243 2.6306 0 0-0.50862-0.40156-0.91366-0.38707 0.000193 0.000193-0.30706-0.92641-2.0637-1.5541z"/>
  <path id="path88984" d="m51.321 34.478c-0.25933-1.0663-0.20078-2.2741 0.32291-3.5242 0 0 0.68466-0.25006 2.0157 0.43866 0 0-0.45064 0.50553-0.56524 1.0112 0 0-0.77182 0.09411-1.7734 2.0743z"/>
  <path id="path88988" d="m54.574 37.721c-0.85916-0.0085-1.7237-0.45432-2.4755-1.4886 0 0 0.02879-0.92506 0.94342-2.3595 0 0 0.23015 0.71404 0.56427 1.012 0 0-0.16986 0.98458 0.96776 2.836z"/>
  <ellipse id="ellipse88992" rx="3.1843" ry="4.7816" cy="33.441" cx="14.338" fill="#fff"/>
  <path id="path88994" fill="#fff" d="m14.338 33.439"/>
  <ellipse id="ellipse88998" rx="2.8335" ry="4.255" stroke="#000" cy="33.439" cx="14.338" stroke-width=".096622" fill="none"/>
  <path id="path89000" d="m14.338 33.439" stroke="#000" stroke-width=".096622" fill="none"/>
  <path id="path89004" d="m16.772 34.732c-0.20136 0.90709-0.6406 1.7042-1.3728 2.2266 0 0-0.49432-0.27499-1.0619-1.6219 0 0 0.43924-0.05507 0.67732-0.32987 0 0.000193 0.49432 0.44002 1.7574-0.27479z"/>
  <ellipse id="ellipse89008" cy="33.439" cx="14.338" rx=".95520" ry="1.4344"/>
  <path id="path89010" d="m14.338 33.439"/>
  <path id="path89014" d="m15.908 30.362c0.51229 0.56794 0.88138 1.4416 0.98593 2.649 0 0-0.32678 0.62089-1.3554 1.0151 0 0 0.10087-0.64447 0.000387-1.0692 0-0.000194 0.43132-0.57007 0.3691-2.5949z"/>
  <path id="path89018" d="m12.874 30.245c0.51809-0.55616 1.1856-0.81317 1.9823-0.58959 0 0 0.29238 0.65877 0.22416 2.2494 0 0-0.37683-0.3434-0.67693-0.33103-0.000193 0-0.22803-0.79211-1.5295-1.3287z"/>
  <path id="path89022" d="m11.862 34.544c-0.19228-0.91172-0.1488-1.9444 0.23924-3.0133 0 0 0.50746-0.21373 1.4938 0.37509 0 0-0.33392 0.43229-0.41876 0.86457-0.000193 0-0.5722 0.08058-1.3143 1.7736z"/>
  <path id="path89026" d="m14.272 37.315c-0.63674-0.0073-1.2773-0.38842-1.8345-1.2727 0 0 0.02126-0.79075 0.69916-2.0175 0 0 0.17063 0.61046 0.41818 0.86554 0 0-0.1258 0.84177 0.71713 2.4246z"/>
  <path id="path89028" d="m67.341 23.028c-0.96448 0-2.5079 2.8295-1.0932 2.958 1.4147 0.12851 5.5944 0.51442 7.0092 0.51442h5.2085c0.96448 0 0.77162-1.8005-4.6297-3.2795-1.029-0.32136-4.3729-0.19286-6.4947-0.19286z"/>
  <path id="path89030" d="m85.86 22.707c1.9292 0.64312 5.08 2.3149 5.9801 3.2795 0 0-0.73916 0.23344-1.0288-0.1287-0.51596-0.64312-3.5383-2.3149-4.8253-2.7008-0.93723-0.28136-0.12754-0.45006-0.12754-0.45006z"/>
  <g stroke="#000" stroke-width=".096622">
   <path id="path89032" d="m87.788 31.323s-1.0932 0.90032-2.1864 0.90032h-3.9868c-0.64292 0 0.1287-0.90032 0.90032-0.90032h5.2717z"/>
   <path id="path89034" d="m87.788 32.674s-1.0932 0.90032-2.1864 0.90032h-3.9868c-0.64292 0 0.1287-0.90032 0.90032-0.90032h5.2717z"/>
   <path id="path89036" d="m92.482 31.13s-1.0932 0.90032-2.1862 0.90032h-1.6719c-0.64312 0 0.1287-0.90032 0.90032-0.90032h2.9578z"/>
   <path id="path89038" d="m92.482 32.577s-1.0932 0.90032-2.1862 0.90032h-1.9292c-0.64312 0 0.1287-0.90032 0.90032-0.90032h3.215z"/>
  </g>
  <g fill="#fff">
   <path id="path89042" d="m80.209 33.381c0.10223 0 0.18513-0.0829 0.18513-0.18513v-1.5589c0-0.10223-0.0829-0.18513-0.18513-0.18513h-2.7808c-0.10223 0-0.18513 0.0829-0.18513 0.18513v1.5589c0 0.10223 0.0829 0.18513 0.18513 0.18513h2.7808z" stroke="#000" stroke-width=".19324"/>
   <path id="path89044" d="m78.818 32.417" stroke="#000" stroke-width=".19324"/>
   <path id="path89046" d="m67.276 23.35c-0.64312 0.51442-1.4147 1.9933-1.1575 2.1862 0.25721 0.19305 4.9513 0.57876 6.1088 0.57876-0.77104-1.0932-4.9509-2.7649-4.9509-2.7649z"/>
   <path id="path89048" d="m71.842 25.214s0.73954 0.38591 0.96448 0.90032h5.5301c0.48234 0-0.35364-0.90032-0.73954-0.90032h-5.7548z"/>
   <path id="path89050" d="m39.209 21.517c-0.06435 0.32156 2.2828 0.73954 2.2828 0.03208 0-0.70727-0.77162-0.25721-0.70727-0.70727s0.61084-0.64312 0.32156-1.5432c-0.28948-0.90013-0.19286-1.3504-2.3149-1.3504-2.1218 0-3.9225 0.25721-3.9225 1.6076s0.67519 1.704 2.54 1.5112c1.8648-0.19286 2.4113-0.35364 2.4436-0.22513 0.14107 0.56485-0.57896 0.35364-0.64331 0.67519z" stroke="#000" stroke-width=".19324"/>
  </g>
  <g stroke="#000" fill="none">
   <g stroke-width=".096622">
    <path id="path89054" d="m8.9047 27.529c0.20445 0 0.37026-0.16561 0.37026-0.37026v-2.7319c0-0.20445-0.1658-0.37026-0.37026-0.37026h-1.6387c-0.20445 0-0.37026 0.1658-0.37026 0.37026v2.7321c0 0.20445 0.16561 0.37026 0.37026 0.37026h1.6387z"/>
    <path id="path89056" d="m8.0854 25.793"/>
    <path id="path89058" d="m4.7096 28.687h4.3725c0.90032-1.7361 1.9292-3.1508 4.8871-3.1508 2.958 0 4.6941 2.5079 4.9513 3.0223l28.679 0.06435s1.2217-5.2729 6.4945-5.1443c5.2729 0.1287 7.009 3.5366 7.7806 5.4016 0 0 8.3593 0.25721 12.153 0.25721 3.7938 0 19.869-0.38591 19.869-0.38591"/>
    <path id="path89060" d="m65.604 32.61c2.958-1.222 8.359-2.701 15.433-2.701l12.86-0.386"/>
    <line id="line89062" y2="24.7" y1="24.7" x2="88.946" x1="77.693"/>
    <path id="path89064" d="m67.084 23.092c-5.596-2.765-21.092-2.636-21.092-2.636"/>
    <path id="path89066" d="m65.733 25.279c-0.19286 0.83597-0.25721 3.6653-0.25721 3.6653"/>
    <path id="path89068" d="m62.068 29.201c0.88776 2.5539 0.90013 4.244 0.90013 5.0156 0 0.77162 1.6719-0.1287 6.6876-0.38591 5.0156-0.25721 11.446-0.1287 11.446-0.1287-0.19305-1.286-0.70747-2.8293 1.4789-2.7651 2.1862 0.06435 9.5812-0.06435 9.5812-0.06435 0.83597 0 0.57877 0.54649 0.51442 2.6043 0 0 0.86805 0.06435 1.0609-0.1287"/>
   </g>
   <polyline id="polyline89070" transform="matrix(.19324 0 0 .19324 4.5003 12.52)" points="419.69 108.95 431 108.95 434 95.638" stroke-width=".5"/>
   <g stroke-width=".096622">
    <path id="path89072" d="m85.989 32.16h1.5432c0.70727 0 0.25721 0.51442 0.25721 0.51442"/>
    <path id="path89074" d="m90.297 32.03h2.0577c0.51442 0 0.1287 0.54669 0.1287 0.54669"/>
    <line id="line89076" y2="33.477" y1="33.477" x2="92.676" x1="90.297"/>
    <path id="path89078" d="m93.706 28.365s-13.311 0.32156-15.24 0.32156c-1.9292 0-2.3792-0.1287-3.8581-0.90032s-1.704-0.96448-3.794-1.0932c-1.8611-0.11459-5.4014-0.19286-5.5301-0.70727-0.1287-0.51442 0.26088-1.6227-1.0288-1.9292-5.1443-1.2217-10.996-1.4789-17.812-1.4789-6.8161 0-11.253 0.1287-11.253 0.1287-0.57876 0-0.64292 0.45006 0.64312 0.51442 1.286 0.06435 3.408 0.19286 3.9225 0.70727 0 0-6.3017-0.25721-11.575-0.32156-5.284-0.063-18.208-0.192-22.453-0.063"/>
    <path id="path89080" d="m7.9248 21.806s7.202-0.25721 8.8738-0.1287c1.6719 0.1287 0.63403-0.27189-0.90013-0.57877-0.64312-0.1287-1.8648-0.19286-1.8648-0.19286"/>
    <path id="path89082" d="m5.9313 34.475h2.3792c0.77162 0 0.1287-0.57876-1.0932-0.90032-1.2217-0.323-2.5721-0.58-2.5721-1.802"/>
    <path id="path89084" d="m8.9534 29.073c-0.2572 1.286-0.6431 5.401 1.2216 6.108"/>
    <path id="path89086" d="m23.679 21.228c-0.64312 0.51442-1.4789 1.3504-1.5432 2.3149-0.06435 0.96467 0.32156 5.4016 0.57877 6.2373h0.64312l0.96448 3.0223s-0.32156 0.32156-0.19305 0.77162c0.1287 0.45006 0.25721 0.90032 0.25721 0.90032h18.069c0.96448 0 1.3504-0.19305 1.4147-1.0932 0.06435-0.90013 0.51442-3.408 0.51442-4.6941 0-1.286-0.1287-5.3372-0.1287-6.0445 0-0.70747 0.57876-1.8648 0.57876-1.8648"/>
    <path id="path89088" d="m35.703 29.78h-13.632c-3.0223-0.06435-0.1287 4.1153 1.4147 3.794 1.5432-0.32156 10.096-1.7361 10.096-1.7361s-8.4237 0.96448-9.7741 1.0288c-1.3504 0.06435-3.0223-2.7008-1.2217-2.7649 1.8003-0.06454 13.118-0.32175 13.118-0.32175z"/>
    <path id="path89090" d="m19.113 29.008c1.0387 1.6841 1.6076 5.0156 2.4436 6.4945 0 0 0.57876-0.64312 4.5654-0.64312h14.854c1.7361 0 3.5368 0.90032 6.4945 0.90032-0.38591-1.8005-0.51442-4.5012 0-6.6874"/>
    <path id="path89092" d="m22.554 24.282c-0.23788 0.21141-0.32156 1.4468-0.03227 1.6397 0.28948 0.19305 2.3398 0.23518 2.6364 0.03227 0.61084-0.41799-0.06435-0.96448-0.67519-1.3504-0.61065-0.38572-1.6395-0.57857-1.929-0.32156z"/>
    <path id="path89094" d="m22.393 24.829c0 0.28948 2.2505 0.41799 2.2828 0.16078 0.03227-0.25721-0.19305-0.38591-0.19305-0.38591"/>
   </g>
  </g>
  <path id="path89096" stroke-width=".096622" stroke="#000" d="m22.554 24.989c-0.06435 0.32156-0.09643 0.67519 0.35364 0.70727 0.45026 0.03227 0.83597 0.03227 1.254 0.03227 0.41799 0 0.19305-0.61084 0.19305-0.61084s-0.57876 0.06435-1.0932 0c-0.51461-0.06454-0.70747-0.1287-0.70747-0.1287z"/>
  <g stroke-width=".096622" fill="none">
   <ellipse id="ellipse89100" rx=".22725" ry=".27286" stroke="#000" cy="25.472" cx="24.804"/>
   <path id="path89102" d="m24.804 25.472" stroke="#000"/>
   <g stroke="#fff">
    <path id="path89104" d="m28.791 14.299c-0.96448 1.0932-3.1186 3.4075-4.0187 6.7193"/>
    <path id="path89106" d="m22.474 21.003c0-1.2768 2.3951-4.4529 3.4882-5.8997"/>
    <path id="path89108" d="m23.679 21.067c0.24136-1.7276 1.5753-3.826 3.7617-6.5266"/>
   </g>
  </g>
  <path id="path89110" d="m35.64 19.909c-0.51442-0.03227-0.16078 0.86805 0.67519 0.86805s2.8616-0.19305 3.2473-0.19305c0.38591 0 0.80389-0.16078 0.06435-0.28948-0.73954-0.12831-3.9868-0.38552-3.9868-0.38552z"/>
  <path id="path89112" d="m55.316 19.749c7.5877 0.38591 16.655 1.5432 20.706 3.6653 0 0-3.794-3.1508-18.519-3.9868" stroke="#000" stroke-width=".096622" fill="none"/>
  <polygon id="polygon89114" points="92.257 37.491 73.623 37.491 71.128 39.735 91.426 39.735" fill="#fff" transform="matrix(.19324 0 0 .19324 4.5003 12.52)"/>
  <polygon id="polygon89116" points="123.24 37.741 110.39 37.741 109.4 39.735 123.24 39.735" fill="#fff" transform="matrix(.19324 0 0 .19324 4.5003 12.52)"/>
  <g stroke="#fff" stroke-width=".096622" fill="none">
   <ellipse id="ellipse89120" rx="2.8677" ry="3.7325" cy="33.188" cx="54.663"/>
   <path id="path89122" d="m54.663 33.188"/>
   <ellipse id="ellipse89126" rx="2.1251" ry="3.1912" cy="33.441" cx="14.338"/>
   <path id="path89128" d="m14.338 33.439"/>
  </g>
 </g>
</svg>
