<?xml version="1.0" encoding="UTF-8" standalone="no"?>
<!-- Created with Inkscape (http://www.inkscape.org/) -->
<svg id="svg2" xmlns:rdf="http://www.w3.org/1999/02/22-rdf-syntax-ns#" xmlns="http://www.w3.org/2000/svg" height="45" width="67.5" version="1.1" xmlns:cc="http://creativecommons.org/ns#" xmlns:dc="http://purl.org/dc/elements/1.1/">
 <metadata id="metadata7">
  <rdf:RDF>
   <cc:Work rdf:about="">
    <dc:format>image/svg+xml</dc:format>
    <dc:type rdf:resource="http://purl.org/dc/dcmitype/StillImage"/>
    <dc:title/>
   </cc:Work>
  </rdf:RDF>
 </metadata>
 <g id="g64796">
  <rect id="rect2990" opacity="0" height="45" width="67.5" y="0" x="3.5527e-15"/>
  <g id="g64055" transform="matrix(.83935 0 0 .83935 -7.7975 -.16241)">
   <path id="path89241" fill="#fff" d="m11.76 39.531c-0.78478-1.4387-0.77593-2.9382-0.80928-3.5711-0.03841-0.72772 0.49442-1.0391 0.49442-1.0391s-0.5714-0.41618-0.47972-1.4425 0.83236-1.1426 0.83236-1.1426-0.10179-3.2223 0.91186-3.5333c1.8258-0.56033 2.9583 5.7838 2.9583 5.7838-0.53362 1.2729 0.67303 3.6384 0.75048 4.6129 0.07729 0.97461-0.59985 3.1048-0.32719 3.3909 0.27266 0.28594 2.4809 0.97619 3.1176 1.0026l9.238-0.13593s-0.55764-1.4554-0.3871-3.9111c0.26491-3.8137 0.86065-4.6638 0.86065-4.6638-0.18035-2.2739-0.13783-7.315 2.4735-7.1183 2.6113 0.19663 3.8177 3.0429 3.8177 3.0429-0.4941 0.55828-0.05279 1.2734 0.3626 1.6633-1.0532 1.0257-0.26191 3.0011 0.02339 3.69 0.28546 0.68884 0.68757 1.6375 0.58309 2.2611-0.10432 0.62356 0.33683 1.3385 0.41381 2.7938 0 0 0.54468 1.5335 0.86918 1.9886 0.3245 0.4549 10.459 0.22808 21.776 0.11902 9.54-0.09199 20.498 0.09136 25.296-0.81687 0.89368-0.16897 2.6651-0.88942 2.9896-1.0993 0.61186-0.39579 0.3912-1.8577 0.3912-1.8577l0.32924-0.10812c0.35611-0.83662 0.91581-2.9281 1.1151-3.2561 0.22113-0.3637 0.28672-1.2342-0.08994-1.3774l-0.039-0.246s0.09104-0.06496 0.28609-0.27266c0.19505-0.20769-0.05121-1.1305-0.1549-1.4684-0.10369-0.33794-0.50643-0.32513-1.325-0.22176l-0.05153-0.64964s0.94869-0.40211 0.4941-0.55843c0 0-0.49047-4.7297-1.1128-6.757-0.62118-2.0279-7.6882-4.813-10.661-6.1923-3.6086-5.7323-9.7114-11.882-9.7114-11.882s-0.49316-0.88388-3.8709-1.289c-3.377-0.4055-19.786-0.9882-28.218-0.3964-8.264 0.5799-9.603 0.8767-11.8 2.5124-2.42 1.8019-7.777 10.558-7.777 10.558-0.38962-0.06528-1.3124 0.18098-1.6502 0.28467-0.33794 0.10369-0.53299 0.31138-0.24721 0.51955s0.87013 0.54626 0.20738 0.67572c-0.6626 0.12945-2.146 3.2468-2.4855 5.7541-0.33952 2.5073-0.06892 5.6778-0.04315 6.0026 0.02576 0.32482-0.62387 0.37635-0.66307 0.61012s0.3245 0.4549 0.3245 0.4549-1.1437 0.6098-1.2612 1.3113c0 0-0.29969 1.3121 0.12882 1.6241-0.41586 0.09073-0.039516 0.7146 0.49284 1.3646 0.5322 0.64995 0.38804 2.4689 0.75174 2.6901 0.22318 0.13578 0.62735 0.27155 0.90633 0.35627l-0.03003-0.05896z"/>
   <path id="path89243" d="m12.169 40.17c-0.1971 3.0922 0.31881 8.6274 1.9818 8.7454 1.663 0.11807 3.1831 0.13214 4.7163 0.06828s1.9891-1.8307 2.5371-5.1043l7.1978 0.08298s1.0097 5.4576 3.8811 5.5376l6.1976-0.1647c2.5856-0.12819 3.329-4.0903 3.329-4.0903l12.785 0.2167s0.28325 3.5732 3.0767 3.6402l2.8064-0.01107c1.767-0.02482 2.5739-1.9731 2.796-3.779 0 0 0.96149 0.000633 2.3257-0.01138l8.4715-0.34489s0.78952 4.3791 3.9726 4.5113l5.4569-0.04821c2.5077-0.14115 5.005-4.0502 4.5286-10.3l-0.31217 0.42851s0.22066 1.4619-0.3912 1.8577c-0.3245 0.20991-2.0959 0.93036-2.9896 1.0993-4.7986 0.90823-15.757 0.72487-25.296 0.81687-11.319 0.108-21.453 0.335-21.779-0.12-0.324-0.455-0.869-1.989-0.869-1.989-0.07698-1.4553-0.51813-2.17-0.41381-2.7938 0.10448-0.62356-0.29763-1.5722-0.58309-2.2611-0.2853-0.68884-1.0766-2.6641-0.02339-3.69-0.41555-0.3901-0.8567-1.105-0.3626-1.6633 0 0-1.2063-2.8462-3.8177-3.0429-2.6113-0.19663-2.6539 4.8445-2.4735 7.1183 0 0-0.59574 0.8499-0.86065 4.6638-0.17071 2.4555 0.3871 3.9111 0.3871 3.9111l-9.238 0.13657c-0.63668-0.0264-2.845-0.71666-3.1176-1.0026-0.27266-0.28609 0.40448-2.4165 0.32719-3.3909-0.07729-0.97446-1.2841-3.34-0.75048-4.6129 0 0-1.1325-6.3442-2.9583-5.7838-1.0137 0.31107-0.91186 3.5333-0.91186 3.5333s-0.74068 0.11633-0.83236 1.1426c-0.09168 1.0265 0.47972 1.4425 0.47972 1.4425s-0.53299 0.31138-0.49442 1.0391 0.02102 2.6012 1.2185 4.2105z"/>
   <path id="path89245" d="m32.732 40.115"/>
   <path id="path89247" d="m32.732 40.115"/>
   <path id="path89251" fill="#fff" d="m32.882 47.111c1.9322-0.0324 3.4314-3.1911 3.3486-7.0551-0.08282-3.864-1.7164-6.9699-3.6486-6.9375s-3.4314 3.1911-3.3486 7.0551c0.08282 3.864 1.7164 6.9701 3.6486 6.9375z"/>
   <path id="path89253" fill="#fff" d="m32.732 40.115"/>
   <path id="path89257" d="m32.866 46.41c1.7388-0.02924 3.0882-2.8722 3.0136-6.3495-0.07461-3.4774-1.5447-6.2729-3.2837-6.2436-1.7388 0.02924-3.0882 2.8722-3.0136 6.3495 0.07461 3.4774 1.5447 6.2729 3.2837 6.2436z"/>
   <path id="path89259" d="m32.732 40.115"/>
   <path id="path89263" d="m32.875 46.851c1.8607-0.0313 3.3045-3.073 3.2246-6.794-0.07982-3.7209-1.6529-6.7121-3.5136-6.6808s-3.3045 3.073-3.2246 6.794c0.07982 3.7209 1.6529 6.7121 3.5136 6.6808z" stroke="#000" stroke-width=".079031" fill="none"/>
   <path id="path89265" d="m32.732 40.115" stroke="#000" stroke-width=".079031" fill="none"/>
   <g id="g63683" stroke-width=".079031" stroke="#000" fill="#fff">
    <path id="path89271" d="m31.742 45.679 0.68599-1.9925 0.000474-0.0055c0.11064 0.04457 0.22445 0.06923 0.34062 0.07223l0.000316 0.01612-0.72851 2.1142-0.0024 0.0024c-0.10163-0.05501-0.20121-0.12029-0.29858-0.19521l0.0021-0.0117z"/>
    <path id="path89273" d="m31.241 45.177 0.6509-1.8862 0.0071 0.0013c0.08867 0.09737 0.18146 0.18067 0.27772 0.24879l-0.67192 1.947-0.0027-0.0051c-0.08899-0.0863-0.17592-0.18114-0.26017-0.28356l-0.000949-0.02229z"/>
    <path id="path89277" d="m33.285 46.017 0.0833-2.4459-0.000948-0.0052c0.10511-0.07129 0.20785-0.16344 0.30712-0.27677l0.0043 0.01375-0.08899 2.5957-0.0014 0.0044c-0.0999 0.05295-0.2009 0.09484-0.30237 0.12598l-0.000949-0.01201z"/>
    <path id="path89279" d="m32.733 46.075 0.08014-2.3164 0.0065-0.006c0.09958-0.0027 0.19932-0.02181 0.2981-0.05785l-0.08298 2.3915-0.0035-0.0019c-0.09721 0.0128-0.19458 0.01597-0.29178 0.0096l-0.0065-0.01897z"/>
    <path id="path89283" d="m34.679 44.773-0.54168-2.2435-0.0022-0.0036c0.07144-0.16802 0.13562-0.352 0.19141-0.55148l0.0071 0.0079 0.5744 2.3815v0.0054c-0.0716 0.14668-0.14684 0.28467-0.22508 0.41365l-0.004-0.0098z"/>
    <path id="path89285" d="m34.225 45.377-0.51212-2.1261 0.004-0.0117c0.08377-0.10211 0.16375-0.2186 0.23836-0.349l0.5284 2.1952-0.0033 0.0019c-0.07935 0.10843-0.16122 0.20848-0.24531 0.30016l-0.0095-0.01106z"/>
    <path id="path89289" d="m35.551 42.282-1.0216-1.4403-0.0028-0.0011c0.01849-0.21971 0.02687-0.44653 0.0245-0.6784l0.0079-0.000158 1.084 1.5294 0.0013 0.0047c-0.02403 0.20106-0.05327 0.39816-0.08741 0.5902l-0.0058-0.0044z"/>
    <path id="path89291" d="m35.318 43.268-0.96703-1.3661 0.000474-0.01423c0.04568-0.17403 0.08425-0.35675 0.11507-0.54658l0.99816 1.4107-0.0025 0.0051c-0.04015 0.17513-0.08456 0.34537-0.13293 0.51038l-0.01122 0.000791z"/>
    <path id="path89295" d="m35.668 39.209-1.2277-0.251-0.0027 0.0017c-0.03936-0.21259-0.08899-0.4214-0.14905-0.62356l0.0066-0.0082 1.3031 0.26728 0.0024 0.003c0.02987 0.20169 0.05437 0.40496 0.0735 0.60886l-0.0062 0.0019z"/>
    <path id="path89297" d="m35.716 40.314-1.1629-0.23994-0.0033-0.01312c-0.0047-0.19932-0.0177-0.39926-0.0392-0.59779l1.2005 0.24816-0.00079 0.0068c0.0098 0.19473 0.0147 0.38962 0.01486 0.58372l-0.0092 0.01217z"/>
    <path id="path89301" d="m34.997 36.38-1.1049 1.0054-0.0019 0.0041c-0.087-0.148-0.181-0.283-0.283-0.401l0.0036-0.01391 1.173-1.0664 0.0027 0.000316c0.07587 0.14826 0.14763 0.30316 0.21496 0.46423l-0.0047 0.0079z"/>
    <path id="path89303" d="m35.314 37.308-1.0472 0.95043-0.006-0.0084c-0.054-0.171-0.115-0.335-0.183-0.489l1.0811-0.98078 0.0011 0.0068c0.05706 0.16233 0.11001 0.3294 0.15869 0.50058l-0.0047 0.02007z"/>
    <path id="path89307" d="m33.72 34.551-0.68615 1.9925-0.000474 0.0055c-0.11064-0.04457-0.22445-0.06923-0.34062-0.07223l-0.000316-0.01596 0.72851-2.1142 0.0024-0.0024c0.10148 0.05501 0.20121 0.12028 0.29858 0.19521l-0.0019 0.01154z"/>
    <path id="path89309" d="m34.222 35.052-0.65074 1.8862-0.0071-0.0013c-0.089-0.097-0.181-0.181-0.278-0.249l0.67208-1.947 0.0027 0.0051c0.08899 0.0863 0.17592 0.18114 0.26017 0.28356l0.000632 0.02229z"/>
    <path id="path89313" d="m32.177 34.213-0.08346 2.4459 0.000948 0.0054c-0.10511 0.07129-0.20785 0.16328-0.30712 0.27661l-0.0043-0.01375 0.08899-2.5957 0.0014-0.0044c0.0999-0.05295 0.2009-0.09484 0.30237-0.12598l0.0011 0.01201z"/>
    <path id="path89315" d="m32.728 34.154-0.08014 2.3164-0.0065 0.006c-0.09958 0.0027-0.19932 0.02181-0.2981 0.05785l0.08298-2.3915 0.0035 0.0019c0.09721-0.0128 0.19458-0.01596 0.29178-0.0096l0.0065 0.01897z"/>
    <path id="path89319" d="m30.783 35.455 0.54168 2.2437 0.0021 0.0036c-0.07129 0.16802-0.13546 0.35216-0.19141 0.55148l-0.0071-0.0079-0.5744-2.3815v-0.0054c0.0716-0.14668 0.14684-0.28467 0.22508-0.41349l0.0041 0.0095z"/>
    <path id="path89321" d="m31.236 34.853 0.51196 2.1261-0.004 0.0117c-0.08393 0.10211-0.16375 0.2186-0.23852 0.349l-0.5284-2.1952 0.0033-0.0019c0.07935-0.10843 0.16122-0.20864 0.24531-0.30016l0.01028 0.01043z"/>
    <path id="path89325" d="m29.91 37.948 1.0216 1.4403 0.0027 0.0011c-0.01849 0.21971-0.02687 0.44653-0.02434 0.6784l-0.0081 0.000158-1.0838-1.5294-0.0013-0.0047c0.02403-0.20106 0.05327-0.39816 0.08757-0.5902l0.0057 0.0044z"/>
    <path id="path89327" d="m30.144 36.961 0.96703 1.3661-0.000474 0.01438c-0.04568 0.17387-0.08425 0.35659-0.11507 0.54658l-0.99816-1.4107 0.0024-0.0051c0.04015-0.17513 0.08472-0.34537 0.13309-0.51038l0.01122-0.000948z"/>
    <path id="path89331" d="m29.795 41.019 1.2277 0.251 0.0027-0.0017c0.03936 0.21244 0.08899 0.42124 0.14921 0.62356l-0.0068 0.0082-1.3031-0.26728-0.0022-0.003c-0.02987-0.20169-0.05437-0.40496-0.0735-0.60886l0.006-0.0019z"/>
    <path id="path89333" d="m29.746 39.914 1.1629 0.2401 0.0033 0.01312c0.0047 0.19932 0.01786 0.39927 0.03936 0.59779l-1.2006-0.24816 0.00079-0.0068c-0.0098-0.19489-0.0147-0.38962-0.01486-0.58372l0.0092-0.01233z"/>
    <path id="path89337" d="m30.465 43.85 1.105-1.0054 0.0019-0.0041c0.08646 0.14826 0.18098 0.28325 0.28277 0.40164l-0.0036 0.01391-1.1728 1.0664-0.0027-0.000316c-0.07587-0.14826-0.14763-0.30316-0.21481-0.46423l0.0043-0.0079z"/>
    <path id="path89339" d="m30.147 42.922 1.0472-0.95043 0.006 0.0084c0.0539 0.17118 0.11507 0.33478 0.18304 0.48873l-1.0811 0.98078-0.000949-0.0068c-0.05706-0.16233-0.11001-0.3294-0.15885-0.50074l0.0047-0.01992z"/>
   </g>
   <path id="path89341" d="m14.066 40.104"/>
   <path id="path89343" d="m14.066 40.104"/>
   <path id="path89347" fill="#fff" d="m13.792 46.451c0.76486-0.10543 1.5076-3.0327 1.6589-6.5383 0.15126-3.5055-0.346-6.2621-1.1107-6.1568-0.76471 0.10527-1.5074 3.0327-1.6589 6.5383-0.15142 3.5057 0.34584 6.2621 1.1107 6.1568z"/>
   <path id="path89349" fill="#fff" d="m14.066 40.104"/>
   <path id="path89353" d="m13.819 45.818c0.68836-0.09484 1.3568-2.7294 1.4931-5.8845 0.13609-3.1549-0.31138-5.6359-0.99974-5.541-0.6882 0.09484-1.3566 2.7294-1.4929 5.8845-0.13625 3.1551 0.31138 5.6359 0.99959 5.541z"/>
   <path id="path89355" d="m14.066 40.104"/>
   <path id="path89359" d="m13.802 46.218c0.73641-0.10148 1.4516-2.9205 1.5974-6.2964 0.14573-3.3759-0.3332-6.0304-1.0696-5.9289-0.73657 0.10148-1.4518 2.9205-1.5974 6.2964-0.14573 3.3759 0.3332 6.0304 1.0696 5.9289z" stroke="#000" stroke-width=".039516" fill="none"/>
   <path id="path89361" d="m14.066 40.104" stroke="#000" stroke-width=".039516" fill="none"/>
   <g id="g63717" fill="#fff">
    <path id="path89367" d="m13.411 45.196 0.36592-1.8364 0.000474-0.0051c0.04157 0.0362 0.08535 0.05406 0.13103 0.05216l-0.000633 0.01454-0.38852 1.9486-0.000948 0.0022c-0.03746-0.046-0.07382-0.10132-0.10875-0.16549l0.0014-0.01059z"/>
    <path id="path89369" d="m13.236 44.76 0.34695-1.7384 0.0028 0.000949c0.03035 0.08488 0.06307 0.15696 0.09784 0.21496l-0.35817 1.7945-0.000791-0.0044c-0.03098-0.07492-0.06085-0.15759-0.08915-0.24721l0.000474-0.02055z"/>
    <path id="path89373" d="m14.004 45.443 0.14953-2.2244-0.000158-0.0047c0.04489-0.06892 0.08994-0.15648 0.13451-0.26349l0.000948 0.01233-0.1587 2.3608-0.00079 0.0041c-0.04204 0.052-0.08393 0.09405-0.12534 0.12629v-0.01091z"/>
    <path id="path89375" d="m13.783 45.517 0.14194-2.1068 0.0028-0.0058c0.03952-0.0063 0.07966-0.02766 0.12044-0.06433l-0.14668 2.1749-0.0013-0.0016c-0.03904 0.01533-0.07761 0.02213-0.1157 0.02007l-0.001-0.016z"/>
    <path id="path89379" d="m14.614 44.259-0.10701-2.0161-0.000632-0.0033c0.0362-0.15538 0.07034-0.32498 0.10195-0.50833l0.0025 0.0068 0.11333 2.1403-0.000158 0.0047c-0.03525 0.13609-0.0716 0.26428-0.10859 0.38441l-0.0014-0.0085z"/>
    <path id="path89381" d="m14.406 44.825-0.101-1.9107 0.0021-0.01075c0.03794-0.09594 0.07508-0.20485 0.1108-0.32624v-0.000158l0.10416 1.9728-0.0014 0.0017c-0.03651 0.10163-0.07366 0.19568-0.11128 0.2823l-0.0033-0.0095z"/>
    <path id="path89385" d="m15.077 41.962-0.33493-1.2678-0.0011-0.000949c0.0177-0.20026 0.03193-0.40654 0.04204-0.61708l0.0032-0.000475 0.35532 1.3464 0.000158 0.0043c-0.01913 0.18367-0.03999 0.3637-0.06259 0.53947l-0.0021-0.0047z"/>
    <path id="path89387" d="m14.937 42.867-0.31692-1.2025 0.00079-0.01312c0.0264-0.1598 0.05026-0.32719 0.07144-0.5009l0.32703 1.2417-0.0013 0.0047c-0.02418 0.16059-0.04979 0.31692-0.07682 0.46866l-0.0043 0.0014z"/>
    <path id="path89391" d="m15.269 39.168-0.47292-0.17988-0.0011 0.0017c-0.0054-0.19141-0.01502-0.37903-0.02924-0.56033l0.003-0.0077 0.50201 0.19157 0.00079 0.0025c0.0022 0.18209 0.0022 0.3656 0 0.55006l-0.0025 0.0021z"/>
    <path id="path89393" d="m15.236 40.168-0.44795-0.17229-0.000632-0.0117c0.0076-0.18082 0.01201-0.3618 0.01296-0.54136l0.46233 0.17814-0.000632 0.0063c-0.0054 0.17656-0.0128 0.35327-0.02197 0.52951l-0.0041 0.01138z"/>
    <path id="path89397" d="m15.139 36.623-0.4843 0.95644-0.000948 0.0038c-0.02703-0.13135-0.05801-0.25005-0.09247-0.35358l0.0022-0.0128 0.51402-1.0144 0.0011 0.000158c0.02292 0.13167 0.04378 0.26966 0.06275 0.41318l-0.0024 0.0073z"/>
    <path id="path89399" d="m15.22 37.453-0.45886 0.90412-0.0019-0.0073c-0.01312-0.15348-0.02956-0.29953-0.04916-0.43673l0.47387-0.9332v0.0062c0.01486 0.1451 0.02782 0.29494 0.03888 0.44842l-0.0028 0.01849z"/>
    <path id="path89403" d="m14.722 35.012-0.36592 1.8365-0.000474 0.0049c-0.04157-0.03604-0.08551-0.0539-0.13119-0.05216l0.000633-0.01454 0.38852-1.9486 0.0011-0.0024c0.03746 0.046 0.07366 0.10132 0.10875 0.16549l-0.0014 0.01075z"/>
    <path id="path89405" d="m14.896 35.449-0.34695 1.7385-0.0027-0.000948c-0.03035-0.08488-0.06307-0.15696-0.09784-0.21496l0.35833-1.7945 0.000791 0.0044c0.03114 0.07492 0.06085 0.15759 0.08931 0.24721l-0.000948 0.02023z"/>
    <path id="path89409" d="m14.128 34.766-0.14937 2.2243v0.0047c-0.04489 0.06892-0.08978 0.15648-0.13451 0.26333l-0.0011-0.01233 0.15885-2.3607 0.00079-0.0041c0.04204-0.052 0.08393-0.09405 0.12534-0.12629v0.01106z"/>
    <path id="path89411" d="m14.349 34.692-0.14194 2.1068-0.0028 0.0057c-0.03952 0.0065-0.07982 0.02766-0.12044 0.06433l0.14668-2.1749 0.0013 0.0014c0.03904-0.01533 0.07761-0.02197 0.1157-0.02007l0.0016 0.01581z"/>
    <path id="path89415" d="m13.518 35.95 0.10701 2.0162 0.000632 0.0033c-0.0362 0.15538-0.07034 0.32498-0.10195 0.50833l-0.0024-0.0068-0.11349-2.1403 0.000316-0.0049c0.03525-0.13609 0.0716-0.26428 0.10859-0.38441l0.0013 0.0085z"/>
    <path id="path89417" d="m13.726 35.384 0.101 1.9107-0.0022 0.01075c-0.03794 0.09594-0.07508 0.20485-0.1108 0.32624l-0.10416-1.9726 0.0014-0.0019c0.03651-0.10163 0.07366-0.19568 0.11128-0.2823l0.0035 0.0092z"/>
    <path id="path89421" d="m13.055 38.246 0.33493 1.2678 0.000949 0.000948c-0.0177 0.20026-0.03193 0.40654-0.04189 0.61708l-0.0033 0.000474-0.35532-1.3464-0.000316-0.0043c0.01913-0.18367 0.03999-0.3637 0.06259-0.53947l0.0024 0.0038z"/>
    <path id="path89423" d="m13.194 37.342 0.31692 1.2025-0.00079 0.01312c-0.0264 0.1598-0.05026 0.32719-0.07144 0.5009l-0.32719-1.2419 0.0013-0.0046c0.02418-0.16059 0.04979-0.31707 0.07682-0.46866l0.0044-0.0014z"/>
    <path id="path89427" d="m12.863 41.041 0.47292 0.17988 0.0011-0.0017c0.0054 0.19141 0.01502 0.37903 0.02924 0.56049l-0.003 0.0076-0.50201-0.19157-0.00079-0.0027c-0.0022-0.18193-0.0022-0.3656 0-0.5499l0.0025-0.0021z"/>
    <path id="path89429" d="m12.896 40.04 0.44779 0.17229 0.00079 0.01185c-0.0076 0.18082-0.01201 0.3618-0.01296 0.54136l-0.46233-0.1783 0.000632-0.0063c0.0054-0.17656 0.0128-0.35327 0.02197-0.52951l0.0041-0.01138z"/>
    <path id="path89433" d="m12.993 43.584 0.4843-0.95644 0.000948-0.0038c0.02703 0.13135 0.05801 0.25006 0.09247 0.35359l-0.0021 0.01296-0.51418 1.0143-0.0011-0.000158c-0.02292-0.13167-0.04378-0.26965-0.06275-0.41318l0.0024-0.0073z"/>
    <path id="path89435" d="m12.912 42.754 0.45886-0.90412 0.0021 0.0073c0.01312 0.15332 0.02956 0.29953 0.049 0.43657l-0.47387 0.9332v-0.0062c-0.01486-0.1451-0.02782-0.29494-0.03888-0.44842l0.0028-0.01834z"/>
   </g>
   <path id="path89437" d="m88.137 39.664c0.33825-0.58452 1.0026-3.1176 1.2237-3.4812 0.22113-0.3637 0.28672-1.2342-0.08994-1.3774l-0.03888-0.24689s0.09104-0.06496 0.28609-0.27266c0.19505-0.20769-0.05121-1.1305-0.1549-1.4684-0.10369-0.33794-0.50643-0.32513-1.325-0.22176l-0.05153-0.64964s0.94869-0.40211 0.4941-0.55844c0 0-0.49047-4.7297-1.1128-6.757-0.62-2.027-7.687-4.813-10.66-6.192-3.609-5.733-9.712-11.882-9.712-11.882s-0.49316-0.88388-3.8709-1.289c-3.3778-0.40511-19.786-0.98789-28.219-0.3961-8.2635 0.57993-9.6023 0.87677-11.8 2.5124-2.4206 1.8019-7.777 10.558-7.777 10.558-0.38962-0.06528-1.3124 0.18098-1.6502 0.28467-0.33794 0.10369-0.53299 0.31138-0.24721 0.51955s0.87013 0.54626 0.20738 0.67572c-0.6626 0.12945-2.146 3.2468-2.4855 5.7541-0.33952 2.5073-0.06891 5.6778-0.04315 6.0026 0.02576 0.32482-0.62387 0.37635-0.66307 0.61012s0.3245 0.4549 0.3245 0.4549-1.1437 0.6098-1.2612 1.3113c0 0-0.29969 1.3121 0.12882 1.6241-0.41586 0.09073-0.039516 0.7146 0.49284 1.3646 0.5322 0.64995 0.38804 2.4689 0.75174 2.6901 0.3637 0.22113 1.2081 0.44258 1.2081 0.44258" stroke="#000" stroke-width=".23709" fill="none"/>
   <path id="path89439" d="m54.171 28.489 23.543-0.06417c0.0264-0.5548 0.07777-1.1665 0.16628-1.6954l-24.283 0.02213c0 0.000158 0.29574 0.84089 0.57298 1.7374z"/>
   <path id="path89441" d="m54.317 28.971 23.381-0.06907c-0.01533 0.61407 0.000317 1.0848 0.02545 1.166 0.05184 0.16897-0.18225 0.6106-0.58515 0.62324l-21.789-0.0411c-0.48067-0.000316-0.72725-0.44226-0.72725-0.44226-0.04852-0.30791-0.16644-0.76028-0.30569-1.2368z"/>
   <path id="path89445" fill="#fff" d="m66.334 26.901s0.15522 0.86745 0.13214 1.3644l-0.36386 0.01928-0.32134-0.23409 0.1892-1.1303 0.36386-0.01928z"/>
   <path id="path89449" fill="#fff" d="m66.538 29.158s0.15522 0.86729 0.13214 1.3642l-0.36386 0.01928-0.32134-0.23409 0.1892-1.1301 0.36386-0.01928z"/>
   <path id="path89451" d="m29.306 20.122s0.28672-1.2342 0.88452-1.4545c-0.4794-1.9233 1.008-10.809 1.008-10.809 0.11744-0.70148-0.23314-1.0007-0.71397-1.001-0.48083-0.0003161-2.5856 0.12819-2.5856 0.12819s-0.55875-0.013435-1.0789 0.70085c-0.52018 0.71428-3.3035 4.896-5.2184 12.028l7.7044 0.40812z"/>
   <path id="path89453" d="m25.951 7.1396c-1.391 1.6102-4.344 6.3244-5.777 12.495l-3.352-0.081c1.562-5.027 7.635-12.104 7.635-12.104 0.455-0.324 1.494-0.3104 1.494-0.3104z"/>
   <path id="path89455" d="m31.802 19.097s7.4974-0.74842 11.915-0.81023c0.09136-0.54563 8.0817-0.41017 11.953-0.08267 3.8716 0.3275 3.5735-0.76407 5.5744-0.74969 2.0008 0.01438 4.3654 0.2499 5.0668 0.36734 0.70148 0.11744 1.403 0.23488 2.0654 0.5861l7.6787 0.0833c-2.753-5.108-9.621-11.947-9.621-11.947-3.183-0.6126-32.233-0.8278-33.586 0.0678-0.898 2.4939-1.489 10.809-1.048 12.485z"/>
   <g id="g63751" fill="#fff">
    <path id="path89457" d="m32.926 9.9899s-0.30064 2.7542-0.26254 3.9626l4.5604 0.0422c1.1042 0.10464 1.5067 0.57266 1.5839 1.5473l0.46755 0.0784c0.46771 0.07824 0.63636 0.50706 0.70085 1.0788l9.4457 0.05864c0.10511-1.585 0.15759-2.3776 1.2879-2.4288 1.1303-0.05121 7.081-0.17703 7.081-0.17703s0.52255-4.0794 0.01612-4.4046c-0.507-0.3243-6.938-0.5593-13.798-0.3854-7.484 0.1895-11.083 0.6287-11.083 0.6287z"/>
    <path id="path89459" d="m73.341 17.476s-6.4382-8.9305-7.1654-9.3726c-0.728-0.4424-4.405-0.4969-4.405-0.4969 1.6614 2.5217 3.4515 6.6677 4.0211 9.4874l7.5484 0.38204z"/>
    <path id="path89461" d="m63.895 16.937c-0.374-2.547-2.151-6.771-3.488-9.3186l-0.88357 0.012329s1.3217 5.0291 1.02 9.2255l3.3522 0.08045z"/>
   </g>
   <path id="path89465" d="m58.603 41.087c0.25132 0.0016 0.45648-0.2009 0.45806-0.45222l0.25432-1.1833c0.0016-0.25132-0.2009-0.45648-0.45222-0.45806l-5.254-0.03414c-0.25132-0.0016-0.45648 0.2009-0.45806 0.45222l-0.25432 1.1833c-0.0016 0.25132 0.2009 0.45648 0.45222 0.45806l5.254 0.03414z"/>
   <path id="path89469" d="m65.256 41.079c0.25132 0.0016 0.45648-0.2009 0.45806-0.45222l0.25432-1.1833c0.0016-0.25132-0.2009-0.45648-0.45222-0.45806l-5.254-0.03414c-0.25132-0.0016-0.45648 0.2009-0.45806 0.45222l-0.25432 1.1833c-0.0016 0.25132 0.2009 0.45648 0.45222 0.45806l5.254 0.03414z"/>
   <path id="path89473" d="m71.907 41.071c0.25132 0.0016 0.45648-0.2009 0.45806-0.45222l0.25432-1.1833c0.0016-0.25132-0.2009-0.45648-0.45222-0.45806l-5.2542-0.03414c-0.25132-0.0016-0.45648 0.2009-0.45806 0.45222l-0.25432 1.1834c-0.0017 0.25132 0.2009 0.45648 0.45222 0.45806l5.2542 0.03398z"/>
   <path id="path89477" d="m78.56 41.063c0.25132 0.0016 0.45648-0.2009 0.45806-0.45222l0.25432-1.1833c0.0017-0.25132-0.2009-0.45648-0.45222-0.45806l-5.254-0.03414c-0.25132-0.0016-0.45648 0.2009-0.45806 0.45222l-0.25432 1.1833c-0.0016 0.25132 0.2009 0.45648 0.45222 0.45806l5.254 0.034z"/>
   <path id="path89479" d="m75.973 16.835 1.0385 1.4559 2.5976 1.2362c0.66276-0.12945 0.897-0.57108 0.89068-1.0129-0.0062-0.44163 0.05279-1.2732-0.10922-1.7411-0.16201-0.46771-0.75949-0.72804-1.4093-0.67651-0.64964 0.05137-2.8454 0.24468-3.0082 0.73831z"/>
   <path id="path89481" stroke-width=".039516" d="m29.627 17.491s0.05137 0.89005 0.10322 1.059c0 0-0.62403 0.6166-0.76739 1.2337l-0.3177-0.01312c-0.20801 0.28578-3.4235-0.1323-3.5597-0.27534-0.13641-0.14305-0.14858-1.2669 0.26744-1.5979 0.41602-0.33098 0.66955-0.64916 1.2414-0.71381 0.57155-0.06465 2.8647 0.11886 3.0334 0.30743z" stroke="#fff"/>
   <path id="path89483" fill="#fff" d="m26.009 17.807s-0.55243 0.42835-0.60475 0.98062c-0.05248 0.55211 2.7539 0.78146 3.0985 0.39848 0.34458-0.38314-2.1882-1.5283-2.4938-1.3791z"/>
   <g id="g63763" stroke="#000" fill="none">
    <path id="path89485" stroke-width=".23709" d="m13.807 19.37s0.51339-0.07429 0.67098-0.17814 0.91692-1.3489 0.91692-1.3489"/>
    <path id="path89489" stroke-width=".15806" d="m52.78 26.855s0.77814 2.0534 1.0498 3.7816l-9.8354-0.12376s-0.16691-2.8325-0.42614-3.6772l9.2117 0.01928z"/>
    <polygon id="polygon89493" points="438.07 140.3 436.41 165.37 490.74 164.84 487.72 140.5" transform="matrix(.15806 0 0 .15806 9.2894 4.5017)"/>
    <path id="path89495" stroke-width=".15806" d="m52.483 37.063c0.12392 0.02071 0.2412-0.06291 0.26191-0.18683l0.1342-1.5196c0.02071-0.12392-0.06291-0.2412-0.18683-0.26191l-6.5153 0.0313c-0.12392-0.02071-0.2412 0.06291-0.26191 0.18683l-0.1342 1.5196c-0.02071 0.12392 0.06291 0.2412 0.18683 0.26191l6.5153-0.03161z"/>
    <path id="path89497" stroke-width=".15806" d="m86.655 36.852c0.12392 0.02071 0.2412-0.06291 0.26191-0.18683l0.1342-1.5195c0.02071-0.12392-0.06291-0.2412-0.18683-0.26191l-5.4759 0.04505c-0.12392-0.02071-0.2412 0.06291-0.26191 0.18683l-0.1342 1.5195c-0.02071 0.12392 0.06291 0.2412 0.18683 0.26191l5.476-0.046z"/>
   </g>
   <path id="path89499" d="m38.542 34.488c0.06196 0.01027 0.1206-0.03145 0.13103-0.09342l0.22334-1.2144c0.01027-0.06196-0.03145-0.1206-0.09342-0.13103l-2.51-0.141c-0.06196-0.01043-0.1206 0.03145-0.13103 0.09342l-0.22334 1.2144c-0.01027 0.06196 0.03145 0.1206 0.09342 0.13103l2.5103 0.13973z" stroke="#000" stroke-width=".15806" fill="#fff"/>
   <g id="g63771" fill="none">
    <g id="g63773" stroke="#000">
     <g id="g63775" stroke-width=".079031">
      <path id="path89501" d="m44.212 18.209s7.3388 3.0715 8.6741 7.0611c-2.4674-3.9389-9.4158-6.9454-9.4158-6.9454"/>
      <path id="path89503" d="m60.413 17.636c3.4162 1.1328 6.221 3.5253 7.1678 6.0076 0 0-4.259-3.7578-8.9743-5.2684"/>
      <path id="path89505" d="m67.624 18.121c3.0658 0.83362 5.766 3.8498 7.1678 6.0076"/>
      <path id="path89507" d="m78.469 25.145c-0.065-2.014-4.051-4.524-8.987-6.632"/>
      <path id="path89509" d="m31.802 19.097s-1.2855 0.06971-0.24721 0.51955c8.4427 3.6568 10.027 4.2426 10.507 5.6852-0.24784 1.481 0.55527 4.8207 0.72393 5.2494 0.1685 0.42882-0.77988 0.35027-0.77988 0.35027s-3.9887-0.10669-4.7683-0.23709c-0.77941-0.13056-2.4432 0.71286-1.4167 0.80454s6.2104 0.2382 9.6404 0.33162c3.4301 0.09326 42.525 0.14652 42.525 0.14652"/>
      <path id="path89511" d="m32.738 19.254c6.5854 2.7851 10.456 4.5547 10.533 6.01l0.29779 1.5722"/>
      <path id="path89513" d="m87.432 25.203-8.9648-0.05817c-0.285-0.208-25.308-0.07-25.582 0.125-2.04-0.261-10.823 0.032-10.823 0.032-2.091-0.911-5.234-2.239-30.571-1.672"/>
      <path id="path89515" d="m76.172 18.751c8.7541 4.1898 10.027 4.7234 10.221 6.4385 0 0 0.33683 1.3385-0.01407 1.5201"/>
      <path id="path89517" d="m28.338 31.658c0.55875 0.01344 0.50706-0.6362-0.67508-0.75412-1.1823-0.11776-10.524 0.16154-11.161 0.13514-0.63668-0.0264-2.1963 0.67414-0.845 0.74005s12.681-0.12108 12.681-0.12108z"/>
      <line id="line89519" x2="28.973" y1="34.586" x1="15.668" y2="34.57"/>
      <line id="line89521" x2="28.881" y1="35.066" x1="15.667" y2="35.115"/>
      <path id="path89523" d="m28.189 40.688-9.4456-0.05864c-0.57171 0.06465-0.75333-0.28641-0.83094-0.7802s-0.67271-4.1191-0.67271-4.1191c-0.50643-0.32529-1.3091-4.6263-0.30838-4.8595-0.01201-1.3642-0.04758-6.4184 0.447-7.4575 0.49442-1.0391 0.7293-2.4422 1.3532-2.8186 0.62387-0.37635 1.0919-0.77877 1.0919-0.77877"/>
      <path id="path89525" d="m28.608 35.79-11.564 0.14795c-0.7146-0.03952 0.2706 3.1704 1.0762 3.145l9.9524-0.09705"/>
      <path id="path89527" d="m29.306 20.122c-0.35153 1.1431-0.05248 0.79252-0.5597 1.4289-0.50722 0.63636-0.80786 3.3906-0.93905 5.1315s-0.14589 4.2225-0.14589 4.2225c-0.80564 0.02545-0.97793 4.8846-0.01644 4.8852 0 0 0.10148 3.7029 0.30854 4.8595"/>
      <path id="path89529" d="m15.254 31.312s-0.65912-5.1585-1.8155-4.9515c-1.1565 0.20706-1.8092 4.5851-1.8092 4.5851"/>
      <line id="line89531" x2="11.837" y1="31.179" x1="11.11" y2="31.14"/>
      <line id="line89533" x2="11.797" y1="32.245" x1="10.771" y2="32.336"/>
      <line id="line89535" x2="9.6387" y1="35.207" x1="11.237" y2="35.18"/>
      <line id="line89537" x2="9.4571" y1="34.881" x1="11.211" y2="34.829"/>
      <path id="path89539" d="m24.768 7.5027s-1.1303 0.051212-1.3516 0.41476c-0.22113 0.3637-4.8584 5.6623-7.0366 10.922-0.40338 0.9743-0.24753 1.0004 0.8567 1.105 1.1044 0.1048 8.4451 0.29178 11.849 0.54089"/>
      <path id="path89541" d="m28.121 7.1023s-0.9743-0.40353-1.3903 0.16802c-0.41618 0.5714-4.37 6.4804-5.5175 12.378l0.97461-0.07729"/>
     </g>
     <path id="path89543" stroke-width=".47419" d="m88.077 32.363s-38.068 0.03857-41.901-0.0422c-3.833-0.081-11.316-0.372-11.316-0.372"/>
     <g id="g63799" stroke-width=".079031">
      <path id="path89545" d="m89.271 34.805-43.094 0.31929c-2.3942 0-10.125-0.25227-10.125-0.25227-0.46771-0.07824-0.31217 0.42851 0.38931 0.54595s9.5106 0.14953 9.5106 0.14953"/>
      <line id="line89547" x2="81.086" y1="35.534" x1="52.93" y2="35.359"/>
      <line id="line89549" x2="89.452" y1="35.147" x1="87.051" y2="35.158"/>
      <path id="path89551" d="m36.569 39.446s4.807 0.48414 7.2106 0.48572c2.4037 0.0016 7.3018-0.05991 8.1985-0.15032 0.89653-0.09025 0.76739-1.2337 1.7289-1.233l25.077 0.03035c1.2863-0.02513 0.66197 0.83204 1.8443 0.9498l7.2889 0.01802"/>
      <path id="path89553" d="m36.595 41.213s4.0927-0.0362 6.5352 0.21244c2.4425 0.24863 5.4958 0.19868 8.6789 0.33082 3.1832 0.13214 25.518-0.21607 28.26-0.31818 2.7416-0.10211 7.6659-0.31944 7.6659-0.31944"/>
      <path id="path89555" d="m16.377 42.317c1.4425-0.47972 3.1707-0.75143 5.7042-0.56776 2.5334 0.18367 5.7424 0.64063 5.7424 0.64063"/>
     </g>
     <path id="path89557" stroke-width=".15806" d="m35.796 30.664s-0.99769-4.0933-3.0503-4.2767c-2.0528-0.18335-3.1714 1.7128-3.3544 3.2849"/>
    </g>
    <path id="path89559" d="m34.627 30.468c-1.1951-0.5205-3.3259-0.23614-4.653 2.4264" stroke="#fff" stroke-linecap="round" stroke-width=".039516"/>
    <path id="path89561" d="m14.02 31.505c-0.54626 0.87013-1.1452 2.5328-1.393 4.0138" stroke="#fff" stroke-linecap="round" stroke-width=".039516"/>
   </g>
   <path id="path89565" fill="#fff" d="m32.811 43.79c1.0249-0.01691 1.8202-1.6761 1.7763-3.7053-0.04394-2.0294-0.91044-3.6607-1.9355-3.6437-1.025 0.01707-1.8202 1.6761-1.7763 3.7053 0.04394 2.0294 0.91044 3.6607 1.9355 3.6437z"/>
   <path id="path89567" fill="#fff" d="m32.732 40.115"/>
   <g id="g63812" stroke-width=".079031" stroke="#000">
    <path id="path89571" fill="none" d="m32.525 42.345c0.59479-0.01 1.0562-0.9822 1.0307-2.1715-0.02561-1.1893-0.52824-2.1454-1.123-2.1353-0.59479 0.01012-1.0562 0.9822-1.0307 2.1715 0.02561 1.1893 0.5284 2.1454 1.123 2.1353z"/>
    <path id="path89573" fill="none" d="m32.477 40.192"/>
    <path id="path89577" fill="#fff" d="m32.431 38.039"/>
    <path id="path89579" fill="#fff" d="m32.442 38.542c0.1391-0.0024 0.24705-0.22982 0.2412-0.50817-0.006-0.27819-0.1236-0.50201-0.26286-0.49964-0.1391 0.0024-0.24705 0.22982-0.2412 0.50817 0.006 0.27819 0.12376 0.50185 0.26286 0.49964z"/>
   </g>
   <g id="g63818" stroke-width=".079031" stroke="#000" fill="none">
    <path id="path89583" d="m32.438 38.297c0.07129-0.0011 0.12677-0.11792 0.1236-0.26049-0.003-0.14273-0.06338-0.25748-0.13483-0.25622-0.07129 0.0011-0.12677 0.11792-0.1236 0.26049 0.0032 0.14257 0.06354 0.25732 0.13483 0.25622z"/>
    <path id="path89585" d="m32.431 38.039"/>
    <path id="path89589" d="m32.501 41.269c0.29732-0.0049 0.52809-0.4911 0.51528-1.0857-0.0128-0.59463-0.26412-1.0726-0.56144-1.0676-0.29732 0.0051-0.52809 0.4911-0.51528 1.0857 0.0128 0.59463 0.26412 1.0726 0.56144 1.0676z"/>
    <path id="path89591" d="m32.477 40.192"/>
   </g>
   <g id="g63824" stroke-width=".079031" stroke="#000" fill="#fff">
    <path id="path89595" d="m31.439 39.544"/>
    <path id="path89597" d="m31.682 39.696c0.0373-0.26539-0.04126-0.54848-0.17545-0.63225-0.1342-0.08377-0.27329 0.06338-0.31059 0.32877s0.04125 0.54848 0.17545 0.63225c0.1342 0.08393 0.27329-0.06338 0.31059-0.32877z"/>
    <path id="path89601" d="m31.883 41.945"/>
    <path id="path89603" d="m32.022 41.536c-0.11618-0.1617-0.27266-0.10906-0.34963 0.11744-0.07698 0.2265-0.04521 0.54121 0.07081 0.7029 0.11602 0.1617 0.27266 0.10906 0.34948-0.11744 0.07713-0.2265 0.04536-0.54121-0.07065-0.7029z"/>
    <path id="path89607" d="m33.147 41.925"/>
    <path id="path89609" d="m32.991 41.518c-0.10906 0.16549-0.1274 0.48098-0.04062 0.7048 0.08662 0.22382 0.24531 0.27092 0.35438 0.10543 0.109-0.165 0.127-0.481 0.04-0.704-0.086-0.224-0.245-0.271-0.354-0.106z"/>
    <path id="path89613" d="m33.487 39.509"/>
    <path id="path89615" d="m33.252 39.669c0.04868 0.26396 0.19394 0.40638 0.3245 0.31818s0.19679-0.37366 0.1481-0.63762c-0.04868-0.26396-0.19394-0.40638-0.32434-0.31818s-0.19695 0.37366-0.14826 0.63762z"/>
   </g>
   <g id="g63834" stroke-width=".079031" stroke="#000" fill="none">
    <path id="path89619" d="m31.564 39.622c0.01913-0.13609-0.02102-0.28135-0.08994-0.32419-0.06891-0.04299-0.1402 0.03256-0.15933 0.16865s0.02118 0.28119 0.08994 0.32419c0.06892 0.04283 0.1402-0.03256 0.15933-0.16865z"/>
    <path id="path89621" d="m31.439 39.544"/>
    <path id="path89625" d="m31.954 41.735c-0.05943-0.08282-0.13988-0.05595-0.17924 0.06022-0.03936 0.11618-0.02323 0.27756 0.03635 0.36038 0.05943 0.08298 0.13973 0.05595 0.17924-0.06006 0.03952-0.11633 0.02323-0.27772-0.03635-0.36054z"/>
    <path id="path89627" d="m31.883 41.945"/>
    <path id="path89631" d="m33.068 41.716c-0.05595 0.08488-0.06528 0.24674-0.02086 0.36133 0.04442 0.11475 0.12582 0.13894 0.18177 0.05422s0.06528-0.24674 0.02087-0.36149c-0.04442-0.11475-0.12582-0.13894-0.18177-0.05406z"/>
    <path id="path89633" d="m33.147 41.925"/>
    <path id="path89637" d="m33.367 39.592c0.02497 0.1353 0.09942 0.20833 0.16628 0.16312s0.101-0.19157 0.07603-0.32703c-0.02497-0.1353-0.09942-0.20833-0.16644-0.16312s-0.101 0.19173-0.07587 0.32703z"/>
    <path id="path89639" d="m33.487 39.509"/>
    <path id="path89643" d="m32.537 42.991c0.77292-0.01296 1.3726-1.2765 1.3396-2.822-0.03319-1.5455-0.68662-2.7881-1.4594-2.7751-0.77292 0.01312-1.3726 1.2765-1.3394 2.822 0.03288 1.5457 0.68631 2.7881 1.4592 2.7751z"/>
    <path id="path89645" d="m32.477 40.192"/>
   </g>
   <path id="path89649" fill="#fff" d="m13.92 43.387c0.40575-0.05485 0.79964-1.577 0.87993-3.4001 0.0803-1.8229-0.18351-3.2564-0.58926-3.2016-0.40559 0.05485-0.79964 1.577-0.87993 3.3999-0.0803 1.8229 0.18367 3.2566 0.58926 3.2017z"/>
   <path id="path89651" fill="#fff" d="m14.066 40.086"/>
   <g id="g63848" stroke-width=".039516" stroke="#000">
    <path id="path89655" fill="none" d="m13.878 42.138c0.23536-0.0324 0.46407-0.93336 0.51054-2.0124 0.04647-1.0791-0.10653-1.9274-0.34189-1.895s-0.46407 0.93352-0.51054 2.0124 0.10653 1.9274 0.34189 1.895z"/>
    <path id="path89657" fill="none" d="m13.962 40.184"/>
    <path id="path89661" fill="#fff" d="m14.047 38.231"/>
    <path id="path89663" fill="#fff" d="m14.027 38.687c0.05516-0.0076 0.10859-0.21844 0.1195-0.47087 0.01091-0.25242-0.02482-0.45111-0.07998-0.44336-0.05516 0.0076-0.10859 0.21844-0.1195 0.47087s0.02497 0.45095 0.07998 0.44336z"/>
    <path id="path89667" fill="none" d="m13.92 41.161c0.11776-0.01628 0.23204-0.46676 0.25527-1.0062 0.02323-0.53947-0.05311-0.96371-0.17086-0.94743-0.11776 0.01628-0.23204 0.46676-0.25527 1.0062-0.02339 0.53947 0.05327 0.96355 0.17086 0.94743z"/>
    <path id="path89669" fill="none" d="m13.962 40.184"/>
   </g>
   <g id="g63856" stroke-width=".039516" stroke="#000" fill="#fff">
    <path id="path89673" d="m13.583 39.637"/>
    <path id="path89675" d="m13.672 39.765c0.02734-0.24247 0.0098-0.49647-0.0392-0.56729-0.049-0.07081-0.11096 0.06844-0.1383 0.31075-0.02735 0.24247-0.01 0.49647 0.0392 0.56729 0.04916 0.07081 0.11096-0.06828 0.1383-0.31075z"/>
    <path id="path89679" d="m13.643 41.8"/>
    <path id="path89681" d="m13.718 41.422c-0.03809-0.14226-0.10242-0.08836-0.14368 0.12028-0.04125 0.20864-0.04363 0.49331-0.0055 0.63557 0.03825 0.14226 0.10242 0.08836 0.14368-0.12028 0.04125-0.20864 0.04378-0.49347 0.0055-0.63557z"/>
    <path id="path89685" d="m14.144 41.732"/>
    <path id="path89687" d="m14.102 41.37c-0.0509 0.15458-0.07318 0.44178-0.04963 0.64158 0.02355 0.19979 0.08393 0.23646 0.13498 0.08203 0.0509-0.15458 0.07318-0.44178 0.04963-0.64158-0.024-0.2-0.084-0.236-0.135-0.082z"/>
    <path id="path89691" d="m14.394 39.525"/>
    <path id="path89693" d="m14.293 39.68c0.0066 0.23773 0.05722 0.36149 0.11301 0.27629 0.0558-0.08535 0.09547-0.3471 0.08899-0.58483-0.0066-0.23773-0.05722-0.36149-0.11301-0.27629-0.0558 0.0852-0.09563 0.3471-0.08899 0.58483z"/>
   </g>
   <path id="path89697" d="m13.853 42.724c0.30601-0.0422 0.60301-1.2131 0.66355-2.6153 0.06054-1.4023-0.1383-2.505-0.44431-2.4628-0.30585 0.0422-0.60301 1.2131-0.66355 2.6155-0.06054 1.4022 0.1383 2.5047 0.44431 2.4626z" stroke="#000" stroke-width=".039516" fill="none"/>
   <path id="path89699" d="m13.962 40.184" stroke="#000" stroke-width=".039516" fill="none"/>
  </g>
 </g>
</svg>
