<?xml version="1.0" encoding="UTF-8" standalone="no"?>
<!-- Created with Inkscape (http://www.inkscape.org/) -->
<svg id="svg2" xmlns:rdf="http://www.w3.org/1999/02/22-rdf-syntax-ns#" xmlns="http://www.w3.org/2000/svg" height="54" width="99" version="1.1" xmlns:cc="http://creativecommons.org/ns#" xmlns:dc="http://purl.org/dc/elements/1.1/">
 <metadata id="metadata7">
  <rdf:RDF>
   <cc:Work rdf:about="">
    <dc:format>image/svg+xml</dc:format>
    <dc:type rdf:resource="http://purl.org/dc/dcmitype/StillImage"/>
    <dc:title/>
   </cc:Work>
  </rdf:RDF>
 </metadata>
 <g id="g13326">
  <rect id="rect2990" opacity="0" height="54" width="99" y="0" x="0"/>
  <path id="path89944" d="m46.344 18.764c0.75508-0.12882 1.5566-0.25238 2.4078-0.3693 0.80084 0 1.8877 1.0869 1.7733 1.6589 0.68643-0.97245 3.2606-4.8622 2.0593-6.8071-1.201-1.944-5.148-4.5181-9.266-4.1177-0.63-1.3156-1.545-2.9173-3.204-3.6038-0.514-0.286-2.173-1.3728-4.175-0.8008-2.003 0.572-2.632 1.6017-3.49 3.8326 0.51482 0.80084 0.74364 2.4597 0.68643 3.7754-1.5445 0.28601-3.0317 3.1461-3.5466 7.8368-0.0572 1.2013-0.45762 3.7182 2.7457 5.8919 0.34322-0.45762 0.68643-0.68643 0.97244-0.85804s0.91524-0.80084 0.51482-1.6017c0.38257-0.31084 1.0149-0.99132 2.4733-1.7951 0.90163 2.7676 3.2469 8.259 5.5922 9.6319 0.85804 0.40042 1.6589 0 2.2309-0.85804 0.57203-0.85804 2.1737-3.3178 2.4025-5.3198 0.22881-2.0021 0.27537-5.2677-0.17687-6.495z" stroke="#000" stroke-width=".11441" fill="#fff"/>
  <g stroke="#000" stroke-width=".11441" fill="none">
   <path id="path89946" d="m32.449 8.5563c0.62923 0.57203 1.3157 0.97245 1.7161 1.7733 0.0572-0.97245-0.22881-3.661 1.2013-4.3474 1.4301-0.68643 3.4894-0.40042 4.1186 2.0021 0.0572-0.68643 0.97245-2.4597 1.9449-1.6017"/>
   <path id="path89948" d="m33.822 23.6c-0.68643-0.85804-1.7733-2.0021-1.0296-3.375-0.74364-1.1441-3.2033-5.4915 0.34322-7.894 1.3157 0.80084 8.752 1.0296 10.182-3.2034 1.4301 0 6.8071 0.28601 6.0635 5.2054 0.85804-1.3729 4.0042-2.3453 3.2034 1.7733"/>
   <circle id="circle89952" cy="15.077" cx="39.828" r="1.2134"/>
   <path id="path89954" d="m39.828 15.077"/>
   <line id="line89956" x1="39.313" x2="40.4" y1="16.164" y2="14.048"/>
   <line id="line89958" x1="38.798" x2="40.8" y1="14.505" y2="15.764"/>
   <path id="path89960" d="m33.135 12.332"/>
   <path id="path89962" d="m36.295 21.805c-0.7-1.637-1.958-5.012-3.16-9.473"/>
   <path id="path89964" d="m46.344 18.764c-0.224-1.284-2.112-8.263-3.027-9.6357"/>
  </g>
  <g stroke="#000" fill="#fff">
   <path id="path89966" d="m36.295 21.805c1.7766-0.9792 4.7789-2.1412 10.049-3.041" stroke-width=".11441"/>
   <g stroke-width=".057203">
    <path id="path89968" d="m43.489 35.727c-1.488-0.801-6.922-3.947-11.04-10.01l-0.28601 0.22881c0.97244 1.3157 6.2923 8.18 11.326 9.7817z"/>
    <path id="path89970" d="m43.546 34.126c-1.945-2.06-6.121-6.407-10.754-13.901l-0.22881 0.22881c0.97244 1.6589 7.1503 10.869 10.983 13.671z"/>
    <path id="path89972" d="m44.003 33.21c-3.432-4.404-9.613-22.031-10.239-23.453l0.286-0.1141c1.3729 3.7754 7.0931 18.934 9.9533 23.568z"/>
    <path id="path89974" d="m39.256 7.355c0.45762 1.8305 4.6906 23.968 5.0338 25.913-0.172-2.689-4.462-25.455-4.691-26.027l-0.343 0.114z"/>
    <path id="path89976" d="m45.662 35.213c0.45762-1.7161 4.4618-14.815 4.7478-15.559l0.34322 0.0572c-1.086 3.661-3.832 12.241-5.091 15.502"/>
    <path id="path89978" d="m45.434 34.011c-0.0572-1.7161 0.1144-8.3516 0.51482-9.7245s2.5741-8.2944 3.4894-10.468l0.34322 0.1144c-0.62923 1.6589-2.8361 7.247-3.4322 10.525-0.45762 2.5169 0.0572-2.1737-0.91524 9.5528z"/>
   </g>
   <path id="path89980" d="m46.864 37.901c0.22881-1.0869 0.97245-5.6631 8.2944-8.9808 0.0572-1.8877-1.3157-6.1207-2.2309-4.7478-0.40042-1.2585 0-3.7754 2.4597-4.3474 2.4597-0.57203 6.4067 0.0572 9.8961 5.7203 2.8029-0.62923 4.9194 0.57203 5.4915 1.0296 0.57203 0.45762 4.4618 2.4597 2.7457 5.6631-0.45762 1.0868-0.97244 2.4025-2.1165 2.6885-1.1441 0.28601-2.8029 0.68643-3.3178 0.80084 0.40042 1.1441 0.62923 2.5741-0.17161 3.7754s-1.7161 3.1461-6.7499 3.5466c-5.034 0.401-4.118-2.402-4.176-3.775-1.144 0.629-10.696 4.633-10.124-1.373z" stroke-width=".11441"/>
  </g>
  <g stroke="#000" stroke-width=".11441" fill="none">
   <path id="path89982" d="m55.158 28.92c0.85804 1.1441 2.8029 4.0614 1.8305 10.354 1.3729-0.17161 9.5528-2.0021 11.097-3.5466-0.0572-1.9449-1.6589-8.9808-2.8029-10.182-1.9449 0.22881-8.8664 2.2309-10.125 3.375z"/>
   <path id="path89984" d="m54.243 20.34c0.97244-0.57203 3.661-0.28601 4.6334 2.6885 0.28601-0.85804 2.2881-2.9173 5.5487 1.3157"/>
   <path id="path89986" d="m65.798 25.545c1.1441-0.0572 4.3474 0.62923 3.661 2.8601 1.5445-0.28601 5.4343 0.1144 3.7754 4.1758"/>
   <path id="path89988" d="m66.541 41.219c-0.97245 0.1144-1.3157-0.57203-1.7733-1.0869-0.45762-0.51482-2.4025-1.6589-3.5466-1.2585-1.1441 0.40042-2.7457 1.1441-3.4894 3.5466"/>
   <path id="path89990" d="m70.546 35.098c0.68643-0.22881 1.2585-0.80084 1.0868-1.5445 0.51482-0.22881 1.2013-0.1144 1.6017-0.97244"/>
  </g>
  <g stroke="#000" fill="#fff">
   <polygon id="polygon89992" transform="matrix(.11441 0 0 .11441 24.984 4.5027)" points="220.25 336.43 297.75 157.93 295.25 156.43 217.75 334.93" stroke-width=".5"/>
   <polygon id="polygon89994" transform="matrix(.11441 0 0 .11441 24.984 4.5027)" points="229.25 297.93 246.75 168.93 243.75 168.93 226.25 297.93" stroke-width=".5"/>
   <path id="path89996" d="m69.573 27.948c-1.1441 1.2585-3.2606 4.3474-17.733 11.784l0.1144 0.28601c-0.63564 0.27549 14.422-7.1588 17.962-11.841l-0.34322-0.22881z" stroke-width=".057203"/>
   <path id="path89998" d="m71.632 33.554v0.45762c-2.2309 1.0296-4.805 3.2606-19.964 7.4936l-0.11441-0.34322c5.8347-1.4301 16.76-5.3198 20.078-7.608z" stroke-width=".057203"/>
  </g>
  <path id="path90000" d="m68.2 38.931c-0.68643 0.45762-2.4025 0.91524-3.4322 1.2013" stroke="#000" stroke-width=".11441" fill="none"/>
  <polygon id="polygon90002" transform="matrix(.11441 0 0 .11441 24.984 4.5027)" stroke="#000" points="235.25 330.43 235.25 332.93 351.25 312.93 350.75 309.93" stroke-width=".5" fill="#fff"/>
  <g fill="none">
   <g stroke="#000">
    <g stroke-width=".11441">
     <path id="path90004" d="m61.164 30.751c0.74363-0.28601 1.6017-0.28601 1.8305 0.40042 0.22881 0.68643 0.34322 0.97244-0.40042 1.3157-0.74364 0.34322-1.4301 0.28601-1.6589-0.28601-0.22881-0.57203-0.34322-1.2013 0.22881-1.4301z"/>
     <line id="line90006" x1="60.821" x2="62.938" y1="30.98" y2="32.295"/>
     <line id="line90008" x1="62.823" x2="61.279" y1="30.865" y2="32.581"/>
    </g>
    <polyline id="polyline90012" transform="matrix(.11441 0 0 .11441 24.984 4.5027)" points="154.48 228.51 159.1 106.91 165.11 227.59" stroke-width="4"/>
    <polyline id="polyline90014" transform="matrix(.11441 0 0 .11441 24.984 4.5027)" points="216.89 256.25 233.08 106.91 229.38 256.25" stroke-width="4"/>
    <g stroke-width=".45762">
     <line id="line90016" y2="27.498" x2="46.835" y1="18.163" x1="43.291"/>
     <line id="line90018" y2="18.056" x2="51.543" y1="27.498" x1="47.285"/>
     <line id="line90020" y2="27.498" x2="46.835" y1="30.486" x1="45.778"/>
     <line id="line90022" y2="33.343" x2="48.528" y1="27.498" x1="47.285"/>
     <line id="line90024" y2="27.524" x2="50.432" y1="27.472" x1="43.714"/>
    </g>
   </g>
   <g stroke="#fff">
    <polyline id="polyline90028" transform="matrix(.11441 0 0 .11441 24.984 4.5027)" points="154.48 228.51 159.1 106.91 165.11 227.59" stroke-width="2"/>
    <polyline id="polyline90030" transform="matrix(.11441 0 0 .11441 24.984 4.5027)" points="216.89 256.25 233.08 106.91 229.38 256.25" stroke-width="2"/>
    <g stroke-width=".22881">
     <line id="line90032" y2="27.498" x2="46.835" y1="18.163" x1="43.291"/>
     <line id="line90034" y2="18.056" x2="51.543" y1="27.498" x1="47.285"/>
     <line id="line90036" y2="27.498" x2="46.835" y1="30.486" x1="45.778"/>
     <line id="line90038" y2="33.343" x2="48.528" y1="27.498" x1="47.285"/>
     <line id="line90040" y2="27.524" x2="50.432" y1="27.472" x1="43.714"/>
    </g>
   </g>
  </g>
  <path id="path90044" fill="#fff" d="m35.866 39.751c-0.12539 0.01053-0.23098 0.02631-0.27572 0.04988-0.33612 0.17687-0.1946 1.2734-0.1946 1.2734-1.2467 1.4961-3.0337 3.6984-3.1008 4.1182h-6.1359s0.07928-0.34379-0.21165-0.23808-0.52901 0.60829-0.76697 1.0843c-0.23808 0.47616 0 2.1158 0 2.3275 0 0.21154 0.31736 0.07928 0.50258 0.02643 0.18522-0.05286 0.2645-0.05286 0.29093-0.2645l0.02643-0.60829 6.0565-0.08008-0.02643 0.000686s-0.52901 1.1108 1.6926 1.1108c1.4017 0 3.0679-0.13225 3.9935-0.42318 0.9649-0.30329 1.5461-0.35523 3.1209-0.81994l2.3009-0.02643s-0.02643 0.74055 0 0.97862c0.02643 0.23808 0.34379 0.07928 0.52901 0 0.18511-0.07928 0.2645-0.10582 0.2645-0.37022v-1.1372s3.7026-0.89923 4.602-1.1902c0.79317-0.25661 1.792-0.26634 2.4523-0.26496l-0.0191-0.0524c0.29093-0.02643 2.8298-0.13225 3.3588-0.18511 0.52901-0.05286 0.71412-0.15868 0.68769-0.66115-0.02643-0.50258 0-3.1737 0-3.8086 0-0.63472-0.02643-0.89923-0.52901-0.92565l-4.6812 0.13225s0.01979-0.26874 0.05103-0.67625c0.08821-1.1529 0.26748-3.4165 0.34562-3.8464 0.07802-0.42913 0.35752-1.1892 0.6155-1.5905l-0.03981-0.02437c-0.33921-0.15605-0.96226-0.26313-1.264-0.26313-0.39676 0-0.58186 0.15868-0.58186 0.15868-0.37022-0.37033-1.0544-1.5047-1.4511-1.5576 0 0 0.44607-0.34665 0.44607-0.87554 0-0.71412-0.47604-1.2166-1.6926-1.2166h-3.253c-0.74054 0-1.2166 0.44961-1.2166 1.0843 0 0-0.13225 0.60829 0.37033 1.0051-0.99258 0.07631-1.6423 0.7894-1.8077 1.4087l0.11555-0.0069c-0.15868 0.15868-0.15868 0.68758-0.15868 0.68758s0.0794-0.07928-0.21154-0.13225c-0.29093-0.05297-0.47604 0.13225-0.50258 0.97862-0.02643 0.84626 0 1.4281-0.47604 1.9306-0.29826 0.31484-1.243 1.1108-1.4281 1.4547-0.18511 0.3439-1.0843 1.4811-1.0843 1.4811-0.21165-0.07928-0.71412-0.02643-0.71412-0.02643l0.000801-0.01956z"/>
  <path id="path90046" d="m35.86 39.77s0.50247-0.05286 0.71412 0.02643c0 0 0.89923-1.1372 1.0843-1.4811 0.18511-0.3439 1.1299-1.1397 1.4281-1.4547 0.47604-0.50247 0.44961-1.0843 0.47604-1.9306 0.02643-0.84637 0.21165-1.0315 0.50258-0.97862 0.29093 0.05286 0.21154 0.13225 0.21154 0.13225s0-0.5289 0.15868-0.68758c0 0-1.3753-0.02643-1.772 0.02643-0.39664 0.05286-0.8728 0.21165-1.1372 0.21165-0.2645 0-0.50258 0.05286-0.50258 0.05286-0.21154 0-0.42318 0.84626-0.42318 0.84626-0.76697 0.44973-0.81983 3.7293-0.74043 5.2367z"/>
  <path id="path90048" d="m49.848 39.121c0.08821-1.1529 0.26748-3.4165 0.34562-3.8464 0.07802-0.42913 0.35752-1.1892 0.6155-1.5905 0.09175-0.14278 0.18088-0.24002 0.2573-0.26084 0 0 1.0579-0.15868 2.7505-0.21154s3.1209 0.18511 3.2001 0.42319c0.0794 0.23808 0.42318 0.74054 0.66115 1.7455 0.23796 1.0049 0.50258 7.4053 0.21165 9.0187-0.11418 0.63323-0.66115 1.1108-0.7934 1.2166-0.13225 0.10582 0.05285 0.21165-0.47616 0.29093l-5.0779 0.10582c-0.44961 0-0.58186-0.76697-0.58186-0.76697 0.29093-0.02643 2.8299-0.13225 3.3588-0.18511s0.71412-0.15868 0.68758-0.66115c-0.02643-0.50258 0-3.1737 0-3.8086 0-0.63472-0.02643-0.89923-0.52901-0.92565l-4.6812 0.13225c0.000229 0 0.02002-0.26874 0.05125-0.67625z"/>
  <path id="path90050" d="m43.001 47.281-2.3343 0.02643c-0.0096 0.652-0.03855 2.063 1.3693 2.063 0.98755 0 0.96501-2.0894 0.96501-2.0894z"/>
  <path id="path90052" d="m40.704 44.901 2.191 0.02643s0.15868-1.3753-1.2166-1.2696c-0.8212 0.06327-0.97439 1.2431-0.97439 1.2431z"/>
  <path id="path90054" d="m27.926 45.192 2.3803-0.02643c-0.10582-0.81994-0.42319-1.4547-1.2166-1.4017-0.7934 0.05286-1.1373 0.8728-1.1637 1.4281z"/>
  <path id="path90056" d="m27.979 47.519h2.3803c0 0.92565 0.05286 1.9836-1.243 1.9836s-1.1373-1.9838-1.1373-1.9838z"/>
  <path id="path90058" d="m40.302 33.476c0.13225-0.63472 0.7934-1.4017 1.8249-1.481-0.50258-0.39676-0.37033-1.0051-0.37033-1.0051 0-0.63472 0.47604-1.0843 1.2166-1.0843h3.253c1.2166 0 1.6926 0.50247 1.6926 1.2166 0 0.52901-0.44607 0.87554-0.44607 0.87554 0.39676 0.05286 1.0808 1.1873 1.4511 1.5576 0 0 0.18511-0.15868 0.58187-0.15868s1.3488 0.18511 1.4811 0.42318" stroke="#000" stroke-width=".17161" fill="none"/>
  <path id="path90060" d="m35.78 14.195h23.856c0.31736-0.74055 0.68769-0.95208 0.74055 0s0.05286 3.3324 0 3.9142c-0.05286 0.58186-0.68769 1.2696-0.68769 0.68769 0-0.58186-0.05286-2.063-0.05286-2.063h-24.014c-0.10582 1.6926-0.2645 3.0679-0.47604 3.3324-0.21165 0.2645-0.52901 0.21165-0.52901-0.21154 0-0.42318-0.04542-4.8111 0.05286-5.1308 0.21154-0.68769 1.0579-1.3753 1.0579-1.1108 0.000114 0.58427 0.05297 0.58187 0.05297 0.58187z" stroke="#000" stroke-width=".17161" fill="#fff"/>
  <path id="path90062" d="m34.939 16.084s-0.02574 0.54056 0.46334 0.59205l24.233 0.05846v-0.77921l-24.697 0.12871z"/>
  <path id="path90064" d="m25.492 46.947c-0.20593 0.12871-0.17744 0.55201 0.50327 0.57203l6.0301-0.07928s0.57111-0.38978 2.3215-0.41552 1.8019 0.33464 3.0117 0.33464l5.7748-0.07791v-0.59148l-17.642 0.25741z"/>
  <g stroke="#000" stroke-width=".057203" fill="none">
   <path id="path90066" d="m25.44 47.128c-0.051-0.361-0.091-1.22 0.714-1.936"/>
   <path id="path90068" d="m32.29 45.192s0.25512 0.0049 0.40969 0.51974c0.15445 0.51482 0.02574 0.54056 0.64353 0.56631 0.61779 0.02574 1.2356 0 1.6474-0.02574 0.41186-0.02574 0.97817-0.61779 1.1841-0.82372s0.48908-0.46334 0.84946-0.4376l6.2831-0.0635c0.25501-0.27114 0.58964-0.60578 0.58964-0.06521l0.02997 1.8901"/>
   <path id="path90070" d="m43.307 44.928c-0.23407 0.44961-0.19083 1.505-0.19952 1.9169"/>
   <path id="path90072" d="m33.034 47.179c0.36038 0.18019 1.4672 0.20593 2.7286-0.05148"/>
   <path id="path90074" d="m32.025 47.44c0.3137 0.02208 0.25535 0.72945 0.72556 0.79432 0.7465 0.10296 3.2691-0.02574 4.0671-0.23167 0.79798-0.20593 3.1662-0.48908 3.1662-0.48908"/>
   <path id="path90076" d="m47.989 34.179c0.20593-0.18019 0.36038-0.23167 0.48908 0.20593 0.12871 0.4376 0.41186 1.7247 0.36038 3.6295l-9.8845 6.9501"/>
   <path id="path90078" d="m49.74 39.817s-1.5445 1.3128-1.596 2.0593c-0.05148 0.74649-0.06578 1.6986-0.05148 2.3424 0.02574 1.1584 0.61779 1.2871 0.61779 1.2871"/>
   <line id="line90080" y2="44.939" y1="41.619" x2="39.907" x1="48.222"/>
   <path id="path90082" d="m37.024 44.991c0.20593-0.56631 2.1365-2.085 2.1365-2.085l8.3905-6.2557c0.61779-0.66927 0.7465-1.4672 0.4376-2.4712 0 0-2.2137 0.38612-2.9602 0.38612s-3.7067 0.07722-4.1701 0c-0.46334-0.07722-0.66927-0.59205-0.66927-0.59205"/>
   <path id="path90084" d="m47.32 34.334c0.02574 0.64353 0.23167 1.4158-0.15445 1.7247-0.38612 0.30889-1.1069 0.95242-1.8791 1.0296-0.77224 0.07722-4.2473-0.07722-4.7106-0.15445-0.46334-0.07722-0.72075-0.36038-0.72075-1.0554 0-0.69501 0.05148-1.8791 0.05148-1.8791"/>
  </g>
  <path id="path90086" stroke-width=".057203" stroke="#000" d="m40.782 34.488c0.10296-0.90094 0.41186-2.2395 2.6513-2.2395 2.2395 0 2.6256 0.84946 2.78 2.188l-0.51482 0.07722s0.23293-1.9048-2.2137-1.9048c-2.0336 0-2.2652 1.7676-2.2652 1.9306l-0.4376-0.05148z"/>
  <g stroke="#000" stroke-width=".057203" fill="none">
   <path id="path90088" d="m42.127 31.994c0.94522-0.18293 3.4537-0.14495 4.0084 0.48634 0.7465 0.84946 0.69501 1.8791 0.69501 1.8791"/>
   <line id="line90090" y2="40.718" y1="38.015" x2="48.788" x1="48.839"/>
   <path id="path90092" d="m47.473 31.997c-0.436 0.149-1.543 0.071-1.543 0.071l-1.0039-0.05148"/>
   <circle id="circle90096" cy="30.962" cx="42.893" r=".83722"/>
   <path id="path90098" d="m42.893 30.962"/>
   <circle id="circle90102" cy="30.962" cx="44.875" r=".83722"/>
   <path id="path90104" d="m44.875 30.962"/>
   <circle id="circle90108" cy="30.962" cx="46.754" r=".83722"/>
   <path id="path90110" d="m46.754 30.962"/>
  </g>
  <rect id="rect90114" height=".20593" width="5.7918" stroke="#000" y="30.833" x="41.914" stroke-width=".057203" fill="#fff"/>
  <path id="path90116" d="m44.81 30.936" stroke="#000" stroke-width=".057203" fill="#fff"/>
  <g stroke="#000" stroke-width=".057203" fill="none">
   <line id="line90118" y2="43.652" y1="37.062" x2="35.531" x1="41.966"/>
   <path id="path90120" d="m41.657 34.591s0.36038-1.6217 1.8276-1.6217 1.6989 1.596 1.6989 1.596"/>
   <path id="path90124" d="m43.807 34.515c0.13511 0 0.2446-0.10949 0.2446-0.24448 0-0.13511-0.10949-0.2446-0.2446-0.2446h-0.72075c-0.13511 0-0.2446 0.10949-0.2446 0.2446 0 0.135 0.10949 0.24448 0.2446 0.24448h0.72075z"/>
   <path id="path90126" d="m43.446 34.27"/>
  </g>
  <path id="path90128" d="m48.813 37.501 0.84946 0.56631c0.30889 0.28315 0.66927 0.23167 0.84946 0.15445s1.2871-0.72075 1.2871-0.72075c0.28315-0.23167 0.12871-0.97816-0.07722-1.1841-0.20593-0.20593-1.1584-0.7465-1.1584-0.7465-0.25741-0.10296-1.7761 0.48908-1.7761 0.48908 0.10296 0.72075 0.02574 1.4415 0.02574 1.4415z" stroke="#000" stroke-width=".057203" fill="#fff"/>
  <path id="path90130" d="m50.758 33.689c0.38612 0.41186 1.0151 1.649 0.60326 2.3183l-0.69501-0.38612c-0.12871-0.12871-0.54217 0-0.54217 0s0.02574-0.60086 0.12871-0.90986c0.10296-0.30878 0.50521-1.0223 0.50521-1.0223z" stroke="#000" stroke-width=".057203" fill="#fff"/>
  <g stroke="#000" fill="none">
   <g stroke-width=".057203">
    <path id="path90132" d="m48.839 37.217 0.95242 0.69501c0.20593 0.12871 0.4376 0.20593 0.69501 0.07722l1.2098-0.64353s0.20593-0.10296 0.25741-0.23167"/>
    <path id="path90134" d="m49.019 36.008c0.20593-0.02574 0.33464 0.05148 0.56631 0.18019s0.77224 0.4376 0.82372 0.66927-0.20593 1.0554-0.20593 1.0554"/>
    <line id="line90136" y2="36.368" y1="36.78" x2="51.593" x1="50.538"/>
    <line id="line90138" y2="36.522" y1="37.037" x2="51.696" x1="50.538"/>
    <path id="path90140" d="m46.317 32.12s0.84946 0.82372 1.1584 1.2098c0.30889 0.38612 0.28315 0.61779 0.18019 0.90094"/>
    <path id="path90142" d="m47.423 34.257c-0.051-0.669-0.849-1.879-1.544-2.008"/>
    <path id="path90144" d="m46.78 32.12 1.1069 1.2098c0.25741 0.30889 0.28315 0.56631 0.18019 0.79798"/>
    <path id="path90146" d="m47.243 32.069 1.004 1.158c0.23167 0.28315-0.02574 0.82372-0.02574 0.82372"/>
    <path id="path90148" d="m48.865 33.588c-0.25741 0.07722-0.56631 0.4376-0.56631 0.4376"/>
    <path id="path90150" d="m48.685 35.158s0.95242 0.30889 0.95242 0.61779"/>
    <path id="path90152" d="m48.401 34.154c0.59205-0.30889 1.4158-0.79798 1.9048-0.36038 0.48908 0.4376 0.8752 1.0039 0.84946 1.39-0.02574 0.38612-0.28315 0.97817-0.28315 0.97817"/>
    <path id="path90154" d="m48.504 34.437c0.82372-0.18019 1.5702-0.48908 1.8019-0.10296 0.23167 0.38612 0.48908 1.1326 0.28315 1.8791"/>
    <path id="path90156" d="m48.607 34.9c0.77224-0.18019 0.8752-0.66927 1.1841-0.15445 0.30889 0.51482 0.46334 1.5445 0.46334 1.5445"/>
   </g>
   <polyline id="polyline90158" transform="matrix(.11441 0 0 .11441 24.984 4.5027)" points="208.52 303.28 214.14 298.1 208.52 294.28" stroke-width=".5"/>
   <line id="line90160" stroke-width=".057203" y2="38.633" y1="37.886" x2="49.869" x1="48.865"/>
   <polyline id="polyline90162" transform="matrix(.11441 0 0 .11441 24.984 4.5027)" points="217.07 304.18 214.37 302.15 208.52 308.68" stroke-width=".5"/>
  </g>
  <g stroke="#000" stroke-width=".057203">
   <path id="path90166" d="m51.568 38.067c-0.20593-0.15445-0.67019 0.43874-0.4376 0.61779 0.33464 0.25741 0.56631 0.46334 1.4158 0.41186 0.84946-0.05148 1.87-1.0334 2.3939-2.291 0.12871-0.3089-0.51482-0.54056-0.72075-0.20593-0.20593 0.33464-0.8752 1.8276-1.7247 1.8019-0.84946-0.02574-0.92668-0.33464-0.92668-0.33464z" fill="#fff"/>
   <path id="path90168" d="m54.27 36.522c-0.18019 0.25741 0.48908 0.59205 0.66927 0.28315" fill="none"/>
   <path id="path90172" d="m51.181 38.273c-0.20593-0.15445-0.67019 0.43886-0.4376 0.61779 0.33464 0.25741 0.56631 0.46334 1.4158 0.41186 0.84946-0.05148 1.87-1.0334 2.3939-2.291 0.12871-0.30889-0.51482-0.54056-0.72075-0.20593-0.20593 0.33464-0.8752 1.8276-1.7247 1.8019-0.84946-0.02574-0.92668-0.33464-0.92668-0.33464z" fill="#fff"/>
   <path id="path90174" d="m53.885 36.728c-0.18019 0.25741 0.48908 0.59205 0.66927 0.28315" fill="none"/>
   <path id="path90178" d="m50.796 38.479c-0.20593-0.15445-0.67019 0.43886-0.4376 0.61779 0.33464 0.25741 0.56631 0.46334 1.4158 0.41186 0.84946-0.05148 1.87-1.0334 2.3939-2.291 0.12871-0.30889-0.51482-0.54056-0.72075-0.20593-0.20593 0.33464-0.8752 1.8276-1.7247 1.8019-0.84946-0.02574-0.92668-0.33464-0.92668-0.33464z" fill="#fff"/>
   <path id="path90180" d="m53.498 36.934c-0.18019 0.25741 0.48908 0.59205 0.66927 0.28315" fill="none"/>
   <path id="path90184" d="m50.409 38.685c-0.20593-0.15445-0.67019 0.43886-0.4376 0.61779 0.33464 0.25741 0.56631 0.46334 1.4158 0.41186 0.84946-0.05148 1.87-1.0334 2.3939-2.291 0.12871-0.3089-0.51482-0.54057-0.72075-0.20593s-0.8752 1.8276-1.7247 1.8019c-0.84946-0.02574-0.92668-0.33464-0.92668-0.33464z" fill="#fff"/>
   <path id="path90186" d="m53.112 37.14c-0.18019 0.25741 0.48908 0.59205 0.66927 0.28315" fill="none"/>
  </g>
  <path id="path90188" fill="#fff" d="m57.514 35.183s-0.59205-1.4672-0.69501-1.5187c-0.4376 1.493-0.30889 4.5562-0.30889 6.7956s0.46334 5.0709 0.46334 5.0709l0.07722-0.07722s-0.38612-2.6513-0.38612-5.3027c0-2.6512 0.02574-5.0966 0.15445-5.1996 0.12871-0.10296 0.4376 0.82372 0.4376 0.82372s-0.15445 0.84946-0.15445 3.6295c0 0 0.20604-3.7838 0.41186-4.2214z"/>
  <path id="path90190" fill="#fff" d="m36.573 34.758c-0.24448 0.09015-0.6306 1.4286-0.6306 3.5394 0 0 0.18019-2.8573 0.48908-2.8315 0 0-0.15445 2.278-0.11578 4.0927-0.000114 0.000114 0.12859-4.0155 0.2573-4.8006z"/>
  <g stroke="#000" fill="none">
   <g stroke-width=".057203">
    <path id="path90192" d="m35.016 16.161c0-0.36038 0.15445-0.48908 0.41186-0.72075s0.35248-1.2448 0.35248-1.2448"/>
    <path id="path90194" d="m59.765 14.041c-0.21726 0.26679-0.12871 1.9141-0.12871 1.9141"/>
    <line id="line90196" y2="15.44" y1="15.44" x2="59.599" x1="35.428"/>
    <line id="line90198" y2="15.697" y1="15.852" x2="59.599" x1="35.17"/>
    <line id="line90200" y2="14.822" y1="14.822" x2="59.651" x1="35.737"/>
    <line id="line90202" y2="15.183" y1="15.183" x2="59.624" x1="35.634"/>
    <line id="line90204" y2="46.457" y1="46.69" x2="43.124" x1="25.44"/>
    <line id="line90206" y2="45.506" y1="45.479" x2="32.596" x1="25.878"/>
    <line id="line90208" y2="45.376" y1="45.351" x2="43.175" x1="36.354"/>
   </g>
   <path id="path90210" d="m36.54 39.729s-0.80736-0.007-0.95506 0.0707c-0.337 0.177-0.195 1.273-0.195 1.273-1.2467 1.4961-3.0337 3.6984-3.1008 4.1182h-6.1353s0.07928-0.34379-0.21165-0.23808-0.52901 0.60829-0.76697 1.0843c-0.23808 0.47616 0 2.1158 0 2.3275 0 0.21154 0.31736 0.07928 0.50258 0.02643 0.18522-0.05286 0.2645-0.05286 0.29093-0.2645l0.02643-0.60829 6.0565-0.08008-0.02643 0.000686s-0.52901 1.1108 1.6926 1.1108c1.4017 0 3.0679-0.13225 3.9935-0.42319 0.9649-0.30329 1.5461-0.35523 3.1209-0.81994l2.3009-0.02643s-0.02643 0.74054 0 0.97862 0.34379 0.07928 0.52901 0 0.2645-0.10582 0.2645-0.37022v-1.1372s3.7027-0.89923 4.602-1.1902c0.89923-0.29093 2.063-0.2645 2.6977-0.2645" stroke-width=".17161"/>
   <line id="line90212" stroke-width=".17161" y2="39.553" y1="41.073" x2="36.699" x1="35.39"/>
   <g stroke-width=".057203">
    <path id="path90214" d="m44.622 34.653s-0.14152 1.9277-0.42444 2.1223c-0.28304 0.1946-1.3972 0.14152-1.3972 0.14152-0.5837-0.01773-0.83127-1.0081-0.37147-1.1142 0.45991-0.10617 0.44218-0.74283-0.05308-0.9197s-0.56596-0.12379-0.68975-0.08844c0 0-0.38909-0.03535-0.56596 0.22996s0.03535 0.93732 0.21222 1.185c0.17687 0.24757-0.03535 0.6544-0.38909 0.60132-0.35374-0.05309-0.49526-0.33601-0.45991-0.76045s0.03535-1.3618-0.05308-1.6802"/>
    <line id="line90216" y2="36.971" y1="34.671" x2="44.976" x1="45.101"/>
    <line id="line90218" y2="36.971" y1="34.654" x2="45.295" x1="45.348"/>
    <line id="line90220" y2="36.281" y1="34.671" x2="46.55" x1="47.152"/>
    <line id="line90222" y2="36.493" y1="34.883" x2="46.249" x1="46.851"/>
    <line id="line90224" y2="36.192" y1="34.37" x2="40.077" x1="40.095"/>
   </g>
  </g>
 </g>
</svg>
