<?xml version="1.0" encoding="UTF-8" standalone="no"?>
<!-- Created with Inkscape (http://www.inkscape.org/) -->
<svg id="svg2" xmlns:rdf="http://www.w3.org/1999/02/22-rdf-syntax-ns#" xmlns="http://www.w3.org/2000/svg" height="45" width="67.5" version="1.1" xmlns:cc="http://creativecommons.org/ns#" xmlns:dc="http://purl.org/dc/elements/1.1/">
 <metadata id="metadata7">
  <rdf:RDF>
   <cc:Work rdf:about="">
    <dc:format>image/svg+xml</dc:format>
    <dc:type rdf:resource="http://purl.org/dc/dcmitype/StillImage"/>
    <dc:title/>
   </cc:Work>
  </rdf:RDF>
 </metadata>
 <g id="g9495">
  <rect id="rect2990" opacity="0" height="45" width="67.5" y="0" x="3.5527e-15"/>
  <path id="path9493" d="m31.742 35.773c-1.2066-0.47145-2.4059-1.6522-2.9675-2.9218-0.26904-0.60821-0.22678-0.59051-2.0412-0.85491-2.4402-0.35559-5.6803-0.55012-10.492-0.62989l-4.8595-0.08057-0.0887 0.40975c-0.24117 1.1147-1.1848 2.2598-2.063 2.5037-0.25249 0.07011-1.216 0.12727-2.1411 0.12702-1.6372-0.000481-1.6983-0.0098-2.2915-0.35001-1.1142-0.63906-1.8424-2.056-2.1257-4.1359-0.12226-0.89769-0.18503-1.0818-0.39622-1.1621-0.44114-0.16772-1.3969-1.35-1.843-2.28l-0.43233-0.90111v-2.1627-2.1627l0.61703-1.262c0.33972-0.69386 0.78852-1.7819 0.99733-2.4178 0.38745-1.18 0.60146-1.4842 1.2878-1.8309 0.41614-0.21019 2.2202-0.55644 2.9101-0.55854 0.75569-0.0023 1.3359-0.1403 1.3359-0.31774 0-0.26238 0.53527-0.40182 1.5424-0.40182 0.84181 0 0.96397-0.03129 1.3438-0.34419 0.60546-0.49872 3.1706-2.1901 4.0824-2.6918 1.787-0.9833 3.8948-1.6676 6.4279-2.0868 0.967-0.16004 2.3739-0.2092 7.2089-0.25193 8.6244-0.07621 11.911 0.14895 14.435 0.98904 1.8561 0.61768 4.7744 2.1491 7.588 3.9819 1.0955 0.71359 1.4477 0.88439 1.8235 0.88439 0.36115 0 0.52229 0.07175 0.71697 0.31925 0.13813 0.17559 0.22571 0.40537 0.19465 0.51063-0.035 0.11853 0.0998 0.31017 0.35417 0.50345 0.35433 0.26928 0.57327 0.32273 1.5966 0.3898 1.4926 0.09782 3.1323 0.37305 3.9887 0.66953 0.36345 0.12582 1.4178 0.45252 2.3429 0.72601 2.301 0.6802 3.6836 1.3652 4.5947 2.2762 0.81686 0.81686 1.6005 2.2073 1.912 3.3923 0.26686 1.0153 0.26402 3.1914-0.006 4.591-0.38026 1.971-0.88465 2.9257-1.7019 3.2212-0.30318 0.10963-0.48304 0.28936-0.66431 0.66379-0.31718 0.65521-1.2545 1.4991-2.1198 1.9084-2.484 1.1751-6.5597 0.61188-8.0813-1.1167l-0.46261-0.52555-4.0044 0.01c-3.7834 0.0094-6.9426 0.12202-8.7922 0.3133l-0.82291 0.0851-0.23099 0.53889c-0.50678 1.1823-1.473 2.0078-2.8466 2.4321-0.65277 0.20162-1.1064 0.23657-3.0088 0.2318-1.8985-0.0047-2.3283-0.04007-2.8184-0.23154zm3.2215-1.626c1.1633-0.5628 2.0939-1.9468 2.3625-3.5133 0.50078-2.9203-1.6692-5.8057-4.1475-5.515-1.384 0.16236-2.6414 1.2138-3.2051 2.6801-0.32855 0.85464-0.44741 2.4369-0.24382 3.2454 0.35147 1.3958 1.3158 2.6489 2.4426 3.1741 0.66132 0.30825 2.0818 0.27196 2.7913-0.0713zm-2.0634-0.06932c-1.0989-0.20688-2.0062-0.99244-2.6042-2.2546-0.34857-0.7357-0.37807-0.89451-0.37171-2.0006 0.009-1.5901 0.30274-2.3714 1.2453-3.314 0.82005-0.82006 1.6187-1.1373 2.6062-1.0354 2.7118 0.27989 4.2159 3.7866 2.8147 6.5624-0.74404 1.4739-2.2582 2.3118-3.6903 2.0422zm1.6033-0.24755c0.47858-0.1447 1.3916-0.79739 1.307-0.93431-0.0348-0.05636 0.0207-0.17224 0.12349-0.25751 0.25554-0.21208 0.53142-0.76832 0.53142-1.0715 0-0.35721-0.27326-0.41494-0.92036-0.19445-0.71395 0.24327-1.3535 0.24523-1.6962 0.0052-0.32296-0.2262-0.35324-0.74229-0.0568-0.96734 0.29293-0.22237 0.44753-0.20714 0.21885 0.02155-0.23916 0.23915-0.24199 0.57868-0.006 0.77415 0.24799 0.20582 1.228 0.08044 1.8495-0.23661 0.47234-0.24097 0.85173-0.75298 0.85173-1.1495 0-0.17706-0.0171-0.17761-0.18881-0.006-0.10384 0.10384-0.23901 0.1888-0.30037 0.1888-0.18866 0-0.592-0.46848-0.5948-0.69085-0.002-0.11564-0.10326 0.01132-0.22625 0.28213-0.31178 0.68651-0.81924 0.84893-1.3386 0.4284-0.18051-0.14616-0.26898-0.34273-0.26217-0.58244 0.009-0.31801-0.0243-0.35523-0.27486-0.30732-0.21516 0.04113-0.29416 0.14497-0.32186 0.423-0.0202 0.20267-0.11779 0.39497-0.21691 0.42732-0.14219 0.04641-0.15096 0.023-0.0416-0.1109 0.0762-0.09335 0.15737-0.29811 0.18022-0.45503 0.0297-0.20404 0.16133-0.32382 0.46207-0.42052 0.84826-0.27275 0.51309-1.11-0.66081-1.6507-1.4124-0.65057-2.5443 0.22293-2.6761 2.0652-0.0554 0.77332-0.0425 0.83205 0.18219 0.83205 0.37978 0 0.53188-0.26599 0.38804-0.6786-0.28006-0.80339 0.32546-1.8671 0.95001-1.6689 0.36871 0.11702 0.31555 0.37817-0.20544 1.0092-0.2531 0.30654-0.50041 0.63844-0.54958 0.73756-0.0492 0.09912-0.002 0.07209 0.10491-0.06007 0.10686-0.13216 0.25956-0.2403 0.33931-0.2403 0.0798 0 0.14502-0.07196 0.14502-0.15992 0-0.39518 1.0135-0.63601 1.4099-0.33501 0.29147 0.22134 0.14384 0.31341-0.25881 0.16142-0.2806-0.10591-0.41032-0.08175-0.77657 0.1446-1.1598 0.71679-1.4184 1.836-0.73493 3.1811 0.37624 0.74051 0.74354 1.0905 1.2773 1.217 0.29077 0.06893 0.32018 0.04043 0.36635-0.35502 0.059-0.50548 0.016-0.54478-0.14184-0.1296-0.0628 0.1652-0.18313 0.29917-0.26737 0.2977-0.39725-0.0069-1.2946-1.1308-1.2946-1.6214 0-0.35741 0.28889-0.5803 0.66013-0.50934 0.26345 0.05036 0.30106 0.01544 0.30106-0.27953 0-0.1854 0.12165-0.47585 0.27033-0.64546 0.24772-0.28259 0.30802-0.29775 0.72089-0.18127 0.24781 0.06991 0.45055 0.18944 0.45055 0.26564 0 0.10147-0.0385 0.09996-0.14418-0.0056-0.1985-0.1985-0.63693-0.18092-0.81417 0.03264-0.17983 0.21667-0.3734 1.0247-0.24549 1.0247 0.0509 0 0.12583 0.16675 0.16659 0.37056 0.23202 1.1601 1.4914 1.7471 2.6816 1.2499 0.23931-0.09999 0.46133-0.15557 0.4934-0.12351 0.10602 0.10602-0.62589 0.33644-1.2366 0.38932-0.44046 0.03814-0.72095-0.01077-1.0513-0.18327l-0.45056-0.23528v0.3404c0 0.18722-0.0551 0.37447-0.12249 0.41611-0.2036 0.12583-0.89888-0.16601-1.2375-0.51941-0.47749-0.4984-0.95959-1.7763-0.89299-2.3672 0.0516-0.45778 0.0368-0.48556-0.2579-0.4824-0.29086 0.0031-0.31755-0.04268-0.38316-0.65746l-0.0706-0.66081-0.0182 0.72089c-0.034 1.3522 0.45059 2.5725 1.3515 3.4029 0.96755 0.89186 1.8957 1.1052 3.1536 0.72488zm0.11962-1.1441c-0.15519-0.1552-0.0775-0.60584 0.13796-0.80089 0.59499-0.53845 1.523-0.49082 1.4413 0.07399-0.0701 0.48447-1.2696 1.0366-1.5792 0.7269zm-1.8864-1.7298c-0.0992-0.18534-0.0953-0.29302 0.0153-0.42632 0.2227-0.26834 0.64225-0.15886 0.69017 0.18011 0.0686 0.4854-0.47577 0.6754-0.70547 0.2462zm1.3318 0.07508c-0.30396-0.36625 0.17567-0.84587 0.54191-0.54191 0.10147 0.08421 0.16837 0.26598 0.14866 0.40392-0.0441 0.30812-0.47749 0.39473-0.69057 0.13799zm-1.8493-1.3225c-0.12551-0.3271 0.0486-0.56284 0.38671-0.52363 0.24623 0.02855 0.31506 0.10217 0.31506 0.33691s-0.0688 0.30835-0.31506 0.33691c-0.19957 0.02314-0.34131-0.0319-0.38671-0.15018zm0.92241-0.97559c-0.0812-0.21146 0.0683-0.54898 0.2734-0.61734 0.064-0.02135 0.22236 0.03986 0.35186 0.136 0.18826 0.13978 0.20891 0.21834 0.10302 0.3921-0.17951 0.29458-0.62838 0.34958-0.72828 0.08924zm3.8534 1.6061c0.0977-0.6572-0.0929-1.8626-0.4081-2.5805-0.28616-0.65176-1.1252-1.5564-1.7294-1.8646-0.56015-0.28577-1.6883-0.41116-2.1167-0.23526-0.27409 0.11254-0.25527 0.124 0.21505 0.13095 0.90536 0.01338 1.8496 0.67599 2.2367 1.5695 0.17944 0.41427 0.18222 0.41556 0.18685 0.08634 0.006-0.40152 0.31437-0.55914 0.55511-0.28342 0.0942 0.10792 0.10626 0.14235 0.0267 0.0765-0.30947-0.25621-0.45713-0.12722-0.44751 0.39091 0.009 0.47231 0.0183 0.48677 0.12601 0.19271 0.0641-0.17486 0.22674-0.34675 0.36147-0.38198 0.5551-0.14516 1.0722 2.0955 0.66517 2.8826-0.10181 0.19687-0.27094 0.42919-0.37587 0.51627-0.17234 0.14304-0.16731 0.17475 0.0521 0.32847 0.1336 0.09358 0.24673 0.2617 0.25138 0.37359 0.0131 0.31285 0.3066-0.56713 0.40102-1.202zm-1.8419-0.72715c0.19855-0.31501 0.23391-0.51908 0.18296-1.0559-0.10815-1.1393-0.56654-1.9693-1.2977-2.3497-0.49093-0.25543-0.54119-0.20235-0.0961 0.10153 0.21776 0.14868 0.47149 0.3857 0.56382 0.5267 0.14676 0.22412 0.14209 0.28215-0.0371 0.46135-0.13072 0.13072-0.32998 0.18663-0.55001 0.15434l-0.34504-0.05064 0.36441 0.37598c0.39567 0.40823 0.45399 0.71926 0.20416 1.0887-0.27786 0.4109-0.30757 0.62228-0.12424 0.88401 0.28394 0.40538 0.83516 0.33913 1.1349-0.13639zm-0.83087 0.1648c-0.23396-0.14829-0.12403-0.66449 0.15276-0.7173 0.3188-0.06083 0.57612 0.30662 0.41957 0.59914-0.12906 0.24115-0.31705 0.27997-0.57233 0.11816zm-3.6342-2.0427c0.31526-0.44275 0.82198-0.73273 1.2959-0.7416l0.33637-0.0063-0.27033-0.18857c-0.14868-0.10372-0.27033-0.24531-0.27033-0.31465 0-0.17399 0.36871-0.5661 0.52925-0.56284 0.0723 0.0014 0.002 0.10218-0.15605 0.22381-0.34718 0.26694-0.27309 0.418 0.36451 0.74329l0.48112 0.24545-0.26785-0.36229c-0.22235-0.30074-0.24174-0.39376-0.11411-0.54753 0.0846-0.10188 0.32283-0.19286 0.52951-0.20216 0.22756-0.01024 0.11513-0.04965-0.28505-0.09993-0.60017-0.07539-0.70736-0.05147-1.168 0.26063-0.76542 0.51858-1.6091 1.9006-1.5901 2.6047 0.003 0.10734 0.0751-0.00024 0.16049-0.23917 0.0854-0.23888 0.27649-0.60464 0.42472-0.81281zm8.902 5.0293c1.1128-0.32507 3.7837-0.49056 9.6711-0.59926 8.3019-0.15327 13.748-0.42896 15.554-0.78741 1.1754-0.23325 1.5035-0.53625 1.8675-1.7248l0.0889-0.29044-0.32164 0.25301c-1.0782 0.84812-4.4594 1.1651-12.443 1.1666-4.7152 0.000801-5.8024-0.03175-6.9686-0.20902-1.7711-0.26923-2.7239-0.59008-3.354-1.1295-0.58987-0.5049-0.62282-0.89553-0.10782-1.2783 0.30532-0.22693 0.543-0.24186 4.3854-0.27536 2.2344-0.01948 5.3602-0.09231 6.9461-0.16184 1.586-0.06953 4.1541-0.18155 5.707-0.24892s3.626-0.17582 4.607-0.241c0.9809-0.06518 1.8324-0.08823 1.8923-0.05122 0.0622 0.03842 0.10887-0.42716 0.10887-1.0854v-1.1527l-0.27034 0.15358c-0.1933 0.10982-0.64691 0.13708-1.592 0.09566-3.8792-0.17001-6.7659-0.03375-10.377 0.48985-2.3739 0.34417-5.2667 0.491-6.9553 0.35303-1.1606-0.09483-1.7364-0.21749-3.0999-0.66035-0.92099-0.29914-2.08-0.6284-2.5757-0.7317-0.99955-0.20833-4.6077-0.29709-5.5461-0.13644l-0.55995 0.09586 0.27579 0.6851c0.15168 0.37681 0.42128 1.3153 0.5991 2.0856l0.32333 1.4005 1.4026 0.08695c0.77143 0.04782 1.7811 0.13111 2.2436 0.18508 0.74231 0.08662 0.69999 0.09169-0.36045 0.04324-0.66081-0.0302-1.6661-0.08849-2.2339-0.12955l-1.0325-0.07464 0.0453 0.70667c0.11279 1.7609 0.44723 2.8175 0.98414 3.1093 0.38198 0.20758 0.55323 0.21664 1.0964 0.05798zm-0.42131-5.9679c-0.95752-0.22018-1.1619-0.31103-1.2793-0.56856-0.0924-0.20278-0.0874-0.35333 0.0181-0.55054 0.13812-0.25808 0.19742-0.26846 1.2062-0.21094 1.1884 0.06775 1.83 0.33676 1.8964 0.79508 0.0663 0.45776-0.18128 0.61947-0.92505 0.60414-0.37188-0.0077-0.78428-0.0388-0.91644-0.06919zm1.6076-0.25038c0.25688-0.47996-0.24772-0.77673-1.5763-0.92706-0.87722-0.09926-1.1727-0.0084-1.1727 0.36047 0 0.36552 0.12788 0.43787 1.0795 0.61078 1.1698 0.21255 1.5373 0.20283 1.6695-0.04418zm-34.101 5.78c0.95009-0.85835 1.3719-2.235 1.2819-4.1833-0.10914-2.3613-1.1358-4.0167-2.396-3.8632-1.3074 0.15926-2.1844 1.8523-2.1878 4.2237-0.003 2.4727 0.98825 4.2634 2.362 4.2648 0.35036 0.00036 0.5588-0.09766 0.93985-0.44191zm-1.724-0.10882c-0.19006-0.10307-0.29855-0.23843-0.25176-0.31412 0.0481-0.07794 0.0276-0.09924-0.0497-0.05146-0.1786 0.11038-0.72514-0.84472-0.93544-1.6347-0.0926-0.34785-0.16901-1.1269-0.1698-1.7312-0.003-2.2685 0.91468-3.8844 2.2071-3.8866 0.38954-0.0006 0.54988 0.08332 0.9734 0.50984 0.80661 0.81233 1.0688 1.6449 1.0688 3.3942s-0.26216 2.5819-1.0688 3.3942c-0.42634 0.42936-0.58127 0.50986-0.9734 0.50582-0.2565-0.0026-0.61666-0.08631-0.80034-0.18593zm1.651-0.30196c0.23337-0.2049 0.39919-0.4132 0.36848-0.46289-0.0307-0.04968 0.0218-0.19292 0.11671-0.3183 0.27716-0.36615 0.20607-0.47437-0.11406-0.17363-0.35156 0.33027-0.66693 0.25367-0.66693-0.16199 0-0.30684 0.53549-0.83523 0.76793-0.75775 0.0696 0.0232 0.1632 0.17334 0.208 0.33365 0.0676 0.24193 0.0835 0.21488 0.0934-0.15909 0.0132-0.49677-0.0295-0.52138-0.46862-0.27033-0.41682 0.23828-0.80829 0.22122-1.0364-0.04518-0.11236-0.13123-0.28756-0.20067-0.41934-0.16621-0.18516 0.04842-0.22635-0.0074-0.22635-0.30716 0-0.36009 0.01-0.36597 0.5707-0.34399 0.53357 0.0209 0.57329 0.0449 0.61031 0.36885 0.0343 0.29968 0.006 0.33766-0.21041 0.28111-0.13753-0.03596-0.21975-0.01636-0.18271 0.04356 0.19647 0.3179 1.1291-0.06064 1.3514-0.54852 0.19745-0.43338 0.18289-0.67173-0.0359-0.58777-0.11521 0.04422-0.21619-0.03044-0.28206-0.20852-0.10245-0.27695-0.10288-0.27683-0.27202 0.07609-0.0932 0.1944-0.2677 0.37239-0.38783 0.39553-0.2653 0.05109-0.55168-0.29793-0.5569-0.67871-0.005-0.35119-0.40672-0.31542-0.45197 0.04022-0.0301 0.2369-0.0295 0.23689 0.0803-0.0014 0.0746-0.16187 0.11285-0.18148 0.11729-0.06007 0.0157 0.42918-0.4058 0.57649-0.63046 0.22033-0.14922-0.23654 0.10212-0.62581 0.32396-0.50175 0.0825 0.04615 0.0778 0.01298-0.012-0.08383-0.12261-0.1322-0.20332-0.10902-0.46159 0.13256-0.45699 0.42747-0.56541 0.68434-0.65604 1.5543l-0.0814 0.78096-0.0171-0.63078c-0.0128-0.47301-0.0622-0.63078-0.19728-0.63078-0.22605 0-0.2288 0.34747-0.009 1.172 0.17707 0.66513 0.57844 1.4529 0.68842 1.3511 0.0974-0.09013 0.46918 0.25209 0.39836 0.36667-0.0994 0.16092 0.33 0.34663 0.81067 0.35056 0.33111 0.0027 0.55593-0.09254 0.87068-0.3689zm-1.4672 0.01056c0.28139-0.17471 0.26783-0.35146-0.0212-0.27588-0.17396 0.0455-0.29503-0.05425-0.48765-0.40173-0.24186-0.43636-0.26067-0.39087-0.053 0.12816 0.0591 0.14767 0.0476 0.20253-0.032 0.15328-0.0682-0.04218-0.19236-0.32052-0.2758-0.61853-0.13256-0.47349-0.12594-0.58116 0.0526-0.85356 0.12015-0.18336 0.27477-0.28465 0.37552-0.24599 0.12365 0.04745 0.17128-0.02976 0.17128-0.27764 0-0.18885 0.0946-0.45996 0.21026-0.60247 0.18558-0.2287 0.23703-0.2395 0.43839-0.09196 0.21765 0.15946 0.21489 0.16662-0.0601 0.15569-0.26989-0.01073-0.29036 0.03436-0.322 0.70943-0.0262 0.55943 0.0276 0.84198 0.2403 1.2616 0.27279 0.53812 0.27704 0.54064 0.90138 0.53572 0.34502-0.0027 0.56129 0.03701 0.48059 0.08827-0.25533 0.16223-0.96046 0.10446-1.183-0.09692-0.2009-0.18181-0.21265-0.1728-0.18968 0.14548 0.0185 0.2566-0.0341 0.34884-0.21582 0.37846-0.21937 0.03576-0.22199 0.02781-0.03-0.09137zm2.5801-3.4827-0.005-0.90111-0.0723 0.78096c-0.0398 0.42953-0.13362 0.88557-0.20855 1.0134-0.1017 0.17351-0.10142 0.28873 0.0008 0.45439 0.12605 0.20369 0.14359 0.19446 0.21325-0.1123 0.0417-0.18383 0.0738-0.73974 0.0712-1.2354zm-3.5897 0.17257c0.0812-0.17816 0.0893-0.27648 0.0193-0.2332-0.17604 0.1088-0.14893-0.89854 0.0339-1.2599 0.0833-0.16462 0.23788-0.31596 0.34355-0.3363 0.31939-0.06151 0.36531 0.33664 0.0925 0.80186l-0.25481 0.43449 0.30638-0.28553c0.3022-0.28163 0.41871-0.27998 0.82593 0.01173 0.15817 0.11331 0.24013 0.11507 0.34772 0.0074 0.10758-0.10758 0.0778-0.12429-0.12642-0.0709-0.23614 0.06176-0.26258 0.02957-0.22757-0.27706 0.0278-0.24356 0.10226-0.34195 0.24987-0.33024 0.30672 0.02434 0.26079-0.1008-0.20144-0.5488-0.49997-0.48459-0.96879-0.52604-1.2859-0.11368-0.12069 0.15694-0.22146 0.36645-0.22394 0.46557-0.003 0.12785-0.0309 0.13867-0.0954 0.03723-0.05-0.07865-0.10628 0.34037-0.12505 0.93115-0.0345 1.0873 0.0659 1.3268 0.32142 0.76612zm2.5297-0.31064c0.30017-0.8611-0.0175-2.3573-0.6212-2.9257l-0.38283-0.36044 0.32766 0.36702c0.38735 0.43385 0.43166 0.88984 0.095 0.97787-0.22203 0.05806-0.22371 0.07954-0.0368 0.47159 0.16244 0.34063 0.17139 0.4785 0.0524 0.80752-0.15929 0.44049-0.18553 0.83826-0.0634 0.96042 0.20064 0.20064 0.50551 0.05608 0.62904-0.29827zm-0.54171 0.08799c-0.0994-0.25915 0.0389-0.582 0.22311-0.5206 0.0826 0.02752 0.15012 0.1762 0.15012 0.33038 0 0.32931-0.26753 0.46565-0.37323 0.19021zm-1.2186-2.3976c0.27629-0.0097 0.39583-0.05747 0.324-0.1295-0.23544-0.23609-0.123-0.66928 0.20621-0.79445 0.28004-0.10647 0.36944-0.0738 0.71534 0.26146 0.21741 0.21073 0.43212 0.55067 0.47713 0.75543l0.0818 0.37229 0.11256-0.30037 0.11255-0.30037 0.23168 0.28364c0.34985 0.42832 0.27781 0.1365-0.12191-0.49379-0.3985-0.62837-0.88826-0.93526-1.4727-0.92281-0.34069 0.0073-0.36265 0.02439-0.15615 0.12181 0.20776 0.09802 0.19641 0.10743-0.0839 0.06949-0.39092-0.05292-0.94694 0.46534-1.2317 1.1481-0.25708 0.61637-0.23265 0.69405 0.091 0.28955 0.20636-0.25788 0.38679-0.34897 0.71398-0.36044zm-0.12624-0.21961c-0.21214-0.21213-0.17726-0.39131 0.12615-0.6482l0.27034-0.22888-0.23497 0.27705c-0.19484 0.22975-0.21005 0.31694-0.0891 0.51063 0.16607 0.26592 0.13832 0.30016-0.0724 0.0894zm2.2712 0.34886c-0.0967-0.0967-0.1316-0.03664-0.12895 0.22184 0.003 0.31072 0.0195 0.32707 0.13261 0.1326 0.0924-0.15899 0.0914-0.2594-0.004-0.35444zm21.269 5.125c-0.066-0.38683-0.15554-1.1431-0.19905-1.6807l-0.0791-0.97733-0.43929-0.07264c-0.2416-0.03995-0.59573-0.07323-0.78696-0.07396l-0.34767-0.0013 0.0795 0.95392 0.0795 0.95392-1.5341-0.06926c-0.84375-0.03809-1.5611-0.0956-1.5942-0.1278-0.033-0.0322 0.63504-0.03287 1.4846-0.0015l1.5447 0.05705-0.0715-0.43261c-0.0393-0.23794-0.0722-0.63028-0.0729-0.87189-0.002-0.43435-0.008-0.44003-0.57203-0.50601-0.31388-0.0367-1.598-0.13639-2.8535-0.22153-1.2556-0.08514-2.1088-0.17162-1.8961-0.19218 0.21271-0.02055 1.5064 0.0464 2.8749 0.1488 2.2346 0.16719 2.7186 0.17159 2.5555 0.02325-0.0275-0.02506-1.3477-0.13793-2.9336-0.25084-3.3835-0.24088-6.7662-0.56273-5.0462-0.48012 0.59473 0.02856 2.0545 0.13044 3.244 0.2264 1.1895 0.09595 2.8008 0.21244 3.5808 0.25885l1.4181 0.0844-0.0743-0.58743c-0.0409-0.32308-0.0843-1.9793-0.0965-3.6804s-0.032-3.0933-0.0441-3.0938c-0.26591-0.01021-7.3229-0.5347-8.9279-0.66355-2.9203-0.23442-3.0049-0.23309-3.0049 0.04725 0 0.38761-0.29033 0.51008-1.1009 0.46438l-0.76142-0.04293 0.79814-0.02315c0.80628-0.02339 0.944-0.10708 0.944-0.57364 0-0.22663-0.3161-0.21894-0.40389 0.0098-0.10087 0.26286-0.82682 0.22624-1.1908-0.06007-0.16802-0.13216-0.33752-0.2403-0.37665-0.2403-0.14481 0-0.0668 0.72116 0.0791 0.73037 0.12014 0.0076 0.12014 0.0216 0 0.07009-0.21103 0.08515-0.19105 0.45829 0.15018 2.804 0.1652 1.1357 0.30037 2.0748 0.30037 2.0869 0 0.01216 1.0754 0.000961 2.3899-0.02493 3.9932-0.07859 7.6212 0.3165 9.0928 0.9902 0.67657 0.30975 0.75134 0.40514 0.50813 0.64835-0.15842 0.15842-2.7004 0.17654-4.3013 0.03065-0.58999-0.05376-0.03-0.07946 1.622-0.0744 1.5698 0.0048 2.5458-0.03769 2.5832-0.11244 0.10649-0.21299-1.0057-0.65932-2.2313-0.89545-0.65611-0.12641-1.9201-0.28753-2.8089-0.35804-1.7852-0.14164-5.4249-0.17135-6.2998-0.05142-0.50061 0.06861-0.55195 0.10378-0.48243 0.33041 0.0428 0.13949 0.0866 0.26464 0.0974 0.2781 0.0107 0.01346 0.36899 0.07878 0.79607 0.14513l0.77651 0.12066-0.82524-0.05983-0.82522-0.05983 0.0841 0.33497c0.0462 0.18423 0.0997 0.35056 0.11872 0.36961 0.0191 0.01906 0.94731 0.13471 2.0628 0.257 1.1155 0.1223 1.8119 0.22741 1.5476 0.23359-0.26432 0.0062-1.1835-0.06828-2.0425-0.16545-1.8687-0.21138-1.7421-0.2071-1.7421-0.05893 0 0.06608 0.20275 0.12924 0.45055 0.14034l0.45056 0.0202-0.4341 0.04615c-0.41543 0.04417-0.43082 0.06218-0.35786 0.41889 0.0419 0.20501 0.15617 0.41608 0.25387 0.46906 0.0977 0.05297 0.88778 0.28822 1.7557 0.52277 0.86795 0.23455 2.0725 0.58937 2.6767 0.78849 0.97304 0.32066 1.3488 0.37452 3.2879 0.47122l2.1893 0.10919-2.0415-0.03997-2.0415-0.03997 0.71988 0.2958c0.39594 0.16269 1.1524 0.42933 1.6811 0.59254 0.53227 0.16433 0.74673 0.26413 0.4806 0.22365-0.26433-0.0402-1.0483-0.2919-1.7422-0.55933-1.3264-0.51122-3.3311-0.9673-5.0462-1.148-1.1538-0.12157-1.8294-0.38946-2.0163-0.79953-0.0699-0.15353-0.28019-0.31612-0.4672-0.36131-0.89153-0.21544-1.2612-0.32907-1.2165-0.37386 0.0269-0.02691 0.23512-0.0016 0.46269 0.05631 0.95991 0.24413 1.0692 0.25483 1.0213 0.1-0.0258-0.08342-0.0794-0.30036-0.11923-0.48208-0.0642-0.29298-0.12998-0.33245-0.58074-0.34845l-0.50834-0.01805 0.54067-0.07872c0.68849-0.10024 0.48325-0.15591-1.5619-0.42361-0.82601-0.10812-1.6235-0.2263-1.7722-0.26262-0.15747-0.03846-0.27033-0.01044-0.27033 0.06714 0 0.07324 0.12165 0.14054 0.27033 0.14953l0.27033 0.01637-0.27033 0.05207c-0.32127 0.06188-0.32958 0.18513-0.0952 1.4102 0.2154 1.1257 0.71436 2.2681 1.1512 2.6357l0.32786 0.27588 5.6909 0.09461c7.6528 0.12723 7.2134 0.10028 10.797 0.66223 0.69386 0.1088 1.2785 0.18662 1.2992 0.17294s-0.0164-0.34137-0.0824-0.7282zm-11.309-3.5295c-1.2225-0.1177-2.3849-0.23823-2.5832-0.26786-1.0291-0.15376 0.73769-0.04611 3.3642 0.20499 1.586 0.15162 2.5592 0.27594 2.1627 0.27627-0.39648 0.00036-1.7211-0.0957-2.9436-0.2134zm-6.6682-0.77624c-0.4628-0.083-0.7061-0.154-0.5409-0.158s0.7329 0.06336 1.2615 0.14962c0.52865 0.08625 0.77195 0.15688 0.54067 0.15696-0.23129 0.000074-0.79899-0.06725-1.2616-0.14961zm6.3078-0.4055c-1.0243-0.10565-1.7271-0.20665-1.5619-0.22445 0.1652-0.01781 1.3006 0.06938 2.5231 0.19374s1.9254 0.22537 1.5619 0.22445c-0.36345-0.000961-1.4988-0.0881-2.5231-0.19374zm45.056 3.9516c1.9865-0.16571 3.5559-0.41877 4.2031-0.67773 0.47682-0.19078 0.96687-0.66784 0.9596-0.93416-0.002-0.07369-0.0588-0.03937-0.12611 0.07628-0.0674 0.11564-0.20796 0.21026-0.31245 0.21026-0.15181 0-0.17554-0.0889-0.11815-0.44255l0.0718-0.44256-0.29044 0.42741c-0.36065 0.53076-0.46774 0.57616-1.8042 0.76495-0.59473 0.08402-1.5753 0.23478-2.179 0.33502-2.0786 0.34514-4.3722 0.44941-9.0068 0.40948-4.0322-0.03475-4.6142-0.06337-4.8842-0.24024-0.35604-0.23328-0.74512-1.1534-0.66499-1.5726l0.0552-0.28855-1.6651-0.08452c-1.475-0.07488-1.7162-0.05955-2.1129 0.13432-0.51299 0.2507-0.61041 0.52507-0.33545 0.94471 0.50694 0.7737 2.3004 1.2689 5.5947 1.5447 1.1282 0.09446 11.065-0.03491 12.616-0.16424zm-17.408-0.9204c-0.36517-0.18197-0.69175-0.44268-0.77019-0.61486-0.11782-0.25858-0.0985-0.32944 0.14312-0.5251 0.21167-0.17139 0.47516-0.22618 1.0878-0.22618 0.74972 0 0.81857 0.02223 0.94787 0.30602 0.31606 0.69367 0.065 1.376-0.50637 1.376-0.14751 0-0.5535-0.14217-0.9022-0.31593zm7.363-0.55514c-0.0443-0.34693-0.0963-0.64941-0.11563-0.67218-0.0193-0.02277-0.74191-0.0023-1.6057 0.04546l-1.5706 0.08686v0.34503c0 0.18976 0.10813 0.45316 0.24029 0.58532 0.21367 0.21367 0.40049 0.2403 1.6862 0.2403h1.4459l-0.0805-0.63078zm-34.651 0.3405c-0.8781-0.3199-3.3645-0.95087-3.442-0.87344-0.14945 0.14945 0.32553 0.53384 0.83475 0.67554 0.43479 0.12099 2.0398 0.3186 2.7874 0.3432 0.13331 0.0044 0.053-0.06031-0.18022-0.14529zm48.63-0.74161c0.15672-0.17574 0.27033-0.45929 0.27033-0.67469v-0.37155l-0.99122 0.07716c-0.54517 0.04244-1.1283 0.07749-1.2958 0.07788-0.28658 0.000721-0.30628 0.04081-0.33296 0.67826l-0.0283 0.67754 1.0538-0.08074c0.9207-0.07053 1.088-0.11904 1.3242-0.38387zm-63.111-0.286c0.0392-0.06336-0.0117-0.63048-0.11306-1.2603-0.10134-0.62978-0.18426-1.3349-0.18426-1.5669 0-0.35118-0.0432-0.42181-0.25764-0.42181-0.24654 0-0.2547 0.03875-0.18958 0.89991 0.0451 0.59615 0.17319 1.1295 0.37952 1.5802 0.1713 0.37417 0.29153 0.70023 0.26718 0.72458-0.0243 0.02435-0.19173-0.2843-0.37195-0.68588-0.21808-0.48595-0.35006-1.026-0.39458-1.6147l-0.0669-0.88458-0.67425-0.3056c-0.37083-0.16808-0.69149-0.25591-0.71257-0.19518-0.0774 0.22313 0.3569 1.6326 0.66515 2.1586 0.33195 0.56643 1.3184 1.6868 1.4851 1.6868 0.0531 0 0.12866-0.05184 0.16782-0.1152zm25.468 0.0097c-0.15654-0.1447-1.2448-0.24932-1.3205-0.12695-0.0336 0.05439 0.19702 0.1192 0.51253 0.14402 0.3155 0.02481 0.65205 0.05487 0.74786 0.06678 0.10604 0.01319 0.12955-0.01963 0.0601-0.08385zm-0.13956-1.5589c-0.0586-1.1119-0.0316-1.426 0.18353-2.1326 0.51092-1.6779 1.674-3.1664 2.716-3.4758 0.32653-0.09697 0.70553-0.17153 0.84222-0.1657 0.13669 0.0058-0.0879 0.09035-0.49915 0.18781-0.57539 0.13637-0.87271 0.29312-1.2903 0.68025-1.4433 1.3381-2.1561 3.6587-1.7698 5.7619 0.081 0.44116 0.0886 0.4287 0.29214-0.48059 0.11493-0.51342 0.28623-1.408 0.38066-1.988 0.32435-1.9921 1.2-3.3 2.5505-3.8094 0.62274-0.2349 0.77448-0.24996 1.3054-0.12958 0.33041 0.07492 0.82623 0.24514 1.1018 0.37826 0.6745 0.3258 1.7493 1.4307 2.1643 2.225 0.33006 0.63171 0.5027 0.73881 0.92788 0.57565 0.15274-0.05861 0.0703-0.24371-0.43247-0.97099-1.2573-1.8188-2.3494-2.3548-5.2033-2.5537l-1.3216-0.09213 0.98066-0.01767c1.1906-0.02145 2.6059 0.23446 3.4605 0.62572 0.83582 0.38265 1.5029 1.0011 2.2582 2.0937l0.61871 0.895 0.60621-0.07286c0.33342-0.04007 0.9096-0.07332 1.2804-0.0739 0.65281-0.000961 0.67239-0.0105 0.6172-0.29919-0.20349-1.0645 0.9844-1.8374 3.1472-2.0478l0.83416-0.08113-0.2935-0.22704c-0.47497-0.36741-2.2642-1.258-3.2371-1.6114-0.49561-0.17999-1.604-0.50669-2.463-0.726-0.85906-0.21932-1.4636-0.40245-1.3434-0.40697 0.35628-0.01339 2.586 0.577 3.6863 0.97606 1.2886 0.46735 2.9676 1.3027 3.4728 1.7279 0.36334 0.30573 0.49059 0.33245 2.0318 0.42663 1.7567 0.10736 4.0232 0.38944 4.7087 0.58605 0.22998 0.06596 1.662 0.13223 3.1824 0.14727l2.7642 0.02735-2.4029 0.03536-2.4029 0.03537 0.63074 0.36023c0.49711 0.28391 0.63075 0.42399 0.63075 0.66115 0 0.21246-0.0906 0.33536-0.30819 0.41809-0.16951 0.06445-1.5396 0.11717-3.0446 0.11717s-3.642 0.03572-4.7489 0.07937l-2.0125 0.07937 1.1223 0.32722c0.61725 0.17997 1.5527 0.47011 2.0787 0.64476 1.86 0.61753 5.2127 0.6467 9.3162 0.08105 3.9294-0.54166 6.5063-0.66384 10.393-0.49278 1.7118 0.07535 1.9215-0.01992 1.8044-0.81977-0.0451-0.30802-0.11811-0.59607-0.16224-0.64011-0.0441-0.04404-0.51276 0.000801-1.0414 0.09965-1.4226 0.266-2.9451 0.26606-3.3509 0.00012-0.44102-0.28896-0.6446-0.74799-0.46166-1.0409 0.13304-0.21304 0.0718-0.2206-1.4485-0.17898l-1.5874 0.04346 1.583-0.11051c1.4666-0.10239 1.622-0.13685 2.1138-0.46876 0.65463-0.4418 0.9983-0.58292 2.0703-0.85008l0.84104-0.2096-0.57231-0.54053c-0.68069-0.64289-1.8013-1.2494-3.2434-1.7553-1.18-0.41397-2.4303-0.7655-2.7925-0.78508-0.13216-0.0071-0.48359-0.12996-0.78096-0.27294-1.2509-0.60144-4.8829-0.91174-9.6118-0.82119-7.3865 0.14144-14.169 0.432-16.881 0.72317-0.85906 0.09224-2.0215 0.20003-2.5832 0.23952-1.6487 0.11594-1.6664 0.12325-1.9913 0.82357-0.31017 0.66859-0.61235 1.8399-0.50291 1.9493 0.0371 0.03711 0.73514 0.11362 1.5512 0.17004l1.4837 0.10257-1.5619-0.02059-1.5619-0.02059 0.0254 3.1238c0.0139 1.7181 0.0574 3.3502 0.0963 3.6269 0.0734 0.52078 0.17149 0.5972 0.80108 0.62445l0.32206 0.01394-0.0688-1.304zm30.046-2.7712c-0.40431-0.24654-0.76495-0.68861-0.76495-0.93769 0-0.10971 0.23623-0.15349 0.82818-0.15349 0.89278 0 0.97404 0.05895 0.97404 0.70669 0 0.62231-0.40254 0.77153-1.0373 0.38449zm0.86142-0.59068c-0.0799-0.36394-0.086-0.3665-0.70331-0.29682-0.34248 0.03866-0.64488 0.08942-0.67201 0.11279-0.0929 0.08002 0.36736 0.50311 0.74915 0.68871 0.49822 0.2422 0.7463 0.04225 0.62617-0.50469zm-1.8366-0.82958c0.37997-0.02385 1.0017-0.02385 1.3817 0 0.37997 0.02385 0.0691 0.04335-0.69086 0.04335-0.75993 0-1.0708-0.01951-0.69085-0.04335zm0.21069-3.1639c-1.3453-0.35216-4.0204-1.177-5.0771-1.5655-1.2178-0.4477-1.6774-0.69145-1.6212-0.85993 0.0713-0.21396 2.2675-0.10592 3.3251 0.16359 1.4372 0.36622 3.2526 1.3068 3.2526 1.6852 0 0.05156-0.12863-0.03489-0.28584-0.1921-0.37698-0.37698-1.4929-0.93273-2.5376-1.2638-0.80962-0.25656-3.6647-0.52658-3.6646-0.34657 0.00012 0.17937 2.2779 0.99053 5.4067 1.9254 1.169 0.34929 1.9287 0.50269 2.7199 0.54921 1.3043 0.07669 2.2062-0.03167 2.2062-0.26506 0-0.08987-0.41901-0.43772-0.93115-0.77299-0.51212-0.33527-0.87708-0.60841-0.811-0.60697 0.0661 0.0014 0.49862 0.25798 0.96119 0.57009 0.91133 0.61491 1.0826 0.97003 0.54066 1.1208-0.63319 0.17613-2.5712 0.09742-3.4839-0.1415zm-22.346-0.772c-0.36345-0.08429-0.55268-0.15696-0.42052-0.1615 0.13216-0.0046 0.56469 0.06496 0.96118 0.15443s0.58572 0.16214 0.42052 0.1615c-0.1652-0.000601-0.59774-0.07014-0.96118-0.15443zm-1.8623-0.3577c-0.80551-0.20705-0.42769-0.21476 0.48059-0.0098 0.39649 0.08947 0.58573 0.16302 0.42052 0.16345-0.1652 0.000481-0.5707-0.06871-0.90111-0.15364zm-1.5995-0.38518c-0.77025-0.27242-0.54536-0.30372 0.28265-0.03934 0.39384 0.12575 0.60794 0.22728 0.47578 0.22561-0.13217-0.0017-0.47346-0.08549-0.75843-0.18628zm35.465 9.5137c0.0417-0.10868 0.0006-0.18022-0.10353-0.18022s-0.14523 0.07155-0.10352 0.18022c0.038 0.09912 0.0846 0.18022 0.10352 0.18022 0.0189 0 0.0655-0.0811 0.10353-0.18022zm-53.686-0.86987c-0.10735-0.42769-0.19299-0.47196-1.1011-0.56921-1.2536-0.13425-1.1704-0.45906 0.15392-0.60088 0.41989-0.04497 0.76344-0.09947 0.76344-0.12111s-0.13516-0.96853-0.30037-2.1042c-0.1652-1.1357-0.30037-2.4053-0.30037-2.8215v-0.75666l-0.45055-0.06865c-1.1127-0.16953-6.0393-0.2307-6.9586-0.0864-1.4597 0.22913-1.4506 0.22518-1.5336 0.6675-0.10261 0.54692-0.31293 0.68288-0.98956 0.63967-0.52634-0.03361-0.58498-0.06744-0.64012-0.36922l-0.0607-0.33222-0.42052 0.22428c-0.58153 0.31015-0.91765 0.85399-1.0164 1.6446-0.10256 0.82095 0.028 1.0183 0.67373 1.0183 0.4075 0 0.57155-0.09548 1.2526-0.7291 0.89769-0.83512 1.8136-1.3105 2.5282-1.3122 0.75688-0.0018 2.0738 0.70992 2.7803 1.5026 0.70518 0.79119 1.288 1.93 1.583 3.0932 0.13567 0.53495 0.28828 0.8834 0.39642 0.90511 0.21749 0.04368 3.335 0.47512 3.5596 0.49263 0.11907 0.0093 0.14086-0.0763 0.0806-0.31648zm-0.0654-0.66202c-0.005-0.39149-0.19738-0.47295-0.91297-0.38616-1.2421 0.15064-1.1476 0.21046 0.8247 0.52211 0.0496 0.0078 0.0893-0.05335 0.0883-0.13595zm-11.294-1.372c0-0.39701 0.33049-1.669 0.55539-2.1376l0.17555-0.36577-0.33543 0.37357c-0.18449 0.20546-0.45353 0.43525-0.59787 0.51063-0.34835 0.18193-1.0337 0.17456-1.2215-0.01313-0.12029-0.1202-0.14308 0.01394-0.11414 0.6718l0.0361 0.82198 0.65989 0.27848c0.36294 0.15317 0.70086 0.25317 0.75093 0.22222 0.0501-0.03094 0.091-0.19395 0.091-0.36224zm0.40758-0.25055c0.14047-1.2413 0.88417-2.3813 1.9353-2.9665l0.36044-0.20068-0.41855 0.06934c-0.59792 0.09906-1.2813 0.59152-1.549 1.1162-0.43633 0.85525-0.81245 2.6725-0.55316 2.6725 0.0895 0 0.17726-0.26954 0.22493-0.69085zm40.061-0.36c0.0212-0.14894-0.0232-0.56796-0.0986-0.93115-0.11565-0.55705-0.17804-0.66015-0.3989-0.65916-0.40309 0.0018-1.4686 0.54076-1.6878 0.85374-0.20051 0.28626-0.26295 0.84034-0.11175 0.99154 0.0464 0.04636 0.5735 0.06889 1.1714 0.05006 1.0245-0.03226 1.0894-0.04984 1.1256-0.30504zm9.8437 0.13501c0.44953-0.12047 0.30604-0.40182-0.36044-0.7068-1.4339-0.65616-3.6588-1.0046-7.0473-1.1036l-2.4516-0.07162 0.0796 0.288c0.0438 0.1584 0.11395 0.59889 0.1559 0.97885l0.0763 0.69085 4.6386-0.0017c2.5512-0.000962 4.7603-0.03424 4.909-0.07409zm13.247-0.483 0.39069-0.07814-0.0707-0.67279c-0.0388-0.37003-0.13411-0.85425-0.21165-1.076-0.13617-0.38953-0.15778-0.40068-0.6354-0.32777-0.98994 0.15112-2.4769 1.0718-2.4769 1.5336 0 0.06017 0.1327 0.24212 0.2949 0.40432 0.26642 0.26642 0.39266 0.29491 1.3066 0.29491 0.55644 0 1.1875-0.03516 1.4024-0.07814zm1.5299-0.33058c0.19179-0.19179-0.81245-1.9942-1.1111-1.9942-0.21987 0-0.21974 0.03644 0.003 0.77002 0.0984 0.32439 0.17893 0.79178 0.17893 1.0386v0.44884l0.43003-0.09699c0.23652-0.05335 0.46122-0.12817 0.49933-0.16628zm-65.779-3.176c-0.0934-0.02232-0.2452 0.05878-0.33723 0.18022-0.27814 0.36706-0.19581 0.43639 0.16608 0.13984 0.23585-0.193 0.28865-0.292 0.17115-0.32zm2.1752 0.12865c0.0616-0.2159 0.0904-0.41374 0.064-0.43966-0.10805-0.10608-1.3356 0.21962-1.3932 0.36964-0.14411 0.37554 0.0658 0.53689 0.6492 0.49923 0.52678-0.03401 0.57616-0.06518 0.68001-0.42921zm23.386 0.06212c0.0008-0.14868 0.16236-0.7299 0.35883-1.2916 0.19647-0.56169 0.35795-1.0323 0.35883-1.0458 0.00081-0.01352-0.904 0.0077-2.0109 0.04723-2.3891 0.08526-4.6669-0.07671-8.0461-0.5721-1.336-0.19586-2.5862-0.38753-2.7782-0.42592-0.3051-0.06102-0.44163 0.02083-1.0852 0.65054-0.40489 0.39619-0.73589 0.79356-0.73554 0.88304 0.00036 0.10537 0.17226 0.17249 0.48779 0.19051 0.64809 0.03701 1.3009 0.35946 1.382 0.68266 0.0639 0.25468 0.17953 0.26994 4.5343 0.59848 2.4578 0.18542 4.9823 0.37808 5.6101 0.42812 1.9639 0.15655 1.9222 0.1597 1.924-0.14511zm-24.941-0.284c0.10839-0.04159 0.30198-0.44308 0.449-0.93115 0.14215-0.47191 0.31764-0.89775 0.38997-0.9463 0.22582-0.15155 0.99644-0.10012 1.1428 0.07627 0.10606 0.1278 0.1059 0.30212-0.00071 0.72549-0.0772 0.3065-0.11987 0.57699-0.0949 0.60109 0.025 0.0241 0.50502-0.03793 1.0667-0.13784 0.8173-0.14538 1.5971-0.16628 3.9048-0.10464 1.5859 0.04236 3.0763 0.10707 3.3119 0.1438 0.41902 0.06532 0.43169 0.0554 0.58056-0.45441 0.20311-0.6956 0.67439-1.3663 1.1792-1.6783 0.22693-0.14025 0.3681-0.2932 0.3137-0.33988s-1.1393-0.26033-2.4108-0.47478c-2.7474-0.46336-3.1548-0.56631-3.1548-0.79722 0-0.09633-0.11124-0.17458-0.24819-0.17458-0.1365 0-0.35096-0.055-0.47655-0.12222-0.1554-0.08317-0.68068-0.08077-1.6441 0.0075-1.8651 0.1709-2.96 0.42518-3.3905 0.78749-0.41349 0.34793-0.72857 1.1999-0.72857 1.9701 0 0.56334-0.3255 1.8776-0.43732 1.7658-0.0333-0.03329 0.0244-0.31085 0.12832-0.61679 0.10387-0.30594 0.18757-0.70305 0.186-0.88247-0.002-0.2548-0.07-0.16839-0.30976 0.39468-0.44881 1.0542-0.45911 1.1121-0.20917 1.1766 0.12178 0.0314 0.2305 0.06337 0.24162 0.07103 0.0111 0.0077 0.10596-0.01897 0.21077-0.05918zm1.1255-0.29314c0.58019-0.12443 0.58907-0.13336 0.72719-0.73174 0.0769-0.33317 0.10943-0.65495 0.0722-0.71507-0.0874-0.14143-0.97979-0.14261-1.0671-0.0014-0.16172 0.26168-0.51308 1.5742-0.4214 1.5742 0.0559 0 0.36595-0.05669 0.68899-0.12597zm11.68-0.216c0-0.20959-0.44224-0.48949-0.96296-0.60947-0.69508-0.16016-0.67018-0.1618-0.89075 0.05876-0.28428 0.28428-0.22778 0.51022 0.1416 0.56618 0.62956 0.09537 1.7121 0.08559 1.7121-0.01547zm11.597-3.2596c-0.42377-0.46826-1.2344-0.7576-2.1072-0.75213-0.86398 0.0054-1.9389 0.25971-2.3408 0.55376-0.43636 0.3193-0.11268 0.31996 0.67044 0.0014 0.97517-0.39672 2.076-0.36114 3.1741 0.1026 0.39649 0.16744 0.74279 0.31056 0.76955 0.31805 0.0267 0.0074-0.048-0.09315-0.16606-0.22365zm-12.504-0.75396c0.11044-0.28085 0.47117-0.9893 0.80161-1.5743 0.33044-0.58504 0.58341-1.0811 0.56216-1.1024-0.15534-0.15533-3.0672 1.4561-3.611 1.9984-0.36194 0.36089-0.43367 0.79645-0.14916 0.90562 0.22806 0.08752 1.319 0.24854 1.8182 0.26836 0.33739 0.0134 0.39875-0.03919 0.57825-0.49564zm28.06 0.13394 0.78092-0.26638-0.3604-0.15364c-0.6394-0.27257-1.3936-0.20326-2.0046 0.18422-0.3024 0.19178-0.59184 0.41666-0.64317 0.49973-0.14159 0.22907 1.2736 0.06138 2.2273-0.26393zm-2.6957-0.1191c0.85198-0.90692 2.3844-1.2004 3.6857-0.70575 0.43515 0.16539 0.92312 0.24026 1.5662 0.2403 0.62602 0.00004 1.1597 0.07932 1.6178 0.24036 0.53684 0.18868 0.99168 0.2403 2.1176 0.2403h1.4339l-0.47336-0.3429c-1.2109-0.87719-4.2124-2.7073-4.9663-3.0281-1.2063-0.51333-2.5946-0.81005-4.4485-0.95078-2.0463-0.15533-2.8836-0.15636-2.8836-0.0035 0 0.06608 0.13517 0.12015 0.30037 0.12015 0.16521 0 0.40851 0.10813 0.54067 0.2403 0.4459 0.4459 0.23647 0.96118-0.39068 0.96118h-0.34262l0.87728 1.68c0.4825 0.92402 0.90772 1.681 0.94491 1.6821 0.0372 0.001 0.22643-0.16701 0.42052-0.37361zm-14.067-1.425c0.38245-0.1454 0.33211-0.26611-0.55599-1.3333-0.68846-0.82726-1.2572-1.1411-2.2875-1.2622-0.7053-0.0829-2.6699 0.1034-3.6507 0.34618-0.55052 0.13627-0.62049 0.19917-1.0975 0.98659-0.2802 0.46257-0.51079 0.88159-0.51242 0.93115-0.002 0.04957 0.90267 0.09558 2.0095 0.10226 1.1069 0.0066 2.6342 0.08006 3.3942 0.16307 1.8085 0.19754 2.3218 0.21013 2.7003 0.06622zm4.899-2.376c0.3599-0.31742 0.23905-0.38849-0.66081-0.38865-1.0016-0.00018-2.8535 0.2354-2.8535 0.36297 0 0.04735 0.19555 0.43793 0.43455 0.86793l0.43456 0.78183 1.2175-0.71932c0.66962-0.39563 1.3121-0.80277 1.4277-0.90476z"/>
 </g>
</svg>
