<?xml version="1.0" encoding="UTF-8" standalone="no"?>
<!-- Created with Inkscape (http://www.inkscape.org/) -->
<svg id="svg2" xmlns:rdf="http://www.w3.org/1999/02/22-rdf-syntax-ns#" xmlns="http://www.w3.org/2000/svg" height="54" width="99" version="1.1" xmlns:cc="http://creativecommons.org/ns#" xmlns:dc="http://purl.org/dc/elements/1.1/">
 <metadata id="metadata7">
  <rdf:RDF>
   <cc:Work rdf:about="">
    <dc:format>image/svg+xml</dc:format>
    <dc:type rdf:resource="http://purl.org/dc/dcmitype/StillImage"/>
    <dc:title/>
   </cc:Work>
  </rdf:RDF>
 </metadata>
 <g id="g3491">
  <g id="g3871">
   <g id="g4614">
    <g id="g5219">
     <g id="g5689">
      <g id="g6406">
       <g id="g7263">
        <g id="g8053">
         <g id="g8717">
          <g id="g9406">
           <g id="g9898">
            <g id="g10207">
             <g id="g10407">
              <g id="g10743">
               <g id="g11282">
                <g id="g15079">
                 <g id="g15585">
                  <g id="g16769">
                   <g id="g17492">
                    <g id="g17976">
                     <g id="g18386">
                      <g id="g19746">
                       <g id="g20846">
                        <g id="g21376">
                         <g id="g21705">
                          <g id="g22212">
                           <g id="g26871">
                            <g id="g28064">
                             <g id="g28748">
                              <rect id="rect2990" opacity="0" height="54" width="99" y="0" x="0"/>
                              <g id="layer1" transform="translate(268.06998,8.0264466)">
                               <g id="logo29" transform="matrix(0.15738995,0,0,0.15738995,-263.56949,5.5284819)">
                                <g id="g91692">
                                 <path id="path91694" d="m544.04,131.16c8.708-1.798,27.042-25.145,27.042-32.118,0-16.875-2.363-43.031-4.05-49.275s-2.362-11.306-3.712-18.731-6.919-18.731-8.438-21.263-2.869-3.712-6.244-4.05c0,0-18.056-0.844-35.775-1.688-17.718-0.844-103.78-3.038-110.87-3.038-7.088,0-10.125,1.35-11.306,3.038,4.556,0.506,14.85,2.531,14.85,2.531s0.729-1.817,5.841-1.817,82.309,1.63,100.76,2.018c19.237,0.404,20.851,1.614,22.869,2.959s1.749,4.843,2.421,12.646c0.672,7.802-1.076,13.049-2.825,15.874s-6.054,3.901-14.125,2.825c-8.07-1.071-37.13-2.416-37.13-2.416-50.58-30.403-79.91-33.362-103.05-35.514-23.14-2.153-48.43-2.422-81.52-2.422-40.896,0-54.617,1.883-59.191,3.229-6.453,1.898-25.694,14.664-38.877,22.735-13.184,8.071-33.631,21.659-33.631,21.659l-5.515,1.21-3.632-0.672s-0.092-5.53-3.632-6.458c-5.65-1.479-6.995-0.941-10.089,1.48-2.184,1.709-1.479,8.071,0.404,9.82-79.633,2.421-111.92,23.407-138.02,54.078,0,0-1.883,2.152-1.883,8.072,0,5.919-1.076,19.909-2.96,27.174-1.883,7.264-1.076,8.34,2.152,9.147,0,0,7.788,3.029,22.783,4.625l3.812-0.192s58.724,3.645,79.784,3.645,45.359,2.025,65.204,2.025,55.08-0.81,63.989-2.632c3.24,0,4.86,0.405,4.86-19.035,0-19.439,10.101-66.824,41.714-66.824,21.87,0,29.16,20.047,29.565,22.477s1.215,5.063,1.215,5.063l-2.228,0.608s-0.203-5.063-3.645-5.063-1.822,3.442-1.822,3.442,3.442,6.237,3.442,24.502c0,16.808-6.885,27.945-6.885,27.945s8.303,1.013,11.948,1.013,5.467-0.203,12.555-1.013,118.26-9.112,123.12-8.708c4.86,0.405,15.39,2.025,18.022,2.835s5.941-4.421,6.48-9.922c1.013-10.328,3.936-32.507,5.063-36.45,0.81-2.835,0.203-5.467,0.203-5.467s7.845-29.567,31.589-32.805c17.82-2.43,26.123,25.92,26.527,28.552l28.958-1.62,0.202,2.43-26.325,1.417c-0.607-0.203,1.013,7.29,1.013,15.592,0,6.493-0.333,14.759-1.215,20.047-0.142,0.85-0.382,1.304-0.098,1.984l0.306,0.501z" fill="#FFF"/>
                                </g>
                                <path id="path91696" d="m239.48,159.69c3.24,0,4.86,0.405,4.86-19.035s10.101-66.825,41.714-66.825c21.87,0,29.16,20.047,29.565,22.478,0.405,2.43,1.215,5.063,1.215,5.063l-2.228,0.607s-0.203-5.063-3.645-5.063-1.822,3.442-1.822,3.442,3.442,6.237,3.442,24.502c0,16.807-6.885,27.945-6.885,27.945s8.303,1.012,11.948,1.012,5.467-0.202,12.555-1.012,118.26-9.113,123.12-8.708,15.39,2.025,18.022,2.835,5.941-4.422,6.48-9.922c1.013-10.328,3.936-32.507,5.063-36.45,0.81-2.835,0.203-5.467,0.203-5.467s7.845-29.567,31.589-32.805c17.82-2.43,26.123,25.919,26.527,28.552l28.958-1.62,0.202,2.43-26.325,1.417c-0.607-0.203,1.013,7.29,1.013,15.592,0,6.492-0.333,14.759-1.215,20.047-0.202,1.215-0.607,1.62,0.607,3.037l-5.265-0.202s-0.81-1.013-0.607-2.835c0,0-9.518,29.362-26.122,29.362,0,0-36.702,0.917-54.067-1.012-5.467-0.607-99.021,4.657-109.96,5.467-10.935,0.81-13.77,0.405-23.895,0.81s-34.222,2.228-35.437,2.228-1.823,2.025-8.505,2.43c-6.683,0.405-28.755,1.215-39.285,0.81s-17.617,1.013-36.045,1.823c-18.427,0.81-82.012-0.607-118.87-3.848-36.854-3.24-68.444-6.075-75.329-7.29s19.44-2.835,19.44-2.835,58.724,3.645,79.784,3.645,45.359,2.025,65.204,2.025,55.079-0.808,63.989-2.63z"/>
                                <path id="path91698" d="m15.917,128.51s1.012-3.038-2.228-3.24c-3.24-0.203-3.24,0.203-3.24,2.43v7.087s0,2.835,2.025,3.24,3.24,0.607,3.24-2.025,0.203-7.492,0.203-7.492z" stroke-width="0.5" stroke="#000"/>
                                <path id="path91700" d="m113.52,146.33c4.86-3.645,8.505-10.935,5.467-14.58,0,0-29.126-1.515-55.889-2.43-23.692-0.81-37.664-2.43-37.664-2.43v6.479c0.405,3.038,1.7,6.642,8.505,8.1,8.504,1.824,47.991,5.266,79.581,4.861z"/>
                                <g id="g91702">
                                 <path id="path91704" d="m302.65,57.634c-31.995-5.67-109.96-10.732-136.28-8.505,0,0,22.68-14.782,46.372-29.159,14.966-9.082,22.882-13.973,27.134-15.39,18.022,0.607,63.179,2.227,76.746,2.632s19.44,0.202,13.365,7.492c-6.075,7.291-20.25,28.552-27.337,42.93z"/>
                                </g>
                                <path id="path91706" d="m310.35,59.861,15.997,2.632s0.81-4.252,2.228-5.063c0.562-1.062,2.835-4.657,5.265-6.075,0.607-5.467,2.228-8.505,7.897-9.112,5.67-0.607,10.125-0.405,11.745,0.607,1.62,1.013,2.025,2.43,2.025,5.265s0.405,7.29-0.607,8.303c-1.013,1.012-4.252,2.025-7.897,1.822s-7.695-0.405-7.695-0.405-3.645,1.215-4.657,2.228c0,1.215-2.633,6.479,0,5.872,0,0,8.302-0.202,20.25-3.645,11.95-3.442,70.07-14.984,101.86-16.604-3.24-11.947-34.83-25.312-45.97-29.969-11.13-4.657-31.18-7.492-48.19-7.087s-19.3,0.557-26.53,9.922c-16.4,21.262-25.71,41.309-25.71,41.309z"/>
                                <path id="path91708" d="m443.59,75.656s0.203-12.149-1.417-17.415l-8.302,1.215s3.847,9.922,5.062,15.592l4.657,0.608z" stroke-width="0.5" stroke="#000"/>
                                <path id="path91710" d="m468.09,102.59c0.405-1.62-0.607-2.835-3.24-2.025-2.632,0.81-5.872,2.228-5.872,2.228l-0.405,19.845c4.86,1.822,5.873,1.417,7.29,0.607-0.405-8.708,1.62-18.225,2.227-20.655z" stroke-width="0.5" stroke="#000"/>
                                <polygon id="polygon91712" points="196.14,64.924,204.24,62.291,192.9,62.089,191.48,65.329"/>
                                <path id="path91714" d="m32.153,157.34c-18.564-1.345-28.25-5.112-28.25-5.112-3.229-0.807-4.036-1.884-2.152-9.148s2.96-21.255,2.96-27.174,1.883-8.071,1.883-8.071c26.097-30.671,58.383-51.657,138.02-54.079-1.883-1.749-2.588-8.111-0.404-9.82,3.094-2.421,4.439-2.959,10.089-1.479,3.54,0.927,3.632,6.457,3.632,6.457l3.632,0.672,5.515-1.21s20.448-13.587,33.631-21.659c13.183-8.071,32.425-20.836,38.877-22.734,4.574-1.345,18.295-3.229,59.191-3.229,33.093,0,58.383,0.269,81.522,2.421,23.138,2.152,52.464,5.112,103.04,35.514,0,0,29.058,1.346,37.129,2.422s12.376,0,14.125-2.825,3.498-8.071,2.825-15.874c-0.673-7.802-0.404-11.3-2.421-12.645-2.018-1.345-3.632-2.556-22.869-2.96-18.45-0.387-95.647-2.018-100.76-2.018-5.112,0-5.841,1.818-5.841,1.818s-10.293-2.025-14.85-2.532c1.181-1.688,4.219-3.037,11.306-3.037s93.149,2.194,110.87,3.037c17.719,0.844,35.775,1.688,35.775,1.688,3.375,0.338,4.725,1.519,6.244,4.05s7.087,13.837,8.438,21.262,2.025,12.487,3.712,18.731c1.688,6.244,4.05,32.4,4.05,49.275,0,7.087-18.942,31.092-27.464,32.189" stroke="#000" stroke-width="1.5" fill="none"/>
                                <g id="g91716">
                                 <g id="g91718" fill="#FFF">
                                  <path id="path91720" d="m280.86,157.07c12.545,0.38,23.268-14.993,23.949-34.336,0.682-19.343-8.936-35.333-21.481-35.712s-23.268,14.993-23.95,34.336c-0.681,19.343,8.936,35.332,21.482,35.712z"/>
                                  <path id="path91722" d="M282.09,122.04"/>
                                 </g>
                                 <g id="g91724" stroke-width="0.5" stroke="#000" fill="none">
                                  <path id="path91726" d="m281,154.27c11.084,0.349,20.559-13.794,21.161-31.589,0.603-17.795-7.896-32.506-18.98-32.855s-20.559,13.793-21.161,31.589c-0.602,17.795,7.896,32.504,18.98,32.855z"/>
                                  <path id="path91728" d="M282.09,122.04"/>
                                 </g>
                                 <g id="g91730" stroke-width="0.5" stroke="#000" fill="none">
                                  <path id="path91732" d="m280.14,148.29c9.226,0.286,17.112-11.255,17.613-25.777,0.501-14.521-6.572-26.525-15.798-26.81-9.226-0.286-17.112,11.255-17.613,25.777-0.501,14.521,6.572,26.524,15.798,26.81z"/>
                                  <path id="path91734" d="M281.05,121.99"/>
                                 </g>
                                 <g id="g91736" stroke-width="0.5" stroke="#000" fill="none">
                                  <path id="path91738" d="m280.24,146.23c8.159,0.263,15.133-10.373,15.576-23.756s-5.812-24.446-13.971-24.708c-8.159-0.263-15.133,10.373-15.576,23.756-0.443,13.382,5.812,24.445,13.971,24.708z"/>
                                  <path id="path91740" d="M281.05,121.99"/>
                                 </g>
                                 <path id="path91742" d="m292.56,102.29s-4.111-8.144-12.333-7.624-13.642,7.797-13.642,7.797,6.727-10.743,13.829-10.57c7.1,0.174,12.146,10.397,12.146,10.397z"/>
                                 <path id="path91744" d="m289.38,144.57s-4.298,6.931-10.652,6.931-10.838-5.892-10.838-5.892,4.111,3.985,10.838,3.985c6.728,0.001,10.652-5.024,10.652-5.024z"/>
                                 <path id="path91746" d="m269.57,137.99c1.495,2.946,4.672,7.104,9.531,8.144l-3.364-9.876-6.167,1.732z"/>
                                 <path id="path91748" d="m268.45,110.26c-1.121,2.946-2.803,8.664-2.056,15.769,0,0,2.616-5.199,4.298-7.104,0.711-0.805-2.242-8.665-2.242-8.665z"/>
                                 <path id="path91750" d="m284.9,98.479c-2.43-1.213-6.728-1.386-10.652,2.426,0,0,1.869,3.119,4.485,3.639l6.167-6.065z"/>
                                 <path id="path91752" d="m291.44,104.2c2.055,3.119,4.298,9.53,4.298,14.556,0,0-5.232-3.813-5.232-5.025s0.934-9.531,0.934-9.531z"/>
                                 <path id="path91754" d="m294.61,130.88c-0.935,3.639-2.43,8.664-7.288,12.649,0,0,0-7.624,0.748-9.357,0.373-0.866,4.485-1.732,6.54-3.292z"/>
                                 <g id="g91756" stroke-width="0.5" stroke="#000" fill="none">
                                  <path id="path91758" d="m280.68,137.1c5.604,0.173,10.395-6.838,10.7-15.66,0.304-8.821-3.993-16.113-9.597-16.287-5.605-0.173-10.396,6.838-10.7,15.66-0.305,8.821,3.992,16.114,9.597,16.287z"/>
                                  <path id="path91760" d="M281.23,121.13"/>
                                 </g>
                                 <g id="g91762" stroke-width="0.5" stroke="#000" fill="none">
                                  <ellipse id="ellipse91764" d="m 295.18601,121.13 c 0,4.6171 -6.24831,8.36 -13.956,8.36 -7.70769,0 -13.956,-3.7429 -13.956,-8.36 0,-4.6171 6.24831,-8.36 13.956,-8.36 7.70769,0 13.956,3.7429 13.956,8.36 z" cx="281.23" cy="121.13" rx="13.956" ry="8.36" transform="matrix(-0.0325,0.9995,-0.9995,-0.0325,411.4414,-156.0187)"/>
                                  <path id="path91766" d="M281.23,121.13"/>
                                 </g>
                                 <line id="line91768" stroke-width="0.5" x1="266.77" x2="271.07" stroke="#000" y1="127.94" y2="121.7" fill="none"/>
                                 <line id="line91770" stroke-width="0.5" x1="269.01" x2="275.55" stroke="#000" y1="136.6" y2="134.7" fill="none"/>
                                 <line id="line91772" stroke-width="0.5" x1="277.98" x2="280.8" stroke="#000" y1="136.43" y2="146.23" fill="none"/>
                                 <line id="line91774" stroke-width="0.5" x1="285.46" x2="285.64" stroke="#000" y1="144.92" y2="135.04" fill="none"/>
                                 <line id="line91776" stroke-width="0.5" x1="288.63" x2="294.8" stroke="#000" y1="131.92" y2="129.5" fill="none"/>
                                 <line id="line91778" stroke-width="0.5" x1="291.62" x2="295.73" stroke="#000" y1="117.54" y2="121" fill="none"/>
                                 <line id="line91780" stroke-width="0.5" x1="272" x2="269.39" stroke="#000" y1="115.46" y2="107.84" fill="none"/>
                                 <path id="path91782" d="m273.12,101.94s1.495,2.772,4.672,4.332" stroke="#000" stroke-width="0.5" fill="none"/>
                                 <line id="line91784" stroke-width="0.5" x1="280.85" x2="286.39" stroke="#000" y1="105.33" y2="98.999" fill="none"/>
                                 <line id="line91786" stroke-width="0.5" x1="289.01" x2="289.94" stroke="#000" y1="110.44" y2="102.12" fill="none"/>
                                 <g id="g91788" stroke-width="0.5" stroke="#000" fill="none">
                                  <ellipse id="ellipse91790" d="m 290.888,121.24 c 0,2.30855 -3.12415,4.18 -6.978,4.18 -3.85384,0 -6.978,-1.87145 -6.978,-4.18 0,-2.30855 3.12416,-4.18 6.978,-4.18 3.85385,0 6.978,1.87145 6.978,4.18 z" cx="283.91" cy="121.24" rx="6.978" ry="4.18" transform="matrix(-0.0325,0.9995,-0.9995,-0.0325,414.3087,-158.5754)"/>
                                  <path id="path91792" d="M283.9,121.24"/>
                                 </g>
                                 <g id="g91794">
                                  <path id="path91796" d="m283.75,126.58c1.593,0.058,2.954-2.284,3.041-5.23,0.086-2.947-1.135-5.382-2.728-5.44s-2.955,2.284-3.041,5.23,1.135,5.382,2.728,5.44z"/>
                                  <path id="path91798" d="M283.9,121.24"/>
                                 </g>
                                 <path id="path91800" d="m284.13,114.26h-3.177c-2.307-0.076-4.28,2.985-4.405,6.837s1.644,7.036,3.951,7.112h3.177" stroke="#000" stroke-width="0.5" fill="none"/>
                                 <g id="g91802">
                                  <g id="g91804">
                                   <path id="path91806" d="m281.42,133.64c0.597,0.022,1.108-0.856,1.14-1.961,0.033-1.105-0.425-2.018-1.022-2.04-0.598-0.021-1.108,0.856-1.141,1.961-0.032,1.105,0.426,2.018,1.023,2.04z"/>
                                   <path id="path91808" d="M281.48,131.64"/>
                                  </g>
                                  <g id="g91810" stroke-width="0.5" stroke="#000" fill="none">
                                   <path id="path91812" d="m280.34,133.64c0.597,0.022,1.108-0.856,1.14-1.961,0.033-1.105-0.425-2.018-1.023-2.04-0.597-0.021-1.108,0.856-1.14,1.961-0.033,1.105,0.425,2.018,1.023,2.04z"/>
                                   <path id="path91814" d="M280.4,131.64"/>
                                  </g>
                                 </g>
                                 <g id="g91816">
                                  <g id="g91818">
                                   <path id="path91820" d="m281.42,113.02c0.597,0.022,1.108-0.856,1.14-1.961,0.033-1.105-0.425-2.018-1.022-2.04-0.598-0.022-1.108,0.856-1.141,1.961-0.032,1.105,0.426,2.018,1.023,2.04z"/>
                                   <path id="path91822" d="M281.48,111.02"/>
                                  </g>
                                  <g id="g91824" stroke-width="0.5" stroke="#000" fill="none">
                                   <path id="path91826" d="m280.34,113.02c0.597,0.022,1.108-0.856,1.14-1.961,0.033-1.105-0.425-2.018-1.023-2.04-0.597-0.022-1.108,0.856-1.14,1.961-0.033,1.105,0.425,2.018,1.023,2.04z"/>
                                   <path id="path91828" d="M280.4,111.02"/>
                                  </g>
                                 </g>
                                 <g id="g91830">
                                  <g id="g91832">
                                   <path id="path91834" d="m275.62,124.45c0.597,0.022,1.108-0.856,1.14-1.961,0.033-1.105-0.425-2.019-1.023-2.04-0.597-0.022-1.108,0.856-1.14,1.961-0.033,1.105,0.425,2.019,1.023,2.04z"/>
                                   <path id="path91836" d="M275.68,122.45"/>
                                  </g>
                                  <g id="g91838" stroke-width="0.5" stroke="#000" fill="none">
                                   <path id="path91840" d="m274.54,124.45c0.598,0.022,1.108-0.856,1.141-1.961s-0.425-2.019-1.023-2.04c-0.597-0.022-1.108,0.856-1.14,1.961-0.033,1.105,0.425,2.019,1.022,2.04z"/>
                                   <path id="path91842" d="M274.6,122.45"/>
                                  </g>
                                 </g>
                                 <g id="g91844">
                                  <path id="path91846" d="m288.71,122.37c0.597,0.021,1.108-0.857,1.14-1.961,0.032-1.105-0.425-2.019-1.023-2.041-0.597-0.021-1.108,0.856-1.14,1.961-0.033,1.105,0.425,2.019,1.023,2.041z"/>
                                  <path id="path91848" d="M288.76,120.37"/>
                                 </g>
                                </g>
                                <g id="g91850" fill="#FFF">
                                 <path id="path91852" d="m514.01,147.54c10.116,0.35,18.762-13.819,19.312-31.647,0.549-17.829-7.206-32.565-17.322-32.916s-18.763,13.819-19.312,31.647,7.206,32.566,17.322,32.916z"/>
                                 <path id="path91854" d="M515.01,115.26"/>
                                </g>
                                <g id="g91856" stroke-width="0.5" stroke="#000" fill="none">
                                 <path id="path91858" d="m514.13,144.95c8.938,0.322,16.578-12.713,17.063-29.115,0.486-16.402-6.366-29.96-15.304-30.282s-16.578,12.713-17.063,29.115c-0.486,16.401,6.366,29.959,15.304,30.282z"/>
                                 <path id="path91860" d="M515.01,115.26"/>
                                </g>
                                <path id="path91862" d="m504.99,139.17c0.575,0.157,1.163,0.249,1.763,0.27,7.472,0.264,13.766-9.295,14.202-23.758,0.404-13.384-5.299-24.448-12.739-24.711-0.771-0.027-1.53,0.063-2.271,0.26" stroke="#000" stroke-width="0.5" fill="none"/>
                                <path id="path91864" d="M507.48,115.21" stroke="#000" stroke-width="0.5" fill="none"/>
                                <path id="path91866" d="m503.11,136.27c1.16,0.778,2.411,1.223,3.723,1.271,6.579,0.242,12.203-9.561,12.56-21.896s-4.687-22.532-11.266-22.774c-1.43-0.053-2.814,0.369-4.108,1.188" stroke="#000" stroke-width="0.5" fill="none"/>
                                <path id="path91868" d="M507.48,115.21" stroke="#000" stroke-width="0.5" fill="none"/>
                                <path id="path91870" d="m506.97,90.011c6.529-0.355,9.794,7.037,9.794,7.037s-3.066-7.102-7.621-9.079l-2.173,2.042z"/>
                                <path id="path91872" d="m506.11,140.64c5.119-0.271,8.09-4.619,8.09-4.619s-2.653,4.891-6.749,6.114"/>
                                <path id="path91874" d="m503.01,136.11c0.866,0.607,1.833,1.082,2.9,1.343l-2.712-9.104-2.831,0.909"/>
                                <path id="path91876" d="m498.86,112.76c0.093-0.136,0.184-0.263,0.272-0.376,0.143-0.186,0.102-0.777-0.041-1.561"/>
                                <path id="path91878" d="m502.66,96.818c0.637,0.873,1.684,2.019,2.947,2.306l4.973-5.59c-1.539-0.878-4.006-1.165-6.528,0.455"/>
                                <path id="path91880" d="m515.86,98.805c1.657,2.875,3.465,8.784,3.465,13.416,0,0-4.219-3.514-4.219-4.631,0-1.119,0.754-8.785,0.754-8.785z"/>
                                <path id="path91882" d="m518.42,123.4c-0.753,3.354-1.959,7.986-5.877,11.659,0,0,0-7.027,0.603-8.625,0.302-0.798,3.617-1.597,5.274-3.034z"/>
                                <g id="g91884" stroke-width="0.5" stroke="#000" fill="none">
                                 <path id="path91886" d="m507.19,129.13c4.519,0.16,8.382-6.303,8.627-14.433,0.246-8.131-3.219-14.852-7.739-15.012-4.519-0.16-8.382,6.302-8.627,14.433s3.219,14.852,7.739,15.012z"/>
                                 <path id="path91888" d="M507.63,114.41"/>
                                </g>
                                <g id="g91890" stroke-width="0.5" stroke="#000" fill="none">
                                 <path id="path91892" d="m507.27,127.26c3.721,0.139,6.901-5.504,7.104-12.604,0.202-7.101-2.651-12.97-6.372-13.109-3.721-0.14-6.902,5.503-7.104,12.604s2.65,12.969,6.372,13.109z"/>
                                 <path id="path91894" d="M507.63,114.41"/>
                                </g>
                                <line id="line91896" stroke-width="0.5" x1="498.8" x2="499.43" stroke="#000" y1="115.99" y2="114.94" fill="none"/>
                                <line id="line91898" stroke-width="0.5" x1="500.12" x2="503.05" stroke="#000" y1="127.89" y2="126.91" fill="none"/>
                                <line id="line91900" stroke-width="0.5" x1="505.01" x2="507.29" stroke="#000" y1="128.51" y2="137.54" fill="none"/>
                                <line id="line91902" stroke-width="0.5" x1="511.04" x2="511.19" stroke="#000" y1="136.34" y2="127.23" fill="none"/>
                                <line id="line91904" stroke-width="0.5" x1="513.6" x2="518.57" stroke="#000" y1="124.36" y2="122.12" fill="none"/>
                                <line id="line91906" stroke-width="0.5" x1="516.01" x2="519.32" stroke="#000" y1="111.1" y2="114.3" fill="none"/>
                                <line id="line91908" stroke-width="0.5" x1="500.19" x2="499.58" stroke="#000" y1="109.19" y2="107.14" fill="none"/>
                                <path id="path91910" d="m502.04,98.213c0.622,0.813,1.557,1.797,2.824,2.508" stroke="#000" stroke-width="0.5" fill="none"/>
                                <line id="line91912" stroke-width="0.5" x1="507.32" x2="511.79" stroke="#000" y1="99.846" y2="94.013" fill="none"/>
                                <line id="line91914" stroke-width="0.5" x1="513.9" x2="514.65" stroke="#000" y1="104.55" y2="96.888" fill="none"/>
                                <g id="g91916" stroke-width="0.5" stroke="#000" fill="none">
                                 <path id="path91918" d="m509.6,120.94c1.86,0.07,3.451-2.751,3.552-6.302,0.101-3.55-1.325-6.485-3.186-6.554-1.86-0.07-3.451,2.751-3.552,6.302s1.326,6.485,3.186,6.554z"/>
                                 <path id="path91920" d="M509.79,114.51"/>
                                </g>
                                <g id="g91922">
                                 <path id="path91924" d="m509.66,119.43c1.285,0.054,2.382-2.105,2.452-4.821s-0.915-4.961-2.2-5.015c-1.284-0.053-2.382,2.105-2.452,4.821s0.915,4.961,2.2,5.015z"/>
                                 <path id="path91926" d="M509.79,114.51"/>
                                </g>
                                <path id="path91928" d="m509.97,108.08h-2.562c-1.86-0.07-3.451,2.751-3.552,6.302s1.325,6.485,3.186,6.555h2.562" stroke="#000" stroke-width="0.5" fill="none"/>
                                <g id="g91930">
                                 <g id="g91932">
                                  <path id="path91934" d="m507.78,125.94c0.482,0.02,0.894-0.79,0.919-1.808,0.026-1.018-0.343-1.86-0.825-1.88-0.481-0.02-0.893,0.79-0.919,1.808s0.343,1.86,0.825,1.88z"/>
                                  <path id="path91936" d="M507.83,124.1"/>
                                 </g>
                                 <g id="g91938" stroke-width="0.5" stroke="#000" fill="none">
                                  <path id="path91940" d="m506.91,125.94c0.481,0.02,0.893-0.79,0.919-1.808s-0.343-1.86-0.825-1.88-0.894,0.79-0.919,1.808c-0.026,1.018,0.343,1.86,0.825,1.88z"/>
                                  <path id="path91942" d="M506.96,124.1"/>
                                 </g>
                                </g>
                                <g id="g91944">
                                 <g id="g91946">
                                  <path id="path91948" d="m507.78,106.93c0.482,0.02,0.894-0.79,0.919-1.808,0.026-1.019-0.343-1.86-0.825-1.88-0.481-0.02-0.893,0.79-0.919,1.808-0.026,1.017,0.343,1.86,0.825,1.88z"/>
                                  <path id="path91950" d="M507.83,105.09"/>
                                 </g>
                                 <g id="g91952" stroke-width="0.5" stroke="#000" fill="none">
                                  <path id="path91954" d="m506.91,106.93c0.481,0.02,0.893-0.79,0.919-1.808s-0.343-1.86-0.825-1.88-0.894,0.79-0.919,1.808c-0.026,1.017,0.343,1.86,0.825,1.88z"/>
                                  <path id="path91956" d="M506.96,105.09"/>
                                 </g>
                                </g>
                                <g id="g91958">
                                 <g id="g91960">
                                  <path id="path91962" d="m503.11,117.47c0.482,0.02,0.894-0.79,0.92-1.808,0.026-1.019-0.343-1.86-0.825-1.88-0.481-0.021-0.893,0.789-0.919,1.808-0.026,1.018,0.343,1.86,0.824,1.88z"/>
                                  <path id="path91964" d="M503.16,115.63"/>
                                 </g>
                                 <g id="g91966" stroke-width="0.5" stroke="#000" fill="none">
                                  <path id="path91968" d="m502.24,117.47c0.482,0.02,0.894-0.79,0.919-1.808,0.026-1.019-0.343-1.86-0.825-1.88-0.481-0.021-0.894,0.789-0.919,1.808-0.026,1.018,0.343,1.86,0.825,1.88z"/>
                                  <path id="path91970" d="M502.28,115.63"/>
                                 </g>
                                </g>
                                <g id="g91972">
                                 <path id="path91974" d="m513.66,115.56c0.482,0.02,0.894-0.79,0.92-1.808,0.026-1.019-0.343-1.86-0.825-1.88s-0.894,0.789-0.92,1.808c-0.025,1.018,0.344,1.86,0.825,1.88z"/>
                                 <path id="path91976" d="M513.7,113.71"/>
                                </g>
                                <line id="line91978" stroke-width="0.5" x1="346.9" x2="346.6" stroke="#FFF" y1="62.95" y2="58.192" fill="none"/>
                                <line id="line91980" stroke-width="0.5" x1="349.53" x2="349.23" stroke="#FFF" y1="62.394" y2="58.242" fill="none"/>
                                <path id="path91982" d="m345.79,42.448s-1.417-17.82-3.24-27.54" stroke="#FFF" stroke-width="0.5" fill="none"/>
                                <path id="path91984" d="m348.42,42.245s-1.356-17.389-3.442-28.958" stroke="#FFF" stroke-width="0.5" fill="none"/>
                                <path id="path91986" d="m333.49,64.63s10.672-0.496,22.021-3.766c11.35-3.271,68.18-14.641,98.383-16.18-5.037-11.146-34.708-23.034-45.288-27.458-10.581-4.424-29.625-7.118-45.785-6.733-14.579,0.347-18.522,0.77-25.2,9.426-15.582,20.199-24.786,40.104-24.786,40.104" stroke="#FFF" stroke-width="0.5" fill="none"/>
                                <g id="g91988">
                                 <path id="path91990" d="m406.54,50.345c0-16.2-12.353-37.259-12.353-37.259" stroke="#FFF" stroke-width="0.5" fill="none"/>
                                </g>
                                <g id="g91992">
                                 <path id="path91994" d="m409.17,49.535c0-14.782-11.34-35.437-11.34-35.437" stroke="#FFF" stroke-width="0.5" fill="none"/>
                                </g>
                                <g id="g91996">
                                 <path id="path91998" d="m414.03,48.725c0-14.175-10.328-33.007-10.328-33.007" stroke="#FFF" stroke-width="0.5" fill="none"/>
                                </g>
                                <path id="path92000" d="m412.61,49.333c0-14.175-10.732-34.222-10.732-34.222" stroke="#FFF" stroke-width="0.5" fill="none"/>
                                <g id="g92002">
                                 <path id="path92004" d="m410.59,49.535c0-14.782-11.34-35.437-11.34-35.437" stroke="#FFF" stroke-width="0.5" fill="none"/>
                                </g>
                                <path id="path92006" d="m238.62,6.169c17.121,0.577,62.45,2.319,75.339,2.704s18.467,0.192,12.696,7.118-19.237,27.124-25.97,40.783" stroke="#FFF" stroke-width="0.5" fill="none"/>
                                <path id="path92008" d="m156.31,135.98s1.019-3.22-2.228-3.24c-14.256-0.088-16.131,0.589-16.852,2.697-0.874,2.553-2.402,11.892-2.402,11.892s-2.742,2.939,14.036,1.638c2.059-0.16,5.108-0.994,5.108-3.626,0-2.633,2.338-9.361,2.338-9.361z"/>
                                <path id="path92010" d="m158.58,134.91s0.547-4.792-3.746-4.819c-18.854-0.116-26.435-1.23-27.389,1.557-1.156,3.377-7.729,18.003-7.729,18.003s-6.058,2.939,28.217,1.9c2.73-0.083,7.557-0.781,7.557-4.262s3.09-12.379,3.09-12.379z" stroke="#000" stroke-width="0.5" fill="none"/>
                                <path id="path92012" d="m111.94,149.41c6.797-0.341,14.805-19.291,8.162-19.364,0,0-29.657-1.796-62.796-3.183-33.821-1.416-36.122-0.514-36.122-0.514l-1.068,8.31c0.355,7.719,2.041,7.97,10.206,9.72,10.206,2.186,65.883,5.694,81.618,5.031z" stroke="#000" stroke-width="0.5" fill="none"/>
                                <path id="path92014" d="m15.714,136c-0.267,3.993-1.068,6.662-4.271,6.128s-6.406-1.068-6.406-3.203-0.267-8.808,0.267-11.477,2.402-2.669,7.74-2.135" stroke="#000" stroke-width="0.5" fill="none"/>
                                <path id="path92016" d="m250.59,113.57c-20.285,2.669-45.908,6.406-62.723,9.342s-34.965,1.868-58.719,1.334c-23.755-0.534-68.875-2.224-88.88-3.737-31.763-2.39-35.5-2.39-35.5-5.33" stroke="#000" stroke-width="2" fill="none"/>
                                <path id="path92018" d="m237.51,74.334c-8.808,3.47-32.029,17.349-35.231,19.217,0,0-8.808-4.003-31.762-6.939,8.541-6.139,29.093-16.014,34.164-17.349,11.209,0.534,32.829,5.071,32.829,5.071z" stroke="#000" stroke-width="0.5" fill="none"/>
                                <path id="path92020" d="m123.28,123.98c-1.868-2.135-1.075-3.5,2.669-6.672,34.965-29.626,68.328-51.513,108.9-59.521,11.744-1.868,20.818-2.402,29.359-1.334s22.954,3.47,33.363,3.737c9.873,0.253,15.214-0.801,15.214-0.801" stroke="#000" stroke-width="0.5" fill="none"/>
                                <path id="path92022" d="m192.4,60.455c-1.584,0.352-14.146,5.338-14.946,7.207-0.801,1.868,10.142,0.8,15.747-0.534,5.605-1.335,13.346-3.737,13.346-5.338s-11.744-1.869-14.147-1.335z" stroke="#000" stroke-width="0.5" fill="none"/>
                                <path id="path92024" d="m192.9,62.089c-3.162,1.035-12.503,5.573-12.503,5.573" stroke="#000" stroke-width="0.5" fill="none"/>
                                <line id="line92026" stroke-width="0.5" x1="192.67" x2="180.93" stroke="#000" y1="64.992" y2="67.662" fill="none"/>
                                <path id="path92028" d="m4.771,111.97c0,2.936,3.737,2.936,35.499,5.338,20.005,1.513,65.125,3.203,88.88,3.737,23.754,0.534,44.568-0.106,59.253-8.808,7.207-4.271,33.363-22.42,56.317-33.363,21.886-9.342,50.178-16.815,81.673-15.214,5.872,0,4.804,6.406,4.804,6.406s3.737,1.068,34.698-2.669,69.396-11.21,91.282-16.014c21.887-4.805,41.104-6.94,68.328-6.94,14.146-1.067,15.263-0.821,14.413-16.548-0.534-9.875-1.068-13.346-1.602-16.281-0.534-2.936,0.267-3.203,3.203-3.737s9.876-1.334,9.876-1.334" stroke="#000" stroke-width="0.5" fill="none"/>
                                <path id="path92030" d="m368.03,67.128c-4.003,0.534-2.135,1.868,4.271,0.8,6.406-1.067,54.716-8.808,56.317-8.007s6.672,12.277,4.804,13.879-4.804,1.868-11.744,1.068c-6.939-0.801-29.093-2.136-44.573-2.136,0,0,36.833,3.203,46.976,4.004s17.616,1.334,19.751,1.334,1.602-4.804,1.602-8.274,0.267-10.676-1.334-12.278c-1.602-1.602-4.538-1.868-14.947-0.801" stroke="#000" stroke-width="0.5" fill="none"/>
                                <path id="path92032" d="m414.47,50.046c4.537,1.601,10.943,4.537,13.612,6.139s-0.534,2.936-2.135,4.271c-1.493,1.244,2.669,13.345,3.737,14.68,1.068,1.334,3.47,0.801,3.47,3.47s-1.067,16.815-3.47,21.887c-2.402,5.071-7.207,15.747-10.143,19.751-2.936,4.003-8.007,10.943-10.676,12.011" stroke="#000" stroke-width="0.5" fill="none"/>
                                <path id="path92034" d="m320.52,153.6c4.804-7.741,4.271-33.363,2.669-41.104s-0.801-7.741,1.068-8.007c1.868-0.267,1.601-1.869,1.601-1.869l-3.203-11.744h2.402l3.203,11.744h1.602c1.334-6.139,1.334-27.491,1.334-32.563-11.329-1.168-25.841-3.193-44.066,0.182s-48.6,15.524-65.137,24.3" stroke="#000" stroke-width="0.5" fill="none"/>
                                <path id="path92036" d="m322.66,106.1c2.936,0.8,7.473,0.267,8.808-0.534,1.869,10.676,3.203,26.157,2.402,32.563,0,0,57.385-4.271,72.065-5.338,14.68-1.068,54.982-2.402,62.456-2.402,7.473,0,5.605-1.868-2.135-1.601-7.741,0.267-54.449,1.334-54.449,1.334" stroke="#000" stroke-width="0.5" fill="none"/>
                                <path id="path92038" d="m426.48,113.3c0,2.135,2.669,3.203,7.74,4.004s14.947,2.936,18.683,4.271c3.737,1.334,10.1,3.367,12.023,2.2,2.523-1.533-0.279-2.467,1.589-11.542,1.869-9.075,2.402-12.278-0.801-11.744s-14.146,6.939-22.954,9.075c-8.806,2.135-16.28,1.601-16.28,3.736z" stroke="#000" stroke-width="0.5" fill="none"/>
                                <path id="path92040" d="m310.11,137.46c3.203,0.801,5.605,1.067,8.808-0.267l1.334-33.764c1.602,0,2.536-0.667,2.536-1.468v-15.48h2.269l0.8,4.137,3.203,12.011s6.406-0.4,31.495-2.001c25.089-1.602,57.118-4.538,81.673-4.804,24.556-0.267,43.239-1.869,43.239-1.869" stroke="#000" stroke-width="2" fill="none"/>
                                <path id="path92042" d="m315.05,101.56c-3.203,0.801-7.473-1.201-7.473-1.201" stroke="#000" stroke-width="0.5" fill="none"/>
                                <polyline id="polyline92044" stroke="#000" points="328.26,102.63,329.06,104.5,326.39,104.76,325.86,102.63" stroke-width="0.5" fill="none"/>
                                <path id="path92046" d="m331.46,105.56c0.801-1.067-2.402-2.936-2.402-2.936" stroke="#000" stroke-width="0.5" fill="none"/>
                                <path id="path92048" d="m498.28,71.398c0.801-3.737,0.267-5.338-3.47-9.875s-9.341-13.879-13.078-14.413-16.815,0.534-20.018-1.067c-3.203-1.602-2.135-2.936-5.338-7.74s-13.078-18.95-35.765-28.025" stroke="#000" stroke-width="0.5" fill="none"/>
                                <path id="path92050" d="m455.04,45.508c5.605,0,13.079-0.801,17.883-2.936s10.424-3.887,10.424-3.887" stroke="#000" stroke-width="0.5" fill="none"/>
                                <path id="path92052" d="m543.92,5.739s-6.673,0.534-8.274,1.868c-1.602,1.334-0.641,2.156-0.641,2.156" stroke="#000" stroke-width="0.5" fill="none"/>
                                <path id="path92054" d="m411.38,4.786c-5.181,0.153-12.387-1.182-14.255-0.648s-2.402,0.801-2.402,0.801" stroke="#000" stroke-width="0.5" fill="none"/>
                                <path id="path92056" d="m555.61,85.781c0.737,0,1.334-0.597,1.334-1.334l-1.013-24.525c0-0.737-0.598-1.335-1.334-1.335-0.737,0-1.334,0.598-1.334,1.335l1.012,24.525c0,0.737,0.598,1.334,1.335,1.334z" stroke="#000" stroke-width="0.5" fill="none"/>
                                <path id="path92058" d="m558.28,85.781c0.737,0,1.334-0.597,1.334-1.334l-1.01-25.06c0-0.737-0.597-1.334-1.334-1.334s-1.334,0.598-1.334,1.334l1.013,25.06c-0.001,0.737,0.597,1.334,1.334,1.334z" stroke="#000" stroke-width="0.5" fill="none"/>
                                <path id="path92060" d="m560.95,85.781c0.737,0,1.334-0.597,1.334-1.334l-1.013-25.593c0-0.737-0.597-1.334-1.334-1.334s-1.335,0.597-1.335,1.334l1.013,25.593c0,0.737,0.598,1.334,1.335,1.334z" stroke="#000" stroke-width="0.5" fill="none"/>
                                <path id="path92062" d="m563.62,85.922c0.737,0,1.334-0.597,1.334-1.334l-1.01-26.268c0-0.737-0.598-1.334-1.334-1.334-0.737,0-1.335,0.597-1.335,1.334l1.013,26.268c-0.001,0.737,0.597,1.334,1.334,1.334z" stroke="#000" stroke-width="0.5" fill="none"/>
                                <polygon id="polygon92064" stroke="#000" points="466.78,87.146,466.78,93.551,482.8,92.884,482.8,86.479" stroke-width="0.5" fill="none"/>
                                <g id="g92066" stroke-width="0.5" stroke="#000" fill="none">
                                 <ellipse id="ellipse92068" d="m 245.36199,99.269997 c 0,1.054313 -0.64113,1.909003 -1.432,1.909003 -0.79087,0 -1.432,-0.85469 -1.432,-1.909003 0,-1.054312 0.64113,-1.909 1.432,-1.909 0.79087,0 1.432,0.854688 1.432,1.909 z" cx="243.93" rx="1.432" cy="99.27" ry="1.909"/>
                                 <path id="path92070" d="M243.93,99.27"/>
                                </g>
                                <path id="path92072" d="m17.808,114.46c12.15-19.24,79.922-57.841,112.72-60.078,14.85-1.012,9.282,1.356,5.906,2.025-39.15,7.763-80.493,25.987-117.28,58.387" stroke="#000" stroke-width="0.5" fill="none"/>
                                <path id="path92074" d="m31.983,85.601c3.206-0.337,15.525-2.869,22.613-2.7,7.594-5.231,23.793-14.175,34.087-17.55-5.231,0-20.418,1.35-25.649,3.207-5.233,1.856-23.964,12.149-31.051,17.043z" stroke="#000" stroke-width="0.5" fill="none"/>
                                <path id="path92076" d="m49.701,86.107c-6.244,3.543-19.912,11.644-30.543,23.287-6.75-0.337-8.775-0.675-9.281-2.362,5.231-7.256,14.85-15.188,17.887-17.719,7.256-2.024,20.419-3.712,21.937-3.206z" stroke="#000" stroke-width="1.5" fill="#FFF"/>
                                <path id="path92078" d="m196.34,97.245c-6.24-2.362-25.98-6.075-31.38-6.075-7.932,4.387-29.194,21.262-33.919,25.987,12.656,0.337,31.388-0.169,36.112-0.844,4.725-0.675,9.788-5.4,17.212-10.631,7.426-5.231,11.982-8.437,11.982-8.437z" stroke="#000" stroke-width="1.5" fill="#FFF"/>
                                <path id="path92080" d="m142.01,53.876c6.75-0.506,16.369-1.181,23.625-5.231" stroke="#000" stroke-width="1.5" fill="none"/>
                                <polygon id="polygon92082" points="139.1,63.405,147.2,60.772,135.86,60.57,134.44,63.81"/>
                                <path id="path92084" d="m135.54,59.442c-1.585,0.353-16.171,5.507-16.972,7.375s12.505-0.381,18.11-1.715,12.839-3.23,12.839-4.832c0.001-1.601-11.575-1.361-13.977-0.828z" stroke="#000" stroke-width="0.5" fill="none"/>
                                <path id="path92086" d="m135.86,60.57c-3.162,1.036-14.022,5.742-14.022,5.742" stroke="#000" stroke-width="0.5" fill="none"/>
                                <line id="line92088" stroke-width="0.5" x1="135.63" x2="122.37" stroke="#000" y1="63.474" y2="66.312" fill="none"/>
                                <path id="path92090" d="m144.71,43.92c-1.013,3.207,3.375,3.544,5.063,3.713,1.688,0.168,3.741,1.989,1.688,2.362-3.713,0.675-2.7,2.869-2.7,2.869" stroke="#000" stroke-width="0.5" fill="none"/>
                                <path id="path92092" d="m153.65,42.57c2.7,1.856-1.35,4.556-1.35,4.556" stroke="#000" stroke-width="0.5" fill="none"/>
                                <path id="path92094" d="m3.97,125.93s1.35-4.388,4.725-3.375c3.375,1.012,30.712,2.025,43.537,2.362s67.5,2.363,75.262,2.025c7.762-0.337,27.675,1.013,32.062,1.688,4.388,0.675,0.675,8.1-0.337,13.837-1.012,5.738-1.688,9.45-6.413,10.462-4.725,1.013-23.287,0.338-28.012,0-4.725-0.337-3.375,1.688,3.375,3.712,10.125,2.7,37.8,3.713,49.612,3.375" stroke="#000" stroke-width="0.5" fill="none"/>
                                <polygon id="polygon92096" stroke="#000" points="77.208,106.19,68.433,113.28,74.676,113.44,83.451,106.36" stroke-width="0.5" fill="none"/>
                                <path id="path92098" d="m392.26,14.558c-11.813-1.688-37.8-2.7-42.525-0.337s-1.013,3.375-1.013,3.375,12.825,1.35,17.55,2.363c4.725,1.012,5.4,3.375,5.4,11.812l0.337,4.388c12.487,2.025,29.362,0,29.362,0-4.06-13.839-9.12-21.601-9.12-21.601z" fill="#FFF"/>
                                <path id="path92100" d="m408.12,19.958s4.05,7.762,6.075,15.524l8.1-1.012c3.375-1.012-2.025-8.1-14.175-14.512z" fill="#FFF"/>
                                <path id="path92102" d="m332.52,51.683c4.05-2.7,7.087,0,6.075,2.362-1.013,2.362-1.688,4.725-1.688,4.725" stroke="#000" stroke-width="0.5" fill="none"/>
                                <path id="path92104" d="m328.14,58.77c1.688-0.675,5.062,1.35,5.4,3.038" stroke="#000" stroke-width="0.5" fill="none"/>
                                <path id="path92106" d="m334.55,48.982c1.688-3.037,8.775-4.725,18.225-4.05" stroke="#000" stroke-width="0.5" fill="none"/>
                                <path id="path92108" d="m331.68,79.02c17.212-2.025,36.112-2.7,44.887-2.025s61.425,2.362,66.487,2.7c5.063,0.337,3.713-1.35,4.05-2.362,0.337-1.013,0.675-2.7,5.063-2.7,4.387,0,21.262,0.675,27-0.337,5.738-1.013,18.225-6.075,25.313-10.8,7.087-4.725,29.7-3.375,41.85-6.075s20.814-3.084,20.701-7.617" stroke="#000" stroke-width="0.5" fill="none"/>
                                <path id="path92110" d="m323.72,80.473c2.536-2.402,4.271-7.473,2.669-14.68-1.869-0.267-6.94,0-8.541,0.667,0.001,0,2.136,10.543,5.872,14.013z" stroke="#000" stroke-width="0.5" fill="#FFF"/>
                                <path id="path92112" d="m196.54,47.913s28.957-19.642,36.854-22.882l-5.67,7.492s21.87-15.592,41.512-25.312c0,0-37.057,23.287-49.611,35.437l4.455-8.91c-11.745,5.67-27.54,14.175-27.54,14.175z" fill="#FFF"/>
                                <path id="path92114" d="m212.57,49.263s28.957-19.642,36.854-22.882l-5.67,7.493s21.87-15.592,41.512-25.312c0,0-37.057,23.287-49.611,35.437l4.455-8.91c-11.745,5.669-27.54,14.174-27.54,14.174z" fill="#FFF"/>
                                <path id="path92116" d="m508.53,142.28c4.681,0.166,8.942-3.166,11.838-8.999" stroke="#000" stroke-width="0.5" fill="none"/>
                                <path id="path92118" d="m521.99,129.33c0.14-0.417,0.273-0.842,0.401-1.276" stroke="#000" stroke-width="0.5" fill="none"/>
                                <path id="path92120" d="m523.11,125.25c0.608-2.791,0.985-5.862,1.085-9.166,0.445-14.756-5.843-26.954-14.045-27.244-0.85-0.03-1.687,0.069-2.504,0.287" stroke="#000" stroke-width="0.5" fill="none"/>
                                <line id="line92122" stroke-width="0.5" x1="128.4" x2="136.91" stroke="#000" y1="132.25" y2="134.28" fill="none"/>
                                <line id="line92124" stroke-width="0.5" x1="133.67" x2="137.72" stroke="#000" y1="130.84" y2="133.47" fill="none"/>
                                <line id="line92126" stroke-width="0.5" x1="133.67" x2="121.32" stroke="#000" y1="147.44" y2="149.67" fill="none"/>
                                <line id="line92128" stroke-width="0.5" x1="133.87" x2="130.43" stroke="#000" y1="149.26" y2="150.68" fill="none"/>
                                <path id="path92130" d="m428.62,59.921c2.922-0.365,5.251-0.465,5.251-0.465" stroke="#000" stroke-width="0.5" fill="none"/>
                                <path id="path92132" d="m426.68,75.554c3.442,0.405,13.566,0.407,16.908,0.102l-4.658-0.607c0.001-0.001-9.617,0.505-12.25,0.505z" stroke="#000" stroke-width="0.5" fill="none"/>
                                <path id="path92134" d="m389.12,14.704c-0.81,5.265,1.62,17.415-2.835,19.035s-9.315,4.05-9.315,4.05" stroke="#000" stroke-width="1.5" fill="none"/>
                               </g>
                              </g>
                             </g>
                            </g>
                           </g>
                          </g>
                         </g>
                        </g>
                       </g>
                      </g>
                     </g>
                    </g>
                   </g>
                  </g>
                 </g>
                </g>
               </g>
              </g>
             </g>
            </g>
           </g>
          </g>
         </g>
        </g>
       </g>
      </g>
     </g>
    </g>
   </g>
  </g>
 </g>
</svg>
