<?xml version="1.0" encoding="UTF-8" standalone="no"?>
<!-- Created with Inkscape (http://www.inkscape.org/) -->
<svg id="svg2" xmlns:rdf="http://www.w3.org/1999/02/22-rdf-syntax-ns#" xmlns="http://www.w3.org/2000/svg" height="45" width="67.5" version="1.1" xmlns:cc="http://creativecommons.org/ns#" xmlns:dc="http://purl.org/dc/elements/1.1/">
 <metadata id="metadata7">
  <rdf:RDF>
   <cc:Work rdf:about="">
    <dc:format>image/svg+xml</dc:format>
    <dc:type rdf:resource="http://purl.org/dc/dcmitype/StillImage"/>
    <dc:title/>
   </cc:Work>
  </rdf:RDF>
 </metadata>
 <g id="g4078">
  <rect id="rect2990" opacity="0" height="45" width="67.5" y="0" x="3.5527e-15"/>
  <path id="path4076" d="m38.562 38.478c-0.33009-0.08179-0.82145-0.26313-1.0919-0.40297-0.6505-0.33633-1.6566-1.4512-1.9112-2.1179-0.13097-0.34292-0.26022-0.51178-0.36188-0.47276-0.18139 0.0696-0.56268-0.44875-0.51077-0.69439 0.0507-0.2399-0.57069-0.27604-0.89083-0.05181-0.14753 0.10334-0.34073 0.18788-0.42933 0.18788s-0.29908 0.16398-0.46772 0.36441c-0.52874 0.62837-0.83494 0.71589-2.5046 0.71589-1.6264 0-2.1355-0.1303-2.5481-0.65211-0.20023-0.25326-0.26722-0.25991-2.111-0.20988-1.2154 0.03298-1.9318 0.0076-1.9806-0.07024-0.0939-0.14989-3.0172-0.24988-3.0172-0.1032 0 0.05769-0.31058 0.07802-0.69019 0.04519s-0.96651-0.0029-1.3042 0.06655c-0.54806 0.11268-0.66162 0.09815-1.0572-0.13522-0.39921-0.23554-0.61204-0.26143-2.1468-0.26117l-1.7036 0.00024-0.34552 0.66125c-0.46092 0.88212-1.5589 1.8851-2.4411 2.23-0.96364 0.37667-4.0771 0.48055-5.1526 0.17191-2.1964-0.63026-3.7352-2.4722-4.0643-4.8652-0.0637-0.46325-0.1675-0.70931-0.36458-0.86434-0.43439-0.34169-1.1229-1.8613-1.2685-2.7999-0.3139-2.0228-0.25156-3.1767 0.17163-3.1767 0.0827 0 0.35091-0.23985 0.59596-0.533 0.41947-0.50183 0.44553-0.58145 0.44553-1.3612 0-0.94641 0.34031-2.4087 0.75408-3.2402 0.68352-1.3736 3.4277-2.7271 7.7279-3.8114 1.1442-0.28851 2.175-0.57858 2.2907-0.6446 0.18295-0.10437 0.15838-0.13842-0.18828-0.26096-0.44613-0.1577-0.6216-0.49128-0.6216-1.1817 0-0.72428 0.21182-1.1697 0.65667-1.3808 0.47427-0.22505 2.1779-0.26038 2.6297-0.05453 0.27774 0.12654 0.39207 0.0475 1.7796-1.2303 4.2886-3.9497 6.0776-5.1507 8.3932-5.6345 1.6074-0.33585 6.6625-0.41687 15.229-0.24406 10.902 0.21992 12.61 0.41309 14.704 1.663 1.2123 0.7235 5.0133 4.7652 6.6455 7.0664 0.40911 0.57676 0.47498 0.6194 1.0503 0.67984 1.4586 0.15322 2.8037 1.2258 3.6473 2.9084l0.42012 0.83786 0.002 1.9274 0.002 1.9274 0.39128 0.47323c0.60649 0.73352 0.69278 1.1751 0.44619 2.2835-0.36137 1.6243-0.54376 2.0979-1.0061 2.6124-0.24649 0.27431-0.73413 0.89035-1.0836 1.369-0.3495 0.47864-0.68047 0.87024-0.7355 0.87024-0.055 0-0.13276 0.31059-0.17277 0.6902-0.29988 2.8454-0.98871 4.4033-2.0811 4.7067-0.24431 0.06785-1.0816 0.12367-1.8606 0.12404-1.5839 0.00072-1.8593-0.08558-2.4615-0.77139-0.35131-0.40012-0.86351-1.7296-0.86351-2.2414 0-0.13467-0.0838-0.22742-0.20555-0.22742-0.11305 0-0.31561-0.13508-0.45012-0.30017-0.23839-0.29256-0.28716-0.3006-1.9251-0.31717-1.5284-0.01547-2.7561 0.08974-3.721 0.31887-0.19805 0.04703-0.81923 0.10808-1.3804 0.13567-1.2817 0.06301-1.9205 0.15991-1.9205 0.29129 0 0.05622-0.1007 0.19886-0.22377 0.31696s-0.34664 0.59284-0.49681 1.055c-0.55516 1.7083-1.2251 2.7344-2.1326 3.2662-0.50539 0.29618-0.69614 0.3293-2.3593 0.40968-2.4627 0.11901-3.0309 0.10926-3.73-0.06398zm4.9075-1.8968c0.73569-0.21643 1.7654-1.2898 2.103-2.1922 0.52443-1.4017 0.62263-2.6733 0.30912-4.0031-0.63521-2.6945-2.6031-4.1203-4.4025-3.1898-0.19727 0.10201-0.33165 0.21248-0.29865 0.24549s0.2244-0.02499 0.42532-0.12888c0.50529-0.2613 1.4852-0.2409 2.0406 0.04248 1.3364 0.68177 2.1776 2.4486 2.1776 4.5734 0 2.5487-1.3393 4.5579-3.0382 4.5579-0.63557 0-1.286-0.20855-1.2495-0.40063 0.0146-0.07674-0.0654-0.12426-0.17767-0.1056-0.44005 0.07311-1.4997-1.6812-1.7394-2.8797-0.0364-0.18219-0.11043-0.30394-0.16443-0.27057s-0.0145 0.34308 0.0879 0.68825c0.48124 1.6233 1.4042 2.7492 2.5319 3.0888 0.47961 0.14441 0.83871 0.13776 1.3948-0.02583zm0.36844-0.48749c1.0757-0.6093 1.7529-2.0153 1.838-3.8164 0.0837-1.7717-0.30207-3.1238-1.1751-4.1181-0.79517-0.90565-2.012-1.1783-3.0028-0.67283-0.63386 0.32337-0.6086 0.40641 0.0348 0.11436 0.69912-0.31734 0.81023-0.29962 0.81023 0.12923 0 0.80829-0.79119 1.5976-1.3185 1.3154-0.20368-0.10901-0.24625-0.08072-0.31065 0.20642-0.0411 0.18301-0.11676 0.50007-0.16827 0.70458-0.0515 0.20451-0.0667 0.74758-0.0339 1.2068 0.0494 0.69034 0.0159 0.92081-0.19306 1.3305-0.13904 0.27254-0.30768 0.52944-0.37475 0.5709-0.0671 0.04146-0.008-0.11692 0.13017-0.35196 0.30448-0.51605 0.25002-0.55783-0.10363-0.0795-0.24954 0.33753-0.25149 0.36775-0.0659 1.0203 0.1861 0.65417 0.3058 0.79857 0.45793 0.55242 0.0408-0.06602 0.27765-0.12003 0.52632-0.12003 0.62966 0 0.99056 0.40462 1.0666 1.1958 0.0356 0.37025 0.003 0.66941-0.0836 0.77411-0.17524 0.21114 0.0257 0.2776 0.89141 0.29484 0.41726 0.0083 0.74479-0.06996 1.0747-0.25684zm-0.93468-0.04735c-0.044-0.04401-0.08-0.29248-0.08-0.55216 0-0.37689 0.0823-0.55446 0.40812-0.88025 0.47327-0.47327 0.85825-0.51954 1.3174-0.15834l0.31753 0.24977-0.25966 0.36467c-0.26093 0.36644-1.232 1.0563-1.4868 1.0563-0.0751 0-0.17255-0.03601-0.21657-0.08002zm1.6172-1.4844c-0.15585-0.12984-0.42593-0.2312-0.60017-0.22525-0.30043 0.01027-0.29695 0.01656 0.0674 0.12193 0.21131 0.06111 0.41706 0.16427 0.45721 0.22924 0.0402 0.06497 0.13734 0.11634 0.21597 0.11414 0.0787-0.0022 0.0154-0.11023-0.14042-0.24007zm0.51141-0.9281c-0.2448-0.16346-0.41019-0.61335-0.48271-1.313-0.088-0.84909 0.10783-1.6415 0.46818-1.8943 0.25037-0.17569 0.2714-0.17047 0.3447 0.08563 0.10285 0.35935 0.11939 2.192 0.025 2.7634-0.0763 0.46159-0.1257 0.51144-0.35511 0.35826zm0.19209-0.13536c0-0.05895-0.0887-0.14122-0.19703-0.1828-0.16475-0.06322-0.17217-0.04565-0.0453 0.10719 0.17287 0.20829 0.24235 0.22997 0.24235 0.0756zm0-2.9309c0-0.06602-0.10803-0.02227-0.24007 0.09723-0.13204 0.11949-0.24007 0.27127-0.24007 0.33729s0.10803 0.02227 0.24007-0.09722 0.24007-0.27127 0.24007-0.33729zm-2.4078 2.7294c-0.18304-0.22056-0.0198-0.59159 0.26027-0.59159 0.22819 0 0.27825 0.46821 0.0687 0.64216-0.13269 0.11013-0.20474 0.09905-0.32892-0.05057zm-1.1177-0.35432c-0.10476-0.27302 0.14292-0.69136 0.36002-0.60805 0.11183 0.04292 0.14612 0.01786 0.093-0.068-0.0462-0.07477-0.0799-0.28059-0.0749-0.45736 0.007-0.25405-0.0449-0.31959-0.24855-0.31279-0.3016 0.01008-0.41686-0.3365-0.19916-0.59881 0.16664-0.20079 0.47412-0.02908 0.47412 0.26478 0 0.13622 0.0573 0.13056 0.30218-0.02988 0.23116-0.15145 0.27115-0.2354 0.17014-0.35711-0.18345-0.22105-0.0196-0.67364 0.22675-0.6262 0.27473 0.05291 0.32196 0.42955 0.0865 0.68974-0.17455 0.19288-0.17569 0.224-0.0105 0.28739 0.10187 0.03909 0.18695 0.1673 0.18905 0.28491 0.003 0.2 0.0149 0.19926 0.17428-0.01128 0.20469-0.2703 0.54211-0.17904 0.54211 0.14663 0 0.31057-0.27563 0.53507-0.44679 0.36391-0.0919-0.09195-0.17555-0.03337-0.29122 0.20405-0.0892 0.18317-0.24327 0.35366-0.3423 0.37887-0.13793 0.03511-0.13404 0.01648 0.0166-0.07963 0.30273-0.19314 0.38417-0.70875 0.16481-1.0435-0.38653-0.58993-0.93237 0.19779-0.59185 0.85413 0.0859 0.16551 0.10907 0.30093 0.0515 0.30093-0.0575 0-0.12183 0.12098-0.14293 0.26885-0.0458 0.32076-0.39705 0.42445-0.50296 0.14847zm1.9822-3.6021c-0.61241-0.51531-0.81598-1.7366-0.28946-1.7366 0.26964 0 1.4726 1.2802 1.4726 1.5671 0 0.23183-0.32819 0.47344-0.64309 0.47344-0.0983 0-0.34131-0.1368-0.54003-0.30401zm0.95836-0.02608c0.15238-0.19431 0.14673-0.19685-0.0753-0.03397-0.13203 0.09685-0.26257 0.19138-0.29008 0.21006-0.0275 0.01868 0.006 0.03397 0.0753 0.03397 0.069 0 0.19948-0.09453 0.29009-0.21006zm-2.8295 5.6647c-0.0402-0.214-0.15116-0.45396-0.24669-0.53325-0.1433-0.11893-0.14115-0.07893 0.0123 0.2287 0.1023 0.20506 0.17642 0.54808 0.1647 0.76226-0.0291 0.53266 0.0275 0.70732 0.0908 0.28044 0.0285-0.19198 0.019-0.52414-0.0211-0.73815zm21.065-0.35984c0.13796-0.16623 0.11949-0.17053-0.16861-0.03927-0.25597 0.11663-0.35419 0.11653-0.47033-0.00048-0.11599-0.11687-0.10179-0.13076 0.0678-0.06621 0.12908 0.04915 0.30029 0.0041 0.42986-0.11318 0.11843-0.10718 0.25431-0.15589 0.30195-0.10824 0.0476 0.04765 0.0476-0.01512-0.00012-0.13946-0.0599-0.15628-0.0439-0.19955 0.0523-0.14015 0.0928 0.05736 0.11362 0.01965 0.0626-0.1134-0.0643-0.16767-0.10668-0.14959-0.2665 0.1138-0.23285 0.38376-0.32549 0.39332-0.4171 0.04306-0.10732-0.4104 0.0455-1.1357 0.28502-1.3525 0.19742-0.17867 0.22682-0.17412 0.39116 0.0605 0.17376 0.24808 0.17899 0.24494 0.23691-0.14242 0.0338-0.22594 0.002-0.43285-0.0755-0.48163-0.15032-0.09541-0.16411-2.5749-0.019-3.4055 0.0697-0.39898 0.0511-0.49014-0.0998-0.49014-0.10201 0-0.15765 0.04501-0.12365 0.10003 0.14287 0.23116-0.19481 0.07717-0.36566-0.16675-0.1908-0.2724-0.27318-1.6674-0.0968-1.6396 0.25777 0.0407 0.28567-0.0381 0.09-0.25428-0.1195-0.13204-0.30855-0.24007-0.42012-0.24007-0.25785 0-0.6596 0.42924-0.49625 0.53019 0.0658 0.04064 0.15348 0.019 0.19495-0.0481 0.1947-0.31503 0.3301-0.09409 0.25922 0.423-0.12794 0.93349-0.45779 1.3017-0.66778 0.74537-0.0825-0.21848-0.11461-0.14396-0.16823 0.39011-0.0818 0.81532-0.06 1.2008 0.0635 1.1244 0.14435-0.08921 0.11211 1.6695-0.0385 2.1016-0.18656 0.53515-0.0483 1.2087 0.23312 1.1351 0.3063-0.0801 0.49988 0.4236 0.49988 1.3008 0 0.67588-0.0154 0.71746-0.21006 0.56814-0.11554-0.08861-0.0791-0.0142 0.0809 0.16535 0.32753 0.36743 0.62546 0.41615 0.85483 0.13978zm-0.48564-3.1142c0-0.16505 0.054-0.30008 0.12003-0.30008 0.066 0 0.12004 0.13504 0.12004 0.30008 0 0.16505-0.054 0.30008-0.12004 0.30008-0.066 0-0.12003-0.13504-0.12003-0.30008zm-0.28839-0.63018c0.0487-0.50848 0.0294-0.75021-0.0599-0.75021-0.0725 0-0.13182-0.13504-0.13182-0.30008 0-0.16505 0.054-0.30008 0.12003-0.30008 0.066 0 0.12004 0.05402 0.12004 0.12003 0 0.06602 0.081 0.12003 0.18005 0.12003 0.099 0 0.18005 0.0572 0.18005 0.12712s0.054 0.09373 0.12003 0.05294c0.07-0.04328 0.12004 0.07877 0.12004 0.293 0 0.20195-0.054 0.36719-0.12004 0.36719-0.066 0-0.12086-0.09453-0.12186-0.21006-0.0008-0.11553-0.0542-0.29108-0.11821-0.39011-0.0836-0.12938-0.11635-0.01116-0.11635 0.42012s0.0327 0.5495 0.11635 0.42012c0.0995-0.15387 0.11663-0.14951 0.11821 0.03001 0.0008 0.11553-0.0439 0.21006-0.0999 0.21006-0.0559 0-0.164 0.12154-0.24016 0.27008-0.1129 0.22021-0.1252 0.13156-0.0666-0.48014zm0.16836-1.6505c0-0.16505 0.054-0.30008 0.12003-0.30008 0.066 0 0.12003 0.13504 0.12003 0.30008 0 0.16505-0.054 0.30008-0.12003 0.30008-0.066 0-0.12003-0.13504-0.12003-0.30008zm-0.37541-2.8615c0.0906-0.10964 0.25954-0.19934 0.37541-0.19934s0.2848 0.0897 0.37541 0.19934c0.15079 0.18246 0.14188 0.18509-0.10534 0.03115-0.2316-0.14423-0.30854-0.14423-0.54015 0-0.24721 0.15395-0.25613 0.15132-0.10533-0.03115zm-53.589 8.219c0.035-0.05673-0.15081-0.18742-0.41304-0.29043-0.51921-0.20395-0.5837-0.16359-0.27812 0.17406 0.20796 0.2298 0.58212 0.29279 0.69116 0.11637zm54.727-1.762c-0.0391-0.10188-0.0968-0.15948-0.12829-0.12802-0.0314 0.03146-0.0216 0.11482 0.0219 0.18523 0.11836 0.19151 0.18754 0.1543 0.10638-0.05721zm-31.369-0.7758c0.18325-0.09807 0.23866-0.25163 0.23866-0.66137 0-0.64205 0.0791-0.61535-2.1329-0.71939l-1.5927-0.07491-0.23515 0.51815c-0.27151 0.59828-0.30496 1.0083-0.0904 1.108 0.24791 0.11513 3.5552-0.03275 3.8125-0.17046zm8.723-0.14179c-0.0383-0.09576-0.0667-0.06732-0.0725 0.07252-0.006 0.12654 0.0231 0.19743 0.0631 0.15754 0.0399-0.03988 0.0442-0.14342 0.009-0.23007zm-0.31078-0.57766c0.10939-0.3631 0.22425-0.57916 0.25525-0.48014 0.031 0.09903 0.0357 0.04169 0.0104-0.12741s0.1383-1.0874 0.36354-2.0406c0.22523-0.95321 0.44399-1.9627 0.48611-2.2433l0.0766-0.51014-0.93168 0.0053c-0.51242 0.0029-2.4419 0.05113-4.2878 0.10716l-3.3561 0.10186-0.2811 0.32681c-0.15462 0.17974-0.26484 0.34217-0.24495 0.36094 0.0199 0.01877 1.7916-0.0053 3.9373-0.05341 2.2119-0.04963 3.953-0.04189 4.021 0.01788 0.34036 0.29932-0.0689 1.9812-0.53999 2.2192-0.23465 0.11855-2.5246 0.15184-10.503 0.15268-10.078 0.001-19.621-0.19284-27.158-0.55184l-1.4704-0.07005v0.41042c0 0.64698 0.33987 1.6543 0.55816 1.6543 0.14923 0 0.17291-0.08449 0.11306-0.4035-0.13186-0.70288-0.077-0.71021 3.3061-0.44169 5.5899 0.44367 7.3089 0.50501 17.089 0.60984 5.3475 0.05732 9.9388 0.14835 10.203 0.2023 0.47771 0.09758 0.4802 0.101 0.49095 0.67407l0.0108 0.57599 2.81-0.0025c1.5455-0.0014 3.1611 0.04241 3.5902 0.09733 1.2221 0.1564 1.2269 0.15444 1.4517-0.59162zm-35.819-0.453c-0.0375-0.36348-0.11358-0.70624-0.16905-0.76171-0.1201-0.12011-2.3017-0.33289-2.5382-0.24758-0.2052 0.074-0.10156 1.1902 0.13161 1.4175 0.1499 0.14605 2.3317 0.40822 2.5388 0.30507 0.0578-0.02881 0.0744-0.34976 0.0369-0.71324zm60.137-0.289c-0.0383-0.09576-0.0667-0.06732-0.0725 0.07252-0.006 0.12654 0.0231 0.19743 0.0631 0.15754 0.0399-0.03988 0.0442-0.14342 0.009-0.23006zm1.1484-1.099c0.18155-0.13422 0.33009-0.29845 0.33009-0.36494 0-0.0665 0.14404-0.27125 0.3201-0.45501 0.32655-0.34085 0.94505-1.9325 0.77442-1.993-0.0517-0.01832-0.43653 0.0466-0.85516 0.14426-0.83369 0.19448-0.96428 0.17361-0.8824-0.14108 0.03-0.11547 0.008-0.59946-0.0491-1.0755l-0.10364-0.8656 0.30784-0.05824c0.16931-0.03203 0.53711-0.09284 0.81735-0.13513 0.64971-0.09804 0.7352-0.24624 0.35903-0.6224-0.2676-0.26761-0.34659-0.28759-0.70499-0.17835-0.22199 0.06766-0.53866 0.15244-0.70371 0.1884l-0.30008 0.06537 0.0387 1.7381c0.0357 1.6003-0.0793 2.7272-0.42208 4.1357l-0.0685 0.28135 0.40595-0.20992c0.22328-0.11546 0.5545-0.31974 0.73604-0.45397zm-14.255 0.34035c3.4819-0.2281 4.0226-0.28714 4.0226-0.43929 0-0.08102-0.62308-0.10231-1.8305-0.06253l-1.8305 0.0603 1.8772-0.1232 1.8772-0.1232 0.0721-0.43581c0.0396-0.2397 0.0727-0.77566 0.0734-1.191l0.002-0.75522-0.87024 0.07337c-0.47863 0.04035-2.1791 0.16762-3.7788 0.28281s-2.9456 0.24646-2.9908 0.29171-0.14468 0.54755-0.22095 1.1162l-0.13867 1.0339 1.9892-0.06017 1.9892-0.06017-2.0106 0.12346c-1.554 0.09543-2.0106 0.16051-2.0106 0.28661 0 0.20992 0.32687 0.20838 3.7796-0.0178zm-3.7243-1.2595c0.0451-0.42912 0.10875-0.87475 0.14145-0.99028 0.0495-0.17483-0.0206-0.21006-0.4182-0.21006-0.46506 0-0.47985-0.01289-0.56016-0.48822-0.0454-0.26852-0.0463-0.52441-0.002-0.56863 0.0836-0.08364 0.14581-0.09486 0.69364-0.1252 0.18155-0.01006 0.33009-0.0723 0.33009-0.13832 0-0.14285-1.0393-0.16347-1.1265-0.02236-0.0332 0.05372-0.0728 0.58428-0.0881 1.179-0.0264 1.0287-0.008 1.1152 0.37048 1.7774 0.45908 0.80237 0.53675 0.75368 0.65938-0.41332zm11.08 0.76351c0.80977-0.04375 1.4443-0.10759 1.41-0.14187-0.0342-0.03428-0.42675-0.10388-0.87214-0.15464l-0.80979-0.09231 0.90025 0.04083 0.90026 0.04082 0.25674-1.2785c0.14121-0.70315 0.23964-1.297 0.21876-1.3198-0.0369-0.04014-2.9123 0.15762-4.2707 0.29372l-0.67436 0.06756-0.0615 1.1604c-0.042 0.79304-0.0186 1.1883 0.0742 1.2486 0.0858 0.05579 0.0585 0.08886-0.0743 0.09003-0.11553 0.00096-0.21006 0.0633-0.21006 0.13843 0 0.09645 0.25575 0.1145 0.87025 0.06142 0.47864-0.04135 1.5328-0.11096 2.3426-0.15471zm-2.1025-0.25157c0.31359-0.02473 0.82674-0.02473 1.1403 0 0.3136 0.02473 0.057 0.04496-0.57016 0.04496-0.62717 0-0.88374-0.02023-0.57016-0.04496zm4.0924-1.2554 0.0656-0.63697-0.16192 0.60017c-0.0891 0.33009-0.16247 0.76222-0.16314 0.96027l-0.0008 0.3601 0.0975-0.3233c0.0536-0.17781 0.12704-0.60994 0.16312-0.96027zm-18.59 0.62934c0.10072-0.19478 0.17771-0.50536 0.17107-0.69019-0.0102-0.28316-0.0297-0.2608-0.12396 0.14201-0.0615 0.26293-0.16415 0.53031-0.22801 0.59417-0.0639 0.06386-0.1161 0.15932-0.1161 0.21213 0 0.19105 0.11757 0.08887 0.297-0.25811zm21.166-1.2695c-0.037-0.03695-0.10407 0.02966-0.14914 0.14804-0.0651 0.17107-0.0514 0.18486 0.0672 0.0672 0.082-0.08142 0.11891-0.17828 0.082-0.21524zm-2.418-0.44695c-0.0333-0.08252-0.0605-0.015-0.0605 0.15004 0 0.16505 0.0272 0.23256 0.0605 0.15004s0.0333-0.21756 0-0.30008zm-28.563-0.19888 0.26445-0.33563-3.2053-0.0789c-1.7629-0.0434-5.5009-0.13195-8.3067-0.19678-13.647-0.313-16.246-0.384-17.525-0.472-1.1604-0.07998-1.4139-0.06599-1.5904 0.08785-0.35558 0.30976-0.24622 0.47873 0.3601 0.55634 2.6002 0.33285 10.984 0.5563 28.658 0.76381 1.0464 0.01228 1.0886 0.0022 1.3447-0.32295zm28.765-0.07638c-0.0391-0.10188-0.0968-0.15948-0.12828-0.12802-0.0315 0.03146-0.0216 0.11482 0.0219 0.18523 0.11836 0.19151 0.18754 0.1543 0.10637-0.05721zm-10.413-0.46781c1.3799-0.0951 3.0896-0.20833 3.7992-0.25162 1.0451-0.06375 1.2904-0.11369 1.2904-0.26272 0-0.15225-0.11911-0.1717-0.6902-0.11269-0.3796 0.03922-1.3924 0.09687-2.2506 0.1281-1.4675 0.0534-1.4322 0.04664 0.5917-0.11358 1.4361-0.11368 2.187-0.22104 2.2568-0.32265 0.18766-0.27305 0.0222-4.5061-0.21012-5.3738-0.36736-1.3723-0.81861-2.2276-1.3535-2.5653l-0.47864-0.30214-3.524 0.18366c-1.9382 0.10102-3.5423 0.20178-3.5646 0.22393-0.0223 0.02214 0.0742 0.19548 0.21443 0.38518 0.5519 0.74648 0.95913 3.0659 1.0511 5.9867l0.0684 2.1715 0.85375-0.02494c0.46956-0.01372 0.61068-0.0045 0.3136 0.02045-0.75954 0.06383-1.0803 0.14845-1.0803 0.28503 0 0.1448-0.2679 0.15025 2.7126-0.05516zm-0.58198-0.39406c0.21456-0.02662 0.56566-0.02662 0.78022 0s0.0391 0.04841-0.39011 0.04841c-0.42912 0-0.60467-0.02178-0.39011-0.04841zm3.8249-5.4905c-0.36326-0.5544-0.26418-0.74268 0.43437-0.82541 0.8502-0.10069 1.0533 0.08351 0.76409 0.69298-0.14828 0.31246-0.27476 0.42387-0.46769 0.41194l-0.26444-0.01635 0.27007-0.05202c0.4557-0.08777 0.32807-0.39542-0.16403-0.39542-0.37503 0-0.42558 0.03268-0.37135 0.24007 0.0827 0.31637 0.0339 0.30284-0.20102-0.05579zm1.0936-0.54295c-0.0119-0.15718-0.0585-0.19815-0.13658-0.12003-0.0652 0.06523-0.29686 0.1186-0.51472 0.1186s-0.39611 0.05401-0.39611 0.12003 0.23972 0.12003 0.53269 0.12003c0.45764 0 0.53016-0.03362 0.51472-0.23864zm-53.383 6.34c0-0.07733 0.0894-0.23937 0.19866-0.3601 0.18651-0.20609 0.18312-0.21951-0.0554-0.21951-0.27813 0-0.77304 0.45524-0.67223 0.61835 0.0951 0.15387 0.52892 0.12209 0.52892-0.03874zm44.872-0.579c0.002-0.11406-0.0372-0.09206-0.10767 0.06002-0.0801 0.17299-0.0925 0.10305-0.0443-0.2503 0.083-0.60884-0.20722-1.9001-0.60218-2.6795-0.35357-0.69775-1.0184-1.2808-1.5808-1.3863-1.1369-0.21329-2.5385 1.2843-3.2775 3.502-0.33415 1.0027-0.32387 1.1141 0.10284 1.1141 0.32072 0 0.36775-0.05531 0.53575-0.63018 0.42937-1.4691 1.4277-2.59 2.4051-2.7001 0.81741-0.09213 1.3637 0.31238 1.9179 1.4202 0.23719 0.47412 0.42765 0.97631 0.42323 1.116-0.005 0.15389-0.068 0.06476-0.16028-0.22619-0.25516-0.8047-0.63543-1.4435-1.1044-1.8553-0.40355-0.35433-0.50309-0.38672-1.0321-0.33589-0.41365 0.03975-0.71431 0.16054-1.0245 0.41163-0.43031 0.34828-1.1327 1.4857-1.2842 2.0796-0.0671 0.26325-0.0523 0.25588 0.12136-0.06002 0.86167-1.5678 1.5524-2.2206 2.3497-2.2206 0.38198 0 0.54356 0.08377 0.9304 0.48238 0.47424 0.48867 0.995 1.5916 1.164 2.4653 0.0844 0.43646 0.0983 0.44995 0.17787 0.17323 0.0475-0.16505 0.0879-0.38111 0.0898-0.48014zm1.1855-1.7239c-0.0917-2.9128-0.49909-5.2455-1.0451-5.9839-0.24654-0.33347-0.24711-0.3552-0.0635-2.4061 0.10188-1.1383 0.23011-2.9068 0.28494-3.9301 0.0726-1.3539 0.15471-1.9664 0.30171-2.2495 0.41172-0.79267 1.7487-1.1369 4.0982-1.0551 2.6276 0.091434 3.5988 0.50003 5.2499 2.2087 1.1495 1.1895 2.4328 2.7224 4.1464 4.953l0.9806 1.2764-0.9273 0.10402-0.92729 0.10402 0.42618 0.26507c1.0088 0.6274 1.6742 2.0827 1.6749 3.663l0.00048 0.99328 0.22017-0.3601c0.53756-0.87922 1.0103-0.85251 1.6352 0.0924 0.52529 0.79433 1.0555 2.1917 0.96056 2.5315-0.0395 0.14131-0.0278 0.20292 0.0261 0.1369s0.25994-0.13583 0.45799-0.15513c0.19806-0.01931 0.53566-0.09101 0.75021-0.15935 0.35895-0.11432 0.38981-0.16427 0.3863-0.62509-0.002-0.27546-0.0831-0.60568-0.18005-0.73384-0.10499-0.13879-0.1772-0.50278-0.17861-0.90025-0.002-0.36699-0.0561-1.0389-0.12177-1.4931-0.0793-0.54856-0.0792-0.87428 0.00024-0.97006 0.0834-0.10048 0.0154-0.3086-0.22417-0.68641-0.77836-1.2273-1.9227-1.9973-3.1316-2.1069-0.65094-0.05902-0.68849-0.082-1.1061-0.67677-1.5146-2.1572-5.1172-6.0458-6.3898-6.8969-2.1754-1.455-3.6895-1.623-16.512-1.832-11.66-0.19005-13.542-0.06778-15.702 1.02-1.7157 0.864-4.3656 3.0799-7.8073 6.5285-1.2779 1.2805-2.4988 2.4014-2.713 2.4909-0.21424 0.08952-1.0862 0.32809-1.9377 0.53016-2.1181 0.50265-3.6489 1.0162-4.7891 1.6067-0.52815 0.2735-1.0048 0.48265-1.0592 0.46477s-0.059 0.03203-0.0103 0.1109c0.0599 0.09701 0.0257 0.11927-0.1058 0.0688-0.12315-0.04726-0.45551 0.11759-0.90666 0.44971-0.78913 0.58092-0.96698 0.78444-0.68555 0.78444 0.10309 0 0.3852-0.21889 0.6269-0.48643 0.24171-0.26754 0.55216-0.54606 0.68988-0.61895 0.13774-0.07288-0.0197 0.11369-0.34974 0.41461-0.3301 0.30092-0.5553 0.59295-0.50044 0.64896 0.0548 0.05601 1.0945 0.11867 2.3104 0.13926 2.0325 0.03441 2.2206 0.05592 2.3335 0.26693 0.0839 0.15669 0.083 0.65147-0.002 1.5596-0.14839 1.5735-0.0428 2.1644 0.42482 2.3774 0.20225 0.09215 2.0208 0.17862 5.3722 0.25544 2.7865 0.06387 6.311 0.15221 7.8322 0.19632 2.4702 0.07161 2.8081 0.05833 3.1612-0.12427 0.45564-0.23562 0.77606-0.87289 1.2777-2.5412 0.17652-0.58706 0.42339-1.1736 0.5486-1.3035 0.29576-0.30676 1.0565-0.34312 4.4901-0.21462l2.6407 0.09883 0.42012-0.4384c0.41908-0.43731 1.1119-0.84888 1.6805-0.99822 0.16505-0.04336-0.024 0.07697-0.42012 0.26738-0.69086 0.33211-1.3801 0.86393-1.3806 1.0653-0.00012 0.05266 0.62191 0.07897 1.3823 0.05845l1.3826-0.03731 0.37312 0.37312c0.36878 0.36878 0.37212 0.38313 0.28814 1.2354-0.10222 1.0374-0.30875 1.5747-0.68497 1.782-0.19822 0.10922-1.1115 0.16873-3.1206 0.20332-2.7795 0.04785-2.8418 0.0544-2.9092 0.30537-0.14695 0.54761-0.12881 0.55655 1.1282 0.55655 1.1926 0 1.2003-0.0019 1.2003-0.293 0-0.16115 0.0443-0.32034 0.0983-0.35376 0.0541-0.03342 0.075 0.09843 0.0464 0.293l-0.0519 0.35376h1.7349c0.95422 0 2.6274-0.0352 3.7183-0.07822l1.9833-0.07822 0.14007-0.61198c0.20404-0.89144 1.0404-2.5079 1.6462-3.1817 0.97006-1.0789 1.8998-1.1982 2.8462-0.36514 0.69569 0.61237 1.1213 1.5899 1.3671 3.1402l0.19586 1.2351 0.53639-0.04342 0.53639-0.04342-0.0685-2.1772zm-24.607 1.3716c0.73971-0.03728 1.4001-0.12323 1.4676-0.19101 0.14259-0.14323 0.8466-2.7514 0.84773-3.1406 0.00048-0.14464-0.0667-0.30549-0.14928-0.35742-0.0825-0.05193-1.1763-0.12665-2.4307-0.16603l-2.2806-0.0716 1.9205-0.01419c1.0563-0.0078 2.1307 0.02321 2.3876 0.06892 0.75819 0.13491 0.78544 0.29571 0.34477 2.0341-0.49837 1.966-0.48846 1.9572-2.1755 1.9278l-1.2771-0.02225 1.3449-0.06778zm-4.3101-0.09716c0.54779-0.02229 1.412-0.02217 1.9205 0.00024 0.50851 0.02245 0.0603 0.04068-0.99598 0.04053-1.0563-0.00012-1.4724-0.01852-0.92456-0.0408zm-4.393-0.11992c0.57433-0.02196 1.5466-0.02205 2.1606-0.00024 0.61401 0.02183 0.14411 0.03979-1.0442 0.03991s-1.6907-0.01773-1.1164-0.03969zm-5.935-0.161c-0.11553-0.06729-0.20923-0.18718-0.20822-0.26643 0.0008-0.08756 0.0464-0.07344 0.11542 0.03597 0.0921 0.14598 0.55174 0.19237 2.4288 0.24516l2.3153 0.06511-2.2206 0.02126c-1.332 0.013-2.305-0.028-2.431-0.101zm5.6141-0.13805c-3.603-0.07589-5.2097-0.15082-5.3274-0.24843-0.13045-0.10826-0.15254-0.35666-0.098-1.1022 0.1016-1.3898 0.19539-1.7464 0.48839-1.8568 0.39897-0.15023 15.565 0.09075 15.757 0.25038 0.0883 0.07326 0.1605 0.24534 0.1605 0.38239 0 0.40341-0.60636 2.2837-0.81016 2.5122-0.21722 0.2436-1.2632 0.25002-10.17 0.06239zm0.42946-0.81894c0.16957-0.09075 0.35225-0.08439 0.64803 0.02257 0.33571 0.1214 0.46863 0.11858 0.71867-0.01524 0.23569-0.12614 0.3396-0.13137 0.4484-0.02257 0.18363 0.18363 0.63394 0.18102 0.93247-0.0054 0.18579-0.11603 0.26646-0.11603 0.38248 0 0.26783 0.26783 0.89854 0.17665 1.1706-0.16924 0.62114-0.78964 0.011-1.8274-0.87616-1.4901-0.22157 0.08424-0.40875 0.07823-0.62448-0.02006-0.23568-0.10738-0.39658-0.10696-0.68471 0.0018-0.24901 0.09399-0.41698 0.10182-0.49568 0.02312-0.16814-0.16814-0.83257-0.14799-1.0223 0.031-0.12723 0.12003-0.17005 0.12003-0.21406 0-0.031-0.08447-0.25666-0.15004-0.51643-0.15004-0.35552 0-0.51852 0.0726-0.7102 0.31627-0.13683 0.17395-0.24878 0.37502-0.24878 0.44683 0 0.0718 0.0914-0.003 0.2031-0.16623s0.26024-0.33647 0.33009-0.38497c0.2331-0.16187 0.77348-0.09503 0.88814 0.10986 0.10574 0.18895 0.12568 0.18895 0.31463 0 0.4363-0.4363 1.283-0.11735 0.90327 0.34025-0.0873 0.10514-0.11896 0.3261-0.0769 0.53626 0.0564 0.28219 0.0194 0.38535-0.17629 0.49004-0.46424 0.24846-1.1384-0.16045-0.70555-0.42796 0.066-0.0408 0.1154-0.21954 0.10972-0.39719l-0.0103-0.32301-0.10169 0.3389c-0.10986 0.36613-0.63866 0.92146-0.87743 0.92146-0.23545 0-0.68072-0.35778-0.68072-0.54696 0-0.09529-0.0523-0.17324-0.11626-0.17324-0.17821 0 0.00036 0.39493 0.28371 0.62751 0.29412 0.24141 0.47806 0.26115 0.80467 0.08636zm1.8315-0.17524c-0.0383-0.09987-0.003-0.26192 0.0785-0.3601 0.10292-0.12402 0.10702-0.17852 0.0134-0.17852-0.0741 0-0.13473 0.05401-0.13473 0.12003s-0.0493 0.12003-0.10946 0.12003c-0.1547 0-0.0663-0.64158 0.0957-0.69563 0.0735-0.02452 0.13375-0.11525 0.13375-0.20162 0-0.19276 0.53426-0.34019 0.85912-0.23708 0.16686 0.05296 0.2128 0.13558 0.15287 0.27492-0.0471 0.10957-0.10426 0.36126-0.12698 0.55932-0.0387 0.33759-0.033 0.33384 0.0925-0.06002 0.0736-0.23106 0.15834-0.3526 0.18831-0.27008 0.0962 0.26474 0.24319 0.16007 0.18713-0.13322-0.0676-0.3536 0.34563-0.4985 0.80165-0.2811 0.71759 0.3421 0.28008 1.5797-0.53038 1.5003-0.31507-0.03087-0.36084-0.08001-0.34122-0.36623l0.0226-0.33057-0.30341 0.36058c-0.33584 0.39912-0.95558 0.50189-1.0795 0.179zm0.19724-0.77869c0-0.06602-0.0572-0.12003-0.12711-0.12003-0.0699 0-0.0937 0.05401-0.0529 0.12003s0.098 0.12003 0.12712 0.12003c0.0291 0 0.0529-0.05401 0.0529-0.12003zm-1.6805 0.30717c0-0.02911-0.054-0.08632-0.12003-0.12712-0.066-0.0408-0.12004-0.01698-0.12004 0.05293 0 0.06992 0.054 0.12712 0.12004 0.12712 0.066 0 0.12003-0.02382 0.12003-0.05293zm0-0.4272c0-0.06602-0.0238-0.12003-0.0529-0.12003s-0.0863 0.05401-0.12712 0.12003c-0.0408 0.06602-0.017 0.12003 0.0529 0.12003s0.12711-0.05401 0.12711-0.12003zm10.394 1.3204c0.10403-0.63631 0.60584-2.4564 0.7531-2.7316 0.33514-0.62621 2.1466-1.46 4.5206-2.0808 2.1719-0.56795 9.0069-1.8913 8.2786-1.6029-0.066 0.02615-1.4164 0.29456-3.0008 0.59647-6.0008 1.1434-8.558 1.9421-9.5214 2.9736-0.18578 0.19892-0.39617 0.75335-0.63063 1.6619-0.37851 1.4667-0.50897 1.8532-0.39946 1.1833zm-17.116 0.09274c0-0.7611 0.28653-2.7238 0.42972-2.9435 0.17591-0.26997 0.1772-0.27006 3.3241-0.24215l3.1481 0.02793-3.1477 0.03407c-2.913 0.03154-3.1565 0.05053-3.2658 0.25477-0.065 0.12138-0.17941 0.83619-0.25432 1.5885-0.0749 0.75227-0.15821 1.3903-0.18513 1.4178-0.0269 0.0275-0.0489-0.03429-0.0489-0.13732zm8.4389-3.0632c0.71328-0.02126 1.8476-0.02118 2.5207 0.00012 0.67311 0.02136 0.0895 0.03875-1.2969 0.03865-1.3864-0.000099-1.9371-0.01757-1.2238-0.03883zm-8.5534-0.164c-0.0114-0.47348 0.40544-0.80026 2.8161-2.2072 2.6014-1.5183 3.4632-2.2116 3.0593-2.4612-0.1262-0.078-0.059-0.23026 0.30006-0.67995 0.82189-1.0293 3.8-3.9233 5.3932-5.2409 2.7872-2.305 2.7328-2.294 11.353-2.2952 7.9689-0.0011 13.549 0.28879 14.523 0.75445 0.23054 0.11025 0.48632 0.3355 0.56839 0.50055 0.25929 0.52144 0.16691 3.3882-0.21681 6.728l-0.13171 1.1464-0.51216 0.32402c-0.28169 0.17821-0.58752 0.32393-0.67963 0.32383-0.0921-0.000103 0.0184-0.09463 0.24551-0.21006 0.86821-0.44122 0.68014-0.52999-1.6214-0.76528l-1.4485-0.14808-0.64564 0.32174c-0.3551 0.17696-0.72956 0.31892-0.83213 0.31548-0.10258-0.0034 0.0971-0.11524 0.44368-0.24846 0.3466-0.13321 0.63018-0.28549 0.63018-0.3384 0-0.35131-18.137-0.84181-23.878-0.64578-2.6072 0.08902-3.1827 0.13954-3.2294 0.2835-0.13324 0.41004-1.0439 1.1025-2.9007 2.2055-2.6284 1.5615-2.8893 1.7456-3.074 2.1695-0.0866 0.19877-0.1596 0.27416-0.16219 0.16753zm28.503-1.01c0.6307-0.24624 7.6302-2.13 7.6904-2.0698 0.0386 0.03869-7.1727 2.0448-7.9305 2.2061-0.13203 0.02811-0.024-0.03324 0.24007-0.13634zm2.7008-2.4581c0.16505-0.05286 0.40812-0.0961 0.54016-0.0961 0.19009 0 0.1776 0.02001-0.06 0.0961-0.16505 0.05286-0.40812 0.0961-0.54015 0.0961-0.1901 0-0.17761-0.02 0.06-0.0961zm-10.741 8.1537c0.0446-0.20278 0.0619-0.38773 0.0387-0.41101-0.0233-0.02328-0.72837-0.05519-1.5668-0.07092-1.4273-0.02677-1.5383-0.01227-1.7396 0.22735-0.11829 0.14077-0.37712 0.33826-0.57517 0.43886-0.33619 0.17076-0.22321 0.18296 1.7009 0.18365l2.061 0.00072 0.081-0.36868zm1.9803 0.21864c0.0008-0.08252 0.0343-0.27158 0.074-0.42012 0.0707-0.26384 0.0498-0.27008-0.90189-0.27008-0.69852 0-0.97474 0.04247-0.97591 0.15004-0.0008 0.08252-0.0343 0.27158-0.074 0.42012-0.0707 0.26384-0.0499 0.27008 0.90189 0.27008 0.69852 0 0.97473-0.04247 0.97591-0.15004zm31.851-2.2938c0.63144-1.0775 1.4662-1.1389 2.0582-0.15133 0.33699 0.56216 0.40569 0.50106 0.0917-0.08157-0.11385-0.21128-0.21413-0.47073-0.22283-0.57656-0.0277-0.33641-0.55703-1.2886-0.89796-1.6152-0.18092-0.17333-0.42691-0.29628-0.54665-0.27322-0.45774 0.08815-1.0735 1.4678-1.5992 3.5834-0.17953 0.72243-0.1809 0.83367-0.0142 1.1601l0.18428 0.36107 0.31053-0.9255c0.17079-0.50902 0.45707-1.1756 0.63619-1.4812zm-0.99868 1.9525c-0.006-0.24006 0.38117-1.3769 0.65507-1.9198 0.11367-0.22531 0.37327-0.5852 0.57689-0.79977 0.41634-0.43872 0.8994-0.5067 1.4034-0.19752 0.19507 0.11967 0.21608 0.15425 0.06 0.0988-0.53329-0.18945-0.91195-0.19131-1.195-0.0058-0.3991 0.2615-0.87718 1.1078-1.215 2.1507-0.15404 0.4756-0.2825 0.77866-0.28545 0.67346zm-1.8756 0.15101c0.97836-0.05455 1.4464-0.12721 1.4804-0.22982 0.0367-0.11079-0.21201-0.15636-0.9506-0.1742l-1.0003-0.02416 0.90776-0.04051 0.90775-0.04051 0.27383-1.1358c0.15059-0.6247 0.31773-1.1087 0.3714-1.0755 0.0537 0.03318 0.0671-0.05623 0.0299-0.19869-0.0434-0.16597-0.0218-0.23064 0.06-0.18005 0.0819 0.05059 0.10342-0.01408 0.06-0.18005-0.0415-0.15874-0.0206-0.22991 0.0539-0.18385 0.0749 0.04629 0.10161-0.05025 0.0695-0.25131-0.0375-0.23551-0.0196-0.28015 0.0644-0.16023 0.0807 0.11511 0.10306 0.0044 0.0727-0.3601-0.0241-0.28948-0.0651-0.87981-0.0913-1.3118-0.0649-1.071-0.53422-2.0055-1.3958-2.7789l-0.66398-0.59604-1.0803 0.06767c-0.59417 0.03722-1.9085 0.10271-2.9207 0.14552-1.7518 0.0741-1.8224 0.08655-1.4669 0.25875 0.27752 0.13441 0.47745 0.40028 0.7779 1.0344 0.70911 1.4968 0.84021 2.2485 0.84483 4.8445l0.004 2.3104 0.54015 0.02118 0.54015 0.02118-0.51014 0.04595c-0.34942 0.03147-0.51014 0.10186-0.51014 0.22341 0 0.14875 0.16989 0.1654 1.0503 0.10288 0.57766-0.04102 1.6941-0.11048 2.481-0.15435zm-2.0009-0.34771c0.28059-0.02527 0.73971-0.02527 1.0203 0 0.28058 0.02527 0.051 0.04595-0.51014 0.04595-0.56116 0-0.79072-0.02068-0.51015-0.04595zm2.7372-5.2607c-0.1107-0.16895-0.18443-0.42552-0.16385-0.57016 0.0315-0.22092 0.12619-0.26873 0.59246-0.29894 0.43533-0.02821 0.57208 0.0085 0.63411 0.17011 0.0435 0.11334 0.0233 0.26187-0.0449 0.33005s-0.12397 0.21542-0.12397 0.32719c0 0.19996-0.22891 0.34894-0.53617 0.34894-0.086 0-0.247-0.13823-0.3577-0.30718zm0.73241 0.0019c0.0956-0.2492 0.0386-0.2847-0.34017-0.21192-0.21246 0.04082-0.29975 0.11868-0.25724 0.22947 0.0867 0.22592 0.50875 0.21352 0.59741-0.01754zm-0.10862-0.37056c0.41301-0.11068 0.32135-0.28445-0.15004-0.28445-0.29341 0-0.42012 0.0543-0.42012 0.18005 0 0.19322 0.14183 0.21918 0.57016 0.1044zm-52.518 5.758c-0.21738-0.10714-0.44884-0.29496-0.51437-0.41738-0.10312-0.1927-0.27171-0.22259-1.2552-0.22259h-1.1361v0.35629 0.35629l1.4104 0.03802c0.77572 0.02091 1.5184 0.0484 1.6505 0.0611 0.15326 0.01473 0.0972-0.04736-0.15517-0.17172zm-3.2676-0.41707c0.002-0.25087-0.2415-0.34294-0.90823-0.34294-0.50715 0-0.53034 0.01547-0.53034 0.35383 0 0.34221 0.0207 0.35502 0.63018 0.39011 0.63903 0.03679 0.80508-0.04558 0.80839-0.401zm0.22994 0.10719c-0.0112-0.36464-0.0178-0.37052-0.10112-0.09003-0.049 0.16505-0.0675 0.3406-0.041 0.39011 0.10067 0.18806 0.15363 0.07621 0.14209-0.30008zm-1.7885-0.07331c0-0.3246-0.0345-0.34752-0.63018-0.41908-1.0285-0.12354-1.0503-0.11769-1.0503 0.28232 0 0.28008 0.0534 0.3601 0.24006 0.3601 0.17751 0 0.24476-0.08602 0.25805-0.33009l0.018-0.33009 0.0493 0.32269c0.0505 0.3307 0.20718 0.41923 0.78498 0.44361 0.28642 0.01208 0.3301-0.03151 0.3301-0.32946zm29.65-0.287c0.0008-0.14854 0.12349-0.8714 0.27236-1.6064l0.27069-1.3363-1.8628-0.07695c-3.6011-0.14875-4.7506-0.13579-5.0407 0.05683-0.1893 0.12569-0.38218 0.54644-0.65797 1.4352-0.21459 0.69159-0.43004 1.3498-0.47876 1.4627-0.10448 0.24202 0.32732 0.27013 4.7647 0.31024l2.7308 0.02469 0.002-0.27008zm3.2324 0.0734c0.53981-0.10796 0.72071-0.46361 0.80736-1.5873 0.10957-1.4208 0.064-1.457-1.8394-1.457-0.815 0-1.482 0.01351-1.4822 0.03001-0.00024 0.01651-0.10823 0.58558-0.24007 1.2646-0.13183 0.67903-0.2397 1.3677-0.2397 1.5304v0.29583h1.3054c0.71796 0 1.4778-0.03449 1.6886-0.07664zm-28.634-1.863c0.0652-1.2348 0.0495-1.6015-0.0721-1.6786-0.0855-0.05425-1.1426-0.09946-2.3491-0.10047l-2.1936-0.0018-0.12563 0.33009c-0.15679 0.41197-0.42093 1.5893-0.5236 2.3338l-0.0777 0.56332 0.57649 0.04522c0.31707 0.02487 1.5002 0.05495 2.6291 0.06685l2.0526 0.02164 0.0834-1.58zm-5.4058 0.64974c0.0717-0.74742 0.28716-1.7116 0.49633-2.2206 0.0606-0.14733 0.0302-0.21006-0.10149-0.21006-0.12808 0-0.26434 0.2577-0.42844 0.81023-0.4285 1.4428-0.52853 2.0593-0.36593 2.2552 0.25256 0.30432 0.31973 0.19761 0.39953-0.63473zm44.898-6.528c0.25455-0.11598 0.30545-0.22973 0.33574-0.75021 0.0196-0.33743-0.0314-0.74854-0.1136-0.91359-0.0821-0.16505-0.15155-0.38111-0.1543-0.48014-0.002-0.09903-0.0756-0.30738-0.1619-0.46301-0.14092-0.25413-0.17106-0.14335-0.29582 1.0873-0.19144 1.8882-0.21527 1.7953 0.38988 1.5196zm5.6628-0.39638c0.26828-0.36731 0.22508-1.5726-0.0668-1.8645-0.34596-0.34595-0.66549-0.39207-2.3925-0.34529-1.5332 0.04153-1.5616 0.04734-1.924 0.3947-0.20233 0.1939-0.36787 0.43493-0.36787 0.53562 0 0.11042 0.13764 0.01815 0.34684-0.23252l0.34685-0.41558h1.6809c1.4844 0 1.7105 0.02673 1.9338 0.22866 0.1391 0.12576 0.24751 0.34182 0.24093 0.48014-0.0104 0.21802-0.023 0.21168-0.0952-0.04765-0.14329-0.51489-0.52255-0.61348-2.2142-0.57561l-1.5411 0.0345-0.36104 0.45013c-0.19856 0.24757-0.46382 0.45013-0.58946 0.45013-0.19014 0-0.22842 0.08905-0.22842 0.53135 0 0.40341 0.0506 0.54565 0.21006 0.59072 0.11553 0.03266 1.2543 0.05012 2.5306 0.03881 2.1454-0.01901 2.3334-0.03815 2.4907-0.25356zm-4.6082 0.07395c-0.0935-0.06187 0.73017-0.1382 2.0357-0.18862 1.2796-0.04943 2.2585-0.13926 2.3506-0.21571 0.23153-0.19215 0.2963-0.0558 0.10072 0.21205-0.1538 0.21063-0.35488 0.23421-2.2494 0.26376-1.1443 0.01785-2.1512-0.01431-2.2376-0.07147zm-0.12126-0.39915c0.15311-0.04293 1.1723-0.08345 2.2649-0.09003 1.1238-0.0068 2.0493-0.06391 2.131-0.13157 0.0934-0.0773 0.0913-0.0594-0.006 0.05062-0.11733 0.13273-0.648 0.1789-2.4094 0.20963-1.2424 0.02167-2.1336 0.0043-1.9806-0.03865zm-34.133-1.0654c0.55166-0.61975 0.59446-0.70086 0.31344-0.59402-0.17901 0.06806-0.33404 0.10872-0.34452 0.09037-0.0105-0.01835-0.0839-0.18428-0.16323-0.36872-0.14116-0.32835-0.16236-0.33462-1.0146-0.30008l-0.87042 0.03527-0.11226 0.58151c-0.13845 0.71715-0.0235 0.9297 0.60535 1.1195 0.78992 0.23846 0.91006 0.19575 1.5862-0.56386zm0.83283-0.9964c0.11791-0.08753 0.10465-0.14784-0.06-0.27281-0.14511-0.11013-0.55009-0.15451-1.2917-0.14155-0.80314 0.01404-0.90107 0.03006-0.38169 0.06244 0.64622 0.0403 0.70769 0.06959 0.81959 0.39058 0.11191 0.32105 0.14498 0.33679 0.44171 0.21036 0.1764-0.07516 0.38885-0.18723 0.4721-0.24903zm41.08-4.3273c0-0.024926-0.0945-0.11945-0.21006-0.21006-0.19038-0.14931-0.19462-0.14506-0.0453 0.045319 0.1568 0.19995 0.25538 0.26353 0.25538 0.16474z"/>
 </g>
</svg>
