<?xml version="1.0" encoding="UTF-8" standalone="no"?>
<!-- Created with Inkscape (http://www.inkscape.org/) -->
<svg id="svg2" xmlns:rdf="http://www.w3.org/1999/02/22-rdf-syntax-ns#" xmlns="http://www.w3.org/2000/svg" height="54" width="99" version="1.1" xmlns:cc="http://creativecommons.org/ns#" xmlns:dc="http://purl.org/dc/elements/1.1/">
 <metadata id="metadata7">
  <rdf:RDF>
   <cc:Work rdf:about="">
    <dc:format>image/svg+xml</dc:format>
    <dc:type rdf:resource="http://purl.org/dc/dcmitype/StillImage"/>
    <dc:title/>
   </cc:Work>
  </rdf:RDF>
 </metadata>
 <g id="g3491">
  <g id="g3871">
   <g id="g4614">
    <rect id="rect2990" opacity="0" height="54" width="99" y="0" x="0"/>
    <g id="layer1" transform="translate(-567.93591,-572.08957)">
     <g id="logo3" transform="matrix(0.18254972,0,0,0.18254972,572.43543,577.63683)">
      <g id="g75001">
       <path id="path75003" d="m485.17,162.3c3.137-3.458,3.646-7.567,5.739-15.75,2.753-10.764,0.864-14.09-1.767-15.708,0.032-3.039-4.532-5.394-4.556-6.294-0.024-0.899,2.576-21.675-1.037-30.583-7.74-19.112-20.45-24.663-32.14-24.353-7.52-11.955-35.37-43.627-44.57-51.036-9.2-7.408-16.54-12.616-44.97-15.013-28.42-2.397-140.76-3.468-163.92-2.403-23.15,1.064-33.13,6.73-44.61,15.138-11.481,8.408-33.478,27.672-43.757,38.974-1.166-1.544-3.688-3.278-6.612-3.201-2.924,0.078-4.504-0.105-9.228,0.02s-8.263,2.47-8.872,4.962-0.526,5.641-0.46,8.115c0.065,2.475,0.332,4.043,2.605,4.883l5.464,2.331s-1.302,1.835-9.789,4.311c-45.45,9.083-63.085,23.055-65.635,28.75s-5.034,13.863-5.572,19.054c-0.537,5.191-0.009,12.379-0.009,12.379-2.459,0.627-5.953,4.659-4.79,6.092-2.894,1.202-4.933,0.693-5.618,4.538-0.686,3.844-0.131,12.045,0.689,13.261s1.039,0.985,1.039,0.985-0.745,1.595-0.206,4.957c0.466,2.906,1.935,8.729,3.349,10.518l0.088-0.123c0.054-0.1,0.123-0.183,0.207-0.25l2.693-0.296s-0.279-2.018-0.557-4.037c-0.279-2.018,0.999-3.63,3.509-3.469,12.4,0.797,63.423,6.646,136.78,6.05,73.359-0.595,81.966,1.427,81.966,1.427,3.824-0.102,5.191,0.538,5.032,3.018s-0.727,6.546-0.727,6.546c21.361-0.792,48.588-1.063,56.319,1.882,0,0,1.692-4.096,3.69-13.603,1.999-9.506,5.884-24.239,6.286-26.05,0,0-0.344-4.492,0.934-7.227,0,0,7.968-22.044,19.439-22.348s17.33,25.424,17.616,36.22,4.695,7.303,6.331,18.063l79.088-5.249c8.76-0.683,13.477-1.033,16.638-0.667,0,0,3.814-17.432,6.505-26.281,2.691-8.85,7.666-24.962,15.816-23.152s14.778,22.566,7.658,51.114,10.695-4.11,13.79-6.218l0.141-0.274z" fill="#FFF"/>
      </g>
      <path id="path75005" d="m100.88,206.76s-7.731,22.487-32.022,23.132l-14.395,0.382c-20.921,0.55-40.736-16.7-40.942-41.45-4.096-1.7-9.058-10.57-7.294-11.97l2.693-0.296s-0.279-2.018-0.557-4.037c-0.279-2.018,0.999-3.63,3.509-3.469,12.4,0.797,63.423,6.646,136.78,6.05,73.359-0.595,81.966,1.427,81.966,1.427,3.824-0.102,5.191,0.538,5.032,3.018s-0.727,6.546-0.727,6.546c21.361-0.792,48.588-1.063,56.319,1.882,0,0,1.692-4.096,3.69-13.603,1.999-9.506,5.884-24.239,6.286-26.05,0,0-0.344-4.492,0.934-7.227,0,0,7.968-22.044,19.439-22.348s17.33,25.424,17.616,36.22,4.695,7.303,6.331,18.063l79.088-5.249c8.76-0.683,13.477-1.033,16.638-0.667,0,0,3.814-17.432,6.505-26.281,2.691-8.85,7.666-24.962,15.816-23.152s14.778,22.566,7.658,51.114,10.695-4.11,13.79-6.218-6.977,8.513-14.57,10.74c0,0,1.223,46.108-18.12,46.621l-17.769,0.471c-15.744,0.418-17.276-23.4-17.276-23.4l-2.924,0.078s-3.067-5.32-4.629-4.829c-1.563,0.491-3.581,0.77-4.724,0.125-1.142-0.645-14.43-0.968-18.029-0.872,0,0-2.657,1.646-3.776,1.901-1.118,0.254-4.948,0.131-5.859-0.295-0.912-0.426-3.593,0.32-4.469,1.244-0.876,0.923-1.592-0.633-3.374,0.089s-3.119,1.208-5.144,1.262-6.286,0.617-7.428-0.028c-1.143-0.645-2.723-0.828-3.818,0.327s-5.836,0.605-5.836,0.605-1.236,4.309-3.041,4.132-4.752,32.987-28.369,33.614l-24.741,0.656c-26.541,0.704-32.577-23.219-32.577-23.219l-2.231,0.734-3.268-4.415,1.989-1.403-2.504-1.059-4.51-0.331s0.024,0.9-0.864,1.374-2.207,1.634-2.882,1.652-2.03-0.171-2.03-0.171-2.727,7.5-11.724,7.738l-14.169,0.376c-11.021,0.292-14.148-7.277-14.148-7.277s-7.86,0.658-14.383,0.832c-6.523,0.173-13.732-0.086-13.732-0.086l-0.486-1.338s-13.732-0.085-21.634-1.001l-1.083,1.604-6.298,0.167-0.467-0.663-2.037-0.396s-2.237,0.509-5.143,1.262c-2.906,0.752-6.073,0.161-7.221-0.708-1.148-0.87-2.759-2.178-2.759-2.178l-26.102,0.243z"/>
      <path id="path75007" d="m475.49,133.68c0.729,2.006,1.678,12.334,0.885,16.407,0,0,13.667-2.388,14.536-3.537,0.87-1.148,1.567-8.819,1.051-11.282-0.516-2.462-2.818-4.427-2.818-4.427-2.875,1.878-11.405,2.779-13.654,2.839z"/>
      <path id="path75009" d="m292.44,148.22c1.392,1.539,2.126,3.77,1.103,7.624s-1.093,9.708-7.166,9.869-75.8,0.617-111.4,0.704c-37.36,0.091-170.28-4.486-172.54-4.876-2.261-0.391-2.223-15.922,0.002-16.881s4.231-1.688,4.231-1.688c35.675,4.23,74.84,4.317,127.98,5.158s85.564,1.332,107.62,1.197c22.055-0.136,50.164-1.107,50.164-1.107z"/>
      <g id="g75011">
       <path id="path75013" d="m182.56,112.87c0.183-1.58-0.758-3.131-3.688-3.278-5.398-0.271-46.393-1.02-69.358-1.311-22.966-0.292-39.622-0.3-41.871-0.24-2.25,0.06-3.344,1.214-3.74,3.25s-1.915,12.655-1.595,16.248,2.57,3.533,6.618,3.426,92.773,1.591,99.989,2.075c7.215,0.484,8.055-1.789,9.102-4.743,1.048-2.955,4.543-15.427,4.543-15.427z"/>
      </g>
      <g id="g75015">
       <path id="path75017" d="m332.66,77.828c2.092-14.46,4.838-46.719,3.486-55.236-1.351-8.517-8.98-7.64-17.788-8.756-8.808-1.117-67.637-4.283-109.93-3.611-42.297,0.672-47.398,3.508-53.595,7.499s-39.242,30.975-55.538,53.014c19.253-3.886,211.99-1.346,233.37,7.09z"/>
      </g>
      <path id="path75019" d="m342.3,25.58c0.05,10.352-2.819,46.44-3.99,53.224,22.675-2.177,86.102-3.859,111.49-5.658-5.547-5.48-24.08-33.798-45.291-52.817,0,0-7.003-9.417-36.474-8.936-22.048,0.359-24.829,5.835-25.733,14.187z"/>
      <path id="path75021" d="m339.84,76.737c0.03,1.125,0.941,1.551,2.492,0.609,1.55-0.941,4.231-1.688,4.658-2.6,2.066,1.521,9.044,1.561,21.865,1.221,12.82-0.34,16.667,0.458,17.466-3.389,0.798-3.848,0.697-7.671,0.188-9.908-0.51-2.237-2.629-5.782-11.401-5.55s-9.902,0.038-14.845,0.394c-4.942,0.356-6.931,1.76-8.665,4.281-1.734,2.522-1.437,5.215-4.148,4.837s-2.482-8.712-5.478-11.334l-2.132,21.439z" fill="#FFF"/>
      <path id="path75023" d="M389.79,76.313c-1.85-22.239-24.02-65.535-24.02-65.535" stroke="#FFF" stroke-width="0.5" fill="none"/>
      <path id="path75025" d="M395.42,76.388c-4.3-25.276-27.41-66.121-27.41-66.121" stroke="#FFF" stroke-width="0.5" fill="none"/>
      <g id="g75027">
       <path id="path75029" d="M434.31,74.682c-9.43-24.733-32.92-53.145-38.73-60.193" stroke="#FFF" stroke-width="0.5" fill="none"/>
      </g>
      <path id="path75031" d="M437.69,74.592c-9.44-24.733-32.67-52.027-38.48-59.075" stroke="#FFF" stroke-width="0.5" fill="none"/>
      <path id="path75033" d="m347.44,66.632-4.188-13.619s0.818-20.054,0.882-26.132c0.063-6.079,2.874-10.43,10.717-11.763,7.842-1.333,12.34-1.453,12.34-1.453" stroke="#FFF" stroke-width="0.5" fill="none"/>
      <path id="path75035" d="m369.9,13.594c7.641-0.428,22.889,1.644,28.595,4.644" stroke="#FFF" stroke-width="0.5" fill="none"/>
      <path id="path75037" d="m404.91,22.681c9.691,8.971,31.304,34.619,42.165,49.523" stroke="#FFF" stroke-width="0.5" fill="none"/>
      <path id="path75039" d="m481.29,165.49c6.859-4.458,6.873-8.173,9.626-18.937s0.864-14.09-1.767-15.708c0.032-3.039-4.532-5.394-4.556-6.294-0.024-0.899,2.576-21.675-1.037-30.583-7.75-19.112-20.46-24.663-32.15-24.353-7.52-11.955-35.37-43.627-44.57-51.036-9.2-7.408-16.54-12.616-44.97-15.013-28.42-2.397-140.76-3.468-163.92-2.403-23.15,1.064-33.13,6.73-44.61,15.138-11.481,8.408-33.478,27.672-43.757,38.974-1.166-1.544-3.688-3.278-6.612-3.201-2.924,0.078-4.504-0.105-9.228,0.02s-8.263,2.47-8.872,4.962-0.526,5.641-0.46,8.115c0.065,2.475,0.332,4.043,2.605,4.883l5.464,2.331s-1.302,1.835-9.789,4.311c-45.45,9.083-63.085,23.055-65.635,28.75s-5.034,13.863-5.572,19.054c-0.537,5.191-0.009,12.379-0.009,12.379-2.459,0.627-5.953,4.659-4.79,6.092-2.894,1.202-4.933,0.693-5.618,4.538-0.686,3.844-0.131,12.045,0.689,13.261s1.039,0.985,1.039,0.985-0.745,1.595-0.206,4.957,2.42,10.627,4.007,11.035" stroke="#000" stroke-width="1.5" fill="none"/>
      <path id="path75041" d="m482.25,91.529c-1.799,0.048-2,0.953-1.491,3.19s1.708,13.459,1.572,16.839c-0.136,3.379,0.356,4.942,3.061,5.095,0,0,0.364-11.713-0.459-17.319-0.823-5.604-2.683-7.805-2.683-7.805z" stroke-width="1.5" stroke="#000"/>
      <path id="path75043" d="m343.22,144.96s-2.498-0.834-1.976,1.853c0.521,2.687,0.581,4.936,0.581,4.936,0.272,1.793,2.51,1.284,2.51,1.284,28.523-2.332,75.033-5.366,99.064-7.354,1.805,0.177,1.97-2.078,1.97-2.078l0.798-3.847s0.202-1.223-2.054-1.071c-27.41,1.853-63.61,3.263-100.89,6.277z"/>
      <g id="g75045">
       <path id="path75047" d="m59.248,207.18s-4.54-1.455-5.292-4.361,4.12,2.591,8.139,1.359c0,0.001-1.29,2.286-2.847,3.002z" fill="#FFF"/>
      </g>
      <path id="path75049" d="m291.63,188.44c1.339-1.903,6.457-25.306,8.818-35.156,3.264-2.473,6.514-3.714,10.48-3.819,13.739-0.364,25.304,15.433,25.831,35.284,0.526,19.851-10.185,36.239-23.924,36.604-11.828,0.313-22.045-11.352-24.994-27.27,1.783-2.862,3.789-5.643,3.789-5.643" fill="#FFF"/>
      <g id="g75051">
       <path id="path75053" d="m298.82,158.07c2.557-2.388,5.493-3.982,8.661-4.548,0.336,3.681-0.231,7.748-4.208,10.554s-5.646-0.75-5.646-0.75l1.193-5.256z"/>
      </g>
      <path id="path75055" d="m289.36,191.6c0.066-0.273,0.108,0.298,0.447,2.067,0,0,3.599-2.545,4.622-6.399,1.023-3.853-0.038-9.902-0.038-9.902s-2.133,8.723-3.151,10.606l-1.88,3.628"/>
      <g id="g75057">
       <path id="path75059" d="m293.52,204.64c2.682,5.208,6.376,9.191,10.615,11.29,0,0,2.24-7.734-1.831-11.763-5.316-5.261-8.784,0.473-8.784,0.473z"/>
      </g>
      <g id="g75061">
       <path id="path75063" d="m313.9,217.29c4.805-0.968,9.06-4.304,12.244-9.186-1.944-1.817-4.732-5.119-9.597-1.839s-3.846,8.732-2.647,11.025z"/>
      </g>
      <g id="g75065">
       <path id="path75067" d="m331.14,176.65c0.536,2.617,0.857,5.373,0.933,8.221,0.113,4.269-0.336,8.358-1.25,12.111-2.156-0.486-4.915-2.664-4.863-9.192,0.051-6.529,0.614-7.841,5.18-11.14z"/>
      </g>
      <g id="g75069">
       <path id="path75071" d="m315.76,154.96c4.265,1.844,8.025,5.58,10.824,10.564-2.407,3.103-4.62,4.512-8.326,0.559s-3.513-8.78-2.498-11.123z"/>
      </g>
      <g id="g75073">
       <ellipse id="ellipse75075" d="m 315.454,175.99001 c 0,1.05431 -1.28226,1.909 -2.864,1.909 -1.58175,0 -2.864,-0.85469 -2.864,-1.909 0,-1.05432 1.28225,-1.909 2.864,-1.909 1.58174,0 2.864,0.85468 2.864,1.909 z" cx="312.59" cy="175.99" rx="2.864" ry="1.909" transform="matrix(-0.0961,0.9954,-0.9954,-0.0961,517.7942,-118.2481)"/>
       <path id="path75077" d="M312.59,175.99"/>
      </g>
      <g id="g75079">
       <ellipse id="ellipse75081" d="m 308.38399,180.89999 c 0,1.05432 -1.28226,1.909 -2.864,1.909 -1.58174,0 -2.864,-0.85468 -2.864,-1.909 0,-1.05431 1.28226,-1.909 2.864,-1.909 1.58174,0 2.864,0.85469 2.864,1.909 z" cx="305.52" cy="180.9" rx="2.864" ry="1.909" transform="matrix(-0.0961,0.9954,-0.9954,-0.0961,514.9364,-105.8204)"/>
       <path id="path75083" d="M305.52,180.9"/>
      </g>
      <g id="g75085">
       <ellipse id="ellipse75087" d="m 309.35399,192.13 c 0,1.05432 -1.28226,1.909 -2.864,1.909 -1.58174,0 -2.864,-0.85468 -2.864,-1.909 0,-1.05431 1.28226,-1.909 2.864,-1.909 1.58174,0 2.864,0.85469 2.864,1.909 z" cx="306.49" cy="192.13" rx="2.864" ry="1.909" transform="matrix(-0.0961,0.9954,-0.9954,-0.0961,527.1791,-94.4821)"/>
       <path id="path75089" d="M306.49,192.13"/>
      </g>
      <g id="g75091">
       <ellipse id="ellipse75093" d="m 317.29399,194.39 c 0,1.05431 -1.28225,1.909 -2.864,1.909 -1.58174,0 -2.864,-0.85469 -2.864,-1.909 0,-1.05431 1.28226,-1.909 2.864,-1.909 1.58175,0 2.864,0.85469 2.864,1.909 z" cx="314.43" cy="194.39" rx="2.864" ry="1.909" transform="matrix(-0.0962,0.9954,-0.9954,-0.0962,538.1592,-99.8814)"/>
       <path id="path75095" d="M314.43,194.4"/>
      </g>
      <g id="g75097">
       <ellipse id="ellipse75099" d="m 320.614,183.95 c 0,1.05431 -1.28226,1.909 -2.864,1.909 -1.58174,0 -2.864,-0.85469 -2.864,-1.909 0,-1.05431 1.28226,-1.909 2.864,-1.909 1.58174,0 2.864,0.85469 2.864,1.909 z" cx="317.75" cy="183.95" rx="2.864" ry="1.909" transform="matrix(-0.0961,0.9954,-0.9954,-0.0961,531.3823,-114.6561)"/>
       <path id="path75101" d="M317.75,183.95"/>
      </g>
      <g id="g75103" stroke-width="0.5" stroke="#000" fill="none">
       <ellipse id="ellipse75105" d="m 316.53699,185.42 c 0,1.96171 -2.38498,3.552 -5.327,3.552 -2.94202,0 -5.327,-1.59029 -5.327,-3.552 0,-1.96172 2.38498,-3.552 5.327,-3.552 2.94202,0 5.327,1.59028 5.327,3.552 z" cx="311.21" cy="185.42" rx="5.327" ry="3.552" transform="matrix(-0.0961,0.9954,-0.9954,-0.0961,525.665,-106.5354)"/>
       <path id="path75107" d="M311.21,185.42"/>
      </g>
      <path id="path75109" d="m292.3,185.92c0.4,15.086,8.922,27.1,19.035,26.832,10.112-0.269,17.985-12.716,17.585-27.803-0.4-15.086-8.922-27.1-19.034-26.832-3.945,0.105-7.549,2.063-10.455,5.309" stroke="#FFF" stroke-width="0.5" fill="none"/>
      <path id="path75111" d="m289.46,192.35c2.413,15.773,12.043,27.501,23.23,27.205,12.64-0.335,22.482-15.895,21.981-34.753-0.5-18.858-11.153-33.875-23.792-33.539-3.649,0.097-8.071,1.714-11.072,4.061" stroke="#000" stroke-width="0.5" fill="none"/>
      <g id="g75113">
       <path id="path75115" d="m300.04,158.01c2.685-2.508,5.768-4.181,9.094-4.775,0.353,3.866-0.243,8.135-4.418,11.082s-5.929-0.788-5.929-0.788l1.253-5.519z" stroke="#000" stroke-width="0.5" fill="none"/>
      </g>
      <path id="path75117" d="m316.35,154.61c4.478,1.936,8.637,6.697,11.575,11.93-2.643,3.407-5.914,3.551-9.671-0.457-3.891-4.15-2.97-9.012-1.904-11.473z" stroke="#000" stroke-width="0.5" fill="none"/>
      <path id="path75119" d="m330.88,174.43c0.65,3.174,1.04,6.516,1.132,9.97,0.137,5.177-0.408,10.136-1.517,14.688-2.615-0.59-4.594-3.267-4.531-11.185s-0.62-9.472,4.916-13.473z" stroke="#000" stroke-width="0.5" fill="none"/>
      <g id="g75121">
       <path id="path75123" d="m314.42,216.3c5.045-1.016,9.513-4.519,12.856-9.645-2.042-1.908-4.969-5.375-10.077-1.931-5.108,3.445-4.037,9.168-2.779,11.576z" stroke="#000" stroke-width="0.5" fill="none"/>
      </g>
      <g id="g75125">
       <path id="path75127" d="m294.69,204.99c2.816,5.468,6.695,9.651,11.146,11.854,0,0,2.352-8.12-1.922-12.35-5.583-5.524-9.224,0.496-9.224,0.496z" stroke="#000" stroke-width="0.5" fill="none"/>
      </g>
      <path id="path75129" d="m289.36,191.6c0.067,0.661,0.362,2.429,0.673,4.056,0,0,4.177-2.953,5.314-7.642,1.51-6.228-0.497-13.095-0.497-13.095" stroke="#000" stroke-width="0.5" fill="none"/>
      <path id="path75131" d="m450.65,146.28c1.223-2.187,2.633-3.435,4.159-3.476,5.286-0.14,9.957,14.27,10.432,32.185s-3.425,32.553-8.711,32.693c-5.201,0.138-9.806-13.81-10.406-31.323-0.532-20.091,3.814-28.69,4.526-30.079z" fill="#FFF"/>
      <g id="g75133">
       <path id="path75135" d="m450.26,150.41c0.952-2.119,2.061-3.516,3.273-3.984,0.18,3.326,0.017,6.986-1.476,9.463-1.493,2.478-2.185-0.754-2.185-0.754l0.388-4.725z"/>
      </g>
      <g id="g75137">
       <path id="path75139" d="m448.86,192.35c1.104,4.735,2.582,8.38,4.243,10.331,0,0,0.756-6.946-0.867-10.636-2.119-4.82-3.376,0.305-3.376,0.305z"/>
      </g>
      <g id="g75141">
       <path id="path75143" d="m456.88,204.04c1.837-0.807,3.43-3.758,4.589-8.119-0.774-1.666-1.893-4.683-3.721-1.791-1.829,2.893-1.361,7.825-0.868,9.91z"/>
      </g>
      <g id="g75145">
       <path id="path75147" d="m462.96,167.61c0.242,2.369,0.404,4.858,0.472,7.429,0.102,3.853-0.015,7.536-0.315,10.909-0.837-0.468-1.929-2.471-1.999-8.359-0.069-5.89,0.129-7.066,1.842-9.979z"/>
      </g>
      <g id="g75149">
       <path id="path75151" d="m456.74,147.84c1.668,1.722,3.167,5.144,4.313,9.678-0.884,2.766-1.717,4.007-3.199,0.39s-1.473-7.968-1.114-10.068z"/>
      </g>
      <g id="g75153">
       <path id="path75155" d="m455.75,169.33c0.406,0.106,0.764-0.958,0.801-2.376s-0.262-2.654-0.667-2.759c-0.406-0.106-0.764,0.958-0.801,2.376s0.261,2.653,0.667,2.759z"/>
       <path id="path75157" d="M455.81,166.76"/>
      </g>
      <g id="g75159">
       <path id="path75161" d="m453.09,173.67c0.406,0.105,0.765-0.958,0.801-2.376,0.037-1.418-0.262-2.653-0.667-2.759s-0.764,0.958-0.801,2.376,0.262,2.653,0.667,2.759z"/>
       <path id="path75163" d="M453.16,171.1"/>
      </g>
      <g id="g75165">
       <path id="path75167" d="m453.62,183.81c0.406,0.106,0.764-0.958,0.801-2.376s-0.262-2.653-0.667-2.759-0.764,0.958-0.801,2.376,0.262,2.654,0.667,2.759z"/>
       <path id="path75169" d="M453.69,181.24"/>
      </g>
      <g id="g75171">
       <path id="path75173" d="m456.71,185.96c0.406,0.105,0.765-0.958,0.801-2.376,0.037-1.418-0.262-2.653-0.667-2.759s-0.764,0.958-0.801,2.376,0.262,2.653,0.667,2.759z"/>
       <path id="path75175" d="M456.77,183.39"/>
      </g>
      <g id="g75177">
       <path id="path75179" d="m457.84,176.59c0.405,0.105,0.764-0.958,0.801-2.376s-0.262-2.653-0.668-2.759c-0.405-0.106-0.764,0.958-0.801,2.376-0.036,1.418,0.262,2.653,0.668,2.759z"/>
       <path id="path75181" d="M457.91,174.02"/>
      </g>
      <g id="g75183" stroke-width="0.5" stroke="#000" fill="none">
       <path id="path75185" d="m455.29,180.03c0.754,0.197,1.422-1.782,1.491-4.42,0.068-2.638-0.487-4.936-1.242-5.133s-1.422,1.782-1.491,4.42,0.488,4.936,1.242,5.133z"/>
       <path id="path75187" d="M455.41,175.25"/>
      </g>
      <path id="path75189" d="m446.87,176.75c0.626,16.425,4.841,29.438,9.582,29.313,4.863-0.129,8.44-14.031,7.988-31.05-0.451-17.019-4.76-30.712-9.623-30.583-1.404,0.037-3.084,1.436-4.208,3.512-1.586,4.069-4.472,14.34-3.722,28.895" stroke="#000" stroke-width="0.5" fill="none"/>
      <g id="g75191">
       <path id="path75193" d="m450.74,150.38c1-2.225,2.164-3.692,3.437-4.183,0.189,3.492,0.018,7.336-1.549,9.937-1.568,2.601-2.294-0.792-2.294-0.792l0.406-4.962z" stroke="#000" stroke-width="0.5" fill="none"/>
      </g>
      <path id="path75195" d="m456.97,147.53c1.751,1.808,3.417,6.16,4.621,10.921-0.971,3.037-2.229,3.122-3.73-0.545-1.556-3.798-1.268-8.171-0.891-10.376z" stroke="#000" stroke-width="0.5" fill="none"/>
      <path id="path75197" d="m462.83,165.61c0.294,2.873,0.49,5.892,0.573,9.01,0.124,4.672-0.018,9.139-0.382,13.23-1.015-0.568-1.814-3.01-1.898-10.152s-0.37-8.555,1.707-12.088z" stroke="#000" stroke-width="0.5" fill="none"/>
      <g id="g75199">
       <path id="path75201" d="m457.07,203.15c1.929-0.848,3.602-3.946,4.819-8.525-0.813-1.749-1.988-4.917-3.907-1.88-1.92,3.037-1.429,8.215-0.912,10.405z" stroke="#000" stroke-width="0.5" fill="none"/>
      </g>
      <g id="g75203">
       <path id="path75205" d="m449.32,192.68c1.16,4.972,2.711,8.799,4.455,10.847,0,0,0.794-7.293-0.91-11.168-2.225-5.06-3.545,0.321-3.545,0.321z" stroke="#000" stroke-width="0.5" fill="none"/>
      </g>
      <g id="g75207">
       <path id="path75209" d="m449.35,168.54s0.484,3.24-0.012,8.837c-0.374,4.214-1.941,6.821-1.941,6.821-0.188-1.937-0.527-5.261-0.515-7.362,0.028-4.991,0.435-12.592,0.507-13.663,0,0,1.479,2.675,1.961,5.367z" stroke="#000" stroke-width="0.5" fill="none"/>
      </g>
      <g id="g75211">
       <path id="path75213" d="m449.39,170.07s0.463,2.427-0.07,6.629c-0.401,3.164-1.986,5.129-1.986,5.129-0.175-1.451-0.492-3.942-0.466-5.52,0.062-3.744,0.518-9.449,0.598-10.253-0.001,0.001,1.461,1.998,1.924,4.015z"/>
      </g>
      <path id="path75215" d="m328.87,75.442c1.98-14.025,4.642-42.646,3.354-50.909s-7.062-7.75-15.429-8.839c-8.368-1.088-71.084-4.306-111.27-3.677-40.182,0.629-43.841,3.346-49.726,7.214s-37.295,28.84-52.765,50.209" stroke="#FFF" stroke-width="0.5" fill="none"/>
      <path id="path75217" d="m91.968,72.927c2.336-1.397,3.943-2.33,5.094-3.695,0,0-5.208-0.604-7.455-1.434s-5.348-0.303-5.197-5.795-0.556,6.986,1.987,7.809c2.543,0.822,4.35,1.813,5.243,1.938,0.894,0.123,0.328,1.177,0.328,1.177z"/>
      <path id="path75219" d="M109.58,55.273c-3.59,3.783-10.917,11.709-12.513,13.958-1.287,1.814-6.264,4.319-6.264,4.319" stroke="#000" stroke-width="0.5" fill="none"/>
      <path id="path75221" d="m107.43,57.386c-2.052,0.944-4.419,1.156-6.452,2.841,0,0,0.414-4.833-1.78-5.589-2.4-0.827-9.062-0.354-10.388-0.021" stroke="#000" stroke-width="0.5" fill="none"/>
      <g id="g75223">
       <path id="path75225" d="m185.68,111.57c0.186-1.921-0.81-3.812-3.887-4.003-5.669-0.354-48.723-1.445-72.84-1.9-24.118-0.456-41.609-0.539-43.97-0.477-2.362,0.063-3.506,1.462-3.914,3.937-0.407,2.475-1.955,15.382-1.603,19.753s2.714,4.308,6.964,4.195c4.251-0.112,97.431,2.344,105.01,2.964s8.451-2.141,9.538-5.728c1.086-3.589,4.702-18.741,4.702-18.741z" stroke="#000" stroke-width="0.5" fill="none"/>
      </g>
      <path id="path75227" d="m16.219,130.71c-0.734-5.32,2.422-20.534,5.565-25.068,8.925,0.95,24.638,0.533,29.678,0.399,5.04-0.133,5.977,1.622,5.494,5.788s-1.713,13.692-0.956,19.902c-5.024,0.728-31.745-0.047-39.781-1.021z" fill="#FFF" stroke="#000"/>
      <path id="path75229" d="m21.784,105.64c-3.159,3.94-5.987,20.333-5.565,25.068,0,0-4.279,0.855-4.381-2.999s3.422-17.648,5.956-22.139l3.99,0.07z" fill="#FFF" stroke="#000"/>
      <path id="path75231" d="m201.65,108.88s-8.613-0.365-9.978,4.122c-1.364,4.486-3.773,14.34-6.035,18.553,0,0-1.7,3.012,2.755,3.19s44.508,0.303,53.105,0.075c1.013-6.554,3.046-19.364,4.692-24.451,0.001,0-29.988-0.985-44.539-1.489z" fill="#FFF" stroke="#000"/>
      <path id="path75233" d="m246.19,110.37c-1.942,5.095-4.232,19.396-4.692,24.451,0,0,16.017-0.128,20.16-0.535s7.988-0.805,9.009-7.063c1.021-6.257,1.254-8.637,1.199-10.712s-1.367-6.787-8.185-6.606-17.491,0.465-17.491,0.465z" fill="#FFF" stroke="#000"/>
      <path id="path75235" d="m56,131.73c0.415,4.439,4.332,6.708,12.929,6.48s88.167,2.111,97.068,2.172c8.902,0.06,15.783,2.251,19.643-8.828" fill="none" stroke="#000"/>
      <path id="path75237" d="m11.468,136.88c5.541,1.229,29.297,2.082,55.721,2.864,26.424,0.783,85.771,1.285,105.97,2.233s62.632,1.306,82.495,0.778c19.863-0.526,48.315-1.578,48.315-1.578" stroke="#000" stroke-width="1.5" fill="none"/>
      <path id="path75239" d="m206.7,176.39c-2.043,1.241-6.239,10.846-3.836,11.969s22.711,0.584,27.134-0.423,3.303-4.093,3.541-6.324c0.268-2.52-0.691-3.69-2.177-3.799-3.947-0.289-24.662-1.423-24.662-1.423z" fill="#FFF"/>
      <path id="path75241" d="m14.316,170.81c-3.125-0.362-4.291,0.411-4.076,2.927s0.578,5.028,1.371,6.936c0.792,1.907,2.134,2.168,3.917,2.269,1.782,0.101,12.05,1.312,14.426,1.397s2.152-2.727,2.152-2.727l-1.222-6.939s0.237-2.231-3.632-2.722-12.936-1.141-12.936-1.141z" fill="#FFF"/>
      <line id="line75243" stroke-width="0.5" x1="208.87" x2="206.71" stroke="#000" y1="134.95" y2="143.01" fill="none"/>
      <line id="line75245" stroke-width="0.5" x1="223.12" x2="221.83" stroke="#000" y1="135.16" y2="142.61" fill="none"/>
      <line id="line75247" stroke-width="0.5" x1="25.429" x2="24.72" stroke="#000" y1="131.21" y2="138.05" fill="none"/>
      <g id="g75249">
       <line id="line75251" stroke-width="0.5" x1="36.133" x2="35.853" stroke="#000" y1="132.11" y2="138.35" fill="none"/>
      </g>
      <g id="g75253">
       <line id="line75255" stroke-width="0.5" x1="38.508" x2="38.229" stroke="#000" y1="132.2" y2="138.43" fill="none"/>
      </g>
      <path id="path75257" d="m57.979,105.72c0.452-5.352,6.302-8.474,13.026-12.212,6.724-3.739,25.415-14.915,28.597-17.965,3.182-3.051,2.503-6.296,2.503-6.296" stroke="#000" stroke-width="0.5" fill="none"/>
      <path id="path75259" d="m302.72,71.638c-2.456,8.075-16.132,6.955-71.88,19.113-15.684,3.421-40.026,10.282-42.5,19.521-2.159,8.067-5.098,20.309-5.098,20.309" stroke="#000" stroke-width="0.5" fill="none"/>
      <path id="path75261" d="m246.46,109.32c2.511-6,12.785-10.129,26.335-13.752,13.551-3.623,44.186-11.853,51.254-13.82s8.424-6.75,8.424-6.75" stroke="#000" stroke-width="0.5" fill="none"/>
      <path id="path75263" d="m241.24,136.16-1.31,6.562s-5.803,4.901-5.74,7.272" stroke="#000" stroke-width="0.5" fill="none"/>
      <path id="path75265" d="m16.254,132.04-0.451,5.352c-2.036,1.538-5.515,4.596-3.969,6.929s0.023,0.89,0.023,0.89" stroke="#000" stroke-width="0.5" fill="none"/>
      <path id="path75267" d="M22.061,104.89c2.191-6.878,22.372-17.797,34.729-21.685" stroke="#000" stroke-width="0.5" fill="none"/>
      <path id="path75269" d="m180.13,112.23c-5.397-0.271-47.73-1.133-70.696-1.424-22.965-0.291-40.507-0.127-42.756-0.068" stroke="#FFF" stroke-width="0.5" fill="none"/>
      <path id="path75271" d="m180.5,114.74c-5.397-0.271-48.472-1.114-71.438-1.405-22.965-0.291-41.4-0.252-43.649-0.192" stroke="#FFF" stroke-width="0.5" fill="none"/>
      <path id="path75273" d="m179.23,117.3c-5.398-0.271-47.583-1.137-70.548-1.428s-41.4-0.252-43.649-0.192" stroke="#FFF" stroke-width="0.5" fill="none"/>
      <path id="path75275" d="m178.41,119.84c-5.397-0.271-47.138-1.149-70.103-1.44-22.966-0.291-41.4-0.252-43.649-0.192" stroke="#FFF" stroke-width="0.5" fill="none"/>
      <path id="path75277" d="m177.88,122.38c-5.398-0.271-46.99-1.153-69.955-1.444-22.966-0.291-41.4-0.252-43.649-0.192" stroke="#FFF" stroke-width="0.5" fill="none"/>
      <path id="path75279" d="m177.05,124.77c-5.397-0.271-46.541-1.017-69.506-1.308-22.966-0.291-41.4-0.252-43.649-0.192" stroke="#FFF" stroke-width="0.5" fill="none"/>
      <path id="path75281" d="m176.09,127.46c-5.397-0.271-45.952-1.18-68.917-1.471s-40.807-0.268-43.057-0.208" stroke="#FFF" stroke-width="0.5" fill="none"/>
      <path id="path75283" d="m174.67,129.88c-5.397-0.271-44.91-1.06-67.876-1.351-22.965-0.291-39.77-0.295-42.019-0.236" stroke="#FFF" stroke-width="0.5" fill="none"/>
      <g id="g75285" stroke="#FFF" fill="none">
       <g id="g75287">
        <path id="path75289" d="m100.12,125.31c2.905,1.63,6.815,0.349,8.732-2.862s1.116-7.136-1.789-8.767c-2.905-1.63-6.815-0.349-8.732,2.862-1.917,3.212-1.116,7.137,1.789,8.767z"/>
        <path id="path75291" d="M103.59,119.49"/>
       </g>
       <g id="g75293">
        <path id="path75295" d="m109.61,125.35c2.905,1.63,6.815,0.349,8.732-2.862s1.116-7.136-1.789-8.767-6.815-0.349-8.732,2.862c-1.917,3.212-1.116,7.137,1.789,8.767z"/>
        <path id="path75297" d="M113.08,119.54"/>
       </g>
       <g id="g75299">
        <path id="path75301" d="m119.11,125.58c2.905,1.63,6.815,0.349,8.732-2.862s1.116-7.136-1.789-8.766-6.815-0.349-8.732,2.862-1.116,7.136,1.789,8.766z"/>
        <path id="path75303" d="M122.58,119.77"/>
       </g>
       <g id="g75305">
        <path id="path75307" d="m128.61,125.72c2.905,1.631,6.815,0.349,8.732-2.862s1.116-7.136-1.789-8.767c-2.905-1.63-6.815-0.349-8.732,2.862-1.917,3.212-1.116,7.136,1.789,8.767z"/>
        <path id="path75309" d="M132.08,119.91"/>
       </g>
      </g>
      <path id="path75311" d="m296.08,141.15c-1.609-4.083,9.946-35.151,23.836-34.769s21.56,20.811,19.336,50.13c1.447-16.169-5.167-39.252-16.818-40.068s-19.825,16.282-20.28,24.652" stroke="#000" stroke-width="0.5" fill="none"/>
      <path id="path75313" d="m338.85,77.746c-0.275,2.169,0.06,2.249,2.378,4.813s8.8,27.714,7.001,58.898l1.574,2.771,0.411,8.43-1.125,0.03s-1.955,18.246-3.187,21.279" stroke="#000" stroke-width="0.5" fill="none"/>
      <path id="path75315" d="m392.26,75.767c0.035,1.312,1.722,1.267,4.005,2.52,2.284,1.252,8.388,12.157,10.3,27.674,1.912,15.518-0.102,31.514-0.102,31.514l1.214,3.344,0.549,6.55-1.494,0.227s-0.46,18.019-2.762,23.144" stroke="#000" stroke-width="0.5" fill="none"/>
      <path id="path75317" d="m344.3,169.88s85.765-5.276,90.279-4.833c4.513,0.443,8.277,0.906,8.277,0.906" stroke="#000" stroke-width="0.5" fill="none"/>
      <path id="path75319" d="m339.82,142.62s35.928-3.204,57.28-4.333c21.353-1.129,45.132-2.697,45.132-2.697s2.816,0.113,2.772-1.574c-0.045-1.687,7.042-31.51,13.439-30.742s12.301,18.243,12.301,18.243" stroke="#000" stroke-width="0.5" fill="none"/>
      <path id="path75321" d="m442.59,163.15s5.278-48.532,19.37-47.593,11.992,27.817,11.992,27.817" stroke="#000" stroke-width="0.5" fill="none"/>
      <path id="path75323" d="m472.79,127.84c3.749-0.1,9.855-1.514,11.801-3.284" stroke="#000" stroke-width="0.5" fill="none"/>
      <path id="path75325" d="m441.27,167.12c-1.072,4.726-2.948,18.843-6.617,21.941-3.669,3.099-7.048,3-14.205,1.877s-18.25-2.142-37.152-0.515c-18.901,1.627-30.532,1.56-37.984,3.446,0,0,1.977-5.882,0.232-20.834" stroke="#FFF" stroke-width="0.5" fill="none"/>
      <path id="path75327" d="m346.33,182.77c12.538-1.083,72.418-6.422,91.985-4.128" stroke="#FFF" stroke-width="0.5" fill="none"/>
      <g id="g75329" stroke-width="0.5" stroke="#000" fill="none">
       <g id="g75331">
        <path id="path75333" d="m401,98.118c0.413-0.029,0.724-0.389,0.694-0.802l-0.107-1.496c-0.03-0.413-0.389-0.724-0.802-0.694l-7.294,0.522c-0.413,0.03-0.724,0.389-0.694,0.802l0.107,1.496c0.03,0.414,0.389,0.724,0.802,0.695l7.29-0.523z"/>
        <path id="path75335" d="M397.25,96.883"/>
       </g>
       <g id="g75337">
        <path id="path75339" d="m393.52,98.616c0.649,3.266,0.582,3.893,3.752,3.558,3.554-0.375,4.304-0.396,3.741-3.944"/>
        <path id="path75341" d="m393.52,98.616c-1.872,0.144-1.694-0.236-1.66-2.488,0.025-1.659,1.743-1.453,1.743-1.453l6.832-0.556c2.148-0.338,2.299,1.814,2.299,1.814s0.612,1.859-1.257,2.097"/>
       </g>
      </g>
      <g id="g75343" stroke-width="0.5" stroke="#000" fill="none">
       <g id="g75345">
        <path id="path75347" d="m444.83,95.83c0.331-0.027,0.578-0.385,0.552-0.798l-0.094-1.497c-0.026-0.413-0.315-0.726-0.646-0.699l-5.833,0.484c-0.331,0.027-0.578,0.385-0.552,0.798l0.094,1.497c0.026,0.413,0.315,0.726,0.645,0.699l5.834-0.484z"/>
        <path id="path75349" d="M441.82,94.575"/>
       </g>
       <g id="g75351">
        <path id="path75353" d="m438.85,96.288c0.537,3.268,0.486,3.896,3.021,3.578,2.841-0.357,3.441-0.373,2.972-3.924"/>
        <path id="path75355" d="m438.85,96.288c-1.497,0.134-1.357-0.245-1.342-2.497,0.011-1.658,1.387-1.443,1.387-1.443l5.463-0.52c1.717-0.327,1.849,1.827,1.849,1.827s0.5,1.862-0.995,2.089"/>
       </g>
      </g>
      <path id="path75357" d="m435.44,73.777c0.41,1.302,2.314,2.377,4.603,3.817s10.058,9.31,10.871,20.907c0.604,8.612-0.502,12.91-1.64,15.986-2.1,5.683-5.008,16.264-5.446,20.964,1.165,1.47,1.806,4.454,1.806,4.454" stroke="#000" stroke-width="0.5" fill="none"/>
      <path id="path75359" d="m444.27,145.19c-1.212,3.784-4.031,17.738-4.824,23.199" stroke="#000" stroke-width="0.5" fill="none"/>
      <path id="path75361" d="m291.24,187.98c-5.335,11.021-10.715,13.891-16.683,15.175-11.053,2.377-70.85,1.879-126.41,0.352-55.56-1.53-112.85-2.02-134.63-14.69" stroke="#FFF" stroke-width="0.5" fill="none"/>
      <path id="path75363" d="m347.44,66.632c-1.971,2.078-0.214,8.896-0.214,8.896" stroke="#000" stroke-width="0.5" fill="none"/>
      <path id="path75365" d="m348.8,66.708c3.356-0.764,3.752-2.8,5.054-4.635s3.995-2.132,8.043-2.239,11.684-0.76,16.662,0.233,5.51,4.531,5.381,8.135c-0.129,3.605-6.888,2.934-6.888,2.934s-23.652-0.723-28.334,0.977" stroke="#000" stroke-width="0.5" fill="none"/>
      <path id="path75367" d="m350.29,74.084c1.476-0.842,5.432-0.807,11.055-0.957,5.623-0.149,12.337-0.229,17.292-0.146,5.419,0.091,6.552-2.825,6.552-2.825s0.654,4.423-5.648,4.365c-0.001,0-26.489,0.611-29.251-0.437z"/>
     </g>
    </g>
   </g>
  </g>
 </g>
</svg>
