<?xml version="1.0" encoding="UTF-8" standalone="no"?>
<!-- Created with Inkscape (http://www.inkscape.org/) -->
<svg id="svg2" xmlns:rdf="http://www.w3.org/1999/02/22-rdf-syntax-ns#" xmlns="http://www.w3.org/2000/svg" height="45" width="67.5" version="1.1" xmlns:cc="http://creativecommons.org/ns#" xmlns:dc="http://purl.org/dc/elements/1.1/">
 <metadata id="metadata7">
  <rdf:RDF>
   <cc:Work rdf:about="">
    <dc:format>image/svg+xml</dc:format>
    <dc:type rdf:resource="http://purl.org/dc/dcmitype/StillImage"/>
    <dc:title/>
   </cc:Work>
  </rdf:RDF>
 </metadata>
 <g id="g10094">
  <rect id="rect2990" opacity="0" height="45" width="67.5" y="0" x="3.5527e-15"/>
  <path id="path10092" d="m14.191 31.02c-0.874-0.173-1.883-0.743-2.592-1.464l-0.68213-0.69281h-0.91007-0.91007v-0.59029-0.59029l-0.7498-0.0654c-0.4125-0.036-2.265-0.089-4.1169-0.118-3.1375-0.048-3.3946-0.069-3.7736-0.299l-0.40673-0.24735-0.0394-1.4825c-0.0469-1.7642 0.0226-1.9066 1.2015-2.4632 2.045-0.96555 6.3454-2.3562 9.1988-2.9746 0.75562-0.16377 2.2966-0.42985 3.4245-0.59129 1.1279-0.16145 2.4261-0.39011 2.885-0.50814 0.53948-0.13875 1.0204-0.18838 1.3606-0.14043 0.41976 0.05916 0.69889 0.0035 1.3796-0.27506 1.4726-0.60261 6.411-2.2153 8.3514-2.7273 1.0227-0.26986 2.3994-0.65273 3.0592-0.85084 3.5692-1.0716 7.3402-1.2854 14.456-0.81976 2.7106 0.17738 3.301 0.27761 3.7219 0.63178 0.21481 0.18075 0.58601 0.33358 0.92744 0.38184 3.1522 0.44555 9.8279 1.8404 12.625 2.6379 1.321 0.37663 1.608 0.41809 2.6893 0.38848l1.2105-0.03315 0.2047 0.59984c0.1386 0.40615 0.20639 0.99692 0.20994 1.8295 0.005 1.0744 0.0362 1.2606 0.25044 1.4749 0.17279 0.17278 0.24293 0.39422 0.23752 0.7498-0.004 0.27753 0.0263 0.67841 0.0678 0.89084 0.0683 0.34948 0.0343 0.41053-0.35749 0.64168-0.35906 0.21185-0.43297 0.32344-0.43297 0.65371 0 0.32277-0.0766 0.44559-0.40405 0.64798-0.22224 0.13735-0.53266 0.25089-0.68982 0.25232-0.20358 0.0018-0.33752 0.11398-0.46572 0.3899-0.14382 0.30953-0.26268 0.39518-0.59194 0.42654-0.27589 0.02628-0.59292 0.20004-0.95975 0.52603-0.567 0.50389-1.349 0.92712-1.7214 0.9317-0.11767 0.0014-0.48291-0.13366-0.81164-0.30024l-0.59769-0.30288-0.12587 0.33107c-0.47583 1.2515-1.4151 2.2976-2.5697 2.8621-0.66326 0.32422-0.82348 0.35186-2.0395 0.35186-1.1841 0-1.3909-0.03337-2.0132-0.32499-0.38146-0.17874-1.0023-0.61776-1.3796-0.97559l-0.68608-0.6506-16.171-0.0877-16.171-0.08769-0.69136 0.65945c-1.2933 1.2336-2.8163 1.7196-4.4016 1.4046zm42.98-1.7557c1.2474-0.58903 1.9108-1.7979 1.8043-3.2876-0.12799-1.7888-1.4374-2.9851-3.2708-2.9883-1.0389-0.0018-1.8411 0.33838-2.4866 1.0544-0.64082 0.71086-0.84721 1.2568-0.84721 2.2409 0 0.98127 0.20671 1.5309 0.83903 2.2308 1.0313 1.1416 2.5307 1.4254 3.9613 0.74984zm-2.5597 0.03946c-0.63301-0.23876-1.1958-0.69671-1.6198-1.318-0.35869-0.52564-0.41046-0.70105-0.44511-1.5084-0.0461-1.0742 0.12542-1.5759 0.79144-2.3147 1.4781-1.6397 4.0138-1.3428 5.1583 0.60399 0.28364 0.48248 0.32734 0.68592 0.32589 1.517-0.002 1.0509-0.13478 1.4084-0.80948 2.1768-0.76441 0.87061-2.3116 1.2542-3.4012 0.84325zm2.45-0.271c2.7812-1.3859 1.9774-5.5296-1.1208-5.7783-2.2419-0.17996-3.8188 1.8523-3.1554 4.0665 0.49435 1.65 2.6603 2.517 4.2762 1.7117zm-2.226 0.05656c-0.45779-0.13218-0.47412-0.20623-0.13937-0.63179 0.38219-0.48588 0.89075-0.71204 1.2202-0.54262 0.38616 0.1986 0.92867 0.72761 0.92867 0.90555 0 0.32496-1.2404 0.49093-2.0095 0.26886zm-1.6398-1.3379c-0.38083-0.64984-0.57563-1.8884-0.29649-1.885 0.24085 0.0029 1.0828 0.50459 1.222 0.72825 0.16937 0.27206 0.011 0.95008-0.31807 1.3611l-0.28156 0.35176-0.32587-0.55605zm4.2448 0.12245c-0.35407-0.57363-0.40632-0.89454-0.19755-1.2132 0.19656-0.29998 1.1531-0.81309 1.323-0.7097 0.27617 0.16805-0.44912 2.3128-0.78212 2.3128-0.0565 0-0.21096-0.17545-0.34333-0.3899zm-2.6224-0.67797c-0.30766-0.28739-0.37214-0.43899-0.36993-0.86977 0.004-0.79122 0.52201-1.3015 1.3211-1.3015 0.56214 0 1.1956 0.66739 1.1956 1.2597 0 0.34485-0.091 0.53489-0.4079 0.85178-0.54751 0.54751-1.193 0.56972-1.7388 0.05984zm1.6761-0.12259c0.25963-0.25962 0.35068-0.46449 0.35068-0.78902 0-0.60953-0.53017-1.1397-1.1397-1.1397-1.0337 0-1.5482 1.3145-0.77059 1.9688 0.51643 0.43455 1.1 0.41955 1.5596-0.04009zm-1.3943-0.06376c-0.33553-0.33553-0.3842-0.84368-0.11731-1.2247 0.58758-0.83888 1.8888-0.0135 1.4914 0.94599-0.26066 0.6293-0.89483 0.75795-1.374 0.27873zm1.0269-0.16266c0.16526-0.13381 0.26823-0.34979 0.26823-0.5626 0-0.34644-0.38175-0.7798-0.68694-0.7798-0.28609 0-0.78268 0.49475-0.78268 0.7798 0 0.28504 0.49659 0.7798 0.78268 0.7798 0.0828 0 0.27119-0.09774 0.41871-0.2172zm-0.774-0.21c-0.24963-0.24963-0.23785-0.44947 0.0414-0.70221 0.17763-0.16075 0.28363-0.17939 0.46577-0.08191 0.33118 0.17725 0.3955 0.42295 0.18819 0.71893-0.2113 0.30167-0.43768 0.32289-0.69538 0.06519zm0.46148-0.0042c0.24872-0.09544 0.24481-0.6002-0.006-0.69621-0.38526-0.14784-0.67607 0.32967-0.38068 0.62507 0.16824 0.16824 0.14447 0.16386 0.38608 0.07114zm-2.2696-1.5723c-0.46072-0.11082-0.44322-0.25735 0.095-0.79557 0.48796-0.48796 1.4186-0.9444 1.5854-0.77758 0.11852 0.11851-0.15699 1.1936-0.36468 1.4231-0.20864 0.23054-0.73269 0.29031-1.3157 0.15007zm3.1072-0.0062c-0.24452-0.16327-0.40787-0.60902-0.40787-1.113 0-0.48197 0.0119-0.49777 0.31834-0.42087 0.4737 0.11889 1.2726 0.71117 1.5099 1.1194 0.2047 0.35214 0.20357 0.36031-0.06 0.43095-0.37276 0.0999-1.2011 0.08984-1.3604-0.01653zm-40.517 4.3512c1.3486-0.4005 2.323-1.7427 2.3084-3.1797-0.0144-1.41-0.60215-2.3871-1.7944-2.9828-3.0872-1.5427-6.1998 1.9572-4.2964 4.8309 0.43643 0.65888 0.90877 1.0146 1.7197 1.295 0.74705 0.25832 1.2842 0.26788 2.0627 0.03672zm-1.798-0.108c-0.79707-0.22052-1.5066-0.74986-1.9359-1.4443-0.49895-0.80704-0.57305-2.0167-0.17957-2.9314 0.52659-1.2241 1.8834-2.034 3.1828-1.8999 2.7376 0.28255 3.9042 3.5382 1.9595 5.4683-0.78211 0.77619-1.9822 1.0963-3.0267 0.80733zm2.0275-0.24899c0.54119-0.22539 1.2284-0.87108 1.524-1.4319 0.34232-0.64944 0.36935-2.0848 0.0513-2.7236-0.68511-1.3759-2.2269-2.0543-3.6934-1.6251-1.3197 0.38617-2.1495 1.5154-2.1495 2.9251 0 0.41805 0.0757 0.94135 0.16829 1.1629 0.21026 0.50321 0.96463 1.3483 1.4084 1.5778 0.8018 0.41462 1.8623 0.45984 2.6909 0.11473zm-2.1382-0.08305c-0.18145-0.06627-0.32991-0.16818-0.32991-0.22647s0.19075-0.29672 0.42388-0.52986c0.59144-0.59144 0.9874-0.57219 1.6393 0.07968l0.50356 0.50356-0.3536 0.15085c-0.42047 0.17938-1.4206 0.19119-1.8832 0.02223zm2.6921-1.1085c-0.34837-0.59043-0.42965-0.95949-0.27498-1.2485 0.12455-0.23271 1.0239-0.74267 1.3098-0.74267 0.33281 0-0.0231 1.5032-0.49401 2.0863l-0.28003 0.34681-0.26077-0.44198zm-4.0826 0.13136c-0.29501-0.35547-0.6139-1.2561-0.61637-1.7407-0.002-0.48184 0.0162-0.51225 0.2673-0.4362 0.42636 0.12912 1.0191 0.52136 1.0978 0.72646 0.13028 0.33951 0.0754 0.66856-0.19014 1.1411-0.28435 0.50593-0.36046 0.54808-0.55859 0.30935zm1.9379-0.58411c-0.87313-0.23236-1.1704-1.3295-0.54741-2.0206 0.45714-0.5071 1.0385-0.58602 1.5857-0.21526 1.2151 0.82326 0.38339 2.6142-1.0383 2.2358zm1.2234-0.48215c0.70848-0.84199-0.0509-2.0755-1.1316-1.8381-0.48941 0.10749-0.84917 0.58675-0.84917 1.1312 0 0.55996 0.2692 0.9399 0.75517 1.0658 0.55217 0.14308 0.8853 0.04552 1.2256-0.35894zm-1.4922-0.05272c-0.13676-0.17386-0.24865-0.4365-0.24865-0.58366 0-0.45082 0.444-0.89976 0.88988-0.89976 0.50191 0 0.83767 0.36065 0.83767 0.89976 0 0.85796-0.9639 1.2384-1.4789 0.58366zm1.1274-0.1598c0.24821-0.27427 0.27881-0.76437 0.0639-1.0233-0.23315-0.28094-0.91219-0.22922-1.1332 0.08631-0.25135 0.35886-0.23505 0.64482 0.0532 0.93305 0.30531 0.30531 0.74189 0.30702 1.0161 0.004zm-0.916-0.3c-0.16743-0.36749 0.0335-0.66338 0.45057-0.66338 0.39235 0 0.56965 0.36902 0.33693 0.70126-0.24318 0.3472-0.62031 0.32906-0.7875-0.03789zm0.68004-0.18515c0-0.21816-0.0726-0.30859-0.27046-0.33668-0.32638-0.04635-0.48164 0.26254-0.26386 0.52495 0.22478 0.27084 0.53432 0.16177 0.53432-0.18827zm0.80726-1.1521c-0.25768-0.11428-0.50734-0.72827-0.50734-1.2478 0-0.4569 0.0202-0.48768 0.26993-0.41065 0.53739 0.16577 0.89632 0.40667 1.3436 0.90175 0.38135 0.42211 0.42538 0.52153 0.26958 0.60872-0.2407 0.13471-1.1783 0.23552-1.3758 0.14794zm-3.3566-0.13061c-0.36966-0.0712-0.34284-0.17118 0.19444-0.7248 0.42082-0.43363 1.4959-0.98931 1.6383-0.84684 0.0913 0.09134-0.16918 1.3149-0.31819 1.4944-0.12934 0.15585-0.90182 0.19522-1.5146 0.0772zm8.6077 2.1432c0-0.51737 0.0354-1.759 0.0787-2.7593l0.0787-1.8186-0.58858-0.02163-0.58858-0.02163 0.56985-0.04493 0.56985-0.04493v-0.68787c0-0.42763 0.0824-0.84944 0.21773-1.1149l0.21773-0.42706-2.1672-0.07234c-2.5315-0.0845-6.1732 0.06473-8.0344 0.32926-1.8724 0.26611-3.687 0.75418-6.9493 1.8691-1.5725 0.53741-2.8824 0.9538-2.9109 0.92531-0.0598-0.05982 4.4558-1.607 6.2188-2.1308 1.4529-0.43163 3.312-0.78734 5.0698-0.97002 0.87124-0.09055 4.0128-0.13058 9.2454-0.11783 8.813 0.02148 13.184-0.1469 17.211-0.66304l0.54297-0.0696 0.3424-0.97785c0.18832-0.53782 0.5709-1.5509 0.85016-2.2512l0.50776-1.2734-2.6528-0.08312c-3.5013-0.1097-5.8934 0.11317-7.8114 0.72779-2.0134 0.64517-5.9618 2.5457-7.6933 3.703-0.80143 0.53568-1.1552 0.70824-1.3197 0.64364-0.12355-0.04855-0.52156-0.09405-0.88447-0.10111-0.3629-0.007-1.0377-0.09213-1.4996-0.18903-2.1517-0.45142-2.395-0.4643-3.5763-0.18928-0.60638 0.14118-2.0473 0.39027-3.202 0.55354-2.3451 0.3316-4.2314 0.76265-6.8982 1.5764-1.4977 0.45701-5.0483 1.753-5.1895 1.8943-0.0222 0.0222 0.78544 0.05307 1.7948 0.06858 1.0093 0.01552 2.9149 0.07039 4.2345 0.12193 1.8348 0.07166 1.4525 0.0796-1.6246 0.03376-4.4656-0.06653-4.2598-0.10089-4.3953 0.73389l-0.0699 0.4306h1.676c0.92178 0 2.7251 0.03513 4.0074 0.07808l2.3315 0.07808 0.46808-0.94786c1.1971-2.4241 3.5928-3.6494 6.4377-3.2927 3.0416 0.38138 4.6569 2.5544 4.6635 6.2738l0.002 1.1697h0.3599 0.35991v-0.94067zm2.5698-7.6816c0.0909-0.147 2.5316-1.575 2.692-1.575 0.067 0-0.0274 0.3644-0.20977 0.80979l-0.33158 0.80979-1.1105 0.03462c-0.67864 0.02116-1.0832-0.0096-1.0402-0.07919zm2.5889 0.06772c0-0.02025 0.18346-0.49161 0.40771-1.0475l0.4077-1.0106 1.3618-0.58435c2.2977-0.98591 3.6064-1.3724 5.3228-1.5717 1.9817-0.23016 5.5157-0.36821 6.56-0.25625l0.80345 0.08614-0.12884 0.32104c-0.0709 0.17657-0.3879 1.0229-0.70453 1.8806l-0.5757 1.5596-0.45881 0.07739c-0.82055 0.13841-3.7544 0.34092-6.6972 0.46228-2.7594 0.1138-6.2983 0.16062-6.2983 0.08334zm7.648 8.3579 5.9084-0.07828v-0.40235c0-0.48149 0.59126-0.45005-5.3986-0.28701-5.3141 0.14465-13.09 0.22282-11.397 0.11456 0.69282-0.04429 3.1325-0.08715 5.4215-0.09523 2.5922-0.0091 4.1894-0.05936 4.235-0.13311 0.0475-0.0768-1.3835-0.1295-4.0719-0.14996-2.637-0.02007-4.156-0.0752-4.175-0.15152-0.0479-0.19195 1.0377-0.27311 4.5132-0.33741l3.2548-0.06022-2.9992 0.10991c-1.6496 0.06045-3.4041 0.15991-3.899 0.22102-0.883 0.10903-0.87629 0.11019 0.35991 0.06214 0.69281-0.02693 4.0939-0.13715 7.558-0.24494 5.8127-0.18087 6.7163-0.22683 6.5854-0.33501-0.0259-0.02144-1.0729-0.00024-2.3266 0.04704-2.9184 0.11015-13.004-0.0048-13.093-0.14928-0.037-0.05997-0.0305-0.14593 0.0145-0.19103s1.9265-0.16974 4.1809-0.27698l4.099-0.19499-4.1229-0.009c-2.2676-0.005-4.1535-0.03956-4.1909-0.07694-0.21147-0.21147 0.49553-0.29761 3.6351-0.44286l3.4791-0.16096-3.5292-0.05999c-2.532-0.04304-3.5423-0.09946-3.5756-0.19969-0.0565-0.16968 0.49123-0.22622 4.2855-0.44237l2.8192-0.16061-3.5691 0.06067c-3.2701 0.05559-3.5691 0.04399-3.5691-0.13852 0-0.10956 0.0945-0.2035 0.20995-0.20876 0.11547-0.0053 1.1547-0.07892 2.3094-0.1637l2.0994-0.15413-3.5991-0.0422c-1.9795-0.02321-2.9242-0.05633-2.0994-0.0736 0.82478-0.01728 3.2002-0.14005 5.2786-0.27283 5.2834-0.33752 5.249-0.33498 8.4878-0.62581l2.9092-0.26123v-0.45033c0-0.24768 0.0529-0.58957 0.11765-0.75976 0.10726-0.28213 0.094-0.30411-0.14997-0.2491-2.7087 0.61072-11.973 1.7067-17.315 2.0483l-1.2113 0.07747-0.0784 1.987c-0.0431 1.0929-0.0784 2.3371-0.0784 2.7649v0.77786l3.3891-0.07645c1.864-0.04205 6.0479-0.11168 9.2976-0.15473zm12.883-0.16317h2.8578l-0.0651-0.50987c-0.10623-0.83219 0.2428-2.4124 0.78025-3.5325 0.93285-1.9441 2.4926-3.132 4.4644-3.4001 3.8045-0.51721 6.9973 2.5712 6.795 6.5727-0.056 1.1068 0.0116 1.1824 0.68673 0.76785 0.27696-0.17006 2.6513-2.2124 2.7118-2.3326 0.0425-0.08461 0.20999-3.4347 0.21237-4.2502 0.003-1.1775 0.12769-1.4731 0.61913-1.4731 0.39599 0 0.44795-0.17938 0.23168-0.79978l-0.12401-0.35572-1.8855 0.0079c-1.037 0.0043-3.0192-0.06048-4.4048-0.14406-3.0518-0.18408-6.037-0.06156-9.6407 0.39565-1.3433 0.17043-2.4657 0.28657-2.4942 0.25808s0.69274-0.14436 1.6027-0.25749c0.90999-0.11313 1.7085-0.22361 1.7745-0.24551 0.29931-0.09933-1.2513-0.0362-2.9992 0.12212-2.089 0.18921-3.0153 0.21227-1.6877 0.04202 0.4574-0.05866 0.85285-0.12786 0.87877-0.15378 0.0259-0.02592 0.009-0.80286-0.0382-1.7265l-0.0853-1.6794-1.4533-0.06965c-0.79934-0.03831-1.9774-0.08621-2.618-0.10644l-1.1646-0.03679-0.34574 0.78512c-0.46799 1.0627-1.3931 3.5965-1.3326 3.65 0.0268 0.02368 1.0745-0.08507 2.3281-0.24167 1.2537-0.1566 2.4414-0.27102 2.6393-0.25426 0.19795 0.01675-0.73402 0.15888-2.071 0.31583l-2.431 0.28536-0.0684 0.31448c-0.0377 0.17296-0.0906 0.38549-0.11763 0.47228-0.0322 0.10343 0.0229 0.13535 0.15998 0.09264 0.49949-0.15559 5.669-1.146 6.2676-1.2008l0.65982-0.06039-0.59984 0.12189c-0.32991 0.06704-1.886 0.37243-3.4581 0.67864-1.572 0.30621-2.9422 0.61816-3.0449 0.69323-0.25291 0.18493-0.37451 1.3762-0.14057 1.3771 0.0909 0.00036 1.1505-0.08892 2.3548-0.19842 2.1331-0.19396 2.1961-0.19321 2.4423 0.02932 0.2126 0.1921 0.24203 0.31946 0.18513 0.80112-0.0372 0.31499-0.0961 0.61881-0.13096 0.67515-0.0348 0.05635-1.0027 0.14158-2.1509 0.18941s-2.2693 0.13333-2.4913 0.18999c-0.31485 0.08034-0.24527 0.09147 0.31606 0.05056 1.854-0.13512 4.2589-0.19758 4.2589-0.11062 0 0.05314-0.086 0.40324-0.19119 0.778l-0.19119 0.68139-0.79855 0.07543c-0.4392 0.04149-1.2304 0.07982-1.7583 0.08517-0.52786 0.0054-1.2027 0.05432-1.4996 0.1088-0.55517 0.10187 2.0766 0.05343 3.3291-0.06126 0.35009-0.03206 0.62984-0.0081 0.62984 0.05401 0 0.06143-0.17653 0.34532-0.39229 0.63088-0.58382 0.77268-1.0219 0.93757-2.7176 1.0228l-1.4489 0.07285v0.4804 0.4804l1.9986-0.07883c1.0992-0.04336 3.2846-0.07883 4.8564-0.07883zm-6.249-9.0722c0.003-0.12397 0.32191-0.95421 0.70772-1.845l0.70147-1.6196 2.1959 0.0265c1.2077 0.01457 2.2659 0.05337 2.3515 0.08621 0.11553 0.04433 0.15562 0.43012 0.15562 1.4977v1.438l-0.3899 0.06206c-0.21444 0.03413-1.3346 0.14693-2.4893 0.25067s-2.3559 0.22017-2.6693 0.25875c-0.50385 0.06202-0.56912 0.04404-0.56361-0.15526zm-31.604 8.26c0.0733-0.04847 0.17141-0.34663 0.21799-0.66257 0.37961-2.5753 2.1451-4.643 4.3634-5.1102 2.8357-0.59716 5.2278 0.77275 6.3246 3.622 0.34131 0.88667 0.39245 0.52884 0.0717-0.50172-0.30389-0.97641-0.7244-1.6648-1.3941-2.282-0.7412-0.68322-1.5853-1.0481-2.8045-1.2123-2.0358-0.27421-3.8921 0.30518-5.2144 1.6275-0.78892 0.78892-1.2641 1.6517-1.5744 2.8587-0.39531 1.5374-0.12445 1.461-4.9918 1.4089-2.8587-0.03059-4.0694-0.005-4.0694 0.08592 0 0.15024 1.142 0.1959 5.7585 0.23023 1.7485 0.013 3.2392-0.01602 3.3125-0.0645zm-1.0033-0.394c0.4744-0.132 0.716-0.459 0.8461-1.145l0.0704-0.37107-2.4226-0.07849c-1.3324-0.04317-3.1379-0.07863-4.0122-0.07881l-1.5896-0.000315-0.002 0.62983c-0.0008 0.34641-0.0494 0.70493-0.10751 0.79671-0.0637 0.10059-0.0803-0.14959-0.0418-0.62983l0.064-0.79671h-0.43736-0.43737l0.071 0.68982c0.0391 0.3794 0.0914 0.75624 0.11634 0.83743 0.0336 0.10951 0.72002 0.15659 2.6593 0.18242 1.4377 0.01915 3.0998 0.0469 3.6937 0.06166 0.59384 0.01477 1.2821-0.02934 1.5294-0.09803zm35.661-0.47612c0.19795-0.05175-0.53086-0.06495-1.6196-0.02934s-2.002 0.08433-2.0295 0.10828c-0.0992 0.08636 3.2978 0.01288 3.649-0.07894zm-23.375-0.388c-0.0333-0.08248-0.0605-0.015-0.0605 0.14996s0.0273 0.23244 0.0605 0.14996c0.0333-0.08248 0.0333-0.21744 0-0.29992zm12.814-0.04009c3.7593-0.16702 6.8635-0.33486 6.8982-0.37298 0.0347-0.03813-0.55779-0.03693-1.3166 0.0026-0.7588 0.03958-4.1599 0.18686-7.558 0.32729s-6.2863 0.30089-6.4183 0.35658c-0.14583 0.06154 0.11294 0.07947 0.65983 0.04569 0.49487-0.03056 3.9756-0.19221 7.7349-0.35922zm-2.4563-0.6442c2.5403-0.12862 5.5096-0.26962 6.5983-0.31332 1.0887-0.04371 2.1684-0.12434 2.3994-0.17918 0.28893-0.06861 0.12056-0.08241-0.53986-0.04422-0.52786 0.03053-3.3351 0.16593-6.2384 0.3009-6.2395 0.29006-8.5563 0.42879-7.558 0.45255 0.39589 0.0094 2.7983-0.08811 5.3386-0.21673zm35.94-1.2292c0.0935-0.17818 0.17007-0.59939 0.17007-0.93602v-0.61207l-0.62983 0.03626-0.62984 0.03626-0.0341 1.3781-0.0341 1.3781 0.49396-0.47833c0.27167-0.26308 0.57048-0.6241 0.66402-0.80228zm-65.813 0.65057c0-0.18327 0.084-0.4532 0.18676-0.59984 0.17864-0.25506 0.17321-0.26663-0.12543-0.26663-0.39888 0-0.90111 0.49844-0.90111 0.89431 0 0.26902 0.05 0.30537 0.41989 0.30537 0.37909 0 0.41989-0.03238 0.41989-0.33321zm32.391-0.39198c3.662-0.19907 6.7122-0.38682 6.7782-0.41722 0.16202-0.07464-1.746 0.01333-9.0979 0.41948-3.4202 0.18895-6.2545 0.38142-6.2983 0.42772s0.37916 0.04993 0.94001 0.0081c0.56085-0.04185 4.0159-0.23898 7.678-0.43805zm11.511 0.24225c0.1878-0.10085-1.7816-0.0312-3.5333 0.12496-0.74009 0.06598-0.38159 0.07617 1.1397 0.03241 1.2207-0.03512 2.2978-0.10593 2.3936-0.15736zm-12.503-0.957c7.4867-0.49309 8.2146-0.54975 7.4697-0.58153-0.61415-0.0262-15.022 0.92947-15.094 1.0012-0.0899 0.08994-0.22851 0.09756 7.6242-0.41963zm-1.799-0.20718c-0.24891-0.02597-0.62681-0.02554-0.83978 0.000959-0.21297 0.02651-0.009 0.04775 0.45255 0.04722 0.46188-0.00048 0.63613-0.02222 0.38723-0.04819zm12.622-0.51325c1.1504-0.06789 2.1222-0.15684 2.1594-0.19769 0.0373-0.04084-0.36411-0.04057-0.89198 0.0006-0.52786 0.04117-1.65 0.11091-2.4937 0.15497-0.84368 0.04406-1.5602 0.12256-1.5923 0.17445s0.11837 0.07111 0.33428 0.04272c0.21592-0.02839 1.3338-0.10717 2.4842-0.17505zm-17.028-0.431c5.2524-0.4388 13.989-1.6151 14.267-1.9208 0.0536-0.05905 0.12785-0.27074 0.16497-0.47044l0.0675-0.36309-1.3182 0.1486c-3.6771 0.41451-6.0475 0.5383-11.539 0.60263l-5.7363 0.0672-0.18844 0.28759c-0.10456 0.15959-0.2154 0.66447-0.24902 1.1344l-0.0605 0.84679 1.2466-0.07874c0.68561-0.04331 2.1913-0.15767 3.346-0.25414zm24.354-3.9003c2.4712-0.17574 9.2783-0.18344 11.152-0.01262 0.82177 0.07493 1.5109 0.11946 1.5314 0.09895 0.0456-0.0456-2.82-0.7789-4.945-1.2654-2.2036-0.50449-4.3398-0.92119-6.8258-1.3315-1.7754-0.29305-2.2151-0.4063-2.5402-0.65425-0.26906-0.20523-0.65155-0.33604-1.212-0.41451-1.8212-0.25499-5.5309-0.38948-9.2767-0.33631-3.646 0.05175-3.9885 0.07548-5.2786 0.36569-1.7178 0.38641-2.5841 0.65529-2.1594 0.67025 0.16496 0.0058 0.56985-0.07228 0.89976-0.17352 0.8451-0.25935 2.6103-0.51198 4.1804-0.59827 1.3797-0.07583 11.033 0.23983 11.24 0.36753 0.0638 0.03942 0.11626 0.32492 0.1166 0.63445 0.00036 0.30952 0.0358 1.093 0.0786 1.7412l0.0781 1.1784 0.55119-0.06888c0.30315-0.03789 1.388-0.12838 2.4107-0.20112zm-1.4996-0.60573c-0.81697-0.44685-0.63141-1.3666 0.32354-1.6035 0.75951-0.18846 1.6445 0.4536 1.4875 1.0792-0.13647 0.54375-1.2082 0.85406-1.811 0.52435zm1.4605-0.26887c0.29404-0.25292 0.31977-0.32855 0.21424-0.62983-0.0867-0.24748-0.25507-0.38936-0.60743-0.51178-0.44276-0.15383-0.53063-0.14833-0.95735 0.05998-0.60716 0.2964-0.69515 0.74173-0.22035 1.1152 0.44777 0.35222 1.1396 0.33743 1.5709-0.03357zm1.631 0.92855c-0.0812-0.03286-0.24319-0.03486-0.35991-0.0045-0.11673 0.03042-0.0503 0.0573 0.14768 0.05975 0.19794 0.0025 0.29345-0.02244 0.21223-0.05531zm-28.212-0.33512 0.52667-0.16838-0.53986 0.06085c-0.40233 0.04535-0.49401 0.02829-0.3599-0.06697 0.25745-0.18287 0.14102-0.16208-0.53939 0.09633-0.52229 0.19835-0.56085 0.23462-0.29992 0.282 0.33158 0.06022 0.44739 0.04074 1.2124-0.20383zm0.34672-0.42596c0.099-0.06396 0.12596-0.11629 0.06-0.11629-0.066 0-0.20095 0.05233-0.29992 0.11629-0.099 0.06396-0.12597 0.11629-0.06 0.11629 0.066 0 0.20094-0.05233 0.29992-0.11629z"/>
 </g>
</svg>
