<?xml version="1.0" encoding="UTF-8" standalone="no"?>
<!-- Created with Inkscape (http://www.inkscape.org/) -->
<svg id="svg2" xmlns:rdf="http://www.w3.org/1999/02/22-rdf-syntax-ns#" xmlns="http://www.w3.org/2000/svg" height="54" width="99" version="1.1" xmlns:cc="http://creativecommons.org/ns#" xmlns:dc="http://purl.org/dc/elements/1.1/">
 <metadata id="metadata7">
  <rdf:RDF>
   <cc:Work rdf:about="">
    <dc:format>image/svg+xml</dc:format>
    <dc:type rdf:resource="http://purl.org/dc/dcmitype/StillImage"/>
    <dc:title/>
   </cc:Work>
  </rdf:RDF>
 </metadata>
 <g id="g3491">
  <g id="g3871">
   <g id="g4614">
    <g id="g5219">
     <g id="g5689">
      <g id="g6406">
       <g id="g7263">
        <g id="g8053">
         <g id="g8717">
          <g id="g9406">
           <g id="g9898">
            <g id="g10207">
             <g id="g10407">
              <g id="g10743">
               <g id="g11282">
                <g id="g15079">
                 <g id="g15585">
                  <g id="g16769">
                   <g id="g17492">
                    <g id="g17976">
                     <g id="g18386">
                      <g id="g19746">
                       <g id="g20846">
                        <g id="g21376">
                         <g id="g21705">
                          <g id="g22212">
                           <g id="g26871">
                            <g id="g28064">
                             <g id="g28748">
                              <g id="g29219">
                               <rect id="rect2990" opacity="0" height="54" width="99" y="0" x="0"/>
                               <g id="layer1" transform="translate(268.07195,8.026447)">
                                <g id="logo30" transform="matrix(0.19663931,0,0,0.19663931,-263.56786,7.4291887)">
                                 <g id="g91331">
                                  <path id="path91333" d="m419.21,95.354c2.516,0.131,6.017-1.108,9.203-3.964,3.82-3.423,21.635-18.816,24.196-21.765,2.56-2.949,3.355-5.183,3.411-7.933s0.096-4.749,0.096-4.749c0.036-1.75-2.704-2.305-2.704-2.305s0.309-15.247-0.865-19.021-1.103-7.274-4.362-6.84c-3.26,0.434-13.028,1.236-13.028,1.236-17.41-5.603-61.95-16.007-96.61-20.96-3.75-0.326-5.72-1.866-7.91-4.661-20.94-3.175-65.67-4.331-86.2-3.246-20.53,1.084-40.94,8.673-40.94,8.673-21.467,4.316-66.412,19.66-77.267,24.691,0,0-3.242-0.441-4.611-0.719s-2.734-0.806-5.884,0.381-9.184,2.815-24.222,4.511c-15.066,1.696-47.083,8.424-81.89,23.223-8.704,3.824-9.137,6.691-8.848,10.948s0.665,10.391,1.127,12.275c-1.723,0.08-1.819,3.038,1.269,3.681l-0.187-0.277c-0.246-0.45-0.385-0.765-0.385-0.765l54.739,1.108c7.499,0.152,7.06-2.857,7.06-2.857,0.136-6.749,6.789-38.871,39.032-38.218,32.244,0.653,38.039,35.528,37.036,48.01l198.85-2.725c-2.716-14.058,6.042-51.388,42.035-50.66,30.678,0.622,43.809,32.979,37.869,52.67l-0.055,0.258z" fill="#FFF"/>
                                 </g>
                                 <path id="path91335" d="M419.07,95.703c6.4-19.625-6.69-52.646-37.68-53.274-35.99-0.729-44.75,36.602-42.03,50.66l-198.85,2.724c1-12.482-4.79-47.357-37.04-48.01-32.239-0.654-38.892,31.468-39.028,38.217,0,0,0.439,3.009-7.06,2.857l-54.738-1.108s1.674,3.785,3.673,3.825l55.739,1.129-0.177,8.748,291.03,1.643,52.743-11.434c7.008-0.358,10.396,5.212,13.421,4.023z"/>
                                 <path id="path91337" d="M277.31,32.819c0.07-3.249,10.27-25.297,10.27-25.297l30.729,1.373s1.027,11.023,0.845,20.021l-41.838,3.903z"/>
                                 <path id="path91339" d="m180.57,37.819c9.563-0.045,22.488-0.216,37.896-0.691,34.279-1.056,53.335-3.671,53.335-3.671,1.091-4.479,9.525-25.813,9.525-25.813-27.984-1.067-44.272,0.604-56.81,2.35-7.796,1.086-23.614,6.939-38.43,14.076l-5.516,13.749z"/>
                                 <path id="path91341" d="m182.03,26.087c-7.325,3.718-14.661,7.911-19.838,11.651,0,0,5.803-0.007,15.254-0.023l4.584-11.628z"/>
                                 <path id="path91343" d="m126.25,34.511s6.918,4.141,28.664,4.581c12.475-11,51.582-28.211,59.866-29.794,0,0-7.274,1.103-11.263,0.522-17.568,3.145-65.913,19.669-77.267,24.691z"/>
                                 <path id="path91345" d="m302.44,51.332c6.014-0.628,6.953,2.392,5.847,7.62-1.106,5.229-3.344,16.936-6.934,21.364s-5.375,6.143-15.634,6.435c-10.258,0.292-33.284,1.327-33.284,1.327-10.199-14.96-37.92-29.024-37.92-29.024s22.526-1.044,47.837-3.782c25.31-2.739,40.088-3.94,40.088-3.94z" stroke-width="0.5" stroke="#000"/>
                                 <path id="path91347" d="m307.6,62.277-138.84,7.602c-0.397,0.021-0.702,0.361-0.68,0.758l0.017,0.311c0.021,0.396,0.361,0.701,0.758,0.679l138.33-7.574" stroke="#000" stroke-width="0.5" fill="#FFF"/>
                                 <path id="path91349" d="M238.74,66.924" stroke="#000" stroke-width="0.5" fill="#FFF"/>
                                 <path id="path91351" d="m308.67,56.015-140.31,9.104c-0.396,0.026-0.698,0.368-0.672,0.765l0.02,0.31c0.026,0.396,0.369,0.697,0.765,0.672l140.02-9.086" stroke="#000" stroke-width="0.5" fill="#FFF"/>
                                 <path id="path91353" d="M238.3,61.475" stroke="#000" stroke-width="0.5" fill="#FFF"/>
                                 <path id="path91355" d="m306.09,68.58-137.16,6.618c-0.397,0.019-0.704,0.356-0.685,0.753l0.015,0.311c0.019,0.397,0.357,0.703,0.754,0.684l136.6-6.591" stroke="#000" stroke-width="0.5" fill="#FFF"/>
                                 <path id="path91357" d="M238.92,72.697" stroke="#000" stroke-width="0.5" fill="#FFF"/>
                                 <path id="path91359" d="m304.42,74.201-135.57,6.051c-0.397,0.018-0.705,0.354-0.687,0.751l0.014,0.311c0.018,0.397,0.354,0.705,0.751,0.687l134.83-6.019" stroke="#000" stroke-width="0.5" fill="#FFF"/>
                                 <path id="path91361" d="M238.85,78.004" stroke="#000" stroke-width="0.5" fill="#FFF"/>
                                 <path id="path91363" d="M301.04,80.682,169,85.257c-0.397,0.014-0.708,0.347-0.694,0.744l0.011,0.311c0.014,0.397,0.347,0.708,0.745,0.694l130.38-4.517" stroke="#000" stroke-width="0.5" fill="#FFF"/>
                                 <path id="path91365" d="M239.02,83.707" stroke="#000" stroke-width="0.5" fill="#FFF"/>
                                 <polygon id="polygon91367" points="169.48,66.893,223.18,63.354,227.75,66.322"/>
                                 <polygon id="polygon91369" points="169.76,71.649,231.09,68.266,235.64,71.608"/>
                                 <polygon id="polygon91371" points="169.65,76.898,238.35,73.664,242.29,76.744"/>
                                 <polygon id="polygon91373" points="170.04,82.032,244.25,78.659,248.18,82.115"/>
                                 <polygon id="polygon91375" points="169.94,87.031,250.14,84.28,254.19,88.112"/>
                                 <g id="g91377">
                                  <polygon id="polygon91379" stroke-width="0.5" points="168.07,62.113,221.78,58.575,225.86,60.908" stroke="#000"/>
                                 </g>
                                 <g id="g91381">
                                  <g id="g91383" stroke-width="0.25" stroke="#FFF">
                                   <circle id="circle91385" d="m 135.994,83.294998 c 0,18.354632 -14.87937,33.234002 -33.234,33.234002 -18.35463,0 -33.233999,-14.87937 -33.233999,-33.234002 0,-18.354632 14.879369,-33.234001 33.233999,-33.234001 18.35463,0 33.234,14.879369 33.234,33.234001 z" cx="102.76" cy="83.295" r="33.234"/>
                                   <path id="path91387" d="M102.76,83.295"/>
                                  </g>
                                  <g id="g91389" fill="#FFF">
                                   <circle id="circle91391" d="m 125.741,83.294998 c 0,12.692057 -10.28894,22.981002 -22.981,22.981002 -12.692054,0 -22.980999,-10.288945 -22.980999,-22.981002 0,-12.692056 10.288945,-22.981001 22.980999,-22.981001 12.69206,0 22.981,10.288945 22.981,22.981001 z" cx="102.76" cy="83.295" r="22.981"/>
                                   <path id="path91393" d="M102.76,83.295"/>
                                  </g>
                                  <g id="g91395" stroke-width="0.5" stroke="#000" fill="none">
                                   <circle id="circle91397" d="m 124.15,83.294998 c 0,11.813371 -9.57663,21.390002 -21.39,21.390002 -11.813368,0 -21.389997,-9.576631 -21.389997,-21.390002 0,-11.81337 9.576629,-21.389999 21.389997,-21.389999 11.81337,0 21.39,9.576629 21.39,21.389999 z" cx="102.76" cy="83.295" r="21.39"/>
                                   <path id="path91399" d="M102.76,83.295"/>
                                  </g>
                                  <g id="g91401" stroke-width="0.5" stroke="#000" fill="none">
                                   <circle id="circle91403" d="m 111.069,83.294998 c 0,4.588934 -3.72006,8.309 -8.309,8.309 -4.588932,0 -8.308998,-3.720066 -8.308998,-8.309 0,-4.588934 3.720066,-8.309 8.308998,-8.309 4.58894,0 8.309,3.720066 8.309,8.309 z" cx="102.76" cy="83.295" r="8.309"/>
                                   <path id="path91405" d="M102.76,83.295"/>
                                  </g>
                                  <g id="g91407" stroke-width="0.5" stroke="#000">
                                   <circle id="circle91409" d="m 108.22,84.294998 c 0,3.026521 -2.45348,5.48 -5.48,5.48 -3.026523,0 -5.480002,-2.453479 -5.480002,-5.48 0,-3.02652 2.453479,-5.48 5.480002,-5.48 3.02652,0 5.48,2.45348 5.48,5.48 z" cx="102.74" cy="84.295" r="5.48"/>
                                   <path id="path91411" d="M102.74,84.295"/>
                                  </g>
                                  <g id="g91413" stroke-width="0.5" stroke="#000" fill="#FFF">
                                   <circle id="circle91415" d="m 108.24,83.294998 c 0,3.026521 -2.45348,5.48 -5.48,5.48 -3.026518,0 -5.479998,-2.453479 -5.479998,-5.48 0,-3.02652 2.45348,-5.48 5.479998,-5.48 3.02652,0 5.48,2.45348 5.48,5.48 z" cx="102.76" cy="83.295" r="5.48"/>
                                   <path id="path91417" d="M102.76,83.295"/>
                                  </g>
                                  <g id="g91419" stroke-width="0.5" stroke="#000" fill="none">
                                   <circle id="circle91421" d="m 105.765,83.294998 c 0,1.659616 -1.34538,3.005 -3.005,3.005 -1.65961,0 -3.004998,-1.345384 -3.004998,-3.005 0,-1.659616 1.345388,-3.005 3.004998,-3.005 1.65962,0 3.005,1.345384 3.005,3.005 z" cx="102.76" cy="83.295" r="3.005"/>
                                   <path id="path91423" d="M102.76,83.295"/>
                                  </g>
                                  <g id="g91425">
                                   <path id="path91427" d="m93.975,100.85c2.527,1.266,5.369,2.004,8.383,2.065,3.155,0.064,6.15-0.621,8.817-1.89,0,0-4.636-7.025-8.635-7.106s-8.565,6.931-8.565,6.931z"/>
                                  </g>
                                  <g id="g91429">
                                   <path id="path91431" d="m83.348,80.369c-0.423,2.794-0.247,5.725,0.626,8.611,0.914,3.02,2.49,5.657,4.522,7.802,0,0,5.249-6.58,4.089-10.408-1.158-3.829-9.237-6.005-9.237-6.005z"/>
                                  </g>
                                  <g id="g91433">
                                   <path id="path91435" d="m99.541,63.934c-2.789,0.461-5.521,1.535-7.996,3.257-2.589,1.802-4.611,4.117-6.022,6.711,0,0,7.879,2.958,11.163,0.673,3.282-2.285,2.855-10.641,2.855-10.641z"/>
                                  </g>
                                  <g id="g91437">
                                   <path id="path91439" d="m120.18,74.255c-1.3-2.51-3.166-4.777-5.568-6.598-2.515-1.906-5.34-3.113-8.244-3.654,0,0-0.378,8.408,2.81,10.824,3.187,2.417,11.002-0.572,11.002-0.572z"/>
                                  </g>
                                  <g id="g91441">
                                   <path id="path91443" d="m116.74,97.069c1.985-2.012,3.565-4.487,4.554-7.334,1.036-2.98,1.311-6.041,0.927-8.97,0,0-8.113,2.239-9.426,6.017-1.312,3.779,3.945,10.287,3.945,10.287z"/>
                                  </g>
                                 </g>
                                 <g id="g91445">
                                  <g id="g91447" stroke-width="0.25" stroke="#FFF">
                                   <circle id="circle91449" d="m 411.03399,83.864998 c 0,18.354632 -14.87937,33.234002 -33.234,33.234002 -18.35463,0 -33.234,-14.87937 -33.234,-33.234002 0,-18.354632 14.87937,-33.234001 33.234,-33.234001 18.35463,0 33.234,14.879369 33.234,33.234001 z" cx="377.8" cy="83.865" r="33.234"/>
                                   <path id="path91451" d="M377.8,83.864"/>
                                  </g>
                                  <g id="g91453" fill="#FFF">
                                   <circle id="circle91455" d="m 400.78099,83.864998 c 0,12.692056 -10.28895,22.981002 -22.981,22.981002 -12.69206,0 -22.981,-10.288946 -22.981,-22.981002 0,-12.692056 10.28894,-22.981001 22.981,-22.981001 12.69205,0 22.981,10.288945 22.981,22.981001 z" cx="377.8" cy="83.865" r="22.981"/>
                                   <path id="path91457" d="M377.8,83.864"/>
                                  </g>
                                  <g id="g91459" stroke-width="0.5" stroke="#000" fill="none">
                                   <circle id="circle91461" d="m 399.18999,83.864998 c 0,11.81337 -9.57663,21.390002 -21.39,21.390002 -11.81337,0 -21.39,-9.576632 -21.39,-21.390002 0,-11.813371 9.57663,-21.39 21.39,-21.39 11.81337,0 21.39,9.576629 21.39,21.39 z" cx="377.8" cy="83.865" r="21.39"/>
                                   <path id="path91463" d="M377.8,83.864"/>
                                  </g>
                                  <g id="g91465" stroke-width="0.5" stroke="#000" fill="none">
                                   <circle id="circle91467" d="m 386.10899,83.864998 c 0,4.588934 -3.72007,8.309 -8.309,8.309 -4.58894,0 -8.309,-3.720066 -8.309,-8.309 0,-4.588934 3.72006,-8.309 8.309,-8.309 4.58893,0 8.309,3.720066 8.309,8.309 z" cx="377.8" cy="83.865" r="8.309"/>
                                   <path id="path91469" d="M377.8,83.864"/>
                                  </g>
                                  <g id="g91471" stroke-width="0.5" stroke="#000">
                                   <circle id="circle91473" d="m 383.26,84.863998 c 0,3.026521 -2.45348,5.48 -5.48,5.48 -3.02652,0 -5.48,-2.453479 -5.48,-5.48 0,-3.02652 2.45348,-5.48 5.48,-5.48 3.02652,0 5.48,2.45348 5.48,5.48 z" cx="377.78" cy="84.864" r="5.48"/>
                                   <path id="path91475" d="M377.78,84.864"/>
                                  </g>
                                  <g id="g91477" stroke-width="0.5" stroke="#000" fill="#FFF">
                                   <circle id="circle91479" d="m 383.27999,83.863998 c 0,3.026521 -2.45348,5.48 -5.48,5.48 -3.02652,0 -5.48,-2.453479 -5.48,-5.48 0,-3.02652 2.45348,-5.48 5.48,-5.48 3.02652,0 5.48,2.45348 5.48,5.48 z" cx="377.8" cy="83.864" r="5.48"/>
                                   <path id="path91481" d="M377.8,83.864"/>
                                  </g>
                                  <g id="g91483" stroke-width="0.5" stroke="#000" fill="none">
                                   <circle id="circle91485" d="m 380.80499,83.864998 c 0,1.659616 -1.34539,3.005 -3.005,3.005 -1.65962,0 -3.005,-1.345384 -3.005,-3.005 0,-1.659616 1.34538,-3.005 3.005,-3.005 1.65961,0 3.005,1.345384 3.005,3.005 z" cx="377.8" cy="83.865" r="3.005"/>
                                   <path id="path91487" d="M377.8,83.864"/>
                                  </g>
                                  <g id="g91489">
                                   <path id="path91491" d="m369.02,101.42c2.527,1.266,5.369,2.004,8.383,2.065,3.154,0.064,6.15-0.621,8.817-1.89,0,0-4.636-7.025-8.635-7.106-3.998-0.081-8.565,6.931-8.565,6.931z"/>
                                  </g>
                                  <g id="g91493">
                                   <path id="path91495" d="m358.39,80.938c-0.423,2.794-0.247,5.725,0.627,8.611,0.914,3.02,2.49,5.657,4.522,7.802,0,0,5.248-6.58,4.089-10.409-1.158-3.828-9.238-6.004-9.238-6.004z"/>
                                  </g>
                                  <g id="g91497">
                                   <path id="path91499" d="m374.59,64.503c-2.789,0.461-5.521,1.535-7.996,3.257-2.589,1.802-4.611,4.117-6.022,6.711,0,0,7.879,2.958,11.163,0.673,3.282-2.285,2.855-10.641,2.855-10.641z"/>
                                  </g>
                                  <g id="g91501">
                                   <path id="path91503" d="m395.22,74.824c-1.3-2.51-3.166-4.777-5.568-6.598-2.515-1.906-5.34-3.113-8.244-3.654,0,0-0.378,8.408,2.809,10.824,3.188,2.417,11.003-0.572,11.003-0.572z"/>
                                  </g>
                                  <g id="g91505">
                                   <path id="path91507" d="m391.78,97.639c1.985-2.012,3.565-4.487,4.554-7.334,1.035-2.98,1.31-6.041,0.927-8.97,0,0-8.113,2.239-9.426,6.017-1.312,3.778,3.945,10.287,3.945,10.287z"/>
                                  </g>
                                 </g>
                                 <path id="path91509" d="m417.83,95.115c2.484,0.801,6.757-0.301,10.578-3.724,3.82-3.423,21.635-18.816,24.196-21.765,2.56-2.949,3.355-5.183,3.411-7.933s0.096-4.749,0.096-4.749c0.036-1.75-2.704-2.305-2.704-2.305s0.309-15.247-0.865-19.021-1.103-7.274-4.362-6.84c-3.26,0.434-13.028,1.236-13.028,1.236-17.41-5.603-61.95-16.007-96.61-20.96-3.74-0.326-5.71-1.866-7.91-4.661-20.94-3.175-65.67-4.331-86.2-3.246-20.53,1.084-40.93,8.673-40.93,8.673-21.467,4.316-66.412,19.66-77.267,24.691,0,0-3.242-0.441-4.611-0.719s-2.734-0.806-5.884,0.381-9.184,2.815-24.222,4.511c-15.085,1.696-47.103,8.423-81.91,23.222-8.704,3.824-9.137,6.691-8.848,10.948s0.665,10.391,1.127,12.275c-1.877,0.087-1.823,3.589,2.174,3.795" stroke="#000" stroke-width="1.5" fill="none"/>
                                 <path id="path91511" d="m453.41,54.639-6.249-0.126c-1.75-0.036-2.045,2.209-2.116,5.708l-0.336,16.622" stroke="#000" stroke-width="1.5" fill="none"/>
                                 <path id="path91513" d="m455.74,62.938c1.75,0.036,1.729,1.035,1.949,2.54l-0.061,3c-0.03,1.5-1.285,1.725-2.285,1.704,0,0-3.03,1.439-3.055,2.689s0.929,3.52-1.106,5.229-4.315,3.163-9.314,3.062c0,0,0.979,1.02,0.194,2.754-0.786,1.735-2.305,2.704-4.055,2.668-1.75-0.035-3.749-0.076-3.749-0.076l15.55-14.438c6.606-5.117,5.937-9.132,5.937-9.132z"/>
                                 <path id="path91515" d="m452.99,38.127-4.999-0.102c-2.25-0.045-2.435,2.952-2.435,2.952l-0.238,11.748s0.215,1.755,2.464,1.8l5.624,0.114c-0.001,0,0.054-15.002-0.416-16.512z"/>
                                 <g id="g91517" stroke-width="0.25" stroke="#FFF" fill="none">
                                  <line id="line91519" x2="447.08" y1="40.114" x1="452.33" y2="40.008"/>
                                  <line id="line91521" x2="446.42" y1="41.742" x1="452.42" y2="41.62"/>
                                  <line id="line91523" x2="446.39" y1="43.367" x1="452.45" y2="43.245"/>
                                  <line id="line91525" x2="446.36" y1="44.993" x1="452.48" y2="44.87"/>
                                  <line id="line91527" x2="446.32" y1="46.619" x1="452.51" y2="46.494"/>
                                  <line id="line91529" x2="446.29" y1="48.245" x1="452.54" y2="48.119"/>
                                  <line id="line91531" x2="446.26" y1="49.871" x1="452.57" y2="49.743"/>
                                  <line id="line91533" x2="446.22" y1="51.497" x1="452.6" y2="51.368"/>
                                  <line id="line91535" x2="446.69" y1="53.122" x1="452.56" y2="53.003"/>
                                 </g>
                                 <path id="path91537" d="m437.4,30.31c-9.008,0.317-30.943-3.127-59.468-2.205-28.524,0.922-68.668,7.611-95.295,13.573-26.63,5.962-106.36,16.35-143.36,16.101" stroke="#000" stroke-width="0.5" fill="none"/>
                                 <path id="path91539" d="m383.43,28.217s-32.983-1.168-84.625,5.288-78.194,9.418-161.69,7.728c-66.483-1.347-75.622,5.47-124.47,21.984-5.296,1.791-5.181,8.897-5.181,8.897l-0.244,12.497" stroke="#000" stroke-width="0.5" fill="none"/>
                                 <line id="line91541" stroke-width="0.5" x1="5.124" x2="65.112" stroke="#000" y1="64.064" y2="65.279" fill="none"/>
                                 <line id="line91543" stroke-width="0.5" x1="0.82" x2="62.433" stroke="#000" y1="72.854" y2="74.102" fill="none"/>
                                 <path id="path91545" d="m140.09,91.803s5.93-45.89-36.062-46.74c-31.994-0.648-41.039,26.174-41.66,32.163s-2.677,8.698-11.183,8.9l-49.245-0.997" stroke="#000" stroke-width="0.5" fill="none"/>
                                 <path id="path91547" d="m150.13,90.006s92.522-0.126,135.1-3.265" stroke="#000" stroke-width="0.5" fill="none"/>
                                 <path id="path91549" d="m273.03,95.996,0.952-46.991c0.091-4.499,2.642-6.948,2.753-12.447" stroke="#000" stroke-width="0.5" fill="none"/>
                                 <path id="path91551" d="m273.24,36.487s7.974-23.343,12.136-31.261" stroke="#000" stroke-width="0.5" fill="none"/>
                                 <path id="path91553" d="M322.87,30.491,321.36,6.455,251.39,4.038c-21.526,1.064-30.065,2.892-38.624,5.719s-42.346,16.646-57.856,29.334c0,0-1.291,1.975-4.31,2.914s-3.661,7.927-3.661,7.927l-0.941,46.491" stroke="#000" stroke-width="0.5" fill="none"/>
                                 <g id="g91555" stroke-width="0.5" stroke="#000" fill="none">
                                  <ellipse id="ellipse91557" d="m 343.247,19.787001 c 0,4.29567 -2.53273,7.778 -5.657,7.778 -3.12428,0 -5.657,-3.48233 -5.657,-7.778 0,-4.295671 2.53272,-7.778 5.657,-7.778 3.12427,0 5.657,3.482329 5.657,7.778 z" cx="337.59" cy="19.787" rx="5.657" ry="7.778" transform="matrix(-0.0202,0.9998,-0.9998,-0.0202,364.2066,-317.3345)"/>
                                  <path id="path91559" d="M337.59,19.787"/>
                                 </g>
                                 <path id="path91561" d="m134.71,35.039,0.625,0.25,36.25-10.625-14.375,2.25,44.875-15.125s-32.125,9.5-53.625,17.25l9.5-1.25-23.25,7.25z" fill="#FFF"/>
                                 <path id="path91563" d="m168.07,62.113c-8.741-0.075-17.616,0.175-17.616,0.175" stroke="#000" stroke-width="0.5" fill="none"/>
                                </g>
                               </g>
                              </g>
                             </g>
                            </g>
                           </g>
                          </g>
                         </g>
                        </g>
                       </g>
                      </g>
                     </g>
                    </g>
                   </g>
                  </g>
                 </g>
                </g>
               </g>
              </g>
             </g>
            </g>
           </g>
          </g>
         </g>
        </g>
       </g>
      </g>
     </g>
    </g>
   </g>
  </g>
 </g>
</svg>
