<?xml version="1.0" encoding="UTF-8" standalone="no"?>
<!-- Created with Inkscape (http://www.inkscape.org/) -->
<svg id="svg2" xmlns:rdf="http://www.w3.org/1999/02/22-rdf-syntax-ns#" xmlns="http://www.w3.org/2000/svg" height="45" width="67.5" version="1.1" xmlns:cc="http://creativecommons.org/ns#" xmlns:dc="http://purl.org/dc/elements/1.1/">
 <metadata id="metadata7">
  <rdf:RDF>
   <cc:Work rdf:about="">
    <dc:format>image/svg+xml</dc:format>
    <dc:type rdf:resource="http://purl.org/dc/dcmitype/StillImage"/>
    <dc:title/>
   </cc:Work>
  </rdf:RDF>
 </metadata>
 <g id="g10237">
  <rect id="rect2990" opacity="0" height="45" width="67.5" y="0" x="3.5527e-15"/>
  <path id="path10235" d="m11.706 35.576c-2.0325-0.121-4.1738-0.324-5.5829-0.53-1.5685-0.22916-3.5015-0.63538-3.7478-0.78762-0.21416-0.13236 0.18385-0.28066 0.75837-0.28257 0.304-0.00096 0.87135-0.03385 1.2608-0.07298l0.70803-0.07114-0.72798-0.74029c-0.41491-0.42192-0.86825-1.0368-1.0542-1.4298-0.1794-0.37922-0.37581-0.68948-0.43646-0.68948-0.0607 0-0.57658-0.16873-1.1465-0.37495-0.97513-0.35284-1.0319-0.39231-0.96228-0.66953 0.0563-0.22428 0.002-0.35102-0.22669-0.53106-0.31057-0.2443-0.5472-0.87528-0.54837-1.4623-0.00079919-0.551 0.30354-0.977 0.95046-1.329 0.33544-0.183 0.60984-0.361 0.60984-0.397 0-0.03587-0.1427-0.23481-0.3171-0.44208l-0.3171-0.37685 0.0648-1.8666c0.1119-3.226 0.3387-3.466 4.303-4.546 1.2155-0.33127 2.6153-0.69212 3.1106-0.80189 0.4953-0.10976 0.96943-0.23672 1.0536-0.28212 0.0842-0.0454 1.6511-1.5658 3.4821-3.3787 2.2423-2.2201 3.5262-3.4015 3.933-3.6189 1.611-0.86097 3.8994-1.1495 11.343-1.43 12.145-0.45773 33.74 0.79697 33.74 1.9603 0 0.05934 0.21476 0.55157 0.47723 1.0938 0.58831 1.2154 1.3455 3.4953 1.7087 5.1447 0.25174 1.1431 0.27309 1.5343 0.27426 5.022 0.002 3.4411 0.0203 3.8013 0.2114 3.9924 0.25285 0.25284 0.26187 0.63458 0.0375 1.5882-0.25503 1.0842-0.27552 1.0926-2.9095 1.193l-2.2601 0.08617-0.26265-0.30535c-0.46023-0.53504-0.51494-0.44716-0.55407 0.89-0.0289 0.98748-0.0945 1.3884-0.30252 1.8497-0.1461 0.3239-0.24607 0.60846-0.22216 0.63238 0.0239 0.02391 0.87558 0.12473 1.8926 0.22404 3.0212 0.29501 7.366 0.7896 7.4212 0.84478 0.15865 0.15865-0.27924 0.22904-1.5869 0.25507-0.80501 0.01603-3.1657 0.11181-5.2459 0.21284-2.0803 0.10103-4.944 0.23788-6.3639 0.3041-3.3282 0.15522-12.539 0.44783-16.93 0.53781-1.8821 0.03857-3.7193 0.10413-4.0825 0.14568l-0.6604 0.07555 0.72044 0.1533 0.72044 0.1533-0.84051-0.05342c-2.7096-0.17221-5.5383-0.17302-10.464-0.003-4.9399 0.17052-9.3029 0.21494-11.03 0.11228zm8.8854-1.4699c2.0395-0.94628 2.4119-4.1884 0.654-5.6931-1.1058-0.94653-2.4365-0.88596-3.4856 0.15864-0.65641 0.65354-0.95065 1.4151-0.95065 2.4606 0 1.0541 0.29341 1.8058 0.96831 2.4807 0.82165 0.82165 1.8531 1.0391 2.814 0.59323zm-2.2951-0.40226c-1.717-1.1528-1.7592-4.1175-0.0754-5.3009 0.95594-0.67186 2.3413-0.53537 3.1075 0.30616 0.75996 0.83469 1.0568 2.2112 0.72283 3.3523-0.36928 1.262-1.3255 2.0326-2.522 2.0326-0.53588 0-0.75484-0.06931-1.2328-0.39024zm2.472-0.34681c0.49153-0.3634 0.93785-1.2591 1.0097-2.0264 0.0474-0.50573 0.0388-0.56107-0.0368-0.23838-0.0811 0.34575-0.0959 0.27851-0.0838-0.37922 0.013-0.70647-0.0274-0.86013-0.34715-1.3208-0.40233-0.57969-1.2192-1.0616-1.7995-1.0616-0.57565 0-1.3972 0.48204-1.7934 1.0523-0.31787 0.45749-0.35785 0.61721-0.37563 1.5009-0.0141 0.69897 0.0399 1.1298 0.184 1.4692 0.23797 0.56052 0.94724 1.2261 1.4169 1.3296 0.1804 0.03975 0.38203 0.08568 0.44807 0.10206 0.25104 0.06226 1.0508-0.18599 1.3776-0.42762zm-2.1051 0.07003c-0.22516-0.18038-0.22416-0.18242 0.0292-0.06004 0.34554 0.16692 1.306 0.162 1.6368-0.0084 0.35613-0.18342 0.8026-0.59998 0.8026-0.74883 0-0.06688-0.16153 0.03316-0.35896 0.2223-0.19743 0.18915-0.38975 0.31313-0.42736 0.27552-0.0376-0.03762 0.0197-0.37138 0.12734-0.7417 0.20531-0.70624 0.37878-0.92329 0.25891-0.32395-0.0488 0.24416-0.0172 0.36957 0.10506 0.41649 0.0962 0.03692 0.17577 0.0013 0.17678-0.07919 0.002-0.10449 0.0309-0.10053 0.10336 0.01383 0.0803 0.1266 0.11846 0.11603 0.18234-0.05044 0.0444-0.11583 0.0335-0.24193-0.0242-0.28023-0.10645-0.0706-0.50351-1.1531-0.50351-1.3727 0-0.06579 0.13508 0.0073 0.30019 0.16239 0.28056 0.26358 0.3011 0.2669 0.31422 0.05095 0.008-0.12708 0.0617 0.05539 0.11997 0.40548 0.084 0.50468 0.0657 0.7161-0.0881 1.0206-0.2531 0.50094-0.62725 0.9061-1.0305 1.1159-0.4376 0.22768-1.4303 0.2173-1.7241-0.01804zm2.7907-1.6369c-0.0383-0.09578-0.0668-0.06734-0.0725 0.07255-0.006 0.12658 0.0231 0.1975 0.0631 0.1576 0.0399-0.0399 0.0442-0.14346 0.009-0.23014zm-2.4835 1.4847c0-0.11533 0.97097-0.7714 1.0398-0.70257 0.0255 0.02558 0.0107 0.13982-0.0331 0.25387-0.0631 0.16435-0.10062 0.17414-0.1811 0.0472-0.0677-0.10686-0.10213-0.11306-0.10336-0.01864-0.0008 0.07783 0.0831 0.22642 0.18685 0.3302 0.17153 0.17153 0.13878 0.18868-0.36022 0.18868-0.3019 0-0.5489-0.04443-0.5489-0.09874zm-1.0747-0.51249c-0.27017-0.37296-0.34204-0.58246-0.29864-0.87053 0.0465-0.30875 0.0354-0.33467-0.0599-0.13922-0.0858 0.17599-0.098 0.09579-0.0456-0.30018 0.0393-0.29718 0.0922-0.56408 0.11753-0.59312 0.0468-0.05357 0.27282 0.23076 0.69284 0.87145l0.232 0.35391-0.26539-0.14203c-0.15827-0.0847-0.23049-0.20018-0.17894-0.2861 0.0491-0.08181-0.004-0.07089-0.12217 0.02526-0.11474 0.09313-0.17977 0.24453-0.1445 0.33644 0.0353 0.09191 0.0107 0.1341-0.0546 0.09375-0.22519-0.13918-0.11763 0.1464 0.24227 0.64324 0.19854 0.27407 0.33396 0.49831 0.30094 0.49831-0.033 0-0.22014-0.22102-0.41583-0.49116zm0.38296 0.0805c-0.24647-0.22586-0.41566-0.44311-0.37599-0.48278 0.0397-0.03967 0.3572-0.01099 0.70561 0.06373 0.44085 0.09454 0.5831 0.16777 0.4678 0.2408-0.22404 0.1419-0.37675 0.13577-0.28576-0.01145 0.0408-0.06604 0.017-0.12007-0.0529-0.12007-0.17286 0-0.16117 0.39826 0.017 0.57635 0.33293 0.33294-0.0645 0.11017-0.47564-0.26657zm0.65174-0.87012c-0.12607-0.12607-0.0934-0.49786 0.0516-0.58747 0.0724-0.04473 0.21634 0.0034 0.31989 0.10696 0.15511 0.15511 0.16108 0.22109 0.0338 0.37443-0.16739 0.2017-0.28012 0.23121-0.40524 0.10609zm0.28017-0.28017c0-0.06604-0.054-0.12007-0.12007-0.12007-0.066 0-0.12007 0.05403-0.12007 0.12007s0.054 0.12007 0.12007 0.12007c0.066 0 0.12007-0.05403 0.12007-0.12007zm0.47861 0.17808c-0.13188-0.15892-0.12513-0.2228 0.0412-0.38909 0.23381-0.23381 0.48875-0.06567 0.42206 0.27836-0.0561 0.28961-0.27195 0.3412-0.46321 0.11073zm0.24183-0.17808c0-0.06604-0.054-0.12007-0.12007-0.12007-0.066 0-0.12008 0.05403-0.12008 0.12007s0.054 0.12007 0.12008 0.12007c0.066 0 0.12007-0.05403 0.12007-0.12007zm-1.1945-0.65285c-0.18632-0.22451-0.0837-0.54788 0.17384-0.54788 0.26764 0 0.36511 0.34675 0.1562 0.55567-0.15572 0.15572-0.19512 0.15479-0.33004-0.0078zm0.23388-0.25479c0-0.10296-0.054-0.1538-0.12008-0.11299-0.066 0.04082-0.12007 0.12505-0.12007 0.1872 0 0.06214 0.054 0.11299 0.12007 0.11299 0.066 0 0.12008-0.08424 0.12008-0.1872zm0.97709 0.21804c-0.15313-0.28612 0.0164-0.57026 0.27997-0.46913 0.1224 0.04697 0.18566 0.1789 0.16222 0.33829-0.0504 0.34242-0.29088 0.41358-0.44219 0.13084zm0.27733-0.28124c-0.0387-0.06256-0.12147-0.0821-0.18402-0.04344-0.0625 0.03866-0.0821 0.12147-0.0435 0.18403 0.0387 0.06255 0.12148 0.0821 0.18403 0.04344 0.0625-0.03866 0.0821-0.12147 0.0435-0.18403zm-2.1425 0.05946c-0.0403-0.10502-0.0458-0.23536-0.0123-0.28964 0.072-0.11657-0.25554-0.08455-0.37694 0.03685-0.14287 0.14287-0.28365 0.09198-0.28365-0.10255 0-0.25453 0.33396-0.89494 0.64443-1.2358 0.2853-0.31322 0.76012-0.61186 0.62486-0.393-0.0545 0.08818 0.0378 0.10659 0.28569 0.05701 0.4121-0.08242 0.45396 0.01818 0.17394 0.41797-0.16496 0.2355-0.22038 0.2518-0.39024 0.11478-0.35468-0.2861-0.65549-0.18245-0.9428 0.32486-0.14952 0.264-0.27155 0.56105-0.27119 0.66011s0.10191-0.04287 0.22567-0.31539c0.36161-0.79633 0.49015-0.76271 0.49015 0.12819 0 0.80298-0.0374 0.93606-0.16765 0.59662zm0.46783-1.7302c0.0408-0.06604 0.0202-0.12007-0.0459-0.12007-0.066 0-0.15346 0.05403-0.19428 0.12007-0.0408 0.06604-0.0202 0.12007 0.0459 0.12007 0.066 0 0.15346-0.05403 0.19427-0.12007zm0.70413 1.3816c-0.0416-0.10838-0.018-0.25463 0.0524-0.325 0.18294-0.18294 0.52956-0.01574 0.48178 0.2324-0.0532 0.27639-0.43799 0.3431-0.53411 0.0926zm0.31649-0.12088c0-0.09906-0.054-0.18011-0.12007-0.18011-0.066 0-0.12007 0.08105-0.12007 0.18011s0.054 0.18011 0.12007 0.18011c0.066 0 0.12007-0.08105 0.12007-0.18011zm1.3808-0.0123c-0.13208-0.10162-0.22728-0.23304-0.21157-0.29204 0.0157-0.059-0.0463-0.07852-0.13795-0.04338-0.0916 0.03515-0.20218 0.0062-0.24579-0.06436-0.0481-0.07785 0.0383-0.12826 0.21981-0.12826 0.24557 0 0.29349-0.05243 0.26783-0.29308-0.0172-0.16119-0.10599-0.39083-0.19735-0.51031-0.0914-0.11948 0.005-0.06092 0.21401 0.13013 0.38796 0.35452 0.75898 1.0005 0.74193 1.2918-0.006 0.08908-0.0672-0.00012-0.13761-0.19826-0.14201-0.39926-0.45569-0.90023-0.44901-0.71714 0.002 0.06422 0.0815 0.25185 0.17585 0.41695 0.31864 0.5574 0.205 0.75045-0.24015 0.40796zm-2.4185-0.4478c0.0424-0.12097 0.0771-0.28037 0.0771-0.35422 0-0.09308 0.0445-0.0898 0.14494 0.01067 0.11321 0.11321 0.0963 0.19076-0.0771 0.35422-0.21146 0.19931-0.21836 0.1988-0.14494-0.01067zm0.8545-0.43552c0.048-0.07776 0.16124-0.11304 0.2515-0.0784 0.0903 0.03464 0.20121 0.003 0.24655-0.0704 0.0537-0.08688 0.027-0.09911-0.0766-0.03509-0.11843 0.0732-0.13746 0.04206-0.0745-0.12194 0.0502-0.13085 0.0219-0.26386-0.0697-0.32775-0.26107-0.18209 0.41908 0.03614 0.73488 0.23579 0.34715 0.21948 0.21708 0.32201-0.57403 0.4525-0.38996 0.06432-0.50296 0.05021-0.43813-0.0547zm0.72349-0.72537c-0.19577-0.08412-0.20263-0.10475-0.0371-0.11163 0.11167-0.0046 0.23643 0.0456 0.27725 0.11163 0.0853 0.13807 0.0812 0.13807-0.24015 0zm-1.0807-0.11447c0.23051-0.10443 0.87364-0.17252 0.77047-0.08157-0.0275 0.02426-0.26616 0.07701-0.53032 0.11724-0.33474 0.05097-0.40751 0.04016-0.24015-0.03567zm-1.7816 2.3658c-0.0333-0.08255-0.0606-0.01501-0.0606 0.15009s0.0273 0.23264 0.0606 0.15009 0.0333-0.21763 0-0.30018zm-4.2054 2.8332 1.6976-0.07766-0.15666-0.49224c-0.0862-0.27074-0.1892-0.64083-0.22899-0.82244-0.0828-0.37788-0.28471-0.40989-1.2626-0.20018-0.43818 0.09397-0.77796 0.0932-1.2255-0.0028l-0.61925-0.1328-0.60588 0.67979c-0.33324 0.37388-0.77051 0.78018-0.97172 0.90288l-0.36583 0.22309 1.0206 0.00001c0.56134 0.000006 1.7845-0.03494 2.7182-0.07766zm18.715-0.65081c4.6228-0.14128 8.4807-0.27953 8.5732-0.30722 0.11215-0.0336 0.005-0.18979-0.32168-0.46954-0.26936-0.23056-0.60932-0.61268-0.75547-0.84915l-0.26573-0.42996-3.0748 0.08267c-2.7777 0.07469-4.3138 0.17058-6.2567 0.39059-0.36322 0.04113-1.1332 0.06501-1.711 0.05306-0.63268-0.01308-1.0506 0.02589-1.0506 0.09797 0 0.07104-0.45776 0.11969-1.126 0.11969-0.84729 0-1.1625-0.04396-1.2734-0.17759-0.10707-0.12901-0.20747-0.14543-0.36703-0.06004-0.1208 0.06466-0.34747 0.11755-0.5037 0.11755-0.24801 0-0.30346 0.0876-0.43707 0.69042-0.0842 0.37973-0.18051 0.75796-0.21413 0.84051-0.0772 0.18944-0.98816 0.1997 8.7842-0.09897zm24.798-0.14118c0.71083-0.35961 1.2642-1.1136 1.4405-1.963 0.16966-0.81721 0.0865-1.4659-0.29269-2.2844-0.84809-1.8305-3.093-1.8286-4.068 0.0035-0.37583 0.70622-0.3749 2.32 0.002 3.028 0.47114 0.88558 1.2697 1.4527 2.0797 1.4769 0.16761 0.005 0.54507-0.11244 0.83878-0.26103zm-1.7439-0.18747c-0.88979-0.57025-1.3022-1.3794-1.2969-2.5442 0.0104-2.2781 2.1048-3.5564 3.5155-2.1456 0.55983 0.55982 0.75634 1.0384 0.81823 1.9925 0.0496 0.76511 0.0179 0.94585-0.26883 1.5319-0.42838 0.8756-0.97749 1.2908-1.786 1.3504-0.4661 0.03438-0.71189-0.01192-0.98194-0.18499zm1.2508-0.13986c0.74925-0.21488 1.4669-1.1265 1.2095-1.5365-0.10947-0.17432-0.12001-0.15952-0.066 0.09273 0.0877 0.40981-0.36063-0.56409-0.46572-1.0116-0.0724-0.30794-0.0596-0.33213 0.10386-0.19652 0.10249 0.08506 0.15673 0.20256 0.12054 0.26112-0.0362 0.05855-0.0126 0.10647 0.0526 0.10647 0.0651 0 0.14306-0.09456 0.17327-0.21013 0.0302-0.11557 0.062-0.02101 0.0707 0.21013 0.009 0.23114 0.0556 0.48298 0.10445 0.55964 0.0702 0.11033 0.0979-1.1533 0.0373-1.7003-0.0162-0.14581-0.2461 0.19076-0.2461 0.36022 0 0.06604 0.0524 0.03902 0.11639-0.06004 0.0995-0.15392 0.11667-0.14956 0.11824 0.03002 0.0008 0.11557-0.0814 0.21013-0.18313 0.21013-0.22235 0-0.89569-0.47935-0.89569-0.63765 0-0.06171 0.0762-0.04893 0.16942 0.02841 0.18207 0.1511 0.38244-0.01834 0.25862-0.21869-0.0365-0.05912 0.0203-0.14078 0.12635-0.18147 0.1305-0.05008 0.17266-0.02153 0.13049 0.08836-0.0343 0.08929-0.0208 0.22951 0.0299 0.31161 0.0685 0.11089 0.11229 0.09704 0.17019-0.05384 0.11919-0.31062-0.72829-1.0975-1.2969-1.2042-0.99628-0.1869-2.2201 0.92501-2.0353 1.8491 0.0416 0.2082 0.1158 0.37855 0.16482 0.37855 0.049 0 0.23311 0.2176 0.4091 0.48355l0.32 0.48355-0.29418-0.07383c-0.36023-0.09041-0.63305 0.29745-0.44853 0.63767 0.26249 0.48398 1.0753 1.0753 1.5163 1.1031 0.0665 0.0042 0.30476-0.04513 0.52953-0.10959zm-1.0166-0.17176c-0.3566-0.15533-1.0147-0.8259-1.0147-1.034 0-0.05708 0.0534-0.13679 0.11869-0.17713 0.0653-0.04034 0.09 0.0014 0.0549 0.09295-0.0478 0.12453 0.0241 0.1534 0.28626 0.11493 0.31342-0.046 0.35574-0.01278 0.40418 0.31729 0.0298 0.20277-0.004 0.38974-0.0748 0.41548s0.14131 0.13137 0.47151 0.23471 0.4923 0.18955 0.36022 0.19156c-0.13208 0.002-0.40492-0.06811-0.60632-0.15583zm-0.49875-0.59982c-0.11865-0.15863-0.23791-0.26703-0.26502-0.24088-0.0494 0.04765 0.34529 0.5293 0.43372 0.5293 0.0259 0-0.05-0.12979-0.1687-0.28842zm1.115 0.54438c-0.4911-0.10633-0.49393-0.27259-0.01-0.58616 0.53234-0.34493 0.59159-0.33984 0.34925 0.03002-0.18555 0.28317-0.184 0.30029 0.0272 0.30202 0.1905 0.0016 0.19705 0.02046 0.0439 0.12653-0.1512 0.10468-0.14439 0.11884 0.0424 0.08822 0.16554-0.02713 0.23224-0.15953 0.26035-0.51677 0.0208-0.26416 0.0857-0.60667 0.14425-0.76112 0.1017-0.26824 0.11252-0.26112 0.24136 0.15869 0.11754 0.38295 0.10509 0.46933-0.0967 0.67107-0.12735 0.12735-0.18057 0.23155-0.11828 0.23155 0.18797 0 0.47334-0.49414 0.40668-0.7042-0.0519-0.16348-0.0417-0.16728 0.0608-0.0227 0.0779 0.10991 0.0821 0.25007 0.0116 0.38189-0.12564 0.23475-0.75576 0.71275-0.91096 0.69103-0.0559-0.0078-0.25917-0.04834-0.45185-0.09005zm-0.67031-0.73625c0-0.06604 0.0842-0.12007 0.18719-0.12007 0.10296 0 0.15381 0.05403 0.11299 0.12007-0.0408 0.06604-0.12505 0.12007-0.18719 0.12007-0.0621 0-0.11299-0.05403-0.11299-0.12007zm0.12508-0.65438c-0.12593-0.15173-0.12593-0.22054 0-0.37227 0.13954-0.16813 0.17248-0.16813 0.34061 0 0.16814 0.16813 0.16814 0.20414 0 0.37227-0.16813 0.16813-0.20107 0.16813-0.34061 0zm0.23514-0.18614c0-0.06604-0.054-0.12007-0.12007-0.12007-0.066 0-0.12008 0.05403-0.12008 0.12007s0.054 0.12007 0.12008 0.12007c0.066 0 0.12007-0.05403 0.12007-0.12007zm0.51031 0.27397c-0.20376-0.07309-0.19055-0.4729 0.0182-0.55304 0.20946-0.08038 0.31192 0.01553 0.31192 0.29199 0 0.24603-0.11613 0.33784-0.3302 0.26105zm0.21013-0.27397c0-0.06604-0.054-0.12007-0.12008-0.12007-0.066 0-0.12007 0.05403-0.12007 0.12007s0.054 0.12007 0.12007 0.12007c0.066 0 0.12008-0.05403 0.12008-0.12007zm-1.1604-0.66847c-0.10008-0.26079 0.15398-0.50605 0.33583-0.3242 0.1537 0.1537 0.0585 0.51238-0.13602 0.51238-0.0702 0-0.1601-0.08468-0.19981-0.18818zm0.25473-0.04367c0.038-0.06148 0.0142-0.14571-0.0529-0.1872-0.0671-0.04148-0.12203 0.0088-0.12203 0.11178 0 0.21091 0.072 0.24197 0.17499 0.07542zm0.82592 0.04367c-0.10007-0.26079 0.15398-0.50605 0.33584-0.3242 0.15369 0.1537 0.0585 0.51238-0.13602 0.51238-0.0702 0-0.16011-0.08468-0.19982-0.18818zm0.16177-0.19455c-0.0383-0.09578-0.0668-0.06734-0.0725 0.07255-0.006 0.12658 0.0231 0.1975 0.0631 0.1576 0.0399-0.0399 0.0442-0.14346 0.009-0.23014zm-1.8281-0.11342c-0.0584-0.18391-0.10767-0.21326-0.17507-0.10421-0.18994 0.30733-0.25542-0.34261-0.0705-0.70013 0.20201-0.39066 0.85146-0.98324 1.0703-0.97663 0.0775 0.0023 0.006 0.08712-0.1593 0.1884-0.28026 0.17193-0.14311 0.1566 0.3302-0.03692 0.22888-0.09358 0.17977 0.16202-0.12007 0.62493-0.30121 0.46501-0.46017 0.54388-0.36535 0.18126 0.036-0.13785 0.12013-0.20424 0.19889-0.15706 0.0773 0.04635 0.0692-0.0013-0.0189-0.11003-0.12319-0.15208-0.37001-0.19569-0.58674-0.10367-0.0119 0.005 0.0228 0.16405 0.0771 0.35332 0.0543 0.18928 0.0543 0.416 0 0.50384-0.0543 0.08783-0.0465 0.25717 0.0172 0.3763 0.0746 0.1394 0.0745 0.2166-0.00024 0.2166-0.064 0-0.15277-0.1152-0.19747-0.25601zm1.0924-0.09337c-0.10123-0.16379 0.0631-0.50779 0.21822-0.45678 0.21498 0.07071 0.24182 0.56602 0.0307 0.56602-0.0998 0-0.21177-0.04916-0.24889-0.10924zm0.29348-0.13091c0-0.06604-0.054-0.12007-0.12007-0.12007-0.066 0-0.12008 0.05403-0.12008 0.12007s0.054 0.12007 0.12008 0.12007c0.066 0 0.12007-0.05403 0.12007-0.12007zm-0.13067-0.8874c0.13371-0.16141 0.19038-0.17173 0.26832-0.04885 0.14803 0.23335 0.12264-0.0025-0.0312-0.28994-0.14174-0.26484-0.11155-0.26702 0.55395-0.03991 0.16126 0.05503 0.14154 0.02146-0.06-0.1022-0.1651-0.10128-0.23566-0.18606-0.15679-0.1884 0.0788-0.0023 0.26984 0.11732 0.42439 0.26591 0.15454 0.14859 0.22968 0.23152 0.16696 0.18429-0.0627-0.04723-0.17263-0.01011-0.24427 0.0825-0.0716 0.09261-0.34639 0.20727-0.61055 0.2548-0.44317 0.07974-0.46719 0.07061-0.31078-0.1182zm-0.0772-0.75676c0.11682-0.03044 0.27892-0.02844 0.36022 0.0045 0.0813 0.03289-0.0143 0.0578-0.21242 0.05535-0.19812-0.0025-0.26463-0.02936-0.1478-0.05981zm-1.4835 2.7248c-0.004-0.11876-0.0418-0.09831-0.1098 0.06004-0.14184 0.33009-0.14184 0.51967 0 0.30018 0.064-0.09906 0.11343-0.26116 0.1098-0.36022zm-0.2652-0.75046c-0.0286-0.14859-0.052-0.02702-0.052 0.27016s0.0235 0.41875 0.052 0.27016c0.0287-0.14859 0.0287-0.39174 0-0.54033zm-4.3914 2.5635 1.8771-0.01196-0.17027-0.49421c-0.0937-0.27182-0.20274-0.7311-0.24242-1.0206l-0.0721-0.52641-0.55403-0.0011c-0.48017-0.000961-0.59689 0.05108-0.87561 0.39024-0.3019 0.36737-0.36857 0.39132-1.0892 0.39132-0.57098 0-0.82146-0.05383-0.97777-0.21013-0.14745-0.14746-0.40064-0.21013-0.84893-0.21013-0.57545 0-0.64603 0.02879-0.71166 0.29029-0.0401 0.15966-0.33635 0.57842-0.65839 0.93056l-0.58551 0.64027 1.5159-0.07809c0.83374-0.04295 2.3606-0.08347 3.393-0.09005zm-35.243-1.693c0.20587-0.42926 0.41214-0.90205 0.45836-1.0506l0.084-0.27016-2.2595-0.0272-2.2595-0.0272 2.2303-0.0354 2.2303-0.03541 0.26294-0.80792c0.40141-1.2334 0.46243-1.168-1.0913-1.1692-2.333-0.0018-7.0586-0.16762-8.4352-0.29596-1.7971-0.16754-2.241-0.24578-2.4221-0.42691-0.0851-0.08509-0.36702-0.19058-0.6265-0.23442-0.50807-0.08584-0.93784 0.07455-1.6711 0.62366-0.52389 0.3923-0.50585 0.89068 0.0369 1.0192l0.36021 0.08532-0.39023-0.03393c-0.21463-0.01867-0.39024 0.01074-0.39024 0.06534s0.12158 0.10466 0.27017 0.11125l0.27016 0.01198-0.26487 0.07809c-0.25503 0.07519-0.25789 0.09241-0.0769 0.46439 0.10334 0.21246 0.29334 0.41976 0.42221 0.46067 0.19122 0.06069 0.21945 0.14201 0.15351 0.44222-0.0683 0.31103-0.0499 0.35601 0.11906 0.29116 0.12814-0.04917 0.17067-0.02949 0.11854 0.05487-0.056 0.09072 0.007 0.10133 0.20389 0.03418 0.15685-0.05356 0.47431-0.09011 0.70545-0.08121 0.37415 0.0144 0.3437-0.01063-0.27766-0.22817-0.38387-0.13439-0.67597-0.26631-0.64912-0.29315 0.0268-0.02685 0.28688 0.03541 0.57785 0.13835 1.0591 0.37469 5.2929 0.8629 7.9675 0.91874l1.0867 0.02269-1.0807 0.06737-1.0807 0.06736 1.3456 0.20522c1.2576 0.1918 1.3871 0.19217 1.9812 0.0057l0.63564-0.1995-0.48029-0.07874-0.48029-0.07874 0.57034-0.01703c0.3137-0.0094 0.57035 0.03252 0.57035 0.0931 0 0.16045-1.0449 0.53387-1.4847 0.53058-1.101-0.0082-7.075-0.63692-8.3502-0.87877-0.35432-0.06719-0.83946-0.11836-1.0781-0.11371l-0.43389 0.0085 0.48029 0.17977c1.7911 0.67039 6.6026 1.2319 10.266 1.198l1.5009-0.01387 0.37433-0.78047zm-5.5045-1.532c0.28067-0.02528 0.73995-0.02528 1.0206 0 0.28067 0.02528 0.051 0.04596-0.51031 0.04596-0.56134 0-0.79098-0.02069-0.51031-0.04596zm-1.5009-0.11816c0.18161-0.02751 0.47879-0.02751 0.6604 0s0.033 0.05002-0.3302 0.05002c-0.36322 0-0.51181-0.02251-0.3302-0.05002zm4.928-0.0031c0.44851-0.02317 1.1509-0.02299 1.561 0.00036 0.41 0.02337 0.0431 0.04233-0.81549 0.04212-0.85852-0.00024-1.194-0.01934-0.74546-0.0425zm-6.2475-0.117c0.18252-0.0276 0.45269-0.02686 0.60037 0.0016 0.14768 0.0285-0.002 0.05108-0.33185 0.05018-0.3302-0.00096-0.45103-0.02422-0.26852-0.05182zm3.4841-0.0022c0.31568-0.02482 0.80197-0.02452 1.0807 0.00072 0.27868 0.02518 0.0204 0.04548-0.57397 0.04511-0.59436-0.00036-0.82237-0.02097-0.50668-0.04579zm-4.6264-0.1164c0.1486-0.02862 0.39174-0.02862 0.54033 0s0.027 0.05203-0.27016 0.05203c-0.29718 0-0.41875-0.02341-0.27017-0.05203zm2.8818-0.0022c0.21464-0.02663 0.56585-0.02663 0.78048 0s0.039 0.04843-0.39024 0.04843c-0.42926 0-0.60486-0.0218-0.39024-0.04843zm-4.5928-0.15328c-0.40076-0.07176-0.42064-0.08707-0.12007-0.09251 0.19812-0.0036 0.63038 0.03556 0.96058 0.08699 0.56994 0.08877 0.57603 0.09346 0.12008 0.09251-0.26416-0.0006-0.69643-0.0397-0.96059-0.08699zm3.1541 0.03305c0.21581-0.02672 0.54001-0.02618 0.72044 0.0012 0.18042 0.0274 0.004 0.04926-0.39239 0.04859-0.39624-0.00072-0.54387-0.02309-0.32805-0.04981zm-1.2029-0.11779c0.14859-0.02862 0.39174-0.02862 0.54033 0s0.027 0.05203-0.27017 0.05203c-0.29718 0-0.41875-0.02341-0.27016-0.05203zm-3.6922-0.15541c-0.31886-0.06712-0.34783-0.0906-0.12008-0.09735 0.1651-0.0049 0.51632 0.03582 0.78048 0.09046 0.40036 0.08281 0.42035 0.09901 0.12007 0.09735-0.19812-0.0011-0.54933-0.0418-0.78047-0.09046zm2.6116 0.03533c0.1486-0.02862 0.39174-0.02862 0.54033 0s0.027 0.05204-0.27016 0.05204c-0.29718 0-0.41875-0.02341-0.27017-0.05204zm-1.9512-0.21345c-0.46228-0.08231-0.70543-0.1529-0.54033-0.15686 0.1651-0.0039 0.73244 0.06332 1.2608 0.14952 0.52833 0.0862 0.77147 0.15679 0.54033 0.15686-0.23114 0.000075-0.79848-0.06721-1.2608-0.14952zm30.138 2.699c3.8303-0.13135 9.3687-0.34648 12.307-0.47807 2.9388-0.13159 5.5999-0.23982 5.9136-0.24051 0.3137-0.00072 0.57035-0.0553 0.57035-0.12134 0-0.06961-0.46673-0.13045-1.1107-0.14476l-1.1107-0.02469 1.0767-0.0404c0.98983-0.03714 1.2564-0.12415 1.2629-0.41218 0.0008-0.04494-0.11973-0.10512-0.26832-0.13374-0.2276-0.04384-0.2172-0.05461 0.066-0.06839 0.29952-0.01457 0.38574-0.12425 0.79153-1.007l0.45538-0.9906-0.43131-0.07301-0.4313-0.07301 0.48029-0.01749c0.4498-0.01638 0.49421-0.05133 0.69942-0.55037 0.37122-0.90273 0.91842-1.6155 1.5049-1.9603 0.50342-0.29594 0.69122-0.33169 1.9414-0.36951 1.7333-0.05244 2.3079 0.08902 2.9038 0.71475 0.29711 0.31202 0.55703 0.4718 0.78047 0.47979 0.33299 0.0119 0.33321 0.01247 0.0379 0.09474l-0.2971 0.08277 0.0338 1.4962c0.0186 0.82292 0.0613 1.5908 0.0951 1.7064 0.11644 0.39897 0.26828 0.208 0.34913-0.43911 0.0877-0.70231 0.002-1.4166-0.26059-2.1596-0.0913-0.25882-0.15195-0.47567-0.13473-0.48188 0.0172-0.0062 0.54461 0.01889 1.172 0.05579l1.1407 0.06707-1.0506 0.02298c-0.57784 0.01264-1.0506 0.04564-1.0506 0.07332 0 0.02769 0.087 0.38978 0.19325 0.80464 0.13844 0.54038 0.17043 0.98582 0.1128 1.5706l-0.0804 0.81634 0.93784-0.0157c0.51581-0.0086 1.3385-0.04916 1.8282-0.09005 0.88557-0.07396 0.89124-0.07665 1.0415-0.49462 0.0831-0.23114 0.1552-0.35623 0.16022-0.27798 0.005 0.07825-0.0435 0.28087-0.10797 0.45027-0.10556 0.27767-0.0887 0.308 0.17154 0.308 0.15874 0 0.36703-0.0784 0.46285-0.17422 0.19682-0.19682 0.37291-0.96905 0.26193-1.1486-0.0401-0.06492-0.0157-0.11803 0.0542-0.11803 0.07 0 0.12715-0.19086 0.12715-0.42412 0-0.33003-0.0599-0.4464-0.27016-0.52455-0.39739-0.14772-0.56858-0.03316-0.58455 0.39118l-0.0142 0.37739-0.0811-0.36022c-0.0669-0.29739-0.0331-0.38706 0.19432-0.51414 0.1712-0.09568 0.27541-0.26606 0.27541-0.45027 0-0.29196-0.0164-0.29671-1.1107-0.32079l-1.1107-0.02444 1.0206-0.03783c1.7712-0.06565 1.4574-0.21098-0.60036-0.27803l-1.9812-0.06457 1.9251-0.02549 1.9251-0.02549 0.0235-0.54033c0.0203-0.46624-0.009-0.54033-0.21403-0.54033-0.22675 0-0.23755-0.08703-0.23755-1.9146v-1.9146l-0.57035-0.04497c-0.47343-0.03733-0.43262-0.04865 0.24015-0.06662 0.44585-0.01191 0.81049-0.07566 0.81049-0.14172 0-0.07402-0.74833-0.13036-1.9512-0.1469l-1.9512-0.02683 1.9549-0.0362 1.9549-0.0362-0.0755-0.62739c-0.25896-2.1515-1.1218-5.1677-1.9553-6.8352l-0.43815-0.87653-0.6604-0.07859c-2.3588-0.2807-9.8222-0.57103-17.735-0.68989-6.2295-0.09358-14.803 0.01779-15.645 0.20322-0.37166 0.08181-0.59793 0.33505-1.9567 2.19-2.2337 3.0493-2.1726 2.9274-2.2551 4.499l-0.0693 1.3208-0.0181-1.2007c-0.0142-0.94587 0.0293-1.3027 0.20509-1.681 0.12277-0.26416 0.98263-1.5204 1.9108-2.7917 0.92816-1.2713 1.646-2.3114 1.5952-2.3114s-0.0923-0.08682-0.0923-0.19292c0-0.16181 0.0984-0.18072 0.61037-0.11726 0.35773 0.04435 0.54553 0.03261 0.4537-0.02836-0.27793-0.18454 2.6981-0.26085 10.183-0.26108 7.6186-0.00024 13.477 0.10925 12.968 0.24238-0.1651 0.0432 0.56434 0.06147 1.621 0.0406 1.1606-0.02293 1.8023 0.0025 1.621 0.06427-0.18395 0.06264 0.30425 0.08553 1.2608 0.05912 0.97169-0.02684 1.4476-0.004 1.2608 0.0605-0.19042 0.06573 0.18276 0.08766 1.0206 0.05998 0.94016-0.03106 1.2343-0.01004 1.0206 0.07292-0.23735 0.09215-0.1773 0.10434 0.28692 0.0582 0.32291-0.03209 0.72365-0.05835 0.89054-0.05835 0.59469 0 0.18127-0.10539-1.1187-0.28519-2.6695-0.3692-7.0329-0.70194-13.927-1.062-3.8636-0.20179-17.221-0.20018-20.472 0.0025-4.1565 0.25905-6.6518 0.62793-7.3884 1.0923-0.21949 0.13835-0.21495 0.14417 0.064 0.08195 1.0196-0.22747 3.3602-0.33606 6.0171-0.27916 2.8496 0.06103 3.4686 0.14307 3.4686 0.4597 0 0.0669-0.39534 0.64586-0.87853 1.2866-0.48318 0.6407-1.4956 2.0565-2.2497 3.1461-0.75418 1.0897-1.5574 2.1877-1.7849 2.4402-0.41498 0.4604-1.2942 0.99833-1.4223 0.87021-0.0376-0.03762 0.008-0.07221 0.10168-0.07685 0.10046-0.005 0.0718-0.05069-0.07-0.11163-0.13208-0.05675-0.65232-0.10699-1.1561-0.11163-0.50377-0.0046-1.9897-0.08623-3.302-0.1813s-3.2256-0.20915-4.2517-0.2535l-1.8656-0.08064-1.7116 0.43755c-0.94139 0.24065-1.7717 0.40041-1.8452 0.35502-0.0862-0.0533-0.0994-0.02726-0.0371 0.0735 0.0725 0.11742 0.0186 0.14116-0.21796 0.09594-0.19476-0.03723-0.28578-0.01382-0.23921 0.06154 0.0461 0.07456-0.0251 0.09541-0.18391 0.05389-0.16432-0.04297-0.23054-0.02156-0.18104 0.05853 0.0501 0.08103-0.0346 0.10475-0.23635 0.06619-0.17292-0.03306-0.28939-0.01964-0.25882 0.02982 0.0804 0.13002-0.4864 0.24984-0.7334 0.15506-0.1228-0.04712-0.17959-0.03219-0.13737 0.03613 0.0411 0.06647-0.10246 0.11646-0.3344 0.11646-0.56469 0-1.9442 0.7396-2.225 1.1929l-0.22576 0.36443 0.31599 0.02615c0.4274 0.03537 0.51459 0.14555 0.11518 0.14555-0.34887 0-0.45285 0.23482-0.11007 0.24858 0.17841 0.0072 0.17388 0.02302-0.03 0.10505-0.13208 0.05314-0.28066 0.07316-0.3302 0.04451-0.0496-0.02866-0.0901 0.0014-0.0901 0.06697 0 0.06549 0.0946 0.14638 0.21012 0.17977 0.55312 0.15979 4.9887 0.48208 8.509 0.61827 1.6934 0.06551 1.9441 0.05129 2.0074-0.11386 0.0628-0.16378-0.1056-0.19211-1.2746-0.21438l-1.3471-0.02566 1.3381-0.03818 1.3381-0.03818 0.46302-0.43767c0.4719-0.44605 2.0927-1.2789 2.7444-1.4101 0.19812-0.03991-0.018 0.08182-0.48029 0.27052-2.2396 0.91416-2.3019 1.0316-0.58953 1.1105l1.43 0.0659-1.4611 0.02415c-0.80359 0.01328-1.5465 0.05695-1.651 0.09703-0.3665 0.14064-0.18443 0.28752 0.38041 0.30691l0.57035 0.01957-0.65108 0.07048c-0.99342 0.10754-0.94087 0.37066 0.074 0.37066 0.57016 0 0.91061 0.06081 1.1058 0.1975 0.25613 0.1794 0.27613 0.26185 0.21828 0.89987-0.0779 0.85909-0.38114 1.4138-0.93118 1.7032-0.37134 0.19542-0.61842 0.21094-2.2935 0.14403l-1.8773-0.07499-0.12621 0.36205c-0.16596 0.47609-0.4646 0.54064-2.0434 0.44169-2.8626-0.17941-3.7857-0.31079-4.0717-0.57954-0.14867-0.13967-0.27032-0.32692-0.27032-0.4161 0-0.18388-0.33273-0.32871-0.9906-0.43119-0.39378-0.06134-0.45027-0.03997-0.45027 0.17035 0 0.58997 0.6241 1.0281 1.8584 1.3048 1.3025 0.29189 9.6199 0.78192 10.953 0.64532l0.7701-0.0789 0.28807-0.56847c0.15844-0.31266 0.45884-0.73924 0.66755-0.94795 0.39112-0.39112 1.1843-0.85251 1.4576-0.84786 0.0852 0.0014-0.0883 0.11257-0.38545 0.24694-0.29718 0.13437-0.72076 0.41685-0.94129 0.62775-0.39757 0.38021-1.0687 1.5258-0.89185 1.5223 0.17527-0.0035 0.34976-0.18075 0.73422-0.7458 0.44516-0.65427 1.1187-1.0803 2.0595-1.3028 0.9054-0.21408 3.0357-0.21335 3.7757 0.0013 0.86347 0.2505 1.6212 1.0364 2.061 2.1377l0.3471 0.86905 0.51031 0.0014c0.32399 0.000961 0.51376-0.05332 0.51978-0.14861 0.007-0.12007 0.0216-0.12007 0.0701 0 0.0464 0.1151 1.003 0.1567 4.103 0.17844l4.0425 0.02834-3.9924 0.03331-3.9924 0.03331-0.0119 0.32858-0.012 0.32858-0.0829-0.30018c-0.0693-0.2512-0.16604-0.30624-0.59247-0.3373l-0.5096-0.03712 0.074 0.75756c0.0407 0.41666 0.0241 1.0657-0.0369 1.4424l-0.11098 0.68481 0.55129 0.04601c0.4704 0.03926 0.44955 0.0458-0.14211 0.04462-0.38138-0.000721-0.7569 0.0621-0.83451 0.13971-0.19018 0.19018 0.16099 0.18606 8.4921-0.09964zm-6.0287-0.20863c0.44851-0.02317 1.1509-0.02299 1.561 0.000361 0.41 0.02337 0.0431 0.04233-0.81549 0.04212-0.85852-0.00024-1.194-0.01933-0.74546-0.0425zm3.362-0.12007c0.44851-0.02317 1.1509-0.02299 1.561 0.000361 0.41 0.02337 0.0431 0.04233-0.81549 0.04212-0.85852-0.00024-1.194-0.01933-0.74546-0.0425zm3.237-0.11996c0.44578-0.0231 1.1752-0.0231 1.621 0 0.44577 0.0231 0.0811 0.042-0.81049 0.042-0.89154 0-1.2563-0.0189-0.8105-0.042zm3.362-0.12007c0.44577-0.0231 1.1752-0.0231 1.621 0 0.44577 0.0231 0.081 0.042-0.81049 0.042-0.89154 0-1.2563-0.0189-0.81049-0.042zm-11.354-0.1186c0.46403-0.04207 0.50692-0.07548 0.55113-0.4293l0.048-0.38368 0.0192 0.38475 0.0192 0.38475 0.81049 0.04201c0.44578 0.0231 0.18912 0.04315-0.57035 0.04455-0.75946 0.0014-1.1544-0.01799-0.87764-0.04307zm14.596-0.0014c0.44578-0.0231 1.1752-0.0231 1.621 0 0.44577 0.0231 0.0811 0.042-0.81049 0.042-0.89154 0-1.2563-0.0189-0.8105-0.042zm-11.522-0.12019c0.44851-0.02317 1.1509-0.02299 1.561 0.00036 0.41 0.02337 0.0431 0.04233-0.81549 0.04212-0.85852-0.00024-1.194-0.01933-0.74546-0.0425zm14.884 0.000114c0.44577-0.0231 1.1752-0.0231 1.621 0 0.44578 0.0231 0.0811 0.042-0.81049 0.042-0.89154 0-1.2563-0.0189-0.81049-0.042zm-11.522-0.12019c0.44851-0.02317 1.1509-0.02299 1.561 0.00036 0.41 0.02337 0.0431 0.04233-0.81549 0.04212-0.85852-0.000241-1.194-0.01933-0.74546-0.0425zm14.759 0.000241c0.44288-0.02304 1.1993-0.02319 1.681-0.000361 0.48168 0.02285 0.11932 0.0417-0.80524 0.04188-0.92456 0.00024-1.3187-0.01851-0.87578-0.04154zm-11.852-0.19956c0.49583-0.21886 0.75449-0.53976 0.88538-1.0984 0.08-0.34166 0.11429-0.39034 0.12244-0.17409 0.0138 0.36429-0.28988 0.9762-0.56596 1.1406-0.14696 0.08752 0.14054 0.1382 1.0591 0.18668l1.2608 0.06655-1.561 0.0188c-1.3872 0.01671-1.5209 0.001-1.2007-0.1402zm3.6972-0.04082c0.44852-0.02317 1.151-0.02299 1.561 0.00036 0.41 0.02338 0.0431 0.04233-0.81549 0.04212-0.85852-0.00024-1.194-0.01933-0.74546-0.0425zm3.362-0.12007c0.44852-0.02317 1.151-0.02299 1.561 0.00036 0.41 0.02338 0.0431 0.04233-0.81549 0.04212-0.85852-0.00024-1.194-0.01933-0.74546-0.0425zm3.362-0.12007c0.44853-0.02317 1.151-0.02299 1.561 0.000361 0.41 0.02337 0.0431 0.04233-0.81548 0.04212-0.85853-0.00024-1.194-0.01933-0.74547-0.0425zm3.242-0.12007c0.44852-0.02317 1.151-0.02299 1.561 0.000361 0.41 0.02337 0.0431 0.04233-0.81549 0.04212-0.85852-0.00024-1.194-0.01933-0.74546-0.0425zm-22.35-0.39114c0-0.1651 0.0272-0.23264 0.0606-0.15009 0.0333 0.08255 0.0333 0.21763 0 0.30018s-0.0606 0.01501-0.0606-0.15009zm9.7209-0.98402c-0.0105-0.15388-0.1531-0.21452-0.58427-0.24852l-0.57035-0.04497 0.56462-0.02164 0.56462-0.02165 0.0426-0.75046 0.0427-0.75046 0.0231 0.74687 0.0231 0.74687 1.5309 0.03753 1.5309 0.03753-1.5221 0.0261c-1.3356 0.02289-1.5288 0.05184-1.577 0.23622-0.0497 0.19022-0.0562 0.19085-0.0688 0.0066zm28.695-0.27674c-0.004-0.19812 0.032-0.29893 0.0806-0.22402 0.0485 0.07491 0.19628 0.1632 0.32836 0.1962 0.22492 0.05619 0.22365 0.06089-0.02 0.07393-0.14308 0.0077-0.2874 0.08147-0.32072 0.16402-0.0333 0.08255-0.064-0.01201-0.0682-0.21013zm-24.176-0.14919c0.47879-0.02279 1.2623-0.02279 1.741 0 0.4788 0.02279 0.0871 0.04144-0.87052 0.04144-0.95759 0-1.3493-0.01865-0.87053-0.04144zm3.9074-0.12007c0.44852-0.02317 1.151-0.02299 1.561 0.00036 0.41 0.02337 0.0431 0.04233-0.81549 0.04212-0.85852-0.000241-1.194-0.01933-0.74546-0.0425zm-18.704-0.6235c-0.1111-0.33448-0.23818-0.60842-0.2824-0.60876-0.0443-0.00036-0.0882-0.22998-0.0977-0.51031l-0.0173-0.50969 0.11929 0.45027 0.11929 0.45027 1.0387 0.02444 1.0387 0.02444-0.9906 0.04045c-0.54483 0.02225-0.9906 0.05849-0.9906 0.08054s0.0816 0.27144 0.18139 0.5542c0.0998 0.28277 0.1593 0.53621 0.1323 0.5632-0.027 0.027-0.13998-0.22458-0.25107-0.55906zm21.941 0.50385c0.37973-0.02383 1.0011-0.02383 1.3808 0 0.37974 0.02383 0.0691 0.04332-0.69042 0.04332-0.75946 0-1.0701-0.0195-0.69041-0.04332zm2.7617-0.1196c0.3137-0.02473 0.82701-0.02473 1.1407 0 0.3137 0.02473 0.057 0.04497-0.57034 0.04497-0.62738 0-0.88403-0.02024-0.57035-0.04497zm11.892-0.000601c0.38214-0.0239 0.9765-0.02368 1.3208 0.000481 0.3443 0.02417 0.0316 0.04373-0.69481 0.04346-0.72644-0.00024-1.0081-0.02004-0.62599-0.04395zm-1.2351-0.15129c0-0.06604 0.17561-0.11924 0.39024-0.11823 0.29612 0.0014 0.3468 0.02991 0.21013 0.11823-0.236 0.15252-0.60037 0.15252-0.60037 0zm1.1107-0.20607c0.18161-0.02751 0.47879-0.02751 0.6604 0s0.0331 0.05002-0.3302 0.05002c-0.36322 0-0.51181-0.02251-0.3302-0.05002zm1.3208-0.12007c0.18161-0.02751 0.47879-0.02751 0.6604 0s0.033 0.05002-0.3302 0.05002c-0.36322 0-0.51181-0.02251-0.3302-0.05002zm-39.237-1.2825c-0.38634-0.38944-0.84934-0.72105-1.1603-0.83103-0.28458-0.10065-0.43637-0.18608-0.33731-0.18985 0.3745-0.01422 1.1813 0.45866 1.5037 0.88141 0.18432 0.24166 0.47523 0.51554 0.64647 0.60863 0.17123 0.09309 0.23909 0.17141 0.15081 0.17406-0.0883 0.0026-0.44981-0.2868-0.80339-0.64322zm4.476 0.55869c0.54484-0.02224 1.4364-0.02224 1.9812 0 0.54484 0.02225 0.0991 0.04045-0.9906 0.04045s-1.5354-0.0182-0.9906-0.04045zm4.0825-0.12007c0.54484-0.02225 1.4364-0.02225 1.9812 0 0.54484 0.02225 0.0991 0.04045-0.9906 0.04045s-1.5354-0.0182-0.9906-0.04045zm3.2465-0.93129c0.0541-1.5051 0.1079-1.6696 0.12756-0.39024l0.018 1.1707 1.8311 0.02098c1.9728 0.0226 1.7408 0.07404-0.57035 0.12645l-1.4409 0.03268 0.0346-0.96058zm4.9242 0.69105c0.54797-0.0223 1.4125-0.02217 1.9212 0.000241 0.50868 0.02245 0.0604 0.0407-0.9963 0.04054-1.0566-0.00012-1.4728-0.01852-0.92486-0.04082zm4.0825-0.12007c0.54797-0.0223 1.4125-0.02217 1.9212 0.000241 0.50868 0.02245 0.0604 0.0407-0.9963 0.04054-1.0566-0.00012-1.4728-0.01852-0.92486-0.04082zm3.9567-0.11998c0.54484-0.02225 1.4364-0.02225 1.9812 0 0.54483 0.02225 0.0991 0.04045-0.9906 0.04045s-1.5354-0.0182-0.99061-0.04045zm3.7783-0.13956c0.59723-0.06396 0.75328-0.13878 1.2007-0.57574 0.48354-0.47219 1.009-0.7671 1.3326-0.74786 0.0782 0.0046-0.0681 0.08556-0.32522 0.17978-0.25712 0.09423-0.72759 0.41462-1.0455 0.71198-0.54358 0.50845-0.61585 0.5396-1.2135 0.523l-0.63553-0.01765 0.68643-0.07351zm-27.624-0.37148c0-0.1651 0.0272-0.23264 0.0606-0.15009 0.0333 0.08255 0.0333 0.21763 0 0.30018s-0.0606 0.01501-0.0606-0.15009zm34.975-0.1423c-0.23957-0.21034-0.71423-0.47874-1.0548-0.59644-0.34059-0.1177-0.52295-0.21577-0.40526-0.21792 0.34562-0.0063 1.0808 0.34412 1.4364 0.68471 0.1952 0.18697 0.53789 0.34959 0.84051 0.39886l0.51094 0.08318-0.4461 0.01502c-0.343 0.01155-0.54674-0.07335-0.88167-0.36741zm2.4985 0.17333c0.44577-0.0231 1.1752-0.0231 1.621 0 0.44578 0.0231 0.0811 0.042-0.81049 0.042-0.89154 0-1.2563-0.0189-0.81049-0.042zm-37.589-0.69143c0.002-0.19812 0.0294-0.26463 0.0598-0.14781 0.0304 0.11683 0.0284 0.27892-0.005 0.36022-0.0329 0.08129-0.0578-0.0143-0.0553-0.21241zm10.204 0.11373c0.0543-0.26081 0.26741-0.27677 0.31615-0.02368 0.0253 0.13143-0.0335 0.21013-0.15725 0.21013-0.11536 0-0.18155-0.07767-0.1589-0.18645zm-16.741-0.01314c0.0826-0.03331 0.21764-0.03331 0.30019 0 0.0825 0.03331 0.015 0.06056-0.15009 0.06056-0.16511 0-0.23264-0.02726-0.1501-0.06056zm3.4221-0.0033c0.11558-0.0302 0.30469-0.0302 0.42026 0s0.0211 0.05491-0.21013 0.05491c-0.23114 0-0.32569-0.02471-0.21013-0.05491zm-2.2814-0.12604c0.37973-0.02383 1.0011-0.02383 1.3808 0 0.37973 0.02383 0.069 0.04332-0.69042 0.04332-0.75947 0-1.0702-0.01949-0.69042-0.04332zm36.022-0.35426c0.11557-0.0302 0.30469-0.0302 0.42026 0s0.0211 0.05491-0.21013 0.05491c-0.23114 0-0.3257-0.02471-0.21013-0.05491zm2.1613 0c0.11558-0.0302 0.30469-0.0302 0.42026 0s0.0211 0.05491-0.21013 0.05491c-0.23114 0-0.32569-0.02471-0.21013-0.05491zm-32.9-0.45755c0.002-0.26416 0.0259-0.35809 0.0547-0.20873 0.0287 0.14936 0.0276 0.36549-0.002 0.48029-0.03 0.1148-0.0535-0.0074-0.0522-0.27156zm31.701 0.33409c0.18252-0.0276 0.45269-0.02687 0.60037 0.0016 0.14769 0.0285-0.002 0.05108-0.33185 0.05018-0.3302-0.00096-0.45103-0.02422-0.26852-0.05182zm-21.956-0.31839c-0.0347-0.09042-0.0465-0.45464-0.0263-0.80937 0.0268-0.46967 0.0858-0.64841 0.21695-0.65765 0.10399-0.0074 0.11668 0.0086 0.03 0.03769-0.0975 0.03274-0.15009 0.29963-0.15009 0.76202 0 0.63158 0.027 0.71163 0.24014 0.71163 0.21752 0 0.24015-0.08005 0.24015-0.84931 0-0.7441 0.026-0.84435 0.21013-0.80922 0.173 0.03301 0.21636 0.19368 0.2454 0.90935l0.0353 0.86926h-0.48932c-0.30341 0-0.51329-0.06246-0.55241-0.1644zm1.5359-1.3617-0.0244-0.98574-0.9906-0.04045-0.9906-0.04045 0.9906-0.02444c1.5029-0.03708 1.1976-0.25139-0.42025-0.29499l-1.4109-0.03803 1.4109-0.02582 1.4108-0.02582v-0.74045c0-1.0154 0.10502-0.83262 0.13183 0.22948l0.0217 0.8598 0.61366 0.04352 0.61366 0.04352-0.62552 0.02221-0.62553 0.02221-0.0404 0.9906-0.0404 0.9906-0.0244-0.98575zm-11.397 0.26531c0.00081-0.3302 0.0243-0.45103 0.0518-0.26851 0.0276 0.18252 0.0269 0.45268-0.002 0.60036-0.0285 0.14768-0.0511-0.0017-0.0502-0.33185zm-16.694-0.391c0.37973-0.02383 1.0011-0.02383 1.3808 0 0.37973 0.02383 0.0691 0.04332-0.69042 0.04332-0.75946 0-1.0702-0.0195-0.69042-0.04332zm7.2044 0c0.37974-0.02383 1.0011-0.02383 1.3808 0 0.37973 0.02383 0.0691 0.04332-0.69042 0.04332-0.75946 0-1.0701-0.0195-0.69042-0.04332zm-9.3657-0.11881c0.24766-0.0259 0.65291-0.0259 0.90055 0 0.24766 0.0259 0.0451 0.0471-0.45027 0.0471-0.4953 0-0.69792-0.0212-0.45028-0.0471zm12.007-0.0008c0.31369-0.02473 0.827-0.02473 1.1407 0 0.31369 0.02473 0.057 0.04497-0.57035 0.04497-0.62738 0-0.88403-0.02024-0.57034-0.04497zm-13.505-0.118c0.21581-0.02672 0.54-0.02618 0.72043 0.0012 0.18043 0.0274 0.004 0.04926-0.39239 0.04859-0.39624-0.000721-0.54386-0.02309-0.32804-0.04981zm15.911-0.0014c0.31568-0.02482 0.80198-0.02452 1.0807 0.00072 0.27867 0.02518 0.0204 0.04548-0.57398 0.04511-0.59436-0.00036-0.82237-0.02097-0.50668-0.04579zm-17.114-0.117c0.1486-0.02862 0.39175-0.02862 0.54033 0 0.1486 0.02862 0.027 0.05203-0.27016 0.05203-0.29718 0-0.41875-0.02341-0.27017-0.05203zm5.5834-0.0043c0.44578-0.0231 1.1752-0.0231 1.621 0 0.44577 0.0231 0.081 0.04201-0.81049 0.04201-0.89154 0-1.2563-0.0189-0.8105-0.04201zm13.752 0.000961c0.28241-0.02537 0.71467-0.02501 0.96058 0.0008 0.24591 0.0258 0.0148 0.04656-0.51348 0.04612-0.52832-0.00048-0.72952-0.02155-0.4471-0.04691zm1.8516-0.05358c-0.18839-0.07545-0.18791-0.08225 0.006-0.09005 0.42731-0.01716 0.19298-0.23632-0.30019-0.28074l-0.51031-0.04596 0.50233-0.02098c0.44935-0.01876 0.50761-0.05581 0.55236-0.35118l0.05-0.3302 0.018 0.3233c0.0161 0.28956 0.0713 0.32809 0.52831 0.36926l0.51031 0.04596-0.51031 0.02098c-0.7535 0.03098-0.61999 0.24323 0.18011 0.28635l0.69042 0.03721-0.7568 0.05884c-0.41623 0.03236-0.84849 0.02211-0.96058-0.02278zm-17.942-0.067c0.28241-0.02537 0.71467-0.02501 0.96058 0.00088 0.24591 0.0258 0.0148 0.04656-0.51348 0.04612-0.52832-0.00048-0.72952-0.02155-0.4471-0.04691zm10.863-0.000241c0.3137-0.02474 0.82701-0.02474 1.1407 0 0.3137 0.02473 0.057 0.04497-0.57034 0.04497-0.62738 0-0.88404-0.02024-0.57035-0.04497zm-12.545-0.119c0.21581-0.02672 0.54-0.02618 0.72043 0.0012 0.18042 0.0274 0.004 0.04926-0.39239 0.04859-0.39624-0.000721-0.54386-0.02309-0.32804-0.04981zm14.951-0.0014c0.31568-0.02482 0.80197-0.02452 1.0806 0.00072 0.27868 0.02518 0.0204 0.04548-0.57397 0.04512-0.59436-0.000361-0.82237-0.02097-0.50668-0.04579zm7.2044 0c0.31568-0.02482 0.80198-0.02452 1.0807 0.00072 0.27867 0.02518 0.0204 0.04548-0.57398 0.04512-0.59436-0.000361-0.82237-0.02097-0.50668-0.04579zm-23.416-0.118c0.18251-0.0276 0.45268-0.02687 0.60036 0.0016 0.14768 0.0285-0.002 0.05108-0.33185 0.05018-0.3302-0.000961-0.45103-0.02422-0.26851-0.05182zm2.4086-0.10607c-0.0786-0.20494 0.14034-0.40327 0.4486-0.4063 0.2808-0.0028 0.64199 0.30253 0.54451 0.46024-0.13261 0.21457-0.90619 0.17256-0.99311-0.05394zm16.021 0.10431c0.28067-0.02528 0.73995-0.02528 1.0206 0 0.28067 0.02528 0.051 0.04596-0.51031 0.04596-0.56134 0-0.79098-0.02068-0.51031-0.04596zm7.3881-0.000481c0.31568-0.02482 0.80197-0.02452 1.0806 0.000721 0.27868 0.02518 0.0204 0.04548-0.57397 0.04511-0.59436-0.000359-0.82237-0.02097-0.50668-0.04579zm2.3978-0.12041c0.37974-0.02383 1.0011-0.02383 1.3808 0 0.37973 0.02383 0.0691 0.04332-0.69042 0.04332-0.75946 0-1.0702-0.0195-0.69042-0.04332zm-4.7129-0.15684c0.69342-0.04687 1.693-0.08278 2.2214-0.0798 0.94198 0.0053 0.93617 0.007-0.30018 0.09065-0.69343 0.04687-1.693 0.08278-2.2214 0.0798-0.94198-0.0053-0.93616-0.007 0.30018-0.09065zm-24.371-0.079c-0.004-0.14736 0.56335-0.61631 1.047-0.8658 0.48018-0.2477 0.28645-0.04321-0.2655 0.28026-0.29462 0.17266-0.59016 0.40743-0.65675 0.52172-0.0666 0.11429-0.12273 0.14301-0.12474 0.06382zm36.234-0.0054c0.54797-0.0223 1.4125-0.02217 1.9212 0.00024 0.50867 0.02245 0.0603 0.0407-0.99631 0.04054-1.0566-0.00012-1.4728-0.01852-0.92486-0.04082zm-7.746-0.11951c0.38214-0.0239 0.9765-0.02368 1.3208 0.00048 0.3443 0.02417 0.0316 0.04373-0.6948 0.04346-0.72644-0.00024-1.0081-0.02004-0.626-0.04395zm11.769-0.000601c0.58109-0.02206 1.4996-0.02195 2.0412 0.000241 0.54159 0.0222 0.0661 0.04024-1.0565 0.0401-1.1227-0.00012-1.5658-0.0183-0.9847-0.04036zm4.7909-0.1199c0.57452-0.02197 1.5471-0.02207 2.1613-0.000241 0.61422 0.02184 0.14416 0.03981-1.0446 0.03993-1.1887 0.00012-1.6913-0.01774-1.1168-0.0397zm-9.8344-0.12011c0.51483-0.02257 1.3253-0.02242 1.8011 0.00036 0.47577 0.02273 0.0545 0.04119-0.93605 0.04102-0.9906-0.00012-1.3799-0.01876-0.86504-0.04133zm14.53-0.000361c0.71352-0.02127 1.8482-0.02119 2.5215 0.000121 0.67333 0.02136 0.0895 0.03876-1.2973 0.03866-1.3868-0.000098-1.9377-0.01758-1.2242-0.03884zm-10.687-0.1199c0.58109-0.02206 1.4996-0.02195 2.0412 0.00024 0.54159 0.0222 0.0661 0.04024-1.0565 0.04011-1.1227-0.00012-1.5658-0.0183-0.9847-0.04035zm16.444-0.00012c0.77598-0.02092 2.0458-0.02092 2.8217 0 0.77598 0.02092 0.14109 0.03803-1.4108 0.03803s-2.1868-0.01711-1.4109-0.03803zm-33.613-0.69085c0.00072-0.39624 0.0231-0.54386 0.0498-0.32805s0.0262 0.54001-0.002 0.72044c-0.0274 0.18043-0.0492 0.0038-0.0486-0.39239zm21.906 0.57107c0.54484-0.02225 1.4364-0.02225 1.9812 0 0.54483 0.02225 0.0991 0.04045-0.99061 0.04045s-1.5354-0.0182-0.9906-0.04045zm4.8029-0.1203c0.67691-0.0214 1.7846-0.0214 2.4615 0 0.67692 0.02141 0.12308 0.03891-1.2307 0.03891s-1.9077-0.01751-1.2308-0.03891zm-34.544-0.06944c0.095-0.10601 2.4056-0.71074 2.4699-0.64643 0.0294 0.02937-0.39427 0.16788-0.94142 0.30781-0.54715 0.13992-1.1299 0.2901-1.295 0.33371-0.1651 0.04362-0.27018 0.04583-0.23351 0.0049zm40.008-0.05073c0.77597-0.02092 2.0457-0.02092 2.8217 0 0.77598 0.02092 0.14109 0.03802-1.4109 0.03802-1.5519 0-2.1868-0.01712-1.4108-0.03802zm-52.504-0.271c0.0991-0.06402 0.23414-0.11639 0.30018-0.11639 0.066 0 0.039 0.05238-0.06 0.11639-0.0991 0.06401-0.23414 0.1164-0.30018 0.1164-0.066 0-0.039-0.05238 0.06-0.1164zm15.67-0.548c0.3302-0.09188 0.6544-0.16243 0.72044-0.15678 0.2032 0.01739-0.82504 0.32696-1.0807 0.32535-0.13208-0.00088 0.03-0.07669 0.36022-0.16856zm1.0807-0.29176c0.33009-0.14184 0.51967-0.14184 0.30018 0-0.0991 0.06402-0.26116 0.11343-0.36022 0.1098-0.11876-0.0043-0.0983-0.04175 0.06-0.1098zm4.5696-0.26686c-0.30083-0.4295-0.24837-1.8182 0.0965-2.5548 0.48114-1.0276 3.0137-4.3297 3.5344-4.6084 0.19929-0.10667 0.97534-0.19716 2.1782-0.25399 2.1675-0.10239 2.5559-0.01624 2.8203 0.62551 0.0894 0.21701 0.28307 1.7954 0.43036 3.5075 0.24424 2.8389 0.25099 3.1253 0.0767 3.2527-0.19572 0.14312-3.9914 0.29836-7.2948 0.29836-1.5739 0-1.664-0.01305-1.8417-0.26686zm1.0138-0.01932c0-0.02532-0.10807-0.07429-0.24015-0.10883s-0.24014-0.01383-0.24014 0.04603 0.10806 0.10883 0.24014 0.10883 0.24015-0.02072 0.24015-0.04604zm4.5247-0.95764c0.072-0.41994 0.21498-0.94676 0.31785-1.1707 0.10289-0.22395 0.22297-0.67734 0.26685-1.0075 0.13934-1.0487 0.25638-1.1407 1.4513-1.1407h1.0318l-0.0862-0.80458c-0.0474-0.44252-0.13626-0.93636-0.19749-1.0974-0.10612-0.27913-0.14567-0.28923-0.84599-0.21603-0.40405 0.04223-1.5237 0.07808-2.4881 0.07967l-1.7535 0.0029-0.69082 0.8329-0.69081 0.8329 0.48976 0.13188c0.57591 0.15507 0.83183 0.61495 0.83183 1.4947 0 0.2993 0.052 0.54418 0.1154 0.54418 0.35481 0 0.99527 1.2853 0.99527 1.9973 0 0.25815 0.0512 0.28405 0.56097 0.28405h0.56097l0.13078-0.76353zm-4.6285-0.19705c0.0571 0 0.10378-0.05403 0.10378-0.12007 0-0.28035-0.34759-0.08891-0.46854 0.25806-0.19867 0.56988-0.13553 0.82846 0.0763 0.31228 0.10161-0.24765 0.23144-0.45027 0.28852-0.45027zm1.5763-1.2853c-0.14768-0.0285-0.41785-0.02924-0.60037-0.0016-0.18251 0.0276-0.0617 0.05092 0.26852 0.05181 0.3302 0.000881 0.47953-0.02168 0.33185-0.05018zm8.0504 2.0657c0.00072-0.39624 0.0231-0.54386 0.0498-0.32805s0.0262 0.54001-0.002 0.72044c-0.0274 0.18043-0.0492 0.0038-0.0486-0.39239zm2.3605 0.19525c-0.85133-0.28123-1.0546-0.64588-1.3802-2.4766-0.10575-0.59436-0.35091-1.7124-0.54481-2.4845-0.41851-1.6665-0.42092-1.7097-0.11239-2.0182 0.23279-0.2328 0.40024-0.24015 5.4712-0.24015 3.3582 0 5.3138 0.04426 5.4621 0.12363 0.12706 0.068 0.30762 0.27178 0.40126 0.45285 0.22236 0.43001 1.0282 4.4014 1.1168 5.5042 0.061 0.75848 0.0427 0.87148-0.15754 0.97811-0.28404 0.15119-9.8323 0.30078-10.256 0.16068zm11.77-0.31603c-0.0825-0.09945-0.25316-0.76135-0.37918-1.4709-0.126-0.70954-0.42103-2.1209-0.65561-3.1364-0.37579-1.6268-0.40546-1.8674-0.2495-2.0233 0.15475-0.15475 0.75608-0.15924 4.7834-0.03571 6.6824 0.20498 7.3602 0.25758 7.7242 0.59951 0.32153 0.30206 0.76583 1.2999 1.4245 3.1991 0.5769 1.6635 0.64736 2.1946 0.34131 2.5729l-0.23917 0.29559-3.4629 0.07673c-6.5939 0.1461-9.119 0.12504-9.287-0.07743zm-14.255-1.14c0-0.29718 0.0234-0.41876 0.052-0.27016 0.0286 0.14859 0.0286 0.39174 0 0.54033s-0.052 0.02702-0.052-0.27016zm-0.12007-1.0807c0-0.29718 0.0234-0.41875 0.052-0.27016 0.0287 0.14859 0.0287 0.39174 0 0.54033s-0.052 0.02702-0.052-0.27016zm-0.1225-1.0206c0.002-0.26416 0.0259-0.35809 0.0547-0.20873 0.0287 0.14936 0.0276 0.36549-0.002 0.48029-0.03 0.1148-0.0536-0.0074-0.0522-0.27156zm-0.25242-1.579c-0.082-0.56736-0.12568-1.055-0.097-1.0837 0.0287-0.02868 0.12096 0.41036 0.20506 0.97565s0.12775 1.053 0.097 1.0837c-0.0307 0.03075-0.12302-0.40829-0.20506-0.97565zm-0.2392-1.4829c0-0.1651 0.0272-0.23264 0.0606-0.15009 0.0333 0.08255 0.0333 0.21763 0 0.30018s-0.0606 0.01501-0.0606-0.15009zm-0.12955-0.44045c-0.006-0.07715-0.0406-0.23925-0.0786-0.36022-0.0656-0.20907-0.0623-0.20934 0.0685-0.0053 0.0757 0.11806 0.11106 0.28016 0.0786 0.36022-0.0426 0.10506-0.0617 0.10654-0.0685 0.0053zm-25.348 14.339c0.15969-0.38756 0.38009-1.5547 0.30732-1.6275-0.0338-0.03381-0.0155-0.12049 0.0407-0.1926 0.0562-0.07212 0.13297-0.29322 0.17066-0.49134 0.0377-0.19812 0.10239-0.44771 0.14379-0.55464 0.0664-0.17162-0.13428-0.20453-1.7112-0.28057-0.98256-0.04738-2.5661-0.15384-3.519-0.23658-0.95285-0.08274-1.777-0.11183-1.8315-0.06466-0.0985 0.08531 0.1624 1.8196 0.3993 2.6544 0.0683 0.2405 0.20181 0.50177 0.29678 0.58059 0.18942 0.1572 3.0253 0.44632 4.5987 0.46883 0.9235 0.01322 1.001-0.0047 1.1045-0.25595zm-0.6175 0.06498c-0.22524-0.03448-0.35762-0.1544-0.44403-0.40226-0.16179-0.46414-0.37574-0.45156-0.37574 0.02208 0 0.35622-0.019 0.37143-0.37522 0.30018-0.20638-0.04127-0.44297-0.07505-0.52576-0.07505-0.0828 0-0.21768-0.1621-0.29974-0.36022-0.0821-0.19812-0.19669-0.36022-0.25472-0.36022-0.058 0-0.1055 0.1621-0.1055 0.36022 0 0.209-0.063 0.35953-0.15009 0.35858-0.37977-0.0042-0.64935-0.15913-0.83281-0.47877l-0.19926-0.3472 0.44099-0.04673c0.43871-0.04649 0.4385-0.04668-0.0393-0.03647-0.4516 0.0097-0.48254 0.03357-0.51791 0.4005-0.0311 0.3232-0.0879 0.39024-0.3302 0.39024-0.20892 0-0.29258-0.06622-0.29258-0.23157 0-0.12736-0.0811-0.31271-0.18031-0.41188-0.16036-0.16036-0.15704-0.18612 0.03-0.23286 0.11568-0.0289 0.0617-0.04202-0.11987-0.02917-0.18161 0.01286-0.3302-0.0213-0.3302-0.0759s0.0811-0.09928 0.18011-0.09928c0.30464 0 0.20964-0.475-0.12008-0.60036-0.34921-0.13277-0.40025-0.36022-0.0808-0.36022 0.17543 0 0.20877-0.07214 0.16648-0.36022-0.0483-0.32896-0.0231-0.36008 0.29096-0.35858 0.67164 0.0032 0.88416 0.12162 0.88416 0.49266 0 0.2277 0.0616 0.34621 0.18011 0.34621 0.21324 0 0.21505-0.01254 0.0605-0.419-0.11959-0.31456-0.11959-0.31456 0.45028-0.27798 0.54633 0.03507 0.57142 0.05269 0.60749 0.42681 0.0233 0.24172 0.10327 0.39024 0.21012 0.39024 0.20464 0 0.20662-0.01473 0.0554-0.41244l-0.1171-0.308h0.71746 0.71747v0.42026c0 0.30154 0.0531 0.42026 0.1882 0.42026 0.18236 0 0.17567-0.12342-0.0374-0.69042-0.0416-0.1108 0.15522-0.15009 0.75192-0.15009h0.80833l-0.075 0.37523c-0.0413 0.20638-0.075 0.41993-0.075 0.47456s-0.3377 0.11542-0.75046 0.13508c-0.75041 0.03575-0.75045 0.03577-0.78807 0.42598-0.0369 0.38239-0.0501 0.39062-0.66041 0.40945-0.47354 0.01461-0.524 0.03121-0.21059 0.06928 0.22671 0.02754 0.58931 0.01683 0.8058-0.02378 0.36338-0.06817 0.38473-0.09713 0.27822-0.37728-0.0635-0.16689-0.11537-0.32694-0.11537-0.35566s0.31212-0.05222 0.69359-0.05222h0.6936l-0.045 0.47199c-0.0263 0.27632-0.10233 0.4587-0.18328 0.43994-0.0761-0.01763-0.0977-0.0094-0.0482 0.01831 0.1748 0.09776 0.0504 0.8956-0.13292 0.85287-0.0424-0.0099-0.22163-0.0401-0.39813-0.06712zm-2.0422-1.3764c-0.0566-0.38441-0.33855-0.42558-0.33855-0.04943 0 0.20178 0.0659 0.31019 0.18846 0.31019 0.12515 0 0.17557-0.08759 0.15009-0.26076zm-1.2991 0.03043c0-0.20776-0.14574-0.49011-0.25299-0.49011-0.059 0-0.10723 0.13508-0.10723 0.30018 0 0.18678 0.068 0.30018 0.18011 0.30018 0.0991 0 0.18011-0.04961 0.18011-0.11025zm1.7711-0.57612c-0.18161-0.02751-0.47879-0.02751-0.6604 0s-0.0331 0.05002 0.3302 0.05002c0.36322 0 0.51181-0.02251 0.3302-0.05002zm-1.7411-0.11881c-0.14858-0.02862-0.39173-0.02862-0.54033 0-0.14858 0.02862-0.027 0.05204 0.27017 0.05204 0.29718 0 0.41876-0.02341 0.27016-0.05204zm-1.3833-0.10788c-0.0399-0.0399-0.14347-0.04416-0.23014-0.0095-0.0958 0.03833-0.0673 0.06678 0.0725 0.07254 0.12658 0.0052 0.1975-0.02317 0.1576-0.06306zm8.3891 0.36941-0.0114-1.144-1.0156 0.03333-1.0156 0.03333-0.13782 0.48029c-0.0758 0.26416-0.1761 0.73828-0.2229 1.0536l-0.0851 0.57332 1.1785-0.06117c0.75624-0.03925 1.071-0.02309 0.87834 0.0451-0.29444 0.10423-0.29307 0.1065 0.0715 0.11824l0.3717 0.01197-0.0114-1.144zm-2.2158 0.41757c-0.0225-0.56367 0.15919-0.7183 0.81747-0.69557l0.54633 0.01887-0.60037 0.07119c-0.59259 0.07027-0.60131 0.07741-0.67337 0.55148l-0.073 0.48029-0.0171-0.42626zm3.0899 0.6514 0.37522-0.07505v-1.0656-1.0656h-0.54032c-0.61211 0-0.6066-0.01396-0.54565 1.3808 0.0427 0.97611 0.0302 0.96162 0.71075 0.8255zm-0.22514-0.28517c0.13208-0.13208 0.24015-0.30318 0.24015-0.38023s0.0343-0.10575 0.0763-0.06378c0.0962 0.0962-0.28131 0.68416-0.43929 0.68416-0.0645 0-0.009-0.10806 0.12284-0.24014zm0.3697-0.79048c0.006-0.13988 0.0342-0.16833 0.0725-0.07255 0.0347 0.08668 0.0304 0.19024-0.009 0.23014-0.0399 0.0399-0.0683-0.03102-0.0631-0.1576zm-0.39206-0.66464c-0.1774-0.19028-0.28214-0.34597-0.23277-0.34597 0.13469 0 0.61535 0.47261 0.61535 0.60504 0 0.14976-0.004 0.14714-0.38258-0.25907zm1.3974 0.43135c0.0909-0.60598-0.0485-0.89739-0.42915-0.89739-0.20004 0-0.22544 0.09919-0.22544 0.88054 0 0.4843 0.0397 0.92026 0.0883 0.96882 0.15784 0.15784 0.48147-0.38618 0.56631-0.95196zm-11.539 0.03318c-0.0865-0.41275-0.15839-0.92015-0.15976-1.1276-0.002-0.34306-0.0416-0.38166-0.43523-0.42762-0.25977-0.03033-0.45399 0.0049-0.48593 0.08816-0.0293 0.07627-0.0371 0.5373-0.0175 1.0245l0.0357 0.88585 0.4803 0.14432c0.76405 0.22959 0.75557 0.23815 0.58252-0.58768zm19.098-5.869c-0.59958-0.13032-0.8516-0.09263-0.36819 0.05506 0.27852 0.08509 0.42115 0.18684 0.36022 0.25698-0.0555 0.06386 0.002 0.03685 0.12804-0.06004 0.21871-0.16832 0.21338-0.17952-0.12007-0.252zm-1.0994-0.18378c-0.0825-0.03331-0.21763-0.03331-0.30018 0-0.0825 0.03331-0.0151 0.06057 0.15009 0.06057 0.1651 0 0.23264-0.02726 0.15009-0.06057zm-0.90055-0.12332c-0.11557-0.0302-0.30468-0.0302-0.42025 0s-0.0211 0.05491 0.21012 0.05491c0.23114 0 0.3257-0.02471 0.21013-0.05491zm-1.561-0.12477c-0.24764-0.0259-0.65289-0.0259-0.90054 0s-0.0451 0.0471 0.45027 0.0471c0.4953 0 0.69793-0.0212 0.45027-0.0471zm-3.6586-0.12034c-0.27869-0.02518-0.76498-0.02548-1.0807-0.000721-0.31569 0.02482-0.0877 0.04542 0.50668 0.04579 0.59436 0.00036 0.85265-0.01994 0.57398-0.04512zm4.7092-0.77429c0.39624-0.10721 0.9259-0.23025 1.177-0.27343 0.25112-0.04319 0.47958-0.14307 0.50768-0.22198 0.0281-0.0789 0.20663-0.88642 0.39672-1.7945l0.34565-1.651h-2.536-2.536l-0.81051 0.73151c-0.70352 0.63495-2.8486 3.1527-2.8483 3.3431 0.00007 0.03733 1.2563 0.06637 2.7917 0.06453 2.1916-0.0026 2.9464-0.04525 3.512-0.19828zm5.4494-2.6801 0.85035-1.2007-0.91811-0.03542c-0.65289-0.02519-0.94661 0.0095-1.0168 0.12007-0.0543 0.08552-0.0995 0.74837-0.10048 1.473-0.002 1.1622 0.018 1.2896 0.1664 1.0807 0.0925-0.13026 0.5509-0.77717 1.0186-1.4376zm36.666-2.7812c-0.0825-0.03331-0.21762-0.03331-0.30018 0-0.0825 0.03331-0.0151 0.06056 0.15009 0.06056 0.1651 0 0.23265-0.02725 0.15009-0.06056z"/>
 </g>
</svg>
