<?xml version="1.0" encoding="UTF-8" standalone="no"?>
<!-- Created with Inkscape (http://www.inkscape.org/) -->
<svg id="svg2" xmlns:rdf="http://www.w3.org/1999/02/22-rdf-syntax-ns#" xmlns="http://www.w3.org/2000/svg" height="54" width="99" version="1.1" xmlns:cc="http://creativecommons.org/ns#" xmlns:dc="http://purl.org/dc/elements/1.1/">
 <metadata id="metadata7">
  <rdf:RDF>
   <cc:Work rdf:about="">
    <dc:format>image/svg+xml</dc:format>
    <dc:type rdf:resource="http://purl.org/dc/dcmitype/StillImage"/>
    <dc:title/>
   </cc:Work>
  </rdf:RDF>
 </metadata>
 <g id="g3491">
  <g id="g3871">
   <g id="g4614">
    <g id="g5219">
     <g id="g5689">
      <g id="g6406">
       <g id="g7263">
        <g id="g8053">
         <g id="g8717">
          <g id="g9406">
           <g id="g9898">
            <g id="g10207">
             <g id="g10407">
              <g id="g10743">
               <g id="g11282">
                <g id="g15079">
                 <g id="g15585">
                  <g id="g16769">
                   <g id="g17492">
                    <g id="g17976">
                     <g id="g18386">
                      <g id="g19746">
                       <g id="g20846">
                        <g id="g21376">
                         <g id="g21705">
                          <g id="g22212">
                           <g id="g26871">
                            <g id="g28064">
                             <g id="g28748">
                              <g id="g29219">
                               <g id="g29819">
                                <rect id="rect2990" opacity="0" height="54" width="99" y="0" x="0"/>
                                <g id="layer1" transform="translate(268.06997,8.0266022)">
                                 <g id="logo31" transform="matrix(0.15487767,0,0,0.15487767,-263.57034,1.4653383)">
                                  <g id="g92966">
                                   <path id="path92968" d="m26.323,184.38c23.211,5.327,56.713,7.748,80.627,7.674v-0.001c4.161-0.016,8.036-0.108,11.523-0.274,4.484-9.193,9.641-19.282,7.623-21.524,1.345-2.018,5.157-11.211,4.036-16.368,7.399-12.332,8.744-19.73,37.667-21.3,28.923-1.569,32.286,13.229,36.771,23.99,4.34,10.417,2.018,23.318,1.793,26.008-0.224,2.691-1.793,3.363-3.139,4.036-1.345,0.672-2.242,2.915-2.242,2.915l134.75-4.596,101.23-4.372,0.033-0.575,0.079-3.013c3.587-6.951,6.278-13.229,14.574-31.389,8.295-18.161,20.851-17.04,39.685-16.143,18.833,0.896,17.712,19.058,18.161,25.784,0.448,6.726-0.672,12.78-0.672,12.78-0.084,0.112-0.175,0.196-0.272,0.256l0.333,0.597c1.142,1.69,2.816,3.852,3.908,3.852l32.958-1.569c0.896,0.897,6.502,0.224,7.847-2.242s2.915-10.762,3.139-14.349-0.225-6.054-4.26-6.054c1.345-11.435,1.121-26.68,1.121-52.688s-13.452-65.468-22.196-77.127c0,0,2.242-0.896-1.345-2.242-18.36-7.653-113.64-12.81-184.5-15.052-70.85-2.242-145.28,1.569-168.38,4.26-23.093,2.691-31.389,6.951-38.788,13.453s-49.774,49.101-50.671,50.222c-0.896,1.121-3.363,4.484-8.071,5.605s-40.357,9.641-53.585,14.349-15.022,12.78-15.695,17.712c-0.673,4.933-1.345,17.04-1.345,23.317s-0.305,12.504,9.697,14.461c0,0-2.746-0.336-3.924,0.785-1.268,1.208-8.688,3.812-12.275,8.071-1.43,1.698-2.466,5.381-1.121,10.538s2.69,8.071,7.399,9.192c0,0-1.345,3.363-1.794,4.708-0.37,1.11,11.324,4.969,19.454,7.292" fill="#FFF"/>
                                  </g>
                                  <path id="path92970" d="m28.56,116.67,4.932,23.205,41.03,3.027s1.906-16.704,4.26-23.43c-13.004-0.12-38.115-1.24-50.222-2.81z"/>
                                  <path id="path92972" d="m106.95,196.72v-4.658,0.001c-23.914,0.074-57.416-2.347-80.627-7.674,0,7.175,13.004,26.457,21.748,26.457,0,0-26.233,0.897-28.923,2.018s34.752,13.228,118.83,13.228c0,0,18.385-0.448,32.734-0.896,14.349-0.449,78.473-2.69,89.235-2.69s26.905,3.139,31.837,2.69c4.933-0.449-20.179-3.587-16.591-3.587s123.79-3.21,156.5-4.484c34.528-1.345,126.45-5.83,134.08-6.278,2.242,1.345,16.591,0,15.247-1.345-1.346-1.345-75.895-8.52-81.725-8.968,4.53-6.618,7.959-22.421,5.045-32.062,0,0,0.448-1.345,1.569-0.897,1.121,0.449,2.242,1.346,2.915,0.449,0,0,1.121-6.054,0.672-12.78-0.448-6.727,0.672-24.888-18.161-25.784-18.834-0.897-31.39-2.018-39.685,16.143-8.296,18.161-10.986,24.438-14.574,31.389l-0.112,4.26c0,6.951,2.579,14.574,4.148,17.937l-57.397,1.345s-2.69,1.793-4.484,2.018c7.175-4.708,14.798-13.677,14.798-18.161l12.78,0.897,0.673,2.018s0.673,0.785,4.26,1.121,10.65,2.354,14.461-6.726l10.762-0.449v-0.672l-101.23,4.372c0,4.82,9.865,16.928,17.264,16.928l-156.95,5.157c2.915-3.363,4.484-12.332,4.484-15.246h4.933c1.569,0,4.26-1.794,4.26-1.794l2.242,2.691h19.73v-2.242c2.915,0,5.381,0,7.399,0.672,2.018,0.673,8.52,0.897,10.313,0.224,1.793-0.672,4.708-1.793,6.951-0.672,2.242,1.121,8.744-2.018,8.744-2.018l72.22-2.25v-1.345l-136.32,4.484s0.897-2.242,2.242-2.915,2.915-1.345,3.139-4.036c0.224-2.69,2.546-15.592-1.793-26.008-4.484-10.762-7.847-25.56-36.771-23.99-28.923,1.569-30.268,8.968-37.667,21.3,1.121,5.157-2.69,14.35-4.036,16.368,2.018,2.242-3.139,12.331-7.623,21.524-3.487,0.166-7.362,0.258-11.523,0.274v4.654c6.188-0.019,9.294-1.348,11.074-1.793,1.794-0.448,5.157,0,5.157,0s2.466,15.247,5.157,15.247l-49.774,0.448c4.036,0,16.143-10.538,17.264-16.367,0.001-0.001,4.918,2.427,11.123,2.465z"/>
                                  <path id="path92974" d="m78.782,75.192c20.627-0.448,62.329,2.466,75.558,3.587,13.228,1.121,26.232,1.569,30.492-1.793,0,0-6.95-3.812-37.891-4.933-30.94-1.121-61.88-0.224-61.88-0.224s-2.018,2.242-6.278,3.363z"/>
                                  <path id="path92976" d="m86.854,70.932c22.196-0.673,74.661-1.569,96.185,4.036,4.26,1.569,6.95-0.897,10.313-5.381s18.833-28.698,37.218-52.24c2.018-2.466,0-4.484-6.726-4.933-6.727-0.448-70.625-3.587-82.284,4.708s-39.909,38.788-54.706,53.81z"/>
                                  <path id="path92978" d="m215.1,53.892c-5.157,8.296-4.933,10.538-4.933,13.004v9.192c0,6.95,2.915,7.847,8.295,7.847,5.381,0,68.607-2.018,68.607-2.018,4.933,0,4.26-3.363,3.812-7.847l-4.036-46.187c-0.449-6.95-4.708-10.762-10.089-10.762s-19.73,0.448-27.129,1.121-8.744,1.793-12.78,6.726-21.747,28.924-21.747,28.924z"/>
                                  <path id="path92980" d="m303.21,25.867c4.26,15.246,7.623,31.837,8.744,39.909s3.812,14.349,17.04,14.349,68.159-0.673,76.678-0.673c8.52,0,6.502-6.95,6.278-10.089s-7.399-42.599-9.865-47.532-6.951-4.036-9.641-4.036l-80.042-0.449c-11.883-0.448-9.192,8.521-9.192,8.521z"/>
                                  <path id="path92982" d="m411.95,24.521c1.913,7.65,8.968,38.563,9.641,46.635,0.672,8.071,4.484,7.399,8.968,7.399s87.889-1.569,94.167-1.569,15.47,1.121,10.762-14.574c-4.708-15.694-10.313-29.371-13.004-34.752s-6.95-5.605-15.246-6.053c-8.295-0.449-82.732-2.915-89.458-2.915-5.157,0-7.175,0.449-5.83,5.829z"/>
                                  <path id="path92984" d="m554.1,94.586s-1.121,1.233-4.933,1.233c0,0,0,26.457-0.224,32.958,0,0,4.372,0.448,4.372-0.673,0,0,0.561-12.219,0.785-33.518z"/>
                                  <g id="g92986" stroke-width="0.5" stroke="#000">
                                   <path id="path92988" d="m297.58,123.62c0.447,0,0.809-0.362,0.809-0.81v-12.73c0-0.447-0.362-0.81-0.809-0.81h-1.744c-0.447,0-0.81,0.362-0.81,0.81v12.73c0,0.447,0.362,0.81,0.81,0.81h1.744z"/>
                                   <path id="path92990" d="M296.71,116.45"/>
                                  </g>
                                  <g id="g92992">
                                   <ellipse id="ellipse92994" d="m 297.73499,130.35001 c 0,1.05099 -0.70962,1.903 -1.585,1.903 -0.87537,0 -1.585,-0.85201 -1.585,-1.903 0,-1.051 0.70963,-1.903 1.585,-1.903 0.87538,0 1.585,0.852 1.585,1.903 z" cx="296.15" rx="1.585" cy="130.35" ry="1.903"/>
                                   <path id="path92996" d="M296.15,130.35"/>
                                  </g>
                                  <path id="path92998" d="m133.15,150.75s-6.727,3.363-45.29,1.121c-38.564-2.242-59.079-3.251-69.168-7.063l-3.924,0.785c7.847,2.242,11.659,2.69,10.986,4.26s49.55,5.381,50.222,4.484c0.673-0.897,0.895-0.871,3.587-0.673,21.3,1.57,44.617,2.466,52.24,1.121l1.347-4.035z"/>
                                  <g id="g93000" fill="#FFF">
                                   <ellipse id="ellipse93002" d="m 187.90799,186.74001 c 0,13.08914 -8.94445,23.7 -19.978,23.7 -11.03354,0 -19.978,-10.61086 -19.978,-23.7 0,-13.08915 8.94446,-23.70001 19.978,-23.70001 11.03355,0 19.978,10.61086 19.978,23.70001 z" cx="167.93" rx="19.978" cy="186.74" ry="23.7"/>
                                   <path id="path93004" d="M167.93,186.74"/>
                                  </g>
                                  <g id="g93006" stroke-width="0.5" stroke="#000" fill="none">
                                   <ellipse id="ellipse93008" d="m 186.30899,186.74001 c 0,12.04201 -8.22856,21.804 -18.379,21.804 -10.15044,0 -18.379,-9.76199 -18.379,-21.804 0,-12.04202 8.22856,-21.80401 18.379,-21.80401 10.15044,0 18.379,9.76199 18.379,21.80401 z" cx="167.93" rx="18.379" cy="186.74" ry="21.804"/>
                                   <path id="path93010" d="M167.93,186.74"/>
                                  </g>
                                  <g id="g93012">
                                   <g id="g93014">
                                    <ellipse id="ellipse93016" d="m 170.30699,180.19 c 0,1.55745 -1.06422,2.82 -2.377,2.82 -1.31278,0 -2.377,-1.26255 -2.377,-2.82 0,-1.55744 1.06422,-2.82 2.377,-2.82 1.31278,0 2.377,1.26256 2.377,2.82 z" cx="167.93" rx="2.377" cy="180.19" ry="2.82"/>
                                    <path id="path93018" d="M167.93,180.19"/>
                                   </g>
                                   <g id="g93020" fill="#FFF">
                                    <ellipse id="ellipse93022" d="m 168.89899,180.13 c 0,0.91017 -0.62187,1.648 -1.389,1.648 -0.76712,0 -1.389,-0.73783 -1.389,-1.648 0,-0.91016 0.62188,-1.648 1.389,-1.648 0.76713,0 1.389,0.73784 1.389,1.648 z" cx="167.51" rx="1.389" cy="180.13" ry="1.648"/>
                                    <path id="path93024" d="M167.51,180.13"/>
                                   </g>
                                  </g>
                                  <g id="g93026">
                                   <g id="g93028">
                                    <ellipse id="ellipse93030" d="m 165.067,184.63 c 0,1.558 -1.06422,2.821 -2.377,2.821 -1.31278,0 -2.377,-1.263 -2.377,-2.821 0,-1.55799 1.06422,-2.821 2.377,-2.821 1.31278,0 2.377,1.26301 2.377,2.821 z" cx="162.69" rx="2.377" cy="184.63" ry="2.821"/>
                                    <path id="path93032" d="M162.69,184.63"/>
                                   </g>
                                   <g id="g93034" fill="#FFF">
                                    <ellipse id="ellipse93036" d="m 163.659,184.57001 c 0,0.91016 -0.62187,1.648 -1.389,1.648 -0.76712,0 -1.389,-0.73784 -1.389,-1.648 0,-0.91017 0.62188,-1.648 1.389,-1.648 0.76713,0 1.389,0.73783 1.389,1.648 z" cx="162.27" rx="1.389" cy="184.57" ry="1.648"/>
                                    <path id="path93038" d="M162.27,184.57"/>
                                   </g>
                                  </g>
                                  <g id="g93040">
                                   <g id="g93042">
                                    <ellipse id="ellipse93044" d="m 175.827,184.63 c 0,1.558 -1.06422,2.821 -2.377,2.821 -1.31278,0 -2.377,-1.263 -2.377,-2.821 0,-1.55799 1.06422,-2.821 2.377,-2.821 1.31278,0 2.377,1.26301 2.377,2.821 z" cx="173.45" rx="2.377" cy="184.63" ry="2.821"/>
                                    <path id="path93046" d="M173.45,184.63"/>
                                   </g>
                                   <g id="g93048" fill="#FFF">
                                    <ellipse id="ellipse93050" d="m 174.419,184.57001 c 0,0.91016 -0.62188,1.648 -1.389,1.648 -0.76712,0 -1.389,-0.73784 -1.389,-1.648 0,-0.91017 0.62188,-1.648 1.389,-1.648 0.76712,0 1.389,0.73783 1.389,1.648 z" cx="173.03" rx="1.389" cy="184.57" ry="1.648"/>
                                    <path id="path93052" d="M173.03,184.57"/>
                                   </g>
                                  </g>
                                  <g id="g93054">
                                   <g id="g93056">
                                    <ellipse id="ellipse93058" d="m 173.677,192.07001 c 0,1.55799 -1.06422,2.821 -2.377,2.821 -1.31278,0 -2.377,-1.26301 -2.377,-2.821 0,-1.558 1.06422,-2.821 2.377,-2.821 1.31278,0 2.377,1.263 2.377,2.821 z" cx="171.3" rx="2.377" cy="192.07" ry="2.821"/>
                                    <path id="path93060" d="M171.3,192.07"/>
                                   </g>
                                   <g id="g93062" fill="#FFF">
                                    <ellipse id="ellipse93064" d="m 172.269,192.00999 c 0,0.91017 -0.62187,1.648 -1.389,1.648 -0.76712,0 -1.389,-0.73783 -1.389,-1.648 0,-0.91016 0.62188,-1.648 1.389,-1.648 0.76713,0 1.389,0.73784 1.389,1.648 z" cx="170.88" rx="1.389" cy="192.01" ry="1.648"/>
                                    <path id="path93066" d="M170.88,192.01"/>
                                   </g>
                                  </g>
                                  <g id="g93068">
                                   <g id="g93070">
                                    <ellipse id="ellipse93072" d="m 166.757,192.07001 c 0,1.55799 -1.06421,2.821 -2.377,2.821 -1.31278,0 -2.377,-1.26301 -2.377,-2.821 0,-1.558 1.06422,-2.821 2.377,-2.821 1.31279,0 2.377,1.263 2.377,2.821 z" cx="164.38" rx="2.377" cy="192.07" ry="2.821"/>
                                    <path id="path93074" d="M164.38,192.07"/>
                                   </g>
                                   <g id="g93076" fill="#FFF">
                                    <ellipse id="ellipse93078" d="m 165.34901,192.00999 c 0,0.91017 -0.62188,1.648 -1.389,1.648 -0.76713,0 -1.389,-0.73783 -1.389,-1.648 0,-0.91016 0.62187,-1.648 1.389,-1.648 0.76712,0 1.389,0.73784 1.389,1.648 z" cx="163.96" rx="1.389" cy="192.01" ry="1.648"/>
                                    <path id="path93080" d="M163.96,192.01"/>
                                   </g>
                                  </g>
                                  <g id="g93082" stroke-width="0.5" stroke="#000">
                                   <path id="path93084" d="m159.41,203.56c-1.973-1.409-3.678-3.293-5.003-5.518,0.705-0.375,2.696,0.13,4.447,0.624,1.965,0.555,0.936,3.552,0.556,4.894z"/>
                                   <path id="path93086" d="m158.2,198.5s3.929,0.888,6.596,1.221c1.59,0.277-3.555,0.5-3.929,2.108" fill="none"/>
                                   <path id="path93088" d="m159.41,203.56s1.409,1.155,2.578,1.543" fill="none"/>
                                  </g>
                                  <g id="g93090" stroke-width="0.5" stroke="#000">
                                   <path id="path93092" d="m170.52,206.12c-2.275,0.425-4.602,0.283-6.822-0.412,0.337-0.824,2.136-1.957,3.745-2.913,1.805-1.073,2.64,2.007,3.077,3.325z"/>
                                   <path id="path93094" d="m166.85,203.17s3.491-2.316,5.713-4.094c1.369-1-2.452,3.094-1.867,4.612" fill="none"/>
                                   <path id="path93096" d="m170.52,206.12s1.705-0.189,2.811-0.784" fill="none"/>
                                  </g>
                                  <g id="g93098" stroke-width="0.5" stroke="#000">
                                   <path id="path93100" d="m180.42,199.61c-1.513,2.061-3.373,3.726-5.45,4.887-0.188-0.888,0.576-3.127,1.291-5.087,0.801-2.199,3.11-0.476,4.159,0.2z"/>
                                   <path id="path93102" d="m176.01,200.14s1.419-4.437,2.159-7.493c0.506-1.81-0.203,4.24,1.068,4.957" fill="none"/>
                                   <path id="path93104" d="m180.42,199.61s1.203-1.445,1.729-2.744" fill="none"/>
                                  </g>
                                  <g id="g93106" stroke-width="0.5" stroke="#000">
                                   <path id="path93108" d="m184.47,187.07c-0.042,2.732-0.565,5.425-1.527,7.899-0.626-0.537-1.253-2.835-1.768-4.881-0.577-2.296,2.125-2.737,3.295-3.018z"/>
                                   <path id="path93110" d="m181.38,190.85s-1.316-4.481-2.407-7.387c-0.592-1.772,2.143,3.403,3.504,2.982" fill="none"/>
                                   <path id="path93112" d="m184.47,187.07s0.138-2.024-0.163-3.42" fill="none"/>
                                  </g>
                                  <g id="g93114" stroke-width="0.5" stroke="#000">
                                   <path id="path93116" d="m180.79,174.38c1.448,2.125,2.507,4.586,3.11,7.215-0.77,0.066-2.496-1.216-3.999-2.391-1.686-1.318,0.145-3.717,0.889-4.824z"/>
                                   <path id="path93118" d="m180.46,179.63s-3.437-2.428-5.846-3.823c-1.415-0.906,3.484,0.973,4.3-0.387" fill="none"/>
                                   <path id="path93120" d="m180.79,174.38s-0.991-1.657-1.978-2.496" fill="none"/>
                                  </g>
                                  <g id="g93122" stroke-width="0.5" stroke="#000">
                                   <path id="path93124" d="m171.08,167.47c2.26,0.523,4.406,1.602,6.292,3.155-0.554,0.638-2.571,0.972-4.359,1.218-2.006,0.275-1.903-2.958-1.933-4.373z"/>
                                   <path id="path93126" d="m173.68,171.73s-3.948,0.76-6.549,1.529c-1.575,0.385,3.196-1.912,3.084-3.576" fill="none"/>
                                   <path id="path93128" d="m171.08,167.47s-1.657-0.514-2.868-0.404" fill="none"/>
                                  </g>
                                  <g id="g93130" stroke-width="0.5" stroke="#000">
                                   <path id="path93132" d="m159.91,169.57c2.015-1.323,4.243-2.133,6.53-2.381-0.079,0.912-1.443,2.706-2.679,4.257-1.387,1.741-3.06-0.815-3.851-1.876z"/>
                                   <path id="path93134" d="m164.21,170.86s-2.613,3.593-4.189,6.166c-0.998,1.495,1.413-3.902,0.425-5.091" fill="none"/>
                                   <path id="path93136" d="m159.91,169.57s-1.547,0.87-2.415,1.877" fill="none"/>
                                  </g>
                                  <g id="g93138" stroke-width="0.5" stroke="#000">
                                   <path id="path93140" d="m152.48,179.7c0.827-2.55,2.095-4.869,3.712-6.803,0.433,0.758,0.36,3.173,0.254,5.304-0.119,2.391-2.786,1.71-3.966,1.499z"/>
                                   <path id="path93142" d="m156.48,177.41s-0.055,4.745,0.132,7.917c0.046,1.906-1.032-4.066-2.433-4.224" fill="none"/>
                                   <path id="path93144" d="m152.48,179.7s-0.714,1.846-0.833,3.28" fill="none"/>
                                  </g>
                                  <g id="g93146" stroke-width="0.5" stroke="#000">
                                   <path id="path93148" d="m152.29,193.13c-0.749-2.584-1.034-5.327-0.843-8.042,0.743,0.25,1.995,2.155,3.068,3.869,1.205,1.923-1.207,3.434-2.225,4.173z"/>
                                   <path id="path93150" d="m154.1,188.33s2.529,3.676,4.391,5.964c1.068,1.425-2.994-2.328-4.153-1.381" fill="none"/>
                                   <path id="path93152" d="m152.29,193.13s0.453,1.958,1.139,3.148" fill="none"/>
                                  </g>
                                  <g id="g93154" stroke-width="2" stroke="#FFF" fill="none">
                                   <ellipse id="ellipse93156" d="m 191.92401,186.46001 c 0,15.23753 -10.49176,27.59 -23.434,27.59 -12.94225,0 -23.434,-12.35247 -23.434,-27.59 0,-15.23754 10.49175,-27.59 23.434,-27.59 12.94224,0 23.434,12.35246 23.434,27.59 z" cx="168.49" rx="23.434" cy="186.46" ry="27.59"/>
                                   <path id="path93158" d="M168.49,186.46"/>
                                  </g>
                                  <g id="g93160" fill="#FFF">
                                   <ellipse id="ellipse93162" d="m 495.58999,180.09 c 0,11.66259 -7.57086,21.117 -16.91,21.117 -9.33913,0 -16.91,-9.45441 -16.91,-21.117 0,-11.6626 7.57087,-21.117 16.91,-21.117 9.33914,0 16.91,9.4544 16.91,21.117 z" cx="478.68" rx="16.91" cy="180.09" ry="21.117"/>
                                   <path id="path93164" d="M478.68,180.09"/>
                                  </g>
                                  <g id="g93166" stroke-width="0.5" stroke="#000" fill="none">
                                   <ellipse id="ellipse93168" d="m 494.23699,180.09 c 0,10.72923 -6.9651,19.427 -15.557,19.427 -8.59189,0 -15.557,-8.69777 -15.557,-19.427 0,-10.72924 6.96511,-19.427 15.557,-19.427 8.5919,0 15.557,8.69776 15.557,19.427 z" cx="478.68" rx="15.557" cy="180.09" ry="19.427"/>
                                   <path id="path93170" d="M478.68,180.09"/>
                                  </g>
                                  <g id="g93172">
                                   <g id="g93174">
                                    <ellipse id="ellipse93176" d="m 480.69199,174.25999 c 0,1.3879 -0.9008,2.513 -2.012,2.513 -1.11119,0 -2.012,-1.1251 -2.012,-2.513 0,-1.38789 0.90081,-2.513 2.012,-2.513 1.1112,0 2.012,1.12511 2.012,2.513 z" cx="478.68" rx="2.012" cy="174.26" ry="2.513"/>
                                    <path id="path93178" d="M478.68,174.26"/>
                                   </g>
                                   <g id="g93180" fill="#FFF">
                                    <ellipse id="ellipse93182" d="m 479.50599,174.21001 c 0,0.81075 -0.52652,1.468 -1.176,1.468 -0.64949,0 -1.176,-0.65725 -1.176,-1.468 0,-0.81076 0.52651,-1.468 1.176,-1.468 0.64948,0 1.176,0.65724 1.176,1.468 z" cx="478.33" rx="1.176" cy="174.21" ry="1.468"/>
                                    <path id="path93184" d="M478.33,174.21"/>
                                   </g>
                                  </g>
                                  <g id="g93186">
                                   <g id="g93188">
                                    <ellipse id="ellipse93190" d="m 476.262,178.22 c 0,1.38789 -0.9008,2.513 -2.012,2.513 -1.1112,0 -2.012,-1.12511 -2.012,-2.513 0,-1.38789 0.9008,-2.513 2.012,-2.513 1.1112,0 2.012,1.12511 2.012,2.513 z" cx="474.25" rx="2.012" cy="178.22" ry="2.513"/>
                                    <path id="path93192" d="M474.25,178.22"/>
                                   </g>
                                   <g id="g93194" fill="#FFF">
                                    <ellipse id="ellipse93196" d="m 475.06601,178.16 c 0,0.81076 -0.52651,1.468 -1.176,1.468 -0.64948,0 -1.176,-0.65724 -1.176,-1.468 0,-0.81075 0.52652,-1.468 1.176,-1.468 0.64949,0 1.176,0.65725 1.176,1.468 z" cx="473.89" rx="1.176" cy="178.16" ry="1.468"/>
                                    <path id="path93198" d="M473.89,178.16"/>
                                   </g>
                                  </g>
                                  <g id="g93200">
                                   <g id="g93202">
                                    <ellipse id="ellipse93204" d="m 485.36201,178.22 c 0,1.38789 -0.90081,2.513 -2.012,2.513 -1.1112,0 -2.012,-1.12511 -2.012,-2.513 0,-1.38789 0.9008,-2.513 2.012,-2.513 1.11119,0 2.012,1.12511 2.012,2.513 z" cx="483.35" rx="2.012" cy="178.22" ry="2.513"/>
                                    <path id="path93206" d="M483.35,178.22"/>
                                   </g>
                                   <g id="g93208" fill="#FFF">
                                    <ellipse id="ellipse93210" d="m 484.176,178.16 c 0,0.81076 -0.52651,1.468 -1.176,1.468 -0.64949,0 -1.176,-0.65724 -1.176,-1.468 0,-0.81075 0.52651,-1.468 1.176,-1.468 0.64949,0 1.176,0.65725 1.176,1.468 z" cx="483" rx="1.176" cy="178.16" ry="1.468"/>
                                    <path id="path93212" d="M483,178.16"/>
                                   </g>
                                  </g>
                                  <g id="g93214">
                                   <g id="g93216">
                                    <ellipse id="ellipse93218" d="m 483.542,184.84 c 0,1.38789 -0.9008,2.513 -2.012,2.513 -1.1112,0 -2.012,-1.12511 -2.012,-2.513 0,-1.3879 0.9008,-2.513 2.012,-2.513 1.1112,0 2.012,1.1251 2.012,2.513 z" cx="481.53" rx="2.012" cy="184.84" ry="2.513"/>
                                    <path id="path93220" d="M481.53,184.84"/>
                                   </g>
                                   <g id="g93222" fill="#FFF">
                                    <ellipse id="ellipse93224" d="m 482.35599,184.78999 c 0,0.81131 -0.52651,1.469 -1.176,1.469 -0.64948,0 -1.176,-0.65769 -1.176,-1.469 0,-0.8113 0.52652,-1.469 1.176,-1.469 0.64949,0 1.176,0.6577 1.176,1.469 z" cx="481.18" rx="1.176" cy="184.79" ry="1.469"/>
                                    <path id="path93226" d="M481.18,184.79"/>
                                   </g>
                                  </g>
                                  <g id="g93228">
                                   <g id="g93230">
                                    <ellipse id="ellipse93232" d="m 477.68301,184.84 c 0,1.38789 -0.90125,2.513 -2.013,2.513 -1.11175,0 -2.013,-1.12511 -2.013,-2.513 0,-1.3879 0.90125,-2.513 2.013,-2.513 1.11175,0 2.013,1.1251 2.013,2.513 z" cx="475.67" rx="2.013" cy="184.84" ry="2.513"/>
                                    <path id="path93234" d="M475.67,184.84"/>
                                   </g>
                                   <g id="g93236" fill="#FFF">
                                    <ellipse id="ellipse93238" d="m 476.49601,184.78999 c 0,0.81131 -0.52652,1.469 -1.176,1.469 -0.64949,0 -1.176,-0.65769 -1.176,-1.469 0,-0.8113 0.52651,-1.469 1.176,-1.469 0.64948,0 1.176,0.6577 1.176,1.469 z" cx="475.32" rx="1.176" cy="184.79" ry="1.469"/>
                                    <path id="path93240" d="M475.32,184.79"/>
                                   </g>
                                  </g>
                                  <g id="g93242" stroke-width="0.5" stroke="#000">
                                   <path id="path93244" d="m471.47,195.08c-1.67-1.256-3.114-2.934-4.235-4.917,0.597-0.333,2.282,0.116,3.764,0.557,1.663,0.493,0.792,3.163,0.471,4.36z"/>
                                   <path id="path93246" d="m470.45,190.57s3.326,0.791,5.583,1.087c1.346,0.248-3.009,0.445-3.326,1.879" fill="none"/>
                                   <path id="path93248" d="m471.47,195.08s1.192,1.029,2.182,1.375" fill="none"/>
                                  </g>
                                  <g id="g93250" stroke-width="0.5" stroke="#000">
                                   <path id="path93252" d="m480.88,197.36c-1.926,0.379-3.896,0.252-5.775-0.367,0.285-0.734,1.808-1.743,3.169-2.595,1.53-0.957,2.237,1.788,2.606,2.962z"/>
                                   <path id="path93254" d="m477.77,194.73s2.955-2.064,4.837-3.648c1.158-0.891-2.076,2.756-1.581,4.109" fill="none"/>
                                   <path id="path93256" d="m480.88,197.36s1.443-0.169,2.379-0.698" fill="none"/>
                                  </g>
                                  <g id="g93258" stroke-width="0.5" stroke="#000">
                                   <path id="path93260" d="m489.25,191.56c-1.28,1.836-2.854,3.319-4.613,4.354-0.16-0.792,0.488-2.787,1.092-4.533,0.679-1.959,2.634-0.424,3.521,0.179z"/>
                                   <path id="path93262" d="m485.52,192.04s1.202-3.953,1.828-6.677c0.429-1.612-0.172,3.778,0.904,4.417" fill="none"/>
                                   <path id="path93264" d="m489.25,191.56s1.019-1.288,1.463-2.445" fill="none"/>
                                  </g>
                                  <g id="g93266" stroke-width="0.5" stroke="#000">
                                   <path id="path93268" d="m492.68,180.39c-0.036,2.434-0.478,4.834-1.292,7.038-0.529-0.478-1.061-2.526-1.496-4.349-0.489-2.045,1.799-2.438,2.788-2.689z"/>
                                   <path id="path93270" d="m490.07,183.76s-1.114-3.992-2.037-6.582c-0.501-1.579,1.813,3.032,2.966,2.657" fill="none"/>
                                   <path id="path93272" d="m492.68,180.39s0.118-1.804-0.138-3.047" fill="none"/>
                                  </g>
                                  <g id="g93274" stroke-width="0.5" stroke="#000">
                                   <path id="path93276" d="m489.56,169.08c1.226,1.893,2.122,4.087,2.633,6.429-0.652,0.059-2.113-1.083-3.385-2.13-1.427-1.175,0.123-3.312,0.752-4.299z"/>
                                   <path id="path93278" d="m489.29,173.76s-2.909-2.164-4.948-3.407c-1.197-0.807,2.949,0.867,3.64-0.345" fill="none"/>
                                   <path id="path93280" d="m489.56,169.08s-0.838-1.476-1.674-2.224" fill="none"/>
                                  </g>
                                  <g id="g93282" stroke-width="0.5" stroke="#000">
                                   <path id="path93284" d="m481.35,162.92c1.914,0.466,3.729,1.427,5.326,2.811-0.469,0.568-2.176,0.866-3.689,1.085-1.698,0.246-1.611-2.635-1.637-3.896z"/>
                                   <path id="path93286" d="m483.55,166.72s-3.342,0.677-5.544,1.362c-1.333,0.343,2.706-1.703,2.611-3.186" fill="none"/>
                                   <path id="path93288" d="m481.35,162.92s-1.402-0.458-2.427-0.36" fill="none"/>
                                  </g>
                                  <g id="g93290" stroke-width="0.5" stroke="#000">
                                   <path id="path93292" d="m471.89,164.8c1.706-1.179,3.591-1.9,5.527-2.122-0.067,0.812-1.221,2.41-2.268,3.792-1.174,1.553-2.59-0.724-3.259-1.67z"/>
                                   <path id="path93294" d="m475.53,165.94s-2.211,3.201-3.545,5.494c-0.844,1.333,1.196-3.477,0.36-4.536" fill="none"/>
                                   <path id="path93296" d="m471.89,164.8s-1.31,0.775-2.044,1.672" fill="none"/>
                                  </g>
                                  <g id="g93298" stroke-width="0.5" stroke="#000">
                                   <path id="path93300" d="m465.61,173.83c0.7-2.272,1.773-4.338,3.142-6.062,0.367,0.675,0.305,2.827,0.215,4.725-0.101,2.131-2.358,1.524-3.357,1.337z"/>
                                   <path id="path93302" d="m468.99,171.78s-0.046,4.227,0.112,7.054c0.039,1.698-0.874-3.624-2.059-3.764" fill="none"/>
                                   <path id="path93304" d="m465.61,173.83s-0.604,1.645-0.705,2.922" fill="none"/>
                                  </g>
                                  <g id="g93306" stroke-width="0.5" stroke="#000">
                                   <path id="path93308" d="m465.44,185.79c-0.633-2.302-0.875-4.746-0.713-7.165,0.628,0.223,1.688,1.92,2.597,3.447,1.019,1.714-1.022,3.06-1.884,3.718z"/>
                                   <path id="path93310" d="m466.98,181.51s2.141,3.275,3.717,5.314c0.904,1.27-2.534-2.074-3.515-1.23" fill="none"/>
                                   <path id="path93312" d="m465.44,185.79s0.384,1.745,0.964,2.805" fill="none"/>
                                  </g>
                                  <g id="g93314" stroke-width="2" stroke="#FFF" fill="none">
                                   <ellipse id="ellipse93316" d="m 498.996,179.85001 c 0,13.57681 -8.88088,24.583 -19.836,24.583 -10.95512,0 -19.836,-11.00619 -19.836,-24.583 0,-13.57682 8.88088,-24.583 19.836,-24.583 10.95512,0 19.836,11.00618 19.836,24.583 z" cx="479.16" rx="19.836" cy="179.85" ry="24.583"/>
                                   <path id="path93318" d="M479.16,179.85"/>
                                  </g>
                                  <path id="path93320" d="m30.97,186.62c-7.175-1.79-24.438-7.18-23.99-8.52s1.794-4.71,1.794-4.71c-4.708-1.12-6.054-4.03-7.399-9.19s-0.309-8.84,1.121-10.54c3.587-4.26,11.007-6.864,12.275-8.071,1.177-1.121,3.924-0.785,3.924-0.785-10.002-1.958-9.697-8.184-9.697-14.461s0.673-18.385,1.345-23.317c0.673-4.933,2.466-13.004,15.695-17.712,13.228-4.708,48.877-13.228,53.585-14.349s7.175-4.484,8.071-5.605c0.897-1.121,43.272-43.72,50.671-50.222,7.398-6.502,15.694-10.762,38.788-13.453s97.53-6.502,168.38-4.26c70.849,2.242,166.14,7.397,184.52,15.02,3.587,1.346,1.345,2.242,1.345,2.242,8.744,11.659,22.196,51.119,22.196,77.127s0.224,41.254-1.121,52.688c4.036,0,4.484,2.466,4.26,6.054-0.225,3.587-1.794,11.883-3.139,14.349s-6.951,3.139-7.847,2.242l-32.958,1.569c-1.793,0-5.157-5.829-5.157-5.829" stroke="#000" stroke-width="1.5" fill="none"/>
                                  <path id="path93322" d="m177.15,61.291,6.726-31.837c-3.363-0.673-43.271,0.112-43.271,0.112s-15.022,10.313-33.183,36.321c19.73-0.672,34.528-0.224,41.702,0.449,7.175,0.672,14.125-4.484,28.026-5.045z" fill="#FFF"/>
                                  <polygon id="polygon93324" points="199.8,29.79,198.68,56.471,217.51,30.014" fill="#FFF"/>
                                  <path id="path93326" d="m239.29,26.592-12.361,14.857c7.174,2.018,12.331-0.224,11.21,18.161,6.502,0.672,7.398,8.52,9.192,13.228,1.793,4.708,1.121,7.174-2.242,7.399l12.78-0.449s2.242-19.282,6.278-19.506c0,0-1.121-15.694,5.605-15.918s15.694,0.224,15.694,0.224-1.121-18.893-3.139-18.668l-43.017,0.672z" fill="#FFF"/>
                                  <polygon id="polygon93328" points="40.111,132.42,42.241,132.48,40.335,126.54,40.335,124.52,42.914,124.52,40.335,116.9,38.766,116.67,38.206,141,43.138,141,40.111,134.67" fill="#FFF"/>
                                  <polygon id="polygon93330" points="64.999,134.22,67.128,134.27,65.223,127.88,65.223,126.31,67.801,126.31,65.223,118.69,63.653,118.47,63.093,142.79,68.025,142.79,64.999,136.01" fill="#FFF"/>
                                  <path id="path93332" d="m10.011,109.39c5.605,1.569,59.639,6.278,99.1,5.83,12.78-0.224,13.901,2.466,12.78,9.192-1.121,6.727-2.242,15.022-15.022,15.022s-29.147-1.345-29.147-1.345" stroke="#000" stroke-width="1.5" fill="none"/>
                                  <path id="path93334" d="m83.103,114.99c-2.242,2.915-5.157,21.972-5.83,25.56-0.672,3.587-1.788,5.157-6.502,5.157-6.278,0-38.788-2.242-42.824-3.363s-5.157-6.502-5.381-8.072c0,0-11.883-0.897-13.677-3.363" stroke="#000" stroke-width="1.5" fill="none"/>
                                  <path id="path93336" d="m103.73,115.22c-2.915,2.69-1.569,22.869,0.448,24.438" fill="none" stroke="#000"/>
                                  <path id="path93338" d="m22.567,134.27c-2.466-9.865-4.26-21.524-2.69-23.318" fill="none" stroke="#000"/>
                                  <g id="g93340">
                                   <path id="path93342" d="m79.74,136.52c6.053,0.448,23.093,1.569,26.681,1.345s11.444-1.838,12.78-8.296c1.345-6.502,3.584-13.251-6.054-13.004-8.744,0.224-28.923,0-28.923,0-2.69,5.157-4.484,19.955-4.484,19.955z" fill="none" stroke="#000"/>
                                  </g>
                                  <path id="path93344" d="m9.955,110.9c2.018,0.448,6.334,1.065,9.473,1.289" fill="none" stroke="#000"/>
                                  <path id="path93346" d="m9.002,129.56c3.363,1.57,8.296,2.915,13.341,3.139" fill="none" stroke="#000"/>
                                  <g id="g93348">
                                   <path id="path93350" d="m113.85,135.96c2.5-1.246,4.701-3.243,5.353-6.391,1.345-6.502,3.584-13.251-6.054-13.004-0.672,4.091-0.167,16.313,0.701,19.395z" fill="#FFF" stroke="#000"/>
                                  </g>
                                  <g id="g93352">
                                   <ellipse id="ellipse93354" d="m 49.317998,102.04 c 0,2.45159 -1.135853,4.439 -2.537,4.439 -1.401146,0 -2.537,-1.98741 -2.537,-4.439 0,-2.451591 1.135854,-4.438999 2.537,-4.438999 1.401147,0 2.537,1.987408 2.537,4.438999 z" cx="46.781" cy="102.04" rx="2.537" transform="matrix(-0.0399,0.9992,-0.9992,-0.0399,150.6115,59.3745)" ry="4.439"/>
                                   <path id="path93356" d="M46.781,102.04"/>
                                  </g>
                                  <g id="g93358">
                                   <path id="path93360" d="m10.684,105.18c6.502,2.466,60.313,5.83,91.702,5.605s98.652-4.933,157.4-7.623c58.743-2.69,253.46-7.345,293.82-7.345" stroke="#000" stroke-width="0.5" fill="none"/>
                                  </g>
                                  <g id="g93362">
                                   <path id="path93364" d="M233.77,14.826c30.04-5.381,217.04-3.139,297.63,3.866" stroke="#000" stroke-linecap="round" stroke-width="1.5" fill="none"/>
                                  </g>
                                  <path id="path93366" d="M231.98,13.256c30.04-5.381,218.83-3.363,299.42,3.642" stroke="#000" stroke-width="0.5" fill="none"/>
                                  <path id="path93368" d="m239.26,14.153c-2.915,0.336-4.596,2.018-6.278,3.924s-17.68,24.379-23.654,32.51c-8.072,10.986-8.744,12.556-6.502,37.892,2.242,25.335,2.942,34.789,5.381,47.308,4.26,21.86,11.547,22.869,7.847,45.29" stroke="#000" stroke-width="0.5" fill="none"/>
                                  <g id="g93370">
                                   <line id="line93372" stroke-width="0.5" x1="207.26" x2="440.13" stroke="#000" y1="181.63" y2="173.2" fill="none"/>
                                  </g>
                                  <g id="g93374">
                                   <line id="line93376" stroke-width="0.5" x1="204.56" x2="437.43" stroke="#000" y1="186.36" y2="177.92" fill="none"/>
                                  </g>
                                  <path id="path93378" d="m291.3,178.43c10.125-4.894,9.281-9.45,10.462-35.606,1.182-26.156,2.363-46.069,0.169-68.344s-6.581-61.256-10.969-62.269" stroke="#000" stroke-width="0.5" fill="none"/>
                                  <g id="g93380">
                                   <path id="path93382" d="m10.684,101.81c6.502,2.466,60.313,5.829,91.702,5.605s98.652-4.933,157.4-7.623c58.743-2.69,253.46-7.345,293.82-7.345" stroke="#000" stroke-width="0.5" fill="none"/>
                                  </g>
                                  <path id="path93384" d="m70.403,182.81c-15.188-0.675-31.05-2.363-39.487-4.05-8.438-1.688-7.762,1.013-15.187-0.337,14.512,3.375,50.962,7.425,67.162,7.763-0.001-0.001-12.151-1.688-12.488-3.376z" stroke-width="0.5" stroke="#000"/>
                                  <g id="g93386">
                                   <path id="path93388" d="m0.879,160.54c6.75,2.362,79.66,12.357,127.24,9.723" stroke="#000" stroke-width="0.5" fill="none"/>
                                  </g>
                                  <g id="g93390">
                                   <path id="path93392" d="m0.879,162.9c6.75,2.363,79.66,12.357,127.24,9.723" stroke="#000" stroke-width="0.5" fill="none"/>
                                  </g>
                                  <path id="path93394" d="m70.403,182.81s24.975,1.688,36.112,0.675c11.138-1.013-5.063,4.388-8.1,4.725-3.038,0.337-13.163-2.7-24.3-2.7" stroke="#000" stroke-width="0.5" fill="none"/>
                                  <path id="path93396" d="m16.741,178.76c-3.038,0-6.412,0.338-6.412-1.35s-0.675-4.05,2.025-3.038,6.412,2.7,15.525,4.05" stroke="#000" stroke-width="0.5" fill="none"/>
                                  <path id="path93398" d="m127.44,152.44c5.4-14.512,13.837-22.949,36.787-22.949s31.387,3.375,36.45,10.799c5.063,7.425,13.837,5.738,13.837,5.738l228.15-6.75c7.087,0,9.788-0.675,13.5-5.737s12.487-7.763,24.975-7.763,23.625,3.038,26.662,7.087c3.038,4.05,5.737,3.712,5.737,3.712l39.487-1.35" stroke="#000" stroke-width="0.5" fill="none"/>
                                  <path id="path93400" d="m295.84,109.27-3.701,0.303s-2.194-0.168-2.194,2.025v8.944c0,2.7,1.012,3.038,1.856,3.038l4.894,0.168" stroke="#000" stroke-width="0.5" fill="none"/>
                                  <path id="path93402" d="m103.98,118.52c3.712,1.35,6.75,4.05,6.75,8.775s-2.363,8.1-5.738,8.775" stroke="#000" stroke-width="0.5" fill="none"/>
                                  <path id="path93404" d="m100.27,135.73c-5.738,0-18.563,0.675-17.55-4.05,1.012-4.725-1.688-7.087,11.812-6.413" stroke="#000" stroke-width="0.5" fill="none"/>
                                  <path id="path93406" d="m190.96,72.269c-1.817,2.477-6.014,6.315-8.985,7.827" stroke="#000" stroke-width="0.5" fill="none"/>
                                  <path id="path93408" d="m103.65,115.14c0.675-6.75,8.1-14.175,32.399-21.6,19.086-5.832,35.049-7.916,45.926-13.448l-16.91-1.402" stroke="#000" stroke-width="0.5" fill="none"/>
                                  <path id="path93410" d="m86.434,74.644s-24.637,5.737-48.937,13.162-24.637,14.85-25.312,21.6" stroke="#000" stroke-width="0.5" fill="none"/>
                                  <path id="path93412" d="m218.23,81.899c-3.442,0-3.206-3.206-3.206-6.244,0-3.037,1.181-5.231,2.531-6.412,1.35-1.182,4.699,1.072,2.362,1.688-3.206,0.844-4.725,8.943-2.362,9.45,3.267,0.7,6.918,1.518,0.675,1.518z" fill="#FFF"/>
                                  <path id="path93414" d="m222.95,60.3c-1.515,0.114-2.869,1.688-1.35,1.35s11.981-0.844,13.837-0.337c1.856,0.506,5.4,0.844,3.206-0.337-2.2-1.183-8.95-1.183-15.7-0.676z" fill="#FFF"/>
                                  <path id="path93416" d="m512.18,172.35c1.181-5.063,2.362-11.813,1.181-18.056s-3.038-13.331-6.244-14.681l46.237-1.012" stroke="#000" stroke-width="0.5" fill="none"/>
                                  <line id="line93418" stroke-width="0.5" x1="510.33" x2="552.85" stroke="#000" y1="142.99" y2="141.97" fill="none"/>
                                  <path id="path93420" d="m552.47,148.51c-4.178,0.048-4.853,0.892-4.009,4.604s-1.519,14.006-4.05,17.887" stroke="#000" stroke-width="0.5" fill="none"/>
                                  <path id="path93422" d="m548.13,158.85c1.181,1.013,8.1-0.169,8.1-0.169" stroke="#000" stroke-width="0.5" fill="none"/>
                                  <path id="path93424" d="m547.79,150.58s-14.343,1.35-26.156,2.362c-11.812,1.013-5.231,3.038,26.831,1.856" stroke="#000" stroke-width="0.5" fill="none"/>
                                  <path id="path93426" d="m204.39,161.04c47.25,0.675,214.65-4.05,244.35-6.75" stroke="#000" stroke-width="0.5" fill="none"/>
                                  <polygon id="polygon93428" points="51.434,133.43,53.564,133.49,51.658,126.87,51.658,125.53,54.236,125.53,51.658,117.91,50.089,117.68,49.528,142.01,54.461,142.01,51.434,135" fill="#FFF"/>
                                  <path id="path93430" d="m76.699,126.93c-7.287,0-46.635-2.803-48.99-3.251s-1.906,1.121,0.336,1.569c2.242,0.449,40.694,3.251,48.541,3.251,1.682,0.001,1.574-1.569,0.113-1.569z" stroke="#000" stroke-width="0.5" fill="#FFF"/>
                                  <path id="path93432" d="m75.141,134.78c-7.287,0-43.326-2.578-45.68-3.027-2.354-0.448-1.906,1.121,0.336,1.57,2.242,0.448,37.384,3.027,45.231,3.027,1.683,0,1.575-1.57,0.113-1.57z" stroke="#000" stroke-width="0.5" fill="#FFF"/>
                                 </g>
                                </g>
                               </g>
                              </g>
                             </g>
                            </g>
                           </g>
                          </g>
                         </g>
                        </g>
                       </g>
                      </g>
                     </g>
                    </g>
                   </g>
                  </g>
                 </g>
                </g>
               </g>
              </g>
             </g>
            </g>
           </g>
          </g>
         </g>
        </g>
       </g>
      </g>
     </g>
    </g>
   </g>
  </g>
 </g>
</svg>
