<?xml version="1.0" encoding="UTF-8" standalone="no"?>
<!-- Created with Inkscape (http://www.inkscape.org/) -->
<svg id="svg2" xmlns:rdf="http://www.w3.org/1999/02/22-rdf-syntax-ns#" xmlns="http://www.w3.org/2000/svg" height="45" width="67.5" version="1.1" xmlns:cc="http://creativecommons.org/ns#" xmlns:dc="http://purl.org/dc/elements/1.1/">
 <metadata id="metadata7">
  <rdf:RDF>
   <cc:Work rdf:about="">
    <dc:format>image/svg+xml</dc:format>
    <dc:type rdf:resource="http://purl.org/dc/dcmitype/StillImage"/>
    <dc:title/>
   </cc:Work>
  </rdf:RDF>
 </metadata>
 <g id="g73251">
  <rect id="rect2990" opacity="0" height="45" width="67.5" y="0" x="3.5527e-15"/>
  <g id="g72518" transform="matrix(.74998 0 0 .74998 -3.3738 2.2509)">
   <path id="path92968" fill="#fff" d="m8.5765 38.048c3.5949 0.82503 8.7836 1.2 12.487 1.1885v-0.000155c0.64445-0.0025 1.2446-0.01673 1.7847-0.04244 0.69447-1.4238 1.4932-2.9864 1.1806-3.3336 0.20831-0.31254 0.7987-1.7363 0.62509-2.535 1.1459-1.91 1.3542-3.0557 5.8338-3.2989 4.4795-0.243 5.0004 2.0489 5.695 3.7155 0.67217 1.6134 0.31254 3.6114 0.2777 4.0281-0.03469 0.41678-0.2777 0.52085-0.48616 0.62509-0.20831 0.10408-0.34724 0.45147-0.34724 0.45147l20.87-0.71182 15.678-0.67712 0.0051-0.08906 0.01224-0.46665c0.55555-1.0766 0.97232-2.0489 2.2572-4.8615 1.2847-2.8127 3.2294-2.6391 6.1463-2.5002 2.9168 0.13877 2.7432 2.9517 2.8127 3.9934 0.06938 1.0417-0.10408 1.9793-0.10408 1.9793-0.01301 0.01735-0.0271 0.03036-0.04213 0.03965l0.05157 0.09246c0.17687 0.26174 0.43614 0.59659 0.60526 0.59659l5.1045-0.243c0.13877 0.13892 1.007 0.03469 1.2153-0.34724 0.20831-0.38193 0.45147-1.6668 0.48616-2.2223 0.03469-0.55555-0.03485-0.93763-0.65978-0.93763 0.20831-1.771 0.17362-4.1321 0.17362-8.1602s-2.0834-10.14-3.4377-11.945c0 0 0.34724-0.13877-0.20831-0.34724-2.843-1.185-17.6-1.984-28.575-2.3312-10.973-0.3472-22.5 0.243-26.078 0.6602-3.5766 0.41678-4.8615 1.0766-6.0074 2.0836s-7.7089 7.6046-7.8478 7.7783c-0.13877 0.17362-0.52085 0.69447-1.25 0.86809-0.72916 0.17362-6.2504 1.4932-8.2991 2.2223-2.0487 0.72916-2.3266 1.9793-2.4308 2.7432-0.10423 0.76401-0.20831 2.6391-0.20831 3.6113 0 0.97217-0.047238 1.9366 1.5018 2.2397 0 0-0.42529-0.05204-0.60774 0.12158-0.19638 0.18709-1.3456 0.59039-1.9011 1.25-0.22148 0.26298-0.38193 0.8334-0.17362 1.6321s0.41662 1.25 1.1459 1.4236c0 0-0.20831 0.52085-0.27785 0.72916-0.057305 0.17191 1.7538 0.76959 3.013 1.1294"/>
   <path id="path92970" d="m8.9229 27.562 0.76386 3.5939 6.3546 0.46881s0.2952-2.5871 0.65978-3.6288c-2.014-0.01858-5.9032-0.19205-7.7783-0.43521z"/>
   <path id="path92972" d="m21.064 39.959v-0.72142 0.000154c-3.7037 0.01146-8.8925-0.3635-12.487-1.1885 0 1.1112 2.014 4.0976 3.3683 4.0976 0 0-4.0629 0.13892-4.4795 0.31254-0.41662 0.17362 5.3823 2.0487 18.404 2.0487 0 0 2.8474-0.06939 5.0698-0.13877 2.2223-0.06954 12.154-0.41662 13.821-0.41662 1.6668 0 4.167 0.48616 4.9308 0.41662 0.76401-0.06954-3.1253-0.55555-2.5696-0.55555s19.172-0.49716 24.238-0.69447c5.3476-0.20831 19.584-0.90294 20.766-0.97232 0.34724 0.20831 2.5696 0 2.3614-0.20831-0.20847-0.20831-11.754-1.3196-12.657-1.3889 0.7016-1.025 1.2327-3.4725 0.78136-4.9657 0 0 0.06938-0.20831 0.243-0.13892 0.17362 0.06954 0.34724 0.20846 0.45147 0.06954 0 0 0.17362-0.93763 0.10408-1.9793-0.06938-1.0419 0.10408-3.8546-2.8127-3.9934-2.917-0.13893-4.8616-0.31254-6.1463 2.5002-1.2849 2.8127-1.7015 3.7849-2.2572 4.8615l-0.01735 0.65978c0 1.0766 0.39943 2.2572 0.64243 2.778l-8.8895 0.20831s-0.41662 0.2777-0.69447 0.31254c1.1112-0.72916 2.2919-2.1183 2.2919-2.8127l1.9793 0.13892 0.10423 0.31254s0.10423 0.12158 0.65978 0.17362 1.6494 0.36458 2.2397-1.0417l1.6668-0.06954v-0.10408l-15.678 0.67712c0 0.74651 1.5279 2.6218 2.6738 2.6218l-24.308 0.7987c0.45147-0.52085 0.69447-1.91 0.69447-2.3613h0.76401c0.243 0 0.65978-0.27785 0.65978-0.27785l0.34724 0.41678h3.0557v-0.34724c0.45147 0 0.8334 0 1.1459 0.10408 0.31254 0.10423 1.3196 0.13892 1.5973 0.03469 0.2777-0.10408 0.72916-0.2777 1.0766-0.10408 0.34724 0.17362 1.3543-0.31254 1.3543-0.31254l11.185-0.34848v-0.20831l-21.113 0.69447s0.13892-0.34724 0.34724-0.45147c0.20831-0.10423 0.45147-0.20831 0.48616-0.62509 0.03469-0.41662 0.39432-2.4149-0.2777-4.0281-0.69447-1.6668-1.2153-3.9587-5.695-3.7155-4.4795 0.243-4.6878 1.3889-5.8338 3.2989 0.17362 0.7987-0.41662 2.2225-0.62509 2.535 0.31254 0.34724-0.48616 1.9098-1.1806 3.3336-0.54006 0.02571-1.1402 0.03996-1.7847 0.04244v0.7208c0.95838-0.0029 1.4394-0.20878 1.7151-0.2777 0.27785-0.06938 0.7987 0 0.7987 0s0.38193 2.3614 0.7987 2.3614l-7.7089 0.06938c0.62509 0 2.5002-1.6321 2.6738-2.5349 0.000154-0.000155 0.76169 0.37589 1.7227 0.38177z"/>
   <path id="path92974" d="m16.701 21.138c3.1947-0.06939 9.6534 0.38193 11.702 0.55555 2.0487 0.17362 4.0628 0.243 4.7225-0.2777 0 0-1.0764-0.59039-5.8685-0.76401-4.7919-0.17362-9.5838-0.03469-9.5838-0.03469s-0.31254 0.34724-0.97232 0.52085z"/>
   <path id="path92976" d="m17.951 20.478c3.4377-0.10423 11.563-0.243 14.897 0.62509 0.65978 0.243 1.0764-0.13893 1.5973-0.8334 0.52085-0.69447 2.9168-4.4447 5.7642-8.0908 0.31254-0.38193 0-0.69447-1.0417-0.76401-1.0419-0.06939-10.938-0.55555-12.744 0.72916-1.8057 1.2847-6.181 6.0074-8.4727 8.334z"/>
   <path id="path92978" d="m37.814 17.839c-0.7987 1.2849-0.76401 1.6321-0.76401 2.014v1.4236c0 1.0764 0.45147 1.2153 1.2847 1.2153 0.8334 0 10.626-0.31254 10.626-0.31254 0.76401 0 0.65978-0.52085 0.59039-1.2153l-0.62509-7.1533c-0.06954-1.0764-0.72916-1.6668-1.5626-1.6668-0.8334 0-3.0557 0.06939-4.2017 0.17362-1.1459 0.10423-1.3542 0.2777-1.9793 1.0417-0.62509 0.76401-3.3681 4.4797-3.3681 4.4797z"/>
   <path id="path92980" d="m51.46 13.498c0.65978 2.3613 1.1806 4.9308 1.3543 6.181 0.17362 1.2502 0.59039 2.2223 2.6391 2.2223s10.556-0.10423 11.876-0.10423c1.3196 0 1.007-1.0764 0.97232-1.5626-0.03469-0.48616-1.1459-6.5976-1.5279-7.3616-0.38193-0.76401-1.0766-0.62509-1.4932-0.62509l-12.397-0.06954c-1.8404-0.06939-1.4236 1.3197-1.4236 1.3197z"/>
   <path id="path92982" d="m68.301 13.29c0.29628 1.1848 1.3889 5.9725 1.4932 7.2227 0.10408 1.25 0.69447 1.1459 1.3889 1.1459 0.69447 0 13.612-0.243 14.584-0.243 0.97232 0 2.396 0.17362 1.6668-2.2572-0.72916-2.4307-1.5973-4.5489-2.014-5.3823-0.41678-0.8334-1.0764-0.86809-2.3613-0.93748-1.2847-0.06954-12.813-0.45147-13.855-0.45147-0.7987 0-1.1112 0.06954-0.90294 0.90278z"/>
   <path id="path92984" d="m90.317 24.141s-0.17362 0.19096-0.76401 0.19096c0 0 0 4.0976-0.03469 5.1045 0 0 0.67712 0.06939 0.67712-0.10423 0 0 0.08689-1.8925 0.12158-5.1912z"/>
   <path id="path92988" stroke-width=".077439" d="m50.588 28.638c0.06923 0 0.1253-0.05607 0.1253-0.12545v-1.9716c0-0.06923-0.05607-0.12545-0.1253-0.12545h-0.27011c-0.06923 0-0.12545 0.05606-0.12545 0.12545v1.9716c0 0.06923 0.05607 0.12545 0.12545 0.12545h0.27011z" stroke="#000"/>
   <path id="path92990" stroke-width=".077439" d="m50.453 27.527" stroke="#000"/>
   <ellipse id="ellipse92994" cy="29.68" cx="50.367" rx=".24548" ry=".29473"/>
   <path id="path92996" d="m50.367 29.68"/>
   <path id="path92998" d="m25.122 32.84s-1.0419 0.52085-7.0144 0.17362c-5.974-0.348-9.1508-0.504-10.713-1.095l-0.6081 0.121c1.2153 0.34724 1.8057 0.41662 1.7015 0.65978-0.10423 0.24316 7.6742 0.8334 7.7783 0.69447 0.10423-0.13892 0.13862-0.1349 0.55555-0.10423 3.2989 0.24316 6.9102 0.38193 8.0908 0.17362l0.20862-0.62493z"/>
   <ellipse id="ellipse93002" rx="3.0941" ry="3.6706" cy="38.414" cx="30.508" fill="#fff"/>
   <path id="path93004" fill="#fff" d="m30.508 38.414"/>
   <ellipse id="ellipse93008" rx="2.8465" ry="3.377" stroke="#000" cy="38.414" cx="30.508" stroke-width=".077439" fill="none"/>
   <path id="path93010" d="m30.508 38.414" stroke="#000" stroke-width=".077439" fill="none"/>
   <ellipse id="ellipse93016" cy="37.399" cx="30.508" rx=".36814" ry=".43676"/>
   <path id="path93018" d="m30.508 37.399"/>
   <ellipse id="ellipse93022" rx=".21513" ry=".25524" cy="37.39" cx="30.443" fill="#fff"/>
   <path id="path93024" fill="#fff" d="m30.443 37.39"/>
   <ellipse id="ellipse93030" cy="38.087" cx="29.697" rx=".36814" ry=".43691"/>
   <path id="path93032" d="m29.697 38.087"/>
   <ellipse id="ellipse93036" rx=".21513" ry=".25524" cy="38.078" cx="29.632" fill="#fff"/>
   <path id="path93038" fill="#fff" d="m29.632 38.078"/>
   <ellipse id="ellipse93044" cy="38.087" cx="31.363" rx=".36814" ry=".43691"/>
   <path id="path93046" d="m31.363 38.087"/>
   <ellipse id="ellipse93050" rx=".21513" ry=".25524" cy="38.078" cx="31.298" fill="#fff"/>
   <path id="path93052" fill="#fff" d="m31.298 38.078"/>
   <ellipse id="ellipse93058" cy="39.239" cx="31.03" rx=".36814" ry=".43691"/>
   <path id="path93060" d="m31.03 39.239"/>
   <ellipse id="ellipse93064" rx=".21513" ry=".25524" cy="39.23" cx="30.965" fill="#fff"/>
   <path id="path93066" fill="#fff" d="m30.965 39.23"/>
   <ellipse id="ellipse93072" cy="39.239" cx="29.958" rx=".36814" ry=".43691"/>
   <path id="path93074" d="m29.958 39.239"/>
   <ellipse id="ellipse93078" rx=".21513" ry=".25524" cy="39.23" cx="29.893" fill="#fff"/>
   <path id="path93080" fill="#fff" d="m29.893 39.23"/>
   <g id="g72180" stroke-width=".077439" stroke="#000">
    <path id="path93084" d="m29.189 41.019c-0.30557-0.21822-0.56964-0.51001-0.77485-0.85462 0.10919-0.05808 0.41755 0.02013 0.68874 0.09664 0.30434 0.08596 0.14497 0.55012 0.08611 0.75797z"/>
    <path id="path93086" fill="none" d="m29.001 40.235s0.60852 0.13753 1.0216 0.18911c0.24626 0.0429-0.55059 0.07744-0.60852 0.32648"/>
    <path id="path93088" fill="none" d="m29.189 41.019s0.21822 0.17888 0.39928 0.23898"/>
    <path id="path93092" d="m30.909 41.415c-0.35235 0.06582-0.71275 0.04383-1.0566-0.06381 0.05219-0.12762 0.33082-0.3031 0.58002-0.45116 0.27955-0.16618 0.40888 0.31084 0.47656 0.51497z"/>
    <path id="path93094" fill="none" d="m30.341 40.958s0.54068-0.3587 0.88482-0.63407c0.21203-0.15488-0.37976 0.47919-0.28916 0.7143"/>
    <path id="path93096" fill="none" d="m30.909 41.415s0.26407-0.02927 0.43536-0.12142"/>
    <path id="path93100" d="m32.443 40.407c-0.23433 0.3192-0.5224 0.57707-0.84408 0.75689-0.02912-0.13753 0.08921-0.4843 0.19995-0.78786 0.12406-0.34058 0.48167-0.07372 0.64414 0.03097z"/>
    <path id="path93102" fill="none" d="m31.76 40.489s0.21977-0.68719 0.33438-1.1605c0.07837-0.28033-0.03144 0.65668 0.16541 0.76773"/>
    <path id="path93104" fill="none" d="m32.443 40.407s0.18632-0.2238 0.26778-0.42498"/>
    <path id="path93108" d="m33.07 38.465c-0.0065 0.42313-0.08751 0.84021-0.2365 1.2234-0.09695-0.08317-0.19406-0.43908-0.27382-0.75596-0.08937-0.3556 0.32912-0.4239 0.51032-0.46742z"/>
    <path id="path93110" fill="none" d="m32.591 39.05s-0.20382-0.69401-0.37279-1.1441c-0.09169-0.27444 0.3319 0.52705 0.54269 0.46185"/>
    <path id="path93112" fill="none" d="m33.07 38.465s0.02137-0.31347-0.02524-0.52968"/>
    <path id="path93116" d="m32.5 36.5c0.22426 0.32912 0.38828 0.71027 0.48167 1.1174-0.11926 0.01022-0.38658-0.18833-0.61936-0.37031-0.26112-0.20413 0.02246-0.57568 0.13769-0.74713z"/>
    <path id="path93118" fill="none" d="m32.449 37.313s-0.53231-0.37604-0.90542-0.5921c-0.21915-0.14032 0.53959 0.1507 0.66597-0.05994"/>
    <path id="path93120" fill="none" d="m32.5 36.5s-0.15348-0.25663-0.30635-0.38658"/>
    <path id="path93124" d="m30.996 35.429c0.35002 0.081 0.68239 0.24811 0.97449 0.48864-0.0858 0.09881-0.39819 0.15054-0.67511 0.18864-0.31 0.043-0.294-0.458-0.299-0.677z"/>
    <path id="path93126" fill="none" d="m31.399 36.089s-0.61146 0.11771-1.0143 0.23681c-0.24393 0.05963 0.49499-0.29613 0.47764-0.55384"/>
    <path id="path93128" fill="none" d="m30.996 35.429s-0.25663-0.07961-0.44419-0.06257"/>
    <path id="path93132" d="m29.266 35.755c0.31208-0.2049 0.65715-0.33035 1.0114-0.36876-0.01224 0.14125-0.22349 0.4191-0.41492 0.65932-0.21482 0.26964-0.47393-0.12623-0.59643-0.29055z"/>
    <path id="path93134" fill="none" d="m29.932 35.954s-0.4047 0.55648-0.64878 0.95498c-0.15457 0.23154 0.21884-0.60433 0.06582-0.78848"/>
    <path id="path93136" fill="none" d="m29.266 35.755s-0.2396 0.13474-0.37403 0.2907"/>
    <path id="path93140" d="m28.115 37.323c0.12808-0.39494 0.32447-0.7541 0.57491-1.0536 0.06706 0.1174 0.05576 0.49143 0.03934 0.82147-0.01843 0.37031-0.43149 0.26484-0.61424 0.23216z"/>
    <path id="path93142" fill="none" d="m28.735 36.969s-0.0085 0.73489 0.02044 1.2262c0.0071 0.2952-0.15983-0.62973-0.37682-0.6542"/>
    <path id="path93144" fill="none" d="m28.115 37.323s-0.11058 0.2859-0.12901 0.508"/>
    <path id="path93148" d="m28.086 39.403c-0.116-0.4002-0.16014-0.82503-0.13056-1.2455 0.11508 0.03872 0.30898 0.33376 0.47516 0.59922 0.18663 0.29783-0.18694 0.53185-0.3446 0.6463z"/>
   </g>
   <g id="g72207" fill="none">
    <path id="path93150" stroke-width=".077439" d="m28.366 38.66s0.39169 0.56933 0.68007 0.92369c0.16541 0.2207-0.4637-0.36056-0.64321-0.21389" stroke="#000"/>
    <path id="path93152" stroke-width=".077439" d="m28.086 39.403s0.07016 0.30325 0.17641 0.48756" stroke="#000"/>
    <ellipse id="ellipse93156" rx="3.6294" ry="4.2731" stroke="#fff" cy="38.37" cx="30.595" stroke-width=".30976"/>
    <path id="path93158" stroke-width=".30976" d="m30.595 38.37" stroke="#fff"/>
   </g>
   <ellipse id="ellipse93162" rx="2.619" ry="3.2706" cy="37.384" cx="78.636" fill="#fff"/>
   <path id="path93164" fill="#fff" d="m78.636 37.384"/>
   <ellipse id="ellipse93168" rx="2.4094" ry="3.0088" stroke="#000" cy="37.384" cx="78.636" stroke-width=".077439" fill="none"/>
   <path id="path93170" d="m78.636 37.384" stroke="#000" stroke-width=".077439" fill="none"/>
   <ellipse id="ellipse93176" cy="36.481" cx="78.636" rx=".31161" ry=".38921"/>
   <path id="path93178" d="m78.636 36.481"/>
   <ellipse id="ellipse93182" rx=".18214" ry=".22736" cy="36.473" cx="78.582" fill="#fff"/>
   <path id="path93184" fill="#fff" d="m78.582 36.473"/>
   <ellipse id="ellipse93190" cy="37.094" cx="77.95" rx=".31161" ry=".38921"/>
   <path id="path93192" d="m77.95 37.094"/>
   <ellipse id="ellipse93196" rx=".18214" ry=".22736" cy="37.085" cx="77.895" fill="#fff"/>
   <path id="path93198" fill="#fff" d="m77.895 37.085"/>
   <ellipse id="ellipse93204" cy="37.094" cx="79.36" rx=".31161" ry=".38921"/>
   <path id="path93206" d="m79.36 37.094"/>
   <ellipse id="ellipse93210" rx=".18214" ry=".22736" cy="37.085" cx="79.306" fill="#fff"/>
   <path id="path93212" fill="#fff" d="m79.306 37.085"/>
   <ellipse id="ellipse93218" cy="38.12" cx="79.078" rx=".31161" ry=".38921"/>
   <path id="path93220" d="m79.078 38.12"/>
   <ellipse id="ellipse93224" rx=".18214" ry=".22752" cy="38.112" cx="79.024" fill="#fff"/>
   <path id="path93226" fill="#fff" d="m79.024 38.112"/>
   <ellipse id="ellipse93232" cy="38.12" cx="78.17" rx=".31177" ry=".38921"/>
   <path id="path93234" d="m78.17 38.12"/>
   <ellipse id="ellipse93238" rx=".18214" ry=".22752" cy="38.112" cx="78.116" fill="#fff"/>
   <path id="path93240" fill="#fff" d="m78.116 38.112"/>
   <g id="g72237" stroke-width=".077439" stroke="#000">
    <path id="path93244" d="m77.52 39.705c-0.25865-0.19453-0.48229-0.45441-0.65591-0.76153 0.09246-0.05157 0.35343 0.01797 0.58296 0.08627 0.25756 0.07635 0.12266 0.48988 0.07295 0.67527z"/>
    <path id="path93246" fill="none" d="m77.362 39.007s0.51512 0.12251 0.86468 0.16835c0.20846 0.03841-0.46603 0.06892-0.51512 0.29102"/>
    <path id="path93248" fill="none" d="m77.52 39.705s0.18461 0.15937 0.33794 0.21296"/>
    <path id="path93252" d="m78.977 40.059c-0.29829 0.0587-0.6034 0.03903-0.89442-0.05684 0.04414-0.11368 0.28002-0.26995 0.49081-0.40191 0.23696-0.14822 0.34646 0.27692 0.40361 0.45875z"/>
    <path id="path93254" fill="none" d="m78.496 39.651s0.45766-0.31967 0.74914-0.56499c0.17935-0.138-0.32153 0.42684-0.24486 0.63639"/>
    <path id="path93256" fill="none" d="m78.977 40.059s0.22349-0.02617 0.36845-0.1081"/>
    <path id="path93260" d="m80.274 39.16c-0.19824 0.28436-0.44202 0.51404-0.71445 0.67434-0.02478-0.12266 0.07558-0.43164 0.16913-0.70206 0.10516-0.3034 0.40795-0.06567 0.54532 0.02772z"/>
    <path id="path93262" fill="none" d="m79.696 39.235s0.18616-0.61223 0.28312-1.0341c0.06644-0.24966-0.02664 0.58513 0.14001 0.6841"/>
    <path id="path93264" fill="none" d="m80.274 39.16s0.15782-0.19948 0.22659-0.37868"/>
    <path id="path93268" d="m80.805 37.43c-0.0056 0.37697-0.07403 0.74868-0.2001 1.09-0.08193-0.07403-0.16433-0.39122-0.2317-0.67356-0.07574-0.31672 0.27862-0.37759 0.4318-0.41647z"/>
    <path id="path93270" fill="none" d="m80.401 37.952s-0.17253-0.61827-0.31549-1.0194c-0.07759-0.24455 0.28079 0.46959 0.45937 0.41151"/>
    <path id="path93272" fill="none" d="m80.805 37.43s0.01828-0.2794-0.02137-0.47191"/>
    <path id="path93276" d="m80.322 35.679c0.18988 0.29318 0.32865 0.63298 0.40779 0.99571-0.10098 0.0091-0.32726-0.16773-0.52426-0.32989-0.22101-0.18198 0.01905-0.51296 0.11647-0.66582z"/>
    <path id="path93278" fill="none" d="m80.28 36.403s-0.45054-0.33516-0.76634-0.52767c-0.18539-0.12499 0.45674 0.13428 0.56376-0.05343"/>
    <path id="path93280" fill="none" d="m80.322 35.679s-0.12979-0.2286-0.25926-0.34445"/>
    <path id="path93284" d="m79.05 34.725c0.29644 0.07217 0.57754 0.22101 0.82488 0.43536-0.07264 0.08797-0.33701 0.13412-0.57134 0.16804-0.263 0.038-0.25-0.408-0.254-0.603z"/>
    <path id="path93286" fill="none" d="m79.391 35.313s-0.5176 0.10485-0.85864 0.21094c-0.20645 0.05312 0.4191-0.26376 0.40438-0.49344"/>
    <path id="path93288" fill="none" d="m79.05 34.725s-0.21714-0.07093-0.37589-0.05575"/>
    <path id="path93292" d="m77.585 35.016c0.26422-0.1826 0.55616-0.29427 0.85601-0.32865-0.01038 0.12576-0.18911 0.37326-0.35126 0.5873-0.18183 0.24052-0.40113-0.11213-0.50475-0.25864z"/>
    <path id="path93294" fill="none" d="m78.149 35.192s-0.34243 0.49576-0.54904 0.8509c-0.13072 0.20645 0.18523-0.53851 0.05576-0.70252"/>
    <path id="path93296" fill="none" d="m77.585 35.016s-0.20289 0.12003-0.31657 0.25896"/>
    <path id="path93300" d="m76.612 36.414c0.10841-0.35188 0.2746-0.67186 0.48663-0.93887 0.05684 0.10454 0.04724 0.43784 0.0333 0.7318-0.01564 0.33004-0.3652 0.23603-0.51992 0.20707z"/>
    <path id="path93302" fill="none" d="m77.136 36.097s-0.0071 0.65467 0.01735 1.0925c0.006 0.26298-0.13536-0.56128-0.31889-0.58296"/>
    <path id="path93304" fill="none" d="m76.612 36.414s-0.09355 0.25477-0.10919 0.45255"/>
    <path id="path93308" d="m76.586 38.267c-0.09804-0.35653-0.13552-0.73505-0.11043-1.1097 0.09726 0.03454 0.26143 0.29736 0.40222 0.53386 0.15782 0.26546-0.15828 0.47392-0.29179 0.57584z"/>
   </g>
   <g id="g72264" fill="none">
    <path id="path93310" stroke-width=".077439" d="m76.824 37.604s0.33159 0.50722 0.57568 0.82302c0.14001 0.1967-0.39246-0.32122-0.5444-0.1905" stroke="#000"/>
    <path id="path93312" stroke-width=".077439" d="m76.586 38.267s0.05947 0.27026 0.1493 0.43443" stroke="#000"/>
    <ellipse id="ellipse93316" rx="3.0722" ry="3.8074" stroke="#fff" cy="37.347" cx="78.711" stroke-width=".30976"/>
    <path id="path93318" stroke-width=".30976" d="m78.711 37.347" stroke="#fff"/>
    <path id="path93320" stroke-width=".23232" d="m9.2962 38.395c-1.1113-0.277-3.7849-1.112-3.7155-1.319 0.0694-0.208 0.2778-0.73 0.2778-0.73-0.7291-0.173-0.9376-0.624-1.1459-1.423s-0.0479-1.369 0.1736-1.633c0.5556-0.659 1.7047-1.063 1.9011-1.25 0.1823-0.173 0.6078-0.121 0.6078-0.121-1.5491-0.303-1.5019-1.268-1.5019-2.24 0-0.97217 0.10423-2.8474 0.20831-3.6113 0.10423-0.76401 0.38193-2.014 2.4308-2.7432 2.0487-0.72916 7.57-2.0487 8.2991-2.2223 0.72916-0.17362 1.1112-0.69447 1.25-0.86809 0.13893-0.17362 6.7019-6.7713 7.8478-7.7783 1.1458-1.007 2.4306-1.6668 6.0074-2.0836 3.5767-0.41678 15.105-1.007 26.078-0.65978 10.973 0.34724 25.731 1.1456 28.578 2.3263 0.55555 0.20846 0.20831 0.34724 0.20831 0.34724 1.3542 1.8057 3.4377 7.9172 3.4377 11.945 0 4.0281 0.03469 6.3893-0.17362 8.1602 0.62509 0 0.69447 0.38193 0.65978 0.93763-0.03485 0.55555-0.27785 1.8404-0.48616 2.2223-0.20831 0.38193-1.0766 0.48616-1.2153 0.34724l-5.1045 0.243c-0.2777 0-0.7987-0.90278-0.7987-0.90278" stroke="#000"/>
   </g>
   <g id="g72271" fill="#fff">
    <path id="path93322" d="m31.936 18.985 1.0417-4.9308c-0.52085-0.10423-6.7017 0.01735-6.7017 0.01735s-2.3266 1.5973-5.1393 5.6253c3.0557-0.10408 5.3476-0.03469 6.4587 0.06954 1.1112 0.10408 2.1876-0.69447 4.3406-0.78136z"/>
    <polygon id="polygon93324" points="217.51 30.014 199.8 29.79 198.68 56.471" transform="matrix(.15488 0 0 .15488 4.4996 9.4919)"/>
    <path id="path93326" d="m41.56 13.61-1.9144 2.301c1.1111 0.31254 1.9098-0.03469 1.7362 2.8127 1.007 0.10408 1.1458 1.3196 1.4236 2.0487 0.2777 0.72916 0.17362 1.1111-0.34724 1.1459l1.9793-0.06954s0.34724-2.9864 0.97232-3.021c0 0-0.17362-2.4306 0.86809-2.4653 1.0417-0.03469 2.4306 0.03469 2.4306 0.03469s-0.17362-2.9261-0.48616-2.8913l-6.6624 0.10408z"/>
    <polygon id="polygon93328" points="40.111 132.42 42.241 132.48 40.335 126.54 40.335 124.52 42.914 124.52 40.335 116.9 38.766 116.67 38.206 141 43.138 141 40.111 134.67" transform="matrix(.15488 0 0 .15488 4.4996 9.4919)"/>
    <polygon id="polygon93330" points="64.999 134.22 67.128 134.27 65.223 127.88 65.223 126.31 67.801 126.31 65.223 118.69 63.653 118.47 63.093 142.79 68.025 142.79 64.999 136.01" transform="matrix(.15488 0 0 .15488 4.4996 9.4919)"/>
   </g>
   <g id="g72278" stroke="#000" fill="none">
    <path id="path93332" stroke-width=".23232" d="m6.0501 26.434c0.86809 0.243 9.2367 0.97232 15.348 0.90294 1.9793-0.03469 2.153 0.38193 1.9793 1.4236-0.17362 1.0419-0.34724 2.3266-2.3266 2.3266-1.9793 0-4.5142-0.20831-4.5142-0.20831"/>
    <path id="path93334" stroke-width=".23232" d="m17.37 27.301c-0.34724 0.45147-0.7987 3.403-0.90294 3.9587-0.10408 0.55555-0.27692 0.7987-1.007 0.7987-0.97232 0-6.0074-0.34724-6.6325-0.52085-0.6247-0.174-0.7983-1.007-0.833-1.25 0 0-1.8404-0.13892-2.1183-0.52085"/>
    <g id="g72282" stroke-width=".15488">
     <path id="path93336" d="m20.565 27.337c-0.45147 0.41662-0.243 3.5419 0.06939 3.7849"/>
     <path id="path93338" d="m7.9948 30.287c-0.382-1.528-0.6598-3.333-0.4167-3.611"/>
     <path id="path93342" d="m16.85 30.636c0.93748 0.06938 3.5766 0.243 4.1323 0.20831s1.7724-0.28466 1.9793-1.2849c0.20831-1.007 0.55508-2.0523-0.93763-2.014-1.3543 0.03469-4.4795 0-4.4795 0-0.41662 0.7987-0.69447 3.0906-0.69447 3.0906z"/>
     <path id="path93344" d="m6.0414 26.668c0.31254 0.06939 0.981 0.16494 1.4672 0.19964"/>
     <path id="path93346" d="m5.8938 29.558c0.52085 0.24316 1.2849 0.45147 2.0662 0.48616"/>
    </g>
   </g>
   <path id="path93350" d="m22.132 30.549c0.38719-0.19298 0.72808-0.50227 0.82906-0.98982 0.20831-1.007 0.55508-2.0523-0.93763-2.014-0.10408 0.6336-0.02586 2.5265 0.10857 3.0039z" stroke="#000" stroke-width=".15488" fill="#fff"/>
   <ellipse id="ellipse93354" rx=".39292" transform="matrix(-.0399 .9992 -.9992 -.0399 0 0)" ry=".6875" cy="-12.746" cx="24.808"/>
   <path id="path93356" d="m11.745 25.296"/>
   <g id="g72292" stroke="#000" fill="none">
    <path id="path93360" stroke-width=".077439" d="m6.1543 25.782c1.007 0.38193 9.3411 0.90294 14.203 0.86809 4.8615-0.03485 15.279-0.76401 24.378-1.1806 9.098-0.41662 39.255-1.1376 45.506-1.1376"/>
    <path id="path93364" stroke-width=".23232" stroke-linecap="round" d="m40.705 11.788c4.6525-0.8334 33.615-0.48616 46.096 0.59876"/>
    <g id="g72296" stroke-width=".077439">
     <path id="path93366" d="m40.428 11.545c4.6525-0.8334 33.892-0.52085 46.373 0.56406"/>
     <path id="path93368" d="m41.556 11.684c-0.45147 0.05204-0.71182 0.31254-0.97232 0.60774s-2.7382 3.7758-3.6635 5.0351c-1.2502 1.7015-1.3542 1.9446-1.007 5.8686 0.34724 3.9238 0.45565 5.388 0.8334 7.327 0.65978 3.3856 1.7884 3.5419 1.2153 7.0144"/>
     <line id="line93372" y1="37.622" x2="72.666" x1="36.6" y2="36.317"/>
     <line id="line93376" y1="38.355" x2="72.248" x1="36.181" y2="37.048"/>
     <path id="path93378" d="m49.615 37.127c1.5681-0.75797 1.4374-1.4636 1.6203-5.5146 0.18307-4.051 0.36598-7.1351 0.02618-10.585s-1.0192-9.4872-1.6989-9.6441"/>
     <path id="path93382" d="m6.1543 25.26c1.007 0.38193 9.3411 0.90278 14.203 0.86809 4.8615-0.03469 15.279-0.76401 24.378-1.1806 9.098-0.41662 39.255-1.1376 45.506-1.1376"/>
    </g>
   </g>
   <path id="path93384" stroke-width=".077439" d="m15.403 37.805c-2.352-0.104-4.808-0.366-6.1152-0.627-1.3068-0.262-1.2021 0.157-2.3521-0.052 2.2476 0.522 7.8933 1.15 10.402 1.202-0.001 0-1.882-0.261-1.935-0.523z" stroke="#000"/>
   <g id="g72305" stroke-width=".077439" stroke="#000" fill="none">
    <path id="path93388" d="m4.6358 34.356c1.0454 0.36582 12.338 1.9138 19.707 1.5059"/>
    <path id="path93392" d="m4.6358 34.722c1.0454 0.36598 12.338 1.9138 19.707 1.5059"/>
    <path id="path93394" d="m15.403 37.805s3.8681 0.26143 5.5929 0.10454c1.725-0.15689-0.78415 0.6796-1.2545 0.7318-0.47052 0.05219-2.0387-0.41817-3.7635-0.41817"/>
    <path id="path93396" d="m7.0924 37.178c-0.47052 0-0.99308 0.05235-0.99308-0.20908s-0.10454-0.62726 0.31363-0.47052 0.99308 0.41817 2.4045 0.62725"/>
    <path id="path93398" d="m24.237 33.101c0.83634-2.2476 2.143-3.5543 5.6975-3.5543 3.5544 0 4.8611 0.52271 5.6453 1.6725 0.78415 1.15 2.143 0.88869 2.143 0.88869l35.335-1.0454c1.0976 0 1.5159-0.10454 2.0908-0.88853 0.57491-0.78399 1.934-1.2023 3.8681-1.2023s3.659 0.47052 4.1293 1.0976c0.47052 0.62726 0.88853 0.57491 0.88853 0.57491l6.1157-0.20908"/>
    <path id="path93400" d="m50.319 26.415-0.5732 0.04693s-0.3398-0.02602-0.3398 0.31363v1.3852c0 0.41817 0.15674 0.47052 0.28745 0.47052l0.75797 0.02602"/>
    <path id="path93402" d="m20.604 27.848c0.57491 0.20908 1.0454 0.62726 1.0454 1.3591 0 0.7318-0.36598 1.2545-0.88869 1.3591"/>
    <path id="path93404" d="m20.029 30.513c-0.88869 0-2.875 0.10454-2.7181-0.62726 0.15674-0.7318-0.26143-1.0976 1.8294-0.99323"/>
    <path id="path93406" d="m34.075 20.685c-0.28141 0.38363-0.93143 0.97805-1.3916 1.2122"/>
    <path id="path93408" d="m20.553 27.325c0.10454-1.0454 1.2545-2.1954 5.0179-3.3454 2.956-0.90325 5.4283-1.226 7.1129-2.0828l-2.619-0.21714"/>
    <path id="path93410" d="m17.886 21.053s-3.8157 0.88853-7.5792 2.0385-3.8157 2.2999-3.9203 3.3454"/>
   </g>
   <path id="path93412" fill="#fff" d="m38.299 22.176c-0.53309 0-0.49654-0.49654-0.49654-0.96706 0-0.47036 0.18291-0.81016 0.392-0.99308 0.20908-0.18306 0.72777 0.16603 0.36582 0.26143-0.49654 0.13072-0.7318 1.3851-0.36582 1.4636 0.50599 0.10842 1.0714 0.2351 0.10454 0.2351z"/>
   <path id="path93414" fill="#fff" d="m39.03 18.831c-0.23464 0.01766-0.44434 0.26143-0.20908 0.20908s1.8556-0.13072 2.143-0.05219c0.28745 0.07837 0.83634 0.13072 0.49654-0.05219-0.34073-0.18322-1.3862-0.18322-2.4316-0.1047z"/>
   <g id="g72320" stroke-width=".077439" stroke="#000" fill="none">
    <path id="path93416" d="m83.825 36.185c0.18291-0.78415 0.36582-1.8296 0.18291-2.7965s-0.47052-2.0647-0.96706-2.2738l7.1611-0.15674"/>
    <line id="line93418" x2="90.124" y1="31.638" x1="83.538" y2="31.48"/>
    <path id="path93420" d="m90.065 32.493c-0.64708 0.0074-0.75162 0.13815-0.6209 0.71306s-0.23526 2.1692-0.62726 2.7703"/>
    <path id="path93422" d="m89.393 34.094c0.18291 0.15689 1.2545-0.02617 1.2545-0.02617"/>
    <path id="path93424" d="m89.34 32.813s-2.2214 0.20908-4.051 0.36582c-1.8294 0.15689-0.81017 0.47052 4.1555 0.28745"/>
    <path id="path93426" d="m36.155 34.433c7.318 0.10454 33.244-0.62725 37.844-1.0454"/>
   </g>
   <g id="g72328" fill="#fff">
    <polygon id="polygon93428" points="51.434 133.43 53.564 133.49 51.658 126.87 51.658 125.53 54.236 125.53 51.658 117.91 50.089 117.68 49.528 142.01 54.461 142.01 51.434 135" transform="matrix(.15488 0 0 .15488 4.4996 9.4919)"/>
    <path id="path93430" stroke-width=".077439" d="m16.379 29.151c-1.1286 0-7.2227-0.43412-7.5875-0.50351-0.36474-0.06939-0.2952 0.17362 0.052039 0.243 0.34724 0.06954 6.3026 0.50351 7.5179 0.50351 0.2605 0.000155 0.24378-0.243 0.0175-0.243z" stroke="#000"/>
    <path id="path93432" stroke-width=".077439" d="m16.137 30.366c-1.1286 0-6.7102-0.39928-7.0748-0.46882-0.36458-0.06939-0.2952 0.17362 0.052039 0.24316 0.34724 0.06939 5.7899 0.46882 7.0053 0.46882 0.26066 0 0.24393-0.24316 0.0175-0.24316z" stroke="#000"/>
   </g>
  </g>
 </g>
</svg>
