<?xml version="1.0" encoding="UTF-8" standalone="no"?>
<!-- Created with Inkscape (http://www.inkscape.org/) -->
<svg id="svg2" xmlns:rdf="http://www.w3.org/1999/02/22-rdf-syntax-ns#" xmlns="http://www.w3.org/2000/svg" height="54" width="99" version="1.1" xmlns:cc="http://creativecommons.org/ns#" xmlns:dc="http://purl.org/dc/elements/1.1/">
 <metadata id="metadata7">
  <rdf:RDF>
   <cc:Work rdf:about="">
    <dc:format>image/svg+xml</dc:format>
    <dc:type rdf:resource="http://purl.org/dc/dcmitype/StillImage"/>
    <dc:title/>
   </cc:Work>
  </rdf:RDF>
 </metadata>
 <g id="g3491">
  <g id="g3871">
   <g id="g4614">
    <g id="g5219">
     <g id="g5689">
      <g id="g6406">
       <g id="g7263">
        <g id="g8053">
         <g id="g8717">
          <g id="g9406">
           <g id="g9898">
            <g id="g10207">
             <g id="g10407">
              <g id="g10743">
               <g id="g11282">
                <g id="g15079">
                 <g id="g15585">
                  <g id="g16769">
                   <g id="g17492">
                    <g id="g17976">
                     <g id="g18386">
                      <g id="g19746">
                       <g id="g20846">
                        <g id="g21376">
                         <g id="g21705">
                          <g id="g22212">
                           <g id="g26871">
                            <g id="g28064">
                             <g id="g28748">
                              <g id="g29219">
                               <g id="g29819">
                                <g id="g30460">
                                 <rect id="rect2990" opacity="0" height="54" width="99" y="0" x="0"/>
                                 <g id="layer1" transform="translate(268.06997,8.0264461)">
                                  <g id="logo32" transform="matrix(0.14369426,0,0,0.14369426,-263.56984,1.1252412)">
                                   <g id="g92368">
                                    <path id="path92370" d="m559.41,201.26c0.862-2.006,1.8-4.519,2.1-6.543,0.6-4.05,1.2-12.3,5.7-20.7s6-24.9,5.85-31.8-1.8-7.5-3.6-9.3-3-3.15-4.35-2.85l-0.6-0.9c0.3-7.8-36.3-32.7-54.6-42.299-18.3-9.6-50.699-12.6-65.099-15s-24.593-8.848-24.593-8.848,1.793-1.352,5.693-2.552,11.1-1.8,15.6-2.4,8.4-1.2,8.7-7.5-6-10.5-9-11.1-11.4,0.6-12.6,2.4-2.7,3.6-7.2,5.4-13.8,3.9-13.8,3.9c-4.5-3.6-50.399-33.899-50.399-33.899s-12.9-8.1-30-12c-13.08-2.983-41.399-4.5-69.299-4.5-27.899,0-87.599,1.5-123.6,7.2-27.328,4.327-64.5,23.399-74.699,30-10.2,6.6-14.1,7.5-19.2,7.5s-26.4,0.9-29.4,1.5-5.1,0.6-5.7,3.6c0,0-5.1,30-3.6,34.799-1.8-0.6-1.2,14.1,2.7,20.7l7.225,13.998,0.061,0.056c-1.601-6.68-2.334-16.13,0.221-27.71,4.5-20.4,12-23.7,16.5-24s11.4,6.3,16.5,38.7,5.4,47.7,5.4,47.7c16.5,3,125.4,33.3,125.4,33.3-3.6-15.3-3.6-28.2-2.7-38.7,0,0,2.1-52.8,24.9-54.3s30.9,32.7,31.5,34.8,3.9,0.6,3.9,0.6l0.3,1.8c-3,0.3-3.3,2.7-2.1,6s6,44.1,7.5,45.6,2.1,26.1,2.1,26.1,44.4,3,66.6,4.2,34.2,1.8,40.8,3.6,44.4,0.6,71.4-0.6,108-4.8,139.2-15.6l0.291-0.36z" fill="#FFF"/>
                                   </g>
                                   <g id="g92372">
                                    <path id="path92374" d="m559.12,201.6c7.2,0.6,23.4,3,26.4,9.6,7.2,0.6,52.8,16.2,37.8,22.2s-187.2,13.2-217.8,14.4-49.2,2.4-146.4-14.4c0,0,16.8,0.6,28.2-4.8,0,0-46.21,1.86-74.399-3-34.8-6-15-7.2-15-7.2l-7.2-6s-103.2-27.6-119.4-30.6l25.2-3s-41.4,2.4-60.6-1.2-7.2-4.8-7.2-4.8-7.054-0.742-11.4-21.6c-1.5-7.2-1.5-21-1.5-21-2.7-3.6-8.4-17.4-3.9-37.8s12-23.7,16.5-24,11.4,6.3,16.5,38.7,5.4,47.7,5.4,47.7c16.5,3,125.4,33.3,125.4,33.3-3.6-15.3-3.6-28.2-2.7-38.7,0,0,2.1-52.8,24.9-54.3s30.9,32.7,31.5,34.8,3.9,0.6,3.9,0.6l0.3,1.8c-3,0.3-3.3,2.7-2.1,6s6,44.1,7.5,45.6,2.1,26.1,2.1,26.1,44.4,3,66.6,4.2,34.2,1.8,40.8,3.6,44.4,0.6,71.4-0.6c26.996-1.2,108-4.8,139.2-15.6z"/>
                                   </g>
                                   <path id="path92376" d="m404.92,157.2c13.483-0.674,89.399-4.8,103.8-6.3,14.4-1.5,12.9,3.9,11.7,8.1s-2.7,7.2-4.2,10.5-4.2,5.1-11.4,6.3-80.4,6.3-89.4,6-12.899-2.4-15-6.6c-2.1-4.2-3.3-6-4.5-9.3-1.199-3.299-2.999-8.1,9.001-8.7z"/>
                                   <path id="path92378" d="m366.22,189.9s-22.5,0.3-26.7,0.3c-11.1,0-11.1,5.1-4.8,9.3l25.5-0.3c4.2,0,11.4-9,6-9.3z"/>
                                   <path id="path92380" d="m529.72,180.9s13.257-1.751,18-2.7c4.5-0.9,3.9,3-2.4,7.2l-14.7,2.1c-4.2,0-6.3-6.3-0.9-6.6z"/>
                                   <path id="path92382" d="m299.62,79.801-9-3.9c-1.5-0.9,0.9-1.2,3.3-1.2,0,0,33-1.2,63.3-1.8s49.2-0.3,49.2-0.3c3,0.3,7.8,3.9,7.8,3.9,2.4,1.5-4.8,1.2-4.8,1.2l-104.1,3c-3.901,0-5.7-0.9-5.7-0.9z"/>
                                   <path id="path92384" d="m194.02,71.4c1.258,3.581,40.8-2.4,88.2-3.9s132.9-2.7,141-2.4c0,0,0-2.1-3-2.1-7.8-8.7-60-42.6-68.7-48.3s-31.5-5.4-31.5-5.4c-39.3-0.9-87.056-1.651-120,2.7-15.9,2.1-19.8,1.8-18.3,11.1,1.5,9.301,8.4,37.201,12.3,48.3z"/>
                                   <path id="path92386" d="m121.57,12.751c-6.45,5.1-24,25.65-31.35,39,13.5,10.95,65.85,25.8,96.45,24.3-4.2-12.45-8.1-36.9-10.2-51s-11.25-16.2-20.85-16.2-31.5,2.1-31.5,2.1c-3,0.15-2.55,1.8-2.55,1.8z"/>
                                   <path id="path92388" d="M102.71,107.68,65.022,93s-0.15,4.65,0,8.85l37.65,12.9,0.037-7.075z" stroke-width="0.5" stroke="#000"/>
                                   <path id="path92390" d="m102.67,116.3-37.5-12.8s0,6.75,0.6,8.85l36.9,11.85v-7.9z" stroke-width="0.5" stroke="#000"/>
                                   <path id="path92392" d="M102.71,125.4,65.772,113.85s0,5.4,0.6,7.2l36.3,11.55,0.037-7.2z" stroke-width="0.5" stroke="#000"/>
                                   <path id="path92394" d="m102.67,134.1-36-11.1s0.75,6.15,2.25,7.95l33.75,10.8v-7.65z" stroke-width="0.5" stroke="#000"/>
                                   <path id="path92396" d="m102.67,142.95-33.3-10.2s3.3,6.75,7.35,9,25.95,8.25,25.95,8.25v-7.05z" stroke-width="0.5" stroke="#000"/>
                                   <path id="path92398" d="m14.019,124.65-9.6-18.6c-3.9-6.6-4.5-21.3-2.7-20.7-1.5-4.8,3.6-34.799,3.6-34.799,0.6-3,2.7-3,5.7-3.6s24.3-1.5,29.4-1.5,9-0.9,19.2-7.5,47.372-25.673,74.699-30c36-5.7,95.699-7.2,123.6-7.2,27.9,0,56.219,1.517,69.299,4.5,17.1,3.9,30,12,30,12s45.899,30.3,50.399,33.899c0,0,9.3-2.1,13.8-3.9s6-3.6,7.2-5.4,9.6-3,12.6-2.4,9.3,4.8,9,11.1-4.2,6.9-8.7,7.5-11.7,1.2-15.6,2.4-5.693,2.551-5.693,2.551,10.193,6.449,24.593,8.849,46.799,5.4,65.099,15,54.899,34.5,54.6,42.299l0.6,0.9c1.35-0.3,2.55,1.05,4.35,2.85s3.45,2.4,3.6,9.3-1.35,23.399-5.85,31.799-5.1,16.65-5.7,20.7-3.75,10.05-3.75,10.05" stroke="#000" stroke-width="1.5" fill="none"/>
                                   <path id="path92400" d="m227.9,124.79c-4.895-4.736-10.708-7.48-16.943-7.48-17.434,0-31.567,21.452-31.567,47.914s14.133,47.914,31.567,47.914c12.626,0,23.522-11.253,28.57-27.512" fill="#FFF"/>
                                   <path id="path92402" d="M210.96,165.22" fill="#FFF"/>
                                   <path id="path92404" d="m231.32,133.04c-5.212-8.237-12.412-13.333-20.365-13.333-15.906,0-28.801,20.38-28.801,45.519s12.895,45.519,28.801,45.519c12.567,0,23.255-12.723,27.188-30.463" stroke="#000" stroke-width="0.5" fill="none"/>
                                   <path id="path92406" d="M210.96,165.22" stroke="#000" stroke-width="0.5" fill="none"/>
                                   <path id="path92408" d="m223.02,206.06c-0.693,0.088-1.395,0.133-2.103,0.133-6.1,0-11.708-3.331-16.136-8.905,3.979-6.751,7.168-9.541,7.168-9.541s1.794-2.79,3.587,0.997c1.794,3.787,7.573,10.961,11.559,14.15,0.001-0.001-2.57,2.545-4.075,3.166z"/>
                                   <path id="path92410" d="m207.04,130.62c-4.014,4.031-7.278,9.759-9.39,16.545,3.842,1.612,6.632,1.812,7.031-1.776,0.399-3.586,1.728-10.406,2.359-14.769z"/>
                                   <path id="path92412" d="m197.22,181.83c-1.426-5.077-2.219-10.696-2.219-16.609,4.497,3.886,4.526,7.409,2.219,16.609z"/>
                                   <g id="g92414" stroke-width="0.5" stroke="#000" fill="none">
                                    <ellipse id="ellipse92416" d="m 214.883,165.67 c 0,3.22368 -1.65341,5.837 -3.693,5.837 -2.03959,0 -3.693,-2.61332 -3.693,-5.837 0,-3.22369 1.65341,-5.837 3.693,-5.837 2.03959,0 3.693,2.61331 3.693,5.837 z" cx="211.19" rx="3.693" cy="165.67" ry="5.837"/>
                                    <path id="path92418" d="M211.19,165.67"/>
                                   </g>
                                   <g id="g92420" stroke-width="0.5" stroke="#000">
                                    <g id="g92422">
                                     <ellipse id="ellipse92424" d="m 213.475,154.67999 c 0,1.99486 -1.02303,3.612 -2.285,3.612 -1.26197,0 -2.285,-1.61714 -2.285,-3.612 0,-1.99485 1.02303,-3.612 2.285,-3.612 1.26197,0 2.285,1.61715 2.285,3.612 z" cx="211.19" rx="2.285" cy="154.68" ry="3.612"/>
                                     <path id="path92426" d="M211.19,154.68"/>
                                    </g>
                                    <g id="g92428" fill="#FFF">
                                     <ellipse id="ellipse92430" d="m 213.484,154.67999 c 0,1.49614 -0.76738,2.709 -1.714,2.709 -0.94661,0 -1.714,-1.21286 -1.714,-2.709 0,-1.49614 0.76739,-2.709 1.714,-2.709 0.94662,0 1.714,1.21286 1.714,2.709 z" cx="211.77" rx="1.714" cy="154.68" ry="2.709"/>
                                     <path id="path92432" d="M211.77,154.68"/>
                                    </g>
                                   </g>
                                   <g id="g92434" stroke-width="0.5" stroke="#000">
                                    <g id="g92436">
                                     <ellipse id="ellipse92438" d="m 220.655,162.25 c 0,1.99485 -1.02303,3.612 -2.285,3.612 -1.26198,0 -2.285,-1.61715 -2.285,-3.612 0,-1.99485 1.02302,-3.612 2.285,-3.612 1.26197,0 2.285,1.61715 2.285,3.612 z" cx="218.37" rx="2.285" cy="162.25" ry="3.612"/>
                                     <path id="path92440" d="M218.37,162.25"/>
                                    </g>
                                    <g id="g92442" fill="#FFF">
                                     <ellipse id="ellipse92444" d="m 220.654,162.25 c 0,1.49614 -0.76738,2.709 -1.714,2.709 -0.94661,0 -1.714,-1.21286 -1.714,-2.709 0,-1.49614 0.76739,-2.709 1.714,-2.709 0.94662,0 1.714,1.21286 1.714,2.709 z" cx="218.94" rx="1.714" cy="162.25" ry="2.709"/>
                                     <path id="path92446" d="M218.94,162.25"/>
                                    </g>
                                   </g>
                                   <g id="g92448" stroke-width="0.5" stroke="#000">
                                    <g id="g92450">
                                     <ellipse id="ellipse92452" d="m 217.665,174.00999 c 0,1.99486 -1.02302,3.612 -2.285,3.612 -1.26197,0 -2.285,-1.61714 -2.285,-3.612 0,-1.99485 1.02303,-3.612 2.285,-3.612 1.26198,0 2.285,1.61715 2.285,3.612 z" cx="215.38" rx="2.285" cy="174.01" ry="3.612"/>
                                     <path id="path92454" d="M215.38,174.01"/>
                                    </g>
                                    <g id="g92456" fill="#FFF">
                                     <ellipse id="ellipse92458" d="m 217.664,174.00999 c 0,1.49614 -0.76739,2.709 -1.714,2.709 -0.94662,0 -1.714,-1.21286 -1.714,-2.709 0,-1.49613 0.76738,-2.709 1.714,-2.709 0.94661,0 1.714,1.21287 1.714,2.709 z" cx="215.95" rx="1.714" cy="174.01" ry="2.709"/>
                                     <path id="path92460" d="M215.95,174.01"/>
                                    </g>
                                   </g>
                                   <g id="g92462" stroke-width="0.5" stroke="#000">
                                    <g id="g92464">
                                     <ellipse id="ellipse92466" d="m 209.095,173.61 c 0,1.99485 -1.02303,3.612 -2.285,3.612 -1.26197,0 -2.285,-1.61715 -2.285,-3.612 0,-1.99485 1.02303,-3.612 2.285,-3.612 1.26197,0 2.285,1.61715 2.285,3.612 z" cx="206.81" rx="2.285" cy="173.61" ry="3.612"/>
                                     <path id="path92468" d="M206.81,173.61"/>
                                    </g>
                                    <g id="g92470" fill="#FFF">
                                     <ellipse id="ellipse92472" d="m 209.094,173.61 c 0,1.49614 -0.76738,2.709 -1.714,2.709 -0.94661,0 -1.714,-1.21286 -1.714,-2.709 0,-1.49614 0.76739,-2.709 1.714,-2.709 0.94662,0 1.714,1.21286 1.714,2.709 z" cx="207.38" rx="1.714" cy="173.61" ry="2.709"/>
                                     <path id="path92474" d="M207.38,173.61"/>
                                    </g>
                                   </g>
                                   <g id="g92476" stroke-width="0.5" stroke="#000">
                                    <g id="g92478">
                                     <ellipse id="ellipse92480" d="m 206.905,162.05 c 0,1.99486 -1.02303,3.612 -2.285,3.612 -1.26198,0 -2.285,-1.61714 -2.285,-3.612 0,-1.99485 1.02302,-3.612 2.285,-3.612 1.26197,0 2.285,1.61715 2.285,3.612 z" cx="204.62" rx="2.285" cy="162.05" ry="3.612"/>
                                     <path id="path92482" d="M204.62,162.05"/>
                                    </g>
                                    <g id="g92484" fill="#FFF">
                                     <ellipse id="ellipse92486" d="m 206.904,162.05 c 0,1.49614 -0.76738,2.709 -1.714,2.709 -0.94661,0 -1.714,-1.21286 -1.714,-2.709 0,-1.49614 0.76739,-2.709 1.714,-2.709 0.94662,0 1.714,1.21286 1.714,2.709 z" cx="205.19" rx="1.714" cy="162.05" ry="2.709"/>
                                     <path id="path92488" d="M205.19,162.05"/>
                                    </g>
                                   </g>
                                   <path id="path92490" d="m229.25,129.84c-1.179-1.584-2.8-3.36-4.743-4.471-2.392,1.196-5.879,8.271-4.484,16.243s3.587,8.968,8.371,7.772c1.739-0.435,3.399-0.764,4.808-1.007"/>
                                   <path id="path92492" d="m235.56,165.41c-3.881,2.153-7.824,4.438-8.261,7.785-0.598,4.584,2.79,12.556,7.573,17.339,1.44-2.88,2.568-6.255,3.384-9.757"/>
                                   <path id="path92494" d="m230.88,197.91c-4.186-5.979-8.969-12.755-10.165-16.542-1.053-3.334-2.734-11.879,1.395-14.15,2.485-1.367,8.609-4.669,12.871-6.963" stroke="#000" stroke-width="1.5" fill="none"/>
                                   <path id="path92496" d="m233.64,152.38c-4.215,1.542-10.111,3.661-12.316,4.273-3.587,0.997-6.776-3.188-7.374-7.772s0.199-17.14,3.388-27.902" stroke="#000" stroke-width="1.5" fill="none"/>
                                   <path id="path92498" d="m206.17,132.74s1.196-7.772,3.787-12.955" stroke="#000" stroke-width="0.5" fill="none"/>
                                   <path id="path92500" d="m199,146.89s-4.385-1.993-6.377-2.989c-1.993-0.997-3.587,0.199-3.986,0.997-0.398,0.797-1.395,2.79-2.192,5.58s-2.392,4.783,1.196,7.175,8.57,9.566,8.57,9.566" stroke="#000" stroke-width="0.5" fill="none"/>
                                   <path id="path92502" d="m197.4,178.58s-1.993,12.157-2.591,14.349,0.199,2.392,1.793,4.185c1.594,1.794,2.989,2.791,4.783,2.192,1.793-0.598,4.584-2.392,4.584-2.392" stroke="#000" stroke-width="0.5" fill="none"/>
                                   <path id="path92504" d="m211.95,120.18s-3.986,14.548-4.185,20.328-1.395,13.353-4.185,14.947c-2.791,1.594-6.378-0.598-9.766-3.189-3.388-2.59-5.979-4.982-5.979-4.982" stroke="#000" stroke-width="1.5" fill="none"/>
                                   <path id="path92506" d="m186.24,152.07,10.961,10.563c3.587,3.986,6.776,9.566,3.787,16.741s-4.783,16.342-4.783,16.741" stroke="#000" stroke-width="1.5" fill="none"/>
                                   <path id="path92508" d="m198.8,198.71s3.431-10.654,5.182-14.35c1.793-3.787,7.374-6.975,9.566-2.79s10.563,16.741,14.549,20.129" stroke="#000" stroke-width="1.5" fill="none"/>
                                   <path id="path92510" d="m200.59,199.5s4.584-14.748,8.171-15.943,4.185,1.395,5.58,4.185" stroke="#000" stroke-width="0.5" fill="none"/>
                                   <path id="path92512" d="m188.63,144.9c5.581,5.182,9.965,8.769,12.755,7.374s2.192-6.776,2.192-6.776" stroke="#000" stroke-width="0.5" fill="none"/>
                                   <path id="path92514" d="m219.52,122.18s-5.979,26.905-1.993,30.293c2.703,2.297,10.904-0.445,15.904-2.449" stroke="#000" stroke-width="0.5" fill="none"/>
                                   <path id="path92516" d="m235.28,162.84-7.583,3.984s-5.979,3.388-5.979,5.979,1.196,8.171,2.591,10.363,7.773,12.556,7.773,12.556" stroke="#000" stroke-width="0.5" fill="none"/>
                                   <g id="g92518" fill="#FFF">
                                    <ellipse id="ellipse92520" d="m 42.891999,126.98 c 0,21.17018 -5.540028,38.332 -12.373999,38.332 -6.833972,0 -12.374,-17.16182 -12.374,-38.332 0,-21.17018 5.540028,-38.331997 12.374,-38.331997 6.833971,0 12.373999,17.161817 12.373999,38.331997 z" cx="30.518" rx="12.374" cy="126.98" ry="38.332"/>
                                    <path id="path92522" d="M30.518,126.98"/>
                                   </g>
                                   <g id="g92524" stroke-width="0.5" stroke="#000" fill="none">
                                    <ellipse id="ellipse92526" d="m 41.808,126.98 c 0,20.11145 -5.054706,36.415 -11.29,36.415 -6.235295,0 -11.29,-16.30355 -11.29,-36.415 0,-20.11145 5.054705,-36.414998 11.29,-36.414998 6.235294,0 11.29,16.303548 11.29,36.414998 z" cx="30.518" rx="11.29" cy="126.98" ry="36.415"/>
                                    <path id="path92528" d="M30.518,126.98"/>
                                   </g>
                                   <path id="path92530" d="m35.248,159.64c-0.272,0.07-0.547,0.106-0.824,0.106-2.391,0-4.59-2.665-6.325-7.124,1.56-5.401,2.81-7.633,2.81-7.633s0.703-2.232,1.406,0.797,2.969,8.769,4.531,11.32c0,0.001-1.008,2.038-1.598,2.534z"/>
                                   <path id="path92532" d="m28.981,99.295c-1.573,3.225-2.853,7.808-3.681,13.236,1.506,1.29,2.6,1.449,2.756-1.421,0.157-2.869,0.678-8.324,0.925-11.815z"/>
                                   <path id="path92534" d="m25.133,140.26c-0.559-4.061-0.87-8.557-0.87-13.287,1.763,3.109,1.774,5.927,0.87,13.287z"/>
                                   <g id="g92536" stroke-width="0.5" stroke="#000" fill="none">
                                    <ellipse id="ellipse92538" d="m 32.059,127.33 c 0,2.57917 -0.648292,4.67 -1.448,4.67 -0.799708,0 -1.448,-2.09083 -1.448,-4.67 0,-2.57917 0.648292,-4.67 1.448,-4.67 0.799708,0 1.448,2.09083 1.448,4.67 z" cx="30.611" rx="1.448" cy="127.33" ry="4.67"/>
                                    <path id="path92540" d="M30.611,127.33"/>
                                   </g>
                                   <g id="g92542" stroke-width="0.5" stroke="#000">
                                    <g id="g92544">
                                     <ellipse id="ellipse92546" d="m 31.507,118.54 c 0,1.5961 -0.401153,2.89 -0.896,2.89 -0.494847,0 -0.896,-1.2939 -0.896,-2.89 0,-1.5961 0.401153,-2.89 0.896,-2.89 0.494847,0 0.896,1.2939 0.896,2.89 z" cx="30.611" rx="0.896" cy="118.54" ry="2.89"/>
                                     <path id="path92548" d="M30.611,118.54"/>
                                    </g>
                                    <g id="g92550" fill="#FFF">
                                     <ellipse id="ellipse92552" d="m 31.506999,118.54 c 0,1.1968 -0.300865,2.167 -0.672,2.167 -0.371135,0 -0.672,-0.9702 -0.672,-2.167 0,-1.1968 0.300865,-2.167 0.672,-2.167 0.371135,0 0.672,0.9702 0.672,2.167 z" cx="30.835" rx="0.672" cy="118.54" ry="2.167"/>
                                     <path id="path92554" d="M30.835,118.54"/>
                                    </g>
                                   </g>
                                   <g id="g92556" stroke-width="0.5" stroke="#000">
                                    <g id="g92558">
                                     <ellipse id="ellipse92560" d="m 34.32,124.59 c 0,1.5961 -0.401153,2.89 -0.896,2.89 -0.494847,0 -0.896,-1.2939 -0.896,-2.89 0,-1.59611 0.401153,-2.89 0.896,-2.89 0.494847,0 0.896,1.29389 0.896,2.89 z" cx="33.424" rx="0.896" cy="124.59" ry="2.89"/>
                                     <path id="path92562" d="M33.424,124.59"/>
                                    </g>
                                    <g id="g92564" fill="#FFF">
                                     <ellipse id="ellipse92566" d="m 34.319999,124.59 c 0,1.1968 -0.300865,2.167 -0.672,2.167 -0.371136,0 -0.672,-0.9702 -0.672,-2.167 0,-1.1968 0.300864,-2.167 0.672,-2.167 0.371135,0 0.672,0.9702 0.672,2.167 z" cx="33.648" rx="0.672" cy="124.59" ry="2.167"/>
                                     <path id="path92568" d="M33.648,124.59"/>
                                    </g>
                                   </g>
                                   <g id="g92570" stroke-width="0.5" stroke="#000">
                                    <g id="g92572">
                                     <ellipse id="ellipse92574" d="m 33.147999,134 c 0,1.5961 -0.401153,2.89 -0.896,2.89 -0.494847,0 -0.896,-1.2939 -0.896,-2.89 0,-1.5961 0.401153,-2.89 0.896,-2.89 0.494847,0 0.896,1.2939 0.896,2.89 z" cx="32.252" rx="0.896" cy="134" ry="2.89"/>
                                     <path id="path92576" d="M32.252,134"/>
                                    </g>
                                    <g id="g92578" fill="#FFF">
                                     <ellipse id="ellipse92580" d="m 33.148002,134 c 0,1.1968 -0.300865,2.167 -0.672,2.167 -0.371136,0 -0.672,-0.9702 -0.672,-2.167 0,-1.1968 0.300864,-2.167 0.672,-2.167 0.371135,0 0.672,0.9702 0.672,2.167 z" cx="32.476" rx="0.672" cy="134" ry="2.167"/>
                                     <path id="path92582" d="M32.476,134"/>
                                    </g>
                                   </g>
                                   <g id="g92584" stroke-width="0.5" stroke="#000">
                                    <g id="g92586">
                                     <ellipse id="ellipse92588" d="m 29.789,133.67999 c 0,1.59555 -0.401153,2.889 -0.896,2.889 -0.494848,0 -0.896,-1.29345 -0.896,-2.889 0,-1.59555 0.401152,-2.889 0.896,-2.889 0.494847,0 0.896,1.29345 0.896,2.889 z" cx="28.893" rx="0.896" cy="133.68" ry="2.889"/>
                                     <path id="path92590" d="M28.893,133.68"/>
                                    </g>
                                    <g id="g92592" fill="#FFF">
                                     <ellipse id="ellipse92594" d="m 29.789001,133.67999 c 0,1.1968 -0.300865,2.167 -0.672,2.167 -0.371136,0 -0.672,-0.9702 -0.672,-2.167 0,-1.1968 0.300864,-2.167 0.672,-2.167 0.371135,0 0.672,0.9702 0.672,2.167 z" cx="29.117" rx="0.672" cy="133.68" ry="2.167"/>
                                     <path id="path92596" d="M29.117,133.68"/>
                                    </g>
                                   </g>
                                   <g id="g92598" stroke-width="0.5" stroke="#000">
                                    <g id="g92600">
                                     <ellipse id="ellipse92602" d="m 28.929001,124.43 c 0,1.59555 -0.401153,2.889 -0.896,2.889 -0.494847,0 -0.896,-1.29345 -0.896,-2.889 0,-1.59555 0.401153,-2.889 0.896,-2.889 0.494847,0 0.896,1.29345 0.896,2.889 z" cx="28.033" rx="0.896" cy="124.43" ry="2.889"/>
                                     <path id="path92604" d="M28.033,124.44"/>
                                    </g>
                                    <g id="g92606" fill="#FFF">
                                     <ellipse id="ellipse92608" d="m 28.929,124.43 c 0,1.1968 -0.300865,2.167 -0.672,2.167 -0.371135,0 -0.672,-0.9702 -0.672,-2.167 0,-1.1968 0.300865,-2.167 0.672,-2.167 0.371135,0 0.672,0.9702 0.672,2.167 z" cx="28.257" rx="0.672" cy="124.43" ry="2.167"/>
                                     <path id="path92610" d="M28.257,124.44"/>
                                    </g>
                                   </g>
                                   <path id="path92612" d="m35.83,95.087c-0.938,0.957-2.305,6.617-1.758,12.994s1.406,7.175,3.281,6.218,3.515-1.275,3.515-1.275l-1.016-6.537-1.328-5.102c0.002,0-1.053-4.385-2.694-6.298z"/>
                                   <path id="path92614" d="m41.768,125.22c-1.797,2.392-4.609,4.464-4.844,8.131-0.234,3.667,1.094,10.044,2.969,13.871,1.562-6.377,2.187-15.784,1.875-22.002z"/>
                                   <path id="path92616" d="m38.33,153.12c-1.641-4.783-3.516-10.204-3.984-13.233-0.413-2.667-1.072-9.503,0.547-11.32,1.562-1.754,6.797-7.494,6.797-7.494" stroke="#000" stroke-width="0.5" fill="none"/>
                                   <path id="path92618" d="m41.221,115.34s-5.234,3.986-6.64,4.783-2.656-2.551-2.891-6.218c-0.234-3.667,0.078-13.712,1.328-22.322" stroke="#000" stroke-width="0.5" fill="none"/>
                                   <path id="path92620" d="m28.643,100.99s0.469-6.218,1.484-10.364" stroke="#000" stroke-width="0.5" fill="none"/>
                                   <path id="path92622" d="m25.83,112.31s-1.719-1.594-2.5-2.392c-0.781-0.797-1.406,0.16-1.563,0.797s-0.547,2.232-0.859,4.464c-0.313,2.232-0.938,3.826,0.469,5.74,1.406,1.913,3.359,7.653,3.359,7.653" stroke="#000" stroke-width="0.5" fill="none"/>
                                   <path id="path92624" d="m25.205,137.66s-0.781,9.726-1.016,11.479c-0.234,1.754,0.078,1.914,0.703,3.349s1.172,2.232,1.875,1.753c0.703-0.478,1.797-1.913,1.797-1.913" stroke="#000" stroke-width="0.5" fill="none"/>
                                   <path id="path92626" d="m30.908,90.942s-1.563,11.639-1.641,16.263-0.547,10.683-1.641,11.958-2.5-0.479-3.828-2.551-2.344-3.986-2.344-3.986" stroke="#000" stroke-width="0.5" fill="none"/>
                                   <path id="path92628" d="m20.83,116.45,4.297,8.45c1.406,3.189,2.656,7.653,1.484,13.393s-1.875,13.074-1.875,13.393" stroke="#000" stroke-width="0.5" fill="none"/>
                                   <path id="path92630" d="m25.752,153.76s1.345-8.523,2.031-11.479c0.703-3.029,2.89-5.581,3.75-2.232,0.859,3.348,4.14,13.393,5.703,16.104" stroke="#000" stroke-width="0.5" fill="none"/>
                                   <path id="path92632" d="m26.455,154.4s1.797-11.798,3.203-12.755,1.64,1.116,2.188,3.348" stroke="#000" stroke-width="0.5" fill="none"/>
                                   <path id="path92634" d="m21.768,110.71c2.188,4.146,3.906,7.015,5,5.899s0.859-5.421,0.859-5.421" stroke="#000" stroke-width="0.5" fill="none"/>
                                   <path id="path92636" d="m33.877,92.537s-2.344,21.524-0.781,24.234,7.812-3.348,7.812-3.348" stroke="#000" stroke-width="0.5" fill="none"/>
                                   <path id="path92638" d="m41.689,123.31-4.609,4.942s-2.344,2.71-2.344,4.783,0.469,6.537,1.016,8.291,3.047,10.045,3.047,10.045" stroke="#000" stroke-width="0.5" fill="none"/>
                                   <path id="path92640" d="m226.15,121.78c1.069,3.173,2.464,7.628,2.605,8.123,0.6,2.1,3.9,0.6,3.9,0.6l0.3,1.8c-3,0.3-3.3,2.7-2.1,6s6,44.1,7.5,45.6c0.188,0.188,1.204,3.854,1.191,7.414" fill="none" stroke="#000"/>
                                   <g id="g92642">
                                    <path id="path92644" d="m389.02,183c3.9,0,7.2-0.6,5.1-6s-6-14.7-6-14.7c-2.1-4.2-9-4.8-15.3-4.8s-35.4,1.2-40.8,1.5-9.3,0.601-7.5,8.7c1.8,8.1,2.1,13.5,13.2,14.7s51.3,0.6,51.3,0.6z" stroke="#000" stroke-width="0.5" fill="none"/>
                                   </g>
                                   <g id="g92646">
                                    <path id="path92648" d="m385.93,180.86c3.51,0,6.48-0.488,4.59-4.881s-5.4-11.958-5.4-11.958c-1.89-3.417-8.1-3.905-13.77-3.905s-31.86,0.976-36.72,1.22-8.37,0.488-6.75,7.078c1.62,6.589,1.89,10.982,11.88,11.958s46.17,0.488,46.17,0.488z" fill="#FFF" stroke="#000"/>
                                   </g>
                                   <g id="g92650">
                                    <path id="path92652" d="m534.82,149.85c-4.5,0.6-6.6,1.05-8.1,5.25s-2.7,9.149-3.9,13.35c-1.2,4.2,1.35,4.8,5.4,4.65s27.9-4.05,32.1-4.8,4.8-2.85,5.25-4.65,1.65-8.4,1.8-11.55-0.45-4.8-9.15-4.2-23.4,1.95-23.4,1.95z" stroke="#000" stroke-width="0.5" fill="none"/>
                                   </g>
                                   <g id="g92654">
                                    <path id="path92656" d="m535.89,151.43c-4.05,0.508-5.94,0.889-7.29,4.445-1.35,3.557-2.43,7.749-3.51,11.305s1.215,4.064,4.86,3.938,25.11-3.43,28.89-4.065,4.32-2.413,4.725-3.938c0.405-1.524,1.485-7.113,1.62-9.78s-0.405-4.065-8.235-3.557-21.06,1.652-21.06,1.652z" fill="#FFF" stroke="#000"/>
                                   </g>
                                   <path id="path92658" d="m171.67,66.901c2.25-0.15,4.65-9.45,2.4-9.9s-11.85-3-15-5.55-10.35-8.55-19.35-8.4-17.4-0.45-17.4,8.4,2.4,11.55,8.25,11.7,24.15-0.45,28.95,0.75,12.15,3,12.15,3z" fill="#FFF"/>
                                   <path id="path92660" d="m156.52,58.051v-2.55c0-1.35,11.7,2.7,11.25,4.05s-0.3,1.5-0.6,2.25-10.65-2.85-10.65-3.75z"/>
                                   <path id="path92662" d="m121.87,16.201c-5.85,4.5-22.5,25.8-24.75,33.3,0,0,6.45,4.65,16.8,8.25l3.6-9.6s-11.4,2.25-18,1.2l-0.15-0.75s7.2,1.65,10.5-1.05,23.25-28.05,27-32.85c0,0-9.9,0.3-15,1.5z" fill="#FFF"/>
                                   <path id="path92664" d="m173.47,21.751,1.8,12.15s-7.8-0.3-12-0.15-6.3,4.35-6.3,4.35l-22.8,0.9,6.75-9.45c9.15-9.9,10.05-11.4,32.55-7.8z" fill="#FFF"/>
                                   <path id="path92666" d="m187.42,37.5s11.1-0.9,18,0c6-7.2,30-19.2,40.2-21.6,0,0-48,1.2-61.5,3-0.9,3,0.9,8.4,0.9,8.4l2.4,10.2z" fill="#FFF"/>
                                   <path id="path92668" d="m396.22,60.301s-36.6-31.5-51.3-37.8-27.3-8.4-48.6-7.8l36,38.1c10.5,0,15-0.3,19.5,3.9l44.4,3.6z" fill="#FFF"/>
                                   <path id="path92670" d="m283.72,15.301,28.5,31.8-9.6,0.3-15.9-19.2s-0.6-3.9-6.9-3.9l-6.6-9h10.5z" fill="#FFF"/>
                                   <path id="path92672" d="m413.34,54.018s1.096,2.989,4.584,2.092,10.363-3.089,10.363-3.089-2.69-1.495-2.092-2.69l-12.855,3.687z" stroke="#000" stroke-width="1.5" fill="none"/>
                                   <path id="path92674" d="m48.03,145.79c9.965,1.196,23.517,5.979,23.517,5.979l104.43,26.706" stroke="#000" stroke-width="0.5" fill="none"/>
                                   <path id="path92676" d="m169.6,176.48c1.594,10.762-2.392-51.418-2.392-58.593s2.392-2.79,3.587-11.161,9.566-30.692,13.951-31.489" stroke="#000" stroke-width="0.5" fill="none"/>
                                   <path id="path92678" d="m115.39,62.487c-3.587,1.196-7.972,5.979-8.371,11.958s-7.573,7.175-11.958,9.167c-4.384,1.993-12.191-7.854-8.972,71.747" stroke="#000" stroke-width="0.5" fill="none"/>
                                   <path id="path92680" d="m102.71,107.68,50.749,16.196c10.563,3.188,24.713,5.779,24.713,5.779" stroke="#000" stroke-width="0.5" fill="none"/>
                                   <path id="path92682" d="m102.67,114.75,46.388,14.509c2.625,0.875,1.5,1.688-0.375,1.188l-46.01-14.15" stroke="#000" stroke-width="0.5" fill="none"/>
                                   <path id="path92684" d="m102.67,124.2,46.388,14.059c2.625,0.875,1.5,1.688-0.375,1.188l-46.01-14.05" stroke="#000" stroke-width="0.5" fill="none"/>
                                   <path id="path92686" d="m102.67,132.6,46.388,14.221c2.625,0.875,1.5,1.688-0.375,1.188l-46.01-13.91" stroke="#000" stroke-width="0.5" fill="none"/>
                                   <path id="path92688" d="m102.67,141.75,46.388,14.071c2.625,0.875,1.5,1.438-0.375,0.938l-46.01-13.81" stroke="#000" stroke-width="0.5" fill="none"/>
                                   <path id="path92690" d="m102.67,150,46.388,13.696c13.813,4.063,22.063,5.813,26.063,6.063" stroke="#000" stroke-width="0.5" fill="none"/>
                                   <path id="path92692" d="M149.06,163.7,79.123,144.26c-7.5-2.75-16-5.25-15.75-49.75,0,0-0.264-2.205,1.649-1.509" stroke="#000" stroke-width="0.5" fill="none"/>
                                   <path id="path92694" d="m6.186,48.759c35.75,1.25,69.5,30.5,100,43.75s56.5,22.25,66.75,23.5c5,0.75,2.5-3.75-4.5-5.75s-35.25-13.75-53.25-29.25-29.5-25-45.5-30.25-26.5-5.25-26.5-5.25c19.25-2.75,37.25-1,48.25,6.25" stroke="#000" stroke-width="0.5" fill="none"/>
                                   <path id="path92696" d="m232.65,130.5s-8.981-39.672-34.716-37.491c-14.75,1.25-19.25,15.5-20.75,19.5" stroke="#000" stroke-width="0.5" fill="none"/>
                                   <path id="path92698" d="m232.95,132.3s2.484-1.291,8.484,0.709,50,8,60.5,9.5,226.15-6.222,262.58-13.361" fill="none" stroke="#000"/>
                                   <path id="path92700" d="m515.94,134.01c3-3.5-37.681-34.211-62-44.5-26-11-40.5-15.5-47.514-16.909" stroke="#000" stroke-width="0.5" fill="none"/>
                                   <path id="path92702" d="m411.94,77.009s29.5,5.5,71.5,29.5" stroke="#000" stroke-width="0.5" fill="none"/>
                                   <path id="path92704" d="m296.94,78.009s38.5,16.5,52.5,29.5,31,29.5,30,32.5" stroke="#000" stroke-width="0.5" fill="none"/>
                                   <path id="path92706" d="m201.44,71.509s-1.5,5.5-5,7c0,0,41.5,2.5,68,21.5s48,42.5,48,42.5" stroke="#000" stroke-width="0.5" fill="none"/>
                                   <path id="path92708" d="m233.94,134.01c0,4.5,5,5,9.5,5.5,0,0,42.5,7,55.5,9s37,0.5,45.5,0.5,205-6,227-13" stroke="#000" stroke-width="0.5" fill="none"/>
                                   <path id="path92710" d="m239.02,183.9c9.914,2.109,38.914,5.609,57.414,6.109s101-2,110.5-2c5.5,4,103-2.5,106.5-6,12-1.5,45.5-6.5,54.5-9.5" stroke="#000" stroke-width="0.5" fill="none"/>
                                   <path id="path92712" d="m332.94,197.01c2,4-3.997,9.309,55,8.5,36.5-0.5-18.5-6.5-21.5-7" stroke="#000" stroke-width="0.5" fill="none"/>
                                   <path id="path92714" d="m300.94,213.01s18-1,31-8.5" stroke="#000" stroke-width="0.5" fill="none"/>
                                   <path id="path92716" d="m511.44,182.51c7-3,9.07-6.818,15.285-27.409" stroke="#000" stroke-width="0.5" fill="none"/>
                                   <path id="path92718" d="m555.19,175.51c4.5-0.75,7,0,5.25,5.75s-1.75,9.25-7.25,10.5-26.75,5.5-35.25,6.75" stroke="#000" stroke-width="0.5" fill="none"/>
                                   <path id="path92720" d="m529.44,196.76c-4.5,1-11.25-0.25-9.75-4.75s2.25-11.5,6.75-12" stroke="#000" stroke-width="0.5" fill="none"/>
                                   <line id="line92722" stroke-width="0.5" x1="552.19" x2="558.19" stroke="#000" y1="179.51" y2="176.51" fill="none"/>
                                   <path id="path92724" d="m556.44,187.26s-7.25-2.5-8.75-1.5,4.25,4.5,4.25,4.5" stroke="#000" stroke-width="0.5" fill="none"/>
                                   <path id="path92726" d="m522.44,194.01s3.75-2.5,4.75-4.5,3-1,2.5,0.5-1.75,5.25-1.75,5.25" stroke="#000" stroke-width="0.5" fill="none"/>
                                   <path id="path92728" d="m329.19,215.51c35.5,2.5,191-3.5,231.5-18" stroke="#000" stroke-width="0.5" fill="none"/>
                                   <g id="g92730">
                                    <path id="path92732" d="m510.69,126.51c8.5,1,42-1,50.5-3.5" stroke="#000" stroke-width="0.5" fill="none"/>
                                   </g>
                                   <line id="line92734" stroke-width="0.5" x1="482.19" x2="538.19" stroke="#000" y1="105.01" y2="105.01" fill="none"/>
                                   <line id="line92736" stroke-width="0.5" x1="284.19" x2="353.69" stroke="#000" y1="115.01" y2="111.51" fill="none"/>
                                   <g id="g92738">
                                    <path id="path92740" d="m302.19,132.01c7,2.5,55,1.5,71-1" stroke="#000" stroke-width="0.5" fill="none"/>
                                   </g>
                                   <g id="g92742">
                                    <path id="path92744" d="m305.69,135.01c7,2.5,55,1.5,71-1" stroke="#000" stroke-width="0.5" fill="none"/>
                                   </g>
                                   <g id="g92746">
                                    <path id="path92748" d="m508.69,124.01c8.5,1,42-1,50.5-3.5" stroke="#000" stroke-width="0.5" fill="none"/>
                                   </g>
                                   <polygon id="polygon92750" stroke="#000" points="444.69,130.51,451.69,130.51,442.69,119.51,435.69,119.51" stroke-width="0.5" fill="none"/>
                                   <path id="path92752" d="m425.62,50.401s4.5-1.8,6.3-4.05" stroke="#000" stroke-width="0.5" fill="none"/>
                                   <path id="path92754" d="m426.67,53.851s5.1-1.95,7.35-1.05,7.5,0.15,7.5,0.15" stroke="#000" stroke-width="0.5" fill="none"/>
                                   <path id="path92756" d="m158.32,55.651c-1.8-0.45-6.6-3-8.1-4.35" stroke="#000" stroke-width="0.5" fill="none"/>
                                   <path id="path92758" d="m158.17,58.5c-1.65-0.45-6.281-1.758-8.55-0.75" stroke="#000" stroke-width="0.5" fill="none"/>
                                  </g>
                                 </g>
                                </g>
                               </g>
                              </g>
                             </g>
                            </g>
                           </g>
                          </g>
                         </g>
                        </g>
                       </g>
                      </g>
                     </g>
                    </g>
                   </g>
                  </g>
                 </g>
                </g>
               </g>
              </g>
             </g>
            </g>
           </g>
          </g>
         </g>
        </g>
       </g>
      </g>
     </g>
    </g>
   </g>
  </g>
 </g>
</svg>
