<?xml version="1.0" encoding="UTF-8" standalone="no"?>
<!-- Created with Inkscape (http://www.inkscape.org/) -->
<svg id="svg2" xmlns:rdf="http://www.w3.org/1999/02/22-rdf-syntax-ns#" xmlns="http://www.w3.org/2000/svg" height="45" width="67.5" version="1.1" xmlns:cc="http://creativecommons.org/ns#" xmlns:dc="http://purl.org/dc/elements/1.1/">
 <metadata id="metadata7">
  <rdf:RDF>
   <cc:Work rdf:about="">
    <dc:format>image/svg+xml</dc:format>
    <dc:type rdf:resource="http://purl.org/dc/dcmitype/StillImage"/>
    <dc:title/>
   </cc:Work>
  </rdf:RDF>
 </metadata>
 <g id="g10463">
  <rect id="rect2990" opacity="0" height="45" width="67.5" y="0" x="3.5527e-15"/>
  <path id="path10461" d="m37.395 35.669c-2.404-0.25198-9.1813-1.2795-9.3139-1.4122-0.0257-0.02567 0.37282-0.07672 0.88553-0.11346 0.51271-0.03673 1.0671-0.12207 1.232-0.18963 0.22813-0.09346-0.0731-0.1251-1.2594-0.1323-3.4081-0.02068-7.4771-0.47949-8.059-0.90872-0.2052-0.15137-0.20213-0.16545 0.0573-0.26241 0.8052-0.30091-1.1614-0.9205-9.9892-3.1471-3.3347-0.84112-3.3456-0.84648-2.039-1.0051 0.1979-0.02403-0.64226-0.05177-1.867-0.06166-2.806-0.02264-4.617-0.30758-4.3095-0.67806 0.0922-0.11106 0.0933-0.18158 0.004-0.23691-0.19598-0.12112-0.62208-1.0142-0.80235-1.6817-0.0891-0.32983-0.19737-1.0854-0.24066-1.6791-0.0736-1.0105-0.12681-1.1772-0.83195-2.6091-0.41429-0.84133-0.79193-1.7859-0.83921-2.0989-0.0887-0.58728 0.0941-3.0076 0.32696-4.3295 0.0952-0.54046 0.20367-0.79643 0.38806-0.91573 0.17199-0.11128 0.92687-0.20074 2.3018-0.2728l2.0459-0.10722 1.4278-0.81977c2.4082-1.3827 5.0363-2.4952 6.9448-2.9399 2.6464-0.61653 6.903-0.89523 13.682-0.89587 8.6876-0.000799 8.8949 0.05075 14.039 3.4918l2.7643 1.8492 0.78687-0.24304c0.43279-0.13367 0.98187-0.39801 1.2202-0.58742 1.1056-0.87867 2.5992-0.3508 2.5992 0.91863 0 0.53573-0.33657 0.74006-1.5163 0.92055-0.5843 0.08939-1.1882 0.21054-1.342 0.26921l-0.27966 0.10668 0.33963 0.1577c0.82677 0.38389 1.6913 0.60562 3.2962 0.84542 3.0217 0.45147 4.7644 0.8847 5.9101 1.4692 1.7233 0.87916 4.624 2.9476 5.4436 3.8819 0.28457 0.32434 0.67919 0.75464 0.87694 0.95622 0.19776 0.20159 0.40078 0.55241 0.45118 0.7796 0.13624 0.6142-0.0713 2.5447-0.35759 3.3266-0.44934 1.2271-0.6877 1.9909-0.85619 2.7435l-0.16557 0.73948 0.54653 0.08184c0.83646 0.12526 1.5935 0.41117 1.9324 0.7298 0.16852 0.15845 0.39361 0.28809 0.50019 0.28809 0.29459 0 2.2267 0.70379 2.9715 1.0824 0.69071 0.35111 1.1994 0.76139 1.1994 0.96738 0 0.49403-3.3318 0.84398-13.013 1.3668-10.291 0.55577-14.372 0.64071-17.091 0.35572zm9.955-3.2923c5.2407-0.30576 9.3012-0.73346 11.398-1.2006 1.4276-0.31799 1.3812-0.2864 1.5493-1.0546 0.0823-0.37599 0.24945-1.0327 0.37147-1.4593 0.12204-0.42662 0.20875-0.78879 0.19271-0.80483-0.0161-0.01604-0.13997-0.00024-0.2754 0.03522-0.18646 0.04876-0.23256 0.13594-0.18991 0.3591 0.053 0.2772-0.30174 1.4373-0.40723 1.3318-0.0269-0.02687 0.0328-0.2443 0.13264-0.48319 0.19156-0.45847 0.24323-1.0444 0.0915-1.0379-0.0495 0.0021-0.19472 0.08306-0.32277 0.17991s-0.28997 0.17418-0.35982 0.17184c-0.0699-0.0023 0.008-0.08138 0.17285-0.17566l0.29984-0.17141-0.29984-0.01378c-0.16492-0.0076 0.0468-0.08896 0.47044-0.18084 0.42366-0.09188 0.81275-0.20951 0.86463-0.2614 0.20491-0.20491 0.47511-1.6309 0.49889-2.6329l0.0251-1.0574-0.65967 0.02648c-0.7087 0.02845-0.69546-0.02059 0.0388-0.14368 0.38997-0.06537 0.43631-0.10372 0.30972-0.25625-0.32673-0.39368-0.56259-0.41756-2.2977-0.23259-4.1254 0.4398-12.007 0.8401-23.778 1.2077-2.1163 0.06609-2.4585 0.0453-4.7976-0.29143-1.3853-0.19943-3.1274-0.48158-3.8713-0.627-0.98596-0.19274-1.3884-0.22854-1.4849-0.1321-0.0964 0.09644-0.0931 0.38651 0.0123 1.0702 0.69518 4.5098 0.64416 4.2792 0.96657 4.3689 0.24577 0.06837 0.256 0.08545 0.0571 0.09526-0.23304 0.0115-0.23898 0.06103-0.15473 1.2913 0.0482 0.70362 0.14647 1.3157 0.21841 1.3601 0.072 0.04446 1.329 0.14819 2.7934 0.23052s2.9325 0.16974 3.2623 0.19426c0.32983 0.02451 1.5172 0.07796 2.6387 0.11876 1.1214 0.0408 2.1469 0.11998 2.2788 0.17596 0.13194 0.05597 0.32084 0.13285 0.41979 0.17084 0.25548 0.09808 7.3305-0.02507 9.835-0.17119zm-7.6522-0.0895c0.57388-0.02194 1.5454-0.02204 2.1589-0.000239 0.61353 0.02181 0.144 0.03976-1.0434 0.03988s-1.6894-0.01772-1.1155-0.03966zm4.2639-0.11915c0.34633-0.02423 0.91304-0.02423 1.2594 0 0.34633 0.02423 0.0629 0.04405-0.62968 0.04405-0.69265 0-0.976-0.01982-0.62968-0.04405zm2.5219-0.11949c0.2821-0.02534 0.71388-0.02498 0.95951 0.0008 0.24563 0.02577 0.0148 0.0465-0.51291 0.04607-0.52774-0.00048-0.72871-0.02153-0.4466-0.04686zm-13.616-0.11464c0.11545-0.03017 0.30435-0.03017 0.41979 0s0.021 0.05485-0.2099 0.05485c-0.23088 0-0.32533-0.02468-0.20989-0.05485zm15.532-0.0041c0.2144-0.0266 0.56522-0.0266 0.77961 0s0.039 0.04838-0.38981 0.04838c-0.42878 0-0.60419-0.02177-0.3898-0.04838zm-14.603-0.15311c0.4101-0.13134 0.72542-0.13134 0.41979 0-0.13194 0.05669-0.34783 0.10149-0.47976 0.09955-0.19284-0.0028-0.18108-0.02236 0.06-0.09955zm16.342 0.03403c0.18141-0.02748 0.47826-0.02748 0.65966 0 0.18142 0.02748 0.0329 0.04997-0.32983 0.04997-0.36281 0-0.51123-0.02248-0.32983-0.04997zm1.4409-0.1201c0.18231-0.02757 0.45217-0.02683 0.59969 0.0016 0.14753 0.02847-0.002 0.05102-0.33148 0.05013-0.32983-0.00096-0.45052-0.0242-0.26821-0.05177zm1.6475-0.15884c0.36282-0.05016 0.84857-0.08932 1.0794-0.08703 0.33641 0.0034 0.30068 0.02272-0.1799 0.09757-0.32984 0.05137-0.81559 0.09054-1.0795 0.08703-0.41772-0.0055-0.39445-0.01817 0.17991-0.09757zm-18.231-0.11491c0.099-0.06394 0.23388-0.11626 0.29985-0.11626 0.066 0 0.0389 0.05232-0.06 0.11626-0.099 0.06394-0.23388 0.11626-0.29985 0.11626-0.066 0-0.0389-0.05232 0.06-0.11626zm20.121-0.08483c0.1492-0.02869 0.36509-0.0276 0.47976 0.0024 0.11467 0.03002-0.007 0.05349-0.27126 0.05216-0.26387-0.0014-0.35769-0.02589-0.2085-0.05458zm-14.604-0.12577c1.6236-0.02373 2.3976-0.07493 2.2788-0.15071-0.15487-0.09879-0.15168-0.11503 0.0229-0.11661 0.27717-0.0025 0.37914 0.19617 0.14651 0.28544-0.10397 0.03989-1.2506 0.06023-2.548 0.04518l-2.359-0.02736 2.4588-0.03594zm15.502 0.008c0.11544-0.03017 0.30435-0.03017 0.41978 0 0.11545 0.03017 0.0209 0.05485-0.20989 0.05485-0.23088 0-0.32533-0.02468-0.20989-0.05485zm-18.89-0.12191c0.14843-0.02859 0.39131-0.02859 0.53973 0 0.14843 0.02858 0.0269 0.05198-0.26987 0.05198-0.29685 0-0.41828-0.02339-0.26986-0.05198zm19.732 0.0015c0.11669-0.03041 0.27861-0.02841 0.35982 0.0045 0.0812 0.03285-0.0143 0.05774-0.21218 0.05529-0.1979-0.0025-0.26434-0.02933-0.14764-0.05974zm-20.324-0.11875c0.0866-0.03465 0.19002-0.03038 0.22988 0.0095 0.0398 0.03985-0.031 0.0682-0.15743 0.06299-0.13972-0.0058-0.16813-0.03417-0.0724-0.07246zm21.044-0.0012c0.1167-0.03041 0.27861-0.02841 0.35982 0.0045 0.0812 0.03286-0.0143 0.05774-0.21218 0.05529-0.1979-0.0025-0.26434-0.02932-0.14764-0.05974zm-21.56-0.15539c-0.042-0.06799 0.006-0.0881 0.11286-0.04714 0.20779 0.07974 0.24581 0.1657 0.0733 0.1657-0.062 0-0.14583-0.05336-0.18614-0.11857zm6.0884 0.03545c0.1167-0.03041 0.27861-0.02841 0.35982 0.0045 0.0812 0.03286-0.0143 0.05774-0.21218 0.05529-0.1979-0.0025-0.26434-0.02932-0.14764-0.05974zm16.928-0.17062c0.52139-0.126 0.97047-0.2066 0.99795-0.17912 0.0585 0.05849-1.5595 0.43869-1.7897 0.42053-0.0859-0.0068 0.27036-0.11542 0.79175-0.24142zm-18.339 0.01387c-0.408-0.07305-0.42594-0.08741-0.11994-0.09601 0.1979-0.0056 0.57571 0.03455 0.83958 0.08913 0.39715 0.08215 0.4178 0.09868 0.11993 0.09601-0.19789-0.0018-0.5757-0.04188-0.83957-0.08913zm-4.9732-0.35193c-0.167-0.31202-0.15656-0.57452 0.0258-0.64809 0.0825-0.03327-1.033-0.06476-2.4788-0.06997-1.4458-0.0052-2.6062-0.02914-2.5787-0.0532 0.0275-0.02405 2.6676-0.0675 5.867-0.09656s5.1852-0.03472 4.4129-0.01259c-1.1656 0.0334-1.3928 0.06973-1.3375 0.21389 0.038 0.0989-0.0894 0.32966-0.29578 0.53608l-0.36243 0.36242h-1.5642c-1.4237 0-1.5754-0.02084-1.6884-0.23199zm3.8638 0.14932c0.11545-0.03017 0.30435-0.03017 0.41979 0 0.11545 0.03017 0.021 0.05485-0.20989 0.05485s-0.32533-0.02468-0.2099-0.05485zm16.457-0.14891c0.038-0.06141 0.0142-0.14555-0.0529-0.18699-0.067-0.04143-0.11847-0.1666-0.11429-0.27815 0.006-0.14695 0.0375-0.12848 0.11607 0.06705 0.0902 0.22431 0.20528 0.27188 0.68205 0.28182 0.46635 0.0097 0.51752 0.0299 0.27373 0.10798-0.42426 0.13587-0.9867 0.14102-0.90467 0.0083zm1.9242-0.31519c0.3958-0.08931 0.80059-0.15833 0.89954-0.15337 0.28133 0.0141-0.98288 0.3174-1.3193 0.31653-0.16491-0.00048 0.024-0.07385 0.41979-0.16316zm-1.0594-0.23282 0.0737-0.35982-0.33712 0.29985-0.33711 0.29985 0.23025-0.32606c0.12663-0.17934 0.3112-0.3294 0.41015-0.33348 0.14236-0.0058 0.1361-0.03294-0.03-0.12967-0.2424-0.14119-0.28048-0.54161-0.06-0.63059 0.10211-0.0412 0.0925-0.06293-0.03-0.06813-0.29688-0.01259-0.46578 0.15496-0.65937 0.65414-0.10686 0.27554-0.15817 0.34055-0.12255 0.15529 0.0337-0.17528 0.0975-0.413 0.14169-0.52826 0.0708-0.18446 0.0241-0.20054-0.3893-0.13427-1.2363 0.19819-1.3238 0.20677-1.0024 0.09833 0.8301-0.28013 1.2053-0.80103 1.6139-2.2406 0.29223-1.0296 0.47119-1.2731 0.87147-1.1859 0.26341 0.05737 0.29156 0.04427 0.14627-0.06809-0.13961-0.10797 0.008-0.12553 0.65966-0.07842 0.57382 0.0415 0.74466 0.02664 0.53973-0.04694-0.19293-0.06927 0.12783-0.08363 0.89954-0.04028 0.65967 0.03706 1.2332 0.10294 1.2744 0.14639 0.0413 0.04345 0.10683 0.37585 0.14567 0.73867 0.0509 0.47486 0.0376 0.59246-0.0473 0.41979-0.0964-0.19608-0.10753-0.17062-0.0608 0.13946 0.0597 0.39614-0.17229 0.72857-0.40716 0.58342-0.0688-0.04255-0.12519-0.01315-0.12519 0.06534 0 0.09629-0.13743 0.12041-0.42247 0.07415-0.29026-0.0471-0.39703-0.02739-0.34117 0.06299 0.0561 0.09083-0.0553 0.10939-0.35982 0.05997-0.29966-0.04863-0.41555-0.03021-0.36139 0.05743 0.0549 0.08894-0.10251 0.10609-0.50705 0.0552-0.39549-0.04975-0.50858-0.03823-0.34691 0.03536 0.22067 0.10044 0.21586 0.10914-0.06 0.10872-0.16492-0.00024-0.54035-0.03694-0.83431-0.08152-0.43225-0.06556-0.55143-0.1384-0.62322-0.38091-0.0826-0.27916-0.0871-0.27503-0.0652 0.05997 0.0203 0.3107 0.0808 0.36994 0.44331 0.43398 0.37742 0.06668 0.3857 0.07576 0.0821 0.08995-0.18575 0.0087-0.42987-0.03353-0.5425-0.09381-0.16449-0.08803-0.25414-0.0195-0.4556 0.34828l-0.2508 0.45788 0.99867-0.01845c0.5694-0.01052 0.9104-0.05752 0.7933-0.10936-0.11294-0.05 0.0645-0.06126 0.39434-0.02503 0.37206 0.04087 0.53928 0.02499 0.44053-0.04183-0.1122-0.07591-0.0237-0.13007 0.29985-0.18354 0.61048-0.10087 0.91149-0.07368 0.45901 0.04146l-0.35982 0.09156 0.32984 0.01419c0.18141 0.0078 0.32983 0.05807 0.32983 0.11169 0 0.05363-0.14842 0.2388-0.32983 0.4115-0.25334 0.24118-0.50604 0.33369-1.0896 0.3989-0.54254 0.06063-0.77688 0.14015-0.81961 0.27815-0.0329 0.10629-0.10787 0.3012-0.16657 0.43313-0.0793 0.17827-0.0878 0.14747-0.033-0.11994zm1.8989-2.5809c1.041-0.15992 1.6048-0.30082 1.6963-0.42393 0.17326-0.23299 0.32438-1.2084 0.21471-1.3859-0.0581-0.09389-0.46112-0.10688-1.3566-0.04373-0.70074 0.04941-1.5352 0.10038-1.8543 0.11326-0.57924 0.02337-0.80321 0.17779-0.78772 0.5431 0.004 0.09895 0.0618 0.03148 0.1281-0.14992 0.0663-0.18141 0.16324-0.32983 0.21552-0.32983 0.0523 0-0.0332 0.35328-0.1899 0.78506-0.15673 0.43178-0.28496 0.86356-0.28496 0.95951 0 0.23243 0.33149 0.22233 2.2189-0.06762zm1.9558-0.42076c-0.0369-0.03692-0.10399 0.02964-0.14902 0.14792-0.0651 0.17094-0.0513 0.18471 0.0672 0.06714 0.082-0.08136 0.11882-0.17814 0.0819-0.21507zm-1.566 2.9822c0.0825-0.03327 0.2174-0.03327 0.29985 0 0.0825 0.03327 0.015 0.0605-0.14992 0.0605s-0.23238-0.02723-0.14993-0.0605zm-29.563-0.36645c0.18232-0.02757 0.45218-0.02684 0.5997 0.0016 0.14751 0.02846-0.002 0.05102-0.33148 0.05013-0.32984-0.000959-0.45053-0.02419-0.26822-0.05177zm13.881-0.02067c-0.40796-0.07304 4.1979-0.04078 4.7976 0.0336 0.16491 0.02045-0.75262 0.03818-2.039 0.03938s-2.5277-0.03164-2.7586-0.07298zm15.473-0.07176c-0.12017-0.1448-0.11064-0.19287 0.0505-0.2547 0.10923-0.04192 0.23224-0.04255 0.27337-0.0014 0.0411 0.04113-0.0217 0.07479-0.1398 0.07479-0.17714 0-0.18853 0.03139-0.0652 0.17991 0.0821 0.09895 0.12233 0.17991 0.0893 0.17991-0.0329 0-0.12663-0.08032-0.20811-0.17849zm-30.616-0.02609c0.14843-0.02859 0.39131-0.02859 0.53973 0 0.14843 0.02859 0.0269 0.05198-0.26986 0.05198-0.29685 0-0.41829-0.02339-0.26987-0.05198zm20.987-0.0019c0.21292-0.0265 0.59073-0.02693 0.83958-0.00096 0.24884 0.02596 0.0746 0.04764-0.38713 0.04818-0.46177 0.00048-0.66537-0.02071-0.45245-0.04721zm-21.945-0.1182c0.1492-0.02869 0.36509-0.0276 0.47976 0.0024 0.11467 0.03002-0.007 0.05349-0.27127 0.05217-0.26386-0.0014-0.35769-0.02589-0.20849-0.05458zm23.749-0.0021c0.21557-0.02669 0.53941-0.02615 0.71964 0.0012 0.18023 0.02737 0.004 0.04921-0.39196 0.04854-0.39579-0.000719-0.54325-0.02306-0.32768-0.04976zm8.4011 0.005c0.0866-0.03465 0.19003-0.03038 0.22989 0.0095 0.0398 0.03985-0.0309 0.06821-0.15743 0.06299-0.13972-0.0058-0.16814-0.03417-0.0724-0.07246zm-32.929-0.12112c0.1167-0.03041 0.27861-0.02841 0.35982 0.0045 0.0812 0.03285-0.0143 0.05774-0.21218 0.05529-0.1979-0.0025-0.26434-0.02933-0.14764-0.05974zm25.905-0.0028c0.18141-0.02748 0.47826-0.02748 0.65967 0s0.033 0.04997-0.32984 0.04997c-0.36281 0-0.51123-0.02249-0.32983-0.04997zm1.1994-0.11671c0.11545-0.03017 0.30435-0.03017 0.41979 0 0.11545 0.03017 0.021 0.05485-0.20989 0.05485s-0.32533-0.02468-0.2099-0.05485zm-15.532-0.1268c0.74213-0.02105 1.9565-0.02105 2.6986 0 0.74213 0.02105 0.13494 0.03826-1.3493 0.03826s-2.0914-0.01722-1.3493-0.03826zm-1.9429-0.16614c0.34765-0.07447 0.34828-0.07601 0.0372-0.08995-0.48386-0.02169-0.83145-0.38254-1.0005-1.0387-0.165-0.64042-0.0848-0.95767 0.26742-1.0582 0.11551-0.03297 1.3165-0.09389 2.6688-0.13539 3.0209-0.0927 3.0841-0.07225 3.6353 1.1753 0.30924 0.69989 0.33658 0.83958 0.19174 0.97959-0.13094 0.12658-0.84186 0.17228-3.1613 0.2032-1.6458 0.02194-2.8332 0.0058-2.6387-0.03588zm5.65-0.19617c0.10025-0.06378 0.0575-0.28839-0.15362-0.80775-0.50099-1.2323-0.42885-1.2038-2.9571-1.1697-2.5584 0.03453-3.3173 0.11108-3.4066 0.34366-0.10178 0.26524 0.0682 0.96292 0.3062 1.2568 0.13431 0.16587 0.41818 0.30037 0.74579 0.35336 0.71181 0.11514 5.2904 0.13487 5.4653 0.02356zm0.45171-0.10313c-0.006-0.25343 0.0282-0.3524 0.0881-0.25795 0.12286 0.1936 0.12908 0.54163 0.011 0.61402-0.0495 0.03032-0.0941-0.12991-0.0991-0.35607zm-7.0493-0.0453c-0.31036-0.36883-0.50265-1.1714-0.40489-1.6898 0.0358-0.18954 0.0603-0.12392 0.0715 0.19112 0.0269 0.75723 0.23748 1.3477 0.5757 1.6137 0.17153 0.13493 0.25544 0.24534 0.18643 0.24534-0.069 0-0.26191-0.16218-0.42869-0.36039zm8.2445 0.14235c-0.41703-0.26591-1.0062-1.3346-1.0062-1.8252 0-0.22077 0.09-0.35801 0.29638-0.45205 0.16299-0.07427 1.8496-0.21899 3.7481-0.3216 3.2313-0.17465 5.5187-0.31748 7.9582-0.49695 1.3189-0.09702 1.6047 0.02702 1.5198 0.65964-0.10419 0.77674-0.5831 1.6123-1.057 1.8441-0.51683 0.25283-5.1341 0.65455-8.7473 0.76106-2.193 0.06465-2.3621 0.05411-2.712-0.169zm-1.4111-0.80608c-0.11574-0.30161-0.0816-0.37943 0.0598-0.13629 0.07 0.12039 0.10202 0.24416 0.0712 0.27504-0.0309 0.03088-0.0898-0.03155-0.13093-0.13874zm-0.39709-0.90462c-0.14244-0.26005-0.20877-0.44179-0.1474-0.40386 0.13302 0.08221 0.50495 0.77813 0.44689 0.83618-0.0223 0.02228-0.15704-0.17227-0.29949-0.43232zm-5.761-0.55835c0.31533-0.02479 0.80108-0.02449 1.0794 0.00072 0.27837 0.02515 0.0204 0.04543-0.57333 0.04507-0.5937-0.00036-0.82145-0.02095-0.50612-0.04574zm2.815-0.12043c0.41229-0.02342 1.087-0.02342 1.4992 0 0.41229 0.02342 0.0749 0.04259-0.74962 0.04259-0.82458 0-1.1619-0.01917-0.74962-0.04259zm22.213-0.47778c-0.0329-0.27864-0.0142-0.46091 0.0417-0.40505s0.0828 0.28384 0.0598 0.50662c-0.0407 0.39508-0.0432 0.39258-0.10156-0.10156zm-27.246-0.36155c0.34853-0.02431 0.88826-0.02405 1.1994 0.000599 0.31113 0.02462 0.026 0.04451-0.6337 0.04419-0.65967-0.00036-0.91423-0.02045-0.56569-0.04476zm-1.5632-0.11602c0.14842-0.02859 0.3913-0.02859 0.53972 0 0.14843 0.02858 0.0269 0.05198-0.26986 0.05198-0.29685 0-0.41828-0.02339-0.26986-0.05198zm4.983-0.0046c0.51425-0.02254 1.3238-0.0224 1.7991 0.00036 0.47524 0.02271 0.0545 0.04115-0.93501 0.04098-0.9895-0.00012-1.3783-0.01874-0.86407-0.04128zm-5.7603-0.11381c0.11669-0.03041 0.27861-0.02841 0.35982 0.0045 0.0812 0.03286-0.0143 0.05774-0.21218 0.05529-0.1979-0.0025-0.26434-0.02933-0.14764-0.05974zm9.8927-0.0057c0.4123-0.02342 1.087-0.02342 1.4992 0 0.4123 0.02342 0.0749 0.04259-0.74962 0.04259-0.82458 0-1.1619-0.01917-0.74962-0.04259zm18.832 0.004c0.14919-0.02869 0.36508-0.0276 0.47975 0.0024 0.11467 0.03002-0.007 0.05349-0.27126 0.05217-0.26386-0.0014-0.35769-0.02589-0.20849-0.05458zm-29.449-0.116c0.1167-0.03041 0.27861-0.02841 0.35982 0.0045 0.0812 0.03285-0.0143 0.05774-0.21218 0.05529-0.1979-0.0025-0.26434-0.02932-0.14764-0.05974zm13.915-0.0057c0.38171-0.02388 0.97541-0.02365 1.3193 0.00048 0.34391 0.02415 0.0316 0.04368-0.69403 0.04341-0.72563-0.00024-1.007-0.02002-0.6253-0.0439zm-15.207-0.15111c-0.49878-0.12692-0.008-0.13255 0.5997-0.0069 0.40337 0.08343 0.42246 0.09917 0.11994 0.09884-0.1979-0.00024-0.52174-0.0416-0.71964-0.09196zm18.021 0.03151c0.34633-0.02423 0.91304-0.02423 1.2594 0 0.34633 0.02423 0.063 0.04405-0.62968 0.04405-0.69265 0-0.976-0.01982-0.62968-0.04405zm2.4588-0.11968c0.31335-0.02471 0.82609-0.02471 1.1394 0 0.31335 0.02471 0.0569 0.04492-0.56971 0.04492-0.62668 0-0.88305-0.02021-0.56971-0.04492zm-21.979-0.15172c-0.4047-0.08518-0.40686-0.08842-0.06-0.08996 0.1979-0.000799 0.52174 0.0396 0.71964 0.08996 0.31927 0.08124 0.32602 0.09138 0.06 0.08996-0.16492-0.000799-0.48876-0.04136-0.71964-0.08996zm25.187-0.006c0.62668-0.04791 1.4902-0.0846 1.919-0.08154 0.71145 0.0051 0.68524 0.01329-0.29985 0.09381-0.5937 0.04853-1.4573 0.08522-1.919 0.08154-0.79226-0.0063-0.77536-0.01161 0.29984-0.09381zm-26.114-0.197c0.11669-0.03041 0.27861-0.02841 0.35982 0.0045 0.0812 0.03285-0.0143 0.05773-0.21218 0.05529-0.1979-0.0025-0.26434-0.02933-0.14764-0.05974zm29.443-0.0037c0.2144-0.0266 0.56522-0.0266 0.77961 0s0.0389 0.04838-0.3898 0.04838c-0.42879 0-0.60419-0.02177-0.38981-0.04838zm-30.162-0.11629c0.11669-0.03041 0.27861-0.02841 0.35981 0.0045 0.0812 0.03286-0.0143 0.05774-0.21218 0.05529-0.1979-0.0025-0.26434-0.02932-0.14763-0.05974zm31.903-0.003c0.18231-0.02757 0.45218-0.02683 0.59969 0.0016 0.14753 0.02847-0.002 0.05102-0.33147 0.05013-0.32984-0.000959-0.45053-0.0242-0.26822-0.05176zm-32.806-0.163c-0.11543-0.06724-0.20907-0.18704-0.20805-0.26622 0.002-0.11198 0.0222-0.11198 0.0933-0.000014 0.0503 0.07918 0.22491 0.19719 0.38797 0.26226 0.16305 0.06507 0.2155 0.12009 0.11655 0.12227-0.099 0.0022-0.27436-0.05105-0.38981-0.1183zm34.063 0.0449c0.14843-0.02859 0.39131-0.02859 0.53973 0 0.14843 0.02858 0.0269 0.05198-0.26986 0.05198-0.29685 0-0.41829-0.02339-0.26987-0.05198zm-35.769 7.7763c0.26533-0.12053 0.65962-0.39634 0.87619-0.61292 0.51096-0.51096 1.0981-1.5393 1.097-1.9213-0.0006-0.21539-0.11623-0.06337-0.41041 0.53973-0.22523 0.46177-0.59104 1.0148-0.8129 1.229l-0.40338 0.38942-0.63133-0.16377c-0.34723-0.09007-0.77662-0.3-0.9542-0.46651-0.24191-0.22684-0.41316-0.28861-0.68304-0.24637-0.54224 0.08486-0.91688-0.35606-0.78313-0.92168 0.0569-0.24058 0.10681-0.31738 0.11692-0.17991 0.01 0.13193 0.15167-0.16492 0.31547-0.65966 0.38921-1.1755 0.30154-1.4995-0.66434-2.455-0.39802-0.39373-0.72367-0.66134-0.72367-0.59468 0 0.06665 0.2472 0.36182 0.54934 0.65591 0.84316 0.8207 0.92524 1.0407 0.74793 2.0046l-0.14881 0.80897-0.10257-1.1394c-0.10245-1.138-0.10325-1.1401-0.6412-1.6904-0.46912-0.47985-0.52747-0.59537-0.45223-0.89517 0.0612-0.24376 0.10698-0.28999 0.15692-0.15841 0.0388 0.1022 0.28219 0.37009 0.54088 0.59532 1.1546 1.0052 1.369 1.7011 0.92186 2.9924-0.12482 0.36053-0.26544 0.84441-0.31248 1.0753-0.12096 0.5937 0.10203 0.32523 0.34867-0.41979 0.22842-0.69001 0.38593-0.92454 0.75179-1.1194 0.3839-0.20446 0.51939-0.10407 1.1503 0.85224 0.61742 0.93585 0.98437 1.4066 1.0965 1.4066 0.18059 0 0.031-0.39244-0.39466-1.0358-0.25598-0.38682-0.50315-0.83825-0.54927-1.0032-0.0461-0.16492-0.17153-0.48875-0.27869-0.71964-0.15319-0.3301-0.20493-0.37161-0.24214-0.19428-0.026 0.12403 0.0178 0.26571 0.0972 0.31484 0.11178 0.06909 0.11209 0.1094 0.002 0.17783-0.32446 0.20053-0.5005-0.49845-0.2564-1.018 0.11955-0.25447 0.13339-0.26057 0.0914-0.04033-0.0714 0.37502 0.34004 0.45333 0.56644 0.10781 0.0962-0.14685 0.47683-0.42451 0.84581-0.61702 0.42666-0.2226 0.64876-0.40816 0.61015-0.50975-0.0334-0.08785-0.0607-0.23337-0.0607-0.32337 0-0.12978-0.14205-0.11477-0.68644 0.07253-0.68322 0.23506-0.68796 0.23505-1.007-0.0008-0.31737-0.23464-0.32113-0.23466-0.38177-0.0028-0.0744 0.28442-0.42216 0.30953-0.52635 0.03801-0.0917-0.23889 0.11504-0.58754 0.3393-0.57229 0.12413 0.0084 0.16416-0.20734 0.16687-0.89954 0.004-0.92928 0.25914-2.4098 0.41588-2.4098 0.0477 0 0.28325 0.1333 0.52333 0.29623 0.28205 0.1914 0.43653 0.24166 0.43653 0.14202 0-0.30882-0.89426-0.67814-1.642-0.67814-0.57984 0-0.81189 0.06474-1.2673 0.35356-2.0283 1.2863-2.7193 5.2173-1.3815 7.8587 0.41413 0.81764 0.91024 1.3503 1.5584 1.6733 0.73421 0.36587 1.3972 0.39298 2.0754 0.08486zm-0.9022-0.01546c0.41009-0.13134 0.72541-0.13134 0.41979 0-0.13194 0.05669-0.34783 0.10149-0.47976 0.09955-0.19284-0.0028-0.18108-0.02236 0.06-0.09955zm-1.1394-0.22033c-0.19791-0.12069-0.53491-0.41884-0.74889-0.66255-0.38024-0.43307-0.92776-1.3785-0.84579-1.4604 0.0227-0.02268 0.19054 0.24394 0.37302 0.59248 0.41301 0.78883 0.99084 1.3588 1.5964 1.5746 0.26967 0.09613 0.36409 0.1677 0.22491 0.17049-0.13193 0.0026-0.40179-0.09393-0.59969-0.21462zm1.859 0.05325c0-0.02592 0.0838-0.07928 0.18614-0.11856 0.10674-0.04096 0.15488-0.02085 0.11286 0.04714-0.0704 0.11397-0.299 0.16857-0.299 0.07143zm-3.7086-2.9014c0.006-0.13972 0.0341-0.16814 0.0724-0.07247 0.0346 0.08658 0.0304 0.19003-0.009 0.22988-0.0398 0.03985-0.0682-0.03099-0.063-0.15742zm-0.10603-0.5897c0.002-0.1979 0.0293-0.26434 0.0597-0.14764s0.0284 0.27862-0.005 0.35982c-0.0329 0.0812-0.0577-0.01427-0.0553-0.21218zm2.3149-0.18168c-0.0513-0.16169-0.0111-0.33256 0.10969-0.46604 0.27007-0.29842 0.24835-0.60426-0.0376-0.52948-0.25671 0.06713-0.42757-0.27594-0.30129-0.60499 0.10549-0.27493 0.41929-0.24589 0.49558 0.04586 0.06 0.22946 0.072 0.23109 0.22163 0.02999 0.12518-0.16834 0.2034-0.185 0.37509-0.0799 0.1193 0.07303 0.23035 0.23495 0.24677 0.35982 0.023 0.17456 0.003 0.16466-0.0861-0.04284-0.13418-0.31232-0.4247-0.3562-0.53063-0.08015-0.10855 0.28288-0.0879 0.74628 0.0366 0.82326 0.16739 0.10345-0.0413 0.72125-0.25772 0.76295-0.10991 0.02118-0.22543-0.0716-0.27204-0.21849zm0.37098-0.32745c-0.13102-0.13102-0.22086 0.07735-0.1268 0.29407 0.0892 0.2055 0.0957 0.20531 0.14536-0.0042 0.0286-0.1206 0.0202-0.25104-0.0186-0.28985zm-0.19051-1.0501c0-0.09895-0.054-0.17991-0.11994-0.17991-0.066 0-0.11994 0.08096-0.11994 0.17991s0.054 0.17991 0.11994 0.17991c0.066 0 0.11994-0.08096 0.11994-0.17991zm-2.5993 0.35982c0.00048-0.46176 0.0222-0.63597 0.0481-0.38713 0.026 0.24884 0.0255 0.62665-0.0008 0.83957-0.0265 0.21292-0.0477 0.0093-0.0472-0.45245zm3.7587-0.01999c-0.12795-0.12796-0.0923-0.61791 0.0515-0.70676 0.21155-0.13074 0.5035 0.24681 0.41252 0.53347-0.0787 0.24786-0.30494 0.33237-0.46401 0.17329zm0.30385-0.42378c-0.11194-0.11194-0.14393-0.07996-0.14393 0.14393s0.032 0.25587 0.14393 0.14393c0.11194-0.11194 0.11194-0.17591 0-0.28785zm-2.6692-0.7951c-0.29328-0.18663-0.60162-0.42267-0.68522-0.52452-0.18088-0.2204-0.0883-0.52681 0.19125-0.63322 0.15638-0.05951 0.1689-0.04438 0.0568 0.06862-0.11208 0.11295-0.0489 0.22049 0.28635 0.48686 0.23662 0.18804 0.48577 0.34189 0.55366 0.34189 0.0679 0 0.0891 0.03429 0.0472 0.07622-0.0419 0.04191-0.22633-0.01526-0.4098-0.12706l-0.33357-0.20327 0.28503 0.24852c0.3396 0.29609 0.82887 0.43891 0.98133 0.28645 0.1375-0.1375 0.35652-1.2703 0.34155-1.7665-0.007-0.23253-0.0731-0.0622-0.17516 0.4514-0.15059 0.75793-0.29333 1.1542-0.29333 0.81434 0-0.07696-0.0796-0.13993-0.17701-0.13993-0.0974 0-0.35373-0.10774-0.56971-0.23943-0.40049-0.24418-0.37953-0.338 0.0269-0.12048 0.18217 0.0975 0.23989 0.06953 0.30948-0.14992 0.047-0.14838 0.22574-0.48566 0.39709-0.74953 0.17134-0.26387 0.37505-0.66866 0.45267-0.89954l0.14115-0.41979-0.0497 0.53973-0.0497 0.53973 0.18766-0.65503c0.17555-0.61274 0.17401-0.66501-0.0238-0.80959-0.18554-0.13567-0.1536-0.15434 0.26132-0.15272 0.25998 0.00096 0.41124 0.04149 0.33613 0.08995-0.19166 0.12366-0.38107 0.85244-0.57882 2.227-0.17774 1.2355-0.40488 1.7591-0.76313 1.7591-0.11751 0-0.45359-0.1527-0.74686-0.33933zm-0.23338-0.55599c0-0.03066-0.12143-0.12046-0.26986-0.19954-0.2447-0.13039-0.25452-0.12519-0.10525 0.05575 0.15326 0.18579 0.37511 0.27083 0.37511 0.1438zm-1.0725 0.58726c-0.007-0.27005 0.34473-1.5409 0.40825-1.4729 0.0214 0.023-0.06 0.41962-0.18116 0.88139-0.1211 0.46177-0.2233 0.72793-0.22709 0.59148zm0.47284-1.7238c0-0.06207 0.0533-0.14584 0.11856-0.18614 0.068-0.04202 0.0881 0.0062 0.0471 0.11286-0.0797 0.20778-0.1657 0.2458-0.1657 0.07328zm0.31244-0.48684c0.21953-0.43713 0.66175-0.9163 1.0287-1.1147 0.38269-0.20686 0.38655-0.20686 0.10071 0-0.3772 0.27298-0.592 0.48659-0.94102 0.9358-0.15333 0.19732-0.23811 0.27781-0.18841 0.17886zm3.4558 6.6866c-0.4966-0.69476-0.87683-1.1289-0.70898-0.80959 0.1404 0.26713 1.039 1.4393 1.1035 1.4393 0.0306 0-0.14694-0.28336-0.39448-0.62968zm-1.4913-0.40126c0.37652-0.4987 0.4719-0.70592 0.37124-0.80658s-0.20404-0.09277-0.40233 0.03072c-0.24396 0.15192-0.25274 0.14909-0.10226-0.03299 0.20958-0.2536 0.35754-0.25117 0.65298 0.01071 0.23014 0.204 0.23271 0.20212 0.0916-0.06674-0.22743-0.4332-0.49142-0.46474-0.80811-0.09658-0.28323 0.32928-0.38199 0.62973-0.16238 0.494 0.0679-0.04196 0.0882 0.006 0.0474 0.11217-0.0391 0.102-0.11382 0.15908-0.16596 0.12686-0.10849-0.06705-0.27815 0.30155-0.18273 0.39697 0.0345 0.03454 0.0628-0.0092 0.0628-0.09712 0-0.08796 0.0282-0.13166 0.0628-0.09713 0.10216 0.10217-0.0782 0.46159-0.19531 0.38921-0.12412-0.07672-0.14644 0.10862-0.0274 0.22766 0.15379 0.15379 0.25478 0.075 0.75773-0.59116zm2.7605-0.05926c0-0.04666-0.16192-0.39265-0.35982-0.76886-0.4647-0.88343-0.46469-1.284 0.00009-1.6981 0.49413-0.44027 0.35976-0.49391-0.28732-0.11469-0.45881 0.26888-0.54554 0.38131-0.58943 0.76419l-0.0515 0.44893 0.0143-0.47938c0.0134-0.4478 0.0574-0.50508 0.66865-0.86956 0.78551-0.46839 0.69604-0.51998-0.12593-0.07261-0.32092 0.17466-0.6169 0.42287-0.65775 0.55157-0.14585 0.45954 0.0796 1.2474 0.57287 2.0024 0.45486 0.69613 0.50893 0.74064 0.65577 0.53982 0.088-0.12038 0.16004-0.25704 0.16004-0.3037zm-0.52387-0.01924-0.21577-0.3898 0.24722 0.29985c0.21925 0.26593 0.31661 0.47976 0.21843 0.47976-0.0188 0-0.1312-0.17541-0.24988-0.3898zm-0.43564-0.68965c-0.0706-0.13193-0.10139-0.23988-0.0684-0.23988 0.033 0 0.11774 0.10794 0.18835 0.23988 0.0706 0.13193 0.10139 0.23988 0.0684 0.23988-0.0329 0-0.11774-0.10795-0.18835-0.23988zm-5.4549-0.20962c-0.0464-0.24722-0.14684-0.48927-0.22325-0.53789-0.0764-0.04861-0.0849-0.08915-0.019-0.09007 0.0754-0.0011 0.10471-0.52476 0.0789-1.411-0.0225-0.77511 0.0224-1.9131 0.0999-2.5289s0.12297-1.1345 0.10101-1.1527c-0.022-0.01817-0.18834-0.06865-0.36976-0.11217-0.3136-0.07523-0.33067-0.05688-0.34685 0.37293l-0.017 0.45206-0.0729-0.47488c-0.0568-0.36996-0.13918-0.49534-0.37278-0.56748-0.29255-0.09035-0.29182-0.0916 0.03-0.05149 0.3251 0.04052 0.3299 0.03146 0.33409-0.63191 0.002-0.37016 0.0708-0.7929 0.15229-0.93942l0.14804-0.2664 0.34681 0.27654c0.33181 0.26457 0.34909 0.56772 0.0312 0.54665-0.10299-0.0068-0.10102-0.02635 0.007-0.06996 0.22397-0.09037 0.18156-0.25501-0.10521-0.40849-0.19904-0.10653-0.27718-0.10087-0.35542 0.02574-0.0663 0.10731-0.0307 0.1899 0.1052 0.24383 0.19174 0.07609 0.19144 0.08212-0.004 0.08998-0.29019 0.01166-0.30841 1.1444-0.0202 1.255 0.47615 0.18271 0.60938 0.08314 0.75412-0.56362 0.21091-0.94245 0.75948-2.0132 1.2537-2.4472 1.3856-1.2166 3.2709-0.0786 4.1786 2.5222 0.15381 0.44071 0.32031 0.8013 0.37 0.8013 0.13109 0 0.1127-0.14639-0.0908-0.72326-0.0997-0.28245-0.15925-0.53549-0.13244-0.5623 0.0268-0.02682 0.15239 0.26212 0.27904 0.64208l0.23028 0.69084 1.1072 0.21424c1.87 0.36183 5.9788 0.93814 6.6436 0.93182l0.62921-0.006-1.2594-1.2035c-2.3218-2.2188-4.1046-3.5445-5.7075-4.2443-0.52199-0.22788-0.87807-0.41498-0.79129-0.41579 0.25257-0.0023 1.8702 0.77826 2.5018 1.2073 0.31831 0.21621 0.96952 0.70735 1.4471 1.0914 0.47761 0.38408 0.95306 0.69832 1.0566 0.69832 0.1035 0 0.15858 0.04788 0.12242 0.10639-0.0361 0.05852 0.34797 0.47681 0.85364 0.92953l0.91941 0.82313 2.8274 0.06517 2.8274 0.06518-2.7586 0.03897c-1.5854 0.0224-2.6056 0.07791-2.3988 0.13053 0.22233 0.05657 0.27162 0.09698 0.12901 0.10575-0.21427 0.01318-0.20998 0.03678 0.06 0.32981l0.29077 0.31562 3.5289-0.07643c1.9409-0.04203 3.551-0.09848 3.5779-0.12544 0.14122-0.14123-0.25467-0.55085-0.54436-0.56323-0.20301-0.0087-0.24658-0.03457-0.11572-0.06876 0.30049-0.07853 0.2593-0.27541-0.06-0.28661-0.15429-0.0054-0.20011-0.03722-0.10699-0.07428 0.10885-0.04331-0.14879-0.3783-0.77679-1.01l-0.93966-0.9452-1.0223-0.02383-1.0223-0.02383 0.88764-0.04175 0.88764-0.04176-0.40788-0.4377c-0.29887-0.32071-0.21194-0.27178 0.32522 0.18309 0.99121 0.83935 2.8866 2.8342 2.9837 3.1403 0.074 0.23295 0.14348 0.24372 1.1794 0.18264 0.60543-0.0357 2.9358-0.14714 5.1787-0.24764s4.8336-0.23323 5.7571-0.29494c0.92353-0.06171 1.8834-0.11301 2.1331-0.11399 0.41241-0.0016 0.44255-0.02316 0.32909-0.23516-0.0687-0.12836-0.48889-0.52993-0.93375-0.89237-1.2777-1.041-1.4494-1.2012-0.83937-0.78339 0.31304 0.21441 0.65874 0.4888 0.76821 0.60976 0.16743 0.185 0.41037 0.22362 1.5298 0.24316l1.3307 0.02323-1.1994 0.07348-1.1994 0.07348 1.4992 0.04886 1.4992 0.04886-1.35 0.03827-1.35 0.03827 0.24378 0.32973 0.24378 0.32973 1.1662-0.0883c2.0155-0.15261 3.8648-0.3648 3.8647-0.44343-0.00024-0.14253-0.56738-0.7353-0.70346-0.7353-0.0748 0-0.12247-0.04328-0.10599-0.09617 0.0344-0.11039-0.56852-0.65351-1.3373-1.2046l-0.52774-0.37832h-2.9484-2.9484l0.44763 0.30417c0.24619 0.1673 0.44763 0.33289 0.44763 0.36798s-0.16061-0.05055-0.35692-0.19033c-0.1963-0.13978-1.0601-0.61993-1.9197-1.067-0.8595-0.44707-1.522-0.85772-1.4722-0.91256s-0.006-0.06473-0.12554-0.022c-0.14648 0.05267-0.18846 0.03294-0.13024-0.06124 0.0575-0.09299 0.0194-0.11344-0.11514-0.06182-0.25375 0.09737-0.81599-0.14986-0.71445-0.31417 0.045-0.07285-0.00024-0.09357-0.11128-0.05096-0.10295 0.0395-0.77296-0.14112-1.4889-0.40139-0.71598-0.26027-1.1129-0.44206-0.88198-0.40398 0.3124 0.05153 0.37376 0.03717 0.23988-0.05615-0.23408-0.16313-0.12781-0.16113 0.35347 0.0066 0.29533 0.10295 0.35031 0.16336 0.2278 0.25028-0.11509 0.08167-0.0806 0.09672 0.11995 0.05241 0.35351-0.0781 0.64174 0.02602 0.53777 0.19425-0.0498 0.08057-0.004 0.09896 0.1242 0.0498 0.2664-0.10223 1.1786 0.26269 1.0751 0.4301-0.0492 0.07957-0.005 0.0992 0.11778 0.05215 0.26481-0.10162 1.0752 0.24391 0.97026 0.4137-0.0487 0.07875-0.0144 0.10815 0.0851 0.07299 0.19087-0.06744 0.79486 0.21701 1.7274 0.81354l0.64658 0.41362 2.9743-0.0031 2.9742-0.0031-1.0195-0.66118c-2.3041-1.4943-3.6645-1.963-7.3163-2.5206-1.2664-0.19339-2.4319-0.44533-2.9385-0.63522l-0.83957-0.31471-6.1625 0.02089c-6.5245 0.02212-10.983 0.16694-15.307 0.49719-3.4679 0.26489-3.3294 0.28444-3.5783-0.50509-0.37844-1.2006-1.045-3.9721-1.1178-4.6476-0.067-0.62152-0.0495-0.6919 0.21433-0.86478 0.16093-0.10545 0.97209-0.28144 1.8448-0.40026 1.3305-0.18115 2.5252-0.21244 8.1956-0.21467 5.7056-0.0022 6.5648-0.025 6.1169-0.16204-1.385-0.42371-2.564-0.51841-7.2514-0.58244-4.8634-0.06643-8.5794 0.05789-11.852 0.39649-2.556 0.26449-3.0114 0.37684-1.2558 0.30978 1.7967-0.06863 2.2563 0.0014 2.7532 0.41954 0.48008 0.40397 0.56268 0.63613 0.84479 2.3747 0.2612 1.6098 0.6885 3.7003 0.83832 4.1015 0.0774 0.20736 0.0479 0.27952-0.13867 0.33873-0.13038 0.04138-0.39522 0.38158-0.58853 0.75599s-0.35407 0.63848-0.35724 0.58681c-0.003-0.05167 0.12916-0.36022 0.29408-0.68566 0.16491-0.32545 0.29984-0.6205 0.29984-0.65568 0-0.03517-0.33732-0.06418-0.74961-0.06444-1.2877-0.0008-4.2148-0.57062-5.9396-1.1562l-0.5568-0.18904-0.33498 0.3749c-0.18423 0.2062-0.33497 0.47588-0.33497 0.59929 0 0.2254 1.1328 1.2205 2.1289 1.8701 0.28036 0.18283 0.50974 0.35528 0.50974 0.38323 0 0.10818-0.78031-0.41549-1.695-1.1375l-0.95645-0.75499-0.24308 0.27523-0.24308 0.27523 0.18854-0.29515c0.1802-0.2821 0.17134-0.31387-0.20028-0.7185-0.29541-0.32164-0.30969-0.35387-0.0595-0.13416 0.18114 0.15905 0.34531 0.26649 0.3648 0.23874 0.0195-0.02775 0.17837-0.27374 0.35304-0.54666l0.3176-0.49622-0.56247-0.20781c-0.63348-0.23405-1.4931-0.70006-1.9418-1.0526-0.27748-0.21806-0.28026-0.22962-0.0373-0.15503 0.19945 0.06123 0.29772 0.01435 0.40879-0.19502 0.315-0.59371 1.5092-2.1173 2.3076-2.9443 0.4618-0.47826 0.78666-0.86956 0.72192-0.86956-0.209 0-2.1139 0.6813-3.1012 1.1091-1.2474 0.54058-2.317 1.0802-3.3579 1.6942l-0.83922 0.495 0.71928 0.076 0.71928 0.076-0.7796 0.00012c-0.9704 0.00024-1.0809 0.02009-0.77961 0.14033 0.13957 0.05569-0.43724 0.10184-1.3793 0.11037-2.052 0.01857-3.2121 0.12779-3.4049 0.32053-0.22583 0.22584-0.59261 3.3637-0.52866 4.5228 0.0447 0.80985 0.123 1.122 0.42912 1.7103l0.37447 0.71964 0.008-0.71964c0.0159-1.4595 0.56353-3.2274 1.1818-3.8154 1.048-0.99665 1.8302-0.10118 2.4129 2.7625 0.17503 0.86013 0.72678 4.7729 0.72678 5.154 0 0.02027 0.12144 0.04421 0.26986 0.05319l0.26987 0.01633-0.26987 0.05197c-0.21248 0.04092-0.2698 0.13309-0.26956 0.43344l0.0003 0.38146 2.2486 0.5717c1.2367 0.31444 4.1916 1.1064 6.5664 1.76 2.3748 0.65358 4.3913 1.1924 4.4811 1.1974 0.12433 0.007 0.14316-0.09812 0.0789-0.44042zm-0.66201-0.63139c-0.11964-0.07637-0.12968-0.11544-0.03-0.11667 0.0849-0.0011 0.14992-0.15216 0.14992-0.34873 0-0.33016-0.0408-0.35689-0.84525-0.55404-0.46489-0.11393-0.82169-0.23071-0.79288-0.25952 0.0288-0.02881 0.37649 0.0316 0.77262 0.13425 0.39612 0.10265 0.74966 0.18663 0.78563 0.18663 0.036 0 0.0831-0.2024 0.10465-0.44977l0.0393-0.44977 0.058 0.47976c0.0319 0.26387 0.0309 0.70767-0.002 0.98623-0.0491 0.41434-0.0927 0.48558-0.23987 0.39164zm-0.50224-0.20044c0.0866-0.03465 0.19002-0.03038 0.22988 0.0095 0.0398 0.03985-0.0309 0.06821-0.15742 0.06299-0.13972-0.0058-0.16814-0.03417-0.0724-0.07246zm-0.47976-0.11994c0.0866-0.03465 0.19003-0.03039 0.22989 0.0095 0.0398 0.03985-0.031 0.0682-0.15743 0.06299-0.13972-0.0058-0.16814-0.03418-0.0724-0.07246zm-1.6916-0.36435c-0.64593-0.16683-1.1516-0.32614-1.1237-0.35402 0.0532-0.05316 2.5002 0.54261 2.5876 0.62998 0.0993 0.09935-0.30814 0.02253-1.4639-0.27596zm-1.5467-0.47522c0.0866-0.03465 0.19002-0.03039 0.22988 0.0095 0.0398 0.03985-0.031 0.0682-0.15742 0.06299-0.13973-0.0058-0.16814-0.03417-0.0725-0.07246zm-0.47976-0.11994c0.0866-0.03465 0.19002-0.03039 0.22988 0.0095 0.0398 0.03985-0.031 0.0682-0.15742 0.06299-0.13972-0.0058-0.16814-0.03418-0.0724-0.07246zm-0.47976-0.11994c0.0866-0.03465 0.19003-0.03038 0.22989 0.0095 0.0398 0.03985-0.031 0.0682-0.15743 0.06299-0.13972-0.0058-0.16814-0.03417-0.0724-0.07246zm-0.15742-0.88603c-4.7099-1.3307-4.6345-1.3065-4.5408-1.4582 0.0523-0.0846 0.0142-0.10712-0.10442-0.06163-0.19552 0.07503-0.55852-0.24954-0.79706-0.71269-0.15087-0.29293-0.18199-0.53747-0.04-0.31406 0.0602 0.0947 0.15146 0.10554 0.26803 0.03182 0.14845-0.09388 0.14315-0.11207-0.0332-0.11361-0.11543-0.00096-0.20989-0.05899-0.20989-0.12885s-0.054-0.09366-0.11994-0.05289c-0.14893 0.09204-0.15067-0.01435-0.008-0.51053 0.0688-0.23988 0.0688-0.38901 0-0.38901-0.0613 0-0.11582 0.12144-0.12103 0.26986-0.006 0.14842-0.0353 0.20638-0.067 0.1288s-0.007-0.41614 0.0536-0.75235c0.0611-0.33621 0.0676-0.63817 0.0145-0.67104-0.0532-0.03286-0.11792 0.14378-0.14387 0.39254-0.0325 0.31096-0.0535 0.22074-0.0673-0.28877-0.0146-0.53466 0.0323-0.79355 0.16831-0.92953 0.10367-0.10366 0.13608-0.18848 0.072-0.18848-0.064 0-0.13574-0.24288-0.15936-0.53973-0.0236-0.29685-0.0152-0.53973 0.0187-0.53973s0.54285 0.1889 1.131 0.41979c0.58811 0.23088 1.0834 0.41979 1.1006 0.41979 0.0173 0 0.0538-0.14842 0.0813-0.32983 0.0484-0.31988 0.0505-0.31856 0.068 0.04391 0.0169 0.35181 0.0708 0.39299 0.91751 0.70182 0.87862 0.32045 0.89955 0.33756 0.89955 0.7357 0 0.22419 0.0606 0.40762 0.13463 0.40762 0.0955 0 0.093 0.05014-0.009 0.17266-0.0788 0.09496-0.1259 0.322-0.10464 0.50454 0.0375 0.32187 0.11199 0.35411 2.4693 1.0685 1.3368 0.40517 2.4658 0.77182 2.5087 0.81479 0.23518 0.23518-0.26813 0.12038-2.4877-0.56741l-2.4516-0.75971-0.0405 0.30931c-0.0223 0.17012 0.0205 0.32963 0.095 0.35447 0.0997 0.03323 0.10019 0.08766 0.002 0.20615-0.0735 0.08855-0.11621 0.30491-0.095 0.48081 0.0369 0.30565 0.1415 0.35079 2.3605 1.0189 2.6297 0.79176 2.7708 0.84181 2.5786 0.91433-0.10637 0.04013-4.0953-1.0936-4.8105-1.3673-0.0984-0.03765-0.1497 0.06035-0.14927 0.2853 0.00065 0.33722 0.0269 0.35019 1.6492 0.81654 2.199 0.63213 3.7287 1.1225 3.5076 1.1245-0.099 0.000799-1.6912-0.42534-3.5382-0.94718zm-4.9899-1.942c-0.35873-0.51951-0.34685-0.50697-0.34685-0.366 0 0.13329 0.45844 0.7558 0.55659 0.7558 0.0327 0-0.0617-0.17541-0.20974-0.3898zm1.0599-1.2419c-0.0398-0.03985-0.14331-0.04411-0.22989-0.0095-0.0957 0.03829-0.0672 0.06671 0.0725 0.07246 0.12644 0.0052 0.19727-0.02314 0.15742-0.06299zm3.6082 3.9485c0.0866-0.03465 0.19002-0.03038 0.22988 0.0095 0.0398 0.03985-0.031 0.0682-0.15742 0.06299-0.13973-0.0058-0.16814-0.03417-0.0725-0.07246zm-0.47976-0.11994c0.0866-0.03465 0.19002-0.03038 0.22988 0.0095 0.0398 0.03985-0.031 0.06821-0.15742 0.06299-0.13972-0.0058-0.16814-0.03417-0.0724-0.07246zm-2.016-0.449c-1.4878-0.38514-2.19-0.61212-1.4992-0.48469 0.1979 0.03651 0.45427 0.09444 0.56971 0.12874 0.1684 0.05002 0.21301-0.01632 0.22569-0.33553l0.0157-0.39788 0.0742 0.41262c0.0728 0.40536 0.0921 0.41713 1.0936 0.66905 0.56071 0.14104 1.1004 0.28843 1.1994 0.32754 0.46698 0.18454-0.28116 0.04204-1.6791-0.31984zm8.1978-1.0294c0-0.56072 0.0206-0.7901 0.0459-0.50974s0.0253 0.73912 0 1.0195c-0.0253 0.28036-0.0459 0.05097-0.0459-0.50974zm-10.379 0.398c0.0866-0.03465 0.19002-0.03039 0.22988 0.0095 0.0398 0.03985-0.0309 0.0682-0.15742 0.06299-0.13972-0.0058-0.16814-0.03418-0.0724-0.07246zm-1.1169-0.27789c-0.1512-0.06497-0.17337-0.10308-0.06-0.10308 0.099 0 0.28786 0.04638 0.41979 0.10308 0.1512 0.06498 0.17337 0.10308 0.06 0.10308-0.099 0-0.28785-0.04638-0.41979-0.10308zm-0.56221-0.20187c0.0866-0.03465 0.19003-0.03038 0.22989 0.0095 0.0398 0.03985-0.031 0.06821-0.15743 0.06299-0.13972-0.0058-0.16814-0.03417-0.0724-0.07246zm8.0838-0.42774c-1.1684-0.35821-1.5565-0.52348-1.4543-0.61916 0.10111-0.09458 0.15473-0.08904 0.19474 0.02015 0.0304 0.08287 0.10348 0.12085 0.16246 0.0844 0.14576-0.09009 1.0717 0.19565 1.0717 0.33072 0 0.05942 0.0553 0.07387 0.12285 0.0321 0.11611-0.07176 2.036 0.50472 2.036 0.61135 0 0.13266-0.67886-0.01357-2.1335-0.45955zm-2.4175-0.7373c-0.30578-0.11047-0.36997-0.17597-0.24697-0.25199 0.10355-0.064 0.18404-0.04921 0.21352 0.0392 0.026 0.07806 0.0942 0.11295 0.15148 0.07754 0.15799-0.09764 0.72275 0.07311 0.64703 0.19562-0.085 0.13757-0.25413 0.12422-0.76506-0.06037zm22.932-0.04172c0.57721-0.02199 1.5217-0.02199 2.0989 0 0.57721 0.02199 0.10495 0.03997-1.0495 0.03997s-1.6267-0.01799-1.0495-0.03997zm3.838-0.11801c0.24738-0.02587 0.65217-0.02587 0.89955 0 0.24737 0.02587 0.045 0.04705-0.44978 0.04705-0.49475 0-0.69714-0.02117-0.44977-0.04705zm0.23988-0.35835c0.18141-0.02748 0.47826-0.02748 0.65967 0s0.0329 0.04997-0.32984 0.04997c-0.36281 0-0.51123-0.02248-0.32983-0.04997zm-22.698-0.14106c0-0.08085-0.0535-0.11393-0.11893-0.07351-0.15126 0.09349-1.4403-0.30759-1.4403-0.44814 0-0.05781-0.0535-0.07204-0.11893-0.03162-0.0654 0.04042-0.41694-0.02045-0.78118-0.13526-0.47889-0.15096-0.62447-0.24407-0.52575-0.33628 0.0971-0.09067 0.15247-0.08398 0.19173 0.02315 0.0304 0.08287 0.10413 0.12045 0.1639 0.08351 0.13709-0.08472 1.43 0.31638 1.43 0.44363 0 0.05185 0.081 0.06321 0.17991 0.02523 0.099-0.03797 0.18003-0.02278 0.18018 0.03375 0.00012 0.05653 0.16529 0.1087 0.36696 0.11592 0.38056 0.01363 0.6971 0.22188 0.5543 0.36468-0.0451 0.04507-0.082 0.01581-0.082-0.06505zm31.335-0.52294-0.50903-0.6294 0.38909-0.03988c0.33698-0.03454 0.45703 0.03774 0.89637 0.53973 0.27899 0.31879 0.50838 0.62009 0.50974 0.66956 0.002 0.04948-0.17294 0.08983-0.38734 0.08967-0.32543-0.000239-0.47385-0.10422-0.89883-0.62968zm1.047 0.42007c-0.0008-0.04948-0.17758-0.29772-0.39244-0.55165-0.28824-0.34066-0.46468-0.45071-0.67302-0.41979-0.28171 0.04181-0.28143 0.04307 0.12258 0.54546 0.25237 0.31383 0.50662 0.50588 0.6748 0.50974 0.14843 0.0034 0.26907-0.03429 0.26808-0.08376zm-33.041-0.92198c-0.85756-0.28882-1.5052-0.52912-1.4393-0.53398 0.066-0.0049 0.84857 0.23014 1.7391 0.52224 0.89055 0.2921 1.5382 0.53239 1.4393 0.53398-0.099 0.0016-0.88155-0.23341-1.7391-0.52224zm43.03 0.44611c0.18231-0.02757 0.45218-0.02683 0.59969 0.0016 0.14753 0.02847-0.002 0.05102-0.33148 0.05013-0.32983-0.00096-0.45052-0.0242-0.26821-0.05177zm1.0778-0.11655c0.11545-0.03017 0.30435-0.03017 0.41979 0 0.11545 0.03017 0.021 0.05485-0.20989 0.05485s-0.32533-0.02468-0.2099-0.05485zm-1.737-0.12418c0.21557-0.02669 0.5394-0.02615 0.71963 0.0012 0.18023 0.02737 0.004 0.04921-0.39195 0.04854-0.3958-0.00072-0.54325-0.02307-0.32768-0.04976zm1.3186-0.11784c0.1492-0.02869 0.36509-0.0276 0.47976 0.0024 0.11467 0.03002-0.007 0.05349-0.27126 0.05216-0.26387-0.0014-0.35769-0.02589-0.2085-0.05458zm-47.214-0.26801c-0.50039-0.16121-0.59578-0.22775-0.42208-0.29441 0.12785-0.04906 0.24273-0.03123 0.26695 0.04143 0.0234 0.07015 0.0908 0.09773 0.14975 0.06128 0.15495-0.09577 1.0758 0.20096 1.0007 0.32246-0.0837 0.13542-0.2279 0.11648-0.99532-0.13076zm12.528-0.45158c-0.0651-0.17094-0.0513-0.18471 0.0672-0.06714 0.082 0.08136 0.11882 0.17814 0.0819 0.21507-0.0369 0.03693-0.104-0.02964-0.14904-0.14792zm-12.062-0.335c-0.62668-0.22052-1.0834-0.40519-1.0149-0.41037 0.0685-0.0052 0.66219 0.17539 1.3193 0.40127 0.65714 0.22588 1.1138 0.41054 1.0149 0.41037-0.099-0.00012-0.69265-0.18075-1.3193-0.40127zm4.9775 0.17991c-0.15121-0.06498-0.17337-0.10308-0.06-0.10308 0.099 0 0.28785 0.04638 0.41978 0.10308 0.15121 0.06497 0.17337 0.10308 0.06 0.10308-0.099 0-0.28785-0.04638-0.41978-0.10308zm14.366 0.03163c0.31533-0.02479 0.80108-0.02449 1.0794 0.00072 0.27837 0.02516 0.0204 0.04543-0.57333 0.04507-0.5937-0.00036-0.82145-0.02095-0.50612-0.04574zm2.3988-0.11994c0.31532-0.02479 0.80108-0.02449 1.0794 0.00072 0.27836 0.02515 0.0204 0.04543-0.57334 0.04507-0.59369-0.00036-0.82145-0.02095-0.50611-0.04574zm-17.882-0.2335c-0.28449-0.10061-0.49605-0.20413-0.47015-0.23003s0.33962 0.05673 0.69715 0.18364c0.35752 0.1269 0.56909 0.23042 0.47014 0.23003-0.099-0.00036-0.41266-0.08302-0.69714-0.18364zm2.9267-0.038c0.1516-0.66682 1.2087-1.8117 1.6562-1.7938 0.0727 0.0029-0.0673 0.11066-0.31114 0.23944-0.48191 0.25451-0.92583 0.77488-1.2237 1.4344-0.12317 0.27274-0.1657 0.31475-0.12142 0.11994zm4.8991-0.13495c-0.10661-0.20616-0.44532-0.62206-0.7527-0.92423-0.38534-0.37881-0.44328-0.46859-0.18659-0.28914 0.48063 0.336 1.4222 1.5882 1.1942 1.5882-0.0336 0-0.14833-0.16867-0.25494-0.37483zm-7.1886-0.33598c-0.94337-0.45914-0.79214-0.47033 0.1936-0.01433 0.42125 0.19487 0.71194 0.35662 0.64597 0.35944-0.066 0.0028-0.44377-0.15248-0.83957-0.34512zm1.5057 0.09377c-0.008-0.23479 0.47163-1.8234 0.53192-1.7631 0.023 0.02299-0.0858 0.47348-0.24184 1.0011-0.15601 0.52761-0.28655 0.87052-0.29008 0.76203zm-3.9041-0.2387c-0.65362-0.26498-0.89808-0.42836-0.42065-0.28113 0.44092 0.13596 1.2791 0.51993 1.1399 0.52217-0.066 0.0011-0.38964-0.1074-0.71927-0.24104zm21.727-0.64592c-1.0222-0.64722-1.1792-0.80432-0.34539-0.34571 0.56687 0.3118 1.3796 0.89004 1.2261 0.87231-0.0329-0.0038-0.42931-0.24078-0.88074-0.5266zm-24.007-0.28284c-0.72563-0.31395-1.5585-0.69462-1.8508-0.84594-0.50795-0.26295-0.53845-0.26555-0.68965-0.05877-0.087 0.11899-0.1582 0.16285-0.1582 0.09747s0.0579-0.17679 0.12871-0.24758c0.0916-0.09164-0.0983-0.25565-0.65967-0.56958-0.4336-0.24248-0.78837-0.46787-0.78837-0.50085s0.34252 0.13158 0.76115 0.36569 0.89089 0.42648 1.0495 0.42749c0.19647 0.0013 0.23893 0.03317 0.1333 0.10018-0.1582 0.10036 1.0804 0.72753 2.7637 1.3994 0.7284 0.29074 0.97366 0.43062 0.71964 0.41043-0.0495-0.0039-0.68365-0.26402-1.4093-0.57797zm2.9142 0.23812c-0.7795-0.44398-0.8858-0.58876-0.15564-0.21197 0.70427 0.36342 1.007 0.55967 0.83958 0.54426-0.066-0.0061-0.37374-0.1556-0.68394-0.33228zm-5.7233-0.68248c0.006-0.13972 0.0341-0.16814 0.0724-0.07246 0.0346 0.08658 0.0304 0.19003-0.009 0.22988-0.0398 0.03985-0.0682-0.03098-0.063-0.15742zm11.896 0.10384c0.18232-0.02757 0.45218-0.02683 0.5997 0.0016 0.14751 0.02847-0.002 0.05102-0.33148 0.05013-0.32984-0.00096-0.45053-0.0242-0.26822-0.05177zm12.922-0.51266c-0.49475-0.2568-1.3448-0.64391-1.889-0.86024-0.54422-0.21632-0.9895-0.42718-0.9895-0.46857 0-0.13724 2.28-0.22875 7.4962-0.30085 4.5105-0.06234 5.2251-0.04758 5.6971 0.11776 0.29685 0.10398 0.4183 0.16769 0.26987 0.14158-0.38394-0.06753-0.33388 0.03239 0.11994 0.23942l0.3898 0.17783-0.41031-0.07771c-0.43785-0.08293-10.698 0.15935-11.404 0.26929-0.41834 0.06514-0.41618 0.06718 0.62968 0.59414 0.57721 0.29083 1.0495 0.55518 1.0495 0.58745 0 0.08119 0.0401 0.09873-0.95951-0.42011zm-9.5352-0.36079c-0.1512-0.06498-0.17336-0.10308-0.06-0.10308 0.099 0 0.28785 0.04639 0.41978 0.10308 0.15121 0.06498 0.17337 0.10308 0.06 0.10308-0.099 0-0.28785-0.04639-0.41979-0.10308zm-14.213-0.23988c0.099-0.06394 0.23388-0.11626 0.29984-0.11626 0.066 0 0.0389 0.05232-0.06 0.11626-0.099 0.06394-0.23388 0.11626-0.29984 0.11626-0.066 0-0.0389-0.05232 0.06-0.11626zm13.651 0.038c0.0866-0.03465 0.19003-0.03038 0.22989 0.0095 0.0398 0.03985-0.031 0.06821-0.15743 0.06299-0.13972-0.0058-0.16814-0.03417-0.0724-0.07246zm-0.60719-0.11744c0.0825-0.03327 0.21739-0.03327 0.29985 0 0.0825 0.03327 0.0149 0.0605-0.14993 0.0605-0.16491 0-0.23238-0.02723-0.14992-0.0605zm-1.1694-0.16044c-0.4047-0.08519-0.40686-0.08842-0.06-0.08996 0.1979-0.0008 0.52174 0.0396 0.71964 0.08996 0.31927 0.08124 0.32602 0.09138 0.06 0.08996-0.16492-0.0008-0.48876-0.04136-0.71964-0.08996zm-1.0195-0.35982c0.24581-0.27162 0.40455-0.33064 0.18822-0.06999-0.11192 0.13486-0.0964 0.18145 0.0752 0.22596 0.13331 0.03457 0.0826 0.06142-0.13217 0.06999-0.34099 0.01362-0.34379 0.0088-0.13133-0.22597zm-13.644-0.309c-0.44839-0.24325-0.42109-0.34457 0.03-0.11131 0.19789 0.10234 0.35981 0.21167 0.35981 0.24296 0 0.07718-0.0129 0.07283-0.3898-0.13165zm-0.83957-0.47976c-0.44839-0.24325-0.42109-0.34457 0.03-0.11131 0.1979 0.10234 0.35982 0.21167 0.35982 0.24296 0 0.07718-0.0129 0.07283-0.3898-0.13165zm3.3814-0.509c-0.2343-0.177-0.5581-0.418-0.7194-0.536-0.28195-0.20686-0.27789-0.20686 0.10572 0 0.37905 0.2044 1.2274 0.86877 1.1003 0.8617-0.0329-0.0018-0.25186-0.14807-0.48641-0.32496zm-4.7909-0.26165c-0.49475-0.25734-0.85772-0.47056-0.8066-0.47382 0.12751-0.0081 1.7661 0.82235 1.7661 0.89512 0 0.08099 0.0395 0.09834-0.95951-0.4213zm-2.039-0.84683c-0.49475-0.18563-0.84053-0.3409-0.7684-0.34504 0.16735-0.0096 1.4159 0.4184 1.6956 0.58127 0.35017 0.20387 0.0249 0.12099-0.92721-0.23623zm5.1574 0.06723c-0.29685-0.15895-0.4971-0.29145-0.44499-0.29443 0.12737-0.0073 1.0447 0.46402 1.0447 0.53674 0 0.07945 0.005 0.08147-0.5997-0.24232zm-1.1994-0.47976c-0.23089-0.08891-0.33883-0.16333-0.23988-0.16538 0.099-0.0021 0.34183 0.07043 0.53973 0.16104 0.46321 0.2121 0.24776 0.21521-0.29985 0.0043zm-5.7571-0.05997c-0.40681-0.08563-0.40867-0.08848-0.06-0.0922 0.1979-0.0021 0.49475 0.03938 0.65966 0.0922 0.39328 0.12595-0.002 0.12595-0.59969 0zm5.015-0.20187c0.0866-0.03465 0.19002-0.03038 0.22988 0.0095 0.0398 0.03985-0.0309 0.06821-0.15742 0.06299-0.13972-0.0058-0.16814-0.03417-0.0725-0.07246zm2.0015-0.10134c-0.26387-0.08696-0.37181-0.15983-0.23988-0.16192 0.13193-0.0021 0.4018 0.07033 0.5997 0.16095 0.45329 0.20756 0.26853 0.20806-0.35982 0.000959zm-2.6087-0.0161c0.0825-0.03327 0.2174-0.03327 0.29985 0 0.0825 0.03327 0.015 0.0605-0.14992 0.0605s-0.23238-0.02723-0.14993-0.0605zm1.4992-0.24312c0.11545-0.03017 0.30435-0.03017 0.41979 0s0.021 0.05485-0.20989 0.05485-0.32534-0.02468-0.2099-0.05485zm-3.7683 12.761c0.097-0.11688 0.041-0.23865-0.2252-0.48992-0.19485-0.18391-0.35427-0.38696-0.35427-0.45123s-0.0621-0.07843-0.13814-0.03148c-0.30521 0.18864-0.42585-0.29467-0.36905-1.4786 0.0434-0.90515 0.0122-1.2764-0.1373-1.6338-0.10642-0.25438-0.15918-0.51804-0.11723-0.58592 0.11523-0.18644 0.40098 0.41198 0.32882 0.68861-0.0509 0.19503-0.039 0.20624 0.0634 0.05997 0.0692-0.09895 0.12678-0.27436 0.12779-0.3898 0.002-0.22884 0.0227-0.24038 0.26482-0.14747 0.1073 0.04117 0.15441 0.23512 0.1384 0.56971-0.0134 0.27901 0.00044 0.37236 0.0306 0.20744 0.12616-0.68887 0.1782-0.83958 0.28989-0.83958 0.0647 0 0.11765 0.16192 0.11765 0.35982s-0.054 0.35982-0.11994 0.35982c-0.066 0-0.11567 0.09445-0.11047 0.20989 0.006 0.12662 0.0336 0.15012 0.0702 0.05922 0.12165-0.30174 0.28036-0.0013 0.28926 0.54755 0.005 0.30945 0.0867 0.75154 0.18145 0.98242l0.17232 0.41979-0.0708-0.41979c-0.19586-1.1614-0.19452-1.2878 0.0179-1.6896 0.119-0.22513 0.22583-0.51727 0.23738-0.6492 0.0115-0.13193 0.0475-0.42878 0.0799-0.65966s0.0372-0.33692 0.0107-0.23564c-0.057 0.21794-0.42908 0.46676-0.89982 0.60177-0.27238 0.07812-0.3624 0.05191-0.4622-0.13456-0.0682-0.12736-0.21649-0.22986-0.3296-0.22776-0.18246 0.0034-0.1794 0.02368 0.0272 0.17991 0.12805 0.09685 0.17303 0.17609 0.1 0.17609-0.0731 0-0.24971-0.14842-0.39254-0.32983-0.17146-0.21779-0.23526-0.25337-0.18784-0.10474 0.0395 0.1238 0.023 0.28572-0.0365 0.35982-0.14975 0.18609-0.23814 2.4769-0.0921 2.3867 0.0686-0.04239 0.0854 0.10499 0.0423 0.37076-0.0495 0.3049-0.031 0.41598 0.0601 0.35971 0.0867-0.05356 0.10858 0.0071 0.0641 0.17739-0.0433 0.16584-0.0218 0.23046 0.06 0.17991s0.10333 0.01407 0.06 0.17991c-0.0415 0.15874-0.0206 0.22974 0.0539 0.18364 0.0747-0.04615 0.0927 0.01596 0.0467 0.1609-0.17093 0.53859 0.75797 1.1402 1.1085 0.7179zm-0.78599-0.11432c-0.23296-0.30122-0.2871-0.50121-0.0603-0.22273 0.18742 0.23012 0.30241 0.27101 0.58012 0.20625 0.25395-0.05922 0.29836-0.04828 0.16645 0.04098-0.24614 0.16657-0.5468 0.15583-0.68627-0.02451zm0.88513-3.5375c-0.0452-0.07328 0.0499-0.28558 0.21146-0.47176 0.18959-0.21843 0.28427-0.26976 0.26691-0.14471-0.045 0.32457-0.38668 0.76482-0.47837 0.61647zm19.062 2.5186c-0.13102-0.13102-0.22086 0.07734-0.1268 0.29407 0.0892 0.2055 0.0957 0.20531 0.14536-0.0042 0.0286-0.1206 0.0202-0.25104-0.0186-0.28985zm-18.998-0.691c-0.17181-0.52773-0.34906-0.9865-0.39388-1.0195-0.0448-0.03298-0.10846-0.16791-0.14143-0.29985-0.0544-0.21777-0.0612-0.215-0.0739 0.02998-0.008 0.15374-0.0913 0.26986-0.19382 0.26986-0.22326 0-0.25004-0.67393-0.03-0.75462 0.11323-0.04151 0.11619-0.09091 0.0122-0.20176-0.19243-0.20499-0.32744 0.45239-0.22159 1.0789 0.0771 0.45624 0.29076 0.69 0.2561 0.28017-0.009-0.10834 0.0504-0.22067 0.13253-0.24963 0.17326-0.06114 0.43046 0.52938 0.33684 0.77337-0.0394 0.10282-0.0114 0.13329 0.074 0.0805 0.0943-0.0583 0.11526-0.00009 0.0667 0.18554-0.0389 0.14877-0.0375 0.23727 0.003 0.19667 0.0406-0.0406 0.14573 0.09715 0.2336 0.30613 0.29193 0.6943 0.25644 0.29744-0.0605-0.67582zm20.366 0.83957c0.23088-0.08891 0.33883-0.1682 0.23988-0.17619-0.099-0.008-0.018-0.09312 0.1799-0.18916l0.35982-0.17463-0.44413 0.06448c-0.38073 0.05528-0.47276 0.0208-0.64461-0.24148-0.32492-0.49588-0.35368-1.2646-0.0712-1.9032l0.2465-0.55722-0.2458-0.13154c-0.32971-0.17646-0.41743-0.05612-0.57015 0.78226-0.19012 1.0436-0.16487 2.1232 0.0571 2.44 0.21221 0.30298 0.30709 0.31219 0.89274 0.08666zm-0.81559-0.2039c-0.0894-0.08939-0.13574-0.46436-0.12232-0.9895l0.0216-0.84557 0.0684 0.89954 0.0684 0.89954 0.41979 0.07416c0.41661 0.0736 0.41702 0.07428 0.054 0.08995-0.20119 0.0087-0.43058-0.04898-0.50974-0.12814zm-0.0006-2.1949c0.002-0.1979 0.0293-0.26434 0.0597-0.14764s0.0284 0.27862-0.005 0.35982c-0.0329 0.0812-0.0577-0.01427-0.0553-0.21218zm0.1155-0.65966c0-0.16492 0.0273-0.23238 0.0605-0.14992 0.0333 0.08246 0.0333 0.21739 0 0.29985s-0.0605 0.01499-0.0605-0.14992zm-20.227 1.82c-0.10198-0.10197-0.156 0.01951-0.23092 0.51926l-0.072 0.47976 0.18164-0.46928c0.0999-0.25811 0.15444-0.49649 0.1212-0.52973zm-0.46078 0.18943c-0.0333-0.08246-0.0605-0.01499-0.0605 0.14992 0 0.16492 0.0273 0.23238 0.0605 0.14992 0.0333-0.08246 0.0333-0.21739 0-0.29985zm0.52027-0.44977c0-0.06597-0.054-0.11994-0.11994-0.11994-0.066 0-0.11994 0.05397-0.11994 0.11994s0.054 0.11994 0.11994 0.11994c0.066 0 0.11994-0.05397 0.11994-0.11994zm1.1614-0.14243c-0.0383-0.09568-0.0667-0.06726-0.0724 0.07246-0.006 0.12644 0.0231 0.19728 0.063 0.15742 0.0398-0.03985 0.0441-0.1433 0.009-0.22988zm-0.42505-2.3723c0.15573-0.12974 0.22918-0.24391 0.16321-0.25371-0.066-0.0098-0.19832-0.02509-0.29412-0.03398-0.0958-0.0089-0.21186-0.15108-0.2579-0.316-0.0712-0.2547-0.0855-0.23091-0.0957 0.15801-0.011 0.41868 0.0111 0.4516 0.25791 0.3848 0.24923-0.06747 0.24694-0.05924-0.03 0.10761-0.16491 0.09936-0.23836 0.18258-0.16321 0.18491 0.0752 0.0023 0.26406-0.1019 0.41979-0.23164zm-0.7372-0.904c0.002-0.32983 0.0373-0.88582 0.0792-1.2355 0.0597-0.49728 0.11546-0.62082 0.2558-0.56696 0.14827 0.0569 0.15311 0.03712 0.0278-0.1138-0.37201-0.44824-1.2634 0.09494-1.1112 0.6771 0.0457 0.17472 0.0232 0.22996-0.0702 0.17225-0.0891-0.05508-0.11234-0.01949-0.066 0.10118 0.0393 0.10238 0.0167 0.18614-0.0501 0.18614-0.0669 0-0.0911 0.11638-0.0539 0.25863 0.0464 0.1772 0.0239 0.23162-0.0712 0.17283-0.0764-0.04719-0.13883-0.04805-0.13883-0.0019 0 0.1725 0.52614 1.1297 0.62096 1.1297 0.13434 0 0.12506-0.20942-0.013-0.29478-0.0652-0.04027-0.0114-0.43076 0.12892-0.93661 0.13237-0.47715 0.21898-1.016 0.19249-1.1974-0.0366-0.25074 0.002-0.32983 0.15829-0.32983 0.17721 0 0.19167 0.06377 0.10203 0.44977-0.0574 0.24737-0.10656 0.80059-0.10914 1.2294-0.003 0.54843-0.0392 0.72626-0.12097 0.5997-0.13334-0.20635-0.1505-0.06643-0.0417 0.33997 0.11622 0.43404 0.27738 0.06677 0.28078-0.63982zm-1.2366 0.3973c-0.0383-0.09568-0.0667-0.06726-0.0724 0.07246-0.006 0.12644 0.0231 0.19728 0.063 0.15742 0.0398-0.03986 0.0441-0.1433 0.009-0.22988zm1.5567-1.5667c-0.0333-0.08246-0.0605-0.01499-0.0605 0.14992 0 0.16492 0.0272 0.23238 0.0605 0.14992s0.0333-0.21739 0-0.29985zm42.706-1.841c-0.0398-0.03985-0.1433-0.04411-0.22988-0.0095-0.0957 0.03828-0.0673 0.06671 0.0724 0.07246 0.12644 0.0052 0.19728-0.02314 0.15743-0.06299zm-27.674-1.8444c0.20818-0.50258 0.10527-0.66139-0.54694-0.844-0.31332-0.08772-0.84446-0.34606-1.1803-0.57408-0.90986-0.61771-1.2926-0.74298-2.2698-0.74298-0.72759 0-0.9465 0.04662-1.2167 0.25913-0.29615 0.23295-0.32384 0.31738-0.27404 0.83559 0.0305 0.31705 0.11704 0.65075 0.19239 0.74154 0.0995 0.11986 0.63824 0.18682 1.967 0.24449 1.0065 0.04367 2.0999 0.15526 2.4297 0.24797 0.32984 0.09271 0.63363 0.17338 0.6751 0.17928 0.0415 0.0059 0.14207-0.15022 0.22355-0.34694zm-1.1385-0.27101c-0.1979-0.06317-0.6027-0.1868-0.89955-0.27472-0.43404-0.12856-0.47514-0.16145-0.20989-0.16796 0.18141-0.0045 0.32983-0.06207 0.32983-0.12803 0-0.06597-0.0437-0.11994-0.097-0.11994s-0.20179-0.08226-0.32984-0.1828c-0.23016-0.18072-0.18934-0.16601 1.2964 0.46704 0.66767 0.28448 0.59246 0.62425-0.0899 0.40642zm29.338-0.34515c1.3102-0.17405 1.4264-0.24072 1.4264-0.81882 0-0.37186-0.0738-0.527-0.36902-0.77538-0.57811-0.48644-1.26-0.3823-2.2471 0.34317-0.21849 0.16058-0.69075 0.35765-1.0495 0.43793-0.35872 0.08028-0.65222 0.1818-0.65222 0.2256s0.27121 0.30027 0.6027 0.56992c0.57705 0.46941 0.61715 0.48306 0.94244 0.32079 0.18686-0.09322 0.7927-0.22966 1.3463-0.3032zm-2.4105-0.28412c-0.16935-0.20405-0.20677-0.18368 0.89837-0.4889 0.3958-0.10931 0.77091-0.24674 0.83357-0.3054 0.0627-0.05867 0.16914-0.10666 0.23659-0.10666 0.0675 0 0.002 0.08465-0.14594 0.18812-0.39289 0.27519-0.21964 0.40945 0.55211 0.42787l0.68257 0.01629-0.83957 0.0918c-0.46177 0.05049-0.99151 0.1511-1.1772 0.22359-0.46761 0.18252-0.86506 0.16469-1.0405-0.0467zm1.3182-0.29919c0-0.04877-0.21589-0.03106-0.47975 0.03936-0.26387 0.07043-0.47976 0.16514-0.47976 0.21046s0.21589 0.02761 0.47976-0.03937c0.26386-0.06697 0.47975-0.16168 0.47975-0.21046zm-3.2384 0.79622c0-0.07304-2.6671-2.1877-3.6582-2.9005-1.7678-1.2714-3.2414-1.7787-5.5992-1.9276-1.6104-0.10172-1.6982-0.3669 0.72338 2.1855l1.7208 1.8138 0.80242 0.05741c0.44133 0.03158 0.9353 0.1329 1.0977 0.22517 0.1759 0.09992 1.1683 0.24586 2.4542 0.36091 1.1874 0.10623 2.2264 0.20068 2.3088 0.20989 0.0825 0.0092 0.14993-0.0018 0.14993-0.02453zm-30.132-0.75175 0.13295-0.43321-0.92243 0.06678c-0.75201 0.05444-0.82387 0.04626-0.38895-0.04434 0.31787-0.06621 0.63293-0.22896 0.7796-0.40269 0.72002-0.85291 2.585-3.1786 2.585-3.2236 0-0.10034-1.2615 0.06435-1.5149 0.19777-0.53284 0.28053-2.563 2.9629-2.563 3.3864 0 0.17168 1.2455 0.87047 1.5691 0.88031 0.11585 0.0035 0.24157-0.16299 0.32274-0.42744zm19.629-2.3254c-1.5201-1.6784-1.521-1.6791-2.0533-1.6791h-0.53252l0.33761 0.4772c0.18569 0.26246 0.42821 0.47835 0.53895 0.47976 0.24315 0.0031 0.29537 0.05558 1.3579 1.3648 0.81837 1.0084 0.85262 1.0346 1.3558 1.0355l0.51626 0.00096-1.5208-1.6791zm-14.938 0.46168c0.20459-0.15865 0.48842-0.2218 0.99685-0.2218h0.7108l-0.084-0.56971c-0.0461-0.31334-0.14132-0.60661-0.21143-0.6517-0.27691-0.17811-1.8777-0.24719-2.241-0.09671-0.35218 0.14588-1.4412 1.2387-1.6811 1.6871-0.11488 0.21466-0.0681 0.22132 1.0518 0.14965 0.87314-0.05588 1.2449-0.13156 1.458-0.2968zm5.8173-0.46795c0.49121-0.33328 1.3699-0.8182 1.9526-1.0776l1.0595-0.47163-1.2594 0.0014c-1.389 0.0015-4.793 0.19026-4.8729 0.27014-0.0278 0.0278 0.0401 0.463 0.15084 0.9671l0.20139 0.91655h0.93745c0.92841 0 0.94604-0.0058 1.8306-0.60597z"/>
 </g>
</svg>
