<?xml version="1.0" encoding="UTF-8" standalone="no"?>
<!-- Created with Inkscape (http://www.inkscape.org/) -->
<svg id="svg2" xmlns:rdf="http://www.w3.org/1999/02/22-rdf-syntax-ns#" xmlns="http://www.w3.org/2000/svg" height="45" width="67.5" version="1.1" xmlns:cc="http://creativecommons.org/ns#" xmlns:dc="http://purl.org/dc/elements/1.1/">
 <metadata id="metadata7">
  <rdf:RDF>
   <cc:Work rdf:about="">
    <dc:format>image/svg+xml</dc:format>
    <dc:type rdf:resource="http://purl.org/dc/dcmitype/StillImage"/>
    <dc:title/>
   </cc:Work>
  </rdf:RDF>
 </metadata>
 <g id="g74884">
  <rect id="rect2990" opacity="0" height="45" width="67.5" y="0" x="3.5527e-15"/>
  <g id="g74195" transform="matrix(0.75 0 0 0.75 -3.375 2.2499)">
   <path id="path92370" fill="#fff" d="m84.884 38.072c0.12386-0.28825 0.25865-0.64935 0.30176-0.94019 0.08622-0.58196 0.17243-1.7674 0.81906-2.9745 0.64662-1.207 0.86217-3.578 0.84061-4.5695-0.02155-0.99149-0.25865-1.0777-0.5173-1.3364-0.25865-0.25865-0.43108-0.45264-0.62507-0.40953l-0.08622-0.12932c0.043-1.122-5.216-4.7-7.846-6.079-2.629-1.379-7.285-1.81-9.354-2.155s-3.534-1.272-3.534-1.272 0.25764-0.19428 0.81805-0.36671 1.595-0.25865 2.2416-0.34487c0.64662-0.08622 1.207-0.17243 1.2501-1.0777 0.04311-0.90527-0.86216-1.5088-1.2932-1.595-0.43108-0.08622-1.6381 0.08622-1.8105 0.34487-0.17243 0.25865-0.38797 0.5173-1.0346 0.77595-0.64662 0.25865-1.983 0.56041-1.983 0.56041-0.64662-0.5173-7.242-4.8711-7.242-4.8711s-1.8537-1.1639-4.3108-1.7243c-1.8795-0.42864-5.9488-0.64662-9.9579-0.64662-4.0089 0-12.587 0.21554-17.761 1.0346-3.9269 0.62176-9.2683 3.3623-10.734 4.3108-1.4657 0.94838-2.0261 1.0777-2.7589 1.0777-0.73284 0-3.7935 0.12932-4.2246 0.21554-0.43108 0.08622-0.73284 0.08622-0.81906 0.5173 0 0-0.73284 4.3108-0.5173 5.0004-0.25865-0.08622-0.17243 2.0261 0.38797 2.9745l1.0382 2.0114 0.00877 0.008c-0.23005-0.95988-0.33538-2.3178 0.031757-3.9818 0.64662-2.9314 1.7243-3.4056 2.371-3.4487 0.64662-0.04311 1.6381 0.90527 2.371 5.561 0.73284 4.6557 0.77595 6.8542 0.77595 6.8542 2.371 0.43108 18.019 4.785 18.019 4.785-0.5173-2.1985-0.5173-4.0522-0.38797-5.561 0 0 0.30176-7.5871 3.578-7.8026 3.2762-0.21554 4.4402 4.6988 4.5264 5.0006 0.08622 0.30176 0.56041 0.08622 0.56041 0.08622l0.04311 0.25865c-0.43108 0.04311-0.47419 0.38798-0.30176 0.86217s0.86216 6.3369 1.0777 6.5525c0.21554 0.21554 0.30176 3.7504 0.30176 3.7504s6.38 0.43108 9.57 0.60352c3.19 0.17243 4.9143 0.25865 5.8627 0.5173 0.94838 0.25865 6.38 0.08622 10.26-0.08622 3.8797-0.17243 15.519-0.68973 20.002-2.2416l0.04181-0.05173z"/>
   <path id="path92374" d="m84.842 38.12c1.0346 0.08622 3.3624 0.43108 3.7935 1.3795 1.0346 0.08622 7.5871 2.3278 5.4316 3.19-2.1554 0.86216-26.9 1.8968-31.297 2.0692-4.397 0.17243-7.0698 0.34487-21.037-2.0692 0 0 2.4141 0.08622 4.0522-0.68973 0 0-6.6401 0.26727-10.691-0.43108-5.0006-0.86216-2.1554-1.0346-2.1554-1.0346l-1.0346-0.86217s-14.829-3.966-17.157-4.397l3.6211-0.43108s-5.9489 0.34487-8.7079-0.17243c-2.7589-0.5173-1.0346-0.68973-1.0346-0.68973s-1.0136-0.10662-1.6381-3.1038c-0.2135-1.034-0.2135-3.017-0.2135-3.017-0.388-0.518-1.207-2.501-0.5604-5.432 0.64662-2.9314 1.7243-3.4056 2.371-3.4487 0.64662-0.04311 1.6381 0.90527 2.371 5.561 0.73284 4.6557 0.77595 6.8542 0.77595 6.8542 2.371 0.43108 18.019 4.785 18.019 4.785-0.5173-2.1985-0.5173-4.0522-0.38797-5.561 0 0 0.30176-7.5871 3.578-7.8026 3.2762-0.21554 4.4402 4.6988 4.5264 5.0006 0.08622 0.30176 0.56041 0.08622 0.56041 0.08622l0.04311 0.25865c-0.43108 0.04311-0.47419 0.38797-0.30176 0.86216s0.86216 6.3369 1.0777 6.5525c0.21554 0.21554 0.30176 3.7504 0.30176 3.7504s6.38 0.43108 9.57 0.60352c3.19 0.17243 4.9143 0.25865 5.8627 0.5173 0.94838 0.25865 6.38 0.08622 10.26-0.08622 3.8792-0.17243 15.519-0.68973 20.002-2.2416z"/>
   <path id="path92376" d="m62.685 31.74c1.9374-0.09685 12.846-0.68973 14.915-0.90527 2.0692-0.21554 1.8537 0.56041 1.6812 1.1639-0.17243 0.60352-0.38798 1.0346-0.60352 1.5088-0.21554 0.47419-0.60352 0.73284-1.6381 0.90527s-11.553 0.90527-12.846 0.86217c-1.2932-0.04311-1.8535-0.34487-2.1554-0.94838-0.30176-0.60352-0.47419-0.86217-0.64662-1.3364-0.17229-0.47405-0.43094-1.1639 1.2934-1.2501z"/>
   <path id="path92378" d="m57.124 36.439s-3.2331 0.04311-3.8366 0.04311c-1.595 0-1.595 0.73284-0.68973 1.3364l3.6642-0.04311c0.60352 0 1.6381-1.2932 0.86217-1.3364z"/>
   <path id="path92380" d="m80.618 35.146s1.905-0.25161 2.5865-0.38798c0.64662-0.12932 0.56041 0.43108-0.34487 1.0346l-2.1123 0.30176c-0.60352 0-0.90527-0.90527-0.12932-0.94838z"/>
   <path id="path92382" d="m47.554 20.619-1.2932-0.56041c-0.21554-0.12932 0.12932-0.17243 0.47419-0.17243 0 0 4.7419-0.17243 9.0958-0.25865s7.0698-0.04311 7.0698-0.04311c0.43108 0.04311 1.1208 0.56041 1.1208 0.56041 0.34487 0.21554-0.68973 0.17243-0.68973 0.17243l-14.959 0.43108c-0.56055 0-0.81906-0.12932-0.81906-0.12932z"/>
   <path id="path92384" d="m32.38 19.411c0.18077 0.51457 5.8627-0.34487 12.674-0.56041 6.8111-0.21554 19.097-0.38798 20.261-0.34487 0 0 0-0.30176-0.43108-0.30176-1.1208-1.2501-8.6217-6.1214-9.8718-6.9404-1.2501-0.81906-4.5264-0.77595-4.5264-0.77595-5.6472-0.12932-12.509-0.23724-17.243 0.38797-2.2847 0.30176-2.8451 0.25865-2.6296 1.595 0.21554 1.3365 1.207 5.3456 1.7674 6.9404z"/>
   <path id="path92386" d="m21.969 10.984c-0.92683 0.73284-3.4487 3.6858-4.5048 5.6041 1.9399 1.5735 9.4623 3.7073 13.859 3.4918-0.60352-1.789-1.1639-5.3023-1.4657-7.3284-0.30176-2.0261-1.6166-2.3278-2.996-2.3278-1.3795 0-4.5264 0.30176-4.5264 0.30176-0.43108 0.02155-0.36642 0.25865-0.36642 0.25865z"/>
   <g id="g73845" stroke="#000">
    <g id="g73847" stroke-width=".071847">
     <path id="path92388" d="m19.259 24.625-5.4155-2.1094s-0.02155 0.66818 0 1.2717l5.4101 1.8537 0.0053-1.0166z"/>
     <path id="path92390" d="m19.253 25.863-5.3885-1.8393s0 0.96994 0.08622 1.2717l5.3023 1.7028v-1.1352z"/>
     <path id="path92392" d="m19.259 27.171-5.3078-1.6597s0 0.77595 0.08622 1.0346l5.2161 1.6597 0.0053-1.0346z"/>
     <path id="path92394" d="m19.253 28.421-5.173-1.595s0.10777 0.88372 0.32331 1.1424l4.8497 1.5519v-1.0993z"/>
     <path id="path92396" d="m19.253 29.693-4.785-1.466s0.47419 0.96994 1.0562 1.2932c0.58196 0.32331 3.7289 1.1855 3.7289 1.1855v-1.013z"/>
    </g>
    <path id="path92398" stroke-width=".21554" fill="none" d="m6.5146 27.063-1.3795-2.673c-0.5604-0.948-0.6466-3.06-0.388-2.974-0.2155-0.69 0.5173-5 0.5173-5 0.086216-0.43108 0.38797-0.43108 0.81906-0.5173 0.43108-0.08622 3.4918-0.21554 4.2246-0.21554 0.73284 0 1.2932-0.12932 2.7589-1.0777s6.8071-3.6891 10.734-4.3108c5.173-0.81906 13.751-1.0346 17.761-1.0346 4.0091 0 8.0783 0.21798 9.9579 0.64662 2.4572 0.56041 4.3108 1.7243 4.3108 1.7243s6.5954 4.3539 7.242 4.8711c0 0 1.3364-0.30176 1.983-0.56041 0.64662-0.25865 0.86217-0.5173 1.0346-0.77595s1.3795-0.43108 1.8105-0.34487c0.43108 0.08622 1.3364 0.68973 1.2932 1.595-0.04311 0.90527-0.60352 0.99149-1.2501 1.0777-0.64662 0.08622-1.6812 0.17243-2.2416 0.34487-0.56041 0.17243-0.81805 0.36656-0.81805 0.36656s1.4647 0.92668 3.5339 1.2716c2.0692 0.34487 6.7247 0.77595 9.3544 2.1554 2.6296 1.3795 7.8887 4.9575 7.8457 6.0781l0.08622 0.12932c0.19399-0.04311 0.36642 0.15088 0.62507 0.40953s0.49574 0.34487 0.5173 1.3364c0.02155 0.99149-0.19399 3.3623-0.84061 4.5693s-0.73284 2.3925-0.81906 2.9745c-0.08622 0.58196-0.53885 1.4441-0.53885 1.4441"/>
   </g>
   <path id="path92400" fill="#fff" d="m37.248 27.083c-0.70338-0.68054-1.5387-1.0748-2.4346-1.0748-2.5052 0-4.536 3.0825-4.536 6.885 0 3.8024 2.0308 6.885 4.536 6.885 1.8143 0 3.38-1.617 4.1053-3.9533"/>
   <path id="path92402" fill="#fff" d="m34.814 32.893"/>
   <path id="path92404" d="m37.739 28.269c-0.74893-1.1836-1.7835-1.9159-2.9263-1.9159-2.2856 0-4.1385 2.9285-4.1385 6.5408s1.8529 6.5408 4.1385 6.5408c1.8058 0 3.3416-1.8282 3.9068-4.3774" stroke="#000" stroke-width=".071847" fill="none"/>
   <path id="path92406" d="m34.814 32.893" stroke="#000" stroke-width=".071847" fill="none"/>
   <path id="path92408" d="m36.547 38.761c-0.09958 0.01264-0.20045 0.01911-0.30219 0.01911-0.87654 0-1.6824-0.47865-2.3187-1.2796 0.57176-0.97008 1.03-1.371 1.03-1.371s0.25779-0.40091 0.51543 0.14326c0.25779 0.54417 1.0882 1.575 1.661 2.0333 0.000144-0.000143-0.36929 0.3657-0.58555 0.45494z"/>
   <path id="path92410" d="m34.251 27.921c-0.57679 0.57923-1.0458 1.4023-1.3493 2.3774 0.55207 0.23164 0.95298 0.26037 1.0103-0.2552 0.05733-0.51529 0.2483-1.4953 0.33898-2.1222z"/>
   <path id="path92412" d="m32.84 35.28c-0.205-0.73-0.319-1.537-0.319-2.387 0.646 0.559 0.651 1.065 0.319 2.387z"/>
   <g id="g73862" stroke-width=".071847" stroke="#000">
    <ellipse id="ellipse92416" rx=".53066" ry=".83874" cy="32.958" cx="34.847" fill="none"/>
    <path id="path92418" fill="none" d="m34.847 32.958"/>
    <ellipse id="ellipse92424" cy="31.378" cx="34.847" rx=".32834" ry=".51902"/>
    <path id="path92426" d="m34.847 31.378"/>
    <ellipse id="ellipse92430" rx=".24629" ry=".38927" cy="31.378" cx="34.93" fill="#fff"/>
    <path id="path92432" fill="#fff" d="m34.93 31.378"/>
    <ellipse id="ellipse92438" cy="32.466" cx="35.879" rx=".32834" ry=".51902"/>
    <path id="path92440" d="m35.879 32.466"/>
    <ellipse id="ellipse92444" rx=".24629" ry=".38927" cy="32.466" cx="35.961" fill="#fff"/>
    <path id="path92446" fill="#fff" d="m35.961 32.466"/>
    <ellipse id="ellipse92452" cy="34.156" cx="35.449" rx=".32834" ry=".51902"/>
    <path id="path92454" d="m35.449 34.156"/>
    <ellipse id="ellipse92458" rx=".24629" ry=".38927" cy="34.156" cx="35.531" fill="#fff"/>
    <path id="path92460" fill="#fff" d="m35.531 34.156"/>
    <ellipse id="ellipse92466" cy="34.098" cx="34.218" rx=".32834" ry=".51902"/>
    <path id="path92468" d="m34.218 34.098"/>
    <ellipse id="ellipse92472" rx=".24629" ry=".38927" cy="34.098" cx="34.299" fill="#fff"/>
    <path id="path92474" fill="#fff" d="m34.299 34.098"/>
    <ellipse id="ellipse92480" cy="32.437" cx="33.903" rx=".32834" ry=".51902"/>
    <path id="path92482" d="m33.903 32.437"/>
    <ellipse id="ellipse92486" rx=".24629" ry=".38927" cy="32.437" cx="33.985" fill="#fff"/>
    <path id="path92488" fill="#fff" d="m33.985 32.437"/>
   </g>
   <path id="path92490" d="m37.442 27.809c-0.16942-0.22761-0.40234-0.48281-0.68154-0.64246-0.34372 0.17186-0.84478 1.1885-0.64432 2.334 0.20045 1.1455 0.51543 1.2886 1.2029 1.1168 0.24988-0.06251 0.48842-0.10978 0.69088-0.1447"/>
   <path id="path92492" d="m38.349 32.92c-0.55768 0.30937-1.1243 0.63772-1.1871 1.1187-0.08593 0.65869 0.40091 1.8042 1.0882 2.4915 0.20692-0.41384 0.36901-0.89881 0.48626-1.402"/>
   <g id="g73888" stroke="#000" fill="none">
    <path id="path92494" stroke-width=".21554" d="m37.676 37.59c-0.6015-0.85915-1.2888-1.8328-1.4607-2.377-0.15131-0.47908-0.39286-1.7069 0.20045-2.0333 0.35708-0.19643 1.2371-0.67091 1.8495-1.0005"/>
    <path id="path92496" stroke-width=".21554" d="m38.073 31.048c-0.60567 0.22158-1.4529 0.52606-1.7697 0.614-0.51543 0.14326-0.97367-0.4581-1.0596-1.1168-0.08593-0.65869 0.0286-2.4629 0.48684-4.0094"/>
    <g id="g73892" stroke-width=".071847">
     <path id="path92498" d="m34.126 28.226s0.17186-1.1168 0.54417-1.8616"/>
     <path id="path92500" d="m33.095 30.259s-0.6301-0.28638-0.91634-0.4295c-0.28638-0.14326-0.51543 0.02859-0.57276 0.14326-0.05719 0.11452-0.20045 0.40091-0.31498 0.80181-0.11452 0.40091-0.34372 0.68729 0.17186 1.031 0.51558 0.34372 1.2315 1.3746 1.2315 1.3746"/>
     <path id="path92502" d="m32.865 34.813s-0.28638 1.7469-0.37231 2.0619c-0.08593 0.31498 0.02859 0.34372 0.25764 0.60136 0.22905 0.25779 0.4295 0.40105 0.68729 0.31498 0.25764-0.08593 0.65869-0.34372 0.65869-0.34372"/>
    </g>
    <g id="g73897" stroke-width=".21554">
     <path id="path92504" d="m34.956 26.421s-0.57276 2.0905-0.60136 2.921c-0.0286 0.83055-0.20045 1.9188-0.60136 2.1478-0.40105 0.22905-0.91648-0.08593-1.4033-0.45824-0.48684-0.37217-0.85915-0.71588-0.85915-0.71588"/>
     <path id="path92506" d="m31.262 31.003 1.575 1.5178c0.51543 0.57276 0.97367 1.3746 0.54417 2.4056s-0.68729 2.3483-0.68729 2.4056"/>
     <path id="path92508" d="m33.067 37.705s0.49302-1.5309 0.74462-2.062c0.25764-0.54417 1.0596-1.0023 1.3746-0.40091 0.31498 0.60136 1.5178 2.4056 2.0906 2.8924"/>
    </g>
    <g id="g73902" stroke-width=".071847">
     <path id="path92510" d="m33.324 37.819s0.65869-2.1192 1.1741-2.2909c0.51543-0.17172 0.60136 0.20045 0.80181 0.60136"/>
     <path id="path92512" d="m31.605 29.973c0.80196 0.74462 1.4319 1.2601 1.8328 1.0596 0.40091-0.20045 0.31498-0.97367 0.31498-0.97367"/>
     <path id="path92514" d="m36.044 26.708s-0.85915 3.8661-0.28638 4.3529c0.38841 0.33007 1.5668-0.06394 2.2853-0.35191"/>
     <path id="path92516" d="m38.309 32.551-1.0896 0.57248s-0.85915 0.48684-0.85915 0.85915 0.17186 1.1741 0.37231 1.4891c0.20045 0.31498 1.1169 1.8042 1.1169 1.8042"/>
    </g>
   </g>
   <ellipse id="ellipse92520" rx="1.7781" ry="5.5081" cy="27.398" cx="8.8854" fill="#fff"/>
   <path id="path92522" fill="#fff" d="m8.8854 27.398"/>
   <ellipse id="ellipse92526" rx="1.6223" ry="5.2326" stroke="#000" cy="27.398" cx="8.8854" stroke-width=".071847" fill="none"/>
   <path id="path92528" d="m8.8854 27.398" stroke="#000" stroke-width=".071847" fill="none"/>
   <path id="path92530" d="m9.5651 32.091c-0.039085 0.01006-0.078601 0.01523-0.1184 0.01523-0.34357 0-0.65956-0.38295-0.90887-1.0237 0.22416-0.77609 0.40378-1.0968 0.40378-1.0968s0.10102-0.32072 0.20203 0.11452c0.10102 0.43525 0.42663 1.2601 0.65108 1.6266 0 0.000143-0.14484 0.29285-0.22962 0.36412z"/>
   <path id="path92532" d="m8.6645 23.42c-0.22603 0.46341-0.40996 1.122-0.52894 1.9019 0.2164 0.18537 0.37361 0.20821 0.39602-0.20419 0.02256-0.41226 0.097425-1.1961 0.13292-1.6977z"/>
   <path id="path92534" d="m8.1116 29.306c-0.0803-0.584-0.125-1.23-0.125-1.909 0.2533 0.446 0.2549 0.851 0.125 1.909z"/>
   <g id="g73915" stroke-width=".071847" stroke="#000">
    <ellipse id="ellipse92538" rx=".20807" ry=".67105" cy="27.448" cx="8.8988" fill="none"/>
    <path id="path92540" fill="none" d="m8.8988 27.448"/>
    <ellipse id="ellipse92546" cy="26.185" cx="8.8988" rx=".12875" ry=".41528"/>
    <path id="path92548" d="m8.8988 26.185"/>
    <ellipse id="ellipse92552" rx=".096563" ry=".31139" cy="26.185" cx="8.9309" fill="#fff"/>
    <path id="path92554" fill="#fff" d="m8.9309 26.185"/>
    <ellipse id="ellipse92560" cy="27.055" cx="9.303" rx=".12875" ry=".41528"/>
    <path id="path92562" d="m9.303 27.055"/>
    <ellipse id="ellipse92566" rx=".096563" ry=".31139" cy="27.055" cx="9.3352" fill="#fff"/>
    <path id="path92568" fill="#fff" d="m9.3352 27.055"/>
    <ellipse id="ellipse92574" cy="28.407" cx="9.1346" rx=".12875" ry=".41528"/>
    <path id="path92576" d="m9.1346 28.407"/>
    <ellipse id="ellipse92580" rx=".096563" ry=".31139" cy="28.407" cx="9.1667" fill="#fff"/>
    <path id="path92582" fill="#fff" d="m9.1667 28.407"/>
    <ellipse id="ellipse92588" cy="28.361" cx="8.6519" rx=".12875" ry=".41513"/>
    <path id="path92590" d="m8.6519 28.361"/>
    <ellipse id="ellipse92594" rx=".096563" ry=".31139" cy="28.361" cx="8.6841" fill="#fff"/>
    <path id="path92596" fill="#fff" d="m8.6841 28.361"/>
    <ellipse id="ellipse92602" cy="27.032" cx="8.5283" rx=".12875" ry=".41513"/>
    <path id="path92604" d="m8.5283 27.033"/>
    <ellipse id="ellipse92608" rx=".096563" ry=".31139" cy="27.032" cx="8.5605" fill="#fff"/>
    <path id="path92610" fill="#fff" d="m8.5605 27.033"/>
   </g>
   <path id="path92612" d="m9.6487 22.815c-0.13479 0.13752-0.33122 0.95082-0.25261 1.8672 0.078601 0.91634 0.20203 1.031 0.47146 0.89349 0.26943-0.13752 0.50509-0.18321 0.50509-0.18321l-0.146-0.939-0.191-0.733c0.000287 0-0.15131-0.6301-0.38711-0.90499z"/>
   <path id="path92614" d="m10.502 27.145c-0.25822 0.34372-0.66229 0.64145-0.69606 1.1684-0.033625 0.52693 0.1572 1.4433 0.42663 1.9932 0.22445-0.91634 0.31426-2.2681 0.26943-3.1616z"/>
   <g id="g73941" stroke="#000" fill="none">
    <g id="g73943" stroke-width=".071847">
     <path id="path92616" d="m10.008 31.154c-0.2359-0.687-0.5053-1.466-0.5725-1.901-0.0594-0.384-0.1541-1.366 0.0786-1.627 0.2244-0.252 0.9769-1.077 0.9769-1.077"/>
     <path id="path92618" d="m10.423 25.725s-0.7521 0.57277-0.95413 0.68729c-0.2021 0.115-0.3817-0.366-0.4155-0.893-0.0336-0.527 0.0113-1.971 0.1909-3.208"/>
     <path id="path92620" d="m8.616 23.663s0.067393-0.89349 0.21324-1.4892"/>
     <path id="path92622" d="m8.2118 25.29s-0.24701-0.22905-0.35924-0.34372c-0.11223-0.11452-0.20203 0.02299-0.22459 0.11452s-0.078601 0.32073-0.12343 0.64145c-0.044976 0.32073-0.13479 0.54978 0.067393 0.82481 0.20203 0.27489 0.48267 1.0997 0.48267 1.0997"/>
     <path id="path92624" d="m8.1219 28.933s-0.11223 1.3976-0.14599 1.6495c-0.033624 0.25204 0.011208 0.27503 0.10102 0.48123 0.089809 0.2062 0.16841 0.32072 0.26943 0.2519 0.10102-0.06869 0.25822-0.27489 0.25822-0.27489"/>
     <path id="path92626" d="m8.9414 22.22s-0.22459 1.6725-0.2358 2.3369c-0.011208 0.66444-0.078601 1.5351-0.2358 1.7183-0.1572 0.183-0.3592-0.069-0.55-0.367-0.1909-0.298-0.3369-0.573-0.3369-0.573"/>
     <path id="path92628" d="m7.4933 25.885 0.6174 1.214c0.20203 0.45824 0.38165 1.0997 0.21324 1.9245s-0.26943 1.8787-0.26943 1.9245"/>
     <path id="path92630" d="m8.2005 31.246s0.19327-1.2247 0.29184-1.6495c0.10102-0.43525 0.41528-0.80196 0.53885-0.32072 0.12343 0.48109 0.59489 1.9245 0.81949 2.3141"/>
     <path id="path92632" d="m8.3016 31.338s0.25822-1.6953 0.46025-1.8328c0.20203-0.13752 0.23566 0.16036 0.3144 0.48109"/>
     <path id="path92634" d="m7.6281 25.06c0.3144 0.59576 0.56127 1.008 0.71847 0.84765 0.1572-0.161 0.1234-0.779 0.1234-0.779"/>
     <path id="path92636" d="m9.3681 22.449s-0.33682 3.0929-0.11223 3.4823c0.22459 0.38941 1.1225-0.48109 1.1225-0.48109"/>
     <path id="path92638" d="m10.491 26.871-0.66229 0.71014s-0.33682 0.38941-0.33682 0.68729 0.067393 0.93933 0.14599 1.1914c0.078601 0.25204 0.43784 1.4434 0.43784 1.4434"/>
    </g>
    <path id="path92640" stroke-width=".14369" d="m36.997 26.651c0.15361 0.45594 0.35406 1.0961 0.37432 1.1672 0.08622 0.30176 0.56041 0.08622 0.56041 0.08622l0.04311 0.25865c-0.43108 0.04311-0.47419 0.38797-0.30176 0.86217 0.17243 0.47419 0.86217 6.3369 1.0777 6.5525 0.02701 0.02701 0.17301 0.5538 0.17114 1.0653"/>
    <path id="path92644" stroke-width=".071847" d="m60.4 35.448c0.56041 0 1.0346-0.08622 0.73284-0.86217s-0.86217-2.1123-0.86217-2.1123c-0.30176-0.60352-1.2932-0.68973-2.1985-0.68973-0.90527 0-5.0868 0.17243-5.8627 0.21554-0.77595 0.04311-1.3364 0.08636-1.0777 1.2501 0.25865 1.1639 0.30176 1.9399 1.8968 2.1123 1.595 0.17243 7.3715 0.08622 7.3715 0.08622z"/>
   </g>
   <g id="g73959" stroke="#000">
    <path id="path92648" stroke-width=".14369" fill="#fff" d="m59.956 35.14c0.50437 0 0.93114-0.07012 0.65956-0.70137s-0.77595-1.7183-0.77595-1.7183c-0.27158-0.491-1.1639-0.56113-1.9787-0.56113-0.81475 0-4.5781 0.14025-5.2765 0.17531-0.69835 0.03506-1.2027 0.07012-0.96994 1.0171 0.23278 0.9468 0.27158 1.5781 1.7071 1.7183 1.4355 0.14025 6.6344 0.07012 6.6344 0.07012z"/>
    <path id="path92652" stroke-width=".071847" fill="none" d="m81.351 30.684c-0.64662 0.08622-0.94838 0.15088-1.1639 0.7544-0.21554 0.60352-0.38798 1.3147-0.56041 1.9183-0.17243 0.60352 0.19399 0.68973 0.77595 0.66818s4.0091-0.58196 4.6126-0.68973c0.60352-0.10777 0.68973-0.40953 0.7544-0.66818 0.06466-0.25865 0.2371-1.207 0.25865-1.6597 0.02155-0.45264-0.06466-0.68973-1.3148-0.60352-1.2501 0.08622-3.3624 0.2802-3.3624 0.2802z"/>
    <path id="path92656" stroke-width=".14369" fill="#fff" d="m81.504 30.911c-0.58196 0.073-0.85354 0.12774-1.0475 0.63872-0.19399 0.51112-0.34918 1.1135-0.50437 1.6245-0.15519 0.51098 0.17459 0.58397 0.69835 0.56587 0.52377-0.01811 3.6082-0.49287 4.1513-0.58412 0.54316-0.09125 0.62076-0.34674 0.67896-0.56587 0.0582-0.21899 0.21339-1.0221 0.23278-1.4053 0.0194-0.38323-0.0582-0.58412-1.1833-0.51112s-3.0262 0.23738-3.0262 0.23738z"/>
   </g>
   <path id="path92658" fill="#fff" d="m29.168 18.765c0.32331-0.02155 0.66818-1.3579 0.34487-1.4226-0.32331-0.06466-1.7028-0.43108-2.1554-0.7975-0.45264-0.36642-1.4872-1.2286-2.7805-1.207-1.2932 0.02155-2.5003-0.06466-2.5003 1.207s0.34487 1.6597 1.1855 1.6812c0.84061 0.02155 3.4702-0.06466 4.1599 0.10777 0.68973 0.17243 1.7459 0.43108 1.7459 0.43108z"/>
   <path id="path92660" d="m26.991 17.493v-0.36642c0-0.19399 1.6812 0.38798 1.6166 0.58196-0.06466 0.19399-0.04311 0.21554-0.08622 0.32331s-1.5303-0.40953-1.5303-0.53885z"/>
   <g id="g73966" fill="#fff">
    <path id="path92662" d="m22.012 11.48c-0.84061 0.64662-3.2331 3.7073-3.5564 4.785 0 0 0.92683 0.66818 2.4141 1.1855l0.517-1.379s-1.6381 0.32331-2.5865 0.17243l-0.02155-0.10777s1.0346 0.2371 1.5088-0.15088c0.47419-0.38797 3.3409-4.0306 3.8797-4.7204 0 0-1.4226 0.04311-2.1554 0.21554z"/>
    <path id="path92664" d="m29.427 12.277 0.25865 1.7459s-1.1208-0.04311-1.7243-0.02155c-0.60352 0.02155-0.90527 0.62507-0.90527 0.62507l-3.2762 0.12932 0.96994-1.3579c1.3148-1.4226 1.4441-1.6381 4.6772-1.1208z"/>
    <path id="path92666" d="m31.431 14.54s1.595-0.12932 2.5865 0c0.86216-1.0346 4.3108-2.7589 5.7765-3.1038 0 0-6.8973 0.17243-8.8372 0.43108-0.12932 0.43108 0.12932 1.207 0.12932 1.207l0.34487 1.4657z"/>
    <path id="path92668" d="m61.435 17.817s-5.2592-4.5264-7.3715-5.4316c-2.1123-0.90527-3.9229-1.207-6.9835-1.1208l5.173 5.4748c1.5088 0 2.1554-0.04311 2.802 0.56041l6.38 0.5173z"/>
    <path id="path92670" d="m45.269 11.35 4.0953 4.5695-1.3795 0.04311-2.2847-2.7589s-0.08622-0.56041-0.99149-0.56041l-0.94838-1.2932h1.5088z"/>
   </g>
   <g id="g73973" stroke="#000" fill="none">
    <path id="path92672" stroke-width=".21554" d="m63.895 16.914s0.15749 0.4295 0.6587 0.30061c0.5012-0.12889 1.4891-0.44387 1.4891-0.44387s-0.38654-0.21482-0.30061-0.38654l-1.8472 0.5298z"/>
    <g id="g73976" stroke-width=".071847">
     <path id="path92674" d="m11.402 30.101c1.4319 0.17186 3.3793 0.85915 3.3793 0.85915l15.006 3.8375"/>
     <path id="path92676" d="m28.871 34.511c0.22905 1.5464-0.34372-7.3885-0.34372-8.4195s0.34372-0.40091 0.51543-1.6038c0.17172-1.2029 1.3746-4.4103 2.0047-4.5248"/>
     <path id="path92678" d="m21.081 18.131c-0.51543 0.17186-1.1455 0.85915-1.2029 1.7183-0.05733 0.85915-1.0882 1.031-1.7183 1.3172-0.62996 0.28638-1.7518-1.1286-1.2892 10.31"/>
     <path id="path92680" d="m19.259 24.625 7.2923 2.3273c1.5178 0.4581 3.5511 0.83041 3.5511 0.83041"/>
     <path id="path92682" d="m19.253 25.641 6.6657 2.0849c0.3772 0.12573 0.21554 0.24256-0.05389 0.17071l-6.6114-2.0333"/>
     <path id="path92684" d="m19.253 26.999 6.6657 2.0202c0.3772 0.12573 0.21554 0.24256-0.05389 0.17071l-6.6114-2.0189"/>
     <path id="path92686" d="m19.253 28.206 6.6657 2.0435c0.3772 0.12573 0.21554 0.24256-0.05389 0.17071l-6.6114-1.9988"/>
     <path id="path92688" d="m19.253 29.52 6.6657 2.0219c0.3772 0.12573 0.21554 0.20663-0.05389 0.13478l-6.6114-1.9844"/>
     <path id="path92690" d="m19.253 30.706 6.6657 1.968c1.9848 0.58383 3.1703 0.8353 3.7451 0.87122"/>
     <path id="path92692" d="m25.919 32.674-10.049-2.793c-1.0777-0.39516-2.2991-0.7544-2.2632-7.1488 0 0-0.03793-0.31685 0.23695-0.21684"/>
     <path id="path92694" d="m5.389 16.158c5.1371 0.17962 9.9868 4.3827 14.369 6.2866 4.3827 1.9039 8.1187 3.1972 9.5916 3.3768 0.71847 0.10777 0.35924-0.53885-0.64662-0.82624-1.005-0.287-5.065-1.976-7.651-4.203-2.587-2.227-4.239-3.592-6.538-4.347-2.3-0.754-3.808-0.754-3.808-0.754 2.7661-0.39516 5.3526-0.14369 6.9332 0.89809"/>
     <path id="path92696" d="m37.931 27.904s-1.2905-5.7006-4.9885-5.3872c-2.1195 0.17962-2.7661 2.2273-2.9817 2.802"/>
    </g>
    <path id="path92698" stroke-width=".14369" d="m37.974 28.162s0.35694-0.18551 1.2191 0.10188c0.86217 0.28739 7.1847 1.1496 8.6935 1.3651 1.5088 0.21554 32.496-0.89407 37.731-1.9199"/>
    <g id="g73991" stroke-width=".071847">
     <path id="path92700" d="m78.638 28.408c0.431-0.503-5.414-4.916-8.909-6.394-3.736-1.581-5.82-2.228-6.827-2.43"/>
     <path id="path92702" d="m63.694 20.217s4.239 0.79032 10.274 4.239"/>
     <path id="path92704" d="m47.169 20.361s5.5322 2.371 7.5439 4.239 4.4545 4.239 4.3108 4.6701"/>
     <path id="path92706" d="m33.446 19.427s-0.21554 0.79032-0.71847 1.0059c0 0 5.9633 0.35924 9.7712 3.0894s6.8973 6.107 6.8973 6.107"/>
     <path id="path92708" d="m38.116 28.408c0 0.64662 0.71847 0.71847 1.3651 0.79032 0 0 6.107 1.0059 7.975 1.2932 1.868 0.28739 5.3167 0.07185 6.5381 0.07185s29.457-0.86217 32.619-1.868"/>
     <path id="path92710" d="m38.846 35.577c1.4246 0.30305 5.5917 0.80598 8.2501 0.87783 2.6583 0.07185 14.513-0.28739 15.878-0.28739 0.79032 0.57478 14.801-0.35924 15.303-0.86216 1.7243-0.21554 6.5381-0.93401 7.8313-1.3651"/>
     <path id="path92712" d="m52.342 37.461c0.28739 0.57478-0.57435 1.3376 7.9032 1.2214 5.2448-0.07185-2.6583-0.93401-3.0894-1.0059"/>
     <path id="path92714" d="m47.743 39.76s2.5865-0.1437 4.4545-1.2214"/>
     <path id="path92716" d="m77.991 35.377c1.0059-0.43108 1.3033-0.97971 2.1964-3.9385"/>
     <path id="path92718" d="m84.278 34.371c0.64662-0.10777 1.0059 0 0.7544 0.82624-0.25146 0.82624-0.25146 1.3292-1.0418 1.5088-0.79032 0.17962-3.8438 0.79032-5.0652 0.96994"/>
     <path id="path92720" d="m80.578 37.425c-0.64662 0.14369-1.6166-0.03592-1.401-0.68255 0.21554-0.64662 0.32331-1.6525 0.96994-1.7243"/>
     <line id="line92722" y1="34.946" x2="84.709" x1="83.847" y2="34.515"/>
     <path id="path92724" d="m84.457 36.06s-1.0418-0.35924-1.2573-0.21554c-0.21554 0.14369 0.6107 0.64662 0.6107 0.64662"/>
     <path id="path92726" d="m79.572 37.03s0.53885-0.35924 0.68255-0.64662c0.14369-0.28739 0.43108-0.1437 0.35924 0.07185-0.07185 0.21554-0.25146 0.7544-0.25146 0.7544"/>
     <path id="path92728" d="m51.803 40.119c5.1011 0.35924 27.446-0.50293 33.265-2.5865"/>
     <path id="path92732" d="m77.883 27.33c1.2214 0.14369 6.0352-0.14369 7.2566-0.50293"/>
     <line id="line92734" y1="24.241" x2="81.835" x1="73.788" y2="24.241"/>
     <line id="line92736" y1="25.678" x2="55.323" x1="45.337" y2="25.175"/>
     <path id="path92740" d="m47.923 28.121c1.0059 0.35924 7.9032 0.21554 10.202-0.1437"/>
     <path id="path92744" d="m48.426 28.552c1.0059 0.35924 7.9032 0.21554 10.202-0.14369"/>
     <path id="path92748" d="m77.596 26.971c1.2214 0.1437 6.0352-0.14369 7.2566-0.50293"/>
    </g>
    <polygon id="polygon92750" stroke-width=".5" points="442.69 119.51 435.69 119.51 444.69 130.51 451.69 130.51" transform="matrix(.14369 0 0 .14369 4.5001 9.1517)"/>
    <g id="g74015" stroke-width=".071847">
     <path id="path92752" d="m65.659 16.394s0.64662-0.25865 0.90527-0.58196"/>
     <path id="path92754" d="m65.81 16.89s0.73284-0.2802 1.0562-0.15088c0.32331 0.12932 1.0777 0.02155 1.0777 0.02155"/>
     <path id="path92756" d="m27.25 17.148c-0.259-0.065-0.948-0.431-1.164-0.625"/>
     <path id="path92758" d="m27.228 17.558c-0.237-0.065-0.903-0.253-1.229-0.108"/>
    </g>
   </g>
  </g>
 </g>
</svg>
