<?xml version="1.0" encoding="UTF-8" standalone="no"?>
<!-- Created with Inkscape (http://www.inkscape.org/) -->
<svg id="svg2" xmlns:rdf="http://www.w3.org/1999/02/22-rdf-syntax-ns#" xmlns="http://www.w3.org/2000/svg" height="45" width="67.5" version="1.1" xmlns:cc="http://creativecommons.org/ns#" xmlns:dc="http://purl.org/dc/elements/1.1/">
 <metadata id="metadata7">
  <rdf:RDF>
   <cc:Work rdf:about="">
    <dc:format>image/svg+xml</dc:format>
    <dc:type rdf:resource="http://purl.org/dc/dcmitype/StillImage"/>
    <dc:title/>
   </cc:Work>
  </rdf:RDF>
 </metadata>
 <g id="g75896">
  <rect id="rect2990" opacity="0" height="44.803" width="67.204" y=".19715" x="-.00065068"/>
  <g id="g75467" transform="matrix(.99562 0 0 .99562 -15.534 -4.3817)">
   <path id="path93680" fill="#fff" d="m67.472 15.293s0.51605 1.292 0.97542 2.6705l0.7112 0.12079c0.62098 0.0023 0.93279-0.30718 0.9427-0.80456l0.10262-0.99988c0.0074-0.53852-0.29149-0.68526-0.70905-0.74177s-2.0229-0.24505-2.0229-0.24505z"/>
   <path id="path93682" fill="#fff" d="m16.02 27.414c-0.06064-0.41261-0.09138-0.85132-0.09584-1.2747-0.01058-1.0255 0.13352-1.8852 0.30801-1.9259 0.24472-0.05668 0.86388 1.2287 1.0245 3.1227-0.28603 0.05932-0.1697 0.59008 0.14806 2.3501 0.31776 1.7598 0.36039 4.4062 0.32453 5.1536-0.03569 0.74722 0.77366 1.1103 0.77366 1.1103l1.5723 0.6461c-0.11517 1.4559-0.04775 2.5279 0.05073 3.4322l0.19019-0.01718c-0.03966-0.59983-0.05701-1.2302-0.04957-1.8917 0.05056-4.5831 1.3104-6.8288 2.5804-7.8886l0.4093-0.32586c-0.07634-0.50597-0.24191-2.7825 0.41608-2.9127 0.65799-0.13021 1.242 1.3872 1.5561 2.3707 0 0 0.20754 0.93064 0.43987 1.4624 0.23216 0.53175 0.70228 0.89941 0.70228 0.89941l0.49308 9.4062c0.06577 1.8337 1.8469 1.7215 2.7962 1.8107 0.94931 0.08923 6.1752 0.25678 6.1752 0.25678 11.676 0.11484 28.053-0.11881 32.424-0.32437l12.139-0.4749s1.568-0.07816 1.3616-0.72739c-0.20639-0.64923-0.77416-2.1035-0.30008-2.4646 0.47391-0.36105 1.5966-2.2529 1.5757-2.5827-0.02066-0.32982 0.28306-0.76292 0.2363-1.505-0.04676-0.7421-0.71665-0.86554-0.41294-1.2985 0.30388-0.4331 0.16425-1.335-0.26885-1.6387-0.4331-0.30371-1.8867-1.04-1.8867-1.04s0.65436-0.12393 0.618-0.70128c-0.03635-0.57719-0.65188-5.0916-1.5693-5.1993 0.67518 0.20589 0.11302-0.83496-1.0265-1.8393-1.1385-1.0063-3.7493-3.0357-10.038-5.6199l-1.052-2.253c-2.173-4.335-6.808-9.6425-7.819-9.8572-1.804-0.383-6.557-0.9116-15.671-1.041-9.114-0.1297-18.417 0.7048-18.63 1.2563-0.822 0.0931-1.819 0.6941-1.643 1.5108l-4.8459 7.8386-0.73962 0.08807c-0.53588 0.03371-0.36039 0.8505-0.01239 1.1184 0 0-0.01785 0.37378-0.36816 0.7269-0.35031 0.35329-0.78242 2.0361-1.0676 3.42-0.28537 1.3839-0.40583 2.7574-0.40583 2.7574-0.41707 0.60578-0.54794 1.8144-0.52943 2.7652 0 0-0.20093 0.09551-0.17235 0.54893 0.02859 0.45342 0.05453 0.86587 0.12178 1.2755 0.0461 0.28058 0.23976 0.74623 0.35709 1.0118l0.02082-0.03966c-0.06048-0.42467-0.12211-0.94188-0.20407-1.4987"/>
   <path id="path93684" d="m80.871 42.198s-1.0799 4.9356-4.642 5.16l-4.7125 0.09815c-5.166-0.022-5.703-4.607-5.703-4.607l15.059-0.65039z"/>
   <path id="path93686" d="m46.453 37.512 0.41261 2.6065s0.12393 0.38948 0.77333 0.44797l17.023-0.22787c0.64626 0.0089 1.0666-0.41492 1.1838-0.91907l0.09815-1.5956s-0.17648-0.43591-0.87214-0.44169l-18.618 0.12971z"/>
   <path id="path93690" d="m43.547 41.52c0.26224-0.01652 0.46152-0.24241 0.445-0.50481l-0.16772-2.6617c-0.01652-0.26224-0.24258-0.46152-0.50481-0.445l-4.7614-0.04776c-0.26224 0.01652-0.46152 0.24258-0.445 0.50481l0.16772 2.6619c0.01652 0.26224 0.24257 0.46135 0.50481 0.445l4.7614 0.04759z" stroke="#000" stroke-width=".66097" fill="#fff"/>
   <path id="path93692" d="m75.258 41.063c0.26224-0.01652 0.46152-0.24258 0.445-0.50481l0.29314-2.4426c-0.01652-0.26224-0.24257-0.46136-0.50481-0.445l-4.5109-0.01388c-0.26224 0.01652-0.46152 0.24258-0.445 0.50481l-0.29314 2.4424c0.01652 0.26224 0.24258 0.46152 0.50481 0.445l4.5109 0.01405z" stroke="#000" stroke-width=".66097" fill="#fff"/>
   <path id="path93694" d="m69.491 28.636c0.13104-0.0083 0.23068-0.12129 0.22258-0.25232l0.10344-0.72194c-0.008-0.131-0.121-0.231-0.252-0.223l-16.026 0.18986c-0.1312 0.0083-0.23068 0.12129-0.22258 0.25232l0.04329 0.68774c0.0083 0.1312 0.12129 0.23068 0.25232 0.22258l15.88-0.15582z"/>
   <path id="path93696" d="m69.283 30.188c0.13104-0.0083 0.23068-0.12129 0.22242-0.25232l0.10361-0.72194c-0.0083-0.13104-0.12129-0.23068-0.25249-0.22242l-15.731 0.14657c-0.13104 0.0083-0.23068 0.12129-0.22242 0.25232l0.04164 0.66311c0.0083 0.13104 0.12129 0.23068 0.25232 0.22242l15.586-0.08774z"/>
   <path id="path93698" d="m22.847 30.229c-1.27 1.0599-2.53 3.3053-2.5804 7.8885-0.0889 8.0521 3.4565 11.504 7.0249 11.379l4.4557-0.23101c2.3684-0.24852 3.9005-3.5239 4.0879-6.069 0 0-5.2258-0.16756-6.1752-0.25678-0.94931-0.08923-2.7305 0.02297-2.7962-1.8107l-0.49308-9.4062s-0.47028-0.36783-0.70228-0.89941c-0.23216-0.53175-0.43987-1.4624-0.43987-1.4624-0.31412-0.98352-0.89825-2.5011-1.5561-2.3707-0.65783 0.13021-0.49225 2.4067-0.41608 2.9125l-0.4093 0.32635z"/>
   <path id="path93700" fill="#fff" d="m26.479 33.618c-0.59156-0.78473-1.2846-1.2251-2.0007-1.18-1.816 0.11435-3.093 3.3083-2.8521 7.1338 0.24092 3.8253 1.9085 6.8339 3.7247 6.7195 1.2048-0.07585 2.1723-1.5072 2.6168-3.579-0.94254-0.26439-1.082-1.1663-1.1106-1.6199l-0.37807-7.4739z"/>
   <path id="path93702" fill="#fff" d="m24.915 39.366"/>
   <path id="path93704" d="m26.446 34.365c-0.55819-0.81282-1.2291-1.2772-1.9239-1.2334-1.6344 0.10311-2.7837 2.9777-2.5669 6.4203 0.2168 3.4428 1.7177 6.1505 3.3523 6.0475 1.0452-0.06577 1.8918-1.2649 2.3099-3.0211" stroke="#000" stroke-width=".082621" fill="none"/>
   <path id="path93706" d="m24.915 39.366" stroke="#000" stroke-width=".082621" fill="none"/>
   <path id="path93708" d="m24.915 39.366"/>
   <ellipse id="ellipse93710" rx=".84321" ry=".40037" stroke="#000" transform="rotate(86.394)" cy="-22.472" cx="40.856" stroke-width=".082619" fill="none"/>
   <path id="path93712" d="m24.997 39.361" stroke="#000" stroke-width=".082621" fill="none"/>
   <ellipse id="ellipse93714" rx=".67450" transform="rotate(86.394)" ry=".32023" cy="-22.968" cx="39.369"/>
   <path id="path93716" d="m25.398 37.845"/>
   <ellipse id="ellipse93718" rx=".67450" transform="rotate(86.394)" ry=".32023" cy="-21.833" cx="39.679"/>
   <path id="path93720" d="m24.284 38.225"/>
   <ellipse id="ellipse93722" rx=".67467" transform="rotate(86.394)" ry=".32023" cy="-21.894" cx="42.135"/>
   <path id="path93724" d="m24.5 40.674"/>
   <ellipse id="ellipse93726" rx=".67450" transform="rotate(86.394)" ry=".32023" cy="-23.153" cx="41.887"/>
   <path id="path93728" d="m25.742 40.349"/>
   <path id="path93730" d="m25.077 39.314"/>
   <path id="path93732" d="m22.397 39.785 0.9931-0.66278 0.13451-0.11319c-0.000991-0.2353 0.01024-0.46367 0.03272-0.68195l-0.109-0.243-0.883-1.538-0.111-0.145c-0.1968 0.91792-0.27612 1.9917-0.2044 3.132 0.0068 0.10642 0.01454 0.21217 0.02379 0.31693l0.12277-0.06444z"/>
   <path id="path93734" d="m24.055 41.793-0.46928 2.0784-0.06659 0.16739c-0.49903-0.78027-0.8966-1.8842-1.1137-3.1624l0.16111-0.04511 1.005-0.14607 0.21498 0.14756c0.07535 0.25001 0.16491 0.48019 0.26554 0.68542l0.003 0.2748z"/>
   <path id="path93736" d="m25.168 42.695 0.55505 2.2415 0.09204 0.1664c-0.16855 0.0894-0.34536 0.14194-0.52927 0.15351-0.42781 0.02694-0.8462-0.17069-1.2294-0.54464l0.04561-0.21118 0.64329-1.9446 0.09667-0.10394c0.077 0.04082 0.15566 0.07006 0.2353 0.08675l0.09072 0.15615z"/>
   <path id="path93738" d="m26.375 44.44-0.36171-2.1296-0.0015-0.20093c0.0428-0.04478 0.09634-0.09997 0.11187-0.15252l0.09815 0.05056 0.84306 0.89891 0.11038 0.17648c-0.18028 0.56496-0.41145 1.0437-0.68261 1.407l-0.118-0.049z"/>
   <path id="path93740" d="m26.659 37.976-0.13137 0.01851-0.12476-0.07585c-0.067-0.243-0.147-0.469-0.238-0.673l0.03371-0.20325 0.3784-0.98319 0.08196 1.9166z"/>
   <path id="path93742" d="m26.231 34.598-0.79432 1.5194-0.16656 0.03701c-0.06543-0.0309-0.13203-0.05337-0.19928-0.06692l-0.0775-0.10757-0.19052-2.3681 0.07006-0.11418c0.47143 0.09617 0.92254 0.45788 1.3178 1.0176l0.04032 0.08279z"/>
   <path id="path93744" d="m26.852 40.818-0.142-0.248-0.102-0.281c0.03189-0.1702 0.0276-0.386 0.01851-0.79101l0.09039-0.12922 0.135 1.4492z"/>
   <path id="path93746" d="m24.166 36.322-0.07981-2.5819-0.11303-0.08939c-0.4949 0.28256-0.91428 0.88586-1.2182 1.7041l0.07436 0.11996 1.0147 1.3228 0.15599-0.03503c0.04164-0.07469 0.0856-0.14409 0.13153-0.20787l0.03437-0.23266z"/>
   <path id="path93748" d="m20.075 36.594c-0.11517 1.4559-0.04775 2.5279 0.05073 3.4322l-1.9816 0.08345c-0.9508 0.01818-1.5179-0.44285-1.8426-5.5967-0.16871-2.6786 0.29661-4.488 0.29661-4.488-0.28587 0.05784-0.36138-1.1369-0.57834-2.6125-0.21713-1.4773-0.03255-3.1445 0.21234-3.2007 0.24472-0.05684 0.86388 1.2287 1.0245 3.1227-0.28603 0.05932-0.1697 0.59008 0.14806 2.3501 0.31776 1.7598 0.36039 4.4062 0.32454 5.1536-0.03569 0.74722 0.77366 1.1103 0.77366 1.1103l1.5721 0.6461z"/>
   <path id="path93750" fill="#fff" d="m17.281 29.692s0.3675 3.2054 0.26521 4.8675c0 0 0.15549 1.8115-0.30768 2.9996-0.658-1.242-0.488-7.089 0.042-7.867z"/>
   <path id="path93752" d="m17.328 37.016c-0.32272-1.1798-0.42533-5.4364-0.000661-6.5816" stroke="#000" stroke-width=".082621" fill="none"/>
   <path id="path93754" d="m22.314 14.309 0.67005 0.12344 0.69864 0.57686 1.9816-0.08345-0.35676 2.8785-1.2577-0.25199s0.15004 1.0668 0.14244 1.6053c-0.0074 0.53852-1.5177 0.21977-1.5952-0.35477-0.07766-0.57471-0.05189-0.82456-0.05189-0.82456l-2.7934-0.32073c-0.66477-0.04098-0.5182-0.3399-0.5415-0.71087-0.02346-0.37113-0.10394-1.6491 0.12278-1.9946 0.22655-0.34536 0.36551-0.76804 1.0329-0.68592l1.948 0.0428z"/>
   <path id="path93756" d="m27.029 18.193c-0.16921-3.3422 1.3799-10.532 1.95-11.754 0.21878-0.46912 1.3371-0.45673 1.3371-0.45673 8.7428-0.50944 21.521-0.47077 28.982 0.1198 0.87363 0.069071 1.2783 0.58182 1.2783 0.58182 3.2382 3.4385 6.1391 7.4364 7.4192 11.329-18.137-1.4241-31.84-0.80919-40.967 0.17962z"/>
   <g id="g75287" fill="#fff">
    <path id="path93758" d="m41.407 15.135-3.6385 0.06362c0.11815-0.75251-1.5006-1.4784-1.5006-1.4784 0.57207-0.11881 0.24671-1.3401 0.24671-1.3401l-0.67-2.7723s0.02016-0.99475-1.6446-1.1382c-1.6648-0.14343-4.8032-0.028587-5.0298 0.31677 0 0 0.26736-0.88355 1.8393-1.0265 2.963-0.2695 14.476-0.1669 14.476-0.1669l-0.238 0.491s-2.1323-0.01041-2.6991 0.19069c-0.56678 0.20126-0.77531 1.6443-0.13831 1.7473 0.57768 0.0932 4.8032 0.02859 4.8032 0.02859l-0.55058 1.773c-0.28306 0.76292 0.17598 1.4791 0.17598 1.4791s-1.3862 0.3356-1.3804 1.7426l-4.0506 0.08973z"/>
    <path id="path93762" d="m29.464 12.162s3.695-0.48102 5.2208 0.0851c0 0 0.35973-2.1751-1.2998-2.236l-2.2316 0.05784c-1.5665 0.09865-1.6891 2.0931-1.6891 2.0931z"/>
    <path id="path93766" d="m48.261 12.094s3.074-0.48333 4.5997 0.08279c0 0 0.48069-2.224-1.1788-2.2851l-1.7367 0.026604c-1.566 0.0987-1.684 2.1757-1.684 2.1757z"/>
    <path id="path93768" d="m57.971 15.25-2.7627-0.48829-1.24-6.5446 1.2421 0.00446c-0.54612 0.53109 0.02132 1.6544 1.2841 1.9887 0 0 1.0992 2.9938 1.4764 5.0397z"/>
    <path id="path93770" d="m47.595 8.2465-0.898-0.1297-0.092-0.4703 2.446 0.0529c-1.1955 0.07535-1.4556 0.54711-1.4556 0.54711z"/>
    <path id="path93772" d="m53.63 8.7562-0.171-0.7343-1.785-0.0945s1.9147 0.16921 1.9561 0.82885z"/>
    <path id="path93774" d="m59.615 7.8411s-1.4533-0.074028-2.1929 0.01388c1.0651 1.7955 2.4922 6.0518 2.7584 7.6494l5.5564 1.4711c-0.66-2.607-5.117-8.2867-6.122-9.1339z"/>
   </g>
   <path id="path93776" d="m67.472 15.294s0.51605 1.292 0.97542 2.6705l0.7112 0.12063c0.62098 0.0023 0.93279-0.30702 0.9427-0.8044l0.10262-0.99988c0.0074-0.53852-0.29149-0.68526-0.70905-0.74177s-2.0229-0.24505-2.0229-0.24505z"/>
   <g id="g75297" stroke="#000">
    <path id="path93778" stroke-width=".24786" fill="none" d="m29.64 43.216c10.952 0.386 33.418-0.098 38.618-0.343"/>
    <path id="path93780" stroke-width=".24786" fill="none" d="m80.397 42.398s1.568-0.07816 1.3616-0.72739c-0.20639-0.64923-0.77416-2.1035-0.30008-2.4646 0.47391-0.36105 1.5966-2.2531 1.5757-2.5827-0.02066-0.32982 0.28306-0.76292 0.2363-1.505-0.04676-0.7421-0.71665-0.86554-0.41294-1.2985 0.30388-0.4331 0.16425-1.335-0.26885-1.6387-0.4331-0.30371-1.8867-1.04-1.8867-1.04s0.65436-0.12393 0.618-0.70128c-0.03635-0.57719-0.65188-5.0916-1.5693-5.1993 0.67518 0.20589 0.11303-0.83497-1.0265-1.8393-1.138-1.004-3.749-3.033-10.038-5.617l-1.053-2.252c-2.172-4.332-6.807-9.6389-7.819-9.8536-1.804-0.383-6.557-0.9116-15.671-1.041-9.113-0.1297-18.416 0.7048-18.63 1.2562-0.822 0.0932-1.819 0.6942-1.643 1.511l-4.8459 7.8386-0.73962 0.08791c-0.53588 0.03388-0.36039 0.8505-0.01239 1.1184 0 0-0.01785 0.37378-0.36816 0.7269-0.35031 0.35329-0.78242 2.0361-1.0676 3.42-0.28537 1.3839-0.40583 2.7574-0.40583 2.7574-0.41707 0.60578-0.54794 1.8144-0.52943 2.7652 0 0-0.20093 0.09551-0.17235 0.54893 0.02859 0.45342 0.05453 0.86586 0.12178 1.2755 0.06725 0.40963 0.44896 1.2135 0.44896 1.2135"/>
    <path id="path93784" stroke-width=".4131" fill="#fff" d="m29.606 25.662-0.67253 4.1279c-0.21762 1.4791 1.994 1.3398 1.994 1.3398l11.639 0.0661c0.66625 0.0025 1.0919-0.29082 0.87033-0.98748l-1.1633-4.3675c-0.186-0.833-1.242-0.678-1.242-0.678l-10.085-0.07535c-0.75763-0.04065-1.1972 0.0314-1.3406 0.57322z"/>
    <path id="path93786" stroke-width=".4131" fill="#fff" d="m80.703 31.142-9.6694 0.08312c-0.71054 0.00033-0.82406-0.39212-0.77746-1.0612l0.40716-4.1112c0.12112-0.89578 0.7074-0.75499 1.1967-0.74144l7.1398-0.02247c0.62594-0.06692 1.1291 0.16772 1.3479 0.82009 0 0 0.80836 2.2584 0.9584 3.9364 0.000331 0 0.14789 1.1312-0.60297 1.0967z"/>
   </g>
   <g id="g75303" stroke="#000" fill="none">
    <line id="line93788" stroke-width=".82621" y2="26.141" y1="26.191" x2="70.668" x1="42.383"/>
    <line id="line93790" stroke-width=".33048" y2="30.652" y1="30.781" x2="70.241" x1="43.517"/>
    <path id="path93792" stroke-width=".33048" d="m33.257 25.122c0.4374 1.3047 0.67154 5.02 0.3789 6.0155"/>
    <path id="path93794" stroke-width=".49572" d="m26.781 33.701c0.91246 0.38666 2.0792 0.5795 4.9158 0.48961 2.8364-0.08973 15.448-0.08493 26.817-0.09055 11.368-0.0056 24.345-0.28008 24.345-0.28008"/>
    <path id="path93798" stroke-width=".16524" d="m26.689 36.461 2.2395 0.30305c0.72987 0.30933 3.0467 0.42979 4.6392 0.32949 1.5923-0.1003 19.003-0.04247 25.837-0.11765 6.8341-0.07535 23.532-0.0613 23.532-0.0613"/>
    <path id="path93802" stroke-width=".082621" d="m26.627 35.487 2.2395 0.30289c0.73004 0.30933 3.0467 0.42979 4.6392 0.32949 1.5924-0.1003 19.003-0.04247 25.837-0.11765 6.8339-0.07518 23.532-0.0613 23.532-0.0613"/>
    <path id="path93806" stroke-width=".082621" d="m26.444 32.568 2.2395 0.30289c0.73004 0.30933 3.0467 0.42979 4.6392 0.32949 1.5924-0.1003 19.003-0.04247 25.837-0.11765 6.8339-0.07518 23.532-0.0613 23.532-0.0613"/>
    <path id="path93810" stroke-width=".16524" d="m82.636 32.136s-16.698-0.01388-23.532 0.0613c-6.8339 0.07519-24.246 0.01735-25.837 0.11765-1.5923 0.1003-3.9091-0.02032-4.6392-0.32949l-2.2394-0.30289 0.46929 9.4105c0.31776 1.9898 1.4558 1.7891 1.4558 1.7891"/>
    <g id="g75313" stroke-width=".082621">
     <path id="path93812" d="m27.386 37.659s-0.03834 0.80175 0.0063 1.5095c0.04462 0.70773 1.5764 1.0552 1.5764 1.0552l7.3815 0.15681c0.22704 0.7849 1.8472 1.1269 3.4507 1.2036"/>
     <line id="line93814" x2="45.452" y1="41.124" x1="44.302" y2="41.051"/>
     <path id="path93816" d="m46.754 37.573c-0.80175-0.03834-1.3813 0.05453-1.3813 2.2392 0 1.9793 0.57058 2.0069 1.9085 2.1001l20.591-0.231c0.97856 0.02726 1.2991-0.17896 1.3429-0.89214 0.04395-0.71335 0.0266-2.3502 0.0266-2.3502-0.15533-1.0559-4.7636-1.0129-4.7636-1.0129"/>
     <line id="line93818" x2="70.26" y1="39.995" x1="69.276" y2="40.111"/>
     <path id="path93820" d="m75.475 41.114c0.70773-0.04462 1.5144-1.3388 2.399-1.3945 0.8847-0.05569 3.29 0.05916 3.29 0.05916"/>
     <path id="path93822" d="m68.961 18.077c3.6611 1.7233 8.932 5.0328 9.1646 5.9062 0.23266 0.87347 0.24423 1.2218 0.24423 1.2218"/>
    </g>
    <line id="line93824" stroke-width=".33048" y2="31.037" y1="25.204" x2="78.826" x1="78.37"/>
    <g id="g75322" stroke-width=".082621">
     <path id="path93826" d="m30.946 25.09c0.12112-0.89578 0.62412-1.3715 1.1549-1.4049 0.53076-0.03338 8.0446-0.59553 15.05-0.77036 7.0054-0.17482 29.449 0.80935 30.975 1.0686 1.5262 0.2591 1.9356 1.1215 1.9356 1.1215"/>
     <path id="path93828" d="m70.374 23.583s-1.6941-4.334-4.7137-5.7425"/>
     <path id="path93830" d="m41.838 23.16c-1.335-2.846-7.352-5.309-9.69-5.784l-1.0615 0.06692c5.165 1.6285 7.7312 2.8878 10.751 5.7174z"/>
     <path id="path93832" d="m27.913 17.821s5.1441 4.1167 5.2444 5.7091l0.44863 1.4816"/>
     <path id="path93834" d="m17.148 18.943c5.8505 1.2302 11.431 3.8095 13.345 5.9981"/>
     <path id="path93836" d="m25.723 18.314c-1.6912 1.35-2.9795 4.5174-3.0421 11.982"/>
     <path id="path93838" d="m23.043 30.051c-0.26356-2.0705 0.4022-5.1737 2.0761-5.8148 1.3875-0.53142 2.0267 6.0893 2.0406 6.3104l-1.4596 0.09204"/>
     <path id="path93840" d="m27.16 30.547s1.3689 0.58 3.1906 0.59834"/>
     <path id="path93842" d="m16.485 23.225s0.43078-0.91527 0.82323-1.0288c0.56-0.16194 0.52051 0.80704 0.55422 2.4519 0.04247 2.0845 0.52282 6.1842 1.1957 8.4065-0.79894 0.0059-1.6665-4.6023-1.927-5.918"/>
     <path id="path93844" d="m20.156 17.354c-0.99674 2.5052-2.4178 8.1456-0.45094 16.104l1.2942 0.80671"/>
     <path id="path93846" d="m19.705 33.458s-1.4507 1.6456-0.53538 2.0764c0.91527 0.43078 1.5569 0.74574 1.5569 0.74574"/>
     <path id="path93848" d="m18.166 16.769s-0.06064 0.44797 0.25464 0.51688c0.31512 0.06891 1.0699 0.06577 1.0699 0.06577"/>
     <path id="path93850" d="m23.836 17.966"/>
     <path id="path93852" d="m23.836 17.966c0.85727 0.2125 1.7668 0.55472 1.855-0.16128 0.08807-0.71599 0.49176-6.2924 2.4271-11.521 0.133-0.7189-1.581-0.4334-2.773-0.3139"/>
     <path id="path93854" d="m28.92 6.6775c-1.99-0.5851-4.18-0.6553-5.054 0.7251"/>
     <path id="path93856" d="m27.889 6.8756s-1.9186-0.14558-2.3084 0.012228c0 0-1.7512 3.2187-3.1672 7.5268"/>
     <path id="path93860" d="m22.875 14.696c0.96848-3.658 2.438-6.415 3.1174-7.6123l1.797 0.092866"/>
     <path id="path93862" d="m25.581 6.8879s-0.8847 0.055686-1.4703 0.6256l-5.3233 8.5506c-0.55786 1.0121 0.67782 0.88983 0.67782 0.88983"/>
    </g>
    <line id="line93864" stroke-width=".16524" y2="8.0497" y1="14.366" x2="24.055" x1="20.368"/>
    <polyline id="polyline93866" points="51.184 21.494 53.173 18.95 59.545 16.324" transform="matrix(.16524 0 0 .16524 15.598 4.498)"/>
    <path id="path93868" stroke-width=".082621" d="m27.85 5.9012c0.04428-0.00281 1.2053 0.23134 1.1289 0.5377"/>
   </g>
   <path id="path93870" fill="#fff" d="m23.137 14.968c0.27298 0.31991-0.20126 1.0341-0.45822 1.1835-0.25712 0.14938-2.8917-0.08427-3.0413-0.34122-0.14954-0.25695-0.01983-1.02 0.28141-1.1724 0.30124-0.15219 2.9304-0.0069 3.2181 0.33015z"/>
   <path id="path93872" fill="#fff" d="m68.029 15.605 0.4207 1.0394 1.4044-0.26604s0.19895-0.36783-0.25464-0.51688c-0.45342-0.14921-1.5705-0.25646-1.5705-0.25646z"/>
   <g id="g75347" stroke="#000" fill="none">
    <ellipse id="ellipse93876" rx=".94009" ry="1.6611" transform="rotate(88.32)" cy="-55.215" cx="26.166" stroke-width=".082623"/>
    <path id="path93878" stroke-width=".082621" d="m55.956 24.535"/>
    <ellipse id="ellipse93882" rx=".67883" ry="1.1992" transform="matrix(.029199 .99957 -.99957 .029199 0 0)" cy="-55.215" cx="26.159" stroke-width=".082623"/>
    <path id="path93884" stroke-width=".082621" d="m55.956 24.535"/>
    <polyline id="polyline93886" stroke-width=".5" points="183.9 219.26 189.76 218.35 187.42 223.88" transform="matrix(.16524 0 0 .16524 15.598 4.498)"/>
    <line id="line93888" stroke-width=".082621" y2="40.359" y1="41.084" x2="65.947" x1="67.827"/>
    <line id="line93890" stroke-width=".082621" y2="40.187" y1="39.691" x2="68.463" x1="66.234"/>
    <line id="line93892" stroke-width=".24786" y2="15.209" y1="16.769" x2="19.043" x1="18.166"/>
    <path id="path93894" stroke-width=".082621" d="m23.173 14.746c0.96865-3.6581 2.4381-6.415 3.1174-7.6123"/>
   </g>
  </g>
 </g>
</svg>
