<?xml version="1.0" encoding="UTF-8" standalone="no"?>
<!-- Created with Inkscape (http://www.inkscape.org/) -->
<svg id="svg2" xmlns:rdf="http://www.w3.org/1999/02/22-rdf-syntax-ns#" xmlns="http://www.w3.org/2000/svg" height="54" width="99" version="1.1" xmlns:cc="http://creativecommons.org/ns#" xmlns:dc="http://purl.org/dc/elements/1.1/">
 <metadata id="metadata7">
  <rdf:RDF>
   <cc:Work rdf:about="">
    <dc:format>image/svg+xml</dc:format>
    <dc:type rdf:resource="http://purl.org/dc/dcmitype/StillImage"/>
    <dc:title/>
   </cc:Work>
  </rdf:RDF>
 </metadata>
 <g id="g3491">
  <g id="g3871">
   <g id="g4614">
    <g id="g5219">
     <g id="g5689">
      <g id="g6406">
       <g id="g7263">
        <g id="g8053">
         <g id="g8717">
          <g id="g9406">
           <g id="g9898">
            <g id="g10207">
             <g id="g10407">
              <g id="g10743">
               <g id="g11282">
                <g id="g15079">
                 <g id="g15585">
                  <g id="g16769">
                   <g id="g17492">
                    <g id="g17976">
                     <g id="g18386">
                      <g id="g19746">
                       <g id="g20846">
                        <g id="g21376">
                         <g id="g21705">
                          <g id="g22212">
                           <g id="g26871">
                            <g id="g28064">
                             <g id="g28748">
                              <g id="g29219">
                               <g id="g29819">
                                <g id="g30460">
                                 <g id="g30889">
                                  <rect id="rect2990" opacity="0" height="54" width="99" y="0" x="0"/>
                                  <g id="layer1" transform="matrix(0.75335359,0,0,0.75335359,214.15964,12.705711)">
                                   <g id="logo33" transform="matrix(0.21934126,0,0,0.21934126,-263.57066,-10.894949)">
                                    <g id="g93678" fill="#FFF">
                                     <path id="path93680" d="m313.93,65.331s3.123,7.819,5.903,16.161l4.304,0.731c3.758,0.014,5.645-1.859,5.705-4.869l0.621-6.051c0.045-3.259-1.764-4.147-4.291-4.489s-12.242-1.483-12.242-1.483z"/>
                                     <path id="path93682" d="m2.555,138.68c-0.367-2.497-0.553-5.152-0.58-7.714-0.064-6.206,0.808-11.409,1.864-11.655,1.481-0.343,5.228,7.436,6.2,18.898-1.731,0.359-1.027,3.571,0.896,14.222,1.923,10.65,2.181,26.665,1.964,31.188-0.216,4.522,4.682,6.719,4.682,6.719l9.515,3.91c-0.697,8.811-0.289,15.298,0.307,20.771l1.151-0.104c-0.24-3.63-0.345-7.445-0.3-11.448,0.306-27.736,7.93-41.326,15.616-47.74l2.477-1.972c-0.462-3.062-1.464-16.839,2.518-17.627s7.516,8.395,9.417,14.347c0,0,1.256,5.632,2.662,8.85,1.405,3.218,4.25,5.443,4.25,5.443l2.984,56.924c0.398,11.097,11.177,10.418,16.922,10.958s37.371,1.554,37.371,1.554c70.663,0.695,169.77-0.719,196.22-1.963l73.464-2.874s9.489-0.473,8.24-4.402-4.685-12.73-1.816-14.915c2.868-2.185,9.662-13.634,9.536-15.63-0.125-1.996,1.713-4.617,1.43-9.108s-4.337-5.238-2.499-7.858c1.839-2.621,0.994-8.079-1.627-9.917s-11.418-6.294-11.418-6.294,3.96-0.75,3.74-4.244c-0.22-3.493-3.945-30.813-9.497-31.465,4.086,1.246,0.684-5.053-6.212-11.131-6.89-6.09-22.69-18.371-60.75-34.01l-6.37-13.628c-13.15-26.237-41.2-58.356-47.32-59.655-10.92-2.318-39.68-5.517-94.84-6.3-55.15-0.785-111.45,4.265-112.74,7.603-4.975,0.563-11.008,4.2-9.945,9.143l-29.326,47.437-4.476,0.533c-3.243,0.204-2.181,5.147-0.075,6.768,0,0-0.108,2.262-2.228,4.399-2.12,2.138-4.735,12.322-6.461,20.697-1.727,8.375-2.456,16.687-2.456,16.687-2.524,3.666-3.316,10.98-3.204,16.734,0,0-1.216,0.578-1.043,3.322s0.33,5.24,0.737,7.719c0.279,1.698,1.451,4.516,2.161,6.123l0.126-0.24c-0.366-2.57-0.739-5.7-1.235-9.07"/>
                                    </g>
                                    <path id="path93684" d="m395.02,228.15s-6.535,29.869-28.092,31.227l-28.519,0.594c-31.27-0.13-34.52-27.88-34.52-27.88l91.132-3.936z"/>
                                    <path id="path93686" d="m186.73,199.79,2.497,15.774s0.75,2.357,4.68,2.711l103.02-1.379c3.911,0.054,6.455-2.511,7.164-5.562l0.594-9.656s-1.068-2.638-5.278-2.673l-112.67,0.785z"/>
                                    <g id="g93688" stroke-width="4" stroke="#000" fill="#FFF">
                                     <path id="path93690" d="m169.14,224.05c1.587-0.1,2.793-1.467,2.693-3.055l-1.015-16.108c-0.1-1.587-1.468-2.793-3.055-2.693l-28.815-0.289c-1.587,0.1-2.793,1.468-2.693,3.055l1.015,16.109c0.1,1.587,1.468,2.792,3.055,2.693l28.815,0.288z"/>
                                     <path id="path93692" d="m361.05,221.28c1.587-0.1,2.793-1.468,2.693-3.055l1.774-14.782c-0.1-1.587-1.468-2.792-3.055-2.693l-27.299-0.084c-1.587,0.1-2.793,1.468-2.693,3.055l-1.774,14.781c0.1,1.587,1.468,2.793,3.055,2.693l27.299,0.085z"/>
                                    </g>
                                    <path id="path93694" d="m326.15,146.08c0.793-0.05,1.396-0.734,1.347-1.527l0.626-4.369c-0.05-0.793-0.734-1.396-1.527-1.346l-96.988,1.149c-0.794,0.05-1.396,0.734-1.347,1.527l0.262,4.162c0.05,0.794,0.734,1.396,1.527,1.347l96.1-0.943z"/>
                                    <path id="path93696" d="m324.89,155.47c0.793-0.05,1.396-0.734,1.346-1.527l0.627-4.369c-0.05-0.793-0.734-1.396-1.528-1.346l-95.201,0.887c-0.793,0.05-1.396,0.734-1.346,1.527l0.252,4.013c0.05,0.793,0.734,1.396,1.527,1.346l94.323-0.531z"/>
                                    <path id="path93698" d="m43.87,155.72c-7.686,6.414-15.311,20.003-15.616,47.739-0.538,48.729,20.918,69.622,42.513,68.862l26.965-1.398c14.333-1.504,23.605-21.326,24.739-36.728,0,0-31.625-1.014-37.371-1.554-5.745-0.54-16.524,0.139-16.922-10.958l-2.984-56.924s-2.846-2.226-4.25-5.443c-1.405-3.218-2.662-8.85-2.662-8.85-1.901-5.952-5.436-15.136-9.417-14.347-3.981,0.788-2.979,14.565-2.518,17.626l-2.477,1.975z"/>
                                    <path id="path93700" d="m65.85,176.23c-3.58-4.749-7.774-7.414-12.108-7.141-10.99,0.692-18.718,20.021-17.26,43.172,1.458,23.15,11.55,41.357,22.541,40.665,7.291-0.459,13.146-9.121,15.836-21.659-5.704-1.6-6.548-7.058-6.721-9.803l-2.288-45.23z" fill="#FFF"/>
                                    <path id="path93702" d="M56.383,211.01" fill="#FFF"/>
                                    <path id="path93704" d="m65.649,180.75c-3.378-4.919-7.438-7.729-11.643-7.464-9.891,0.624-16.846,18.02-15.534,38.854,1.312,20.835,10.395,37.221,20.287,36.598,6.325-0.398,11.449-7.655,13.979-18.283" stroke="#000" stroke-width="0.5" fill="none"/>
                                    <path id="path93706" d="M56.383,211.01" stroke="#000" stroke-width="0.5" fill="none"/>
                                    <path id="path93708" d="M56.383,211.01"/>
                                    <ellipse id="ellipse93710" d="m 61.985,210.98 c 0,1.33818 -2.284691,2.423 -5.103,2.423 -2.818309,0 -5.103,-1.08482 -5.103,-2.423 0,-1.33819 2.284691,-2.423 5.103,-2.423 2.818309,0 5.103,1.08481 5.103,2.423 z" cx="56.882" cy="210.98" rx="5.103" ry="2.423" transform="matrix(0.0629,0.998,-0.998,0.0629,263.867,140.946)" stroke="#000" stroke-width="0.5" fill="none"/>
                                    <path id="path93712" d="M56.882,210.98" stroke="#000" stroke-width="0.5" fill="none"/>
                                    <ellipse id="ellipse93714" d="m 63.392001,201.81 c 0,1.07033 -1.827573,1.938 -4.082,1.938 -2.254426,0 -4.081999,-0.86767 -4.081999,-1.938 0,-1.07033 1.827573,-1.938 4.081999,-1.938 2.254427,0 4.082,0.86767 4.082,1.938 z" cx="59.31" cy="201.81" rx="4.082" transform="matrix(0.0629,0.998,-0.998,0.0629,256.9909,129.93)" ry="1.938"/>
                                    <path id="path93716" d="M59.31,201.81"/>
                                    <ellipse id="ellipse93718" d="m 56.649001,204.11 c 0,1.07033 -1.827573,1.938 -4.082,1.938 -2.254426,0 -4.081999,-0.86767 -4.081999,-1.938 0,-1.07033 1.827573,-1.938 4.081999,-1.938 2.254427,0 4.082,0.86767 4.082,1.938 z" cx="52.567" cy="204.11" rx="4.082" transform="matrix(0.0629,0.998,-0.998,0.0629,252.9698,138.8188)" ry="1.938"/>
                                    <path id="path93720" d="M52.567,204.11"/>
                                    <ellipse id="ellipse93722" d="m 57.959,218.92999 c 0,1.07033 -1.828022,1.938 -4.083001,1.938 -2.254978,0 -4.083,-0.86767 -4.083,-1.938 0,-1.07033 1.828022,-1.938 4.083,-1.938 2.254979,0 4.083001,0.86767 4.083001,1.938 z" cx="53.876" cy="218.93" rx="4.083" transform="matrix(0.0629,0.998,-0.998,0.0629,268.9858,151.3904)" ry="1.938"/>
                                    <path id="path93724" d="M53.876,218.93"/>
                                    <ellipse id="ellipse93726" d="m 65.473998,216.96001 c 0,1.07032 -1.827573,1.938 -4.082,1.938 -2.254426,0 -4.081999,-0.86768 -4.081999,-1.938 0,-1.07033 1.827573,-1.938 4.081999,-1.938 2.254427,0 4.082,0.86767 4.082,1.938 z" cx="61.392" cy="216.96" rx="4.082" transform="matrix(0.0629,0.998,-0.998,0.0629,274.0559,142.0369)" ry="1.938"/>
                                    <path id="path93728" d="M61.392,216.96"/>
                                    <path id="path93730" d="M57.365,210.7"/>
                                    <path id="path93732" d="m41.15,213.55,6.01-4.011,0.814-0.685c-0.006-1.424,0.062-2.806,0.198-4.127l-0.657-1.472-5.346-9.307-0.669-0.88c-1.191,5.555-1.671,12.053-1.237,18.954,0.041,0.644,0.088,1.284,0.144,1.918l0.743-0.39z"/>
                                    <path id="path93734" d="m51.184,225.7-2.84,12.578-0.403,1.013c-3.02-4.722-5.426-11.403-6.74-19.138l0.975-0.273,6.082-0.884,1.301,0.893c0.456,1.513,0.998,2.906,1.607,4.148l0.018,1.663z"/>
                                    <path id="path93736" d="m57.916,231.16,3.359,13.565,0.557,1.007c-1.02,0.541-2.09,0.859-3.203,0.929-2.589,0.163-5.121-1.033-7.44-3.296l0.276-1.278,3.893-11.768,0.585-0.629c0.466,0.247,0.942,0.424,1.424,0.525l0.549,0.945z"/>
                                    <path id="path93738" d="m65.219,241.72-2.189-12.888-0.009-1.216c0.259-0.271,0.583-0.605,0.677-0.923l0.594,0.306,5.102,5.44,0.668,1.068c-1.091,3.419-2.49,6.316-4.131,8.515l-0.712-0.302z"/>
                                    <path id="path93740" d="m66.938,202.6-0.795,0.112-0.755-0.459c-0.406-1.469-0.891-2.835-1.44-4.072l0.204-1.23,2.29-5.95,0.496,11.599z"/>
                                    <path id="path93742" d="m64.348,182.16-4.807,9.195-1.008,0.224c-0.396-0.187-0.799-0.323-1.206-0.405l-0.469-0.651-1.153-14.331,0.424-0.691c2.853,0.582,5.583,2.771,7.975,6.158l0.244,0.501z"/>
                                    <path id="path93744" d="m68.11,219.8-0.86-1.503-0.616-1.698c0.193-1.03,0.167-2.336,0.112-4.787l0.547-0.782,0.817,8.77z"/>
                                    <path id="path93746" d="m51.854,192.59-0.483-15.625-0.684-0.541c-2.995,1.71-5.533,5.361-7.372,10.313l0.45,0.726,6.141,8.005,0.944-0.212c0.252-0.452,0.518-0.872,0.796-1.258l0.208-1.408z"/>
                                    <path id="path93748" d="m27.096,194.24c-0.697,8.811-0.289,15.298,0.307,20.771l-11.992,0.505c-5.754,0.11-9.186-2.68-11.151-33.87-1.021-16.21,1.795-27.16,1.795-27.16-1.73,0.35-2.187-6.88-3.5-15.81-1.314-8.94-0.197-19.03,1.285-19.37,1.481-0.344,5.228,7.436,6.2,18.898-1.731,0.359-1.027,3.571,0.896,14.222,1.923,10.65,2.181,26.665,1.964,31.188-0.216,4.522,4.682,6.719,4.682,6.719l9.514,3.91z"/>
                                    <path id="path93750" d="m10.187,152.47s2.224,19.398,1.605,29.457c0,0,0.941,10.963-1.862,18.153-3.981-7.515-2.953-42.899,0.257-47.61z" fill="#FFF"/>
                                    <path id="path93752" d="M10.474,196.79c-1.953-7.14-2.574-32.9-0.004-39.83" stroke="#000" stroke-width="0.5" fill="none"/>
                                    <path id="path93754" d="m40.644,59.375,4.055,0.747,4.228,3.491,11.992-0.505-2.159,17.42-7.611-1.525s0.908,6.456,0.862,9.715c-0.045,3.259-9.185,1.33-9.654-2.147-0.47-3.478-0.314-4.99-0.314-4.99l-16.905-1.941c-4.023-0.248-3.136-2.057-3.277-4.302-0.142-2.246-0.629-9.98,0.743-12.071,1.371-2.09,2.212-4.648,6.251-4.151l11.789,0.259z"/>
                                    <path id="path93756" d="m69.178,82.878c-1.024-20.226,8.351-63.735,11.801-71.132,1.324-2.839,8.092-2.764,8.092-2.764,52.909-3.083,130.24-2.849,175.39,0.725,5.287,0.418,7.736,3.521,7.736,3.521,19.597,20.809,37.152,45.003,44.899,68.563-109.76-8.618-192.69-4.897-247.92,1.087z"/>
                                    <path id="path93758" d="m156.19,64.372-22.019,0.385c0.715-4.554-9.081-8.947-9.081-8.947,3.462-0.719,1.493-8.11,1.493-8.11l-4.06-16.777s0.122-6.02-9.953-6.888-29.068-0.173-30.439,1.917c0,0,1.618-5.347,11.131-6.212,17.933-1.631,87.609-1.01,87.609-1.01l-1.441,2.971s-12.904-0.063-16.334,1.154c-3.43,1.218-4.692,9.951-0.837,10.574,3.496,0.564,29.068,0.173,29.068,0.173l-3.332,10.73c-1.713,4.617,1.065,8.951,1.065,8.951s-8.389,2.031-8.354,10.546l-24.513,0.543z" fill="#FFF"/>
                                    <g id="g93760">
                                     <path id="path93762" d="m83.913,46.379s22.361-2.911,31.595,0.515c0,0,2.177-13.163-7.866-13.532l-13.505,0.35c-9.48,0.597-10.222,12.667-10.222,12.667z" fill="#FFF"/>
                                    </g>
                                    <g id="g93764">
                                     <path id="path93766" d="m197.67,45.971s18.603-2.925,27.836,0.501c0,0,2.909-13.459-7.134-13.829l-10.51,0.161c-9.481,0.597-10.192,13.167-10.192,13.167z" fill="#FFF"/>
                                    </g>
                                    <path id="path93768" d="m256.43,65.071-16.719-2.955-7.504-39.606,7.517,0.027c-3.305,3.214,0.129,10.012,7.771,12.035,0,0,6.652,18.118,8.935,30.499z" fill="#FFF"/>
                                    <path id="path93770" d="m193.64,22.685-5.435-0.785-0.555-2.846,14.799,0.32c-7.235,0.456-8.809,3.311-8.809,3.311z" fill="#FFF"/>
                                    <path id="path93772" d="m230.16,25.77-1.031-4.444-10.807-0.572s11.587,1.024,11.838,5.016z" fill="#FFF"/>
                                    <path id="path93774" d="m266.38,20.232s-8.795-0.448-13.271,0.084c6.446,10.866,15.082,36.624,16.693,46.292l33.626,8.903c-4-15.779-30.97-50.152-37.05-55.279z" fill="#FFF"/>
                                    <path id="path93776" d="m313.93,65.332s3.123,7.819,5.903,16.161l4.304,0.73c3.758,0.014,5.645-1.858,5.705-4.868l0.621-6.051c0.045-3.259-1.764-4.147-4.291-4.489s-12.242-1.483-12.242-1.483z"/>
                                    <path id="path93778" d="m84.979,234.31c66.278,2.338,202.24-0.59,233.71-2.071" stroke="#000" stroke-width="1.5" fill="none"/>
                                    <path id="path93780" d="m392.15,229.36s9.489-0.473,8.24-4.402-4.685-12.73-1.816-14.915c2.868-2.185,9.662-13.635,9.536-15.63-0.125-1.996,1.713-4.617,1.43-9.108s-4.337-5.238-2.499-7.858c1.839-2.621,0.994-8.079-1.627-9.917s-11.418-6.294-11.418-6.294,3.96-0.75,3.74-4.244c-0.22-3.493-3.945-30.813-9.497-31.465,4.086,1.246,0.684-5.053-6.212-11.131-6.89-6.07-22.69-18.35-60.75-33.989l-6.37-13.628c-13.15-26.211-41.2-58.33-47.32-59.629-10.92-2.318-39.68-5.517-94.84-6.3-55.15-0.785-111.45,4.265-112.74,7.602-4.975,0.564-11.008,4.201-9.945,9.144l-29.326,47.437-4.476,0.532c-3.243,0.205-2.181,5.147-0.075,6.768,0,0-0.108,2.262-2.228,4.399-2.12,2.138-4.735,12.322-6.461,20.697-1.727,8.375-2.456,16.687-2.456,16.687-2.524,3.666-3.316,10.98-3.204,16.734,0,0-1.216,0.578-1.043,3.322s0.33,5.24,0.737,7.719,2.717,7.344,2.717,7.344" stroke="#000" stroke-width="1.5" fill="none"/>
                                    <g id="g93782" stroke-width="2.5" stroke="#000" fill="#FFF">
                                     <path id="path93784" d="m84.772,128.08-4.07,24.981c-1.317,8.951,12.067,8.108,12.067,8.108l70.436,0.4c4.032,0.015,6.608-1.76,5.267-5.976l-7.04-26.431c-1.124-5.035-7.514-4.095-7.514-4.095l-61.033-0.456c-4.585-0.246-7.245,0.19-8.113,3.469z"/>
                                     <path id="path93786" d="m394,161.24-58.517,0.503c-4.3,0.002-4.987-2.373-4.705-6.422l2.464-24.88c0.733-5.421,4.281-4.569,7.242-4.487l43.208-0.136c3.788-0.405,6.833,1.015,8.157,4.963,0,0,4.892,13.667,5.8,23.822,0.002,0,0.895,6.846-3.649,6.637z"/>
                                    </g>
                                    <line id="line93788" stroke-width="5" x1="162.1" x2="333.27" stroke="#000" y1="131.28" y2="130.98" fill="none"/>
                                    <line id="line93790" stroke-width="2" x1="168.96" x2="330.69" stroke="#000" y1="159.06" y2="158.28" fill="none"/>
                                    <path id="path93792" d="m106.87,124.81c2.647,7.896,4.064,30.38,2.293,36.404" stroke="#000" stroke-width="2" fill="none"/>
                                    <path id="path93794" d="m67.68,176.73c5.522,2.34,12.583,3.507,29.749,2.963,17.165-0.543,93.49-0.514,162.29-0.548,68.796-0.034,147.33-1.695,147.33-1.695" stroke="#000" stroke-width="3" fill="none"/>
                                    <g id="g93796">
                                     <path id="path93798" d="m67.12,193.43,13.553,1.834c4.417,1.872,18.438,2.601,28.075,1.994,9.636-0.607,115-0.257,156.36-0.712,41.358-0.456,142.41-0.371,142.41-0.371" fill="none" stroke="#000"/>
                                    </g>
                                    <g id="g93800">
                                     <path id="path93802" d="m66.749,187.54,13.553,1.833c4.418,1.872,18.438,2.601,28.075,1.994s115-0.257,156.36-0.712c41.357-0.455,142.41-0.371,142.41-0.371" stroke="#000" stroke-width="0.5" fill="none"/>
                                    </g>
                                    <g id="g93804">
                                     <path id="path93806" d="m65.636,169.87,13.553,1.833c4.418,1.872,18.438,2.601,28.075,1.994s115-0.257,156.36-0.712c41.357-0.455,142.41-0.371,142.41-0.371" stroke="#000" stroke-width="0.5" fill="none"/>
                                    </g>
                                    <g id="g93808">
                                     <path id="path93810" d="m405.7,167.26s-101.05-0.084-142.41,0.371c-41.357,0.455-146.73,0.105-156.36,0.712-9.636,0.607-23.657-0.123-28.075-1.994l-13.552-1.833,2.84,56.95c1.923,12.042,8.81,10.827,8.81,10.827" fill="none" stroke="#000"/>
                                    </g>
                                    <path id="path93812" d="m71.339,200.68s-0.232,4.852,0.038,9.135,9.54,6.386,9.54,6.386l44.671,0.949c1.374,4.75,11.179,6.82,20.883,7.284" stroke="#000" stroke-width="0.5" fill="none"/>
                                    <line id="line93814" stroke-width="0.5" x1="173.71" x2="180.67" stroke="#000" y1="221.65" y2="221.21" fill="none"/>
                                    <path id="path93816" d="m188.55,200.16c-4.852-0.232-8.359,0.33-8.359,13.551,0,11.978,3.453,12.145,11.55,12.709l124.61-1.399c5.922,0.165,7.862-1.083,8.127-5.399,0.266-4.317,0.161-14.223,0.161-14.223-0.94-6.39-28.828-6.13-28.828-6.13" stroke="#000" stroke-width="0.5" fill="none"/>
                                    <line id="line93818" stroke-width="0.5" x1="324.85" x2="330.8" stroke="#000" y1="214.82" y2="215.52" fill="none"/>
                                    <path id="path93820" d="m362.36,221.59c4.283-0.27,9.165-8.102,14.518-8.439,5.354-0.337,19.91,0.358,19.91,0.358" stroke="#000" stroke-width="0.5" fill="none"/>
                                    <path id="path93822" d="m322.94,82.177c22.156,10.429,54.054,30.457,55.462,35.743s1.478,7.394,1.478,7.394" stroke="#000" stroke-width="0.5" fill="none"/>
                                    <line id="line93824" stroke-width="2" x1="379.88" x2="382.64" stroke="#000" y1="125.31" y2="160.61" fill="none"/>
                                    <path id="path93826" d="m92.884,124.62c0.733-5.421,3.777-8.3,6.989-8.502s48.684-3.604,91.079-4.662,178.22,4.898,187.45,6.467c9.236,1.568,11.714,6.787,11.714,6.787" stroke="#000" stroke-width="0.5" fill="none"/>
                                    <path id="path93828" d="m331.49,115.5s-10.252-26.228-28.526-34.752" stroke="#000" stroke-width="0.5" fill="none"/>
                                    <path id="path93830" d="M158.8,112.94c-8.08-17.228-44.49-32.133-58.64-35.004l-6.424,0.405c31.257,9.855,46.787,17.476,65.065,34.6z" stroke="#000" stroke-width="0.5" fill="none"/>
                                    <path id="path93832" d="m74.526,80.625s31.131,24.913,31.738,34.55l2.715,8.966" stroke="#000" stroke-width="0.5" fill="none"/>
                                    <path id="path93834" d="m9.381,87.416c35.406,7.445,69.175,23.054,80.759,36.299" stroke="#000" stroke-width="0.5" fill="none"/>
                                    <path id="path93836" d="m61.277,83.609c-10.235,8.17-18.031,27.338-18.41,72.511" stroke="#000" stroke-width="0.5" fill="none"/>
                                    <path id="path93838" d="m45.058,154.64c-1.595-12.53,2.434-31.31,12.564-35.19,8.397-3.216,12.265,36.851,12.349,38.189l-8.833,0.557" stroke="#000" stroke-width="0.5" fill="none"/>
                                    <path id="path93840" d="m69.971,157.64s8.284,3.51,19.309,3.621" stroke="#000" stroke-width="0.5" fill="none"/>
                                    <path id="path93842" d="m5.37,113.33s2.607-5.539,4.982-6.226c3.389-0.98,3.15,4.884,3.354,14.838,0.257,12.615,3.164,37.425,7.236,50.874-4.835,0.036-10.085-27.852-11.662-35.814" stroke="#000" stroke-width="0.5" fill="none"/>
                                    <path id="path93844" d="m27.587,77.804c-6.032,15.161-14.632,49.295-2.729,97.457l7.832,4.882" stroke="#000" stroke-width="0.5" fill="none"/>
                                    <path id="path93846" d="m24.858,175.26s-8.779,9.959-3.24,12.566,9.422,4.513,9.422,4.513" stroke="#000" stroke-width="0.5" fill="none"/>
                                    <path id="path93848" d="m15.54,74.263s-0.367,2.711,1.541,3.128c1.907,0.417,6.475,0.398,6.475,0.398" stroke="#000" stroke-width="0.5" fill="none"/>
                                    <path id="path93850" d="M49.857,81.507" stroke="#000" stroke-width="0.5" fill="none"/>
                                    <path id="path93852" d="m49.857,81.507c5.188,1.286,10.692,3.357,11.226-0.976,0.533-4.333,2.976-38.08,14.688-69.723,0.801-4.35-9.571-2.622-16.782-1.899" stroke="#000" stroke-width="0.5" fill="none"/>
                                    <path id="path93854" d="M80.625,13.19c-12.048-3.541-25.299-3.966-30.59,4.388" stroke="#000" stroke-width="0.5" fill="none"/>
                                    <path id="path93856" d="m74.385,14.389s-11.611-0.881-13.97,0.074c0,0-10.598,19.479-19.167,45.55" stroke="#000" stroke-width="0.5" fill="none"/>
                                    <g id="g93858">
                                     <path id="path93860" d="M44.042,61.718c5.861-22.137,14.754-38.822,18.866-46.068l10.875,0.562" stroke="#000" stroke-width="0.5" fill="none"/>
                                    </g>
                                    <path id="path93862" d="m60.415,14.463s-5.354,0.337-8.898,3.786l-32.215,51.746c-3.376,6.125,4.102,5.385,4.102,5.385" stroke="#000" stroke-width="0.5" fill="none"/>
                                    <line id="line93864" x1="28.867" x2="51.184" stroke="#000" y1="59.718" y2="21.494" fill="none"/>
                                    <polyline id="polyline93866" points="51.184,21.494,53.173,18.95,59.545,16.324" stroke="#000" fill="none"/>
                                    <path id="path93868" d="m74.148,8.492c0.268-0.017,7.294,1.4,6.832,3.254" stroke="#000" stroke-width="0.5" fill="none"/>
                                    <path id="path93870" d="m45.624,63.365c1.652,1.936-1.218,6.258-2.773,7.162-1.556,0.904-17.5-0.51-18.405-2.065s-0.12-6.173,1.703-7.095c1.823-0.921,17.734-0.042,19.475,1.998z" fill="#FFF"/>
                                    <path id="path93872" d="m317.3,67.214,2.546,6.29,8.499-1.61s1.204-2.226-1.541-3.128c-2.744-0.903-9.504-1.552-9.504-1.552z" fill="#FFF"/>
                                    <g id="g93874" stroke-width="0.5" stroke="#000" fill="none">
                                     <ellipse id="ellipse93876" d="m 249.92901,121.26 c 0,5.55157 -2.54706,10.052 -5.689,10.052 -3.14195,0 -5.689,-4.50043 -5.689,-10.052 0,-5.55156 2.54705,-10.052 5.689,-10.052 3.14194,0 5.689,4.50044 5.689,10.052 z" cx="244.24" cy="121.26" rx="5.689" ry="10.052" transform="matrix(0.0293,0.9996,-0.9996,0.0293,358.308,-126.4237)"/>
                                     <path id="path93878" d="M244.24,121.26"/>
                                    </g>
                                    <g id="g93880" stroke-width="0.5" stroke="#000" fill="none">
                                     <ellipse id="ellipse93882" d="m 248.34801,121.26 c 0,4.00793 -1.83922,7.257 -4.108,7.257 -2.26879,0 -4.108,-3.24907 -4.108,-7.257 0,-4.00793 1.83921,-7.257 4.108,-7.257 2.26878,0 4.108,3.24907 4.108,7.257 z" cx="244.24" cy="121.26" rx="4.108" ry="7.257" transform="matrix(0.0292,0.9996,-0.9996,0.0292,358.3138,-126.421)"/>
                                     <path id="path93884" d="M244.24,121.26"/>
                                    </g>
                                    <polyline id="polyline93886" stroke="#000" points="183.9,219.26,189.76,218.35,187.42,223.88" stroke-width="0.5" fill="none"/>
                                    <line id="line93888" stroke-width="0.5" x1="316.08" x2="304.7" stroke="#000" y1="221.41" y2="217.02" fill="none"/>
                                    <line id="line93890" stroke-width="0.5" x1="306.44" x2="319.93" stroke="#000" y1="212.98" y2="215.98" fill="none"/>
                                    <line id="line93892" stroke-width="1.5" x1="15.54" x2="20.849" stroke="#000" y1="74.263" y2="64.818" fill="none"/>
                                    <path id="path93894" d="M45.842,62.018c5.862-22.138,14.755-38.822,18.866-46.068" stroke="#000" stroke-width="0.5" fill="none"/>
                                   </g>
                                  </g>
                                 </g>
                                </g>
                               </g>
                              </g>
                             </g>
                            </g>
                           </g>
                          </g>
                         </g>
                        </g>
                       </g>
                      </g>
                     </g>
                    </g>
                   </g>
                  </g>
                 </g>
                </g>
               </g>
              </g>
             </g>
            </g>
           </g>
          </g>
         </g>
        </g>
       </g>
      </g>
     </g>
    </g>
   </g>
  </g>
 </g>
</svg>
