<?xml version="1.0" encoding="UTF-8" standalone="no"?>
<!-- Created with Inkscape (http://www.inkscape.org/) -->
<svg id="svg2" xmlns:rdf="http://www.w3.org/1999/02/22-rdf-syntax-ns#" xmlns="http://www.w3.org/2000/svg" height="54" width="99" version="1.1" xmlns:cc="http://creativecommons.org/ns#" xmlns:dc="http://purl.org/dc/elements/1.1/">
 <metadata id="metadata7">
  <rdf:RDF>
   <cc:Work rdf:about="">
    <dc:format>image/svg+xml</dc:format>
    <dc:type rdf:resource="http://purl.org/dc/dcmitype/StillImage"/>
    <dc:title/>
   </cc:Work>
  </rdf:RDF>
 </metadata>
 <g id="g3491">
  <g id="g3871">
   <g id="g4614">
    <g id="g5219">
     <g id="g5689">
      <g id="g6406">
       <g id="g7263">
        <g id="g8053">
         <g id="g8717">
          <g id="g9406">
           <g id="g9898">
            <g id="g10207">
             <g id="g10407">
              <g id="g10743">
               <g id="g11282">
                <g id="g15079">
                 <g id="g15585">
                  <g id="g16769">
                   <g id="g17492">
                    <g id="g17976">
                     <g id="g18386">
                      <g id="g19746">
                       <g id="g20846">
                        <g id="g21376">
                         <g id="g21705">
                          <g id="g22212">
                           <g id="g26871">
                            <g id="g28064">
                             <g id="g28748">
                              <g id="g29219">
                               <g id="g29819">
                                <g id="g30460">
                                 <g id="g30889">
                                  <g id="g31297">
                                   <rect id="rect2990" opacity="0" height="54" width="99" y="0" x="0"/>
                                   <g id="layer1" transform="translate(268.0686,8.0264479)">
                                    <g id="logo34" transform="matrix(0.1950238,0,0,0.1950238,-263.57182,-2.3715551)">
                                     <g id="g94013" stroke-width="0.5" stroke="#000" fill="none">
                                      <path id="path94015" d="m201.92,201.72c10.362-1.848,17.937-15.383,16.917-30.23-1.019-14.847-10.245-25.385-20.607-23.537s-17.937,15.383-16.917,30.23c1.018,14.847,10.244,25.385,20.607,23.537z"/>
                                      <path id="path94017" d="M200.08,174.83"/>
                                     </g>
                                     <g id="g94019">
                                      <g id="g94021">
                                       <path id="path94023" d="m451.26,126.83c0.442-0.423,1.061-0.843,1.925-1.188,3.949-2.126,3.341-41.613-0.304-48.296-13.66-30.37-26.72-48.898-30.37-53.454s-2.73-4.252-21.57-7.29c-27.22-4.392-101.14-7.594-141.24-8.201-40.09-0.607-53.46,2.126-70.47,4.556s-52.85,37.057-64.39,51.637c-59.535,3.645-93.858,5.468-114.82,15.795-1.219,0.601-1.823,5.467-1.823,5.467v1.215c-3.341,5.771-4.252,23.991-3.037,27.641,0,0,1.099,4.019-0.304,4.86-1.375,0.825-0.51,2.894,3.044,3.955l-0.007-0.31c32.804,3.645,92.946,7.29,106.62,7.897,13.669,0.607,40.095,0,40.095,0,2.734-9.416,17.617-24.907,42.828-24.907s40.095,1.215,45.258,26.73l2.733,0.304,0.304,3.645,129.7-2.733,0.607-3.341h3.645c2.43-9.72,17.01-21.262,29.767-21.262s21.262,3.038,24.907,17.313h16.482l0.426-0.028z" fill="#FFF"/>
                                      </g>
                                      <g id="g94025">
                                       <path id="path94027" d="m130.5,58.718c-3.449,3.545-5.666,5.874-5.666,5.874,45.258,1.215,87.175,4.556,120.59,7.897,18.833-29.463,32.197-48.903,34.627-52.548s-0.912-5.164-5.771-5.467c-42.828-2.734-72.899-0.608-95.072,2.43,0,0-2.43,0.911-13.365,8.505-6.405,4.448-19.375,17.128-29.021,26.871-6.517,0.162-7.032,1.172-6.319,6.438z"/>
                                      </g>
                                      <g id="g94029">
                                       <path id="path94031" d="m284.91,20.549c-6.986,10.024-30.679,50.118-30.679,50.118-3.037,4.556-2.733,9.416,7.29,9.416s87.175-1.215,122.11-0.911c7.594,0,7.897-3.949,4.86-11.846s-17.617-38.576-22.173-43.739c-4.556-5.164-6.379-4.556-14.884-4.86s-47.384-3.038-56.193-2.734-10.327,4.556-10.327,4.556z"/>
                                      </g>
                                      <g id="g94033">
                                       <path id="path94035" d="m380.59,20.245c-5.164-0.304-5.467,2.126-2.733,6.986,2.733,4.86,19.743,37.664,23.388,45.258s6.986,6.379,11.239,6.379,40.398-1.519,40.398-1.519c-5.47-11.846-20.66-42.524-30.38-53.459l-41.917-3.645z"/>
                                      </g>
                                      <path id="path94037" d="m364.5,31.788-14.58-0.607s4.86,16.402,6.986,34.627l25.211,1.215c-5.48-11.544-12.16-27.338-17.62-35.235z" fill="#FFF"/>
                                      <g id="g94039">
                                       <circle id="circle94041" d="m 375.18201,48.493 c 0,1.541979 -1.25002,2.792 -2.792,2.792 -1.54197,0 -2.792,-1.250021 -2.792,-2.792 0,-1.541979 1.25003,-2.792 2.792,-2.792 1.54198,0 2.792,1.250021 2.792,2.792 z" cx="372.39" cy="48.493" r="2.792"/>
                                       <path id="path94043" d="M372.39,48.494"/>
                                      </g>
                                      <path id="path94045" d="m311.34,40.596-0.607-9.112-27.489-1.215-11.694,18.529,0.608,5.164c1.519-3.038,14.276-0.911,14.276-0.911,4.252-10.328,10.023-12.757,17.01-12.454h7.896z" fill="#FFF"/>
                                      <path id="path94047" d="m251.5,41.811s0.304-9.112,0.304-11.238-0.911-3.341-3.645-3.646c-2.734-0.304-4.853-0.228-7.594,0-3.645,0.304-3.341,2.43-3.341,2.43l-3.04,11.543c1.215-1.519,16.706-0.911,17.314,0.911z" fill="#FFF"/>
                                      <path id="path94049" d="m209.28,54.872s3.645-18.832,6.075-23.388h-9.416c-2.734,0-2.43-2.734-2.43-2.734v-3.038c0-2.126,1.822-1.215,1.822-1.215s-10.023-0.607-14.884,0c-4.86,0.607-7.897,0.607-17.921,7.594-10.023,6.986-27.641,25.818-27.641,25.818s5.164,0.607,7.593,2.733c0.001,0.001,47.386-5.466,56.802-5.77z" fill="#FFF"/>
                                      <path id="path94051" d="m434.36,73.705c3.038,0,5.164-0.912,3.645-3.645-1.519-2.734-16.402-36.146-18.833-37.665-2.43-1.519-6.075-1.215-6.075-1.215l-29.919-0.304,20.958,40.094c1.519,3.341,5.315,3.341,5.315,3.341l24.909-0.606z" fill="#FFF"/>
                                      <g id="g94053">
                                       <path id="path94055" d="m180.42,218.9c-23.692,0-29.463-29.767-29.463-29.767s-13.365,0.607-15.188,0.304c-1.822-0.304-4.556-3.949-8.505-5.467-3.949-1.519-19.743-5.771-22.477-8.809,0,0-6.075,26.123-29.463,26.123h-15.769c-31.59,0-31.286-39.487-31.286-39.487s-14.58-3.341-16.402-4.556c-0.911-0.607,0-9.72,0-9.72-3.645,0-4.556-0.304-6.075-0.607-1.519-0.304-1.519-1.215-1.519-2.43s0.911-4.252-0.607-4.252-2.43-1.215-2.43-1.215-1.215-0.913-1.215-5.166c0-1.519,2.43-2.734,2.43-2.734s-0.304-2.126,1.519-2.43,3.645-1.823,3.949-5.468c32.804,3.645,92.946,7.29,106.62,7.897,13.669,0.607,40.095,0,40.095,0,2.734-9.416,17.617-24.907,42.828-24.907s40.095,1.215,45.258,26.73l2.733,0.304,0.304,3.645,129.7-2.733,0.607-3.341h3.645c2.43-9.72,17.01-21.262,29.767-21.262s21.262,3.038,24.907,17.313h17.617c0.607,1.823,2.734,1.823,2.734,1.823h3.341c3.948,1.215,4.252,3.341,2.126,4.252-0.911,5.467-1.215,9.112-5.467,10.631s-9.72,3.949-20.958,4.86c0,0-0.607,1.215-3.038,1.215s-4.252,1.215-3.949,3.037l-1.519,0.607s2.126,45.866-22.174,45.866h-14.883c-21.262,0-23.084-24.604-23.084-24.604l-27.034,0.911-0.911,1.215-18.529-0.607-20.654-1.215s-3.645,13.668-20.351,13.668h-9.112c-14.276,0-20.655-13.365-20.655-13.365l-15.188-0.303s-3.948,44.043-32.197,44.043h-20.047z"/>
                                       <path id="path94057" d="M9.112,123.82c-4.556-0.91-5.771-3.34-4.252-4.25,1.403-0.84,0.304-4.86,0.304-4.86-1.215-3.65-0.304-21.87,3.037-27.641v-1.215s0.604-4.867,1.823-5.467c20.958-10.327,55.281-12.15,114.82-15.795,11.542-14.58,47.384-49.207,64.394-51.637s30.375-5.164,70.469-4.556c40.094,0.607,114.02,3.81,141.24,8.201,18.832,3.038,17.921,2.734,21.566,7.29s16.706,23.084,30.375,53.459c3.645,6.683,4.252,46.169,0.304,48.296-3.037,1.215-3.037,3.341-3.037,3.341" stroke="#000" stroke-width="1.5" fill="none"/>
                                      </g>
                                      <g id="g94059">
                                       <g id="g94061" fill="#FFF">
                                        <path id="path94063" d="m406.18,186.38c7.691-1.646,13.313-13.7,12.556-26.923-0.756-13.223-7.604-22.608-15.294-20.962s-13.312,13.7-12.556,26.923,7.604,22.608,15.294,20.962z"/>
                                        <path id="path94065" d="M404.81,162.44"/>
                                       </g>
                                       <g id="g94067" stroke-width="0.5" stroke="#000" fill="none">
                                        <path id="path94069" d="m403.7,168.1c1.662-0.355,2.876-2.96,2.713-5.818-0.163-2.857-1.643-4.885-3.305-4.529-1.662,0.355-2.876,2.96-2.713,5.817,0.164,2.857,1.643,4.886,3.305,4.53z"/>
                                        <path id="path94071" d="M403.4,162.92"/>
                                       </g>
                                       <path id="path94073" d="m394.36,149.06s-1.942,5.078-2.444,10.662l5.079-7.674s-0.816-1.98-2.635-2.988z"/>
                                       <path id="path94075" d="m406.16,148.77,2.682-7.026c-3.603-1.827-7.52-2.169-10.791,1.716,0.001,0,5.069,2.531,8.109,5.31z"/>
                                       <path id="path94077" d="m403.43,177.26-0.531,6.645c1.75,1.427,7.353-1.087,8.516-9.103,0,0-4.405,1.791-7.985,2.458z"/>
                                       <path id="path94079" d="m411.55,165.74,2.789,0.646s0.514-8.016-2.262-18.067c-0.001,0,1.633,13.136-0.527,17.421z"/>
                                       <g id="g94081" stroke-width="0.5" stroke="#000" fill="none">
                                        <path id="path94083" d="m405.57,185.54c7.383-1.58,12.78-13.152,12.054-25.847-0.726-12.694-7.3-21.704-14.683-20.124s-12.78,13.152-12.054,25.846c0.726,12.696,7.3,21.706,14.683,20.125z"/>
                                        <path id="path94085" d="M404.25,162.56"/>
                                       </g>
                                       <path id="path94087" d="m392.15,168.75,2.34-2.533s1.742,7.091,2.077,14.401c0,0.001-2.402-2.711-4.417-11.868z"/>
                                       <g id="g94089">
                                        <path id="path94091" d="m403.62,166.8c1.247-0.267,2.158-2.22,2.035-4.363s-1.232-3.664-2.479-3.397c-1.246,0.267-2.157,2.22-2.035,4.363,0.123,2.143,1.233,3.664,2.479,3.397z"/>
                                        <path id="path94093" d="M403.4,162.92"/>
                                       </g>
                                       <g id="g94095" stroke-width="0.5" stroke="#000" fill="none">
                                        <path id="path94097" d="m403.42,174.56c3.739-0.8,6.472-6.661,6.104-13.09s-3.697-10.992-7.436-10.192-6.473,6.661-6.105,13.09,3.698,10.992,7.437,10.192z"/>
                                        <path id="path94099" d="M402.75,162.92"/>
                                       </g>
                                      </g>
                                      <path id="path94101" d="m338.23,92.615c-0.507,0-0.918-0.411-0.918-0.918l-0.5-4.19c0-0.507,0.411-0.918,0.918-0.918h7.77c0.507,0,0.918,0.411,0.918,0.918l0.5,4.19c0,0.507-0.411,0.918-0.918,0.918h-7.77z" stroke="#000" stroke-width="0.5" fill="none"/>
                                      <path id="path94103" d="m337.93,89.951c-0.507,0-0.918-0.206-0.918-0.459l-0.301-2.334c0-0.253,0.411-0.459,0.918-0.459h7.77c0.507,0,0.918,0.206,0.918,0.459l0.301,2.334c0,0.253-0.411,0.459-0.918,0.459h-7.77z" stroke-width="0.5" stroke="#000"/>
                                      <g id="g94105" stroke-width="0.5" stroke="#000" fill="none">
                                       <ellipse id="ellipse94107" d="m 346.05399,91.305 c 0,0.562226 -0.36444,1.018 -0.814,1.018 -0.44956,0 -0.814,-0.455774 -0.814,-1.018 0,-0.562226 0.36444,-1.018 0.814,-1.018 0.44956,0 0.814,0.455774 0.814,1.018 z" cx="345.24" rx="0.814" cy="91.305" ry="1.018"/>
                                       <path id="path94109" d="M345.24,91.305"/>
                                      </g>
                                      <path id="path94111" d="m8.201,87.069s30.375-0.608,85.049,1.822c20.047,0.607,39.171,0.607,43.132,0.607,6.378,0,5.467,3.949,6.075,35.235-5.771,0.304-12.757,0.304-40.094-0.608l-0.304,2.126s-0.304,1.215-2.43,1.215l-75.633-4.86c-2.734-0.304-3.341-1.519-3.645-4.86l-14.895-1.21" stroke="#000" stroke-width="0.5" fill="none"/>
                                      <path id="path94113" d="m105.1,93.448c-1.822,3.341-1.215,15.795-1.215,15.795l19.744,0.911s-0.304-10.023,0.607-16.706h-19.13z" fill="#FFF" stroke="#000"/>
                                      <path id="path94115" d="m125.75,93.448s-0.911,8.505-0.607,16.402h14.58s0.608-11.846-0.911-16.099l-13.06-0.303z" fill="#FFF" stroke="#000"/>
                                      <path id="path94117" d="m139.72,111.98,0.456,10.327s-10.479,0.304-15.947,0.304-20.351-0.911-20.351-0.911-0.456-7.29,0-10.328c0,0,10.935,0.912,19.896,0.912,8.96-0.001,15.946-0.304,15.946-0.304z" fill="#FFF" stroke="#000"/>
                                      <path id="path94119" d="m5.316,106.36c-0.152,2.886,0.456,8.049,0.456,8.049l14.276,0.911c-0.607-2.126-0.304-7.29-0.152-8.049l-14.58-0.91z" fill="#FFF" stroke="#000"/>
                                      <path id="path94121" d="m19.743,105.6s0.76-12.15,1.519-15.643h-13.516c-1.367,4.25-2.126,10.173-2.126,14.583l14.123,1.063z" fill="#FFF" stroke="#000"/>
                                      <path id="path94123" d="M92.642,95.574,31.286,93.751c-0.911,4.86-2.734,17.313-1.822,25.211l62.571,4.556c-0.911-5.77,0.607-27.944,0.607-27.944z" stroke-width="0.5" stroke="#000"/>
                                      <g id="g94125">
                                       <path id="path94127" d="m49.207,93.448c-1.519,6.986-3.341,20.958-1.822,27.641" fill="none" stroke="#FFF"/>
                                      </g>
                                      <g id="g94129">
                                       <path id="path94131" d="m71.988,94.663c-1.519,6.986-3.341,20.958-1.823,27.641" fill="none" stroke="#FFF"/>
                                      </g>
                                      <g id="g94133" stroke-width="0.5" stroke="#000" fill="#FFF">
                                       <path id="path94135" d="m98.737,104.8c0.419,0.018,0.773-0.308,0.791-0.727s-0.307-0.773-0.726-0.791l-74.046-3.15c-0.419-0.018-0.773,0.307-0.791,0.726s0.308,0.773,0.727,0.791l74.045,3.158z"/>
                                       <path id="path94137" d="M61.746,102.47"/>
                                      </g>
                                      <g id="g94139" stroke-width="0.5" stroke="#000" fill="#FFF">
                                       <path id="path94141" d="m98.064,116.68c0.419,0.023,0.777-0.297,0.8-0.716s-0.297-0.777-0.716-0.8l-74-4.103c-0.418-0.023-0.777,0.297-0.8,0.716s0.297,0.777,0.716,0.8l74,4.103z"/>
                                       <path id="path94143" d="M61.106,113.88"/>
                                      </g>
                                      <path id="path94145" d="m31.286,93.751c-4.556,0-6.834-0.456-7.138,1.519-0.372,2.42-1.67,12.454-1.367,20.654,0,2.734,3.038,2.734,3.038,2.734l3.645,0.304" stroke="#000" stroke-width="0.5" fill="none"/>
                                      <path id="path94147" d="m92.642,95.574,5.923,0.152c2.126,0,1.974,1.063,1.67,2.733-0.304,1.671-0.788,18.53-0.607,22.326,0.152,3.189-2.582,2.885-2.582,2.885l-5.012-0.152" stroke="#000" stroke-width="0.5" fill="none"/>
                                      <g id="g94149" stroke-width="0.5" stroke="#000" fill="none">
                                       <ellipse id="ellipse94151" d="m 66.208002,91.321999 c 0,1.423237 -2.307973,2.576999 -5.155001,2.576999 -2.847028,0 -5.155,-1.153762 -5.155,-2.576999 0,-1.423238 2.307972,-2.577 5.155,-2.577 2.847028,0 5.155001,1.153762 5.155001,2.577 z" cx="61.053" rx="5.155" cy="91.322" ry="2.577"/>
                                       <path id="path94153" d="M61.053,91.322"/>
                                      </g>
                                      <path id="path94155" d="m126.66,88.892s0-3.341,0.912-5.164c0.911-1.822,2.43-2.126,5.467-3.038,3.038-0.911,72.899-7.897,95.984-6.075,9.112,0,14.428-0.456,16.554-2.886" stroke="#000" stroke-width="0.5" fill="none"/>
                                      <path id="path94157" d="M126.05,82.209c-3.65-1.215-54.191-1.63-56.497-1.823-1.823-0.152-3.341-0.911-3.341-0.911l-2.43-0.152s-1.519,1.063-4.556,0.759c-3.038-0.304-45.562,0.607-47.992,1.519" stroke="#000" stroke-width="0.5" fill="none"/>
                                      <g id="g94159">
                                       <path id="path94161" d="m62.572,79.476c9.72-5.164,11.542-8.505,92.946-14.58" stroke="#000" stroke-width="0.5" fill="none"/>
                                      </g>
                                      <g id="g94163">
                                       <path id="path94165" d="m66.217,79.476c9.72-5.164,11.542-8.505,92.946-14.58" stroke="#000" stroke-width="0.5" fill="none"/>
                                      </g>
                                      <g id="g94167">
                                       <path id="path94169" d="m112.99,78.261c4.556-3.038,33.716-8.505,79.582-11.542" stroke="#000" stroke-width="0.5" fill="none"/>
                                      </g>
                                      <g id="g94171">
                                       <path id="path94173" d="M25.819,77.349c4.556-3.037,33.716-8.505,79.581-11.542" stroke="#000" stroke-width="0.5" fill="none"/>
                                      </g>
                                      <path id="path94175" d="m102.06,126.25s14.883,1.215,25.515,1.215c10.631,0,20.654,0.911,22.781,0.304,2.126-0.607,3.949-1.519,7.29-12.757s18.528-23.996,40.094-23.084,37.968,5.771,43.739,23.084l3.949,14.58-2.733,3.341" stroke="#000" stroke-width="0.5" fill="none"/>
                                      <path id="path94177" d="m242.69,132.94c1.215,5.164,3.949,19.743,4.556,30.982,0,0,0.607,4.86,3.037,4.86s104.49-3.038,112.99-3.341c8.505-0.303,9.72-0.304,10.024-4.556,0.303-4.252,0.911-14.58,6.378-30.071" stroke="#FFF" stroke-width="0.5" fill="none"/>
                                      <polyline id="polyline94179" stroke="#000" points="379.68,130.81,376.95,127.77,245.43,129.59" stroke-width="0.5" fill="none"/>
                                      <g id="g94181">
                                       <line id="line94183" stroke-width="0.5" x1="381.81" x2="239.35" stroke="#000" y1="130.81" y2="133.24" fill="none"/>
                                      </g>
                                      <g id="g94185">
                                       <line id="line94187" stroke-width="0.5" x1="383.02" x2="240.57" stroke="#000" y1="132.33" y2="134.76" fill="none"/>
                                      </g>
                                      <path id="path94189" d="m376.95,127.77c6.683-17.01,8.201-27.641,29.767-28.855,21.566-1.215,24.907,3.037,28.856,23.388,0,0,10.328,0.607,19.136,0" stroke="#000" stroke-width="0.5" fill="none"/>
                                      <g id="g94191" stroke-width="0.5" stroke="#000" fill="none">
                                       <ellipse id="ellipse94193" d="m 443.205,106.2 c 0,3.79585 -1.92293,6.873 -4.295,6.873 -2.37206,0 -4.295,-3.07715 -4.295,-6.873 0,-3.79586 1.92294,-6.873003 4.295,-6.873003 2.37207,0 4.295,3.077143 4.295,6.873003 z" cx="438.91" rx="4.295" cy="106.2" ry="6.873"/>
                                       <path id="path94195" d="M438.91,106.2"/>
                                      </g>
                                      <path id="path94197" d="m353.56,135.36s0.911-6.075-0.304-7.29c1.215-10.631,1.822-38.272-2.43-48.903" stroke="#000" stroke-width="0.5" fill="none"/>
                                      <path id="path94199" d="m245.43,72.489c1.519,2.734,0,5.771,0.608,12.454,0.607,6.683,2.733,22.173,1.822,44.651,1.215,2.126,0,8.505,0,8.505" stroke="#000" stroke-width="0.5" fill="none"/>
                                      <g id="g94201">
                                       <path id="path94203" d="m286.86,22.563c-6.637,9.332-29.144,46.66-29.144,46.66-2.886,4.242-2.597,8.767,6.925,8.767s82.816-1.131,116-0.849c7.214,0,7.502-3.676,4.617-11.028-2.886-7.353-16.736-35.914-21.065-40.721-4.329-4.808-6.06-4.242-14.139-4.524-8.08-0.283-45.015-2.828-53.383-2.545s-9.811,4.24-9.811,4.24z" stroke="#FFF" stroke-width="0.5" fill="none"/>
                                      </g>
                                      <path id="path94205" d="m423.47,25.691-40.276-3.394c-4.905-0.283-5.194,1.979-2.597,6.504s18.756,35.065,22.219,42.135c3.462,7.069,6.637,5.938,10.677,5.938s38.074-1.414,38.074-1.414" stroke="#FFF" stroke-width="0.5" fill="none"/>
                                      <g id="g94207">
                                       <path id="path94209" d="m134.42,57.929c-3.244,3.334-5.328,5.524-5.328,5.524,42.565,1.143,81.988,4.285,113.41,7.427,17.712-27.71,30.281-45.994,32.567-49.421,2.285-3.428-0.857-4.856-5.428-5.142-40.28-2.571-68.562-0.571-89.416,2.285,0,0-2.285,0.857-12.569,7.999-6.024,4.183-18.222,16.108-27.295,25.271l-5.943,6.057z" stroke="#FFF" stroke-width="0.5" fill="none"/>
                                      </g>
                                      <g id="g94211">
                                       <path id="path94213" d="M355.08,77.045c-1.82-23.692-10.02-56.497-10.02-56.497" stroke="#FFF" stroke-width="0.5" fill="none"/>
                                      </g>
                                      <path id="path94215" d="M340.8,75.831c-1.82-35.842-6.68-55.889-6.68-55.889" stroke="#FFF" stroke-width="0.5" fill="none"/>
                                      <path id="path94217" d="M349,77.045c-1.82-23.692-9.11-56.497-9.11-56.497" stroke="#FFF" stroke-width="0.5" fill="none"/>
                                      <path id="path94219" d="m271.55,48.797,0.912,7.897c-0.304-4.252,0.456-4.404,5.164-4.404s15.491,1.367,17.01,3.189c1.519,1.823,4.86,11.846,2.278,14.732-2.582,2.885-19.895,0.911-22.325,1.519-2.43,0.607-1.367,0.911-1.367,0.911l0.304,5.316" stroke="#FFF" stroke-width="0.5" fill="none"/>
                                      <path id="path94221" d="m229.94,8.703s4.556-0.304,9.416-0.304v-3.493c9.264-1.67,21.11-5.467,74.873-3.493,1.671,0.151,1.519,1.822-0.607,3.189s-8.049,4.252-8.049,5.164c0,0,34.323,1.519,55.281,2.733,20.959,1.215,39.184,3.797,47.233,5.315l-1.519-1.519c-1.67,0-6.075-0.304-6.075-0.304-0.14-6.531,0.16-8.049-3.64-8.201-4.71-0.188-21.42-1.605-41.46-1.063-11.24,0.304-16.86,2.126-16.86,2.126l2.886,0.456s1.822-1.367,14.124-1.367,15.947-0.304,37.513,0.759c1.823,0,2.886,1.519,0.759,2.278-2.126,0.759-4.556,2.278-4.86,2.885,0,0-13.517-1.822-28.097-2.43-14.58-0.607-18.528-0.607-18.528-0.607,0-0.912-1.215-1.975-5.164-1.975s-14.731-0.152-14.731-0.152l-0.456-4.556c-0.456-3.189-1.823-3.797-7.594-3.949s-29.582-0.476-48.144,0.304c-18.073,0.76-27.172,2.775-30.071,3.645-1.518,0.458-3.797,2.433-6.226,4.559z"/>
                                      <path id="path94223" d="m248.16,137.19c0.304,6.682,1.822,15.491,1.822,21.566l102.06-2.126c0.912-6.378,1.519-21.87,1.519-21.87" stroke="#FFF" stroke-width="0.5" fill="none"/>
                                      <path id="path94225" d="m28.856,162.4c14.58,3.038,73.811,9.417,95.073,9.417s22.477-1.823,22.477-1.823,2.649-20.713,9.72-38.576c5.771-14.58,26.73-21.566,46.169-20.655,19.44,0.911,34.169,0.721,38.576,22.478,4.86,23.996,3.038,35.538,8.505,35.538" stroke="#FFF" stroke-width="0.5" fill="none"/>
                                      <path id="path94227" d="m12.15,148.12c34.019,4.86,82.619,10.935,108.13,10.328,25.515-0.608,25.818-0.608,25.818-0.608" stroke="#FFF" stroke-width="0.5" fill="none"/>
                                      <path id="path94229" d="m6.682,128.08c2.43,1.823,69.254,9.113,104.49,10.328,35.234,1.215,39.791,0.911,39.791,0.911" stroke="#FFF" stroke-width="0.5" fill="none"/>
                                      <g id="g94231">
                                       <path id="path94233" d="m55.794,142.51c0.479,0.06,0.916-0.281,0.975-0.76l-0.339-3.416c0.059-0.479-0.281-0.916-0.76-0.975l-13.638-1.69c-0.479-0.059-0.916,0.281-0.975,0.76l0.339,3.416c-0.059,0.479,0.281,0.916,0.76,0.975l13.638,1.689z" fill="#FFF"/>
                                      </g>
                                      <g id="g94235">
                                       <path id="path94237" d="m74.602,144.04c0.481,0.039,0.903-0.32,0.942-0.801l-0.485-3.398c0.039-0.481-0.32-0.903-0.801-0.942l-13.698-1.1c-0.481-0.039-0.903,0.32-0.942,0.801l0.485,3.399c-0.039,0.481,0.32,0.903,0.801,0.941l13.698,1.105z" fill="#FFF"/>
                                      </g>
                                      <path id="path94239" d="m370.27,164.83c6.378-0.607,4.556-6.986,6.682-17.921s9.723-32.717,32.805-33.108c17.921-0.304,22.781,12.757,22.781,12.757,2.734,11.542,2.43,18.832,0.304,23.389" stroke="#FFF" stroke-width="0.5" fill="none"/>
                                      <line id="line94241" stroke-width="0.5" x1="435.88" x2="460.48" stroke="#FFF" y1="134.15" y2="132.94" fill="none"/>
                                      <path id="path94243" d="m453.8,96.485c-6.682,4.252-18.225-1.215-26.729,2.43" stroke="#000" stroke-width="0.5" fill="none"/>
                                      <path id="path94245" d="M391.83,98.916c-19.44-3.645-147.62-4.253-156.73,2.434" stroke="#000" stroke-width="0.5" fill="none"/>
                                      <path id="path94247" d="m143.98,96.485c3.037,4.86,13.365,1.215,17.617,7.29" stroke="#000" stroke-width="0.5" fill="none"/>
                                      <path id="path94249" d="m254.08,71.882c-3.645,4.86-4.404,12.454,6.531,11.846,10.935-0.607,53.459-1.822,105.1-1.822,51.637,0,88.086-1.215,88.086-1.215" stroke="#000" stroke-width="0.5" fill="none"/>
                                      <path id="path94251" d="m260.61,83.728s-78.367,1.822-117.85,6.075" stroke="#000" stroke-width="0.5" fill="none"/>
                                      <path id="path94253" d="m123.78,112.28c-0.152,4.252,0.456,10.327,0.456,10.327" fill="#FFF" stroke="#000"/>
                                      <g id="g94255">
                                       <path id="path94257" d="m231.12,155.94c-5.159-17.579-17.938-28.752-31.972-26.249-3.769,0.672-7.316,2.275-10.54,4.628" stroke="#FFF" stroke-linecap="round" stroke-width="0.5" fill="none"/>
                                      </g>
                                      <path id="path94259" d="m424.3,143.79c-3.098-12.664-9.857-21.635-17.83-23.554" stroke="#FFF" stroke-linecap="round" stroke-width="0.5" fill="none"/>
                                      <g id="g94261" fill="#FFF">
                                       <path id="path94263" d="m203.05,203c10.929-1.949,18.917-16.224,17.843-31.882-1.075-15.659-10.805-26.773-21.734-24.824s-18.917,16.224-17.843,31.883c1.074,15.658,10.805,26.772,21.734,24.823z"/>
                                       <path id="path94265" d="M201.1,174.65"/>
                                      </g>
                                      <g id="g94267" stroke-width="0.5" stroke="#000" fill="none">
                                       <path id="path94269" d="m199.3,181.31c2.333-0.416,4.037-3.462,3.808-6.805-0.229-3.342-2.306-5.714-4.639-5.298-2.332,0.416-4.037,3.462-3.808,6.805,0.23,3.342,2.307,5.714,4.639,5.298z"/>
                                       <path id="path94271" d="M198.88,175.26"/>
                                      </g>
                                      <path id="path94273" d="m186.19,159.04s-2.726,5.939-3.43,12.471l7.129-8.976s-1.146-2.316-3.699-3.495z"/>
                                      <path id="path94275" d="m202.75,158.7,3.764-8.217c-5.057-2.137-10.554-2.537-15.146,2.007,0,0,7.114,2.96,11.382,6.21z"/>
                                      <path id="path94277" d="m198.92,192.03-0.746,7.771c1.976,0.859,12.476-3.641,14.702-11.396,0,0-8.933,2.845-13.956,3.625z"/>
                                      <path id="path94279" d="m210.32,178.55,4.914,1.006s1.672-14.651-4.175-21.382c0,0,2.292,15.365-0.739,20.376z"/>
                                      <path id="path94281" d="m183.09,182.07,3.284-2.962s2.445,8.293,2.916,16.844c-0.001-0.001-3.372-3.172-6.2-13.882z"/>
                                      <g id="g94283">
                                       <path id="path94285" d="m199.2,179.8c1.749-0.312,3.028-2.597,2.856-5.104-0.172-2.506-1.729-4.286-3.479-3.973-1.749,0.312-3.028,2.597-2.856,5.103s1.729,4.286,3.479,3.974z"/>
                                       <path id="path94287" d="M198.88,175.26"/>
                                      </g>
                                      <g id="g94289" stroke-width="0.5" stroke="#000" fill="none">
                                       <path id="path94291" d="m198.91,188.87c5.248-0.936,9.084-7.791,8.568-15.31s-5.188-12.856-10.437-11.92-9.084,7.791-8.568,15.31c0.517,7.519,5.189,12.856,10.437,11.92z"/>
                                       <path id="path94293" d="M197.97,175.26"/>
                                      </g>
                                      <path id="path94295" d="M202.21,174.34" stroke="#FFF" stroke-width="0.5" fill="none"/>
                                     </g>
                                    </g>
                                   </g>
                                  </g>
                                 </g>
                                </g>
                               </g>
                              </g>
                             </g>
                            </g>
                           </g>
                          </g>
                         </g>
                        </g>
                       </g>
                      </g>
                     </g>
                    </g>
                   </g>
                  </g>
                 </g>
                </g>
               </g>
              </g>
             </g>
            </g>
           </g>
          </g>
         </g>
        </g>
       </g>
      </g>
     </g>
    </g>
   </g>
  </g>
 </g>
</svg>
