<?xml version="1.0" encoding="UTF-8" standalone="no"?>
<!-- Created with Inkscape (http://www.inkscape.org/) -->
<svg id="svg2" xmlns:rdf="http://www.w3.org/1999/02/22-rdf-syntax-ns#" xmlns="http://www.w3.org/2000/svg" height="54" width="99" version="1.1" xmlns:cc="http://creativecommons.org/ns#" xmlns:dc="http://purl.org/dc/elements/1.1/">
 <metadata id="metadata7">
  <rdf:RDF>
   <cc:Work rdf:about="">
    <dc:format>image/svg+xml</dc:format>
    <dc:type rdf:resource="http://purl.org/dc/dcmitype/StillImage"/>
    <dc:title/>
   </cc:Work>
  </rdf:RDF>
 </metadata>
 <g id="g53398">
  <rect id="rect2990" opacity="0" height="54" width="99" y="0" x="0"/>
  <path id="path94015" d="m43.876 44.995c2.0208-0.3604 3.4981-3.0001 3.2992-5.8956-0.19873-2.8955-1.998-4.9507-4.0189-4.5903-2.0208 0.3604-3.4981 3.0001-3.2992 5.8956 0.19853 2.8955 1.9978 4.9507 4.0189 4.5903z" stroke="#000" stroke-width=".097512" fill="none"/>
  <path id="path94017" d="m43.517 39.751" stroke="#000" stroke-width=".097512" fill="none"/>
  <path id="path94023" fill="#fff" d="m92.503 30.39c0.0862-0.0825 0.20692-0.1644 0.37542-0.23169 0.77015-0.41462 0.65157-8.1155-0.05929-9.4189-2.664-5.923-5.211-9.536-5.923-10.425-0.711-0.8881-0.532-0.8288-4.206-1.4213-5.309-0.8566-19.725-1.481-27.545-1.5994-7.819-0.1184-10.426 0.4146-13.744 0.8885-3.317 0.4739-10.307 7.2272-12.557 10.07-11.611 0.711-18.305 1.067-22.393 3.081-0.2376 0.117-0.3554 1.066-0.3554 1.066v0.23695c-0.65157 1.1255-0.82924 4.6788-0.59229 5.3907 0 0 0.21433 0.7838-0.059287 0.94782-0.26816 0.16089-0.099462 0.5644 0.59365 0.77132l-0.00137-0.06046c6.3976 0.71086 18.127 1.4217 20.793 1.5401 2.6658 0.11838 7.8195 0 7.8195 0 0.5332-1.8363 3.4357-4.8575 8.3525-4.8575 4.9167 0 7.8195 0.23695 8.8264 5.213l0.533 0.05929 0.05929 0.71086 25.295-0.533 0.11838-0.65158h0.71086c0.47391-1.8956 3.3174-4.1466 5.8053-4.1466s4.1466 0.59248 4.8575 3.3764h3.2144l0.08308-0.0055z"/>
  <path id="path94027" d="m29.947 17.106c-0.67264 0.69136-1.105 1.1456-1.105 1.1456 8.8264 0.23695 17.001 0.88853 23.518 1.5401 3.673-5.746 6.279-9.537 6.753-10.248s-0.177-1.0072-1.125-1.0663c-8.353-0.5332-14.217-0.1186-18.541 0.4739 0 0-0.47391 0.17767-2.6065 1.6587-1.2491 0.86746-3.7786 3.3404-5.6598 5.2405-1.271 0.03159-1.3714 0.22857-1.2324 1.2556z"/>
  <path id="path94031" d="m60.061 9.6624c-1.3624 1.9549-5.9831 9.7742-5.9831 9.7742-0.59229 0.88853-0.533 1.8363 1.4217 1.8363s17.001-0.23695 23.814-0.17767c1.481 0 1.5401-0.77015 0.94782-2.3103-0.593-1.539-3.436-7.522-4.324-8.529-0.889-1.0072-1.245-0.8886-2.903-0.9479-1.659-0.0593-9.241-0.5925-10.959-0.5332s-2.014 0.8885-2.014 0.8885z"/>
  <path id="path94035" d="m78.721 9.6031c-1.0071-0.059287-1.0662 0.41462-0.533 1.3624 0.533 0.94782 3.8504 7.3454 4.5612 8.8264 0.71086 1.481 1.3624 1.2441 2.1919 1.2441 0.82944 0 7.8786-0.29624 7.8786-0.29624-1.0668-2.3103-4.0292-8.2932-5.9248-10.426l-8.175-0.7109z"/>
  <path id="path94037" fill="#fff" d="m75.583 11.854-2.843-0.118s0.94782 3.1988 1.3624 6.7531l4.9167 0.23695c-1.069-2.251-2.372-5.332-3.437-6.872z"/>
  <circle id="circle94041" cx="77.122" cy="15.112" r=".54451"/>
  <path id="path94043" d="m77.122 15.112"/>
  <g fill="#fff">
   <path id="path94045" d="m65.215 13.572-0.11838-1.7771-5.361-0.23695-2.2806 3.6136 0.11857 1.0071c0.29624-0.59248 2.7842-0.17767 2.7842-0.17767 0.82924-2.0142 1.9547-2.4879 3.3174-2.4288h1.5399z"/>
   <path id="path94047" d="m53.545 13.809s0.05929-1.7771 0.05929-2.1917c0-0.41462-0.17767-0.65157-0.71086-0.71106-0.5332-0.05929-0.94645-0.04447-1.481 0-0.71086 0.05929-0.65157 0.47391-0.65157 0.47391l-0.59287 2.2512c0.23695-0.29624 3.2581-0.17767 3.3766 0.17767z"/>
   <path id="path94049" d="m45.311 16.356s0.71086-3.6727 1.1848-4.5612h-1.8363c-0.5332 0-0.47391-0.5332-0.47391-0.5332v-0.59248c0-0.41462 0.35533-0.23695 0.35533-0.23695s-1.9547-0.11838-2.9027 0c-0.94782 0.11838-1.5401 0.11838-3.495 1.481-1.9547 1.3624-5.3907 5.0351-5.3907 5.0351s1.0071 0.11838 1.4808 0.533c0.000195 0.000195 9.2414-1.066 11.078-1.1253z"/>
   <path id="path94051" d="m89.207 20.029c0.59248 0 1.0071-0.17786 0.71086-0.71086-0.29624-0.5332-3.1988-7.0493-3.6729-7.3456-0.47391-0.29624-1.1848-0.23695-1.1848-0.23695l-5.8349-0.05929 4.0873 7.8193c0.29624 0.65157 1.0366 0.65157 1.0366 0.65157l4.8578-0.11818z"/>
  </g>
  <path id="path94055" d="m39.683 48.346c-4.6205 0-5.746-5.8053-5.746-5.8053s-2.6065 0.11838-2.962 0.05929c-0.35533-0.05929-0.88853-0.77015-1.6587-1.0662-0.77015-0.29624-3.8504-1.1255-4.3836-1.718 0 0-1.1848 5.0946-5.746 5.0946h-3.0753c-6.1608 0-6.1015-7.7009-6.1015-7.7009s-2.8434-0.65158-3.1988-0.88853c-0.17767-0.11838 0-1.8956 0-1.8956-0.71086 0-0.88853-0.05929-1.1848-0.11838-0.29624-0.05929-0.29624-0.23695-0.29624-0.47391 0-0.23695 0.17767-0.82924-0.11838-0.82924s-0.47391-0.23695-0.47391-0.23695-0.23695-0.17806-0.23695-1.0075c0-0.29624 0.47391-0.5332 0.47391-0.5332s-0.059287-0.41462 0.29624-0.47391 0.71086-0.35553 0.77015-1.0664c6.3976 0.71086 18.127 1.4217 20.793 1.5401 2.6658 0.11838 7.8195 0 7.8195 0 0.5332-1.8363 3.4357-4.8575 8.3525-4.8575 4.9167 0 7.8195 0.23695 8.8264 5.213l0.533 0.05929 0.05929 0.71086 25.295-0.533 0.11838-0.65158h0.71086c0.47391-1.8956 3.3174-4.1466 5.8053-4.1466s4.1466 0.59248 4.8575 3.3764h3.4357c0.11838 0.35553 0.5332 0.35553 0.5332 0.35553h0.65157c0.76995 0.23695 0.82924 0.65157 0.41462 0.82924-0.17767 1.0662-0.23695 1.7771-1.0662 2.0733-0.82924 0.29624-1.8956 0.77015-4.0873 0.94782 0 0-0.11838 0.23695-0.59248 0.23695s-0.82924 0.23695-0.77015 0.59229l-0.29624 0.11838s0.41462 8.945-4.3245 8.945h-2.9025c-4.1466 0-4.5019-4.7984-4.5019-4.7984l-5.2723 0.17767-0.17767 0.23695-3.6136-0.11838-4.028-0.23695s-0.71086 2.6656-3.9689 2.6656h-1.7771c-2.7842 0-4.0282-2.6065-4.0282-2.6065l-2.962-0.05909s-0.76995 8.5894-6.2792 8.5894h-3.9096z"/>
  <path id="path94057" d="m6.2738 29.803c-0.8885-0.178-1.1254-0.652-0.8292-0.829 0.2736-0.164 0.0593-0.948 0.0593-0.948-0.237-0.712-0.0593-4.265 0.5923-5.391v-0.23695s0.11779-0.94918 0.35553-1.0662c4.0873-2.014 10.781-2.369 22.392-3.08 2.251-2.844 9.241-9.5967 12.559-10.071 3.317-0.4735 5.924-1.0067 13.743-0.8881 7.819 0.1184 22.236 0.743 27.545 1.5994 3.6727 0.59248 3.495 0.5332 4.2059 1.4217 0.71086 0.88853 3.2581 4.5019 5.9238 10.426 0.71086 1.3033 0.82924 9.0041 0.05929 9.4189-0.59229 0.23695-0.59229 0.65158-0.59229 0.65158" stroke="#000" stroke-width=".29254" fill="none"/>
  <path id="path94063" fill="#fff" d="m83.712 42.003c1.4999-0.32101 2.5964-2.6718 2.4487-5.2506-0.14744-2.5788-1.483-4.4091-2.9827-4.0881-1.4997 0.32101-2.5962 2.6718-2.4487 5.2506 0.14744 2.5788 1.483 4.4091 2.9827 4.0881z"/>
  <path id="path94065" fill="#fff" d="m83.444 37.335"/>
  <path id="path94069" d="m83.228 38.438c0.32413-0.06923 0.56089-0.57727 0.5291-1.1346-0.03179-0.55718-0.32042-0.95269-0.64455-0.88326-0.32413 0.06923-0.56089 0.57727-0.5291 1.1345 0.03198 0.55718 0.32042 0.95289 0.64455 0.88346z" stroke="#000" stroke-width=".097512" fill="none"/>
  <path id="path94071" d="m83.169 37.428" stroke="#000" stroke-width=".097512" fill="none"/>
  <path id="path94073" d="m81.406 34.725s-0.37874 0.99033-0.47664 2.0793l0.99052-1.4966s-0.15914-0.38615-0.51389-0.58273z"/>
  <path id="path94075" d="m83.708 34.669 0.523-1.371c-0.70267-0.35631-1.4666-0.42301-2.1045 0.33466 0.000195 0 0.98858 0.4936 1.5814 1.0356z"/>
  <path id="path94077" d="m83.175 40.225-0.10356 1.2959c0.34129 0.2783 1.434-0.21199 1.6608-1.7753 0 0-0.85908 0.34929-1.5573 0.47937z"/>
  <path id="path94079" d="m84.759 37.978 0.54392 0.12599s0.10024-1.5633-0.44114-3.5235c-0.000195 0 0.31847 2.5618-0.10278 3.3975z"/>
  <path id="path94083" d="m83.593 41.84c1.4399-0.30814 2.4924-2.565 2.3508-5.0408-0.14159-2.4756-1.4237-4.2328-2.8635-3.9247-1.4399 0.30814-2.4924 2.565-2.3508 5.0406 0.14159 2.476 1.4237 4.2332 2.8635 3.9249z" stroke="#000" stroke-width=".097512" fill="none"/>
  <path id="path94085" d="m83.335 37.358" stroke="#000" stroke-width=".097512" fill="none"/>
  <path id="path94087" d="m80.975 38.565 0.45636-0.494s0.33973 1.3829 0.40506 2.8085c0 0.000195-0.46845-0.52871-0.86142-2.3145z"/>
  <path id="path94091" d="m83.212 38.185c0.2432-0.05207 0.42086-0.43295 0.39687-0.85089s-0.24027-0.71457-0.48346-0.6625c-0.243 0.05207-0.42067 0.43295-0.39687 0.85089 0.02399 0.41794 0.24046 0.71457 0.48346 0.6625z"/>
  <path id="path94093" d="m83.169 37.428"/>
  <g stroke="#000" stroke-width=".097512" fill="none">
   <path id="path94097" d="m83.173 39.698c0.72919-0.15602 1.2622-1.2991 1.1904-2.5529-0.07177-1.2538-0.721-2.1437-1.4502-1.9877-0.72919 0.15602-1.2624 1.2991-1.1906 2.5529 0.07177 1.2538 0.7212 2.1437 1.4504 1.9877z"/>
   <path id="path94099" d="m83.043 37.428"/>
   <path id="path94101" d="m70.46 23.717c-0.09888 0-0.17903-0.08016-0.17903-0.17903l-0.09751-0.81715c0-0.09888 0.08015-0.17903 0.17903-0.17903h1.5153c0.09888 0 0.17903 0.08015 0.17903 0.17903l0.09751 0.81715c0 0.09888-0.08016 0.17903-0.17903 0.17903h-1.5153z"/>
  </g>
  <path id="path94103" stroke-width=".097512" stroke="#000" d="m70.401 23.197c-0.09888 0-0.17903-0.04018-0.17903-0.08952l-0.0587-0.45519c0-0.04934 0.08016-0.08952 0.17903-0.08952h1.5153c0.09888 0 0.17903 0.04017 0.17903 0.08952l0.0587 0.45519c0 0.04934-0.08016 0.08952-0.17903 0.08952h-1.5153z"/>
  <g stroke="#000" stroke-width=".097512" fill="none">
   <ellipse id="ellipse94107" rx=".15875" ry=".19853" cy="23.462" cx="71.827"/>
   <path id="path94109" d="m71.827 23.462"/>
   <path id="path94111" d="m6.0962 22.635s5.9238-0.11857 16.587 0.35533c3.9096 0.11838 7.6393 0.11838 8.4118 0.11838 1.2439 0 1.0662 0.77015 1.1848 6.8717-1.1255 0.05929-2.4879 0.05929-7.8193-0.11857l-0.05929 0.41462s-0.05929 0.23695-0.47391 0.23695l-14.751-0.948c-0.5336-0.059-0.652-0.296-0.7113-0.948l-2.9049-0.236"/>
  </g>
  <g stroke="#000" stroke-width=".19502" fill="#fff">
   <path id="path94113" d="m24.994 23.879c-0.35533 0.65157-0.23695 3.0804-0.23695 3.0804l3.8506 0.17767s-0.05929-1.9547 0.11838-3.2581h-3.7308z"/>
   <path id="path94115" d="m29.021 23.879s-0.17767 1.6587-0.11838 3.1988h2.8434s0.11858-2.3103-0.17767-3.1397l-2.547-0.05909z"/>
   <path id="path94117" d="m31.746 27.494 0.08893 2.014s-2.0437 0.05929-3.11 0.05929c-1.0664 0-3.9689-0.17767-3.9689-0.17767s-0.08893-1.4217 0-2.0142c0 0 2.1326 0.17786 3.8802 0.17786 1.7474-0.000195 3.1098-0.05929 3.1098-0.05929z"/>
   <path id="path94119" d="m5.5335 26.398c-0.029644 0.56284 0.088931 1.5697 0.088931 1.5697l2.7842 0.17767c-0.11838-0.41462-0.059287-1.4217-0.029644-1.5697l-2.8434-0.17747z"/>
   <path id="path94121" d="m8.3471 26.249s0.14822-2.3695 0.29624-3.0508h-2.6359c-0.2666 0.83-0.4146 1.985-0.4146 2.845l2.7543 0.20731z"/>
  </g>
  <path id="path94123" stroke-width=".097512" stroke="#000" d="m22.564 24.294-11.966-0.35553c-0.17767 0.94782-0.5332 3.3764-0.35533 4.9167l12.203 0.88853c-0.17767-1.1253 0.11838-5.4497 0.11838-5.4497z"/>
  <path id="path94127" d="m14.093 23.879c-0.29624 1.3624-0.65157 4.0873-0.35533 5.3907" stroke="#fff" stroke-width=".19502" fill="none"/>
  <path id="path94131" d="m18.536 24.116c-0.29624 1.3624-0.65157 4.0873-0.35553 5.3907" stroke="#fff" stroke-width=".19502" fill="none"/>
  <g stroke="#000" stroke-width=".097512" fill="#fff">
   <path id="path94135" d="m23.753 26.093c0.08171 0.0035 0.15075-0.06007 0.15426-0.14178 0.0035-0.08171-0.05987-0.15075-0.14159-0.15426l-14.441-0.614c-0.081715-0.0035-0.15075 0.05987-0.15426 0.14159-0.00351 0.08171 0.060067 0.15075 0.14178 0.15426l14.441 0.61588z"/>
   <path id="path94137" d="m16.539 25.639"/>
   <path id="path94141" d="m23.622 28.41c0.08171 0.0045 0.15153-0.05792 0.15602-0.13964 0.0045-0.08171-0.05792-0.15153-0.13964-0.15602l-14.432-0.8c-0.08152-0.0045-0.15153 0.05792-0.15602 0.13964-0.00449 0.08171 0.057922 0.15153 0.13964 0.15602l14.432 0.8z"/>
   <path id="path94143" d="m16.414 27.864"/>
  </g>
  <g fill="none">
   <g stroke="#000" stroke-width=".097512">
    <path id="path94145" d="m10.598 23.939c-0.88853 0-1.3328-0.08893-1.3921 0.29624-0.072549 0.47196-0.32569 2.4288-0.2666 4.028 0 0.5332 0.59248 0.5332 0.59248 0.5332l0.71086 0.05929"/>
    <path id="path94147" d="m22.564 24.294 1.1551 0.02964c0.41462 0 0.38498 0.20731 0.32569 0.533-0.05929 0.32588-0.15368 3.6138-0.11838 4.3541 0.02964 0.62193-0.50355 0.56264-0.50355 0.56264l-0.97746-0.02964"/>
    <ellipse id="ellipse94151" rx="1.0053" ry=".50258" cy="23.465" cx="16.404"/>
    <path id="path94153" d="m16.404 23.465"/>
    <path id="path94155" d="m29.198 22.991s0-0.65157 0.17786-1.0071c0.17767-0.35533 0.47391-0.41462 1.0662-0.59248 0.59248-0.17767 14.217-1.5401 18.719-1.1848 1.7771 0 2.8138-0.08893 3.2284-0.56284"/>
    <path id="path94157" d="m29.08 21.688c-0.712-0.237-10.569-0.318-11.019-0.356-0.355-0.03-0.651-0.178-0.651-0.178l-0.47391-0.02964s-0.29624 0.20731-0.88853 0.14802c-0.59248-0.05929-8.8857 0.11838-9.3596 0.29624"/>
    <path id="path94161" d="m16.7 21.155c1.8956-1.0071 2.251-1.6587 18.127-2.8434"/>
    <path id="path94165" d="m17.411 21.155c1.8956-1.0071 2.251-1.6587 18.127-2.8434"/>
    <path id="path94169" d="m26.533 20.918c0.88853-0.59248 6.5754-1.6587 15.52-2.251"/>
    <path id="path94173" d="m9.5321 20.74c0.8889-0.592 6.5759-1.659 15.52-2.251"/>
    <path id="path94175" d="m24.401 30.277s2.9025 0.23695 4.976 0.23695c2.0733 0 4.028 0.17767 4.4428 0.05929 0.41462-0.11838 0.77015-0.29624 1.4217-2.4879 0.65157-2.1917 3.6134-4.6798 7.8193-4.5019 4.2059 0.17786 7.4047 1.1255 8.5301 4.5019l0.77015 2.8434-0.533 0.65158"/>
   </g>
   <path id="path94177" d="m51.827 31.581c0.23695 1.0071 0.77015 3.8504 0.88853 6.0422 0 0 0.11838 0.94782 0.59229 0.94782s20.378-0.59248 22.036-0.65158c1.6587-0.05909 1.8956-0.05929 1.9549-0.88853 0.05909-0.82924 0.17767-2.8434 1.2439-5.8646" stroke="#fff" stroke-width=".097512"/>
   <g stroke="#000">
    <polyline id="polyline94179" transform="matrix(.19502 0 0 .19502 4.4968 5.6549)" points="379.68 130.81 376.95 127.77 245.43 129.59" stroke-width=".5"/>
    <g stroke-width=".097512">
     <line id="line94183" x1="78.959" x2="51.176" y1="31.166" y2="31.64"/>
     <line id="line94187" x1="79.195" x2="51.414" y1="31.462" y2="31.936"/>
     <path id="path94189" d="m78.011 30.573c1.3033-3.3174 1.5994-5.3907 5.8053-5.6274 4.2059-0.23695 4.8575 0.59229 5.6276 4.5612 0 0 2.0142 0.11838 3.732 0"/>
     <ellipse id="ellipse94193" rx=".83763" ry="1.3404" cy="26.366" cx="90.095"/>
     <path id="path94195" d="m90.095 26.366"/>
     <path id="path94197" d="m73.449 32.053s0.17767-1.1848-0.05929-1.4217c0.23695-2.0733 0.35533-7.464-0.47391-9.5372"/>
     <path id="path94199" d="m52.361 19.792c0.29624 0.5332 0 1.1255 0.11858 2.4288 0.11838 1.3033 0.533 4.3243 0.35533 8.708 0.23695 0.41462 0 1.6587 0 1.6587"/>
    </g>
   </g>
   <g stroke="#fff" stroke-width=".097512">
    <path id="path94203" d="m60.441 10.055c-1.2944 1.82-5.6838 9.0998-5.6838 9.0998-0.56284 0.82729-0.50648 1.7098 1.3505 1.7098s16.151-0.22057 22.623-0.16558c1.4069 0 1.4631-0.71691 0.90042-2.1507-0.563-1.434-3.264-7.004-4.108-7.941-0.844-0.9377-1.182-0.8274-2.757-0.8824-1.576-0.0551-8.779-0.5515-10.411-0.4963s-1.914 0.8267-1.914 0.8267z"/>
    <path id="path94205" d="m87.084 10.665-7.855-0.662c-0.95659-0.055191-1.013 0.38595-0.50648 1.2684 0.50648 0.88248 3.6579 6.8385 4.3332 8.2173 0.67517 1.3786 1.2944 1.1581 2.0823 1.1581s7.4253-0.27576 7.4253-0.27576"/>
    <path id="path94209" d="m30.712 16.952c-0.63266 0.65021-1.0391 1.0773-1.0391 1.0773 8.3012 0.22291 15.99 0.83568 22.118 1.4484 3.4543-5.4041 5.9055-8.9699 6.3513-9.6383 0.445-0.668-0.167-0.9465-1.059-1.0023-7.855-0.5014-13.371-0.1114-17.438 0.4456 0 0-0.44563 0.16714-2.4513 1.56-1.1748 0.81578-3.5537 3.1414-5.3232 4.9284l-1.159 1.1813z"/>
    <path id="path94213" d="m73.746 20.681c-0.355-4.621-1.954-11.019-1.954-11.019"/>
    <path id="path94215" d="m70.961 20.444c-0.355-6.99-1.303-10.9-1.303-10.9"/>
    <path id="path94217" d="m72.56 20.681c-0.355-4.621-1.777-11.019-1.777-11.019"/>
    <path id="path94219" d="m57.455 15.171 0.17786 1.5401c-0.05929-0.82924 0.08893-0.85888 1.0071-0.85888s3.0211 0.2666 3.3174 0.62193c0.29624 0.35553 0.94782 2.3103 0.44426 2.8731-0.50355 0.56264-3.88 0.17767-4.3539 0.29624-0.47391 0.11838-0.2666 0.17767-0.2666 0.17767l0.05929 1.0367"/>
   </g>
  </g>
  <path id="path94221" d="m49.341 7.3522s0.88853-0.059287 1.8363-0.059287v-0.68122c1.8067-0.32569 4.117-1.0662 14.602-0.68122 0.32588 0.029449 0.29624 0.35533-0.11838 0.62193s-1.5697 0.82924-1.5697 1.0071c0 0 6.6938 0.29624 10.781 0.533 4.0875 0.23695 7.6418 0.74051 9.2116 1.0366l-0.297-0.2963c-0.32569 0-1.1848-0.059287-1.1848-0.059287-0.0273-1.2737 0.0312-1.5697-0.70989-1.5994-0.91856-0.036665-4.1774-0.31301-8.0857-0.20731-2.1921 0.059287-3.2881 0.41462-3.2881 0.41462l0.56284 0.088931s0.35533-0.2666 2.7545-0.2666 3.11-0.059287 7.3159 0.14802c0.35553 0 0.56284 0.29624 0.14802 0.44426-0.41462 0.14802-0.88853 0.44426-0.94782 0.56264 0 0-2.6361-0.35533-5.4796-0.47391-2.8434-0.11838-3.6134-0.11838-3.6134-0.11838 0-0.17786-0.23695-0.38517-1.0071-0.38517s-2.8729-0.029644-2.8729-0.029644l-0.08893-0.88853c-0.08893-0.62193-0.35553-0.74051-1.481-0.77015-1.1255-0.029644-5.7692-0.092831-9.3892 0.059287-3.5247 0.14822-5.2992 0.54119-5.8646 0.71086-0.29605 0.089321-0.74051 0.47449-1.2142 0.88911z"/>
  <g stroke="#fff" stroke-width=".097512" fill="none">
   <path id="path94223" d="m52.894 32.41c0.05929 1.3031 0.35533 3.0211 0.35533 4.2059l19.904-0.41462c0.178-1.243 0.297-4.265 0.297-4.265"/>
   <path id="path94225" d="m10.124 37.327c2.8434 0.59248 14.395 1.8365 18.541 1.8365 4.1466 0 4.3835-0.35553 4.3835-0.35553s0.51662-4.0395 1.8956-7.5232c1.1255-2.8434 5.213-4.2059 9.0041-4.0282 3.7913 0.17767 6.6638 0.14061 7.5232 4.3837 0.94782 4.6798 0.59248 6.9308 1.6587 6.9308"/>
   <path id="path94227" d="m6.8663 34.542c6.6345 0.94782 16.113 2.1326 21.088 2.0142 4.976-0.11858 5.0351-0.11858 5.0351-0.11858"/>
   <path id="path94229" d="m5.7999 30.634c0.47391 0.35553 13.506 1.7773 20.378 2.0142 6.8715 0.23695 7.7602 0.17767 7.7602 0.17767"/>
  </g>
  <path id="path94233" fill="#fff" d="m15.378 33.448c0.09342 0.0117 0.17864-0.0548 0.19015-0.14822l-0.06611-0.6662c0.01151-0.09342-0.0548-0.17864-0.14822-0.19015l-2.6597-0.32959c-0.09342-0.01151-0.17864 0.0548-0.19015 0.14822l0.06611 0.6662c-0.01151 0.09342 0.0548 0.17864 0.14822 0.19015l2.6597 0.3294z"/>
  <path id="path94237" fill="#fff" d="m19.046 33.746c0.09381 0.0076 0.17611-0.06241 0.18371-0.15621l-0.09459-0.66269c0.0076-0.09381-0.06241-0.17611-0.15621-0.18371l-2.6714-0.21453c-0.09381-0.0076-0.17611 0.06241-0.18371 0.15621l0.09459 0.66289c-0.0076 0.09381 0.06241 0.17611 0.15622 0.18352l2.6714 0.2155z"/>
  <g stroke-width=".097512" fill="none">
   <path id="path94239" d="m76.708 37.801c1.2439-0.11838 0.88853-1.3624 1.3031-3.495 0.41462-2.1326 1.8962-6.3806 6.3978-6.4568 3.495-0.05929 4.4428 2.4879 4.4428 2.4879 0.5332 2.251 0.47391 3.6727 0.05929 4.5614" stroke="#fff"/>
   <line id="line94241" y2="31.581" y1="31.817" stroke="#fff" x2="94.301" x1="89.504"/>
   <g stroke="#000">
    <path id="path94243" d="m92.999 24.472c-1.3031 0.82924-3.5543-0.23695-5.2128 0.47391"/>
    <path id="path94245" d="m80.913 24.946c-3.791-0.711-28.789-0.83-30.566 0.475"/>
    <path id="path94247" d="m32.576 24.472c0.59229 0.94782 2.6065 0.23695 3.4357 1.4217"/>
    <path id="path94249" d="m54.048 19.674c-0.71086 0.94782-0.85888 2.4288 1.2737 2.3103 2.1326-0.11838 10.426-0.35533 20.497-0.35533 10.07 0 17.179-0.23695 17.179-0.23695"/>
    <path id="path94251" d="m55.322 21.984s-15.283 0.35533-22.984 1.1848"/>
   </g>
  </g>
  <path id="path94253" d="m28.637 27.552c-0.02964 0.82924 0.08893 2.014 0.08893 2.014" stroke="#000" stroke-width=".19502" fill="#fff"/>
  <path id="path94257" d="m49.571 36.067c-1.0061-3.4283-3.4983-5.6073-6.2353-5.1192-0.73504 0.13106-1.4268 0.44368-2.0556 0.90257" stroke="#fff" stroke-linecap="round" stroke-width=".097512" fill="none"/>
  <path id="path94259" d="m87.245 33.697c-0.60418-2.4698-1.9223-4.2193-3.4773-4.5936" stroke="#fff" stroke-linecap="round" stroke-width=".097512" fill="none"/>
  <path id="path94263" fill="#fff" d="m44.096 45.245c2.1314-0.3801 3.6893-3.1641 3.4798-6.2177-0.20965-3.0539-2.1072-5.2214-4.2386-4.8413s-3.6893 3.1641-3.4798 6.2179c0.20946 3.0537 2.1072 5.2212 4.2386 4.8411z"/>
  <path id="path94265" fill="#fff" d="m43.716 39.716"/>
  <path id="path94269" d="m43.365 41.015c0.45499-0.08113 0.78731-0.67517 0.74265-1.3271-0.04466-0.65177-0.44972-1.1144-0.90472-1.0332-0.4548 0.08113-0.78731 0.67517-0.74265 1.3271 0.04486 0.65177 0.44992 1.1144 0.90472 1.0332z" stroke="#000" stroke-width=".097512" fill="none"/>
  <path id="path94271" d="m43.283 39.835" stroke="#000" stroke-width=".097512" fill="none"/>
  <path id="path94273" d="m40.808 36.671s-0.53164 1.1582-0.66893 2.4321l1.3903-1.7505s-0.2235-0.45168-0.72139-0.68161z"/>
  <path id="path94275" d="m44.038 36.605 0.73407-1.6025c-0.98624-0.41677-2.0583-0.49478-2.9538 0.39141 0 0 1.3874 0.57727 2.2198 1.2111z"/>
  <path id="path94277" d="m43.291 43.105-0.14549 1.5155c0.38537 0.16753 2.4331-0.71008 2.8672-2.2225 0 0-1.7421 0.55484-2.7218 0.70696z"/>
  <path id="path94279" d="m45.514 40.476 0.95835 0.19619s0.32608-2.8573-0.81422-4.17c0 0 0.447 2.9965-0.14412 3.9738z"/>
  <path id="path94281" d="m40.204 41.163 0.64046-0.57766s0.47683 1.6173 0.56869 3.285c-0.000195-0.000195-0.65762-0.61862-1.2091-2.7073z"/>
  <path id="path94285" d="m43.346 40.72c0.3411-0.06085 0.59053-0.50648 0.55699-0.9954-0.03354-0.48873-0.3372-0.83587-0.67849-0.77483-0.3411 0.06085-0.59053 0.50648-0.55699 0.99521s0.3372 0.83587 0.67849 0.77502z"/>
  <path id="path94287" d="m43.283 39.835"/>
  <g stroke-width=".097512" fill="none">
   <path id="path94291" d="m43.289 42.489c1.0235-0.18254 1.7716-1.5194 1.671-2.9858-0.10063-1.4664-1.0118-2.5072-2.0355-2.3247-1.0237 0.18254-1.7716 1.5194-1.671 2.9858 0.10083 1.4664 1.012 2.5072 2.0355 2.3247z" stroke="#000"/>
   <path id="path94293" d="m43.106 39.835" stroke="#000"/>
   <path id="path94295" d="m43.933 39.655" stroke="#fff"/>
  </g>
 </g>
</svg>
