<?xml version="1.0" encoding="UTF-8" standalone="no"?>
<!-- Created with Inkscape (http://www.inkscape.org/) -->
<svg id="svg2" xmlns:rdf="http://www.w3.org/1999/02/22-rdf-syntax-ns#" xmlns="http://www.w3.org/2000/svg" height="54" width="99" version="1.1" xmlns:cc="http://creativecommons.org/ns#" xmlns:dc="http://purl.org/dc/elements/1.1/">
 <metadata id="metadata7">
  <rdf:RDF>
   <cc:Work rdf:about="">
    <dc:format>image/svg+xml</dc:format>
    <dc:type rdf:resource="http://purl.org/dc/dcmitype/StillImage"/>
    <dc:title/>
   </cc:Work>
  </rdf:RDF>
 </metadata>
 <g id="g38227">
  <rect id="rect2990" opacity="0" height="54" width="99" y="0" x="0"/>
  <path id="path94450" fill="#fff" d="m13.52 35.984c-0.42643-1.5151-0.5072-4.0896-0.04875-5.4885-1.0641 0.08174-1.2824-1.6919 0.54577-1.6645 0.5186-4.3933-1.2007-9.2235 7.9682-11.843-0.73691 0-1.0183-2.1658-0.08199-3.0289 0.61829-0.57027 4.378-0.99475 3.5749 1.2281 1.6645-2.7017 5.2665-6.9587 6.6584-8.1048 1.3916-1.1461 3.0289-1.801 10.724-2.2102 7.6953-0.40945 16.046-0.32746 21.367 0.49119 5.3214 0.81865 6.3037 0.57318 7.7773 3.1929s2.9471 6.058 3.8475 9.7418l8.6777 1.0644c1.0641 0.16373 1.4736 0.40945 1.2281 1.0641 1.719 2.8654 1.6373 10.397 0.24547 11.707 0.90064-0.08174 0.98238 0.24572 0.73691 1.2281s-0.57294 2.5377-2.2922 2.8654c-0.05118 0.10236-0.1094 0.19041-0.16955 0.26585l-0.02135 0.05991c0.2821 2.3931 0.22752 4.9347-0.16397 6.5783-0.54577 2.2922-0.54577 3.1655-1.5282 3.1655h-5.2394c-0.76408 0-1.6373-1.3098-1.6373-6.0034h-4.0387l-0.43662 1.8556h-0.76408l-0.43661-1.9648h-2.6197l-1.2007 0.32746s0.32746 5.8943-2.5105 8.1865l-11.354 0.437c-1.419-1.3098-1.8556-3.3838-1.9648-5.4577 0 0 0 1.8556-1.0915 1.8556h-5.4577c-0.76408 0-1.2007-2.2922-1.2007-2.2922h-1.6373l-0.10915-0.43662-12.662-0.21831s-0.65492 4.6936-2.838 5.8943h-10.151c-2.292-1.965-3.275-7.314-1.637-12.444l-0.05555-0.05094z"/>
  <path id="path94452" d="m13.581 36.035c0.43661 0.76408 3.2746 0.65492 3.2746 0.65492l32.528-0.32746s5.8943 0.21831 6.8767-0.10915c0.76408-1.0915 2.5105-5.676 2.5105-5.676 0.43661 0.10915 0.54577-1.7465 0-1.7465h-44.753v-0.43662h45.19c1.3098-2.5105 3.4929-2.5105 4.3661-0.10915 0.87323 2.4014 0.73084 5.2665 0.73084 5.2665s0.90646 1.6099 1.3431 4.2298h11.789c2.0739 0.32746 2.2922-0.21831 2.6197-0.65492 0.32746-0.43661 0.54577-1.9648 1.0915-4.9119 0.54577-2.9471 1.3096-3.8204 1.9648-4.257 0.76408 0.98238 0.98238 3.6021 0.65492 5.8943 0.76408 2.9471 0.87323 6.9858 0.32746 9.2781-0.54577 2.2922-0.54577 3.1655-1.5282 3.1655h-5.2394c-0.76408 0-1.6373-1.3098-1.6373-6.0034h-4.0387l-0.43662 1.8556h-0.76408l-0.43661-1.9648h-2.6197l-1.2007 0.32746s0.32746 5.8943-2.5105 8.1865l-11.352 0.43661c-1.419-1.3098-1.8556-3.3838-1.9648-5.4577 0 0 0 1.8556-1.0915 1.8556h-5.4577c-0.76408 0-1.2007-2.2922-1.2007-2.2922h-1.6373l-0.10915-0.43661-12.662-0.21831s-0.65492 4.6936-2.838 5.8943h-10.151c-2.294-1.964-3.276-7.312-1.639-12.443z"/>
  <path id="path94454" d="m23.623 31.669c-0.87323 0-0.32746 2.5105 0.76408 2.6197 1.0915 0.10915 10.479 0.21831 11.789 0.10915 1.3098-0.10915 2.0739-1.0915 2.0739-1.9648 0-0.87323-0.43662-1.0915-1.5282-0.98238-1.0915 0.10915-11.788 0.32746-13.098 0.21831z"/>
  <path id="path94456" d="m42.834 23.81c0.22292-0.98141-0.65832-1.3256-1.9648-1.419-1.5282-0.10915-16.919-0.10915-18.338 0s-1.7465 0.43662-1.5282 2.2922c0.21831 1.8556 1.0915 2.7288 3.3838 2.7288h14.736c2.8378 0 3.1652-1.2007 3.711-3.6021z"/>
  <path id="path94458" d="m24.714 13.658c0.21831 0.98238 0.43661 2.4014-1.6373 3.1655l1.6373-0.32746 0.76408-1.3098c0.000243 0.000242 0.43686-1.4188-0.76408-1.5282z"/>
  <path id="path94460" d="m24.714 16.497-1.6373 0.32746c2.0739-0.76408 1.8556-2.1831 1.6373-3.1655-1.7465-0.1909-3.22-0.1909-3.4655 1.7739-0.24572 1.9648 1.8284 1.3918 1.8284 1.3918" stroke="#000" stroke-width=".18192" fill="#fff"/>
  <path id="path94462" d="m33.228 6.8909c-1.528 0.9824-7.095 8.1861-7.64 9.4961 7.095-1.091 26.633-0.873 37.439 0.328 0.764-1.528 0.655-7.5319 0.437-10.261-3.493-1.3093-25.105-1.2002-30.236 0.4369z"/>
  <path id="path94464" d="m33.826 7.2373c-1.3753 0.88414-6.3855 7.3679-6.8767 8.5465 6.3855-0.98238 25.69-0.59549 35.414 0.48513 0.68767-1.3751 0.58943-6.7782 0.39295-9.2342-3.143-1.1788-24.314-1.271-28.93 0.2026z" stroke="#bfbfbf" stroke-width=".090961" fill="none"/>
  <path id="path94466" d="m64.774 7.9824 0.218 7.4226c-0.65492-0.10915-0.87323 0.65492-0.98238 1.7465-1.6373 0.54577-2.9471 1.3098-1.9648 2.2922 0.98238 0.98238 1.8556 0.65492 4.257-0.98238l4.8028 0.21831c0.98238 0 0.32746-1.2007-0.32746-3.3838s-2.838-6.6584-3.2746-7.4224c-0.43661-0.76408-0.43661-0.87323-1.5282-0.87323-1.0915 0-1.2007 0.21855-1.2007 0.98238z"/>
  <path id="path94468" d="m69.305 7.1638c-1.3365-0.1909-0.90064 0.081987-0.40945 0.98238 0.49119 0.9004 2.7834 5.4848 3.7658 9.5781 0.2513 1.0469 0.4924 0.89045 1.2281 0.98238 1.3098 0.16373 1.3098 0.16373 0.81865-1.6373-0.491-1.8-2.047-6.138-3.193-7.8577-1.146-1.7188-1.637-1.9645-2.21-2.0465z"/>
  <g fill="#fff">
   <path id="path94470" d="m58.906 30.988c2.0468-0.98238 4.8513 0.68524 5.397 2.5651-0.63673-1.5461-2.8591-3.138-5.397-2.5651z"/>
   <ellipse id="ellipse94472" rx="3.7047" ry="6.2518" cy="40.891" cx="60.298"/>
   <ellipse id="ellipse94474" rx="1.1575" ry="4.9784" cy="39.664" cx="82.238"/>
   <path id="path94476" d="m81.173 32.46c0.58676-1.3416 2.2015-0.90961 2.5925 1.3916-0.61854-2.1649-1.8559-2.456-2.5925-1.3916z"/>
   <path id="path94478" d="m81.256 43.756c0.24353 1.8871 1.5284 3.0308 2.1498 0.46694-0.57609 1.8498-1.4944 1.7445-2.1498-0.46694z"/>
   <g stroke="#000" stroke-width=".18192">
    <path id="path94480" d="m45.153 26.811h10.397c0.57294 0 1.1461-0.40945 0.73667-2.2102-0.40945-1.8008-0.98238-2.2922-4.3387-2.2922-3.3564 0-5.1574-0.16373-6.058 1.1461l-0.98238 1.4736c-0.57294 0.81865-0.57294 1.8828 0.24572 1.8828z"/>
    <path id="path94482" d="m14.7 22.554c0.57318-0.40945 1.638-0.31558 3.2746-0.40945 0.42424-0.02426 0.66681 0.7944 0.66681 0.7944s1.3797 3.6263 0.31558 3.7083c-1.0641 0.08174-3.9327 0.41842-4.8333 0.1727"/>
    <path id="path94484" d="m42.698 33.77c0 0.57294 0.57294 0.40945 1.6373 0.40945 1.0641 0 5.6488 0.57294 6.4672-0.98238 0.81865-1.5556-0.24547-1.883-1.1461-1.883-0.90064 0-4.257-0.24547-5.4848-0.08174-1.2281 0.16373-1.5556 0.49119-1.4736 2.5377z"/>
    <path id="path94486" d="m19.202 34.015c0.40945 0 0.73691-1.719 0.08174-2.2922-0.65492-0.57294-1.0641-0.81865-2.5377-0.81865s-2.3742 0.08174-2.456 1.1461c-0.08174 1.0644 0.32746 1.9648 1.9648 1.9648h2.9471z"/>
   </g>
  </g>
  <g stroke="#fff" stroke-width=".090961" fill="none">
   <line id="line94488" x1="21.361" x2="24.813" y1="24.042" y2="22.643"/>
   <line id="line94490" x1="21.373" x2="27.164" y1="24.974" y2="22.627"/>
   <line id="line94492" x1="21.541" x2="29.522" y1="25.842" y2="22.607"/>
   <line id="line94494" x1="22.307" x2="31.802" y1="26.468" y2="22.619"/>
   <line id="line94496" x1="23.375" x2="34.062" y1="26.971" y2="22.64"/>
   <line id="line94498" x1="25.417" x2="36.321" y1="27.079" y2="22.66"/>
   <line id="line94500" x1="27.845" x2="38.674" y1="27.031" y2="22.643"/>
   <line id="line94502" x1="30.21" x2="40.932" y1="27.009" y2="22.664"/>
   <line id="line94504" x1="32.421" x2="42.169" y1="27.05" y2="23.098"/>
   <line id="line94506" x1="34.68" x2="42.225" y1="27.07" y2="24.013"/>
   <line id="line94508" x1="37.046" x2="42.06" y1="27.048" y2="25.015"/>
   <line id="line94510" x1="39.423" x2="41.565" y1="27.02" y2="26.152"/>
   <line id="line94512" x1="42.281" x2="39.244" y1="23.907" y2="22.677"/>
   <line id="line94514" x1="42.036" x2="36.879" y1="24.744" y2="22.654"/>
   <line id="line94516" x1="41.868" x2="34.548" y1="25.612" y2="22.646"/>
   <line id="line94518" x1="41.424" x2="32.218" y1="26.369" y2="22.638"/>
   <line id="line94520" x1="40.524" x2="29.79" y1="26.941" y2="22.59"/>
   <line id="line94522" x1="38.436" x2="27.509" y1="27.03" y2="22.602"/>
   <line id="line94524" x1="36.275" x2="25.299" y1="27.09" y2="22.642"/>
   <line id="line94526" x1="33.93" x2="23.004" y1="27.077" y2="22.649"/>
   <line id="line94528" x1="31.551" x2="21.661" y1="27.048" y2="23.04"/>
   <line id="line94530" x1="29.305" x2="21.394" y1="27.075" y2="23.869"/>
   <line id="line94532" x1="26.961" x2="21.453" y1="27.061" y2="24.829"/>
   <line id="line94534" x1="21.453" x2="21.41" y1="24.829" y2="24.811"/>
   <line id="line94536" x1="24.85" x2="21.617" y1="27.141" y2="25.831"/>
  </g>
  <path id="path94538" d="m73.397 22.609c-0.76408 0-0.76408 0.76408-0.10915 0.76408 0.65492 0 0.65492-0.76408 0.10915-0.76408z"/>
  <path id="path94540" d="m59.888 44.411c-0.65492-0.08199-0.57294 0.73666 0.08174 0.81865 0.65492 0.08199 0.98238-0.73667 0.57318-0.73667s-0.65492-0.08199-0.65492-0.08199z"/>
  <path id="path94542" d="m62.018 39.502c-0.16373 0.65492-0.24547 0.9004-0.65492 1.3916-0.40945 0.49119 0 0.65492 0.49119 0.24572s0.57294-0.98238 0.49119-1.5556c-0.03469-0.24305-0.16373-0.65468-0.32746-0.08174z"/>
  <path id="path94544" d="m60.053 35.897c-0.49119 0-0.65492 0.32746-0.40945 0.73691s0.57294 0.98238 0.65492 0.49119c0.08199-0.49119 0.24572-1.2281-0.24547-1.2281z"/>
  <g stroke="#000" fill="none">
   <g stroke-width=".090961">
    <path id="path94546" d="m83.793 36.145c0.49119-0.49119 0.58822-0.49095 0.65492-4.0933 0.08174-4.4207-0.55159-4.5299-1.5885-3.9569"/>
    <path id="path94548" d="m61.817 26.517c1.8799-0.54577 4.175 2.5035 3.311 10.282"/>
    <ellipse id="ellipse94550" rx="3.3124" ry="5.5899" cy="40.891" cx="60.298"/>
   </g>
   <path id="path94552" d="m52.357 22.391c-0.49119 1.2281-0.60641 3.2232-0.60641 4.3691" stroke-width=".27288"/>
   <g stroke-width=".090961">
    <path id="path94554" d="m56.779 28.694c0-4.0115 0.57294-6.9587-3.7658-7.2859-4.339-0.32746-28.244-0.81865-34.056-0.40945-0.57294 0.08174-0.65492 0.16373-1.5553 0.24548-0.9004 0.08174-2.2922 0.24572-2.2922 0.24572"/>
    <path id="path94556" d="m15.518 21.49c0.40945-1.3918 1.3642-2.0982 1.3642-2.0982"/>
    <path id="path94558" d="m52.684 21.49c0.57294-1.801 3.6021-4.257 8.5957-4.9119"/>
   </g>
   <path id="path94560" d="m15.518 22.309c-0.49119 1.0641-0.41551 3.4262-0.33377 4.5723" stroke-width=".27288"/>
   <g stroke-width=".090961">
    <path id="path94562" d="m24.032 28.449c-1.31-0.082-3.192-0.246-3.683-1.883-0.492-1.637-1.392-5.239-1.392-6.304 0-1.0644 0.81865-1.801 3.0291-3.2746-2.8654 1.6373-4.0115 2.6197-3.5203 4.0115 0.49119 1.3916 1.883 5.5668 1.883 5.5668"/>
    <path id="path94564" d="m37.745 28.49c1.8828-0.08174 3.6431 0.04075 5.3621-2.5787s2.7014-3.8475 3.1109-4.9119c0.40945-1.0644 2.5379-2.8654 7.6953-3.9295s-5.4557 1.7147-6.9587 3.9295c-1.5556 2.2922-4.5845 5.8943-4.5845 5.8943"/>
    <path id="path94566" d="m57.596 28.449c1.719-3.6021 3.6838-4.7482 5.8943-4.257 2.2102 0.49119 2.0475 4.7482 2.1285 7.6953 0.07883 2.8773 0 4.7482 0 4.7482s0.87104-11.109-2.8654-11.789c-2.7014-0.49119-4.257 3.6838-4.257 3.6838"/>
    <path id="path94568" d="m21.658 33.852c0.9004 0 0.98238-0.49119 0.81865-1.2281-0.16373-0.73667-0.40945-1.719 1.3098-1.6373 1.719 0.08199 11.87 0 13.18 0 1.3098 0 1.9648 0.57318 1.7193 1.5556-0.24572 0.98238-0.32746 1.4736 0.73667 1.3916 1.0644-0.08174 1.1461-0.08174 2.0468-0.24548 0.90064-0.16373 0.98238-0.49119 0.98238-1.3098 0-0.81865 0.40945-1.3098 1.883-1.3918 1.4736-0.08174 4.9937-0.08174 5.8123 0.24572 0.81865 0.32746 1.1461 1.6373 1.3916 1.9648 0.24572 0.32746-0.24548 1.4736-2.9471 1.5553-0.81865 0-0.40945 0.49119 0.32746 0.49119s1.5556 0.40945 0.08174 0.57294c-1.4736 0.16373-8.432 0.40945-17.273 0.32746-8.8414-0.08199-16.7-0.40945-16.782-0.9004-0.08174-0.49119 0.98238-0.57318 0.98238-0.57318s-1.719-0.16373-1.8828-1.0641c-0.16373-0.9004 0.08611-1.453 0.08611-1.453s-0.0044-1.4122 1.4692-1.4122 4.2628-0.09703 4.3448 1.2946c0.08174 1.3918-0.33352 1.5463 0.23965 1.6526 0.82084 0.15184 1.4736 0.16373 1.4736 0.16373z"/>
    <path id="path94570" d="m13.472 30.495c3.8478 0 30.044 0 35.448-0.08174 5.4031-0.08174 8.432-0.40945 10.151 0.16373"/>
    <path id="path94572" d="m64.446 18.134c0.98238 1.9648 1.9648 5.0211 1.8556 10.588-0.10915 5.5668 0 7.8591 0 7.8591s0.43661 0.54577-0.10915 0.87323l9.451 0.03954s0.65492-0.43662 0.54577-1.0915c0.76408-2.1831 0.67093-4.5556 0.67093-4.5556s0.57512-0.61393 0.57512-1.0505c0-0.43662-0.50696-1.0302-0.50696-1.0302s0.34323-8.3025-1.0758-11.468"/>
    <path id="path94574" d="m73.069 37.454c0.54577 0 0.39126-1.0156 0.39126-1.0156l0.80725-4.6262s0.4388-0.57997 0.4388-1.0163c0-0.43661-0.44996-1.0644-0.44996-1.0644s0.6685-4.5027 0.01358-7.6679c-0.65492-3.1655-1.2007-3.7112-1.2007-3.7112"/>
    <path id="path94576" d="m73.069 21.299c-1.3098 0-0.76408 2.4014 0.21831 2.4014 0.98238 0 1.0915-2.4014-0.21831-2.4014z"/>
    <path id="path94578" d="m66.957 29.595c-0.43662 0-0.32746 2.0739 0.10915 2.0739s11.133 0.21831 12.007 0.21831c0.32746 0 0.98238-0.76408 0.98238-1.0915 0-0.32746-0.10915-0.98238-0.54577-0.98238s-12.553-0.21831-12.553-0.21831z"/>
    <line id="line94580" x1="66.847" x2="80.055" y1="30.796" y2="30.796"/>
    <line id="line94582" x1="79.584" x2="64.909" y1="36.341" y2="36.584"/>
    <path id="path94584" d="m78.854 37.891c0.87323-0.43661 0.94915-1.0035 0.73084-1.5493 0.43661-2.9471 2.2163-10.13 3.9625-9.9116 1.7465 0.21831 1.3098 4.5845 0.87323 8.6231"/>
    <path id="path94586" d="m79.919 34.461c0.10915-4.257 1.0006-10.37 2.9743-10.433 2.6207-0.08465 2.1831 4.1478 1.9648 6.5492"/>
    <ellipse id="ellipse94588" rx=".61757" ry="1.6979" cy="25.941" cx="80.041"/>
    <path id="path94590" d="m59.752 38.546c-2.5666-1.3508-2.7288 5.8943-0.32746 5.0211 1.7195-0.62533 2.4011-3.9295 0.32746-5.0211z"/>
    <path id="path94592" d="m58.826 44.004c-0.62994-0.31509-1.0644-0.16373-0.24572 0.81865 0.81865 0.98238 1.883 1.3098 2.7014 0.49119 0.81865-0.81865 0-1.0644-0.49119-0.9004-0.49095 0.16349-1.1459-0.000242-1.9645-0.40945z"/>
    <path id="path94594" d="m60.708 43.021c-0.1664 0.5545 0.08174 0.49119 0.65492 0.08174 0.57294-0.40945 1.4857-1.3491 1.4857-2.5772s0.06962-1.598-0.50332-1.598-0.9004 1.4736-1.1461 2.2105c-0.24547 0.73691-0.24547 1.0644-0.49119 1.883z"/>
    <path id="path94596" d="m58.251 36.717c0.65492 0 1.3918 0.16373 0.65492 0.65492-0.73691 0.49119-1.4736 1.0641-1.801 1.801"/>
    <path id="path94598" d="m59.316 36.472c0.24547 0.65492 1.0641 1.7193 1.2281 2.2922 0.16373 0.57294 0.44244-0.23262 0.40945-1.2281-0.08223-2.456-1.8833-1.8008-1.6375-1.0641z"/>
    <path id="path94600" d="m81.418 37.782c1.2279 0.49119 1.2279 2.8652-0.16373 3.6838"/>
    <path id="path94602" d="m81.421 35.917c0.95522-1.41 1.501-0.27288 1.6371 3.6656 0.13026 3.7636-0.73666 5.5668-1.801 4.175"/>
    <path id="path94604" d="m81.173 41.874c0.73691-0.40945 1.3098-1.1461 1.2281-0.24547-0.08174 0.90064-0.32746 1.3098-1.1461 1.1461"/>
    <path id="path94606" d="m81.101 37.236c0.16373-0.81865 0.72769-2.1559 1.2186-1.8284 0.49095 0.32746 0.65492 3.1109 0.65492 3.5201s-0.65492 0.32746-0.65492 0.32746-0.318-1.7734-1.2186-2.0191z"/>
    <path id="path94608" d="m60.791 39.582c0 0.57294-0.16373 1.3098-0.49119 0.81865-0.32746-0.49119-0.49119-0.57318-0.57294-0.16373-0.08174 0.40945-1.1461 1.0644-2.1285 0.57318"/>
    <line id="line94610" x1="85.758" x2="76.179" y1="20.426" y2="19.362"/>
    <path id="path94612" d="m86.003 32.133c0.16373 1.3098-0.1271 3.4201-1.7644 3.8296"/>
   </g>
  </g>
  <g stroke="#000" stroke-width=".090961">
   <ellipse id="ellipse94614" rx="10.96" ry=".30878" cy="49.134" cx="58.333"/>
   <ellipse id="ellipse94616" rx="5.2483" ry=".30878" cy="46.405" cx="79.618"/>
   <ellipse id="ellipse94618" rx="8.7987" ry=".46305" cy="48.588" cx="20.676"/>
   <ellipse id="ellipse94620" rx="5.0941" ry=".30878" cy="45.75" cx="46.763"/>
  </g>
  <path id="path94622" stroke-width=".090961" stroke="#fff" d="m64.992 15.405c-0.21831 0.98238 0.45602 3.2695 1.3098 3.0563 0.43661-0.10915 0.21831-0.43662 0.21831-0.43662s2.9408-0.261 4.257-0.43661c1.6373-0.21831 1.7465-1.2007 1.7465-1.2007l-4.1478 0.10915c-1.0915 0-1.419-0.87323-1.419-1.7465-0.32746 1.0915-0.21831 1.3098-0.87323 1.3098-0.65516-0.000243-0.87323-1.419-1.0915-0.65492z"/>
  <path id="path94624" d="m66.957 14.75c0 0.87323 0.32746 1.7465 1.419 1.7465l4.1478-0.10915c0.38204-0.62751-0.02741-3.0835-2.2376-3.1655-2.2102-0.08199-3.3018-0.05458-3.3292 1.5282z" stroke="#000" stroke-width=".18192" fill="#fff"/>
  <path id="path94626" d="m53.749 39.31c0.65492 0.04099-1.0915 2.4014-2.1831 2.4014-2.4038 0-28.814 0.07762-32.419-0.10915-2.6289-0.13632-4.0692-2.4407-3.3112-2.5923" stroke="#bfbfbf" stroke-width=".090961" fill="none"/>
  <ellipse id="ellipse94628" rx="1.8525" ry=".92611" stroke="#000" cy="24.574" cx="31.373" stroke-width=".18192" fill="#fff"/>
  <path id="path94630" stroke-linejoin="round" d="m13.799 36.717c-0.65492-1.2281-0.87323-4.557-0.32746-6.2218-1.0641 0.08174-1.2824-1.6919 0.54577-1.6645 0.5186-4.3933-1.2007-9.2235 7.9682-11.843-0.73691 0-1.0183-2.1658-0.08199-3.0289 0.61829-0.57027 4.378-0.99475 3.5749 1.2281 1.6645-2.7017 5.2665-6.9587 6.6584-8.1048 1.3916-1.1461 3.0289-1.801 10.724-2.2102 7.6953-0.40945 16.046-0.32746 21.367 0.49119 5.3214 0.81865 6.3037 0.57318 7.7773 3.1929s2.9471 6.058 3.8475 9.7418l8.6777 1.0644c1.0641 0.16373 1.4736 0.40945 1.2281 1.0641 1.719 2.8654 1.6373 10.397 0.24548 11.707 0.90064-0.08174 0.98238 0.24572 0.73691 1.2281-0.24548 0.98238-0.57294 2.5377-2.2922 2.8654-0.24572 0.49119-0.65492 0.65492-0.65492 0.65492" stroke="#000" stroke-width=".27288" fill="none"/>
  <path id="path94632" d="m13.631 36.302c-0.18508 0.15476 0.93266 2.3512 2.0242 2.6786 1.0915 0.32746 36.676 0.71411 38.204 0.27749 1.5282-0.43662 2.706-2.797 2.4014-3.0063" stroke="#bfbfbf" stroke-width=".090961" fill="none"/>
 </g>
</svg>
