<?xml version="1.0" encoding="UTF-8" standalone="no"?>
<!-- Created with Inkscape (http://www.inkscape.org/) -->
<svg id="svg2" xmlns:rdf="http://www.w3.org/1999/02/22-rdf-syntax-ns#" xmlns="http://www.w3.org/2000/svg" height="54" width="99" version="1.1" xmlns:cc="http://creativecommons.org/ns#" xmlns:dc="http://purl.org/dc/elements/1.1/">
 <metadata id="metadata7">
  <rdf:RDF>
   <cc:Work rdf:about="">
    <dc:format>image/svg+xml</dc:format>
    <dc:type rdf:resource="http://purl.org/dc/dcmitype/StillImage"/>
    <dc:title/>
   </cc:Work>
  </rdf:RDF>
 </metadata>
 <g id="g3491">
  <g id="g3871">
   <g id="g4614">
    <g id="g5219">
     <g id="g5689">
      <g id="g6406">
       <g id="g7263">
        <g id="g8053">
         <g id="g8717">
          <g id="g9406">
           <g id="g9898">
            <g id="g10207">
             <g id="g10407">
              <g id="g10743">
               <g id="g11282">
                <g id="g15079">
                 <g id="g15585">
                  <g id="g16769">
                   <g id="g17492">
                    <g id="g17976">
                     <g id="g18386">
                      <g id="g19746">
                       <g id="g20846">
                        <g id="g21376">
                         <g id="g21705">
                          <g id="g22212">
                           <g id="g26871">
                            <g id="g28064">
                             <g id="g28748">
                              <g id="g29219">
                               <g id="g29819">
                                <g id="g30460">
                                 <g id="g30889">
                                  <g id="g31297">
                                   <g id="g32232">
                                    <g id="g32638">
                                     <rect id="rect2990" opacity="0" height="54" width="99" y="0" x="0"/>
                                     <g id="layer1" transform="matrix(0.83726112,0,0,0.83726112,232.50522,11.109098)">
                                      <g id="logo36" transform="matrix(0.28971072,0,0,0.28971072,-263.56602,-7.8998774)">
                                       <path id="path94450" d="m6.962,129.82c-1.758-6.246-2.091-16.86-0.201-22.627-4.387,0.337-5.287-6.975,2.25-6.862,2.138-18.112-4.95-38.025,32.85-48.825-3.038,0-4.198-8.929-0.338-12.487,2.549-2.351,18.049-4.101,14.738,5.063,6.862-11.138,21.712-28.688,27.45-33.413,5.737-4.725,12.487-7.425,44.212-9.112,31.725-1.688,66.15-1.35,88.087,2.025,21.938,3.375,25.988,2.363,32.063,13.163s12.15,24.975,15.862,40.162l35.775,4.388c4.387,0.675,6.075,1.688,5.063,4.387,7.087,11.813,6.75,42.862,1.012,48.262,3.713-0.337,4.05,1.013,3.038,5.063s-2.362,10.462-9.45,11.813c-0.211,0.422-0.451,0.785-0.699,1.096l-0.088,0.247c1.163,9.866,0.938,20.344-0.676,27.12-2.25,9.45-2.25,13.05-6.3,13.05h-21.6c-3.15,0-6.75-5.4-6.75-24.75h-16.65l-1.8,7.65h-3.15l-1.8-8.1h-10.8l-4.95,1.35s1.35,24.3-10.35,33.75l-46.8,1.8c-5.85-5.4-7.65-13.95-8.1-22.5,0,0,0,7.65-4.5,7.65h-22.5c-3.15,0-4.95-9.45-4.95-9.45h-6.75l-0.45-1.8-52.199-0.9s-2.7,19.35-11.7,24.3h-41.85c-9.45-8.1-13.5-30.15-6.75-51.3l-0.229-0.21z" fill="#FFF"/>
                                       <path id="path94452" d="m7.212,130.03c1.8,3.15,13.5,2.7,13.5,2.7l134.1-1.35s24.3,0.9,28.35-0.45c3.15-4.5,10.35-23.4,10.35-23.4,1.8,0.45,2.25-7.2,0-7.2h-184.5v-1.8h186.3c5.4-10.35,14.4-10.35,18-0.45s3.013,21.712,3.013,21.712,3.737,6.637,5.537,17.438h48.6c8.55,1.35,9.45-0.9,10.8-2.7s2.25-8.1,4.5-20.25,5.399-15.75,8.1-17.55c3.15,4.05,4.05,14.85,2.7,24.3,3.15,12.15,3.6,28.8,1.35,38.25s-2.25,13.05-6.3,13.05h-21.6c-3.15,0-6.75-5.4-6.75-24.75h-16.65l-1.8,7.65h-3.15l-1.8-8.1h-10.8l-4.95,1.35s1.35,24.3-10.35,33.75l-46.8,1.8c-5.85-5.4-7.65-13.95-8.1-22.5,0,0,0,7.65-4.5,7.65h-22.5c-3.15,0-4.95-9.45-4.95-9.45h-6.75l-0.45-1.8-52.199-0.9s-2.7,19.35-11.7,24.3h-41.85c-9.45-8.1-13.5-30.15-6.75-51.3z"/>
                                       <path id="path94454" d="m48.611,112.03c-3.6,0-1.35,10.35,3.15,10.8s43.2,0.9,48.6,0.45,8.55-4.5,8.55-8.1-1.8-4.5-6.3-4.05-48.599,1.35-54,0.9z"/>
                                       <path id="path94456" d="m127.81,79.628c0.919-4.046-2.714-5.465-8.1-5.85-6.3-0.45-69.75-0.45-75.599,0-5.85,0.45-7.2,1.8-6.3,9.45s4.5,11.25,13.95,11.25h60.75c11.699,0,13.049-4.95,15.299-14.85z"/>
                                       <path id="path94458" d="m53.111,37.778c0.9,4.05,1.8,9.9-6.75,13.05l6.75-1.35,3.15-5.4c0.001,0.001,1.801-5.849-3.15-6.3z"/>
                                       <path id="path94460" d="m53.111,49.479-6.75,1.35c8.55-3.15,7.65-9,6.75-13.05-7.2-0.787-13.275-0.787-14.287,7.313-1.013,8.1,7.538,5.738,7.538,5.738" stroke="#000" stroke-width="0.75" fill="#FFF"/>
                                       <path id="path94462" d="m88.211,9.878c-6.3,4.05-29.25,33.75-31.5,39.15,29.25-4.5,109.8-3.6,154.35,1.35,3.15-6.3,2.7-31.05,1.8-42.3-14.4-5.399-103.5-4.949-124.65,1.8z"/>
                                       <path id="path94464" d="m90.673,11.306c-5.67,3.645-26.325,30.375-28.35,35.234,26.325-4.05,105.91-2.455,146,2,2.835-5.669,2.43-27.944,1.62-38.069-12.96-4.86-100.24-5.24-119.27,0.835z" stroke="#bfbfbf" stroke-width="0.375" fill="none"/>
                                       <path id="path94466" d="m218.26,14.378,0.9,30.6c-2.7-0.45-3.6,2.7-4.05,7.2-6.75,2.25-12.15,5.4-8.1,9.45s7.65,2.7,17.55-4.05l19.8,0.9c4.05,0,1.35-4.95-1.35-13.95s-11.7-27.45-13.5-30.6-1.8-3.6-6.3-3.6-4.95,0.901-4.95,4.05z"/>
                                       <path id="path94468" d="m236.94,11.003c-5.51-0.787-3.713,0.338-1.688,4.05s11.475,22.612,15.525,39.487c1.036,4.316,2.03,3.671,5.063,4.05,5.4,0.675,5.4,0.675,3.375-6.75s-8.437-25.312-13.162-32.4c-4.726-7.086-6.751-8.099-9.113-8.437z"/>
                                       <path id="path94470" d="m194.07,109.22c8.438-4.05,20,2.825,22.25,10.575-2.625-6.374-11.787-12.937-22.25-10.575z" fill="#FFF"/>
                                       <ellipse id="ellipse94472" d="m 215.083,150.05 c 0,14.23459 -6.83796,25.774 -15.273,25.774 -8.43505,0 -15.273,-11.53941 -15.273,-25.774 0,-14.23458 6.83795,-25.774 15.273,-25.774 8.43504,0 15.273,11.53942 15.273,25.774 z" cx="199.81" rx="15.273" cy="150.05" ry="25.774" fill="#FFF"/>
                                       <ellipse id="ellipse94474" d="m 295.03201,144.99001 c 0,11.33509 -2.1365,20.524 -4.772,20.524 -2.6355,0 -4.772,-9.18891 -4.772,-20.524 0,-11.3351 2.1365,-20.524 4.772,-20.524 2.6355,0 4.772,9.1889 4.772,20.524 z" cx="290.26" rx="4.772" cy="144.99" ry="20.524" fill="#FFF"/>
                                       <path id="path94476" d="m285.87,115.29c2.419-5.531,9.076-3.75,10.688,5.737-2.55-8.925-7.651-10.125-10.688-5.737z" fill="#FFF"/>
                                       <path id="path94478" d="m286.21,161.86c1.004,7.78,6.301,12.495,8.863,1.925-2.375,7.626-6.161,7.192-8.863-1.925z" fill="#FFF"/>
                                       <path id="path94480" d="m137.37,92.003h42.862c2.362,0,4.725-1.688,3.037-9.112s-4.05-9.45-17.887-9.45-21.262-0.675-24.975,4.725l-4.05,6.075c-2.362,3.375-2.362,7.762,1.013,7.762z" stroke="#000" stroke-width="0.75" fill="#FFF"/>
                                       <path id="path94482" d="m11.824,74.453c2.363-1.688,6.753-1.301,13.5-1.688,1.749-0.1,2.749,3.275,2.749,3.275s5.688,14.95,1.301,15.288c-4.387,0.337-16.213,1.725-19.926,0.712" stroke="#000" stroke-width="0.75" fill="#FFF"/>
                                       <path id="path94484" d="m127.25,120.69c0,2.362,2.362,1.688,6.75,1.688,4.387,0,23.288,2.362,26.662-4.05,3.375-6.413-1.012-7.763-4.725-7.763s-17.55-1.012-22.612-0.337c-5.063,0.675-6.413,2.025-6.075,10.462z" stroke="#000" stroke-width="0.75" fill="#FFF"/>
                                       <path id="path94486" d="m30.387,121.7c1.688,0,3.038-7.087,0.337-9.45-2.7-2.362-4.387-3.375-10.462-3.375s-9.788,0.337-10.125,4.725,1.35,8.1,8.1,8.1h12.15z" stroke="#000" stroke-width="0.75" fill="#FFF"/>
                                       <line id="line94488" stroke-width="0.375" x1="39.285" x2="53.517" stroke="#FFF" y1="80.587" y2="74.82" fill="none"/>
                                       <line id="line94490" stroke-width="0.375" x1="39.337" x2="63.208" stroke="#FFF" y1="84.426" y2="74.752" fill="none"/>
                                       <line id="line94492" stroke-width="0.375" x1="40.027" x2="72.931" stroke="#FFF" y1="88.006" y2="74.671" fill="none"/>
                                       <line id="line94494" stroke-width="0.375" x1="43.184" x2="82.332" stroke="#FFF" y1="90.586" y2="74.72" fill="none"/>
                                       <line id="line94496" stroke-width="0.375" x1="47.591" x2="91.648" stroke="#FFF" y1="92.659" y2="74.805" fill="none"/>
                                       <line id="line94498" stroke-width="0.375" x1="56.006" x2="100.96" stroke="#FFF" y1="93.108" y2="74.889" fill="none"/>
                                       <line id="line94500" stroke-width="0.375" x1="66.019" x2="110.66" stroke="#FFF" y1="92.91" y2="74.82" fill="none"/>
                                       <line id="line94502" stroke-width="0.375" x1="75.769" x2="119.97" stroke="#FFF" y1="92.818" y2="74.905" fill="none"/>
                                       <line id="line94504" stroke-width="0.375" x1="84.881" x2="125.07" stroke="#FFF" y1="92.985" y2="76.696" fill="none"/>
                                       <line id="line94506" stroke-width="0.375" x1="94.195" x2="125.3" stroke="#FFF" y1="93.069" y2="80.465" fill="none"/>
                                       <line id="line94508" stroke-width="0.375" x1="103.95" x2="124.62" stroke="#FFF" y1="92.978" y2="84.597" fill="none"/>
                                       <line id="line94510" stroke-width="0.375" x1="113.75" x2="122.58" stroke="#FFF" y1="92.862" y2="89.283" fill="none"/>
                                       <line id="line94512" stroke-width="0.375" x1="125.53" x2="113.01" stroke="#FFF" y1="80.03" y2="74.957" fill="none"/>
                                       <line id="line94514" stroke-width="0.375" x1="124.52" x2="103.26" stroke="#FFF" y1="83.48" y2="74.864" fill="none"/>
                                       <line id="line94516" stroke-width="0.375" x1="123.83" x2="93.651" stroke="#FFF" y1="87.06" y2="74.832" fill="none"/>
                                       <line id="line94518" stroke-width="0.375" x1="122" x2="84.046" stroke="#FFF" y1="90.181" y2="74.798" fill="none"/>
                                       <line id="line94520" stroke-width="0.375" x1="118.29" x2="74.034" stroke="#FFF" y1="92.537" y2="74.6" fill="none"/>
                                       <line id="line94522" stroke-width="0.375" x1="109.68" x2="64.632" stroke="#FFF" y1="92.904" y2="74.649" fill="none"/>
                                       <line id="line94524" stroke-width="0.375" x1="100.77" x2="55.52" stroke="#FFF" y1="93.153" y2="74.816" fill="none"/>
                                       <line id="line94526" stroke-width="0.375" x1="91.104" x2="46.06" stroke="#FFF" y1="93.096" y2="74.841" fill="none"/>
                                       <line id="line94528" stroke-width="0.375" x1="81.294" x2="40.521" stroke="#FFF" y1="92.98" y2="76.456" fill="none"/>
                                       <line id="line94530" stroke-width="0.375" x1="72.038" x2="39.422" stroke="#FFF" y1="93.088" y2="79.871" fill="none"/>
                                       <line id="line94532" stroke-width="0.375" x1="62.374" x2="39.666" stroke="#FFF" y1="93.031" y2="83.829" fill="none"/>
                                       <line id="line94534" stroke-width="0.375" x1="39.666" x2="39.49" stroke="#FFF" y1="83.829" y2="83.757" fill="none"/>
                                       <line id="line94536" stroke-width="0.375" x1="53.67" x2="40.34" stroke="#FFF" y1="93.363" y2="87.961" fill="none"/>
                                       <path id="path94538" d="m253.81,74.678c-3.15,0-3.15,3.15-0.45,3.15s2.7-3.15,0.45-3.15z"/>
                                       <path id="path94540" d="m198.12,164.56c-2.7-0.338-2.362,3.037,0.337,3.375,2.7,0.338,4.05-3.037,2.363-3.037s-2.7-0.338-2.7-0.338z"/>
                                       <path id="path94542" d="m206.9,144.32c-0.675,2.7-1.012,3.712-2.7,5.737s0,2.7,2.025,1.013,2.362-4.05,2.025-6.413c-0.143-1.002-0.675-2.699-1.35-0.337z"/>
                                       <path id="path94544" d="m198.8,129.46c-2.025,0-2.7,1.35-1.688,3.038s2.362,4.05,2.7,2.025,1.013-5.063-1.012-5.063z"/>
                                       <path id="path94546" d="m296.67,130.48c2.025-2.025,2.425-2.024,2.7-16.875,0.337-18.225-2.274-18.675-6.549-16.313" stroke="#000" stroke-width="0.375" fill="none"/>
                                       <path id="path94548" d="m206.07,90.791c7.75-2.25,17.212,10.321,13.65,42.387" stroke="#000" stroke-width="0.375" fill="none"/>
                                       <ellipse id="ellipse94550" d="m 213.466,150.05 c 0,12.72741 -6.114,23.045 -13.656,23.045 -7.542,0 -13.656,-10.31759 -13.656,-23.045 0,-12.7274 6.114,-23.045 13.656,-23.045 7.542,0 13.656,10.3176 13.656,23.045 z" cx="199.81" rx="13.656" cy="150.05" ry="23.045" stroke="#000" stroke-width="0.375" fill="none"/>
                                       <path id="path94552" d="m167.07,73.778c-2.025,5.063-2.5,13.288-2.5,18.012" stroke="#000" stroke-width="1.125" fill="none"/>
                                       <path id="path94554" d="m185.3,99.766c0-16.538,2.362-28.688-15.525-30.037-17.888-1.35-116.44-3.375-140.4-1.688-2.362,0.337-2.7,0.675-6.412,1.012s-9.45,1.013-9.45,1.013" stroke="#000" stroke-width="0.375" fill="none"/>
                                       <path id="path94556" d="m15.199,70.066c1.688-5.738,5.624-8.65,5.624-8.65" stroke="#000" stroke-width="0.375" fill="none"/>
                                       <path id="path94558" d="m168.42,70.066c2.362-7.425,14.85-17.55,35.437-20.25" stroke="#000" stroke-width="0.375" fill="none"/>
                                       <path id="path94560" d="m15.199,73.441c-2.025,4.387-1.713,14.125-1.376,18.85" stroke="#000" stroke-width="1.125" fill="none"/>
                                       <path id="path94562" d="m50.299,98.753c-5.4-0.337-13.162-1.012-15.187-7.762s-5.738-21.6-5.738-25.987c0-4.388,3.375-7.425,12.488-13.5-11.813,6.75-16.538,10.8-14.513,16.538,2.025,5.737,7.763,22.95,7.763,22.95" stroke="#000" stroke-width="0.375" fill="none"/>
                                       <path id="path94564" d="m106.83,98.922c7.762-0.337,15.019,0.168,22.106-10.631s11.137-15.862,12.825-20.25,10.463-11.813,31.725-16.2-22.492,7.069-28.688,16.2c-6.413,9.45-18.9,24.3-18.9,24.3" stroke="#000" stroke-width="0.375" fill="none"/>
                                       <path id="path94566" d="m188.67,98.753c7.087-14.85,15.187-19.575,24.3-17.55,9.112,2.025,8.441,19.575,8.775,31.725,0.325,11.862,0,19.575,0,19.575s3.591-45.799-11.813-48.6c-11.137-2.025-17.55,15.187-17.55,15.187" stroke="#000" stroke-width="0.375" fill="none"/>
                                       <path id="path94568" d="m40.512,121.03c3.712,0,4.05-2.025,3.375-5.063-0.675-3.037-1.688-7.087,5.4-6.75,7.087,0.338,48.937,0,54.337,0s8.1,2.363,7.088,6.413c-1.013,4.05-1.35,6.075,3.037,5.737,4.388-0.337,4.725-0.337,8.438-1.012s4.05-2.025,4.05-5.4,1.688-5.4,7.763-5.738c6.075-0.337,20.587-0.337,23.962,1.013s4.725,6.75,5.737,8.1c1.013,1.35-1.012,6.075-12.15,6.412-3.375,0-1.688,2.025,1.35,2.025s6.413,1.688,0.337,2.362c-6.075,0.675-34.762,1.688-71.212,1.35s-68.85-1.688-69.187-3.712c-0.337-2.025,4.05-2.363,4.05-2.363s-7.087-0.675-7.762-4.387,0.355-5.99,0.355-5.99-0.018-5.822,6.057-5.822,17.574-0.4,17.912,5.337c0.337,5.738-1.375,6.375,0.988,6.813,3.384,0.626,6.075,0.675,6.075,0.675z" stroke="#000" stroke-width="0.375" fill="none"/>
                                       <path id="path94570" d="m6.762,107.19c15.863,0,123.86,0,146.14-0.337,22.275-0.337,34.762-1.688,41.85,0.675" stroke="#000" stroke-width="0.375" fill="none"/>
                                       <path id="path94572" d="m216.91,56.229c4.05,8.1,8.1,20.7,7.65,43.649-0.45,22.95,0,32.4,0,32.4s1.8,2.25-0.45,3.6l38.963,0.163s2.7-1.8,2.25-4.5c3.15-9,2.766-18.781,2.766-18.781s2.371-2.531,2.371-4.331-2.09-4.247-2.09-4.247,1.415-34.228-4.435-47.278" stroke="#000" stroke-width="0.375" fill="none"/>
                                       <path id="path94574" d="m252.46,135.88c2.25,0,1.613-4.187,1.613-4.187l3.328-19.072s1.809-2.391,1.809-4.19c0-1.8-1.855-4.388-1.855-4.388s2.756-18.563,0.056-31.612c-2.7-13.05-4.95-15.3-4.95-15.3" stroke="#000" stroke-width="0.375" fill="none"/>
                                       <path id="path94576" d="m252.46,69.278c-5.4,0-3.15,9.9,0.9,9.9s4.5-9.9-0.9-9.9z" stroke="#000" stroke-width="0.375" fill="none"/>
                                       <path id="path94578" d="m227.26,103.48c-1.8,0-1.35,8.55,0.45,8.55s45.899,0.9,49.5,0.9c1.35,0,4.05-3.15,4.05-4.5s-0.45-4.05-2.25-4.05-51.75-0.9-51.75-0.9z" stroke="#000" stroke-width="0.375" fill="none"/>
                                       <line id="line94580" stroke-width="0.375" x1="226.81" x2="281.26" stroke="#000" y1="108.43" y2="108.43" fill="none"/>
                                       <line id="line94582" stroke-width="0.375" x1="279.32" x2="218.82" stroke="#000" y1="131.29" y2="132.29" fill="none"/>
                                       <path id="path94584" d="m276.31,137.68c3.6-1.8,3.913-4.137,3.013-6.387,1.8-12.15,9.137-41.762,16.336-40.862,7.2,0.9,5.4,18.9,3.6,35.55" stroke="#000" stroke-width="0.375" fill="none"/>
                                       <path id="path94586" d="m280.7,123.54c0.45-17.55,4.125-42.75,12.262-43.012,10.804-0.349,9,17.1,8.1,27" stroke="#000" stroke-width="0.375" fill="none"/>
                                       <ellipse id="ellipse94588" d="m 283.74601,88.416 c 0,3.865994 -1.13988,7 -2.546,7 -1.40611,0 -2.546,-3.134006 -2.546,-7 0,-3.865993 1.13989,-7 2.546,-7 1.40612,0 2.546,3.134007 2.546,7 z" cx="281.2" rx="2.546" cy="88.416" ry="7" stroke="#000" stroke-width="0.375" fill="none"/>
                                       <path id="path94590" d="m197.56,140.38c-10.581-5.569-11.25,24.3-1.35,20.7,7.089-2.578,9.899-16.2,1.35-20.7z" stroke="#000" stroke-width="0.375" fill="none"/>
                                       <path id="path94592" d="m193.74,162.88c-2.597-1.299-4.388-0.675-1.013,3.375s7.763,5.4,11.137,2.025c3.375-3.375,0-4.388-2.025-3.712-2.024,0.674-4.724-0.001-8.099-1.688z" stroke="#000" stroke-width="0.375" fill="none"/>
                                       <path id="path94594" d="m201.5,158.83c-0.686,2.286,0.337,2.025,2.7,0.337,2.362-1.688,6.125-5.562,6.125-10.625s0.287-6.588-2.075-6.588-3.712,6.075-4.725,9.113c-1.012,3.038-1.012,4.388-2.025,7.763z" stroke="#000" stroke-width="0.375" fill="none"/>
                                       <path id="path94596" d="m191.37,132.84c2.7,0,5.738,0.675,2.7,2.7s-6.075,4.387-7.425,7.425" stroke="#000" stroke-width="0.375" fill="none"/>
                                       <path id="path94598" d="m195.76,131.83c1.012,2.7,4.387,7.088,5.063,9.45,0.675,2.362,1.824-0.959,1.688-5.063-0.339-10.125-7.764-7.424-6.751-4.387z" stroke="#000" stroke-width="0.375" fill="none"/>
                                       <path id="path94600" d="m286.88,137.23c5.062,2.025,5.062,11.812-0.675,15.187" stroke="#000" stroke-width="0.375" fill="none"/>
                                       <path id="path94602" d="m286.89,129.54c3.938-5.813,6.188-1.125,6.749,15.112,0.537,15.516-3.037,22.95-7.425,17.212" stroke="#000" stroke-width="0.375" fill="none"/>
                                       <path id="path94604" d="m285.87,154.1c3.038-1.688,5.4-4.725,5.063-1.012s-1.35,5.4-4.725,4.725" stroke="#000" stroke-width="0.375" fill="none"/>
                                       <path id="path94606" d="m285.57,134.98c0.675-3.375,3-8.888,5.024-7.538s2.7,12.825,2.7,14.512-2.7,1.35-2.7,1.35-1.311-7.311-5.024-8.324z" stroke="#000" stroke-width="0.375" fill="none"/>
                                       <path id="path94608" d="m201.84,144.65c0,2.362-0.675,5.4-2.025,3.375s-2.025-2.363-2.362-0.675-4.725,4.388-8.775,2.363" stroke="#000" stroke-width="0.375" fill="none"/>
                                       <line id="line94610" stroke-width="0.375" x1="304.77" x2="265.28" stroke="#000" y1="65.678" y2="61.291" fill="none"/>
                                       <path id="path94612" d="m305.78,113.94c0.675,5.4-0.524,14.1-7.274,15.788" stroke="#000" stroke-width="0.375" fill="none"/>
                                       <ellipse id="ellipse94614" d="m 236.894,184.03 c 0,0.70306 -20.22956,1.273 -45.18399,1.273 -24.95444,0 -45.184,-0.56994 -45.184,-1.273 0,-0.70306 20.22956,-1.273 45.184,-1.273 24.95443,0 45.18399,0.56994 45.18399,1.273 z" cx="191.71" rx="45.184" cy="184.03" ry="1.273" stroke="#000" stroke-width="0.375"/>
                                       <ellipse id="ellipse94616" d="m 301.09699,172.78 c 0,0.70306 -9.68721,1.273 -21.637,1.273 -11.94978,0 -21.637,-0.56994 -21.637,-1.273 0,-0.70306 9.68722,-1.273 21.637,-1.273 11.94979,0 21.637,0.56994 21.637,1.273 z" cx="279.46" rx="21.637" cy="172.78" ry="1.273" stroke="#000" stroke-width="0.375"/>
                                       <ellipse id="ellipse94618" d="m 72.736,181.78 c 0,1.05431 -16.240422,1.909 -36.273998,1.909 -20.033576,0 -36.27399846,-0.85469 -36.27399846,-1.909 0,-1.05431 16.24042246,-1.909 36.27399846,-1.909 20.033576,0 36.273998,0.85469 36.273998,1.909 z" cx="36.462" rx="36.274" cy="181.78" ry="1.909" stroke="#000" stroke-width="0.375"/>
                                       <ellipse id="ellipse94620" d="m 165.01099,170.08 c 0,0.70306 -9.40246,1.273 -21.001,1.273 -11.59853,0 -21.00099,-0.56994 -21.00099,-1.273 0,-0.70306 9.40246,-1.273 21.00099,-1.273 11.59854,0 21.001,0.56994 21.001,1.273 z" cx="144.01" rx="21.001" cy="170.08" ry="1.273" stroke="#000" stroke-width="0.375"/>
                                       <path id="path94622" d="m219.16,44.979c-0.9,4.05,1.88,13.479,5.4,12.6,1.8-0.45,0.9-1.8,0.9-1.8s12.124-1.076,17.55-1.8c6.75-0.9,7.2-4.95,7.2-4.95l-17.1,0.45c-4.5,0-5.85-3.6-5.85-7.2-1.35,4.5-0.9,5.4-3.6,5.4-2.701-0.001-3.6-5.85-4.5-2.7z" stroke-width="0.375" stroke="#FFF"/>
                                       <path id="path94624" d="m227.26,42.278c0,3.6,1.35,7.2,5.85,7.2l17.1-0.45c1.575-2.587-0.113-12.712-9.225-13.05s-13.612-0.225-13.725,6.3z" stroke="#000" stroke-width="0.75" fill="#FFF"/>
                                       <path id="path94626" d="m172.81,143.53c2.7,0.169-4.5,9.9-9,9.9-9.91,0-118.79,0.32-133.65-0.45-10.838-0.562-16.776-10.062-13.651-10.687" stroke="#bfbfbf" stroke-width="0.375" fill="none"/>
                                       <ellipse id="ellipse94628" d="m 88.198997,82.778 c 0,2.108623 -3.419202,3.818 -7.637001,3.818 -4.217798,0 -7.637,-1.709377 -7.637,-3.818 0,-2.108623 3.419202,-3.818 7.637,-3.818 4.217799,0 7.637001,1.709377 7.637001,3.818 z" cx="80.562" rx="7.637" cy="82.778" ry="3.818" stroke="#000" stroke-width="0.75" fill="#FFF"/>
                                       <path id="path94630" stroke-linejoin="round" d="m8.112,132.84c-2.7-5.063-3.6-18.787-1.35-25.65-4.387,0.337-5.287-6.975,2.25-6.862,2.138-18.112-4.95-38.025,32.85-48.825-3.038,0-4.198-8.929-0.338-12.487,2.549-2.351,18.049-4.101,14.738,5.063,6.862-11.138,21.712-28.688,27.45-33.413,5.737-4.725,12.487-7.425,44.212-9.112,31.725-1.688,66.15-1.35,88.087,2.025,21.938,3.375,25.988,2.363,32.063,13.163s12.15,24.975,15.862,40.162l35.775,4.388c4.387,0.675,6.075,1.688,5.063,4.387,7.087,11.813,6.75,42.862,1.012,48.262,3.713-0.337,4.05,1.013,3.038,5.063s-2.362,10.462-9.45,11.813c-1.013,2.025-2.7,2.7-2.7,2.7" stroke="#000" stroke-width="1.125" fill="none"/>
                                       <path id="path94632" d="m7.417,131.13c-0.763,0.638,3.845,9.693,8.345,11.043s151.2,2.944,157.5,1.144,11.156-11.531,9.9-12.394" stroke="#bfbfbf" stroke-width="0.375" fill="none"/>
                                      </g>
                                     </g>
                                    </g>
                                   </g>
                                  </g>
                                 </g>
                                </g>
                               </g>
                              </g>
                             </g>
                            </g>
                           </g>
                          </g>
                         </g>
                        </g>
                       </g>
                      </g>
                     </g>
                    </g>
                   </g>
                  </g>
                 </g>
                </g>
               </g>
              </g>
             </g>
            </g>
           </g>
          </g>
         </g>
        </g>
       </g>
      </g>
     </g>
    </g>
   </g>
  </g>
 </g>
</svg>
