<?xml version="1.0" encoding="UTF-8" standalone="no"?>
<!-- Created with Inkscape (http://www.inkscape.org/) -->
<svg id="svg2" xmlns:rdf="http://www.w3.org/1999/02/22-rdf-syntax-ns#" xmlns="http://www.w3.org/2000/svg" height="45" width="67.5" version="1.1" xmlns:cc="http://creativecommons.org/ns#" xmlns:dc="http://purl.org/dc/elements/1.1/">
 <metadata id="metadata7">
  <rdf:RDF>
   <cc:Work rdf:about="">
    <dc:format>image/svg+xml</dc:format>
    <dc:type rdf:resource="http://purl.org/dc/dcmitype/StillImage"/>
    <dc:title/>
   </cc:Work>
  </rdf:RDF>
 </metadata>
 <g id="g11369">
  <rect id="rect2990" opacity="0" height="45" width="67.5" y="0" x="3.5527e-15"/>
  <path id="path11367" d="m27.979 36.343c-1.6458-0.34598-3.0084-1.9679-3.5907-4.2738l-0.21508-0.85184-2.4087-0.07804c-4.294-0.138-13.217-0.097-13.058 0.062 0.0913 0.09133 1.2557 0.19212 3.3547 0.29037 5.191 0.24299 8.9861 0.42802 10.656 0.51955l1.5603 0.08551-0.45748 0.20719c-0.42598 0.19292-0.583 0.19489-2.2805 0.02861-1.0026-0.09822-2.0931-0.1807-2.4231-0.18329-0.33006-0.0026-1.7208-0.02508-3.0906-0.04996l-2.4905-0.04526v0.34388c0 0.44418-0.22238 0.44072-0.65437-0.01018l-0.33921-0.35406-0.44694 0.25723c-0.40802 0.23482-0.45929 0.32425-0.58873 1.0268-0.24921 1.3525-0.9065 2.3435-1.7727 2.6728-0.16199 0.06159-1.182 0.11198-2.2668 0.11198h-1.9723l-0.4768-0.43077c-0.78787-0.7118-1.5453-2.6469-1.7524-4.4767-0.0751-0.66383-0.10299-0.71355-0.45608-0.81309-0.24354-0.06865-0.44379-0.24057-0.56816-0.48776-0.10563-0.20995-0.46245-0.59547-0.79294-0.8567-1.0179-0.80456-1.1155-0.9888-1.1149-2.1031 0.0003-0.53571-0.0894-1.4082-0.19941-1.9389-0.23176-1.1183-0.18969-1.3729 0.35851-2.1698 0.36836-0.5355 0.41055-0.68972 0.48869-1.7863 0.0903-1.267 0.35436-2.685 0.59066-3.1715 0.17061-0.35126 0.99298-0.78828 1.8516-0.984 0.37545-0.08558 0.63013-0.20867 0.63013-0.30457 0-0.23999-0.2198-0.19872-1.061 0.19923-0.8294 0.39237-1.0954 0.43604-1.3155 0.21595-0.7752-0.7752 1.3278-1.7275 4.3444-1.9674 1.0362-0.08239 1.0858-0.10025 1.6804-0.60583 3.0123-2.5614 5.0143-3.7133 7.9905-4.5974 3.3503-0.99529 5.9352-1.2502 12.666-1.2489 11.498 0.0022 13.399 0.5237 20.044 5.4995l1.8004 1.348 1.0202 0.14675c2.3131 0.33272 4.9213 0.96891 5.8054 1.416 0.18934 0.09576 1.3776 0.38286 2.6406 0.638 3.3016 0.66696 4.257 1.0439 5.2668 2.0777 0.4353 0.44568 1.1406 1.726 1.3488 2.4486 0.07034 0.24413 0.03671 0.27006-0.35036 0.27006h-0.42818l0.0018 0.57012c0.0029 0.88984 0.14762 0.96654 0.52288 0.27706 0.17953-0.32986 0.37339-0.62877 0.4308-0.66425s0.26997 0.07482 0.47236 0.24512c0.53 0.44596 0.67223 1.0838 0.49283 2.21-0.18643 1.1704-0.79021 3.5211-1.0392 4.0457-0.23843 0.50246-0.82751 0.82088-1.8923 1.0229-0.67678 0.12838-0.78964 0.18608-0.78964 0.40369 0 0.37731-0.41719 1.5201-0.85432 2.3403-0.49926 0.93671-1.1897 1.7134-1.8881 2.124-0.53463 0.31429-0.63924 0.32991-2.4723 0.36915-2.2027 0.04715-3.03-0.07583-4.1308-0.61405-0.72942-0.35665-1.6828-1.1649-2.3066-1.9553l-0.29036-0.36795-2.7606 0.07982c-2.0546 0.0594-2.9134 0.04107-3.3582-0.07168-0.45766-0.11603-0.65436-0.11882-0.84017-0.01193-0.17109 0.09842-1.4209 0.13957-4.2396 0.13957h-3.997l-0.26954 0.66304c-0.55316 1.3606-1.4198 2.3172-2.5934 2.8627-0.63359 0.29449-0.77536 0.31062-2.9461 0.33523-1.2543 0.01422-2.505-0.02133-2.7793-0.07902zm2.1912-1.6965c0.99999-0.46549 1.8994-1.6682 2.2714-3.0371l0.198-0.72876 4.4413-0.03005c4.1624-0.02817 5.3876-0.11745 4.4468-0.32407-0.50642-0.11123-1.298-0.70262-1.5231-1.1379-0.28593-0.55294-0.23785-1.1704 0.11672-1.4991 0.52369-0.48534 2.3893-0.78744 3.1755-0.51422 0.58255 0.20246 0.96435 0.81096 0.96435 1.5369 0 0.57991-0.20407 1.2246-0.35762 1.1297-0.0454-0.02803-0.0825 0.01968-0.0825 0.10602 0 0.12852 0.0978 0.12756 0.53919-0.0053 0.40161-0.12087 1.4913-0.16331 4.2709-0.16635 4.2592-0.0046 7.7579-0.13143 11.876-0.43033 2.3368-0.1696 2.977-0.18087 3.4807-0.06128 0.33946 0.0806 0.77924 0.17547 0.97729 0.21081l0.36008 0.06426-0.35198-0.24254c-0.47375-0.32644-0.65889-0.69428-0.66398-1.3192-0.0035-0.43668 0.06252-0.58888 0.40383-0.9302 0.22445-0.22445 0.51422-0.40808 0.64395-0.40808 0.2995 0 0.83113 0.41374 0.92937 0.72328 0.04135 0.1303 0.12107 0.23692 0.17713 0.23692 0.10089 0 0.5156-1.613 0.6747-2.6242 0.07867-0.50002 0.07045-0.51996-0.18154-0.43998-0.14517 0.04607-0.94973 0.09759-1.7879 0.11447s-1.659 0.08993-1.824 0.16232c-0.28576 0.12535-0.28751 0.13199-0.0367 0.13923 0.14485 0.0042 0.40921 0.13306 0.58747 0.28639 0.28476 0.24494 0.31376 0.33396 0.23886 0.73319-0.08693 0.46337-0.56748 1.0285-0.8746 1.0285-0.26068 0-1.4754 0.60253-1.4754 0.73184 0 0.15173 0.53348 0.34839 0.94508 0.34839 0.18113 0 0.4304 0.0739 0.55393 0.16424 0.21556 0.15762 0.21286 0.17055-0.06708 0.32084-0.21729 0.11666-1.3384 0.17068-4.3955 0.21181l-4.1038 0.0552 0.06978-0.67611c0.05934-0.57498 0.04034-0.67611-0.12705-0.67611-0.15848 0-0.19683 0.12817-0.19683 0.65785 0 0.58484-0.02997 0.66436-0.27006 0.71646-0.53691 0.11653-9.322 0.12796-9.206 0.01198 0.16595-0.16588 0.13977-0.9957-0.036-1.1397-0.0825-0.06762-0.32557-0.26359-0.54011-0.43549-0.78818-0.6315-0.39094-1.2002 1.1487-1.6444l0.99864-0.28812-3.7592-0.07818c-4.4869-0.09333-7.0599-0.29421-7.0599-0.55121 0-0.05013 1.5798-0.12628 3.5107-0.16922s5.4282-0.15815 7.7716-0.25602c2.3435-0.09787 7.0965-0.23418 10.562-0.30292 3.4657-0.06874 6.6254-0.15723 7.0215-0.19665l0.72015-0.07169-0.04087-0.71105-0.04088-0.71106-2.4957 0.0823-2.4957 0.0823-0.14494-0.27083c-0.18032-0.33692-0.06825-1.0067 0.25697-1.5358l0.23976-0.39008h-0.4051c-0.39527 0-0.40853 0.01636-0.54656 0.67444-0.17772 0.8473-0.57474 1.3737-1.3122 1.7399-0.5644 0.28027-0.64332 0.28619-3.817 0.28619-2.848 0-3.324-0.02734-3.9283-0.22566-0.39723-0.13038-0.65548-0.27758-0.61158-0.34862 0.0437-0.07077 0.0169-0.08646-0.0631-0.03697-0.16839 0.10407-1.3907-0.50216-2.3037-1.1425-0.62124-0.43576-0.72071-0.46638-1.5003-0.46188l-0.83497 0.0048 0.60013 0.2677c1.2529 0.55888 2.2205 1.2477 2.2205 1.5808 0 0.37656-0.39272 0.44852-3.3275 0.60971-3.724 0.20454-7.0033 0.21531-11.048 0.03626-1.734-0.07677-3.1858-0.10641-3.2264-0.06589-0.0931 0.0931 0.0903 0.79216 0.42781 1.6309l0.26093 0.64839-0.27551-0.20227c-1.885-1.3839-4.0884-0.72959-5.201 1.5445-0.34213 0.6993-0.65147 2.0393-0.65147 2.8222 0 0.79164 0.31063 2.1255 0.66247 2.8446 0.34844 0.7122 1.1569 1.598 1.728 1.8934 0.84497 0.43696 1.845 0.45465 2.7184 0.04809zm-1.993-0.096c-0.87045-0.26478-1.7892-1.0868-2.2717-2.0326-1.2731-2.4955-0.4235-5.9946 1.7324-7.1345 0.66444-0.35133 1.8567-0.35055 2.5259 0.0017 0.60582 0.31882 1.5379 1.311 1.449 1.5425-0.036 0.09386-0.003 0.1578 0.0733 0.14209 0.0763-0.01572 0.27123 0.32251 0.43309 0.7516 0.41475 1.0995 0.42425 2.9682 0.0204 4.0208-0.78645 2.0501-2.4311 3.1743-3.9625 2.7084zm1.5347-0.19119c0.69718-0.20704 2.0426-1.3689 1.7057-1.4731-0.78875-0.24378-1.2401-1.524-0.78315-2.2214 0.34305-0.52356 1.3752-0.74772 1.626-0.35315 0.23569 0.37082 0.017-1.7116-0.25646-2.4427-0.13675-0.36551-0.2773-0.63589-0.31233-0.60086-0.0553 0.05532 0.0853 0.76847 0.28069 1.4232 0.0532 0.17831-0.0193 0.21004-0.47988 0.21004-1.0259 0-1.5141-0.46368-1.5141-1.4382 0-0.58609 0.27485-1.2972 0.54081-1.3993 0.11332-0.04349 0.32386 0.04298 0.51552 0.21173l0.32396 0.28524-0.30006-0.34149c-0.49056-0.55829-1.2376-0.92885-2.0048-0.99444-0.57434-0.04911-0.6539-0.03461-0.45576 0.08302 0.39749 0.23598 0.54012 0.49467 0.54012 0.97964 0 0.95945-0.62324 1.7642-1.2454 1.608-0.39969-0.10032-1.0053-0.69432-1.1025-1.0812-0.0972-0.38742 0.12218-0.67278 0.90104-1.1718 0.61375-0.39327 0.56567-0.44836-0.0965-0.11056-0.24942 0.12725-0.65856 0.45834-0.90919 0.73575-2.1622 2.3933-1.3855 7.1315 1.3276 8.0986 0.60772 0.21663 0.95011 0.2152 1.6986-0.0071zm-1.528-0.0588c-0.22782-0.05363-0.4885-0.19664-0.57927-0.31778-0.33561-0.44793 0.12-1.9025 0.63653-2.0322 0.34374-0.08627 0.71061 0.09905 1.2872 0.65018 0.49278 0.47106 0.57415 0.87116 0.26652 1.3104-0.15032 0.21461-0.90149 0.54405-1.1367 0.49852-0.0331-0.0064-0.24642-0.0555-0.47424-0.10913zm-1.968-2.535c-0.34998-0.20344-0.55888-0.86648-0.55888-1.7739 0-0.70369 0.0447-0.8892 0.27949-1.1623 0.38784-0.45088 0.83222-0.33256 1.1594 0.30868 0.41504 0.81355 0.27189 2.3702-0.24333 2.646-0.27251 0.14584-0.35829 0.14336-0.63664-0.01844zm2.3259-0.08511c-1.0419-0.55876-1.2492-2.3932-0.36991-3.2725 0.45146-0.45146 0.89126-0.54731 1.3994-0.30498 1.3514 0.64446 1.2472 3.1536-0.15309 3.686-0.39096 0.14864-0.39887 0.14766-0.87643-0.10846zm1.3402-0.37867c0.84645-0.91674 0.62738-2.7021-0.38292-3.1205-0.97961-0.40576-1.9596 0.75001-1.7396 2.0517 0.0684 0.40514 0.1008 0.44262 0.25179 0.29164 0.0953-0.09529 0.25535-0.14174 0.3557-0.10323 0.27081 0.10392 0.14721 0.46139-0.156 0.45114-0.20035-0.0068-0.23607 0.03438-0.1574 0.18138 0.41568 0.77671 1.2373 0.8881 1.8285 0.24789zm-0.82-0.179c-0.0416-0.10834-0.018-0.25453 0.0523-0.32487 0.18287-0.18287 0.52936-0.01573 0.48159 0.23231-0.0532 0.27628-0.43782 0.34296-0.5339 0.09256zm0.59673-1.3291c-0.10004-0.26069 0.15392-0.50585 0.3357-0.32407 0.15364 0.15364 0.0585 0.51218-0.13596 0.51218-0.0702 0-0.16004-0.08465-0.19974-0.18811zm-1.6819-0.48415c-0.10232-0.26665 0.21732-0.44326 0.42554-0.23512 0.0903 0.0903 0.12765 0.22338 0.0829 0.29572-0.12075 0.19538-0.42412 0.15922-0.50848-0.06061zm0.84173-0.59608c-0.10923-0.28463 0.14677-0.48538 0.37617-0.29499 0.14217 0.11798 0.15417 0.19396 0.0504 0.31898-0.17973 0.21657-0.33767 0.20768-0.42657-0.024zm-22.558 5.769c0.33025-0.30607 0.78677-1.1769 0.78677-1.5008 0-0.09902-0.10981 0.06204-0.24401 0.35792-0.41967 0.92519-0.9232 1.2983-1.4711 1.09-0.29715-0.11298-0.33586-0.23085-0.35728-1.0878-0.0172-0.69014 0.11818-1.2003 0.31864-1.2003 0.1826 0 0.58495 0.41653 0.79479 0.82281 0.22026 0.42644 0.0566 1.0594-0.33129 1.2809-0.31935 0.18238-0.31977 0.18418-0.0248 0.10643 0.41827-0.11024 0.58158-0.26296 0.85563-0.80015 0.23795-0.4664 0.23795-0.46648-0.009-0.97612-0.1357-0.28032-0.24693-0.69517-0.24718-0.92188l-0.00045-0.4122-0.23783 0.39008c-0.34088 0.55908-0.67539 0.51746-0.96475-0.12003-0.57628-1.2696-0.0415-3.3628 0.68998-2.7008 0.21253 0.19234 0.21898 0.16945 0.1744-0.61942-0.0278-0.49333 0.0106-0.9254 0.0967-1.0863 0.12181-0.2276 0.10282-0.30986-0.12829-0.55587-0.14919-0.15881-0.40525-0.28874-0.56901-0.28874-0.28084 0-0.28647 0.01246-0.0991 0.2195 0.2882 0.31846 0.27395 1.5813-0.022 1.9468-0.24998 0.30872-0.42545 0.24962-0.6635-0.22346-0.20352-0.40448-0.34295-1.2534-0.19037-1.1591 0.0624 0.03855 0.0767-0.02184 0.0325-0.13703-0.0489-0.12751-0.0317-0.17668 0.0454-0.12909 0.13699 0.08466 0.61277-0.37606 0.51654-0.50019-0.033-0.04258 0.1049-0.09355 0.30646-0.11327 0.49242-0.04817 0.92192 0.30855 1.3105 1.0884 0.17204 0.34526 0.27808 0.49273 0.23564 0.32769-0.11955-0.46506-0.62722-1.2891-0.92091-1.4948-0.64411-0.45116-1.3282-0.08022-1.7752 0.96254-0.26488 0.61793-0.31876 1.0352-0.061 0.47223 0.21753-0.47507 0.21853-0.37794 0.004 0.42009-0.0975 0.36308-0.18495 0.84918-0.19441 1.0802l-0.0172 0.42009-0.0751-0.42009c-0.0413-0.23105-0.0747 0.20104-0.0743 0.9602 0.0008 1.2725 0.009 1.3194 0.0989 0.60013 0.14761-1.1753 0.19051-1.3203 0.39051-1.3203 0.46933 0 0.75346 2.1877 0.35167 2.7076-0.1712 0.22154-0.18812 0.22258-0.34469 0.02104-0.15144-0.19494-0.17051-0.18271-0.23751 0.15232-0.17252 0.86259 0.92545 2.6402 1.6308 2.6402 0.16316 0 0.44211-0.1348 0.61989-0.29956zm-1.6028-0.65271c-0.25042-0.35167-0.60832-1.2381-0.60293-1.4933 0.002-0.07422 0.13087 0.17636 0.28732 0.55683 0.15647 0.38048 0.37247 0.82607 0.48002 0.99021 0.27367 0.41766 0.14018 0.37406-0.16441-0.05372zm-0.12568-7.1347c0-0.02492 0.0945-0.11944 0.21005-0.21004 0.19036-0.1493 0.1946-0.14505 0.0453 0.04531-0.1568 0.19993-0.25536 0.26351-0.25536 0.16473zm2.6025 5.784c-0.0383-0.09575-0.0667-0.06731-0.0725 0.07252-0.006 0.12653 0.0231 0.19742 0.0631 0.15753 0.0399-0.03988 0.0442-0.14341 0.009-0.23005zm51.22-0.04608c0.37978-0.37977 0.23685-0.52557-0.44152-0.4504-0.73666 0.08163-0.90953 0.19464-0.69437 0.45389 0.19952 0.24041 0.89412 0.23828 1.1359-0.0035zm-18.835-0.301c3.7322-0.22312 4.3953-0.34926 4.9476-0.94117 0.18666-0.20005 0.50795-0.24526 2.554-0.35934 1.2873-0.07178 4.0418-0.18517 6.1213-0.252 2.0794-0.06682 4.4559-0.17311 5.2811-0.23618 0.82517-0.06307 2.4185-0.173 3.5407-0.24429 2.2441-0.14256 2.6592-0.2065 2.4832-0.38248-0.22144-0.22144-1.5442-0.2395-3.9835-0.05439-4.1368 0.31392-4.9144 0.3454-10.562 0.42759-5.3542 0.07791-5.4729 0.08486-6.0613 0.35458-0.82825 0.37968-1.9621 0.47686-6.6908 0.57344-3.5564 0.07265-4.0204 0.1036-3.8058 0.25391 0.13442 0.09415 0.38228 0.38961 0.55081 0.65657l0.30641 0.48539 1.639-0.07982c0.90145-0.04391 2.5572-0.13472 3.6794-0.20181zm-32.264-0.438c-0.0304-0.11678-0.0574-0.05029-0.0598 0.14775-0.002 0.19804 0.0225 0.29359 0.0554 0.21233s0.0349-0.2433 0.005-0.36008zm-3.2242-0.33235c-0.003-0.19298-0.0224-0.18121-0.0996 0.06001-0.13142 0.41039-0.13142 0.72594 0 0.42009 0.0567-0.13203 0.10157-0.34807 0.0996-0.4801zm2.021 0.09036c0.36373-0.87054 0.0267-2.6709-0.49992-2.6709-0.0958 0-0.25659 0.15935-0.35731 0.35412-0.20944 0.40503-0.23057 0.52956-0.0734 0.43238 0.13134-0.08117 0.23738 0.17266 0.16003 0.38306-0.0302 0.08214-0.10326 0.11946-0.16236 0.08294s-0.10745 0.15113-0.10745 0.41701c0 0.38039 0.0384 0.46869 0.18004 0.41433 0.12348-0.04739 0.18004 0.0072 0.18004 0.1738 0 0.13359-0.0549 0.26118-0.1219 0.28352-0.17469 0.05823 0.21651 0.5795 0.43489 0.5795 0.0986 0 0.26392-0.20239 0.36728-0.44975zm-0.44022-0.15037c0-0.13203 0.054-0.24005 0.12002-0.24005 0.066 0 0.12003 0.10802 0.12003 0.24005s-0.054 0.24005-0.12003 0.24005c-0.066 0-0.12002-0.10802-0.12002-0.24005zm0.24005-1.1402c0-0.09902 0.054-0.18004 0.12002-0.18004 0.066 0 0.12003 0.08102 0.12003 0.18004s-0.054 0.18004-0.12003 0.18004c-0.066 0-0.12002-0.08102-0.12002-0.18004zm-0.42679-0.81436c-0.11285-0.2941 0.0725-0.52577 0.21579-0.26971 0.0767 0.13702 0.0724 0.25048-0.0127 0.33555-0.0914 0.09136-0.15009 0.07231-0.2031-0.06583zm1.5763 1.1614c0.1217 0.0467 0.17113-0.02823 0.17208-0.26078 0.00073-0.17947 0.0259-0.54235 0.0559-0.8064 0.0478-0.42009 0.0419-0.43509-0.0471-0.12002-0.0559 0.19804-0.10813 0.29256-0.11594 0.21004-0.008-0.08252-0.16543-0.15003-0.35027-0.15003s-0.39994-0.06387-0.47801-0.14194c-0.10923-0.10923-0.11476-0.04719-0.024 0.26926 0.0649 0.22616 0.11793 0.6411 0.11793 0.9221v0.5109l0.24933-0.24933c0.13713-0.13713 0.32617-0.21984 0.42009-0.1838zm17.094 0.07306v-0.36008h-3.8812c-2.1347 0-5.5779-0.03538-7.6516-0.07862l-3.7704-0.07862-0.0173 0.31866c-0.0134 0.24647 0.041 0.32257 0.24005 0.33589 0.14155 0.0095 3.525 0.05287 7.5189 0.09642 3.9938 0.04355 7.329 0.08981 7.4116 0.1028 0.0919 0.01447 0.15003-0.11584 0.15003-0.33647zm18.239-0.27006c-0.70225-0.35412-1.0372-0.97963-0.84167-1.572 0.16024-0.48553 0.55014-0.87196 0.9899-0.98108 0.42333-0.10505 1.1286 0.13335 1.3563 0.45849 0.29374 0.41936 0.20598 0.47531-0.14966 0.09541-0.18153-0.19392-0.46509-0.39099-0.63013-0.43793-0.29523-0.08398-0.29651-0.08138-0.0799 0.16134 0.36208 0.4056 0.38778 1.096 0.0588 1.5805-0.15495 0.22825-0.41615 0.44827-0.58045 0.48893-0.27303 0.06757-0.27807 0.07995-0.0587 0.14397 0.59503 0.1736 0.95971 0.21932 0.78017 0.09783-0.15882-0.10747-0.15811-0.12205 0.006-0.12367 0.10232-0.00096 0.26175 0.06568 0.35429 0.1482 0.14098 0.12572 0.14494 0.11895 0.0244-0.04179-0.11585-0.15452-0.10116-0.23043 0.0755-0.39034 0.12065-0.10918 0.25834-0.15954 0.30598-0.1119 0.0476 0.04764 0.0476-0.01512-0.00012-0.13946-0.0495-0.12899-0.0393-0.19683 0.0237-0.15798 0.0625 0.03854 0.10745-0.2264 0.10359-0.61044-0.0118-1.1716-0.44305-1.5356-1.7655-1.4901-1.6098 0.05541-2.3686 0.43935-2.3686 1.1985 0 1.0319 1.1231 1.9214 2.456 1.9451l0.47553 0.0085-0.53554-0.27006zm-19.487-0.4c-0.0401-0.10442-0.0728-0.48979-0.0728-0.85637v-0.66652l-1.6504 0.08157c-3.7226 0.18399-9.865 0.63056-10.262 0.74608-0.13781 0.04008-0.21005 0.18099-0.21005 0.4097v0.3486l1.6504 0.03707c0.90769 0.02039 3.668 0.04892 6.1341 0.0634 4.046 0.02376 4.4767 0.0078 4.4109-0.16353zm1.2474-0.65032v-0.84018h-0.60012-0.60013v0.65032c0 0.94214 0.0575 1.03 0.67298 1.03h0.52727v-0.84018zm-13.563 0.36008c0-0.19804-0.0443-0.36008-0.0982-0.36008-0.28981 0-1.3342 0.38599-1.4624 0.54049-0.13003 0.15667-0.0397 0.17966 0.70576 0.17966h0.85488v-0.36008zm32.232 0.06547c0.59649-0.59649 0.24665-1.8803-0.46378-1.702-0.40784 0.10236-0.70592 0.55803-0.70592 1.0791 0 0.89647 0.58473 1.2078 1.1697 0.62287zm-33.745-0.054c0.20582-0.12599 0.60916-0.29155 0.89629-0.36792 0.45316-0.12052 0.51278-0.17345 0.45174-0.40106-0.0386-0.14422-0.0711-0.38374-0.0719-0.53227-0.002-0.19893-0.0727-0.27061-0.2717-0.27214-0.30056-0.0023-1.7192-0.29339-2.0296-0.41644-0.17561-0.06961-0.1864-0.02186-0.091 0.4026 0.13648 0.60742 0.58562 1.8163 0.67481 1.8163 0.037 0 0.23565-0.10308 0.44148-0.22907zm-6.28-0.75993c-0.75296-1.3342-1.0823-3.7908-0.66386-4.9523 0.0951-0.26406 0.17377-0.49152 0.17476-0.50548 0.0008-0.01395-0.2135-0.08336-0.47665-0.15422-0.31655-0.08524-0.53437-0.23554-0.64368-0.44417l-0.16522-0.31533-0.30831 0.52956c-0.44131 0.758-0.4851 1.0594-0.27295 1.8781 0.10446 0.40309 0.18827 1.2162 0.18827 1.8264v1.0999l0.5101 0.52975c0.50953 0.52914 1.9177 1.4112 1.9871 1.2447 0.0202-0.04843-0.12813-0.38007-0.32955-0.73697zm63.184 0.34227c0.41757-0.41757 0.51458-1.0994 0.23046-1.62-0.12538-0.22972-0.30072-0.44106-0.38965-0.46966-0.12757-0.04102-0.1339-0.000076-0.03001 0.19405 0.3252 0.60764-0.0905 1.6754-0.70984 1.8233-0.28882 0.06897-0.29077 0.07598-0.05866 0.21149 0.36818 0.21496 0.64357 0.17493 0.9577-0.1392zm-62.753-0.9136c-0.0326-0.16504-0.17306-0.61382-0.31218-0.99731-0.27876-0.76833-0.37098-2.223-0.20957-3.3055 0.0752-0.50435 0.0623-0.63115-0.06-0.59126-0.794 0.25886-0.73428 3.363 0.0988 5.1341 0.29882 0.63532 0.31485 0.64886 0.42634 0.36008 0.0637-0.16503 0.0892-0.43509 0.0567-0.60013zm8.6845 0.66736c1.022-0.10489 7.3016-0.52506 9.212-0.61637l1.7104-0.08175-0.002-1.0348c-0.003-1.2378-0.19419-2.6741-0.37077-2.7833-0.46467-0.28718-9.4415-0.52796-11.405-0.30591l-0.796 0.09001 0.1692 0.56208c0.19464 0.64658 0.23997 1.7493 0.10549 2.5665-0.0872 0.52973-0.0755 0.5681 0.19215 0.63004 0.15675 0.03628 1.5002 0.11585 2.9856 0.17682l2.7006 0.11086-2.9706-0.05976c-3.2715-0.06581-3.0969-0.10532-2.8934 0.65449 0.0593 0.22137 0.13636 0.26453 0.38844 0.21752 0.17296-0.03225 0.61153-0.08913 0.97461-0.1264zm53.477-0.24181c0.55914-0.55914 0.29614-1.9478-0.3077-1.6246-0.5051 0.27032-0.76126 1.114-0.52509 1.7294 0.10744 0.27997 0.49708 0.23096 0.83279-0.10475zm-58.198-0.207c-0.0383-0.09575-0.0667-0.06731-0.0725 0.07252-0.006 0.12653 0.0231 0.19742 0.0631 0.15753 0.0399-0.03988 0.0442-0.14341 0.009-0.23005zm-3.2432-0.4876c-0.0333-0.08252-0.0606-0.015-0.0606 0.15003s0.0273 0.23255 0.0606 0.15003 0.0333-0.21755 0-0.30006zm3.1232 0.0075c-0.0383-0.09575-0.0667-0.06731-0.0725 0.07251-0.006 0.12653 0.0231 0.19742 0.0631 0.15753 0.0399-0.03989 0.0442-0.14341 0.009-0.23005zm17.145-0.068c0.0373-0.18154 0.11931-0.52538 0.18232-0.76408 0.063-0.23871 0.11457-0.92187 0.11457-1.5181v-1.0841l-0.84728-0.08509c-0.46601-0.0468-0.87202-0.06036-0.90225-0.03014-0.0302 0.03023-0.0008 0.42761 0.0647 0.88308 0.0659 0.45547 0.12077 1.3007 0.12208 1.8783l0.002 1.0502h0.59784c0.55574 0 0.60261-0.02324 0.66559-0.33007zm-13.866-0.27c0-0.1925-0.08-0.24005-0.40391-0.24005-0.22534 0-0.54208-0.10869-0.71647-0.24586-0.60038-0.47226-1.6061-2.9888-1.498-3.7486 0.0339-0.23815 0.11749-0.27021 0.78804-0.30216l0.75016-0.03574v-0.82854c0-1.087 0.18975-1.9407 0.62302-2.8029 0.1942-0.386 0.3282-0.727 0.2972-0.757-0.07-0.07-5.2011-0.272-7.0176-0.277l-1.3564-0.0035-0.18631 0.44591c-0.18161 0.43465-0.43477 3.6386-0.31311 3.9627 0.0471 0.12544 0.73617 0.38963 1.0218 0.39176 0.0495 0.00036 0.29435-0.20366 0.54409-0.4534 0.6112-0.6112 1.2506-0.90541 1.742-0.80154 1.1495 0.24296 1.8603 1.2313 2.6696 3.7115 0.63519 1.9469 0.48417 1.7816 1.9158 2.0956 0.8488 0.18617 1.1402 0.15789 1.1402-0.11064zm43.149-0.12046c7.35-0.19694 9.8295-0.38819 10.276-0.79262 0.30858-0.27926 0.42562-0.97898 0.20129-1.2033-0.56541-0.56541-3.6575-0.75891-8.6173-0.53926-9.1123 0.40354-11.989 1.0076-10.945 2.2979 0.30786 0.38018 1.013 0.47573 3.0229 0.40959 0.89119-0.02933 3.6188-0.10686 6.0613-0.17231zm-43.042-0.653c0.14591-0.30585 0.14318-0.49629-0.0204-1.419-0.1717-0.9687-0.23616-1.1185-0.70782-1.645-0.50184-0.56017-0.54159-0.57961-1.209-0.59142-0.64281-0.01138-0.69015 0.0066-0.69015 0.26263 0 0.4352 0.34384 1.6451 0.6723 2.3657 0.62282 1.3664 1.5587 1.858 1.9551 1.027zm-1.4925-1.327c-0.34084-0.7707-0.49293-1.5576-0.32154-1.6635 0.18436-0.11394 0.85828 0.1632 0.98849 0.4065 0.0641 0.11975 0.0865 0.47865 0.0498 0.79755-0.15605 1.3547-0.28438 1.437-0.71668 0.45945zm16.148-0.47c0-0.35104-0.15555-0.55005-0.42991-0.55005-0.0276 0-0.05 0.39158-0.0498 0.87018l0.00048 0.87018 0.2396-0.39298c0.13175-0.21614 0.23957-0.57494 0.23957-0.79733zm24.823 0.11221c4.7273-0.37502 10.555-0.5224 12.205-0.30867 0.49092 0.0636 0.9857 0.03916 1.5544-0.07676 0.47861-0.09756 1.3299-0.15619 1.9969-0.13754 1.2588 0.0352 1.5498-0.06921 1.5498-0.55616 0-0.25583-0.02736-0.26292-0.63013-0.16334-0.88637 0.14644-1.9679 0.18677-8.9719 0.33458-3.3997 0.07174-8.1202 0.21015-10.49 0.30757s-5.7995 0.21521-7.6216 0.26175c-2.4945 0.06372-3.1499 0.10964-2.6528 0.1859 2.1025 0.32255 9.7869 0.41238 13.061 0.15267zm-24.644-1.538c0.18689-0.89325 0.55005-1.6785 0.99676-2.1551 0.35051-0.37404 0.29159-0.41236-0.22403-0.14572-0.69573 0.35978-1.1659 1.2294-1.3711 2.5357-0.0664 0.42288-0.0448 0.50705 0.14036 0.54803 0.12036 0.02663 0.23594 0.03674 0.25686 0.02246 0.021-0.01427 0.11143-0.37668 0.20112-0.80536zm-0.273-1.345c0.48053-0.89909 1.3285-1.3803 2.4322-1.3803 1.3284 0 1.9963 0.40637 2.5886 1.5748l0.34192 0.6746 2.2941 0.08805c1.2618 0.04843 2.3221 0.06004 2.3563 0.02583 0.0342-0.03422 0.004-0.17132-0.0675-0.30466-0.32166-0.60104-0.003-1.3256 0.73717-1.6785 0.67539-0.32179 2.0235-0.58332 3.5405-0.68688l1.2268-0.08374-0.37898-0.52771c-0.47267-0.6582-0.96321-1.036-1.9365-1.4915-1.6708-0.78186-3.9454-1.0079-10.16-1.0097-4.5633-0.0013-4.7567 0.0078-5.1611 0.24456-0.334 0.19552-0.42739 0.33128-0.45569 0.66244l-0.0356 0.41652 2.1961 0.20812c3.0949 0.29331 4.2965 0.46081 4.2965 0.59893 0 0.07635-0.40092 0.09125-1.1102 0.04127-2.2471-0.15834-4.3623-0.31781-4.7777-0.36018l-0.42674-0.04354-0.15427 0.83419c-0.13325 0.72045-0.12537 1.0458 0.0579 2.386 0.16947 1.2399 0.25006 1.5521 0.40098 1.5536 0.16621 0.0016 0.16727 0.0169 0.009 0.12731-0.13615 0.09488-0.0923 0.10885 0.18004 0.05729 0.19804-0.0375 0.60313-0.02547 0.90019 0.02673l0.54011 0.09491 0.18691-0.84419c0.10281-0.4643 0.27352-1.0062 0.37937-1.2043zm-2.6791 1.7505c0.14274-0.09038 0.13573-0.33485-0.0471-1.6433-0.18389-1.316-0.19302-1.6466-0.0634-2.2983 0.0832-0.41864 0.13125-0.78121 0.10677-0.8057-0.073-0.07298-10.671-0.67424-11.614-0.65891-0.26493 0.0043-0.37206 0.12758-0.70412 0.81017-0.47721 0.98095-0.6218 1.6178-0.62563 2.7555l-0.003 0.87018 1.5303 0.0012c2.61 0.002 6.9885 0.31523 10.232 0.73203 0.62713 0.08059 1.0732 0.16898 0.99121 0.19643-0.082 0.02745-0.83812-0.0345-1.6804-0.13766-3.6735-0.44997-7.6992-0.71501-9.8686-0.64972l-1.2558 0.03775 0.3556 0.38836 0.3556 0.38836 2.2805-0.12412c1.6249-0.08844 3.1948-0.08496 5.4612 0.01212 1.7494 0.07494 3.2032 0.15857 3.2307 0.18586 0.0948 0.094 1.1506 0.04575 1.3179-0.06024zm-11.484-2.8008c-0.24883-0.30273-0.22314-0.95606 0.0482-1.2275 0.14021-0.14021 0.36601-0.18441 0.81017-0.1586 0.59483 0.03456 0.62079 0.05111 0.76278 0.48606 0.0995 0.30466 0.11012 0.54726 0.033 0.75016-0.10382 0.27308-0.17733 0.29988-0.82243 0.29988-0.42096 0-0.75847-0.06088-0.83175-0.15003zm1.5238-0.19064c0.12465-0.23292 0.0553-0.69787-0.14167-0.9496-0.16226-0.20738-1.1045-0.19144-1.2813 0.02169-0.16021 0.19304-0.20694 0.80197-0.0776 1.0112 0.0468 0.07568 0.37614 0.13732 0.73371 0.13732 0.50697 0 0.67464-0.04824 0.76691-0.22065zm-1.2242 0.02625c-0.20169-0.20169-0.0474-0.28571 0.52447-0.28571 0.43439 0 0.59591 0.04322 0.56079 0.15003-0.0537 0.16328-0.94608 0.27485-1.0853 0.13568zm56.02 2.5801c0.1165-0.10711-0.25779-0.71334-0.48773-0.78998-0.10142-0.03381-0.64618 0.77533-0.64618 0.95978 0 0.0977 1.007-0.05308 1.1339-0.16979zm-26.042-0.993c-0.0829-0.35656-0.24392-0.92894-0.35785-1.2719l-0.20713-0.62364-1.0967 0.08327c-1.5772 0.11975-3.0605 0.39307-3.6346 0.66972-0.84359 0.4065-0.99036 1.3707-0.25369 1.6668 0.14907 0.0599 1.4927 0.11233 2.9858 0.11652l2.7148 0.0076-0.1507-0.6483zm4.1384 0.40745c1.3508-0.06711 2.5023-0.16837 2.5589-0.22501 0.24184-0.24184-1.7495-1.453-2.9744-1.809-0.26406-0.07675-1.2852-0.17157-2.2692-0.21071l-1.7891-0.07117 0.0836 0.28816c0.046 0.15848 0.1997 0.72295 0.3416 1.2544l0.25801 0.96621 0.66734-0.03541c0.36704-0.01948 1.7725-0.09032 3.1232-0.15744zm-42.244-0.119c0.0826-0.1544 0.0857-0.24005 0.008-0.24005-0.066 0-0.17783 0.10802-0.2485 0.24005-0.0826 0.1544-0.0857 0.24005-0.008 0.24005 0.066 0 0.17784-0.10802 0.2485-0.24005zm55.338-0.267c0.74468-0.36572 1.1275-0.89586 1.2642-1.7505 0.09192-0.57485-0.06297-0.66494-0.31941-0.18577-0.2637 0.49273-1.1527 1.1018-1.9822 1.358-0.69334 0.21415-3.0522 0.41644-6.0505 0.51886l-0.78016 0.02665 0.72015 0.20198c0.59565 0.16706 1.2182 0.19818 3.6008 0.18004 2.8733-0.02189 2.8823-0.02276 3.5471-0.34927zm-8.936-0.49c-0.1257-0.07863-0.57386-0.40299-0.99591-0.7208-0.42205-0.3178-0.8565-0.56066-0.96545-0.53968-0.18802 0.03621 0.81776 0.75376 1.7098 1.2198 0.42269 0.22084 0.58031 0.24631 0.25156 0.04065zm14.015 0.0774 1.5436-0.07872-0.06317-0.47101c-0.03474-0.25905-0.21624-0.77703-0.40331-1.1511l-0.34014-0.68005-0.74545 0.02052c-1.2616 0.03473-2.0793 0.25973-2.5104 0.69076-0.39842 0.39842-0.70172 1.2217-0.57332 1.5563 0.08505 0.22163 0.59797 0.2404 3.0922 0.1132zm-8.8626-0.64301c0.26281-0.26914 0.54384-0.4548 0.63532-0.4197 0.09022 0.03462 0.22667 0.02226 0.30323-0.02746s-0.45492-0.11741-1.1811-0.15042c-1.2989-0.05904-1.3227-0.05535-1.4725 0.2279-0.17094 0.32341-0.09869 0.49106 0.11817 0.2742 0.21909-0.21909 0.4541-0.16836 0.4541 0.09802 0 0.16003 0.08002 0.24005 0.24005 0.24005 0.13203 0 0.24005 0.05401 0.24005 0.12003 0 0.22497 0.19084 0.12053 0.66262-0.36262zm11.392 0.21259c-0.14847-0.47936-0.67219-1.4627-0.9269-1.7404-0.13625-0.14853-0.35075-0.27006-0.47665-0.27006-0.22272 0-0.22239 0.01056 0.01211 0.39008 0.13257 0.21455 0.33487 0.72765 0.44956 1.1402 0.20359 0.73241 0.21819 0.75016 0.61702 0.75016 0.36839 0 0.40029-0.02651 0.32485-0.27006zm-19.81-1.127c0.50981-0.06988 0.53927-0.09104 0.33035-0.23738-0.58045-0.40656-2.3419-1.1935-3.6064-1.6112-0.76504-0.25269-1.3263-0.463-1.2472-0.46735 0.5607-0.03082 3.6073 1.1745 4.6395 1.8355 1.0077 0.6453 1.2794 0.51676 0.37591-0.17787-2.0892-1.6063-6.2201-2.8358-12.221-3.6374-3.426-0.45763-3.8992-0.48363-4.4907-0.24681-0.65451 0.26206-0.6491 0.41823 0.0145 0.41823 0.72875 0 3.7652 0.32152 5.7725 0.61124 2.2494 0.32465 5.7726 1.042 5.6618 1.1528-0.0331 0.0331-0.53954-0.05235-1.1254-0.18989-2.719-0.63834-6.0793-1.125-9.9933-1.4473-1.2447-0.1025-1.6042-0.0809-3.6608 0.21987l-2.2805 0.33353 4.4409 0.07262c6.1398 0.10041 7.831 0.29563 9.5033 1.0971 0.94855 0.45458 1.5278 0.92184 2.0158 1.626l0.33607 0.48495 1.514 0.0089c0.8327 0.0049 1.757 0.05215 2.0541 0.105 0.71892 0.12792 1.2893 0.14226 1.9665 0.04943zm8.4157-0.28674c4.737-0.15938 4.981-0.1834 4.981-0.49013 0-0.58084-0.89795-1.7283-1.68-2.1469-0.14352-0.07681-0.23079-0.16982-0.19392-0.20668 0.08406-0.08406 0.86576 0.50404 1.3038 0.98091 0.18154 0.19762 0.33007 0.29327 0.33007 0.21254s-0.21605-0.36282-0.4801-0.62688c-0.26406-0.26406-0.43237-0.4801-0.37404-0.4801s0.29834 0.21283 0.53334 0.47295c0.37737 0.41771 0.8009 1.4168 0.8009 1.8893 0 0.21974 0.93427 0.20699 1.478-0.02017 0.23487-0.09814 0.91501-0.24489 1.5114-0.32612l1.0844-0.14768-0.26228-0.27918c-0.61416-0.65375-2.9361-1.4064-5.0936-1.651-0.31807-0.03607-0.71334-0.08413-0.87837-0.1068-0.16504-0.02267-0.6554-0.2108-1.0897-0.41806-0.78252-0.37344-2.523-0.87112-3.6213-1.0355-0.48287-0.07227-0.57012-0.05524-0.57012 0.11131 0 0.34825-0.56584 0.45785-1.6316 0.31602-1.146-0.1525-2.3099-0.43999-2.5339-0.62585-0.30562-0.25364 0.0649-0.45968 0.82655-0.45968 0.3919 0 0.68268-0.04831 0.64619-0.10736-0.23337-0.37761-5.8291-4.2786-5.8291-4.0637 0 0.0272 0.25656 0.23144 0.57012 0.45385 0.31357 0.22242 1.5417 1.1093 2.7291 1.9708l2.159 1.5664-4.7395 0.07286c-2.6067 0.04007-5.3066 0.1093-5.9998 0.15383-0.69315 0.04453-2.2865 0.10486-3.5408 0.13407-2.5758 0.05998-4.0093 0.17312-3.7656 0.29719 0.17608 0.08964 2.8456 0.39964 3.6456 0.42334 1.2266 0.03634 1.5106 0.06532 1.4603 0.14897-0.075 0.12459 3.6032 0.17007 4.1209 0.05095l0.42008-0.09666-0.39897-0.20988c-0.22-0.114-0.787-0.31-1.261-0.434-0.473-0.124-0.726-0.227-0.561-0.229 0.16503-0.0017 0.73215 0.14388 1.2603 0.32346 1.7244 0.58638 1.0747 0.92952-1.5603 0.82402l-1.5603-0.06248 1.3803 0.28061c4.3219 0.87862 7.0294 1.8769 8.6555 3.1911l0.76645 0.61948 1.6203-0.07178c0.89119-0.03948 3.2947-0.12812 5.3411-0.19698zm-18.064-4.23c-0.86533-0.23635-0.64412-0.38452 0.62991-0.42192 1.1836-0.03474 1.8045 0.10844 1.5545 0.35847-0.18785 0.18785-1.5808 0.22832-2.1844 0.06345zm-2.102-0.09002c-0.0834-0.13496 0.64831-0.4825 0.98791-0.46922 0.11765 0.0046-0.0562 0.09241-0.38623 0.19514-0.49948 0.15545-0.55987 0.20296-0.36007 0.28327 0.19383 0.07791 0.20097 0.09811 0.0371 0.10493-0.11163 0.0046-0.23705-0.04671-0.2787-0.1141zm-6.4523 3.4107c-0.0399-0.03988-0.14341-0.04415-0.23005-0.0095-0.0958 0.03831-0.0673 0.06676 0.0725 0.07251 0.12653 0.0052 0.19742-0.02316 0.15754-0.06304zm36.422-0.08158c-0.07034-0.08475-0.36051-0.27764-0.64483-0.42863l-0.51694-0.27454 0.4801 0.42684c0.46498 0.4134 0.96297 0.61526 0.68167 0.27632zm-38.491-0.149c-2.058-0.23676-3.4897-0.33222-3.3871-0.22583 0.0986 0.10224 3.0829 0.3763 4.1072 0.37719 0.33753 0.00024 0.0224-0.06594-0.72015-0.15137zm-3.6608-0.28391c-0.099-0.05531-0.74716-0.13464-1.4403-0.17629-3.3598-0.20187-7.6766-0.43633-9.242-0.50196-0.9572-0.04013-2.4425-0.11864-3.3007-0.17446l-1.5603-0.10149 1.766 0.03827 1.766 0.03826 0.27254-0.43744c0.14989-0.24059 0.28875-0.47002 0.30858-0.50985 0.0198-0.03983-0.40911-0.10954-0.95318-0.15492-0.54408-0.04538-1.0079-0.10118-1.0307-0.12401-0.10396-0.10396 0.4125-1.8432 0.74352-2.5038 0.31099-0.6207 0.53526-0.86127 1.4482-1.5534 1.2654-0.95936 2.7582-1.7575 4.0208-2.1498 0.71014-0.22061 1.1789-0.28002 2.2205-0.28136 1.2416-0.0016 1.3587 0.01957 1.9648 0.35529 0.3545 0.19635 0.77543 0.52858 0.93539 0.7383s0.77053 1.6154 1.3568 3.1237l1.066 2.7424 0.8192 0.03174c0.45055 0.01746 0.76107-0.0095 0.69004-0.06001-0.11876-0.08437-2.9318-6.4697-2.9316-6.6545 0.00012-0.16788 1.3022-0.55928 2.4606-0.73967 2.7067-0.42149 4.1851-0.49881 9.542-0.49901 2.9376-0.00011 5.6922 0.0346 6.1213 0.07714l0.78017 0.07734-0.66014-0.1638c-0.36308-0.09009-1.4163-0.25957-2.3405-0.37661-2.4721-0.31308-14.409-0.3171-16.574-0.0056-5.8194 0.83734-9.0117 2.2687-12.8 5.7393-1.2444 1.1401-1.9623 1.7134-2.2993 1.8362-0.1246 0.04539-0.69173 0.1849-1.2603 0.31004-0.56854 0.12513-1.2768 0.33376-1.5738 0.46361-0.50425 0.22041-0.52019 0.24087-0.24005 0.30807 0.16504 0.03958 1.2183 0.12302 2.3405 0.1854l2.0404 0.11342-2.1004-0.06539c-1.1552-0.03597-2.261-0.07262-2.4572-0.08145-0.23973-0.01079-0.36945 0.04692-0.3954 0.17593-0.0343 0.17068 0.33175 0.20153 3.2974 0.27793 1.8348 0.04727 3.9031 0.1093 4.5963 0.13787 2.4434 0.10069 8.8379 0.43112 10.142 0.52409 1.8757 0.1337 2.6751 0.14037 2.4605 0.02052zm0.12919-1.0434c0.0786-0.09475-0.52551-0.15525-2.1403-0.21431-1.2374-0.04526-3.4381-0.1671-4.8904-0.27076s-3.0423-0.19647-3.5334-0.20626l-0.89279-0.0178-0.28653 0.42009-0.28652 0.42009 1.1793 0.08585c0.64862 0.04722 3.2858 0.20195 5.8603 0.34385s4.708 0.28397 4.741 0.3157c0.0331 0.03173 0.0779-0.12278 0.0998-0.34337s0.0891-0.46048 0.14939-0.53309zm-19.436-1.483c0.42-0.19406 0.96719-0.3893 1.216-0.43387 0.45138-0.08086 0.45209-0.08033 0.32935 0.2425-0.12104 0.31837-0.11676 0.32218 0.26779 0.23854 0.637-0.13855 0.95011-0.28631 0.87257-0.41178-0.14454-0.23386 0.17861-0.60283 0.52797-0.60283 0.18764 0 0.41095-0.08409 0.49624-0.18687 0.16861-0.20316-0.12793-0.1916-1.9261 0.07502-1.6625 0.2465-3.0762 0.89846-2.8261 1.3032 0.11444 0.18517 0.19368 0.16815 1.0422-0.22393zm49.044-0.08289c0.29467-0.07897 0.35809-0.33499 0.12003-0.48452-0.08252-0.05183-0.78467-0.08053-1.5603-0.06376-0.82642 0.01786-1.4103-0.01645-1.4103-0.08288 0-0.06235 0.0675-0.1406 0.15003-0.1739 0.0825-0.0333-0.10334-0.06481-0.41301-0.07002-1.2148-0.02044-0.51778 0.44503 1.0431 0.69666 1.6545 0.26671 1.72 0.27235 2.0704 0.17842zm-45.88-0.524c0.0408-0.06601 0.017-0.12002-0.0529-0.12002s-0.12711 0.05401-0.12711 0.12002 0.0238 0.12003 0.0529 0.12003 0.0863-0.05401 0.12711-0.12003zm21.731-0.767c0.073-0.14852 1.4771-1.9015 1.9942-2.4897 0.52436-0.59648 0.69995-0.88755 0.69995-1.1602 0-0.25445 0.0993-0.44177 0.33006-0.62237l0.33007-0.25836-2.9614 0.06675c-2.7293 0.06152-4.7628 0.20754-5.6953 0.40898l-0.37489 0.08098 0.71132 1.8604 0.71133 1.8604 1.2239 0.00024c0.92234 0.00012 1.3126 0.04983 1.584 0.20163 0.25707 0.14381 0.51459 0.18183 0.90019 0.13292 0.29706-0.03768 0.54301-0.0744 0.54656-0.0816zm-16.039-0.463c0.0576-0.14853 0.21889-0.55699 0.35831-0.90769l0.25349-0.63763-0.36831 0.21754c-0.45056 0.26613-1.2608 1.0333-1.4349 1.3586-0.12005 0.22431-0.0901 0.23923 0.47929 0.23923 0.51873 0 0.6226-0.03939 0.71213-0.27006zm5.1296-0.19952c0.22973-0.60862 0.75731-0.79069 2.2912-0.79069 0.74266 0 1.3503-0.0417 1.3503-0.09265 0-0.28845-0.74492-1.6413-1.0725-1.9478-0.36798-0.34426-0.43063-0.35979-1.4266-0.3536-2.0696 0.01287-2.9851 0.4696-3.6709 1.8314-0.22677 0.4503-0.44963 1.0177-0.49524 1.2608l-0.0829 0.44208h1.4874 1.4874l0.13194-0.34955zm21.748 0.12191c0.80206-0.57112 2.0571-0.59585 3.1107-0.0613 0.52509 0.26642 0.7043 0.28798 2.3979 0.28844 1.7648 0.000481 1.8304-0.0083 1.8304-0.24528 0-0.13518-0.12999-0.36473-0.28887-0.51011-0.57392-0.52516-3.3544-2.1761-4.3718-2.5957l-1.0406-0.42922-2.4966-0.03876-2.4966-0.03877 0.7717 1.119c0.42444 0.61544 0.94295 1.4431 1.1522 1.8391 0.28406 0.53753 0.46276 0.73938 0.70471 0.79597 0.1783 0.0417 0.34283 0.08221 0.36566 0.09002 0.0228 0.0078 0.18534-0.08824 0.36117-0.21344zm2.4779 0.10762c-0.33034-0.14196-1.4007-0.14196-1.6203 0-0.12359 0.07987 0.13979 0.11428 0.84018 0.10975 0.68021-0.0044 0.94021-0.04098 0.78016-0.10975zm-6.249-1.69c-0.1793-0.25873-0.35916-0.47042-0.3997-0.47042-0.0406 0.000003-0.22005 0.18344-0.39894 0.40764l-0.32525 0.40763 0.4067 0.0763c0.22369 0.04196 0.53209 0.1786 0.68533 0.30363 0.27431 0.22382 0.27924 0.22362 0.31824-0.01351 0.0218-0.13246-0.10708-0.45253-0.28638-0.71127z"/>
 </g>
</svg>
