<?xml version="1.0" encoding="UTF-8" standalone="no"?>
<!-- Created with Inkscape (http://www.inkscape.org/) -->
<svg id="svg2" xmlns:rdf="http://www.w3.org/1999/02/22-rdf-syntax-ns#" xmlns="http://www.w3.org/2000/svg" height="54" width="99" version="1.1" xmlns:cc="http://creativecommons.org/ns#" xmlns:dc="http://purl.org/dc/elements/1.1/">
 <metadata id="metadata7">
  <rdf:RDF>
   <cc:Work rdf:about="">
    <dc:format>image/svg+xml</dc:format>
    <dc:type rdf:resource="http://purl.org/dc/dcmitype/StillImage"/>
    <dc:title/>
   </cc:Work>
  </rdf:RDF>
 </metadata>
 <g id="g3491">
  <g id="g3871">
   <g id="g4614">
    <g id="g5219">
     <g id="g5689">
      <g id="g6406">
       <g id="g7263">
        <g id="g8053">
         <g id="g8717">
          <g id="g9406">
           <g id="g9898">
            <g id="g10207">
             <g id="g10407">
              <g id="g10743">
               <g id="g11282">
                <g id="g15079">
                 <g id="g15585">
                  <g id="g16769">
                   <g id="g17492">
                    <g id="g17976">
                     <g id="g18386">
                      <g id="g19746">
                       <g id="g20846">
                        <g id="g21376">
                         <g id="g21705">
                          <g id="g22212">
                           <g id="g26871">
                            <g id="g28064">
                             <g id="g28748">
                              <g id="g29219">
                               <g id="g29819">
                                <g id="g30460">
                                 <g id="g30889">
                                  <g id="g31297">
                                   <g id="g32232">
                                    <g id="g32638">
                                     <g id="g32923">
                                      <g id="g33249">
                                       <rect id="rect2990" opacity="0" height="54" width="99" y="0" x="0"/>
                                       <g id="layer1" transform="translate(268.06997,8.0264492)">
                                        <g id="logo38" transform="matrix(0.17368597,0,0,0.17368597,-263.57007,3.236493)">
                                         <g id="g95367">
                                          <path id="path95369" d="m489.46,148.64c4.126,3.153,18.381-4.498,21.107-6.134,2.966-1.779-1.186-4.448-0.296-6.821s5.338-7.414,4.745-8.897c3.262-10.083,2.373-15.421,2.076-20.463s-5.042-7.711-5.338-10.676c-0.297-2.966,0-15.125,0-19.277s-3.855-6.821-10.083-8.897c-6.24-2.079-15.14-4.155-30.26-10.679s-36.18-25.504-52.2-36.181c-16.01-10.677-40.92-19.87-107.94-19.87-67.024,0-83.928,4.745-98.756,9.194-14.828,4.448-74.438,39.74-79.331,42.854s-81.11,14.977-81.11,14.977-25.208,3.854-32.177,10.082-9.935,16.904-7.859,18.239c-3.855,1.928-9.342,5.783-10.677,8.304-1.334,2.521-0.148,10.676,0.297,14.977s1.038,6.376,3.855,8.304,7.118,5.783,7.266,7.711c0.055,0.717,0.008,1.476,0.217,2.207l0.08,0.314c0.523,0.628,1.526,1.071,3.243,1.369,3.15,0.546,8.704,0.603,18.11,0.411,13.948-0.284,99.349,0,119.22-0.593,19.87-0.593,29.063,0,36.774,1.186,7.71,1.187,26.098,3.855,32.918,4.449,6.821,0.593,7.711-1.483,7.414-4.152-0.296-2.669-2.373-5.635,0-8.007,0,0,3.855-6.524,1.779-8.007,3.559-11.27,10.083-49.526,39.146-49.526s32.919,38.85,32.919,48.637-1.187,13.049-3.262,19.573c-2.076,6.524-0.297,9.49,6.524,8.897s66.134-2.076,83.631-2.076c17.498,0,43.002,1.779,47.451,2.076,4.448,0.296,7.71,0,7.117-2.373s-1.779-5.338-0.593-8.897,3.855-10.676,1.779-10.676c4.152-26.395,12.456-43.002,25.504-43.002s18.684,17.498,18.684,17.498c2.669,1.779,1.186,25.801,1.186,25.801s0.89,1.779,0,3.559c-0.754,1.509-2.576,11.338-3.111,14.289l-0.053,0.293z" fill="#FFF"/>
                                         </g>
                                         <path id="path95371" d="m230.76,132.57c-2.373,2.373-0.296,5.338,0,8.007,0.297,2.669-0.593,4.745-7.414,4.152s-25.208-3.262-32.918-4.449c-7.711-1.186-16.904-1.779-36.774-1.186s-105.27,0.309-119.22,0.593c-14.532,0.297-19.87,0-21.353-1.779,0,0,0.297,4.449,11.566,5.932,11.269,1.482,18.091,2.965,18.091,2.965s10.973,32.326,36.774,32.326h14.235c21.649,0,36.478-23.429,36.478-23.429l10.38,0.297c2.076,0.296,5.042-2.076,5.042-2.076s5.042,1.187,10.379,1.483c5.338,0.296,43.595-0.593,58.423-1.483,0,0,12.752,27.284,37.664,27.284h14.532c13.049,0.297,18.98-10.973,18.98-10.973s5.338,4.152,12.752,4.152h12.159c15.125-0.296,19.277-20.463,19.277-20.463l45.374-1.186,15.718-0.89,39.443,2.373s5.042,23.429,24.615,23.429h12.456c16.904,0,20.463-29.656,20.463-29.656l1.483,1.186s2.372-13.345,3.262-15.125,0-3.559,0-3.559,1.483-24.021-1.186-25.801c0,0-5.635-17.498-18.684-17.498s-21.353,16.607-25.504,43.002c2.076,0-0.593,7.118-1.779,10.676-1.187,3.559,0,6.524,0.593,8.897s-2.669,2.669-7.117,2.373c-4.449-0.297-29.953-2.076-47.451-2.076-17.497,0-76.81,1.483-83.631,2.076s-8.601-2.373-6.524-8.897c2.076-6.524,3.262-9.787,3.262-19.573s-3.855-48.637-32.919-48.637c-29.063,0-35.587,38.257-39.146,49.526,2.073,1.483-1.782,8.007-1.782,8.007z"/>
                                         <path id="path95373" d="m243.81,97.875h-38.85c-5.042,0-8.6,3.262-3.559,3.262h41.223l1.186-3.262z"/>
                                         <polygon id="polygon95375" points="455.4,103.21,301.93,100.25,303.42,103.51,454.07,106.18"/>
                                         <polygon id="polygon95377" points="491.73,108.85,490.84,105.59,516.94,105.59,517.39,108.85"/>
                                         <path id="path95379" d="m318.1,51.611s-5.19,6.97,6.08,7.859c11.27,0.89,18.832,1.187,23.577-0.593,4.745-1.779,3.559-8.156,0.297-10.676-3.262-2.521-9.639-4.745-19.277-5.635-5.243-0.484-9.045,5.338-9.045,5.338l19.56-29.212c4.745-6.969,9.342-8.452,19.425-8.452s36.625,2.076,45.819,8.007c9.193,5.931,37.201,25.133,44.04,33.957,4.597,5.931,3.855,6.673,3.262,9.49s-3.262,4.152-8.155,3.855c-11.714-0.148-30.991-1.483-54.865-1.928s-56.347-1.087-65.541-1.187c-13.789-0.147-5.189-10.823-5.189-10.823z"/>
                                         <path id="path95381" d="m309.2,49.98c3.262-2.966,20.314-27.729,25.504-35.588s9.342-9.638,21.797-8.749c12.456,0.89,33.362,2.822,43.299,6.524,15.125,5.635,29.36,14.68,39.443,22.835,0,0-25.06-19.425-37.96-23.577s-31.73-6.525-47.3-7.118-17.79,4.597-17.79,4.597c-8.9-2.224-36.48-3.411-69.1-1.928-32.622,1.483-57.671,4.771-60.499,5.931-11.566,4.745-60.203,30.694-73.4,39.888,28.916-4.149,135.23-6.819,176.01-2.815z"/>
                                         <path id="path95383" d="m129.3,117.45c1.657,0,3-1.343,3-3v-4.083c0-1.657-1.343-3-3-3h-22.322c-1.657,0-3,1.343-3,3l1.334,4.825c0,1.657,1.343,3,3,3l20.99-0.75z" stroke="#000" stroke-width="0.5" fill="#FFF"/>
                                         <path id="path95385" d="m47.892,119.08c1.657,0,3-1.343,3-3l-0.445-4.528c0-1.657-1.343-3-3-3h-13.87c-1.657,0-3,1.343-3,3l0.445,4.528c0,1.657,1.343,3,3,3h13.87z" stroke="#000" stroke-width="0.5" fill="#FFF"/>
                                         <path id="path95387" d="m17.973,140.73c-5.635-1.186-5.042-3.41-5.19-5.338-0.148-1.93-4.449-5.78-7.266-7.71s-3.41-4-3.855-8.3-1.631-12.46-0.297-14.98c1.335-2.52,6.821-6.377,10.677-8.305-2.076-1.334,0.89-12.011,7.859-18.239s32.177-10.083,32.177-10.083,76.217-11.863,81.11-14.977c4.894-3.114,64.503-38.405,79.331-42.854,14.829-4.449,31.732-9.194,98.756-9.194,67.023,0,91.935,9.194,107.95,19.87,16.014,10.676,37.07,29.656,52.195,36.181s24.021,8.601,30.25,10.676c6.228,2.076,10.083,4.745,10.083,8.897s-0.297,16.311,0,19.277c0.296,2.965,5.042,5.635,5.338,10.676s1.186,10.38-2.076,20.463c0.593,1.483-3.855,6.524-4.745,8.897s3.262,5.042,0.296,6.821c-2.966,1.78-19.573,10.677-21.946,5.042" stroke="#000" stroke-width="1.5" fill="none"/>
                                         <g id="g95389">
                                          <path id="path95391" d="m416.25,80.823c0.414,0,0.75-0.336,0.75-0.75v-2.652c0-0.415-0.336-0.75-0.75-0.75h-10.956c-0.414,0-0.75,0.335-0.75,0.75v2.652c0,0.414,0.335,0.75,0.75,0.75h10.956z"/>
                                          <path id="path95393" d="M410.77,78.747"/>
                                         </g>
                                         <path id="path95395" d="m405.44,79.785v2.224s-0.297,1.334,1.186,1.334h7.118c1.483,0,1.483-1.334,1.483-1.334v-2.224" stroke="#000" stroke-width="0.5" fill="none"/>
                                         <g id="g95397" stroke="#000" fill="#FFF">
                                          <path id="path95399" d="m170.98,134.65c0.829,0,1.5-0.671,1.5-1.5v-5.897c0-0.828-0.671-1.5-1.5-1.5h-16.57c-0.829,0-1.5,0.672-1.5,1.5v5.897c0,0.829,0.671,1.5,1.5,1.5h16.573z"/>
                                          <path id="path95401" d="M162.7,130.2"/>
                                         </g>
                                         <g id="g95403" stroke="#000" fill="#FFF">
                                          <path id="path95405" d="m27.149,135.84c0.828,0,1.5-0.672,1.5-1.5v-4.711c0-0.828-0.672-1.5-1.5-1.5h-10.642c-0.828,0-1.5,0.672-1.5,1.5v4.711c0,0.828,0.672,1.5,1.5,1.5h10.642z"/>
                                          <path id="path95407" d="M21.828,131.98"/>
                                         </g>
                                         <path id="path95409" d="M17.973,93.13c1.186-6.821,8.007-13.345,8.007-13.345l23.132-0.296c5.338,0,8.007,0.89,9.49,5.042s1.483,7.71,1.483,7.71-37.664,0.296-42.112,0.889z" fill="#FFF" stroke="#000"/>
                                         <path id="path95411" d="m17.973,93.13c0-5.486,8.007-13.345,8.007-13.345l-7.933,0.445c-4.597,4.745-6.154,11.789-6.154,13.271l6.08-0.371z" fill="#FFF" stroke="#000"/>
                                         <path id="path95413" d="m176.71,75.336s-5.338,11.418-5.338,15.125c0,0,13.494,0.296,20.166,0.296,6.673,0,16.756,0.297,16.756,0.297s-3.262-8.897-4.152-11.566-1.631-4.449-8.155-4.449-19.277,0.297-19.277,0.297z" fill="#FFF" stroke="#000"/>
                                         <path id="path95415" d="m176.71,75.336s-5.338,11.27-5.338,15.125l-59.165,0.742s3.559-4.894,5.635-7.266c2.076-2.373,4.152-6.673,18.684-7.563s40.184-1.038,40.184-1.038z" fill="#FFF" stroke="#000"/>
                                         <g id="g95417">
                                          <path id="path95419" d="m148.74,133.17c0.787,0,1.425-0.638,1.425-1.425l-2.395-4.475c0-0.787-0.638-1.425-1.425-1.425h-10.109c-0.787,0-1.425,0.638-1.425,1.425l2.395,4.475c0,0.787,0.638,1.425,1.425,1.425h10.109z"/>
                                         </g>
                                         <g id="g95421">
                                          <path id="path95423" d="m133.81,133.17c0.787,0,1.425-0.638,1.425-1.425l-2.395-4.475c0-0.787-0.638-1.425-1.425-1.425h-10.11c-0.787,0-1.425,0.638-1.425,1.425l2.395,4.475c0,0.787,0.638,1.425,1.425,1.425h10.11z"/>
                                         </g>
                                         <g id="g95425">
                                          <path id="path95427" d="m118.88,133.17c0.787,0,1.425-0.638,1.425-1.425l-2.395-4.475c0-0.787-0.638-1.425-1.425-1.425h-10.11c-0.787,0-1.425,0.638-1.425,1.425l2.395,4.475c0,0.787,0.638,1.425,1.425,1.425h10.11z"/>
                                         </g>
                                         <g id="g95429">
                                          <path id="path95431" d="m103.94,133.17c0.787,0,1.425-0.638,1.425-1.425l-2.395-4.475c0-0.787-0.638-1.425-1.425-1.425h-10.1c-0.787,0-1.425,0.638-1.425,1.425l2.395,4.475c0,0.787,0.638,1.425,1.425,1.425h10.11z"/>
                                         </g>
                                         <g id="g95433">
                                          <path id="path95435" d="m89.013,133.17c0.787,0,1.425-0.638,1.425-1.425l-2.395-4.475c0-0.787-0.638-1.425-1.425-1.425h-10.11c-0.787,0-1.425,0.638-1.425,1.425l2.395,4.475c0,0.787,0.638,1.425,1.425,1.425h10.11z"/>
                                         </g>
                                         <g id="g95437">
                                          <path id="path95439" d="m74.081,133.17c0.787,0,1.425-0.638,1.425-1.425l-2.395-4.475c0-0.787-0.638-1.425-1.425-1.425h-10.11c-0.787,0-1.425,0.638-1.425,1.425l2.395,4.475c0,0.787,0.638,1.425,1.425,1.425h10.11z"/>
                                         </g>
                                         <g id="g95441">
                                          <path id="path95443" d="m59.149,133.17c0.787,0,1.425-0.638,1.425-1.425l-2.395-4.475c0-0.787-0.638-1.425-1.425-1.425h-10.11c-0.787,0-1.425,0.638-1.425,1.425l2.395,4.475c0,0.787,0.638,1.425,1.425,1.425h10.11z"/>
                                         </g>
                                         <g id="g95445">
                                          <path id="path95447" d="m44.217,133.17c0.787,0,1.425-0.638,1.425-1.425l-2.395-4.475c0-0.787-0.638-1.425-1.425-1.425h-10.11c-0.787,0-1.425,0.638-1.425,1.425l2.395,4.475c0,0.787,0.638,1.425,1.425,1.425h10.11z"/>
                                         </g>
                                         <path id="path95449" d="m163.96,48.349c12.901-0.445,45.523-2.372,68.506-2.224,0,0,9.342-18.684,10.38-20.759,1.038-2.076,0.296-2.669-1.779-2.966-0.881-0.126-10.38-0.759-16.904-0.445-12.308,0.593-35.143,10.379-60.203,26.394z" fill="#FFF"/>
                                         <path id="path95451" d="m261.97,27.886-5.931,11.121c2.965-1.928,5.486-2.965,10.825-2.817-0.149-2.669-4.894-8.304-4.894-8.304z" fill="#FFF"/>
                                         <path id="path95453" d="m307.94,44.049c2.669-2.373,11.862-15.57,13.938-18.832-6.228,0.89-17.794,1.334-27.136,1.038,4.449,3.855,11.122,12.9,13.198,17.794z" fill="#FFF"/>
                                         <path id="path95455" d="m326.77,41.676c2.373-0.742,5.338,0,6.228,0.296,0,0,0.204-5.258,1.928-6.228,2.373-1.334,4.003-1.334,5.635-1.334,1.631,0,15.569,0.148,19.425,0.297,3.855,0.148,5.486,3.262,5.486,6.524s-0.89,9.49-0.89,9.49l20.76-0.148c0.89-2.373,1.631-2.373,7.117-2.373,0,0-1.038-3.114-1.482-4.3s0.445-3.855,0.445-3.855-6.969-16.756-9.935-18.239c0,0-31.584,0.445-42.557,2.076l-12.16,17.794z" fill="#FFF"/>
                                         <path id="path95457" d="m398.69,22.696s10.825,17.349,13.197,25.801c0,0,7.414-0.148,10.231-0.148s3.559,2.521,3.559,2.521h3.855s0.445-3.707,3.411-4.745c-7.118-7.118-24.763-20.759-30.694-23.28l-3.559-0.149z" fill="#FFF"/>
                                         <g id="g95459">
                                          <path id="path95461" d="M264.51,132.13" stroke="#FFF" stroke-dasharray="1, 1" stroke-width="0.5"/>
                                          <g id="g95463" fill="#FFF">
                                           <ellipse id="ellipse95465" d="m 290.41101,132.13 c 0,17.61016 -11.59627,31.886 -25.901,31.886 -14.30473,0 -25.901,-14.27584 -25.901,-31.886 0,-17.61015 11.59627,-31.88599 25.901,-31.88599 14.30473,0 25.901,14.27584 25.901,31.88599 z" cx="264.51" rx="25.901" cy="132.13" ry="31.886"/>
                                           <path id="path95467" d="M264.51,132.13"/>
                                          </g>
                                          <path id="path95469" d="M264.51,132.13"/>
                                          <g id="g95471" stroke-width="0.5" stroke="#000" fill="none">
                                           <ellipse id="ellipse95473" d="m 288.49801,132.13 c 0,16.30897 -10.73979,29.53001 -23.988,29.53001 -13.24821,0 -23.988,-13.22104 -23.988,-29.53001 0,-16.30896 10.73979,-29.53 23.988,-29.53 13.24821,0 23.988,13.22104 23.988,29.53 z" cx="264.51" rx="23.988" cy="132.13" ry="29.53"/>
                                           <path id="path95475" d="M264.51,132.13"/>
                                          </g>
                                          <g id="g95477" stroke-width="0.5" stroke="#000" fill="none">
                                           <ellipse id="ellipse95479" d="m 272.95101,132.13 c 0,5.73824 -3.77916,10.39001 -8.441,10.39001 -4.66184,0 -8.441,-4.65177 -8.441,-10.39001 0,-5.73823 3.77916,-10.39 8.441,-10.39 4.66184,0 8.441,4.65177 8.441,10.39 z" cx="264.51" rx="8.441" cy="132.13" ry="10.39"/>
                                           <path id="path95481" d="M264.51,132.13"/>
                                          </g>
                                          <path id="path95483" d="m271.91,155.89c-2.297,1.084-4.791,1.678-7.398,1.678-2.345,0-4.679-0.234-6.701-1.367-2.141-1.199-1.419-2.976,0.566-5.198,1.985-2.221,8.508-5.783,10.634-7.003,2.126-1.221,1.724,4.658,2.177,7.447,0.722,4.443,0.722,4.443,0.722,4.443z"/>
                                          <path id="path95485" d="m269.85,107.7c2.376,0.785,4.677,2.109,6.786,3.996,1.897,1.697,3.673,3.575,4.768,5.954,1.16,2.52-0.272,3.435-2.939,3.795s-9.588-1.479-11.891-2.03,0.773-5.015,1.739-7.599c1.537-4.116,1.537-4.116,1.537-4.116z"/>
                                          <path id="path95487" d="m247.23,118.4c1.341-2.539,3.075-4.824,5.184-6.71,1.897-1.697,3.897-3.196,6.074-3.743,2.304-0.579,2.569,1.381,2.023,4.614-0.545,3.233-4.077,10.794-5.215,13.319-1.137,2.526-3.663-2.479-5.362-4.409-2.69-3.07-2.69-3.07-2.69-3.07z"/>
                                          <path id="path95489" d="m285.1,130.88c0.127,3.024-0.184,6.128-0.99,9.18-0.725,2.746-1.627,5.406-3.126,7.423-1.588,2.136-2.738,0.742-3.841-2.269-1.103-3.01-1.81-11.724-2.096-14.59s4.159-0.595,6.398-0.272c3.655,0.528,3.655,0.528,3.655,0.528z"/>
                                          <path id="path95491" d="m248.5,148.18c-1.547-2.354-2.777-5.091-3.582-8.143-0.725-2.746-1.265-5.55-1.015-8.268,0.265-2.877,1.861-2.581,4.19-0.943,2.33,1.638,7.107,8.134,8.707,10.246s-3.076,3.499-5.091,4.891c-3.209,2.217-3.209,2.217-3.209,2.217z"/>
                                          <g id="g95493" stroke-width="0.5" stroke="#FFF" fill="none">
                                           <ellipse id="ellipse95495" d="m 281.39101,132.13 c 0,11.47703 -7.55788,20.78101 -16.881,20.78101 -9.32312,0 -16.881,-9.30398 -16.881,-20.78101 0,-11.47702 7.55788,-20.781 16.881,-20.781 9.32312,0 16.881,9.30398 16.881,20.781 z" cx="264.51" rx="16.881" cy="132.13" ry="20.781"/>
                                           <path id="path95497" d="M264.51,132.13"/>
                                          </g>
                                         </g>
                                         <g id="g95499">
                                          <path id="path95501" d="M469.56,137.31" stroke="#FFF" stroke-dasharray="1, 1" stroke-width="0.5"/>
                                          <g id="g95503" fill="#FFF">
                                           <path id="path95505" d="m470.62,164.46c7.504-0.326,13.113-12.743,12.529-27.733-0.584-14.989-7.141-26.877-14.644-26.551s-13.113,12.743-12.529,27.733,7.141,26.877,14.644,26.551z"/>
                                           <path id="path95507" d="M469.56,137.31"/>
                                          </g>
                                          <path id="path95509" d="M469.56,137.31"/>
                                          <g id="g95511" stroke-width="0.5" stroke="#000" fill="none">
                                           <path id="path95513" d="m470.54,162.45c6.949-0.302,12.144-11.801,11.604-25.684-0.541-13.882-6.613-24.892-13.562-24.589-6.949,0.302-12.144,11.801-11.603,25.684,0.54,13.882,6.612,24.891,13.561,24.589z"/>
                                           <path id="path95515" d="M469.56,137.31"/>
                                          </g>
                                          <g id="g95517" stroke-width="0.5" stroke="#000" fill="none">
                                           <path id="path95519" d="m469.91,146.16c2.445-0.106,4.273-4.153,4.083-9.038-0.19-4.884-2.327-8.758-4.772-8.652s-4.273,4.153-4.083,9.037c0.19,4.885,2.326,8.759,4.772,8.653z"/>
                                           <path id="path95521" d="M469.56,137.31"/>
                                          </g>
                                          <path id="path95523" d="m474.23,157.38c-1.168,0.975-2.457,1.538-3.825,1.597-1.23,0.054-2.462-0.093-3.56-1.011-1.163-0.972-0.843-2.5,0.125-4.437,0.967-1.936,4.271-5.117,5.346-6.204s1.059,3.926,1.389,6.29c0.525,3.765,0.525,3.765,0.525,3.765z"/>
                                          <path id="path95525" d="m471.56,116.4c1.272,0.614,2.523,1.688,3.692,3.246,1.052,1.401,2.045,2.96,2.699,4.96,0.691,2.118-0.029,2.93-1.416,3.298s-5.079-1.041-6.305-1.457,0.239-4.287,0.66-6.509c0.67-3.538,0.67-3.538,0.67-3.538z"/>
                                          <path id="path95527" d="m460.05,126.02c0.619-2.192,1.453-4.177,2.497-5.831,0.939-1.488,1.938-2.809,3.062-3.324,1.19-0.545,1.394,1.117,1.215,3.881s-1.781,9.281-2.294,11.457-2.004-2.027-2.958-3.63c-1.522-2.553-1.522-2.553-1.522-2.553z"/>
                                          <path id="path95529" d="m480.32,135.78c0.167,2.571,0.106,5.22-0.215,7.837-0.289,2.354-0.674,4.638-1.394,6.39-0.762,1.854-1.412,0.694-2.089-1.843-0.679-2.538-1.338-9.938-1.583-12.372-0.245-2.433,2.162-0.602,3.347-0.377,1.934,0.365,1.934,0.365,1.934,0.365z"/>
                                          <path id="path95531" d="m461.7,151.35c-0.89-1.969-1.625-4.271-2.149-6.85-0.471-2.321-0.847-4.696-0.806-7.015,0.043-2.455,0.89-2.239,2.167-0.899,1.276,1.341,3.998,6.762,4.907,8.523s-1.498,3.048-2.508,4.279c-1.611,1.962-1.611,1.962-1.611,1.962z"/>
                                          <g id="g95533" stroke-width="0.5" stroke="#FFF" fill="none">
                                           <path id="path95535" d="m470.25,155c4.891-0.212,8.546-8.305,8.166-18.075-0.381-9.769-4.654-17.517-9.544-17.304-4.891,0.212-8.546,8.305-8.166,18.074,0.381,9.77,4.654,17.518,9.544,17.305z"/>
                                           <path id="path95537" d="M469.56,137.31"/>
                                          </g>
                                         </g>
                                         <g id="g95539" stroke-width="0.5" stroke="#000" fill="none">
                                          <path id="path95541" d="m410.55,73.334c0.655,0,1.186-0.531,1.186-1.187,0-0.655-0.531-1.186-1.186-1.186h-5.487c-0.655,0-1.186,0.531-1.186,1.186s0.531,1.187,1.186,1.187h5.487z"/>
                                          <path id="path95543" d="M407.81,72.148"/>
                                         </g>
                                         <path id="path95545" d="m412.03,63.251c0,1.927,1.483,5.338,3.41,8.452,1.928,3.114,2.224,5.932,2.669,17.201s1.186,31.732-2.818,42.26c2.669,0.296-0.89,9.342-2.817,12.752l-96.829-1.631s0.445-8.749,0.445-10.38-2.373-1.631-2.373-4.003,1.483-6.376,1.483-27.284-3.559-41.815-4.003-44.929-1.334-6.08-2.966-6.673c-1.631-0.593-0.445,0-0.445,0" stroke="#000" stroke-width="0.5" fill="none"/>
                                         <path id="path95547" d="m186.5,74.669c2.669-6.228,26.691-12.456,72.955-18.98s42.705-7.711,42.705-7.711" stroke="#000" stroke-width="0.5" fill="none"/>
                                         <path id="path95549" d="m112.06,75.855c3.26-5.042,18.39-10.925,32.92-13.346,55.16-9.193,72.06-11.862,74.73-15.125" stroke="#000" stroke-width="0.5" fill="none"/>
                                         <path id="path95551" d="M65.201,76.745c1.483-3.559,8.601-8.304,19.574-10.973s87.785-13.642,90.155-16.607" stroke="#000" stroke-width="0.5" fill="none"/>
                                         <line id="line95553" stroke-width="0.5" x1="60.159" x2="112.95" stroke="#000" y1="90.98" y2="89.794" fill="none"/>
                                         <path id="path95555" d="m86.183,83.417c-0.371,0.297-1.112,0.371-1.631,0.371s0,0.371-0.742,0.444c-0.741,0.074-1.408-1.038-1.408-1.038l-10.232,0.076c0.444,1.186,3.929,1.854,7.266,2.076,3.336,0.223,4.745-0.222,5.042,0.223s-0.593,0.815-0.593,0.815,1.261,0.148,2.447,0.148c1.187,0,2.076-0.074,2.076-0.074s-0.742-0.667-0.297-0.89,2.743-0.074,5.042-0.371c2.299-0.296,7.785-0.667,8.749-2.298l-11.12,0.148s-0.593,1.112-1.112,1.26-0.667,0.223-0.89,0.074c-0.223-0.148-0.593-0.741-1.038-0.815s-0.445-0.593-0.964-0.593-0.593,0.444-0.593,0.444z" stroke="#000" stroke-width="0.5" fill="none"/>
                                         <path id="path95557" d="m182.57,94.168s-0.297,3.262-17.498,3.559c-17.201,0.296-152.14,2.669-152.14,2.669l-2.966-2.669,2.076-1.631s36.774-0.445,71.176-0.741c34.402-0.297,99.349-1.187,99.349-1.187z"/>
                                         <path id="path95559" d="m150.83,75.781s-6.821,8.897-6.821,14.531" fill="#FFF" stroke="#000"/>
                                         <path id="path95561" d="m42.292,79.043s-5.042,8.6-5.042,13.049" fill="#FFF" stroke="#000"/>
                                         <path id="path95563" d="m169.13,107-67.597,0.515c-3.855,0-6.302,1.186-5.264,4.597l1.038,4.3c0.741,2.521,4.833,2.53,4.833,2.53l65.104-2.187-34.944-2.305v-4.71c2.671-1.484,36.83-2.74,36.83-2.74z" stroke="#000" stroke-width="0.5" fill="none"/>
                                         <path id="path95565" d="m233.58,124.12-44.929-0.148c-10.676-0.148-33.364,0-33.364,0-4.003,0-3.707,2.225-3.707,4.3v6.524c-5.635,2.966-1.779,2.373,3.411,2.373h15.57c3.114,0,3.06-2.753,6.524-3.855,3.262-1.038,8.452-1.038,53.381,0.89" stroke="#000" stroke-width="0.5" fill="none"/>
                                         <path id="path95567" d="m5.517,127.68h21.205c3.114,0,3.41,1.631,3.41,3.559v3.559c3.559,1.779,2.224,2.373-0.296,2.373h-2.817c-1.483,0-1.186,1.483-2.373,1.483s-7.711-0.445-8.749-0.89-2.966-2.076-2.966-2.076" stroke="#000" stroke-width="0.5" fill="none"/>
                                         <path id="path95569" d="m50.892,115.37c0.297,2.373,1.334,5.931-4.003,5.931-5.338,0-44.93-0.148-44.93-0.148s20.315-1.482,23.429-1.928c3.114-0.444,5.635-3.148,5.635-3.148l-0.296-3.673c0-2.373-29.953-3.559-29.953-3.559l45.966-0.14" stroke="#000" stroke-width="0.5" fill="#FFF"/>
                                         <path id="path95571" d="m304.44,127.43c15.372,2.087,130.12,5.773,144.19,2.625" stroke="#000" stroke-width="0.5" fill="none"/>
                                         <path id="path95573" d="m304.44,129.68c15.372,2.087,130.12,5.773,144.19,2.625" stroke="#000" stroke-width="0.5" fill="none"/>
                                         <path id="path95575" d="m492.69,129.31s16.313-1.688,22.313-3.375" stroke="#000" stroke-width="0.5" fill="none"/>
                                         <path id="path95577" d="m492.69,131.37s16.313-1.688,22.313-3.375" stroke="#000" stroke-width="0.5" fill="none"/>
                                         <g id="g95579">
                                          <path id="path95581" d="m510.79,96.87c-0.57,0-1.031-0.462-1.031-1.031v-15.563c0-0.569,0.461-1.031,1.031-1.031,0.569,0,1.031,0.462,1.031,1.031v15.563c0,0.569-0.462,1.031-1.031,1.031z"/>
                                          <path id="path95583" d="M510.79,88.057"/>
                                         </g>
                                         <path id="path95585" d="m203.48,74.838c17.625-11.625,240.22-9.289,307.88,0" stroke="#000" stroke-width="0.5" fill="none"/>
                                         <path id="path95587" d="m320.94,57.963c4.688,0.75,16.032,1.313,18.657,1.125s5.906-0.469,7.406-1.219c-3.563-0.937-20.626-1.781-26.063,0.094z"/>
                                        </g>
                                       </g>
                                      </g>
                                     </g>
                                    </g>
                                   </g>
                                  </g>
                                 </g>
                                </g>
                               </g>
                              </g>
                             </g>
                            </g>
                           </g>
                          </g>
                         </g>
                        </g>
                       </g>
                      </g>
                     </g>
                    </g>
                   </g>
                  </g>
                 </g>
                </g>
               </g>
              </g>
             </g>
            </g>
           </g>
          </g>
         </g>
        </g>
       </g>
      </g>
     </g>
    </g>
   </g>
  </g>
 </g>
</svg>
