<?xml version="1.0" encoding="UTF-8" standalone="no"?>
<!-- Created with Inkscape (http://www.inkscape.org/) -->
<svg id="svg2" xmlns:rdf="http://www.w3.org/1999/02/22-rdf-syntax-ns#" xmlns="http://www.w3.org/2000/svg" height="45" width="67.5" version="1.1" xmlns:cc="http://creativecommons.org/ns#" xmlns:dc="http://purl.org/dc/elements/1.1/">
 <metadata id="metadata7">
  <rdf:RDF>
   <cc:Work rdf:about="">
    <dc:format>image/svg+xml</dc:format>
    <dc:type rdf:resource="http://purl.org/dc/dcmitype/StillImage"/>
    <dc:title/>
   </cc:Work>
  </rdf:RDF>
 </metadata>
 <g id="g81658">
  <rect id="rect2990" opacity="0" height="44.803" width="67.204" y=".19715" x="-.00065068"/>
  <g id="g81253" transform="matrix(0.75 0 0 0.75 -3.3749 2.25)">
   <path id="path95369" fill="#fff" d="m89.512 37.08c0.71663 0.54763 3.1925-0.78124 3.666-1.0654 0.51515-0.30899-0.20599-0.77256-0.05141-1.1847 0.15458-0.41216 0.92714-1.2877 0.82414-1.5453 0.56656-1.7513 0.41216-2.6784 0.36057-3.5541-0.05159-0.87572-0.87572-1.3393-0.92714-1.8543-0.05159-0.51515 0-2.627 0-3.3481 0-0.72114-0.66956-1.1847-1.7513-1.5453-1.0838-0.36109-2.6296-0.72166-5.2557-1.8548s-6.284-4.4297-9.0664-6.2841c-2.7807-1.8544-7.1072-3.4511-18.748-3.4511s-14.577 0.82414-17.153 1.5969c-2.5754 0.77256-12.929 6.9023-13.779 7.4431-0.84984 0.54086-14.088 2.6013-14.088 2.6013s-4.3783 0.66939-5.5887 1.7511-1.7256 2.936-1.365 3.1679c-0.66956 0.33487-1.6226 1.0044-1.8544 1.4423-0.2317 0.43786-0.025705 1.8543 0.051585 2.6013 0.07729 0.74702 0.18029 1.1074 0.66956 1.4423 0.48927 0.33487 1.2363 1.0044 1.262 1.3393 0.00955 0.12453 0.00139 0.25636 0.03769 0.38332l0.013895 0.05454c0.090838 0.10908 0.26504 0.18602 0.56326 0.23778 0.54711 0.09483 1.5118 0.10473 3.1455 0.07138 2.4226-0.04933 17.256 0 20.707-0.103 3.4511-0.103 5.0478 0 6.3871 0.20599 1.3391 0.20616 4.5329 0.66956 5.7174 0.77273 1.1847 0.103 1.3393-0.25758 1.2877-0.72114-0.05141-0.46357-0.41216-0.97872 0-1.3907 0 0 0.66956-1.1331 0.30899-1.3907 0.61815-1.9574 1.7513-8.602 6.7991-8.602s5.7176 6.7477 5.7176 8.4476-0.20616 2.2664-0.56656 3.3996c-0.36057 1.1331-0.05159 1.6483 1.1331 1.5453s11.487-0.36057 14.526-0.36057c3.0392 0 7.4688 0.30899 8.2416 0.36057 0.77256 0.05141 1.3391 0 1.2361-0.41216s-0.30899-0.92714-0.103-1.5453c0.20599-0.61815 0.66956-1.8543 0.30899-1.8543 0.72114-4.5844 2.1634-7.4688 4.4297-7.4688s3.2451 3.0392 3.2451 3.0392c0.46357 0.30899 0.20599 4.4813 0.20599 4.4813s0.15458 0.30899 0 0.61815c-0.13096 0.26209-0.44742 1.9693-0.54034 2.4818l-0.0092 0.05089z"/>
   <path id="path95371" d="m44.58 34.288c-0.41216 0.41216-0.05141 0.92714 0 1.3907 0.05159 0.46357-0.103 0.82414-1.2877 0.72114s-4.3783-0.56656-5.7174-0.77273c-1.3393-0.20599-2.936-0.30899-6.3871-0.20599s-18.284 0.05367-20.707 0.103c-2.524 0.05159-3.4511 0-3.7087-0.30899 0 0 0.051585 0.77273 2.0089 1.0303 1.9573 0.2574 3.1422 0.51498 3.1422 0.51498s1.9059 5.6146 6.3871 5.6146h2.4724c3.7601 0 6.3357-4.0693 6.3357-4.0693l1.8029 0.05158c0.36057 0.05141 0.87572-0.36057 0.87572-0.36057s0.87572 0.20616 1.8027 0.25758c0.92714 0.05141 7.5718-0.103 10.147-0.25758 0 0 2.2148 4.7388 6.5417 4.7388h2.524c2.2664 0.05158 3.2966-1.9059 3.2966-1.9059s0.92714 0.72114 2.2148 0.72114h2.1118c2.627-0.05141 3.3481-3.5541 3.3481-3.5541l7.8808-0.20599 2.73-0.15458 6.8507 0.41216s0.87572 4.0693 4.2753 4.0693h2.1634c2.936 0 3.5541-5.1508 3.5541-5.1508l0.25758 0.20599s0.41198-2.3178 0.56656-2.627c0.15458-0.30916 0-0.61815 0-0.61815s0.25758-4.1721-0.20599-4.4813c0 0-0.97872-3.0392-3.2451-3.0392s-3.7087 2.8844-4.4297 7.4688c0.36057 0-0.103 1.2363-0.30899 1.8543-0.20616 0.61815 0 1.1331 0.103 1.5453 0.103 0.41216-0.46357 0.46357-1.2361 0.41216-0.77273-0.05159-5.2024-0.36057-8.2416-0.36057-3.039 0-13.341 0.25758-14.526 0.36057-1.1847 0.103-1.4939-0.41216-1.1331-1.5453 0.36057-1.1331 0.56656-1.6999 0.56656-3.3996s-0.66956-8.4476-5.7176-8.4476c-5.0478 0-6.181 6.6447-6.7991 8.602 0.36005 0.25758-0.30951 1.3907-0.30951 1.3907z"/>
   <path id="path95373" d="m46.846 28.262h-6.7477c-0.87572 0-1.4937 0.56656-0.61815 0.56656h7.1599l0.20599-0.56656z"/>
   <polygon id="polygon95375" points="303.42 103.51 454.07 106.18 455.4 103.21 301.93 100.25" transform="matrix(.17369 0 0 .17369 4.4999 11.263)"/>
   <polygon id="polygon95377" points="516.94 105.59 517.39 108.85 491.73 108.85 490.84 105.59" transform="matrix(.17369 0 0 .17369 4.4999 11.263)"/>
   <path id="path95379" d="m59.749 20.227s-0.90143 1.2106 1.056 1.365c1.9574 0.15458 3.2709 0.20616 4.095-0.103 0.82414-0.30899 0.61815-1.4166 0.05159-1.8543-0.56656-0.43786-1.6742-0.82414-3.3481-0.97872-0.91064-0.08406-1.571 0.92714-1.571 0.92714l3.398-5.074c0.82414-1.2104 1.6226-1.468 3.3738-1.468 1.7513 0 6.3612 0.36057 7.9581 1.3907 1.5967 1.0301 6.4613 4.3652 7.6491 5.8979 0.79843 1.0301 0.66956 1.159 0.56656 1.6483-0.103 0.48927-0.56656 0.72114-1.4164 0.66956-2.0346-0.02571-5.3827-0.25758-9.5293-0.33487s-9.7867-0.1888-11.384-0.20616c-2.395-0.02553-0.90126-1.8798-0.90126-1.8798z"/>
   <path id="path95381" d="m58.204 19.944c0.56656-0.51515 3.5283-4.8161 4.4297-6.1811 0.90143-1.365 1.6226-1.674 3.7858-1.5196 2.1634 0.15458 5.7945 0.49014 7.5204 1.1331 2.627 0.97872 5.0994 2.5497 6.8507 3.9661 0 0-4.3526-3.3738-6.5931-4.095-2.2405-0.72114-5.5111-1.1333-8.2153-1.2363-2.7043-0.103-3.0899 0.79844-3.0899 0.79844-1.5458-0.38628-6.3361-0.59244-12.002-0.33487-5.666 0.25758-10.017 0.82866-10.508 1.0301-2.0089 0.82414-10.456 5.3311-12.749 6.928 5.0223-0.72062 23.488-1.1844 30.57-0.48893z"/>
   <g id="g81050" stroke="#000">
    <path id="path95383" stroke-width=".086843" fill="#fff" d="m26.957 31.662c0.2878 0 0.52106-0.23326 0.52106-0.52106v-0.70916c0-0.2878-0.23326-0.52106-0.52106-0.52106h-3.877c-0.2878 0-0.52106 0.23326-0.52106 0.52106l0.2317 0.83804c0 0.2878 0.23326 0.52106 0.52106 0.52106l3.6457-0.13026z"/>
    <path id="path95385" stroke-width=".086843" fill="#fff" d="m12.818 31.945c0.2878 0 0.52106-0.23326 0.52106-0.52106l-0.07729-0.78645c0-0.2878-0.23326-0.52106-0.52106-0.52106h-2.409c-0.2878 0-0.52106 0.23326-0.52106 0.52106l0.07729 0.78645c0 0.2878 0.23326 0.52106 0.52106 0.52106h2.409z"/>
    <path id="path95387" stroke-width=".26053" fill="none" d="m7.6216 35.706c-0.9788-0.206-0.8758-0.593-0.9015-0.927-0.0257-0.336-0.7727-1.004-1.262-1.339-0.4892-0.336-0.5922-0.695-0.6695-1.442s-0.2833-2.164-0.0516-2.602c0.2319-0.438 1.1847-1.107 1.8544-1.442-0.3605-0.232 0.1546-2.086 1.365-3.168s5.5886-1.751 5.5886-1.751 13.238-2.0604 14.088-2.6013c0.85002-0.54086 11.203-6.6704 13.779-7.4431 2.5756-0.77273 5.5114-1.5969 17.153-1.5969 11.641 0 15.968 1.5969 18.749 3.4511 2.7814 1.8543 6.4385 5.1508 9.0655 6.2841s4.1721 1.4939 5.254 1.8543c1.0817 0.36057 1.7513 0.82414 1.7513 1.5453 0 0.72114-0.05158 2.833 0 3.3481 0.05141 0.51498 0.87572 0.97872 0.92714 1.8543 0.05141 0.87555 0.20599 1.8029-0.36057 3.5541 0.103 0.25758-0.66956 1.1331-0.82414 1.5453-0.15458 0.41216 0.56656 0.87572 0.05141 1.1847-0.51515 0.30916-3.3996 1.8544-3.8117 0.87572"/>
   </g>
   <path id="path95391" d="m76.797 25.301c0.07191 0 0.13026-0.05836 0.13026-0.13026v-0.46062c0-0.07208-0.05836-0.13026-0.13026-0.13026h-1.9029c-0.07191 0-0.13026 0.05818-0.13026 0.13026v0.46062c0 0.07191 0.05819 0.13026 0.13026 0.13026h1.9029z"/>
   <path id="path95393" d="m75.845 24.94"/>
   <path id="path95395" d="m74.919 25.12v0.38628s-0.05159 0.2317 0.20599 0.2317h1.2363c0.25758 0 0.25758-0.2317 0.25758-0.2317v-0.38628" stroke="#000" stroke-width=".086843" fill="none"/>
   <g id="g81058" stroke-width=".17369" stroke="#000" fill="#fff">
    <path id="path95399" d="m34.197 34.65c0.14399 0 0.26053-0.11654 0.26053-0.26053v-1.0242c0-0.14381-0.11654-0.26053-0.26053-0.26053h-2.878c-0.14399 0-0.26053 0.11672-0.26053 0.26053v1.0242c0 0.14399 0.11654 0.26053 0.26053 0.26053h2.8785z"/>
    <path id="path95401" d="m32.759 33.877"/>
    <path id="path95405" d="m9.2153 34.856c0.14381 0 0.26053-0.11672 0.26053-0.26053v-0.81823c0-0.14381-0.11672-0.26053-0.26053-0.26053h-1.8484c-0.14381 0-0.26053 0.11672-0.26053 0.26053v0.81823c0 0.14381 0.11672 0.26053 0.26053 0.26053h1.8484z"/>
    <path id="path95407" d="m8.2911 34.186"/>
    <path id="path95409" d="m7.6216 27.438c0.206-1.185 1.3907-2.318 1.3907-2.318l4.0177-0.051c0.92714 0 1.3907 0.15458 1.6483 0.87572 0.25758 0.72114 0.25758 1.3391 0.25758 1.3391s-6.5417 0.05141-7.3143 0.15441z"/>
    <path id="path95411" d="m7.6216 27.438c0-0.95284 1.3907-2.3178 1.3907-2.3178l-1.3779 0.07729c-0.79843 0.82414-1.0689 2.0476-1.0689 2.305l1.056-0.06444z"/>
    <path id="path95413" d="m35.192 24.348s-0.92714 1.9831-0.92714 2.627c0 0 2.3437 0.05141 3.5026 0.05141 1.159 0 2.9103 0.05158 2.9103 0.05158s-0.56656-1.5453-0.72114-2.0089c-0.15458-0.46357-0.28328-0.77273-1.4164-0.77273s-3.3481 0.05158-3.3481 0.05158z"/>
    <path id="path95415" d="m35.192 24.348s-0.92714 1.9574-0.92714 2.627l-10.276 0.12888s0.61815-0.85002 0.97872-1.262c0.36057-0.41216 0.72114-1.159 3.2451-1.3136 2.524-0.15458 6.9794-0.18029 6.9794-0.18029z"/>
   </g>
   <path id="path95419" d="m30.334 34.393c0.13669 0 0.2475-0.11081 0.2475-0.2475l-0.41598-0.77724c0-0.13669-0.11081-0.2475-0.2475-0.2475h-1.7558c-0.13669 0-0.2475 0.11081-0.2475 0.2475l0.41598 0.77724c0 0.13669 0.11081 0.2475 0.2475 0.2475h1.7558z"/>
   <path id="path95423" d="m27.741 34.393c0.13669 0 0.2475-0.11081 0.2475-0.2475l-0.41598-0.77724c0-0.13669-0.11081-0.2475-0.2475-0.2475h-1.756c-0.13669 0-0.2475 0.11081-0.2475 0.2475l0.41598 0.77724c0 0.13669 0.11081 0.2475 0.2475 0.2475h1.756z"/>
   <path id="path95427" d="m25.148 34.393c0.13669 0 0.2475-0.11081 0.2475-0.2475l-0.41598-0.77724c0-0.13669-0.11081-0.2475-0.2475-0.2475h-1.756c-0.13669 0-0.2475 0.11081-0.2475 0.2475l0.416 0.775c0 0.13669 0.11081 0.2475 0.2475 0.2475h1.756z"/>
   <path id="path95431" d="m22.553 34.393c0.13669 0 0.2475-0.11081 0.2475-0.2475l-0.41598-0.77724c0-0.13669-0.11081-0.2475-0.2475-0.2475h-1.7542c-0.13669 0-0.2475 0.11081-0.2475 0.2475l0.41598 0.77724c0 0.13669 0.11081 0.2475 0.2475 0.2475h1.756z"/>
   <path id="path95435" d="m19.96 34.393c0.13669 0 0.2475-0.11081 0.2475-0.2475l-0.41598-0.77724c0-0.13669-0.11081-0.2475-0.2475-0.2475h-1.756c-0.13669 0-0.2475 0.11081-0.2475 0.2475l0.41598 0.77724c0 0.13669 0.11081 0.2475 0.2475 0.2475h1.756z"/>
   <path id="path95439" d="m17.367 34.393c0.13669 0 0.2475-0.11081 0.2475-0.2475l-0.41598-0.77724c0-0.13669-0.11081-0.2475-0.2475-0.2475h-1.756c-0.13669 0-0.2475 0.11081-0.2475 0.2475l0.41598 0.77724c0 0.13669 0.11081 0.2475 0.2475 0.2475h1.756z"/>
   <path id="path95443" d="m14.773 34.393c0.13669 0 0.2475-0.11081 0.2475-0.2475l-0.41598-0.77724c0-0.13669-0.11081-0.2475-0.2475-0.2475h-1.756c-0.13669 0-0.2475 0.11081-0.2475 0.2475l0.41598 0.77724c0 0.13669 0.11081 0.2475 0.2475 0.2475h1.756z"/>
   <path id="path95447" d="m12.18 34.393c0.13669 0 0.2475-0.11081 0.2475-0.2475l-0.41598-0.77724c0-0.13669-0.11081-0.2475-0.2475-0.2475h-1.756c-0.13669 0-0.2475 0.11081-0.2475 0.2475l0.41598 0.77724c0 0.13669 0.11081 0.2475 0.2475 0.2475h1.756z"/>
   <g id="g81076" fill="#fff">
    <path id="path95449" d="m32.977 19.66c2.2407-0.07729 7.9067-0.41198 11.899-0.38628 0 0 1.6226-3.2451 1.8029-3.6055 0.18029-0.36057 0.05141-0.46357-0.30899-0.51515-0.15302-0.02189-1.8029-0.13183-2.936-0.07729-2.1377 0.103-6.1038 1.8027-10.456 4.5843z"/>
    <path id="path95451" d="m50 16.106-1.0301 1.9316c0.51498-0.33487 0.95284-0.51498 1.8802-0.48927-0.02588-0.46357-0.85002-1.4423-0.85002-1.4423z"/>
    <path id="path95453" d="m57.985 18.914c0.46357-0.41216 2.0603-2.7043 2.4208-3.2709-1.0817 0.15458-3.0906 0.2317-4.7131 0.18029 0.77273 0.66956 1.9317 2.2405 2.2923 3.0906z"/>
    <path id="path95455" d="m61.255 18.501c0.41216-0.12888 0.92714 0 1.0817 0.05141 0 0 0.03543-0.91324 0.33487-1.0817 0.41216-0.2317 0.69526-0.2317 0.97872-0.2317 0.28328 0 2.7041 0.02571 3.3738 0.05158 0.66956 0.02571 0.95284 0.56656 0.95284 1.1331 0 0.56656-0.15458 1.6483-0.15458 1.6483l3.6057-0.02571c0.15458-0.41216 0.28328-0.41216 1.2361-0.41216 0 0-0.18029-0.54086-0.2574-0.74685-0.07712-0.20599 0.07729-0.66956 0.07729-0.66956s-1.2104-2.9103-1.7256-3.1679c0 0-5.4857 0.07729-7.3916 0.36057l-2.112 3.0906z"/>
    <path id="path95457" d="m73.747 15.205s1.8802 3.0133 2.2921 4.4813c0 0 1.2877-0.0257 1.777-0.0257 0.48927 0 0.61815 0.43786 0.61815 0.43786h0.66956s0.07729-0.64385 0.59244-0.82414c-1.2363-1.2363-4.301-3.6055-5.3311-4.0434l-0.618-0.025z"/>
   </g>
   <path id="path95461" d="m50.442 34.212" stroke="#fff" stroke-dasharray="0.17368597, 0.17368597" stroke-width=".086843"/>
   <ellipse id="ellipse95465" rx="4.4986" ry="5.5382" cy="34.212" cx="50.442" fill="#fff"/>
   <path id="path95467" fill="#fff" d="m50.442 34.212"/>
   <path id="path95469" d="m50.442 34.212"/>
   <g id="g81087" stroke-width=".086843" stroke="#000" fill="none">
    <ellipse id="ellipse95473" cy="34.212" cx="50.442" rx="4.1664" ry="5.1289"/>
    <path id="path95475" d="m50.442 34.212"/>
    <ellipse id="ellipse95479" cy="34.212" cx="50.442" rx="1.4661" ry="1.8046"/>
    <path id="path95481" d="m50.442 34.212"/>
   </g>
   <path id="path95483" d="m51.727 38.339c-0.39896 0.18828-0.83213 0.29144-1.2849 0.29144-0.40729 0-0.81268-0.04064-1.1639-0.23743-0.37186-0.20825-0.24646-0.51689 0.09831-0.90282 0.34477-0.38576 1.4777-1.0044 1.847-1.2163 0.36926-0.21207 0.29944 0.80903 0.37812 1.2934l0.1254 0.77169z"/>
   <path id="path95485" d="m51.369 29.969c0.41268 0.13634 0.81233 0.3663 1.1786 0.69405 0.32948 0.29474 0.63795 0.62093 0.82814 1.0341 0.20148 0.43769-0.04724 0.59661-0.51046 0.65914s-1.6653-0.25688-2.0653-0.35258 0.13426-0.87104 0.30204-1.3198l0.26696-0.71489z"/>
   <path id="path95487" d="m47.44 31.827c0.23291-0.44099 0.53408-0.83786 0.90039-1.1654 0.32948-0.29474 0.67686-0.5551 1.055-0.65011 0.40017-0.10056 0.4462 0.23986 0.35137 0.80139-0.09466 0.56153-0.70812 1.8748-0.90577 2.3133-0.19748 0.43873-0.63621-0.43057-0.9313-0.76578-0.46722-0.53322-0.46722-0.53322-0.46722-0.53322z"/>
   <path id="path95489" d="m54.018 33.995c0.02206 0.52523-0.03196 1.0643-0.17195 1.5944-0.12592 0.47694-0.28259 0.93895-0.54294 1.2893-0.27581 0.37099-0.47555 0.12888-0.66713-0.39409-0.19158-0.52279-0.31437-2.0363-0.36405-2.5341-0.04967-0.49778 0.72236-0.10334 1.1112-0.04724 0.63482 0.09171 0.63482 0.09171 0.63482 0.09171z"/>
   <path id="path95491" d="m47.661 37c-0.26869-0.40886-0.48233-0.88424-0.62214-1.4143-0.12592-0.47694-0.21971-0.96396-0.17629-1.436 0.04603-0.4997 0.32323-0.44828 0.72774-0.16379 0.40469 0.2845 1.2344 1.4128 1.5123 1.7796 0.2779 0.36682-0.53426 0.60773-0.88424 0.8495l-0.55736 0.38506z"/>
   <g id="g81098" stroke-width=".086843" stroke="#fff">
    <ellipse id="ellipse95495" rx="2.932" ry="3.6094" cy="34.212" cx="50.442" fill="none"/>
    <path id="path95497" fill="none" d="m50.442 34.212"/>
    <path id="path95501" stroke-dasharray="0.17368597, 0.17368597" d="m86.056 35.112"/>
   </g>
   <path id="path95505" fill="#fff" d="m86.24 39.827c1.3033-0.05662 2.2775-2.2133 2.1761-4.8168-0.10143-2.6034-1.2403-4.6682-2.5435-4.6115-1.3032 0.05662-2.2775 2.2133-2.1761 4.8168 0.10143 2.6036 1.2403 4.6682 2.5435 4.6115z"/>
   <path id="path95507" fill="#fff" d="m86.056 35.112"/>
   <path id="path95509" d="m86.056 35.112"/>
   <g id="g81106" stroke-width=".086843" stroke="#000" fill="none">
    <path id="path95513" d="m86.226 39.478c1.2069-0.05245 2.1092-2.0497 2.0155-4.461-0.09396-2.4111-1.1486-4.3234-2.3555-4.2708-1.2069 0.05245-2.1092 2.0497-2.0153 4.461 0.09379 2.4111 1.1484 4.3232 2.3554 4.2708z"/>
    <path id="path95515" d="m86.056 35.112"/>
    <path id="path95519" d="m86.117 36.649c0.42466-0.01841 0.74216-0.72132 0.70916-1.5698-0.033-0.84828-0.40417-1.5211-0.82883-1.5027-0.42466 0.01841-0.74216 0.72132-0.70916 1.5696 0.033 0.84846 0.40399 1.5213 0.82883 1.5029z"/>
    <path id="path95521" d="m86.056 35.112"/>
   </g>
   <path id="path95523" d="m86.867 38.598c-0.20287 0.16934-0.42675 0.26713-0.66435 0.27738-0.21363 0.0094-0.42762-0.01615-0.61832-0.1756-0.202-0.16882-0.14642-0.43422 0.02171-0.77064 0.16796-0.33626 0.74181-0.88875 0.92853-1.0775 0.18671-0.1888 0.18393 0.68189 0.24125 1.0925l0.09119 0.65393z"/>
   <path id="path95525" d="m86.403 31.48c0.22093 0.10664 0.43821 0.29318 0.64125 0.56378 0.18272 0.24333 0.35519 0.51411 0.46878 0.86148 0.12002 0.36787-0.005 0.5089-0.24594 0.57282-0.2409 0.06392-0.88215-0.18081-1.0951-0.25306-0.21294-0.07225 0.04151-0.74459 0.11463-1.1305l0.11637-0.6145z"/>
   <path id="path95527" d="m84.404 33.151c0.10751-0.38072 0.25237-0.72549 0.43369-1.0128 0.16309-0.25844 0.3366-0.48788 0.53183-0.57733 0.20669-0.09466 0.24212 0.19401 0.21103 0.67408s-0.30933 1.612-0.39844 1.9899c-0.0891 0.37794-0.34807-0.35206-0.51376-0.63048l-0.264-0.443z"/>
   <path id="path95529" d="m87.925 34.846c0.02901 0.44655 0.01841 0.90664-0.03734 1.3612-0.0502 0.40886-0.11706 0.80556-0.24212 1.1099-0.13235 0.32201-0.24524 0.12054-0.36283-0.3201-0.11793-0.44082-0.23239-1.7261-0.27494-2.1488-0.04255-0.42258 0.37551-0.10456 0.58133-0.06548l0.33591 0.06339z"/>
   <path id="path95531" d="m84.691 37.55c-0.15458-0.34199-0.28224-0.74181-0.37325-1.1897-0.08181-0.40312-0.14711-0.81563-0.13999-1.2184 0.0075-0.4264 0.15458-0.38888 0.37638-0.15614 0.22162 0.23291 0.6944 1.1745 0.85228 1.4803 0.15788 0.30586-0.26018 0.5294-0.4356 0.7432-0.27981 0.34077-0.27981 0.34077-0.27981 0.34077z"/>
   <g id="g81117" stroke-width=".086843" fill="none">
    <path id="path95535" d="m86.176 38.184c0.8495-0.03682 1.4843-1.4425 1.4183-3.1394-0.06617-1.6967-0.80833-3.0425-1.6577-3.0055-0.8495 0.03682-1.4843 1.4425-1.4183 3.1392 0.06618 1.6969 0.80834 3.0426 1.6577 3.0056z" stroke="#fff"/>
    <path id="path95537" d="m86.056 35.112" stroke="#fff"/>
    <g id="g81121" stroke="#000">
     <path id="path95541" d="m75.807 24c0.11376 0 0.20599-0.09223 0.20599-0.20616 0-0.11376-0.09223-0.20599-0.20599-0.20599h-0.95302c-0.11376 0-0.20599 0.09223-0.20599 0.20599s0.09223 0.20616 0.20599 0.20616h0.95302z"/>
     <path id="path95543" d="m75.331 23.794"/>
     <path id="path95545" d="m76.064 22.249c0 0.33469 0.25758 0.92714 0.59227 1.468 0.33487 0.54086 0.38628 1.0303 0.46357 2.9876s0.20599 5.5114-0.48945 7.34c0.46357 0.05141-0.15458 1.6226-0.48927 2.2148l-16.818-0.284s0.07729-1.5196 0.07729-1.8029c0-0.28328-0.41216-0.28328-0.41216-0.69526s0.25758-1.1074 0.25758-4.7388-0.61815-7.2627-0.69526-7.8035c-0.07712-0.54086-0.2317-1.056-0.51515-1.159-0.28328-0.103-0.07729 0-0.07729 0"/>
     <path id="path95547" d="m36.892 24.232c0.46357-1.0817 4.6359-2.1634 12.671-3.2966 8.0354-1.1331 7.4173-1.3393 7.4173-1.3393"/>
     <path id="path95549" d="m23.963 24.438c0.56622-0.87572 3.1941-1.8975 5.7177-2.318 9.5805-1.5967 12.516-2.0603 12.98-2.627"/>
     <path id="path95551" d="m15.824 24.592c0.25758-0.61815 1.4939-1.4423 3.3997-1.9059 1.9059-0.46357 15.247-2.3694 15.659-2.8844"/>
     <line id="line95553" y1="27.065" x2="24.118" x1="14.949" y2="26.859"/>
     <path id="path95555" d="m19.469 25.751c-0.06444 0.05158-0.19314 0.06444-0.28328 0.06444s0 0.06444-0.12888 0.07712c-0.1287 0.01285-0.24455-0.18029-0.24455-0.18029l-1.7772 0.0132c0.07712 0.20599 0.68241 0.32201 1.262 0.36057 0.57942 0.03873 0.82414-0.03856 0.87572 0.03873s-0.103 0.14155-0.103 0.14155 0.21902 0.0257 0.42501 0.0257c0.20616 0 0.36057-0.01285 0.36057-0.01285s-0.12888-0.11585-0.05158-0.15458c0.07729-0.03873 0.47642-0.01285 0.87572-0.06444 0.3993-0.05141 1.3521-0.11585 1.5196-0.39913l-1.9314 0.02571s-0.103 0.19314-0.19314 0.21884c-0.09014 0.02571-0.11585 0.03873-0.15458 0.01285-0.03873-0.02571-0.103-0.1287-0.18029-0.14155s-0.07729-0.103-0.16743-0.103-0.103 0.07712-0.103 0.07712z"/>
    </g>
   </g>
   <path id="path95557" d="m36.21 27.619s-0.05158 0.56656-3.0392 0.61815c-2.9876 0.05141-26.425 0.46357-26.425 0.46357l-0.5151-0.464 0.3605-0.284s6.3871-0.07729 12.362-0.1287c5.9751-0.05158 17.256-0.20617 17.256-0.20617z"/>
   <path id="path95559" d="m30.697 24.425s-1.1847 1.5453-1.1847 2.5238" stroke="#000" stroke-width=".17369" fill="#fff"/>
   <path id="path95561" d="m11.845 24.992s-0.87572 1.4937-0.87572 2.2664" stroke="#000" stroke-width=".17369" fill="#fff"/>
   <g id="g81134" stroke-width=".086843" stroke="#000" fill="none">
    <path id="path95563" d="m33.875 29.847-11.741 0.08945c-0.66956 0-1.0946 0.20599-0.91428 0.79843l0.18029 0.74685c0.1287 0.43786 0.83942 0.43943 0.83942 0.43943l11.308-0.37985-6.0693-0.40035v-0.81806c0.46392-0.25775 6.3969-0.4759 6.3969-0.4759z"/>
    <path id="path95565" d="m45.069 32.821-7.8035-0.02571c-1.8543-0.02571-5.7949 0-5.7949 0-0.69526 0-0.64385 0.38645-0.64385 0.74685v1.1331c-0.97872 0.51515-0.30899 0.41216 0.59244 0.41216h2.7043c0.54086 0 0.53148-0.47816 1.1331-0.66956 0.56656-0.18029 1.468-0.18029 9.2715 0.15458"/>
    <path id="path95567" d="m5.4581 33.439h3.683c0.54086 0 0.59227 0.28328 0.59227 0.61815v0.61815c0.61815 0.30899 0.38628 0.41216-0.051411 0.41216h-0.48927c-0.25758 0-0.20599 0.25758-0.41216 0.25758s-1.3393-0.07729-1.5196-0.15458c-0.18029-0.07729-0.51515-0.36057-0.51515-0.36057"/>
   </g>
   <path id="path95569" d="m13.339 31.301c0.05158 0.41216 0.2317 1.0301-0.69526 1.0301-0.92714 0-7.8037-0.02571-7.8037-0.02571s3.5284-0.2574 4.0693-0.33487c0.54086-0.07712 0.97872-0.54676 0.97872-0.54676l-0.0513-0.638c0-0.41216-5.2024-0.61815-5.2024-0.61815l7.9836-0.02432" stroke="#000" stroke-width=".086843" fill="#fff"/>
   <g id="g81140" stroke-width=".086843" stroke="#000" fill="none">
    <path id="path95571" d="m57.377 33.396c2.6699 0.36248 22.6 1.0027 25.044 0.45593"/>
    <path id="path95573" d="m57.377 33.787c2.6699 0.36248 22.6 1.0027 25.044 0.45592"/>
    <path id="path95575" d="m90.073 33.722s2.8333-0.29318 3.8755-0.58619"/>
    <path id="path95577" d="m90.073 34.08s2.8333-0.29318 3.8755-0.58619"/>
   </g>
   <path id="path95581" d="m93.217 28.088c-0.099 0-0.17907-0.08024-0.17907-0.17907v-2.7031c0-0.09883 0.08007-0.17907 0.17907-0.17907 0.09883 0 0.17907 0.08024 0.17907 0.17907v2.7031c0 0.09883-0.08024 0.17907-0.17907 0.17907z"/>
   <path id="path95583" d="m93.217 26.557"/>
   <path id="path95585" d="m39.842 24.261c3.0612-2.0191 41.723-1.6134 53.474 0" stroke="#000" stroke-width=".086843" fill="none"/>
   <path id="path95587" d="m60.243 21.33c0.81424 0.13026 2.7845 0.22805 3.2405 0.1954 0.45593-0.03265 1.0258-0.08146 1.2863-0.21172-0.61884-0.16274-3.5824-0.30933-4.5268 0.01633z"/>
  </g>
 </g>
</svg>
