<?xml version="1.0" encoding="UTF-8" standalone="no"?>
<!-- Created with Inkscape (http://www.inkscape.org/) -->
<svg id="svg2" xmlns:rdf="http://www.w3.org/1999/02/22-rdf-syntax-ns#" xmlns="http://www.w3.org/2000/svg" height="45" width="67.5" version="1.1" xmlns:cc="http://creativecommons.org/ns#" xmlns:dc="http://purl.org/dc/elements/1.1/">
 <metadata id="metadata7">
  <rdf:RDF>
   <cc:Work rdf:about="">
    <dc:format>image/svg+xml</dc:format>
    <dc:type rdf:resource="http://purl.org/dc/dcmitype/StillImage"/>
    <dc:title/>
   </cc:Work>
  </rdf:RDF>
 </metadata>
 <g id="g11511">
  <rect id="rect2990" opacity="0" height="45" width="67.5" y="0" x="3.5527e-15"/>
  <path id="path11509" d="m31.677 34.148c-1.1885-0.32044-2.3691-1.2675-3.3114-2.6564l-0.48862-0.72014-2.0865 0.08701c-1.7686 0.07375-4.1208 0.10713-8.0329 0.11398-0.75957 0.0014-0.7948 0.01499-1.0683 0.41411-0.52133 0.76081-1.7137 1.7499-2.6397 2.1896-0.8451 0.40134-0.98448 0.42953-2.3484 0.47494-0.84443 0.02811-1.7328-0.01042-2.127-0.09226-1.3809-0.28667-2.7391-1.5102-3.6048-3.2474-0.21383-0.42908-0.43882-0.81623-0.5-0.86034-0.0611-0.0441-0.7268-0.17325-1.4792-0.28699-1.5928-0.24077-2.353-0.56108-2.4045-1.0131-0.0209-0.1832-0.29047-0.53551-0.69226-0.90464-0.60166-0.55275-0.66813-0.66594-0.77527-1.3202-0.066602-0.394-0.1196-1.022-0.11998-1.396-0.00068188-0.659 0.016598-0.695 0.5563-1.17 0.30635-0.26966 0.59481-0.49029 0.64102-0.49029 0.0463 0 0.14815-0.28653 0.22652-0.63673 0.22687-1.0137 0.83167-1.798 1.7232-2.2347 1.0632-0.52075 2.0554-0.74052 7.3271-1.6229 6.6801-1.1182 6.2273-0.98234 9.3761-2.8124 7.704-4.4775 8.7808-4.8393 15.436-5.1854 2.9909-0.15555 9.4039-0.0841 11.342 0.12636 3.2281 0.35051 5.803 1.0438 7.4437 2.0043 0.50297 0.29443 1.7969 1.2049 2.8755 2.0233 3.4986 2.6547 4.1988 3.0425 7.3685 4.0814 1.1397 0.37354 1.8478 0.6753 2.0877 0.88966l0.36305 0.32439 0.01266 1.4914c0.01226 1.4444 0.02384 1.5079 0.36734 2.0146 0.32552 0.48019 0.35458 0.60845 0.35342 1.5603-0.0014 1.0994-0.20505 1.9577-0.63087 2.6579-0.1873 0.308-0.23334 0.52696-0.18039 0.85807l0.07109 0.44456-0.88414 0.44867c-0.67537 0.34273-1.0527 0.45621-1.598 0.48059l-0.71383 0.03192-0.21825 0.79672c-0.37657 1.3747-0.94045 2.265-1.6787 2.6507-0.39159 0.20457-2.7845 0.23547-3.2988 0.04258-0.90434-0.3392-1.7529-1.2644-2.0934-2.2823-0.07569-0.2263-0.18155-0.46007-0.23525-0.51948-0.20164-0.22307-4.8785-0.41531-7.431-0.30545-1.3533 0.05824-3.1634 0.10759-4.0226 0.10966l-1.5621 0.0038-0.21124 0.59476c-0.26641 0.7501-0.86525 1.5417-1.4072 1.86-0.35601 0.20915-0.62386 0.24575-1.7986 0.24575-1.1655 0-1.4593-0.03953-1.8884-0.254l-0.5081-0.254-0.2987 0.39162c-0.16429 0.21539-0.58087 0.53223-0.92574 0.70408-0.58265 0.29035-0.73793 0.31189-2.1938 0.30436-0.86171-0.0045-1.8136-0.07466-2.1153-0.15602zm3.9092-2.3993c0.80005-0.3742 1.3322-0.9337 1.7856-1.8774 0.34297-0.71385 0.37477-0.88214 0.37419-1.9804-0.0006-1.0618-0.0394-1.2833-0.33634-1.9204-0.66029-1.4165-1.6728-2.1515-2.9636-2.1515-0.96124 0-1.5664 0.28858-2.2618 1.0787-0.7269 0.8258-1.0168 1.6792-1.0168 2.9932 0 1.3136 0.28987 2.1674 1.0159 2.9922 0.977 1.1099 2.2099 1.4235 3.4029 0.86551zm-2.3141-0.2664c-0.70378-0.35071-1.1-0.77307-1.5553-1.6581-0.44799-0.87076-0.52443-2.481-0.16325-3.4393 0.5479-1.4536 1.4837-2.2531 2.7367-2.338l0.69579-0.04718-0.68699 0.11057c-0.88378 0.14224-1.2537 0.33996-1.8535 0.99068-0.7466 0.80997-1.0341 1.7049-0.97352 3.03 0.0544 1.1898 0.33753 1.9166 1.0422 2.6753 1.1426 1.2303 3.0903 1.0914 4.1496-0.29595 1.4749-1.9316 0.93434-5.1049-1.0368-6.0871-0.34543-0.17213-0.54699-0.31296-0.44794-0.31296 0.0991 0 0.4315 0.15943 0.73877 0.3543 2.4127 1.5301 2.2129 5.8605-0.32496 7.0422-0.80907 0.37674-1.5308 0.36913-2.3207-0.02449zm0.26661-0.46139c-0.22993-0.16844-0.22971-0.1751 0.0169-0.5101 0.26304-0.35739 1.4664-1.1486 1.611-1.0593 0.0465 0.02875 0.11967 0.38817 0.16259 0.79873 0.0564 0.53945 0.0362 0.77297-0.0726 0.84204-0.25576 0.16239-1.4675 0.11202-1.7179-0.0714zm2.7246-1.0691c-0.23161-0.27907-0.55183-2.313-0.3808-2.4186 0.0514-0.03177 0.37352 0.0087 0.71583 0.08999l0.62237 0.14775-0.079 0.60011c-0.0832 0.63216-0.4253 1.5381-0.62822 1.6635-0.066 0.0408-0.17862 0.0036-0.25023-0.08272zm-4.15-0.41057c-0.11921-0.24755-0.24463-0.78765-0.2787-1.2002-0.0653-0.79105-0.005-0.87386 0.45983-0.62539 0.29192 0.15623 1.1914 1.2831 1.1914 1.4927 0 0.08557-0.18674 0.24419-0.41498 0.3525s-0.44747 0.24949-0.48718 0.31373c-0.12957 0.20965-0.24999 0.12433-0.47036-0.33327zm1.6033-0.62089c-0.23367-0.23367-0.34673-0.46415-0.33855-0.69013 0.0115-0.31932 0.0181-0.31474 0.11041 0.07789 0.12357 0.52535 0.50874 0.84305 1.0221 0.84305 0.97535 0 1.3481-1.7458 0.49963-2.3401-0.59403-0.41608-1.4426-0.0026-1.5594 0.75973l-0.0491 0.3201-0.018-0.33929c-0.0243-0.45894 0.55537-1.041 1.0368-1.041 0.72411 0 1.3394 0.88924 1.1649 1.6836-0.22615 1.0297-1.1906 1.4044-1.8689 0.72608zm-0.65089-1.7807c-0.066-0.0489-0.29683-0.31687-0.51295-0.5955l-0.39291-0.5066 0.44391-0.49136c0.49155-0.54409 1.0591-0.88896 1.2593-0.76522 0.0759 0.04695 0.10438 0.27305 0.0682 0.5426-0.0821 0.61228-0.71062 1.9309-0.86562 1.8161zm2.1004-0.76924c-0.23104-0.06523-0.46184-0.15883-0.51287-0.208-0.1086-0.10462 0.46058-1.4521 0.61337-1.4521 0.057 0 0.32574 0.16097 0.59732 0.3577 0.52823 0.38264 0.92113 0.99663 0.81492 1.2734-0.0757 0.1973-0.86303 0.21238-1.5127 0.02896zm26.74 5.4733c0.26758-0.18742 0.80892-1.1086 0.70975-1.2078-0.02872-0.02873-0.12052 0.11263-0.20398 0.31412-0.19547 0.47191-0.77898 0.9616-1.1458 0.9616-0.35932 0-1.0569-0.60153-1.2566-1.0835-0.08303-0.20046-0.17726-0.33817-0.20941-0.30603-0.09678 0.09678 0.55494 1.1247 0.83941 1.324 0.34054 0.23852 0.92424 0.23742 1.2666-0.0024zm-0.12002-0.24004c0.29429-0.20613 0.74032-0.99771 0.75367-1.3375 0.0074-0.18966 0.02088-0.1867 0.11472 0.02522 0.07382 0.16672 0.08897 0.07507 0.0496-0.30006-0.03144-0.29951-0.01571-0.44886 0.0353-0.33528 0.05063 0.11273 0.09199-0.30354 0.09199-0.92576 0-0.62484-0.04125-1.0386-0.09221-0.92496-0.05401 0.12043-0.06939 0.01804-0.03711-0.24715 0.03733-0.30682 0.01306-0.42679-0.07532-0.37217-0.08882 0.0549-0.10453-0.03038-0.04926-0.26736 0.06346-0.27206 0.05191-0.30869-0.05291-0.16793-0.10952 0.14706-0.12323 0.13054-0.07485-0.09018 0.0381-0.17383 0.01313-0.24173-0.07-0.19035-0.08252 0.051-0.10066 0.0054-0.05019-0.12609 0.05326-0.1388 0.0337-0.17794-0.06001-0.12002-0.09437 0.05832-0.11301 0.01809-0.05803-0.12518 0.12163-0.31695-0.63401-1.0285-1.0922-1.0285-0.41898 0-0.92142 0.36254-1.1708 0.8448-0.25118 0.48574-0.22 0.6055 0.04567 0.1754 0.57552-0.93172 1.2308-1.0776 1.8548-0.41282l0.38238 0.40734-0.38751-0.34733c-0.7692-0.68943-1.654-0.25968-1.9807 0.96208-0.08463 0.31642-0.17156 0.46686-0.20866 0.36111-0.03498-0.09971-0.06359 0.48667-0.06359 1.3031 0 0.8236 0.04457 1.4227 0.10012 1.3458 0.05699-0.07887 0.07341 0.04242 0.03813 0.28151-0.03409 0.23104-0.03292 0.3489 0.0026 0.26189 0.03726-0.09121 0.17989 0.09064 0.33691 0.42955 0.45347 0.97878 1.1227 1.3376 1.7175 0.92093zm-0.90508-0.25159c-0.2613-0.10544-0.16287-0.57037 0.21878-1.0334 0.20284-0.24608 0.41136-0.44742 0.46337-0.44742 0.15904 0 0.25547 1.2267 0.11019 1.4017-0.13077 0.15756-0.50523 0.19494-0.79234 0.07909zm-0.877-1.308c-0.07526-0.19359-0.16601-0.67604-0.20167-1.0721l-0.06483-0.72014 0.30107 0.27664c0.16559 0.15215 0.39842 0.49252 0.5174 0.75638l0.21633 0.47974-0.31574 0.31574-0.31574 0.31574-0.13683-0.35198zm2.0607-0.22509c-0.07385-0.29328-0.14019-0.73886-0.14742-0.99019l-0.01315-0.45695-0.1028 0.5229c-0.11965 0.60862-0.29342 0.85736-0.59893 0.85736-0.26331 0-0.59483-0.4399-0.58545-0.77685 0.0043-0.15572 0.05836-0.09208 0.15003 0.17674 0.1868 0.54779 0.62602 0.64651 0.80318 0.18054 0.17534-0.46118 0.14715-1.1006-0.06676-1.5142-0.26743-0.51716-0.55089-0.40591-0.8016 0.31459-0.16169 0.46469-0.19269 0.50481-0.13824 0.17892 0.09338-0.55889 0.37519-0.98385 0.62106-0.9365 0.10957 0.0211 0.3128 0.24085 0.45162 0.48833s0.28132 0.42104 0.31666 0.3857 0.21288-0.0078 0.39452 0.0613c0.32228 0.12253 0.32827 0.14217 0.2478 0.81351-0.16549 1.3806-0.31013 1.57-0.53051 0.69481zm-1.9212-2.3211-0.24611-0.48241 0.27602-0.52205c0.32196-0.60896 0.67684-0.76453 0.67684-0.29672 0 0.42026-0.24492 1.5528-0.36316 1.6793-0.05362 0.05736-0.20823-0.11279-0.34359-0.37812zm1.2769-0.22899c-0.21982-0.05744-0.25972-0.43399-0.10475-0.98857 0.12521-0.44806 0.32724-0.42622 0.66579 0.072 0.42367 0.62349 0.41559 1.0038-0.02094 0.98539-0.18153-0.0077-0.42458-0.03862-0.5401-0.06881zm-11.432 3.0233c2.1124 0 4.7859 0.02701 5.9411 0.06001l2.1004 0.06001-0.03859-0.55686c-0.02122-0.30627 0.04629-0.84268 0.15003-1.192 0.10374-0.34933 0.18874-0.63884 0.18889-0.64336 0.00012-0.0046-0.47244-0.0042-1.0502 0.000721l-1.0505 0.009 0.95951-0.04429c0.52773-0.02436 1.0111-0.0959 1.0742-0.15898 0.07291-0.07291 0.0076-0.11777-0.17936-0.12313-0.25658-0.0074-0.26486-0.01988-0.06498-0.09826 0.17353-0.06805 0.29595-0.37885 0.50487-1.2818 0.15168-0.65559 0.30938-1.3056 0.35042-1.4444 0.06652-0.22501 0.01309-0.26088-0.49162-0.33006-0.31144-0.04267-1.2878-0.0776-2.1698-0.0776h-1.6036l-0.0202 0.45008-0.0202 0.45008-0.0463-0.43633-0.0463-0.43633-2.484-0.0725c-1.367-0.04-4.361-0.107-6.655-0.148l-4.1708-0.0752-0.0192 0.404-0.0192 0.404-0.0484-0.39007-0.0484-0.39007h-0.77254c-0.4249 0-0.77254-0.02259-0.77254-0.05019 0-0.02761-0.0328-0.13563-0.0728-0.24004-0.0623-0.16214 0.0516-0.18985 0.78014-0.18985h0.853l0.0192-0.39007 0.0192-0.39007 0.0472 0.37451 0.0472 0.37451 3.0241 0.07485c1.6633 0.04117 4.6579 0.10941 6.6548 0.15165l3.6307 0.0768 0.0222-0.64618 0.0222-0.64618 0.0441 0.63012 0.0441 0.63012 0.56383 0.00048c0.31011 0.00024 1.3237 0.03521 2.2524 0.07769l1.6886 0.07725 0.31518-0.53781c0.37909-0.64687 1.1656-1.3825 1.5928-1.4897 0.17062-0.04282 0.55409-0.05038 0.85215-0.01678 0.73505 0.08285 1.3229 0.58333 1.8442 1.5702l0.42008 0.79513 1.5303 0.0018c0.84166 0.000961 1.5303-0.04462 1.5303-0.10143 0-0.14165-0.60434-1.0275-0.73475-1.0769-0.14264-0.05414-0.13447-1.9683 0.01003-2.3484 0.14013-0.36857 0.03538-0.45231-0.71555-0.57204l-0.5401-0.08611 0.6302 0.03538c0.53292 0.02992 0.60838 0.0091 0.48883-0.13496-0.2266-0.27304-0.68676-0.47152-2.4011-1.0356-2.8615-0.94161-3.7334-1.4387-7.452-4.2484-3.3134-2.5035-4.6476-2.9862-9.3946-3.3986-1.705-0.14814-2.2905-0.07189-2.8545 0.37173-0.17084 0.13438-0.82149 0.98485-1.4459 1.8899-0.6244 0.90509-1.4314 2.0507-1.7933 2.5458-0.451 0.61694-0.6285 0.95682-0.5641 1.0802 0.0517 0.09902 0.13012 0.42308 0.17433 0.72014 0.0442 0.29706 0.10877 0.68863 0.14349 0.87016l0.0631 0.33006 2.4809 0.02744 2.4809 0.02744-2.4905 0.03501c-2.2609 0.03178-2.4918 0.05415-2.5044 0.24262-0.013 0.19416-0.0175 0.194-0.0688-0.0024-0.0302-0.11552-0.17246-0.21739-0.31614-0.22638-0.25096-0.0157-0.25031-0.01844 0.0163-0.06934 0.22798-0.04353 0.26664-0.11027 0.21647-0.37373-0.0336-0.1764-0.0973-0.56378-0.14145-0.86083-0.1457-0.97907-0.17769-1.0012-1.3429-0.92848-0.56358 0.03516-0.95847 0.023-0.87752-0.02703 0.19935-0.12321-6.5056-0.2139-8.454-0.11436-0.96654 0.04938-1.9257 0.17641-2.5205 0.33381-0.5281 0.13975-1.0682 0.24952-1.2002 0.24392-0.13202-0.0056 0.27305-0.1267 0.90017-0.26911l1.1402-0.25898-0.90017-0.03328c-0.4951-0.01831-1.7913 0.02677-2.8805 0.10017s-2.3314 0.12622-2.7605 0.11739c-1.1719-0.02412-3.8086 0.2346-4.2437 0.41642-0.52926 0.22114-3.4123 0.77279-7.8186 1.496-3.9594 0.64987-5.6231 1.0292-6.4495 1.4707l-0.51176 0.27334 2.2756 0.03275c2.1435 0.03085 2.2916 0.04781 2.5518 0.29224 0.15192 0.14272 0.3317 0.46555 0.39952 0.71739l0.1233 0.4579 2.3658 0.02732 2.3658 0.02732-2.3704 0.03523c-1.3037 0.01938-2.3704 0.07944-2.3704 0.13347s-1.3863 0.13391-3.0806 0.17751-3.1076 0.10627-3.1406 0.13927-0.025 0.09497 0.0177 0.13771 5.0072 0.02069 11.032-0.049c6.0249-0.06969 10.972-0.10904 10.995-0.08743 0.0222 0.0216-0.083 0.10527-0.23373 0.18592-0.44114 0.2361-2.8462 0.32704-12.621 0.47724-7.2686 0.11169-9.2513 0.11051-9.3912-0.0056-0.14197-0.11783-0.23883-0.10685-0.486 0.0551-0.50679 0.33207-0.77272 0.65057-0.77272 0.92548v0.25919l2.9406-0.07536c1.8683-0.04788 2.9406-0.03298 2.9406 0.04087 0 0.06842-0.65419 0.12191-1.5903 0.13004-0.95598 0.0083-1.4211 0.04695-1.1662 0.09691 0.58324 0.11428 0.71606 0.21672 0.71606 0.55227 0 0.18066-0.10109 0.33774-0.27005 0.41962-0.24371 0.1181-0.24955 0.1143-0.06-0.03901 0.11553-0.09343 0.21004-0.28181 0.21004-0.41861s-0.0945-0.27857-0.21004-0.31504c-0.28875-0.09115-2.3761-0.30531-3.0006-0.30786-0.48232-0.002-0.5101 0.01671-0.5101 0.34298 0 0.18979 0.0312 0.50105 0.0693 0.6917l0.0694 0.34664 3.0813-0.0016 3.0813-0.0016 0.0742-0.42008c0.0737-0.4169 0.0743-0.41731 0.09-0.05401 0.009 0.20134-0.0491 0.43088-0.12823 0.5101-0.10443 0.10443-0.97885 0.14403-3.1806 0.14403-1.6701 0-3.0366 0.04199-3.0366 0.09332s0.0841 0.21336 0.18685 0.36007c0.17577 0.25095 0.27386 0.26675 1.6563 0.26675 1.5897 0 1.7575 0.05893 1.7575 0.61703 0 0.18094 0.054 0.36236 0.12002 0.40316 0.15866 0.09806 0.1539 0.30006-0.007 0.30006-0.0699 0-0.0937-0.05401-0.053-0.12002 0.13509-0.21858-0.25893-0.12436-0.47406 0.11336-0.11616 0.12836-0.38108 0.24988-0.58871 0.27005-0.20762 0.02017 4.3484 0.01748 10.124-0.006l10.502-0.04265 2.2804 0.32767c1.2542 0.18022 2.6839 0.33444 3.1771 0.34271 0.99836 0.01674 1.0591-0.03884 0.91019-0.83267l-0.0757-0.40365-1.1056-0.03954-1.1056-0.03954 1.1764-0.02491 1.1763-0.02491 0.18137-0.43409c0.33396-0.79926 0.58325-0.7602-5.0803-0.79617l-5.1352-0.03262 5.166-0.02868 5.166-0.02869 0.36692-1.2302c0.2018-0.67663 0.40786-1.3247 0.45791-1.4403 0.0851-0.19645-0.0807-0.21004-2.5624-0.21004-1.7316 0-2.6533-0.04273-2.6533-0.12299 0-0.27203 0.72691-0.3571 3.0513-0.3571h2.4356l0.43232-0.7004c0.91431-1.4813 2.0718-2.2159 3.5025-2.2227 1.4145-0.0068 2.526 0.67485 3.3 2.0236 0.47247 0.82337 0.92955 2.4689 1.0301 3.7087 0.0815 1.0045 0.0919 1.032 0.39726 1.0495l0.31355 0.01798-0.32604 0.04962c-0.26923 0.04097-0.33891 0.12672-0.39989 0.49211-0.0406 0.24338-0.15428 0.73408-0.2526 1.0904-0.23094 0.83712-0.24109 1.3282-0.0302 1.4633 0.0982 0.06288 1.5475 0.07064 3.4692 0.01857 1.8153-0.04919 5.029-0.08943 7.1414-0.08943zm-1.8604-0.90715c-3.0747-0.07134-2.9955-0.07447 1.1581-0.04577l4.4587 0.03081 0.19215-0.50314c0.24483-0.64108 0.24402-0.64846-0.0779-0.71047l-0.27005-0.05201 0.27005-0.01635c0.14853-0.009 0.27005-0.06929 0.27005-0.13398 0-0.07205-0.98842-0.13116-2.5505-0.15255l-2.5505-0.03491 2.541-0.02748 2.5409-0.02749 0.0798-0.36317c0.0439-0.19974 0.12659-0.72634 0.18382-1.1702l0.10406-0.80705-0.0538 0.90017c-0.0296 0.49509-0.0869 1.0202-0.12741 1.1669-0.0734 0.26587-0.0676 0.26689 1.7099 0.30352l1.7835 0.03675-1.7703 0.02654c-1.0196 0.01528-1.7703 0.07489-1.7703 0.14057 0 0.06272 0.31055 0.13352 0.69013 0.15734l0.69012 0.0433-0.66095 0.02269-0.66095 0.02269-0.24317 0.63012-0.24317 0.63012-1.1963 0.0048c-0.65795 0.0026-2.6816-0.02967-4.4969-0.07179zm-7.0612-0.62314 0.0202-0.5101 0.0469 0.44634 0.0469 0.44634 1.4032 0.03795 1.4032 0.03795-1.4703 0.02581-1.4703 0.0258 0.0202-0.5101zm-21.609-0.19786c-0.13623-0.0863-0.13234-0.12212 0.0227-0.20889 0.12467-0.06976 0.1996-0.32021 0.22444-0.75015l0.0373-0.64542 1.3202 0.02279c0.72614 0.01253 1.3642 0.0664 1.418 0.11971s0.0808 0.3338 0.06 0.62332l-0.0377 0.5264-1.3438 0.01894c-1.3888 0.01957-1.9617 0.14964-1.2967 0.29438 0.32478 0.07068 0.33067 0.07957 0.06 0.09072-0.16503 0.0068-0.37405-0.03451-0.46449-0.0918zm2.8649-0.91235v-0.5401h-1.1402-1.1402v0.5401 0.5401h1.1402 1.1402v-0.5401zm0.36007 0.60011c0.40273-0.29712 0.42847-0.29981 2.6338-0.27514l2.2271 0.02492-2.2982 0.0651c-1.9612 0.05556-2.3322 0.0959-2.5299 0.27514-0.12744 0.11552-0.27845 0.21004-0.33559 0.21004-0.0571 0 0.0791-0.13502 0.30282-0.30006zm18.462-0.27005c-0.0658-0.23305-0.1642-0.27292-0.71768-0.29102l-0.64135-0.02097 0.5401-0.05191c0.42404-0.04075 0.48852-0.07312 0.30006-0.15063-0.19409-0.07981-0.20124-0.10034-0.0374-0.10716 0.20648-0.0086 0.28005-0.31023 0.38257-1.5687 0.0242-0.29706 0.0307-0.06752 0.0145 0.5101l-0.0295 1.0502 0.73506 0.02269 0.73508 0.02269-0.71627 0.04409c-0.42853 0.02637-0.65333 0.08298-0.55961 0.14091 0.0862 0.05325 0.13733 0.22574 0.1137 0.3833l-0.043 0.28648-0.0763-0.27005zm-37.003-0.265c-0.29125-0.56321-0.24636-0.60607 0.63481-0.60607 0.81193 0 0.81936 0.003 1.0124 0.40785 0.10697 0.22432 0.16198 0.44036 0.12224 0.48009-0.0398 0.03974-0.41291 0.07224-0.8293 0.07224-0.71695 0-0.76676-0.01875-0.94017-0.35411zm1.9395-0.07005c-0.11125-0.23328-0.20227-0.44932-0.20227-0.48009s0.36643-0.05594 0.81428-0.05594c0.7776 0 0.82387 0.01624 1.0271 0.36031 0.11706 0.19817 0.17953 0.41421 0.13881 0.48009-0.0407 0.06588-0.4119 0.11978-0.82485 0.11978-0.7413 0-0.75341-0.0054-0.9531-0.42415zm1.9204 0c-0.11125-0.23328-0.20227-0.44932-0.20227-0.48009s0.37669-0.05594 0.83708-0.05594c0.8105 0 0.84305 0.01155 1.0251 0.36359 0.10341 0.19998 0.15562 0.41602 0.11602 0.48009-0.0396 0.06408-0.40988 0.1165-0.82283 0.1165-0.7413 0-0.75341-0.0054-0.9531-0.42415zm1.9781 0.03936c-0.134-0.21164-0.21714-0.42768-0.18474-0.48009s0.40056-0.0953 0.81815-0.0953c0.67455 0 0.78089 0.03301 0.9531 0.29583 0.36464 0.55651 0.27138 0.66435-0.57452 0.66435-0.73403 0-0.77924-0.0172-1.012-0.38479zm1.9635 0.03069c-0.29136-0.56345-0.24652-0.60607 0.63778-0.60607 0.76319 0 0.83068 0.02149 0.96018 0.3057 0.26817 0.58857 0.20394 0.65448-0.63778 0.65448-0.7391 0-0.78601-0.0173-0.96018-0.35411zm1.9204 0c-0.29124-0.56321-0.24635-0.60607 0.63482-0.60607 0.81193 0 0.81935 0.003 1.0124 0.40785 0.10697 0.22432 0.16199 0.44036 0.12225 0.48009-0.0398 0.03974-0.41292 0.07224-0.8293 0.07224-0.71695 0-0.76676-0.01875-0.94018-0.35411zm1.9395-0.07005c-0.11124-0.23328-0.20226-0.44932-0.20226-0.48009s0.37669-0.05594 0.83708-0.05594c0.81049 0 0.84304 0.01155 1.0251 0.36359 0.10341 0.19998 0.15562 0.41602 0.11602 0.48009-0.0396 0.06408-0.40987 0.1165-0.82283 0.1165-0.7413 0-0.75341-0.0054-0.9531-0.42415zm1.9568 0.03408c-0.13081-0.21454-0.23803-0.43058-0.23828-0.48009-0.00024-0.04951 0.37624-0.09002 0.83663-0.09002 0.81049 0 0.84304 0.01155 1.0251 0.36359 0.10342 0.19998 0.15562 0.41602 0.11603 0.48009-0.0396 0.06408-0.39367 0.1165-0.78682 0.1165-0.67766 0-0.72718-0.02028-0.95265-0.39007zm30.764 0.30044c0.71322-0.02126 1.8474-0.02118 2.5205 0.00012 0.67304 0.02136 0.0895 0.03874-1.2968 0.03865-1.3863-0.000099-1.9369-0.01757-1.2237-0.03882zm-3.8472-0.1194c0.44558-0.02309 1.1747-0.02309 1.6203 0 0.44559 0.02309 0.081 0.04199-0.81015 0.04199-0.89117 0-1.2557-0.01889-0.81015-0.04199zm-2.7005-0.1195c0.34657-0.02425 0.91368-0.02425 1.2602 0 0.34657 0.02424 0.063 0.04408-0.63012 0.04408-0.69313 0-0.97668-0.01984-0.63012-0.04408zm4.1408-0.12075c0.5116-0.0225 1.3488-0.0225 1.8604 0s0.093 0.0409-0.93018 0.0409-1.4418-0.0184-0.93017-0.0409zm-2.9962-0.11963c0.38198-0.02389 0.97609-0.02367 1.3202 0.00048 0.34415 0.02417 0.0316 0.04371-0.69452 0.04344-0.72613-0.00024-1.0077-0.02004-0.62573-0.04393zm-40.213-1.313c0.11552-0.03019 0.30456-0.03019 0.42008 0s0.021 0.05489-0.21004 0.05489c-0.23105 0-0.32556-0.0247-0.21004-0.05489zm9.9543-0.11473c-0.17914-0.14523-0.30169-0.40454-0.34548-0.73104-0.0626-0.46639-0.0426-0.5156 0.25542-0.62889 0.20301-0.07719 2.0059-0.11629 4.8463-0.10512 3.49 0.01373 4.2352 0.04099 3.2628 0.11936-0.69313 0.05586-1.8273 0.0803-2.5205 0.05431-0.83659-0.03137-1.0585-0.01731-0.66013 0.04182l0.60012 0.08907-0.5101 0.01886c-0.45905 0.01697-0.51009 0.04887-0.51009 0.31891 0 0.275 0.0476 0.30181 0.5701 0.32102l0.57011 0.02096-0.53775 0.0473c-0.29576 0.02601-0.61476 0.11109-0.70889 0.18907-0.14149 0.11721-0.1107 0.15491 0.17768 0.21759 0.19185 0.0417-0.35888 0.08221-1.2239 0.09002-0.86498 0.0078-1.8912 0.04742-2.2804 0.08801-0.58561 0.06108-0.75563 0.03498-0.98534-0.15126zm3.3382-0.14651 0.90017-0.0761v-0.5401-0.5401l-1.6037-0.03358c-1.9088-0.03998-1.9911-0.0044-1.7606 0.76145 0.088 0.29257 0.11348 0.50314 0.0566 0.46793-0.11526-0.07124-0.29742-0.87159-0.25167-1.1058 0.0318-0.1629-0.23702-0.19072-0.68479-0.07086-0.25429 0.06807-0.27676 0.12623-0.218 0.56426 0.11462 0.85461 0.15428 0.86099 3.5621 0.57289zm2.8205-0.01609 1.2002-0.07353-0.90017-0.03272c-0.49509-0.018-0.82756-0.06166-0.7388-0.09704 0.0888-0.03537 0.84489-0.02402 1.6803 0.02522 2.0139 0.11872 1.574 0.28577-0.70147 0.26641-1.72-0.01463-1.7263-0.01567-0.5401-0.08834zm-12.532-0.679c-0.006-0.14303-0.077-0.28729-0.1595-0.32058-0.11751-0.04742-0.1167-0.06259 0.004-0.07001 0.18219-0.01123 0.31467 0.27857 0.22707 0.49666-0.034 0.08469-0.0661 0.03697-0.0714-0.10606zm34.403-3.809c-0.0493-0.78578-0.0672-1.4511-0.0398-1.4785 0.0738-0.07385 0.22336 2.1286 0.17291 2.5471-0.0239 0.19804-0.0838-0.28284-0.13306-1.0686zm-26.371 1.1187c0-0.05475-0.39157-0.11819-0.87017-0.14097l-0.87016-0.04142 0.96553-0.02385 0.96551-0.02384 0.44718-0.58638c0.70928-0.93006 1.2224-1.0927 3.8493-1.2202 1.1957-0.05804 2.8393-0.10738 3.6523-0.10964 1.3755-0.0038 1.5049-0.02432 1.8604-0.29469 0.21014-0.15982 0.65236-0.39685 0.98271-0.52673 0.69578-0.27355 3.047-0.86765 3.3764-0.85314 0.12305 0.0054-0.34044 0.14343-1.03 0.30668-1.5782 0.37365-2.5891 0.71112-3.1271 1.0439l-0.42008 0.25984 0.9864 0.06001c0.65545 0.03988 1.044 0.12041 1.1582 0.24004 0.12637 0.13243 0.79682 1.7815 0.79585 1.9575-0.00007 0.01257-2.8626 0.02951-6.3612 0.03764-3.4986 0.0081-6.3611-0.03001-6.3611-0.08476zm4.2008-0.33792c0-0.12532 0.16009-0.53219 0.35575-0.90416l0.35576-0.6763-1.1059 0.07421c-1.5745 0.10565-2.3234 0.33788-2.8187 0.87398-0.82508 0.89317-0.87458 0.86012 1.2885 0.86012 1.8103 0 1.9246-0.01354 1.9246-0.22786zm3.7857-0.67231c0.16171-0.46209 0.29424-0.85366 0.29453-0.87016 0.00024-0.0165-0.70093-0.03001-1.5583-0.03001h-1.5588l-0.2758 0.45008c-0.31396 0.51234-0.56736 1.0658-0.56736 1.2392 0 0.07288 0.64178 0.10499 1.6858 0.08437l1.6858-0.0333 0.294-0.84016zm4.2035 0.10573c-0.1586-0.43694-0.34205-0.84813-0.40766-0.91374-0.18518-0.18517-1.1058-0.25012-2.2246-0.15692l-1.0187 0.08485-0.30879 0.77136c-0.16984 0.42425-0.30881 0.82481-0.30881 0.89012 0 0.07416 0.85565 0.11876 2.2784 0.11876h2.2784l-0.28837-0.79444zm27.671 0.34436c-0.008-0.41258-0.0679-0.75014-0.13394-0.75014-0.066 0-0.12002 0.08102-0.12002 0.18003 0 0.13774-0.15181 0.18003-0.64613 0.18003-0.5686 0-0.65481-0.03241-0.7185-0.27005-0.17371-0.6482-0.1309-0.69013 0.7045-0.69013 0.84134 0 0.88666-0.046 0.59703-0.60607-0.17061-0.32992-0.23414-0.35566-0.93017-0.3768l-0.74706-0.02269 0.69013-0.0433c0.37957-0.02382 0.6893-0.08112 0.68829-0.12733-0.008-0.3609-0.26131-0.38178-6.1755-0.50883-3.292-0.07072-6.0808-0.17955-6.1971-0.24184-0.27834-0.14896-0.39356-0.53546-0.23884-0.80121 0.068-0.11685 0.12534-0.14881 0.12734-0.071 0.006 0.22369 0.35805 0.51867 0.61942 0.51867 0.1312 0 0.20518-0.05401 0.16438-0.12002-0.0479-0.07757 0.45648-0.12002 1.4261-0.12002 0.87071 0 1.5314 0.05036 1.5744 0.12002 0.12183 0.19712 0.28278 0.13795 0.49159-0.18074 0.53748-0.82029-0.85142-1.7339-2.6425-1.7382-0.38284-0.00096-0.66789 0.06847-0.81016 0.19721-0.44312 0.40102-0.17849-0.06233 1.1364-1.9897 1.7034-2.4971 1.6668-2.4741 3.9252-2.4585 1.6153 0.01121 2.6926 0.13452 4.2331 0.48457 0.89799 0.20404 1.966 0.84849 4.3884 2.6479 2.7975 2.0781 3.6237 3.1633 2.904 3.8146-0.21483 0.19442-0.45402 0.20926-2.585 0.16042-1.9791-0.04535-2.3381-0.0274-2.2837 0.11424 0.0355 0.09243 0.0645 0.19064 0.0645 0.21824s0.41858 0.06092 0.93017 0.07405l0.93018 0.02384-0.87053 0.04143-0.87052 0.04143 0.20066 0.38481c0.20069 0.38486 0.36303 1.9751 0.24795 2.4288-0.033 0.13006-0.0662-0.10109-0.0739-0.51367zm-0.37399-0.63012c0-0.06601-0.24304-0.12002-0.5401-0.12002-0.29705 0-0.5401 0.05401-0.5401 0.12002s0.24305 0.12002 0.5401 0.12002c0.29706 0 0.5401-0.05401 0.5401-0.12002zm-9.6271-2.9691c-0.37699-0.02374-1.0251-0.02393-1.4403-0.00048-0.41517 0.0235-0.10673 0.04293 0.68542 0.04317s1.1318-0.01899 0.75485-0.04274zm5.9594-1.2955c0.12814-0.09692 0.32509-0.17622 0.43766-0.17622 0.38464 0 0.18942-1.105-0.40124-2.2711l-0.52147-1.0295-1.9744 0.02635c-1.0859 0.01449-2.3678 0.05978-2.8486 0.10064l-0.87421 0.07429-0.71608 1.065c-0.39385 0.58574-0.7161 1.0976-0.7161 1.1376 0 0.03992 0.1464 0.0555 0.32532 0.03461 0.23234-0.02712 0.3453-0.12346 0.39526-0.33707 0.12412-0.53077 0.49719-0.62197 2.22-0.54268 1.4138 0.06507 1.5813 0.09668 1.7845 0.33677 0.18652 0.22042 0.2125 0.39106 0.15455 1.0151l-0.0697 0.75014 1.2857-0.0038c0.93992-0.0028 1.3484-0.05122 1.5187-0.18003zm5.7543-0.11198c0.10661-0.16271 0.19384-0.32152 0.19384-0.35291 0-0.11857-2.1368-1.8161-2.986-2.3721-1.2874-0.84296-1.4304-0.78858-0.80637 0.30654 0.27782 0.48752 0.66414 1.2454 0.85849 1.6841l0.35336 0.79772 0.66012-0.07086c0.49258-0.05288 0.72105-0.02435 0.90017 0.11241 0.34705 0.26497 0.60549 0.23216 0.82635-0.10493zm-44.766 4.9512c0.17751-0.13834 0.19347-0.19934 0.0719-0.27453-0.0933-0.05764-0.20963-0.02871-0.28824 0.07169-0.15621 0.19953-1.4174 0.13098-1.6374-0.089-0.10037-0.10037 0.38174-0.13585 1.8678-0.13746 2.0567-0.0022 2.4701 0.12871 1.01 0.31987-0.42468 0.0556-0.88017 0.14298-1.0122 0.19418-0.23356 0.09058-0.23388 0.08829-0.0118-0.08476zm-0.73666-0.29899c-0.14762-0.02848-0.41767-0.02923-0.60012-0.0016-0.18244 0.02759-0.0617 0.0509 0.26841 0.0518 0.33006 0.00088 0.47933-0.02167 0.33171-0.05016zm1.9187-0.00024c-0.14852-0.02861-0.39157-0.02861-0.5401 0-0.14853 0.0286-0.027 0.05202 0.27005 0.05202s0.41858-0.02341 0.27005-0.05202zm-3.9901-1.096c0-0.19224 0.97566-0.80372 1.7345-1.0871 0.64144-0.2395 4.1922-0.89794 4.4246-0.82048 0.0753 0.02509-0.29404 0.11358-0.82069 0.19664-3.0622 0.48298-4.3014 0.8641-5.0083 1.5403-0.18153 0.17365-0.33006 0.25042-0.33006 0.1706zm6.2491-0.20945c0.22972-0.27678 1.3653-0.82367 2.3325-1.1233 0.93054-0.28826 8.4178-1.6084 8.6286-1.5214 0.0897 0.037 0.0861 0.05795-0.0111 0.06433-0.0793 0.0052-1.8616 0.30304-3.9607 0.66184-4.1214 0.70445-5.3476 1.025-6.442 1.684-0.38773 0.23349-0.63401 0.33901-0.54728 0.23451zm11.915 0.01199c0.24723-0.18456 1.1358-0.36577 1.2472-0.25435 0.0395 0.03956-0.0586 0.07429-0.21813 0.07719-0.15952 0.0029-0.50609 0.08108-0.77014 0.17374-0.40009 0.1404-0.44324 0.14097-0.25898 0.0034zm25.884-0.24243c0-0.13336 0.14003-0.18003 0.5401-0.18003 0.40008 0 0.54011 0.04667 0.54011 0.18003s-0.14003 0.18003-0.54011 0.18003c-0.40007 0-0.5401-0.04667-0.5401-0.18003zm0.81155-0.02245c-0.11475-0.03004-0.33079-0.03113-0.48009-0.0024-0.14929 0.02871-0.0554 0.05329 0.20864 0.05462 0.26405 0.0014 0.38621-0.02216 0.27145-0.0522zm10.861 0.11652c0.18153-0.0275 0.47859-0.0275 0.66012 0s0.03301 0.05-0.33006 0.05-0.5116-0.0225-0.33006-0.05zm-2.6105-0.15408-0.96018-0.07601 0.84016-0.008c0.46209-0.0044 1.1912 0.03148 1.6203 0.07971l0.78015 0.08769-0.66012-0.0037c-0.36307-0.0021-1.0922-0.03791-1.6203-0.07971zm-33.066-0.11966c0.55501-0.10542 1.5195-0.15598 1.4303-0.07497-0.0275 0.02498-0.48209 0.07515-1.0102 0.11149-0.72182 0.04967-0.8261 0.04061-0.42008-0.03652zm30.519-0.08873c0.31555-0.02481 0.80164-0.02451 1.0802 0.00072 0.27856 0.02517 0.02039 0.04547-0.57373 0.0451-0.59411-0.000361-0.82202-0.02096-0.50648-0.04577zm-28.57-0.121c0.24755-0.02589 0.65263-0.02589 0.90017 0 0.24755 0.02589 0.045 0.04708-0.45009 0.04708s-0.69762-0.02119-0.45008-0.04708zm26.049-0.0014c0.38198-0.02389 0.97609-0.02367 1.3202 0.00048 0.34416 0.02416 0.03162 0.04371-0.69451 0.04344-0.72614-0.000241-1.0077-0.02004-0.62574-0.04393zm-24.069-0.12c0.34657-0.02425 0.91368-0.02425 1.2602 0 0.34657 0.02424 0.063 0.04408-0.63012 0.04408-0.69313 0-0.97668-0.01984-0.63012-0.04408zm3.1871-0.12116c0.71322-0.02126 1.8474-0.02118 2.5205 0.00012 0.67305 0.02136 0.0895 0.03874-1.2968 0.03865-1.3863-0.000098-1.9369-0.01757-1.2237-0.03882zm12.236-0.000002c0.77564-0.02091 2.0449-0.02091 2.8205 0 0.77564 0.02091 0.14102 0.03802-1.4103 0.03802s-2.1859-0.01711-1.4103-0.03802zm-18.093-0.93762c0.39607-0.08937 0.85516-0.15956 1.0202-0.15598 0.16503 0.0036-0.051 0.07892-0.48009 0.1674-1.0167 0.20966-1.4767 0.19993-0.5401-0.01142zm-12.002-0.4823c1.6503-0.2899 3.2166-0.55401 3.4806-0.58692l0.48009-0.05982-0.48009 0.12286c-0.70656 0.18082-5.9608 1.0749-6.2412 1.062-0.13203-0.0061 1.1102-0.24822 2.7605-0.53812zm13.535 0.22616c0.11677-0.03043 0.2788-0.02843 0.36006 0.0045 0.0813 0.03288-0.0143 0.05778-0.21232 0.05533-0.19804-0.0025-0.26453-0.02934-0.14774-0.05978zm1.768-0.27479c0.69313-0.12346 1.4223-0.22165 1.6203-0.2182 0.43893 0.0077-1.1619 0.28748-2.1604 0.37765-0.45442 0.04104-0.25514-0.01779 0.5401-0.15945zm3.3006-0.49417c0.72614-0.12337 1.4013-0.20896 1.5003-0.1902 0.20924 0.03965-2.2783 0.44903-2.6029 0.42836-0.11971-0.0076 0.37645-0.1148 1.1026-0.23817zm29.282 12.034 0.79589-0.37244-0.07862-0.41911c-0.06047-0.32233-0.01494-0.52215 0.19718-0.86537 0.20336-0.32904 0.22742-0.4277 0.09158-0.37557-0.10132 0.03888-0.69883 0.13547-1.3278 0.21464l-1.1436 0.14394-0.19572 0.89074c-0.28548 1.2992-0.2892 1.2857 0.33472 1.2154 0.29174-0.03289 0.8886-0.22739 1.3263-0.43223zm-6.21-1.5469c-0.02598-0.24902-0.04767-0.07469-0.04821 0.3874-0.00048 0.46209 0.02072 0.66583 0.04724 0.45276s0.02695-0.59114 0.00096-0.84016zm-56.085 0.552c0.0659-0.06064-0.22488-0.1048-0.69013-0.1048h-0.80415v-0.5401-0.5401h-0.43251-0.43252l0.37251 0.42426c0.20487 0.23334 0.37925 0.47638 0.3875 0.5401 0.0136 0.10501 0.0506 0.27219 0.09 0.40723 0.0265 0.09073 1.3911-0.07798 1.5093-0.18659zm-1.3968 0.05326c0.0866-0.03467 0.19016-0.03041 0.23005 0.0095 0.0398 0.03988-0.031 0.06825-0.15754 0.06304-0.13982-0.0058-0.16825-0.0342-0.0725-0.07251zm1.5828-0.69816v-0.42008h-0.78015-0.78015v0.42008 0.42008h0.78015 0.78015v-0.42008zm62.151-0.349c1.1197-0.16814 1.5166-0.29983 0.97133-0.32232l-0.29006-0.01197 0.30006-0.08292c0.25205-0.06965 0.32387-0.19735 0.44891-0.79819 0.08187-0.3934 0.13588-0.8773 0.12002-1.0753l-0.02884-0.36007-1.5303-0.03359-1.5303-0.03359v1.3372 1.3372l0.39007-0.06702c0.21454-0.03686 0.71413-0.09387 1.1102-0.12667l0.72014-0.05965-0.72014 0.12013c-1.0018 0.16711-1.6056 0.31955-1.3202 0.33329 0.13202 0.0064 0.74362-0.06406 1.3591-0.15648zm-63.368-5.172c0.0836-0.23106 0.28825-0.58213 0.45486-0.78015l0.30295-0.36002h-0.42002c-0.38624 0-0.445 0.05015-0.7308 0.62368-0.38228 0.76712-0.38859 0.93662-0.0349 0.93662 0.20643 0 0.31422-0.10585 0.42786-0.42012zm2.5474-0.27161c0.10486-0.31268 0.23216-0.66302 0.28288-0.77854 0.0832-0.18945 0.005-0.21004-0.79832-0.21004-0.81664 0-0.91619 0.0274-1.1994 0.33006-0.27821 0.29734-0.69629 0.99642-0.69629 1.1643 0 0.03629 0.4996 0.06525 1.1102 0.06436l1.1102-0.0016 0.19067-0.5685zm2.7131 0.0618c-0.10126-0.7549-0.49986-1.0504-1.4169-1.0504h-0.72019l-0.22046 0.5101c-0.48939 1.1324-0.56933 1.0502 1.0218 1.0502h1.4042l-0.0684-0.50991zm19.999-5.449 2.6192-0.08083 0.71868-1.4337c0.39527-0.78852 0.68388-1.4685 0.64136-1.511-0.0425-0.04252-0.78844-0.07631-1.6576-0.07508-1.4686 0.0021-1.6596 0.02974-2.7011 0.39135-1.189 0.41279-3.9586 1.7785-5.0603 2.4953l-0.66012 0.42949 1.7403-0.06737c0.95718-0.03705 2.919-0.10375 4.3596-0.1482zm13.751-1.9693 0.52758-0.7513-0.75522 0.07893c-0.41537 0.04342-1.18 0.07894-1.6992 0.07894h-0.94396l0.5132 0.63012c0.28225 0.34656 0.64394 0.84173 0.80376 1.1004l0.29059 0.47024 0.36782-0.428c0.20231-0.2354 0.60525-0.76608 0.89541-1.1793zm-7.1373 0.66049c0.23573-0.04422 0.4284-0.1149 0.42815-0.15706-0.0006-0.1128-0.46597-0.85681-0.53586-0.85681-0.0329 0-0.20046 0.27766-0.37242 0.61702-0.22956 0.45302-0.26426 0.59844-0.13057 0.54714 0.10016-0.03843 0.37497-0.10606 0.6107-0.15028zm-4.4923-3.4623c3.3056-0.3396 6.4267-0.46486 9.7653-0.39192 1.7914 0.03914 3.4732 0.11622 3.7373 0.1713 0.39617 0.08263 0.53951 0.05716 0.81993-0.14569 0.2784-0.20139 0.58215-0.25667 1.6803-0.30583l1.3405-0.06001-0.84016-0.09083c-0.46209-0.04996-2.4875-0.12434-4.5008-0.16529-3.9134-0.0796-8.0111 0.06984-10.411 0.37967-1.3101 0.16914-3.7333 0.70947-3.8714 0.86323-0.0331 0.03695 0.0747 0.035 0.23976-0.0043 0.16503-0.03933 1.0832-0.15196 2.0404-0.2503z"/>
 </g>
</svg>
