<?xml version="1.0" encoding="UTF-8" standalone="no"?>
<!-- Created with Inkscape (http://www.inkscape.org/) -->
<svg id="svg2" xmlns:rdf="http://www.w3.org/1999/02/22-rdf-syntax-ns#" xmlns="http://www.w3.org/2000/svg" height="54" width="99" version="1.1" xmlns:cc="http://creativecommons.org/ns#" xmlns:dc="http://purl.org/dc/elements/1.1/">
 <metadata id="metadata7">
  <rdf:RDF>
   <cc:Work rdf:about="">
    <dc:format>image/svg+xml</dc:format>
    <dc:type rdf:resource="http://purl.org/dc/dcmitype/StillImage"/>
    <dc:title/>
   </cc:Work>
  </rdf:RDF>
 </metadata>
 <g id="g3491">
  <g id="g3871">
   <g id="g4614">
    <g id="g5219">
     <g id="g5689">
      <g id="g6406">
       <g id="g7263">
        <g id="g8053">
         <g id="g8717">
          <g id="g9406">
           <g id="g9898">
            <g id="g10207">
             <g id="g10407">
              <g id="g10743">
               <g id="g11282">
                <g id="g15079">
                 <g id="g15585">
                  <g id="g16769">
                   <g id="g17492">
                    <g id="g17976">
                     <g id="g18386">
                      <g id="g19746">
                       <g id="g20846">
                        <g id="g21376">
                         <g id="g21705">
                          <g id="g22212">
                           <g id="g26871">
                            <g id="g28064">
                             <g id="g28748">
                              <g id="g29219">
                               <g id="g29819">
                                <g id="g30460">
                                 <g id="g30889">
                                  <g id="g31297">
                                   <g id="g32232">
                                    <g id="g32638">
                                     <g id="g32923">
                                      <g id="g33249">
                                       <g id="g33609">
                                        <rect id="rect2990" opacity="0" height="54" width="99" y="0" x="0"/>
                                        <g id="layer1" transform="translate(268.06997,8.0264494)">
                                         <g id="logo39" transform="matrix(0.22355073,0,0,0.22355073,-263.56994,0.06297424)">
                                          <path id="path96423" d="m366.98,135.62c11.739-1.659,25.879-4.518,30.748-9.062,5.625-5.25,4.875-20.25,2.625-28.5s-5.625-20.625-10.125-24-32.25-14.625-74.625-23.25c0,0-3.75-2.25-6.75-3.375s-4.125-0.375-4.125-0.375l-50.64-31.872s-19.125-14.625-100.12-14.625c-77.633,0-100.5,27.75-108.38,36-7.875,8.25-14.25,7.875-22.875,10.875s-15,6.375-15.375,12.375-0.75,12.375-0.75,12.375-5.625,5.25-6,11.25c-0.515,8.243,4.875,12.375,5.625,16.5,0.629,3.459,7.323,6.655,14.333,8.48l0.429,0.101c0.418,0.424,0.985,0.686,1.738,0.793,0.375,10.5,3.75,15.375,3.75,15.375s-8.625,0.375-7.125,2.625,5.25,3.375,11.625,4.5c0.375,1.125,1.875,2.625,1.875,2.625s-4.5,3,3,4.5,21.375,1.875,33-0.375l1.5-0.375s-0.75,1.5,3,2.25c0,0,27,3.375,58.125,7.875s47.25,8.25,54.75,9,14.625,0.75,14.625,0.75l1.875,1.125s-5.25,1.125-5.25,3.375,4.5,5.25,28.125,5.25,36-2.25,36-2.25,0.375,1.875,13.875,2.625,49.981,2.665,90-2.25c42.75-5.25,54.375-21.75-1.125-26.25-4.875,5.25-12.375,6.375-12.375,6.375s8.489-2.377,14.481-10.362l0.521-0.075z" fill="#FFF"/>
                                          <path id="path96425" d="m180.6,57.938c0-7.125-4.31-13.097-12-24.375-11.25-16.5-15.375-24.75-42.375-25.125s-51.284,4.081-70.875,21c-16.5,14.25-2.604,18.262,6,19.875,18,3.375,64.5,5.625,89.625,7.125s29.625,1.5,29.625,1.5z"/>
                                          <path id="path96427" d="m167.85,35.438c4.125,5.625,9.75,15.375,10.125,19.875,0,0-7.125,1.125-9,0s-3.375-1.5-6.375-1.125-13.875,1.5-18.75,0.375-4.5-6.75-1.875-9.375,13.125-5.25,17.25-1.875,6.375,6,7.125,2.625,1.5-10.5,1.5-10.5z" fill="#FFF"/>
                                          <path id="path96429" d="M168.85,37.438c-12.88-19.375-17.88-27.125-45.63-27.125-6.375,11.625-10.875,29.25-11.625,41.25" stroke="#FFF" stroke-width="0.375" fill="none"/>
                                          <path id="path96431" d="m80.472,17.063-15.75,16.875c-2.25,2.25-4.125,9-4.125,11.625" stroke="#FFF" stroke-width="0.375" fill="none"/>
                                          <path id="path96433" d="m54.222,42.938s1.875-4.5,6.75-9.375l15.375-15" stroke="#FFF" stroke-width="0.375" fill="none"/>
                                          <path id="path96435" d="m117.97,10.313c-9,13.5-14.25,23.25-15.75,40.125" stroke="#FFF" stroke-width="0.375" fill="none"/>
                                          <path id="path96437" d="m120.47,10.438c-9,18.375-12.25,21.625-14.125,40" stroke="#FFF" stroke-width="0.375" fill="none"/>
                                          <polygon id="polygon96439" points="65.847,116.06,65.847,117.56,178.35,131.06,178.35,129.56"/>
                                          <path id="path96441" d="m22.722,109.31c0.375,10.5,3.75,15.375,3.75,15.375s-8.625,0.375-7.125,2.625,5.25,3.375,11.625,4.5c0.375,1.125,1.875,2.625,1.875,2.625s-4.5,3,3,4.5,21.375,1.875,33-0.375l1.5-0.375s-0.75,1.5,3,2.25c0,0,27,3.375,58.125,7.875s47.25,8.25,54.75,9,14.625,0.75,14.625,0.75l1.875,1.125s-5.25,1.125-5.25,3.375,4.5,5.25,28.125,5.25,36-2.25,36-2.25,0.375,1.875,13.875,2.625,49.981,2.665,90-2.25c42.75-5.25,54.375-21.75-1.125-26.25-4.875,5.25-12.375,6.375-12.375,6.375s9.375-2.625,15.375-11.625c-29.25,4.875-61.875,7.875-109.5,6.75-3-1.125-2.625-6.75-2.625-6.75-4.875-7.5-4.5-14.625-11.625-29.625s-23.25-24-39.75-19.875-27.375,34.125-15.75,44.25c0.75,2.625,1.875,8.25-1.875,8.25s-13.875-1.5-24.75-3.75-24-4.875-52.125-7.125-42-4.875-45.375-5.25-2.625-6.75-2.625-6.75c-4.125,0-5.625-7.5-10.125-19.875s-10.125-22.5-21.75-19.875-12,20.25-9.375,27.375c-0.375,4.5,0,6.75,2.625,7.125z"/>
                                          <ellipse id="ellipse96443" d="m 266.652,112.69 c 0,4.39343 -1.42463,7.955 -3.182,7.955 -1.75737,0 -3.182,-3.56157 -3.182,-7.955 0,-4.39342 1.42463,-7.955 3.182,-7.955 1.75737,0 3.182,3.56158 3.182,7.955 z" cx="263.47" cy="112.69" rx="3.182" ry="7.955" transform="matrix(-0.0267,0.9996,-0.9996,-0.0267,383.1548,-147.6817)" stroke="#000" stroke-width="0.75" fill="none"/>
                                          <path id="path96445" d="m12.826,87.242c0.828,0.042,1.533-0.594,1.575-1.421l0.135-2.621c0.042-0.828-0.594-1.533-1.421-1.575l-2.247-0.115c-0.828-0.043-1.533,0.593-1.575,1.421l-0.135,2.622c-0.042,0.827,0.594,1.532,1.421,1.575l2.247,0.114z" stroke="#000" stroke-width="0.75" fill="none"/>
                                          <path id="path96447" d="m24.597,109.31c-8.25-1.5-17.625-5.25-18.375-9.375s-6.14-8.257-5.625-16.5c0.375-6,6-11.25,6-11.25s0.375-6.375,0.75-12.375,6.75-9.375,15.375-12.375,15-2.625,22.875-10.875,30.742-36,108.38-36c81,0,100.12,14.625,100.12,14.625l50.625,31.875s1.125-0.75,4.125,0.375,6.75,3.375,6.75,3.375c42.375,8.625,70.125,19.875,74.625,23.25s7.875,15.75,10.125,24,3,23.25-2.625,28.5-23.625,8.25-36,9.75" stroke="#000" stroke-width="1.125" fill="none"/>
                                          <path id="path96449" d="m398.1,116.06-1.125,5.625s-11.625,11.625-11.25,5.25c0.37-6.37,12.37-10.87,12.37-10.87z"/>
                                          <path id="path96451" d="m347.47,95.438c-3.375,0.75-2.269,4.008,1.125,4.125,10.875,0.375,35.625-1.5,38.25-3.375s1.497-4.744-1.125-4.875c-7.5-0.375-27.375,1.875-38.25,4.125z"/>
                                          <path id="path96453" d="m324.22,125.81c-3,0.375-3.75,7.125,20.25,7.125s15.75-9.75,7.5-9.75-18,1.125-27.75,2.625z"/>
                                          <path id="path96455" d="m282.22,87.188c-3.75,12.75,35.25,21,38.625,10.125s-33.75-22.5-38.625-10.125z" stroke="#000" stroke-width="1.125" fill="#FFF"/>
                                          <path id="path96457" d="m391.35,87.563c-2.281,2.281,0.129,7.939,2.25,9,4.5,2.25,0.375-11.625-2.25-9z" stroke="#000" stroke-width="0.75" fill="none"/>
                                          <path id="path96459" d="m391.35,74.813c-4.125-2.25,4.5,22.5,6,15.375" stroke="#000" stroke-width="1.125" fill="#FFF"/>
                                          <path id="path96461" d="m312.6,86.813c10.5-0.375,15.375-0.375,26.25-3.75s22.244-7.583,37.5-3.375c10.875,3,14.625-0.375,14.625-0.375" stroke="#000" stroke-width="1.125" fill="#FFF"/>
                                          <path id="path96463" d="m190.35,57.938-29.625-39c-2.25-3-4.5-6,4.125-7.5s21.375-4.5,45.375-3.75,33.375,3,40.875,7.125,52.5,31.875,52.5,31.875l5.25,0.75c2.25,0.75,6.375,4.5,6.375,4.5s-11.625,1.125-19.5,0-35.25,0-47.25,1.875-40.5,4.5-58.125,4.125z"/>
                                          <ellipse id="ellipse96465" d="m 245.554,131.81 c 0,14.05896 -10.44699,25.456 -23.334,25.456 -12.88701,0 -23.334,-11.39704 -23.334,-25.456 0,-14.05896 10.44699,-25.456 23.334,-25.456 12.88701,0 23.334,11.39704 23.334,25.456 z" cx="222.22" rx="23.334" cy="131.81" ry="25.456" fill="#FFF"/>
                                          <ellipse id="ellipse96467" d="m 243.221,131.81 c 0,12.65284 -9.40247,22.91 -21.001,22.91 -11.59853,0 -21.001,-10.25716 -21.001,-22.91 0,-12.65285 9.40247,-22.91 21.001,-22.91 11.59853,0 21.001,10.25715 21.001,22.91 z" cx="222.22" rx="21.001" cy="131.81" ry="22.91" stroke="#000" stroke-width="0.375" fill="none"/>
                                          <ellipse id="ellipse96469" d="m 232.385,131.81 c 0,6.12428 -4.55102,11.089 -10.165,11.089 -5.61397,0 -10.165,-4.96472 -10.165,-11.089 0,-6.12429 4.55103,-11.089 10.165,-11.089 5.61398,0 10.165,4.96471 10.165,11.089 z" cx="222.22" rx="10.165" cy="131.81" ry="11.089" stroke="#000" stroke-width="0.375" fill="none"/>
                                          <path id="path96471" d="m219.97,110.44c-2.25,0-1.125,5.25,3.375,5.25s5.25-5.25,2.25-5.25h-5.625z"/>
                                          <path id="path96473" d="m210.97,113.44c-2.25,1.875-2.25,2.25-3.375,3.75s1.875,6.375,5.25,3,0-7.875-1.875-6.75z"/>
                                          <path id="path96475" d="m203.47,126.94c0,2.625,0.375,5.25,0.75,7.125s4.875,1.875,4.5-3.75-4.875-4.875-5.25-3.375z"/>
                                          <path id="path96477" d="m207.22,142.69c1.125,1.5,3.375,3,4.875,4.125s2.625-3,1.5-4.125l-1.5-1.875c-1.5-1.125-6.375,0.75-4.875,1.875z"/>
                                          <path id="path96479" d="m227.1,150.94-1.875-4.125s-1.875,0.375-3.375,0.375-4.435,3.095-2.25,3.75c3.75,1.125,7.5,0,7.5,0z"/>
                                          <path id="path96481" d="m238.72,144.19c1.125-1.125-2.25-3.75-3.75-3s-4.125,3.75-2.25,5.625,3.375,0.75,6-2.625z"/>
                                          <path id="path96483" d="m242.47,128.81c-0.375-1.875-4.875-1.5-4.875,2.625s4.125,5.25,4.5,3,0.375-5.625,0.375-5.625z"/>
                                          <path id="path96485" d="m234.6,114.56c-1.875-1.5-3.75,2.625-2.25,4.5,0,0,0.75,0.75,1.875,2.25s5.625,1.125,4.125-2.25-3.75-4.5-3.75-4.5z"/>
                                          <line id="line96487" stroke-width="1.125" x1="230.72" x2="227.22" stroke="#000" stroke-linecap="round" y1="150.69" y2="144.69" fill="none"/>
                                          <line id="line96489" stroke-width="1.125" x1="239.97" x2="234.72" stroke="#000" stroke-linecap="round" y1="139.19" y2="136.94" fill="none"/>
                                          <line id="line96491" stroke-width="1.125" x1="239.47" x2="233.85" stroke="#000" stroke-linecap="round" y1="124.19" y2="126.19" fill="none"/>
                                          <line id="line96493" stroke-width="1.125" x1="229.97" x2="227.47" stroke="#000" stroke-linecap="round" y1="113.44" y2="118.69" fill="none"/>
                                          <line id="line96495" stroke-width="1.125" x1="215.97" x2="218.1" stroke="#000" stroke-linecap="round" y1="112.94" y2="119.06" fill="none"/>
                                          <line id="line96497" stroke-width="1.125" x1="205.72" x2="209.97" stroke="#000" stroke-linecap="round" y1="122.94" y2="125.44" fill="none"/>
                                          <line id="line96499" stroke-width="1.125" x1="203.97" x2="209.72" stroke="#000" stroke-linecap="round" y1="139.19" y2="136.94" fill="none"/>
                                          <line id="line96501" stroke-width="1.125" x1="214.72" x2="217.47" stroke="#000" stroke-linecap="round" y1="150.44" y2="144.94" fill="none"/>
                                          <path id="path96503" d="m212.97,145.69c3.25-3.75,8.25-5,6.75,3.25" stroke="#000" stroke-width="0.375" fill="none"/>
                                          <path id="path96505" d="m225.22,147.94c-1.5-5.25,1.75-8,7.75-2" stroke="#000" stroke-width="0.375" fill="none"/>
                                          <path id="path96507" d="m236.47,141.69c-6.25-4.25-4.5-8.75,4-7" stroke="#000" stroke-width="0.375" fill="none"/>
                                          <path id="path96509" d="m240.22,128.44c-11.25,2.75-9.75-4-3.25-7.25" fill="none"/>
                                          <path id="path96511" d="m232.72,115.94c-5.75,6.75-8.5,6.75-6.25-3" stroke="#000" stroke-width="0.375" fill="none"/>
                                          <path id="path96513" d="m219.72,112.19c1,9.75-1.25,11.5-6.5,3.25" stroke="#000" stroke-width="0.375" fill="none"/>
                                          <path id="path96515" d="m208.97,119.94c5.75,7.25,3.25,8.75-2.75,6.75" stroke="#000" stroke-width="0.375" fill="none"/>
                                          <path id="path96517" d="m206.22,134.44c6.5-0.75,7.75,3,2.75,6.75" stroke="#000" stroke-width="0.375" fill="none"/>
                                          <path id="path96519" d="m39.222,129.69c6.24-0.621,10.967-10.247,10.557-21.5s-5.801-19.873-12.041-19.251c-6.24,0.621-10.967,10.247-10.557,21.5,0.41,11.252,5.801,19.872,12.041,19.251z" fill="#FFF"/>
                                          <path id="path96521" d="m39.148,127.65c5.616-0.559,9.87-9.222,9.501-19.35-0.369-10.127-5.221-17.885-10.837-17.326s-9.87,9.222-9.501,19.35c0.369,10.127,5.221,17.884,10.837,17.326z" stroke="#000" stroke-width="0.375" fill="none"/>
                                          <path id="path96523" d="m38.804,118.19c2.718-0.271,4.777-4.463,4.599-9.365-0.179-4.902-2.527-8.657-5.245-8.386-2.718,0.27-4.777,4.463-4.599,9.365,0.178,4.901,2.526,8.656,5.245,8.386z" stroke="#000" stroke-width="0.375" fill="none"/>
                                          <path id="path96525" d="m36.768,92.311c-1.089,0.108-0.392,4.257,1.787,4.04s2.389-4.455,0.937-4.311c-1.453,0.145-2.724,0.271-2.724,0.271z"/>
                                          <path id="path96527" d="m32.498,95.146c-1.035,1.609-1.024,1.91-1.525,3.164-0.501,1.255,1.093,5.013,2.629,2.148,1.536-2.864-0.229-6.303-1.104-5.312z"/>
                                          <path id="path96529" d="m29.259,106.31c0.076,2.101,0.334,4.184,0.571,5.667,0.236,1.482,2.415,1.266,2.07-3.218-0.346-4.485-2.503-3.668-2.641-2.449z"/>
                                          <path id="path96531" d="m31.534,118.74c0.588,1.146,1.721,2.238,2.48,3.067,0.759,0.828,1.184-2.528,0.606-3.374l-0.781-1.429c-0.758-0.828-3.064,0.908-2.305,1.736z"/>
                                          <path id="path96533" d="m41.398,124.38-1.028-3.211s-0.897,0.391-1.624,0.463c-0.726,0.072-2.057,2.69-0.98,3.11,1.849,0.719,3.632-0.362,3.632-0.362z"/>
                                          <path id="path96535" d="m46.831,118.42c0.512-0.955-1.199-2.893-1.903-2.221s-1.888,3.2-0.925,4.611c0.961,1.411,1.655,0.438,2.828-2.39z"/>
                                          <path id="path96537" d="m48.198,105.94c-0.236-1.483-2.404-0.966-2.284,2.336,0.121,3.302,2.15,4.003,2.267,2.185,0.115-1.82,0.017-4.521,0.017-4.521z"/>
                                          <path id="path96539" d="m43.97,94.908c-0.952-1.11-1.739,2.282-0.958,3.71,0,0,0.385,0.564,0.973,1.71s2.756,0.629,1.932-2c-0.825-2.628-1.947-3.42-1.947-3.42z"/>
                                          <line id="line96541" stroke-width="1.125" x1="43.146" x2="41.276" stroke="#000" stroke-linecap="round" y1="124.01" y2="119.38" fill="none"/>
                                          <line id="line96543" stroke-width="1.125" x1="47.29" x2="44.683" stroke="#000" stroke-linecap="round" y1="114.36" y2="112.81" fill="none"/>
                                          <line id="line96545" stroke-width="1.125" x1="46.611" x2="43.945" stroke="#000" stroke-linecap="round" y1="102.38" y2="104.25" fill="none"/>
                                          <line id="line96547" stroke-width="1.125" x1="41.697" x2="40.64" stroke="#000" stroke-linecap="round" y1="94.23" y2="98.553" fill="none"/>
                                          <line id="line96549" stroke-width="1.125" x1="34.904" x2="36.111" stroke="#000" stroke-linecap="round" y1="94.504" y2="99.305" fill="none"/>
                                          <line id="line96551" stroke-width="1.125" x1="30.232" x2="32.363" stroke="#000" stroke-linecap="round" y1="103" y2="104.8" fill="none"/>
                                          <line id="line96553" stroke-width="1.125" x1="29.858" x2="32.577" stroke="#000" stroke-linecap="round" y1="116.09" y2="114.02" fill="none"/>
                                          <line id="line96555" stroke-width="1.125" x1="35.392" x2="36.563" stroke="#000" stroke-linecap="round" y1="124.58" y2="120.05" fill="none"/>
                                          <path id="path96557" d="m34.406,120.86c1.464-3.158,3.849-4.399,3.363,2.276" stroke="#000" stroke-width="0.375" fill="none"/>
                                          <path id="path96559" d="m40.403,122.07c-0.879-4.13,0.614-6.488,3.694-1.974" stroke="#000" stroke-width="0.375" fill="none"/>
                                          <path id="path96561" d="m45.668,116.53c-3.15-3.101-2.434-6.787,1.733-5.796" stroke="#000" stroke-width="0.375" fill="none"/>
                                          <path id="path96563" d="m47.098,105.74c-5.367,2.743-4.837-2.732-1.785-5.646" fill="none"/>
                                          <path id="path96565" d="m43.102,96.099c-2.588,5.68-3.919,5.812-3.114-2.101" stroke="#000" stroke-width="0.375" fill="none"/>
                                          <path id="path96567" d="m36.698,93.724c0.769,7.756-0.27,9.265-3.053,2.915" stroke="#000" stroke-width="0.375" fill="none"/>
                                          <path id="path96569" d="m31.718,100.44c2.996,5.526,1.829,6.847-1.135,5.536" stroke="#000" stroke-width="0.375" fill="none"/>
                                          <path id="path96571" d="m30.809,112.18c3.126-0.914,3.84,2.028,1.528,5.271" stroke="#000" stroke-width="0.375" fill="none"/>
                                          <path id="path96573" d="m151.97,55.438,14,0.5s-12.75,12.5-20.25,10.25c-5-1.5,6.25-10.75,6.25-10.75z"/>
                                          <path id="path96575" d="m107.22,65.938,10,1s0.75,2.5-4,2.25-6-3.25-6-3.25z"/>
                                          <path id="path96577" d="m49.402,60.543,7.5,0.75s0.563,1.875-3,1.688-4.5-2.438-4.5-2.438z"/>
                                          <path id="path96579" d="m194.47,150.44c-16-29,8.5-60,30.5-56.5,6.5,3,12.5,9.5,12.5,9.5s-9.658-6.216-14-7.5c-17.75-5.25-43.75,23.75-29,54.5z" fill="#FFF"/>
                                          <path id="path96581" d="m163.47,12.938c-7-8-53-13-91.5,4" stroke="#000" stroke-width="0.375" fill="none"/>
                                          <path id="path96583" d="m232.35,10.313c6.938,0.938,16.5,3.563,29.438,11.438s39.188,24.75,39.188,24.75h-3s-22.219-16.219-40.406-26.344-25.22-9.844-25.22-9.844z" fill="#FFF"/>
                                          <path id="path96585" d="m104.47,53.063c-2.25,1.125-3,7.875-3.75,10.875s2.625,6,1.125,13.125-1.125,14.25-1.125,14.25c-1.875,0-2.625,4.125-0.75,4.5-1.125,11.25-0.75,15.75,2.625,22.875" stroke="#000" stroke-width="0.375" fill="none"/>
                                          <path id="path96587" d="m51.972,46.313s-10.125,9.75-10.125,13.875,1.5,10.5,7.125,19.125,7.5,18.75,9,25.125,3,9.75,6,10.5" stroke="#000" stroke-width="0.375" fill="none"/>
                                          <path id="path96589" d="m58.722,114.19,122.62,14.625c3.75,0.75,7.125-1.5,7.125-1.5" stroke="#000" stroke-width="0.375" fill="none"/>
                                          <path id="path96591" d="m179.47,57.188c-1.5,6.375-2.25,11.625-1.875,16.125s-0.27,13.778-1.875,26.625c-2.625,21-1.875,26.25,3.75,28.125-2.25,1.5-2.25,5.25-1.125,9.75" stroke="#000" stroke-width="0.375" fill="none"/>
                                          <path id="path96593" d="M168.22,98.063c-4.47-0.526-106.12-10.875-109.5-10.875-3.375,0-4.875,3.375-0.375,4.125s104.62,11.25,109.5,11.625c4.875,0.375,6.75-4.125,0.375-4.875z" stroke="#000" stroke-width="0.375" fill="none"/>
                                          <ellipse id="ellipse96595" d="m 26.396,60.188 c 0,2.050081 -3.323838,3.712 -7.424,3.712 -4.100162,0 -7.424,-1.661919 -7.424,-3.712 0,-2.050081 3.323838,-3.712 7.424,-3.712 4.100162,0 7.424,1.661919 7.424,3.712 z" cx="18.972" cy="60.188" rx="7.424" ry="3.712" transform="matrix(-0.1505,0.9886,-0.9886,-0.1505,81.3292,50.4904)" stroke="#000" stroke-width="0.375" fill="none"/>
                                          <ellipse id="ellipse96597" d="m 371.50101,85.688004 c 0,2.636055 -1.1869,4.772999 -2.651,4.772999 -1.46411,0 -2.651,-2.136944 -2.651,-4.772999 0,-2.636055 1.18689,-4.773 2.651,-4.773 1.4641,0 2.651,2.136945 2.651,4.773 z" cx="368.85" cy="85.688" rx="2.651" ry="4.773" transform="matrix(0.1037,0.9946,-0.9946,0.1037,415.8315,-290.0558)" stroke="#000" stroke-width="0.375" fill="none"/>
                                          <path id="path96599" d="m342.97,123.56c-19.875,0-28.875,3-28.875,4.875s5.637,7.91,30.75,7.125c24-0.75,25.875-14.625-1.875-12z" stroke="#000" stroke-width="0.375" fill="none"/>
                                          <path id="path96601" d="m366.97,111.56-0.75,10.875-0.75-10.125c-0.375-1.5,0.375-3,4.875-3s13.875-1.5,16.5-1.875,3.375,0.375,3.375,2.625l-0.75,9.75-1.125-10.5c-7.5,2.25-12.375,2.25-21.375,2.25z" stroke="#000" stroke-width="0.375" fill="none"/>
                                          <path id="path96603" d="m290.85,89.813c2.035,13.43,27,15,27.75,6.375s-29.625-18.75-27.75-6.375z" stroke="#000" stroke-width="0.375" fill="none"/>
                                          <path id="path96605" d="m326.47,95.063c-3.835,6.712,13.5,12,15.375,7.5s-12.375-12.75-15.375-7.5z" stroke="#000" stroke-width="0.75" fill="none"/>
                                          <path id="path96607" d="m297.97,84.188c12,1.875,8.625,19.125-2.625,13.125" stroke="#000" stroke-width="0.375" fill="none"/>
                                          <polyline id="polyline96609" stroke="#000" points="282.6,92.063,282.22,99.938,238.72,98.438" stroke-width="0.375" fill="none"/>
                                          <path id="path96611" d="m192.97,57.938c19.875,0.75,73.125,13.875,92.625,25.5" stroke="#000" stroke-width="0.375" fill="none"/>
                                          <path id="path96613" d="m333.22,54.563c25.5,6.75,52.875,21.75,46.125,23.625s-19.5-16.5-74.25-22.125-73.125,0.75-52.5,5.625,34.5,12.75,34.5,12.75-17.25-6-34.125-9.75-40.5-6-24.375-10.5" stroke="#000" stroke-width="0.375" fill="none"/>
                                          <path id="path96615" d="m252.22,133.69c9.375,0.375,19.781,1.609,23.25,4.5,2.25,1.875-16.875-1.125-20.625,0.75" stroke="#000" stroke-width="0.375" fill="none"/>
                                          <path id="path96617" d="m111.72,62.688c-10-1.25-9.371,7.517-0.25,9.5,11.5,2.5,12.25-9.25,0.25-9.5z" stroke="#000" stroke-width="0.375" fill="none"/>
                                          <path id="path96619" d="m157.97,51.688c-5.75,1.25-14.25,2-15.25-0.75s1-7,7.5-7,14,6.25,7.75,7.75z" stroke="#000" stroke-width="0.375" fill="none"/>
                                          <path id="path96621" d="m6.972,61.938c19-4.5,44-1,75,1.5s111.5,11.5,143,19.5" stroke="#000" stroke-width="0.375" fill="none"/>
                                          <path id="path96623" d="m49.597,56.813c-3.375-0.25-3.875,2-3.875,3.5s0.642,4.994,4.125,5.5c7.75,1.125,8.25-0.75,8.625-4.25,0.28-2.614-2.625-4.75-8.875-4.75z" stroke="#000" stroke-width="0.375" fill="none"/>
                                          <g id="g96625" fill="#FFF">
                                           <path id="path96627" d="m113.1,14.813c-5.25,9.75-7.875,17.25-7.875,17.25s-24.75,1.125-33.375,2.25l8.625-9.375c3.75-3.375,7.875-5.25,15.75-6.75s16.875-3.375,16.875-3.375z"/>
                                           <path id="path96629" d="m149.1,20.438c-4.125,5.625-8.25,9-10.875,9.75-3.75-0.375-12.75,0.75-14.625,2.25,0-3-0.375-6.375,0.75-8.625s4.5-8.25,4.5-8.25c7.875-0.375,15.75,2.25,20.25,4.875z"/>
                                           <path id="path96631" d="m214.72,45.563-4.875-19.875c-2.25-0.75-5.25-6-4.5-9-13.5-0.375-29.25,3-29.25,3l-1.5,12.375,8.625,10.5c20.25-2.25,24-2.625,31.5,3z"/>
                                           <path id="path96633" d="m228.97,18.188c1.125,3.75,0.375,4.875-3.75,5.625l10.875,22.5s3.75-1.875,8.625-2.25c6.375-4.125,18-4.875,28.875,0l4.5-1.125-2.25-5.625c-24.38-15.375-34.13-19.125-46.88-19.125z"/>
                                          </g>
                                          <path id="path96635" d="m183.6,38.813c3.717,0.62,12-0.375,15.75,0s10.125-6.75,3.75-11.25-15.511-4.751-19.125-2.625c-6.375,3.75-7.125,12.75-0.375,13.875z"/>
                                          <line id="line96637" stroke-width="0.75" x1="197.47" x2="197.1" stroke="#000" y1="36.938" y2="42.563" fill="none"/>
                                          <line id="line96639" stroke-width="0.75" x1="183.6" x2="185.85" stroke="#000" y1="36.938" y2="43.313" fill="none"/>
                                          <path id="path96641" d="m232.35,42.938,1.125,1.875s11.625-8.625,18.375-2.625l3.75-0.375c-6.75-7.125-16.5-6.75-23.25,1.125z"/>
                                          <polygon id="polygon96643" points="239.91,45.625,243.35,44.625,242.16,42.25,242.97,39.75,237.97,41.688,239.6,42.75"/>
                                          <path id="path96645" d="m230.16,46.563c3-4.375,6.813-8.063,13.188-9.188-4.751,0.813-10.126,5.813-13.188,9.188z" fill="#FFF"/>
                                          <path id="path96647" d="m385.72,124.69c-2.301,4.027-0.375,6,3.75,4.5s9.375-2.25,10.875-7.875,1.875-8.625-3.375-6-9.75,6.75-11.25,9.375z" stroke="#000" stroke-width="0.375" fill="none"/>
                                          <path id="path96649" d="m161.35,44.313c2.25,2.5,1.75,3.125,6,3.125s5.375,6.25,1.375,6.5-7.125,0.5-9,1.5" stroke="#000" stroke-width="0.375" fill="none"/>
                                          <path id="path96651" d="m67.722,122.81c-3-0.375-2.25-5.625-1.875-7.875" stroke="#000" stroke-width="0.375" fill="none"/>
                                          <path id="path96653" d="m6.597,68.813c0,4.875,10.875,2.625,14.625,4.875,0,0,1.5-1.5,3.375-4.125s10.875-4.5,15.75,0,1.875,6-1.875,4.125-10.5-3.75-15.375,1.875-3.75,7.5-21.75,4.875" stroke="#000" stroke-width="0.375" fill="none"/>
                                          <path id="path96655" d="m5.847,98.438c4.875,3,12.75,4.875,15.375,4.5" stroke="#000" stroke-width="0.375" fill="none"/>
                                         </g>
                                        </g>
                                       </g>
                                      </g>
                                     </g>
                                    </g>
                                   </g>
                                  </g>
                                 </g>
                                </g>
                               </g>
                              </g>
                             </g>
                            </g>
                           </g>
                          </g>
                         </g>
                        </g>
                       </g>
                      </g>
                     </g>
                    </g>
                   </g>
                  </g>
                 </g>
                </g>
               </g>
              </g>
             </g>
            </g>
           </g>
          </g>
         </g>
        </g>
       </g>
      </g>
     </g>
    </g>
   </g>
  </g>
 </g>
</svg>
