<?xml version="1.0" encoding="UTF-8" standalone="no"?>
<!-- Created with Inkscape (http://www.inkscape.org/) -->
<svg id="svg2" xmlns:rdf="http://www.w3.org/1999/02/22-rdf-syntax-ns#" xmlns="http://www.w3.org/2000/svg" height="54" width="99" version="1.1" xmlns:cc="http://creativecommons.org/ns#" xmlns:dc="http://purl.org/dc/elements/1.1/">
 <metadata id="metadata7">
  <rdf:RDF>
   <cc:Work rdf:about="">
    <dc:format>image/svg+xml</dc:format>
    <dc:type rdf:resource="http://purl.org/dc/dcmitype/StillImage"/>
    <dc:title/>
   </cc:Work>
  </rdf:RDF>
 </metadata>
 <g id="g3491">
  <g id="g3871">
   <g id="g4614">
    <g id="g5219">
     <rect id="rect2990" opacity="0" height="54" width="99" y="0" x="0"/>
     <g id="layer1" transform="translate(-632.03141,-619.80605)">
      <g id="logo4" transform="matrix(0.16212384,0,0,0.16212384,636.53174,629.95568)">
       <g id="g74382">
        <path id="path74384" d="m366.44,43.216,0.491-31.389-3.12,0.48c-1.44,0-1.92,2.88-1.92,2.88l-6.344,28.203,10.893-0.174,4.005-0.416,2,0.2c0-4.4-0.2-8.6,1.6-10.4s2.6-3.2,8-3.2,14.6,0,20.2,0.2,11,4.8,9.2,14.6c17.2-0.4,18.426,2.336,22.6,2.8,5.4,0.6,7.2-1.4,11.8,0s8.4,3.4,10.8,3.4,4.607,2.49,7.6,2.2c6.2-0.6,6.2,1.2,8.2,1.2s6.8,0.8,6.8,0.8,25.6,1.8,39.8,2.6,17.6,2.8,26,19.4c2.8,4.6,2.6,15.8,2.6,19.4,5.7,0.2,7,0.3,6.7,4.3s-1.2,5.7-4.4,11.6-8.9,17-16.4,20.2c-6.895,2.942-15.733,6.391-18.979,6.617l0.12-0.677c0.737-3.079,2.673-11.544,1.89-12.328-0.96-0.96-1.2-1.92-0.48-3.12s1.68-10.32,1.44-12.24-1.68-6-3.84-6.48-1.225-2.234-1.68-3.6c-2.4-7.2,0.009-13.81-17.28-12.48-15.601,1.2-15.601,5.04-24.24,20.4-8.64,15.36-9.84,21.84-11.04,21.84,0,0,1.44,1.2,1.44,2.16,0,0.909-7.529,14.509-10.979,16.363l-1.419,0.65c-17.233,2.312-72.654,9.757-94.124,12.758l-3.494,0.299-1.584-0.07-9.84,1.44s-15.84,3.84-16.8,2.88,0.72-1.68,1.2-3.6,2.88-11.28,2.16-12-2.4-1.92-2.4-1.92,0.72-0.48,0.96-1.44,1.2-7.92,1.44-13.44-0.741-14.906-9.36-25.68c-9.6-12-25.038-9.544-36.72-1.2-6.72,4.8-11.04,20.88-15.12,24,3.84,1.44,3.36,2.88,2.16,5.28s-6.48,16.32-8.64,18.48,1.2,1.68-0.24,4.32-5.28,9.84-7.2,12-6,3.12-9.84,2.88c-2.18-0.137-47.629-2.048-89.998-4.248-31.265-1.639-61.916-3.502-75.603-5.113l0.046,0.393c-8.53-1.199-16.417-2.891-20.957-3.724-4.9-0.9-6.5-1.4-9.1-4.7s-11.7-19.2-13.7-24-3-8.3,3-9.9,9.6-1.3,9.6-1.3c-2.2-1.8-1.7-9.4,5.7-15-2-7.4-0.4-23.4,12.2-29s47-16.2,106-21c8.2-0.6,14-0.2,22.8-10-4.4,0-8.2-0.2-9.8-4.8s2.2-7.6,6-7.6,12-0.8,12,2.8l23.4-27.4c7.6-7.8,8.4-8.2,15.8-8.6s24.8-0.6,57.6,0.6c24.809,0.908,45.124,2.273,54.957,3.058l0.039,0.132-0.802,6.9s-31.967-3.177-61.607-4.377-3.96,3.6-3.72,4.56,1.44,1.08,1.44,1.08l6.84,0.24c2.76,0.24,4.56,8.28,3.12,8.76s-17.76,0.36-19.8-0.48,0-7.2,1.32-7.92,5.28-0.84,5.28-0.84c-0.96-0.6-0.12-1.92,0.72-2.64s2.52-3,2.52-3-47.879-0.36-52.919-0.36c-5.88,5.64-23.88,30.36-28.68,39.48,0,0,4.56,1.2,6.24,2.64s3.12-0.72,3.36,1.44,43.44-0.72,43.44-0.72,12.12-0.6,18.84-2.16-11.4-2.16-22.2-2.4-19.56-0.72-21.24-0.48-1.92,0.24-1.92,0-0.6-1.56-0.6-1.56l0.36-0.84h1.32l0.48,0.6,3.84-0.24c1.68-1.32,8.4-1.32,13.56-1.2s13.56,0,15,1.44c8.4,1.2,16.08,3.24,17.76,4.08l0.72-0.24s5.52-1.08,7.08-1.56,0.12-3,2.88-3.96,4.68-1.32,4.68-1.32c0.12-7.8,3-12.24,9-12.36s14.28,0.6,21.36,0.84,8.28,7.68,7.92,11.4v2.64c3.24,0,8.7,0.26,8.7,0.26s6.3-22.94,9.06-30.379l-4.152-0.423,0.802-6.9c2.441,0.2,5.056,0.327,5.805,0.411,3.6,0.4,5.6,1,5,3.8l5-0.6c3.6-0.4,3.6-0.2,3.6,3.4v31l-4.007,0.414z" fill="#FFF"/>
       </g>
       <path id="path74386" d="m151.05,170c42.369,2.2,87.817,4.111,89.998,4.248,3.84,0.24,7.92-0.72,9.84-2.88s5.76-9.36,7.2-12,0.24-4.32,0.24-4.32c2.16-2.16,7.44-16.08,8.64-18.48s1.68-3.84-2.16-5.28c4.08-3.12,8.4-19.2,15.12-24,11.682-8.344,27.12-10.8,36.72,1.2,8.619,10.774,9.6,20.16,9.36,25.68s-1.2,12.48-1.44,13.44-0.96,1.44-0.96,1.44,1.68,1.2,2.4,1.92-1.68,10.08-2.16,12-2.16,2.64-1.2,3.6,16.8-2.88,16.8-2.88l9.84-1.44,97.68,4.32c-0.96-0.96-3.12-4.56-3.12-8.4-3.12,0-24-1.68-32.4-4.32l37.92-5.04c3.12-0.48,11.52-15.6,11.52-16.56s-1.44-2.16-1.44-2.16c1.2,0,2.4-6.48,11.04-21.84s8.64-19.2,24.24-20.4c17.289-1.33,14.88,5.28,17.28,12.48,0.455,1.366-0.48,3.12,1.68,3.6s3.6,4.56,3.84,6.48-0.72,11.04-1.44,12.24-0.48,2.16,0.48,3.12-2.16,13.44-2.16,13.44c-3.84-0.24-6-1.44-7.2-2.4,0.96,20.16-8.64,32.88-8.64,32.88,5.76,0.24,23.76,0.48,18.72,2.88s-23.28,3.6-23.28,3.6l-3.36,1.92s9.36,0.72-0.24,2.4-33.36,2.4-56.16,1.44c0,2.4-43.44,6.48-63.36,8.4s-63.36,6.72-67.44,6.96-3.36,1.44-0.72,1.44,6.96,2.16-12.96,3.84-47.76,2.4-57.84,0.72l-1.44,0.72,4.8,1.44c-87.84,5.521-179.04,0.96-232.32-7.2-4.954-0.759-3.36-1.92,2.16-4.32s78.72-9.84,78.72-9.84-8.4-10.8-8.4-19.2c13.686,1.609,44.338,3.473,75.602,5.112v4.607l-8.042-0.6s-1.92,3-3.36,4.32,14.28-0.72,19.44-1.8,5.16-1.32,3.36-1.32-11.398-0.6-11.398-0.6v-4.61z"/>
       <path id="path74388" d="m58.469,143.41c2.4,5.04,5.28,12,16.08,13.919,10.8,1.92,54.237,5.454,69.119,5.04,8.64-0.24,13.68-5.76,13.68-8.88s-2.16-4.08-6.24-4.08-32.64-1.44-36.72-1.44-7.2,0.48-9.84,4.08-5.52,5.52-7.2,5.52-9.892-2.947-13.44-7.44c-3.6-4.56-6.72-5.28-9.6-5.52s-15.839-1.199-15.839-1.199z"/>
       <path id="path74390" d="m96.629,134.77s7.44,0.72,12,0.72-3.6,10.32-5.76,13.44-4.56,5.52-6.96,5.52-6.96-2.16-12.96-9.12-7.44-9.6-6.959-11.04c0.48-1.44,10.32-0.48,10.32-0.48-1.68,3.6-1.68,9.12,0.72,11.52s5.28,3.12,7.92,2.16,4.08-4.8,3.6-8.16-1.921-4.56-1.921-4.56z"/>
       <g id="g74392">
        <ellipse id="ellipse74394" d="m 97.938003,140.05 c 0,2.24946 -2.735093,4.073 -6.109001,4.073 -3.373907,0 -6.109,-1.82354 -6.109,-4.073 0,-2.24945 2.735093,-4.073 6.109,-4.073 3.373908,0 6.109001,1.82355 6.109001,4.073 z" cx="91.829" cy="140.05" rx="6.109" ry="4.073" transform="matrix(0.2444,0.9697,-0.9697,0.2444,205.1834,16.7723)"/>
        <path id="path74396" d="M91.829,140.05"/>
       </g>
       <path id="path74398" d="m356.07,9.971c-2.64,7.2-11.76,39.359-13.92,49.919,0,0-3.36-1.2-13.92-0.96s-33.84-1.2-33.84-1.2,1.92,0.72,1.68,1.92-0.48,1.2-0.48,1.2,4.08-0.24,3.36,0.48-11.04,0.24-10.8-0.72,4.08-0.72,4.08-0.72l-2.88-2.88c-1.92,0-55.439-2.16-75.359-2.64,0,0,0,1.44-1.68,1.44s-1.68-1.68-1.68-1.68-14.4-0.24-19.92-0.24-6.24-1.2-6.24-1.2c4.32-2.4,5.76-5.52,9.12-8.88s26.64-30.96,30.72-35.52,5.52-3.6,9.6-3.6,30.48-0.24,48,0.24,68.879,4.32,68.879,4.32l-0.24,2.4s-32.28-3.24-61.919-4.44-3.96,3.6-3.72,4.56,1.44,1.08,1.44,1.08l6.84,0.24c2.76,0.24,4.56,8.28,3.12,8.76s-17.76,0.36-19.8-0.48,0-7.2,1.32-7.92,5.28-0.84,5.28-0.84c-0.96-0.6-0.12-1.92,0.72-2.64s2.52-3,2.52-3-47.879-0.36-52.919-0.36c-5.88,5.64-23.88,30.36-28.68,39.48,0,0,4.56,1.2,6.24,2.64s3.12-0.72,3.36,1.44,43.44-0.72,43.44-0.72,12.12-0.6,18.84-2.16-11.4-2.16-22.2-2.4-19.56-0.72-21.24-0.48-1.92,0.24-1.92,0-0.6-1.56-0.6-1.56l0.36-0.84h1.32l0.48,0.6,3.84-0.24c1.68-1.32,8.4-1.32,13.56-1.2s13.56,0,15,1.44c8.4,1.2,16.08,3.24,17.76,4.08l0.72-0.24s5.52-1.08,7.08-1.56,0.12-3,2.88-3.96,4.68-1.32,4.68-1.32c0.12-7.8,3-12.24,9-12.36s14.28,0.6,21.36,0.84,8.28,7.68,7.92,11.4v2.64c3.24,0,8.7,0.26,8.7,0.26s6.3-22.939,9.06-30.379l-3.84-0.36,0.24-2.4,5.278,0.72z"/>
       <path id="path74400" d="m68.933,163.86,4.253,0.726s-2.689,7.513-5.615,6.959-1.819-8.225-1.819-8.225l3.181,0.54-0.403,1.77c-0.799-0.084-1.557,0.993-1.693,2.283s0.4,2.404,1.199,2.489c0.799,0.084,1.557-0.893,1.693-2.183,0.137-1.29-0.4-2.504-1.199-2.589l0.403-1.77z"/>
       <path id="path74402" d="m77.541,165.56c-9.3-1.2-18.1-3.1-23-4s-6.5-1.4-9.1-4.7-11.7-19.2-13.7-24-3-8.3,3-9.9,9.6-1.3,9.6-1.3c-2.2-1.8-1.7-9.4,5.7-15-2-7.4-0.4-23.4,12.2-29s47-16.2,106-21c8.2-0.6,14-0.2,22.8-10-4.4,0-8.2-0.2-9.8-4.8s2.2-7.6,6-7.6,12-0.8,12,2.8l23.4-27.4c7.6-7.8,8.4-8.2,15.8-8.6s24.8-0.6,57.6,0.6,57.2,3.2,60.8,3.6,5.6,1,5,3.8l5-0.6c3.6-0.4,3.6-0.2,3.6,3.4v31l2,0.2c0-4.4-0.2-8.6,1.6-10.4s2.6-3.2,8-3.2,14.6,0,20.2,0.2,11,4.8,9.2,14.6c17.2-0.4,18.426,2.336,22.6,2.8,5.4,0.6,7.2-1.4,11.8,0s8.4,3.4,10.8,3.4,4.607,2.49,7.6,2.2c6.2-0.6,6.2,1.2,8.2,1.2s6.8,0.8,6.8,0.8,25.6,1.8,39.8,2.6,17.6,2.8,26,19.4c2.8,4.6,2.6,15.8,2.6,19.4,5.7,0.2,7,0.3,6.7,4.3s-1.2,5.7-4.4,11.6-8.9,17-16.4,20.2-17.3,7-19.7,6.6" stroke="#000" stroke-width="1.5" fill="none"/>
       <polygon id="polygon74404" stroke-width="0.5" points="351.59,59.27,355.54,43.453,366.46,42.979,366.62,59.27" stroke="#000"/>
       <path id="path74406" d="m370.44,42.86v16.094h1.393s0.633-5.062,3.164-6.643c0-7.276,0.791-10.281,7.908-10.439,7.118-0.158,20.246-0.475,22.46,2.53,2.215,3.005,3.005,7.592-2.372,14.394,0,0,15.026,0.791,34.955-0.475,19.929-1.265,22.935-3.479,22.935-3.479s8.066,1.74,11.072-0.791-4.903,0.791-7.909,0.158-5.852-2.214-8.857-0.633c-3.005,1.582-17.24,2.056-24.2,2.056s-11.388,1.107-11.388-1.74,0.633-8.699-4.271-8.699-6.327,0.475-6.327-1.898-0.791-8.225-7.434-8.225-24.042-1.107-25.148,0.474c-1.107,1.582-1.898,7.434-1.898,7.434l-4.07-0.118z"/>
       <g id="g74408">
        <g id="g74410" fill="#FFF">
         <ellipse id="ellipse74412" d="m 325.52701,155.91 c 0,10.62431 -14.32107,19.237 -31.987,19.237 -17.66593,0 -31.987,-8.61269 -31.987,-19.237 0,-10.6243 14.32107,-19.237 31.987,-19.237 17.66593,0 31.987,8.6127 31.987,19.237 z" cx="293.54" cy="155.91" rx="31.987" ry="19.237" transform="matrix(-0.0327,0.9995,-0.9995,-0.0327,458.954,-132.3838)"/>
         <path id="path74414" d="M293.54,155.91"/>
        </g>
        <g id="g74416" stroke-width="0.5" stroke="#000" fill="none">
         <path id="path74418" d="m292.62,185.32c9.382,0.319,17.401-12.591,17.911-28.834,0.51-16.244-6.683-29.671-16.065-29.99s-17.401,12.591-17.911,28.834,6.683,29.67,16.065,29.99z"/>
         <path id="path74420" d="M293.54,155.91"/>
        </g>
        <g id="g74422" stroke-width="0.5" stroke="#000" fill="none">
         <path id="path74424" d="m291.89,179.86c7.809,0.261,14.483-10.274,14.908-23.529s-5.563-24.212-13.371-24.472c-7.809-0.261-14.484,10.274-14.908,23.529-0.424,13.254,5.562,24.212,13.371,24.472z"/>
         <path id="path74426" d="M292.66,155.86"/>
        </g>
        <g id="g74428" stroke-width="0.5" stroke="#000" fill="none">
         <path id="path74430" d="m291.98,177.98c6.906,0.24,12.809-9.469,13.184-21.685s-4.919-22.314-11.825-22.554-12.808,9.469-13.184,21.685c-0.375,12.217,4.919,22.315,11.825,22.554z"/>
         <path id="path74432" d="M292.66,155.86"/>
        </g>
        <path id="path74434" d="m302.4,137.88s-3.479-7.434-10.439-6.959c-6.959,0.475-11.546,7.118-11.546,7.118s5.694-9.807,11.705-9.648c6.01,0.157,10.28,9.489,10.28,9.489z"/>
        <path id="path74436" d="m299.71,176.47s-3.638,6.327-9.016,6.327c-5.377,0-9.173-5.378-9.173-5.378s3.479,3.638,9.173,3.638c5.695,0,9.016-4.587,9.016-4.587z"/>
        <path id="path74438" d="m282.94,170.46c1.265,2.688,3.954,6.485,8.066,7.434l-2.847-9.016-5.219,1.582z"/>
        <path id="path74440" d="m282,145.16c-0.949,2.689-2.372,7.908-1.74,14.393,0,0,2.214-4.745,3.638-6.485,0.6-0.73-1.9-7.9-1.9-7.9z"/>
        <path id="path74442" d="m295.91,134.4c-2.056-1.107-5.694-1.266-9.016,2.214,0,0,1.582,2.847,3.796,3.321l5.22-5.535z"/>
        <path id="path74444" d="m301.45,139.62c1.74,2.847,3.638,8.699,3.638,13.286,0,0-4.429-3.479-4.429-4.587s0.791-8.699,0.791-8.699z"/>
        <path id="path74446" d="m304.14,163.98c-0.791,3.322-2.056,7.909-6.168,11.546,0,0,0-6.959,0.633-8.541,0.316-0.791,3.795-1.581,5.535-3.005z"/>
        <g id="g74448" stroke-width="0.5" stroke="#000" fill="none">
         <path id="path74450" d="m292.35,169.65c4.744,0.158,8.798-6.241,9.056-14.293s-3.379-14.708-8.123-14.867-8.798,6.241-9.056,14.293c-0.258,8.053,3.379,14.709,8.123,14.867z"/>
         <path id="path74452" d="M292.81,155.07"/>
        </g>
        <g id="g74454" stroke-width="0.5" stroke="#000" fill="none">
         <path id="path74456" d="m292.43,167.8c3.906,0.138,7.245-5.451,7.457-12.482,0.212-7.032-2.783-12.845-6.688-12.983s-7.245,5.451-7.457,12.482c-0.212,7.032,2.782,12.845,6.688,12.983z"/>
         <path id="path74458" d="M292.81,155.07"/>
        </g>
        <line id="line74460" stroke-width="0.5" y2="155.59" y1="161.29" stroke="#000" x2="284.21" x1="280.57" fill="none"/>
        <line id="line74462" stroke-width="0.5" y2="167.46" y1="169.2" stroke="#000" x2="288.01" x1="282.47" fill="none"/>
        <line id="line74464" stroke-width="0.5" y2="177.98" y1="169.04" stroke="#000" x2="292.45" x1="290.06" fill="none"/>
        <line id="line74466" stroke-width="0.5" y2="167.77" y1="176.79" stroke="#000" x2="296.55" x1="296.39" fill="none"/>
        <line id="line74468" stroke-width="0.5" y2="162.71" y1="164.93" stroke="#000" x2="304.3" x1="299.08" fill="none"/>
        <line id="line74470" stroke-width="0.5" y2="154.96" y1="151.8" stroke="#000" x2="305.09" x1="301.61" fill="none"/>
        <line id="line74472" stroke-width="0.5" y2="142.94" y1="149.9" stroke="#000" x2="282.79" x1="285" fill="none"/>
        <path id="path74474" d="m285.95,137.56s1.265,2.531,3.954,3.955" stroke="#000" stroke-width="0.5" fill="none"/>
        <line id="line74476" stroke-width="0.5" y2="134.88" y1="140.65" stroke="#000" x2="297.18" x1="292.49" fill="none"/>
        <line id="line74478" stroke-width="0.5" y2="137.72" y1="145.31" stroke="#000" x2="300.18" x1="299.39" fill="none"/>
        <g id="g74480" stroke-width="0.5" stroke="#000" fill="none">
         <path id="path74482" d="m294.88,161.54c1.953,0.069,3.622-2.725,3.729-6.241,0.106-3.516-1.392-6.422-3.344-6.491-1.953-0.069-3.623,2.725-3.729,6.241-0.106,3.515,1.391,6.421,3.344,6.491z"/>
         <path id="path74484" d="M295.08,155.18"/>
        </g>
        <g id="g74486">
         <path id="path74488" d="m294.94,160.04c1.348,0.053,2.5-2.085,2.574-4.774,0.073-2.69-0.961-4.913-2.309-4.966s-2.501,2.084-2.574,4.774c-0.074,2.69,0.96,4.914,2.309,4.966z"/>
         <path id="path74490" d="M295.08,155.18"/>
        </g>
        <path id="path74492" d="m295.27,148.81h-2.689c-1.953-0.069-3.622,2.725-3.729,6.241-0.106,3.516,1.391,6.422,3.344,6.491h2.689" stroke="#000" stroke-width="0.5" fill="none"/>
        <g id="g74494">
         <g id="g74496">
          <path id="path74498" d="m292.97,166.49c0.506,0.02,0.938-0.782,0.965-1.791,0.028-1.009-0.36-1.842-0.866-1.862-0.505-0.02-0.938,0.782-0.965,1.791-0.027,1.008,0.361,1.842,0.866,1.862z"/>
          <path id="path74500" d="M293.02,164.67"/>
         </g>
         <g id="g74502" stroke-width="0.5" stroke="#000" fill="none">
          <path id="path74504" d="m292.05,166.49c0.506,0.02,0.938-0.782,0.965-1.791s-0.36-1.842-0.866-1.862c-0.505-0.02-0.938,0.782-0.965,1.791s0.361,1.842,0.866,1.862z"/>
          <path id="path74506" d="M292.1,164.67"/>
         </g>
        </g>
        <g id="g74508">
         <g id="g74510">
          <path id="path74512" d="m292.97,147.67c0.506,0.02,0.938-0.782,0.965-1.79,0.028-1.009-0.36-1.843-0.866-1.862-0.505-0.02-0.938,0.782-0.965,1.79-0.027,1.009,0.361,1.843,0.866,1.862z"/>
          <path id="path74514" d="M293.02,145.84"/>
         </g>
         <g id="g74516" stroke-width="0.5" stroke="#000" fill="none">
          <path id="path74518" d="m292.05,147.67c0.506,0.02,0.938-0.782,0.965-1.79,0.027-1.009-0.36-1.843-0.866-1.862-0.505-0.02-0.938,0.782-0.965,1.79-0.027,1.009,0.361,1.843,0.866,1.862z"/>
          <path id="path74520" d="M292.1,145.84"/>
         </g>
        </g>
        <g id="g74522">
         <g id="g74524">
          <path id="path74526" d="m288.07,158.11c0.505,0.02,0.938-0.782,0.965-1.791s-0.36-1.842-0.866-1.862c-0.505-0.02-0.938,0.782-0.965,1.791-0.027,1.008,0.36,1.842,0.866,1.862z"/>
          <path id="path74528" d="M288.12,156.28"/>
         </g>
         <g id="g74530" stroke-width="0.5" stroke="#000" fill="none">
          <path id="path74532" d="m287.15,158.11c0.505,0.02,0.938-0.782,0.965-1.791,0.028-1.009-0.36-1.842-0.866-1.862-0.505-0.02-0.938,0.782-0.965,1.791-0.028,1.008,0.36,1.842,0.866,1.862z"/>
          <path id="path74534" d="M287.2,156.28"/>
         </g>
        </g>
        <g id="g74536">
         <path id="path74538" d="m299.14,156.21c0.505,0.02,0.938-0.782,0.965-1.79,0.027-1.009-0.36-1.843-0.866-1.862-0.505-0.02-0.938,0.782-0.965,1.791-0.028,1.008,0.36,1.842,0.866,1.861z"/>
         <path id="path74540" d="M299.19,154.38"/>
        </g>
       </g>
       <g id="g74542">
        <g id="g74544" fill="#FFF">
         <path id="path74546" d="m485.27,166.99c9.026,0.31,16.74-12.214,17.231-27.973,0.49-15.758-6.429-28.784-15.455-29.094s-16.74,12.214-17.23,27.973,6.428,28.785,15.454,29.094z"/>
         <path id="path74548" d="M486.15,138.45"/>
        </g>
        <g id="g74550" stroke-width="0.5" stroke="#000" fill="none">
         <path id="path74552" d="m485.37,164.7c7.975,0.285,14.791-11.237,15.224-25.734,0.434-14.498-5.68-26.481-13.655-26.767-7.975-0.285-14.791,11.237-15.224,25.735-0.433,14.497,5.681,26.481,13.655,26.766z"/>
         <path id="path74554" d="M486.15,138.45"/>
        </g>
        <g id="g74556" stroke-width="0.5" stroke="#000" fill="none">
         <path id="path74558" d="m484.75,159.83c6.638,0.232,12.311-9.169,12.671-21,0.361-11.83-4.728-21.609-11.366-21.841s-12.311,9.169-12.671,21c-0.36,11.829,4.729,21.608,11.366,21.841z"/>
         <path id="path74560" d="M485.4,138.41"/>
        </g>
        <g id="g74562" stroke-width="0.5" stroke="#000" fill="none">
         <path id="path74564" d="m484.82,158.15c5.87,0.214,10.888-8.451,11.207-19.354s-4.181-19.916-10.051-20.129c-5.87-0.214-10.887,8.451-11.206,19.354-0.32,10.903,4.181,19.915,10.05,20.129z"/>
         <path id="path74566" d="M485.4,138.41"/>
        </g>
        <path id="path74568" d="m493.68,122.36s-2.958-6.635-8.873-6.211c-5.916,0.423-9.814,6.353-9.814,6.353s4.84-8.752,9.949-8.611c5.108,0.141,8.738,8.469,8.738,8.469z"/>
        <path id="path74570" d="m491.4,156.8s-3.092,5.646-7.663,5.646-7.798-4.8-7.798-4.8,2.958,3.247,7.798,3.247c4.84,0.001,7.663-4.093,7.663-4.093z"/>
        <path id="path74572" d="m477.15,151.44c1.076,2.4,3.361,5.788,6.856,6.635l-2.42-8.047-4.436,1.412z"/>
        <path id="path74574" d="m476.34,128.85c-0.807,2.4-2.017,7.058-1.479,12.846,0,0,1.882-4.235,3.092-5.788,0.511-0.655-1.613-7.058-1.613-7.058z"/>
        <path id="path74576" d="m488.17,119.25c-1.748-0.988-4.84-1.129-7.664,1.977,0,0,1.345,2.541,3.227,2.964l4.437-4.941z"/>
        <path id="path74578" d="m492.88,123.91c1.479,2.541,3.092,7.764,3.092,11.858,0,0-3.765-3.105-3.765-4.094s0.673-7.764,0.673-7.764z"/>
        <path id="path74580" d="m495.16,145.65c-0.672,2.964-1.748,7.058-5.244,10.305,0,0,0-6.211,0.538-7.623,0.269-0.706,3.227-1.412,4.706-2.682z"/>
        <g id="g74582" stroke-width="0.5" stroke="#000" fill="none">
         <path id="path74584" d="m485.14,150.72c4.032,0.142,7.479-5.57,7.698-12.757s-2.872-13.127-6.904-13.269-7.479,5.57-7.698,12.757c-0.22,7.187,2.872,13.128,6.904,13.269z"/>
         <path id="path74586" d="M485.54,137.7"/>
        </g>
        <g id="g74588" stroke-width="0.5" stroke="#000" fill="none">
         <path id="path74590" d="m485.21,149.07c3.32,0.124,6.158-4.864,6.338-11.141,0.181-6.276-2.365-11.464-5.685-11.587-3.32-0.124-6.158,4.865-6.338,11.141s2.365,11.464,5.685,11.587z"/>
         <path id="path74592" d="M485.54,137.7"/>
        </g>
        <line id="line74594" stroke-width="0.5" y2="138.17" y1="143.25" stroke="#000" x2="478.22" x1="475.13" fill="none"/>
        <line id="line74596" stroke-width="0.5" y2="148.76" y1="150.31" stroke="#000" x2="481.45" x1="476.74" fill="none"/>
        <line id="line74598" stroke-width="0.5" y2="158.15" y1="150.17" stroke="#000" x2="485.23" x1="483.2" fill="none"/>
        <line id="line74600" stroke-width="0.5" y2="149.04" y1="157.09" stroke="#000" x2="488.71" x1="488.57" fill="none"/>
        <line id="line74602" stroke-width="0.5" y2="144.52" y1="146.5" stroke="#000" x2="495.3" x1="490.86" fill="none"/>
        <line id="line74604" stroke-width="0.5" y2="137.61" y1="134.78" stroke="#000" x2="495.97" x1="493.01" fill="none"/>
        <line id="line74606" stroke-width="0.5" y2="126.88" y1="133.09" stroke="#000" x2="477.01" x1="478.89" fill="none"/>
        <path id="path74608" d="m479.7,122.08s1.076,2.258,3.361,3.529" stroke="#000" stroke-width="0.5" fill="none"/>
        <line id="line74610" stroke-width="0.5" y2="119.68" y1="124.83" stroke="#000" x2="489.25" x1="485.26" fill="none"/>
        <line id="line74612" stroke-width="0.5" y2="122.22" y1="129" stroke="#000" x2="491.8" x1="491.13" fill="none"/>
        <g id="g74614" stroke-width="0.5" stroke="#000" fill="none">
         <path id="path74616" d="m487.3,143.48c1.66,0.062,3.079-2.433,3.169-5.57,0.09-3.138-1.183-5.732-2.843-5.794s-3.079,2.433-3.169,5.57c-0.09,3.138,1.183,5.732,2.843,5.794z"/>
         <path id="path74618" d="M487.46,137.8"/>
        </g>
        <g id="g74620">
         <path id="path74622" d="m487.34,142.14c1.146,0.047,2.125-1.861,2.188-4.261,0.062-2.4-0.816-4.385-1.962-4.432s-2.126,1.861-2.188,4.261,0.816,4.384,1.962,4.432z"/>
         <path id="path74624" d="M487.46,137.8"/>
        </g>
        <path id="path74626" d="m487.62,132.12h-2.286c-1.66-0.062-3.079,2.433-3.169,5.57-0.09,3.138,1.183,5.732,2.842,5.794h2.286" stroke="#000" stroke-width="0.5" fill="none"/>
        <g id="g74628">
         <g id="g74630">
          <path id="path74632" d="m485.67,147.9c0.43,0.018,0.797-0.698,0.82-1.598s-0.306-1.644-0.736-1.662-0.797,0.698-0.821,1.598c-0.022,0.9,0.308,1.644,0.737,1.662z"/>
          <path id="path74634" d="M485.71,146.27"/>
         </g>
         <g id="g74636" stroke-width="0.5" stroke="#000" fill="none">
          <path id="path74638" d="m484.89,147.9c0.43,0.018,0.797-0.698,0.82-1.598s-0.306-1.644-0.736-1.662-0.797,0.698-0.82,1.598,0.306,1.644,0.736,1.662z"/>
          <path id="path74640" d="M484.93,146.27"/>
         </g>
        </g>
        <g id="g74642">
         <g id="g74644">
          <path id="path74646" d="m485.67,131.1c0.43,0.018,0.797-0.698,0.82-1.598s-0.306-1.645-0.736-1.662-0.797,0.698-0.821,1.598c-0.022,0.9,0.308,1.645,0.737,1.662z"/>
          <path id="path74648" d="M485.71,129.47"/>
         </g>
         <g id="g74650" stroke-width="0.5" stroke="#000" fill="none">
          <path id="path74652" d="m484.89,131.1c0.43,0.018,0.797-0.698,0.82-1.598s-0.306-1.645-0.736-1.662-0.797,0.698-0.82,1.598,0.306,1.645,0.736,1.662z"/>
          <path id="path74654" d="M484.93,129.47"/>
         </g>
        </g>
        <g id="g74656">
         <g id="g74658">
          <path id="path74660" d="m481.5,140.42c0.43,0.018,0.797-0.698,0.821-1.598,0.023-0.9-0.306-1.644-0.736-1.662s-0.797,0.698-0.82,1.598c-0.024,0.9,0.306,1.644,0.735,1.662z"/>
          <path id="path74662" d="M481.54,138.78"/>
         </g>
         <g id="g74664" stroke-width="0.5" stroke="#000" fill="none">
          <path id="path74666" d="m480.72,140.42c0.43,0.018,0.797-0.698,0.821-1.598,0.023-0.9-0.306-1.644-0.736-1.662s-0.797,0.698-0.821,1.598c-0.023,0.9,0.306,1.644,0.736,1.662z"/>
          <path id="path74668" d="M480.76,138.78"/>
         </g>
        </g>
        <g id="g74670">
         <path id="path74672" d="m490.91,138.72c0.43,0.018,0.797-0.698,0.82-1.598s-0.306-1.645-0.736-1.662-0.797,0.698-0.82,1.598,0.307,1.645,0.736,1.662z"/>
         <path id="path74674" d="M490.95,137.09"/>
        </g>
       </g>
       <path id="path74676" d="m453.69,148.57s-100.32,13.44-107.52,14.64-24.72,5.52-24.72,5.52" stroke="#000" stroke-width="1.5" fill="none"/>
       <path id="path74678" d="m201.02,151.45c0.636,0,1.151-0.515,1.151-1.151l-1.44-6.337c0-0.636-0.515-1.151-1.151-1.151h-32.74c-0.636,0-1.151,0.516-1.151,1.151l1.44,6.337c0,0.636,0.516,1.151,1.151,1.151h32.737z" fill="#FFF" stroke="#000"/>
       <polygon id="polygon74680" points="242.57,141.97,261.4,141.35,261.92,138.83,243.09,139.45" stroke="#000" fill="#CCC"/>
       <path id="path74682" d="m32.37,132.37,5.28,9.6,5.52,0.96c2.4,0.24-0.96-8.64-3.12-9.12s-7.68-1.44-7.68-1.44z" fill="#FFF" stroke="#000"/>
       <path id="path74684" d="m221.25,86.53c-9.363,0-15.84,7.2-15.84,20.64s12,15.36,16.08,15.36,15.36-4.8,16.56-13.44-4.8-22.56-16.8-22.56z" fill="none" stroke="#000"/>
       <g id="g74686" stroke-width="0.5" stroke="#000" fill="none">
        <ellipse id="ellipse74688" d="m 231.548,104.53 c 0,8.43504 -5.47018,15.273 -12.218,15.273 -6.74781,0 -12.218,-6.83796 -12.218,-15.273 0,-8.435046 5.47019,-15.273001 12.218,-15.273001 6.74782,0 12.218,6.837955 12.218,15.273001 z" cx="219.33" cy="104.53" rx="12.218" ry="15.273"/>
        <path id="path74690" d="M219.33,104.53"/>
       </g>
       <path id="path74692" d="m71.253,97.258c0-7.498-4.407-14.225-9.843-14.225s-9.843,6.079-9.843,13.576c0,5.37,1.541,9.532,4.82,11.734" stroke="#000" stroke-width="0.5" fill="none"/>
       <path id="path74694" d="m76.17,94.209c-1.08-9.84-6-14.16-13.68-14.16s-11.52,8.88-12.48,14.16-1.8,11.64,3.6,16.44" fill="none" stroke="#000"/>
       <path id="path74696" d="m43.891,121.46c0.869,4.469,38.252,7.258,57.719,8.269,55.439,2.88,127.68,5.52,164.4,1.68" stroke="#000" stroke-linecap="round" stroke-width="2.5" fill="none"/>
       <polygon id="polygon74698" points="531.53,108.73,541.72,107.15,542.24,104.63,532.05,106.21" stroke="#000" fill="#CCC"/>
       <path id="path74700" d="m510.33,103.69c36-5.28,37.193-5.178,37.316-7.629" stroke="#000" stroke-width="1.5" fill="none"/>
       <path id="path74702" d="m515.13,106.09s27.84-3.6,32.88-4.8,5.76-3.84,5.76-3.84" stroke="#000" stroke-width="0.5" fill="none"/>
       <path id="path74704" d="m514.65,124.09,30.24-6.48s-1.2,1.44-5.52,2.88-23.52,6.24-23.52,6.24" stroke="#000" stroke-width="0.5" fill="none"/>
       <path id="path74706" d="m543.45,96.489-25.44,2.88s-3.36,0.24-4.56-3.6-1.68-12.24-10.56-12.48-13.919,0-20.16,1.2c-6.24,1.2-9.6,5.76-12,11.52s-3.84,6.24-8.88,6.72-139.92,15.36-139.92,15.36" stroke="#000" stroke-width="0.5" fill="none"/>
       <path id="path74708" d="m322.65,121.93s140.88-15.84,150.96-16.32" stroke="#000" stroke-width="0.5" fill="none"/>
       <path id="path74710" d="m323.13,149.05s135.84-18.479,137.76-18.72" stroke="#000" stroke-width="0.5" fill="none"/>
       <line id="line74712" stroke-width="0.5" y2="133.21" y1="151.45" stroke="#000" x2="461.37" x1="325.05" fill="none"/>
       <path id="path74714" d="m301.05,101.05c43.439-6,186.72-21.6,245.28-20.4" stroke="#000" stroke-width="0.5" fill="none"/>
       <path id="path74716" d="m178.89,55.21c1.68,1.44,6,2.88,17.04,2.4s69.839,1.68,89.519,2.64,45.6,2.64,51.12,2.88,10.08,0,16.08-0.72,18.479-0.96,18.479-0.96" stroke="#000" stroke-width="0.5" fill="none"/>
       <path id="path74718" d="m351.21,62.89c-3.84,1.92-4.56,5.76-1.92,8.16s6.96,11.04,6.24,23.04c-2.88,3.36-2.16,18-0.24,20.4s2.16,3.84,2.16,3.84c-1.44,5.04-6.72,18.24-7.44,23.76l72.959-9.36s6-4.32,8.4-10.32,4.32-11.76,4.32-12.96-0.96-1.68-0.96-3.6,0.48-17.52,3.36-19.68-9.36-25.2-16.8-27.12" stroke="#000" stroke-width="0.5" fill="none"/>
       <g id="g74720">
        <path id="path74722" d="m427.31,69.523c0.635-0.04,1.117-0.587,1.077-1.221l-1.13-2.732c-0.04-0.635-0.586-1.117-1.221-1.077l-11.594,0.728c-0.635,0.04-1.117,0.586-1.077,1.221l1.131,2.732c0.04,0.635,0.586,1.117,1.221,1.077l11.594-0.728z" stroke="#000" stroke-width="0.5" fill="none"/>
       </g>
       <g id="g74724" stroke-width="0.5" stroke="#000" fill="none">
        <path id="path74726" d="m457.19,97.51c0.632-0.065,1.092-0.63,1.027-1.263l-0.034-0.335c-0.065-0.632-0.63-1.093-1.263-1.028l-9.886,1.014c-0.632,0.065-1.093,0.63-1.028,1.263l0.035,0.336c0.065,0.632,0.63,1.092,1.263,1.027l9.886-1.014z"/>
        <path id="path74728" d="M452.11,96.704"/>
       </g>
       <path id="path74730" d="m404.13,58.21c-1.32,1.68-2.872,2.698-8.88,2.88-3.96,0.12-11.4-0.24-11.4-0.24-1.08,2.16-2.16,5.04-0.84,6.12s2.284,2.88-4.68,2.88c-4.56,0-6.12-4.56-7.44-6.36s0.72-2.04,0.72-5.28" stroke="#000" stroke-width="0.5" fill="none"/>
       <path id="path74732" d="m383.85,60.85c-8.64-0.36-9.178-0.639-8.849-8.539" stroke="#000" stroke-width="0.5" fill="none"/>
       <path id="path74734" d="m418.41,54.73c5.4,0.48,10.8-0.24,12.36-1.32s4.68-2.88,6.36-3.72,2.28-2.76,4.08-3" stroke="#000" stroke-width="0.5" fill="none"/>
       <path id="path74736" d="m419.61,50.77c1.92,0.36,3.24,1.56,4.44,2.04s3.96,1.08,5.76,1.08" stroke="#000" stroke-width="0.5" fill="none"/>
       <line id="line74738" stroke-width="0.5" y2="62.29" y1="9.06" stroke="#000" x2="348.45" x1="361.84"/>
       <polyline id="polyline74740" stroke="#000" points="366.93,11.89,368.61,11.65,368.61,58.93" stroke-width="0.5" fill="none"/>
       <path id="path74742" d="m403.65,45.73c-0.96,1.68-3.36,6.72-3.36,6.72s-0.24,4.08,0.96,6" stroke="#000" stroke-width="0.5" fill="none"/>
       <line id="line74744" stroke-width="0.5" y2="51.73" y1="52.45" stroke="#000" x2="376.05" x1="400.29" fill="none"/>
       <path id="path74746" d="m197.25,35.89c-2.88,0.48-5.52,4.32-5.52,4.32v4.8" stroke="#000" stroke-width="0.5" fill="none"/>
       <line id="line74748" stroke-width="0.5" y2="39.97" y1="40.21" stroke="#000" x2="181.41" x1="191.73" fill="none"/>
       <line id="line74750" stroke-width="3.5" y2="5.65" y1="50.29" stroke="#000" x2="236.85" x1="211.41" fill="none"/>
       <path id="path74752" d="m299.73,39.01h2.16s-0.72-6.96,6.72-6.96c6.96,0,15.6,0.48,18.96,0.48s5.28,7.44,5.28,7.44l2.64,0.24s0.24-10.8-7.68-10.8l-19.92-0.96c-7.2,0-7.68,6.24-8.16,10.56z" fill="#FFF"/>
       <path id="path74754" d="m258.33,155.05s-25.083-1.323-48.844-0.363c-23.76,0.96,18.72,2.4,49.68,3.84" stroke="#000" stroke-width="0.5" fill="none"/>
       <path id="path74756" d="m211.17,89.89s-40.56,27.12-33.6,35.52,47.279-3.6,47.279-3.6" stroke="#000" stroke-width="0.5" fill="none"/>
       <path id="path74758" d="m270.21,125.41s-47.283,3.91-64.319,4.32c-19.92,0.48-87.12-1.68-119.04-3.84-30.763-2.082-43.68-4.08-43.44-9.36" stroke="#000" stroke-width="0.5" fill="none"/>
       <path id="path74760" d="m267.33,129.97c-14.16,0.48-34.08-1.44-50.16-0.72" stroke="#000" stroke-width="0.5" fill="none"/>
       <path id="path74762" d="m44.37,118.45c5.28-5.28,36-30.959,67.679-44.16,32.64-12.72,72.959-16.56,72.959-16.56" stroke="#000" stroke-width="0.5" fill="none"/>
       <path id="path74764" d="m92.73,83.89c-9.84,5.52-16.2,12.24,23.16,14.64s78.239,2.4,88.799-3.84" stroke="#000" stroke-width="0.5" fill="none"/>
       <path id="path74766" d="M215.73,87.49c14.88-6.72,54.24-18.72,114.72-24.48" stroke="#000" stroke-width="0.5" fill="none"/>
       <path id="path74768" d="m157.35,153.49c-0.179,5.039-2.099,11.279-18.419,11.279s-57.598-3.367-70.56-5.76c-11.7-2.16-12.96-4.2-15.36-7.56s-6.479-8.881-0.54-8.64l8.16,1.08" stroke="#000" stroke-width="0.5" fill="none"/>
       <g id="g74770" stroke-width="0.5" stroke="#000" fill="none">
        <polyline id="polyline74772" points="218.49,91.089,224.01,100.45,212.97,94.209"/>
        <path id="path74774" d="m210.09,98.29,12.6,4.92c0.96-2.64,4.358-1.939,4.68,1.44,0.24,2.52-1.32,3.36-2.76,3.12-1.28-0.213-2.04-0.96-2.04-0.96l-11.04,6.6"/>
        <polyline id="polyline74776" points="217.05,117.01,223.65,108.85,225.81,108.85,224.97,115.57"/>
       </g>
       <polyline id="polyline74778" stroke="#000" points="62.01,85.33,67.53,94.689,56.49,88.45" stroke-width="0.5" fill="none"/>
       <path id="path74780" d="m53.61,92.53,12.6,4.92c0.96-2.64,3.84-1.68,3.84,0.96" stroke="#000" stroke-width="0.5" fill="none"/>
       <line id="line74782" stroke-width="0.5" y2="107.65" y1="101.05" stroke="#000" x2="55.05" x1="66.09" fill="none"/>
       <g id="g74784">
        <path id="path74786" d="m366.46,42.854,0.47-31.088-3.12,0.48c-1.44,0-1.92,2.88-1.92,2.88l-6.344,28.203" stroke="#000" stroke-width="0.5" fill="none"/>
       </g>
      </g>
     </g>
    </g>
   </g>
  </g>
 </g>
</svg>
