<?xml version="1.0" encoding="UTF-8" standalone="no"?>
<!-- Created with Inkscape (http://www.inkscape.org/) -->
<svg id="svg2" xmlns:rdf="http://www.w3.org/1999/02/22-rdf-syntax-ns#" xmlns="http://www.w3.org/2000/svg" height="45" width="67.5" version="1.1" xmlns:cc="http://creativecommons.org/ns#" xmlns:dc="http://purl.org/dc/elements/1.1/">
 <metadata id="metadata7">
  <rdf:RDF>
   <cc:Work rdf:about="">
    <dc:format>image/svg+xml</dc:format>
    <dc:type rdf:resource="http://purl.org/dc/dcmitype/StillImage"/>
    <dc:title/>
   </cc:Work>
  </rdf:RDF>
 </metadata>
 <g id="g4275">
  <rect id="rect2990" opacity="0" height="45" width="67.5" y="0" x="3.5527e-15"/>
  <path id="path4273" d="m13.676 35.105c-5.5821-0.259-8.6662-0.486-11.396-0.839-2.0183-0.261-2.2798-0.309-2.2798-0.421 0-0.38312 2.0394-0.7421 7.4977-1.3198 1.3856-0.14664 2.5353-0.27834 2.5549-0.29268 0.0196-0.01433-0.14967-0.36992-0.37612-0.7902-0.22646-0.42028-0.44596-0.9126-0.48778-1.094-0.0971-0.42146-0.20298-0.41549-0.53234 0.02999-0.39868 0.53924-0.73876 0.428-0.73876-0.24166 0-0.24658-0.10127-0.28852-1.1396-0.47191-0.39589-0.06991-0.85174-0.22496-1.013-0.34455-0.34876-0.2586-1.876-2.7728-2.0651-3.3997-0.25533-0.84643 0.13452-1.3005 1.1166-1.3005 0.30164 0 0.34199-0.04339 0.34199-0.36778 0-0.416 0.1561-0.76691 0.51768-1.1638 0.19161-0.21031 0.24074-0.40447 0.21675-0.85649-0.0657-1.2369 0.55991-2.4519 1.5091-2.9311 2.1033-1.0618 7.2078-2.116 12.572-2.5965 1.6004-0.14336 2.2868-0.34268 2.702-0.78471 0.27226-0.2898 0.27301-0.29689 0.0314-0.29689-0.33873 0-0.72791-0.35283-0.82035-0.74374-0.0592-0.25018-0.007-0.39347 0.22936-0.62981 0.2637-0.2637 0.41023-0.30569 1.0612-0.30411 0.41538 0.00096 0.82895 0.04854 0.91905 0.10562 0.12024 0.07617 0.53756-0.3312 1.5688-1.5314 1.8567-2.1609 2.2369-2.4947 2.9666-2.6046 0.69644-0.10482 7.2565 0.016011 10.356 0.19075 3.5673 0.20109 4.812 0.33377 5.0364 0.53682 0.11052 0.10002 0.39913 0.18185 0.64136 0.18185h0.44042l0.002 1.7695c0.002 1.6753 0.0126 1.7496 0.1872 1.3955 0.10146-0.20566 0.31871-0.4351 0.48277-0.50985 0.44232-0.20153 3.0777-0.17609 3.5819 0.03458 0.45938 0.19194 0.78389 0.71483 0.78389 1.2631 0 0.35574 0.0157 0.36599 0.56983 0.37107 0.3134 0.0029 0.81275 0.0629 1.1097 0.13338 0.29691 0.07049 0.92934 0.1397 1.4054 0.15381 0.79187 0.02347 1.4716 0.18064 2.7113 0.62686 0.25178 0.09063 0.50748 0.13406 0.56822 0.09652 0.0608-0.03754 0.31361-0.01059 0.56192 0.0599s1.9501 0.23469 3.7818 0.3649c2.0351 0.14467 3.4842 0.30108 3.7262 0.40216 0.96418 0.40286 1.9561 2.114 2.0786 3.5856 0.0714 0.85869 0.0978 0.92972 0.34499 0.92972 0.7071 0 0.66398 0.62009-0.15162 2.1802-0.819 1.5666-1.3861 2.1512-2.5166 2.5942-1.5966 0.62556-1.7585 0.65848-2.2429 0.45609l-0.43017-0.17973v0.62848c0 0.90966-0.38199 2.2316-0.92756 3.21-0.0221 0.03953 0.42936 0.105 1.0031 0.14549 1.7685 0.12481 1.4989 0.42885-0.60685 0.68441-1.0178 0.12352-1.7784 0.3454-1.2142 0.3542 0.14983 0.0023 0.19243 0.04515 0.1185 0.11908-0.20597 0.20597-2.2168 0.36243-4.6711 0.36346-1.5739 0.0006-2.7088 0.05989-3.299 0.17221-1.0501 0.19981-3.3157 0.45645-10.276 1.164-3.9074 0.3972-5.0148 0.54518-4.8704 0.65081 0.10411 0.07613 0.1363 0.16802 0.0726 0.20737-0.34673 0.21429-2.6094 0.36835-5.5312 0.37661-2.4205 0.0068-3.2231 0.04372-3.0897 0.14199 0.13759 0.10134-0.12479 0.15105-1.1088 0.21006-1.4806 0.08879-12.236 0.18832-13.585 0.1257zm22.649-2.6165c0.78631-0.40912 1.3918-1.5511 1.6048-3.0268 0.3236-2.2418-0.76088-4.4834-2.1684-4.4819-0.86101 0.000839-1.6568 0.82288-2.1361 2.2063-0.31953 0.92234-0.28074 2.791 0.077 3.7113 0.28898 0.74338 0.85335 1.4797 1.2605 1.6446 0.38487 0.15587 1.0066 0.13144 1.3621-0.05351zm-1.4881-0.2994c-1.5273-0.93134-1.693-4.6846-0.27777-6.2924 0.26987-0.30658 0.55038-0.55742 0.62337-0.55742 0.073 0 0.0279 0.07935-0.10017 0.17634-0.21073 0.15957-0.19606 0.16287 0.15446 0.03465 0.33657-0.12312 0.43087-0.10973 0.71978 0.10222 0.43486 0.31903 1.0736 1.2681 1.2283 1.8249 0.0674 0.24263 0.1174 0.84602 0.11115 1.3409-0.0107 0.84483-0.0186 0.87045-0.12904 0.41987-0.0647-0.26392-0.12913-0.54189-0.14316-0.61771-0.0351-0.18964-0.3213-0.52195-0.44955-0.52195-0.0579 0-0.0972 0.25642-0.0873 0.56983l0.018 0.56983 0.072-0.53984c0.0396-0.29691 0.10279-0.48585 0.14047-0.41987 0.0377 0.06598 0.0182 0.4152-0.0433 0.77604l-0.11184 0.65607-0.22157-0.41614c-0.12186-0.22888-0.22383-0.34692-0.2266-0.26232-0.002 0.0846-0.12649 0.20264-0.27495 0.26232l-0.26992 0.10849 0.26992 0.0076c0.14846 0.0042 0.27208-0.05987 0.27473-0.14235 0.002-0.08248 0.0853-0.0015 0.18377 0.17995 0.0984 0.18144 0.24473 0.33073 0.3251 0.33174 0.0942 0.0012 0.0822 0.04702-0.0338 0.1291-0.15995 0.11312-0.15995 0.12125 0 0.07314 0.099-0.02977 0.16645-0.11485 0.14995-0.18908s0.024-0.13496 0.09-0.13496 0.12538-0.12146 0.13201-0.26992c0.007-0.16877 0.0522-0.09925 0.11925 0.18552 0.12735 0.54108-0.0548 1.0614-0.62239 1.7781-0.44724 0.56468-0.92588 0.83618-1.32 0.74874-0.22833-0.05066-0.25086-0.03723-0.10835 0.06457 0.099 0.07069 0.38447 0.12936 0.63445 0.13037 0.6898 0.0028 1.3473-0.66563 1.7142-1.7427 0.1564-0.4591 0.28575-0.74083 0.28746-0.62607 0.005 0.32606-0.42072 1.3618-0.71133 1.7312-0.60083 0.76383-1.405 0.96563-2.1173 0.53131zm0.75313-0.49013c0.29914-0.0019 0.94349-0.50515 1.1322-0.88432 0.0809-0.16262 0.0191-0.12613-0.16847 0.09938l-0.29639 0.35636-0.0457-0.57521c-0.0252-0.31637-0.0112-0.63116 0.0311-0.69954 0.0422-0.06839 0.0534-0.21396 0.0247-0.32351-0.0401-0.15347-0.16047-0.18884-0.52436-0.15414-0.40272 0.0384-0.48713 0.0049-0.57305-0.22738l-0.10077-0.27241-0.25989 0.25989c-0.25821 0.2582-0.25989 0.25828-0.25989 0.01288 0-0.13586-0.054-0.21364-0.11997-0.17287-0.1384 0.08554-0.14886 0.03495-0.0474-0.22943 0.0399-0.10399 0.12921-0.15405 0.19847-0.11124 0.0788 0.04867 0.0897 0.01913 0.0291-0.07884-0.18997-0.30738-0.41164 0.23461-0.37793 0.92402 0.0334 0.68432 0.1884 0.89798 0.61249 0.84463 0.17786-0.02238 0.26511 0.07715 0.35989 0.41051 0.14365 0.50528 0.31612 0.74275 0.23356 0.3216l-0.0553-0.28178 0.12319 0.27997c0.17569 0.39923 0.41689 0.259 0.46118-0.2681 0.0344-0.40968 0.0132-0.44601-0.23993-0.4106-0.15273 0.02137-0.30911 0.11693-0.34751 0.21237-0.051 0.1268-0.0884 0.10258-0.13873-0.08997-0.0411-0.15712-0.0129-0.26743 0.0698-0.27324 0.0763-0.0054 0.28269-0.02044 0.45865-0.03352 0.29583-0.02198 0.32307 0.01572 0.36162 0.50051 0.0318 0.39961-0.006 0.55021-0.16208 0.63334-0.52238 0.27957-1.2673-0.07435-1.5395-0.73142-0.0836-0.20177-0.17566-0.34314-0.20464-0.31417-0.0998 0.09976 0.3207 0.77404 0.6386 1.0241 0.17517 0.13779 0.26732 0.25052 0.20478 0.25052-0.14287 0-0.68687-0.57749-0.85755-0.91033-0.0706-0.13779-0.0996-0.38072-0.0642-0.53984 0.0515-0.23191 0.0381-0.25361-0.0678-0.10937-0.10081 0.13735-0.11848 0.05217-0.0747-0.35989 0.0464-0.43636 0.0379-0.47086-0.0441-0.17995-0.0756 0.26811-0.10149 0.09983-0.10149-0.6598 0-0.75461 0.0262-0.92613 0.10051-0.6598 0.0781 0.27975 0.0888 0.22632 0.0481-0.23993-0.0396-0.45316-0.0232-0.54115 0.0671-0.35989 0.0993 0.19937 0.108 0.18163 0.0516-0.10494-0.0491-0.24952 0.0172-0.47339 0.23979-0.80976 0.16921-0.25569 0.34048-0.46489 0.38062-0.46489 0.0401 0 0.005 0.08228-0.0788 0.18285-0.0835 0.10056-0.11706 0.21753-0.0747 0.25992 0.0424 0.04239 0.0771 0.01091 0.0771-0.06996s0.052-0.11489 0.11559-0.0756c0.0641 0.03964 0.006 0.18092-0.13036 0.31738-0.17808 0.17807-0.22552 0.33412-0.17193 0.56545 0.0589 0.25405 0.0464 0.28264-0.0609 0.13956-0.11354-0.15143-0.12363-0.14512-0.0637 0.0398 0.0392 0.12086 0.0737 0.28281 0.0766 0.35989 0.003 0.07708 0.11037-0.0588 0.2388-0.30195s0.29061-0.47739 0.36042-0.52053c0.0861-0.05324 0.0769-0.139-0.0289-0.26697-0.13927-0.16856-0.12812-0.17131 0.10522-0.02601 0.24043 0.14972 0.24516 0.17489 0.06 0.31948-0.18185 0.14199-0.17844 0.149 0.0358 0.07351 0.22262-0.07843 0.22082-0.06304-0.03 0.25581-0.14677 0.18659-0.26769 0.42645-0.2687 0.53302-0.002 0.16934-0.0172 0.17108-0.1236 0.01381-0.0889-0.13142-0.10006-0.08289-0.0413 0.17995 0.11139 0.49798 0.13095 0.50202 0.3729 0.07699 0.11753-0.20646 0.25723-0.37572 0.31046-0.37614 0.0533-0.00036 0.0127 0.11922-0.09 0.26586-0.22021 0.31439-0.23712 0.61475-0.0539 0.95711 0.10657 0.19911 0.15369 0.21536 0.2381 0.08209 0.0579-0.09139 0.10523-0.22015 0.10523-0.28613s-0.0523-0.03899-0.11629 0.05998c-0.0857 0.13259-0.11629 0.05366-0.11629-0.29991 0-0.36945 0.029-0.43845 0.12598-0.29991 0.0972 0.13876 0.10752 0.11472 0.0453-0.105-0.0545-0.19225-0.0379-0.25852 0.0507-0.20371 0.0824 0.05091 0.10478 0.01173 0.06-0.10494-0.0393-0.1024-0.11966-0.18618-0.17858-0.18618-0.0589 0-0.10713-0.10797-0.10713-0.23993 0-0.13329 0.08-0.23993 0.17995-0.23993 0.10089 0 0.17994 0.10705 0.17994 0.24369 0 0.13403 0.0807 0.27465 0.17926 0.31248 0.0986 0.03783 0.14424 0.12546 0.10143 0.19472-0.0478 0.07735-0.0194 0.08985 0.0735 0.03239 0.1118-0.0691 0.13239-0.01908 0.0788 0.1914-0.0399 0.15672 0.0313 0.06901 0.15819-0.19491 0.12692-0.26392 0.23914-0.69579 0.24938-0.95971l0.0186-0.47986 0.22707 0.47986c0.12489 0.26392 0.22759 0.39888 0.22824 0.29991 0.003-0.43888-0.54655-1.1455-1.1066-1.4233-0.49234-0.24419-0.61967-0.26383-0.91563-0.14124-0.86069 0.35651-1.3316 1.4133-1.3316 2.988 0 0.89791 0.24982 2.0666 0.51818 2.4241 0.22167 0.29528 0.59879 0.47584 0.8614 0.41241 0.13196-0.03187 0.35726-0.05869 0.50065-0.05959zm-0.89096-1.398c0.16298-0.04715 0.18308-0.10995 0.0905-0.28289-0.0753-0.14064-0.0779-0.3247-0.007-0.50114 0.0743-0.18528 0.11435-0.21287 0.1194-0.08221 0.004 0.10815 0.11378 0.32409 0.24354 0.47986l0.23594 0.28321 0.004-0.26992c0.002-0.15818 0.0785-0.26992 0.18393-0.26992 0.10428 0 0.17995 0.1087 0.17995 0.25852 0 0.25274 0.006 0.25356 0.24509 0.03672 0.21481-0.19441 0.23545-0.1967 0.16711-0.01859-0.0429 0.11177-0.11269 0.2076-0.15512 0.21296-0.37064 0.04683-0.74315 0.09815-1.0968 0.15112-0.23093 0.03459-0.3256 0.03561-0.21038 0.0023zm0.30828-0.3436c-0.0753-0.16523-0.15947-0.27782-0.1871-0.2502-0.0561 0.05603 0.1872 0.55062 0.27079 0.55062 0.0293 0-0.008-0.13519-0.0837-0.30042zm1.2235-2.1103c-0.002-0.24923-0.3779-0.58517-0.67109-0.60038-0.18016-0.0094-0.16501-0.03293 0.0694-0.10801 0.27137-0.08691 0.27548-0.09719 0.0433-0.10801-0.31921-0.01487-0.79372-0.38783-0.83288-0.65462-0.0437-0.29754 0.33156-0.44841 0.78899-0.31722 0.49178 0.14104 0.96032 0.44419 0.96032 0.62135 0 0.07469-0.11284 0.03367-0.25077-0.09115-0.24616-0.22277-0.25392-0.22262-0.42295 0.0085-0.15467 0.21151-0.1444 0.25732 0.1008 0.44985 0.23969 0.1882 0.24372 0.20436 0.0331 0.13246-0.23663-0.08078-0.23679-0.07833-0.0114 0.17837 0.2311 0.2632 0.38194 0.35164 0.25817 0.15138-0.037-0.05989-0.0166-0.23533 0.0453-0.38988 0.10275-0.25643 0.1131-0.24429 0.11836 0.13888 0.003 0.23093-0.0465 0.50085-0.11052 0.59982-0.10171 0.15738-0.11652 0.15595-0.11813-0.0114zm-0.43275-1.2482c0.10808-0.16495 0.17769-0.29991 0.15468-0.29991-0.023 0-0.16863 0.13496-0.32359 0.29991s-0.22457 0.29991-0.15468 0.29991c0.0699 0 0.21552-0.13496 0.32359-0.29991zm-0.5288-0.41987c0.099-0.06396 0.12596-0.11629 0.06-0.11629-0.066 0-0.20094 0.05233-0.29991 0.11629-0.099 0.06396-0.12596 0.11629-0.06 0.11629 0.066 0 0.20094-0.05233 0.29991-0.11629zm1.8789 1.6495c-0.0333-0.08247-0.0605-0.015-0.0605 0.14996 0 0.16495 0.0273 0.23243 0.0605 0.14996 0.0333-0.08247 0.0333-0.21744 0-0.29991zm-2.193-0.15619c0.041-0.10676 0.0209-0.15491-0.0472-0.11288-0.0653 0.04031-0.11859 0.12409-0.11859 0.18618 0 0.17256 0.086 0.13454 0.16574-0.07329zm-0.53526-0.65357c0.13468-0.28279 0.13217-0.28662-0.0438-0.06704-0.10262 0.12808-0.18657 0.28553-0.18657 0.3499 0 0.15242 0.0554 0.08436 0.2303-0.28285zm3.2725 1.8444c-0.0131-0.47011-0.0506-1.0369-0.0834-1.2596l-0.0596-0.40488 0.12468 0.39642c0.0685 0.21803 0.10611 0.78486 0.0834 1.2596l-0.0413 0.8632-0.0238-0.85474zm-0.49627-2.4263c-0.23125-0.5583-0.78843-1.012-1.3564-1.1044l-0.51048-0.08311 0.44569-0.01501c0.34169-0.01152 0.54607 0.07312 0.87586 0.36268 0.41656 0.36574 0.85023 1.0294 0.74283 1.1368-0.029 0.02897-0.11785-0.10466-0.19751-0.29697zm-18.602 4.9955c0.96395-0.13733 0.99346-0.15008 0.53984-0.23317-0.26392-0.04835-0.77728-0.091-1.1408-0.09481-0.53557-0.0056-0.68935 0.0386-0.81077 0.23301-0.13322 0.21333-0.11979 0.23994 0.1211 0.24008 0.14901 0.000084 0.7298-0.06522 1.2906-0.14512zm11.725-0.64555c0.23959-0.1543 0.98706-1.2974 0.98993-1.5139 0.0006-0.04682-0.44424-0.10331-0.98858-0.12554l-0.9897-0.04042 1.0497-0.02442c0.60354-0.01404 1.0497-0.07541 1.0497-0.14438 0-0.06598-0.20244-0.12904-0.44987-0.14013l-0.44986-0.02017 0.45157-0.04716c0.40124-0.0419 0.48257-0.10984 0.72988-0.60964 0.40259-0.81363 0.83829-1.9417 0.77454-2.0055-0.0302-0.03012-1.3663 0.0071-2.9694 0.0828-2.2105 0.10434-4.1165 0.10329-7.8894-0.0044-9.6498-0.2753-14.788-0.65406-15.984-1.1783-0.46263-0.20273-1.0354-0.21502-1.5154-0.03253-0.25311 0.09623-0.2986 0.18178-0.2674 0.5028 0.034 0.34986 0.086 0.39634 0.54371 0.48625 0.59417 0.11671 1.0231 0.57695 0.96916 1.0399-0.0298 0.25593-0.0901 0.30077-0.3656 0.27194-0.18144-0.01899-0.3299-0.0094-0.3299 0.02139 0 0.14861 0.88056 1.5092 1.1259 1.7397 0.20996 0.19725 0.67701 0.3368 1.8859 0.56351 2.0065 0.37628 4.2687 0.57061 10.364 0.89032 12.179 0.63877 11.736 0.62838 12.265 0.2878zm-13.673-0.85386c0.14923-0.0287 0.36517-0.02761 0.47986 0.0024 0.11469 0.03002-0.007 0.0535-0.27132 0.05217-0.26392-0.0014-0.35776-0.0259-0.20854-0.05459zm-2.1576-0.12311c0.28216-0.02535 0.71403-0.02499 0.95971 0.000799 0.24569 0.02578 0.0148 0.04651-0.51301 0.04607-0.52784-0.000479-0.72886-0.02153-0.4467-0.04687zm3.3812-0.04319c0.30008-0.05881 0.66554-0.23525 0.83193-0.40164l0.29675-0.29675-0.592 0.30651c-0.5833 0.30201-0.61973 0.3054-2.4778 0.23131-2.0712-0.08259-5.4675-0.3609-6.569-0.53828-0.3863-0.06221-0.86241-0.19588-1.058-0.29704-0.40107-0.2074-0.92904-0.78988-1.0438-1.1516-0.0479-0.15091-0.18147-0.24058-0.35837-0.24058-0.15511 0-0.36706-0.03263-0.47101-0.07252-0.1263-0.04847-0.2265 0.02115-0.30211 0.20994-0.10851 0.27093-0.11344 0.27197-0.12073 0.02537-0.01-0.33913 0.16089-0.38849 0.9521-0.27497 0.36289 0.05207 0.92972 0.09891 1.2596 0.10409 0.93463 0.01469 1.463 0.21704 2.0597 0.78881 0.30227 0.28962 0.78003 0.60511 1.0617 0.70108 0.47173 0.16074 0.54184 0.15643 0.88872-0.05452 0.20712-0.12596 0.40831-0.31168 0.44707-0.41271 0.0388-0.10103 0.23217-0.2673 0.42977-0.36948 0.30766-0.1591 0.72347-0.17339 2.8946-0.09952 1.3944 0.04745 2.6553 0.13114 2.8019 0.18598 0.61622 0.2305 0.38322 1.2344-0.36939 1.5916-0.22732 0.10787-0.56709 0.19021-0.75506 0.18298-0.25716-0.0099-0.20928-0.03911 0.19342-0.11803zm-5.1865-0.07537c0.21296-0.0265 0.59085-0.02694 0.83975-0.00096 0.24889 0.02597 0.0746 0.04765-0.38721 0.04819-0.46186 0.00048-0.66551-0.02071-0.45254-0.04722zm-1.3769-0.1193c0.18145-0.02749 0.47836-0.02749 0.6598 0 0.18145 0.02749 0.033 0.04998-0.3299 0.04998-0.36289 0-0.51134-0.02249-0.3299-0.04998zm-1.198-0.12012c0.18236-0.02757 0.45228-0.02684 0.59982 0.0016 0.14755 0.02848-0.002 0.05104-0.33154 0.05014-0.32991-0.000959-0.45063-0.0242-0.26828-0.05177zm-1.0181-0.119c0.14923-0.02869 0.36516-0.02761 0.47986 0.0024 0.11469 0.03003-0.007 0.0535-0.27132 0.05217-0.26392-0.0013-0.35776-0.0259-0.20854-0.05459zm-1.171-0.15508c-0.23501-0.07526-0.24799-0.09556-0.06-0.09381 0.13196 0.0012 0.40188 0.04345 0.59982 0.09381 0.32327 0.08226 0.32938 0.09181 0.06 0.09381-0.16495 0.0012-0.43487-0.04099-0.59982-0.09381zm-0.963-0.3244c-0.3305-0.22778-0.5367-0.45777-0.73094-0.81526-0.0717-0.13196 0.0465-0.03097 0.26262 0.22442 0.21614 0.25539 0.55914 0.53669 0.7622 0.62512 0.20307 0.08842 0.28675 0.16288 0.18597 0.16546-0.10078 0.0026-0.31672-0.0873-0.47985-0.19974zm20.491 0.11585c0.3486-0.02431 0.88844-0.02406 1.1996 0.0006 0.31119 0.02462 0.026 0.04451-0.63384 0.0442-0.6598-0.00036-0.91441-0.02046-0.5658-0.04477zm-2.6732-0.15056c-0.14256-0.06079 0.17389-0.07493 0.77976-0.03483 0.56083 0.03711 1.0422 0.08695 1.0697 0.11074 0.1061 0.09184-1.6224 0.02089-1.8494-0.07591zm-13.676-0.34327c-0.19794-0.12189-0.6071-0.48741-0.90925-0.81227-1.1372-1.223-1.2078-1.605-0.2967-1.605h0.54145l-0.014 0.62209c-0.0121 0.53571 0.0308 0.66064 0.30876 0.89973 0.37647 0.32383 0.69619 0.35356 0.96045 0.0893 0.2676-0.26761 0.34223-0.66745 0.19624-1.0514l-0.12573-0.33068 0.80887 0.03545c0.73286 0.03212 0.80512 0.058 0.76903 0.27538-0.0534 0.3221-0.69334 1.3145-1.1274 1.7486-0.40827 0.40827-0.61801 0.43245-1.112 0.12823zm15.572 0.13293c0.71287-0.02125 1.8465-0.02117 2.5192 0.00012 0.67271 0.02134 0.0894 0.03873-1.2961 0.03863-1.3856-0.000098-1.936-0.01756-1.2231-0.03881zm-6.5187-0.76542c-0.0787-0.29224-0.0892-0.53922-0.0257-0.60274 0.0592-0.05919 1.0466-0.09282 2.1943-0.07471l2.0867 0.03292 0.1379 0.47986c0.0758 0.26392 0.11482 0.52034 0.0866 0.56983-0.0282 0.04949-1.0177 0.08997-2.1989 0.08997h-2.1476l-0.13332-0.49512zm4.2785 0.10523c-0.0397-0.14846-0.0731-0.3374-0.074-0.41987-0.002-0.11402-0.49036-0.14996-2.041-0.14996-2.156 0-2.1193-0.01063-1.9638 0.56983 0.0714 0.26649 0.0982 0.26992 2.1117 0.26992h2.0394l-0.0724-0.26992zm-13.556-0.55278c-0.30366-0.33554-0.22833-1.1434 0.11116-1.192 0.38489-0.05506 0.67528 0.35593 0.63113 0.89324-0.0295 0.35902-0.0927 0.46947-0.28448 0.4969-0.1356 0.0194-0.34161-0.06978-0.45781-0.19817zm18.538-0.32857c0.0474-0.24791 0.65684-0.3775 1.8704-0.39775 0.55334-0.0092 0.62981 0.01862 0.62981 0.22942 0 0.20319-0.08 0.23993-0.52224 0.23993-0.28723 0-0.85961 0.03526-1.272 0.07836-0.69367 0.0725-0.74645 0.06129-0.70602-0.14996zm1.814-0.13603c-0.27843-0.02516-0.76428-0.02546-1.0797-0.00072-0.3154 0.02479-0.0876 0.04538 0.50622 0.04574s0.85187-0.01992 0.57345-0.04508zm-22.826 3.32c0-0.13585-0.054-0.21364-0.11996-0.17287-0.066 0.04078-0.11997 0.15193-0.11997 0.24701s0.054 0.17286 0.11997 0.17286c0.066 0 0.11996-0.11115 0.11996-0.24701zm32.182-0.34948c0.60916-0.13013 1.6744-0.31787 2.3672-0.41721 1.8826-0.26994 9.9098-1.3566 10.737-1.4534 0.39588-0.04636 0.84194-0.12997 0.99125-0.1858 0.24291-0.09084 1.2786-1.5354 1.175-1.6389-0.0231-0.0231-0.69471 0.04711-1.4924 0.15602-0.79775 0.10891-1.5154 0.17637-1.5948 0.14991-0.0793-0.02646 0.62171-0.14602 1.558-0.26569 0.93626-0.11967 1.7023-0.26471 1.7023-0.3223s-0.14845-0.11206-0.3299-0.12105c-0.24492-0.01213-0.26648-0.02893-0.0837-0.06522 0.17717-0.03517 0.42955-0.42516 0.89973-1.3903 0.35942-0.73777 0.67149-1.3832 0.69348-1.4343 0.022-0.05111-0.13995-0.10058-0.35989-0.10995l-0.39988-0.01702 0.44847-0.07295c0.38929-0.06332 0.51595-0.17544 0.95972-0.84945 0.68022-1.0332 1.0347-1.2233 2.4113-1.2934 1.3802-0.07032 1.6625 0.09685 1.8915 1.1204 0.12969 0.5795 0.18097 0.65791 0.39796 0.60848 0.137-0.03121 0.95087-0.15617 1.8086-0.2777 1.333-0.18886 1.4898-0.23256 1.0797-0.3009-0.39986-0.06662-0.35985-0.07662 0.23993-0.05998l0.71978 0.01997 0.0391-0.47986c0.0215-0.26392 0.005-0.70929-0.0374-0.9897l-0.0764-0.50985-0.86239-0.0235-0.86239-0.0235 0.80975-0.04197c0.44537-0.02308 0.80976-0.08668 0.80976-0.14134 0-0.14484-0.5982-1.2073-0.92807-1.6483-0.48966-0.65465-0.88729-0.75925-3.6042-0.9481-4.6336-0.32208-5.2839-0.33539-6.348-0.12987-0.54078 0.10445-1.6318 0.22656-2.4244 0.27136l-1.4412 0.08145 0.53094 0.59054c0.50549 0.56222 1.3788 2.109 1.3788 2.442 0 0.0926 0.18383 0.17582 0.44987 0.20364l0.44986 0.04706-0.50277 0.02017c-0.5711 0.02291-0.61074 0.06352-0.74964 0.7681-0.0721 0.36543-0.10464 0.41963-0.11402 0.1896-0.007-0.17715 0.0418-0.46666 0.10899-0.64336 0.1129-0.29693 0.10153-0.31642-0.14995-0.2572-0.14965 0.03524-0.81194 0.09182-1.4717 0.12573l-1.1996 0.06165 1.4789-0.16148c0.81338-0.08882 1.5095-0.19207 1.5469-0.22946 0.10734-0.10735-0.29024-1.0472-0.74485-1.7608-0.22842-0.35852-0.41833-0.57089-0.42203-0.47192-0.006 0.14221-0.0324 0.13592-0.12899-0.02999-0.0779-0.13376-0.28336-0.21611-0.56618-0.22696l-0.44391-0.01702 0.47815-0.07295 0.47816-0.07295-0.35407-0.27754c-0.32514-0.25487-0.44262-0.2731-1.4379-0.22314-0.59608 0.02992-1.2727 0.08495-1.5037 0.12229-0.32326 0.05226-0.3381 0.04831-0.0645-0.01719 0.70018-0.1676 1.1488-1.3234 0.734-1.8908-0.14956-0.20457-0.35-0.2376-1.6495-0.27186-1.8102-0.04772-1.9115 0.0027-1.9936 0.99222-0.0314 0.3791-0.0965 0.62563-0.14457 0.54785-0.0509-0.08239-0.14589 0.09085-0.22753 0.41506-0.12643 0.50212-0.11555 0.591 0.11139 0.9097 0.2009 0.28215 0.34092 0.35321 0.69592 0.35321 0.43853 0 0.44443-0.0064 0.44443-0.47986 0-0.43549-0.0285-0.47986-0.30864-0.47986-0.31991 0-0.59923-0.19498-0.5929-0.41388 0.002-0.06928 0.0587-0.03149 0.12593 0.08398 0.0903 0.15503 0.28543 0.21242 0.74612 0.21941 0.34312 0.0052 0.54288 0.04029 0.44391 0.07797-0.28903 0.11002-0.36959 0.30595-0.29702 0.72232l0.068 0.38988h-0.54642c-0.50015 0-0.57424-0.03992-0.87517-0.4716-0.31157-0.44693-0.36641-0.47396-1.0485-0.51672l-0.71979-0.04512 0.78369-0.02312 0.78369-0.02311-0.0394-0.86974c-0.0608-1.3411-0.11162-1.4468-0.15878-0.3299-0.0237 0.56083-0.073-0.27592-0.10959-1.8594l-0.0665-2.8791-0.0267 2.9091-0.0267 2.9091h-0.95971c-0.60101 0-0.95971-0.04792-0.95971-0.12822 0-0.07052 0.13761-0.6711 0.30581-1.3346 0.1682-0.66353 0.28905-1.2934 0.26857-1.3998-0.0205-0.10636-0.13655 0.22787-0.25792 0.74272-0.12138 0.51485-0.24422 0.91256-0.27298 0.88379-0.0288-0.02876 0.22714-1.1692 0.56867-2.5344 0.41482-1.6581 0.58106-2.522 0.50076-2.6023-0.28847-0.28847-6.3382-0.61995-11.573-0.63412-2.823-0.0077-4.0826 0.02936-4.1764 0.12266-0.0987 0.09817 1.1004 0.15254 4.522 0.20504 4.006 0.06146 10.489 0.41609 10.656 0.58287 0.0257 0.02566-0.10476 0.5306-0.2898 1.1221-0.18505 0.5915-0.56845 1.9468-0.852 3.0119l-0.51552 1.9364-0.67178-0.04404c-1.8221-0.11945-4.9305-0.14682-4.9305-0.0434 0 0.06241 0.081 0.11346 0.17995 0.11346 0.099 0 0.17994 0.05398 0.17994 0.11996 0 0.13651-0.59455 0.13842-1.5595 0.005l-0.6598-0.09121 0.65551-0.01689c0.57024-0.01469 0.63267-0.03918 0.47986-0.18825-0.13746-0.1341-0.95825-0.20101-3.7746-0.30771-1.9794-0.07499-4.0869-0.12263-4.6833-0.10587-0.59643 0.01677-1.138-0.0026-1.2035-0.04313-0.0655-0.04049-0.79483-0.08629-1.6207-0.10178-1.1321-0.02123-1.633 0.01912-2.0355 0.16401-0.29366 0.1057-1.4786 0.2816-2.6333 0.3909-3.9482 0.37375-7.8481 1.101-10.299 1.9204-1.5693 0.52475-1.7903 0.6453-1.1921 0.6502 0.54615 0.0045 1.2389 0.56038 1.3546 1.087 0.0427 0.19442 0.11711 0.37788 0.16536 0.4077 0.0482 0.02982 0.43466-0.16515 0.85869-0.43326 0.86054-0.54411 3.1307-1.7028 3.5938-1.8342 0.16495-0.04682-0.40188 0.26599-1.2596 0.69513-1.5723 0.78663-2.0994 1.1521-2.0994 1.4557 0 0.19313 0.77218 0.51056 1.6229 0.66714l0.59643 0.10978-0.62969-0.05027c-0.76368-0.06097-1.7096-0.45639-1.7096-0.71466 0-0.10268-0.0438-0.18669-0.0975-0.18669-0.15499 0-2.1133 1.3649-3.2282 2.25-1.219 0.96771-1.7168 1.3057-1.053 0.71499 0.39759-0.35384 0.45278-0.45436 0.32188-0.58634-0.23056-0.23247-0.91589 0.53602-0.80616 0.90397 0.0421 0.14099 0.0918 0.33348 0.1106 0.42777 0.0358 0.17922 0.36591 0.35155 0.67359 0.35155 0.11764 0 0.0969-0.03926-0.06-0.11338-0.20814-0.09836-0.19953-0.10571 0.065-0.05553 0.1677 0.03181 0.62656 0.0976 1.0197 0.1462 0.62488 0.07725 0.66951 0.09893 0.35488 0.17237-0.19794 0.04621 0.099 0.06591 0.6598 0.04379 0.79834-0.03149 0.90251-0.01897 0.47986 0.05767-0.39408 0.07146-0.18353 0.08938 0.77976 0.06637 1.0294-0.02458 1.1613-0.01189 0.59982 0.05771-0.48487 0.0601-0.11291 0.07999 1.1397 0.06095 1.2766-0.01941 1.5398-0.0049 0.83975 0.04614l-1.0197 0.07442 1.7395 0.09203c6.7817 0.3588 13.059 0.51085 16.113 0.3903 1.2402-0.04895 2.2293-0.11465 2.198-0.146-0.0314-0.03135-2.6121-0.06077-5.735-0.06539-3.8384-0.0057-5.1533-0.03645-4.0585-0.095 0.89073-0.04764 2.0705-0.15055 2.6218-0.22869 0.55124-0.07814 1.0282-0.11619 1.0598-0.08455 0.0317 0.03164-0.25743 0.0931-0.64237 0.13658s-0.75388 0.10237-0.81986 0.13086c-0.11583 0.05002 2.9974-0.01635 5.3384-0.11381 0.9234-0.03844 0.99169-0.03114 0.35989 0.03846-0.5499 0.06058-0.19917 0.08285 1.1898 0.07554 1.4008-0.0074 1.9832-0.05132 2.0167-0.15218 0.0281-0.08448-0.11343-0.16159-0.35002-0.19074l-0.39717-0.04893 0.44814-0.0192c0.42105-0.01804 0.46995-0.06239 0.80886-0.73379 0.78545-1.556 1.6345-2.1214 3.4422-2.2924 0.61939-0.0586 1.7974-0.1931 2.6177-0.29888 0.82037-0.10579 1.588-0.17316 1.7059-0.14971 0.11789 0.02345-0.64127 0.14377-1.687 0.26738-1.7506 0.20693-1.8726 0.23685-1.5388 0.3772 0.4621 0.1943 1.2646 1.0178 1.4662 1.5046 0.15166 0.36614 0.1696 0.37327 0.76471 0.30389 0.33518-0.03908 1.0143-0.09731 1.5091-0.12942 0.61353-0.0398 0.43516 0.0018-0.56076 0.13073-1.1526 0.14923-1.4469 0.22453-1.396 0.35717 0.0496 0.12911 0.2491 0.15484 0.86067 0.111l0.79618-0.05707-0.70771 0.11303c-0.38924 0.06216-0.72081 0.12746-0.73682 0.14509-0.016 0.01764 0.015 0.30199 0.0689 0.63189 0.0927 0.5672 0.0844 0.81251-0.0674 1.9919l-0.0634 0.49238 0.87316-0.06451 0.87315-0.06451-0.89973 0.14305c-0.51263 0.0815-0.83768 0.18282-0.7555 0.23548 0.0793 0.05084 0.48421 0.03726 0.89973-0.03017s0.89046-0.11682 1.0554-0.10975c0.16495 0.0071-0.15201 0.08339-0.70436 0.16962-0.55235 0.08622-1.0443 0.2015-1.0932 0.25616-0.049 0.05467-0.14322 0.36932-0.20951 0.69922-0.0663 0.3299-0.16043 0.69429-0.2092 0.80976-0.1118 0.2647-0.0713 0.26386 1.2887-0.02666zm1.7674-2.0488c0.29691-0.05283 0.70179-0.0933 0.89973-0.08993 0.26547 0.0045 0.21825 0.03133-0.17994 0.10218-0.29692 0.05283-0.70179 0.0933-0.89973 0.08993-0.26546-0.0045-0.21825-0.03133 0.17994-0.10218zm-0.92972-0.19654c0.11547-0.03017 0.30441-0.03017 0.41987 0 0.11547 0.03017 0.021 0.05486-0.20993 0.05486s-0.3254-0.02469-0.20994-0.05486zm2.7292-0.04339c0.29691-0.05283 0.70179-0.0933 0.89973-0.08993 0.26547 0.0045 0.21825 0.03133-0.17994 0.10218-0.29692 0.05283-0.70179 0.0933-0.89973 0.08993-0.26546-0.0045-0.21825-0.03133 0.17994-0.10218zm-1.8894-0.07657c0.11547-0.03017 0.30441-0.03017 0.41987 0 0.11547 0.03017 0.021 0.05486-0.20993 0.05486-0.23094 0-0.3254-0.02469-0.20994-0.05486zm0.90113-0.12211c0.14923-0.02869 0.36516-0.0276 0.47985 0.0024 0.1147 0.03002-0.007 0.0535-0.27131 0.05217-0.26393-0.0013-0.35777-0.0259-0.20854-0.05459zm2.7878-0.04124c0.29691-0.05283 0.70179-0.0933 0.89973-0.08993 0.26547 0.0045 0.21825 0.03133-0.17994 0.10218-0.29692 0.05283-0.70179 0.0933-0.89973 0.08993-0.26546-0.0045-0.21825-0.03133 0.17994-0.10218zm-1.8894-0.07657c0.11547-0.03017 0.30441-0.03017 0.41987 0 0.11547 0.03017 0.021 0.05486-0.20993 0.05486-0.23094 0-0.3254-0.02469-0.20994-0.05486zm1.1696-0.16336c0.29691-0.05283 0.70179-0.0933 0.89973-0.08993 0.26546 0.0045 0.21824 0.03133-0.17995 0.10218-0.29691 0.05283-0.70179 0.0933-0.89973 0.08993-0.26546-0.0045-0.21825-0.03133 0.17995-0.10218zm2.5192 0c0.29691-0.05283 0.70179-0.0933 0.89973-0.08993 0.26547 0.0045 0.21825 0.03133-0.17994 0.10218-0.29692 0.05283-0.70179 0.0933-0.89973 0.08993-0.26546-0.0045-0.21825-0.03133 0.17994-0.10218zm-4.5586-0.11996c0.29691-0.05283 0.70179-0.0933 0.89973-0.08993 0.26546 0.0045 0.21825 0.03133-0.17995 0.10218-0.29691 0.05283-0.70179 0.0933-0.89973 0.08993-0.26545-0.0045-0.21824-0.03133 0.17995-0.10218zm3.509-0.07657c0.11547-0.03017 0.30441-0.03017 0.41987 0 0.11547 0.03017 0.021 0.05486-0.20994 0.05486-0.23093 0-0.3254-0.02469-0.20993-0.05486zm2.8491-0.04339c0.29691-0.05283 0.70179-0.0933 0.89973-0.08993 0.26547 0.0045 0.21825 0.03133-0.17994 0.10218-0.29692 0.05283-0.70179 0.0933-0.89973 0.08993-0.26546-0.0045-0.21825-0.03133 0.17994-0.10218zm-6.9484-0.18382c0.006-0.13975 0.0341-0.16818 0.0725-0.07248 0.0346 0.0866 0.0304 0.19007-0.009 0.22993-0.0398 0.03986-0.0682-0.03099-0.063-0.15745zm2.5098 0.06386c0.29691-0.05283 0.70179-0.0933 0.89973-0.08993 0.26547 0.0045 0.21825 0.03133-0.17994 0.10218-0.29691 0.05283-0.70179 0.0933-0.89973 0.08993-0.26546-0.0045-0.21825-0.03133 0.17994-0.10218zm2.7592 0c0.29691-0.05283 0.70178-0.0933 0.89973-0.08993 0.26546 0.0045 0.21824 0.03133-0.17995 0.10218-0.29691 0.05283-0.70179 0.0933-0.89973 0.08993-0.26546-0.0045-0.21825-0.03133 0.17995-0.10218zm3.479-0.11996c0.29691-0.05283 0.70179-0.0933 0.89973-0.08993 0.26547 0.0045 0.21825 0.03133-0.17994 0.10218-0.29692 0.05283-0.70179 0.0933-0.89973 0.08993-0.26546-0.0045-0.21825-0.03133 0.17994-0.10218zm-4.7072-0.07872c0.14923-0.02869 0.36517-0.02761 0.47986 0.0024 0.11469 0.03003-0.007 0.0535-0.27132 0.05217-0.26392-0.0013-0.35776-0.0259-0.20854-0.05459zm2.6978 0.0021c0.11547-0.03017 0.30442-0.03017 0.41988 0 0.11547 0.03018 0.021 0.05486-0.20994 0.05486-0.23093 0-0.3254-0.02469-0.20994-0.05486zm-1.4696-0.16335c0.29691-0.05283 0.70178-0.0933 0.89973-0.08993 0.26546 0.0045 0.21824 0.03133-0.17995 0.10218-0.29691 0.05283-0.70179 0.0933-0.89973 0.08993-0.26546-0.0045-0.21825-0.03133 0.17995-0.10218zm2.6392 0c0.29691-0.05283 0.70179-0.0933 0.89973-0.08993 0.26547 0.0045 0.21825 0.03133-0.17994 0.10218-0.29691 0.05283-0.70179 0.0933-0.89973 0.08993-0.26546-0.0045-0.21825-0.03133 0.17994-0.10218zm-1.1083-0.19869c0.14922-0.02869 0.36516-0.02761 0.47985 0.0024 0.1147 0.03003-0.007 0.0535-0.27132 0.05217-0.26392-0.0013-0.35776-0.0259-0.20853-0.05459zm3.3276-0.10044c0.52784-0.08612 1.1217-0.15418 1.3196-0.15124 0.19794 0.0029-0.072 0.0758-0.59982 0.16192-0.52784 0.08612-1.1217 0.15418-1.3196 0.15124-0.19794-0.0029 0.072-0.0758 0.59982-0.16192zm-2.3679-0.01952c0.14922-0.02869 0.36516-0.0276 0.47985 0.0024 0.1147 0.03002-0.007 0.0535-0.27131 0.05217-0.26393-0.0013-0.35777-0.0259-0.20854-0.05459zm-7.5189-0.15508c-0.004-0.09897 0.0457-0.26092 0.10969-0.35989 0.14172-0.21929 0.14172-0.02988 0 0.29991-0.068 0.1582-0.10534 0.17863-0.10969 0.05998zm8.5672-0.064c0.46187-0.22908 0.85542-0.81154 1.2119-1.7937l0.28369-0.78155-0.50786-0.01802-0.50787-0.01802 0.50658-0.07195c0.57724-0.08199 0.56146-0.31655-0.0271-0.40305l-0.3595-0.05283 0.38299-0.01797c0.35993-0.01689 0.38575-0.04866 0.42891-0.52782l0.0459-0.50985 0.021 0.51793c0.0175 0.43189 0.0558 0.50768 0.23089 0.45622 0.11547-0.03394 0.6688-0.08856 1.2296-0.12138l1.0197-0.05967-1.1996 0.1619c-0.6598 0.08905-1.2168 0.16703-1.2377 0.17328-0.0209 0.0063-0.007 0.10945 0.0311 0.22931s-0.0395 0.53393-0.17243 0.92013c-0.43618 1.2678-1.0578 2.1057-1.5568 2.0982-0.10078-0.0015-0.0213-0.08306 0.17665-0.18123zm3.2704-0.02085c0.14923-0.02869 0.36516-0.0276 0.47986 0.0024 0.11469 0.03002-0.007 0.0535-0.27132 0.05217-0.26392-0.0013-0.35777-0.0259-0.20854-0.05459zm-37.67-0.36412c0.47836-0.02277 1.2611-0.02277 1.7395 0 0.47837 0.02277 0.087 0.0414-0.86973 0.0414-0.95672 0-1.3481-0.01863-0.86974-0.0414zm-2.9944-0.11983c0.41496-0.02349 1.0628-0.0233 1.4396 0.00048 0.3768 0.02373 0.0373 0.04295-0.75448 0.04271-0.79176-0.00024-1.1-0.01965-0.68509-0.04315zm7.6616-0.13044c-0.41925-0.46326-0.18106-0.97578 0.95934-2.0643 0.45184-0.4313 1.0105-0.93054 1.2414-1.1094l0.41987-0.32526-0.59982 0.05991-0.59982 0.05991 0.6598-0.15574c0.72198-0.17041 1.0176-0.31103 1.7132-0.81492 0.25354-0.18366 0.89802-0.50082 1.4322-0.7048 1.1034-0.42133 3.0863-1.0105 3.1584-0.93839 0.0264 0.02637-0.55898 0.22292-1.3008 0.43679-0.7418 0.21387-1.4193 0.43249-1.5056 0.48583-0.10928 0.06753 0.0187 0.18416 0.42153 0.38409 0.74175 0.36816 1.2254 1.1217 1.3222 2.0602 0.0858 0.83155-0.20956 1.3793-0.99072 1.8371-0.53687 0.31463-1.9055 0.69904-2.1412 0.60139-0.0714-0.0296-0.0173-0.05807 0.12007-0.06328 0.44381-0.01682 0.42016-0.16328-0.0612-0.37877-0.53947-0.24153-0.82765-0.62371-0.97933-1.2988-0.10096-0.44934-0.006-1.3208 0.20404-1.8636 0.14386-0.3726-1.2986 0.6904-2.432 1.7923-1.2535 1.2186-1.4516 1.8845-0.62898 2.1147 0.25845 0.07232 0.26234 0.08199 0.0372 0.0927-0.13823 0.0066-0.34067-0.08676-0.44987-0.20742zm6.2089-0.90499c0.6877-0.37404 0.97201-0.81896 0.96197-1.5054-0.0109-0.74354-0.46769-1.6666-0.99907-2.0187-0.96118-0.63688-2.5479-0.06924-2.4307 0.86956 0.0249 0.19905 0.009 0.20927-0.0952 0.05998-0.093-0.13365-0.10718-0.07193-0.0553 0.23993 0.0443 0.26621 0.0301 0.36402-0.0389 0.26726-0.0709-0.09947-0.11499 0.0825-0.12657 0.52257-0.0276 1.0499 0.39223 1.6348 1.3278 1.8499 0.48672 0.11189 0.86058 0.03868 1.4559-0.28513zm-1.8616-0.0084c-0.30007-0.16933-0.70918-0.67561-0.70495-0.87239 0.0008-0.05181 0.11064 0.07535 0.2434 0.28258 0.30247 0.47211 0.81864 0.69506 1.3698 0.59166 0.59475-0.11158 1.0318-0.72288 1.1443-1.6007 0.0841-0.6556 0.0889-0.66325 0.10386-0.16564 0.04 1.3263-1.1734 2.3192-2.1564 1.7645zm0.3727-0.26624c0-0.06767 0.27317-0.40796 0.60705-0.75619 0.62093-0.64762 0.71896-1.0562 0.22224-0.92634-0.13611 0.03559-0.58083-0.06361-0.98825-0.22045s-0.67529-0.28781-0.59525-0.29103c0.08-0.0032 0.40599 0.0968 0.72434 0.22229 0.31836 0.12548 0.71992 0.20118 0.89236 0.16822 0.24621-0.04706 0.33151-0.0033 0.39724 0.2038 0.0468 0.14736 0.0255 0.32193-0.0481 0.39561-0.0725 0.07253-0.13997 0.32352-0.14985 0.55775-0.0153 0.36267-0.0254 0.37691-0.068 0.09597-0.0275-0.18145-0.0888-0.3299-0.1363-0.3299s-0.25982 0.22575-0.47189 0.50166c-0.21205 0.27592-0.38556 0.44629-0.38556 0.37862zm-0.41987-0.58221c0.26846-0.22031 1.2677-0.74872 1.0797-0.57094-0.066 0.06238-0.38988 0.26066-0.71978 0.44063-0.3299 0.17996-0.49185 0.23861-0.35989 0.13032zm-0.76083-0.41804c0-0.16495 0.0273-0.23243 0.0605-0.14996 0.0333 0.08247 0.0333 0.21744 0 0.29991s-0.0605 0.01499-0.0605-0.14996zm1.2407-1.3297c-0.63287-0.36318-0.66466-0.48256-0.0429-0.16102 0.45216 0.23382 0.55552 0.15059 0.29906-0.24081-0.10791-0.16469-0.19517-0.34182-0.19392-0.39363 0.002-0.09962 0.71751 1.0018 0.71751 1.1051 0 0.10786-0.16958 0.04053-0.77977-0.30963zm1.3773-0.11533c-0.17553-0.42377-0.54679-0.70388-1.1104-0.83779-0.33226-0.07894-0.34453-0.09359-0.087-0.10375 0.4203-0.01658 1.032 0.38694 1.2626 0.83286 0.10704 0.20699 0.17091 0.40005 0.14194 0.42903-0.029 0.02897-0.12222-0.11518-0.2072-0.32035zm-2.071-0.47696c0.21232-0.22276 0.40637-0.38079 0.43121-0.35118 0.0249 0.02961-0.14888 0.21186-0.38604 0.40502l-0.4312 0.35118 0.38603-0.40502zm4.8024 4.1145c0.21444-0.02661 0.56533-0.02661 0.77976 0 0.21444 0.02661 0.0389 0.04838-0.38988 0.04838-0.42887 0-0.60431-0.02177-0.38988-0.04838zm12.514 0.07187c-0.005-0.04119 0.0705-0.29761 0.16651-0.56983 0.0962-0.2728 0.12317-0.49494 0.06-0.49494-0.063 0-0.10114-0.06748-0.0846-0.14996 0.0189-0.09435-0.1702-0.17664-0.50985-0.22191-0.50529-0.06735-0.51242-0.07311-0.11148-0.08997l0.42836-0.01802-0.0238-0.9897-0.0238-0.9897 0.0753 0.86021c0.0414 0.47312 0.11778 0.90245 0.16966 0.95408 0.0519 0.05163 1.5233-0.06072 3.2697-0.24968 1.7465-0.18895 3.2004-0.3185 3.231-0.28789s-1.4012 0.21213-3.1817 0.40337c-3.1423 0.3375-3.7616 0.48946-2.7441 0.67341 0.37085 0.06704 0.3783 0.0757 0.0775 0.08997-0.24714 0.01172-0.36349 0.10076-0.45176 0.34569-0.16647 0.4619-0.33728 0.82373-0.34692 0.73487zm-17.793-0.1845c0.0825-0.03328 0.21744-0.03328 0.29991 0 0.0825 0.03328 0.015 0.06051-0.14995 0.06051s-0.23243-0.02723-0.14996-0.06051zm15.955-0.725c0.14846-0.02859 0.39139-0.02859 0.53984 0 0.14846 0.02859 0.0269 0.05199-0.26992 0.05199-0.29691 0-0.41837-0.0234-0.26992-0.05199zm1.0797-0.11996c0.14846-0.02859 0.39139-0.02859 0.53984 0 0.14846 0.02859 0.027 0.05199-0.26992 0.05199-0.29691 0-0.41837-0.0234-0.26992-0.05199zm2.1594-0.23993c0.14846-0.02859 0.39139-0.02859 0.53984 0 0.14846 0.02859 0.0269 0.05199-0.26992 0.05199-0.29691 0-0.41837-0.0234-0.26992-0.05199zm1.4696-0.16029c0.36289-0.05016 0.87574-0.08895 1.1397-0.08618 0.4147 0.0043 0.39027 0.01741-0.17995 0.09624-0.36289 0.05017-0.87573 0.08895-1.1396 0.08618-0.4147-0.0043-0.39027-0.01741 0.17994-0.09624zm2.7592-0.3009c0.62682-0.08437 1.3556-0.15096 1.6195-0.14799 0.26392 0.003-0.06 0.07421-0.71979 0.1583-0.6598 0.08409-1.3886 0.15069-1.6195 0.14799-0.23093-0.0027 0.093-0.07394 0.71978-0.1583zm2.3693-0.25859c0.14846-0.02859 0.39139-0.02859 0.53984 0 0.14846 0.02859 0.0269 0.05199-0.26992 0.05199-0.29691 0-0.41837-0.0234-0.26992-0.05199zm2.2793-0.23993c0.14846-0.0286 0.39138-0.0286 0.53984 0 0.14846 0.02859 0.0269 0.05199-0.26992 0.05199-0.29691 0-0.41837-0.0234-0.26992-0.05199zm-3.239-0.11996c0.14846-0.02859 0.39139-0.02859 0.53984 0 0.14846 0.02859 0.027 0.05199-0.26992 0.05199-0.29691 0-0.41837-0.0234-0.26992-0.05199zm4.3803-0.0014c0.18236-0.02757 0.45228-0.02684 0.59982 0.0016 0.14756 0.02848-0.002 0.05103-0.33154 0.05013-0.32991-0.00096-0.45062-0.0242-0.26828-0.05177zm-3.3006-0.11854c0.14846-0.02859 0.39138-0.02859 0.53983 0 0.14846 0.02859 0.027 0.05199-0.26991 0.05199-0.29692 0-0.41838-0.02339-0.26992-0.05199zm4.4387 0c0.14846-0.02859 0.39139-0.02859 0.53984 0 0.14846 0.02859 0.0269 0.05199-0.26992 0.05199-0.29691 0-0.41837-0.02339-0.26992-0.05199zm0.36214-0.51729c0.74953-0.1093 0.91505-0.22898 1.2218-0.88345 0.12733-0.2717 0.30215-0.57903 0.38849-0.68296 0.23467-0.2825 0.81344-0.63412 0.90049-0.54708 0.0419 0.04193 0.0173 0.07623-0.0546 0.07623-0.27876 0-0.90464 0.66866-1.19 1.2713-0.32757 0.69183-0.67783 0.90038-1.4663 0.87306-0.36055-0.01249-0.32747-0.0302 0.20008-0.10713zm-38.084-0.32738c0.71288-0.02125 1.8465-0.02117 2.5192 0.00012 0.67271 0.02134 0.0894 0.03873-1.2961 0.03863-1.3856-0.000098-1.936-0.01756-1.2231-0.03881zm-4.5352-0.15304c-0.39589-0.04528 0.09-0.05581 1.0797-0.02341s1.822 0.07852 1.8494 0.10249c0.081 0.07061-2.1461 0.01048-2.9291-0.07908zm8.6696 0.03572c0.21561-0.0267 0.53951-0.02615 0.71978 0.0012 0.18026 0.02737 0.004 0.04922-0.39203 0.04855-0.39589-0.00072-0.54338-0.02307-0.32775-0.04977zm40.48-0.06368c-0.0688-0.08284-0.15683-0.31228-0.19572-0.50985-0.064-0.32494-0.0553-0.31915 0.0903 0.06065 0.15065 0.39274 0.20305 0.42442 0.81085 0.49029l0.64978 0.07042-0.61512 0.01955c-0.36948 0.01174-0.66504-0.0406-0.74013-0.13107zm-7.642-0.05368c0.75012-0.0688 0.90369-0.18843 0.35989-0.28035l-0.47985-0.08111 0.44278-0.01702c0.47045-0.01809 0.71769 0.18003 0.44233 0.35444-0.0909 0.05759-0.40826 0.09647-0.70517 0.08638l-0.53984-0.01833 0.47986-0.04401zm9.2672-0.00036c0.14846-0.02859 0.39138-0.02859 0.53984 0s0.0269 0.05199-0.26992 0.05199c-0.29691 0-0.41837-0.0234-0.26992-0.05199zm-22.913-0.23993c0.14846-0.02859 0.39139-0.02859 0.53984 0 0.14846 0.02859 0.0269 0.05199-0.26992 0.05199-0.29691 0-0.41837-0.0234-0.26992-0.05199zm1.3496-0.04306-0.53984-0.06774 0.53984-0.05222c0.52612-0.0509 0.54169-0.06441 0.61278-0.53208l0.0729-0.47986 0.017 0.44262c0.0162 0.41942 0.0406 0.44509 0.46689 0.48968l0.44986 0.04706-0.49985 0.02017c-0.27491 0.0111-0.51784 0.06065-0.53983 0.11014-0.022 0.04949-0.28292 0.05949-0.57983 0.02223zm11.726 0.04827c0.0825-0.03328 0.21744-0.03328 0.29991 0 0.0825 0.03328 0.015 0.06051-0.14995 0.06051-0.16496 0-0.23243-0.02723-0.14996-0.06051zm-9.837-0.3651c0.14846-0.0286 0.39139-0.0286 0.53984 0 0.14846 0.02859 0.0269 0.05199-0.26992 0.05199-0.29691 0-0.41837-0.0234-0.26992-0.05199zm1.1996-0.11996c0.14846-0.02859 0.39139-0.02859 0.53984 0 0.14846 0.02859 0.0269 0.05199-0.26992 0.05199-0.29691 0-0.41837-0.0234-0.26992-0.05199zm1.4696-0.16025c0.36289-0.05017 0.90273-0.08895 1.1996-0.08618l0.53984 0.005-0.6598 0.09121c-0.36289 0.05016-0.90273 0.08895-1.1996 0.08618l-0.53984-0.005 0.6598-0.09121zm14.896-0.29678c-0.0759-0.16655-0.2725-0.35397-0.43691-0.41648s-1.1653-0.10798-2.2243-0.10104c-1.059 0.0069-1.9643-0.02647-2.0119-0.07423s0.33201-0.06869 0.84351-0.0465 0.92987-0.00012 0.92972-0.04963c-0.00048-0.14671 1.824-0.08442 2.2724 0.07758 0.39607 0.14309 0.95799 0.72053 0.82784 0.85068-0.0344 0.03435-0.12454-0.07382-0.20043-0.24037zm-12.827 0.09592c0.18145-0.02749 0.47836-0.02749 0.6598 0 0.18145 0.02749 0.033 0.04998-0.3299 0.04998-0.36289 0-0.51134-0.02249-0.3299-0.04998zm-6.1292-0.63386c0-0.16495 0.0273-0.23243 0.0606-0.14996s0.0333 0.21744 0 0.29991-0.0606 0.01499-0.0606-0.14996zm11.59 0.15299c0.21562-0.0267 0.53952-0.02615 0.71979 0.0012 0.18026 0.02737 0.004 0.04922-0.39204 0.04855-0.39588-0.00072-0.54336-0.02307-0.32775-0.04977zm1.4374-0.1198c0.21444-0.02661 0.56533-0.02661 0.77977 0s0.039 0.04838-0.38989 0.04838c-0.42887 0-0.60431-0.02177-0.38988-0.04838zm5.763-0.36205c0.41497-0.02349 1.0628-0.0233 1.4396 0.00048 0.3768 0.02373 0.0373 0.04295-0.75448 0.04271-0.79176-0.00024-1.1-0.01965-0.68509-0.04314zm-18.966-0.28064c-0.0425-0.16927-0.21629-0.51266-0.38625-0.7631-0.16995-0.25044-0.28554-0.5434-0.25688-0.65103 0.0357-0.13399 0.0565-0.11282 0.0661 0.06715 0.008 0.14456 0.0687 0.29668 0.13559 0.33804 0.18453 0.11404 0.61857 1.0172 0.56544 1.1766-0.0257 0.07704-0.0814 0.0016-0.12393-0.16768zm-12.582-0.31219c0.0866-0.03465 0.19007-0.03039 0.22993 0.0095 0.0398 0.03986-0.0309 0.06822-0.15745 0.06301-0.13975-0.0058-0.16818-0.03418-0.0725-0.07248zm0.47986-0.11996c0.0866-0.03465 0.19006-0.03039 0.22993 0.0095 0.0398 0.03986-0.0309 0.06822-0.15746 0.06301-0.13975-0.0058-0.16817-0.03418-0.0725-0.07248zm0.62231-0.15798c0.16495-0.05283 0.40788-0.09605 0.53984-0.09605 0.18998 0 0.17749 0.01999-0.06 0.09605-0.16495 0.05283-0.40787 0.09605-0.53983 0.09605-0.18999 0-0.1775-0.01999 0.06-0.09605zm-17.145-0.22558c0.44967-0.2931 5.2304-1.4651 5.9002-1.4465 0.14741 0.0041-0.46077 0.15779-1.3515 0.34152-1.3524 0.27895-3.5091 0.83077-4.4986 1.151-0.19643 0.06357-0.20551 0.05522-0.0501-0.04608zm18.075 0.02616c0.0825-0.03328 0.21744-0.03328 0.29991 0 0.0825 0.03328 0.015 0.06051-0.14996 0.06051-0.16495 0-0.23242-0.02723-0.14995-0.06051zm0.59982-0.11996c0.0825-0.03328 0.21744-0.03328 0.29991 0 0.0825 0.03328 0.015 0.06051-0.14996 0.06051-0.16495 0-0.23242-0.02723-0.14995-0.06051zm0.59982-0.11996c0.0825-0.03328 0.21744-0.03328 0.29991 0 0.0825 0.03328 0.015 0.06051-0.14996 0.06051-0.16495 0-0.23242-0.02723-0.14995-0.06051zm16.725-0.2245c-0.11245-0.24681-0.10554-0.3166 0.0368-0.37121 0.0964-0.03699 0.24453-0.03943 0.32917-0.0054 0.0847 0.03401 0.0306 0.06609-0.12022 0.0713-0.43444 0.01501-0.12278 0.46207 0.36427 0.52252l0.38972 0.04837-0.4306 0.0192c-0.35396 0.01578-0.45527-0.03491-0.5691-0.28476zm-16.063 0.10086c0.11671-0.03042 0.27867-0.02842 0.35989 0.0045 0.0812 0.03286-0.0143 0.05775-0.21222 0.0553-0.19795-0.0024-0.2644-0.02933-0.14767-0.05975zm17.273 0.00048c0.11547-0.03017 0.30441-0.03017 0.41987 0 0.11547 0.03017 0.021 0.05486-0.20994 0.05486-0.23093 0-0.3254-0.02469-0.20993-0.05486zm-16.553-0.1204c0.11672-0.03042 0.27867-0.02842 0.35989 0.0044 0.0812 0.03286-0.0143 0.05775-0.21222 0.0553-0.19794-0.0024-0.26439-0.02933-0.14767-0.05975zm1.4073-0.22062c0.49485-0.08445 1.3046-0.18358 1.7995-0.2203 0.62006-0.046 0.41496 0.0045-0.6598 0.16241-1.7405 0.25576-2.5358 0.29616-1.1397 0.05789zm6.0404-0.26732c0.0436-0.07054 0.0322-0.14636-0.0254-0.16849s-0.0617-0.1482-0.009-0.28016c0.0809-0.20346 0.0967-0.20802 0.10387-0.02999 0.006 0.1634 0.12146 0.213 0.51828 0.22373l0.50984 0.0138-0.42394 0.08307c-0.23317 0.04569-0.49794 0.1288-0.58837 0.18468-0.10642 0.06578-0.13645 0.05638-0.0851-0.02664zm-3.5212-0.14875c-0.20137-0.06449 0.0352-0.09721 0.71978-0.09957 0.67195-0.0023 0.93787 0.03163 0.77977 0.09957-0.29796 0.12804-1.0998 0.12804-1.4996 0zm2.1294 0.03318c0.21444-0.02661 0.56533-0.02661 0.77976 0 0.21444 0.02661 0.039 0.04839-0.38988 0.04839-0.42887 0-0.60432-0.02177-0.38988-0.04839zm-4.0152-0.24147c0.31539-0.02479 0.80124-0.02449 1.0797 0.00072 0.27842 0.02516 0.0204 0.04544-0.57345 0.04508-0.59382-0.00036-0.82163-0.02095-0.50622-0.04574zm10.733 0.0089c0.0825-0.03328 0.21744-0.03328 0.29991 0 0.0825 0.03328 0.015 0.06051-0.14995 0.06051-0.16496 0-0.23243-0.02723-0.14996-0.06051zm-26.782-0.27721c0.26392-0.06015 0.6688-0.11331 0.89973-0.11812 0.33178-0.0069 0.38211-0.03572 0.23993-0.13728-0.14111-0.10079-0.11522-0.11369 0.11996-0.05978 0.16495 0.03781 1.3526 0.07949 2.6392 0.09261l2.3393 0.02386-2.7592 0.08022c-1.5175 0.04412-3.0291 0.11344-3.359 0.15404-0.55255 0.06801-0.56201 0.06521-0.11996-0.03555zm10.951 0.02779c0.41496-0.02349 1.0628-0.0233 1.4396 0.000479 0.3768 0.02373 0.0373 0.04295-0.75447 0.04272-0.79177-0.00024-1.1001-0.01965-0.68509-0.04314zm-3.6036-0.1201c0.47836-0.02277 1.2611-0.02277 1.7395 0 0.47836 0.02277 0.087 0.0414-0.86974 0.0414-0.95671 0-1.3481-0.01863-0.86974-0.0414zm14.195-0.22083c0.006-0.13975 0.0341-0.16818 0.0725-0.07248 0.0346 0.0866 0.0304 0.19007-0.009 0.22993-0.0398 0.03986-0.0682-0.03099-0.063-0.15745zm6.1887 0.10997c-0.044-0.04399-0.08-0.17584-0.08-0.29301 0-0.16345-0.11867-0.22372-0.50985-0.25896l-0.50984-0.04592 0.55621-0.02096c0.53211-0.02005 0.5585-0.0054 0.60904 0.33893 0.057 0.38882 0.0545 0.39995-0.0656 0.27992zm-6.0687-0.58982c0.006-0.13975 0.0341-0.16818 0.0725-0.07248 0.0346 0.0866 0.0304 0.19007-0.009 0.22993-0.0398 0.03986-0.0682-0.03099-0.063-0.15745zm3.4416-0.13693c0.21561-0.0267 0.53951-0.02615 0.71978 0.0012 0.18027 0.02737 0.004 0.04922-0.39203 0.04855-0.39589-0.00072-0.54337-0.02307-0.32775-0.04977zm2.667-0.14591c0-0.06209 0.0533-0.14587 0.11859-0.18618 0.068-0.04203 0.0881 0.0061 0.0472 0.11288-0.0797 0.20783-0.16574 0.24585-0.16574 0.07329zm5.4558 13.939c-0.0485-0.11546-0.11365-0.3265-0.1447-0.46898-0.0642-0.29443-0.33733-0.394-1.1123-0.40548-0.29691-0.0044-0.97171-0.0836-1.4996-0.176-0.92362-0.16169-1.086-0.1513-4.3187 0.27627-1.8474 0.24436-3.1738 0.46193-2.9473 0.4835 0.2264 0.02157 2.4667 0.13591 4.9785 0.25408 2.5118 0.11818 4.6941 0.222 4.8496 0.2307 0.2254 0.01262 0.26485-0.02675 0.19451-0.1941zm5.6976-0.1056c1.5187-1.2779 1.5897-4.9702 0.11933-6.2074-1.0483-0.88205-2.3939 0.21832-2.7689 2.2642-0.37648 2.054 0.55739 4.2587 1.8039 4.2587 0.33323 0 0.58016-0.09214 0.84565-0.31554zm-1.5318-0.11269c-0.14785-0.10356-0.41161-0.46796-0.58613-0.80976-0.27922-0.54687-0.32036-0.77984-0.34277-1.9411-0.0202-1.0467-0.002-1.2204 0.0879-0.83975 0.0623 0.26392 0.0876 0.80376 0.0562 1.1996l-0.0571 0.71978 0.12771-0.64202c0.0927-0.46576 0.0898-0.84451-0.0104-1.3796-0.13169-0.70314-0.12277-0.76811 0.19103-1.392 0.33673-0.66952 0.6978-1.0054 1.2289-1.143 0.22312-0.05782 0.25473-0.04667 0.12344 0.04357-0.0971 0.06671-0.15104 0.14057-0.11997 0.16413 0.0311 0.02356 0.20497 0.1357 0.38642 0.24922 0.35 0.21896 0.45793 0.51558 0.14372 0.39501-0.1024-0.03929-0.15811-0.02603-0.12381 0.02947 0.0343 0.05551-0.0209 0.20334-0.12263 0.32853-0.10175 0.12519-0.15082 0.16013-0.10904 0.07766 0.10546-0.2082 0.002-0.18759-0.18375 0.03676-0.0852 0.10269-0.10533 0.17425-0.0447 0.15901 0.0606-0.01524 0.25873 0.04437 0.44018 0.13245 0.31902 0.15487 0.44254 0.51773 0.22251 0.65371-0.10396 0.06425-0.30869-0.26408-0.27298-0.43778 0.01-0.04711-0.0568-0.05712-0.14765-0.02224-0.0951 0.03648-0.13946 0.16201-0.10453 0.29559 0.0414 0.1584-0.00048 0.23218-0.13188 0.23218-0.30444 0-0.20652-0.59619 0.1008-0.61374 0.24055-0.01373 0.2406-0.01469 0.004-0.07237-0.13196-0.03215-0.32798-0.13641-0.4356-0.2317-0.17118-0.15155-0.22001-0.14893-0.38989 0.02095-0.10681 0.10681-0.1942 0.26691-0.1942 0.35577s-0.0321 0.26045-0.0713 0.38131c-0.0546 0.16812-0.0435 0.18071 0.0471 0.05359 0.0965-0.13548 0.14292-0.12032 0.25125 0.08209 0.0731 0.13654 0.13094 0.34627 0.1286 0.46607-0.003 0.17655-0.0391 0.16099-0.18823-0.08209-0.10119-0.16495-0.15326-0.20102-0.11571-0.08016 0.0375 0.12086 0.0683 0.26932 0.0683 0.3299 0 0.23202 0.32772 0.09625 0.45803-0.18976 0.10186-0.22358 0.2289-0.29991 0.49911-0.29991 0.2096 0 0.36277 0.06324 0.3632 0.14996 0.00036 0.08247 0.0849-0.01154 0.18786-0.20892 0.12198-0.23393 0.16083-0.49908 0.11158-0.76158-0.0562-0.29989-0.0382-0.37965 0.0706-0.31239 0.094 0.0581 0.11518 0.04022 0.0593-0.05013-0.0478-0.07725-0.13333-0.1117-0.19019-0.07656-0.0569 0.03514-0.1338 0.01469-0.17097-0.04545-0.0372-0.06014 0.0129-0.14023 0.11124-0.17797 0.24033-0.09222 0.69906 0.79816 0.59762 1.16-0.0533 0.18986-0.0417 0.21669 0.0415 0.09639 0.0775-0.11207 0.11368 0.17758 0.11043 0.88373-0.005 1.0448-0.16933 1.1869-0.22775 0.19662-0.0165-0.28004-0.0746-0.53671-0.12907-0.57037-0.0545-0.03366-0.087-0.0167-0.0722 0.03769 0.0147 0.05439-0.0159 0.36632-0.0681 0.69319-0.0917 0.57474-0.10135 0.58634-0.29373 0.35257-0.1094-0.13295-0.31606-0.23251-0.45924-0.22125-0.30961 0.02435-0.43572-0.31476-0.27462-0.73848 0.0679-0.1787 0.0658-0.28704-0.006-0.28704-0.16307 0-0.27893 0.54534-0.19062 0.8972 0.0619 0.2465 0.13543 0.2903 0.43003 0.256 0.19546-0.02276 0.3265 0.0054 0.29118 0.06252-0.0354 0.05714-0.1403 0.1039-0.23332 0.1039-0.10576 0-0.14149 0.07193-0.0954 0.19205 0.0405 0.10563-0.002 0.23976-0.0937 0.29807-0.27589 0.1747-0.34733 0.12517-0.23722-0.16446 0.0711-0.18708 0.0515-0.34622-0.0617-0.50109-0.23209-0.31741-0.36434-0.12638-0.20491 0.29599 0.0989 0.26215 0.0976 0.34474-0.006 0.32532-0.23698-0.04467-0.3201-0.25231-0.25051-0.62584 0.0454-0.24329 0.0307-0.30716-0.0452-0.19713-0.14716 0.21339-0.28698-0.0072-0.19129-0.30189 0.0592-0.18225 0.0495-0.18937-0.0554-0.04082-0.0699 0.09897-0.10789 0.45629-0.0845 0.79404 0.0234 0.33775-0.01 0.68864-0.0739 0.77977-0.0817 0.11619-0.0966 0.05819-0.05-0.19422 0.0611-0.33093 0.0556-0.33818-0.0685-0.0901-0.107 0.21374-0.0909 0.36772 0.0775 0.74116 0.25339 0.56192 0.70751 0.80302 1.1501 0.61063 0.28501-0.1239 0.28368-0.12561-0.0465-0.06-0.21718 0.04315-0.31241 0.02299-0.26369-0.05585 0.0469-0.07592-0.003-0.093-0.12959-0.0444-0.13372 0.05131-0.17726 0.03272-0.12423-0.05307 0.0449-0.07263 0.0184-0.17112-0.0589-0.21887-0.0936-0.05787-0.1081-0.03446-0.0434 0.07023 0.065 0.10517 0.0502 0.12811-0.0446 0.06947-0.0779-0.04816-0.12675-0.17796-0.1085-0.28846 0.0182-0.11049-0.0343-0.18739-0.11679-0.1709-0.17444 0.03489-0.18976-0.08131-0.0416-0.31528 0.061-0.09631 0.16813-0.12613 0.25663-0.07144 0.0989 0.06113 0.12204 0.04556 0.0663-0.04461-0.0471-0.07617-0.0285-0.1385 0.0414-0.1385 0.21138 0 0.3087 0.05483 0.27528 0.15509-0.0174 0.05231 0.0781 0.03632 0.21242-0.03554 0.13426-0.07186 0.30994-0.08997 0.39038-0.04025 0.0968 0.05984 0.0455 0.11418-0.1518 0.16076-0.17518 0.04135-0.31027 0.16712-0.32768 0.30503-0.0293 0.23256-0.0287 0.23256 0.0695 0.00036 0.0868-0.20538 0.10819-0.18872 0.1729 0.13481 0.0406 0.20302 0.14771 0.39747 0.23801 0.43212 0.20464 0.07853 0.28785-0.92876 0.087-1.0529-0.0931-0.05755-0.09-0.13001 0.011-0.25158 0.11289-0.13602 0.18116-0.14112 0.33573-0.0251 0.16291 0.1223 0.16998 0.11869 0.0441-0.02251-0.25179-0.28236-0.1668-0.41206 0.1106-0.16876 0.1433 0.12569 0.22459 0.16671 0.18063 0.09115-0.044-0.07556-0.004-0.16644 0.0883-0.20195 0.1063-0.04079 0.19436 0.03942 0.23913 0.21782 0.0826 0.32923-0.0265 0.68937-0.18003 0.59445-0.0583-0.03604-0.076 0.0128-0.0392 0.10852 0.0367 0.09572 0.0008 0.21484-0.0799 0.2647-0.1 0.06179-0.11577 0.04065-0.0496-0.06638 0.0629-0.10171 0.0501-0.12802-0.0362-0.07467-0.0733 0.0453-0.10591 0.15363-0.0725 0.24074 0.0972 0.2532-0.77253 0.94512-1.1075 0.88109-0.35848-0.06853-0.36536 0.0073-0.0135 0.14874 0.16032 0.06444 0.19551 0.11158 0.0867 0.1161-0.10078 0.0042-0.30422-0.07713-0.45207-0.18069zm1.497-2.9533c-0.0383-0.0957-0.0667-0.06727-0.0725 0.07248-0.006 0.12646 0.0231 0.19732 0.063 0.15745 0.0398-0.03986 0.0441-0.14333 0.009-0.22993zm0-0.59982c-0.0383-0.0957-0.0667-0.06727-0.0725 0.07248-0.006 0.12646 0.0231 0.19732 0.063 0.15745 0.0398-0.03986 0.0441-0.14333 0.009-0.22993zm-2.0688-0.6673c-0.0577-0.26448-0.0447-0.29421 0.0656-0.14996 0.11122 0.14551 0.12209 0.12542 0.0569-0.105-0.0545-0.19225-0.0379-0.25852 0.0508-0.20371 0.0855 0.05285 0.10429 0.0057 0.0537-0.13493-0.0428-0.11889-0.0326-0.17519 0.0225-0.1251s0.2186-0.02017 0.36333-0.15614c0.14472-0.13596 0.41865-0.28917 0.60872-0.34046l0.34558-0.09326-0.32628-0.06318c-0.20603-0.0399-0.29825-0.01784-0.25023 0.05984 0.045 0.07291 0.00036 0.09397-0.10983 0.0517-0.43039-0.16516-1.1575 0.8325-0.99036 1.359 0.11092 0.34948 0.19168 0.27679 0.10975-0.09878zm0.48727-0.9897c0.11943-0.13196 0.24413-0.23993 0.27712-0.23993 0.033 0-0.0377 0.10797-0.15715 0.23993-0.11943 0.13196-0.24413 0.23993-0.27712 0.23993-0.033 0 0.0378-0.10797 0.15715-0.23993zm1.259 5.1883c0.47805-0.23918 0.92313-0.96034 1.163-1.8843l0.15697-0.60472-0.0629 0.51976c-0.11944 0.98798-0.93024 2.1798-1.4826 2.1792-0.10657-0.000103-0.005-0.09457 0.22548-0.20994zm1.3546-3.0889c0.0008-0.3299 0.0242-0.45062 0.0517-0.26827 0.0276 0.18235 0.0269 0.45227-0.002 0.59982-0.0285 0.14755-0.051-0.0016-0.0501-0.33155zm-0.13958-0.83975c-0.01-0.13196-0.0457-0.37489-0.0797-0.53984l-0.0617-0.29991 0.12849 0.29429c0.0707 0.16186 0.10654 0.40479 0.0797 0.53984-0.0475 0.23921-0.0493 0.23936-0.0668 0.0056zm-2.3492-0.05214c-0.0485-0.07861-0.003-0.23743 0.10173-0.35294 0.15217-0.16814 0.16049-0.24321 0.0418-0.37654-0.12448-0.13977-0.11641-0.14252 0.0502-0.01711 0.21611 0.16262 0.22154 0.31716 0.0234 0.66418-0.0911 0.15955-0.15449 0.18361-0.21704 0.08241zm1.9098-1.2919c-0.12879-0.23916-0.39634-0.53374-0.59455-0.65462s-0.30491-0.21998-0.23712-0.22022c0.22647-0.00084 0.6341 0.35485 0.90028 0.78554 0.1449 0.23445 0.24143 0.4483 0.21451 0.47521-0.0269 0.02691-0.15431-0.14674-0.28312-0.38591zm-54.997 2.682c0-0.02314-0.0593-0.21241-0.13196-0.4206-0.0907-0.2603-0.23123-0.40015-0.44986-0.4478-0.17485-0.0381-0.38665-0.09055-0.47064-0.11654-0.12087-0.0374-0.12323 0.0085-0.0114 0.21996 0.33253 0.62838 0.5047 0.80706 0.77767 0.80706 0.15736 0 0.28611-0.01894 0.28611-0.04208zm58.686-0.92155c1.2325-0.45239 1.6818-0.84764 2.4501-2.1554 0.81166-1.3816 1.1216-2.3643 0.61249-1.9418-0.0873 0.07249-0.39905 0.15986-0.69269 0.19416l-0.53389 0.06236 0.53984-0.1271c0.29691-0.0699 0.62081-0.20958 0.71978-0.3104 0.16087-0.16387 0.14179-0.17572-0.17994-0.1118-1.4469 0.28746-3.6559 0.66343-3.9288 0.66868-0.18144 0.0035-0.3299 0.06301-0.3299 0.13227 0 0.08156 0.26415 0.10257 0.74977 0.05963 0.84229-0.07447 0.80813-0.0047-0.0545 0.11145-0.53926 0.07257-0.55941 0.08901-0.45286 0.36928 0.0613 0.16133 0.0859 0.4553 0.0546 0.65327-0.0314 0.19797-0.0831 0.52417-0.11499 0.7249-0.0573 0.36011-0.0521 0.36413 0.38988 0.30295l0.44787-0.06201-0.44986 0.12884c-0.24742 0.07087-0.44987 0.1811-0.44987 0.24498 0 0.06387 0.0945 0.08834 0.20994 0.05438 0.75231-0.22127 1.7446-0.43912 1.7906-0.39311 0.0301 0.03004-0.35769 0.15181-0.86162 0.27061-0.98598 0.23244-1.0626 0.30332-1.1834 1.0944-0.0577 0.37851-0.0392 0.49454 0.0735 0.4594 0.083-0.02586 0.62024-0.21931 1.194-0.4299zm0.33643-1.6169c0.36289-0.09642 0.82176-0.14578 1.0197-0.1097 0.2728 0.04974 0.31634 0.03527 0.17994-0.05979-0.15995-0.11147-0.15995-0.12579 0-0.12888 0.099-0.0019 0.30985-0.03823 0.46863-0.08072 0.20978-0.05613 0.26397-0.03727 0.19828 0.06902-0.0999 0.16163-0.50391 0.3359-1.0021 0.43226-0.28162 0.05447-0.29284 0.04648-0.0847-0.06031 0.1865-0.09569 0.13308-0.10722-0.23993-0.0518-1.0713 0.15919-1.17 0.15734-0.53984-0.01009zm0.261-1.5827c0.0553-0.29192 1.3355-0.56691 1.3998-0.30067 0.0625 0.25898-0.1007 0.3478-0.80086 0.43572-0.57369 0.07204-0.63545 0.05812-0.5989-0.13505zm0.73099-0.11412c-0.0812-0.03286-0.24317-0.03486-0.35989-0.0045-0.11672 0.03042-0.0503 0.0573 0.14767 0.05975 0.19794 0.0024 0.29344-0.02244 0.21222-0.0553zm-0.962-0.3639c0.11547-0.03017 0.30442-0.03017 0.41988 0 0.11547 0.03017 0.021 0.05486-0.20994 0.05486-0.23093 0-0.3254-0.02469-0.20994-0.05486zm0.83975-0.11996c0.11547-0.03017 0.30441-0.03017 0.41988 0s0.021 0.05486-0.20994 0.05486c-0.23093 0-0.3254-0.02469-0.20994-0.05486zm-58.183 2.523c-0.0825-0.03328-0.21743-0.03328-0.29991 0-0.0825 0.03328-0.0149 0.06051 0.14996 0.06051 0.16495 0 0.23243-0.02723 0.14995-0.06051zm-0.26992-1.7842c0-0.03531-0.093-0.20609-0.2066-0.37952-0.11363-0.17342-0.24137-0.5629-0.28388-0.86552l-0.0773-0.55021-0.016 0.6631c-0.0104 0.42859 0.05 0.7574 0.17072 0.92972 0.1696 0.24214 0.41307 0.36145 0.41307 0.20242zm0.89134-0.75882c0.69372-0.43515 1.0734-0.87165 0.60031-0.6901-0.20674 0.07933-1.6806-0.37731-1.5711-0.48678 0.0265-0.02656 0.32723 0.06166 0.66815 0.19604s0.67184 0.24432 0.73538 0.24432c0.27786 0 0.0703-0.22642-0.4843-0.52826-0.71243-0.38776-0.81004-0.54357-0.11996-0.19152 0.50458 0.25742 0.59688 0.20059 0.30372-0.18701-0.0969-0.12808-0.17733-0.28685-0.1788-0.35283-0.002-0.06598 0.21728 0.22678 0.48612 0.65057 0.26884 0.4238 0.52475 0.71677 0.56868 0.65105 0.044-0.06572 0.17438-0.15434 0.28984-0.19694 0.46629-0.17204 0.0699-1.2729-0.56724-1.5753-0.5385-0.25553-1.057-0.23814-1.3989 0.04692l-0.28321 0.23613 0.38557-0.14084c0.26411-0.09647 0.4897-0.10423 0.71608-0.02461 0.38047 0.1338 0.88023 0.80998 0.8725 1.1805-0.003 0.15732-0.0693 0.07168-0.17545-0.22768-0.30199-0.85155-1.048-1.1658-1.5834-0.66703-0.13738 0.12799-0.27352 0.20896-0.30254 0.17995-0.0574-0.05738-0.0555-0.06805-0.16629 0.93634-0.0791 0.7173 0.0998 1.4178 0.35802 1.4017 0.0745-0.0046 0.45553-0.20925 0.84679-0.45468zm44.126-5.734c-0.0825-0.03328-0.21743-0.03328-0.29991 0-0.0825 0.03328-0.015 0.06051 0.14996 0.06051 0.16495 0 0.23243-0.02723 0.14995-0.06051zm3.449-0.20648c0.71265-0.14145 0.74879-0.16264 0.41987-0.24623-0.19794-0.0503-0.6927-0.19981-1.0995-0.33224l-0.73959-0.24078-0.81995 0.49195-0.81994 0.49195 1.1397-0.0049c0.62681-0.0027 1.4906-0.07459 1.9194-0.15971zm-2.3393-0.38456c0.38644-0.23108 0.42845-0.28717 0.21579-0.28808-0.14523-0.0006-0.57495-0.08211-0.95492-0.18108s-0.83827-0.17995-1.0184-0.17995c-0.31862 0-0.32292 0.009-0.15743 0.3299 0.0936 0.18145 0.31981 0.39495 0.50274 0.47445 0.18292 0.0795 0.26156 0.14698 0.17474 0.14996-0.0868 0.003-0.26225-0.05047-0.38988-0.11877-0.18584-0.09946-0.23204-0.08477-0.23204 0.0738 0 0.17098 0.0941 0.18631 0.68979 0.11236 0.37939-0.04709 0.90573-0.21476 1.1696-0.37258zm3.9288 0.35112c-0.0825-0.03328-0.21743-0.03328-0.29991 0-0.0825 0.03328-0.0149 0.06051 0.14996 0.06051 0.16495 0 0.23243-0.02723 0.14995-0.06051zm-25.463-0.528c0.95672-0.06447 1.9014-0.16248 2.0994-0.21782 0.30394-0.08496 0.22-0.11191-0.53983-0.17329-0.49486-0.03998-1.7601-0.10279-2.8117-0.13958s-1.9378-0.09274-1.9694-0.12434c-0.15756-0.15756 0.24138-0.217 1.8094-0.26957 1.53-0.0513 1.8652-0.02403 3.1517 0.25641 1.6394 0.35739 2.2393 0.33069 2.4394-0.10861 0.0694-0.1524 0.2454-0.29475 0.39102-0.31632 0.20055-0.02971 0.30488-0.17731 0.43014-0.60857 0.25654-0.88318 0.44773-0.95619 2.3817-0.90963 1.6239 0.0391 1.6392 0.04207 1.9261 0.376 0.21179 0.24647 0.28923 0.47934 0.28923 0.86974v0.53315h0.51654 0.51653l0.49271-1.6495c0.27099-0.90723 0.5109-1.7287 0.53315-1.8255 0.0475-0.20683-0.36043-0.25922-4.19-0.53803-3.3415-0.24328-4.0596-0.2424-4.1546 0.005-0.11838 0.3085 0.0282 0.40905 0.59639 0.40905 0.49026 0 0.55091 0.03399 0.72973 0.40897 0.32207 0.67539 0.18981 0.79067-0.90712 0.79067-1.0914 0-1.5711-0.13745-1.5711-0.45019 0-0.32564 0.34304-0.74945 0.60662-0.74945 0.39642 0 0.2575-0.19465-0.24673-0.34572-0.26392-0.07907-0.47986-0.19558-0.47986-0.25892 0-0.06935-0.87097-0.11515-2.1898-0.11515h-2.1898l-1.4391 2.5377c-0.79149 1.3957-1.4557 2.5792-1.476 2.63-0.0942 0.23566 1.5919 0.23037 5.2553-0.01649zm-4.2613-2.6919c0.71089-1.2536 1.321-2.3281 1.3559-2.3878 0.0349-0.05968 0.007-0.07391-0.061-0.03163-0.3252 0.20098-3.4875 4.5959-3.3738 4.6889 0.26562 0.21714 0.53651 0.28051 0.65422 0.15303 0.0727-0.07874 0.71384-1.1689 1.4247-2.4225zm-3.7763 1.9194c0-0.28038-0.0395-0.29991-0.6069-0.29991-0.61407 0-0.63958 0.03593-0.31945 0.44986 0.0638 0.08248 0.29831 0.14996 0.52116 0.14996 0.35223 0 0.40519-0.0392 0.40519-0.29991zm26.632-0.24916c0-0.44691-0.0653-0.61431-0.35066-0.89973l-0.35066-0.35066h-1.6154c-1.8932 0-2.0918 0.08538-2.2077 0.94931-0.0512 0.38146-0.0325 0.5034 0.0676 0.44156 0.076-0.04699 0.13822-0.18635 0.13822-0.30971 0-0.12335 0.0899-0.31419 0.1998-0.42408 0.17087-0.17086 0.42974-0.19383 1.787-0.15852 1.7816 0.04634 2.0048 0.13881 2.1455 0.88887 0.10739 0.57243 0.18639 0.51435 0.18639-0.13703zm-25.889-0.21462c0.17081-0.31916-0.059-0.43189-0.88467-0.43411-0.49028-0.0013-0.74036 0.05701-0.89218 0.2081-0.20105 0.20008-0.18113 0.21166 0.42442 0.24665 0.44783 0.02588 0.69626-0.01839 0.84164-0.14996 0.11345-0.10267 0.25452-0.18667 0.31349-0.18667 0.059 0-0.0128 0.08404-0.1594 0.18675-0.15919 0.1115-0.26662 0.31234-0.26662 0.49845 0 0.3087 0.002 0.30951 0.25104 0.08451 0.13807-0.12495 0.3056-0.32913 0.37228-0.45372zm20.04 0.44676 0.44986-0.07436v-1.7978c0-1.7391-0.008-1.7957-0.24009-1.735-0.13205 0.03453-0.20984 0.01384-0.17286-0.04599 0.037-0.05983 0.22599-0.10878 0.42003-0.10878 0.19405 0 0.35282-0.05398 0.35282-0.11996s-0.18317-0.11996-0.40704-0.11996c-0.45701 0-0.59223 0.19584-0.48288 0.69932 0.0559 0.25735 0.0426 0.28497-0.0673 0.14042-0.10904-0.14328-0.12317-0.10662-0.0693 0.17995 0.0372 0.19794 0.0181 0.52184-0.0424 0.71978-0.0815 0.26654-0.11532 0.29766-0.1306 0.11996-0.0429-0.49986-0.25369 0.48345-0.28922 1.3496-0.0237 0.57666 0.009 0.86929 0.0968 0.86842 0.0729-0.00072 0.3349-0.03478 0.58232-0.07568zm-0.60589-1.0627c0-0.13196 0.0432-0.37489 0.096-0.53984 0.0761-0.23748 0.096-0.24996 0.096-0.05998 0 0.13196-0.0433 0.37489-0.096 0.53984-0.0761 0.23748-0.096 0.24997-0.096 0.05998zm-2.6631 0.65595c0-0.27939-0.35445-0.94419-0.55967-1.0497-0.31309-0.161-2.8623-0.28177-3.2041-0.1518-0.34796 0.1323-0.74133 1.0854-0.44796 1.0854 0.0589 0 0.13947-0.12956 0.17922-0.28792 0.10186-0.40583 0.55561-0.52284 1.8132-0.46755 1.4701 0.06463 1.5429 0.08811 1.7735 0.57178 0.19061 0.3997 0.44582 0.57132 0.44582 0.2998zm2.9611-2.298c-0.0383-0.0957-0.0667-0.06728-0.0725 0.07247-0.006 0.12646 0.0231 0.19732 0.063 0.15745 0.0398-0.03986 0.0442-0.14333 0.009-0.22993z"/>
 </g>
</svg>
