<?xml version="1.0" encoding="UTF-8" standalone="no"?>
<!-- Created with Inkscape (http://www.inkscape.org/) -->
<svg id="svg2" xmlns:rdf="http://www.w3.org/1999/02/22-rdf-syntax-ns#" xmlns="http://www.w3.org/2000/svg" height="45" width="67.5" version="1.1" xmlns:cc="http://creativecommons.org/ns#" xmlns:dc="http://purl.org/dc/elements/1.1/">
 <metadata id="metadata7">
  <rdf:RDF>
   <cc:Work rdf:about="">
    <dc:format>image/svg+xml</dc:format>
    <dc:type rdf:resource="http://purl.org/dc/dcmitype/StillImage"/>
    <dc:title/>
   </cc:Work>
  </rdf:RDF>
 </metadata>
 <g id="g85107">
  <rect id="rect2990" opacity="0" height="44.803" width="67.204" y=".19715" x="-.00065068"/>
  <g id="g83711" transform="matrix(.75039 0 0 .75039 -3.3716 2.2401)">
   <path id="path95710" d="m11.208 35.561-0.27582-0.09188v-2.176c0-0.88872-0.06145-1.4097 0.09187-1.6549s1.042-1.1339 0.82747-1.4097c0 0 0.82747-1.3791 2.9422-1.3791s3.218 1.6549 3.218 1.6549c-0.21457 0.18395 0.18395 1.1645 0.64372 1.2566 0 0 0.76622 2.3293 1.5937 2.9116-0.55165 0.1225 1.4404 1.9614 1.9922 2.1453h0.4904s-1.1033 3.7699-4.5665 3.7699h-2.4212c-4.1069-0.004-4.5361-5.0293-4.5361-5.0293z"/>
   <path id="path95712" d="m36.133 36.778 9.83-0.22491s-0.99591 3.1482-4.2404 3.1482h-1.8954c-2.3452 0-3.6943-2.9233-3.6943-2.9233z"/>
   <path id="path95714" d="m48.082 36.553c-0.28915-0.41761-0.70676-1.6382-0.64253-2.0558-0.25693-0.41761-0.80321-2.5057 0.12847-4.5295 0.93167-2.0238 1.9274-3.7907 5.943-3.7907 3.0197 0 4.1119 2.1523 4.69 2.2808 0 0 0.28915 0.57829 0.64253 1.1886s1.1564 2.9555 1.7989 3.855c0.64233 0.89946 1.5098 2.0881 2.1843 2.1203 0 0 6.0715-0.16068 7.3566-0.22472 1.2849-0.06423 1.9149 0.45281 1.9149 0.45281s-6.5728 0.31818-9.3354 0.31818c0 0-0.93167 4.4333-6.746 4.4333h-2.5719c-3.6306 0-5.3647-4.0469-5.3647-4.0469z"/>
   <path id="path95716" d="m72.835 36.281 13.235-0.482s-2.6664 3.6943-6.2 3.6943l-2.0558 0.03222c-2.794-0.03381-4.9775-3.2454-4.9775-3.2454z"/>
   <path id="path95718" d="m42.622 14.547c-0.35338 0.03202-1.1244 0.41761-0.77099 0.70676 0.35338 0.28915 1.4778 1.7027 2.1845 2.6341 0.70676 0.93148 2.345 3.3731 4.1761 3.2124 1.8311-0.16048 11.5-0.35338 22.68-0.16068-1.897-1.542-9.542-5.461-11.695-6.039-2.152-0.579-11.147-0.611-16.576-0.354z"/>
   <path id="path95720" d="m40.404 15.511c0.54608 0.44983 4.2724 4.8187 4.7864 5.8146 0.51386 0.99591-0.3854 1.0279-1.6062 1.0279l-13.107 0.22491s-13.943-0.01989-14.809-0.06423c-1.2528-0.06423-0.49378-0.86386 0.06423-1.3493 0.73878-0.64253 6.0715-4.5615 7.1316-4.9793 1.0601-0.41761 5.3325-0.86724 9.4766-1.0601 3.9482-0.18355 6.0065-0.03202 6.6496-0.03202 1.1244 0.000199 1.4137 0.41761 1.4137 0.41761z"/>
   <g id="g83315" fill="#fff">
    <path id="path95722" d="m23.572 16.507s-2.8913 2.8591-4.3688 4.8509l-2.9233 0.03222c1.4135-1.3171 5.8146-4.4331 6.3284-4.7222 0.51386-0.28935 0.96369-0.16088 0.96369-0.16088z"/>
    <path id="path95724" d="m20.841 20.876s1.3493-0.16068 1.3813 0.09625c0.03222 0.25693 0.03222 0.64253 0.03222 0.64253h1.8954s0.22491-0.64253 0.64253-0.64253c0.41761 0 2.4414 0.12847 2.8591 0.12847 0.41761 0 0.48185 0.51406 0.73878 0.51406s1.4135-0.03222 1.4135-0.03222c0.25693-2.0881 1.9274-5.8146 1.9274-5.8146s-5.3647 0.32116-5.8146 0.35338c-0.44983 0.03222-0.89946 0.09645-1.1886 0.41761-0.28915 0.32136-2.9875 2.8593-3.887 4.337z"/>
    <path id="path95726" d="m40.116 16.089c-0.1927-0.28915-0.03202-0.41761-1.3493-0.44963-1.3171-0.03222-3.5978-0.22491-5.172 0.03222-0.70676 1.0922-1.1564 2.5057-1.1564 2.5057 0.28915 0.03222 0.41761 0.22492 0.28915 0.83523 0 0 0.1927 0.44983 0.28915 0.64253 0 0 0.12846-0.80321 0.54608-0.80321h3.2767c0.41761 0 0.44983 0.61031 0.44983 0.61031l2.4735-2.5379c0.49795-0.51386 0.35338-0.83523 0.35338-0.83523z"/>
    <path id="path95728" d="m42.733 19.8c0.44983 0.09625 0.61031-0.1927 0.35338-0.51406-0.25693-0.32116-0.83523-1.3171-1.1244-1.2206-0.28915 0.09625-1.2849 1.2206-1.6705 1.8311 0.51406-0.12866 2.0881-0.16068 2.4414-0.09645z"/>
    <path id="path95730" d="m44.115 16.298c-0.64253 0.28915 0.06423 0.96369 0.06423 0.96369s1.4778 1.9596 2.4092 2.6019c0.41761-0.86724 0.51386-0.99571 1.2528-0.99571l2.0558-0.09645c0.70676 0 1.5098 0.03222 1.8632 1.3813l0.25693-0.06423s-1.1564-4.3368-1.6382-4.5615c-0.48185-0.22491-4.2406 0.06423-4.9793 0.22492-0.73878 0.16068-1.2847 0.54608-1.2847 0.54608z"/>
    <path id="path95732" d="m52.275 15.367c0.32116 0.89946 1.4778 3.9834 1.6062 4.7544l3.4053-0.06423c0.89946-0.57829 3.4694-1.2849 5.7181-0.83522 2.2487 0.44963 4.5615 1.1564 4.5615 1.1564l0.96369 0.06423s-5.7181-3.2769-7.517-3.855c-1.7989-0.5783-2.3772-1.2206-4.8187-1.2206h-3.9196z"/>
   </g>
   <line id="line95734" stroke-width=".29829" y2="36.889" x2="21.821" stroke="#000" y1="36.504" x1="48.291" fill="none"/>
   <path id="path95736" d="m11.541 35.605s-4.4331-0.77099-5.2041-1.0924c-0.771-0.323-1.1886-1.415-1.542-2.026-0.3534-0.61-0.1929-1.702 0.0963-1.927 0.2893-0.225 0.8354-0.514 0.8354-0.514-0.1927-0.932-0.5461-3.47 0.2249-5.269s0.9637-1.734 2.2165-1.927c1.2529-0.193 4.048-0.514 4.658-0.514 0.61031 0 0.73898-0.28915 1.2851-0.73898 0.54608-0.44963 5.8788-4.4331 7.485-5.2363 1.6062-0.80321 6.1367-2.6666 17.283-2.827 11.147-0.16068 17.829 0.1927 20.881 1.4457 3.0518 1.2528 9.8942 4.7864 11.276 5.975 6.6176 0.12847 19.362 2.3683 20.849 4.4331 1.1564 1.6062 1.0279 2.8913 1.0279 2.8913 1.0279 0.35338 1.4135 0.99591 1.4135 1.542 0 0.54608-0.03222 1.6705-0.22491 1.9916-0.1927 0.32136-0.51386 0.12847-0.67474 0.3854-0.16068 0.25693-0.70676 0.96369-1.1886 1.1886-0.48185 0.22491-0.48185 1.1564-1.2528 1.2208-0.77099 0.06443-2.0558 0.03222-2.4735 0.25693-0.41761 0.22472-0.41761 0.54608-0.70676 0.54608s-0.03221 0.22491-0.41761 0.28915c-0.3854 0.06423-1.1244 0.09645-1.1244 0.09645l-12.721 0.51386c-0.03281 0.0028-0.06463 0.0052-0.09546 0.0072" stroke="#000" stroke-width=".19886" fill="none"/>
   <ellipse id="ellipse95742" rx="3.7945" ry="3.8176" cy="34.207" cx="53.83" fill="#fff"/>
   <path id="path95744" fill="#fff" d="m53.828 34.207"/>
   <ellipse id="ellipse95748" rx="3.4908" ry="3.5121" stroke="#000" cy="34.207" cx="53.83" stroke-width=".099432" fill="none"/>
   <path id="path95750" d="m53.828 34.207" stroke="#000" stroke-width=".099432" fill="none"/>
   <ellipse id="ellipse95756" cy="33.154" cx="53.83" rx=".45162" ry=".4544"/>
   <path id="path95758" d="m53.828 33.154"/>
   <ellipse id="ellipse95762" rx=".26389" ry=".26548" cy="33.144" cx="53.748" fill="#fff"/>
   <path id="path95764" fill="#fff" d="m53.748 33.144"/>
   <ellipse id="ellipse95770" cy="33.869" cx="52.833" rx=".45162" ry=".4544"/>
   <path id="path95772" d="m52.833 33.869"/>
   <ellipse id="ellipse95776" rx=".26389" ry=".26548" cy="33.859" cx="52.754" fill="#fff"/>
   <path id="path95778" fill="#fff" d="m52.754 33.859"/>
   <ellipse id="ellipse95784" cy="33.869" cx="54.878" rx=".45162" ry=".4544"/>
   <path id="path95786" d="m54.878 33.869"/>
   <ellipse id="ellipse95790" rx=".26389" ry=".26548" cy="33.859" cx="54.798" fill="#fff"/>
   <path id="path95792" fill="#fff" d="m54.798 33.859"/>
   <ellipse id="ellipse95798" cy="35.066" cx="54.468" rx=".45162" ry=".4542"/>
   <path id="path95800" d="m54.468 35.066"/>
   <ellipse id="ellipse95804" rx=".26389" ry=".26548" cy="35.056" cx="54.388" fill="#fff"/>
   <path id="path95806" fill="#fff" d="m54.388 35.056"/>
   <ellipse id="ellipse95812" cy="35.066" cx="53.154" rx=".45162" ry=".4542"/>
   <path id="path95814" d="m53.154 35.066"/>
   <ellipse id="ellipse95818" rx=".26389" ry=".26548" cy="35.056" cx="53.074" fill="#fff"/>
   <path id="path95820" fill="#fff" d="m53.074 35.056"/>
   <g id="g83349" stroke-width=".099432" stroke="#000">
    <path id="path95824" d="m52.211 36.917c-0.37466-0.2269-0.69861-0.53037-0.95017-0.88892 0.13384-0.06026 0.51207 0.02088 0.84477 0.10062 0.37287 0.08949 0.17758 0.57213 0.1054 0.78829z"/>
    <path id="path95826" fill="none" d="m51.98 36.102s0.74633 0.14298 1.2528 0.19668c0.30207 0.04474-0.67534 0.08054-0.74633 0.33966"/>
    <path id="path95828" fill="none" d="m52.211 36.917s0.26747 0.18614 0.4896 0.24858"/>
    <path id="path95832" d="m54.321 37.329c-0.43213 0.06861-0.874 0.04554-1.2958-0.06622 0.06403-0.13284 0.40568-0.3152 0.71133-0.46912 0.34284-0.17301 0.50153 0.32335 0.58446 0.53534z"/>
    <path id="path95834" fill="none" d="m53.625 36.854s0.66301-0.37307 1.0852-0.65943c0.25992-0.16108-0.46594 0.49815-0.35477 0.74275"/>
    <path id="path95836" fill="none" d="m54.321 37.329s0.32375-0.03043 0.53395-0.12628"/>
    <path id="path95840" d="m56.2 36.281c-0.28736 0.3319-0.64054 0.60017-1.0351 0.7871-0.0358-0.14298 0.10937-0.50372 0.245-0.81932 0.15233-0.35418 0.59102-0.07676 0.79008 0.03222z"/>
    <path id="path95842" fill="none" d="m55.363 36.368s0.26946-0.71452 0.41006-1.2069c0.09605-0.29153-0.03858 0.6829 0.20304 0.79844"/>
    <path id="path95844" fill="none" d="m56.2 36.281s0.22849-0.23267 0.32832-0.44187"/>
    <path id="path95848" d="m56.97 34.262c-0.008 0.44008-0.10739 0.874-0.28994 1.2723-0.11892-0.08651-0.23804-0.45659-0.33568-0.7863-0.10977-0.36949 0.40349-0.44068 0.62562-0.48602z"/>
    <path id="path95850" fill="none" d="m56.383 34.869s-0.24997-0.72168-0.45699-1.1896c-0.11256-0.28557 0.40688 0.54807 0.6656 0.48045"/>
    <path id="path95852" fill="none" d="m56.97 34.262s0.02625-0.32614-0.03082-0.55085"/>
    <path id="path95856" d="m56.27 32.218c0.27503 0.34224 0.47628 0.73878 0.59082 1.1622-0.14616 0.01074-0.47409-0.19588-0.75946-0.385-0.32037-0.21239 0.02744-0.59878 0.16864-0.77716z"/>
    <path id="path95858" fill="none" d="m56.21 33.063s-0.65267-0.39116-1.1103-0.61588c-0.26866-0.14597 0.66182 0.1567 0.81673-0.06244"/>
    <path id="path95860" fill="none" d="m56.27 32.218s-0.18812-0.26688-0.37565-0.4021"/>
    <path id="path95864" d="m54.428 31.104c0.42935 0.08432 0.83682 0.25793 1.1952 0.5083-0.1054 0.10281-0.48841 0.1567-0.82787 0.19608-0.38102 0.04454-0.36153-0.47628-0.3673-0.70437z"/>
    <path id="path95866" fill="none" d="m54.921 31.791s-0.74991 0.1225-1.2439 0.24639c-0.29909 0.06205 0.60713-0.30804 0.58565-0.57591"/>
    <path id="path95868" fill="none" d="m54.428 31.104s-0.3146-0.08273-0.54469-0.06503"/>
    <path id="path95872" d="m52.304 31.443c0.38261-0.21298 0.80579-0.34364 1.2401-0.38361-0.01511 0.14676-0.27403 0.43571-0.50889 0.68568-0.26329 0.2806-0.58108-0.13105-0.73122-0.30207z"/>
    <path id="path95874" fill="none" d="m53.122 31.65s-0.49636 0.57869-0.79545 0.99312c-0.18952 0.24082 0.26827-0.62861 0.08074-0.82011"/>
    <path id="path95876" fill="none" d="m52.304 31.443s-0.29392 0.1402-0.45878 0.30247"/>
    <path id="path95880" d="m50.894 33.075c0.1571-0.41065 0.39773-0.78432 0.70497-1.0959 0.08233 0.1221 0.06841 0.51108 0.04832 0.85432-0.02267 0.3854-0.52918 0.27543-0.7533 0.24162z"/>
    <path id="path95882" fill="none" d="m51.652 32.706s-0.01034 0.76423 0.02506 1.2753c0.0086 0.30704-0.19608-0.65506-0.46216-0.68031"/>
    <path id="path95884" fill="none" d="m50.894 33.075s-0.13562 0.2975-0.1583 0.52838"/>
    <path id="path95888" d="m50.859 35.237c-0.14219-0.41622-0.19648-0.8581-0.16008-1.2954 0.14099 0.04037 0.37903 0.34722 0.58287 0.62304 0.22849 0.30983-0.22949 0.55324-0.42278 0.67236z"/>
   </g>
   <g id="g83376" fill="none">
    <path id="path95890" stroke-width=".099432" d="m51.203 34.463s0.48045 0.59222 0.83403 0.96071c0.20284 0.22949-0.56875-0.37506-0.78869-0.22233" stroke="#000"/>
    <path id="path95892" stroke-width=".099432" d="m50.859 35.237s0.08611 0.3154 0.21616 0.5071" stroke="#000"/>
    <ellipse id="ellipse95896" rx="4.4508" ry="4.444" stroke="#fff" cy="34.163" cx="53.935" stroke-width=".39773"/>
    <path id="path95898" stroke-width=".39773" d="m53.935 34.163" stroke="#fff"/>
   </g>
   <ellipse id="ellipse95904" rx="2.5299" ry="3.3934" cy="35.076" cx="15.118" fill="#fff"/>
   <path id="path95906" fill="#fff" d="m15.118 35.076"/>
   <ellipse id="ellipse95910" rx="2.3275" ry="3.122" stroke="#000" cy="35.076" cx="15.118" stroke-width=".099432" fill="none"/>
   <path id="path95912" d="m15.118 35.076" stroke="#000" stroke-width=".099432" fill="none"/>
   <ellipse id="ellipse95918" cy="34.139" cx="15.118" rx=".30108" ry=".40389"/>
   <path id="path95920" d="m15.118 34.139"/>
   <ellipse id="ellipse95924" rx=".1758" ry=".23605" cy="34.131" cx="15.065" fill="#fff"/>
   <path id="path95926" fill="#fff" d="m15.065 34.131"/>
   <ellipse id="ellipse95932" cy="34.776" cx="14.455" rx=".30108" ry=".40389"/>
   <path id="path95934" d="m14.455 34.776"/>
   <ellipse id="ellipse95938" rx=".17599" ry=".23605" cy="34.766" cx="14.402" fill="#fff"/>
   <path id="path95940" fill="#fff" d="m14.402 34.766"/>
   <ellipse id="ellipse95946" cy="34.776" cx="15.817" rx=".30108" ry=".40389"/>
   <path id="path95948" d="m15.817 34.776"/>
   <ellipse id="ellipse95952" rx=".17599" ry=".23605" cy="34.766" cx="15.764" fill="#fff"/>
   <path id="path95954" fill="#fff" d="m15.764 34.766"/>
   <ellipse id="ellipse95960" cy="35.839" cx="15.545" rx=".30108" ry=".40389"/>
   <path id="path95962" d="m15.545 35.839"/>
   <ellipse id="ellipse95966" rx=".1758" ry=".23605" cy="35.831" cx="15.492" fill="#fff"/>
   <path id="path95968" fill="#fff" d="m15.492 35.831"/>
   <ellipse id="ellipse95974" cy="35.839" cx="14.668" rx=".30108" ry=".40389"/>
   <path id="path95976" d="m14.668 35.839"/>
   <ellipse id="ellipse95980" rx=".17599" ry=".23605" cy="35.831" cx="14.615" fill="#fff"/>
   <path id="path95982" fill="#fff" d="m14.615 35.831"/>
   <g id="g83406" stroke-width=".099432" stroke="#000">
    <path id="path95986" d="m14.039 37.486c-0.24977-0.20185-0.46574-0.4715-0.63358-0.79008 0.08929-0.05369 0.34145 0.01849 0.56318 0.08929 0.24878 0.07955 0.11852 0.50849 0.0704 0.7008z"/>
    <path id="path95988" fill="none" d="m13.886 36.76s0.49756 0.12707 0.83523 0.1748c0.20145 0.03977-0.45023 0.07159-0.49756 0.30187"/>
    <path id="path95990" fill="none" d="m14.039 37.486s0.17838 0.16526 0.32653 0.22094"/>
    <path id="path95994" d="m15.446 37.852c-0.28815 0.06085-0.58267 0.04037-0.86386-0.05906 0.04256-0.11793 0.27045-0.2802 0.47429-0.41702 0.22849-0.15372 0.33429 0.28736 0.38957 0.47608z"/>
    <path id="path95996" fill="none" d="m14.982 37.428s0.44207-0.3315 0.72346-0.58625c0.17341-0.14318-0.31062 0.44307-0.23645 0.66023"/>
    <path id="path95998" fill="none" d="m15.446 37.852s0.21577-0.02724 0.35597-0.11216"/>
    <path id="path96002" d="m16.7 36.919c-0.1915 0.29492-0.42696 0.53335-0.69006 0.6996-0.02386-0.12727 0.07298-0.44764 0.16347-0.72844 0.10142-0.3146 0.39375-0.06801 0.52659 0.02884z"/>
    <path id="path96004" fill="none" d="m16.141 36.997s0.17977-0.63517 0.27344-1.0731c0.06403-0.25912-0.02565 0.60713 0.13523 0.70974"/>
    <path id="path96006" fill="none" d="m16.7 36.919s0.15233-0.20702 0.21895-0.39295"/>
    <path id="path96010" d="m17.213 35.126c-0.0054 0.39116-0.07139 0.77676-0.1933 1.1309-0.07915-0.07676-0.15869-0.40588-0.22392-0.69881-0.07298-0.32872 0.26926-0.39196 0.41722-0.43213z"/>
    <path id="path96012" fill="none" d="m16.822 35.664s-0.16665-0.64153-0.30486-1.0576c-0.07497-0.25375 0.27125 0.48722 0.44366 0.42696"/>
    <path id="path96014" fill="none" d="m17.213 35.126s0.0175-0.28994-0.02068-0.4896"/>
    <path id="path96018" d="m16.746 33.308c0.18335 0.30406 0.31758 0.65665 0.39395 1.0331-0.09764 0.0093-0.31619-0.17401-0.50631-0.34244-0.21358-0.18872 0.0183-0.53216 0.11236-0.69065z"/>
    <path id="path96020" fill="none" d="m16.706 34.06s-0.43511-0.34781-0.74037-0.54727c-0.17918-0.12966 0.44128 0.1392 0.54449-0.05548"/>
    <path id="path96022" fill="none" d="m16.746 33.308s-0.12548-0.23724-0.25037-0.35736"/>
    <path id="path96026" d="m15.518 32.318c0.28616 0.07497 0.55801 0.22929 0.79685 0.45182-0.0702 0.09128-0.32554 0.1392-0.55185 0.1742-0.25415 0.03957-0.24102-0.42338-0.245-0.62602z"/>
    <path id="path96028" fill="none" d="m15.847 32.928s-0.49994 0.10878-0.82926 0.21895c-0.19946 0.05508 0.40469-0.27364 0.39057-0.51207"/>
    <path id="path96030" fill="none" d="m15.518 32.318s-0.2098-0.07358-0.36312-0.05787"/>
    <path id="path96034" d="m14.102 32.619c0.25514-0.18952 0.53733-0.30545 0.82687-0.34085-0.01014 0.13045-0.18276 0.38739-0.33926 0.60932-0.1756 0.24938-0.38758-0.11653-0.48761-0.26846z"/>
    <path id="path96036" fill="none" d="m14.647 32.803s-0.33091 0.51446-0.53037 0.88275c-0.12628 0.21398 0.17898-0.55881 0.05389-0.72903"/>
    <path id="path96038" fill="none" d="m14.102 32.619s-0.19588 0.12449-0.30585 0.26886"/>
    <path id="path96042" d="m13.162 34.07c0.1046-0.36511 0.26508-0.69721 0.46991-0.97403 0.05489 0.10858 0.04574 0.4542 0.03222 0.75926-0.01491 0.34244-0.35258 0.245-0.50213 0.21477z"/>
    <path id="path96044" fill="none" d="m13.668 33.741s-0.007 0.67932 0.0167 1.1335c0.0058 0.27304-0.13065-0.58227-0.30804-0.60494"/>
    <path id="path96046" fill="none" d="m13.162 34.07s-0.09048 0.26429-0.1056 0.46952"/>
    <path id="path96050" d="m13.138 35.993c-0.09486-0.37008-0.13105-0.76284-0.10679-1.1516 0.09406 0.03599 0.25276 0.30864 0.38858 0.55403 0.15253 0.27543-0.15293 0.49179-0.28179 0.59758z"/>
   </g>
   <g id="g83433" fill="none">
    <path id="path96052" stroke-width=".099432" d="m13.367 35.304s0.32017 0.52639 0.55602 0.85392c0.13523 0.20403-0.37923-0.3333-0.52599-0.19767" stroke="#000"/>
    <path id="path96054" stroke-width=".099432" d="m13.138 35.993s0.05747 0.2804 0.14418 0.45062" stroke="#000"/>
    <ellipse id="ellipse96058" rx="2.9674" ry="3.9504" stroke="#fff" cy="35.038" cx="15.189" stroke-width=".39773"/>
    <path id="path96060" stroke-width=".39773" d="m15.189 35.038" stroke="#fff"/>
   </g>
   <path id="path96062" d="m11.587 30.234c0.21457 0.27582-0.62463 1.1148-0.77776 1.36-0.15312 0.2452-0.09187 0.76622-0.09187 1.6549v2.176l0.1921 0.07756c-1.2423-0.224-3.9848-0.733-4.5886-0.983-0.77099-0.32216-1.1886-1.4121-1.542-2.0224-0.35338-0.61031-0.1929-1.7027 0.09625-1.9274 0.28915-0.22491 0.62403-0.38957 0.62403-0.38957l6.3368 0.05568h-0.24858z"/>
   <path id="path96064" d="m18.366 30.489 28.513-0.49716c0.39773 0 0.04972 1.3423-0.24858 1.3423l-27.582 0.423c-0.423-0.124-0.883-0.92-0.684-1.268z"/>
   <path id="path96066" d="m73.541 36.311 12.721-0.51386s0.73898-0.03222 1.1244-0.09645c0.3854-0.06423 0.12846-0.28915 0.41761-0.28915s0.28915-0.32116 0.70676-0.54608c0.41761-0.22491 1.7027-0.1927 2.4735-0.25693s0.77099-0.99591 1.2528-1.2208c0.48185-0.22491 1.0279-0.93167 1.1886-1.1886 0.16068-0.25693 0.48185-0.06423 0.67474-0.3854 0.1927-0.32116 0.22492-1.4455 0.22492-1.9916 0-0.43034-0.24838-0.88176-0.74415-1.2073l-0.18236-0.12727s-18.497 0.52679-23.913 0.69602c-4.8224 0.15074-10.855 0.08392-10.855 0.08392 0.06682 0.12091 0.13861 0.24858 0.21338 0.37764 0.35338 0.61031 1.1564 2.9555 1.7989 3.855 0.64233 0.89946 1.5098 2.0881 2.1843 2.1203 0 0 6.0715-0.16068 7.3566-0.22472 1.2849-0.06423 1.9149 0.45281 1.9149 0.45281"/>
   <path id="path96068" d="m58.755 29.268c0.06682 0.12091 0.13861 0.24858 0.21338 0.37764 0.35338 0.61031 1.1564 2.9555 1.7989 3.855 0.64233 0.89946 1.5098 2.0881 2.1843 2.1203 0 0 6.0715-0.16068 7.3566-0.22472 1.2849-0.06423 1.9149 0.45281 1.9149 0.45281 0.20284 0.16386 0.3325 0.37625 1.4422 0.31361l12.721-0.36472s1.2027 0.10341 1.373-0.17102" stroke="#fff" stroke-linecap="round" stroke-width=".19886" fill="none"/>
   <path id="path96070" d="m5.5512 26.624s-0.12429 1.2678 0.024858 2.3864h0.59659c0.27344 0 0.074574-2.2372-0.62145-2.3864z"/>
   <g id="g83444" stroke="#000">
    <g id="g83446" stroke-width=".099432">
     <path id="path96072" d="m19.932 25.878c0.17162 0 0.31082-0.13901 0.31082-0.31082 0-0.17162-0.41244-0.31082-0.58426-0.31082h-0.99432c-0.17162 0-0.58426 0.1392-0.58426 0.31082s0.1392 0.31082 0.31082 0.31082h1.5412z"/>
     <path id="path96074" d="m18.08 25.567s-0.22372 0.73341 0.37287 0.73341h1.1186c0.69602 0 0.67116-0.73341 0.67116-0.73341"/>
     <path id="path96076" d="m32.907 25.803c0.17162 0 0.31082-0.139 0.31082-0.31082 0-0.17162-0.41244-0.31082-0.58426-0.31082h-1.7152c-0.17162 0-0.58426 0.1392-0.58426 0.31082s0.1392 0.31082 0.31082 0.31082h2.2621z"/>
     <path id="path96078" d="m31.056 25.493s-0.22372 0.73341 0.37287 0.73341h1.1186c0.69602 0 0.67116-0.73341 0.67116-0.73341"/>
    </g>
    <g id="g83452" stroke-width=".19886">
     <path id="path96080" fill="#fff" d="m75.227 25.605c0.9446 0 1.5909 0.34801 1.8395 0.9446 0.24858 0.59659 0.9446 1.5909-0.39773 1.5909l-10.49 0.14915c-0.9446 0-1.2926-0.34801-1.5909-1.4418-0.2983-1.0937 0.14915-0.99432 0.9446-0.99432s9.6946-0.24858 9.6946-0.24858z"/>
     <path id="path96082" fill="#fff" d="m87.756 25.555h4.1276s0.84398 0.64631 0.99312 2.1875h-5.4687c-0.59659 0-0.24858-2.1875 0.34801-2.1875z"/>
     <line id="line96084" y2="25.555" x2="88.601" y1="25.605" x1="75.028" fill="none"/>
     <line id="line96086" y2="28.438" x2="57.877" y1="28.289" x1="66.179" fill="none"/>
    </g>
   </g>
   <g id="g83458" stroke-width=".19886" stroke="#000" fill="#fff">
    <path id="path96088" d="m65.135 25.853c-0.84517 0-0.74574 0.2983-0.54687 0.99432 0.19886 0.69602 0.24858 1.392 1.5909 1.4418l3.4801-0.04972c-0.199-0.845-0.696-1.988-1.044-2.485l-3.4801 0.09943z"/>
    <path id="path96090" d="m73.237 25.655s0.72963 1.5201 0.79048 2.4931"/>
    <path id="path96092" d="m89.715 25.534s0.72963 1.3378 0.79048 2.1282"/>
   </g>
   <g id="g83463" stroke-width=".099432" fill="none">
    <g id="g83465" stroke="#fff">
     <path id="path96094" d="m59.082 30.033s6.7359-0.18236 10.81-0.18236 24.395-0.60812 24.395-0.60812"/>
     <path id="path96096" d="m59.442 30.763s6.376-0.18236 10.451-0.18236c4.2978 0 24.552-0.60812 24.552-0.60812"/>
     <path id="path96098" d="m60.096 32.283s5.7213-0.18236 9.7954-0.18236 24.428-0.60812 24.428-0.60812"/>
     <path id="path96100" d="m61.251 34.181s4.5673-0.19489 8.6414-0.19489 22.672-0.65784 22.672-0.65784"/>
     <path id="path96102" d="m62.172 35.215s3.6468-0.19489 7.7209-0.19489 21.732-0.63298 21.732-0.63298"/>
     <line id="line96104" y1="30.915" x2="4.9793" x1="11.212" y2="30.915"/>
     <line id="line96106" y1="31.462" x2="4.8273" x1="10.574" y2="31.462"/>
     <line id="line96108" y1="31.827" x2="4.8882" x1="10.452" y2="31.827"/>
    </g>
    <g id="g83475" stroke="#000">
     <path id="path96110" d="m18.266 22.645c-0.60812 0.79048-1.2769 1.7027-1.2769 2.554 0 0.85133 1.5203 4.135 2.2499 5.2904l0.66878 1.2162s1.0337 2.1282 1.6418 2.8579"/>
     <line id="line96112" y1="34.624" x2="47.575" x1="20.029" y2="34.503"/>
     <path id="path96114" d="m30.479 22.578c-0.59818 0.7356-0.90224 5.4178-0.78054 7.7284l0.06085 1.2769s0.06085 2.9796 0.48642 2.9796"/>
     <path id="path96116" d="m47.271 20.821c-0.48642 0-0.85133 0.30406-1.0945 1.3378-0.24321 1.0337-0.97284 3.4053-0.97284 7.7835v1.4593s0.1215 2.1282 0.30406 3.1013"/>
    </g>
    <line id="line96118" y2="30.641" x2="46.541" stroke="#fff" y1="30.945" x1="18.752"/>
    <g id="g83482" stroke="#000">
     <path id="path96120" d="m6.8341 25.017c3.1619-0.122 14.594-0.669 25.721-0.73 11.128-0.06085 26.27 0.1217 31.743 0.42577"/>
     <path id="path96122" d="m68.675 25.807c-0.668-0.912-1.885-2.493-9.182-3.283-7.296-0.791-10.215-1.095-11.249-1.521"/>
     <path id="path96124" d="m54.75 20.882c7.0537 0.60812 15.749 1.4595 20.248 3.6485"/>
     <path id="path96126" d="m65.332 20.699c7.0537 0.60812 15.749 1.4593 20.248 3.6485"/>
     <path id="path96128" d="m40.846 15.253c0.57054 0.48582 4.4637 5.2041 5.0006 6.2797 0.53693 1.0755-0.4027 1.1103-1.678 1.1103l-13.693 0.24281s-14.566-0.02128-15.472-0.0694c-1.3089-0.0694-0.51585-0.93307 0.06702-1.4573 0.77199-0.69383 6.3431-4.9264 7.4508-5.3777 1.1077-0.45122 5.5714-0.93665 9.9008-1.1449 4.1248-0.19847 6.2753-0.0348 6.9473-0.0348 1.1745 0.000199 1.4766 0.45122 1.4766 0.45122z"/>
     <path id="path96130" d="m42.286 15.409c-0.72963-0.60812-1.6418-1.216-5.5336-1.216s-10.398 0.54727-11.979 0.97304"/>
    </g>
    <g id="g83490" stroke="#fff">
     <path id="path96132" d="m18.783 22.524c0.63855-1.3682 4.9559-6.0504 5.8995-6.6888"/>
     <path id="path96134" d="m19.3 22.524c0.63855-1.3682 4.9559-6.0504 5.8977-6.6888"/>
     <path id="path96136" d="m29.972 22.584c0-1.7027 0.91199-4.4695 2.2499-7.449"/>
     <path id="path96138" d="m30.489 22.584c0-1.7027 0.91199-4.4695 2.2499-7.449"/>
     <path id="path96140" d="m31.187 22.584c0-1.7027 0.97284-5.4727 2.4019-7.449"/>
    </g>
   </g>
   <path id="path96142" fill="#fff" d="m44.322 20.76c0.41542 0.37386 0.76006 1.3378 0.1215 1.3682-0.63835 0.03043-3.9828 0.18236-4.9254 0.09108-0.94241-0.09108-1.125-0.60812-0.42557-1.3682 0.6992-0.76006 1.4189-0.79048 2.8883-0.79048 1.5507 0 1.7331 0.15213 2.3412 0.6994z"/>
   <g id="g83498" stroke-width=".099432" stroke="#000">
    <path id="path96144" fill="none" d="m39.641 22.28c-0.79048-0.21278-0.50332-0.83125 0-1.3682 0.45599-0.48642 0.91199-0.76006 1.6722-0.97284"/>
    <ellipse id="ellipse96148" cy="27.19" cx="82.464" rx="1.9347" ry=".96747"/>
    <path id="path96150" d="m82.464 27.191"/>
    <ellipse id="ellipse96154" rx="2.3217" ry="1.0749" cy="27.191" cx="82.844" fill="none"/>
    <path id="path96156" fill="none" d="m82.844 27.191"/>
   </g>
   <g id="g83505" stroke-width=".099432" stroke="#000" fill="#fff">
    <path id="path96160" d="m80.974 27.434c-0.09227 0-0.16724-0.07477-0.16724-0.16724 0-0.09227 0.07477-0.16724 0.16724-0.16724h0.65366c0.09227 0 0.16724 0.07477 0.16724 0.16724 0 0.09227-0.07477 0.16724-0.16724 0.16724h-0.65366z"/>
    <path id="path96162" d="m81.301 27.267"/>
    <path id="path96164" d="m83.94 27.358c-0.09227 0-0.16724-0.07477-0.16724-0.16724 0-0.09227 0.07477-0.16724 0.16724-0.16724h0.85133c0.09227 0 0.16724 0.07477 0.16724 0.16724 0 0.09227-0.07477 0.16724-0.16724 0.16724h-0.85114z"/>
    <ellipse id="ellipse96168" cy="27.191" cx="82.844" rx="1.1824" ry=".58048"/>
    <path id="path96170" d="m82.844 27.191"/>
   </g>
   <ellipse id="ellipse96174" rx=".64491" ry=".32256" stroke="#000" cy="27.191" cx="82.844" stroke-width=".099432"/>
   <path id="path96176" stroke-width=".099432" d="m82.844 27.191" stroke="#000"/>
   <path id="path96178" fill="#fff" d="m76.888 33.986 9.23-0.16406s0.70676-1.1244 1.4457-1.542l-8.8985 0.03202c-0.51406 0.73898-1.7772 1.674-1.7772 1.674z"/>
  </g>
 </g>
</svg>
