<?xml version="1.0" encoding="UTF-8" standalone="no"?>
<!-- Created with Inkscape (http://www.inkscape.org/) -->
<svg id="svg2" xmlns:rdf="http://www.w3.org/1999/02/22-rdf-syntax-ns#" xmlns="http://www.w3.org/2000/svg" height="45" width="67.5" version="1.1" xmlns:cc="http://creativecommons.org/ns#" xmlns:dc="http://purl.org/dc/elements/1.1/">
 <metadata id="metadata7">
  <rdf:RDF>
   <cc:Work rdf:about="">
    <dc:format>image/svg+xml</dc:format>
    <dc:type rdf:resource="http://purl.org/dc/dcmitype/StillImage"/>
    <dc:title/>
   </cc:Work>
  </rdf:RDF>
 </metadata>
 <g id="g4657">
  <rect id="rect2990" opacity="0" height="45" width="67.5" y="0" x="3.5527e-15"/>
  <path id="path4655" d="m33.501 33.84c-0.79803-0.31496-1.7751-1.2726-2.2944-2.2488l-0.39774-0.74769-0.38189 0.56984c-0.54296 0.81018-1.1751 1.1252-2.4133 1.2024-1.4482 0.09035-2.1337-0.10536-2.8387-0.81037-0.36062-0.36063-0.64566-0.79101-0.78636-1.1873-0.18274-0.51474-0.26196-0.61162-0.46058-0.56328-0.13194 0.03211-2.6528 0.09672-5.6019 0.14357l-5.362 0.08519-0.20437 0.64976c-0.26854 0.85373-0.77019 1.5288-1.3594 1.8294-0.70226 0.35826-2.9407 0.3537-3.6869-0.0075-1.0294-0.49833-1.6231-1.6087-1.8781-3.5126-0.12372-0.92366-0.16459-1.0401-0.30536-0.87053-0.0992 0.11953-0.34373 0.19582-0.62761 0.19582-0.51541 0-0.55739-0.05902-0.26884-0.37787 0.15988-0.17666 0.16543-0.22567 0.03-0.26449-0.0914-0.0262-0.86004-0.21295-1.708-0.41499-0.84795-0.20204-1.6462-0.46191-1.774-0.57749-0.12771-0.11558-0.44596-0.61806-0.7072-1.1166-0.67663-1.2913-0.64221-1.6681 0.18578-2.0344l0.51511-0.22786 0.0464-1.6612c0.0437-1.5625 0.0688-1.7092 0.42356-2.4697 0.23998-0.5144 0.47829-0.85054 0.65508-0.92401 0.15284-0.06351 1.2743-0.25493 2.4922-0.42538 3.2877-0.46014 4.285-0.7 4.6028-1.107 1.6275-2.0846 3.775-4.2097 4.6927-4.6439 2.8543-1.3503 12.422-1.7655 23.553-1.0222 3.7821 0.25256 4.3692 0.49825 8.3581 3.4974 1.518 1.1414 2.9786 2.2515 3.2459 2.467 0.46721 0.37667 0.56357 0.40097 2.4962 0.62961 4.4408 0.52537 9.804 1.4659 12.055 2.1141 0.84154 0.24229 1.6841 0.66153 1.9738 0.98211 0.19104 0.21141 0.21479 0.40003 0.17155 1.3623-0.0276 0.61432-0.0926 1.2111-0.14436 1.3262-0.0778 0.17287 0.0421 0.27038 0.68895 0.56064 0.87864 0.39422 1.0994 0.68154 0.98636 1.2839-0.0564 0.30042-0.20289 0.49279-0.55072 0.72297-0.26209 0.17344-0.47394 0.41075-0.47394 0.53089 0 0.38515-0.51731 0.8047-1.473 1.1947-0.7932 0.32366-0.95853 0.44127-1.1016 0.78361-0.18392 0.44016-0.28004 0.47746-1.5035 0.58339-0.66799 0.05783-0.82257 0.11728-1.0795 0.41516-0.20275 0.23508-0.49675 0.39268-0.90789 0.48671-0.5728 0.13099-0.62648 0.17665-0.92634 0.78806-0.44135 0.8999-1.0656 1.5502-1.8648 1.9427-0.6508 0.3196-0.7535 0.33342-2.4781 0.33342-1.2846 0-1.9192-0.04906-2.219-0.17154-0.76292-0.31174-1.4325-0.85003-1.9236-1.5464l-0.48454-0.68708-3.0239 0.0465c-1.6632 0.02557-3.8677 0.07001-4.8989 0.09875l-1.875 0.05226-0.20266 0.53065c-0.28869 0.75593-1.1525 1.664-1.9602 2.0606-0.64851 0.31846-0.78043 0.33744-2.5431 0.36596-1.6352 0.02646-1.934 0.00048-2.4813-0.21547zm2.6749-2.0635c0.42013-0.28208 0.67808-0.58108 0.93333-1.0818 0.31148-0.61111 0.35527-0.8285 0.37443-1.8591 0.0119-0.6419 0.007-1.1131-0.01-1.0472-0.0173 0.06597-0.0641 0.26837-0.10415 0.44979-0.0612 0.27731-0.13447 0.32955-0.46028 0.32801-0.24614-0.0012-0.33135-0.03749-0.23354-0.09955 0.17544-0.11132 0.0708-0.49586-0.13683-0.50314-0.0754-0.0026 0.0183-0.08899 0.20826-0.19188 0.26748-0.14489 0.36595-0.15376 0.43667-0.03932 0.0641 0.10381 0.11476 0.07389 0.17015-0.10063 0.11181-0.3523-0.42756-1.3587-0.96613-1.8026-1.178-0.97104-2.7986-0.60266-3.568 0.81107-0.31297 0.57503-0.42972 0.95577-0.18658 0.60849 0.10034-0.14331 0.11154-0.12822 0.0551 0.07414-0.0564 0.20198 0.005 0.28555 0.30009 0.40772 0.24441 0.10124 0.32144 0.18429 0.22575 0.24343-0.0817 0.05048-0.11495 0.20556-0.076 0.35437 0.0617 0.23568 0.0307 0.25896-0.28266 0.21297-0.27961-0.04104-0.35185-0.0067-0.35185 0.16747 0 0.15376 0.0894 0.21911 0.29986 0.21911 0.23713 0 0.29986 0.06064 0.29986 0.28986 0 0.15942 0.0488 0.30785 0.10841 0.32984 0.0597 0.02199-0.0822 0.13686-0.31526 0.25527-0.4236 0.21526-0.42365 0.21525-0.35501-0.04726 0.0498-0.19061 0.0325-0.22648-0.063-0.1309-0.1917 0.1917 0.20515 1.1553 0.70253 1.7059 0.53407 0.59116 1.049 0.82975 1.7979 0.83307 0.49877 0.0022 0.72674-0.07153 1.1967-0.38708zm-2.2357-0.0054c-0.53622-0.28356-1.3236-1.2629-1.308-1.627 0.007-0.16562 0.0221-0.1623 0.0943 0.02092 0.0812 0.20583 0.0981 0.20419 0.31001-0.02999 0.22306-0.24647 0.43977-0.32931 0.41269-0.15775-0.0437 0.27682 0.0329 0.40832 0.20035 0.34405 0.21462-0.08236 0.14094 0.08863-0.2039 0.4732-0.21792 0.24302-0.21491 0.25392 0.1659 0.59972 0.21331 0.19371 0.29031 0.23566 0.1711 0.09323-0.2017-0.241-0.20345-0.28469-0.025-0.6297 0.21781-0.4212 0.28618-0.46314 0.26218-0.16084-0.0106 0.13424 0.0615 0.20348 0.2001 0.1921 0.18236-0.01498 0.20376 0.04213 0.13486 0.35983-0.045 0.2077-0.13364 0.41062-0.1969 0.45095-0.0633 0.04032 0.011 0.10706 0.16499 0.14829 0.39532 0.10585 0.54852 0.0927 0.35416-0.0304-0.12349-0.07821-0.1414-0.22297-0.0703-0.56789 0.0563-0.27304 0.1156-0.37683 0.14454-0.25302 0.0269 0.11545 0.12212 0.2099 0.2114 0.2099 0.0893 0 0.18701-0.09445 0.21718-0.2099 0.0301-0.11545 0.0611 0.01949 0.0688 0.29986 0.009 0.3313-0.0385 0.51271-0.13602 0.51819-0.0825 0.0046-0.042 0.05482 0.09 0.11151 0.18771 0.08066 0.13311 0.10492-0.25101 0.11151-0.29487 0.0051-0.69874-0.10148-1.0114-0.26681zm1.6572 0.0742c0.0998-0.04003 0.11537-0.11141 0.0438-0.20043-0.0611-0.07605-0.14759-0.32718-0.19219-0.55807-0.0611-0.31642-0.0492-0.3755 0.0484-0.23989 0.1131 0.15713 0.1509 0.15194 0.29839-0.04095 0.15935-0.20839 0.17996-0.19944 0.36502 0.15842 0.15351 0.29686 0.23123 0.35015 0.35765 0.24523 0.13225-0.10976 0.10925-0.19044-0.127-0.44536-0.2634-0.28422-0.27119-0.32397-0.0895-0.45682 0.12182-0.08907 0.16851-0.22494 0.1204-0.35031-0.0666-0.17366-0.0253-0.16685 0.27195 0.0448 0.2511 0.1788 0.37514 0.2098 0.43726 0.1093 0.0477-0.07717 0.002-0.19959-0.10113-0.27204-0.10332-0.07245-0.28698-0.20121-0.40815-0.28613-0.12115-0.08492-0.15895-0.12601-0.084-0.09131 0.0749 0.0347 0.16436-0.04425 0.19867-0.17544 0.0343-0.13119 0.0134-0.23854-0.0463-0.23854-0.0598 0-0.10872-0.04463-0.10872-0.09917s0.16245-0.07533 0.36101-0.04619c0.2561 0.03759 0.38166 0.13526 0.43207 0.33614 0.0924 0.36816-0.22546 1.2906-0.62539 1.815-0.31391 0.41155-0.95859 0.88016-1.1872 0.86296-0.066-0.005-0.0502-0.037 0.035-0.07119zm-1.5354-1.8993c-0.0762-0.09187-0.10353-0.27757-0.0607-0.41267 0.0905-0.28516 0.48378-0.32936 0.58495-0.06573 0.15503 0.40402-0.26667 0.78882-0.5243 0.4784zm0.30101-0.41843c-0.0581-0.0939-0.12703-0.10086-0.20699-0.0209-0.066 0.06597-0.0808 0.18332-0.0329 0.26079 0.0581 0.0939 0.12703 0.10086 0.20699 0.0209 0.066-0.06597 0.0808-0.18332 0.0329-0.26079zm0.59789 0.11419c-0.076-0.23964 0.11015-0.59396 0.31215-0.59396 0.2104 0 0.37306 0.48662 0.22305 0.66736-0.20396 0.24576-0.44437 0.2128-0.5352-0.07339zm0.42163-0.18415c0-0.21181-0.25821-0.17492-0.33234 0.04748-0.0262 0.07834 0.038 0.14243 0.14243 0.14243 0.10445 0 0.18991-0.08546 0.18991-0.18991zm-1.6744-0.70391c-0.17551-0.21147-0.0534-0.66544 0.179-0.66544 0.24783 0 0.41829 0.38544 0.27986 0.6328-0.14131 0.25252-0.26885 0.26159-0.45886 0.03265zm0.35505-0.31269c0-0.06208-0.081-0.11286-0.17992-0.11286-0.18548 0-0.23828 0.14153-0.10321 0.27661 0.0958 0.09583 0.28313-0.0125 0.28313-0.16374zm1.1636 0.29109c-0.14481-0.14481-0.0917-0.61525 0.0767-0.67989 0.25843-0.09917 0.46317 0.10011 0.41941 0.40821-0.0397 0.2793-0.32967 0.43811-0.49611 0.27168zm0.29371-0.34399c0-0.06267-0.0581-0.13329-0.12894-0.15693-0.0709-0.02364-0.12894 0.04698-0.12894 0.15693s0.0581 0.18056 0.12894 0.15692c0.0709-0.02364 0.12894-0.09425 0.12894-0.15692zm-1.1384-0.47343c-0.11522-0.30026 0.0482-0.56209 0.32608-0.52244 0.18193 0.02596 0.2546 0.12192 0.2546 0.33619 0 0.34948-0.46127 0.49743-0.58068 0.18626zm0.40077-0.25331c0-0.09506-0.054-0.17284-0.11994-0.17284-0.066 0-0.11995 0.11114-0.11995 0.24697s0.054 0.21361 0.11995 0.17284c0.066-0.04077 0.11994-0.15191 0.11994-0.24697zm-1.7535-0.33462-0.32753-0.28173 0.257-0.41584c0.34713-0.56166 0.6975-0.86307 0.87544-0.7531 0.0856 0.05291 0.11511 0.04022 0.0713-0.03068-0.19882-0.32169 1.1314-0.5203 1.799-0.2686 0.67249 0.25354 1.713 1.56 1.5536 1.9507-0.0317 0.07753-0.0617 0.04651-0.067-0.06893-0.0116-0.25723-0.28665-0.27409-0.48924-0.02999-0.16004 0.19284-0.41892 0.25263-0.30654 0.0708 0.10763-0.17416-0.0647-0.49764-0.21579-0.40506-0.0756 0.04628-0.0482-0.04848 0.0608-0.21059 0.10897-0.16211 0.28886-0.2865 0.39976-0.27643 0.16616 0.01509 0.15409-0.0323-0.0685-0.26931l-0.27021-0.28763-0.2098 0.44923c-0.13436 0.28768-0.21329 0.36872-0.21951 0.22534-0.007-0.16295-0.0748-0.20686-0.24902-0.16131-0.20645 0.05399-0.22918 0.01885-0.16553-0.25588 0.0406-0.17516 0.15859-0.38594 0.26224-0.4684s0.12858-0.14993 0.0554-0.14993c-0.0732 0-0.21843-0.03276-0.32278-0.07281-0.15435-0.05923-0.19149 0.02464-0.19919 0.44979-0.006 0.28743-0.0367 0.45512-0.07 0.37266-0.0909-0.22525-0.39885-0.18028-0.41065 0.05997-0.006 0.11545-0.0605 0.04798-0.12184-0.14993-0.0613-0.19791-0.0888-0.45429-0.0609-0.56973 0.0541-0.22424-0.0278-0.2557-0.34694-0.13324-0.12474 0.04787-0.15163 0.10643-0.0716 0.15589 0.0705 0.04358 0.16173 0.24692 0.20272 0.45188 0.0627 0.31349 0.0392 0.36967-0.14812 0.35387-0.15778-0.01331-0.21361 0.05111-0.19163 0.2211 0.017 0.13194-0.0925 0.0094-0.24353-0.27223-0.20855-0.389-0.30806-0.47861-0.41392-0.37274-0.10587 0.10587-0.0617 0.24194 0.18355 0.56604 0.17761 0.23467 0.25817 0.3874 0.17902 0.3394-0.15485-0.0939-0.44134 0.31373-0.31165 0.44342 0.20373 0.20373-0.11157 0.04068-0.39834-0.20599zm-23.758 3.49c0.21748-0.2144 0.36872-0.37542 0.33609-0.35783-0.0326 0.01759-0.13089-0.13821-0.21836-0.34622-0.11619-0.27635-0.12364-0.42083-0.0277-0.53649 0.0723-0.08706 0.0894-0.22812 0.0381-0.31347-0.0627-0.10428-0.0228-0.09789 0.12172 0.01947 0.36661 0.29777 0.65487 0.26675 0.306-0.03292-0.36119-0.31027-0.35315-0.80142 0.0131-0.80142 0.13028 0 0.23155-0.08222 0.23155-0.188 0-0.12949-0.0703-0.1657-0.22575-0.11635-0.18085 0.0574-0.23631-0.00036-0.27887-0.29035-0.0394-0.26846 0.00056-0.37904 0.15468-0.42796 0.25002-0.07935 0.40229-0.40312 0.17382-0.36958-0.0877 0.01288-0.24716 0.09615-0.35427 0.18505-0.16634 0.13805-0.18442 0.13468-0.12387-0.02311 0.039-0.10161 0.0133-0.22038-0.0573-0.26393-0.19373-0.11973-0.1559-0.26858 0.14175-0.55777 0.14844-0.14421 0.19323-0.21842 0.0996-0.16491-0.1254 0.07164-0.15069 0.04615-0.0959-0.09664 0.10916-0.28446-0.55908-0.80512-1.0324-0.80438-0.23488 0.00036-0.51839 0.11867-0.74044 0.30898-0.25555 0.21901-0.27388 0.2536-0.0633 0.11935 0.4077-0.25989 0.4187-0.25266 0.45666 0.3002 0.0198 0.28773-0.0135 0.45979-0.0809 0.41816-0.0629-0.0389-0.13688 0.02438-0.16431 0.14064-0.0381 0.16139-0.0712 0.13542-0.13984-0.1098-0.0988-0.35257-0.37328-0.52438-0.50283-0.31475-0.0453 0.07328-0.029 0.10022 0.0364 0.05987 0.0653-0.04036 0.20948 0.11698 0.32043 0.34963 0.11094 0.23265 0.14682 0.38908 0.0797 0.34762-0.11568-0.0715-0.17759 0.10121-0.12731 0.35521 0.0127 0.06412-0.0889 0.01527-0.22568-0.10855-0.21063-0.19062-0.24876-0.19623-0.24876-0.03662 0 0.10368 0.0624 0.2093 0.13859 0.23471 0.0762 0.02541 0.1437 0.21818 0.14993 0.42837 0.009 0.31186-0.0273 0.36992-0.19856 0.31554-0.13897-0.04411-0.2099-0.0031-0.2099 0.12137 0 0.1034 0.0747 0.188 0.16593 0.188 0.22803 0 0.33281 0.59997 0.1191 0.68198-0.0908 0.03484-0.16509 0.1469-0.16509 0.24902 0 0.15444 0.0437 0.14724 0.26022-0.04282 0.23122-0.20302 0.25178-0.20529 0.18439-0.02042-0.05 0.13713 0.005 0.25103 0.15958 0.33406 0.12947 0.0693 0.23542 0.20824 0.23542 0.30877 0 0.10052 0.054 0.14942 0.11994 0.10864 0.066-0.04077 0.11921 0.02351 0.1183 0.14285-0.002 0.35914-0.13896 0.75672-0.25931 0.75672-0.0621 0-0.0742-0.06747-0.0267-0.14993 0.0474-0.08246 0.0415-0.10933-0.0132-0.05971s-0.18778 0.02263-0.29574-0.05997c-0.10797-0.0826-0.0441-0.0018 0.14208 0.17965 0.4852 0.47295 1.0546 0.45124 1.5731-0.05997zm-1.1383 0.16467c0.0881-0.05584 0.15557-0.13598 0.14993-0.17808-0.0345-0.25776 0.019-0.71078 0.0692-0.58631 0.0333 0.08246 0.13337 0.14993 0.22245 0.14993 0.0891 0 0.18537 0.12144 0.214 0.26987 0.0286 0.14843 0.0351 0.05398 0.0143-0.2099s-0.009-0.41197 0.0262-0.3291c0.096 0.22646 0.28395 0.05337 0.20038-0.1845-0.11226-0.31957 0.13461-0.01952 0.29516 0.35875 0.12313 0.29011 0.10457 0.35116-0.17331 0.56973-0.18462 0.14522-0.4876 0.24406-0.74483 0.24297-0.28337-0.0012-0.37811-0.03702-0.27344-0.10337zm-0.26117-1.7478c-0.0446-0.11617-0.009-0.15169 0.10711-0.10711 0.0956 0.03668 0.1738 0.01144 0.1738-0.05609s-0.0649-0.14438-0.14402-0.17079c-0.11174-0.03725-0.11155-0.06808 0.0008-0.13754 0.17262-0.10668 0.31972 0.20488 0.21975 0.46542-0.0877 0.22859-0.27092 0.23172-0.35749 0.0061zm0.64074-0.05609c0-0.06047 0.0675-0.13732 0.14993-0.17078 0.11657-0.0473 0.11372-0.08622-0.0128-0.17492-0.11453-0.08029-0.12316-0.13854-0.0291-0.19665 0.16198-0.10011 0.30435 0.2225 0.20847 0.47238-0.0749 0.19533-0.31646 0.24872-0.31646 0.06997zm-0.88103-0.9045c-0.0941-0.2451 0.0359-0.56664 0.20613-0.5099 0.0744 0.02478 0.13516 0.17099 0.13516 0.32492 0 0.32626-0.23765 0.45507-0.34129 0.18498zm0.28132-0.18498c0-0.06597-0.054-0.11994-0.11995-0.11994-0.066 0-0.11994 0.05398-0.11994 0.11994 0 0.06597 0.054 0.11994 0.11994 0.11994 0.066 0 0.11995-0.05397 0.11995-0.11994zm0.71966 0.11286c0-0.06986 0.054-0.09366 0.11994-0.05289 0.066 0.04077 0.11994-0.0132 0.11994-0.11994s-0.054-0.16072-0.11994-0.11994c-0.066 0.04077-0.11994 0.01697-0.11994-0.05289s0.081-0.12702 0.17991-0.12702c0.11195 0 0.17992 0.11328 0.17992 0.29986s-0.068 0.29986-0.17992 0.29986c-0.099 0-0.17991-0.05716-0.17991-0.12702zm-0.50925-0.62262c-0.0826-0.22451 0.0274-0.44979 0.21938-0.44979 0.10129 0 0.16992 0.12112 0.16992 0.29986 0 0.3114-0.28899 0.4227-0.3893 0.14993zm0.26936-0.15701c0-0.10285-0.0549-0.15309-0.1219-0.11166-0.067 0.04144-0.0908 0.12558-0.0529 0.18699 0.10282 0.16637 0.17479 0.13535 0.17479-0.07534zm0.6734-0.82336c0.0698-0.18328 0.0466-0.21488-0.11283-0.15369-0.11041 0.04236-0.20074 0.02157-0.20074-0.04623 0-0.06779-0.054-0.0899-0.11994-0.04913-0.066 0.04077-0.12374 0.0035-0.12838-0.08288-0.005-0.08635-0.0549-0.04906-0.11151 0.08288-0.0894 0.20813-0.10542 0.19225-0.12069-0.11994-0.01-0.19791-0.0357-0.45429-0.0578-0.56973-0.0575-0.30034 0.53917-0.27812 0.93712 0.0349 0.27787 0.21857 0.29644 0.27962 0.17331 0.56973-0.16281 0.38359-0.38852 0.67525-0.25855 0.33409zm-0.19363-0.72882c0-0.16492-0.0465-0.29986-0.10331-0.29986-0.0568 0-0.0775 0.13494-0.046 0.29986s0.0781 0.29986 0.10331 0.29986c0.0253 0 0.046-0.13494 0.046-0.29986zm-1.1994 4.3877c0-0.06057 0.0314-0.209 0.0698-0.32984 0.0638-0.20105 0.0536-0.19994-0.11995 0.01311-0.21725 0.26662-0.24344 0.42686-0.0698 0.42686 0.066 0 0.11995-0.04956 0.11995-0.11013zm2.2752-0.42961c0-0.06597-0.0523-0.03898-0.11627 0.05997-0.064 0.09895-0.11627 0.23389-0.11627 0.29986s0.0523 0.03898 0.11627-0.05997c0.064-0.09895 0.11627-0.23389 0.11627-0.29986zm20.588-0.27c-0.0359-0.18142-0.12808-1.1745-0.20478-2.2069-0.13309-1.7914-0.12775-1.9156 0.1168-2.7207 0.30949-1.0189 0.84195-1.7502 1.6283-2.2364 0.53747-0.33229 0.67165-0.36167 1.6151-0.3536 1.2562 0.01074 2.1307 0.31637 2.9376 1.0266 0.72354 0.63689 1.0304 1.1858 1.6157 2.8908 0.56955 1.6589 0.62399 1.769 1.1773 2.3815l0.42386 0.46916 3.6743 0.02734 3.6743 0.02734-3.6583 0.06262c-3.5259 0.06036-3.6475 0.07022-3.3617 0.27252 0.26963 0.19084 0.69995 0.2098 4.7378 0.20885 2.4427-0.0006 5.1968-0.05929 6.1204-0.13046 0.92356-0.07117 3.4064-0.12668 5.5174-0.12336 2.111 0.0033 4.5277-0.02502 5.3705-0.063 1.3664-0.06158 1.5461-0.09484 1.6598-0.30723 0.12435-0.23232 0.0911-0.23744-1.3524-0.20811-0.81392 0.01654-3.369 0.01944-5.6779 0.0065-2.3561-0.01325-4.8032 0.03453-5.5774 0.10891-0.75865 0.07289-1.8921 0.1135-2.5188 0.09025l-1.1395-0.04227 1.4393-0.02653c1.8376-0.03387 1.9791-0.07152 1.9791-0.52667 0-0.3059 0.0699-0.38295 0.50118-0.55236 0.46889-0.18418 0.48241-0.20211 0.2099-0.27825-0.26501-0.07405-0.26821-0.08246-0.0354-0.09334 0.1475-0.0069 0.28211-0.11226 0.31781-0.24878 0.0593-0.22698-0.0137-0.23834-1.7552-0.27324l-1.8171-0.03642 1.8651-0.02662c1.7798-0.0254 2.153-0.09655 2.153-0.41044 0-0.05278-0.25188-0.09596-0.55974-0.09596-0.30785 0-0.52698-0.03275-0.48696-0.07277 0.04-0.04002 2.6263-0.07857 5.7473-0.08566l5.6745-0.01289-4.4979-0.06644-4.4979-0.06644 6.6868-0.02782c4.3377-0.01805 6.6868-0.06975 6.6868-0.14718 0-0.07819-4.1276-0.13011-11.964-0.15052l-11.964-0.03115 12.033-0.0294c11.404-0.02787 12.031-0.01843 11.993 0.1805-0.0357 0.18618-0.25696 0.2172-1.9579 0.27451-1.0547 0.03554-1.8502 0.07601-1.7677 0.08996 0.0825 0.01394 0.14354 0.06583 0.13573 0.1153-0.0707 0.44764 0.0185 0.50989 0.76385 0.53287l0.74965 0.02311-0.74965 0.04259c-0.64903 0.03687-0.74965 0.07401-0.74965 0.27675 0 0.2171 0.09 0.23416 1.2354 0.23416 1.2262 0 1.5233-0.08656 1.5233-0.44379 0-0.10532-0.20436-0.16313-0.6297-0.17811l-0.6297-0.02219 0.64507-0.04459c0.35479-0.02453 0.72112-0.12064 0.81408-0.2136 0.14539-0.14538-0.0118-0.17441-1.1248-0.20761l-1.2938-0.0386 1.4393-0.02731c0.79163-0.01502 1.5-0.06696 1.5742-0.11543s0.17214-0.26002 0.21771-0.47012c0.10269-0.47347-0.14472-0.75528-0.92457-1.0531-0.51638-0.1972-0.66251-0.1971-2.8647 0.0021-1.5806 0.14296-3.6019 0.21519-6.3387 0.22649l-4.0181 0.01659 4.0181-0.07687c3.409-0.06522 6.0104-0.21198 7.0167-0.39586 0.13194-0.02411-0.75414-0.05118-1.9691-0.06017-1.2149-0.009-2.1774-0.04784-2.1389-0.08636 0.092-0.092 4.5503-0.06833 5.1486 0.02732 0.39569 0.06327 0.45231 0.04555 0.3882-0.12153-0.0483-0.12588-0.23082-0.20203-0.51202-0.21362-0.42342-0.01746-0.42023-0.02041 0.10279-0.09523 0.49617-0.07098 0.45743-0.08393-0.47977-0.1604-1.8042-0.14722-2.8786-0.15787-2.8789-0.02854-0.00012 0.07653 0.5046 0.11787 1.3494 0.11051l1.3496-0.01177-1.3194 0.07616c-0.72565 0.04189-1.4112 0.11943-1.5235 0.17232-0.17766 0.08369-0.17123 0.02867 0.0497-0.42422 0.1652-0.33874 0.27309-0.84229 0.3091-1.4426l0.0553-0.92221-0.4048-0.24679c-0.22264-0.13573-0.32732-0.24699-0.23262-0.24724 0.0947-0.00024 0.29711 0.11691 0.44979 0.26035 0.2131 0.2002 0.28156 0.40226 0.29463 0.86959l0.017 0.6088 0.0729-0.47977 0.0729-0.47977 1.7392 0.02299 1.7392 0.02299-0.38371-0.34568c-0.22864-0.20598-0.7745-0.46913-1.3507-0.65116-2.0499-0.64756-7.4763-1.6316-11.958-2.1685-2.427-0.29075-2.4809-0.30331-2.9658-0.69192-1.063-0.85184-2.148-1.6468-1.6934-1.2406 0.26388 0.23572 0.78796 0.6592 1.1646 0.94106 0.37667 0.28186 0.68702 0.54331 0.68967 0.58099 0.002 0.03769-0.33251 0.02914-0.74482-0.01899-1.2324-0.14386-3.6834-0.22786-3.2085-0.10996 0.38235 0.09491 0.37164 0.09886-0.11994 0.04424-0.29686-0.03299-2.4558-0.08605-4.7977-0.11791-3.7115-0.0505-7.5467 0.05498-9.5355 0.26226l-0.59971 0.06251-1.0113-1.6546c-0.55622-0.91002-1.4112-2.2641-1.9-3.009-0.48878-0.74495-0.86057-1.4277-0.82619-1.5173 0.13341-0.34765 2.0092-0.41585 7.5757-0.27541 1.5709 0.03964 1.8876 0.02983 1.0195-0.03155-4.2475-0.30029-12.354-0.25626-16.012 0.08698l-0.95955 0.09001 0.77963 0.07751c0.4288 0.04264 1.0495 0.07475 1.3794 0.07137l0.59972-0.0062-0.71966-0.07683c-0.39582-0.04225 0.61258-0.06401 2.2409-0.04834 1.811 0.01742 3.0534 0.07816 3.1995 0.1564 0.24765 0.13254 1.3901 1.8809 2.8798 4.407l0.86054 1.4592 0.0413 1.1195c0.0227 0.61574 0.0189 0.77658-0.008 0.35741-0.0473-0.72706-0.0617-0.75763-0.31366-0.66426-0.14526 0.05383-2.5735 0.11509-5.3961 0.13614l-5.132 0.03827-0.11556 0.30396c-0.28938 0.76114-0.29555 0.75828 1.7136 0.79834l1.8291 0.03647-1.8891 0.02662-1.8891 0.02663-0.0263 1.6492-0.0263 1.6492-0.037-1.6471-0.037-1.6471-2.8453-0.03442-2.8453-0.03442 2.9086-0.02771c2.3745-0.02262 2.9086-0.058 2.9086-0.19263 0-0.09071 0.0337-0.33359 0.0749-0.53974l0.0749-0.37482-0.58472-0.01955-0.58473-0.01955 0.65969-0.09022c0.36283-0.04962-1.1117-0.07307-3.2767-0.0521-4.341 0.04205-4.1804 0.07118-3.9221-0.71159 0.16565-0.50195 1.9941-3.2773 2.8886-4.3845 0.34641-0.4288 0.51077-0.67447 0.36525-0.54593-0.14553 0.12853-0.35647 0.24607-0.46875 0.26119-0.31922 0.04299-3.3791 3.3143-4.1738 4.4622-0.0633 0.09152-3.0168 0.62115-4.8462 0.86905-1.3712 0.18581-2.0371 0.32695-2.1679 0.45951-0.2402 0.24339-0.65122 1.1904-0.55738 1.2843 0.039 0.03902 1.0865 0.01288 2.3277-0.05809s3.2057-0.16477 4.3656-0.20842l2.1088-0.07937 0.1608-0.37352c0.0884-0.20543 0.18058-0.40683 0.20474-0.44754 0.0241-0.04072-0.12135-0.10709-0.3234-0.1475-0.52899-0.1058-0.55804-0.35031-0.14162-1.192 0.43451-0.87824 2.1154-3.4424 2.6508-4.0439 0.20554-0.23089 0.0316 0.06597-0.38659 0.65969-1.0971 1.5577-2.2091 3.3677-2.3718 3.8606-0.18425 0.55826-0.0868 0.61242 1.1252 0.62539 0.52777 0.0057 0.98693 0.03762 1.0204 0.07105 0.0334 0.03342-0.24116 0.06077-0.6102 0.06077-0.582 0-0.70394 0.04191-0.91956 0.31604-0.4216 0.53597-0.33669 0.64351 0.50811 0.64351 0.94585 0 1.1718 0.15225 1.0233 0.68968-0.10473 0.37918-0.12558 0.38982-0.76393 0.38982-0.36094 0-0.65626-0.05397-0.65626-0.11994s-0.0871-0.11994-0.19352-0.11994c-0.14681 0-0.18078-0.08687-0.14072-0.35983 0.0558-0.38025-0.0696-0.49094-0.19267-0.1701-0.0401 0.10435-0.0728 0.51496-0.0728 0.91248 0 0.6023 0.0933 0.9305 0.55955 1.9693l0.55955 1.2465 1.6894 0.02631 1.6894 0.02631-1.632 0.03693c-1.6131 0.03651-1.6314 0.04001-1.5811 0.30354 0.0506 0.26533 0.0624 0.26656 2.4716 0.25892 2.2721-0.0072 2.3176-0.0032 0.74153 0.06515l-1.6792 0.07283 1.6316 0.0248c2.2047 0.03352 3.0695-0.06189 3.144-0.34689 0.0522-0.19979-0.0471-0.22316-1.0997-0.25869l-1.1571-0.03906 1.2294-0.0251 1.2294-0.0251 0.0222-0.6297 0.0222-0.6297 0.0441 0.6297 0.0441 0.6297h1.4735c0.81041 0 3.1825 0.0357 5.2712 0.07935l3.7978 0.07935v0.56607 0.56607l-3.6883-0.04696c-2.0285-0.02583-4.4334-0.06613-5.3441-0.08955-1.1837-0.03045-1.6417-0.0045-1.6062 0.09122 0.0274 0.0736 0.12211 0.33621 0.21065 0.5836l0.161 0.44979h5.2249 5.2249l-0.017-2.189-0.017-2.189 0.0756 2.119c0.0415 1.1655 0.10818 2.1517 0.14807 2.1915 0.0399 0.03988 0.19311 0.02791 0.34047-0.0266 0.24704-0.09139 0.2699-0.18272 0.29341-1.172 0.0311-1.3081 0.30217-2.2163 0.89369-2.9941 0.78004-1.0257 2.5344-1.7469 3.8271-1.5733 1.3509 0.1814 2.8752 1.3466 3.5792 2.7359 0.26759 0.52806 0.27904 0.60591 0.11349 0.77147-0.10128 0.10128-0.18414 0.23614-0.18414 0.2997s0.25518 0.74293 0.56707 1.5097l0.56706 1.3942 5.76-0.06214c4.4678-0.0482 5.0873-0.03924 2.7614 0.03995-1.6492 0.05615-4.2642 0.08906-5.811 0.07314l-2.8124-0.02895-0.58191-1.4144c-0.53891-1.3099-0.5711-1.4443-0.43548-1.8194 0.13578-0.37548 0.11657-0.45463-0.26395-1.0879-1.0295-1.7132-2.8806-2.611-4.5652-2.214-1.3497 0.31804-2.3618 1.0606-2.8441 2.0866-0.31434 0.66874-0.52656 1.8711-0.47715 2.7034 0.0381 0.64086 0.0258 0.67215-0.32214 0.82559l-0.36168 0.15948 0.0451 0.89382 0.0451 0.89382-4.6011-0.08028c-2.5306-0.04415-4.6281-0.10731-4.6611-0.14034-0.0329-0.03303 2.0046-0.02464 4.5279 0.01865l4.5878 0.07871v-0.65203c0-1.1327 0.52538-1.0315-5.3519-1.0315h-5.2063l0.185 0.44979c0.10175 0.24738 0.293 0.59822 0.425 0.77963l0.24 0.32984-3.0322-0.02775-3.0322-0.02775 2.889-0.03431 2.889-0.03431-0.34672-0.68759-0.34671-0.68759-3.202-0.06293-3.202-0.06293 3.1485-0.02703c1.7317-0.01487 3.1485-0.06571 3.1485-0.11298s-0.0883-0.31714-0.19621-0.59972l-0.19621-0.51377h-3.1622c-1.9119 0-3.1622 0.04495-3.1622 0.11367 0 0.1847 0.74395 2.2118 0.87167 2.3752 0.0645 0.08246 0.22759 0.14993 0.36244 0.14993s0.21172 0.03347 0.17082 0.07438c-0.15343 0.15343-0.67223-0.08471-0.75059-0.34453-0.10989-0.36437-0.36014-0.94476-0.84027-1.9488-0.22082-0.46178-0.61274-1.3035-0.87092-1.8705-0.56532-1.2415-1.1436-1.9129-2.0145-2.339-1.2508-0.61197-2.4041-0.19844-3.2963 1.182-0.26258 0.40627-0.58503 1.0917-0.71653 1.5233-0.13152 0.43154-0.28037 0.85062-0.33078 0.93128-0.0641 0.10262-0.63878 0.15666-1.9133 0.17992l-1.8216 0.03325 0.28812 0.62155c0.28533 0.61554 0.29729 0.62444 1.2358 0.92093 1.0261 0.32414 2.7308 0.67647 3.2731 0.67647h0.3375l-0.24762-0.68968c-0.44441-1.2377-0.31156-2.977 0.2955-3.869 0.46056-0.67669 0.85022-0.88994 1.5944-0.87252 0.84271 0.01973 1.6022 0.38237 2.165 1.0338 0.49148 0.5688 1.6036 2.7843 2.0724 4.1284 0.26209 0.75147 0.41097 0.98543 0.87832 1.3802l0.56274 0.4754 4.8347 0.16658c2.6591 0.09162 6.0222 0.21216 7.4735 0.26786s3.2233 0.10951 3.9377 0.11957l1.2989 0.01829-0.0653-0.32984zm12.558-2.7585c0.91101-0.02041 2.3683-0.02035 3.2385 0.000117 0.87014 0.02046 0.12476 0.03716-1.6564 0.0371-1.7812-0.000064-2.4931-0.01681-1.5821-0.03721zm-3.088-0.13761c-0.13995-0.22644 0.42962-0.29361 2.691-0.31732l2.3389-0.02452-2.3389 0.08872c-2.6278 0.09967-2.6963 0.1069-2.2789 0.24055l0.29986 0.09603-0.32277 0.01196c-0.17751 0.0066-0.35262-0.03637-0.38912-0.09542zm6.5591-0.46197c0.77514-0.02089 2.0435-0.02089 2.8187 0 0.77514 0.02089 0.14094 0.03799-1.4093 0.03799-1.5503 0-2.1845-0.0171-1.4093-0.03799zm-7.6836-0.36022c0.0364-0.1894 0.2305-0.21035 1.988-0.2145l1.9477-0.0046-1.9192 0.03756c-1.9382 0.03793-2.6213 0.22416-1.1096 0.3025l0.80962 0.04196-0.87839 0.02349c-0.77888 0.02083-0.87382-0.00024-0.83808-0.18641zm1.9064 0.04655c0.0275-0.02388 2.7487-0.06748 6.0472-0.09689 3.2984-0.02942 5.0526-0.01646 3.8982 0.0288-2.2355 0.08763-10.029 0.141-9.9453 0.0681zm6.7668-1.4009c-2.7047-0.04174-5.0279-0.115-5.1625-0.16281-0.13466-0.04781-0.91729-0.12963-1.7392-0.18184-1.0558-0.06706 0.37146-0.10115 4.8626-0.11615 6.1726-0.02061 7.0993-0.08366 5.2067-0.3542l-0.7688-0.1099 0.79962-0.0148c0.48727-0.009 0.8168 0.03671 0.84359 0.11708 0.0241 0.07253 0.31204 0.20383 0.63969 0.29176 0.5244 0.14074-0.0291 0.16265-4.6218 0.18299-3.0598 0.01355-4.9943 0.06283-4.6778 0.11915 0.29686 0.05282 2.5368 0.10643 4.9777 0.11912 2.4408 0.0127 4.5998 0.06428 4.7977 0.11464 0.30859 0.07852 0.31713 0.09009 0.06 0.08121-0.16492-0.0057-2.5128-0.04451-5.2175-0.08624zm7.054-0.32459c0.97707-0.02018 2.5423-0.02013 3.4784 0.000103 0.93602 0.02024 0.13659 0.03676-1.7765 0.03669-1.9131-0.000056-2.6789-0.01662-1.7018-0.0368zm-14.94-0.35955c0.67619-0.02138 1.7827-0.02138 2.4588 0 0.67618 0.02138 0.12294 0.03887-1.2294 0.03887-1.3524 0-1.9056-0.01749-1.2294-0.03887zm14.063-0.03048c-0.62671-0.03298-1.2069-0.10364-1.2894-0.15701-0.17654-0.11426-0.20281-0.56265-0.0329-0.56265 0.076 0 0.076-0.10776 0-0.30767-0.15059-0.39608-0.15287-0.38502 0.0929-0.44926 0.19991-0.05224 0.19991-0.05552 0-0.06877-0.13841-0.0092-0.2099-0.11304-0.2099-0.30498 0-0.17634 0.0827-0.31268 0.2099-0.34592 0.19991-0.05224 0.19991-0.05552 0-0.06877-0.24595-0.0163-0.27182-0.24469-0.06-0.52936 0.13215-0.17757 0.5127-0.20613 3.2085-0.24082 3.525-0.04536 5.6885 0.03978 5.8801 0.2314 0.0735 0.07353 0.14878 0.2082 0.16723 0.29929 0.0185 0.09108 0.0746 0.26048 0.12482 0.37643 0.0548 0.12652-0.0184 0.54529-0.18291 1.0472-0.24612 0.75075-0.31576 0.85006-0.68041 0.97041-0.43236 0.14269-5.2243 0.21594-7.2279 0.11049zm2.6063-2.3514c-0.0399-0.03985-0.14331-0.04411-0.22989-0.0095-0.0957 0.03829-0.0673 0.06671 0.0724 0.07246 0.12645 0.0052 0.19729-0.02314 0.15743-0.06299zm-10.965 2.2617c0.84495-0.02065 2.1943-0.02059 2.9986 0.00012 0.80428 0.02072 0.11296 0.03761-1.5363 0.03754-1.6492-0.000073-2.3073-0.01702-1.4623-0.03767zm-2.7957-0.1871c0-0.24518 0.90182-1.9122 1.1154-2.0618 0.18188-0.12739 0.56833-0.18028 1.3173-0.18028 0.68923 0 1.0335-0.04274 0.98434-0.12222-0.11333-0.18339-1.108-0.66022-1.8862-0.90428-0.37852-0.1187-0.66538-0.23865-0.63748-0.26656 0.13995-0.13995 2.0798 0.66048 2.5028 1.0327 0.18746 0.16497 0.56589 0.18637 2.7369 0.15476 2.9966-0.04363 2.9828-0.04866 2.9828 1.0838 0 1.1924 0.0322 1.1808-3.2685 1.1813-1.5338 0.00024-3.4769 0.03558-4.318 0.07848s-1.5293 0.04474-1.5293 0.0041zm1.5665-1.1118 0.42705-0.90211-0.42705 0.03587c-0.395 0.03318-0.4561 0.09439-0.81404 0.8155-0.21283 0.4288-0.38826 0.82011-0.38982 0.86959-0.002 0.04948 0.1726 0.08845 0.38699 0.08661 0.36647-0.0031 0.4154-0.05739 0.81687-0.90546zm2.322 0.07552c0.10424-0.45831 0.18953-0.89011 0.18953-0.95955 0-0.14379-1.5451-0.17429-1.7455-0.03446-0.16955 0.11832-0.58715 0.82373-0.81549 1.3775l-0.18546 0.44979h1.1837 1.1837l0.18953-0.8333zm4.8767 0.6476c0.0609-0.03759 0.11059-0.4141 0.11059-0.83668 0-0.6403-0.0392-0.7893-0.23504-0.89412-0.15498-0.08294-0.92777-0.09856-2.2687-0.04584l-2.0337 0.07995-0.24107 0.95994-0.24108 0.95994 2.3992-0.07742c1.3196-0.04258 2.449-0.10818 2.5098-0.14577zm0.44043 0.29664c0.0996-0.10553 0.14993-0.56593 0.14993-1.3704 0-1.229 0.0888-1.5083 0.47378-1.4909 0.12836 0.0058 0.11164 0.0373-0.054 0.10169-0.21494 0.08356-0.24613 0.2345-0.29986 1.4512-0.0471 1.0662-0.0986 1.3697-0.23989 1.4126-0.1452 0.04408-0.15099 0.02396-0.03-0.1043zm-22.603-1.7902c0-0.36283 0.0225-0.51126 0.05-0.32984 0.0275 0.18141 0.0275 0.47827 0 0.65969-0.0275 0.18141-0.05 0.03298-0.05-0.32984zm-10.153-0.95826c-0.12211-0.12339-0.29753-0.19537-0.38982-0.15995-0.0992 0.03808-0.16779-0.01148-0.16779-0.12128 0-0.27517 0.22937-0.3668 0.32093-0.12821 0.07 0.18251 0.0906 0.17637 0.1752-0.05237 0.0849-0.22949 0.18591-0.25913 0.88311-0.25913 0.85596 0 0.98991 0.10396 0.85036 0.65996-0.0696 0.27704-0.12693 0.29905-0.76258 0.29246-0.50566-0.0053-0.74609-0.06644-0.90941-0.23147zm1.6014-0.36112c0-0.21483-0.08-0.23989-0.76564-0.23989-0.66477 0-0.77391 0.03161-0.82838 0.23989-0.0583 0.22279-0.004 0.23989 0.76564 0.23989 0.74842 0 0.82838-0.02316 0.82838-0.23989zm8.6662 0.17992c0.002-0.26388 0.0259-0.3577 0.0546-0.2085s0.0276 0.3651-0.002 0.47977c-0.03 0.11468-0.0535-0.0074-0.0521-0.27127zm24.108-0.02897c0.44529-0.02308 1.174-0.02308 1.6192 0 0.44529 0.02308 0.081 0.04196-0.80962 0.04196-0.89058 0-1.2549-0.01888-0.80962-0.04196zm4.9834-0.00036c0.54738-0.02228 1.411-0.02215 1.9191 0.00024 0.50813 0.02243 0.0603 0.04065-0.99522 0.0405-1.0555-0.00012-1.4712-0.0185-0.92387-0.04077zm-2.1625-0.11754c0.21558-0.02669 0.53943-0.02615 0.71966 0.0012 0.18024 0.02737 0.004 0.04921-0.39196 0.04854-0.39582-0.00072-0.54328-0.02306-0.3277-0.04976zm-0.29712-0.40536c-0.70486-0.32418-2.9356-0.86793-5.5523-1.3534-1.2204-0.22642-2.0989-0.41654-1.9521-0.42247 0.3992-0.01615 4.6051 0.79356 5.9074 1.1373 0.99835 0.2635 2.5487 0.87116 2.2218 0.87086-0.066-0.000059-0.34714-0.10459-0.62482-0.2323zm-14.248-0.34991c-0.72566-0.18418-1.2212-0.3399-1.1012-0.34606 0.22717-0.01166 2.6218 0.56983 2.7101 0.65808 0.0971 0.09715-0.30075 0.01997-1.6088-0.31202zm-17.954 0.03278c0.94404-0.02029 2.4553-0.02024 3.3584 0.000111 0.90308 0.02035 0.13068 0.03695-1.7164 0.03689s-2.586-0.01671-1.642-0.037zm15.795-0.50999c-0.32322-0.08224-0.32932-0.09179-0.06-0.0938 0.16493-0.0012 0.4348 0.04098 0.59972 0.0938 0.23497 0.07525 0.24795 0.09555 0.06 0.0938-0.13193-0.0012-0.40181-0.04343-0.59971-0.0938zm-1.3194-0.23989c-0.32097-0.08167-0.32745-0.09156-0.06-0.09156 0.16492 0 0.46178 0.0412 0.65968 0.09156 0.32097 0.08167 0.32745 0.09156 0.06 0.09156-0.16493 0-0.46179-0.0412-0.65969-0.09156zm-24.438-0.20931c0.61021-0.02177 1.6087-0.02177 2.219 0 0.61022 0.02177 0.11095 0.03958-1.1095 0.03958s-1.7197-0.01781-1.1095-0.03958zm21.928-0.1682c-0.78727-0.1249-2.1096-0.30095-2.9386-0.39123-0.82896-0.09027-1.2811-0.17014-1.0048-0.17747 0.56024-0.01487 3.8051 0.38246 5.195 0.63613 1.3419 0.24491 0.39601 0.19395-1.2515-0.06743zm10.907-0.52406c-0.46178-0.08222-0.67768-0.15257-0.47977-0.15634 0.1979-0.0038 0.73765 0.06475 1.1994 0.15225 0.46178 0.0875 0.67768 0.15785 0.47977 0.15634-0.1979-0.0015-0.73765-0.07003-1.1994-0.15225zm-24.139-6.5036c0.37932-0.02381 1-0.02381 1.3794 0 0.37932 0.0238 0.069 0.04327-0.68968 0.04327-0.75864 0-1.069-0.01948-0.68967-0.04327zm9.8929 16.913c-0.026-0.24885-0.0477-0.07464-0.0482 0.38714-0.00048 0.46178 0.0207 0.66539 0.0472 0.45246s0.0269-0.59075 0.0008-0.8396zm-22.195 0.30468c-0.0383-0.09568-0.0667-0.06726-0.0724 0.07247-0.006 0.12644 0.0231 0.19728 0.063 0.15743 0.0398-0.03986 0.0441-0.14331 0.009-0.22989zm-3.3609-0.48727c-0.0333-0.08246-0.0605-0.01499-0.0605 0.14993s0.0273 0.23239 0.0605 0.14993c0.0333-0.08246 0.0333-0.2174 0-0.29986zm53.895 0.04858c0-0.22815 0.28347-0.53688 0.59971-0.65316 0.11372-0.04181 0.0754-0.06964-0.10411-0.07562-0.15621-0.0052-0.45823 0.13896-0.67116 0.32038-0.21293 0.18141-0.48992 0.39414-0.61555 0.47272-0.19874 0.12431-0.16219 0.14379 0.28135 0.14993 0.41807 0.0058 0.50976-0.03275 0.50976-0.21424zm3.2298-0.01238c0.1805-0.12852 0.62063-0.34894 0.97807-0.48982s0.67238-0.2786 0.69986-0.30606c0.0275-0.02746-0.44479-0.04993-1.0495-0.04993h-1.0995v0.41384c0 0.2676-0.0742 0.45704-0.2099 0.5361-0.18566 0.10814-0.17742 0.12268 0.0714 0.1259 0.15474 0.002 0.42902-0.10151 0.60951-0.23003zm-53.764-0.513c-0.0383-0.09568-0.0667-0.06726-0.0724 0.07247-0.006 0.12644 0.0231 0.19728 0.063 0.15743 0.0398-0.03986 0.0441-0.14331 0.009-0.22989zm22.381 0.01773c-0.0352-0.13456-0.0908-0.21784-0.12354-0.18509-0.0649 0.06489 0.0497 0.42973 0.135 0.42973 0.0289 0 0.0237-0.11009-0.0114-0.24464zm29.114-0.44503c0.0008-0.04948 0.034-0.21068 0.0736-0.35824l0.0719-0.26828-4.1216-0.03321-4.1216-0.0332 4.2133-0.02836c3.5748-0.02406 4.2359-0.05562 4.3626-0.20827 0.13226-0.15937-0.35236-0.17992-4.2433-0.17992h-4.3926v0.59972 0.59972h4.0781c2.2429 0 4.0788-0.04048 4.0797-0.08996zm-49.989-1.8855c0.0311-0.16292 0.0174-0.27199-0.0306-0.24236s-0.11619-0.1626-0.15168-0.42717c-0.0355-0.26457-0.31806-1.0491-0.62794-1.7434-0.53615-1.2012-0.56125-1.3056-0.51835-2.1552l0.0451-0.89288-0.66202 0.0016c-0.36411 0.00088-1.7145 0.05286-3.0009 0.11548-4.7476 0.2311-5.1576 0.26513-5.1576 0.42805 0 0.08498 0.0645 0.17599 0.14321 0.20224 0.19123 0.06374 0.13523 2.5131-0.0602 2.6338-0.17048 0.10536-0.0846 0.1324 1.2739 0.40136 0.58139 0.1151 1.1746 0.30442 1.3182 0.42071 0.25951 0.21014 0.26344 0.20644 0.63647-0.5989 0.90844-1.9613 2.3261-2.7033 3.8251-2.0022 1.0393 0.48611 1.793 1.5013 2.5727 3.4654 0.1506 0.37932 0.28823 0.68968 0.30587 0.68968 0.0176 0 0.0576-0.1333 0.0887-0.29623zm17.123-0.28866v-0.46495l-5.2064-0.08874c-2.8635-0.04881-5.2654-0.05229-5.3375-0.0078-0.0721 0.04455-0.13106 0.15878-0.13106 0.25384 0 0.1443 0.41097 0.17611 2.4888 0.19266l2.4888 0.01983-2.4344 0.11454c-1.3389 0.06299-2.4005 0.14853-2.359 0.19007s2.0815 0.10493 4.5334 0.14086 4.7954 0.07641 5.2077 0.08996l0.74965 0.02463v-0.46495zm-4.6778 0.22771-3.6583-0.06262 2.2789-0.08962c1.2534-0.04929 3.102-0.08977 4.1081-0.08996 1.5461-0.00024 1.8291 0.0275 1.8291 0.17958 0 0.1328-0.11779 0.17276-0.44979 0.15258-0.24737-0.01503-2.096-0.05552-4.1081-0.08996zm4.2894-0.08506c-0.11467-0.03002-0.33057-0.03111-0.47977-0.0024-0.14921 0.02869-0.0554 0.05326 0.2085 0.05458 0.26387 0.0014 0.38594-0.02214 0.27127-0.05216zm-24.084-0.15c0.31823-0.59462 0.27604-0.6076-1.9748-0.6076-1.6879 0-2.099 0.03189-2.099 0.16283 0 0.20219 0.98348 0.31695 2.7163 0.31695 2.0267 0 1.4773 0.22927-0.64729 0.2701l-1.8891 0.0363 1.8849 0.02671c1.7557 0.02488 1.8934 0.01082 2.009-0.20529zm13.738 0.17234c-0.29311-0.09952-6.1771-0.14483-6.1771-0.04757 0 0.06054 1.3712 0.10311 3.1485 0.09777 1.7317-0.0052 3.0946-0.0278 3.0286-0.05019zm-13.734-0.955c0-0.13582-0.52362-0.30811-1.6123-0.53051l-1.1729-0.23961-0.46414 0.293c-0.25527 0.16115-0.51599 0.29299-0.57938 0.29299-0.0634 0-0.1486 0.05397-0.18937 0.11994-0.0483 0.07817 0.63845 0.11994 1.972 0.11994 1.1254 0 2.0461-0.02509 2.0461-0.05575zm60.737-1.399c0.0413-0.20615 0.0749-0.60375 0.0749-0.88354v-0.50872l-1.2294-0.06166c-1.3475-0.06758-1.5293-0.0062-1.5293 0.51624 0 0.18554-0.0562 0.48509-0.12483 0.66569-0.22737 0.59802-0.12436 0.64681 1.3655 0.64681h1.3681l0.0749-0.37482zm0.67468-0.52475c0-0.80728-0.0237-0.89958-0.23041-0.89958-0.20327 0-0.23506 0.10599-0.26987 0.89986-0.0379 0.86498-0.029 0.89984 0.23041 0.89958 0.25585-0.00024 0.26987-0.04701 0.26987-0.89986zm-53.34-2.099c0.0583-0.22279 0.004-0.23989-0.76563-0.23989-0.74842 0-0.82838 0.02316-0.82838 0.23989 0 0.21483 0.08 0.23989 0.76565 0.23989 0.66476 0 0.7739-0.03161 0.82836-0.23989zm16.661-2.0254c0.1313-0.14009 0.10864-0.15055-0.14403-0.06651-0.16492 0.05485-2.5668 0.1322-5.3375 0.17187l-5.0376 0.07213 5.1816-0.0056c4.2563-0.0046 5.2095-0.03531 5.3375-0.17187zm-0.92825-2.566c-2.2839-3.8095-2.4859-4.0634-3.2096-4.0337-0.2014 0.0082-0.17375 0.03701 0.1163 0.12096 0.58221 0.16853 1.1685 0.94699 2.738 3.6355 0.79162 1.356 1.4578 2.4109 1.4805 2.3442 0.0226-0.06674-0.48372-0.99683-1.1252-2.0669zm8.7946 1.1729c0.0364-0.03007-0.55342-1.3481-1.1137-2.4887-0.33864-0.68942-0.45722-0.80026-0.6033-0.56391-0.0534 0.08638-0.12932 0.08295-0.24248-0.01096-0.0906-0.0752-0.50412-0.16498-0.91888-0.19951-0.45702-0.03804-0.80981-0.13263-0.89546-0.24008-0.12237-0.15353-0.32074-0.1575-1.479-0.02959-1.2408 0.13702-1.3331 0.16493-1.2754 0.38558 0.0342 0.13083 0.159 0.77105 0.27732 1.4227l0.2151 1.1848 1.5615 0.0017c1.8298 0.0019 2.0274 0.04083 2.2068 0.43457 0.13292 0.29171 0.1498 0.29476 1.1841 0.21378 0.57708-0.04518 1.0646-0.09484 1.0834-0.11037zm8.5978-0.61469c-3.6362-2.6869-4.4403-3.045-7.2526-3.2295l-1.2594-0.08266 0.32985 0.35083c0.23776 0.25289 0.32984 0.47531 0.32984 0.79672 0 0.2825 0.18091 0.8075 0.49372 1.4328 0.27155 0.54278 0.50462 0.99955 0.51794 1.015 0.0134 0.0155 0.23436-0.07896 0.49119-0.2099 0.77407-0.39464 1.8344-0.23146 2.2378 0.34436 0.18555 0.2649 0.41879 0.28611 3.8718 0.35201l1.3154 0.0251-1.0755-0.79473zm-30.543 0.42502c0.14643-0.23448 0.24177-0.247 1.5581-0.20455 0.77118 0.02487 1.4763 0.06979 1.5669 0.09984 0.11784 0.03907 0.20823-0.15209 0.31751-0.67147 0.084-0.39935 0.29731-1.128 0.47396-1.6192 0.17665-0.49123 0.35043-0.9876 0.38615-1.103 0.0596-0.1924-0.0637-0.2099-1.4791-0.2099-2.6038 0-2.737 0.09698-3.9543 2.8786-0.44352 1.0135-0.42442 1.055 0.49384 1.0711 0.36309 0.0064 0.51912-0.05276 0.63689-0.24134zm25.81-0.11006c-0.23489-0.1518-0.39368-0.1518-0.29986 0 0.0408 0.06597 0.16541 0.11912 0.27695 0.11811 0.17479-0.0016 0.17796-0.0179 0.0229-0.11811zm-14.04-0.56973c0.20517-0.7388 0.14847-1.0815-0.31118-1.8807l-0.43744-0.76056-0.79198-0.07c-2.4256-0.21438-3.2762-0.23044-3.3817-0.06384-0.16289 0.25721-0.12829 0.685 0.0813 1.0048 0.10464 0.1597 0.15571 0.34625 0.11349 0.41456-0.0422 0.06831 0.014 0.43501 0.12497 0.81489 0.11095 0.37988 0.2201 0.75816 0.24257 0.84062 0.0307 0.11267 0.56202 0.14993 2.138 0.14993h2.0971l0.12491-0.44979zm-5.5957-0.60312c0.10157-1.0114 0.0945-1.6061-0.0182-1.5364-0.0605 0.03741-0.22757 0.51387-0.3712 1.0588s-0.2874 1.0825-0.31947 1.1946c-0.0535 0.18675-0.0286 0.18897 0.29686 0.02658 0.3018-0.15056 0.36372-0.26229 0.41206-0.74352zm25.753 0.40791c0-0.02491-0.0944-0.11936-0.2099-0.2099-0.19024-0.14919-0.19448-0.14495-0.0453 0.04528 0.15668 0.1998 0.25518 0.26333 0.25518 0.16462zm-2.3989-1.7992c0-0.02491-0.0944-0.11936-0.2099-0.2099-0.19024-0.14919-0.19448-0.14495-0.0453 0.04528 0.15669 0.1998 0.25518 0.26333 0.25518 0.16462zm-0.89846-0.67257c-0.0852-0.13788-1.675-1.0815-1.8212-1.0809-0.0792 0.00036 1.7219 1.1537 1.8571 1.1893 0.0204 0.0054 0.004-0.0434-0.036-0.10837zm-28.4-1.0338c-0.0398-0.03985-0.14331-0.04411-0.2299-0.0095-0.0957 0.03829-0.0672 0.06671 0.0725 0.07246 0.12644 0.0052 0.19728-0.02314 0.15743-0.063zm0.78212-0.12691c-0.0824-0.03327-0.21739-0.03327-0.29986 0-0.0824 0.03327-0.0149 0.0605 0.14993 0.0605 0.16493 0 0.2324-0.02723 0.14993-0.0605zm25.518-0.04051c-0.099-0.06395-0.26087-0.1133-0.35983-0.10968-0.11863 0.0043-0.0982 0.04171 0.06 0.10968 0.32974 0.14169 0.51912 0.14169 0.29986 0zm-23.329-0.17334c0.72566-0.08667 1.1035-0.16456 0.8396-0.17308-0.26387-0.0085-0.74964-0.03581-1.0795-0.06063-0.5227-0.03934-0.5458-0.03241-0.17991 0.05401 0.3177 0.07503 0.21561 0.0894-0.4198 0.05907-0.57584-0.02748-0.7454-0.0078-0.53975 0.06287 0.24672 0.0847 0.21131 0.09797-0.19981 0.07486-0.27482-0.01545-0.47404 0.01338-0.44271 0.06408 0.0754 0.12206 0.4442 0.10726 2.0219-0.08118zm22.16-0.14598c-0.0824-0.03327-0.21739-0.03327-0.29985 0-0.0825 0.03327-0.015 0.0605 0.14992 0.0605 0.16493 0 0.2324-0.02723 0.14993-0.0605zm-0.8396-0.12516c-0.14843-0.02859-0.39131-0.02859-0.53975 0-0.14842 0.02859-0.0269 0.05198 0.26988 0.05198 0.29686 0 0.4183-0.02339 0.26987-0.05198zm-1.502-0.12283c-0.24886-0.02596-0.62668-0.02553-0.83961 0.00096-0.21293 0.0265-0.009 0.04774 0.45246 0.04721 0.46178-0.000527 0.636-0.02221 0.38715-0.04818z"/>
 </g>
</svg>
