<?xml version="1.0" encoding="UTF-8" standalone="no"?>
<!-- Created with Inkscape (http://www.inkscape.org/) -->
<svg id="svg2" xmlns:rdf="http://www.w3.org/1999/02/22-rdf-syntax-ns#" xmlns="http://www.w3.org/2000/svg" height="54" width="99" version="1.1" xmlns:cc="http://creativecommons.org/ns#" xmlns:dc="http://purl.org/dc/elements/1.1/">
 <metadata id="metadata7">
  <rdf:RDF>
   <cc:Work rdf:about="">
    <dc:format>image/svg+xml</dc:format>
    <dc:type rdf:resource="http://purl.org/dc/dcmitype/StillImage"/>
    <dc:title/>
   </cc:Work>
  </rdf:RDF>
 </metadata>
 <g id="g17248">
  <rect id="rect2990" opacity="0" height="54" width="99" y="0" x="0"/>
  <path id="path75953" fill="#fff" d="m11.149 34.093c-1.913-0.265-3.774-0.796-4.6903-1.12-0.7046-0.248-0.829-0.953-1.3678-2.072 0 0-0.45592-0.53875-0.45592-0.99467 0-1.0361 0.58034-0.91184 0.58034-0.91184l0.91184-0.49734s0.24867-0.16584 0.20725-0.49734c-0.041415-0.33168-0.082829-3.3571 0.041415-3.813 0.12424-0.45592 0.82883-2.0309 0.82883-2.0309 0.24867-0.53875 0.746-0.49734 1.2019-0.53875 0.45592-0.04142 6.4241-0.82883 8.4135-1.4506 1.8235-2.4449 4.9319-5.6778 5.9264-6.2993 0.99503-0.62176 3.3168-1.3678 7.0046-1.6993 3.6886-0.33168 8.2062-0.45592 12.061-0.45592 3.8546 0 13.677 0.45592 15.501 0.70459 1.8235 0.24867 2.7018 0.53696 4.0617 1.2849 1.6578 0.91184 9.4497 7.0043 9.4497 7.0043 8.4135 0.82901 18.224 2.6733 20.225 3.6472 1.5334 0.746 1.2641 1.2225 1.2641 1.2225s0.10363 2.176-0.08283 2.6111c-0.18646 0.43512-0.39371 0.7668 0.31088 1.0569 0.70459 0.29008 1.4506 0.49734 1.6993 0.82901 0.24867 0.3315 0.08283 1.492-0.12424 1.5748-0.20725 0.08283-1.0777 0.45592-1.1605 0.95326-0.08283 0.49734 0 0.66317-0.49734 0.95326-0.49734 0.29008-2.1966 0.746-2.8184 1.3676 0 0-0.08283 0.87043-0.53875 0.91184-0.27897 0.02546-1.504 0.11277-2.4132 0.17678l0.12335-0.14576s-5.6365-0.04141-7.7089-0.04141-4.7663 0.12424-7.0043 0.29008-9.574 0.16584-13.097 0.12424c0 0-0.91184 0.04142-1.2019-0.58016-0.29008-0.62158-1.1605-1.1191-1.575-1.9893-0.41451-0.87043-0.70459-2.4038-1.5334-4.1861-0.11725-0.25207-1.4506-3.1499-5.3464-3.1499-3.8959 0-4.8491 4.5176-4.3932 6.2583 0 0-0.08283 1.3262 0.29008 2.6525-0.08283 0.53875 0.08283 1.6994 0.08283 1.6994l-23.462-0.833s-0.78742-0.746-1.1191-0.99467c-0.3315-0.24867-0.49734-0.41451-0.66317-1.1605-0.16566-0.74582-1.0775-2.7359-1.9479-4.4764-0.87025-1.7407-2.155-2.7768-4.0201-2.7768s-2.6525 2.2796-2.6525 4.1031c0 1.8237 0.70459 3.0256 0.70459 3.0256l-0.08283 0.37291-0.82901-0.12424-0.10721 0.01112z"/>
  <path id="path75955" d="m58.752 38.407s-0.91184 4.0203-5.3464 4.0203h-2.5691c-3.6886 0-5.2634-4.5176-5.2634-4.5176s-0.62176 2.5283-3.4401 2.5283h-1.7407c-2.8184 0-3.6058-3.3987-3.6058-3.3987h-0.43512l-0.14504 0.08283-5.9682 0.0208s-0.20725 0.20725-0.746 0.20725-0.91184-0.12424-0.91184-0.12424l-6.8386 0.04142s-0.49734 3.7302-3.3157 3.7302h-2.1532c-2.1138 0-4.0203-1.7821-4.0617-6.507l-0.45574 0.45574c-0.37309 0.33168-1.6164 0.12442-1.3263-0.16566l0.82901-0.70459 0.82901 0.12442 0.08283-0.37309s-0.70459-1.2019-0.70459-3.0256c0-1.8235 0.7876-4.1031 2.6525-4.1031s3.1497 1.0361 4.0201 2.7768c0.87025 1.7407 1.7821 3.7302 1.9479 4.4762 0.16584 0.746 0.33168 0.91184 0.66317 1.1605 0.33168 0.24867 1.1191 0.99467 1.1191 0.99467l23.458 0.82901s-0.16584-1.1605-0.08283-1.6993c-0.37309-1.3263-0.29008-2.6525-0.29008-2.6525-0.45592-1.7407 0.49734-6.2583 4.3932-6.2583s5.2292 2.8978 5.3464 3.1499c0.82901 1.7821 1.1191 3.3157 1.5334 4.1861 0.41451 0.87025 1.2849 1.3676 1.575 1.9893 0.29008 0.62176 1.2019 0.58016 1.2019 0.58016 3.5228 0.04142 10.859 0.04142 13.097-0.12424s4.9321-0.29008 7.0043-0.29008 7.7089 0.04141 7.7089 0.04141-0.49734 0.70459-0.70459 1.0361c-0.20725 0.33168-0.53875 0.24867-0.87025 0.33168-0.33168 0.08283-1.0777 0.24867-1.0777 0.24867s-0.95326 3.9373-5.0564 3.9373h-2.4453c-3.3571 0-4.7249-3.2741-4.7249-3.2741l-5.2222 0.08283-0.29008 0.08283-0.70459-0.16566v-0.16584l-0.45592 0.12424c-0.16566 0.12424-0.37291 0.12424-0.53875 0.04141s-0.58016-0.04141-0.746 0c-0.16584 0.04142-0.70459 0.37309-0.87043 0.3315-0.16566-0.04142-0.3315-0.16584-0.62158-0.08283s-3.7302 0.02062-3.7302 0.02062z"/>
  <path id="path75957" d="m74.793 24.709c-0.53875 0.04142-0.49734 0.16584-0.45592 0.66317 0.04141 0.49734 0.04141 1.9895-0.04142 2.4038-0.08283 0.41433-0.04142 0.78742 0.53875 0.87025 0.58016 0.08283 3.9787 0.12442 6.8386 0.12442 2.8598 0 4.1031-0.12442 4.4346-0.24867 0.3315-0.12424 0.87025-1.6993 0.87025-2.4038 0-0.70459-0.3315-1.1191-0.3315-1.1191-0.16584-0.20725-0.41451-0.29008-0.87043-0.29008s-2.3208-0.12424-4.8905-0.12424c-2.5695 0-6.0924 0.12424-6.0924 0.12424z"/>
  <g stroke="#fff" stroke-width=".089642" fill="none">
   <path id="path75959" d="m74.275 25.704s3.5436-0.12442 6.735-0.12442h5.9682"/>
   <path id="path75961" d="m74.305 26.658s3.8026-0.08283 6.7454-0.04141c2.9426 0.04141 5.9268 0 5.9268 0"/>
   <path id="path75963" d="m74.212 27.569s4.0006 0.24813 7.2323 0.16584c3.2535-0.08283 5.2428-0.12442 5.2428-0.12442"/>
   <path id="path75965" d="m74.311 24.833c0.22124 0.82955 0.27646 1.7561-0.06616 3.0503"/>
   <path id="path75967" d="m74.501 24.7c0.28417 0.97764 0.35032 2.0727-0.19506 3.7433"/>
   <path id="path75969" d="m74.716 24.659c0.3055 1.0257 0.37542 2.1742-0.24867 3.9801"/>
   <path id="path75971" d="m74.942 24.651c0.31034 1.0375 0.38044 2.1995-0.26498 4.0402"/>
   <path id="path75973" d="m75.171 24.651c0.31196 1.0425 0.38116 2.2111-0.27466 4.0678"/>
   <path id="path75975" d="m75.397 24.646c0.31446 1.0479 0.38421 2.2222-0.28076 4.0945"/>
   <path id="path75977" d="m75.621 24.637c0.31715 1.051 0.38923 2.2274-0.27915 4.1072"/>
   <path id="path75979" d="m75.845 24.624c0.31984 1.0529 0.39532 2.2298-0.27305 4.1131"/>
   <path id="path75981" d="m76.068 24.603c0.32558 1.0592 0.4068 2.24-0.26749 4.1382"/>
   <path id="path75983" d="m76.302 24.627c0.32056 1.0569 0.39461 2.2389-0.28273 4.1352"/>
   <path id="path75985" d="m76.527 24.615c0.32343 1.0594 0.40088 2.2425-0.27789 4.1443"/>
   <path id="path75987" d="m76.749 24.596c0.33257 1.0779 0.41271 2.2805-0.29887 4.2372"/>
   <path id="path75989" d="m76.977 24.593c0.33329 1.0786 0.41433 2.2818-0.29779 4.2403"/>
   <path id="path75991" d="m77.201 24.584c0.3358 1.0811 0.41935 2.2855-0.29492 4.2498"/>
   <path id="path75993" d="m77.432 24.593c0.33329 1.0786 0.41433 2.2818-0.29779 4.2403"/>
   <path id="path75995" d="m77.654 24.574c0.33813 1.0834 0.42437 2.2893-0.29188 4.2591"/>
   <path id="path75997" d="m77.882 24.574c0.33813 1.0834 0.42437 2.2893-0.29188 4.2591"/>
   <path id="path75999" d="m78.11 24.571c0.33903 1.0843 0.42598 2.2904-0.29116 4.2621"/>
   <path id="path76001" d="m78.334 24.562c0.34154 1.0868 0.431 2.2941-0.28811 4.2716"/>
   <path id="path76003" d="m78.561 24.562c0.34154 1.0868 0.431 2.2941-0.28811 4.2716"/>
   <path id="path76005" d="m78.787 24.552c0.34387 1.0892 0.43602 2.2977-0.28506 4.281"/>
   <path id="path76007" d="m79.019 24.565c0.34064 1.0859 0.42939 2.2929-0.28901 4.2686"/>
   <path id="path76009" d="m79.244 24.555c0.34315 1.0884 0.43441 2.2966-0.28614 4.2781"/>
   <path id="path76011" d="m79.47 24.552c0.34387 1.0892 0.43602 2.2977-0.28506 4.281"/>
   <path id="path76013" d="m79.696 24.543c0.34638 1.0917 0.44104 2.3015-0.28219 4.2905"/>
   <path id="path76015" d="m79.928 24.555c0.34315 1.0884 0.43441 2.2966-0.28614 4.2781"/>
   <path id="path76017" d="m80.152 24.543c0.34638 1.0917 0.44104 2.3015-0.28219 4.2905"/>
   <path id="path76019" d="m80.379 24.543c0.34638 1.0917 0.44122 2.3015-0.28202 4.2905"/>
   <path id="path76021" d="m80.609 24.546c0.34548 1.0908 0.43943 2.3004-0.28309 4.2874"/>
   <path id="path76023" d="m80.837 24.546c0.34566 1.0908 0.43961 2.3004-0.28309 4.2874"/>
   <path id="path76025" d="m81.061 24.534c0.34871 1.0942 0.44624 2.3052-0.27915 4.2998"/>
   <path id="path76027" d="m81.29 24.537c0.34799 1.0933 0.44445 2.304-0.28022 4.2967"/>
   <path id="path76029" d="m81.523 24.555c0.34315 1.0884 0.43441 2.2966-0.28614 4.2781"/>
   <path id="path76031" d="m81.751 24.552c0.34387 1.0892 0.43602 2.2977-0.28524 4.281"/>
   <path id="path76033" d="m81.979 24.552c0.34387 1.0892 0.43602 2.2977-0.28506 4.281"/>
   <path id="path76035" d="m82.208 24.555c0.34315 1.0884 0.43441 2.2966-0.28614 4.2781"/>
   <path id="path76037" d="m82.434 24.552c0.34387 1.0892 0.43602 2.2977-0.28506 4.281"/>
   <path id="path76039" d="m82.662 24.552c0.34387 1.0892 0.43602 2.2977-0.28506 4.281"/>
   <path id="path76041" d="m82.893 24.562c0.34136 1.0868 0.431 2.2941-0.28811 4.2716"/>
   <path id="path76043" d="m83.124 24.571c0.33903 1.0843 0.4258 2.2904-0.29116 4.2621"/>
   <path id="path76045" d="m83.35 24.565c0.34064 1.0859 0.42939 2.293-0.28901 4.2686"/>
   <path id="path76047" d="m83.581 24.574c0.33831 1.0834 0.42437 2.2893-0.29188 4.2591"/>
   <path id="path76049" d="m83.813 24.584c0.3358 1.0811 0.41935 2.2855-0.29492 4.2498"/>
   <path id="path76051" d="m84.044 24.596c0.33239 1.0779 0.41271 2.2805-0.29887 4.2372"/>
   <path id="path76053" d="m84.273 24.603c0.33096 1.0762 0.40931 2.278-0.30066 4.2308"/>
   <path id="path76055" d="m84.503 24.605c0.32719 1.0658 0.40644 2.2552-0.28273 4.1755"/>
   <path id="path76057" d="m84.734 24.615c0.32343 1.0594 0.4007 2.2425-0.27789 4.1442"/>
   <path id="path76059" d="m84.962 24.618c0.322 1.0563 0.39909 2.2362-0.27431 4.1289"/>
   <path id="path76061" d="m85.19 24.618c0.32217 1.0569 0.39927 2.2375-0.27538 4.1322"/>
   <path id="path76063" d="m85.421 24.627c0.31841 1.0504 0.39353 2.2247-0.27072 4.1011"/>
   <path id="path76065" d="m85.654 24.646c0.31196 1.0398 0.38313 2.2039-0.26552 4.0511"/>
   <path id="path76067" d="m85.88 24.637c0.31357 1.0393 0.38761 2.2014-0.25745 4.0454"/>
   <path id="path76069" d="m86.107 24.637c0.31178 1.0336 0.38672 2.1885-0.24652 4.0144"/>
   <path id="path76071" d="m86.364 24.731c0.28506 0.99987 0.33885 2.1267-0.25602 3.8673"/>
   <path id="path76073" d="m86.627 24.866c0.22213 0.85286 0.2666 1.8115-0.11582 3.1669"/>
  </g>
  <g stroke="#000" stroke-width=".17928" fill="#fff">
   <path id="path76075" d="m73.29 25.715c0.04141 0.29008 0.08283 1.4092-0.0208 1.7407s-0.10363 0.55955-0.89104 0.60096c-0.78742 0.04142-10.88 0.12424-10.88 0.12424s0.60096-1.5334 0.95326-2.0724c0.35229-0.53893 0.55955-0.64238 1.4506-0.66317 0.89104-0.0208 8.2062-0.24867 8.7243-0.16584 0.51813 0.08283 0.66317 0.43548 0.66317 0.43548z"/>
   <path id="path76077" d="m64.296 25.445c-0.58016 0.746-1.2433 2.2588-1.3678 2.7147l-1.4298 0.0208 0.87025-1.8651c0.37309-0.72539 0.51813-0.91202 1.9273-0.87043z"/>
   <path id="path76079" d="m92.314 25.569s-3.0878-0.08283-3.7508-0.14504-0.89104 0-0.91166 0.45592c-0.0208 0.45592-0.10363 1.1397-0.31088 1.5542-0.20725 0.41451-0.20725 0.66317 0.39371 0.68379s4.4968 0.06221 4.4968 0.06221c0.14486-0.80822 0.20707-1.8651 0.08283-2.6111z"/>
   <path id="path76081" d="m92.23 28.181c0.14504-0.7668 0.18664-1.8651 0.08283-2.6111l-0.84963-0.02062c0.04142 0.93246 0.0208 1.9479-0.16584 2.6109l0.93264 0.0208z"/>
  </g>
  <path id="path76085" d="m75.673 31.684c-0.22249-0.11134-0.87025-0.04142-0.99467-0.04142-0.35642 0-0.62158 0.53875-0.87025 0.78742s-0.29008 0.58016-0.29008 0.91184c0 0.3315-0.20725 0.3315-0.62176 0.49734s-0.70459 0.24867-0.70459 0.66317c0 0.41451-0.20725 0.70459 0.24867 0.70459s2.5283-0.24867 2.9842-0.37309c0.45592-0.12442 0.41451-0.29026 0.45592-0.62176 0.04124-0.3315-0.04159-2.4451-0.20743-2.5281z"/>
  <path id="path76087" d="m74.969 31.89-0.04142 2.6111c0 0.20725 0.37309 0.20725 0.37309 0.20725" stroke="#fff" stroke-width=".089642" fill="none"/>
  <line id="line76089" stroke-width=".089642" y2="34.294" y1="31.931" stroke="#fff" x2="75.424" x1="75.424" fill="none"/>
  <path id="path76093" d="m88.94 31.716c-0.21801-0.10882-0.85286-0.0407-0.97477-0.0407-0.34942 0-0.60921 0.52799-0.85304 0.77182s-0.28417 0.56851-0.28417 0.89355-0.20313 0.32504-0.60921 0.48748c-0.40608 0.16243-0.6906 0.24365-0.6906 0.64991s-0.20295 0.6906 0.24365 0.6906c0.44678 0 2.4777-0.24365 2.9245-0.36556 0.44678-0.12191 0.40626-0.28435 0.44678-0.60921 0.0407-0.32504-0.04052-2.3965-0.20313-2.4779z"/>
  <path id="path76095" d="m88.25 31.918-0.0407 2.5589c0 0.20295 0.36556 0.20295 0.36556 0.20295" stroke="#fff" stroke-width=".089642" fill="none"/>
  <line id="line76097" stroke-width=".089642" y2="34.274" y1="31.96" stroke="#fff" x2="88.696" x1="88.696" fill="none"/>
  <path id="path76099" d="m44.879 20.741c1.0361-0.3315 20.93-0.87025 25.53 0.04142 0 0-1.0777-0.746-2.6111-2.0309-1.5347-1.2849-5.0146-3.8959-6.8397-4.8905-1.8233-0.99467-2.8184-1.0777-4.8891-1.2433-2.0725-0.16584-11.772-0.62176-14.465-0.41451-2.6939 0.20725-1.6578 0.746-1.2848 1.2849 0.37309 0.53893 3.8544 6.0094 4.559 7.253z"/>
  <path id="path76101" d="m43.635 21.197s-3.8544-6.6728-4.3932-7.3774c-0.53875-0.70459-0.95326-1.1191-1.9479-1.2019-0.99467-0.08283-2.6111-0.04142-3.8544-0.04142s-7.0457 0.58016-8.6207 0.87025c-1.575 0.29026-1.4092 0.45592-1.9065 0.95326-0.49734 0.49734-3.3987 4.559-3.9789 5.844-0.58016 1.2849-0.45592 1.3262 0.45592 1.3262s5.8854-0.16584 11.066-0.16584h10.486s0.82901 0.08283 1.2433 0c0.41451-0.08283 0.82901-0.20725 0.82901-0.20725h0.62158z"/>
  <path id="path76103" d="m12.303 34.212c-2.28-0.166-4.7437-0.855-5.8443-1.244-0.7046-0.248-0.829-0.953-1.3678-2.072 0 0-0.45592-0.53875-0.45592-0.99467 0-1.0361 0.58034-0.91184 0.58034-0.91184l0.9119-0.498s0.24867-0.16584 0.20725-0.49734c-0.041415-0.3306-0.082829-3.3562 0.041415-3.8121 0.12424-0.45592 0.82883-2.0309 0.82883-2.0309 0.24885-0.53875 0.74618-0.49734 1.2021-0.53875s6.4241-0.82883 8.4135-1.4506c1.8235-2.4453 4.9319-5.6781 5.9263-6.2997 0.99467-0.62176 3.3157-1.3678 7.0043-1.6993 3.6886-0.33168 8.2062-0.45592 12.061-0.45592 3.8546 0 13.677 0.45592 15.501 0.70459 1.8235 0.24867 2.7018 0.53696 4.0617 1.2849 1.6578 0.91184 9.4497 7.0043 9.4497 7.0043 8.4135 0.82901 18.224 2.6733 20.225 3.6472 1.5334 0.746 1.2641 1.2225 1.2641 1.2225s0.10363 2.176-0.08283 2.6111c-0.18646 0.43512-0.39371 0.7668 0.31088 1.0569 0.70459 0.29008 1.4506 0.49734 1.6993 0.82901 0.24867 0.3315 0.08283 1.492-0.12424 1.575-0.20725 0.08283-1.0777 0.45574-1.1605 0.95326-0.08283 0.49734 0 0.66317-0.49734 0.95326-0.49734 0.29008-2.1966 0.746-2.8184 1.3676 0 0-0.08283 0.87043-0.53875 0.91184-0.45592 0.04142-3.4401 0.24867-3.4401 0.24867" stroke="#000" stroke-width=".26893" fill="none"/>
  <g fill="#fff">
   <path id="path76105" d="m30.415 14.234s-3.4401-0.08283-4.3932 0.08283c-0.95326 0.16566-1.3262 0.37309-1.8651 1.2433-0.53893 0.87025-1.8237 3.9373-1.8237 3.9373l1.9893 0.04142 0.16584-0.45574s0.3315-0.16584 0.78742-0.16584 2.7353 0.08283 2.7353 0.08283c0.62176 0.04141 0.87025 0.49734 0.87025 0.49734 0.20743-2.0722 1.1193-4.3932 1.5338-5.2634z"/>
   <path id="path76107" d="m32.652 15.229s-0.746 2.238-0.99467 3.6888c0 0 0.45592-0.58016 0.95326-0.53875l0.29008-1.575c-0.3315-0.16566 0-1.2019 0-1.2019l-0.24867-0.37309z"/>
   <path id="path76109" d="m33.565 14.358 0.04142 0.33168s-0.29008 0.3315-0.24867 0.66317c0.04142 0.3315 0.58034 0.746 0.49734 1.0361-0.08301 0.29008-0.12442 0.3315-0.12442 0.3315s0.49734 1.1605 0.62176 2.2796l5.7195-0.08283s0.41451-1.6164 0.37309-1.8651c-0.04142-0.24867-1.2849-2.321-1.2849-2.321l-5.5937-0.37309z"/>
   <path id="path76111" d="m44.879 14.939c0.24867 0.66317 0.746 3.2743 0.746 3.8544l4.1445 0.04142c0.7876 0.04141 0.7876 0.16584 0.91184 0.45592l0.20725 0.49734s1.5336-0.24867 3.0256-0.12424c0 0-1.6578-3.8544-2.1552-4.5176 0 0-0.20725 0.04141-0.29008 0.20725-0.08283 0.16566-0.33168 0.12424-0.37309-0.04142-0.04142-0.16584-1.575-0.29008-2.0309-0.29008-0.45592 0-0.45592-0.49734-0.45592-0.49734l-3.73 0.41433z"/>
   <path id="path76113" d="m53.872 14.276 0.20725 0.33168s0.70459 0.45592 0.70459 0.78742c0 0.33168-0.16584 0.7876-0.16584 0.7876l1.5336 3.0254s0.91166-0.99467 2.2794-0.70459c1.3676 0.29008 1.4092 1.0777 1.4092 1.0777l6.9629 0.20725s-4.4762-3.3157-5.9682-4.1861c-1.492-0.87025-2.4517-1.0547-4.1445-1.2019-1.9067-0.16584-2.8184-0.12442-2.8184-0.12442z"/>
   <path id="path76115" d="m59.177 19.291s-0.41451-0.45592-0.70459-0.37309 0.12442 0.3315 0.12442 0.3315l0.58016 0.04159z"/>
   <ellipse id="ellipse76119" rx="3.6034" ry="4.6713" cy="35.3" cx="51.095"/>
   <path id="path76121" d="m51.097 35.3"/>
  </g>
  <path id="path76123" d="m51.097 35.3" stroke="#000" stroke-width=".089642" fill="none"/>
  <ellipse id="ellipse76125" rx="3.3614" ry="4.3573" stroke="#000" cy="35.3" cx="51.095" stroke-width=".089642" fill="none"/>
  <path id="path76127" d="m51.097 39.466c0.19148 0 0.43315-0.06759 0.43315-0.06759l-0.09197-0.84855s-0.25046 0.02851-0.34118 0.02851c-0.09054 0-0.341-0.02851-0.341-0.02851l-0.09197 0.84855c-0.000179-0.00018 0.24168 0.06759 0.43297 0.06759z"/>
  <line id="line76129" stroke-width=".089642" y2="38.14" y1="39.398" stroke="#000" x2="50.796" x1="50.663" fill="none"/>
  <line id="line76131" stroke-width=".089642" y2="39.398" y1="38.129" stroke="#000" x2="51.529" x1="51.398" fill="none"/>
  <path id="path76133" d="m52.49 39.054c0.17229-0.10757 0.36753-0.3046 0.36753-0.3046l-0.367-0.713s-0.21622 0.16656-0.29779 0.21747c-0.08175 0.0511-0.31698 0.16602-0.31698 0.16602l0.20098 0.81628c-0.000179 0.00018 0.24042-0.07458 0.41289-0.18215z"/>
  <line id="line76135" stroke-width=".089642" y2="38.029" y1="39.237" stroke="#000" x2="51.776" x1="52.077" fill="none"/>
  <line id="line76137" stroke-width=".089642" y2="38.749" y1="37.679" stroke="#000" x2="52.857" x1="52.314" fill="none"/>
  <path id="path76139" d="m53.609 37.899c0.1194-0.19381 0.2293-0.48102 0.2293-0.48102l-0.56905-0.4362s-0.13895 0.27144-0.1956 0.36323-0.23002 0.32773-0.23002 0.32773l0.45431 0.62266s0.19166-0.20259 0.31106-0.3964z"/>
  <line id="line76141" stroke-width=".089642" y2="37.376" y1="38.296" stroke="#000" x2="52.621" x1="53.297" fill="none"/>
  <line id="line76143" stroke-width=".089642" y2="37.417" y1="36.757" stroke="#000" x2="53.838" x1="52.99" fill="none"/>
  <path id="path76145" d="m54.229 36.23c0.04267-0.24186 0.04572-0.56242 0.04572-0.56242l-0.65869-0.07315s-0.03442 0.32271-0.05468 0.43728c-0.02026 0.11456-0.09753 0.42455-0.09753 0.42455l0.61764 0.30568c0 0.00018 0.10488-0.29008 0.14755-0.53194z"/>
  <line id="line76147" stroke-width=".089642" y2="36.313" y1="36.761" stroke="#000" x2="53.166" x1="54.082" fill="none"/>
  <line id="line76149" stroke-width=".089642" y2="35.667" y1="35.549" stroke="#000" x2="54.275" x1="53.291" fill="none"/>
  <path id="path76151" d="m54.231 34.376c-0.04231-0.24186-0.14683-0.5323-0.14683-0.5323l-0.61799 0.30425s0.07691 0.31016 0.09717 0.4249c0.02008 0.11456 0.05396 0.43745 0.05396 0.43745l0.65869-0.07171s-0.0027-0.32056-0.045-0.5626z"/>
  <line id="line76153" stroke-width=".089642" y2="35.049" y1="34.939" stroke="#000" x2="53.3" x1="54.275" fill="none"/>
  <line id="line76155" stroke-width=".089642" y2="33.844" y1="34.29" stroke="#000" x2="54.084" x1="53.157" fill="none"/>
  <path id="path76157" d="m53.612 32.706c-0.11922-0.19416-0.31034-0.39712-0.31034-0.39712l-0.4552 0.62158s0.17319 0.2363 0.22966 0.32827c0.0563 0.09197 0.19506 0.36377 0.19506 0.36377l0.56959-0.43494c0-0.00018-0.10954-0.28757-0.22877-0.48156z"/>
  <line id="line76159" stroke-width=".089642" y2="33.835" y1="33.186" stroke="#000" x2="52.997" x1="53.84" fill="none"/>
  <line id="line76161" stroke-width=".089642" y2="32.308" y1="33.233" stroke="#000" x2="53.302" x1="52.615" fill="none"/>
  <path id="path76163" d="m52.495 31.547c-0.17211-0.10793-0.41253-0.18323-0.41253-0.18323l-0.20205 0.81592s0.23504 0.11564 0.31662 0.16674c0.08175 0.0511 0.29761 0.21819 0.29761 0.21819l0.36771-0.71212c-0.000179 0-0.19506-0.19739-0.36735-0.3055z"/>
  <line id="line76165" stroke-width=".089642" y2="32.91" y1="31.852" stroke="#000" x2="52.32" x1="52.863" fill="none"/>
  <line id="line76167" stroke-width=".089642" y2="31.365" y1="32.582" stroke="#000" x2="52.083" x1="51.774" fill="none"/>
  <path id="path76169" d="m51.102 31.131c-0.1913-0.000359-0.43315 0.06687-0.43315 0.06687l0.09072 0.84873s0.25046-0.02797 0.34118-0.02779c0.09054 0.000179 0.341 0.0294 0.341 0.0294l0.09323-0.84838c0-0.000179-0.24168-0.06849-0.43297-0.06884z"/>
  <line id="line76171" stroke-width=".089642" y2="32.458" y1="31.201" stroke="#000" x2="51.4" x1="51.534" fill="none"/>
  <line id="line76173" stroke-width=".089642" y2="31.2" y1="32.469" stroke="#000" x2="50.668" x1="50.797" fill="none"/>
  <path id="path76175" d="m49.707 31.54c-0.17247 0.10721-0.36807 0.30371-0.36807 0.30371l0.36592 0.71373s0.2164-0.16602 0.29815-0.21676 0.31715-0.1653 0.31715-0.1653l-0.1999-0.81682c-0.000179 0-0.2406 0.07422-0.41325 0.18144z"/>
  <line id="line76177" stroke-width=".089642" y2="32.569" y1="31.359" stroke="#000" x2="50.419" x1="50.12" fill="none"/>
  <line id="line76179" stroke-width=".089642" y2="31.845" y1="32.917" stroke="#000" x2="49.34" x1="49.881" fill="none"/>
  <path id="path76181" d="m48.587 32.693c-0.11958 0.19363-0.23002 0.48048-0.23002 0.48048l0.56833 0.43763s0.1393-0.27126 0.19614-0.36287c0.05665-0.09162 0.23038-0.3272 0.23038-0.3272l-0.45341-0.62373c0.000179 0-0.19166 0.20223-0.31142 0.39568z"/>
  <line id="line76183" stroke-width=".089642" y2="33.218" y1="32.299" stroke="#000" x2="49.573" x1="48.899" fill="none"/>
  <line id="line76185" stroke-width=".089642" y2="33.173" y1="33.835" stroke="#000" x2="48.357" x1="49.204" fill="none"/>
  <path id="path76187" d="m47.963 34.362c-0.04303 0.24168-0.04644 0.56224-0.04644 0.56224l0.65851 0.07476s0.03496-0.32271 0.0554-0.4371c0.02044-0.11438 0.09807-0.42437 0.09807-0.42437l-0.6171-0.30712c-0.00018-0.000179-0.10542 0.2899-0.14845 0.53158z"/>
  <line id="line76189" stroke-width=".089642" y2="34.281" y1="33.83" stroke="#000" x2="49.028" x1="48.112" fill="none"/>
  <line id="line76191" stroke-width=".089642" y2="34.923" y1="35.043" stroke="#000" x2="47.916" x1="48.902" fill="none"/>
  <path id="path76193" d="m47.959 36.216c0.04195 0.24204 0.14612 0.53283 0.14612 0.53283l0.61835-0.30281s-0.07655-0.31034-0.09663-0.42508c-0.0199-0.11456-0.05343-0.43763-0.05343-0.43763l-0.65887 0.07028c0.000179-0.00018 0.0023 0.32038 0.04446 0.56242z"/>
  <line id="line76195" stroke-width=".089642" y2="35.544" y1="35.653" stroke="#000" x2="48.892" x1="47.916" fill="none"/>
  <line id="line76197" stroke-width=".089642" y2="36.748" y1="36.304" stroke="#000" x2="48.106" x1="49.033" fill="none"/>
  <path id="path76199" d="m48.576 37.887c0.11887 0.19434 0.30998 0.39783 0.30998 0.39783l0.45592-0.6205s-0.17283-0.23666-0.22913-0.32881c-0.05629-0.09215-0.19452-0.36431-0.19452-0.36431l-0.57012 0.43351c-0.000179 0.000179 0.109 0.28793 0.22787 0.48228z"/>
  <line id="line76201" stroke-width=".089642" y2="36.759" y1="37.405" stroke="#000" x2="49.191" x1="48.348" fill="none"/>
  <line id="line76203" stroke-width=".089642" y2="38.285" y1="37.363" stroke="#000" x2="48.886" x1="49.573" fill="none"/>
  <path id="path76205" d="m49.691 39.047c0.17211 0.10829 0.41236 0.1843 0.41236 0.1843l0.20313-0.81539s-0.23486-0.11618-0.31644-0.16745-0.29725-0.21891-0.29725-0.21891l-0.36879 0.71122c0.000358 0.000179 0.19488 0.19793 0.367 0.30622z"/>
  <line id="line76207" stroke-width=".089642" y2="37.684" y1="38.742" stroke="#000" x2="49.869" x1="49.325" fill="none"/>
  <line id="line76209" stroke-width=".089642" y2="39.232" y1="38.016" stroke="#000" x2="50.104" x1="50.414" fill="none"/>
  <ellipse id="ellipse76215" cy="33.962" cx="50.765" rx=".41038" ry=".52746"/>
  <path id="path76217" d="m50.765 33.962"/>
  <ellipse id="ellipse76221" rx=".24616" ry=".31644" cy="33.948" cx="50.72" fill="#fff"/>
  <path id="path76223" fill="#fff" d="m50.72 33.948"/>
  <ellipse id="ellipse76229" cy="34.977" cx="49.749" rx=".41038" ry=".52746"/>
  <path id="path76231" d="m49.749 34.977"/>
  <ellipse id="ellipse76235" rx=".24616" ry=".31644" cy="34.963" cx="49.706" fill="#fff"/>
  <path id="path76237" fill="#fff" d="m49.706 34.963"/>
  <ellipse id="ellipse76243" cy="36.542" cx="50.256" rx=".41038" ry=".52746"/>
  <path id="path76245" d="m50.256 36.542"/>
  <ellipse id="ellipse76249" rx=".24616" ry=".31644" cy="36.528" cx="50.213" fill="#fff"/>
  <path id="path76251" fill="#fff" d="m50.213 36.528"/>
  <ellipse id="ellipse76257" cy="36.325" cx="51.52" rx=".41038" ry=".52746"/>
  <path id="path76259" d="m51.52 36.325"/>
  <ellipse id="ellipse76263" rx=".24616" ry=".31644" cy="36.311" cx="51.477" fill="#fff"/>
  <path id="path76265" fill="#fff" d="m51.477 36.311"/>
  <ellipse id="ellipse76271" cy="34.884" cx="51.78" rx=".41038" ry=".52746"/>
  <path id="path76273" d="m51.78 34.884"/>
  <g fill="#fff">
   <ellipse id="ellipse76277" rx=".24616" ry=".31644" cy="34.87" cx="51.737"/>
   <path id="path76279" d="m51.737 34.87"/>
   <ellipse id="ellipse76283" rx="2.3208" ry="3.9939" cy="34.705" cx="15.805"/>
   <path id="path76285" d="m15.805 34.705"/>
  </g>
  <path id="path76287" d="m15.805 34.705" stroke="#000" stroke-width=".089642" fill="none"/>
  <ellipse id="ellipse76289" rx="2.1649" ry="3.7255" stroke="#000" cy="34.705" cx="15.805" stroke-width=".089642" fill="none"/>
  <path id="path76291" d="m15.805 38.267c0.12335 0 0.27897-0.05791 0.27897-0.05791l-0.05916-0.72556s-0.16136 0.02438-0.2198 0.02438c-0.05827 0-0.21962-0.02438-0.21962-0.02438l-0.05916 0.72556s0.15562 0.05791 0.27879 0.05791z"/>
  <line id="line76293" stroke-width=".089642" y2="37.134" y1="38.21" stroke="#000" x2="15.611" x1="15.526" fill="none"/>
  <line id="line76295" stroke-width=".089642" y2="38.21" y1="37.123" stroke="#000" x2="16.084" x1="15.999" fill="none"/>
  <path id="path76297" d="m16.703 37.916c0.11116-0.09197 0.23666-0.26032 0.23666-0.26032l-0.23612-0.60957s-0.13912 0.14235-0.19183 0.18592-0.20403 0.14199-0.20403 0.14199l0.12944 0.69796s0.1549-0.06401 0.26588-0.15598z"/>
  <line id="line76299" stroke-width=".089642" y2="37.037" y1="38.072" stroke="#000" x2="16.243" x1="16.437" fill="none"/>
  <line id="line76301" stroke-width=".089642" y2="37.656" y1="36.739" stroke="#000" x2="16.939" x1="16.59" fill="none"/>
  <path id="path76303" d="m17.423 36.928c0.07691-0.16566 0.14773-0.41128 0.14773-0.41128l-0.36646-0.37291s-0.08964 0.23217-0.12604 0.3107-0.14809 0.28022-0.14809 0.28022l0.29259 0.5323s0.12335-0.17319 0.20026-0.33903z"/>
  <line id="line76305" stroke-width=".089642" y2="36.481" y1="37.267" stroke="#000" x2="16.787" x1="17.223" fill="none"/>
  <line id="line76307" stroke-width=".089642" y2="36.515" y1="35.952" stroke="#000" x2="17.571" x1="17.025" fill="none"/>
  <path id="path76309" d="m17.823 35.501c0.02743-0.20672 0.02958-0.48084 0.02958-0.48084l-0.42419-0.06275s-0.02223 0.2761-0.03514 0.37399-0.06293 0.36305-0.06293 0.36305l0.39765 0.2614s0.06759-0.24813 0.09502-0.45484z"/>
  <line id="line76311" stroke-width=".089642" y2="35.572" y1="35.954" stroke="#000" x2="17.138" x1="17.728" fill="none"/>
  <line id="line76313" stroke-width=".089642" y2="35.02" y1="34.918" stroke="#000" x2="17.852" x1="17.218" fill="none"/>
  <path id="path76315" d="m17.824 33.916c-0.02725-0.20689-0.09448-0.4552-0.09448-0.4552l-0.39801 0.26014s0.04948 0.26516 0.06257 0.36323 0.03478 0.37399 0.03478 0.37399l0.42419-0.06132c-0.000179 0.00018-0.0018-0.27395-0.02904-0.48084z"/>
  <line id="line76317" stroke-width=".089642" y2="34.491" y1="34.396" stroke="#000" x2="17.224" x1="17.853" fill="none"/>
  <line id="line76319" stroke-width=".089642" y2="33.46" y1="33.842" stroke="#000" x2="17.729" x1="17.132" fill="none"/>
  <path id="path76321" d="m17.425 32.487c-0.07673-0.16602-0.1999-0.33956-0.1999-0.33956l-0.29313 0.5314s0.11152 0.20187 0.14791 0.28058 0.12568 0.31106 0.12568 0.31106l0.36682-0.37184c-0.000179 0.00018-0.07082-0.24562-0.14737-0.41164z"/>
  <line id="line76323" stroke-width=".089642" y2="33.453" y1="32.899" stroke="#000" x2="17.03" x1="17.572" fill="none"/>
  <line id="line76325" stroke-width=".089642" y2="32.148" y1="32.937" stroke="#000" x2="17.225" x1="16.784" fill="none"/>
  <path id="path76327" d="m16.706 31.497c-0.11098-0.09233-0.2657-0.1567-0.2657-0.1567l-0.13016 0.6976s0.1515 0.09879 0.20403 0.14253c0.05253 0.04375 0.19166 0.18664 0.19166 0.18664l0.23684-0.60885c-0.000179-0.000179-0.12568-0.16889-0.23666-0.26122z"/>
  <line id="line76329" stroke-width=".089642" y2="32.663" y1="31.759" stroke="#000" x2="16.593" x1="16.942" fill="none"/>
  <line id="line76331" stroke-width=".089642" y2="31.339" y1="32.381" stroke="#000" x2="16.44" x1="16.242" fill="none"/>
  <path id="path76333" d="m15.809 31.142c-0.12317-0.000359-0.27897 0.05701-0.27897 0.05701l0.05845 0.72574s0.16136-0.02385 0.2198-0.02385c0.05827 0.00018 0.21962 0.0251 0.21962 0.0251l0.06006-0.72538c-0.000179 0.000179-0.1558-0.05827-0.27897-0.05863z"/>
  <line id="line76335" stroke-width=".089642" y2="32.275" y1="31.201" stroke="#000" x2="16.001" x1="16.087" fill="none"/>
  <line id="line76337" stroke-width=".089642" y2="31.2" y1="32.286" stroke="#000" x2="15.53" x1="15.613" fill="none"/>
  <path id="path76339" d="m14.91 31.492c-0.11116 0.09161-0.23701 0.2596-0.23701 0.2596l0.23558 0.61028s0.1393-0.14199 0.19184-0.18538c0.05271-0.04339 0.2042-0.14128 0.2042-0.14128l-0.129-0.698c0.00018 0-0.15472 0.06365-0.26588 0.15526z"/>
  <line id="line76341" stroke-width=".089642" y2="32.37" y1="31.336" stroke="#000" x2="15.369" x1="15.176" fill="none"/>
  <line id="line76343" stroke-width=".089642" y2="31.752" y1="32.668" stroke="#000" x2="14.673" x1="15.022" fill="none"/>
  <path id="path76345" d="m14.189 32.476c-0.07709 0.16548-0.14809 0.41092-0.14809 0.41092l0.3661 0.37399s0.08964-0.23182 0.12622-0.31016c0.03657-0.07853 0.14845-0.27986 0.14845-0.27986l-0.29188-0.53319s-0.12371 0.17283-0.2008 0.33831z"/>
  <line id="line76347" stroke-width=".089642" y2="32.926" y1="32.139" stroke="#000" x2="14.824" x1="14.39" fill="none"/>
  <line id="line76349" stroke-width=".089642" y2="32.888" y1="33.453" stroke="#000" x2="14.041" x1="14.586" fill="none"/>
  <path id="path76351" d="m13.788 33.903c-0.02779 0.20672-0.02994 0.48066-0.02994 0.48066l0.42419 0.06401s0.02241-0.2761 0.03568-0.37381 0.06329-0.36287 0.06329-0.36287l-0.39747-0.26247c-0.000179-0.000179-0.06813 0.24777-0.09574 0.45449z"/>
  <line id="line76353" stroke-width=".089642" y2="33.833" y1="33.448" stroke="#000" x2="14.473" x1="13.883" fill="none"/>
  <line id="line76355" stroke-width=".089642" y2="34.384" y1="34.486" stroke="#000" x2="13.758" x1="14.392" fill="none"/>
  <path id="path76357" d="m13.785 35.488c0.02707 0.20689 0.09413 0.45556 0.09413 0.45556l0.39819-0.25889s-0.0493-0.26534-0.06203-0.36341c-0.01291-0.09789-0.03442-0.37417-0.03442-0.37417l-0.42437 0.06006c0-0.00018 0.0014 0.27395 0.02851 0.48084z"/>
  <line id="line76359" stroke-width=".089642" y2="34.914" y1="35.008" stroke="#000" x2="14.385" x1="13.757" fill="none"/>
  <line id="line76361" stroke-width=".089642" y2="35.943" y1="35.563" stroke="#000" x2="13.879" x1="14.476" fill="none"/>
  <path id="path76363" d="m14.182 36.917c0.07655 0.1662 0.19954 0.3401 0.19954 0.3401l0.29367-0.5305s-0.11134-0.20223-0.14755-0.28112c-0.03639-0.07871-0.12532-0.31142-0.12532-0.31142l-0.36717 0.37076s0.07028 0.24598 0.14683 0.41218z"/>
  <line id="line76365" stroke-width=".089642" y2="35.952" y1="36.506" stroke="#000" x2="14.578" x1="14.035" fill="none"/>
  <line id="line76367" stroke-width=".089642" y2="37.258" y1="36.469" stroke="#000" x2="14.382" x1="14.824" fill="none"/>
  <path id="path76369" d="m14.9 37.91c0.11098 0.09269 0.26552 0.15759 0.26552 0.15759l0.13088-0.69724s-0.15132-0.09932-0.20385-0.14307c-0.05235-0.04393-0.1913-0.18717-0.1913-0.18717l-0.23755 0.60813s0.12532 0.16907 0.2363 0.26176z"/>
  <line id="line76371" stroke-width=".089642" y2="36.745" y1="37.648" stroke="#000" x2="15.014" x1="14.664" fill="none"/>
  <line id="line76373" stroke-width=".089642" y2="38.068" y1="37.026" stroke="#000" x2="15.166" x1="15.366" fill="none"/>
  <ellipse id="ellipse76379" cy="33.563" cx="15.591" rx=".26427" ry=".45108"/>
  <path id="path76381" d="m15.591 33.563"/>
  <ellipse id="ellipse76385" rx=".15849" ry=".27072" cy="33.55" cx="15.563" fill="#fff"/>
  <path id="path76387" fill="#fff" d="m15.563 33.55"/>
  <ellipse id="ellipse76393" cy="34.43" cx="14.937" rx=".26427" ry=".45108"/>
  <path id="path76395" d="m14.937 34.43"/>
  <ellipse id="ellipse76399" rx=".15849" ry=".27072" cy="34.418" cx="14.909" fill="#fff"/>
  <path id="path76401" fill="#fff" d="m14.909 34.418"/>
  <ellipse id="ellipse76407" cy="35.768" cx="15.264" rx=".26427" ry=".45108"/>
  <path id="path76409" d="m15.264 35.768"/>
  <ellipse id="ellipse76413" rx=".15849" ry=".27072" cy="35.755" cx="15.236" fill="#fff"/>
  <path id="path76415" fill="#fff" d="m15.236 35.755"/>
  <ellipse id="ellipse76421" cy="35.581" cx="16.078" rx=".26427" ry=".45108"/>
  <path id="path76423" d="m16.078 35.581"/>
  <ellipse id="ellipse76427" rx=".15849" ry=".27072" cy="35.569" cx="16.05" fill="#fff"/>
  <path id="path76429" fill="#fff" d="m16.05 35.569"/>
  <ellipse id="ellipse76435" cy="34.35" cx="16.245" rx=".26427" ry=".45108"/>
  <path id="path76437" d="m16.245 34.35"/>
  <ellipse id="ellipse76441" rx=".15849" ry=".27054" cy="34.337" cx="16.217" fill="#fff"/>
  <path id="path76443" fill="#fff" d="m16.217 34.337"/>
  <path id="path76445" d="m6.3656 24.461 0.39371 0.02062c0.16584 0.04142 0.26946 0.14504 0.18646 0.45592-0.083009 0.31088-0.082829 2.0308-0.041415 2.5903 0.041415 0.55955-0.20725 0.41451-0.20725 0.41451l-0.36269 0.05181s-0.093228-3.098 0.031195-3.5332z"/>
  <g stroke="#000" fill="none">
   <path id="path76447" d="m4.6664 29.538 5.7402-0.02062c0.20725 0 0.16584 0.26928 0.16584 0.26928l-0.3523 0.99467s-0.08283 0.12424-0.31088 0.12424l-4.8181-0.01076" stroke-width=".089642"/>
   <polyline id="polyline76449" transform="matrix(.17928 0 0 .17928 4.5007 11.571)" points="1.27 104.26 31.092 104.49 30.86 105.3 1.964 105.41" stroke-width=".5"/>
   <g stroke-width=".089642">
    <path id="path76451" d="m6.3863 28.108c0.041415 0.35229 1.1605 0.3315 1.9065 0.51795 0.746 0.18664 1.9273 0.37309 2.176 0.91184"/>
    <path id="path76453" d="m10.572 29.62c0.3523-1.1605 1.5695-4.1375 3.9995-4.2275 1.6786-0.06221 3.4071 1.3968 4.3104 3.5644 0.09627 0.2311 0.44032 1.1053 0.746 1.7821 0.29008 0.64238 0.78742 1.2641 0.99467 1.9273 0.20725 0.66317 0.62176 1.637 0.62176 1.637s0.12424 0.26946 0.78742 0.29008l21.573 0.41451s0-2.5697-0.20725-3.2329c-0.20725-0.66317-0.16584-1.1605-0.12442-2.7353 0.04142-1.575 0.16584-3.6058 0.33168-4.6004 0.16584-0.99467 0.22787-2.7147 0.03102-3.2431 0 0-0.52835 0.50773-1.7719 0.54915-1.2433 0.04142-6.0924-0.08283-11.771 0-5.6781 0.08283-11.066 0.29008-11.066 0.29008-0.99467-0.04142-1.2849-0.20725-0.62176-1.492 0.66317-1.2848 3.2743-5.3464 4.3104-6.2997 1.0361-0.95326 1.006-0.76806 2.2794-1.0361 1.575-0.33168 3.813-0.66317 9.0766-0.87025 0 0 2.9012-0.04141 3.4813 0.04141 0.58016 0.08283 1.1605 0.16584 1.6164 0.7876 0.45592 0.62158 3.7716 6.0924 4.2275 6.9629 0.45592 0.87025 0.23827 1.0673 0.23827 1.0673"/>
    <path id="path76455" d="m19.39 21.57-0.03102 0.46632s-1.0775 1.0361-1.0775 2.9842 1.5207 3.3166 1.6578 5.098c0.08283 1.0775 0.746 2.9012 0.746 2.9012"/>
    <path id="path76457" d="m29.264 21.373-0.08283 0.41451c-0.24867 0.37291-0.82901 3.2327-0.29008 6.5898 0 0 0.08283 0.87025 0 1.1191-0.37309 0-0.29008 1.1191-0.16584 1.4506 0 0 1.2433 3.7302 1.8235 3.813"/>
    <path id="path76459" d="m43.024 29.746s-0.20725 0.78742 0 1.3676l-22.795-0.333s-0.12442-0.99467-0.24867-1.3678l23.043 0.33168z"/>
   </g>
   <polygon id="polygon76461" transform="matrix(.17928 0 0 .17928 4.5007 11.571)" points="88.423 105.07 213.26 107.15 213.02 105.99 88.423 103.68" stroke-width=".5"/>
   <g stroke-width=".089642">
    <path id="path76463" d="m6.4691 24.026c4.2279-0.332 10.817-0.58 16.288-0.664 5.471-0.082 20.06-0.207 20.06-0.207"/>
    <path id="path76465" d="m56.811 33.665s-1.2702-3.0486-1.4359-3.5461c-0.16584-0.49734 0.3315-0.95326 0.3315-0.95326-0.33168-1.4506-2.8598-4.8491-6.2169-4.3518-3.3571 0.49734-5.4384 2.6859-4.9735 7.3358 0.04142 0.4145-1.6164 0.45592-1.6164 0.45592l-22.005-0.04124"/>
    <path id="path76467" d="m44.879 20.741c7.5949 0.46632 20.195 2.7457 21.231 4.5694"/>
   </g>
   <line id="line76469" stroke-width=".17928" x1="66.98" x2="66.316" y1="25.393" y2="28.129"/>
   <g stroke-width=".089642">
    <path id="path76471" d="m55.79 28.916c0.08283-0.33168 0.91184-0.16584 2.0724-0.16584 1.1605 0 11.854-0.16584 13.843-0.24867 1.9893-0.08283 1.7407 0.58016 3.3157 0.66317s9.7812 0.08283 10.693-0.08283c0.91184-0.16566 0.99467-0.66317 1.9065-0.66317 0.91184 0 4.4762 0.16584 4.4762 0.16584"/>
    <path id="path76473" d="m71.706 28.502c1.2433 0 2.1552-0.08283 2.1552-0.58016 0-0.49734 0.10452-2.0863 0.04141-2.5283-0.08283-0.58016 0-1.0361 0.7876-1.0361 1.2433 0 4.7661-0.24867 6.0924-0.16584 1.3262 0.08283 4.1445 0.04142 4.6833 0.08283 0.53875 0.04142 1.9479 0.08283 1.9065 1.4506-0.04141 1.3676-0.41451 2.4453-0.7876 3.0254"/>
    <path id="path76475" d="m85.008 29.123c1.0775 0 7.1701 0 7.2946 0.08283"/>
    <path id="path76477" d="m74.771 29.123c-2.651-0.165-19.065 0.042-19.065 0.042"/>
    <path id="path76479" d="m56.37 31.237s3.3985-0.16566 6.3827-0.16566 8.7866-0.16584 13.346-0.08283c4.559 0.08283 17.822 0 17.822 0l-0.05881 0.41451s-13.204 0.08283-17.763 0-10.361 0.08283-13.346 0.08283c-2.9842 0-6.2649 0.16584-6.2649 0.16584l-0.11779-0.41468z"/>
    <path id="path76481" d="m73.619 32.605s-3.597 0.06723-6.7904 0.10094-6.3198-0.0337-8.0343-0.0337-1.1766-0.60509 3.2271-0.60509c4.4038 0 12.236-0.2354 12.236-0.2354"/>
    <line id="line76483" x1="75.738" x2="87.737" y1="31.798" y2="31.764"/>
    <line id="line76485" x1="75.904" x2="87.111" y1="32.505" y2="32.447"/>
    <line id="line76487" x1="89.15" x2="92.981" y1="32.571" y2="32.471"/>
    <line id="line76489" x1="88.94" x2="93.822" y1="31.716" y2="31.764"/>
   </g>
  </g>
  <path id="path76491" stroke-width=".089642" stroke="#000" d="m83.434 35.025c0.57156-0.03371 2.723-1.4791 1.849-1.4791h-9.2611s0.01685 1.1766-0.15132 1.2774c-0.16817 0.10076-1.0085 0.2017-1.0085 0.2017h8.572z"/>
  <g stroke="#000" stroke-width=".089642" fill="none">
   <path id="path76493" d="m73.484 33.462s-6.0509 0.06723-7.7316 0.2354c-1.7475 0.1748-7.7987 0.02994-8.9418-0.03371"/>
   <path id="path76495" d="m72.511 35.21c-3.2271 0.13446-7.1603 0.30263-9.5134 0.26893-2.3531-0.03371-5.5467-0.06723-5.5467-0.06723"/>
   <path id="path76497" d="m83.434 35.025c0.87401 0.01685 2.017-0.01685 2.017-0.01685"/>
   <line id="line76499" x1="85.285" x2="86.764" y1="33.546" y2="33.53"/>
   <line id="line76501" x1="87.502" x2="89.62" y1="35.009" y2="35.009"/>
   <line id="line76503" x1="89.15" x2="92.78" y1="33.396" y2="33.328"/>
   <path id="path76505" d="m79.972 23.848c-1.277-1.008-9.143-2.554-18.421-3.697"/>
   <path id="path76507" d="m59.602 29.16c1.0757 0 2.7565 0.47062 4.7735 0.47062s9.1435-0.06723 9.1435-0.06723c1.2102 0 1.4791 0.33616 3.0254 0.33616s7.53-0.06723 8.8074-0.06723 0.60508-0.26893 1.8153-0.26893 2.8237-0.26893 4.4373-0.26893"/>
   <path id="path76511" d="m29.351 24.305c0.07745 0.0072 0.1463-0.10434 0.154-0.24903 0.0077-0.1445-0.04859-0.26749-0.12604-0.27466-0.07745-0.0072-0.1463 0.10434-0.154 0.24903-0.0077 0.14468 0.04859 0.26749 0.12604 0.27466z"/>
   <path id="path76513" d="m29.366 24.043"/>
  </g>
  <path id="path76517" d="m31.929 24.448c0.07888 0.0011 0.14164-0.04572 0.1402-0.10452l0.09395-0.54036c-0.0014-0.0588-0.06652-0.10739-0.1454-0.10847l-2.036 0.01363c-0.07889-0.0011-0.14164 0.04554-0.1402 0.10434l-0.09413 0.54054c0.0014 0.0588 0.06651 0.10739 0.1454 0.10829l2.0361-0.01345z" stroke="#000" stroke-width=".089642" fill="#fff"/>
  <path id="path76519" d="m30.192 24.467s-0.04285 0.33401 0.07154 0.37219c0.11438 0.03819 1.7118-0.01129 1.7118-0.01129l0.0891-0.44373c-0.03819 0.09072-0.19076 0.06203-0.19076 0.06203l-1.6817 0.0208z"/>
  <path id="path76523" d="m20.92 24.403c0.07888 0.0011 0.14164-0.04572 0.1402-0.10452l0.09394-0.54054c-0.0014-0.0588-0.06651-0.10721-0.1454-0.10829l-2.0358 0.01345c-0.07888-0.0011-0.14164 0.04572-0.1402 0.10452l-0.09412 0.54036c0.0014 0.0588 0.06651 0.10739 0.1454 0.10847l2.036-0.01345z" stroke="#000" stroke-width=".089642" fill="#fff"/>
  <path id="path76525" d="m19.182 24.422s-0.04285 0.33401 0.07154 0.3722c0.11438 0.03819 1.7118-0.0113 1.7118-0.0113l0.08928-0.44373c-0.03819 0.09072-0.19076 0.06203-0.19076 0.06203l-1.6819 0.0208z"/>
 </g>
</svg>
