<?xml version="1.0" encoding="UTF-8" standalone="no"?>
<!-- Created with Inkscape (http://www.inkscape.org/) -->
<svg id="svg2" xmlns:rdf="http://www.w3.org/1999/02/22-rdf-syntax-ns#" xmlns="http://www.w3.org/2000/svg" height="54" width="99" version="1.1" xmlns:cc="http://creativecommons.org/ns#" xmlns:dc="http://purl.org/dc/elements/1.1/">
 <metadata id="metadata7">
  <rdf:RDF>
   <cc:Work rdf:about="">
    <dc:format>image/svg+xml</dc:format>
    <dc:type rdf:resource="http://purl.org/dc/dcmitype/StillImage"/>
    <dc:title/>
   </cc:Work>
  </rdf:RDF>
 </metadata>
 <g id="g3491">
  <g id="g3871">
   <g id="g4614">
    <g id="g5219">
     <g id="g5689">
      <g id="g6406">
       <g id="g7263">
        <rect id="rect2990" opacity="0" height="54" width="99" y="0" x="0"/>
        <g id="layer1" transform="matrix(0.9886507,0,0,0.9886507,263.86291,25.732405)">
         <g id="logo7" transform="matrix(0.20644405,0,0,0.20644405,-261.82302,-21.475308)">
          <g id="g76825" fill="#FFF">
           <path id="path76827" d="m431.03,115.1c-0.143,3.502-0.461,6.441-0.461,6.441,0.852,0.904,1.657,3.416,2.208,7.423l0.104,0.405c1.561-4.586,2.066-9.982,2.293-11.293,0.244-1.411-0.974-2.682-3.841-3l-0.303,0.024z"/>
           <path id="path76829" d="m431.1,112.53c0,0.083-0.001,0.542-0.002,0.625l0.207-0.506c1.135-3.879,1.133-9.979,1.21-18.745,0.08-10.799-0.24-15.085-6.22-18.189-5.99-3.103-15.61-12.617-19.7-19.041-11.29-17.745-27.34-34.349-44.12-45.65-16.77-11.3-60.02-10.106-104.36-10.293-44.12-0.187-75.48,2.492-92.39,10.995-27.34,13.746-47.45,28.983-62.36,45.874-2.43,2.746-16.209,7.624-16.209,7.624-30.789,5.614-51.706,12.648-63.171,19.737-11.464,7.088-14.761,19.598-15.643,26.548-0.881,6.952,0.342,11.265,1.413,13.097s0.8,3.4-0.583,4.485c-1.382,1.084-5.709,2.757-7.595,5.627-1.886,2.871-0.2,6.747,1.103,8.361s2.129,4.115,3.154,7.521c0.887,2.949,4.131,11.699,8.422,16.291l-0.102-0.637s7.042,5.285,18.656,8.33c0,0,0.767,4.524,2.526,5.927s30.03,4.491,108.32,5.909c78.292,1.417,136.42-3.133,145.08-5.097,8.662-1.964,19.732-14.056,21.641-18.509,3.875-9.043,4.514-21.236,3.772-24.311s-2.617-5.351-2.617-5.351,2.553-1.867,3.802-6.548,8.137-31.12,22.515-29.306c14.377,1.813,11.135,26.973,11.135,26.973s10.169,9.938,9.113,48.383l0.001,0.252c2.221-0.61,9.187-2.439,16.125-3.349,4.715-0.618,10.345-0.529,16.33-0.178l-0.087-0.291c-0.022-0.312-0.028-0.483-0.028-0.483s7.188,0.528,11.454,0.879c4.267,0.352,11.32-17.402,12.783-21.186s2.105-10.292,3.921-25.995,5.72-25.942,9.887-22.217c2.129,1.907,2.622,7.465,2.595,12.445"/>
          </g>
          <path id="path76831" d="m108.12,189.33,1.974-1.052,3.328,0.099s3.531,2.602,4.362,2.627c0.832,0.024,29.393,0.87,29.393,0.87l3.646-1.28,8.58,0.81,3.369-1.288,13.587,0.402,2.193,0.897,3.328,0.099,2.243-0.766,36.105-0.874s41.079-0.171,53.329-1.474c0,0,2.979,30.617,29.598,31.405l22.183,0.657c31.056,0.919,32.762-47.32,32.762-47.32,1.149-38.82-9.1-48.837-9.1-48.837s3.243-25.159-11.135-26.973c-14.378-1.813-21.267,24.625-22.515,29.307-1.249,4.681-3.802,6.548-3.802,6.548s1.875,2.276,2.617,5.351,0.103,15.267-3.772,24.311c-1.909,4.453-12.979,16.545-21.641,18.508-8.661,1.964-66.79,6.515-145.08,5.097-78.291-1.418-106.56-4.506-108.32-5.909-1.759-1.402-2.526-5.927-2.526-5.927-11.615-3.045-18.656-8.33-18.656-8.33s3.905,46.186,33.298,47.056l25.51,0.755c23.292,0.689,32.374-24.852,32.374-24.852l2.77,0.083z"/>
          <path id="path76833" d="m390.46,168.64s0.759,19.966,13.333,21.014l15.743,0.466c11.245,0.333,13.114-17.169,13.899-43.707,0.426-14.394-1.12-22.993-2.866-24.846,0,0,2.1-17.72-2.066-21.445-4.167-3.725-8.071,6.514-9.887,22.217-1.815,15.703-2.458,22.212-3.921,25.995-1.462,3.784-8.516,21.537-12.783,21.186-4.264-0.352-11.452-0.88-11.452-0.88z"/>
          <path id="path76835" d="m331.31,7.203c5.679,13.449,11.239,30.946,10.473,56.81,16.126,2.729,52.731,5.613,65.354-2.567-10.28-17.413-32.51-42.156-46.92-49.786-14.4-7.629-28.9-4.457-28.9-4.457z"/>
          <path id="path76837" d="m16.343,168.72c-5.297-3.53-9.469-14.68-10.494-18.09s-1.851-5.91-3.154-7.52c-1.303-1.614-2.989-5.491-1.103-8.361,1.886-2.871,6.212-4.543,7.595-5.628,1.383-1.084,1.654-2.652,0.583-4.484-1.071-1.84-2.294-6.15-1.413-13.1,0.882-6.95,4.179-19.461,15.643-26.55,11.465-7.089,32.382-14.123,63.162-19.739,0,0,13.784-4.877,16.208-7.624,14.906-16.891,35.024-32.128,62.359-45.874,16.909-8.503,48.27-11.182,92.39-10.995,44.338,0.188,87.592-1.008,104.36,10.293,16.772,11.301,32.828,27.905,44.118,45.65,4.086,6.424,13.709,15.938,19.695,19.041s6.309,7.39,6.214,18.191c-0.095,10.802-0.069,17.556-2.2,21.094,3.599,0.106,5.133,1.502,4.861,3.07-0.271,1.567-0.941,8.976-3.336,13.857" stroke="#000" stroke-width="1.5" fill="none"/>
          <path id="path76839" d="m50.812,106.94c-5.187,1.93-6.981,20.105,4.963,22.432,14.995,2.92,112.59,3.271,131.43,0.965,13.329-1.631,13.194-18.007,9.179-21.112-4.841-3.745-35.724-9.837-82.556-9.423-46.833,0.414-55.731,4.427-63.014,7.138z"/>
          <path id="path76841" d="m198.72,117.62c-0.401,5.521-3.354,4.774-11.308,5.747-18.838,2.306-116.43,1.955-131.43-0.965-7.66-1.492-9.876-2.529-8.964-8.593,10.123-0.152,24.537-0.4,31.925,0.944s23.819,1.38,29.012,0.859,13.739-0.269,19.354,0.123c5.616,0.391,14.215-1.155,21.855-0.704,7.64,0.452,13.699,1.081,20.446,1.281s9.234-0.177,15.32-0.447c6.087-0.269,13.788,1.755,13.788,1.755z" fill="none"/>
          <g id="g76843" stroke-width="0.5" stroke="#FFF" fill="none">
           <line id="line76845" x2="197.5" y1="109.44" x1="197.52" y2="123.93"/>
           <line id="line76847" x2="195.62" y1="108.18" x1="195.75" y2="126.78"/>
           <line id="line76849" x2="193.9" y1="107.4" x1="193.98" y2="128.3"/>
           <line id="line76851" x2="192.06" y1="106.74" x1="192.2" y2="129.57"/>
           <line id="line76853" x2="190.24" y1="106.32" x1="190.29" y2="130.24"/>
           <line id="line76855" x2="188.42" y1="105.67" x1="188.5" y2="130.67"/>
           <line id="line76857" x2="186.62" y1="105.25" x1="186.72" y2="130.86"/>
           <line id="line76859" x2="184.81" y1="104.84" x1="184.93" y2="131.04"/>
           <line id="line76861" x2="183" y1="104.54" x1="183.13" y2="131.23"/>
           <line id="line76863" x2="181.2" y1="104.25" x1="181.34" y2="131.42"/>
           <line id="line76865" x2="179.4" y1="103.95" x1="179.43" y2="131.49"/>
           <line id="line76867" x2="177.58" y1="103.53" x1="177.64" y2="131.92"/>
           <line id="line76869" x2="175.79" y1="103.24" x1="175.85" y2="131.62"/>
           <line id="line76871" x2="174.11" y1="102.94" x1="174.06" y2="131.69"/>
           <line id="line76873" x2="172.3" y1="102.65" x1="172.27" y2="131.88"/>
           <line id="line76875" x2="170.5" y1="102.48" x1="170.47" y2="131.71"/>
           <line id="line76877" x2="168.7" y1="102.18" x1="168.68" y2="131.77"/>
           <line id="line76879" x2="166.9" y1="102.01" x1="166.88" y2="131.96"/>
           <line id="line76881" x2="165.09" y1="101.59" x1="165.09" y2="132.03"/>
           <line id="line76883" x2="163.29" y1="101.66" x1="163.29" y2="131.98"/>
           <line id="line76885" x2="161.5" y1="101.36" x1="161.5" y2="131.92"/>
           <line id="line76887" x2="159.69" y1="101.31" x1="159.7" y2="131.99"/>
           <line id="line76889" x2="157.89" y1="101.02" x1="157.91" y2="132.18"/>
           <line id="line76891" x2="156.09" y1="100.84" x1="156.11" y2="132.13"/>
           <line id="line76893" x2="154.29" y1="100.79" x1="154.31" y2="132.07"/>
           <line id="line76895" x2="152.48" y1="100.5" x1="152.52" y2="132.14"/>
           <line id="line76897" x2="150.68" y1="100.56" x1="150.72" y2="132.21"/>
           <line id="line76899" x2="148.88" y1="100.51" x1="148.92" y2="132.15"/>
           <line id="line76901" x2="147.08" y1="100.09" x1="147.13" y2="132.1"/>
           <line id="line76903" x2="145.27" y1="100.16" x1="145.33" y2="132.41"/>
           <line id="line76905" x2="143.48" y1="99.867" x1="143.54" y2="132.12"/>
           <line id="line76907" x2="141.67" y1="99.934" x1="141.73" y2="132.42"/>
           <line id="line76909" x2="139.87" y1="99.76" x1="139.94" y2="132.37"/>
           <line id="line76911" x2="138.08" y1="99.707" x1="138.14" y2="132.2"/>
           <line id="line76913" x2="136.27" y1="99.533" x1="136.34" y2="132.38"/>
           <line id="line76915" x2="134.47" y1="99.479" x1="134.54" y2="132.45"/>
           <line id="line76917" x2="132.66" y1="99.667" x1="132.74" y2="132.52"/>
           <line id="line76919" x2="130.87" y1="99.373" x1="130.95" y2="132.34"/>
           <line id="line76921" x2="129.07" y1="99.44" x1="129.14" y2="132.41"/>
           <line id="line76923" x2="127.27" y1="99.387" x1="127.34" y2="132.36"/>
           <line id="line76925" x2="125.47" y1="99.334" x1="125.54" y2="132.19"/>
           <line id="line76927" x2="123.67" y1="99.281" x1="123.74" y2="132.25"/>
           <line id="line76929" x2="121.87" y1="99.469" x1="121.94" y2="132.2"/>
           <line id="line76931" x2="120.07" y1="99.415" x1="120.14" y2="132.27"/>
           <line id="line76933" x2="118.27" y1="99.362" x1="118.34" y2="132.21"/>
           <line id="line76935" x2="116.46" y1="99.429" x1="116.54" y2="132.52"/>
           <line id="line76937" x2="114.73" y1="132.47" x1="114.66" y2="99.497"/>
           <line id="line76939" x2="112.86" y1="99.443" x1="112.94" y2="132.42"/>
           <line id="line76941" x2="111.06" y1="99.39" x1="111.14" y2="132.36"/>
           <line id="line76943" x2="109.26" y1="99.454" x1="109.21" y2="132.31"/>
           <line id="line76945" x2="107.46" y1="99.525" x1="107.53" y2="132.26"/>
           <line id="line76947" x2="105.66" y1="99.592" x1="105.73" y2="132.2"/>
           <line id="line76949" x2="103.86" y1="99.539" x1="103.93" y2="132.15"/>
           <line id="line76951" x2="102.06" y1="99.486" x1="102.13" y2="132.1"/>
           <line id="line76953" x2="100.26" y1="99.674" x1="100.32" y2="132.04"/>
           <line id="line76955" x2="98.466" y1="99.621" x1="98.524" y2="131.99"/>
           <line id="line76957" x2="96.667" y1="99.688" x1="96.721" y2="131.94"/>
           <line id="line76959" x2="94.868" y1="99.876" x1="94.915" y2="131.88"/>
           <line id="line76961" x2="93.068" y1="99.947" x1="93.233" y2="131.83"/>
           <line id="line76963" x2="91.269" y1="100.01" x1="91.43" y2="131.78"/>
           <line id="line76965" x2="89.47" y1="100.08" x1="89.627" y2="131.72"/>
           <line id="line76967" x2="87.671" y1="100.27" x1="87.7" y2="131.67"/>
           <line id="line76969" x2="85.872" y1="100.34" x1="86.018" y2="131.62"/>
           <line id="line76971" x2="84.072" y1="100.41" x1="84.336" y2="131.56"/>
           <line id="line76973" x2="82.273" y1="100.35" x1="82.416" y2="131.51"/>
           <line id="line76975" x2="80.474" y1="100.51" x1="80.49" y2="131.46"/>
           <line id="line76977" x2="78.675" y1="100.68" x1="78.684" y2="131.4"/>
           <line id="line76979" x2="76.875" y1="100.96" x1="76.987" y2="131.35"/>
           <line id="line76981" x2="75.076" y1="101.14" x1="75.182" y2="131.3"/>
           <line id="line76983" x2="73.277" y1="101.42" x1="73.373" y2="131.24"/>
           <line id="line76985" x2="71.478" y1="101.59" x1="71.566" y2="131.19"/>
           <line id="line76987" x2="69.679" y1="101.76" x1="69.761" y2="131.14"/>
           <line id="line76989" x2="67.879" y1="102.05" x1="67.952" y2="131.08"/>
           <line id="line76991" x2="66.081" y1="102.22" x1="66.146" y2="131.03"/>
           <line id="line76993" x2="64.281" y1="102.73" x1="64.33" y2="130.98"/>
           <line id="line76995" x2="62.482" y1="103.01" x1="62.521" y2="130.92"/>
           <line id="line76997" x2="60.696" y1="103.3" x1="60.824" y2="130.42"/>
           <line id="line76999" x2="58.9" y1="103.92" x1="59.005" y2="130.26"/>
           <line id="line77001" x2="57.108" y1="104.32" x1="57.192" y2="129.98"/>
           <line id="line77003" x2="55.318" y1="104.94" x1="55.373" y2="129.59"/>
           <line id="line77005" x2="53.533" y1="105.34" x1="53.561" y2="129.08"/>
           <line id="line77007" x2="51.647" y1="106.07" x1="51.738" y2="128.13"/>
           <line id="line77009" x2="49.895" y1="106.92" x1="49.912" y2="126.5"/>
           <line id="line77011" x2="48.053" y1="108.78" x1="48.169" y2="124.08"/>
          </g>
          <line id="line77013" x1="114.73" x2="114.71" stroke="#FFF" y1="99.223" y2="132.55" fill="none"/>
          <g id="g77015" stroke-width="1.5" stroke="#FFF">
           <circle id="circle77017" d="m 121.864,115.4 c 0,4.00628 -3.24773,7.254 -7.254,7.254 -4.00627,0 -7.254,-3.24772 -7.254,-7.254 0,-4.00627 3.24773,-7.254 7.254,-7.254 4.00627,0 7.254,3.24773 7.254,7.254 z" cx="114.61" cy="115.4" r="7.254"/>
           <path id="path77019" d="M114.61,115.4"/>
          </g>
          <g id="g77021">
           <path id="path77023" d="m112.56,112.37,3.511,0.104s0.181,5.193-1.885,7.14c-1.952-1.898-1.626-7.244-1.626-7.244z" stroke="#FFF" stroke-width="0.5" fill="#FFF"/>
          </g>
          <g id="g77025">
           <path id="path77027" d="m115.44,111.28,3.512,0.104s0.181,5.193-1.885,7.141c-1.952-1.9-1.627-7.245-1.627-7.245z" stroke-width="0.5" stroke="#FFF"/>
          </g>
          <g id="g77029">
           <path id="path77031" d="m109.7,112.96,3.512,0.104s0.181,5.193-1.885,7.141c-1.952-1.9-1.627-7.245-1.627-7.245z" stroke-width="0.5" stroke="#FFF"/>
          </g>
          <path id="path77033" d="m217.17,105.85c-6.732,0.945-9.931,6.999-11.155,11.825-1.223,4.826-0.835,9.97,8.888,9.987,9.724,0.018,60.811-1.17,70.018-1.979,9.208-0.808,10.366-6.34,7.646-11.929-2.801-5.755-7.023-9.122-21.048-9.807-12.674-0.619-43.228,0.341-54.349,1.903z" fill="#FFF" stroke="#000"/>
          <path id="path77035" d="m9.879,104.98c-1.922,6.412-3.103,13.549,0.21,20.265,0,0,22.261,0.794,27.936,0.692,5.676-0.102,5.827-5.229,3.59-11.778s-2.681-9.804-13.206-10.115c-10.525-0.312-18.53,0.936-18.53,0.936z" fill="#FFF" stroke="#000"/>
          <path id="path77037" d="m253.41,104.09c-3.097,4.23-5.917,17.382-1.481,22.646" fill="none" stroke="#000"/>
          <g id="g77039" stroke-width="0.5" stroke="#FFF" fill="none">
           <line id="line77041" x2="283.71" y1="106.68" x1="254.28" y2="107.28"/>
           <line id="line77043" x2="287.53" y1="109.62" x1="253.12" y2="110.36"/>
           <line id="line77045" x2="290.41" y1="112.55" x1="251.95" y2="113.42"/>
           <line id="line77047" x2="291.54" y1="116.05" x1="251.57" y2="116.29"/>
           <line id="line77049" x2="292.28" y1="119.14" x1="250.94" y2="118.88"/>
           <line id="line77051" x2="291.24" y1="122.81" x1="251.78" y2="121.82"/>
           <line id="line77053" x2="217.67" y1="106.44" x1="250.64" y2="107.08"/>
           <line id="line77055" x2="209.52" y1="112.46" x1="248.98" y2="113.32"/>
           <line id="line77057" x2="208" y1="122.99" x1="248.53" y2="123.41"/>
           <line id="line77059" x2="207.75" y1="117.7" x1="248.01" y2="118.13"/>
          </g>
          <g id="g77061" stroke-width="0.5" stroke="#000" fill="none">
           <line id="line77063" x2="283.68" y1="107.49" x1="254.26" y2="108.09"/>
           <line id="line77065" x2="287.51" y1="110.43" x1="253.09" y2="111.18"/>
           <line id="line77067" x2="290.39" y1="113.36" x1="251.92" y2="114.23"/>
           <line id="line77069" x2="291.52" y1="116.86" x1="251.55" y2="117.1"/>
           <line id="line77071" x2="292.25" y1="119.95" x1="250.92" y2="119.69"/>
           <line id="line77073" x2="291.22" y1="123.62" x1="251.75" y2="122.63"/>
           <line id="line77075" x2="217.65" y1="107.25" x1="250.62" y2="107.89"/>
           <line id="line77077" x2="209.49" y1="113.27" x1="248.96" y2="114.13"/>
           <line id="line77079" x2="207.98" y1="123.8" x1="248.51" y2="124.22"/>
           <line id="line77081" x2="207.73" y1="118.51" x1="247.99" y2="118.94"/>
          </g>
          <line id="line77083" stroke-width="0.5" x1="35.711" x2="10.432" stroke="#FFF" y1="105.98" y2="106.35" fill="none"/>
          <line id="line77085" stroke-width="0.5" x1="39.419" x2="9.174" stroke="#FFF" y1="111.22" y2="111.88" fill="none"/>
          <line id="line77087" stroke-width="0.5" x1="41.561" x2="9.496" stroke="#FFF" y1="121.44" y2="121.07" fill="none"/>
          <line id="line77089" stroke-width="0.5" x1="41.253" x2="8.802" stroke="#FFF" y1="115.88" y2="116.24" fill="none"/>
          <line id="line77091" stroke-width="0.5" x1="35.69" x2="10.41" stroke="#000" y1="106.71" y2="107.08" fill="none"/>
          <line id="line77093" stroke-width="0.5" x1="39.397" x2="9.152" stroke="#000" y1="111.95" y2="112.61" fill="none"/>
          <line id="line77095" stroke-width="0.5" x1="41.54" x2="9.475" stroke="#000" y1="122.17" y2="121.8" fill="none"/>
          <line id="line77097" stroke-width="0.5" x1="41.231" x2="8.78" stroke="#000" y1="116.61" y2="116.97" fill="none"/>
          <path id="path77099" d="m13.26,104.81c-2.001,3.723-2.614,15.319,0.218,19.995" fill="none" stroke="#000"/>
          <path id="path77101" d="m32.826,174.62c6.41,1.667,24.032-0.513,54.194,2.542,30.163,3.054,59.08,2.56,86.965,0.414s81.861-0.547,96.934,1.25,19.098,2.727,23.209,0.688" stroke="#000" stroke-width="1.5" fill="none"/>
          <path id="path77103" d="m327.33,7.442c2.611,7.613,10.793,34.597,10.081,58.644,0,0-42.978-12.699-88.11-13.063s-123.84,0.709-146.7,6.596c15.539-21.906,57.254-45.278,64.912-48.455,17.175-5.326,26.908-4.498,59.546-5.233,32.639-0.735,89.665,0.468,100.27,1.511z"/>
          <path id="path77105" d="m333.94,9.096c5.229,12.639,10.346,29.083,9.625,53.394,14.867,2.556,48.616,5.249,60.258-2.447-9.47-16.362-29.95-39.608-43.23-46.772-13.27-7.165-26.65-4.175-26.65-4.175z" stroke="#FFF" stroke-width="0.5" fill="none"/>
          <path id="path77107" d="m325.84,9.292c2.492,7.052,10.306,32.044,9.646,54.309,0,0-43.767-11.875-86.75-12.248-42.982-0.373-119.99,0.499-141.76,5.932,14.781-20.271,53.449-41.411,60.739-44.346,16.353-4.918,28.722-4.552,59.805-5.207,31.082-0.656,88.22,0.585,98.321,1.56z" stroke="#FFF" stroke-width="0.5" fill="none"/>
          <path id="path77109" d="m349.68,9.359s27.173,26.465,38.074,55.15" stroke="#FFF" stroke-width="0.5" fill="none"/>
          <path id="path77111" d="m352.63,10.122s26.261,25.358,37.161,54.043" stroke="#FFF" stroke-width="0.5" fill="none"/>
          <path id="path77113" d="m342.86,43.462c1.298,1.794,4.007,6.061,4.908,7.573,0.9,1.512,2.516,1.695,4.048,0.12s7.525-3.289,13.582-2.569c6.056,0.72,15.227,5.718,14.42,10.151-0.806,4.433-1.255,5.905-11.519,5.872-10.263-0.034-14.137-1.499-15.299-3.29-1.162-1.79-2.297-4.525-2.88-3.057-0.584,1.469-1.097,5.1-3.648,4.619" stroke="#FFF" stroke-width="0.5" fill="none"/>
          <path id="path77115" d="m352.74,51.858c3.699-1.781,11.169-3.181,15.308-1.573s11.977,6.027,10.678,8.825c-1.298,2.798-8.954,1.355-15.562,1.025s-9.684-1.367-10.326-2.467c0,0,5.909,1.121,11.708,1.427s9.053-0.137,9.498-1.475-3.364-4.961-6.448-5.728c-3.085-0.766-9.407-1.629-14.856-0.034z" fill="#FFF"/>
          <path id="path77117" d="m405.01,170.5c-11.049-0.867-22.36-2.013-30.766-0.911s-16.853,3.552-16.853,3.552" stroke="#000" stroke-width="1.5" fill="none"/>
          <g id="g77119">
           <g id="g77121" fill="#FFF">
            <ellipse id="ellipse77123" d="m 370.345,164.63 c 0,9.75446 -16.84529,17.66201 -37.625,17.66201 -20.77971,0 -37.625,-7.90755 -37.625,-17.66201 0,-9.75445 16.84529,-17.662 37.625,-17.662 20.77971,0 37.625,7.90755 37.625,17.662 z" cx="332.72" cy="164.63" rx="37.625" ry="17.662" transform="matrix(-0.0296,0.9996,-0.9996,-0.0296,507.1277,-163.0685)"/>
            <path id="path77125" d="M332.72,164.63"/>
           </g>
           <g id="g77127" stroke-width="0.5" stroke="#000" fill="none">
            <ellipse id="ellipse77129" d="m 367.335,164.63 c 0,8.97408 -15.49766,16.24901 -34.615,16.24901 -19.11734,0 -34.615,-7.27493 -34.615,-16.24901 0,-8.97407 15.49766,-16.249 34.615,-16.249 19.11734,0 34.615,7.27493 34.615,16.249 z" cx="332.72" cy="164.63" rx="34.615" ry="16.249" transform="matrix(-0.0296,0.9996,-0.9996,-0.0296,507.1254,-163.0697)"/>
            <path id="path77131" d="M332.72,164.63"/>
           </g>
           <path id="path77133" d="m334.1,195.46c-2.03,0.615-4.08,0.328-6.009-0.833,0.909-1.831,1.166-3.291,2.5-5.267,1.401-2.073,3.185,3.998,3.509,6.1z" stroke-width="0.5" stroke="#000"/>
           <path id="path77135" d="m330.47,189.47s4.538-4.543,6.552-7.262c1.257-1.551-2.527,4.609-2.926,13.25" stroke="#000" stroke-width="0.5" fill="none"/>
           <g id="g77137" stroke-width="2" stroke="#FFF" fill="none">
            <ellipse id="ellipse77139" d="m 377.03001,164.21001 c 0,11.44223 -19.60993,20.718 -43.8,20.718 -24.19007,0 -43.8,-9.27577 -43.8,-20.718 0,-11.44224 19.60993,-20.718 43.8,-20.718 24.19007,0 43.8,9.27576 43.8,20.718 z" cx="333.23" cy="164.21" rx="43.8" ry="20.718" transform="matrix(-0.0296,0.9996,-0.9996,-0.0296,507.2312,-164.0084)"/>
            <path id="path77141" d="M333.23,164.21"/>
           </g>
           <g id="g77143" stroke-width="0.5" stroke="#000" fill="none">
            <ellipse id="ellipse77145" d="m 352.07699,164.48 c 0,4.48731 -7.74861,8.125 -17.307,8.125 -9.55839,0 -17.307,-3.63769 -17.307,-8.125 0,-4.48732 7.74861,-8.125 17.307,-8.125 9.55839,0 17.307,3.63768 17.307,8.125 z" cx="334.77" cy="164.48" rx="17.307" ry="8.125" transform="matrix(-0.0296,0.9996,-0.9996,-0.0296,509.0835,-165.2826)"/>
            <path id="path77147" d="M334.77,164.48"/>
           </g>
           <g id="g77149" stroke-width="0.5" stroke="#000" fill="none">
            <ellipse id="ellipse77151" d="m 343.42399,164.48 c 0,2.24338 -3.87453,4.062 -8.654,4.062 -4.77947,0 -8.654,-1.81862 -8.654,-4.062 0,-2.24338 3.87453,-4.062 8.654,-4.062 4.77947,0 8.654,1.81862 8.654,4.062 z" cx="334.77" cy="164.48" rx="8.654" ry="4.062" transform="matrix(-0.0296,0.9996,-0.9996,-0.0296,509.0928,-165.2777)"/>
            <path id="path77153" d="M334.77,164.48"/>
           </g>
           <g id="g77155">
            <path id="path77157" d="m333.74,161.46,2.069,0.061s0.035,5.492-1.211,7.581c-1.125-1.982-0.858-7.642-0.858-7.642z" stroke="#000" stroke-width="0.5" fill="none"/>
           </g>
           <g id="g77159">
            <path id="path77161" d="m335.46,160.27,2.069,0.062s0.035,5.492-1.21,7.581c-1.126-1.982-0.859-7.643-0.859-7.643z" stroke="#000" stroke-width="0.5" fill="#808080"/>
           </g>
           <g id="g77163">
            <path id="path77165" d="m332.05,162.12,2.07,0.061s0.035,5.492-1.211,7.581c-1.125-1.982-0.859-7.642-0.859-7.642z" stroke="#000" stroke-width="0.5" fill="#808080"/>
           </g>
           <path id="path77167" d="m341.37,189.37c-1.661,2.654-3.554,4.568-5.548,5.621,0.374-2.499,0.254-3.997,0.971-7.064,0.753-3.221,3.788,0.013,4.577,1.443z" stroke-width="0.5" stroke="#000"/>
           <path id="path77169" d="m336.71,188.14s3.142-6.697,4.288-11.105c0.749-2.628-1.337,4.638,0.367,12.333" stroke="#000" stroke-width="0.5" fill="none"/>
           <path id="path77171" d="m346.39,176.6c-0.846,3.981-2.075,7.584-3.599,10.568-0.263-2.496-0.726-3.632-0.818-6.969-0.097-3.504,3.374-3.972,4.417-3.599z" stroke-width="0.5" stroke="#000"/>
           <path id="path77173" d="m341.95,180.46s1.387-7.042,1.356-11.959c0.041-3-0.27,3.41,3.079,8.096" stroke="#000" stroke-width="0.5" fill="none"/>
           <path id="path77175" d="m347.81,160.56c0.195,4.242-0.041,8.567-0.687,12.683-0.829-1.825-1.511-2.293-2.389-5.006-0.92-2.848,2.059-6.894,3.076-7.677z" stroke-width="0.5" stroke="#000"/>
           <path id="path77177" d="m344.79,168.48s-0.259-5.487-1.457-9.594c-0.678-2.569,0.387,1.254,4.485,1.676" stroke="#000" stroke-width="0.5" fill="none"/>
           <path id="path77179" d="m345.26,145.56c1.184,3.366,2.005,7.256,2.41,11.401-1.172-0.665-1.892-0.341-3.319-1.703-1.498-1.429,0.19-7.969,0.909-9.698z" stroke-width="0.5" stroke="#000"/>
           <path id="path77181" d="m344.46,155.41s-1.352-2.446-3.397-4.644c-1.216-1.449,0.458-1.252,4.207-5.208" stroke="#000" stroke-width="0.5" fill="none"/>
           <path id="path77183" d="m339.42,135.61c1.856,1.588,3.513,4,4.861,7.063-1.202,0.673-1.765,1.703-3.359,2.058-1.674,0.372-1.73-6.909-1.502-9.121z" stroke-width="0.5" stroke="#000"/>
           <path id="path77185" d="m341.05,144.76s-1.601,1.264-3.945,1.565c-1.428,0.059-0.076-3.438,2.319-10.71" stroke="#000" stroke-width="0.5" fill="none"/>
           <path id="path77187" d="m331.85,133.38c2.03-0.616,4.08-0.328,6.01,0.833-0.91,1.831-1.166,3.291-2.501,5.267-1.401,2.074-3.185-3.998-3.509-6.1z" stroke-width="0.5" stroke="#000"/>
           <path id="path77189" d="m335.48,139.37s-0.939,4.649-2.954,7.368c-1.256,1.551-1.071-4.716-0.672-13.357" stroke="#000" stroke-width="0.5" fill="none"/>
           <path id="path77191" d="m324.58,139.48c1.661-2.654,3.554-4.568,5.548-5.621-0.374,2.498-0.254,3.997-0.971,7.064-0.754,3.221-3.788-0.014-4.577-1.443z" stroke-width="0.5" stroke="#000"/>
           <path id="path77193" d="m329.23,140.7s0.457,6.804-0.689,11.212c-0.749,2.628-2.261-4.745-3.965-12.439" stroke="#000" stroke-width="0.5" fill="none"/>
           <path id="path77195" d="m319.56,152.25c0.846-3.981,2.075-7.584,3.6-10.568,0.263,2.496,0.726,3.632,0.818,6.969,0.097,3.503-3.375,3.972-4.418,3.599z" stroke-width="0.5" stroke="#000"/>
           <path id="path77197" d="m323.99,148.39s2.212,7.149,2.242,12.065c-0.041,3-3.328-3.517-6.678-8.203" stroke="#000" stroke-width="0.5" fill="none"/>
           <path id="path77199" d="m318.13,168.28c-0.195-4.242,0.041-8.568,0.687-12.684,0.828,1.825,1.511,2.294,2.388,5.007,0.921,2.848-2.058,6.894-3.075,7.677z" stroke-width="0.5" stroke="#000"/>
           <path id="path77201" d="m321.16,160.37s3.857,5.593,5.055,9.7c0.678,2.569-3.985-1.36-8.083-1.783" stroke="#000" stroke-width="0.5" fill="none"/>
           <path id="path77203" d="m320.68,183.29c-1.185-3.366-2.005-7.256-2.41-11.401,1.172,0.665,1.892,0.341,3.318,1.703,1.498,1.429-0.19,7.969-0.908,9.698z" stroke-width="0.5" stroke="#000"/>
           <path id="path77205" d="m321.49,173.44s4.951,2.553,6.996,4.751c1.216,1.449-4.057,1.146-7.805,5.101" stroke="#000" stroke-width="0.5" fill="none"/>
           <path id="path77207" d="m326.53,193.23c-1.856-1.588-3.513-4-4.861-7.063,1.202-0.673,1.765-1.703,3.36-2.058,1.674-0.372,1.729,6.909,1.501,9.121z" stroke-width="0.5" stroke="#000"/>
           <path id="path77209" d="m324.9,184.09s5.2-1.157,7.544-1.458c1.427-0.059-3.523,3.331-5.917,10.604" stroke="#000" stroke-width="0.5" fill="none"/>
          </g>
          <g id="g77211">
           <g id="g77213" fill="#FFF">
            <ellipse id="ellipse77215" d="m 449.93701,147.11 c 0,2.66643 -11.37063,4.828 -25.397,4.828 -14.02638,0 -25.397,-2.16157 -25.397,-4.828 0,-2.66643 11.37062,-4.828 25.397,-4.828 14.02637,0 25.397,2.16157 25.397,4.828 z" cx="424.54" cy="147.11" rx="25.397" ry="4.828" transform="matrix(5.960027e-4,1,-1,5.960027e-4,571.3917,-277.5209)"/>
            <path id="path77217" d="M424.54,147.11"/>
           </g>
           <g id="g77219" stroke-width="0.5" stroke="#000" fill="none">
            <ellipse id="ellipse77221" d="m 447.90501,147.11 c 0,2.45325 -10.46087,4.442 -23.365,4.442 -12.90413,0 -23.365,-1.98875 -23.365,-4.442 0,-2.45325 10.46087,-4.442 23.365,-4.442 12.90413,0 23.365,1.98875 23.365,4.442 z" cx="424.54" cy="147.11" rx="23.365" ry="4.442" transform="matrix(6.060163e-4,1,-1,6.060163e-4,571.3875,-277.5224)"/>
            <path id="path77223" d="M424.54,147.11"/>
           </g>
           <path id="path77225" d="m425.18,167.88c-0.55,0.456-1.112,0.303-1.649-0.441,0.233-1.254,0.291-2.244,0.639-3.604,0.364-1.427,0.903,2.633,1.01,4.045z" stroke-width="0.5" stroke="#000"/>
           <path id="path77227" d="m424.14,163.91s1.202-3.156,1.729-5.031c0.33-1.072-0.651,3.161-0.687,8.999" stroke="#000" stroke-width="0.5" fill="none"/>
           <g id="g77229" stroke-width="2" stroke="#FFF" fill="none">
            <ellipse id="ellipse77231" d="m 454.23501,146.81 c 0,3.12814 -13.2367,5.664 -29.565,5.664 -16.3283,0 -29.565,-2.53586 -29.565,-5.664 0,-3.12814 13.2367,-5.664 29.565,-5.664 16.3283,0 29.565,2.53586 29.565,5.664 z" cx="424.67" cy="146.81" rx="29.565" ry="5.664" transform="matrix(5.945722e-4,1,-1,5.945722e-4,571.235,-277.9483)"/>
            <path id="path77233" d="M424.67,146.81"/>
           </g>
           <g id="g77235" stroke-width="0.5" stroke="#000" fill="none">
            <ellipse id="ellipse77237" d="m 436.78201,146.96001 c 0,1.22662 -5.23021,2.221 -11.682,2.221 -6.45179,0 -11.682,-0.99438 -11.682,-2.221 0,-1.22663 5.23021,-2.221 11.682,-2.221 6.45179,0 11.682,0.99437 11.682,2.221 z" cx="425.1" cy="146.96" rx="11.682" ry="2.221" transform="matrix(6.060163e-4,1,-1,6.060163e-4,571.8005,-278.2286)"/>
            <path id="path77239" d="M425.1,146.96"/>
           </g>
           <g id="g77241" stroke-width="0.5" stroke="#000" fill="none">
            <ellipse id="ellipse77243" d="m 426.21101,146.96001 c 0,3.22589 -0.49742,5.841 -1.111,5.841 -0.61359,0 -1.111,-2.61511 -1.111,-5.841 0,-3.2259 0.49741,-5.841 1.111,-5.841 0.61358,0 1.111,2.6151 1.111,5.841 z" cx="425.1" rx="1.111" cy="146.96" ry="5.841"/>
            <path id="path77245" d="M425.1,146.96"/>
           </g>
           <g id="g77247">
            <path id="path77249" d="m424.79,144.95,0.566,0s0.056,3.705-0.267,5.139c-0.324-1.315-0.299-5.139-0.299-5.139z" stroke="#000" stroke-width="0.5" fill="none"/>
           </g>
           <g id="g77251">
            <path id="path77253" d="m425.25,144.11,0.566,0s0.056,3.705-0.267,5.139c-0.324-1.315-0.299-5.139-0.299-5.139z" stroke="#000" stroke-width="0.5" fill="#808080"/>
           </g>
           <g id="g77255">
            <path id="path77257" d="m424.33,145.42h0.566s0.056,3.705-0.266,5.139c-0.324-1.315-0.3-5.139-0.3-5.139z" stroke="#000" stroke-width="0.5" fill="#808080"/>
           </g>
           <path id="path77259" d="m427.11,163.62c-0.431,1.824-0.932,3.153-1.468,3.904,0.081-1.693,0.036-2.702,0.206-4.786,0.178-2.189,1.034-0.067,1.262,0.882z" stroke-width="0.5" stroke="#000"/>
           <path id="path77261" d="m425.83,162.89s0.802-4.582,1.077-7.579c0.183-1.788-0.326,3.156,0.205,8.314" stroke="#000" stroke-width="0.5" fill="none"/>
           <path id="path77263" d="m428.38,154.9c-0.197,2.703-0.502,5.158-0.894,7.202-0.093-1.679-0.229-2.436-0.283-4.685-0.055-2.362,0.889-2.748,1.177-2.517z" stroke-width="0.5" stroke="#000"/>
           <path id="path77265" d="m427.2,157.6s0.319-4.78,0.269-8.096c-0.014-2.025-0.045,2.306,0.91,5.401" stroke="#000" stroke-width="0.5" fill="none"/>
           <path id="path77267" d="m428.63,144.06c0.089,2.858,0.062,5.781-0.08,8.571-0.242-1.215-0.433-1.518-0.695-3.33-0.276-1.903,0.504-4.692,0.775-5.241z" stroke-width="0.5" stroke="#000"/>
           <path id="path77269" d="m427.87,149.46s-0.118-3.697-0.479-6.443c-0.208-1.72,0.116,0.838,1.239,1.041" stroke="#000" stroke-width="0.5" fill="none"/>
           <path id="path77271" d="m427.8,133.98c0.352,2.247,0.609,4.855,0.755,7.643-0.326-0.425-0.52-0.192-0.921-1.082-0.422-0.934-0.016-5.38,0.166-6.561z" stroke-width="0.5" stroke="#000"/>
           <path id="path77273" d="m427.67,140.65s-0.391-1.624-0.968-3.065c-0.345-0.953,0.114-0.854,1.105-3.598" stroke="#000" stroke-width="0.5" fill="none"/>
           <path id="path77275" d="m426.12,127.39c0.521,1.034,0.994,2.628,1.388,4.667-0.323,0.479-0.468,1.185-0.9,1.457-0.455,0.284-0.532-4.627-0.488-6.124z" stroke-width="0.5" stroke="#000"/>
           <path id="path77277" d="m426.65,133.53s-0.427,0.885-1.065,1.135c-0.389,0.069-0.05-2.317,0.543-7.272" stroke="#000" stroke-width="0.5" fill="none"/>
           <path id="path77279" d="m424.04,126.04c0.55-0.456,1.112-0.303,1.649,0.441-0.233,1.254-0.291,2.244-0.639,3.604-0.365,1.427-0.904-2.633-1.01-4.045z" stroke-width="0.5" stroke="#000"/>
           <path id="path77281" d="m425.08,130.01s-0.217,3.156-0.745,5.031c-0.33,1.072-0.333-3.16-0.297-8.999" stroke="#000" stroke-width="0.5" fill="none"/>
           <path id="path77283" d="m422.1,130.3c0.431-1.824,0.932-3.153,1.468-3.904-0.081,1.693-0.036,2.702-0.206,4.786-0.177,2.188-1.034,0.067-1.262-0.882z" stroke-width="0.5" stroke="#000"/>
           <path id="path77285" d="m423.38,131.03s0.183,4.582-0.093,7.579c-0.182,1.788-0.658-3.156-1.189-8.313" stroke="#000" stroke-width="0.5" fill="none"/>
           <path id="path77287" d="m420.84,139.02c0.197-2.704,0.502-5.159,0.894-7.203,0.093,1.679,0.229,2.436,0.283,4.686,0.056,2.362-0.889,2.748-1.177,2.517z" stroke-width="0.5" stroke="#000"/>
           <path id="path77289" d="m422.02,136.32s0.665,4.779,0.715,8.095c0.015,2.025-0.939-2.305-1.894-5.4" stroke="#000" stroke-width="0.5" fill="none"/>
           <path id="path77291" d="m420.58,149.86c-0.089-2.858-0.062-5.781,0.08-8.571,0.242,1.215,0.433,1.517,0.695,3.33,0.276,1.903-0.504,4.692-0.775,5.241z" stroke-width="0.5" stroke="#000"/>
           <path id="path77293" d="m421.34,144.46s1.102,3.696,1.464,6.443c0.207,1.72-1.101-0.837-2.224-1.04" stroke="#000" stroke-width="0.5" fill="none"/>
           <path id="path77295" d="m421.41,159.94c-0.352-2.248-0.609-4.855-0.755-7.644,0.326,0.425,0.52,0.192,0.921,1.082,0.421,0.934,0.015,5.38-0.166,6.562z" stroke-width="0.5" stroke="#000"/>
           <path id="path77297" d="m421.55,153.27s1.375,1.623,1.952,3.064c0.344,0.953-1.099,0.855-2.089,3.599" stroke="#000" stroke-width="0.5" fill="none"/>
           <path id="path77299" d="m423.09,166.53c-0.521-1.034-0.994-2.628-1.388-4.667,0.323-0.479,0.468-1.185,0.9-1.456,0.454-0.286,0.531,4.625,0.488,6.123z" stroke-width="0.5" stroke="#000"/>
           <path id="path77301" d="m422.57,160.39s1.411-0.886,2.049-1.136c0.39-0.068-0.935,2.318-1.527,7.273" stroke="#000" stroke-width="0.5" fill="none"/>
          </g>
          <path id="path77303" d="m161.12,47.567c-7.666,0.448-31.347,1.998-36.56,3.194,13.749-15.8,29.878-28.377,41.891-31.173,11.219-2.611,19.891-2.788,19.891-2.788s-15.569,16.422-25.222,30.767z" fill="#FFF"/>
          <path id="path77305" d="m196.7,16.658s12.819,0.379,17.383,5.917c0,0-6.432,11.964-7.928,16.873-8.083-0.69-14.322,4.753-15.486,6.069l-6.747-0.2s-0.462-7.217-2.936-7.29c2.872-5.768,15.714-21.369,15.714-21.369z" fill="#FFF"/>
          <path id="path77307" d="m327.99,37.652c-0.264-6.311-2.22-16.273-5.255-20.189,0,0-67.477-1.773-88.81,4.123,0,0-1.788,7.15-2.53,17.032,9.221,0.273,9.491,6.358,9.491,6.358s16.894-0.4,29.951-0.463c13.058-0.063,29.7,0.429,29.7,0.429l-0.159-2.256c0.107-3.597,15.883-4.255,27.612-5.034z" fill="#FFF"/>
          <path id="path77309" d="m107.73,52.964c-5.07,0.188-19.005,7.091-14.703,10.032,8.656-3.457,11.652-5.845,14.703-10.032z"/>
          <path id="path77311" d="m59.875,133.37c-8.968-0.879-14.156-3.997-15.655-11.043-1.976-9.288-2.629-17.636,9.397-20.881,12.026-3.246,44.743-5.878,65.222-5.722s61.139,2.936,70.968,5.478,16.218,7.233,12.955,18.616-3.807,14.519-25.662,15.222c-21.854,0.704-97.474,0.266-117.22-1.67z" stroke="#000" stroke-width="0.5" fill="none"/>
          <path id="path77313" d="m10.108,126.49,29.012,0.859c4.048,0.12,6.714,1.324,9.353,3.428s0.978,4.981,62.416,5.45c61.437,0.469,87.081,2.446,90.696-6.993,4.428-11.563,1.188-17.297,8.61-24.731,8.882-8.894,38.438-28.575,75.944-33.316s55.605-5.377,55.605-5.377c14.875-0.247,16.976,19.733,14.11,55.896,2.752,4.029,5.064,16.838,4.3,42.655,0,0,30.622-3.938,49.638-9.835" stroke="#000" stroke-width="0.5" fill="none"/>
          <path id="path77315" d="m200.65,130.34c2.084-1.964,4.333-1.897,9.499-1.52s62.152-0.861,71.625-1.48c9.473-0.62,25.48-1.497,28.827-0.497s3.763,2.137,3.763,2.137" stroke="#000" stroke-width="0.5" fill="none"/>
          <path id="path77317" d="m311.55,133.18c-18.778,2.806-91.99,4.69-101.66,4.403-9.67-0.286-11.483,0.11-14.03,2.511s-12.714,3.675-19.931,4.137c-7.216,0.462-37.214,2.5-67.576,1.601-30.361-0.899-45.191-1.789-54.849-2.525-9.657-0.736-9.61-2.31-11.37-3.713-1.759-1.403-2.599-3.454-10.92-3.7-8.321-0.247-28.985-1.759-28.985-1.759" stroke="#000" stroke-width="0.5" fill="none"/>
          <path id="path77319" d="m9.962,161.83c21.604,0.189,53.856,5.646,76.306,7.662,22.45,2.015,65.261,0.582,86.917-1.028,21.657-1.61,59.043-2.303,86.931-1.478,27.887,0.826,40.055,0.288,48.208-1.274" stroke="#000" stroke-width="0.5" fill="none"/>
          <path id="path77321" d="m312.17,134.76c-10.187,1.949-50.55,4.355-106.62,4.946l-3.58,6.872c68.621,1.131,112.26-5.455,112.26-5.455" stroke="#000" stroke-width="0.5" fill="none"/>
          <path id="path77323" d="m313.45,137.05c-10.187,1.949-52.971,4.396-109.04,4.987" stroke="#000" stroke-width="0.5" fill="none"/>
          <path id="path77325" d="m314.06,139.1c-10.187,1.949-56.758,4.959-110.78,4.992" stroke="#000" stroke-width="0.5" fill="none"/>
          <path id="path77327" d="m1.319,135.26c1.598,0.585,27.388,2.247,32.395,2.843l3.553,7.283c-7.886-0.32-32.808-1.41-34.571-2.27" stroke="#000" stroke-width="0.5" fill="none"/>
          <path id="path77329" d="m0.884,137.85c1.598,0.586,28.654,1.925,33.668,2.253" stroke="#000" stroke-width="0.5" fill="none"/>
          <path id="path77331" d="m1.516,140.74c1.598,0.585,29.372,1.946,34.386,2.274" stroke="#000" stroke-width="0.5" fill="none"/>
          <path id="path77333" d="M43.387,117.48c-2.275-14.06-4.633-37.459,43.775-52.228" stroke="#000" stroke-width="0.5" fill="none"/>
          <path id="path77335" d="m182.8,99.718c3.396,0.459,35.897-12.395,40.738-12.252,4.841,0.144-25.73,14.491-21.782,20.529" stroke="#000" stroke-width="0.5" fill="none"/>
          <path id="path77337" d="m278.18,72.216s33.432-1.881,50.708-3.523,20.038,2.029,18.117,6.279c-1.92,4.25-15.652,7.432-34.415,10.824s-31.092,7.692-39.268,17.14c10.036-5.624,21.3-10.315,30.286-10.767,8.985-0.451,21.937-1.503,30.248-3.411s16.948-2.728,22.675-2.2c5.726,0.528,25.164-1.408,31.977-1.207s43.756,0.937,44.176,10.998" stroke="#000" stroke-width="0.5" fill="none"/>
          <path id="path77339" d="m294.26,123.3s13.32-1.4,16.242-3.108,11.575-27.292,24.842-26.899,16.375,16.635,15.645,29.174l66.67-9.331c1.798-0.126,2.002-19.142,8.815-18.94s5.607,16.675,3.74,19.132" stroke="#000" stroke-width="0.5" fill="none"/>
          <path id="path77341" d="m352.14,131.83s3.944,0.117,8.985-0.452l58.001-7.434" stroke="#000" stroke-width="0.5" fill="none"/>
          <path id="path77343" d="m353.35,133.48s3.944,0.117,8.986-0.452l56.556-7.118" stroke="#000" stroke-width="0.5" fill="none"/>
          <path id="path77345" d="m354.56,135.13s3.944,0.117,8.986-0.452l55.122-7.161" stroke="#000" stroke-width="0.5" fill="none"/>
          <path id="path77347" d="m354.33,136.74s3.944,0.117,8.986-0.452l55.296-6.976" stroke="#000" stroke-width="0.5" fill="none"/>
          <path id="path77349" d="m419.2,103.31c1.341-8.933,2.457-22.358-0.29-26.566s-9.084-8.344-12.283-15.437" stroke="#000" stroke-width="0.5" fill="none"/>
          <path id="path77351" d="m390.69,66.396c3.306,3.507,7.865,13.153,7.309,25.877s-2.33,24.156-2.33,24.156c3.11,4.04,0.024,35.531-1.422,41.948" stroke="#000" stroke-width="0.5" fill="none"/>
          <path id="path77353" d="m201.97,146.58c-4.234,6.335-33.09,11.223-90.483,10.241s-70.667-4.156-74.22-11.439" stroke="#000" stroke-width="0.5" fill="none"/>
          <path id="path77355" d="m430.36,120.33s4.487-0.046,4.714-1.655" stroke="#000" stroke-width="0.5" fill="none"/>
          <path id="path77357" d="m429.95,122.29s4.487-0.046,4.714-1.655" stroke="#000" stroke-width="0.5" fill="none"/>
          <path id="path77359" d="m431.14,124.3s3.043,0.192,3.272-1.429" stroke="#000" stroke-width="0.5" fill="none"/>
          <path id="path77361" d="m430.73,126.08s3.125,0.541,3.352-1.067" stroke="#000" stroke-width="0.5" fill="none"/>
          <g id="g77363" stroke-width="0.5" stroke="#000">
           <path id="path77365" d="m387.66,80.482c-0.443-0.193-0.779-0.562-1.058-0.211-0.28,0.351,0.3,1.983,0.909,2.629s1.595,0.675,2.313,0.696c0.717,0.021,2.507,0.164,2.961-0.002,0.453-0.166,0.651-0.788,0.651-0.788s-3.342-0.02-3.97-0.039-1.331-0.488-1.41-0.849-0.396-1.436-0.396-1.436z"/>
           <path id="path77367" d="m386.85,80.17,5.287,0.1c0.84,0.138,1.101,0.82,1.164,2.511" fill="none"/>
           <path id="path77369" d="m387.78,83.236c0.292,1.528,0.667,2.158,1.398,2.18s2.873-0.083,3.547-0.063,0.147-1.178-0.063-1.69" fill="none"/>
          </g>
          <g id="g77371" stroke-width="0.5" stroke="#000">
           <path id="path77373" d="m414.81,80.215c-0.398-0.173-0.701-0.505-0.952-0.19-0.252,0.315,0.27,1.785,0.818,2.366s1.436,0.607,2.081,0.626,2.257,0.148,2.665-0.001c0.409-0.149,0.586-0.709,0.586-0.709s-3.008-0.018-3.572-0.035c-0.565-0.017-1.198-0.439-1.27-0.764-0.071-0.325-0.356-1.293-0.356-1.293z"/>
           <path id="path77375" d="m414.08,79.935,4.758,0.09c0.756,0.124,0.991,0.739,1.047,2.26" fill="none"/>
           <path id="path77377" d="m414.92,82.694c0.263,1.375,0.601,1.942,1.259,1.962s2.585-0.075,3.192-0.058c0.607,0.018,0.132-1.06-0.057-1.521" fill="none"/>
          </g>
         </g>
        </g>
       </g>
      </g>
     </g>
    </g>
   </g>
  </g>
 </g>
</svg>
