<?xml version="1.0" encoding="UTF-8" standalone="no"?>
<!-- Created with Inkscape (http://www.inkscape.org/) -->
<svg id="svg2" xmlns:rdf="http://www.w3.org/1999/02/22-rdf-syntax-ns#" xmlns="http://www.w3.org/2000/svg" height="45" width="67.5" version="1.1" xmlns:cc="http://creativecommons.org/ns#" xmlns:dc="http://purl.org/dc/elements/1.1/">
 <metadata id="metadata7">
  <rdf:RDF>
   <cc:Work rdf:about="">
    <dc:format>image/svg+xml</dc:format>
    <dc:type rdf:resource="http://purl.org/dc/dcmitype/StillImage"/>
    <dc:title/>
   </cc:Work>
  </rdf:RDF>
 </metadata>
 <g id="g38066">
  <rect id="rect2990" opacity="0" height="45" width="67.5" y="0" x="3.5527e-15"/>
  <g id="g37369" transform="matrix(.75356 0 0 .75356 -3.5512 2.1538)">
   <path id="path78425" fill="#fff" d="m90.83 33.701c0.35766-0.56289 0.98833-1.347 1.3937-1.8757 0.48965-0.63868 0.61739-1.4051 0.55352-1.8522l-0.17-0.851s0.02129-0.63868-0.42578-0.70254l-1.2561-0.04258s-0.17031-1.1922-0.48965-2.5334c-0.45934-1.929-9.0266-3.3211-18.777-4.5985-1.3199-1.5115-7.9196-5.2584-9.793-6.0248-1.8734-0.76641-2.9805-1.1922-7.6641-1.4051-4.6836-0.21289-12.731-0.36192-17.202-0.06387-4.4707 0.29805-5.6629 0.29805-7.579 1.1922-1.916 0.89415-8.6647 5.301-9.0479 5.6629-2.4908 0.25547-5.1733 0.65996-5.1733 0.65996s-2.2779 0.3832-2.7889 0.91544c-1.2135 1.4051-1.5754 2.874-1.9799 6.4293l-0.65997 0.17031s-0.23418 0.02129-0.31934 0.87286c-0.10202 1.0203 0.12774 1.8522 0.34063 2.725 0.0327 0.0654 0.08141 0.11462 0.13319 0.15158l0.01618-0.01771 5.6171 0.78753c-0.4188-1.8905-0.99616-6.8773 3.2034-6.8773 3.7273 0 3.9898 2.4673 3.9898 2.4673-0.26245 0 0.26245 0.99736 0.47245 0.99736 0 0-0.10491 0.47245 1.05 4.1473 0 0 2.2047-0.31508 6.9295-0.31508s16.799-0.21 16.799-0.21-0.9449-2.7822-0.57753-4.0422c-0.26245-0.05246-0.15754-0.89244 0.10508-0.89244 0 0 0.9449-3.3598 5.1971-3.2547 4.3558 0.10747 4.9347 2.1 5.2496 2.7298-0.31508 0 0.05246 0.62999 0.26245 0.62999 0 0 0.7349 2.6249 1.5224 4.7247 0 0 1.6273-0.05246 6.9295-0.05246h8.9244s0.47245-0.52491 0.62999-1.1024l11.129-0.05263-0.62999 1.1024s0.52508 0.21 0.89244 0.21l3.0999 0.19688 0.09401-0.006z"/>
   <path id="path78427" d="m9.9418 32.514 5.6171 0.78753c-0.41999-1.89-0.99736-6.8771 3.2022-6.8771 3.7273 0 3.9898 2.4673 3.9898 2.4673-0.26245 0 0.26245 0.99736 0.47245 0.99736 0 0-0.10491 0.47245 1.05 4.1473 0 0 2.2047-0.31508 6.9295-0.31508s16.799-0.21 16.799-0.21-0.9449-2.7822-0.57753-4.0422c-0.26245-0.05246-0.15754-0.89244 0.10508-0.89244 0 0 0.9449-3.3598 5.1971-3.2547 4.3558 0.10747 4.9347 2.1 5.2496 2.7298-0.31508 0 0.05246 0.62999 0.26245 0.62999 0 0 0.7349 2.6249 1.5224 4.7247 0 0 1.6273-0.05246 6.9295-0.05246h8.9244s0.47245-0.52491 0.62999-1.1024l11.129-0.05263-0.62999 1.1024s0.52508 0.21 0.89244 0.21l3.3073 0.21s-0.52508 1.2074-0.7349 1.3124c-0.21 0.10508-0.7349-0.05246-0.9449 0.05263 0 0-3.3073 1.2074-4.6198 1.2074 0 0-1.1549 3.7271-4.7771 3.7271h-2.4149c-3.3598 0-5.2496-3.0447-5.2496-3.0447h-3.3073l-0.36754 0.41999-2.2573-0.05246v-0.36617l-0.41999 0.26262h-0.31508v-0.15754h-0.31491v0.21h-0.31508l-0.46836-0.36617h-2.0473l-0.36754-0.15754s-1.05 3.3598-5.1971 3.3598h-2.6773c-4.0947 0-4.9871-3.2022-4.9871-3.2022s-0.9449 3.2022-3.7273 3.2022h-2.0473c-2.3624 0-3.4122-2.5198-3.4122-2.5198l-3.8322-0.41999c-0.15754 0.26262-0.78753 0.10508-0.78753-0.10491 0 0-5.0396 0.10491-5.8271-0.10508-0.78753-0.21-0.78753 0.36754-0.99736 0.21s-0.41999-0.26245-0.41999-0.26245-1.5223 0.10491-1.9423-0.26245c0 0-0.57753 3.4398-3.8322 3.4398h-2.3622c-3.4122 0-3.6222-4.9623-3.6222-4.9623l-1.4174-0.20949c-0.57753-0.21-0.9449-0.62999-0.9449-0.62999l-3.412-0.787c-0.525-0.105-0.63-0.998-0.63-0.998z"/>
   <path id="path78429" d="m47.346 28.628c-0.28868 0-0.28868 0.91884-0.10491 0.91884l-23.939 0.23622c-0.15754 0-0.62999-0.86622-0.41999-0.86622l24.466-0.28885z"/>
   <path id="path78431" d="m58.448 28.707 0.21 0.68245s9.7118-0.05246 16.799 0c7.0871 0.05246 17.272 0.52491 17.272 0.52491l-0.15737-0.89244c-0.89244-0.10508-2.8873-0.05246-2.8873-0.05246s-0.05246 0.41999-1.1024 0.36754c-0.99616-0.0499-9.7644-0.15754-10.604-0.15754-1.2074 0-1.3124-0.52508-1.3124-0.52508h-9.5563c-2.3112 0.00017-8.6639 0.05263-8.6639 0.05263z"/>
   <path id="path78433" d="m15.323 29.048s-0.13131 0.44622-0.15754 0.81359l-5.7483 0.23622 0.078685-0.81376 5.8271-0.23605z"/>
   <path id="path78437" d="m46.874 22.014 0.13131-0.21s-3.3823-5.6151-4.7771-7.1133c-0.70868-0.76113-7.5069-0.23622-7.5069-0.23622-3.3335 0.13131-4.4425 0.23043-5.2233 1.1811-0.60376 0.7349-2.8086 3.9373-3.3598 6.0896-0.02623 0.21 0.47245 0.23622 0.78753 0.23622l19.949 0.05263z"/>
   <path id="path78441" stroke-width=".085157" d="m46.366 21.823 0.12467-0.19893s-3.2131-5.3182-4.5382-6.7373c-0.67325-0.72094-7.1317-0.22362-7.1317-0.22362-3.1668 0.12433-4.2204 0.21834-4.9623 1.1186-0.57362 0.69607-2.6681 3.7292-3.1918 5.7677-0.02487 0.19893 0.44878 0.22379 0.74819 0.22379l18.951 0.04973z" stroke="#fff"/>
   <path id="path78443" fill="#fff" d="m43.527 21.699h2.7036l0.07869-0.13131-1.89-2.9662c-0.09197-0.17048-0.28868-0.10491-0.32802 0.03934l-0.22311 0.44622c-0.93179-0.07869-3.6222 0.02623-4.0291 0.05246-0.40688 0.02623-0.65622 0.19688-0.77425 0.51179s-0.22311 0.80047-0.21 1.0236c0.01311 0.22311-0.31491 0.53819 0.78753 0.68245 1.1024 0.14443 3.8849 0.18377 3.8849 0.18377v0.15788z"/>
   <path id="path78445" d="m39.104 20.334c0.14443-0.06557 0.45934-0.02623 0.74802-0.02623 0.52559 0 3.6496 0.11666 3.806 0.23622 0.06949 0.05314-0.04292 0.84016-0.27744 0.83999-0.43328-0.00034-3.6152-0.08396-4.1192-0.28868-0.41982-0.17066-0.15737-0.7613-0.15737-0.7613z"/>
   <path id="path78447" d="m43.881 19.475s-0.04122 0.64975-0.07324 0.88325c-0.02895 0.2117 0.54926-1.4701 0.4762-1.6139-0.11871-0.23418-0.40296 0.73064-0.40296 0.73064z"/>
   <path id="path78451" d="m42.752 14.205c0.9449 0.89244 4.4098 5.6697 4.9347 6.6145l1.7849 0.15754c1.1024-0.62999 16.274-0.7349 21.681 0.26245-2.9924-2.6249-9.6585-5.8796-10.551-6.2996-0.89244-0.41999-3.4659-0.52508-4.7245-0.57753-1.2603-0.05246-9.2395-0.20983-13.124-0.15737z"/>
   <path id="path78455" d="m43.166 14.381c0.89789 0.83982 4.1906 5.3346 4.6894 6.2236l1.5648 0.1744c1.0476-0.59269 15.911-0.7177 21.049 0.22073-2.9907-2.4108-9.1527-5.4534-10.001-5.8484-0.848-0.395-3.265-0.546-4.464-0.596-1.195-0.049-9.147-0.223-12.838-0.174z" stroke="#fff" stroke-width=".085157" fill="none"/>
   <path id="path78457" d="m75.274 25.334s0.52508 1.916 0.5513 2.756c0 0 9.948 0.26245 11.287 0.31508 0.18377 0.02623 0.18377-0.07869 0.18377-0.26262 0-0.18377-0.10491-2.0736-0.49868-2.4673 0 0-2.8085-0.28868-5.092-0.34114-2.2836-0.05246-6.431 0-6.431 0z"/>
   <g id="g37022" stroke="#fff" fill="none">
    <g id="g37024" stroke-width=".17031">
     <path id="path78459" d="m75.248 25.807s5.1447 0.05246 6.5358 0.07868c0.04939 0.000852 0.10202 0.002 0.15771 0.0034"/>
     <path id="path78461" d="m82.48 25.904c1.7127 0.05416 4.7109 0.19143 4.7109 0.19143"/>
     <path id="path78463" d="m75.352 26.437s4.5232 0.04616 6.234 0.07358"/>
     <path id="path78465" d="m82.938 26.546c1.7408 0.05995 4.357 0.17968 4.357 0.17968"/>
     <path id="path78467" d="m75.457 27.067s4.6426 0.04735 6.2997 0.0746"/>
     <path id="path78469" d="m82.887 27.17c1.7353 0.05791 4.5142 0.18496 4.5142 0.18496"/>
     <path id="path78471" d="m75.563 27.697s5.1447 0.05246 6.5358 0.07869 5.4073 0.21 5.4073 0.21"/>
    </g>
    <g id="g37033" stroke-width=".42578">
     <path id="path78473" d="m76.507 25.15c0.31508 0.86622 0.52508 2.0473 0.52508 3.0711"/>
     <path id="path78475" d="m78.292 25.15c0.31491 0.86622 0.52491 2.0473 0.52491 3.0711"/>
     <path id="path78477" d="m80.076 25.15c0.31491 0.86622 0.52491 2.0473 0.52491 3.0711"/>
     <path id="path78479" d="m81.783 25.282c0.06949 0.19109 0.13387 0.39768 0.19211 0.61449"/>
     <path id="path78481" d="m82.27 27.566c0.02452 0.26705 0.03747 0.53172 0.03747 0.78651"/>
     <path id="path78483" d="m83.2 25.36c0.31491 0.86621 0.52491 2.0473 0.52491 3.0711"/>
     <path id="path78485" d="m84.407 25.36c0.31491 0.86621 0.52508 2.0473 0.52508 3.0711"/>
     <path id="path78487" d="m85.693 25.387c0.31491 0.86622 0.52491 2.0473 0.52491 3.0711"/>
    </g>
    <ellipse id="ellipse78491" rx=".89094" ry=".66816" transform="matrix(.32888 .94437 -.94437 .32888 0 0)" cy="-68.925" cx="52.279" stroke-width=".17032"/>
    <path id="path78493" stroke-width=".17031" d="m82.282 26.699"/>
   </g>
   <g id="g37045" fill="#fff">
    <path id="path78497" d="m82.423 27.3c0.08788-0.0068 0.22481-0.12177 0.28238-0.23588 0.06148-0.12246 0.08805-0.26671 0.05382-0.42868-0.0327-0.15498-0.05927-0.32768-0.16691-0.40688-0.05569 0.04377-0.1228 0.03849-0.18769 0.04343-0.06506 0.0049-0.13864 0.02112-0.20097-0.01379-0.04496 0.04292-0.12399 0.03866-0.18888 0.04343-0.06506 0.0049-0.12774 0.02027-0.20216-0.0138-0.07051 0.09265-0.02435 0.26382 0.0083 0.4188 0.03406 0.16197 0.11871 0.29771 0.23078 0.40705 0.10219 0.10202 0.28272 0.19296 0.37128 0.18632z"/>
    <ellipse id="ellipse78501" cy="33.708" cx="54.642" rx="4.226" ry="4.6957"/>
    <path id="path78503" d="m54.642 33.708"/>
   </g>
   <g id="g37050" stroke-width=".085157" stroke="#000" fill="none">
    <ellipse id="ellipse78507" cy="33.708" cx="54.642" rx="1.6871" ry="1.8746"/>
    <path id="path78509" d="m54.642 33.708"/>
    <ellipse id="ellipse78513" cy="33.708" cx="54.642" rx="3.9421" ry="4.3803"/>
    <path id="path78515" d="m54.642 33.708"/>
   </g>
   <path id="path78519" d="m54.642 37.896c0.2243 0 0.50788-0.06813 0.50788-0.06813l-0.10781-0.8531s-0.29379 0.02878-0.40007 0.02878c-0.10645 0-0.40007-0.02878-0.40007-0.02878l-0.10781 0.8531s0.2834 0.06813 0.50788 0.06813z"/>
   <line id="line78521" stroke-width=".085157" y2="36.564" x2="54.291" stroke="#000" y1="37.828" x1="54.134" fill="none"/>
   <line id="line78523" stroke-width=".085157" y2="37.828" x2="55.151" stroke="#000" y1="36.552" x1="54.996" fill="none"/>
   <path id="path78527" d="m56.277 37.482c0.20216-0.10815 0.43106-0.30605 0.43106-0.30605l-0.43021-0.71668s-0.25343 0.16742-0.34914 0.21868c-0.09572 0.05127-0.37162 0.16691-0.37162 0.16691l0.23571 0.82057c-0.00017-0.00017 0.28187-0.07528 0.4842-0.18343z"/>
   <line id="line78529" stroke-width=".085157" y2="36.451" x2="55.441" stroke="#000" y1="37.666" x1="55.793" fill="none"/>
   <line id="line78531" stroke-width=".085157" y2="37.175" x2="56.709" stroke="#000" y1="36.099" x1="56.071" fill="none"/>
   <path id="path78535" d="m57.588 36.32c0.14-0.19501 0.26892-0.48352 0.26892-0.48352l-0.66729-0.43856s-0.16316 0.27301-0.22941 0.36532c-0.06642 0.09231-0.26978 0.32939-0.26978 0.32939l0.53257 0.6259c0.00017 0 0.22498-0.2037 0.36498-0.39853z"/>
   <line id="line78537" stroke-width=".085157" y2="35.796" x2="56.432" stroke="#000" y1="36.719" x1="57.224" fill="none"/>
   <line id="line78539" stroke-width=".085157" y2="35.837" x2="57.857" stroke="#000" y1="35.174" x1="56.864" fill="none"/>
   <path id="path78543" d="m58.317 34.643c0.05007-0.24304 0.05365-0.56527 0.05365-0.56527l-0.77254-0.07358s-0.04036 0.32445-0.06404 0.43975c-0.02384 0.11513-0.11445 0.42681-0.11445 0.42681l0.72417 0.30724c0.000171 0 0.12331-0.29192 0.17321-0.53496z"/>
   <line id="line78545" stroke-width=".085157" y2="34.726" x2="57.069" stroke="#000" y1="35.178" x1="58.145" fill="none"/>
   <line id="line78547" stroke-width=".085157" y2="34.077" x2="58.372" stroke="#000" y1="33.958" x1="57.217" fill="none"/>
   <path id="path78551" d="m58.319 32.78c-0.04973-0.24321-0.17236-0.5353-0.17236-0.5353l-0.72468 0.30588s0.09027 0.31184 0.11377 0.42698c0.0235 0.11513 0.06336 0.43992 0.06336 0.43992l0.77254-0.07204c0.000171 0-0.0029-0.32223-0.05263-0.56544z"/>
   <line id="line78553" stroke-width=".085157" y2="33.456" x2="57.227" stroke="#000" y1="33.345" x1="58.372" fill="none"/>
   <line id="line78555" stroke-width=".085157" y2="32.245" x2="58.147" stroke="#000" y1="32.694" x1="57.06" fill="none"/>
   <path id="path78559" d="m57.593 31.1c-0.13966-0.19518-0.36413-0.39922-0.36413-0.39922l-0.53376 0.62488s0.20301 0.23759 0.26927 0.3299c0.06608 0.09248 0.22873 0.36566 0.22873 0.36566l0.66797-0.4372s-0.12859-0.28885-0.26807-0.48403z"/>
   <line id="line78561" stroke-width=".085157" y2="32.236" x2="56.873" stroke="#000" y1="31.584" x1="57.861" fill="none"/>
   <line id="line78563" stroke-width=".085157" y2="30.7" x2="57.229" stroke="#000" y1="31.628" x1="56.425" fill="none"/>
   <path id="path78567" d="m56.284 29.936c-0.203-0.109-0.484-0.184-0.484-0.184l-0.23708 0.82023s0.27574 0.11615 0.37145 0.16759c0.09572 0.05143 0.3488 0.21936 0.3488 0.21936l0.43123-0.71583c0.000171-0.000171-0.22839-0.19859-0.43038-0.30708z"/>
   <line id="line78569" stroke-width=".085157" y2="31.306" x2="56.079" stroke="#000" y1="30.243" x1="56.714" fill="none"/>
   <line id="line78571" stroke-width=".085157" y2="29.752" x2="55.8" stroke="#000" y1="30.976" x1="55.437" fill="none"/>
   <path id="path78575" d="m54.649 29.518c-0.22447-0.000511-0.50805 0.0671-0.50805 0.0671l0.10645 0.85327s0.29379-0.0281 0.40007-0.02793 0.3999 0.02946 0.3999 0.02946l0.10934-0.85276c0.000171 0-0.28323-0.06881-0.5077-0.06915z"/>
   <line id="line78577" stroke-width=".085157" y2="30.852" x2="54.999" stroke="#000" y1="29.587" x1="55.156" fill="none"/>
   <line id="line78579" stroke-width=".085157" y2="29.585" x2="54.141" stroke="#000" y1="30.863" x1="54.293" fill="none"/>
   <path id="path78583" d="m53.014 29.929c-0.20233 0.10764-0.43157 0.3052-0.43157 0.3052l0.42902 0.71753s0.2536-0.16691 0.34948-0.218c0.09589-0.05109 0.37196-0.16623 0.37196-0.16623l-0.23435-0.82108c0 0.00017-0.28221 0.07477-0.48454 0.18258z"/>
   <line id="line78585" stroke-width=".085157" y2="30.962" x2="53.85" stroke="#000" y1="29.747" x1="53.499" fill="none"/>
   <line id="line78587" stroke-width=".085157" y2="30.235" x2="52.583" stroke="#000" y1="31.313" x1="53.218" fill="none"/>
   <path id="path78591" d="m51.7 31.088c-0.14034 0.19467-0.26978 0.48301-0.26978 0.48301l0.66661 0.43992s0.1635-0.27267 0.22992-0.36481c0.06642-0.09231 0.27029-0.32888 0.27029-0.32888l-0.53172-0.62692c0-0.000171-0.22498 0.20301-0.36532 0.39768z"/>
   <line id="line78593" stroke-width=".085157" y2="31.616" x2="52.857" stroke="#000" y1="30.69" x1="52.065" fill="none"/>
   <line id="line78595" stroke-width=".085157" y2="31.57" x2="51.43" stroke="#000" y1="32.236" x1="52.424" fill="none"/>
   <path id="path78599" d="m50.97 32.764c-0.05041 0.24287-0.0545 0.5651-0.0545 0.5651l0.77237 0.07511s0.04087-0.32445 0.06489-0.43958c0.02384-0.11513 0.11513-0.42664 0.11513-0.42664l-0.72383-0.30878c0 0.00017-0.12348 0.29175-0.17406 0.53478z"/>
   <line id="line78601" stroke-width=".085157" y2="32.684" x2="52.217" stroke="#000" y1="32.231" x1="51.144" fill="none"/>
   <line id="line78603" stroke-width=".085157" y2="33.33" x2="50.914" stroke="#000" y1="33.451" x1="52.068" fill="none"/>
   <path id="path78607" d="m50.965 34.627c0.04939 0.24321 0.17134 0.53564 0.17134 0.53564l0.7252-0.30452s-0.08976-0.31202-0.11326-0.42732c-0.02333-0.11513-0.06267-0.43992-0.06267-0.43992l-0.77271 0.07068c0.00017 0 0.0027 0.32223 0.05212 0.56544z"/>
   <line id="line78609" stroke-width=".085157" y2="33.953" x2="52.058" stroke="#000" y1="34.062" x1="50.914" fill="none"/>
   <line id="line78611" stroke-width=".085157" y2="35.164" x2="51.137" stroke="#000" y1="34.716" x1="52.223" fill="none"/>
   <path id="path78615" d="m51.689 36.308c0.13932 0.19535 0.36345 0.3999 0.36345 0.3999l0.53461-0.62386s-0.20267-0.23793-0.26876-0.33041c-0.06608-0.09248-0.22822-0.36617-0.22822-0.36617l-0.66865 0.436c0-0.00017 0.12808 0.28902 0.26756 0.48454z"/>
   <line id="line78617" stroke-width=".085157" y2="35.174" x2="52.409" stroke="#000" y1="35.825" x1="51.419" fill="none"/>
   <line id="line78619" stroke-width=".085157" y2="36.709" x2="52.051" stroke="#000" y1="35.782" x1="52.857" fill="none"/>
   <path id="path78623" d="m52.995 37.475c0.20199 0.109 0.48369 0.1853 0.48369 0.1853l0.23827-0.81972s-0.27557-0.11666-0.37111-0.16827c-0.09572-0.05161-0.34846-0.22004-0.34846-0.22004l-0.43243 0.71498s0.22822 0.19893 0.43004 0.30776z"/>
   <line id="line78625" stroke-width=".085157" y2="36.106" x2="53.203" stroke="#000" y1="37.168" x1="52.566" fill="none"/>
   <line id="line78627" stroke-width=".085157" y2="37.661" x2="53.479" stroke="#000" y1="36.438" x1="53.843" fill="none"/>
   <ellipse id="ellipse78631" rx="2.3772" ry="4.1839" cy="34.134" cx="19.898" fill="#fff"/>
   <path id="path78633" fill="#fff" d="m19.898 34.134"/>
   <g id="g37100" stroke-width=".085157" stroke="#000" fill="none">
    <ellipse id="ellipse78637" cy="34.134" cx="19.622" rx=".94899" ry="1.6703"/>
    <path id="path78639" d="m19.622 34.134"/>
    <ellipse id="ellipse78643" cy="34.134" cx="19.898" rx="2.2175" ry="3.9027"/>
    <path id="path78645" d="m19.898 34.134"/>
   </g>
   <path id="path78649" d="m19.898 37.865c0.1262 0 0.28579-0.06063 0.28579-0.06063l-0.06063-0.76011s-0.1652 0.02555-0.22498 0.02555-0.22498-0.02555-0.22498-0.02555l-0.06063 0.76011c-0.00017 0 0.15924 0.06063 0.28545 0.06063z"/>
   <line id="line78651" stroke-width=".085157" y2="36.678" x2="19.7" stroke="#000" y1="37.805" x1="19.613" fill="none"/>
   <line id="line78653" stroke-width=".085157" y2="37.805" x2="20.184" stroke="#000" y1="36.668" x1="20.098" fill="none"/>
   <path id="path78657" d="m20.818 37.497c0.11377-0.0964 0.24253-0.27284 0.24253-0.27284l-0.24202-0.63868s-0.14255 0.14919-0.19637 0.19484c-0.055 0.046-0.21 0.149-0.21 0.149l0.13267 0.73116c0 0.000171 0.15856-0.06676 0.27233-0.16316z"/>
   <line id="line78659" stroke-width=".085157" y2="36.578" x2="20.347" stroke="#000" y1="37.659" x1="20.546" fill="none"/>
   <line id="line78661" stroke-width=".085157" y2="37.223" x2="21.061" stroke="#000" y1="36.264" x1="20.702" fill="none"/>
   <path id="path78665" d="m21.556 36.462c0.07869-0.17372 0.15124-0.43072 0.15124-0.43072l-0.37537-0.3907s-0.0918 0.24321-0.1291 0.32547-0.15175 0.29362-0.15175 0.29362l0.29975 0.55761c0.00017-0.000171 0.12654-0.18156 0.20523-0.35528z"/>
   <line id="line78667" stroke-width=".085157" y2="35.993" x2="20.905" stroke="#000" y1="36.816" x1="21.351" fill="none"/>
   <line id="line78669" stroke-width=".085157" y2="36.031" x2="21.707" stroke="#000" y1="35.44" x1="21.148" fill="none"/>
   <path id="path78673" d="m21.965 34.966c0.02827-0.21664 0.03014-0.50379 0.03014-0.50379l-0.43447-0.06557s-0.02265 0.28919-0.03611 0.39172c-0.01328 0.10253-0.06438 0.38031-0.06438 0.38031l0.40739 0.27369c0 0.000171 0.06915-0.2599 0.09742-0.47637z"/>
   <line id="line78675" stroke-width=".085157" y2="35.041" x2="21.264" stroke="#000" y1="35.443" x1="21.868" fill="none"/>
   <line id="line78677" stroke-width=".085157" y2="34.462" x2="21.996" stroke="#000" y1="34.357" x1="21.346" fill="none"/>
   <path id="path78681" d="m21.967 33.306c-0.028-0.217-0.097-0.477-0.097-0.477l-0.40773 0.2725s0.05075 0.27778 0.06404 0.38048c0.01328 0.1027 0.0356 0.39189 0.0356 0.39189l0.43464-0.06421c0.000171 0-0.0017-0.28715-0.02963-0.50379z"/>
   <line id="line78683" stroke-width=".085157" y2="33.909" x2="21.352" stroke="#000" y1="33.81" x1="21.996" fill="none"/>
   <line id="line78685" stroke-width=".085157" y2="32.829" x2="21.87" stroke="#000" y1="33.229" x1="21.258" fill="none"/>
   <path id="path78689" d="m21.558 31.81c-0.078-0.173-0.205-0.355-0.205-0.355l-0.30026 0.55676s0.11428 0.2117 0.15141 0.29396c0.0373 0.08243 0.12876 0.32598 0.12876 0.32598l0.37571-0.38968c0.000171 0-0.07221-0.25734-0.15073-0.43123z"/>
   <line id="line78691" stroke-width=".085157" y2="32.822" x2="21.153" stroke="#000" y1="32.241" x1="21.709" fill="none"/>
   <line id="line78693" stroke-width=".085157" y2="31.454" x2="21.353" stroke="#000" y1="32.282" x1="20.901" fill="none"/>
   <path id="path78697" d="m20.822 30.773c-0.1136-0.09657-0.27216-0.16418-0.27216-0.16418l-0.13336 0.73082s0.15516 0.10355 0.20898 0.14936 0.1962 0.19535 0.1962 0.19535l0.24253-0.63782s-0.12859-0.17678-0.24219-0.27352z"/>
   <line id="line78699" stroke-width=".085157" y2="31.994" x2="20.706" stroke="#000" y1="31.046" x1="21.064" fill="none"/>
   <line id="line78701" stroke-width=".085157" y2="30.608" x2="20.549" stroke="#000" y1="31.7" x1="20.346" fill="none"/>
   <path id="path78705" d="m19.902 30.401c-0.1262-0.000341-0.28579 0.05978-0.28579 0.05978l0.05995 0.76028s0.1652-0.02504 0.22498-0.02487 0.22498 0.02623 0.22498 0.02623l0.06148-0.75977c0-0.000171-0.15941-0.06131-0.28562-0.06165z"/>
   <line id="line78707" stroke-width=".085157" y2="31.589" x2="20.099" stroke="#000" y1="30.462" x1="20.188" fill="none"/>
   <line id="line78709" stroke-width=".085157" y2="30.461" x2="19.617" stroke="#000" y1="31.599" x1="19.702" fill="none"/>
   <path id="path78713" d="m18.982 30.766c-0.11377 0.09589-0.2427 0.27199-0.2427 0.27199l0.24133 0.63936s0.14272-0.14885 0.19671-0.19416c0.05382-0.04547 0.20914-0.148 0.20914-0.148l-0.13182-0.73167c0-0.00017-0.15873 0.06642-0.27267 0.16248z"/>
   <line id="line78715" stroke-width=".085157" y2="31.688" x2="19.452" stroke="#000" y1="30.605" x1="19.255" fill="none"/>
   <line id="line78717" stroke-width=".085157" y2="31.039" x2="18.739" stroke="#000" y1="31.999" x1="19.097" fill="none"/>
   <path id="path78721" d="m18.244 31.799c-0.07885 0.17338-0.15175 0.43038-0.15175 0.43038l0.37503 0.39189s0.09197-0.24287 0.12927-0.32513c0.03747-0.08209 0.15209-0.29294 0.15209-0.29294l-0.29907-0.55863s-0.12671 0.18104-0.20557 0.35442z"/>
   <line id="line78723" stroke-width=".085157" y2="32.27" x2="18.894" stroke="#000" y1="31.444" x1="18.449" fill="none"/>
   <line id="line78725" stroke-width=".085157" y2="32.229" x2="18.092" stroke="#000" y1="32.822" x1="18.65" fill="none"/>
   <path id="path78729" d="m17.832 33.294c-0.02844 0.21647-0.03083 0.50362-0.03083 0.50362l0.43447 0.0671s0.02299-0.28902 0.03645-0.39172c0.01346-0.10253 0.06472-0.37997 0.06472-0.37997l-0.40722-0.27506c0.000171-0.00017-0.06932 0.25956-0.09759 0.47603z"/>
   <line id="line78731" stroke-width=".085157" y2="33.221" x2="18.534" stroke="#000" y1="32.817" x1="17.93" fill="none"/>
   <line id="line78733" stroke-width=".085157" y2="33.796" x2="17.801" stroke="#000" y1="33.905" x1="18.451" fill="none"/>
   <path id="path78737" d="m17.83 34.953c0.02776 0.21664 0.0964 0.47722 0.0964 0.47722l0.40807-0.27131s-0.05058-0.27795-0.0637-0.38065c-0.01311-0.1027-0.03525-0.39206-0.03525-0.39206l-0.43464 0.06285s0.0014 0.28715 0.02912 0.50396z"/>
   <line id="line78739" stroke-width=".085157" y2="34.353" x2="18.445" stroke="#000" y1="34.45" x1="17.801" fill="none"/>
   <line id="line78741" stroke-width=".085157" y2="35.431" x2="17.926" stroke="#000" y1="35.033" x1="18.538" fill="none"/>
   <path id="path78745" d="m18.237 36.451c0.07834 0.17406 0.20455 0.35647 0.20455 0.35647l0.30077-0.55573s-0.11394-0.21204-0.15107-0.29447-0.12842-0.32632-0.12842-0.32632l-0.37605 0.38848c-0.000341-0.00017 0.0717 0.25751 0.15022 0.43158z"/>
   <line id="line78747" stroke-width=".085157" y2="35.44" x2="18.642" stroke="#000" y1="36.019" x1="18.086" fill="none"/>
   <line id="line78749" stroke-width=".085157" y2="36.807" x2="18.441" stroke="#000" y1="35.981" x1="18.894" fill="none"/>
   <path id="path78753" d="m18.972 37.49c0.1136 0.09708 0.27199 0.16503 0.27199 0.16503l0.13404-0.7303s-0.15498-0.10406-0.2088-0.15005c-0.054-0.046-0.196-0.196-0.196-0.196l-0.24321 0.63714s0.12842 0.17713 0.24202 0.2742z"/>
   <g id="g37146" fill="none">
    <g id="g37148" stroke="#000">
     <line id="line78755" stroke-width=".085157" y2="36.269" x2="19.089" y1="37.216" x1="18.73"/>
     <line id="line78757" stroke-width=".085157" y2="37.656" x2="19.244" y1="36.566" x1="19.449"/>
     <path id="path78759" stroke-width=".25547" d="m10.176 32.635s-0.27676-0.04258-0.38321-0.25547c-0.2129-0.873-0.4426-1.705-0.3406-2.725 0.0851-0.852 0.3193-0.873 0.3193-0.873l0.65997-0.17031c0.4045-3.5553 0.76641-5.0243 1.9799-6.4293 0.51094-0.53223 2.7889-0.91544 2.7889-0.91544s2.6824-0.4045 5.1733-0.65996c0.38321-0.36192 7.1319-4.7688 9.0479-5.6629 1.916-0.89415 3.1082-0.89415 7.579-1.1922 4.4707-0.29805 12.518-0.14902 17.202 0.06387 4.6836 0.21289 5.7907 0.63868 7.6641 1.4051 1.8734 0.76641 8.4731 4.5133 9.793 6.0248 9.7505 1.2774 18.317 2.6695 18.777 4.5985 0.31934 1.3412 0.48965 2.5334 0.48965 2.5334l1.2561 0.04258c0.44707 0.06387 0.42578 0.70254 0.42578 0.70254l0.17031 0.85157c0.06387 0.44707-0.06387 1.2135-0.55352 1.8522-0.50243 0.6552-1.3511 1.7031-1.5967 2.2354"/>
    </g>
    <g id="g37153" stroke-width=".085157" stroke="#fff">
     <path id="path78763" d="m30.251 21.777c0.53223-1.5115 2.6824-5.812 3.5127-7.068"/>
     <path id="path78765" d="m31.188 21.777c0.53223-1.5115 2.7145-5.8545 3.5447-7.1106"/>
     <path id="path78767" d="m30.742 21.777c0.53223-1.5115 2.6932-5.844 3.5234-7.1"/>
    </g>
   </g>
   <g id="g37158" stroke-width=".17031" stroke="#000">
    <path id="path78769" fill="#fff" d="m74.214 25.386s0.55352 1.618 0.63868 2.5121c0 0-5.6203-0.17031-7.3235-0.17031-1.7031 0-4.1727-0.04258-4.1727-0.04258s0.17031-1.4902 0.29805-1.9586c0.12774-0.46836 0.51094-0.46836 0.85157-0.46836s2.9379 0.08516 4.3004 0.08516 5.4075 0.04258 5.4075 0.04258z"/>
    <path id="path78771" fill="none" d="m66.38 25.343c-0.9793 0.17031-1.107 2.2141-0.34063 2.3844"/>
    <path id="path78773" fill="none" d="m69.488 25.343c0.3832 1.1922 0.29805 2.4695 0.29805 2.4695"/>
    <path id="path78775" fill="#fff" d="m90.372 25.982c-0.31934-0.10645-3.1295-0.25547-3.1295-0.25547 0.34063 0.70254 0.4045 1.8096 0.4045 2.0651 0 0 2.725 0.06387 3.1508 0.12774-0.17031-0.95801-0.42578-1.9373-0.42578-1.9373z"/>
    <path id="path78777" fill="none" d="m89.52 25.833c0.17031 0.46836 0.44707 1.5328 0.44707 2.0438"/>
   </g>
   <g id="g37165" stroke="#000" fill="#fff">
    <path id="path78779" stroke-width=".17031" d="m72.729 33.089c0.1354 0 0.24508-0.10985 0.24508-0.24508l0.18224-0.49936c0-0.13523-0.10985-0.24508-0.24508-0.24508h-3.0249c-0.1354 0-0.24508 0.10985-0.24508 0.24508l-0.18224 0.49936c0 0.13523 0.10968 0.24508 0.24508 0.24508h3.0249z"/>
    <path id="path78781" stroke-width=".17031" d="m90.331 33.273c0.1354 0 0.24508-0.10985 0.24508-0.24508l0.28647-0.49919c0-0.1354-0.10968-0.24508-0.24508-0.24508h-2.1138c-0.13523 0-0.24508 0.10968-0.24508 0.24508l-0.28647 0.49919c0 0.1354 0.10985 0.24508 0.24508 0.24508h2.1138z"/>
    <line id="line78783" stroke-width=".085157" y2="32.206" y1="32.206" x2="91.877" x1="90.368"/>
   </g>
   <g id="g37170" stroke="#000" fill="none">
    <g id="g37172" stroke-width=".085157">
     <line id="line78785" x2="91.07" y1="33.299" x1="90.186" y2="33.299"/>
     <path id="path78787" d="m87.425 28.716 2.2582 0.25377s-0.20114 0.0066-0.20114-0.09759v-0.26041c0-0.13012 0.05212-0.26041 0.26041-0.26041h1.1978"/>
     <path id="path78789" d="m87.608 27.7s0.078 0.54688 0 0.80729c-0.07817 0.26041-0.31253 0.23435-0.59899 0.23435l-10.468-0.208"/>
     <line id="line78791" x2="89.691" y1="28.247" x1="87.686" y2="28.351"/>
     <path id="path78793" d="m76.665 28.655c-0.12348-0.22532-0.35783-0.48573-0.90471-0.48573s-3.4892-0.15618-7.4732-0.13012c-3.9836 0.02606-10.624-0.05212-10.624-0.05212"/>
     <path id="path78795" d="m49.175 20.93c6.1974 0.41659 15.897 2.2854 18.07 4.2183 0.4687 0.41659 0.83334 2.6039 0.83334 2.6039"/>
     <path id="path78797" d="m68.027 29.263s-0.10406 1.1457-0.41659 1.8227"/>
     <path id="path78799" d="m75.274 25.334c-0.217-1.123-7.612-3.466-21.412-4.82"/>
     <path id="path78803" d="m87.243 25.726c-0.364-1.671-9.634-3.546-23.748-5.161"/>
    </g>
    <polyline id="polyline78805" stroke-width=".5" points="484.28 110.39 489.78 110.24 484.73 118.5" transform="matrix(.17031 0 0 .17031 4.7126 13.456)"/>
    <g id="g37184" stroke-width=".085157">
     <path id="path78807" d="m11.248 24.185c7.656-1.094 32.81-1.562 46.246-1.042"/>
     <path id="path78809" d="m29.58 34.028c-0.52082-1.2498-0.677-4.3224-0.677-4.3224-0.20829 0-0.31236-0.83334 0-0.83334 0 0-0.0218-3.2448 1.0416-5.7806 0.677-1.6144 0.78106-1.1978 0.78106-1.1978"/>
     <path id="path78811" d="m46.557 33.663c-0.41659-0.98952-0.62488-4.1143-0.62488-4.1143-0.26041 0-0.31252-0.93741 0-0.93741 0 0-0.28715-4.0342 0.26041-5.6766 0.15618-0.4687 0.68023-0.9214 0.68023-0.9214"/>
     <path id="path78813" d="m10.431 28.611c1.26-0.15567 5.5303-0.05143 5.5303-0.05143"/>
     <path id="path78815" d="m81.774 25.205c-0.403-1.593-9.517-3.364-24.007-4.691"/>
    </g>
   </g>
   <path id="path78817" d="m72.804 32.049h1.8748c0.31236 0 0 1.0415-0.4687 1.0415h-1.5883" stroke="#000" stroke-width=".085157" fill="#fff"/>
   <line id="line78821" stroke-width=".42578" y2="40.331" x2="94.287" stroke="#000" y1="40.331" x1="4.7126" fill="none"/>
  </g>
 </g>
</svg>
