<?xml version="1.0" encoding="UTF-8" standalone="no"?>
<!-- Created with Inkscape (http://www.inkscape.org/) -->
<svg id="svg2" xmlns:rdf="http://www.w3.org/1999/02/22-rdf-syntax-ns#" xmlns="http://www.w3.org/2000/svg" viewBox="0 0 315 180" version="1.1" xmlns:cc="http://creativecommons.org/ns#" xmlns:xlink="http://www.w3.org/1999/xlink" xmlns:dc="http://purl.org/dc/elements/1.1/">
 <defs id="defs3">
  <rect id="SVGID_1_" y="0" width="800" height="600" x="0"/>
  <clipPath id="SVGID_2_">
   <use id="use3345" xlink:href="#SVGID_1_" height="100%" width="100%" y="0" x="0" overflow="visible"/>
  </clipPath>
 </defs>
 <metadata id="metadata8">
  <rdf:RDF>
   <cc:Work rdf:about="">
    <dc:format>image/svg+xml</dc:format>
    <dc:type rdf:resource="http://purl.org/dc/dcmitype/StillImage"/>
    <dc:title/>
   </cc:Work>
  </rdf:RDF>
 </metadata>
 <rect id="rect3373" height="2.1427" width="180.71" y="22.437" x="111.78" fill="#e73137"/>
 <text id="line1" font-size="12.5px" font-family="Helvetica" y="123" x="110" font-weight="bold" fill="#000000">John Smith</text>
 <text id="line2" font-size="9.375px" font-style="italic" y="134" x="110" font-family="Helvetica" fill="#000000">Owner</text>
 <text id="line3" font-size="12.5px" font-family="Helvetica" font-style="italic" y="40" x="110" font-weight="bold" fill="#000000">Your Ace Hardware</text>
 <text id="line4" font-size="9.375px" font-style="italic" y="53" x="110" font-family="Helvetica" fill="#000000">123 Main Street</text>
 <text id="line5" font-size="9.375px" font-style="italic" y="64" x="110" font-family="Helvetica" fill="#000000">Anywhere, USA 12345-6789</text>
 <text id="line6" font-size="9.375px" font-style="italic" y="75" x="110" font-family="Helvetica" fill="#000000">Phone: (800) 123-4567</text>
 <text id="line7" font-size="9.375px" font-style="italic" y="86" x="110" font-family="Helvetica" fill="#000000">FAX: (123) 456-7890</text>
 <path id="path3347" d="m379.38 291.51c-0.019 1.259-0.496 3.461 0.366 7.5 0 0 2.63 19.458 22.442 19.842 5.698-0.39 8.104-1.474 11.036-2.909 11.008-5.387 12.838-17.458 12.838-17.458h-10.354c-5.99 13.521-17.629 8.984-17.629 8.984l6.549-30.766c12.58 0.344 13.049 12.196 13.049 12.196h10.527s0.74-12.451-11.395-19.837c-2.486-1.512-6.586-2.577-10.599-2.671 0.001 0.001-22.408-1.405-26.83 25.119" clip-path="url(#SVGID_2_)" transform="matrix(.45099 0 0 .45099 -124.68 -9.2925)" fill="#e73137"/>
 <polygon id="polygon3349" clip-path="url(#SVGID_2_)" transform="matrix(.45099 0 0 .45099 -124.68 -9.2925)" points="447.32 288.9 464.99 288.9 462.98 298.48 445.3 298.48 443.29 308.07 460.97 308.07 458.91 317.61 423.31 317.61 433.45 269.73 469.05 269.73 467 279.31 449.37 279.31" fill="#e73137"/>
 <polygon id="polygon3351" clip-path="url(#SVGID_2_)" transform="matrix(.45099 0 0 .45099 -124.68 -9.2925)" points="357.05 317.7 351.32 287.14 330.95 317.7" fill="#e73137"/>
 <polygon id="polygon3353" clip-path="url(#SVGID_2_)" transform="matrix(.45099 0 0 .45099 -124.68 -9.2925)" points="370.92 257.7 382 317.7 362.53 317.7 355.68 280.55" fill="#e73137"/>
 <path id="path3355" d="m460.74 315.21c0-1.417 1.148-2.463 2.509-2.463 1.343 0 2.491 1.045 2.491 2.463 0 1.43-1.148 2.474-2.491 2.474-1.361 0-2.509-1.044-2.509-2.474m2.509 2.062c1.115 0 1.996-0.874 1.996-2.063 0-1.171-0.881-2.052-1.996-2.052-1.132 0-2.014 0.881-2.014 2.052 0 1.189 0.882 2.063 2.014 2.063m-0.525-0.632h-0.432v-2.847h1.083c0.675 0 1.007 0.247 1.007 0.811 0 0.509-0.32 0.729-0.737 0.781l0.81 1.255h-0.483l-0.75-1.232h-0.497v1.232zm0.516-1.601c0.366 0 0.692-0.024 0.692-0.465 0-0.351-0.32-0.416-0.621-0.416h-0.587v0.881h0.516z" clip-path="url(#SVGID_2_)" transform="matrix(.45099 0 0 .45099 -124.68 -9.2925)" fill="#e73137"/>
 <path id="path3371" d="m35.738 145.31c-1.1315-0.27262-1.5098-0.82867-1.354-1.99 0.15653-1.167 0.92765-1.6744 3.0685-2.0189 1.5529-0.24989 1.8626-0.38693 1.8626-0.82422 0-0.51919-1.0351-0.6211-1.5077-0.14846-0.25096 0.25097-0.50258 0.30156-1.4999 0.30156h-1.1983l0.15031-0.43119c0.08268-0.23716 0.33357-0.60413 0.55756-0.81552 1.1447-1.0803 4.9529-1.1771 5.7636-0.14643 0.36979 0.47011 0.38306 1.2613 0.05787 3.4502-0.13187 0.88766-0.20142 1.8057-0.15454 2.04l0.08523 0.4261h-1.2778c-1.1683 0-1.2778-0.0253-1.2778-0.29531 0-0.28513-0.02474-0.28313-0.71617 0.0579-0.82124 0.40504-1.8541 0.56413-2.5594 0.3942zm2.5734-1.5304c0.34818-0.15864 0.5623-0.46396 0.76423-1.0898 0.08055-0.24963 0.02573-0.26685-0.55173-0.17329-0.93981 0.15224-1.388 0.40386-1.4459 0.81176-0.08167 0.57538 0.49666 0.78699 1.2334 0.4513zm10.845 1.5284c-1.2751-0.30191-1.939-1.3788-1.8136-2.9416 0.18901-2.3546 1.7913-4.0202 3.6644-3.8091 0.41929 0.0473 0.82795 0.20768 1.0425 0.4092l0.35283 0.33146 0.08203-0.42708c0.04512-0.23489 0.12322-0.7324 0.17356-1.1056 0.2213-1.6405 0.08584-1.5077 1.5386-1.5077h1.2884l-0.07819 0.41463c-0.04301 0.22805-0.33422 2.2296-0.64713 4.4478l-0.56894 4.0332h-1.1839-1.1839l0.09952-0.41462 0.09952-0.41463-0.3605 0.3204c-0.70436 0.62602-1.6293 0.87102-2.5052 0.66361zm2.2285-1.9685c0.69197-0.37032 1.0083-2.0184 0.49599-2.5845-0.62773-0.69365-1.7564 0.0526-1.9409 1.2832-0.1762 1.175 0.51608 1.7985 1.4449 1.3013zm16.049 1.9769c-1.0588-0.25933-1.4323-0.7115-1.4323-1.7338 0-0.60225 0.51782-1.4095 1.1356-1.7703 0.25084-0.1465 1.1308-0.37493 1.9555-0.50764 1.5743-0.25333 1.8844-0.38955 1.8844-0.82773 0-0.5177-1.0594-0.62487-1.4673-0.14846-0.21935 0.25618-0.44477 0.30156-1.4984 0.30156h-1.2402l0.15031-0.43119c0.08268-0.23716 0.33357-0.60413 0.55756-0.81552 1.1447-1.0803 4.9529-1.1771 5.7636-0.14643 0.36979 0.47011 0.38306 1.2613 0.05786 3.4502-0.13187 0.88766-0.20141 1.8057-0.15454 2.04l0.08523 0.4261h-1.2778c-1.1668 0-1.2778-0.0256-1.2778-0.29432 0-0.283-0.02756-0.28055-0.71618 0.0637-0.79862 0.39912-1.8406 0.56163-2.5255 0.39387zm2.5395-1.5368c0.34818-0.15864 0.56231-0.46396 0.76424-1.0898 0.0806-0.24963 0.02576-0.26685-0.55173-0.17329-0.9398 0.15224-1.388 0.40386-1.4459 0.81176-0.08163 0.57538 0.49666 0.78699 1.2334 0.4513zm11.206 1.462c-1.8455-0.50379-2.5793-1.9197-2.0076-3.8735 0.45464-1.5536 1.8533-2.6535 3.5726-2.8094 2.2993-0.20849 3.8856 1.1962 3.7336 3.3062l-0.0468 0.64984-2.4501 0.0414c-2.3253 0.0394-2.4501 0.0566-2.4501 0.33924 0 0.43383 0.53664 0.90091 1.0351 0.90091 0.23759 0 0.6045-0.1357 0.81535-0.30156 0.30689-0.2414 0.61165-0.30154 1.5281-0.30154 0.66042 0 1.1447 0.0637 1.1447 0.15034 0 0.33147-1.1007 1.3394-1.7728 1.6235-0.97005 0.40996-2.2056 0.51936-3.102 0.27467zm2.9148-4.2415c0-0.12816-0.17412-0.40714-0.38694-0.61994-0.31177-0.31177-0.48015-0.36907-0.86695-0.29486-0.45479 0.0872-1.1585 0.69796-1.1585 1.0054 0 0.0784 0.54278 0.14236 1.2062 0.14236 0.98742 0 1.2062-0.0423 1.2062-0.23301zm-59.857 4.103c0-0.0336 0.40709-2.0069 0.90464-4.3852s0.90464-4.3548 0.90464-4.3922c0-0.0375 0.64456-0.068 1.4323-0.068 1.6386 0 1.5596-0.0988 1.2062 1.5077-0.35198 1.6002-0.42058 1.5077 1.1188 1.5077h1.345l0.10089-0.49001c0.05549-0.26951 0.20202-0.94798 0.32561-1.5077l0.22472-1.0177h1.4203c0.8073 0 1.4203 0.0625 1.4203 0.14479 0 0.13089-1.5394 7.5994-1.7338 8.4116-0.07712 0.32224-0.15282 0.33923-1.5107 0.33923-1.0451 0-1.4284-0.0506-1.4256-0.18847 0.0021-0.10365 0.13608-0.76516 0.29768-1.47 0.44486-1.9404 0.52116-1.8093-1.0525-1.8093-1.2798 0-1.3585 0.0186-1.4347 0.33924-0.04432 0.18659-0.20124 0.94987-0.34871 1.6962l-0.26814 1.357-1.4634 0.0431c-0.80489 0.0236-1.4634 0.0157-1.4634-0.0179zm17.942-0.007c0-0.0316 0.20354-1.4645 0.45232-3.1841s0.45232-3.1525 0.45232-3.1841 0.52916-0.0575 1.1759-0.0575h1.1759l-0.05288 0.5654-0.05288 0.56539 0.33544-0.43324c0.37347-0.48237 1.1198-0.84833 1.7301-0.84833 0.39618 0 0.39995 0.0102 0.30113 0.79156-0.22465 1.777-0.22224 1.7716-0.7923 1.7716-1.1798 0-1.7175 0.69402-1.9276 2.4878-0.19781 1.689-0.09529 1.5831-1.5323 1.5831-0.69587 0-1.2652-0.0259-1.2652-0.0575zm14.404-0.28173c-0.0416-0.18659-0.28555-1.4927-0.54212-2.9024s-0.50257-2.7158-0.54668-2.9024c-0.07833-0.33136-0.0506-0.33924 1.1932-0.33924h1.2734l0.19514 1.9704c0.10733 1.0837 0.24358 1.9148 0.30279 1.847 0.0592-0.0678 0.4286-0.95454 0.82088-1.9704l0.71324-1.847h1.0999 1.0999l0.11025 1.3193c0.06064 0.72561 0.15634 1.6246 0.21267 1.9978l0.10242 0.67848 0.7784-1.96 0.7784-1.9601 1.2293-0.044c0.6793-0.0244 1.2058 0.0163 1.1769 0.0905-0.0288 0.0741-0.69693 1.5348-1.4847 3.2461l-1.4323 3.1115-1.2912 0.002-1.2912 0.002-0.19593-1.8223c-0.10776-1.0023-0.24664-1.7656-0.30861-1.6962-0.06197 0.0693-0.40295 0.88942-0.75773 1.8223l-0.64505 1.6962h-1.2577c-1.1814 0-1.2623-0.0205-1.3334-0.33925zm17.258 0.28173c0-0.0316 0.20354-1.4645 0.45232-3.1841s0.45232-3.1525 0.45232-3.1841 0.52916-0.0575 1.1759-0.0575h1.1759l-0.05286 0.5654-0.05286 0.56539 0.33543-0.43324c0.37347-0.48237 1.1198-0.84833 1.7301-0.84833 0.39618 0 0.39994 0.0102 0.30113 0.79156-0.22464 1.777-0.22224 1.7716-0.7923 1.7716-1.1798 0-1.7175 0.69402-1.9276 2.4878-0.1978 1.689-0.09528 1.5831-1.5323 1.5831-0.69588 0-1.2652-0.0259-1.2652-0.0575z"/>
</svg>
