<?xml version="1.0" encoding="UTF-8" standalone="no"?>
<!-- Created with Inkscape (http://www.inkscape.org/) -->
<svg id="svg2" xmlns:rdf="http://www.w3.org/1999/02/22-rdf-syntax-ns#" xmlns="http://www.w3.org/2000/svg" viewBox="0 0 315 180" version="1.1" xmlns:cc="http://creativecommons.org/ns#" xmlns:xlink="http://www.w3.org/1999/xlink" xmlns:dc="http://purl.org/dc/elements/1.1/">
 <defs id="defs3">
  <rect id="SVGID_1_" y="0" width="800" x="0" height="600"/>
  <clipPath id="SVGID_2_">
   <use id="use3345" xlink:href="#SVGID_1_" height="100%" width="100%" y="0" x="0" overflow="visible"/>
  </clipPath>
 </defs>
 <metadata id="metadata8">
  <rdf:RDF>
   <cc:Work rdf:about="">
    <dc:format>image/svg+xml</dc:format>
    <dc:type rdf:resource="http://purl.org/dc/dcmitype/StillImage"/>
    <dc:title/>
   </cc:Work>
  </rdf:RDF>
 </metadata>
 style="text-anchor: middle; font-family: Helvetica;"
 <rect id="rect3373" height="2.1427" width="180.71" y="22.437" x="111.78" fill="#e73137"/>
 <text id="line1" font-size="12.5px" y="123" x="110" font-weight="bold" font-family="Helvetica" fill="#000000">John Smith</text>
 <text id="line2" font-size="9.375px" font-style="italic" y="134" x="110" font-family="Helvetica" fill="#000000">Owner</text>
 <text id="line3" font-size="12.5px" font-style="italic" y="40" x="110" font-weight="bold" font-family="Helvetica" fill="#000000">Your Ace Hardware</text>
 <text id="line4" font-size="9.375px" font-style="italic" y="53" x="110" font-family="Helvetica" fill="#000000">123 Main Street</text>
 <text id="line5" font-size="9.375px" font-style="italic" y="64" x="110" font-family="Helvetica" fill="#000000">Anywhere, USA 12345-6789</text>
 <text id="line6" font-size="9.375px" font-style="italic" y="75" x="110" font-family="Helvetica" fill="#000000">Phone: (800) 123-4567</text>
 <text id="line7" font-size="9.375px" font-style="italic" y="86" x="110" font-family="Helvetica" fill="#000000">FAX: (123) 456-7890</text>
 <path id="path3347" d="m379.38 291.51c-0.019 1.259-0.496 3.461 0.366 7.5 0 0 2.63 19.458 22.442 19.842 5.698-0.39 8.104-1.474 11.036-2.909 11.008-5.387 12.838-17.458 12.838-17.458h-10.354c-5.99 13.521-17.629 8.984-17.629 8.984l6.549-30.766c12.58 0.344 13.049 12.196 13.049 12.196h10.527s0.74-12.451-11.395-19.837c-2.486-1.512-6.586-2.577-10.599-2.671 0.001 0.001-22.408-1.405-26.83 25.119" clip-path="url(#SVGID_2_)" transform="matrix(.45099 0 0 .45099 -124.68 -9.2925)" fill="#e73137"/>
 <polygon id="polygon3349" clip-path="url(#SVGID_2_)" transform="matrix(.45099 0 0 .45099 -124.68 -9.2925)" points="458.91 317.61 423.31 317.61 433.45 269.73 469.05 269.73 467 279.31 449.37 279.31 447.32 288.9 464.99 288.9 462.98 298.48 445.3 298.48 443.29 308.07 460.97 308.07" fill="#e73137"/>
 <polygon id="polygon3351" clip-path="url(#SVGID_2_)" transform="matrix(.45099 0 0 .45099 -124.68 -9.2925)" points="357.05 317.7 351.32 287.14 330.95 317.7" fill="#e73137"/>
 <polygon id="polygon3353" clip-path="url(#SVGID_2_)" transform="matrix(.45099 0 0 .45099 -124.68 -9.2925)" points="362.53 317.7 355.68 280.55 370.92 257.7 382 317.7" fill="#e73137"/>
 <path id="path3355" d="m460.74 315.21c0-1.417 1.148-2.463 2.509-2.463 1.343 0 2.491 1.045 2.491 2.463 0 1.43-1.148 2.474-2.491 2.474-1.361 0-2.509-1.044-2.509-2.474m2.509 2.062c1.115 0 1.996-0.874 1.996-2.063 0-1.171-0.881-2.052-1.996-2.052-1.132 0-2.014 0.881-2.014 2.052 0 1.189 0.882 2.063 2.014 2.063m-0.525-0.632h-0.432v-2.847h1.083c0.675 0 1.007 0.247 1.007 0.811 0 0.509-0.32 0.729-0.737 0.781l0.81 1.255h-0.483l-0.75-1.232h-0.497v1.232zm0.516-1.601c0.366 0 0.692-0.024 0.692-0.465 0-0.351-0.32-0.416-0.621-0.416h-0.587v0.881h0.516z" clip-path="url(#SVGID_2_)" transform="matrix(.45099 0 0 .45099 -124.68 -9.2925)" fill="#e73137"/>
</svg>
