<?xml version="1.0" encoding="UTF-8" standalone="no"?>
<!-- Created with Inkscape (http://www.inkscape.org/) -->
<svg id="svg2" xmlns:rdf="http://www.w3.org/1999/02/22-rdf-syntax-ns#" xmlns="http://www.w3.org/2000/svg" viewBox="0 0 315 180" version="1.1" xmlns:cc="http://creativecommons.org/ns#" xmlns:xlink="http://www.w3.org/1999/xlink" xmlns:dc="http://purl.org/dc/elements/1.1/">
 <defs id="defs3">
  <rect id="SVGID_1_" y="0" width="800" height="600" x="0"/>
  <clipPath id="SVGID_2_">
   <use id="use3345" xlink:href="#SVGID_1_" height="100%" width="100%" y="0" x="0" overflow="visible"/>
  </clipPath>
 </defs>
 <metadata id="metadata8">
  <rdf:RDF>
   <cc:Work rdf:about="">
    <dc:format>image/svg+xml</dc:format>
    <dc:type rdf:resource="http://purl.org/dc/dcmitype/StillImage"/>
    <dc:title/>
   </cc:Work>
  </rdf:RDF>
 </metadata>
 <text id="line1" font-size="12.5px" font-family="Helvetica" font-style="italic" y="111" x="22" font-weight="bold" fill="#000000">Your Ace Hardware</text>
 <text id="line2" font-size="9.375px" font-style="italic" y="122" x="22" font-family="Helvetica" fill="#000000">123 Main Street</text>
 <text id="line3" font-size="9.375px" font-style="italic" y="133" x="22" font-family="Helvetica" fill="#000000">Anywhere, USA 12345-6789</text>
 <text id="line4" font-size="9.375px" font-style="italic" y="144" x="22" font-family="Helvetica" fill="#000000">Phone: (800) 123-4567</text>
 <text id="line5" font-size="9.375px" font-style="italic" y="155" x="22" font-family="Helvetica" fill="#000000">FAX: (123) 456-7890</text>
 <text id="line6" font-size="12.5px" font-family="Helvetica" style="text-anchor:end" y="128" x="292" font-weight="bold" fill="#000000">John Smith</text>
 <text id="line7" font-size="9.375px" style="text-anchor:end" font-style="italic" y="139" x="292" font-family="Helvetica" fill="#000000">Owner</text>
 <path id="path3347" d="m379.38 291.51c-0.019 1.259-0.496 3.461 0.366 7.5 0 0 2.63 19.458 22.442 19.842 5.698-0.39 8.104-1.474 11.036-2.909 11.008-5.387 12.838-17.458 12.838-17.458h-10.354c-5.99 13.521-17.629 8.984-17.629 8.984l6.549-30.766c12.58 0.344 13.049 12.196 13.049 12.196h10.527s0.74-12.451-11.395-19.837c-2.486-1.512-6.586-2.577-10.599-2.671 0.001 0.001-22.408-1.405-26.83 25.119" clip-path="url(#SVGID_2_)" transform="matrix(.69352 0 0 .69352 -119.65 -156.58)" fill="#e73137"/>
 <polygon id="polygon3349" clip-path="url(#SVGID_2_)" transform="matrix(.69352 0 0 .69352 -119.65 -156.58)" points="423.31 317.61 433.45 269.73 469.05 269.73 467 279.31 449.37 279.31 447.32 288.9 464.99 288.9 462.98 298.48 445.3 298.48 443.29 308.07 460.97 308.07 458.91 317.61" fill="#e73137"/>
 <polygon id="polygon3351" clip-path="url(#SVGID_2_)" transform="matrix(.69352 0 0 .69352 -119.65 -156.58)" points="351.32 287.14 330.95 317.7 357.05 317.7" fill="#e73137"/>
 <polygon id="polygon3353" clip-path="url(#SVGID_2_)" transform="matrix(.69352 0 0 .69352 -119.65 -156.58)" points="355.68 280.55 370.92 257.7 382 317.7 362.53 317.7" fill="#e73137"/>
 <path id="path3355" d="m460.74 315.21c0-1.417 1.148-2.463 2.509-2.463 1.343 0 2.491 1.045 2.491 2.463 0 1.43-1.148 2.474-2.491 2.474-1.361 0-2.509-1.044-2.509-2.474m2.509 2.062c1.115 0 1.996-0.874 1.996-2.063 0-1.171-0.881-2.052-1.996-2.052-1.132 0-2.014 0.881-2.014 2.052 0 1.189 0.882 2.063 2.014 2.063m-0.525-0.632h-0.432v-2.847h1.083c0.675 0 1.007 0.247 1.007 0.811 0 0.509-0.32 0.729-0.737 0.781l0.81 1.255h-0.483l-0.75-1.232h-0.497v1.232zm0.516-1.601c0.366 0 0.692-0.024 0.692-0.465 0-0.351-0.32-0.416-0.621-0.416h-0.587v0.881h0.516z" clip-path="url(#SVGID_2_)" transform="matrix(.69352 0 0 .69352 -119.65 -156.58)" fill="#e73137"/>
 <path id="path3371" d="m127.04 81.166c-1.7399-0.41923-2.3217-1.2743-2.0822-3.0601 0.24071-1.7946 1.4265-2.5748 4.7187-3.1046 2.3881-0.38427 2.8643-0.59501 2.8643-1.2675 0-0.7984-1.5917-0.95511-2.3186-0.2283-0.38592 0.38594-0.77285 0.46373-2.3065 0.46373h-1.8428l0.23115-0.66307c0.12714-0.3647 0.51296-0.92901 0.85739-1.2541 1.7603-1.6613 7.6165-1.81 8.8631-0.22518 0.56865 0.72292 0.58906 1.9396 0.089 5.3056-0.20279 1.365-0.30973 2.7767-0.23765 3.1371l0.13106 0.65524h-1.965c-1.7966 0-1.965-0.0389-1.965-0.45412 0-0.43846-0.038-0.43539-1.1013 0.08904-1.2629 0.62286-2.8512 0.8675-3.9357 0.60619zm3.9573-2.3534c0.53542-0.24395 0.86468-0.71346 1.1752-1.6758 0.12387-0.38387 0.0396-0.41035-0.84843-0.26648-1.4452 0.23411-2.1345 0.62104-2.2235 1.2483-0.12559 0.8848 0.76374 1.2102 1.8967 0.694zm16.678 2.3503c-1.9608-0.46427-2.9818-2.1203-2.7888-4.5235 0.29065-3.6209 2.7546-6.1821 5.635-5.8575 0.64477 0.07274 1.2732 0.31936 1.6031 0.62926l0.54258 0.50971 0.12614-0.65675c0.0694-0.36121 0.18948-1.1263 0.2669-1.7001 0.34031-2.5227 0.132-2.3186 2.366-2.3186h1.9813l-0.12024 0.63761c-0.0661 0.35069-0.51395 3.4286-0.99514 6.8397l-0.8749 6.2021h-1.8205-1.8205l0.15304-0.63759 0.15304-0.63761-0.55438 0.4927c-1.0832 0.96268-2.5055 1.3394-3.8525 1.0205zm3.4269-3.0271c1.0641-0.56947 1.5505-3.1039 0.76272-3.9744-0.96531-1.0667-2.7009 0.08089-2.9847 1.9732-0.27095 1.8069 0.79361 2.7656 2.222 2.0012zm24.68 3.04c-1.6282-0.39879-2.2026-1.0941-2.2026-2.6662 0-0.92612 0.79628-2.1674 1.7463-2.7223 0.38574-0.22528 1.739-0.57656 3.0072-0.78064 2.4209-0.38956 2.8978-0.59904 2.8978-1.2729 0-0.7961-1.6291-0.96091-2.2564-0.2283-0.33731 0.39395-0.68395 0.46373-2.3042 0.46373h-1.9072l0.23114-0.66307c0.12714-0.3647 0.51296-0.92901 0.8574-1.2541 1.7603-1.6613 7.6165-1.81 8.8631-0.22518 0.56865 0.72292 0.58905 1.9396 0.089 5.3056-0.20279 1.365-0.30972 2.7767-0.23765 3.1371l0.13107 0.65524h-1.965c-1.7943 0-1.965-0.03937-1.965-0.4526 0-0.43519-0.0424-0.43142-1.1013 0.09796-1.2281 0.61376-2.8304 0.86366-3.8836 0.60568zm3.9052-2.3632c0.53543-0.24395 0.8647-0.71346 1.1752-1.6758 0.12395-0.38387 0.0396-0.41035-0.84843-0.26648-1.4452 0.23411-2.1344 0.62104-2.2235 1.2483-0.12553 0.8848 0.76375 1.2102 1.8967 0.694zm17.232 2.2483c-2.838-0.77471-3.9664-2.952-3.0872-5.9566 0.69914-2.3891 2.85-4.0805 5.4938-4.3202 3.5358-0.32061 5.9752 1.8394 5.7414 5.0841l-0.072 0.99931-3.7676 0.06366c-3.5758 0.06059-3.7676 0.08704-3.7676 0.52167 0 0.66713 0.82522 1.3854 1.5917 1.3854 0.36537 0 0.92959-0.20868 1.2538-0.46373 0.47193-0.37122 0.94057-0.4637 2.3498-0.4637 1.0156 0 1.7603 0.09796 1.7603 0.23119 0 0.50972-1.6926 2.0597-2.7262 2.4965-1.4917 0.63042-3.3918 0.79866-4.7702 0.42238zm4.4824-6.5225c0-0.19708-0.26776-0.62609-0.59502-0.95333-0.47943-0.47943-0.73836-0.56755-1.3332-0.45343-0.69937 0.13409-1.7815 1.0733-1.7815 1.5462 0 0.12056 0.83467 0.21892 1.8548 0.21892 1.5184 0 1.8548-0.06505 1.8548-0.35832zm-92.046 6.3094c0-0.05167 0.62601-3.0862 1.3911-6.7435 0.76512-3.6573 1.3911-6.6967 1.3911-6.7542 0-0.05767 0.99118-0.10457 2.2026-0.10457 2.5199 0 2.3983-0.15193 1.8548 2.3185-0.54126 2.4607-0.64675 2.3185 1.7205 2.3185h2.0683l0.15514-0.75352c0.0853-0.41444 0.31066-1.4578 0.50072-2.3185l0.34557-1.565h2.184c1.2414 0 2.184 0.09611 2.184 0.22265 0 0.20128-2.3673 11.686-2.6662 12.935-0.1186 0.49553-0.23501 0.52166-2.3231 0.52166-1.6072 0-2.1966-0.07781-2.1923-0.28982 0.003-0.15939 0.20926-1.1766 0.45776-2.2606 0.68408-2.984 0.80142-2.7823-1.6186-2.7823-1.9681 0-2.0891 0.0286-2.2062 0.52167-0.0682 0.28693-0.30946 1.4607-0.53624 2.6084l-0.41233 2.0867-2.2504 0.06628c-1.2377 0.03629-2.2504 0.02414-2.2504-0.02753zm27.591-0.01076c0-0.04859 0.31301-2.252 0.69557-4.8965 0.38256-2.6444 0.69556-4.8478 0.69556-4.8964 0-0.04859 0.81373-0.08842 1.8083-0.08842h1.8083l-0.0813 0.86946-0.0813 0.86944 0.51582-0.66622c0.57432-0.74178 1.722-1.3045 2.6605-1.3045 0.60923 0 0.61503 0.01568 0.46307 1.2172-0.34546 2.7326-0.34175 2.7243-1.2184 2.7243-1.8142 0-2.6411 1.0672-2.9642 3.8256-0.30418 2.5974-0.14653 2.4345-2.3563 2.4345-1.0701 0-1.9456-0.03983-1.9456-0.08842zm22.151-0.43324c-0.064-0.28693-0.43911-2.2954-0.83365-4.4632s-0.77284-4.1763-0.84066-4.4632c-0.12046-0.50956-0.0778-0.52167 1.8349-0.52167h1.9582l0.30008 3.03c0.16505 1.6665 0.37458 2.9446 0.46562 2.8402 0.091-0.10426 0.65909-1.4679 1.2623-3.03l1.0968-2.8402h1.6914 1.6914l0.16954 2.0287c0.0933 1.1158 0.24042 2.4982 0.32705 3.0721l0.1575 1.0433 1.197-3.0141 1.197-3.0141 1.8903-0.06766c1.0446-0.03752 1.8543 0.02507 1.8098 0.13917-0.0443 0.11395-1.0717 2.3602-2.2832 4.9918l-2.2026 4.7847-1.9856 0.0031-1.9856 0.0031-0.3013-2.8023c-0.16572-1.5413-0.37928-2.7151-0.47458-2.6084-0.0953 0.10657-0.61964 1.3677-1.1652 2.8023l-0.99194 2.6084h-1.9341c-1.8167 0-1.9412-0.03152-2.0504-0.52169zm26.539 0.43324c0-0.04859 0.313-2.2521 0.69556-4.8965 0.38257-2.6444 0.69557-4.8478 0.69557-4.8965 0-0.04859 0.81373-0.08842 1.8083-0.08842h1.8083l-0.0813 0.86946-0.0813 0.86944 0.51582-0.66622c0.57431-0.74178 1.722-1.3045 2.6605-1.3045 0.60922 0 0.61501 0.01569 0.46306 1.2172-0.34545 2.7326-0.34175 2.7243-1.2184 2.7243-1.8142 0-2.6411 1.0672-2.9642 3.8256-0.30418 2.5974-0.14652 2.4345-2.3563 2.4345-1.0701 0-1.9456-0.03983-1.9456-0.08842z"/>
</svg>
