<?xml version="1.0" encoding="UTF-8" standalone="no"?>
<!-- Created with Inkscape (http://www.inkscape.org/) -->
<svg id="svg2" xmlns:rdf="http://www.w3.org/1999/02/22-rdf-syntax-ns#" xmlns="http://www.w3.org/2000/svg" viewBox="0 0 315.54999 360.28999" height="100%" width="100%" version="1.1" xmlns:cc="http://creativecommons.org/ns#" xmlns:dc="http://purl.org/dc/elements/1.1/">
 <metadata id="metadata7">
  <rdf:RDF>
   <cc:Work rdf:about="">
    <dc:format>image/svg+xml</dc:format>
    <dc:type rdf:resource="http://purl.org/dc/dcmitype/StillImage"/>
    <dc:title/>
   </cc:Work>
  </rdf:RDF>
 </metadata>
 <g id="template1">
  <rect id="background1" height="179.29" width="314.55" stroke="#000" y="0.5" x="0.5" fill="#FFF"/>
  <text id="line1" style="text-anchor:end;" font-size="12.75px" y="31.944059" x="292.84766" font-family="Helvetica" fill="#000000">John Smith</text>
  <text id="line2" style="text-anchor:end;" font-size="9.375px" y="42.944057" x="292.84766" font-family="Helvetica" fill="#000000">Owner</text>
  <text id="line3" font-size="9.375px" style="text-anchor:end;" y="134.94406" x="156.84766" font-family="Helvetica" fill="#000000">123 Main Street</text>
  <text id="line4" font-size="9.375px" y="134.94406" x="167.90637" font-family="Helvetica" fill="#000000">Anywhere, USA 12345</text>
  <text id="line5" font-size="9.375px" style="text-anchor:end;" y="145.94406" x="159.84766" font-family="Helvetica" fill="#000000">Phone: (800) 123-4567</text>
  <text id="line6" font-size="9.375px" y="145.94406" x="169.84766" font-family="Helvetica" fill="#000000">FAX: (123) 456-7890</text>
  <text id="line7" font-size="9.375px" style="text-anchor:middle;" y="156.94406" x="156.84766" font-family="Helvetica" fill="#000000">email@yourdomain.com</text>
  <path id="path3371" fill="#00F" d="m101.56,71.022c-0.042-2.8044,6.2857-0.76303,6.7655,0.72057,0.58777,1.8014,0.2639,4.3894,0.43183,6.6295,0.18593,2.4559,1.2116,4.2331,0.71973,6.1966-2.1112,0.42034-4.4683-0.31759-5.326-1.5854-1.6734-2.4622-0.22192-7.6261-1.4395-10.232-0.30588-0.66029-1.1456-1.2607-1.1516-1.7292"/>
  <path id="path3373" fill="#00F" d="m109.77,85.433c-0.13195-2.3299,1.2715-3.4947,1.2955-5.9084,0.018-1.4711-0.69574-3.1768-1.1516-4.4679-0.53381-1.5129-2.2852-4.7558-0.2879-5.4764,2.8249-1.0206,5.29,2.8406,8.781,1.5857,0.37186,5.6804,0.67175,12.195,0.57579,17.87-0.94168,0.07812-1.6314-0.09589-2.1592-0.43157-1.0136-2.2164,0.078-5.1648,0.28789-7.4948-1.3974,1.5793-1.0436,4.912-2.0152,6.9175-2.3271-0.31225-4.0485-1.231-5.326-2.5941"/>
  <path id="path3375" fill="#00F" d="m101.28,69.725c-1.7214,0.01783-2.8849-1.0389-4.6063-1.4412,2.8189-15.817,5.9257-31.345,8.9242-46.982,1.6074,15.444,2.3691,31.736,3.4547,47.702-1.3855-0.14382-2.2192-0.51629-3.4547-0.43211-1.5774,0.1079-2.9569,1.141-4.3184,1.1529"/>
  <path id="path3379" fill="#00F" d="m86.305,72.174c3.2808-0.53431,3.8745,2.834,6.3336,3.6029,0.24591-1.8554-0.58777-4.1071,0.57578-5.4766,1.0796-1.273,3.3047-1.5549,4.6063-1.2971,3.2748,0.64293,5.8118,7.8304,0.43183,7.35-0.86964,3.0383,0.82169,5.5124,0.57579,7.9263-1.3735,1.3931-3.4187,1.4593-5.1821,1.8735-3.7486,0.88271-6.3516,2.6663-9.6446,4.3235-1.4756,0.74478-3.5567,1.9335-5.0381,1.8735-3.3885-0.1321-4.8399-5.068-8.7802-5.044-0.56397,3.2126,8.9845,3.7171,8.0608,7.494-0.21604,0.87684-1.1395,1.1051-2.303,1.2972-0.44401,2.3905-2.6692,2.9962-5.0381,3.4586,0.23991,1.105,2.4591,0.22818,3.023,1.0088,0.4196,1.0994-0.54028,1.3572-0.5759,2.306-0.04798,1.3089,1.5592,2.462,0.71948,4.1792,1.8773-1.5971,0.60613-5.1699,3.455-5.9086,0.88748-0.22776,1.4872,0.33026,2.4472,0.28829,0.46129-0.0181,1.0374-0.46843,1.7271-0.57658,0.92961-0.144,2.0091,0.2041,2.7348,0,0.86369-0.24626,1.5114-1.6094,2.4471-2.0177,3.7546-1.6391,10.028,0.42034,12.235-3.3146-0.74372-0.78597-1.0316-2.8342-0.28789-3.8911,1.5294-1.0028,3.1128,0.12009,4.7502,0.86478,0.95366,0.43889,2.0332,0.55851,2.735,0.86461,1.4575,0.63663,2.4416,2.8943,3.7426,3.4589,0.43183,0.18603,1.1995-0.04197,1.8713,0.14399,1.0436,0.28829,1.4874,1.2256,3.1668,0.72058,1.2416,0.82266,2.1832,1.9458,3.4547,2.7383-0.036,5.1941,0.40245,10.622,0,15.708-0.79709-0.37765-1.1516-0.81652-2.1592-0.72058-0.95366,0.0901-1.6974,1.4177-2.735,1.4412-0.83966,0.0241-1.6194-0.25216-1.7274-1.2969-0.16194-1.5493,1.6434-1.5554,2.4471-2.45-2.639,0.23409-4.6422,3.2426-7.0533,1.1528-0.92961,0.51041-0.57578,2.306-1.4395,2.8823-1.5475,0.0662-2.8369-0.13816-3.8865-0.57632-0.83965-1.8676,0.41385-3.1406,0.28789-4.6117-0.066-0.76255-0.87567-1.2972-0.86369-2.1617,0.0239-1.7534,2.639-3.1644,5.0381-3.4589,1.1936-0.14399,2.2852,0.24019,3.3108,0.1443,1.6674-0.15577,2.717-1.2009,4.0305-1.2972,1.1336-0.0782,2.549,0.7987,3.3108,0.14405-0.53379-2.444-3.5626-1.1167-5.6139-1.8735-1.0496-0.3842-1.7574-1.933-3.1668-1.4412-1.9613-1.7352-3.7906-3.6029-6.0457-5.044-1.6254,1.5793-1.8353,3.693-4.0305,4.7558-2.4291,1.177-5.9557,0.63657-8.6369,1.5854-1.7694,0.62437-2.8669,1.7833-4.0305,3.0263,1.0136,1.5493,2.9389,0.10815,4.4623,0,3.5807-0.24602,7.0773,0.85272,7.917,3.7472,0.86369,2.9728-1.9673,4.7377-3.5986,2.1617-0.97166,1.1114-2.3331,3.1464-4.6063,2.0174-0.47382-0.53433-0.22791-1.7894-0.28789-2.7381-1.0256,0.0305-0.23991,1.8735-1.1516,2.0175-1.9673-0.28217-3.5746-2.2872-5.0381,0.28875-0.06597,1.1524,0.98959,1.2305,0.86369,2.1613-0.2699,1.9335-5.452,2.2757-5.1821-0.72058,0.13801-1.5132,1.6077-1.255,1.8715-3.1706-2.0395-0.3542-2.0814,2.3719-3.8866,2.45-0.82187,0.0361-2.1592-0.96078-2.5912-1.5852-0.88137-1.2852-0.59365-3.4708-0.43154-5.3323-1.6855,2.2218-7.0473,1.2491-6.3337-3.0266-14.473-1.8435-29.059-3.5729-43.759-5.1876,13.801-1.9401,28.339-3.1411,42.464-4.7562,0.13801-2.0231,0.18575-4.1374,1.0077-5.4758-14.75-6.896-29.606-13.689-44.487-20.456,15.816,3.813,32.184,8.323,48.078,12.538,1.631-0.913,2.849-2.24,5.326-2.306-8.552-14.303-17.394-28.319-26.198-42.37,8.7148,8.8932,18.335,18.056,27.062,27.527,2.9089,3.1525,5.9797,6.0946,8.3488,9.5114-2.2252,0.67903-4.27,0.36659-5.758,1.5859-1.2712,1.0447-1.745,2.7078-3.0225,3.7469,2.7409,0.28217,3.8805,2.1674,6.4774,2.5938-0.05998-2.0356-3.8865-1.6215-4.3185-3.4586-0.52156-2.2096,2.5193-3.1345,4.3185-3.0266,2.3211,0.13835,3.6646,1.5312,5.0381,2.3057-0.65975-1.615-2.2852-2.9724-1.8713-5.1878zm-2.0152,37.758c0.5098-0.34222,0.68374-1.9935,0-2.3057-0.35387,0.5585-0.98959,0.83454-1.0076,1.7295,0.19793,0.33027,0.5278,0.52824,1.0076,0.57628zm-7.484-24.638c0.35374-1.8796-2.825-1.9935-3.5987-1.0089,0.89376,0.64245,1.9073,1.1649,3.3107,1.2977,0.02999-0.16279,0.16188-0.22284,0.28795-0.28877"/>
  <path id="path3383" fill="#F00" d="m123.29,71.879h3.3108v9.6203h5.1671v3.1437h-8.4809v-12.764"/>
  <path id="path3385" fill="#F00" d="m133.04,84.643h2.3218v-8.9343h-2.3203v8.9343z"/>
  <path id="path3387" fill="#F00" d="m139.37,82.723h1.1816c0.39765,0,0.67955-0.08395,0.84384-0.25214,0.16254-0.16934,0.2447-0.39572,0.2447-0.67908,0-0.26433-0.081-0.47798-0.24291-0.63939-0.16133-0.15949-0.44562-0.24044-0.85104-0.24044h-1.1761v1.8111zm0-3.5105h1.007c0.36166,0,0.61296-0.07386,0.7533-0.22212,0.14276-0.1473,0.21353-0.36311,0.21353-0.6439,0-0.25989-0.0708-0.46279-0.21353-0.60937-0.14034-0.14544-0.38684-0.2193-0.73771-0.2193h-1.0226v1.6947zm-2.3391-3.5041h4.3387c0.72212,0,1.2775,0.21323,1.6656,0.63963,0.38625,0.42695,0.58057,0.95516,0.58057,1.585,0,0.52776-0.13914,0.98121-0.41624,1.3592-0.18293,0.251-0.45282,0.44994-0.80669,0.59652,0.538,0.15528,0.93506,0.4192,1.1881,0.79563,0.25491,0.3753,0.38206,0.8487,0.38206,1.4177,0,0.46303-0.0912,0.87919-0.2705,1.2479-0.18173,0.37175-0.42883,0.66287-0.74252,0.8791-0.19432,0.13324-0.48761,0.23059-0.87986,0.29183-0.5218,0.08113-0.86788,0.12196-1.0382,0.12196h-4.0011v-8.9343"/>
  <path id="path3389" fill="#F00" d="m145.17,75.709h6.2106v1.9063h-3.8883v1.4207h3.607v1.8225h-3.607v1.7606h4.0005v2.0242h-6.3242v-8.9343"/>
  <path id="path3391" fill="#F00" d="m155.1,79.328h0.97586c0.10676,0,0.31188-0.04101,0.61416-0.12196,0.15415-0.03519,0.2795-0.12898,0.37666-0.2791,0.0972-0.1506,0.14575-0.32299,0.14575-0.51888,0-0.28805-0.0761-0.50897-0.22972-0.66449-0.15354-0.15414-0.44203-0.23106-0.86486-0.23106h-1.0178v1.8155zm-2.3283,5.3154v-8.9343h3.8631c0.71553,0,1.2643,0.07272,1.6409,0.21905,0.37966,0.14616,0.68554,0.41661,0.91588,0.81395,0.23331,0.39523,0.34906,0.87869,0.34906,1.4468,0,0.49654-0.0888,0.92459-0.2669,1.2842-0.17693,0.3589-0.42164,0.64978-0.73232,0.87374-0.19732,0.14196-0.46842,0.25922-0.81269,0.35374,0.2765,0.11025,0.47682,0.21906,0.60217,0.32816,0.0852,0.07386,0.20932,0.23059,0.37126,0.47006,0.16254,0.24133,0.2693,0.42574,0.32448,0.55544l1.1228,2.5893h-2.6186l-1.2385-2.7299c-0.15714-0.35374-0.29748-0.58289-0.42043-0.68917-0.16674-0.13769-0.35627-0.20758-0.56799-0.20758h-0.20392v3.6266h-2.3283"/>
  <path id="path3393" fill="#F00" d="m160.27,75.709h7.0449v2.2053h-2.3637v6.7292h-2.3169v-6.7289h-2.3622v-2.2053"/>
  <path id="path3395" fill="#F00" d="m167.61,75.709h2.5754l1.5103,3.0138,1.5138-3.0138h2.5598l-2.9161,5.1918v3.7427h-2.3205v-3.7425l-2.9234-5.1918"/>
  <path id="path3397" fill="#F00" d="m122.64,87.355h9.9428v3.1729h-3.3365v9.6773h-3.2706v-9.6773h-3.3353v-3.173"/>
  <path id="path3399" fill="#F00" d="m137.82,96.771-0.81869-3.233-0.80849,3.233h1.6272zm0.47322,1.9455h-2.5988l-0.36106,1.4846h-2.3374l2.7853-8.9954h2.498l2.7853,8.9954h-2.4003l-0.37125-1.4846"/>
  <path id="path3401" fill="#F00" d="m141.29,91.209h2.5221l1.3117,2.7676,1.2763-2.7676h2.4974l-2.3044,4.357,2.5221,4.6383h-2.5724l-1.4646-2.8903-1.4628,2.8903h-2.5562l2.5562-4.688-2.3253-4.3072"/>
  <path id="path3403" fill="#F00" d="m122.92,111.33,3.1332-0.23364c0.0683,0.60659,0.20572,1.0689,0.41504,1.3865,0.33887,0.51463,0.82349,0.77219,1.4538,0.77219,0.47023,0,0.83129-0.13206,1.0862-0.39501,0.2549-0.26247,0.38146-0.56764,0.38146-0.91454,0-0.32909-0.12055-0.62394-0.36347-0.88405-0.2417-0.25988-0.80369-0.50548-1.6866-0.73673-1.4443-0.38658-2.474-0.90071-3.0894-1.5425-0.62077-0.64083-0.93087-1.4588-0.93087-2.4524,0-0.65351,0.15894-1.2701,0.47682-1.8514,0.31728-0.58006,0.7941-1.0358,1.4317-1.3691,0.63755-0.33188,1.5108-0.49774,2.621-0.49774,1.3615,0,2.4003,0.30217,3.1152,0.90616,0.71492,0.60355,1.1395,1.5636,1.2763,2.8812l-3.1044,0.21672c-0.0828-0.5716-0.25611-0.98842-0.51941-1.2476-0.26509-0.26013-0.62976-0.39104-1.0952-0.39104-0.38266,0-0.67114,0.0966-0.86487,0.29136-0.19432,0.19323-0.29029,0.4285-0.29029,0.70598,0,0.20176,0.0792,0.38376,0.23871,0.54656,0.15595,0.16747,0.52421,0.32299,1.106,0.46771,1.4389,0.36917,2.4699,0.74333,3.0924,1.1224,0.62316,0.37764,1.0766,0.84777,1.3602,1.4082,0.2837,0.56014,0.42525,1.1876,0.42525,1.8812,0,0.81439-0.18893,1.565-0.56679,2.2529-0.37846,0.68774-0.90625,1.209-1.5852,1.5643-0.67835,0.35559-1.5336,0.5334-2.5664,0.5334-1.8125,0-3.0684-0.41635-3.766-1.2486-0.69754-0.83153-1.0922-1.8896-1.1846-3.1722"/>
  <path id="path3405" fill="#F00" d="m133.91,106.64h6.1789v1.8993h-3.8686v1.413h3.5885v1.8142h-3.5885v1.754h3.9795v2.0133h-6.2898v-8.8941"/>
  <path id="path3407" fill="#F00" d="m143.79,110.24h0.97166c0.10556,0,0.30829-0.0408,0.61057-0.12178,0.15234-0.0373,0.2771-0.1297,0.37366-0.27982,0.0972-0.14892,0.14635-0.32066,0.14635-0.51413,0-0.28949-0.0774-0.50783-0.22912-0.66173-0.15294-0.15433-0.44023-0.23173-0.86009-0.23173h-1.013v1.8092zm-2.3157,5.2896v-8.8941h3.8422c0.71193,0,1.2577,0.072,1.6332,0.21791,0.37666,0.14544,0.68134,0.41637,0.91228,0.80903,0.23031,0.39572,0.34607,0.87609,0.34607,1.4417,0,0.49372-0.0894,0.91873-0.2663,1.2766-0.17513,0.35843-0.41864,0.64859-0.72752,0.87073-0.19613,0.14237-0.46663,0.25944-0.8097,0.35115,0.2753,0.11071,0.47442,0.21978,0.59978,0.3298,0.0852,0.072,0.20871,0.22822,0.36946,0.46771,0.16133,0.23715,0.2675,0.42222,0.32267,0.55193l1.1174,2.5772h-2.6054l-1.2319-2.7188c-0.15714-0.35067-0.29629-0.58008-0.41925-0.68469-0.16613-0.13816-0.35326-0.20641-0.56498-0.20641h-0.20212v3.6099h-2.3158"/>
  <path id="path3409" fill="#F00" d="m148.64,106.64h2.4105l1.68,6.4005,1.6572-6.4005h2.3391l-2.7698,8.8941h-2.4987l-2.8228-8.8958"/>
  <path id="path3411" fill="#F00" d="m157.57,115.53h2.3096v-8.8941h-2.3119v8.8941z"/>
  <path id="path3413" fill="#F00" d="m166.5,111.89,2.0206,0.72762c-0.13615,0.67671-0.34967,1.2395-0.64176,1.6935-0.29089,0.45318-0.65255,0.79423-1.0862,1.0248-0.43244,0.23011-0.98305,0.34528-1.6512,0.34528-0.81029,0-1.4731-0.1391-1.987-0.42034-0.5146-0.28148-0.95843-0.77499-1.3321-1.4836-0.37246-0.70557-0.55959-1.6129-0.55959-2.7167,0-1.4701,0.32808-2.6001,0.9854-3.3916,0.65675-0.78879,1.5846-1.184,2.7866-1.184,0.93983,0,1.6788,0.22469,2.2162,0.67854,0.53739,0.45391,0.93681,1.1498,1.1983,2.0872l-2.035,0.53995c-0.072-0.27088-0.14695-0.4691-0.22492-0.59459-0.12835-0.20946-0.28669-0.37224-0.47322-0.48507-0.18594-0.11355-0.39525-0.16934-0.62556-0.16934-0.5218,0-0.92308,0.2498-1.2008,0.7506-0.21053,0.37224-0.31609,0.95608-0.31609,1.7518,0,0.98398,0.12656,1.6602,0.37726,2.0278,0.2501,0.36381,0.60337,0.54701,1.0586,0.54701,0.44084,0,0.77371-0.14661,0.99922-0.44262,0.22492-0.29532,0.38926-0.7248,0.49122-1.2861"/>
  <path id="path3415" fill="#F00" d="m169.64,106.64h6.1783v1.8993h-3.8679v1.413h3.5879v1.8142h-3.5879v1.754h3.98v2.0133h-6.2907v-8.8941"/>
  <path id="path3417" fill="#F00" d="m177.84,105.39h0.24112c0.16073,0,0.27469-0.0293,0.34006-0.0924,0.066-0.0631,0.0984-0.14309,0.0984-0.24019,0-0.0985-0.0317-0.17894-0.0948-0.24133-0.0624-0.062-0.16974-0.0927-0.32209-0.0927h-0.27642v0.6666zm-0.55658-1.1313h1.001c0.28309,0,0.48821,0.0678,0.61596,0.20476,0.12715,0.13511,0.19073,0.31831,0.19073,0.54818,0,0.17828-0.0492,0.33381-0.14635,0.46351-0.096,0.13163-0.2495,0.2259-0.45763,0.28523,0.0864,0.0384,0.14875,0.08,0.18954,0.12388,0.057,0.0617,0.11635,0.15198,0.17813,0.27063,0.004,0.009,0.12415,0.26745,0.36166,0.77174h-0.65795c-0.21412-0.5062-0.35746-0.81136-0.43063-0.91035-0.0725-0.0985-0.14695-0.14706-0.21952-0.14706-0.0168,0-0.0389,0.003-0.0684,0.008v1.049h-0.55659v-2.6679zm2.639,1.3354c0-0.55665-0.16553-1.0316-0.49601-1.425-0.32987-0.3938-0.72752-0.59135-1.1947-0.59135-0.46663,0-0.86428,0.19755-1.1941,0.59135-0.32928,0.39338-0.49542,0.86839-0.49542,1.425,0,0.55497,0.16614,1.03,0.49542,1.4238,0.32988,0.39265,0.72752,0.58967,1.1941,0.58967,0.46722,0,0.86486-0.19702,1.1947-0.58967,0.33048-0.39386,0.49601-0.8688,0.49601-1.4238zm0.40546,0c0,0.44682-0.0936,0.86243-0.2807,1.249-0.18713,0.38497-0.44263,0.68941-0.76711,0.91227-0.32448,0.22212-0.67234,0.33261-1.0484,0.33261-0.37246,0-0.72033-0.11049-1.0442-0.33261-0.32448-0.22284-0.57938-0.52728-0.76771-0.91227-0.18713-0.38653-0.28069-0.80218-0.28069-1.249,0-0.44543,0.0936-0.8616,0.28069-1.2477,0.18833-0.38797,0.44323-0.69241,0.76771-0.91403,0.32387-0.2226,0.67174-0.33501,1.0442-0.33501,0.37606,0,0.72392,0.11241,1.0484,0.33501,0.32448,0.22164,0.57998,0.52608,0.76711,0.91403,0.18713,0.38611,0.2807,0.80224,0.2807,1.2477"/>
 </g>
 <g id="template2" transform="translate(2.2070313e-6,180.00001)">
  <rect id="background2" height="179.29" width="314.55" stroke="#000" y="0.5" x="0.5" fill="#FFF"/>
  <text id="line1-0" style="text-anchor:end;" font-size="12.75px" y="31.879671" x="293.19989" font-family="Helvetica" fill="#000000">John Smith</text>
  <text id="line2-5" style="text-anchor:end;" font-size="9.375px" y="42.879669" x="293.19989" fill="#000000">Owner</text>
  <text id="line3-4" font-size="9.375px" style="text-anchor:start;" y="123.87967" x="22.199884" font-family="Helvetica" fill="#000000">123 Main Street</text>
  <text id="line4-0" font-size="9.375px" y="134.87967" x="22.199884" font-family="Helvetica" fill="#000000">Anywhere, USA 12345-6789</text>
  <text id="line5-6" font-size="9.375px" y="145.87967" x="22.199884" font-family="Helvetica" fill="#000000">Phone: (800) 123-4567</text>
  <text id="line6-6" font-size="9.375px" style="text-anchor:start;" y="156.87967" x="22.199884" font-family="Helvetica" fill="#000000">email@yourdomain.com</text>
  <path id="path3371-1" d="m77.802,56.262c-0.02945-1.9683,4.4116-0.53554,4.7484,0.50574,0.41253,1.2643,0.18522,3.0807,0.30309,4.6529,0.1305,1.7237,0.85034,2.971,0.50514,4.3491-1.4817,0.29502-3.1361-0.2229-3.7381-1.1127-1.1745-1.7281-0.15575-5.3524-1.0103-7.1812-0.21468-0.46342-0.80402-0.88485-0.80825-1.2137" fill="#00F"/>
  <path id="path3373-1" d="m83.564,66.377c-0.09261-1.6352,0.89244-2.4528,0.90925-4.1468,0.01264-1.0325-0.4883-2.2296-0.80825-3.1358-0.37465-1.0619-1.6039-3.3379-0.20206-3.8436,1.9827-0.7163,3.7128,1.9937,6.163,1.1129,0.26099,3.9868,0.47147,8.5593,0.40412,12.542-0.66092,0.05483-1.145-0.0673-1.5154-0.3029-0.71142-1.5556,0.05473-3.6249,0.20206-5.2603-0.9808,1.1084-0.73247,3.4475-1.4144,4.8551-1.6333-0.21915-2.8414-0.86398-3.7381-1.8207" fill="#00F"/>
  <path id="path3375-7" d="m77.602,55.352c-1.2081,0.01252-2.0248-0.72917-3.2329-1.0115,1.9785-11.101,4.159-22,6.2635-32.974,1.1282,10.84,1.6628,22.274,2.4247,33.48-0.97239-0.10094-1.5575-0.36236-2.4247-0.30328-1.1071,0.07573-2.0753,0.80078-3.0309,0.80919" fill="#00F"/>
  <path id="path3379-3" d="m67.095,57.071c2.3026-0.375,2.7193,1.989,4.4452,2.5287,0.17259-1.3022-0.41253-2.8826,0.40411-3.8438,0.75769-0.89344,2.3194-1.0913,3.2329-0.91037,2.2984,0.45124,4.079,5.4958,0.30308,5.1586-0.61036,2.1324,0.57671,3.8689,0.40412,5.5631-0.96398,0.97774-2.3994,1.0242-3.6371,1.3149-2.631,0.61953-4.4579,1.8714-6.7691,3.0345-1.0356,0.52273-2.4963,1.3571-3.536,1.3149-2.3782-0.09272-3.3969-3.557-6.1624-3.5402-0.39582,2.2548,6.3058,2.6089,5.6575,5.2597-0.15162,0.61542-0.79978,0.77562-1.6164,0.91042-0.31163,1.6778-1.8734,2.1029-3.536,2.4274,0.16838,0.77556,1.7259,0.16015,2.1217,0.70801,0.2945,0.77162-0.3792,0.95258-0.4042,1.6185-0.03368,0.91866,1.0943,1.728,0.50497,2.9332,1.3176-1.121,0.42542-3.6285,2.4249-4.147,0.62288-0.15986,1.0438,0.2318,1.7176,0.20234,0.32376-0.0127,0.72812-0.32877,1.2122-0.40468,0.65245-0.10107,1.4101,0.14325,1.9194,0,0.60618-0.17284,1.0608-1.1295,1.7175-1.4161,2.6352-1.1504,7.0384,0.29502,8.5875-2.3264-0.52198-0.55163-0.72406-1.9892-0.20206-2.731,1.0734-0.70384,2.1848,0.08429,3.3339,0.60695,0.66933,0.30804,1.427,0.39199,1.9196,0.60683,1.0229,0.44682,1.7137,2.0314,2.6267,2.4276,0.30309,0.13057,0.84188-0.02945,1.3134,0.10106,0.73247,0.20234,1.0439,0.86022,2.2226,0.50574,0.87139,0.57738,1.5322,1.3656,2.4247,1.9219-0.02528,3.6455,0.28246,7.4552,0,11.025-0.55945-0.26505-0.80825-0.57308-1.5154-0.50574-0.66933,0.06322-1.1913,0.99502-1.9196,1.0115-0.58931,0.01693-1.1366-0.17698-1.2124-0.91025-0.11366-1.0874,1.1534-1.0917,1.7175-1.7196-1.8522,0.1643-3.2582,2.2758-4.9504,0.80913-0.65245,0.35823-0.40412,1.6185-1.0103,2.023-1.0861,0.04645-1.9911-0.09697-2.7277-0.40449-0.58931-1.3108,0.29046-2.2042,0.20206-3.2368-0.04633-0.5352-0.61459-0.91042-0.60618-1.5172,0.01681-1.2306,1.8522-2.221,3.536-2.4276,0.8377-0.10106,1.6039,0.16858,2.3237,0.10128,1.1703-0.10933,1.9069-0.84287,2.8288-0.91042,0.79561-0.05485,1.789,0.56057,2.3237,0.10111-0.37465-1.7153-2.5005-0.78379-3.9401-1.3149-0.73664-0.26965-1.2334-1.3567-2.2226-1.0115-1.3765-1.2179-2.6604-2.5287-4.2432-3.5402-1.1408,1.1084-1.2881,2.5919-2.8288,3.3379-1.7049,0.82606-4.18,0.44678-6.0619,1.1127-1.2418,0.43822-2.0122,1.2516-2.8288,2.124,0.71142,1.0874,2.0627,0.0759,3.1319,0,2.5131-0.17267,4.9672,0.59848,5.5566,2.63,0.60618,2.0865-1.3807,3.3252-2.5257,1.5172-0.68197,0.78003-1.6375,2.2083-3.2329,1.416-0.33255-0.37502-0.15996-1.2559-0.20206-1.9217-0.71983,0.0214-0.16838,1.3149-0.80825,1.416-1.3807-0.19805-2.5089-1.6053-3.536,0.20266-0.0463,0.80884,0.69455,0.86363,0.60618,1.5169-0.18943,1.3571-3.8265,1.5972-3.6371-0.50574,0.09686-1.062,1.1284-0.88079,1.3135-2.2253-1.4314-0.24859-1.4608,1.6647-2.7278,1.7196-0.57683,0.02534-1.5154-0.67432-1.8186-1.1125-0.61859-0.90202-0.41666-2.436-0.30288-3.7425-1.183,1.5594-4.9462,0.87668-4.4454-2.1242-10.158-1.2939-20.395-2.5076-30.713-3.6409,9.6863-1.3616,19.89-2.2046,29.804-3.3382,0.09686-1.4199,0.13037-2.9039,0.70724-3.8432-10.348-4.8472-20.775-9.6145-31.219-14.364,11.101,2.6762,22.588,5.8412,33.744,8.7997,1.1449-0.64075,1.9995-1.5722,3.7379-1.6183-6.0025-10.039-12.208-19.876-18.387-29.738,6.1165,6.2418,12.869,12.673,18.993,19.32,2.0416,2.2126,4.1969,4.2775,5.8596,6.6756-1.5618,0.47658-2.9969,0.2573-4.0413,1.1131-0.8922,0.73323-1.2247,1.9005-2.1213,2.6297,1.9237,0.19804,2.7235,1.5212,4.5462,1.8205-0.04209-1.4287-2.7277-1.1381-3.0309-2.4274-0.36606-1.5508,1.7682-2.1999,3.0309-2.1242,1.6291,0.0971,2.572,1.0747,3.536,1.6183-0.46305-1.1335-1.6039-2.0862-1.3134-3.6411zm-1.4144,26.501c0.35781-0.24019,0.47989-1.3991,0-1.6183-0.24836,0.39199-0.69455,0.58573-0.70719,1.2138,0.13892,0.2318,0.37044,0.37075,0.70719,0.40446zm-5.253-17.294c0.24828-1.3192-1.9828-1.3991-2.5257-0.70807,0.62729,0.45091,1.3387,0.8176,2.3236,0.91078,0.02105-0.11425,0.11362-0.1564,0.2021-0.20267" fill="#00F"/>
  <path id="path3383-4" d="m93.052,56.864h2.3237v6.7521h3.6265v2.2064h-5.9507v-8.9576" fill="#F00"/>
  <path id="path3385-1" d="m99.895,65.823h1.6295v-6.2706h-1.6285v6.2706z" fill="#F00"/>
  <path id="path3387-7" d="m104.34,64.475h0.82929c0.27909,0,0.47694-0.05892,0.59226-0.17696,0.11407-0.11885,0.17174-0.27774,0.17174-0.47662,0-0.18552-0.0568-0.33548-0.17049-0.44876-0.11323-0.11194-0.31276-0.16875-0.5973-0.16875h-0.82548v1.2711zm0-2.4638h0.70678c0.25383,0,0.4302-0.05183,0.52871-0.15589,0.10019-0.10338,0.14986-0.25485,0.14986-0.45192,0-0.1824-0.0497-0.32481-0.14986-0.42769-0.0985-0.10208-0.27151-0.15391-0.51777-0.15391h-0.71771v1.1894zm-1.6417-2.4594h3.0452c0.50682,0,0.89661,0.14966,1.169,0.44893,0.2711,0.29965,0.40748,0.67038,0.40748,1.1124,0,0.37041-0.0977,0.68867-0.29214,0.95399-0.12839,0.17616-0.31782,0.31579-0.56618,0.41867,0.3776,0.10898,0.65628,0.29422,0.83388,0.55842,0.17891,0.2634,0.26815,0.59566,0.26815,0.99502,0,0.32498-0.064,0.61706-0.18985,0.87586-0.12754,0.26092-0.30098,0.46524-0.52114,0.617-0.13639,0.09352-0.34223,0.16184-0.61753,0.20482-0.36623,0.05694-0.60913,0.0856-0.72865,0.0856h-2.8082v-6.2706" fill="#F00"/>
  <path id="path3389-3" d="m108.41,59.552h4.3589v1.3379h-2.729v0.99714h2.5316v1.2795h-2.5316v1.2357h2.8078v1.4207h-4.4387v-6.2706" fill="#F00"/>
  <path id="path3391-4" d="m115.38,62.092h0.68491c0.0749,0,0.2189-0.02878,0.43105-0.0856,0.10819-0.0247,0.19617-0.09052,0.26437-0.19589,0.0682-0.1057,0.10228-0.2267,0.10228-0.36418,0-0.20217-0.0534-0.35722-0.16122-0.46638-0.10776-0.10819-0.31024-0.16217-0.60701-0.16217h-0.71436v1.2742zm-1.6341,3.7306v-6.2706h2.7114c0.50219,0,0.88737,0.05103,1.1517,0.15374,0.26647,0.10258,0.48116,0.2924,0.64282,0.57128,0.16374,0.2774,0.24499,0.61671,0.24499,1.0154,0,0.3485-0.0623,0.64893-0.18733,0.90131-0.12418,0.2519-0.29593,0.45605-0.51398,0.61324-0.13849,0.09963-0.32876,0.18194-0.57039,0.24828,0.19406,0.07738,0.33466,0.15375,0.42264,0.23032,0.0598,0.05184,0.14691,0.16184,0.26057,0.32991,0.11407,0.16938,0.189,0.29881,0.22773,0.38984l0.78803,1.8173h-1.8379l-0.86927-1.916c-0.11029-0.24828-0.2088-0.4091-0.29509-0.4837-0.11703-0.09664-0.25005-0.14569-0.39864-0.14569h-0.14313v2.5453h-1.6341" fill="#F00"/>
  <path id="path3393-5" d="m119.01,59.552h4.9445v1.5478h-1.6589v4.7229h-1.6261v-4.7227h-1.6579v-1.5478" fill="#F00"/>
  <path id="path3395-0" d="m124.16,59.552h1.8076l1.06,2.1153,1.0625-2.1153h1.7966l-2.0467,3.6439v2.6268h-1.6287v-2.6267l-2.0518-3.6439" fill="#F00"/>
  <path id="path3397-1" d="m92.6,67.726h6.9784v2.2269h-2.3417v6.792h-2.2955v-6.792h-2.3409v-2.227" fill="#F00"/>
  <path id="path3399-9" d="m103.25,74.334-0.5746-2.2691-0.56744,2.2691h1.1421zm0.33214,1.3655h-1.824l-0.25341,1.0419h-1.6405l1.9549-6.3135h1.7532l1.9549,6.3135h-1.6846l-0.26057-1.0419" fill="#F00"/>
  <path id="path3401-7" d="m105.69,70.431h1.7701l0.92065,1.9425,0.89579-1.9425h1.7528l-1.6173,3.058,1.7701,3.2554h-1.8054l-1.028-2.0286-1.0267,2.0286h-1.7941l1.7941-3.2903-1.632-3.023" fill="#F00"/>
  <path id="path3403-0" d="m92.794,84.552,2.199-0.16398c0.04797,0.42573,0.14438,0.75022,0.2913,0.97309,0.23784,0.3612,0.57797,0.54196,1.0204,0.54196,0.33003,0,0.58344-0.09269,0.76233-0.27724,0.1789-0.18421,0.26773-0.3984,0.26773-0.64187,0-0.23098-0.08461-0.43792-0.2551-0.62047-0.16964-0.1824-0.56407-0.35478-1.1837-0.51708-1.0137-0.27133-1.7364-0.63217-2.1683-1.0826-0.43569-0.44977-0.65334-1.0238-0.65334-1.7212,0-0.45866,0.11155-0.89144,0.33466-1.2994,0.22268-0.40712,0.55734-0.727,1.0048-0.96092,0.44747-0.23293,1.0604-0.34934,1.8395-0.34934,0.95558,0,1.6846,0.21207,2.1864,0.63599,0.50177,0.4236,0.79978,1.0974,0.89579,2.0221l-2.1788,0.1521c-0.05808-0.40118-0.17975-0.69372-0.36455-0.87562-0.18606-0.18257-0.442-0.27445-0.76868-0.27445-0.26857,0-0.47104,0.06781-0.60701,0.20449-0.13639,0.13562-0.20374,0.30075-0.20374,0.4955,0,0.14161,0.05556,0.26935,0.16754,0.3836,0.10945,0.11754,0.36792,0.2267,0.77627,0.32827,1.0099,0.25911,1.7335,0.52171,2.1704,0.78773,0.43737,0.26505,0.75563,0.59502,0.95469,0.98832,0.19911,0.39313,0.29846,0.83353,0.29846,1.3203,0,0.57158-0.1326,1.0984-0.3978,1.5812-0.26562,0.48269-0.63605,0.84852-1.1125,1.0979-0.4761,0.24957-1.0764,0.37436-1.8013,0.37436-1.2721,0-2.1536-0.29222-2.6431-0.87633-0.48957-0.58361-0.76656-1.3262-0.83141-2.2264" fill="#F00"/>
  <path id="path3405-2" d="m100.51,81.26h4.3367v1.333h-2.7152v0.99173h2.5186v1.2733h-2.5186v1.2311h2.793v1.413h-4.4146v-6.2423" fill="#F00"/>
  <path id="path3407-0" d="m107.44,83.788h0.68197c0.0741,0,0.21637-0.02863,0.42852-0.08547,0.10693-0.02616,0.19449-0.09104,0.26226-0.1964,0.0682-0.10452,0.10271-0.22505,0.10271-0.36085,0-0.20318-0.0543-0.35642-0.16081-0.46444-0.10733-0.10832-0.30897-0.16264-0.60365-0.16264h-0.71101v1.2698zm-1.6253,3.7125v-6.2423h2.6966c0.49967,0,0.88274,0.0505,1.1462,0.15294,0.26435,0.10208,0.47819,0.29223,0.64028,0.56782,0.16165,0.27774,0.24289,0.61489,0.24289,1.0118,0,0.34652-0.0627,0.64481-0.1869,0.89602-0.12292,0.25156-0.29383,0.45521-0.51061,0.61112-0.13766,0.09993-0.32751,0.18209-0.56829,0.24646,0.19322,0.0777,0.33297,0.15425,0.42095,0.23147,0.0598,0.05056,0.14649,0.16018,0.25931,0.32827,0.11323,0.16644,0.18774,0.29634,0.22647,0.38738l0.78426,1.8088h-1.8286l-0.86463-1.9082c-0.11029-0.24612-0.20795-0.40713-0.29425-0.48055-0.1166-0.09697-0.24793-0.14487-0.39653-0.14487h-0.14186v2.5336h-1.6253" fill="#F00"/>
  <path id="path3409-1" d="m110.85,81.26h1.6918l1.1791,4.4922,1.1631-4.4922h1.6417l-1.944,6.2423h-1.7537l-1.9812-6.2435" fill="#F00"/>
  <path id="path3411-9" d="m117.12,87.498h1.621v-6.2423h-1.6226v6.2423z" fill="#F00"/>
  <path id="path3413-5" d="m123.38,84.946,1.4182,0.51068c-0.0956,0.47495-0.24542,0.86992-0.45042,1.1886-0.20416,0.31806-0.458,0.55743-0.76233,0.71924-0.30351,0.1615-0.68996,0.24233-1.1589,0.24233-0.56871,0-1.0339-0.09763-1.3946-0.29502-0.36118-0.19756-0.67268-0.54393-0.93494-1.0413-0.26142-0.49521-0.39276-1.132-0.39276-1.9067,0-1.0318,0.23027-1.8249,0.69161-2.3804,0.46094-0.55362,1.1121-0.831,1.9558-0.831,0.65963,0,1.1783,0.1577,1.5554,0.47624,0.37718,0.31857,0.65751,0.80701,0.84106,1.4649l-1.4283,0.37897c-0.0505-0.19012-0.10314-0.32924-0.15786-0.41732-0.0901-0.147-0.20121-0.26126-0.33213-0.34045-0.1305-0.0797-0.27741-0.11885-0.43906-0.11885-0.36622,0-0.64786,0.17532-0.84275,0.52681-0.14776,0.26126-0.22185,0.67103-0.22185,1.2295,0,0.69061,0.0888,1.1652,0.26478,1.4232,0.17554,0.25534,0.42348,0.38392,0.74299,0.38392,0.3094,0,0.54304-0.10289,0.70131-0.31065,0.15786-0.20727,0.2732-0.5087,0.34476-0.90266" fill="#F00"/>
  <path id="path3415-7" d="m125.58,81.26h4.3362v1.333h-2.7147v0.99173h2.5182v1.2733h-2.5182v1.2311h2.7934v1.413h-4.4151v-6.2423" fill="#F00"/>
  <path id="path3417-9" d="m131.34,80.384h0.16923c0.11281,0,0.1928-0.02058,0.23868-0.06486,0.0463-0.04427,0.069-0.10043,0.069-0.16858,0-0.06915-0.0223-0.12559-0.0665-0.16938-0.0438-0.0435-0.11914-0.06503-0.22606-0.06503h-0.194v0.46785zm-0.39064-0.79402h0.70254c0.19869,0,0.34266,0.04756,0.43232,0.14371,0.0892,0.09482,0.13386,0.22341,0.13386,0.38474,0,0.12513-0.0345,0.23428-0.10271,0.32532-0.0674,0.09238-0.17511,0.15855-0.32119,0.20019,0.0606,0.02698,0.1044,0.05614,0.13303,0.08695,0.04,0.04327,0.0817,0.10667,0.12502,0.18994,0.003,0.0065,0.0871,0.18771,0.25383,0.54164h-0.46178c-0.15028-0.35528-0.25089-0.56946-0.30224-0.63893-0.0509-0.06916-0.10314-0.10322-0.15407-0.10322-0.0118,0-0.0273,0.0018-0.048,0.0059v0.7354h-0.39064v-1.8725zm1.8522,0.93723c0-0.39068-0.11619-0.72406-0.34813-1.0001-0.23152-0.27639-0.51062-0.41505-0.83852-0.41505-0.32751,0-0.6066,0.13866-0.83812,0.41505-0.2311,0.27609-0.34771,0.60948-0.34771,1.0001,0,0.38951,0.11661,0.72288,0.34771,0.99932,0.23153,0.27558,0.51062,0.41386,0.83812,0.41386,0.32792,0,0.607-0.13827,0.83852-0.41386,0.23194-0.27643,0.34813-0.60977,0.34813-0.99932zm0.28456,0c0,0.3136-0.0657,0.6053-0.197,0.87662-0.13134,0.27019-0.31067,0.48387-0.5384,0.64028-0.22774,0.15589-0.47189,0.23344-0.73582,0.23344-0.26141,0-0.50557-0.07755-0.73288-0.23344-0.22773-0.1564-0.40664-0.37007-0.53882-0.64028-0.13133-0.27129-0.197-0.56301-0.197-0.87662,0-0.31263,0.0657-0.60472,0.197-0.87568,0.13218-0.2723,0.31109-0.48597,0.53882-0.64152,0.22731-0.15623,0.47147-0.23512,0.73288-0.23512,0.26394,0,0.50809,0.0789,0.73582,0.23512,0.22773,0.15556,0.40706,0.36923,0.5384,0.64152,0.13134,0.27099,0.197,0.56306,0.197,0.87568" fill="#F00"/>
 </g>
</svg>
