<?xml version="1.0" encoding="UTF-8" standalone="no"?>
<!-- Created with Inkscape (http://www.inkscape.org/) -->
<svg id="svg3119" xmlns:rdf="http://www.w3.org/1999/02/22-rdf-syntax-ns#" xmlns="http://www.w3.org/2000/svg" viewBox="0 0 315 180" height="100%" width="100%" version="1.1" xmlns:cc="http://creativecommons.org/ns#" xmlns:dc="http://purl.org/dc/elements/1.1/">
 <metadata id="metadata3123">
  <rdf:RDF>
   <cc:Work rdf:about="">
    <dc:format>image/svg+xml</dc:format>
    <dc:type rdf:resource="http://purl.org/dc/dcmitype/StillImage"/>
    <dc:title/>
   </cc:Work>
  </rdf:RDF>
 </metadata>
 <text id="line1" style="text-anchor:end" font-size="12.75px" y="33" x="293" font-family="Helvetica" fill="#000000">John Smith</text>
 <text id="line2" style="text-anchor:end" font-size="9.375px" y="44" x="293" font-family="Helvetica" fill="#000000">Owner</text>
 <text id="line3" font-size="9.375px" y="137" x="22" font-family="Helvetica" fill="#000000">123 Main Street</text>
 <text id="line4" font-size="9.375px" y="148" x="22" font-family="Helvetica" fill="#000000">Anywhere, USA 12345-6789</text>
 <text id="line5" font-size="9.375px" y="158" x="22" font-family="Helvetica" fill="#000000">email@yourdomain.com</text>
 <text id="line6" style="text-anchor:end" font-size="9.375px" y="158" x="293" font-family="Helvetica" fill="#000000">Phone: (800) 123-4567</text>
 <text id="line7" style="text-anchor:end" font-size="9.375px" y="147" x="293" font-family="Helvetica" fill="#000000">FAX: (123) 456-7890</text>
 <g id="g3020" transform="matrix(.58790 0 0 .58790 16.037 16.041)">
  <path id="path3371" d="m104.72 70.32c-0.0501-3.348 7.504-0.91093 8.0768 0.86024 0.7017 2.1506 0.31505 5.2402 0.51554 7.9145 0.22197 2.9319 1.4464 5.0536 0.85923 7.3977-2.5204 0.50181-5.3344-0.37915-6.3583-1.8927-1.9977-2.9395-0.26493-9.1043-1.7185-12.215-0.36517-0.78827-1.3676-1.5051-1.3748-2.0644" fill="#00F"/>
  <path id="path3373" d="m114.52 87.525c-0.15753-2.7815 1.518-4.1721 1.5466-7.0536 0.0215-1.7563-0.83059-3.7925-1.3748-5.3339-0.63727-1.8062-2.7281-5.6776-0.3437-6.5379 3.3725-1.2184 6.3154 3.3912 10.483 1.893 0.44394 6.7814 0.80195 14.559 0.68739 21.334-1.1242 0.09326-1.9476-0.11448-2.5777-0.51522-1.2101-2.646 0.0931-6.1659 0.34369-8.9475-1.6683 1.8854-1.2459 5.8641-2.4058 8.2583-2.7782-0.37277-4.8332-1.4696-6.3583-3.0969" fill="#00F"/>
  <path id="path3375" d="m104.38 68.772c-2.055 0.02129-3.4441-1.2403-5.4991-1.7205 3.3653-18.883 7.0743-37.421 10.654-56.088 1.919 18.438 2.8283 37.887 4.1243 56.948-1.654-0.17169-2.6493-0.61636-4.1243-0.51586-1.8831 0.12882-3.53 1.3621-5.1554 1.3764" fill="#00F"/>
  <path id="path3379" d="m86.508 71.696c3.9167-0.63787 4.6255 3.3833 7.5612 4.3012 0.29357-2.215-0.7017-4.9032 0.68738-6.5381 1.2888-1.5197 3.9453-1.8563 5.4991-1.5485 3.9095 0.76755 6.9383 9.3481 0.51553 8.7746-1.0382 3.6272 0.98096 6.5809 0.68739 9.4627-1.6397 1.6631-4.0813 1.7421-6.1865 2.2366-4.4752 1.0538-7.5827 3.1831-11.514 5.1615-1.7616 0.88914-4.2461 2.3083-6.0146 2.2366-4.0453-0.15771-5.778-6.0503-10.482-6.0217-0.67328 3.8353 10.726 4.4376 9.6232 8.9465-0.25791 1.0468-1.3604 1.3193-2.7494 1.5486-0.53007 2.8538-3.1866 3.577-6.0146 4.129 0.28641 1.3192 2.9357 0.27241 3.6089 1.2043 0.50093 1.3125-0.645 1.6203-0.68753 2.753-0.05728 1.5626 1.8614 2.9392 0.85894 4.9892 2.2412-1.9067 0.72362-6.172 4.1247-7.0539 1.0595-0.27191 1.7755 0.39428 2.9215 0.34417 0.5507-0.0216 1.2385-0.55923 2.0619-0.68834 1.1098-0.17191 2.3985 0.24366 3.2649 0 1.0311-0.29399 1.8044-1.9213 2.9214-2.4088 4.4823-1.9568 11.972 0.50181 14.607-3.9571-0.88787-0.93831-1.2316-3.3836-0.34369-4.6453 1.8259-1.1972 3.7162 0.14337 5.6709 1.0324 1.1385 0.52396 2.4273 0.66676 3.2651 1.0322 1.74 0.76003 2.9149 3.4553 4.468 4.1293 0.51554 0.22209 1.432-0.0501 2.234 0.1719 1.2459 0.34417 1.7757 1.4632 3.7806 0.86025 1.4822 0.98211 2.6063 2.3229 4.1243 3.2691-0.043 6.2009 0.48045 12.681 0 18.753-0.9516-0.45084-1.3748-0.97478-2.5777-0.86024-1.1385 0.10753-2.0264 1.6925-3.2651 1.7205-1.0024 0.0288-1.9333-0.30103-2.0622-1.5483-0.19333-1.8496 1.9619-1.8569 2.9214-2.9249-3.1505 0.27946-5.542 3.8711-8.4204 1.3763-1.1098 0.60934-0.68739 2.753-1.7185 3.441-1.8474 0.079-3.3868-0.16494-4.6398-0.68803-1.0024-2.2296 0.49406-3.7493 0.34369-5.5056-0.0788-0.91035-1.0454-1.5486-1.0311-2.5807 0.0286-2.0932 3.1505-3.7778 6.0146-4.1293 1.4249-0.1719 2.7281 0.28675 3.9525 0.17227 1.9906-0.18596 3.2436-1.4337 4.8117-1.5486 1.3533-0.0933 3.0431 0.95351 3.9525 0.17198-0.63726-2.9177-4.2532-1.3332-6.702-2.2366-1.253-0.45866-2.098-2.3077-3.7806-1.7205-2.3414-2.0716-4.5253-4.3012-7.2175-6.0217-1.9404 1.8854-2.191 4.4088-4.8117 5.6776-2.8999 1.4051-7.1101 0.75995-10.311 1.8927-2.1123 0.7454-3.4226 2.129-4.8117 3.6129 1.2101 1.8496 3.5085 0.12911 5.3272 0 4.2747-0.2937 8.4491 1.018 9.4515 4.4735 1.0311 3.549-2.3486 5.656-4.2961 2.5807-1.16 1.3268-2.7853 3.7563-5.4991 2.4085-0.56566-0.6379-0.27209-2.1363-0.34369-3.2688-1.2244 0.0364-0.28641 2.2366-1.3748 2.4085-2.3486-0.33687-4.2675-2.7305-6.0146 0.34471-0.07876 1.3758 1.1814 1.469 1.0311 2.5802-0.32221 2.3083-6.5087 2.7168-6.1865-0.86025 0.16476-1.8065 1.9193-1.4982 2.2342-3.7851-2.4348-0.42285-2.4848 2.8316-4.6399 2.9249-0.98117 0.0431-2.5777-1.147-3.0934-1.8924-1.0522-1.5343-0.70872-4.1436-0.51518-6.3659-2.0122 2.6524-8.4133 1.4912-7.5614-3.6132-17.278-2.2008-34.692-4.2654-52.241-6.1931 16.476-2.3161 33.832-3.7499 50.695-5.6781 0.16476-2.4152 0.22175-4.9394 1.203-6.5372-17.602-8.245-35.338-16.354-53.103-24.433 18.882 4.5521 38.422 9.9357 57.397 14.968 1.9475-1.0899 3.4011-2.6743 6.358-2.7527-10.21-17.076-20.765-33.808-31.276-50.583 10.404 10.617 21.889 21.556 32.307 32.862 3.4727 3.7636 7.1387 7.2759 9.967 11.355-2.6565 0.81064-5.0977 0.43765-6.8741 1.8933-1.5176 1.2472-2.0832 3.2327-3.6083 4.4731 3.2722 0.33686 4.6326 2.5875 7.7329 3.0966-0.0716-2.4301-4.6398-1.9358-5.1555-4.129-0.62266-2.6379 3.0076-3.742 5.1555-3.6132 2.771 0.16517 4.3749 1.828 6.0146 2.7526-0.78763-1.928-2.7281-3.5485-2.234-6.1934zm-2.4058 45.077c0.60862-0.40855 0.81627-2.3799 0-2.7526-0.42246 0.66676-1.1814 0.9963-1.2029 2.0647 0.23629 0.39428 0.6301 0.63063 1.2029 0.68798zm-8.935-29.417c0.42231-2.2439-3.3726-2.3799-4.2962-1.2044 1.067 0.76698 2.277 1.3907 3.9524 1.5492 0.0358-0.19434 0.19326-0.26603 0.34376-0.34474" fill="#00F"/>
  <path id="path3383" d="m130.66 71.344h3.9525v11.485h6.1686v3.753h-10.121v-15.238" fill="#F00"/>
  <path id="path3385" d="m142.3 86.582h2.7718v-10.666h-2.77v10.666z" fill="#F00"/>
  <path id="path3387" d="m149.86 84.29h1.4106c0.47472 0 0.81126-0.10022 1.0074-0.30101 0.19404-0.20216 0.29213-0.47242 0.29213-0.81071 0-0.31557-0.0967-0.57063-0.28999-0.76332-0.19261-0.1904-0.532-0.28704-1.016-0.28704h-1.4041v2.1621zm0-4.1909h1.2022c0.43176 0 0.73177-0.08817 0.89932-0.26517 0.17042-0.17585 0.25491-0.43349 0.25491-0.7687 0-0.31026-0.0845-0.55249-0.25491-0.72748-0.16755-0.17363-0.46183-0.2618-0.88071-0.2618h-1.2208v2.0232zm-2.7925-4.1833h5.1797c0.86209 0 1.5251 0.25456 1.9884 0.76361 0.46112 0.5097 0.69311 1.1403 0.69311 1.8922 0 0.63006-0.16612 1.1714-0.49692 1.6227-0.21839 0.29965-0.5406 0.53715-0.96305 0.71214 0.64227 0.18538 1.1163 0.50045 1.4184 0.94985 0.30431 0.44804 0.45611 1.0132 0.45611 1.6925 0 0.55278-0.10884 1.0496-0.32293 1.4898-0.21695 0.44381-0.51195 0.79135-0.88644 1.0495-0.23199 0.15907-0.58212 0.27528-1.0504 0.3484-0.62294 0.09685-1.0361 0.1456-1.2394 0.1456h-4.7766v-10.666" fill="#F00"/>
  <path id="path3389" d="m156.78 75.916h7.4144v2.2758h-4.642v1.6961h4.3062v2.1758h-4.3062v2.1019h4.7759v2.4166h-7.55v-10.666" fill="#F00"/>
  <path id="path3391" d="m168.64 80.236h1.165c0.12746 0 0.37234-0.04896 0.73321-0.1456 0.18402-0.04201 0.33367-0.15398 0.44967-0.3332 0.11599-0.17979 0.17399-0.3856 0.17399-0.61945 0-0.34388-0.0909-0.60762-0.27424-0.79329-0.1833-0.18402-0.52771-0.27585-1.0325-0.27585h-1.2151v2.1674zm-2.7796 6.3457v-10.666h4.6119c0.85422 0 1.5094 0.08681 1.959 0.26151 0.45325 0.17449 0.81842 0.49736 1.0934 0.97172 0.27853 0.47184 0.41672 1.049 0.41672 1.7272 0 0.59278-0.10597 1.1038-0.31863 1.5331-0.21123 0.42847-0.50337 0.77573-0.87427 1.0431-0.23557 0.16947-0.55921 0.30947-0.97021 0.42231 0.33009 0.13162 0.56924 0.26152 0.71889 0.39177 0.10167 0.08818 0.24989 0.27528 0.44322 0.56117 0.19404 0.28811 0.32149 0.50826 0.38737 0.6631l1.3404 3.0912h-3.1262l-1.4786-3.259c-0.1876-0.42231-0.35515-0.69587-0.50193-0.82275-0.19906-0.16438-0.42532-0.24782-0.67808-0.24782h-0.24345v4.3295h-2.7796" fill="#F00"/>
  <path id="path3393" d="m174.81 75.916h8.4104v2.6328h-2.8218v8.0335h-2.766v-8.0332h-2.82v-2.6328" fill="#F00"/>
  <path id="path3395" d="m183.57 75.916h3.0746l1.803 3.598 1.8072-3.598h3.056l-3.4813 6.1981v4.4681h-2.7703v-4.4679l-3.49-6.1981" fill="#F00"/>
  <path id="path3397" d="m129.89 89.819h11.87v3.7879h-3.9832v11.553h-3.9045v-11.553h-3.9818v-3.788" fill="#F00"/>
  <path id="path3399" d="m148.01 101.06-0.97737-3.8596-0.9652 3.8596h1.9426zm0.56495 2.3226h-3.1025l-0.43105 1.7723h-2.7904l3.3252-10.739h2.9822l3.3252 10.739h-2.8655l-0.44322-1.7723" fill="#F00"/>
  <path id="path3401" d="m152.15 94.42h3.0109l1.566 3.3041 1.5237-3.3041h2.9815l-2.751 5.2015 3.0109 5.5373h-3.071l-1.7485-3.4505-1.7464 3.4505h-3.0517l3.0517-5.5967-2.776-5.1421" fill="#F00"/>
  <path id="path3403" d="m130.22 118.44 3.7405-0.27893c0.0816 0.72416 0.24559 1.2761 0.49549 1.6552 0.40455 0.61438 0.9831 0.92186 1.7356 0.92186 0.56137 0 0.99241-0.15766 1.2967-0.47158 0.30431-0.31334 0.4554-0.67766 0.4554-1.0918 0-0.39288-0.14392-0.74488-0.43392-1.0554-0.28855-0.31026-0.95947-0.60346-2.0135-0.87953-1.7242-0.46152-2.9536-1.0753-3.6882-1.8415-0.74109-0.76504-1.1113-1.7415-1.1113-2.9277 0-0.78017 0.18975-1.5163 0.56924-2.2102 0.37878-0.6925 0.94802-1.2366 1.7092-1.6345 0.76113-0.39621 1.8037-0.59421 3.129-0.59421 1.6254 0 2.8655 0.36073 3.719 1.0818 0.8535 0.72053 1.3604 1.8667 1.5237 3.4396l-3.7061 0.25872c-0.0988-0.68239-0.30575-1.18-0.62008-1.4894-0.31648-0.31055-0.75183-0.46683-1.3075-0.46683-0.45683 0-0.80123 0.11535-1.0325 0.34783-0.23199 0.23069-0.34656 0.51156-0.34656 0.84282 0 0.24087 0.0945 0.45815 0.28498 0.6525 0.18617 0.19993 0.62581 0.3856 1.3204 0.55837 1.7178 0.44073 2.9486 0.88741 3.6918 1.3399 0.74395 0.45084 1.2853 1.0121 1.6239 1.6811 0.33868 0.6687 0.50767 1.4178 0.50767 2.2458 0 0.97224-0.22555 1.8683-0.67665 2.6896-0.45181 0.82104-1.0819 1.4433-1.8924 1.8675-0.80983 0.42451-1.8309 0.63678-3.0639 0.63678-2.1638 0-3.6632-0.49705-4.4959-1.4906-0.83274-0.9927-1.3039-2.2559-1.4142-3.7871" fill="#F00"/>
  <path id="path3405" d="m143.34 112.84h7.3765v2.2674h-4.6184v1.6869h4.284v2.1658h-4.284v2.094h4.7508v2.4035h-7.509v-10.618" fill="#F00"/>
  <path id="path3407" d="m155.14 117.14h1.16c0.12602 0 0.36804-0.0487 0.72891-0.14538 0.18187-0.0445 0.33081-0.15485 0.44609-0.33406 0.11599-0.17779 0.17471-0.38281 0.17471-0.61379 0-0.3456-0.0924-0.60626-0.27353-0.78999-0.18258-0.18424-0.52556-0.27664-1.0268-0.27664h-1.2094v2.1599zm-2.7646 6.3149v-10.618h4.5869c0.84992 0 1.5015 0.0859 1.9497 0.26015 0.44966 0.17363 0.8134 0.49708 1.0891 0.96584 0.27496 0.47242 0.41315 1.0459 0.41315 1.7211 0 0.58941-0.10669 1.0968-0.31792 1.5241-0.20907 0.4279-0.49978 0.7743-0.86853 1.0395-0.23414 0.16997-0.55707 0.30973-0.96664 0.41922 0.32866 0.13217 0.56638 0.26238 0.71603 0.39372 0.10167 0.086 0.24917 0.27246 0.44107 0.55837 0.19261 0.28311 0.31935 0.50406 0.38522 0.65891l1.334 3.0767h-3.1104l-1.4707-3.2458c-0.1876-0.41864-0.35372-0.69251-0.50051-0.8174-0.19833-0.16494-0.42173-0.24642-0.67449-0.24642h-0.2413v4.3096h-2.7646" fill="#F00"/>
  <path id="path3409" d="m160.93 112.84h2.8777l2.0056 7.6411 1.9784-7.6411h2.7925l-3.3066 10.618h-2.983l-3.37-10.62" fill="#F00"/>
  <path id="path3411" d="m171.59 123.45h2.7573v-10.618h-2.76v10.618z" fill="#F00"/>
  <path id="path3413" d="m182.25 119.11 2.4123 0.86865c-0.16254 0.80788-0.41745 1.4797-0.76615 2.0218-0.34727 0.54101-0.77904 0.94817-1.2967 1.2234-0.51626 0.27471-1.1736 0.4122-1.9712 0.4122-0.96735 0-1.7586-0.16606-2.3722-0.50181-0.61435-0.33604-1.1442-0.92521-1.5903-1.7712-0.44466-0.84233-0.66806-1.9255-0.66806-3.2433 0-1.755 0.39167-3.1041 1.1764-4.049 0.78405-0.94168 1.8917-1.4135 3.3267-1.4135 1.122 0 2.0042 0.26825 2.6457 0.81007 0.64156 0.54188 1.1184 1.3727 1.4306 2.4917l-2.4295 0.64461c-0.0859-0.32338-0.17543-0.56002-0.26851-0.70984-0.15323-0.25005-0.34226-0.44439-0.56495-0.57909-0.22197-0.13556-0.47186-0.20216-0.74681-0.20216-0.62294 0-1.102 0.29822-1.4335 0.89609-0.25133 0.44439-0.37735 1.1414-0.37735 2.0913 0 1.1747 0.15108 1.982 0.45038 2.4208 0.29858 0.43433 0.72032 0.65303 1.2638 0.65303 0.52628 0 0.92368-0.17502 1.1929-0.52841 0.26851-0.35256 0.4647-0.86529 0.58643-1.5354" fill="#F00"/>
  <path id="path3415" d="m185.99 112.84h7.3758v2.2674h-4.6176v1.6869h4.2833v2.1658h-4.2833v2.094h4.7515v2.4035h-7.51v-10.618" fill="#F00"/>
  <path id="path3417" d="m195.78 111.35h0.28785c0.19189 0 0.32794-0.035 0.40598-0.11033 0.0788-0.0753 0.11743-0.17083 0.11743-0.28675 0-0.11763-0.0379-0.21362-0.11313-0.28811-0.0745-0.074-0.20264-0.11061-0.38451-0.11061h-0.33v0.7958zm-0.66447-1.3506h1.195c0.33796 0 0.58284 0.0809 0.73536 0.24445 0.15179 0.16129 0.22769 0.38001 0.22769 0.65443 0 0.21284-0.0587 0.39851-0.17471 0.55335-0.11456 0.15714-0.29786 0.26969-0.54633 0.34052 0.10311 0.0459 0.17758 0.0955 0.22627 0.14789 0.068 0.0736 0.13891 0.18144 0.21266 0.32309 0.005 0.011 0.14822 0.31929 0.43176 0.92132h-0.78548c-0.25562-0.60432-0.42675-0.96863-0.5141-1.0868-0.0866-0.11764-0.17543-0.17557-0.26207-0.17557-0.02 0-0.0465 0.003-0.0816 0.01v1.2523h-0.66447v-3.185zm3.1505 1.5942c0-0.66454-0.19762-1.2316-0.59215-1.7012-0.39381-0.47013-0.86854-0.70598-1.4263-0.70598-0.55707 0-1.0318 0.23585-1.4256 0.70598-0.3931 0.46962-0.59144 1.0367-0.59144 1.7012 0 0.66254 0.19834 1.2296 0.59144 1.6998 0.39382 0.46876 0.86854 0.70396 1.4256 0.70396 0.55778 0 1.0325-0.2352 1.4263-0.70396 0.39453-0.4702 0.59215-1.0372 0.59215-1.6998zm0.48404 0c0 0.53343-0.1117 1.0296-0.3351 1.4911-0.2234 0.45959-0.52843 0.82304-0.9158 1.0891-0.38737 0.26517-0.80266 0.39708-1.2516 0.39708-0.44465 0-0.85995-0.13191-1.2466-0.39708-0.38737-0.26603-0.69168-0.62948-0.91651-1.0891-0.2234-0.46145-0.3351-0.95766-0.3351-1.4911 0-0.53177 0.1117-1.0286 0.3351-1.4895 0.22483-0.46317 0.52914-0.82662 0.91651-1.0912 0.38665-0.26574 0.80195-0.39994 1.2466-0.39994 0.44895 0 0.86424 0.1342 1.2516 0.39994 0.38737 0.2646 0.6924 0.62805 0.9158 1.0912 0.2234 0.46095 0.3351 0.95774 0.3351 1.4895" fill="#F00"/>
 </g>
</svg>
