<?xml version="1.0" encoding="UTF-8" standalone="no"?>
<!-- Created with Inkscape (http://www.inkscape.org/) -->
<svg id="svg2" xmlns:rdf="http://www.w3.org/1999/02/22-rdf-syntax-ns#" xmlns="http://www.w3.org/2000/svg" height="54" width="99" version="1.1" xmlns:cc="http://creativecommons.org/ns#" xmlns:dc="http://purl.org/dc/elements/1.1/">
 <metadata id="metadata7">
  <rdf:RDF>
   <cc:Work rdf:about="">
    <dc:format>image/svg+xml</dc:format>
    <dc:type rdf:resource="http://purl.org/dc/dcmitype/StillImage"/>
    <dc:title/>
   </cc:Work>
  </rdf:RDF>
 </metadata>
 <g id="g91597">
  <rect id="rect2990" opacity="0" height="54" width="99" y="0" x="0"/>
  <path id="path7957" d="m48.953 49.407c-0.0773-0.07727-0.1405-0.76411-0.1405-1.5263 0-1.4156-0.59618-4.1811-1.1196-5.1932-0.41173-0.7962-0.91917-1.0627-3.1323-1.6449-4.4963-1.1829-5.901-2.5864-7.1266-7.1211-0.49657-1.8372-0.52197-2.1907-0.59578-8.2918-0.0788-6.5113-0.0359-6.9509 0.67866-6.9509 0.22014 0 0.27601 0.522 0.27601 2.5789 0 2.0617 0.0964 2.9589 0.4806 4.4735 0.53225 2.0982 1.4052 3.9915 2.3214 5.035 0.5947 0.67733 2.6868 1.925 2.8889 1.7229 0.0576-0.05759-0.49134-0.72772-1.2198-1.4892-1.4578-1.5238-1.7933-2.1516-2.5544-4.7802-0.89535-3.0921-0.66185-4.9749 1.012-8.1603 0.7498-1.4269 1.4425-2.1431 4.6663-4.8245 1.9664-1.6356 3.3604-4.4113 3.5972-7.1625 0.0794-0.92237 0.22403-1.5184 0.3811-1.5704 0.2013-0.0666 0.24235 1.2847 0.20036 6.5957l-0.0528 6.6794-3.196 0.10018-3.196 0.10018-0.66082 0.86709c-0.36345 0.4769-0.66082 0.95024-0.66082 1.0519 0 0.10487 1.3457 0.18478 3.1118 0.18478 4.1278 0 4.1192-0.02752 0.9376 2.9953-1.8841 1.7901-2.5498 2.5636-2.94 3.4161-0.62291 1.3608-0.6257 1.6483-0.0281 2.9052 0.47292 0.99468 1.7446 2.332 3.9856 4.1912 1.3134 1.0897 1.9404 2.168 2.5476 4.3809 0.36671 1.3367 0.40162 1.9762 0.35326 6.4707-0.0464 4.3159-0.0954 4.9955-0.36396 5.0471-0.17066 0.03281-0.37352-0.0035-0.4508-0.08084zm3.2655-16.403v-13.724h-4.6327c-4.0952 0-4.6038-0.03487-4.3833-0.30053 0.20779-0.25037 0.98052-0.30053 4.6295-0.30053h4.3801l0.0533-5.4597c0.0518-5.3083 0.0644-5.4597 0.45402-5.4597 0.3896 0 0.40219 0.15134 0.45402 5.4597l0.0533 5.4597h4.5215c3.5281 0 4.5032 0.05502 4.4381 0.25044-0.0626 0.1881-1.1889 0.26387-4.5247 0.30437l-4.4413 0.05392v13.48c0 10.217-0.0582 13.538-0.24042 13.721-0.75954 0.75954-0.76135 0.72752-0.76135-13.484z"/>
 </g>
</svg>
