<?xml version="1.0" encoding="UTF-8" standalone="no"?>
<!-- Created with Inkscape (http://www.inkscape.org/) -->
<svg id="svg2" xmlns:rdf="http://www.w3.org/1999/02/22-rdf-syntax-ns#" xmlns="http://www.w3.org/2000/svg" height="45" width="67.5" version="1.1" xmlns:cc="http://creativecommons.org/ns#" xmlns:dc="http://purl.org/dc/elements/1.1/">
 <metadata id="metadata7">
  <rdf:RDF>
   <cc:Work rdf:about="">
    <dc:format>image/svg+xml</dc:format>
    <dc:type rdf:resource="http://purl.org/dc/dcmitype/StillImage"/>
    <dc:title/>
   </cc:Work>
  </rdf:RDF>
 </metadata>
 <g id="g20817">
  <rect id="rect2990" opacity="0" height="45" width="67.5" y="0" x="3.5527e-15"/>
  <path id="path8290" d="m30.037 39.718-3.1163-5.3759h-6.6616c-3.9182 0-6.744-0.13327-6.8616-0.32359-0.11-0.17798 0.15892-0.89476 0.5976-1.5928 2.5514-4.0603 5.7236-9.7216 5.6897-10.155-0.0217-0.27727-1.3399-2.7556-2.9295-5.5074-1.5895-2.7518-2.813-5.204-2.7189-5.4492 0.13398-0.34912 1.5391-0.44593 6.4724-0.44593 6.1698 0 6.3112-0.01575 6.7782-0.75451 0.26233-0.41498 1.6684-2.7162 3.1245-5.1139 1.4562-2.3977 2.8518-4.5698 3.1014-4.827 0.52094-0.53684 0.76554-0.19213 4.6922 6.6124l2.3474 4.0677 6.7906 0.0076c5.2083 0.0058 6.7891 0.10531 6.7842 0.42681-0.003 0.23054-1.4371 2.8331-3.1857 5.7835s-3.1772 5.5157-3.1746 5.7007c0.002 0.18503 1.3587 2.7308 3.0136 5.6572s2.9266 5.454 2.8259 5.6169c-0.1006 0.16284-3.0367 0.29608-6.5246 0.29608h-6.3416l-0.67699 0.92218c-0.37235 0.5072-1.866 2.8839-3.3193 5.2815-1.4533 2.3977-2.8556 4.4018-3.1164 4.4537-0.30143 0.05999-1.6094-1.864-3.5905-5.2815zm6.5705-1.0287c1.432-2.4043 3.0076-5.0074 3.5013-5.7846 1.8543-2.9187 4.6353-7.8417 4.6353-8.2055 0-0.20772-0.13915-0.46367-0.30923-0.56879-0.32728-0.20227-1.11 1.0222-6.9022 10.798-1.9942 3.3659-3.7562 6.1199-3.9154 6.1199-0.33792 0-1.8011-2.2459-3.1703-4.8663-0.61734-1.1815-1.1748-1.8391-1.5594-1.8396-0.71091-0.001-0.75785-0.10953 2.2105 5.1131 1.1269 1.9827 2.2417 3.6049 2.4773 3.6049 0.23562 0 1.6-1.9672 3.032-4.3715zm-1.1496-2.6701 0.94152-1.6771h-2.8783-2.8783l0.56203 1.0898c0.30913 0.59941 0.93453 1.6811 1.3898 2.4038l0.82775 1.3139 0.54701-0.72665c0.30085-0.39966 0.9707-1.4814 1.4885-2.4038zm1.9088-3.3538c0.35529-0.66386 0.25502-0.67067-9.8806-0.67067-5.6318 0-10.24-0.08096-10.24-0.1799 0-0.09895 0.91021-1.7864 2.0227-3.7499 1.6656-2.9398 1.9453-3.6474 1.5842-4.0084-0.36107-0.36107-0.77715 0.16769-2.3571 2.9954-1.0552 1.8886-2.3049 4.0752-2.7769 4.859l-0.8583 1.4252h11.073c10.73 0 11.084-0.02079 11.432-0.67067zm14.754 0.41917c-0.00067-0.13833-0.32457-0.77966-0.71976-1.4252-1.1551-1.887-6.6234-11.324-8.3012-14.326-1.0165-1.8188-1.7435-2.7603-2.1363-2.7665-0.56217-0.0089-0.56443 0.05143-0.0404 1.0804 0.30533 0.59941 1.571 2.8252 2.8126 4.9462 4.9132 8.3932 6.3742 10.954 6.3742 11.173 0 0.12563-1.8055 0.22841-4.0122 0.22841-3.669 0-4.0429 0.05736-4.3712 0.67067-0.35199 0.65771-0.25503 0.67067 5.0182 0.67067 2.9574 0 5.3766-0.11318 5.3759-0.2515zm-27.497-2.274c0-0.3773-1.6372-3.3869-2.2627-4.1593l-0.65642-0.81066-1.3908 2.3814c-0.76493 1.3098-1.3908 2.4682-1.3908 2.5744 0 0.10614 1.2827 0.193 2.8504 0.193s2.8504-0.08047 2.8504-0.17882zm1.645-1.749c-1.819-3.226-6.04-10.506-7.534-12.995-0.775-1.291-1.343-2.46-1.261-2.598 0.0814-0.13833 1.8443-0.2515 3.9175-0.2515 3.5694 0 4.5743-0.23575 4.5743-1.0731 0-0.14755-2.339-0.26827-5.1977-0.26827-4.0592 0-5.1977 0.09614-5.1977 0.4389 0 0.24139 0.49424 1.26 1.0983 2.2635 0.60408 1.0035 1.6819 2.8809 2.3952 4.172 0.71327 1.291 2.0785 3.63 3.0339 5.1977 0.95536 1.5677 2.2513 3.7935 2.8799 4.9462 0.76294 1.3991 1.3483 2.0959 1.7608 2.0959 0.54587 0 0.49118-0.22471-0.46929-1.9282zm14.749-2.17c1.3924-2.3532 2.3598-4.3476 2.2718-4.684-0.0843-0.3222-1.0934-2.2505-2.2425-4.2852l-2.0894-3.6994h-5.1252-5.1252l-2.3767 3.9749c-1.3072 2.1862-2.3767 4.1629-2.3767 4.3926 0 0.34928 2.5286 4.91 4.2384 7.6448 0.45469 0.72723 0.65121 0.75451 5.4361 0.75451h4.9644l2.425-4.0982zm7.4156 3.9485c0-0.30828-2.3741-4.1866-2.6777-4.3742-0.30957-0.19132-1.3574 1.2606-2.4782 3.4341l-0.56204 1.0898h2.859c1.5724 0 2.859-0.06737 2.859-0.1497zm-23.544-12.341c2.7098-5.0415 8.3691-14.16 8.8503-14.261 0.25747-0.053619 1.2686 1.3252 2.3978 3.2695 1.1264 1.9397 2.1693 3.3622 2.4648 3.3622 0.68502 0 0.50608-0.41758-2.1195-4.9462-1.203-2.0749-2.3692-3.7725-2.5917-3.7725-0.22244 0-0.68907 0.49043-1.037 1.0898-0.34788 0.59941-2.8023 4.6823-5.4542 9.0732-3.449 5.7105-4.7628 8.1688-4.6149 8.6349 0.11375 0.35837 0.25864 0.65159 0.32199 0.65159 0.0634 0 0.86543-1.3958 1.7824-3.1019zm24.844-1.5447c1.4975-2.5556 2.7227-4.7437 2.7227-4.8624 0-0.11867-5.0499-0.21577-11.222-0.21577-10.879 0-11.233 0.02051-11.581 0.67067-0.35529 0.66385-0.25503 0.67067 9.8608 0.67067 6.3773 0 10.297 0.12472 10.425 0.33173 0.11275 0.18245-0.64593 1.7577-1.686 3.5006-1.3533 2.2678-1.8286 3.3653-1.6716 3.86 0.12064 0.38013 0.26664 0.69115 0.32443 0.69115 0.0578 0 1.3303-2.091 2.8278-4.6466zm-1.7795-1.8339c0.11223-0.33666 0.13329-0.68287 0.0468-0.76935-0.0865-0.08648-1.3034-0.11284-2.7043-0.05856l-2.5471 0.09868 1.3713 2.4811 1.3713 2.4811 1.129-1.8104c0.62093-0.99574 1.2208-2.0859 1.333-2.4225zm-25.141 2.7057c0.38755-0.59815 1.0238-1.6534 1.4139-2.3451l0.70924-1.2575h-2.839c-1.5615 0-2.839 0.08146-2.839 0.18103 0 0.59722 2.2905 4.5151 2.6374 4.5114 0.11712-0.0012 0.53002-0.49169 0.91757-1.0898zm13.816-7.5428c-0.2784-0.32276-0.92938-1.3791-1.4466-2.3474-1.3161-2.4638-1.3179-2.4631-3.5645 1.3413l-0.94062 1.5928h3.229c3.0445 0 3.2-0.03353 2.7228-0.58684z"/>
 </g>
</svg>
