<?xml version="1.0" encoding="UTF-8" standalone="no"?>
<!-- Created with Inkscape (http://www.inkscape.org/) -->
<svg id="svg2" xmlns:rdf="http://www.w3.org/1999/02/22-rdf-syntax-ns#" xmlns="http://www.w3.org/2000/svg" height="45" width="67.5" version="1.1" xmlns:cc="http://creativecommons.org/ns#" xmlns:dc="http://purl.org/dc/elements/1.1/">
 <metadata id="metadata7">
  <rdf:RDF>
   <cc:Work rdf:about="">
    <dc:format>image/svg+xml</dc:format>
    <dc:type rdf:resource="http://purl.org/dc/dcmitype/StillImage"/>
    <dc:title/>
   </cc:Work>
  </rdf:RDF>
 </metadata>
 <g id="g20322">
  <rect id="rect2990" opacity="0" height="45" width="67.5" y="0" x="3.5527e-15"/>
  <path id="path7994" d="m29.412 44.799c-0.31255-0.14472-1.0371-0.58107-1.6101-0.96968l-1.0418-0.70656v-11.132-11.132l-2.9361-0.0072c-2.597-0.0063-3.1439-0.13769-4.7356-1.1372l-1.7995-1.13v-4.7349-4.7349h4.3104c3.0876 0 4.427-0.14054 4.7216-0.49544 0.22615-0.27249 0.46013-2.2757 0.51995-4.4515l0.10873-3.956 4.8328-0.10605 4.8328-0.10605 1.6076 1.4984c1.5763 1.4693 1.6113 1.5561 1.797 4.4628l0.18943 2.9644 3.2202 0.18942c3.4624 0.20367 4.16 0.46636 5.7909 2.1805 1.0389 1.092 1.0536 1.1732 0.94712 5.2418l-0.1081 4.1326-5.2039 0.10537-5.2038 0.10537-0.10001 12.018-0.10002 12.018-4.7356 0.0737c-2.6046 0.04054-4.9913-0.0447-5.3039-0.18942zm7.1087-14.565 0.10002-12.028h4.7231c5.532 0 5.2202 0.3047 5.0387-4.925l-0.11176-3.2202-4.8303-0.10603-4.8303-0.10603v-4.5349-4.5349h-4.3447-4.3447l-0.10671 4.4515-0.10671 4.4515-4.8303 0.10603-4.8303 0.10603v3.9594c0 4.6562-0.44995 4.3039 5.6827 4.4484l3.9779 0.09369 0.10002 12.041 0.10001 12.041 4.2567-0.10708 4.2567-0.10708 0.10001-12.028z"/>
 </g>
</svg>
