<?xml version="1.0" encoding="UTF-8" standalone="no"?>
<!-- Created with Inkscape (http://www.inkscape.org/) -->
<svg id="svg2" xmlns:rdf="http://www.w3.org/1999/02/22-rdf-syntax-ns#" xmlns="http://www.w3.org/2000/svg" height="54" width="99" version="1.1" xmlns:cc="http://creativecommons.org/ns#" xmlns:dc="http://purl.org/dc/elements/1.1/">
 <metadata id="metadata7">
  <rdf:RDF>
   <cc:Work rdf:about="">
    <dc:format>image/svg+xml</dc:format>
    <dc:type rdf:resource="http://purl.org/dc/dcmitype/StillImage"/>
    <dc:title/>
   </cc:Work>
  </rdf:RDF>
 </metadata>
 <g id="g69369">
  <rect id="rect2990" opacity="0" height="54" width="99" y="0" x="0"/>
  <path id="path8068" d="m46.447 49.33c-0.26597-0.12315-0.88254-0.49447-1.3702-0.82517l-0.88657-0.60126v-9.4734-9.4734l-2.4985-0.0061c-2.21-0.0054-2.6753-0.11717-4.0299-0.96776l-1.5313-0.96163v-4.0293-4.0293h3.668c2.6275 0 3.7672-0.1196 4.0179-0.42161 0.19244-0.23188 0.39155-1.9365 0.44246-3.7881l0.0925-3.3665 4.1126-0.09025 4.1126-0.09025 1.368 1.2751c1.3414 1.2503 1.3712 1.3242 1.5292 3.7977l0.16119 2.5226 2.7403 0.16119c2.9464 0.17332 3.5401 0.39686 4.9278 1.8556 0.88408 0.92924 0.89657 0.9984 0.80597 4.4606l-0.092 3.5167-4.4283 0.08967-4.4283 0.08967-0.0851 10.227-0.0851 10.227-4.0299 0.06272c-2.2164 0.0345-4.2475-0.03804-4.5134-0.16119zm6.0493-12.394 0.0851-10.236h4.0192c4.7075 0 4.4423 0.25929 4.2878-4.1911l-0.0951-2.7403-4.1105-0.09023-4.1104-0.09023v-3.859-3.859h-3.6972-3.6972l-0.0908 3.7881-0.0908 3.7881-4.1104 0.09023-4.1104 0.09023v3.3693c0 3.9622-0.38289 3.6625 4.8358 3.7854l3.3851 0.07973 0.0851 10.246 0.0851 10.246 3.6223-0.09112 3.6223-0.09112 0.0851-10.236zm-21.04-18.295c-0.8587-0.39751-1.0741-0.60212-0.64477-0.61241 0.35462-0.0085 1.2251 0.25915 1.9343 0.59477 0.84012 0.39755 1.0648 0.61099 0.64477 0.61241-0.35462 0.0012-1.2251-0.26644-1.9343-0.59477zm33.367 0.47213c0-0.27079 2.8935-1.4422 3.4924-1.4139 0.2956 0.01398-0.18792 0.37481-1.0745 0.80182-1.561 0.75184-2.4179 0.96876-2.4179 0.61204zm-25.307-2.1456c-0.69701-0.39378-6.0388-3.8169-6.2597-4.0113-0.0738-0.06503-0.0614-0.19124 0.028-0.28047 0.28342-0.28342 7.3602 4.0638 7.3602 4.5213 0 0.24971-0.43766 0.16068-1.1284-0.22954zm16.925-1.0492c0-0.30034 7.7758-4.7613 7.9666-4.5705 0.28039 0.28039 0.28927 0.27401-3.6361 2.6117-3.1434 1.872-4.3305 2.4089-4.3305 1.9588zm-15.497-5.5815c-2.2178-2.7865-2.7222-3.6242-2.1823-3.6242 0.42323 0 3.6417 4.0044 4.0284 5.0121 0.38344 0.99921-0.43724 0.38223-1.8461-1.3879zm14.865 0.20331c0.015-0.54047 3.1698-3.9768 3.4206-3.726 0.27134 0.27135-1.6303 2.7343-2.8768 3.726-0.4714 0.37502-0.55429 0.37502-0.54387 0zm-4.0582-3.0268c0.2672-1.7818 0.7604-3.2266 1.0146-2.9723 0.096 0.09601-0.00017 1.0626-0.2137 2.1481-0.47359 2.4072-1.1414 3.0944-0.80095 0.82423zm-6.719-0.4837c-0.28522-0.71284-0.51277-1.6196-0.50568-2.0149 0.0126-0.70026 0.0244-0.69783 0.45509 0.09367 0.46918 0.86214 1.0045 3.2173 0.73125 3.2173-0.0892 0-0.39543-0.58324-0.68066-1.2961z"/>
 </g>
</svg>
