<?xml version="1.0" encoding="UTF-8" standalone="no"?>
<!-- Created with Inkscape (http://www.inkscape.org/) -->
<svg id="svg2" xmlns:rdf="http://www.w3.org/1999/02/22-rdf-syntax-ns#" xmlns="http://www.w3.org/2000/svg" height="45" width="67.5" version="1.1" xmlns:cc="http://creativecommons.org/ns#" xmlns:dc="http://purl.org/dc/elements/1.1/">
 <metadata id="metadata7">
  <rdf:RDF>
   <cc:Work rdf:about="">
    <dc:format>image/svg+xml</dc:format>
    <dc:type rdf:resource="http://purl.org/dc/dcmitype/StillImage"/>
    <dc:title/>
   </cc:Work>
  </rdf:RDF>
 </metadata>
 <g id="g20505">
  <rect id="rect2990" opacity="0" height="45" width="67.5" y="0" x="3.5527e-15"/>
  <path id="path8105" d="m32.892 44.102c-0.34385-1.6129-1.5952-3.9256-2.8496-5.2667l-1.2267-1.3114 0.58438-0.94554c0.32141-0.52005 0.58438-1.2121 0.58438-1.5378 0-0.32575 0.12501-0.59227 0.2778-0.59227 0.42885 0 0.37461-17.572-0.0556-18.002-0.20987-0.20987-1.2591-0.33336-2.8323-0.33336-2.2822 0-2.5614 0.05979-3.2187 0.68958-0.39587 0.37927-1.1147 0.76856-1.5974 0.8651-0.78044 0.15609-0.94072 0.07203-1.4474-0.75903-0.31336-0.514-0.57022-1.1965-0.57079-1.5166-0.00058-0.3201-0.25107-0.80827-0.55665-1.0848-0.78253-0.70818-0.69114-1.3936 0.2778-2.0835 0.57493-0.40938 0.83342-0.82689 0.83342-1.3461 0-2.0543 1.926-2.6531 3.5308-1.0977 0.85937 0.83292 1.0597 0.89425 3.1323 0.95872 2.7208 0.08464 3.0601-0.22909 3.0601-2.8296 0-1.8094-0.29915-2.4525-1.3938-2.9962-1.495-0.74262-0.77272-2.5592 1.1391-2.8649 0.6746-0.10787 1.3612-0.49722 1.9523-1.107 0.50142-0.51734 1.1288-0.94061 1.3942-0.94061 0.26538 0 0.94254 0.5614 1.5048 1.2475 0.79707 0.97272 1.1557 1.2141 1.628 1.0955 0.8122-0.20385 2.1096 0.83054 2.1096 1.6819 0 0.42762-0.38131 0.953-1.1112 1.5311-1.0918 0.86471-1.1112 0.91162-1.1112 2.6823 0 2.4311 0.20275 2.596 3.1936 2.596 2.3828 0 2.4063-0.0069 3.3168-0.97232 0.50435-0.53477 1.0642-0.97232 1.2441-0.97232 0.58628 0 1.6908 1.3465 1.6908 2.0612 0 0.38361 0.37504 1.1246 0.83341 1.6467 0.45838 0.52206 0.83342 1.0805 0.83342 1.2409 0 0.16042-0.37504 0.55871-0.83342 0.88511-0.45837 0.32639-0.83341 0.75559-0.83341 0.95377s-0.2591 0.68971-0.57577 1.0923c-0.73272 0.93149-1.7302 0.9448-2.8086 0.03747-0.75262-0.63328-1.0562-0.69451-3.4432-0.69451h-2.6178v8.7129c0 8.7393 0.20368 11.273 0.97463 12.125 0.60592 0.66953 0.53874 0.8586-0.81383 2.2904-1.0558 1.1177-2.5126 3.6451-3.0416 5.2772-0.261 0.80512-0.94916 0.55722-1.1568-0.41671zm1.9512-5.2561c0.69287-0.82343 0.72711-0.99035 0.52709-2.5697-0.11765-0.92898-0.21522-2.0016-0.21682-2.3836-0.002-0.38198 0.0223-4.8512 0.0532-9.9315l0.0561-9.237h3.8952 3.8952l0.32627-0.71608c0.23183-0.5088 0.24157-0.85057 0.0337-1.1807-0.24675-0.39179-0.90343-0.47663-4.191-0.54148-4.5185-0.08913-4.228 0.14401-4.2318-3.3957-0.004-3.6028 0.66019-5.0005 2.3758-5.0005 1.1186 0 1.2441-0.43463 0.25559-0.88504-0.75724-0.34502-1.7235-0.0031-2.6978 0.9545-0.27204 0.26739-0.86964 0.48616-1.328 0.48616h-0.83341l-0.004 3.2642c-0.006 4.9242 0.38569 4.5143-4.3113 4.5143h-3.9725l-0.36891 0.83341c-0.20289 0.45838-0.43288 0.83341-0.51107 0.83341-0.0782 0-0.31253-0.38487-0.52075-0.85526-0.3247-0.73356-0.48238-0.82921-1.108-0.67218-1.3182 0.33084-1.5217 0.69603-0.81126 1.456 0.41962 0.4489 0.63431 1.0201 0.63431 1.6878 0 0.73919 0.13008 1.0351 0.48616 1.1058 0.3592 0.07137 0.48615-0.08492 0.48615-0.59845 0-0.92088 0.7562-1.6542 1.4999-1.4546 0.32101 0.08617 2.3026 0.15839 4.4035 0.16047l3.8198 0.0038v10.538c0 6.5752-0.10788 10.822-0.28686 11.293-0.23441 0.61652-0.18995 0.86115 0.24308 1.3377 0.29148 0.32073 0.67499 0.86443 0.85225 1.2082 0.42808 0.83022 0.66988 0.79036 1.55-0.25557zm-1.5066-0.6251c-0.41609-0.50134-0.4131-0.77066 0.0495-4.4671l0.38246-3.0559 0.20459 2.2224c0.11253 1.2223 0.32525 2.679 0.47273 3.2371 0.17413 0.65895 0.17194 1.2677-0.006 1.7363-0.30887 0.81236-0.62303 0.90552-1.1031 0.32708zm11.928-22.533c0-0.46456 0.2564-0.80357 0.83342-1.102 1.1053-0.57156 1.0809-1.3856-0.0623-2.0808-0.49266-0.29961-0.98114-0.45404-1.0855-0.34317-0.19777 0.2101-0.36562 2.4108-0.28678 3.76 0.055 0.94102 0.60121 0.72842 0.60121-0.23401zm-22.385-4.7262c0.18273-0.72802 0.0256-1.2373-0.38176-1.2373-0.35356 0-0.60164 0.84837-0.41762 1.4282 0.23085 0.72733 0.59048 0.64148 0.79938-0.19081zm8.705-7.6967c-0.177-0.5391-1.599-0.6173-1.599-0.0879 0 0.30092 0.26423 0.43516 0.85656 0.43516 0.56086 0 0.8172-0.11988 0.74254-0.34726zm2.4291-0.56516c0.1528 0.0045 0.4579 0.05549 0.67801 0.11312 0.57621 0.15087 0.68025-0.71972 0.14944-1.2505-0.92399-0.92399-2.3554-0.39287-2.3554 0.87398 0 0.55647 0.0962 0.6267 0.62506 0.45638 0.34378-0.11071 0.75007-0.19754 0.90286-0.19296z"/>
 </g>
</svg>
