<?xml version="1.0" encoding="UTF-8" standalone="no"?>
<!-- Created with Inkscape (http://www.inkscape.org/) -->
<svg id="svg2" xmlns:rdf="http://www.w3.org/1999/02/22-rdf-syntax-ns#" xmlns="http://www.w3.org/2000/svg" height="45" width="67.5" version="1.1" xmlns:cc="http://creativecommons.org/ns#" xmlns:dc="http://purl.org/dc/elements/1.1/">
 <metadata id="metadata7">
  <rdf:RDF>
   <cc:Work rdf:about="">
    <dc:format>image/svg+xml</dc:format>
    <dc:type rdf:resource="http://purl.org/dc/dcmitype/StillImage"/>
    <dc:title/>
   </cc:Work>
  </rdf:RDF>
 </metadata>
 <g id="g20566">
  <rect id="rect2990" opacity="0" height="45" width="67.5" y="0" x="3.5527e-15"/>
  <path id="path8142" d="m0.56829 34.527-0.56828-0.475 1.1365-1.065c1.2762-1.1955 7.3571-6.3757 10.195-8.6842l1.8593-1.5129-0.72045-0.5708c-4.1057-3.252-10.569-9.29-11.519-10.759-0.33454-0.51762-0.33262-0.53712 0.0971-0.99449 0.43694-0.46511 0.94049-0.62213 0.94049-0.29327 0 0.09529 1.0868 1.3018 2.4152 2.6812 2.2263 2.3118 6.1605 5.8434 8.8739 7.9657l1.1187 0.87502 2.1878-1.4433c8.0114-5.2853 15.59-8.1299 23.377-8.7742 9.4109-0.77872 19.093 2.6323 25.628 9.0292 2.4606 2.4085 2.4621 2.4224 0.47315 4.3811-4.578 4.5084-10.841 7.6822-17.569 8.9039-2.5977 0.4715-8.6752 0.47796-11.357 0.01213-7.0394-1.2232-13.486-3.924-20.518-8.5972-1.8802-1.2487-2.1742-1.3875-2.4615-1.1617-1.347 1.0582-8.7284 7.2674-10.602 8.9174-1.2747 1.1227-2.3402 2.0409-2.3678 2.0404-0.0277-0.000517-0.30592-0.21449-0.61848-0.4755zm45.644-1.994c6.6644-0.76349 12.653-3.4252 17.813-7.9177l1.8063-1.5725-0.38268-0.4865c-1.3786-1.7526-5.8428-4.9811-8.9804-6.4944-11.218-5.4109-23.848-3.8994-37.341 4.4691-1.4559 0.90292-2.841 1.7472-3.0781 1.8762-0.40922 0.22266-0.31323 0.31124 1.8942 1.7479 3.8569 2.5101 6.441 3.9053 9.8976 5.3439 6.2642 2.6071 12.75 3.6783 18.371 3.0342z"/>
 </g>
</svg>
