<?xml version="1.0" encoding="UTF-8" standalone="no"?>
<!-- Created with Inkscape (http://www.inkscape.org/) -->
<svg id="svg2" xmlns:rdf="http://www.w3.org/1999/02/22-rdf-syntax-ns#" xmlns="http://www.w3.org/2000/svg" height="45" width="67.5" version="1.1" xmlns:cc="http://creativecommons.org/ns#" xmlns:dc="http://purl.org/dc/elements/1.1/">
 <metadata id="metadata7">
  <rdf:RDF>
   <cc:Work rdf:about="">
    <dc:format>image/svg+xml</dc:format>
    <dc:type rdf:resource="http://purl.org/dc/dcmitype/StillImage"/>
    <dc:title/>
   </cc:Work>
  </rdf:RDF>
 </metadata>
 <g id="g20696">
  <rect id="rect2990" opacity="0" height="45" width="67.5" y="0" x="3.5527e-15"/>
  <path id="path8216" d="m37.523 44.708c0.16353-0.19823 0.45599-0.36017 0.64991-0.35987 0.30355 0.00043 1.7181-0.40883 5.5383-1.6025 0.46915-0.14659 0.88667-0.36755 0.92783-0.49101 0.10509-0.31527-5.2509-0.57407-6.1975-0.29946-0.65923 0.19125-5.0366 0.14188-9.448-0.10656-0.83405-0.0469-2.6104-0.14826-3.9474-0.2251-2.4054-0.13822-2.4334-0.1343-2.6652 0.3715-0.22526 0.49162-0.3374 0.51368-2.9308 0.57649-2.4683 0.0598-3.1644-0.0755-2.5002-0.48601 0.39611-0.24481-0.0633-1.0445-0.76951-1.3396-0.39963-0.16698-0.72661-0.34244-0.72661-0.38992 0-0.0475 0.45964-0.0706 1.0214-0.0513 0.86419 0.0297 1.0343-0.0316 1.1048-0.3982 0.0458-0.2383 0.27261-0.63877 0.50389-0.88994 0.26822-0.29129 0.40646-0.72277 0.38173-1.1915-0.0213-0.40416-0.0138-0.83232 0.0168-0.95147 0.12461-0.48584-0.0268-0.71851-0.63009-0.96841-0.96707-0.40058-1.0423-1.0014-0.33679-2.6899 0.24757-0.59251 0.58809-0.91339 1.355-1.2768 1.0976-0.52018 1.416-1.1674 0.81811-1.6636-0.34479-0.28616-0.4362-1.0104-0.20391-1.6157 0.0838-0.21833 0.39545-0.34267 0.85892-0.34267 0.53389 0 0.79572-0.12968 0.98412-0.48743 0.3806-0.72273 0.6418-0.81487 1.3183-0.46504 0.42346 0.21898 0.72971 0.25192 0.99953 0.10751 0.21396-0.11451 1.421-1.9489 2.6822-4.0764l2.2932-3.8682-0.0304-1.4435c-0.019-0.90362 0.0709-1.5448 0.24042-1.7144 0.15352-0.15356 0.27079-0.80765 0.27079-1.5104 0-0.68176 0.18892-2.3926 0.41981-3.802 0.23089-1.4093 0.67714-4.2684 0.99165-6.3535 0.74105-4.9128 0.7328-4.8747 0.99848-4.6091 0.12078 0.12078 0.35592 1.6215 0.52255 3.335 0.16662 1.7135 0.55666 4.6752 0.86676 6.5816 0.31009 1.9064 0.54982 4.13 0.53275 4.9413-0.0171 0.81131 0.0648 1.5912 0.18208 1.7331 0.34545 0.41812 0.53697 1.8149 0.27136 1.979-0.13068 0.08077-0.23609 0.76666-0.23609 1.5363 0 1.64 0.127 1.7665 2.4913 2.4809 0.83404 0.25203 1.8089 0.55957 2.1664 0.68341 4.0487 1.4027 4.5352 1.5157 5.3648 1.246 0.89492-0.29094 1.1564-0.52615 1.2734-1.1454 0.0426-0.22553 0.25306-0.51799 0.46769-0.64991 0.32635-0.2006 0.49172-0.11638 1.0104 0.51462 0.59485 0.72362 0.63717 0.73912 1.035 0.37911 0.95606-0.86522 1.6737-0.20758 1.6953 1.5535 0.0152 1.2422 0.24654 1.9016 0.83987 2.394 0.18523 0.15373 0.33678 0.59516 0.33678 0.98097 0 0.39099 0.23972 1.0547 0.54159 1.4995 0.62231 0.91702 0.68007 1.3293 0.21143 1.5091-0.65432 0.25109-0.72099 1.0402-0.17467 2.0676l0.51511 0.96878-0.53256 0.44551c-0.49567 0.41464-0.52979 0.57251-0.49257 2.2787l0.04 1.8332 0.81238 0.19223c0.95009 0.22482 1.0794 0.58247 0.21068 0.58247-0.33094 0-0.794 0.13235-1.029 0.29412-0.23502 0.16178-0.79289 0.41305-1.2397 0.55839-0.47077 0.15314-0.81238 0.40399-0.81238 0.59653 0 0.2614-0.1592 0.3024-0.7464 0.19224-0.6356-0.11924-0.89534-0.0264-1.7497 0.62579-0.55181 0.42121-1.1517 0.76583-1.3331 0.76583s-1.4875 0.38838-2.9023 0.86307c-1.4149 0.4747-2.9894 0.92934-3.4989 1.0103-0.84671 0.13458-0.90079 0.11625-0.62903-0.21317zm-1.1254-3.2086c0.23563-0.19556 0.29208-0.97684 0.26222-3.629-0.0365-3.2421-0.0593-3.4027-0.55882-3.944-0.28642-0.31032-0.68671-0.85862-0.88955-1.2184-0.20283-0.35983-1.7336-2.7629-3.4017-5.3401-1.9812-3.0611-3.1456-4.6661-3.3579-4.6287-0.32265 0.05675-2.6404 3.7162-5.2476 8.2854l-1.3598 2.383-0.0589 3.4662c-0.0334 1.9643 0.0314 3.6034 0.14945 3.7828 0.21138 0.32127 2.6494 0.5625 7.6743 0.75932 1.1728 0.0459 2.1642 0.11508 2.2032 0.15367 0.21466 0.21228 4.3204 0.1495 4.585-0.0701zm-8.902-1.453c-0.0698-0.11283-0.11085-1.9771-0.0914-4.1429l0.0354-3.9377 0.62537-0.86328c0.71146-0.98215 1.1057-1.0081 1.7713-0.11644 0.42772 0.57293 0.45623 0.87748 0.45623 4.8743v4.2632l-1.3351 0.064c-0.7343 0.0352-1.3922-0.0283-1.4619-0.14115zm2.4559-1.2032c0.34651-0.41752 0.21915-3.2032-0.15205-3.3259-0.20664-0.06829-0.24307 0.11903-0.14414 0.74096 0.0803 0.50505 0.008 1.1913-0.18278 1.7451-0.29832 0.86383-0.28076 1.1453 0.0715 1.1453 0.0847 0 0.26808-0.13745 0.40751-0.30545zm-1.1103-0.38778c0.14298-0.14298 0.25997-0.43544 0.25997-0.64991 0-0.28884-0.16849-0.38994-0.64991-0.38994-0.54283 0-0.64991 0.08625-0.64991 0.52353 0 0.45313 0.21006 0.69449 0.66074 0.75918 0.0655 0.009 0.23614-0.0999 0.37911-0.24286zm-0.49065-2.1353c0.20217-0.32712-0.0873-1.3308-0.33892-1.1753-0.27021 0.16701-0.27588 1.4042-0.007 1.4042 0.11213 0 0.26754-0.10303 0.34536-0.22895zm0.62682-4.8775c0.40938-0.40938 0.44089-0.74398 0.0696-0.73944-0.49635 0.0061-0.87713 0.38204-0.74244 0.73305 0.1656 0.43153 0.24689 0.4323 0.6728 0.0064zm9.038 8.1222c0.0773-1.0033 0.0478-2.3894-0.0656-3.0801-0.11331-0.6907-0.14559-1.4462-0.0717-1.6789 0.0942-0.29688 0.033-0.42311-0.20525-0.42311-0.25122 0-0.34592 0.23953-0.364 0.9207-0.0134 0.50639-0.0601 1.993-0.1037 3.3037-0.0852 2.5609-0.0227 3.0105 0.39905 2.8713 0.17206-0.0568 0.32187-0.75398 0.41117-1.9136zm5.33 1.5878c0.098-0.20851 0.12578-1.3052 0.0617-2.4372l-0.11636-2.058-2.0795-0.06161c-1.4966-0.04434-2.1411 0.01638-2.2992 0.21664-0.27379 0.3467-0.53245 3.6592-0.31341 4.0136 0.22327 0.36125 1.6215 0.65801 3.2222 0.68389 1.0836 0.0175 1.3811-0.0522 1.5245-0.35736zm1.5702-2.3311c0.061-1.3398 0.23006-2.5939 0.38673-2.8682 0.29079-0.50907 0.79202-0.64196 1.0214-0.27079 0.34151 0.55258 0.58959 0.17054 0.45121-0.69486-0.19863-1.2421-0.95064-2.901-1.2001-2.6473-0.10869 0.11053-0.45802 0.88336-0.77628 1.7174-0.48841 1.2799-0.596 1.9674-0.68979 4.4077-0.10524 2.7381-0.0897 2.8872 0.29368 2.814 0.35794-0.0683 0.41736-0.35295 0.51313-2.458zm4.7143 0.97712c0.4074-0.77933 0.27911-4.4904-0.16492-4.7708-0.3962-0.25018-0.88335-0.26331-1.2452-0.03356-0.29949 0.19018-0.64751 4.5092-0.41267 5.1212 0.21967 0.57244 1.4716 0.35479 1.8228-0.31689zm-28.328-2.1664c0-0.35745-0.0861-0.64991-0.19137-0.64991-0.23011 0-0.48331 0.86784-0.32698 1.1208 0.24297 0.39314 0.51835 0.14299 0.51835-0.47087zm25.716-0.70154c-0.0519-0.26948-0.0962-0.10001-0.0986 0.37659-0.002 0.4766 0.04 0.69708 0.0942 0.48996 0.0542-0.20713 0.0562-0.59707 0.004-0.86655zm-26.098-1.0857c0.33315-0.25674 0.46434-0.62958 0.40701-1.1567-0.0142-0.12981-0.26593-0.3455-0.5596-0.4793-0.51634-0.23526-0.52354-0.26814-0.21857-0.99805 0.3886-0.93004 0.18241-1.0911-0.99197-0.77488-0.70309 0.18932-0.95171 0.39176-1.1943 0.97245-0.38276 0.91606-0.29346 1.1294 0.83723 1.9997 1.0117 0.77876 1.2108 0.82934 1.7202 0.43676zm22.535-0.11107c0.35334-0.3959 1.676-4.2303 1.676-4.8588 0-0.5879-0.32137-0.64428-2.2173-0.38898-2.8814 0.38801-2.8277 0.36241-2.6709 1.2713 0.29994 1.7392 0.27517 1.8447-0.52771 2.2457-0.41702 0.20832-0.82413 0.40329-0.90468 0.43327-0.0805 0.02998-0.2128 0.3219-0.29389 0.6487-0.19645 0.79176 0.31276 0.97865 2.7381 1.0049 1.5143 0.0164 1.9276-0.05051 2.2004-0.35618zm6.0722-1.8562c0.49259-0.17564 0.2994-0.56862-1.2427-2.5279-0.60956-0.77447-1.6903-2.2245-2.4017-3.2222-0.71137-0.99776-1.5226-1.9944-1.8027-2.2147-0.28009-0.22032-2.612-1.0857-5.182-1.923-4.1958-1.367-4.7094-1.4893-5.032-1.1973-0.1976 0.17883-0.73047 0.32514-1.1842 0.32514-0.70344 0-0.95385-0.14353-1.7009-0.97486-0.94419-1.0508-1.2327-1.1906-1.2288-0.59575 0.004 0.66315 7.0036 11.031 7.561 11.2 0.70207 0.21281 2.1946 0.19643 2.4175-0.02652 0.16296-0.16296 0.13396-0.46167-0.0989-1.019-0.31548-0.75507-0.30923-0.80113 0.14766-1.0864 0.41937-0.2618 4.5734-0.86792 5.6395-0.82287 0.67664 0.0286 0.95675 0.44051 1.327 1.9514 0.19666 0.8025 0.43729 1.5881 0.53472 1.7457 0.15581 0.25211 1.4596 0.67465 1.7496 0.56701 0.0596-0.02211 0.28313-0.10254 0.49678-0.17871zm0.50909-2.9986c-0.0751-0.15818-0.22886-0.43382-0.34167-0.61255-0.11282-0.17872-0.26115-0.59156-0.32964-0.9174-0.081-0.38537-0.30321-0.6373-0.63574-0.72076-0.49367-0.1239-0.50827-0.18814-0.42511-1.8708 0.10157-2.0551-0.0757-2.4157-1.0246-2.0849-0.46328 0.1615-0.72597 0.15307-0.94704-0.03041-0.24096-0.19998-0.40173-0.15811-0.75701 0.19716-0.64231 0.64232-0.34718 1.7674 0.83296 3.1753 0.3102 0.37005 0.95393 1.1891 1.4305 1.8202 1.4398 1.9064 1.6143 2.0513 2.0026 1.6631 0.18225-0.18225 0.26991-0.46078 0.1948-0.61896zm-28.32 0.19984c0.195-0.51596 0.12081-0.81238-0.20334-0.81238-0.28023 0-0.68987 0.8349-0.53366 1.0877 0.22097 0.35753 0.54335 0.23712 0.737-0.27527zm-0.63145-1.4623c0-0.11915-0.0975-0.21664-0.21663-0.21664-0.11915 0-0.21664 0.09749-0.21664 0.21664s0.0975 0.21664 0.21664 0.21664c0.11915 0 0.21663-0.09749 0.21663-0.21664zm11.939-7.6364c0.0953-1.0744-0.11096-3.3315-0.31649-3.4629-0.41831-0.26725-0.51341-0.19293-0.68881 0.53827-0.26547 1.1067-0.29374 1.5127-0.16588 2.383 0.0994 0.67691 0.20505 0.81238 0.63325 0.81238 0.28264 0 0.52471-0.12186 0.53793-0.2708zm-1.7571-2.3247c0-1.2113-0.0363-1.3048-0.55757-1.4356-1.7396-0.43661-2.2581 1.5928-0.63393 2.4812 0.97643 0.53406 1.1915 0.34534 1.1915-1.0455zm-0.54159-2.1705c0.0747-0.1208-0.0874-0.21517-0.36633-0.21332-0.40243 0.0027-0.43669 0.04437-0.17526 0.21332 0.4031 0.2605 0.38058 0.2605 0.54159 0zm0.28266-2.4372c0.0648-1.0098 0.0541-1.029-0.57257-1.029-0.66474 0-0.90159 0.30628-0.90159 1.1659 0 0.62067 0.42068 1.0337 0.97233 0.95461 0.35537-0.05093 0.44799-0.25238 0.50183-1.0915zm1.737 0.02755c-0.0542-0.56751-0.17927-0.74714-0.55737-0.80084-0.42628-0.06054-0.48743 0.02644-0.48743 0.6933 0 0.5003 0.13037 0.83609 0.37911 0.97644 0.52162 0.29432 0.74857-0.0019 0.66569-0.8689zm-0.34939-4.0082c-0.37-2.7653-0.60198-2.813-0.82248-0.16921-0.12439 1.4916-0.0911 1.7885 0.23723 2.1169 0.69184 0.69184 0.86245 0.12407 0.58525-1.9477zm-1.1678 1.1141c0.0802-0.95985-0.10081-1.8453-0.37712-1.8453-0.52099 0-0.88799 2.4751-0.39618 2.6718 0.51276 0.2051 0.70425 0.000433 0.7733-0.82653z"/>
 </g>
</svg>
