<?xml version="1.0" encoding="UTF-8" standalone="no"?>
<!-- Created with Inkscape (http://www.inkscape.org/) -->
<svg id="svg2" xmlns:rdf="http://www.w3.org/1999/02/22-rdf-syntax-ns#" xmlns="http://www.w3.org/2000/svg" height="54" width="99" version="1.1" xmlns:cc="http://creativecommons.org/ns#" xmlns:dc="http://purl.org/dc/elements/1.1/">
 <metadata id="metadata7">
  <rdf:RDF>
   <cc:Work rdf:about="">
    <dc:format>image/svg+xml</dc:format>
    <dc:type rdf:resource="http://purl.org/dc/dcmitype/StillImage"/>
    <dc:title/>
   </cc:Work>
  </rdf:RDF>
 </metadata>
 <g id="g29849">
  <rect id="rect2990" opacity="0" height="54" width="99" y="0" x="0"/>
  <path id="path8253" d="m60.404 48.59c0-0.1615 0.24342-1.1061 0.54092-2.0991 0.77633-2.5911 0.10622-2.9186-2.5672-1.2547-1.2404 0.77203-2.4194 1.2312-2.6199 1.0203-0.20056-0.21088 0.56004-1.9466 1.6902-3.8571 3.3724-5.7009 4.345-5.3058-13.412-5.4485l-15.21-0.12217-12.25-11.632c-6.7383-6.399-12.172-11.867-12.075-12.152 0.1036-0.30522 1.3099-0.51897 2.9289-0.51897 1.8398 0 3.1646-0.26881 3.9946-0.81052 1.6053-1.0477 2.2536-1.0214 4.2795 0.17395 2.4116 1.4229 3.9811 1.0521 13.241-3.1284l8.0695-3.643 4.4-0.00127c4.1311-0.0012 4.5783 0.095444 7.3185 1.5812l2.9186 1.5825 2.8709-1.0082c5.6228-1.9747 9.68-0.99388 13.651 3.3002 9.2102 9.9588 13.959 13.917 19.793 16.497 3.153 1.3947 3.8427 2.1456 4.2079 4.5811 0.20376 1.3588 0.72206 2.4887 1.4519 3.165 0.62423 0.57852 0.99956 1.271 0.83404 1.5388-0.19854 0.32124-4.6137 0.4869-12.977 0.4869h-12.676l-0.95993 1.2204c-0.52795 0.67119-0.95992 1.4856-0.95992 1.8099 0 0.76263-5.5768 9.0118-6.0923 9.0118-0.21554 0-0.39188-0.13214-0.39188-0.29363zm5.1656-8.6452c1.1658-2.2852 1.3325-3.0082 1.6475-7.1459 0.29505-3.8761-0.27588-5.7161-2.1984-7.085-3.2779-2.3341-4.6555-0.44574-3.4915 4.786 0.80931 3.6377 0.70258 4.8069-0.72684 7.9628-1.2832 2.8332-1.1558 3.6124 0.53038 3.242 1.0436-0.22922 1.4609-0.12008 1.6751 0.43818 0.38867 1.0128 1.3432 0.19446 2.5638-2.198zm-16.168-6.2295c0.91731-0.70052 2.6194-2.4552 3.7826-3.8992 1.3916-1.7277 2.6764-2.8109 3.7574-3.1676 2.1135-0.69754 3.2635-2.3425 2.5584-3.6599-1.0584-1.9776-3.8153-2.4506-6.8625-1.1774-0.94367 0.39429-3.5943 2.5506-5.8904 4.7917-4.5014 4.3938-7.3656 5.9647-9.9375 5.4503-1.8928-0.37855-3.6516 1.4721-2.4967 2.627 0.16982 0.16982 3.259 0.30877 6.8648 0.30877 6.439 0 6.5858-0.02274 8.2239-1.2737zm41.015 0.71789c0.74806-0.74806 0.70329-2.7707-0.0852-3.849-0.55698-0.7617-1.1646-0.8602-4.6355-0.75153-4.9486 0.15493-7.6763-0.58927-13.432-3.6647-4.1187-2.2007-6.3018-2.8317-6.3018-1.8216 0 0.2602 0.53463 1.281 1.1881 2.2684 0.89605 1.354 1.6645 1.9175 3.1263 2.2925 1.066 0.27344 2.5635 1.052 3.3277 1.7302 0.7642 0.67818 2.4761 1.7381 3.8041 2.3554 3.5572 1.6533 11.875 2.5743 13.008 1.4404zm-58.447-1.6442c0.3384-0.44579 0.62189-1.085 0.63001-1.4206 0.0123-0.53833-11.725-12.245-17.006-16.961-1.9138-1.7089-1.9999-1.7364-3.1263-0.99839-0.63706 0.41742-1.1563 1.0147-1.1538 1.3272 0.003 0.31255 4.1709 4.4875 9.2631 9.2777 5.0923 4.7902 9.2586 8.9065 9.2586 9.1473 0 0.74273 1.4843 0.48361 2.1342-0.37259zm8.9943-2.7359c0.62982-0.4221 3.1274-2.6944 5.5501-5.0496 3.8075-3.7013 4.7654-4.3869 7.0631-5.0549 1.462-0.42502 2.6582-0.89718 2.6582-1.0492 0-0.15207-1.2845-2.3285-2.8544-4.8366-3.241-5.1777-5.3563-6.9208-9.5332-7.8555-3.5482-0.79405-6.8519 0.11981-15.465 4.2779-3.7284 1.7999-7.6442 3.3887-8.7017 3.5305-1.0575 0.14183-1.8627 0.3911-1.7894 0.5539 0.4065 0.90283 15.663 15.365 16.607 15.742 1.809 0.72279 5.2035 0.58696 6.4654-0.25872zm46.074-1.5526c0.15891-0.25711-0.37789-0.83027-1.1929-1.2737-5.6504-3.0743-9.8334-6.379-15.483-12.233-4.8473-5.0219-6.3927-6.3445-7.9274-6.7847-4.3224-1.2398-9.441-0.25535-9.441 1.8158 0 1.373 3.2981 6.8125 6.0991 10.059l2.4105 2.794 3.0399-0.24838c2.8536-0.23315 3.2387-0.14205 6.282 1.4861 5.5885 2.9897 7.6325 3.9364 9.4013 4.3539 2.4122 0.56946 6.4675 0.58751 6.8119 0.03033z"/>
 </g>
</svg>
