<?xml version="1.0" encoding="UTF-8" standalone="no"?>
<!-- Created with Inkscape (http://www.inkscape.org/) -->
<svg id="svg2" xmlns:rdf="http://www.w3.org/1999/02/22-rdf-syntax-ns#" xmlns="http://www.w3.org/2000/svg" height="54" width="99" version="1.1" xmlns:cc="http://creativecommons.org/ns#" xmlns:dc="http://purl.org/dc/elements/1.1/">
 <metadata id="metadata7">
  <rdf:RDF>
   <cc:Work rdf:about="">
    <dc:format>image/svg+xml</dc:format>
    <dc:type rdf:resource="http://purl.org/dc/dcmitype/StillImage"/>
    <dc:title/>
   </cc:Work>
  </rdf:RDF>
 </metadata>
 <g id="g20728">
  <rect id="rect2990" opacity="0" height="54" width="99" y="0" x="0"/>
  <path id="path6762" d="m41.174 49.235c-0.13213-0.146-0.23832-0.3583-0.23598-0.47177 0.007-0.31933 0.82959-1.1499 1.1395-1.1499 0.15225 0 0.31443-0.09798 0.36038-0.21774 0.046-0.11976 0.20826-0.21774 0.36067-0.21774 0.1524 0 0.35842-0.09798 0.45781-0.21774 0.0994-0.11976 0.30336-0.21774 0.45326-0.21774 0.14991 0 0.27255-0.06532 0.27255-0.14516s0.22063-0.14516 0.49028-0.14516c0.26967 0 0.57162-0.09798 0.67101-0.21774 0.0994-0.11976 0.30336-0.21774 0.45326-0.21774s0.27254-0.06532 0.27254-0.14516 0.11926-0.14516 0.26502-0.14516c0.38026 0 0.89627-0.60637 0.89627-1.0532 0-0.2097 0.0653-0.42164 0.14517-0.47098 0.0798-0.04935 0.14516-0.21856 0.14516-0.37603s0.098-0.32391 0.21774-0.36987c0.11976-0.04596 0.21774-0.20219 0.21774-0.34718 0-0.34903 0.81874-1.1569 1.1725-1.1569 0.2451 0 0.27915-0.10865 0.27915-0.89061 0-0.76352-0.0518-0.9386-0.3629-1.2269-0.23113-0.2142-0.3629-0.49387-0.3629-0.77018 0-0.23862-0.0653-0.47422-0.14516-0.52356-0.0798-0.04934-0.14517-0.43714-0.14517-0.86176 0-0.50917-0.0741-0.83358-0.21774-0.95276-0.32414-0.26901-0.32414-6.6987 0-6.9677 0.17108-0.14198 0.21774-0.54842 0.21774-1.8963 0-0.98714 0.0616-1.7537 0.14517-1.8053 0.0798-0.04934 0.14516-0.37181 0.14516-0.7166 0-0.38014 0.0857-0.69801 0.21774-0.80759 0.16161-0.13413 0.21774-0.49197 0.21774-1.3882 0-0.66414 0.0653-1.2479 0.14516-1.2972 0.0798-0.04935 0.14516-0.44822 0.14516-0.88639 0-0.74631-0.0402-0.83754-0.63723-1.443-0.35046-0.3555-0.72714-0.64637-0.83703-0.64637-0.29179 0-3.4612-3.2255-3.4612-3.5224 0-0.13847-0.0653-0.25176-0.14516-0.25176-0.0798 0-0.14516-0.12265-0.14516-0.27255s-0.098-0.35387-0.21774-0.45326c-0.11976-0.09939-0.21775-0.2995-0.21775-0.44469s-0.0653-0.30435-0.14516-0.3537c-0.0798-0.04934-0.14516-0.18384-0.14516-0.29889 0-0.2991-0.53148-0.78982-0.85543-0.78982-0.15115 0-0.31285-0.09914-0.35935-0.22032-0.0557-0.14518-0.24293-0.20825-0.54894-0.18493-0.26587 0.02026-0.48977-0.0407-0.52373-0.14258-0.0326-0.09788-0.16462-0.17797-0.29331-0.17797-0.1287 0-0.41087-0.16946-0.62705-0.37657l-0.39306-0.37657-0.44956 0.40056c-0.40344 0.35946-0.44957 0.48566-0.44957 1.2298 0 0.55998 0.0707 0.88787 0.21774 1.0099 0.13287 0.11027 0.21774 0.4284 0.21774 0.81616 0 0.3495 0.0653 0.63545 0.14517 0.63545 0.0798 0 0.14516 0.31962 0.14516 0.71028 0 0.49745 0.0652 0.73531 0.21774 0.79383 0.15992 0.06137 0.21774 0.31379 0.21774 0.95051 0 0.47683 0.0653 0.90733 0.14516 0.95667 0.0798 0.04934 0.14516 0.27383 0.14516 0.49886s0.098 0.49046 0.21775 0.58985c0.13329 0.11063 0.21774 0.42891 0.21774 0.82072 0 0.43499 0.0698 0.66677 0.21774 0.72356 0.15912 0.06106 0.21774 0.31156 0.21774 0.93043 0 0.46578 0.0653 0.88724 0.14516 0.93658 0.0798 0.04935 0.14516 0.21856 0.14516 0.37603s0.098 0.32391 0.21775 0.36987c0.15911 0.06106 0.21774 0.31156 0.21774 0.93043 0 0.46578 0.0653 0.88724 0.14516 0.93658 0.0798 0.04935 0.14516 0.47984 0.14516 0.95667 0 0.63672 0.0578 0.88915 0.21774 0.95051 0.15158 0.05817 0.21774 0.29466 0.21774 0.7783s0.0662 0.72013 0.21775 0.7783c0.13666 0.05244 0.21774 0.27442 0.21774 0.59618 0 0.28194 0.0653 0.51262 0.14516 0.51262 0.0803 0 0.14516 0.38117 0.14516 0.85319 0 0.5813 0.0694 0.91078 0.21774 1.0339 0.11976 0.09939 0.21774 0.36068 0.21774 0.58064s0.098 0.48125 0.21775 0.58064c0.13204 0.10958 0.21774 0.42745 0.21774 0.8076 0 0.34479 0.0653 0.66726 0.14516 0.7166 0.0798 0.04934 0.14516 0.27383 0.14516 0.49886s0.098 0.49046 0.21774 0.58985c0.14836 0.12312 0.21774 0.4526 0.21774 1.0339 0 0.47202 0.0648 0.85319 0.14517 0.85319 0.0798 0 0.14516 0.22063 0.14516 0.49029s0.098 0.57161 0.21774 0.671c0.11976 0.09939 0.21774 0.29637 0.21774 0.43773s0.098 0.29462 0.21774 0.34057c0.14485 0.05558 0.21775 0.28398 0.21775 0.68221 0 0.55126-0.0854 0.68377-1.0788 1.6739-0.59331 0.59139-1.1732 1.0753-1.2887 1.0753-0.11545 0-0.29124 0.09798-0.39063 0.21774-0.0994 0.11976-0.40134 0.21774-0.671 0.21774-0.26965 0-0.49029 0.06532-0.49029 0.14516s-0.22164 0.14516-0.49253 0.14516c-0.3039 0-0.52454 0.08339-0.57609 0.21774-0.0613 0.15956-0.31277 0.21774-0.94131 0.21774-0.58535 0-0.91514 0.06915-1.0385 0.21774-0.14212 0.17124-0.54988 0.21774-1.9094 0.21774-1.4027 0-1.7445-0.04106-1.8123-0.21774-0.0609-0.15874-0.31054-0.21774-0.92121-0.21774-0.56751 0-0.89595-0.07023-1.0184-0.21774-0.0994-0.11976-0.40134-0.21774-0.671-0.21774s-0.49029-0.06532-0.49029-0.14516-0.12264-0.14516-0.27254-0.14516c-0.14991 0-0.35388-0.09798-0.45326-0.21774-0.0994-0.11976-0.29637-0.21774-0.43773-0.21774s-0.29462-0.09798-0.34057-0.21774c-0.046-0.11976-0.2124-0.21774-0.36987-0.21774s-0.32668-0.06532-0.37603-0.14516c-0.0494-0.07984-0.20851-0.14516-0.3537-0.14516s-0.3453-0.09798-0.44468-0.21774c-0.0994-0.11976-0.2707-0.21774-0.38069-0.21774-0.26294 0-0.7806-0.52377-0.7806-0.78982 0-0.11505-0.0653-0.24955-0.14517-0.29889-0.18944-0.11709-0.18944-1.6694 0-1.6694 0.0798 0 0.14517-0.18797 0.14517-0.41771s0.098-0.49903 0.21774-0.59842c0.13204-0.10958 0.21774-0.42745 0.21774-0.8076 0-0.34478 0.0653-0.66726 0.14516-0.7166 0.0798-0.04934 0.14516-0.37181 0.14516-0.7166 0-0.38014 0.0857-0.69801 0.21774-0.8076 0.11976-0.09939 0.21775-0.36068 0.21775-0.58064s0.098-0.48126 0.21774-0.58064c0.11976-0.09939 0.21774-0.36482 0.21774-0.58985s0.0653-0.44951 0.14516-0.49886c0.0798-0.04934 0.14516-0.3075 0.14516-0.57368 0-0.29628 0.0845-0.51637 0.21774-0.56752 0.13717-0.05263 0.21775-0.27493 0.21775-0.60073s0.0806-0.5481 0.21774-0.60073c0.13329-0.05116 0.21774-0.27124 0.21774-0.56752 0-0.26618 0.0653-0.52434 0.14516-0.57368 0.0798-0.04935 0.14516-0.27383 0.14516-0.49886s0.098-0.49046 0.21774-0.58985c0.11976-0.09939 0.21775-0.36482 0.21775-0.58985s0.0653-0.44951 0.14516-0.49886c0.0798-0.04935 0.14516-0.31654 0.14516-0.59377 0-0.31414 0.0821-0.53554 0.21774-0.58761 0.13214-0.05071 0.21774-0.27022 0.21774-0.55832 0-0.26112 0.098-0.55608 0.21774-0.65547 0.11976-0.09939 0.21775-0.36482 0.21775-0.58985s0.0653-0.44951 0.14516-0.49886c0.0798-0.04935 0.14516-0.27383 0.14516-0.49886s0.098-0.49046 0.21774-0.58985c0.11976-0.09939 0.21774-0.40134 0.21774-0.671s0.0653-0.49029 0.14516-0.49029c0.0798 0 0.14517-0.23068 0.14517-0.51262 0-0.32175 0.0811-0.54373 0.21774-0.59618 0.13213-0.05071 0.21774-0.27022 0.21774-0.55832 0-0.26112 0.098-0.55608 0.21774-0.65547 0.13287-0.11027 0.21774-0.4284 0.21774-0.81616 0-0.3495 0.0653-0.63545 0.14516-0.63545 0.0798 0 0.14517-0.23068 0.14517-0.51262 0-0.32175 0.0811-0.54373 0.21774-0.59618 0.13329-0.05115 0.21774-0.27124 0.21774-0.56752 0-0.26618 0.0653-0.52434 0.14516-0.57368 0.0798-0.04934 0.14516-0.38186 0.14516-0.73893 0-0.44317 0.0691-0.67573 0.21774-0.73277 0.16577-0.06361 0.21775-0.33406 0.21775-1.1329 0-1.0406-0.005-1.0537-0.58065-1.5706-0.31935-0.28669-0.58064-0.62016-0.58064-0.74105s-0.0653-0.26017-0.14517-0.30951c-0.0798-0.04934-0.14516-0.47705-0.14516-0.95046 0-0.90382 0.27316-1.4447 0.72959-1.4447 0.29492 0 1.114 0.85507 1.1819 1.2339 0.0422 0.23504 0.17008 0.29205 0.67185 0.29941 0.34497 0.00506 0.68989-0.075398 0.77791-0.18145 0.087-0.1048 0.27007-0.19054 0.40687-0.19054s0.4833-0.26129 0.76999-0.58065c0.70073-0.78058 1.1593-0.78058 1.9215 0 0.31185 0.31935 0.67738 0.58065 0.81231 0.58065 0.13494 0 0.28294 0.097984 0.32889 0.21774 0.0491 0.12797 0.26687 0.21774 0.52816 0.21774s0.47904-0.089776 0.52815-0.21774c0.046-0.11976 0.19396-0.21774 0.32889-0.21774s0.50047-0.26129 0.81231-0.58065c0.42729-0.43759 0.68108-0.58065 1.0301-0.58065 0.27771 0 0.49651-0.08716 0.54662-0.21774 0.11123-0.28984 1.1611-0.28984 1.451 0 0.11976 0.11976 0.39324 0.21774 0.60773 0.21774 0.27492 0 0.61722 0.22337 1.16 0.75697 0.62207 0.61151 0.87017 0.76045 1.2911 0.77507 0.44563 0.015475 0.63506-0.094102 1.3086-0.75697 0.55027-0.54156 0.90285-0.77507 1.1703-0.77507 0.21051 0 0.48073-0.097984 0.60049-0.21774 0.28984-0.28984 1.3397-0.28984 1.451 0 0.0501 0.13058 0.26891 0.21774 0.54662 0.21774 0.34898 0 0.60277 0.14306 1.0301 0.58065 0.31184 0.31935 0.67738 0.58065 0.81231 0.58065s0.27855 0.086541 0.31913 0.19231c0.0937 0.24423 1.7306 0.22155 1.8128-0.025125 0.0307-0.091955 0.18355-0.16719 0.33977-0.16719s0.5326-0.26129 0.83639-0.58065c0.38869-0.40859 0.67321-0.58065 0.96021-0.58065s0.57153 0.17206 0.96022 0.58065c0.30379 0.31935 0.67863 0.58065 0.83295 0.58065 0.15434 0 0.31338 0.085377 0.35342 0.18973 0.0459 0.11969 0.306 0.18388 0.70452 0.17388 0.50502-0.012672 0.64186-0.072553 0.68235-0.2986 0.0676-0.37705 0.88989-1.2263 1.1875-1.2263 0.13009 0 0.37857 0.15119 0.55216 0.33597 0.25504 0.27148 0.31563 0.51134 0.31563 1.2496 0 0.90123-0.01 0.9232-0.71385 1.6237-0.39262 0.39056-0.8071 0.71012-0.92106 0.71012-0.11395 0-0.3153 0.11946-0.44742 0.26546-0.33158 0.36639-0.34996 2.5646-0.0225 2.6903 0.15992 0.06137 0.21774 0.31379 0.21774 0.95051 0 0.47683 0.0653 0.90733 0.14516 0.95667 0.0798 0.04934 0.14516 0.47081 0.14516 0.93658 0 0.61886 0.0587 0.86937 0.21774 0.93042 0.14864 0.05704 0.21775 0.2896 0.21775 0.73277 0 0.35707 0.0653 0.68959 0.14516 0.73893 0.0798 0.04934 0.14516 0.37181 0.14516 0.7166 0 0.38014 0.0857 0.69801 0.21774 0.80759 0.14751 0.12243 0.21774 0.45087 0.21774 1.0184 0 0.61068 0.059 0.8603 0.21774 0.92122 0.14864 0.05704 0.21775 0.2896 0.21775 0.73277 0 0.35707 0.0653 0.68958 0.14516 0.73893 0.0798 0.04935 0.14516 0.4708 0.14516 0.93658 0 0.61886 0.0586 0.86936 0.21774 0.93043 0.15363 0.05896 0.21774 0.29862 0.21774 0.81392 0 0.4017 0.0653 0.73036 0.14516 0.73036 0.0798 0 0.14516 0.28595 0.14516 0.63545 0 0.38776 0.0849 0.70589 0.21775 0.81616 0.13112 0.10882 0.21774 0.42643 0.21774 0.79839s0.0866 0.68957 0.21774 0.79839c0.13204 0.10958 0.21774 0.42745 0.21774 0.80759 0 0.34479 0.0653 0.66726 0.14516 0.7166 0.0798 0.04935 0.14516 0.27383 0.14516 0.49886s0.098 0.49046 0.21775 0.58985c0.13112 0.10882 0.21774 0.42643 0.21774 0.79839s0.0866 0.68956 0.21774 0.79839c0.13287 0.11027 0.21774 0.4284 0.21774 0.81616 0 0.3495 0.0653 0.63545 0.14516 0.63545 0.0798 0 0.14517 0.31962 0.14517 0.71028 0 0.49745 0.0652 0.73531 0.21774 0.79383 0.13666 0.05244 0.21774 0.27442 0.21774 0.59618 0 0.28194 0.0653 0.51262 0.14516 0.51262 0.0818 0 0.14516 0.40843 0.14516 0.93498 0 0.51424-0.0653 0.97535-0.14516 1.0247-0.0798 0.04934-0.14516 0.18695-0.14516 0.3058 0 0.28113-1.3727 1.6539-1.6539 1.6539-0.11885 0-0.25646 0.06532-0.30581 0.14516-0.0493 0.07984-0.21855 0.14516-0.37602 0.14516-0.15748 0-0.32392 0.09798-0.36988 0.21774-0.0507 0.13213-0.27021 0.21774-0.5583 0.21774-0.26112 0-0.55287 0.0941-0.64831 0.20911-0.0954 0.11501-0.26621 0.17356-0.37946 0.1301s-0.2461 0.02575-0.29523 0.15379c-0.073 0.19-0.313 0.239-1.15 0.239-0.80623 0-1.0775 0.05176-1.1412 0.21774-0.0651 0.16966-0.3531 0.21774-1.3042 0.21774-0.90792 0-1.267-0.05578-1.4014-0.21774-0.122-0.148-0.45-0.218-1.018-0.218-0.60631 0-0.86047-0.05944-0.92025-0.21522-0.0591-0.15405-0.20729-0.19028-0.52136-0.12746-0.32667 0.06533-0.46185 0.0276-0.52912-0.14768-0.0496-0.12949-0.206-0.23544-0.34736-0.23544s-0.33834-0.09798-0.43773-0.21774c-0.0994-0.11976-0.37561-0.21774-0.61382-0.21774-0.28908 0-0.52803-0.12068-0.71857-0.3629-0.157-0.1996-0.39707-0.3629-0.53349-0.3629-0.13643 0-0.6216-0.3775-1.0782-0.83889-0.7714-0.77953-0.83013-0.88677-0.83013-1.5156 0-0.37221 0.0653-0.71711 0.14516-0.76646 0.0798-0.04935 0.14516-0.20952 0.14516-0.35594s0.098-0.30382 0.21774-0.34978c0.14864-0.05704 0.21774-0.2896 0.21774-0.73277 0-0.35707 0.0653-0.68959 0.14516-0.73893 0.0798-0.04935 0.14517-0.37181 0.14517-0.7166 0-0.38014 0.0857-0.69801 0.21774-0.80759 0.13112-0.10882 0.21774-0.42643 0.21774-0.79839s0.0866-0.68957 0.21774-0.79839c0.11976-0.09939 0.21774-0.36482 0.21774-0.58985s0.0653-0.44951 0.14516-0.49886c0.0798-0.04935 0.14517-0.27383 0.14517-0.49886s0.098-0.49046 0.21774-0.58985c0.13112-0.10882 0.21774-0.42643 0.21774-0.79839s0.0866-0.68956 0.21774-0.79839c0.11976-0.09939 0.21774-0.36482 0.21774-0.58985s0.0653-0.44951 0.14517-0.49886c0.0798-0.04935 0.14516-0.37181 0.14516-0.7166 0-0.38014 0.0857-0.69801 0.21774-0.8076 0.13204-0.10958 0.21774-0.42745 0.21774-0.8076 0-0.34478 0.0653-0.66726 0.14516-0.7166 0.0798-0.04935 0.14516-0.21855 0.14516-0.37602s0.098-0.32391 0.21774-0.36987c0.14652-0.05623 0.21775-0.28635 0.21775-0.70348 0-0.37395 0.0864-0.69162 0.21774-0.80063 0.11976-0.09939 0.21774-0.40134 0.21774-0.671s0.0653-0.49029 0.14516-0.49029c0.0798 0 0.14516-0.23068 0.14516-0.51262 0-0.32175 0.0811-0.54373 0.21775-0.59618 0.15249-0.05852 0.21774-0.29639 0.21774-0.79383 0-0.39065 0.0653-0.71028 0.14516-0.71028 0.0798 0 0.14516-0.23068 0.14516-0.51262 0-0.32175 0.0811-0.54373 0.21774-0.59618 0.13214-0.05071 0.21774-0.27022 0.21774-0.55832 0-0.26112 0.098-0.55608 0.21775-0.65547 0.13203-0.10958 0.21774-0.42745 0.21774-0.80759 0-0.34479 0.0653-0.66726 0.14516-0.7166 0.0798-0.04934 0.14516-0.27383 0.14516-0.49886s0.098-0.49046 0.21774-0.58985c0.13204-0.10958 0.21774-0.42745 0.21774-0.80759 0-0.34479 0.0653-0.66726 0.14517-0.7166 0.0798-0.04934 0.14516-0.54609 0.14516-1.1039 0-0.88822-0.0451-1.0592-0.36291-1.3771-0.19959-0.1996-0.3629-0.45792-0.3629-0.57405s-0.0653-0.21114-0.14516-0.21114c-0.0798 0-0.14708 0.11431-0.14942 0.25403-0.006 0.32307-0.79304 1.1976-1.0786 1.1976-0.26513 0-3.4171 3.1122-3.4171 3.3739 0 0.24898-2.7803 3.0132-3.0307 3.0132-0.10717 0-0.48161 0.29087-0.83207 0.64637-0.59695 0.60551-0.63723 0.69674-0.63723 1.443 0 0.43817 0.0653 0.83705 0.14516 0.88639 0.0798 0.04935 0.14516 0.6331 0.14516 1.2972 0 0.89627 0.0561 1.2541 0.21774 1.3882 0.13112 0.10882 0.21774 0.42643 0.21774 0.79839s0.0866 0.68956 0.21775 0.79839c0.17106 0.14198 0.21774 0.54842 0.21774 1.8963 0 0.98714 0.0616 1.7537 0.14516 1.8053 0.0899 0.05558 0.14516 1.3535 0.14516 3.4113s-0.0553 3.3557-0.14516 3.4113c-0.0798 0.04935-0.14516 0.43714-0.14516 0.86176 0 0.50917-0.0741 0.83358-0.21774 0.95276-0.11976 0.09939-0.21775 0.3718-0.21775 0.60535 0 0.26649-0.13515 0.5499-0.3629 0.76097-0.30312 0.28092-0.3629 0.46907-0.3629 1.1421 0 0.75161 0.039 0.84278 0.58064 1.356 0.31936 0.30262 0.58065 0.66355 0.58065 0.80206s0.0653 0.29222 0.14516 0.34156c0.0798 0.04935 0.14516 0.20952 0.14516 0.35594s0.098 0.30382 0.21774 0.34978c0.12704 0.04875 0.21774 0.26617 0.21774 0.52194 0 0.50141 0.38191 1.0223 0.7495 1.0223 0.13723 0 0.28987 0.06532 0.33921 0.14516 0.0494 0.07984 0.21856 0.14516 0.37603 0.14516s0.32391 0.09798 0.36987 0.21774c0.0512 0.1333 0.27124 0.21774 0.56752 0.21774 0.26618 0 0.52434 0.06532 0.57368 0.14516 0.0494 0.07984 0.21856 0.14516 0.37603 0.14516s0.32391 0.09798 0.36987 0.21774c0.046 0.11976 0.19921 0.21774 0.34057 0.21774 0.14135 0 0.33834 0.09798 0.43772 0.21774 0.0994 0.11976 0.27572 0.21774 0.39185 0.21774 0.30282 0 1.0606 0.79994 1.0552 1.1138-0.003 0.14586-0.0914 0.37951-0.19746 0.51923-0.17994 0.23705-0.78462 0.25403-9.0455 0.25403-8.3919 0-8.8651-0.01382-9.0929-0.26546zm20.953-20.13c0-6.1875-0.0523-11.25-0.11613-11.25-0.27436 0-0.46452 0.39087-0.46452 0.95481 0 0.36195-0.0878 0.67927-0.21774 0.78713-0.11976 0.09939-0.21774 0.36068-0.21774 0.58064s-0.098 0.48126-0.21774 0.58064c-0.11976 0.09939-0.21774 0.40134-0.21774 0.671s-0.0653 0.49029-0.14517 0.49029c-0.0798 0-0.14516 0.23068-0.14516 0.51262 0 0.32175-0.0811 0.54373-0.21774 0.59618-0.15158 0.05817-0.21774 0.29466-0.21774 0.7783s-0.0662 0.72013-0.21774 0.7783c-0.14864 0.05704-0.21774 0.2896-0.21774 0.73277 0 0.35707-0.0653 0.68959-0.14517 0.73893-0.0798 0.04935-0.14516 0.37181-0.14516 0.7166 0 0.38014-0.0857 0.69801-0.21774 0.8076-0.11976 0.09939-0.21774 0.40134-0.21774 0.671s-0.0653 0.49029-0.14516 0.49029c-0.0798 0-0.14516 0.23068-0.14516 0.51262 0 0.32175-0.0811 0.54373-0.21775 0.59618-0.15157 0.05817-0.21774 0.29466-0.21774 0.7783s-0.0662 0.72013-0.21774 0.7783c-0.14863 0.05704-0.21774 0.2896-0.21774 0.73277 0 0.35707-0.0653 0.68959-0.14516 0.73893-0.0798 0.04935-0.14516 0.37181-0.14516 0.7166 0 0.38014-0.0857 0.69801-0.21775 0.8076-0.13203 0.10958-0.21774 0.42745-0.21774 0.80759 0 0.34479-0.0653 0.66726-0.14516 0.7166-0.0798 0.04934-0.14516 0.38186-0.14516 0.73893 0 0.44317-0.0691 0.67573-0.21774 0.73277-0.13214 0.05071-0.21774 0.27022-0.21774 0.55832 0 0.26112-0.098 0.55608-0.21775 0.65547s-0.21774 0.36482-0.21774 0.58985-0.0653 0.44952-0.14516 0.49886c-0.0798 0.04935-0.14516 0.2165-0.14516 0.37147 0 0.27073 0.13062 0.28176 3.3387 0.28176h3.3387v-11.25zm7.9839 10.955c0-0.16218-0.098-0.33248-0.21774-0.37844-0.11976-0.04596-0.21774-0.20336-0.21774-0.34978s-0.0653-0.3066-0.14517-0.35594c-0.0798-0.04934-0.14516-0.3075-0.14516-0.57368 0-0.29628-0.0845-0.51637-0.21774-0.56752-0.14799-0.05679-0.21774-0.28858-0.21774-0.72356 0-0.39181-0.0845-0.71009-0.21774-0.82072-0.13204-0.10958-0.21774-0.42745-0.21774-0.8076 0-0.34478-0.0653-0.66726-0.14517-0.7166-0.0798-0.04934-0.14516-0.37181-0.14516-0.7166 0-0.38014-0.0857-0.69801-0.21774-0.8076-0.14835-0.12312-0.21774-0.4526-0.21774-1.0339 0-0.47202-0.0648-0.85319-0.14516-0.85319-0.0798 0-0.14516-0.23068-0.14516-0.51262 0-0.32175-0.0811-0.54373-0.21775-0.59618-0.15157-0.05817-0.21774-0.29466-0.21774-0.7783s-0.0662-0.72013-0.21774-0.7783c-0.13666-0.05244-0.21774-0.27442-0.21774-0.59618 0-0.28194-0.0653-0.51262-0.14516-0.51262-0.0798 0-0.14516-0.31962-0.14516-0.71028 0-0.49745-0.0652-0.73531-0.21775-0.79383-0.15992-0.06136-0.21774-0.31379-0.21774-0.95051 0-0.47683-0.0653-0.90733-0.14516-0.95667-0.0798-0.04935-0.14516-0.38186-0.14516-0.73893 0-0.44317-0.0691-0.67573-0.21774-0.73277-0.15158-0.05817-0.21774-0.29466-0.21774-0.7783s-0.0662-0.72013-0.21775-0.7783c-0.14863-0.05704-0.21774-0.2896-0.21774-0.73277 0-0.35707-0.0653-0.68959-0.14516-0.73893-0.0798-0.04934-0.14516-0.35834-0.14516-0.68665 0-0.55852-0.30446-1.1279-0.60315-1.1279-0.0674 0-0.12266 5.0625-0.12266 11.25v11.25h3.1936c3.1132 0 3.1936-0.0075 3.1936-0.29488zm-33.713-11.137c0.0247-7.3527-0.0118-11.069-0.10887-11.069-0.0803 0-0.14607 0.08999-0.14607 0.19997s-0.098 0.28129-0.21774 0.38068c-0.11976 0.09939-0.21775 0.39749-0.21775 0.66243 0 0.26495-0.0653 0.52209-0.14516 0.57144-0.0798 0.04934-0.14516 0.27383-0.14516 0.49886s-0.098 0.49046-0.21774 0.58985c-0.11976 0.09939-0.21774 0.36068-0.21774 0.58064s-0.098 0.48126-0.21774 0.58065c-0.13204 0.10958-0.21775 0.42745-0.21775 0.80759 0 0.34479-0.0653 0.66726-0.14516 0.7166-0.0798 0.04935-0.14516 0.27383-0.14516 0.49886s-0.098 0.49046-0.21774 0.58985c-0.11976 0.09939-0.21774 0.39435-0.21774 0.65547 0 0.2881-0.0856 0.50761-0.21775 0.55831-0.13666 0.05244-0.21774 0.27442-0.21774 0.59618 0 0.28194-0.0653 0.51262-0.14516 0.51262-0.0798 0-0.14516 0.12265-0.14516 0.27255s-0.098 0.35387-0.21774 0.45326c-0.11976 0.09939-0.21774 0.40134-0.21774 0.671s-0.0653 0.49029-0.14516 0.49029c-0.0798 0-0.14517 0.28595-0.14517 0.63545 0 0.38775-0.0849 0.70589-0.21774 0.81616-0.11976 0.09939-0.21774 0.29536-0.21774 0.43548s-0.098 0.33609-0.21774 0.43548c-0.11976 0.09939-0.21774 0.36482-0.21774 0.58985s-0.0653 0.44951-0.14517 0.49886c-0.0798 0.04934-0.14516 0.38186-0.14516 0.73893 0 0.44317-0.0691 0.67573-0.21774 0.73277-0.1333 0.05116-0.21774 0.27124-0.21774 0.56752 0 0.26618-0.0653 0.52434-0.14516 0.57368-0.0798 0.04934-0.14516 0.37181-0.14516 0.7166 0 0.38014-0.0857 0.69801-0.21774 0.8076-0.14301 0.11868-0.21775 0.44256-0.21775 0.94355s-0.0747 0.82487-0.21774 0.94355c-0.22369 0.18565-0.31666 1.5946-0.11831 1.793 0.0547 0.05469 1.5734 0.08191 3.375 0.06048l3.2756-0.03894 0.0372-11.069zm7.554 10.257c0.0314-0.59459-0.0171-0.86122-0.18145-0.99761-0.12336-0.10238-0.2243-0.37026-0.2243-0.59529s-0.0653-0.44951-0.14516-0.49886c-0.0798-0.04935-0.14516-0.37181-0.14516-0.7166 0-0.38014-0.0857-0.69801-0.21774-0.80759-0.11976-0.09939-0.21774-0.39435-0.21774-0.65547 0-0.2881-0.0856-0.50761-0.21775-0.55832-0.14863-0.05704-0.21774-0.2896-0.21774-0.73277 0-0.35707-0.0653-0.68959-0.14516-0.73893-0.0798-0.04934-0.14516-0.3075-0.14516-0.57368 0-0.29628-0.0845-0.51637-0.21774-0.56752-0.14864-0.05704-0.21774-0.2896-0.21774-0.73277 0-0.35707-0.0653-0.68959-0.14516-0.73893-0.0798-0.04934-0.14517-0.47984-0.14517-0.95667 0-0.63672-0.0579-0.88915-0.21774-0.95051-0.15158-0.05817-0.21774-0.29466-0.21774-0.7783s-0.0662-0.72013-0.21774-0.7783c-0.14864-0.05704-0.21774-0.2896-0.21774-0.73277 0-0.35707-0.0653-0.68959-0.14517-0.73893-0.0798-0.04935-0.14516-0.37181-0.14516-0.7166 0-0.38014-0.0857-0.69801-0.21774-0.8076-0.13204-0.10958-0.21774-0.42745-0.21774-0.8076 0-0.34478-0.0653-0.66726-0.14516-0.7166-0.0798-0.04935-0.14516-0.27383-0.14516-0.49886s-0.098-0.49046-0.21774-0.58985c-0.13112-0.10882-0.21775-0.42643-0.21775-0.79839s-0.0866-0.68957-0.21774-0.79839c-0.11976-0.09939-0.21774-0.36482-0.21774-0.58985s-0.0653-0.44951-0.14516-0.49886c-0.0798-0.04934-0.14516-0.2165-0.14516-0.37147s-0.0653-0.28176-0.14516-0.28176c-0.16572 0-0.21079 21.951-0.0454 22.116 0.0549 0.05486 1.3776 0.08208 2.9395 0.06048l2.8398-0.03927 0.0429-0.81147zm5.2555-22.188c0-0.15496-0.0653-0.32213-0.14516-0.37147-0.0798-0.04934-0.14516-0.41247-0.14516-0.80695s0.0653-0.71724 0.14516-0.71724c0.0798 0 0.14516-0.12265 0.14516-0.27255s0.098-0.35387 0.21775-0.45326c0.35748-0.29669 0.25987-0.51554-0.64255-1.4407l-0.86028-0.88192h-1.2849c-1.1077 0-1.3194 0.04027-1.5349 0.29198-0.27968 0.32664-0.32374 0.66145-0.10484 0.79673 0.0798 0.04934 0.14516 0.20851 0.14516 0.3537s0.098 0.3453 0.21774 0.44469c0.11976 0.09939 0.21774 0.26778 0.21774 0.37421 0 0.10642 0.60424 0.81078 1.3427 1.5652 1.1289 1.1533 1.4179 1.3739 1.8145 1.3855 0.37494 0.01093 0.47177-0.04408 0.47177-0.268zm5.1144-1.1308c0.77985-0.77693 1.4179-1.5281 1.4179-1.6694 0-0.14122 0.0653-0.25676 0.14516-0.25676 0.0798 0 0.14516-0.12265 0.14516-0.27255s0.098-0.35387 0.21775-0.45326c0.30826-0.25583 0.27023-0.5629-0.10887-0.87916-0.26169-0.21831-0.57105-0.27343-1.5563-0.2773l-1.2297-0.0048-0.83889 0.83013c-0.80042 0.79206-1.0113 1.2236-0.69372 1.4199 0.0798 0.04934 0.14516 0.21856 0.14516 0.37603s0.098 0.32391 0.21774 0.36987c0.15276 0.05862 0.21774 0.29689 0.21774 0.79839s-0.0649 0.73977-0.21774 0.79839c-0.11976 0.04595-0.21774 0.20721-0.21774 0.35835 0 0.21294 0.10561 0.27479 0.46918 0.27479 0.39951 0 0.6797-0.20974 1.8871-1.4126zm-2.6716-4.1286c0.57263-0.57264 1.0412-1.0626 1.0412-1.0887 0-0.02615-0.91451-0.04755-2.0322-0.04755-1.1178 0-2.0323 0.03894-2.0323 0.08654 0 0.06094 1.8476 2.015 1.9709 2.0845 0.006 0.0035 0.47978-0.46217 1.0524-1.0348zm-2.269-4.2273c-0.441-0.4549-0.63-1.1181-0.319-1.1181 0.0798 0 0.14516-0.12265 0.14516-0.27255s0.098-0.35387 0.21775-0.45326 0.21774-0.29323 0.21774-0.43076c0-0.32788 0.45396-0.73053 0.8236-0.73053 0.33724 0 0.77317 0.42611 0.77317 0.75575 0 0.12366 0.098 0.30615 0.21774 0.40554 0.11976 0.09939 0.21775 0.30336 0.21775 0.45326s0.0653 0.27255 0.14516 0.27255c0.32271 0 0.11805 0.69513-0.33353 1.1328-0.67921 0.65833-1.4587 0.65288-2.1057-0.014725z"/>
 </g>
</svg>
