<?xml version="1.0" encoding="UTF-8" standalone="no"?>
<!-- Created with Inkscape (http://www.inkscape.org/) -->
<svg id="svg2" xmlns:rdf="http://www.w3.org/1999/02/22-rdf-syntax-ns#" xmlns="http://www.w3.org/2000/svg" height="54" width="99" version="1.1" xmlns:cc="http://creativecommons.org/ns#" xmlns:dc="http://purl.org/dc/elements/1.1/">
 <metadata id="metadata7">
  <rdf:RDF>
   <cc:Work rdf:about="">
    <dc:format>image/svg+xml</dc:format>
    <dc:type rdf:resource="http://purl.org/dc/dcmitype/StillImage"/>
    <dc:title/>
   </cc:Work>
  </rdf:RDF>
 </metadata>
 <g id="g16695">
  <rect id="rect2990" opacity="0" height="54" width="99" y="0" x="0"/>
  <path id="path6799" d="m34.352 48.752c-0.047-0.41154-0.12779-0.8154-0.17947-0.89746-0.12711-0.20177-0.94406-0.40705-2.046-0.5141-0.50101-0.04867-1.1422-0.20466-1.4249-0.34664-0.28269-0.14198-1.5417-0.65508-2.7979-1.1402-3.0712-1.1862-3.686-1.4741-4.2648-1.997-0.27117-0.24499-0.75532-0.51606-1.0759-0.60237-0.98188-0.2644-2.5622-1.6784-5.5633-4.9779-0.89513-0.98413-1.6788-1.7893-1.7415-1.7893s-0.11401-0.06815-0.11401-0.15145c0-0.08329-0.42993-0.86219-0.95539-1.7309-0.52546-0.86868-0.99465-1.7359-1.0427-1.9272-0.048-0.19127-0.48939-1.2131-0.98085-2.2707-0.91048-1.9593-1.1088-2.5964-1.2573-4.0378-0.0461-0.44746-0.13659-0.8462-0.20112-0.88608-0.15746-0.09732-0.15198-5.4359 0.006-5.5943 0.0677-0.06799 0.20866-0.69967 0.31327-1.4037 0.13352-0.89863 0.26694-1.364 0.44772-1.5616 0.14163-0.15482 0.52076-0.69141 0.84251-1.1924 0.67582-1.0524 1.2998-1.6769 2.3076-2.3094 0.91088-0.57173 1.7721-0.66548 6.5066-0.70829 5.141-0.04647 8.7008-0.14404 8.8607-0.24285 0.0782-0.04829 1.6154-0.13633 3.4161-0.19565 2.7598-0.09092 3.3456-0.14478 3.7296-0.34291 0.41201-0.21262 0.78045-0.23094 3.8614-0.19199 3.1434 0.03974 3.45 0.02359 3.977-0.20954 0.4044-0.17888 1.0378-0.28046 2.1701-0.34805 1.0721-0.06399 2.0986-0.22223 3.1152-0.48022 1.5785-0.4006 2.1204-0.40586 2.6999-0.02619 1.012 0.66311 0.48971 2.7853-0.87423 3.5518-0.49423 0.27777-0.77475 0.31778-2.8621 0.40819l-2.3142 0.10023-0.38149 0.42697c-0.37946 0.4247-0.38198 0.43842-0.47359 2.5818-0.0946 2.2136-0.0389 2.925 0.27822 3.5514 0.15028 0.29683 0.22518 0.33709 0.42663 0.22928 0.42408-0.22697 1.263-1.3088 1.783-2.2993 0.27573-0.52523 0.55939-0.9556 0.63033-0.95637 0.38114-0.0041 1.6146-1.0925 2.5604-2.2593 1.1697-1.4429 1.9408-2.2246 2.4629-2.4968 0.18556-0.09673 0.77116-0.62375 1.3013-1.1712 1.6745-1.729 3.4211-2.9126 7.2198-4.8925 1.2535-0.65332 2.293-1.1077 2.6706-1.1674 0.34008-0.05376 1.0941-0.30694 1.6757-0.56263 0.75755-0.33308 1.2445-0.46488 1.7176-0.46488 0.36314 0 1.5671-0.18209 2.6755-0.40464 1.822-0.36584 2.148-0.39562 3.4001-0.31053 0.76168 0.05176 1.8812 0.08848 2.4879 0.0816 0.85977-0.0098 1.3094 0.05873 2.0389 0.31053 0.51475 0.17767 1.2104 0.32304 1.546 0.32304 0.47353 0 0.71622 0.08317 1.0843 0.37157 0.60549 0.47446 0.98016 0.66949 1.2861 0.66949 0.26319 0 2.8486 2.5059 2.9656 2.8743 0.0389 0.12261 0.30204 0.58077 0.58471 1.0181 0.79871 1.2358 1.0043 1.7096 1.1067 2.5505 0.0522 0.42869 0.17528 0.93757 0.27352 1.1308 0.12693 0.24972 0.17862 0.89511 0.17862 2.2303 0 1.8574-0.006 1.8964-0.52671 3.4064-0.8092 2.3468-1.4352 3.4637-2.6471 4.7233-1.197 1.2439-2.7442 1.9815-4.6503 2.2169-0.92496 0.11422-0.993 0.10332-1.8708-0.29957-1.1365-0.52162-1.6959-0.98876-1.8906-1.5786-0.16231-0.49179-0.0803-1.095 0.14886-1.095 0.0771 0 0.41272 0.24242 0.74578 0.5387 0.33307 0.29629 0.98621 0.72085 1.4514 0.94346 0.72099 0.34501 0.98993 0.40381 1.8219 0.39833 0.98908-0.0065 1.5616-0.18902 1.5616-0.49779 0-0.09335 0.16104-0.24483 0.35787-0.33661 0.33557-0.15649 0.34166-0.17343 0.0976-0.27201-0.14315-0.05782-0.71796-0.10924-1.2774-0.11427-1.4339-0.0129-1.7753-0.22087-1.7788-1.0837-0.002-0.46925-0.0341-0.50455-0.79658-0.8739-1.4456-0.70029-1.4958-0.89533-0.31008-1.2063 2.4682-0.64736 4.5663-2.3126 5.4742-4.345 0.40739-0.9119 0.70675-2.4465 0.70007-3.5885l-0.005-0.94895-0.51514 0.5856c-0.60888 0.69216-1.164 1.7188-2.0581 3.8062-1.2119 2.8294-2.3959 4.1694-2.9319 3.3182-0.11968-0.19005-0.0543-0.30977 0.39217-0.71786 0.80719-0.73784 1.5643-2.0107 2.0238-3.4022 0.37614-1.1391 0.41226-1.3946 0.41545-2.9393 0.003-1.8703-0.14295-2.4881-0.86016-3.6198-0.41911-0.66129-1.5573-1.6343-1.6359-1.3985-0.0254 0.07631 0.18783 0.43273 0.47392 0.79204 0.73979 0.92914 0.89388 1.9108 0.67319 4.2885-0.11562 1.2458-0.22908 1.8547-0.38852 2.085-0.12385 0.17893-0.4077 0.71106-0.63076 1.1825-0.41351 0.87398-0.96556 1.5503-1.2655 1.5503-0.27494 0-0.57849-0.14945-0.57849-0.28482 0-0.06976 0.20384-0.3756 0.45298-0.67964 0.94195-1.1495 1.3548-2.5793 1.4612-5.0603l0.077-1.7955-0.43847-0.45239c-0.429-0.4377-0.447-0.4433-0.547-0.1727-0.091 0.2456-0.169 0.2692-0.64 0.1938l-0.53698-0.08587 0.0842 0.61414c0.0463 0.33778 0.16018 0.73507 0.25308 0.88286 0.22756 0.36208 0.0698 3.112-0.24225 4.2244-0.25086 0.89404-0.74143 1.501-1.2993 1.6077-0.27412 0.0524-0.32842 0.02312-0.2713-0.14628 0.0393-0.11648 0.23271-0.65099 0.42985-1.1878 0.33022-0.89915 0.35833-1.1246 0.35689-2.8629-0.002-1.663-0.0372-1.977-0.30206-2.6459-0.31333-0.79135-0.96191-1.6485-1.2474-1.6485-0.0912 0-0.23869 0.08784-0.32779 0.1952-0.26336 0.31733-0.54597 0.2299-1.3022-0.4029-0.66494-0.55636-1.5837-1.0868-1.886-1.0888-0.0716-0.000482-0.21421 0.05233-0.31697 0.11736-0.28661 0.18136 0.0545 0.51369 0.62667 0.61049 0.37543 0.06351 0.61644 0.25161 1.1868 0.92625 2.1839 2.5831 2.8832 4.5276 2.0897 5.8115-0.44403 0.71844-0.59309 0.60178-0.7742-0.6059-0.21267-1.4181-0.49449-2.4999-0.82009-3.1479-0.43291-0.86161-0.5948-0.9838-1.3035-0.9838h-0.63762l0.4007 0.55307c1.4686 2.027 1.6601 2.5613 1.2606 3.5175-0.25846 0.61857-0.4218 0.61379-0.52239-0.01528-0.13273-0.83005-0.93897-2.276-1.6289-2.9213-1.0973-1.0264-2.6772-1.6594-4.5384-1.8182-0.37576-0.032073-0.6832-0.00909-0.6832 0.051081 0 0.18057 0.94329 0.71466 1.4315 0.81049 0.25051 0.049173 0.76201 0.29292 1.1367 0.54166 0.37466 0.24873 0.76537 0.45224 0.86826 0.45224 0.41393 0 1.8953 2.1017 1.8978 2.6926 0.003 0.70674-0.64232 0.43256-1.0979-0.46644-0.46478-0.91718-0.90455-1.383-1.6623-1.7606-0.67245-0.33509-1.5794-0.44608-1.7247-0.21104-0.19991 0.32346 0.32601 1.0472 1.1535 1.5874 0.47873 0.31253 0.91347 0.70578 0.99329 0.8985 0.13093 0.31609 0.0606 1.0334-0.10138 1.0334-0.0385 0-0.35579-0.26733-0.7051-0.59406s-1.0288-0.77984-1.51-1.0069c-0.78283-0.36938-1.0005-0.41301-2.0676-0.41447-0.65599-0.000867-1.234 0.03953-1.2844 0.08984-0.20474 0.20434 0.47013 0.99793 1.5268 1.7955 1.2044 0.90901 1.3944 1.1296 1.544 1.7931 0.0891 0.3951 0.0748 0.42251-0.1835 0.35031-0.15409-0.04308-0.54575-0.35772-0.87036-0.69919-0.92455-0.97259-1.1781-1.0987-2.0019-0.99575-0.5736 0.07167-0.80321 0.03806-1.231-0.18021-0.63502-0.32396-2.0058-0.36463-2.6877-0.07975-0.24821 0.10371-0.45129 0.21932-0.45129 0.25692s0.17278 0.15771 0.38394 0.26691c0.27219 0.14075 0.77917 0.19854 1.7418 0.19854h1.3579l0.70275 0.57855c0.38651 0.3182 0.83244 0.80929 0.99094 1.0913 0.2878 0.51206 0.39264 1.3232 0.17104 1.3232-0.0645 0-0.50547-0.37888-0.98008-0.84195-0.62035-0.60526-1.0172-0.88226-1.4119-0.98534-0.30193-0.07887-0.92114-0.25631-1.376-0.39431-0.9148-0.27755-1.7247-0.32216-2.1095-0.11621-0.37166 0.1989-0.30757 0.34638 0.19119 0.43994 0.47144 0.08844 0.59816 0.26863 0.59816 0.85054 0 0.32263 0.0685 0.38138 0.61813 0.53014 0.77267 0.20913 1.3141 0.4701 1.6917 0.81536 0.2262 0.20684 0.2928 0.41055 0.2928 0.89571 0 0.34539-0.0492 0.62798-0.10939 0.62798-0.0601 0-0.55524-0.40643-1.1002-0.90317-1.0349-0.94336-1.6404-1.2271-2.326-1.09-0.56468 0.11294-0.45193 0.55996 0.21714 0.86085 1.0382 0.46691 1.1543 0.55299 1.2552 0.93056 0.0564 0.21112 0.0883 0.39815 0.0708 0.41562-0.0174 0.01747-0.28578-0.02532-0.59626-0.09508-0.57243-0.12862-1.0551-0.06382-1.0551 0.14164 0 0.06202 0.24305 0.27767 0.54011 0.47923 0.62721 0.42556 0.80865 0.79344 0.55942 1.1343-0.16685 0.22818-0.18661 0.22741-0.53877-0.02105-0.68308-0.48194-1.6811-0.92125-2.4569-1.0815-0.76809-0.15864-1.9347-0.08414-2.0684 0.1321-0.0366 0.05922-0.003 0.28954 0.0744 0.51184 0.12088 0.34674 0.19815 0.39972 0.54379 0.37281 0.31338-0.02439 0.43889 0.0391 0.56486 0.28573 0.21143 0.41396 0.0394 0.73505-0.51882 0.96829-0.53071 0.22174-1.0198 0.80693-1.8337 2.194-0.8967 1.5282-1.2109 1.9205-1.542 1.9252-0.66088 0.0096-1.2601 0.82805-1.2613 1.7229-0.00078 0.53562-0.0455 0.64128-0.32619 0.76915-0.4064 0.18517-0.40687 0.35019-0.003 1.1193 0.45173 0.86058 0.52063 0.93038 1.7599 1.783 0.60837 0.41855 1.2818 0.91996 1.4965 1.1143 0.21472 0.1943 0.6086 0.39192 0.87529 0.43916 0.56048 0.09928 1.4711 0.56207 2.7788 1.4122 0.95391 0.62016 2.027 1.0867 3.3731 1.4666 0.42944 0.12118 0.90427 0.29716 1.0552 0.39107 0.15091 0.09391 0.64714 0.23833 1.1027 0.32095 0.45559 0.08262 0.91771 0.19778 1.027 0.25593 0.10923 0.05815 0.59179 0.14764 1.0724 0.19886 0.86095 0.09176 0.87983 0.08704 1.2894-0.32253 0.30558-0.30558 0.66665-0.47985 1.3635-0.65806 0.52129-0.13332 1.1133-0.32799 1.3156-0.4326 0.29269-0.15135 0.51347-0.16336 1.0812-0.05883 0.83611 0.15395 2.411-0.0255 3.6896-0.42042 0.45168-0.13951 1.4015-0.31349 2.1108-0.38663 0.70925-0.07314 2.1387-0.36123 3.1765-0.64022 2.7333-0.73476 2.5422-0.71348 2.8534-0.31785 0.22582 0.28709 0.26958 0.52565 0.26853 1.4641l-0.00086 1.1211-0.67309 0.89615c-0.37019 0.49289-1.087 1.2341-1.5929 1.6472-1.5598 1.2737-3.981 2.9873-4.2208 2.9873-0.12532 0-0.34152 0.08597-0.48045 0.19106-0.13893 0.10508-0.42056 0.19292-0.62583 0.1952-0.2285 0.0025-0.55359 0.1625-0.83838 0.41255-0.79631 0.69917-5.5566 2.7938-6.0171 2.6477-0.15604-0.04952-0.47116 0.0111-0.74957 0.1442-0.72438 0.34632-3.4062 0.94368-5.1651 1.1505-1.5104 0.1776-2.2977 0.36528-2.6337 0.62782-0.0987 0.07715-0.8551 0.09221-1.952 0.03885-1.448-0.07043-1.9403-0.04674-2.5716 0.12373-0.59277 0.16007-1.0628 0.1902-1.952 0.12513-1.3184-0.09648-2.5753 0.0804-3.3387 0.46984-0.36992 0.18872-0.76203 0.24992-1.6012 0.24992-0.65412 0-1.1113-0.05354-1.1113-0.13013 0-0.07157-0.11366-0.13013-0.25258-0.13013s-0.28878 0.05856-0.33301 0.13013c-0.12881 0.20842-1.6004 0.15016-2.277-0.09014-0.58264-0.20694-0.64053-0.20694-0.95635 0-0.2975 0.19493-0.79877 0.22027-4.3581 0.22027h-4.0219l-0.0854-0.74826zm11.078-1.427c0.19422-0.29782 0.22612-0.60965 0.20158-1.9705-0.0317-1.7542-0.15823-2.1002-0.76847-2.1002-0.88691 0-1.0948 2.7098-0.30727 4.0049 0.31172 0.51258 0.57013 0.53204 0.87416 0.06583zm13.114 0.07971c1.3208-0.11838 1.7506-0.20481 1.9604-0.39423 0.20229-0.18268 0.4714-0.2426 1.0894-0.2426 2.0713 0 5.1212-0.72697 6.6004-1.5732 0.97295-0.55666 1.9683-1.4961 2.5384-2.3958l0.49473-0.7808-1.3966-0.07666c-0.97747-0.05365-1.5723-0.15453-1.9822-0.33616-0.60864-0.26971-1.4315-1.0822-1.4315-1.4136 0-0.14099-0.16275-0.19067-0.62464-0.19067-0.34355 0-0.68026-0.05476-0.74826-0.1217-0.068-0.06693-0.55922-0.24194-1.0916-0.38891-0.5324-0.14696-1.0272-0.32644-1.0996-0.39883-0.0724-0.0724-0.26778-0.13162-0.43418-0.13162-0.57333 0-1.6826-0.48598-2.9495-1.2923-1.2555-0.799-2.0874-1.1803-2.5753-1.1803-0.13803 0-0.4381-0.17602-0.66683-0.39114-0.49126-0.46204-2.0293-1.2792-3.2014-1.7009-0.60413-0.21737-0.9783-0.45698-1.3596-0.8707-0.64742-0.70236-1.0913-0.94121-1.7493-0.94121-0.59979 0-0.86826 0.25241-0.98959 0.93039-0.0468 0.26121-0.15856 0.53597-0.24847 0.61059-0.0942 0.07821-0.79553 0.13129-1.6558 0.12532-0.82075-0.0057-1.7385 0.05781-2.0394 0.1411-1.1719 0.32437-1.7949 1.3224-0.93311 1.4947 0.60966 0.12193 1.0271 0.09979 1.7747-0.09415 0.63888-0.16572 0.68101-0.16131 0.75742 0.07945 0.0445 0.14022 0.28366 0.47936 0.53147 0.75366l0.45057 0.49872-0.49644 0.32644c-0.52298 0.3439-1.6589 0.66033-1.88 0.5237-0.22025-0.13612-0.4949 0.37278-0.49926 0.92509-0.005 0.67876 0.27087 1.0575 0.91114 1.2494 0.441 0.13212 0.5499 0.12328 0.7538-0.06125 0.37665-0.34086 0.63756-0.26787 0.3056 0.0855-0.63755 0.67864-0.15153 1.041 1.604 1.196 0.57259 0.05054 1.2927 0.20074 1.6002 0.33378 0.55291 0.2392 0.55678 0.24542 0.3495 0.56177-0.23569 0.3597-0.39901 1.5812-0.27662 2.0688 0.048 0.19132 0.23839 0.38586 0.47248 0.48282 0.49811 0.20633 0.48898 0.3891-0.0359 0.71818-0.48542 0.30435-0.57151 0.68274-0.32623 1.4339l0.16858 0.5163 0.84586 0.0849c1.1486 0.11528 5.4096 0.02201 7.4826-0.1638zm1.0411-1.4176c0.0443-0.07157 0.16481-0.13013 0.26795-0.13013 0.10313 0 0.18752 0.05856 0.18752 0.13013s-0.12057 0.13013-0.26794 0.13013c-0.14738 0-0.23176-0.05856-0.18753-0.13013zm-5.1402-0.32533c0-0.12146 0.12291-0.1952 0.32534-0.1952 0.20242 0 0.32533 0.07374 0.32533 0.1952s-0.12291 0.1952-0.32533 0.1952c-0.20243 0-0.32534-0.07374-0.32534-0.1952zm-3.4891-0.16117c0.0653-0.33922 0.49605-0.37705 0.49605-0.04357 0 0.18623-0.0836 0.26981-0.26981 0.26981-0.18623 0-0.25631-0.07008-0.22624-0.22624zm10.911-0.32683c0.008-0.29242 0.30913-0.56421 1.0369-0.93413 0.39366-0.20009 0.83285-0.42657 0.976-0.5033 1.0906-0.58459 1.3817-0.61747 1.0308-0.11644-0.11525 0.16454-0.70532 0.53471-1.3113 0.82259-0.60594 0.28788-1.1337 0.60679-1.1728 0.70868-0.0875 0.2281-0.56536 0.24739-0.55964 0.02259zm-7.0266-0.3904c0.003-0.16104 0.14369-0.46282 0.31359-0.67061 0.16991-0.2078 0.28093-0.45075 0.24672-0.5399-0.0342-0.08915-0.00026-0.20033 0.0753-0.24708 0.0867-0.05358 0.10694 0.0016 0.0547 0.1495-0.0677 0.1917-0.0507 0.20481 0.0926 0.07183 0.24207-0.2246 0.64379-0.2043 0.64379 0.03253 0 0.10736-0.0513 0.1952-0.11397 0.1952-0.0626 0-0.31156 0.29129-0.55306 0.64731-0.47054 0.69366-0.76732 0.83476-0.75975 0.36122zm3.6429-0.32533c0.006-0.16517 0.73679-0.91287 1.0584-1.0836 0.16729-0.08879 0.38068-0.26927 0.4742-0.40105 0.0935-0.13179 0.22593-0.23961 0.29422-0.23961 0.0683 0 0.37242-0.1091 0.67583-0.24245 0.3034-0.13335 0.81516-0.34604 1.1372-0.47266 0.32207-0.12662 0.75999-0.30671 0.97315-0.40022 0.21315-0.0935 0.41287-0.14469 0.44382-0.11374 0.0914 0.09138-0.41787 0.59942-0.71467 0.71298-0.15053 0.0576-0.84934 0.49774-1.5529 0.9781-0.70357 0.48036-1.5174 0.98155-1.8084 1.1138-0.55094 0.25024-0.98743 0.31632-0.98087 0.14849zm-7.1015-1.2933c0.0913-0.36385 0.40816-0.67996 0.68868-0.6871 0.22477-0.0057 0.20426 0.31987-0.0325 0.51639-0.10736 0.0891-0.1952 0.24267-0.1952 0.34127s-0.12347 0.17927-0.27438 0.17927c-0.2328 0-0.26107-0.053-0.18657-0.34983zm2.6732-0.33988c0-0.33115 0.2208-0.61162 0.48149-0.61162 0.21767 0 0.21083 0.38968-0.012 0.6832-0.24174 0.31844-0.46952 0.28372-0.46952-0.07157zm2.7328-0.0011c0-0.28036 0.28968-0.56184 0.94808-0.92122 0.69989-0.38201 1.3943-0.45408 1.3943-0.1447 0 0.10736-0.10544 0.1952-0.23433 0.1952-0.2908 0-0.93448 0.29089-0.93585 0.42293-0.00052 0.05368-0.0868 0.0976-0.19164 0.0976s-0.2533 0.11712-0.32991 0.26027c-0.15463 0.28893-0.65066 0.35749-0.65066 0.08994zm2.993-1.5777c0-0.10254 0.11017-0.2214 0.24481-0.26413 0.13464-0.04274 0.37784-0.19308 0.54044-0.3341 0.35531-0.30813 1.0366-0.34836 1.0366-0.06119 0 0.10736-0.094 0.1952-0.20895 0.1952-0.11491 0-0.38292 0.1464-0.59558 0.32533-0.42493 0.35756-1.0173 0.43844-1.0173 0.1389zm-6.8724-0.28443c0.11583-0.11583 0.27478-0.17093 0.35322-0.12245 0.2584 0.1597 0.14879 0.33305-0.21059 0.33305-0.32546 0-0.33667-0.01656-0.14263-0.2106zm2.3177 0.02419c0-0.10254 0.10248-0.21991 0.22773-0.26083s0.36004-0.2791 0.52173-0.5293c0.2907-0.4498 0.682-0.61352 0.682-0.28534 0 0.09326-0.18074 0.41534-0.40166 0.71573-0.27919 0.37965-0.4974 0.54617-0.71573 0.54617-0.18585 0-0.31407-0.07611-0.31407-0.18643zm-5.5957-0.57892c0-0.27082 0.7766-0.92638 1.0974-0.92638 0.3564 0 0.22069 0.33334-0.30901 0.75902-0.58789 0.47244-0.78843 0.51501-0.78843 0.16736zm7.2874-0.78031c0-0.21708 0.3879-0.43513 0.61647-0.34653 0.21476 0.08325 0.21327 0.10078-0.0233 0.27482-0.28275 0.20809-0.59325 0.24562-0.59325 0.0717zm-3.1232-0.1635c0-0.39974 0.32199-1.1538 0.49269-1.1538 0.15142 0 0.17323 0.11259 0.10478 0.54065-0.0475 0.29736-0.11705 0.59016-0.15444 0.65066-0.10051 0.16263-0.44303 0.1336-0.44303-0.03756zm-2.8629-0.8401c0-0.25724 0.50757-0.69391 0.81333-0.69973 0.12525-0.0023 0.22773 0.08351 0.22773 0.19087s-0.0586 0.1952-0.13013 0.1952c-0.0716 0-0.13014 0.08101-0.13014 0.18002s-0.13176 0.21533-0.2928 0.25849c-0.43356 0.11619-0.48799 0.10226-0.48799-0.12485zm-3.1232-0.48869c0-0.20828 0.41232-0.60577 0.62837-0.60577 0.2497 0 0.17279 0.50048-0.0993 0.64609-0.34263 0.18337-0.52908 0.16916-0.52908-0.04032zm7.421-0.314c0.006-0.31683 0.30782-0.6832 0.56328-0.6832 0.2697 0 0.2707 0.18194 0.003 0.59018-0.24328 0.37129-0.57254 0.42536-0.5665 0.09302zm-6.5108-0.61286c0-0.38606 1.1596-1.1664 1.3904-0.93562 0.091 0.09096-1.0317 1.1256-1.2214 1.1256-0.0929 0-0.16898-0.08547-0.16898-0.18993zm4.1642-0.40496c0-0.263 0.3133-0.5763 0.57631-0.5763 0.27629 0 0.25846 0.30122-0.0335 0.56543-0.30012 0.27161-0.54282 0.27647-0.54282 0.01088zm-11.916 10.618 0.33381-0.12691v-2.0055-2.0055l-0.59646-0.08945c-0.32805-0.04919-0.82731-0.05044-1.1095-0.0028l-0.51299 0.08667 0.0358 1.9725 0.0358 1.9725 0.45546 0.15532c0.56903 0.19405 0.9307 0.20553 1.3579 0.0431zm7.5234-0.5315c0.3468-0.68241 0.31288-2.2431-0.0649-2.9838-0.16103-0.31578-0.3546-0.59278-0.43014-0.61557-0.20549-0.062-0.62317 2.1844-0.54923 2.9538 0.0626 0.65203 0.40227 1.2222 0.67707 1.1367 0.0768-0.02389 0.24202-0.24492 0.36717-0.49116zm-12.198-0.51874c0.0422-0.1332-0.0141-0.54834-0.12518-0.92253-0.11113-0.37419-0.20205-0.87956-0.20205-1.123 0-0.29604-0.0539-0.4249-0.16266-0.38898-0.26551 0.08766-0.35914 1.8977-0.12399 2.3967 0.20613 0.43746 0.48165 0.45445 0.61388 0.03785zm-2.1338 0.01961c0.28373-0.26434 0.26859-0.39386-0.19183-1.6403-0.2128-0.57607-0.35602-0.60951-1.6779-0.39177-0.57169 0.09417-0.61813 0.08151-0.61813-0.16846 0-0.36307 0.16276-0.44356 1.2215-0.60415 0.89294-0.13544 0.90444-0.14231 1.0444-0.62395 0.20653-0.71074 0.51574-1.0095 1.0448-1.0095 1.2651 0 2.829-0.61752 3.3733-1.332 0.35708-0.46876 0.67722-1.5414 0.55506-1.8598-0.10238-0.2668-0.87065-0.58212-1.4183-0.58212-0.23869 0-0.98721 0.1453-1.6634 0.32289-0.75687 0.19879-1.6045 0.3256-2.2054 0.32994-0.59531 0.0043-1.1029 0.07959-1.3013 0.19303-0.44675 0.25539-0.65066 0.23995-0.65066-0.04928 0-0.27409 0.52977-0.53419 1.0411-0.51114 0.6562 0.02958 3.4656-0.56188 4.0341-0.84931 0.5729-0.28963 0.58647-0.31113 0.62557-0.99072l0.04-0.69467-1.081 0.08397c-1.2682 0.0985-1.7369-0.06298-0.83903-0.28906 0.32394-0.08157 0.89976-0.15017 1.2796-0.15244 0.39979-0.0024 0.79702-0.0846 0.94324-0.1952 0.35622-0.26944 0.8988-0.23572 2.0247 0.12582 0.5368 0.17236 1.0246 0.2664 1.0841 0.20896 0.21129-0.20407 0.73774-1.8464 0.73774-2.3014 0-0.25433-0.0955-0.66368-0.21223-0.90966-0.23425-0.49364-0.16527-0.69725 0.14809-0.43718 0.16879 0.14008 0.23468 0.12695 0.39668-0.07905 0.47392-0.60266 0.84992-1.5488 0.98869-2.4879 0.0822-0.55684 0.22487-1.1296 0.31688-1.2727 0.092-0.14315 0.3745-0.84191 0.62776-1.5528 0.34163-0.95894 0.58725-1.4225 0.9517-1.7961 0.45158-0.46289 0.48989-0.55985 0.47467-1.2016-0.009-0.38396-0.1555-1.1276-0.32533-1.6525-0.28486-0.88041-0.30878-1.1661-0.30878-3.6872v-2.7328l-1.1712 0.02745c-1.6664 0.03906-2.6311 0.22521-5.7258 1.1049-3.1487 0.895-4.954 1.2751-6.0558 1.2751-0.45825 0-0.77618 0.0563-0.77618 0.13745 0 0.2597-1.1076 0.62416-2.2968 0.75577-0.96777 0.1071-1.3819 0.2278-2.2123 0.64478-1.0792 0.54191-2.1816 0.8246-4.2099 1.0795-1.0484 0.13178-1.3012 0.21166-1.6637 0.52572-0.41028 0.35545-0.48139 0.37034-1.7695 0.37034h-1.342l-0.74018-0.77599c-0.83375-0.8741-1.1213-1.4438-1.1213-2.2214 0-1.1208 0.32931-1.3144 2.4293-1.4277 1.8006-0.09722 2.2555-0.27586 2.2555-0.88563 0-0.44321-0.96006-1.4212-1.8148-1.8487-1.1388-0.56958-2.8212-0.19081-4.082 0.91904-1.1581 1.0194-2.1254 2.9121-2.5066 4.9047-0.60563 3.1653 0.2128 7.7865 2.1131 11.931 1.1852 2.585 1.6223 3.3113 2.484 4.1279 0.44268 0.41945 0.6832 0.75387 0.6832 0.94992 0 0.59714 3.2776 3.4612 6.1813 5.4015 2.2733 1.519 2.8772 1.8466 3.2379 1.7561 0.23384-0.05869 0.4477 0.0094 0.75635 0.24089 0.97276 0.72954 2.3607 1.2386 4.7042 1.7255 1.7971 0.37336 1.8575 0.37535 2.183 0.07205zm-5.8277-4.0181c-0.11529-0.07335-0.11518-0.14621 0.00052-0.3044 0.21233-0.29039 0.49583-0.36027 2.0463-0.5044 0.74694-0.06943 1.5491-0.16354 1.7827-0.20913 0.34674-0.06769 0.41065-0.04652 0.34851 0.11542-0.11714 0.30526-0.66325 0.4543-1.9564 0.53393-0.66435 0.04091-1.3492 0.15938-1.5616 0.27013-0.43287 0.22574-0.45476 0.22901-0.65997 0.09845zm5.0316-1.507c0-0.17837 1.1026-0.44235 2.3749-0.56862 0.46196-0.04584 0.61794-0.01707 0.61738 0.11389-0.00052 0.10988-0.35497 0.26015-0.95069 0.40296-1.1619 0.27855-2.0416 0.30086-2.0416 0.05177zm-7.9706-0.43292c-0.41166-0.11004-0.23861-0.42229 0.41861-0.75532 0.35549-0.18014 0.70684-0.32753 0.78079-0.32753 0.28666 0 0.11507 0.39375-0.25498 0.58511-0.2142 0.11077-0.37524 0.26983-0.35786 0.35348 0.0352 0.16952-0.23939 0.23706-0.58656 0.14426zm3.4846-0.68674c-0.11487-0.18587 0.44193-0.48438 1.0802-0.57911 0.48137-0.07144 0.55701-0.05211 0.52053 0.13309-0.027 0.13688-0.28233 0.27971-0.69335 0.38782-0.80097 0.21067-0.81271 0.21142-0.9074 0.0582zm-5.6643-2.218c0-0.14315 0.0495-0.26027 0.10989-0.26027 0.0605 0 0.28004-0.14633 0.488-0.32517 0.42186-0.3628 0.9637-0.43606 0.9637-0.13029 0 0.10736-0.0505 0.1952-0.11224 0.1952-0.0617 0-0.3333 0.17568-0.60349 0.3904-0.57134 0.45405-0.84586 0.49628-0.84586 0.13013zm5.856-0.06173c0-0.20434 0.63315-0.58894 0.96953-0.58894 0.37454 0 0.20498 0.40229-0.24962 0.59224-0.56969 0.23803-0.71991 0.23735-0.71991-0.0033zm1.9552-0.45405c-0.1495-0.09454-0.0632-0.17982 0.3904-0.38555 0.70918-0.32169 1.8186-0.36724 1.8186-0.07468 0 0.13059-0.1306 0.1952-0.39458 0.1952-0.21702 0-0.6048 0.08784-0.86176 0.1952-0.54053 0.22585-0.68877 0.23671-0.95267 0.06982zm-5.0784-1.1021c0-0.10254 0.11712-0.2236 0.26026-0.26904 0.14315-0.04543 0.26027-0.13722 0.26027-0.20397s0.1464-0.12136 0.32533-0.12136c0.4039 0 0.41669 0.20741 0.0325 0.52788-0.34979 0.2918-0.8784 0.33182-0.8784 0.06649zm-4.4015-0.811c0.10222-0.52633 2.4495-1.2776 2.4495-0.78396 0 0.09713-0.29423 0.24492-0.6832 0.34319-0.37576 0.09492-0.83864 0.28167-1.0286 0.415-0.4342 0.30472-0.79433 0.3173-0.73771 0.02577zm7.1343-0.21648c0-0.17252 0.26971-0.255 2.4725-0.75604 0.60838-0.13838 1.2086-0.28273 1.3339-0.32079 0.16285-0.04949 0.22773 0.0033 0.22773 0.18536 0 0.19188-0.12014 0.27603-0.488 0.3418-0.2684 0.04798-1.0613 0.23018-1.762 0.40488-1.4526 0.36215-1.7841 0.38906-1.7841 0.14479zm5.9861-1.1935c0-0.10736 0.0885-0.1952 0.19662-0.1952 0.10814 0 0.46667-0.12694 0.79673-0.28209 0.40381-0.18981 0.66203-0.24302 0.78942-0.16267 0.32454 0.20471 0.20644 0.34437-0.50226 0.59395-0.8362 0.29448-1.2805 0.31044-1.2805 0.046zm-9.109-0.323c0-0.33874 0.6242-0.65401 1.2949-0.65401 0.72084 0 0.71803 0.33051-0.003 0.4273-0.29185 0.03914-0.63318 0.16398-0.75851 0.2774-0.30991 0.28046-0.53272 0.25926-0.53272-0.0507zm-5.856-0.43091c0-0.23498 0.64526-0.48336 1.2557-0.48336 0.61383 0 0.57406 0.33361-0.052 0.43574-0.26839 0.04378-0.64903 0.11688-0.84586 0.16244-0.26967 0.06241-0.35787 0.03411-0.35787-0.11481zm19.52-0.93271c0-0.18248 0.72311-0.45932 1.2037-0.46086 0.42355-0.0014 0.23115 0.34745-0.27536 0.49921-0.66985 0.20069-0.92837 0.19001-0.92837-0.03836zm-16.527-0.249c0-0.11867 0.1529-0.24353 0.35786-0.29223 0.19682-0.04676 0.45377-0.16813 0.571-0.2697 0.21563-0.18684 1.438-0.6913 1.6752-0.6913 0.0708 0 0.12874 0.1098 0.12874 0.244 0 0.17079-0.12593 0.26918-0.4197 0.32794-0.23084 0.04617-0.62611 0.22509-0.8784 0.39761-0.60233 0.41189-1.4347 0.57647-1.4347 0.28368zm7.699-0.03079c0.0367-0.19068 0.27524-0.29288 1.0865-0.46554 1.2982-0.27627 1.495-0.28285 1.495-0.04994 0 0.20641-0.12796 0.25641-1.1712 0.45766-0.39365 0.07594-0.8826 0.17498-1.0865 0.2201-0.31413 0.06949-0.36361 0.04469-0.32375-0.16229zm4.9247-0.6043c0.00087-0.20058 0.71083-0.61813 1.0508-0.61813 0.4068 0 0.28503 0.32535-0.21016 0.5615-0.54596 0.26035-0.84176 0.28028-0.84063 0.05664zm-8.0691-1.0632c0-0.12265 0.31295-0.25595 0.93086-0.39649 0.51198-0.11645 1.0272-0.2633 1.145-0.32634 0.11779-0.06304 0.5773-0.1557 1.0211-0.20592 0.66924-0.07572 0.80695-0.05818 0.80695 0.10276 0 0.1332-0.23467 0.23813-0.74826 0.33457-0.41154 0.07728-1.1875 0.26004-1.7243 0.40612-1.1606 0.31586-1.4315 0.332-1.4315 0.08529zm13.143-0.39049c0-0.25397 0.77969-0.4179 0.9186-0.19313 0.16242 0.26281 0.019 0.37799-0.47081 0.37799-0.30015 0-0.44779-0.06095-0.44779-0.18486zm-22.546-0.68915c-0.19683-0.02982-0.35787-0.13084-0.35787-0.2245 0-0.18931 0.55953-0.33296 1.2969-0.33296 0.26598 0 0.77105-0.08721 1.1224-0.19379 0.79743-0.24191 1.0943-0.24688 1.0943-0.01832 0 0.10174-0.26539 0.25231-0.61813 0.3507-0.33997 0.09483-0.76453 0.24848-0.94347 0.34144-0.31491 0.16362-0.85271 0.18974-1.5941 0.07743zm15.21-0.27028c-0.0931-0.15062 1.1446-0.62819 2.0731-0.79991 0.58934-0.109 1.5215-0.01855 1.7055 0.16548 0.18862 0.18862-0.55007 0.3519-1.2392 0.27393-0.55919-0.06327-0.85662-0.03383-1.1403 0.11284-0.51497 0.2663-1.3016 0.40554-1.3992 0.24766zm5.3839-1.0029c-0.13727-0.1654-0.1078-0.1952 0.19301-0.1952 0.19526 0 0.70652-0.09108 1.1361-0.20241 0.42961-0.11132 0.90655-0.1805 1.0598-0.15373 0.21869 0.03819 0.12454 0.12357-0.437 0.39633-0.80512 0.39108-1.6973 0.46192-1.952 0.155zm-14.184-0.17406c0-0.1774 0.19316-0.29916 0.74827-0.47166 0.41154-0.12789 0.84995-0.2838 0.97422-0.34647 0.37628-0.18972 1.0103-0.13873 1.0103 0.08126 0 0.10736-0.11366 0.1952-0.25259 0.1952-0.13892 0-0.28877 0.05856-0.33301 0.13013-0.0442 0.07157-0.23801 0.13142-0.43061 0.13299-0.1926 0.0016-0.60546 0.11869-0.91746 0.26026-0.70035 0.31779-0.79912 0.32005-0.79912 0.01828zm5.2053-1.0812c0-0.15802 1.5371-0.7618 1.9394-0.7618 0.30835 0 0.11921 0.3534-0.29481 0.55083-0.64911 0.30954-1.6446 0.43724-1.6446 0.21097zm-8.849-0.27426c0-0.12332 0.22997-0.26055 0.61813-0.36885 0.33997-0.09485 0.69133-0.19394 0.7808-0.22019 0.25831-0.07579 0.18856 0.33874-0.0813 0.48317-0.13419 0.07181-0.48554 0.1692-0.7808 0.21641-0.42978 0.06873-0.53683 0.04669-0.53683-0.11054zm13.534-0.53286c0-0.11319 0.10887-0.26406 0.24193-0.33527 0.42403-0.22694 2.2556-0.80898 2.3256-0.73902 0.1065 0.1065-0.0722 0.47036-0.25469 0.5187-0.0911 0.02412-0.54625 0.17538-1.0115 0.33614-1.289 0.44541-1.3013 0.44749-1.3013 0.21946zm-10.15-0.65229c0-0.11375 0.22105-0.20444 0.61813-0.2536 0.33997-0.04209 0.81438-0.11732 1.0542-0.16716 0.38141-0.07926 0.43018-0.05982 0.38881 0.155-0.053 0.27512-0.48683 0.40362-1.443 0.42744-0.44212 0.01101-0.61813-0.03503-0.61813-0.16168zm15.616-0.2565c0-0.10864 0.30029-0.26978 0.74827-0.40154 0.41154-0.12104 0.99871-0.33402 1.3048-0.47328 0.65245-0.29683 1.0701-0.32572 1.0701-0.07403 0 0.17467-1.1108 0.73176-1.4592 0.73176-0.0961 0-0.29016 0.07731-0.43134 0.1718-0.36632 0.24518-1.2327 0.27701-1.2327 0.04529zm-10.801-0.53474c0-0.22833 0.0764-0.27693 0.61813-0.39312 0.36432-0.07814 0.42294-0.05531 0.42294 0.16472 0 0.15488-0.11526 0.28632-0.2928 0.3339-0.48459 0.12987-0.74827 0.09269-0.74827-0.1055zm-10.061-0.12162c-0.137-0.35702 1.1345-0.64043 1.5871-0.35377 0.12721 0.08057-0.031 0.1752-0.54056 0.32334-0.87704 0.25496-0.95945 0.25736-1.0465 0.03043zm13.716-0.6112c0.17101-0.14832 0.47399-0.30228 0.67328-0.34214s0.39387-0.12347 0.43239-0.1858c0.0385-0.06233 0.24226-0.11332 0.45276-0.11332 0.42523 0 0.53241 0.30593 0.15498 0.44237-0.12524 0.04528-0.37413 0.16836-0.55306 0.27352s-0.58317 0.19206-0.89831 0.19312l-0.57297 0.0019 0.31093-0.26967zm-10.096-0.09233c0.0716-0.06816 0.41113-0.21697 0.75456-0.33067 0.552-0.18276 0.6331-0.18412 0.69927-0.01169 0.10087 0.26287 0.0896 0.26812-0.80316 0.37384-0.49576 0.0587-0.73329 0.04721-0.65067-0.03148zm13.859-0.52833c0-0.16548 0.15572-0.28633 0.50309-0.3904 1.1658-0.34927 1.5055 0.02719 0.3631 0.40233-0.858 0.279-0.866 0.279-0.866-0.015zm-10.517-0.381c0.0562-0.29652 1.017-0.41151 1.017-0.12172 0 0.1051-0.17786 0.22236-0.40667 0.26812-0.59649 0.1193-0.65788 0.10457-0.61032-0.1464zm12.561-0.03396c0.039-0.14905 0.21577-0.29289 0.41075-0.33419 0.18827-0.03988 0.65496-0.18563 1.0371-0.32391 0.81468-0.2948 1.1921-0.31928 1.1921-0.07731 0 0.1052-0.50211 0.3377-1.2688 0.58752-0.69785 0.22738-1.3072 0.41256-1.3542 0.4115-0.047-0.001-0.0547-0.11968-0.017-0.26361zm-10.874-0.1948c0.0817-0.41561 2.0625-0.81797 2.0625-0.41897 0 0.09518-0.31822 0.23778-0.74827 0.33532-0.41154 0.09334-0.88582 0.2023-1.0539 0.24213-0.24255 0.05747-0.29631 0.02474-0.26027-0.15848zm2.6052-0.54236c0.0313-0.16526 0.18312-0.25012 0.49941-0.27923 0.24991-0.02299 0.51002-0.09619 0.57802-0.16267 0.18746-0.18326 0.72224-0.14449 0.72224 0.05235 0 0.2367-0.46176 0.44315-1.2151 0.54328-0.56263 0.07478-0.62475 0.05844-0.58453-0.15374zm4.9229-1.0059c0-0.24126 0.61158-0.36939 1.4969-0.3136 0.55822 0.03518 0.61346 0.06159 0.39006 0.18653-0.14315 0.08005-0.62627 0.18544-1.0736 0.23419-0.67654 0.07374-0.81333 0.05572-0.81333-0.10712zm39.079 21.851c0.56208-0.31846 1.2218-0.6165 1.466-0.66232 0.32415-0.06081 0.80988-0.42817 1.7989-1.3606 0.74518-0.70249 1.5803-1.4209 1.8559-1.5964 0.87995-0.56044 1.7072-1.3781 1.9943-1.9712 0.26153-0.54023 0.26602-0.60055 0.0726-0.97453-0.2368-0.45793-0.28169-0.46756-0.9451-0.20297-1.219 0.48617-5.0953 1.4039-6.2816 1.4871-1.1639 0.08167-1.9363 0.31837-2.1459 0.65758-0.0442 0.07149 0.11314 0.37062 0.3496 0.66476 0.40153 0.49945 0.43257 0.60916 0.46968 1.6603 0.028 0.79464-0.0331 1.4065-0.2078 2.0812l-0.24753 0.95574 0.39944-0.07989c0.2197-0.04394 0.85934-0.34044 1.4214-0.6589zm-33.472-0.36321c0.92355-0.62238 1.3022-1.9246 0.76004-2.6138-0.34377-0.43705-0.45477-0.43137-0.61613 0.0315-0.0718 0.20591-0.45803 0.89061-0.85832 1.5215-0.76336 1.2032-0.7704 1.3512-0.0644 1.3554 0.18624 0.001 0.53671-0.1315 0.77881-0.29466zm2.3055-0.32018c0.0395-0.26184-0.27385-0.68451-0.50744-0.68451-0.23417 0-0.40382 0.68543-0.25209 1.0185 0.13069 0.28682 0.16301 0.29575 0.43068 0.11891 0.15916-0.10515 0.30715-0.30894 0.32885-0.45285zm26.313-0.88077 0.30664-0.3264-0.28395-0.38406c-0.15618-0.21124-0.28395-0.41368-0.28395-0.44987s0.18762-0.2795 0.41693-0.54067c0.40064-0.45629 0.40729-0.48192 0.17033-0.65519-0.3328-0.24335-0.58057-0.22786-1.4282 0.08929l-0.72062 0.26962v0.5848c0 1.3773 1.0741 2.2096 1.8229 1.4125zm2.0202-0.38269c0.46873-0.19585 0.58899-0.53262 0.29513-0.82648-0.19184-0.19184-0.68586-0.2022-1.0236-0.02145-0.32916 0.17616-0.34655 0.86249-0.0239 0.94678 0.12525 0.03273 0.24425 0.06631 0.26445 0.07461s0.23979-0.06976 0.488-0.17346zm-29.619-3.8632c-0.17572-0.32833-0.43259-0.24951-0.49094 0.15063-0.0273 0.18747 0.0474 0.37539 0.19131 0.48056 0.20549 0.15026 0.24932 0.13726 0.33708-0.1 0.0565-0.15275 0.04-0.38642-0.0375-0.5312zm-1.7066 0.25535c-0.05-0.50626-0.23284-0.58259-0.62838-0.2623-0.40561 0.32844-0.26878 0.67521 0.26643 0.67521 0.37417 0 0.39983-0.02928 0.36195-0.41291zm42.797-13.779c0.66923-0.25102 1.3583-0.81576 1.874-1.536 0.58134-0.81182 0.57889-1.0188-0.005-0.43472-0.23969 0.23969-0.87807 0.58284-1.6167 0.86904-1.2154 0.47092-1.9728 1.0086-1.6196 1.1497 0.29784 0.11903 0.98652 0.09483 1.3674-0.04805zm-0.0282-1.7783c0.44919-0.14328 0.85627-0.41599 1.3339-0.89358 0.59627-0.59627 0.68736-0.75507 0.68736-1.1982 0-0.32749 0.11441-0.67944 0.31872-0.98051 0.31789-0.46843 0.37654-0.63567 0.34737-0.99042-0.009-0.10312-0.63378 0.46626-1.3896 1.2653-0.95284 1.0074-1.6034 1.575-2.1219 1.8513-0.63743 0.33975-1.1888 0.91249-1.1888 1.2349 0 0.13141 1.2642-0.04994 2.0129-0.28877zm-63.274-1.0315c0.53417-0.27173 0.90091-1.0914 0.85368-1.9079l-0.039-0.67557-1.2117 0.02522c-1.2328 0.02566-1.8437 0.22311-2.1364 0.69051-0.19582 0.31269 0.64834 1.7049 1.2026 1.9834 0.45833 0.23029 0.69046 0.21012 1.3308-0.11564zm4.2169-1.3619c0.49065-0.15121 1.1094-0.38545 1.3749-0.52053 0.26555-0.13508 0.73402-0.24842 1.0411-0.25185 0.30704-0.0034 1.1731-0.17011 1.9246-0.37039 2.2821-0.60819 4.058-1.0328 4.88-1.1669 0.42944-0.07004 1.2142-0.28281 1.7439-0.47283 0.64731-0.23219 1.3514-0.37006 2.1472-0.42044 0.89598-0.05672 1.4532-0.17823 2.2902-0.49945 1.319-0.50618 2.6222-0.78076 4.2764-0.901 0.67005-0.0487 1.4551-0.1721 1.7445-0.27422 0.28942-0.10211 1.3947-0.33031 2.4561-0.5071s2.1428-0.41041 2.4031-0.51916c0.26028-0.10875 0.81116-0.19772 1.2242-0.19772 0.81393 0 0.92887-0.09748 0.81532-0.69145-0.0632-0.33065-0.10703-0.34962-0.80795-0.34962-0.40761 0-1.1767 0.11246-1.7091 0.2499-2.3086 0.59602-5.6102 0.85416-12.615 0.9863-1.8251 0.03443-3.6698 0.1293-4.0992 0.21083-0.42944 0.08152-2.1277 0.16524-3.7738 0.18602-1.6462 0.02079-3.2859 0.10457-3.6437 0.18618-0.39241 0.08949-1.1672 0.11929-1.952 0.07506-0.71573-0.04033-1.5063-0.02579-1.7568 0.03232-0.44593 0.10344-0.45453 0.11775-0.41069 0.68364 0.0246 0.3179 0.19126 0.92622 0.37028 1.3518 0.27796 0.6608 0.3129 0.89161 0.23919 1.5799-0.0506 0.47192-0.0266 1.0278 0.0577 1.3408 0.12597 0.46779 0.19052 0.53472 0.51567 0.53472 0.20442 0 0.77311-0.12372 1.2638-0.27493zm31.66-0.636c0.36257 0 0.65922-0.05139 0.65922-0.1142 0-0.15919-0.33334-0.42001-0.42265-0.3307-0.0403 0.04035-0.40406 0.09175-0.80825 0.11421-0.83363 0.04633-0.95638 0.11225-0.72598 0.38988 0.11832 0.14256 0.22691 0.16106 0.4004 0.06821 0.13092-0.07007 0.53469-0.1274 0.89726-0.1274zm0.20794-1.0995c0.30698-0.12827 0.45128-0.2739 0.45128-0.45546 0-0.21922-0.0829-0.26691-0.46402-0.26691-0.25521 0-0.57728 0.06062-0.71573 0.13471-0.31387 0.16798-0.3292 0.60675-0.0239 0.68651 0.12526 0.03273 0.24425 0.06631 0.26445 0.07461s0.23979-0.06976 0.48799-0.17346zm8.446-6.9551c0.0396-0.06408-0.0136-0.14936-0.11829-0.18952-0.20335-0.07804-0.37702 0.08423-0.23845 0.2228 0.11764 0.11764 0.27239 0.1032 0.35674-0.03328z"/>
 </g>
</svg>
