<?xml version="1.0" encoding="UTF-8" standalone="no"?>
<!-- Created with Inkscape (http://www.inkscape.org/) -->
<svg id="svg2" xmlns:rdf="http://www.w3.org/1999/02/22-rdf-syntax-ns#" xmlns="http://www.w3.org/2000/svg" height="54" width="99" version="1.1" xmlns:cc="http://creativecommons.org/ns#" xmlns:dc="http://purl.org/dc/elements/1.1/">
 <metadata id="metadata7">
  <rdf:RDF>
   <cc:Work rdf:about="">
    <dc:format>image/svg+xml</dc:format>
    <dc:type rdf:resource="http://purl.org/dc/dcmitype/StillImage"/>
    <dc:title/>
   </cc:Work>
  </rdf:RDF>
 </metadata>
 <g id="g8358">
  <rect id="rect2990" opacity="0" height="54" width="99" y="0" x="0"/>
  <path id="path6873" d="m16.623 49.457c-1.0204-0.11264-2.1021-0.60467-2.6428-1.2022-0.22949-0.25359-0.72277-0.52817-1.0962-0.61018-0.86392-0.18975-1.3707-0.96311-1.4186-2.1648-0.0296-0.74191 0.0969-1.0847 0.59058-1.6 0.75471-0.78775 0.79934-1.4471 0.13825-2.0426-0.97959-0.88242-1.0055-2.1508-0.0555-2.7119 0.24509-0.14476 0.31371-1.0854 0.31371-4.3007v-4.1154l-0.69508-0.5139c-1.0724-0.79286-0.86037-1.9991 0.46734-2.6586 0.85301-0.42373 0.85815-1.2066 0.0131-1.996-1.0365-0.96822-0.9863-2.0254 0.15674-3.3016 1.5244-1.7021 2.3654-2.4899 3.0157-2.825 2.8137-1.4498 10.114-2.2277 12.682-1.3513 1.3534 0.46185 1.5771 1.0789 0.82978 2.2893-0.51707 0.83747-1.4725 1.3428-3.1467 1.6643-0.63716 0.12235-1.7638 0.35898-2.5037 0.52585-1.1567 0.26089-1.3745 0.256-1.5543-0.03484-0.11497-0.18603-0.13247-0.41482-0.0388-0.50842 0.0936-0.0936 1.3286-0.39077 2.7444-0.66039 2.2768-0.43358 4.2732-1.1954 3.9581-1.5105-0.0611-0.0611-0.93304 0.15749-1.9376 0.48576s-2.1393 0.6378-2.5216 0.68785c-0.38229 0.05004-1.1917 0.15645-1.7987 0.23646-1.2513 0.16496-2.0243-0.0056-2.0243-0.44678 0-0.19297 0.47536-0.35485 1.3322-0.45367 3.3661-0.3882 6.4011-1.1916 5.8314-1.5437-0.92192-0.56978-10.017 0.47217-11.359 1.3012-0.38584 0.23846 0.41945 0.55823 1.0673 0.42382 0.25487-0.05288 0.61979 0.0092 0.81094 0.13786 0.60564 0.40778-0.20177 0.71978-1.6745 0.64706-1.4291-0.07057-1.8542 0.2969-0.6325 0.54677 0.98232 0.2009 1.2597 0.51297 0.79724 0.8968-0.31309 0.25984-0.53564 0.22777-1.428-0.20578-0.58142-0.28247-1.1095-0.46118-1.1736-0.39713-0.30422 0.30422 0.22404 0.78962 1.0223 0.93938 0.81793 0.15344 1.223 0.44177 1.2319 0.87685 0.007 0.34576-1.426 0.16308-2.3272-0.29666-0.80253-0.40942-0.93979-0.42438-1.0584-0.11533-0.24647 0.64229 0.12256 1.4473 0.77961 1.7008 0.35206 0.13579 1.1093 0.31815 1.6827 0.40524 0.97648 0.14831 1.3782 0.40423 1.3866 0.8833 0.002 0.11136-0.56846 0.15503-1.2676 0.09705-1.1342-0.09405-1.2869-0.05345-1.4176 0.37678-0.0806 0.2652-0.2973 0.6543-0.48168 0.86465-0.49536 0.56515-0.0967 0.71075 2.385 0.87109 2.0964 0.13544 2.8538 0.41244 2.5355 0.92736-0.0856 0.13853-0.67084 0.25188-1.3005 0.25188-0.62964 0-1.1448 0.09247-1.1448 0.20549 0 0.27598 6.9887 0.07738 8.4569-0.24031 2.0858-0.45134 5.2685-1.6412 4.9392-1.8465-0.22542-0.14053-0.0173-0.45537 0.79521-1.2029 0.60531-0.55693 1.1006-1.1334 1.1006-1.2811 0-0.40481 0.85655-0.32238 1.0178 0.09795 0.26508 0.69079 0.13013 1.6032-0.32275 2.1822-0.68705 0.87835-0.58586 1.1617 0.40546 1.1354 0.47787-0.0127 1.1295-0.09746 1.4481-0.18836 0.37944-0.10826 0.93495-0.0095 1.6104 0.2862 0.90809 0.39756 1.3783 0.43534 3.9388 0.31646 2.5837-0.11996 10.026-1.0826 11.166-1.4442 0.27773-0.08815 0.48427-0.0036 0.57622 0.23612 0.18847 0.49112 0.0687 0.58634-1.0558 0.83898-1.8073 0.40607-9.6401 1.3421-11.929 1.4256l-1.6019 0.05839-0.0297 1.9115c-0.0164 1.0513 0.0268 1.909 0.0959 1.906s0.54274-0.1088 1.0525-0.23502c2.4757-0.61304 6.3928-1.2236 9.6153-1.4988 0.82831-0.07074 1.8791-0.18364 2.3352-0.2509 0.54096-0.07978 0.91888-0.01418 1.0873 0.18876 0.50525 0.60879-0.0677 0.8334-2.4965 0.97855-1.3376 0.07994-2.5884 0.18845-2.7795 0.24114-0.19115 0.05269-1.3814 0.20754-2.645 0.34412-2.8461 0.30762-5.8682 1.0373-7.3238 1.7684-0.60724 0.305-1.3186 0.55454-1.5808 0.55454-0.87629 0-1.6976 0.51486-1.5742 0.98681 0.18022 0.68917-0.2853 1.7058-0.91179 1.9913-0.97495 0.44421-0.95156 0.92459 0.0901 1.8523 1.0108 0.90018 1.1605 1.3286 0.88036 2.5196-0.17209 0.73177-1.3018 1.9128-1.8391 1.9228-0.14952 0.0028-0.42824 0.34161-0.61938 0.75301-0.74931 1.6127-4.22 2.5597-11.121 3.0345-0.57344 0.03946-1.4076 0.03146-1.8536-0.01777zm6.6033-1.368c1.1469-0.18989 2.6066-0.51809 3.2437-0.72933 0.63716-0.21124 1.228-0.38836 1.3129-0.39358 0.085-0.0053 0.2294-0.08443 0.32097-0.17601 0.0916-0.09158-0.0822-0.11216-0.38616-0.04575s-1.4389 0.28072-2.5221 0.47623-2.1258 0.41751-2.317 0.49333c-0.37311 0.14801-1.1306 0.20674-4.7497 0.36825-2.6869 0.11991-2.7372 0.13-1.9694 0.39447 0.74325 0.25602 4.3861 0.0562 7.0667-0.38761zm-2.3756-1.1459c3.9794-0.42041 7.9164-1.3542 9.3571-2.2193 0.85595-0.51397 1.4511-1.7071 1.051-2.1072-0.19158-0.19158-0.57949-0.10448-1.4815 0.33266-0.67211 0.32571-1.5348 0.70386-1.9171 0.84033-3.8231 1.3648-11.733 1.9747-14.27 1.1004-0.975-0.33592-1.3716-0.14284-1.3656 0.6648 0.006 0.79822 0.35223 1.0952 1.6486 1.4141 1.545 0.38005 3.193 0.37392 6.9777-0.02592zm1.4488-2.8936c2.4283-0.35658 4.7928-0.93498 6.3176-1.5454 1.385-0.55444 1.4691-0.63027 1.3292-1.1976-0.20245-0.8204-0.46886-1.0492-0.96994-0.8331-0.23158 0.09988-0.5468 0.20809-0.70051 0.24047s-0.77929 0.22078-1.3902 0.41867c-2.6821 0.86886-10.14 1.5822-12.184 1.1653-0.82361-0.16801-1.3228 0.24387-1.3228 1.0915 0 0.70255 0.19019 0.80307 1.8536 0.97968 1.1255 0.1195 5.3901-0.07332 7.0667-0.31952zm-0.11584-2.9691c0.8283-0.12945 1.8951-0.29298 2.3706-0.36341 2.3652-0.35034 4.8171-1.1642 5.961-1.9788 1.1556-0.82286 0.59677-0.92376-0.96941-0.17504-2.6908 1.2864-6.9754 2.139-11.188 2.2264-2.243 0.04653-2.9406-0.02779-4.2022-0.44763-1.0509-0.34973-1.5866-0.42958-1.7546-0.26156-0.39368 0.39368-0.0253 0.9338 0.79347 1.1635 0.94444 0.26492 6.9464 0.15581 8.9891-0.16342zm2.2011-1.8476c2.9912-0.69184 5.0185-1.3964 5.6186-1.9525 0.49946-0.46286 0.52131-0.64114 0.52131-4.252 0-3.9563-0.0852-4.282-1.0068-3.847-2.7477 1.297-10.625 2.3877-14.492 2.0066-0.91405-0.09007-1.6511-0.07162-1.6568 0.04146-0.11988 2.3846-0.0908 7.5705 0.0437 7.7884 0.58393 0.94632 7.2457 1.0768 10.972 0.21496zm8.932-4.5292c0.26264-0.55875 0.50907-1.3116 0.5476-1.6731 0.0901-0.84512-0.27286-2.179-0.73415-2.6979-0.41944-0.47186-1.2853-0.53346-1.628-0.11585-0.2223 0.27085-0.32604 4.948-0.1182 5.329 0.0521 0.09557 0.40092 0.17377 0.77505 0.17377 0.57647 0 0.75306-0.15495 1.1578-1.0159zm1.1467 0.30715c0-0.13495 0.0956-0.18628 0.21248-0.11405 0.38676 0.23903 0.99913-2.1118 0.82766-3.1774-0.18645-1.1587-0.68289-2.0238-1.1613-2.0238-0.37631 0-0.4695 0.58905-0.12672 0.80091 0.42813 0.2646 0.54941 2.6293 0.19073 3.7188-0.18847 0.57251-0.25271 1.0409-0.14275 1.0409 0.10997 0 0.19993-0.11042 0.19993-0.24537zm-18.999-5.0423c0-0.11732-0.53935-0.28485-1.1986-0.37229-0.6592-0.08745-1.3827-0.25756-1.6078-0.37802-0.25809-0.13813-0.45976-0.13728-0.54602 0.0023-0.0752 0.12172 0.13641 0.36446 0.47031 0.53942 0.70127 0.3674 2.8821 0.52525 2.8821 0.20858zm15.092-2.3462c0.54307-0.44815 0.54331-0.45046 0.0333-0.3225-0.28255 0.07088-0.63417 0.27401-0.78138 0.45138-0.4024 0.48487 0.11171 0.3963 0.74813-0.12888zm18.889 17.906c-0.29917-0.29917-0.14934-1.3051 0.30352-2.0379 0.30733-0.49726 0.538-1.4971 0.70121-3.0394 0.13377-1.2641 0.34046-3.0282 0.4593-3.9202 0.11885-0.89202 0.28139-2.4038 0.36121-3.3596 0.0798-0.95574 0.18493-2.1548 0.23359-2.6645 0.23099-2.4197 0.16964-3.5977-0.20917-4.0163-0.43917-0.48528-0.4858-1.0338-0.14242-1.6755 0.21658-0.40468 0.50834-0.44816 3.0076-0.44816 2.7465 0 2.7689 0.0044 2.9107 0.56954 0.098 0.39055-0.0195 0.79772-0.37409 1.2956-0.38144 0.53568-0.56879 1.2522-0.71441 2.7321-0.10856 1.1033-0.25362 2.5273-0.32237 3.1645-0.93832 8.6971-1.0645 10.379-0.79855 10.645 0.35634 0.35634 2.7602 0.37124 3.5953 0.02229 0.68404-0.28581 2.1871-2.1013 2.1871-2.6418 0-0.31526 0.77358-0.53942 1.2417-0.3598 0.53198 0.20414 0.47455 1.0566-0.21711 3.2226-0.91004 2.8499-0.448 2.6661-6.6984 2.6661-2.9537 0-5.4398-0.06951-5.5248-0.15446zm3.8-3.263c0.009-0.35044 0.0508-0.94995 0.0939-1.3322 0.11635-1.0338 0.3851-3.9934 0.49443-5.4448 0.0528-0.70088 0.22899-2.8792 0.39154-4.8407 0.24354-2.9386 0.24193-3.62-0.009-3.871-0.4153-0.41531-0.98598-0.1534-0.98801 0.45343-0.005 1.6412-0.98866 12.924-1.2899 14.804-0.13571 0.8465-0.12089 0.86886 0.57615 0.86886 0.62223 0 0.71748-0.08301 0.73108-0.63716zm-15.291-0.9001c-0.94855-1.2059-0.49315-3.2424 0.96764-4.3271 1.0044-0.74578 1.6787-0.88169 2.5523-0.51437 0.61907 0.2603 0.8057 0.25265 1.2708-0.0521 0.82258-0.53898 1.0458-0.1195 0.65468 1.2303-0.53149 1.8341-0.53484 2.3602-0.0175 2.7436 0.41048 0.30417 0.42371 0.3812 0.11585 0.67464-0.19115 0.1822-0.68845 0.44452-1.1051 0.58294-0.65034 0.21604-0.79523 0.19138-1.0236-0.17423-0.25782-0.41284-0.28788-0.41254-0.98013 0.0096-1.0157 0.61939-1.8587 0.5594-2.435-0.17326zm2.5709-0.83761c0.4253-0.34281 1.0052-2.3449 0.7832-2.7041-0.46368-0.75026-1.367 0.15714-1.639 1.6464-0.22562 1.2352 0.1143 1.6553 0.8558 1.0577zm4.3967 1.028c-0.1197-0.23534-0.0617-1.0718 0.14578-2.1024 0.31472-1.5633 0.31184-1.7299-0.0332-1.923-0.59817-0.33475-0.44164-0.87902 0.34832-1.2112 0.43512-0.18295 0.8485-0.59633 1.0314-1.0314 0.23336-0.55497 0.45046-0.72613 0.92109-0.72613 0.56518 0 0.60813 0.06544 0.52278 0.79652-0.0723 0.61895-0.00046 0.82072 0.3222 0.90509 0.56516 0.14779 0.53015 1.011-0.0484 1.1947-0.59721 0.18955-0.87735 0.72939-0.9689 1.8671-0.068 0.84519-0.026 0.91861 0.56368 0.98646 1.478 0.17006 0.29492 1.1934-1.7374 1.5029-0.6717 0.10229-0.91358 0.04368-1.0673-0.25859zm18.507-0.73305c-0.69057-0.73927-0.83723-1.4086-0.71192-3.2491 0.084-1.234 1.1865-3.0325 2.2866-3.7302 1.2498-0.7926 2.0721-0.84861 2.8998-0.19753l0.60322 0.47449 0.92342-0.53145c1.3904-0.80023 1.5666-0.4506 0.96719 1.9197-0.65144 2.5761-0.63542 3.3465 0.0793 3.8148 0.79226 0.5191 0.52654 0.96335-0.97282 1.6264-1.6419 0.72613-1.8218 0.7105-1.9987-0.1736l-0.14722-0.73612-0.66681 0.63885c-0.41818 0.40064-1.0202 0.68625-1.6145 0.76596-0.84775 0.11371-1.0214 0.04811-1.6477-0.62232zm3.4614-1.9168c0.65221-1.4996 1.0296-3.6045 0.71443-3.9843-0.34195-0.41203-0.99907-0.2215-1.3889 0.40271-0.66393 1.0631-1.1872 4.0085-0.78389 4.4119 0.4449 0.4449 1.0548 0.0977 1.4584-0.83024zm6.0438 2.0388c-0.53596-0.5705-0.60025-1.5417-0.24547-3.7083 0.20225-1.2351 0.17816-1.4308-0.22961-1.8648-0.40251-0.42846-0.41752-0.53925-0.12881-0.95143 0.38524-0.55 2.6788-1.387 3.2256-1.1772 0.48604 0.18651 0.47516 0.70752-0.0711 3.4039-0.44407 2.1922-0.37638 2.7378 0.30712 2.4755 0.56501-0.21681 1.0004-1.3019 1.3186-3.2864 0.35162-2.1929 0.67415-2.6658 1.815-2.6609 1.2658 0.0054 1.5166 0.2506 1.2119 1.1853-0.36634 1.1239-0.71039 3.804-0.56146 4.3735 0.18727 0.71614 0.99153 0.49736 1.6227-0.44142 0.64974-0.96646 0.66959-1.7766 0.0659-2.6882-0.81782-1.2349-0.50695-2.4328 0.63131-2.4328 0.67919 0 0.99056 0.75789 0.99056 2.4111 0 3.2662-1.7598 5.6983-4.1231 5.6983-0.96372 0-1.4895-0.40183-1.783-1.3626-0.16534-0.5413-0.18647-0.53248-1.128 0.47126-1.1283 1.2029-2.1305 1.3936-2.9181 0.55519zm-16.542-8.3456c-0.21132-0.55068 0.48637-0.74075 2.9396-0.80082 1.2536-0.0307 2.5569-0.08781 2.8962-0.12692 0.33932-0.0391 1.5553-0.1459 2.7022-0.23732s2.2938-0.21046 2.5486-0.26454c0.25486-0.05409 1.3203-0.19996 2.3677-0.32417s2.6113-0.37272 3.4754-0.55223c0.86411-0.17952 1.9746-0.3887 2.4677-0.46486 1.4992-0.23153 6.0141-1.2768 6.678-1.5461 1.0906-0.44238 1.1831-2.9581 0.1109-3.0149-2.26-0.11976-9.3181 0.10478-11.799 0.37538-5.408 0.58977-7.5949 0.86505-8.2817 1.0424-0.44601 0.1152-1.3322 0.27112-1.9694 0.34647-0.63716 0.07536-1.6519 0.25576-2.2549 0.4009-1.2257 0.29501-1.4841 0.19226-1.1388-0.45291 0.17444-0.32595 0.70239-0.51541 2.0461-0.73427 3.3938-0.55275 5.98-0.95245 6.9083-1.0677 0.50973-0.06327 1.1874-0.1634 1.506-0.22251 1.3527-0.251 8.0623-0.64308 11.763-0.68737 2.5588-0.03062 4.0935-0.14051 4.2578-0.30486 0.16077-0.16077 0.44839-0.18421 0.76821-0.06261 0.28551 0.10855 0.65616 0.10264 0.83944-0.01337 0.18052-0.11426 0.65776-0.20934 1.0606-0.21129 0.64094-0.0031 0.79586 0.12768 1.2414 1.048 0.67523 1.3948 0.4869 2.9223-0.47058 3.8168-0.59493 0.55575-0.81725 0.61091-2.3544 0.58418-1.6296-0.02834-2.1379 0.06137-5.9506 1.0501-0.93749 0.2431-2.1886 0.50676-2.7803 0.58588-0.5917 0.07913-1.1512 0.18922-1.2433 0.24465s-0.5613 0.14992-1.0426 0.21c-0.48132 0.06007-1.4486 0.20668-2.1494 0.3258-0.70088 0.11911-1.6914 0.2735-2.2011 0.34306-0.50973 0.06957-1.2917 0.17599-1.7377 0.23649-0.44602 0.0605-1.6972 0.17762-2.7803 0.26027-1.0832 0.08265-2.2822 0.18534-2.6645 0.2282s-1.8042 0.13634-3.1597 0.20773c-2.0589 0.10844-2.4866 0.07262-2.5979-0.21751zm28.07-4.5712c0.38926-0.38926 0.34732-2.3221-0.0622-2.8635-0.40527-0.53581-0.37832-0.62751-0.42956 1.4618-0.0423 1.7252 0.0123 1.881 0.4917 1.4017zm2.4177-0.50966c0.28242-0.42297 0.19823-2.1072-0.12762-2.5528-0.16771-0.22936-0.50657-0.37782-0.75301-0.3299-0.39018 0.07587-0.44989 0.29616-0.46213 1.705-0.008 0.88982 0.0246 1.6963 0.072 1.7923 0.10043 0.20358 1.0221-0.24215 1.2708-0.61455zm-67.43 1.6848c-2.1733-1.0757-3.2156-3.9912-2.2517-6.2981 1.1534-2.7604 4.1286-1.5962 4.0905 1.6005-0.0151 1.261-0.40617 2.3187-1.0572 2.859-0.19815 0.16445-0.30313 0.39145-0.2333 0.50444 0.16786 0.2716 2.4816 0.26412 3.1587-0.01022 0.29273-0.11861 0.80164-0.27265 1.1309-0.34231 0.32929-0.06966 1.0044-0.44902 1.5002-0.84304 1.8725-1.4881 3.0171-3.6078 6.0412-11.188 2.1174-5.3075 4.0143-9.305 4.8232-10.164 0.6928-0.73573 1.9441-1.0395 2.6735-0.64913 1.2138 0.64959 1.8482 3.4272 3.8436 16.827 0.0592 0.39777 0.314 0.9611 0.56616 1.2518 0.51971 0.59923 0.59944 1.4458 0.16886 1.793-0.43168 0.34815-5.849 0.54268-6.1702 0.22156-0.44702-0.44702-0.30723-1.515 0.23639-1.8059 0.46276-0.24766 0.48632-0.38783 0.35388-2.1053-0.078-1.012-0.1991-1.9325-0.26903-2.0457-0.0699-0.11314-1.1669-0.2094-2.4377-0.2139-2.666-0.0094-2.618-0.04406-3.4663 2.4981-0.81518 2.4428-1.4166 3.5112-2.822 5.0136-2.785 2.9772-7.2766 4.385-9.8796 3.0965zm22.427-6.7769c0-0.17552-0.15316-1.0357-0.34037-1.9115-0.30139-1.4099-1.7056-9.4886-2.0955-12.055-0.18467-1.2158-0.57708-1.7752-1.1036-1.5731-0.48678 0.18679-0.49805 0.62855-0.0635 2.4888 0.45648 1.9542 0.92856 4.7079 1.5175 8.852 0.5876 4.1345 0.71504 4.518 1.5012 4.518 0.3417 0 0.5842-0.13246 0.5842-0.31912zm-4.266-6.4855c0.067-0.17444-0.0402-1.2431-0.23822-2.3749-0.19796-1.1317-0.36026-2.4574-0.36067-2.9459-0.002-1.5343-0.50533-0.8595-1.7908 2.3974-0.6721 1.7029-1.222 3.1287-1.222 3.1684 0 0.03967 0.78524 0.07212 1.745 0.07212 1.2631 0 1.7786-0.08759 1.8667-0.31716zm-15.596 10.111c-0.19938-0.51961 0.19313-0.73001 1.7952-0.96228 0.82555-0.11969 1.6729-0.28613 1.883-0.36988 0.21012-0.08375 0.45705-0.0309 0.54873 0.11745 0.31646 0.51205-0.55183 0.9833-2.324 1.2613-1.4982 0.23503-1.7977 0.22769-1.903-0.04659zm0.0604-2.1351c-0.26965-0.43629 0.068-0.63672 1.5492-0.91964 0.80018-0.15284 2.055-0.4451 2.7886-0.64947 0.73356-0.20437 1.4076-0.29774 1.4978-0.20749 0.30657 0.30656-0.31795 0.93251-1.1129 1.1155-0.43552 0.10024-1.1046 0.28039-1.4869 0.40034-1.1929 0.37427-3.072 0.52571-3.2358 0.26077zm58.647-0.89996c-0.77111-0.85206-0.34637-2.0505 0.63906-1.8031 0.70686 0.17741 1.5261-0.18628 1.5261-0.67748 0-0.18666 0.10427-0.33939 0.2317-0.33939s0.23169-0.11542 0.23169-0.25648-0.16394-0.19357-0.36432-0.11668c-0.20039 0.07689-0.56422 0.03282-0.80854-0.09793-0.81564-0.43652-1.1441-1.4681-1.1441-3.5934 0-1.6469-0.0817-2.1061-0.46022-2.5874-0.48438-0.61579-0.52027-0.5843-0.80413 0.7055-0.19433 0.88302-1.1226 1.6994-2.481 2.1818-0.84919 0.3016-1.1203 0.51369-1.1203 0.8764 0 1.1386 1.0577 1.3431 2.2485 0.43491 0.79594-0.6071 1.4586-0.61336 1.4586-0.01379 0 0.45174-1.7113 1.9591-2.4285 2.1391-0.99719 0.25028-2.1357-0.10158-2.7708-0.85629-0.76262-0.90632-0.91418-1.5522-0.7609-3.2426 0.31786-3.5054 3.4798-5.4976 5.5622-3.5046 0.58955 0.56426 0.68497 0.59103 0.87823 0.24636 0.25606-0.45666 2.1591-1.2338 2.5022-1.0218 0.14001 0.08653 0.23645 1.2172 0.2346 2.7507-0.003 2.6412 0.27395 4.0317 0.74544 3.7403 0.41521-0.25661 1.1242-2.0109 1.1297-2.7953 0.003-0.39859-0.15062-1.0974-0.34093-1.5529-0.57136-1.3674 0.3261-2.8231 1.2011-1.9481 0.78129 0.78129 0.19311 4.8448-1.0555 7.2924-0.27203 0.53322-0.4946 1.0849-0.4946 1.2259 0 0.28527-0.93849 1.6219-1.8258 2.6003-0.67295 0.74207-1.193 0.80626-1.7295 0.21345zm-3.0949-8.44c0.55402-0.64187 0.4265-1.4257-0.24749-1.5213-0.41452-0.05883-0.59885 0.09935-0.86886 0.74557-0.50284 1.2035-0.45342 1.5936 0.1786 1.4098 0.28672-0.08338 0.70872-0.36871 0.93775-0.63407zm-33.607 5.9277c-0.36123-0.14287-0.3786-1.9513-0.042-4.3714 0.23261-1.6724 0.21856-1.8074-0.23169-2.2269-0.68193-0.63532-0.59623-1.0702 0.31707-1.6091 0.55023-0.32464 0.89468-0.76472 1.1144-1.4237 0.35209-1.0563 0.83768-1.4852 1.4258-1.2595 0.32222 0.12364 0.36125 0.34694 0.23157 1.3246-0.14321 1.0795-0.1144 1.1868 0.35149 1.3086 0.72603 0.18986 0.57056 1.2458-0.24038 1.6326-0.5562 0.26529-0.62063 0.44482-0.76865 2.1417-0.1782 2.0428-0.10601 2.3328 0.53889 2.1641 0.53004-0.13861 0.80126 0.23499 0.60941 0.83945-0.20776 0.65458-2.6398 1.743-3.3059 1.4795zm4.5778-0.53583c-0.23791-0.44452-0.17517-1.3226 0.36852-5.1587 0.10501-0.74086 0.0726-1.1006-0.0991-1.1006-0.14027 0-0.37128-0.2172-0.51335-0.48266-0.20607-0.38506-0.17704-0.57248 0.1436-0.92678 0.22106-0.24426 0.51707-0.44412 0.65782-0.44412 0.34276 0 0.73534-0.65996 0.93598-1.5735 0.0903-0.41103 0.35324-0.84853 0.58436-0.97223 0.65719-0.35171 1.014 0.2699 0.87303 1.5208-0.10743 0.9531-0.065 1.0772 0.43346 1.2667 0.90121 0.34264 0.58319 1.6117-0.40388 1.6117-0.31646 0-0.43019 0.27924-0.54263 1.3322-0.0783 0.73274-0.19473 1.6711-0.25887 2.0853-0.10938 0.70631-0.0741 0.75301 0.56967 0.75301 1.2815 0 1.0493 1.1024-0.38341 1.8199-1.4524 0.7274-2.0816 0.79891-2.3652 0.26882zm5.5508-0.6521c-1.0149-1.0149-1.2794-1.9905-1.046-3.8582 0.27596-2.2087 2.0904-4.0556 3.6734-3.739 1.1284 0.22568 2.2008 1.1924 2.4822 2.2376 0.85844 3.188-0.79449 6.2399-3.3796 6.2399-0.67491 0-1.0308-0.18108-1.73-0.8803zm2.489-1.1301c0.30644-0.4677 0.40749-1.1088 0.41081-2.6066 0.005-1.9591-0.003-1.9863-0.56801-1.9863-0.8198 0-1.1579 0.84605-1.1619 2.9078-0.005 2.2694 0.50763 2.9236 1.3191 1.6851zm3.8663 0.90989c0.0727-0.47787 0.1839-1.363 0.24704-1.967 0.0632-0.60397 0.17889-1.3535 0.25721-1.6655 0.0892-0.3555-0.0153-0.83435-0.27991-1.2823-0.49802-0.84308-0.33408-1.2361 0.8527-2.0441 1.0204-0.69475 1.4773-0.58739 1.5694 0.36876l0.0734 0.76235 0.51395-0.76264c0.87668-1.3009 1.7975-1.1365 1.839 0.32829 0.048 1.6955-1.1686 3.0764-1.5769 1.7898-0.30767-0.96939-0.73622 0.01935-1.0187 2.3504-0.15607 1.2877-0.33984 2.4874-0.40837 2.666-0.0812 0.21165-0.48613 0.32472-1.1628 0.32472h-1.0382l0.13224-0.86886zm5.8003 0.56203c-0.068-0.17706 0.0277-1.4055 0.21267-2.73 0.32233-2.3086 0.31778-2.4281-0.11033-2.8933-0.5785-0.62869-0.4087-1.0147 0.78754-1.7903 1.1899-0.77157 1.6031-0.72116 1.9128 0.23336l0.23766 0.73242 0.35753-0.61939c0.19664-0.34066 0.63234-0.76481 0.96823-0.94254 0.53591-0.28357 0.68421-0.27499 1.2108 0.07004 0.94752 0.62084 1.0811 1.295 0.70634 3.5652-0.31895 1.9322-0.31401 2.033 0.11761 2.4016 0.69702 0.59514 0.54219 1.0481-0.58386 1.708-2.0798 1.2189-2.5263 0.52656-1.8748-2.9074 0.47359-2.4966 0.46746-2.5922-0.16053-2.503-0.64062 0.09102-1.0709 1.2657-1.2577 3.4336-0.0714 0.82831-0.26168 1.7185-0.42292 1.9782-0.35579 0.57298-1.9076 0.76771-2.1011 0.26365z"/>
 </g>
</svg>
