<?xml version="1.0" encoding="UTF-8" standalone="no"?>
<!-- Created with Inkscape (http://www.inkscape.org/) -->
<svg id="svg2" xmlns:rdf="http://www.w3.org/1999/02/22-rdf-syntax-ns#" xmlns="http://www.w3.org/2000/svg" height="54" width="99" version="1.1" xmlns:cc="http://creativecommons.org/ns#" xmlns:dc="http://purl.org/dc/elements/1.1/">
 <metadata id="metadata7">
  <rdf:RDF>
   <cc:Work rdf:about="">
    <dc:format>image/svg+xml</dc:format>
    <dc:type rdf:resource="http://purl.org/dc/dcmitype/StillImage"/>
    <dc:title/>
   </cc:Work>
  </rdf:RDF>
 </metadata>
 <g id="g3802">
  <rect id="rect2990" opacity="0" height="54" width="99" y="0" x="0"/>
  <path id="path9030" d="m46.975 49.182c-0.30794-0.30794-0.3181-0.34999-0.3169-1.3115 0.001-0.88993 0.2788-2.6606 0.62876-4.0095 0.0559-0.21558 0.13241-0.65555 0.16994-0.97772 0.12408-1.0651 0.37672-1.9232 0.96524-3.2786 0.1841-0.42396 0.19161-1.1646 0.015-1.4754-0.1289-0.22678-0.13179-0.22693-0.82162-0.04057-0.38075 0.10285-0.9239 0.28914-1.207 0.41396-0.28309 0.12482-0.55735 0.22695-0.60948 0.22695-0.39778 0-1.5417 0.75044-3.4022 2.2319-0.14644 0.11661-0.72912 0.45309-1.2948 0.74775-1.1106 0.57842-1.5153 0.65355-2.3262 0.43176-0.70926-0.19398-1.1708-0.50536-2.2265-1.502-2.3903-2.2567-2.5014-2.3369-3.6006-2.5991-0.65685-0.1567-0.89884-0.1659-1.6689-0.06343-0.76722 0.1021-1.0005 0.09354-1.5748-0.05778-0.76773-0.20227-1.1535-0.5362-1.1535-0.99857 0-0.75102 0.45101-1.2537 1.704-1.8992 1.1106-0.57216 1.9981-0.83437 3.3016-0.9754 0.61506-0.06655 1.3819-0.16916 1.704-0.22803 0.69075-0.12622 2.2329-0.60936 2.4218-0.75873 0.17911-0.14164 0.0666-0.29314-0.21812-0.29363-0.52678-0.000958-3.8083-1.1198-4.9195-1.6774-0.35146-0.17636-0.68769-0.33829-0.74717-0.35984-0.0595-0.02156-0.58188-0.32056-1.1609-0.66446-1.4935-0.88707-2.9562-2.3465-3.5643-3.5562-0.61977-1.2331-0.77124-1.968-0.65607-3.1831 0.10835-1.1431 0.4436-1.9624 1.2654-3.0922 0.53719-0.73856 1.9011-1.9694 2.6454-2.3873 0.22391-0.12571 0.53812-0.33876 0.69825-0.47344 0.16012-0.13468 0.51348-0.35591 0.78524-0.49163s0.5173-0.30722 0.54565-0.3811c0.0284-0.07388 0.1445-0.13434 0.2581-0.13434 0.17883 0 0.78307-0.27156 2.9425-1.3224 0.25078-0.12204 0.58333-0.32285 0.73901-0.44624l0.28305-0.22435-0.13606-1.2134c-0.0748-0.66739-0.20369-1.5729-0.28636-2.0122-0.20308-1.0792-0.18931-1.592 0.0606-2.2592 0.27829-0.74283 0.97175-1.5174 1.9506-2.1786 0.76018-0.51356 2.0783-1.1354 2.8175-1.3291 0.19037-0.0499 0.52585-0.1428 0.74552-0.20645 2.7032-0.78327 5.6435-0.88176 8.8131-0.2952 0.64435 0.11924 1.507 0.33781 1.9171 0.48571 0.41003 0.1479 1.005 0.36254 1.322 0.47697 0.67866 0.24492 1.6298 0.9494 2.2303 1.6519 0.48031 0.56191 0.75977 1.5056 0.76268 2.5754 0.001 0.38083 0.0354 0.54608 0.0942 0.45326 0.0565-0.08917 0.40549-0.17671 0.89593-0.22473 0.71953-0.07045 0.85146-0.12001 1.2638-0.47474 0.39196-0.33723 0.51463-0.38744 0.82574-0.33798 0.20096 0.03195 0.42803 0.12074 0.5046 0.19731 0.25083 0.25083 0.3462 1.1395 0.22586 2.1045-0.12541 1.0057-0.23586 1.2484-0.47697 1.0483-0.15139-0.12564-0.15084-0.17772 0.0164-1.5808 0.11391-0.95547-0.23544-1.428-0.7247-0.98018-0.47644 0.43607-1.135 0.68492-1.6201 0.61217-0.4437-0.06654-0.45643-0.06005-0.52882 0.26957-0.16462 0.7495-0.67205 1.4225-1.2929 1.7147-0.56714 0.26695-0.73688 0.63642-0.57263 1.2464 0.13758 0.51093 0.37412 0.56928 0.93108 0.22968 0.384-0.23413 0.66742-0.73049 0.92162-1.614 0.20432-0.71015 0.32696-0.83216 0.81706-0.81283 0.20298 0.008 0.49965-0.02354 0.65926-0.0701 0.25046-0.07306 0.30798-0.04566 0.4199 0.19999 0.13238 0.29054 0.11274 0.58292-0.25058 3.731-0.15066 1.3055-0.30963 1.5443-1.0279 1.5443-0.55335 0-1.2711 0.37022-1.5536 0.80133-0.14837 0.22645-0.23701 0.26543-0.48145 0.21174-0.26534-0.05828-0.30578-0.03167-0.35359 0.23271-0.0297 0.16418-0.11445 0.44511-0.18834 0.6243-0.3155 0.76507 0.24698 1.6016 0.72476 1.0779 0.11646-0.12766 0.30778-0.45328 0.42515-0.7236s0.38235-0.62629 0.58884-0.79106c0.40081-0.31981 1.5343-0.76186 2.2962-0.8955 0.25496-0.04472 0.50753-0.14807 0.56127-0.22967 0.0554-0.0841 0.0716-0.85672 0.0375-1.7838-0.0673-1.8276-0.00035-2.5714 0.23115-2.5714 0.22687 0 0.27038 0.21225 0.28799 1.4047l0.0161 1.0897 0.37276 0.10441c0.20502 0.05742 0.58258 0.21453 0.83902 0.34913l0.46626 0.24472 0.7305-0.7177c0.99476-0.97733 1.2201-1.0888 1.9288-0.95407 0.30898 0.05874 0.63367 0.16622 0.72154 0.23886 0.32328 0.26725 0.62949 0.28672 0.91966 0.05847 0.67459-0.53063 2.5285-0.82577 3.3936-0.54025l0.38717 0.12778-0.0706 0.92128c-0.0894 1.1667 0.14692 1.8772 0.89959 2.7048 0.77312 0.85017 0.72478 0.72596 1.2954 3.3286 0.29942 1.3656 0.32099 1.5941 0.25642 2.7158-0.10438 1.8133-0.60414 3.7966-1.1845 4.7006-0.16411 0.25564-0.38214 0.61721-0.48449 0.80348-0.203 0.36944-1.2151 1.7876-1.4717 2.0622-0.0879 0.09402-0.39571 0.45496-0.6841 0.80208s-0.98924 1.0864-1.5575 1.6429c-0.98597 0.9656-1.6632 1.7413-2.2317 2.5561-0.14303 0.20502-0.41376 0.5405-0.60161 0.74552-0.53746 0.58656-1.0057 1.2267-1.5844 2.1663-0.4651 0.75512-0.64362 0.94091-1.3618 1.4172-0.45456 0.30148-1.0764 0.63136-1.3818 0.73307-0.8621 0.28711-2.4385 0.46266-3.0568 0.34041-0.28847-0.05704-0.61046-0.06995-0.71554-0.0287s-0.47433 0.09377-0.82057 0.11671c-1.1599 0.07685-2.6224 0.73495-3.7023 1.666-0.53287 0.45943-1.3484 1.4825-1.5808 1.983-0.12742 0.27448-0.34235 0.61886-0.47763 0.7653-0.13527 0.14644-0.35661 0.50589-0.49186 0.79877-0.2585 0.55979-1.0028 1.3578-1.5709 1.6842l-0.33624 0.19321-0.31815-0.31814zm1.0668-0.82681c0.23485-0.21218 0.57482-0.66311 0.75549-1.0021 0.18066-0.33896 0.42064-0.71521 0.53328-0.83612 0.11265-0.12091 0.32383-0.44367 0.46929-0.71726 0.14546-0.27358 0.43138-0.7011 0.63536-0.95004 0.50736-0.61916 1.5524-1.6469 1.6747-1.6469 0.055 0 0.3003-0.13563 0.54517-0.30139 0.75512-0.51121 1.7793-0.8598 3.0545-1.0397 0.43871-0.06187 0.96837-0.05718 1.5666 0.01389 1.0334 0.12276 2.2361-0.14518 3.4923-0.77804 0.95258-0.47988 1.1578-0.67071 1.6303-1.5159 0.21285-0.38075 0.67735-1.0278 1.0322-1.4378 0.52708-0.60901 1.2806-1.5348 1.7336-2.1301 0.62336-0.81904 1.133-1.4379 1.1844-1.4382 0.15858-0.000958 1.0476-0.86112 1.8585-1.7981 1.4517-1.6776 1.8036-2.1409 2.5099-3.3054 1.0855-1.7895 1.4683-3.1975 1.4896-5.4787 0.0116-1.2391-0.11292-1.9698-0.73732-4.3278-0.0948-0.35813-0.47009-0.85241-0.7838-1.0324-0.0823-0.04722-0.34036-0.46394-0.57345-0.92603-0.34201-0.678-0.44313-0.80564-0.5239-0.66132-0.0606 0.10832-0.16839 0.15263-0.2733 0.11237-0.18668-0.07163-0.35153-0.61291-0.2411-0.7916 0.11555-0.18696 0.37437-0.11947 0.37437 0.09762 0 0.1137 0.0479 0.23634 0.1065 0.27254 0.15288 0.09448 0.13523-0.83395-0.0188-0.98796-0.096-0.09605-0.0824-0.17263 0.0583-0.32815 0.17381-0.19207 0.17372-0.21273-0.002-0.38821-0.18728-0.18728-0.78162-0.18602-1.8483 0.0039-0.80006 0.14246-2.1386 1.2331-2.8869 2.3521l-0.41877 0.6263 0.61924 0.58577c0.34058 0.32217 0.8317 0.87332 1.0914 1.2248 0.3509 0.47494 0.48187 0.5896 0.51005 0.44656 0.0213-0.10803 0.11188-0.17811 0.2065-0.15976 0.26188 0.05081 0.28779 0.30627 0.0377 0.37167-0.12332 0.03225-0.22422 0.07307-0.22422 0.09072 0 0.01764 0.12243 0.27584 0.27207 0.57377 0.3922 0.78084 0.61311 1.9359 0.53603 2.8026-0.0776 0.87221-0.53434 2.1617-1.0515 2.9685-0.26829 0.41852-0.34936 0.631-0.27075 0.70961 0.17009 0.1701-0.00071 0.35229-0.26732 0.28534-0.16825-0.04223-0.31151 0.02296-0.49936 0.22722-0.1798 0.19551-0.22117 0.30152-0.13031 0.33396 0.1886 0.06731 0.1659 0.45578-0.0266 0.45578-0.0909 0-0.15976-0.09569-0.15976-0.22218 0-0.19344-0.0861-0.15489-0.66564 0.29806-0.98942 0.77329-1.3114 0.97387-2.6159 1.6297-0.55402 0.27852-0.9171 0.53083-0.97047 0.67438-0.0469 0.12615-0.11957 0.58881-0.16149 1.0281-0.0419 0.43932-0.13741 1.0624-0.2122 1.3845-0.17219 0.7417-0.66939 1.7332-0.83799 1.6712-0.1547-0.05694-0.14317-0.11401 0.24073-1.1919 0.1669-0.46861 0.33306-1.0259 0.36925-1.2384 0.0559-0.32821 0.0334-0.39482-0.14959-0.44267-0.24878-0.06505-0.29452-0.39577-0.0547-0.39577 0.13399 0 0.13858-0.03535 0.0276-0.21301-0.16966-0.27166-0.4013-0.27529-0.4013-0.0063 0 0.29595-0.21631 0.38941-0.28585 0.1235-0.0322-0.12305-0.0682-0.22372-0.08-0.22372s-0.25785 0.07195-0.54672 0.15988c-0.43963 0.13383-0.58596 0.24983-0.89798 0.71187-0.56092 0.83061-1.3635 1.8151-1.6932 2.0769-0.28266 0.22446-0.34076 0.22932-1.6164 0.13504-1.6199-0.11972-1.8206-0.15735-2.2563-0.42302-0.46872-0.28579-0.70159-0.26908-0.76891 0.05516-0.0304 0.14644-0.0783 0.37409-0.1065 0.50589s-0.36983 0.76682-0.75925 1.4112c-1.0996 1.8194-1.4843 2.5725-1.9597 3.836-0.48845 1.2983-0.70109 2.0229-0.78081 2.6607-0.0718 0.57419-0.32522 1.9115-0.59497 3.1392-0.20312 0.92451-0.22629 1.9803-0.0556 2.5321 0.0724 0.23387 0.35475 0.14399 0.79379-0.25265zm6.1768-8.1345c0-0.11834 0.071-0.21301 0.15975-0.21301 0.0888 0 0.15976 0.09467 0.15976 0.21301s-0.071 0.21301-0.15976 0.21301c-0.0888 0-0.15975-0.09467-0.15975-0.21301zm2.253-0.47262c0.0202-0.09771 0.0847-0.17512 0.1433-0.17202 0.15809 0.0083 0.12904 0.24662-0.0368 0.3019-0.0896 0.02986-0.12951-0.01883-0.10651-0.12988zm1.599-0.15531c-0.16463-0.10174-0.0471-0.4371 0.15321-0.4371 0.15683 0 0.20806 0.37655 0.0634 0.46595-0.0467 0.02888-0.1442 0.0159-0.21661-0.02886zm-2.9319-0.19148c-0.12729-0.12729-0.0688-0.35211 0.0917-0.35211 0.0879 0 0.15975 0.06906 0.15975 0.15347 0 0.17793-0.15201 0.29804-0.2514 0.19865zm-1.8419-0.30346c-0.0804-0.20942 0.0147-0.30557 0.22312-0.2256 0.0936 0.03592 0.1359 0.13185 0.0997 0.22616-0.0807 0.2104-0.24197 0.21012-0.32282-0.000532zm4.2234-0.42142c0-0.28294 0.0688-0.3206 0.3084-0.16887 0.18369 0.11631 0.0772 0.43513-0.1453 0.43513-0.10297 0-0.1631-0.09816-0.1631-0.26626zm-1.3313-0.05325c-0.0891-0.14424 0.0311-0.31951 0.21929-0.31951 0.0844 0 0.15347 0.09585 0.15347 0.21301 0 0.22049-0.25694 0.2939-0.37276 0.1065zm3.423-0.49991c-0.12729-0.12729-0.0688-0.35212 0.0917-0.35212 0.0879 0 0.15975 0.06906 0.15975 0.15347 0 0.17793-0.152 0.29804-0.2514 0.19865zm-5.552-0.138c-0.0785-0.1271 0.0212-0.32125 0.16496-0.32125 0.1296 0 0.13044 0.28826 0.001 0.36821-0.0545 0.0337-0.12925 0.01257-0.16604-0.04697zm3.8165-0.37909c-0.0804-0.20941 0.0147-0.30557 0.22312-0.2256 0.0936 0.03592 0.13589 0.13185 0.0997 0.22616-0.0807 0.2104-0.24198 0.21012-0.32282-0.000533zm-1.5917-0.09126c-0.039-0.1016-0.0182-0.23744 0.0463-0.30188 0.0852-0.0852 0.13649-0.06677 0.18804 0.06757 0.039 0.1016 0.0182 0.23744-0.0463 0.30188-0.0852 0.0852-0.13648 0.06677-0.18804-0.06757zm0.88118-0.21386c-0.0599-0.15616 0.009-0.27606 0.159-0.27606 0.11894 0 0.11369 0.29153-0.007 0.36586-0.0524 0.03241-0.12102-0.008-0.15241-0.08981zm1.6487-0.30008c-0.15388-0.24303-0.18179-0.36561-0.0954-0.41899 0.16951-0.10477 0.65111 0.39919 0.57386 0.6005-0.0957 0.24944-0.24033 0.19458-0.47845-0.18152zm1.9652-0.46424c-0.0704-0.18335 0.0975-0.47027 0.27509-0.47027 0.14023 0 0.0602 0.56046-0.0869 0.60868-0.066 0.02164-0.1507-0.04065-0.18822-0.13841zm-1.5202-0.31877c-0.0819-0.21333 0.24088-0.5569 0.38642-0.41135 0.14282 0.14281 0.0138 0.57937-0.17127 0.57937-0.0829 0-0.17969-0.07561-0.21515-0.16801zm-1.9524-0.08685c0-0.18058 0.28803-0.30825 0.37564-0.1665 0.0346 0.05602 0.0333 0.14978-0.003 0.20836-0.0984 0.15924-0.37276 0.12843-0.37276-0.04186zm1.0771 0.0031c-0.0952-0.11474-0.0973-0.17484-0.008-0.23007 0.16509-0.10203 0.32646 0.07858 0.22169 0.2481-0.0679 0.10986-0.11058 0.10626-0.21374-0.01803zm-1.648-0.35468c-0.11994-0.11995-0.073-0.24562 0.0916-0.24562 0.0879 0 0.15975 0.0451 0.15975 0.10022 0 0.1343-0.16631 0.23048-0.2514 0.1454zm2.3154-1.1458c-0.0734-0.19133 0.0456-0.40307 0.1799-0.32006 0.13495 0.08341 0.12613 0.47471-0.0107 0.47471-0.0604 0-0.13655-0.06959-0.16919-0.15465zm-0.562-0.265c-0.16095-0.09948-0.0868-0.43233 0.0963-0.43233 0.15594 0 0.26263 0.31249 0.14638 0.42874-0.0534 0.05341-0.15951 0.05498-0.24267 0.0036zm0.84181-0.54217c0-0.11537 0.0718-0.20966 0.15975-0.20966 0.0879 0 0.15976 0.06676 0.15976 0.14836s-0.0719 0.17595-0.15976 0.20966c-0.10866 0.0417-0.15975-0.0058-0.15975-0.14836zm-0.47926-0.31617c-0.0869-0.14053 0.0405-0.33996 0.16711-0.26171 0.12936 0.07995 0.12852 0.36821-0.001 0.36821-0.0551 0-0.12983-0.04793-0.16603-0.1065zm0.84629-0.32879c-0.10976-0.17758 0.13709-0.38123 0.28401-0.23431 0.12289 0.1229 0.046 0.35009-0.11853 0.35009-0.0517 0-0.12613-0.0521-0.16548-0.11578zm-0.561-0.476c0.0482-0.23134 0.23718-0.24549 0.28042-0.021 0.0224 0.11658-0.0298 0.18638-0.13948 0.18638-0.10232 0-0.16103-0.06889-0.14094-0.16538zm5.2186-2.0236c0.0482-0.23134 0.23718-0.24549 0.28041-0.021 0.0224 0.11658-0.0298 0.18638-0.13948 0.18638-0.10232 0-0.16103-0.06889-0.14093-0.16538zm0.56441-0.15824c-0.10736-0.1737 0.1311-0.38919 0.27331-0.24699 0.077 0.07702 0.0636 0.15036-0.0438 0.23948-0.11441 0.09495-0.17429 0.09691-0.22954 0.0075zm-0.845-0.733c-0.0337-0.05453-0.0126-0.12925 0.047-0.16604 0.12709-0.07855 0.32124 0.02115 0.32124 0.16497 0 0.12959-0.28826 0.13043-0.36821 0.0011zm0.79422-0.27362c0-0.09763 0.0515-0.16033 0.11449-0.13934 0.063 0.02099 0.11449 0.08369 0.11449 0.13934s-0.0515 0.11835-0.11449 0.13934c-0.063 0.02099-0.11449-0.04171-0.11449-0.13934zm1.7573-1.4378c-0.0777-0.12566 0.0231-0.31951 0.16604-0.31951 0.0551 0 0.10022 0.09585 0.10022 0.21301 0 0.22462-0.15495 0.2866-0.26626 0.1065zm0.90528-1.065c0-0.11715 0.0479-0.21301 0.1065-0.21301s0.1065 0.09585 0.1065 0.21301c0 0.11715-0.0479 0.21301-0.1065 0.21301s-0.1065-0.09585-0.1065-0.21301zm-0.46607-6.128c-0.0362-0.09431 0.006-0.19024 0.0997-0.22616 0.20838-0.07997 0.30347 0.01619 0.22311 0.2256-0.0808 0.21068-0.24208 0.21096-0.32281 0.000533zm0.46607-0.78587c0-0.13082 0.0688-0.22188 0.16756-0.22188 0.0992 0 0.15351 0.07246 0.13313 0.17756-0.0518 0.26719-0.30069 0.30388-0.30069 0.04433zm-0.56802-0.50589c-0.12971-0.12971-0.0734-0.35501 0.0888-0.35501 0.0888 0 0.15976 0.09467 0.15976 0.213 0 0.21218-0.11348 0.27703-0.24851 0.142zm-0.49701-0.67452c0-0.11834 0.071-0.21301 0.15975-0.21301 0.0888 0 0.15976 0.09467 0.15976 0.21301s-0.071 0.21301-0.15976 0.21301c-0.0888 0-0.15975-0.09467-0.15975-0.21301zm-0.85203-0.21301c0-0.13727 0.0539-0.21278 0.13313-0.18638 0.0732 0.02441 0.13313 0.10828 0.13313 0.18638s-0.0599 0.16197-0.13313 0.18638c-0.0792 0.0264-0.13313-0.04911-0.13313-0.18638zm1.5649 0.1449c-0.0994-0.09939 0.0207-0.2514 0.19865-0.2514 0.0844 0 0.15347 0.07189 0.15347 0.15975 0 0.16042-0.22483 0.21894-0.35212 0.09165zm2.3229-0.27803c-0.12359-0.35666-0.0999-0.77215 0.0439-0.77215 0.17567 0 0.37619 0.52057 0.28852 0.74903-0.0733 0.19105-0.26954 0.20469-0.33246 0.02311zm-0.97852-0.25218c-0.0667-0.17384 0.15636-0.38697 0.30735-0.29365 0.14287 0.0883 0.0946 0.33296-0.0788 0.39951-0.0957 0.03673-0.19069-0.0073-0.22853-0.10586zm-1.9508-0.35393c0-0.25653 0.1931-0.3883 0.34558-0.23583 0.081 0.08101 0.0745 0.16156-0.0223 0.27828-0.18614 0.22428-0.32326 0.20628-0.32326-0.04245zm0.87084 0.02917c0.0518-0.26719 0.30069-0.30388 0.30069-0.04433 0 0.13082-0.0688 0.22188-0.16756 0.22188-0.0992 0-0.15351-0.07246-0.13313-0.17755zm-1.436-0.21006c-0.0851-0.08509 0.0111-0.2514 0.1454-0.2514 0.0551 0 0.10021 0.07189 0.10021 0.15975 0 0.1647-0.12567 0.21159-0.24561 0.09165zm2.6686-0.10876c-0.40731-0.21454-0.37791-0.39928 0.0499-0.31372 0.39985 0.07997 0.56237 0.2119 0.4617 0.3748-0.0873 0.14127-0.13921 0.13508-0.51163-0.06108zm-28.237 23.642c0.18255-0.21114 0.49222-0.70073 0.68814-1.088 0.19593-0.38726 0.44949-0.83389 0.56347-0.99253 0.17044-0.23721 0.18324-0.31735 0.0721-0.45128-0.18702-0.22534-0.0548-0.52299 0.2024-0.45572 0.13293 0.03476 0.29261-0.04497 0.4557-0.22755 0.13808-0.15458 0.46238-0.45629 0.72068-0.67045 0.37273-0.30905 0.4445-0.41966 0.34787-0.53609-0.19448-0.23434 0.0185-0.49255 0.27516-0.33357 0.23502 0.14558 0.44293 0.0046 0.44293-0.30026 0-0.18634 0.17453-0.35308 0.37276-0.35612 0.0586-0.000852 0.12194-0.13626 0.14081-0.3008 0.0189-0.16454 0.10274-0.32543 0.18638-0.35753 0.0836-0.0321 0.15208-0.14908 0.15208-0.25997 0-0.1151 0.0743-0.20161 0.17306-0.20161 0.1355 0 0.1592 0.06936 0.10917 0.31951-0.0352 0.17573-0.0207 0.31951 0.0322 0.31951 0.1627 0 0.73652-0.76481 0.68146-0.90829-0.0285-0.07436-0.00071-0.16683 0.0619-0.2055 0.18444-0.11399 0.13005-0.37725-0.0779-0.37725-0.24142 0-0.44628 0.19829-0.3809 0.36868 0.0274 0.07134-0.0237 0.19072-0.11356 0.26528-0.13463 0.11173-0.17502 0.10513-0.22977-0.03755-0.0365-0.09521-0.004-0.24804 0.0718-0.33962 0.11402-0.13739 0.11145-0.18342-0.0147-0.26317-0.21805-0.13783-0.36062-0.06614-0.39995 0.20111-0.0363 0.24688-0.27642 0.31176-0.40196 0.10863-0.0417-0.0675 0.0153-0.19023 0.12684-0.27292 0.18038-0.13374 0.12042-0.14774-0.54528-0.12735-0.41137 0.0126-0.92886-0.0368-1.15-0.10978-0.22113-0.07298-0.63942-0.11624-0.92955-0.09613-0.29012 0.02011-0.52747 0.0041-0.52743-0.03551 0.0001-0.13968-0.37807-0.14796-0.85196-0.01865-0.26359 0.07192-0.85399 0.21117-1.312 0.30944-0.72462 0.15548-0.84663 0.2151-0.93986 0.45924-0.10031 0.26268-0.11614 0.26831-0.24831 0.08837-0.15877-0.21617-0.14036-0.21527-1.6002-0.07782-3.1185 0.29363-5.4128 0.79328-5.3525 1.1657 0.0216 0.13374-0.0593 0.16412-0.3846 0.14446-0.28265-0.01708-0.51417 0.04785-0.73743 0.20683-0.17899 0.12745-0.26917 0.25048-0.2004 0.27341 0.17852 0.05951 0.15517 0.44994-0.0269 0.44994-0.0836 0-0.16781-0.08236-0.18719-0.18301-0.0304-0.15793-0.0684-0.1474-0.27733 0.07684-0.29815 0.32002-0.26794 0.59821 0.06 0.55212 0.13035-0.01833 0.23701 0.0142 0.23701 0.07227 0 0.25368 0.35426 0.44025 0.833 0.43868 0.54724-0.0018 0.69232-0.06462 0.79559-0.3445 0.0894-0.24227 0.29456-0.23929 0.3585 0.0052 0.0404 0.15444 0.22943 0.21266 0.97518 0.30031 1.0915 0.12829 1.4865 0.2991 2.2031 0.95289 0.29288 0.26719 0.66799 0.59059 0.83356 0.71867 0.16558 0.12808 0.70846 0.62895 1.2064 1.113 0.98583 0.95841 1.306 1.1657 2.1136 1.3686 0.71298 0.17906 1.002 0.1066 1.397-0.35015zm-1.926-0.56168c-0.0936-0.15152 0.0258-0.32513 0.22362-0.32513 0.0933 0 0.14677 0.07483 0.12685 0.17755-0.0415 0.21391-0.25413 0.30345-0.35047 0.14758zm-1.0152-1.1239c0-0.15088 0.0615-0.26626 0.142-0.26626 0.20853 0 0.26759 0.09303 0.20675 0.32568-0.0793 0.30305-0.34875 0.25714-0.34875-0.05942zm1.8143-0.55914c0.004-0.18396 1.08-0.77215 1.4128-0.77215 0.10408 0 0.1355-0.08324 0.10051-0.26626-0.0373-0.1952-0.005-0.26626 0.12127-0.26626 0.25302 0 0.21041 0.34838-0.0846 0.69171-0.14122 0.16436-0.23381 0.35867-0.20574 0.4318 0.0651 0.16979-0.1367 0.2982-0.30512 0.1941-0.2337-0.14443-0.5994-0.13231-0.65854 0.02182-0.0828 0.21582-0.38512 0.1882-0.38059-0.03477zm-2.845-0.19713c-0.0753-0.19635 0.18222-0.40101 0.32499-0.25823 0.11625 0.11625 0.01 0.42874-0.14638 0.42874-0.0622 0-0.14263-0.07673-0.17861-0.1705zm1.8462-0.32744c-0.0385-0.03854-0.0701-0.15794-0.0701-0.26533 0-0.23014 0.27066-0.26314 0.35503-0.04329 0.0638 0.16624-0.17198 0.4216-0.28496 0.30862zm0.78195-0.66472c0-0.13082 0.0688-0.22188 0.16756-0.22188 0.0992 0 0.15352 0.07246 0.13313 0.17755-0.0518 0.26719-0.30069 0.30388-0.30069 0.04433zm2.564 0.1107c-0.25125-0.07021-0.44506-0.33258-0.24567-0.33258 0.21266 0 0.77029 0.23884 0.77029 0.32993 0 0.10796-0.14515 0.1087-0.52462 0.0027zm-4.5846-0.27584c-0.14722-0.1774-0.061-0.37625 0.16314-0.37625 0.16627 0 0.21337 0.37642 0.059 0.4718-0.0519 0.0321-0.15192-0.0109-0.22218-0.09555zm4.9695-0.12553c-0.15076-0.15076-0.0654-0.35723 0.14759-0.35723 0.14889 0 0.2096 0.05784 0.18638 0.17755-0.038 0.19602-0.21982 0.29383-0.33397 0.17968zm-11.538-0.629c-0.0899-0.23421 0.15404-0.46896 0.27832-0.26787 0.10418 0.16856 0.0333 0.43478-0.11582 0.43478-0.0542 0-0.12727-0.07511-0.1625-0.16691zm1.7109 0.01781c-0.0429-0.11192-0.003-0.2553 0.0987-0.35732 0.15621-0.1562 0.17639-0.15483 0.24214 0.01652 0.0429 0.11192 0.003 0.2553-0.0987 0.35733-0.1562 0.1562-0.17638 0.15483-0.24213-0.01652zm7.8754-0.01524c-0.0804-0.20941 0.0147-0.30557 0.22311-0.2256 0.0936 0.03592 0.1359 0.13185 0.0997 0.22616-0.0807 0.2104-0.24198 0.21012-0.32282-0.000533zm1.2818-0.09681c-0.0326-0.08506-0.0283-0.20488 0.01-0.26626 0.12405-0.20071 0.26941-0.11726 0.26941 0.15465 0 0.28872-0.18299 0.3619-0.27903 0.1116zm1.0857-0.23592c-0.0907-0.23632 0.10957-0.43983 0.27249-0.27691 0.13039 0.13039 0.0549 0.45447-0.10591 0.45447-0.0541 0-0.12911-0.0799-0.16658-0.17756zm-11.282-0.10934c-0.13165-0.13166-0.0663-0.45862 0.0916-0.45862 0.0879 0 0.15976 0.09302 0.15976 0.20672 0 0.2223-0.14037 0.36294-0.25141 0.2519zm12.572-0.31501c-0.13106-0.13106-0.0759-0.35661 0.0872-0.35661 0.17746 0 0.1996 0.09185 0.071 0.29448-0.047 0.0741-0.11819 0.10206-0.15812 0.06213zm-8.2135-0.22924c-0.0863-0.27188-0.003-0.44688 0.21267-0.44688 0.19382 0 0.19712 0.2191 0.007 0.47882-0.14126 0.19319-0.14878 0.19209-0.21988-0.03194zm3.3921 0.04635c-0.0799-0.20831 0.029-0.38672 0.23608-0.38672 0.10457 0 0.14897 0.08096 0.12685 0.23129-0.0413 0.28085-0.2762 0.38144-0.36293 0.15543zm1.0569-0.02112c-0.0745-0.1942 0.10961-0.41997 0.26446-0.32426 0.12504 0.07727 0.0383 0.49118-0.10299 0.49118-0.0536 0-0.12624-0.07511-0.16147-0.16691zm1.3133-0.11709c-0.0391-0.03905-0.071-0.1349-0.071-0.21301 0-0.18852 0.2811-0.1827 0.35403 0.0073 0.0861 0.22425-0.11694 0.37176-0.28303 0.20567zm-8.7685-0.20241c-0.0888-0.23132 0.13659-0.44886 0.29789-0.28756 0.13632 0.13633 0.0519 0.45447-0.12065 0.45447-0.0623 0-0.14201-0.07511-0.17724-0.16691zm10.438-0.31694c-0.0804-0.20941 0.0147-0.30557 0.22311-0.2256 0.0936 0.03592 0.1359 0.13185 0.0997 0.22616-0.0807 0.2104-0.24198 0.21012-0.32282-0.000533zm-8.344-0.14888c0-0.2483 0.1219-0.34142 0.30157-0.23038 0.16463 0.10174 0.0471 0.4371-0.15321 0.4371-0.0816 0-0.14836-0.09302-0.14836-0.20672zm3.1361 0.09094c-0.0394-0.06368-0.0162-0.17111 0.0514-0.23874 0.0929-0.09294 0.14616-0.08542 0.218 0.03082 0.10151 0.16425 0.0503 0.3237-0.10391 0.3237-0.0517 0-0.12614-0.0521-0.16549-0.11578zm4.4937 0.04189c-0.12729-0.12729-0.0688-0.35212 0.0916-0.35212 0.0879 0 0.15976 0.06906 0.15976 0.15347 0 0.17793-0.15202 0.29804-0.25141 0.19865zm1.79-0.04189c-0.10975-0.17758 0.13709-0.38123 0.28402-0.23431 0.12289 0.1229 0.046 0.35009-0.11853 0.35009-0.0517 0-0.12613-0.0521-0.16549-0.11578zm-3.0957-0.25214c-0.0955-0.24899 0.10443-0.42835 0.26367-0.23649 0.0967 0.11653 0.0888 0.17983-0.0352 0.28277-0.13038 0.1082-0.17245 0.09968-0.22846-0.04628zm2.4567-0.17387c-0.10975-0.17758 0.13709-0.38123 0.28402-0.23431 0.12289 0.1229 0.046 0.35009-0.11853 0.35009-0.0517 0-0.12613-0.0521-0.16549-0.11578zm-4.2601-0.1065c-0.10976-0.17758 0.13709-0.38123 0.28401-0.23431 0.12289 0.1229 0.046 0.35009-0.11852 0.35009-0.0517 0-0.12614-0.0521-0.16549-0.11578zm5.2318 0.02135c-0.0321-0.05194 0.009-0.15012 0.0907-0.21818 0.16601-0.13778 0.336 0.02054 0.22132 0.20611-0.0815 0.13186-0.23436 0.13778-0.31205 0.01207zm-4.1078-0.54458c0-0.11834 0.071-0.21301 0.15976-0.21301 0.0888 0 0.15975 0.09467 0.15975 0.21301s-0.071 0.21301-0.15975 0.21301c-0.0888 0-0.15976-0.09467-0.15976-0.21301zm2.2366 0c0-0.11834 0.071-0.21301 0.15975-0.21301 0.0888 0 0.15975 0.09467 0.15975 0.21301s-0.071 0.21301-0.15975 0.21301c-0.0888 0-0.15975-0.09467-0.15975-0.21301zm1.2342 0.12174c-0.0926-0.14975 0.0498-0.457 0.19009-0.41024 0.15765 0.05255 0.15504 0.41884-0.003 0.47164-0.0679 0.02262-0.15188-0.005-0.18673-0.06139zm-2.136-0.22262c-0.0936-0.15152 0.0258-0.32513 0.22363-0.32513 0.0933 0 0.14676 0.07482 0.12684 0.17755-0.0415 0.21391-0.25413 0.30345-0.35047 0.14758zm1.7433 5.4708c0.67864-0.58068 1.3976-1.0205 2.0162-1.2332 0.332-0.11418 0.80906-0.30194 1.0601-0.41723 0.66486-0.30531 1.5867-0.52442 2.2063-0.52442h0.54126l0.73089-1.3403c0.40199-0.73715 0.75446-1.4636 0.78326-1.6142 0.0579-0.30297 0.18464-0.2958-1.4166-0.08017-0.51933 0.06993-1.1835 0.27512-2.4668 0.76209-0.94097 0.35706-1.0301 0.42112-2.4998 1.7956-1.6085 1.5044-1.9746 1.9233-2.3911 2.7366-0.28131 0.54935-0.32788 0.89414-0.12971 0.9602 0.13 0.04333 0.87531-0.45403 1.566-1.045zm3.3121-5.0538c0-0.26564 0.26781-0.38516 0.47595-0.21241 0.18602 0.15438 0.33104 0.07996 0.4065-0.2086 0.049-0.18734 0.005-0.21466-0.34766-0.21466-0.30231 0-0.44233 0.06022-0.55713 0.23963-0.26079 0.40755-0.30564 0.61239-0.13407 0.61239 0.0862 0 0.15641-0.0971 0.15641-0.21635zm9.6597-0.56446c0.40912-0.433 0.44281-0.5105 0.3849-0.88527-0.0349-0.2259-0.0772-0.42727-0.094-0.44749-0.11396-0.13708-0.7955 0.19154-1.2583 0.60675-0.3035 0.27227-0.71422 0.6181-0.91271 0.76852-0.19848 0.15041-0.33334 0.31815-0.29968 0.37276 0.0337 0.05461 0.43702 0.09029 0.89635 0.07928l0.83514-0.02 0.44837-0.47455zm-8.0032 0.13251c0.10022-0.16215-0.11741-0.35147-0.31629-0.27515-0.0957 0.03672-0.13869 0.13224-0.10227 0.22715 0.0727 0.18942 0.31405 0.2171 0.41856 0.048zm5.0319-0.1259c0.0762 0.02752 0.27988-0.0085 0.45264-0.08007 0.33558-0.139 0.42411-0.46527 0.15434-0.56879-0.10866-0.0417-0.15975 0.0058-0.15975 0.14836 0 0.24757-0.29789 0.28342-0.3887 0.04678-0.0541-0.14092-0.0811-0.13752-0.20005 0.02521-0.12914 0.17662-0.14964 0.17714-0.33597 0.0085-0.33375-0.30204-0.49269-0.07387-0.21794 0.31287 0.20045 0.28215 0.2619 0.31241 0.39702 0.19545 0.0879-0.0761 0.22222-0.11586 0.29841-0.08834zm-1.1503-0.24387c0-0.09132-0.0487-0.13594-0.10824-0.09914-0.0595 0.03679-0.0807 0.11151-0.047 0.16604 0.0913 0.14772 0.1552 0.12018 0.1552-0.0669zm-1.2248-0.58142c2.3374-0.2394 2.8544-0.32583 4.5264-0.75671 2.2982-0.59226 4.4102-1.3317 5.7868-2.0261 0.79163-0.3993 2.5613-1.5095 2.9376-1.8428 1.1517-1.0204 1.8523-1.8498 2.2634-2.6795 0.3975-0.80218 0.43386-0.95027 0.48647-1.981 0.0447-0.87559 0.0179-1.2375-0.12514-1.6908-0.26483-0.83924-0.58007-1.4573-1.0843-2.1258-0.55172-0.73152-0.80265-0.95398-0.86548-0.76731-0.046 0.13672-0.36756 0.18313-0.48123 0.06947-0.11092-0.11092 0.0439-0.36217 0.22594-0.36678 0.11793-0.003 0.0384-0.12505-0.24405-0.37441-0.23048-0.20349-0.45207-0.33329-0.49244-0.28845-0.0404 0.04484-0.0984 0.2816-0.12889 0.52613-0.0455 0.36446-0.0131 0.48445 0.17979 0.66564 0.1294 0.12157 0.3372 0.22104 0.46176 0.22104 0.27854 0 0.40229 0.17608 0.25148 0.3578-0.0819 0.09861-0.007 0.37985 0.2761 1.0337 0.65121 1.5056 0.60797 2.709-0.156 4.3417-0.33105 0.7075-1.9161 2.3525-3.0081 3.122-1.1576 0.81564-4.0925 2.1929-5.1042 2.3952-0.18008 0.03601-0.32741 0.11541-0.32741 0.17642 0 0.06102-0.0276 0.08337-0.0613 0.04967s-0.21342-0.01482-0.39939 0.04195c-0.18596 0.05677-0.43397 0.1205-0.55112 0.14162-0.37198 0.06705-0.7136 0.15227-1.054 0.26295-0.1818 0.0591-0.52225 0.13555-0.75655 0.16988-0.23431 0.03433-0.6094 0.11002-0.83355 0.1682-0.22414 0.05818-0.58359 0.12007-0.79877 0.13754s-0.72672 0.08653-1.1368 0.15346c-4.0388 0.65933-9.1199 0.33058-13.6-0.87992-2.2156-0.59865-4.188-1.5101-5.6905-2.6295-1.4069-1.0482-1.7866-1.4993-2.5823-3.0675-0.82828-1.6325-0.47129-3.6799 0.94646-5.4281 0.3957-0.48794 0.51716-0.71009 0.4338-0.79345-0.0637-0.06367-0.11577-0.17807-0.11577-0.25422 0-0.16943 0.39253-0.18566 0.44824-0.01853 0.0237 0.07116 0.24147-0.0221 0.53546-0.22933 0.43748-0.30837 0.48839-0.38474 0.43485-0.65244-0.0653-0.32677 0.12751-0.41858 0.36997-0.17611 0.0984 0.09843 0.19326 0.07825 0.42069-0.08953 0.16148-0.11913 0.65984-0.41742 1.1074-0.66287 0.53518-0.29346 0.83484-0.52656 0.87517-0.68078 0.0853-0.326-0.0683-0.44116-0.42827-0.32126-0.21356 0.07112-0.31782 0.18921-0.35545 0.40258-0.0643 0.36457-0.31167 0.479-0.38978 0.18031-0.0517-0.19775-0.083-0.20364-0.39162-0.07386-0.19688 0.08278-0.3608 0.24389-0.39686 0.39005-0.0505 0.20476-0.12219 0.24413-0.4033 0.22155-0.435-0.03494-1.0097 0.36078-0.93555 0.64422 0.0615 0.23513-0.19654 0.3606-0.39789 0.19349-0.22483-0.18659-0.98209 0.45664-0.93757 0.79638 0.0371 0.28303-0.16684 0.34726-0.39381 0.12404-0.2137-0.21017-0.58471 0.28744-0.41589 0.55778 0.0951 0.15231 0.0908 0.23592-0.0189 0.36816-0.12849 0.15482-0.15937 0.15536-0.3248 0.0057-0.16779-0.15185-0.20679-0.134-0.47475 0.21733-0.27977 0.36679-0.28373 0.38885-0.0948 0.52834 0.15434 0.11396 0.16922 0.1739 0.0685 0.27603-0.0985 0.09992-0.16376 0.10129-0.27875 0.0059-0.20826-0.17284-0.30829-0.02656-0.65686 0.96061-0.25206 0.71387-0.28357 0.94304-0.25102 1.8259 0.0356 0.96615 0.06 1.0548 0.56656 2.0593 0.88491 1.7547 2.3515 3.0573 4.7752 4.2411 2.7202 1.3287 5.6895 2.1954 8.9669 2.6174 0.52719 0.06788 1.3659 0.18481 1.8638 0.25985 1.4464 0.21799 5.5559 0.19045 7.9345-0.05318zm14.905-9.3796c-0.10022-0.16215 0.11741-0.35147 0.31629-0.27515 0.0957 0.03672 0.13868 0.13224 0.10226 0.22715-0.0727 0.18942-0.31404 0.2171-0.41855 0.048zm-0.0859-0.91664c-0.12729-0.12729-0.0688-0.35212 0.0916-0.35212 0.0879 0 0.15976 0.06906 0.15976 0.15347 0 0.17793-0.15201 0.29804-0.2514 0.19865zm-38.199-0.30206c-0.2064-0.24869 0.0464-0.47792 0.27502-0.24934 0.14124 0.14124 0.14312 0.18195 0.0134 0.28963-0.11784 0.0978-0.18113 0.08895-0.28839-0.04029zm37.705-0.88798c0-0.27221 0.20763-0.40705 0.32969-0.21412 0.12438 0.19659 0.0643 0.35224-0.15213 0.39421-0.11837 0.02296-0.17756-0.03708-0.17756-0.18009zm-0.16548-1.0884c-0.0394-0.06368-0.0203-0.16709 0.0425-0.22979 0.1329-0.1329 0.47865 0.0945 0.38183 0.25114-0.0811 0.13116-0.33802 0.11824-0.42428-0.02135zm-17.088 11.46c0.90794-0.03525 1.9451-0.11011 2.3049-0.16636 0.35974-0.05625 0.86296-0.12353 1.1183-0.14951 0.25531-0.02598 1.0393-0.17365 1.7422-0.32816 0.70292-0.15451 1.4776-0.32265 1.7215-0.37365 1.2242-0.25596 4.6818-1.5775 5.148-1.9676 0.0879-0.07353 0.44731-0.29266 0.79877-0.48695 1.8513-1.0234 3.3501-2.6763 3.8929-4.293 0.2286-0.68086 0.23757-0.79494 0.12384-1.5752-0.24272-1.6653-1.2212-3.0785-3.0049-4.3403-1.2512-0.88504-1.3575-0.92824-1.5023-0.61043-0.14239 0.31252-0.56827 0.5218-1.6735 0.82238-0.98189 0.26704-1.6835 0.70374-1.7859 1.1115-0.0569 0.22666 0.0386 0.37242 0.6283 0.95924 0.41575 0.41371 0.82678 0.95493 1.0222 1.3459 0.30561 0.61158 0.32442 0.71704 0.2904 1.6285-0.053 1.4203-0.46833 2.1599-1.8142 3.2308-1.231 0.97956-1.749 1.2791-2.6202 1.5151-0.26359 0.07142-0.5465 0.18481-0.62868 0.25198-0.0822 0.06717-0.39371 0.17735-0.69227 0.24483-0.29857 0.06749-0.87833 0.2036-1.2884 0.30249-0.41004 0.09888-0.91326 0.19325-1.1183 0.20971-0.20502 0.01646-0.88857 0.08506-1.519 0.15244-1.4687 0.15697-3.5164 0.20542-4.6049 0.10894-0.7885-0.06988-1.064-0.10295-2.2366-0.26841-1.6679-0.23536-4.4294-1.2169-5.5382-1.9684-0.86053-0.5833-1.7575-1.5008-2.1454-2.1944-0.35532-0.63537-0.38827-0.76493-0.38069-1.497 0.007-0.66954 0.0617-0.90858 0.33272-1.4526 0.32646-0.65525 0.86003-1.2865 1.4985-1.7729 0.94445-0.71945 0.90361-0.6522 0.87977-1.449-0.0273-0.91107-0.12029-1.6583-0.22819-1.8329-0.18215-0.29472-3.345 0.70644-4.1808 1.3234-0.19557 0.14436-0.65948 0.48448-1.0309 0.75583-0.89993 0.65743-1.6615 1.5949-2.1912 2.6973-0.41512 0.86387-0.43444 0.94911-0.42255 1.8638 0.0116 0.89594 0.0422 1.0211 0.46815 1.9171 0.98542 2.0728 3.2412 3.6603 6.9502 4.8911 2.4856 0.82488 4.4103 1.1746 7.6394 1.3881 1.0837 0.07164 2.0662 0.11682 2.1833 0.1004 0.11715-0.01642 0.95586-0.05869 1.8638-0.09393zm1.0118-2.9918c1.749-0.17886 2.2874-0.27364 3.4081-0.59996 2.0013-0.58272 3.0306-1.0484 4.01-1.8143 0.87292-0.6826 0.98768-0.82002 0.99187-1.1878 0.003-0.29148 0.0376-0.32863 0.28822-0.31199 0.34456 0.02289 0.49026-0.25464 0.23261-0.44304-0.22904-0.16748-0.11701-0.48113 0.17187-0.48113 0.25226 0 0.2888-0.16241 0.0566-0.25152-0.21475-0.08241-0.20254-0.35297 0.0216-0.4784 0.15786-0.08834 0.16188-0.12496 0.031-0.28264-0.0827-0.09964-0.26516-0.22481-0.40549-0.27816-0.20698-0.07869-0.24238-0.14791-0.1875-0.36656 0.0916-0.36509-0.009-0.49753-0.25847-0.34149-0.2385 0.14894-0.34348 0.07381-0.36042-0.25793-0.0121-0.23814-0.44745-0.55216-0.61869-0.44633-0.17441 0.10779-0.0784 0.34623 0.15272 0.3792 0.13208 0.01884 0.25564 0.12366 0.27685 0.23485 0.0315 0.1649-0.0112 0.19135-0.23854 0.1479-0.15227-0.02911-0.27686-0.01447-0.27686 0.03252 0 0.13399 0.23569 0.24618 0.52985 0.25224 0.16558 0.0034 0.26893 0.06693 0.26893 0.16529s-0.10335 0.16188-0.26893 0.16529c-0.14791 0.003-0.32764 0.04182-0.39939 0.08616-0.19583 0.12103-0.157 0.31404 0.0474 0.2356 0.22003-0.08443 0.3826 0.14972 0.23087 0.33254-0.0801 0.09649-0.16859 0.10396-0.31341 0.02645-0.23443-0.12546-0.25242-0.07213-0.0727 0.21559 0.15775 0.25261 0.0731 0.35125-0.31358 0.36538-0.17916 0.0066-0.3004 0.07343-0.30912 0.17053-0.008 0.08786-0.0199 0.22525-0.0266 0.3053-0.008 0.09404-0.0919 0.12472-0.23731 0.08671-0.159-0.04158-0.33866 0.04597-0.61239 0.29843-0.54452 0.50222-0.84155 0.71315-1.4524 1.0314-0.86287 0.44954-3.0139 1.1576-4.0471 1.3323-1.0187 0.17217-4.0817 0.23318-4.9996 0.09958-1.6555-0.24097-3.0491-0.59866-3.935-1.01-0.88293-0.40997-0.95607-0.42705-1.0845-0.25324-0.10777 0.14587-0.16605 0.15843-0.26816 0.05776-0.10288-0.10143-0.0988-0.167 0.0195-0.3102 0.12889-0.15612 0.12888-0.18866-0.00008-0.23201-0.0825-0.02774-0.50185-0.39663-0.9319-0.81976-0.58961-0.58013-0.78191-0.84025-0.78191-1.0577 0-0.24015-0.0357-0.27705-0.21353-0.22061-0.27187 0.08629-0.40438-0.21173-0.22316-0.50191 0.11096-0.17768 0.0982-0.21544-0.0897-0.26457-0.20236-0.05292-0.32334-0.45411-0.13925-0.46182 0.159-0.0067 0.45001-0.5186 0.38745-0.68162-0.0352-0.09188-0.16681-0.16633-0.29234-0.16543-0.16756 0.0012-0.19006 0.02583-0.0846 0.09264 0.17262 0.1094 0.12562 0.45513-0.0708 0.52052-0.0773 0.02573-0.16648-0.05396-0.1988-0.17756-0.0683-0.26129-0.22681-0.29374-0.31479-0.06447-0.0337 0.08787-0.12806 0.15975-0.20966 0.15975s-0.14836 0.07308-0.14836 0.16239-0.12175 0.20868-0.27054 0.26525c-0.22669 0.08618-0.25262 0.13636-0.15997 0.30948 0.0849 0.15874 0.0681 0.24906-0.0726 0.38976-0.52523 0.52523-0.52011 0.98993 0.0211 1.9134 0.27996 0.47771 0.42891 0.58031 0.50613 0.34865 0.0232-0.06955 0.12144-0.09514 0.22003-0.05731 0.13296 0.05102 0.16223 0.14793 0.11539 0.3821-0.0685 0.34253 0.15134 0.54699 0.55015 0.51163 0.14945-0.01325 0.20945 0.04877 0.21165 0.2188 0.003 0.21514 0.30418 0.54967 0.50282 0.55809 0.0439 0.0019 0.0799-0.12042 0.0799-0.27174 0-0.17332 0.0493-0.25833 0.13313-0.22973 0.0732 0.02497 0.13313 0.19994 0.13313 0.38882 0 0.40458 0.0291 0.42422 1.4556 0.9801 1.2702 0.49503 2.314 0.76164 3.8696 0.98841 2.1453 0.31274 3.7016 0.34147 5.9642 0.1101zm-6.7985-1.369c-0.0748-0.195 0.19766-0.44253 0.30174-0.27412 0.0878 0.142-0.009 0.42608-0.14497 0.42608-0.0541 0-0.12469-0.06839-0.15677-0.15197zm-1.3823-0.02332c-0.14632-0.14632-0.0704-0.37231 0.11316-0.33695 0.10251 0.01974 0.18638 0.10313 0.18638 0.18531 0 0.16815-0.1879 0.26328-0.29954 0.15164zm-1.7773-0.35094c0-0.1137 0.0382-0.23035 0.085-0.25923 0.15176-0.09379 0.3739 0.12023 0.30666 0.29545-0.0924 0.24065-0.39162 0.21298-0.39162-0.03622zm0.82586-0.35242c-0.0723-0.1966 0.0234-0.39939 0.18851-0.39939 0.21692 0 0.29893 0.20194 0.15329 0.37742-0.15789 0.19025-0.2771 0.19791-0.3418 0.02196zm-1.3584-0.29288c0-0.11715 0.0639-0.21301 0.142-0.21301 0.20032 0 0.27886 0.10249 0.21202 0.27667-0.0869 0.22654-0.35402 0.17851-0.35402-0.06366zm-0.79878-0.42601c-0.0868-0.14053 0.0405-0.33996 0.16712-0.26171 0.12936 0.07995 0.12851 0.36821-0.001 0.36821-0.0551 0-0.12984-0.04793-0.16604-0.1065zm-0.79877-0.53251c0-0.16041 0.0556-0.21792 0.18638-0.19273 0.10251 0.01974 0.18638 0.10647 0.18638 0.19273s-0.0839 0.17299-0.18638 0.19273c-0.13077 0.02518-0.18638-0.03232-0.18638-0.19273zm19.717-0.03653c-0.1475-0.17772 0.0288-0.43677 0.24163-0.35509 0.0938 0.03599 0.1705 0.1337 0.1705 0.21713 0 0.20593-0.27838 0.29912-0.41213 0.13796zm-0.90141-0.03447c-0.13398-0.13398-0.071-0.46151 0.0888-0.46151 0.0994 0 0.15976 0.10058 0.15976 0.26626 0 0.25858-0.1037 0.34006-0.24851 0.19526zm-19.49-0.5325c-0.14661-0.14661-0.0632-0.35501 0.14201-0.35501 0.142 0 0.213 0.071 0.213 0.21301 0 0.20525-0.2084 0.28861-0.35501 0.142zm0.96497-0.13512c-0.0299-0.11415 0.007-0.22968 0.0837-0.25892 0.17589-0.0675 0.2649 0.02315 0.2649 0.26979 0 0.25978-0.28007 0.25105-0.34857-0.01087zm-1.8522-0.06729c-0.0888-0.23132 0.13659-0.44886 0.29789-0.28756 0.13632 0.13633 0.0519 0.45447-0.12065 0.45447-0.0623 0-0.14201-0.07511-0.17724-0.16691zm21.652 0.09302c-0.12729-0.12729-0.0688-0.35212 0.0916-0.35212 0.0879 0 0.15975 0.06906 0.15975 0.15347 0 0.17793-0.15201 0.29804-0.2514 0.19865zm-0.99224-0.20311c-0.0754-0.19635 0.18222-0.40101 0.32499-0.25823 0.11625 0.11625 0.01 0.42874-0.14638 0.42874-0.0623 0-0.14263-0.07673-0.17861-0.1705zm-19.205-0.46726c0-0.05789-0.10587-0.09383-0.23527-0.07988-0.15158 0.01635-0.24907-0.04092-0.27406-0.16101-0.0271-0.13005 0.0279-0.18638 0.18201-0.18638 0.12145 0 0.22155 0.05991 0.22245 0.13313 0.001 0.09516 0.0285 0.09073 0.0957-0.01552 0.12981-0.20501 0.43513-0.06569 0.43513 0.19856 0 0.14535-0.0699 0.21635-0.21301 0.21635-0.11715 0-0.213-0.04736-0.213-0.10525zm19.703-0.09995c0-0.15242 0.0684-0.22082 0.22082-0.22082 0.15241 0 0.20977 0.05735 0.18516 0.18516-0.0535 0.27762-0.40598 0.30859-0.40598 0.03566zm0.81652 0.02769c-0.12971-0.12971-0.0734-0.35501 0.0888-0.35501 0.0888 0 0.15975 0.09467 0.15975 0.21301 0 0.21218-0.11348 0.27703-0.24851 0.142zm-22.292-0.19526c-0.0835-0.21757 0.0394-0.50654 0.19357-0.45516 0.069 0.023 0.17681 0.1242 0.23957 0.2249 0.0866 0.13896 0.0756 0.20761-0.0456 0.28491-0.22402 0.14281-0.31674 0.12973-0.3875-0.05465zm0.60051-0.42601c0-0.08787 0.0719-0.15976 0.15975-0.15976 0.0879 0 0.15976 0.07189 0.15976 0.15976s-0.0719 0.15975-0.15976 0.15975c-0.0879 0-0.15975-0.07189-0.15975-0.15975zm21.552-0.10786c-0.0797-0.20781 0.17226-0.52326 0.30888-0.38664 0.118 0.118 0.005 0.54775-0.14439 0.54775-0.0565 0-0.13049-0.0725-0.16449-0.16111zm-20.969-0.26957c-0.085-0.13751 0.1515-0.4408 0.28121-0.36064 0.0519 0.0321 0.0944 0.15139 0.0944 0.26508 0 0.21828-0.25907 0.28418-0.37564 0.09555zm-0.373-0.42c0-0.11715 0.0464-0.213 0.10316-0.213 0.0567 0 0.0757-0.07149 0.0422-0.15886-0.0612-0.15953 0.23182-0.35149 0.35244-0.23087 0.0853 0.08535-0.26948 0.81574-0.39629 0.81574-0.0558 0-0.10151-0.09585-0.10151-0.21301zm13.163 3.9971c1.3571-0.24273 2.3817-0.49246 2.6984-0.65772 0.15073-0.07866 0.36407-0.1433 0.47409-0.14367 0.11002-0.000319 0.46947-0.15436 0.79877-0.34223 0.66553-0.37968 0.64339-0.36393 1.2378-0.88066 0.23431-0.2037 0.45994-0.37148 0.5014-0.37284 0.0415-0.0014 0.20625-0.23012 0.36619-0.50836 0.15993-0.27824 0.37762-0.62019 0.48375-0.75988 0.15281-0.20116 0.19192-0.44487 0.18798-1.1715l-0.005-0.91754-0.44554-0.21904c-0.59839-0.29419-0.80183-0.79529-0.63986-1.5761 0.0625-0.30135 0.0942-0.56859 0.0704-0.59387-0.0682-0.07247-0.7856 0.65899-0.7856 0.80099 0 0.07011-0.0754 0.15641-0.16762 0.19179-0.23289 0.08937-0.1422 0.4373 0.11405 0.43754 0.25749 0.000213 0.31397 0.25296 0.1147 0.51312-0.0996 0.13005-0.31709 0.20323-0.66378 0.22336-0.2836 0.01647-0.69096 0.06573-0.90526 0.10949-0.34726 0.0709-0.42041 0.04501-0.67263-0.23807-0.15565-0.17469-0.41165-0.34588-0.5689-0.38043-0.159-0.033-0.376-0.185-0.484-0.336-0.174-0.244-0.184-0.351-0.083-0.923 0.13843-0.78591 0.3666-1.0776 0.79392-1.0149 0.25856 0.03795 0.32298-0.0018 0.41068-0.25337 0.0952-0.27308 0.35442-0.45168 0.58108-0.40036 0.13045 0.02954 0.46367-0.12838 0.46367-0.21974 0-0.15906-1.2145-0.97131-1.3656-0.91332-0.15008 0.05759-1.5486 0.4402-1.9892 0.5442-0.52871 0.1248-2.9572 0.35849-3.7276 0.3587-1.5406 0.000426-3.2604-0.23595-5.0469-0.69365-0.74808-0.19165-1.3225-0.42134-2.3325-0.93277-0.83914-0.42488-0.8054-0.45631-1.0634 0.99037-0.12558 0.70425-0.0811 0.85298 0.25493 0.85298 0.14097 0 0.34948 0.05819 0.46336 0.1293 0.17498 0.10928 0.24898 0.08991 0.47782-0.12507 0.14892-0.13991 0.27076-0.31547 0.27076-0.39014s0.16726-0.26334 0.37169-0.41926c0.40299-0.30738 0.78172-0.29707 1.146 0.0312 0.26926 0.24265 0.23305 0.41933-0.18638 0.90934-0.20502 0.23952-0.37276 0.47168-0.37276 0.51593 0 0.04424-0.17029 0.14202-0.37842 0.21728-0.33095 0.11967-0.37004 0.17064-0.31161 0.40628 0.18788 0.75776 0.55398 1.113 0.84607 0.82089 0.0983-0.09828 0.24164-0.17869 0.31858-0.17869 0.077 0 0.21561-0.11554 0.30813-0.25675 0.25857-0.39462 0.82782-0.54312 1.2727-0.332 0.27532 0.13064 0.42715 0.1449 0.64817 0.06087 0.21539-0.08189 0.38189-0.07077 0.65614 0.04381l0.3675 0.15355-0.0462 0.7196c-0.0345 0.53809-0.002 0.79357 0.12703 1.0129 0.15013 0.25416 0.15371 0.32974 0.0268 0.56681-0.0805 0.15045-0.2593 0.30188-0.3973 0.33652s-0.37649 0.22762-0.52998 0.42885c-0.27322 0.35821-0.27536 0.37365-0.10232 0.73654 0.22302 0.46766 0.22258 0.71267-0.002 1.1409-0.0983 0.18746-0.20689 0.50807-0.24125 0.71246-0.0611 0.36348-0.43198 0.61778-0.43198 0.2962 0-0.08062-0.15476-0.35704-0.34393-0.61426-0.33324-0.45314-0.44309-1.0136-0.29227-1.4913 0.0367-0.11632-0.0364-0.16274-0.26907-0.17075-0.67279-0.02316-1.1183-0.36843-1.1183-0.86672 0-0.12101-0.11518-0.24092-0.29288-0.30491-0.27424-0.09875-0.30645-0.07802-0.50589 0.32558-0.33323 0.67432-1.0118 0.63099-1.0118-0.06461 0-0.34548 0.2389-0.50261 0.47114-0.30987 0.2121 0.17603 0.3114-0.02879 0.22842-0.47112-0.0741-0.39488 0.0726-0.57302 0.30976-0.3762 0.11685 0.09698 0.18497 0.06631 0.32397-0.14582 0.17168-0.26201 0.16708-0.27646-0.18684-0.58721-0.2601-0.22837-0.41155-0.49361-0.53485-0.93666-0.13269-0.47679-0.24427-0.66068-0.48812-0.80446-0.36501-0.21522-0.61169-0.23772-0.71813-0.06551-0.0717 0.11603-0.0706 1.4805 0.001 1.8729 0.0192 0.10424 0.0662 0.71671 0.10456 1.3611 0.11363 1.909 0.24539 2.5413 0.63076 3.0271 1.0444 1.3164 3.6687 2.4266 6.3013 2.6657 1.2588 0.11432 3.4021 0.04198 4.4828-0.1513zm-4.1662-1.8717c-0.085-0.13751 0.1515-0.4408 0.28121-0.36064 0.0519 0.0321 0.0944 0.15139 0.0944 0.26508 0 0.21828-0.25907 0.28418-0.37564 0.09555zm-0.369-0.576c-0.14723-0.1774-0.061-0.37625 0.16314-0.37625 0.16626 0 0.21336 0.37642 0.059 0.4718-0.0519 0.0321-0.15192-0.0109-0.22217-0.09555zm2.4646-0.49991c0.0194-0.13701 0.10717-0.24911 0.19504-0.24911 0.23097 0 0.19915 0.41551-0.0353 0.46065-0.15124 0.02913-0.18711-0.01837-0.15976-0.21155zm-3.2916-0.14566c-0.12785-0.08955-0.26377-0.32971-0.30203-0.53369-0.0383-0.20398-0.11207-0.39714-0.16401-0.42924-0.30754-0.19007 0.17832-1.0043 0.59928-1.0043 0.13874 0 0.28187-0.04793 0.31807-0.1065 0.0362-0.05858 0.15092-0.1065 0.25494-0.1065 0.10401 0 0.31722-0.14378 0.4738-0.31951 0.15657-0.17573 0.34877-0.31951 0.42711-0.31951 0.18689 0 0.42664 0.28878 0.59683 0.7189 0.0753 0.19037 0.20213 0.34614 0.28177 0.34614 0.0796 0 0.1769 0.1279 0.21614 0.28423 0.0554 0.22061 0.0168 0.32838-0.1723 0.48151-0.134 0.10851-0.32095 0.35203-0.41544 0.54117-0.1666 0.33346-0.1898 0.34285-0.76497 0.3098-0.44028-0.0253-0.62893 0.009-0.73193 0.13313-0.17417 0.20986-0.32242 0.21092-0.61726 0.0044zm1.309-1.4081c0.20189-0.16108 0.36707-0.37675 0.36707-0.47926 0.00001-0.2387-0.065-0.23453-0.39543 0.02543-0.17848 0.14039-0.35512 0.19026-0.52389 0.14791-0.20109-0.05047-0.24317-0.02783-0.20016 0.1077 0.03 0.09438 0.0769 0.24349 0.10436 0.33136 0.0722 0.23115 0.23287 0.19815 0.64805-0.13313zm0.89959-0.02662c0-0.05858-0.0479-0.1065-0.1065-0.1065s-0.10651 0.04793-0.10651 0.1065c0 0.05858 0.0479 0.1065 0.10651 0.1065 0.0586 0 0.1065-0.04793 0.1065-0.1065zm2.5688 1.4748c-0.199-0.056-0.47-0.174-0.602-0.261-0.133-0.087-0.375-0.182-0.538-0.212-0.384-0.07-0.471-0.128-0.471-0.315 0-0.23461 0.73324-0.1926 1.2289 0.07041 0.27696 0.14696 0.64145 0.22929 1.0609 0.23963 0.59779 0.01473 0.64134-0.000639 0.67496-0.23846 0.0486-0.34335-0.19741-0.48301-0.38328-0.21764-0.11449 0.16346-0.18749 0.18335-0.35124 0.09572-0.23086-0.12355-0.27479-0.52495-0.0789-0.72085 0.16924-0.16925 0.74175-0.16309 0.97918 0.01053 0.24174 0.17676 0.37466 0.78998 0.25115 1.1586-0.15486 0.46214-0.92937 0.63303-1.7714 0.39086zm-2.2493-0.24113c0-0.17898 0.0584-0.27513 0.16716-0.27513 0.11101 0 0.15573 0.07769 0.13313 0.23129-0.0502 0.34097-0.30029 0.37749-0.30029 0.04384zm5.8539-1.3979c-0.0969-0.11672-0.10333-0.19727-0.0223-0.27828 0.15248-0.15248 0.34558-0.0207 0.34558 0.23583 0 0.24873-0.13712 0.26673-0.32326 0.04245zm0.74927-0.35685c0-0.2537 0.28059-0.37294 0.36429-0.15481 0.0785 0.20451-0.0114 0.35642-0.21082 0.35642-0.0844 0-0.15347-0.09073-0.15347-0.20161zm0.58288-0.33557c-0.0998-0.1615 0.17072-0.45587 0.30007-0.32652 0.11945 0.11944 0.0265 0.43768-0.1278 0.43768-0.057 0-0.13448-0.05003-0.17227-0.11117zm-3.2218-0.37413c-0.29214-0.20462-0.31487-0.64707-0.0378-0.73502 0.49202-0.15616 1.0482 0.39328 0.75535 0.74617-0.16619 0.20024-0.42145 0.19627-0.71758-0.01115zm-6.2469-0.23528c-0.0332-0.03324-0.0604-0.26103-0.0604-0.5062 0-0.58741 0.34968-1.1032 0.95533-1.4092 0.43717-0.22085 1.0682-0.32513 1.0682-0.17652 0 0.03472-0.12689 0.42055-0.28198 0.85742-0.20952 0.59016-0.35322 0.83096-0.55914 0.93691-0.37652 0.19373-1.0478 0.37175-1.122 0.29754zm0.98451-0.88111c0.2287-0.21307 0.32235-0.63487 0.14095-0.63487-0.17473 0-0.62733 0.4214-0.68357 0.63645-0.0756 0.28901 0.23166 0.28812 0.54262-0.0016zm-7.012-0.21435c-0.0643-0.12018-0.10195-0.32386-0.0836-0.45264 0.0258-0.18175 0.10481-0.23414 0.35283-0.23414 0.24801 0 0.32696 0.05239 0.35282 0.23414 0.0423 0.29734-0.1542 0.67114-0.35282 0.67114-0.0838 0-0.20489-0.09832-0.2692-0.2185zm8.6563-0.38455c-0.19819-0.07997-0.16092-0.51032 0.0616-0.71173 0.10712-0.09694 0.32279-0.17626 0.47926-0.17626 0.22505 0 0.2845 0.05069 0.2845 0.24256 0 0.50344-0.40073 0.81679-0.8254 0.64543zm-4.2884 4.078c-0.003-0.65095-0.32398-0.77081-0.54029-0.20187-0.13814 0.36336 0.15282 0.85789 0.38929 0.66164 0.084-0.06967 0.15189-0.27656 0.151-0.45976zm-0.29885-2.0371c0.11519-0.14644 0.29898-0.26626 0.40842-0.26626 0.25305 0 0.37801-0.19566 0.22359-0.35009-0.0652-0.06519-0.11852-0.21038-0.11852-0.32265 0-0.15066 0.0549-0.18976 0.20982-0.14926 0.20194 0.05281 0.20294 0.04539 0.0266-0.19724-0.23293-0.32053-0.32447-0.32129-0.44521-0.0037-0.0533 0.1403-0.15999 0.27858-0.237 0.30729-0.10363 0.03863-0.0873 0.0927 0.0626 0.20802 0.2215 0.17031 0.15206 0.40114-0.12068 0.40114-0.2981 0-0.56123-0.33231-0.56123-0.70878 0-0.19594-0.0479-0.35625-0.10651-0.35625-0.0586 0-0.1065 0.09704-0.1065 0.21564 0 0.13202-0.10325 0.2549-0.26626 0.31687-0.31021 0.11794-0.32462 0.18879-0.10284 0.50542 0.1282 0.18303 0.23148 0.2197 0.47926 0.17014 0.28596-0.05719 0.31585-0.03671 0.31585 0.2164 0 0.34877 0.0724 0.35162 0.33854 0.01331zm10.74-1.2827c0.1336-0.24964 0.12169-0.29254-0.1516-0.54596-0.20786-0.19274-0.27925-0.3427-0.2386-0.50122 0.17777-0.69319 0.19151-0.81196 0.0939-0.81196-0.0581 0-0.13437 0.14378-0.16951 0.31951-0.0513 0.25664-0.11836 0.31951-0.34063 0.31951-0.40688 0-0.29712 0.30583 0.20282 0.56512 0.37812 0.19611 0.40609 0.24125 0.35283 0.56946-0.0687 0.42337 0.0486 0.46336 0.25077 0.08553zm10.648-1.6006c0-0.0852 0.0599-0.25304 0.13313-0.37296 0.1136-0.18607 0.10199-0.24112-0.0792-0.37538-0.19239-0.14258-0.22138-0.13698-0.30916 0.05974-0.11661 0.26135-0.36479 0.28408-0.45772 0.04192-0.04-0.10434 0.006-0.22842 0.11298-0.30691 0.16687-0.12202 0.16716-0.13676 0.004-0.19944-0.097-0.03723-0.24423-0.01138-0.32715 0.05744-0.18433 0.15298-0.32376 0.02815-0.37236-0.33337-0.0222-0.16477-0.11629-0.27983-0.24865-0.30388-0.11715-0.02129-0.28489-0.09556-0.37276-0.16505-0.0879-0.06949-0.3345-0.20517-0.54807-0.30151l-0.38832-0.17517 0.0155 0.40742c0.0152 0.39775 0.0238 0.4061 0.36169 0.35182 0.3121-0.05013 0.34613-0.02972 0.34613 0.2075 0 0.28818 0.40885 0.55107 0.68953 0.44336 0.10468-0.04017 0.19491 0.03182 0.26242 0.20939 0.0566 0.14884 0.21211 0.32906 0.34559 0.4005 0.1335 0.07144 0.33133 0.24255 0.43964 0.38025 0.20329 0.25843 0.39288 0.24605 0.39288-0.02566zm-8.8903-0.36936c0.0377-0.06096 0.16028-0.0817 0.27246-0.0461 0.15092 0.0479 0.22993-0.0036 0.30383-0.19793 0.11536-0.30344 0.50131-0.60366 0.77602-0.60366 0.12732 0 0.18931-0.08137 0.18931-0.24851 0-0.35353-0.0925-0.40324-0.42764-0.22992-0.27231 0.14082-0.31476 0.13298-0.57226-0.10567-0.49518-0.45891-0.27768-1.12 0.36849-1.12 0.41232 0 0.39797-0.1943-0.0462-0.62476l-0.35805-0.34704-0.8224 0.49929c-0.60165 0.36527-0.80758 0.54572-0.76717 0.67228 0.0304 0.09514 0.14182 0.40056 0.24765 0.67871 0.16245 0.42696 0.17069 0.54051 0.0529 0.7291-0.1176 0.18831-0.11328 0.25235 0.0275 0.40794 0.0919 0.10151 0.16703 0.23111 0.16703 0.28801 0 0.27696 0.45267 0.46791 0.58844 0.24821zm-0.0825-0.7911c-0.16109-0.14266-0.29289-0.33075-0.29289-0.41796 0-0.26577 0.23708-0.3244 0.41664-0.10304 0.093 0.11468 0.25654 0.24198 0.36338 0.28288 0.2259 0.08649 0.19967 0.43269-0.0357 0.47142-0.0872 0.01435-0.29033-0.09064-0.45141-0.2333zm-0.471-0.862c-0.0888-0.23132 0.13658-0.44886 0.29788-0.28756 0.13633 0.13633 0.0519 0.45447-0.12065 0.45447-0.0623 0-0.14201-0.07511-0.17723-0.16691zm-14.315 0.95132c0.26787-0.34054 0.28153-0.49222 0.0401-0.44574-0.0993 0.01913-0.27149 0.19039-0.38257 0.38057-0.17038 0.29173-0.17665 0.34579-0.0401 0.34579 0.089 0 0.26116-0.12628 0.38256-0.28062zm24.236-0.57564c-0.0726-0.22862 0.1328-0.38617 0.29367-0.2253 0.081 0.08101 0.0745 0.16156-0.0223 0.27828-0.18789 0.2264 0.0746 0.22539 0.39857-0.0015 0.22238-0.15576 0.35025-0.44947 0.13879-0.31878-0.0539 0.03328-0.16169-0.0033-0.23963-0.0812-0.14564-0.14564-0.22307-0.17975-0.40798-0.17975-0.14665 0-0.13442-0.28968 0.0162-0.38275 0.0675-0.04169 0.18004 0.0027 0.25017 0.09856 0.0701 0.0959 0.15841 0.14346 0.1962 0.10568 0.0378-0.03778 0.16483 0.01832 0.28235 0.12466 0.2444 0.22118 0.27313 0.11642 0.0805-0.29362-0.34272-0.72964-0.93891-0.59882-1.1946 0.26212-0.22512 0.75805-0.21455 0.93082 0.0527 0.86094 0.14963-0.03913 0.19738-0.11512 0.15542-0.24732zm-6.7574-0.05117c0.17221-0.08905 0.34156-0.15695 0.37635-0.15088 0.0348 0.0061 0.0849-0.0106 0.11131-0.03704 0.0265-0.02644-0.10517-0.07872-0.29247-0.11618-0.2422-0.04844-0.39707-0.01697-0.53622 0.10896-0.38976 0.35273-0.18751 0.46847 0.34103 0.19515zm-22.084-0.27308c0.14311-0.14311 0.0506-0.54669-0.11307-0.49305-0.14148 0.04638-0.22896 0.60853-0.0947 0.60853 0.0508 0 0.14424-0.05197 0.20776-0.11548zm13.027-0.06152c2.0454-0.25978 2.9542-0.49958 3.323-0.87679 0.36854-0.37695 0.86437-0.54282 1.4392-0.48146 0.34253 0.03656 0.51529-0.03334 1.1487-0.4648 0.53984-0.36773 0.75427-0.5806 0.77724-0.77156 0.0174-0.14505 0.12818-0.50879 0.2461-0.80833 0.19989-0.50778 0.36693-0.66708 0.86709-0.82693 0.21048-0.06727 0.26334-0.64514 0.0699-0.76466-0.064-0.03958-0.31565 0.11855-0.55914 0.35139-2.5273 2.4168-8.3807 3.5797-13.33 2.6483-1.3663-0.25716-2.4118-0.59966-3.4764-1.1389l-0.38784-0.19644-0.046 0.31308c-0.0414 0.28232-0.0217 0.30701 0.20048 0.25124 0.42253-0.10605 0.45056 0.26093 0.0452 0.59178-0.32762 0.26739-0.33488 0.28883-0.15038 0.44401 0.21741 0.18287 0.74827 0.5225 0.8167 0.5225 0.0245 0 0.0696-0.09585 0.10028-0.21301 0.0581-0.22197 0.33536-0.28941 0.44704-0.1087 0.0355 0.05737 0.0126 0.20114-0.0507 0.31951-0.14438 0.26978 0.0519 0.29657 0.32986 0.04502 0.24128-0.21836 0.43312-0.10092 0.35349 0.21638-0.0506 0.20172-0.01 0.25914 0.22518 0.31816 0.15782 0.03961 0.29329 0.05771 0.30102 0.04021 0.24341-0.55076 0.55369-0.6227 0.53214-0.12339-0.0137 0.3167 0.0122 0.33969 0.4875 0.43368 0.483 0.0955 0.50023 0.09039 0.45703-0.13557-0.0528-0.27635 0.082-0.39149 0.29977-0.256 0.12603 0.07841 0.13037 0.13545 0.0234 0.30801-0.11935 0.1926-0.0987 0.2179 0.22845 0.27926 0.44939 0.08431 2.5643 0.23002 3.4174 0.23545 0.35146 0.0022 1.1902-0.06593 1.8638-0.15148zm-4.5067-0.28928c-0.0645-0.1682 0.11654-0.38574 0.32109-0.38574 0.0767 0 0.13846 0.11879 0.13846 0.26626 0 0.19024-0.0576 0.26626-0.20162 0.26626-0.11088 0-0.22695-0.06605-0.25793-0.14678zm-2.519-1.0737c-0.12321-0.14845-0.1199-0.19982 0.022-0.34173 0.0918-0.09186 0.21953-0.13455 0.28373-0.09487 0.15228 0.09411 0.14726 0.1901-0.022 0.42159-0.12811 0.1752-0.14983 0.17635-0.28373 0.01501zm0.89541 0.03876c-0.11255-0.18211 0.24256-0.4884 0.39246-0.33851 0.0668 0.06677 0.0926 0.19652 0.0574 0.28832-0.0737 0.19208-0.34352 0.22219-0.44982 0.05019zm-2.0236-0.31951c-0.11422-0.18482 0.24272-0.48825 0.39511-0.33586 0.0944 0.0944 0.0915 0.16332-0.0123 0.28832-0.16066 0.19358-0.28317 0.2088-0.38283 0.04754zm-1.2185-0.20653c0-0.1962 0.33971-0.63527 0.49151-0.63527 0.21996 0 0.17812 0.35246-0.0667 0.5621-0.24112 0.20646-0.42479 0.23809-0.42479 0.07317zm14.484 1.8002c0-0.2846-0.45117-0.83797-0.6832-0.83797-0.42399 0-0.40709 0.14758 0.0635 0.55444 0.485 0.41936 0.61974 0.481 0.61974 0.28353zm-17.382-0.11938c0.17284-0.20826-0.0845-0.49465-0.35101-0.39064-0.1171 0.0457-0.14741 0.08646-0.0674 0.09058 0.092 0.0047 0.12506 0.08586 0.0899 0.22049-0.0629 0.24067 0.15168 0.29265 0.32852 0.07957zm0.77958-0.3485c-0.005-0.13691-0.43822-0.20303-0.43822-0.06687 0 0.11218 0.20882 0.22488 0.35412 0.19112 0.0483-0.01123 0.0862-0.06714 0.0841-0.12425zm21.814-0.293c-0.003-0.06976-0.14702-0.23832-0.31951-0.37458-0.30889-0.244-0.31362-0.2444-0.31362-0.02663 0 0.1371-0.0688 0.22111-0.18105 0.22111-0.14419 0-0.15413 0.02692-0.0488 0.13224 0.10531 0.10532 0.15019 0.10318 0.22044-0.01048 0.12141-0.19646 0.49205-0.10201 0.47409 0.12081-0.008 0.09963 0.0279 0.15488 0.0799 0.12276 0.052-0.03211 0.0918-0.11547 0.0886-0.18523zm-1.0591-0.45638c0-0.23127-0.0264-0.2496-0.21436-0.149-0.17428 0.09328-0.1932 0.15426-0.10116 0.32624 0.14262 0.26648 0.31552 0.16935 0.31552-0.17724zm-0.63901-0.20926c0-0.09132-0.0479-0.13642-0.10651-0.10022-0.0586 0.0362-0.1065 0.11092-0.1065 0.16604s0.0479 0.10022 0.1065 0.10022 0.10651-0.07472 0.10651-0.16604zm1.8548-0.81911c0.0328-0.30753 0.0798-0.80913 0.10444-1.1147l0.0448-0.55553-0.36865 0.01386c-0.51757 0.01946-0.60491 0.23616-0.4745 1.1772 0.0712 0.51391 0.1675 0.81173 0.29179 0.90262 0.29489 0.21563 0.33887 0.16931 0.40207-0.4235zm-20.668-0.1014c0.15477-0.24578 0.0304-0.34213-0.24876-0.19273-0.17388 0.09306-0.26571 0.092-0.38188-0.0044-0.2118-0.17578-0.19233-0.0014 0.0269 0.24084 0.20888 0.2308 0.44151 0.21396 0.60377-0.0437zm6.5976-0.09127c0.0705-0.2695 0.29153-0.26567 0.36265 0.0063 0.0306 0.11715 0.11877 0.21301 0.19586 0.21301 0.0771 0 0.17058-0.09585 0.20776-0.21301 0.0372-0.11715 0.14075-0.21301 0.23015-0.21301s0.18762 0.09585 0.21825 0.21301c0.0306 0.11715 0.11642 0.21301 0.19062 0.21301 0.19062 0 0.27048-0.5081 0.0907-0.57709-0.18858-0.07236-0.18508-0.34287 0.005-0.41596 0.19718-0.07567 0.27667 0.01585 0.27667 0.31853 0 0.13668 0.0479 0.24851 0.1065 0.24851s0.1065 0.09585 0.1065 0.21301c0 0.16567 0.071 0.21301 0.31951 0.21301 0.24527 0 0.31951-0.04803 0.31951-0.20672 0-0.1137 0.05-0.23764 0.11117-0.27543 0.15203-0.09396 0.42117 0.14567 0.35558 0.31659-0.0377 0.0982 0.0249 0.12347 0.21545 0.08704 0.1477-0.02823 0.26462-0.08203 0.25983-0.11954-0.0565-0.44139 0.30466-0.63709 0.41276-0.2237 0.0515 0.19694 0.0737 0.202 0.23711 0.05411 0.15362-0.13902 0.20963-0.14169 0.37874-0.01804 0.17116 0.12516 0.35327 0.10352 1.3238-0.15731 0.61897-0.16634 1.3997-0.41042 1.735-0.5424 0.56491-0.22238 0.60784-0.2633 0.58577-0.55831-0.0293-0.39098 0.32709-0.53964 0.42216-0.17611 0.0731 0.27938 0.20586 0.28381 0.35147 0.01172 0.082-0.15312 0.0764-0.2686-0.0202-0.42335-0.10676-0.17095-0.10582-0.2395 0.005-0.34859 0.11169-0.1102 0.16383-0.10032 0.27668 0.05244 0.0799 0.10818 0.20989 0.16105 0.30561 0.12432 0.19267-0.07393 0.11978-0.3658-0.0913-0.3658-0.19116 0-0.27608-0.15667-0.19685-0.36315 0.0895-0.23329 0.37023-0.21307 0.43412 0.03127 0.0355 0.13591 0.11822 0.18344 0.25629 0.14733 0.26099-0.06825 0.25821-0.19697-0.009-0.42593-0.11715-0.10031-0.213-0.23619-0.213-0.30196s0.0959-0.20632 0.213-0.31235c0.21157-0.19147 0.29477-0.58577 0.1236-0.58577-0.0492 0-0.144 0.11982-0.21072 0.26626-0.0667 0.14644-0.16468 0.26626-0.21768 0.26626s-0.12175 0.09709-0.15278 0.21574c-0.0491 0.18774-0.11286 0.20672-0.49111 0.14624-0.26915-0.04304-0.49037-0.0233-0.58089 0.05183-0.20764 0.17232-0.48369-0.14718-0.29243-0.33844 0.0707-0.07074 0.18397-0.12862 0.25162-0.12862 0.0677 0 0.15006-0.11463 0.18313-0.25473 0.032-0.143 0.214-0.3394 0.409-0.4438 0.219-0.1175 0.305-0.2161 0.229-0.2632-0.068-0.0415-0.176-0.022-0.241 0.0431-0.182 0.1819-0.285 0.1434-0.395-0.1477-0.115-0.3024-0.237-0.3349-0.421-0.1128-0.178 0.2147-0.431 0.0868-0.431-0.2181 0-0.1402-0.036-0.256-0.08-0.2574s-0.256-0.0434-0.471-0.0934c-0.314-0.0729-0.38-0.0619-0.335 0.0558 0.031 0.08066 0.12304 0.14665 0.20463 0.14665 0.0816 0 0.14837 0.0965 0.14837 0.21445s0.057 0.30576 0.12672 0.41736c0.0998 0.15981 0.0961 0.23982-0.0175 0.37666-0.12996 0.1566-0.16042 0.15753-0.30853 0.0094-0.12-0.1202-0.133-0.196-0.047-0.2822 0.195-0.1943-0.235-0.5576-0.495-0.4186-0.501 0.2682-0.599-0.0724-0.138-0.4786 0.24315-0.21402 0.26002-0.25835 0.0993-0.26115-0.10645-0.0018-0.35174 0.16438-0.54509 0.3694-0.35547 0.37691-0.53082 0.45249-0.63998 0.27587-0.0887-0.14349 0.0495-0.43562 0.20604-0.43562 0.21396 0 0.2828-0.42386 0.0709-0.43674-0.096-0.0059-0.427-0.0308-0.733-0.0552-0.457-0.0366-0.596-0.0054-0.776 0.1743-0.248 0.2485-0.469 0.1805-0.39-0.1204 0.035-0.1362-0.004-0.2026-0.124-0.206-0.097-0.0028-0.401-0.0251-0.676-0.0495-0.495-0.044-0.5-0.0413-0.532 0.297-0.046 0.4691-0.371 0.5288-0.522 0.0958-0.099-0.284-0.154-0.3152-0.519-0.2964-0.225 0.0116-0.481 0.0811-0.57 0.1545-0.096 0.08-0.186 0.0927-0.224 0.0319-0.084-0.1373-0.803-0.088-1.103 0.0755-0.133 0.07261-0.28877 0.10302-0.34613 0.06756-0.0574-0.03546-0.1043 0.0074-0.1043 0.09529 0 0.28471-0.24062 0.32123-0.44593 0.06768-0.109-0.1347-0.21-0.2262-0.225-0.2033-0.10351 0.1654-0.30931 0.8351-0.32374 1.0535-0.0247 0.3735-0.33563 0.35291-0.342-0.02264-0.003-0.1589-0.0369-0.32096-0.0761-0.36014s-0.0208-0.16552 0.0409-0.28076c0.10398-0.19429 0.0863-0.20407-0.24338-0.13453-0.37285 0.07865-0.6668 0.26556-0.41764 0.26556 0.0892 0 0.11933 0.07991 0.0828 0.21952-0.0352 0.13435 0.001 0.24207 0.0941 0.27765 0.0833 0.03197 0.15149 0.10914 0.15149 0.17148s0.0766 0.19797 0.17018 0.3014c0.0936 0.10343 0.13871 0.239 0.10022 0.30127-0.114 0.1853-0.357 0.1288-0.43-0.0998-0.037-0.1172-0.105-0.2131-0.151-0.2131s-0.172-0.2156-0.281-0.4792c-0.221-0.5358-0.23-0.5416-0.543-0.3228-0.278 0.1948-0.401 0.589-0.183 0.589 0.0842 0 0.18071 0.07189 0.21442 0.15976 0.0337 0.08786 0.12294 0.15975 0.19827 0.15975 0.15673 0 0.29616 0.29146 0.20782 0.4344-0.0325 0.05262 0.0148 0.06729 0.10526 0.03259 0.24305-0.09327 0.30415 0.19378 0.11746 0.55179-0.20572 0.39449-0.20694 0.56908-0.005 0.64675 0.20244 0.07768 0.20525 0.29418 0.006 0.45958-0.12356 0.10255-0.18094 0.08417-0.29187-0.09346-0.0759-0.1216-0.19844-0.2211-0.27221-0.2211-0.17886 0-0.16939-0.22755 0.025-0.60022 0.21306-0.40852 0.2014-0.56209-0.0379-0.49951-0.20405 0.05336-0.38907-0.21637-0.27501-0.40092 0.0329-0.05329 0.009-0.09689-0.0529-0.09689-0.062 0-0.11279-0.09585-0.11279-0.21301 0-0.1562-0.071-0.21301-0.26626-0.21301-0.14644 0-0.26626-0.05591-0.26626-0.12425s-0.0218-0.10245-0.0485-0.0758c-0.0901 0.09013 0.21499 0.78558 0.35835 0.81681 0.17307 0.03769 0.53369 0.45501 0.53859 0.62326 0.006 0.19595-0.28883 0.2523-0.42996 0.08225-0.11362-0.1369-0.15165-0.13612-0.30905 0.0063-0.0987 0.08935-0.23564 0.16244-0.30424 0.16244s-0.12474 0.06657-0.12474 0.14792c0 0.08136 0.0838 0.14126 0.18632 0.13313 0.11799-0.0094 0.19883 0.0731 0.22042 0.22484 0.0259 0.18229-0.0186 0.23963-0.18633 0.23963-0.12283 0-0.22041-0.06925-0.22041-0.15641 0-0.18702-0.31194-0.09767-0.49049 0.14049-0.14259 0.19018-0.46804 0.09017-0.46804-0.14383 0-0.09154 0.0771-0.19603 0.17137-0.2322 0.0943-0.03617 0.29296-0.17844 0.44156-0.31617 0.24215-0.22441 0.24893-0.2504 0.0654-0.2504-0.11265 0-0.3657-0.14694-0.56233-0.32654-0.19664-0.1796-0.3958-0.28743-0.44258-0.23963-0.11777 0.12032 0.12777 0.42627 0.38129 0.47509 0.26833 0.05167 0.3368 0.38966 0.0975 0.48147-0.11612 0.04456-0.23539-0.0014-0.32628-0.12568-0.0788-0.10775-0.1754-0.16376-0.2147-0.12446s0.008 0.15896 0.10455 0.26592c0.14783 0.16336 0.15368 0.225 0.0365 0.38522-0.13295 0.18182-0.14822 0.18201-0.32626 0.004-0.17617-0.17617-0.19693-0.17644-0.36555-0.0048-0.0983 0.10012-0.13085 0.17318-0.0723 0.16236 0.25718-0.04751 0.37276 0.02025 0.37276 0.21855 0 0.11715 0.0479 0.21301 0.1065 0.21301s0.10651-0.06906 0.10651-0.15347c0-0.23729 0.2161-0.31509 0.39058-0.14061 0.13852 0.13852 0.13731 0.17697-0.0102 0.3245-0.26108 0.26109-0.20927 0.42919 0.10775 0.34962 0.21076-0.0529 0.28679-0.02445 0.32498 0.12162 0.0274 0.10487 0.17905 0.25164 0.33695 0.32615 0.24581 0.116 0.30555 0.11025 0.41543-0.04002 0.17537-0.23983 0.45808-0.10839 0.45808 0.21298 0 0.21846 0.0928 0.29664 0.55914 0.47091 0.62362 0.23306 2.6345 0.60605 3.3973 0.63016 0.40798 0.01289 0.50463-0.02074 0.54918-0.19108zm-2.0203-0.37364c-0.0352-0.0918-0.009-0.22154 0.0573-0.28832 0.1499-0.1499 0.50501 0.1564 0.39246 0.33851-0.1063 0.172-0.3761 0.14189-0.44981-0.05019zm4.1536 0c-0.0769-0.2003 0.11161-0.41873 0.27447-0.31808 0.17555 0.1085 0.13882 0.485-0.0473 0.485-0.0897 0-0.19192-0.07511-0.22715-0.16691zm1.8136-0.09863c-0.0369-0.09613-0.016-0.22585 0.0464-0.28827 0.16227-0.16227 0.46972-0.01396 0.42733 0.20614-0.0472 0.24516-0.38848 0.30432-0.47375 0.08213zm1.0588-0.12262c-0.038-0.09916 0.001-0.22623 0.0898-0.29288 0.0864-0.06475 0.1885-0.2016 0.22697-0.30411 0.0385-0.10251 0.12087-0.18638 0.18312-0.18638 0.19182 0 0.2581 0.34245 0.0906 0.46804-0.0864 0.06475-0.1885 0.2016-0.22697 0.30411-0.0881 0.23484-0.27549 0.24063-0.36352 0.01123zm-5.6593-0.1615c0.0194-0.13701 0.10716-0.24911 0.19503-0.24911 0.23097 0 0.19915 0.41551-0.0353 0.46066-0.15124 0.02913-0.18711-0.01837-0.15976-0.21155zm4.1024 0.16137c-0.15667-0.15667-0.0743-0.47955 0.11316-0.44346 0.10251 0.01974 0.18638 0.1271 0.18638 0.23857 0 0.21189-0.17371 0.33072-0.29954 0.20489zm-6.4967-0.21301c-0.15075-0.15076-0.0654-0.35723 0.1476-0.35723 0.14888 0 0.2096 0.05784 0.18638 0.17755-0.038 0.19602-0.21983 0.29383-0.33398 0.17968zm3.7264-0.08056c-0.0668-0.17418 0.0117-0.27667 0.21202-0.27667 0.0781 0 0.14201 0.09585 0.14201 0.21301 0 0.24217-0.2671 0.2902-0.35403 0.06366zm1.2129-0.0022c-0.16533-0.1992-0.0604-0.38097 0.21988-0.38097 0.15922 0 0.2054 0.05931 0.18009 0.23129-0.0425 0.28902-0.22703 0.35807-0.39997 0.14968zm0.78257 0.0057c-0.0799-0.2083 0.029-0.38671 0.23608-0.38671 0.10456 0 0.14896 0.08096 0.12684 0.23129-0.0413 0.28085-0.27619 0.38144-0.36292 0.15543zm1.8024-0.12762c-0.0888-0.23132 0.13658-0.44886 0.29788-0.28756 0.13633 0.13634 0.0519 0.45448-0.12064 0.45448-0.0623 0-0.14201-0.07511-0.17724-0.16691zm2.913-0.22138c-0.15667-0.15667-0.0743-0.47955 0.11316-0.44346 0.10251 0.01974 0.18638 0.1271 0.18638 0.23857 0 0.21189-0.17371 0.33072-0.29954 0.20489zm-3.549-0.19676c-0.0369-0.09613-0.016-0.22585 0.0464-0.28827 0.16227-0.16227 0.46972-0.01396 0.42733 0.20614-0.0472 0.24516-0.38849 0.30432-0.47375 0.08214zm-8.8785-0.15265c0-0.15242 0.0684-0.22082 0.22081-0.22082 0.15242 0 0.20977 0.05735 0.18516 0.18516-0.0535 0.27762-0.40597 0.30859-0.40597 0.03566zm0.71552 0.06764c-0.0312-0.08141-0.0181-0.21056 0.0291-0.28701 0.11947-0.19331 0.45073-0.04402 0.40693 0.18339-0.0443 0.22992-0.35888 0.30468-0.43603 0.10362zm3.0478-0.02936c-0.0888-0.23132 0.13658-0.44886 0.29788-0.28756 0.13633 0.13633 0.0519 0.45447-0.12064 0.45447-0.0623 0-0.14201-0.07511-0.17724-0.16691zm2.7563 0.07467c-0.16584-0.10254-0.057-0.44027 0.14184-0.44027 0.0781 0 0.17454 0.05253 0.21422 0.11672 0.10141 0.16409-0.18826 0.4273-0.35606 0.32355zm1.0087 0.02346c-0.16407-0.16407-0.069-0.46373 0.14719-0.46373 0.16567 0 0.21196 0.05745 0.18638 0.23129-0.0354 0.2402-0.20653 0.35948-0.33357 0.23244zm0.70764-0.09923c-0.0355-0.09241 0.006-0.23859 0.0924-0.32485 0.13812-0.13812 0.1732-0.13713 0.29386 0.0083 0.10952 0.13196 0.11041 0.19716 0.004 0.32485-0.17084 0.20585-0.30963 0.20291-0.39067-0.0083zm1.6425 0.03488c-0.0723-0.1966 0.0234-0.39939 0.18851-0.39939 0.19347 0 0.27896 0.15572 0.19936 0.36315-0.0774 0.20168-0.31874 0.22423-0.38787 0.03624zm-10.447-0.15088c-0.1301-0.13011-0.0732-0.43789 0.0928-0.50157 0.18603-0.07139 0.31687 0.17005 0.22371 0.41282-0.0649 0.16912-0.19863 0.20662-0.3165 0.08875zm11.578-0.08365c-0.0826-0.21521 0.0402-0.37786 0.28532-0.37786 0.21671 0 0.24951 0.08406 0.14207 0.36405-0.081 0.2111-0.34837 0.21974-0.42739 0.01381zm-1.7088-0.22526c-0.0352-0.0918-0.0118-0.21917 0.0521-0.28304 0.15378-0.15377 0.45491 0.08635 0.37369 0.29799-0.0779 0.20303-0.34573 0.19363-0.42577-0.01495zm-3.7634-0.14631c0-0.1137 0.0382-0.23035 0.085-0.25923 0.15176-0.09379 0.3739 0.12023 0.30667 0.29545-0.0924 0.24065-0.39163 0.21298-0.39163-0.03622zm4.7219 0.03981c-0.0969-0.25257 0.13023-0.43069 0.33379-0.26176 0.12615 0.10469 0.1368 0.1721 0.0447 0.28304-0.15949 0.19217-0.29964 0.18429-0.37852-0.02129zm-9.6772-0.05076c-0.0739-0.11954 0.12825-0.42135 0.28218-0.42135 0.0514 0 0.0935 0.11982 0.0935 0.26626 0 0.27036-0.24253 0.37049-0.37565 0.15509zm6.5933-0.04349c-0.075-0.19531 0.0341-0.37786 0.22579-0.37786 0.19584 0 0.28192 0.15477 0.20195 0.36315-0.0813 0.21184-0.34857 0.22103-0.42774 0.01471zm0.77827 0.08587c-0.16407-0.16407-0.069-0.46373 0.14719-0.46373 0.16567 0 0.21196 0.05745 0.18638 0.23129-0.0354 0.2402-0.20653 0.35948-0.33357 0.23244zm0.7788-0.19748c0-0.21112 0.0468-0.27287 0.18638-0.24598 0.10251 0.01974 0.18638 0.13043 0.18638 0.24598s-0.0839 0.22624-0.18638 0.24598c-0.1396 0.02689-0.18638-0.03486-0.18638-0.24598zm4.3128 0.1588c-0.0365-0.0591-0.0361-0.20288 0.00071-0.31951 0.0555-0.1746 0.0185-0.21205-0.20944-0.21205-0.32142 0-0.45978-0.2507-0.26673-0.48331 0.11928-0.14373 0.15303-0.14358 0.31318 0.0013 0.0987 0.08934 0.2596 0.16244 0.3575 0.16244 0.19955 0 0.24189 0.26745 0.0601 0.37979-0.0836 0.05167-0.0791 0.09681 0.0155 0.15529 0.0734 0.04534 0.10395 0.15917 0.068 0.25294-0.074 0.19282-0.2397 0.22364-0.33895 0.06305zm-8.4097-0.31293c-0.0936-0.15152 0.0258-0.32513 0.22363-0.32513 0.0933 0 0.14676 0.07483 0.12684 0.17756-0.0415 0.21391-0.25413 0.30345-0.35047 0.14758zm7.079-0.09803c0-0.27221 0.20762-0.40705 0.32969-0.21412 0.12438 0.19659 0.0643 0.35224-0.15213 0.39421-0.11837 0.02296-0.17756-0.03707-0.17756-0.18009zm-1.8713-0.04844c-0.0377-0.09826-0.0377-0.25906 0-0.35733 0.0642-0.16722 0.08-0.16722 0.24722 0s0.16722 0.19011 0 0.35733c-0.16721 0.16722-0.18305 0.16722-0.24722 0zm-3.2409-0.17866c0-0.16041 0.0556-0.21791 0.18638-0.19273 0.10251 0.01974 0.18638 0.10647 0.18638 0.19273s-0.0839 0.17299-0.18638 0.19273c-0.13077 0.02519-0.18638-0.03232-0.18638-0.19273zm4.2684 0.06326c-0.15016-0.18092-0.0703-0.38277 0.15145-0.38277 0.2306 0 0.30718 0.21772 0.13658 0.38832-0.13551 0.1355-0.17154 0.13481-0.28803-0.0056zm2.7702-0.04561c-0.0815-0.15236-0.0754-0.23826 0.023-0.31989 0.18018-0.14954 0.4238 0.01371 0.37743 0.25292-0.0532 0.27438-0.27001 0.31064-0.40042 0.06697zm-4.444-0.07091c-0.0873-0.22752 0.0323-0.47926 0.22774-0.47926 0.22581 0 0.32019 0.28595 0.15863 0.48062-0.16773 0.2021-0.30849 0.20161-0.38637-0.0013zm-4.8716-0.11161c-0.0834-0.21738 0.004-0.36765 0.21393-0.36765 0.10456 0 0.14896 0.08096 0.12684 0.23129-0.0422 0.28676-0.25099 0.37031-0.34077 0.13636zm4.1128 0.04093c-0.0925-0.09252-0.0951-0.16456-0.01-0.26759 0.18839-0.22699 0.42971-0.17129 0.39122 0.0903-0.0405 0.27548-0.20639 0.35253-0.38163 0.17729zm-0.62842-0.25598c-0.0888-0.23132 0.13659-0.44886 0.29788-0.28756 0.13633 0.13633 0.0519 0.45447-0.12064 0.45447-0.0622 0-0.14201-0.07511-0.17724-0.16691zm4.1178-0.04873c0-0.06003-0.1233-0.15602-0.27401-0.21332-0.30342-0.11536-0.32271-0.45078-0.0292-0.50731 0.24106-0.04642 0.76989 0.4636 0.69177 0.66717-0.0694 0.18096-0.38859 0.22487-0.38859 0.05346zm-6.1892-0.17157c-0.10873-0.13101-0.10517-0.17981 0.0189-0.2582 0.19831-0.12535 0.35775-0.07127 0.39776 0.13494 0.0446 0.22976-0.25472 0.31832-0.4166 0.12326zm3.9149-0.14709c-0.16969-0.17979-0.27707-0.38951-0.2438-0.47619 0.0842-0.21937 0.81984-0.17987 1.0477 0.05625 0.0992 0.10284 0.23964 0.20673 0.31204 0.23086 0.079 0.02632 0.10227 0.12042 0.0582 0.23517-0.0538 0.14029-0.14239 0.17398-0.33214 0.12635-0.14231-0.03572-0.28847-0.01684-0.32481 0.04195-0.10333 0.1672-0.19153 0.13064-0.51719-0.2144zm-0.997-0.169c-0.0908-0.23661 0.19284-0.39332 0.37759-0.20863 0.0802 0.08013 0.11327 0.19821 0.0736 0.26241-0.10715 0.17336-0.37634 0.14128-0.45119-0.05378zm-1.5638-0.1164c-0.14241-0.14241-0.0697-0.45253 0.0916-0.39063 0.17377 0.06668 0.21519 0.31119 0.0681 0.4021-0.0504 0.03115-0.12229 0.02599-0.15975-0.01146zm1.177 0.0054c-0.0404-0.04045-0.0735-0.1614-0.0735-0.26879 0-0.21244 0.26268-0.26686 0.37907-0.07853 0.0843 0.1364-0.19686 0.456-0.30554 0.34732zm-3.3019-0.10682c-0.15076-0.15076-0.0654-0.35723 0.14759-0.35723 0.14889 0 0.2096 0.05784 0.18638 0.17755-0.038 0.19602-0.21982 0.29383-0.33397 0.17968zm7.7044-0.08742c-0.109-0.1327-0.109-0.195 0.002-0.3283 0.075-0.0906 0.198-0.1411 0.273-0.1124 0.08 0.0308 0.149-0.0435 0.169-0.1816 0.021-0.151 0.108-0.2337 0.245-0.2337 0.28065 0 0.35335 0.37031 0.0864 0.44012-0.10991 0.02874-0.24587 0.15404-0.30215 0.27844-0.13226 0.29241-0.30222 0.34173-0.47212 0.13701zm-1.8397-0.08342c-0.0705-0.19164 0.0219-0.39939 0.1777-0.39939 0.0736 0 0.19009-0.12358 0.25892-0.27462 0.14453-0.31723 0.37275-0.29382 0.42235 0.04333 0.0306 0.20761-0.072 0.28414-0.32691 0.2439-0.0439-0.0069-0.0799 0.1072-0.0799 0.25364 0 0.19024-0.0576 0.26626-0.20161 0.26626-0.11089 0-0.22364-0.05991-0.25057-0.13313zm-4.4898-0.05171c-0.035-0.03501-0.0637-0.15504-0.0637-0.26673 0-0.25028 0.35426-0.21514 0.40339 0.04001 0.0335 0.17362-0.22221 0.34424-0.33972 0.22672zm2.5382-0.16901c-0.0831-0.21643 0.0115-0.49817 0.16724-0.49817 0.20053 0 0.24738 0.33078 0.0717 0.50643-0.15621 0.1562-0.17612 0.15552-0.23897-0.0083zm1.4453-0.16727c0-0.2023 0.24313-0.37177 0.36234-0.25256 0.15282 0.15282 0.0537 0.45417-0.14934 0.45417-0.13799 0-0.213-0.071-0.213-0.20161zm-0.513-0.0374c-0.19221-0.19221-0.14569-0.40046 0.0894-0.40046 0.13985 0 0.21301 0.071 0.21301 0.20672 0 0.2623-0.14257 0.35363-0.30246 0.19374zm-1.8835-0.19178c-0.0417-0.06744 0.004-0.20189 0.10042-0.29878 0.15498-0.15494 0.18837-0.15692 0.27713-0.0164 0.0555 0.08787 0.0858 0.20768 0.0672 0.26626-0.0497 0.15699-0.35707 0.1908-0.44475 0.04893zm-6.895-0.1282c-0.0723-0.1966 0.0234-0.39939 0.18851-0.39939 0.21692 0 0.29894 0.20194 0.15329 0.37743-0.15789 0.19025-0.27709 0.19791-0.3418 0.02196zm4.9631-0.13502c-0.0397-0.10338-0.006-0.21923 0.0798-0.27348 0.24026-0.15213 0.32547-0.11268 0.28919 0.1339-0.0426 0.28985-0.27729 0.3786-0.36901 0.13958zm0.99172 0.0097c-0.0744-0.19393 0.16056-0.39423 0.33559-0.28606 0.16074 0.09935 0.0523 0.43803-0.14031 0.43803-0.0753 0-0.16321-0.06838-0.19528-0.15197zm2.3392-0.0091c-0.172-0.1714-0.174-0.2044-0.023-0.3555 0.234-0.2346 0.459-0.0105 0.314 0.314-0.099 0.2206-0.111 0.2223-0.292 0.0415zm-0.953-0.2272c-0.157-0.1567-0.075-0.4796 0.113-0.4435 0.10251 0.01974 0.18638 0.1271 0.18638 0.23856 0 0.21189-0.17372 0.33072-0.29954 0.20489zm1.375-0.32907c-0.119-0.119-0.0643-0.43115 0.0857-0.48869 0.18466-0.07086 0.27667 0.01357 0.27667 0.25388 0 0.18835-0.24806 0.3491-0.36235 0.23481zm-2.128-0.2985c-0.0362-0.09432 0.006-0.19024 0.0997-0.22616 0.20839-0.07997 0.30348 0.01618 0.22312 0.2256-0.0808 0.21068-0.24208 0.21096-0.32282 0.000568zm-9.7582 5.1631c0-0.05512-0.0479-0.10022-0.1065-0.10022s-0.10651 0.07472-0.10651 0.16604 0.0479 0.13642 0.10651 0.10022c0.0586-0.0362 0.1065-0.11092 0.1065-0.16604zm0.58122-0.30586c0.0337-0.05453 0.0126-0.12925-0.047-0.16604-0.0595-0.03679-0.10824 0.0078-0.10824 0.09914 0 0.18708 0.0639 0.21462 0.15521 0.0669zm17.34-1.882c0.0885-0.08852-0.25713-0.7909-0.35841-0.7283-0.0449 0.02777-0.0155 0.17804 0.0653 0.33394 0.0809 0.15589 0.12271 0.32282 0.093 0.37096-0.0621 0.10046 0.10366 0.11985 0.2001 0.02341zm-15.631-1.0009c0.0362-0.05858-0.009-0.1065-0.10022-0.1065-0.095 0-0.16603-0.09109-0.16603-0.21301 0-0.11715-0.0284-0.21301-0.0631-0.21301s-0.18494 0.09585-0.33387 0.21301l-0.2708 0.21301h0.28062c0.15434 0 0.28062 0.04793 0.28062 0.1065 0 0.05858 0.0691 0.1065 0.15347 0.1065 0.0844 0 0.18309-0.04793 0.21929-0.1065zm-2.277-0.3027c0.60604-0.46893 1.384-0.97714 1.8651-1.2184 0.76932-0.38584 2.8396-1.0742 3.6075-1.1994 0.11716-0.01911 0.6084-0.10301 1.0917-0.18645 2.0326-0.35093 5.3038-0.17264 7.461 0.40666 1.9226 0.51631 2.8536 0.93351 4.0217 1.8023 0.19797 0.14724 0.45432-0.10944 0.53412-0.5348 0.0873-0.46546-0.28933-1.1296-0.99209-1.7494-1.9107-1.6851-6.4592-2.4992-10.625-1.9017-0.41003 0.0588-1.05 0.15193-1.4221 0.20694-1.544 0.22826-4.2279 1.361-5.1157 2.1592-0.70791 0.63644-1.1257 1.6709-0.90604 2.2433 0.0834 0.21729 0.16955 0.21225 0.48013-0.02807zm16.602-0.01647c0-0.11715-0.0166-0.21301-0.0368-0.21301s-0.12349 0.09585-0.22951 0.21301c-0.1871 0.20674-0.18602 0.21301 0.0368 0.21301 0.15851 0 0.22951-0.0659 0.22951-0.21301z"/>
 </g>
</svg>
