<?xml version="1.0" encoding="UTF-8" standalone="no"?>
<!-- Created with Inkscape (http://www.inkscape.org/) -->
<svg id="svg2" xmlns:rdf="http://www.w3.org/1999/02/22-rdf-syntax-ns#" xmlns="http://www.w3.org/2000/svg" height="54" width="99" version="1.1" xmlns:cc="http://creativecommons.org/ns#" xmlns:dc="http://purl.org/dc/elements/1.1/">
 <metadata id="metadata7">
  <rdf:RDF>
   <cc:Work rdf:about="">
    <dc:format>image/svg+xml</dc:format>
    <dc:type rdf:resource="http://purl.org/dc/dcmitype/StillImage"/>
    <dc:title/>
   </cc:Work>
  </rdf:RDF>
 </metadata>
 <g id="g3700">
  <rect id="rect2990" opacity="0" height="54" width="99" y="0" x="0"/>
  <path id="path9141" d="m58.763 49.481c-0.50116-0.10907-1.1769-0.69072-1.4425-1.2416-0.3016-0.62562-0.0907-1.3402 0.47084-1.5952 0.42915-0.19489 0.58062-0.16503 0.7658 0.15096 0.0882 0.15047 0.22125 0.3287 0.2957 0.39608 0.20455 0.18512 0.16671 0.23127-0.18958 0.23127-0.52254 0-0.89773 0.27076-0.89773 0.64787 0 0.26246 0.18335 0.38176 0.58669 0.38176 0.70242 0 1.1216-0.37427 1.283-1.1454 0.0681-0.32572 0.0617-0.36028-0.14303-0.77222-0.20569-0.41381-0.2141-0.45992-0.20804-1.141 0.007-0.83097 0.0901-1.0644 0.50757-1.4318 0.30007-0.26413 1.0282-0.64438 1.5776-0.82386 0.55221-0.18041 1.1806-0.15894 1.5889 0.0543 0.77388 0.40412 1.6297 1.627 2.2399 3.2007 0.13039 0.33624 0.29556 0.66202 0.36707 0.72396 0.1514 0.13116 0.56829 0.14906 0.89445 0.0384 0.56306-0.19103 1.6268-1.0855 1.8574-1.5619 0.1738-0.35903 0.23524-1.0184 0.13416-1.4398-0.14807-0.61721-0.85255-1.0995-2.0608-1.4107-0.59163-0.1524-0.79936-0.17428-1.6426-0.173-0.53091 0.00086-1.0666 0.0207-1.1905 0.0441-0.53698 0.1017-1.9499 0.18608-2.5419 0.1518-0.71849-0.0416-1.1987-0.12087-1.6652-0.27488l-0.31383-0.10361-0.25569 0.29914c-0.27964 0.32715-0.58621 0.519-0.73692 0.46117-0.0579-0.0222-0.22914 0.0753-0.42856 0.24399-0.52647 0.44528-0.71864 0.5142-0.9074 0.32545-0.0928-0.0928-0.14289-0.0652-0.56767 0.31202-0.67222 0.59698-1.0112 0.77919-1.3736 0.73834-0.22132-0.0249-0.36506 0.004-0.6078 0.1207-0.3283 0.15838-0.69659 0.20005-0.8055 0.0911-0.0401-0.0401-0.27092 0.039-0.64829 0.22214-0.61436 0.2981-1.3 0.46804-1.5924 0.39467-0.0949-0.0238-0.20573-0.11604-0.24622-0.20491-0.0506-0.11105-0.10527-0.14822-0.17478-0.11883-0.43369 0.18336-1.1675 0.40865-1.3369 0.41046-0.11336 0.001-0.27869-0.0309-0.36738-0.0713-0.13099-0.0597-0.19293-0.0527-0.32981 0.0369-0.25068 0.16425-0.97187 0.42264-1.1796 0.42264-0.0999 0-0.23403-0.0579-0.29809-0.1287-0.093-0.10275-0.1982-0.1287-0.52176-0.1287-0.42996 0-0.7029-0.0859-0.76195-0.23976-0.0576-0.15023 0.0143-0.20901 0.55206-0.45139 0.27967-0.12604 0.50078-0.23643 0.49136-0.2453-0.009-0.009-0.3791 0.0688-0.82152 0.17264-0.87359 0.20503-1.1586 0.20291-1.3856-0.0103-0.13453-0.12638-0.17689-0.13126-0.61821-0.0712-0.5685 0.0774-1.0049 0.0102-1.1574-0.17822-0.0833-0.10293-0.18284-0.13505-0.42062-0.13578-0.93757-0.003-2.1788-0.61949-2.0519-1.0193 0.0624-0.19671 0.25201-0.22418 0.66295-0.0961 0.56841 0.17722 1.9123 0.16595 2.4289-0.0204 1.6769-0.60483 2.4368-1.0568 4.569-2.7178 0.14157-0.11029 0.34396-0.26549 0.44976-0.3449 0.1058-0.0794 0.55465-0.49587 0.99745-0.92547 0.84508-0.81987 1.2621-1.1722 1.7398-1.47 0.15838-0.0987 0.29804-0.18806 0.31034-0.19855 0.0123-0.0105-0.0357-0.17425-0.10664-0.3639-0.19197-0.51309-0.23037-0.89449-0.13948-1.3854 0.1326-0.71623 0.3822-1.1124 1.1887-1.8869 0.43424-0.41699 0.49155-0.53932 0.31359-0.66945-0.0971-0.071-0.0969-0.0892 0.002-0.23973 0.0834-0.12724 0.0923-0.20097 0.0407-0.33667-0.23952-0.62997 0.20567-1.873 1.0084-2.8155 0.82491-0.9686 2.2758-1.9323 4.4093-2.9288 2.3749-1.1092 3.5847-1.7784 4.2943-2.3755 0.34493-0.29023 0.99175-1.1796 1.4692-2.0201 1.2977-2.2846 1.6167-2.8594 1.5974-2.8787-0.0556-0.0556-0.43251 0.2245-0.46351 0.34449-0.0299 0.11579-0.0952 0.14099-0.43258 0.16695-0.21853 0.0168-0.54213 0.0134-0.7191-0.008-0.29272-0.0348-0.31983-0.052-0.30042-0.19012 0.0138-0.0981-0.0405-0.21646-0.15327-0.33413-0.12239-0.12775-0.16361-0.2243-0.13783-0.32286 0.0202-0.0773-0.007-0.20664-0.0594-0.28734-0.0645-0.0984-0.0737-0.1606-0.0281-0.18881 0.0375-0.0232 0.0505-0.11227 0.0289-0.19805-0.031-0.12367-0.008-0.16797 0.11238-0.2139 0.0833-0.0319 0.20768-0.12027 0.27632-0.19646 0.0928-0.10301 0.16979-0.12865 0.30026-0.1 0.0976 0.0214 0.23287 0.003 0.30481-0.0422 0.10136-0.0633 0.16584-0.0642 0.29802-0.004 0.20518 0.0935 0.48438 0.1007 0.48438 0.0125 0-0.0996 0.20226-0.076 0.32873 0.0385 0.0625 0.0566 0.14169 0.0855 0.176 0.0643 0.18436-0.11393 0.37149-1.2611 0.20572-1.2611-0.034 0-0.096 0.1144-0.13793 0.25421-0.11859 0.39582-0.37297 0.59808-0.79633 0.63319-0.23759 0.0197-0.35536 0.005-0.35536-0.0429 0-0.0398 0.0266-0.0723 0.059-0.0723 0.0325 0 0.10923-0.13146 0.17059-0.29212 0.1216-0.3184 0.35496-0.52302 0.66786-0.5856 0.22208-0.0444 0.45391-0.29372 0.45391-0.48813 0-0.0692-0.0625-0.17642-0.13894-0.2383-0.082-0.0664-0.11923-0.14441-0.0908-0.19041 0.0344-0.0556 0.0717-0.0584 0.1304-0.01 0.0947 0.0786 0.18521-0.006 0.25679-0.23933 0.0681-0.22203 0.35406-0.53056 0.49179-0.53056 0.1651 0 0.15675 0.0354-0.0784 0.33226-0.18826 0.2377-0.34388 0.82607-0.21848 0.82607 0.026 0 0.13338-0.0724 0.23853-0.16088 0.10516-0.0885 0.24577-0.16087 0.31246-0.16087 0.0667 0 0.17946-0.0625 0.2506-0.13884 0.11303-0.12132 0.13439-0.12568 0.16935-0.0346 0.0602 0.1568-0.14919 0.71924-0.33801 0.90806-0.20303 0.20303-0.3822 0.21119-0.57895 0.0264l-0.14894-0.13992 0.002 0.54212c0.001 0.33959 0.0439 0.66887 0.11442 0.88141l0.11261 0.33929 0.46631-0.7986c0.25647-0.43923 0.54155-0.98285 0.63351-1.208 0.15812-0.38721 0.16528-0.45311 0.1319-1.2138-0.0316-0.7214-0.0624-0.88391-0.29794-1.575-0.2982-0.87494-0.51607-1.9107-0.52553-2.4985l-0.006-0.39893-0.12218 0.38611c-0.10907 0.34469-0.59308 1.5617-0.89577 2.2523-0.12816 0.29242-0.2555 0.7253-0.25556 0.86875-0.00002 0.0596 0.0605 0.0227 0.15821-0.0965 0.20878-0.25471 0.20892-0.11959 0.00019 0.16335-0.12307 0.16681-0.15274 0.26587-0.12182 0.40666 0.0254 0.11585 0.0169 0.17129-0.0227 0.14683-0.0394-0.0244-0.0741 0.18636-0.0913 0.55503-0.054 1.1597-0.52749 1.6918-1.7941 2.0163-0.76023 0.19476-2.1865-0.0765-3.3095-0.62936-1.046-0.51499-2.2672-1.5238-2.7802-2.2966-0.5379-0.81033-0.85572-1.6675-0.85572-2.3079 0-0.32562-0.009-0.34381-0.1859-0.3792-0.23353-0.0467-0.84548-0.64683-0.7103-0.69657 0.0505-0.0186 0.26392-0.0414 0.47429-0.0506 0.3433-0.0151 0.39024-0.002 0.45825 0.13169 0.0744 0.14586 0.0788 0.14339 0.2441-0.13871 0.22562-0.385 0.5944-0.66472 1.0844-0.82257 0.22265-0.0717 0.46273-0.15416 0.53352-0.18322 0.0708-0.0291 0.23006-0.0897 0.35394-0.13468 0.40796-0.14826 1.0562-0.49499 1.3948-0.74604 0.18314-0.1358 0.5596-0.42015 0.83658-0.6319 0.27697-0.21174 0.71396-0.50508 0.97107-0.65185 0.36975-0.21108 0.44035-0.27397 0.3377-0.30081-0.0738-0.0193-0.15097 0.004-0.17888 0.0538-0.0742 0.13257-0.82581 0.45081-1.3362 0.56576-0.28174 0.0635-0.93723 0.11655-1.7371 0.14071-2.0787 0.0628-2.4768 0.16925-3.5699 0.95465-1.2651 0.90897-2.3019 2.1118-3.5254 4.0897-0.47653 0.77034-1.0653 1.9775-1.0089 2.0687 0.0206 0.0333 0.13056 0.0605 0.24447 0.0605 0.24317 0 0.50181 0.16 0.45516 0.28157-0.0247 0.0643 0.0958 0.0949 0.49495 0.12566 0.34054 0.0263 0.56708 0.0764 0.63904 0.14157 0.0613 0.0555 0.21705 0.13004 0.34608 0.16567 0.31762 0.0877 0.68154 0.41525 0.68154 0.61343 0 0.20332-0.11672 0.24206-0.45492 0.15099-0.3568-0.0961-1.6017-0.0951-2.4141 0.002-0.35097 0.0419-0.65991 0.0896-0.68655 0.10603-0.0266 0.0164-0.20606 0.34448-0.39872 0.729-0.73251 1.462-1.4953 2.5122-2.6096 3.5933-0.84324 0.81805-2.0157 1.3628-2.9332 1.3628-0.29354 0-0.40415 0.0296-0.52094 0.13929-0.13622 0.12798-0.15746 0.131-0.26155 0.0372-0.0623-0.0562-0.19056-0.12138-0.285-0.14494-0.37531-0.0936-1.6131 0.27244-3.2711 0.96748-1.258 0.52737-2.7574 0.96917-3.6359 1.0714-0.68872 0.0801-1.6521 0.0326-2.188-0.1079-0.81643-0.21404-2.0248-0.93539-2.615-1.561-0.33877-0.35912-0.44182-0.52135-0.5602-0.88195-0.18104-0.55152-0.34989-1.7191-0.29811-2.0614 0.0929-0.614 0.29497-1.4459 0.44166-1.8181 0.16988-0.43102 0.64551-1.2507 0.94814-1.634 0.10183-0.12897 0.18515-0.25095 0.18515-0.27107 0-0.0201-0.18725-0.0191-0.41611 0.002-0.40636 0.0379-0.42025 0.0341-0.59349-0.1633-0.0976-0.11119-0.20989-0.20216-0.24962-0.20216-0.0397 0-0.12414-0.0574-0.1876-0.12749-0.0891-0.0984-0.0985-0.14783-0.0414-0.21666 0.0604-0.0728 0.0272-0.0954-0.18116-0.12338-0.19513-0.0262-0.33158-0.10945-0.57993-0.35392-0.17863-0.17582-0.32477-0.36056-0.32477-0.41051 0-0.0499-0.0579-0.14041-0.12871-0.20102-0.0708-0.0606-0.1287-0.18091-0.1287-0.26733 0-0.10217-0.0696-0.20667-0.19892-0.29877-0.15296-0.10892-0.19197-0.178-0.16884-0.299 0.0196-0.10268-0.0175-0.20895-0.10675-0.30582-0.17911-0.19434-0.42642-0.60136-0.42642-0.70181 0-0.13685 0.14692-0.23364 0.35463-0.23364 0.30927 0 1.617 0.35343 2.3911 0.6462 0.38338 0.14501 1.088 0.4676 1.5658 0.71688l0.86875 0.45323 0.88625-0.92424c0.82294-0.85822 0.92019-0.98662 1.3613-1.7974 0.98216-1.8053 1.0627-2.9596 0.24501-3.5106-0.28703-0.19343-1.16-0.31469-1.5821-0.21976-0.87791 0.19743-1.3346 0.67275-1.9964 2.0779-0.5068 1.076-0.73752 1.2986-1.4485 1.3977-0.95865 0.13361-2.0109-0.31522-2.5446-1.0854-0.23617-0.3408-0.29513-0.64037-0.22437-1.14 0.16984-1.1993 1.3191-2.2696 2.2701-2.114 0.14644 0.024 0.43195 0.0853 0.63447 0.1364 0.34118 0.086 0.40027 0.0832 0.8044-0.0386 0.87452-0.26358 1.3055-0.63082 1.3047-1.1118 0.003-0.1994-0.216-0.5427-0.377-0.5938-0.20392-0.0647-1.3227 0.27565-1.4895 0.45315-0.36215 0.38549 0.19253 0.46562 0.65431 0.0945 0.13373-0.10746 0.25503-0.17368 0.26955-0.14714 0.0608 0.11105-0.015 0.61193-0.11586 0.76591-0.098 0.1496-0.13916 0.16297-0.40819 0.13266-0.2535-0.0286-0.33622-0.0764-0.54176-0.31331-0.13342-0.15378-0.2663-0.36647-0.29529-0.47266-0.0825-0.30236 0.0549-0.68084 0.30963-0.85249 0.47784-0.32202 1.5449-0.51158 1.8776-0.33355 0.0915 0.049 0.15273 0.0488 0.21237-0.00073 0.0593-0.0492 3.2871-0.0689 11.056-0.0674 10.775 0.002 10.977-0.0001 11.268-0.12458 0.62517-0.26798 0.99449-0.24949 1.3171 0.0659 0.17389 0.17001 0.21345 0.18336 0.32917 0.11109 0.10047-0.0627 0.14931-0.0644 0.20686-0.007 0.0442 0.0442 0.15585 0.0592 0.26982 0.0365 0.16922-0.0338 0.18861-0.0236 0.14931 0.0788-0.0269 0.0702-0.0118 0.13882 0.0375 0.1701 0.13784 0.0875 0.1872 0.061 0.12007-0.0645-0.11839-0.22122 0.0361-0.26732 0.89243-0.26628 0.8865 0.001 1.051 0.0439 0.90001 0.23444-0.0508 0.0641 0.0341 0.01 0.1886-0.1203 0.39221-0.33058 0.74995-0.43644 1.4841-0.43918 0.33878-0.001 0.78971-0.0442 1.0021-0.0955 0.21236-0.0513 0.57498-0.0937 0.80582-0.0942 0.37087-0.00088 0.44659 0.0212 0.6507 0.18939 0.12704 0.10472 0.27009 0.28482 0.3179 0.40022 0.0857 0.20696 0.0874 0.20766 0.1244 0.0509l0.0375-0.1589 1.9843-0.017c1.4643-0.0126 2.0086 0.003 2.0768 0.0598 0.0748 0.0621 0.0886 0.26541 0.0721 1.0628l-0.0205 0.98604 0.16088 0.001c0.29945 0.003 0.78016 0.32867 0.95767 0.64954l0.16442 0.2972-0.15013 0.6146c-0.13074 0.53519-0.14448 0.70467-0.1064 1.3116l0.0437 0.69699-0.20387 0.24369c-0.26382 0.31533-0.92603 0.61975-1.4569 0.66973-0.34864 0.0328-0.4317 0.0173-0.67569-0.12604-0.15301-0.0899-0.3459-0.25544-0.42865-0.36786-0.0828-0.11242-0.16264-0.19223-0.17752-0.17734-0.0149 0.0149 0.0637 0.24158 0.17458 0.50378 0.11089 0.2622 0.31284 0.79527 0.44878 1.1846 0.13593 0.38933 0.24781 0.63547 0.24862 0.54699 0.002-0.23106-0.1617-0.81833-0.32791-1.1757-0.17195-0.36972-0.11084-0.48798 0.17512-0.33886 0.22544 0.11757 0.38933 0.12287 0.77735 0.0252 0.36589-0.0921 0.42328-0.0271 0.38968 0.44171l-0.0241 0.33589 0.37515 0.0424c0.20634 0.0233 0.37516 0.051 0.37516 0.0614 0 0.0525-0.5462 0.54492-0.63604 0.57344-0.0939 0.0298-0.10275 0.29679-0.0911 2.7422 0.008 1.7255 0.0381 2.7853 0.0822 2.919 0.0654 0.1983 0.0369 0.42242-0.0538 0.4226-0.0228 0.00004-0.0415 0.20135-0.0417 0.44736l-0.00026 0.44727 0.17725-0.16981c0.0975-0.0934 0.18055-0.15716 0.18458-0.14169 0.0455 0.17427 0.0376 0.42674-0.0163 0.52762-0.0524 0.0979-0.10994 0.11702-0.26111 0.0868-0.16863-0.0337-0.18673-0.0241-0.13886 0.0736 0.0303 0.0618 0.055 4.0257 0.055 8.8087v8.6963l0.16088 0.13195c0.13142 0.10778 0.1479 0.1533 0.09 0.24859-0.039 0.0642-0.12589 0.12494-0.19306 0.13508-0.11813 0.0178-0.12154 0.11143-0.10407 2.86 0.0157 2.4781 0.006 2.8485-0.079 2.8959-0.0862 0.0482-0.0856 0.0828 0.005 0.30894 0.0718 0.17938 0.0951 0.40317 0.079 0.75712-0.0324 0.70932-0.33646 1.3181-0.94537 1.8925-0.60392 0.56978-0.93997 0.72685-1.555 0.72685-0.40683 0-0.52812-0.0268-0.77222-0.17096-0.52749-0.31141-1.1329-1.2516-1.58-2.4539-0.42579-1.1448-0.88055-1.4402-1.9593-1.2728-0.78632 0.122-1.7716 0.61768-2.3222 1.1682-0.35836 0.35836-0.35196 0.66476 0.0302 1.4454 0.46247 0.94466 0.53398 1.4248 0.29183 1.9598-0.28036 0.61936-0.91458 1.0151-1.4427 0.90012zm0.48536-0.19194c0.12537-0.0348 0.34871-0.18291 0.49632-0.32905 0.33683-0.33349 0.49283-0.72387 0.4532-1.1341-0.0489-0.50608-0.37307-1.0544-0.37307-0.63097 0 0.22339-0.2405 0.80981-0.40703 0.99249-0.30639 0.33609-1.1029 0.51521-1.5956 0.35882-0.3512-0.11147 0.38444 0.5757 0.79055 0.73846 0.19912 0.0798 0.36015 0.0809 0.63568 0.004zm-1.4741-1.658c0.15162-0.1934 0.2717-0.2634 0.58112-0.33873l0.30026-0.0731-0.15081-0.22223c-0.0829-0.12223-0.16156-0.2545-0.17471-0.29393-0.0165-0.0496-0.12736-0.0373-0.36013 0.04-0.24942 0.0829-0.37738 0.17223-0.49558 0.34617-0.19031 0.28008-0.2158 0.73887-0.0539 0.97004l0.10545 0.15056 0.0802-0.23337c0.0441-0.12836 0.11975-0.28378 0.16805-0.34538zm9.5139-0.0645c0.50792-0.25395 1.0594-0.8305 1.3255-1.3858 0.19823-0.41363 0.22031-0.51513 0.21942-1.0087-0.00053-0.30184-0.0291-0.59224-0.0634-0.64533-0.0468-0.0724-0.0626-0.0395-0.0634 0.13127-0.002 0.35202-0.17469 0.93623-0.36093 1.2177-0.43959 0.66426-1.7578 1.5469-2.3102 1.5469-0.27573 0-0.25075 0.0768 0.0842 0.25876 0.30327 0.16477 0.68465 0.12734 1.1688-0.11471zm-2.2108-1.1118c-0.24685-0.68746-0.8766-1.8079-0.8766-1.5596 0 0.32061 0.90293 2.1607 1.0085 2.0552 0.0186-0.0186-0.0407-0.24165-0.13187-0.49556zm-16.694-0.85334c0.29344-0.15216 0.59737-0.31758 0.6754-0.36759 0.15746-0.10092 0.27916-0.0406 0.15951 0.079-0.1313 0.13131-0.0846 0.17912 0.17509 0.17912 0.34248 0 1.1056-0.26708 1.5541-0.54394 0.4802-0.2964 0.59791-0.2902 0.29916 0.0157-0.27058 0.2771-0.29204 0.3662-0.11148 0.46283 0.28671 0.15344 1.5579-0.28594 2.1634-0.74778 0.1097-0.0837 0.23292-0.15214 0.27383-0.15214 0.0967 0 0.0956 0.14607-0.002 0.24347-0.0419 0.0419-0.0584 0.0939-0.0368 0.11552 0.0733 0.0733 0.42101-0.0438 0.79042-0.26625 0.42339-0.25496 0.50554-0.27194 0.44867-0.0927-0.0559 0.17597 0.0879 0.16787 0.47159-0.0266 0.27738-0.14056 0.54358-0.35412 1.165-0.93457 0.1161-0.10845 0.23699-0.19719 0.26864-0.19719 0.11368 0 0.15408 0.0337 0.15408 0.1287 0 0.0531 0.0612 0.10527 0.13597 0.11594 0.1531 0.0219 0.77265-0.50541 0.92219-0.78482 0.11339-0.21188 0.1967-0.21477 0.1967-0.007 0 0.0885 0.0316 0.16088 0.0703 0.16088 0.25478 0 1.0709-1.0529 1.4096-1.8185 0.14805-0.33469 0.29711-0.39441 0.35991-0.1442 0.0222 0.0885 0.0646 0.16088 0.0941 0.16088 0.0819 0 0.25408-0.27135 0.25408-0.40043 0-0.15868 0.0807-0.14293 0.24685 0.0482 0.11222 0.12906 0.16612 0.14933 0.26144 0.0983 0.17691-0.0947 0.2109-0.24539 0.1026-0.45483-0.11965-0.23137-0.11961-0.25653 0.00043-0.25653 0.0531 0 0.0965 0.0282 0.0965 0.0627 0 0.0959 0.36478 0.26321 0.47856 0.21954 0.11305-0.0434 0.13424-0.18951 0.0363-0.25006-0.13798-0.0853-0.053-0.16088 0.18075-0.16088 0.13481 0 0.29563-0.0369 0.35737-0.0821 0.10459-0.0765 0.10104-0.0926-0.0521-0.23645-0.20296-0.19067-0.21098-0.32466-0.0195-0.32597 0.0796-0.00042 0.18823-0.0308 0.24132-0.0672 0.0826-0.0566 0.0756-0.0809-0.0483-0.16775-0.1374-0.0964-0.19997-0.27777-0.0965-0.27988 0.0265-0.00043 0.0898-0.0273 0.14065-0.0594 0.0793-0.0502 0.0796-0.0739 0.002-0.16686-0.0783-0.0943-0.074-0.12005 0.0325-0.19796 0.17132-0.12526 0.92782-0.11923 1.1107 0.009 0.18113 0.12687 0.27342 0.46744 0.27387 1.0106 0.00021 0.38512 0.0207 0.45618 0.18349 0.63833l0.18314 0.20497 0.39603-0.084c0.30868-0.0655 0.39603-0.10979 0.39603-0.20076 0-0.13704 0.16686-0.24661 0.31611-0.20758 0.063 0.0165 0.16272-0.051 0.25019-0.1693 0.08-0.10818 0.18278-0.19669 0.22844-0.19669 0.0457 0 0.1765-0.0835 0.29078-0.1855 0.16894-0.15083 0.19986-0.21697 0.16549-0.35393-0.0409-0.16312-0.0331-0.16844 0.24933-0.16844 0.23821 0 0.32697-0.0353 0.48467-0.19306 0.1326-0.1326 0.25639-0.19305 0.39529-0.19305 0.11123 0 0.25841-0.0301 0.32707-0.0668 0.0686-0.0367 0.31383-0.0844 0.54483-0.10602 0.231-0.0216 0.43217-0.0589 0.44704-0.083 0.0149-0.0241-0.67228-0.0947-1.527-0.157s-1.7148-0.13918-1.9114-0.17088c-0.63965-0.10316-1.4611-0.49912-2.5132-1.2114-0.0885-0.0599-0.45719-0.2814-0.81934-0.4922-0.62554-0.36412-0.833-0.54232-0.51596-0.44321 0.1504 0.047 0.95077 0.51846 1.9432 1.1446 0.60525 0.38185 0.72462 0.42286 0.7836 0.26916 0.0199-0.0517 0.0913-0.11161 0.15885-0.13303 0.0675-0.0214 0.12276-0.0927 0.12276-0.15834 0-0.0793 0.0754-0.14425 0.22434-0.19342 0.26935-0.0889 0.32827-0.16681 0.2225-0.29425-0.0435-0.0524-0.0677-0.10394-0.0538-0.11455 0.0139-0.0106 0.11942-0.0843 0.23451-0.16378 0.16603-0.11466 0.20142-0.17572 0.17132-0.29563-0.0275-0.10968-0.003-0.16975 0.0888-0.21899 0.0697-0.0373 0.14504-0.11544 0.16736-0.1736 0.0352-0.0917 0.003-0.10017-0.23992-0.0637-0.21152 0.0317-0.30053 0.0179-0.36198-0.0561-0.0696-0.0839-0.0396-0.11613 0.20556-0.22122 0.427-0.18303 0.70444-0.58311 0.46743-0.67406-0.15499-0.0595-0.11386-0.14121 0.16339-0.32469 0.30523-0.20199 0.51173-0.51148 0.51207-0.76747 0.00012-0.10028-0.0215-0.17122-0.048-0.15763-0.62683 0.32078-0.96159 0.42147-1.0008 0.30104-0.007-0.0214 0.17175-0.18067 0.39717-0.35393 0.57916-0.44514 0.81307-0.88649 0.34024-0.64198-0.1744 0.0902-0.39616 0.0831-0.39616-0.0126 0-0.0199 0.23384-0.2654 0.51965-0.54551 0.58778-0.57605 0.85055-0.95407 1.006-1.4472 0.14692-0.46606 0.0643-0.54365-0.33178-0.31154-0.28924 0.16951-0.42164 0.17382-0.42164 0.0137 0-0.0443 0.057-0.1418 0.12671-0.21661 0.19051-0.20448 0.38759-0.54929 0.38786-0.67858 0.00013-0.0631-0.0432-0.13131-0.0963-0.15168-0.13376-0.0513-0.1206-0.1746 0.0335-0.31408 0.37108-0.33582 0.63591-0.97731 0.45073-1.0918-0.0345-0.0213-0.21511 0.0638-0.40134 0.18926-0.57733 0.3888-0.69148 0.24072-0.20615-0.26744 0.37223-0.38975 0.65039-0.78664 0.70567-1.0069 0.048-0.19117-0.008-0.21203-0.19254-0.0722-0.0687 0.052-0.16281 0.0945-0.20914 0.0945-0.15357 0-0.0876-0.17712 0.19556-0.52501 0.33568-0.41241 0.46636-0.65414 0.52626-0.9734 0.0545-0.29028-0.0291-0.30901-0.18692-0.0419-0.12027 0.2036-0.3923 0.37282-0.4717 0.29342-0.0248-0.0248-0.007-0.13809 0.0405-0.25177 0.28547-0.68946 0.34365-0.94362 0.37139-1.6224 0.026-0.63736 0.0155-0.72917-0.10624-0.92173-0.22824-0.36115-0.28609-0.27697-0.54151 0.78788-0.15184 0.63304-0.58632 1.5874-1.0131 2.2253-0.57856 0.86479-1.5785 1.9564-2.47 2.6965-0.46989 0.39006-1.9104 1.8338-2.2623 2.2674-0.47046 0.57963-0.95243 1.379-1.531 2.5392-0.26644 0.53427-0.60182 1.1048-0.7453 1.2678l-0.26086 0.29636 0.24398 0.0647c0.13418 0.0356 0.38876 0.0956 0.56573 0.13349 0.42332 0.0905 1.0044 0.32411 0.96498 0.38788-0.0171 0.0277-0.24476-0.0174-0.50582-0.10031-0.26106-0.0829-0.74628-0.19703-1.0782-0.25363-0.77444-0.13203-1.6212-0.38521-1.9769-0.59113-0.15364-0.0889-0.5185-0.39976-0.81079-0.69074-0.65138-0.64845-1.0319-0.88415-1.4484-0.89709-0.34331-0.0107-0.5182 0.094-0.5182 0.31018 0 0.18364 0.17791 0.34335 0.44111 0.39599 0.28739 0.0575 0.21616 0.18527-0.10326 0.18527-0.14453 0-0.28025 0.0175-0.30162 0.0388-0.0214 0.0214 0.0757 0.11465 0.21571 0.2073 0.43396 0.28718 0.79672 1.024 0.97057 1.9713 0.0419 0.22855 0.12106 0.52751 0.17581 0.66435 0.0882 0.22044 0.1184 0.24406 0.26499 0.20727 0.26644-0.0669 0.85847-0.37498 0.89289-0.46469 0.0365-0.095 0.21093-0.11273 0.21093-0.0214 0 0.20981-0.92589 0.63695-1.7619 0.8128-0.81301 0.17102-2.0569 0.55194-2.4532 0.75125-0.74627 0.37533-1.4258 0.88057-2.29 1.7028-1.3401 1.275-3.3033 2.8035-4.3276 3.3695-0.76507 0.42276-1.7386 0.82849-2.2629 0.94306-0.60675 0.1326-1.3732 0.12819-1.9841-0.0114-0.50797-0.11609-0.66407-0.0901-0.59111 0.0985 0.054 0.13948 0.42141 0.36782 0.8435 0.52421 0.30403 0.11264 0.51256 0.14004 1.0399 0.13665 0.60326-0.004 0.81285 0.0513 0.56144 0.14775-0.0757 0.0291-0.0813 0.058-0.0243 0.12668 0.10203 0.12293 0.98949 0.11797 1.3452-0.008 0.15047-0.0531 0.33141-0.0965 0.40208-0.0965 0.10643 0 0.11485 0.0164 0.0491 0.0957-0.13785 0.1661-0.0285 0.29041 0.25539 0.29041 0.53142 0 1.9499-0.38876 2.5668-0.70348 0.28251-0.14412 0.37243-0.14157 0.31394 0.009-0.0422 0.10857-0.96767 0.65635-1.5342 0.90805-0.24436 0.10858-0.4443 0.23396-0.4443 0.27863 0 0.15032 0.44198 0.18228 1.0618 0.0768 0.10032-0.0171 0.12532 0.01 0.11337 0.12289-0.0138 0.13075 0.0124 0.14479 0.27087 0.14479 0.21157 0 0.4253-0.0721 0.81973-0.27666zm16.332-5.8368c0-0.0354 0.029-0.0643 0.0643-0.0643 0.0354 0 0.0644 0.029 0.0644 0.0643 0 0.0354-0.029 0.0643-0.0644 0.0643s-0.0643-0.0289-0.0643-0.0643zm-0.1287-0.25741c0-0.0354 0.0307-0.0644 0.0682-0.0644s0.0503 0.029 0.0284 0.0644-0.0525 0.0644-0.0682 0.0644c-0.0156 0-0.0284-0.029-0.0284-0.0644zm-8.2049-3.668c0.0219-0.0354 0.0687-0.0643 0.10412-0.0643 0.0354 0 0.0464 0.029 0.0246 0.0643-0.0219 0.0354-0.0687 0.0644-0.10412 0.0644-0.0354 0-0.0465-0.029-0.0246-0.0644zm-0.0322-0.25741c0-0.0354 0.029-0.0643 0.0643-0.0643 0.0354 0 0.0643 0.029 0.0643 0.0643 0 0.0354-0.029 0.0644-0.0643 0.0644-0.0354 0-0.0643-0.029-0.0643-0.0644zm3.8933-0.25741c-0.0219-0.0354-0.0108-0.0643 0.0246-0.0643s0.0822 0.029 0.10412 0.0643c0.0219 0.0354 0.0108 0.0644-0.0246 0.0644s-0.0823-0.029-0.10412-0.0644zm0.11664 9.2742c0.98138-0.67285 2.3594-0.96753 3.0527-0.65281 0.15042 0.0683 0.27349 0.0989 0.27349 0.0679 0-0.0309-0.12307-0.16233-0.27349-0.29205-0.77216-0.66592-1.4853-0.70925-2.6545-0.16129-0.98661 0.46236-1.3148 0.83742-1.3178 1.506l-0.001 0.31448 0.30567-0.28498c0.16812-0.15673 0.44504-0.38052 0.61537-0.4973zm7.3142-1.7147c-0.5307-0.54755-1.4055-0.94741-2.282-1.0431-0.5004-0.0546-1.769-0.001-2.8001 0.11738-1.3513 0.15573-2.3394 0.0999-3.0488-0.17232-0.0593-0.0228-0.15392 0.0533-0.25947 0.20862l-0.1661 0.24444 0.14588 0.0764c0.33833 0.17728 1.1519 0.28251 2.198 0.28431 0.57998 0.001 1.1223-0.0134 1.2051-0.032s0.58498-0.0768 1.1159-0.12933c1.4329-0.1418 2.6448 0.0102 3.5394 0.44393 0.57533 0.27895 0.62119 0.27916 0.35218 0.002zm-15.508-5.3069 0.25159-0.12835-0.1898-0.36082c-0.32486-0.61757-0.23903-1.2596 0.26158-1.9566 0.37882-0.52742 0.56398-0.84635 0.61647-1.0618 0.044-0.18047 0.018-0.16614-0.3978 0.21966-0.78709 0.73026-1.0995 1.2776-1.2197 2.1364-0.043 0.30744 0.1005 1.0298 0.23733 1.1947 0.0938 0.113 0.14364 0.1081 0.4403-0.0432zm1.7851-0.6184c-0.0214-0.0214-0.0769-0.0237-0.12334-0.005-0.0513 0.0206-0.0361 0.0358 0.0389 0.0389 0.0678 0.003 0.10585-0.0124 0.0845-0.0338zm0.95794-0.24679c0.0195-0.0509 0.005-0.14506-0.0322-0.20915-0.0623-0.10713-0.0679-0.1051-0.0697 0.0251-0.001 0.0779-0.0526 0.17111-0.11457 0.20719-0.10025 0.0584-0.0965 0.0658 0.0342 0.0676 0.0807 0.001 0.16281-0.0397 0.18236-0.0907zm10.514-1.7092c0-0.0354-0.029-0.0643-0.0644-0.0643s-0.0643 0.029-0.0643 0.0643c0 0.0354 0.029 0.0644 0.0643 0.0644 0.0354 0 0.0644-0.029 0.0644-0.0644zm-6.9387-0.98136c0.19736-0.2769 0.10565-0.20784-0.17094 0.1287-0.13818 0.16812-0.18462 0.24776-0.10321 0.17697 0.0814-0.0708 0.20477-0.20834 0.27415-0.30567zm0.31043-0.49873c0.0379-0.0708 0.0544-0.1287 0.0367-0.1287s-0.0632 0.0579-0.10105 0.1287c-0.0379 0.0708-0.0544 0.12871-0.0367 0.12871s0.0632-0.0579 0.10106-0.12871zm7.3361-0.70787c-0.0531-0.0343-0.12548-0.0624-0.16088-0.0624s-0.0209 0.0281 0.0322 0.0624 0.12548 0.0624 0.16088 0.0624 0.0209-0.0281-0.0322-0.0624zm-12.726-0.0426c-0.23051-0.093 0.0644-0.86262 0.54713-1.4276 0.31682-0.37083 1.0534-0.98584 1.5926-1.3297 0.17697-0.11285 0.69822-0.40213 1.1583-0.64283 1.3133-0.68701 1.6188-0.85589 2.4776-1.3695 0.73066-0.43702 1.2317-0.78634 1.1279-0.78634-0.0222 0-0.32123 0.18297-0.66455 0.40661s-0.70723 0.45819-0.8087 0.52122c-0.22314 0.13863-2.4239 1.3245-2.458 1.3245-0.0715 0-1.2009 0.6997-1.476 0.91448-0.99379 0.77582-1.5438 1.4982-1.6679 2.1905-0.0398 0.22219-0.0315 0.24092 0.10446 0.23624 0.0812-0.003 0.11151-0.0197 0.0673-0.0375zm0.54859-1.7295c0.8302-0.82901 1.4234-1.2237 3.3286-2.2147 1.0074-0.52401 2.0657-1.1695 3.3265-2.0288 0.47521-0.3239 1.6758-1.3258 1.8539-1.547 0.11824-0.14692 0.11182-0.14333-0.61135 0.34164-0.42961 0.28811-2.7534 1.4937-2.8792 1.4937-0.19055 0-2.1856 1.0503-3.216 1.6931-1.3678 0.85326-2.5378 2.3028-2.6643 3.3008l-0.0399 0.31514 0.23454-0.46084c0.15265-0.29996 0.38562-0.61171 0.66731-0.893zm5.9992 0.29204c0.0379-0.0708 0.0544-0.1287 0.0367-0.1287s-0.0632 0.0579-0.10106 0.1287c-0.0379 0.0708-0.0544 0.1287-0.0367 0.1287s0.0632-0.0579 0.10105-0.1287zm-2.1885-0.17481c0.12987-0.1651 0.13123-0.1794 0.0246-0.25741-0.17549-0.12832-0.30567-0.0993-0.50957 0.11351-0.15689 0.16375-0.17214 0.20605-0.0925 0.25642 0.18516 0.11708 0.43522 0.0683 0.5775-0.11252zm3.3152-1.305 0.19256-0.225-0.18288 0.16065c-0.10058 0.0883-0.21272 0.21856-0.2492 0.28935-0.0698 0.13548-0.0656 0.13152 0.23952-0.225zm0.64707-0.65984 0.189-0.20914-0.20914 0.189c-0.11503 0.10396-0.20914 0.19807-0.20914 0.20915 0 0.0497 0.0531 0.006 0.22928-0.18901zm5.0594-0.38397c-0.0462-0.0462-0.0762-0.05-0.0762-0.01 0 0.0859 0.0761 0.162 0.11905 0.11905 0.0183-0.0183-0.001-0.0675-0.0429-0.1094zm0.22332-1.4748c-0.0852-0.0495-0.13894-0.0489-0.18984 0.002-0.0518 0.0518-0.0196 0.0705 0.11882 0.0691 0.16642-0.002 0.17518-0.0105 0.071-0.071zm-6.1555-0.44877 0.22523-0.19652-0.21409 0.11781c-0.22345 0.12297-0.38925 0.27995-0.29252 0.27697 0.0309-0.00095 0.1575-0.0902 0.28138-0.19826zm1.2278-0.98113c0.19183-0.17181 0.29087-0.28168 0.22009-0.24418-0.0708 0.0375-0.28798 0.21634-0.48264 0.3974-0.43442 0.40405-0.21995 0.27889 0.26255-0.15322zm1.11-1.0034c0.21381-0.19845 0.41038-0.45394 0.34924-0.45394-0.0111 0-0.2076 0.19381-0.43664 0.4307-0.41953 0.43391-0.36943 0.44723 0.0874 0.0232zm-26.277 0.0339c0.80722-0.14137 2.1191-0.52527 2.8321-0.82877 1.5473-0.6586 2.8869-1.1391 3.1756-1.1391 0.0581 0 0.10567-0.029 0.10567-0.0644 0-0.2198-1.7424 0.0681-3.1854 0.52634-2.1393 0.67935-2.5725 0.79172-3.2756 0.8498-0.61318 0.0506-1.0838-0.0268-1.914-0.31502-0.78939-0.27406-1.1591-0.46107-1.9353-0.97889-0.71931-0.47989-1.0353-0.79946-1.3062-1.3208-0.10567-0.20343-0.20867-0.36994-0.22889-0.37003-0.0693-0.00026 0.0623 0.80409 0.1931 1.1808 0.17705 0.50972 0.32592 0.73154 0.71225 1.0612 0.43034 0.36726 1.4436 1.0014 1.8765 1.1743 0.7475 0.2986 1.9882 0.39306 2.9501 0.2246zm30.438-0.42347c0-0.0354-0.029-0.0643-0.0644-0.0643s-0.0643 0.029-0.0643 0.0643c0 0.0354 0.029 0.0644 0.0643 0.0644 0.0354 0 0.0644-0.029 0.0644-0.0644zm-2.8646-0.95764c0.50957-0.54478 0.29645-0.3712-0.32219 0.26241-0.3178 0.32549-0.44465 0.47371-0.28187 0.32939 0.16277-0.14433 0.4346-0.41064 0.60406-0.5918zm-28.522 0.52932c-0.0436-0.0176-0.13044-0.0187-0.19305-0.002-0.0626 0.0163-0.027 0.0307 0.0792 0.032 0.10618 0.001 0.15741-0.012 0.11384-0.0297zm0.83535-0.00039c-0.0442-0.0178-0.11664-0.0178-0.16088 0-0.0442 0.0179-0.008 0.0325 0.0804 0.0325 0.0885 0 0.12468-0.0146 0.0804-0.0325zm27.286-0.45613c0.65086-0.60695 0.93641-0.90936 1.1329-1.1997 0.0932-0.1378 0.2498-0.36946 0.34794-0.51482 0.69718-1.0326 1.4444-2.5833 1.8018-3.7393 0.16573-0.53606 0.26627-0.99745 0.21735-0.99745-0.0443 0-0.54493 0.83118-1.2016 1.9949-0.3295 0.58399-0.80703 1.4093-1.0612 1.834-0.25414 0.42472-0.67398 1.1632-0.93298 1.641-0.25899 0.47781-0.55441 0.99182-0.65648 1.1422-0.10207 0.15043-0.16936 0.2735-0.14955 0.2735 0.0198 0 0.24563-0.19547 0.50182-0.43438zm-30.294-0.198c-0.0963-0.0847-0.71214-0.42124-0.64031-0.34992 0.11295 0.11214 0.57455 0.40368 0.63916 0.40368 0.0392 0 0.0396-0.0199 0.001-0.0538zm11.919-0.75179c0.8885-0.33356 1.4196-0.73394 2.4819-1.8712 0.50281-0.53828 1.4227-1.919 1.7965-2.6966 0.30014-0.62429 0.3051-0.64405 0.16607-0.66129-0.0788-0.01-0.27146 0.0198-0.42809 0.0658-0.27701 0.0813-0.29463 0.10281-0.64667 0.78999-0.45496 0.88808-0.9196 1.552-1.6862 2.4092-0.98308 1.0994-1.7159 1.6861-2.5526 2.0435l-0.36407 0.15555 0.39654-0.0349c0.21809-0.0192 0.59455-0.10921 0.83657-0.20006zm-6.6708 0.1051c0-0.0313-0.16094-0.0771-0.35764-0.10162-0.33357-0.0417-0.74711-0.16762-1.5492-0.47178-0.62756-0.23797-1.4009-0.87661-1.9235-1.5885-0.27699-0.37729-0.43695-0.55068-0.3129-0.33917 0.42839 0.73036 1.093 1.4092 1.7632 1.8009 0.47693 0.27876 1.2283 0.54232 1.8866 0.66176 0.25376 0.046 0.46861 0.0863 0.47746 0.0895 0.009 0.003 0.0161-0.0198 0.0161-0.0511zm0.59614 0.0116c-0.0792-0.0153-0.22394-0.0157-0.32176-0.00088-0.0978 0.0148-0.0331 0.0273 0.14391 0.0278 0.17696 0.00045 0.257-0.0116 0.17785-0.0269zm2.4284-0.0834c0.078-0.0504 0.0688-0.0626-0.0483-0.0634-0.0796-0.00053-0.14479 0.028-0.14479 0.0634 0 0.0806 0.0683 0.0806 0.19306 0zm1.0641-0.10211c-0.06-0.0916-0.0974-0.17812-0.0832-0.19237 0.0142-0.0142 0.14578 0.0212 0.29231 0.0788 0.51364 0.20177 0.84812-0.10976 0.62429-0.58145-0.1594-0.33591-0.57688-0.5804-1.2695-0.74346-0.75225-0.1771-1.3101-0.44362-1.6592-0.79272-0.15009-0.15009-0.30526-0.27289-0.34482-0.27289-0.12496 0-0.11598-0.4529 0.0203-1.0269 0.13146-0.55349 0.26276-0.85823 0.79918-1.8547 0.42034-0.78086 0.85624-1.9311 1.1101-2.9292 0.45355-1.7834 0.68467-2.4599 1.2492-3.6564 0.68498-1.4519 1.405-2.4151 2.1969-2.9389 0.27776-0.18371 0.50502-0.37057 0.50502-0.41524 0-0.15014-0.41369-0.0886-0.72306 0.10763-0.25368 0.16088-0.30914 0.17518-0.37441 0.0965-0.0421-0.0508-0.11398-0.0923-0.15965-0.0923-0.13669 0-0.85532 0.63626-1.0684 0.94592-0.13412 0.19493-0.21953 0.2672-0.26366 0.22308-0.0949-0.0949 0.009-0.34699 0.42686-1.0409 0.19824-0.32884 0.36044-0.63788 0.36044-0.68676 0-0.26317-0.5393-0.0919-0.79358 0.25203-0.14727 0.19921-0.23605 0.22819-0.23605 0.0771 0-0.21074-0.52761 0.064-0.69795 0.36338-0.126 0.2212-0.175 0.2328-0.222 0.0512l-0.036-0.1352-0.271 0.1513c-0.14899 0.0832-0.34301 0.25993-0.43115 0.39265-0.18654 0.2809-0.27186 0.30615-0.27186 0.0804 0-0.0885-0.0289-0.16088-0.0642-0.16088-0.14469 0-0.57328 0.4732-0.70417 0.77747-0.11565 0.26884-0.15632 0.31258-0.23211 0.24967-0.14896-0.12362-0.25344-0.0344-0.48566 0.41466-0.23486 0.45418-0.31574 0.52111-0.31574 0.26126 0-0.14339-0.0156-0.15477-0.12916-0.094-0.14044 0.0752-0.55127 0.84204-0.66908 1.2489-0.11164 0.3856-0.23139 0.37222-0.23139-0.0259 0-0.28136-0.0171-0.32856-0.11262-0.31028-0.0619 0.0119-0.17053 0.12999-0.24132 0.2625-0.0717 0.13416-0.16412 0.22749-0.20863 0.2106-0.10213-0.0388-0.24583 0.24118-0.30423 0.59267-0.046 0.27717-0.16283 0.38101-0.16283 0.14479 0-0.32886-0.31737 0.0409-0.47061 0.5483-0.26549 0.8791-0.31159 1.0704-0.27864 1.1562 0.0197 0.0513 0.0111 0.1084-0.019 0.127s-0.10388-0.089-0.16396-0.2392l-0.10924-0.27302-0.10126 0.193c-0.0592 0.11288-0.1013 0.3526-0.10136 0.57747-0.00006 0.29669-0.0274 0.4069-0.11982 0.48264-0.15302 0.12548-0.22414 0.68506-0.12368 0.97322 0.0496 0.14235 0.0523 0.23197 0.008 0.27599-0.0859 0.0859-0.0828 0.35594 0.007 0.6139 0.10101 0.28976 0.009 0.36226-0.29697 0.23436-0.30749-0.12848-0.29019-0.13415-0.29019 0.0951 0 0.21473 0.24424 0.51189 0.42072 0.51189 0.18097 0 0.0614 0.15983-0.1361 0.18192-0.26871 0.0301-0.32072 0.10734-0.19815 0.29441 0.0649 0.099 0.19269 0.17751 0.33133 0.20352 0.30049 0.0564 0.28535 0.17813-0.038 0.30513-0.31699 0.12452-0.30383 0.23353 0.0436 0.361 0.33237 0.12195 0.33775 0.12882 0.18783 0.24008-0.12795 0.0949-0.12788 0.096 0.0124 0.21114 0.0776 0.0636 0.26579 0.13599 0.41829 0.16078 0.24609 0.04 0.2646 0.0545 0.16465 0.12854-0.15562 0.11533-0.14093 0.1658 0.0483 0.1658 0.18168 0 0.20694 0.0747 0.0651 0.19246-0.15505 0.12869-0.0486 0.19365 0.31735 0.19365 0.29367 0 0.34767 0.0193 0.37788 0.13479 0.0296 0.11313 0.067 0.12782 0.23273 0.0914 0.22109-0.0486 0.27864 0.0593 0.0619 0.11601-0.15055 0.0394-0.40803-0.0396-0.47327-0.14519-0.0232-0.0376-0.16504-0.0683-0.31515-0.0683-0.28504 0-0.42735-0.0849-0.42735-0.2548 0-0.0552-0.0579-0.13652-0.12871-0.18073-0.0708-0.0442-0.1287-0.12199-0.1287-0.17285 0-0.0508-0.0796-0.13028-0.17697-0.17649-0.0973-0.0462-0.22092-0.17087-0.27464-0.27701-0.0537-0.10614-0.1765-0.27101-0.27284-0.36637-0.19998-0.19794-0.18055-0.32177 0.0683-0.43514l0.17333-0.079-0.17525-0.0918c-0.29257-0.15329-0.39158-0.4463-0.21161-0.62627 0.0844-0.0844 0.0845-0.11689 0.00043-0.27809-0.12453-0.23876-0.12598-0.65767-0.002-0.70508 0.0514-0.0197 0.15924 0.0101 0.23955 0.0664 0.16446 0.1152 0.24607 0.12986 0.24607 0.0442 0-0.0319-0.0859-0.088-0.19094-0.12461-0.24449-0.0852-1.4272-0.73163-2.0935-1.1442-1.4251-0.88241-2.5204-1.3553-4.0205-1.7359-0.66177-0.16791-0.82148-0.18363-0.96203-0.0947-0.0771 0.0488-0.0669 0.11065 0.0643 0.38697 0.13161 0.27721 0.19405 0.33908 0.39747 0.39386 0.25258 0.068 0.33772 0.25308 0.11644 0.25308-0.20879 0-0.21119 0.11425-0.006 0.26626 0.12903 0.0954 0.19485 0.19995 0.19485 0.30953 0 0.0958 0.0542 0.19933 0.1287 0.24585 0.0739 0.0461 0.1287 0.15007 0.1287 0.24399 0 0.12617 0.0516 0.18516 0.22524 0.25773 0.12387 0.0518 0.22523 0.13614 0.22523 0.18751 0 0.15019 0.21987 0.22656 0.65537 0.22762 0.49435 0.001 0.68339 0.0868 0.41615 0.18837-0.0984 0.0374-0.23501 0.068-0.30349 0.068-0.18429 0-0.15112 0.11164 0.0666 0.22424 0.10514 0.0544 0.2202 0.15313 0.25571 0.21948 0.10091 0.18855 0.33881 0.21038 0.75019 0.0688 0.22653-0.0779 0.64353-0.14579 1.048-0.17054l0.67172-0.0411-0.17875-0.15376c-0.23339-0.20075-0.16427-0.26636 0.0899-0.0854 0.30106 0.21438 0.34359 0.34215 0.28688 0.86192-0.0811 0.74386-0.043 1.0914 0.19946 1.816 0.30006 0.89684 0.38683 1.0566 0.94442 1.7391 0.5904 0.72265 0.86598 0.9717 1.4708 1.3293 1.0585 0.62578 2.2037 0.8291 3.679 0.65317 1.0083-0.12024 1.1699-0.10629 2.6166 0.2259 0.0129 0.003-0.0256-0.0695-0.0856-0.16107zm-2.4449-2.2101c-0.0204-0.0329-0.008-0.0781 0.0284-0.10033 0.036-0.0222 0.0654 0.005 0.0654 0.0599 0 0.11304-0.0386 0.12968-0.0938 0.0404zm25.243 1.4131c0.58542-0.89241 1.4111-2.5823 1.6516-3.3803 0.23299-0.77312 0.24096-0.8044 0.20483-0.8044-0.0172 0-0.11032 0.23891-0.20697 0.53091-0.26804 0.80971-0.89632 2.2638-1.2225 2.8293-0.16053 0.27832-0.48442 0.78722-0.71975 1.1309-0.23534 0.34367-0.37522 0.58224-0.31085 0.53015 0.0644-0.0521 0.33603-0.42855 0.6037-0.83658zm-33.867 0.37018c-0.15989-0.15989-0.29071-0.26678-0.29071-0.23753 0 0.0785 0.50943 0.60023 0.54824 0.56143 0.0183-0.0182-0.0976-0.16401-0.25753-0.3239zm13.191 0.20717c0.0219-0.0354 0.0108-0.0643-0.0246-0.0643s-0.0822 0.029-0.10412 0.0643c-0.0219 0.0354-0.0108 0.0643 0.0246 0.0643s0.0822-0.029 0.10412-0.0643zm22.684 0.0107c0-0.0907-0.0725-0.13227-0.16717-0.0959-0.1343 0.0515-0.10908 0.14956 0.0385 0.14956 0.0708 0 0.1287-0.0241 0.1287-0.0536zm-22.116-0.39169c0.0415-0.0503-0.0476-0.0102-0.198 0.089-0.15043 0.0992-0.2735 0.19264-0.2735 0.20763 0 0.0464 0.39166-0.19998 0.4715-0.29662zm-14.19-0.35936c-0.0404-0.0886-0.0855-0.14903-0.10036-0.13421-0.03 0.03 0.10042 0.29536 0.14526 0.29536 0.0157 0-0.005-0.0725-0.0449-0.16115zm11.338-0.60019c0-0.0294 0.0724-0.0922 0.16079-0.13953 0.24797-0.13271 0.14891-0.14301-0.11954-0.0124-0.13097 0.0637-0.21795 0.13598-0.19331 0.16062 0.0615 0.0615 0.15206 0.0564 0.15206-0.009zm0.0241-0.31331c0.21679-0.0956 0.56791-0.27917 0.78027-0.40805 3.0603-1.8573 4.9405-2.7494 6.3708-3.0228 0.21237-0.0406 0.51643-0.1028 0.6757-0.13824 0.42571-0.0947 2.3574-0.14384 2.7525-0.07 0.20429 0.0382 0.35381 0.04 0.37574 0.004 0.0622-0.10057-0.40578-0.48518-0.64488-0.53003-0.1248-0.0234-0.27646-0.0921-0.33702-0.15266-0.0926-0.0926-0.25201-0.11115-1.0008-0.11678-0.48992-0.004-0.90754-0.0235-0.92805-0.044-0.0857-0.0857 0.0657-0.17354 0.36839-0.2137 0.54479-0.0723 0.26295-0.17932-0.45667-0.17346-0.60699 0.005-0.644-0.002-0.644-0.12602 0-0.12557-0.0261-0.12954-0.60218-0.0917-0.33119 0.0218-0.73849 0.0701-0.90511 0.10744-0.62288 0.1396-0.50707-0.10068 0.20825-0.43205 0.77365-0.35839 0.43701-0.53681-0.46961-0.2489-0.52244 0.1659-0.63282 0.16674-0.57049 0.004 0.0246-0.0641-0.006-0.0945-0.0955-0.0945-0.0725 0-0.14969-0.029-0.17157-0.0644-0.0588-0.0951-0.41247-0.0782-0.80514 0.0384-0.3167 0.094-0.35221 0.094-0.42098 0-0.0998-0.13647-0.27777-0.12949-0.67323 0.0264-0.18379 0.0724-0.39311 0.11262-0.47702 0.0916-0.0977-0.0245-0.28538 0.0311-0.5418 0.1605-0.44709 0.22569-0.52465 0.23967-0.52465 0.0946 0-0.0735-0.0325-0.0898-0.11262-0.0563-0.0619 0.0259-0.21397 0.0674-0.33784 0.0921-0.27028 0.054-0.48192 0.16123-0.73634 0.37296-0.17186 0.14303-0.19645 0.14785-0.26643 0.0521-0.0708-0.0968-0.0978-0.0947-0.33004 0.0264-0.21934 0.11432-0.2813 0.20052-0.46642 0.64889-0.11741 0.28438-0.33105 0.71129-0.47476 0.9487-0.35161 0.58088-0.6127 1.2329-0.72416 1.8085l-0.0922 0.47591 0.20223 0.31513c0.20184 0.31455 0.5782 0.62104 0.97367 0.79293 0.31846 0.13842 0.66725 0.11379 1.102-0.0778zm4.285-0.10572c0.29098-0.31568 0.53843-0.62148 0.50289-0.62148-0.013 0-0.20522 0.20271-0.42704 0.45046-0.22182 0.24776-0.38759 0.45047-0.36837 0.45047 0.0192 0 0.15085-0.12576 0.29252-0.27945zm-2.2981-0.7652c0.50831-0.32527 0.69542-0.50034 0.25741-0.24084-0.13273 0.0786-0.46685 0.27427-0.7425 0.43475-0.27565 0.16049-0.51758 0.31833-0.53763 0.35077-0.0553 0.0895 0.46354-0.18686 1.0227-0.54468zm-13.404-0.0894c0.26546-0.5672 0.71026-1.3094 1.5857-2.646 0.19103-0.29165 0.34732-0.54504 0.34732-0.56308 0-0.0181-0.12032-0.0328-0.26737-0.0328-0.22622 0-0.30344 0.0379-0.50171 0.24634-0.52598 0.55292-1.1894 1.7405-1.3781 2.4669-0.11881 0.45738-0.19579 1.1486-0.12753 1.145 0.03-0.002 0.18378-0.27892 0.34169-0.61632zm32.513 0.34892c-0.0601-0.0601-0.0772-0.0429-0.0772 0.0772 0 0.12012 0.0172 0.13728 0.0772 0.0772 0.0601-0.0601 0.0601-0.0944 0-0.15444zm0.98184 0.14602c0.0204-0.0329 0.006-0.0791-0.032-0.10259-0.0915-0.0566-0.3835 0.0191-0.3835 0.0994s0.36611 0.0832 0.41554 0.003zm-0.54964-0.15883c0.06-0.0723 0.0363-0.10706-0.12082-0.17659-0.10755-0.0476-0.19554-0.10845-0.19554-0.1352 0-0.0268-0.062-0.0487-0.13775-0.0487-0.12538 0-0.11817 0.0202 0.0804 0.22455 0.246 0.25318 0.2693 0.26165 0.37367 0.13589zm-29.743-0.178c-0.054-0.0827-0.21864-0.51236-0.36584-0.95478-0.27323-0.82123-0.33491-1.3167-0.25572-2.0544 0.0168-0.15685 0.002-0.29384-0.0322-0.30498-0.0945-0.0304-0.11234 1.0992-0.0256 1.6194 0.0987 0.59235 0.64725 1.9755 0.74474 1.878 0.0181-0.0181-0.0114-0.1005-0.0654-0.1832zm30.205-0.0539c0-0.0354-0.0128-0.0643-0.0284-0.0643s-0.0463 0.029-0.0682 0.0643c-0.0219 0.0354-0.009 0.0644 0.0284 0.0644 0.0375 0 0.0682-0.029 0.0682-0.0644zm0.5161-0.0981c0.1235-0.14881 0.0503-0.16398-0.12103-0.0251-0.10349 0.0839-0.12139 0.12317-0.0562 0.12317 0.0527 0 0.13241-0.0441 0.17718-0.0981zm-0.64919-0.15318c0.185-0.2598 0.16627-0.28183-0.06-0.0705-0.1997 0.18655-0.23634 0.25741-0.13308 0.25741 0.033 0 0.11986-0.0841 0.19305-0.18691zm1.1305-0.0705c0.0899-0.17389 0.0328-0.28597-0.065-0.12766-0.0222 0.036-0.0674 0.0487-0.10032 0.0284-0.0686-0.0424-0.0779 0.042-0.0208 0.19054 0.0535 0.13939 0.0714 0.13058 0.18617-0.0913zm-17.505-0.47839 0.10878-0.19731-0.12719 0.15663c-0.07 0.0862-0.17614 0.24542-0.23596 0.35394l-0.10878 0.1973 0.12718-0.15662c0.07-0.0862 0.17614-0.24542 0.23597-0.35394zm15.542 0.14054c0.00064-0.0265-0.0425-0.0483-0.0956-0.0483-0.0985 0-0.13184 0.13628-0.0527 0.21547 0.0432 0.0432 0.14628-0.0731 0.14821-0.16721zm1.4167-0.0147c0-0.11348-0.21029-0.48312-0.27515-0.48365-0.0275-0.00019-0.005 0.0873 0.0509 0.19454 0.0554 0.10722 0.0834 0.22305 0.0622 0.25741-0.0516 0.0835 0.0265 0.20297 0.10215 0.15624 0.0329-0.0204 0.0599-0.0764 0.0599-0.12454zm0.32176 0.0951c0-0.0354-0.0307-0.0644-0.0682-0.0644s-0.0502 0.029-0.0284 0.0644c0.0219 0.0354 0.0525 0.0643 0.0682 0.0643 0.0156 0 0.0284-0.029 0.0284-0.0643zm-0.74895-0.35393c-0.041-0.10684-0.18836-0.12949-0.24511-0.0377-0.02 0.0324 0.00001 0.0735 0.0445 0.0915 0.15746 0.0635 0.23741 0.042 0.20064-0.0538zm4.0309 0.004c0-0.13708-0.10864-0.17994-0.25607-0.10104-0.18926 0.10129-0.15918 0.19377 0.063 0.19377 0.12519 0 0.19305-0.0326 0.19305-0.0927zm-22.199-0.13359c0.1758-0.0891 0.31962-0.17644 0.31962-0.19414 0-0.0288-0.63686 0.27185-0.7025 0.33167-0.0759 0.0692 0.0988 0.006 0.38288-0.13753zm17.051 0.13505c0-0.0148 0.0187-0.0756 0.0415-0.13507 0.0368-0.0958 0.0257-0.0983-0.0965-0.022-0.16065 0.10032-0.17952 0.18394-0.0415 0.18394 0.0531 0 0.0965-0.0121 0.0965-0.0269zm-15.187-0.23049c0.0379-0.0708 0.0544-0.12871 0.0367-0.12871s-0.0632 0.0579-0.10105 0.12871c-0.0379 0.0708-0.0544 0.1287-0.0367 0.1287s0.0632-0.0579 0.10106-0.1287zm-1.191-0.25667c0.0226-0.0365-0.003-0.0473-0.0605-0.0253-0.11148 0.0428-0.13188 0.0889-0.0393 0.0889 0.0333 0 0.0783-0.0286 0.0999-0.0636zm1.5003-0.35638c-0.0198-0.0198-0.0558 0.0159-0.08 0.0794-0.0349 0.0917-0.0275 0.0991 0.036 0.036 0.044-0.0437 0.0637-0.0956 0.0439-0.11539zm0.14015-0.30397c0.00064-0.0265-0.028-0.0483-0.0634-0.0483s-0.0639 0.0651-0.0634 0.14479c0.00086 0.11708 0.0129 0.12632 0.0634 0.0483 0.0343-0.0531 0.0628-0.11824 0.0634-0.14479zm14.651-0.26674c0.51623-0.13745 0.99111-0.42465 1.1268-0.68144 0.22547-0.42685 0.0968-1.0935-0.39827-2.064-0.18514-0.3629-1.3168-1.4762-1.7678-1.7391-0.55424-0.3231-1.4654-0.70071-1.923-0.79691-0.35839-0.0754-0.41165-0.072-0.59432 0.038-0.26136 0.15726-0.51866 0.15251-0.79285-0.0147-0.17742-0.10815-0.32644-0.13489-0.75176-0.13489-1.5045 0-1.9365 0.77905-1.2025 2.1686 0.19828 0.37538 0.92684 1.2042 1.4004 1.5932 1.5082 1.2388 3.6726 1.9588 4.9033 1.6311zm-27.52-1.7121c0-0.0354-0.029-0.0643-0.0643-0.0643-0.0354 0-0.0644 0.029-0.0644 0.0643 0 0.0354 0.029 0.0644 0.0644 0.0644s0.0643-0.029 0.0643-0.0644zm6.3065-0.26965c0-0.0846-0.14625-0.0316-0.17832 0.0646-0.0157 0.047 0.0138 0.0614 0.0764 0.0374 0.056-0.0215 0.1019-0.0674 0.1019-0.10193zm8.4944 0.0722c0-0.10505 0.71673-1.5149 1.0266-2.0192 1.1097-1.8065 2.0608-2.9632 3.2528-3.9556l0.2574-0.21431-0.27009 0.14654c-0.51363 0.27866-1.6121 1.1435-2.215 1.744-0.88067 0.87704-1.8947 2.3035-2.487 3.4986-0.2702 0.54513-0.30465 0.67569-0.1783 0.67569 0.0566 0 0.11955 0.0434 0.13992 0.0965 0.0427 0.11117 0.47374 0.13643 0.47374 0.0277zm-1.8662-0.12428c0-0.0755-0.0495-0.0755-0.22523 0-0.11404 0.049-0.10855 0.0558 0.0483 0.0598 0.0973 0.002 0.17696-0.0244 0.17696-0.0598zm18.771-0.91701c-0.0492-1.2244-0.26879-2.1476-0.70465-2.9632l-0.14458-0.27052-0.02 0.31513c-0.0273 0.43002 0.12975 1.1851 0.4698 2.2589 0.15692 0.49551 0.30298 1.0674 0.32458 1.271 0.0741 0.69799 0.11431 0.36965 0.0749-0.61134zm-24.727 0.85866c0.0198-0.0321-0.0219-0.0432-0.0927-0.0247-0.15026 0.0393-0.16926 0.083-0.0361 0.083 0.051 0 0.10896-0.0263 0.1288-0.0583zm1.2907-0.26341c0.0219-0.0354-0.007-0.0643-0.0643-0.0643s-0.0862 0.029-0.0643 0.0643c0.0219 0.0354 0.0508 0.0644 0.0643 0.0644s0.0425-0.029 0.0643-0.0644zm20.789-0.14079c0.0324-0.102 0.007-0.17134-0.0922-0.25164-0.18125-0.14677-0.17295-0.19824 0.024-0.14881 0.11299 0.0284 0.16088 0.0141 0.16088-0.0478 0-0.0485 0.0724-0.31629 0.16088-0.59509 0.19474-0.61359 0.19422-0.60257 0.0213-0.45071-0.14837 0.13028-0.14827 0.13171-0.0144-0.19917 0.0215-0.0531 0.007-0.0965-0.0322-0.0965s-0.0712-0.0309-0.0712-0.0687 0.0507-0.0532 0.11262-0.0342c0.16762 0.0513 0.64413-0.72686 0.86299-1.4094 0.32576-1.0159 0.31705-1.4521-0.0229-1.1486-0.13094 0.11691-0.13242 0.11641-0.0872-0.029 0.0272-0.0874 0.0143-0.18608-0.0315-0.24132-0.0642-0.0773-0.0506-0.0934 0.0788-0.0934 0.2051 0 0.31038-0.26701 0.22201-0.56308-0.0343-0.11503-0.0795-0.20914-0.10049-0.20914-0.0789 0-0.20257 0.2698-0.17153 0.37405 0.0228 0.0765-0.0332 0.13941-0.18999 0.21306-0.22538 0.10591-0.28573 0.0812-0.14511-0.0594 0.0601-0.0601 0.0601-0.0944 0-0.15444-0.11584-0.11584-0.093-0.19388 0.044-0.15039 0.16619 0.0527 0.44293-0.39519 0.33561-0.54321-0.0391-0.0539-0.0998-0.16483-0.13508-0.24659-0.0671-0.15559-0.22738-0.13022-0.16725 0.0265 0.0224 0.0583-0.01 0.09-0.0921 0.09-0.0697 0-0.12669 0.029-0.12669 0.0644s-0.0217 0.0644-0.0483 0.0644-0.0483-0.0881-0.0483-0.19587c0-0.15055 0.0341-0.20444 0.14759-0.23291 0.2158-0.0542 0.15163-0.14771-0.32967-0.48062-0.64731-0.44774-1.3855-0.60139-2.09-0.43504-0.37213 0.0879-1.4557 0.59834-1.7177 0.80919-1.2686 1.021-2.5316 1.7665-3.2498 1.9182-0.12388 0.0262-0.26867 0.0754-0.32176 0.1094-0.0728 0.0466-0.0649 0.0509 0.0322 0.0175 0.0708-0.0244 0.37485-0.0543 0.67569-0.0665 0.30085-0.0122 0.5745-0.0234 0.60813-0.0249 0.0336-0.002 0.0264-0.0375-0.0161-0.0799-0.1076-0.1076-0.0964-0.18352 0.0204-0.13869 0.0595 0.0228 0.14928-0.0282 0.2299-0.13073 0.0728-0.0925 0.17859-0.16818 0.23517-0.16818 0.0566 0 0.15969-0.0507 0.22912-0.11261 0.12162-0.10851 0.12464-0.10751 0.0827 0.0274-0.0305 0.0982-0.009 0.16188 0.0719 0.2132 0.0981 0.0622 0.0888 0.0676-0.0615 0.0357-0.13183-0.0279-0.17697-0.0125-0.17697 0.0603 0 0.0538-0.029 0.0978-0.0643 0.0978-0.0354 0-0.0643 0.044-0.0643 0.0978 0 0.0709-0.0422 0.0872-0.15386 0.0591-0.0846-0.0212-0.17321-0.007-0.19686 0.0309-0.0252 0.0408 0.009 0.0696 0.0833 0.0696 0.46081 0 2.0559 0.79058 2.956 1.4651 0.4956 0.37139 1.3764 1.2897 1.7471 1.8216 0.12189 0.17489 0.24027 0.28782 0.26305 0.25096 0.0228-0.0369 0.0843-0.0505 0.13681-0.0304 0.0597 0.0229 0.12804-0.0244 0.1827-0.12653 0.048-0.0897 0.1147-0.16313 0.14818-0.16313 0.0335 0 0.0123 0.0742-0.0471 0.16481-0.0594 0.0906-0.0964 0.19923-0.0822 0.24132 0.0142 0.0421-0.0179 0.10872-0.0714 0.1481-0.0855 0.063-0.0794 0.11533 0.0501 0.43437 0.15885 0.39139 0.22707 0.44237 0.29701 0.222zm-0.27121-2.0859c0.0752-0.15028 0.0816-0.21783 0.026-0.2735-0.0557-0.0557-0.0419-0.0739 0.0555-0.0739 0.13195 0 0.41028-0.31337 0.41207-0.46395 0.00086-0.0638 0.0139-0.0626 0.057 0.005 0.037 0.0585 0.002 0.1674-0.10217 0.32151l-0.15817 0.23308 0.13335 0.0885c0.0734 0.0487 0.13336 0.1173 0.13336 0.15245 0 0.0351-0.068 0.0193-0.15115-0.0351-0.14177-0.0929-0.16214-0.0884-0.32843 0.073l-0.17728 0.17207 0.0999-0.19957zm-0.378-0.436c0.0598-0.10019 0.093-0.22326 0.0737-0.2735-0.0199-0.0518 0.004-0.0913 0.0541-0.0913 0.049 0 0.14856-0.0796 0.22117-0.17697 0.1277-0.17116 0.1321-0.17222 0.13408-0.0322 0.001 0.0796-0.0269 0.14479-0.0623 0.14479-0.1185 0-0.066 0.18387 0.0643 0.22524 0.0708 0.0225 0.12871 0.0663 0.12871 0.0975s-0.0861 0.0267-0.19127-0.01c-0.17038-0.0594-0.20982-0.0467-0.36127 0.11597l-0.17001 0.18264 0.10876-0.18217zm1.0212-0.0644c0.0237-0.0648 0.0431-0.17342 0.0431-0.24132s0.033-0.12344 0.0734-0.12344c0.0403 0 0.1141-0.0507 0.16391-0.11261 0.0807-0.10042 0.0859-0.0882 0.0478 0.11261-0.0235 0.12388-0.0466 0.22554-0.0513 0.22592-0.005 0.00039-0.0786 0.0583-0.16427 0.1287-0.14374 0.11818-0.15239 0.11896-0.11262 0.0101zm-0.28-0.457c0.041-0.0494 0.0675-0.11452 0.0589-0.14479-0.009-0.0303 0.0773-0.15222 0.1908-0.27099 0.13605-0.14235 0.20638-0.18203 0.20638-0.11641 0 0.0547-0.0313 0.11888-0.0696 0.14253-0.0387 0.0239-0.0518 0.11367-0.0297 0.20199 0.0339 0.13525 0.0214 0.15313-0.0837 0.11976-0.0791-0.0251-0.13719-0.004-0.16137 0.0592-0.0208 0.0541-0.0712 0.0984-0.11203 0.0984-0.056 0-0.0559-0.0221 0.00022-0.0897zm-1.9421-0.40897c0.0436-0.11387 0.28942-0.34398 0.32733-0.3064 0.0286 0.0284-0.13537 0.31228-0.21361 0.36976-0.11024 0.081-0.15866 0.054-0.11372-0.0634zm1.9478-0.0414c0-0.0493 0.0434-0.10631 0.0965-0.12669 0.1278-0.049 0.12202-0.16325-0.0161-0.31806-0.10894-0.12212-0.10763-0.12468 0.0403-0.0786 0.12163 0.0379 0.18526 0.01 0.31083-0.13624 0.11632-0.13548 0.14614-0.15001 0.11325-0.0552-0.11372 0.32789-0.11154 0.3615 0.0258 0.39742 0.21893 0.0572 0.15852 0.14494-0.0739 0.10723-0.17905-0.0291-0.22464-0.009-0.30046 0.13275-0.097 0.18135-0.19633 0.22047-0.19633 0.0774zm-2.1968-0.9593c0.0482-0.0593 0.0696-0.15478 0.0475-0.21227-0.0298-0.0776-0.013-0.0941 0.0653-0.0641 0.058 0.0222 0.14989 0.004 0.20425-0.0411 0.082-0.0677 0.0916-0.0651 0.0562 0.015-0.0234 0.0531-0.0605 0.14721-0.0823 0.20915-0.0219 0.0619-0.0629 0.11261-0.0913 0.11261s-0.10463 0.0199-0.16946 0.0442c-0.10345 0.0388-0.10715 0.031-0.0302-0.0635zm-1.7125-0.46095c0-0.0885 0.0272-0.14412 0.0604-0.1236 0.0332 0.0205 0.11234-0.01 0.17586-0.0672 0.10864-0.0983 0.11509-0.0935 0.10856 0.0819-0.005 0.12176-0.0351 0.17565-0.0882 0.15538-0.0447-0.0171-0.12071 0.002-0.16892 0.0417-0.07 0.0581-0.0877 0.0404-0.0877-0.0881zm-0.0457-0.51719c0.0257-0.0708 0.0447-0.17938 0.0422-0.24132-0.003-0.0676 0.0421-0.11262 0.11226-0.11262 0.0643 0 0.16231-0.0652 0.21786-0.14479 0.0555-0.0796 0.10252-0.11214 0.10438-0.0722 0.002 0.0399-0.0401 0.10861-0.0932 0.15267-0.0531 0.0441-0.0965 0.10552-0.0965 0.13658 0 0.0311 0.0434 0.0565 0.0965 0.0565s0.0965 0.0309 0.0965 0.0687c0 0.0411-0.0558 0.051-0.13882 0.0246-0.10199-0.0324-0.17187-0.004-0.2634 0.10828-0.10525 0.12871-0.11732 0.13237-0.0778 0.0236zm1.0914-1.1308c0-0.1146 0.0338-0.18847 0.0862-0.18847 0.0474 0 0.14056-0.0651 0.207-0.14479 0.0999-0.11969 0.12116-0.12592 0.12293-0.036 0.001 0.0598-0.0288 0.12793-0.0666 0.1513-0.0378 0.0234-0.0532 0.083-0.0342 0.1325s0.001 0.09-0.0388 0.09c-0.0404 0-0.11908 0.0414-0.17495 0.0919-0.0904 0.0818-0.1016 0.0711-0.1016-0.0965zm1.0618-0.31436c0-0.0698 0.0579-0.15798 0.1287-0.19587 0.10648-0.057 0.12871-0.0489 0.12871 0.0466 0 0.0635-0.0579 0.15166-0.12871 0.19587-0.11237 0.0702-0.1287 0.0643-0.1287-0.0466zm4.6145 6.6101c-0.0154-0.08-0.0286-0.0297-0.0293 0.11187-0.00071 0.14157 0.0119 0.20707 0.028 0.14554 0.0161-0.0615 0.0167-0.17736 0.001-0.25741zm-33.197-0.55268c0.22528-0.40012 0.39429-0.7428 0.37558-0.76151-0.0389-0.0389-1.266 1.1933-1.266 1.2712 0 0.0832 0.28169 0.25581 0.3852 0.23605 0.0526-0.01 0.27993-0.34563 0.50521-0.74575zm13.331 0.69673c0-0.0354-0.029-0.0644-0.0643-0.0644-0.0354 0-0.0643 0.029-0.0643 0.0644s0.029 0.0643 0.0643 0.0643c0.0354 0 0.0643-0.029 0.0643-0.0643zm2.2554-0.4022c0.26081-0.50152 1.2748-2.0349 1.6196-2.4491 0.14164-0.17017 0.24435-0.32258 0.22825-0.33868-0.0566-0.0566-1.3361 1.6005-1.3361 1.7304 0 0.0152-0.12961 0.2432-0.28803 0.50677-0.27765 0.46193-0.51433 0.95283-0.4594 0.95283 0.0146 0 0.12064-0.18099 0.23568-0.4022zm-3.7722 0.28081c0.0194-0.0314-0.0296-0.0744-0.10882-0.0957-0.22464-0.0602-0.26274-0.0481-0.17624 0.0562 0.0891 0.10735 0.23097 0.127 0.28506 0.0395zm-10.601-0.31177c-0.0163-0.0626-0.0307-0.027-0.0321 0.0792-0.001 0.10618 0.012 0.15741 0.0297 0.11384 0.0176-0.0436 0.0187-0.13044 0.002-0.19306zm-0.88743-0.43114c-0.0169-0.0169-0.0691 0.0331-0.11598 0.11109-0.0814 0.13554-0.08 0.13691 0.0308 0.0308 0.0638-0.0611 0.10213-0.12494 0.0852-0.14187zm32.742-0.59848c-0.0163-0.0626-0.0307-0.027-0.032 0.0792-0.001 0.10618 0.012 0.15741 0.0297 0.11384 0.0176-0.0436 0.0187-0.13044 0.002-0.19305zm1.1821-0.60051c0.28179-0.28178-0.0462-0.42186-0.35227-0.15043-0.15033 0.13333-0.16941 0.17755-0.0965 0.22368 0.14841 0.094 0.30759 0.068 0.4488-0.0733zm-32.18-0.0603c0-0.0354-0.0128-0.0644-0.0284-0.0644s-0.0463 0.029-0.0682 0.0644-0.009 0.0644 0.0284 0.0644c0.0375 0 0.0682-0.029 0.0682-0.0644zm23.102-0.70787c0.23711-0.2371 0.0993-0.70787-0.20726-0.70787-0.15387 0-0.37958 0.11781-0.48248 0.25183-0.10127 0.13192-0.10414 0.40864-0.005 0.50753 0.12559 0.12558 0.54932 0.0942 0.695-0.0515zm-3.4759-0.30567c-0.003-0.35334-0.1347-0.4696-0.41214-0.36314-0.13905 0.0534-0.12775 0.15025 0.0381 0.32682 0.1665 0.17723 0.37527 0.19751 0.37401 0.0363zm-25.126-0.24469c0.44325-0.11545 0.6812-0.31328 0.90544-0.75276 0.16149-0.3165 0.14409-0.36827-0.0732-0.21773-0.0698 0.0484-0.30823 0.15371-0.52982 0.2341-0.74837 0.27151-1.4547 0.093-2.0656-0.52189-0.408-0.412-0.634-0.8296-0.702-1.2956l-0.049-0.3394-0.148 0.3451c-0.099 0.22972-0.15072 0.48079-0.15481 0.75082-0.005 0.35277 0.0221 0.45229 0.21035 0.76292 0.30089 0.49647 0.85938 0.882 1.511 1.043 0.44059 0.10888 0.64917 0.10709 1.0966-0.009zm21.941-0.81332c0.17697-0.16132 0.40864-0.372 0.51482-0.46817l0.19305-0.17485-0.20719 0.13759c-0.11395 0.0757-0.50489 0.42962-0.86875 0.78654-0.60465 0.59311-0.51999 0.52846 0.36807-0.28111zm-16.589 0.35014c0.40404-0.69176 0.54198-1.085 0.61665-1.7578 0.0611-0.55047 0.0557-0.65765-0.0463-0.92486-0.062-0.1669-0.231-0.4146-0.373-0.5511-0.611-0.5877-1.56-0.676-2.318-0.2156-0.444 0.2697-0.823 0.5922-1.018 0.8657-0.12798 0.17973-0.12715 0.17956 0.2024-0.0422 0.47244-0.31793 0.94594-0.44139 1.505-0.39239 0.62615 0.0549 0.90187 0.14378 1.1665 0.37611 0.31142 0.27343 0.41556 0.50267 0.4567 1.0053 0.0396 0.48405-0.13872 1.3691-0.3654 1.8135-0.20604 0.40387-0.10438 0.30078 0.17487-0.17734zm31.968 0.22492c0.12461-0.0667 0.12469-0.0695 0.004-0.13844-0.29192-0.16715-0.66339-0.56925-0.79014-0.85528-0.0753-0.17-0.2121-0.48082-0.30393-0.69071-0.32416-0.74089-0.86022-1.195-1.4106-1.195h-0.24126l0.18114 0.25603c0.18678 0.264 0.26916 0.3059 0.3812 0.19386 0.0437-0.0437 0.0665 0.0382 0.0697 0.24996 0.003 0.18908 0.087 0.52997 0.21065 0.85324 0.34363 0.89842 0.62159 1.2867 1.0074 1.4073 0.21003 0.0656 0.70102 0.0211 0.8917-0.081zm-30.857-0.27318c0-0.0354-0.0281-0.0209-0.0624 0.0322s-0.0624 0.12549-0.0624 0.16088c0 0.0354 0.0281 0.0209 0.0624-0.0322s0.0624-0.12549 0.0624-0.16088zm31.141-0.19836c0.208-0.265 0.221-0.393 0.105-0.9941-0.089-0.4577-0.097-0.6288-0.039-0.897 0.138-0.6449 0.039-1.0654-0.217-0.9221-0.0774 0.0433-0.0913 0.0792-0.0426 0.10933 0.0945 0.0584 0.10244 2.6497 0.008 2.7079-0.0354 0.0219-0.0644 0.067-0.0644 0.10033 0 0.11187 0.1183 0.0619 0.25009-0.10563zm0.57982-0.0613c0.10985-0.12511 0.19949-0.24818 0.1992-0.27349-0.00033-0.0253-0.0294-0.29776-0.0646-0.60544-0.0554-0.48327-0.0465-0.63468 0.0649-1.1126 0.15183-0.65117 0.15365-0.67687 0.0479-0.67687-0.0917 0-0.26838-0.2512-0.21455-0.30502 0.0193-0.0193 0.0792 0.002 0.13316 0.0463 0.19657 0.16314 0.0969-0.06-0.12669-0.28354-0.46995-0.46995-1.2214-0.43996-2.0597 0.0822-0.14157 0.0882-0.42391 0.24557-0.62743 0.34976-0.20351 0.10419-0.37002 0.21041-0.37002 0.23605 0 0.0925 0.33411 0.19597 0.63046 0.19522 0.44306-0.001 0.88746-0.14179 1.3956-0.44177 0.31225-0.18434 0.52342-0.26533 0.69178-0.26533 0.13329 0 0.24235 0.029 0.24235 0.0643 0 0.0354-0.0729 0.0644-0.16211 0.0644-0.14513 0-0.15727 0.0185-0.11595 0.17697 0.0254 0.0973 0.0404 0.26384 0.0333 0.37002-0.0155 0.23299-0.0117 1.3575 0.006 1.9145 0.007 0.22121-0.0106 0.46735-0.0395 0.54699-0.0827 0.22767 0.10326 0.18185 0.33552-0.0827zm-2.791-0.34124c-0.0908-0.16714-0.0931-0.16266-0.0952 0.1826-0.002 0.35139-0.002 0.35262 0.0931 0.17134 0.0833-0.15972 0.0836-0.20407 0.002-0.35394zm-27.755-0.18945c0.0248-0.0949-0.005-0.11422-0.15775-0.10362-0.22299 0.0154-0.32674 0.0896-0.12536 0.0896 0.0834 0 0.13943 0.0403 0.13943 0.10033 0 0.12873 0.10374 0.0664 0.14368-0.0863zm20.742-0.0641c-0.0537-0.0537-0.16446 0.0598-0.16245 0.16642 0.002 0.0955 0.0135 0.0937 0.0959-0.0152 0.0516-0.0682 0.0816-0.13625 0.0666-0.15123zm-12.298 0.0397c0.1936-0.0882 0.209-0.15974 0.0456-0.21161-0.14741-0.0468-0.60868 0.1389-0.55616 0.22389 0.0524 0.0848 0.31107 0.0786 0.51059-0.0123zm7.467-0.7542c-0.0407-0.043-0.58879 0.31289-0.7425 0.48211-0.10833 0.11926-0.0144 0.0747 0.30307-0.14377 0.253-0.1764 0.451-0.3286 0.439-0.3406zm-2.9062 0.12902c0.11126-0.0978 0.11145-0.10672 0.004-0.18544-0.15754-0.1152-0.28743-0.10029-0.47326 0.0543-0.1554 0.12928-0.15632 0.13508-0.0356 0.22339 0.13698 0.10016 0.32525 0.0658 0.50502-0.0923zm-6.8406-1.0564c0.27682-0.33567 0.27706-0.33639 0.037-0.11261-0.21647 0.20177-0.40415 0.45046-0.33995 0.45046 0.0134 0 0.14974-0.15203 0.30298-0.33785zm-4.5228 0.0995c0.0131-0.0393-0.0451-0.0537-0.14221-0.0351-0.22329 0.0427-0.25681 0.11814-0.0484 0.10902 0.0926-0.004 0.17844-0.0373 0.19064-0.0739zm16.94-0.4146c0.4455-0.15091 0.49446-0.17905 0.25992-0.14937-0.27006 0.0342-1.4807 0.55618-1.4807 0.63844 0 0.0205 0.15118-0.0393 0.33595-0.1329 0.18478-0.0936 0.58296-0.25391 0.88484-0.35617zm9.8263 0.35268c-0.0501-0.0501-0.23384 0.0587-0.19773 0.11708 0.0224 0.0362 0.0748 0.0298 0.12989-0.0159 0.0508-0.0421 0.0813-0.0877 0.0678-0.10117zm-33.28-0.839c0.14157-0.10731 0.4022-0.26999 0.57917-0.36151 0.17696-0.0915 0.27557-0.16773 0.21912-0.16938-0.10872-0.003-0.79948 0.42188-1.1142 0.68559-0.10294 0.0863-0.27076 0.27793-0.37294 0.42591-0.18279 0.26476-0.18083 0.26383 0.12282-0.0582 0.16973-0.18 0.42443-0.41508 0.566-0.5224zm25.033 0.71964c1.2658-0.0369 1.7795-0.10887 2.2165-0.31075l0.287-0.1344-0.222-0.0591c-0.33729-0.09-1.9393-0.0002-2.6991 0.15133-0.68262 0.13611-1.4801 0.36666-1.4801 0.42788 0 0.0183 0.16651 0.016 0.37003-0.005 0.203-0.021 0.89-0.0535 1.527-0.072zm-27.165-0.2839c0.4312-0.20874 1.0931-0.90987 0.7006-0.74213-0.0619 0.0265-0.30729 0.10755-0.54522 0.18018l-0.4326 0.13205-0.60111-0.14683c-0.49474-0.12086-0.6461-0.13472-0.85542-0.0784-0.32151 0.0866-0.83246 0.40789-0.92572 0.58215-0.0848 0.15837-0.0994 0.15669 0.34883 0.0399 0.38438-0.10011 0.76579-0.065 1.322 0.12181 0.34231 0.11495 0.61911 0.0901 0.98863-0.0888zm-1.9378 0.0818c-0.0442-0.0179-0.11664-0.0179-0.16088 0-0.0442 0.0178-0.008 0.0324 0.0804 0.0324 0.0885 0 0.12468-0.0146 0.0804-0.0324zm7.3844-0.079c0-0.0315-0.0583-0.12559-0.12963-0.20914l-0.129-0.152 0.114 0.2087c0.11908 0.21891 0.14572 0.24676 0.14572 0.15233zm28.379-0.007c0-0.0354-0.029-0.0644-0.0644-0.0644s-0.0643 0.029-0.0643 0.0644 0.029 0.0644 0.0643 0.0644c0.0354 0 0.0644-0.029 0.0644-0.0644zm-0.042-0.328c0.11601-0.0939 0.12323-0.1251 0.0496-0.21386-0.12832-0.15462-0.18709-0.1287-0.29529 0.13027-0.0791 0.18928-0.0823 0.25289-0.0169 0.33178 0.0713 0.086 0.0836 0.0836 0.10389-0.0203 0.0127-0.0649 0.0841-0.1674 0.15879-0.22788zm0.4939 0.23302c0-0.0156-0.029-0.0463-0.0643-0.0682-0.0354-0.0219-0.0644-0.009-0.0644 0.0284 0 0.0375 0.029 0.0681 0.0644 0.0681s0.0643-0.0128 0.0643-0.0284zm-7.432-0.1267c0.28315-0.0486 0.65502-0.10815 0.82639-0.13235 0.17136-0.0242 0.29718-0.0584 0.27961-0.0759-0.0397-0.0397-1.3575 0.14537-1.6208 0.22764-0.28488 0.089-0.0693 0.0809 0.51481-0.0193zm-14.383-0.4135c-0.0397-0.0132-0.11294 0.0296-0.16266 0.0953-0.14943 0.19726-0.10593 0.24904 0.0702 0.0836 0.0931-0.0874 0.13328-0.16521 0.0924-0.17882zm7.7454 0.18386c0.086-0.0839-0.23274-0.25926-0.39443-0.21697-0.15964 0.0417-0.18461 0.14853-0.0631 0.27 0.0811 0.0811 0.35229 0.0497 0.45756-0.053zm9.5655 0.097c0-0.0167-0.1585-0.10527-0.35223-0.19692-0.19372-0.0917-0.45767-0.28797-0.58655-0.43626-0.1997-0.22979-0.21995-0.24108-0.137-0.0764 0.0535 0.10626 0.15811 0.24821 0.23239 0.31544 0.21607 0.19553 0.0676 0.29357-0.46761 0.30879-0.33297 0.009-0.23822 0.0235 0.34572 0.0513 0.44242 0.0211 0.8406 0.0441 0.88484 0.0513 0.0442 0.007 0.0804-0.00058 0.0804-0.0173zm2.9576-0.26206c-0.0846-0.09-0.32851-0.2488-0.54212-0.35286-0.32354-0.15762-0.51255-0.19886-1.1322-0.24704-0.8231-0.064-1.1004-0.16559-1.5427-0.56512-0.24357-0.22006-0.64152-0.82817-0.64152-0.98033 0-0.0802 0.34054-0.45813 0.41281-0.45813 0.0247 0-0.00013 0.0644-0.0552 0.14302-0.0551 0.0787-0.10018 0.16135-0.10018 0.18375 0 0.0628 0.80991 0.15109 1.3836 0.15083 0.45609-0.00022 0.55745-0.0235 0.88854-0.20389 0.3521-0.19186 0.36607-0.20843 0.24132-0.28633-0.16735-0.10451-0.16953-0.18044-0.005-0.18044 0.24722 0 0.34297 0.27516 0.35421 1.0179 0.008 0.49772 0.0397 0.74321 0.11655 0.88971 0.10372 0.19772 0.79281 0.85948 0.89496 0.85948 0.13511 0-0.0136-0.84854-0.2303-1.3137-0.084-0.1801-0.188-0.4431-0.232-0.5847-0.115-0.3727-0.357-0.7701-0.543-0.8918-0.20006-0.13109-0.5029-0.13349-1.1528-0.009-0.27741 0.0531-0.67415 0.0965-0.88164 0.0965-0.2914 0-0.39218 0.0256-0.44284 0.11262-0.0364 0.0625-0.0665 0.0768-0.0676 0.0322-0.003-0.12441-0.42471-0.0972-0.7043 0.0454-0.32509 0.16585-0.5847 0.48125-0.5847 0.71036 0 0.11907 0.15801 0.42042 0.45307 0.86404 0.38954 0.58569 0.50007 0.70577 0.78831 0.85638 0.35821 0.18718 0.37385 0.18812 2.4588 0.14767 0.28315-0.005 0.58721 0.019 0.6757 0.0545 0.2898 0.11617 0.35556 0.0847 0.19045-0.091zm-1.4453-2.7322c-0.0219-0.0354 0.007-0.0644 0.0643-0.0644s0.0862 0.029 0.0643 0.0644-0.0508 0.0644-0.0643 0.0644-0.0425-0.029-0.0643-0.0644zm-8.0762 2.5779c0-0.0942-0.13373-0.15455-0.35874-0.16201-0.27065-0.009-0.22075 0.14138 0.0585 0.17642 0.11202 0.014 0.22538 0.0302 0.25193 0.0358 0.0265 0.006 0.0483-0.0169 0.0483-0.0502zm-18.791-0.1325c-0.0531-0.0343-0.12549-0.0624-0.16088-0.0624-0.0354 0-0.0209 0.0281 0.0322 0.0624s0.12548 0.0624 0.16088 0.0624 0.0209-0.0281-0.0322-0.0624zm9.0414 0c0.0219-0.0354-0.007-0.0644-0.0643-0.0644s-0.0862 0.029-0.0644 0.0644c0.0219 0.0354 0.0508 0.0644 0.0644 0.0644 0.0135 0 0.0425-0.029 0.0643-0.0644zm1.1556 0.004c0.0204-0.0329 0.008-0.0781-0.0284-0.10032-0.036-0.0222-0.0654 0.005-0.0654 0.0599 0 0.11304 0.0386 0.12968 0.0938 0.0404zm9.1065-0.27592c0.001-0.0254-0.0414-0.0296-0.0945-0.009-0.0531 0.0204-0.0965 0.0974-0.0965 0.17116 0 0.13174 0.002 0.1319 0.0945 0.009 0.052-0.0687 0.0954-0.14573 0.0965-0.17116zm11.396 0.17004c0.0698-0.0841 0.0683-0.1116-0.008-0.1608-0.1449-0.0931-0.28351-0.0396-0.30601 0.1181-0.0248 0.17397 0.18196 0.20207 0.31422 0.0427zm-31.747-0.002c-0.0214-0.0214-0.0769-0.0237-0.12334-0.005-0.0513 0.0206-0.0361 0.0358 0.0389 0.0389 0.0678 0.003 0.10585-0.0124 0.0845-0.0338zm0.74261-0.003c-0.0436-0.0176-0.13044-0.0187-0.19305-0.002-0.0626 0.0163-0.027 0.0307 0.0792 0.032 0.10618 0.001 0.15741-0.012 0.11384-0.0297zm19.257-0.15453c0.0231-0.0728 0.11918-0.16425 0.21348-0.20319 0.13325-0.055 0.14703-0.0766 0.0618-0.097-0.12988-0.031-0.50172 0.22698-0.50172 0.34813 0 0.1354 0.18033 0.0972 0.2264-0.048zm-0.561-0.4215c-0.11-0.1532-0.229-0.2608-0.264-0.2392-0.0352 0.0217 0.002 0.089 0.0835 0.15036 0.10806 0.0815 0.13676 0.15086 0.10797 0.26094-0.0216 0.0824-0.006 0.19024 0.0352 0.23952 0.0628 0.0756 0.087 0.0723 0.15574-0.0217 0.069-0.0944 0.051-0.15369-0.11867-0.38988zm-22.484 0.153c0.0338-0.0966 0.0477-0.18939 0.031-0.20611-0.0263-0.0263-0.61202 0.14879-0.70133 0.20962-0.083 0.0566 0.24713 0.20788 0.41703 0.19113 0.14259-0.0141 0.20767-0.0641 0.2533-0.19464zm23.689 0.13926c0.0682-0.11037 0.007-0.1212-0.12766-0.0226-0.10439 0.0763-0.10763 0.0913-0.0198 0.0913 0.0578 0 0.12411-0.0309 0.14744-0.0686zm-12.197-0.13919c0-0.0377-0.0409-0.0314-0.0965 0.0148-0.0531 0.0441-0.0965 0.0901-0.0965 0.10239 0 0.0123 0.0434 0.006 0.0965-0.0148 0.0531-0.0204 0.0965-0.0665 0.0965-0.10239zm0.85061-0.12565c-0.0403-0.0403-0.0493 0.002-0.0253 0.11945 0.0275 0.13468 0.0436 0.15086 0.0624 0.0624 0.0139-0.0657-0.003-0.14753-0.0371-0.18184zm11.656 0.10618c-0.0511-0.13303-0.0868-0.11735-0.0868 0.038 0 0.0729 0.0277 0.11539 0.0615 0.0945 0.0339-0.0209 0.0452-0.0806 0.0253-0.1325zm4.1018-0.14803c-0.0347-0.0648-0.11366-0.15896-0.17544-0.20914-0.0695-0.0565-0.054-0.0115 0.0408 0.11791 0.16902 0.23088 0.23239 0.27381 0.13468 0.0912zm7.5832-0.0667c0.0743-0.13886 0.0324-0.20152-0.1349-0.20152-0.0715 0-0.11797 0.0465-0.11797 0.11798 0 0.22367 0.15115 0.27361 0.25287 0.0835zm-34.233-0.16093c0.0868-0.26314 0.005-0.69592-0.16839-0.89065-0.15904-0.1786-0.48128-0.30827-0.76605-0.30827-0.4866 0-1.381 0.34157-1.506 0.57514-0.085 0.15888-0.0865 0.51884-0.002 0.51884 0.0354 0 0.0643-0.0256 0.0643-0.057 0-0.18698 1.3323-0.63762 1.6496-0.55797 0.28373 0.0712 0.53833 0.39568 0.53833 0.68608 0 0.30811 0.0942 0.32484 0.19028 0.0338zm21.881-0.105c0-0.0666-0.028-0.13842-0.0622-0.15958-0.0906-0.056-0.70998 0.0369-0.70998 0.10643 0 0.0324 0.095 0.0412 0.21117 0.0194 0.16392-0.0308 0.23783-0.0102 0.33036 0.0921 0.13379 0.14784 0.2307 0.12335 0.2307-0.0583zm-1.063-0.1675c0.12269-0.0941 0.11968-0.0968-0.0644-0.0576-0.23013 0.049-0.3198 0.12411-0.26127 0.21881 0.0294 0.0475 0.0671 0.0486 0.11988 0.003 0.0424-0.0362 0.13495-0.11032 0.20574-0.16462zm5.4665-0.01c-0.0508-0.0973-0.0925-0.25831-0.0927-0.35773-0.00022-0.11309-0.0264-0.16467-0.07-0.13777-0.0819 0.0506-0.0271 0.3194 0.10759 0.52768 0.13063 0.20195 0.16634 0.18109 0.0551-0.0322zm-3.9838-0.14051c-0.0233-0.0378-0.0732-0.0686-0.11085-0.0686-0.0427 0-0.0378 0.0369 0.013 0.0981 0.0883 0.10635 0.16714 0.0826 0.0979-0.0295zm10.893-0.0525c0.0236-0.16598-0.094-0.19074-0.2755-0.058-0.14752 0.10787-0.0735 0.24962 0.11622 0.22259 0.087-0.0124 0.14638-0.0737 0.15928-0.16456zm-11.46 0.0172c0.21231-0.016 0.22569-0.0601 0.0643-0.21172-0.13932-0.13088-0.15645-0.13223-0.45021-0.0355-0.16796 0.0553-0.30538 0.12462-0.30538 0.15406 0 0.10214 0.22609 0.1876 0.38611 0.14594 0.0885-0.023 0.22583-0.0468 0.30521-0.0528zm3.5387-0.26383c0.0105-0.0867 0.003-0.0947-0.0257-0.0268-0.0224 0.0531-0.0726 0.12045-0.11149 0.14969-0.0455 0.0342-0.0363 0.0438 0.0257 0.0268 0.0531-0.0145 0.10326-0.0818 0.11148-0.14969zm2.2466 0.005c0.0858-0.0858 0.0817-0.0965-0.0368-0.0965-0.0756 0-0.1333 0.0418-0.1333 0.0965 0 0.0531 0.0165 0.0965 0.0368 0.0965 0.0202 0 0.0802-0.0434 0.1333-0.0965zm-6.922 20.453c-0.0734-0.0933-0.13337-0.20807-0.13337-0.25515 0-0.13704 0.2557-0.23593 0.50531-0.19542 0.17971 0.0292 0.26211 0.007 0.37532-0.0989l0.14506-0.13627 0.0663 0.17443c0.17279 0.45448 0.007 0.68088-0.49716 0.68088-0.27781 0-0.34855-0.026-0.46148-0.16956zm0.81903-0.0364c0.0425-0.0425 0.0772-0.12334 0.0772-0.17971 0-0.0825-0.0742-0.10195-0.38076-0.0998-0.43642 0.003-0.49432 0.0358-0.39442 0.22247 0.0556 0.10384 0.13394 0.13421 0.34628 0.13421 0.15095 0 0.3092-0.0347 0.35167-0.0772zm2.2652-1.7658c0-0.0892-0.0512-0.0994-0.33088-0.0663-0.28984 0.0343-0.3543 0.0195-0.51975-0.11974-0.10388-0.0874-0.23009-0.15893-0.28047-0.15893-0.0504 0-0.0916-0.0594-0.0916-0.1319s-0.047-0.22279-0.10444-0.33387c-0.082-0.15859-0.0884-0.22758-0.03-0.32118 0.041-0.0656 0.057-0.14752 0.0356-0.18212s0.0235-0.16379 0.0997-0.28709c0.0762-0.12329 0.12594-0.26032 0.11052-0.30449-0.0154-0.0442 0.0591-0.18057 0.16555-0.30309 0.17687-0.20353 0.22619-0.22363 0.57119-0.23277 0.20768-0.005 0.39312 0.0151 0.41209 0.0458 0.0573 0.0927 0.21995 0.0626 0.21995-0.0407 0-0.0531-0.0417-0.0965-0.0927-0.0965-0.13816 0-0.18846-0.12362-0.069-0.16948 0.0604-0.0232 0.16307 0.0146 0.2454 0.0903l0.14152 0.13015 0.43162-0.2668c0.70328-0.43472 0.97686-0.65208 1.1074-0.87978l0.12322-0.21504-0.23776 0.14695c-0.37272 0.23036-0.79317 0.21613-1.1484-0.0389-0.15719-0.11281-0.36322-0.22454-0.45785-0.24829-0.2579-0.0647-0.21042-0.14806 0.1837-0.32236 0.54742-0.2421 0.93058-0.19521 1.4584 0.17848 0.15351 0.10868 0.33354-0.0692 0.54339-0.53677 0.19346-0.43109 0.35771-0.60494 0.51463-0.54472 0.0934 0.0358 0.0736 0.0793-0.13133 0.28915-0.17271 0.17687-0.25118 0.32154-0.2764 0.50957-0.045 0.33551 0.0119 0.50524 0.13503 0.40302 0.0676-0.0561 0.0969-0.0507 0.12513 0.0229 0.0507 0.13204-0.0535 0.18199-0.27708 0.13288-0.17404-0.0382-0.20204-0.0163-0.38398 0.30091-0.31251 0.54482-0.31972 0.71279-0.0437 1.0183 0.12785 0.14151 0.23201 0.27893 0.23147 0.30537-0.004 0.19579-0.207 0.65486-0.41994 0.94958-0.25073 0.34702-0.40287 0.42471-0.36337 0.18556 0.0496-0.30003 0.0155-0.52962-0.11622-0.78222-0.16169-0.31021-0.13667-0.45228 0.15546-0.88276 0.19459-0.28674 0.1351-0.3628-0.13659-0.17464-0.0991 0.0686-0.3195 0.20313-0.48979 0.2989-0.33159 0.18649-0.42723 0.32171-0.31027 0.43868 0.0543 0.0543 0.0729 0.0461 0.0729-0.0322 0-0.12161 0.19115-0.19948 0.34487-0.14049 0.16309 0.0626 0.12489 0.15546-0.0639 0.15546h-0.16953l0.0325 0.45399c0.0253 0.35338 0.0629 0.4823 0.16953 0.58168 0.1752 0.16322 0.17253 0.19932-0.0327 0.44326-0.0934 0.11097-0.18861 0.29388-0.21164 0.40645-0.036 0.17612-0.0756 0.21017-0.28395 0.24403-0.13315 0.0216-0.27537 0.0726-0.31605 0.1133-0.10784 0.10784-0.24126 0.0904-0.24126-0.0315zm0.47839-0.22666c0.14546-0.0168 0.20009-0.0643 0.238-0.20716 0.0271-0.10196 0.11227-0.25252 0.18936-0.33457 0.0843-0.0897 0.12408-0.19111 0.0998-0.25435-0.0598-0.15598-0.1981-0.0784-0.22201 0.12463-0.0142 0.12075-0.09 0.21777-0.23846 0.30538-0.1197 0.0706-0.23534 0.18421-0.25699 0.25243-0.0216 0.0682-0.0664 0.12403-0.0994 0.12403s-0.06 0.0325-0.06 0.0722c0 0.0504 0.0243 0.0521 0.0804 0.006 0.0442-0.0366 0.1654-0.0763 0.26925-0.0883zm-0.97161 0.0317c0.0664-0.0664-0.15528-0.27871-0.291-0.27871-0.0664 0-0.13742-0.0434-0.15779-0.0965-0.0466-0.1215-0.15197-0.12634-0.15197-0.007 0 0.0493 0.0725 0.10775 0.16114 0.13 0.0886 0.0222 0.19694 0.0978 0.24071 0.16785 0.0844 0.1351 0.12917 0.1541 0.19891 0.0844zm0.7226-0.36758c0.0731-0.075 0.1889-0.16956 0.25741-0.21014 0.0947-0.0561 0.10683-0.0923 0.0505-0.15127-0.0572-0.0598-0.0835-0.0478-0.11532 0.0525-0.0283 0.0891-0.15678 0.16543-0.40859 0.24256-0.43461 0.13313-0.42445 0.12708-0.36763 0.219 0.0648 0.10489 0.42431 0.0108 0.58363-0.1527zm-0.83179-0.15245c-0.005-0.0619-0.0439-0.14158-0.0866-0.17697-0.0427-0.0354-0.1195-0.14651-0.17063-0.24692l-0.093-0.18256-0.0464 0.21128c-0.0395 0.18006-0.0209 0.23318 0.12595 0.35953 0.20618 0.17734 0.28269 0.18742 0.27064 0.0356zm0.44153-0.0804c-0.0219-0.0354-0.0832-0.0644-0.1363-0.0644s-0.0786 0.029-0.0568 0.0644c0.0219 0.0354 0.0832 0.0644 0.1363 0.0644s0.0786-0.029 0.0568-0.0644zm-0.353-0.322c0-0.0354-0.029-0.0644-0.0643-0.0644-0.0354 0-0.0644 0.029-0.0644 0.0644s0.029 0.0643 0.0644 0.0643 0.0643-0.029 0.0643-0.0643zm0.95904-0.28207c0.057-0.0686 0.0514-0.0976-0.0243-0.12669-0.0675-0.0259-0.0982 0.002-0.0982 0.089 0 0.15001 0.0233 0.15717 0.12246 0.0377zm-1.0877-0.13622c0-0.0531-0.0272-0.0965-0.0606-0.0965-0.0811 0-0.13927 0.10049-0.0878 0.15191 0.0725 0.0725 0.1484 0.0441 0.1484-0.0554zm0.25741 0c0-0.0531-0.0114-0.0965-0.0253-0.0965s-0.042 0.0434-0.0623 0.0965c-0.0204 0.0531-0.009 0.0965 0.0253 0.0965s0.0623-0.0434 0.0623-0.0965zm0.45046-0.17161c0-0.0295-0.0434-0.0536-0.0965-0.0536s-0.0965 0.0241-0.0965 0.0536 0.0434 0.0536 0.0965 0.0536 0.0965-0.0241 0.0965-0.0536zm0.64352-0.0325c0-0.13332-0.18309-0.34291-0.29956-0.34291-0.0476 0-0.0865 0.0121-0.0865 0.0269s-0.0177 0.0731-0.0393 0.12943c-0.0288 0.075-0.0115 0.0919 0.0644 0.0627 0.0674-0.0259 0.10369-0.005 0.10369 0.0583 0 0.089 0.0817 0.15464 0.20914 0.16805 0.0265 0.003 0.0483-0.0433 0.0483-0.10247zm-1.416-0.217c0-0.0695 0.0417-0.12644 0.0927-0.12644 0.13816 0 0.18845-0.12362 0.069-0.16948-0.14121-0.0542-0.41909 0.21646-0.41909 0.40819 0 0.13199 0.0169 0.14289 0.1287 0.0831 0.0708-0.0379 0.12871-0.12578 0.12871-0.19532zm0.38611 0.10405c0-0.0148 0.0187-0.0756 0.0415-0.13507 0.0368-0.0958 0.0257-0.0983-0.0965-0.022-0.16065 0.10032-0.17952 0.18395-0.0415 0.18395 0.0531 0 0.0965-0.0121 0.0965-0.0269zm4.2722-0.9604c-0.20031-0.1723-0.17627-0.36407 0.0456-0.36407 0.0765 0 0.2512-0.10136 0.38832-0.22523 0.34315-0.31002 0.44199-0.29673 0.44199 0.0594 0 0.57109-0.48615 0.86518-0.87594 0.52989zm0.58176-0.0791c0.0999-0.0999 0.14618-0.50879 0.0529-0.46731-0.17854 0.0794-0.52945 0.35624-0.53011 0.41828-0.002 0.16054 0.33151 0.19477 0.47725 0.049zm-5.964-2.8634c-0.13273-0.0701-0.24132-0.14908-0.24132-0.17558 0-0.0569 0.34984-0.24235 0.57917-0.30706 0.0885-0.025 0.24416-0.11503 0.34595-0.20014 0.10178-0.0851 0.21651-0.14425 0.25494-0.13144 0.0384 0.0128 0.0678 0.16404 0.0653 0.33607-0.004 0.25672-0.0357 0.33952-0.17809 0.46201-0.21334 0.1835-0.49835 0.18907-0.82592 0.0161zm0.70964-0.0958c0.0927-0.0649 0.14302-0.16681 0.14302-0.28959 0-0.10417-0.008-0.1894-0.0186-0.1894-0.0102 0-0.13217 0.0579-0.27102 0.1287-0.13884 0.0708-0.28805 0.1287-0.33157 0.1287-0.14142 0-0.17377 0.14601-0.0521 0.235 0.15693 0.11475 0.35436 0.10975 0.5302-0.0134zm-1.4257-1.5602c-0.0166-0.0268-0.0222-0.20493-0.0124-0.39576 0.0181-0.3544 0.17504-0.58231 0.40095-0.58231 0.0509 0 0.18073-0.0456 0.28844-0.10128 0.10771-0.0557 0.21002-0.0871 0.22734-0.0698 0.0532 0.0532-0.0531 0.73885-0.13099 0.84452-0.0887 0.12039-0.73085 0.37331-0.77331 0.3046zm0.41564-0.20585c0.14249 0 0.3165-0.26816 0.3165-0.48775 0-0.22618-0.004-0.22954-0.20915-0.18549-0.27565 0.0591-0.30293 0.0785-0.37409 0.26567-0.0809 0.21284-0.01 0.49093 0.1138 0.44358 0.0516-0.0198 0.12044-0.036 0.15294-0.036zm-0.68823-2.1579c-0.0798-0.12186-0.1599-0.15881-0.34409-0.15881-0.23726 0-0.45303-0.148-0.45303-0.31074 0-0.0415-0.0434-0.0754-0.0965-0.0754s-0.0965-0.054-0.0965-0.12002c0-0.066-0.0579-0.19366-0.1287-0.28365-0.15494-0.19697-0.16183-0.27772-0.0281-0.32904 0.0553-0.0212 0.0822-0.0683 0.0598-0.10469-0.0225-0.0363 0.0884-0.1917 0.24638-0.34524 0.23121-0.2247 0.34457-0.28561 0.5812-0.31228 0.23354-0.0263 0.31639-0.008 0.40303 0.0874 0.06 0.0663 0.1879 0.12051 0.28426 0.12051 0.2173 0 0.29085 0.0897 0.34114 0.41616 0.0216 0.14041 0.0999 0.33722 0.17395 0.43737 0.17582 0.23782 0.14251 0.39566-0.0891 0.42225-0.15826 0.0182-0.17695 0.0417-0.14238 0.17948 0.0341 0.13605 0.008 0.17203-0.1873 0.25344-0.12489 0.0522-0.22708 0.12035-0.22708 0.15149 0 0.13919-0.1996 0.12021-0.29686-0.0282zm0.4895-0.34575c0.00022-0.0717-0.0239-0.0684-0.11727 0.0161-0.0647 0.0586-0.16517 0.1065-0.22321 0.1065-0.0644 0-0.092 0.0354-0.0707 0.0908 0.0293 0.0764 0.0648 0.0738 0.2228-0.0161 0.10337-0.0588 0.18813-0.14761 0.18835-0.19734zm-0.1858-0.19917c0.0798-0.2872 0.06-0.44797-0.0712-0.57917-0.0708-0.0708-0.15767-0.1287-0.19306-0.1287-0.0874 0-0.0816 0.21438 0.008 0.30418 0.11311 0.11311 0.008 0.40061-0.17083 0.46873-0.25077 0.0953-0.18576 0.17244 0.11158 0.13234 0.21885-0.0295 0.27922-0.0673 0.31535-0.19738zm-1.0648-0.29715c-0.029-0.11572-0.008-0.20684 0.0687-0.2911 0.17409-0.19237 0.0142-0.30289-0.17074-0.11798-0.13744 0.13743-0.13904 0.15196-0.0396 0.36037 0.12322 0.2584 0.201 0.28514 0.14166 0.0487zm1.6371 0.10183c0-0.0366-0.0492-0.14175-0.10939-0.23358-0.0602-0.0918-0.12533-0.28628-0.1448-0.43211-0.022-0.178-0.066-0.266-0.131-0.266-0.14332 0-0.16449 0.40079-0.0291 0.55042 0.0727 0.0804 0.0951 0.17414 0.0676 0.28357-0.0371 0.14802-0.0227 0.16347 0.15325 0.16347 0.10686 0 0.19428-0.03 0.19428-0.0666zm-1.1804-0.80522c0.0221-0.0577-0.0126-0.13731-0.0824-0.18913-0.10127-0.0751-0.13492-0.0755-0.2091-0.003-0.075 0.0736-0.075 0.10196 0 0.18668 0.11423 0.12908 0.24313 0.13136 0.29155 0.005zm0.3625-0.0934c-0.0185-0.0708-0.0448-0.1287-0.0583-0.1287-0.0136 0-0.0247 0.0579-0.0247 0.1287s0.0262 0.1287 0.0583 0.1287 0.0432-0.0579 0.0247-0.1287zm-0.1-0.234c-0.0214-0.0214-0.0769-0.0237-0.12334-0.005-0.0513 0.0205-0.0361 0.0358 0.0389 0.0389 0.0678 0.003 0.10584-0.0124 0.0845-0.0338zm-2.2763 0.71507c-0.33161-0.13943-0.3359-0.32693-0.007-0.29342 0.062 0.006 0.22425-0.0512 0.36057-0.12784 0.30608-0.17202 0.49199-0.14906 0.49199 0.0608 0 0.30255-0.4885 0.51074-0.84585 0.36049zm0.65234-0.20228c0.19159-0.19159 0.003-0.22906-0.29463-0.0587l-0.28408 0.16239 0.23672 0.00077c0.13426 0.00045 0.28229-0.0448 0.34199-0.10448zm0.51828-1.3056c-0.0547-0.0885 0.18411-0.48569 0.37052-0.61626 0.19265-0.13494 0.64382-0.1254 0.76378 0.0161 0.0991 0.11699 0.37496 0.58122 0.37496 0.63111 0 0.0644-0.19504 0.0214-0.37758-0.0834-0.17205-0.0987-0.21992-0.1015-0.40742-0.0235-0.29567 0.12301-0.67084 0.16233-0.72426 0.0759zm0.65588-0.19793c0.13207-0.0708 0.29124-0.1287 0.3537-0.1287 0.0625 0 0.11357-0.0232 0.11357-0.0515 0-0.11746-0.16939-0.20593-0.39431-0.20593-0.18249 0-0.27178 0.0406-0.37324 0.16956-0.26711 0.33957-0.12306 0.44345 0.30028 0.21655zm2.0117-1.6655c-0.24896-0.044-0.2728-0.10138-0.12733-0.30659 0.064-0.0903 0.24711-0.17552 0.52909-0.24624 0.62584-0.15695 0.69695-0.0843 0.33327 0.34058-0.23655 0.27636-0.28803 0.29123-0.73503 0.21225zm0.559-0.2112c0.215-0.2024 0.185-0.2531-0.125-0.2069-0.33539 0.0501-0.51804 0.19018-0.37003 0.28377 0.15772 0.0997 0.33608 0.072 0.49458-0.0769z"/>
 </g>
</svg>
