<?xml version="1.0" encoding="UTF-8" standalone="no"?>
<!-- Created with Inkscape (http://www.inkscape.org/) -->
<svg id="svg2" xmlns:rdf="http://www.w3.org/1999/02/22-rdf-syntax-ns#" xmlns="http://www.w3.org/2000/svg" height="54" width="99" version="1.1" xmlns:cc="http://creativecommons.org/ns#" xmlns:dc="http://purl.org/dc/elements/1.1/">
 <metadata id="metadata7">
  <rdf:RDF>
   <cc:Work rdf:about="">
    <dc:format>image/svg+xml</dc:format>
    <dc:type rdf:resource="http://purl.org/dc/dcmitype/StillImage"/>
    <dc:title/>
   </cc:Work>
  </rdf:RDF>
 </metadata>
 <g id="g3532">
  <rect id="rect2990" opacity="0" height="54" width="99" y="0" x="0"/>
  <path id="path9326" d="m40.227 48.603c0-0.5094-0.0354-0.91859-0.082-0.94736-0.0451-0.02786-0.082-0.19382-0.082-0.36881s-0.0369-0.34095-0.082-0.36881c-0.0469-0.02899-0.082-0.45162-0.082-0.98834 0-0.74182-0.0236-0.93769-0.1129-0.93769-0.0621 0-0.15818 0.05456-0.21352 0.12124-0.28631 0.34498-1.0106 0.47505-1.4309 0.25698-0.31606-0.16398-0.44999-0.37736-0.45295-0.7217-0.001-0.16638-0.0399-0.32556-0.0855-0.35373-0.10361-0.06404-0.0948-2.399 0.009-2.4634 0.0405-0.02501 0.0736-0.18864 0.0736-0.36363s0.0369-0.34095 0.082-0.36881 0.082-0.12517 0.082-0.21624c0-0.1437-0.0352-0.15817-0.26637-0.10947-0.1465 0.03087-0.3014 0.08912-0.34422 0.12945-0.0428 0.04033-0.2549 0.07332-0.47127 0.07332s-0.3934 0.03688-0.3934 0.08196c0 0.10262-1.0039 0.10945-1.1105 0.0076-0.0428-0.04092-0.26226-0.0907-0.48765-0.11061-0.41776-0.03691-0.91786-0.20012-1.0655-0.34772-0.0451-0.04508-0.13728-0.1926-0.2049-0.32783-0.0676-0.13523-0.16684-0.29242-0.22051-0.3493-0.14868-0.1576-0.21175-0.75446-0.17538-1.6599l0.0329-0.8184h-0.5103c-0.28067 0-0.53309-0.03688-0.56095-0.08196-0.0279-0.04508-0.26759-0.08196-0.53273-0.08196-0.26515 0-0.50488-0.03688-0.53273-0.08196-0.0679-0.10991-0.55919-0.10468-0.67101 0.0071-0.0642 0.06416-0.10451 0.06416-0.14417 0-0.0303-0.049-0.16135-0.0891-0.29126-0.0891-0.12992 0-0.259-0.03688-0.28686-0.08196-0.0694-0.11235-0.47844-0.10346-0.59482 0.01292-0.0719 0.07186-0.12638 0.06873-0.22477-0.01292-0.0984-0.08165-0.15289-0.08478-0.22476-0.01292-0.0522 0.05218-0.26973 0.09488-0.48344 0.09488s-0.41136 0.03688-0.43922 0.08196c-0.0279 0.04508-0.17538 0.08196-0.32783 0.08196s-0.29998 0.03688-0.32783 0.08196c-0.0279 0.04508-0.19601 0.08196-0.37366 0.08196-0.17764 0-0.32299 0.03688-0.32299 0.08196s-0.0885 0.08196-0.19658 0.08196c-0.10811 0-0.40691 0.11064-0.66399 0.24588-0.25708 0.13523-0.51328 0.24588-0.56933 0.24588-0.056 0-0.16866 0.07376-0.25025 0.16392-0.0816 0.09015-0.19231 0.16392-0.24604 0.16392-0.1101 0-0.45061 0.27505-0.45061 0.36399 0 0.06014-0.78183 1.0269-1.0667 1.319-0.0895 0.09174-0.16266 0.2116-0.16266 0.26637 0 0.05476-0.0369 0.09956-0.082 0.09956s-0.082 0.07376-0.082 0.16392c0 0.09015-0.0369 0.16392-0.082 0.16392s-0.082 0.03526-0.082 0.07835-0.11065 0.266-0.24588 0.49536c-0.13523 0.22935-0.2453 0.47992-0.24459 0.55683 0.002 0.19326-0.4189 0.98585-0.54993 1.0361-0.13789 0.05292-0.3529-0.02941-0.3529-0.13513 0-0.04502-0.0928-0.19782-0.20613-0.33956-0.44788-0.55994-0.5315-0.73611-0.5315-1.1198 0-0.44741-0.21472-0.96395-0.3461-0.83258-0.0531 0.05306-0.22924 0.09647-0.39152 0.09647s-0.33062 0.03556-0.37408 0.07903c-0.13097 0.13097-0.79237-0.14048-1.0397-0.42671-0.20425-0.23637-0.22538-0.32066-0.22538-0.8991v-0.63828h-0.28202c-0.15511 0-0.30223-0.0327-0.32693-0.07267s-0.17616-0.09729-0.33658-0.12738c-0.37843-0.07099-0.57779-0.39308-0.60118-0.97126-0.0163-0.40169 0.008-0.46578 0.30108-0.80057 0.33367-0.38095 0.36131-0.56883 0.0837-0.56883-0.0958 0-0.18269-0.06858-0.20762-0.16392-0.0236-0.09015-0.1059-0.16392-0.18294-0.16392-0.14738 0-0.49648-0.32285-0.49648-0.45915 0-0.04387-0.10914-0.20746-0.24254-0.36353s-0.24405-0.32564-0.24588-0.37684c-0.002-0.05119-0.0562-0.195-0.12083-0.31956-0.0646-0.12456-0.10324-0.33916-0.0858-0.47687 0.0174-0.13772-0.007-0.29657-0.0535-0.35301-0.0468-0.05644-0.061-0.14172-0.0315-0.18952s0.0718-0.18772 0.094-0.31094c0.0773-0.4299 0.73227-0.92068 1.2288-0.92068 0.10719 0 0.19489 0.03688 0.19489 0.08196 0 0.13557 0.21094 0.09249 0.36145-0.07382 0.0923-0.10198 0.11083-0.17442 0.0537-0.20973-0.048-0.02967-0.0873-0.23401-0.0873-0.45407s-0.0369-0.42291-0.082-0.45077c-0.11189-0.06915-0.1035-0.64166 0.0132-0.89769 0.0523-0.11481 0.15374-0.20758 0.22539-0.20615 0.14853 0.003 0.41713 0.18742 0.41713 0.28645 0 0.12927 1.1971 1.3501 1.3239 1.3501 0.0442 0 0.19777 0.08843 0.34127 0.1965 0.14349 0.10808 0.55594 0.33226 0.91656 0.49818s0.71971 0.33566 0.79799 0.37721c0.0783 0.04154 0.19863 0.07553 0.26747 0.07553 0.0688 0 0.20765 0.04264 0.30846 0.09476 0.10081 0.05211 0.25355 0.12976 0.33941 0.17254 0.0859 0.04278 0.44659 0.09769 0.80161 0.12202 0.35501 0.02433 0.66497 0.07578 0.68879 0.11432 0.0238 0.03854 0.48153 0.07008 1.0171 0.07008 0.56081 0 0.99531 0.03476 1.0245 0.08196 0.0279 0.04508 0.17756 0.08196 0.33267 0.08196s0.28202-0.03688 0.28202-0.08196c0-0.04853 0.2989-0.08196 0.73279-0.08196 0.44924 0 0.75458-0.03526 0.78911-0.09112 0.0776-0.12556-0.13016-0.24735-0.35595-0.20866-0.1025 0.01756-0.2061-0.000007-0.23022-0.03904-0.0241-0.03903-0.0985-0.07097-0.16539-0.07097-0.0668 0-0.2007-0.07376-0.29747-0.16392-0.0968-0.09015-0.22981-0.16392-0.29565-0.16392-0.0658 0-0.31706-0.21037-0.55826-0.46748l-0.43855-0.46748v-0.74556c0-0.68858 0.11154-1.1858 0.26637-1.1874 0.13315-0.0014 0.0519-0.377-0.10245-0.47337-0.0901-0.0563-0.16392-0.15738-0.16392-0.22461s-0.0369-0.12224-0.082-0.12224-0.082-0.07159-0.082-0.15908 0.0369-0.18187 0.082-0.20973 0.082-0.19055 0.082-0.36153c0-0.20287 0.0713-0.40763 0.20512-0.58936 0.11281-0.15317 0.22686-0.33962 0.25345-0.41434 0.0266-0.07472 0.11869-0.15425 0.20468-0.17673 0.18274-0.04779 0.21174-0.22015 0.037-0.22015-0.12631 0-0.62911-0.30497-0.90722-0.55027-0.0913-0.08051-0.38601-0.33078-0.65497-0.55617-0.82783-0.69373-0.85923-0.72356-0.85923-0.81627 0-0.04953-0.0738-0.14323-0.16391-0.20821-0.0902-0.06498-0.16474-0.1561-0.16574-0.2025-0.001-0.04639-0.074-0.17656-0.1621-0.28925s-0.16109-0.28336-0.16209-0.37927c-0.001-0.0959-0.0533-0.21708-0.11619-0.26928-0.1219-0.10117-0.21478-0.47537-0.26507-1.0679-0.017-0.20028-0.0716-0.3893-0.12134-0.42004-0.0659-0.04072-0.0658-0.07111 0.00024-0.11195 0.0499-0.03083 0.0934-0.22907 0.0967-0.44053 0.004-0.22726 0.0695-0.485 0.16143-0.63034 0.0855-0.13523 0.21749-0.35652 0.29333-0.49175 0.29315-0.5227 1.1834-1.1345 1.7521-1.2043 0.1745-0.02139 0.20095-0.06145 0.17825-0.27002-0.0147-0.1347-0.0571-0.28222-0.0942-0.32784-0.0372-0.04561-0.11655-0.295-0.17639-0.55419-0.0598-0.25919-0.14181-0.47126-0.18215-0.47126-0.0403 0-0.0302-0.05204 0.0226-0.11564 0.0656-0.07905 0.0688-0.13245 0.01-0.16875-0.0472-0.02921-0.0859-0.19628-0.0859-0.37127s-0.0369-0.34095-0.082-0.36881c-0.10926-0.06753-0.10926-2.3093 0-2.3768 0.0451-0.02786 0.082-0.30447 0.082-0.61469s0.0369-0.58683 0.082-0.61469 0.082-0.2093 0.082-0.40319c0-0.24089 0.0649-0.44816 0.2049-0.65447 0.11269-0.16606 0.20514-0.36484 0.20543-0.44172 0.00028-0.07688 0.0738-0.25043 0.16338-0.38566 0.0896-0.13523 0.16308-0.30693 0.16338-0.38156 0.00054-0.12272 0.3089-0.78896 0.41144-0.8888 0.0231-0.02254 0.13347-0.22539 0.24516-0.45077 0.11169-0.22539 0.26794-0.45799 0.34722-0.51689 0.0793-0.0589 0.14414-0.14678 0.14414-0.19528s0.0645-0.14836 0.14343-0.22189c0.16445-0.15331 0.3133-0.37723 0.42924-0.64574 0.0443-0.10258 0.14261-0.21033 0.21849-0.23944 0.0759-0.02912 0.29988-0.21258 0.4978-0.40769 0.19792-0.19512 0.40729-0.35476 0.46527-0.35476 0.058 0 0.16916-0.07045 0.24708-0.15655 0.0779-0.0861 0.24038-0.1808 0.36103-0.21045 0.12064-0.02965 0.31156-0.1151 0.42425-0.18991 0.3316-0.22011 0.92056-0.50856 1.0384-0.50856 0.06 0 0.10905-0.03364 0.10905-0.07475s0.15675-0.10086 0.34832-0.13276c0.19158-0.0319 0.48516-0.12735 0.65241-0.2121 0.16724-0.08475 0.37713-0.1541 0.46642-0.1541 0.0893 0 0.18514-0.03688 0.213-0.08196 0.0279-0.04508 0.23071-0.08196 0.45077-0.08196 0.22007 0 0.42291-0.03688 0.45077-0.08196 0.0279-0.04508 0.17539-0.08196 0.32784-0.08196s0.29997-0.03688 0.32783-0.08196c0.0844-0.13647 3.493-0.10358 4.2486 0.04099 0.35331 0.06761 0.7671 0.12292 0.91954 0.12292 0.15243 0 0.40848 0.07376 0.56899 0.16392 0.16051 0.09015 0.38292 0.16392 0.49425 0.16392 0.11132 0 0.2024 0.03263 0.2024 0.07251s0.20792 0.09849 0.46204 0.13024c0.2758 0.03446 0.5298 0.12086 0.63014 0.21434 0.0925 0.08614 0.26728 0.15661 0.38849 0.15661s0.2663 0.05532 0.32242 0.12294c0.0561 0.06762 0.1663 0.12294 0.24486 0.12294 0.0786 0 0.2366 0.07376 0.35121 0.16392 0.11461 0.09015 0.2614 0.16392 0.32619 0.16392 0.0648 0 0.18455 0.07376 0.26614 0.16392 0.0816 0.09015 0.21639 0.16392 0.29955 0.16392 0.0832 0 0.15122 0.03381 0.15122 0.07513 0 0.06534 0.48174 0.33603 1.3147 0.73876 0.13337 0.06448 0.24249 0.15902 0.24249 0.21008s0.19318 0.25647 0.42928 0.45647 0.69474 0.63102 1.0192 0.95783 0.62144 0.5942 0.65996 0.5942c0.1 0 0.7601-0.60924 0.76015-0.70156 0.00006-0.10322 0.71891-0.71738 1.0256-0.87625 0.13459-0.06971 0.36424-0.24112 0.51033-0.38091s0.31815-0.25416 0.38235-0.25416 0.21842-0.10773 0.3427-0.2394 0.35287-0.26321 0.50798-0.29231 0.35856-0.12422 0.45211-0.21137c0.0935-0.08715 0.24042-0.15846 0.32639-0.15846 0.086 0 0.2542-0.06746 0.37385-0.14991s0.47572-0.25614 0.79126-0.38599 0.6947-0.30212 0.84257-0.38282c0.14787-0.08071 0.35994-0.14674 0.47126-0.14674s0.2024-0.03688 0.2024-0.08196 0.10847-0.08196 0.24104-0.08196 0.26383-0.03688 0.29169-0.08196c0.0279-0.04508 0.23071-0.08196 0.45077-0.08196 0.22007 0 0.42292-0.03688 0.45078-0.08196 0.0629-0.10176 5.5849-0.1136 5.6476-0.01211 0.0238 0.03842 0.30824 0.09207 0.63222 0.11923 0.32397 0.02716 0.62759 0.08793 0.6747 0.13505 0.0471 0.04711 0.18676 0.08566 0.31032 0.08566 0.12355 0 0.24744 0.03688 0.27529 0.08196 0.0279 0.04508 0.13851 0.08196 0.24588 0.08196s0.21802 0.03688 0.24588 0.08196c0.0279 0.04508 0.12224 0.08196 0.20973 0.08196 0.0875 0 0.15908 0.03688 0.15908 0.08196s0.0693 0.08196 0.15388 0.08196c0.0846 0 0.19475 0.04924 0.24471 0.10943 0.05 0.06019 0.23834 0.15812 0.41864 0.21762 0.1803 0.05951 0.38939 0.17623 0.46465 0.25938 0.0752 0.08315 0.20487 0.15119 0.28804 0.15119 0.0832 0 0.15121 0.0344 0.15121 0.07644s0.083 0.1011 0.18441 0.13125c0.10142 0.03015 0.32055 0.16172 0.48694 0.29238 0.1664 0.13066 0.34159 0.23757 0.38931 0.23757 0.0477 0 0.0868 0.04222 0.0868 0.09382s0.0749 0.17147 0.16648 0.26637c0.52922 0.54849 0.73506 0.79113 0.73506 0.86646 0 0.04658 0.0369 0.08469 0.082 0.08469s0.082 0.08649 0.082 0.19219c0 0.10571 0.0738 0.25895 0.16392 0.34054 0.0901 0.08159 0.16392 0.19795 0.16392 0.25858s0.0369 0.11024 0.0819 0.11024c0.0451 0 0.082 0.04262 0.082 0.09471s0.0922 0.2156 0.2049 0.36334c0.11269 0.14775 0.2049 0.34268 0.2049 0.43318s0.0375 0.18771 0.0833 0.21603c0.0458 0.02831 0.0654 0.08038 0.0436 0.1157s0.0133 0.1342 0.078 0.21972c0.0647 0.08553 0.11888 0.23631 0.12031 0.33507 0.001 0.09876 0.0395 0.20236 0.0846 0.23022s0.082 0.12224 0.082 0.20973 0.0369 0.15908 0.082 0.15908 0.082 0.20067 0.082 0.44594c0 0.24526 0.0369 0.46873 0.082 0.49659s0.082 0.23288 0.082 0.45561c0 0.22272 0.0369 0.40496 0.082 0.40496 0.0504 0 0.082 0.40979 0.082 1.0655 0 0.65567-0.0315 1.0655-0.082 1.0655-0.1373 0-0.0913 0.34362 0.0615 0.45962 0.16793 0.12747 0.67616 0.15162 0.67616 0.03213 0-0.04508 0.14534-0.08196 0.323-0.08196 0.17764 0 0.34579-0.03688 0.37364-0.08196 0.0279-0.04508 0.19601-0.08196 0.37366-0.08196 0.17764 0 0.32299-0.03688 0.32299-0.08196 0-0.04821 0.28686-0.08196 0.69665-0.08196s0.69665-0.03375 0.69665-0.08196c0-0.04544 0.21694-0.08196 0.48691-0.08196 0.26781 0 0.50971-0.03688 0.53757-0.08196 0.0288-0.04651 0.43635-0.08196 0.94252-0.08196 0.50618 0 0.91378-0.03544 0.94253-0.08196 0.0279-0.04508 0.23288-0.08196 0.45561-0.08196 0.22272 0 0.40495-0.03688 0.40495-0.08196s0.19101-0.08196 0.42447-0.08196c0.51228 0 1.2151-0.20683 1.9806-0.58284 0.1733-0.08513 0.36692-0.15478 0.43028-0.15478 0.0633 0 0.11519-0.03688 0.11519-0.08196s0.0673-0.08196 0.14963-0.08196c0.0823 0 0.23625-0.0922 0.34212-0.2049 0.10587-0.11269 0.25983-0.2049 0.34212-0.2049 0.0823 0 0.14963-0.03688 0.14963-0.08196s0.065-0.08196 0.14449-0.08196c0.0795 0 0.18089-0.08298 0.22538-0.18441 0.0445-0.10142 0.20788-0.24778 0.36307-0.32524 0.15518-0.07746 0.42043-0.26797 0.58943-0.42336s0.37304-0.29519 0.45341-0.31067c0.0804-0.01548 0.18611-0.10832 0.23496-0.20632 0.10647-0.21356 0.86286-0.9247 0.98485-0.92594 0.2134-0.0022 0.28276 0.22158 0.28276 0.91222 0 0.39402-0.0369 0.73919-0.082 0.76705s-0.082 0.15912-0.082 0.29169-0.0369 0.24104-0.082 0.24104-0.082 0.12691-0.082 0.28202-0.0369 0.30481-0.082 0.33267-0.082 0.1534-0.082 0.27899c0 0.12558-0.0738 0.29509-0.16391 0.37668-0.0902 0.08159-0.16392 0.23483-0.16392 0.34054s-0.0369 0.19219-0.082 0.19219-0.082 0.07063-0.082 0.15696-0.073 0.24307-0.16215 0.34832c-0.42779 0.50487-0.82135 1.0132-0.82135 1.0609 0 0.02911 0.0553 0.09885 0.12294 0.15497 0.0804 0.0667 0.12294 0.24925 0.12294 0.52718 0 0.38667-0.0343 0.4655-0.37906 0.87102-0.20847 0.24523-0.42976 0.4578-0.49175 0.47237-0.062 0.01457-0.1127 0.07966-0.1127 0.14463s-0.11986 0.18917-0.26636 0.27599c-0.41936 0.24852-0.47126 0.31859-0.47126 0.63625 0 0.5639-0.38295 1.2408-0.70711 1.2499-0.0508 0.0014-0.14183 0.06214-0.20223 0.13492-0.0936 0.11272-0.0859 0.15224 0.0514 0.26668 0.35359 0.29459 0.53007 0.80397 0.53007 1.5299 0 0.37624-0.0369 0.70686-0.082 0.73472s-0.082 0.11652-0.082 0.19703-0.0738 0.21313-0.16392 0.29472c-0.0902 0.08159-0.16392 0.19795-0.16392 0.25858s-0.0369 0.11024-0.082 0.11024-0.082 0.05122-0.082 0.11382c0 0.15145-0.73795 0.78772-0.9136 0.78772-0.076 0-0.15049 0.03299-0.16552 0.07331-0.0313 0.08412-0.46795 0.35488-0.88788 0.55062-0.15777 0.07354-0.3509 0.16609-0.42917 0.20566-0.0783 0.03957-0.23284 0.07195-0.34349 0.07195-0.11064 0-0.22396 0.03688-0.25182 0.08196-0.0279 0.04508-0.12274 0.08196-0.21085 0.08196-0.0881 0-0.22423 0.03235-0.30251 0.0719-0.25027 0.12644-0.72126 0.25594-0.93084 0.25594-0.11174 0-0.23821 0.0333-0.28103 0.07401-0.0739 0.0702-0.37535 0.11765-1.3072 0.20573-0.22539 0.0213-0.72329 0.07319-1.1064 0.1153-0.39965 0.04393-0.72984 0.04592-0.77451 0.0047-0.0428-0.03954-0.13782-0.07189-0.2111-0.07189-0.1551 0-0.48965 0.33095-0.48965 0.48438 0 0.05775-0.0645 0.20306-0.14342 0.3229-0.17412 0.26452-0.30763 0.47262-0.4941 0.7701-0.0776 0.12379-0.25173 0.2781-0.38696 0.34292-0.13523 0.06481-0.32325 0.19026-0.41783 0.27876-0.0946 0.08851-0.23815 0.17392-0.31905 0.18981-0.0809 0.0159-0.18788 0.09366-0.23773 0.17282-0.0765 0.12151-0.0204 0.20722 0.36003 0.55029 0.24786 0.2235 0.56545 0.46232 0.70574 0.53072s0.30074 0.17938 0.35656 0.24664c0.0558 0.06726 0.22727 0.14588 0.38101 0.17472s0.29973 0.08514 0.32443 0.12511 0.18809 0.07267 0.36308 0.07267c0.17498 0 0.33832 0.03263 0.36297 0.07251 0.15712 0.25423 3.7408 0.47154 4.1515 0.25173 0.23887-0.12784 0.53117-0.08988 0.69408 0.09014 0.1256 0.13878 0.13507 0.19641 0.0537 0.32672-0.0543 0.08702-0.0988 0.23248-0.0988 0.32325s-0.0369 0.16503-0.082 0.16503-0.082 0.03833-0.082 0.08518c0 0.12834-0.82301 0.8752-1.1269 1.0227-0.29174 0.14155-0.34984 0.39218-0.16392 0.70707 0.082 0.13881 0.082 0.18093 0 0.21062-0.0564 0.0204-0.10245 0.12051-0.10245 0.22246s-0.0738 0.25212-0.16392 0.33371c-0.0901 0.08159-0.16391 0.18894-0.16391 0.23857 0 0.09519-0.22888 0.20371-0.79199 0.37552-0.24891 0.07594-0.38145 0.1788-0.4899 0.38019-0.0818 0.15184-0.19167 0.27608-0.24421 0.27608-0.16213 0-0.19503 0.2215-0.19503 1.3132 0 0.61421-0.0342 1.0751-0.082 1.1046-0.0451 0.02786-0.082 0.12555-0.082 0.21708 0 0.26914-0.39437 0.54259-1.144 0.79323-0.18738 0.06265-0.31098 0.06722-0.36471 0.01349-0.0447-0.04471-0.27676-0.08128-0.51567-0.08128s-0.43438-0.03688-0.43438-0.08196-0.0738-0.08196-0.16391-0.08196c-0.0902 0-0.16392-0.02978-0.16392-0.06619 0-0.0364-0.15675-0.13147-0.34832-0.21127-0.55773-0.2323-0.71714-0.31946-0.71714-0.39206 0-0.03746-0.0645-0.06934-0.14343-0.07085-0.0789-0.0015-0.32326-0.16546-0.54306-0.36433-0.42756-0.38686-0.47157-0.38363-0.69551 0.05103-0.0614 0.11918-0.43158 0.55254-0.8226 0.96301-0.75464 0.79218-0.98891 0.90256-1.2659 0.59644-0.14623-0.16158-0.1813-0.66513-0.0624-0.8962 0.24529-0.47677 0.35896-1.4706 0.36311-3.1748 0.004-1.7167-0.0578-2.3084-0.27232-2.5989-0.0902-0.12214-0.16401-0.27938-0.16401-0.34944 0-0.07005-0.0369-0.20063-0.082-0.29017s-0.11884-0.23607-0.16391-0.32561c-0.0451-0.08954-0.082-0.21173-0.082-0.27152s-0.11065-0.21472-0.24588-0.34428-0.24587-0.31838-0.24587-0.4196c0-0.11206-0.0641-0.20439-0.16392-0.23606-0.0902-0.02861-0.1641-0.09564-0.16432-0.14895-0.00054-0.13404-1.0933-1.2853-1.2199-1.2853-0.0565 0-0.15412-0.0461-0.21695-0.10245-0.0628-0.05635-0.16197-0.13933-0.2203-0.18441-0.0583-0.04508-0.24529-0.20182-0.41548-0.34832s-0.3947-0.26637-0.49889-0.26637c-0.22356 0-0.64722 0.19876-0.78976 0.37052-0.0553 0.06668-0.19937 0.12124-0.32007 0.12124-0.12069 0-0.2572 0.03776-0.30335 0.0839-0.0462 0.04615-0.28845 0.11719-0.53844 0.15788-0.85784 0.13962-1.1152 0.24647-1.5443 0.64133-0.23149 0.21298-0.51915 0.44346-0.63925 0.51217s-0.54118 0.44318-0.93574 0.83216c-0.39455 0.38898-0.85557 0.7781-1.0245 0.8647-0.1689 0.08661-0.34084 0.22847-0.38207 0.31526-0.10512 0.22128-1.9079 1.7876-2.1182 1.8404-0.0952 0.02388-0.23334 0.15297-0.30708 0.28686-0.0737 0.13389-0.23288 0.29155-0.35364 0.35036-0.12077 0.05881-0.21958 0.14179-0.21958 0.18441s-0.0554 0.07749-0.12318 0.07749c-0.0678 0-0.18709 0.14752-0.26521 0.32783-0.0781 0.18031-0.18544 0.32783-0.2385 0.32783-0.10005 0-1.4221 1.2561-1.4221 1.3512 0 0.08305-0.22436 0.28798-0.3153 0.28798-0.0446 0-0.1587 0.12552-0.25352 0.27893-0.0948 0.15342-0.31911 0.41149-0.49843 0.5735-0.17933 0.16201-0.32605 0.3249-0.32605 0.36198s-0.15674 0.21896-0.34832 0.40419c-0.46827 0.45274-0.60526 0.62101-0.79737 0.97944-0.0896 0.16714-0.24648 0.37976-0.34866 0.47249-0.18161 0.1648-0.30904 0.35542-0.53041 0.79339-0.0603 0.11922-0.16412 0.26204-0.2308 0.31738-0.0667 0.05534-0.12123 0.15387-0.12123 0.21896 0 0.1945-0.43715 0.09754-0.53168-0.11793-0.0445-0.10142-0.10904-0.18441-0.14343-0.18441-0.0344 0-0.0625-0.08556-0.0625-0.19014s-0.12909-0.34095-0.28686-0.52527-0.28685-0.37536-0.28685-0.42454c0-0.20886-0.26022-0.06337-0.46308 0.2589-0.26462 0.42037-0.70193 0.9936-0.78679 1.0313-0.0338 0.01502-0.0615 0.07748-0.0615 0.13878s-0.0672 0.15965-0.14937 0.21856c-0.0821 0.0589-0.2018 0.22696-0.26588 0.37346-0.0641 0.1465-0.13879 0.26636-0.16602 0.26636-0.0272 0-0.11603 0.14753-0.19733 0.32784s-0.17912 0.32783-0.21735 0.32783c-0.0382 0-0.0695 0.07028-0.0695 0.15617 0 0.13495-0.0995 0.37436-0.42005 1.0106-0.0394 0.07827-0.0717 0.21658-0.0717 0.30734 0 0.09077-0.0277 0.16532-0.0615 0.16567-0.0907 0.000956-0.26637 0.41352-0.26637 0.62555 0 0.10105-0.0369 0.20651-0.082 0.23437s-0.082 0.19382-0.082 0.36881-0.0369 0.34095-0.082 0.36881-0.082 0.18101-0.082 0.34034c0 0.22076-0.039 0.29989-0.16392 0.33256-0.12726 0.03328-0.16391 0.11179-0.16391 0.35111 0 0.174-0.0535 0.35267-0.12294 0.41027-0.0676 0.05612-0.12294 0.16834-0.12294 0.2494 0 0.0971-0.0839 0.16579-0.24588 0.20137-0.13523 0.0297-0.24587 0.1064-0.24587 0.17043s-0.0553 0.11642-0.12294 0.11642c-0.10179 0-0.12294-0.15427-0.12294-0.89671zm0.90154-3.662c0-0.0621 0.0369-0.1129 0.082-0.1129s0.082-0.07426 0.082-0.16503c0-0.147 0.13525-0.46198 0.24587-0.5726 0.0225-0.02254 0.12944-0.20695 0.23757-0.40979 0.10812-0.20285 0.24642-0.42704 0.30734-0.4982 0.0609-0.07117 0.11076-0.17131 0.11076-0.22253 0-0.05123 0.10238-0.21429 0.2275-0.36236 0.12513-0.14807 0.28163-0.37986 0.34777-0.51509 0.0661-0.13523 0.18505-0.30552 0.26425-0.37843 0.0792-0.0729 0.14398-0.16618 0.14398-0.20729s0.0738-0.12791 0.16392-0.19289c0.0902-0.06498 0.16392-0.1589 0.16392-0.2087 0-0.04981 0.0922-0.17718 0.2049-0.28305 0.11269-0.10587 0.20489-0.24138 0.20489-0.30114s0.0369-0.10865 0.082-0.10865 0.082-0.04749 0.082-0.10554 0.10914-0.23324 0.24254-0.3893c0.1334-0.15607 0.24405-0.32986 0.24588-0.38621 0.002-0.05635 0.0402-0.10245 0.0853-0.10245s0.082-0.07287 0.082-0.16194c0-0.08906 0.0736-0.28269 0.16361-0.43028 0.09-0.14759 0.16375-0.33106 0.16391-0.4077 0.00017-0.07664 0.0595-0.1725 0.13192-0.21301 0.0797-0.04463 0.14885-0.2266 0.17536-0.46181 0.0245-0.21729 0.0928-0.40699 0.15525-0.43094 0.085-0.03261 0.11149-0.26474 0.11149-0.97654 0-0.51356-0.0321-0.93376-0.0713-0.93376s-0.11414-0.21773-0.16649-0.48385c-0.0524-0.26612-0.14936-0.5288-0.21556-0.58374s-0.12037-0.14573-0.12037-0.20175-0.0738-0.19562-0.16392-0.31024c-0.0901-0.11461-0.16391-0.26949-0.16391-0.34418s-0.11065-0.22889-0.24588-0.34268-0.24587-0.24054-0.24587-0.28166-0.15152-0.23147-0.3367-0.423-0.39724-0.41732-0.47126-0.50177c-0.074-0.08445-0.24521-0.20235-0.38044-0.26202-0.13524-0.05967-0.3422-0.19343-0.45992-0.29724-0.24756-0.21831-1.0119-0.88327-1.2817-1.115-0.11829-0.10161-0.18441-0.25048-0.18441-0.41516 0-0.14121-0.0369-0.25675-0.082-0.25675s-0.082-0.12908-0.082-0.28686c0-0.15777-0.0369-0.28686-0.082-0.28686s-0.082-0.15009-0.082-0.33353c0-0.29116 0.0216-0.33021 0.16977-0.30734 0.0934 0.0144 0.23168 0.1343 0.30735 0.26645 0.0757 0.13214 0.26499 0.36691 0.42072 0.52172 0.30568 0.30384 0.46146 0.29083 0.61733-0.05154 0.0445-0.09774 0.10904-0.1777 0.14343-0.1777 0.0344 0 0.0625-0.07069 0.0625-0.15709s0.0357-0.16938 0.0793-0.18441 0.0924-0.1564 0.10856-0.31417c0.0345-0.33774 0.17486-0.69883 0.30221-0.77754 0.0497-0.03071 0.0679-0.1265 0.0405-0.21286-0.0279-0.08778-0.0113-0.15702 0.0376-0.15702 0.0585 0 0.0875-0.45565 0.0875-1.3769 0-0.96165 0.0297-1.4066 0.0983-1.4753 0.15136-0.15135-0.0475-0.32454-0.21399-0.18636-0.18839 0.15636-0.5767-0.22989-0.52149-0.51872 0.037-0.19372 0.0168-0.21285-0.22476-0.21285-0.146 0-0.31137 0.05532-0.36748 0.12294-0.0561 0.06762-0.15968 0.12294-0.23014 0.12294-0.15965 0-0.50749 0.31876-0.50749 0.46506 0 0.05976-0.0338 0.10865-0.0752 0.10865s-0.13788 0.16416-0.2145 0.3648c-0.0766 0.20064-0.20876 0.42764-0.29363 0.50446-0.0849 0.07681-0.15432 0.18926-0.15432 0.24989s-0.0369 0.11024-0.082 0.11024-0.082 0.08009-0.082 0.17797c0 0.10393-0.15343 0.32498-0.36881 0.53135-0.20285 0.19436-0.36881 0.39089-0.36881 0.43672 0 0.04584-0.0673 0.08334-0.14963 0.08334-0.0823 0-0.23626 0.0922-0.34212 0.2049-0.10588 0.11269-0.25765 0.2049-0.33729 0.2049-0.0796 0-0.16759 0.03688-0.19544 0.08196-0.0279 0.04508-0.21227 0.08196-0.4098 0.08196s-0.38392 0.0401-0.41421 0.0891c-0.0396 0.06416-0.08 0.06416-0.14416 0-0.049-0.049-0.19019-0.0891-0.31375-0.0891-0.12355 0-0.24744-0.03688-0.2753-0.08196-0.0279-0.04508-0.1385-0.08196-0.24587-0.08196-0.10738 0-0.21802-0.03688-0.24588-0.08196-0.0279-0.04508-0.11302-0.08219-0.18924-0.08246-0.0762-0.000245-0.24424-0.0556-0.37335-0.12294s-0.26886-0.12243-0.31055-0.12243c-0.15635 0-1.0296-0.78826-1.135-1.0245-0.0603-0.13523-0.13106-0.26432-0.15721-0.28686-0.10912-0.09405-0.25244-0.41913-0.25244-0.5726 0-0.09077-0.0369-0.16503-0.082-0.16503-0.0454 0-0.082-0.21694-0.082-0.48691 0-0.2678-0.0369-0.50971-0.082-0.53757s-0.082-0.17756-0.082-0.33267c0-0.251-0.0241-0.28202-0.21893-0.28202-0.36231 0-0.5187-0.21242-0.5187-0.70451 0-0.23828 0.0373-0.45631 0.083-0.48451 0.0526-0.03253 0.0552-0.10096 0.007-0.18713-0.0418-0.07472-0.046-0.19212-0.009-0.2609 0.0764-0.14305 0.14822-1.8054 0.078-1.8053-0.0254 0.000044-0.03-0.22354-0.0103-0.49684 0.0294-0.4065 0.00055-0.56682-0.15797-0.88105-0.10666-0.21127-0.25879-0.43232-0.33806-0.49123-0.0793-0.0589-0.14414-0.1969-0.14414-0.30665 0-0.11079-0.0729-0.24509-0.16392-0.30192-0.0902-0.0563-0.16392-0.14673-0.16392-0.20094 0-0.05422-0.0662-0.14677-0.14717-0.20567-0.0809-0.0589-0.20985-0.24139-0.28647-0.40552-0.0766-0.16414-0.19479-0.31972-0.26262-0.34575-0.0678-0.02603-0.12332-0.08782-0.12332-0.13732s-0.0922-0.21088-0.2049-0.35863c-0.11269-0.14775-0.2049-0.29646-0.2049-0.33046 0-0.03401-0.11064-0.16519-0.24587-0.29151-0.13523-0.12633-0.24588-0.28915-0.24588-0.36183 0-0.17516-0.17009-0.47051-0.34832-0.60483-0.0789-0.05945-0.14343-0.14444-0.14343-0.18886s-0.0373-0.12532-0.0829-0.17976c-0.35606-0.42497-0.57273-0.75886-0.57273-0.88258 0-0.0805-0.0922-0.25594-0.20489-0.38986-0.1127-0.13393-0.2049-0.29821-0.2049-0.36507 0-0.14517-0.22726-0.35148-0.30336-0.27539-0.0294 0.02943-0.0686 0.48649-0.0871 1.0157-0.0185 0.52919-0.0673 0.99719-0.10842 1.04-0.10597 0.1102-0.0928 0.42835 0.0255 0.61785 0.0792 0.12686 0.0792 0.18193 0 0.26116-0.12048 0.12048-0.13427 0.47741-0.0184 0.47741 0.0468 0 0.082 0.24426 0.082 0.56887 0 0.31288 0.0369 0.59167 0.082 0.61953s0.082 0.23288 0.082 0.45561 0.0369 0.40496 0.082 0.40496 0.082 0.08483 0.082 0.1885c0 0.10368 0.0339 0.22354 0.0753 0.26636 0.0743 0.07679 0.12509 0.43493 0.10099 0.71148-0.007 0.07809-0.1064 0.16547-0.22154 0.19437-0.16847 0.04228-0.25601 0.00005-0.44979-0.217-0.20428-0.2288-0.30883-0.27516-0.69236-0.30697-0.34355-0.02849-0.45429-0.01049-0.46232 0.07513-0.0478 0.50873-0.0275 0.62363 0.14754 0.83605 0.105 0.12744 0.21334 0.32106 0.24075 0.43028 0.0274 0.10922 0.0801 0.19858 0.11711 0.19858 0.10943 0 0.57063 0.73196 0.57063 0.90565 0 0.13096-0.0574 0.15981-0.3178 0.15981-0.18251 0-0.36124-0.05234-0.41983-0.12294-0.0561-0.06762-0.17128-0.12294-0.25591-0.12294-0.0846 0-0.15388-0.03688-0.15388-0.08196s-0.10327-0.08196-0.22949-0.08196c-0.12621 0-0.26962-0.04013-0.31867-0.08919-0.0491-0.04905-0.47135-0.10308-0.93843-0.12005s-0.77547-0.01121-0.68532 0.0128c0.6709 0.17868 0.97466 0.50823 0.7239 0.78533-0.12192 0.13471-0.21453 0.15658-0.49829 0.11769-0.30355-0.04161-0.34854-0.02786-0.34854 0.10648 0 0.17998 0.49232 0.49828 0.77069 0.49828 0.22661 0 0.64678 0.20044 0.79529 0.37938 0.0911 0.10978 0.0836 0.14792-0.048 0.24418-0.0858 0.06274-0.27232 0.11407-0.41448 0.11407-0.15441 0-0.31823 0.06601-0.40684 0.16392-0.0816 0.09015-0.18582 0.16392-0.23163 0.16392-0.17765 0-0.38304 0.28178-0.38263 0.52494 0.00027 0.19737 0.10733 0.36548 0.48218 0.75752 0.26497 0.27712 0.61515 0.56715 0.77819 0.64452 0.16303 0.07736 0.29642 0.17334 0.29642 0.21328s0.0681 0.07262 0.15121 0.07262c0.0832 0 0.21436 0.06978 0.29154 0.15506 0.0868 0.09588 0.30742 0.17594 0.57811 0.20976 0.27561 0.03444 0.49111 0.11362 0.58173 0.21376 0.11917 0.13169 0.25458 0.15906 0.78691 0.15906 0.35363 0 0.64297 0.03258 0.64297 0.0724s0.0738 0.09169 0.16391 0.11526c0.2526 0.06606 0.1945 0.28188-0.11549 0.42898-0.15367 0.07292-0.34219 0.20197-0.41893 0.28677-0.13258 0.14649-0.12784 0.16446 0.095 0.36042 0.2365 0.20797 0.43942 0.27235 0.43942 0.1394 0-0.13343 0.44773-0.24958 0.86993-0.22568 0.50603 0.02865 0.96352 0.27354 1.0015 0.53608 0.0346 0.23956-0.35599 0.66316-0.61156 0.66316-0.1016 0-0.20752 0.03688-0.23538 0.08196-0.0279 0.04508-0.14919 0.08196-0.26962 0.08196h-0.21897l0.26171 0.26172c0.36943 0.36943 0.82836 0.46652 2.5 0.52891 1.2436 0.04641 1.4725 0.07523 1.585 0.19957 0.11396 0.12593 0.11674 0.17621 0.0208 0.37666l-0.11074 0.23133-1.0645 0.02322c-0.5909 0.01289-1.1374-0.01294-1.2284-0.05806-0.0901-0.0447-0.3852-0.09939-0.65567-0.12153-0.8142-0.06665-1.1771-0.14101-1.2772-0.26172-0.0523-0.06305-0.15254-0.11463-0.22271-0.11463-0.16789 0-0.67194-0.55402-0.67194-0.73856 0-0.31519-0.22379-0.61021-0.86056-1.1345-0.19337-0.1592-0.3525-0.46578-0.3859-0.74345-0.0278-0.23143-0.40688-0.48307-0.74103-0.49195-0.12397-0.0033-0.22539-0.04287-0.22539-0.08795s-0.054-0.08196-0.12003-0.08196c-0.066 0-0.28518-0.0922-0.48703-0.2049-0.20186-0.11269-0.41091-0.2049-0.46456-0.2049-0.0537 0-0.1572-0.0683-0.2301-0.15179-0.0729-0.08348-0.25442-0.21455-0.40335-0.29125-0.35604-0.18336-0.67173-0.46193-0.67173-0.59273 0-0.05756-0.12908-0.20766-0.28685-0.33354s-0.28686-0.27498-0.28686-0.33133-0.0369-0.10245-0.082-0.10245c-0.0473 0-0.082-0.25954-0.082-0.61469 0-0.33808 0.0277-0.61498 0.0615-0.61533 0.0338-0.000328 0.10741-0.09957 0.16356-0.22048 0.0888-0.19132 0.0809-0.24244-0.0615-0.39395-0.09-0.09576-0.16357-0.20969-0.16357-0.25318s-0.0738-0.13224-0.16391-0.19722c-0.11998-0.08647-0.16392-0.21216-0.16392-0.46886 0-0.49723-0.17115-0.45084-0.44467 0.12054-0.12407 0.25919-0.25919 0.5353-0.30025 0.61358-0.10076 0.19205-0.0943 0.45056 0.0129 0.51681 0.0482 0.02976 0.0682 0.10452 0.0446 0.16613s-0.0102 0.13228 0.0299 0.15705 0.07 0.14727 0.0664 0.27223c-0.01 0.33458 0.3406 1.0359 0.60588 1.2136 0.1269 0.08501 0.2303 0.22834 0.22977 0.31849-0.001 0.18236 1.0339 1.1862 1.2244 1.1876 0.0641 0.000492 0.18429 0.06219 0.26717 0.13719 0.12778 0.11565 0.18049 0.1204 0.34696 0.03131 0.25625-0.13714 0.42548-0.04169 0.24538 0.1384-0.12097 0.12097-0.11601 0.14403 0.0608 0.28288 0.1059 0.08314 0.32163 0.20969 0.4794 0.28122s0.37906 0.17239 0.49175 0.22414c0.37883 0.17396 0.90155 0.55559 0.90155 0.6582 0 0.21576-0.77068 0.6243-1.1777 0.6243-0.0933 0-0.34285 0.08298-0.55443 0.18441-0.3453 0.16552-0.38778 0.21627-0.41477 0.4955-0.0343 0.35512-0.0115 0.40692 0.23596 0.53721 0.21991 0.11575 1.1446 0.12509 1.2143 0.01227 0.0613-0.09923 1.4068-0.11074 1.4675-0.01256 0.0236 0.03817 0.14979 0.07244 0.28044 0.07616 0.13065 0.0037 0.3717 0.0628 0.53566 0.13131 0.28112 0.11746 0.29811 0.14588 0.29811 0.49876 0 0.33305-0.0293 0.39268-0.26637 0.5423-0.24265 0.15313-0.36686 0.16529-1.3949 0.13655-0.71845-0.02009-1.1637-0.06671-1.2253-0.12832-0.28148-0.28148-1.1294 0.05002-1.1294 0.44154 0 0.10962 0.0369 0.19932 0.082 0.19932s0.082 0.08071 0.082 0.17935c0 0.24207 0.70296 0.87124 1.0459 0.9361 0.147 0.0278 0.28748 0.08325 0.31218 0.12322s0.21113 0.07267 0.41428 0.07267 0.43963 0.03761 0.52552 0.08358c0.10621 0.05684 0.42564 0.05652 0.99861-0.001 0.46334-0.04651 0.97153-0.09586 1.1293-0.10965s0.42397-0.08711 0.59156-0.16292 0.39073-0.13784 0.49585-0.13784c0.10513 0 0.23292-0.04178 0.28398-0.09284 0.12649-0.12649 0.34974-0.02818 0.34974 0.15401 0 0.16392-0.14119 0.3011-0.71852 0.69809-0.37733 0.25946-0.48149 0.31504-1.0872 0.58005-0.1592 0.06965-0.37691 0.2025-0.4838 0.29521-0.1113 0.09653-0.30952 0.16857-0.46384 0.16857-0.14821 0-0.29227 0.03688-0.32013 0.08196-0.0279 0.04508-0.15912 0.08196-0.29169 0.08196s-0.24104 0.03688-0.24104 0.08196-0.10847 0.08196-0.24104 0.08196-0.26383 0.03688-0.29169 0.08196c-0.0279 0.04508-0.28603 0.08196-0.57371 0.08196s-0.54585 0.03688-0.57371 0.08196c-0.0651 0.10538-2.6027 0.10989-2.7087 0.0048-0.0428-0.04243-0.45703-0.1031-0.92045-0.13483-0.46342-0.03172-0.86207-0.08921-0.88589-0.12774-0.0238-0.03854-0.1444-0.07007-0.26795-0.07007-0.12356 0-0.25969-0.03309-0.30251-0.07352-0.0428-0.04044-0.23082-0.09836-0.41777-0.12872-0.39122-0.06353-0.52642 0.05143-0.32379 0.27533 0.15517 0.17146 0.16999 0.42882 0.0326 0.56619-0.13243 0.13242-0.39436 0.12383-0.74958-0.02459-0.34841-0.14558-0.46341-0.15429-0.46341-0.03513 0 0.13058 0.21576 0.32198 0.36296 0.32198 0.0708 0 0.12879 0.03688 0.12879 0.08196 0 0.05023 0.39317 0.08196 1.0156 0.08196h1.0156l0.0524 0.20867c0.0288 0.11477 0.0306 0.24385 0.004 0.28686-0.0807 0.13049 0.19516 0.08785 0.55441-0.08573 0.3938-0.19026 0.56809-0.2033 0.82184-0.06147 0.51492 0.28781 0.60935 0.60003 0.30028 0.99294-0.22686 0.28841-0.10245 0.27221 0.54431-0.07091 0.29739-0.15777 0.59297-0.28686 0.65685-0.28686 0.0639 0 0.11613-0.03688 0.11613-0.08196s0.10846-0.08196 0.24104-0.08196c0.13257 0 0.26383-0.03688 0.29169-0.08196 0.0279-0.04508 0.17538-0.08196 0.32783-0.08196s0.29998-0.03688 0.32784-0.08196c0.0282-0.04569 0.40903-0.08196 0.86056-0.08196 0.45154 0 0.83233-0.03627 0.86057-0.08196 0.0279-0.04508 0.2307-0.08196 0.45077-0.08196 0.22006 0 0.42291 0.03688 0.45077 0.08196 0.0279 0.04508 0.158 0.08196 0.2892 0.08196 0.26172 0 0.79915 0.26455 0.96067 0.4729 0.0564 0.07268 0.10245 0.21158 0.10245 0.30867 0 0.26825 0.2429 0.42177 0.69665 0.4403 0.22538 0.0092 0.52942 0.04232 0.67564 0.07359s0.61646 0.04511 1.045 0.03075c0.60915-0.02042 0.77912-0.05171 0.77912-0.14343 0-0.06452-0.0369-0.11731-0.082-0.11731-0.0489 0-0.082-0.31417-0.082-0.77861 0-0.46443 0.0331-0.77861 0.082-0.77861 0.0451 0 0.082-0.07426 0.082-0.16503 0-0.31254 0.45409-0.90043 0.6955-0.90043 0.17625 0 0.25275 0.23422 0.13702 0.41954-0.0522 0.08357-0.0949 0.22404-0.0949 0.31214 0 0.08811-0.0369 0.18299-0.082 0.21085s-0.082 0.15694-0.082 0.28686c0 0.12991-0.0369 0.259-0.082 0.28686-0.18564 0.11473-0.005 0.61888 0.21953 0.6129 0.037-0.000983 0.28279-0.20383 0.54612-0.45077 0.26334-0.24694 0.54103-0.44898 0.61709-0.44898 0.0761 0 0.19145-0.07376 0.25643-0.16392 0.0665-0.09226 0.21217-0.16392 0.33323-0.16392 0.11829 0 0.28183-0.07376 0.36342-0.16392 0.0816-0.09015 0.24756-0.16392 0.36882-0.16392 0.12125 0 0.28722 0.07376 0.36881 0.16392 0.0816 0.09015 0.19795 0.16392 0.25858 0.16392 0.15215 0 0.14325 0.63635-0.0126 0.90154-0.0662 0.11269-0.14375 0.26944-0.17227 0.34832-0.0285 0.07888-0.11559 0.14343-0.1935 0.14343-0.0779 0-0.20997 0.07548-0.29346 0.16774-0.23841 0.26343-1.044 0.56988-1.4981 0.56988-0.1433 0-0.26055 0.03688-0.26055 0.08196s-0.063 0.08196-0.14011 0.08196c-0.19249 0-0.84339 0.72571-0.84339 0.94033 0 0.09587-0.0337 0.20934-0.0749 0.25217-0.0896 0.09309-0.11154 0.32172-0.0942 0.9794 0.0127 0.48209 0.0206 0.49781 0.39838 0.8l0.38537 0.30825 0.84183-0.03676c0.53172-0.02322 0.93641-0.08393 1.0986-0.16482 0.14119-0.07043 0.30636-0.12806 0.36705-0.12806 0.0607 0 0.11035-0.03688 0.11035-0.08196s0.0597-0.08196 0.1326-0.08196 0.26657-0.11193 0.43029-0.24873 0.35185-0.29354 0.41807-0.34832c0.37701-0.31187 0.9021-0.40014 1.1148-0.18741 0.13305 0.13306 0.1595 0.53858 0.0351 0.53858-0.0451 0-0.082 0.07426-0.082 0.16503 0 0.15934-0.0291 0.2384-0.23308 0.63296-0.0521 0.10081-0.0948 0.2765-0.0948 0.39042s-0.0369 0.28038-0.082 0.36993c-0.0451 0.08954-0.11884 0.23607-0.16392 0.32561-0.0451 0.08954-0.082 0.29021-0.082 0.44594 0 0.15572-0.0369 0.30592-0.082 0.33378s-0.082 0.2026-0.082 0.38832-0.0448 0.46163-0.0996 0.61315c-0.0782 0.2162-0.0782 0.3098 0 0.43499 0.0548 0.08773 0.0996 0.25485 0.0996 0.37137s0.0527 0.26455 0.11708 0.32895c0.2788 0.2788 0.69235 0.04015 0.97736-0.56402 0.081-0.17176 0.19986-0.33245 0.26407-0.35709 0.0642-0.02464 0.11674-0.09046 0.11674-0.14626 0-0.05581 0.0738-0.16822 0.16392-0.24981 0.0901-0.08159 0.16391-0.18908 0.16391-0.23886 0-0.04979 0.071-0.13484 0.15771-0.18901 0.29804-0.18612 0.90609 0.25743 0.67276 0.49075-0.0511 0.05106-0.0928 0.2677-0.0928 0.4814 0 0.21371-0.0387 0.4125-0.0861 0.44175-0.0821 0.05077-0.0977 1.0706-0.0184 1.2103 0.0518 0.0913 0.26839-0.10192 0.26839-0.2394zm-6.6821-17c-0.0265-0.04286-0.19351-0.07792-0.37115-0.07792-0.17765 0-0.323-0.03688-0.323-0.08196s-0.0911-0.08196-0.20241-0.08196c-0.11132 0-0.33373-0.07376-0.49424-0.16392s-0.33682-0.1649-0.3918-0.16611c-0.1264-0.0028-0.7966-0.61226-0.7966-0.72443 0-0.04602-0.073-0.13482-0.16228-0.19733-0.0893-0.06252-0.21884-0.24902-0.28796-0.41444-0.10103-0.24181-0.16964-0.30102-0.34996-0.30205-0.23911-0.0014-0.92176-0.53183-0.92123-0.71586 0.00017-0.05635-0.0366-0.10245-0.0817-0.10245s-0.082-0.06982-0.082-0.15515c0-0.19976-0.23157-0.28876-0.40115-0.15417-0.29777 0.23632-0.52083 0.30932-0.94521 0.30932-0.24588 0-0.46985-0.03688-0.4977-0.08196-0.0279-0.04508-0.11581-0.08196-0.19545-0.08196-0.14978 0-0.5012-0.32031-0.5012-0.45683 0-0.0426-0.0738-0.12352-0.16392-0.17982-0.12687-0.07923-0.16391-0.19113-0.16391-0.49507 0-0.21599-0.0443-0.43696-0.0984-0.49106-0.0765-0.07649-0.0765-0.12021 0-0.1967 0.0541-0.05409 0.0984-0.1959 0.0984-0.31513s0.0738-0.28354 0.16391-0.36512c0.0902-0.08159 0.16392-0.21067 0.16392-0.28686 0-0.07618 0.0738-0.20527 0.16392-0.28686 0.0901-0.08159 0.16391-0.18458 0.16391-0.22888 0-0.10584 0.50206-0.53198 0.83968-0.7127 0.26337-0.14098 0.26706-0.15119 0.29045-0.80211 0.0163-0.4548 0.0608-0.69014 0.14343-0.7587 0.0659-0.05466 0.11974-0.14718 0.11974-0.2056s0.18441-0.18957 0.40979-0.29143c0.37018-0.1673 0.40979-0.21105 0.40979-0.45261 0-0.14708-0.0369-0.2902-0.082-0.31806s-0.082-0.21494-0.082-0.41574-0.0332-0.42913-0.0737-0.5074-0.16039-0.32672-0.26636-0.55211-0.22033-0.42209-0.25414-0.43711c-0.0338-0.01503-0.0615-0.20865-0.0615-0.43028v-0.40296l0.30734 0.0026c0.16904 0.0014 0.36267 0.04783 0.43029 0.1031 0.14348 0.11728 0.43337 0.69548 0.58393 1.1647 0.0579 0.18031 0.13455 0.36287 0.17042 0.4057 0.0359 0.04282 0.0652 0.21583 0.0652 0.38447 0 0.16863 0.0369 0.3294 0.082 0.35726s0.082 0.35459 0.082 0.72607 0.0375 0.71287 0.0832 0.75864c0.12552 0.12552-0.14008 0.60523-0.3351 0.60523-0.0869 0-0.15791-0.03922-0.15791-0.08715 0-0.04895-0.11675-0.0759-0.26637-0.06147-0.22504 0.0217-0.27054 0.0622-0.29326 0.26105-0.0201 0.17539 0.0395 0.30383 0.23351 0.50404 0.30554 0.31524 0.28349 0.50592-0.0836 0.72275-0.13529 0.07992-0.24598 0.1808-0.24598 0.22419 0 0.04355-0.0933 0.05548-0.2082 0.02663-0.12847-0.03224-0.26186-0.0079-0.34833 0.06344-0.0771 0.06363-0.24154 0.16644-0.36551 0.22846-0.12396 0.06202-0.22538 0.15026-0.22538 0.19608s-0.0702 0.15946-0.15593 0.25252c-0.30045 0.32603-0.49974 0.78478-0.49974 1.1504 0 0.19882 0.0369 0.38428 0.082 0.41214s0.0822 0.11302 0.0826 0.18924c0.00027 0.07622 0.0999 0.18469 0.22123 0.24104 0.26611 0.12359 0.43379 0.13151 0.43379 0.02049 0-0.04508 0.0658-0.08196 0.14625-0.08196 0.15066 0 0.42746-0.38474 0.42746-0.59414 0-0.19944 0.285-0.38936 0.58427-0.38936 0.32282 0 0.48096 0.11974 0.4817 0.36472 0.00025 0.09241 0.0556 0.27365 0.12294 0.40277 0.0673 0.12912 0.12509 0.33196 0.12835 0.45077 0.004 0.14148 0.10285 0.29657 0.28685 0.44948l0.28094 0.23346v-0.24078c0-0.17528 0.0882-0.3224 0.32427-0.5408 0.27247-0.25211 0.38046-0.29906 0.67615-0.29403 0.40606 0.0069 0.8078 0.21123 0.92455 0.47022 0.0445 0.0987 0.10904 0.17946 0.14343 0.17946 0.0344 0 0.0625 0.18441 0.0625 0.40979 0 0.22539-0.0281 0.40979-0.0625 0.40979s-0.0989 0.08282-0.14343 0.18404c-0.0445 0.10122-0.18469 0.23345-0.31154 0.29384-0.31156 0.14833-0.35733 0.31332-0.14854 0.53556 0.0959 0.10204 0.17428 0.22924 0.17428 0.28268s0.0511 0.09717 0.11357 0.09717c0.0625 0 0.21921 0.05509 0.34832 0.12243 0.12912 0.06734 0.29713 0.12266 0.37335 0.12294 0.0762 0.000246 0.16139 0.03739 0.18925 0.08246 0.0279 0.04508 0.1385 0.08196 0.24587 0.08196s0.21802 0.03688 0.24588 0.08196c0.0279 0.04508 0.36196 0.08196 0.74246 0.08196s0.69181 0.03258 0.69181 0.0724 0.0738 0.09169 0.16392 0.11526c0.1856 0.04854 0.23439 0.45036 0.0615 0.50628-0.2437 0.0788-1.6177 0.11158-1.6622 0.03965zm-1.9235-3.1045c0-0.12316-0.20776-0.10956-0.31585 0.02068-0.13609 0.16398 0.0531 0.32989 0.20403 0.17894 0.0615-0.0615 0.11182-0.15133 0.11182-0.19963zm-11.064 15.709c0-0.09062 0.0648-0.22441 0.14399-0.29731 0.0792-0.0729 0.19906-0.2432 0.26637-0.37843 0.0673-0.13523 0.18692-0.29407 0.2658-0.35297 0.0789-0.0589 0.14343-0.15595 0.14343-0.21566s0.12908-0.20702 0.28685-0.32736 0.28686-0.25232 0.28686-0.2933 0.17519-0.23767 0.3893-0.4371c0.21412-0.19943 0.51307-0.47752 0.66434-0.61797 0.30478-0.283 0.24238-0.31985-0.2162-0.12768-0.23002 0.09639-0.44688 0.11445-0.88476 0.07366-0.53672-0.05-0.61017-0.08094-0.9835-0.41434-0.2219-0.19816-0.448-0.39728-0.50245-0.44247-0.0544-0.04519-0.21006-0.08217-0.34582-0.08217-0.13577 0-0.37818-0.07376-0.53869-0.16392-0.16051-0.09015-0.3784-0.16392-0.48421-0.16392-0.1058 0-0.23512-0.05151-0.28737-0.11448-0.0523-0.06296-0.16742-0.09554-0.25591-0.0724-0.1109 0.029-0.16091 0.000902-0.16091-0.09042 0-0.07287-0.0455-0.1325-0.1011-0.1325-0.20033 0-1.1283-0.51338-1.1283-0.62421 0-0.06238-0.0369-0.11342-0.082-0.11342s-0.082-0.10441-0.082-0.23203c0-0.27674 0.26679-0.45252 0.62319-0.41059 0.21793 0.02564 0.23957 0.0044 0.26427-0.25893 0.0503-0.53612 0.46703-0.80926 1.2025-0.78809 0.27046 0.0078 0.55629 0.04471 0.63518 0.08206 0.10526 0.04983 0.14343 0.03285 0.14343-0.06381 0-0.07707-0.068-0.13171-0.16392-0.13171-0.0901 0-0.16392-0.02788-0.16392-0.06195s-0.11986-0.11071-0.26636-0.17031c-0.7285-0.29636-0.88106-0.37183-0.88106-0.43585 0-0.03823-0.0681-0.06951-0.15121-0.06951-0.0832 0-0.21797-0.07376-0.29956-0.16392-0.0816-0.09015-0.18525-0.16392-0.23035-0.16392s-0.2029-0.0922-0.35065-0.2049c-0.14774-0.11269-0.28861-0.2049-0.31303-0.2049-0.0599 0 0.0446 0.52197 0.11489 0.57371 0.0903 0.06651 0.22434 0.52401 0.18606 0.63518-0.0437 0.12691-0.31971 0.1349-0.39601 0.01146-0.0338-0.05466-0.17271-0.07209-0.34797-0.04365-0.16046 0.02604-0.33782 0.0091-0.39414-0.03763-0.0708-0.05877-0.15289-0.05795-0.26616 0.0027-0.0901 0.0482-0.25388 0.08765-0.36401 0.08765-0.27965 0-0.42066 0.20606-0.40526 0.59221 0.009 0.22888 0.0643 0.36523 0.18099 0.44693 0.0923 0.06466 0.16786 0.19414 0.16786 0.28772s0.083 0.24267 0.18441 0.33131c0.10142 0.08864 0.36881 0.32126 0.5942 0.51693s0.55273 0.48707 0.72744 0.64755c0.1747 0.16048 0.36261 0.29178 0.41758 0.29178 0.055 0 0.16186 0.06843 0.23755 0.15206 0.24486 0.27057-0.0202 0.58413-0.49613 0.58691-0.36345 0.0021-0.88204 0.33401-0.91124 0.58318-0.0197 0.16776 0.0228 0.22927 0.20489 0.29686 0.22886 0.08495 0.52881 0.08294 0.76243-0.0051 0.28932-0.10901 1.2107-0.18469 1.2895-0.10591 0.0559 0.05592-0.11425 0.42558-0.2978 0.64689-0.14765 0.17804-0.34929 0.69324-0.35948 0.91854-0.004 0.09015-0.0451 0.18933-0.0912 0.22038-0.0525 0.03539-0.0267 0.11951 0.0691 0.22539 0.1097 0.12121 0.25345 0.16892 0.50899 0.16892 0.19586 0 0.35611-0.03688 0.35611-0.08196s0.0558-0.08196 0.12405-0.08196c0.14239 0 0.41669-0.14319 0.65455-0.34169 0.0902-0.07523 0.29301-0.15992 0.45078-0.18819 0.25197-0.04515 0.29837-0.02603 0.38156 0.15722 0.0618 0.13614 0.0663 0.22618 0.0129 0.25915-0.0481 0.02974-0.0635 0.2573-0.0374 0.55328 0.0244 0.27651 0.0462 0.55337 0.0485 0.61524 0.007 0.18669 0.25001-0.0626 0.25001-0.25633zm24.98-0.31085c0.11736-0.09232 0.2251-0.24906 0.23941-0.34832 0.0143-0.09926 0.13652-0.27268 0.27155-0.38537s0.24518-0.24286 0.24477-0.28925c-0.00027-0.0464 0.073-0.13752 0.16318-0.2025 0.0902-0.06498 0.16392-0.15061 0.16392-0.1903 0-0.12016 1.0987-1.3543 1.2115-1.3608 0.0578-0.0034 0.12896-0.07064 0.15823-0.14952 0.0293-0.07888 0.11365-0.19875 0.18752-0.26637 0.0739-0.06762 0.15826-0.18748 0.18752-0.26636 0.0293-0.07888 0.10969-0.14343 0.17872-0.14343 0.069 0 0.12551-0.03779 0.12551-0.08399 0-0.04619 0.0922-0.11904 0.2049-0.16189 0.11269-0.04285 0.2049-0.11991 0.2049-0.17125s0.14752-0.22266 0.32783-0.38071 0.32783-0.33825 0.32783-0.40044 0.0394-0.11307 0.0875-0.11307 0.20485-0.12012 0.34833-0.26694c0.30801-0.31519 1.4676-1.3545 1.9257-1.7261 0.6742-0.54675 2.1462-1.8939 2.1462-1.9641 0-0.10238 0.34577-0.38059 0.47712-0.38389 0.14933-0.0038 0.34247-0.20999 0.34247-0.36569 0-0.07084 0.0277-0.12896 0.0615-0.12917 0.0338-0.000246 0.183-0.11428 0.33154-0.2535 0.31409-0.29436 0.27095-0.40621-0.21254-0.55107-0.17227-0.05161-0.40043-0.18667-0.50701-0.30012-0.14931-0.15893-0.27541-0.20628-0.54942-0.20628-0.19561 0-0.41968-0.03258-0.49796-0.0724-0.0783-0.03982-0.23452-0.11109-0.34721-0.15837-0.11269-0.04729-0.33398-0.14049-0.49175-0.20711s-0.33472-0.13425-0.39322-0.15027c-0.18357-0.0503-1.1309-0.91848-1.2317-1.1288-0.0529-0.11041-0.0962-0.26716-0.0962-0.34832 0-0.08117-0.0369-0.14758-0.082-0.14758s-0.082-0.07376-0.082-0.16392c0-0.09015 0.0277-0.1642 0.0615-0.16456 0.0338-0.000328 0.10079-0.08554 0.14885-0.18932 0.0906-0.19562-0.0137-0.38375-0.21271-0.38375-0.0502 0-0.14577-0.0545-0.21239-0.12111-0.0666-0.06661-0.19134-0.1703-0.27718-0.23043-0.0858-0.06012-0.1997-0.29146-0.25304-0.51407-0.0533-0.22261-0.10921-0.45085-0.12418-0.5072-0.015-0.05635-0.13902-0.10245-0.27567-0.10245-0.13664 0-0.24844-0.03688-0.24844-0.08196s-0.0537-0.08196-0.1193-0.08196-0.25517-0.0922-0.42123-0.2049c-0.16607-0.11269-0.36133-0.20575-0.43392-0.2068-0.0726-0.001-0.26751-0.12091-0.43314-0.26637-0.26258-0.23059-0.4646-0.39604-0.92982-0.76148-0.0611-0.04797-0.15922-0.2416-0.21811-0.43028-0.0589-0.18868-0.13497-0.34306-0.16907-0.34306s-0.062-0.09003-0.062-0.20006-0.0369-0.22285-0.082-0.25071-0.0823-0.29743-0.0827-0.59904c-0.00054-0.51074-0.0176-0.56167-0.24587-0.74202-0.13482-0.1065-0.24513-0.23593-0.24513-0.28763s-0.0738-0.14006-0.16392-0.19637c-0.0901-0.0563-0.16392-0.15343-0.16392-0.21584s-0.0553-0.1347-0.12293-0.16065c-0.0676-0.02595-0.12294-0.11474-0.12294-0.19732 0-0.1852-0.18265-0.59111-0.26637-0.59198-0.0338-0.000328-0.0615-0.09284-0.0615-0.20554 0-0.11269-0.0369-0.2049-0.082-0.2049s-0.082-0.0922-0.082-0.2049c0-0.11269-0.0369-0.2049-0.082-0.2049s-0.082-0.16379-0.082-0.36398-0.0369-0.38677-0.082-0.41463c-0.0951-0.05875-0.11448-2.008-0.02-2.008 0.0341 0 0.11409-0.1178 0.17782-0.26176 0.17293-0.39066 0.48627-0.61614 0.98961-0.71212 0.24793-0.04727 0.5061-0.08141 0.57371-0.07585 0.43464 0.0357 0.57371-0.01778 0.57371-0.22062 0-0.11269 0.0336-0.2049 0.0747-0.2049s0.094-0.21207 0.11761-0.47126c0.0672-0.73765 0.14328-1.0723 0.26711-1.1751 0.0629-0.05218 0.11431-0.18038 0.11431-0.28489s0.0369-0.21282 0.082-0.24068 0.082-0.12224 0.082-0.20973 0.0369-0.15908 0.082-0.15908 0.082-0.06022 0.082-0.13381c0-0.0736 0.0673-0.19346 0.14962-0.26637 0.0823-0.0729 0.20194-0.25242 0.26588-0.39892 0.0639-0.1465 0.14414-0.26636 0.17821-0.26636 0.0341 0 0.062-0.05264 0.062-0.11699 0-0.17983 0.40421-0.45672 0.66672-0.45672 0.12916 0 0.23483 0.03688 0.23483 0.08196 0 0.15999 0.0149 0.2061 0.0999 0.30854 0.0473 0.05701 0.10452 0.3622 0.12713 0.67822 0.0226 0.31602 0.073 0.59426 0.11191 0.61833 0.0389 0.02407 0.0708 0.20537 0.0708 0.4029s0.0369 0.38193 0.082 0.40979 0.082 0.19383 0.082 0.36881c0 0.17499 0.0369 0.34095 0.082 0.36881s0.082 0.17538 0.082 0.32784c0 0.15245 0.0369 0.29998 0.082 0.32783 0.0451 0.02786 0.082 0.12093 0.082 0.20682s0.0934 0.32345 0.20753 0.52789c0.11414 0.20445 0.18053 0.37172 0.14752 0.37172-0.033 0-0.0157 0.04426 0.0383 0.09835 0.0541 0.05409 0.0983 0.18434 0.0983 0.28943s0.0521 0.21105 0.11566 0.23546c0.0636 0.02441 0.16386 0.20766 0.22279 0.40722 0.0589 0.19956 0.13596 0.36284 0.1712 0.36284 0.0352 0 0.0641 0.04961 0.0641 0.11024s0.0738 0.17699 0.16392 0.25858c0.0901 0.08159 0.16392 0.21311 0.16392 0.29227s0.10142 0.23125 0.22538 0.33798 0.29915 0.32717 0.3893 0.48987c0.16781 0.30284 1.4689 1.4616 1.6412 1.4616 0.0526 0 0.15923 0.07035 0.23704 0.15634 0.0778 0.08599 0.31757 0.23208 0.53277 0.32466s0.43838 0.22507 0.49594 0.29443c0.0576 0.06936 0.20342 0.12611 0.32411 0.12611 0.1207 0 0.26525 0.04579 0.32122 0.10176 0.081 0.08105 0.11749 0.07687 0.17905-0.02049 0.10262-0.16232 0.10118-0.49107-0.002-0.49107-0.0451 0-0.082-0.09003-0.082-0.20006s-0.039-0.22414-0.0866-0.25358c-0.0476-0.02943-0.17455-0.24368-0.28206-0.4761-0.11119-0.24038-0.30345-0.49326-0.4459-0.5865-0.17866-0.11694-0.2505-0.22851-0.25067-0.3893-0.00016-0.12396 0.0274-0.22643 0.0612-0.22771 0.0338-0.0013 0.22744-0.1504 0.43028-0.33139 0.427-0.38098 0.76668-0.56783 1.0322-0.56783 0.10311 0 0.21225-0.04009 0.24254-0.0891 0.0396-0.06416 0.08-0.06416 0.14416 0 0.049 0.049 0.16826 0.0891 0.26501 0.0891 0.19347 0 0.66208 0.21174 0.73704 0.33302 0.0261 0.04222 0.10981 0.07762 0.18604 0.07867 0.0762 0.001 0.27195 0.12211 0.43494 0.26902 1.0246 0.92357 1.5661 1.3402 1.937 1.4906 0.0563 0.02284 0.14855 0.06038 0.20489 0.08342 0.0564 0.02304 0.2131 0.11254 0.34833 0.19891 0.13523 0.08636 0.382 0.15972 0.54838 0.16302s0.3253 0.04287 0.35316 0.08795c0.0662 0.10711 1.0245 0.10711 1.0245 0 0-0.04508 0.12797-0.08196 0.28437-0.08196s0.41569-0.07376 0.5762-0.16392c0.16051-0.09015 0.34533-0.16392 0.41069-0.16392 0.0654 0 0.32065-0.12908 0.56728-0.28686 0.24664-0.15777 0.47786-0.28686 0.51384-0.28686 0.13036 0.000002 1.3358-0.605 1.3358-0.67044 0-0.03696 0.0616-0.06719 0.13697-0.06719 0.21744 0 0.43674-0.25087 0.43674-0.49962 0-0.12558 0.0338-0.24923 0.0751-0.27477s0.0751-0.21642 0.0751-0.42419 0.04-0.41771 0.0888-0.46655c0.10606-0.10605 0.11868-0.38384 0.0174-0.38384-0.0986 0-0.0893-1.0006 0.0105-1.1269 0.0541-0.06857 0.0492-0.14065-0.015-0.21797-0.0528-0.06364-0.0967-0.37593-0.0977-0.69534-0.001-0.3189-0.0361-0.60102-0.0781-0.62694-0.0419-0.02592-0.0763-0.17096-0.0763-0.32231s-0.0347-0.28748-0.0771-0.30251-0.0956-0.11952-0.11819-0.23222c-0.0705-0.3517-0.18878-0.68293-0.38062-1.0655-0.101-0.203-0.225-0.462-0.275-0.574-0.05-0.1129-0.147-0.2474-0.216-0.2992s-0.177-0.2269-0.241-0.3893c-0.063-0.1624-0.145-0.2952-0.182-0.2952-0.0367 0-0.0667-0.05532-0.0667-0.12294s-0.0309-0.12294-0.0687-0.12294-0.3357-0.26016-0.66198-0.57814c-0.327-0.318-0.683-0.6121-0.792-0.6537-0.11-0.0415-0.199-0.1317-0.199-0.2004 0-0.06873-0.0693-0.12497-0.15388-0.12497-0.0846 0-0.1998-0.05532-0.25591-0.12294-0.0561-0.06761-0.15172-0.12294-0.21244-0.12294-0.0607 0-0.24174-0.07376-0.40225-0.16392-0.16051-0.09015-0.34604-0.16392-0.41229-0.16392-0.0662 0-0.12044-0.03688-0.12044-0.08196s-0.0645-0.08219-0.14343-0.08246c-0.078-0.0003-0.249-0.0557-0.378-0.123s-0.322-0.1224-0.43-0.1224c-0.10754 0-0.19553-0.03688-0.19553-0.08196s-0.0716-0.08196-0.15908-0.08196c-0.0875 0-0.18188-0.03688-0.20974-0.08196-0.0279-0.04508-0.15912-0.08196-0.29169-0.08196s-0.24104-0.03373-0.24104-0.07496-0.24895-0.09623-0.55322-0.12222c-0.84436-0.07212-4.0452-0.05002-4.3233 0.02986-0.13523 0.03884-0.30968 0.06779-0.38766 0.06433-0.078-0.0035-0.28083 0.03333-0.45077 0.08174-0.16995 0.04841-0.51508 0.14676-0.76696 0.21856-0.25189 0.07179-0.51816 0.13053-0.59171 0.13053-0.0736 0-0.26506 0.07376-0.42558 0.16392-0.16051 0.09015-0.34604 0.16392-0.41228 0.16392-0.0662 0-0.12045 0.03688-0.12045 0.08196s-0.10846 0.08196-0.24103 0.08196-0.26418 0.03744-0.29246 0.0832c-0.0647 0.10466-0.58848 0.32659-0.7708 0.32659-0.0753 0-0.31972 0.16691-0.54321 0.37091-0.2235 0.204-0.49856 0.42026-0.61125 0.48057-0.1127 0.06032-0.31554 0.16849-0.45077 0.24038-0.29706 0.15793-1.9144 1.542-1.9212 1.6441-0.003 0.03978-0.24951 0.29655-0.54859 0.57061-0.87329 0.80021-0.87633 0.80204-1.1684 0.70024-0.14017-0.04887-0.25486-0.14056-0.25486-0.20377s-0.0588-0.11492-0.13062-0.11492c-0.0718 0-0.14848-0.06454-0.17032-0.14343-0.0218-0.07888-0.22123-0.28777-0.4431-0.4642-0.221-0.177-0.403-0.3511-0.403-0.3879s-0.166-0.2198-0.369-0.4068-0.369-0.3906-0.369-0.4525c0-0.06188-0.0738-0.1125-0.16392-0.1125-0.0926 0-0.16392-0.05464-0.16392-0.12551 0-0.06903-0.0645-0.15005-0.14342-0.18005-0.0789-0.03-0.21065-0.13948-0.29281-0.2433-0.082-0.1038-0.211-0.1889-0.287-0.1892-0.075-0.0002-0.315-0.1685-0.532-0.374-0.37-0.3503-1.365-0.9355-1.593-0.9364-0.056-0.0002-0.102-0.0373-0.102-0.0824 0-0.04508-0.0511-0.08196-0.11357-0.08196-0.0625 0-0.21921-0.05509-0.34833-0.12243-0.129-0.0673-0.297-0.1226-0.373-0.1229s-0.162-0.0374-0.189-0.0825c-0.028-0.0451-0.134-0.0819-0.236-0.0819-0.101 0-0.264-0.0738-0.36-0.164-0.097-0.0901-0.268-0.1639-0.38-0.1639s-0.223-0.0325-0.248-0.0723c-0.024-0.0397-0.284-0.0979-0.578-0.1293-0.293-0.0314-0.554-0.0911-0.579-0.1326-0.026-0.0416-0.266-0.0756-0.534-0.0756-0.26998 0-0.48692-0.03652-0.48692-0.08196 0-0.05221-0.66771-0.08196-1.8392-0.08196-1.1378 0-1.8586 0.03126-1.8899 0.08196-0.0279 0.04508-0.17539 0.08196-0.32784 0.08196s-0.29997 0.03688-0.32783 0.08196c-0.0279 0.04508-0.15695 0.08196-0.28686 0.08196s-0.25899 0.03688-0.28685 0.08196c-0.0279 0.04508-0.13851 0.08196-0.24588 0.08196s-0.21801 0.03688-0.24587 0.08196c-0.0279 0.04508-0.13162 0.08196-0.23058 0.08196-0.15958 0-1.3738 0.52975-1.6954 0.73973-0.0676 0.04414-0.19873 0.1134-0.29138 0.15391-0.0926 0.04051-0.33237 0.22385-0.53273 0.40741s-0.38899 0.33473-0.41918 0.33593c-0.0302 0.0012-0.25149 0.21214-0.49175 0.46875-0.24028 0.25661-0.51448 0.54798-0.60936 0.64748-0.0949 0.09951-0.19514 0.23993-0.22281 0.31204-0.0277 0.07212-0.0976 0.13263-0.15534 0.13448-0.0951 0.003-0.24629 0.28141-0.56581 1.0416-0.0616 0.1465-0.13983 0.26636-0.1739 0.26636-0.0341 0-0.062 0.09003-0.062 0.20006s-0.0369 0.22285-0.082 0.25071-0.082 0.12274-0.082 0.21085-0.0324 0.22423-0.0719 0.30251c-0.1167 0.231-0.25594 0.7151-0.25594 0.88986 0 0.08921-0.0355 0.19768-0.0789 0.24106-0.13573 0.13573-0.23893 1.4295-0.19579 2.4545 0.0549 1.3051 0.0686 1.4351 0.17973 1.7051 0.0522 0.1269 0.0949 0.28147 0.0949 0.34349s0.0379 0.13616 0.0841 0.16476c0.0463 0.0286 0.0768 0.09532 0.0678 0.14826-0.0153 0.09026 0.0999 0.40567 0.2667 0.73033 0.0402 0.07827 0.0731 0.19814 0.0731 0.26637s0.0369 0.12405 0.082 0.12405 0.082 0.07376 0.082 0.16392c0 0.09015 0.0347 0.16392 0.0771 0.16392 0.12972 0 0.17839-0.14928 0.0991-0.30401-0.26266-0.5128-0.28696-0.60156-0.19099-0.69754 0.0532-0.05318 0.0967-0.2184 0.0967-0.36716s0.0369-0.27046 0.082-0.27046 0.082-0.0516 0.082-0.11466c0-0.16391 0.64348-0.47988 0.86439-0.42443 0.22932 0.05756 0.44002-0.15628 0.29594-0.30036-0.0636-0.06356-0.0949-0.50698-0.0949-1.3433 0-1.1765 0.009-1.2514 0.16391-1.3005 0.15012-0.04765 0.16392-0.12401 0.16392-0.90707 0-0.57757-0.0299-0.85504-0.092-0.85504-0.0677 0-0.0679-0.02908-0.00055-0.11001 0.0502-0.06051 0.0959-0.34634 0.10161-0.63518 0.006-0.28884 0.0438-0.56699 0.0848-0.6181s0.0796-0.22785 0.0858-0.39275c0.006-0.1649 0.0421-0.31888 0.0798-0.34219 0.0377-0.0233 0.0686-0.16927 0.0686-0.32438s0.0369-0.28202 0.082-0.28202 0.082-0.0432 0.082-0.09599c0-0.30823 0.48038-0.49668 0.74105-0.2907 0.14001 0.11064 0.32441 0.8204 0.32441 1.2487 0 0.15167 0.0369 0.29856 0.082 0.32642s0.082 0.1546 0.082 0.28166c0 0.12705 0.0515 0.27372 0.11436 0.32592 0.0629 0.0522 0.13765 0.21898 0.16609 0.37061 0.0285 0.15163 0.10607 0.3208 0.17249 0.37593 0.0664 0.05513 0.12077 0.14755 0.12077 0.20539 0 0.16684 0.35453 0.80663 0.51224 0.92439 0.0789 0.0589 0.14343 0.19326 0.14343 0.29858 0 0.10531 0.0525 0.21164 0.11674 0.23628 0.0642 0.02464 0.18239 0.18533 0.26263 0.35709 0.0802 0.17176 0.21211 0.36049 0.29305 0.41939 0.0809 0.0589 0.14716 0.14703 0.14716 0.19583s0.20285 0.3398 0.45078 0.64665c0.24792 0.30685 0.45077 0.59282 0.45077 0.63547 0 0.04266 0.0525 0.09772 0.11674 0.12236 0.0642 0.02464 0.1822 0.18533 0.26219 0.35709 0.12822 0.27532 0.3484 0.54112 0.5097 0.61533 0.0296 0.01364 0.17939 0.28296 0.33279 0.5985 0.15339 0.31554 0.31138 0.63975 0.35109 0.72047 0.0397 0.08072 0.0519 0.1796 0.0271 0.21972-0.0248 0.04013-0.008 0.09613 0.0382 0.12444 0.0497 0.03074 0.0833 0.4953 0.0833 1.1531 0 0.89576 0.0217 1.1016 0.11611 1.1016 0.0639 0 0.13008-0.04191 0.14715-0.09313 0.0221-0.06624 0.0832-0.06054 0.21172 0.01972 0.14907 0.0931 0.18069 0.18827 0.18069 0.5439 0 0.23708-0.0369 0.43106-0.082 0.43106-0.0506 0-0.082 0.42345-0.082 1.1064 0 0.68299 0.0314 1.1064 0.082 1.1064 0.0451 0 0.082 0.11114 0.082 0.24699 0 0.27886 0.13585 0.55955 0.34832 0.71968 0.0789 0.05945 0.14343 0.16132 0.14343 0.22638s0.0277 0.11869 0.0615 0.11917c0.0338 0.000492 0.20899 0.14195 0.3893 0.31436 0.28923 0.27656 0.48208 0.38963 1.1474 0.67277 0.17211 0.07324 0.67677 0.1086 1.2294 0.08613 0.2646-0.01075 0.40292-0.08311 0.71714-0.37509 0.21411-0.19897 0.3893-0.38644 0.3893-0.41659s0.1383-0.22591 0.30734-0.43501c0.30035-0.37153 0.35719-0.45955 0.6895-1.0676 0.18489-0.3383 0.89874-1.0267 1.2429-1.1986 0.24914-0.12444 1.4026-0.17716 1.8172-0.08306 0.54937 0.12466 1.1738 0.43627 1.3193 0.65841 0.13655 0.20841 0.0996 0.33874-0.14639 0.51621-0.0817 0.0589-0.14845 0.15295-0.14845 0.20899s-0.0431 0.14497-0.0957 0.19762c-0.273 0.27301-0.40323 1.1898-0.2124 1.4954 0.073 0.11697 0.0774 0.20319 0.0156 0.30623-0.0473 0.07888-0.0957 0.43848-0.10741 0.7991-0.0117 0.36062-0.0556 0.66796-0.0976 0.68299-0.0419 0.01503-0.0762 0.18804-0.0762 0.38447s-0.0369 0.37994-0.082 0.4078-0.082 0.14118-0.082 0.25182-0.0328 0.26521-0.073 0.34349c-0.0401 0.07827-0.15479 0.32672-0.25478 0.55211-0.1 0.22539-0.20934 0.46492-0.24301 0.5323-0.0895 0.17915 0.20459 0.6561 0.40459 0.6561 0.0503 0 0.19083 0.0922 0.31236 0.2049 0.12153 0.11269 0.28623 0.2049 0.36599 0.2049 0.0854 0 0.24668 0.16521 0.39221 0.40172 0.13594 0.22094 0.33845 0.46152 0.45001 0.53462s0.20283 0.17195 0.20283 0.21967 0.1309 0.2465 0.29088 0.44173c0.35239 0.43005 0.77459 1.2351 0.77459 1.477 0 0.09693 0.0253 0.20151 0.0562 0.23241 0.0309 0.03089 0.1041 0.19379 0.16268 0.36198 0.12868 0.36946 0.15107 2.524 0.027 2.6007-0.0451 0.02786-0.0833 0.18678-0.0849 0.35316-0.002 0.16638-0.0529 0.39285-0.11409 0.50328-0.0611 0.11042-0.0955 0.24172-0.0763 0.29178s-0.0616 0.23324-0.17955 0.40707c-0.27254 0.4016-0.30417 0.89774-0.077 1.2082 0.1972 0.26958 0.24155 0.27476 0.51443 0.06011zm25.421-1.0175c0.13699-0.13124 0.24908-0.28705 0.24908-0.34623s0.0369-0.1076 0.082-0.1076c0.11772 0 0.10126-0.87004-0.0205-1.0829-0.20814-0.3639-0.24565-0.37818-0.5477-0.20853-0.15683 0.08808-0.47515 0.32248-0.70739 0.52089-0.44116 0.3769-0.70091 0.44492-0.90804 0.2378-0.0676-0.06762-0.19406-0.12294-0.281-0.12294-0.0869 0-0.15806-0.05365-0.15806-0.11921 0-0.06557-0.083-0.20958-0.18441-0.32003-0.28717-0.31274-0.34893-0.40208-0.47534-0.68769-0.0648-0.1465-0.14577-0.26636-0.17984-0.26636-0.0341 0-0.0619-0.0922-0.0619-0.2049 0-0.11269-0.0369-0.2049-0.082-0.2049s-0.082-0.06489-0.082-0.1442-0.0738-0.19027-0.16392-0.24657c-0.0901-0.0563-0.16391-0.17622-0.16391-0.26648 0-0.24192-0.30635-0.85119-0.53687-1.0678-0.11042-0.10373-0.20076-0.26551-0.20076-0.3595s-0.0738-0.21696-0.16392-0.27326c-0.0901-0.0563-0.16392-0.15738-0.16392-0.22461s-0.0369-0.12224-0.082-0.12224-0.082-0.07376-0.082-0.16392c0-0.09015-0.0369-0.16392-0.082-0.16392s-0.082-0.05532-0.082-0.12294-0.0281-0.12294-0.0625-0.12294-0.0989-0.0796-0.14343-0.17689c-0.0445-0.09729-0.16964-0.23469-0.27808-0.30533-0.19135-0.12464-0.19438-0.1232-0.10245 0.04856 0.0521 0.09735 0.0947 0.26946 0.0947 0.38245 0 0.113 0.0369 0.22824 0.082 0.2561s0.082 0.19382 0.082 0.36881 0.0369 0.34096 0.082 0.36881c0.0451 0.02786 0.082 0.23071 0.082 0.45077s0.0382 0.4237 0.0848 0.45253c0.0466 0.02882 0.0837 0.20619 0.0824 0.39414-0.001 0.18795 0.007 0.74091 0.0188 1.2288 0.0154 0.64428-0.008 0.91098-0.0841 0.97447-0.11637 0.09658-0.12282 0.88341-0.009 1.0633 0.0469 0.07392 0.0686 0.04323 0.0695-0.09808 0.00082-0.11589 0.0728-0.25036 0.16517-0.30804 0.0927-0.05787 0.16392-0.19113 0.16392-0.30657 0-0.11231 0.0369-0.2042 0.082-0.2042s0.082-0.12171 0.082-0.27046c0-0.52468 0.36769-0.61956 0.79519-0.20521 0.14865 0.14407 0.27027 0.32466 0.27027 0.4013s0.12908 0.25269 0.28685 0.39121 0.28686 0.28567 0.28686 0.32699 0.11986 0.1326 0.26636 0.20286c0.1465 0.07025 0.43234 0.27626 0.63518 0.45778 0.20285 0.18153 0.44758 0.3311 0.54386 0.33238 0.0963 0.0013 0.26399 0.04843 0.37271 0.10477 0.36061 0.18688 0.85129 0.12589 1.1292-0.14036zm-1.6017-1.733c0.0713-0.02736 0.12964-0.13892 0.12964-0.2479 0-0.13382 0.0639-0.22247 0.19693-0.27303 0.24188-0.09196 0.35169-0.2489 0.17414-0.2489-0.0717 0-0.15103-0.05392-0.17632-0.11982-0.0253-0.0659-0.11633-0.14215-0.20232-0.16944-0.086-0.02729-0.15635-0.09432-0.15635-0.14894 0-0.05463-0.0738-0.15249-0.16392-0.21747-0.12069-0.08699-0.16391-0.21217-0.16391-0.47472 0-0.36525 0.075-0.4935 0.3856-0.65976 0.24717-0.13228 0.3908-0.11959 0.78117 0.06901 0.1866 0.09015 0.38076 0.16392 0.43148 0.16392 0.15369 0 0.50668 0.43143 0.62246 0.76077 0.12398 0.35268 0.3002 0.37591 0.45754 0.06032 0.0831-0.16662 0.0788-0.22616-0.0246-0.34035-0.0691-0.07634-0.11331-0.24273-0.0986-0.37104 0.0232-0.20226 0.0654-0.23588 0.32376-0.25746 0.18696-0.01562 0.40821 0.03756 0.5967 0.14343 0.54 0.3033 0.78633 0.1869 0.78633-0.37156 0-0.31543-0.0198-0.34718-0.24588-0.3934-0.13523-0.02765-0.35652-0.07291-0.49175-0.10056-0.27793-0.05684-0.2856-0.07737-0.14343-0.38351 0.0654-0.14075 0.16745-0.22083 0.28202-0.22124 0.0988-0.000328 0.20237-0.03752 0.23022-0.0826 0.0279-0.04508 0.15695-0.08196 0.28686-0.08196s0.259-0.03688 0.28685-0.08196c0.0279-0.04508 0.16042-0.08196 0.29458-0.08196 0.24979 0 0.64795-0.20724 0.64795-0.33726 0-0.03989-0.16597-0.07253-0.36882-0.07253-0.20284 0-0.36881 0.03688-0.36881 0.08196 0 0.04889-0.31417 0.08196-0.77861 0.08196-0.42823 0-0.7786-0.03285-0.7786-0.073s-0.26739-0.09231-0.5942-0.1159c-0.32681-0.0236-0.79705-0.10549-1.045-0.182-0.24793-0.0765-0.54928-0.15719-0.66967-0.1793s-0.29404-0.11021-0.38588-0.19577c-0.0918-0.08556-0.19973-0.15557-0.23977-0.15557-0.11141 0-0.58035-0.24636-0.63392-0.33302-0.0261-0.04222-0.1013-0.07677-0.16713-0.07677-0.15628 0-0.92538-0.58642-0.93143-0.71019-0.002-0.05253-0.11532-0.19993-0.25055-0.32757s-0.24587-0.27434-0.24587-0.32601-0.0553-0.11518-0.12294-0.14112c-0.0676-0.02595-0.12294-0.10114-0.12294-0.1671 0-0.16203-0.76804-0.7048-0.99731-0.7048-0.0424 0-0.1949-0.11047-0.33896-0.2455-0.14406-0.13502-0.29532-0.24567-0.33614-0.24588-0.0408-0.000246-0.19511-0.09258-0.34286-0.20528-0.14775-0.11269-0.32641-0.2049-0.39704-0.2049-0.0706 0-0.1284-0.05532-0.1284-0.12294s-0.0565-0.12294-0.12551-0.12294c-0.069 0-0.14876-0.06058-0.17717-0.13462-0.0284-0.07404-0.20244-0.28896-0.38673-0.47759-0.51678-0.52897-0.70389-0.75524-0.70389-0.85122 0-0.04841-0.0738-0.12749-0.16392-0.17574-0.0959-0.0513-0.16391-0.17161-0.16391-0.28974 0-0.11111-0.0369-0.20201-0.082-0.20201-0.10181 0-0.10907-0.38336-0.008-0.44556 0.071-0.04387 0.91736 0.65278 0.98348 0.80949 0.0582 0.13785 0.5364 0.54936 0.7256 0.62437 0.10142 0.04021 0.1844 0.12311 0.1844 0.18422s0.10143 0.16278 0.22539 0.22592 0.41377 0.27222 0.64402 0.46462c0.23024 0.1924 0.44596 0.34982 0.47936 0.34982 0.0638 0 0.55891 0.20675 0.80153 0.33472 0.0783 0.04129 0.23285 0.07507 0.34349 0.07507 0.11065 0 0.22397 0.03688 0.25183 0.08196 0.0279 0.04508 0.22564 0.08196 0.43951 0.08196 0.41612 0 1.2406-0.34582 1.2406-0.52035 0-0.05274 0.0738-0.14196 0.16391-0.19826 0.0902-0.0563 0.16392-0.15738 0.16392-0.22461s0.0369-0.12224 0.082-0.12224 0.082-0.12908 0.082-0.28686c0-0.22931-0.0319-0.28686-0.15908-0.28686-0.0875 0-0.18187-0.03688-0.20974-0.08196-0.0279-0.04508-0.1385-0.08196-0.24587-0.08196s-0.21802-0.03688-0.24588-0.08196c-0.0279-0.04508-0.15912-0.08196-0.29169-0.08196-0.14165 0-0.24104-0.04341-0.24104-0.10528 0-0.05791-0.23973-0.19494-0.53273-0.30451-0.293-0.10958-0.53273-0.2375-0.53273-0.28429 0-0.04678-0.10142-0.18112-0.22538-0.29852-0.2861-0.27096-0.5942-0.84701-0.5942-1.1109 0-0.21112 0.0757-0.31368 0.39337-0.53305 0.17022-0.11754 0.17617-0.14245 0.0615-0.25716-0.22347-0.22347-0.15588-0.45229 0.17436-0.59027 0.20542-0.08583 0.32806-0.09923 0.3852-0.04208 0.0461 0.04611 0.18711 0.08384 0.31332 0.08384 0.12622 0 0.22949 0.03688 0.22949 0.08196s0.14535 0.08196 0.323 0.08196 0.34579 0.03688 0.37365 0.08196c0.0279 0.04508 0.25248 0.08196 0.49916 0.08196 0.35208 0 0.46003-0.03084 0.50213-0.14343 0.0897-0.24003 0.54318-0.5915 0.76491-0.59289 0.11495-0.000738 0.25326-0.04557 0.30735-0.09966 0.0765-0.0765 0.1202-0.0765 0.1967 0 0.0541 0.05409 0.17866 0.09835 0.27682 0.09835 0.20613 0 0.33899 0.13465 0.3639 0.36881 0.0343 0.32278-0.006 0.4188-0.29977 0.72171-0.16408 0.16893-0.28395 0.31538-0.26637 0.32544 0.31844 0.18234 0.44322 0.2232 0.68169 0.2232 0.15572 0 0.30592-0.03688 0.33378-0.08196 0.0279-0.04508 0.23071-0.08196 0.45077-0.08196 0.22007 0 0.42291-0.03688 0.45077-0.08196 0.0279-0.04508 0.14224-0.08196 0.25417-0.08196 0.3524 0 0.44236-0.15914 0.26672-0.47185-0.0836-0.14892-0.15207-0.35612-0.15207-0.46046 0-0.60226 1.1715-0.67547 1.3952-0.08719 0.06 0.15785 0.13468 0.19991 0.35485 0.19991 0.15337 0 0.32476-0.05532 0.38088-0.12294 0.0561-0.06762 0.14786-0.12294 0.20388-0.12294 0.056 0 0.19562-0.07376 0.31023-0.16392 0.36478-0.28693 0.79723-0.17562 0.79723 0.20521 0 0.17464-0.37045 0.56398-0.72837 0.76551-0.1076 0.06059-0.32079 0.18045-0.47375 0.26637-0.17047 0.09574-0.43678 0.15621-0.688 0.15621-0.27688 0-0.42424 0.03746-0.45416 0.11543-0.0244 0.06349-0.15229 0.16017-0.28429 0.21484-0.13199 0.05467-0.23998 0.13181-0.23998 0.17142s-0.0558 0.07201-0.12405 0.07201c-0.0682 0-0.1881 0.03235-0.26637 0.0719-0.38006 0.19201-0.80994 0.25594-1.721 0.25594-0.57381 0-1.0147-0.03461-1.044-0.08196-0.0279-0.04508-0.12224-0.08196-0.20973-0.08196-0.0875 0-0.15908-0.03688-0.15908-0.08196s-0.035-0.07274-0.0777-0.06147c-0.12699 0.03348-0.56508-0.29031-0.60636-0.44816-0.0315-0.12056-0.1289-0.14624-0.55811-0.14716-0.28595-0.000656-0.60661-0.02433-0.71259-0.0527-0.30695-0.08218-0.19187 0.23014 0.14722 0.39954 0.15505 0.07745 0.31352 0.19732 0.35216 0.26636 0.0386 0.06905 0.12375 0.12554 0.18912 0.12554 0.0654 0 0.11887 0.05265 0.11887 0.11699s0.0965 0.19293 0.21455 0.28576c0.118 0.09282 0.39951 0.33708 0.62556 0.5428 0.34796 0.31666 0.44689 0.36616 0.64495 0.32266 0.12867-0.02826 0.48337-0.04883 0.78822-0.04572 0.30486 0.0031 0.60961 0.0047 0.67723 0.0035 0.26042-0.0045 1.3696-0.15195 1.7211-0.22874 0.7264-0.15867 1.3572-0.27123 1.647-0.29388 0.16205-0.01267 0.41666-0.08391 0.56581-0.15832 0.14915-0.0744 0.35771-0.13528 0.46348-0.13528s0.19231-0.03688 0.19231-0.08196 0.068-0.08196 0.15121-0.08196c0.0832 0 0.21797-0.07376 0.29956-0.16392 0.0816-0.09015 0.21639-0.16392 0.29956-0.16392 0.0832 0 0.15121-0.03688 0.15121-0.08196s0.0569-0.08196 0.1264-0.08196 0.17094-0.03711 0.22538-0.08246c0.46947-0.39107 0.74738-0.67473 0.84456-0.86203 0.16116-0.31065 0.1403-1.246-0.0344-1.5429-0.16806-0.28554-0.70203-0.59027-1.0514-0.60004-0.32838-0.0092-0.67829-0.26122-0.68163-0.49098-0.002-0.12884 0.0938-0.22376 0.35113-0.34832 0.19454-0.09418 0.43315-0.17123 0.53024-0.17123 0.0971 0 0.30785-0.07376 0.46837-0.16392 0.16051-0.09015 0.33939-0.16392 0.3975-0.16392 0.0581 0 0.18584-0.0922 0.28382-0.2049l0.17816-0.2049h-0.19952c-0.10973 0-0.21904 0.03159-0.24291 0.07021-0.0239 0.03862-0.18279 0.06628-0.35316 0.06147-0.25471-0.0072-0.31438-0.04121-0.33573-0.1914-0.0251-0.17656 0.29891-0.59594 0.46042-0.59594 0.13763 0 0.56343-0.24456 0.71241-0.40918 0.0819-0.09049 0.20772-0.16538 0.27962-0.16643 0.0719-0.001 0.27616-0.13285 0.45392-0.29291 0.17776-0.16005 0.41749-0.3716 0.53273-0.47011 0.20418-0.17453 0.4763-0.6075 0.40772-0.64875-0.40412-0.24306-0.67882-0.29414-0.7719-0.14355-0.0279 0.04508-0.12223 0.08196-0.20973 0.08196s-0.15908 0.03688-0.15908 0.08196c0 0.15742-0.62217 0.09091-0.77988-0.08337-0.14582-0.16113-0.14367-0.17154 0.0846-0.40979 0.12881-0.13445 0.28424-0.24446 0.34539-0.24446 0.0611 0 0.21062-0.0922 0.33215-0.2049 0.12154-0.11269 0.2662-0.2049 0.32149-0.2049 0.17063-0.000002 1.5813-1.2895 1.5813-1.4455 0-0.06145 0.0369-0.11172 0.082-0.11172s0.082-0.04718 0.082-0.10484 0.0738-0.15801 0.16391-0.22299c0.0902-0.06498 0.16392-0.18376 0.16392-0.26397 0-0.0802 0.0369-0.14582 0.082-0.14582s0.082-0.06641 0.082-0.14758c0-0.19364 0.18521-0.5886 0.2764-0.58941 0.0393-0.000328 0.0252-0.05642-0.0314-0.12459-0.0782-0.09428-0.12969-0.10168-0.21493-0.03094-0.0616 0.05115-0.11453 0.13459-0.11754 0.18542-0.006 0.10451-1.0854 1.0349-1.2004 1.0349-0.041 0-0.15333 0.07336-0.24957 0.16302-0.0962 0.08966-0.37059 0.25699-0.60966 0.37183-0.23907 0.11485-0.54531 0.27852-0.68054 0.36372-0.13524 0.0852-0.32774 0.1576-0.42779 0.1609-0.10006 0.0033-0.31325 0.07975-0.47376 0.16991-0.16051 0.09015-0.3623 0.16392-0.44843 0.16392-0.0861 0-0.17938 0.03688-0.20724 0.08196-0.0279 0.04508-0.15694 0.08196-0.28685 0.08196s-0.259 0.03688-0.28686 0.08196c-0.0279 0.04508-0.28083 0.08196-0.56215 0.08196-0.28133 0-0.54654 0.03401-0.58936 0.07557-0.0832 0.08073-0.4498 0.11609-2.5776 0.24861-0.74378 0.04632-1.4592 0.12142-1.5899 0.16687-0.13069 0.04546-0.43279 0.08265-0.67132 0.08265-0.23854 0-0.4565 0.03688-0.48436 0.08196-0.0279 0.04508-0.19383 0.08196-0.36882 0.08196-0.17498 0-0.34095 0.03688-0.36881 0.08196-0.0279 0.04508-0.17538 0.08196-0.32784 0.08196-0.15244 0-0.29997 0.03688-0.32783 0.08196-0.0279 0.04508-0.13693 0.08196-0.24239 0.08196-0.18128 0-0.7165 0.25294-1.3558 0.64075-0.15777 0.0957-0.41594 0.23002-0.57371 0.29848s-0.34218 0.16264-0.40979 0.2093c-0.0676 0.04666-0.30735 0.17183-0.53273 0.27816-0.22539 0.10634-0.48006 0.27141-0.56593 0.36683-0.0859 0.09542-0.20055 0.17349-0.25485 0.17349-0.082 0-0.62195 0.24417-1.2863 0.58169-0.077 0.03914-0.4274 0.13056-0.7786 0.20316-0.84336 0.17434-1.746 0.12887-2.2316-0.1124-0.20004-0.09938-0.39631-0.1807-0.43613-0.1807-0.0934 0-0.30659-0.21268-0.30659-0.30588 0-0.06368-0.48163-0.51515-1.0655-0.99873-0.6165-0.51063-0.81959-0.70111-0.81959-0.76866 0-0.08578-0.35425-0.37883-0.63507-0.52536-0.12362-0.0645-0.25276-0.07343-0.37142-0.02569l-0.18191 0.0732 0.18441 0.0052c0.12803 0.0036 0.1844 0.0553 0.1844 0.16911 0 0.09015 0.0369 0.16392 0.082 0.16392s0.082 0.03951 0.082 0.08781c0 0.12874-0.21493 0.32198-0.35812 0.32198-0.0682 0-0.14683 0.03702-0.17479 0.08226-0.028 0.04524-0.14731 0.05805-0.26521 0.02845l-0.21438-0.0538 0.17842 0.25056c0.0981 0.13781 0.17841 0.32568 0.17841 0.41748 0 0.09181 0.0369 0.18971 0.082 0.21757s0.082 0.15694 0.082 0.28686c0 0.12991 0.0369 0.259 0.082 0.28686s0.082 0.28603 0.082 0.57371-0.0369 0.54585-0.082 0.57371c-0.0461 0.02851-0.082 0.42269-0.082 0.90154 0 0.50955-0.0348 0.87237-0.0866 0.90444-0.0969 0.05988-0.0753 1.0131 0.0243 1.0747 0.0343 0.02117 0.0623 0.2945 0.0623 0.60738 0 0.32461 0.0352 0.56887 0.082 0.56887 0.0451 0 0.082 0.09003 0.082 0.20006s0.0369 0.22285 0.082 0.25071 0.082 0.11652 0.082 0.19703 0.0738 0.21313 0.16391 0.29472c0.0902 0.08159 0.16392 0.19795 0.16392 0.25858s0.0369 0.11024 0.082 0.11024 0.082 0.04923 0.082 0.10939c0 0.12952 0.42057 0.51973 0.67889 0.62989 0.0999 0.04261 0.3292 0.16883 0.50951 0.28049s0.44434 0.26243 0.58675 0.33505c0.1424 0.07262 0.3233 0.20319 0.402 0.29016 0.0787 0.08696 0.18348 0.1582 0.23284 0.15831 0.0494 0.000082 0.21883 0.11066 0.3766 0.24568s0.32798 0.24558 0.37825 0.24568c0.0503 0.000082 0.19598 0.08246 0.32379 0.183 0.12782 0.10054 0.40018 0.26276 0.60526 0.36048 0.20507 0.09772 0.47266 0.27363 0.59466 0.39091s0.27303 0.21323 0.33562 0.21323c0.0626 0 0.18057 0.07376 0.26216 0.16392 0.0816 0.09015 0.19511 0.16392 0.25229 0.16392 0.0572 0 0.2082 0.08685 0.33562 0.193s0.32914 0.24445 0.44827 0.30734c0.22358 0.11804 1.1066 0.87116 1.4129 1.2051 0.0955 0.10407 0.2863 0.30692 0.42406 0.45077 0.13777 0.14386 0.30368 0.3722 0.36868 0.50743s0.16188 0.27398 0.21527 0.30833c0.0534 0.03435 0.14809 0.16344 0.21045 0.28686 0.15125 0.29938 0.3388 0.62458 0.38939 0.67517 0.0709 0.07094 0.47444 0.8334 0.82407 1.5572 0.18509 0.38316 0.37044 0.76069 0.4119 0.83896 0.0414 0.07827 0.0754 0.21658 0.0754 0.30734 0 0.09077 0.0277 0.16532 0.0615 0.16567 0.0669 0.000738 0.26637 0.392 0.26637 0.52266 0 0.06941 0.31962 0.4602 0.37639 0.4602 0.011 0 0.0783-0.02239 0.14964-0.04975zm-6.3451-14.366c0-0.04982-0.10847-0.09059-0.24104-0.09059s-0.26383-0.03688-0.29169-0.08196c-0.0279-0.04508-0.15912-0.08196-0.29169-0.08196s-0.24104-0.03688-0.24104-0.08196-0.0558-0.08196-0.12405-0.08196c-0.0682 0-0.18809-0.03509-0.26637-0.07799-0.0783-0.04289-0.2714-0.13519-0.42917-0.2051s-0.40471-0.23766-0.54877-0.37278-0.31925-0.24568-0.38931-0.24568c-0.0701 0-0.12738-0.05225-0.12738-0.11611s-0.0461-0.13364-0.10245-0.15508c-0.0683-0.02598-0.0279-0.11079 0.12125-0.25446 0.16797-0.16181 0.25985-0.19702 0.36882-0.14134 0.0798 0.04078 0.25576 0.12279 0.39099 0.18224s0.33808 0.18636 0.45077 0.28202 0.42618 0.24031 0.69665 0.32146c0.27046 0.08114 0.55579 0.17983 0.63406 0.2193 0.0783 0.03947 0.26973 0.07176 0.42545 0.07176s0.30593 0.03688 0.33378 0.08196c0.0833 0.13484 1.7234 0.10443 1.8384-0.03409 0.0769-0.09262 0.0627-0.1267-0.07-0.16883-0.25216-0.08004-0.6619-0.62274-0.6619-0.87671 0-0.26673 0.68272-0.96445 0.94663-0.96744 0.0924-0.001 0.21299-0.04688 0.26796-0.10185 0.0679-0.06795 0.53905-0.10991 1.4712-0.13105 0.75416-0.0171 1.4062-0.06433 1.4491-0.10494 0.0428-0.04062 0.14425-0.07385 0.22539-0.07385 0.0811 0 0.14753-0.03688 0.14753-0.08196s0.11064-0.08196 0.24587-0.08196 0.24588-0.03688 0.24588-0.08196 0.18223-0.08196 0.40495-0.08196c0.22273 0 0.42775-0.03688 0.45561-0.08196 0.0279-0.04508 0.12224-0.08196 0.20974-0.08196 0.23796 0 0.19316-0.1497-0.13119-0.43834-0.1613-0.14354-0.30014-0.35089-0.31248-0.46668-0.0122-0.1146-0.052-0.25663-0.0885-0.31561-0.0871-0.14098 0.22099-0.44999 0.4654-0.46675 0.10167-0.007 0.24835-0.03941 0.32596-0.07207 0.0965-0.0406 0.23854 0.02091 0.44896 0.19436 0.16932 0.13956 0.35477 0.25375 0.41211 0.25375 0.0573 0 0.10427 0.05532 0.10427 0.12294s0.0369 0.12294 0.082 0.12294 0.082 0.0494 0.082 0.10978c0 0.21054 0.38283 0.30316 0.93175 0.22543 0.66807-0.09461 1.1796-0.3318 1.6866-0.78216 0.79698-0.70783 1.2492-0.77462 1.2994-0.19193 0.0223 0.25881-0.0203 0.3259-0.43289 0.68209-0.44181 0.3814-0.68503 0.55045-0.94415 0.6562-0.0676 0.0276-0.18698 0.08436-0.26525 0.12615-0.0783 0.04179-0.21441 0.07598-0.30251 0.07598s-0.18299 0.03688-0.21085 0.08196c-0.0279 0.04508-0.19382 0.08196-0.36881 0.08196s-0.34095 0.03688-0.36881 0.08196c-0.0704 0.11395-0.47916 0.10275-0.5983-0.01639-0.0765-0.0765-0.12021-0.0765-0.1967 0-0.0541 0.05409-0.19519 0.09835-0.31355 0.09835-0.12606 0-0.2975 0.08818-0.41389 0.21287-0.10928 0.11708-0.337 0.2838-0.50604 0.37048-0.30196 0.15485-0.40654 0.31758-0.2049 0.31882 0.15368 0.000951 0.47127 0.61017 0.47127 0.90401 0 0.27708-0.25795 0.56305-0.51224 0.56788-0.0789 0.0015-0.14343 0.03961-0.14343 0.08469 0 0.10434-0.77515 0.10753-0.96413 0.004-0.0783-0.04289-0.28984-0.13886-0.47015-0.21325-0.64379-0.26563-0.68336-0.29876-0.79061-0.66198l-0.10574-0.35811h-0.82878c-0.6992 0-0.88541 0.02897-1.191 0.18529-0.57617 0.29474-0.58798 0.3055-0.4791 0.4367 0.0741 0.08929 0.35283 0.11564 1.2233 0.11564 0.84119 0 1.1504 0.02782 1.2183 0.10961 0.11455 0.13802-0.11222 0.35107-0.6651 0.62489-0.21412 0.10604-0.3893 0.22389-0.3893 0.26188s-0.0681 0.06907-0.15122 0.06907c-0.0832 0-0.21796 0.07376-0.29955 0.16392-0.0816 0.09016-0.2511 0.16392-0.37668 0.16392-0.12559 0-0.2485 0.03263-0.27315 0.07251-0.073 0.1182-0.50889 0.17281-1.7884 0.22411-0.85728 0.03437-1.2089 0.02212-1.2089-0.04212zm6.9665-2.0433c-0.1127-0.01549-0.23994-0.06193-0.28276-0.10319-0.0428-0.04126-0.13032-0.07502-0.19444-0.07502-0.0922 0-0.0961 0.02471-0.0186 0.11802 0.11058 0.13324 0.39358 0.19802 0.57779 0.13225 0.0809-0.02887 0.0528-0.05353-0.082-0.07206zm-46.02 15.968c0.0279-0.04508 0.12224-0.08196 0.20974-0.08196s0.15908-0.03937 0.15908-0.08748c0-0.05247-0.0738-0.06535-0.18441-0.03218-0.21797 0.06536-0.47171 0.28358-0.32974 0.28358 0.0521 0 0.11747-0.03688 0.14533-0.08196zm1.3892-0.41978c0.0428-0.03959 0.19739-0.07197 0.34349-0.07197 0.14609 0 0.28842-0.03688 0.31628-0.08196 0.0279-0.04508 0.196-0.08196 0.37365-0.08196s0.323-0.03495 0.323-0.07768c0-0.04272 0.19362-0.09122 0.43028-0.10778 0.27284-0.01909 0.15143-0.03565-0.33179-0.04526-0.61588-0.01225-0.82717 0.01629-1.1014 0.14876-0.1866 0.09015-0.40393 0.16392-0.48295 0.16392-0.079 0-0.16649 0.03688-0.19434 0.08196-0.0279 0.04508-0.13851 0.08196-0.24588 0.08196s-0.21517 0.03228-0.23955 0.07172c-0.0565 0.09145 0.70502 0.01455 0.80916-0.08171zm-2.4956-0.03099c0.0826-0.09948 0.0798-0.12294-0.0146-0.12294-0.0641 0-0.15162 0.03376-0.19444 0.07502-0.0428 0.04126-0.17006 0.09156-0.28276 0.11178-0.15431 0.02768-0.1315 0.03951 0.0924 0.04792 0.17611 0.0066 0.3389-0.03895 0.39934-0.11178zm47.7-0.5027c0-0.10343-0.4543-0.43962-0.5942-0.43972-0.36626-0.000246 0.10071 0.46048 0.49175 0.48518 0.0563 0.0036 0.10245-0.0169 0.10245-0.04546zm-35.459-0.22667c0.14205-0.06308 0.37813-0.16428 0.52463-0.2249s0.27073-0.16576 0.27608-0.23364c0.011-0.13956-0.0148-0.35831-0.0461-0.39104-0.0557-0.0583-0.54452 0.21795-0.84997 0.48038-0.49926 0.42892-0.45192 0.61222 0.0953 0.36921zm-14.073-0.17167 0.23475-0.12243-0.30734-0.000492c-0.21878-0.000382-0.30735 0.03491-0.30735 0.12242 0 0.15474 0.084 0.15485 0.37994 0.000492zm6.8324-6.1474c0.0878-0.10585 0.0557-0.12294-0.23101-0.12294-0.31998 0-0.47809 0.08317-0.3678 0.19346 0.0991 0.09912 0.4969 0.05227 0.59881-0.07053zm31.042-0.47037c0.28169-0.09602 0.59519-0.26325 0.69665-0.37161l0.18448-0.19703-0.24588-0.19723c-0.13523-0.10848-0.27694-0.19741-0.31491-0.19763-0.0879-0.000492-0.34558-0.20377-1.0264-0.80968-0.29903-0.26612-0.69854-0.60781-0.88779-0.75932s-0.346-0.31948-0.34832-0.37327c-0.002-0.05379-0.0688-0.14599-0.14766-0.2049-0.0789-0.0589-0.19742-0.21774-0.26341-0.35297-0.066-0.13523-0.18586-0.34377-0.26637-0.46342-0.0885-0.1316-0.14638-0.36866-0.14638-0.60005 0-0.23073-0.0488-0.43129-0.12294-0.50544-0.0835-0.08349-0.12294-0.29011-0.12294-0.64396s0.0394-0.56047 0.12294-0.64396c0.0929-0.09287 0.12294-0.32317 0.12294-0.94151v-0.81857l-0.24588-0.10884c-0.13523-0.05986-0.24587-0.13671-0.24587-0.17079 0-0.03407-0.0716-0.06195-0.15908-0.06195-0.0875 0-0.17893-0.03212-0.20319-0.07137-0.0243-0.03925-0.1592-0.09439-0.29986-0.12252s-0.36716-0.14491-0.50335-0.2595c-0.13618-0.11459-0.36302-0.25937-0.50408-0.32173-0.14105-0.06236-0.4962-0.33933-0.7892-0.61548s-0.68948-0.61727-0.88105-0.75804c-0.19158-0.14077-0.34833-0.30174-0.34833-0.3577 0-0.05597-0.10142-0.18836-0.22538-0.2942-0.12397-0.10584-0.28046-0.30275-0.34777-0.43757-0.0673-0.13482-0.18717-0.30478-0.26636-0.37768-0.0792-0.0729-0.14399-0.19766-0.14399-0.27724s-0.0767-0.2112-0.1704-0.29248-0.18015-0.19625-0.19208-0.25549c-0.0714-0.35468-0.15808-0.55199-0.2596-0.59095-0.0636-0.02438-0.11637-0.12848-0.11737-0.23132s-0.0739-0.27918-0.16209-0.39188c-0.0881-0.11269-0.16109-0.26726-0.1621-0.34349-0.001-0.07623-0.0387-0.16138-0.0838-0.18924s-0.082-0.14068-0.082-0.25071-0.0369-0.20006-0.082-0.20006-0.0819-0.12908-0.0819-0.28685-0.0369-0.28686-0.082-0.28686-0.082-0.12691-0.082-0.28202-0.033-0.3024-0.0733-0.32732-0.0942-0.18384-0.11979-0.35316c-0.11321-0.74964-0.15911-0.9227-0.26888-1.0138-0.15182-0.126-0.35127 0.11823-0.35501 0.43474-0.001 0.1213-0.0395 0.24334-0.0846 0.2712s-0.082 0.15174-0.082 0.2753-0.0354 0.26004-0.0787 0.30329c-0.0433 0.04326-0.0855 0.32839-0.0939 0.63363-0.008 0.30524-0.0468 0.57446-0.0853 0.59825-0.0905 0.05596-0.091 0.42072-0.00054 0.4766 0.0801 0.04953 0.10895 0.51381 0.045 0.7249-0.0558 0.18403-0.62183 0.1991-0.77005 0.02049-0.0561-0.06762-0.20598-0.12294-0.33304-0.12294-0.12705 0-0.2538-0.03688-0.28165-0.08196-0.0687-0.11116-0.49301-0.10363-0.71826 0.01274-0.10081 0.05208-0.23861 0.12039-0.30623 0.1518-0.0676 0.03141-0.13528 0.14554-0.15036 0.25363-0.0151 0.10809-0.0612 0.23156-0.10245 0.27439-0.10283 0.10672-0.0965 1.2745 0.007 1.2745 0.0451 0 0.082 0.06641 0.082 0.14758 0 0.18315 0.18321 0.58854 0.26637 0.58941 0.0338 0.000328 0.0615 0.07276 0.0615 0.16092 0 0.14172 0.25644 0.60235 0.4906 0.88124 0.0457 0.05444 0.0831 0.13171 0.0831 0.1717s0.0738 0.13947 0.16392 0.22106c0.0901 0.08159 0.16391 0.19795 0.16391 0.25858s0.0369 0.11024 0.082 0.11024 0.082 0.05264 0.082 0.11697 0.13749 0.2303 0.30553 0.36881c0.29072 0.23964 0.34108 0.25184 1.0392 0.25184 0.68279 0 1.1457 0.0822 1.4419 0.25607 0.0676 0.03968 0.20592 0.10803 0.30735 0.15189 0.12186 0.05269 0.1844 0.15029 0.1844 0.28777 0 0.11442 0.0437 0.27806 0.0972 0.36364 0.0813 0.13022 0.0606 0.20358-0.12711 0.44966-0.20347 0.26677-0.26147 0.29405-0.62507 0.29405-0.22043 0-0.42095-0.03263-0.44559-0.0725-0.0247-0.03988-0.21037-0.09733-0.41272-0.12767s-0.38939-0.08992-0.41564-0.1324c-0.0263-0.04247-0.17071-0.07722-0.321-0.07722-0.28845 0-0.45197 0.19944-0.29348 0.35793 0.0466 0.04655 0.0847 0.13979 0.0847 0.2072 0 0.15546 0.40426 0.58229 0.55149 0.58229 0.0611 0 0.19247 0.0762 0.29201 0.16932 0.0995 0.09313 0.31007 0.22531 0.46784 0.29374s0.34339 0.15351 0.41248 0.18907c0.0691 0.03556 0.24386 0.09061 0.38836 0.12235 0.14451 0.03174 0.28378 0.09175 0.3095 0.13336 0.0257 0.04161 0.15522 0.07565 0.28779 0.07565s0.24104 0.03688 0.24104 0.08196 0.12342 0.08196 0.27426 0.08196c0.44524 0 0.7912 0.21569 0.7912 0.49328 0 0.17572-0.0569 0.26267-0.22438 0.34294-0.12342 0.05915-0.2374 0.1751-0.2533 0.25766-0.0357 0.18544 0.28895 0.54528 0.49197 0.54528 0.0823 0 0.14963 0.03688 0.14963 0.08196s0.0716 0.08196 0.15908 0.08196c0.0875 0 0.18187 0.03688 0.20973 0.08196 0.0279 0.04508 0.26239 0.08196 0.52118 0.08196 0.49935 0 0.66762 0.09206 0.66658 0.36472-0.00082 0.22421-0.33824 0.37226-0.85577 0.37552-0.47406 0.003-0.7008 0.13639-0.7008 0.41232 0 0.1833 0.44607 0.73249 0.59495 0.73249 0.0391 0 0.29923 0.10702 0.57812 0.23782 0.29511 0.13841 0.70948 0.2564 0.99127 0.28227 0.41161 0.03778 0.53799 0.01442 0.84299-0.15586 0.27629-0.15425 0.4795-0.20031 0.88377-0.20031 0.28874 0 0.54778 0.03688 0.57564 0.08196 0.0279 0.04508 0.138 0.08196 0.24476 0.08196 0.11109 0 0.26532 0.09053 0.3606 0.21166 0.26947 0.34257 0.2912 0.51807 0.0906 0.73159l-0.18006 0.19167 0.2338 0.03567c0.40944 0.06247 1.1191-0.02656 1.6475-0.20667zm-4.1154-3.9916c-0.0295-0.04772-0.14705-0.08676-0.26124-0.08676s-0.3014-0.07376-0.41601-0.16392c-0.11461-0.09015-0.27199-0.16392-0.34972-0.16392-0.0777 0-0.30326-0.12873-0.50119-0.28606-0.19792-0.15733-0.40596-0.28642-0.4623-0.28686-0.0564-0.00041-0.10245-0.05581-0.10245-0.12304s-0.0738-0.16831-0.16392-0.22461c-0.0901-0.0563-0.16391-0.14797-0.16391-0.2037s-0.0922-0.16175-0.2049-0.23559c-0.11269-0.07384-0.2049-0.20204-0.2049-0.28489 0-0.1949-0.17017-0.56814-0.25903-0.56814-0.0378 0-0.0688-0.27711-0.0688-0.6158s-0.0326-0.67984-0.0724-0.75812c-0.0398-0.07827-0.12255-0.25296-0.18384-0.38819-0.0613-0.13523-0.17963-0.30846-0.26297-0.38495-0.0861-0.07904-0.12517-0.1817-0.0905-0.23782 0.0336-0.05438 0.008-0.13918-0.0574-0.18876-0.0651-0.04951-0.18099-0.22381-0.25749-0.38734s-0.2289-0.35617-0.33867-0.4281c-0.10978-0.07193-0.22138-0.1963-0.248-0.27639-0.0266-0.08009-0.16773-0.20348-0.31356-0.27421-0.14584-0.07073-0.29807-0.20092-0.33829-0.28932-0.0402-0.08839-0.19661-0.25181-0.34751-0.36315-0.30625-0.22597-0.32816-0.43479-0.0498-0.4745 0.10097-0.0144 0.18357-0.06051 0.18357-0.10245 0-0.13785 0.29938-0.07963 0.45077 0.08766 0.0816 0.09015 0.21209 0.16392 0.29 0.16392 0.0779 0 0.15985 0.06955 0.18208 0.15456 0.0222 0.08501 0.32146 0.38523 0.66495 0.66715s0.6747 0.60884 0.73602 0.72649c0.25009 0.47981 0.49125 0.96326 0.57686 1.1564 0.13999 0.31587 0.26221 0.40979 0.53323 0.40979 0.13708 0 0.38057 0.07376 0.54108 0.16392 0.16051 0.09015 0.33682 0.1649 0.3918 0.16611 0.12468 0.0027 0.72018 0.5575 0.85807 0.79938 0.0563 0.09884 0.10245 0.23721 0.10245 0.30749 0 0.19371-0.37731 0.53012-0.59457 0.53012-0.10573 0-0.23233 0.0401-0.28133 0.0891-0.0642 0.06416-0.10452 0.06416-0.14417 0-0.0303-0.049-0.18198-0.0891-0.33708-0.0891-0.24412 0-0.28202 0.0268-0.28202 0.19941 0 0.13935 0.11726 0.29364 0.3893 0.51224 0.21412 0.17206 0.4016 0.34049 0.41662 0.3743 0.015 0.03381 0.0864 0.06147 0.15864 0.06147 0.0722 0 0.20745 0.06761 0.30051 0.15025 0.0931 0.08264 0.34226 0.21396 0.55377 0.29183 0.38549 0.14191 0.80383 0.41863 0.80383 0.53171 0 0.24322-0.65754 0.53344-0.77564 0.34235zm-1.4372-3.3651c0-0.04508-0.10143-0.08139-0.22539-0.0807-0.17563 0.000976-0.19824 0.01879-0.10245 0.0807 0.16036 0.10363 0.32784 0.10363 0.32784 0zm14.998 4.3848c-0.0561-0.06762-0.15429-0.12294-0.21817-0.12294-0.0954 0-0.0973 0.02135-0.0105 0.11982 0.14902 0.16896 0.36874 0.17196 0.22862 0.0031zm-0.4098-0.28801c0-0.15807-0.53315-0.56775-0.73762-0.56679-0.19288 0.000902-0.18386 0.01998 0.15397 0.32543 0.34781 0.31448 0.58365 0.41201 0.58365 0.24136zm-25.214-2.2313c-0.0852-0.13781-0.19279-0.04951-0.19279 0.15819 0 0.20998 0.006 0.21297 0.11567 0.06237 0.0636-0.087 0.0983-0.18626 0.0771-0.22056zm7.0931-2.3061c0.15348-0.18493-0.36984-0.38071-0.98749-0.36942-0.28619 0.0052-0.4558 0.02637-0.37691 0.04699 0.0789 0.02061 0.14342 0.07166 0.14342 0.11343s0.0511 0.07595 0.11357 0.07595c0.0625 0 0.21921 0.05509 0.34833 0.12243 0.29416 0.15342 0.6366 0.15821 0.75908 0.01062zm25.051 14.463c-0.0264-0.0427-0.013-0.09922 0.0297-0.12561s0.0992-0.01304 0.12561 0.02965c0.0264 0.0427 0.0131 0.09922-0.0297 0.12561-0.0427 0.02639-0.0992 0.01305-0.12561-0.02965zm-21.834-0.90445c0.018-0.05409 0.0595-0.09558 0.0922-0.0922 0.098 0.01014 0.079 0.12255-0.0266 0.15777-0.0541 0.01803-0.0836-0.01147-0.0656-0.06557z"/>
 </g>
</svg>
