<?xml version="1.0" encoding="UTF-8" standalone="no"?>
<!-- Created with Inkscape (http://www.inkscape.org/) -->
<svg id="svg2" xmlns:rdf="http://www.w3.org/1999/02/22-rdf-syntax-ns#" xmlns="http://www.w3.org/2000/svg" height="54" width="99" version="1.1" xmlns:cc="http://creativecommons.org/ns#" xmlns:dc="http://purl.org/dc/elements/1.1/">
 <metadata id="metadata7">
  <rdf:RDF>
   <cc:Work rdf:about="">
    <dc:format>image/svg+xml</dc:format>
    <dc:type rdf:resource="http://purl.org/dc/dcmitype/StillImage"/>
    <dc:title/>
   </cc:Work>
  </rdf:RDF>
 </metadata>
 <g id="g47545">
  <rect id="rect2990" opacity="0" height="54" width="99" y="0" x="0"/>
  <path id="path7391" d="m49.242 48.848c-0.6091-0.41374-1.0236-0.59325-1.1662-0.50509-0.1413 0.08732-0.46329-0.0412-0.89067-0.3555-0.36815-0.27074-0.76769-0.49226-0.88785-0.49226-0.12017 0-0.21849-0.08353-0.21849-0.18562s-0.12113-0.13914-0.26918-0.08232c-0.16142 0.06194-0.54386-0.0987-0.95528-0.40126-0.37734-0.2775-0.74733-0.50455-0.82218-0.50455-0.0748 0-0.45002-0.2274-0.8337-0.50534-0.45796-0.33174-0.80876-0.47006-1.0212-0.40265-0.21299 0.0676-0.57082-0.07488-1.0471-0.41689-0.39793-0.28577-0.7938-0.51959-0.87972-0.51959-0.23864 0-0.71121-0.58048-0.71121-0.87362 0-0.2861-1.0204-1.136-1.3722-1.1429-0.2537-0.005-0.80767-1.1145-0.80767-1.6176 0-0.34694-0.47926-0.89329-0.7836-0.89329-0.0937 0-0.38203-0.18192-0.64079-0.40427s-0.5667-0.36734-0.68432-0.32221c-0.11761 0.04513-0.34583-0.11938-0.50715-0.36558s-0.46876-0.51435-0.6832-0.59588c-0.26667-0.10139-0.38989-0.28269-0.38989-0.57367 0-0.33107 0.19948-0.55304 0.89937-1.0007l0.89937-0.57532-0.0852-1.6289-0.0852-1.6289 0.56239-0.459c0.48762-0.39798 0.53246-0.49507 0.33722-0.73031-0.12384-0.14922-0.34715-0.25145-0.49624-0.22718-0.2084 0.03393-0.28313-0.12349-0.32323-0.6809-0.0287-0.39877 0.0292-0.82313 0.12875-0.94303 0.0995-0.1199 0.82856-0.46243 1.6201-0.76118 1.6317-0.61585 1.747-0.58368 2.1569 0.60204 0.17758 0.51369 0.30068 0.64222 0.57559 0.60098 0.23018-0.03453 0.3497 0.0389 0.3497 0.21486 0 0.14703 0.10956 0.30936 0.24347 0.36075 0.13421 0.0515 0.29325 0.42539 0.3544 0.83313 0.0871 0.58093 0.18045 0.73971 0.43484 0.73971 0.27878 0 0.30872 0.081 0.21487 0.58125-0.0791 0.42159-0.0351 0.65518 0.16009 0.85038 0.14802 0.14802 0.27028 0.43351 0.27169 0.63443 0.006 0.91048 0.26767 0.8167 1.5642-0.56148 0.70611-0.7506 1.2838-1.462 1.2838-1.5809 0-0.12057-0.28123-0.26114-0.63591-0.31786-0.59084-0.09448-1.0236-0.43249-1.7034-1.3303-0.12459-0.16456-0.31487-0.69274-0.42286-1.1738-0.16315-0.72677-0.2945-0.93124-0.77727-1.2099-0.31952-0.18445-0.76355-0.46656-0.98674-0.62692-0.39727-0.28543-0.39893-0.29658-0.0789-0.53056 0.17978-0.13145 0.33477-0.3398 0.34444-0.463 0.01-0.1232 0.0291-0.39189 0.0431-0.59708 0.022-0.32177 0.0947-0.35926 0.52816-0.27256 0.57093 0.11419 1.0065-0.15672 1.0065-0.62602 0-0.22211-0.19932-0.35986-0.71263-0.49249-0.39195-0.10127-0.86355-0.22491-1.048-0.27476-0.65369-0.17666-1.5731-0.93274-1.7495-1.4386-0.2453-0.70367-0.24295-0.71358 0.3197-1.3544 0.63125-0.71895 2.0884-1.3665 3.651-1.6225 0.66829-0.10947 1.2512-0.25753 1.2954-0.32902 0.23568-0.38133-0.98622-5.0182-2.1215-8.0506-0.83915-2.2415-0.84326-2.262-0.55823-2.7912 0.82178-1.526 3.6137-3.1871 6.6249-3.9416 1.4352-0.35964 1.9333-0.39746 5.0304-0.38199 3.3861 0.01691 3.4606 0.02499 4.9863 0.54104 2.7249 0.92162 4.0268 1.7518 3.8236 2.438-0.33589 1.1338-0.57139 2.1784-0.74214 3.2918-0.10607 0.69168-0.26899 1.7481-0.36204 2.3475-0.23993 1.5457-0.3822 6.243-0.19711 6.5081 0.12298 0.17616 0.45204 0.11438 1.6464-0.30911 2.3724-0.84119 2.8822-0.94094 3.1975-0.62564 0.17788 0.17788 0.23105 0.41025 0.1593 0.69615-0.14322 0.57062-1.3082 1.7456-2.4577 2.4788-1.1357 0.7244-1.6257 1.1763-2.3137 2.134-0.59504 0.82827-0.7149 1.5855-0.2366 1.4948 0.17698-0.03356 0.31449-0.23808 0.34649-0.51533 0.0618-0.53528 0.35793-0.61115 0.48523-0.12433 0.0482 0.18445 0.19209 0.33536 0.31967 0.33536 0.12757 0 0.23196 0.06998 0.23196 0.15551 0 0.25174-0.85509 0.85057-1.2146 0.85057-0.27319 0-0.31171 0.07655-0.2208 0.43876 0.30606 1.2195 0.28863 1.3737-0.30885 2.7326-0.33182 0.7547-0.60331 1.4981-0.60331 1.6519 0 0.15386-0.19943 1.061-0.44317 2.0158-0.41066 1.6087-0.42697 1.8035-0.22233 2.6566 0.19782 0.82462 0.30019 0.96755 0.98239 1.3716 0.41886 0.2481 1.0631 0.56535 1.4316 0.70502 0.55413 0.21 0.69057 0.35415 0.78852 0.83308 0.0651 0.31853 0.047 0.71274-0.0404 0.87602-0.21471 0.40119-0.0893 1.4718 0.19286 1.6462 0.17203 0.10632 0.0149 0.34704-0.64233 0.98382-0.47855 0.46368-1.0029 1.0589-1.1652 1.3227-0.1623 0.26381-0.57087 0.80025-0.90796 1.1921l-0.61287 0.71245 0.0617-1.1949c0.0645-1.2493-0.29038-2.5365-0.90206-3.2717-0.18267-0.21958-0.10739-0.19064 0.21804 0.08384 0.27337 0.23056 0.59111 0.53238 0.70611 0.67072 0.17533 0.21093 0.20994 0.15857 0.21441-0.32446 0.003-0.33915-0.23598-1.0423-0.58155-1.71-0.35194-0.68009-0.58013-1.3557-0.57003-1.6877l0.0168-0.55363 0.14836 0.62948c0.21785 0.92434 0.90815 2.1878 1.3371 2.4473 0.36788 0.22254 0.37239 0.21472 0.27889-0.48247-0.0531-0.39554-0.31646-1.017-0.59613-1.4064-0.29195-0.40652-0.57206-1.08-0.67116-1.6135-0.0935-0.50368-0.25282-1.1324-0.35395-1.3971-0.12401-0.32462-0.13117-0.6522-0.022-1.0061 0.089-0.2886 0.32214-1.0357 0.518-1.6603 0.23936-0.76323 0.34333-1.4884 0.31711-2.2117-0.0343-0.94532 0.0164-1.1487 0.41665-1.6735 0.69347-0.90918 0.82208-1.4305 0.6211-2.5177-0.2247-1.2155-0.86018-1.8804-1.1286-1.1809-0.11543 0.3008-0.58604 0.32976-0.86271 0.0531-0.34364-0.34364-0.42674-0.0048-0.14461 0.5898 0.14904 0.31408 0.34829 1.1161 0.44277 1.7823 0.27735 1.9555-0.27609 2.5917-1.6327 1.8768-0.34658-0.18264-0.78105-0.38972-0.9655-0.46019-0.31094-0.11878-0.30501-0.13329 0.0814-0.19929 0.22924-0.03915 0.66875 0.0645 0.97669 0.23034 0.42385 0.22826 0.62813 0.2574 0.84079 0.11994 0.45458-0.29384 0.30633-2.5308-0.23905-3.6071-0.29463-0.58142-0.39125-0.9766-0.31909-1.3051 0.12739-0.58001 0.61957-1.0492 1.0261-0.97821 0.18865 0.03294 0.32809-0.0657 0.36791-0.26026 0.0444-0.21679-0.0005-0.27337-0.14559-0.18369-0.12958 0.08009-0.16744 0.06121-0.0991-0.04939 0.0608-0.09845 0.41229-0.22996 0.78099-0.29226 0.52823-0.08924 0.69254-0.2016 0.77494-0.5299 0.0575-0.22916 0.0332-0.48809-0.0542-0.57541-0.31321-0.3132-5.9693-0.14427-6.1724 0.18436-0.11886 0.19231 0.2642 0.45323 0.91031 0.62004 0.7213 0.18623 1.3373 0.94659 1.0876 1.3425-0.28531 0.4523-1.0107 0.43974-1.7012-0.02945-0.73308-0.49814-2.0816-0.59172-2.4998-0.17347-0.3215 0.32151-0.56292 0.32151-0.56292 0 0-0.13834 0.10438-0.25152 0.23196-0.25152s0.27973-0.16978 0.33812-0.37728c0.10176-0.36169 0.11597-0.36446 0.34376-0.06705 0.25274 0.33 0.59528 0.24567 0.59528-0.14655 0-0.12965 0.15302-0.31762 0.34005-0.41772 0.51075-0.27334 0.22039-0.52403-0.47889-0.41346-1.9402 0.30677-2.8817 0.48556-3.599 0.68344-0.48358 0.13341-1.2179 0.18626-1.8445 0.13276-1.2003-0.1025-1.9665 0.21168-2.4377 0.99953-0.26691 0.4463-0.26412 0.48161 0.0591 0.74998 0.33 0.27397 0.33079 0.28995 0.029 0.58803-0.38004 0.37532-0.88102 0.24386-0.69379-0.18206 0.22252-0.50618 0.287-1.5715 0.10606-1.7524-0.11984-0.11984-0.31928-0.02816-0.64303 0.29559-0.33069 0.33069-0.40308 0.49139-0.24508 0.54405 0.12332 0.04111 0.2898-0.02877 0.36994-0.15529 0.28413-0.44854 0.14575 0.03219-0.18737 0.65089-0.22551 0.41885-0.30408 0.78555-0.23576 1.1004 0.11674 0.53802-0.17974 1.3878-0.53128 1.5226-0.36028 0.13825-0.28379 0.60419 0.0992 0.60419 0.43812 0 1.0061-0.57645 1.0061-1.0211 0-0.31801 0.58049-0.97181 0.87495-0.98546 0.0662-0.0031 0.10985 0.39565 0.0969 0.88604-0.0258 0.98242 0.11625 1.3569 0.46418 1.2234 0.32032-0.12292 0.99402 0.7485 0.71296 0.92221-0.29277 0.18094 0.23422 1.2579 0.68564 1.4012 0.43251 0.13728 1.022-0.17409 1.022-0.53983 0-0.24597 0.0289-0.25052 0.22814-0.03602 0.22678 0.24408 0.64464 1.4418 0.85464 2.4496 0.16837 0.80808 2.4143 2.9937 3.7363 3.636 0.63117 0.30665 0.75337 0.32155 0.88822 0.10831 0.13363-0.2113 0.15674-0.21212 0.15894-0.0056 0.002 0.17327 0.0722 0.14954 0.24875-0.08384 0.23095-0.30535 0.24652-0.28726 0.25152 0.29239 0.003 0.33984-0.0722 0.8219-0.16704 1.0713-0.2371 0.62362-0.0787 0.70958 0.23638 0.12824 0.24332-0.44899 0.25831-0.4542 0.26464-0.09198 0.004 0.21118-0.1442 0.67977-0.32865 1.0413-0.35447 0.69483-0.4319 1.1738-0.18975 1.1738 0.0801 0 0.18933 0.28296 0.24277 0.6288 0.0534 0.34584 0.14357 0.81744 0.20027 1.048l0.10309 0.4192-0.25609-0.4192c-0.20527-0.33602-0.25726-0.35932-0.26202-0.11743-0.007 0.37986 0.39159 1.1626 0.7403 1.452 0.14593 0.12111 0.61296 0.24916 1.0378 0.28455 0.82746 0.06893 1.3247 0.35705 2.214 1.283 0.36005 0.37486 0.53141 0.69507 0.47889 0.8949-0.0733 0.27897-0.0943 0.27233-0.20245-0.06422-0.23307-0.72501-0.41791-0.17759-0.41791 1.2377 0 1.07-0.0527 1.4113-0.2096 1.3575-0.13239-0.04541-0.2096-0.40036-0.2096-0.96356 0-0.95264-0.22173-1.2096-0.70073-0.81206-0.30408 0.25236-0.2318 0.33061-1.0783-1.1672-0.34378-0.60832-0.59351-0.87418-0.78748-0.8384-0.28353 0.05231-1.3416 1.9917-1.3628 2.4979-0.006 0.1461 0.28835 0.69316 0.65438 1.2157 0.36603 0.52252 0.60554 0.95004 0.53226 0.95004-0.34501 0-1.1842-1.1357-5.018-6.791-1.0003-1.4756-2.1027-3.0866-2.4498-3.5801-0.71618-1.0183-1.8388-3.0989-1.99-3.688-0.0933-0.3636-0.21578-0.27845-1.6215 1.1273-1.7588 1.7588-1.7516 1.7324-1.1006 4.048 0.70099 2.4932 0.52259 2.3259 2.5395 2.3809 2.4599 0.06705 2.1724 0.38024-0.36006 0.39222-2.4839 0.01175-2.5551 0.12335-0.97111 1.5224 1.5044 1.3288 5.3372 4.3984 6.4989 5.2049 0.83965 0.58292 1.1335 0.90689 0.80163 0.88387-0.0692-0.0048-0.55097-0.29756-1.0707-0.65058zm2.0348-7.8923c0-0.16471-0.11318-0.34291-0.25152-0.396-0.18839-0.07229-0.25152 0.0271-0.25152 0.396s0.0631 0.46829 0.25152 0.396c0.13834-0.05309 0.25152-0.23128 0.25152-0.396zm-0.55617-1.2052c-0.0536-0.13376-0.0933-0.09403-0.10131 0.10131-0.007 0.17676 0.0324 0.2758 0.0881 0.22008s0.0617-0.20034 0.0132-0.32139zm-0.11455-1.1144c0-0.48032 0.16469-0.53674 0.79634-0.27282 0.68895 0.28786 1.0481 0.31246 1.0481 0.07178 0-0.0952-0.33467-0.67998-0.74372-1.2995-0.68009-1.0301-0.8343-1.1612-1.8026-1.5332-0.58236-0.22372-1.4539-0.65923-1.9368-0.96781-0.84858-0.54227-2.3918-2.0066-2.3918-2.2695 0-0.07078-0.11318-0.12869-0.25152-0.12869-0.18483 0-0.25152 0.19243-0.25152 0.72581 0 0.86703 0.63138 1.9104 1.96 3.239 0.87906 0.87906 3.213 2.7334 3.4477 2.7392 0.0692 0.0017 0.12576-0.13522 0.12576-0.3043zm2.1476-1.5768c0.0373-0.31333-0.0708-0.51837-0.39114-0.74163-0.24351-0.16971-0.69219-0.5165-0.99706-0.77065-0.30488-0.25414-0.97775-0.64934-1.4953-0.8782-0.86464-0.38239-0.94092-0.39161-0.94092-0.11375 0 0.32333 0.84535 0.86229 1.8617 1.1869 0.38858 0.12412 0.67706 0.35573 0.80863 0.64923 0.55868 1.2463 1.0512 1.5314 1.1541 0.66806zm-4.3305-2.9366c-0.002-0.16139-0.21787-0.61033-0.48042-0.99764-0.32738-0.48293-0.51266-1.016-0.58965-1.6966-0.0618-0.54582-0.15604-1.0361-0.20952-1.0896-0.0788-0.07877-0.41125 0.07881-1.0372 0.49154-0.0308 0.02036 0.14056 0.62798 0.38096 1.3503 0.32014 0.96188 0.58191 1.4354 0.97836 1.7699 0.62681 0.52875 0.96176 0.58899 0.95743 0.17219zm-2.4308-2.599c-0.13462-0.8282-0.35667-1.148-0.51345-0.73942-0.17502 0.45609 0.0792 1.4521 0.37063 1.4521 0.21068 0 0.23717-0.13216 0.14282-0.71264zm-1.2808-0.72492c0.71326-0.35582 0.72214-1.0958 0.0247-2.0586-0.55767-0.76984-0.55555-0.76875-1.02-0.52018-0.25073 0.13419-0.39176 0.11223-0.59694-0.09294-0.32842-0.32842-1.1487-0.26778-1.1487 0.08492 0 0.15493 0.19297 0.27343 0.50249 0.30857 0.60794 0.06902 0.84312 0.37539 0.49073 0.63927-0.22608 0.16928-0.21065 0.22653 0.12428 0.46112 0.50724 0.35529 0.7616 0.33774 0.97849-0.06752 0.22778-0.4256 0.50304-0.43316 0.50304-0.01382 0 0.20516-0.2276 0.43276-0.6288 0.6288-0.80442 0.39307-0.94321 0.89413-0.24766 0.89413 0.26927 0 0.72754-0.11871 1.0184-0.2638zm-2.6906-3.9617c0.11067-0.11067 0.19525-0.43136 0.18798-0.71264-0.007-0.28128-0.0541-0.39824-0.10404-0.2599-0.0499 0.13834-0.24347 0.37321-0.43008 0.52195-0.1866 0.14874-0.28624 0.35624-0.22142 0.46112 0.15106 0.24443 0.31565 0.24137 0.56756-0.01053zm17.61-2.5236c-0.0438-0.30863-0.14511-0.36866-0.55661-0.32991-0.27667 0.02605-0.76188 0.04389-1.0782 0.03965-0.7149-0.0096-0.54509 0.18557 0.37833 0.43483 1.1304 0.30514 1.3173 0.28364 1.2565-0.14456zm-17.32-0.66263c0.55995-1.1918 0.93507-1.3534 3.3-1.4216 1.1338-0.03271 2.4764-0.14174 2.9836-0.24227 1.3275-0.26311 2.6195-0.45557 3.7728-0.56198 2.3903-0.22057 2.626-0.27249 2.4112-0.53128-0.1107-0.13337-0.29611-0.2061-0.41204-0.16161s-0.24862-0.01775-0.29488-0.13831c-0.11052-0.28798-2.9874-0.46529-3.1715-0.19547-0.0897 0.13145-0.16357 0.12596-0.25761-0.01914-0.16132-0.2489-2.3091-0.43393-2.6932-0.23202-0.15235 0.08009-1.1825 0.18837-2.2892 0.24062-2.8529 0.1347-4.5806 0.62329-5.6592 1.6005-0.78471 0.71091-0.57453 1.3878 0.62632 2.017 1.003 0.52558 1.2995 0.46318 1.6836-0.3544zm17.274-0.64895c0.0605-0.09786 0.0651-0.22275 0.0103-0.27754-0.11682-0.11681-0.77238 0.44068-0.77238 0.65684 0 0.17602 0.60488-0.12507 0.76201-0.3793zm0.91478 0.34742c0-0.09222-0.0332-0.16768-0.0739-0.16768s-0.12058 0.07546-0.17758 0.16768-0.0237 0.16768 0.0739 0.16768c0.0977 0 0.17758-0.07546 0.17758-0.16768zm-6.6386-0.31066c0.11606-0.18778-0.34292-0.81231-0.48937-0.66587-0.14584 0.14585 0.0628 0.80885 0.25453 0.80885 0.0806 0 0.18624-0.06434 0.23484-0.14298zm-14.154-1.113c0.42288-0.45013 0.19985-0.59509-0.23954-0.1557-0.23342 0.23342-0.35749 0.5749-0.20888 0.5749 0.03 0 0.23182-0.18864 0.44842-0.4192zm22.414-0.5269c0.77403-0.52036 1.6054-1.1806 1.8474-1.4672l0.44012-0.52109-0.42788-0.05138c-0.23533-0.02826-0.86959 0.13354-1.4094 0.35956-0.53986 0.22601-1.5041 0.49142-2.1428 0.5898-0.63868 0.09838-1.2774 0.29499-1.4193 0.43692-0.23228 0.23228-0.21987 0.25805 0.12427 0.25805 0.65746 0 1.031 0.30589 1.031 0.8443 0 0.71957 0.33164 0.64347 1.9566-0.44896zm-15.397-1.936c0.0319-0.08151 0.24479-0.37024 0.47314-0.64161 0.49632-0.58984 0.39861-0.89392-0.21259-0.66155-0.69794 0.26536-0.9849 0.18811-1.3032-0.3508-0.40477-0.68522-0.65211-0.55473-0.87818 0.46328-0.10333 0.46535-0.24023 0.93079-0.30422 1.0343-0.24196 0.39151 0.0986 0.51561 1.1269 0.41069 0.57211-0.05837 1.0663-0.17282 1.0982-0.25433zm12.349-0.48201c-0.0968-0.70374-0.0664-0.88611 0.17757-1.0645 0.34716-0.25385 0.19253-0.60148-0.26756-0.60148-0.2109 0-0.40843-0.20395-0.56843-0.58688-0.30033-0.71879-0.51014-0.73951-0.8492-0.08384-0.212 0.40996-0.36609 0.50304-0.83281 0.50304-0.75128 0-0.8916 0.26753-0.35974 0.68589 0.42309 0.3328 0.42512 0.34556 0.16075 1.0063-0.14728 0.36808-0.21554 0.72146-0.15171 0.7853 0.0638 0.06384 0.41321-0.05495 0.77637-0.26396l0.66032-0.38002 0.62497 0.42468c0.34374 0.23358 0.65227 0.42468 0.68562 0.42468 0.0334 0 0.008-0.38216-0.0562-0.84924zm-8.0606 0.32688c0.43339-0.3409 0.47842-0.34416 1.1601-0.08384 0.39004 0.14896 0.76322 0.27083 0.82931 0.27083 0.18994 0 0.14012-0.47475-0.0894-0.85236-0.18432-0.30319-0.1514-0.39169 0.27289-0.73371 0.59435-0.47909 0.44939-0.78209-0.32661-0.68274-0.51464 0.06589-0.62454 0.008-0.95558-0.50309-0.20573-0.31765-0.46018-0.57848-0.56545-0.57962-0.10527-0.0011-0.31216 0.29975-0.45976 0.66864-0.16957 0.42379-0.3769 0.67166-0.56317 0.67328-0.16214 0.0014-0.40798 0.0784-0.54631 0.17109-0.21398 0.14336-0.18977 0.22023 0.16222 0.51496 0.31791 0.26619 0.40233 0.47903 0.36444 0.91883-0.0572 0.66367 0.0926 0.70915 0.7174 0.21772zm-5.677-2.7746c1.0131-0.49608 1.1303-0.65996 0.46496-0.65012-0.49731 0.0074-0.41874 0.1771-1.2-2.5924-1.7062-6.0483-1.7049-6.0457-2.5192-5.1183-0.291 0.33143-0.52909 0.74441-0.52909 0.91774s0.25294 0.98185 0.56209 1.7967c0.55731 1.469 1.2488 3.6345 1.6243 5.0867 0.31279 1.2097 0.28754 1.2008 1.597 0.55967zm3.5544-1.0502c0.80598-0.17758 2.1609-0.37576 3.011-0.4404 1.3539-0.10295 1.5277-0.15128 1.4012-0.38976-0.0794-0.14973-0.19625-1.8191-0.25957-3.7097-0.17061-5.0942-0.21117-5.8286-0.33269-6.0252-0.13288-0.215-1.5875-0.23477-1.9171-0.02605-0.25276 0.16006-0.25104 0.22717 0.16635 6.5086 0.11783 1.7732 0.17491 3.2634 0.12684 3.3115-0.16805 0.16805-1.7378 0.39809-1.866 0.27345-0.12855-0.12499-0.51001-2.6029-1.0542-6.8481-0.15646-1.2204-0.3789-2.3481-0.49432-2.506-0.19766-0.27032-0.26954-0.26894-1.2362 0.02375-0.83149 0.25175-1.0261 0.37734-1.0251 0.66148 0.00056 0.1929 0.29591 1.6712 0.65607 3.2851 0.36015 1.6139 0.74992 3.6701 0.86613 4.5693 0.11622 0.89918 0.27452 1.6349 0.35178 1.6349 0.0773 0 0.79991-0.1453 1.6059-0.32288zm11.162-2.0666c0.15075-1.1297 0.46428-2.9973 0.69673-4.1501l0.423-2.0938-0.506-0.4611c-0.615-0.56-0.801-0.5755-0.989-0.0822-0.19087 0.50201-0.65072 4.1412-0.78904 6.2444-0.0607 0.92224-0.17897 1.8104-0.26292 1.9737-0.21961 0.42719-0.0289 0.62533 0.60186 0.62533h0.55152l0.2741-2.0541zm-2.2353 1.6307c0-0.04839-0.18864-0.15971-0.4192-0.24737-0.5208-0.19801-0.52018-0.17392-0.13807-5.4184 0.32914-4.5173 0.37878-4.3-0.98349-4.3045l-0.78621-0.0026-0.0913 0.71264c-0.0502 0.39195-0.12285 2.6137-0.16147 4.9371l-0.0702 4.2245 0.52848 0.0664c0.85897 0.10792 2.1214 0.12702 2.1214 0.03208zm-3.3536 31.289c0-0.23996 0.10769-0.34765 0.34765-0.34765 0.23997 0 0.33027 0.0903 0.29152 0.29151-0.0842 0.4371-0.63917 0.48584-0.63917 0.05614zm3.2475-2.6861c-0.27538-0.50736-0.30713-0.67831-0.13802-0.74321 0.24415-0.09369 0.42148 0.09782 0.7032 0.75938 0.17423 0.40916 0.13362 0.64758-0.10972 0.64414-0.0538-0.000838-0.25875-0.2979-0.45546-0.66031zm-14.263-3.6139c0.0761-0.46865 0.0299-0.6216-0.22958-0.76046-0.44211-0.23661-0.40801-0.4701 0.0868-0.59428 0.27667-0.06944 0.47328-0.29032 0.59988-0.67391 0.21873-0.66274 0.33176-0.69652 0.75732-0.22628 0.25221 0.27869 0.43306 0.32382 0.94864 0.23671 0.5381-0.09091 0.62116-0.06626 0.53483 0.1587-0.0562 0.14648-0.16151 0.26633-0.234 0.26633-0.29146 0-0.3198 0.56148-0.0512 1.016 0.36302 0.61456 0.23964 0.72852-0.55205 0.50992-0.56571-0.1562-0.69391-0.13016-1.1783 0.2393-0.71513 0.54545-0.79541 0.5252-0.68226-0.17208zm1.4971-0.41944c0.34016 0 0.39669-0.0821 0.39669-0.57609 0-0.37604-0.0903-0.60235-0.2599-0.6517-0.14295-0.04158-0.38634-0.12781-0.54086-0.19162-0.41812-0.17265-0.8394 0.55458-0.70642 1.2195 0.0889 0.44467 0.15203 0.50058 0.40947 0.36281 0.16739-0.08958 0.48285-0.16288 0.70102-0.16288zm-2.3181-3.1036c0.17614-0.13329 0.53455-0.4333 0.79648-0.66668s0.47624-0.35409 0.47624-0.26825c0 0.27011-1.0189 1.1882-1.3124 1.1826-0.24474-0.0046-0.23967-0.03626 0.0397-0.24768zm14.718-0.62171c-0.23981-0.23981-0.26359-0.80207-0.0339-0.80207 0.17098 0 0.43419 0.79865 0.30559 0.92725-0.0403 0.04028-0.16252-0.01605-0.27166-0.12518zm-3.049-0.46671c0-0.18445 0.0351-0.33536 0.0779-0.33536 0.0429 0 0.15871 0.15091 0.25742 0.33536 0.14325 0.26767 0.12752 0.33536-0.0779 0.33536-0.14563 0-0.25742-0.14563-0.25742-0.33536zm-10.196-0.34794c0.033-0.09914 0.13177-0.18026 0.21939-0.18026 0.0876 0 0.18633 0.08111 0.21938 0.18026 0.033 0.09914-0.0657 0.18026-0.21938 0.18026-0.15371 0-0.25244-0.08112-0.21939-0.18026zm6.9517-0.7839c-0.17091-0.61658-0.2766-3.6576-0.1346-3.8726 0.24389-0.36919 0.37623 0.49473 0.34025 2.2211-0.0178 0.8555 0.0217 1.6431 0.0879 1.7502 0.0662 0.10709 0.0455 0.1947-0.0459 0.1947-0.0915 0-0.20288-0.13205-0.24762-0.29344zm5.0053-1.5052c-0.80903-0.11518-0.94061-0.40387-0.16768-0.36789 0.36889 0.01717 0.87822-0.0247 1.1318-0.09305 0.29379-0.07918 0.46112-0.05897 0.46112 0.05569 0 0.19041-0.55403 0.5445-0.78545 0.50199-0.0752-0.01382-0.36315-0.05735-0.63982-0.09674zm-1.5074-0.55159c0.0579-0.09373 0.17557-0.127 0.26142-0.07394 0.23257 0.14374 0.18921 0.24436-0.10533 0.24436-0.14378 0-0.21402-0.07669-0.15609-0.17041zm-2.601-0.172c0-0.09767 0.0755-0.13094 0.16768-0.07394 0.0922 0.057 0.16768 0.13691 0.16768 0.17758s-0.0755 0.07394-0.16768 0.07394c-0.0922 0-0.16768-0.07991-0.16768-0.17758zm3.4374-0.36325c-1.3148-0.21507-2.1071-0.23301-2.4903-0.05638-0.25076 0.11559-0.29797 0.08198-0.24556-0.1748 0.0463-0.22676 0.1865-0.30546 0.48903-0.2745 3.4935 0.3575 4.3192 0.31898 4.5246-0.21108 0.10627-0.27424 0.13211-0.28308 0.14174-0.04845 0.016 0.38945-0.64246 0.9754-1.0678 0.95024-0.19012-0.01125-0.7984-0.0945-1.3517-0.18502zm-2.9332-1.1779c0.002-0.31244 1.5647-2.219 1.6382-1.9985 0.0721 0.21628-1.2774 2.2081-1.496 2.2081-0.0789 0-0.14282-0.09432-0.14214-0.2096zm-3.4387-1.8026c-0.14308-0.27667-0.2016-0.50419-0.13007-0.5056 0.0715-0.0013 0.0418-0.05876-0.0662-0.12744-0.24932-0.1586-0.47935-1.0437-0.27125-1.0437 0.0856 0 0.48654 0.28296 0.89092 0.6288 0.68766 0.58811 0.80082 0.62686 1.7489 0.5989 0.7078-0.02088 0.905 0.01353 0.65354 0.11401-0.19807 0.07915-0.41003 0.22465-0.47102 0.32334-0.061 0.09869-0.32835 0.17943-0.59414 0.17943-0.26578 0-0.52988 0.07546-0.58687 0.16768-0.22736 0.36786-0.91114 0.1725-1.1738-0.33536zm5.5164 0.26768c-0.17362-0.45244 0.0272-0.71863 0.24088-0.31933 0.12936 0.2417 0.13853 0.40232 0.0269 0.4713-0.0931 0.05755-0.21363-0.01083-0.26779-0.15197zm-8.2831-0.59017c0-0.08515-0.20214-0.39504-0.44919-0.68865-0.41315-0.49099-0.43209-0.57613-0.23603-1.0609 0.24801-0.61319 0.26263-0.76536 0.10892-1.1336-0.0898-0.21516 0.0532-0.31287 0.69266-0.47307 0.44324-0.11105 0.97007-0.35534 1.1707-0.54288 0.59952-0.56026 0.83108-0.18234 0.26084 0.4257-0.27135 0.28933-0.54088 0.66136-0.59896 0.82672-0.0829 0.2361-0.17343 0.26437-0.42141 0.13166-0.40476-0.21662-0.54772-0.06792-0.4208 0.43772 0.0643 0.25642-0.00009 0.51238-0.17869 0.70974-0.25071 0.27703-0.25305 0.33497-0.0229 0.56515 0.14106 0.14106 0.34686 0.2866 0.45732 0.32342 0.11306 0.03769 0.15331 0.19081 0.0921 0.35033-0.1143 0.29786-0.45463 0.3941-0.45463 0.12857zm9.2643-0.45928c-0.29196-0.11781-0.26264-0.39199 0.0419-0.39199 0.13833 0 0.25152 0.11318 0.25152 0.25152s-0.0188 0.24556-0.0419 0.23828c-0.023-0.0073-0.13624-0.0513-0.25152-0.09781zm1.039-1.0773c-0.062-0.10026-0.0287-0.26626 0.074-0.3689 0.13702-0.13702 0.1866-0.08858 0.1866 0.18229 0 0.40486-0.0871 0.46725-0.26055 0.1866zm-11.968-0.78187c-0.006-0.29973 0.0637-0.54496 0.15589-0.54496 0.19907 0 0.19907 0.29131 0 0.75456-0.12076 0.28103-0.14602 0.24708-0.15589-0.2096zm13.822-0.04192c0.057-0.09222 0.21236-0.16768 0.34525-0.16768 0.1329 0 0.24163 0.07546 0.24163 0.16768s-0.15537 0.16768-0.34526 0.16768-0.29862-0.07545-0.24162-0.16768zm-5.001-0.11033c-0.0607-0.06068-0.0336-0.2027 0.06-0.31559 0.1293-0.1558-0.10134-0.25653-0.95718-0.41801-0.84307-0.15907-1.1438-0.16406-1.1919-0.01976-0.0998 0.29949-0.50402 0.22838-0.88875-0.15635-0.39361-0.39361-0.30661-0.65703 0.10435-0.31596 0.22179 0.18407 0.39961 0.1729 1.0668-0.06701 0.44035-0.15835 1.2467-0.30359 1.792-0.32276 0.93324-0.03281 0.99469-0.01102 1.0488 0.37188 0.0564 0.3995 0.0498 0.40174-0.37138 0.12576-0.56397-0.36952-0.77597-0.35467-0.77597 0.05438 0 0.21725 0.11178 0.33536 0.31741 0.33536 0.32986 0 0.59196 0.42022 0.42779 0.68585-0.10978 0.17763-0.47233 0.20185-0.63196 0.04222zm-0.64772-0.17189c0.12104-0.04844 0.26566-0.04248 0.32138 0.01323 0.0557 0.05572-0.0433 0.09535-0.22008 0.08807-0.19534-0.008-0.23507-0.04778-0.1013-0.1013zm2.2138-0.34658c0.001-0.06917 0.0757-0.23894 0.16511-0.37728 0.13144-0.20339 0.16303-0.17932 0.16511 0.12576 0.001 0.2075-0.0729 0.37728-0.16511 0.37728-0.0922 0-0.16652-0.05659-0.16511-0.12576zm1.0035-0.97405c0-0.14378 0.0754-0.21478 0.16768-0.15778 0.0922 0.057 0.16768 0.17463 0.16768 0.26142 0 0.08678-0.0755 0.15778-0.16768 0.15778-0.0922 0-0.16768-0.11764-0.16768-0.26142zm-7.451-0.29078c0.063-0.16537 0.15673-0.25843 0.20836-0.2068 0.0516 0.05163 0.0001 0.18693-0.11449 0.30067-0.16561 0.16437-0.18487 0.14511-0.0939-0.09387zm-0.65731-0.70285c-0.0569-0.14815 0.0435-0.3234 0.24793-0.43278 0.43958-0.23525 0.55979-0.11146 0.32245 0.33203-0.21986 0.4108-0.43671 0.44911-0.57038 0.10076zm7.972-0.09688c0.0404-0.12104 0.17239-0.25309 0.29344-0.29344 0.12576-0.04192 0.18864 0.02096 0.14672 0.14672-0.0404 0.12104-0.1724 0.25309-0.29344 0.29344-0.12576 0.04192-0.18864-0.02096-0.14672-0.14672z"/>
 </g>
</svg>
