<?xml version="1.0" encoding="UTF-8" standalone="no"?>
<!-- Created with Inkscape (http://www.inkscape.org/) -->
<svg id="svg2" xmlns:rdf="http://www.w3.org/1999/02/22-rdf-syntax-ns#" xmlns="http://www.w3.org/2000/svg" height="45" width="67.5" version="1.1" xmlns:cc="http://creativecommons.org/ns#" xmlns:dc="http://purl.org/dc/elements/1.1/">
 <metadata id="metadata7">
  <rdf:RDF>
   <cc:Work rdf:about="">
    <dc:format>image/svg+xml</dc:format>
    <dc:type rdf:resource="http://purl.org/dc/dcmitype/StillImage"/>
    <dc:title/>
   </cc:Work>
  </rdf:RDF>
 </metadata>
 <g id="g19414">
  <rect id="rect2990" opacity="0" height="45" width="67.5" y="0" x="3.5527e-15"/>
  <path id="path7428" d="m39.928 44.783c-0.64369-0.28608-0.9555-0.93332-0.82978-1.7224 0.0581-0.36479 0.001-0.61381-0.17417-0.75918-0.18549-0.15394-0.23505-0.40721-0.17188-0.87822 0.0488-0.36404-0.0139-1.545-0.13937-2.6244-0.12549-1.0794-0.19243-2.0556-0.14878-2.1693 0.0437-0.11376-0.0354-0.54508-0.17556-0.95849-0.14021-0.41341-0.24636-1.0198-0.23587-1.3476 0.0686-2.146-0.0401-4.4481-0.24117-5.1066l-0.23349-0.76451-1.866-0.19366c-2.0847-0.21635-3.6017-0.52404-3.7476-0.76011-0.0532-0.08607-0.24505-0.1565-0.42635-0.1565-0.22681 0-0.44723 0.25229-0.70666 0.80881-0.21992 0.47181-0.96524 1.3992-1.7888 2.2258-0.77647 0.77932-1.4118 1.4736-1.4118 1.5428 0 0.45556 3.4165 3.5959 3.9121 3.5959 0.10554 0 0.30177 0.26295 0.43605 0.58432 0.13428 0.32138 0.3125 0.62657 0.39605 0.67821 0.0835 0.05163 0.32644 0.52392 0.53977 1.0495 0.29527 0.7275 0.3378 0.9866 0.17814 1.0853-0.28892 0.17856-1.6182-0.0901-2.1411-0.43276-0.43683-0.28622-0.71285-0.93591-0.52604-1.2382 0.27132-0.439-1.0891-2.0169-3.2893-3.8151-0.59967-0.49012-1.2477-1.103-1.44-1.362-0.33327-0.4488-0.33624-0.49355-0.0634-0.95544 0.34685-0.58717 0.65679-3.1623 0.53419-4.4382-0.1015-1.0562-0.16273-1.202-0.50472-1.202-0.17868 0-0.24637 0.21981-0.24905 0.80882-0.005 1.1294-0.58811 3.6481-1.1064 4.7801-0.38505 0.84106-0.43785 1.1926-0.46363 3.0864-0.0307 2.255 0.38503 4.8053 0.95904 5.8833 0.1496 0.28096 0.27247 0.66942 0.27305 0.86324 0.00057 0.19383 0.18825 0.51518 0.41704 0.71412 0.2288 0.19894 0.5119 0.68178 0.62911 1.073 0.19206 0.64105 0.18176 0.73422-0.10435 0.94342-0.34099 0.24934-1.1149 0.19027-1.747-0.13334-0.42574-0.21796-0.65358-1.0568-0.49815-1.834 0.0643-0.32136 0.0126-0.56083-0.15019-0.69593-0.13651-0.11329-0.24819-0.43469-0.24819-0.71423 0-0.85759-0.85724-5.2943-1.1242-5.8184-0.40269-0.79063-0.48439-1.8765-0.196-2.605 0.21394-0.54048 0.22149-0.77356 0.0458-1.4134-0.11572-0.42144-0.40737-1.4942-0.64811-2.3839-0.64895-2.3983-1.1334-3.8907-1.2955-3.9909-0.0791-0.04889-0.27965 0.27352-0.44563 0.71648-0.52478 1.4005-1.1201 2.3006-2.3909 3.6149-0.86605 0.89574-1.2712 1.455-1.3567 1.873-0.22221 1.0862-0.52135 1.4765-1.2184 1.5896-0.35325 0.05733-0.7026 0.0439-0.77633-0.02982-0.26212-0.26211 0.90191-2.1744 2.0496-3.367 1.5228-1.5825 2.299-2.5491 2.7193-3.3862 0.51966-1.0351 1.0163-2.9278 1.117-4.2569 0.0896-1.1821 0.34359-2.4566 0.67145-3.3688 0.24566-0.68345 1.4042-1.6312 3.0111-2.4632 1.7512-0.90669 2.5532-0.93748 5.3698-0.20614 1.2213 0.3171 2.5308 0.5363 3.3814 0.56599 1.7726 0.06187 5.1266-0.31581 5.9004-0.66444 0.65351-0.29441 1.5438-1.4851 1.8627-2.4914 0.10893-0.3437 0.30908-0.71705 0.44476-0.82966 0.13569-0.11261 0.24884-0.29115 0.25144-0.39674 0.003-0.1056 0.23248-0.41548 0.51083-0.68864 0.27836-0.27315 0.5061-0.56943 0.5061-0.6584s0.15325-0.12168 0.34056-0.0727c0.26673 0.06975 0.34055 0.0052 0.34055-0.29773 0-0.56746 0.55553-1.181 1.7955-1.9829 0.60455-0.39098 1.0992-0.72898 1.0992-0.75111s-0.18577-0.46031-0.41283-0.97373c-0.47776-1.0803-0.82691-3.2066-0.74839-4.5577 0.0835-1.4375 0.44898-1.2419 1.1073 0.59276 0.30181 0.8411 0.878 2.182 1.2804 2.9798l0.73167 1.4506 0.72486-0.05419c0.62628-0.04682 0.74547-0.000511 0.87642 0.34055l0.15155 0.39475 0.16703-0.42569c0.15761-0.40168 1.0465-4.0527 1.3474-5.534 0.0837-0.41208 0.23436-0.68111 0.38148-0.68111 0.29008 0 0.44085 0.49924 0.78554 2.6013 0.33514 2.0438 0.24159 2.4351-0.99878 4.1778-0.30179 0.42402-0.30092 0.45842 0.0306 1.208 0.18772 0.42437 0.61484 1.0118 0.94917 1.3053 0.55739 0.4894 0.60786 0.61079 0.60786 1.4622 0 0.62746 0.2187 1.5851 0.67452 2.9535 0.66821 2.006 0.67215 2.033 0.41993 2.8823-0.14003 0.47154-0.42454 1.0549-0.63223 1.2964-0.36792 0.42773-0.40605 0.43448-1.4842 0.26275-1.2576-0.20032-1.8-0.67421-1.9664-1.7178-0.13296-0.83422-0.26425-1.028-1.1154-1.6466-1.3399-0.97373-1.5152-0.81377-2.0334 1.8559-0.18671 0.96185-0.42241 2.1763-0.52379 2.6988-0.15994 0.82428-0.13435 1.128 0.19344 2.2962 0.3403 1.2128 0.35785 1.4576 0.17697 2.4697-0.20196 1.1301-0.13093 1.8276 0.25023 2.4574 0.11336 0.1873 0.5509 0.99186 0.9723 1.7879s1.0445 1.92 1.3846 2.4977c0.64626 1.0976 0.80669 2.0721 0.39711 2.412-0.2341 0.19429-0.53262 0.24416-3.3139 0.55373-0.961 0.10696-1.7892 0.26238-1.8405 0.34536-0.0513 0.08299-0.31471 0.15088-0.58537 0.15088-0.35729 0-0.61032-0.15497-0.92354-0.56562-0.23728-0.31109-0.6243-0.66885-0.86005-0.79502-0.23574-0.12617-0.42862-0.3555-0.42862-0.50964 0-0.4218 1.0803-0.85415 2.1342-0.85415 0.79587 0 0.93075 0.04617 0.93075 0.31862 0 0.25293 0.16674 0.33867 0.80881 0.4159 0.95373 0.11472 2.1164-0.05992 2.207-0.33149 0.10128-0.30382-1.9624-2.5657-2.7758-3.0424-0.40568-0.23774-0.79804-0.53118-0.87192-0.65208-0.0739-0.1209-0.31094-0.3403-0.5268-0.48755-0.3603-0.24577-0.44626-0.24175-1.0479 0.04895-0.8642 0.41754-1.3582 1.2579-1.5546 2.6443-0.0882 0.62278-0.20074 1.2942-0.25009 1.4921-0.17477 0.70078-0.3011 3.2857-0.27501 5.6271 0.0242 2.1742 0.0622 2.4409 0.45362 3.1896 0.23494 0.44933 0.42717 1.0093 0.42717 1.2443 0 0.23504 0.2722 0.78396 0.6049 1.2198 0.409 0.53582 0.58821 0.93608 0.55339 1.236-0.0451 0.38875-0.13561 0.44758-0.73259 0.47634-0.37461 0.01804-0.93248-0.07891-1.2397-0.21546zm-3.551-23.362c0.0876-0.30533 0.10285-0.6113 0.0339-0.67994-0.17572-0.17506-0.77705 0.60915-0.77705 1.0134 0 0.54463 0.56383 0.29164 0.7431-0.33342zm-10.265-2.0613c0.25461-0.78475 0.56273-1.4885 0.68472-1.5639 0.25894-0.16003 1.1612-0.01856 1.4796 0.23201 0.12108 0.09527 0.1977 0.41014 0.17028 0.69972-0.0653 0.68979 0.37632 0.76334 1.6722 0.27848 1.2119-0.45342 2.779-0.62736 3.2725-0.36323 0.26783 0.14334 0.36911 0.35684 0.36911 0.77809v0.58055l1.2168-0.07216c0.66922-0.03969 1.2288-0.09291 1.2435-0.11828 0.4166-0.71946 0.6751-0.98264 0.96519-0.98264 0.3266 0 0.34371 0.06469 0.23198 0.87709-0.11217 0.81549-0.0983 0.86676 0.19686 0.73009 0.17463-0.08085 0.90485-0.14988 1.6227-0.15341 1.0928-0.0054 1.3829-0.06876 1.7823-0.38954 0.26239-0.21072 0.53706-0.38312 0.61038-0.38312 0.0733 0 0.13332-0.11494 0.13332-0.25542s-0.11494-0.25542-0.25542-0.25542-0.25541-0.06843-0.25541-0.15206 0.11493-0.19616 0.25541-0.25007c0.31281-0.12004 0.34169-0.78981 0.0341-0.78981-0.12175 0-0.31331 0.09195-0.42569 0.20433-0.14796 0.14795-0.25575 0.15292-0.39066 0.01801-0.3766-0.37661 1.0414-4.6495 1.543-4.6495 0.0874 0 0.23305 0.13242 0.32362 0.29427 0.14738 0.26335 0.18317 0.24993 0.34056-0.12771 0.0967-0.23209 0.37071-1.0826 0.60884-1.8901 0.44472-1.5079 0.61267-1.7704 1.2016-1.8777 0.25824-0.04705 0.39661-0.29786 0.57249-1.0377 0.13457-0.56608 0.17319-1.1017 0.092-1.2759-0.10694-0.22944-0.15403-0.14966-0.19965 0.33828-0.0329 0.3512-0.1317 0.63854-0.21969 0.63854-0.088 0-0.16-0.06031-0.16-0.13402s-0.42841 0.2711-0.95202 0.76624-1.0894 0.90026-1.2572 0.90026c-0.16786 0-0.35367 0.13409-0.41293 0.29798-0.12921 0.35744-0.39565 0.80188-0.91108 1.5197-0.21072 0.29347-0.38313 0.57774-0.38313 0.6317 0 0.26527-1.2472 1.9772-1.906 2.6162-0.74208 0.71978-0.75649 0.72496-2.7448 0.98571-1.6174 0.21211-2.3915 0.22803-4.0569 0.08342-1.132-0.09829-2.1243-0.2196-2.2052-0.26958-0.28635-0.17697-3.0612-0.56037-3.5802-0.49469-1.2265 0.15523-2.3616 0.80642-2.3627 1.3554-0.00036 0.1873 0.26731 0.87253 0.5948 1.5227 0.65855 1.3074 0.71841 1.6539 0.34003 1.9679-0.42482 0.35258-0.31396 0.71064 0.20123 0.64985 0.41028-0.04841 0.50362-0.19872 0.91955-1.4807zm26.209-1.979c0-0.14048-0.0766-0.25542-0.17027-0.25542-0.0937 0-0.17028-0.14873-0.17028-0.3305 0-0.18178-0.0766-0.37786-0.17028-0.43574-0.25297-0.15634-0.2062-0.76624 0.0588-0.76624 0.12596 0 0.36935 0.15506 0.54086 0.34458 0.23791 0.26289 0.34417 0.29317 0.44819 0.12771 0.15399-0.2449 0.13164-0.34812-0.50251-2.3211-0.41396-1.2879-0.53843-1.4874-1.3102-2.1002-0.46901-0.37242-0.94822-0.85697-1.0649-1.0768-0.27826-0.52419-0.85611-0.70483-1.1892-0.37175-0.27558 0.27559-0.14318 0.69408 0.18245 0.57667 0.36038-0.12994 0.81558 0.22525 0.71099 0.55478-0.0673 0.21207 0.0638 0.44728 0.41336 0.74139 0.28156 0.23692 0.63804 0.72463 0.79217 1.0838 0.15412 0.35916 0.34804 0.76796 0.43093 0.90844 0.30689 0.52013 0.35297 0.68702 0.25804 0.93441-0.0819 0.2135-0.19621 0.19489-0.72721-0.11841-0.34651-0.20444-0.54084-0.40144-0.43185-0.43777 0.34826-0.11609 0.22102-0.32947-0.86606-1.4525-0.99113-1.0239-1.1106-1.0963-1.7385-1.0548-0.37084 0.02453-0.69803 0.11592-0.72709 0.2031-0.079 0.23689 1.0229 1.5835 1.8822 2.3003 0.52968 0.44185 0.7879 0.80516 0.86523 1.2174 0.12514 0.66701 0.52242 1.1176 0.66707 0.75663 0.057-0.14224 0.30847 0.03572 0.71179 0.50372 0.63192 0.73327 1.1062 0.93404 1.1062 0.46826zm-4.768-9.791c0-0.1873-0.0766-0.34055-0.17027-0.34055-0.0936 0-0.17028 0.15325-0.17028 0.34055s0.0766 0.34055 0.17028 0.34055c0.0936 0 0.17027-0.15325 0.17027-0.34055z"/>
 </g>
</svg>
