<?xml version="1.0" encoding="UTF-8" standalone="no"?>
<!-- Created with Inkscape (http://www.inkscape.org/) -->
<svg id="svg2" xmlns:rdf="http://www.w3.org/1999/02/22-rdf-syntax-ns#" xmlns="http://www.w3.org/2000/svg" height="54" width="99" version="1.1" xmlns:cc="http://creativecommons.org/ns#" xmlns:dc="http://purl.org/dc/elements/1.1/">
 <metadata id="metadata7">
  <rdf:RDF>
   <cc:Work rdf:about="">
    <dc:format>image/svg+xml</dc:format>
    <dc:type rdf:resource="http://purl.org/dc/dcmitype/StillImage"/>
    <dc:title/>
   </cc:Work>
  </rdf:RDF>
 </metadata>
 <g id="g17956">
  <rect id="rect2990" opacity="0" height="54" width="99" y="0" x="0"/>
  <path id="path7576" d="m39.684 49.142c-1.2866-0.79821-1.3942-2.9198-0.19468-3.8408 0.41688-0.32007 1.6104-0.34974 2.1634-0.0538 0.50823 0.272 1.032 1.2701 0.89213 1.7001-0.078 0.23975-0.0404 0.26033 0.14978 0.0821 0.1396-0.13081 0.42422-0.89871 0.63247-1.7064 0.6614-2.5653 1.5921-3.7656 3.1132-4.0152 3.1655-0.51928 5.4779-0.33414 6.5716 0.52614 0.64372 0.50635 1.5267 2.3007 1.729 3.5136 0.20887 1.2524 0.56046 2.0264 0.92054 2.0264 0.23131 0 0.28118-0.1435 0.18417-0.53001-0.15806-0.62978 0.48158-1.3897 1.1697-1.3897 0.59787 0 1.6904 1.1279 1.6886 1.7434-0.003 1.103-1.2423 2.2871-2.4089 2.3019-1.4249 0.0181-2.2585-0.95597-3.2632-3.8125-0.67214-1.9111-2.0114-2.9145-2.8161-2.1099-0.37488 0.37488-0.31219 1.6747 0.1029 2.1334 0.73403 0.8111-0.43819 2.2792-1.5096 1.8906-0.24701-0.0896-0.57936-0.42784-0.73857-0.75165-0.25921-0.52721-0.24249-0.6523 0.15998-1.1967 0.53511-0.72378 0.56627-1.2167 0.11739-1.8576-0.65557-0.93595-2.3924-0.29595-2.9933 1.103-0.20694 0.48174-0.54918 1.274-0.76051 1.7606-0.48343 1.113-1.3327 2.1315-2.1148 2.5359-0.79661 0.41195-2.0853 0.38756-2.7953-0.0529zm7.2024-8.6596c-0.21223-0.15519-0.35094-0.46358-0.30823-0.68532 0.0929-0.48231 0.75065-0.69187 2.2618-0.72056 0.65429-0.01241 1.1198-0.1181 1.1198-0.25419 0-0.14659-0.45461-0.21622-1.2265-0.18783-0.67458 0.0248-1.34 0.03363-1.4786 0.01962-0.46541-0.04702-1.2355-1.399-1.5828-2.7786-0.33142-1.3166-0.37962-1.3818-1.2841-1.737-0.51688-0.20303-1.4184-0.66144-2.0033-1.0187-0.58491-0.35725-1.4858-0.90816-2.002-1.2242-1.0608-0.64954-2.7454-1.1528-3.8715-1.1566-0.41647-0.0014-0.87241-0.11772-1.0132-0.2585-0.72633-0.72633 0.22223-1.324 1.6074-1.0128 0.92563 0.20798 3.5272 1.6165 4.7848 2.5905 0.88616 0.68636 2.6672 1.5176 4.5432 2.1205 1.2997 0.41766 3.9152 0.56272 5.1309 0.28456 3.5043-0.80185 5.4579-1.8319 7.6753-4.0467 1.9462-1.9439 3.0237-3.8714 3.6008-6.4413 0.42776-1.9049 0.43457-3.1838 0.0283-5.3073-0.72366-3.7823-2.9266-6.9073-6.299-8.9355-2.6014-1.5646-3.4098-2.395-3.4098-3.5029 0-1.0382 1.1467-0.76379 1.5057 0.36029 0.33072 1.0355 1.0432 1.7845 2.8901 3.0386 2.5773 1.75 4.5769 4.3818 5.665 7.4565 0.70045 1.9792 0.71266 6.0409 0.0247 8.2122-1.3286 4.1932-4.9354 7.7805-9.1256 9.0763-0.82122 0.25397-1.5916 0.48812-1.7119 0.52034-0.12033 0.03222-0.33927 0.64195-0.48654 1.3549-0.15582 0.75443-0.48719 1.5571-0.79265 1.9202-0.45747 0.54368-0.48402 0.6577-0.2067 0.88786 0.38619 0.32051 0.42144 1.2599 0.0515 1.3741-0.14664 0.0453-1.0393 0.13892-1.9837 0.20804-1.2543 0.09181-1.821 0.04964-2.1029-0.15648zm-10.045-2.5703c-0.40792-0.62256-0.22351-1.1658 0.45343-1.3357 0.70042-0.17579 1.2954-0.98961 1.4673-2.0069 0.0965-0.571 0.25334-0.84694 0.48148-0.84694 0.26489 0 0.22868-0.11678-0.16671-0.53766-0.46907-0.4993-0.48004-0.56273-0.1537-0.88906 0.32634-0.32634 0.40917-0.31339 1.1612 0.18151 0.44537 0.2931 1.2237 0.79451 1.7297 1.1142 1.1667 0.73726 1.1565 1.3271-0.0215 1.2572-0.52217-0.03096-0.79166 0.04521-0.79166 0.22378 0 0.1489-0.31728 0.38546-0.70505 0.52568-0.9539 0.34494-1.6413 1.023-1.6413 1.6191 0 0.55727-0.60525 1.1979-1.1317 1.1979-0.19336 0-0.49993-0.22644-0.68128-0.50321zm10.243-4.2039c-1.2982-0.21699-3.5089-0.99542-3.9671-1.3969-0.18522-0.1623-0.45697-0.29508-0.60389-0.29508s-1.1057-0.83989-2.1306-1.8664c-2.7151-2.7193-3.6522-4.9646-3.6722-8.7988-0.0347-6.6359 5.1313-12.093 11.841-12.507 2.582-0.15946 4.3314 0.16268 6.4788 1.1931 4.8807 2.3419 7.818 7.6123 7.1166 12.769-0.97292 7.1535-7.8234 12.112-15.062 10.902zm4.1553-0.72748c0-0.39842-0.55852-0.79603-1.1152-0.79393-0.26651 0.0011-1.4924 0.08928-2.7243 0.19616-2.0934 0.18163-2.1979 0.21222-1.5998 0.46814 1.346 0.57595 5.4393 0.6735 5.4393 0.12963zm3.1642-0.75081c0.75791-0.35855 1.3139-0.7508 1.2664-0.8934-0.0466-0.13982-0.33177-0.43865-0.6337-0.66408l-0.54897-0.40986-1.624 0.8026c-0.89317 0.44143-1.624 0.85244-1.624 0.91335s0.15886 0.28628 0.35302 0.50082c0.50023 0.55275 1.2576 0.48555 2.8112-0.24944zm-4.931-0.50884c0.24597-0.24597-1.2506-1.399-1.8244-1.4056-0.40897-0.0047-2.2462 0.38713-3.6435 0.7771-0.44736 0.12485 0.0105 0.50591 0.86914 0.72333 0.84472 0.2139 4.3626 0.14133 4.5988-0.09487zm3.4407-1.1814c0.48719-0.24855 0.8858-0.53951 0.8858-0.64659 0-0.29972-1.8133-1.7164-2.1969-1.7164-0.50227 0-2.9224 1.4707-2.9224 1.7759 0 0.26862 0.36143 0.63058 1.2491 1.2509 0.55796 0.38994 1.1978 0.24762 2.9844-0.66386zm4.8023-0.51147c0.54422-0.5068 0.98948-1.0758 0.98948-1.2643 0-0.18859-0.25649-0.54465-0.56998-0.79124l-0.56998-0.44835-0.65652 0.62132c-0.36109 0.34172-0.93596 0.87382-1.2775 1.1824l-0.62097 0.5611 0.49817 0.53027c0.69182 0.73641 1.068 0.66974 2.2073-0.39118zm-11.258 0.02142c0.28363-0.12923 0.51569-0.30748 0.51569-0.39611 0-0.21164-1.6008-1.4768-1.8686-1.4768-0.24249 0-1.7576 1.8927-1.7576 2.1956 0 0.25572 2.3838 0.0084 3.1105-0.32268zm-3.3238-0.15998c0-0.08863 0.28796-0.5235 0.63991-0.96638 0.35196-0.44288 0.63992-0.93161 0.63992-1.0861 0-0.37665-1.9141-1.8222-2.1884-1.6527-0.22218 0.13732-0.0893 3.0735 0.16959 3.7482 0.12769 0.33276 0.73895 0.29714 0.73895-0.04307zm-1.3598-0.45978c-0.0733-0.36662-0.13331-1.4181-0.13331-2.3366v-1.67l-1.0132-0.77562c-0.94902-0.72649-1.0175-0.74732-1.0815-0.32888-0.12432 0.81348 0.40892 2.7754 1.1652 4.2872 0.78901 1.5771 1.2913 1.9665 1.0628 0.82387zm7.6523-0.69014c0.70391-0.39144 1.3083-0.85668 1.343-1.0339 0.0612-0.3123-2.848-2.7287-3.2853-2.7287-0.21034 0-1.7197 1.9136-1.919 2.4329-0.12618 0.32881 1.7732 2.0444 2.2615 2.0426 0.17597-0.00064 0.89588-0.32144 1.5998-0.71289zm6.5349-0.36603 1.1441-1.0828-0.85322-0.75369c-1.7973-1.5876-1.6964-1.5824-2.9997-0.15579-0.63414 0.69413-1.1545 1.3206-1.1564 1.3922-0.002 0.07155 0.24732 0.31152 0.55371 0.53326s0.76233 0.56794 1.0132 0.76935c0.71071 0.57058 1.0689 0.46109 2.2983-0.70246zm-16.35-1.0595c-0.28106-0.82635-0.57605-2.0772-0.65553-2.7798-0.11408-1.0084-0.25689-1.3657-0.67822-1.6971-0.80785-0.63546-0.97619-0.53238-0.83329 0.51022 0.22879 1.6692 1.9531 5.4691 2.4818 5.4691 0.10795 0-0.0337-0.6761-0.31474-1.5025zm20.469-0.27195c0.29692-0.50665 0.59914-1.2176 0.67161-1.58 0.10981-0.54908 0.0407-0.71846-0.41482-1.0169-0.30063-0.19698-0.64057-0.30005-0.75544-0.22906-0.25099 0.15512-1.5164 2.4542-1.5164 2.7551 0 0.36555 0.68876 0.99212 1.0906 0.99212 0.22784 0 0.60456-0.37541 0.92441-0.92118zm-13.991-1.1776c0.604-0.77823 0.82888-1.2373 0.71013-1.4495-0.21409-0.38255-3.187-2.6376-3.4772-2.6376-0.59394 0-1.2765 3.1927-0.80423 3.7618 0.465 0.56029 2.4021 1.7914 2.5506 1.621 0.0752-0.08626 0.5345-0.66934 1.0206-1.2957zm7.0499 0.06259c0.37578-0.42799 0.65359-0.93207 0.61737-1.1202-0.0363-0.18811-0.91276-1.011-1.9479-1.8286l-1.882-1.4866-0.51138 0.62278c-0.28126 0.34253-0.77422 0.99338-1.0955 1.4463l-0.5841 0.82355 0.76051 0.66959c0.41828 0.36827 1.2165 1.0269 1.7739 1.4635 0.9613 0.75311 1.0436 0.77836 1.5996 0.49083 0.32239-0.16672 0.89362-0.65329 1.2694-1.0813zm5.0968-0.45621c0.93017-1.591 0.85273-2.0837-0.48621-3.0935-0.58411-0.44052-1.1291-0.73172-1.2111-0.64712s-0.49176 0.76261-0.91061 1.5067c-0.49674 0.88245-0.70133 1.4605-0.58838 1.6623 0.17387 0.31068 2.1406 1.7878 2.3698 1.78 0.0673-0.0023 0.43923-0.54608 0.82644-1.2084zm-16.059-2.642 0.39797-1.7425-0.73397-0.60344c-1.0491-0.8625-1.6664-1.1648-1.8995-0.93022-0.27213 0.2739-0.67999 2.9585-0.51485 3.3889 0.16246 0.42337 1.9908 1.8532 2.2024 1.7224 0.0825-0.05097 0.32905-0.87679 0.54793-1.8351zm13.047 0.21256c0.65272-1.0937 0.92926-2.3305 0.5211-2.3305-0.1024 0-0.83025-0.52793-1.6174-1.1732-0.78719-0.64525-1.5534-1.1732-1.7027-1.1732-0.28435 0-2.0396 2.3593-2.0396 2.7415 0 0.12138 0.35996 0.51281 0.7999 0.86986 2.5165 2.0423 2.9466 2.3566 3.1377 2.2929 0.11569-0.03856 0.52116-0.59091 0.90102-1.2274zm6.2647 0.09527c0.34166-1.4726 0.24559-2.3525-0.3276-3.0005-0.69926-0.79047-0.88061-0.50243-1.0764 1.7097-0.14421 1.6291-0.12846 1.7218 0.35418 2.0865 0.60034 0.45363 0.79405 0.30681 1.0498-0.79573zm-13.04-0.5c0.95824-1.2838 0.99302-1.3817 0.60472-1.7019-2.6104-2.1523-3.4467-2.7833-3.6886-2.7833-0.4429 0-1.635 1.8737-1.6681 2.6218-0.0262 0.59349 0.15679 0.80121 1.7704 2.0091 0.98981 0.74095 1.8695 1.2739 1.9549 1.1844 0.0854-0.08952 0.5474-0.68811 1.0266-1.3302zm11.126-1.1084c0.31756-1.6432 0.23894-2.467-0.28284-2.9641-0.66134-0.63004-1.4326-1.1308-1.5543-1.0091-0.0974 0.09745-0.93674 3.1149-0.947 3.4047-0.003 0.07801 0.49116 0.5369 1.0976 1.0198 1.2379 0.98566 1.4182 0.93745 1.6865-0.45119zm-20.61-0.12381c0.0799-0.55726 0.25391-1.3862 0.3866-1.842 0.2299-0.78972 0.21162-0.85254-0.38773-1.3321-1.119-0.89532-1.3298-0.66279-1.5291 1.6871-0.11115 1.3101-0.0762 1.4954 0.37257 1.9731 0.72398 0.77064 0.99367 0.65741 1.1577-0.48604zm11.934-2.0131c0.53945-0.72593 0.98046-1.4218 0.98002-1.5465-0.00071-0.22538-1.926-1.8517-3.0315-2.5608-0.55742-0.35757-0.60274-0.35487-1.2016 0.07154-0.94486 0.6728-1.9526 1.9062-1.8263 2.2353 0.0618 0.1611 0.75473 0.80869 1.5398 1.4391 0.78508 0.63041 1.5543 1.2666 1.7093 1.4137 0.50406 0.47833 0.83351 0.28889 1.8302-1.0524zm-7.0636-0.27046c0.43561-0.75737 0.792-1.4742 0.792-1.5929 0-0.36388-2.3184-1.9925-2.6534-1.8639-0.37691 0.14463-1.6079 2.2368-1.6107 2.7375-0.002 0.41998 1.8761 2.0929 2.3522 2.0949 0.18032 0.000782 0.68426-0.61829 1.1198-1.3757zm12.994-0.33142c0.20534-0.87877 0.32386-1.7417 0.26339-1.9177-0.0604-0.17598-0.57286-0.67632-1.1387-1.1119-0.84032-0.64689-1.0869-0.74455-1.3462-0.53326-0.5935 0.4836-1.7023 2.2386-1.6287 2.5778 0.10141 0.46738 2.7739 2.6921 3.1615 2.6318 0.20466-0.03184 0.44624-0.6096 0.68859-1.6468zm4.65 0.466c0-0.88032-1.529-4.5181-1.899-4.5181-0.10192 0-0.004 0.68942 0.2169 1.532 0.22123 0.84262 0.40223 1.7229 0.40223 1.9563 0 0.23333 0.15885 0.59978 0.35302 0.81432 0.36057 0.39843 0.9268 0.53008 0.9268 0.21549zm-21.374-1.769c0.19986-0.36534 0.57934-0.99352 0.84331-1.396 0.6291-0.95911 0.60712-1.1784-0.1762-1.7575-0.61588-0.45533-0.68029-0.46324-1.0497-0.12891-0.21648 0.1959-0.66342 0.87155-0.99321 1.5014l-0.59962 1.1453 0.62272 0.64998c0.34251 0.35749 0.70522 0.64998 0.80605 0.64998 0.10082 0 0.34683-0.29892 0.54667-0.66426zm19.353-0.34258c-0.31909-1.7009-1.2763-3.9256-1.7125-3.9801-0.12204-0.01524-0.1815 0.67064-0.14571 1.6807 0.0592 1.6719 0.0765 1.7204 0.85006 2.3965 0.43428 0.37954 0.87225 0.6915 0.9733 0.69324 0.10105 0.0018 0.11673-0.35392 0.0348-0.79036zm-6.135-1.0035c0.49706-0.63642 0.90374-1.3009 0.90374-1.4765 0-0.39843-1.6642-1.8467-2.1181-1.8432-0.54457 0.0041-2.8889 1.3972-2.9598 1.7587-0.0358 0.18301 0.0602 0.43704 0.2133 0.5645 1.742 1.4495 2.6617 2.1452 2.841 2.149 0.11887 0.0025 0.6228-0.51612 1.1198-1.1526zm-6.9105-0.26696c0.66101-0.60728 1.2018-1.211 1.2018-1.3417 0-0.41809-1.7952-1.9215-2.2978-1.9242-0.27526-0.0015-0.90342 0.3833-1.4537 0.89052-1.5435 1.4227-1.5471 1.4894-0.14011 2.6083 0.6739 0.53597 1.2844 0.95126 1.3566 0.92286s0.67216-0.5485 1.3332-1.1558zm10.725-1.1889c-0.074-0.61592-0.13534-1.3358-0.13636-1.5998-0.00071-0.26396-0.13308-0.47994-0.29347-0.47994-0.28929 0-1.4148 1.5113-1.4148 1.8997 0 0.27838 1.318 1.2946 1.6828 1.2975 0.23252 0.0018 0.26737-0.23883 0.16183-1.1175zm-13.845-1.2676c0.67582-0.60919 1.256-1.2133 1.2893-1.3426 0.0333-0.12922-0.18615-0.46665-0.4876-0.74986-0.54168-0.50889-0.55638-0.51046-1.2548-0.13432-0.96775 0.52116-2.2673 1.6746-2.2656 2.0109 0.001 0.32956 0.95484 1.3235 1.2693 1.3235 0.1214 0 0.77368-0.49843 1.4495-1.1076zm5.8148 0.36105c0.14605-0.17598 0.35669-0.31996 0.46807-0.31996 0.1114 0 0.63348-0.25255 1.1602-0.56122l0.95766-0.56122-0.59972-0.63031c-0.32984-0.34667-0.76514-0.72006-0.96736-0.82975-0.69333-0.37611-4.0227 0.75856-3.9915 1.3603 0.0197 0.38057 1.8665 1.8621 2.3212 1.8621 0.21226 0 0.50541-0.14398 0.65146-0.31996zm6.2848-0.47612c0.58028-0.85396 0.68833-1.337 0.29907-1.337-0.20795 0-1.2743 0.26173-2.2997 0.56445-0.21655 0.06393-0.0992 0.29818 0.41512 0.82886 0.39435 0.40686 0.79069 0.73974 0.88077 0.73974 0.0901 0 0.4072-0.35824 0.70472-0.79608zm-0.89886-1.5476c0.67458-0.13544 1.2265-0.32587 1.2265-0.42317 0-0.40648-3.9774-0.9745-4.4794-0.63972-0.26782 0.1786-0.20328 0.31995 0.39612 0.86747 0.48748 0.4453 0.86199 0.6202 1.1732 0.5479 0.25141-0.05842 1.009-0.21703 1.6836-0.35247zm-7.4123-0.70488c0.7039-0.28661 1.4586-0.58296 1.6771-0.65856 0.33142-0.11466 0.35201-0.19203 0.12419-0.46653-0.563-0.67837-1.007-0.75645-2.3389-0.41131-1.5823 0.41001-2.342 0.74497-2.342 1.0326 0 0.3972 0.9443 1.2323 1.2751 1.1276 0.17857-0.05648 0.90059-0.3372 1.6045-0.6238zm6.1892-1.0432c0.20946-0.20946-1.2051-0.61434-2.6164-0.74889-1.1312-0.10785-1.3332-0.07557-1.3332 0.2131 0 0.18711 0.16798 0.43758 0.37328 0.5566 0.38246 0.22172 3.351 0.20444 3.5762-0.02081zm5.6492-0.28982c-0.52793-0.41298-1.3198-0.94186-1.7598-1.1753-0.95147-0.50482-1.0051-0.77488-0.21369-1.0758 0.32241-0.12258 0.73052-0.35349 0.90693-0.51313 0.1764-0.15964 0.7525-0.32094 1.2802-0.35844 0.84367-0.05995 0.96669-0.13254 1.0192-0.60144 0.15747-1.4062 0.22278-1.4931 1.1221-1.4931 0.70092 0 0.8967 0.09432 1.0938 0.52694 0.29499 0.64743-0.0205 1.1054-1.061 1.5403-0.68618 0.28682-0.70129 0.3204-0.56208 1.2487 0.09 0.60003 0.0539 1.0614-0.0973 1.2436-0.13218 0.15927-0.2152 0.51442-0.18449 0.78921 0.085 0.76003-0.46396 0.71325-1.5439-0.13158z"/>
 </g>
</svg>
