<?xml version="1.0" encoding="UTF-8" standalone="no"?>
<!-- Created with Inkscape (http://www.inkscape.org/) -->
<svg id="svg2" xmlns:rdf="http://www.w3.org/1999/02/22-rdf-syntax-ns#" xmlns="http://www.w3.org/2000/svg" height="45" width="67.5" version="1.1" xmlns:cc="http://creativecommons.org/ns#" xmlns:dc="http://purl.org/dc/elements/1.1/">
 <metadata id="metadata7">
  <rdf:RDF>
   <cc:Work rdf:about="">
    <dc:format>image/svg+xml</dc:format>
    <dc:type rdf:resource="http://purl.org/dc/dcmitype/StillImage"/>
    <dc:title/>
   </cc:Work>
  </rdf:RDF>
 </metadata>
 <g id="g18595">
  <rect id="rect2990" opacity="0" height="45" width="67.5" y="0" x="3.5527e-15"/>
  <path id="path6947" d="m46.402 44.166c-3.2095-1.4944-5.2814-5.1749-5.2814-9.3817 0-4.7832 1.7171-7.6601 6.4332-10.779 2.2167-1.4658 1.6919-1.5642-1.1714-0.21972-1.9741 0.927-3.9868 3.1636-5.203 5.7821-0.79311 1.7075-0.95539 2.5763-0.93508 5.0068 0.0262 3.1347 0.54418 4.8192 2.2346 7.2669 1.0547 1.5272 0.96162 1.9401-0.36239 1.6078-1.5424-0.38711-2.7701-1.6704-4.0125-4.194-1.1132-2.2613-1.2107-2.7419-1.2086-5.9597 0.002-3.2257 0.0952-3.6781 1.1876-5.7729 1.5287-2.9314 3.2263-4.5506 6.464-6.1657 2.0885-1.0418 2.4075-1.303 1.5919-1.303-1.468 0-4.9232 1.7353-6.6806 3.3552-0.83029 0.76533-1.9952 2.3499-2.5888 3.5214-0.89248 1.7614-1.1011 2.6775-1.2058 5.2955-0.11947 2.9895-0.0529 3.3251 1.1977 6.0319 0.72837 1.5765 1.2544 2.9362 1.169 3.0216-0.0854 0.08543-0.48751-0.02246-0.89351-0.23975-2.2584-1.2086-3.907-5.6954-3.6601-9.9608 0.3567-6.1619 4.2998-10.78 10.496-12.294 1.709-0.41755 1.9528-0.56365 1.2829-0.76873-0.45492-0.13926-0.82712-0.37523-0.82712-0.52438 0-0.26109 2.6853-1.1086 7.7198-2.4363 1.3142-0.3466 2.5962-0.79 2.849-0.98532 0.30968-0.23935 0.45951-1.4791 0.45951-3.8024 0-2.5121-0.12466-3.4476-0.45951-3.4484-0.25273-0.000625-1.6175 0.32195-3.0328 0.71687s-4.2275 1.1492-6.2493 1.6761c-2.0218 0.52694-5.4958 1.4579-7.7198 2.0687-2.224 0.61086-4.5618 1.2414-5.1951 1.4012-1.8131 0.45761-1.9733 0.67908-1.9733 2.7285 0 1.0614-0.20678 2.2018-0.45952 2.5341-0.25273 0.33234-1.7829 0.94986-3.4004 1.3723-6.9186 1.8068-9.7078 2.692-9.8778 3.135-0.3333 0.86856 0.19005 2.0453 0.82502 1.855 0.32875-0.09852 2.831-0.75934 5.5605-1.4685s6.7824-1.7902 9.0064-2.4023c5.5222-1.5198 5.6852-1.4836 3.4484 0.76495-1.1417 1.1477-2.3644 2.9184-3.1334 4.5377-1.2826 2.7008-1.4326 3.9539-1.1234 9.3873l0.0733 1.2866-6.4332 2.1693c-6.9608 2.3473-10.715 2.9492-12.858 2.0614-1.1072-0.45861-1.1107-0.4694-1.1092-3.4482 0.0008-1.6435 0.10869-5.0896 0.23965-7.6579l0.23816-4.6697 1.8741-0.10918 1.8741-0.10918v-3.6438-3.6438l-2.3676-0.48295c-1.3022-0.26562-2.4602-0.39081-2.5733-0.27818-0.22462 0.22366-0.66173 23.214-0.45489 23.926 0.29777 1.0242 1.9682 1.6176 4.764 1.6924 2.6052 0.06964 3.3994-0.11219 9.7045-2.2217 6.602-2.2088 8.5826-2.7041 7.8188-1.9551-0.19207 0.18837-3.6577 1.44-7.7014 2.7815-7.036 2.3341-7.479 2.4331-10.301 2.3011-2.0535-0.09606-3.3221-0.35463-4.1777-0.85155l-1.2287-0.71361 0.18686-12.757c0.14387-9.8221 0.0819-12.901-0.26943-13.381-0.25096-0.34321-0.54468-0.47489-0.65272-0.29262-0.10808 0.18227-0.31522 6.001-0.46041 12.931-0.2363 11.278-0.20156 12.694 0.33135 13.508 0.93876 1.4327 2.8374 2.0144 6.5994 2.0218 3.1552 0.0061 3.8004-0.13954 10.809-2.4412 6.6894-2.1968 8.6395-2.6191 7.5938-1.6447-0.34728 0.32361-5.9013 2.1842-12.29 4.1172-2.5499 0.77147-4.266 1.0577-6.3595 1.0608-3.0124 0.0044-4.1143-0.35694-6.4697-2.1215l-1.2495-0.93612 0.25322-13.817c0.27873-15.208 0.22396-14.873 2.6519-16.229 0.59738-0.33373 1.5775-1.0963 2.1781-1.6947 0.7865-0.78361 1.7455-1.226 3.4286-1.5817 1.7569-0.37127 2.6234-0.78536 3.4923-1.6689 1.4194-1.4435 2.4718-2.0162 3.7047-2.0162 0.76411 0 0.94319 0.17668 0.94319 0.93056 0 0.51181 0.25861 1.0298 0.57468 1.1511 0.82056 0.31488 5.2157-0.94564 5.4529-1.5639 0.13234-0.34487 0.78555-0.5185 1.9564-0.52 0.96672-0.0013 2.2365-0.252 2.8218-0.55722 0.98921-0.51588 1.1004-0.50323 1.5787 0.17966 0.64188 0.91642 3.7697 3.0962 4.0461 2.8198 0.11225-0.11227-0.34822-0.66584-1.0233-1.2302-0.6751-0.56432-1.6471-1.4114-2.1599-1.8825l-0.935-0.8552 0.916 0.2019c0.51256 0.11302 3.9123-0.5383 7.7198-1.479 3.7421-0.9245 7.5282-1.7306 8.4134-1.7913 1.9957-0.13682 3.6123 0.39926 4.1319 1.3702 0.21757 0.40654 0.98396 1.2558 1.7031 1.8871l1.3075 1.148-0.23745 10.113c-0.20628 8.7852-0.15953 10.331 0.35595 11.768 0.84761 2.3628 0.75231 6.6297-0.20934 9.374-1.5927 4.5452-5.1409 8.1489-8.845 8.9834-2.3009 0.51836-2.5168 0.49534-4.644-0.49513zm6.3934-1.2005c3.2456-1.6421 5.6007-5.141 6.5612-9.7477 0.87665-4.2044-0.0879-7.5579-2.5326-8.8051-1.6931-0.86375-2.1641-0.64466-1.1048 0.51389 1.6163 1.7678 2.1201 3.2713 2.0725 6.1859-0.0366 2.2444-0.24505 3.1947-1.0708 4.881-2.0316 4.149-4.8711 6.0952-8.9133 6.1093-2.5114 0.0087-2.7222 0.42328-0.66939 1.3166 1.7634 0.76739 3.522 0.62628 5.657-0.45393zm-2.9996-5.5988c2.7371-1.243 4.3731-4.7571 3.7671-8.0917-0.34849-1.9178-1.6694-3.3389-3.1034-3.3389-2.025 0-4.9238 2.2827-6.3021 4.9627-0.68004 1.3223-0.90919 3.796-0.47384 5.1152 0.67032 2.0311 3.3249 2.6186 6.1123 1.3528zm-5.5549-3.3504c-0.33848-0.54767 0.51065-2.9351 1.5291-4.2991 1.0936-1.4648 3.29-2.5842 4.0856-2.0823 0.74726 0.47135 1.7046 3.5497 1.4362 4.6184-0.11752 0.46813-0.44437 1.1665-0.72628 1.5519-0.46599 0.63712-0.67271 0.66043-2.2761 0.25669-1.2335-0.31061-1.8798-0.32788-2.1502-0.05745-0.49297 0.49297-1.5966 0.49985-1.8982 0.01189zm-20.608-14.889c2.8155-0.72405 5.2555-1.4007 5.4222-1.5038 0.16669-0.10302 0.30307-1.0047 0.30307-2.0037 0-1.6552-0.0757-1.8163-0.85354-1.8163-0.46944 0-1.586 0.2284-2.4814 0.50755-0.8953 0.27915-2.6204 0.79658-3.8335 1.1498-4.8142 1.4019-4.7496 1.364-5.0065 2.9444-0.28805 1.7721-0.0608 2.4632 0.73068 2.2216 0.32988-0.10071 2.9034-0.77553 5.7189-1.4996zm-5.4868 0.19036c-0.12496-0.20218-0.052-0.36761 0.16211-0.36761 0.21412 0 0.38931 0.16542 0.38931 0.36761 0 0.20218-0.0729 0.36761-0.16212 0.36761-0.0892 0-0.26433-0.16542-0.3893-0.36761zm3.2004-1.164c-1.2073-0.7644-1.5374-1.4107-0.71904-1.4074 0.69677 0.0028 2.6541 1.6861 2.2506 1.9355-0.19412 0.11998-0.8833-0.11766-1.5315-0.52808zm1.9334-0.28858c-0.89581-0.36311-1.8332-1.4191-1.5294-1.7229 0.27784-0.27783 2.8288 1.2868 2.8288 1.735 0 0.39994-0.28938 0.39724-1.2994-0.01213zm-2.795-3.1222c8.2735-2.2472 14.207-3.9448 14.375-4.113 0.21527-0.21528-0.85338-1.0929-3.6086-2.9635-1.9656-1.3345-1.9676-1.335-3.8599-0.85915-1.0413 0.26184-2.9305 0.94173-4.1983 1.5109l-2.305 1.0348 0.23288 1.4564c0.20334 1.2716 0.10796 1.5656-0.7516 2.3172-1.1919 1.0423-2.0757 1.3282-4.2452 1.3736-2.2704 0.04748-4.3239-0.58152-4.7995-1.4701-0.51621-0.96455-1.9605-0.798-2.1095 0.24326-0.11519 0.80514 0.46572 1.2197 3.049 2.1762 1.7794 0.65878 3.8487 0.48093 8.2205-0.70649zm5.0747-3.0224c-0.34669-0.34668-0.29416-2.4168 0.0762-3.0009 0.17605-0.27772 0.76916-0.43653 1.3729-0.36761 0.96495 0.11015 1.0734 0.26538 1.176 1.6837 0.0859 1.187-0.018 1.5623-0.43255 1.5623-0.30008 0-0.62291-0.28949-0.71739-0.64332-0.1455-0.54482-0.21246-0.51668-0.43744 0.1838-0.27001 0.84069-0.59609 1.0236-1.0376 0.58205zm33.575-2.1919c0-3.724-0.28782-4.2744-1.8093-3.4602-0.68942 0.36897-0.76394 0.74224-0.76394 3.8269 0 1.8799 0.0968 3.5149 0.21506 3.6331 0.11824 0.11828 0.69726 0.04696 1.2866-0.1585l1.0716-0.37355v-3.4679zm-39.24 2.1267 0.8252-0.83739-0.87919-0.72202c-1.0272-0.84356-1.0814-0.76192 1.1549-1.7381 1.536-0.67047 1.7461-0.89745 1.7461-1.8857 0-1.6406-1.3671-1.5183-3.2499 0.29064-1.1544 1.1092-1.9674 1.5193-3.7698 1.9018-2.4209 0.51375-3.6409 1.3633-3.6409 2.5352 0 1.0074 1.5914 1.4974 4.5051 1.387 2.0221-0.07656 2.6365-0.24955 3.3085-0.93142zm-5.2403 0.34891c-1.4748-0.41022-1.2056-1.6221 0.45119-2.0314 2.3639-0.584 4.3628 0.99026 2.5138 1.9798-0.78767 0.42155-1.5852 0.43543-2.965 0.05162zm34.487-5.0247c1.681-0.48703 3.3208-1.0335 3.6441-1.2144 0.654-0.366 0.411-0.483-2.005-0.9691-0.999-0.2009-1.25-0.4687-1.577-1.6817-0.213-0.7935-0.589-1.4415-0.834-1.4401-0.24494 0.0014-1.8514 0.33834-3.57 0.74872-6.7135 1.6031-6.867 1.7184-4.5951 3.4513 0.93336 0.71191 1.2866 1.2655 1.2866 2.0163v1.0349l2.2976-0.53062c1.2637-0.29184 3.6729-0.9291 5.3538-1.4161zm-11.061 1.0663c0.12573-0.3821-2.985-3.0731-3.5363-3.0592-0.12256 0.0031-0.46315 0.15765-0.75686 0.34345-0.4276 0.2705-0.20783 0.63434 1.1028 1.8258 1.5773 1.4338 2.8908 1.8003 3.1903 0.88997zm-3.9429-0.43287c0-0.36739-2.6522-2.308-2.8643-2.0958-0.17849 0.17849 2.2008 2.3788 2.5886 2.3939 0.15164 0.0059 0.27571-0.12823 0.27571-0.29812zm21.481-3.3581c0.51862-0.19718 0.94295-0.59105 0.94295-0.87526 0-0.40583-0.71357-0.51675-3.3245-0.51675-2.3086 0-3.2827 0.12704-3.1875 0.41575 0.3794 1.1515 3.6158 1.7189 5.5691 0.97626zm2.4685-0.1929c0-0.19208-0.17784-0.4085-0.39518-0.48095-0.21735-0.07245-0.39518 0.14398-0.39518 0.48095s0.17783 0.5534 0.39518 0.48095c0.21734-0.07245 0.39518-0.28888 0.39518-0.48095zm-26.89 12.409c0-3.0005-0.36229-2.7243 5.6979-4.3447 5.2715-1.4096 7.5718-1.799 7.8611-1.3308 0.13149 0.21274 0.15347 1.3491 0.0489 2.5252-0.18822 2.116-0.20558 2.1434-1.6606 2.6214-2.0733 0.68109-9.3229 2.6286-10.753 2.8885l-1.1947 0.21721v-2.5768zm6.8678-0.10364c2.3893-0.61257 4.6173-1.1975 4.951-1.2998 0.73106-0.22414 1.1512-1.6662 0.77115-2.6465-0.26927-0.69449-0.32949-0.69562-2.8484-0.05338-4.4878 1.1443-6.9591 1.8639-7.625 2.2202-0.81769 0.43762-0.91923 2.8932-0.11959 2.8932 0.2896 0 2.4815-0.5012 4.8708-1.1138zm7.8421-3.5732c0.002-1.1626 0.15565-2.3508 0.339-2.6406 0.49192-0.77738 6.6885-2.4314 7.6814-2.0503 0.35604 0.13663 0.44058 0.63368 0.2979 1.7516-0.10955 0.85843-0.20763 1.9022-0.2179 2.3194-0.0157 0.63722-0.56571 0.91659-3.4378 1.7461-4.7757 1.3794-4.6694 1.4051-4.6627-1.1262zm6.9661-0.6354c0.20923-0.12931 0.38041-0.80433 0.38041-1.5 0-1.1403-0.0996-1.2627-1.0109-1.2425-0.55601 0.01235-1.9208 0.30674-3.0328 0.65419-1.8768 0.58642-2.0304 0.72047-2.141 1.8689-0.0668 0.6927 0.0762 1.3579 0.32466 1.5115 0.40454 0.25002 4.576-0.73362 5.4796-1.2921z"/>
 </g>
</svg>
