<?xml version="1.0" encoding="UTF-8" standalone="no"?>
<!-- Created with Inkscape (http://www.inkscape.org/) -->
<svg id="svg2" xmlns:rdf="http://www.w3.org/1999/02/22-rdf-syntax-ns#" xmlns="http://www.w3.org/2000/svg" height="54" width="99" version="1.1" xmlns:cc="http://creativecommons.org/ns#" xmlns:dc="http://purl.org/dc/elements/1.1/">
 <metadata id="metadata7">
  <rdf:RDF>
   <cc:Work rdf:about="">
    <dc:format>image/svg+xml</dc:format>
    <dc:type rdf:resource="http://purl.org/dc/dcmitype/StillImage"/>
    <dc:title/>
   </cc:Work>
  </rdf:RDF>
 </metadata>
 <g id="g11712">
  <rect id="rect2990" opacity="0" height="54" width="99" y="0" x="0"/>
  <path id="path7613" d="m49.097 49.196c-0.95918-0.3065-1.7803-1.2913-3.0794-3.693-0.95502-1.7657-1.7797-2.1914-2.7566-1.423-0.5703 0.4486-0.86542 0.50756-1.5532 0.31032-1.0194-0.29236-2.2216-1.3899-2.6468-2.4165-0.17021-0.41094-0.72289-0.96979-1.2282-1.2419-0.78464-0.42256-1.0508-0.44695-1.8244-0.16722-2.0001 0.72323-5.2414 0.23049-8.3998-1.2769-1.5773-0.75282-2.6691-1.1001-3.4673-1.103-1.4207-0.005-1.7441-0.19219-1.984-1.1483-0.18781-0.74832-0.77435-1.3149-2.8284-2.732-1.2612-0.87014-1.3155-0.97268-2.3113-4.3605-0.39331-1.3381-0.88886-2.7605-1.1012-3.1608-0.54596-1.0291-0.7539-3.6029-0.42077-5.208 0.60236-2.9023 0.84775-3.89 1.6483-6.6343 0.45542-1.5611 0.8288-3.3045 0.82973-3.8742 0.0009-0.78871 0.23516-1.3207 0.98039-2.2302 0.5692-0.69464 1.207-1.1944 1.5244-1.1944 0.30013 0 1.7572 0.37384 3.2378 0.83075 5.2129 1.6086 7.8472 1.9242 17.153 2.0548 7.0381 0.09875 8.5583 0.05295 9.1964-0.27704 0.65762-0.34007 0.88901-0.34299 1.6551-0.02086 0.48984 0.20596 1.7039 0.44978 2.698 0.54181 1.1405 0.1056 2.0877 0.36455 2.5672 0.70185 0.71909 0.50582 0.79701 0.5102 1.4512 0.08155 0.65638-0.43007 0.72965-0.42462 1.45 0.10792 0.64218 0.47478 0.88697 0.51614 1.5947 0.26941 1.2435-0.43349 2.095-0.10177 2.7032 1.0531 0.29238 0.55517 1.1454 1.6721 1.8956 2.4821 0.75019 0.81 1.364 1.6239 1.364 1.8088 0 0.18481 0.11363 0.40624 0.2525 0.49207 0.42406 0.26208 2.3928-0.67125 2.833-1.343 0.2279-0.34782 0.69131-0.72021 1.0298-0.82755s1.0798-0.4882 1.6474-0.84637c0.91137-0.57513 1.0119-0.74248 0.86035-1.4324-0.15142-0.68939-0.0391-0.87715 0.95536-1.5976 0.61983-0.449 1.3883-0.89655 1.7078-0.99457 1.1903-0.36524 1.5269-1.0467 1.5269-3.0912 0-1.0567 0.11844-2.1427 0.26319-2.4131 0.31964-0.59723 1.3794-0.89926 2.1522-0.61338 0.86616 0.32042 2.9912 3.0552 2.9912 3.8495 0 0.5889-0.56067 1.7172-1.0719 2.1571-0.98416 0.84686-1.3494 2.6507-0.78677 3.8856 0.25093 0.55073 0.21019 0.80059-0.23346 1.4319-1.2843 1.8276-2.7738 6.4034-2.7738 8.521 0 0.57571 0.18247 1.4835 0.40549 2.0172 0.22302 0.53376 0.40549 1.1373 0.40549 1.3412 0 0.20388-0.71669 1.0986-1.5927 1.9883-0.87596 0.88966-1.9264 2.1982-2.3344 2.9078-0.40793 0.70963-0.96122 1.5336-1.2295 1.831-0.2683 0.29742-0.61726 1.1184-0.77548 1.8244-0.28234 1.2599-0.25937 1.3388 1.2424 4.2676 0.84153 1.6412 1.6327 3.0475 1.7582 3.125 0.12548 0.07755 0.22815 0.78403 0.22815 1.5699 0 1.7371-0.60214 2.4925-1.6648 2.0885-1.0284-0.391-3.5886-3.3241-3.9478-4.5227-0.61542-2.0541-0.71452-2.1043-4.0156-2.0326-3.6166 0.0785-4.1318 0.19737-4.4468 1.0258-0.35686 0.93863-1.7758 1.4674-3.1085 1.1584-1.5655-0.36306-2.9069-0.31302-4.6577 0.17372-1.5018 0.41755-1.5903 0.49363-2.4365 2.095-0.52471 0.99304-0.87497 2.0479-0.87042 2.6214 0.0124 1.5684-0.67794 1.8957-2.6617 1.2618zm1.0565-1.5617c2.1108-4.4926 2.1194-4.5035 4.1809-5.2708 0.95006-0.35359 2.1017-0.50632 3.8763-0.5141 2.4309-0.01065 2.5382-0.03686 2.8888-0.70505 0.32005-0.61011 0.61934-0.72702 2.4763-0.9673 1.1618-0.15032 3.2275-0.2638 4.5905-0.25216 2.9162 0.0249 3.4486 0.35057 4.2594 2.6052 0.49549 1.3779 2.0804 3.228 2.7653 3.228 0.93701 0-0.064-2.8237-2.3294-6.5709-0.51437-0.85083-0.59419-1.2656-0.46059-2.3937 0.18641-1.574 1.8304-4.2472 4.1495-6.7474 1.5546-1.6759 1.9212-2.5772 1.4254-3.5036-0.36202-0.67643-0.53811-5.3464-0.20927-5.5496 0.11348-0.07013 0.72261-1.1868 1.3536-2.4815 0.99906-2.0498 1.1506-2.5985 1.1727-4.2463 0.035-2.6091 0.0295-2.5878 0.94616-3.6494 1.2227-1.416 1.2806-2.0108 0.32427-3.331-0.45191-0.62385-1.042-1.1294-1.3182-1.1294-0.42447 0-0.51226 0.25466-0.58044 1.6838-0.0705 1.478-0.18648 1.7919-0.94877 2.5681-0.47764 0.48636-1.2626 1.0915-1.7444 1.3448-0.589 0.30965-0.87594 0.65838-0.87594 1.0646 0 0.33224-0.26903 0.9967-0.59784 1.4766-0.54522 0.79569-1.0437 1.1456-3.1732 2.2274-0.39318 0.19972-0.87138 0.71672-1.0627 1.1489-0.29684 0.67062-0.49988 0.78575-1.3857 0.78575-0.72348 0-1.2911 0.21303-1.8736 0.70321-1.006 0.84645-1.5389 0.70564-1.846-0.48775-0.14844-0.57682-0.49542-1.0201-0.98345-1.2565-0.61316-0.29699-0.72862-0.49855-0.61777-1.0784 0.14549-0.76108-0.20083-1.6651-0.6379-1.6651-0.14563 0-0.51118 0.39535-0.81233 0.87856-0.46636 0.74828-0.52183 1.1491-0.37407 2.7033l0.17345 1.8247h-1.1154c-0.96705 0-1.1536-0.09889-1.4024-0.7434-0.43166-1.1184-0.35562-3.7005 0.13811-4.6902 0.23789-0.47686 0.43252-0.95416 0.43252-1.0607 0-0.10652-0.53788-0.34426-1.1953-0.52832-1.0861-0.30408-1.2924-0.28008-2.2581 0.26266-1.3012 0.73132-2.0567 0.63724-2.1788-0.27135-0.13059-0.97154-0.32494-1.0917-2.4066-1.4884-1.4009-0.26693-2.7626-0.29854-5.367-0.12457-3.3762 0.22553-12.307 0.1227-13.572-0.15626-0.34144-0.07531-1.9228-0.31026-3.5142-0.5221-2.7685-0.36853-5.4691-0.98008-8.2264-1.8628l-1.278-0.40917-0.81712 0.81712c-0.44942 0.44941-0.86961 1.0814-0.93378 1.4045-0.0642 0.32304-0.25835 1.3781-0.43153 2.3445-0.17318 0.96642-0.61584 2.487-0.9837 3.3791-1.2775 3.0981-1.6061 7.9546-0.66324 9.8028 0.31535 0.61812 0.58426 1.4024 0.59759 1.7429 0.0133 0.34045 0.34786 1.5907 0.7434 2.7784 0.68206 2.048 0.80444 2.2223 2.3724 3.3791 0.90926 0.67081 1.914 1.615 2.2327 2.0982 0.47845 0.72538 0.75185 0.87856 1.568 0.87856 0.63993 0 1.9962 0.4909 3.8459 1.392 3.1895 1.5538 4.6348 1.8466 6.1651 1.249 1.1772-0.45973 3.1055-0.30258 4.0804 0.33254 0.34229 0.22302 1.1065 1.0441 1.6983 1.8247 1.116 1.4721 1.6378 1.6794 2.5293 1.0051 0.55201-0.41752 1.9773-0.52731 2.4667-0.19001 0.27896 0.19229 1.5732 2.1258 2.7892 4.1668 0.79022 1.3264 1.5268 1.6108 1.9329 0.74642z"/>
 </g>
</svg>
