<?xml version="1.0" encoding="UTF-8" standalone="no"?>
<!-- Created with Inkscape (http://www.inkscape.org/) -->
<svg id="svg2" xmlns:rdf="http://www.w3.org/1999/02/22-rdf-syntax-ns#" xmlns="http://www.w3.org/2000/svg" height="45" width="67.5" version="1.1" xmlns:cc="http://creativecommons.org/ns#" xmlns:dc="http://purl.org/dc/elements/1.1/">
 <metadata id="metadata7">
  <rdf:RDF>
   <cc:Work rdf:about="">
    <dc:format>image/svg+xml</dc:format>
    <dc:type rdf:resource="http://purl.org/dc/dcmitype/StillImage"/>
    <dc:title/>
   </cc:Work>
  </rdf:RDF>
 </metadata>
 <g id="g19751">
  <rect id="rect2990" opacity="0" height="45" width="67.5" y="0" x="3.5527e-15"/>
  <path id="path7613" d="m33.352 44.426c-0.947-0.302-1.759-1.275-3.042-3.648-0.943-1.744-1.758-2.165-2.723-1.405-0.56338 0.44316-0.85492 0.5014-1.5344 0.30655-1.007-0.28881-2.1946-1.373-2.6147-2.3872-0.16814-0.40595-0.71412-0.95802-1.2133-1.2268-0.77512-0.41743-1.038-0.44153-1.8023-0.16519-1.9758 0.71446-5.1778 0.22769-8.2979-1.2614-1.5582-0.74369-2.6367-1.0868-3.4252-1.0896-1.4035-0.0049-1.7229-0.18986-1.9599-1.1344-0.18553-0.73924-0.76496-1.2989-2.7941-2.6989-1.2459-0.85958-1.2995-0.96088-2.2832-4.3076-0.38854-1.3219-0.87808-2.727-1.0878-3.1224-0.53934-1.0166-0.74475-3.5592-0.41567-5.1448 0.59506-2.8671 0.83747-3.8428 1.6283-6.5538 0.44989-1.5422 0.81874-3.2644 0.81966-3.8272 0.00089-0.77914 0.2323-1.3047 0.96849-2.2031 0.5623-0.68621 1.1924-1.1799 1.5059-1.1799 0.29649 0 1.7359 0.3693 3.1985 0.82067 5.1496 1.5891 7.752 1.9009 16.945 2.0299 6.9527 0.097552 8.4545 0.052308 9.0848-0.27368 0.64964-0.33594 0.87822-0.33883 1.635-0.020607 0.4839 0.20346 1.6832 0.44432 2.6653 0.53524 1.1267 0.10432 2.0624 0.36013 2.5361 0.69333 0.71036 0.49968 0.78734 0.50401 1.4336 0.08056 0.64842-0.42485 0.7208-0.41947 1.4324 0.10661 0.63439 0.46902 0.87621 0.50988 1.5754 0.26614 1.2284-0.42823 2.0696-0.10054 2.6704 1.0403 0.28883 0.54843 1.1315 1.6518 1.8726 2.452 0.74109 0.80017 1.3474 1.6042 1.3474 1.7869 0 0.18257 0.11225 0.40131 0.24944 0.4861 0.41892 0.2589 2.3638-0.66311 2.7986-1.3267 0.22514-0.3436 0.68292-0.71147 1.0173-0.81751s1.0667-0.48228 1.6274-0.8361c0.90031-0.56815 0.99962-0.73347 0.84991-1.415-0.14958-0.68103-0.03863-0.86651 0.94377-1.5782 0.61231-0.44355 1.3715-0.88567 1.6871-0.9825 1.1759-0.36081 1.5084-1.034 1.5084-3.0537 0-1.0439 0.117-2.1167 0.26-2.3838 0.31576-0.58998 1.3627-0.88835 2.1261-0.60594 0.858 0.31617 2.957 3.0178 2.957 3.8024 0 0.58175-0.55387 1.6964-1.0589 2.1309-0.97222 0.83658-1.333 2.6185-0.77722 3.8385 0.24789 0.54405 0.20764 0.79088-0.23063 1.4145-1.2687 1.8054-2.7401 6.3257-2.7401 8.4176 0 0.56872 0.18026 1.4655 0.40057 1.9927 0.22031 0.52728 0.40057 1.1235 0.40057 1.3249 0 0.20141-0.70799 1.0853-1.5734 1.9642-0.86533 0.87886-1.903 2.1715-2.3061 2.8725-0.40298 0.70102-0.94956 1.515-1.2146 1.8088-0.26504 0.29381-0.60977 1.1048-0.76607 1.8023-0.27891 1.2446-0.25622 1.3226 1.2273 4.2158 0.83132 1.6213 1.6129 3.0105 1.7369 3.0871 0.12396 0.07661 0.22538 0.77452 0.22538 1.5509 0 1.716-0.59483 2.4623-1.6446 2.0632-1.0159-0.38626-3.5451-3.2838-3.8999-4.4678-0.60795-2.0292-0.70585-2.0788-3.9669-2.0079-3.5727 0.07755-4.0817 0.19498-4.3928 1.0134-0.35253 0.92724-1.7543 1.4496-3.0708 1.1443-1.5465-0.35866-2.8716-0.30922-4.6012 0.17161-1.4836 0.41248-1.571 0.48764-2.4069 2.0696-0.51834 0.98099-0.86435 2.0231-0.85986 2.5896 0.01225 1.5494-0.66971 1.8727-2.6294 1.2465zm1.0437-1.5428c2.0852-4.4381 2.0937-4.4489 4.1302-5.2068 0.93853-0.3493 2.0762-0.50018 3.8293-0.50786 2.4014-0.01052 2.5074-0.03641 2.8537-0.6965 0.31617-0.60271 0.61183-0.7182 2.4463-0.95556 1.1477-0.1485 3.1883-0.2606 4.5348-0.2491 2.8808 0.0246 3.4068 0.34632 4.2077 2.5736 0.48948 1.3612 2.0552 3.1888 2.7317 3.1888 0.92564 0-0.06322-2.7894-2.3011-6.4912-0.50813-0.84051-0.58698-1.2502-0.455-2.3647 0.18415-1.5549 1.8082-4.1957 4.0992-6.6655 1.5357-1.6556 1.8979-2.5459 1.4081-3.4611-0.35763-0.66822-0.53158-5.2815-0.20673-5.4823 0.1121-0.06928 0.71384-1.1724 1.3372-2.4514 0.98694-2.0249 1.1366-2.567 1.1585-4.1948 0.03457-2.5774 0.02914-2.5564 0.93468-3.6051 1.2079-1.3988 1.2651-1.9864 0.32034-3.2906-0.44643-0.61628-1.0294-1.1157-1.3022-1.1157-0.41932 0-0.50604 0.25157-0.5734 1.6634-0.06965 1.4601-0.18422 1.7702-0.93726 2.5369-0.47184 0.48046-1.2473 1.0783-1.7232 1.3285-0.58185 0.30589-0.86531 0.65039-0.86531 1.0517 0 0.32821-0.26577 0.98461-0.59059 1.4587-0.5386 0.78604-1.031 1.1317-3.1347 2.2004-0.38841 0.1973-0.86081 0.70802-1.0498 1.135-0.29324 0.66248-0.49382 0.77622-1.3689 0.77622-0.7147 0-1.2754 0.21044-1.8509 0.69468-0.99379 0.83618-1.5202 0.69708-1.8236-0.48183-0.14664-0.56982-0.48941-1.0077-0.97152-1.2413-0.60572-0.29339-0.71978-0.4925-0.61028-1.0653 0.14372-0.75185-0.19839-1.6449-0.63016-1.6449-0.14386 0-0.50498 0.39055-0.80247 0.8679-0.4607 0.7392-0.5155 1.1352-0.36953 2.6705l0.17135 1.8026h-1.1019c-0.95532 0-1.1396-0.09769-1.3854-0.73438-0.42642-1.1048-0.3513-3.6556 0.13643-4.6333 0.235-0.47107 0.42727-0.94258 0.42727-1.0478 0-0.10523-0.53135-0.34008-1.1808-0.52191-1.073-0.3014-1.277-0.2777-2.231 0.2585-1.285 0.7224-2.032 0.6295-2.152-0.2681-0.129-0.9597-0.321-1.0784-2.378-1.4703-1.384-0.2637-2.729-0.2949-5.302-0.1231-3.335 0.2228-12.157 0.1212-13.407-0.1543-0.337-0.0744-1.899-0.3065-3.472-0.5158-2.734-0.3641-5.4023-0.9682-8.1261-1.8402l-1.2625-0.40421-0.8072 0.80721c-0.44397 0.44396-0.85906 1.0683-0.92245 1.3875-0.0634 0.31912-0.25522 1.3614-0.4263 2.3161-0.17108 0.95469-0.60837 2.4568-0.97176 3.3381-1.262 3.0605-1.5866 7.8581-0.65519 9.6839 0.31152 0.61062 0.57717 1.3854 0.59033 1.7218 0.0131 0.33632 0.34364 1.5714 0.73438 2.7447 0.67379 2.0232 0.79468 2.1953 2.3436 3.3381 0.89823 0.66267 1.8908 1.5954 2.2056 2.0727 0.47264 0.71658 0.74273 0.8679 1.549 0.8679 0.63217 0 1.972 0.48494 3.7992 1.3751 3.1508 1.5349 4.5786 1.8242 6.0903 1.2338 1.1629-0.45415 3.0678-0.29891 4.0309 0.3285 0.33814 0.22031 1.0931 1.0314 1.6777 1.8026 1.1025 1.4542 1.6179 1.659 2.4986 0.9929 0.54531-0.41245 1.9533-0.52091 2.4368-0.1877 0.27558 0.18996 1.5541 2.1 2.7554 4.1162 0.78063 1.3103 1.5083 1.5913 1.9094 0.73736z"/>
 </g>
</svg>
