<?xml version="1.0" encoding="UTF-8" standalone="no"?>
<!-- Created with Inkscape (http://www.inkscape.org/) -->
<svg id="svg2" xmlns:rdf="http://www.w3.org/1999/02/22-rdf-syntax-ns#" xmlns="http://www.w3.org/2000/svg" height="45" width="67.5" version="1.1" xmlns:cc="http://creativecommons.org/ns#" xmlns:dc="http://purl.org/dc/elements/1.1/">
 <metadata id="metadata7">
  <rdf:RDF>
   <cc:Work rdf:about="">
    <dc:format>image/svg+xml</dc:format>
    <dc:type rdf:resource="http://purl.org/dc/dcmitype/StillImage"/>
    <dc:title/>
   </cc:Work>
  </rdf:RDF>
 </metadata>
 <g id="g18776">
  <rect id="rect2990" opacity="0" height="45" width="67.5" y="0" x="3.5527e-15"/>
  <path id="path7058" d="m10.963 44.189c-0.0838-0.44668-0.10701-5.4856-0.0516-11.198 0.0933-9.6163 0.13934-10.533 0.62163-12.382 1.1329-4.3422 3.4199-8.5194 6.376-11.646 0.85326-0.90237 0.85992-0.92574 0.48832-1.7133-0.2072-0.43914-0.3292-0.93612-0.27111-1.1044 0.13929-0.40348 1.0517-0.37722 1.6104 0.04635 0.39648 0.30058 0.65923 0.1813 2.4476-1.1111 3.0584-2.2102 5.7624-3.4473 9.7132-4.4436 1.9069-0.48087 2.8615-0.53227 11.442-0.61617 5.4655-0.053438 9.3619 0.0003173 9.3619 0.12916 0 0.12139-0.53495 0.34418-1.1888 0.49511-1.2641 0.2918-3.1992 1.1481-4.8077 2.1275-1.2097 0.73655-2.8634 2.3006-2.7044 2.5578 0.0648 0.10475 0.98935 0.25767 2.0547 0.33982 2.4659 0.19016 4.2757 0.97519 5.9935 2.5998 5.6713 5.3637 2.7242 14.658-5.0714 15.993-2.9691 0.50859-6.3496-0.66934-8.6864-3.0268-1.219-1.2298-2.2669-3.6145-2.4186-5.504-0.0699-0.87137-0.22847-1.6469-0.35227-1.7234-0.66943-0.41373-3.8481 2.8444-3.8616 3.9581-0.006 0.48296 2.2314 2.8753 12.868 13.76 3.7759 3.864 3.921 3.982 4.8872 3.9773 1.2707-0.0062 3.269-0.5996 5.0549-1.501 2.2964-1.159 2.1486-1.506 2.1486 5.045v5.7518h-22.751-22.751l-0.15236-0.81214zm5.1434-0.93666c2.0262-0.32491 4.1042-1.0762 6.1231-2.2137 2.5339-1.4277 3.3424-1.7266 4.9987-1.8481 1.6533-0.12127 2.2216-0.45831 2.2216-1.3176 0-1.1011-2.106-0.64354-4.9308 1.0712-1.0106 0.61351-2.2146 1.2307-2.6754 1.3715-0.46083 0.14081-1.6138 0.52161-2.5623 0.84623-1.7786 0.60875-3.6014 0.87808-6.0466 0.89341-1.328 0.0083-1.4074 0.04264-1.4074 0.60855 0 1.0727 0.67808 1.166 4.279 0.58854zm38.741-1.6778c0.16814-0.26923 0.2493-0.48951 0.18037-0.48951-0.0689 0-0.53633 0.22028-1.0387 0.48951l-0.91332 0.48951h0.73295c0.46788 0 0.84351-0.17703 1.0387-0.48951zm-21.091-0.501c0.79494-0.27602 1.8308-0.61789 2.302-0.75971 0.47116-0.14183 0.96679-0.34506 1.1014-0.45164 0.32877-0.26028 3.4154-1.1431 4.7115-1.3476 1.1374-0.17942 1.2533-0.36256 0.62608-0.98975-0.69581-0.69581-3.1669-0.35451-6.174 0.85276-2.4824 0.99664-3.0447 1.0906-5.5178 0.92198-0.58854-0.04012-0.76942 0.07569-0.96247 0.61626-0.18927 0.52994-0.14605 0.76699 0.21197 1.1626 0.58601 0.64753 1.8269 0.64588 3.7012-0.0049zm-15.443-0.50843c2.5718-0.74098 3.4727-1.1191 5.7518-2.4143 2.3494-1.3351 3.7644-1.7873 5.2327-1.6721 0.87965 0.06902 1.0183 0.01087 1.0846-0.455 0.18352-1.2891-2.7185-1.3912-4.7991-0.16873-3.9593 2.3262-6.7 3.2746-10.452 3.6169-2.9269 0.26704-2.9373 0.27024-3.0129 0.92434-0.0672 0.58146 0.0166 0.66611 0.73427 0.74166 1.5024 0.15817 3.7369-0.07625 5.4605-0.57285zm35.245-0.05457c0.67308-0.3138 1.3749-0.75329 1.5597-0.97663 0.43368-0.52426 0.22338-0.51246-0.89636 0.05031-0.49945 0.25101-1.3486 0.59474-1.8871 0.76384-1.3056 0.41002-1.6281 0.73843-0.72203 0.73543 0.39711-0.0012 1.2727-0.25914 1.9458-0.57294zm-0.80979-1.2133c1.7573-0.83026 2.8519-1.7602 2.4979-2.1222-0.19982-0.20428-0.48602-0.15252-1.1014 0.19917-1.8236 1.0422-3.3335 1.3417-6.0023 1.1905-2.0866-0.11817-2.4903-0.08454-2.3817 0.19838 0.0719 0.18736 0.5891 0.50414 1.1494 0.70395 0.56025 0.19981 1.1838 0.42347 1.3858 0.49702 0.78715 0.28672 3.1985-0.07446 4.4525-0.66689zm-34.68-1.0615c0.8077-0.19344 3.0656-1.1457 5.0175-2.1162 3.3646-1.6728 3.6316-1.7629 5.1399-1.735 0.875 0.01618 1.8112 0.07126 2.0804 0.12238 0.78724 0.14947 0.58208-0.55945-0.34213-1.1823-1.3078-0.88132-2.1033-0.73032-5.5192 1.0476-3.5433 1.8443-6.3177 2.7307-9.3454 2.986-1.6374 0.13804-2.1808 0.27764-2.3899 0.61396-0.2093 0.33667-0.18743 0.48779 0.0965 0.66701 0.45336 0.28614 3.2914 0.06853 5.2622-0.40349zm18.357-0.77668c0.94231-0.40234 2.3466-0.86011 3.1206-1.0173 2.0693-0.42012 1.7751-0.98768-0.50953-0.9829-0.72293 0.0015-1.637 0.23793-2.4887 0.64372-0.95711 0.45598-1.8925 0.67648-3.2364 0.76294-1.5664 0.10077-1.915 0.19977-2.035 0.57786-0.26628 0.83899 0.10519 1.0187 1.8169 0.87916 1.0016-0.08168 2.272-0.4109 3.3321-0.86353zm16.032-0.25273c1.4364-0.56347 3.3078-1.9946 2.6083-1.9946-0.21734 0-1.251 0.29307-2.2972 0.65127-1.9605 0.67131-4.3182 0.85349-7.409 0.57251-2.6625-0.24204-1.4748 0.67489 1.5751 1.2161 1.8361 0.32579 4.0026 0.15113 5.5228-0.44526zm-39.528-1.7973c1.0644-1.8287 3.1815-3.892 5.0765-4.9474 0.90745-0.50539 1.7167-1.0269 1.7982-1.1589 0.0816-0.13199-0.26008-1.0775-0.75922-2.1011-0.49915-1.0236-1.1108-2.452-1.3592-3.1741-1.1228-3.2635-1.1688-8.1856-0.10695-11.456 0.88352-2.721 0.40205-2.6897-1.4312 0.09292-2.8866 4.3815-4.0184 8.1835-4.2712 14.348-0.19313 4.7079-0.11955 9.6703 0.14328 9.663 0.0965-0.0027 0.50596-0.57256 0.90981-1.2664zm5.3846 0.52718c2.0381-0.51195 4.6394-1.6535 6.5977-2.8954 2.4956-1.5827 5.1293-1.5335 6.449 0.12049 0.88547 1.1097 1.5636 1.1962 3.6541 0.46578 0.97299-0.33994 1.9639-0.61647 2.202-0.61452 0.84644 0.0069 2.5163 0.73621 3.6268 1.5838 1.1256 0.85916 1.8825 1.0478 2.5386 0.63256 0.55895-0.35378-0.006-1.0123-6.541-7.6244l-6.0446-6.1159-1.2238 0.16435c-3.4783 0.46714-6.5406 3.1687-7.7193 6.81-0.38779 1.198-0.47072 1.2765-2.3468 2.2209-1.0696 0.53846-2.4217 1.3645-3.0045 1.8357-1.1809 0.95465-3.0222 3.3741-2.8186 3.7036 0.22869 0.37001 2.6004 0.22311 4.6305-0.2868zm17.832-0.54621c1.0574-0.43456 1.9175-0.90025 1.9113-1.0349-0.0243-0.52471-1.1982-0.50612-2.6769 0.04239-0.84442 0.31322-1.9065 0.5695-2.3602 0.5695-0.87239 0-1.2801 0.47826-0.80917 0.9492 0.48323 0.48324 1.9587 0.28592 3.935-0.52622zm12.844-12.796c1.8897-0.94537 3.1643-2.2167 4.0359-4.0255 0.43528-0.90336 0.53091-1.5415 0.53187-3.549 0.00081-2.1226-0.0801-2.61-0.61074-3.6713-0.7816-1.5632-2.4935-3.2923-3.9631-4.0027-0.82232-0.39755-1.7606-0.59073-3.3042-0.68031-2.9968-0.17391-3.4921 0.15072-4.344 2.8475-0.34456 1.0907-0.62648 2.1298-0.62648 2.3091 0 0.35826-0.73687 0.61928-1.763 0.62446-1.8609 0.0094-2.4414 1.1207-1.9541 3.7408 0.84378 4.5371 3.9856 7.2147 8.5181 7.2594 1.5249 0.01503 1.9578-0.09102 3.4798-0.8524zm-18.227-5.0658c1.2858-2.6606 2.9375-4.1046 6.3357-5.5393 0.63942-0.26997 1.1626-0.60158 1.1626-0.73691s-0.35796-0.51462-0.79546-0.84287c-2.2496-1.6878-6.5203-2.926-10.096-2.9272-2.9091-0.000962-5.9768 0.4707-6.1596 0.94704-0.0707 0.18421 0.54818 1.1917 1.3753 2.239 0.82708 1.0472 2.6716 3.4185 4.099 5.2694 1.4274 1.851 2.736 3.3654 2.9082 3.3654 0.17215 0 0.69892-0.79852 1.1706-1.7745z"/>
 </g>
</svg>
