<?xml version="1.0" encoding="UTF-8" standalone="no"?>
<!-- Created with Inkscape (http://www.inkscape.org/) -->
<svg id="svg2" xmlns:rdf="http://www.w3.org/1999/02/22-rdf-syntax-ns#" xmlns="http://www.w3.org/2000/svg" height="45" width="67.5" version="1.1" xmlns:cc="http://creativecommons.org/ns#" xmlns:dc="http://purl.org/dc/elements/1.1/">
 <metadata id="metadata7">
  <rdf:RDF>
   <cc:Work rdf:about="">
    <dc:format>image/svg+xml</dc:format>
    <dc:type rdf:resource="http://purl.org/dc/dcmitype/StillImage"/>
    <dc:title/>
   </cc:Work>
  </rdf:RDF>
 </metadata>
 <g id="g18898">
  <rect id="rect2990" opacity="0" height="45" width="67.5" y="0" x="3.5527e-15"/>
  <path id="path7132" d="m37.629 44.624c-1.7561-0.46836-5.3551-1.8431-6.0572-2.3138-0.76434-0.5124-2.6365-1.2684-3.1411-1.2684-0.35407 0-0.43422 0.1327-0.43422 0.71893 0 0.59733-0.12686 0.79734-0.75007 1.1825-0.664 0.41037-0.92344 0.44715-2.2608 0.32046-2.9371-0.27823-2.8838-0.24264-4.5138-3.0154-1.6783-2.8549-1.969-3.7515-2.0004-6.17-0.0179-1.3736 0.0858-2.0555 0.468-3.079 0.51624-1.3823 0.52369-2.6485 0.0306-5.205-0.66055-3.4248-1.7858-9.609-2.1429-11.777-0.22859-1.388-0.60086-3.2493-0.82726-4.1361-0.45949-1.7999-0.50901-2.5447-0.20673-3.1095 0.38717-0.72345 3.4688-3.6253 4.4182-4.1605 0.52257-0.29457 1.29-0.75028 1.7054-1.0127 0.41539-0.2624 1.4238-0.76157 2.2409-1.1093 1.7541-0.74644 2.5088-0.67032 4.4481 0.44866 0.64816 0.374 1.4323 0.79133 1.7426 0.92741 0.31025 0.13608 0.78345 0.43152 1.0516 0.65654 0.26809 0.22502 1.0006 0.82147 1.6277 1.3254 0.62712 0.50397 1.3606 1.3334 1.6299 1.8432 0.45296 0.8574 0.49019 1.1807 0.49653 4.3114 0.0187 9.2586 0.56482 16.33 1.4625 18.939 0.93751 2.7249 3.7983 6.3264 6.4161 8.0773 1.5506 1.0371 4.5139 2.176 6.4156 2.4658 1.1119 0.16942 2.0905 0.62118 2.1336 0.98493 0.0168 0.14162 0.0542 0.58873 0.0831 0.99357 0.0289 0.40485 0.11923 0.98798 0.20076 1.2959 0.31485 1.189-1.6458 1.7185-7.6109 2.0552-4.8572 0.2742-4.8906 0.27325-6.6257-0.18951zm2.4499-0.40995c-0.36275-0.34993-1.4663-0.36544-1.2513-0.01758 0.0715 0.11567 0.42724 0.21031 0.79056 0.21031 0.40536 0 0.58339-0.07446 0.46078-0.19274zm5.6889-0.76196c3.735-0.1962 5.0296-0.6354 5.195-1.7625 0.18096-1.2329-0.51392-1.4316-0.77941-0.2229-0.19951 0.90839-0.59487 0.52564-0.46411-0.4493l0.1088-0.81114-1.5044-0.43481c-0.8274-0.23915-1.7812-0.52521-2.1197-0.6357-0.50404-0.16456-0.69703-0.12413-1.0672 0.22359-0.24852 0.23347-0.51352 0.36282-0.58889 0.28744-0.0754-0.07538-0.2813-0.01733-0.4576 0.12898-0.27439 0.22773-0.32151 0.17904-0.32724-0.33807-0.006-0.54721-0.033-0.56944-0.28607-0.23606-0.44971 0.59242-0.61188 0.42835-0.46772-0.4732 0.15986-0.99973-0.14825-1.1271-0.42153-0.17421-0.10521 0.36687-0.30818 0.70599-0.45104 0.75361-0.36607 0.12202-0.32366-0.60486 0.0679-1.1639 0.18021-0.25728 0.26446-0.57002 0.18724-0.69497-0.1759-0.28461-1.3211 0.7649-1.5899 1.457l-0.19148 0.49303-0.51022-0.49107c-0.4685-0.45092-0.4831-0.52105-0.17846-0.85767 0.20768-0.22949 0.50354-0.32348 0.79105-0.25132 0.27771 0.0697 0.56635-0.01373 0.7301-0.21103 0.34391-0.41438 0.13779-0.99711-0.29406-0.83139-0.2209 0.08476-0.32343-0.0022-0.32343-0.27434 0-0.21915-0.47943-0.86809-1.0654-1.4421-1.5438-1.5123-3.5269-4.8229-3.8691-6.4591-0.0952-0.45515-0.23977-0.57835-0.67874-0.57835-0.60165 0-1.327 0.52834-1.327 0.96658 0 0.14875-0.10845 0.33748-0.24099 0.4194-0.16899 0.10444-0.20011-0.0139-0.10417-0.39616 0.14896-0.59352-0.23507-1.6769-0.52985-1.4947-0.18061 0.11163-1.0178 1.6445-1.0178 1.8636 0 0.06244 0.18928 0.11353 0.42062 0.11353 0.5293 0 0.52832 0.01178-0.10515 1.2619-0.69509 1.3717-0.66322 1.6252 0.12129 0.96509 0.86983-0.73192 1.031-0.68755 0.88727 0.24419-0.13537 0.87726-0.28237 1.1325-0.42395 0.73609-0.15775-0.4417-0.44245-0.30287-1.4271 0.6959-1.2799 1.2983-1.7309 0.97153-0.74296-0.53817 0.46023-0.70327 0.88731-1.7146 0.77254-1.8294-0.0509-0.0509-0.48094 0.02381-0.95563 0.16603s-0.93009 0.19156-1.012 0.10966c-0.0819-0.08191 0.30755-0.53911 0.86547-1.016 1.0136-0.86644 1.8978-2.4246 1.6872-2.9735-0.0598-0.1558 0.11813-0.43191 0.39537-0.61356 0.27725-0.18166 0.62471-0.62153 0.77216-0.97751 0.14745-0.35597 0.35126-0.64722 0.45289-0.64722 0.27277 0 0.22527 0.28672-0.12398 0.74847-0.33395 0.44152-0.43252 1.3546-0.14624 1.3546 0.22374 0 1.2293-2.0065 1.4229-2.8392l0.14667-0.63093-0.4534 0.40181c-0.70762 0.62709-0.77738 0.23292-0.16699-0.94357 0.63376-1.2215 0.67686-1.4562 0.26746-1.4562-0.15947 0-0.4144 0.30044-0.5665 0.66764-0.30461 0.7354-2.439 3.6853-2.9974 4.1427-0.30399 0.24899-0.3524 0.2408-0.3524-0.05957 0-0.48864 0.96531-2.3531 1.8387-3.5513 0.40444-0.55487 0.68967-1.0545 0.63386-1.1103-0.16541-0.16542-1.2449-0.15795-2.3148 0.016-1.0932 0.17773-1.4204-0.16558-0.49362-0.51792 0.27794-0.10567 0.57398-0.30319 0.65787-0.43893 0.18084-0.2926-0.31379-0.66036-0.69002-0.51303-0.14459 0.05662-0.42851 0.16798-0.63093 0.24748-0.31944 0.12544-0.33082 0.09874-0.0862-0.20216 0.47122-0.57956 1.0758-0.6544 1.5762-0.19508 0.36377 0.33389 0.56102 0.37664 0.98108 0.21264 0.51761-0.20209 0.51924-0.2101 0.10516-0.51535-0.23134-0.17054-0.87016-0.58645-1.4196-0.92424-0.54943-0.3378-0.99897-0.72299-0.99897-0.856 0-0.36768 1.6396-0.042 2.2649 0.44988 0.60336 0.4746 1.0259 0.52981 1.1535 0.15072 0.07-0.20788 0.15793-0.20556 0.42046 0.01108 0.28105 0.23194 0.3526 0.20896 0.46647-0.14979 0.074-0.23306 0.047-0.59294-0.0598-0.79974-0.10685-0.20679-0.26274-0.75455-0.34641-1.2172-0.0837-0.46268-0.30512-1.1003-0.4921-1.417-0.3165-0.53599-0.31431-0.59448 0.0317-0.84749 0.30706-0.22452 0.33295-0.3736 0.14894-0.85756-0.12249-0.32218-0.22271-0.83516-0.22271-1.1399 0-0.431 0.0561-0.49806 0.25237-0.30178 0.1388 0.1388 0.32808 0.25237 0.42062 0.25237 0.28983 0 0.18349-0.56678-0.15979-0.85168-0.32983-0.27375-1.1441-1.8013-1.1441-2.1463 0-0.10174 0.16562-0.1333 0.36805-0.07013 0.27913 0.08711 0.45813-0.09889 0.74096-0.76991 0.37041-0.87881 0.36971-0.88729-0.10515-1.2615-0.43317-0.34132-7.1614-3.7335-7.4052-3.7335-0.0566 0-0.0922 0.62004-0.0793 1.3779 0.0132 0.7768-0.0803 1.4817-0.21448 1.6158-0.27772 0.27772-2.5465 0.22241-2.8997-0.07069-0.13009-0.10797-0.29688-0.6512-0.37064-1.2072-0.0737-0.55598-0.25787-1.1802-0.40915-1.387-0.26301-0.35968-0.31174-0.35746-1.112 0.05081-1.7105 0.87264-4.4945 4.0672-4.4987 5.1622-0.0007 0.24864 0.13862 1.0672 0.31021 1.8191 0.17159 0.75186 0.55776 2.7866 0.85816 4.5217s0.76715 4.3377 1.0372 5.7835c0.27006 1.4459 0.68593 3.7172 0.92414 5.0474 0.4786 2.6726 0.51499 5.256 0.0741 5.2571-0.43733 0.0011-0.67891 0.97437-0.66915 2.6958 0.0111 1.9676 0.26664 3.3942 0.65079 3.6336 0.15755 0.09821 0.71232 0.23554 1.2328 0.30517 0.52052 0.06963 1.9803 0.40742 3.244 0.75064s2.423 0.5759 2.5763 0.51707c0.15332-0.05883 0.28595-0.37019 0.29475-0.69192 0.0156-0.57005 0.0227-0.56636 0.27955 0.14486 0.22285 0.61715 0.45576 0.80412 1.5087 1.2111 0.68487 0.26473 1.5291 0.61693 1.8761 0.78266 3.2504 1.5524 5.1693 2.2077 7.3609 2.5138 1.2724 0.1777 2.55 0.36309 2.8392 0.41196 0.28917 0.04888 0.95165 0.05356 1.4722 0.01041 0.52052-0.04315 1.9874-0.13314 3.2598-0.19998zm-7.0454-6.0394c0-0.14527-0.28758-0.39142-0.63906-0.547-0.49411-0.21871-0.58681-0.34584-0.40868-0.56048 0.18923-0.228 0.3417-0.21482 0.85338 0.07381 0.42558 0.24005 0.67171 0.2799 0.77673 0.12576 0.20852-0.30609 0.88981-0.54318 0.88981-0.30966 0 0.26626-1.0504 1.4817-1.2806 1.4817-0.10539 0-0.19162-0.11886-0.19162-0.26413zm-1.6135-1.9123c0.0497-0.77732 0.49006-1.4681 0.80983-1.2705 0.11453 0.07078 0.0593 0.27936-0.12899 0.48744-0.18104 0.20005-0.32916 0.56362-0.32916 0.80795s-0.0894 0.49949-0.1987 0.56703c-0.1128 0.06971-0.17894-0.1862-0.15298-0.59192zm-10.726 0.1062c-0.57677-0.3022-0.57781-0.3065-0.11528-0.4776 0.27236-0.10075 0.46673-0.35066 0.46673-0.60006 0-0.23507 0.0946-0.4274 0.21031-0.4274 0.11567 0 0.21176 0.21294 0.21353 0.4732 0.004 0.63569 0.22249 0.93947 0.84396 1.1752 0.47178 0.17895 0.44787 0.19553-0.25869 0.17939-0.4282-0.0098-1.0404-0.155-1.3606-0.32273zm4.2422-0.03289c0.0715-0.11567 0.26635-0.21031 0.43304-0.21031 0.16668 0 0.30305 0.09464 0.30305 0.21031s-0.19487 0.21031-0.43303 0.21031c-0.23817 0-0.37454-0.09464-0.30306-0.21031zm8.097-0.22272c0-0.1225 0.0946-0.16423 0.21031-0.09274 0.11567 0.07149 0.21031 0.17172 0.21031 0.22272 0 0.05101-0.0946 0.09274-0.21031 0.09274-0.11567 0-0.21031-0.10023-0.21031-0.22272zm-6.821-0.384c-0.0634-0.10256 0.0257-0.30343 0.1979-0.44637 0.17224-0.14294 0.31315-0.39026 0.31315-0.5496s0.0946-0.28972 0.21031-0.28972c0.28241 0 0.26651 0.12254-0.11055 0.85168-0.34354 0.66433-0.43034 0.72601-0.61081 0.43401zm-8.0219-0.33478c-0.35582-0.26919-0.36187-0.30742-0.0496-0.31329 0.19559-0.0036 0.41801 0.09425 0.49425 0.21761 0.2291 0.37069-0.0124 0.42266-0.44462 0.09568zm14.422 0.10064c0-0.11567 0.10023-0.21031 0.22273-0.21031s0.16423 0.09464 0.0927 0.21031c-0.0715 0.11567-0.17171 0.21031-0.22272 0.21031-0.051 0-0.0928-0.09464-0.0928-0.21031zm-11.672-1.8928c-0.15336-0.24814 0.0456-0.63093 0.32788-0.63093 0.10884 0 0.19789 0.18928 0.19789 0.42062 0 0.44356-0.30597 0.56595-0.52577 0.21031zm-5.7835-0.22272c0-0.1225 0.0946-0.16423 0.21031-0.09274 0.11567 0.07149 0.21031 0.17171 0.21031 0.22272s-0.0946 0.09274-0.21031 0.09274c-0.11567 0-0.21031-0.10023-0.21031-0.22272zm5.6784-1.7752c0-0.17351 0.0946-0.31547 0.21031-0.31547 0.11567 0 0.21031 0.14196 0.21031 0.31547s-0.0946 0.31546-0.21031 0.31546c-0.11567 0-0.21031-0.14196-0.21031-0.31546zm6.6248-0.52578c0.0715-0.11567 0.17171-0.21031 0.22272-0.21031 0.051 0 0.0927 0.09464 0.0927 0.21031s-0.10022 0.21031-0.22272 0.21031c-0.12249 0-0.16423-0.09464-0.0927-0.21031zm-6.6082-1.5949c0.0101-0.245 0.0599-0.29483 0.12706-0.12706 0.0608 0.15182 0.0533 0.33321-0.0166 0.4031s-0.11959-0.05433-0.11046-0.27603zm1.4556 0.24286c0-0.04958 0.14662-0.23675 0.32582-0.41594 0.26022-0.26023 0.40565-0.27594 0.72248-0.07808 0.21817 0.13625 0.34989 0.32342 0.29271 0.41594-0.10572 0.17106-1.341 0.24298-1.341 0.07808zm2.7891-1.1066c0.19554-0.19554 0.41458-0.29648 0.48675-0.2243 0.20698 0.20698-0.11077 0.57983-0.49415 0.57983-0.32104 0-0.32046-0.02766 0.007-0.35552zm-1.9479-0.54718c0-0.39567 1.0981-2.4583 1.2566-2.3604 0.24596 0.15201-0.64103 2.2517-1.002 2.372-0.14 0.04667-0.25454 0.04142-0.25454-0.01167zm-3.0221-2.3045c-0.18953-0.70721-0.15825-1.6299 0.0552-1.6299 0.26733 0 0.44312 0.54917 0.44312 1.3842 0 0.81181-0.3062 0.96276-0.49837 0.24569zm4.5468-1.5239c-0.34564-0.39257-0.33173-0.52665 0.0546-0.52665 0.17463 0 0.47958-0.18928 0.67767-0.42062 0.3327-0.38857 0.89759-0.57828 0.89759-0.30143 0 0.19214-1.0887 1.5641-1.2342 1.5553-0.073-0.0044-0.25106-0.14236-0.39565-0.30659zm-2.226-0.667c-0.25546-0.25546-0.14531-0.47948 0.17526-0.35647 0.17351 0.06658 0.31547 0.20557 0.31547 0.30887 0 0.22049-0.28974 0.2486-0.49073 0.0476zm-2.5498-0.6865c-0.0665-0.10768-0.0248-0.25522 0.0927-0.32788 0.11756-0.07265 0.21374 0.01544 0.21374 0.19578 0 0.36942-0.1262 0.42381-0.30648 0.1321zm2.8302-0.80631c0-0.22361 0.45181-0.68039 0.67299-0.68039 0.32643 0 0.16297 0.40864-0.25237 0.63093-0.23135 0.12381-0.42062 0.14607-0.42062 0.04946zm-3.0202-1.0366c-0.074-0.07397-0.13449-0.65816-0.13449-1.2982 0-1.3656 0.30688-1.2251 0.49323 0.2257 0.11795 0.91818-0.0402 1.391-0.35874 1.0725zm3.8614-1.1284c0-0.1225 0.0946-0.16423 0.21031-0.09274 0.11567 0.07149 0.21031 0.17171 0.21031 0.22272s-0.0946 0.09274-0.21031 0.09274c-0.11567 0-0.21031-0.10022-0.21031-0.22272zm-1.1217-0.75873c-0.0771-0.07711-0.14021-0.27798-0.14021-0.44637 0-0.2483 0.0597-0.25668 0.31547-0.04435 0.17351 0.144 0.31547 0.34486 0.31547 0.44637 0 0.21778-0.291 0.24408-0.49073 0.04435zm3.744-0.7116c-0.19984-0.32335 0.0739-0.53197 0.34382-0.26204 0.15104 0.15104 0.15467 0.26868 0.011 0.35745-0.11776 0.07278-0.27744 0.02984-0.35485-0.09541zm1.4011-0.06143c-0.14991-0.18063-0.23695-0.49859-0.19343-0.70657 0.0695-0.33191 0.11183-0.31886 0.34648 0.10671 0.33405 0.60589 0.2207 1.0502-0.15305 0.59986zm-8.159-0.46792c-0.0695-0.18128-0.0193-0.43681 0.11176-0.56784 0.17744-0.17744 0.23823-0.09333 0.23823 0.3296 0 0.63276-0.15747 0.73995-0.34999 0.23824zm1.6017-0.05696c-0.59467-0.48153-0.38517-0.8753 0.46569-0.8753 0.49813 0 0.61257 0.07416 0.51337 0.33267-0.0702 0.18297-0.12766 0.46689-0.12766 0.63093 0 0.40393-0.2793 0.37496-0.8514-0.08829zm3.4803-0.24437c-0.0715-0.11567 0.0176-0.21031 0.19791-0.21031 0.18032 0 0.32787 0.09464 0.32787 0.21031s-0.089 0.21031-0.1979 0.21031c-0.10885 0-0.25639-0.09464-0.32788-0.21031zm-2.2083-0.42062c0-0.11567 0.23102-0.21031 0.51337-0.21031s0.57186 0.09464 0.64334 0.21031c0.0758 0.1227-0.13802 0.21031-0.51336 0.21031-0.35384 0-0.64335-0.09464-0.64335-0.21031zm4.4265-0.40197c-0.13799-0.25785-0.14594-0.4604-0.0211-0.53756 0.11019-0.06809 0.29998 0.06238 0.42176 0.28994 0.13799 0.25785 0.14595 0.4604 0.0211 0.53756-0.109 0.069-0.299-0.062-0.421-0.29zm-7.476-0.64958c-0.0839-0.13583-0.058-0.3416 0.0577-0.45727 0.14021-0.14021 0.26118-0.12799 0.36294 0.03665 0.084 0.13583 0.058 0.3416-0.0577 0.45727-0.1402 0.14021-0.26118 0.12799-0.36294-0.03665zm5.5158-1.0516c-0.2941-0.23134-0.67984-0.42062-0.85719-0.42062s-0.38095-0.09464-0.45244-0.21031c-0.0724-0.11708 0.0853-0.20996 0.35564-0.20952 0.56026 0.000911 1.8526 0.73174 1.8526 1.0477 0 0.32729-0.30998 0.25582-0.89863-0.20722zm-5.621-0.84124c0-0.39258 0.0561-0.44866 0.25237-0.25237 0.19629 0.19629 0.19629 0.30846 0 0.50474-0.19629 0.19629-0.25237 0.14021-0.25237-0.25237zm7.7815 0.01273c0-0.10867-0.66248-0.26285-1.4722-0.34264-1.7568-0.17311-1.956-0.51134-0.30129-0.51134 1.1159 0 1.1642-0.02223 1.0296-0.4732-0.0777-0.26026-0.25778-0.66248-0.40023-0.89382-0.41464-0.67339-0.5338-1.367-0.23484-1.367 0.283 0 1.3805 2.3843 1.3795 2.9969-0.00033 0.20242 0.094 0.36804 0.2097 0.36804 0.11567 0 0.21031 0.09464 0.21031 0.21031s-0.0946 0.21031-0.21031 0.21031c-0.11567 0-0.21031-0.08891-0.21031-0.19758zm-7.9918-1.6952c0-0.11567 0.0946-0.21031 0.21031-0.21031 0.11567 0 0.21031 0.09464 0.21031 0.21031s-0.0946 0.21031-0.21031 0.21031c-0.11567 0-0.21031-0.09464-0.21031-0.21031zm0-1.367c0-0.17351 0.0946-0.31546 0.21031-0.31546 0.11567 0 0.21031 0.14196 0.21031 0.31546 0 0.17351-0.0946 0.31547-0.21031 0.31547-0.11567 0-0.21031-0.14196-0.21031-0.31547zm5.9084-1.4484c-0.17202-0.20728-0.18094-0.34481-0.0285-0.43903 0.12211-0.07547 0.28035 0.01483 0.35166 0.20066 0.17754 0.46266-0.0176 0.60659-0.32318 0.23838zm-5.8918-0.25164c0.0101-0.245 0.0599-0.29483 0.12706-0.12706 0.0608 0.15182 0.0533 0.33321-0.0166 0.4031-0.0699 0.06988-0.11959-0.05433-0.11046-0.27603zm6.6588-0.59262c-0.50297-0.34133-0.81327-0.43588-0.95741-0.29173-0.29092 0.29092-0.67054 0.02055-0.67054-0.47755 0-0.57553 0.65525-0.5217 1.6206 0.13312 0.80482 0.54595 1.2966 1.1412 0.94296 1.1412-0.10528 0-0.52628-0.22725-0.93557-0.505zm-7.9373 33.447c0-0.27358-0.17317-0.72312-0.38482-0.99897-0.21166-0.27586-0.44529-0.66718-0.51918-0.8696-0.0739-0.20242-0.32661-0.36804-0.56157-0.36804-0.69405 0-0.55207 0.76788 0.41803 2.2608 0.41573 0.6398 1.0475 0.6252 1.0475-0.02421zm10.898-21.324c0.0369-0.25908-0.0194-0.47105-0.12514-0.47105-0.29941 0-0.90709 0.75251-0.74145 0.91816 0.28512 0.28512 0.80002 0.01945 0.86659-0.44711zm0.23481-10.934-0.0135-0.99897-0.33153 0.66525c-0.3331 0.66844-0.26256 1.3327 0.14153 1.3327 0.12045 0 0.21093-0.44424 0.20346-0.99898zm-17.572-2.2718c0.0718-0.18716 0.0366-0.27158-0.0827-0.1979-0.11434 0.07067-0.20789 0.21754-0.20789 0.32639 0 0.30252 0.15074 0.23586 0.29055-0.12849zm16.85-0.63145c-2.9783-2.1821-7.4278-4.6099-8.8638-4.8365-0.44574-0.07032-1.0707-0.02803-1.3888 0.09398-0.4729 0.18138-0.57835 0.35128-0.57835 0.93174 0 0.85923 0.38454 2.0345 0.66567 2.0345 0.11215 0 0.14567 0.18352 0.0745 0.40781-0.17203 0.542 0.60897 1.0077 1.0609 0.63258 0.23437-0.19451 0.37268-0.19201 0.61748 0.01116 0.27602 0.22907 0.31547 0.04816 0.31547-1.4464 0-1.7636 0.14361-2.0109 0.82468-1.4203 0.18262 0.15837 1.3257 0.78235 2.5403 1.3866 1.2145 0.60429 2.7137 1.3501 3.3314 1.6574 0.61775 0.3073 1.1675 0.62971 1.2217 0.71646s0.21122 0.15352 0.34898 0.14837c0.13776-0.0052 0.0612-0.14804-0.17015-0.31754zm-8.9382-2.9453c0-0.18033 0.0962-0.26843 0.21374-0.19578 0.11756 0.07265 0.15929 0.2202 0.0927 0.32788-0.18028 0.29171-0.30648 0.23732-0.30648-0.1321zm-0.305-0.7085c-0.0665-0.10768-0.0248-0.25522 0.0927-0.32788 0.11756-0.07266 0.21374 0.01545 0.21374 0.19578 0 0.36942-0.1262 0.42381-0.30649 0.1321zm-6.6069 2.9824c0.26159-0.33356 0.25416-0.341-0.0794-0.0794-0.20242 0.15875-0.36804 0.32437-0.36804 0.36804 0 0.17309 0.1727 0.06169 0.44745-0.28864z"/>
 </g>
</svg>
