<?xml version="1.0" encoding="UTF-8" standalone="no"?>
<!-- Created with Inkscape (http://www.inkscape.org/) -->
<svg id="svg2" xmlns:rdf="http://www.w3.org/1999/02/22-rdf-syntax-ns#" xmlns="http://www.w3.org/2000/svg" height="45" width="67.5" version="1.1" xmlns:cc="http://creativecommons.org/ns#" xmlns:dc="http://purl.org/dc/elements/1.1/">
 <metadata id="metadata7">
  <rdf:RDF>
   <cc:Work rdf:about="">
    <dc:format>image/svg+xml</dc:format>
    <dc:type rdf:resource="http://purl.org/dc/dcmitype/StillImage"/>
    <dc:title/>
   </cc:Work>
  </rdf:RDF>
 </metadata>
 <g id="g18959">
  <rect id="rect2990" opacity="0" height="45" width="67.5" y="0" x="3.5527e-15"/>
  <path id="path7169" d="m35.028 44.921c-0.0695-0.06949-0.12635-0.6424-0.12635-1.2731 0-0.8674 0.0677-1.1728 0.27804-1.2535 0.42324-0.16242 0.48651 0.0016 0.51056 1.3237 0.0177 0.96983-0.035 1.2312-0.25685 1.2747-0.15348 0.03003-0.33591-0.0023-0.4054-0.07174zm-13.64-0.76476c0-0.35443 0.92826-1.8885 1.2708-2.1002 0.0938-0.05799 0.17059-0.26281 0.17059-0.45515 0-0.22606 0.12366-0.34972 0.34973-0.34972 0.4972 0 0.60577 0.28001 0.24749 0.63829-0.16884 0.16884-0.31812 0.45798-0.33171 0.64252-0.0136 0.18454-0.17305 0.49943-0.35434 0.69976s-0.41994 0.54538-0.53032 0.76679c-0.26809 0.53773-0.82227 0.64403-0.82227 0.15773zm11.597-0.47269c-0.14425-0.3759 0.0688-0.856 0.34034-0.76685 0.35399 0.11624 0.39951 1.0371 0.0513 1.0371-0.15834 0-0.33456-0.12162-0.3916-0.27027zm6.1904-0.22674c-0.2617-0.28918-0.79584-2.2403-1.0971-4.0074-0.11263-0.66067 0.0865-1.2014 0.37648-1.0222 0.0934 0.05775 0.27708 0.6965 0.40811 1.4195 0.13102 0.72296 0.43444 1.7402 0.67424 2.2606 0.43971 0.95414 0.4819 1.4925 0.12625 1.6109-0.10633 0.0354-0.32593-0.08216-0.48799-0.26124zm-10.896-0.85173c0.0501-0.44451 0.24307-1.0323 0.42883-1.3063 0.18576-0.27395 0.37828-0.6941 0.42783-0.93367 0.0496-0.23957 0.18145-0.46597 0.29311-0.50311 0.26262-0.08734 0.47898 0.47274 0.28442 0.7363-0.0822 0.11131-0.25629 0.64833-0.38693 1.1934-0.30186 1.2593-0.49199 1.6216-0.851 1.6216-0.23386 0-0.2704-0.15047-0.19626-0.8082zm3.5774 0.63928c-0.3252-0.20106-0.1363-1.7721 0.2608-2.1691 0.40199-0.40187 0.59437 0.01256 0.48677 1.0485-0.0988 0.95149-0.36813 1.3552-0.74757 1.1206zm13.895-0.51469c-0.0711-0.17779-0.3544-0.644-0.62949-1.036-1.1087-1.58-1.4077-2.1228-1.3098-2.3779 0.0859-0.22384 0.14938-0.22846 0.3904-0.02843 0.54642 0.45349 2.2304 3.1814 2.2304 3.6131 0 0.28986-0.55259 0.15139-0.68147-0.17076zm-20.672-0.76654c-0.15164-0.47779 0.61486-2.0433 1.0388-2.1216 0.44187-0.08164 0.40121 0.40674-0.1286 1.5447-0.4704 1.0104-0.72199 1.1698-0.91019 0.57686zm8.3248 0.07254c-0.26505-0.26505-0.12566-0.81129 0.19144-0.75023 0.17342 0.0334 0.31531 0.21502 0.31531 0.4036 0 0.35847-0.29388 0.55949-0.50675 0.34663zm9.43-0.2358c-0.15968-0.29835-0.14393-0.39546 0.0779-0.48059 0.42137-0.16169 0.85275 0.07178 0.78477 0.42474-0.0879 0.45619-0.62968 0.49127-0.8627 0.05586zm-7.949-0.298c-0.36331-0.43776-0.349-2.5016 0.0174-2.5016 0.19209 0 0.30699 0.28665 0.39722 0.99098 0.0698 0.54504 0.15091 1.1444 0.18018 1.3319 0.0707 0.45295-0.27974 0.55822-0.59474 0.17867zm-7.9105-0.15928c0-0.14865 0.0811-0.27027 0.18018-0.27027 0.0991 0 0.18018 0.12162 0.18018 0.27027s-0.0811 0.27027-0.18018 0.27027c-0.0991 0-0.18018-0.12162-0.18018-0.27027zm9.1039-0.4054c-0.11601-0.29566-0.38247-2.2355-0.54426-3.9623-0.0394-0.42029-0.15465-0.90678-0.25614-1.0811-0.15346-0.26351-0.18547-0.21824-0.19003 0.26868-0.005 0.49532-0.0717 0.58558-0.4349 0.58558-0.2779 0-0.46269 0.12716-0.52367 0.36036-0.0518 0.1982-0.22345 0.36036-0.38137 0.36036-0.22792 0-0.28714-0.20436-0.28714-0.99098 0-0.54504-0.0701-0.99098-0.15568-0.99098-0.0856 0-0.14644 0.30135-0.13514 0.66966 0.0238 0.77452-0.48991 1.0738-0.70108 0.4085-0.11552-0.36397-0.13932-0.36791-0.46159-0.07626-0.18688 0.16913-0.29438 0.38098-0.23887 0.4708 0.13372 0.21636-0.29089 2.6048-0.59503 3.3471-0.13197 0.32207-0.31611 0.58558-0.40921 0.58558-0.30247 0 0.21527-3.6766 0.54659-3.8813 0.24107-0.14899 0.20816-0.8467-0.0361-0.76529-0.11229 0.03743-0.29472 0.34725-0.4054 0.68849-0.11873 0.36603-0.3411 0.64726-0.54232 0.68585-0.28333 0.05434-0.319-0.0063-0.21068-0.35816 0.35445-1.1513 0.34578-1.2344-0.12867-1.2344-0.52263 0-0.74944-0.41749-0.49008-0.9021 0.27852-0.52043 0.22581-0.63069-0.45721-0.9564-0.77655-0.37031-0.80469-0.37148-0.80469-0.03337 0 0.14865 0.15349 0.27027 0.34108 0.27027 0.50967 0 0.62688 0.54148 0.23265 1.0747-0.18859 0.25507-0.40175 0.64924-0.4737 0.87593-0.0802 0.25279-0.24679 0.39007-0.43073 0.35503-0.44022-0.08386-0.46219-0.74307-0.0376-1.1273 0.20256-0.18331 0.36829-0.44422 0.36829-0.57979 0-0.20037-0.0786-0.19503-0.41978 0.02856-0.46799 0.30664-0.66129 0.21088-0.66129-0.32763 0-0.19865-0.13829-0.51399-0.30731-0.70076-0.25089-0.27722-0.26743-0.40345-0.0901-0.68741 0.3157-0.50552 0.26794-0.58885-0.16408-0.28626-0.28885 0.20232-0.48153 0.22141-0.79462 0.07876-0.3183-0.14503-0.5091-0.12123-0.82995 0.1035-0.22914 0.1605-0.47966 0.29182-0.55671 0.29182-0.23338 0-0.15741-0.52678 0.14185-0.9835 0.26746-0.4082 0.26305-0.42535-0.0859-0.33411-0.20228 0.0529-0.77816 0.50012-1.2797 0.99383-0.55875 0.55001-1.014 0.8585-1.1754 0.79655-0.50088-0.1922-0.25931-0.64462 0.80251-1.5029 1.1811-0.95475 1.3773-1.2436 1.0844-1.5966-0.109-0.13133-0.14547-0.40484-0.0811-0.60779 0.0847-0.26685 0.0374-0.369-0.17095-0.369-0.15843 0-0.33546-0.12353-0.3934-0.27451-0.0798-0.208-0.2593-0.24563-0.74082-0.15529-0.61224 0.11486-0.63213 0.1017-0.54392-0.35972 0.088-0.46028 0.0672-0.47436-0.5345-0.36149-0.42526 0.07978-0.67218 0.04283-0.76984-0.11519-0.26546-0.42952 0.028-0.6955 1.0097-0.9152 0.53643-0.12005 0.97532-0.25724 0.97532-0.30486 0-0.04763-0.14189-0.19195-0.31531-0.32071-0.27051-0.20085-0.28184-0.28888-0.0797-0.61956 0.16194-0.26498 0.17838-0.45436 0.0526-0.60593-0.10064-0.12126-0.13637-0.39869-0.0794-0.6165 0.0973-0.37214 0.0443-0.39602-0.87841-0.39602-0.54008 0-1.0353-0.05335-1.1005-0.11856-0.24838-0.24837 0.31061-0.60216 0.95142-0.60216 0.79988 0 0.98-0.13477 0.63767-0.47711-0.25851-0.25851-0.18356-0.78414 0.11181-0.78414 0.0893 0 0.0683-0.1508-0.0468-0.33512-0.16805-0.2691-0.36328-0.31776-0.99105-0.247-0.43473 0.049-0.88656 0.0011-1.0178-0.10779-0.12983-0.10775-0.39966-0.15312-0.59962-0.10083-0.45617 0.11929-0.94109-0.39034-0.64917-0.68225 0.11438-0.11438 0.33326-0.13683 0.52389-0.05373 0.18008 0.0785 0.7724 0.16746 1.3163 0.19769 0.54386 0.03022 1.017 0.13942 1.0514 0.24266s0.14268 0.13821 0.2406 0.07769c0.099-0.0612 0.0122-0.22614-0.19557-0.3717-0.62272-0.43617-0.46926-0.78177 0.34712-0.78177 0.83247 0 0.94436-0.27991 0.22522-0.56342-1.3587-0.53564-1.6666-0.714-1.6666-0.96517 0-0.34374 0.29334-0.34441 1.2612-0.0029 0.98661 0.34809 1.0811 0.34115 1.0811-0.07945 0-0.19235 0.0844-0.40187 0.18751-0.46561 0.10313-0.06374 0.13822-0.27116 0.078-0.46094-0.0796-0.25082 0.004-0.39041 0.30799-0.51113 0.46296-0.18416 1.4085-1.1408 1.4085-1.425 0-0.39655 0.64951-1.2816 0.97632-1.3304 0.73721-0.11 0.57418-0.47182-0.68682-1.5243-0.29383-0.24524-0.42831-0.49764-0.36-0.67567 0.17953-0.46783 0.56034-0.32614 1.1732 0.43653 0.66179 0.8235 0.79752 0.87246 0.93727 0.33805 0.0773-0.29552 0.19519-0.35878 0.51779-0.27782 0.372 0.09337 0.41759 0.04156 0.41644-0.47319-0.001-0.45834 0.0733-0.57803 0.35907-0.57803 0.19819 0 0.47283-0.07247 0.6103-0.16105 0.17323-0.11162 0.34125-0.04001 0.54743 0.23334 0.34029 0.45114 0.55396 0.33567 0.55396-0.29937 0-0.27869 0.12465-0.46988 0.3437-0.52716 0.18903-0.04943 0.38414-0.24454 0.43358-0.43358 0.0635-0.24289 0.25024-0.3437 0.63664-0.3437 0.30073 0 0.59688-0.08108 0.65813-0.18018 0.20741-0.3356 0.42172-0.18253 0.63062 0.45044 0.11447 0.34684 0.32346 0.63062 0.46442 0.63062 0.30122 0 0.3326-0.21198 0.0702-0.47437-0.26275-0.26275-0.007-0.81637 0.34389-0.74573 0.18632 0.03746 0.29006 0.23703 0.28555 0.54928-0.008 0.55088 0.32822 0.73399 1.093 0.59531 0.89045-0.16147 0.81568-0.30556-0.18501-0.35657-0.30111-0.01535-0.38395-0.1961-0.5039-1.0994-0.079-0.59459-0.17605-1.7094-0.21578-2.4774-0.0609-1.1763-0.0279-1.3964 0.20903-1.3964 0.21223 0 0.26111 0.1375 0.19908 0.56014-0.0452 0.30808 0.0727 1.1379 0.26216 1.8442 0.55072 2.0534 0.64691 1.9506 0.7062-0.75469 0.0435-1.9834 0.16597-2.4304 0.55847-2.0379 0.13705 0.13705 0.13549 0.26202-0.005 0.43178-0.12665 0.15259-0.13783 0.33436-0.031 0.50313 0.21311 0.33656 0.18482 4.2893-0.0317 4.4231-0.35159 0.2173 0.0872 0.43567 0.87538 0.43567 0.45661 0 0.77042-0.05978 0.69736-0.13284-0.0731-0.07306-0.269-0.13387-0.43543-0.13513-0.18171-0.0014-0.3026-0.14626-0.3026-0.36266 0-0.26569 0.10224-0.34627 0.3892-0.30673 0.41935 0.05778 0.47158-0.07906 0.70807-1.8554 0.1315-0.98767 0.35193-1.5315 0.62076-1.5315 0.24124 0 0.21855 1.6867-0.03 2.2323-0.11212 0.24609-0.15043 0.58667-0.0851 0.75685 0.10979 0.28612 0.13845 0.2836 0.38061-0.03355 0.22709-0.2974 0.28592-0.30706 0.44273-0.0727 0.0995 0.14865 0.18455 0.43243 0.18908 0.63062 0.008 0.33136 0.023 0.33498 0.19189 0.04504 0.27577-0.47346 0.70628-0.39109 0.70628 0.13513 0 0.24774 0.0692 0.45045 0.15388 0.45045 0.0846 0 0.35382 0.18532 0.59822 0.41182s0.67882 0.58262 0.96539 0.79137c0.45272 0.32978 0.48904 0.41811 0.27699 0.6736-0.40439 0.48726-0.0454 0.55924 0.45316 0.09087 0.43482-0.40848 0.47888-0.41614 0.69482-0.12083 0.12681 0.17342 0.3689 0.31531 0.53798 0.31531 0.5176 0 0.29432 0.95041-0.25705 1.0942-0.39737 0.10362-0.41187 0.13381-0.12302 0.25627 0.1899 0.08051 0.41315 0.05309 0.53152-0.06529 0.4368-0.4368 0.71842-0.23472 0.59437 0.42652-0.0965 0.51418-0.0633 0.63062 0.17966 0.63062 0.22785 0 0.27136 0.10598 0.18491 0.45045-0.13903 0.55393-0.13629 0.55393 0.61452 0 1.1183-0.82502 1.5543-0.34023 0.49549 0.55089-0.4745 0.39934-0.50851 0.46838-0.17929 0.36395 0.46805-0.14848 0.77125 0.322 0.42844 0.66482-0.27991 0.27991-0.25596 0.49239 0.0556 0.49239 0.39333 0 0.52154 0.3405 0.25137 0.66756-0.21538 0.26072-0.1838 0.2775 0.2998 0.15932 1.442-0.3524 2.0152-0.01806 0.95743 0.55848l-0.59708 0.32544 0.58558 0.05691c0.75485 0.07336 0.78293 0.54415 0.0413 0.69248-0.68175 0.13635-0.87337 0.4155-0.37473 0.5459 0.45093 0.11792 0.47841 0.29024 0.0968 0.60693-0.25542 0.21198-0.25542 0.24843 0 0.39137 0.59672 0.33394 0.20879 0.86043-0.63398 0.86043-0.19009 0-0.34561 0.10399-0.34561 0.23108 0 0.15289 0.31435 0.24476 0.92896 0.2715 0.97885 0.04259 1.4134 0.26263 1.4134 0.71573 0 0.22283-0.16991 0.25318-0.91996 0.16435-0.50599-0.05993-1.032-0.20197-1.169-0.31566-0.32184-0.2671-0.45267 0.05185-0.49344 1.2029l-0.0301 0.85134 0.8108 0.30121c0.44594 0.16566 1.039 0.3958 1.318 0.51142 0.27897 0.11561 0.61975 0.21021 0.75728 0.21021s0.4363 0.07531 0.66394 0.16735c0.22763 0.09205 1.0017 0.38292 1.7202 0.64638 0.9993 0.36644 1.3063 0.56001 1.3063 0.82362 0 0.47364-0.53166 0.44381-1.6778-0.09413-0.51412-0.2413-1.178-0.49419-1.4753-0.56197-0.29729-0.06778-0.70269-0.22235-0.90089-0.34349-0.19819-0.12114-0.64413-0.26676-0.99098-0.32359-0.34684-0.05683-0.79278-0.15196-0.99098-0.2114-0.19819-0.05943-0.0968 0.01497 0.22522 0.16537 0.38488 0.17971 0.58558 0.40167 0.58558 0.64758 0 0.32596-0.0731 0.3581-0.56758 0.24949-0.48521-0.10657-0.55062-0.08046-0.45069 0.17996 0.0767 0.19985-0.0545 0.47601-0.38137 0.8029-0.41354 0.41354-0.56698 0.4676-0.90237 0.31795-0.48594-0.21683-0.71419-0.05104-0.41915 0.30445 0.26069 0.31412 0.0324 1.9395-0.28731 2.0461-0.11672 0.03891-0.37944-0.09649-0.58383-0.30088s-0.46798-0.37162-0.58577-0.37162c-0.11778 0-0.0367 0.16532 0.18018 0.36738 0.21689 0.20206 0.39433 0.48838 0.39433 0.63628 0 0.37135-0.4886 0.52499-0.8131 0.25569-0.22286-0.18496-0.26797-0.15802-0.26797 0.16002 0 0.3827-0.15057 0.45609-0.7941 0.38704-0.26517-0.02846-0.13143 0.22984 0.58558 1.1309 0.51108 0.64228 0.92923 1.2576 0.92923 1.3675 0 0.39598-0.71937 0.18869-1.0266-0.29581-0.38196-0.60235-1.6679-1.8994-1.6968-1.7115-0.0114 0.07421-0.005 0.28713 0.0152 0.47315 0.0315 0.29655-0.0473 0.3226-0.6396 0.21148l-0.67555-0.12674 0.29999 0.45785c0.54785 0.83613 0.22793 1.508-0.43318 0.9097-0.54335-0.49172-0.63303-0.15796-0.22015 0.81929 0.3128 0.74038 0.335 0.9241 0.13204 1.0926-0.35049 0.29087-0.58313 0.07718-0.80237-0.73702-0.24776-0.9201-0.53849-0.916-0.53849 0.0076 0 0.39639-0.0649 0.72071-0.14414 0.72071-0.25141 0-0.57657-0.42078-0.57657-0.74611 0-0.43705-0.18285-0.50742-0.90534-0.34843l-0.62618 0.13779 0.54054 0.24949c0.64278 0.29668 0.81013 0.49938 0.68388 0.82836-0.0515 0.13412 0.005 0.36341 0.12692 0.50954 0.27481 0.33113 0.0862 0.88243-0.25687 0.75078-0.3507-0.13458-0.451 0.22604-0.29703 1.068 0.0717 0.39217 0.0973 0.8123 0.0569 0.93361-0.10887 0.32662-0.52709 0.26741-0.6692-0.09474zm1.5266-6.3984c2.2283-0.61808 5.0941-2.8237 6.4938-4.9978 0.69174-1.0745 1.434-2.7847 1.434-3.304 0-0.30058-0.0381-0.29695-0.52537 0.05-0.28896 0.20576-0.78365 0.42575-1.0993 0.48889-0.48899 0.0978-0.56458 0.0664-0.51066-0.21212 0.0348-0.1798 0.30654-0.46304 0.60384-0.62944 0.54538-0.30524 0.56054-0.36462 0.41326-1.6185-0.0438-0.37309 0.0235-0.45045 0.39177-0.45045 0.36373 0 0.48087 0.12904 0.64359 0.709 0.16255 0.57935 0.22306 0.64612 0.33089 0.36513 0.207-0.53945 0.14946-3.4765-0.0823-4.2026-0.38598-1.2091-0.59088-1.1462-1.3883 0.42577-0.65513 1.2915-1.8923 2.5493-2.7492 2.795-0.34116 0.09784-1.0262 0.18102-1.5224 0.18484-0.81678 0.0063-0.93639 0.06166-1.2649 0.58558-0.24379 0.38883-0.5305 0.59792-0.87407 0.63741-0.28119 0.03232-0.76658 0.21445-1.0786 0.40473-0.68033 0.41484-2.2094 0.46614-2.7435 0.09205-0.20043-0.14039-0.75611-0.25525-1.2348-0.25525-1.0856 0-1.4059-0.29712-1.5354-1.4243l-0.0986-0.85792-0.90089-0.01133c-1.7636-0.02218-3.5379-1.17-4.5261-2.9281-1.0248-1.8232-1.3661-1.7425-1.8901 0.44718-0.87727 3.666 0.0483 7.7909 2.3197 10.338 0.79024 0.88612 3.0817 2.4654 4.4651 3.0773 1.4045 0.62129 5.1679 0.77933 6.9285 0.29096zm-3.6607-1.5115c-0.0645-0.06446-0.50365-0.21532-0.97597-0.33525-0.64494-0.16376-0.85876-0.30281-0.85876-0.55847 0-0.27235 0.1261-0.33683 0.63062-0.32247 0.34684 0.0099 0.89865 0.1307 1.2262 0.26851 0.54718 0.23019 0.65495 0.2164 1.3258-0.16966 0.75473-0.43437 1.1622-0.34435 0.94953 0.20979-0.24743 0.64478-1.9053 1.2997-2.2974 0.90755zm-0.64558-2.9545c-0.73334-0.19204-1.6813-0.55307-2.1065-0.80228-0.88231-0.51707-2.5961-2.1253-2.5961-2.4362 0-0.1141-0.25013-0.55576-0.55584-0.98147-0.62809-0.8746-0.65779-1.5953-0.0692-1.6796 0.28008-0.04011 0.46393 0.14932 0.78372 0.80756 0.55922 1.151 1.3273 2.0949 2.2409 2.7538 1.4104 1.0172 2.0783 1.242 3.8192 1.2855 2.4602 0.0614 3.0528-0.19704 5.538-2.4153 1.3908-1.2414 1.9368-1.4374 1.9368-0.69535 0 0.39892-2.7269 3.1491-3.7118 3.7436-0.65926 0.39788-2.4153 0.79778-3.42 0.77882-0.28918-0.0055-1.1258-0.16705-1.8591-0.35909zm-7.5855-4.9716c-0.93068-0.31375-1.0811-0.48408-1.0784-1.2213 0.003-0.87447 0.33662-1.6099 0.76763-1.6929 0.34222-0.06591 0.45067 0.57956 0.13061 0.77737-0.0991 0.06125-0.18018 0.312-0.18018 0.55724 0 0.31961 0.18075 0.55253 0.63821 0.82244 0.84011 0.49568 0.63163 1.0637-0.27786 0.75712zm10.154 0.0946c0.29307-0.13353 0.55857-0.5198 0.79104-1.1509l0.34991-0.94988-0.42128-0.69595c-0.23171-0.38277-0.4217-0.90879-0.42221-1.1689-0.002-1.3098-0.36015-1.9067-0.9961-1.6626-0.27622 0.10599-1.5273 2.6099-1.5273 3.0567 0 0.13186-0.26326 0.30796-0.58501 0.39133-0.74577 0.19325-1.224 0.94735-0.87068 1.373 0.32779 0.39496 0.97339 0.3605 1.3656-0.0729 0.44872-0.49582 0.5709-0.45667 0.80696 0.25863 0.27201 0.82418 0.68808 0.99552 1.5091 0.62145zm2.2785-0.97016c0-0.14865-0.11684-0.27027-0.25963-0.27027-0.30102 0-0.50422 0.25716-0.33607 0.42531 0.21534 0.21534 0.5957 0.11634 0.5957-0.15505zm-15.494-0.271c0-0.0991-0.0811-0.18018-0.18017-0.18018-0.0991 0-0.18018 0.08108-0.18018 0.18018s0.0811 0.18018 0.18018 0.18018c0.0991 0 0.18017-0.08108 0.18017-0.18018zm18.838-1.4571c0.20667-0.33442-0.22563-0.61406-0.5426-0.35099-0.15285 0.12685-0.27791 0.30179-0.27791 0.38875 0 0.22672 0.67629 0.19559 0.82051-0.03776zm-0.93833-0.78781c0.0596-0.1552-0.12849-0.46902-0.45888-0.76576-0.30788-0.27653-0.75526-0.68676-0.99415-0.91163-0.23891-0.22486-0.51022-0.36197-0.60292-0.30468-0.25921 0.1602-0.20446 1.164 0.0635 1.164 0.12762 0 0.51275 0.23994 0.85585 0.53321 0.69992 0.59826 0.98861 0.67061 1.1366 0.28488zm-9.6118-0.43085c0-0.3931-0.44676-1.4185-0.77708-1.7836-0.43107-0.47643-1.0247-0.53776-1.0247-0.10586 0 0.5177 1.0901 2.0428 1.4602 2.0428 0.18786 0 0.34157-0.06898 0.34157-0.15329zm11.672-2.7687c2.2286-0.36478 2.2718-0.71591 0.35533-2.8882-2.31-2.6184-4.3675-3.4649-8.3336-3.4288-2.7669 0.02523-3.8859 0.34988-5.9822 1.7357-1.312 0.86727-3.1167 2.7341-3.1167 3.2239 0 0.28718 1.0855 0.56422 3.3333 0.85068 0.69369 0.08841 1.9099 0.25163 2.7027 0.36272 3.7243 0.52186 8.3633 0.58237 11.041 0.14402zm-5.3657-0.87362c0-0.94966 0.1885-1.0255 2.593-1.0436 1.9165-0.01443 2.3016 0.03082 2.6477 0.31106 0.75596 0.61214 0.36444 0.85704-1.5755 0.9855-0.97528 0.06458-2.1989 0.11783-2.7192 0.11835-0.83615 0.000901-0.94593-0.04226-0.94593-0.37127zm-7.3873-0.2649c-0.64414-0.13552-1.4338-0.2009-1.7548-0.14531-0.76682 0.1328-0.98959-0.33766-0.42582-0.89925 0.36067-0.35927 0.54452-0.38609 2.3058-0.3364 2.042 0.05761 2.5775 0.21159 2.5775 0.74108 0 0.7726-0.9748 1.0034-2.7027 0.63987zm8.2882-5.6691c0-0.0991-0.14189-0.17894-0.31532-0.17742-0.26946 0.0024-0.27601 0.02816-0.045 0.17742 0.34003 0.21975 0.36036 0.21975 0.36036 0zm1.685 28.693c-0.57898-1.2873-0.64424-1.6151-0.40909-2.0544l0.21482-0.4014 0.31426 0.38809c0.17284 0.21345 0.37026 0.77615 0.43871 1.2504 0.0685 0.4743 0.16797 1.0448 0.22114 1.2678 0.18085 0.75823-0.38262 0.43277-0.77984-0.45044zm-16.389 0.2393c-0.14836-0.38665 0.25558-1.0051 0.6565-1.0051 0.47905 0 0.48325 0.81905 0.005 1.0747-0.45793 0.24507-0.54472 0.23594-0.662-0.06967zm9.7625-0.22439c-0.13572-0.35368 0.14001-0.694 0.42137-0.52011 0.28396 0.1755 0.24064 0.8205-0.0551 0.8205-0.13805 0-0.30287-0.13518-0.36627-0.3004zm8.8394-0.02109c-0.0481-0.07772-0.50229-0.94174-1.0095-1.9201-0.61549-1.1872-0.86215-1.8387-0.74174-1.9591 0.1204-0.1204 0.27719-0.10006 0.47146 0.06118 0.31743 0.26344 0.98545 1.4833 0.98545 1.7996 0 0.1083 0.2027 0.49521 0.45044 0.8598 0.50239 0.73932 0.58468 1.3 0.19082 1.3-0.1428 0-0.29893-0.06359-0.34697-0.1413zm7.6166-0.51859c-0.80731-0.62925-2.0378-2.4024-1.819-2.6213 0.23523-0.23523 2.9785 2.5005 2.8482 2.8403-0.14113 0.36776-0.32708 0.32819-1.0291-0.21903zm-17.535 0.14513c-0.16348-0.26451 0.0794-0.74648 0.37623-0.74648 0.16802 0 0.24266 0.1418 0.20595 0.39129-0.0624 0.42377-0.40907 0.6353-0.58218 0.3552zm1.2262-0.64118c-0.17666-0.46038 0.007-1.2765 0.28689-1.2765 0.31452 0 0.43961 0.48032 0.28526 1.0953-0.12105 0.4823-0.42023 0.57703-0.57215 0.18115zm-6.9891-0.21159c-0.14092-0.36722 0.52043-1.802 0.89727-1.9466 0.42975-0.16491 0.46303 0.27281 0.0944 1.2421-0.35337 0.9293-0.7872 1.2375-0.99172 0.70452zm1.5128-0.10044c0-0.60472 0.75337-2.5198 1.0336-2.6273 0.51736-0.19853 0.56558 0.23959 0.15551 1.4131-0.22876 0.65466-0.47305 1.2827-0.54286 1.3957-0.21587 0.34928-0.64621 0.22841-0.64621-0.18151zm1.8001 0.11457c-0.28404-0.34225-0.0461-1.0243 0.33242-0.95258 0.38949 0.0738 0.50459 0.9622 0.14266 1.1011-0.14676 0.05632-0.36055-0.01052-0.47508-0.14851zm16.038 0.08162c0-0.10489-0.36486-0.52276-0.8108-0.9286-0.88742-0.80762-1.1081-1.5834-0.45045-1.5834 0.1982 0 0.36036 0.06524 0.36036 0.14497s0.29004 0.46162 0.64453 0.84863c0.77066 0.84137 1.032 1.2942 0.88468 1.5326-0.14624 0.23663-0.62832 0.22569-0.62832-0.01425zm-21.081-0.34983c0-0.2002 0.12012-0.36036 0.27027-0.36036s0.27027 0.16016 0.27027 0.36036-0.12012 0.36036-0.27027 0.36036-0.27027-0.16016-0.27027-0.36036zm-1.688 0.05372c-0.28739-0.28738-0.0916-0.97243 0.33319-1.166 0.24584-0.11201 0.49002-0.33922 0.5426-0.50491 0.12065-0.38014 0.77007-1.0855 0.9994-1.0855 0.37232 0 0.14291 0.72282-0.45746 1.4414-0.34685 0.41514-0.63063 0.82536-0.63063 0.9116 0 0.2139-0.64569 0.54479-0.7871 0.40337zm9.5542-0.1754c-0.0652-0.06521-0.11856-0.34828-0.11856-0.62906 0-0.39038 0.0848-0.5105 0.36036-0.5105 0.25931 0 0.36036 0.12012 0.36036 0.42838 0 0.44724-0.3971 0.91624-0.60216 0.71118zm10.332-0.34198c0-0.59141 0.60276-0.53877 0.6882 0.0601 0.0437 0.30651-0.0321 0.40356-0.31531 0.40356-0.28047 0-0.37289-0.11492-0.37289-0.46366zm-8.1681-0.37718c-0.17713-0.17714-0.14614-0.96095 0.038-0.96095 0.087 0 0.25819 0.12059 0.38051 0.26797 0.35352 0.42597-0.0377 1.0738-0.41851 0.69298zm-14.414-0.36036c-0.0661-0.06606-0.12012-0.21821-0.12012-0.33809 0-0.27752 2.4718-2.6949 2.7556-2.6949 0.53635 0 0.21719 0.64663-0.91164 1.847-1.1799 1.2547-1.4614 1.4484-1.7238 1.186zm5.2852-0.32606c0-0.62738 0.85967-1.8715 1.3063-1.8904 0.21069-0.0089 0.15866 0.79956-0.0659 1.0241-0.11058 0.11057-0.29504 0.38958-0.40993 0.62002-0.24976 0.50098-0.83045 0.67317-0.83045 0.24625zm16.219-0.72127c-0.30822-0.44798-0.63758-0.81451-0.73192-0.81451-0.0943 0-0.17152-0.2027-0.17152-0.45045 0-0.33265 0.0957-0.45044 0.36601-0.45044 0.20131 0 0.41831 0.14189 0.48222 0.31531 0.0639 0.17342 0.30462 0.56621 0.53489 0.87285 0.23026 0.30665 0.41866 0.68699 0.41866 0.84521 0 0.59564-0.3566 0.46942-0.89834-0.31798zm3.4569 0.05035c-0.11892-0.11892-0.21621-0.3678-0.21621-0.55307 0-0.57869 0.79871-0.3267 0.86781 0.27379 0.0611 0.53137-0.2613 0.66957-0.6516 0.27928zm4.3333 0.09689c-0.54962-0.22178-0.11289-1.0266 0.45045-0.8301 0.12387 0.04321 0.22522 0.27451 0.22522 0.51399 0 0.41857-0.19529 0.50994-0.67567 0.3161zm-2.9974-0.33633c-0.27994-0.27994-0.21424-0.80559 0.10068-0.80559 0.39475 0 0.86977 0.39707 0.86977 0.72705 0 0.43164-0.57113 0.47786-0.97045 0.07854zm-23.534-0.40638c0-0.36268 0.14499-0.58734 0.52329-0.8108 0.67467-0.39854 0.91814-0.39062 0.91814 0.02986 0 0.28967-1.0368 1.2826-1.3393 1.2826-0.0562 0-0.10211-0.22576-0.10211-0.50169zm2.1621-0.20839c0-0.19235 0.0811-0.39983 0.18018-0.46108 0.0991-0.06125 0.18018-0.26588 0.18018-0.45474 0-0.37305 0.61938-0.80032 0.90461-0.62403 0.31348 0.19374 0.18956 0.54359-0.43343 1.2237-0.69387 0.75754-0.83154 0.80987-0.83154 0.31611zm19.005-0.37525c-0.25724-0.28424-0.28215-0.41243-0.11305-0.58153 0.29081-0.29081 0.81771 0.03829 0.8952 0.55914 0.0739 0.49662-0.34219 0.50853-0.78215 0.02238zm4.023 0.0493c-0.12948-0.17342-0.45704-0.42963-0.72788-0.56935-0.27085-0.13972-0.65598-0.40639-0.85585-0.5926-0.45818-0.42686-0.48149-1.0452-0.0394-1.0452 0.40552 0 2.3787 1.8585 2.3787 2.2405 0 0.3787-0.46313 0.35827-0.75554-0.03334zm-2.8642-0.38542c-0.33543-0.27404-0.38575-0.40411-0.22113-0.57165 0.25759-0.26216 0.74468-0.10482 0.89597 0.28943 0.19253 0.50173-0.20344 0.66733-0.67484 0.28222zm10.345-0.07067c-0.28013-0.22608-0.94108-0.60765-1.4688-0.84794-0.91579-0.417-1.4109-0.9051-1.1663-1.1497 0.29756-0.29757 1.0596-0.04155 2.0746 0.69702 0.61286 0.44594 1.1791 0.8108 1.2584 0.8108s0.14413 0.2027 0.14413 0.45044c0 0.55782-0.18872 0.56666-0.84202 0.0394zm-35.374-0.11629c0-0.44268 1.0556-1.0133 1.3396-0.72416 0.13656 0.13907 0.0461 0.32188-0.31358 0.6334-0.60819 0.52684-1.026 0.5638-1.026 0.09075zm-2.5225-0.1741c0-0.41543 0.49812-0.63913 0.82293-0.36957 0.34396 0.28545 0.10956 0.71065-0.39176 0.71065-0.30292 0-0.43117-0.10145-0.43117-0.34108zm7.278-0.45474c-0.15386-0.40094 0.0446-0.82578 0.38585-0.82578 0.20615 0 0.2717 0.13674 0.23088 0.4816-0.0653 0.55156-0.45393 0.76845-0.61673 0.34419zm18.163 0.03907c-0.24535-0.24535-0.28838-0.79898-0.0725-0.93242 0.0791-0.04886 0.25681-0.01895 0.39502 0.06647 0.16412 0.10143 0.32398 0.0559 0.46083-0.13125 0.2989-0.40876 0.8427-0.15673 0.76978 0.35676-0.0379 0.26686-0.1813 0.40621-0.41804 0.40621-0.19819 0-0.42519 0.10135-0.50444 0.22522-0.18074 0.28251-0.3547 0.285-0.63068 0.009zm-19.723-0.07167c-0.17534-0.17534 0.0654-0.61301 0.33719-0.61301 0.13804 0 0.25099 0.16216 0.25099 0.36036 0 0.3392-0.3509 0.48993-0.58818 0.25265zm-4.0138-0.625c-0.14698-0.23782-0.27345-0.12009 1.7186-1.5997 0.91899-0.6826 1.7815-1.1986 1.9168-1.1467 0.34841 0.1337 0.30503 0.58584-0.0694 0.72384-0.17343 0.06391-0.6279 0.3805-1.0099 0.70352-0.38204 0.32303-0.96643 0.71631-1.2986 0.87395-0.33221 0.15764-0.65278 0.36554-0.71239 0.46198-0.14266 0.23083-0.39676 0.22299-0.54496-0.01681zm-2.6052-0.20971c0-0.3172 0.36199-0.67919 0.6792-0.67919 0.43251 0 0.17899 0.80407-0.2738 0.86838-0.2511 0.03566-0.4054-0.03634-0.4054-0.18919zm28.504-0.35487c-0.32952-0.32952-0.27776-0.92703 0.0688-0.79404 0.15675 0.06015 0.31891 0.10937 0.36036 0.10937 0.0414 0 0.0754 0.2027 0.0754 0.45044 0 0.49182-0.16863 0.57011-0.5045 0.23423zm-27.182-0.42652c-0.15017-0.39134 0.23107-0.75936 0.50395-0.48648 0.23064 0.23064 0.0878 0.76886-0.2041 0.76886-0.10532 0-0.24025-0.12707-0.29985-0.28238zm30.155-0.3275c-0.71384-0.65386-0.86824-1.1919-0.34204-1.1919 0.41535 0 1.7385 1.3459 1.5781 1.6053-0.20628 0.33377-0.54344 0.221-1.2361-0.41344zm2.7576 0.07669c-0.44594-0.27602-1.1959-0.71832-1.6666-0.9829-0.86525-0.48634-1.1352-1.0064-0.52232-1.0064 0.18343 0 0.73073 0.21386 1.2162 0.47525 0.48548 0.26139 1.207 0.64739 1.6034 0.85777 0.45709 0.2426 0.74177 0.5301 0.77829 0.78599 0.0784 0.54947-0.37976 0.50728-1.4089-0.12972zm-31.892-0.61869c0-0.23608 0.36582-0.46972 0.73545-0.46972 0.091 0 0.16544 0.16216 0.16544 0.36036 0 0.26426-0.12012 0.36036-0.45044 0.36036-0.26491 0-0.45045-0.10339-0.45045-0.25099zm26.505-0.09411c-0.34068-0.21549-0.10316-0.77864 0.29598-0.70177 0.17372 0.03345 0.31585 0.21512 0.31585 0.4037 0 0.39977-0.2548 0.5239-0.61183 0.29807zm-25.424-0.34769c0-0.18284 0.15765-0.47511 0.35035-0.64949 0.19269-0.17438 0.37512-0.57142 0.4054-0.8823 0.0643-0.66015 0.59128-0.87919 0.76889-0.31958 0.0627 0.19755 0.2926 0.3846 0.51088 0.41565 0.70683 0.10055 0.42283 0.54425-0.74446 1.1631-0.62775 0.33279-1.175 0.60507-1.2162 0.60507s-0.0749-0.1496-0.0749-0.33243zm26.227-0.4929c-0.35924-0.35925-0.20926-0.6161 0.35978-0.6161 0.34901 0 0.43981 0.09299 0.43981 0.45044 0 0.51782-0.37062 0.59461-0.79959 0.16565zm4.7654-0.16336c-0.28782-0.34682-0.10617-0.8131 0.31677-0.8131 0.42022 0 0.7624 0.33965 0.7624 0.75675 0 0.40523-0.75682 0.44474-1.0792 0.05635zm-3.5604-0.28791c-0.3996-0.15103-0.54687-0.59666-0.25649-0.77613 0.29642-0.1832 0.93216 0.11791 0.93216 0.4415 0 0.43185-0.1811 0.52154-0.67567 0.33463zm2.2124-0.40904c-0.37016-0.27066-0.2705-0.83686 0.1473-0.83686 0.36069 0 0.71781 0.48603 0.59406 0.80851-0.12919 0.33665-0.31027 0.34358-0.74136 0.02835zm-1.4332-0.7769c-0.0634-0.16522-0.037-0.37868 0.0587-0.47437 0.26532-0.26532 0.73873-0.0034 0.73873 0.40876 0 0.45193-0.62932 0.50371-0.79744 0.06561zm-34.258-0.79796c-0.17328-0.28036 0.37719-0.77419 0.71742-0.64363 0.15633 0.05999 0.28424 0.27378 0.28424 0.47508 0 0.26793-0.11785 0.36601-0.43981 0.36601-0.2419 0-0.49473-0.08886-0.56185-0.19747zm1.7224-0.30528c0-0.28578 0.20451-0.42238 0.94594-0.63188 2.5653-0.72485 4.3805-1.0963 4.7201-0.96602 0.4195 0.16098 0.33689 0.64142-0.12556 0.73015-2.0968 0.40231-2.7106 0.52775-3.6486 0.7457-0.59458 0.13816-1.2635 0.30417-1.4865 0.36892-0.32564 0.09457-0.4054 0.046-0.4054-0.24687zm37.702-0.58393c-0.45683-0.18362-0.54137-0.67423-0.14256-0.82727 0.60374-0.23168 1.9534 0.5385 1.5866 0.90536-0.15575 0.15575-0.97209 0.11161-1.444-0.07809zm-42.636-0.50134c-0.25357-0.41029 0.12078-0.71444 1.0262-0.83373 0.51428-0.06776 1.2296-0.1663 1.5896-0.21897 0.36002-0.05268 0.69926-0.02348 0.75387 0.06488 0.20926 0.33859-0.21337 0.60963-1.2415 0.79624-0.58729 0.10659-1.2812 0.23408-1.542 0.28331-0.26078 0.04923-0.52456 0.0079-0.58617-0.09173zm40.024-0.22819c-0.46628-0.27158-0.39218-0.70628 0.12039-0.70628 0.67181 0 1.0057 0.18587 1.0057 0.55981 0 0.38188-0.59015 0.45864-1.1261 0.14647zm-2.0562-0.38746c-0.80524-0.16491-1.2516-0.53618-1.0456-0.86961 0.0806-0.13039 0.33475-0.16006 0.69118-0.0807 0.31005 0.06904 0.74152 0.15064 0.95883 0.18133 0.5308 0.07498 0.77605 0.24243 0.77605 0.52987 0 0.333-0.49956 0.41952-1.3805 0.23911zm-33.861-0.16597c-0.21496-0.34782 0.48691-0.69338 1.4083-0.69338 0.90814 0 1.3687 0.40264 0.84201 0.73614-0.36771 0.23283-2.1004 0.19991-2.2503-0.04276zm3.4752-0.26807c-0.16816-0.16815 0.035-0.42531 0.33606-0.42531 0.1428 0 0.25963 0.12162 0.25963 0.27027 0 0.27139-0.38036 0.37039-0.59569 0.15505zm1.171-0.20196c0.0751-0.38969 1.69-0.50387 1.8336-0.12964 0.13461 0.35078-0.028 0.4168-1.0263 0.4168-0.69236 0-0.8517-0.05668-0.80726-0.28715zm27.118 0.02311c-0.0695-0.06949-0.12634-0.28063-0.12634-0.4692 0-0.2525 0.10684-0.32768 0.4054-0.28528 0.26502 0.03764 0.4054 0.1815 0.4054 0.41546 0 0.3574-0.44544 0.57804-0.68446 0.33902zm7.0266-0.46508c-0.6512-0.13857-0.85012-0.25676-0.80485-0.47821 0.0502-0.2453 0.26837-0.28422 1.3139-0.23439 1.1829 0.05639 1.5953 0.24241 1.4652 0.66095-0.0773 0.24878-0.94163 0.27139-1.9743 0.05165zm-3.0877-0.42653c-0.37052-0.37052-0.20494-0.6161 0.41543-0.6161 0.60125 0 1.2081 0.40788 1.0317 0.69338-0.18734 0.3031-1.1163 0.25349-1.4471-0.07728zm-33.02-0.19593c-0.14692-0.38287 0.26073-0.59433 1.152-0.59759 1.3958-0.0051 1.2253 0.68886-0.19773 0.80482-0.64145 0.05227-0.87411 0.0018-0.95431-0.20724zm-1.8219-0.19494c0.0726-0.38305 1.0332-0.54027 1.2415-0.20321 0.22299 0.3608 0.0198 0.51852-0.66807 0.51852-0.50571 0-0.62116-0.06349-0.5734-0.31531zm33.39 0.13513c-0.1633-0.26422 0.0625-0.54054 0.4418-0.54054 0.33388 0 0.61542 0.41424 0.41665 0.61301-0.17212 0.17212-0.73674 0.12445-0.85845-0.07247zm-31.349-1.2409c-0.65074-0.07991-0.91551-0.19581-0.9579-0.41931-0.0756-0.39837 0.6544-0.59233 1.5517-0.41231 0.36624 0.07348 1.1118 0.18472 1.6569 0.24721 0.71025 0.08143 0.99098 0.19018 0.99098 0.38389 0 0.21043-0.25929 0.27477-1.1712 0.29061-0.64414 0.01119-1.5759-0.02935-2.0705-0.09009zm-2.6659-0.13219c-0.0706-0.07061-0.12839-0.27704-0.12839-0.45872 0-0.25862 0.13961-0.33033 0.64316-0.33033 0.56391 0 0.63606 0.04994 0.58558 0.4054-0.0398 0.28046-0.19848 0.42183-0.51477 0.45872-0.25145 0.02933-0.51496-0.0044-0.58558-0.07507zm37.835-0.05843c-0.80879-0.161-1.1159-0.41888-0.96554-0.81073 0.089-0.23202 0.30126-0.26472 1.15-0.17724 1.4169 0.14604 1.5252 0.19515 1.4589 0.66196-0.0652 0.4591-0.52082 0.54949-1.6434 0.32602zm-4.3467-0.31011c-0.18434-0.48036 0.0604-0.58358 1.255-0.52929 1.2511 0.05685 1.4423 0.13367 1.2941 0.51996-0.14197 0.36997-2.4075 0.37826-2.549 0.0093zm-0.40409-1.2453c-0.06-0.15633 0.024-0.41727 0.18655-0.57986 0.27404-0.27404 0.32346-0.26777 0.67712 0.08589 0.20983 0.20983 0.32634 0.47077 0.25892 0.57986-0.1853 0.29981-0.99846 0.2376-1.1226-0.08589zm2.0017-0.09313c-0.16202-0.26215 0.42516-0.73702 0.81783-0.6614 0.15056 0.029 0.27375 0.21377 0.27375 0.41061 0 0.41394-0.86757 0.61326-1.0916 0.25079zm-32.331-0.688c-0.24723-0.06879-0.47615-0.26341-0.5087-0.43248-0.0489-0.25383 0.0854-0.30741 0.77059-0.30741 0.89625 0 2.0795 0.40486 2.0795 0.71152 0 0.21-1.6182 0.22962-2.3414 0.02838zm31.11-0.31948c-0.0661-0.06606-0.12012-0.26876-0.12012-0.45045 0-0.25632 0.13891-0.33033 0.62-0.33033 0.70375 0 0.95492 0.25268 0.6347 0.63852-0.22348 0.26927-0.9202 0.35663-1.1346 0.14226zm2.042-0.87086c0-0.39006 0.0729-0.46516 0.4054-0.41793 0.26609 0.03779 0.4054 0.18141 0.4054 0.41793 0 0.23653-0.13931 0.38014-0.4054 0.41793-0.33255 0.04723-0.4054-0.02787-0.4054-0.41793zm1.1981 0.0052c-0.11817-0.30792 0.36926-0.86409 0.66964-0.76409 0.30566 0.10176 0.36479 0.69355 0.0869 0.86966-0.36338 0.23028-0.64263 0.19131-0.75655-0.10557zm2.1154-0.17208c-0.16724-0.43579 0.0573-0.82411 0.47657-0.82411 0.30581 0 0.3671 0.09432 0.32097 0.49395-0.064 0.55412-0.62282 0.78548-0.79754 0.33017zm-35.482-0.29374c-0.13782-0.22299 0.20623-0.52299 0.60507-0.52761 0.33963-0.0039 0.17796 0.61214-0.17866 0.68082-0.16304 0.0314-0.35493-0.03754-0.42641-0.15321zm29.857-0.56294c0.0463-0.32684 0.18985-0.4304 0.65895-0.47539 0.53713-0.05151 0.59356-0.01389 0.54054 0.36036-0.0463 0.32684-0.18986 0.4304-0.65896 0.47539-0.53713 0.05151-0.59356 0.01389-0.54053-0.36036zm-27.765-0.126c-0.21614-0.40386-0.0895-0.56422 0.44573-0.56422 0.45512 0 0.89075 0.43271 0.71762 0.71282-0.19241 0.31133-0.97039 0.21196-1.1634-0.1486zm26.007-0.45219c-0.058-0.15122-0.0583-0.35142-0.00054-0.44488 0.0578-0.09346-0.0161-0.21642-0.16421-0.27324-0.33475-0.12846-0.35452-0.76406-0.0277-0.88948 0.38875-0.14918 0.72006 0.16279 0.61194 0.57623-0.0676 0.25859-0.0147 0.3788 0.16688 0.3788 0.38095 0 0.23022 0.79198-0.16508 0.86732-0.17372 0.03311-0.36334-0.06353-0.42137-0.21476zm3.9405 0.04619c-0.32587-0.32587-0.0539-0.69876 0.5097-0.69876 0.39131 0 0.52125 0.08502 0.52125 0.34108 0 0.4979-0.6613 0.72733-1.031 0.35768zm-32.122-0.325c-0.34684-0.18206-0.99548-0.3906-1.4414-0.4634-0.9881-0.16132-1.4414-0.38406-1.4414-0.70821 0-0.60766 0.74894-0.47883 3.8288 0.65859 0.6225 0.2299 0.68953 0.8638 0.0901 0.85202-0.22297-0.0044-0.68919-0.15693-1.036-0.33899zm2.9795-0.18296c-0.0577-0.09326-0.71107-0.46117-1.4521-0.81757-0.81352-0.39129-1.3473-0.75806-1.3473-0.92582 0-0.3504 0.87444-0.18981 1.6967 0.31159 0.30555 0.18632 0.6865 0.33907 0.84656 0.33944 0.39441 0.000901 1.2405 0.68619 1.2405 1.0047 0 0.28803-0.81569 0.36064-0.98442 0.08763zm27.539-0.81279c-0.1387-0.36143 0.0303-0.57975 0.54963-0.7101 0.24274-0.06092 0.84818-0.36367 1.3454-0.67278 0.90418-0.56207 1.4598-0.59138 1.4598-0.07698 0 0.3521-0.57207 0.71852-1.9883 1.2735-1.3478 0.52821-1.241 0.51365-1.3666 0.18633zm-27.136-0.61687c-1.0547-0.61897-1.5805-1.0853-1.5805-1.4016 0-0.28778 0.46827-0.32486 0.63783-0.05051 0.0652 0.10551 0.57674 0.41114 1.1368 0.67919 0.72702 0.34799 1.0346 0.60228 1.0758 0.88924 0.0757 0.52852-0.21685 0.50174-1.2699-0.11628zm25.747 0.21786c-0.24402-0.24403-0.10762-0.54844 0.33641-0.75076 0.37362-0.17023 0.47543-0.15871 0.56069 0.06346 0.1864 0.48576-0.54119 1.0432-0.8971 0.68729zm-30.086-0.716c-0.28373-0.28373-0.11532-0.63032 0.27905-0.57431 0.22297 0.03167 0.4054 0.17809 0.4054 0.32538 0 0.28626-0.47454 0.45885-0.68445 0.24893zm27.081-0.10127c0-0.34734 0.51946-1.0461 0.77768-1.0461 0.11919 0 0.31995-0.16531 0.44612-0.36735 0.24321-0.38943 0.57799-0.32704 0.57799 0.10771 0 0.1428-0.14189 0.26276-0.31532 0.26657-0.17342 0.0038-0.47747 0.26162-0.67566 0.5729-0.39216 0.6159-0.81081 0.85664-0.81081 0.46624zm1.8018-0.33103c0-0.42807 0.47724-0.67024 0.76122-0.38626 0.14183 0.14184 0.13233 0.27374-0.0342 0.47437-0.32635 0.39324-0.72704 0.34468-0.72704-0.08811zm-23.663 0.06571c-0.0661-0.06607-0.12012-0.31477-0.12012-0.55268 0-0.36414 0.0641-0.41351 0.4054-0.31213 0.46721 0.13879 0.8885 0.60614 0.74935 0.8313-0.11231 0.18173-0.86212 0.20602-1.0346 0.03351zm26.186-0.03787c0-0.19579 0.70221-0.7429 0.95351-0.7429 0.0839 0 0.12671 0.18243 0.095 0.4054-0.0412 0.29027-0.1983 0.42159-0.55307 0.46241-0.27252 0.03136-0.49549-0.02486-0.49549-0.12492zm3.9945-0.59334c0.0768-0.54245 0.78018-0.59606 0.78018-0.05947 0 0.24024-0.13994 0.38018-0.41982 0.41982-0.34933 0.04948-0.40984-0.01103-0.36036-0.36036zm-5.256-0.336c0-0.41213 0.47341-0.67408 0.73873-0.40876 0.25872 0.25872-0.006 0.77477-0.39765 0.77477-0.22271 0-0.34108-0.12701-0.34108-0.36601zm-28.698-0.176c-0.29614-0.34586-0.42423-0.89883-0.2082-0.89883 0.2502 0 1.3256 0.95743 1.2368 1.1011-0.17225 0.2787-0.70682 0.17357-1.0286-0.20228zm2.5227 0.03616c-0.49947-0.30306-0.64727-0.81697-0.2972-1.0333 0.22548-0.13935 1.0677 0.59418 1.0677 0.92991 0 0.38188-0.25516 0.41613-0.77053 0.10342zm2.0719 0.04577c-0.22024-0.15427-0.40045-0.39751-0.40045-0.54054 0-0.36709 0.60765-0.32327 0.96306 0.06945 0.60964 0.67364 0.20742 1.0104-0.56261 0.47109zm27.287 0.16036c-0.24803-0.24803-0.107-0.60059 0.24024-0.60059 0.24023 0 0.36035 0.12012 0.36035 0.36036 0 0.34724-0.35256 0.48826-0.60059 0.24024zm-6.5381-0.50188c-0.0552-0.1439-0.0446-0.35202 0.0237-0.4625 0.0773-0.12507 0.0006-0.17931-0.20273-0.14376-0.44889 0.07841-0.54099-0.51261-0.14761-0.94729 0.39028-0.43126 0.72462-0.4422 0.9666-0.03164 0.16438 0.27889 0.29082 0.20516 1.0947-0.63834 0.89396-0.93799 1.2598-1.0566 1.2598-0.40853 0 0.35034-2.3728 2.8937-2.6996 2.8937-0.10699 0-0.2397-0.11774-0.29493-0.26164zm5.0749-0.77281c-0.11481-0.29919 0.4407-0.94751 0.81187-0.94751 0.32313 0 0.36791 0.39786 0.0921 0.81872-0.33902 0.51742-0.73332 0.57359-0.90401 0.12879zm-26.876-0.12808c-0.0552-0.1439-0.0501-0.34306 0.0114-0.44258 0.1741-0.2817 0.64082-0.01722 0.64082 0.36314 0 0.39962-0.50574 0.46122-0.65224 0.07944zm24.256-0.2789c0-0.24024 0.12012-0.36036 0.36036-0.36036s0.36035 0.12012 0.36035 0.36036-0.12011 0.36036-0.36035 0.36036-0.36036-0.12012-0.36036-0.36036zm-21.937-0.88938c-0.84409-0.98015-0.94052-1.2728-0.41944-1.2728 0.41032 0 1.6693 1.4046 1.5963 1.7809-0.0988 0.50915-0.42032 0.37035-1.1768-0.50812zm18.153 0.44797c0-0.33709 1.0528-1.9009 1.2797-1.9009 0.38981 0 0.34303 0.56459-0.11098 1.3393-0.47202 0.80545-1.1687 1.1402-1.1687 0.56161zm-21.081-0.20423c0-0.1569 0.0963-0.25319 0.21396-0.21396 0.33409 0.11136 0.3895 0.49924 0.0713 0.49924-0.15691 0-0.28528-0.12838-0.28528-0.28528zm0.73098-0.90528c-1.041-0.96383-1.2817-1.3732-0.93367-1.5883 0.4241-0.26211 2.3621 1.6835 2.3642 2.3734 0.001 0.41483-0.33178 0.23204-1.4305-0.78516zm19.333 0.73873c-0.13102-0.34142 0.42535-1.2166 0.71261-1.121 0.34772 0.11577 0.35913 0.67254 0.0214 1.0457-0.37775 0.41741-0.59424 0.43962-0.73404 0.07529zm-15.38-0.37398c0-0.31818 0.38788-0.26277 0.49924 0.07132 0.0392 0.11768-0.0571 0.21396-0.21396 0.21396-0.1569 0-0.28528-0.12838-0.28528-0.28528zm24.684 0.11797c0-0.23506 0.52492-0.73358 0.77244-0.73358 0.11338 0 0.58783-0.37593 1.0543-0.8354 0.8242-0.81181 1.4164-0.96717 1.4164-0.37156 0 0.23219-0.95285 1.0982-1.971 1.7914-0.49238 0.33521-1.2722 0.42666-1.2722 0.14919zm-23.967-0.73786c-0.40317-0.56619-0.3754-1.0768 0.0585-1.0768 0.13585 0 0.3411 0.20652 0.4561 0.45892 0.45758 1.0043 0.0817 1.4554-0.51465 0.61787zm-1.3483 0.0043c-0.0612-0.0991-0.0634-0.25772-0.005-0.35249 0.14821-0.23981 0.63549-0.02382 0.63549 0.28168 0 0.28809-0.46413 0.3402-0.63063 0.07081zm14.685-0.3444c0-0.70094 0.84061-1.7317 1.1815-1.4488 0.18186 0.15093 0.31739 0.10859 0.56022-0.17502 0.6094-0.71173 1.0827-0.30163 0.51623 0.4473-0.14549 0.19236-0.26969 0.47137-0.276 0.62002-0.0214 0.50376-0.44773 0.84161-1.2162 0.96369-0.75458 0.11987-0.76576 0.11393-0.76576-0.4072zm-12.066-0.0041c-0.22846-0.4269-0.24286-0.91274-0.0271-0.91274 0.18706 0 0.74143 0.80357 0.74143 1.0747 0 0.32104-0.51882 0.2034-0.71438-0.16199zm14.523 0.04332c-0.20291-0.20291-0.12358-0.41552 0.15505-0.41552 0.14864 0 0.27026 0.07629 0.27026 0.16954 0 0.2272-0.28136 0.38992-0.42531 0.24597zm-19.78-0.73083c-0.53118-0.63996-1.2356-1.7829-1.2356-2.0049 0-0.48372 0.65618-0.07059 1.2162 0.76572 0.55883 0.83451 0.75952 1.5545 0.43333 1.5545-0.0838 0-0.27003-0.14189-0.41397-0.31531zm1.5637-0.3633c-0.51109-0.7723-0.7925-1.8439-0.48423-1.8439 0.26634 0 1.4687 1.805 1.4687 2.2048 0 0.53969-0.51297 0.35164-0.98451-0.3609zm4.987 0.31813c-0.45723-0.49077-0.66257-1.2497-0.40721-1.5051 0.35537-0.35538 1.2034 1.2094 0.91141 1.6818-0.0982 0.15882-0.23691 0.11019-0.5042-0.17672zm17.979 0.04013c0-0.3538 0.25853-0.72662 1.9534-2.817 0.97284-1.1999 1.6502-1.5435 1.6502-0.8371 0 0.38737-2.9396 3.8501-3.347 3.9426-0.15331 0.03481-0.2566-0.08133-0.2566-0.28852zm-7.9879-0.16012c-0.35377-0.35377 0.48492-2.2736 0.95106-2.1771 0.33395 0.06916 0.28765 0.4738-0.17523 1.5314-0.3227 0.73731-0.51998 0.90149-0.77583 0.64564zm5.2279-0.12968c-0.10024-0.2612 0.96312-1.552 1.2785-1.552 0.43507 0 0.35345 0.58144-0.16443 1.1713-0.58521 0.66651-0.95583 0.79316-1.1141 0.3807zm-12.795-0.06551c-0.20037-0.33548-0.48172-2.176-0.3751-2.4539 0.15868-0.41351 0.48596-0.27985 0.63684 0.26008 0.3079 1.1018 0.10446 2.8069-0.26174 2.1938zm-1.6684-0.49588c-0.13961-0.55623 0.17054-0.99841 0.4819-0.68705 0.24605 0.24606 0.14734 0.9957-0.14375 1.0915-0.12021 0.03958-0.27239-0.14244-0.33815-0.40448zm5.6143 0.29099c-0.0543-0.08792-0.0931-0.89222-0.0861-1.7873 0.0129-1.6548 0.2512-2.3868 0.68893-2.1162 0.16114 0.09959 0.18841 0.57468 0.10241 1.7843-0.0645 0.90669-0.15646 1.7904-0.20443 1.9638-0.0937 0.3387-0.34027 0.41524-0.50082 0.15546zm2.1516-0.04434c-0.15544-0.39948 0.38401-1.6489 0.6711-1.5543 0.40433 0.13317 0.34935 0.80099-0.10963 1.3317-0.37523 0.4339-0.46534 0.46962-0.56147 0.22257zm-18.126-0.683c-0.519-0.519-0.714-1.275-0.328-1.275 0.30534 0 1.4234 1.1888 1.4234 1.5135 0 0.45164-0.51758 0.33896-1.0949-0.23839zm5.6965 0.06167c-0.50034-0.76361 0.0111-1.375 0.55295-0.66111 0.3169 0.41746 0.3177 1.1261 0.001 1.1261-0.13724 0-0.38665-0.20925-0.55422-0.465zm18.101 0.15265c0-0.43016 0.33856-0.76872 0.76872-0.76872 0.26056 0 0.32345 0.11158 0.27927 0.49549-0.0448 0.38918-0.16332 0.50772-0.5525 0.5525-0.38391 0.04417-0.49549-0.01871-0.49549-0.27928zm-16.33-0.18905c-0.11034-0.17667-0.2579-0.58208-0.32793-0.90089-0.0967-0.44024-0.0658-0.57966 0.12835-0.57966 0.3056 0 0.67386 0.74313 0.67386 1.3598 0 0.52075-0.19368 0.57006-0.47428 0.12074zm1.4953-0.69978c-0.18691-0.18691-0.14123-0.78077 0.0601-0.78077 0.0991 0 0.18018 0.2027 0.18018 0.45044 0 0.47172-0.0416 0.52894-0.24024 0.33033zm13.937-0.14637c-0.17487-0.21071-0.29053-0.22919-0.47519-0.07593-0.29968 0.24872-0.78919 0.08584-0.78919-0.26259 0-0.14078 0.14876-0.43967 0.33058-0.66421l0.33058-0.40824 0.27054 0.38626 0.27055 0.38626 0.36878-0.40337c0.20283-0.22186 0.49931-0.66174 0.65884-0.97753 0.34319-0.67931 0.61821-0.88403 0.86118-0.64105 0.19152 0.19151-0.0686 0.87824-0.79705 2.1043-0.48883 0.82272-0.70947 0.9419-1.0296 0.55615zm-12.945-0.395c0.0877-0.45202 0.50871-0.51409 0.50871-0.07499 0 0.22132-0.11635 0.37537-0.28348 0.37537-0.16779 0-0.25971-0.12259-0.22523-0.30038zm15.283-0.16191c0-0.49312 0.3609-0.97914 0.72706-0.97914 0.45442 0 0.4687 0.56107 0.0245 0.96305-0.41513 0.37569-0.75157 0.38288-0.75157 0.01608zm-16.813-0.19461c-0.0681-0.06813-0.12387-0.319-0.12387-0.5575 0-0.31599 0.0855-0.41715 0.31531-0.3729 0.19597 0.03774 0.31531 0.22459 0.31531 0.49369 0 0.43347-0.27392 0.66954-0.50675 0.43672zm10.567-0.16601c-0.15017-0.39134 0.23107-0.75936 0.50395-0.48648 0.23064 0.23063 0.0877 0.76886-0.2041 0.76886-0.10532 0-0.24025-0.12707-0.29985-0.28238zm1.8104-0.36758c-0.1184-0.47172 0.17408-0.85122 0.56148-0.72856 0.27649 0.08754 0.32575 0.64413 0.0829 0.93673-0.31846 0.38372-0.51149 0.32136-0.64439-0.20817zm-14.358-0.18597c-0.16816-0.16815 0.035-0.42531 0.33606-0.42531 0.1428 0 0.25963 0.12162 0.25963 0.27027 0 0.27139-0.38036 0.37039-0.59569 0.15505zm3.1182-0.33522c0-0.14865 0.12162-0.27027 0.27026-0.27027 0.14865 0 0.27027 0.12162 0.27027 0.27027s-0.12162 0.27027-0.27027 0.27027c-0.14864 0-0.27026-0.12162-0.27026-0.27027zm9.4894-0.03003c-0.20629-0.20629-0.13126-0.92704 0.1051-1.0095 0.59101-0.20616 0.92166 0.45118 0.45946 0.91339-0.24494 0.24494-0.39088 0.26978-0.56456 0.09609zm-7.6086-0.25825c-0.0674-0.109-0.19366-0.69683-0.28065-1.3063-0.087-0.60946-0.20935-1.4527-0.27194-1.8739-0.0934-0.62836-0.0622-0.76576 0.17359-0.76576 0.15804 0 0.38351 0.17965 0.50102 0.39922 0.28806 0.53825 0.45466 3.7449 0.19456 3.7449-0.10675 0-0.24921-0.08919-0.31658-0.19819zm-5.4039-0.53822c-0.0666-0.10773-0.0275-0.28948 0.087-0.4039 0.15724-0.15724 0.24727-0.14451 0.3688 0.05214 0.17173 0.27787 0.0851 0.54763-0.17579 0.54763-0.0874 0-0.21339-0.08814-0.27997-0.19588zm3.2233-0.0865c-0.15017-0.39134 0.23107-0.75936 0.50394-0.48648 0.23065 0.23063 0.0878 0.76886-0.20409 0.76886-0.10532 0-0.24025-0.12707-0.29985-0.28238zm12.252-0.35974c-0.16678-0.43464 0.24341-1.1597 0.6561-1.1597 0.40155 0 0.45508 0.2781 0.18851 0.97925-0.19521 0.51342-0.67731 0.6164-0.84461 0.18042zm-5.532-0.17066c-0.17155-0.44705 0.0896-1.3493 0.44564-1.5399 0.27466-0.14699 0.35201-0.09852 0.44705 0.28016 0.2216 0.8829-0.59507 2.0354-0.89269 1.2597zm6.6208-1.9714c-0.12679-0.33042 0.0577-0.63925 0.38198-0.63925 0.37082 0 0.51132 0.34018 0.26372 0.63852-0.27719 0.33399-0.51771 0.33427-0.6457 0.000738zm-6.2746-0.62299c-0.15049-0.2435 0.0841-0.73697 0.35031-0.73697 0.26624 0 0.5008 0.49347 0.35031 0.73697-0.0557 0.09015-0.21335 0.16392-0.35031 0.16392-0.13695 0-0.29458-0.07376-0.35031-0.16392zm-5.8037-1.5555c-0.13595-0.35428 0.0249-0.51695 0.37746-0.38167 0.15836 0.06077 0.2299 0.22306 0.16868 0.38262-0.1366 0.35595-0.40937 0.35547-0.54614-0.000961z"/>
 </g>
</svg>
