<?xml version="1.0" encoding="UTF-8" standalone="no"?>
<!-- Created with Inkscape (http://www.inkscape.org/) -->
<svg id="svg2" xmlns:rdf="http://www.w3.org/1999/02/22-rdf-syntax-ns#" xmlns="http://www.w3.org/2000/svg" height="45" width="67.5" version="1.1" xmlns:cc="http://creativecommons.org/ns#" xmlns:dc="http://purl.org/dc/elements/1.1/">
 <metadata id="metadata7">
  <rdf:RDF>
   <cc:Work rdf:about="">
    <dc:format>image/svg+xml</dc:format>
    <dc:type rdf:resource="http://purl.org/dc/dcmitype/StillImage"/>
    <dc:title/>
   </cc:Work>
  </rdf:RDF>
 </metadata>
 <g id="g19020">
  <rect id="rect2990" opacity="0" height="45" width="67.5" y="0" x="3.5527e-15"/>
  <path id="path7206" d="m21.829 44.763c-0.0757-0.13179-0.46498-1.6128-0.86516-3.2912l-0.72761-3.0516 1.4853-4.4566c0.8169-2.4511 1.4853-4.6154 1.4853-4.8095 0-0.19407-1.6893-1.6316-3.7539-3.1944-2.0646-1.5629-4.293-3.3255-4.952-3.9171l-1.198-1.0755v-3.3174-3.3174h6.9729c6.8925 0 6.981-0.0086 7.6734-0.74571 0.41554-0.44232 1.5417-3.2615 2.7679-6.9293 1.137-3.401 2.2136-6.33 2.3925-6.5088 0.64484-0.64483 1.2412 0.65597 3.207 6.9955 1.0898 3.5143 2.1132 6.6412 2.2743 6.9487 0.26591 0.50752 0.96384 0.55909 7.5658 0.55909 5.2307 0 7.3806 0.10765 7.6563 0.38338 0.25044 0.25044 0.38338 1.5694 0.38338 3.8038v3.4204l-1.6773 1.203c-5.0928 3.6529-8.5071 6.2814-8.653 6.6617-0.0908 0.23683 0.5408 2.7109 1.4037 5.498 1.1634 3.7575 1.5702 5.5835 1.5737 7.0641 0.006 2.4728-0.32522 2.5483-2.8415 0.64759-3.9524-2.9854-9.043-6.6379-9.2515-6.6379-0.12179 0-2.733 1.867-5.8028 4.1489-5.0458 3.7508-6.694 4.658-7.1188 3.918zm20.251-13.835c-0.89161-2.8308-1.6211-5.5536-1.6211-6.0506 0-0.92866 1.4286-2.2087 7.7376-6.9333 1.1807-0.88416 2.0553-1.699 1.9435-1.8108-0.11177-0.11177-2.8272-0.20321-6.0342-0.20321-3.2071 0-6.0582-0.0872-6.336-0.19378-0.46799-0.17958-1.2135-2.3169-3.3589-9.6303-0.37372-1.2739-0.78626-2.3162-0.91674-2.3162-0.1305 0-1.0715 2.5166-2.0912 5.5924-1.2645 3.8143-2.0428 5.6935-2.4481 5.9104-0.33141 0.17737-3.1468 0.31802-6.3659 0.31802-3.4434 0-5.7717 0.12277-5.7717 0.30434 0 0.16739 2.1565 1.9279 4.7922 3.9123 3.7815 2.847 4.7922 3.7655 4.7922 4.355 0 0.41085-0.79071 3.0487-1.7571 5.8618-0.96643 2.8132-1.7571 5.3221-1.7571 5.5753 0 0.67824 0.73294 0.2151 5.157-3.2586 5.2001-4.0831 4.8448-4.1051 10.829 0.67076 2.5382 2.0258 4.6628 3.5393 4.7215 3.3633 0.0587-0.17597-0.62285-2.6361-1.5145-5.4669z"/>
 </g>
</svg>
